%TF.GenerationSoftware,KiCad,Pcbnew,(6.0.4)*%
%TF.CreationDate,2022-06-08T17:57:10+02:00*%
%TF.ProjectId,basbousa,62617362-6f75-4736-912e-6b696361645f,v1.0.0*%
%TF.SameCoordinates,Original*%
%TF.FileFunction,OtherDrawing,Comment*%
%FSLAX46Y46*%
G04 Gerber Fmt 4.6, Leading zero omitted, Abs format (unit mm)*
G04 Created by KiCad (PCBNEW (6.0.4)) date 2022-06-08 17:57:10*
%MOMM*%
%LPD*%
G01*
G04 APERTURE LIST*
%ADD10C,0.150000*%
G04 APERTURE END LIST*
D10*
%TO.C,T1*%
X161119000Y89708000D02*
X158619000Y89708000D01*
X158619000Y93608000D02*
X161119000Y93608000D01*
X161119000Y93608000D02*
X161119000Y89708000D01*
%TO.C,S11*%
X67022321Y96843638D02*
X66848673Y97828446D01*
X65313178Y95019131D02*
X62361159Y111760862D01*
X80635981Y100259521D02*
X80809630Y99274713D01*
X78378555Y113062022D02*
X78552203Y112077214D01*
X65576054Y110804595D02*
X64591246Y110630947D01*
X78378555Y113062022D02*
X77393747Y112888373D01*
X62361159Y111760861D02*
X80087697Y114886529D01*
X67022322Y96843638D02*
X66848673Y97828446D01*
X64764895Y109646138D02*
X64591247Y110630946D01*
X79824822Y99101065D02*
X80809630Y99274713D01*
X78378554Y113062021D02*
X78552203Y112077213D01*
X67022322Y96843638D02*
X68007129Y97017286D01*
X83039717Y98144798D02*
X65313179Y95019130D01*
X80635982Y100259520D02*
X80809630Y99274713D01*
X65576055Y110804593D02*
X64591247Y110630946D01*
X78378554Y113062021D02*
X77393747Y112888372D01*
X79824822Y99101065D02*
X80809630Y99274713D01*
X62361159Y111760862D02*
X80087698Y114886529D01*
X80087698Y114886529D02*
X83039717Y98144798D01*
X64764895Y109646139D02*
X64591246Y110630947D01*
X67022321Y96843638D02*
X68007129Y97017287D01*
X80087697Y114886529D02*
X83039717Y98144798D01*
X65313179Y95019130D02*
X62361159Y111760861D01*
X83039717Y98144798D02*
X65313178Y95019131D01*
%TO.C,S15*%
X103130061Y106366224D02*
X104611709Y89430914D01*
X88541860Y89530714D02*
X89538055Y89617870D01*
X85198557Y104797420D02*
X103130061Y106366224D01*
X101268405Y104697620D02*
X100272211Y104610463D01*
X88541860Y89530714D02*
X88454705Y90526909D01*
X88541861Y89530713D02*
X88454705Y90526909D01*
X88317875Y103564593D02*
X87321680Y103477439D01*
X104611709Y89430914D02*
X86680205Y87862110D01*
X103130060Y106366224D02*
X104611709Y89430914D01*
X85198557Y104797419D02*
X103130060Y106366224D01*
X87408836Y102481244D02*
X87321680Y103477439D01*
X87408836Y102481245D02*
X87321680Y103477440D01*
X88541861Y89530713D02*
X89538055Y89617869D01*
X101268406Y104697620D02*
X101355561Y103701425D01*
X86680206Y87862109D02*
X85198557Y104797419D01*
X101492391Y90663739D02*
X102488586Y90750894D01*
X86680205Y87862110D02*
X85198557Y104797420D01*
X102401430Y91747088D02*
X102488586Y90750894D01*
X101492391Y90663739D02*
X102488586Y90750894D01*
X101268406Y104697620D02*
X100272211Y104610464D01*
X101268405Y104697620D02*
X101355562Y103701424D01*
X88317875Y103564595D02*
X87321680Y103477440D01*
X104611709Y89430914D02*
X86680206Y87862109D01*
X102401430Y91747089D02*
X102488586Y90750894D01*
%TO.C,S21*%
X108411088Y82686016D02*
X108411087Y83686017D01*
X124411087Y81186017D02*
X106411088Y81186016D01*
X122411087Y96686017D02*
X121411087Y96686017D01*
X109411087Y96686017D02*
X108411087Y96686017D01*
X122411087Y83686016D02*
X122411087Y82686017D01*
X124411087Y98186017D02*
X124411087Y81186017D01*
X106411088Y81186016D02*
X106411087Y98186016D01*
X106411087Y98186016D02*
X124411086Y98186017D01*
X122411087Y96686017D02*
X122411087Y95686017D01*
X108411087Y82686017D02*
X108411087Y83686017D01*
X122411086Y96686017D02*
X121411087Y96686016D01*
X124411087Y81186017D02*
X106411087Y81186017D01*
X108411088Y82686016D02*
X109411087Y82686016D01*
X108411087Y82686017D02*
X109411087Y82686017D01*
X124411086Y98186017D02*
X124411087Y81186017D01*
X121411087Y82686017D02*
X122411087Y82686017D01*
X109411087Y96686015D02*
X108411087Y96686016D01*
X108411087Y95686016D02*
X108411087Y96686016D01*
X106411087Y98186017D02*
X124411087Y98186017D01*
X122411086Y96686017D02*
X122411087Y95686016D01*
X121411087Y82686017D02*
X122411087Y82686017D01*
X108411087Y95686017D02*
X108411087Y96686017D01*
X122411087Y83686017D02*
X122411087Y82686017D01*
X106411087Y81186017D02*
X106411087Y98186017D01*
%TO.C,S29*%
X126985000Y111177999D02*
X126985000Y112177999D01*
X139985000Y98178000D02*
X140985000Y98178000D01*
X140985000Y99177999D02*
X140985000Y98178000D01*
X127985000Y112177998D02*
X126985000Y112177999D01*
X127985000Y112178000D02*
X126985000Y112178000D01*
X126985000Y98178000D02*
X126985000Y99178000D01*
X140985000Y112178000D02*
X140985000Y111178000D01*
X124985001Y96677999D02*
X124985000Y113677999D01*
X126985000Y111178000D02*
X126985000Y112178000D01*
X142985000Y113678000D02*
X142985000Y96678000D01*
X140984999Y112178000D02*
X139985000Y112177999D01*
X139985000Y98178000D02*
X140985000Y98178000D01*
X126985001Y98177999D02*
X127985000Y98177999D01*
X124985000Y96678000D02*
X124985000Y113678000D01*
X124985000Y113678000D02*
X142985000Y113678000D01*
X126985001Y98177999D02*
X126985000Y99178000D01*
X142985000Y96678000D02*
X124985001Y96677999D01*
X140984999Y112178000D02*
X140985000Y111177999D01*
X142985000Y96678000D02*
X124985000Y96678000D01*
X142984999Y113678000D02*
X142985000Y96678000D01*
X140985000Y112178000D02*
X139985000Y112178000D01*
X140985000Y99178000D02*
X140985000Y98178000D01*
X124985000Y113677999D02*
X142984999Y113678000D01*
X126985000Y98178000D02*
X127985000Y98178000D01*
%TO.C,S33*%
X152948454Y37696053D02*
X152622886Y36750535D01*
X137006237Y40541346D02*
X142540895Y56615162D01*
X144889099Y54220181D02*
X143943580Y54545749D01*
X139385627Y41308488D02*
X139711194Y42254008D01*
X157180840Y49987795D02*
X156235322Y50313363D01*
X157180839Y49987795D02*
X156235321Y50313362D01*
X154025571Y34681121D02*
X137006237Y40541346D01*
X142540895Y56615162D02*
X159560229Y50754937D01*
X139385626Y41308489D02*
X140331144Y40982921D01*
X151677367Y37076103D02*
X152622886Y36750535D01*
X157180840Y49987795D02*
X156855272Y49042276D01*
X152948454Y37696053D02*
X152622886Y36750535D01*
X143618012Y53600231D02*
X143943580Y54545749D01*
X144889098Y54220179D02*
X143943580Y54545748D01*
X157180839Y49987795D02*
X156855272Y49042275D01*
X159560229Y50754937D02*
X154025571Y34681121D01*
X154025571Y34681121D02*
X137006237Y40541347D01*
X143618012Y53600230D02*
X143943580Y54545748D01*
X159560229Y50754937D02*
X154025571Y34681121D01*
X151677367Y37076103D02*
X152622886Y36750535D01*
X139385626Y41308489D02*
X139711194Y42254008D01*
X142540895Y56615163D02*
X159560229Y50754937D01*
X139385627Y41308488D02*
X140331144Y40982920D01*
X137006237Y40541347D02*
X142540895Y56615163D01*
%TO.C,S7*%
X85991735Y81403065D02*
X88943755Y64661334D01*
X72926359Y63360174D02*
X72752711Y64344982D01*
X68265197Y78277397D02*
X85991735Y81403065D01*
X71217217Y61535666D02*
X68265197Y78277397D01*
X85991736Y81403065D02*
X88943755Y64661334D01*
X84282593Y79578558D02*
X84456241Y78593750D01*
X70668933Y76162674D02*
X70495285Y77147482D01*
X68265197Y78277398D02*
X85991736Y81403065D01*
X84282593Y79578558D02*
X83297785Y79404909D01*
X85728860Y65617601D02*
X86713668Y65791249D01*
X72926360Y63360174D02*
X72752711Y64344982D01*
X70668933Y76162675D02*
X70495284Y77147483D01*
X86540020Y66776056D02*
X86713668Y65791249D01*
X85728860Y65617601D02*
X86713668Y65791249D01*
X71480092Y77321131D02*
X70495284Y77147483D01*
X71480093Y77321129D02*
X70495285Y77147482D01*
X84282592Y79578557D02*
X83297785Y79404908D01*
X86540019Y66776057D02*
X86713668Y65791249D01*
X71217216Y61535667D02*
X68265197Y78277398D01*
X88943755Y64661334D02*
X71217216Y61535667D01*
X88943755Y64661334D02*
X71217217Y61535666D01*
X84282592Y79578557D02*
X84456241Y78593749D01*
X72926359Y63360174D02*
X73911167Y63533823D01*
X72926360Y63360174D02*
X73911167Y63533822D01*
%TO.C,T2*%
X161119000Y89708000D02*
X158619000Y89708000D01*
X161119000Y93608000D02*
X161119000Y89708000D01*
X158619000Y93608000D02*
X161119000Y93608000D01*
%TO.C,S1*%
X33952087Y64181009D02*
X33659714Y65137315D01*
X33952087Y64181009D02*
X34908391Y64473381D01*
X49691519Y67424500D02*
X32478035Y62161809D01*
X33952086Y64181010D02*
X33659714Y65137315D01*
X30815187Y77861648D02*
X29858882Y77569276D01*
X44721199Y83681680D02*
X49691519Y67424500D01*
X46384047Y67981842D02*
X47340352Y68274214D01*
X32478034Y62161809D02*
X27507715Y78418990D01*
X43247148Y81662480D02*
X42290844Y81370109D01*
X47047981Y69230517D02*
X47340352Y68274214D01*
X30151253Y76612972D02*
X29858882Y77569276D01*
X27507715Y78418989D02*
X44721199Y83681680D01*
X32478035Y62161809D02*
X27507715Y78418989D01*
X47047981Y69230518D02*
X47340352Y68274214D01*
X46384047Y67981842D02*
X47340352Y68274214D01*
X27507715Y78418990D02*
X44721200Y83681681D01*
X30815187Y77861646D02*
X29858882Y77569275D01*
X30151254Y76612971D02*
X29858882Y77569275D01*
X43247148Y81662480D02*
X43539520Y80706175D01*
X44721200Y83681681D02*
X49691519Y67424500D01*
X43247147Y81662480D02*
X42290844Y81370108D01*
X49691519Y67424500D02*
X32478034Y62161809D01*
X33952086Y64181010D02*
X34908390Y64473381D01*
X43247147Y81662480D02*
X43539520Y80706175D01*
%TO.C,S5*%
X43571104Y88863441D02*
X60784588Y94126132D01*
X65754908Y77868952D02*
X48541423Y72606261D01*
X59310537Y92106932D02*
X58354233Y91814561D01*
X59310536Y92106932D02*
X58354233Y91814560D01*
X62447436Y78426294D02*
X63403741Y78718666D01*
X63111370Y79674970D02*
X63403741Y78718666D01*
X46214643Y87057423D02*
X45922271Y88013727D01*
X50015476Y74625461D02*
X49723103Y75581767D01*
X48541424Y72606261D02*
X43571104Y88863441D01*
X62447436Y78426294D02*
X63403741Y78718666D01*
X59310537Y92106932D02*
X59602909Y91150627D01*
X46878576Y88306098D02*
X45922271Y88013727D01*
X50015475Y74625462D02*
X49723103Y75581767D01*
X63111370Y79674969D02*
X63403741Y78718666D01*
X59310536Y92106932D02*
X59602909Y91150627D01*
X50015476Y74625461D02*
X50971780Y74917833D01*
X60784588Y94126132D02*
X65754908Y77868952D01*
X43571104Y88863442D02*
X60784589Y94126133D01*
X48541423Y72606261D02*
X43571104Y88863442D01*
X65754908Y77868952D02*
X48541424Y72606261D01*
X46878576Y88306100D02*
X45922271Y88013728D01*
X46214642Y87057424D02*
X45922271Y88013728D01*
X50015475Y74625462D02*
X50971779Y74917833D01*
X60784589Y94126133D02*
X65754908Y77868952D01*
%TO.C,S27*%
X124985000Y96677999D02*
X142984999Y96678000D01*
X142985000Y79678000D02*
X124985000Y79678000D01*
X139985000Y81178000D02*
X140985000Y81178000D01*
X142985000Y79678000D02*
X124985001Y79677999D01*
X126985000Y94177999D02*
X126985000Y95177999D01*
X140985000Y82177999D02*
X140985000Y81178000D01*
X127985000Y95177998D02*
X126985000Y95177999D01*
X140985000Y95178000D02*
X139985000Y95178000D01*
X126985000Y94178000D02*
X126985000Y95178000D01*
X140984999Y95178000D02*
X140985000Y94177999D01*
X140985000Y82178000D02*
X140985000Y81178000D01*
X142984999Y96678000D02*
X142985000Y79678000D01*
X126985000Y81178000D02*
X127985000Y81178000D01*
X139985000Y81178000D02*
X140985000Y81178000D01*
X124985000Y96678000D02*
X142985000Y96678000D01*
X127985000Y95178000D02*
X126985000Y95178000D01*
X140984999Y95178000D02*
X139985000Y95177999D01*
X124985001Y79677999D02*
X124985000Y96677999D01*
X126985001Y81177999D02*
X126985000Y82178000D01*
X142985000Y96678000D02*
X142985000Y79678000D01*
X126985000Y81178000D02*
X126985000Y82178000D01*
X124985000Y79678000D02*
X124985000Y96678000D01*
X140985000Y95178000D02*
X140985000Y94178000D01*
X126985001Y81177999D02*
X127985000Y81177999D01*
%TO.C,S9*%
X83588001Y83517788D02*
X83761649Y82532981D01*
X68265197Y78277399D02*
X65313178Y95019130D01*
X85991736Y81403066D02*
X68265198Y78277398D01*
X68528074Y94062861D02*
X67543266Y93889214D01*
X85991736Y81403066D02*
X68265197Y78277399D01*
X68265198Y78277398D02*
X65313178Y95019129D01*
X69974341Y80101906D02*
X70959148Y80275554D01*
X83588000Y83517789D02*
X83761649Y82532981D01*
X82776841Y82359333D02*
X83761649Y82532981D01*
X69974341Y80101906D02*
X69800692Y81086714D01*
X81330574Y96320290D02*
X81504222Y95335482D01*
X67716914Y92904407D02*
X67543265Y93889215D01*
X69974340Y80101906D02*
X70959148Y80275555D01*
X69974340Y80101906D02*
X69800692Y81086714D01*
X81330573Y96320289D02*
X80345766Y96146640D01*
X81330573Y96320289D02*
X81504222Y95335481D01*
X83039716Y98144797D02*
X85991736Y81403066D01*
X67716914Y92904406D02*
X67543266Y93889214D01*
X65313178Y95019130D02*
X83039717Y98144797D01*
X83039717Y98144797D02*
X85991736Y81403066D01*
X82776841Y82359333D02*
X83761649Y82532981D01*
X68528073Y94062863D02*
X67543265Y93889215D01*
X65313178Y95019129D02*
X83039716Y98144797D01*
X81330574Y96320290D02*
X80345766Y96146641D01*
%TO.C,S13*%
X90023508Y72595404D02*
X89936353Y73591599D01*
X104611709Y89430914D02*
X106093357Y72495604D01*
X102974039Y73728429D02*
X103970234Y73815584D01*
X88161853Y70926800D02*
X86680205Y87862110D01*
X90023508Y72595404D02*
X91019703Y72682560D01*
X88890484Y85545934D02*
X88803328Y86542129D01*
X88890484Y85545935D02*
X88803328Y86542130D01*
X89799523Y86629283D02*
X88803328Y86542129D01*
X102750053Y87762310D02*
X102837210Y86766114D01*
X103883078Y74811779D02*
X103970234Y73815584D01*
X88161854Y70926799D02*
X86680205Y87862109D01*
X86680205Y87862109D02*
X104611708Y89430914D01*
X89799523Y86629285D02*
X88803328Y86542130D01*
X106093357Y72495604D02*
X88161853Y70926800D01*
X102750053Y87762310D02*
X101753859Y87675153D01*
X102750054Y87762310D02*
X101753859Y87675154D01*
X103883078Y74811778D02*
X103970234Y73815584D01*
X86680205Y87862110D02*
X104611709Y89430914D01*
X102750054Y87762310D02*
X102837209Y86766115D01*
X104611708Y89430914D02*
X106093357Y72495604D01*
X106093357Y72495604D02*
X88161854Y70926799D01*
X90023509Y72595403D02*
X89936353Y73591599D01*
X90023509Y72595403D02*
X91019703Y72682559D01*
X102974039Y73728429D02*
X103970234Y73815584D01*
%TO.C,S17*%
X103130062Y106366224D02*
X85198558Y104797420D01*
X101648413Y123301534D02*
X103130062Y106366224D01*
X87060213Y106466024D02*
X86973058Y107462219D01*
X83716910Y121732730D02*
X101648414Y123301534D01*
X100919783Y108682399D02*
X101006939Y107686204D01*
X85927189Y119416554D02*
X85840033Y120412749D01*
X100010744Y107599049D02*
X101006939Y107686204D01*
X86836228Y120499903D02*
X85840033Y120412749D01*
X99786759Y121632930D02*
X99873914Y120636735D01*
X85198558Y104797420D02*
X83716910Y121732730D01*
X100919783Y108682398D02*
X101006939Y107686204D01*
X99786758Y121632930D02*
X98790564Y121545773D01*
X87060214Y106466023D02*
X86973058Y107462219D01*
X99786758Y121632930D02*
X99873915Y120636734D01*
X86836228Y120499905D02*
X85840033Y120412750D01*
X100010744Y107599049D02*
X101006939Y107686204D01*
X101648414Y123301534D02*
X103130062Y106366224D01*
X99786759Y121632930D02*
X98790564Y121545774D01*
X87060213Y106466024D02*
X88056408Y106553180D01*
X85927189Y119416555D02*
X85840033Y120412750D01*
X87060214Y106466023D02*
X88056408Y106553179D01*
X83716910Y121732729D02*
X101648413Y123301534D01*
X103130062Y106366224D02*
X85198559Y104797419D01*
X85198559Y104797419D02*
X83716910Y121732729D01*
%TO.C,S31*%
X138192095Y57499937D02*
X137006236Y40541348D01*
X122056680Y56122130D02*
X122126437Y57119694D01*
X136092334Y56143104D02*
X135094770Y56212861D01*
X120235944Y58755554D02*
X138192096Y57499937D01*
X135185500Y43174771D02*
X135115743Y42177207D01*
X120235944Y58755553D02*
X138192095Y57499937D01*
X136092333Y56143104D02*
X136022577Y55145539D01*
X137006236Y40541348D02*
X119050084Y41796964D01*
X121149846Y43153798D02*
X122147410Y43084041D01*
X123124001Y57049938D02*
X122126437Y57119695D01*
X134118179Y42246964D02*
X135115743Y42177207D01*
X123124001Y57049936D02*
X122126437Y57119694D01*
X119050084Y41796964D02*
X120235944Y58755553D01*
X138192096Y57499937D02*
X137006236Y40541348D01*
X121149846Y43153798D02*
X121219603Y44151362D01*
X136092334Y56143104D02*
X136022577Y55145540D01*
X134118179Y42246964D02*
X135115743Y42177207D01*
X135185499Y43174770D02*
X135115743Y42177207D01*
X121149847Y43153797D02*
X121219603Y44151362D01*
X136092333Y56143104D02*
X135094770Y56212860D01*
X119050084Y41796965D02*
X120235944Y58755554D01*
X137006236Y40541348D02*
X119050084Y41796965D01*
X122056680Y56122131D02*
X122126437Y57119695D01*
X121149847Y43153797D02*
X122147410Y43084040D01*
%TO.C,S3*%
X67417755Y62169113D02*
X68374060Y62461485D01*
X51184962Y70800242D02*
X50892590Y71756546D01*
X65754907Y77868951D02*
X70725227Y61611771D01*
X54985795Y58368280D02*
X54693422Y59324586D01*
X64280856Y75849751D02*
X63324552Y75557380D01*
X53511743Y56349080D02*
X48541423Y72606260D01*
X53511742Y56349080D02*
X48541423Y72606261D01*
X48541423Y72606260D02*
X65754907Y77868951D01*
X48541423Y72606261D02*
X65754908Y77868952D01*
X65754908Y77868952D02*
X70725227Y61611771D01*
X51848895Y72048917D02*
X50892590Y71756546D01*
X64280855Y75849751D02*
X63324552Y75557379D01*
X64280856Y75849751D02*
X64573228Y74893446D01*
X54985794Y58368281D02*
X55942098Y58660652D01*
X68081689Y63417789D02*
X68374060Y62461485D01*
X51184961Y70800243D02*
X50892590Y71756547D01*
X64280855Y75849751D02*
X64573228Y74893446D01*
X67417755Y62169113D02*
X68374060Y62461485D01*
X68081689Y63417788D02*
X68374060Y62461485D01*
X54985794Y58368281D02*
X54693422Y59324586D01*
X51848895Y72048919D02*
X50892590Y71756547D01*
X70725227Y61611771D02*
X53511742Y56349080D01*
X54985795Y58368280D02*
X55942099Y58660652D01*
X70725227Y61611771D02*
X53511743Y56349080D01*
%TO.C,S23*%
X108411087Y112686017D02*
X108411087Y113686017D01*
X106411087Y98186017D02*
X106411087Y115186017D01*
X124411087Y98186017D02*
X106411087Y98186017D01*
X124411086Y115186017D02*
X124411087Y98186017D01*
X122411087Y100686017D02*
X122411087Y99686017D01*
X122411087Y113686017D02*
X122411087Y112686017D01*
X124411087Y115186017D02*
X124411087Y98186017D01*
X108411088Y99686016D02*
X108411087Y100686017D01*
X108411087Y99686017D02*
X109411087Y99686017D01*
X121411087Y99686017D02*
X122411087Y99686017D01*
X122411087Y100686016D02*
X122411087Y99686017D01*
X108411088Y99686016D02*
X109411087Y99686016D01*
X109411087Y113686017D02*
X108411087Y113686017D01*
X124411087Y98186017D02*
X106411088Y98186016D01*
X108411087Y112686016D02*
X108411087Y113686016D01*
X122411087Y113686017D02*
X121411087Y113686017D01*
X106411088Y98186016D02*
X106411087Y115186016D01*
X106411087Y115186016D02*
X124411086Y115186017D01*
X121411087Y99686017D02*
X122411087Y99686017D01*
X106411087Y115186017D02*
X124411087Y115186017D01*
X122411086Y113686017D02*
X121411087Y113686016D01*
X109411087Y113686015D02*
X108411087Y113686016D01*
X122411086Y113686017D02*
X122411087Y112686016D01*
X108411087Y99686017D02*
X108411087Y100686017D01*
%TO.C,S25*%
X124985000Y79677999D02*
X142984999Y79678000D01*
X127985000Y78178000D02*
X126985000Y78178000D01*
X140984999Y78178000D02*
X139985000Y78177999D01*
X142985000Y79678000D02*
X142985000Y62678000D01*
X142985000Y62678000D02*
X124985001Y62677999D01*
X126985000Y77177999D02*
X126985000Y78177999D01*
X140984999Y78178000D02*
X140985000Y77177999D01*
X140985000Y78178000D02*
X139985000Y78178000D01*
X139985000Y64178000D02*
X140985000Y64178000D01*
X126985000Y77178000D02*
X126985000Y78178000D01*
X140985000Y65177999D02*
X140985000Y64178000D01*
X142984999Y79678000D02*
X142985000Y62678000D01*
X126985000Y64178000D02*
X127985000Y64178000D01*
X124985001Y62677999D02*
X124985000Y79677999D01*
X139985000Y64178000D02*
X140985000Y64178000D01*
X140985000Y78178000D02*
X140985000Y77178000D01*
X127985000Y78177998D02*
X126985000Y78177999D01*
X140985000Y65178000D02*
X140985000Y64178000D01*
X126985000Y64178000D02*
X126985000Y65178000D01*
X142985000Y62678000D02*
X124985000Y62678000D01*
X124985000Y79678000D02*
X142985000Y79678000D01*
X124985000Y62678000D02*
X124985000Y79678000D01*
X126985001Y64177999D02*
X127985000Y64177999D01*
X126985001Y64177999D02*
X126985000Y65178000D01*
%TO.C,S19*%
X108411087Y78686016D02*
X108411087Y79686016D01*
X124411087Y64186017D02*
X106411088Y64186016D01*
X122411087Y66686017D02*
X122411087Y65686017D01*
X122411087Y79686017D02*
X121411087Y79686017D01*
X106411087Y81186017D02*
X124411087Y81186017D01*
X108411088Y65686016D02*
X108411087Y66686017D01*
X124411087Y81186017D02*
X124411087Y64186017D01*
X106411087Y64186017D02*
X106411087Y81186017D01*
X106411088Y64186016D02*
X106411087Y81186016D01*
X108411087Y65686017D02*
X108411087Y66686017D01*
X124411086Y81186017D02*
X124411087Y64186017D01*
X108411087Y78686017D02*
X108411087Y79686017D01*
X122411086Y79686017D02*
X121411087Y79686016D01*
X109411087Y79686015D02*
X108411087Y79686016D01*
X108411087Y65686017D02*
X109411087Y65686017D01*
X124411087Y64186017D02*
X106411087Y64186017D01*
X108411088Y65686016D02*
X109411087Y65686016D01*
X122411086Y79686017D02*
X122411087Y78686016D01*
X122411087Y66686016D02*
X122411087Y65686017D01*
X106411087Y81186016D02*
X124411086Y81186017D01*
X121411087Y65686017D02*
X122411087Y65686017D01*
X109411087Y79686017D02*
X108411087Y79686017D01*
X121411087Y65686017D02*
X122411087Y65686017D01*
X122411087Y79686017D02*
X122411087Y78686017D01*
%TD*%
M02*
