M48
; DRILL file {KiCad (6.0.4-0)} date 2022 June 15, Wednesday 11:13:44
; FORMAT={-:-/ absolute / metric / decimal}
; #@! TF.CreationDate,2022-06-15T11:13:44+02:00
; #@! TF.GenerationSoftware,Kicad,Pcbnew,(6.0.4-0)
; #@! TF.FileFunction,Plated,1,2,PTH
FMAT,2
METRIC
; #@! TA.AperFunction,Plated,PTH,ViaDrill
T1C0.400
; #@! TA.AperFunction,Plated,PTH,ComponentDrill
T2C1.092
; #@! TA.AperFunction,Plated,PTH,ComponentDrill
T3C1.270
; #@! TA.AperFunction,Plated,PTH,ComponentDrill
T4C1.300
; #@! TA.AperFunction,Plated,PTH,ComponentDrill
T5C2.200
%
G90
G05
T1
X198.12Y-125.476
X199.409Y-64.013
X200.66Y-127.635
X203.2Y-129.667
T2
X198.036Y-120.015
X198.12Y-135.255
X200.66Y-120.015
X200.66Y-135.255
X203.035Y-66.324
X203.2Y-120.015
X203.2Y-135.255
X205.035Y-66.324
X205.74Y-120.015
X205.74Y-135.255
X207.035Y-66.324
X208.28Y-120.015
X208.28Y-135.255
X210.82Y-120.015
X210.82Y-135.255
X213.36Y-120.015
X213.36Y-135.255
X215.9Y-120.015
X215.9Y-135.255
X218.44Y-120.015
X218.44Y-135.255
X220.98Y-120.015
X220.98Y-135.255
X223.52Y-120.015
X223.52Y-135.255
X226.06Y-120.015
X226.06Y-135.255
T3
X199.074Y-98.613
X203.606Y-113.436
X204.469Y-99.159
X208.637Y-95.689
X209.001Y-113.982
X213.169Y-110.512
X216.174Y-78.702
X218.865Y-93.966
X221.462Y-79.901
X221.557Y-109.231
X224.154Y-95.166
X226.022Y-76.965
X226.845Y-110.43
X228.713Y-92.23
X231.405Y-107.494
X235.722Y-71.013
X237.073Y-86.454
X238.424Y-101.895
X240.886Y-72.67
X242.237Y-88.111
X243.588Y-103.552
X245.684Y-70.142
X247.035Y-85.583
X248.386Y-101.024
X256.112Y-76.882
X256.112Y-92.382
X256.112Y-107.882
X261.112Y-78.982
X261.112Y-94.482
X261.112Y-109.982
X266.112Y-76.882
X266.112Y-92.382
X266.112Y-107.882
X268.219Y-128.34
X272.602Y-79.131
X272.612Y-94.632
X272.612Y-110.132
X273.017Y-130.868
X277.602Y-81.231
X277.612Y-96.732
X277.612Y-112.232
X278.181Y-129.211
X282.602Y-79.131
X282.612Y-94.632
X282.612Y-110.132
X284.892Y-130.346
X289.178Y-133.668
X294.551Y-132.934
T4
X195.707Y-74.549
X195.707Y-81.049
T5
X232.664Y-91.694
X251.714Y-72.644
X251.714Y-110.744
T0
M30
