  0
SECTION
  2
HEADER
  9
$ACADVER
  1
AC1014
  9
$HANDSEED
  5
FFFF
  9
$INSUNITS
 70
     4
  9
$MEASUREMENT
 70
     1
  0
ENDSEC
  0
SECTION
  2
TABLES
  0
TABLE
  2
VPORT
  5
8
330
0
100
AcDbSymbolTable
 70
     4
  0
VPORT
  5
2E
330
8
100
AcDbSymbolTableRecord
100
AcDbViewportTableRecord
  2
*ACTIVE
 70
     0
 10
0.0
 20
0.0
 11
1.0
 21
1.0
 12
210.0
 22
148.5
 13
0.0
 23
0.0
 14
10.0
 24
10.0
 15
10.0
 25
10.0
 16
0.0
 26
0.0
 36
1.0
 17
0.0
 27
0.0
 37
0.0
 40
341.0
 41
1.24
 42
50.0
 43
0.0
 44
0.0
 50
0.0
 51
0.0
 71
     0
 72
   100
 73
     1
 74
     3
 75
     0
 76
     0
 77
     0
 78
     0
  0
ENDTAB
  0
TABLE
  2
LTYPE
  5
5
330
0
100
AcDbSymbolTable
 70
     1
  0
LTYPE
  5
14
330
5
100
AcDbSymbolTableRecord
100
AcDbLinetypeTableRecord
  2
BYBLOCK
 70
     0
  3

 72
    65
 73
     0
 40
0.0
  0
LTYPE
  5
15
330
5
100
AcDbSymbolTableRecord
100
AcDbLinetypeTableRecord
  2
BYLAYER
 70
     0
  3

 72
    65
 73
     0
 40
0.0
  0
LTYPE
  5
16
330
5
100
AcDbSymbolTableRecord
100
AcDbLinetypeTableRecord
  2
CONTINUOUS
 70
     0
  3
Solid line
 72
    65
 73
     0
 40
0.0
  0
ENDTAB
  0
TABLE
  2
LAYER
  5
2
100
AcDbSymbolTable
 70
1
  0
LAYER
  5
50
100
AcDbSymbolTableRecord
100
AcDbLayerTableRecord
  2
0
 70
0
  6
CONTINUOUS
  0
ENDTAB
  0
TABLE
  2
STYLE
  5
3
330
0
100
AcDbSymbolTable
 70
     1
  0
STYLE
  5
11
330
3
100
AcDbSymbolTableRecord
100
AcDbTextStyleTableRecord
  2
STANDARD
 70
     0
 40
0.0
 41
1.0
 50
0.0
 71
     0
 42
2.5
  3
txt
  4

  0
ENDTAB
  0
TABLE
  2
VIEW
  5
6
330
0
100
AcDbSymbolTable
 70
     0
  0
ENDTAB
  0
TABLE
  2
UCS
  5
7
330
0
100
AcDbSymbolTable
 70
     0
  0
ENDTAB
  0
TABLE
  2
APPID
  5
9
330
0
100
AcDbSymbolTable
 70
     2
  0
APPID
  5
12
330
9
100
AcDbSymbolTableRecord
100
AcDbRegAppTableRecord
  2
ACAD
 70
     0
  0
ENDTAB
  0
TABLE
  2
DIMSTYLE
  5
A
330
0
100
AcDbSymbolTable
 70
     1
  0
DIMSTYLE
105
27
330
A
100
AcDbSymbolTableRecord
100
AcDbDimStyleTableRecord
  2
ISO-25
 70
     0
  3

  4

  5

  6

  7

 40
1.0
 41
2.5
 42
0.625
 43
3.75
 44
1.25
 45
0.0
 46
0.0
 47
0.0
 48
0.0
140
2.5
141
2.5
142
0.0
143
0.03937007874016
144
1.0
145
0.0
146
1.0
147
0.625
 71
     0
 72
     0
 73
     0
 74
     0
 75
     0
 76
     0
 77
     1
 78
     8
170
     0
171
     3
172
     1
173
     0
174
     0
175
     0
176
     0
177
     0
178
     0
270
     2
271
     2
272
     2
273
     2
274
     3
340
11
275
     0
280
     0
281
     0
282
     0
283
     0
284
     8
285
     0
286
     0
287
     3
288
     0
  0
ENDTAB
  0
TABLE
  2
BLOCK_RECORD
  5
1
330
0
100
AcDbSymbolTable
 70
     1
  0
BLOCK_RECORD
  5
1F
330
1
100
AcDbSymbolTableRecord
100
AcDbBlockTableRecord
  2
*MODEL_SPACE
  0
BLOCK_RECORD
  5
1B
330
1
100
AcDbSymbolTableRecord
100
AcDbBlockTableRecord
  2
*PAPER_SPACE
  0
ENDTAB
  0
ENDSEC
  0
SECTION
  2
BLOCKS
  0
BLOCK
  5
20
330
1F
100
AcDbEntity
  8
0
100
AcDbBlockBegin
  2
*MODEL_SPACE
 70
     0
 10
0.0
 20
0.0
 30
0.0
  3
*MODEL_SPACE
  1

  0
ENDBLK
  5
21
330
1F
100
AcDbEntity
  8
0
100
AcDbBlockEnd
  0
BLOCK
  5
1C
330
1B
100
AcDbEntity
 67
     1
  8
0
100
AcDbBlockBegin
  2
*PAPER_SPACE
  1

  0
ENDBLK
  5
1D
330
1B
100
AcDbEntity
 67
     1
  8
0
100
AcDbBlockEnd
  0
ENDSEC
  0
SECTION
  2
ENTITIES
  0
LINE
  5
100
100
AcDbEntity
  8
0
 62
7
100
AcDbLine
 10
6.380600
 20
77.074900
 30
0.0
 11
25.718400
 21
71.893300
 31
0.0
  0
LINE
  5
101
100
AcDbEntity
  8
0
 62
7
100
AcDbLine
 10
25.718400
 20
71.893300
 30
0.0
 11
30.900000
 21
91.231100
 31
0.0
  0
LINE
  5
102
100
AcDbEntity
  8
0
 62
7
100
AcDbLine
 10
30.900000
 20
91.231100
 30
0.0
 11
11.562100
 21
96.412700
 31
0.0
  0
LINE
  5
103
100
AcDbEntity
  8
0
 62
7
100
AcDbLine
 10
11.562100
 20
96.412700
 30
0.0
 11
6.380600
 21
77.074900
 31
0.0
  0
LINE
  5
104
100
AcDbEntity
  8
0
 62
7
100
AcDbLine
 10
188.667900
 20
20.418400
 30
0.0
 11
206.505800
 21
29.507300
 31
0.0
  0
LINE
  5
105
100
AcDbEntity
  8
0
 62
7
100
AcDbLine
 10
206.505800
 20
29.507300
 30
0.0
 11
197.416900
 21
47.345200
 31
0.0
  0
LINE
  5
106
100
AcDbEntity
  8
0
 62
7
100
AcDbLine
 10
197.416900
 20
47.345200
 30
0.0
 11
179.579000
 21
38.256300
 31
0.0
  0
LINE
  5
107
100
AcDbEntity
  8
0
 62
7
100
AcDbLine
 10
179.579000
 20
38.256300
 30
0.0
 11
188.667900
 21
20.418400
 31
0.0
  0
LINE
  5
108
100
AcDbEntity
  8
0
 62
7
100
AcDbLine
 10
173.395200
 20
7.560300
 30
0.0
 11
191.233200
 21
16.649200
 31
0.0
  0
LINE
  5
109
100
AcDbEntity
  8
0
 62
7
100
AcDbLine
 10
191.233200
 20
16.649200
 30
0.0
 11
182.144300
 21
34.487100
 31
0.0
  0
LINE
  5
10a
100
AcDbEntity
  8
0
 62
7
100
AcDbLine
 10
182.144300
 20
34.487100
 30
0.0
 11
164.306300
 21
25.398200
 31
0.0
  0
LINE
  5
10b
100
AcDbEntity
  8
0
 62
7
100
AcDbLine
 10
164.306300
 20
25.398200
 30
0.0
 11
173.395200
 21
7.560300
 31
0.0
  0
LINE
  5
10c
100
AcDbEntity
  8
0
 62
7
100
AcDbLine
 10
175.286600
 20
57.106100
 30
0.0
 11
193.124500
 21
66.195000
 31
0.0
  0
LINE
  5
10d
100
AcDbEntity
  8
0
 62
7
100
AcDbLine
 10
193.124500
 20
66.195000
 30
0.0
 11
184.035600
 21
84.032900
 31
0.0
  0
LINE
  5
10e
100
AcDbEntity
  8
0
 62
7
100
AcDbLine
 10
184.035600
 20
84.032900
 30
0.0
 11
166.197700
 21
74.944000
 31
0.0
  0
LINE
  5
10f
100
AcDbEntity
  8
0
 62
7
100
AcDbLine
 10
166.197700
 20
74.944000
 30
0.0
 11
175.286600
 21
57.106100
 31
0.0
  0
LINE
  5
110
100
AcDbEntity
  8
0
 62
7
100
AcDbLine
 10
58.828400
 20
95.813800
 30
0.0
 11
76.666400
 21
86.724900
 31
0.0
  0
LINE
  5
111
100
AcDbEntity
  8
0
 62
7
100
AcDbLine
 10
76.666400
 20
86.724900
 30
0.0
 11
85.755300
 21
104.562800
 31
0.0
  0
LINE
  5
112
100
AcDbEntity
  8
0
 62
7
100
AcDbLine
 10
85.755300
 20
104.562800
 30
0.0
 11
67.917300
 21
113.651700
 31
0.0
  0
LINE
  5
113
100
AcDbEntity
  8
0
 62
7
100
AcDbLine
 10
67.917300
 20
113.651700
 30
0.0
 11
58.828400
 21
95.813800
 31
0.0
  0
LINE
  5
114
100
AcDbEntity
  8
0
 62
7
100
AcDbLine
 10
74.176500
 20
83.149200
 30
0.0
 11
92.014500
 21
74.060300
 31
0.0
  0
LINE
  5
115
100
AcDbEntity
  8
0
 62
7
100
AcDbLine
 10
92.014500
 20
74.060300
 30
0.0
 11
101.103400
 21
91.898200
 31
0.0
  0
LINE
  5
116
100
AcDbEntity
  8
0
 62
7
100
AcDbLine
 10
101.103400
 20
91.898200
 30
0.0
 11
83.265400
 21
100.987100
 31
0.0
  0
LINE
  5
117
100
AcDbEntity
  8
0
 62
7
100
AcDbLine
 10
83.265400
 20
100.987100
 30
0.0
 11
74.176500
 21
83.149200
 31
0.0
  0
LINE
  5
118
100
AcDbEntity
  8
0
 62
7
100
AcDbLine
 10
156.359700
 20
20.982900
 30
0.0
 11
174.197600
 21
30.071800
 31
0.0
  0
LINE
  5
119
100
AcDbEntity
  8
0
 62
7
100
AcDbLine
 10
174.197600
 20
30.071800
 30
0.0
 11
165.108700
 21
47.909800
 31
0.0
  0
LINE
  5
11a
100
AcDbEntity
  8
0
 62
7
100
AcDbLine
 10
165.108700
 20
47.909800
 30
0.0
 11
147.270800
 21
38.820900
 31
0.0
  0
LINE
  5
11b
100
AcDbEntity
  8
0
 62
7
100
AcDbLine
 10
147.270800
 20
38.820900
 30
0.0
 11
156.359700
 21
20.982900
 31
0.0
  0
LINE
  5
11c
100
AcDbEntity
  8
0
 62
7
100
AcDbLine
 10
211.304300
 20
73.860600
 30
0.0
 11
229.866600
 21
81.360200
 31
0.0
  0
LINE
  5
11d
100
AcDbEntity
  8
0
 62
7
100
AcDbLine
 10
229.866600
 20
81.360200
 30
0.0
 11
222.366900
 21
99.922400
 31
0.0
  0
LINE
  5
11e
100
AcDbEntity
  8
0
 62
7
100
AcDbLine
 10
222.366900
 20
99.922400
 30
0.0
 11
203.804700
 21
92.422800
 31
0.0
  0
LINE
  5
11f
100
AcDbEntity
  8
0
 62
7
100
AcDbLine
 10
203.804700
 20
92.422800
 30
0.0
 11
211.304300
 21
73.860600
 31
0.0
  0
LINE
  5
120
100
AcDbEntity
  8
0
 62
7
100
AcDbLine
 10
67.442100
 20
16.674200
 30
0.0
 11
85.280000
 21
7.585300
 31
0.0
  0
LINE
  5
121
100
AcDbEntity
  8
0
 62
7
100
AcDbLine
 10
85.280000
 20
7.585300
 30
0.0
 11
94.368900
 21
25.423300
 31
0.0
  0
LINE
  5
122
100
AcDbEntity
  8
0
 62
7
100
AcDbLine
 10
94.368900
 20
25.423300
 30
0.0
 11
76.531000
 21
34.512200
 31
0.0
  0
LINE
  5
123
100
AcDbEntity
  8
0
 62
7
100
AcDbLine
 10
76.531000
 20
34.512200
 30
0.0
 11
67.442100
 21
16.674200
 31
0.0
  0
LINE
  5
124
100
AcDbEntity
  8
0
 62
7
100
AcDbLine
 10
181.797900
 20
86.620700
 30
0.0
 11
199.635800
 21
95.709600
 31
0.0
  0
LINE
  5
125
100
AcDbEntity
  8
0
 62
7
100
AcDbLine
 10
199.635800
 20
95.709600
 30
0.0
 11
190.546900
 21
113.547600
 31
0.0
  0
LINE
  5
126
100
AcDbEntity
  8
0
 62
7
100
AcDbLine
 10
190.546900
 20
113.547600
 30
0.0
 11
172.709000
 21
104.458700
 31
0.0
  0
LINE
  5
127
100
AcDbEntity
  8
0
 62
7
100
AcDbLine
 10
172.709000
 20
104.458700
 30
0.0
 11
181.797900
 21
86.620700
 31
0.0
  0
LINE
  5
128
100
AcDbEntity
  8
0
 62
7
100
AcDbLine
 10
50.202600
 20
78.884700
 30
0.0
 11
68.040600
 21
69.795800
 31
0.0
  0
LINE
  5
129
100
AcDbEntity
  8
0
 62
7
100
AcDbLine
 10
68.040600
 20
69.795800
 30
0.0
 11
77.129400
 21
87.633700
 31
0.0
  0
LINE
  5
12a
100
AcDbEntity
  8
0
 62
7
100
AcDbLine
 10
77.129400
 20
87.633700
 30
0.0
 11
59.291500
 21
96.722600
 31
0.0
  0
LINE
  5
12b
100
AcDbEntity
  8
0
 62
7
100
AcDbLine
 10
59.291500
 20
96.722600
 30
0.0
 11
50.202600
 21
78.884700
 31
0.0
  0
LINE
  5
12c
100
AcDbEntity
  8
0
 62
7
100
AcDbLine
 10
56.924900
 20
49.290900
 30
0.0
 11
74.762900
 21
40.202000
 31
0.0
  0
LINE
  5
12d
100
AcDbEntity
  8
0
 62
7
100
AcDbLine
 10
74.762900
 20
40.202000
 30
0.0
 11
83.851700
 21
58.040000
 31
0.0
  0
LINE
  5
12e
100
AcDbEntity
  8
0
 62
7
100
AcDbLine
 10
83.851700
 20
58.040000
 30
0.0
 11
66.013800
 21
67.128900
 31
0.0
  0
LINE
  5
12f
100
AcDbEntity
  8
0
 62
7
100
AcDbLine
 10
66.013800
 20
67.128900
 30
0.0
 11
56.924900
 21
49.290900
 31
0.0
  0
LINE
  5
130
100
AcDbEntity
  8
0
 62
7
100
AcDbLine
 10
232.741400
 20
71.799500
 30
0.0
 11
252.079300
 21
76.981100
 31
0.0
  0
LINE
  5
131
100
AcDbEntity
  8
0
 62
7
100
AcDbLine
 10
252.079300
 20
76.981100
 30
0.0
 11
246.897700
 21
96.318900
 31
0.0
  0
LINE
  5
132
100
AcDbEntity
  8
0
 62
7
100
AcDbLine
 10
246.897700
 20
96.318900
 30
0.0
 11
227.559900
 21
91.137400
 31
0.0
  0
LINE
  5
133
100
AcDbEntity
  8
0
 62
7
100
AcDbLine
 10
227.559900
 20
91.137400
 30
0.0
 11
232.741400
 21
71.799500
 31
0.0
  0
LINE
  5
134
100
AcDbEntity
  8
0
 62
7
100
AcDbLine
 10
199.049500
 20
52.762500
 30
0.0
 11
216.887500
 21
61.851400
 31
0.0
  0
LINE
  5
135
100
AcDbEntity
  8
0
 62
7
100
AcDbLine
 10
216.887500
 20
61.851400
 30
0.0
 11
207.798600
 21
79.689300
 31
0.0
  0
LINE
  5
136
100
AcDbEntity
  8
0
 62
7
100
AcDbLine
 10
207.798600
 20
79.689300
 30
0.0
 11
189.960600
 21
70.600500
 31
0.0
  0
LINE
  5
137
100
AcDbEntity
  8
0
 62
7
100
AcDbLine
 10
189.960600
 20
70.600500
 30
0.0
 11
199.049500
 21
52.762500
 31
0.0
  0
LINE
  5
138
100
AcDbEntity
  8
0
 62
7
100
AcDbLine
 10
21.478200
 20
63.843500
 30
0.0
 11
40.040400
 21
56.343800
 31
0.0
  0
LINE
  5
139
100
AcDbEntity
  8
0
 62
7
100
AcDbLine
 10
40.040400
 20
56.343800
 30
0.0
 11
47.540000
 21
74.906000
 31
0.0
  0
LINE
  5
13a
100
AcDbEntity
  8
0
 62
7
100
AcDbLine
 10
47.540000
 20
74.906000
 30
0.0
 11
28.977800
 21
82.405700
 31
0.0
  0
LINE
  5
13b
100
AcDbEntity
  8
0
 62
7
100
AcDbLine
 10
28.977800
 20
82.405700
 30
0.0
 11
21.478200
 21
63.843500
 31
0.0
  0
LINE
  5
13c
100
AcDbEntity
  8
0
 62
7
100
AcDbLine
 10
35.713200
 20
99.076400
 30
0.0
 11
54.275500
 21
91.576800
 31
0.0
  0
LINE
  5
13d
100
AcDbEntity
  8
0
 62
7
100
AcDbLine
 10
54.275500
 20
91.576800
 30
0.0
 11
61.775100
 21
110.139000
 31
0.0
  0
LINE
  5
13e
100
AcDbEntity
  8
0
 62
7
100
AcDbLine
 10
61.775100
 20
110.139000
 30
0.0
 11
43.212900
 21
117.638700
 31
0.0
  0
LINE
  5
13f
100
AcDbEntity
  8
0
 62
7
100
AcDbLine
 10
43.212900
 20
117.638700
 30
0.0
 11
35.713200
 21
99.076400
 31
0.0
  0
LINE
  5
140
100
AcDbEntity
  8
0
 62
7
100
AcDbLine
 10
52.169400
 20
29.532300
 30
0.0
 11
70.007300
 21
20.443400
 31
0.0
  0
LINE
  5
141
100
AcDbEntity
  8
0
 62
7
100
AcDbLine
 10
70.007300
 20
20.443400
 30
0.0
 11
79.096200
 21
38.281400
 31
0.0
  0
LINE
  5
142
100
AcDbEntity
  8
0
 62
7
100
AcDbLine
 10
79.096200
 20
38.281400
 30
0.0
 11
61.258300
 21
47.370300
 31
0.0
  0
LINE
  5
143
100
AcDbEntity
  8
0
 62
7
100
AcDbLine
 10
61.258300
 20
47.370300
 30
0.0
 11
52.169400
 21
29.532300
 31
0.0
  0
LINE
  5
144
100
AcDbEntity
  8
0
 62
7
100
AcDbLine
 10
111.349200
 20
38.816600
 30
0.0
 11
93.511200
 21
47.905500
 31
0.0
  0
LINE
  5
145
100
AcDbEntity
  8
0
 62
7
100
AcDbLine
 10
93.511200
 20
47.905500
 30
0.0
 11
84.422300
 21
30.067600
 31
0.0
  0
LINE
  5
146
100
AcDbEntity
  8
0
 62
7
100
AcDbLine
 10
84.422300
 20
30.067600
 30
0.0
 11
102.260300
 21
20.978700
 31
0.0
  0
LINE
  5
147
100
AcDbEntity
  8
0
 62
7
100
AcDbLine
 10
102.260300
 20
20.978700
 30
0.0
 11
111.349200
 21
38.816600
 31
0.0
  0
LINE
  5
148
100
AcDbEntity
  8
0
 62
7
100
AcDbLine
 10
161.170300
 20
42.015700
 30
0.0
 11
179.008300
 21
51.104600
 31
0.0
  0
LINE
  5
149
100
AcDbEntity
  8
0
 62
7
100
AcDbLine
 10
179.008300
 20
51.104600
 30
0.0
 11
169.919400
 21
68.942600
 31
0.0
  0
LINE
  5
14a
100
AcDbEntity
  8
0
 62
7
100
AcDbLine
 10
169.919400
 20
68.942600
 30
0.0
 11
152.081400
 21
59.853700
 31
0.0
  0
LINE
  5
14b
100
AcDbEntity
  8
0
 62
7
100
AcDbLine
 10
152.081400
 20
59.853700
 30
0.0
 11
161.170300
 21
42.015700
 31
0.0
  0
LINE
  5
14c
100
AcDbEntity
  8
0
 62
7
100
AcDbLine
 10
11.290600
 20
95.445200
 30
0.0
 11
30.628500
 21
90.263700
 31
0.0
  0
LINE
  5
14d
100
AcDbEntity
  8
0
 62
7
100
AcDbLine
 10
30.628500
 20
90.263700
 30
0.0
 11
35.810000
 21
109.601500
 31
0.0
  0
LINE
  5
14e
100
AcDbEntity
  8
0
 62
7
100
AcDbLine
 10
35.810000
 20
109.601500
 30
0.0
 11
16.472200
 21
114.783100
 31
0.0
  0
LINE
  5
14f
100
AcDbEntity
  8
0
 62
7
100
AcDbLine
 10
16.472200
 20
114.783100
 30
0.0
 11
11.290600
 21
95.445200
 31
0.0
  0
LINE
  5
150
100
AcDbEntity
  8
0
 62
7
100
AcDbLine
 10
41.576800
 20
61.955500
 30
0.0
 11
59.414700
 21
52.866600
 31
0.0
  0
LINE
  5
151
100
AcDbEntity
  8
0
 62
7
100
AcDbLine
 10
59.414700
 20
52.866600
 30
0.0
 11
68.503600
 21
70.704600
 31
0.0
  0
LINE
  5
152
100
AcDbEntity
  8
0
 62
7
100
AcDbLine
 10
68.503600
 20
70.704600
 30
0.0
 11
50.665700
 21
79.793500
 31
0.0
  0
LINE
  5
153
100
AcDbEntity
  8
0
 62
7
100
AcDbLine
 10
50.665700
 20
79.793500
 30
0.0
 11
41.576800
 21
61.955500
 31
0.0
  0
LINE
  5
154
100
AcDbEntity
  8
0
 62
7
100
AcDbLine
 10
204.186800
 20
91.477100
 30
0.0
 11
222.749000
 21
98.976700
 31
0.0
  0
LINE
  5
155
100
AcDbEntity
  8
0
 62
7
100
AcDbLine
 10
222.749000
 20
98.976700
 30
0.0
 11
215.249400
 21
117.538900
 31
0.0
  0
LINE
  5
156
100
AcDbEntity
  8
0
 62
7
100
AcDbLine
 10
215.249400
 20
117.538900
 30
0.0
 11
196.687200
 21
110.039300
 31
0.0
  0
LINE
  5
157
100
AcDbEntity
  8
0
 62
7
100
AcDbLine
 10
196.687200
 20
110.039300
 30
0.0
 11
204.186800
 21
91.477100
 31
0.0
  0
LINE
  5
158
100
AcDbEntity
  8
0
 62
7
100
AcDbLine
 10
65.550700
 20
66.220000
 30
0.0
 11
83.388700
 21
57.131100
 31
0.0
  0
LINE
  5
159
100
AcDbEntity
  8
0
 62
7
100
AcDbLine
 10
83.388700
 20
57.131100
 30
0.0
 11
92.477600
 21
74.969100
 31
0.0
  0
LINE
  5
15a
100
AcDbEntity
  8
0
 62
7
100
AcDbLine
 10
92.477600
 20
74.969100
 30
0.0
 11
74.639600
 21
84.058000
 31
0.0
  0
LINE
  5
15b
100
AcDbEntity
  8
0
 62
7
100
AcDbLine
 10
74.639600
 20
84.058000
 30
0.0
 11
65.550700
 21
66.220000
 31
0.0
  0
LINE
  5
15c
100
AcDbEntity
  8
0
 62
7
100
AcDbLine
 10
88.292800
 20
68.058800
 30
0.0
 11
106.130700
 21
58.969900
 31
0.0
  0
LINE
  5
15d
100
AcDbEntity
  8
0
 62
7
100
AcDbLine
 10
106.130700
 20
58.969900
 30
0.0
 11
115.219600
 21
76.807800
 31
0.0
  0
LINE
  5
15e
100
AcDbEntity
  8
0
 62
7
100
AcDbLine
 10
115.219600
 20
76.807800
 30
0.0
 11
97.381600
 21
85.896700
 31
0.0
  0
LINE
  5
15f
100
AcDbEntity
  8
0
 62
7
100
AcDbLine
 10
97.381600
 20
85.896700
 30
0.0
 11
88.292800
 21
68.058800
 31
0.0
  0
LINE
  5
160
100
AcDbEntity
  8
0
 62
7
100
AcDbLine
 10
152.544500
 20
58.944800
 30
0.0
 11
170.382500
 21
68.033700
 31
0.0
  0
LINE
  5
161
100
AcDbEntity
  8
0
 62
7
100
AcDbLine
 10
170.382500
 20
68.033700
 30
0.0
 11
161.293600
 21
85.871700
 31
0.0
  0
LINE
  5
162
100
AcDbEntity
  8
0
 62
7
100
AcDbLine
 10
161.293600
 20
85.871700
 30
0.0
 11
143.455600
 21
76.782800
 31
0.0
  0
LINE
  5
163
100
AcDbEntity
  8
0
 62
7
100
AcDbLine
 10
143.455600
 20
76.782800
 30
0.0
 11
152.544500
 21
58.944800
 31
0.0
  0
LINE
  5
164
100
AcDbEntity
  8
0
 62
7
100
AcDbLine
 10
166.660700
 20
74.035200
 30
0.0
 11
184.498700
 21
83.124100
 31
0.0
  0
LINE
  5
165
100
AcDbEntity
  8
0
 62
7
100
AcDbLine
 10
184.498700
 20
83.124100
 30
0.0
 11
175.409800
 21
100.962100
 31
0.0
  0
LINE
  5
166
100
AcDbEntity
  8
0
 62
7
100
AcDbLine
 10
175.409800
 20
100.962100
 30
0.0
 11
157.571800
 21
91.873200
 31
0.0
  0
LINE
  5
167
100
AcDbEntity
  8
0
 62
7
100
AcDbLine
 10
157.571800
 20
91.873200
 30
0.0
 11
166.660700
 21
74.035200
 31
0.0
  0
LINE
  5
168
100
AcDbEntity
  8
0
 62
7
100
AcDbLine
 10
227.817600
 20
90.155400
 30
0.0
 11
247.155400
 21
95.337000
 31
0.0
  0
LINE
  5
169
100
AcDbEntity
  8
0
 62
7
100
AcDbLine
 10
247.155400
 20
95.337000
 30
0.0
 11
241.973900
 21
114.674800
 31
0.0
  0
LINE
  5
16a
100
AcDbEntity
  8
0
 62
7
100
AcDbLine
 10
241.973900
 20
114.674800
 30
0.0
 11
222.636000
 21
109.493200
 31
0.0
  0
LINE
  5
16b
100
AcDbEntity
  8
0
 62
7
100
AcDbLine
 10
222.636000
 20
109.493200
 30
0.0
 11
227.817600
 21
90.155400
 31
0.0
  0
LINE
  5
16c
100
AcDbEntity
  8
0
 62
7
100
AcDbLine
 10
190.423700
 20
69.691600
 30
0.0
 11
208.261700
 21
78.780500
 31
0.0
  0
LINE
  5
16d
100
AcDbEntity
  8
0
 62
7
100
AcDbLine
 10
208.261700
 20
78.780500
 30
0.0
 11
199.172800
 21
96.618500
 31
0.0
  0
LINE
  5
16e
100
AcDbEntity
  8
0
 62
7
100
AcDbLine
 10
199.172800
 20
96.618500
 30
0.0
 11
181.334800
 21
87.529600
 31
0.0
  0
LINE
  5
16f
100
AcDbEntity
  8
0
 62
7
100
AcDbLine
 10
181.334800
 20
87.529600
 30
0.0
 11
190.423700
 21
69.691600
 31
0.0
  0
LINE
  5
170
100
AcDbEntity
  8
0
 62
7
100
AcDbLine
 10
218.421900
 20
56.244100
 30
0.0
 11
236.984100
 21
63.743700
 31
0.0
  0
LINE
  5
171
100
AcDbEntity
  8
0
 62
7
100
AcDbLine
 10
236.984100
 20
63.743700
 30
0.0
 11
229.484500
 21
82.305900
 31
0.0
  0
LINE
  5
172
100
AcDbEntity
  8
0
 62
7
100
AcDbLine
 10
229.484500
 20
82.305900
 30
0.0
 11
210.922200
 21
74.806300
 31
0.0
  0
LINE
  5
173
100
AcDbEntity
  8
0
 62
7
100
AcDbLine
 10
210.922200
 20
74.806300
 30
0.0
 11
218.421900
 21
56.244100
 31
0.0
  0
LINE
  5
174
100
AcDbEntity
  8
0
 62
7
100
AcDbLine
 10
28.596000
 20
81.459500
 30
0.0
 11
47.158200
 21
73.959900
 31
0.0
  0
LINE
  5
175
100
AcDbEntity
  8
0
 62
7
100
AcDbLine
 10
47.158200
 20
73.959900
 30
0.0
 11
54.657800
 21
92.522100
 31
0.0
  0
LINE
  5
176
100
AcDbEntity
  8
0
 62
7
100
AcDbLine
 10
54.657800
 20
92.522100
 30
0.0
 11
36.095600
 21
100.021800
 31
0.0
  0
LINE
  5
177
100
AcDbEntity
  8
0
 62
7
100
AcDbLine
 10
36.095600
 20
100.021800
 30
0.0
 11
28.596000
 21
81.459500
 31
0.0
  0
LINE
  5
178
100
AcDbEntity
  8
0
 62
7
100
AcDbLine
 10
183.912400
 20
40.177000
 30
0.0
 11
201.750300
 21
49.265900
 31
0.0
  0
LINE
  5
179
100
AcDbEntity
  8
0
 62
7
100
AcDbLine
 10
201.750300
 20
49.265900
 30
0.0
 11
192.661400
 21
67.103800
 31
0.0
  0
LINE
  5
17a
100
AcDbEntity
  8
0
 62
7
100
AcDbLine
 10
192.661400
 20
67.103800
 30
0.0
 11
174.823500
 21
58.014900
 31
0.0
  0
LINE
  5
17b
100
AcDbEntity
  8
0
 62
7
100
AcDbLine
 10
174.823500
 20
58.014900
 30
0.0
 11
183.912400
 21
40.177000
 31
0.0
  0
LINE
  5
17c
100
AcDbEntity
  8
0
 62
7
100
AcDbLine
 10
79.666900
 20
51.129700
 30
0.0
 11
97.504900
 21
42.040800
 31
0.0
  0
LINE
  5
17d
100
AcDbEntity
  8
0
 62
7
100
AcDbLine
 10
97.504900
 20
42.040800
 30
0.0
 11
106.593800
 21
59.878700
 31
0.0
  0
LINE
  5
17e
100
AcDbEntity
  8
0
 62
7
100
AcDbLine
 10
106.593800
 20
59.878700
 30
0.0
 11
88.755800
 21
68.967600
 31
0.0
  0
LINE
  5
17f
100
AcDbEntity
  8
0
 62
7
100
AcDbLine
 10
88.755800
 20
68.967600
 30
0.0
 11
79.666900
 21
51.129700
 31
0.0
  0
SPLINE
  5
180
100
AcDbEntity
  8
0
 62
7
100
AcDbSpline
 70
8
 71
3
 72
8
 73
4
 74
0
 40
0
 40
0
 40
0
 40
0
 40
1
 40
1
 40
1
 40
1
 10
166.409500
 20
78.513100
 30
0.0
 10
165.802807
 20
78.513100
 30
0.0
 10
165.255852
 20
78.147637
 30
0.0
 10
165.023681
 20
77.587125
 30
0.0
  0
SPLINE
  5
181
100
AcDbEntity
  8
0
 62
7
100
AcDbSpline
 70
8
 71
3
 72
8
 73
4
 74
0
 40
0
 40
0
 40
0
 40
0
 40
1
 40
1
 40
1
 40
1
 10
165.023681
 20
77.587125
 30
0.0
 10
164.791509
 20
77.026614
 30
0.0
 10
164.919843
 20
76.381437
 30
0.0
 10
165.348840
 20
75.952440
 30
0.0
  0
SPLINE
  5
182
100
AcDbEntity
  8
0
 62
7
100
AcDbSpline
 70
8
 71
3
 72
8
 73
4
 74
0
 40
0
 40
0
 40
0
 40
0
 40
1
 40
1
 40
1
 40
1
 10
165.348840
 20
75.952440
 30
0.0
 10
165.777837
 20
75.523443
 30
0.0
 10
166.423014
 20
75.395109
 30
0.0
 10
166.983525
 20
75.627281
 30
0.0
  0
SPLINE
  5
183
100
AcDbEntity
  8
0
 62
7
100
AcDbSpline
 70
8
 71
3
 72
8
 73
4
 74
0
 40
0
 40
0
 40
0
 40
0
 40
1
 40
1
 40
1
 40
1
 10
166.983525
 20
75.627281
 30
0.0
 10
167.544037
 20
75.859452
 30
0.0
 10
167.909500
 20
76.406407
 30
0.0
 10
167.909500
 20
77.013100
 30
0.0
  0
SPLINE
  5
184
100
AcDbEntity
  8
0
 62
7
100
AcDbSpline
 70
8
 71
3
 72
8
 73
4
 74
0
 40
0
 40
0
 40
0
 40
0
 40
1
 40
1
 40
1
 40
1
 10
167.909500
 20
77.013100
 30
0.0
 10
167.909500
 20
77.410925
 30
0.0
 10
167.751465
 20
77.792456
 30
0.0
 10
167.470160
 20
78.073760
 30
0.0
  0
SPLINE
  5
185
100
AcDbEntity
  8
0
 62
7
100
AcDbSpline
 70
8
 71
3
 72
8
 73
4
 74
0
 40
0
 40
0
 40
0
 40
0
 40
1
 40
1
 40
1
 40
1
 10
167.470160
 20
78.073760
 30
0.0
 10
167.188856
 20
78.355065
 30
0.0
 10
166.807325
 20
78.513100
 30
0.0
 10
166.409500
 20
78.513100
 30
0.0
  0
LINE
  5
186
100
AcDbEntity
  8
0
 62
7
100
AcDbLine
 10
166.409500
 20
78.513100
 30
0.0
 11
166.409500
 21
78.513100
 31
0.0
  0
SPLINE
  5
187
100
AcDbEntity
  8
0
 62
7
100
AcDbSpline
 70
8
 71
3
 72
8
 73
4
 74
0
 40
0
 40
0
 40
0
 40
0
 40
1
 40
1
 40
1
 40
1
 10
117.387500
 20
69.079100
 30
0.0
 10
117.124600
 20
69.079100
 30
0.0
 10
116.887586
 20
68.920733
 30
0.0
 10
116.786978
 20
68.677844
 30
0.0
  0
SPLINE
  5
188
100
AcDbEntity
  8
0
 62
7
100
AcDbSpline
 70
8
 71
3
 72
8
 73
4
 74
0
 40
0
 40
0
 40
0
 40
0
 40
1
 40
1
 40
1
 40
1
 10
116.786978
 20
68.677844
 30
0.0
 10
116.686371
 20
68.434956
 30
0.0
 10
116.741982
 20
68.155379
 30
0.0
 10
116.927881
 20
67.969481
 30
0.0
  0
SPLINE
  5
189
100
AcDbEntity
  8
0
 62
7
100
AcDbSpline
 70
8
 71
3
 72
8
 73
4
 74
0
 40
0
 40
0
 40
0
 40
0
 40
1
 40
1
 40
1
 40
1
 10
116.927881
 20
67.969481
 30
0.0
 10
117.113779
 20
67.783582
 30
0.0
 10
117.393356
 20
67.727971
 30
0.0
 10
117.636244
 20
67.828578
 30
0.0
  0
SPLINE
  5
18a
100
AcDbEntity
  8
0
 62
7
100
AcDbSpline
 70
8
 71
3
 72
8
 73
4
 74
0
 40
0
 40
0
 40
0
 40
0
 40
1
 40
1
 40
1
 40
1
 10
117.636244
 20
67.828578
 30
0.0
 10
117.879133
 20
67.929186
 30
0.0
 10
118.037500
 20
68.166200
 30
0.0
 10
118.037500
 20
68.429100
 30
0.0
  0
SPLINE
  5
18b
100
AcDbEntity
  8
0
 62
7
100
AcDbSpline
 70
8
 71
3
 72
8
 73
4
 74
0
 40
0
 40
0
 40
0
 40
0
 40
1
 40
1
 40
1
 40
1
 10
118.037500
 20
68.429100
 30
0.0
 10
118.037500
 20
68.788085
 30
0.0
 10
117.746485
 20
69.079100
 30
0.0
 10
117.387500
 20
69.079100
 30
0.0
  0
LINE
  5
18c
100
AcDbEntity
  8
0
 62
7
100
AcDbLine
 10
117.387500
 20
69.079100
 30
0.0
 11
117.387500
 21
69.079100
 31
0.0
  0
SPLINE
  5
18d
100
AcDbEntity
  8
0
 62
7
100
AcDbSpline
 70
8
 71
3
 72
8
 73
4
 74
0
 40
0
 40
0
 40
0
 40
0
 40
1
 40
1
 40
1
 40
1
 10
117.387500
 20
75.579100
 30
0.0
 10
117.124600
 20
75.579100
 30
0.0
 10
116.887586
 20
75.420733
 30
0.0
 10
116.786978
 20
75.177844
 30
0.0
  0
SPLINE
  5
18e
100
AcDbEntity
  8
0
 62
7
100
AcDbSpline
 70
8
 71
3
 72
8
 73
4
 74
0
 40
0
 40
0
 40
0
 40
0
 40
1
 40
1
 40
1
 40
1
 10
116.786978
 20
75.177844
 30
0.0
 10
116.686371
 20
74.934956
 30
0.0
 10
116.741982
 20
74.655379
 30
0.0
 10
116.927881
 20
74.469481
 30
0.0
  0
SPLINE
  5
18f
100
AcDbEntity
  8
0
 62
7
100
AcDbSpline
 70
8
 71
3
 72
8
 73
4
 74
0
 40
0
 40
0
 40
0
 40
0
 40
1
 40
1
 40
1
 40
1
 10
116.927881
 20
74.469481
 30
0.0
 10
117.113779
 20
74.283582
 30
0.0
 10
117.393356
 20
74.227971
 30
0.0
 10
117.636244
 20
74.328578
 30
0.0
  0
SPLINE
  5
190
100
AcDbEntity
  8
0
 62
7
100
AcDbSpline
 70
8
 71
3
 72
8
 73
4
 74
0
 40
0
 40
0
 40
0
 40
0
 40
1
 40
1
 40
1
 40
1
 10
117.636244
 20
74.328578
 30
0.0
 10
117.879133
 20
74.429186
 30
0.0
 10
118.037500
 20
74.666200
 30
0.0
 10
118.037500
 20
74.929100
 30
0.0
  0
SPLINE
  5
191
100
AcDbEntity
  8
0
 62
7
100
AcDbSpline
 70
8
 71
3
 72
8
 73
4
 74
0
 40
0
 40
0
 40
0
 40
0
 40
1
 40
1
 40
1
 40
1
 10
118.037500
 20
74.929100
 30
0.0
 10
118.037500
 20
75.288085
 30
0.0
 10
117.746485
 20
75.579100
 30
0.0
 10
117.387500
 20
75.579100
 30
0.0
  0
LINE
  5
192
100
AcDbEntity
  8
0
 62
7
100
AcDbLine
 10
117.387500
 20
75.579100
 30
0.0
 11
117.387500
 21
75.579100
 31
0.0
  0
SPLINE
  5
193
100
AcDbEntity
  8
0
 62
7
100
AcDbSpline
 70
8
 71
3
 72
8
 73
4
 74
0
 40
0
 40
0
 40
0
 40
0
 40
1
 40
1
 40
1
 40
1
 10
86.015500
 20
47.451100
 30
0.0
 10
85.408807
 20
47.451100
 30
0.0
 10
84.861852
 20
47.085637
 30
0.0
 10
84.629681
 20
46.525125
 30
0.0
  0
SPLINE
  5
194
100
AcDbEntity
  8
0
 62
7
100
AcDbSpline
 70
8
 71
3
 72
8
 73
4
 74
0
 40
0
 40
0
 40
0
 40
0
 40
1
 40
1
 40
1
 40
1
 10
84.629681
 20
46.525125
 30
0.0
 10
84.397509
 20
45.964614
 30
0.0
 10
84.525843
 20
45.319437
 30
0.0
 10
84.954840
 20
44.890440
 30
0.0
  0
SPLINE
  5
195
100
AcDbEntity
  8
0
 62
7
100
AcDbSpline
 70
8
 71
3
 72
8
 73
4
 74
0
 40
0
 40
0
 40
0
 40
0
 40
1
 40
1
 40
1
 40
1
 10
84.954840
 20
44.890440
 30
0.0
 10
85.383837
 20
44.461443
 30
0.0
 10
86.029014
 20
44.333109
 30
0.0
 10
86.589525
 20
44.565281
 30
0.0
  0
SPLINE
  5
196
100
AcDbEntity
  8
0
 62
7
100
AcDbSpline
 70
8
 71
3
 72
8
 73
4
 74
0
 40
0
 40
0
 40
0
 40
0
 40
1
 40
1
 40
1
 40
1
 10
86.589525
 20
44.565281
 30
0.0
 10
87.150037
 20
44.797452
 30
0.0
 10
87.515500
 20
45.344407
 30
0.0
 10
87.515500
 20
45.951100
 30
0.0
  0
SPLINE
  5
197
100
AcDbEntity
  8
0
 62
7
100
AcDbSpline
 70
8
 71
3
 72
8
 73
4
 74
0
 40
0
 40
0
 40
0
 40
0
 40
1
 40
1
 40
1
 40
1
 10
87.515500
 20
45.951100
 30
0.0
 10
87.515500
 20
46.348925
 30
0.0
 10
87.357465
 20
46.730456
 30
0.0
 10
87.076160
 20
47.011760
 30
0.0
  0
SPLINE
  5
198
100
AcDbEntity
  8
0
 62
7
100
AcDbSpline
 70
8
 71
3
 72
8
 73
4
 74
0
 40
0
 40
0
 40
0
 40
0
 40
1
 40
1
 40
1
 40
1
 10
87.076160
 20
47.011760
 30
0.0
 10
86.794856
 20
47.293065
 30
0.0
 10
86.413325
 20
47.451100
 30
0.0
 10
86.015500
 20
47.451100
 30
0.0
  0
LINE
  5
199
100
AcDbEntity
  8
0
 62
7
100
AcDbLine
 10
86.015500
 20
47.451100
 30
0.0
 11
86.015500
 21
47.451100
 31
0.0
  0
SPLINE
  5
19a
100
AcDbEntity
  8
0
 62
7
100
AcDbSpline
 70
8
 71
3
 72
8
 73
4
 74
0
 40
0
 40
0
 40
0
 40
0
 40
1
 40
1
 40
1
 40
1
 10
136.936900
 20
73.686500
 30
0.0
 10
136.772527
 20
73.686500
 30
0.0
 10
136.624338
 20
73.587484
 30
0.0
 10
136.561435
 20
73.435623
 30
0.0
  0
SPLINE
  5
19b
100
AcDbEntity
  8
0
 62
7
100
AcDbSpline
 70
8
 71
3
 72
8
 73
4
 74
0
 40
0
 40
0
 40
0
 40
0
 40
1
 40
1
 40
1
 40
1
 10
136.561435
 20
73.435623
 30
0.0
 10
136.498532
 20
73.283761
 30
0.0
 10
136.533302
 20
73.108961
 30
0.0
 10
136.649532
 20
72.992732
 30
0.0
  0
SPLINE
  5
19c
100
AcDbEntity
  8
0
 62
7
100
AcDbSpline
 70
8
 71
3
 72
8
 73
4
 74
0
 40
0
 40
0
 40
0
 40
0
 40
1
 40
1
 40
1
 40
1
 10
136.649532
 20
72.992732
 30
0.0
 10
136.765761
 20
72.876502
 30
0.0
 10
136.940561
 20
72.841732
 30
0.0
 10
137.092423
 20
72.904635
 30
0.0
  0
SPLINE
  5
19d
100
AcDbEntity
  8
0
 62
7
100
AcDbSpline
 70
8
 71
3
 72
8
 73
4
 74
0
 40
0
 40
0
 40
0
 40
0
 40
1
 40
1
 40
1
 40
1
 10
137.092423
 20
72.904635
 30
0.0
 10
137.244284
 20
72.967538
 30
0.0
 10
137.343300
 20
73.115727
 30
0.0
 10
137.343300
 20
73.280100
 30
0.0
  0
SPLINE
  5
19e
100
AcDbEntity
  8
0
 62
7
100
AcDbSpline
 70
8
 71
3
 72
8
 73
4
 74
0
 40
0
 40
0
 40
0
 40
0
 40
1
 40
1
 40
1
 40
1
 10
137.343300
 20
73.280100
 30
0.0
 10
137.343300
 20
73.387884
 30
0.0
 10
137.300483
 20
73.491253
 30
0.0
 10
137.224268
 20
73.567468
 30
0.0
  0
SPLINE
  5
19f
100
AcDbEntity
  8
0
 62
7
100
AcDbSpline
 70
8
 71
3
 72
8
 73
4
 74
0
 40
0
 40
0
 40
0
 40
0
 40
1
 40
1
 40
1
 40
1
 10
137.224268
 20
73.567468
 30
0.0
 10
137.148053
 20
73.643683
 30
0.0
 10
137.044684
 20
73.686500
 30
0.0
 10
136.936900
 20
73.686500
 30
0.0
  0
LINE
  5
1a0
100
AcDbEntity
  8
0
 62
7
100
AcDbLine
 10
136.936900
 20
73.686500
 30
0.0
 11
136.936900
 21
73.686500
 31
0.0
  0
SPLINE
  5
1a1
100
AcDbEntity
  8
0
 62
7
100
AcDbSpline
 70
8
 71
3
 72
8
 73
4
 74
0
 40
0
 40
0
 40
0
 40
0
 40
1
 40
1
 40
1
 40
1
 10
136.936900
 20
71.146500
 30
0.0
 10
136.772527
 20
71.146500
 30
0.0
 10
136.624338
 20
71.047484
 30
0.0
 10
136.561435
 20
70.895623
 30
0.0
  0
SPLINE
  5
1a2
100
AcDbEntity
  8
0
 62
7
100
AcDbSpline
 70
8
 71
3
 72
8
 73
4
 74
0
 40
0
 40
0
 40
0
 40
0
 40
1
 40
1
 40
1
 40
1
 10
136.561435
 20
70.895623
 30
0.0
 10
136.498532
 20
70.743761
 30
0.0
 10
136.533302
 20
70.568961
 30
0.0
 10
136.649532
 20
70.452732
 30
0.0
  0
SPLINE
  5
1a3
100
AcDbEntity
  8
0
 62
7
100
AcDbSpline
 70
8
 71
3
 72
8
 73
4
 74
0
 40
0
 40
0
 40
0
 40
0
 40
1
 40
1
 40
1
 40
1
 10
136.649532
 20
70.452732
 30
0.0
 10
136.765761
 20
70.336502
 30
0.0
 10
136.940561
 20
70.301732
 30
0.0
 10
137.092423
 20
70.364635
 30
0.0
  0
SPLINE
  5
1a4
100
AcDbEntity
  8
0
 62
7
100
AcDbSpline
 70
8
 71
3
 72
8
 73
4
 74
0
 40
0
 40
0
 40
0
 40
0
 40
1
 40
1
 40
1
 40
1
 10
137.092423
 20
70.364635
 30
0.0
 10
137.244284
 20
70.427538
 30
0.0
 10
137.343300
 20
70.575727
 30
0.0
 10
137.343300
 20
70.740100
 30
0.0
  0
SPLINE
  5
1a5
100
AcDbEntity
  8
0
 62
7
100
AcDbSpline
 70
8
 71
3
 72
8
 73
4
 74
0
 40
0
 40
0
 40
0
 40
0
 40
1
 40
1
 40
1
 40
1
 10
137.343300
 20
70.740100
 30
0.0
 10
137.343300
 20
70.847884
 30
0.0
 10
137.300483
 20
70.951253
 30
0.0
 10
137.224268
 20
71.027468
 30
0.0
  0
SPLINE
  5
1a6
100
AcDbEntity
  8
0
 62
7
100
AcDbSpline
 70
8
 71
3
 72
8
 73
4
 74
0
 40
0
 40
0
 40
0
 40
0
 40
1
 40
1
 40
1
 40
1
 10
137.224268
 20
71.027468
 30
0.0
 10
137.148053
 20
71.103683
 30
0.0
 10
137.044684
 20
71.146500
 30
0.0
 10
136.936900
 20
71.146500
 30
0.0
  0
LINE
  5
1a7
100
AcDbEntity
  8
0
 62
7
100
AcDbLine
 10
136.936900
 20
71.146500
 30
0.0
 11
136.936900
 21
71.146500
 31
0.0
  0
SPLINE
  5
1a8
100
AcDbEntity
  8
0
 62
7
100
AcDbSpline
 70
8
 71
3
 72
8
 73
4
 74
0
 40
0
 40
0
 40
0
 40
0
 40
1
 40
1
 40
1
 40
1
 10
136.936900
 20
68.606500
 30
0.0
 10
136.772527
 20
68.606500
 30
0.0
 10
136.624338
 20
68.507484
 30
0.0
 10
136.561435
 20
68.355623
 30
0.0
  0
SPLINE
  5
1a9
100
AcDbEntity
  8
0
 62
7
100
AcDbSpline
 70
8
 71
3
 72
8
 73
4
 74
0
 40
0
 40
0
 40
0
 40
0
 40
1
 40
1
 40
1
 40
1
 10
136.561435
 20
68.355623
 30
0.0
 10
136.498532
 20
68.203761
 30
0.0
 10
136.533302
 20
68.028961
 30
0.0
 10
136.649532
 20
67.912732
 30
0.0
  0
SPLINE
  5
1aa
100
AcDbEntity
  8
0
 62
7
100
AcDbSpline
 70
8
 71
3
 72
8
 73
4
 74
0
 40
0
 40
0
 40
0
 40
0
 40
1
 40
1
 40
1
 40
1
 10
136.649532
 20
67.912732
 30
0.0
 10
136.765761
 20
67.796502
 30
0.0
 10
136.940561
 20
67.761732
 30
0.0
 10
137.092423
 20
67.824635
 30
0.0
  0
SPLINE
  5
1ab
100
AcDbEntity
  8
0
 62
7
100
AcDbSpline
 70
8
 71
3
 72
8
 73
4
 74
0
 40
0
 40
0
 40
0
 40
0
 40
1
 40
1
 40
1
 40
1
 10
137.092423
 20
67.824635
 30
0.0
 10
137.244284
 20
67.887538
 30
0.0
 10
137.343300
 20
68.035727
 30
0.0
 10
137.343300
 20
68.200100
 30
0.0
  0
SPLINE
  5
1ac
100
AcDbEntity
  8
0
 62
7
100
AcDbSpline
 70
8
 71
3
 72
8
 73
4
 74
0
 40
0
 40
0
 40
0
 40
0
 40
1
 40
1
 40
1
 40
1
 10
137.343300
 20
68.200100
 30
0.0
 10
137.343300
 20
68.307884
 30
0.0
 10
137.300483
 20
68.411253
 30
0.0
 10
137.224268
 20
68.487468
 30
0.0
  0
SPLINE
  5
1ad
100
AcDbEntity
  8
0
 62
7
100
AcDbSpline
 70
8
 71
3
 72
8
 73
4
 74
0
 40
0
 40
0
 40
0
 40
0
 40
1
 40
1
 40
1
 40
1
 10
137.224268
 20
68.487468
 30
0.0
 10
137.148053
 20
68.563683
 30
0.0
 10
137.044684
 20
68.606500
 30
0.0
 10
136.936900
 20
68.606500
 30
0.0
  0
LINE
  5
1ae
100
AcDbEntity
  8
0
 62
7
100
AcDbLine
 10
136.936900
 20
68.606500
 30
0.0
 11
136.936900
 21
68.606500
 31
0.0
  0
SPLINE
  5
1af
100
AcDbEntity
  8
0
 62
7
100
AcDbSpline
 70
8
 71
3
 72
8
 73
4
 74
0
 40
0
 40
0
 40
0
 40
0
 40
1
 40
1
 40
1
 40
1
 10
136.936900
 20
66.066500
 30
0.0
 10
136.772527
 20
66.066500
 30
0.0
 10
136.624338
 20
65.967484
 30
0.0
 10
136.561435
 20
65.815623
 30
0.0
  0
SPLINE
  5
1b0
100
AcDbEntity
  8
0
 62
7
100
AcDbSpline
 70
8
 71
3
 72
8
 73
4
 74
0
 40
0
 40
0
 40
0
 40
0
 40
1
 40
1
 40
1
 40
1
 10
136.561435
 20
65.815623
 30
0.0
 10
136.498532
 20
65.663761
 30
0.0
 10
136.533302
 20
65.488961
 30
0.0
 10
136.649532
 20
65.372732
 30
0.0
  0
SPLINE
  5
1b1
100
AcDbEntity
  8
0
 62
7
100
AcDbSpline
 70
8
 71
3
 72
8
 73
4
 74
0
 40
0
 40
0
 40
0
 40
0
 40
1
 40
1
 40
1
 40
1
 10
136.649532
 20
65.372732
 30
0.0
 10
136.765761
 20
65.256502
 30
0.0
 10
136.940561
 20
65.221732
 30
0.0
 10
137.092423
 20
65.284635
 30
0.0
  0
SPLINE
  5
1b2
100
AcDbEntity
  8
0
 62
7
100
AcDbSpline
 70
8
 71
3
 72
8
 73
4
 74
0
 40
0
 40
0
 40
0
 40
0
 40
1
 40
1
 40
1
 40
1
 10
137.092423
 20
65.284635
 30
0.0
 10
137.244284
 20
65.347538
 30
0.0
 10
137.343300
 20
65.495727
 30
0.0
 10
137.343300
 20
65.660100
 30
0.0
  0
SPLINE
  5
1b3
100
AcDbEntity
  8
0
 62
7
100
AcDbSpline
 70
8
 71
3
 72
8
 73
4
 74
0
 40
0
 40
0
 40
0
 40
0
 40
1
 40
1
 40
1
 40
1
 10
137.343300
 20
65.660100
 30
0.0
 10
137.343300
 20
65.767884
 30
0.0
 10
137.300483
 20
65.871253
 30
0.0
 10
137.224268
 20
65.947468
 30
0.0
  0
SPLINE
  5
1b4
100
AcDbEntity
  8
0
 62
7
100
AcDbSpline
 70
8
 71
3
 72
8
 73
4
 74
0
 40
0
 40
0
 40
0
 40
0
 40
1
 40
1
 40
1
 40
1
 10
137.224268
 20
65.947468
 30
0.0
 10
137.148053
 20
66.023683
 30
0.0
 10
137.044684
 20
66.066500
 30
0.0
 10
136.936900
 20
66.066500
 30
0.0
  0
LINE
  5
1b5
100
AcDbEntity
  8
0
 62
7
100
AcDbLine
 10
136.936900
 20
66.066500
 30
0.0
 11
136.936900
 21
66.066500
 31
0.0
  0
SPLINE
  5
1b6
100
AcDbEntity
  8
0
 62
7
100
AcDbSpline
 70
8
 71
3
 72
8
 73
4
 74
0
 40
0
 40
0
 40
0
 40
0
 40
1
 40
1
 40
1
 40
1
 10
136.936900
 20
63.526500
 30
0.0
 10
136.772527
 20
63.526500
 30
0.0
 10
136.624338
 20
63.427484
 30
0.0
 10
136.561435
 20
63.275623
 30
0.0
  0
SPLINE
  5
1b7
100
AcDbEntity
  8
0
 62
7
100
AcDbSpline
 70
8
 71
3
 72
8
 73
4
 74
0
 40
0
 40
0
 40
0
 40
0
 40
1
 40
1
 40
1
 40
1
 10
136.561435
 20
63.275623
 30
0.0
 10
136.498532
 20
63.123761
 30
0.0
 10
136.533302
 20
62.948961
 30
0.0
 10
136.649532
 20
62.832732
 30
0.0
  0
SPLINE
  5
1b8
100
AcDbEntity
  8
0
 62
7
100
AcDbSpline
 70
8
 71
3
 72
8
 73
4
 74
0
 40
0
 40
0
 40
0
 40
0
 40
1
 40
1
 40
1
 40
1
 10
136.649532
 20
62.832732
 30
0.0
 10
136.765761
 20
62.716502
 30
0.0
 10
136.940561
 20
62.681732
 30
0.0
 10
137.092423
 20
62.744635
 30
0.0
  0
SPLINE
  5
1b9
100
AcDbEntity
  8
0
 62
7
100
AcDbSpline
 70
8
 71
3
 72
8
 73
4
 74
0
 40
0
 40
0
 40
0
 40
0
 40
1
 40
1
 40
1
 40
1
 10
137.092423
 20
62.744635
 30
0.0
 10
137.244284
 20
62.807538
 30
0.0
 10
137.343300
 20
62.955727
 30
0.0
 10
137.343300
 20
63.120100
 30
0.0
  0
SPLINE
  5
1ba
100
AcDbEntity
  8
0
 62
7
100
AcDbSpline
 70
8
 71
3
 72
8
 73
4
 74
0
 40
0
 40
0
 40
0
 40
0
 40
1
 40
1
 40
1
 40
1
 10
137.343300
 20
63.120100
 30
0.0
 10
137.343300
 20
63.227884
 30
0.0
 10
137.300483
 20
63.331253
 30
0.0
 10
137.224268
 20
63.407468
 30
0.0
  0
SPLINE
  5
1bb
100
AcDbEntity
  8
0
 62
7
100
AcDbSpline
 70
8
 71
3
 72
8
 73
4
 74
0
 40
0
 40
0
 40
0
 40
0
 40
1
 40
1
 40
1
 40
1
 10
137.224268
 20
63.407468
 30
0.0
 10
137.148053
 20
63.483683
 30
0.0
 10
137.044684
 20
63.526500
 30
0.0
 10
136.936900
 20
63.526500
 30
0.0
  0
LINE
  5
1bc
100
AcDbEntity
  8
0
 62
7
100
AcDbLine
 10
136.936900
 20
63.526500
 30
0.0
 11
136.936900
 21
63.526500
 31
0.0
  0
SPLINE
  5
1bd
100
AcDbEntity
  8
0
 62
7
100
AcDbSpline
 70
8
 71
3
 72
8
 73
4
 74
0
 40
0
 40
0
 40
0
 40
0
 40
1
 40
1
 40
1
 40
1
 10
136.936900
 20
60.986500
 30
0.0
 10
136.772527
 20
60.986500
 30
0.0
 10
136.624338
 20
60.887484
 30
0.0
 10
136.561435
 20
60.735623
 30
0.0
  0
SPLINE
  5
1be
100
AcDbEntity
  8
0
 62
7
100
AcDbSpline
 70
8
 71
3
 72
8
 73
4
 74
0
 40
0
 40
0
 40
0
 40
0
 40
1
 40
1
 40
1
 40
1
 10
136.561435
 20
60.735623
 30
0.0
 10
136.498532
 20
60.583761
 30
0.0
 10
136.533302
 20
60.408961
 30
0.0
 10
136.649532
 20
60.292732
 30
0.0
  0
SPLINE
  5
1bf
100
AcDbEntity
  8
0
 62
7
100
AcDbSpline
 70
8
 71
3
 72
8
 73
4
 74
0
 40
0
 40
0
 40
0
 40
0
 40
1
 40
1
 40
1
 40
1
 10
136.649532
 20
60.292732
 30
0.0
 10
136.765761
 20
60.176502
 30
0.0
 10
136.940561
 20
60.141732
 30
0.0
 10
137.092423
 20
60.204635
 30
0.0
  0
SPLINE
  5
1c0
100
AcDbEntity
  8
0
 62
7
100
AcDbSpline
 70
8
 71
3
 72
8
 73
4
 74
0
 40
0
 40
0
 40
0
 40
0
 40
1
 40
1
 40
1
 40
1
 10
137.092423
 20
60.204635
 30
0.0
 10
137.244284
 20
60.267538
 30
0.0
 10
137.343300
 20
60.415727
 30
0.0
 10
137.343300
 20
60.580100
 30
0.0
  0
SPLINE
  5
1c1
100
AcDbEntity
  8
0
 62
7
100
AcDbSpline
 70
8
 71
3
 72
8
 73
4
 74
0
 40
0
 40
0
 40
0
 40
0
 40
1
 40
1
 40
1
 40
1
 10
137.343300
 20
60.580100
 30
0.0
 10
137.343300
 20
60.687884
 30
0.0
 10
137.300483
 20
60.791253
 30
0.0
 10
137.224268
 20
60.867468
 30
0.0
  0
SPLINE
  5
1c2
100
AcDbEntity
  8
0
 62
7
100
AcDbSpline
 70
8
 71
3
 72
8
 73
4
 74
0
 40
0
 40
0
 40
0
 40
0
 40
1
 40
1
 40
1
 40
1
 10
137.224268
 20
60.867468
 30
0.0
 10
137.148053
 20
60.943683
 30
0.0
 10
137.044684
 20
60.986500
 30
0.0
 10
136.936900
 20
60.986500
 30
0.0
  0
LINE
  5
1c3
100
AcDbEntity
  8
0
 62
7
100
AcDbLine
 10
136.936900
 20
60.986500
 30
0.0
 11
136.936900
 21
60.986500
 31
0.0
  0
SPLINE
  5
1c4
100
AcDbEntity
  8
0
 62
7
100
AcDbSpline
 70
8
 71
3
 72
8
 73
4
 74
0
 40
0
 40
0
 40
0
 40
0
 40
1
 40
1
 40
1
 40
1
 10
136.936900
 20
58.446500
 30
0.0
 10
136.772527
 20
58.446500
 30
0.0
 10
136.624338
 20
58.347484
 30
0.0
 10
136.561435
 20
58.195623
 30
0.0
  0
SPLINE
  5
1c5
100
AcDbEntity
  8
0
 62
7
100
AcDbSpline
 70
8
 71
3
 72
8
 73
4
 74
0
 40
0
 40
0
 40
0
 40
0
 40
1
 40
1
 40
1
 40
1
 10
136.561435
 20
58.195623
 30
0.0
 10
136.498532
 20
58.043761
 30
0.0
 10
136.533302
 20
57.868961
 30
0.0
 10
136.649532
 20
57.752732
 30
0.0
  0
SPLINE
  5
1c6
100
AcDbEntity
  8
0
 62
7
100
AcDbSpline
 70
8
 71
3
 72
8
 73
4
 74
0
 40
0
 40
0
 40
0
 40
0
 40
1
 40
1
 40
1
 40
1
 10
136.649532
 20
57.752732
 30
0.0
 10
136.765761
 20
57.636502
 30
0.0
 10
136.940561
 20
57.601732
 30
0.0
 10
137.092423
 20
57.664635
 30
0.0
  0
SPLINE
  5
1c7
100
AcDbEntity
  8
0
 62
7
100
AcDbSpline
 70
8
 71
3
 72
8
 73
4
 74
0
 40
0
 40
0
 40
0
 40
0
 40
1
 40
1
 40
1
 40
1
 10
137.092423
 20
57.664635
 30
0.0
 10
137.244284
 20
57.727538
 30
0.0
 10
137.343300
 20
57.875727
 30
0.0
 10
137.343300
 20
58.040100
 30
0.0
  0
SPLINE
  5
1c8
100
AcDbEntity
  8
0
 62
7
100
AcDbSpline
 70
8
 71
3
 72
8
 73
4
 74
0
 40
0
 40
0
 40
0
 40
0
 40
1
 40
1
 40
1
 40
1
 10
137.343300
 20
58.040100
 30
0.0
 10
137.343300
 20
58.147884
 30
0.0
 10
137.300483
 20
58.251253
 30
0.0
 10
137.224268
 20
58.327468
 30
0.0
  0
SPLINE
  5
1c9
100
AcDbEntity
  8
0
 62
7
100
AcDbSpline
 70
8
 71
3
 72
8
 73
4
 74
0
 40
0
 40
0
 40
0
 40
0
 40
1
 40
1
 40
1
 40
1
 10
137.224268
 20
58.327468
 30
0.0
 10
137.148053
 20
58.403683
 30
0.0
 10
137.044684
 20
58.446500
 30
0.0
 10
136.936900
 20
58.446500
 30
0.0
  0
LINE
  5
1ca
100
AcDbEntity
  8
0
 62
7
100
AcDbLine
 10
136.936900
 20
58.446500
 30
0.0
 11
136.936900
 21
58.446500
 31
0.0
  0
SPLINE
  5
1cb
100
AcDbEntity
  8
0
 62
7
100
AcDbSpline
 70
8
 71
3
 72
8
 73
4
 74
0
 40
0
 40
0
 40
0
 40
0
 40
1
 40
1
 40
1
 40
1
 10
136.936900
 20
55.906500
 30
0.0
 10
136.772527
 20
55.906500
 30
0.0
 10
136.624338
 20
55.807484
 30
0.0
 10
136.561435
 20
55.655623
 30
0.0
  0
SPLINE
  5
1cc
100
AcDbEntity
  8
0
 62
7
100
AcDbSpline
 70
8
 71
3
 72
8
 73
4
 74
0
 40
0
 40
0
 40
0
 40
0
 40
1
 40
1
 40
1
 40
1
 10
136.561435
 20
55.655623
 30
0.0
 10
136.498532
 20
55.503761
 30
0.0
 10
136.533302
 20
55.328961
 30
0.0
 10
136.649532
 20
55.212732
 30
0.0
  0
SPLINE
  5
1cd
100
AcDbEntity
  8
0
 62
7
100
AcDbSpline
 70
8
 71
3
 72
8
 73
4
 74
0
 40
0
 40
0
 40
0
 40
0
 40
1
 40
1
 40
1
 40
1
 10
136.649532
 20
55.212732
 30
0.0
 10
136.765761
 20
55.096502
 30
0.0
 10
136.940561
 20
55.061732
 30
0.0
 10
137.092423
 20
55.124635
 30
0.0
  0
SPLINE
  5
1ce
100
AcDbEntity
  8
0
 62
7
100
AcDbSpline
 70
8
 71
3
 72
8
 73
4
 74
0
 40
0
 40
0
 40
0
 40
0
 40
1
 40
1
 40
1
 40
1
 10
137.092423
 20
55.124635
 30
0.0
 10
137.244284
 20
55.187538
 30
0.0
 10
137.343300
 20
55.335727
 30
0.0
 10
137.343300
 20
55.500100
 30
0.0
  0
SPLINE
  5
1cf
100
AcDbEntity
  8
0
 62
7
100
AcDbSpline
 70
8
 71
3
 72
8
 73
4
 74
0
 40
0
 40
0
 40
0
 40
0
 40
1
 40
1
 40
1
 40
1
 10
137.343300
 20
55.500100
 30
0.0
 10
137.343300
 20
55.607884
 30
0.0
 10
137.300483
 20
55.711253
 30
0.0
 10
137.224268
 20
55.787468
 30
0.0
  0
SPLINE
  5
1d0
100
AcDbEntity
  8
0
 62
7
100
AcDbSpline
 70
8
 71
3
 72
8
 73
4
 74
0
 40
0
 40
0
 40
0
 40
0
 40
1
 40
1
 40
1
 40
1
 10
137.224268
 20
55.787468
 30
0.0
 10
137.148053
 20
55.863683
 30
0.0
 10
137.044684
 20
55.906500
 30
0.0
 10
136.936900
 20
55.906500
 30
0.0
  0
LINE
  5
1d1
100
AcDbEntity
  8
0
 62
7
100
AcDbLine
 10
136.936900
 20
55.906500
 30
0.0
 11
136.936900
 21
55.906500
 31
0.0
  0
SPLINE
  5
1d2
100
AcDbEntity
  8
0
 62
7
100
AcDbSpline
 70
8
 71
3
 72
8
 73
4
 74
0
 40
0
 40
0
 40
0
 40
0
 40
1
 40
1
 40
1
 40
1
 10
136.936900
 20
53.366500
 30
0.0
 10
136.772527
 20
53.366500
 30
0.0
 10
136.624338
 20
53.267484
 30
0.0
 10
136.561435
 20
53.115623
 30
0.0
  0
SPLINE
  5
1d3
100
AcDbEntity
  8
0
 62
7
100
AcDbSpline
 70
8
 71
3
 72
8
 73
4
 74
0
 40
0
 40
0
 40
0
 40
0
 40
1
 40
1
 40
1
 40
1
 10
136.561435
 20
53.115623
 30
0.0
 10
136.498532
 20
52.963761
 30
0.0
 10
136.533302
 20
52.788961
 30
0.0
 10
136.649532
 20
52.672732
 30
0.0
  0
SPLINE
  5
1d4
100
AcDbEntity
  8
0
 62
7
100
AcDbSpline
 70
8
 71
3
 72
8
 73
4
 74
0
 40
0
 40
0
 40
0
 40
0
 40
1
 40
1
 40
1
 40
1
 10
136.649532
 20
52.672732
 30
0.0
 10
136.765761
 20
52.556502
 30
0.0
 10
136.940561
 20
52.521732
 30
0.0
 10
137.092423
 20
52.584635
 30
0.0
  0
SPLINE
  5
1d5
100
AcDbEntity
  8
0
 62
7
100
AcDbSpline
 70
8
 71
3
 72
8
 73
4
 74
0
 40
0
 40
0
 40
0
 40
0
 40
1
 40
1
 40
1
 40
1
 10
137.092423
 20
52.584635
 30
0.0
 10
137.244284
 20
52.647538
 30
0.0
 10
137.343300
 20
52.795727
 30
0.0
 10
137.343300
 20
52.960100
 30
0.0
  0
SPLINE
  5
1d6
100
AcDbEntity
  8
0
 62
7
100
AcDbSpline
 70
8
 71
3
 72
8
 73
4
 74
0
 40
0
 40
0
 40
0
 40
0
 40
1
 40
1
 40
1
 40
1
 10
137.343300
 20
52.960100
 30
0.0
 10
137.343300
 20
53.067884
 30
0.0
 10
137.300483
 20
53.171253
 30
0.0
 10
137.224268
 20
53.247468
 30
0.0
  0
SPLINE
  5
1d7
100
AcDbEntity
  8
0
 62
7
100
AcDbSpline
 70
8
 71
3
 72
8
 73
4
 74
0
 40
0
 40
0
 40
0
 40
0
 40
1
 40
1
 40
1
 40
1
 10
137.224268
 20
53.247468
 30
0.0
 10
137.148053
 20
53.323683
 30
0.0
 10
137.044684
 20
53.366500
 30
0.0
 10
136.936900
 20
53.366500
 30
0.0
  0
LINE
  5
1d8
100
AcDbEntity
  8
0
 62
7
100
AcDbLine
 10
136.936900
 20
53.366500
 30
0.0
 11
136.936900
 21
53.366500
 31
0.0
  0
SPLINE
  5
1d9
100
AcDbEntity
  8
0
 62
7
100
AcDbSpline
 70
8
 71
3
 72
8
 73
4
 74
0
 40
0
 40
0
 40
0
 40
0
 40
1
 40
1
 40
1
 40
1
 10
136.936900
 20
50.826500
 30
0.0
 10
136.772527
 20
50.826500
 30
0.0
 10
136.624338
 20
50.727484
 30
0.0
 10
136.561435
 20
50.575623
 30
0.0
  0
SPLINE
  5
1da
100
AcDbEntity
  8
0
 62
7
100
AcDbSpline
 70
8
 71
3
 72
8
 73
4
 74
0
 40
0
 40
0
 40
0
 40
0
 40
1
 40
1
 40
1
 40
1
 10
136.561435
 20
50.575623
 30
0.0
 10
136.498532
 20
50.423761
 30
0.0
 10
136.533302
 20
50.248961
 30
0.0
 10
136.649532
 20
50.132732
 30
0.0
  0
SPLINE
  5
1db
100
AcDbEntity
  8
0
 62
7
100
AcDbSpline
 70
8
 71
3
 72
8
 73
4
 74
0
 40
0
 40
0
 40
0
 40
0
 40
1
 40
1
 40
1
 40
1
 10
136.649532
 20
50.132732
 30
0.0
 10
136.765761
 20
50.016502
 30
0.0
 10
136.940561
 20
49.981732
 30
0.0
 10
137.092423
 20
50.044635
 30
0.0
  0
SPLINE
  5
1dc
100
AcDbEntity
  8
0
 62
7
100
AcDbSpline
 70
8
 71
3
 72
8
 73
4
 74
0
 40
0
 40
0
 40
0
 40
0
 40
1
 40
1
 40
1
 40
1
 10
137.092423
 20
50.044635
 30
0.0
 10
137.244284
 20
50.107538
 30
0.0
 10
137.343300
 20
50.255727
 30
0.0
 10
137.343300
 20
50.420100
 30
0.0
  0
SPLINE
  5
1dd
100
AcDbEntity
  8
0
 62
7
100
AcDbSpline
 70
8
 71
3
 72
8
 73
4
 74
0
 40
0
 40
0
 40
0
 40
0
 40
1
 40
1
 40
1
 40
1
 10
137.343300
 20
50.420100
 30
0.0
 10
137.343300
 20
50.527884
 30
0.0
 10
137.300483
 20
50.631253
 30
0.0
 10
137.224268
 20
50.707468
 30
0.0
  0
SPLINE
  5
1de
100
AcDbEntity
  8
0
 62
7
100
AcDbSpline
 70
8
 71
3
 72
8
 73
4
 74
0
 40
0
 40
0
 40
0
 40
0
 40
1
 40
1
 40
1
 40
1
 10
137.224268
 20
50.707468
 30
0.0
 10
137.148053
 20
50.783683
 30
0.0
 10
137.044684
 20
50.826500
 30
0.0
 10
136.936900
 20
50.826500
 30
0.0
  0
LINE
  5
1df
100
AcDbEntity
  8
0
 62
7
100
AcDbLine
 10
136.936900
 20
50.826500
 30
0.0
 11
136.936900
 21
50.826500
 31
0.0
  0
SPLINE
  5
1e0
100
AcDbEntity
  8
0
 62
7
100
AcDbSpline
 70
8
 71
3
 72
8
 73
4
 74
0
 40
0
 40
0
 40
0
 40
0
 40
1
 40
1
 40
1
 40
1
 10
136.936900
 20
48.286500
 30
0.0
 10
136.772527
 20
48.286500
 30
0.0
 10
136.624338
 20
48.187484
 30
0.0
 10
136.561435
 20
48.035623
 30
0.0
  0
SPLINE
  5
1e1
100
AcDbEntity
  8
0
 62
7
100
AcDbSpline
 70
8
 71
3
 72
8
 73
4
 74
0
 40
0
 40
0
 40
0
 40
0
 40
1
 40
1
 40
1
 40
1
 10
136.561435
 20
48.035623
 30
0.0
 10
136.498532
 20
47.883761
 30
0.0
 10
136.533302
 20
47.708961
 30
0.0
 10
136.649532
 20
47.592732
 30
0.0
  0
SPLINE
  5
1e2
100
AcDbEntity
  8
0
 62
7
100
AcDbSpline
 70
8
 71
3
 72
8
 73
4
 74
0
 40
0
 40
0
 40
0
 40
0
 40
1
 40
1
 40
1
 40
1
 10
136.649532
 20
47.592732
 30
0.0
 10
136.765761
 20
47.476502
 30
0.0
 10
136.940561
 20
47.441732
 30
0.0
 10
137.092423
 20
47.504635
 30
0.0
  0
SPLINE
  5
1e3
100
AcDbEntity
  8
0
 62
7
100
AcDbSpline
 70
8
 71
3
 72
8
 73
4
 74
0
 40
0
 40
0
 40
0
 40
0
 40
1
 40
1
 40
1
 40
1
 10
137.092423
 20
47.504635
 30
0.0
 10
137.244284
 20
47.567538
 30
0.0
 10
137.343300
 20
47.715727
 30
0.0
 10
137.343300
 20
47.880100
 30
0.0
  0
SPLINE
  5
1e4
100
AcDbEntity
  8
0
 62
7
100
AcDbSpline
 70
8
 71
3
 72
8
 73
4
 74
0
 40
0
 40
0
 40
0
 40
0
 40
1
 40
1
 40
1
 40
1
 10
137.343300
 20
47.880100
 30
0.0
 10
137.343300
 20
47.987884
 30
0.0
 10
137.300483
 20
48.091253
 30
0.0
 10
137.224268
 20
48.167468
 30
0.0
  0
SPLINE
  5
1e5
100
AcDbEntity
  8
0
 62
7
100
AcDbSpline
 70
8
 71
3
 72
8
 73
4
 74
0
 40
0
 40
0
 40
0
 40
0
 40
1
 40
1
 40
1
 40
1
 10
137.224268
 20
48.167468
 30
0.0
 10
137.148053
 20
48.243683
 30
0.0
 10
137.044684
 20
48.286500
 30
0.0
 10
136.936900
 20
48.286500
 30
0.0
  0
LINE
  5
1e6
100
AcDbEntity
  8
0
 62
7
100
AcDbLine
 10
136.936900
 20
48.286500
 30
0.0
 11
136.936900
 21
48.286500
 31
0.0
  0
SPLINE
  5
1e7
100
AcDbEntity
  8
0
 62
7
100
AcDbSpline
 70
8
 71
3
 72
8
 73
4
 74
0
 40
0
 40
0
 40
0
 40
0
 40
1
 40
1
 40
1
 40
1
 10
136.936900
 20
45.746500
 30
0.0
 10
136.772527
 20
45.746500
 30
0.0
 10
136.624338
 20
45.647484
 30
0.0
 10
136.561435
 20
45.495623
 30
0.0
  0
SPLINE
  5
1e8
100
AcDbEntity
  8
0
 62
7
100
AcDbSpline
 70
8
 71
3
 72
8
 73
4
 74
0
 40
0
 40
0
 40
0
 40
0
 40
1
 40
1
 40
1
 40
1
 10
136.561435
 20
45.495623
 30
0.0
 10
136.498532
 20
45.343761
 30
0.0
 10
136.533302
 20
45.168961
 30
0.0
 10
136.649532
 20
45.052732
 30
0.0
  0
SPLINE
  5
1e9
100
AcDbEntity
  8
0
 62
7
100
AcDbSpline
 70
8
 71
3
 72
8
 73
4
 74
0
 40
0
 40
0
 40
0
 40
0
 40
1
 40
1
 40
1
 40
1
 10
136.649532
 20
45.052732
 30
0.0
 10
136.765761
 20
44.936502
 30
0.0
 10
136.940561
 20
44.901732
 30
0.0
 10
137.092423
 20
44.964635
 30
0.0
  0
SPLINE
  5
1ea
100
AcDbEntity
  8
0
 62
7
100
AcDbSpline
 70
8
 71
3
 72
8
 73
4
 74
0
 40
0
 40
0
 40
0
 40
0
 40
1
 40
1
 40
1
 40
1
 10
137.092423
 20
44.964635
 30
0.0
 10
137.244284
 20
45.027538
 30
0.0
 10
137.343300
 20
45.175727
 30
0.0
 10
137.343300
 20
45.340100
 30
0.0
  0
SPLINE
  5
1eb
100
AcDbEntity
  8
0
 62
7
100
AcDbSpline
 70
8
 71
3
 72
8
 73
4
 74
0
 40
0
 40
0
 40
0
 40
0
 40
1
 40
1
 40
1
 40
1
 10
137.343300
 20
45.340100
 30
0.0
 10
137.343300
 20
45.447884
 30
0.0
 10
137.300483
 20
45.551253
 30
0.0
 10
137.224268
 20
45.627468
 30
0.0
  0
SPLINE
  5
1ec
100
AcDbEntity
  8
0
 62
7
100
AcDbSpline
 70
8
 71
3
 72
8
 73
4
 74
0
 40
0
 40
0
 40
0
 40
0
 40
1
 40
1
 40
1
 40
1
 10
137.224268
 20
45.627468
 30
0.0
 10
137.148053
 20
45.703683
 30
0.0
 10
137.044684
 20
45.746500
 30
0.0
 10
136.936900
 20
45.746500
 30
0.0
  0
LINE
  5
1ed
100
AcDbEntity
  8
0
 62
7
100
AcDbLine
 10
136.936900
 20
45.746500
 30
0.0
 11
136.936900
 21
45.746500
 31
0.0
  0
SPLINE
  5
1ee
100
AcDbEntity
  8
0
 62
7
100
AcDbSpline
 70
8
 71
3
 72
8
 73
4
 74
0
 40
0
 40
0
 40
0
 40
0
 40
1
 40
1
 40
1
 40
1
 10
121.716900
 20
45.746500
 30
0.0
 10
121.552527
 20
45.746500
 30
0.0
 10
121.404338
 20
45.647484
 30
0.0
 10
121.341435
 20
45.495623
 30
0.0
  0
SPLINE
  5
1ef
100
AcDbEntity
  8
0
 62
7
100
AcDbSpline
 70
8
 71
3
 72
8
 73
4
 74
0
 40
0
 40
0
 40
0
 40
0
 40
1
 40
1
 40
1
 40
1
 10
121.341435
 20
45.495623
 30
0.0
 10
121.278532
 20
45.343761
 30
0.0
 10
121.313302
 20
45.168961
 30
0.0
 10
121.429532
 20
45.052732
 30
0.0
  0
SPLINE
  5
1f0
100
AcDbEntity
  8
0
 62
7
100
AcDbSpline
 70
8
 71
3
 72
8
 73
4
 74
0
 40
0
 40
0
 40
0
 40
0
 40
1
 40
1
 40
1
 40
1
 10
121.429532
 20
45.052732
 30
0.0
 10
121.545761
 20
44.936502
 30
0.0
 10
121.720561
 20
44.901732
 30
0.0
 10
121.872423
 20
44.964635
 30
0.0
  0
SPLINE
  5
1f1
100
AcDbEntity
  8
0
 62
7
100
AcDbSpline
 70
8
 71
3
 72
8
 73
4
 74
0
 40
0
 40
0
 40
0
 40
0
 40
1
 40
1
 40
1
 40
1
 10
121.872423
 20
44.964635
 30
0.0
 10
122.024284
 20
45.027538
 30
0.0
 10
122.123300
 20
45.175727
 30
0.0
 10
122.123300
 20
45.340100
 30
0.0
  0
SPLINE
  5
1f2
100
AcDbEntity
  8
0
 62
7
100
AcDbSpline
 70
8
 71
3
 72
8
 73
4
 74
0
 40
0
 40
0
 40
0
 40
0
 40
1
 40
1
 40
1
 40
1
 10
122.123300
 20
45.340100
 30
0.0
 10
122.123300
 20
45.447884
 30
0.0
 10
122.080483
 20
45.551253
 30
0.0
 10
122.004268
 20
45.627468
 30
0.0
  0
SPLINE
  5
1f3
100
AcDbEntity
  8
0
 62
7
100
AcDbSpline
 70
8
 71
3
 72
8
 73
4
 74
0
 40
0
 40
0
 40
0
 40
0
 40
1
 40
1
 40
1
 40
1
 10
122.004268
 20
45.627468
 30
0.0
 10
121.928053
 20
45.703683
 30
0.0
 10
121.824684
 20
45.746500
 30
0.0
 10
121.716900
 20
45.746500
 30
0.0
  0
LINE
  5
1f4
100
AcDbEntity
  8
0
 62
7
100
AcDbLine
 10
121.716900
 20
45.746500
 30
0.0
 11
121.716900
 21
45.746500
 31
0.0
  0
SPLINE
  5
1f5
100
AcDbEntity
  8
0
 62
7
100
AcDbSpline
 70
8
 71
3
 72
8
 73
4
 74
0
 40
0
 40
0
 40
0
 40
0
 40
1
 40
1
 40
1
 40
1
 10
121.716900
 20
48.286500
 30
0.0
 10
121.552527
 20
48.286500
 30
0.0
 10
121.404338
 20
48.187484
 30
0.0
 10
121.341435
 20
48.035623
 30
0.0
  0
SPLINE
  5
1f6
100
AcDbEntity
  8
0
 62
7
100
AcDbSpline
 70
8
 71
3
 72
8
 73
4
 74
0
 40
0
 40
0
 40
0
 40
0
 40
1
 40
1
 40
1
 40
1
 10
121.341435
 20
48.035623
 30
0.0
 10
121.278532
 20
47.883761
 30
0.0
 10
121.313302
 20
47.708961
 30
0.0
 10
121.429532
 20
47.592732
 30
0.0
  0
SPLINE
  5
1f7
100
AcDbEntity
  8
0
 62
7
100
AcDbSpline
 70
8
 71
3
 72
8
 73
4
 74
0
 40
0
 40
0
 40
0
 40
0
 40
1
 40
1
 40
1
 40
1
 10
121.429532
 20
47.592732
 30
0.0
 10
121.545761
 20
47.476502
 30
0.0
 10
121.720561
 20
47.441732
 30
0.0
 10
121.872423
 20
47.504635
 30
0.0
  0
SPLINE
  5
1f8
100
AcDbEntity
  8
0
 62
7
100
AcDbSpline
 70
8
 71
3
 72
8
 73
4
 74
0
 40
0
 40
0
 40
0
 40
0
 40
1
 40
1
 40
1
 40
1
 10
121.872423
 20
47.504635
 30
0.0
 10
122.024284
 20
47.567538
 30
0.0
 10
122.123300
 20
47.715727
 30
0.0
 10
122.123300
 20
47.880100
 30
0.0
  0
SPLINE
  5
1f9
100
AcDbEntity
  8
0
 62
7
100
AcDbSpline
 70
8
 71
3
 72
8
 73
4
 74
0
 40
0
 40
0
 40
0
 40
0
 40
1
 40
1
 40
1
 40
1
 10
122.123300
 20
47.880100
 30
0.0
 10
122.123300
 20
47.987884
 30
0.0
 10
122.080483
 20
48.091253
 30
0.0
 10
122.004268
 20
48.167468
 30
0.0
  0
SPLINE
  5
1fa
100
AcDbEntity
  8
0
 62
7
100
AcDbSpline
 70
8
 71
3
 72
8
 73
4
 74
0
 40
0
 40
0
 40
0
 40
0
 40
1
 40
1
 40
1
 40
1
 10
122.004268
 20
48.167468
 30
0.0
 10
121.928053
 20
48.243683
 30
0.0
 10
121.824684
 20
48.286500
 30
0.0
 10
121.716900
 20
48.286500
 30
0.0
  0
LINE
  5
1fb
100
AcDbEntity
  8
0
 62
7
100
AcDbLine
 10
121.716900
 20
48.286500
 30
0.0
 11
121.716900
 21
48.286500
 31
0.0
  0
SPLINE
  5
1fc
100
AcDbEntity
  8
0
 62
7
100
AcDbSpline
 70
8
 71
3
 72
8
 73
4
 74
0
 40
0
 40
0
 40
0
 40
0
 40
1
 40
1
 40
1
 40
1
 10
121.716900
 20
50.826500
 30
0.0
 10
121.552527
 20
50.826500
 30
0.0
 10
121.404338
 20
50.727484
 30
0.0
 10
121.341435
 20
50.575623
 30
0.0
  0
SPLINE
  5
1fd
100
AcDbEntity
  8
0
 62
7
100
AcDbSpline
 70
8
 71
3
 72
8
 73
4
 74
0
 40
0
 40
0
 40
0
 40
0
 40
1
 40
1
 40
1
 40
1
 10
121.341435
 20
50.575623
 30
0.0
 10
121.278532
 20
50.423761
 30
0.0
 10
121.313302
 20
50.248961
 30
0.0
 10
121.429532
 20
50.132732
 30
0.0
  0
SPLINE
  5
1fe
100
AcDbEntity
  8
0
 62
7
100
AcDbSpline
 70
8
 71
3
 72
8
 73
4
 74
0
 40
0
 40
0
 40
0
 40
0
 40
1
 40
1
 40
1
 40
1
 10
121.429532
 20
50.132732
 30
0.0
 10
121.545761
 20
50.016502
 30
0.0
 10
121.720561
 20
49.981732
 30
0.0
 10
121.872423
 20
50.044635
 30
0.0
  0
SPLINE
  5
1ff
100
AcDbEntity
  8
0
 62
7
100
AcDbSpline
 70
8
 71
3
 72
8
 73
4
 74
0
 40
0
 40
0
 40
0
 40
0
 40
1
 40
1
 40
1
 40
1
 10
121.872423
 20
50.044635
 30
0.0
 10
122.024284
 20
50.107538
 30
0.0
 10
122.123300
 20
50.255727
 30
0.0
 10
122.123300
 20
50.420100
 30
0.0
  0
SPLINE
  5
200
100
AcDbEntity
  8
0
 62
7
100
AcDbSpline
 70
8
 71
3
 72
8
 73
4
 74
0
 40
0
 40
0
 40
0
 40
0
 40
1
 40
1
 40
1
 40
1
 10
122.123300
 20
50.420100
 30
0.0
 10
122.123300
 20
50.527884
 30
0.0
 10
122.080483
 20
50.631253
 30
0.0
 10
122.004268
 20
50.707468
 30
0.0
  0
SPLINE
  5
201
100
AcDbEntity
  8
0
 62
7
100
AcDbSpline
 70
8
 71
3
 72
8
 73
4
 74
0
 40
0
 40
0
 40
0
 40
0
 40
1
 40
1
 40
1
 40
1
 10
122.004268
 20
50.707468
 30
0.0
 10
121.928053
 20
50.783683
 30
0.0
 10
121.824684
 20
50.826500
 30
0.0
 10
121.716900
 20
50.826500
 30
0.0
  0
LINE
  5
202
100
AcDbEntity
  8
0
 62
7
100
AcDbLine
 10
121.716900
 20
50.826500
 30
0.0
 11
121.716900
 21
50.826500
 31
0.0
  0
SPLINE
  5
203
100
AcDbEntity
  8
0
 62
7
100
AcDbSpline
 70
8
 71
3
 72
8
 73
4
 74
0
 40
0
 40
0
 40
0
 40
0
 40
1
 40
1
 40
1
 40
1
 10
121.716900
 20
53.366500
 30
0.0
 10
121.552527
 20
53.366500
 30
0.0
 10
121.404338
 20
53.267484
 30
0.0
 10
121.341435
 20
53.115623
 30
0.0
  0
SPLINE
  5
204
100
AcDbEntity
  8
0
 62
7
100
AcDbSpline
 70
8
 71
3
 72
8
 73
4
 74
0
 40
0
 40
0
 40
0
 40
0
 40
1
 40
1
 40
1
 40
1
 10
121.341435
 20
53.115623
 30
0.0
 10
121.278532
 20
52.963761
 30
0.0
 10
121.313302
 20
52.788961
 30
0.0
 10
121.429532
 20
52.672732
 30
0.0
  0
SPLINE
  5
205
100
AcDbEntity
  8
0
 62
7
100
AcDbSpline
 70
8
 71
3
 72
8
 73
4
 74
0
 40
0
 40
0
 40
0
 40
0
 40
1
 40
1
 40
1
 40
1
 10
121.429532
 20
52.672732
 30
0.0
 10
121.545761
 20
52.556502
 30
0.0
 10
121.720561
 20
52.521732
 30
0.0
 10
121.872423
 20
52.584635
 30
0.0
  0
SPLINE
  5
206
100
AcDbEntity
  8
0
 62
7
100
AcDbSpline
 70
8
 71
3
 72
8
 73
4
 74
0
 40
0
 40
0
 40
0
 40
0
 40
1
 40
1
 40
1
 40
1
 10
121.872423
 20
52.584635
 30
0.0
 10
122.024284
 20
52.647538
 30
0.0
 10
122.123300
 20
52.795727
 30
0.0
 10
122.123300
 20
52.960100
 30
0.0
  0
SPLINE
  5
207
100
AcDbEntity
  8
0
 62
7
100
AcDbSpline
 70
8
 71
3
 72
8
 73
4
 74
0
 40
0
 40
0
 40
0
 40
0
 40
1
 40
1
 40
1
 40
1
 10
122.123300
 20
52.960100
 30
0.0
 10
122.123300
 20
53.067884
 30
0.0
 10
122.080483
 20
53.171253
 30
0.0
 10
122.004268
 20
53.247468
 30
0.0
  0
SPLINE
  5
208
100
AcDbEntity
  8
0
 62
7
100
AcDbSpline
 70
8
 71
3
 72
8
 73
4
 74
0
 40
0
 40
0
 40
0
 40
0
 40
1
 40
1
 40
1
 40
1
 10
122.004268
 20
53.247468
 30
0.0
 10
121.928053
 20
53.323683
 30
0.0
 10
121.824684
 20
53.366500
 30
0.0
 10
121.716900
 20
53.366500
 30
0.0
  0
LINE
  5
209
100
AcDbEntity
  8
0
 62
7
100
AcDbLine
 10
121.716900
 20
53.366500
 30
0.0
 11
121.716900
 21
53.366500
 31
0.0
  0
SPLINE
  5
20a
100
AcDbEntity
  8
0
 62
7
100
AcDbSpline
 70
8
 71
3
 72
8
 73
4
 74
0
 40
0
 40
0
 40
0
 40
0
 40
1
 40
1
 40
1
 40
1
 10
121.716900
 20
55.906500
 30
0.0
 10
121.552527
 20
55.906500
 30
0.0
 10
121.404338
 20
55.807484
 30
0.0
 10
121.341435
 20
55.655623
 30
0.0
  0
SPLINE
  5
20b
100
AcDbEntity
  8
0
 62
7
100
AcDbSpline
 70
8
 71
3
 72
8
 73
4
 74
0
 40
0
 40
0
 40
0
 40
0
 40
1
 40
1
 40
1
 40
1
 10
121.341435
 20
55.655623
 30
0.0
 10
121.278532
 20
55.503761
 30
0.0
 10
121.313302
 20
55.328961
 30
0.0
 10
121.429532
 20
55.212732
 30
0.0
  0
SPLINE
  5
20c
100
AcDbEntity
  8
0
 62
7
100
AcDbSpline
 70
8
 71
3
 72
8
 73
4
 74
0
 40
0
 40
0
 40
0
 40
0
 40
1
 40
1
 40
1
 40
1
 10
121.429532
 20
55.212732
 30
0.0
 10
121.545761
 20
55.096502
 30
0.0
 10
121.720561
 20
55.061732
 30
0.0
 10
121.872423
 20
55.124635
 30
0.0
  0
SPLINE
  5
20d
100
AcDbEntity
  8
0
 62
7
100
AcDbSpline
 70
8
 71
3
 72
8
 73
4
 74
0
 40
0
 40
0
 40
0
 40
0
 40
1
 40
1
 40
1
 40
1
 10
121.872423
 20
55.124635
 30
0.0
 10
122.024284
 20
55.187538
 30
0.0
 10
122.123300
 20
55.335727
 30
0.0
 10
122.123300
 20
55.500100
 30
0.0
  0
SPLINE
  5
20e
100
AcDbEntity
  8
0
 62
7
100
AcDbSpline
 70
8
 71
3
 72
8
 73
4
 74
0
 40
0
 40
0
 40
0
 40
0
 40
1
 40
1
 40
1
 40
1
 10
122.123300
 20
55.500100
 30
0.0
 10
122.123300
 20
55.607884
 30
0.0
 10
122.080483
 20
55.711253
 30
0.0
 10
122.004268
 20
55.787468
 30
0.0
  0
SPLINE
  5
20f
100
AcDbEntity
  8
0
 62
7
100
AcDbSpline
 70
8
 71
3
 72
8
 73
4
 74
0
 40
0
 40
0
 40
0
 40
0
 40
1
 40
1
 40
1
 40
1
 10
122.004268
 20
55.787468
 30
0.0
 10
121.928053
 20
55.863683
 30
0.0
 10
121.824684
 20
55.906500
 30
0.0
 10
121.716900
 20
55.906500
 30
0.0
  0
LINE
  5
210
100
AcDbEntity
  8
0
 62
7
100
AcDbLine
 10
121.716900
 20
55.906500
 30
0.0
 11
121.716900
 21
55.906500
 31
0.0
  0
SPLINE
  5
211
100
AcDbEntity
  8
0
 62
7
100
AcDbSpline
 70
8
 71
3
 72
8
 73
4
 74
0
 40
0
 40
0
 40
0
 40
0
 40
1
 40
1
 40
1
 40
1
 10
121.716900
 20
58.446500
 30
0.0
 10
121.552527
 20
58.446500
 30
0.0
 10
121.404338
 20
58.347484
 30
0.0
 10
121.341435
 20
58.195623
 30
0.0
  0
SPLINE
  5
212
100
AcDbEntity
  8
0
 62
7
100
AcDbSpline
 70
8
 71
3
 72
8
 73
4
 74
0
 40
0
 40
0
 40
0
 40
0
 40
1
 40
1
 40
1
 40
1
 10
121.341435
 20
58.195623
 30
0.0
 10
121.278532
 20
58.043761
 30
0.0
 10
121.313302
 20
57.868961
 30
0.0
 10
121.429532
 20
57.752732
 30
0.0
  0
SPLINE
  5
213
100
AcDbEntity
  8
0
 62
7
100
AcDbSpline
 70
8
 71
3
 72
8
 73
4
 74
0
 40
0
 40
0
 40
0
 40
0
 40
1
 40
1
 40
1
 40
1
 10
121.429532
 20
57.752732
 30
0.0
 10
121.545761
 20
57.636502
 30
0.0
 10
121.720561
 20
57.601732
 30
0.0
 10
121.872423
 20
57.664635
 30
0.0
  0
SPLINE
  5
214
100
AcDbEntity
  8
0
 62
7
100
AcDbSpline
 70
8
 71
3
 72
8
 73
4
 74
0
 40
0
 40
0
 40
0
 40
0
 40
1
 40
1
 40
1
 40
1
 10
121.872423
 20
57.664635
 30
0.0
 10
122.024284
 20
57.727538
 30
0.0
 10
122.123300
 20
57.875727
 30
0.0
 10
122.123300
 20
58.040100
 30
0.0
  0
SPLINE
  5
215
100
AcDbEntity
  8
0
 62
7
100
AcDbSpline
 70
8
 71
3
 72
8
 73
4
 74
0
 40
0
 40
0
 40
0
 40
0
 40
1
 40
1
 40
1
 40
1
 10
122.123300
 20
58.040100
 30
0.0
 10
122.123300
 20
58.147884
 30
0.0
 10
122.080483
 20
58.251253
 30
0.0
 10
122.004268
 20
58.327468
 30
0.0
  0
SPLINE
  5
216
100
AcDbEntity
  8
0
 62
7
100
AcDbSpline
 70
8
 71
3
 72
8
 73
4
 74
0
 40
0
 40
0
 40
0
 40
0
 40
1
 40
1
 40
1
 40
1
 10
122.004268
 20
58.327468
 30
0.0
 10
121.928053
 20
58.403683
 30
0.0
 10
121.824684
 20
58.446500
 30
0.0
 10
121.716900
 20
58.446500
 30
0.0
  0
LINE
  5
217
100
AcDbEntity
  8
0
 62
7
100
AcDbLine
 10
121.716900
 20
58.446500
 30
0.0
 11
121.716900
 21
58.446500
 31
0.0
  0
SPLINE
  5
218
100
AcDbEntity
  8
0
 62
7
100
AcDbSpline
 70
8
 71
3
 72
8
 73
4
 74
0
 40
0
 40
0
 40
0
 40
0
 40
1
 40
1
 40
1
 40
1
 10
121.716900
 20
60.986500
 30
0.0
 10
121.552527
 20
60.986500
 30
0.0
 10
121.404338
 20
60.887484
 30
0.0
 10
121.341435
 20
60.735623
 30
0.0
  0
SPLINE
  5
219
100
AcDbEntity
  8
0
 62
7
100
AcDbSpline
 70
8
 71
3
 72
8
 73
4
 74
0
 40
0
 40
0
 40
0
 40
0
 40
1
 40
1
 40
1
 40
1
 10
121.341435
 20
60.735623
 30
0.0
 10
121.278532
 20
60.583761
 30
0.0
 10
121.313302
 20
60.408961
 30
0.0
 10
121.429532
 20
60.292732
 30
0.0
  0
SPLINE
  5
21a
100
AcDbEntity
  8
0
 62
7
100
AcDbSpline
 70
8
 71
3
 72
8
 73
4
 74
0
 40
0
 40
0
 40
0
 40
0
 40
1
 40
1
 40
1
 40
1
 10
121.429532
 20
60.292732
 30
0.0
 10
121.545761
 20
60.176502
 30
0.0
 10
121.720561
 20
60.141732
 30
0.0
 10
121.872423
 20
60.204635
 30
0.0
  0
SPLINE
  5
21b
100
AcDbEntity
  8
0
 62
7
100
AcDbSpline
 70
8
 71
3
 72
8
 73
4
 74
0
 40
0
 40
0
 40
0
 40
0
 40
1
 40
1
 40
1
 40
1
 10
121.872423
 20
60.204635
 30
0.0
 10
122.024284
 20
60.267538
 30
0.0
 10
122.123300
 20
60.415727
 30
0.0
 10
122.123300
 20
60.580100
 30
0.0
  0
SPLINE
  5
21c
100
AcDbEntity
  8
0
 62
7
100
AcDbSpline
 70
8
 71
3
 72
8
 73
4
 74
0
 40
0
 40
0
 40
0
 40
0
 40
1
 40
1
 40
1
 40
1
 10
122.123300
 20
60.580100
 30
0.0
 10
122.123300
 20
60.687884
 30
0.0
 10
122.080483
 20
60.791253
 30
0.0
 10
122.004268
 20
60.867468
 30
0.0
  0
SPLINE
  5
21d
100
AcDbEntity
  8
0
 62
7
100
AcDbSpline
 70
8
 71
3
 72
8
 73
4
 74
0
 40
0
 40
0
 40
0
 40
0
 40
1
 40
1
 40
1
 40
1
 10
122.004268
 20
60.867468
 30
0.0
 10
121.928053
 20
60.943683
 30
0.0
 10
121.824684
 20
60.986500
 30
0.0
 10
121.716900
 20
60.986500
 30
0.0
  0
LINE
  5
21e
100
AcDbEntity
  8
0
 62
7
100
AcDbLine
 10
121.716900
 20
60.986500
 30
0.0
 11
121.716900
 21
60.986500
 31
0.0
  0
SPLINE
  5
21f
100
AcDbEntity
  8
0
 62
7
100
AcDbSpline
 70
8
 71
3
 72
8
 73
4
 74
0
 40
0
 40
0
 40
0
 40
0
 40
1
 40
1
 40
1
 40
1
 10
121.716900
 20
63.526500
 30
0.0
 10
121.552527
 20
63.526500
 30
0.0
 10
121.404338
 20
63.427484
 30
0.0
 10
121.341435
 20
63.275623
 30
0.0
  0
SPLINE
  5
220
100
AcDbEntity
  8
0
 62
7
100
AcDbSpline
 70
8
 71
3
 72
8
 73
4
 74
0
 40
0
 40
0
 40
0
 40
0
 40
1
 40
1
 40
1
 40
1
 10
121.341435
 20
63.275623
 30
0.0
 10
121.278532
 20
63.123761
 30
0.0
 10
121.313302
 20
62.948961
 30
0.0
 10
121.429532
 20
62.832732
 30
0.0
  0
SPLINE
  5
221
100
AcDbEntity
  8
0
 62
7
100
AcDbSpline
 70
8
 71
3
 72
8
 73
4
 74
0
 40
0
 40
0
 40
0
 40
0
 40
1
 40
1
 40
1
 40
1
 10
121.429532
 20
62.832732
 30
0.0
 10
121.545761
 20
62.716502
 30
0.0
 10
121.720561
 20
62.681732
 30
0.0
 10
121.872423
 20
62.744635
 30
0.0
  0
SPLINE
  5
222
100
AcDbEntity
  8
0
 62
7
100
AcDbSpline
 70
8
 71
3
 72
8
 73
4
 74
0
 40
0
 40
0
 40
0
 40
0
 40
1
 40
1
 40
1
 40
1
 10
121.872423
 20
62.744635
 30
0.0
 10
122.024284
 20
62.807538
 30
0.0
 10
122.123300
 20
62.955727
 30
0.0
 10
122.123300
 20
63.120100
 30
0.0
  0
SPLINE
  5
223
100
AcDbEntity
  8
0
 62
7
100
AcDbSpline
 70
8
 71
3
 72
8
 73
4
 74
0
 40
0
 40
0
 40
0
 40
0
 40
1
 40
1
 40
1
 40
1
 10
122.123300
 20
63.120100
 30
0.0
 10
122.123300
 20
63.227884
 30
0.0
 10
122.080483
 20
63.331253
 30
0.0
 10
122.004268
 20
63.407468
 30
0.0
  0
SPLINE
  5
224
100
AcDbEntity
  8
0
 62
7
100
AcDbSpline
 70
8
 71
3
 72
8
 73
4
 74
0
 40
0
 40
0
 40
0
 40
0
 40
1
 40
1
 40
1
 40
1
 10
122.004268
 20
63.407468
 30
0.0
 10
121.928053
 20
63.483683
 30
0.0
 10
121.824684
 20
63.526500
 30
0.0
 10
121.716900
 20
63.526500
 30
0.0
  0
LINE
  5
225
100
AcDbEntity
  8
0
 62
7
100
AcDbLine
 10
121.716900
 20
63.526500
 30
0.0
 11
121.716900
 21
63.526500
 31
0.0
  0
SPLINE
  5
226
100
AcDbEntity
  8
0
 62
7
100
AcDbSpline
 70
8
 71
3
 72
8
 73
4
 74
0
 40
0
 40
0
 40
0
 40
0
 40
1
 40
1
 40
1
 40
1
 10
121.716900
 20
66.066500
 30
0.0
 10
121.552527
 20
66.066500
 30
0.0
 10
121.404338
 20
65.967484
 30
0.0
 10
121.341435
 20
65.815623
 30
0.0
  0
SPLINE
  5
227
100
AcDbEntity
  8
0
 62
7
100
AcDbSpline
 70
8
 71
3
 72
8
 73
4
 74
0
 40
0
 40
0
 40
0
 40
0
 40
1
 40
1
 40
1
 40
1
 10
121.341435
 20
65.815623
 30
0.0
 10
121.278532
 20
65.663761
 30
0.0
 10
121.313302
 20
65.488961
 30
0.0
 10
121.429532
 20
65.372732
 30
0.0
  0
SPLINE
  5
228
100
AcDbEntity
  8
0
 62
7
100
AcDbSpline
 70
8
 71
3
 72
8
 73
4
 74
0
 40
0
 40
0
 40
0
 40
0
 40
1
 40
1
 40
1
 40
1
 10
121.429532
 20
65.372732
 30
0.0
 10
121.545761
 20
65.256502
 30
0.0
 10
121.720561
 20
65.221732
 30
0.0
 10
121.872423
 20
65.284635
 30
0.0
  0
SPLINE
  5
229
100
AcDbEntity
  8
0
 62
7
100
AcDbSpline
 70
8
 71
3
 72
8
 73
4
 74
0
 40
0
 40
0
 40
0
 40
0
 40
1
 40
1
 40
1
 40
1
 10
121.872423
 20
65.284635
 30
0.0
 10
122.024284
 20
65.347538
 30
0.0
 10
122.123300
 20
65.495727
 30
0.0
 10
122.123300
 20
65.660100
 30
0.0
  0
SPLINE
  5
22a
100
AcDbEntity
  8
0
 62
7
100
AcDbSpline
 70
8
 71
3
 72
8
 73
4
 74
0
 40
0
 40
0
 40
0
 40
0
 40
1
 40
1
 40
1
 40
1
 10
122.123300
 20
65.660100
 30
0.0
 10
122.123300
 20
65.767884
 30
0.0
 10
122.080483
 20
65.871253
 30
0.0
 10
122.004268
 20
65.947468
 30
0.0
  0
SPLINE
  5
22b
100
AcDbEntity
  8
0
 62
7
100
AcDbSpline
 70
8
 71
3
 72
8
 73
4
 74
0
 40
0
 40
0
 40
0
 40
0
 40
1
 40
1
 40
1
 40
1
 10
122.004268
 20
65.947468
 30
0.0
 10
121.928053
 20
66.023683
 30
0.0
 10
121.824684
 20
66.066500
 30
0.0
 10
121.716900
 20
66.066500
 30
0.0
  0
LINE
  5
22c
100
AcDbEntity
  8
0
 62
7
100
AcDbLine
 10
121.716900
 20
66.066500
 30
0.0
 11
121.716900
 21
66.066500
 31
0.0
  0
SPLINE
  5
22d
100
AcDbEntity
  8
0
 62
7
100
AcDbSpline
 70
8
 71
3
 72
8
 73
4
 74
0
 40
0
 40
0
 40
0
 40
0
 40
1
 40
1
 40
1
 40
1
 10
121.716900
 20
68.606500
 30
0.0
 10
121.552527
 20
68.606500
 30
0.0
 10
121.404338
 20
68.507484
 30
0.0
 10
121.341435
 20
68.355623
 30
0.0
  0
SPLINE
  5
22e
100
AcDbEntity
  8
0
 62
7
100
AcDbSpline
 70
8
 71
3
 72
8
 73
4
 74
0
 40
0
 40
0
 40
0
 40
0
 40
1
 40
1
 40
1
 40
1
 10
121.341435
 20
68.355623
 30
0.0
 10
121.278532
 20
68.203761
 30
0.0
 10
121.313302
 20
68.028961
 30
0.0
 10
121.429532
 20
67.912732
 30
0.0
  0
SPLINE
  5
22f
100
AcDbEntity
  8
0
 62
7
100
AcDbSpline
 70
8
 71
3
 72
8
 73
4
 74
0
 40
0
 40
0
 40
0
 40
0
 40
1
 40
1
 40
1
 40
1
 10
121.429532
 20
67.912732
 30
0.0
 10
121.545761
 20
67.796502
 30
0.0
 10
121.720561
 20
67.761732
 30
0.0
 10
121.872423
 20
67.824635
 30
0.0
  0
SPLINE
  5
230
100
AcDbEntity
  8
0
 62
7
100
AcDbSpline
 70
8
 71
3
 72
8
 73
4
 74
0
 40
0
 40
0
 40
0
 40
0
 40
1
 40
1
 40
1
 40
1
 10
121.872423
 20
67.824635
 30
0.0
 10
122.024284
 20
67.887538
 30
0.0
 10
122.123300
 20
68.035727
 30
0.0
 10
122.123300
 20
68.200100
 30
0.0
  0
SPLINE
  5
231
100
AcDbEntity
  8
0
 62
7
100
AcDbSpline
 70
8
 71
3
 72
8
 73
4
 74
0
 40
0
 40
0
 40
0
 40
0
 40
1
 40
1
 40
1
 40
1
 10
122.123300
 20
68.200100
 30
0.0
 10
122.123300
 20
68.307884
 30
0.0
 10
122.080483
 20
68.411253
 30
0.0
 10
122.004268
 20
68.487468
 30
0.0
  0
SPLINE
  5
232
100
AcDbEntity
  8
0
 62
7
100
AcDbSpline
 70
8
 71
3
 72
8
 73
4
 74
0
 40
0
 40
0
 40
0
 40
0
 40
1
 40
1
 40
1
 40
1
 10
122.004268
 20
68.487468
 30
0.0
 10
121.928053
 20
68.563683
 30
0.0
 10
121.824684
 20
68.606500
 30
0.0
 10
121.716900
 20
68.606500
 30
0.0
  0
LINE
  5
233
100
AcDbEntity
  8
0
 62
7
100
AcDbLine
 10
121.716900
 20
68.606500
 30
0.0
 11
121.716900
 21
68.606500
 31
0.0
  0
SPLINE
  5
234
100
AcDbEntity
  8
0
 62
7
100
AcDbSpline
 70
8
 71
3
 72
8
 73
4
 74
0
 40
0
 40
0
 40
0
 40
0
 40
1
 40
1
 40
1
 40
1
 10
121.716900
 20
71.146500
 30
0.0
 10
121.552527
 20
71.146500
 30
0.0
 10
121.404338
 20
71.047484
 30
0.0
 10
121.341435
 20
70.895623
 30
0.0
  0
SPLINE
  5
235
100
AcDbEntity
  8
0
 62
7
100
AcDbSpline
 70
8
 71
3
 72
8
 73
4
 74
0
 40
0
 40
0
 40
0
 40
0
 40
1
 40
1
 40
1
 40
1
 10
121.341435
 20
70.895623
 30
0.0
 10
121.278532
 20
70.743761
 30
0.0
 10
121.313302
 20
70.568961
 30
0.0
 10
121.429532
 20
70.452732
 30
0.0
  0
SPLINE
  5
236
100
AcDbEntity
  8
0
 62
7
100
AcDbSpline
 70
8
 71
3
 72
8
 73
4
 74
0
 40
0
 40
0
 40
0
 40
0
 40
1
 40
1
 40
1
 40
1
 10
121.429532
 20
70.452732
 30
0.0
 10
121.545761
 20
70.336502
 30
0.0
 10
121.720561
 20
70.301732
 30
0.0
 10
121.872423
 20
70.364635
 30
0.0
  0
SPLINE
  5
237
100
AcDbEntity
  8
0
 62
7
100
AcDbSpline
 70
8
 71
3
 72
8
 73
4
 74
0
 40
0
 40
0
 40
0
 40
0
 40
1
 40
1
 40
1
 40
1
 10
121.872423
 20
70.364635
 30
0.0
 10
122.024284
 20
70.427538
 30
0.0
 10
122.123300
 20
70.575727
 30
0.0
 10
122.123300
 20
70.740100
 30
0.0
  0
SPLINE
  5
238
100
AcDbEntity
  8
0
 62
7
100
AcDbSpline
 70
8
 71
3
 72
8
 73
4
 74
0
 40
0
 40
0
 40
0
 40
0
 40
1
 40
1
 40
1
 40
1
 10
122.123300
 20
70.740100
 30
0.0
 10
122.123300
 20
70.847884
 30
0.0
 10
122.080483
 20
70.951253
 30
0.0
 10
122.004268
 20
71.027468
 30
0.0
  0
SPLINE
  5
239
100
AcDbEntity
  8
0
 62
7
100
AcDbSpline
 70
8
 71
3
 72
8
 73
4
 74
0
 40
0
 40
0
 40
0
 40
0
 40
1
 40
1
 40
1
 40
1
 10
122.004268
 20
71.027468
 30
0.0
 10
121.928053
 20
71.103683
 30
0.0
 10
121.824684
 20
71.146500
 30
0.0
 10
121.716900
 20
71.146500
 30
0.0
  0
LINE
  5
23a
100
AcDbEntity
  8
0
 62
7
100
AcDbLine
 10
121.716900
 20
71.146500
 30
0.0
 11
121.716900
 21
71.146500
 31
0.0
  0
SPLINE
  5
23b
100
AcDbEntity
  8
0
 62
7
100
AcDbSpline
 70
8
 71
3
 72
8
 73
4
 74
0
 40
0
 40
0
 40
0
 40
0
 40
1
 40
1
 40
1
 40
1
 10
121.716900
 20
73.686500
 30
0.0
 10
121.552527
 20
73.686500
 30
0.0
 10
121.404338
 20
73.587484
 30
0.0
 10
121.341435
 20
73.435623
 30
0.0
  0
SPLINE
  5
23c
100
AcDbEntity
  8
0
 62
7
100
AcDbSpline
 70
8
 71
3
 72
8
 73
4
 74
0
 40
0
 40
0
 40
0
 40
0
 40
1
 40
1
 40
1
 40
1
 10
121.341435
 20
73.435623
 30
0.0
 10
121.278532
 20
73.283761
 30
0.0
 10
121.313302
 20
73.108961
 30
0.0
 10
121.429532
 20
72.992732
 30
0.0
  0
SPLINE
  5
23d
100
AcDbEntity
  8
0
 62
7
100
AcDbSpline
 70
8
 71
3
 72
8
 73
4
 74
0
 40
0
 40
0
 40
0
 40
0
 40
1
 40
1
 40
1
 40
1
 10
121.429532
 20
72.992732
 30
0.0
 10
121.545761
 20
72.876502
 30
0.0
 10
121.720561
 20
72.841732
 30
0.0
 10
121.872423
 20
72.904635
 30
0.0
  0
SPLINE
  5
23e
100
AcDbEntity
  8
0
 62
7
100
AcDbSpline
 70
8
 71
3
 72
8
 73
4
 74
0
 40
0
 40
0
 40
0
 40
0
 40
1
 40
1
 40
1
 40
1
 10
121.872423
 20
72.904635
 30
0.0
 10
122.024284
 20
72.967538
 30
0.0
 10
122.123300
 20
73.115727
 30
0.0
 10
122.123300
 20
73.280100
 30
0.0
  0
SPLINE
  5
23f
100
AcDbEntity
  8
0
 62
7
100
AcDbSpline
 70
8
 71
3
 72
8
 73
4
 74
0
 40
0
 40
0
 40
0
 40
0
 40
1
 40
1
 40
1
 40
1
 10
122.123300
 20
73.280100
 30
0.0
 10
122.123300
 20
73.387884
 30
0.0
 10
122.080483
 20
73.491253
 30
0.0
 10
122.004268
 20
73.567468
 30
0.0
  0
SPLINE
  5
240
100
AcDbEntity
  8
0
 62
7
100
AcDbSpline
 70
8
 71
3
 72
8
 73
4
 74
0
 40
0
 40
0
 40
0
 40
0
 40
1
 40
1
 40
1
 40
1
 10
122.004268
 20
73.567468
 30
0.0
 10
121.928053
 20
73.643683
 30
0.0
 10
121.824684
 20
73.686500
 30
0.0
 10
121.716900
 20
73.686500
 30
0.0
  0
LINE
  5
241
100
AcDbEntity
  8
0
 62
7
100
AcDbLine
 10
121.716900
 20
73.686500
 30
0.0
 11
121.716900
 21
73.686500
 31
0.0
  0
SPLINE
  5
242
100
AcDbEntity
  8
0
 62
7
100
AcDbSpline
 70
8
 71
3
 72
8
 73
4
 74
0
 40
0
 40
0
 40
0
 40
0
 40
1
 40
1
 40
1
 40
1
 10
91.736400
 20
79.140500
 30
0.0
 10
91.129707
 20
79.140500
 30
0.0
 10
90.582752
 20
78.775037
 30
0.0
 10
90.350581
 20
78.214525
 30
0.0
  0
SPLINE
  5
243
100
AcDbEntity
  8
0
 62
7
100
AcDbSpline
 70
8
 71
3
 72
8
 73
4
 74
0
 40
0
 40
0
 40
0
 40
0
 40
1
 40
1
 40
1
 40
1
 10
90.350581
 20
78.214525
 30
0.0
 10
90.118409
 20
77.654014
 30
0.0
 10
90.246743
 20
77.008837
 30
0.0
 10
90.675740
 20
76.579840
 30
0.0
  0
SPLINE
  5
244
100
AcDbEntity
  8
0
 62
7
100
AcDbSpline
 70
8
 71
3
 72
8
 73
4
 74
0
 40
0
 40
0
 40
0
 40
0
 40
1
 40
1
 40
1
 40
1
 10
90.675740
 20
76.579840
 30
0.0
 10
91.104737
 20
76.150843
 30
0.0
 10
91.749914
 20
76.022509
 30
0.0
 10
92.310425
 20
76.254681
 30
0.0
  0
SPLINE
  5
245
100
AcDbEntity
  8
0
 62
7
100
AcDbSpline
 70
8
 71
3
 72
8
 73
4
 74
0
 40
0
 40
0
 40
0
 40
0
 40
1
 40
1
 40
1
 40
1
 10
92.310425
 20
76.254681
 30
0.0
 10
92.870937
 20
76.486852
 30
0.0
 10
93.236400
 20
77.033807
 30
0.0
 10
93.236400
 20
77.640500
 30
0.0
  0
SPLINE
  5
246
100
AcDbEntity
  8
0
 62
7
100
AcDbSpline
 70
8
 71
3
 72
8
 73
4
 74
0
 40
0
 40
0
 40
0
 40
0
 40
1
 40
1
 40
1
 40
1
 10
93.236400
 20
77.640500
 30
0.0
 10
93.236400
 20
78.038325
 30
0.0
 10
93.078365
 20
78.419856
 30
0.0
 10
92.797060
 20
78.701160
 30
0.0
  0
SPLINE
  5
247
100
AcDbEntity
  8
0
 62
7
100
AcDbSpline
 70
8
 71
3
 72
8
 73
4
 74
0
 40
0
 40
0
 40
0
 40
0
 40
1
 40
1
 40
1
 40
1
 10
92.797060
 20
78.701160
 30
0.0
 10
92.515756
 20
78.982465
 30
0.0
 10
92.134225
 20
79.140500
 30
0.0
 10
91.736400
 20
79.140500
 30
0.0
  0
LINE
  5
248
100
AcDbEntity
  8
0
 62
7
100
AcDbLine
 10
91.736400
 20
79.140500
 30
0.0
 11
91.736400
 21
79.140500
 31
0.0
  0
SPLINE
  5
249
100
AcDbEntity
  8
0
 62
7
100
AcDbSpline
 70
8
 71
3
 72
8
 73
4
 74
0
 40
0
 40
0
 40
0
 40
0
 40
1
 40
1
 40
1
 40
1
 10
224.314100
 20
100.206600
 30
0.0
 10
223.707407
 20
100.206600
 30
0.0
 10
223.160452
 20
99.841137
 30
0.0
 10
222.928281
 20
99.280625
 30
0.0
  0
SPLINE
  5
24a
100
AcDbEntity
  8
0
 62
7
100
AcDbSpline
 70
8
 71
3
 72
8
 73
4
 74
0
 40
0
 40
0
 40
0
 40
0
 40
1
 40
1
 40
1
 40
1
 10
222.928281
 20
99.280625
 30
0.0
 10
222.696109
 20
98.720114
 30
0.0
 10
222.824443
 20
98.074937
 30
0.0
 10
223.253440
 20
97.645940
 30
0.0
  0
SPLINE
  5
24b
100
AcDbEntity
  8
0
 62
7
100
AcDbSpline
 70
8
 71
3
 72
8
 73
4
 74
0
 40
0
 40
0
 40
0
 40
0
 40
1
 40
1
 40
1
 40
1
 10
223.253440
 20
97.645940
 30
0.0
 10
223.682437
 20
97.216943
 30
0.0
 10
224.327614
 20
97.088609
 30
0.0
 10
224.888125
 20
97.320781
 30
0.0
  0
SPLINE
  5
24c
100
AcDbEntity
  8
0
 62
7
100
AcDbSpline
 70
8
 71
3
 72
8
 73
4
 74
0
 40
0
 40
0
 40
0
 40
0
 40
1
 40
1
 40
1
 40
1
 10
224.888125
 20
97.320781
 30
0.0
 10
225.448637
 20
97.552952
 30
0.0
 10
225.814100
 20
98.099907
 30
0.0
 10
225.814100
 20
98.706600
 30
0.0
  0
SPLINE
  5
24d
100
AcDbEntity
  8
0
 62
7
100
AcDbSpline
 70
8
 71
3
 72
8
 73
4
 74
0
 40
0
 40
0
 40
0
 40
0
 40
1
 40
1
 40
1
 40
1
 10
225.814100
 20
98.706600
 30
0.0
 10
225.814100
 20
99.104425
 30
0.0
 10
225.656065
 20
99.485956
 30
0.0
 10
225.374760
 20
99.767260
 30
0.0
  0
SPLINE
  5
24e
100
AcDbEntity
  8
0
 62
7
100
AcDbSpline
 70
8
 71
3
 72
8
 73
4
 74
0
 40
0
 40
0
 40
0
 40
0
 40
1
 40
1
 40
1
 40
1
 10
225.374760
 20
99.767260
 30
0.0
 10
225.093456
 20
100.048565
 30
0.0
 10
224.711925
 20
100.206600
 30
0.0
 10
224.314100
 20
100.206600
 30
0.0
  0
LINE
  5
24f
100
AcDbEntity
  8
0
 62
7
100
AcDbLine
 10
224.314100
 20
100.206600
 30
0.0
 11
224.314100
 21
100.206600
 31
0.0
  0
SPLINE
  5
250
100
AcDbEntity
  8
0
 62
7
100
AcDbSpline
 70
8
 71
3
 72
8
 73
4
 74
0
 40
0
 40
0
 40
0
 40
0
 40
1
 40
1
 40
1
 40
1
 10
176.569500
 20
41.175100
 30
0.0
 10
175.962807
 20
41.175100
 30
0.0
 10
175.415852
 20
40.809637
 30
0.0
 10
175.183681
 20
40.249125
 30
0.0
  0
SPLINE
  5
251
100
AcDbEntity
  8
0
 62
7
100
AcDbSpline
 70
8
 71
3
 72
8
 73
4
 74
0
 40
0
 40
0
 40
0
 40
0
 40
1
 40
1
 40
1
 40
1
 10
175.183681
 20
40.249125
 30
0.0
 10
174.951509
 20
39.688614
 30
0.0
 10
175.079843
 20
39.043437
 30
0.0
 10
175.508840
 20
38.614440
 30
0.0
  0
SPLINE
  5
252
100
AcDbEntity
  8
0
 62
7
100
AcDbSpline
 70
8
 71
3
 72
8
 73
4
 74
0
 40
0
 40
0
 40
0
 40
0
 40
1
 40
1
 40
1
 40
1
 10
175.508840
 20
38.614440
 30
0.0
 10
175.937837
 20
38.185443
 30
0.0
 10
176.583014
 20
38.057109
 30
0.0
 10
177.143525
 20
38.289281
 30
0.0
  0
SPLINE
  5
253
100
AcDbEntity
  8
0
 62
7
100
AcDbSpline
 70
8
 71
3
 72
8
 73
4
 74
0
 40
0
 40
0
 40
0
 40
0
 40
1
 40
1
 40
1
 40
1
 10
177.143525
 20
38.289281
 30
0.0
 10
177.704037
 20
38.521452
 30
0.0
 10
178.069500
 20
39.068407
 30
0.0
 10
178.069500
 20
39.675100
 30
0.0
  0
SPLINE
  5
254
100
AcDbEntity
  8
0
 62
7
100
AcDbSpline
 70
8
 71
3
 72
8
 73
4
 74
0
 40
0
 40
0
 40
0
 40
0
 40
1
 40
1
 40
1
 40
1
 10
178.069500
 20
39.675100
 30
0.0
 10
178.069500
 20
40.072925
 30
0.0
 10
177.911465
 20
40.454456
 30
0.0
 10
177.630160
 20
40.735760
 30
0.0
  0
SPLINE
  5
255
100
AcDbEntity
  8
0
 62
7
100
AcDbSpline
 70
8
 71
3
 72
8
 73
4
 74
0
 40
0
 40
0
 40
0
 40
0
 40
1
 40
1
 40
1
 40
1
 10
177.630160
 20
40.735760
 30
0.0
 10
177.348856
 20
41.017065
 30
0.0
 10
176.967325
 20
41.175100
 30
0.0
 10
176.569500
 20
41.175100
 30
0.0
  0
LINE
  5
256
100
AcDbEntity
  8
0
 62
7
100
AcDbLine
 10
176.569500
 20
41.175100
 30
0.0
 11
176.569500
 21
41.175100
 31
0.0
  0
SPLINE
  5
257
100
AcDbEntity
  8
0
 62
7
100
AcDbSpline
 70
8
 71
3
 72
8
 73
4
 74
0
 40
0
 40
0
 40
0
 40
0
 40
1
 40
1
 40
1
 40
1
 10
33.984900
 20
100.053500
 30
0.0
 10
33.378207
 20
100.053500
 30
0.0
 10
32.831252
 20
99.688037
 30
0.0
 10
32.599081
 20
99.127525
 30
0.0
  0
SPLINE
  5
258
100
AcDbEntity
  8
0
 62
7
100
AcDbSpline
 70
8
 71
3
 72
8
 73
4
 74
0
 40
0
 40
0
 40
0
 40
0
 40
1
 40
1
 40
1
 40
1
 10
32.599081
 20
99.127525
 30
0.0
 10
32.366909
 20
98.567014
 30
0.0
 10
32.495243
 20
97.921837
 30
0.0
 10
32.924240
 20
97.492840
 30
0.0
  0
SPLINE
  5
259
100
AcDbEntity
  8
0
 62
7
100
AcDbSpline
 70
8
 71
3
 72
8
 73
4
 74
0
 40
0
 40
0
 40
0
 40
0
 40
1
 40
1
 40
1
 40
1
 10
32.924240
 20
97.492840
 30
0.0
 10
33.353237
 20
97.063843
 30
0.0
 10
33.998414
 20
96.935509
 30
0.0
 10
34.558925
 20
97.167681
 30
0.0
  0
SPLINE
  5
25a
100
AcDbEntity
  8
0
 62
7
100
AcDbSpline
 70
8
 71
3
 72
8
 73
4
 74
0
 40
0
 40
0
 40
0
 40
0
 40
1
 40
1
 40
1
 40
1
 10
34.558925
 20
97.167681
 30
0.0
 10
35.119437
 20
97.399852
 30
0.0
 10
35.484900
 20
97.946807
 30
0.0
 10
35.484900
 20
98.553500
 30
0.0
  0
SPLINE
  5
25b
100
AcDbEntity
  8
0
 62
7
100
AcDbSpline
 70
8
 71
3
 72
8
 73
4
 74
0
 40
0
 40
0
 40
0
 40
0
 40
1
 40
1
 40
1
 40
1
 10
35.484900
 20
98.553500
 30
0.0
 10
35.484900
 20
98.951325
 30
0.0
 10
35.326865
 20
99.332856
 30
0.0
 10
35.045560
 20
99.614160
 30
0.0
  0
SPLINE
  5
25c
100
AcDbEntity
  8
0
 62
7
100
AcDbSpline
 70
8
 71
3
 72
8
 73
4
 74
0
 40
0
 40
0
 40
0
 40
0
 40
1
 40
1
 40
1
 40
1
 10
35.045560
 20
99.614160
 30
0.0
 10
34.764256
 20
99.895465
 30
0.0
 10
34.382725
 20
100.053500
 30
0.0
 10
33.984900
 20
100.053500
 30
0.0
  0
LINE
  5
25d
100
AcDbEntity
  8
0
 62
7
100
AcDbLine
 10
33.984900
 20
100.053500
 30
0.0
 11
33.984900
 21
100.053500
 31
0.0
  0
SPLINE
  5
25e
100
AcDbEntity
  8
0
 62
7
100
AcDbSpline
 70
8
 71
3
 72
8
 73
4
 74
0
 40
0
 40
0
 40
0
 40
0
 40
1
 40
1
 40
1
 40
1
 10
146.015500
 20
76.247200
 30
0.0
 10
145.794623
 20
76.247200
 30
0.0
 10
145.595495
 20
76.114147
 30
0.0
 10
145.510969
 20
75.910083
 30
0.0
  0
SPLINE
  5
25f
100
AcDbEntity
  8
0
 62
7
100
AcDbSpline
 70
8
 71
3
 72
8
 73
4
 74
0
 40
0
 40
0
 40
0
 40
0
 40
1
 40
1
 40
1
 40
1
 10
145.510969
 20
75.910083
 30
0.0
 10
145.426443
 20
75.706020
 30
0.0
 10
145.473165
 20
75.471132
 30
0.0
 10
145.629349
 20
75.314949
 30
0.0
  0
SPLINE
  5
260
100
AcDbEntity
  8
0
 62
7
100
AcDbSpline
 70
8
 71
3
 72
8
 73
4
 74
0
 40
0
 40
0
 40
0
 40
0
 40
1
 40
1
 40
1
 40
1
 10
145.629349
 20
75.314949
 30
0.0
 10
145.785532
 20
75.158765
 30
0.0
 10
146.020420
 20
75.112043
 30
0.0
 10
146.224483
 20
75.196569
 30
0.0
  0
SPLINE
  5
261
100
AcDbEntity
  8
0
 62
7
100
AcDbSpline
 70
8
 71
3
 72
8
 73
4
 74
0
 40
0
 40
0
 40
0
 40
0
 40
1
 40
1
 40
1
 40
1
 10
146.224483
 20
75.196569
 30
0.0
 10
146.428547
 20
75.281095
 30
0.0
 10
146.561600
 20
75.480223
 30
0.0
 10
146.561600
 20
75.701100
 30
0.0
  0
SPLINE
  5
262
100
AcDbEntity
  8
0
 62
7
100
AcDbSpline
 70
8
 71
3
 72
8
 73
4
 74
0
 40
0
 40
0
 40
0
 40
0
 40
1
 40
1
 40
1
 40
1
 10
146.561600
 20
75.701100
 30
0.0
 10
146.561600
 20
75.845935
 30
0.0
 10
146.504065
 20
75.984837
 30
0.0
 10
146.401651
 20
76.087251
 30
0.0
  0
SPLINE
  5
263
100
AcDbEntity
  8
0
 62
7
100
AcDbSpline
 70
8
 71
3
 72
8
 73
4
 74
0
 40
0
 40
0
 40
0
 40
0
 40
1
 40
1
 40
1
 40
1
 10
146.401651
 20
76.087251
 30
0.0
 10
146.299237
 20
76.189665
 30
0.0
 10
146.160335
 20
76.247200
 30
0.0
 10
146.015500
 20
76.247200
 30
0.0
  0
LINE
  5
264
100
AcDbEntity
  8
0
 62
7
100
AcDbLine
 10
146.015500
 20
76.247200
 30
0.0
 11
146.015500
 21
76.247200
 31
0.0
  0
SPLINE
  5
265
100
AcDbEntity
  8
0
 62
7
100
AcDbSpline
 70
8
 71
3
 72
8
 73
4
 74
0
 40
0
 40
0
 40
0
 40
0
 40
1
 40
1
 40
1
 40
1
 10
144.015500
 20
76.247200
 30
0.0
 10
143.794623
 20
76.247200
 30
0.0
 10
143.595495
 20
76.114147
 30
0.0
 10
143.510969
 20
75.910083
 30
0.0
  0
SPLINE
  5
266
100
AcDbEntity
  8
0
 62
7
100
AcDbSpline
 70
8
 71
3
 72
8
 73
4
 74
0
 40
0
 40
0
 40
0
 40
0
 40
1
 40
1
 40
1
 40
1
 10
143.510969
 20
75.910083
 30
0.0
 10
143.426443
 20
75.706020
 30
0.0
 10
143.473165
 20
75.471132
 30
0.0
 10
143.629349
 20
75.314949
 30
0.0
  0
SPLINE
  5
267
100
AcDbEntity
  8
0
 62
7
100
AcDbSpline
 70
8
 71
3
 72
8
 73
4
 74
0
 40
0
 40
0
 40
0
 40
0
 40
1
 40
1
 40
1
 40
1
 10
143.629349
 20
75.314949
 30
0.0
 10
143.785532
 20
75.158765
 30
0.0
 10
144.020420
 20
75.112043
 30
0.0
 10
144.224483
 20
75.196569
 30
0.0
  0
SPLINE
  5
268
100
AcDbEntity
  8
0
 62
7
100
AcDbSpline
 70
8
 71
3
 72
8
 73
4
 74
0
 40
0
 40
0
 40
0
 40
0
 40
1
 40
1
 40
1
 40
1
 10
144.224483
 20
75.196569
 30
0.0
 10
144.428547
 20
75.281095
 30
0.0
 10
144.561600
 20
75.480223
 30
0.0
 10
144.561600
 20
75.701100
 30
0.0
  0
SPLINE
  5
269
100
AcDbEntity
  8
0
 62
7
100
AcDbSpline
 70
8
 71
3
 72
8
 73
4
 74
0
 40
0
 40
0
 40
0
 40
0
 40
1
 40
1
 40
1
 40
1
 10
144.561600
 20
75.701100
 30
0.0
 10
144.561600
 20
75.845935
 30
0.0
 10
144.504065
 20
75.984837
 30
0.0
 10
144.401651
 20
76.087251
 30
0.0
  0
SPLINE
  5
26a
100
AcDbEntity
  8
0
 62
7
100
AcDbSpline
 70
8
 71
3
 72
8
 73
4
 74
0
 40
0
 40
0
 40
0
 40
0
 40
1
 40
1
 40
1
 40
1
 10
144.401651
 20
76.087251
 30
0.0
 10
144.299237
 20
76.189665
 30
0.0
 10
144.160335
 20
76.247200
 30
0.0
 10
144.015500
 20
76.247200
 30
0.0
  0
LINE
  5
26b
100
AcDbEntity
  8
0
 62
7
100
AcDbLine
 10
144.015500
 20
76.247200
 30
0.0
 11
144.015500
 21
76.247200
 31
0.0
  0
SPLINE
  5
26c
100
AcDbEntity
  8
0
 62
7
100
AcDbSpline
 70
8
 71
3
 72
8
 73
4
 74
0
 40
0
 40
0
 40
0
 40
0
 40
1
 40
1
 40
1
 40
1
 10
142.015500
 20
76.247200
 30
0.0
 10
141.794623
 20
76.247200
 30
0.0
 10
141.595495
 20
76.114147
 30
0.0
 10
141.510969
 20
75.910083
 30
0.0
  0
SPLINE
  5
26d
100
AcDbEntity
  8
0
 62
7
100
AcDbSpline
 70
8
 71
3
 72
8
 73
4
 74
0
 40
0
 40
0
 40
0
 40
0
 40
1
 40
1
 40
1
 40
1
 10
141.510969
 20
75.910083
 30
0.0
 10
141.426443
 20
75.706020
 30
0.0
 10
141.473165
 20
75.471132
 30
0.0
 10
141.629349
 20
75.314949
 30
0.0
  0
SPLINE
  5
26e
100
AcDbEntity
  8
0
 62
7
100
AcDbSpline
 70
8
 71
3
 72
8
 73
4
 74
0
 40
0
 40
0
 40
0
 40
0
 40
1
 40
1
 40
1
 40
1
 10
141.629349
 20
75.314949
 30
0.0
 10
141.785532
 20
75.158765
 30
0.0
 10
142.020420
 20
75.112043
 30
0.0
 10
142.224483
 20
75.196569
 30
0.0
  0
SPLINE
  5
26f
100
AcDbEntity
  8
0
 62
7
100
AcDbSpline
 70
8
 71
3
 72
8
 73
4
 74
0
 40
0
 40
0
 40
0
 40
0
 40
1
 40
1
 40
1
 40
1
 10
142.224483
 20
75.196569
 30
0.0
 10
142.428547
 20
75.281095
 30
0.0
 10
142.561600
 20
75.480223
 30
0.0
 10
142.561600
 20
75.701100
 30
0.0
  0
SPLINE
  5
270
100
AcDbEntity
  8
0
 62
7
100
AcDbSpline
 70
8
 71
3
 72
8
 73
4
 74
0
 40
0
 40
0
 40
0
 40
0
 40
1
 40
1
 40
1
 40
1
 10
142.561600
 20
75.701100
 30
0.0
 10
142.561600
 20
75.845935
 30
0.0
 10
142.504065
 20
75.984837
 30
0.0
 10
142.401651
 20
76.087251
 30
0.0
  0
SPLINE
  5
271
100
AcDbEntity
  8
0
 62
7
100
AcDbSpline
 70
8
 71
3
 72
8
 73
4
 74
0
 40
0
 40
0
 40
0
 40
0
 40
1
 40
1
 40
1
 40
1
 10
142.401651
 20
76.087251
 30
0.0
 10
142.299237
 20
76.189665
 30
0.0
 10
142.160335
 20
76.247200
 30
0.0
 10
142.015500
 20
76.247200
 30
0.0
  0
LINE
  5
272
100
AcDbEntity
  8
0
 62
7
100
AcDbLine
 10
142.015500
 20
76.247200
 30
0.0
 11
142.015500
 21
76.247200
 31
0.0
  0
SPLINE
  5
273
100
AcDbEntity
  8
0
 62
7
100
AcDbSpline
 70
8
 71
3
 72
8
 73
4
 74
0
 40
0
 40
0
 40
0
 40
0
 40
1
 40
1
 40
1
 40
1
 10
128.079500
 20
75.761100
 30
0.0
 10
127.897492
 20
75.761100
 30
0.0
 10
127.733406
 20
75.651461
 30
0.0
 10
127.663754
 20
75.483308
 30
0.0
  0
SPLINE
  5
274
100
AcDbEntity
  8
0
 62
7
100
AcDbSpline
 70
8
 71
3
 72
8
 73
4
 74
0
 40
0
 40
0
 40
0
 40
0
 40
1
 40
1
 40
1
 40
1
 10
127.663754
 20
75.483308
 30
0.0
 10
127.594103
 20
75.315154
 30
0.0
 10
127.632603
 20
75.121601
 30
0.0
 10
127.761302
 20
74.992902
 30
0.0
  0
SPLINE
  5
275
100
AcDbEntity
  8
0
 62
7
100
AcDbSpline
 70
8
 71
3
 72
8
 73
4
 74
0
 40
0
 40
0
 40
0
 40
0
 40
1
 40
1
 40
1
 40
1
 10
127.761302
 20
74.992902
 30
0.0
 10
127.890001
 20
74.864203
 30
0.0
 10
128.083554
 20
74.825703
 30
0.0
 10
128.251708
 20
74.895354
 30
0.0
  0
SPLINE
  5
276
100
AcDbEntity
  8
0
 62
7
100
AcDbSpline
 70
8
 71
3
 72
8
 73
4
 74
0
 40
0
 40
0
 40
0
 40
0
 40
1
 40
1
 40
1
 40
1
 10
128.251708
 20
74.895354
 30
0.0
 10
128.419861
 20
74.965006
 30
0.0
 10
128.529500
 20
75.129092
 30
0.0
 10
128.529500
 20
75.311100
 30
0.0
  0
SPLINE
  5
277
100
AcDbEntity
  8
0
 62
7
100
AcDbSpline
 70
8
 71
3
 72
8
 73
4
 74
0
 40
0
 40
0
 40
0
 40
0
 40
1
 40
1
 40
1
 40
1
 10
128.529500
 20
75.311100
 30
0.0
 10
128.529500
 20
75.559628
 30
0.0
 10
128.328028
 20
75.761100
 30
0.0
 10
128.079500
 20
75.761100
 30
0.0
  0
LINE
  5
278
100
AcDbEntity
  8
0
 62
7
100
AcDbLine
 10
128.079500
 20
75.761100
 30
0.0
 11
128.079500
 21
75.761100
 31
0.0
  0
SPLINE
  5
279
100
AcDbEntity
  8
0
 62
7
100
AcDbSpline
 70
8
 71
3
 72
8
 73
4
 74
0
 40
0
 40
0
 40
0
 40
0
 40
1
 40
1
 40
1
 40
1
 10
131.079500
 20
75.761100
 30
0.0
 10
130.897492
 20
75.761100
 30
0.0
 10
130.733406
 20
75.651461
 30
0.0
 10
130.663754
 20
75.483308
 30
0.0
  0
SPLINE
  5
27a
100
AcDbEntity
  8
0
 62
7
100
AcDbSpline
 70
8
 71
3
 72
8
 73
4
 74
0
 40
0
 40
0
 40
0
 40
0
 40
1
 40
1
 40
1
 40
1
 10
130.663754
 20
75.483308
 30
0.0
 10
130.594103
 20
75.315154
 30
0.0
 10
130.632603
 20
75.121601
 30
0.0
 10
130.761302
 20
74.992902
 30
0.0
  0
SPLINE
  5
27b
100
AcDbEntity
  8
0
 62
7
100
AcDbSpline
 70
8
 71
3
 72
8
 73
4
 74
0
 40
0
 40
0
 40
0
 40
0
 40
1
 40
1
 40
1
 40
1
 10
130.761302
 20
74.992902
 30
0.0
 10
130.890001
 20
74.864203
 30
0.0
 10
131.083554
 20
74.825703
 30
0.0
 10
131.251708
 20
74.895354
 30
0.0
  0
SPLINE
  5
27c
100
AcDbEntity
  8
0
 62
7
100
AcDbSpline
 70
8
 71
3
 72
8
 73
4
 74
0
 40
0
 40
0
 40
0
 40
0
 40
1
 40
1
 40
1
 40
1
 10
131.251708
 20
74.895354
 30
0.0
 10
131.419861
 20
74.965006
 30
0.0
 10
131.529500
 20
75.129092
 30
0.0
 10
131.529500
 20
75.311100
 30
0.0
  0
SPLINE
  5
27d
100
AcDbEntity
  8
0
 62
7
100
AcDbSpline
 70
8
 71
3
 72
8
 73
4
 74
0
 40
0
 40
0
 40
0
 40
0
 40
1
 40
1
 40
1
 40
1
 10
131.529500
 20
75.311100
 30
0.0
 10
131.529500
 20
75.430447
 30
0.0
 10
131.482089
 20
75.544907
 30
0.0
 10
131.397698
 20
75.629298
 30
0.0
  0
SPLINE
  5
27e
100
AcDbEntity
  8
0
 62
7
100
AcDbSpline
 70
8
 71
3
 72
8
 73
4
 74
0
 40
0
 40
0
 40
0
 40
0
 40
1
 40
1
 40
1
 40
1
 10
131.397698
 20
75.629298
 30
0.0
 10
131.313307
 20
75.713689
 30
0.0
 10
131.198847
 20
75.761100
 30
0.0
 10
131.079500
 20
75.761100
 30
0.0
  0
LINE
  5
27f
100
AcDbEntity
  8
0
 62
7
100
AcDbLine
 10
131.079500
 20
75.761100
 30
0.0
 11
131.079500
 21
75.761100
 31
0.0
  0
SPLINE
  5
280
100
AcDbEntity
  8
0
 62
7
100
AcDbSpline
 70
8
 71
3
 72
8
 73
4
 74
0
 40
0
 40
0
 40
0
 40
0
 40
1
 40
1
 40
1
 40
1
 10
160.675200
 20
83.226700
 30
0.0
 10
161.413282
 20
83.602846
 30
0.0
 10
161.706745
 20
84.506067
 30
0.0
 10
161.330700
 20
85.244200
 30
0.0
  0
SPLINE
  5
281
100
AcDbEntity
  8
0
 62
7
100
AcDbSpline
 70
8
 71
3
 72
8
 73
4
 74
0
 40
0
 40
0
 40
0
 40
0
 40
1
 40
1
 40
1
 40
1
 10
158.587500
 20
93.623000
 30
0.0
 10
158.233002
 20
93.442425
 30
0.0
 10
157.964767
 20
93.128408
 30
0.0
 10
157.841815
 20
92.750045
 30
0.0
  0
SPLINE
  5
282
100
AcDbEntity
  8
0
 62
7
100
AcDbSpline
 70
8
 71
3
 72
8
 73
4
 74
0
 40
0
 40
0
 40
0
 40
0
 40
1
 40
1
 40
1
 40
1
 10
157.841815
 20
92.750045
 30
0.0
 10
157.718863
 20
92.371681
 30
0.0
 10
157.751268
 20
91.959969
 30
0.0
 10
157.931900
 20
91.605500
 30
0.0
  0
SPLINE
  5
283
100
AcDbEntity
  8
0
 62
7
100
AcDbSpline
 70
8
 71
3
 72
8
 73
4
 74
0
 40
0
 40
0
 40
0
 40
0
 40
1
 40
1
 40
1
 40
1
 10
218.423900
 20
109.802200
 30
0.0
 10
218.707781
 20
109.099676
 30
0.0
 10
219.471009
 20
108.719177
 30
0.0
 10
220.202900
 20
108.915300
 30
0.0
  0
LINE
  5
284
100
AcDbEntity
  8
0
 62
7
100
AcDbLine
 10
216.016700
 20
116.027400
 30
0.0
 11
218.423900
 21
109.802200
 31
0.0
  0
SPLINE
  5
285
100
AcDbEntity
  8
0
 62
7
100
AcDbSpline
 70
8
 71
3
 72
8
 73
4
 74
0
 40
0
 40
0
 40
0
 40
0
 40
1
 40
1
 40
1
 40
1
 10
85.384100
 20
101.827300
 30
0.0
 10
85.611081
 20
102.185919
 30
0.0
 10
85.676468
 20
102.623572
 30
0.0
 10
85.564218
 20
103.032873
 30
0.0
  0
SPLINE
  5
286
100
AcDbEntity
  8
0
 62
7
100
AcDbSpline
 70
8
 71
3
 72
8
 73
4
 74
0
 40
0
 40
0
 40
0
 40
0
 40
1
 40
1
 40
1
 40
1
 10
85.564218
 20
103.032873
 30
0.0
 10
85.451967
 20
103.442174
 30
0.0
 10
85.172468
 20
103.785243
 30
0.0
 10
84.794300
 20
103.977900
 30
0.0
  0
LINE
  5
287
100
AcDbEntity
  8
0
 62
7
100
AcDbLine
 10
87.167100
 20
11.368700
 30
0.0
 11
92.964100
 21
22.746000
 31
0.0
  0
LINE
  5
288
100
AcDbEntity
  8
0
 62
7
100
AcDbLine
 10
24.536100
 20
64.095100
 30
0.0
 11
61.269900
 21
48.824000
 31
0.0
  0
SPLINE
  5
289
100
AcDbEntity
  8
0
 62
7
100
AcDbSpline
 70
8
 71
3
 72
8
 73
4
 74
0
 40
0
 40
0
 40
0
 40
0
 40
1
 40
1
 40
1
 40
1
 10
85.149600
 20
10.713200
 30
0.0
 10
85.887729
 20
10.337095
 30
0.0
 10
86.790993
 20
10.630572
 30
0.0
 10
87.167100
 20
11.368700
 30
0.0
  0
LINE
  5
28a
100
AcDbEntity
  8
0
 62
7
100
AcDbLine
 10
54.965300
 20
32.852600
 30
0.0
 11
61.925400
 21
46.806500
 31
0.0
  0
SPLINE
  5
28b
100
AcDbEntity
  8
0
 62
7
100
AcDbSpline
 70
8
 71
3
 72
8
 73
4
 74
0
 40
0
 40
0
 40
0
 40
0
 40
1
 40
1
 40
1
 40
1
 10
165.378800
 20
23.495900
 30
0.0
 10
142.098518
 20
30.820383
 30
0.0
 10
117.130682
 20
30.820383
 30
0.0
 10
93.850400
 20
23.495900
 30
0.0
  0
SPLINE
  5
28c
100
AcDbEntity
  8
0
 62
7
100
AcDbSpline
 70
8
 71
3
 72
8
 73
4
 74
0
 40
0
 40
0
 40
0
 40
0
 40
1
 40
1
 40
1
 40
1
 10
65.935500
 20
108.528500
 30
0.0
 10
66.656650
 20
108.237150
 30
0.0
 10
67.480871
 20
108.545305
 30
0.0
 10
67.834000
 20
109.238300
 30
0.0
  0
LINE
  5
28d
100
AcDbEntity
  8
0
 62
7
100
AcDbLine
 10
110.274000
 20
77.367300
 30
0.0
 11
148.455200
 21
77.367300
 31
0.0
  0
LINE
  5
28e
100
AcDbEntity
  8
0
 62
7
100
AcDbLine
 10
134.151500
 20
69.901100
 30
0.0
 11
125.515500
 21
69.901100
 31
0.0
  0
LINE
  5
28f
100
AcDbEntity
  8
0
 62
7
100
AcDbLine
 10
7.075000
 20
77.916300
 30
0.0
 11
16.521900
 21
113.172600
 31
0.0
  0
SPLINE
  5
290
100
AcDbEntity
  8
0
 62
7
100
AcDbSpline
 70
8
 71
3
 72
8
 73
4
 74
0
 40
0
 40
0
 40
0
 40
0
 40
1
 40
1
 40
1
 40
1
 10
216.016700
 20
116.027400
 30
0.0
 10
215.867700
 20
116.396284
 30
0.0
 10
215.578251
 20
116.690860
 30
0.0
 10
215.212040
 20
116.846313
 30
0.0
  0
SPLINE
  5
291
100
AcDbEntity
  8
0
 62
7
100
AcDbSpline
 70
8
 71
3
 72
8
 73
4
 74
0
 40
0
 40
0
 40
0
 40
0
 40
1
 40
1
 40
1
 40
1
 10
215.212040
 20
116.846313
 30
0.0
 10
214.845829
 20
117.001765
 30
0.0
 10
214.432860
 20
117.005358
 30
0.0
 10
214.064000
 20
116.856300
 30
0.0
  0
SPLINE
  5
292
100
AcDbEntity
  8
0
 62
7
100
AcDbSpline
 70
8
 71
3
 72
8
 73
4
 74
0
 40
0
 40
0
 40
0
 40
0
 40
1
 40
1
 40
1
 40
1
 10
93.850400
 20
23.495900
 30
0.0
 10
93.466292
 20
23.375022
 30
0.0
 10
93.146909
 20
23.104792
 30
0.0
 10
92.964100
 20
22.746000
 30
0.0
  0
LINE
  5
293
100
AcDbEntity
  8
0
 62
7
100
AcDbLine
 10
166.265100
 20
22.746000
 30
0.0
 11
172.062200
 21
11.368700
 31
0.0
  0
LINE
  5
294
100
AcDbEntity
  8
0
 62
7
100
AcDbLine
 10
97.898500
 20
85.244200
 30
0.0
 11
100.765500
 21
90.951100
 31
0.0
  0
LINE
  5
295
100
AcDbEntity
  8
0
 62
7
100
AcDbLine
 10
174.079700
 20
10.713200
 30
0.0
 11
186.553700
 21
17.069100
 31
0.0
  0
LINE
  5
296
100
AcDbEntity
  8
0
 62
7
100
AcDbLine
 10
194.531500
 20
109.122300
 30
0.0
 11
214.064000
 21
116.856300
 31
0.0
  0
LINE
  5
297
100
AcDbEntity
  8
0
 62
7
100
AcDbLine
 10
70.538200
 20
111.241800
 30
0.0
 11
84.794300
 21
103.977900
 31
0.0
  0
LINE
  5
298
100
AcDbEntity
  8
0
 62
7
100
AcDbLine
 10
157.931900
 20
91.605500
 30
0.0
 11
161.330700
 21
85.244200
 31
0.0
  0
SPLINE
  5
299
100
AcDbEntity
  8
0
 62
7
100
AcDbSpline
 70
8
 71
3
 72
8
 73
4
 74
0
 40
0
 40
0
 40
0
 40
0
 40
1
 40
1
 40
1
 40
1
 10
204.108400
 20
31.085200
 30
0.0
 10
204.846507
 20
31.461269
 30
0.0
 10
205.140022
 20
32.364469
 30
0.0
 10
204.764000
 20
33.102600
 30
0.0
  0
SPLINE
  5
29a
100
AcDbEntity
  8
0
 62
7
100
AcDbSpline
 70
8
 71
3
 72
8
 73
4
 74
0
 40
0
 40
0
 40
0
 40
0
 40
1
 40
1
 40
1
 40
1
 10
25.231100
 20
70.208500
 30
0.0
 10
25.427210
 20
70.940417
 30
0.0
 10
25.046663
 20
71.703657
 30
0.0
 10
24.344100
 20
71.987500
 30
0.0
  0
LINE
  5
29b
100
AcDbEntity
  8
0
 62
7
100
AcDbLine
 10
55.620800
 20
30.835100
 30
0.0
 11
71.658900
 21
22.663300
 31
0.0
  0
SPLINE
  5
29c
100
AcDbEntity
  8
0
 62
7
100
AcDbSpline
 70
8
 71
3
 72
8
 73
4
 74
0
 40
0
 40
0
 40
0
 40
0
 40
1
 40
1
 40
1
 40
1
 10
23.649200
 20
65.874100
 30
0.0
 10
23.453030
 20
65.142205
 30
0.0
 10
23.833544
 20
64.378945
 30
0.0
 10
24.536100
 20
64.095100
 30
0.0
  0
SPLINE
  5
29d
100
AcDbEntity
  8
0
 62
7
100
AcDbSpline
 70
8
 71
3
 72
8
 73
4
 74
0
 40
0
 40
0
 40
0
 40
0
 40
1
 40
1
 40
1
 40
1
 10
18.359000
 20
114.233200
 30
0.0
 10
17.558825
 20
114.447606
 30
0.0
 10
16.736340
 20
113.972766
 30
0.0
 10
16.521900
 20
113.172600
 30
0.0
  0
LINE
  5
29e
100
AcDbEntity
  8
0
 62
7
100
AcDbLine
 10
174.439700
 20
104.214400
 30
0.0
 11
189.928800
 21
111.835500
 31
0.0
  0
SPLINE
  5
29f
100
AcDbEntity
  8
0
 62
7
100
AcDbSpline
 70
8
 71
3
 72
8
 73
4
 74
0
 40
0
 40
0
 40
0
 40
0
 40
1
 40
1
 40
1
 40
1
 10
234.281000
 20
71.873900
 30
0.0
 10
233.578389
 20
71.590052
 30
0.0
 10
233.197832
 20
70.826749
 30
0.0
 10
233.394000
 20
70.094800
 30
0.0
  0
SPLINE
  5
2a0
100
AcDbEntity
  8
0
 62
7
100
AcDbSpline
 70
8
 71
3
 72
8
 73
4
 74
0
 40
0
 40
0
 40
0
 40
0
 40
1
 40
1
 40
1
 40
1
 10
100.765500
 20
90.951000
 30
0.0
 10
101.141538
 20
91.689189
 30
0.0
 10
100.848032
 20
92.592450
 30
0.0
 10
100.109900
 20
92.968600
 30
0.0
  0
SPLINE
  5
2a1
100
AcDbEntity
  8
0
 62
7
100
AcDbSpline
 70
8
 71
3
 72
8
 73
4
 74
0
 40
0
 40
0
 40
0
 40
0
 40
1
 40
1
 40
1
 40
1
 10
192.633100
 20
109.832000
 30
0.0
 10
192.986225
 20
109.139058
 30
0.0
 10
193.810404
 20
108.830945
 30
0.0
 10
194.531500
 20
109.122300
 30
0.0
  0
LINE
  5
2a2
100
AcDbEntity
  8
0
 62
7
100
AcDbLine
 10
191.946300
 20
111.180000
 30
0.0
 11
192.633100
 21
109.832100
 31
0.0
  0
LINE
  5
2a3
100
AcDbEntity
  8
0
 62
7
100
AcDbLine
 10
134.151500
 20
62.535100
 30
0.0
 11
125.261500
 21
62.535100
 31
0.0
  0
SPLINE
  5
2a4
100
AcDbEntity
  8
0
 62
7
100
AcDbSpline
 70
8
 71
3
 72
8
 73
4
 74
0
 40
0
 40
0
 40
0
 40
0
 40
1
 40
1
 40
1
 40
1
 10
173.424100
 20
101.201100
 30
0.0
 10
173.828136
 20
101.468944
 30
0.0
 10
173.983792
 20
101.986776
 30
0.0
 10
173.794400
 20
102.433000
 30
0.0
  0
SPLINE
  5
2a5
100
AcDbEntity
  8
0
 62
7
100
AcDbSpline
 70
8
 71
3
 72
8
 73
4
 74
0
 40
0
 40
0
 40
0
 40
0
 40
1
 40
1
 40
1
 40
1
 10
70.538200
 20
111.241800
 30
0.0
 10
70.183726
 20
111.422405
 30
0.0
 10
69.772024
 20
111.454795
 30
0.0
 10
69.393668
 20
111.331846
 30
0.0
  0
SPLINE
  5
2a6
100
AcDbEntity
  8
0
 62
7
100
AcDbSpline
 70
8
 71
3
 72
8
 73
4
 74
0
 40
0
 40
0
 40
0
 40
0
 40
1
 40
1
 40
1
 40
1
 10
69.393668
 20
111.331846
 30
0.0
 10
69.015312
 20
111.208896
 30
0.0
 10
68.701295
 20
110.940679
 30
0.0
 10
68.520700
 20
110.586200
 30
0.0
  0
LINE
  5
2a7
100
AcDbEntity
  8
0
 62
7
100
AcDbLine
 10
40.187500
 20
109.844500
 30
0.0
 11
42.999600
 21
116.062500
 31
0.0
  0
SPLINE
  5
2a8
100
AcDbEntity
  8
0
 62
7
100
AcDbSpline
 70
8
 71
3
 72
8
 73
4
 74
0
 40
0
 40
0
 40
0
 40
0
 40
1
 40
1
 40
1
 40
1
 10
38.408400
 20
108.957500
 30
0.0
 10
39.140349
 20
108.761332
 30
0.0
 10
39.903652
 20
109.141889
 30
0.0
 10
40.187500
 20
109.844500
 30
0.0
  0
LINE
  5
2a9
100
AcDbEntity
  8
0
 62
7
100
AcDbLine
 10
67.834000
 20
109.238300
 30
0.0
 11
68.520700
 21
110.586200
 31
0.0
  0
LINE
  5
2aa
100
AcDbEntity
  8
0
 62
7
100
AcDbLine
 10
220.202900
 20
108.915300
 30
0.0
 11
240.657300
 21
114.198100
 31
0.0
  0
SPLINE
  5
2ab
100
AcDbEntity
  8
0
 62
7
100
AcDbSpline
 70
8
 71
3
 72
8
 73
4
 74
0
 40
0
 40
0
 40
0
 40
0
 40
1
 40
1
 40
1
 40
1
 10
198.498800
 20
48.833000
 30
0.0
 10
198.144319
 20
48.652407
 30
0.0
 10
197.876106
 20
48.338383
 30
0.0
 10
197.753174
 20
47.960021
 30
0.0
  0
SPLINE
  5
2ac
100
AcDbEntity
  8
0
 62
7
100
AcDbSpline
 70
8
 71
3
 72
8
 73
4
 74
0
 40
0
 40
0
 40
0
 40
0
 40
1
 40
1
 40
1
 40
1
 10
197.753174
 20
47.960021
 30
0.0
 10
197.630241
 20
47.581659
 30
0.0
 10
197.662661
 20
47.169957
 30
0.0
 10
197.843300
 20
46.815500
 30
0.0
  0
LINE
  5
2ad
100
AcDbEntity
  8
0
 62
7
100
AcDbLine
 10
44.952300
 20
116.891300
 30
0.0
 11
65.935500
 21
108.528500
 31
0.0
  0
SPLINE
  5
2ae
100
AcDbEntity
  8
0
 62
7
100
AcDbSpline
 70
8
 71
3
 72
8
 73
4
 74
0
 40
0
 40
0
 40
0
 40
0
 40
1
 40
1
 40
1
 40
1
 10
108.912100
 20
77.694300
 30
0.0
 10
109.333907
 20
77.479371
 30
0.0
 10
109.800591
 20
77.367317
 30
0.0
 10
110.274000
 20
77.367300
 30
0.0
  0
LINE
  5
2af
100
AcDbEntity
  8
0
 62
7
100
AcDbLine
 10
235.019400
 20
65.708900
 30
0.0
 11
233.394000
 21
70.094800
 31
0.0
  0
SPLINE
  5
2b0
100
AcDbEntity
  8
0
 62
7
100
AcDbSpline
 70
8
 71
3
 72
8
 73
4
 74
0
 40
0
 40
0
 40
0
 40
0
 40
1
 40
1
 40
1
 40
1
 10
97.898500
 20
85.244200
 30
0.0
 10
97.717861
 20
84.889743
 30
0.0
 10
97.685441
 20
84.478041
 30
0.0
 10
97.808374
 20
84.099679
 30
0.0
  0
SPLINE
  5
2b1
100
AcDbEntity
  8
0
 62
7
100
AcDbSpline
 70
8
 71
3
 72
8
 73
4
 74
0
 40
0
 40
0
 40
0
 40
0
 40
1
 40
1
 40
1
 40
1
 10
97.808374
 20
84.099679
 30
0.0
 10
97.931306
 20
83.721317
 30
0.0
 10
98.199519
 20
83.407293
 30
0.0
 10
98.554000
 20
83.226700
 30
0.0
  0
LINE
  5
2b2
100
AcDbEntity
  8
0
 62
7
100
AcDbLine
 10
124.493200
 20
49.951100
 30
0.0
 11
132.765500
 21
49.951100
 31
0.0
  0
LINE
  5
2b3
100
AcDbEntity
  8
0
 62
7
100
AcDbLine
 10
125.261500
 20
62.535100
 30
0.0
 11
125.261500
 21
69.901100
 31
0.0
  0
LINE
  5
2b4
100
AcDbEntity
  8
0
 62
7
100
AcDbLine
 10
134.151500
 20
62.535100
 30
0.0
 11
134.151500
 21
69.901100
 31
0.0
  0
LINE
  5
2b5
100
AcDbEntity
  8
0
 62
7
100
AcDbLine
 10
187.070300
 20
22.663300
 30
0.0
 11
204.108400
 21
31.085100
 31
0.0
  0
LINE
  5
2b6
100
AcDbEntity
  8
0
 62
7
100
AcDbLine
 10
198.498800
 20
48.833000
 30
0.0
 11
234.132400
 21
63.929900
 31
0.0
  0
SPLINE
  5
2b7
100
AcDbEntity
  8
0
 62
7
100
AcDbSpline
 70
8
 71
3
 72
8
 73
4
 74
0
 40
0
 40
0
 40
0
 40
0
 40
1
 40
1
 40
1
 40
1
 10
250.880700
 20
76.044100
 30
0.0
 10
251.264973
 20
76.147056
 30
0.0
 10
251.592607
 20
76.398448
 30
0.0
 10
251.791527
 20
76.742971
 30
0.0
  0
SPLINE
  5
2b8
100
AcDbEntity
  8
0
 62
7
100
AcDbSpline
 70
8
 71
3
 72
8
 73
4
 74
0
 40
0
 40
0
 40
0
 40
0
 40
1
 40
1
 40
1
 40
1
 10
251.791527
 20
76.742971
 30
0.0
 10
251.990447
 20
77.087494
 30
0.0
 10
252.044358
 20
77.496928
 30
0.0
 10
251.941400
 20
77.881200
 30
0.0
  0
SPLINE
  5
2b9
100
AcDbEntity
  8
0
 62
7
100
AcDbSpline
 70
8
 71
3
 72
8
 73
4
 74
0
 40
0
 40
0
 40
0
 40
0
 40
1
 40
1
 40
1
 40
1
 10
174.439800
 20
104.214400
 30
0.0
 10
173.789374
 20
103.882988
 30
0.0
 10
173.507190
 20
103.104117
 30
0.0
 10
173.794400
 20
102.433000
 30
0.0
  0
LINE
  5
2ba
100
AcDbEntity
  8
0
 62
7
100
AcDbLine
 10
149.817100
 20
77.694200
 30
0.0
 11
160.675200
 21
83.226700
 31
0.0
  0
LINE
  5
2bb
100
AcDbEntity
  8
0
 62
7
100
AcDbLine
 10
8.135600
 20
76.079100
 30
0.0
 11
24.344100
 21
71.987500
 31
0.0
  0
LINE
  5
2bc
100
AcDbEntity
  8
0
 62
7
100
AcDbLine
 10
187.209300
 20
19.086600
 30
0.0
 11
186.414800
 21
20.645800
 31
0.0
  0
SPLINE
  5
2bd
100
AcDbEntity
  8
0
 62
7
100
AcDbSpline
 70
8
 71
3
 72
8
 73
4
 74
0
 40
0
 40
0
 40
0
 40
0
 40
1
 40
1
 40
1
 40
1
 10
85.384200
 20
101.827300
 30
0.0
 10
85.032772
 20
101.297491
 30
0.0
 10
85.153160
 20
100.585836
 30
0.0
 10
85.659300
 20
100.201100
 30
0.0
  0
SPLINE
  5
2be
100
AcDbEntity
  8
0
 62
7
100
AcDbSpline
 70
8
 71
3
 72
8
 73
4
 74
0
 40
0
 40
0
 40
0
 40
0
 40
1
 40
1
 40
1
 40
1
 10
72.314500
 20
20.645800
 30
0.0
 10
72.690530
 20
21.383960
 30
0.0
 10
72.397020
 20
22.287190
 30
0.0
 10
71.658900
 20
22.663300
 30
0.0
  0
SPLINE
  5
2bf
100
AcDbEntity
  8
0
 62
7
100
AcDbSpline
 70
8
 71
3
 72
8
 73
4
 74
0
 40
0
 40
0
 40
0
 40
0
 40
1
 40
1
 40
1
 40
1
 10
234.132400
 20
63.930000
 30
0.0
 10
234.834916
 20
64.213839
 30
0.0
 10
235.215453
 20
64.977014
 30
0.0
 10
235.019400
 20
65.708900
 30
0.0
  0
LINE
  5
2c0
100
AcDbEntity
  8
0
 62
7
100
AcDbLine
 10
72.175500
 20
17.069100
 30
0.0
 11
85.149600
 21
10.713200
 31
0.0
  0
LINE
  5
2c1
100
AcDbEntity
  8
0
 62
7
100
AcDbLine
 10
242.494500
 20
113.137500
 30
0.0
 11
251.941400
 21
77.881200
 31
0.0
  0
SPLINE
  5
2c2
100
AcDbEntity
  8
0
 62
7
100
AcDbSpline
 70
8
 71
3
 72
8
 73
4
 74
0
 40
0
 40
0
 40
0
 40
0
 40
1
 40
1
 40
1
 40
1
 10
54.965300
 20
32.852600
 30
0.0
 10
54.589195
 20
32.114471
 30
0.0
 10
54.882672
 20
31.211207
 30
0.0
 10
55.620800
 20
30.835100
 30
0.0
  0
LINE
  5
2c3
100
AcDbEntity
  8
0
 62
7
100
AcDbLine
 10
23.649100
 20
65.874100
 30
0.0
 11
25.231100
 21
70.208500
 31
0.0
  0
LINE
  5
2c4
100
AcDbEntity
  8
0
 62
7
100
AcDbLine
 10
158.587500
 20
93.623000
 30
0.0
 11
173.424100
 21
101.201100
 31
0.0
  0
LINE
  5
2c5
100
AcDbEntity
  8
0
 62
7
100
AcDbLine
 10
234.281000
 20
71.873800
 30
0.0
 11
250.880700
 21
76.044100
 31
0.0
  0
SPLINE
  5
2c6
100
AcDbEntity
  8
0
 62
7
100
AcDbSpline
 70
8
 71
3
 72
8
 73
4
 74
0
 40
0
 40
0
 40
0
 40
0
 40
1
 40
1
 40
1
 40
1
 10
71.520000
 20
19.086500
 30
0.0
 10
71.143963
 20
18.348396
 30
0.0
 10
71.437431
 20
17.445205
 30
0.0
 10
72.175500
 20
17.069100
 30
0.0
  0
LINE
  5
2c7
100
AcDbEntity
  8
0
 62
7
100
AcDbLine
 10
18.359000
 20
114.233200
 30
0.0
 11
38.408500
 21
108.957500
 31
0.0
  0
LINE
  5
2c8
100
AcDbEntity
  8
0
 62
7
100
AcDbLine
 10
85.659300
 20
100.201100
 30
0.0
 11
100.109900
 21
92.968600
 31
0.0
  0
LINE
  5
2c9
100
AcDbEntity
  8
0
 62
7
100
AcDbLine
 10
124.493200
 20
49.951100
 30
0.0
 11
124.493200
 21
43.231100
 31
0.0
  0
LINE
  5
2ca
100
AcDbEntity
  8
0
 62
7
100
AcDbLine
 10
72.314400
 20
20.645800
 30
0.0
 11
71.519900
 21
19.086600
 31
0.0
  0
LINE
  5
2cb
100
AcDbEntity
  8
0
 62
7
100
AcDbLine
 10
125.261500
 20
69.901100
 30
0.0
 11
125.515500
 21
69.901100
 31
0.0
  0
LINE
  5
2cc
100
AcDbEntity
  8
0
 62
7
100
AcDbLine
 10
124.493200
 20
43.231100
 30
0.0
 11
132.765500
 21
43.231100
 31
0.0
  0
SPLINE
  5
2cd
100
AcDbEntity
  8
0
 62
7
100
AcDbSpline
 70
8
 71
3
 72
8
 73
4
 74
0
 40
0
 40
0
 40
0
 40
0
 40
1
 40
1
 40
1
 40
1
 10
187.070300
 20
22.663300
 30
0.0
 10
186.332172
 20
22.287193
 30
0.0
 10
186.038695
 20
21.383929
 30
0.0
 10
186.414800
 20
20.645800
 30
0.0
  0
SPLINE
  5
2ce
100
AcDbEntity
  8
0
 62
7
100
AcDbSpline
 70
8
 71
3
 72
8
 73
4
 74
0
 40
0
 40
0
 40
0
 40
0
 40
1
 40
1
 40
1
 40
1
 10
7.074900
 20
77.916300
 30
0.0
 10
6.971912
 20
77.532014
 30
0.0
 10
7.025808
 20
77.122555
 30
0.0
 10
7.224730
 20
76.778008
 30
0.0
  0
SPLINE
  5
2cf
100
AcDbEntity
  8
0
 62
7
100
AcDbSpline
 70
8
 71
3
 72
8
 73
4
 74
0
 40
0
 40
0
 40
0
 40
0
 40
1
 40
1
 40
1
 40
1
 10
7.224730
 20
76.778008
 30
0.0
 10
7.423653
 20
76.433462
 30
0.0
 10
7.751305
 20
76.182055
 30
0.0
 10
8.135600
 20
76.079100
 30
0.0
  0
SPLINE
  5
2d0
100
AcDbEntity
  8
0
 62
7
100
AcDbSpline
 70
8
 71
3
 72
8
 73
4
 74
0
 40
0
 40
0
 40
0
 40
0
 40
1
 40
1
 40
1
 40
1
 10
166.265100
 20
22.746000
 30
0.0
 10
166.082282
 20
23.104785
 30
0.0
 10
165.762903
 20
23.375012
 30
0.0
 10
165.378800
 20
23.495900
 30
0.0
  0
LINE
  5
2d1
100
AcDbEntity
  8
0
 62
7
100
AcDbLine
 10
197.843300
 20
46.815500
 30
0.0
 11
204.764000
 21
33.102600
 31
0.0
  0
SPLINE
  5
2d2
100
AcDbEntity
  8
0
 62
7
100
AcDbSpline
 70
8
 71
3
 72
8
 73
4
 74
0
 40
0
 40
0
 40
0
 40
0
 40
1
 40
1
 40
1
 40
1
 10
186.553800
 20
17.069100
 30
0.0
 10
187.291928
 20
17.445207
 30
0.0
 10
187.585405
 20
18.348471
 30
0.0
 10
187.209300
 20
19.086600
 30
0.0
  0
SPLINE
  5
2d3
100
AcDbEntity
  8
0
 62
7
100
AcDbSpline
 70
8
 71
3
 72
8
 73
4
 74
0
 40
0
 40
0
 40
0
 40
0
 40
1
 40
1
 40
1
 40
1
 10
61.925400
 20
46.806500
 30
0.0
 10
62.301445
 20
47.544633
 30
0.0
 10
62.007982
 20
48.447854
 30
0.0
 10
61.269900
 20
48.824000
 30
0.0
  0
SPLINE
  5
2d4
100
AcDbEntity
  8
0
 62
7
100
AcDbSpline
 70
8
 71
3
 72
8
 73
4
 74
0
 40
0
 40
0
 40
0
 40
0
 40
1
 40
1
 40
1
 40
1
 10
172.062200
 20
11.368700
 30
0.0
 10
172.438307
 20
10.630572
 30
0.0
 10
173.341571
 20
10.337095
 30
0.0
 10
174.079700
 20
10.713200
 30
0.0
  0
SPLINE
  5
2d5
100
AcDbEntity
  8
0
 62
7
100
AcDbSpline
 70
8
 71
3
 72
8
 73
4
 74
0
 40
0
 40
0
 40
0
 40
0
 40
1
 40
1
 40
1
 40
1
 10
191.946400
 20
111.180000
 30
0.0
 10
191.765787
 20
111.534488
 30
0.0
 10
191.451745
 20
111.802703
 30
0.0
 10
191.073367
 20
111.925634
 30
0.0
  0
SPLINE
  5
2d6
100
AcDbEntity
  8
0
 62
7
100
AcDbSpline
 70
8
 71
3
 72
8
 73
4
 74
0
 40
0
 40
0
 40
0
 40
0
 40
1
 40
1
 40
1
 40
1
 10
191.073367
 20
111.925634
 30
0.0
 10
190.694988
 20
112.048566
 30
0.0
 10
190.283272
 20
112.016143
 30
0.0
 10
189.928800
 20
111.835500
 30
0.0
  0
SPLINE
  5
2d7
100
AcDbEntity
  8
0
 62
7
100
AcDbSpline
 70
8
 71
3
 72
8
 73
4
 74
0
 40
0
 40
0
 40
0
 40
0
 40
1
 40
1
 40
1
 40
1
 10
44.952300
 20
116.891400
 30
0.0
 10
44.184183
 20
117.201680
 30
0.0
 10
43.309963
 20
116.830584
 30
0.0
 10
42.999600
 20
116.062500
 30
0.0
  0
LINE
  5
2d8
100
AcDbEntity
  8
0
 62
7
100
AcDbLine
 10
98.554000
 20
83.226700
 30
0.0
 11
108.912100
 21
77.694200
 31
0.0
  0
LINE
  5
2d9
100
AcDbEntity
  8
0
 62
7
100
AcDbLine
 10
132.765500
 20
43.231100
 30
0.0
 11
132.765500
 21
49.951100
 31
0.0
  0
SPLINE
  5
2da
100
AcDbEntity
  8
0
 62
7
100
AcDbSpline
 70
8
 71
3
 72
8
 73
4
 74
0
 40
0
 40
0
 40
0
 40
0
 40
1
 40
1
 40
1
 40
1
 10
148.455200
 20
77.367300
 30
0.0
 10
148.928602
 20
77.367271
 30
0.0
 10
149.395290
 20
77.479291
 30
0.0
 10
149.817100
 20
77.694200
 30
0.0
  0
SPLINE
  5
2db
100
AcDbEntity
  8
0
 62
7
100
AcDbSpline
 70
8
 71
3
 72
8
 73
4
 74
0
 40
0
 40
0
 40
0
 40
0
 40
1
 40
1
 40
1
 40
1
 10
242.494500
 20
113.137500
 30
0.0
 10
242.280014
 20
113.937680
 30
0.0
 10
241.457500
 20
114.412510
 30
0.0
 10
240.657300
 20
114.198100
 30
0.0
  0
LINE
  5
2dc
100
AcDbEntity
  8
0
 62
7
100
AcDbLine
 10
27.249600
 20
89.082700
 30
0.0
 11
13.716900
 21
92.708800
 31
0.0
  0
LINE
  5
2dd
100
AcDbEntity
  8
0
 62
7
100
AcDbLine
 10
13.716900
 20
92.708800
 30
0.0
 11
10.080500
 21
79.137500
 31
0.0
  0
LINE
  5
2de
100
AcDbEntity
  8
0
 62
7
100
AcDbLine
 10
10.080500
 20
79.137500
 30
0.0
 11
23.613100
 21
75.511500
 31
0.0
  0
LINE
  5
2df
100
AcDbEntity
  8
0
 62
7
100
AcDbLine
 10
23.613100
 20
75.511500
 30
0.0
 11
27.249600
 21
89.082700
 31
0.0
  0
LINE
  5
2e0
100
AcDbEntity
  8
0
 62
7
100
AcDbLine
 10
196.141700
 20
43.306000
 30
0.0
 11
183.658700
 21
36.945600
 31
0.0
  0
LINE
  5
2e1
100
AcDbEntity
  8
0
 62
7
100
AcDbLine
 10
183.658700
 20
36.945600
 30
0.0
 11
190.037300
 21
24.427000
 31
0.0
  0
LINE
  5
2e2
100
AcDbEntity
  8
0
 62
7
100
AcDbLine
 10
190.037300
 20
24.427000
 30
0.0
 11
202.520300
 21
30.787400
 31
0.0
  0
LINE
  5
2e3
100
AcDbEntity
  8
0
 62
7
100
AcDbLine
 10
202.520300
 20
30.787400
 30
0.0
 11
196.141700
 21
43.306000
 31
0.0
  0
LINE
  5
2e4
100
AcDbEntity
  8
0
 62
7
100
AcDbLine
 10
180.869000
 20
30.447900
 30
0.0
 11
168.386000
 21
24.087500
 31
0.0
  0
LINE
  5
2e5
100
AcDbEntity
  8
0
 62
7
100
AcDbLine
 10
168.386000
 20
24.087500
 30
0.0
 11
174.764600
 21
11.568900
 31
0.0
  0
LINE
  5
2e6
100
AcDbEntity
  8
0
 62
7
100
AcDbLine
 10
174.764600
 20
11.568900
 30
0.0
 11
187.247600
 21
17.929300
 31
0.0
  0
LINE
  5
2e7
100
AcDbEntity
  8
0
 62
7
100
AcDbLine
 10
187.247600
 20
17.929300
 30
0.0
 11
180.869000
 21
30.447900
 31
0.0
  0
LINE
  5
2e8
100
AcDbEntity
  8
0
 62
7
100
AcDbLine
 10
182.760400
 20
79.993700
 30
0.0
 11
170.277400
 21
73.633300
 31
0.0
  0
LINE
  5
2e9
100
AcDbEntity
  8
0
 62
7
100
AcDbLine
 10
170.277400
 20
73.633300
 30
0.0
 11
176.655900
 21
61.114700
 31
0.0
  0
LINE
  5
2ea
100
AcDbEntity
  8
0
 62
7
100
AcDbLine
 10
176.655900
 20
61.114700
 30
0.0
 11
189.138900
 21
67.475100
 31
0.0
  0
LINE
  5
2eb
100
AcDbEntity
  8
0
 62
7
100
AcDbLine
 10
189.138900
 20
67.475100
 30
0.0
 11
182.760400
 21
79.993700
 31
0.0
  0
LINE
  5
2ec
100
AcDbEntity
  8
0
 62
7
100
AcDbLine
 10
81.737900
 20
103.220400
 30
0.0
 11
69.254900
 21
109.580800
 31
0.0
  0
LINE
  5
2ed
100
AcDbEntity
  8
0
 62
7
100
AcDbLine
 10
69.254900
 20
109.580800
 30
0.0
 11
62.876400
 21
97.062100
 31
0.0
  0
LINE
  5
2ee
100
AcDbEntity
  8
0
 62
7
100
AcDbLine
 10
62.876400
 20
97.062100
 30
0.0
 11
75.359400
 21
90.701700
 31
0.0
  0
LINE
  5
2ef
100
AcDbEntity
  8
0
 62
7
100
AcDbLine
 10
75.359400
 20
90.701700
 30
0.0
 11
81.737900
 21
103.220400
 31
0.0
  0
LINE
  5
2f0
100
AcDbEntity
  8
0
 62
7
100
AcDbLine
 10
97.086000
 20
90.555700
 30
0.0
 11
84.603000
 21
96.916100
 31
0.0
  0
LINE
  5
2f1
100
AcDbEntity
  8
0
 62
7
100
AcDbLine
 10
84.603000
 20
96.916100
 30
0.0
 11
78.224500
 21
84.397500
 31
0.0
  0
LINE
  5
2f2
100
AcDbEntity
  8
0
 62
7
100
AcDbLine
 10
78.224500
 20
84.397500
 30
0.0
 11
90.707500
 21
78.037100
 31
0.0
  0
LINE
  5
2f3
100
AcDbEntity
  8
0
 62
7
100
AcDbLine
 10
90.707500
 20
78.037100
 30
0.0
 11
97.086000
 21
90.555700
 31
0.0
  0
LINE
  5
2f4
100
AcDbEntity
  8
0
 62
7
100
AcDbLine
 10
163.833500
 20
43.870600
 30
0.0
 11
151.350500
 21
37.510200
 31
0.0
  0
LINE
  5
2f5
100
AcDbEntity
  8
0
 62
7
100
AcDbLine
 10
151.350500
 20
37.510200
 30
0.0
 11
157.729100
 21
24.991500
 31
0.0
  0
LINE
  5
2f6
100
AcDbEntity
  8
0
 62
7
100
AcDbLine
 10
157.729100
 20
24.991500
 30
0.0
 11
170.212100
 21
31.351900
 31
0.0
  0
LINE
  5
2f7
100
AcDbEntity
  8
0
 62
7
100
AcDbLine
 10
170.212100
 20
31.351900
 30
0.0
 11
163.833500
 21
43.870600
 31
0.0
  0
LINE
  5
2f8
100
AcDbEntity
  8
0
 62
7
100
AcDbLine
 10
220.744500
 20
96.009700
 30
0.0
 11
207.754700
 21
90.761500
 31
0.0
  0
LINE
  5
2f9
100
AcDbEntity
  8
0
 62
7
100
AcDbLine
 10
207.754700
 20
90.761500
 30
0.0
 11
213.017900
 21
77.734600
 31
0.0
  0
LINE
  5
2fa
100
AcDbEntity
  8
0
 62
7
100
AcDbLine
 10
213.017900
 20
77.734600
 30
0.0
 11
226.007700
 21
82.982800
 31
0.0
  0
LINE
  5
2fb
100
AcDbEntity
  8
0
 62
7
100
AcDbLine
 10
226.007700
 20
82.982800
 30
0.0
 11
220.744500
 21
96.009700
 31
0.0
  0
LINE
  5
2fc
100
AcDbEntity
  8
0
 62
7
100
AcDbLine
 10
90.351600
 20
24.080800
 30
0.0
 11
77.868600
 21
30.441200
 31
0.0
  0
LINE
  5
2fd
100
AcDbEntity
  8
0
 62
7
100
AcDbLine
 10
77.868600
 20
30.441200
 30
0.0
 11
71.490000
 21
17.922500
 31
0.0
  0
LINE
  5
2fe
100
AcDbEntity
  8
0
 62
7
100
AcDbLine
 10
71.490000
 20
17.922500
 30
0.0
 11
83.973000
 21
11.562100
 31
0.0
  0
LINE
  5
2ff
100
AcDbEntity
  8
0
 62
7
100
AcDbLine
 10
83.973000
 20
11.562100
 30
0.0
 11
90.351600
 21
24.080800
 31
0.0
  0
LINE
  5
300
100
AcDbEntity
  8
0
 62
7
100
AcDbLine
 10
189.271700
 20
109.508400
 30
0.0
 11
176.788700
 21
103.148000
 31
0.0
  0
LINE
  5
301
100
AcDbEntity
  8
0
 62
7
100
AcDbLine
 10
176.788700
 20
103.148000
 30
0.0
 11
183.167300
 21
90.629300
 31
0.0
  0
LINE
  5
302
100
AcDbEntity
  8
0
 62
7
100
AcDbLine
 10
183.167300
 20
90.629300
 30
0.0
 11
195.650300
 21
96.989800
 31
0.0
  0
LINE
  5
303
100
AcDbEntity
  8
0
 62
7
100
AcDbLine
 10
195.650300
 20
96.989800
 30
0.0
 11
189.271700
 21
109.508400
 31
0.0
  0
LINE
  5
304
100
AcDbEntity
  8
0
 62
7
100
AcDbLine
 10
73.112100
 20
86.291200
 30
0.0
 11
60.629100
 21
92.651600
 31
0.0
  0
LINE
  5
305
100
AcDbEntity
  8
0
 62
7
100
AcDbLine
 10
60.629100
 20
92.651600
 30
0.0
 11
54.250500
 21
80.133000
 31
0.0
  0
LINE
  5
306
100
AcDbEntity
  8
0
 62
7
100
AcDbLine
 10
54.250500
 20
80.133000
 30
0.0
 11
66.733500
 21
73.772600
 31
0.0
  0
LINE
  5
307
100
AcDbEntity
  8
0
 62
7
100
AcDbLine
 10
66.733500
 20
73.772600
 30
0.0
 11
73.112100
 21
86.291200
 31
0.0
  0
LINE
  5
308
100
AcDbEntity
  8
0
 62
7
100
AcDbLine
 10
79.834400
 20
56.697500
 30
0.0
 11
67.351400
 21
63.057900
 31
0.0
  0
LINE
  5
309
100
AcDbEntity
  8
0
 62
7
100
AcDbLine
 10
67.351400
 20
63.057900
 30
0.0
 11
60.972800
 21
50.539200
 31
0.0
  0
LINE
  5
30a
100
AcDbEntity
  8
0
 62
7
100
AcDbLine
 10
60.972800
 20
50.539200
 30
0.0
 11
73.455800
 21
44.178800
 31
0.0
  0
LINE
  5
30b
100
AcDbEntity
  8
0
 62
7
100
AcDbLine
 10
73.455800
 20
44.178800
 30
0.0
 11
79.834400
 21
56.697500
 31
0.0
  0
LINE
  5
30c
100
AcDbEntity
  8
0
 62
7
100
AcDbLine
 10
244.810500
 20
92.633100
 30
0.0
 11
231.277900
 21
89.007100
 31
0.0
  0
LINE
  5
30d
100
AcDbEntity
  8
0
 62
7
100
AcDbLine
 10
231.277900
 20
89.007100
 30
0.0
 11
234.914300
 21
75.435800
 31
0.0
  0
LINE
  5
30e
100
AcDbEntity
  8
0
 62
7
100
AcDbLine
 10
234.914300
 20
75.435800
 30
0.0
 11
248.446900
 21
79.061900
 31
0.0
  0
LINE
  5
30f
100
AcDbEntity
  8
0
 62
7
100
AcDbLine
 10
248.446900
 20
79.061900
 30
0.0
 11
244.810500
 21
92.633100
 31
0.0
  0
LINE
  5
310
100
AcDbEntity
  8
0
 62
7
100
AcDbLine
 10
206.523400
 20
75.650100
 30
0.0
 11
194.040300
 21
69.289700
 31
0.0
  0
LINE
  5
311
100
AcDbEntity
  8
0
 62
7
100
AcDbLine
 10
194.040300
 20
69.289700
 30
0.0
 11
200.418900
 21
56.771100
 31
0.0
  0
LINE
  5
312
100
AcDbEntity
  8
0
 62
7
100
AcDbLine
 10
200.418900
 20
56.771100
 30
0.0
 11
212.901900
 21
63.131500
 31
0.0
  0
LINE
  5
313
100
AcDbEntity
  8
0
 62
7
100
AcDbLine
 10
212.901900
 20
63.131500
 30
0.0
 11
206.523400
 21
75.650100
 31
0.0
  0
LINE
  5
314
100
AcDbEntity
  8
0
 62
7
100
AcDbLine
 10
43.655000
 20
73.218500
 30
0.0
 11
30.665100
 21
78.466800
 31
0.0
  0
LINE
  5
315
100
AcDbEntity
  8
0
 62
7
100
AcDbLine
 10
30.665100
 20
78.466800
 30
0.0
 11
25.401900
 21
65.439800
 31
0.0
  0
LINE
  5
316
100
AcDbEntity
  8
0
 62
7
100
AcDbLine
 10
25.401900
 20
65.439800
 30
0.0
 11
38.391800
 21
60.191600
 31
0.0
  0
LINE
  5
317
100
AcDbEntity
  8
0
 62
7
100
AcDbLine
 10
38.391800
 20
60.191600
 30
0.0
 11
43.655000
 21
73.218500
 31
0.0
  0
LINE
  5
318
100
AcDbEntity
  8
0
 62
7
100
AcDbLine
 10
57.890000
 20
108.451500
 30
0.0
 11
44.900200
 21
113.699800
 31
0.0
  0
LINE
  5
319
100
AcDbEntity
  8
0
 62
7
100
AcDbLine
 10
44.900200
 20
113.699800
 30
0.0
 11
39.637000
 21
100.672800
 31
0.0
  0
LINE
  5
31a
100
AcDbEntity
  8
0
 62
7
100
AcDbLine
 10
39.637000
 20
100.672800
 30
0.0
 11
52.626800
 21
95.424600
 31
0.0
  0
LINE
  5
31b
100
AcDbEntity
  8
0
 62
7
100
AcDbLine
 10
52.626800
 20
95.424600
 30
0.0
 11
57.890000
 21
108.451500
 31
0.0
  0
LINE
  5
31c
100
AcDbEntity
  8
0
 62
7
100
AcDbLine
 10
75.078900
 20
36.938900
 30
0.0
 11
62.595900
 21
43.299300
 31
0.0
  0
LINE
  5
31d
100
AcDbEntity
  8
0
 62
7
100
AcDbLine
 10
62.595900
 20
43.299300
 30
0.0
 11
56.217300
 21
30.780600
 31
0.0
  0
LINE
  5
31e
100
AcDbEntity
  8
0
 62
7
100
AcDbLine
 10
56.217300
 20
30.780600
 30
0.0
 11
68.700300
 21
24.420200
 31
0.0
  0
LINE
  5
31f
100
AcDbEntity
  8
0
 62
7
100
AcDbLine
 10
68.700300
 20
24.420200
 30
0.0
 11
75.078900
 21
36.938900
 31
0.0
  0
LINE
  5
320
100
AcDbEntity
  8
0
 62
7
100
AcDbLine
 10
88.439700
 20
31.410000
 30
0.0
 11
100.922700
 21
25.049600
 31
0.0
  0
LINE
  5
321
100
AcDbEntity
  8
0
 62
7
100
AcDbLine
 10
100.922700
 20
25.049600
 30
0.0
 11
107.301200
 21
37.568300
 31
0.0
  0
LINE
  5
322
100
AcDbEntity
  8
0
 62
7
100
AcDbLine
 10
107.301200
 20
37.568300
 30
0.0
 11
94.818200
 21
43.928700
 31
0.0
  0
LINE
  5
323
100
AcDbEntity
  8
0
 62
7
100
AcDbLine
 10
94.818200
 20
43.928700
 30
0.0
 11
88.439700
 21
31.410000
 31
0.0
  0
LINE
  5
324
100
AcDbEntity
  8
0
 62
7
100
AcDbLine
 10
168.644200
 20
64.903400
 30
0.0
 11
156.161200
 21
58.543000
 31
0.0
  0
LINE
  5
325
100
AcDbEntity
  8
0
 62
7
100
AcDbLine
 10
156.161200
 20
58.543000
 30
0.0
 11
162.539700
 21
46.024300
 31
0.0
  0
LINE
  5
326
100
AcDbEntity
  8
0
 62
7
100
AcDbLine
 10
162.539700
 20
46.024300
 30
0.0
 11
175.022700
 21
52.384700
 31
0.0
  0
LINE
  5
327
100
AcDbEntity
  8
0
 62
7
100
AcDbLine
 10
175.022700
 20
52.384700
 30
0.0
 11
168.644200
 21
64.903400
 31
0.0
  0
LINE
  5
328
100
AcDbEntity
  8
0
 62
7
100
AcDbLine
 10
32.159600
 20
107.453100
 30
0.0
 11
18.627000
 21
111.079200
 31
0.0
  0
LINE
  5
329
100
AcDbEntity
  8
0
 62
7
100
AcDbLine
 10
18.627000
 20
111.079200
 30
0.0
 11
14.990600
 21
97.507900
 31
0.0
  0
LINE
  5
32a
100
AcDbEntity
  8
0
 62
7
100
AcDbLine
 10
14.990600
 20
97.507900
 30
0.0
 11
28.523200
 21
93.881900
 31
0.0
  0
LINE
  5
32b
100
AcDbEntity
  8
0
 62
7
100
AcDbLine
 10
28.523200
 20
93.881900
 30
0.0
 11
32.159600
 21
107.453100
 31
0.0
  0
LINE
  5
32c
100
AcDbEntity
  8
0
 62
7
100
AcDbLine
 10
64.486300
 20
69.362100
 30
0.0
 11
52.003300
 21
75.722500
 31
0.0
  0
LINE
  5
32d
100
AcDbEntity
  8
0
 62
7
100
AcDbLine
 10
52.003300
 20
75.722500
 30
0.0
 11
45.624700
 21
63.203900
 31
0.0
  0
LINE
  5
32e
100
AcDbEntity
  8
0
 62
7
100
AcDbLine
 10
45.624700
 20
63.203900
 30
0.0
 11
58.107700
 21
56.843500
 31
0.0
  0
LINE
  5
32f
100
AcDbEntity
  8
0
 62
7
100
AcDbLine
 10
58.107700
 20
56.843500
 30
0.0
 11
64.486300
 21
69.362100
 31
0.0
  0
LINE
  5
330
100
AcDbEntity
  8
0
 62
7
100
AcDbLine
 10
213.627000
 20
113.626200
 30
0.0
 11
200.637100
 21
108.378000
 31
0.0
  0
LINE
  5
331
100
AcDbEntity
  8
0
 62
7
100
AcDbLine
 10
200.637100
 20
108.378000
 30
0.0
 11
205.900400
 21
95.351100
 31
0.0
  0
LINE
  5
332
100
AcDbEntity
  8
0
 62
7
100
AcDbLine
 10
205.900400
 20
95.351100
 30
0.0
 11
218.890200
 21
100.599300
 31
0.0
  0
LINE
  5
333
100
AcDbEntity
  8
0
 62
7
100
AcDbLine
 10
218.890200
 20
100.599300
 30
0.0
 11
213.627000
 21
113.626200
 31
0.0
  0
LINE
  5
334
100
AcDbEntity
  8
0
 62
7
100
AcDbLine
 10
88.460200
 20
73.626600
 30
0.0
 11
75.977200
 21
79.987000
 31
0.0
  0
LINE
  5
335
100
AcDbEntity
  8
0
 62
7
100
AcDbLine
 10
75.977200
 20
79.987000
 30
0.0
 11
69.598700
 21
67.468400
 31
0.0
  0
LINE
  5
336
100
AcDbEntity
  8
0
 62
7
100
AcDbLine
 10
69.598700
 20
67.468400
 30
0.0
 11
82.081700
 21
61.108000
 31
0.0
  0
LINE
  5
337
100
AcDbEntity
  8
0
 62
7
100
AcDbLine
 10
82.081700
 20
61.108000
 30
0.0
 11
88.460200
 21
73.626600
 31
0.0
  0
LINE
  5
338
100
AcDbEntity
  8
0
 62
7
100
AcDbLine
 10
111.202300
 20
75.465300
 30
0.0
 11
98.719300
 21
81.825800
 31
0.0
  0
LINE
  5
339
100
AcDbEntity
  8
0
 62
7
100
AcDbLine
 10
98.719300
 20
81.825800
 30
0.0
 11
92.340700
 21
69.307100
 31
0.0
  0
LINE
  5
33a
100
AcDbEntity
  8
0
 62
7
100
AcDbLine
 10
92.340700
 20
69.307100
 30
0.0
 11
104.823700
 21
62.946700
 31
0.0
  0
LINE
  5
33b
100
AcDbEntity
  8
0
 62
7
100
AcDbLine
 10
104.823700
 20
62.946700
 30
0.0
 11
111.202300
 21
75.465300
 31
0.0
  0
LINE
  5
33c
100
AcDbEntity
  8
0
 62
7
100
AcDbLine
 10
160.018300
 20
81.832500
 30
0.0
 11
147.535300
 21
75.472100
 31
0.0
  0
LINE
  5
33d
100
AcDbEntity
  8
0
 62
7
100
AcDbLine
 10
147.535300
 20
75.472100
 30
0.0
 11
153.913900
 21
62.953400
 31
0.0
  0
LINE
  5
33e
100
AcDbEntity
  8
0
 62
7
100
AcDbLine
 10
153.913900
 20
62.953400
 30
0.0
 11
166.396900
 21
69.313800
 31
0.0
  0
LINE
  5
33f
100
AcDbEntity
  8
0
 62
7
100
AcDbLine
 10
166.396900
 20
69.313800
 30
0.0
 11
160.018300
 21
81.832500
 31
0.0
  0
LINE
  5
340
100
AcDbEntity
  8
0
 62
7
100
AcDbLine
 10
174.134600
 20
96.922900
 30
0.0
 11
161.651600
 21
90.562500
 31
0.0
  0
LINE
  5
341
100
AcDbEntity
  8
0
 62
7
100
AcDbLine
 10
161.651600
 20
90.562500
 30
0.0
 11
168.030100
 21
78.043800
 31
0.0
  0
LINE
  5
342
100
AcDbEntity
  8
0
 62
7
100
AcDbLine
 10
168.030100
 20
78.043800
 30
0.0
 11
180.513100
 21
84.404200
 31
0.0
  0
LINE
  5
343
100
AcDbEntity
  8
0
 62
7
100
AcDbLine
 10
180.513100
 20
84.404200
 30
0.0
 11
174.134600
 21
96.922900
 31
0.0
  0
LINE
  5
344
100
AcDbEntity
  8
0
 62
7
100
AcDbLine
 10
239.886700
 20
110.989000
 30
0.0
 11
226.354100
 21
107.362900
 31
0.0
  0
LINE
  5
345
100
AcDbEntity
  8
0
 62
7
100
AcDbLine
 10
226.354100
 20
107.362900
 30
0.0
 11
229.990500
 21
93.791700
 31
0.0
  0
LINE
  5
346
100
AcDbEntity
  8
0
 62
7
100
AcDbLine
 10
229.990500
 20
93.791700
 30
0.0
 11
243.523100
 21
97.417700
 31
0.0
  0
LINE
  5
347
100
AcDbEntity
  8
0
 62
7
100
AcDbLine
 10
243.523100
 20
97.417700
 30
0.0
 11
239.886700
 21
110.989000
 31
0.0
  0
LINE
  5
348
100
AcDbEntity
  8
0
 62
7
100
AcDbLine
 10
197.897500
 20
92.579300
 30
0.0
 11
185.414500
 21
86.218900
 31
0.0
  0
LINE
  5
349
100
AcDbEntity
  8
0
 62
7
100
AcDbLine
 10
185.414500
 20
86.218900
 30
0.0
 11
191.793100
 21
73.700200
 31
0.0
  0
LINE
  5
34a
100
AcDbEntity
  8
0
 62
7
100
AcDbLine
 10
191.793100
 20
73.700200
 30
0.0
 11
204.276100
 21
80.060600
 31
0.0
  0
LINE
  5
34b
100
AcDbEntity
  8
0
 62
7
100
AcDbLine
 10
204.276100
 20
80.060600
 30
0.0
 11
197.897500
 21
92.579300
 31
0.0
  0
LINE
  5
34c
100
AcDbEntity
  8
0
 62
7
100
AcDbLine
 10
227.862000
 20
78.393200
 30
0.0
 11
214.872200
 21
73.145000
 31
0.0
  0
LINE
  5
34d
100
AcDbEntity
  8
0
 62
7
100
AcDbLine
 10
214.872200
 20
73.145000
 30
0.0
 11
220.135400
 21
60.118100
 31
0.0
  0
LINE
  5
34e
100
AcDbEntity
  8
0
 62
7
100
AcDbLine
 10
220.135400
 20
60.118100
 30
0.0
 11
233.125300
 21
65.366300
 31
0.0
  0
LINE
  5
34f
100
AcDbEntity
  8
0
 62
7
100
AcDbLine
 10
233.125300
 20
65.366300
 30
0.0
 11
227.862000
 21
78.393200
 31
0.0
  0
LINE
  5
350
100
AcDbEntity
  8
0
 62
7
100
AcDbLine
 10
50.772800
 20
90.834600
 30
0.0
 11
37.783000
 21
96.082900
 31
0.0
  0
LINE
  5
351
100
AcDbEntity
  8
0
 62
7
100
AcDbLine
 10
37.783000
 20
96.082900
 30
0.0
 11
32.519700
 21
83.055900
 31
0.0
  0
LINE
  5
352
100
AcDbEntity
  8
0
 62
7
100
AcDbLine
 10
32.519700
 20
83.055900
 30
0.0
 11
45.509600
 21
77.807700
 31
0.0
  0
LINE
  5
353
100
AcDbEntity
  8
0
 62
7
100
AcDbLine
 10
45.509600
 20
77.807700
 30
0.0
 11
50.772800
 21
90.834600
 31
0.0
  0
LINE
  5
354
100
AcDbEntity
  8
0
 62
7
100
AcDbLine
 10
191.386200
 20
63.064600
 30
0.0
 11
178.903200
 21
56.704200
 31
0.0
  0
LINE
  5
355
100
AcDbEntity
  8
0
 62
7
100
AcDbLine
 10
178.903200
 20
56.704200
 30
0.0
 11
185.281800
 21
44.185600
 31
0.0
  0
LINE
  5
356
100
AcDbEntity
  8
0
 62
7
100
AcDbLine
 10
185.281800
 20
44.185600
 30
0.0
 11
197.764800
 21
50.546000
 31
0.0
  0
LINE
  5
357
100
AcDbEntity
  8
0
 62
7
100
AcDbLine
 10
197.764800
 20
50.546000
 30
0.0
 11
191.386200
 21
63.064600
 31
0.0
  0
LINE
  5
358
100
AcDbEntity
  8
0
 62
7
100
AcDbLine
 10
102.576400
 20
58.536200
 30
0.0
 11
90.093400
 21
64.896600
 31
0.0
  0
LINE
  5
359
100
AcDbEntity
  8
0
 62
7
100
AcDbLine
 10
90.093400
 20
64.896600
 30
0.0
 11
83.714900
 21
52.378000
 31
0.0
  0
LINE
  5
35a
100
AcDbEntity
  8
0
 62
7
100
AcDbLine
 10
83.714900
 20
52.378000
 30
0.0
 11
96.197900
 21
46.017600
 31
0.0
  0
LINE
  5
35b
100
AcDbEntity
  8
0
 62
7
100
AcDbLine
 10
96.197900
 20
46.017600
 30
0.0
 11
102.576400
 21
58.536200
 31
0.0
  0
ENDSEC
  0
SECTION
  2
OBJECTS
  0
DICTIONARY
  5
C
330
0
100
AcDbDictionary
  3
ACAD_GROUP
350
D
  3
ACAD_MLINESTYLE
350
17
  0
DICTIONARY
  5
D
330
C
100
AcDbDictionary
  0
DICTIONARY
  5
1A
330
C
100
AcDbDictionary
  0
DICTIONARY
  5
17
330
C
100
AcDbDictionary
  3
STANDARD
350
18
  0
DICTIONARY
  5
19
330
C
100
AcDbDictionary
  0
ENDSEC
  0
EOF
