  0
SECTION
  2
HEADER
  9
$ACADVER
  1
AC1014
  9
$HANDSEED
  5
FFFF
  9
$INSUNITS
 70
     5
  9
$MEASUREMENT
 70
     1
  0
ENDSEC
  0
SECTION
  2
TABLES
  0
TABLE
  2
VPORT
  5
8
330
0
100
AcDbSymbolTable
 70
     4
  0
VPORT
  5
2E
330
8
100
AcDbSymbolTableRecord
100
AcDbViewportTableRecord
  2
*ACTIVE
 70
     0
 10
0.0
 20
0.0
 11
1.0
 21
1.0
 12
210.0
 22
148.5
 13
0.0
 23
0.0
 14
10.0
 24
10.0
 15
10.0
 25
10.0
 16
0.0
 26
0.0
 36
1.0
 17
0.0
 27
0.0
 37
0.0
 40
341.0
 41
1.24
 42
50.0
 43
0.0
 44
0.0
 50
0.0
 51
0.0
 71
     0
 72
   100
 73
     1
 74
     3
 75
     0
 76
     0
 77
     0
 78
     0
  0
ENDTAB
  0
TABLE
  2
LTYPE
  5
5
330
0
100
AcDbSymbolTable
 70
     1
  0
LTYPE
  5
14
330
5
100
AcDbSymbolTableRecord
100
AcDbLinetypeTableRecord
  2
BYBLOCK
 70
     0
  3

 72
    65
 73
     0
 40
0.0
  0
LTYPE
  5
15
330
5
100
AcDbSymbolTableRecord
100
AcDbLinetypeTableRecord
  2
BYLAYER
 70
     0
  3

 72
    65
 73
     0
 40
0.0
  0
LTYPE
  5
16
330
5
100
AcDbSymbolTableRecord
100
AcDbLinetypeTableRecord
  2
CONTINUOUS
 70
     0
  3
Solid line
 72
    65
 73
     0
 40
0.0
  0
ENDTAB
  0
TABLE
  2
LAYER
  5
2
100
AcDbSymbolTable
 70
1
  0
LAYER
  5
50
100
AcDbSymbolTableRecord
100
AcDbLayerTableRecord
  2
0
 70
0
  6
CONTINUOUS
  0
ENDTAB
  0
TABLE
  2
STYLE
  5
3
330
0
100
AcDbSymbolTable
 70
     1
  0
STYLE
  5
11
330
3
100
AcDbSymbolTableRecord
100
AcDbTextStyleTableRecord
  2
STANDARD
 70
     0
 40
0.0
 41
1.0
 50
0.0
 71
     0
 42
2.5
  3
txt
  4

  0
ENDTAB
  0
TABLE
  2
VIEW
  5
6
330
0
100
AcDbSymbolTable
 70
     0
  0
ENDTAB
  0
TABLE
  2
UCS
  5
7
330
0
100
AcDbSymbolTable
 70
     0
  0
ENDTAB
  0
TABLE
  2
APPID
  5
9
330
0
100
AcDbSymbolTable
 70
     2
  0
APPID
  5
12
330
9
100
AcDbSymbolTableRecord
100
AcDbRegAppTableRecord
  2
ACAD
 70
     0
  0
ENDTAB
  0
TABLE
  2
DIMSTYLE
  5
A
330
0
100
AcDbSymbolTable
 70
     1
  0
DIMSTYLE
105
27
330
A
100
AcDbSymbolTableRecord
100
AcDbDimStyleTableRecord
  2
ISO-25
 70
     0
  3

  4

  5

  6

  7

 40
1.0
 41
2.5
 42
0.625
 43
3.75
 44
1.25
 45
0.0
 46
0.0
 47
0.0
 48
0.0
140
2.5
141
2.5
142
0.0
143
0.03937007874016
144
1.0
145
0.0
146
1.0
147
0.625
 71
     0
 72
     0
 73
     0
 74
     0
 75
     0
 76
     0
 77
     1
 78
     8
170
     0
171
     3
172
     1
173
     0
174
     0
175
     0
176
     0
177
     0
178
     0
270
     2
271
     2
272
     2
273
     2
274
     3
340
11
275
     0
280
     0
281
     0
282
     0
283
     0
284
     8
285
     0
286
     0
287
     3
288
     0
  0
ENDTAB
  0
TABLE
  2
BLOCK_RECORD
  5
1
330
0
100
AcDbSymbolTable
 70
     1
  0
BLOCK_RECORD
  5
1F
330
1
100
AcDbSymbolTableRecord
100
AcDbBlockTableRecord
  2
*MODEL_SPACE
  0
BLOCK_RECORD
  5
1B
330
1
100
AcDbSymbolTableRecord
100
AcDbBlockTableRecord
  2
*PAPER_SPACE
  0
ENDTAB
  0
ENDSEC
  0
SECTION
  2
BLOCKS
  0
BLOCK
  5
20
330
1F
100
AcDbEntity
  8
0
100
AcDbBlockBegin
  2
*MODEL_SPACE
 70
     0
 10
0.0
 20
0.0
 30
0.0
  3
*MODEL_SPACE
  1

  0
ENDBLK
  5
21
330
1F
100
AcDbEntity
  8
0
100
AcDbBlockEnd
  0
BLOCK
  5
1C
330
1B
100
AcDbEntity
 67
     1
  8
0
100
AcDbBlockBegin
  2
*PAPER_SPACE
  1

  0
ENDBLK
  5
1D
330
1B
100
AcDbEntity
 67
     1
  8
0
100
AcDbBlockEnd
  0
ENDSEC
  0
SECTION
  2
ENTITIES
  0
LINE
  5
100
100
AcDbEntity
  8
0
 62
7
100
AcDbLine
 10
1.194916
 20
9.577065
 30
0.0
 11
3.030175
 21
9.085309
 31
0.0
  0
LINE
  5
101
100
AcDbEntity
  8
0
 62
7
100
AcDbLine
 10
3.030175
 20
9.085309
 30
0.0
 11
2.538419
 21
7.250050
 31
0.0
  0
LINE
  5
102
100
AcDbEntity
  8
0
 62
7
100
AcDbLine
 10
0.703160
 20
7.741806
 30
0.0
 11
1.194916
 21
9.577065
 31
0.0
  0
LINE
  5
103
100
AcDbEntity
  8
0
 62
7
100
AcDbLine
 10
0.703160
 20
7.741806
 30
0.0
 11
2.538419
 21
7.250050
 31
0.0
  0
LINE
  5
104
100
AcDbEntity
  8
0
 62
7
100
AcDbLine
 10
18.029621
 20
3.803815
 30
0.0
 11
19.722534
 21
4.666397
 31
0.0
  0
LINE
  5
105
100
AcDbEntity
  8
0
 62
7
100
AcDbLine
 10
19.722534
 20
4.666397
 30
0.0
 11
20.585116
 21
2.973485
 31
0.0
  0
LINE
  5
106
100
AcDbEntity
  8
0
 62
7
100
AcDbLine
 10
18.892203
 20
2.110903
 30
0.0
 11
18.029621
 21
3.803815
 31
0.0
  0
LINE
  5
107
100
AcDbEntity
  8
0
 62
7
100
AcDbLine
 10
18.892203
 20
2.110903
 30
0.0
 11
20.585116
 21
2.973485
 31
0.0
  0
LINE
  5
108
100
AcDbEntity
  8
0
 62
7
100
AcDbLine
 10
16.502354
 20
2.518005
 30
0.0
 11
18.195267
 21
3.380587
 31
0.0
  0
LINE
  5
109
100
AcDbEntity
  8
0
 62
7
100
AcDbLine
 10
18.195267
 20
3.380587
 30
0.0
 11
19.057849
 21
1.687675
 31
0.0
  0
LINE
  5
10a
100
AcDbEntity
  8
0
 62
7
100
AcDbLine
 10
17.364936
 20
0.825093
 30
0.0
 11
16.502354
 21
2.518005
 31
0.0
  0
LINE
  5
10b
100
AcDbEntity
  8
0
 62
7
100
AcDbLine
 10
17.364936
 20
0.825093
 30
0.0
 11
19.057849
 21
1.687675
 31
0.0
  0
LINE
  5
10c
100
AcDbEntity
  8
0
 62
7
100
AcDbLine
 10
16.691488
 20
7.472588
 30
0.0
 11
18.384401
 21
8.335170
 31
0.0
  0
LINE
  5
10d
100
AcDbEntity
  8
0
 62
7
100
AcDbLine
 10
18.384401
 20
8.335170
 30
0.0
 11
19.246983
 21
6.642257
 31
0.0
  0
LINE
  5
10e
100
AcDbEntity
  8
0
 62
7
100
AcDbLine
 10
17.554070
 20
5.779675
 30
0.0
 11
16.691488
 21
7.472588
 31
0.0
  0
LINE
  5
10f
100
AcDbEntity
  8
0
 62
7
100
AcDbLine
 10
17.554070
 20
5.779675
 30
0.0
 11
19.246983
 21
6.642257
 31
0.0
  0
LINE
  5
110
100
AcDbEntity
  8
0
 62
7
100
AcDbLine
 10
6.816239
 20
11.294325
 30
0.0
 11
8.509151
 21
10.431743
 31
0.0
  0
LINE
  5
111
100
AcDbEntity
  8
0
 62
7
100
AcDbLine
 10
8.509151
 20
10.431743
 30
0.0
 11
7.646569
 21
8.738831
 31
0.0
  0
LINE
  5
112
100
AcDbEntity
  8
0
 62
7
100
AcDbLine
 10
5.953657
 20
9.601413
 30
0.0
 11
6.816239
 21
11.294325
 31
0.0
  0
LINE
  5
113
100
AcDbEntity
  8
0
 62
7
100
AcDbLine
 10
5.953657
 20
9.601413
 30
0.0
 11
7.646569
 21
8.738831
 31
0.0
  0
LINE
  5
114
100
AcDbEntity
  8
0
 62
7
100
AcDbLine
 10
8.351050
 20
10.027863
 30
0.0
 11
10.043963
 21
9.165281
 31
0.0
  0
LINE
  5
115
100
AcDbEntity
  8
0
 62
7
100
AcDbLine
 10
10.043963
 20
9.165281
 30
0.0
 11
9.181381
 21
7.472369
 31
0.0
  0
LINE
  5
116
100
AcDbEntity
  8
0
 62
7
100
AcDbLine
 10
7.488468
 20
8.334951
 30
0.0
 11
8.351050
 21
10.027863
 31
0.0
  0
LINE
  5
117
100
AcDbEntity
  8
0
 62
7
100
AcDbLine
 10
7.488468
 20
8.334951
 30
0.0
 11
9.181381
 21
7.472369
 31
0.0
  0
LINE
  5
118
100
AcDbEntity
  8
0
 62
7
100
AcDbLine
 10
14.798800
 20
3.860271
 30
0.0
 11
16.491712
 21
4.722853
 31
0.0
  0
LINE
  5
119
100
AcDbEntity
  8
0
 62
7
100
AcDbLine
 10
16.491712
 20
4.722853
 30
0.0
 11
17.354294
 21
3.029941
 31
0.0
  0
LINE
  5
11a
100
AcDbEntity
  8
0
 62
7
100
AcDbLine
 10
15.661382
 20
2.167359
 30
0.0
 11
14.798800
 21
3.860271
 31
0.0
  0
LINE
  5
11b
100
AcDbEntity
  8
0
 62
7
100
AcDbLine
 10
15.661382
 20
2.167359
 30
0.0
 11
17.354294
 21
3.029941
 31
0.0
  0
LINE
  5
11c
100
AcDbEntity
  8
0
 62
7
100
AcDbLine
 10
20.450019
 20
9.214293
 30
0.0
 11
22.211668
 21
9.926046
 31
0.0
  0
LINE
  5
11d
100
AcDbEntity
  8
0
 62
7
100
AcDbLine
 10
22.211668
 20
9.926046
 30
0.0
 11
22.923421
 21
8.164397
 31
0.0
  0
LINE
  5
11e
100
AcDbEntity
  8
0
 62
7
100
AcDbLine
 10
21.161771
 20
7.452644
 30
0.0
 11
20.450019
 21
9.214293
 31
0.0
  0
LINE
  5
11f
100
AcDbEntity
  8
0
 62
7
100
AcDbLine
 10
21.161771
 20
7.452644
 30
0.0
 11
22.923421
 21
8.164397
 31
0.0
  0
LINE
  5
120
100
AcDbEntity
  8
0
 62
7
100
AcDbLine
 10
7.677602
 20
3.380368
 30
0.0
 11
9.370515
 21
2.517786
 31
0.0
  0
LINE
  5
121
100
AcDbEntity
  8
0
 62
7
100
AcDbLine
 10
9.370515
 20
2.517786
 30
0.0
 11
8.507933
 21
0.824874
 31
0.0
  0
LINE
  5
122
100
AcDbEntity
  8
0
 62
7
100
AcDbLine
 10
6.815020
 20
1.687456
 30
0.0
 11
7.677602
 21
3.380368
 31
0.0
  0
LINE
  5
123
100
AcDbEntity
  8
0
 62
7
100
AcDbLine
 10
6.815020
 20
1.687456
 30
0.0
 11
8.507933
 21
0.824874
 31
0.0
  0
LINE
  5
124
100
AcDbEntity
  8
0
 62
7
100
AcDbLine
 10
17.342622
 20
10.424053
 30
0.0
 11
19.035534
 21
11.286635
 31
0.0
  0
LINE
  5
125
100
AcDbEntity
  8
0
 62
7
100
AcDbLine
 10
19.035534
 20
11.286635
 30
0.0
 11
19.898116
 21
9.593723
 31
0.0
  0
LINE
  5
126
100
AcDbEntity
  8
0
 62
7
100
AcDbLine
 10
18.205204
 20
8.731141
 30
0.0
 11
17.342622
 21
10.424053
 31
0.0
  0
LINE
  5
127
100
AcDbEntity
  8
0
 62
7
100
AcDbLine
 10
18.205204
 20
8.731141
 30
0.0
 11
19.898116
 21
9.593723
 31
0.0
  0
LINE
  5
128
100
AcDbEntity
  8
0
 62
7
100
AcDbLine
 10
5.953657
 20
9.601413
 30
0.0
 11
7.646569
 21
8.738831
 31
0.0
  0
LINE
  5
129
100
AcDbEntity
  8
0
 62
7
100
AcDbLine
 10
7.646569
 20
8.738831
 30
0.0
 11
6.783987
 21
7.045918
 31
0.0
  0
LINE
  5
12a
100
AcDbEntity
  8
0
 62
7
100
AcDbLine
 10
5.091075
 20
7.908500
 30
0.0
 11
5.953657
 21
9.601413
 31
0.0
  0
LINE
  5
12b
100
AcDbEntity
  8
0
 62
7
100
AcDbLine
 10
5.091075
 20
7.908500
 30
0.0
 11
6.783987
 21
7.045918
 31
0.0
  0
LINE
  5
12c
100
AcDbEntity
  8
0
 62
7
100
AcDbLine
 10
6.625886
 20
6.642038
 30
0.0
 11
8.318799
 21
5.779456
 31
0.0
  0
LINE
  5
12d
100
AcDbEntity
  8
0
 62
7
100
AcDbLine
 10
8.318799
 20
5.779456
 30
0.0
 11
7.456217
 21
4.086544
 31
0.0
  0
LINE
  5
12e
100
AcDbEntity
  8
0
 62
7
100
AcDbLine
 10
5.763304
 20
4.949126
 30
0.0
 11
6.625886
 21
6.642038
 31
0.0
  0
LINE
  5
12f
100
AcDbEntity
  8
0
 62
7
100
AcDbLine
 10
5.763304
 20
4.949126
 30
0.0
 11
7.456217
 21
4.086544
 31
0.0
  0
LINE
  5
130
100
AcDbEntity
  8
0
 62
7
100
AcDbLine
 10
22.821605
 20
9.077484
 30
0.0
 11
24.656864
 21
9.569240
 31
0.0
  0
LINE
  5
131
100
AcDbEntity
  8
0
 62
7
100
AcDbLine
 10
24.656864
 20
9.569240
 30
0.0
 11
25.148620
 21
7.733981
 31
0.0
  0
LINE
  5
132
100
AcDbEntity
  8
0
 62
7
100
AcDbLine
 10
23.313361
 20
7.242225
 30
0.0
 11
22.821605
 21
9.077484
 31
0.0
  0
LINE
  5
133
100
AcDbEntity
  8
0
 62
7
100
AcDbLine
 10
23.313361
 20
7.242225
 30
0.0
 11
25.148620
 21
7.733981
 31
0.0
  0
LINE
  5
134
100
AcDbEntity
  8
0
 62
7
100
AcDbLine
 10
19.067786
 20
7.038228
 30
0.0
 11
20.760698
 21
7.900810
 31
0.0
  0
LINE
  5
135
100
AcDbEntity
  8
0
 62
7
100
AcDbLine
 10
20.760698
 20
7.900810
 30
0.0
 11
21.623280
 21
6.207898
 31
0.0
  0
LINE
  5
136
100
AcDbEntity
  8
0
 62
7
100
AcDbLine
 10
19.930368
 20
5.345316
 30
0.0
 11
19.067786
 21
7.038228
 31
0.0
  0
LINE
  5
137
100
AcDbEntity
  8
0
 62
7
100
AcDbLine
 10
19.930368
 20
5.345316
 30
0.0
 11
21.623280
 21
6.207898
 31
0.0
  0
LINE
  5
138
100
AcDbEntity
  8
0
 62
7
100
AcDbLine
 10
2.928370
 20
8.172125
 30
0.0
 11
4.690019
 21
7.460372
 31
0.0
  0
LINE
  5
139
100
AcDbEntity
  8
0
 62
7
100
AcDbLine
 10
4.690019
 20
7.460372
 30
0.0
 11
3.978267
 21
5.698723
 31
0.0
  0
LINE
  5
13a
100
AcDbEntity
  8
0
 62
7
100
AcDbLine
 10
2.216617
 20
6.410476
 30
0.0
 11
2.928370
 21
8.172125
 31
0.0
  0
LINE
  5
13b
100
AcDbEntity
  8
0
 62
7
100
AcDbLine
 10
2.216617
 20
6.410476
 30
0.0
 11
3.978267
 21
5.698723
 31
0.0
  0
LINE
  5
13c
100
AcDbEntity
  8
0
 62
7
100
AcDbLine
 10
4.351875
 20
11.695424
 30
0.0
 11
6.113524
 21
10.983671
 31
0.0
  0
LINE
  5
13d
100
AcDbEntity
  8
0
 62
7
100
AcDbLine
 10
6.113524
 20
10.983671
 30
0.0
 11
5.401772
 21
9.222022
 31
0.0
  0
LINE
  5
13e
100
AcDbEntity
  8
0
 62
7
100
AcDbLine
 10
3.640122
 20
9.933774
 30
0.0
 11
4.351875
 21
11.695424
 31
0.0
  0
LINE
  5
13f
100
AcDbEntity
  8
0
 62
7
100
AcDbLine
 10
3.640122
 20
9.933774
 30
0.0
 11
5.401772
 21
9.222022
 31
0.0
  0
LINE
  5
140
100
AcDbEntity
  8
0
 62
7
100
AcDbLine
 10
6.150335
 20
4.666178
 30
0.0
 11
7.843248
 21
3.803596
 31
0.0
  0
LINE
  5
141
100
AcDbEntity
  8
0
 62
7
100
AcDbLine
 10
7.843248
 20
3.803596
 30
0.0
 11
6.980666
 21
2.110684
 31
0.0
  0
LINE
  5
142
100
AcDbEntity
  8
0
 62
7
100
AcDbLine
 10
5.287753
 20
2.973266
 30
0.0
 11
6.150335
 21
4.666178
 31
0.0
  0
LINE
  5
143
100
AcDbEntity
  8
0
 62
7
100
AcDbLine
 10
5.287753
 20
2.973266
 30
0.0
 11
6.980666
 21
2.110684
 31
0.0
  0
LINE
  5
144
100
AcDbEntity
  8
0
 62
7
100
AcDbLine
 10
10.201521
 20
2.168714
 30
0.0
 11
8.508609
 21
3.031296
 31
0.0
  0
LINE
  5
145
100
AcDbEntity
  8
0
 62
7
100
AcDbLine
 10
8.508609
 20
3.031296
 30
0.0
 11
9.371191
 21
4.724209
 31
0.0
  0
LINE
  5
146
100
AcDbEntity
  8
0
 62
7
100
AcDbLine
 10
11.064103
 20
3.861627
 30
0.0
 11
10.201521
 21
2.168714
 31
0.0
  0
LINE
  5
147
100
AcDbEntity
  8
0
 62
7
100
AcDbLine
 10
11.064103
 20
3.861627
 30
0.0
 11
9.371191
 21
4.724209
 31
0.0
  0
LINE
  5
148
100
AcDbEntity
  8
0
 62
7
100
AcDbLine
 10
15.279867
 20
5.963549
 30
0.0
 11
16.972779
 21
6.826131
 31
0.0
  0
LINE
  5
149
100
AcDbEntity
  8
0
 62
7
100
AcDbLine
 10
16.972779
 20
6.826131
 30
0.0
 11
17.835361
 21
5.133219
 31
0.0
  0
LINE
  5
14a
100
AcDbEntity
  8
0
 62
7
100
AcDbLine
 10
16.142449
 20
4.270637
 30
0.0
 11
15.279867
 21
5.963549
 31
0.0
  0
LINE
  5
14b
100
AcDbEntity
  8
0
 62
7
100
AcDbLine
 10
16.142449
 20
4.270637
 30
0.0
 11
17.835361
 21
5.133219
 31
0.0
  0
LINE
  5
14c
100
AcDbEntity
  8
0
 62
7
100
AcDbLine
 10
1.685921
 20
11.414104
 30
0.0
 11
3.521180
 21
10.922348
 31
0.0
  0
LINE
  5
14d
100
AcDbEntity
  8
0
 62
7
100
AcDbLine
 10
3.521180
 20
10.922348
 30
0.0
 11
3.029424
 21
9.087089
 31
0.0
  0
LINE
  5
14e
100
AcDbEntity
  8
0
 62
7
100
AcDbLine
 10
1.194165
 20
9.578845
 30
0.0
 11
1.685921
 21
11.414104
 31
0.0
  0
LINE
  5
14f
100
AcDbEntity
  8
0
 62
7
100
AcDbLine
 10
1.194165
 20
9.578845
 30
0.0
 11
3.029424
 21
9.087089
 31
0.0
  0
LINE
  5
150
100
AcDbEntity
  8
0
 62
7
100
AcDbLine
 10
5.091075
 20
7.908500
 30
0.0
 11
6.783987
 21
7.045918
 31
0.0
  0
LINE
  5
151
100
AcDbEntity
  8
0
 62
7
100
AcDbLine
 10
6.783987
 20
7.045918
 30
0.0
 11
5.921405
 21
5.353006
 31
0.0
  0
LINE
  5
152
100
AcDbEntity
  8
0
 62
7
100
AcDbLine
 10
4.228493
 20
6.215588
 30
0.0
 11
5.091075
 21
7.908500
 31
0.0
  0
LINE
  5
153
100
AcDbEntity
  8
0
 62
7
100
AcDbLine
 10
4.228493
 20
6.215588
 30
0.0
 11
5.921405
 21
5.353006
 31
0.0
  0
LINE
  5
154
100
AcDbEntity
  8
0
 62
7
100
AcDbLine
 10
19.738266
 20
10.975943
 30
0.0
 11
21.499916
 21
11.687695
 31
0.0
  0
LINE
  5
155
100
AcDbEntity
  8
0
 62
7
100
AcDbLine
 10
21.499916
 20
11.687695
 30
0.0
 11
22.211668
 21
9.926046
 31
0.0
  0
LINE
  5
156
100
AcDbEntity
  8
0
 62
7
100
AcDbLine
 10
20.450019
 20
9.214294
 30
0.0
 11
19.738266
 21
10.975943
 31
0.0
  0
LINE
  5
157
100
AcDbEntity
  8
0
 62
7
100
AcDbLine
 10
20.450019
 20
9.214294
 30
0.0
 11
22.211668
 21
9.926046
 31
0.0
  0
LINE
  5
158
100
AcDbEntity
  8
0
 62
7
100
AcDbLine
 10
7.488468
 20
8.334951
 30
0.0
 11
9.181381
 21
7.472369
 31
0.0
  0
LINE
  5
159
100
AcDbEntity
  8
0
 62
7
100
AcDbLine
 10
9.181381
 20
7.472369
 30
0.0
 11
8.318799
 21
5.779456
 31
0.0
  0
LINE
  5
15a
100
AcDbEntity
  8
0
 62
7
100
AcDbLine
 10
6.625886
 20
6.642038
 30
0.0
 11
7.488468
 21
8.334951
 31
0.0
  0
LINE
  5
15b
100
AcDbEntity
  8
0
 62
7
100
AcDbLine
 10
6.625886
 20
6.642038
 30
0.0
 11
8.318799
 21
5.779456
 31
0.0
  0
LINE
  5
15c
100
AcDbEntity
  8
0
 62
7
100
AcDbLine
 10
9.762672
 20
8.518825
 30
0.0
 11
11.455584
 21
7.656243
 31
0.0
  0
LINE
  5
15d
100
AcDbEntity
  8
0
 62
7
100
AcDbLine
 10
11.455584
 20
7.656243
 30
0.0
 11
10.593002
 21
5.963330
 31
0.0
  0
LINE
  5
15e
100
AcDbEntity
  8
0
 62
7
100
AcDbLine
 10
8.900090
 20
6.825912
 30
0.0
 11
9.762672
 21
8.518825
 31
0.0
  0
LINE
  5
15f
100
AcDbEntity
  8
0
 62
7
100
AcDbLine
 10
8.900090
 20
6.825912
 30
0.0
 11
10.593002
 21
5.963330
 31
0.0
  0
LINE
  5
160
100
AcDbEntity
  8
0
 62
7
100
AcDbLine
 10
14.417285
 20
7.656462
 30
0.0
 11
16.110197
 21
8.519044
 31
0.0
  0
LINE
  5
161
100
AcDbEntity
  8
0
 62
7
100
AcDbLine
 10
16.110197
 20
8.519044
 30
0.0
 11
16.972779
 21
6.826131
 31
0.0
  0
LINE
  5
162
100
AcDbEntity
  8
0
 62
7
100
AcDbLine
 10
15.279867
 20
5.963549
 30
0.0
 11
14.417285
 21
7.656462
 31
0.0
  0
LINE
  5
163
100
AcDbEntity
  8
0
 62
7
100
AcDbLine
 10
15.279867
 20
5.963549
 30
0.0
 11
16.972779
 21
6.826131
 31
0.0
  0
LINE
  5
164
100
AcDbEntity
  8
0
 62
7
100
AcDbLine
 10
15.828906
 20
9.165500
 30
0.0
 11
17.521819
 21
10.028082
 31
0.0
  0
LINE
  5
165
100
AcDbEntity
  8
0
 62
7
100
AcDbLine
 10
17.521819
 20
10.028082
 30
0.0
 11
18.384401
 21
8.335170
 31
0.0
  0
LINE
  5
166
100
AcDbEntity
  8
0
 62
7
100
AcDbLine
 10
16.691488
 20
7.472588
 30
0.0
 11
15.828906
 21
9.165500
 31
0.0
  0
LINE
  5
167
100
AcDbEntity
  8
0
 62
7
100
AcDbLine
 10
16.691488
 20
7.472588
 30
0.0
 11
18.384401
 21
8.335170
 31
0.0
  0
LINE
  5
168
100
AcDbEntity
  8
0
 62
7
100
AcDbLine
 10
22.329222
 20
10.913072
 30
0.0
 11
24.164481
 21
11.404828
 31
0.0
  0
LINE
  5
169
100
AcDbEntity
  8
0
 62
7
100
AcDbLine
 10
24.164481
 20
11.404828
 30
0.0
 11
24.656238
 21
9.569569
 31
0.0
  0
LINE
  5
16a
100
AcDbEntity
  8
0
 62
7
100
AcDbLine
 10
22.820979
 20
9.077813
 30
0.0
 11
22.329222
 21
10.913072
 31
0.0
  0
LINE
  5
16b
100
AcDbEntity
  8
0
 62
7
100
AcDbLine
 10
22.820979
 20
9.077813
 30
0.0
 11
24.656238
 21
9.569569
 31
0.0
  0
LINE
  5
16c
100
AcDbEntity
  8
0
 62
7
100
AcDbLine
 10
18.205204
 20
8.731141
 30
0.0
 11
19.898116
 21
9.593723
 31
0.0
  0
LINE
  5
16d
100
AcDbEntity
  8
0
 62
7
100
AcDbLine
 10
19.898116
 20
9.593723
 30
0.0
 11
20.760698
 21
7.900810
 31
0.0
  0
LINE
  5
16e
100
AcDbEntity
  8
0
 62
7
100
AcDbLine
 10
19.067786
 20
7.038228
 30
0.0
 11
18.205204
 21
8.731141
 31
0.0
  0
LINE
  5
16f
100
AcDbEntity
  8
0
 62
7
100
AcDbLine
 10
19.067786
 20
7.038228
 30
0.0
 11
20.760698
 21
7.900810
 31
0.0
  0
LINE
  5
170
100
AcDbEntity
  8
0
 62
7
100
AcDbLine
 10
21.161771
 20
7.452644
 30
0.0
 11
22.923421
 21
8.164397
 31
0.0
  0
LINE
  5
171
100
AcDbEntity
  8
0
 62
7
100
AcDbLine
 10
22.923421
 20
8.164397
 30
0.0
 11
23.635173
 21
6.402747
 31
0.0
  0
LINE
  5
172
100
AcDbEntity
  8
0
 62
7
100
AcDbLine
 10
21.873524
 20
5.690995
 30
0.0
 11
21.161771
 21
7.452644
 31
0.0
  0
LINE
  5
173
100
AcDbEntity
  8
0
 62
7
100
AcDbLine
 10
21.873524
 20
5.690995
 30
0.0
 11
23.635173
 21
6.402747
 31
0.0
  0
LINE
  5
174
100
AcDbEntity
  8
0
 62
7
100
AcDbLine
 10
3.640151
 20
9.933734
 30
0.0
 11
5.401801
 21
9.221981
 31
0.0
  0
LINE
  5
175
100
AcDbEntity
  8
0
 62
7
100
AcDbLine
 10
5.401801
 20
9.221981
 30
0.0
 11
4.690048
 21
7.460332
 31
0.0
  0
LINE
  5
176
100
AcDbEntity
  8
0
 62
7
100
AcDbLine
 10
2.928399
 20
8.172084
 30
0.0
 11
3.640151
 21
9.933734
 31
0.0
  0
LINE
  5
177
100
AcDbEntity
  8
0
 62
7
100
AcDbLine
 10
2.928399
 20
8.172084
 30
0.0
 11
4.690048
 21
7.460332
 31
0.0
  0
LINE
  5
178
100
AcDbEntity
  8
0
 62
7
100
AcDbLine
 10
17.554070
 20
5.779675
 30
0.0
 11
19.246983
 21
6.642257
 31
0.0
  0
LINE
  5
179
100
AcDbEntity
  8
0
 62
7
100
AcDbLine
 10
19.246983
 20
6.642257
 30
0.0
 11
20.109565
 21
4.949345
 31
0.0
  0
LINE
  5
17a
100
AcDbEntity
  8
0
 62
7
100
AcDbLine
 10
18.416652
 20
4.086763
 30
0.0
 11
17.554070
 21
5.779675
 31
0.0
  0
LINE
  5
17b
100
AcDbEntity
  8
0
 62
7
100
AcDbLine
 10
18.416652
 20
4.086763
 30
0.0
 11
20.109565
 21
4.949345
 31
0.0
  0
LINE
  5
17c
100
AcDbEntity
  8
0
 62
7
100
AcDbLine
 10
8.900090
 20
6.825912
 30
0.0
 11
10.593002
 21
5.963330
 31
0.0
  0
LINE
  5
17d
100
AcDbEntity
  8
0
 62
7
100
AcDbLine
 10
10.593002
 20
5.963330
 30
0.0
 11
9.730420
 21
4.270418
 31
0.0
  0
LINE
  5
17e
100
AcDbEntity
  8
0
 62
7
100
AcDbLine
 10
8.037508
 20
5.133000
 30
0.0
 11
8.900090
 21
6.825912
 31
0.0
  0
LINE
  5
17f
100
AcDbEntity
  8
0
 62
7
100
AcDbLine
 10
8.037508
 20
5.133000
 30
0.0
 11
9.730420
 21
4.270418
 31
0.0
  0
SPLINE
  5
180
100
AcDbEntity
  8
0
 62
7
100
AcDbSpline
 70
8
 71
3
 72
8
 73
4
 74
0
 40
0
 40
0
 40
0
 40
0
 40
1
 40
1
 40
1
 40
1
 10
16.067521
 20
8.322670
 30
0.0
 10
16.141329
 20
8.360284
 30
0.0
 10
16.170676
 20
8.450606
 30
0.0
 10
16.133073
 20
8.524420
 30
0.0
  0
SPLINE
  5
181
100
AcDbEntity
  8
0
 62
7
100
AcDbSpline
 70
8
 71
3
 72
8
 73
4
 74
0
 40
0
 40
0
 40
0
 40
0
 40
1
 40
1
 40
1
 40
1
 10
15.858745
 20
9.362305
 30
0.0
 10
15.823298
 20
9.344245
 30
0.0
 10
15.796477
 20
9.312843
 30
0.0
 10
15.784183
 20
9.275007
 30
0.0
  0
SPLINE
  5
182
100
AcDbEntity
  8
0
 62
7
100
AcDbSpline
 70
8
 71
3
 72
8
 73
4
 74
0
 40
0
 40
0
 40
0
 40
0
 40
1
 40
1
 40
1
 40
1
 10
15.784183
 20
9.275007
 30
0.0
 10
15.771890
 20
9.237171
 30
0.0
 10
15.775131
 20
9.196001
 30
0.0
 10
15.793193
 20
9.160555
 30
0.0
  0
SPLINE
  5
183
100
AcDbEntity
  8
0
 62
7
100
AcDbSpline
 70
8
 71
3
 72
8
 73
4
 74
0
 40
0
 40
0
 40
0
 40
0
 40
1
 40
1
 40
1
 40
1
 10
21.842388
 20
10.980223
 30
0.0
 10
21.870775
 20
10.909967
 30
0.0
 10
21.947099
 20
10.871914
 30
0.0
 10
22.020291
 20
10.891526
 30
0.0
  0
LINE
  5
184
100
AcDbEntity
  8
0
 62
7
100
AcDbLine
 10
21.601670
 20
11.602739
 30
0.0
 11
21.842390
 21
10.980223
 31
0.0
  0
SPLINE
  5
185
100
AcDbEntity
  8
0
 62
7
100
AcDbSpline
 70
8
 71
3
 72
8
 73
4
 74
0
 40
0
 40
0
 40
0
 40
0
 40
1
 40
1
 40
1
 40
1
 10
8.538414
 20
10.182729
 30
0.0
 10
8.561112
 20
10.218591
 30
0.0
 10
8.567651
 20
10.262357
 30
0.0
 10
8.556426
 20
10.303287
 30
0.0
  0
SPLINE
  5
186
100
AcDbEntity
  8
0
 62
7
100
AcDbSpline
 70
8
 71
3
 72
8
 73
4
 74
0
 40
0
 40
0
 40
0
 40
0
 40
1
 40
1
 40
1
 40
1
 10
8.556426
 20
10.303287
 30
0.0
 10
8.545201
 20
10.344218
 30
0.0
 10
8.517251
 20
10.378525
 30
0.0
 10
8.479434
 20
10.397791
 30
0.0
  0
LINE
  5
187
100
AcDbEntity
  8
0
 62
7
100
AcDbLine
 10
8.716706
 20
1.136872
 30
0.0
 11
9.296409
 21
2.274604
 31
0.0
  0
LINE
  5
188
100
AcDbEntity
  8
0
 62
7
100
AcDbLine
 10
2.453607
 20
6.409514
 30
0.0
 11
6.126987
 21
4.882404
 31
0.0
  0
SPLINE
  5
189
100
AcDbEntity
  8
0
 62
7
100
AcDbSpline
 70
8
 71
3
 72
8
 73
4
 74
0
 40
0
 40
0
 40
0
 40
0
 40
1
 40
1
 40
1
 40
1
 10
8.514956
 20
1.071320
 30
0.0
 10
8.550403
 20
1.053258
 30
0.0
 10
8.591572
 20
1.050018
 30
0.0
 10
8.629408
 20
1.062311
 30
0.0
  0
SPLINE
  5
18a
100
AcDbEntity
  8
0
 62
7
100
AcDbSpline
 70
8
 71
3
 72
8
 73
4
 74
0
 40
0
 40
0
 40
0
 40
0
 40
1
 40
1
 40
1
 40
1
 10
8.629408
 20
1.062311
 30
0.0
 10
8.667243
 20
1.074604
 30
0.0
 10
8.698645
 20
1.101425
 30
0.0
 10
8.716705
 20
1.136872
 30
0.0
  0
LINE
  5
18b
100
AcDbEntity
  8
0
 62
7
100
AcDbLine
 10
5.496526
 20
3.285264
 30
0.0
 11
6.192539
 21
4.680655
 31
0.0
  0
SPLINE
  5
18c
100
AcDbEntity
  8
0
 62
7
100
AcDbSpline
 70
8
 71
3
 72
8
 73
4
 74
0
 40
0
 40
0
 40
0
 40
0
 40
1
 40
1
 40
1
 40
1
 10
16.537879
 20
2.349591
 30
0.0
 10
14.209852
 20
3.082039
 30
0.0
 10
11.713069
 20
3.082039
 30
0.0
 10
9.385042
 20
2.349591
 30
0.0
  0
SPLINE
  5
18d
100
AcDbEntity
  8
0
 62
7
100
AcDbSpline
 70
8
 71
3
 72
8
 73
4
 74
0
 40
0
 40
0
 40
0
 40
0
 40
1
 40
1
 40
1
 40
1
 10
6.593552
 20
10.852852
 30
0.0
 10
6.665666
 20
10.823723
 30
0.0
 10
6.748082
 20
10.854538
 30
0.0
 10
6.783395
 20
10.923833
 30
0.0
  0
LINE
  5
18e
100
AcDbEntity
  8
0
 62
7
100
AcDbLine
 10
11.027404
 20
7.736726
 30
0.0
 11
14.845517
 21
7.736726
 31
0.0
  0
LINE
  5
18f
100
AcDbEntity
  8
0
 62
7
100
AcDbLine
 10
0.707497
 20
7.791626
 30
0.0
 11
1.652187
 21
11.317256
 31
0.0
  0
SPLINE
  5
190
100
AcDbEntity
  8
0
 62
7
100
AcDbSpline
 70
8
 71
3
 72
8
 73
4
 74
0
 40
0
 40
0
 40
0
 40
0
 40
1
 40
1
 40
1
 40
1
 10
21.601671
 20
11.602739
 30
0.0
 10
21.586769
 20
11.639626
 30
0.0
 10
21.557824
 20
11.669082
 30
0.0
 10
21.521204
 20
11.684626
 30
0.0
  0
SPLINE
  5
191
100
AcDbEntity
  8
0
 62
7
100
AcDbSpline
 70
8
 71
3
 72
8
 73
4
 74
0
 40
0
 40
0
 40
0
 40
0
 40
1
 40
1
 40
1
 40
1
 10
21.521204
 20
11.684626
 30
0.0
 10
21.484583
 20
11.700171
 30
0.0
 10
21.443287
 20
11.700530
 30
0.0
 10
21.406402
 20
11.685625
 30
0.0
  0
SPLINE
  5
192
100
AcDbEntity
  8
0
 62
7
100
AcDbSpline
 70
8
 71
3
 72
8
 73
4
 74
0
 40
0
 40
0
 40
0
 40
0
 40
1
 40
1
 40
1
 40
1
 10
9.385043
 20
2.349590
 30
0.0
 10
9.346631
 20
2.337504
 30
0.0
 10
9.314692
 20
2.310482
 30
0.0
 10
9.296409
 20
2.274604
 30
0.0
  0
LINE
  5
193
100
AcDbEntity
  8
0
 62
7
100
AcDbLine
 10
16.626512
 20
2.274604
 30
0.0
 11
17.206216
 21
1.136872
 31
0.0
  0
LINE
  5
194
100
AcDbEntity
  8
0
 62
7
100
AcDbLine
 10
9.789848
 20
8.524420
 30
0.0
 11
10.076547
 21
9.095106
 31
0.0
  0
LINE
  5
195
100
AcDbEntity
  8
0
 62
7
100
AcDbLine
 10
17.407966
 20
1.071319
 30
0.0
 11
18.655375
 21
1.706906
 31
0.0
  0
LINE
  5
196
100
AcDbEntity
  8
0
 62
7
100
AcDbLine
 10
19.453152
 20
10.912228
 30
0.0
 11
21.406402
 21
11.685625
 31
0.0
  0
LINE
  5
197
100
AcDbEntity
  8
0
 62
7
100
AcDbLine
 10
7.053824
 20
11.124176
 30
0.0
 11
8.479434
 21
10.397791
 31
0.0
  0
LINE
  5
198
100
AcDbEntity
  8
0
 62
7
100
AcDbLine
 10
15.793193
 20
9.160555
 30
0.0
 11
16.133073
 21
8.524420
 31
0.0
  0
SPLINE
  5
199
100
AcDbEntity
  8
0
 62
7
100
AcDbSpline
 70
8
 71
3
 72
8
 73
4
 74
0
 40
0
 40
0
 40
0
 40
0
 40
1
 40
1
 40
1
 40
1
 10
20.410842
 20
3.108516
 30
0.0
 10
20.446289
 20
3.126576
 30
0.0
 10
20.473109
 20
3.157978
 30
0.0
 10
20.485403
 20
3.195813
 30
0.0
  0
SPLINE
  5
19a
100
AcDbEntity
  8
0
 62
7
100
AcDbSpline
 70
8
 71
3
 72
8
 73
4
 74
0
 40
0
 40
0
 40
0
 40
0
 40
1
 40
1
 40
1
 40
1
 10
20.485403
 20
3.195813
 30
0.0
 10
20.497696
 20
3.233648
 30
0.0
 10
20.494456
 20
3.274817
 30
0.0
 10
20.476395
 20
3.310264
 30
0.0
  0
SPLINE
  5
19b
100
AcDbEntity
  8
0
 62
7
100
AcDbSpline
 70
8
 71
3
 72
8
 73
4
 74
0
 40
0
 40
0
 40
0
 40
0
 40
1
 40
1
 40
1
 40
1
 10
2.523114
 20
7.020853
 30
0.0
 10
2.542727
 20
7.094045
 30
0.0
 10
2.504671
 20
7.170370
 30
0.0
 10
2.434414
 20
7.198754
 30
0.0
  0
LINE
  5
19c
100
AcDbEntity
  8
0
 62
7
100
AcDbLine
 10
5.562079
 20
3.083514
 30
0.0
 11
7.165890
 21
2.266331
 31
0.0
  0
SPLINE
  5
19d
100
AcDbEntity
  8
0
 62
7
100
AcDbSpline
 70
8
 71
3
 72
8
 73
4
 74
0
 40
0
 40
0
 40
0
 40
0
 40
1
 40
1
 40
1
 40
1
 10
2.364915
 20
6.587413
 30
0.0
 10
2.345301
 20
6.514224
 30
0.0
 10
2.383352
 20
6.437900
 30
0.0
 10
2.453607
 20
6.409514
 30
0.0
  0
SPLINE
  5
19e
100
AcDbEntity
  8
0
 62
7
100
AcDbSpline
 70
8
 71
3
 72
8
 73
4
 74
0
 40
0
 40
0
 40
0
 40
0
 40
1
 40
1
 40
1
 40
1
 10
1.835898
 20
11.423318
 30
0.0
 10
1.755879
 20
11.444757
 30
0.0
 10
1.673631
 20
11.397273
 30
0.0
 10
1.652187
 20
11.317256
 30
0.0
  0
LINE
  5
19f
100
AcDbEntity
  8
0
 62
7
100
AcDbLine
 10
17.443975
 20
10.421440
 30
0.0
 11
18.992881
 21
11.183550
 31
0.0
  0
SPLINE
  5
1a0
100
AcDbEntity
  8
0
 62
7
100
AcDbSpline
 70
8
 71
3
 72
8
 73
4
 74
0
 40
0
 40
0
 40
0
 40
0
 40
1
 40
1
 40
1
 40
1
 10
23.428102
 20
7.187385
 30
0.0
 10
23.357847
 20
7.158999
 30
0.0
 10
23.319793
 20
7.082674
 30
0.0
 10
23.339405
 20
7.009483
 30
0.0
  0
SPLINE
  5
1a1
100
AcDbEntity
  8
0
 62
7
100
AcDbSpline
 70
8
 71
3
 72
8
 73
4
 74
0
 40
0
 40
0
 40
0
 40
0
 40
1
 40
1
 40
1
 40
1
 10
10.076550
 20
9.095104
 30
0.0
 10
10.114150
 20
9.168920
 30
0.0
 10
10.084802
 20
9.259240
 30
0.0
 10
10.010994
 20
9.296855
 30
0.0
  0
SPLINE
  5
1a2
100
AcDbEntity
  8
0
 62
7
100
AcDbSpline
 70
8
 71
3
 72
8
 73
4
 74
0
 40
0
 40
0
 40
0
 40
0
 40
1
 40
1
 40
1
 40
1
 10
19.263305
 20
10.983204
 30
0.0
 10
19.298616
 20
10.913905
 30
0.0
 10
19.381038
 20
10.883090
 30
0.0
 10
19.453152
 20
10.912228
 30
0.0
  0
LINE
  5
1a3
100
AcDbEntity
  8
0
 62
7
100
AcDbLine
 10
19.194631
 20
11.117997
 30
0.0
 11
19.263310
 21
10.983207
 31
0.0
  0
SPLINE
  5
1a4
100
AcDbEntity
  8
0
 62
7
100
AcDbSpline
 70
8
 71
3
 72
8
 73
4
 74
0
 40
0
 40
0
 40
0
 40
0
 40
1
 40
1
 40
1
 40
1
 10
17.342406
 20
10.120107
 30
0.0
 10
17.382811
 20
10.146890
 30
0.0
 10
17.398380
 20
10.198672
 30
0.0
 10
17.379444
 20
10.243297
 30
0.0
  0
SPLINE
  5
1a5
100
AcDbEntity
  8
0
 62
7
100
AcDbSpline
 70
8
 71
3
 72
8
 73
4
 74
0
 40
0
 40
0
 40
0
 40
0
 40
1
 40
1
 40
1
 40
1
 10
7.053825
 20
11.124178
 30
0.0
 10
7.018378
 20
11.142239
 30
0.0
 10
6.977208
 20
11.145479
 30
0.0
 10
6.939373
 20
11.133185
 30
0.0
  0
SPLINE
  5
1a6
100
AcDbEntity
  8
0
 62
7
100
AcDbSpline
 70
8
 71
3
 72
8
 73
4
 74
0
 40
0
 40
0
 40
0
 40
0
 40
1
 40
1
 40
1
 40
1
 10
6.939373
 20
11.133185
 30
0.0
 10
6.901537
 20
11.120891
 30
0.0
 10
6.870135
 20
11.094070
 30
0.0
 10
6.852074
 20
11.058623
 30
0.0
  0
LINE
  5
1a7
100
AcDbEntity
  8
0
 62
7
100
AcDbLine
 10
4.018746
 20
10.984448
 30
0.0
 11
4.299963
 21
11.606248
 31
0.0
  0
SPLINE
  5
1a8
100
AcDbEntity
  8
0
 62
7
100
AcDbSpline
 70
8
 71
3
 72
8
 73
4
 74
0
 40
0
 40
0
 40
0
 40
0
 40
1
 40
1
 40
1
 40
1
 10
3.840845
 20
10.895746
 30
0.0
 10
3.914037
 20
10.876135
 30
0.0
 10
3.990362
 20
10.914191
 30
0.0
 10
4.018746
 20
10.984448
 30
0.0
  0
LINE
  5
1a9
100
AcDbEntity
  8
0
 62
7
100
AcDbLine
 10
6.783395
 20
10.923833
 30
0.0
 11
6.852074
 21
11.058623
 31
0.0
  0
LINE
  5
1aa
100
AcDbEntity
  8
0
 62
7
100
AcDbLine
 10
22.020291
 20
10.891526
 30
0.0
 11
24.065735
 21
11.419812
 31
0.0
  0
SPLINE
  5
1ab
100
AcDbEntity
  8
0
 62
7
100
AcDbSpline
 70
8
 71
3
 72
8
 73
4
 74
0
 40
0
 40
0
 40
0
 40
0
 40
1
 40
1
 40
1
 40
1
 10
19.849875
 20
4.883305
 30
0.0
 10
19.814427
 20
4.865244
 30
0.0
 10
19.787606
 20
4.833841
 30
0.0
 10
19.775312
 20
4.796004
 30
0.0
  0
SPLINE
  5
1ac
100
AcDbEntity
  8
0
 62
7
100
AcDbSpline
 70
8
 71
3
 72
8
 73
4
 74
0
 40
0
 40
0
 40
0
 40
0
 40
1
 40
1
 40
1
 40
1
 10
19.775312
 20
4.796004
 30
0.0
 10
19.763019
 20
4.758168
 30
0.0
 10
19.766261
 20
4.716997
 30
0.0
 10
19.784325
 20
4.681551
 30
0.0
  0
LINE
  5
1ad
100
AcDbEntity
  8
0
 62
7
100
AcDbLine
 10
4.495232
 20
11.689134
 30
0.0
 11
6.593553
 21
10.852854
 31
0.0
  0
SPLINE
  5
1ae
100
AcDbEntity
  8
0
 62
7
100
AcDbSpline
 70
8
 71
3
 72
8
 73
4
 74
0
 40
0
 40
0
 40
0
 40
0
 40
1
 40
1
 40
1
 40
1
 10
10.891208
 20
7.769425
 30
0.0
 10
10.933390
 20
7.747932
 30
0.0
 10
10.980061
 20
7.736727
 30
0.0
 10
11.027404
 20
7.736726
 30
0.0
  0
LINE
  5
1af
100
AcDbEntity
  8
0
 62
7
100
AcDbLine
 10
23.501939
 20
6.570895
 30
0.0
 11
23.339405
 21
7.009483
 31
0.0
  0
SPLINE
  5
1b0
100
AcDbEntity
  8
0
 62
7
100
AcDbSpline
 70
8
 71
3
 72
8
 73
4
 74
0
 40
0
 40
0
 40
0
 40
0
 40
1
 40
1
 40
1
 40
1
 10
9.789850
 20
8.524419
 30
0.0
 10
9.771786
 20
8.488973
 30
0.0
 10
9.768545
 20
8.447803
 30
0.0
 10
9.780838
 20
8.409967
 30
0.0
  0
SPLINE
  5
1b1
100
AcDbEntity
  8
0
 62
7
100
AcDbSpline
 70
8
 71
3
 72
8
 73
4
 74
0
 40
0
 40
0
 40
0
 40
0
 40
1
 40
1
 40
1
 40
1
 10
9.780838
 20
8.409967
 30
0.0
 10
9.793131
 20
8.372131
 30
0.0
 10
9.819953
 20
8.340729
 30
0.0
 10
9.855401
 20
8.322670
 30
0.0
  0
LINE
  5
1b2
100
AcDbEntity
  8
0
 62
7
100
AcDbLine
 10
18.707031
 20
2.266331
 30
0.0
 11
20.410843
 21
3.108514
 31
0.0
  0
LINE
  5
1b3
100
AcDbEntity
  8
0
 62
7
100
AcDbLine
 10
19.849878
 20
4.883300
 30
0.0
 11
23.413242
 21
6.392994
 31
0.0
  0
SPLINE
  5
1b4
100
AcDbEntity
  8
0
 62
7
100
AcDbSpline
 70
8
 71
3
 72
8
 73
4
 74
0
 40
0
 40
0
 40
0
 40
0
 40
1
 40
1
 40
1
 40
1
 10
25.088069
 20
7.604407
 30
0.0
 10
25.168089
 20
7.625848
 30
0.0
 10
25.215576
 20
7.708098
 30
0.0
 10
25.194136
 20
7.788117
 30
0.0
  0
SPLINE
  5
1b5
100
AcDbEntity
  8
0
 62
7
100
AcDbSpline
 70
8
 71
3
 72
8
 73
4
 74
0
 40
0
 40
0
 40
0
 40
0
 40
1
 40
1
 40
1
 40
1
 10
17.443977
 20
10.421436
 30
0.0
 10
17.378937
 20
10.388293
 30
0.0
 10
17.350722
 20
10.310406
 30
0.0
 10
17.379444
 20
10.243297
 30
0.0
  0
LINE
  5
1b6
100
AcDbEntity
  8
0
 62
7
100
AcDbLine
 10
14.981715
 20
7.769424
 30
0.0
 11
16.067521
 21
8.322670
 31
0.0
  0
LINE
  5
1b7
100
AcDbEntity
  8
0
 62
7
100
AcDbLine
 10
0.813564
 20
7.607915
 30
0.0
 11
2.434414
 21
7.198754
 31
0.0
  0
LINE
  5
1b8
100
AcDbEntity
  8
0
 62
7
100
AcDbLine
 10
18.720927
 20
1.908656
 30
0.0
 11
18.641479
 21
2.064582
 31
0.0
  0
SPLINE
  5
1b9
100
AcDbEntity
  8
0
 62
7
100
AcDbSpline
 70
8
 71
3
 72
8
 73
4
 74
0
 40
0
 40
0
 40
0
 40
0
 40
1
 40
1
 40
1
 40
1
 10
8.538418
 20
10.182727
 30
0.0
 10
8.503275
 20
10.129745
 30
0.0
 10
8.515315
 20
10.058580
 30
0.0
 10
8.565929
 20
10.020106
 30
0.0
  0
SPLINE
  5
1ba
100
AcDbEntity
  8
0
 62
7
100
AcDbSpline
 70
8
 71
3
 72
8
 73
4
 74
0
 40
0
 40
0
 40
0
 40
0
 40
1
 40
1
 40
1
 40
1
 10
7.231446
 20
2.064580
 30
0.0
 10
7.269053
 20
2.138395
 30
0.0
 10
7.239703
 20
2.228720
 30
0.0
 10
7.165890
 20
2.266331
 30
0.0
  0
SPLINE
  5
1bb
100
AcDbEntity
  8
0
 62
7
100
AcDbSpline
 70
8
 71
3
 72
8
 73
4
 74
0
 40
0
 40
0
 40
0
 40
0
 40
1
 40
1
 40
1
 40
1
 10
23.413241
 20
6.392997
 30
0.0
 10
23.483495
 20
6.421382
 30
0.0
 10
23.521548
 20
6.497704
 30
0.0
 10
23.501939
 20
6.570895
 30
0.0
  0
LINE
  5
1bc
100
AcDbEntity
  8
0
 62
7
100
AcDbLine
 10
7.217547
 20
1.706906
 30
0.0
 11
8.514956
 21
1.071319
 31
0.0
  0
LINE
  5
1bd
100
AcDbEntity
  8
0
 62
7
100
AcDbLine
 10
24.249446
 20
11.313746
 30
0.0
 11
25.194136
 21
7.788117
 31
0.0
  0
SPLINE
  5
1be
100
AcDbEntity
  8
0
 62
7
100
AcDbSpline
 70
8
 71
3
 72
8
 73
4
 74
0
 40
0
 40
0
 40
0
 40
0
 40
1
 40
1
 40
1
 40
1
 10
5.496525
 20
3.285264
 30
0.0
 10
5.478464
 20
3.249818
 30
0.0
 10
5.475224
 20
3.208648
 30
0.0
 10
5.487518
 20
3.170813
 30
0.0
  0
SPLINE
  5
1bf
100
AcDbEntity
  8
0
 62
7
100
AcDbSpline
 70
8
 71
3
 72
8
 73
4
 74
0
 40
0
 40
0
 40
0
 40
0
 40
1
 40
1
 40
1
 40
1
 10
5.487518
 20
3.170813
 30
0.0
 10
5.499812
 20
3.132977
 30
0.0
 10
5.526632
 20
3.101575
 30
0.0
 10
5.562079
 20
3.083514
 30
0.0
  0
LINE
  5
1c0
100
AcDbEntity
  8
0
 62
7
100
AcDbLine
 10
2.364909
 20
6.587415
 30
0.0
 11
2.523112
 21
7.020853
 31
0.0
  0
LINE
  5
1c1
100
AcDbEntity
  8
0
 62
7
100
AcDbLine
 10
15.858746
 20
9.362305
 30
0.0
 11
17.342407
 21
10.120106
 31
0.0
  0
LINE
  5
1c2
100
AcDbEntity
  8
0
 62
7
100
AcDbLine
 10
23.428103
 20
7.187383
 30
0.0
 11
25.088070
 21
7.604405
 31
0.0
  0
SPLINE
  5
1c3
100
AcDbEntity
  8
0
 62
7
100
AcDbSpline
 70
8
 71
3
 72
8
 73
4
 74
0
 40
0
 40
0
 40
0
 40
0
 40
1
 40
1
 40
1
 40
1
 10
7.151996
 20
1.908655
 30
0.0
 10
7.114386
 20
1.834842
 30
0.0
 10
7.143734
 20
1.744516
 30
0.0
 10
7.217547
 20
1.706906
 30
0.0
  0
LINE
  5
1c4
100
AcDbEntity
  8
0
 62
7
100
AcDbLine
 10
1.835899
 20
11.423322
 30
0.0
 11
3.840846
 21
10.895750
 31
0.0
  0
LINE
  5
1c5
100
AcDbEntity
  8
0
 62
7
100
AcDbLine
 10
8.565929
 20
10.020106
 30
0.0
 11
10.010994
 21
9.296855
 31
0.0
  0
LINE
  5
1c6
100
AcDbEntity
  8
0
 62
7
100
AcDbLine
 10
7.231443
 20
2.064582
 30
0.0
 11
7.151994
 21
1.908656
 31
0.0
  0
SPLINE
  5
1c7
100
AcDbEntity
  8
0
 62
7
100
AcDbSpline
 70
8
 71
3
 72
8
 73
4
 74
0
 40
0
 40
0
 40
0
 40
0
 40
1
 40
1
 40
1
 40
1
 10
18.707032
 20
2.266329
 30
0.0
 10
18.633222
 20
2.228718
 30
0.0
 10
18.603873
 20
2.138395
 30
0.0
 10
18.641479
 20
2.064582
 30
0.0
  0
SPLINE
  5
1c8
100
AcDbEntity
  8
0
 62
7
100
AcDbSpline
 70
8
 71
3
 72
8
 73
4
 74
0
 40
0
 40
0
 40
0
 40
0
 40
1
 40
1
 40
1
 40
1
 10
0.707495
 20
7.791627
 30
0.0
 10
0.686055
 20
7.711606
 30
0.0
 10
0.733543
 20
7.629356
 30
0.0
 10
0.813563
 20
7.607915
 30
0.0
  0
SPLINE
  5
1c9
100
AcDbEntity
  8
0
 62
7
100
AcDbSpline
 70
8
 71
3
 72
8
 73
4
 74
0
 40
0
 40
0
 40
0
 40
0
 40
1
 40
1
 40
1
 40
1
 10
16.626513
 20
2.274605
 30
0.0
 10
16.608230
 20
2.310482
 30
0.0
 10
16.576290
 20
2.337504
 30
0.0
 10
16.537879
 20
2.349591
 30
0.0
  0
LINE
  5
1ca
100
AcDbEntity
  8
0
 62
7
100
AcDbLine
 10
19.784325
 20
4.681551
 30
0.0
 11
20.476395
 21
3.310264
 31
0.0
  0
SPLINE
  5
1cb
100
AcDbEntity
  8
0
 62
7
100
AcDbSpline
 70
8
 71
3
 72
8
 73
4
 74
0
 40
0
 40
0
 40
0
 40
0
 40
1
 40
1
 40
1
 40
1
 10
18.655375
 20
1.706905
 30
0.0
 10
18.690822
 20
1.724966
 30
0.0
 10
18.717642
 20
1.756368
 30
0.0
 10
18.729935
 20
1.794204
 30
0.0
  0
SPLINE
  5
1cc
100
AcDbEntity
  8
0
 62
7
100
AcDbSpline
 70
8
 71
3
 72
8
 73
4
 74
0
 40
0
 40
0
 40
0
 40
0
 40
1
 40
1
 40
1
 40
1
 10
18.729935
 20
1.794204
 30
0.0
 10
18.742229
 20
1.832040
 30
0.0
 10
18.738988
 20
1.873209
 30
0.0
 10
18.720927
 20
1.908656
 30
0.0
  0
SPLINE
  5
1cd
100
AcDbEntity
  8
0
 62
7
100
AcDbSpline
 70
8
 71
3
 72
8
 73
4
 74
0
 40
0
 40
0
 40
0
 40
0
 40
1
 40
1
 40
1
 40
1
 10
6.192544
 20
4.680653
 30
0.0
 10
6.230147
 20
4.754468
 30
0.0
 10
6.200798
 20
4.844792
 30
0.0
 10
6.126987
 20
4.882404
 30
0.0
  0
SPLINE
  5
1ce
100
AcDbEntity
  8
0
 62
7
100
AcDbSpline
 70
8
 71
3
 72
8
 73
4
 74
0
 40
0
 40
0
 40
0
 40
0
 40
1
 40
1
 40
1
 40
1
 10
17.206217
 20
1.136872
 30
0.0
 10
17.224277
 20
1.101425
 30
0.0
 10
17.255679
 20
1.074605
 30
0.0
 10
17.293515
 20
1.062311
 30
0.0
  0
SPLINE
  5
1cf
100
AcDbEntity
  8
0
 62
7
100
AcDbSpline
 70
8
 71
3
 72
8
 73
4
 74
0
 40
0
 40
0
 40
0
 40
0
 40
1
 40
1
 40
1
 40
1
 10
17.293515
 20
1.062311
 30
0.0
 10
17.331350
 20
1.050018
 30
0.0
 10
17.372519
 20
1.053258
 30
0.0
 10
17.407966
 20
1.071319
 30
0.0
  0
SPLINE
  5
1d0
100
AcDbEntity
  8
0
 62
7
100
AcDbSpline
 70
8
 71
3
 72
8
 73
4
 74
0
 40
0
 40
0
 40
0
 40
0
 40
1
 40
1
 40
1
 40
1
 10
19.194636
 20
11.118000
 30
0.0
 10
19.176576
 20
11.153448
 30
0.0
 10
19.145172
 20
11.180269
 30
0.0
 10
19.107335
 20
11.192562
 30
0.0
  0
SPLINE
  5
1d1
100
AcDbEntity
  8
0
 62
7
100
AcDbSpline
 70
8
 71
3
 72
8
 73
4
 74
0
 40
0
 40
0
 40
0
 40
0
 40
1
 40
1
 40
1
 40
1
 10
19.107335
 20
11.192562
 30
0.0
 10
19.069498
 20
11.204855
 30
0.0
 10
19.028327
 20
11.201613
 30
0.0
 10
18.992881
 20
11.183550
 30
0.0
  0
SPLINE
  5
1d2
100
AcDbEntity
  8
0
 62
7
100
AcDbSpline
 70
8
 71
3
 72
8
 73
4
 74
0
 40
0
 40
0
 40
0
 40
0
 40
1
 40
1
 40
1
 40
1
 10
4.495232
 20
11.689136
 30
0.0
 10
4.418421
 20
11.720164
 30
0.0
 10
4.331000
 20
11.683055
 30
0.0
 10
4.299963
 20
11.606248
 30
0.0
  0
LINE
  5
1d3
100
AcDbEntity
  8
0
 62
7
100
AcDbLine
 10
9.855401
 20
8.322670
 30
0.0
 11
10.891207
 21
7.769424
 31
0.0
  0
SPLINE
  5
1d4
100
AcDbEntity
  8
0
 62
7
100
AcDbSpline
 70
8
 71
3
 72
8
 73
4
 74
0
 40
0
 40
0
 40
0
 40
0
 40
1
 40
1
 40
1
 40
1
 10
14.845517
 20
7.736726
 30
0.0
 10
14.892861
 20
7.736725
 30
0.0
 10
14.939532
 20
7.747929
 30
0.0
 10
14.981715
 20
7.769424
 30
0.0
  0
SPLINE
  5
1d5
100
AcDbEntity
  8
0
 62
7
100
AcDbSpline
 70
8
 71
3
 72
8
 73
4
 74
0
 40
0
 40
0
 40
0
 40
0
 40
1
 40
1
 40
1
 40
1
 10
24.249451
 20
11.313748
 30
0.0
 10
24.228006
 20
11.393766
 30
0.0
 10
24.145755
 20
11.441252
 30
0.0
 10
24.065735
 20
11.419812
 30
0.0
  0
LINE
  5
1d6
100
AcDbEntity
  8
0
 62
7
100
AcDbLine
 10
2.362609
 20
7.555977
 30
0.0
 11
1.010312
 21
7.918324
 31
0.0
  0
LINE
  5
1d7
100
AcDbEntity
  8
0
 62
7
100
AcDbLine
 10
2.725662
 20
8.907049
 30
0.0
 11
2.362609
 21
7.555977
 31
0.0
  0
LINE
  5
1d8
100
AcDbEntity
  8
0
 62
7
100
AcDbLine
 10
1.010312
 20
7.918324
 30
0.0
 11
1.373884
 21
9.271327
 31
0.0
  0
LINE
  5
1d9
100
AcDbEntity
  8
0
 62
7
100
AcDbLine
 10
1.373884
 20
9.271327
 30
0.0
 11
2.725662
 21
8.907049
 31
0.0
  0
LINE
  5
1da
100
AcDbEntity
  8
0
 62
7
100
AcDbLine
 10
20.249757
 20
3.083193
 30
0.0
 11
19.002348
 21
2.447606
 31
0.0
  0
LINE
  5
1db
100
AcDbEntity
  8
0
 62
7
100
AcDbLine
 10
19.615516
 20
4.330165
 30
0.0
 11
20.249757
 21
3.083193
 31
0.0
  0
LINE
  5
1dc
100
AcDbEntity
  8
0
 62
7
100
AcDbLine
 10
19.002348
 20
2.447606
 30
0.0
 11
18.367198
 21
3.696360
 31
0.0
  0
LINE
  5
1dd
100
AcDbEntity
  8
0
 62
7
100
AcDbLine
 10
18.367198
 20
3.696360
 30
0.0
 11
19.615516
 21
4.330165
 31
0.0
  0
LINE
  5
1de
100
AcDbEntity
  8
0
 62
7
100
AcDbLine
 10
18.722490
 20
1.797383
 30
0.0
 11
17.475081
 21
1.161796
 31
0.0
  0
LINE
  5
1df
100
AcDbEntity
  8
0
 62
7
100
AcDbLine
 10
18.088249
 20
3.044355
 30
0.0
 11
18.722490
 21
1.797383
 31
0.0
  0
LINE
  5
1e0
100
AcDbEntity
  8
0
 62
7
100
AcDbLine
 10
17.475081
 20
1.161796
 30
0.0
 11
16.839932
 21
2.410550
 31
0.0
  0
LINE
  5
1e1
100
AcDbEntity
  8
0
 62
7
100
AcDbLine
 10
16.839932
 20
2.410550
 30
0.0
 11
18.088249
 21
3.044355
 31
0.0
  0
LINE
  5
1e2
100
AcDbEntity
  8
0
 62
7
100
AcDbLine
 10
18.911624
 20
6.751965
 30
0.0
 11
17.664215
 21
6.116378
 31
0.0
  0
LINE
  5
1e3
100
AcDbEntity
  8
0
 62
7
100
AcDbLine
 10
18.277383
 20
7.998937
 30
0.0
 11
18.911624
 21
6.751965
 31
0.0
  0
LINE
  5
1e4
100
AcDbEntity
  8
0
 62
7
100
AcDbLine
 10
17.664215
 20
6.116378
 30
0.0
 11
17.029066
 21
7.365133
 31
0.0
  0
LINE
  5
1e5
100
AcDbEntity
  8
0
 62
7
100
AcDbLine
 10
17.029066
 20
7.365133
 30
0.0
 11
18.277383
 21
7.998937
 31
0.0
  0
LINE
  5
1e6
100
AcDbEntity
  8
0
 62
7
100
AcDbLine
 10
7.538206
 20
9.074626
 30
0.0
 11
6.290797
 21
9.710213
 31
0.0
  0
LINE
  5
1e7
100
AcDbEntity
  8
0
 62
7
100
AcDbLine
 10
8.174230
 20
10.320690
 30
0.0
 11
7.538206
 21
9.074626
 31
0.0
  0
LINE
  5
1e8
100
AcDbEntity
  8
0
 62
7
100
AcDbLine
 10
6.290797
 20
9.710213
 30
0.0
 11
6.927729
 21
10.958059
 31
0.0
  0
LINE
  5
1e9
100
AcDbEntity
  8
0
 62
7
100
AcDbLine
 10
6.927729
 20
10.958059
 30
0.0
 11
8.174230
 21
10.320690
 31
0.0
  0
LINE
  5
1ea
100
AcDbEntity
  8
0
 62
7
100
AcDbLine
 10
9.073018
 20
7.808164
 30
0.0
 11
7.825609
 21
8.443751
 31
0.0
  0
LINE
  5
1eb
100
AcDbEntity
  8
0
 62
7
100
AcDbLine
 10
9.709041
 20
9.054228
 30
0.0
 11
9.073018
 21
7.808164
 31
0.0
  0
LINE
  5
1ec
100
AcDbEntity
  8
0
 62
7
100
AcDbLine
 10
7.825609
 20
8.443751
 30
0.0
 11
8.462540
 21
9.691597
 31
0.0
  0
LINE
  5
1ed
100
AcDbEntity
  8
0
 62
7
100
AcDbLine
 10
8.462540
 20
9.691597
 30
0.0
 11
9.709041
 21
9.054228
 31
0.0
  0
LINE
  5
1ee
100
AcDbEntity
  8
0
 62
7
100
AcDbLine
 10
17.018936
 20
3.139649
 30
0.0
 11
15.771527
 21
2.504062
 31
0.0
  0
LINE
  5
1ef
100
AcDbEntity
  8
0
 62
7
100
AcDbLine
 10
16.384694
 20
4.386621
 30
0.0
 11
17.018936
 21
3.139649
 31
0.0
  0
LINE
  5
1f0
100
AcDbEntity
  8
0
 62
7
100
AcDbLine
 10
15.771527
 20
2.504062
 30
0.0
 11
15.136377
 21
3.752816
 31
0.0
  0
LINE
  5
1f1
100
AcDbEntity
  8
0
 62
7
100
AcDbLine
 10
15.136377
 20
3.752816
 30
0.0
 11
16.384694
 21
4.386621
 31
0.0
  0
LINE
  5
1f2
100
AcDbEntity
  8
0
 62
7
100
AcDbLine
 10
22.598900
 20
8.302916
 30
0.0
 11
21.300843
 21
7.778466
 31
0.0
  0
LINE
  5
1f3
100
AcDbEntity
  8
0
 62
7
100
AcDbLine
 10
22.075753
 20
9.600420
 30
0.0
 11
22.598900
 21
8.302916
 31
0.0
  0
LINE
  5
1f4
100
AcDbEntity
  8
0
 62
7
100
AcDbLine
 10
21.300843
 20
7.778466
 30
0.0
 11
20.776946
 21
9.077826
 31
0.0
  0
LINE
  5
1f5
100
AcDbEntity
  8
0
 62
7
100
AcDbLine
 10
20.776946
 20
9.077826
 30
0.0
 11
22.075753
 21
9.600420
 31
0.0
  0
LINE
  5
1f6
100
AcDbEntity
  8
0
 62
7
100
AcDbLine
 10
8.399570
 20
1.160669
 30
0.0
 11
7.152161
 21
1.796256
 31
0.0
  0
LINE
  5
1f7
100
AcDbEntity
  8
0
 62
7
100
AcDbLine
 10
9.035593
 20
2.406733
 30
0.0
 11
8.399570
 21
1.160669
 31
0.0
  0
LINE
  5
1f8
100
AcDbEntity
  8
0
 62
7
100
AcDbLine
 10
7.152161
 20
1.796256
 30
0.0
 11
7.789092
 21
3.044102
 31
0.0
  0
LINE
  5
1f9
100
AcDbEntity
  8
0
 62
7
100
AcDbLine
 10
7.789092
 20
3.044102
 30
0.0
 11
9.035593
 21
2.406733
 31
0.0
  0
LINE
  5
1fa
100
AcDbEntity
  8
0
 62
7
100
AcDbLine
 10
19.562758
 20
9.703431
 30
0.0
 11
18.315349
 21
9.067844
 31
0.0
  0
LINE
  5
1fb
100
AcDbEntity
  8
0
 62
7
100
AcDbLine
 10
18.928516
 20
10.950403
 30
0.0
 11
19.562758
 21
9.703431
 31
0.0
  0
LINE
  5
1fc
100
AcDbEntity
  8
0
 62
7
100
AcDbLine
 10
18.315349
 20
9.067844
 30
0.0
 11
17.680199
 21
10.316598
 31
0.0
  0
LINE
  5
1fd
100
AcDbEntity
  8
0
 62
7
100
AcDbLine
 10
17.680199
 20
10.316598
 30
0.0
 11
18.928516
 21
10.950403
 31
0.0
  0
LINE
  5
1fe
100
AcDbEntity
  8
0
 62
7
100
AcDbLine
 10
6.675624
 20
7.381714
 30
0.0
 11
5.428215
 21
8.017300
 31
0.0
  0
LINE
  5
1ff
100
AcDbEntity
  8
0
 62
7
100
AcDbLine
 10
7.311648
 20
8.627778
 30
0.0
 11
6.675624
 21
7.381714
 31
0.0
  0
LINE
  5
200
100
AcDbEntity
  8
0
 62
7
100
AcDbLine
 10
5.428215
 20
8.017300
 30
0.0
 11
6.065147
 21
9.265146
 31
0.0
  0
LINE
  5
201
100
AcDbEntity
  8
0
 62
7
100
AcDbLine
 10
6.065147
 20
9.265146
 30
0.0
 11
7.311648
 21
8.627778
 31
0.0
  0
LINE
  5
202
100
AcDbEntity
  8
0
 62
7
100
AcDbLine
 10
7.347854
 20
4.422339
 30
0.0
 11
6.100445
 21
5.057926
 31
0.0
  0
LINE
  5
203
100
AcDbEntity
  8
0
 62
7
100
AcDbLine
 10
7.983878
 20
5.668403
 30
0.0
 11
7.347854
 21
4.422339
 31
0.0
  0
LINE
  5
204
100
AcDbEntity
  8
0
 62
7
100
AcDbLine
 10
6.100445
 20
5.057926
 30
0.0
 11
6.737376
 21
6.305772
 31
0.0
  0
LINE
  5
205
100
AcDbEntity
  8
0
 62
7
100
AcDbLine
 10
6.737376
 20
6.305772
 30
0.0
 11
7.983878
 21
5.668403
 31
0.0
  0
LINE
  5
206
100
AcDbEntity
  8
0
 62
7
100
AcDbLine
 10
24.843400
 20
7.911017
 30
0.0
 11
23.491104
 21
7.548670
 31
0.0
  0
LINE
  5
207
100
AcDbEntity
  8
0
 62
7
100
AcDbLine
 10
24.482278
 20
9.262606
 30
0.0
 11
24.843400
 21
7.911017
 31
0.0
  0
LINE
  5
208
100
AcDbEntity
  8
0
 62
7
100
AcDbLine
 10
23.491104
 20
7.548670
 30
0.0
 11
23.129464
 21
8.902191
 31
0.0
  0
LINE
  5
209
100
AcDbEntity
  8
0
 62
7
100
AcDbLine
 10
23.129464
 20
8.902191
 30
0.0
 11
24.482278
 21
9.262606
 31
0.0
  0
LINE
  5
20a
100
AcDbEntity
  8
0
 62
7
100
AcDbLine
 10
21.287922
 20
6.317606
 30
0.0
 11
20.040513
 21
5.682019
 31
0.0
  0
LINE
  5
20b
100
AcDbEntity
  8
0
 62
7
100
AcDbLine
 10
20.653680
 20
7.564578
 30
0.0
 11
21.287922
 21
6.317606
 31
0.0
  0
LINE
  5
20c
100
AcDbEntity
  8
0
 62
7
100
AcDbLine
 10
20.040513
 20
5.682019
 30
0.0
 11
19.405363
 21
6.930773
 31
0.0
  0
LINE
  5
20d
100
AcDbEntity
  8
0
 62
7
100
AcDbLine
 10
19.405363
 20
6.930773
 30
0.0
 11
20.653680
 21
7.564578
 31
0.0
  0
LINE
  5
20e
100
AcDbEntity
  8
0
 62
7
100
AcDbLine
 10
3.841049
 20
6.023796
 30
0.0
 11
2.542992
 21
6.548245
 31
0.0
  0
LINE
  5
20f
100
AcDbEntity
  8
0
 62
7
100
AcDbLine
 10
4.366051
 20
7.320552
 30
0.0
 11
3.841049
 21
6.023796
 31
0.0
  0
LINE
  5
210
100
AcDbEntity
  8
0
 62
7
100
AcDbLine
 10
2.542992
 20
6.548245
 30
0.0
 11
3.068743
 21
7.846855
 31
0.0
  0
LINE
  5
211
100
AcDbEntity
  8
0
 62
7
100
AcDbLine
 10
3.068743
 20
7.846855
 30
0.0
 11
4.366051
 21
7.320552
 31
0.0
  0
LINE
  5
212
100
AcDbEntity
  8
0
 62
7
100
AcDbLine
 10
5.264554
 20
9.547095
 30
0.0
 11
3.966497
 21
10.071544
 31
0.0
  0
LINE
  5
213
100
AcDbEntity
  8
0
 62
7
100
AcDbLine
 10
5.789556
 20
10.843850
 30
0.0
 11
5.264554
 21
9.547095
 31
0.0
  0
LINE
  5
214
100
AcDbEntity
  8
0
 62
7
100
AcDbLine
 10
3.966497
 20
10.071544
 30
0.0
 11
4.492248
 21
11.370154
 31
0.0
  0
LINE
  5
215
100
AcDbEntity
  8
0
 62
7
100
AcDbLine
 10
4.492248
 20
11.370154
 30
0.0
 11
5.789556
 21
10.843850
 31
0.0
  0
LINE
  5
216
100
AcDbEntity
  8
0
 62
7
100
AcDbLine
 10
6.872303
 20
2.446479
 30
0.0
 11
5.624894
 21
3.082066
 31
0.0
  0
LINE
  5
217
100
AcDbEntity
  8
0
 62
7
100
AcDbLine
 10
7.508327
 20
3.692543
 30
0.0
 11
6.872303
 21
2.446479
 31
0.0
  0
LINE
  5
218
100
AcDbEntity
  8
0
 62
7
100
AcDbLine
 10
5.624894
 20
3.082066
 30
0.0
 11
6.261825
 21
4.329912
 31
0.0
  0
LINE
  5
219
100
AcDbEntity
  8
0
 62
7
100
AcDbLine
 10
6.261825
 20
4.329912
 30
0.0
 11
7.508327
 21
3.692543
 31
0.0
  0
LINE
  5
21a
100
AcDbEntity
  8
0
 62
7
100
AcDbLine
 10
9.479554
 20
4.388414
 30
0.0
 11
10.726963
 21
3.752827
 31
0.0
  0
LINE
  5
21b
100
AcDbEntity
  8
0
 62
7
100
AcDbLine
 10
8.843530
 20
3.142349
 30
0.0
 11
9.479554
 21
4.388414
 31
0.0
  0
LINE
  5
21c
100
AcDbEntity
  8
0
 62
7
100
AcDbLine
 10
10.726963
 20
3.752827
 30
0.0
 11
10.090031
 21
2.504981
 31
0.0
  0
LINE
  5
21d
100
AcDbEntity
  8
0
 62
7
100
AcDbLine
 10
10.090031
 20
2.504981
 30
0.0
 11
8.843530
 21
3.142349
 31
0.0
  0
LINE
  5
21e
100
AcDbEntity
  8
0
 62
7
100
AcDbLine
 10
17.500003
 20
5.242927
 30
0.0
 11
16.252594
 21
4.607340
 31
0.0
  0
LINE
  5
21f
100
AcDbEntity
  8
0
 62
7
100
AcDbLine
 10
16.865761
 20
6.489899
 30
0.0
 11
17.500003
 21
5.242927
 31
0.0
  0
LINE
  5
220
100
AcDbEntity
  8
0
 62
7
100
AcDbLine
 10
16.252594
 20
4.607340
 30
0.0
 11
15.617444
 21
5.856094
 31
0.0
  0
LINE
  5
221
100
AcDbEntity
  8
0
 62
7
100
AcDbLine
 10
15.617444
 20
5.856094
 30
0.0
 11
16.865761
 21
6.489899
 31
0.0
  0
LINE
  5
222
100
AcDbEntity
  8
0
 62
7
100
AcDbLine
 10
2.853613
 20
9.393016
 30
0.0
 11
1.501317
 21
9.755363
 31
0.0
  0
LINE
  5
223
100
AcDbEntity
  8
0
 62
7
100
AcDbLine
 10
3.216667
 20
10.744087
 30
0.0
 11
2.853613
 21
9.393016
 31
0.0
  0
LINE
  5
224
100
AcDbEntity
  8
0
 62
7
100
AcDbLine
 10
1.501317
 20
9.755363
 30
0.0
 11
1.864888
 21
11.108366
 31
0.0
  0
LINE
  5
225
100
AcDbEntity
  8
0
 62
7
100
AcDbLine
 10
1.864888
 20
11.108366
 30
0.0
 11
3.216667
 21
10.744087
 31
0.0
  0
LINE
  5
226
100
AcDbEntity
  8
0
 62
7
100
AcDbLine
 10
5.813042
 20
5.688801
 30
0.0
 11
4.565633
 21
6.324388
 31
0.0
  0
LINE
  5
227
100
AcDbEntity
  8
0
 62
7
100
AcDbLine
 10
6.449066
 20
6.934865
 30
0.0
 11
5.813042
 21
5.688801
 31
0.0
  0
LINE
  5
228
100
AcDbEntity
  8
0
 62
7
100
AcDbLine
 10
4.565633
 20
6.324388
 30
0.0
 11
5.202565
 21
7.572234
 31
0.0
  0
LINE
  5
229
100
AcDbEntity
  8
0
 62
7
100
AcDbLine
 10
5.202565
 20
7.572234
 30
0.0
 11
6.449066
 21
6.934865
 31
0.0
  0
LINE
  5
22a
100
AcDbEntity
  8
0
 62
7
100
AcDbLine
 10
21.887148
 20
10.064565
 30
0.0
 11
20.589090
 21
9.540116
 31
0.0
  0
LINE
  5
22b
100
AcDbEntity
  8
0
 62
7
100
AcDbLine
 10
21.364000
 20
11.362070
 30
0.0
 11
21.887148
 21
10.064565
 31
0.0
  0
LINE
  5
22c
100
AcDbEntity
  8
0
 62
7
100
AcDbLine
 10
20.589090
 20
9.540116
 30
0.0
 11
20.065194
 21
10.839475
 31
0.0
  0
LINE
  5
22d
100
AcDbEntity
  8
0
 62
7
100
AcDbLine
 10
20.065194
 20
10.839475
 30
0.0
 11
21.364000
 21
11.362070
 31
0.0
  0
LINE
  5
22e
100
AcDbEntity
  8
0
 62
7
100
AcDbLine
 10
8.210436
 20
6.115251
 30
0.0
 11
6.963027
 21
6.750838
 31
0.0
  0
LINE
  5
22f
100
AcDbEntity
  8
0
 62
7
100
AcDbLine
 10
8.846459
 20
7.361316
 30
0.0
 11
8.210436
 21
6.115251
 31
0.0
  0
LINE
  5
230
100
AcDbEntity
  8
0
 62
7
100
AcDbLine
 10
6.963027
 20
6.750838
 30
0.0
 11
7.599958
 21
7.998684
 31
0.0
  0
LINE
  5
231
100
AcDbEntity
  8
0
 62
7
100
AcDbLine
 10
7.599958
 20
7.998684
 30
0.0
 11
8.846459
 21
7.361316
 31
0.0
  0
LINE
  5
232
100
AcDbEntity
  8
0
 62
7
100
AcDbLine
 10
10.484639
 20
6.299126
 30
0.0
 11
9.237230
 21
6.934712
 31
0.0
  0
LINE
  5
233
100
AcDbEntity
  8
0
 62
7
100
AcDbLine
 10
11.120663
 20
7.545190
 30
0.0
 11
10.484639
 21
6.299126
 31
0.0
  0
LINE
  5
234
100
AcDbEntity
  8
0
 62
7
100
AcDbLine
 10
9.237230
 20
6.934712
 30
0.0
 11
9.874162
 21
8.182559
 31
0.0
  0
LINE
  5
235
100
AcDbEntity
  8
0
 62
7
100
AcDbLine
 10
9.874162
 20
8.182559
 30
0.0
 11
11.120663
 21
7.545190
 31
0.0
  0
LINE
  5
236
100
AcDbEntity
  8
0
 62
7
100
AcDbLine
 10
16.637421
 20
6.935839
 30
0.0
 11
15.390012
 21
6.300253
 31
0.0
  0
LINE
  5
237
100
AcDbEntity
  8
0
 62
7
100
AcDbLine
 10
16.003179
 20
8.182812
 30
0.0
 11
16.637421
 21
6.935839
 31
0.0
  0
LINE
  5
238
100
AcDbEntity
  8
0
 62
7
100
AcDbLine
 10
15.390012
 20
6.300253
 30
0.0
 11
14.754862
 21
7.549007
 31
0.0
  0
LINE
  5
239
100
AcDbEntity
  8
0
 62
7
100
AcDbLine
 10
14.754862
 20
7.549007
 30
0.0
 11
16.003179
 21
8.182812
 31
0.0
  0
LINE
  5
23a
100
AcDbEntity
  8
0
 62
7
100
AcDbLine
 10
18.049042
 20
8.444878
 30
0.0
 11
16.801633
 21
7.809291
 31
0.0
  0
LINE
  5
23b
100
AcDbEntity
  8
0
 62
7
100
AcDbLine
 10
17.414801
 20
9.691850
 30
0.0
 11
18.049042
 21
8.444878
 31
0.0
  0
LINE
  5
23c
100
AcDbEntity
  8
0
 62
7
100
AcDbLine
 10
16.801633
 20
7.809291
 30
0.0
 11
16.166484
 21
9.058045
 31
0.0
  0
LINE
  5
23d
100
AcDbEntity
  8
0
 62
7
100
AcDbLine
 10
16.166484
 20
9.058045
 30
0.0
 11
17.414801
 21
9.691850
 31
0.0
  0
LINE
  5
23e
100
AcDbEntity
  8
0
 62
7
100
AcDbLine
 10
24.351017
 20
9.746604
 30
0.0
 11
22.998721
 21
9.384258
 31
0.0
  0
LINE
  5
23f
100
AcDbEntity
  8
0
 62
7
100
AcDbLine
 10
23.989895
 20
11.098193
 30
0.0
 11
24.351017
 21
9.746604
 31
0.0
  0
LINE
  5
240
100
AcDbEntity
  8
0
 62
7
100
AcDbLine
 10
22.998721
 20
9.384258
 30
0.0
 11
22.637082
 21
10.737778
 31
0.0
  0
LINE
  5
241
100
AcDbEntity
  8
0
 62
7
100
AcDbLine
 10
22.637082
 20
10.737778
 30
0.0
 11
23.989895
 21
11.098193
 31
0.0
  0
LINE
  5
242
100
AcDbEntity
  8
0
 62
7
100
AcDbLine
 10
20.425340
 20
8.010518
 30
0.0
 11
19.177931
 21
7.374932
 31
0.0
  0
LINE
  5
243
100
AcDbEntity
  8
0
 62
7
100
AcDbLine
 10
19.791098
 20
9.257490
 30
0.0
 11
20.425340
 21
8.010518
 31
0.0
  0
LINE
  5
244
100
AcDbEntity
  8
0
 62
7
100
AcDbLine
 10
19.177931
 20
7.374932
 30
0.0
 11
18.542781
 21
8.623686
 31
0.0
  0
LINE
  5
245
100
AcDbEntity
  8
0
 62
7
100
AcDbLine
 10
18.542781
 20
8.623686
 30
0.0
 11
19.791098
 21
9.257490
 31
0.0
  0
LINE
  5
246
100
AcDbEntity
  8
0
 62
7
100
AcDbLine
 10
23.310653
 20
6.541266
 30
0.0
 11
22.012595
 21
6.016817
 31
0.0
  0
LINE
  5
247
100
AcDbEntity
  8
0
 62
7
100
AcDbLine
 10
22.787505
 20
7.838771
 30
0.0
 11
23.310653
 21
6.541266
 31
0.0
  0
LINE
  5
248
100
AcDbEntity
  8
0
 62
7
100
AcDbLine
 10
22.012595
 20
6.016817
 30
0.0
 11
21.488699
 21
7.316176
 31
0.0
  0
LINE
  5
249
100
AcDbEntity
  8
0
 62
7
100
AcDbLine
 10
21.488699
 20
7.316176
 30
0.0
 11
22.787505
 21
7.838771
 31
0.0
  0
LINE
  5
24a
100
AcDbEntity
  8
0
 62
7
100
AcDbLine
 10
4.552831
 20
7.785405
 30
0.0
 11
3.254774
 21
8.309854
 31
0.0
  0
LINE
  5
24b
100
AcDbEntity
  8
0
 62
7
100
AcDbLine
 10
5.077833
 20
9.082160
 30
0.0
 11
4.552831
 21
7.785405
 31
0.0
  0
LINE
  5
24c
100
AcDbEntity
  8
0
 62
7
100
AcDbLine
 10
3.254774
 20
8.309854
 30
0.0
 11
3.780525
 21
9.608464
 31
0.0
  0
LINE
  5
24d
100
AcDbEntity
  8
0
 62
7
100
AcDbLine
 10
3.780525
 20
9.608464
 30
0.0
 11
5.077833
 21
9.082160
 31
0.0
  0
LINE
  5
24e
100
AcDbEntity
  8
0
 62
7
100
AcDbLine
 10
19.774206
 20
5.059053
 30
0.0
 11
18.526797
 21
4.423466
 31
0.0
  0
LINE
  5
24f
100
AcDbEntity
  8
0
 62
7
100
AcDbLine
 10
19.139965
 20
6.306025
 30
0.0
 11
19.774206
 21
5.059053
 31
0.0
  0
LINE
  5
250
100
AcDbEntity
  8
0
 62
7
100
AcDbLine
 10
18.526797
 20
4.423466
 30
0.0
 11
17.891647
 21
5.672220
 31
0.0
  0
LINE
  5
251
100
AcDbEntity
  8
0
 62
7
100
AcDbLine
 10
17.891647
 20
5.672220
 30
0.0
 11
19.139965
 21
6.306025
 31
0.0
  0
LINE
  5
252
100
AcDbEntity
  8
0
 62
7
100
AcDbLine
 10
9.622057
 20
4.606213
 30
0.0
 11
8.374648
 21
5.241800
 31
0.0
  0
LINE
  5
253
100
AcDbEntity
  8
0
 62
7
100
AcDbLine
 10
10.258081
 20
5.852277
 30
0.0
 11
9.622057
 21
4.606213
 31
0.0
  0
LINE
  5
254
100
AcDbEntity
  8
0
 62
7
100
AcDbLine
 10
8.374648
 20
5.241800
 30
0.0
 11
9.011580
 21
6.489646
 31
0.0
  0
LINE
  5
255
100
AcDbEntity
  8
0
 62
7
100
AcDbLine
 10
9.011580
 20
6.489646
 30
0.0
 11
10.258081
 21
5.852277
 31
0.0
  0
ENDSEC
  0
SECTION
  2
OBJECTS
  0
DICTIONARY
  5
C
330
0
100
AcDbDictionary
  3
ACAD_GROUP
350
D
  3
ACAD_MLINESTYLE
350
17
  0
DICTIONARY
  5
D
330
C
100
AcDbDictionary
  0
DICTIONARY
  5
1A
330
C
100
AcDbDictionary
  0
DICTIONARY
  5
17
330
C
100
AcDbDictionary
  3
STANDARD
350
18
  0
DICTIONARY
  5
19
330
C
100
AcDbDictionary
  0
ENDSEC
  0
EOF
