<?xml version="1.0" encoding="UTF-8" standalone="no"?>
<svg
   version="1.1"
   width="25.902920cm"
   height="13.073380cm"
   viewBox="0 0 259029200 130733800"
   id="svg906"
   sodipodi:docname="Asfoora-plate-brd.svg"
   inkscape:version="1.2.2 (732a01da63, 2022-12-09)"
   xmlns:inkscape="http://www.inkscape.org/namespaces/inkscape"
   xmlns:sodipodi="http://sodipodi.sourceforge.net/DTD/sodipodi-0.dtd"
   xmlns="http://www.w3.org/2000/svg"
   xmlns:svg="http://www.w3.org/2000/svg">
  <defs
     id="defs910" />
  <sodipodi:namedview
     id="namedview908"
     pagecolor="#505050"
     bordercolor="#eeeeee"
     borderopacity="1"
     inkscape:showpageshadow="0"
     inkscape:pageopacity="0"
     inkscape:pagecheckerboard="0"
     inkscape:deskcolor="#505050"
     inkscape:document-units="cm"
     showgrid="false"
     inkscape:zoom="1.3380892"
     inkscape:cx="467.08397"
     inkscape:cy="200.65927"
     inkscape:window-width="2133"
     inkscape:window-height="1121"
     inkscape:window-x="-9"
     inkscape:window-y="41"
     inkscape:window-maximized="1"
     inkscape:current-layer="g386" />
  <title
     id="title2">SVG Picture created as Asfoora-plate-brd.svg date 2022/12/21 15:41:25 </title>
  <desc
     id="desc4">Picture generated by PCBNEW </desc>
  <g
     style="fill:#000000; fill-opacity:1.000000;stroke:#000000; stroke-opacity:1.000000; stroke-linecap:round; stroke-linejoin:round;"
     transform="translate(0 0) scale(1 1)"
     id="g6" />
  <g
     style="fill:#000000; fill-opacity:0.0;  stroke:#000000; stroke-width:0.000000; stroke-opacity:1;  stroke-linecap:round; stroke-linejoin:round;"
     id="g8" />
  <g
     style="fill:#000000; fill-opacity:0.0;  stroke:#000000; stroke-width:150000.000000; stroke-opacity:1;  stroke-linecap:round; stroke-linejoin:round;"
     id="g360">
    <path
       d="M11949164 34963151 L30301754 39880713 "
       id="path10" />
    <path
       d="M30301754 39880713 L25384192 58233303 "
       id="path12" />
    <path
       d="M7031602 53315741 L11949164 34963151 "
       id="path14" />
    <path
       d="M7031602 53315741 L25384192 58233303 "
       id="path16" />
    <path
       d="M180296211 92695647 L197225335 84069827 "
       id="path18" />
    <path
       d="M197225335 84069827 L205851155 100998951 "
       id="path20" />
    <path
       d="M188922031 109624771 L180296211 92695647 "
       id="path22" />
    <path
       d="M188922031 109624771 L205851155 100998951 "
       id="path24" />
    <path
       d="M165023542 105553748 L181952666 96927928 "
       id="path26" />
    <path
       d="M181952666 96927928 L190578486 113857052 "
       id="path28" />
    <path
       d="M173649362 122482872 L165023542 105553748 "
       id="path30" />
    <path
       d="M173649362 122482872 L190578486 113857052 "
       id="path32" />
    <path
       d="M166914882 56007925 L183844006 47382105 "
       id="path34" />
    <path
       d="M183844006 47382105 L192469826 64311229 "
       id="path36" />
    <path
       d="M175540702 72937049 L166914882 56007925 "
       id="path38" />
    <path
       d="M175540702 72937049 L192469826 64311229 "
       id="path40" />
    <path
       d="M68162386 17790550 L85091510 26416370 "
       id="path42" />
    <path
       d="M85091510 26416370 L76465690 43345494 "
       id="path44" />
    <path
       d="M59536566 34719674 L68162386 17790550 "
       id="path46" />
    <path
       d="M59536566 34719674 L76465690 43345494 "
       id="path48" />
    <path
       d="M83510503 30455171 L100439627 39080991 "
       id="path50" />
    <path
       d="M100439627 39080991 L91813807 56010115 "
       id="path52" />
    <path
       d="M74884683 47384295 L83510503 30455171 "
       id="path54" />
    <path
       d="M74884683 47384295 L91813807 56010115 "
       id="path56" />
    <path
       d="M147987996 92131089 L164917120 83505269 "
       id="path58" />
    <path
       d="M164917120 83505269 L173542940 100434393 "
       id="path60" />
    <path
       d="M156613816 109060213 L147987996 92131089 "
       id="path62" />
    <path
       d="M156613816 109060213 L173542940 100434393 "
       id="path64" />
    <path
       d="M204500187 38590866 L222116680 31473341 "
       id="path66" />
    <path
       d="M222116680 31473341 L229234205 49089834 "
       id="path68" />
    <path
       d="M211617712 56207359 L204500187 38590866 "
       id="path70" />
    <path
       d="M211617712 56207359 L229234205 49089834 "
       id="path72" />
    <path
       d="M76776023 96930118 L93705147 105555938 "
       id="path74" />
    <path
       d="M93705147 105555938 L85079327 122485062 "
       id="path76" />
    <path
       d="M68150203 113859242 L76776023 96930118 "
       id="path78" />
    <path
       d="M68150203 113859242 L85079327 122485062 "
       id="path80" />
    <path
       d="M173426218 26493270 L190355342 17867450 "
       id="path82" />
    <path
       d="M190355342 17867450 L198981162 34796574 "
       id="path84" />
    <path
       d="M182052038 43422394 L173426218 26493270 "
       id="path86" />
    <path
       d="M182052038 43422394 L198981162 34796574 "
       id="path88" />
    <path
       d="M59536567 34719674 L76465691 43345494 "
       id="path90" />
    <path
       d="M76465691 43345494 L67839871 60274618 "
       id="path92" />
    <path
       d="M50910747 51648798 L59536567 34719674 "
       id="path94" />
    <path
       d="M50910747 51648798 L67839871 60274618 "
       id="path96" />
    <path
       d="M66258864 64313419 L83187988 72939239 "
       id="path98" />
    <path
       d="M83187988 72939239 L74562168 89868363 "
       id="path100" />
    <path
       d="M57633044 81242543 L66258864 64313419 "
       id="path102" />
    <path
       d="M57633044 81242543 L74562168 89868363 "
       id="path104" />
    <path
       d="M228216047 39958961 L246568637 35041399 "
       id="path106" />
    <path
       d="M246568637 35041399 L251486199 53393989 "
       id="path108" />
    <path
       d="M233133609 58311551 L228216047 39958961 "
       id="path110" />
    <path
       d="M233133609 58311551 L251486199 53393989 "
       id="path112" />
    <path
       d="M190677857 60351518 L207606981 51725698 "
       id="path114" />
    <path
       d="M207606981 51725698 L216232801 68654822 "
       id="path116" />
    <path
       d="M199303677 77280642 L190677857 60351518 "
       id="path118" />
    <path
       d="M199303677 77280642 L216232801 68654822 "
       id="path120" />
    <path
       d="M29283697 49012551 L46900190 56130076 "
       id="path122" />
    <path
       d="M46900190 56130076 L39782665 73746569 "
       id="path124" />
    <path
       d="M22166172 66629044 L29283697 49012551 "
       id="path126" />
    <path
       d="M22166172 66629044 L39782665 73746569 "
       id="path128" />
    <path
       d="M43518747 13779564 L61135240 20897089 "
       id="path130" />
    <path
       d="M61135240 20897089 L54017715 38513582 "
       id="path132" />
    <path
       d="M36401222 31396057 L43518747 13779564 "
       id="path134" />
    <path
       d="M36401222 31396057 L54017715 38513582 "
       id="path136" />
    <path
       d="M61503354 84072017 L78432478 92697837 "
       id="path138" />
    <path
       d="M78432478 92697837 L69806658 109626961 "
       id="path140" />
    <path
       d="M52877534 101001141 L61503354 84072017 "
       id="path142" />
    <path
       d="M52877534 101001141 L69806658 109626961 "
       id="path144" />
    <path
       d="M102015211 109046656 L85086087 100420836 "
       id="path146" />
    <path
       d="M85086087 100420836 L93711907 83491712 "
       id="path148" />
    <path
       d="M110641031 92117532 L102015211 109046656 "
       id="path150" />
    <path
       d="M110641031 92117532 L93711907 83491712 "
       id="path152" />
    <path
       d="M152798668 71098306 L169727792 62472486 "
       id="path154" />
    <path
       d="M169727792 62472486 L178353612 79401610 "
       id="path156" />
    <path
       d="M161424488 88027430 L152798668 71098306 "
       id="path158" />
    <path
       d="M161424488 88027430 L178353612 79401610 "
       id="path160" />
    <path
       d="M16859211 16592762 L35211801 21510324 "
       id="path162" />
    <path
       d="M35211801 21510324 L30294239 39862914 "
       id="path164" />
    <path
       d="M11941649 34945352 L16859211 16592762 "
       id="path166" />
    <path
       d="M11941649 34945352 L30294239 39862914 "
       id="path168" />
    <path
       d="M50910748 51648797 L67839872 60274617 "
       id="path170" />
    <path
       d="M67839872 60274617 L59214052 77203741 "
       id="path172" />
    <path
       d="M42284928 68577921 L50910748 51648797 "
       id="path174" />
    <path
       d="M42284928 68577921 L59214052 77203741 "
       id="path176" />
    <path
       d="M197382662 20974372 L214999155 13856847 "
       id="path178" />
    <path
       d="M214999155 13856847 L222116680 31473340 "
       id="path180" />
    <path
       d="M204500187 38590865 L197382662 20974372 "
       id="path182" />
    <path
       d="M204500187 38590865 L222116680 31473340 "
       id="path184" />
    <path
       d="M74884683 47384295 L91813807 56010115 "
       id="path186" />
    <path
       d="M91813807 56010115 L83187987 72939239 "
       id="path188" />
    <path
       d="M66258863 64313419 L74884683 47384295 "
       id="path190" />
    <path
       d="M66258863 64313419 L83187987 72939239 "
       id="path192" />
    <path
       d="M97626717 45545552 L114555841 54171372 "
       id="path194" />
    <path
       d="M114555841 54171372 L105930021 71100496 "
       id="path196" />
    <path
       d="M89000897 62474676 L97626717 45545552 "
       id="path198" />
    <path
       d="M89000897 62474676 L105930021 71100496 "
       id="path200" />
    <path
       d="M144172848 54169182 L161101972 45543362 "
       id="path202" />
    <path
       d="M161101972 45543362 L169727792 62472486 "
       id="path204" />
    <path
       d="M152798668 71098306 L144172848 54169182 "
       id="path206" />
    <path
       d="M152798668 71098306 L169727792 62472486 "
       id="path208" />
    <path
       d="M158289062 39078801 L175218186 30452981 "
       id="path210" />
    <path
       d="M175218186 30452981 L183844006 47382105 "
       id="path212" />
    <path
       d="M166914882 56007925 L158289062 39078801 "
       id="path214" />
    <path
       d="M166914882 56007925 L183844006 47382105 "
       id="path216" />
    <path
       d="M223292224 21603085 L241644814 16685523 "
       id="path218" />
    <path
       d="M241644814 16685523 L246562376 35038113 "
       id="path220" />
    <path
       d="M228209786 39955675 L223292224 21603085 "
       id="path222" />
    <path
       d="M228209786 39955675 L246562376 35038113 "
       id="path224" />
    <path
       d="M182052037 43422394 L198981161 34796574 "
       id="path226" />
    <path
       d="M198981161 34796574 L207606981 51725698 "
       id="path228" />
    <path
       d="M190677857 60351518 L182052037 43422394 "
       id="path230" />
    <path
       d="M190677857 60351518 L207606981 51725698 "
       id="path232" />
    <path
       d="M211617712 56207359 L229234205 49089834 "
       id="path234" />
    <path
       d="M229234205 49089834 L236351730 66706327 "
       id="path236" />
    <path
       d="M218735237 73823852 L211617712 56207359 "
       id="path238" />
    <path
       d="M218735237 73823852 L236351730 66706327 "
       id="path240" />
    <path
       d="M36401512 31396464 L54018005 38513989 "
       id="path242" />
    <path
       d="M54018005 38513989 L46900480 56130482 "
       id="path244" />
    <path
       d="M29283987 49012957 L36401512 31396464 "
       id="path246" />
    <path
       d="M29283987 49012957 L46900480 56130482 "
       id="path248" />
    <path
       d="M175540701 72937049 L192469825 64311229 "
       id="path250" />
    <path
       d="M192469825 64311229 L201095645 81240353 "
       id="path252" />
    <path
       d="M184166521 89866173 L175540701 72937049 "
       id="path254" />
    <path
       d="M184166521 89866173 L201095645 81240353 "
       id="path256" />
    <path
       d="M89000897 62474676 L105930021 71100496 "
       id="path258" />
    <path
       d="M105930021 71100496 L97304201 88029620 "
       id="path260" />
    <path
       d="M80375077 79403800 L89000897 62474676 "
       id="path262" />
    <path
       d="M80375077 79403800 L97304201 88029620 "
       id="path264" />
    <g
       id="g266" />
    <g
       id="g268" />
    <g
       id="g270" />
    <g
       id="g272" />
    <g
       id="g274" />
    <g
       id="g276" />
    <g
       id="g278" />
    <g
       id="g280" />
    <g
       id="g282" />
    <g
       id="g284" />
    <g
       id="g286" />
    <g
       id="g288" />
    <g
       id="g290" />
    <g
       id="g292" />
    <g
       id="g294" />
    <g
       id="g296" />
    <g
       id="g298" />
    <g
       id="g300" />
    <g
       id="g302" />
    <g
       id="g304" />
    <g
       id="g306" />
    <g
       id="g308" />
    <g
       id="g310" />
    <g
       id="g312" />
    <g
       id="g314" />
    <g
       id="g316" />
    <g
       id="g318" />
    <g
       id="g320" />
    <g
       id="g322" />
    <g
       id="g324" />
    <g
       id="g326" />
    <g
       id="g328" />
    <g
       id="g330" />
    <g
       id="g332" />
    <g
       id="g334" />
    <g
       id="g336" />
    <g
       id="g338" />
    <g
       id="g340" />
    <g
       id="g342" />
    <g
       id="g344" />
    <g
       id="g346" />
    <g
       id="g348" />
    <g
       id="g350" />
    <g
       id="g352" />
    <g
       id="g354" />
    <g
       id="g356" />
    <g
       id="g358" />
  </g>
  <g
     style="fill:#000000; fill-opacity:0.0;  stroke:#000000; stroke-width:150000.000000; stroke-opacity:1;  stroke-linecap:round; stroke-linejoin:round;"
     id="g386">
    <path
       d="M160675211.827641 47507101.548481 A1500117.000000 1500117.000000 0.0 0 0 161330732.321104 45489600.836419"
       id="path362" />
    <path
       d="M158587454.899951 37110754.803626 A1499946.000000 1499946.000000 0.0 0 0 157931931.140233 39128250.928541"
       id="path364" />
    <path
       d="M218423884.004179 20931573.271030 A1500016.000000 1500016.000000 0.0 0 0 220202906.877123 21818543.541424"
       id="path366" />
    <path
       d="M216016702 14706413 L218423902 20931566 "
       id="path368" />
    <path
       d="M85384136.598113 28906507.442119 A1508304.000000 1508304.000000 0.0 0 0 84794342.924503 26755891.148193"
       id="path370" />
    <path
       d="M87167055 119365083 L92964091 107987759 "
       id="path372" />
    <path
       d="M24536067 66638658 L61269869 81909756 "
       id="path374" />
    <path
       d="M85149564.644822 120020596.922145 A1499960.000000 1499960.000000 0.0 0 0 87167054.741950 119365083.868523"
       id="path376" />
    <path
       d="M54965262 97881163 L61925393 83927252 "
       id="path378" />
    <path
       d="M165378792.045840 107237891.854302 A119166990.000000 119166990.000000 0.0 0 0 93850423.044231 107237892.140586"
       id="path380" />
    <path
       d="M65935523.347017 22205284.421953 A1500131.000000 1500131.000000 0.0 0 0 67833950.840265 21495471.918598"
       id="path382" />
    <path
       d="M110274041 53366537 L148455173 53366537 "
       id="path384" />
  </g>
  <g
     style="fill:#000000; fill-opacity:0.0;  stroke:#000000; stroke-width:150000.000000; stroke-opacity:1;  stroke-linecap:round; stroke-linejoin:round;"
     id="g430">
    <path
       d="M7074974 52817537 L16521870 17561244 "
       id="path392" />
    <path
       d="M216016709.802218 14706409.848064 A1499939.000000 1499939.000000 0.0 0 0 214064016.008347 13877548.020656"
       id="path394" />
    <path
       d="M93850425.359920 107237899.500193 A1500104.000000 1500104.000000 0.0 0 0 92964090.424673 107987759.216401"
       id="path396" />
    <path
       d="M166265124 107987759 L172062160 119365083 "
       id="path398" />
    <path
       d="M97898482 45489601 L100765468 39782741 "
       id="path400" />
    <path
       d="M174079656 120020608 L186553747 113664741 "
       id="path402" />
    <path
       d="M194531516 21611524 L214064016 13877548 "
       id="path404" />
    <path
       d="M70538238 19492043 L84794343 26755892 "
       id="path406" />
    <path
       d="M157931931 39128251 L161330732 45489601 "
       id="path408" />
    <path
       d="M204108419.429018 99648640.215093 A1499975.000000 1499975.000000 0.0 0 0 204763954.147880 97631163.924651"
       id="path410" />
    <path
       d="M25231143.195135 60525273.751152 A1499988.000000 1499988.000000 0.0 0 0 24344137.984567 58746262.038200"
       id="path412" />
    <path
       d="M55620786 99898659 L71658903 108070488 "
       id="path414" />
    <path
       d="M23649150.661255 64859670.060684 A1499942.000000 1499942.000000 0.0 0 0 24536067.063003 66638657.844065"
       id="path416" />
    <path
       d="M18358977.814432 16500619.283444 A1500027.000000 1500027.000000 0.0 0 0 16521869.919663 17561242.978470"
       id="path418" />
    <path
       d="M174439749 26519397 L189928809 18898304 "
       id="path420" />
    <path
       d="M234281019.481033 58859947.390944 A1500031.000000 1500031.000000 0.0 0 0 233394047.580905 60638971.112294"
       id="path422" />
    <path
       d="M100765496.013916 39782755.269975 A1500162.000000 1500162.000000 0.0 0 0 100109943.068344 37765245.865896"
       id="path424" />
    <path
       d="M192633050.025585 20901756.935574 A1500021.000000 1500021.000000 0.0 0 0 194531516.011569 21611524.028633"
       id="path426" />
    <path
       d="M191946305 19553829 L192633097 20901733 "
       id="path428" />
  </g>
  <g
     style="fill:#000000; fill-opacity:0.0;  stroke:#000000; stroke-width:150000.000000; stroke-opacity:1;  stroke-linecap:round; stroke-linejoin:round;"
     id="g458">
    <path
       d="M173424057.981475 29532728.902944 A1006325.000000 1006325.000000 0.0 0 0 173794435.643588 28300834.151245"
       id="path436" />
    <path
       d="M70538250.439453 19492020.548521 A1500008.000000 1500008.000000 0.0 0 0 68520742.792778 20147567.894419"
       id="path438" />
    <path
       d="M40187462 20889317 L42999632 14671321 "
       id="path440" />
    <path
       d="M38408446.603282 21776335.801960 A1500004.000000 1500004.000000 0.0 0 0 40187461.817716 20889316.926358"
       id="path442" />
    <path
       d="M67833951 21495472 L68520743 20147568 "
       id="path444" />
    <path
       d="M220202907 21818544 L240657348 16535676 "
       id="path446" />
    <path
       d="M198498752.477465 81900753.793224 A1499948.000000 1499948.000000 0.0 0 0 197843250.876445 83918294.062965"
       id="path448" />
    <path
       d="M44952317 13842456 L65935532 22205263 "
       id="path450" />
    <path
       d="M108912075.428468 53039545.346257 A2999996.000000 2999996.000000 0.0 0 0 110274041.000000 53366536.999878"
       id="path452" />
    <path
       d="M235019394 65024852 L233394048 60638971 "
       id="path454" />
    <path
       d="M97898498.339071 45489609.326607 A1499896.000000 1499896.000000 0.0 0 0 98554005.953417 47507097.091437"
       id="path456" />
  </g>
  <g
     style="fill:#000000; fill-opacity:0.0;  stroke:#000000; stroke-width:150000.000000; stroke-opacity:1;  stroke-linecap:round; stroke-linejoin:round;"
     id="g506">
    <path
       d="M187070312 108070488 L204108429 99648659 "
       id="path468" />
    <path
       d="M198498775 81900798 L234132415 66803857 "
       id="path470" />
    <path
       d="M250880694.513124 54689729.254666 A1499999.000000 1499999.000000 0.0 0 0 251941360.133747 52852628.964164"
       id="path472" />
    <path
       d="M174439768.710244 26519435.678865 A1386899.000000 1386899.000000 0.0 0 0 173794435.540983 28300834.196452"
       id="path474" />
    <path
       d="M149817145 53039556 L160675209 47507096 "
       id="path476" />
    <path
       d="M8135635 54654654 L24344138 58746262 "
       id="path478" />
    <path
       d="M187209271 111647245 L186414788 110087984 "
       id="path480" />
    <path
       d="M85384177.460437 28906534.806859 A1205612.000000 1205612.000000 0.0 0 0 85659289.950694 30532741.064865"
       id="path482" />
    <path
       d="M72314459.573155 110088000.595198 A1500061.000000 1500061.000000 0.0 0 0 71658903.062149 108070487.878031"
       id="path484" />
    <path
       d="M234132405.562854 66803833.643110 A1500026.000000 1500026.000000 0.0 0 0 235019394.240668 65024851.935522"
       id="path486" />
    <path
       d="M72175468 113664741 L85149559 120020608 "
       id="path488" />
    <path
       d="M242494464 17596336 L251941360 52852629 "
       id="path490" />
    <path
       d="M54965251.404272 97881157.601253 A1500005.000000 1500005.000000 0.0 0 0 55620785.081347 99898657.840346"
       id="path492" />
    <path
       d="M23649087 64859653 L25231118 60525267 "
       id="path494" />
    <path
       d="M158587455 37110755 L173424066 29532741 "
       id="path496" />
    <path
       d="M234281027 58859966 L250880699 54689746 "
       id="path498" />
    <path
       d="M71519961.212535 111647253.770263 A1499998.000000 1499998.000000 0.0 0 0 72175467.886499 113664741.222752"
       id="path500" />
    <path
       d="M18358987 16500585 L38408457 21776297 "
       id="path502" />
    <path
       d="M85659290 30532741 L100109943 37765246 "
       id="path504" />
  </g>
  <g
     style="fill:#000000; fill-opacity:0.0;  stroke:#000000; stroke-width:150000.000000; stroke-opacity:1;  stroke-linecap:round; stroke-linejoin:round;"
     id="g514">
    <path
       d="M72314427 110087984 L71519944 111647245 "
       id="path512" />
  </g>
  <g
     style="fill:#000000; fill-opacity:0.0;  stroke:#000000; stroke-width:150000.000000; stroke-opacity:1;  stroke-linecap:round; stroke-linejoin:round;"
     id="g542">
    <path
       d="M187070324.438827 108070512.410843 A1500043.000000 1500043.000000 0.0 0 0 186414788.137749 110087983.929822"
       id="path522" />
    <path
       d="M7074948.618205 52817530.199424 A1500025.000000 1500025.000000 0.0 0 0 8135634.891577 54654654.404641"
       id="path524" />
    <path
       d="M166265134.355688 107987753.722570 A1500231.000000 1500231.000000 0.0 0 0 165378792.010803 107237891.965670"
       id="path526" />
    <path
       d="M197843251 83918294 L204763953 97631163 "
       id="path528" />
    <path
       d="M186553751.895778 113664750.608530 A1499999.000000 1499999.000000 0.0 0 0 187209271.350157 111647244.821582"
       id="path530" />
    <path
       d="M61925437.796918 83927274.820697 A1500119.000000 1500119.000000 0.0 0 0 61269868.845602 81909756.302990"
       id="path532" />
    <path
       d="M172062174.257138 119365076.736072 A1499963.000000 1499963.000000 0.0 0 0 174079656.045876 120020608.090034"
       id="path534" />
    <path
       d="M191946364.104967 19553798.886137 A1499968.000000 1499968.000000 0.0 0 0 189928809.183958 18898304.360980"
       id="path536" />
    <path
       d="M44952323.944606 13842438.808284 A1500097.000000 1500097.000000 0.0 0 0 42999631.729857 14671321.890839"
       id="path538" />
    <path
       d="M98554006 47507097 L108912070 53039556 "
       id="path540" />
  </g>
  <g
     style="fill:#000000; fill-opacity:0.0;  stroke:#000000; stroke-width:150000.000000; stroke-opacity:1;  stroke-linecap:round; stroke-linejoin:round;"
     id="g552">
    <path
       d="M148455172.999937 53366538.998496 A2999598.000000 2999598.000000 0.0 0 0 149817145.220609 53039557.432934"
       id="path548" />
    <path
       d="M242494506.696231 17596324.557384 A1500071.000000 1500071.000000 0.0 0 0 240657348.115125 16535676.429685"
       id="path550" />
  </g>
  <g
     style="fill:#000000; fill-opacity:0.0;  stroke:#000000; stroke-width:120000.000000; stroke-opacity:1;  stroke-linecap:round; stroke-linejoin:round;"
     id="g904">
    <path
       d="M23626085 55174029 L10103123 51550563 "
       id="path554" />
    <path
       d="M27256622 41663315 L23626085 55174029 "
       id="path556" />
    <path
       d="M10103123 51550563 L13738837 38020530 "
       id="path558" />
    <path
       d="M13738837 38020530 L27256622 41663315 "
       id="path560" />
    <path
       d="M202497572 99901871 L190023481 106257738 "
       id="path562" />
    <path
       d="M196155155 87432150 L202497572 99901871 "
       id="path564" />
    <path
       d="M190023481 106257738 L183671984 93770197 "
       id="path566" />
    <path
       d="M183671984 93770197 L196155155 87432150 "
       id="path568" />
    <path
       d="M187224903 112759972 L174750812 119115839 "
       id="path570" />
    <path
       d="M180882486 100290251 L187224903 112759972 "
       id="path572" />
    <path
       d="M174750812 119115839 L168399315 106628298 "
       id="path574" />
    <path
       d="M168399315 106628298 L180882486 100290251 "
       id="path576" />
    <path
       d="M189116243 63214149 L176642152 69570016 "
       id="path578" />
    <path
       d="M182773826 50744428 L189116243 63214149 "
       id="path580" />
    <path
       d="M176642152 69570016 L170290655 57082475 "
       id="path582" />
    <path
       d="M170290655 57082475 L182773826 50744428 "
       id="path584" />
    <path
       d="M75382060 39987541 L62907969 33631674 "
       id="path586" />
    <path
       d="M81742297 27526900 L75382060 39987541 "
       id="path588" />
    <path
       d="M62907969 33631674 L69277286 21153213 "
       id="path590" />
    <path
       d="M69277286 21153213 L81742297 27526900 "
       id="path592" />
    <path
       d="M90730177 52652162 L78256086 46296295 "
       id="path594" />
    <path
       d="M97090414 40191521 L90730177 52652162 "
       id="path596" />
    <path
       d="M78256086 46296295 L84625403 33817834 "
       id="path598" />
    <path
       d="M84625403 33817834 L97090414 40191521 "
       id="path600" />
    <path
       d="M170189357 99337313 L157715266 105693180 "
       id="path602" />
    <path
       d="M163846940 86867592 L170189357 99337313 "
       id="path604" />
    <path
       d="M157715266 105693180 L151363769 93205639 "
       id="path606" />
    <path
       d="M151363769 93205639 L163846940 86867592 "
       id="path608" />
    <path
       d="M225989001 47704645 L213008427 52949137 "
       id="path610" />
    <path
       d="M220757527 34729597 L225989001 47704645 "
       id="path612" />
    <path
       d="M213008427 52949137 L207769460 39955545 "
       id="path614" />
    <path
       d="M207769460 39955545 L220757527 34729597 "
       id="path616" />
    <path
       d="M83995697 119127109 L71521606 112771242 "
       id="path618" />
    <path
       d="M90355934 106666468 L83995697 119127109 "
       id="path620" />
    <path
       d="M71521606 112771242 L77890923 100292781 "
       id="path622" />
    <path
       d="M77890923 100292781 L90355934 106666468 "
       id="path624" />
    <path
       d="M195627579 33699494 L183153488 40055361 "
       id="path626" />
    <path
       d="M189285162 21229773 L195627579 33699494 "
       id="path628" />
    <path
       d="M183153488 40055361 L176801991 27567820 "
       id="path630" />
    <path
       d="M176801991 27567820 L189285162 21229773 "
       id="path632" />
    <path
       d="M66756241 56916665 L54282150 50560798 "
       id="path634" />
    <path
       d="M73116478 44456024 L66756241 56916665 "
       id="path636" />
    <path
       d="M54282150 50560798 L60651467 38082337 "
       id="path638" />
    <path
       d="M60651467 38082337 L73116478 44456024 "
       id="path640" />
    <path
       d="M73478538 86510410 L61004447 80154543 "
       id="path642" />
    <path
       d="M79838775 74049769 L73478538 86510410 "
       id="path644" />
    <path
       d="M61004447 80154543 L67373764 67676082 "
       id="path646" />
    <path
       d="M67373764 67676082 L79838775 74049769 "
       id="path648" />
    <path
       d="M248433996 51623634 L234911035 55247101 "
       id="path650" />
    <path
       d="M244822777 38107744 L248433996 51623634 "
       id="path652" />
    <path
       d="M234911035 55247101 L231294639 41711892 "
       id="path654" />
    <path
       d="M231294639 41711892 L244822777 38107744 "
       id="path656" />
    <path
       d="M212879218 67557742 L200405127 73913609 "
       id="path658" />
    <path
       d="M206536801 55088021 L212879218 67557742 "
       id="path660" />
    <path
       d="M200405127 73913609 L194053630 61426068 "
       id="path662" />
    <path
       d="M194053630 61426068 L206536801 55088021 "
       id="path664" />
    <path
       d="M38410494 70495839 L25429920 65251347 "
       id="path666" />
    <path
       d="M43660512 57528283 L38410494 70495839 "
       id="path668" />
    <path
       d="M25429920 65251347 L30687430 52265247 "
       id="path670" />
    <path
       d="M30687430 52265247 L43660512 57528283 "
       id="path672" />
    <path
       d="M52645544 35262852 L39664970 30018360 "
       id="path674" />
    <path
       d="M57895562 22295296 L52645544 35262852 "
       id="path676" />
    <path
       d="M39664970 30018360 L44922480 17032260 "
       id="path678" />
    <path
       d="M44922480 17032260 L57895562 22295296 "
       id="path680" />
    <path
       d="M68723028 106269008 L56248937 99913141 "
       id="path682" />
    <path
       d="M75083265 93808367 L68723028 106269008 "
       id="path684" />
    <path
       d="M56248937 99913141 L62618254 87434680 "
       id="path686" />
    <path
       d="M62618254 87434680 L75083265 93808367 "
       id="path688" />
    <path
       d="M94795537 86849665 L107269628 93205532 "
       id="path690" />
    <path
       d="M88435300 99310306 L94795537 86849665 "
       id="path692" />
    <path
       d="M107269628 93205532 L100900311 105683993 "
       id="path694" />
    <path
       d="M100900311 105683993 L88435300 99310306 "
       id="path696" />
    <path
       d="M175000029 78304530 L162525938 84660397 "
       id="path698" />
    <path
       d="M168657612 65834809 L175000029 78304530 "
       id="path700" />
    <path
       d="M162525938 84660397 L156174441 72172856 "
       id="path702" />
    <path
       d="M156174441 72172856 L168657612 65834809 "
       id="path704" />
    <path
       d="M28536132 36803640 L15013170 33180174 "
       id="path706" />
    <path
       d="M32166669 23292926 L28536132 36803640 "
       id="path708" />
    <path
       d="M15013170 33180174 L18648884 19650141 "
       id="path710" />
    <path
       d="M18648884 19650141 L32166669 23292926 "
       id="path712" />
    <path
       d="M58130422 73845788 L45656331 67489921 "
       id="path714" />
    <path
       d="M64490659 61385147 L58130422 73845788 "
       id="path716" />
    <path
       d="M45656331 67489921 L52025648 55011460 "
       id="path718" />
    <path
       d="M52025648 55011460 L64490659 61385147 "
       id="path720" />
    <path
       d="M218871476 30088151 L205890902 35332643 "
       id="path722" />
    <path
       d="M213640002 17113103 L218871476 30088151 "
       id="path724" />
    <path
       d="M205890902 35332643 L200651935 22339051 "
       id="path726" />
    <path
       d="M200651935 22339051 L213640002 17113103 "
       id="path728" />
    <path
       d="M82104357 69581286 L69630266 63225419 "
       id="path730" />
    <path
       d="M88464594 57120645 L82104357 69581286 "
       id="path732" />
    <path
       d="M69630266 63225419 L75999583 50746958 "
       id="path734" />
    <path
       d="M75999583 50746958 L88464594 57120645 "
       id="path736" />
    <path
       d="M104846391 67742543 L92372300 61386676 "
       id="path738" />
    <path
       d="M111206628 55281902 L104846391 67742543 "
       id="path740" />
    <path
       d="M92372300 61386676 L98741617 48908215 "
       id="path742" />
    <path
       d="M98741617 48908215 L111206628 55281902 "
       id="path744" />
    <path
       d="M166374209 61375406 L153900118 67731273 "
       id="path746" />
    <path
       d="M160031792 48905685 L166374209 61375406 "
       id="path748" />
    <path
       d="M153900118 67731273 L147548621 55243732 "
       id="path750" />
    <path
       d="M147548621 55243732 L160031792 48905685 "
       id="path752" />
    <path
       d="M180490423 46285025 L168016332 52640892 "
       id="path754" />
    <path
       d="M174148006 33815304 L180490423 46285025 "
       id="path756" />
    <path
       d="M168016332 52640892 L161664835 40153351 "
       id="path758" />
    <path
       d="M161664835 40153351 L174148006 33815304 "
       id="path760" />
    <path
       d="M243510173 33267758 L229987212 36891225 "
       id="path762" />
    <path
       d="M239898954 19751868 L243510173 33267758 "
       id="path764" />
    <path
       d="M229987212 36891225 L226370816 23356016 "
       id="path766" />
    <path
       d="M226370816 23356016 L239898954 19751868 "
       id="path768" />
    <path
       d="M204253398 50628618 L191779307 56984485 "
       id="path770" />
    <path
       d="M197910981 38158897 L204253398 50628618 "
       id="path772" />
    <path
       d="M191779307 56984485 L185427810 44496944 "
       id="path774" />
    <path
       d="M185427810 44496944 L197910981 38158897 "
       id="path776" />
    <path
       d="M233106526 65321138 L220125952 70565630 "
       id="path778" />
    <path
       d="M227875052 52346090 L233106526 65321138 "
       id="path780" />
    <path
       d="M220125952 70565630 L214886985 57572038 "
       id="path782" />
    <path
       d="M214886985 57572038 L227875052 52346090 "
       id="path784" />
    <path
       d="M45528309 52879752 L32547735 47635260 "
       id="path786" />
    <path
       d="M50778327 39912196 L45528309 52879752 "
       id="path788" />
    <path
       d="M32547735 47635260 L37805245 34649160 "
       id="path790" />
    <path
       d="M37805245 34649160 L50778327 39912196 "
       id="path792" />
    <path
       d="M197742062 80143273 L185267971 86499140 "
       id="path794" />
    <path
       d="M191399645 67673552 L197742062 80143273 "
       id="path796" />
    <path
       d="M185267971 86499140 L178916474 74011599 "
       id="path798" />
    <path
       d="M178916474 74011599 L191399645 67673552 "
       id="path800" />
    <path
       d="M96220571 84671667 L83746480 78315800 "
       id="path802" />
    <path
       d="M102580808 72211026 L96220571 84671667 "
       id="path804" />
    <path
       d="M83746480 78315800 L90115797 65837339 "
       id="path806" />
    <path
       d="M90115797 65837339 L102580808 72211026 "
       id="path808" />
    <g
       id="g810" />
    <g
       id="g812" />
    <g
       id="g814" />
    <g
       id="g816" />
    <g
       id="g818" />
    <g
       id="g820" />
    <g
       id="g822" />
    <g
       id="g824" />
    <g
       id="g826" />
    <g
       id="g828" />
    <g
       id="g830" />
    <g
       id="g832" />
    <g
       id="g834" />
    <g
       id="g836" />
    <g
       id="g838" />
    <g
       id="g840" />
    <g
       id="g842" />
    <g
       id="g844" />
    <g
       id="g846" />
    <g
       id="g848" />
    <g
       id="g850" />
    <g
       id="g852" />
    <g
       id="g854" />
    <g
       id="g856" />
    <g
       id="g858" />
    <g
       id="g860" />
    <g
       id="g862" />
    <g
       id="g864" />
    <g
       id="g866" />
    <g
       id="g868" />
    <g
       id="g870" />
    <g
       id="g872" />
    <g
       id="g874" />
    <g
       id="g876" />
    <g
       id="g878" />
    <g
       id="g880" />
    <g
       id="g882" />
    <g
       id="g884" />
    <g
       id="g886" />
    <g
       id="g888" />
    <g
       id="g890" />
    <g
       id="g892" />
    <g
       id="g894" />
    <g
       id="g896" />
    <g
       id="g898" />
    <g
       id="g900" />
    <g
       id="g902" />
  </g>
</svg>
