<?xml version="1.0" standalone="no"?>
 <!DOCTYPE svg PUBLIC "-//W3C//DTD SVG 1.1//EN" 
 "http://www.w3.org/Graphics/SVG/1.1/DTD/svg11.dtd"> 
<svg
  xmlns:svg="http://www.w3.org/2000/svg"
  xmlns="http://www.w3.org/2000/svg"
  xmlns:xlink="http://www.w3.org/1999/xlink"
  version="1.1"
  width="30.444440cm" height="13.500100cm" viewBox="0 0 304444400 135001000">
<title>SVG Picture created as Batreeq36 - Plate-brd.svg date 2023/01/07 11:53:38 </title>
  <desc>Picture generated by PCBNEW </desc>
<g style="fill:#000000; fill-opacity:1.000000;stroke:#000000; stroke-opacity:1.000000;
stroke-linecap:round; stroke-linejoin:round;"
 transform="translate(0 0) scale(1 1)">
</g>
<g style="fill:#000000; fill-opacity:0.0; 
stroke:#000000; stroke-width:0.000000; stroke-opacity:1; 
stroke-linecap:round; stroke-linejoin:round;">
</g>
<g style="fill:#000000; fill-opacity:0.0; 
stroke:#000000; stroke-width:160000.000000; stroke-opacity:1; 
stroke-linecap:round; stroke-linejoin:round;">
<path d="M146607566 102558707
L156607566 102558707
" />
<path d="M156607566 102558707
L156607566 112558707
" />
<path d="M156607566 112558707
L146607566 112558707
" />
<path d="M146607566 112558707
L146607566 102558707
" />
</g>
<g style="fill:#000000; fill-opacity:0.0; 
stroke:#000000; stroke-width:150000.000000; stroke-opacity:1; 
stroke-linecap:round; stroke-linejoin:round;">
<path d="M180840655 133561043
L161840655 133561043
" />
<path d="M161840655 133561043
L161840655 114561043
" />
<path d="M180840655 114561043
L180840655 133561043
" />
<path d="M180840655 114561043
L161840655 114561043
" />
<path d="M286523094 61040064
L268170504 65957626
" />
<path d="M268170504 65957626
L263252942 47605036
" />
<path d="M281605532 42687474
L286523094 61040064
" />
<path d="M281605532 42687474
L263252942 47605036
" />
<path d="M80771266 97868610
L63842142 89242790
" />
<path d="M63842142 89242790
L72467962 72313666
" />
<path d="M89397086 80939486
L80771266 97868610
" />
<path d="M89397086 80939486
L72467962 72313666
" />
<path d="M281594740 42636739
L263242150 47554301
" />
<path d="M263242150 47554301
L258324588 29201711
" />
<path d="M276677178 24284149
L281594740 42636739
" />
<path d="M276677178 24284149
L258324588 29201711
" />
<path d="M197852205 48983881
L180923081 57609701
" />
<path d="M180923081 57609701
L172297261 40680577
" />
<path d="M189226385 32054757
L197852205 48983881
" />
<path d="M189226385 32054757
L172297261 40680577
" />
<path d="M214154379 38941785
L197225255 47567605
" />
<path d="M197225255 47567605
L188599435 30638481
" />
<path d="M205528559 22012661
L214154379 38941785
" />
<path d="M205528559 22012661
L188599435 30638481
" />
<path d="M35137545 65846120
L16784955 60928558
" />
<path d="M16784955 60928558
L21702517 42575968
" />
<path d="M40055107 47493530
L35137545 65846120
" />
<path d="M40055107 47493530
L21702517 42575968
" />
<path d="M302554900 47020499
L284202310 51938061
" />
<path d="M284202310 51938061
L279284748 33585471
" />
<path d="M297637338 28667909
L302554900 47020499
" />
<path d="M297637338 28667909
L279284748 33585471
" />
<path d="M23921857 33288002
L5569267 28370440
" />
<path d="M5569267 28370440
L10486829 10017850
" />
<path d="M28839419 14935412
L23921857 33288002
" />
<path d="M28839419 14935412
L10486829 10017850
" />
<path d="M239974127 89858696
L223045003 98484516
" />
<path d="M223045003 98484516
L214419183 81555392
" />
<path d="M231348307 72929572
L239974127 89858696
" />
<path d="M231348307 72929572
L214419183 81555392
" />
<path d="M83463317 49529040
L66534193 40903220
" />
<path d="M66534193 40903220
L75160013 23974096
" />
<path d="M92089137 32599916
L83463317 49529040
" />
<path d="M92089137 32599916
L75160013 23974096
" />
<path d="M105868656 90866368
L88939532 82240548
" />
<path d="M88939532 82240548
L97565352 65311424
" />
<path d="M114494476 73937244
L105868656 90866368
" />
<path d="M114494476 73937244
L97565352 65311424
" />
<path d="M19026983 51622120
L674393 46704558
" />
<path d="M674393 46704558
L5591955 28351968
" />
<path d="M23944545 33269530
L19026983 51622120
" />
<path d="M23944545 33269530
L5591955 28351968
" />
<path d="M123147957 57080663
L106218833 48454843
" />
<path d="M106218833 48454843
L114844653 31525719
" />
<path d="M131773777 40151539
L123147957 57080663
" />
<path d="M131773777 40151539
L114844653 31525719
" />
<path d="M40007169 47431045
L21654579 42513483
" />
<path d="M21654579 42513483
L26572141 24160893
" />
<path d="M44924731 29078455
L40007169 47431045
" />
<path d="M44924731 29078455
L26572141 24160893
" />
<path d="M142235071 133561044
L123235071 133561044
" />
<path d="M123235071 133561044
L123235071 114561044
" />
<path d="M142235071 114561044
L142235071 133561044
" />
<path d="M142235071 114561044
L123235071 114561044
" />
<path d="M265474623 55886988
L247858130 63004513
" />
<path d="M247858130 63004513
L240740605 45388020
" />
<path d="M258357098 38270495
L265474623 55886988
" />
<path d="M258357098 38270495
L240740605 45388020
" />
<path d="M92089134 32599919
L75160010 23974099
" />
<path d="M75160010 23974099
L83785830 7044975
" />
<path d="M100714954 15670795
L92089134 32599919
" />
<path d="M100714954 15670795
L83785830 7044975
" />
<path d="M245355343 57835408
L228426219 66461228
" />
<path d="M228426219 66461228
L219800399 49532104
" />
<path d="M236729523 40906284
L245355343 57835408
" />
<path d="M236729523 40906284
L219800399 49532104
" />
<path d="M161515067 133557736
L142515067 133557736
" />
<path d="M142515067 133557736
L142515067 114557736
" />
<path d="M161515067 114557736
L161515067 133557736
" />
<path d="M161515067 114557736
L142515067 114557736
" />
<path d="M206478024 65913007
L189548900 74538827
" />
<path d="M189548900 74538827
L180923080 57609703
" />
<path d="M197852204 48983883
L206478024 65913007
" />
<path d="M197852204 48983883
L180923080 57609703
" />
<path d="M231406015 72800037
L214476891 81425857
" />
<path d="M214476891 81425857
L205851071 64496733
" />
<path d="M222780195 55870913
L231406015 72800037
" />
<path d="M222780195 55870913
L205851071 64496733
" />
<path d="M97141590 107906497
L80212466 99280677
" />
<path d="M80212466 99280677
L88838286 82351553
" />
<path d="M105767410 90977373
L97141590 107906497
" />
<path d="M105767410 90977373
L88838286 82351553
" />
<path d="M228103707 23977161
L211174583 32602981
" />
<path d="M211174583 32602981
L202548763 15673857
" />
<path d="M219477887 7048037
L228103707 23977161
" />
<path d="M219477887 7048037
L202548763 15673857
" />
<path d="M98082521 63826024
L81153397 55200204
" />
<path d="M81153397 55200204
L89779217 38271080
" />
<path d="M106708341 46896900
L98082521 63826024
" />
<path d="M106708341 46896900
L89779217 38271080
" />
<path d="M251239576 20654001
L233623083 27771526
" />
<path d="M233623083 27771526
L226505558 10155033
" />
<path d="M244122051 3037508
L251239576 20654001
" />
<path d="M244122051 3037508
L226505558 10155033
" />
<path d="M89456704 80755149
L72527580 72129329
" />
<path d="M72527580 72129329
L81153400 55200205
" />
<path d="M98082524 63826025
L89456704 80755149
" />
<path d="M98082524 63826025
L81153400 55200205
" />
<path d="M215114653 82945872
L198185529 91571692
" />
<path d="M198185529 91571692
L189559709 74642568
" />
<path d="M206488833 66016748
L215114653 82945872
" />
<path d="M206488833 66016748
L189559709 74642568
" />
<path d="M222780196 55870909
L205851072 64496729
" />
<path d="M205851072 64496729
L197225252 47567605
" />
<path d="M214154376 38941785
L222780196 55870909
" />
<path d="M214154376 38941785
L197225252 47567605
" />
<path d="M113004485 118874204
L96075361 110248384
" />
<path d="M96075361 110248384
L104701181 93319260
" />
<path d="M121630305 101945080
L113004485 118874204
" />
<path d="M121630305 101945080
L104701181 93319260
" />
<path d="M258357097 38270493
L240740604 45388018
" />
<path d="M240740604 45388018
L233623079 27771525
" />
<path d="M251239572 20654000
L258357097 38270493
" />
<path d="M251239572 20654000
L233623079 27771525
" />
<path d="M74837495 66458166
L57908371 57832346
" />
<path d="M57908371 57832346
L66534191 40903222
" />
<path d="M83463315 49529042
L74837495 66458166
" />
<path d="M83463315 49529042
L66534191 40903222
" />
<path d="M276668515 24276693
L258315925 29194255
" />
<path d="M258315925 29194255
L253398363 10841665
" />
<path d="M271750953 5924103
L276668515 24276693
" />
<path d="M271750953 5924103
L253398363 10841665
" />
<path d="M69640982 27767696
L52024489 20650171
" />
<path d="M52024489 20650171
L59142014 3033678
" />
<path d="M76758507 10151203
L69640982 27767696
" />
<path d="M76758507 10151203
L59142014 3033678
" />
<path d="M297587536 28613793
L279234946 33531355
" />
<path d="M279234946 33531355
L274317384 15178765
" />
<path d="M292669974 10261203
L297587536 28613793
" />
<path d="M292669974 10261203
L274317384 15178765
" />
<path d="M114522135 74009786
L97593011 65383966
" />
<path d="M97593011 65383966
L106218831 48454842
" />
<path d="M123147955 57080662
L114522135 74009786
" />
<path d="M123147955 57080662
L106218831 48454842
" />
<path d="M207918155 111035151
L190989031 119660971
" />
<path d="M190989031 119660971
L182363211 102731847
" />
<path d="M199292335 94106027
L207918155 111035151
" />
<path d="M199292335 94106027
L182363211 102731847
" />
<path d="M236729527 40906286
L219800403 49532106
" />
<path d="M219800403 49532106
L211174583 32602982
" />
<path d="M228103707 23977162
L236729527 40906286
" />
<path d="M228103707 23977162
L211174583 32602982
" />
<path d="M223801093 99980833
L206871969 108606653
" />
<path d="M206871969 108606653
L198246149 91677529
" />
<path d="M215175273 83051709
L223801093 99980833
" />
<path d="M215175273 83051709
L198246149 91677529
" />
<path d="M55405934 63000683
L37789441 55883158
" />
<path d="M37789441 55883158
L44906966 38266665
" />
<path d="M62523459 45384190
L55405934 63000683
" />
<path d="M62523459 45384190
L44906966 38266665
" />
<path d="M44917220 29060654
L26564630 24143092
" />
<path d="M26564630 24143092
L31482192 5790502
" />
<path d="M49834782 10708064
L44917220 29060654
" />
<path d="M49834782 10708064
L31482192 5790502
" />
<path d="M106708343 46896898
L89779219 38271078
" />
<path d="M89779219 38271078
L98405039 21341954
" />
<path d="M115334163 29967774
L106708343 46896898
" />
<path d="M115334163 29967774
L98405039 21341954
" />
<path d="M62523748 45384598
L44907255 38267073
" />
<path d="M44907255 38267073
L52024780 20650580
" />
<path d="M69641273 27768105
L62523748 45384598
" />
<path d="M69641273 27768105
L52024780 20650580
" />
</g>
<g style="fill:#000000; fill-opacity:0.0; 
stroke:#000000; stroke-width:200000.000000; stroke-opacity:1; 
stroke-linecap:round; stroke-linejoin:round;">
<path d="M120113580 12891933
L115994565 18998623
" />
<path d="M115994565 18998623
L111783054 16157923
" />
<path d="M111783054 16157923
L115902069 10051233
" />
<path d="M115902069 10051233
L120113580 12891933
" />
</g>
<g style="fill:#000000; fill-opacity:0.0; 
stroke:#000000; stroke-width:120000.000000; stroke-opacity:1; 
stroke-linecap:round; stroke-linejoin:round;">
<path d="M166426866 22823892
L166727773 23223210
" />
<path d="M185888396 27879714
L177462986 16698817
" />
<path d="M163385616 26680808
L166580158 24273548
" />
<path d="M163238000 27731146
L171362503 38512725
" />
<path d="M176958629 36800014
L176657721 36400696
" />
<path d="M191334068 25967343
L180802305 11991222
" />
<path d="M177103405 34499679
L185888396 27879714
" />
<path d="M168677995 23318782
L177103405 34499679
" />
<path d="M175607383 36253080
L172412841 38660341
" />
<path d="M178008966 36947629
L191186452 27017681
" />
<path d="M177462986 16698817
L168677995 23318782
" />
<path d="M179751967 11843606
L166574481 21773554
" />
<path d="M176657720.894128 36400696.079781 A750000.000000 750000.000000 0.0 0 0 175607383.079781 36253080.105872" />
<path d="M163385616.079781 26680808.105872 A750000.000000 750000.000000 0.0 0 0 163238000.105872 27731145.920219" />
<path d="M176958628.948685 36800014.038669 A750000.000000 750000.000000 0.0 0 0 178008965.920219 36947628.894128" />
<path d="M166574481.681595 21773554.904508 A749999.000000 749999.000000 0.0 0 0 166426866.266689 22823891.799035" />
<path d="M191186451.920219 27017680.894128 A750000.000000 750000.000000 0.0 0 0 191334067.894128 25967343.079781" />
<path d="M171362503.105872 38512724.920219 A750000.000000 750000.000000 0.0 0 0 172412840.920219 38660340.894128" />
<path d="M180802304.576122 11991222.319414 A749999.000000 749999.000000 0.0 0 0 179751967.200965 11843606.266689" />
<path d="M166580157.558038 24273547.413497 A750000.000000 750000.000000 0.0 0 0 166727772.894128 23223210.079781" />
<circle cx="179809687.000000" cy="15243484.000000" r="1250000.000000" /> 
<circle cx="187934190.000000" cy="26025063.000000" r="1250001.000000" /> 
</g>
<g style="fill:#000000; fill-opacity:0.0; 
stroke:#000000; stroke-width:50000.000000; stroke-opacity:1; 
stroke-linecap:round; stroke-linejoin:round;">
<path d="M187201229 19257907
L180662458 9919574
" />
<path d="M194901259 13866288
L187201229 19257907
" />
<path d="M188362487 4527955
L194901259 13866288
" />
<path d="M180662458 9919574
L188362487 4527955
" />
<g >
</g>
<g >
</g>
<g >
</g>
<g >
</g>
<g >
</g>
<g >
</g>
<g >
</g>
<g >
</g>
<g >
</g>
<g >
</g>
<g >
</g>
<g >
</g>
<g >
</g>
<g >
</g>
<g >
</g>
<g >
</g>
<g >
</g>
<g >
</g>
<g >
</g>
<g >
</g>
<g >
</g>
<g >
</g>
<g >
</g>
<g >
</g>
<g >
</g>
<g >
</g>
<g >
</g>
<g >
</g>
<g >
</g>
<g >
</g>
<g >
</g>
<g >
</g>
<g >
</g>
<g >
</g>
<g >
</g>
<g >
</g>
<g >
</g>
<g >
</g>
<g >
</g>
<g >
</g>
<g >
</g>
<g >
</g>
<g >
</g>
<g >
</g>
<g >
</g>
<g >
</g>
<g >
</g>
<g >
</g>
<g >
</g>
<g >
</g>
<g >
</g>
<g >
</g>
<g >
</g>
<g >
</g>
<g >
</g>
<g >
</g>
<g >
</g>
<g >
</g>
<g >
</g>
<g >
</g>
<g >
</g>
<g >
</g>
<g >
</g>
<g >
</g>
<g >
</g>
<g >
</g>
<g >
</g>
<g >
</g>
<g >
</g>
<g >
</g>
<g >
</g>
<g >
</g>
<g >
</g>
<g >
</g>
<g >
</g>
<g >
</g>
<g >
</g>
<g >
</g>
<g >
</g>
<g >
</g>
<g >
</g>
<g >
</g>
</g>
<g style="fill:#000000; fill-opacity:0.0; 
stroke:#000000; stroke-width:50000.000000; stroke-opacity:1; 
stroke-linecap:round; stroke-linejoin:round;">
<path d="M241519816.584185 96108680.374728 A3488031.000000 3488031.000000 0.0 0 0 243170819.920359 91282688.042519" />
<path d="M49333990.820975 7732349.078671 A685884.000000 685884.000000 0.0 0 0 50006238.770018 7555340.771619" />
<path d="M158583563 88996686
L158583562 82296685
" />
<path d="M121757440.730190 5295416.338646 A2898803.000000 2898803.000000 0.0 0 0 118451562.807026 6350683.862203" />
<path d="M61334673.942995 91295054.113930 A3487973.000000 3487973.000000 0.0 0 0 62985654.847709 96121044.339976" />
<path d="M121757464.120805 5295348.720860 A76785166.000000 76785166.000000 0.0 0 0 182751923.830188 5295349.607620" />
<path d="M30854655 5443044
L29076655 12301044
" />
<path d="M273650844.228266 5430675.631216 A1145554.000000 1145554.000000 0.0 0 0 272126819.933217 4922687.863599" />
<path d="M11042654.992637 9507044.125263 A1214743.000000 1214743.000000 0.0 0 0 9772655.123824 10523044.020313" />
<path d="M120654.780159 46591043.863126 A633102.000000 633102.000000 0.0 0 0 648710.994863 47558693.346272" />
<path d="M243170820 91282688
L237582820 80106688
" />
<path d="M238086914 77820688
L287112820 61818688
" />
<path d="M80054211 8668687
L58873477 81716
" />
<path d="M183861829.101841 125064707.663622 A3686445.000000 3686445.000000 0.0 0 0 181730654.967775 128633044.001952" />
<path d="M294732778.057411 10510694.880633 A1214746.000000 1214746.000000 0.0 0 0 293462820.027880 9494688.474608" />
<path d="M303856764 47546337
L286812285 51988952
" />
<path d="M221867913.207572 4592330.453453 A464448.000000 464448.000000 0.0 0 0 221359911.054701 4338329.278079" />
<path d="M223899987.873470 8402297.456981 A448552.000000 448552.000000 0.0 0 0 224451263.919840 8656330.750910" />
<path d="M246169580.770026 149011.794951 A503544.000000 503544.000000 0.0 0 0 245631998.204397 69360.454163" />
<path d="M193927923 17546317
L186053922 6338315
" />
<path d="M16376655 60053044
L18113613 52749413
" />
<path d="M80054208.025571 8668696.241648 A448626.000000 448626.000000 0.0 0 0 80605565.273532 8414686.114355" />
<path d="M83145565.986585 4350674.896058 A464495.000000 464495.000000 0.0 0 0 82637565.068464 4604688.033015" />
<path d="M181730655 133713044
L181730655 128633044
" />
<path d="M109561565 17812685
L83145564 4350685
" />
<path d="M221359911 4338329
L194943910 17800329
" />
<path d="M26282655 13571044
L11042655 9507044
" />
<path d="M18113657.191586 52749432.212982 A538453.000000 538453.000000 0.0 0 0 17693189.955089 52001308.326679" />
<path d="M275428786.790030 12288703.039980 A2330089.000000 2330089.000000 0.0 0 0 278222819.982325 13558687.941265" />
<path d="M118451563 6350684
L110577562 17558686
" />
<path d="M286812279.618424 51988912.876522 A538454.000000 538454.000000 0.0 0 0 286391862.416502 52737056.818895" />
<path d="M49333990 7732352
L32378655 4935044
" />
<path d="M223899910 8402330
L221867910 4592332
" />
<path d="M186053874.773708 6338351.841305 A3055842.000000 3055842.000000 0.0 0 0 182751923.854043 5295349.522064" />
<path d="M26282654.133019 13571046.881160 A2330104.000000 2330104.000000 0.0 0 0 29076654.761821 12301043.892134" />
<path d="M293462820 9494688
L278222820 13558688
" />
<path d="M245631998 69360
L224451264 8656331
" />
<path d="M303856772.793729 47546377.533769 A728802.000000 728802.000000 0.0 0 0 304384819.748155 46578688.094255" />
<path d="M122774849.659262 133713045.925354 A1209383.000000 1209383.000000 0.0 0 0 123790819.075273 134983043.529456" />
<path d="M17392655 61831044
L66418561 77833044
" />
<path d="M254499250.306968 7542970.792327 A685920.000000 685920.000000 0.0 0 0 255171485.020032 7719996.071298" />
<path d="M123790819 134983044
L180714655 134983044
" />
<path d="M66922655 80119044
L61334655 91295044
" />
<path d="M254499236 7542985
L246169571 149023
" />
<path d="M144867564 88996685
L158583563 88996686
" />
<path d="M275428820 12288688
L273650820 5430688
" />
<path d="M144867564 88996685
L144867561 82296686
" />
<path d="M287112820.669700 61818698.960105 A1224234.000000 1224234.000000 0.0 0 0 288128820.170793 60040687.912924" />
<path d="M58335904 161379
L50006239 7555341
" />
<path d="M294732820 10510688
L304384820 46578688
" />
<path d="M238086943.714992 77820743.114137 A1545416.000000 1545416.000000 0.0 0 0 237582819.761102 80106688.178689" />
<path d="M193927900.498639 17546340.871939 A1070922.000000 1070922.000000 0.0 0 0 194943920.043915 17800316.161213" />
<path d="M144867561 82296686
L158583562 82296685
" />
<path d="M62985655 96121044
L120643655 125077044
" />
<path d="M286391862 52737057
L288128820 60040688
" />
<path d="M32378655.010379 4935043.978799 A1145578.000000 1145578.000000 0.0 0 0 30854654.978976 5443043.989266" />
<path d="M16376618.076522 60053025.177726 A1224281.000000 1224281.000000 0.0 0 0 17392655.003066 61831043.949844" />
<path d="M120655 46591044
L9772655 10523044
" />
<path d="M82637565 4604688
L80605565 8414686
" />
<path d="M122774819 128633044
L122774819 133713044
" />
<path d="M180714655.033097 134983044.206934 A1209378.000000 1209378.000000 0.0 0 0 181730655.209152 133713043.986865" />
<path d="M58873483.047985 81702.558043 A503585.000000 503585.000000 0.0 0 0 58335904.196667 161379.225556" />
<path d="M17693190 52001308
L648711 47558693
" />
<path d="M122774847.406226 128633045.720431 A3668903.000000 3668903.000000 0.0 0 0 120643654.919440 125077044.175442" />
<path d="M183861820 125064688
L241519820 96108688
" />
<path d="M272126820 4922688
L255171485 7719996
" />
<path d="M66922648.419686 80119039.077659 A1545413.000000 1545413.000000 0.0 0 0 66418561.136611 77833043.746618" />
<path d="M109561559.140576 17812706.517406 A1070991.000000 1070991.000000 0.0 0 0 110577562.103966 17558686.110298" />
</g>
<g style="fill:#000000; fill-opacity:0.0; 
stroke:#000000; stroke-width:120000.000000; stroke-opacity:1; 
stroke-linecap:round; stroke-linejoin:round;">
<circle cx="167362655.000000" cy="70076044.000000" r="1708409.000000" /> 
<circle cx="250473637.000000" cy="10583292.000000" r="1708409.000000" /> 
<circle cx="136041561.000000" cy="70076044.000000" r="1708409.000000" /> 
<circle cx="193934573.000000" cy="92963235.000000" r="1708409.000000" /> 
<circle cx="109096479.000000" cy="92046871.000000" r="1708408.000000" /> 
<circle cx="64359387.000000" cy="64252513.000000" r="1708408.000000" /> 
<circle cx="53022530.000000" cy="10645619.000000" r="1708409.000000" /> 
<circle cx="238818559.000000" cy="64507038.000000" r="1708409.000000" /> 
<path d="M147385565 61011044
L155985565 61011044
" />
<path d="M155985565 61011044
L155985565 78271044
" />
<path d="M155985565 78271044
L147385565 78271044
" />
<path d="M147385565 78271044
L147385565 61011044
" />
<path d="M164330655 117061043
L178330655 117061043
" />
<path d="M164320655 131051043
L164330655 117061043
" />
<path d="M178330655 117061043
L178320655 131071043
" />
<path d="M178320655 131071043
L164320655 131051043
" />
<path d="M266305145 49375391
L279828106 45751924
" />
<path d="M269916364 62891281
L266305145 49375391
" />
<path d="M279828106 45751924
L283444502 59287133
" />
<path d="M283444502 59287133
L269916364 62891281
" />
<path d="M73551592 75671619
L86025683 82027486
" />
<path d="M67191355 88132260
L73551592 75671619
" />
<path d="M86025683 82027486
L79656366 94505947
" />
<path d="M79656366 94505947
L67191355 88132260
" />
<path d="M261376791 30972066
L274899752 27348599
" />
<path d="M264988010 44487956
L261376791 30972066
" />
<path d="M274899752 27348599
L278516148 40883808
" />
<path d="M278516148 40883808
L264988010 44487956
" />
<path d="M175650844 41777657
L188124935 35421790
" />
<path d="M181993261 54247378
L175650844 41777657
" />
<path d="M188124935 35421790
L194476432 47909331
" />
<path d="M194476432 47909331
L181993261 54247378
" />
<path d="M191953018 31735561
L204427109 25379694
" />
<path d="M198295435 44205282
L191953018 31735561
" />
<path d="M204427109 25379694
L210778606 37867235
" />
<path d="M210778606 37867235
L198295435 44205282
" />
<path d="M23460624 45635242
L36983586 49258708
" />
<path d="M19830087 59145956
L23460624 45635242
" />
<path d="M36983586 49258708
L33347872 62788741
" />
<path d="M33347872 62788741
L19830087 59145956
" />
<path d="M282336951 35355826
L295859912 31732359
" />
<path d="M285948170 48871716
L282336951 35355826
" />
<path d="M295859912 31732359
L299476308 45267568
" />
<path d="M299476308 45267568
L285948170 48871716
" />
<path d="M12244936 13077124
L25767898 16700590
" />
<path d="M8614399 26587838
L12244936 13077124
" />
<path d="M25767898 16700590
L22132184 30230623
" />
<path d="M22132184 30230623
L8614399 26587838
" />
<path d="M217772766 82652472
L230246857 76296605
" />
<path d="M224115183 95122193
L217772766 82652472
" />
<path d="M230246857 76296605
L236598354 88784146
" />
<path d="M236598354 88784146
L224115183 95122193
" />
<path d="M76243643 27332049
L88717734 33687916
" />
<path d="M69883406 39792690
L76243643 27332049
" />
<path d="M88717734 33687916
L82348417 46166377
" />
<path d="M82348417 46166377
L69883406 39792690
" />
<path d="M98648982 68669377
L111123073 75025244
" />
<path d="M92288745 81130018
L98648982 68669377
" />
<path d="M111123073 75025244
L104753756 87503705
" />
<path d="M104753756 87503705
L92288745 81130018
" />
<path d="M7350062 31411242
L20873024 35034708
" />
<path d="M3719525 44921956
L7350062 31411242
" />
<path d="M20873024 35034708
L17237310 48564741
" />
<path d="M17237310 48564741
L3719525 44921956
" />
<path d="M115928283 34883672
L128402374 41239539
" />
<path d="M109568046 47344313
L115928283 34883672
" />
<path d="M128402374 41239539
L122033057 53718000
" />
<path d="M122033057 53718000
L109568046 47344313
" />
<path d="M28330248 27220167
L41853210 30843633
" />
<path d="M24699711 40730881
L28330248 27220167
" />
<path d="M41853210 30843633
L38217496 44373666
" />
<path d="M38217496 44373666
L24699711 40730881
" />
<path d="M125725071 117061044
L139725071 117061044
" />
<path d="M125715071 131051044
L125725071 117061044
" />
<path d="M139725071 117061044
L139715071 131071044
" />
<path d="M139715071 131071044
L125715071 131051044
" />
<path d="M243985809 46773209
L256966383 41528717
" />
<path d="M249217283 59748257
L243985809 46773209
" />
<path d="M256966383 41528717
L262205350 54522309
" />
<path d="M262205350 54522309
L249217283 59748257
" />
<path d="M84869460 10402928
L97343551 16758795
" />
<path d="M78509223 22863569
L84869460 10402928
" />
<path d="M97343551 16758795
L90974234 29237256
" />
<path d="M90974234 29237256
L78509223 22863569
" />
<path d="M223153982 50629184
L235628073 44273317
" />
<path d="M229496399 63098905
L223153982 50629184
" />
<path d="M235628073 44273317
L241979570 56760858
" />
<path d="M241979570 56760858
L229496399 63098905
" />
<path d="M145005067 117057736
L159005067 117057736
" />
<path d="M144995067 131047736
L145005067 117057736
" />
<path d="M159005067 117057736
L158995067 131067736
" />
<path d="M158995067 131067736
L144995067 131047736
" />
<path d="M184276663 58706783
L196750754 52350916
" />
<path d="M190619080 71176504
L184276663 58706783
" />
<path d="M196750754 52350916
L203102251 64838457
" />
<path d="M203102251 64838457
L190619080 71176504
" />
<path d="M209204654 65593813
L221678745 59237946
" />
<path d="M215547071 78063534
L209204654 65593813
" />
<path d="M221678745 59237946
L228030242 71725487
" />
<path d="M228030242 71725487
L215547071 78063534
" />
<path d="M89921916 85709506
L102396007 92065373
" />
<path d="M83561679 98170147
L89921916 85709506
" />
<path d="M102396007 92065373
L96026690 104543834
" />
<path d="M96026690 104543834
L83561679 98170147
" />
<path d="M205902346 16770937
L218376437 10415070
" />
<path d="M212244763 29240658
L205902346 16770937
" />
<path d="M218376437 10415070
L224727934 22902611
" />
<path d="M224727934 22902611
L212244763 29240658
" />
<path d="M90862847 41629033
L103336938 47984900
" />
<path d="M84502610 54089674
L90862847 41629033
" />
<path d="M103336938 47984900
L96967621 60463361
" />
<path d="M96967621 60463361
L84502610 54089674
" />
<path d="M229750762 11540222
L242731336 6295730
" />
<path d="M234982236 24515270
L229750762 11540222
" />
<path d="M242731336 6295730
L247970303 19289322
" />
<path d="M247970303 19289322
L234982236 24515270
" />
<path d="M82237030 58558158
L94711121 64914025
" />
<path d="M75876793 71018799
L82237030 58558158
" />
<path d="M94711121 64914025
L88341804 77392486
" />
<path d="M88341804 77392486
L75876793 71018799
" />
<path d="M192913292 75739648
L205387383 69383781
" />
<path d="M199255709 88209369
L192913292 75739648
" />
<path d="M205387383 69383781
L211738880 81871322
" />
<path d="M211738880 81871322
L199255709 88209369
" />
<path d="M200578835 48664685
L213052926 42308818
" />
<path d="M206921252 61134406
L200578835 48664685
" />
<path d="M213052926 42308818
L219404423 54796359
" />
<path d="M219404423 54796359
L206921252 61134406
" />
<path d="M105784811 96677213
L118258902 103033080
" />
<path d="M99424574 109137854
L105784811 96677213
" />
<path d="M118258902 103033080
L111889585 115511541
" />
<path d="M111889585 115511541
L99424574 109137854
" />
<path d="M236868283 29156714
L249848857 23912222
" />
<path d="M242099757 42131762
L236868283 29156714
" />
<path d="M249848857 23912222
L255087824 36905814
" />
<path d="M255087824 36905814
L242099757 42131762
" />
<path d="M67617821 44261175
L80091912 50617042
" />
<path d="M61257584 56721816
L67617821 44261175
" />
<path d="M80091912 50617042
L73722595 63095503
" />
<path d="M73722595 63095503
L61257584 56721816
" />
<path d="M256450566 12612020
L269973527 8988553
" />
<path d="M260061785 26127910
L256450566 12612020
" />
<path d="M269973527 8988553
L273589923 22523762
" />
<path d="M273589923 22523762
L260061785 26127910
" />
<path d="M60514185 6284408
L73494759 11528900
" />
<path d="M55264167 19251964
L60514185 6284408
" />
<path d="M73494759 11528900
L68237249 24515000
" />
<path d="M68237249 24515000
L55264167 19251964
" />
<path d="M277369587 16949120
L290892548 13325653
" />
<path d="M280980806 30465010
L277369587 16949120
" />
<path d="M290892548 13325653
L294508944 26860862
" />
<path d="M294508944 26860862
L280980806 30465010
" />
<path d="M107302461 51812795
L119776552 58168662
" />
<path d="M100942224 64273436
L107302461 51812795
" />
<path d="M119776552 58168662
L113407235 70647123
" />
<path d="M113407235 70647123
L100942224 64273436
" />
<path d="M185716794 103828927
L198190885 97473060
" />
<path d="M192059211 116298648
L185716794 103828927
" />
<path d="M198190885 97473060
L204542382 109960601
" />
<path d="M204542382 109960601
L192059211 116298648
" />
<path d="M214528166 33700062
L227002257 27344195
" />
<path d="M220870583 46169783
L214528166 33700062
" />
<path d="M227002257 27344195
L233353754 39831736
" />
<path d="M233353754 39831736
L220870583 46169783
" />
<path d="M201599732 92774609
L214073823 86418742
" />
<path d="M207942149 105244330
L201599732 92774609
" />
<path d="M214073823 86418742
L220425320 98906283
" />
<path d="M220425320 98906283
L207942149 105244330
" />
<path d="M46279137 41517395
L59259711 46761887
" />
<path d="M41029119 54484951
L46279137 41517395
" />
<path d="M59259711 46761887
L54002201 59747987
" />
<path d="M54002201 59747987
L41029119 54484951
" />
<path d="M33240299 8849776
L46763261 12473242
" />
<path d="M29609762 22360490
L33240299 8849776
" />
<path d="M46763261 12473242
L43127547 26003275
" />
<path d="M43127547 26003275
L29609762 22360490
" />
<path d="M99488669 24699907
L111962760 31055774
" />
<path d="M93128432 37160548
L99488669 24699907
" />
<path d="M111962760 31055774
L105593443 43534235
" />
<path d="M105593443 43534235
L93128432 37160548
" />
<path d="M53396951 23901310
L66377525 29145802
" />
<path d="M48146933 36868866
L53396951 23901310
" />
<path d="M66377525 29145802
L61120015 42131902
" />
<path d="M61120015 42131902
L48146933 36868866
" />
<path d="M177512304 16398704
L186190477 27915028
" />
<path d="M186190477 27915028
L177062073 34793774
" />
<path d="M177062073 34793774
L168383901 23277449
" />
<path d="M168383901 23277449
L177512304 16398704
" />
<circle cx="187926184.000000" cy="26031055.000000" r="1500034.000000" /> 
<circle cx="179801701.000000" cy="15249502.000000" r="1500034.000000" /> 
<g >
</g>
<g >
</g>
<g >
</g>
<g >
</g>
<g >
</g>
<g >
</g>
<g >
</g>
<g >
</g>
<g >
</g>
<g >
</g>
<g >
</g>
<g >
</g>
<g >
</g>
<g >
</g>
<g >
</g>
<g >
</g>
<g >
</g>
<g >
</g>
<g >
</g>
<g >
</g>
<g >
</g>
<g >
</g>
<g >
</g>
<g >
</g>
<g >
</g>
<g >
</g>
<g >
</g>
<g >
</g>
<g >
</g>
<g >
</g>
<g >
</g>
<g >
</g>
<g >
</g>
<g >
</g>
<g >
</g>
<g >
</g>
<g >
</g>
<g >
</g>
<g >
</g>
<g >
</g>
<g >
</g>
<g >
</g>
<g >
</g>
<g >
</g>
<g >
</g>
<g >
</g>
<g >
</g>
<g >
</g>
<g >
</g>
<g >
</g>
<g >
</g>
<g >
</g>
<g >
</g>
<g >
</g>
<g >
</g>
<g >
</g>
<g >
</g>
<g >
</g>
<g >
</g>
<g >
</g>
<g >
</g>
<g >
</g>
<g >
</g>
<g >
</g>
<g >
</g>
<g >
</g>
<g >
</g>
<g >
</g>
<g >
</g>
<g >
</g>
<g >
</g>
<g >
</g>
<g >
</g>
<g >
</g>
<g >
</g>
<g >
</g>
<g >
</g>
<g >
</g>
<g >
</g>
<g >
</g>
<g >
</g>
<g >
</g>
</g> 
</svg>
