  0
SECTION
  2
HEADER
  9
$ACADVER
  1
AC1014
  9
$HANDSEED
  5
FFFF
  9
$INSUNITS
 70
     5
  9
$MEASUREMENT
 70
     1
  0
ENDSEC
  0
SECTION
  2
TABLES
  0
TABLE
  2
VPORT
  5
8
330
0
100
AcDbSymbolTable
 70
     4
  0
VPORT
  5
2E
330
8
100
AcDbSymbolTableRecord
100
AcDbViewportTableRecord
  2
*ACTIVE
 70
     0
 10
0.0
 20
0.0
 11
1.0
 21
1.0
 12
210.0
 22
148.5
 13
0.0
 23
0.0
 14
10.0
 24
10.0
 15
10.0
 25
10.0
 16
0.0
 26
0.0
 36
1.0
 17
0.0
 27
0.0
 37
0.0
 40
341.0
 41
1.24
 42
50.0
 43
0.0
 44
0.0
 50
0.0
 51
0.0
 71
     0
 72
   100
 73
     1
 74
     3
 75
     0
 76
     0
 77
     0
 78
     0
  0
ENDTAB
  0
TABLE
  2
LTYPE
  5
5
330
0
100
AcDbSymbolTable
 70
     1
  0
LTYPE
  5
14
330
5
100
AcDbSymbolTableRecord
100
AcDbLinetypeTableRecord
  2
BYBLOCK
 70
     0
  3

 72
    65
 73
     0
 40
0.0
  0
LTYPE
  5
15
330
5
100
AcDbSymbolTableRecord
100
AcDbLinetypeTableRecord
  2
BYLAYER
 70
     0
  3

 72
    65
 73
     0
 40
0.0
  0
LTYPE
  5
16
330
5
100
AcDbSymbolTableRecord
100
AcDbLinetypeTableRecord
  2
CONTINUOUS
 70
     0
  3
Solid line
 72
    65
 73
     0
 40
0.0
  0
ENDTAB
  0
TABLE
  2
LAYER
  5
2
100
AcDbSymbolTable
 70
1
  0
LAYER
  5
50
100
AcDbSymbolTableRecord
100
AcDbLayerTableRecord
  2
0
 70
0
  6
CONTINUOUS
  0
ENDTAB
  0
TABLE
  2
STYLE
  5
3
330
0
100
AcDbSymbolTable
 70
     1
  0
STYLE
  5
11
330
3
100
AcDbSymbolTableRecord
100
AcDbTextStyleTableRecord
  2
STANDARD
 70
     0
 40
0.0
 41
1.0
 50
0.0
 71
     0
 42
2.5
  3
txt
  4

  0
ENDTAB
  0
TABLE
  2
VIEW
  5
6
330
0
100
AcDbSymbolTable
 70
     0
  0
ENDTAB
  0
TABLE
  2
UCS
  5
7
330
0
100
AcDbSymbolTable
 70
     0
  0
ENDTAB
  0
TABLE
  2
APPID
  5
9
330
0
100
AcDbSymbolTable
 70
     2
  0
APPID
  5
12
330
9
100
AcDbSymbolTableRecord
100
AcDbRegAppTableRecord
  2
ACAD
 70
     0
  0
ENDTAB
  0
TABLE
  2
DIMSTYLE
  5
A
330
0
100
AcDbSymbolTable
 70
     1
  0
DIMSTYLE
105
27
330
A
100
AcDbSymbolTableRecord
100
AcDbDimStyleTableRecord
  2
ISO-25
 70
     0
  3

  4

  5

  6

  7

 40
1.0
 41
2.5
 42
0.625
 43
3.75
 44
1.25
 45
0.0
 46
0.0
 47
0.0
 48
0.0
140
2.5
141
2.5
142
0.0
143
0.03937007874016
144
1.0
145
0.0
146
1.0
147
0.625
 71
     0
 72
     0
 73
     0
 74
     0
 75
     0
 76
     0
 77
     1
 78
     8
170
     0
171
     3
172
     1
173
     0
174
     0
175
     0
176
     0
177
     0
178
     0
270
     2
271
     2
272
     2
273
     2
274
     3
340
11
275
     0
280
     0
281
     0
282
     0
283
     0
284
     8
285
     0
286
     0
287
     3
288
     0
  0
ENDTAB
  0
TABLE
  2
BLOCK_RECORD
  5
1
330
0
100
AcDbSymbolTable
 70
     1
  0
BLOCK_RECORD
  5
1F
330
1
100
AcDbSymbolTableRecord
100
AcDbBlockTableRecord
  2
*MODEL_SPACE
  0
BLOCK_RECORD
  5
1B
330
1
100
AcDbSymbolTableRecord
100
AcDbBlockTableRecord
  2
*PAPER_SPACE
  0
ENDTAB
  0
ENDSEC
  0
SECTION
  2
BLOCKS
  0
BLOCK
  5
20
330
1F
100
AcDbEntity
  8
0
100
AcDbBlockBegin
  2
*MODEL_SPACE
 70
     0
 10
0.0
 20
0.0
 30
0.0
  3
*MODEL_SPACE
  1

  0
ENDBLK
  5
21
330
1F
100
AcDbEntity
  8
0
100
AcDbBlockEnd
  0
BLOCK
  5
1C
330
1B
100
AcDbEntity
 67
     1
  8
0
100
AcDbBlockBegin
  2
*PAPER_SPACE
  1

  0
ENDBLK
  5
1D
330
1B
100
AcDbEntity
 67
     1
  8
0
100
AcDbBlockEnd
  0
ENDSEC
  0
SECTION
  2
ENTITIES
  0
LINE
  5
100
100
AcDbEntity
  8
0
 62
7
100
AcDbLine
 10
14.660757
 20
3.244229
 30
0.0
 11
15.660757
 21
3.244229
 31
0.0
  0
LINE
  5
101
100
AcDbEntity
  8
0
 62
7
100
AcDbLine
 10
15.660757
 20
3.244229
 30
0.0
 11
15.660757
 21
2.244229
 31
0.0
  0
LINE
  5
102
100
AcDbEntity
  8
0
 62
7
100
AcDbLine
 10
15.660757
 20
2.244229
 30
0.0
 11
14.660757
 21
2.244229
 31
0.0
  0
LINE
  5
103
100
AcDbEntity
  8
0
 62
7
100
AcDbLine
 10
14.660757
 20
2.244229
 30
0.0
 11
14.660757
 21
3.244229
 31
0.0
  0
LINE
  5
104
100
AcDbEntity
  8
0
 62
7
100
AcDbLine
 10
18.084065
 20
0.143996
 30
0.0
 11
16.184065
 21
0.143996
 31
0.0
  0
LINE
  5
105
100
AcDbEntity
  8
0
 62
7
100
AcDbLine
 10
16.184065
 20
0.143996
 30
0.0
 11
16.184065
 21
2.043996
 31
0.0
  0
LINE
  5
106
100
AcDbEntity
  8
0
 62
7
100
AcDbLine
 10
18.084065
 20
2.043996
 30
0.0
 11
18.084065
 21
0.143996
 31
0.0
  0
LINE
  5
107
100
AcDbEntity
  8
0
 62
7
100
AcDbLine
 10
18.084065
 20
2.043996
 30
0.0
 11
16.184065
 21
2.043996
 31
0.0
  0
LINE
  5
108
100
AcDbEntity
  8
0
 62
7
100
AcDbLine
 10
28.652309
 20
7.396094
 30
0.0
 11
26.817050
 21
6.904337
 31
0.0
  0
LINE
  5
109
100
AcDbEntity
  8
0
 62
7
100
AcDbLine
 10
26.817050
 20
6.904337
 30
0.0
 11
26.325294
 21
8.739596
 31
0.0
  0
LINE
  5
10a
100
AcDbEntity
  8
0
 62
7
100
AcDbLine
 10
28.160553
 20
9.231353
 30
0.0
 11
28.652309
 21
7.396094
 31
0.0
  0
LINE
  5
10b
100
AcDbEntity
  8
0
 62
7
100
AcDbLine
 10
28.160553
 20
9.231353
 30
0.0
 11
26.325294
 21
8.739596
 31
0.0
  0
LINE
  5
10c
100
AcDbEntity
  8
0
 62
7
100
AcDbLine
 10
8.077127
 20
3.713239
 30
0.0
 11
6.384214
 21
4.575821
 31
0.0
  0
LINE
  5
10d
100
AcDbEntity
  8
0
 62
7
100
AcDbLine
 10
6.384214
 20
4.575821
 30
0.0
 11
7.246796
 21
6.268733
 31
0.0
  0
LINE
  5
10e
100
AcDbEntity
  8
0
 62
7
100
AcDbLine
 10
8.939709
 20
5.406151
 30
0.0
 11
8.077127
 21
3.713239
 31
0.0
  0
LINE
  5
10f
100
AcDbEntity
  8
0
 62
7
100
AcDbLine
 10
8.939709
 20
5.406151
 30
0.0
 11
7.246796
 21
6.268733
 31
0.0
  0
LINE
  5
110
100
AcDbEntity
  8
0
 62
7
100
AcDbLine
 10
28.159474
 20
9.236426
 30
0.0
 11
26.324215
 21
8.744670
 31
0.0
  0
LINE
  5
111
100
AcDbEntity
  8
0
 62
7
100
AcDbLine
 10
26.324215
 20
8.744670
 30
0.0
 11
25.832459
 21
10.579929
 31
0.0
  0
LINE
  5
112
100
AcDbEntity
  8
0
 62
7
100
AcDbLine
 10
27.667718
 20
11.071685
 30
0.0
 11
28.159474
 21
9.236426
 31
0.0
  0
LINE
  5
113
100
AcDbEntity
  8
0
 62
7
100
AcDbLine
 10
27.667718
 20
11.071685
 30
0.0
 11
25.832459
 21
10.579929
 31
0.0
  0
LINE
  5
114
100
AcDbEntity
  8
0
 62
7
100
AcDbLine
 10
19.785220
 20
8.601712
 30
0.0
 11
18.092308
 21
7.739130
 31
0.0
  0
LINE
  5
115
100
AcDbEntity
  8
0
 62
7
100
AcDbLine
 10
18.092308
 20
7.739130
 30
0.0
 11
17.229726
 21
9.432042
 31
0.0
  0
LINE
  5
116
100
AcDbEntity
  8
0
 62
7
100
AcDbLine
 10
18.922638
 20
10.294624
 30
0.0
 11
19.785220
 21
8.601712
 31
0.0
  0
LINE
  5
117
100
AcDbEntity
  8
0
 62
7
100
AcDbLine
 10
18.922638
 20
10.294624
 30
0.0
 11
17.229726
 21
9.432042
 31
0.0
  0
LINE
  5
118
100
AcDbEntity
  8
0
 62
7
100
AcDbLine
 10
21.415438
 20
9.605922
 30
0.0
 11
19.722525
 21
8.743340
 31
0.0
  0
LINE
  5
119
100
AcDbEntity
  8
0
 62
7
100
AcDbLine
 10
19.722525
 20
8.743340
 30
0.0
 11
18.859943
 21
10.436252
 31
0.0
  0
LINE
  5
11a
100
AcDbEntity
  8
0
 62
7
100
AcDbLine
 10
20.552856
 20
11.298834
 30
0.0
 11
21.415438
 21
9.605922
 31
0.0
  0
LINE
  5
11b
100
AcDbEntity
  8
0
 62
7
100
AcDbLine
 10
20.552856
 20
11.298834
 30
0.0
 11
18.859943
 21
10.436252
 31
0.0
  0
LINE
  5
11c
100
AcDbEntity
  8
0
 62
7
100
AcDbLine
 10
3.513754
 20
6.915488
 30
0.0
 11
1.678495
 21
7.407244
 31
0.0
  0
LINE
  5
11d
100
AcDbEntity
  8
0
 62
7
100
AcDbLine
 10
1.678495
 20
7.407244
 30
0.0
 11
2.170252
 21
9.242503
 31
0.0
  0
LINE
  5
11e
100
AcDbEntity
  8
0
 62
7
100
AcDbLine
 10
4.005511
 20
8.750747
 30
0.0
 11
3.513754
 21
6.915488
 31
0.0
  0
LINE
  5
11f
100
AcDbEntity
  8
0
 62
7
100
AcDbLine
 10
4.005511
 20
8.750747
 30
0.0
 11
2.170252
 21
9.242503
 31
0.0
  0
LINE
  5
120
100
AcDbEntity
  8
0
 62
7
100
AcDbLine
 10
30.255490
 20
8.798050
 30
0.0
 11
28.420231
 21
8.306294
 31
0.0
  0
LINE
  5
121
100
AcDbEntity
  8
0
 62
7
100
AcDbLine
 10
28.420231
 20
8.306294
 30
0.0
 11
27.928475
 21
10.141553
 31
0.0
  0
LINE
  5
122
100
AcDbEntity
  8
0
 62
7
100
AcDbLine
 10
29.763734
 20
10.633309
 30
0.0
 11
30.255490
 21
8.798050
 31
0.0
  0
LINE
  5
123
100
AcDbEntity
  8
0
 62
7
100
AcDbLine
 10
29.763734
 20
10.633309
 30
0.0
 11
27.928475
 21
10.141553
 31
0.0
  0
LINE
  5
124
100
AcDbEntity
  8
0
 62
7
100
AcDbLine
 10
2.392186
 20
10.171300
 30
0.0
 11
0.556927
 21
10.663056
 31
0.0
  0
LINE
  5
125
100
AcDbEntity
  8
0
 62
7
100
AcDbLine
 10
0.556927
 20
10.663056
 30
0.0
 11
1.048683
 21
12.498315
 31
0.0
  0
LINE
  5
126
100
AcDbEntity
  8
0
 62
7
100
AcDbLine
 10
2.883942
 20
12.006559
 30
0.0
 11
2.392186
 21
10.171300
 31
0.0
  0
LINE
  5
127
100
AcDbEntity
  8
0
 62
7
100
AcDbLine
 10
2.883942
 20
12.006559
 30
0.0
 11
1.048683
 21
12.498315
 31
0.0
  0
LINE
  5
128
100
AcDbEntity
  8
0
 62
7
100
AcDbLine
 10
23.997413
 20
4.514230
 30
0.0
 11
22.304500
 21
3.651648
 31
0.0
  0
LINE
  5
129
100
AcDbEntity
  8
0
 62
7
100
AcDbLine
 10
22.304500
 20
3.651648
 30
0.0
 11
21.441918
 21
5.344561
 31
0.0
  0
LINE
  5
12a
100
AcDbEntity
  8
0
 62
7
100
AcDbLine
 10
23.134831
 20
6.207143
 30
0.0
 11
23.997413
 21
4.514230
 31
0.0
  0
LINE
  5
12b
100
AcDbEntity
  8
0
 62
7
100
AcDbLine
 10
23.134831
 20
6.207143
 30
0.0
 11
21.441918
 21
5.344561
 31
0.0
  0
LINE
  5
12c
100
AcDbEntity
  8
0
 62
7
100
AcDbLine
 10
8.346332
 20
8.547196
 30
0.0
 11
6.653419
 21
9.409778
 31
0.0
  0
LINE
  5
12d
100
AcDbEntity
  8
0
 62
7
100
AcDbLine
 10
6.653419
 20
9.409778
 30
0.0
 11
7.516001
 21
11.102690
 31
0.0
  0
LINE
  5
12e
100
AcDbEntity
  8
0
 62
7
100
AcDbLine
 10
9.208914
 20
10.240108
 30
0.0
 11
8.346332
 21
8.547196
 31
0.0
  0
LINE
  5
12f
100
AcDbEntity
  8
0
 62
7
100
AcDbLine
 10
9.208914
 20
10.240108
 30
0.0
 11
7.516001
 21
11.102690
 31
0.0
  0
LINE
  5
130
100
AcDbEntity
  8
0
 62
7
100
AcDbLine
 10
10.586866
 20
4.413463
 30
0.0
 11
8.893953
 21
5.276045
 31
0.0
  0
LINE
  5
131
100
AcDbEntity
  8
0
 62
7
100
AcDbLine
 10
8.893953
 20
5.276045
 30
0.0
 11
9.756535
 21
6.968958
 31
0.0
  0
LINE
  5
132
100
AcDbEntity
  8
0
 62
7
100
AcDbLine
 10
11.449448
 20
6.106376
 30
0.0
 11
10.586866
 21
4.413463
 31
0.0
  0
LINE
  5
133
100
AcDbEntity
  8
0
 62
7
100
AcDbLine
 10
11.449448
 20
6.106376
 30
0.0
 11
9.756535
 21
6.968958
 31
0.0
  0
LINE
  5
134
100
AcDbEntity
  8
0
 62
7
100
AcDbLine
 10
1.902698
 20
8.337888
 30
0.0
 11
0.067439
 21
8.829644
 31
0.0
  0
LINE
  5
135
100
AcDbEntity
  8
0
 62
7
100
AcDbLine
 10
0.067439
 20
8.829644
 30
0.0
 11
0.559195
 21
10.664903
 31
0.0
  0
LINE
  5
136
100
AcDbEntity
  8
0
 62
7
100
AcDbLine
 10
2.394454
 20
10.173147
 30
0.0
 11
1.902698
 21
8.337888
 31
0.0
  0
LINE
  5
137
100
AcDbEntity
  8
0
 62
7
100
AcDbLine
 10
2.394454
 20
10.173147
 30
0.0
 11
0.559195
 21
10.664903
 31
0.0
  0
LINE
  5
138
100
AcDbEntity
  8
0
 62
7
100
AcDbLine
 10
12.314796
 20
7.792034
 30
0.0
 11
10.621883
 21
8.654616
 31
0.0
  0
LINE
  5
139
100
AcDbEntity
  8
0
 62
7
100
AcDbLine
 10
10.621883
 20
8.654616
 30
0.0
 11
11.484465
 21
10.347528
 31
0.0
  0
LINE
  5
13a
100
AcDbEntity
  8
0
 62
7
100
AcDbLine
 10
13.177378
 20
9.484946
 30
0.0
 11
12.314796
 21
7.792034
 31
0.0
  0
LINE
  5
13b
100
AcDbEntity
  8
0
 62
7
100
AcDbLine
 10
13.177378
 20
9.484946
 30
0.0
 11
11.484465
 21
10.347528
 31
0.0
  0
LINE
  5
13c
100
AcDbEntity
  8
0
 62
7
100
AcDbLine
 10
4.000717
 20
8.756996
 30
0.0
 11
2.165458
 21
9.248752
 31
0.0
  0
LINE
  5
13d
100
AcDbEntity
  8
0
 62
7
100
AcDbLine
 10
2.165458
 20
9.248752
 30
0.0
 11
2.657214
 21
11.084011
 31
0.0
  0
LINE
  5
13e
100
AcDbEntity
  8
0
 62
7
100
AcDbLine
 10
4.492473
 20
10.592254
 30
0.0
 11
4.000717
 21
8.756996
 31
0.0
  0
LINE
  5
13f
100
AcDbEntity
  8
0
 62
7
100
AcDbLine
 10
4.492473
 20
10.592254
 30
0.0
 11
2.657214
 21
11.084011
 31
0.0
  0
LINE
  5
140
100
AcDbEntity
  8
0
 62
7
100
AcDbLine
 10
14.223507
 20
0.143996
 30
0.0
 11
12.323507
 21
0.143996
 31
0.0
  0
LINE
  5
141
100
AcDbEntity
  8
0
 62
7
100
AcDbLine
 10
12.323507
 20
0.143996
 30
0.0
 11
12.323507
 21
2.043996
 31
0.0
  0
LINE
  5
142
100
AcDbEntity
  8
0
 62
7
100
AcDbLine
 10
14.223507
 20
2.043996
 30
0.0
 11
14.223507
 21
0.143996
 31
0.0
  0
LINE
  5
143
100
AcDbEntity
  8
0
 62
7
100
AcDbLine
 10
14.223507
 20
2.043996
 30
0.0
 11
12.323507
 21
2.043996
 31
0.0
  0
LINE
  5
144
100
AcDbEntity
  8
0
 62
7
100
AcDbLine
 10
26.547462
 20
7.911401
 30
0.0
 11
24.785813
 21
7.199649
 31
0.0
  0
LINE
  5
145
100
AcDbEntity
  8
0
 62
7
100
AcDbLine
 10
24.785813
 20
7.199649
 30
0.0
 11
24.074060
 21
8.961298
 31
0.0
  0
LINE
  5
146
100
AcDbEntity
  8
0
 62
7
100
AcDbLine
 10
25.835710
 20
9.673051
 30
0.0
 11
26.547462
 21
7.911401
 31
0.0
  0
LINE
  5
147
100
AcDbEntity
  8
0
 62
7
100
AcDbLine
 10
25.835710
 20
9.673051
 30
0.0
 11
24.074060
 21
8.961298
 31
0.0
  0
LINE
  5
148
100
AcDbEntity
  8
0
 62
7
100
AcDbLine
 10
9.208913
 20
10.240108
 30
0.0
 11
7.516001
 21
11.102690
 31
0.0
  0
LINE
  5
149
100
AcDbEntity
  8
0
 62
7
100
AcDbLine
 10
7.516001
 20
11.102690
 30
0.0
 11
8.378583
 21
12.795602
 31
0.0
  0
LINE
  5
14a
100
AcDbEntity
  8
0
 62
7
100
AcDbLine
 10
10.071495
 20
11.933020
 30
0.0
 11
9.208913
 21
10.240108
 31
0.0
  0
LINE
  5
14b
100
AcDbEntity
  8
0
 62
7
100
AcDbLine
 10
10.071495
 20
11.933020
 30
0.0
 11
8.378583
 21
12.795602
 31
0.0
  0
LINE
  5
14c
100
AcDbEntity
  8
0
 62
7
100
AcDbLine
 10
24.535534
 20
7.716559
 30
0.0
 11
22.842622
 21
6.853977
 31
0.0
  0
LINE
  5
14d
100
AcDbEntity
  8
0
 62
7
100
AcDbLine
 10
22.842622
 20
6.853977
 30
0.0
 11
21.980040
 21
8.546890
 31
0.0
  0
LINE
  5
14e
100
AcDbEntity
  8
0
 62
7
100
AcDbLine
 10
23.672952
 20
9.409472
 30
0.0
 11
24.535534
 21
7.716559
 31
0.0
  0
LINE
  5
14f
100
AcDbEntity
  8
0
 62
7
100
AcDbLine
 10
23.672952
 20
9.409472
 30
0.0
 11
21.980040
 21
8.546890
 31
0.0
  0
LINE
  5
150
100
AcDbEntity
  8
0
 62
7
100
AcDbLine
 10
16.151507
 20
0.144326
 30
0.0
 11
14.251507
 21
0.144326
 31
0.0
  0
LINE
  5
151
100
AcDbEntity
  8
0
 62
7
100
AcDbLine
 10
14.251507
 20
0.144326
 30
0.0
 11
14.251507
 21
2.044326
 31
0.0
  0
LINE
  5
152
100
AcDbEntity
  8
0
 62
7
100
AcDbLine
 10
16.151507
 20
2.044326
 30
0.0
 11
16.151507
 21
0.144326
 31
0.0
  0
LINE
  5
153
100
AcDbEntity
  8
0
 62
7
100
AcDbLine
 10
16.151507
 20
2.044326
 30
0.0
 11
14.251507
 21
2.044326
 31
0.0
  0
LINE
  5
154
100
AcDbEntity
  8
0
 62
7
100
AcDbLine
 10
20.647802
 20
6.908799
 30
0.0
 11
18.954890
 21
6.046217
 31
0.0
  0
LINE
  5
155
100
AcDbEntity
  8
0
 62
7
100
AcDbLine
 10
18.954890
 20
6.046217
 30
0.0
 11
18.092308
 21
7.739130
 31
0.0
  0
LINE
  5
156
100
AcDbEntity
  8
0
 62
7
100
AcDbLine
 10
19.785220
 20
8.601712
 30
0.0
 11
20.647802
 21
6.908799
 31
0.0
  0
LINE
  5
157
100
AcDbEntity
  8
0
 62
7
100
AcDbLine
 10
19.785220
 20
8.601712
 30
0.0
 11
18.092308
 21
7.739130
 31
0.0
  0
LINE
  5
158
100
AcDbEntity
  8
0
 62
7
100
AcDbLine
 10
23.140601
 20
6.220096
 30
0.0
 11
21.447689
 21
5.357514
 31
0.0
  0
LINE
  5
159
100
AcDbEntity
  8
0
 62
7
100
AcDbLine
 10
21.447689
 20
5.357514
 30
0.0
 11
20.585107
 21
7.050427
 31
0.0
  0
LINE
  5
15a
100
AcDbEntity
  8
0
 62
7
100
AcDbLine
 10
22.278019
 20
7.913009
 30
0.0
 11
23.140601
 21
6.220096
 31
0.0
  0
LINE
  5
15b
100
AcDbEntity
  8
0
 62
7
100
AcDbLine
 10
22.278019
 20
7.913009
 30
0.0
 11
20.585107
 21
7.050427
 31
0.0
  0
LINE
  5
15c
100
AcDbEntity
  8
0
 62
7
100
AcDbLine
 10
9.714159
 20
2.709450
 30
0.0
 11
8.021247
 21
3.572032
 31
0.0
  0
LINE
  5
15d
100
AcDbEntity
  8
0
 62
7
100
AcDbLine
 10
8.021247
 20
3.572032
 30
0.0
 11
8.883829
 21
5.264945
 31
0.0
  0
LINE
  5
15e
100
AcDbEntity
  8
0
 62
7
100
AcDbLine
 10
10.576741
 20
4.402363
 30
0.0
 11
9.714159
 21
2.709450
 31
0.0
  0
LINE
  5
15f
100
AcDbEntity
  8
0
 62
7
100
AcDbLine
 10
10.576741
 20
4.402363
 30
0.0
 11
8.883829
 21
5.264945
 31
0.0
  0
LINE
  5
160
100
AcDbEntity
  8
0
 62
7
100
AcDbLine
 10
22.810371
 20
11.102384
 30
0.0
 11
21.117458
 21
10.239802
 31
0.0
  0
LINE
  5
161
100
AcDbEntity
  8
0
 62
7
100
AcDbLine
 10
21.117458
 20
10.239802
 30
0.0
 11
20.254876
 21
11.932714
 31
0.0
  0
LINE
  5
162
100
AcDbEntity
  8
0
 62
7
100
AcDbLine
 10
21.947789
 20
12.795296
 30
0.0
 11
22.810371
 21
11.102384
 31
0.0
  0
LINE
  5
163
100
AcDbEntity
  8
0
 62
7
100
AcDbLine
 10
21.947789
 20
12.795296
 30
0.0
 11
20.254876
 21
11.932714
 31
0.0
  0
LINE
  5
164
100
AcDbEntity
  8
0
 62
7
100
AcDbLine
 10
9.808252
 20
7.117498
 30
0.0
 11
8.115340
 21
7.980080
 31
0.0
  0
LINE
  5
165
100
AcDbEntity
  8
0
 62
7
100
AcDbLine
 10
8.115340
 20
7.980080
 30
0.0
 11
8.977922
 21
9.672992
 31
0.0
  0
LINE
  5
166
100
AcDbEntity
  8
0
 62
7
100
AcDbLine
 10
10.670834
 20
8.810410
 30
0.0
 11
9.808252
 21
7.117498
 31
0.0
  0
LINE
  5
167
100
AcDbEntity
  8
0
 62
7
100
AcDbLine
 10
10.670834
 20
8.810410
 30
0.0
 11
8.977922
 21
9.672992
 31
0.0
  0
LINE
  5
168
100
AcDbEntity
  8
0
 62
7
100
AcDbLine
 10
25.123958
 20
11.434700
 30
0.0
 11
23.362308
 21
10.722947
 31
0.0
  0
LINE
  5
169
100
AcDbEntity
  8
0
 62
7
100
AcDbLine
 10
23.362308
 20
10.722947
 30
0.0
 11
22.650556
 21
12.484597
 31
0.0
  0
LINE
  5
16a
100
AcDbEntity
  8
0
 62
7
100
AcDbLine
 10
24.412205
 20
13.196349
 30
0.0
 11
25.123958
 21
11.434700
 31
0.0
  0
LINE
  5
16b
100
AcDbEntity
  8
0
 62
7
100
AcDbLine
 10
24.412205
 20
13.196349
 30
0.0
 11
22.650556
 21
12.484597
 31
0.0
  0
LINE
  5
16c
100
AcDbEntity
  8
0
 62
7
100
AcDbLine
 10
8.945670
 20
5.424585
 30
0.0
 11
7.252758
 21
6.287167
 31
0.0
  0
LINE
  5
16d
100
AcDbEntity
  8
0
 62
7
100
AcDbLine
 10
7.252758
 20
6.287167
 30
0.0
 11
8.115340
 21
7.980080
 31
0.0
  0
LINE
  5
16e
100
AcDbEntity
  8
0
 62
7
100
AcDbLine
 10
9.808252
 20
7.117497
 30
0.0
 11
8.945670
 21
5.424585
 31
0.0
  0
LINE
  5
16f
100
AcDbEntity
  8
0
 62
7
100
AcDbLine
 10
9.808252
 20
7.117497
 30
0.0
 11
8.115340
 21
7.980080
 31
0.0
  0
LINE
  5
170
100
AcDbEntity
  8
0
 62
7
100
AcDbLine
 10
21.511465
 20
5.205513
 30
0.0
 11
19.818553
 21
4.342931
 31
0.0
  0
LINE
  5
171
100
AcDbEntity
  8
0
 62
7
100
AcDbLine
 10
19.818553
 20
4.342931
 30
0.0
 11
18.955971
 21
6.035843
 31
0.0
  0
LINE
  5
172
100
AcDbEntity
  8
0
 62
7
100
AcDbLine
 10
20.648883
 20
6.898425
 30
0.0
 11
21.511465
 21
5.205513
 31
0.0
  0
LINE
  5
173
100
AcDbEntity
  8
0
 62
7
100
AcDbLine
 10
20.648883
 20
6.898425
 30
0.0
 11
18.955971
 21
6.035843
 31
0.0
  0
LINE
  5
174
100
AcDbEntity
  8
0
 62
7
100
AcDbLine
 10
22.278020
 20
7.913009
 30
0.0
 11
20.585107
 21
7.050427
 31
0.0
  0
LINE
  5
175
100
AcDbEntity
  8
0
 62
7
100
AcDbLine
 10
20.585107
 20
7.050427
 30
0.0
 11
19.722525
 21
8.743340
 31
0.0
  0
LINE
  5
176
100
AcDbEntity
  8
0
 62
7
100
AcDbLine
 10
21.415438
 20
9.605922
 30
0.0
 11
22.278020
 21
7.913009
 31
0.0
  0
LINE
  5
177
100
AcDbEntity
  8
0
 62
7
100
AcDbLine
 10
21.415438
 20
9.605922
 30
0.0
 11
19.722525
 21
8.743340
 31
0.0
  0
LINE
  5
178
100
AcDbEntity
  8
0
 62
7
100
AcDbLine
 10
11.300448
 20
1.612680
 30
0.0
 11
9.607536
 21
2.475262
 31
0.0
  0
LINE
  5
179
100
AcDbEntity
  8
0
 62
7
100
AcDbLine
 10
9.607536
 20
2.475262
 30
0.0
 11
10.470118
 21
4.168174
 31
0.0
  0
LINE
  5
17a
100
AcDbEntity
  8
0
 62
7
100
AcDbLine
 10
12.163030
 20
3.305592
 30
0.0
 11
11.300448
 21
1.612680
 31
0.0
  0
LINE
  5
17b
100
AcDbEntity
  8
0
 62
7
100
AcDbLine
 10
12.163030
 20
3.305592
 30
0.0
 11
10.470118
 21
4.168174
 31
0.0
  0
LINE
  5
17c
100
AcDbEntity
  8
0
 62
7
100
AcDbLine
 10
25.835710
 20
9.673051
 30
0.0
 11
24.074060
 21
8.961298
 31
0.0
  0
LINE
  5
17d
100
AcDbEntity
  8
0
 62
7
100
AcDbLine
 10
24.074060
 20
8.961298
 30
0.0
 11
23.362308
 21
10.722948
 31
0.0
  0
LINE
  5
17e
100
AcDbEntity
  8
0
 62
7
100
AcDbLine
 10
25.123957
 20
11.434700
 30
0.0
 11
25.835710
 21
9.673051
 31
0.0
  0
LINE
  5
17f
100
AcDbEntity
  8
0
 62
7
100
AcDbLine
 10
25.123957
 20
11.434700
 30
0.0
 11
23.362308
 21
10.722948
 31
0.0
  0
LINE
  5
180
100
AcDbEntity
  8
0
 62
7
100
AcDbLine
 10
7.483750
 20
6.854283
 30
0.0
 11
5.790837
 21
7.716865
 31
0.0
  0
LINE
  5
181
100
AcDbEntity
  8
0
 62
7
100
AcDbLine
 10
5.790837
 20
7.716865
 30
0.0
 11
6.653419
 21
9.409778
 31
0.0
  0
LINE
  5
182
100
AcDbEntity
  8
0
 62
7
100
AcDbLine
 10
8.346331
 20
8.547196
 30
0.0
 11
7.483750
 21
6.854283
 31
0.0
  0
LINE
  5
183
100
AcDbEntity
  8
0
 62
7
100
AcDbLine
 10
8.346331
 20
8.547196
 30
0.0
 11
6.653419
 21
9.409778
 31
0.0
  0
LINE
  5
184
100
AcDbEntity
  8
0
 62
7
100
AcDbLine
 10
27.666851
 20
11.072431
 30
0.0
 11
25.831592
 21
10.580675
 31
0.0
  0
LINE
  5
185
100
AcDbEntity
  8
0
 62
7
100
AcDbLine
 10
25.831592
 20
10.580675
 30
0.0
 11
25.339836
 21
12.415933
 31
0.0
  0
LINE
  5
186
100
AcDbEntity
  8
0
 62
7
100
AcDbLine
 10
27.175095
 20
12.907690
 30
0.0
 11
27.666851
 21
11.072431
 31
0.0
  0
LINE
  5
187
100
AcDbEntity
  8
0
 62
7
100
AcDbLine
 10
27.175095
 20
12.907690
 30
0.0
 11
25.339836
 21
12.415933
 31
0.0
  0
LINE
  5
188
100
AcDbEntity
  8
0
 62
7
100
AcDbLine
 10
6.964098
 20
10.723330
 30
0.0
 11
5.202449
 21
11.435083
 31
0.0
  0
LINE
  5
189
100
AcDbEntity
  8
0
 62
7
100
AcDbLine
 10
5.202449
 20
11.435083
 30
0.0
 11
5.914201
 21
13.196732
 31
0.0
  0
LINE
  5
18a
100
AcDbEntity
  8
0
 62
7
100
AcDbLine
 10
7.675851
 20
12.484980
 30
0.0
 11
6.964098
 21
10.723330
 31
0.0
  0
LINE
  5
18b
100
AcDbEntity
  8
0
 62
7
100
AcDbLine
 10
7.675851
 20
12.484980
 30
0.0
 11
5.914201
 21
13.196732
 31
0.0
  0
LINE
  5
18c
100
AcDbEntity
  8
0
 62
7
100
AcDbLine
 10
29.758754
 20
10.638721
 30
0.0
 11
27.923495
 21
10.146964
 31
0.0
  0
LINE
  5
18d
100
AcDbEntity
  8
0
 62
7
100
AcDbLine
 10
27.923495
 20
10.146964
 30
0.0
 11
27.431738
 21
11.982223
 31
0.0
  0
LINE
  5
18e
100
AcDbEntity
  8
0
 62
7
100
AcDbLine
 10
29.266997
 20
12.473980
 30
0.0
 11
29.758754
 21
10.638721
 31
0.0
  0
LINE
  5
18f
100
AcDbEntity
  8
0
 62
7
100
AcDbLine
 10
29.266997
 20
12.473980
 30
0.0
 11
27.431738
 21
11.982223
 31
0.0
  0
LINE
  5
190
100
AcDbEntity
  8
0
 62
7
100
AcDbLine
 10
11.452213
 20
6.099121
 30
0.0
 11
9.759301
 21
6.961703
 31
0.0
  0
LINE
  5
191
100
AcDbEntity
  8
0
 62
7
100
AcDbLine
 10
9.759301
 20
6.961703
 30
0.0
 11
10.621883
 21
8.654616
 31
0.0
  0
LINE
  5
192
100
AcDbEntity
  8
0
 62
7
100
AcDbLine
 10
12.314795
 20
7.792034
 30
0.0
 11
11.452213
 21
6.099121
 31
0.0
  0
LINE
  5
193
100
AcDbEntity
  8
0
 62
7
100
AcDbLine
 10
12.314795
 20
7.792034
 30
0.0
 11
10.621883
 21
8.654616
 31
0.0
  0
LINE
  5
194
100
AcDbEntity
  8
0
 62
7
100
AcDbLine
 10
20.791815
 20
2.396585
 30
0.0
 11
19.098903
 21
1.534003
 31
0.0
  0
LINE
  5
195
100
AcDbEntity
  8
0
 62
7
100
AcDbLine
 10
19.098903
 20
1.534003
 30
0.0
 11
18.236321
 21
3.226915
 31
0.0
  0
LINE
  5
196
100
AcDbEntity
  8
0
 62
7
100
AcDbLine
 10
19.929233
 20
4.089497
 30
0.0
 11
20.791815
 21
2.396585
 31
0.0
  0
LINE
  5
197
100
AcDbEntity
  8
0
 62
7
100
AcDbLine
 10
19.929233
 20
4.089497
 30
0.0
 11
18.236321
 21
3.226915
 31
0.0
  0
LINE
  5
198
100
AcDbEntity
  8
0
 62
7
100
AcDbLine
 10
23.672953
 20
9.409471
 30
0.0
 11
21.980040
 21
8.546889
 31
0.0
  0
LINE
  5
199
100
AcDbEntity
  8
0
 62
7
100
AcDbLine
 10
21.980040
 20
8.546889
 30
0.0
 11
21.117458
 21
10.239802
 31
0.0
  0
LINE
  5
19a
100
AcDbEntity
  8
0
 62
7
100
AcDbLine
 10
22.810371
 20
11.102384
 30
0.0
 11
23.672953
 21
9.409471
 31
0.0
  0
LINE
  5
19b
100
AcDbEntity
  8
0
 62
7
100
AcDbLine
 10
22.810371
 20
11.102384
 30
0.0
 11
21.117458
 21
10.239802
 31
0.0
  0
LINE
  5
19c
100
AcDbEntity
  8
0
 62
7
100
AcDbLine
 10
22.380109
 20
3.502017
 30
0.0
 11
20.687197
 21
2.639435
 31
0.0
  0
LINE
  5
19d
100
AcDbEntity
  8
0
 62
7
100
AcDbLine
 10
20.687197
 20
2.639435
 30
0.0
 11
19.824615
 21
4.332347
 31
0.0
  0
LINE
  5
19e
100
AcDbEntity
  8
0
 62
7
100
AcDbLine
 10
21.517527
 20
5.194929
 30
0.0
 11
22.380109
 21
3.502017
 31
0.0
  0
LINE
  5
19f
100
AcDbEntity
  8
0
 62
7
100
AcDbLine
 10
21.517527
 20
5.194929
 30
0.0
 11
19.824615
 21
4.332347
 31
0.0
  0
LINE
  5
1a0
100
AcDbEntity
  8
0
 62
7
100
AcDbLine
 10
5.540593
 20
7.200032
 30
0.0
 11
3.778944
 21
7.911784
 31
0.0
  0
LINE
  5
1a1
100
AcDbEntity
  8
0
 62
7
100
AcDbLine
 10
3.778944
 20
7.911784
 30
0.0
 11
4.490697
 21
9.673433
 31
0.0
  0
LINE
  5
1a2
100
AcDbEntity
  8
0
 62
7
100
AcDbLine
 10
6.252346
 20
8.961681
 30
0.0
 11
5.540593
 21
7.200032
 31
0.0
  0
LINE
  5
1a3
100
AcDbEntity
  8
0
 62
7
100
AcDbLine
 10
6.252346
 20
8.961681
 30
0.0
 11
4.490697
 21
9.673433
 31
0.0
  0
LINE
  5
1a4
100
AcDbEntity
  8
0
 62
7
100
AcDbLine
 10
4.491722
 20
10.594035
 30
0.0
 11
2.656463
 21
11.085791
 31
0.0
  0
LINE
  5
1a5
100
AcDbEntity
  8
0
 62
7
100
AcDbLine
 10
2.656463
 20
11.085791
 30
0.0
 11
3.148219
 21
12.921050
 31
0.0
  0
LINE
  5
1a6
100
AcDbEntity
  8
0
 62
7
100
AcDbLine
 10
4.983478
 20
12.429294
 30
0.0
 11
4.491722
 21
10.594035
 31
0.0
  0
LINE
  5
1a7
100
AcDbEntity
  8
0
 62
7
100
AcDbLine
 10
4.983478
 20
12.429294
 30
0.0
 11
3.148219
 21
12.921050
 31
0.0
  0
LINE
  5
1a8
100
AcDbEntity
  8
0
 62
7
100
AcDbLine
 10
10.670834
 20
8.810410
 30
0.0
 11
8.977922
 21
9.672992
 31
0.0
  0
LINE
  5
1a9
100
AcDbEntity
  8
0
 62
7
100
AcDbLine
 10
8.977922
 20
9.672992
 30
0.0
 11
9.840504
 21
11.365905
 31
0.0
  0
LINE
  5
1aa
100
AcDbEntity
  8
0
 62
7
100
AcDbLine
 10
11.533416
 20
10.503323
 30
0.0
 11
10.670834
 21
8.810410
 31
0.0
  0
LINE
  5
1ab
100
AcDbEntity
  8
0
 62
7
100
AcDbLine
 10
11.533416
 20
10.503323
 30
0.0
 11
9.840504
 21
11.365905
 31
0.0
  0
LINE
  5
1ac
100
AcDbEntity
  8
0
 62
7
100
AcDbLine
 10
6.252375
 20
8.961640
 30
0.0
 11
4.490725
 21
9.673393
 31
0.0
  0
LINE
  5
1ad
100
AcDbEntity
  8
0
 62
7
100
AcDbLine
 10
4.490725
 20
9.673393
 30
0.0
 11
5.202478
 21
11.435042
 31
0.0
  0
LINE
  5
1ae
100
AcDbEntity
  8
0
 62
7
100
AcDbLine
 10
6.964127
 20
10.723289
 30
0.0
 11
6.252375
 21
8.961640
 31
0.0
  0
LINE
  5
1af
100
AcDbEntity
  8
0
 62
7
100
AcDbLine
 10
6.964127
 20
10.723289
 30
0.0
 11
5.202478
 21
11.435042
 31
0.0
  0
LINE
  5
1b0
100
AcDbEntity
  8
0
 62
7
100
AcDbLine
 10
12.011358
 20
12.210907
 30
0.0
 11
11.599456
 21
11.600238
 31
0.0
  0
LINE
  5
1b1
100
AcDbEntity
  8
0
 62
7
100
AcDbLine
 10
11.599456
 20
11.600238
 30
0.0
 11
11.178305
 21
11.884308
 31
0.0
  0
LINE
  5
1b2
100
AcDbEntity
  8
0
 62
7
100
AcDbLine
 10
11.178305
 20
11.884308
 30
0.0
 11
11.590207
 21
12.494977
 31
0.0
  0
LINE
  5
1b3
100
AcDbEntity
  8
0
 62
7
100
AcDbLine
 10
11.590207
 20
12.494977
 30
0.0
 11
12.011358
 21
12.210907
 31
0.0
  0
LINE
  5
1b4
100
AcDbEntity
  8
0
 62
7
100
AcDbLine
 10
16.642687
 20
11.217711
 30
0.0
 11
16.672777
 21
11.177779
 31
0.0
  0
LINE
  5
1b5
100
AcDbEntity
  8
0
 62
7
100
AcDbLine
 10
18.588840
 20
10.712129
 30
0.0
 11
17.746299
 21
11.830218
 31
0.0
  0
LINE
  5
1b6
100
AcDbEntity
  8
0
 62
7
100
AcDbLine
 10
16.338562
 20
10.832019
 30
0.0
 11
16.658016
 21
11.072745
 31
0.0
  0
LINE
  5
1b7
100
AcDbEntity
  8
0
 62
7
100
AcDbLine
 10
16.323800
 20
10.726985
 30
0.0
 11
17.136250
 21
9.648827
 31
0.0
  0
LINE
  5
1b8
100
AcDbEntity
  8
0
 62
7
100
AcDbLine
 10
17.695863
 20
9.820099
 30
0.0
 11
17.665772
 21
9.860030
 31
0.0
  0
LINE
  5
1b9
100
AcDbEntity
  8
0
 62
7
100
AcDbLine
 10
19.133407
 20
10.903366
 30
0.0
 11
18.080230
 21
12.300978
 31
0.0
  0
LINE
  5
1ba
100
AcDbEntity
  8
0
 62
7
100
AcDbLine
 10
17.710341
 20
10.050132
 30
0.0
 11
18.588840
 21
10.712129
 31
0.0
  0
LINE
  5
1bb
100
AcDbEntity
  8
0
 62
7
100
AcDbLine
 10
16.867800
 20
11.168222
 30
0.0
 11
17.710341
 21
10.050132
 31
0.0
  0
LINE
  5
1bc
100
AcDbEntity
  8
0
 62
7
100
AcDbLine
 10
17.560738
 20
9.874792
 30
0.0
 11
17.241284
 21
9.634066
 31
0.0
  0
LINE
  5
1bd
100
AcDbEntity
  8
0
 62
7
100
AcDbLine
 10
17.800897
 20
9.805337
 30
0.0
 11
19.118645
 21
10.798332
 31
0.0
  0
LINE
  5
1be
100
AcDbEntity
  8
0
 62
7
100
AcDbLine
 10
17.746299
 20
11.830218
 30
0.0
 11
16.867800
 21
11.168222
 31
0.0
  0
LINE
  5
1bf
100
AcDbEntity
  8
0
 62
7
100
AcDbLine
 10
17.975197
 20
12.315739
 30
0.0
 11
16.657448
 21
11.322745
 31
0.0
  0
SPLINE
  5
1c0
100
AcDbEntity
  8
0
 62
7
100
AcDbSpline
 70
8
 71
3
 72
8
 73
4
 74
0
 40
0
 40
0
 40
0
 40
0
 40
1
 40
1
 40
1
 40
1
 10
17.665772
 20
9.860030
 30
0.0
 10
17.653801
 20
9.875916
 30
0.0
 10
17.636010
 20
9.886396
 30
0.0
 10
17.616312
 20
9.889164
 30
0.0
  0
SPLINE
  5
1c1
100
AcDbEntity
  8
0
 62
7
100
AcDbSpline
 70
8
 71
3
 72
8
 73
4
 74
0
 40
0
 40
0
 40
0
 40
0
 40
1
 40
1
 40
1
 40
1
 10
17.616312
 20
9.889164
 30
0.0
 10
17.596615
 20
9.891933
 30
0.0
 10
17.576624
 20
9.886763
 30
0.0
 10
17.560738
 20
9.874792
 30
0.0
  0
SPLINE
  5
1c2
100
AcDbEntity
  8
0
 62
7
100
AcDbSpline
 70
8
 71
3
 72
8
 73
4
 74
0
 40
0
 40
0
 40
0
 40
0
 40
1
 40
1
 40
1
 40
1
 10
16.338562
 20
10.832019
 30
0.0
 10
16.322676
 20
10.820048
 30
0.0
 10
16.312196
 20
10.802257
 30
0.0
 10
16.309428
 20
10.782560
 30
0.0
  0
SPLINE
  5
1c3
100
AcDbEntity
  8
0
 62
7
100
AcDbSpline
 70
8
 71
3
 72
8
 73
4
 74
0
 40
0
 40
0
 40
0
 40
0
 40
1
 40
1
 40
1
 40
1
 10
16.309428
 20
10.782560
 30
0.0
 10
16.306659
 20
10.762862
 30
0.0
 10
16.311829
 20
10.742871
 30
0.0
 10
16.323800
 20
10.726985
 30
0.0
  0
SPLINE
  5
1c4
100
AcDbEntity
  8
0
 62
7
100
AcDbSpline
 70
8
 71
3
 72
8
 73
4
 74
0
 40
0
 40
0
 40
0
 40
0
 40
1
 40
1
 40
1
 40
1
 10
17.695863
 20
9.820099
 30
0.0
 10
17.720791
 20
9.787018
 30
0.0
 10
17.767816
 20
9.780409
 30
0.0
 10
17.800897
 20
9.805337
 30
0.0
  0
SPLINE
  5
1c5
100
AcDbEntity
  8
0
 62
7
100
AcDbSpline
 70
8
 71
3
 72
8
 73
4
 74
0
 40
0
 40
0
 40
0
 40
0
 40
1
 40
1
 40
1
 40
1
 10
16.657448
 20
11.322745
 30
0.0
 10
16.641562
 20
11.310774
 30
0.0
 10
16.631083
 20
11.292983
 30
0.0
 10
16.628314
 20
11.273285
 30
0.0
  0
SPLINE
  5
1c6
100
AcDbEntity
  8
0
 62
7
100
AcDbSpline
 70
8
 71
3
 72
8
 73
4
 74
0
 40
0
 40
0
 40
0
 40
0
 40
1
 40
1
 40
1
 40
1
 10
16.628314
 20
11.273285
 30
0.0
 10
16.625546
 20
11.253587
 30
0.0
 10
16.630716
 20
11.233597
 30
0.0
 10
16.642687
 20
11.217711
 30
0.0
  0
SPLINE
  5
1c7
100
AcDbEntity
  8
0
 62
7
100
AcDbSpline
 70
8
 71
3
 72
8
 73
4
 74
0
 40
0
 40
0
 40
0
 40
0
 40
1
 40
1
 40
1
 40
1
 10
19.118645
 20
10.798332
 30
0.0
 10
19.134531
 20
10.810303
 30
0.0
 10
19.145011
 20
10.828094
 30
0.0
 10
19.147779
 20
10.847792
 30
0.0
  0
SPLINE
  5
1c8
100
AcDbEntity
  8
0
 62
7
100
AcDbSpline
 70
8
 71
3
 72
8
 73
4
 74
0
 40
0
 40
0
 40
0
 40
0
 40
1
 40
1
 40
1
 40
1
 10
19.147779
 20
10.847792
 30
0.0
 10
19.150548
 20
10.867489
 30
0.0
 10
19.145378
 20
10.887480
 30
0.0
 10
19.133407
 20
10.903366
 30
0.0
  0
SPLINE
  5
1c9
100
AcDbEntity
  8
0
 62
7
100
AcDbSpline
 70
8
 71
3
 72
8
 73
4
 74
0
 40
0
 40
0
 40
0
 40
0
 40
1
 40
1
 40
1
 40
1
 10
17.136250
 20
9.648828
 30
0.0
 10
17.148221
 20
9.632942
 30
0.0
 10
17.166012
 20
9.622462
 30
0.0
 10
17.185710
 20
9.619694
 30
0.0
  0
SPLINE
  5
1ca
100
AcDbEntity
  8
0
 62
7
100
AcDbSpline
 70
8
 71
3
 72
8
 73
4
 74
0
 40
0
 40
0
 40
0
 40
0
 40
1
 40
1
 40
1
 40
1
 10
17.185710
 20
9.619694
 30
0.0
 10
17.205408
 20
9.616925
 30
0.0
 10
17.225398
 20
9.622095
 30
0.0
 10
17.241284
 20
9.634066
 30
0.0
  0
SPLINE
  5
1cb
100
AcDbEntity
  8
0
 62
7
100
AcDbSpline
 70
8
 71
3
 72
8
 73
4
 74
0
 40
0
 40
0
 40
0
 40
0
 40
1
 40
1
 40
1
 40
1
 10
18.080230
 20
12.300978
 30
0.0
 10
18.068260
 20
12.316864
 30
0.0
 10
18.050468
 20
12.327343
 30
0.0
 10
18.030771
 20
12.330112
 30
0.0
  0
SPLINE
  5
1cc
100
AcDbEntity
  8
0
 62
7
100
AcDbSpline
 70
8
 71
3
 72
8
 73
4
 74
0
 40
0
 40
0
 40
0
 40
0
 40
1
 40
1
 40
1
 40
1
 10
18.030771
 20
12.330112
 30
0.0
 10
18.011073
 20
12.332880
 30
0.0
 10
17.991083
 20
12.327710
 30
0.0
 10
17.975197
 20
12.315739
 30
0.0
  0
SPLINE
  5
1cd
100
AcDbEntity
  8
0
 62
7
100
AcDbSpline
 70
8
 71
3
 72
8
 73
4
 74
0
 40
0
 40
0
 40
0
 40
0
 40
1
 40
1
 40
1
 40
1
 10
16.658016
 20
11.072745
 30
0.0
 10
16.691096
 20
11.097673
 30
0.0
 10
16.697705
 20
11.144698
 30
0.0
 10
16.672777
 20
11.177779
 30
0.0
  0
SPLINE
  5
1ce
100
AcDbEntity
  8
0
 62
7
100
AcDbSpline
 70
8
 71
3
 72
8
 73
4
 74
0
 40
0
 40
0
 40
0
 40
0
 40
1
 40
1
 40
1
 40
1
 10
17.980969
 20
12.100752
 30
0.0
 10
17.930411
 20
12.100752
 30
0.0
 10
17.884831
 20
12.070296
 30
0.0
 10
17.865484
 20
12.023587
 30
0.0
  0
SPLINE
  5
1cf
100
AcDbEntity
  8
0
 62
7
100
AcDbSpline
 70
8
 71
3
 72
8
 73
4
 74
0
 40
0
 40
0
 40
0
 40
0
 40
1
 40
1
 40
1
 40
1
 10
17.865484
 20
12.023587
 30
0.0
 10
17.846136
 20
11.976878
 30
0.0
 10
17.856831
 20
11.923113
 30
0.0
 10
17.892580
 20
11.887363
 30
0.0
  0
SPLINE
  5
1d0
100
AcDbEntity
  8
0
 62
7
100
AcDbSpline
 70
8
 71
3
 72
8
 73
4
 74
0
 40
0
 40
0
 40
0
 40
0
 40
1
 40
1
 40
1
 40
1
 10
17.892580
 20
11.887363
 30
0.0
 10
17.928330
 20
11.851614
 30
0.0
 10
17.982095
 20
11.840919
 30
0.0
 10
18.028804
 20
11.860267
 30
0.0
  0
SPLINE
  5
1d1
100
AcDbEntity
  8
0
 62
7
100
AcDbSpline
 70
8
 71
3
 72
8
 73
4
 74
0
 40
0
 40
0
 40
0
 40
0
 40
1
 40
1
 40
1
 40
1
 10
18.028804
 20
11.860267
 30
0.0
 10
18.075513
 20
11.879614
 30
0.0
 10
18.105969
 20
11.925194
 30
0.0
 10
18.105969
 20
11.975752
 30
0.0
  0
SPLINE
  5
1d2
100
AcDbEntity
  8
0
 62
7
100
AcDbSpline
 70
8
 71
3
 72
8
 73
4
 74
0
 40
0
 40
0
 40
0
 40
0
 40
1
 40
1
 40
1
 40
1
 10
18.105969
 20
11.975752
 30
0.0
 10
18.105969
 20
12.008904
 30
0.0
 10
18.092799
 20
12.040698
 30
0.0
 10
18.069357
 20
12.064140
 30
0.0
  0
SPLINE
  5
1d3
100
AcDbEntity
  8
0
 62
7
100
AcDbSpline
 70
8
 71
3
 72
8
 73
4
 74
0
 40
0
 40
0
 40
0
 40
0
 40
1
 40
1
 40
1
 40
1
 10
18.069357
 20
12.064140
 30
0.0
 10
18.045915
 20
12.087582
 30
0.0
 10
18.014121
 20
12.100752
 30
0.0
 10
17.980969
 20
12.100752
 30
0.0
  0
LINE
  5
1d4
100
AcDbEntity
  8
0
 62
7
100
AcDbLine
 10
17.980969
 20
12.100752
 30
0.0
 11
17.980969
 21
12.100752
 31
0.0
  0
SPLINE
  5
1d5
100
AcDbEntity
  8
0
 62
7
100
AcDbSpline
 70
8
 71
3
 72
8
 73
4
 74
0
 40
0
 40
0
 40
0
 40
0
 40
1
 40
1
 40
1
 40
1
 10
18.793419
 20
11.022594
 30
0.0
 10
18.742861
 20
11.022594
 30
0.0
 10
18.697282
 20
10.992139
 30
0.0
 10
18.677934
 20
10.945429
 30
0.0
  0
SPLINE
  5
1d6
100
AcDbEntity
  8
0
 62
7
100
AcDbSpline
 70
8
 71
3
 72
8
 73
4
 74
0
 40
0
 40
0
 40
0
 40
0
 40
1
 40
1
 40
1
 40
1
 10
18.677934
 20
10.945429
 30
0.0
 10
18.658586
 20
10.898720
 30
0.0
 10
18.669281
 20
10.844955
 30
0.0
 10
18.705031
 20
10.809205
 30
0.0
  0
SPLINE
  5
1d7
100
AcDbEntity
  8
0
 62
7
100
AcDbSpline
 70
8
 71
3
 72
8
 73
4
 74
0
 40
0
 40
0
 40
0
 40
0
 40
1
 40
1
 40
1
 40
1
 10
18.705031
 20
10.809205
 30
0.0
 10
18.740780
 20
10.773456
 30
0.0
 10
18.794545
 20
10.762761
 30
0.0
 10
18.841254
 20
10.782109
 30
0.0
  0
SPLINE
  5
1d8
100
AcDbEntity
  8
0
 62
7
100
AcDbSpline
 70
8
 71
3
 72
8
 73
4
 74
0
 40
0
 40
0
 40
0
 40
0
 40
1
 40
1
 40
1
 40
1
 10
18.841254
 20
10.782109
 30
0.0
 10
18.887964
 20
10.801456
 30
0.0
 10
18.918419
 20
10.847036
 30
0.0
 10
18.918419
 20
10.897594
 30
0.0
  0
SPLINE
  5
1d9
100
AcDbEntity
  8
0
 62
7
100
AcDbSpline
 70
8
 71
3
 72
8
 73
4
 74
0
 40
0
 40
0
 40
0
 40
0
 40
1
 40
1
 40
1
 40
1
 10
18.918419
 20
10.897594
 30
0.0
 10
18.918419
 20
10.930746
 30
0.0
 10
18.905249
 20
10.962540
 30
0.0
 10
18.881807
 20
10.985982
 30
0.0
  0
SPLINE
  5
1da
100
AcDbEntity
  8
0
 62
7
100
AcDbSpline
 70
8
 71
3
 72
8
 73
4
 74
0
 40
0
 40
0
 40
0
 40
0
 40
1
 40
1
 40
1
 40
1
 10
18.881807
 20
10.985982
 30
0.0
 10
18.858365
 20
11.009424
 30
0.0
 10
18.826571
 20
11.022594
 30
0.0
 10
18.793419
 20
11.022594
 30
0.0
  0
LINE
  5
1db
100
AcDbEntity
  8
0
 62
7
100
AcDbLine
 10
18.793419
 20
11.022594
 30
0.0
 11
18.793419
 21
11.022594
 31
0.0
  0
LINE
  5
1dc
100
AcDbEntity
  8
0
 62
7
100
AcDbLine
 10
18.720123
 20
11.574309
 30
0.0
 11
18.066246
 21
12.508143
 31
0.0
  0
LINE
  5
1dd
100
AcDbEntity
  8
0
 62
7
100
AcDbLine
 10
19.490126
 20
12.113471
 30
0.0
 11
18.720123
 21
11.574309
 31
0.0
  0
LINE
  5
1de
100
AcDbEntity
  8
0
 62
7
100
AcDbLine
 10
18.836249
 20
13.047304
 30
0.0
 11
19.490126
 21
12.113471
 31
0.0
  0
LINE
  5
1df
100
AcDbEntity
  8
0
 62
7
100
AcDbLine
 10
18.066246
 20
12.508143
 30
0.0
 11
18.836249
 21
13.047304
 31
0.0
  0
SPLINE
  5
1e0
100
AcDbEntity
  8
0
 62
7
100
AcDbSpline
 70
8
 71
3
 72
8
 73
4
 74
0
 40
0
 40
0
 40
0
 40
0
 40
1
 40
1
 40
1
 40
1
 10
24.151982
 20
3.889232
 30
0.0
 10
24.240231
 20
3.928764
 30
0.0
 10
24.308110
 20
4.003158
 30
0.0
 10
24.339410
 20
4.094652
 30
0.0
  0
SPLINE
  5
1e1
100
AcDbEntity
  8
0
 62
7
100
AcDbSpline
 70
8
 71
3
 72
8
 73
4
 74
0
 40
0
 40
0
 40
0
 40
0
 40
1
 40
1
 40
1
 40
1
 10
24.339410
 20
4.094652
 30
0.0
 10
24.370711
 20
4.186146
 30
0.0
 10
24.362625
 20
4.286528
 30
0.0
 10
24.317082
 20
4.371831
 30
0.0
  0
SPLINE
  5
1e2
100
AcDbEntity
  8
0
 62
7
100
AcDbSpline
 70
8
 71
3
 72
8
 73
4
 74
0
 40
0
 40
0
 40
0
 40
0
 40
1
 40
1
 40
1
 40
1
 10
4.933399
 20
12.726865
 30
0.0
 10
4.957359
 20
12.720132
 30
0.0
 10
4.983087
 20
12.726906
 30
0.0
 10
5.000624
 20
12.744566
 30
0.0
  0
LINE
  5
1e3
100
AcDbEntity
  8
0
 62
7
100
AcDbLine
 10
15.858356
 20
4.600431
 30
0.0
 11
15.858356
 21
5.270432
 31
0.0
  0
SPLINE
  5
1e4
100
AcDbEntity
  8
0
 62
7
100
AcDbSpline
 70
8
 71
3
 72
8
 73
4
 74
0
 40
0
 40
0
 40
0
 40
0
 40
1
 40
1
 40
1
 40
1
 10
12.175744
 20
12.970558
 30
0.0
 10
12.054339
 20
13.012512
 30
0.0
 10
11.919801
 20
12.969566
 30
0.0
 10
11.845156
 20
12.865032
 30
0.0
  0
SPLINE
  5
1e5
100
AcDbEntity
  8
0
 62
7
100
AcDbSpline
 70
8
 71
3
 72
8
 73
4
 74
0
 40
0
 40
0
 40
0
 40
0
 40
1
 40
1
 40
1
 40
1
 10
6.133467
 20
4.370595
 30
0.0
 10
6.087923
 20
4.285292
 30
0.0
 10
6.079835
 20
4.184909
 30
0.0
 10
6.111136
 20
4.093415
 30
0.0
  0
SPLINE
  5
1e6
100
AcDbEntity
  8
0
 62
7
100
AcDbSpline
 70
8
 71
3
 72
8
 73
4
 74
0
 40
0
 40
0
 40
0
 40
0
 40
1
 40
1
 40
1
 40
1
 10
6.111136
 20
4.093415
 30
0.0
 10
6.142436
 20
4.001921
 30
0.0
 10
6.210315
 20
3.927527
 30
0.0
 10
6.298565
 20
3.887996
 30
0.0
  0
SPLINE
  5
1e7
100
AcDbEntity
  8
0
 62
7
100
AcDbSpline
 70
8
 71
3
 72
8
 73
4
 74
0
 40
0
 40
0
 40
0
 40
0
 40
1
 40
1
 40
1
 40
1
 10
12.175746
 20
12.970565
 30
0.0
 10
14.121687
 20
12.128410
 30
0.0
 10
16.329251
 20
12.128410
 30
0.0
 10
18.275192
 20
12.970565
 30
0.0
  0
LINE
  5
1e8
100
AcDbEntity
  8
0
 62
7
100
AcDbLine
 10
3.085465
 20
12.955796
 30
0.0
 11
2.907665
 21
12.269996
 31
0.0
  0
SPLINE
  5
1e9
100
AcDbEntity
  8
0
 62
7
100
AcDbSpline
 70
8
 71
3
 72
8
 73
4
 74
0
 40
0
 40
0
 40
0
 40
0
 40
1
 40
1
 40
1
 40
1
 10
27.365084
 20
12.957032
 30
0.0
 10
27.336657
 20
13.012716
 30
0.0
 10
27.268833
 20
13.035323
 30
0.0
 10
27.212682
 20
13.007831
 30
0.0
  0
SPLINE
  5
1ea
100
AcDbEntity
  8
0
 62
7
100
AcDbSpline
 70
8
 71
3
 72
8
 73
4
 74
0
 40
0
 40
0
 40
0
 40
0
 40
1
 40
1
 40
1
 40
1
 10
1.104265
 20
12.549396
 30
0.0
 10
1.042161
 20
12.553046
 30
0.0
 10
0.987337
 20
12.509186
 30
0.0
 10
0.977266
 20
12.447796
 30
0.0
  0
SPLINE
  5
1eb
100
AcDbEntity
  8
0
 62
7
100
AcDbSpline
 70
8
 71
3
 72
8
 73
4
 74
0
 40
0
 40
0
 40
0
 40
0
 40
1
 40
1
 40
1
 40
1
 10
0.012065
 20
8.840996
 30
0.0
 10
0.000000
 20
8.821617
 30
0.0
 10
-0.000698
 20
8.797245
 30
0.0
 10
0.010236
 20
8.777207
 30
0.0
  0
SPLINE
  5
1ec
100
AcDbEntity
  8
0
 62
7
100
AcDbSpline
 70
8
 71
3
 72
8
 73
4
 74
0
 40
0
 40
0
 40
0
 40
0
 40
1
 40
1
 40
1
 40
1
 10
0.010236
 20
8.777207
 30
0.0
 10
0.021171
 20
8.757169
 30
0.0
 10
0.042046
 20
8.744569
 30
0.0
 10
0.064871
 20
8.744231
 30
0.0
  0
LINE
  5
1ed
100
AcDbEntity
  8
0
 62
7
100
AcDbLine
 10
24.317082
 20
4.371831
 30
0.0
 11
23.758282
 21
5.489431
 31
0.0
  0
LINE
  5
1ee
100
AcDbEntity
  8
0
 62
7
100
AcDbLine
 10
23.808691
 20
5.718031
 30
0.0
 11
28.711282
 21
7.318231
 31
0.0
  0
LINE
  5
1ef
100
AcDbEntity
  8
0
 62
7
100
AcDbLine
 10
8.005421
 20
12.633231
 30
0.0
 11
5.887348
 21
13.491928
 31
0.0
  0
SPLINE
  5
1f0
100
AcDbEntity
  8
0
 62
7
100
AcDbSpline
 70
8
 71
3
 72
8
 73
4
 74
0
 40
0
 40
0
 40
0
 40
0
 40
1
 40
1
 40
1
 40
1
 10
18.386183
 20
0.993629
 30
0.0
 10
18.248471
 20
0.929886
 30
0.0
 10
18.163890
 20
0.788267
 30
0.0
 10
18.173065
 20
0.636796
 30
0.0
  0
SPLINE
  5
1f1
100
AcDbEntity
  8
0
 62
7
100
AcDbSpline
 70
8
 71
3
 72
8
 73
4
 74
0
 40
0
 40
0
 40
0
 40
0
 40
1
 40
1
 40
1
 40
1
 10
29.473278
 20
12.449031
 30
0.0
 10
29.463207
 20
12.510420
 30
0.0
 10
29.408385
 20
12.554279
 30
0.0
 10
29.346282
 20
12.550631
 30
0.0
  0
LINE
  5
1f2
100
AcDbEntity
  8
0
 62
7
100
AcDbLine
 10
30.385676
 20
8.745466
 30
0.0
 11
28.681228
 21
8.301205
 31
0.0
  0
SPLINE
  5
1f3
100
AcDbEntity
  8
0
 62
7
100
AcDbSpline
 70
8
 71
3
 72
8
 73
4
 74
0
 40
0
 40
0
 40
0
 40
0
 40
1
 40
1
 40
1
 40
1
 10
22.186791
 20
13.040867
 30
0.0
 10
22.177611
 20
13.059907
 30
0.0
 10
22.156732
 20
13.070347
 30
0.0
 10
22.135991
 20
13.066267
 30
0.0
  0
SPLINE
  5
1f4
100
AcDbEntity
  8
0
 62
7
100
AcDbSpline
 70
8
 71
3
 72
8
 73
4
 74
0
 40
0
 40
0
 40
0
 40
0
 40
1
 40
1
 40
1
 40
1
 10
22.389999
 20
12.659870
 30
0.0
 10
22.398985
 20
12.638367
 30
0.0
 10
22.422941
 20
12.627328
 30
0.0
 10
22.445126
 20
12.634467
 30
0.0
  0
SPLINE
  5
1f5
100
AcDbEntity
  8
0
 62
7
100
AcDbSpline
 70
8
 71
3
 72
8
 73
4
 74
0
 40
0
 40
0
 40
0
 40
0
 40
1
 40
1
 40
1
 40
1
 10
24.616958
 20
13.485199
 30
0.0
 10
24.602132
 20
13.498126
 30
0.0
 10
24.581137
 20
13.501237
 30
0.0
 10
24.563200
 20
13.493164
 30
0.0
  0
LINE
  5
1f6
100
AcDbEntity
  8
0
 62
7
100
AcDbLine
 10
19.392792
 20
11.745468
 30
0.0
 11
18.605392
 21
12.866269
 31
0.0
  0
LINE
  5
1f7
100
AcDbEntity
  8
0
 62
7
100
AcDbLine
 10
1.637665
 20
7.494796
 30
0.0
 11
1.811361
 21
8.225159
 31
0.0
  0
SPLINE
  5
1f8
100
AcDbEntity
  8
0
 62
7
100
AcDbSpline
 70
8
 71
3
 72
8
 73
4
 74
0
 40
0
 40
0
 40
0
 40
0
 40
1
 40
1
 40
1
 40
1
 10
8.005421
 20
12.633230
 30
0.0
 10
8.027607
 20
12.626090
 30
0.0
 10
8.051567
 20
12.637128
 30
0.0
 10
8.060557
 20
12.658631
 30
0.0
  0
SPLINE
  5
1f9
100
AcDbEntity
  8
0
 62
7
100
AcDbSpline
 70
8
 71
3
 72
8
 73
4
 74
0
 40
0
 40
0
 40
0
 40
0
 40
1
 40
1
 40
1
 40
1
 10
8.314557
 20
13.065033
 30
0.0
 10
8.293816
 20
13.069110
 30
0.0
 10
8.272938
 20
13.058671
 30
0.0
 10
8.263757
 20
13.039631
 30
0.0
  0
LINE
  5
1fa
100
AcDbEntity
  8
0
 62
7
100
AcDbLine
 10
18.173065
 20
0.128796
 30
0.0
 11
18.173065
 21
0.636796
 31
0.0
  0
LINE
  5
1fb
100
AcDbEntity
  8
0
 62
7
100
AcDbLine
 10
10.956156
 20
11.718832
 30
0.0
 11
8.314556
 21
13.065031
 31
0.0
  0
LINE
  5
1fc
100
AcDbEntity
  8
0
 62
7
100
AcDbLine
 10
22.135991
 20
13.066267
 30
0.0
 11
19.494391
 21
11.720067
 31
0.0
  0
LINE
  5
1fd
100
AcDbEntity
  8
0
 62
7
100
AcDbLine
 10
2.628265
 20
12.142996
 30
0.0
 11
1.104265
 21
12.549396
 31
0.0
  0
SPLINE
  5
1fe
100
AcDbEntity
  8
0
 62
7
100
AcDbSpline
 70
8
 71
3
 72
8
 73
4
 74
0
 40
0
 40
0
 40
0
 40
0
 40
1
 40
1
 40
1
 40
1
 10
1.811366
 20
8.225157
 30
0.0
 10
1.818084
 20
8.240610
 30
0.0
 10
1.817181
 20
8.258318
 30
0.0
 10
1.808925
 20
8.273007
 30
0.0
  0
SPLINE
  5
1ff
100
AcDbEntity
  8
0
 62
7
100
AcDbSpline
 70
8
 71
3
 72
8
 73
4
 74
0
 40
0
 40
0
 40
0
 40
0
 40
1
 40
1
 40
1
 40
1
 10
1.808925
 20
8.273007
 30
0.0
 10
1.800669
 20
8.287697
 30
0.0
 10
1.786013
 20
8.297674
 30
0.0
 10
1.769319
 20
8.299969
 30
0.0
  0
SPLINE
  5
200
100
AcDbEntity
  8
0
 62
7
100
AcDbSpline
 70
8
 71
3
 72
8
 73
4
 74
0
 40
0
 40
0
 40
0
 40
0
 40
1
 40
1
 40
1
 40
1
 10
27.542879
 20
12.271230
 30
0.0
 10
27.591044
 20
12.164876
 30
0.0
 10
27.710483
 20
12.110587
 30
0.0
 10
27.822282
 20
12.144231
 30
0.0
  0
LINE
  5
201
100
AcDbEntity
  8
0
 62
7
100
AcDbLine
 10
11.845156
 20
12.865032
 30
0.0
 11
11.057756
 21
11.744231
 31
0.0
  0
SPLINE
  5
202
100
AcDbEntity
  8
0
 62
7
100
AcDbSpline
 70
8
 71
3
 72
8
 73
4
 74
0
 40
0
 40
0
 40
0
 40
0
 40
1
 40
1
 40
1
 40
1
 10
28.681228
 20
8.301209
 30
0.0
 10
28.664535
 20
8.298912
 30
0.0
 10
28.649879
 20
8.288934
 30
0.0
 10
28.641624
 20
8.274244
 30
0.0
  0
SPLINE
  5
203
100
AcDbEntity
  8
0
 62
7
100
AcDbSpline
 70
8
 71
3
 72
8
 73
4
 74
0
 40
0
 40
0
 40
0
 40
0
 40
1
 40
1
 40
1
 40
1
 10
28.641624
 20
8.274244
 30
0.0
 10
28.633369
 20
8.259554
 30
0.0
 10
28.632467
 20
8.241847
 30
0.0
 10
28.639186
 20
8.226394
 30
0.0
  0
LINE
  5
204
100
AcDbEntity
  8
0
 62
7
100
AcDbLine
 10
4.933399
 20
12.726865
 30
0.0
 11
3.237865
 21
13.006596
 31
0.0
  0
LINE
  5
205
100
AcDbEntity
  8
0
 62
7
100
AcDbLine
 10
22.389991
 20
12.659867
 30
0.0
 11
22.186791
 21
13.040867
 31
0.0
  0
SPLINE
  5
206
100
AcDbEntity
  8
0
 62
7
100
AcDbSpline
 70
8
 71
3
 72
8
 73
4
 74
0
 40
0
 40
0
 40
0
 40
0
 40
1
 40
1
 40
1
 40
1
 10
18.605387
 20
12.866265
 30
0.0
 10
18.527541
 20
12.966055
 30
0.0
 10
18.396236
 20
13.007531
 30
0.0
 10
18.275192
 20
12.970565
 30
0.0
  0
SPLINE
  5
207
100
AcDbEntity
  8
0
 62
7
100
AcDbSpline
 70
8
 71
3
 72
8
 73
4
 74
0
 40
0
 40
0
 40
0
 40
0
 40
1
 40
1
 40
1
 40
1
 10
2.628265
 20
12.142995
 30
0.0
 10
2.740064
 20
12.109354
 30
0.0
 10
2.859501
 20
12.163644
 30
0.0
 10
2.907665
 20
12.269996
 30
0.0
  0
LINE
  5
208
100
AcDbEntity
  8
0
 62
7
100
AcDbLine
 10
29.346282
 20
12.550631
 30
0.0
 11
27.822282
 21
12.144231
 31
0.0
  0
LINE
  5
209
100
AcDbEntity
  8
0
 62
7
100
AcDbLine
 10
24.563200
 20
13.493164
 30
0.0
 11
22.445126
 21
12.634467
 31
0.0
  0
SPLINE
  5
20a
100
AcDbEntity
  8
0
 62
7
100
AcDbSpline
 70
8
 71
3
 72
8
 73
4
 74
0
 40
0
 40
0
 40
0
 40
0
 40
1
 40
1
 40
1
 40
1
 10
30.385677
 20
8.745462
 30
0.0
 10
30.406356
 20
8.749949
 30
0.0
 10
30.424065
 20
8.763201
 30
0.0
 10
30.434201
 20
8.781776
 30
0.0
  0
SPLINE
  5
20b
100
AcDbEntity
  8
0
 62
7
100
AcDbSpline
 70
8
 71
3
 72
8
 73
4
 74
0
 40
0
 40
0
 40
0
 40
0
 40
1
 40
1
 40
1
 40
1
 10
30.434201
 20
8.781776
 30
0.0
 10
30.444337
 20
8.800350
 30
0.0
 10
30.445899
 20
8.822413
 30
0.0
 10
30.438482
 20
8.842231
 30
0.0
  0
SPLINE
  5
20c
100
AcDbEntity
  8
0
 62
7
100
AcDbSpline
 70
8
 71
3
 72
8
 73
4
 74
0
 40
0
 40
0
 40
0
 40
0
 40
1
 40
1
 40
1
 40
1
 10
12.277485
 20
0.128795
 30
0.0
 10
12.273580
 20
0.066612
 30
0.0
 10
12.317558
 20
0.011638
 30
0.0
 10
12.379082
 20
0.001796
 30
0.0
  0
LINE
  5
20d
100
AcDbEntity
  8
0
 62
7
100
AcDbLine
 10
1.739265
 20
7.316996
 30
0.0
 11
6.641856
 21
5.716796
 31
0.0
  0
SPLINE
  5
20e
100
AcDbEntity
  8
0
 62
7
100
AcDbSpline
 70
8
 71
3
 72
8
 73
4
 74
0
 40
0
 40
0
 40
0
 40
0
 40
1
 40
1
 40
1
 40
1
 10
25.449925
 20
12.745803
 30
0.0
 10
25.467462
 20
12.728143
 30
0.0
 10
25.493188
 20
12.721369
 30
0.0
 10
25.517149
 20
12.728100
 30
0.0
  0
LINE
  5
20f
100
AcDbEntity
  8
0
 62
7
100
AcDbLine
 10
12.379082
 20
0.001796
 30
0.0
 11
18.071465
 21
0.001796
 31
0.0
  0
LINE
  5
210
100
AcDbEntity
  8
0
 62
7
100
AcDbLine
 10
6.692265
 20
5.488196
 30
0.0
 11
6.133465
 21
4.370596
 31
0.0
  0
LINE
  5
211
100
AcDbEntity
  8
0
 62
7
100
AcDbLine
 10
25.449924
 20
12.745801
 30
0.0
 11
24.616957
 21
13.485198
 31
0.0
  0
LINE
  5
212
100
AcDbEntity
  8
0
 62
7
100
AcDbLine
 10
14.486756
 20
4.600432
 30
0.0
 11
15.858356
 21
4.600431
 31
0.0
  0
LINE
  5
213
100
AcDbEntity
  8
0
 62
7
100
AcDbLine
 10
27.542882
 20
12.271231
 30
0.0
 11
27.365082
 21
12.957031
 31
0.0
  0
LINE
  5
214
100
AcDbEntity
  8
0
 62
7
100
AcDbLine
 10
14.486756
 20
4.600432
 30
0.0
 11
14.486756
 21
5.270431
 31
0.0
  0
SPLINE
  5
215
100
AcDbEntity
  8
0
 62
7
100
AcDbSpline
 70
8
 71
3
 72
8
 73
4
 74
0
 40
0
 40
0
 40
0
 40
0
 40
1
 40
1
 40
1
 40
1
 10
28.711282
 20
7.318230
 30
0.0
 10
28.752478
 20
7.320747
 30
0.0
 10
28.789632
 20
7.343852
 30
0.0
 10
28.810109
 20
7.379687
 30
0.0
  0
SPLINE
  5
216
100
AcDbEntity
  8
0
 62
7
100
AcDbSpline
 70
8
 71
3
 72
8
 73
4
 74
0
 40
0
 40
0
 40
0
 40
0
 40
1
 40
1
 40
1
 40
1
 10
28.810109
 20
7.379687
 30
0.0
 10
28.830586
 20
7.415522
 30
0.0
 10
28.831628
 20
7.459262
 30
0.0
 10
28.812882
 20
7.496031
 30
0.0
  0
LINE
  5
217
100
AcDbEntity
  8
0
 62
7
100
AcDbLine
 10
5.833590
 20
13.483962
 30
0.0
 11
5.000624
 21
12.744566
 31
0.0
  0
LINE
  5
218
100
AcDbEntity
  8
0
 62
7
100
AcDbLine
 10
29.473282
 20
12.449031
 30
0.0
 11
30.438482
 21
8.842231
 31
0.0
  0
SPLINE
  5
219
100
AcDbEntity
  8
0
 62
7
100
AcDbSpline
 70
8
 71
3
 72
8
 73
4
 74
0
 40
0
 40
0
 40
0
 40
0
 40
1
 40
1
 40
1
 40
1
 10
23.808694
 20
5.718026
 30
0.0
 10
23.769122
 20
5.696690
 30
0.0
 10
23.740802
 20
5.659180
 30
0.0
 10
23.731120
 20
5.615277
 30
0.0
  0
SPLINE
  5
21a
100
AcDbEntity
  8
0
 62
7
100
AcDbSpline
 70
8
 71
3
 72
8
 73
4
 74
0
 40
0
 40
0
 40
0
 40
0
 40
1
 40
1
 40
1
 40
1
 10
23.731120
 20
5.615277
 30
0.0
 10
23.721438
 20
5.571375
 30
0.0
 10
23.731354
 20
5.525432
 30
0.0
 10
23.758282
 20
5.489431
 30
0.0
  0
SPLINE
  5
21b
100
AcDbEntity
  8
0
 62
7
100
AcDbSpline
 70
8
 71
3
 72
8
 73
4
 74
0
 40
0
 40
0
 40
0
 40
0
 40
1
 40
1
 40
1
 40
1
 10
19.392790
 20
11.745466
 30
0.0
 10
19.419926
 20
11.719888
 30
0.0
 10
19.458413
 20
11.710268
 30
0.0
 10
19.494392
 20
11.720068
 30
0.0
  0
LINE
  5
21c
100
AcDbEntity
  8
0
 62
7
100
AcDbLine
 10
14.486756
 20
5.270431
 30
0.0
 11
15.858356
 21
5.270432
 31
0.0
  0
LINE
  5
21d
100
AcDbEntity
  8
0
 62
7
100
AcDbLine
 10
6.298565
 20
3.887996
 30
0.0
 11
12.064365
 21
0.992396
 31
0.0
  0
LINE
  5
21e
100
AcDbEntity
  8
0
 62
7
100
AcDbLine
 10
28.639186
 20
8.226394
 30
0.0
 11
28.812882
 21
7.496031
 31
0.0
  0
SPLINE
  5
21f
100
AcDbEntity
  8
0
 62
7
100
AcDbSpline
 70
8
 71
3
 72
8
 73
4
 74
0
 40
0
 40
0
 40
0
 40
0
 40
1
 40
1
 40
1
 40
1
 10
3.237866
 20
13.006596
 30
0.0
 10
3.181714
 20
13.034085
 30
0.0
 10
3.113893
 20
13.011478
 30
0.0
 10
3.085465
 20
12.955796
 30
0.0
  0
SPLINE
  5
220
100
AcDbEntity
  8
0
 62
7
100
AcDbSpline
 70
8
 71
3
 72
8
 73
4
 74
0
 40
0
 40
0
 40
0
 40
0
 40
1
 40
1
 40
1
 40
1
 10
1.637662
 20
7.494797
 30
0.0
 10
1.618918
 20
7.458027
 30
0.0
 10
1.619962
 20
7.414287
 30
0.0
 10
1.640439
 20
7.378453
 30
0.0
  0
SPLINE
  5
221
100
AcDbEntity
  8
0
 62
7
100
AcDbSpline
 70
8
 71
3
 72
8
 73
4
 74
0
 40
0
 40
0
 40
0
 40
0
 40
1
 40
1
 40
1
 40
1
 10
1.640439
 20
7.378453
 30
0.0
 10
1.660916
 20
7.342619
 30
0.0
 10
1.698070
 20
7.319514
 30
0.0
 10
1.739266
 20
7.316996
 30
0.0
  0
LINE
  5
222
100
AcDbEntity
  8
0
 62
7
100
AcDbLine
 10
0.012065
 20
8.840996
 30
0.0
 11
0.977266
 21
12.447796
 31
0.0
  0
LINE
  5
223
100
AcDbEntity
  8
0
 62
7
100
AcDbLine
 10
8.263756
 20
13.039631
 30
0.0
 11
8.060556
 21
12.658631
 31
0.0
  0
LINE
  5
224
100
AcDbEntity
  8
0
 62
7
100
AcDbLine
 10
12.277482
 20
0.636796
 30
0.0
 11
12.277482
 21
0.128796
 31
0.0
  0
SPLINE
  5
225
100
AcDbEntity
  8
0
 62
7
100
AcDbSpline
 70
8
 71
3
 72
8
 73
4
 74
0
 40
0
 40
0
 40
0
 40
0
 40
1
 40
1
 40
1
 40
1
 10
18.071466
 20
0.001796
 30
0.0
 10
18.132991
 20
0.011636
 30
0.0
 10
18.176971
 20
0.066611
 30
0.0
 10
18.173066
 20
0.128796
 30
0.0
  0
SPLINE
  5
226
100
AcDbEntity
  8
0
 62
7
100
AcDbSpline
 70
8
 71
3
 72
8
 73
4
 74
0
 40
0
 40
0
 40
0
 40
0
 40
1
 40
1
 40
1
 40
1
 10
5.887348
 20
13.491930
 30
0.0
 10
5.869411
 20
13.500000
 30
0.0
 10
5.848416
 20
13.496889
 30
0.0
 10
5.833590
 20
13.483962
 30
0.0
  0
LINE
  5
227
100
AcDbEntity
  8
0
 62
7
100
AcDbLine
 10
1.769319
 20
8.299969
 30
0.0
 11
0.064871
 21
8.744231
 31
0.0
  0
SPLINE
  5
228
100
AcDbEntity
  8
0
 62
7
100
AcDbSpline
 70
8
 71
3
 72
8
 73
4
 74
0
 40
0
 40
0
 40
0
 40
0
 40
1
 40
1
 40
1
 40
1
 10
12.277485
 20
0.636795
 30
0.0
 10
12.286640
 20
0.787952
 30
0.0
 10
12.201985
 20
0.929204
 30
0.0
 10
12.064365
 20
0.992396
 30
0.0
  0
LINE
  5
229
100
AcDbEntity
  8
0
 62
7
100
AcDbLine
 10
18.386182
 20
0.993631
 30
0.0
 11
24.151982
 21
3.889231
 31
0.0
  0
LINE
  5
22a
100
AcDbEntity
  8
0
 62
7
100
AcDbLine
 10
27.212682
 20
13.007831
 30
0.0
 11
25.517148
 21
12.728100
 31
0.0
  0
SPLINE
  5
22b
100
AcDbEntity
  8
0
 62
7
100
AcDbSpline
 70
8
 71
3
 72
8
 73
4
 74
0
 40
0
 40
0
 40
0
 40
0
 40
1
 40
1
 40
1
 40
1
 10
6.692265
 20
5.488196
 30
0.0
 10
6.719195
 20
5.524197
 30
0.0
 10
6.729112
 20
5.570140
 30
0.0
 10
6.719431
 20
5.614044
 30
0.0
  0
SPLINE
  5
22c
100
AcDbEntity
  8
0
 62
7
100
AcDbSpline
 70
8
 71
3
 72
8
 73
4
 74
0
 40
0
 40
0
 40
0
 40
0
 40
1
 40
1
 40
1
 40
1
 10
6.719431
 20
5.614044
 30
0.0
 10
6.709750
 20
5.657948
 30
0.0
 10
6.681430
 20
5.695460
 30
0.0
 10
6.641856
 20
5.716796
 30
0.0
  0
SPLINE
  5
22d
100
AcDbEntity
  8
0
 62
7
100
AcDbSpline
 70
8
 71
3
 72
8
 73
4
 74
0
 40
0
 40
0
 40
0
 40
0
 40
1
 40
1
 40
1
 40
1
 10
10.956156
 20
11.718829
 30
0.0
 10
10.992135
 20
11.709032
 30
0.0
 10
11.030621
 20
11.718654
 30
0.0
 10
11.057756
 20
11.744231
 30
0.0
  0
SPLINE
  5
22e
100
AcDbEntity
  8
0
 62
7
100
AcDbSpline
 70
8
 71
3
 72
8
 73
4
 74
0
 40
0
 40
0
 40
0
 40
0
 40
1
 40
1
 40
1
 40
1
 10
16.736265
 20
6.663336
 30
0.0
 10
16.667167
 20
6.663336
 30
0.0
 10
16.604872
 20
6.621712
 30
0.0
 10
16.578429
 20
6.557874
 30
0.0
  0
SPLINE
  5
22f
100
AcDbEntity
  8
0
 62
7
100
AcDbSpline
 70
8
 71
3
 72
8
 73
4
 74
0
 40
0
 40
0
 40
0
 40
0
 40
1
 40
1
 40
1
 40
1
 10
16.578429
 20
6.557874
 30
0.0
 10
16.551986
 20
6.494035
 30
0.0
 10
16.566603
 20
6.420553
 30
0.0
 10
16.615463
 20
6.371693
 30
0.0
  0
SPLINE
  5
230
100
AcDbEntity
  8
0
 62
7
100
AcDbSpline
 70
8
 71
3
 72
8
 73
4
 74
0
 40
0
 40
0
 40
0
 40
0
 40
1
 40
1
 40
1
 40
1
 10
16.615463
 20
6.371693
 30
0.0
 10
16.664323
 20
6.322833
 30
0.0
 10
16.737805
 20
6.308216
 30
0.0
 10
16.801643
 20
6.334659
 30
0.0
  0
SPLINE
  5
231
100
AcDbEntity
  8
0
 62
7
100
AcDbSpline
 70
8
 71
3
 72
8
 73
4
 74
0
 40
0
 40
0
 40
0
 40
0
 40
1
 40
1
 40
1
 40
1
 10
16.801643
 20
6.334659
 30
0.0
 10
16.865482
 20
6.361102
 30
0.0
 10
16.907106
 20
6.423397
 30
0.0
 10
16.907106
 20
6.492496
 30
0.0
  0
SPLINE
  5
232
100
AcDbEntity
  8
0
 62
7
100
AcDbSpline
 70
8
 71
3
 72
8
 73
4
 74
0
 40
0
 40
0
 40
0
 40
0
 40
1
 40
1
 40
1
 40
1
 10
16.907106
 20
6.492496
 30
0.0
 10
16.907106
 20
6.537805
 30
0.0
 10
16.889107
 20
6.581259
 30
0.0
 10
16.857068
 20
6.613298
 30
0.0
  0
SPLINE
  5
233
100
AcDbEntity
  8
0
 62
7
100
AcDbSpline
 70
8
 71
3
 72
8
 73
4
 74
0
 40
0
 40
0
 40
0
 40
0
 40
1
 40
1
 40
1
 40
1
 10
16.857068
 20
6.613298
 30
0.0
 10
16.825029
 20
6.645337
 30
0.0
 10
16.781575
 20
6.663336
 30
0.0
 10
16.736265
 20
6.663336
 30
0.0
  0
LINE
  5
234
100
AcDbEntity
  8
0
 62
7
100
AcDbLine
 10
16.736265
 20
6.663336
 30
0.0
 11
16.736265
 21
6.663336
 31
0.0
  0
SPLINE
  5
235
100
AcDbEntity
  8
0
 62
7
100
AcDbSpline
 70
8
 71
3
 72
8
 73
4
 74
0
 40
0
 40
0
 40
0
 40
0
 40
1
 40
1
 40
1
 40
1
 10
25.047364
 20
12.612612
 30
0.0
 10
24.978265
 20
12.612612
 30
0.0
 10
24.915970
 20
12.570988
 30
0.0
 10
24.889527
 20
12.507149
 30
0.0
  0
SPLINE
  5
236
100
AcDbEntity
  8
0
 62
7
100
AcDbSpline
 70
8
 71
3
 72
8
 73
4
 74
0
 40
0
 40
0
 40
0
 40
0
 40
1
 40
1
 40
1
 40
1
 10
24.889527
 20
12.507149
 30
0.0
 10
24.863084
 20
12.443310
 30
0.0
 10
24.877701
 20
12.369828
 30
0.0
 10
24.926561
 20
12.320968
 30
0.0
  0
SPLINE
  5
237
100
AcDbEntity
  8
0
 62
7
100
AcDbSpline
 70
8
 71
3
 72
8
 73
4
 74
0
 40
0
 40
0
 40
0
 40
0
 40
1
 40
1
 40
1
 40
1
 10
24.926561
 20
12.320968
 30
0.0
 10
24.975421
 20
12.272108
 30
0.0
 10
25.048903
 20
12.257491
 30
0.0
 10
25.112742
 20
12.283934
 30
0.0
  0
SPLINE
  5
238
100
AcDbEntity
  8
0
 62
7
100
AcDbSpline
 70
8
 71
3
 72
8
 73
4
 74
0
 40
0
 40
0
 40
0
 40
0
 40
1
 40
1
 40
1
 40
1
 10
25.112742
 20
12.283934
 30
0.0
 10
25.176581
 20
12.310377
 30
0.0
 10
25.218205
 20
12.372672
 30
0.0
 10
25.218205
 20
12.441771
 30
0.0
  0
SPLINE
  5
239
100
AcDbEntity
  8
0
 62
7
100
AcDbSpline
 70
8
 71
3
 72
8
 73
4
 74
0
 40
0
 40
0
 40
0
 40
0
 40
1
 40
1
 40
1
 40
1
 10
25.218205
 20
12.441771
 30
0.0
 10
25.218205
 20
12.487081
 30
0.0
 10
25.200205
 20
12.530535
 30
0.0
 10
25.168166
 20
12.562574
 30
0.0
  0
SPLINE
  5
23a
100
AcDbEntity
  8
0
 62
7
100
AcDbSpline
 70
8
 71
3
 72
8
 73
4
 74
0
 40
0
 40
0
 40
0
 40
0
 40
1
 40
1
 40
1
 40
1
 10
25.168166
 20
12.562574
 30
0.0
 10
25.136128
 20
12.594612
 30
0.0
 10
25.092674
 20
12.612612
 30
0.0
 10
25.047364
 20
12.612612
 30
0.0
  0
LINE
  5
23b
100
AcDbEntity
  8
0
 62
7
100
AcDbLine
 10
25.047364
 20
12.612612
 30
0.0
 11
25.047364
 21
12.612612
 31
0.0
  0
SPLINE
  5
23c
100
AcDbEntity
  8
0
 62
7
100
AcDbSpline
 70
8
 71
3
 72
8
 73
4
 74
0
 40
0
 40
0
 40
0
 40
0
 40
1
 40
1
 40
1
 40
1
 10
13.604156
 20
6.663336
 30
0.0
 10
13.535057
 20
6.663336
 30
0.0
 10
13.472763
 20
6.621712
 30
0.0
 10
13.446320
 20
6.557874
 30
0.0
  0
SPLINE
  5
23d
100
AcDbEntity
  8
0
 62
7
100
AcDbSpline
 70
8
 71
3
 72
8
 73
4
 74
0
 40
0
 40
0
 40
0
 40
0
 40
1
 40
1
 40
1
 40
1
 10
13.446320
 20
6.557874
 30
0.0
 10
13.419877
 20
6.494035
 30
0.0
 10
13.434493
 20
6.420553
 30
0.0
 10
13.483353
 20
6.371693
 30
0.0
  0
SPLINE
  5
23e
100
AcDbEntity
  8
0
 62
7
100
AcDbSpline
 70
8
 71
3
 72
8
 73
4
 74
0
 40
0
 40
0
 40
0
 40
0
 40
1
 40
1
 40
1
 40
1
 10
13.483353
 20
6.371693
 30
0.0
 10
13.532213
 20
6.322833
 30
0.0
 10
13.605695
 20
6.308216
 30
0.0
 10
13.669534
 20
6.334659
 30
0.0
  0
SPLINE
  5
23f
100
AcDbEntity
  8
0
 62
7
100
AcDbSpline
 70
8
 71
3
 72
8
 73
4
 74
0
 40
0
 40
0
 40
0
 40
0
 40
1
 40
1
 40
1
 40
1
 10
13.669534
 20
6.334659
 30
0.0
 10
13.733373
 20
6.361102
 30
0.0
 10
13.774997
 20
6.423397
 30
0.0
 10
13.774997
 20
6.492496
 30
0.0
  0
SPLINE
  5
240
100
AcDbEntity
  8
0
 62
7
100
AcDbSpline
 70
8
 71
3
 72
8
 73
4
 74
0
 40
0
 40
0
 40
0
 40
0
 40
1
 40
1
 40
1
 40
1
 10
13.774997
 20
6.492496
 30
0.0
 10
13.774997
 20
6.537805
 30
0.0
 10
13.756998
 20
6.581259
 30
0.0
 10
13.724959
 20
6.613298
 30
0.0
  0
SPLINE
  5
241
100
AcDbEntity
  8
0
 62
7
100
AcDbSpline
 70
8
 71
3
 72
8
 73
4
 74
0
 40
0
 40
0
 40
0
 40
0
 40
1
 40
1
 40
1
 40
1
 10
13.724959
 20
6.613298
 30
0.0
 10
13.692920
 20
6.645337
 30
0.0
 10
13.649466
 20
6.663336
 30
0.0
 10
13.604156
 20
6.663336
 30
0.0
  0
LINE
  5
242
100
AcDbEntity
  8
0
 62
7
100
AcDbLine
 10
13.604156
 20
6.663336
 30
0.0
 11
13.604156
 21
6.663336
 31
0.0
  0
SPLINE
  5
243
100
AcDbEntity
  8
0
 62
7
100
AcDbSpline
 70
8
 71
3
 72
8
 73
4
 74
0
 40
0
 40
0
 40
0
 40
0
 40
1
 40
1
 40
1
 40
1
 10
19.393457
 20
4.374617
 30
0.0
 10
19.324359
 20
4.374617
 30
0.0
 10
19.262064
 20
4.332993
 30
0.0
 10
19.235621
 20
4.269154
 30
0.0
  0
SPLINE
  5
244
100
AcDbEntity
  8
0
 62
7
100
AcDbSpline
 70
8
 71
3
 72
8
 73
4
 74
0
 40
0
 40
0
 40
0
 40
0
 40
1
 40
1
 40
1
 40
1
 10
19.235621
 20
4.269154
 30
0.0
 10
19.209178
 20
4.205316
 30
0.0
 10
19.223794
 20
4.131834
 30
0.0
 10
19.272655
 20
4.082974
 30
0.0
  0
SPLINE
  5
245
100
AcDbEntity
  8
0
 62
7
100
AcDbSpline
 70
8
 71
3
 72
8
 73
4
 74
0
 40
0
 40
0
 40
0
 40
0
 40
1
 40
1
 40
1
 40
1
 10
19.272655
 20
4.082974
 30
0.0
 10
19.321515
 20
4.034114
 30
0.0
 10
19.394996
 20
4.019497
 30
0.0
 10
19.458835
 20
4.045940
 30
0.0
  0
SPLINE
  5
246
100
AcDbEntity
  8
0
 62
7
100
AcDbSpline
 70
8
 71
3
 72
8
 73
4
 74
0
 40
0
 40
0
 40
0
 40
0
 40
1
 40
1
 40
1
 40
1
 10
19.458835
 20
4.045940
 30
0.0
 10
19.522674
 20
4.072383
 30
0.0
 10
19.564298
 20
4.134678
 30
0.0
 10
19.564298
 20
4.203777
 30
0.0
  0
SPLINE
  5
247
100
AcDbEntity
  8
0
 62
7
100
AcDbSpline
 70
8
 71
3
 72
8
 73
4
 74
0
 40
0
 40
0
 40
0
 40
0
 40
1
 40
1
 40
1
 40
1
 10
19.564298
 20
4.203777
 30
0.0
 10
19.564298
 20
4.249086
 30
0.0
 10
19.546299
 20
4.292540
 30
0.0
 10
19.514260
 20
4.324579
 30
0.0
  0
SPLINE
  5
248
100
AcDbEntity
  8
0
 62
7
100
AcDbSpline
 70
8
 71
3
 72
8
 73
4
 74
0
 40
0
 40
0
 40
0
 40
0
 40
1
 40
1
 40
1
 40
1
 10
19.514260
 20
4.324579
 30
0.0
 10
19.482221
 20
4.356618
 30
0.0
 10
19.438767
 20
4.374617
 30
0.0
 10
19.393457
 20
4.374617
 30
0.0
  0
LINE
  5
249
100
AcDbEntity
  8
0
 62
7
100
AcDbLine
 10
19.393457
 20
4.374617
 30
0.0
 11
19.393457
 21
4.374617
 31
0.0
  0
SPLINE
  5
24a
100
AcDbEntity
  8
0
 62
7
100
AcDbSpline
 70
8
 71
3
 72
8
 73
4
 74
0
 40
0
 40
0
 40
0
 40
0
 40
1
 40
1
 40
1
 40
1
 10
10.909648
 20
4.466254
 30
0.0
 10
10.840549
 20
4.466254
 30
0.0
 10
10.778254
 20
4.424630
 30
0.0
 10
10.751812
 20
4.360791
 30
0.0
  0
SPLINE
  5
24b
100
AcDbEntity
  8
0
 62
7
100
AcDbSpline
 70
8
 71
3
 72
8
 73
4
 74
0
 40
0
 40
0
 40
0
 40
0
 40
1
 40
1
 40
1
 40
1
 10
10.751812
 20
4.360791
 30
0.0
 10
10.725369
 20
4.296952
 30
0.0
 10
10.739985
 20
4.223470
 30
0.0
 10
10.788845
 20
4.174610
 30
0.0
  0
SPLINE
  5
24c
100
AcDbEntity
  8
0
 62
7
100
AcDbSpline
 70
8
 71
3
 72
8
 73
4
 74
0
 40
0
 40
0
 40
0
 40
0
 40
1
 40
1
 40
1
 40
1
 10
10.788845
 20
4.174610
 30
0.0
 10
10.837705
 20
4.125750
 30
0.0
 10
10.911187
 20
4.111134
 30
0.0
 10
10.975026
 20
4.137577
 30
0.0
  0
SPLINE
  5
24d
100
AcDbEntity
  8
0
 62
7
100
AcDbSpline
 70
8
 71
3
 72
8
 73
4
 74
0
 40
0
 40
0
 40
0
 40
0
 40
1
 40
1
 40
1
 40
1
 10
10.975026
 20
4.137577
 30
0.0
 10
11.038865
 20
4.164019
 30
0.0
 10
11.080489
 20
4.226314
 30
0.0
 10
11.080489
 20
4.295413
 30
0.0
  0
SPLINE
  5
24e
100
AcDbEntity
  8
0
 62
7
100
AcDbSpline
 70
8
 71
3
 72
8
 73
4
 74
0
 40
0
 40
0
 40
0
 40
0
 40
1
 40
1
 40
1
 40
1
 10
11.080489
 20
4.295413
 30
0.0
 10
11.080489
 20
4.340723
 30
0.0
 10
11.062489
 20
4.384177
 30
0.0
 10
11.030451
 20
4.416216
 30
0.0
  0
SPLINE
  5
24f
100
AcDbEntity
  8
0
 62
7
100
AcDbSpline
 70
8
 71
3
 72
8
 73
4
 74
0
 40
0
 40
0
 40
0
 40
0
 40
1
 40
1
 40
1
 40
1
 10
11.030451
 20
4.416216
 30
0.0
 10
10.998412
 20
4.448254
 30
0.0
 10
10.954958
 20
4.466254
 30
0.0
 10
10.909648
 20
4.466254
 30
0.0
  0
LINE
  5
250
100
AcDbEntity
  8
0
 62
7
100
AcDbLine
 10
10.909648
 20
4.466254
 30
0.0
 11
10.909648
 21
4.466254
 31
0.0
  0
SPLINE
  5
251
100
AcDbEntity
  8
0
 62
7
100
AcDbSpline
 70
8
 71
3
 72
8
 73
4
 74
0
 40
0
 40
0
 40
0
 40
0
 40
1
 40
1
 40
1
 40
1
 10
6.435939
 20
7.245690
 30
0.0
 10
6.366840
 20
7.245690
 30
0.0
 10
6.304545
 20
7.204065
 30
0.0
 10
6.278102
 20
7.140227
 30
0.0
  0
SPLINE
  5
252
100
AcDbEntity
  8
0
 62
7
100
AcDbSpline
 70
8
 71
3
 72
8
 73
4
 74
0
 40
0
 40
0
 40
0
 40
0
 40
1
 40
1
 40
1
 40
1
 10
6.278102
 20
7.140227
 30
0.0
 10
6.251659
 20
7.076388
 30
0.0
 10
6.266276
 20
7.002906
 30
0.0
 10
6.315136
 20
6.954046
 30
0.0
  0
SPLINE
  5
253
100
AcDbEntity
  8
0
 62
7
100
AcDbSpline
 70
8
 71
3
 72
8
 73
4
 74
0
 40
0
 40
0
 40
0
 40
0
 40
1
 40
1
 40
1
 40
1
 10
6.315136
 20
6.954046
 30
0.0
 10
6.363996
 20
6.905186
 30
0.0
 10
6.437478
 20
6.890569
 30
0.0
 10
6.501317
 20
6.917012
 30
0.0
  0
SPLINE
  5
254
100
AcDbEntity
  8
0
 62
7
100
AcDbSpline
 70
8
 71
3
 72
8
 73
4
 74
0
 40
0
 40
0
 40
0
 40
0
 40
1
 40
1
 40
1
 40
1
 10
6.501317
 20
6.917012
 30
0.0
 10
6.565155
 20
6.943455
 30
0.0
 10
6.606779
 20
7.005750
 30
0.0
 10
6.606779
 20
7.074849
 30
0.0
  0
SPLINE
  5
255
100
AcDbEntity
  8
0
 62
7
100
AcDbSpline
 70
8
 71
3
 72
8
 73
4
 74
0
 40
0
 40
0
 40
0
 40
0
 40
1
 40
1
 40
1
 40
1
 10
6.606779
 20
7.074849
 30
0.0
 10
6.606779
 20
7.120158
 30
0.0
 10
6.588780
 20
7.163613
 30
0.0
 10
6.556741
 20
7.195651
 30
0.0
  0
SPLINE
  5
256
100
AcDbEntity
  8
0
 62
7
100
AcDbSpline
 70
8
 71
3
 72
8
 73
4
 74
0
 40
0
 40
0
 40
0
 40
0
 40
1
 40
1
 40
1
 40
1
 10
6.556741
 20
7.195651
 30
0.0
 10
6.524703
 20
7.227690
 30
0.0
 10
6.481248
 20
7.245690
 30
0.0
 10
6.435939
 20
7.245690
 30
0.0
  0
LINE
  5
257
100
AcDbEntity
  8
0
 62
7
100
AcDbLine
 10
6.435939
 20
7.245690
 30
0.0
 11
6.435939
 21
7.245690
 31
0.0
  0
SPLINE
  5
258
100
AcDbEntity
  8
0
 62
7
100
AcDbSpline
 70
8
 71
3
 72
8
 73
4
 74
0
 40
0
 40
0
 40
0
 40
0
 40
1
 40
1
 40
1
 40
1
 10
5.302253
 20
12.606379
 30
0.0
 10
5.233154
 20
12.606379
 30
0.0
 10
5.170860
 20
12.564755
 30
0.0
 10
5.144417
 20
12.500916
 30
0.0
  0
SPLINE
  5
259
100
AcDbEntity
  8
0
 62
7
100
AcDbSpline
 70
8
 71
3
 72
8
 73
4
 74
0
 40
0
 40
0
 40
0
 40
0
 40
1
 40
1
 40
1
 40
1
 10
5.144417
 20
12.500916
 30
0.0
 10
5.117974
 20
12.437077
 30
0.0
 10
5.132590
 20
12.363595
 30
0.0
 10
5.181450
 20
12.314735
 30
0.0
  0
SPLINE
  5
25a
100
AcDbEntity
  8
0
 62
7
100
AcDbSpline
 70
8
 71
3
 72
8
 73
4
 74
0
 40
0
 40
0
 40
0
 40
0
 40
1
 40
1
 40
1
 40
1
 10
5.181450
 20
12.314735
 30
0.0
 10
5.230310
 20
12.265875
 30
0.0
 10
5.303792
 20
12.251259
 30
0.0
 10
5.367631
 20
12.277702
 30
0.0
  0
SPLINE
  5
25b
100
AcDbEntity
  8
0
 62
7
100
AcDbSpline
 70
8
 71
3
 72
8
 73
4
 74
0
 40
0
 40
0
 40
0
 40
0
 40
1
 40
1
 40
1
 40
1
 10
5.367631
 20
12.277702
 30
0.0
 10
5.431470
 20
12.304145
 30
0.0
 10
5.473094
 20
12.366439
 30
0.0
 10
5.473094
 20
12.435538
 30
0.0
  0
SPLINE
  5
25c
100
AcDbEntity
  8
0
 62
7
100
AcDbSpline
 70
8
 71
3
 72
8
 73
4
 74
0
 40
0
 40
0
 40
0
 40
0
 40
1
 40
1
 40
1
 40
1
 10
5.473094
 20
12.435538
 30
0.0
 10
5.473094
 20
12.480848
 30
0.0
 10
5.455095
 20
12.524302
 30
0.0
 10
5.423056
 20
12.556341
 30
0.0
  0
SPLINE
  5
25d
100
AcDbEntity
  8
0
 62
7
100
AcDbSpline
 70
8
 71
3
 72
8
 73
4
 74
0
 40
0
 40
0
 40
0
 40
0
 40
1
 40
1
 40
1
 40
1
 10
5.423056
 20
12.556341
 30
0.0
 10
5.391017
 20
12.588380
 30
0.0
 10
5.347563
 20
12.606379
 30
0.0
 10
5.302253
 20
12.606379
 30
0.0
  0
LINE
  5
25e
100
AcDbEntity
  8
0
 62
7
100
AcDbLine
 10
5.302253
 20
12.606379
 30
0.0
 11
5.302253
 21
12.606379
 31
0.0
  0
SPLINE
  5
25f
100
AcDbEntity
  8
0
 62
7
100
AcDbSpline
 70
8
 71
3
 72
8
 73
4
 74
0
 40
0
 40
0
 40
0
 40
0
 40
1
 40
1
 40
1
 40
1
 10
23.881856
 20
7.220237
 30
0.0
 10
23.812757
 20
7.220237
 30
0.0
 10
23.750462
 20
7.178613
 30
0.0
 10
23.724019
 20
7.114774
 30
0.0
  0
SPLINE
  5
260
100
AcDbEntity
  8
0
 62
7
100
AcDbSpline
 70
8
 71
3
 72
8
 73
4
 74
0
 40
0
 40
0
 40
0
 40
0
 40
1
 40
1
 40
1
 40
1
 10
23.724019
 20
7.114774
 30
0.0
 10
23.697577
 20
7.050935
 30
0.0
 10
23.712193
 20
6.977454
 30
0.0
 10
23.761053
 20
6.928593
 30
0.0
  0
SPLINE
  5
261
100
AcDbEntity
  8
0
 62
7
100
AcDbSpline
 70
8
 71
3
 72
8
 73
4
 74
0
 40
0
 40
0
 40
0
 40
0
 40
1
 40
1
 40
1
 40
1
 10
23.761053
 20
6.928593
 30
0.0
 10
23.809913
 20
6.879733
 30
0.0
 10
23.883395
 20
6.865117
 30
0.0
 10
23.947234
 20
6.891560
 30
0.0
  0
SPLINE
  5
262
100
AcDbEntity
  8
0
 62
7
100
AcDbSpline
 70
8
 71
3
 72
8
 73
4
 74
0
 40
0
 40
0
 40
0
 40
0
 40
1
 40
1
 40
1
 40
1
 10
23.947234
 20
6.891560
 30
0.0
 10
24.011073
 20
6.918003
 30
0.0
 10
24.052697
 20
6.980298
 30
0.0
 10
24.052697
 20
7.049396
 30
0.0
  0
SPLINE
  5
263
100
AcDbEntity
  8
0
 62
7
100
AcDbSpline
 70
8
 71
3
 72
8
 73
4
 74
0
 40
0
 40
0
 40
0
 40
0
 40
1
 40
1
 40
1
 40
1
 10
24.052697
 20
7.049396
 30
0.0
 10
24.052697
 20
7.094706
 30
0.0
 10
24.034698
 20
7.138160
 30
0.0
 10
24.002659
 20
7.170199
 30
0.0
  0
SPLINE
  5
264
100
AcDbEntity
  8
0
 62
7
100
AcDbSpline
 70
8
 71
3
 72
8
 73
4
 74
0
 40
0
 40
0
 40
0
 40
0
 40
1
 40
1
 40
1
 40
1
 10
24.002659
 20
7.170199
 30
0.0
 10
23.970620
 20
7.202238
 30
0.0
 10
23.927166
 20
7.220237
 30
0.0
 10
23.881856
 20
7.220237
 30
0.0
  0
LINE
  5
265
100
AcDbEntity
  8
0
 62
7
100
AcDbLine
 10
23.881856
 20
7.220237
 30
0.0
 11
23.881856
 21
7.220237
 31
0.0
  0
LINE
  5
266
100
AcDbEntity
  8
0
 62
7
100
AcDbLine
 10
14.738556
 20
7.398996
 30
0.0
 11
15.598556
 21
7.398996
 31
0.0
  0
LINE
  5
267
100
AcDbEntity
  8
0
 62
7
100
AcDbLine
 10
15.598556
 20
7.398996
 30
0.0
 11
15.598556
 21
5.672996
 31
0.0
  0
LINE
  5
268
100
AcDbEntity
  8
0
 62
7
100
AcDbLine
 10
15.598556
 20
5.672996
 30
0.0
 11
14.738556
 21
5.672996
 31
0.0
  0
LINE
  5
269
100
AcDbEntity
  8
0
 62
7
100
AcDbLine
 10
14.738556
 20
5.672996
 30
0.0
 11
14.738556
 21
7.398996
 31
0.0
  0
LINE
  5
26a
100
AcDbEntity
  8
0
 62
7
100
AcDbLine
 10
16.433065
 20
1.793996
 30
0.0
 11
17.833066
 21
1.793996
 31
0.0
  0
LINE
  5
26b
100
AcDbEntity
  8
0
 62
7
100
AcDbLine
 10
16.432066
 20
0.394996
 30
0.0
 11
16.433065
 21
1.793996
 31
0.0
  0
LINE
  5
26c
100
AcDbEntity
  8
0
 62
7
100
AcDbLine
 10
17.833066
 20
1.793996
 30
0.0
 11
17.832065
 21
0.392996
 31
0.0
  0
LINE
  5
26d
100
AcDbEntity
  8
0
 62
7
100
AcDbLine
 10
17.832065
 20
0.392996
 30
0.0
 11
16.432066
 21
0.394996
 31
0.0
  0
LINE
  5
26e
100
AcDbEntity
  8
0
 62
7
100
AcDbLine
 10
26.630515
 20
8.562561
 30
0.0
 11
27.982811
 21
8.924908
 31
0.0
  0
LINE
  5
26f
100
AcDbEntity
  8
0
 62
7
100
AcDbLine
 10
26.991636
 20
7.210972
 30
0.0
 11
26.630515
 21
8.562561
 31
0.0
  0
LINE
  5
270
100
AcDbEntity
  8
0
 62
7
100
AcDbLine
 10
27.982811
 20
8.924908
 30
0.0
 11
28.344450
 21
7.571387
 31
0.0
  0
LINE
  5
271
100
AcDbEntity
  8
0
 62
7
100
AcDbLine
 10
28.344450
 20
7.571387
 30
0.0
 11
26.991636
 21
7.210972
 31
0.0
  0
LINE
  5
272
100
AcDbEntity
  8
0
 62
7
100
AcDbLine
 10
7.355159
 20
5.932938
 30
0.0
 11
8.602568
 21
5.297351
 31
0.0
  0
LINE
  5
273
100
AcDbEntity
  8
0
 62
7
100
AcDbLine
 10
6.719135
 20
4.686874
 30
0.0
 11
7.355159
 21
5.932938
 31
0.0
  0
LINE
  5
274
100
AcDbEntity
  8
0
 62
7
100
AcDbLine
 10
8.602568
 20
5.297351
 30
0.0
 11
7.965637
 21
4.049505
 31
0.0
  0
LINE
  5
275
100
AcDbEntity
  8
0
 62
7
100
AcDbLine
 10
7.965637
 20
4.049505
 30
0.0
 11
6.719135
 21
4.686874
 31
0.0
  0
LINE
  5
276
100
AcDbEntity
  8
0
 62
7
100
AcDbLine
 10
26.137679
 20
10.402893
 30
0.0
 11
27.489975
 21
10.765240
 31
0.0
  0
LINE
  5
277
100
AcDbEntity
  8
0
 62
7
100
AcDbLine
 10
26.498801
 20
9.051304
 30
0.0
 11
26.137679
 21
10.402893
 31
0.0
  0
LINE
  5
278
100
AcDbEntity
  8
0
 62
7
100
AcDbLine
 10
27.489975
 20
10.765240
 30
0.0
 11
27.851615
 21
9.411719
 31
0.0
  0
LINE
  5
279
100
AcDbEntity
  8
0
 62
7
100
AcDbLine
 10
27.851615
 20
9.411719
 30
0.0
 11
26.498801
 21
9.051304
 31
0.0
  0
LINE
  5
27a
100
AcDbEntity
  8
0
 62
7
100
AcDbLine
 10
17.565084
 20
9.322334
 30
0.0
 11
18.812493
 21
9.957921
 31
0.0
  0
LINE
  5
27b
100
AcDbEntity
  8
0
 62
7
100
AcDbLine
 10
18.199326
 20
8.075362
 30
0.0
 11
17.565084
 21
9.322334
 31
0.0
  0
LINE
  5
27c
100
AcDbEntity
  8
0
 62
7
100
AcDbLine
 10
18.812493
 20
9.957921
 30
0.0
 11
19.447643
 21
8.709167
 31
0.0
  0
LINE
  5
27d
100
AcDbEntity
  8
0
 62
7
100
AcDbLine
 10
19.447643
 20
8.709167
 30
0.0
 11
18.199326
 21
8.075362
 31
0.0
  0
LINE
  5
27e
100
AcDbEntity
  8
0
 62
7
100
AcDbLine
 10
19.195302
 20
10.326544
 30
0.0
 11
20.442711
 21
10.962131
 31
0.0
  0
LINE
  5
27f
100
AcDbEntity
  8
0
 62
7
100
AcDbLine
 10
19.829543
 20
9.079572
 30
0.0
 11
19.195302
 21
10.326544
 31
0.0
  0
LINE
  5
280
100
AcDbEntity
  8
0
 62
7
100
AcDbLine
 10
20.442711
 20
10.962131
 30
0.0
 11
21.077861
 21
9.713376
 31
0.0
  0
LINE
  5
281
100
AcDbEntity
  8
0
 62
7
100
AcDbLine
 10
21.077861
 20
9.713376
 30
0.0
 11
19.829543
 21
9.079572
 31
0.0
  0
LINE
  5
282
100
AcDbEntity
  8
0
 62
7
100
AcDbLine
 10
2.346062
 20
8.936576
 30
0.0
 11
3.698359
 21
8.574229
 31
0.0
  0
LINE
  5
283
100
AcDbEntity
  8
0
 62
7
100
AcDbLine
 10
1.983009
 20
7.585504
 30
0.0
 11
2.346062
 21
8.936576
 31
0.0
  0
LINE
  5
284
100
AcDbEntity
  8
0
 62
7
100
AcDbLine
 10
3.698359
 20
8.574229
 30
0.0
 11
3.334787
 21
7.221226
 31
0.0
  0
LINE
  5
285
100
AcDbEntity
  8
0
 62
7
100
AcDbLine
 10
3.334787
 20
7.221226
 30
0.0
 11
1.983009
 21
7.585504
 31
0.0
  0
LINE
  5
286
100
AcDbEntity
  8
0
 62
7
100
AcDbLine
 10
28.233695
 20
9.964517
 30
0.0
 11
29.585991
 21
10.326864
 31
0.0
  0
LINE
  5
287
100
AcDbEntity
  8
0
 62
7
100
AcDbLine
 10
28.594817
 20
8.612928
 30
0.0
 11
28.233695
 21
9.964517
 31
0.0
  0
LINE
  5
288
100
AcDbEntity
  8
0
 62
7
100
AcDbLine
 10
29.585991
 20
10.326864
 30
0.0
 11
29.947631
 21
8.973343
 31
0.0
  0
LINE
  5
289
100
AcDbEntity
  8
0
 62
7
100
AcDbLine
 10
29.947631
 20
8.973343
 30
0.0
 11
28.594817
 21
8.612928
 31
0.0
  0
LINE
  5
28a
100
AcDbEntity
  8
0
 62
7
100
AcDbLine
 10
1.224494
 20
12.192388
 30
0.0
 11
2.576790
 21
11.830041
 31
0.0
  0
LINE
  5
28b
100
AcDbEntity
  8
0
 62
7
100
AcDbLine
 10
0.861440
 20
10.841316
 30
0.0
 11
1.224494
 21
12.192388
 31
0.0
  0
LINE
  5
28c
100
AcDbEntity
  8
0
 62
7
100
AcDbLine
 10
2.576790
 20
11.830041
 30
0.0
 11
2.213218
 21
10.477038
 31
0.0
  0
LINE
  5
28d
100
AcDbEntity
  8
0
 62
7
100
AcDbLine
 10
2.213218
 20
10.477038
 30
0.0
 11
0.861440
 21
10.841316
 31
0.0
  0
LINE
  5
28e
100
AcDbEntity
  8
0
 62
7
100
AcDbLine
 10
21.777277
 20
5.234853
 30
0.0
 11
23.024686
 21
5.870439
 31
0.0
  0
LINE
  5
28f
100
AcDbEntity
  8
0
 62
7
100
AcDbLine
 10
22.411518
 20
3.987881
 30
0.0
 11
21.777277
 21
5.234853
 31
0.0
  0
LINE
  5
290
100
AcDbEntity
  8
0
 62
7
100
AcDbLine
 10
23.024686
 20
5.870439
 30
0.0
 11
23.659835
 21
4.621685
 31
0.0
  0
LINE
  5
291
100
AcDbEntity
  8
0
 62
7
100
AcDbLine
 10
23.659835
 20
4.621685
 30
0.0
 11
22.411518
 21
3.987881
 31
0.0
  0
LINE
  5
292
100
AcDbEntity
  8
0
 62
7
100
AcDbLine
 10
7.624364
 20
10.766895
 30
0.0
 11
8.871773
 21
10.131308
 31
0.0
  0
LINE
  5
293
100
AcDbEntity
  8
0
 62
7
100
AcDbLine
 10
6.988341
 20
9.520831
 30
0.0
 11
7.624364
 21
10.766895
 31
0.0
  0
LINE
  5
294
100
AcDbEntity
  8
0
 62
7
100
AcDbLine
 10
8.871773
 20
10.131308
 30
0.0
 11
8.234842
 21
8.883462
 31
0.0
  0
LINE
  5
295
100
AcDbEntity
  8
0
 62
7
100
AcDbLine
 10
8.234842
 20
8.883462
 30
0.0
 11
6.988341
 21
9.520831
 31
0.0
  0
LINE
  5
296
100
AcDbEntity
  8
0
 62
7
100
AcDbLine
 10
9.864898
 20
6.633162
 30
0.0
 11
11.112307
 21
5.997576
 31
0.0
  0
LINE
  5
297
100
AcDbEntity
  8
0
 62
7
100
AcDbLine
 10
9.228874
 20
5.387098
 30
0.0
 11
9.864898
 21
6.633162
 31
0.0
  0
LINE
  5
298
100
AcDbEntity
  8
0
 62
7
100
AcDbLine
 10
11.112307
 20
5.997576
 30
0.0
 11
10.475376
 21
4.749730
 31
0.0
  0
LINE
  5
299
100
AcDbEntity
  8
0
 62
7
100
AcDbLine
 10
10.475376
 20
4.749730
 30
0.0
 11
9.228874
 21
5.387098
 31
0.0
  0
LINE
  5
29a
100
AcDbEntity
  8
0
 62
7
100
AcDbLine
 10
0.735006
 20
10.358976
 30
0.0
 11
2.087302
 21
9.996629
 31
0.0
  0
LINE
  5
29b
100
AcDbEntity
  8
0
 62
7
100
AcDbLine
 10
0.371952
 20
9.007904
 30
0.0
 11
0.735006
 21
10.358976
 31
0.0
  0
LINE
  5
29c
100
AcDbEntity
  8
0
 62
7
100
AcDbLine
 10
2.087302
 20
9.996629
 30
0.0
 11
1.723731
 21
8.643626
 31
0.0
  0
LINE
  5
29d
100
AcDbEntity
  8
0
 62
7
100
AcDbLine
 10
1.723731
 20
8.643626
 30
0.0
 11
0.371952
 21
9.007904
 31
0.0
  0
LINE
  5
29e
100
AcDbEntity
  8
0
 62
7
100
AcDbLine
 10
11.592828
 20
10.011733
 30
0.0
 11
12.840237
 21
9.376146
 31
0.0
  0
LINE
  5
29f
100
AcDbEntity
  8
0
 62
7
100
AcDbLine
 10
10.956805
 20
8.765669
 30
0.0
 11
11.592828
 21
10.011733
 31
0.0
  0
LINE
  5
2a0
100
AcDbEntity
  8
0
 62
7
100
AcDbLine
 10
12.840237
 20
9.376146
 30
0.0
 11
12.203306
 21
8.128300
 31
0.0
  0
LINE
  5
2a1
100
AcDbEntity
  8
0
 62
7
100
AcDbLine
 10
12.203306
 20
8.128300
 30
0.0
 11
10.956805
 21
8.765669
 31
0.0
  0
LINE
  5
2a2
100
AcDbEntity
  8
0
 62
7
100
AcDbLine
 10
2.833025
 20
10.778083
 30
0.0
 11
4.185321
 21
10.415737
 31
0.0
  0
LINE
  5
2a3
100
AcDbEntity
  8
0
 62
7
100
AcDbLine
 10
2.469971
 20
9.427012
 30
0.0
 11
2.833025
 21
10.778083
 31
0.0
  0
LINE
  5
2a4
100
AcDbEntity
  8
0
 62
7
100
AcDbLine
 10
4.185321
 20
10.415737
 30
0.0
 11
3.821750
 21
9.062733
 31
0.0
  0
LINE
  5
2a5
100
AcDbEntity
  8
0
 62
7
100
AcDbLine
 10
3.821750
 20
9.062733
 30
0.0
 11
2.469971
 21
9.427012
 31
0.0
  0
LINE
  5
2a6
100
AcDbEntity
  8
0
 62
7
100
AcDbLine
 10
12.572507
 20
1.793996
 30
0.0
 11
13.972507
 21
1.793996
 31
0.0
  0
LINE
  5
2a7
100
AcDbEntity
  8
0
 62
7
100
AcDbLine
 10
12.571507
 20
0.394996
 30
0.0
 11
12.572507
 21
1.793996
 31
0.0
  0
LINE
  5
2a8
100
AcDbEntity
  8
0
 62
7
100
AcDbLine
 10
13.972507
 20
1.793996
 30
0.0
 11
13.971507
 21
0.392996
 31
0.0
  0
LINE
  5
2a9
100
AcDbEntity
  8
0
 62
7
100
AcDbLine
 10
13.971507
 20
0.392996
 30
0.0
 11
12.571507
 21
0.394996
 31
0.0
  0
LINE
  5
2aa
100
AcDbEntity
  8
0
 62
7
100
AcDbLine
 10
24.398581
 20
8.822779
 30
0.0
 11
25.696638
 21
9.347228
 31
0.0
  0
LINE
  5
2ab
100
AcDbEntity
  8
0
 62
7
100
AcDbLine
 10
24.921728
 20
7.525274
 30
0.0
 11
24.398581
 21
8.822779
 31
0.0
  0
LINE
  5
2ac
100
AcDbEntity
  8
0
 62
7
100
AcDbLine
 10
25.696638
 20
9.347228
 30
0.0
 11
26.220535
 21
8.047869
 31
0.0
  0
LINE
  5
2ad
100
AcDbEntity
  8
0
 62
7
100
AcDbLine
 10
26.220535
 20
8.047869
 30
0.0
 11
24.921728
 21
7.525274
 31
0.0
  0
LINE
  5
2ae
100
AcDbEntity
  8
0
 62
7
100
AcDbLine
 10
8.486946
 20
12.459807
 30
0.0
 11
9.734355
 21
11.824220
 31
0.0
  0
LINE
  5
2af
100
AcDbEntity
  8
0
 62
7
100
AcDbLine
 10
7.850922
 20
11.213743
 30
0.0
 11
8.486946
 21
12.459807
 31
0.0
  0
LINE
  5
2b0
100
AcDbEntity
  8
0
 62
7
100
AcDbLine
 10
9.734355
 20
11.824220
 30
0.0
 11
9.097423
 21
10.576374
 31
0.0
  0
LINE
  5
2b1
100
AcDbEntity
  8
0
 62
7
100
AcDbLine
 10
9.097423
 20
10.576374
 30
0.0
 11
7.850922
 21
11.213743
 31
0.0
  0
LINE
  5
2b2
100
AcDbEntity
  8
0
 62
7
100
AcDbLine
 10
22.315398
 20
8.437182
 30
0.0
 11
23.562807
 21
9.072768
 31
0.0
  0
LINE
  5
2b3
100
AcDbEntity
  8
0
 62
7
100
AcDbLine
 10
22.949640
 20
7.190209
 30
0.0
 11
22.315398
 21
8.437182
 31
0.0
  0
LINE
  5
2b4
100
AcDbEntity
  8
0
 62
7
100
AcDbLine
 10
23.562807
 20
9.072768
 30
0.0
 11
24.197957
 21
7.824014
 31
0.0
  0
LINE
  5
2b5
100
AcDbEntity
  8
0
 62
7
100
AcDbLine
 10
24.197957
 20
7.824014
 30
0.0
 11
22.949640
 21
7.190209
 31
0.0
  0
LINE
  5
2b6
100
AcDbEntity
  8
0
 62
7
100
AcDbLine
 10
14.500507
 20
1.794326
 30
0.0
 11
15.900507
 21
1.794326
 31
0.0
  0
LINE
  5
2b7
100
AcDbEntity
  8
0
 62
7
100
AcDbLine
 10
14.499507
 20
0.395326
 30
0.0
 11
14.500507
 21
1.794326
 31
0.0
  0
LINE
  5
2b8
100
AcDbEntity
  8
0
 62
7
100
AcDbLine
 10
15.900507
 20
1.794326
 30
0.0
 11
15.899507
 21
0.393326
 31
0.0
  0
LINE
  5
2b9
100
AcDbEntity
  8
0
 62
7
100
AcDbLine
 10
15.899507
 20
0.393326
 30
0.0
 11
14.499507
 21
0.395326
 31
0.0
  0
LINE
  5
2ba
100
AcDbEntity
  8
0
 62
7
100
AcDbLine
 10
18.427666
 20
7.629422
 30
0.0
 11
19.675075
 21
8.265008
 31
0.0
  0
LINE
  5
2bb
100
AcDbEntity
  8
0
 62
7
100
AcDbLine
 10
19.061908
 20
6.382450
 30
0.0
 11
18.427666
 21
7.629422
 31
0.0
  0
LINE
  5
2bc
100
AcDbEntity
  8
0
 62
7
100
AcDbLine
 10
19.675075
 20
8.265008
 30
0.0
 11
20.310225
 21
7.016254
 31
0.0
  0
LINE
  5
2bd
100
AcDbEntity
  8
0
 62
7
100
AcDbLine
 10
20.310225
 20
7.016254
 30
0.0
 11
19.061908
 21
6.382450
 31
0.0
  0
LINE
  5
2be
100
AcDbEntity
  8
0
 62
7
100
AcDbLine
 10
20.920465
 20
6.940719
 30
0.0
 11
22.167874
 21
7.576305
 31
0.0
  0
LINE
  5
2bf
100
AcDbEntity
  8
0
 62
7
100
AcDbLine
 10
21.554707
 20
5.693747
 30
0.0
 11
20.920465
 21
6.940719
 31
0.0
  0
LINE
  5
2c0
100
AcDbEntity
  8
0
 62
7
100
AcDbLine
 10
22.167874
 20
7.576305
 30
0.0
 11
22.803024
 21
6.327551
 31
0.0
  0
LINE
  5
2c1
100
AcDbEntity
  8
0
 62
7
100
AcDbLine
 10
22.803024
 20
6.327551
 30
0.0
 11
21.554707
 21
5.693747
 31
0.0
  0
LINE
  5
2c2
100
AcDbEntity
  8
0
 62
7
100
AcDbLine
 10
8.992192
 20
4.929149
 30
0.0
 11
10.239601
 21
4.293563
 31
0.0
  0
LINE
  5
2c3
100
AcDbEntity
  8
0
 62
7
100
AcDbLine
 10
8.356168
 20
3.683085
 30
0.0
 11
8.992192
 21
4.929149
 31
0.0
  0
LINE
  5
2c4
100
AcDbEntity
  8
0
 62
7
100
AcDbLine
 10
10.239601
 20
4.293563
 30
0.0
 11
9.602669
 21
3.045717
 31
0.0
  0
LINE
  5
2c5
100
AcDbEntity
  8
0
 62
7
100
AcDbLine
 10
9.602669
 20
3.045717
 30
0.0
 11
8.356168
 21
3.683085
 31
0.0
  0
LINE
  5
2c6
100
AcDbEntity
  8
0
 62
7
100
AcDbLine
 10
20.590235
 20
11.823006
 30
0.0
 11
21.837644
 21
12.458593
 31
0.0
  0
LINE
  5
2c7
100
AcDbEntity
  8
0
 62
7
100
AcDbLine
 10
21.224476
 20
10.576034
 30
0.0
 11
20.590235
 21
11.823006
 31
0.0
  0
LINE
  5
2c8
100
AcDbEntity
  8
0
 62
7
100
AcDbLine
 10
21.837644
 20
12.458593
 30
0.0
 11
22.472793
 21
11.209839
 31
0.0
  0
LINE
  5
2c9
100
AcDbEntity
  8
0
 62
7
100
AcDbLine
 10
22.472793
 20
11.209839
 30
0.0
 11
21.224476
 21
10.576034
 31
0.0
  0
LINE
  5
2ca
100
AcDbEntity
  8
0
 62
7
100
AcDbLine
 10
9.086285
 20
9.337197
 30
0.0
 11
10.333694
 21
8.701610
 31
0.0
  0
LINE
  5
2cb
100
AcDbEntity
  8
0
 62
7
100
AcDbLine
 10
8.450261
 20
8.091133
 30
0.0
 11
9.086285
 21
9.337197
 31
0.0
  0
LINE
  5
2cc
100
AcDbEntity
  8
0
 62
7
100
AcDbLine
 10
10.333694
 20
8.701610
 30
0.0
 11
9.696762
 21
7.453764
 31
0.0
  0
LINE
  5
2cd
100
AcDbEntity
  8
0
 62
7
100
AcDbLine
 10
9.696762
 20
7.453764
 30
0.0
 11
8.450261
 21
8.091133
 31
0.0
  0
LINE
  5
2ce
100
AcDbEntity
  8
0
 62
7
100
AcDbLine
 10
22.975076
 20
12.346078
 30
0.0
 11
24.273134
 21
12.870527
 31
0.0
  0
LINE
  5
2cf
100
AcDbEntity
  8
0
 62
7
100
AcDbLine
 10
23.498224
 20
11.048573
 30
0.0
 11
22.975076
 21
12.346078
 31
0.0
  0
LINE
  5
2d0
100
AcDbEntity
  8
0
 62
7
100
AcDbLine
 10
24.273134
 20
12.870527
 30
0.0
 11
24.797030
 21
11.571168
 31
0.0
  0
LINE
  5
2d1
100
AcDbEntity
  8
0
 62
7
100
AcDbLine
 10
24.797030
 20
11.571168
 30
0.0
 11
23.498224
 21
11.048573
 31
0.0
  0
LINE
  5
2d2
100
AcDbEntity
  8
0
 62
7
100
AcDbLine
 10
8.223703
 20
7.644284
 30
0.0
 11
9.471112
 21
7.008698
 31
0.0
  0
LINE
  5
2d3
100
AcDbEntity
  8
0
 62
7
100
AcDbLine
 10
7.587679
 20
6.398220
 30
0.0
 11
8.223703
 21
7.644284
 31
0.0
  0
LINE
  5
2d4
100
AcDbEntity
  8
0
 62
7
100
AcDbLine
 10
9.471112
 20
7.008698
 30
0.0
 11
8.834180
 21
5.760851
 31
0.0
  0
LINE
  5
2d5
100
AcDbEntity
  8
0
 62
7
100
AcDbLine
 10
8.834180
 20
5.760851
 30
0.0
 11
7.587679
 21
6.398220
 31
0.0
  0
LINE
  5
2d6
100
AcDbEntity
  8
0
 62
7
100
AcDbLine
 10
19.291329
 20
5.926135
 30
0.0
 11
20.538738
 21
6.561722
 31
0.0
  0
LINE
  5
2d7
100
AcDbEntity
  8
0
 62
7
100
AcDbLine
 10
19.925571
 20
4.679163
 30
0.0
 11
19.291329
 21
5.926135
 31
0.0
  0
LINE
  5
2d8
100
AcDbEntity
  8
0
 62
7
100
AcDbLine
 10
20.538738
 20
6.561722
 30
0.0
 11
21.173888
 21
5.312968
 31
0.0
  0
LINE
  5
2d9
100
AcDbEntity
  8
0
 62
7
100
AcDbLine
 10
21.173888
 20
5.312968
 30
0.0
 11
19.925571
 21
4.679163
 31
0.0
  0
LINE
  5
2da
100
AcDbEntity
  8
0
 62
7
100
AcDbLine
 10
20.057883
 20
8.633631
 30
0.0
 11
21.305293
 21
9.269218
 31
0.0
  0
LINE
  5
2db
100
AcDbEntity
  8
0
 62
7
100
AcDbLine
 10
20.692125
 20
7.386659
 30
0.0
 11
20.057883
 21
8.633631
 31
0.0
  0
LINE
  5
2dc
100
AcDbEntity
  8
0
 62
7
100
AcDbLine
 10
21.305293
 20
9.269218
 30
0.0
 11
21.940442
 21
8.020464
 31
0.0
  0
LINE
  5
2dd
100
AcDbEntity
  8
0
 62
7
100
AcDbLine
 10
21.940442
 20
8.020464
 30
0.0
 11
20.692125
 21
7.386659
 31
0.0
  0
LINE
  5
2de
100
AcDbEntity
  8
0
 62
7
100
AcDbLine
 10
10.578481
 20
3.832379
 30
0.0
 11
11.825890
 21
3.196792
 31
0.0
  0
LINE
  5
2df
100
AcDbEntity
  8
0
 62
7
100
AcDbLine
 10
9.942457
 20
2.586315
 30
0.0
 11
10.578481
 21
3.832379
 31
0.0
  0
LINE
  5
2e0
100
AcDbEntity
  8
0
 62
7
100
AcDbLine
 10
11.825890
 20
3.196792
 30
0.0
 11
11.188959
 21
1.948946
 31
0.0
  0
LINE
  5
2e1
100
AcDbEntity
  8
0
 62
7
100
AcDbLine
 10
11.188959
 20
1.948946
 30
0.0
 11
9.942457
 21
2.586315
 31
0.0
  0
LINE
  5
2e2
100
AcDbEntity
  8
0
 62
7
100
AcDbLine
 10
23.686828
 20
10.584429
 30
0.0
 11
24.984886
 21
11.108878
 31
0.0
  0
LINE
  5
2e3
100
AcDbEntity
  8
0
 62
7
100
AcDbLine
 10
24.209976
 20
9.286924
 30
0.0
 11
23.686828
 21
10.584429
 31
0.0
  0
LINE
  5
2e4
100
AcDbEntity
  8
0
 62
7
100
AcDbLine
 10
24.984886
 20
11.108878
 30
0.0
 11
25.508782
 21
9.809519
 31
0.0
  0
LINE
  5
2e5
100
AcDbEntity
  8
0
 62
7
100
AcDbLine
 10
25.508782
 20
9.809519
 30
0.0
 11
24.209976
 21
9.286924
 31
0.0
  0
LINE
  5
2e6
100
AcDbEntity
  8
0
 62
7
100
AcDbLine
 10
6.761782
 20
9.073982
 30
0.0
 11
8.009191
 21
8.438396
 31
0.0
  0
LINE
  5
2e7
100
AcDbEntity
  8
0
 62
7
100
AcDbLine
 10
6.125758
 20
7.827918
 30
0.0
 11
6.761782
 21
9.073982
 31
0.0
  0
LINE
  5
2e8
100
AcDbEntity
  8
0
 62
7
100
AcDbLine
 10
8.009191
 20
8.438396
 30
0.0
 11
7.372259
 21
7.190550
 31
0.0
  0
LINE
  5
2e9
100
AcDbEntity
  8
0
 62
7
100
AcDbLine
 10
7.372259
 20
7.190550
 30
0.0
 11
6.125758
 21
7.827918
 31
0.0
  0
LINE
  5
2ea
100
AcDbEntity
  8
0
 62
7
100
AcDbLine
 10
25.645057
 20
12.238898
 30
0.0
 11
26.997353
 21
12.601245
 31
0.0
  0
LINE
  5
2eb
100
AcDbEntity
  8
0
 62
7
100
AcDbLine
 10
26.006178
 20
10.887309
 30
0.0
 11
25.645057
 21
12.238898
 31
0.0
  0
LINE
  5
2ec
100
AcDbEntity
  8
0
 62
7
100
AcDbLine
 10
26.997353
 20
12.601245
 30
0.0
 11
27.358992
 21
11.247724
 31
0.0
  0
LINE
  5
2ed
100
AcDbEntity
  8
0
 62
7
100
AcDbLine
 10
27.358992
 20
11.247724
 30
0.0
 11
26.006178
 21
10.887309
 31
0.0
  0
LINE
  5
2ee
100
AcDbEntity
  8
0
 62
7
100
AcDbLine
 10
6.051418
 20
12.871659
 30
0.0
 11
7.349476
 21
12.347210
 31
0.0
  0
LINE
  5
2ef
100
AcDbEntity
  8
0
 62
7
100
AcDbLine
 10
5.526417
 20
11.574904
 30
0.0
 11
6.051418
 21
12.871659
 31
0.0
  0
LINE
  5
2f0
100
AcDbEntity
  8
0
 62
7
100
AcDbLine
 10
7.349476
 20
12.347210
 30
0.0
 11
6.823725
 21
11.048600
 31
0.0
  0
LINE
  5
2f1
100
AcDbEntity
  8
0
 62
7
100
AcDbLine
 10
6.823725
 20
11.048600
 30
0.0
 11
5.526417
 21
11.574904
 31
0.0
  0
LINE
  5
2f2
100
AcDbEntity
  8
0
 62
7
100
AcDbLine
 10
27.736959
 20
11.805188
 30
0.0
 11
29.089255
 21
12.167535
 31
0.0
  0
LINE
  5
2f3
100
AcDbEntity
  8
0
 62
7
100
AcDbLine
 10
28.098081
 20
10.453599
 30
0.0
 11
27.736959
 21
11.805188
 31
0.0
  0
LINE
  5
2f4
100
AcDbEntity
  8
0
 62
7
100
AcDbLine
 10
29.089255
 20
12.167535
 30
0.0
 11
29.450894
 21
10.814014
 31
0.0
  0
LINE
  5
2f5
100
AcDbEntity
  8
0
 62
7
100
AcDbLine
 10
29.450894
 20
10.814014
 30
0.0
 11
28.098081
 21
10.453599
 31
0.0
  0
LINE
  5
2f6
100
AcDbEntity
  8
0
 62
7
100
AcDbLine
 10
10.730246
 20
8.318821
 30
0.0
 11
11.977655
 21
7.683234
 31
0.0
  0
LINE
  5
2f7
100
AcDbEntity
  8
0
 62
7
100
AcDbLine
 10
10.094222
 20
7.072756
 30
0.0
 11
10.730246
 21
8.318821
 31
0.0
  0
LINE
  5
2f8
100
AcDbEntity
  8
0
 62
7
100
AcDbLine
 10
11.977655
 20
7.683234
 30
0.0
 11
11.340723
 21
6.435388
 31
0.0
  0
LINE
  5
2f9
100
AcDbEntity
  8
0
 62
7
100
AcDbLine
 10
11.340723
 20
6.435388
 30
0.0
 11
10.094222
 21
7.072756
 31
0.0
  0
LINE
  5
2fa
100
AcDbEntity
  8
0
 62
7
100
AcDbLine
 10
18.571679
 20
3.117207
 30
0.0
 11
19.819088
 21
3.752794
 31
0.0
  0
LINE
  5
2fb
100
AcDbEntity
  8
0
 62
7
100
AcDbLine
 10
19.205921
 20
1.870235
 30
0.0
 11
18.571679
 21
3.117207
 31
0.0
  0
LINE
  5
2fc
100
AcDbEntity
  8
0
 62
7
100
AcDbLine
 10
19.819088
 20
3.752794
 30
0.0
 11
20.454238
 21
2.504040
 31
0.0
  0
LINE
  5
2fd
100
AcDbEntity
  8
0
 62
7
100
AcDbLine
 10
20.454238
 20
2.504040
 30
0.0
 11
19.205921
 21
1.870235
 31
0.0
  0
LINE
  5
2fe
100
AcDbEntity
  8
0
 62
7
100
AcDbLine
 10
21.452817
 20
10.130094
 30
0.0
 11
22.700226
 21
10.765681
 31
0.0
  0
LINE
  5
2ff
100
AcDbEntity
  8
0
 62
7
100
AcDbLine
 10
22.087058
 20
8.883122
 30
0.0
 11
21.452817
 21
10.130094
 31
0.0
  0
LINE
  5
300
100
AcDbEntity
  8
0
 62
7
100
AcDbLine
 10
22.700226
 20
10.765681
 30
0.0
 11
23.335375
 21
9.516926
 31
0.0
  0
LINE
  5
301
100
AcDbEntity
  8
0
 62
7
100
AcDbLine
 10
23.335375
 20
9.516926
 30
0.0
 11
22.087058
 21
8.883122
 31
0.0
  0
LINE
  5
302
100
AcDbEntity
  8
0
 62
7
100
AcDbLine
 10
20.159973
 20
4.222639
 30
0.0
 11
21.407382
 21
4.858226
 31
0.0
  0
LINE
  5
303
100
AcDbEntity
  8
0
 62
7
100
AcDbLine
 10
20.794215
 20
2.975667
 30
0.0
 11
20.159973
 21
4.222639
 31
0.0
  0
LINE
  5
304
100
AcDbEntity
  8
0
 62
7
100
AcDbLine
 10
21.407382
 20
4.858226
 30
0.0
 11
22.042532
 21
3.609472
 31
0.0
  0
LINE
  5
305
100
AcDbEntity
  8
0
 62
7
100
AcDbLine
 10
22.042532
 20
3.609472
 30
0.0
 11
20.794215
 21
2.975667
 31
0.0
  0
LINE
  5
306
100
AcDbEntity
  8
0
 62
7
100
AcDbLine
 10
4.627914
 20
9.348361
 30
0.0
 11
5.925971
 21
8.823911
 31
0.0
  0
LINE
  5
307
100
AcDbEntity
  8
0
 62
7
100
AcDbLine
 10
4.102912
 20
8.051605
 30
0.0
 11
4.627914
 21
9.348361
 31
0.0
  0
LINE
  5
308
100
AcDbEntity
  8
0
 62
7
100
AcDbLine
 10
5.925971
 20
8.823911
 30
0.0
 11
5.400220
 21
7.525301
 31
0.0
  0
LINE
  5
309
100
AcDbEntity
  8
0
 62
7
100
AcDbLine
 10
5.400220
 20
7.525301
 30
0.0
 11
4.102912
 21
8.051605
 31
0.0
  0
LINE
  5
30a
100
AcDbEntity
  8
0
 62
7
100
AcDbLine
 10
3.324030
 20
12.615122
 30
0.0
 11
4.676326
 21
12.252776
 31
0.0
  0
LINE
  5
30b
100
AcDbEntity
  8
0
 62
7
100
AcDbLine
 10
2.960976
 20
11.264051
 30
0.0
 11
3.324030
 21
12.615122
 31
0.0
  0
LINE
  5
30c
100
AcDbEntity
  8
0
 62
7
100
AcDbLine
 10
4.676326
 20
12.252776
 30
0.0
 11
4.312755
 21
10.899773
 31
0.0
  0
LINE
  5
30d
100
AcDbEntity
  8
0
 62
7
100
AcDbLine
 10
4.312755
 20
10.899773
 30
0.0
 11
2.960976
 21
11.264051
 31
0.0
  0
LINE
  5
30e
100
AcDbEntity
  8
0
 62
7
100
AcDbLine
 10
9.948867
 20
11.030109
 30
0.0
 11
11.196276
 21
10.394523
 31
0.0
  0
LINE
  5
30f
100
AcDbEntity
  8
0
 62
7
100
AcDbLine
 10
9.312843
 20
9.784045
 30
0.0
 11
9.948867
 21
11.030109
 31
0.0
  0
LINE
  5
310
100
AcDbEntity
  8
0
 62
7
100
AcDbLine
 10
11.196276
 20
10.394523
 30
0.0
 11
10.559344
 21
9.146676
 31
0.0
  0
LINE
  5
311
100
AcDbEntity
  8
0
 62
7
100
AcDbLine
 10
10.559344
 20
9.146676
 30
0.0
 11
9.312843
 21
9.784045
 31
0.0
  0
LINE
  5
312
100
AcDbEntity
  8
0
 62
7
100
AcDbLine
 10
5.339695
 20
11.109969
 30
0.0
 11
6.637752
 21
10.585520
 31
0.0
  0
LINE
  5
313
100
AcDbEntity
  8
0
 62
7
100
AcDbLine
 10
4.814693
 20
9.813213
 30
0.0
 11
5.339695
 21
11.109969
 31
0.0
  0
LINE
  5
314
100
AcDbEntity
  8
0
 62
7
100
AcDbLine
 10
6.637752
 20
10.585520
 30
0.0
 11
6.112001
 21
9.286910
 31
0.0
  0
LINE
  5
315
100
AcDbEntity
  8
0
 62
7
100
AcDbLine
 10
6.112001
 20
9.286910
 30
0.0
 11
4.814693
 21
9.813213
 31
0.0
  0
LINE
  5
316
100
AcDbEntity
  8
0
 62
7
100
AcDbLine
 10
17.751230
 20
11.860230
 30
0.0
 11
18.619048
 21
10.708597
 31
0.0
  0
LINE
  5
317
100
AcDbEntity
  8
0
 62
7
100
AcDbLine
 10
18.619048
 20
10.708597
 30
0.0
 11
17.706207
 21
10.020723
 31
0.0
  0
LINE
  5
318
100
AcDbEntity
  8
0
 62
7
100
AcDbLine
 10
17.706207
 20
10.020723
 30
0.0
 11
16.838390
 21
11.172355
 31
0.0
  0
LINE
  5
319
100
AcDbEntity
  8
0
 62
7
100
AcDbLine
 10
16.838390
 20
11.172355
 30
0.0
 11
17.751230
 21
11.860230
 31
0.0
  0
SPLINE
  5
31a
100
AcDbEntity
  8
0
 62
7
100
AcDbSpline
 70
8
 71
3
 72
8
 73
4
 74
0
 40
0
 40
0
 40
0
 40
0
 40
1
 40
1
 40
1
 40
1
 10
18.792618
 20
11.046998
 30
0.0
 10
18.731948
 20
11.046998
 30
0.0
 10
18.677251
 20
11.010451
 30
0.0
 10
18.654033
 20
10.954398
 30
0.0
  0
SPLINE
  5
31b
100
AcDbEntity
  8
0
 62
7
100
AcDbSpline
 70
8
 71
3
 72
8
 73
4
 74
0
 40
0
 40
0
 40
0
 40
0
 40
1
 40
1
 40
1
 40
1
 10
18.654033
 20
10.954398
 30
0.0
 10
18.630816
 20
10.898346
 30
0.0
 10
18.643649
 20
10.833827
 30
0.0
 10
18.686550
 20
10.790926
 30
0.0
  0
SPLINE
  5
31c
100
AcDbEntity
  8
0
 62
7
100
AcDbSpline
 70
8
 71
3
 72
8
 73
4
 74
0
 40
0
 40
0
 40
0
 40
0
 40
1
 40
1
 40
1
 40
1
 10
18.686550
 20
10.790926
 30
0.0
 10
18.729451
 20
10.748025
 30
0.0
 10
18.793970
 20
10.735192
 30
0.0
 10
18.850022
 20
10.758409
 30
0.0
  0
SPLINE
  5
31d
100
AcDbEntity
  8
0
 62
7
100
AcDbSpline
 70
8
 71
3
 72
8
 73
4
 74
0
 40
0
 40
0
 40
0
 40
0
 40
1
 40
1
 40
1
 40
1
 10
18.850022
 20
10.758409
 30
0.0
 10
18.906075
 20
10.781627
 30
0.0
 10
18.942622
 20
10.836324
 30
0.0
 10
18.942622
 20
10.896994
 30
0.0
  0
SPLINE
  5
31e
100
AcDbEntity
  8
0
 62
7
100
AcDbSpline
 70
8
 71
3
 72
8
 73
4
 74
0
 40
0
 40
0
 40
0
 40
0
 40
1
 40
1
 40
1
 40
1
 10
18.942622
 20
10.896994
 30
0.0
 10
18.942622
 20
10.936778
 30
0.0
 10
18.926818
 20
10.974932
 30
0.0
 10
18.898687
 20
11.003063
 30
0.0
  0
SPLINE
  5
31f
100
AcDbEntity
  8
0
 62
7
100
AcDbSpline
 70
8
 71
3
 72
8
 73
4
 74
0
 40
0
 40
0
 40
0
 40
0
 40
1
 40
1
 40
1
 40
1
 10
18.898687
 20
11.003063
 30
0.0
 10
18.870556
 20
11.031194
 30
0.0
 10
18.832402
 20
11.046998
 30
0.0
 10
18.792618
 20
11.046998
 30
0.0
  0
LINE
  5
320
100
AcDbEntity
  8
0
 62
7
100
AcDbLine
 10
18.792618
 20
11.046998
 30
0.0
 11
18.792618
 21
11.046998
 31
0.0
  0
SPLINE
  5
321
100
AcDbEntity
  8
0
 62
7
100
AcDbSpline
 70
8
 71
3
 72
8
 73
4
 74
0
 40
0
 40
0
 40
0
 40
0
 40
1
 40
1
 40
1
 40
1
 10
17.980170
 20
12.125153
 30
0.0
 10
17.919499
 20
12.125153
 30
0.0
 10
17.864803
 20
12.088606
 30
0.0
 10
17.841585
 20
12.032554
 30
0.0
  0
SPLINE
  5
322
100
AcDbEntity
  8
0
 62
7
100
AcDbSpline
 70
8
 71
3
 72
8
 73
4
 74
0
 40
0
 40
0
 40
0
 40
0
 40
1
 40
1
 40
1
 40
1
 10
17.841585
 20
12.032554
 30
0.0
 10
17.818367
 20
11.976501
 30
0.0
 10
17.831201
 20
11.911982
 30
0.0
 10
17.874102
 20
11.869081
 30
0.0
  0
SPLINE
  5
323
100
AcDbEntity
  8
0
 62
7
100
AcDbSpline
 70
8
 71
3
 72
8
 73
4
 74
0
 40
0
 40
0
 40
0
 40
0
 40
1
 40
1
 40
1
 40
1
 10
17.874102
 20
11.869081
 30
0.0
 10
17.917002
 20
11.826181
 30
0.0
 10
17.981521
 20
11.813347
 30
0.0
 10
18.037574
 20
11.836565
 30
0.0
  0
SPLINE
  5
324
100
AcDbEntity
  8
0
 62
7
100
AcDbSpline
 70
8
 71
3
 72
8
 73
4
 74
0
 40
0
 40
0
 40
0
 40
0
 40
1
 40
1
 40
1
 40
1
 10
18.037574
 20
11.836565
 30
0.0
 10
18.093626
 20
11.859782
 30
0.0
 10
18.130173
 20
11.914479
 30
0.0
 10
18.130173
 20
11.975150
 30
0.0
  0
SPLINE
  5
325
100
AcDbEntity
  8
0
 62
7
100
AcDbSpline
 70
8
 71
3
 72
8
 73
4
 74
0
 40
0
 40
0
 40
0
 40
0
 40
1
 40
1
 40
1
 40
1
 10
18.130173
 20
11.975150
 30
0.0
 10
18.130173
 20
12.014933
 30
0.0
 10
18.114370
 20
12.053087
 30
0.0
 10
18.086239
 20
12.081218
 30
0.0
  0
SPLINE
  5
326
100
AcDbEntity
  8
0
 62
7
100
AcDbSpline
 70
8
 71
3
 72
8
 73
4
 74
0
 40
0
 40
0
 40
0
 40
0
 40
1
 40
1
 40
1
 40
1
 10
18.086239
 20
12.081218
 30
0.0
 10
18.058107
 20
12.109349
 30
0.0
 10
18.019953
 20
12.125153
 30
0.0
 10
17.980170
 20
12.125153
 30
0.0
  0
LINE
  5
327
100
AcDbEntity
  8
0
 62
7
100
AcDbLine
 10
17.980170
 20
12.125153
 30
0.0
 11
17.980170
 21
12.125153
 31
0.0
  0
ENDSEC
  0
SECTION
  2
OBJECTS
  0
DICTIONARY
  5
C
330
0
100
AcDbDictionary
  3
ACAD_GROUP
350
D
  3
ACAD_MLINESTYLE
350
17
  0
DICTIONARY
  5
D
330
C
100
AcDbDictionary
  0
DICTIONARY
  5
1A
330
C
100
AcDbDictionary
  0
DICTIONARY
  5
17
330
C
100
AcDbDictionary
  3
STANDARD
350
18
  0
DICTIONARY
  5
19
330
C
100
AcDbDictionary
  0
ENDSEC
  0
EOF
