%TF.GenerationSoftware,KiCad,Pcbnew,(6.0.4-0)*%
%TF.CreationDate,2022-07-26T10:13:53+02:00*%
%TF.ProjectId,wizza,77697a7a-612e-46b6-9963-61645f706362,v1.0.0*%
%TF.SameCoordinates,Original*%
%TF.FileFunction,Soldermask,Bot*%
%TF.FilePolarity,Negative*%
%FSLAX46Y46*%
G04 Gerber Fmt 4.6, Leading zero omitted, Abs format (unit mm)*
G04 Created by KiCad (PCBNEW (6.0.4-0)) date 2022-07-26 10:13:53*
%MOMM*%
%LPD*%
G01*
G04 APERTURE LIST*
G04 Aperture macros list*
%AMRoundRect*
0 Rectangle with rounded corners*
0 $1 Rounding radius*
0 $2 $3 $4 $5 $6 $7 $8 $9 X,Y pos of 4 corners*
0 Add a 4 corners polygon primitive as box body*
4,1,4,$2,$3,$4,$5,$6,$7,$8,$9,$2,$3,0*
0 Add four circle primitives for the rounded corners*
1,1,$1+$1,$2,$3*
1,1,$1+$1,$4,$5*
1,1,$1+$1,$6,$7*
1,1,$1+$1,$8,$9*
0 Add four rect primitives between the rounded corners*
20,1,$1+$1,$2,$3,$4,$5,0*
20,1,$1+$1,$4,$5,$6,$7,0*
20,1,$1+$1,$6,$7,$8,$9,0*
20,1,$1+$1,$8,$9,$2,$3,0*%
%AMFreePoly0*
4,1,16,0.535355,0.785355,0.550000,0.750000,0.550000,-0.750000,0.535355,-0.785355,0.500000,-0.800000,-0.650000,-0.800000,-0.685355,-0.785355,-0.700000,-0.750000,-0.691603,-0.722265,-0.210093,0.000000,-0.691603,0.722265,-0.699029,0.759806,-0.677735,0.791603,-0.650000,0.800000,0.500000,0.800000,0.535355,0.785355,0.535355,0.785355,$1*%
%AMFreePoly1*
4,1,16,0.535355,0.785355,0.541603,0.777735,1.041603,0.027735,1.049029,-0.009806,1.041603,-0.027735,0.541603,-0.777735,0.509806,-0.799029,0.500000,-0.800000,-0.500000,-0.800000,-0.535355,-0.785355,-0.550000,-0.750000,-0.550000,0.750000,-0.535355,0.785355,-0.500000,0.800000,0.500000,0.800000,0.535355,0.785355,0.535355,0.785355,$1*%
G04 Aperture macros list end*
%ADD10C,2.300000*%
%ADD11C,2.100000*%
%ADD12C,1.801800*%
%ADD13C,4.900000*%
%ADD14C,5.100000*%
%ADD15RoundRect,0.050000X-0.450000X-0.450000X0.450000X-0.450000X0.450000X0.450000X-0.450000X0.450000X0*%
%ADD16C,1.100000*%
%ADD17RoundRect,0.050000X-0.450000X-0.625000X0.450000X-0.625000X0.450000X0.625000X-0.450000X0.625000X0*%
%ADD18RoundRect,0.425000X-0.375000X-0.750000X0.375000X-0.750000X0.375000X0.750000X-0.375000X0.750000X0*%
%ADD19C,4.500000*%
%ADD20C,1.852600*%
%ADD21FreePoly0,90.000000*%
%ADD22RoundRect,0.050000X-0.250000X-0.762000X0.250000X-0.762000X0.250000X0.762000X-0.250000X0.762000X0*%
%ADD23FreePoly1,90.000000*%
G04 APERTURE END LIST*
D10*
%TO.C,S17*%
X87910214Y109878158D03*
D11*
X97057255Y120064136D03*
D12*
X87080925Y113620120D03*
X98039067Y114578834D03*
D13*
X92559996Y114099477D03*
%TD*%
D10*
%TO.C,S15*%
X89491861Y91912848D03*
D11*
X98638902Y102098826D03*
D12*
X88662572Y95654810D03*
X99620714Y96613524D03*
D13*
X94141643Y96134167D03*
%TD*%
%TO.C,S5*%
X52522259Y81799963D03*
D12*
X57781935Y83408007D03*
X47262583Y80191919D03*
D11*
X55681120Y88569313D03*
D10*
X48851748Y76704146D03*
%TD*%
%TO.C,S11*%
X66742934Y100184557D03*
D11*
X74967401Y111128991D03*
D12*
X65590667Y103840002D03*
X76423553Y105750132D03*
D13*
X71007110Y104795067D03*
%TD*%
D10*
%TO.C,S21*%
X110424791Y83297254D03*
D11*
X120424791Y92647254D03*
D12*
X109924791Y87097254D03*
X120924791Y87097254D03*
D13*
X115424791Y87097254D03*
%TD*%
%TO.C,S29*%
X134099495Y94564491D03*
D12*
X139599495Y94564491D03*
X128599495Y94564491D03*
D11*
X139099495Y100114491D03*
D10*
X129099495Y90764491D03*
%TD*%
%TO.C,S33*%
X134046791Y41743254D03*
D11*
X144046791Y51093254D03*
D12*
X133546791Y45543254D03*
X144546791Y45543254D03*
D13*
X139046791Y45543254D03*
%TD*%
D10*
%TO.C,S7*%
X73026972Y64651093D03*
D11*
X81251439Y75595527D03*
D12*
X71874705Y68306538D03*
X82707591Y70216668D03*
D13*
X77291148Y69261603D03*
%TD*%
D10*
%TO.C,S27*%
X129099495Y72744491D03*
D11*
X139099495Y82094491D03*
D12*
X128599495Y76544491D03*
X139599495Y76544491D03*
D13*
X134099495Y76544491D03*
%TD*%
%TO.C,S9*%
X74139129Y87023335D03*
D12*
X79555572Y87978400D03*
X68722686Y86068270D03*
D11*
X78099420Y93357259D03*
D10*
X69874953Y82412825D03*
%TD*%
%TO.C,S13*%
X91053509Y73957538D03*
D11*
X100200550Y84143516D03*
D12*
X90224220Y77699500D03*
X101182362Y78658214D03*
D13*
X95703291Y78178857D03*
%TD*%
D10*
%TO.C,S31*%
X115321152Y44426273D03*
D11*
X125321152Y53776273D03*
D12*
X114821152Y48226273D03*
X125821152Y48226273D03*
D13*
X120321152Y48226273D03*
%TD*%
D10*
%TO.C,S3*%
X54142067Y59376965D03*
D11*
X60971439Y71242132D03*
D12*
X52552902Y62864738D03*
X63072254Y66080826D03*
D13*
X57812578Y64472782D03*
%TD*%
D10*
%TO.C,S23*%
X110424791Y101327254D03*
D11*
X120424791Y110677254D03*
D12*
X109924791Y105127254D03*
X120924791Y105127254D03*
D13*
X115424791Y105127254D03*
%TD*%
D10*
%TO.C,S19*%
X110424791Y65277254D03*
D11*
X120424791Y74627254D03*
D12*
X109924791Y69077254D03*
X120924791Y69077254D03*
D13*
X115424791Y69077254D03*
%TD*%
D11*
%TO.C,B1*%
X81896791Y45365254D03*
X81896791Y51865254D03*
%TD*%
D14*
%TO.C,*%
X141078791Y61367254D03*
%TD*%
D15*
%TO.C,T2*%
X55089406Y120708838D03*
X47689406Y120708838D03*
X55089406Y118508838D03*
X47689406Y118508838D03*
D16*
X49889406Y119608838D03*
X52889406Y119608838D03*
D17*
X49139406Y117533838D03*
X52139406Y117533838D03*
X53639406Y117533838D03*
%TD*%
D14*
%TO.C,*%
X47860791Y58573254D03*
%TD*%
D18*
%TO.C,PAD1*%
X50908791Y107341254D03*
X48908791Y107341254D03*
X46908791Y107341254D03*
%TD*%
D14*
%TO.C,*%
X140824791Y115215254D03*
%TD*%
%TO.C,*%
X61830791Y117247254D03*
%TD*%
D19*
%TO.C,REF\u002A\u002A*%
X102762791Y107797040D03*
X104756791Y69749254D03*
X84735898Y87776147D03*
%TD*%
D20*
%TO.C,MCU1*%
X50654791Y36253254D03*
D21*
X50654791Y49236777D03*
X48114791Y49236777D03*
D22*
X53194791Y50161777D03*
D20*
X53194791Y36253254D03*
X53194791Y51493254D03*
D22*
X48114791Y50161777D03*
D21*
X53194791Y49236777D03*
D22*
X50654791Y50161777D03*
D20*
X48031045Y51493254D03*
X48114791Y36253254D03*
X50654791Y51493254D03*
D23*
X48114791Y47786777D03*
X50654791Y47786777D03*
X53194791Y47786777D03*
D20*
X55734791Y51493254D03*
X58274791Y51493254D03*
X60814791Y51493254D03*
X63354791Y51493254D03*
X65894791Y51493254D03*
X68434791Y51493254D03*
X70974791Y51493254D03*
X73514791Y51493254D03*
X76054791Y51493254D03*
X55734791Y36253254D03*
X58274791Y36253254D03*
X60814791Y36253254D03*
X63354791Y36253254D03*
X65894791Y36253254D03*
X68434791Y36253254D03*
X70974791Y36253254D03*
X73514791Y36253254D03*
X76054791Y36253254D03*
%TD*%
M02*
