%TF.GenerationSoftware,KiCad,Pcbnew,(6.0.4-0)*%
%TF.CreationDate,2022-07-26T10:13:53+02:00*%
%TF.ProjectId,wizza,77697a7a-612e-46b6-9963-61645f706362,v1.0.0*%
%TF.SameCoordinates,Original*%
%TF.FileFunction,Legend,Bot*%
%TF.FilePolarity,Positive*%
%FSLAX46Y46*%
G04 Gerber Fmt 4.6, Leading zero omitted, Abs format (unit mm)*
G04 Created by KiCad (PCBNEW (6.0.4-0)) date 2022-07-26 10:13:53*
%MOMM*%
%LPD*%
G01*
G04 APERTURE LIST*
G04 Aperture macros list*
%AMRoundRect*
0 Rectangle with rounded corners*
0 $1 Rounding radius*
0 $2 $3 $4 $5 $6 $7 $8 $9 X,Y pos of 4 corners*
0 Add a 4 corners polygon primitive as box body*
4,1,4,$2,$3,$4,$5,$6,$7,$8,$9,$2,$3,0*
0 Add four circle primitives for the rounded corners*
1,1,$1+$1,$2,$3*
1,1,$1+$1,$4,$5*
1,1,$1+$1,$6,$7*
1,1,$1+$1,$8,$9*
0 Add four rect primitives between the rounded corners*
20,1,$1+$1,$2,$3,$4,$5,0*
20,1,$1+$1,$4,$5,$6,$7,0*
20,1,$1+$1,$6,$7,$8,$9,0*
20,1,$1+$1,$8,$9,$2,$3,0*%
%AMFreePoly0*
4,1,16,0.535355,0.785355,0.550000,0.750000,0.550000,-0.750000,0.535355,-0.785355,0.500000,-0.800000,-0.650000,-0.800000,-0.685355,-0.785355,-0.700000,-0.750000,-0.691603,-0.722265,-0.210093,0.000000,-0.691603,0.722265,-0.699029,0.759806,-0.677735,0.791603,-0.650000,0.800000,0.500000,0.800000,0.535355,0.785355,0.535355,0.785355,$1*%
%AMFreePoly1*
4,1,16,0.535355,0.785355,0.541603,0.777735,1.041603,0.027735,1.049029,-0.009806,1.041603,-0.027735,0.541603,-0.777735,0.509806,-0.799029,0.500000,-0.800000,-0.500000,-0.800000,-0.535355,-0.785355,-0.550000,-0.750000,-0.550000,0.750000,-0.535355,0.785355,-0.500000,0.800000,0.500000,0.800000,0.535355,0.785355,0.535355,0.785355,$1*%
G04 Aperture macros list end*
%ADD10C,0.150000*%
%ADD11C,0.100000*%
%ADD12C,0.200000*%
%ADD13C,0.010000*%
%ADD14C,0.120000*%
%ADD15RoundRect,0.375000X-0.375000X-0.750000X0.375000X-0.750000X0.375000X0.750000X-0.375000X0.750000X0*%
%ADD16C,1.752600*%
%ADD17C,2.300000*%
%ADD18C,2.100000*%
%ADD19C,1.801800*%
%ADD20C,4.900000*%
%ADD21C,5.100000*%
%ADD22RoundRect,0.050000X-0.450000X-0.450000X0.450000X-0.450000X0.450000X0.450000X-0.450000X0.450000X0*%
%ADD23C,1.100000*%
%ADD24RoundRect,0.050000X-0.450000X-0.625000X0.450000X-0.625000X0.450000X0.625000X-0.450000X0.625000X0*%
%ADD25RoundRect,0.425000X-0.375000X-0.750000X0.375000X-0.750000X0.375000X0.750000X-0.375000X0.750000X0*%
%ADD26C,4.500000*%
%ADD27C,1.852600*%
%ADD28FreePoly0,90.000000*%
%ADD29RoundRect,0.050000X-0.250000X-0.762000X0.250000X-0.762000X0.250000X0.762000X-0.250000X0.762000X0*%
%ADD30FreePoly1,90.000000*%
G04 APERTURE END LIST*
D10*
%TO.C,B1*%
X82349171Y49940634D02*
X81872981Y50273968D01*
X82349171Y50512063D02*
X81349171Y50512063D01*
X81349171Y50131111D01*
X81396791Y50035873D01*
X81444410Y49988254D01*
X81539648Y49940634D01*
X81682505Y49940634D01*
X81777743Y49988254D01*
X81825362Y50035873D01*
X81872981Y50131111D01*
X81872981Y50512063D01*
X81825362Y49512063D02*
X81825362Y49178730D01*
X82349171Y49035873D02*
X82349171Y49512063D01*
X81349171Y49512063D01*
X81349171Y49035873D01*
X82301552Y48654920D02*
X82349171Y48512063D01*
X82349171Y48273968D01*
X82301552Y48178730D01*
X82253933Y48131111D01*
X82158695Y48083492D01*
X82063457Y48083492D01*
X81968219Y48131111D01*
X81920600Y48178730D01*
X81872981Y48273968D01*
X81825362Y48464444D01*
X81777743Y48559682D01*
X81730124Y48607301D01*
X81634886Y48654920D01*
X81539648Y48654920D01*
X81444410Y48607301D01*
X81396791Y48559682D01*
X81349171Y48464444D01*
X81349171Y48226349D01*
X81396791Y48083492D01*
X81825362Y47654920D02*
X81825362Y47321587D01*
X82349171Y47178730D02*
X82349171Y47654920D01*
X81349171Y47654920D01*
X81349171Y47178730D01*
X81349171Y46893015D02*
X81349171Y46321587D01*
X82349171Y46607301D02*
X81349171Y46607301D01*
%TO.C,PAD1*%
X51346886Y105598396D02*
X51232600Y105560301D01*
X51194505Y105522206D01*
X51156410Y105446015D01*
X51156410Y105331730D01*
X51194505Y105255539D01*
X51232600Y105217444D01*
X51308791Y105179349D01*
X51613552Y105179349D01*
X51613552Y105979349D01*
X51346886Y105979349D01*
X51270695Y105941254D01*
X51232600Y105903158D01*
X51194505Y105826968D01*
X51194505Y105750777D01*
X51232600Y105674587D01*
X51270695Y105636492D01*
X51346886Y105598396D01*
X51613552Y105598396D01*
X50813552Y105484111D02*
X50204029Y105484111D01*
X50508791Y105179349D02*
X50508791Y105788873D01*
X47346886Y105598396D02*
X47232600Y105560301D01*
X47194505Y105522206D01*
X47156410Y105446015D01*
X47156410Y105331730D01*
X47194505Y105255539D01*
X47232600Y105217444D01*
X47308791Y105179349D01*
X47613552Y105179349D01*
X47613552Y105979349D01*
X47346886Y105979349D01*
X47270695Y105941254D01*
X47232600Y105903158D01*
X47194505Y105826968D01*
X47194505Y105750777D01*
X47232600Y105674587D01*
X47270695Y105636492D01*
X47346886Y105598396D01*
X47613552Y105598396D01*
X46813552Y105484111D02*
X46204029Y105484111D01*
X46508791Y105179349D02*
X46508791Y105788873D01*
X49346886Y105598396D02*
X49232600Y105560301D01*
X49194505Y105522206D01*
X49156410Y105446015D01*
X49156410Y105331730D01*
X49194505Y105255539D01*
X49232600Y105217444D01*
X49308791Y105179349D01*
X49613552Y105179349D01*
X49613552Y105979349D01*
X49346886Y105979349D01*
X49270695Y105941254D01*
X49232600Y105903158D01*
X49194505Y105826968D01*
X49194505Y105750777D01*
X49232600Y105674587D01*
X49270695Y105636492D01*
X49346886Y105598396D01*
X49613552Y105598396D01*
X48813552Y105484111D02*
X48204029Y105484111D01*
D11*
%TO.C,REF\u002A\u002A*%
X103592773Y84225673D02*
X104591402Y84278009D01*
X103640326Y84228165D02*
X103597757Y84130565D01*
X103607726Y83940350D01*
X103660264Y83847735D01*
X103710310Y83802673D01*
X103807910Y83760104D01*
X104093232Y83775057D01*
X104185848Y83827595D01*
X104230909Y83877641D01*
X104273479Y83975241D01*
X104263510Y84165456D01*
X104210972Y84258071D01*
X103662554Y82894167D02*
X104328307Y82929058D01*
X103640124Y83322151D02*
X104163216Y83349565D01*
X104260816Y83306996D01*
X104313354Y83214380D01*
X104320830Y83071719D01*
X104278261Y82974119D01*
X104233199Y82924073D01*
X104328105Y82023043D02*
X104370674Y82120643D01*
X104360705Y82310858D01*
X104308167Y82403474D01*
X104258121Y82448535D01*
X104160521Y82491105D01*
X103875199Y82476152D01*
X103782583Y82423613D01*
X103737522Y82373567D01*
X103694952Y82275968D01*
X103704921Y82085753D01*
X103757459Y81993137D01*
X104398088Y81597551D02*
X103399459Y81545216D01*
X104022642Y81482506D02*
X104418026Y81217121D01*
X103752273Y81182231D02*
X104112765Y81582598D01*
X102799064Y98157226D02*
X102819001Y97776796D01*
X102473664Y97997120D02*
X103329632Y98041979D01*
X103427232Y97999410D01*
X103479770Y97906794D01*
X103484754Y97811687D01*
X103474583Y97095888D02*
X103517153Y97193488D01*
X103507184Y97383703D01*
X103454646Y97476318D01*
X103357046Y97518888D01*
X102976616Y97498950D01*
X102884000Y97446412D01*
X102841431Y97348812D01*
X102851400Y97158597D01*
X102903938Y97065982D01*
X103001537Y97023412D01*
X103096645Y97028397D01*
X103166831Y97508919D01*
X102881306Y96587952D02*
X103547059Y96622842D01*
X102976413Y96592936D02*
X102931352Y96542890D01*
X102888782Y96445290D01*
X102896259Y96302629D01*
X102948797Y96210013D01*
X103046397Y96167444D01*
X103569489Y96194858D01*
X102921181Y95827091D02*
X102941118Y95446661D01*
X102595781Y95666984D02*
X103451749Y95711844D01*
X103549349Y95669274D01*
X103601887Y95576659D01*
X103606871Y95481551D01*
X103624317Y95148675D02*
X102958564Y95113784D01*
X102625687Y95096339D02*
X102670749Y95146385D01*
X102720795Y95101323D01*
X102675733Y95051277D01*
X102625687Y95096339D01*
X102720795Y95101323D01*
X102983486Y94638246D02*
X103649239Y94673137D01*
X103078593Y94643231D02*
X103033531Y94593185D01*
X102990962Y94495585D01*
X102998439Y94352923D01*
X103050977Y94260308D01*
X103148577Y94217739D01*
X103671668Y94245153D01*
X103053267Y93306740D02*
X103861681Y93349107D01*
X103954297Y93401646D01*
X103999358Y93451692D01*
X104041928Y93549291D01*
X104034451Y93691953D01*
X103981913Y93784568D01*
X103671466Y93339139D02*
X103714035Y93436738D01*
X103704067Y93626954D01*
X103651529Y93719569D01*
X103601483Y93764631D01*
X103503883Y93807200D01*
X103218560Y93792247D01*
X103125945Y93739709D01*
X103080883Y93689663D01*
X103038314Y93592063D01*
X103048282Y93401848D01*
X103100821Y93309232D01*
D10*
%TO.C,MCU1*%
X73876695Y40044682D02*
X73076695Y40044682D01*
X73076695Y39739920D01*
X73114791Y39663730D01*
X73152886Y39625634D01*
X73229076Y39587539D01*
X73343362Y39587539D01*
X73419552Y39625634D01*
X73457648Y39663730D01*
X73495743Y39739920D01*
X73495743Y40044682D01*
X73076695Y39092301D02*
X73076695Y39016111D01*
X73114791Y38939920D01*
X73152886Y38901825D01*
X73229076Y38863730D01*
X73381457Y38825634D01*
X73571933Y38825634D01*
X73724314Y38863730D01*
X73800505Y38901825D01*
X73838600Y38939920D01*
X73876695Y39016111D01*
X73876695Y39092301D01*
X73838600Y39168492D01*
X73800505Y39206587D01*
X73724314Y39244682D01*
X73571933Y39282777D01*
X73381457Y39282777D01*
X73229076Y39244682D01*
X73152886Y39206587D01*
X73114791Y39168492D01*
X73076695Y39092301D01*
X73419552Y38368492D02*
X73381457Y38444682D01*
X73343362Y38482777D01*
X73267171Y38520873D01*
X73229076Y38520873D01*
X73152886Y38482777D01*
X73114791Y38444682D01*
X73076695Y38368492D01*
X73076695Y38216111D01*
X73114791Y38139920D01*
X73152886Y38101825D01*
X73229076Y38063730D01*
X73267171Y38063730D01*
X73343362Y38101825D01*
X73381457Y38139920D01*
X73419552Y38216111D01*
X73419552Y38368492D01*
X73457648Y38444682D01*
X73495743Y38482777D01*
X73571933Y38520873D01*
X73724314Y38520873D01*
X73800505Y38482777D01*
X73838600Y38444682D01*
X73876695Y38368492D01*
X73876695Y38216111D01*
X73838600Y38139920D01*
X73800505Y38101825D01*
X73724314Y38063730D01*
X73571933Y38063730D01*
X73495743Y38101825D01*
X73457648Y38139920D01*
X73419552Y38216111D01*
X58636695Y49644682D02*
X57836695Y49644682D01*
X57836695Y49339920D01*
X57874791Y49263730D01*
X57912886Y49225634D01*
X57989076Y49187539D01*
X58103362Y49187539D01*
X58179552Y49225634D01*
X58217648Y49263730D01*
X58255743Y49339920D01*
X58255743Y49644682D01*
X57912886Y48882777D02*
X57874791Y48844682D01*
X57836695Y48768492D01*
X57836695Y48578015D01*
X57874791Y48501825D01*
X57912886Y48463730D01*
X57989076Y48425634D01*
X58065267Y48425634D01*
X58179552Y48463730D01*
X58636695Y48920873D01*
X58636695Y48425634D01*
X58636695Y47663730D02*
X58636695Y48120873D01*
X58636695Y47892301D02*
X57836695Y47892301D01*
X57950981Y47968492D01*
X58027171Y48044682D01*
X58065267Y48120873D01*
X71336695Y49644682D02*
X70536695Y49644682D01*
X70536695Y49339920D01*
X70574791Y49263730D01*
X70612886Y49225634D01*
X70689076Y49187539D01*
X70803362Y49187539D01*
X70879552Y49225634D01*
X70917648Y49263730D01*
X70955743Y49339920D01*
X70955743Y49644682D01*
X71336695Y48425634D02*
X71336695Y48882777D01*
X71336695Y48654206D02*
X70536695Y48654206D01*
X70650981Y48730396D01*
X70727171Y48806587D01*
X70765267Y48882777D01*
X70803362Y47739920D02*
X71336695Y47739920D01*
X70498600Y47930396D02*
X71070029Y48120873D01*
X71070029Y47625634D01*
X61176695Y49644682D02*
X60376695Y49644682D01*
X60376695Y49339920D01*
X60414791Y49263730D01*
X60452886Y49225634D01*
X60529076Y49187539D01*
X60643362Y49187539D01*
X60719552Y49225634D01*
X60757648Y49263730D01*
X60795743Y49339920D01*
X60795743Y49644682D01*
X60452886Y48882777D02*
X60414791Y48844682D01*
X60376695Y48768492D01*
X60376695Y48578015D01*
X60414791Y48501825D01*
X60452886Y48463730D01*
X60529076Y48425634D01*
X60605267Y48425634D01*
X60719552Y48463730D01*
X61176695Y48920873D01*
X61176695Y48425634D01*
X60376695Y47930396D02*
X60376695Y47854206D01*
X60414791Y47778015D01*
X60452886Y47739920D01*
X60529076Y47701825D01*
X60681457Y47663730D01*
X60871933Y47663730D01*
X61024314Y47701825D01*
X61100505Y47739920D01*
X61138600Y47778015D01*
X61176695Y47854206D01*
X61176695Y47930396D01*
X61138600Y48006587D01*
X61100505Y48044682D01*
X61024314Y48082777D01*
X60871933Y48120873D01*
X60681457Y48120873D01*
X60529076Y48082777D01*
X60452886Y48044682D01*
X60414791Y48006587D01*
X60376695Y47930396D01*
X53556695Y45924872D02*
X53175743Y46191538D01*
X53556695Y46382015D02*
X52756695Y46382015D01*
X52756695Y46077253D01*
X52794791Y46001062D01*
X52832886Y45962967D01*
X52909076Y45924872D01*
X53023362Y45924872D01*
X53099552Y45962967D01*
X53137648Y46001062D01*
X53175743Y46077253D01*
X53175743Y46382015D01*
X53518600Y45620110D02*
X53556695Y45505824D01*
X53556695Y45315348D01*
X53518600Y45239157D01*
X53480505Y45201062D01*
X53404314Y45162967D01*
X53328124Y45162967D01*
X53251933Y45201062D01*
X53213838Y45239157D01*
X53175743Y45315348D01*
X53137648Y45467729D01*
X53099552Y45543919D01*
X53061457Y45582015D01*
X52985267Y45620110D01*
X52909076Y45620110D01*
X52832886Y45582015D01*
X52794791Y45543919D01*
X52756695Y45467729D01*
X52756695Y45277253D01*
X52794791Y45162967D01*
X52756695Y44934396D02*
X52756695Y44477253D01*
X53556695Y44705824D02*
X52756695Y44705824D01*
X76416695Y40044682D02*
X75616695Y40044682D01*
X75616695Y39739920D01*
X75654791Y39663730D01*
X75692886Y39625634D01*
X75769076Y39587539D01*
X75883362Y39587539D01*
X75959552Y39625634D01*
X75997648Y39663730D01*
X76035743Y39739920D01*
X76035743Y40044682D01*
X75616695Y39092301D02*
X75616695Y39016111D01*
X75654791Y38939920D01*
X75692886Y38901825D01*
X75769076Y38863730D01*
X75921457Y38825634D01*
X76111933Y38825634D01*
X76264314Y38863730D01*
X76340505Y38901825D01*
X76378600Y38939920D01*
X76416695Y39016111D01*
X76416695Y39092301D01*
X76378600Y39168492D01*
X76340505Y39206587D01*
X76264314Y39244682D01*
X76111933Y39282777D01*
X75921457Y39282777D01*
X75769076Y39244682D01*
X75692886Y39206587D01*
X75654791Y39168492D01*
X75616695Y39092301D01*
X76416695Y38444682D02*
X76416695Y38292301D01*
X76378600Y38216111D01*
X76340505Y38178015D01*
X76226219Y38101825D01*
X76073838Y38063730D01*
X75769076Y38063730D01*
X75692886Y38101825D01*
X75654791Y38139920D01*
X75616695Y38216111D01*
X75616695Y38368492D01*
X75654791Y38444682D01*
X75692886Y38482777D01*
X75769076Y38520873D01*
X75959552Y38520873D01*
X76035743Y38482777D01*
X76073838Y38444682D01*
X76111933Y38368492D01*
X76111933Y38216111D01*
X76073838Y38139920D01*
X76035743Y38101825D01*
X75959552Y38063730D01*
X73876695Y49644682D02*
X73076695Y49644682D01*
X73076695Y49339920D01*
X73114791Y49263730D01*
X73152886Y49225634D01*
X73229076Y49187539D01*
X73343362Y49187539D01*
X73419552Y49225634D01*
X73457648Y49263730D01*
X73495743Y49339920D01*
X73495743Y49644682D01*
X73876695Y48425634D02*
X73876695Y48882777D01*
X73876695Y48654206D02*
X73076695Y48654206D01*
X73190981Y48730396D01*
X73267171Y48806587D01*
X73305267Y48882777D01*
X73076695Y47739920D02*
X73076695Y47892301D01*
X73114791Y47968492D01*
X73152886Y48006587D01*
X73267171Y48082777D01*
X73419552Y48120873D01*
X73724314Y48120873D01*
X73800505Y48082777D01*
X73838600Y48044682D01*
X73876695Y47968492D01*
X73876695Y47816111D01*
X73838600Y47739920D01*
X73800505Y47701825D01*
X73724314Y47663730D01*
X73533838Y47663730D01*
X73457648Y47701825D01*
X73419552Y47739920D01*
X73381457Y47816111D01*
X73381457Y47968492D01*
X73419552Y48044682D01*
X73457648Y48082777D01*
X73533838Y48120873D01*
X48476695Y45924871D02*
X48095743Y46191538D01*
X48476695Y46382014D02*
X47676695Y46382014D01*
X47676695Y46077252D01*
X47714791Y46001062D01*
X47752886Y45962967D01*
X47829076Y45924871D01*
X47943362Y45924871D01*
X48019552Y45962967D01*
X48057648Y46001062D01*
X48095743Y46077252D01*
X48095743Y46382014D01*
X48248124Y45620110D02*
X48248124Y45239157D01*
X48476695Y45696300D02*
X47676695Y45429633D01*
X48476695Y45162967D01*
X47676695Y44972491D02*
X48476695Y44782014D01*
X47905267Y44629633D01*
X48476695Y44477252D01*
X47676695Y44286776D01*
X58636695Y40044682D02*
X57836695Y40044682D01*
X57836695Y39739920D01*
X57874791Y39663730D01*
X57912886Y39625634D01*
X57989076Y39587539D01*
X58103362Y39587539D01*
X58179552Y39625634D01*
X58217648Y39663730D01*
X58255743Y39739920D01*
X58255743Y40044682D01*
X57836695Y39092301D02*
X57836695Y39016111D01*
X57874791Y38939920D01*
X57912886Y38901825D01*
X57989076Y38863730D01*
X58141457Y38825634D01*
X58331933Y38825634D01*
X58484314Y38863730D01*
X58560505Y38901825D01*
X58598600Y38939920D01*
X58636695Y39016111D01*
X58636695Y39092301D01*
X58598600Y39168492D01*
X58560505Y39206587D01*
X58484314Y39244682D01*
X58331933Y39282777D01*
X58141457Y39282777D01*
X57989076Y39244682D01*
X57912886Y39206587D01*
X57874791Y39168492D01*
X57836695Y39092301D01*
X57912886Y38520873D02*
X57874791Y38482777D01*
X57836695Y38406587D01*
X57836695Y38216111D01*
X57874791Y38139920D01*
X57912886Y38101825D01*
X57989076Y38063730D01*
X58065267Y38063730D01*
X58179552Y38101825D01*
X58636695Y38558968D01*
X58636695Y38063730D01*
X66256695Y49644682D02*
X65456695Y49644682D01*
X65456695Y49339920D01*
X65494791Y49263730D01*
X65532886Y49225634D01*
X65609076Y49187539D01*
X65723362Y49187539D01*
X65799552Y49225634D01*
X65837648Y49263730D01*
X65875743Y49339920D01*
X65875743Y49644682D01*
X66256695Y48425634D02*
X66256695Y48882777D01*
X66256695Y48654206D02*
X65456695Y48654206D01*
X65570981Y48730396D01*
X65647171Y48806587D01*
X65685267Y48882777D01*
X65799552Y47968492D02*
X65761457Y48044682D01*
X65723362Y48082777D01*
X65647171Y48120873D01*
X65609076Y48120873D01*
X65532886Y48082777D01*
X65494791Y48044682D01*
X65456695Y47968492D01*
X65456695Y47816111D01*
X65494791Y47739920D01*
X65532886Y47701825D01*
X65609076Y47663730D01*
X65647171Y47663730D01*
X65723362Y47701825D01*
X65761457Y47739920D01*
X65799552Y47816111D01*
X65799552Y47968492D01*
X65837648Y48044682D01*
X65875743Y48082777D01*
X65951933Y48120873D01*
X66104314Y48120873D01*
X66180505Y48082777D01*
X66218600Y48044682D01*
X66256695Y47968492D01*
X66256695Y47816111D01*
X66218600Y47739920D01*
X66180505Y47701825D01*
X66104314Y47663730D01*
X65951933Y47663730D01*
X65875743Y47701825D01*
X65837648Y47739920D01*
X65799552Y47816111D01*
X76416695Y49644682D02*
X75616695Y49644682D01*
X75616695Y49339920D01*
X75654791Y49263730D01*
X75692886Y49225634D01*
X75769076Y49187539D01*
X75883362Y49187539D01*
X75959552Y49225634D01*
X75997648Y49263730D01*
X76035743Y49339920D01*
X76035743Y49644682D01*
X76416695Y48425634D02*
X76416695Y48882777D01*
X76416695Y48654206D02*
X75616695Y48654206D01*
X75730981Y48730396D01*
X75807171Y48806587D01*
X75845267Y48882777D01*
X75616695Y47930396D02*
X75616695Y47854206D01*
X75654791Y47778015D01*
X75692886Y47739920D01*
X75769076Y47701825D01*
X75921457Y47663730D01*
X76111933Y47663730D01*
X76264314Y47701825D01*
X76340505Y47739920D01*
X76378600Y47778015D01*
X76416695Y47854206D01*
X76416695Y47930396D01*
X76378600Y48006587D01*
X76340505Y48044682D01*
X76264314Y48082777D01*
X76111933Y48120873D01*
X75921457Y48120873D01*
X75769076Y48082777D01*
X75692886Y48044682D01*
X75654791Y48006587D01*
X75616695Y47930396D01*
X61176695Y40044682D02*
X60376695Y40044682D01*
X60376695Y39739920D01*
X60414791Y39663730D01*
X60452886Y39625634D01*
X60529076Y39587539D01*
X60643362Y39587539D01*
X60719552Y39625634D01*
X60757648Y39663730D01*
X60795743Y39739920D01*
X60795743Y40044682D01*
X60376695Y39092301D02*
X60376695Y39016111D01*
X60414791Y38939920D01*
X60452886Y38901825D01*
X60529076Y38863730D01*
X60681457Y38825634D01*
X60871933Y38825634D01*
X61024314Y38863730D01*
X61100505Y38901825D01*
X61138600Y38939920D01*
X61176695Y39016111D01*
X61176695Y39092301D01*
X61138600Y39168492D01*
X61100505Y39206587D01*
X61024314Y39244682D01*
X60871933Y39282777D01*
X60681457Y39282777D01*
X60529076Y39244682D01*
X60452886Y39206587D01*
X60414791Y39168492D01*
X60376695Y39092301D01*
X60376695Y38558968D02*
X60376695Y38063730D01*
X60681457Y38330396D01*
X60681457Y38216111D01*
X60719552Y38139920D01*
X60757648Y38101825D01*
X60833838Y38063730D01*
X61024314Y38063730D01*
X61100505Y38101825D01*
X61138600Y38139920D01*
X61176695Y38216111D01*
X61176695Y38444682D01*
X61138600Y38520873D01*
X61100505Y38558968D01*
X71336695Y40044682D02*
X70536695Y40044682D01*
X70536695Y39739920D01*
X70574791Y39663730D01*
X70612886Y39625634D01*
X70689076Y39587539D01*
X70803362Y39587539D01*
X70879552Y39625634D01*
X70917648Y39663730D01*
X70955743Y39739920D01*
X70955743Y40044682D01*
X70536695Y39092301D02*
X70536695Y39016111D01*
X70574791Y38939920D01*
X70612886Y38901825D01*
X70689076Y38863730D01*
X70841457Y38825634D01*
X71031933Y38825634D01*
X71184314Y38863730D01*
X71260505Y38901825D01*
X71298600Y38939920D01*
X71336695Y39016111D01*
X71336695Y39092301D01*
X71298600Y39168492D01*
X71260505Y39206587D01*
X71184314Y39244682D01*
X71031933Y39282777D01*
X70841457Y39282777D01*
X70689076Y39244682D01*
X70612886Y39206587D01*
X70574791Y39168492D01*
X70536695Y39092301D01*
X70536695Y38558968D02*
X70536695Y38025634D01*
X71336695Y38368492D01*
X63716695Y49644682D02*
X62916695Y49644682D01*
X62916695Y49339920D01*
X62954791Y49263730D01*
X62992886Y49225634D01*
X63069076Y49187539D01*
X63183362Y49187539D01*
X63259552Y49225634D01*
X63297648Y49263730D01*
X63335743Y49339920D01*
X63335743Y49644682D01*
X63716695Y48425634D02*
X63716695Y48882777D01*
X63716695Y48654206D02*
X62916695Y48654206D01*
X63030981Y48730396D01*
X63107171Y48806587D01*
X63145267Y48882777D01*
X63716695Y48044682D02*
X63716695Y47892301D01*
X63678600Y47816111D01*
X63640505Y47778015D01*
X63526219Y47701825D01*
X63373838Y47663730D01*
X63069076Y47663730D01*
X62992886Y47701825D01*
X62954791Y47739920D01*
X62916695Y47816111D01*
X62916695Y47968492D01*
X62954791Y48044682D01*
X62992886Y48082777D01*
X63069076Y48120873D01*
X63259552Y48120873D01*
X63335743Y48082777D01*
X63373838Y48044682D01*
X63411933Y47968492D01*
X63411933Y47816111D01*
X63373838Y47739920D01*
X63335743Y47701825D01*
X63259552Y47663730D01*
X50254791Y45982014D02*
X50216695Y46058205D01*
X50216695Y46172491D01*
X50254791Y46286776D01*
X50330981Y46362967D01*
X50407171Y46401062D01*
X50559552Y46439157D01*
X50673838Y46439157D01*
X50826219Y46401062D01*
X50902410Y46362967D01*
X50978600Y46286776D01*
X51016695Y46172491D01*
X51016695Y46096300D01*
X50978600Y45982014D01*
X50940505Y45943919D01*
X50673838Y45943919D01*
X50673838Y46096300D01*
X51016695Y45601062D02*
X50216695Y45601062D01*
X51016695Y45143919D01*
X50216695Y45143919D01*
X51016695Y44762967D02*
X50216695Y44762967D01*
X50216695Y44572491D01*
X50254791Y44458205D01*
X50330981Y44382014D01*
X50407171Y44343919D01*
X50559552Y44305824D01*
X50673838Y44305824D01*
X50826219Y44343919D01*
X50902410Y44382014D01*
X50978600Y44458205D01*
X51016695Y44572491D01*
X51016695Y44762967D01*
X63716695Y40044682D02*
X62916695Y40044682D01*
X62916695Y39739920D01*
X62954791Y39663730D01*
X62992886Y39625634D01*
X63069076Y39587539D01*
X63183362Y39587539D01*
X63259552Y39625634D01*
X63297648Y39663730D01*
X63335743Y39739920D01*
X63335743Y40044682D01*
X62916695Y39092301D02*
X62916695Y39016111D01*
X62954791Y38939920D01*
X62992886Y38901825D01*
X63069076Y38863730D01*
X63221457Y38825634D01*
X63411933Y38825634D01*
X63564314Y38863730D01*
X63640505Y38901825D01*
X63678600Y38939920D01*
X63716695Y39016111D01*
X63716695Y39092301D01*
X63678600Y39168492D01*
X63640505Y39206587D01*
X63564314Y39244682D01*
X63411933Y39282777D01*
X63221457Y39282777D01*
X63069076Y39244682D01*
X62992886Y39206587D01*
X62954791Y39168492D01*
X62916695Y39092301D01*
X63183362Y38139920D02*
X63716695Y38139920D01*
X62878600Y38330396D02*
X63450029Y38520873D01*
X63450029Y38025634D01*
X66256695Y40044682D02*
X65456695Y40044682D01*
X65456695Y39739920D01*
X65494791Y39663730D01*
X65532886Y39625634D01*
X65609076Y39587539D01*
X65723362Y39587539D01*
X65799552Y39625634D01*
X65837648Y39663730D01*
X65875743Y39739920D01*
X65875743Y40044682D01*
X65456695Y39092301D02*
X65456695Y39016111D01*
X65494791Y38939920D01*
X65532886Y38901825D01*
X65609076Y38863730D01*
X65761457Y38825634D01*
X65951933Y38825634D01*
X66104314Y38863730D01*
X66180505Y38901825D01*
X66218600Y38939920D01*
X66256695Y39016111D01*
X66256695Y39092301D01*
X66218600Y39168492D01*
X66180505Y39206587D01*
X66104314Y39244682D01*
X65951933Y39282777D01*
X65761457Y39282777D01*
X65609076Y39244682D01*
X65532886Y39206587D01*
X65494791Y39168492D01*
X65456695Y39092301D01*
X65456695Y38101825D02*
X65456695Y38482777D01*
X65837648Y38520873D01*
X65799552Y38482777D01*
X65761457Y38406587D01*
X65761457Y38216111D01*
X65799552Y38139920D01*
X65837648Y38101825D01*
X65913838Y38063730D01*
X66104314Y38063730D01*
X66180505Y38101825D01*
X66218600Y38139920D01*
X66256695Y38216111D01*
X66256695Y38406587D01*
X66218600Y38482777D01*
X66180505Y38520873D01*
X68796695Y49644682D02*
X67996695Y49644682D01*
X67996695Y49339920D01*
X68034791Y49263730D01*
X68072886Y49225634D01*
X68149076Y49187539D01*
X68263362Y49187539D01*
X68339552Y49225634D01*
X68377648Y49263730D01*
X68415743Y49339920D01*
X68415743Y49644682D01*
X68796695Y48425634D02*
X68796695Y48882777D01*
X68796695Y48654206D02*
X67996695Y48654206D01*
X68110981Y48730396D01*
X68187171Y48806587D01*
X68225267Y48882777D01*
X67996695Y47701825D02*
X67996695Y48082777D01*
X68377648Y48120873D01*
X68339552Y48082777D01*
X68301457Y48006587D01*
X68301457Y47816111D01*
X68339552Y47739920D01*
X68377648Y47701825D01*
X68453838Y47663730D01*
X68644314Y47663730D01*
X68720505Y47701825D01*
X68758600Y47739920D01*
X68796695Y47816111D01*
X68796695Y48006587D01*
X68758600Y48082777D01*
X68720505Y48120873D01*
X68796695Y40044682D02*
X67996695Y40044682D01*
X67996695Y39739920D01*
X68034791Y39663730D01*
X68072886Y39625634D01*
X68149076Y39587539D01*
X68263362Y39587539D01*
X68339552Y39625634D01*
X68377648Y39663730D01*
X68415743Y39739920D01*
X68415743Y40044682D01*
X67996695Y39092301D02*
X67996695Y39016111D01*
X68034791Y38939920D01*
X68072886Y38901825D01*
X68149076Y38863730D01*
X68301457Y38825634D01*
X68491933Y38825634D01*
X68644314Y38863730D01*
X68720505Y38901825D01*
X68758600Y38939920D01*
X68796695Y39016111D01*
X68796695Y39092301D01*
X68758600Y39168492D01*
X68720505Y39206587D01*
X68644314Y39244682D01*
X68491933Y39282777D01*
X68301457Y39282777D01*
X68149076Y39244682D01*
X68072886Y39206587D01*
X68034791Y39168492D01*
X67996695Y39092301D01*
X67996695Y38139920D02*
X67996695Y38292301D01*
X68034791Y38368492D01*
X68072886Y38406587D01*
X68187171Y38482777D01*
X68339552Y38520873D01*
X68644314Y38520873D01*
X68720505Y38482777D01*
X68758600Y38444682D01*
X68796695Y38368492D01*
X68796695Y38216111D01*
X68758600Y38139920D01*
X68720505Y38101825D01*
X68644314Y38063730D01*
X68453838Y38063730D01*
X68377648Y38101825D01*
X68339552Y38139920D01*
X68301457Y38216111D01*
X68301457Y38368492D01*
X68339552Y38444682D01*
X68377648Y38482777D01*
X68453838Y38520873D01*
%TO.C,B1*%
X80146791Y51615254D02*
X80396791Y51615254D01*
X80146791Y45615254D02*
X80146791Y51615254D01*
X83646791Y45615254D02*
X83396791Y45615254D01*
X83396791Y51615254D02*
X83646791Y51615254D01*
X83646791Y51615254D02*
X83646791Y45615254D01*
X80396791Y45615254D02*
X80146791Y45615254D01*
%TO.C,T2*%
X53339406Y120958838D02*
X49439406Y120958838D01*
X54689406Y118108838D02*
X54689406Y120958838D01*
X48089406Y120958838D02*
X48089406Y118108838D01*
X48089406Y118108838D02*
X54689406Y118108838D01*
X51389406Y120958838D02*
X48089406Y120958838D01*
X51389406Y120958838D02*
X54689406Y120958838D01*
D12*
%TO.C,REF\u002A\u002A*%
X109748877Y108399623D02*
G75*
G03*
X105549908Y109214849I-5989086J-19626476D01*
G01*
X107676842Y68630546D02*
G75*
G03*
X111767590Y69880216I-3917070J20142662D01*
G01*
X97770709Y69146670D02*
G75*
G03*
X101969674Y68331445I5989082J19626477D01*
G01*
X99842740Y108915749D02*
G75*
G03*
X95751991Y107666078I3917051J-20142602D01*
G01*
X103194824Y99553353D02*
G75*
G03*
X102071081Y99435243I564957J-10780127D01*
G01*
X123386267Y82784062D02*
G75*
G03*
X124201493Y86983030I-19626476J5989085D01*
G01*
X104324758Y99553352D02*
G75*
G03*
X103194824Y99553353I-564972J-10780105D01*
G01*
X84133314Y94762228D02*
G75*
G03*
X83318089Y90563264I19626598J-5989105D01*
G01*
X103194824Y77992941D02*
G75*
G03*
X104324758Y77992941I564965J10780127D01*
G01*
X83617189Y84856096D02*
G75*
G03*
X84866860Y80765347I20142602J3917051D01*
G01*
X104324758Y77992940D02*
G75*
G03*
X105448501Y78111051I-564962J10780107D01*
G01*
X123902393Y92690198D02*
G75*
G03*
X122652721Y96780949I-20142602J-3917051D01*
G01*
G36*
X104327644Y75784781D02*
G01*
X104363758Y75094010D01*
X104364370Y75082290D01*
X104371984Y74932009D01*
X104378505Y74794890D01*
X104383882Y74672348D01*
X104388062Y74565791D01*
X104390993Y74476634D01*
X104391456Y74456628D01*
X104392624Y74406286D01*
X104392902Y74356160D01*
X104391779Y74327667D01*
X104385353Y74280816D01*
X104354507Y74151865D01*
X104306004Y74023287D01*
X104242592Y73901620D01*
X104167022Y73793397D01*
X104159119Y73783804D01*
X104056206Y73677947D01*
X103938350Y73587658D01*
X103808812Y73514800D01*
X103670859Y73461231D01*
X103527751Y73428816D01*
X103427877Y73419093D01*
X103279063Y73422708D01*
X103134153Y73447411D01*
X102995381Y73492233D01*
X102864979Y73556210D01*
X102745181Y73638375D01*
X102638220Y73737762D01*
X102546330Y73853404D01*
X102483558Y73957180D01*
X102423199Y74093444D01*
X102384320Y74236169D01*
X102366063Y74387899D01*
X102365083Y74465254D01*
X102865092Y74465254D01*
X102867342Y74357979D01*
X102867900Y74352711D01*
X102875106Y74297710D01*
X102884667Y74255861D01*
X102899315Y74217968D01*
X102921784Y74174839D01*
X102945248Y74137689D01*
X102989754Y74081146D01*
X103040647Y74028282D01*
X103092320Y73984732D01*
X103139167Y73956141D01*
X103155718Y73949222D01*
X103197476Y73934026D01*
X103241256Y73920213D01*
X103314993Y73904762D01*
X103418997Y73901680D01*
X103519730Y73919771D01*
X103614649Y73957923D01*
X103701211Y74015025D01*
X103776874Y74089964D01*
X103839096Y74181629D01*
X103864877Y74237200D01*
X103890346Y74332683D01*
X103895799Y74430651D01*
X103882378Y74528030D01*
X103851229Y74621741D01*
X103803499Y74708710D01*
X103740332Y74785855D01*
X103662873Y74850104D01*
X103572270Y74898377D01*
X103557958Y74903922D01*
X103458144Y74929358D01*
X103356398Y74934221D01*
X103256120Y74919633D01*
X103160713Y74886717D01*
X103073581Y74836592D01*
X102998125Y74770382D01*
X102937749Y74689207D01*
X102921496Y74659787D01*
X102882794Y74564208D01*
X102865092Y74465254D01*
X102365083Y74465254D01*
X102364926Y74477633D01*
X102379711Y74628893D01*
X102414974Y74772905D01*
X102469792Y74907944D01*
X102543243Y75032283D01*
X102634405Y75144197D01*
X102742356Y75241961D01*
X102866173Y75323846D01*
X102934220Y75360096D01*
X103007726Y75393205D01*
X103078260Y75416420D01*
X103154013Y75432344D01*
X103243183Y75443578D01*
X103260935Y75445177D01*
X103400283Y75446033D01*
X103531935Y75425219D01*
X103656554Y75382579D01*
X103774795Y75317956D01*
X103799796Y75302041D01*
X103825463Y75287021D01*
X103838208Y75281366D01*
X103838904Y75285438D01*
X103839105Y75309288D01*
X103838173Y75352422D01*
X103836196Y75412475D01*
X103833263Y75487086D01*
X103829465Y75573892D01*
X103824890Y75670530D01*
X103819626Y75774638D01*
X103793943Y76267537D01*
X104327644Y75784781D01*
G37*
D13*
X104327644Y75784781D02*
X104363758Y75094010D01*
X104364370Y75082290D01*
X104371984Y74932009D01*
X104378505Y74794890D01*
X104383882Y74672348D01*
X104388062Y74565791D01*
X104390993Y74476634D01*
X104391456Y74456628D01*
X104392624Y74406286D01*
X104392902Y74356160D01*
X104391779Y74327667D01*
X104385353Y74280816D01*
X104354507Y74151865D01*
X104306004Y74023287D01*
X104242592Y73901620D01*
X104167022Y73793397D01*
X104159119Y73783804D01*
X104056206Y73677947D01*
X103938350Y73587658D01*
X103808812Y73514800D01*
X103670859Y73461231D01*
X103527751Y73428816D01*
X103427877Y73419093D01*
X103279063Y73422708D01*
X103134153Y73447411D01*
X102995381Y73492233D01*
X102864979Y73556210D01*
X102745181Y73638375D01*
X102638220Y73737762D01*
X102546330Y73853404D01*
X102483558Y73957180D01*
X102423199Y74093444D01*
X102384320Y74236169D01*
X102366063Y74387899D01*
X102365083Y74465254D01*
X102865092Y74465254D01*
X102867342Y74357979D01*
X102867900Y74352711D01*
X102875106Y74297710D01*
X102884667Y74255861D01*
X102899315Y74217968D01*
X102921784Y74174839D01*
X102945248Y74137689D01*
X102989754Y74081146D01*
X103040647Y74028282D01*
X103092320Y73984732D01*
X103139167Y73956141D01*
X103155718Y73949222D01*
X103197476Y73934026D01*
X103241256Y73920213D01*
X103314993Y73904762D01*
X103418997Y73901680D01*
X103519730Y73919771D01*
X103614649Y73957923D01*
X103701211Y74015025D01*
X103776874Y74089964D01*
X103839096Y74181629D01*
X103864877Y74237200D01*
X103890346Y74332683D01*
X103895799Y74430651D01*
X103882378Y74528030D01*
X103851229Y74621741D01*
X103803499Y74708710D01*
X103740332Y74785855D01*
X103662873Y74850104D01*
X103572270Y74898377D01*
X103557958Y74903922D01*
X103458144Y74929358D01*
X103356398Y74934221D01*
X103256120Y74919633D01*
X103160713Y74886717D01*
X103073581Y74836592D01*
X102998125Y74770382D01*
X102937749Y74689207D01*
X102921496Y74659787D01*
X102882794Y74564208D01*
X102865092Y74465254D01*
X102365083Y74465254D01*
X102364926Y74477633D01*
X102379711Y74628893D01*
X102414974Y74772905D01*
X102469792Y74907944D01*
X102543243Y75032283D01*
X102634405Y75144197D01*
X102742356Y75241961D01*
X102866173Y75323846D01*
X102934220Y75360096D01*
X103007726Y75393205D01*
X103078260Y75416420D01*
X103154013Y75432344D01*
X103243183Y75443578D01*
X103260935Y75445177D01*
X103400283Y75446033D01*
X103531935Y75425219D01*
X103656554Y75382579D01*
X103774795Y75317956D01*
X103799796Y75302041D01*
X103825463Y75287021D01*
X103838208Y75281366D01*
X103838904Y75285438D01*
X103839105Y75309288D01*
X103838173Y75352422D01*
X103836196Y75412475D01*
X103833263Y75487086D01*
X103829465Y75573892D01*
X103824890Y75670530D01*
X103819626Y75774638D01*
X103793943Y76267537D01*
X104327644Y75784781D01*
G36*
X105305640Y74317571D02*
G01*
X105318378Y74308176D01*
X105345061Y74285922D01*
X105382976Y74253149D01*
X105429406Y74212198D01*
X105481640Y74165412D01*
X105650898Y74012717D01*
X105619041Y73973181D01*
X105616052Y73969527D01*
X105595428Y73945206D01*
X105563000Y73907711D01*
X105521609Y73860300D01*
X105474091Y73806226D01*
X105423287Y73748745D01*
X105259390Y73563845D01*
X104640225Y73531396D01*
X104666727Y73566466D01*
X104668876Y73569273D01*
X104688300Y73593552D01*
X104719137Y73631058D01*
X104759513Y73679582D01*
X104807550Y73736918D01*
X104861374Y73800857D01*
X104919107Y73869192D01*
X104978873Y73939714D01*
X105038798Y74010217D01*
X105097003Y74078492D01*
X105151616Y74142331D01*
X105200757Y74199528D01*
X105242553Y74247873D01*
X105275125Y74285160D01*
X105296601Y74309180D01*
X105305100Y74317726D01*
X105305640Y74317571D01*
G37*
X105305640Y74317571D02*
X105318378Y74308176D01*
X105345061Y74285922D01*
X105382976Y74253149D01*
X105429406Y74212198D01*
X105481640Y74165412D01*
X105650898Y74012717D01*
X105619041Y73973181D01*
X105616052Y73969527D01*
X105595428Y73945206D01*
X105563000Y73907711D01*
X105521609Y73860300D01*
X105474091Y73806226D01*
X105423287Y73748745D01*
X105259390Y73563845D01*
X104640225Y73531396D01*
X104666727Y73566466D01*
X104668876Y73569273D01*
X104688300Y73593552D01*
X104719137Y73631058D01*
X104759513Y73679582D01*
X104807550Y73736918D01*
X104861374Y73800857D01*
X104919107Y73869192D01*
X104978873Y73939714D01*
X105038798Y74010217D01*
X105097003Y74078492D01*
X105151616Y74142331D01*
X105200757Y74199528D01*
X105242553Y74247873D01*
X105275125Y74285160D01*
X105296601Y74309180D01*
X105305100Y74317726D01*
X105305640Y74317571D01*
G36*
X106634777Y73676567D02*
G01*
X106539228Y73763962D01*
X106524734Y73777218D01*
X106491223Y73807859D01*
X106442897Y73852044D01*
X106381037Y73908602D01*
X106306922Y73976361D01*
X106221835Y74054152D01*
X106127055Y74140803D01*
X106023864Y74235143D01*
X105913543Y74336000D01*
X105797371Y74442206D01*
X105676630Y74552587D01*
X105552600Y74665974D01*
X104661521Y75480592D01*
X105237143Y75516954D01*
X106080999Y74757378D01*
X105995505Y76388697D01*
X106491279Y76414679D01*
X106634777Y73676567D01*
G37*
X106634777Y73676567D02*
X106539228Y73763962D01*
X106524734Y73777218D01*
X106491223Y73807859D01*
X106442897Y73852044D01*
X106381037Y73908602D01*
X106306922Y73976361D01*
X106221835Y74054152D01*
X106127055Y74140803D01*
X106023864Y74235143D01*
X105913543Y74336000D01*
X105797371Y74442206D01*
X105676630Y74552587D01*
X105552600Y74665974D01*
X104661521Y75480592D01*
X105237143Y75516954D01*
X106080999Y74757378D01*
X105995505Y76388697D01*
X106491279Y76414679D01*
X106634777Y73676567D01*
%TO.C,G\u002A\u002A\u002A*%
G36*
X98294942Y51812824D02*
G01*
X98061649Y51748512D01*
X97811538Y51729304D01*
X97475458Y51740479D01*
X97191010Y51761621D01*
X96921103Y51805164D01*
X96785267Y51846472D01*
X97326734Y51846472D01*
X97377003Y51829586D01*
X97560124Y51822981D01*
X97684373Y51825451D01*
X97790747Y51838735D01*
X97750624Y51859673D01*
X97616342Y51873680D01*
X97369624Y51859673D01*
X97326734Y51846472D01*
X96785267Y51846472D01*
X96658849Y51884916D01*
X96541066Y51935740D01*
X98006388Y51935740D01*
X98007699Y51906838D01*
X98117513Y51891272D01*
X98200736Y51904830D01*
X98168666Y51942424D01*
X98119705Y51955952D01*
X98006388Y51935740D01*
X96541066Y51935740D01*
X96352787Y52016983D01*
X95951458Y52217471D01*
X95873073Y52289133D01*
X95797216Y52466154D01*
X95797782Y52474013D01*
X96004074Y52474013D01*
X96062774Y52358794D01*
X96290124Y52249200D01*
X96511909Y52195665D01*
X96888395Y52153581D01*
X97329366Y52140191D01*
X97795957Y52153149D01*
X98249304Y52190104D01*
X98650543Y52248710D01*
X98960808Y52326617D01*
X99141236Y52421477D01*
X99157661Y52442360D01*
X99132439Y52546217D01*
X98950159Y52659796D01*
X98620145Y52776740D01*
X98444794Y52834526D01*
X98157762Y52955621D01*
X97954933Y53074185D01*
X97727924Y53201704D01*
X97442869Y53218904D01*
X97181258Y53071925D01*
X97056956Y52985888D01*
X96799981Y52860844D01*
X96498468Y52750950D01*
X96390466Y52716119D01*
X96113485Y52593556D01*
X96004074Y52474013D01*
X95797782Y52474013D01*
X95805312Y52578497D01*
X95905472Y52692388D01*
X96135883Y52815481D01*
X96242044Y52860588D01*
X96498194Y52947868D01*
X96685795Y52983395D01*
X96712870Y52985572D01*
X96909386Y53056816D01*
X97121351Y53196921D01*
X97170610Y53236741D01*
X97444599Y53382912D01*
X97711996Y53373214D01*
X98010274Y53208121D01*
X98029518Y53194260D01*
X98310110Y53046312D01*
X98606246Y52957991D01*
X98725946Y52935346D01*
X99043883Y52822441D01*
X99259024Y52661464D01*
X99338124Y52474381D01*
X99333900Y52442360D01*
X99333130Y52436520D01*
X99252947Y52319437D01*
X99057488Y52181752D01*
X98724291Y52006335D01*
X98580568Y51936960D01*
X98506640Y51904830D01*
X98354561Y51838735D01*
X98294942Y51812824D01*
G37*
G36*
X101464233Y49090587D02*
G01*
X101284819Y48878921D01*
X101094638Y49100159D01*
X100902864Y49291458D01*
X100688782Y49458488D01*
X100473107Y49595578D01*
X100371837Y49216940D01*
X100294450Y48992587D01*
X100031022Y48568076D01*
X99659005Y48250235D01*
X99205652Y48065962D01*
X98955414Y47997499D01*
X98782528Y47903694D01*
X98770560Y47796965D01*
X98914791Y47670903D01*
X99017533Y47571926D01*
X99042818Y47505329D01*
X99084124Y47396537D01*
X99071892Y47273539D01*
X99001852Y47237333D01*
X98833022Y47311037D01*
X98709705Y47349216D01*
X98629578Y47268704D01*
X98578578Y47187204D01*
X98457835Y47152077D01*
X98356333Y47260898D01*
X98303931Y47320856D01*
X98147323Y47335690D01*
X98063852Y47327333D01*
X97987558Y47391260D01*
X98012654Y47504907D01*
X98181566Y47504907D01*
X98253320Y47511680D01*
X98340280Y47517645D01*
X98434846Y47413728D01*
X98447148Y47372879D01*
X98484188Y47340233D01*
X98535158Y47462539D01*
X98547587Y47499095D01*
X98615372Y47599426D01*
X98715512Y47556307D01*
X98787206Y47510679D01*
X98881755Y47505329D01*
X98870365Y47558600D01*
X98752709Y47647373D01*
X98643048Y47735988D01*
X98569440Y47887066D01*
X98554948Y47977967D01*
X98516910Y47905254D01*
X98441906Y47782873D01*
X98290761Y47622206D01*
X98243161Y47579842D01*
X98181566Y47504907D01*
X98012654Y47504907D01*
X98017404Y47526419D01*
X98152791Y47693587D01*
X98265512Y47813867D01*
X98322124Y47918376D01*
X98302849Y47934351D01*
X98155848Y47962859D01*
X97895683Y47982564D01*
X97560124Y47989921D01*
X97165534Y47980690D01*
X96908778Y47946966D01*
X96797854Y47881716D01*
X96821251Y47777922D01*
X96967458Y47628566D01*
X97077040Y47504168D01*
X97100760Y47445249D01*
X97136791Y47355750D01*
X97080983Y47253017D01*
X96954184Y47234566D01*
X96837327Y47317654D01*
X96779783Y47347063D01*
X96668696Y47254154D01*
X96657843Y47239714D01*
X96552662Y47151869D01*
X96448224Y47206754D01*
X96380077Y47256338D01*
X96188524Y47312587D01*
X96134281Y47318891D01*
X96045517Y47400444D01*
X96066722Y47516869D01*
X96247116Y47516869D01*
X96305987Y47514801D01*
X96392171Y47518792D01*
X96478225Y47413728D01*
X96490184Y47362535D01*
X96527469Y47326092D01*
X96602335Y47435588D01*
X96637022Y47492169D01*
X96723771Y47553561D01*
X96853431Y47480483D01*
X96915685Y47435454D01*
X96930090Y47445249D01*
X96830068Y47569150D01*
X96690253Y47753018D01*
X96603918Y47905254D01*
X96603656Y47905972D01*
X96564862Y47982784D01*
X96550809Y47894414D01*
X96497367Y47765857D01*
X96353624Y47614488D01*
X96334291Y47599870D01*
X96247116Y47516869D01*
X96066722Y47516869D01*
X96070067Y47535236D01*
X96205458Y47670903D01*
X96295797Y47736818D01*
X96365958Y47861986D01*
X96271490Y47962205D01*
X96014958Y48032606D01*
X96002619Y48034631D01*
X95526046Y48196883D01*
X95125575Y48497115D01*
X94835880Y48909539D01*
X94752605Y49103340D01*
X94688136Y49345094D01*
X94658199Y49641512D01*
X94653694Y50049534D01*
X94653651Y50087097D01*
X94874457Y50087097D01*
X94908646Y49563334D01*
X95068050Y49091740D01*
X95340625Y48702928D01*
X95714326Y48427510D01*
X95752531Y48408878D01*
X95940888Y48330404D01*
X96145337Y48275947D01*
X96404186Y48239770D01*
X96755746Y48216138D01*
X97238326Y48199313D01*
X97809488Y48190929D01*
X98427985Y48208930D01*
X98916372Y48265483D01*
X99295610Y48366686D01*
X99586661Y48518637D01*
X99810485Y48727432D01*
X99988045Y48999169D01*
X100089320Y49235729D01*
X100171262Y49615475D01*
X100160227Y49965144D01*
X100053367Y50230971D01*
X100038430Y50252075D01*
X99930890Y50461808D01*
X99840839Y50718882D01*
X99783464Y50897409D01*
X99711721Y50985912D01*
X99609738Y50963856D01*
X99589387Y50954412D01*
X99411126Y50895024D01*
X99129471Y50818737D01*
X98795575Y50739636D01*
X98730419Y50725857D01*
X98031375Y50638913D01*
X97267464Y50635774D01*
X96511016Y50713295D01*
X95834362Y50868334D01*
X95542700Y50952057D01*
X95283501Y50985500D01*
X95117240Y50921722D01*
X95009038Y50744170D01*
X94924017Y50436290D01*
X94874457Y50087097D01*
X94653651Y50087097D01*
X94653361Y50342958D01*
X94638055Y50620483D01*
X94601926Y50777835D01*
X94540977Y50843143D01*
X94497636Y50870646D01*
X94368139Y51026663D01*
X94234889Y51257624D01*
X94130801Y51501444D01*
X94088791Y51696041D01*
X94082283Y51736972D01*
X93991294Y51910680D01*
X93827238Y52101580D01*
X93670953Y52271671D01*
X94287825Y52271671D01*
X94342682Y51715711D01*
X94377589Y51595489D01*
X94498416Y51319303D01*
X94638262Y51123398D01*
X94836403Y50937254D01*
X94989412Y51170774D01*
X94996771Y51182465D01*
X95089378Y51442513D01*
X95136836Y51803265D01*
X95138665Y52205806D01*
X95094384Y52591219D01*
X95003514Y52900587D01*
X94989304Y52932106D01*
X94885103Y53175557D01*
X94811700Y53366254D01*
X94797899Y53403908D01*
X94751339Y53459238D01*
X94680299Y53399968D01*
X94556865Y53208857D01*
X94380285Y52814856D01*
X94287825Y52271671D01*
X93670953Y52271671D01*
X93596453Y52352752D01*
X93251478Y52913949D01*
X93033703Y53572528D01*
X92945101Y54316859D01*
X92956425Y54534707D01*
X93242124Y54534707D01*
X93256389Y54101307D01*
X93337047Y53554865D01*
X93501533Y53079156D01*
X93764149Y52621769D01*
X93976668Y52309019D01*
X94119370Y52822293D01*
X94177415Y53002737D01*
X94325034Y53330640D01*
X94486815Y53560308D01*
X94711557Y53785051D01*
X94432538Y54574627D01*
X94355728Y54797336D01*
X94259271Y55097225D01*
X94199914Y55309687D01*
X94188260Y55398945D01*
X94198118Y55401410D01*
X94334722Y55411145D01*
X94616900Y55422808D01*
X95026380Y55435893D01*
X95544893Y55449897D01*
X96154169Y55464314D01*
X96835936Y55478640D01*
X97571926Y55492372D01*
X98459968Y55506403D01*
X99244399Y55515059D01*
X99873411Y55517234D01*
X100354103Y55512860D01*
X100693577Y55501868D01*
X100898934Y55484192D01*
X100977274Y55459762D01*
X100971841Y55353483D01*
X100913987Y55122641D01*
X100813067Y54802665D01*
X100679057Y54428062D01*
X100324416Y53487658D01*
X99472359Y53511623D01*
X98620303Y53535587D01*
X97926555Y55228921D01*
X97266011Y55228921D01*
X96919184Y54382254D01*
X96572358Y53535587D01*
X95829360Y53510990D01*
X95785916Y53509634D01*
X95456226Y53501299D01*
X95251172Y53479388D01*
X95152586Y53413431D01*
X95142301Y53272959D01*
X95202150Y53027501D01*
X95313964Y52646587D01*
X95382450Y52338731D01*
X95385081Y52205806D01*
X95394251Y51742598D01*
X95340823Y51304274D01*
X95921307Y51118323D01*
X96046394Y51081614D01*
X96573943Y50975567D01*
X97178758Y50911717D01*
X97801232Y50892507D01*
X98381760Y50920382D01*
X98860734Y50997786D01*
X98911479Y51014580D01*
X100016285Y51014580D01*
X100055159Y50835555D01*
X100183281Y50547065D01*
X100373737Y50220888D01*
X100598394Y49904423D01*
X100829120Y49645071D01*
X100861411Y49615475D01*
X101034373Y49456947D01*
X101208172Y49314430D01*
X101300605Y49259921D01*
X101324781Y49273225D01*
X101361774Y49401812D01*
X101369342Y49627322D01*
X101350055Y49900664D01*
X101306485Y50172744D01*
X101241200Y50394467D01*
X101188637Y50502329D01*
X101015688Y50777031D01*
X100809813Y51037816D01*
X100642526Y51216932D01*
X100519576Y51309537D01*
X100409765Y51312511D01*
X100261404Y51245423D01*
X100248836Y51238788D01*
X100083845Y51121244D01*
X100016285Y51014580D01*
X98911479Y51014580D01*
X99549863Y51225854D01*
X100242427Y51577732D01*
X100843518Y52017789D01*
X101328242Y52527509D01*
X101671702Y53088376D01*
X101750841Y53268753D01*
X101836862Y53510692D01*
X101885724Y53753678D01*
X101907146Y54053743D01*
X101910850Y54466921D01*
X101898638Y54884587D01*
X101809342Y55611903D01*
X101619897Y56291477D01*
X101314142Y56991691D01*
X101108952Y57357032D01*
X100634715Y57969373D01*
X100057503Y58451369D01*
X99369651Y58808749D01*
X98563494Y59047239D01*
X98512813Y59057870D01*
X98220887Y59121820D01*
X98009251Y59172733D01*
X97920758Y59200399D01*
X97918421Y59207970D01*
X97944004Y59319441D01*
X98015548Y59512754D01*
X98091637Y59724461D01*
X98188963Y60084112D01*
X98260580Y60452966D01*
X98296220Y60774748D01*
X98285618Y60993180D01*
X98224040Y61123261D01*
X98062191Y61197921D01*
X98033336Y61196024D01*
X97867667Y61091093D01*
X97745767Y60832140D01*
X97670515Y60428200D01*
X97644791Y59888307D01*
X97637851Y59573640D01*
X97615806Y59315729D01*
X97584881Y59186240D01*
X97551523Y59195188D01*
X97522177Y59352590D01*
X97503292Y59668463D01*
X97476753Y59971244D01*
X97373686Y60383344D01*
X97207983Y60698340D01*
X96994087Y60881815D01*
X96900934Y60915207D01*
X96724319Y60894701D01*
X96620447Y60725392D01*
X96586458Y60403930D01*
X96634474Y60067733D01*
X96812125Y59745875D01*
X96948948Y59557778D01*
X97060703Y59343233D01*
X97036425Y59203035D01*
X96865128Y59108806D01*
X96535828Y59032170D01*
X96179685Y58948198D01*
X95455747Y58658516D01*
X94817844Y58234210D01*
X94275214Y57687891D01*
X93837091Y57032170D01*
X93512711Y56279659D01*
X93311310Y55442967D01*
X93242124Y54534707D01*
X92956425Y54534707D01*
X92987645Y55135311D01*
X93163307Y56016252D01*
X93379428Y56669676D01*
X93765385Y57441269D01*
X94256309Y58095166D01*
X94843456Y58622243D01*
X95518082Y59013376D01*
X96271443Y59259441D01*
X96485270Y59306865D01*
X96691496Y59355941D01*
X96781143Y59382031D01*
X96778619Y59402553D01*
X96713970Y59525484D01*
X96590643Y59718143D01*
X96452200Y59980745D01*
X96369081Y60356814D01*
X96412460Y60707734D01*
X96582609Y60990103D01*
X96702112Y61102235D01*
X96849555Y61181814D01*
X96998989Y61142491D01*
X97209099Y60983661D01*
X97463732Y60769401D01*
X97575428Y61001752D01*
X97706808Y61187874D01*
X97914172Y61361370D01*
X98048735Y61428493D01*
X98176106Y61433276D01*
X98316339Y61330157D01*
X98414466Y61190948D01*
X98486312Y60876583D01*
X98470587Y60450203D01*
X98366571Y59931858D01*
X98319380Y59735268D01*
X98283787Y59525184D01*
X98287870Y59425953D01*
X98357340Y59396374D01*
X98553974Y59342009D01*
X98824541Y59281318D01*
X99311589Y59149809D01*
X100023182Y58823478D01*
X100645647Y58363495D01*
X101171816Y57780268D01*
X101594521Y57084207D01*
X101906595Y56285720D01*
X102100869Y55395215D01*
X102167051Y54466921D01*
X102170175Y54423100D01*
X102170705Y54167779D01*
X102164752Y53813404D01*
X102142794Y53555039D01*
X102096466Y53345539D01*
X102017405Y53137761D01*
X101897250Y52884563D01*
X101638103Y52447117D01*
X101161547Y51902142D01*
X100703052Y51483104D01*
X100959676Y51239346D01*
X101200010Y50955377D01*
X101417624Y50563779D01*
X101562176Y50141795D01*
X101624344Y49729133D01*
X101616073Y49627322D01*
X101594804Y49365495D01*
X101464233Y49090587D01*
G37*
D14*
%TO.C,MCU1*%
X49654791Y47111777D02*
X51654791Y47111777D01*
X49654791Y49911777D02*
X49654791Y47111777D01*
X52194791Y49911777D02*
X52194791Y47111777D01*
D10*
X44304791Y34983254D02*
X44304791Y52763254D01*
D14*
X47114791Y49911777D02*
X47114791Y47111777D01*
X52194791Y47111777D02*
X54194791Y47111777D01*
X51654791Y49911777D02*
X50984791Y49911777D01*
X54194791Y49911777D02*
X53509791Y49911777D01*
X54194791Y47111777D02*
X54194791Y49911777D01*
X47114791Y47111777D02*
X49114791Y47111777D01*
D10*
X77324791Y52763254D02*
X77324791Y34983254D01*
D14*
X52859791Y49911777D02*
X52194791Y49911777D01*
X47784791Y49911777D02*
X47114791Y49911777D01*
D10*
X44304791Y52763254D02*
X77324791Y52763254D01*
D14*
X49114791Y47111777D02*
X49114791Y49911777D01*
D10*
X77324791Y34983254D02*
X44304791Y34983254D01*
D14*
X50334791Y49911777D02*
X49654791Y49911777D01*
X51654791Y47111777D02*
X51654791Y49911777D01*
X49114791Y49911777D02*
X48434791Y49911777D01*
%TD*%
D15*
%TO.C,PAD1*%
X50908791Y107341254D03*
X48908791Y107341254D03*
X46908791Y107341254D03*
%TD*%
D16*
%TO.C,MCU1*%
X50654791Y36253254D03*
X53194791Y36253254D03*
X53194791Y51493254D03*
X48031045Y51493254D03*
X48114791Y36253254D03*
X50654791Y51493254D03*
X55734791Y51493254D03*
X58274791Y51493254D03*
X60814791Y51493254D03*
X63354791Y51493254D03*
X65894791Y51493254D03*
X68434791Y51493254D03*
X70974791Y51493254D03*
X73514791Y51493254D03*
X76054791Y51493254D03*
X55734791Y36253254D03*
X58274791Y36253254D03*
X60814791Y36253254D03*
X63354791Y36253254D03*
X65894791Y36253254D03*
X68434791Y36253254D03*
X70974791Y36253254D03*
X73514791Y36253254D03*
X76054791Y36253254D03*
%TD*%
%LPC*%
D17*
%TO.C,S17*%
X87910214Y109878158D03*
D18*
X97057255Y120064136D03*
D19*
X87080925Y113620120D03*
X98039067Y114578834D03*
D20*
X92559996Y114099477D03*
%TD*%
D17*
%TO.C,S15*%
X89491861Y91912848D03*
D18*
X98638902Y102098826D03*
D19*
X88662572Y95654810D03*
X99620714Y96613524D03*
D20*
X94141643Y96134167D03*
%TD*%
%TO.C,S5*%
X52522259Y81799963D03*
D19*
X57781935Y83408007D03*
X47262583Y80191919D03*
D18*
X55681120Y88569313D03*
D17*
X48851748Y76704146D03*
%TD*%
%TO.C,S11*%
X66742934Y100184557D03*
D18*
X74967401Y111128991D03*
D19*
X65590667Y103840002D03*
X76423553Y105750132D03*
D20*
X71007110Y104795067D03*
%TD*%
D17*
%TO.C,S21*%
X110424791Y83297254D03*
D18*
X120424791Y92647254D03*
D19*
X109924791Y87097254D03*
X120924791Y87097254D03*
D20*
X115424791Y87097254D03*
%TD*%
%TO.C,S29*%
X134099495Y94564491D03*
D19*
X139599495Y94564491D03*
X128599495Y94564491D03*
D18*
X139099495Y100114491D03*
D17*
X129099495Y90764491D03*
%TD*%
%TO.C,S33*%
X134046791Y41743254D03*
D18*
X144046791Y51093254D03*
D19*
X133546791Y45543254D03*
X144546791Y45543254D03*
D20*
X139046791Y45543254D03*
%TD*%
D17*
%TO.C,S7*%
X73026972Y64651093D03*
D18*
X81251439Y75595527D03*
D19*
X71874705Y68306538D03*
X82707591Y70216668D03*
D20*
X77291148Y69261603D03*
%TD*%
D17*
%TO.C,S27*%
X129099495Y72744491D03*
D18*
X139099495Y82094491D03*
D19*
X128599495Y76544491D03*
X139599495Y76544491D03*
D20*
X134099495Y76544491D03*
%TD*%
%TO.C,S9*%
X74139129Y87023335D03*
D19*
X79555572Y87978400D03*
X68722686Y86068270D03*
D18*
X78099420Y93357259D03*
D17*
X69874953Y82412825D03*
%TD*%
%TO.C,S13*%
X91053509Y73957538D03*
D18*
X100200550Y84143516D03*
D19*
X90224220Y77699500D03*
X101182362Y78658214D03*
D20*
X95703291Y78178857D03*
%TD*%
D17*
%TO.C,S31*%
X115321152Y44426273D03*
D18*
X125321152Y53776273D03*
D19*
X114821152Y48226273D03*
X125821152Y48226273D03*
D20*
X120321152Y48226273D03*
%TD*%
D17*
%TO.C,S3*%
X54142067Y59376965D03*
D18*
X60971439Y71242132D03*
D19*
X52552902Y62864738D03*
X63072254Y66080826D03*
D20*
X57812578Y64472782D03*
%TD*%
D17*
%TO.C,S23*%
X110424791Y101327254D03*
D18*
X120424791Y110677254D03*
D19*
X109924791Y105127254D03*
X120924791Y105127254D03*
D20*
X115424791Y105127254D03*
%TD*%
D17*
%TO.C,S19*%
X110424791Y65277254D03*
D18*
X120424791Y74627254D03*
D19*
X109924791Y69077254D03*
X120924791Y69077254D03*
D20*
X115424791Y69077254D03*
%TD*%
D18*
%TO.C,B1*%
X81896791Y45365254D03*
X81896791Y51865254D03*
%TD*%
D21*
%TO.C,*%
X141078791Y61367254D03*
%TD*%
D22*
%TO.C,T2*%
X55089406Y120708838D03*
X47689406Y120708838D03*
X55089406Y118508838D03*
X47689406Y118508838D03*
D23*
X49889406Y119608838D03*
X52889406Y119608838D03*
D24*
X49139406Y117533838D03*
X52139406Y117533838D03*
X53639406Y117533838D03*
%TD*%
D21*
%TO.C,*%
X47860791Y58573254D03*
%TD*%
D25*
%TO.C,PAD1*%
X50908791Y107341254D03*
X48908791Y107341254D03*
X46908791Y107341254D03*
%TD*%
D21*
%TO.C,*%
X140824791Y115215254D03*
%TD*%
%TO.C,*%
X61830791Y117247254D03*
%TD*%
D26*
%TO.C,REF\u002A\u002A*%
X102762791Y107797040D03*
X104756791Y69749254D03*
X84735898Y87776147D03*
%TD*%
D27*
%TO.C,MCU1*%
X50654791Y36253254D03*
D28*
X50654791Y49236777D03*
X48114791Y49236777D03*
D29*
X53194791Y50161777D03*
D27*
X53194791Y36253254D03*
X53194791Y51493254D03*
D29*
X48114791Y50161777D03*
D28*
X53194791Y49236777D03*
D29*
X50654791Y50161777D03*
D27*
X48031045Y51493254D03*
X48114791Y36253254D03*
X50654791Y51493254D03*
D30*
X48114791Y47786777D03*
X50654791Y47786777D03*
X53194791Y47786777D03*
D27*
X55734791Y51493254D03*
X58274791Y51493254D03*
X60814791Y51493254D03*
X63354791Y51493254D03*
X65894791Y51493254D03*
X68434791Y51493254D03*
X70974791Y51493254D03*
X73514791Y51493254D03*
X76054791Y51493254D03*
X55734791Y36253254D03*
X58274791Y36253254D03*
X60814791Y36253254D03*
X63354791Y36253254D03*
X65894791Y36253254D03*
X68434791Y36253254D03*
X70974791Y36253254D03*
X73514791Y36253254D03*
X76054791Y36253254D03*
%TD*%
M02*
