%TF.GenerationSoftware,KiCad,Pcbnew,(6.0.4-0)*%
%TF.CreationDate,2022-07-26T10:13:53+02:00*%
%TF.ProjectId,wizza,77697a7a-612e-46b6-9963-61645f706362,v1.0.0*%
%TF.SameCoordinates,Original*%
%TF.FileFunction,Legend,Top*%
%TF.FilePolarity,Positive*%
%FSLAX46Y46*%
G04 Gerber Fmt 4.6, Leading zero omitted, Abs format (unit mm)*
G04 Created by KiCad (PCBNEW (6.0.4-0)) date 2022-07-26 10:13:53*
%MOMM*%
%LPD*%
G01*
G04 APERTURE LIST*
G04 Aperture macros list*
%AMRoundRect*
0 Rectangle with rounded corners*
0 $1 Rounding radius*
0 $2 $3 $4 $5 $6 $7 $8 $9 X,Y pos of 4 corners*
0 Add a 4 corners polygon primitive as box body*
4,1,4,$2,$3,$4,$5,$6,$7,$8,$9,$2,$3,0*
0 Add four circle primitives for the rounded corners*
1,1,$1+$1,$2,$3*
1,1,$1+$1,$4,$5*
1,1,$1+$1,$6,$7*
1,1,$1+$1,$8,$9*
0 Add four rect primitives between the rounded corners*
20,1,$1+$1,$2,$3,$4,$5,0*
20,1,$1+$1,$4,$5,$6,$7,0*
20,1,$1+$1,$6,$7,$8,$9,0*
20,1,$1+$1,$8,$9,$2,$3,0*%
%AMFreePoly0*
4,1,16,0.685355,0.785355,0.700000,0.750000,0.691603,0.722265,0.210093,0.000000,0.691603,-0.722265,0.699029,-0.759806,0.677735,-0.791603,0.650000,-0.800000,-0.500000,-0.800000,-0.535355,-0.785355,-0.550000,-0.750000,-0.550000,0.750000,-0.535355,0.785355,-0.500000,0.800000,0.650000,0.800000,0.685355,0.785355,0.685355,0.785355,$1*%
%AMFreePoly1*
4,1,16,0.535355,0.785355,0.550000,0.750000,0.550000,-0.750000,0.535355,-0.785355,0.500000,-0.800000,-0.500000,-0.800000,-0.535355,-0.785355,-0.541603,-0.777735,-1.041603,-0.027735,-1.049029,0.009806,-1.041603,0.027735,-0.541603,0.777735,-0.509806,0.799029,-0.500000,0.800000,0.500000,0.800000,0.535355,0.785355,0.535355,0.785355,$1*%
G04 Aperture macros list end*
%ADD10C,0.150000*%
%ADD11C,0.100000*%
%ADD12C,0.200000*%
%ADD13C,0.010000*%
%ADD14C,0.120000*%
%ADD15C,2.000000*%
%ADD16RoundRect,0.375000X-0.375000X-0.750000X0.375000X-0.750000X0.375000X0.750000X-0.375000X0.750000X0*%
%ADD17C,1.752600*%
%ADD18C,2.300000*%
%ADD19C,1.801800*%
%ADD20C,2.100000*%
%ADD21C,4.900000*%
%ADD22RoundRect,0.050000X-0.450000X-0.450000X0.450000X-0.450000X0.450000X0.450000X-0.450000X0.450000X0*%
%ADD23RoundRect,0.050000X-0.450000X-0.625000X0.450000X-0.625000X0.450000X0.625000X-0.450000X0.625000X0*%
%ADD24C,5.100000*%
%ADD25C,1.100000*%
%ADD26RoundRect,0.425000X-0.375000X-0.750000X0.375000X-0.750000X0.375000X0.750000X-0.375000X0.750000X0*%
%ADD27C,4.500000*%
%ADD28C,1.852600*%
%ADD29FreePoly0,90.000000*%
%ADD30RoundRect,0.050000X-0.250000X-0.762000X0.250000X-0.762000X0.250000X0.762000X-0.250000X0.762000X0*%
%ADD31FreePoly1,90.000000*%
G04 APERTURE END LIST*
D10*
%TO.C,B1*%
X82349171Y47162873D02*
X81872981Y46829539D01*
X82349171Y46591444D02*
X81349171Y46591444D01*
X81349171Y46972396D01*
X81396791Y47067634D01*
X81444410Y47115254D01*
X81539648Y47162873D01*
X81682505Y47162873D01*
X81777743Y47115254D01*
X81825362Y47067634D01*
X81872981Y46972396D01*
X81872981Y46591444D01*
X81825362Y47591444D02*
X81825362Y47924777D01*
X82349171Y48067634D02*
X82349171Y47591444D01*
X81349171Y47591444D01*
X81349171Y48067634D01*
X82301552Y48448587D02*
X82349171Y48591444D01*
X82349171Y48829539D01*
X82301552Y48924777D01*
X82253933Y48972396D01*
X82158695Y49020015D01*
X82063457Y49020015D01*
X81968219Y48972396D01*
X81920600Y48924777D01*
X81872981Y48829539D01*
X81825362Y48639063D01*
X81777743Y48543825D01*
X81730124Y48496206D01*
X81634886Y48448587D01*
X81539648Y48448587D01*
X81444410Y48496206D01*
X81396791Y48543825D01*
X81349171Y48639063D01*
X81349171Y48877158D01*
X81396791Y49020015D01*
X81825362Y49448587D02*
X81825362Y49781920D01*
X82349171Y49924777D02*
X82349171Y49448587D01*
X81349171Y49448587D01*
X81349171Y49924777D01*
X81349171Y50210492D02*
X81349171Y50781920D01*
X82349171Y50496206D02*
X81349171Y50496206D01*
%TO.C,*%
%TO.C,PAD1*%
X48470695Y105598396D02*
X48584981Y105560301D01*
X48623076Y105522206D01*
X48661171Y105446015D01*
X48661171Y105331730D01*
X48623076Y105255539D01*
X48584981Y105217444D01*
X48508791Y105179349D01*
X48204029Y105179349D01*
X48204029Y105979349D01*
X48470695Y105979349D01*
X48546886Y105941254D01*
X48584981Y105903158D01*
X48623076Y105826968D01*
X48623076Y105750777D01*
X48584981Y105674587D01*
X48546886Y105636492D01*
X48470695Y105598396D01*
X48204029Y105598396D01*
X49004029Y105484111D02*
X49613552Y105484111D01*
X46470695Y105598396D02*
X46584981Y105560301D01*
X46623076Y105522206D01*
X46661171Y105446015D01*
X46661171Y105331730D01*
X46623076Y105255539D01*
X46584981Y105217444D01*
X46508791Y105179349D01*
X46204029Y105179349D01*
X46204029Y105979349D01*
X46470695Y105979349D01*
X46546886Y105941254D01*
X46584981Y105903158D01*
X46623076Y105826968D01*
X46623076Y105750777D01*
X46584981Y105674587D01*
X46546886Y105636492D01*
X46470695Y105598396D01*
X46204029Y105598396D01*
X47004029Y105484111D02*
X47613552Y105484111D01*
X47308791Y105179349D02*
X47308791Y105788873D01*
X50470695Y105598396D02*
X50584981Y105560301D01*
X50623076Y105522206D01*
X50661171Y105446015D01*
X50661171Y105331730D01*
X50623076Y105255539D01*
X50584981Y105217444D01*
X50508791Y105179349D01*
X50204029Y105179349D01*
X50204029Y105979349D01*
X50470695Y105979349D01*
X50546886Y105941254D01*
X50584981Y105903158D01*
X50623076Y105826968D01*
X50623076Y105750777D01*
X50584981Y105674587D01*
X50546886Y105636492D01*
X50470695Y105598396D01*
X50204029Y105598396D01*
X51004029Y105484111D02*
X51613552Y105484111D01*
X51308791Y105179349D02*
X51308791Y105788873D01*
%TO.C,*%
D11*
%TO.C,REF\u002A\u002A*%
X103845319Y79406787D02*
X103825382Y79787217D01*
X103504966Y79532003D02*
X104360934Y79576862D01*
X104453550Y79629400D01*
X104496119Y79727000D01*
X104491135Y79822108D01*
X104406198Y80532922D02*
X104458736Y80440307D01*
X104468705Y80250092D01*
X104426136Y80152492D01*
X104333520Y80099954D01*
X103953090Y80080016D01*
X103855490Y80122586D01*
X103802952Y80215201D01*
X103792983Y80405416D01*
X103835553Y80503016D01*
X103928168Y80555554D01*
X104023276Y80560539D01*
X104143305Y80089985D01*
X103763077Y80976062D02*
X104428830Y81010952D01*
X103858185Y80981046D02*
X103808139Y81026108D01*
X103755601Y81118723D01*
X103748124Y81261385D01*
X103790693Y81358984D01*
X103883309Y81411522D01*
X104406400Y81438937D01*
X103723202Y81736922D02*
X103703265Y82117353D01*
X103382849Y81862138D02*
X104238817Y81906998D01*
X104331433Y81959536D01*
X104374002Y82057136D01*
X104369018Y82152243D01*
X104351572Y82485120D02*
X103685819Y82450229D01*
X103352943Y82432784D02*
X103402989Y82387722D01*
X103448050Y82437768D01*
X103398004Y82482830D01*
X103352943Y82432784D01*
X103448050Y82437768D01*
X103660897Y82925767D02*
X104326650Y82960658D01*
X103756005Y82930751D02*
X103705959Y82975813D01*
X103653421Y83068428D01*
X103645944Y83211090D01*
X103688514Y83308690D01*
X103781129Y83361228D01*
X104304221Y83388642D01*
X103591116Y84257273D02*
X104399531Y84299640D01*
X104497130Y84257071D01*
X104547176Y84212009D01*
X104599714Y84119394D01*
X104607191Y83976733D01*
X104564622Y83879133D01*
X104209315Y84289672D02*
X104261854Y84197056D01*
X104271822Y84006841D01*
X104229253Y83909241D01*
X104184191Y83859195D01*
X104091576Y83806657D01*
X103806253Y83791704D01*
X103708653Y83834273D01*
X103658607Y83879335D01*
X103606069Y83971950D01*
X103596101Y84162166D01*
X103638670Y84259765D01*
X103054933Y93274926D02*
X104053563Y93327262D01*
X103102487Y93277419D02*
X103049949Y93370034D01*
X103039980Y93560249D01*
X103082550Y93657849D01*
X103127611Y93707895D01*
X103220227Y93760433D01*
X103505549Y93775386D01*
X103603149Y93732817D01*
X103653195Y93687755D01*
X103705733Y93595140D01*
X103715702Y93404925D01*
X103673133Y93307325D01*
X102985152Y94606432D02*
X103650905Y94641323D01*
X103007582Y94178448D02*
X103530673Y94205862D01*
X103623289Y94258401D01*
X103665858Y94356000D01*
X103658382Y94498662D01*
X103605844Y94591277D01*
X103555798Y94636339D01*
X103556000Y95542353D02*
X103608538Y95449737D01*
X103618507Y95259522D01*
X103575937Y95161923D01*
X103530876Y95111877D01*
X103438260Y95059338D01*
X103152938Y95044385D01*
X103055338Y95086955D01*
X103005292Y95132016D01*
X102952754Y95224632D01*
X102942785Y95414847D01*
X102985354Y95512447D01*
X103581124Y95972829D02*
X102582494Y95920493D01*
X103195709Y96047999D02*
X103561186Y96353259D01*
X102895433Y96318369D02*
X103295801Y95957876D01*
D10*
%TO.C,MCU1*%
X48511068Y41768669D02*
X48130116Y41502002D01*
X48511068Y41311526D02*
X47711068Y41311526D01*
X47711068Y41616288D01*
X47749164Y41692478D01*
X47787259Y41730573D01*
X47863449Y41768669D01*
X47977735Y41768669D01*
X48053925Y41730573D01*
X48092021Y41692478D01*
X48130116Y41616288D01*
X48130116Y41311526D01*
X48282497Y42073430D02*
X48282497Y42454383D01*
X48511068Y41997240D02*
X47711068Y42263907D01*
X48511068Y42530573D01*
X47711068Y42721050D02*
X48511068Y42911526D01*
X47939640Y43063907D01*
X48511068Y43216288D01*
X47711068Y43406764D01*
X53548636Y41805932D02*
X53167684Y41539266D01*
X53548636Y41348789D02*
X52748636Y41348789D01*
X52748636Y41653551D01*
X52786732Y41729742D01*
X52824827Y41767837D01*
X52901017Y41805932D01*
X53015303Y41805932D01*
X53091493Y41767837D01*
X53129589Y41729742D01*
X53167684Y41653551D01*
X53167684Y41348789D01*
X53510541Y42110694D02*
X53548636Y42224980D01*
X53548636Y42415456D01*
X53510541Y42491647D01*
X53472446Y42529742D01*
X53396255Y42567837D01*
X53320065Y42567837D01*
X53243874Y42529742D01*
X53205779Y42491647D01*
X53167684Y42415456D01*
X53129589Y42263075D01*
X53091493Y42186885D01*
X53053398Y42148789D01*
X52977208Y42110694D01*
X52901017Y42110694D01*
X52824827Y42148789D01*
X52786732Y42186885D01*
X52748636Y42263075D01*
X52748636Y42453551D01*
X52786732Y42567837D01*
X52748636Y42796408D02*
X52748636Y43253551D01*
X53548636Y43024980D02*
X52748636Y43024980D01*
X50246732Y41748789D02*
X50208636Y41672598D01*
X50208636Y41558313D01*
X50246732Y41444027D01*
X50322922Y41367836D01*
X50399112Y41329741D01*
X50551493Y41291646D01*
X50665779Y41291646D01*
X50818160Y41329741D01*
X50894351Y41367836D01*
X50970541Y41444027D01*
X51008636Y41558313D01*
X51008636Y41634503D01*
X50970541Y41748789D01*
X50932446Y41786884D01*
X50665779Y41786884D01*
X50665779Y41634503D01*
X51008636Y42129741D02*
X50208636Y42129741D01*
X51008636Y42586884D01*
X50208636Y42586884D01*
X51008636Y42967836D02*
X50208636Y42967836D01*
X50208636Y43158313D01*
X50246732Y43272598D01*
X50322922Y43348789D01*
X50399112Y43386884D01*
X50551493Y43424979D01*
X50665779Y43424979D01*
X50818160Y43386884D01*
X50894351Y43348789D01*
X50970541Y43272598D01*
X51008636Y43158313D01*
X51008636Y42967836D01*
%TO.C,B1*%
X83646791Y51615254D02*
X83646791Y45615254D01*
X80146791Y51615254D02*
X80146791Y45615254D01*
X83646791Y45615254D02*
X83396791Y45615254D01*
X80146791Y51615254D02*
X80396791Y51615254D01*
X80146791Y45615254D02*
X80396791Y45615254D01*
X83646791Y51615254D02*
X83396791Y51615254D01*
%TO.C,T1*%
X48089406Y120958838D02*
X48089406Y118108838D01*
X53339406Y120958838D02*
X49439406Y120958838D01*
X48089406Y118108838D02*
X54689406Y118108838D01*
X51389406Y120958838D02*
X54689406Y120958838D01*
X54689406Y118108838D02*
X54689406Y120958838D01*
X51389406Y120958838D02*
X48089406Y120958838D01*
%TO.C,G\u002A\u002A\u002A*%
G36*
X96548769Y51916693D02*
G01*
X96405046Y51986068D01*
X96071849Y52161485D01*
X95876390Y52299170D01*
X95796207Y52416253D01*
X95795437Y52422093D01*
X95971676Y52422093D01*
X95988101Y52401210D01*
X96168529Y52306350D01*
X96478794Y52228443D01*
X96880033Y52169837D01*
X97333380Y52132882D01*
X97799971Y52119924D01*
X98240942Y52133314D01*
X98617428Y52175398D01*
X98839213Y52228933D01*
X99066563Y52338527D01*
X99125263Y52453746D01*
X99015852Y52573289D01*
X98738871Y52695852D01*
X98630869Y52730683D01*
X98329356Y52840577D01*
X98072381Y52965621D01*
X97948079Y53051658D01*
X97686468Y53198637D01*
X97401413Y53181437D01*
X97174404Y53053918D01*
X96971575Y52935354D01*
X96684543Y52814259D01*
X96509192Y52756473D01*
X96179178Y52639529D01*
X95996898Y52525950D01*
X95971676Y52422093D01*
X95795437Y52422093D01*
X95791213Y52454114D01*
X95870313Y52641197D01*
X96085454Y52802174D01*
X96403391Y52915079D01*
X96523091Y52937724D01*
X96819227Y53026045D01*
X97099819Y53173993D01*
X97119063Y53187854D01*
X97417341Y53352947D01*
X97684738Y53362645D01*
X97958727Y53216474D01*
X98007986Y53176654D01*
X98219951Y53036549D01*
X98416467Y52965305D01*
X98443542Y52963128D01*
X98631143Y52927601D01*
X98887293Y52840321D01*
X98993454Y52795214D01*
X99223865Y52672121D01*
X99324025Y52558230D01*
X99332121Y52445887D01*
X99256264Y52268866D01*
X99177879Y52197204D01*
X98776550Y51996716D01*
X98470488Y51864649D01*
X98208234Y51784897D01*
X97938327Y51741354D01*
X97653879Y51720212D01*
X97317799Y51709037D01*
X97067688Y51728245D01*
X96834395Y51792557D01*
X96774776Y51818468D01*
X97338590Y51818468D01*
X97444964Y51805184D01*
X97569213Y51802714D01*
X97752334Y51809319D01*
X97802603Y51826205D01*
X97759713Y51839406D01*
X97512995Y51853413D01*
X97378713Y51839406D01*
X97338590Y51818468D01*
X96774776Y51818468D01*
X96622697Y51884563D01*
X96928601Y51884563D01*
X97011824Y51871005D01*
X97121638Y51886571D01*
X97122949Y51915473D01*
X97009632Y51935685D01*
X96960671Y51922157D01*
X96928601Y51884563D01*
X96622697Y51884563D01*
X96548769Y51916693D01*
G37*
G36*
X98161879Y47608299D02*
G01*
X98308086Y47757655D01*
X98331483Y47861449D01*
X98220559Y47926699D01*
X97963803Y47960423D01*
X97569213Y47969654D01*
X97233654Y47962297D01*
X96973489Y47942592D01*
X96826488Y47914084D01*
X96807213Y47898109D01*
X96863825Y47793600D01*
X96976546Y47673320D01*
X97111933Y47506152D01*
X97141779Y47370993D01*
X97065485Y47307066D01*
X96982014Y47315423D01*
X96825406Y47300589D01*
X96773004Y47240631D01*
X96671502Y47131810D01*
X96550759Y47166937D01*
X96499759Y47248437D01*
X96419632Y47328949D01*
X96296315Y47290770D01*
X96127485Y47217066D01*
X96057445Y47253272D01*
X96045213Y47376270D01*
X96086519Y47485062D01*
X96247582Y47485062D01*
X96342131Y47490412D01*
X96413825Y47536040D01*
X96513965Y47579159D01*
X96581750Y47478828D01*
X96594179Y47442272D01*
X96645149Y47319966D01*
X96682189Y47352612D01*
X96694491Y47393461D01*
X96789057Y47497378D01*
X96876017Y47491413D01*
X96947771Y47484640D01*
X96886176Y47559575D01*
X96838576Y47601939D01*
X96687431Y47762606D01*
X96612427Y47884987D01*
X96574389Y47957700D01*
X96559897Y47866799D01*
X96486289Y47715721D01*
X96376628Y47627106D01*
X96258972Y47538333D01*
X96247582Y47485062D01*
X96086519Y47485062D01*
X96111804Y47551659D01*
X96214546Y47650636D01*
X96358777Y47776698D01*
X96346809Y47883427D01*
X96173923Y47977232D01*
X95923685Y48045695D01*
X95470332Y48229968D01*
X95098315Y48547809D01*
X94834887Y48972320D01*
X94757500Y49196673D01*
X94656230Y49575311D01*
X94440555Y49438221D01*
X94226473Y49271191D01*
X94034699Y49079892D01*
X93844518Y48858654D01*
X93665104Y49070320D01*
X93534533Y49345228D01*
X93513264Y49607055D01*
X93759995Y49607055D01*
X93767563Y49381545D01*
X93804556Y49252958D01*
X93828732Y49239654D01*
X93921165Y49294163D01*
X94094964Y49436680D01*
X94267926Y49595208D01*
X94958075Y49595208D01*
X95040017Y49215462D01*
X95141292Y48978902D01*
X95318852Y48707165D01*
X95542676Y48498370D01*
X95833727Y48346419D01*
X96212965Y48245216D01*
X96701352Y48188663D01*
X97319849Y48170662D01*
X97891011Y48179046D01*
X98373591Y48195871D01*
X98725151Y48219503D01*
X98984000Y48255680D01*
X99188449Y48310137D01*
X99376806Y48388611D01*
X99415011Y48407243D01*
X99788712Y48682661D01*
X100061287Y49071473D01*
X100220691Y49543067D01*
X100254880Y50066830D01*
X100205320Y50416023D01*
X100120299Y50723903D01*
X100012097Y50901455D01*
X99845836Y50965233D01*
X99586637Y50931790D01*
X99294975Y50848067D01*
X98618321Y50693028D01*
X97861873Y50615507D01*
X97097962Y50618646D01*
X96398918Y50705590D01*
X96333762Y50719369D01*
X95999866Y50798470D01*
X95718211Y50874757D01*
X95539950Y50934145D01*
X95519599Y50943589D01*
X95417616Y50965645D01*
X95345873Y50877142D01*
X95288498Y50698615D01*
X95198447Y50441541D01*
X95090907Y50231808D01*
X95075970Y50210704D01*
X94969110Y49944877D01*
X94958075Y49595208D01*
X94267926Y49595208D01*
X94300217Y49624804D01*
X94530943Y49884156D01*
X94755600Y50200621D01*
X94946056Y50526798D01*
X95074178Y50815288D01*
X95113052Y50994313D01*
X95045492Y51100977D01*
X94880501Y51218521D01*
X94867933Y51225156D01*
X94719572Y51292244D01*
X94609761Y51289270D01*
X94486811Y51196665D01*
X94319524Y51017549D01*
X94113649Y50756764D01*
X93940700Y50482062D01*
X93888137Y50374200D01*
X93822852Y50152477D01*
X93779282Y49880397D01*
X93759995Y49607055D01*
X93513264Y49607055D01*
X93504993Y49708866D01*
X93567161Y50121528D01*
X93711713Y50543512D01*
X93929327Y50935110D01*
X94169661Y51219079D01*
X94426285Y51462837D01*
X93967790Y51881875D01*
X93491234Y52426850D01*
X93232087Y52864296D01*
X93111932Y53117494D01*
X93032871Y53325272D01*
X92986543Y53534772D01*
X92964585Y53793137D01*
X92958632Y54147512D01*
X92959162Y54402833D01*
X92962286Y54446654D01*
X93218487Y54446654D01*
X93222191Y54033476D01*
X93243613Y53733411D01*
X93292475Y53490425D01*
X93378496Y53248486D01*
X93457635Y53068109D01*
X93801095Y52507242D01*
X94285819Y51997522D01*
X94886910Y51557465D01*
X95579474Y51205587D01*
X96268603Y50977519D01*
X96747577Y50900115D01*
X97328105Y50872240D01*
X97950579Y50891450D01*
X98555394Y50955300D01*
X99082943Y51061347D01*
X99208030Y51098056D01*
X99788514Y51284007D01*
X99735086Y51722331D01*
X99744256Y52185539D01*
X99990672Y52185539D01*
X99992501Y51782998D01*
X100039959Y51422246D01*
X100132566Y51162198D01*
X100139925Y51150507D01*
X100292934Y50916987D01*
X100491075Y51103131D01*
X100630921Y51299036D01*
X100751748Y51575222D01*
X100786655Y51695444D01*
X100841512Y52251404D01*
X100749052Y52794589D01*
X100572472Y53188590D01*
X100449038Y53379701D01*
X100377998Y53438971D01*
X100331438Y53383641D01*
X100317637Y53345987D01*
X100244234Y53155290D01*
X100140033Y52911839D01*
X100125823Y52880320D01*
X100034953Y52570952D01*
X99990672Y52185539D01*
X99744256Y52185539D01*
X99746887Y52318464D01*
X99815373Y52626320D01*
X99927187Y53007234D01*
X99987036Y53252692D01*
X99976751Y53393164D01*
X99878165Y53459121D01*
X99673111Y53481032D01*
X99343421Y53489367D01*
X99299977Y53490723D01*
X98556979Y53515320D01*
X98210153Y54361987D01*
X97863326Y55208654D01*
X97202782Y55208654D01*
X96509034Y53515320D01*
X95656978Y53491356D01*
X94804921Y53467391D01*
X94450280Y54407795D01*
X94316270Y54782398D01*
X94215350Y55102374D01*
X94157496Y55333216D01*
X94152063Y55439495D01*
X94230403Y55463925D01*
X94435760Y55481601D01*
X94775234Y55492593D01*
X95255926Y55496967D01*
X95884938Y55494792D01*
X96669369Y55486136D01*
X97557411Y55472105D01*
X98293401Y55458373D01*
X98975168Y55444047D01*
X99584444Y55429630D01*
X100102957Y55415626D01*
X100512437Y55402541D01*
X100794615Y55390878D01*
X100931219Y55381143D01*
X100941077Y55378678D01*
X100929423Y55289420D01*
X100870066Y55076958D01*
X100773609Y54777069D01*
X100696799Y54554360D01*
X100417780Y53764784D01*
X100642522Y53540041D01*
X100804303Y53310373D01*
X100951922Y52982470D01*
X101009967Y52802026D01*
X101152669Y52288752D01*
X101365188Y52601502D01*
X101627804Y53058889D01*
X101792290Y53534598D01*
X101872948Y54081040D01*
X101887213Y54514440D01*
X101818027Y55422700D01*
X101616626Y56259392D01*
X101292246Y57011903D01*
X100854123Y57667624D01*
X100311493Y58213943D01*
X99673590Y58638249D01*
X98949652Y58927931D01*
X98593509Y59011903D01*
X98264209Y59088539D01*
X98092912Y59182768D01*
X98068634Y59322966D01*
X98180389Y59537511D01*
X98317212Y59725608D01*
X98494863Y60047466D01*
X98542879Y60383663D01*
X98508890Y60705125D01*
X98405018Y60874434D01*
X98228403Y60894940D01*
X98135250Y60861548D01*
X97921354Y60678073D01*
X97755651Y60363077D01*
X97652584Y59950977D01*
X97626045Y59648196D01*
X97607160Y59332323D01*
X97577814Y59174921D01*
X97544456Y59165973D01*
X97513531Y59295462D01*
X97491486Y59553373D01*
X97484546Y59868040D01*
X97458822Y60407933D01*
X97383570Y60811873D01*
X97261670Y61070826D01*
X97096001Y61175757D01*
X97067146Y61177654D01*
X96905297Y61102994D01*
X96843719Y60972913D01*
X96833117Y60754481D01*
X96868757Y60432699D01*
X96940374Y60063845D01*
X97037700Y59704194D01*
X97113789Y59492487D01*
X97185333Y59299174D01*
X97210916Y59187703D01*
X97208579Y59180132D01*
X97120086Y59152466D01*
X96908450Y59101553D01*
X96616524Y59037603D01*
X96565843Y59026972D01*
X95759686Y58788482D01*
X95071834Y58431102D01*
X94494622Y57949106D01*
X94020385Y57336765D01*
X93815195Y56971424D01*
X93509440Y56271210D01*
X93319995Y55591636D01*
X93230699Y54864320D01*
X93218487Y54446654D01*
X92962286Y54446654D01*
X93028468Y55374948D01*
X93222742Y56265453D01*
X93534816Y57063940D01*
X93957521Y57760001D01*
X94483690Y58343228D01*
X95106155Y58803211D01*
X95817748Y59129542D01*
X96304796Y59261051D01*
X96575363Y59321742D01*
X96771997Y59376107D01*
X96841467Y59405686D01*
X96845550Y59504917D01*
X96809957Y59715001D01*
X96762766Y59911591D01*
X96658750Y60429936D01*
X96643025Y60856316D01*
X96714871Y61170681D01*
X96812998Y61309890D01*
X96953231Y61413009D01*
X97080602Y61408226D01*
X97215165Y61341103D01*
X97422529Y61167607D01*
X97553909Y60981485D01*
X97665605Y60749134D01*
X97920238Y60963394D01*
X98130348Y61122224D01*
X98279782Y61161547D01*
X98427225Y61081968D01*
X98546728Y60969836D01*
X98716877Y60687467D01*
X98760256Y60336547D01*
X98677137Y59960478D01*
X98538694Y59697876D01*
X98415367Y59505217D01*
X98350718Y59382286D01*
X98348194Y59361764D01*
X98437841Y59335674D01*
X98644067Y59286598D01*
X98857894Y59239174D01*
X99611255Y58993109D01*
X100285881Y58601976D01*
X100873028Y58074899D01*
X101363952Y57421002D01*
X101749909Y56649409D01*
X101966030Y55995985D01*
X102141692Y55115044D01*
X102184236Y54296592D01*
X102095634Y53552261D01*
X101877859Y52893682D01*
X101532884Y52332485D01*
X101302099Y52081313D01*
X101138043Y51890413D01*
X101047054Y51716705D01*
X101040546Y51675774D01*
X100998536Y51481177D01*
X100894448Y51237357D01*
X100761198Y51006396D01*
X100631701Y50850379D01*
X100588360Y50822876D01*
X100527411Y50757568D01*
X100491282Y50600216D01*
X100475976Y50322691D01*
X100475643Y50029267D01*
X100471138Y49621245D01*
X100441201Y49324827D01*
X100376732Y49083073D01*
X100293457Y48889272D01*
X100003762Y48476848D01*
X99603291Y48176616D01*
X99126718Y48014364D01*
X99114379Y48012339D01*
X98857847Y47941938D01*
X98763379Y47841719D01*
X98833540Y47716551D01*
X98923879Y47650636D01*
X99059270Y47514969D01*
X99083820Y47380177D01*
X98995056Y47298624D01*
X98940813Y47292320D01*
X98749260Y47236071D01*
X98681113Y47186487D01*
X98576675Y47131602D01*
X98471494Y47219447D01*
X98460641Y47233887D01*
X98349554Y47326796D01*
X98292010Y47297387D01*
X98175153Y47214299D01*
X98048354Y47232750D01*
X97992546Y47335483D01*
X98028577Y47424982D01*
X98199247Y47424982D01*
X98213652Y47415187D01*
X98275906Y47460216D01*
X98405566Y47533294D01*
X98492315Y47471902D01*
X98527002Y47415321D01*
X98601868Y47305825D01*
X98639153Y47342268D01*
X98651112Y47393461D01*
X98737166Y47498525D01*
X98823350Y47494534D01*
X98882221Y47496602D01*
X98795046Y47579603D01*
X98775713Y47594221D01*
X98631970Y47745590D01*
X98578528Y47874147D01*
X98564475Y47962517D01*
X98525681Y47885705D01*
X98525419Y47884987D01*
X98439084Y47732751D01*
X98299269Y47548883D01*
X98199247Y47424982D01*
X98028577Y47424982D01*
X98052297Y47483901D01*
X98161879Y47608299D01*
G37*
D12*
%TO.C,REF\u002A\u002A*%
X103194824Y99553353D02*
G75*
G03*
X102071081Y99435243I564957J-10780127D01*
G01*
X83617189Y84856096D02*
G75*
G03*
X84866861Y80765346I20142556J3917039D01*
G01*
X104324758Y99553352D02*
G75*
G03*
X103194824Y99553353I-564972J-10780105D01*
G01*
X107676842Y68630546D02*
G75*
G03*
X111767592Y69880217I-3917052J20142597D01*
G01*
X84133315Y94762232D02*
G75*
G03*
X83318089Y90563264I19626459J-5989082D01*
G01*
X97770708Y69146671D02*
G75*
G03*
X101969674Y68331445I5989083J19626476D01*
G01*
X104324758Y77992940D02*
G75*
G03*
X105448501Y78111051I-564962J10780107D01*
G01*
X109748875Y108399623D02*
G75*
G03*
X105549908Y109214849I-5989084J-19626476D01*
G01*
X123386268Y82784064D02*
G75*
G03*
X124201493Y86983030I-19626528J5989092D01*
G01*
X99842740Y108915749D02*
G75*
G03*
X95751989Y107666077I3917046J-20142585D01*
G01*
X103194824Y77992941D02*
G75*
G03*
X104324758Y77992941I564965J10780127D01*
G01*
X123902392Y92690198D02*
G75*
G03*
X122652722Y96780946I-20142662J-3917070D01*
G01*
G36*
X103699204Y74261691D02*
G01*
X103723072Y74240047D01*
X103759364Y74206369D01*
X103805984Y74162657D01*
X103860835Y74110911D01*
X103921821Y74053130D01*
X103986845Y73991313D01*
X104053811Y73927460D01*
X104120621Y73863571D01*
X104185181Y73801646D01*
X104245393Y73743683D01*
X104299160Y73691683D01*
X104344387Y73647644D01*
X104378976Y73613568D01*
X104400831Y73591452D01*
X104403262Y73588885D01*
X104433284Y73556777D01*
X103814120Y73524328D01*
X103631793Y73691084D01*
X103575259Y73742939D01*
X103522349Y73791750D01*
X103476229Y73834575D01*
X103440059Y73868474D01*
X103417006Y73890507D01*
X103413651Y73893828D01*
X103377836Y73929818D01*
X103530207Y74099369D01*
X103577263Y74151358D01*
X103619159Y74196938D01*
X103653440Y74233495D01*
X103677651Y74258416D01*
X103689337Y74269090D01*
X103689858Y74269301D01*
X103699204Y74261691D01*
G37*
D13*
X103699204Y74261691D02*
X103723072Y74240047D01*
X103759364Y74206369D01*
X103805984Y74162657D01*
X103860835Y74110911D01*
X103921821Y74053130D01*
X103986845Y73991313D01*
X104053811Y73927460D01*
X104120621Y73863571D01*
X104185181Y73801646D01*
X104245393Y73743683D01*
X104299160Y73691683D01*
X104344387Y73647644D01*
X104378976Y73613568D01*
X104400831Y73591452D01*
X104403262Y73588885D01*
X104433284Y73556777D01*
X103814120Y73524328D01*
X103631793Y73691084D01*
X103575259Y73742939D01*
X103522349Y73791750D01*
X103476229Y73834575D01*
X103440059Y73868474D01*
X103417006Y73890507D01*
X103413651Y73893828D01*
X103377836Y73929818D01*
X103530207Y74099369D01*
X103577263Y74151358D01*
X103619159Y74196938D01*
X103653440Y74233495D01*
X103677651Y74258416D01*
X103689337Y74269090D01*
X103689858Y74269301D01*
X103699204Y74261691D01*
G36*
X104575943Y74611865D02*
G01*
X104568961Y74718274D01*
X104561499Y74840707D01*
X104553652Y74977756D01*
X104545516Y75128010D01*
X104544899Y75139730D01*
X104508610Y75830492D01*
X104988926Y76366390D01*
X105014905Y75873506D01*
X105020552Y75769419D01*
X105026104Y75672832D01*
X105031400Y75586104D01*
X105036282Y75511596D01*
X105040594Y75451664D01*
X105044176Y75408670D01*
X105046869Y75384971D01*
X105047987Y75380994D01*
X105060070Y75387950D01*
X105084027Y75405571D01*
X105107227Y75424013D01*
X105218066Y75500641D01*
X105337544Y75556074D01*
X105466300Y75590535D01*
X105604974Y75604250D01*
X105622796Y75604515D01*
X105712651Y75602663D01*
X105789654Y75594745D01*
X105862228Y75579030D01*
X105938792Y75553785D01*
X106010256Y75524847D01*
X106141954Y75456353D01*
X106259533Y75370408D01*
X106361894Y75268637D01*
X106447939Y75152656D01*
X106516572Y75024087D01*
X106566696Y74884550D01*
X106597211Y74735664D01*
X106605460Y74646303D01*
X106603163Y74493496D01*
X106579416Y74347489D01*
X106533631Y74205662D01*
X106482050Y74095893D01*
X106402751Y73971279D01*
X106306765Y73861256D01*
X106196212Y73767019D01*
X106073212Y73689762D01*
X105939885Y73630680D01*
X105798351Y73590965D01*
X105650730Y73571814D01*
X105550387Y73571045D01*
X105404675Y73588323D01*
X105261877Y73627178D01*
X105125434Y73686097D01*
X104998785Y73763572D01*
X104885371Y73858092D01*
X104876509Y73866806D01*
X104790040Y73966537D01*
X104714258Y74080910D01*
X104652581Y74203713D01*
X104608424Y74328733D01*
X104597136Y74374656D01*
X104593041Y74402875D01*
X104588079Y74452756D01*
X104583977Y74502944D01*
X104582347Y74522889D01*
X104581913Y74528920D01*
X105079635Y74528920D01*
X105095298Y74432058D01*
X105130609Y74339761D01*
X105162057Y74287189D01*
X105233520Y74202530D01*
X105316601Y74135910D01*
X105408658Y74088170D01*
X105507045Y74060149D01*
X105609117Y74052686D01*
X105712230Y74066623D01*
X105783947Y74089696D01*
X105826044Y74108010D01*
X105865984Y74127487D01*
X105881722Y74136099D01*
X105925323Y74169430D01*
X105972161Y74218142D01*
X106017250Y74276037D01*
X106055601Y74336922D01*
X106075054Y74376321D01*
X106092891Y74421563D01*
X106103498Y74460780D01*
X106108632Y74503399D01*
X106110050Y74558852D01*
X106110054Y74564149D01*
X106101078Y74671071D01*
X106073130Y74767633D01*
X106024649Y74858643D01*
X106005410Y74886203D01*
X105936879Y74960622D01*
X105854917Y75018582D01*
X105763022Y75059325D01*
X105664697Y75082088D01*
X105563444Y75086114D01*
X105462764Y75070642D01*
X105366155Y75034912D01*
X105352500Y75027902D01*
X105267440Y74970422D01*
X105197121Y74898429D01*
X105142364Y74815103D01*
X105103986Y74723622D01*
X105082803Y74627169D01*
X105079635Y74528920D01*
X104581913Y74528920D01*
X104575943Y74611865D01*
G37*
X104575943Y74611865D02*
X104568961Y74718274D01*
X104561499Y74840707D01*
X104553652Y74977756D01*
X104545516Y75128010D01*
X104544899Y75139730D01*
X104508610Y75830492D01*
X104988926Y76366390D01*
X105014905Y75873506D01*
X105020552Y75769419D01*
X105026104Y75672832D01*
X105031400Y75586104D01*
X105036282Y75511596D01*
X105040594Y75451664D01*
X105044176Y75408670D01*
X105046869Y75384971D01*
X105047987Y75380994D01*
X105060070Y75387950D01*
X105084027Y75405571D01*
X105107227Y75424013D01*
X105218066Y75500641D01*
X105337544Y75556074D01*
X105466300Y75590535D01*
X105604974Y75604250D01*
X105622796Y75604515D01*
X105712651Y75602663D01*
X105789654Y75594745D01*
X105862228Y75579030D01*
X105938792Y75553785D01*
X106010256Y75524847D01*
X106141954Y75456353D01*
X106259533Y75370408D01*
X106361894Y75268637D01*
X106447939Y75152656D01*
X106516572Y75024087D01*
X106566696Y74884550D01*
X106597211Y74735664D01*
X106605460Y74646303D01*
X106603163Y74493496D01*
X106579416Y74347489D01*
X106533631Y74205662D01*
X106482050Y74095893D01*
X106402751Y73971279D01*
X106306765Y73861256D01*
X106196212Y73767019D01*
X106073212Y73689762D01*
X105939885Y73630680D01*
X105798351Y73590965D01*
X105650730Y73571814D01*
X105550387Y73571045D01*
X105404675Y73588323D01*
X105261877Y73627178D01*
X105125434Y73686097D01*
X104998785Y73763572D01*
X104885371Y73858092D01*
X104876509Y73866806D01*
X104790040Y73966537D01*
X104714258Y74080910D01*
X104652581Y74203713D01*
X104608424Y74328733D01*
X104597136Y74374656D01*
X104593041Y74402875D01*
X104588079Y74452756D01*
X104583977Y74502944D01*
X104582347Y74522889D01*
X104581913Y74528920D01*
X105079635Y74528920D01*
X105095298Y74432058D01*
X105130609Y74339761D01*
X105162057Y74287189D01*
X105233520Y74202530D01*
X105316601Y74135910D01*
X105408658Y74088170D01*
X105507045Y74060149D01*
X105609117Y74052686D01*
X105712230Y74066623D01*
X105783947Y74089696D01*
X105826044Y74108010D01*
X105865984Y74127487D01*
X105881722Y74136099D01*
X105925323Y74169430D01*
X105972161Y74218142D01*
X106017250Y74276037D01*
X106055601Y74336922D01*
X106075054Y74376321D01*
X106092891Y74421563D01*
X106103498Y74460780D01*
X106108632Y74503399D01*
X106110050Y74558852D01*
X106110054Y74564149D01*
X106101078Y74671071D01*
X106073130Y74767633D01*
X106024649Y74858643D01*
X106005410Y74886203D01*
X105936879Y74960622D01*
X105854917Y75018582D01*
X105763022Y75059325D01*
X105664697Y75082088D01*
X105563444Y75086114D01*
X105462764Y75070642D01*
X105366155Y75034912D01*
X105352500Y75027902D01*
X105267440Y74970422D01*
X105197121Y74898429D01*
X105142364Y74815103D01*
X105103986Y74723622D01*
X105082803Y74627169D01*
X105079635Y74528920D01*
X104581913Y74528920D01*
X104575943Y74611865D01*
G36*
X102872253Y74625441D02*
G01*
X103632089Y75469064D01*
X103920224Y75481066D01*
X104208358Y75493069D01*
X103407311Y74589771D01*
X103295814Y74464040D01*
X103187272Y74341643D01*
X103082838Y74223876D01*
X102983663Y74112039D01*
X102890899Y74007430D01*
X102805696Y73911346D01*
X102729207Y73825088D01*
X102662581Y73749953D01*
X102606971Y73687238D01*
X102563528Y73638244D01*
X102533404Y73604267D01*
X102520374Y73589569D01*
X102434484Y73492665D01*
X102290986Y76230778D01*
X102786760Y76256760D01*
X102872253Y74625441D01*
G37*
X102872253Y74625441D02*
X103632089Y75469064D01*
X103920224Y75481066D01*
X104208358Y75493069D01*
X103407311Y74589771D01*
X103295814Y74464040D01*
X103187272Y74341643D01*
X103082838Y74223876D01*
X102983663Y74112039D01*
X102890899Y74007430D01*
X102805696Y73911346D01*
X102729207Y73825088D01*
X102662581Y73749953D01*
X102606971Y73687238D01*
X102563528Y73638244D01*
X102533404Y73604267D01*
X102520374Y73589569D01*
X102434484Y73492665D01*
X102290986Y76230778D01*
X102786760Y76256760D01*
X102872253Y74625441D01*
D14*
%TO.C,MCU1*%
X50334791Y37911777D02*
X49654791Y37911777D01*
X54194791Y37911777D02*
X53534791Y37911777D01*
X47114791Y37911777D02*
X47114791Y40711777D01*
X47114791Y40711777D02*
X49114791Y40711777D01*
X52859791Y37911777D02*
X52194791Y37911777D01*
X54194791Y40711777D02*
X54194791Y37911777D01*
X49114791Y37911777D02*
X48434791Y37911777D01*
X52194791Y40711777D02*
X54194791Y40711777D01*
X49654791Y37911777D02*
X49654791Y40711777D01*
X52194791Y37911777D02*
X52194791Y40711777D01*
X47784791Y37911777D02*
X47114791Y37911777D01*
X51654791Y37911777D02*
X50984791Y37911777D01*
X49654791Y40711777D02*
X51654791Y40711777D01*
X51654791Y40711777D02*
X51654791Y37911777D01*
X49114791Y40711777D02*
X49114791Y37911777D01*
%TD*%
D15*
%TO.C,B1*%
X81896791Y45365254D03*
X81896791Y51865254D03*
%TD*%
D16*
%TO.C,PAD1*%
X50908791Y107341254D03*
X48908791Y107341254D03*
X46908791Y107341254D03*
%TD*%
D17*
%TO.C,MCU1*%
X50654791Y36253254D03*
X53194791Y36253254D03*
X53194791Y51493254D03*
X48031045Y51493254D03*
X48114791Y36253254D03*
X50654791Y51493254D03*
X55734791Y51493254D03*
X58274791Y51493254D03*
X60814791Y51493254D03*
X63354791Y51493254D03*
X65894791Y51493254D03*
X68434791Y51493254D03*
X70974791Y51493254D03*
X73514791Y51493254D03*
X76054791Y51493254D03*
X55734791Y36253254D03*
X58274791Y36253254D03*
X60814791Y36253254D03*
X63354791Y36253254D03*
X65894791Y36253254D03*
X68434791Y36253254D03*
X70974791Y36253254D03*
X73514791Y36253254D03*
X76054791Y36253254D03*
%TD*%
%LPC*%
D18*
%TO.C,S17*%
X97872161Y110749716D03*
X93074215Y108221928D03*
D19*
X87080925Y113620120D03*
X98039067Y114578834D03*
D20*
X87095308Y119192579D03*
D21*
X92559996Y114099477D03*
%TD*%
D18*
%TO.C,S15*%
X99453808Y92784406D03*
X94655862Y90256618D03*
D19*
X88662572Y95654810D03*
X99620714Y96613524D03*
D20*
X88676955Y101227269D03*
D21*
X94141643Y96134167D03*
%TD*%
%TO.C,S5*%
X52522259Y81799963D03*
D20*
X46118072Y85645596D03*
D19*
X57781935Y83408007D03*
X47262583Y80191919D03*
D18*
X54247252Y76157765D03*
X58414795Y79627863D03*
%TD*%
%TO.C,S11*%
X76591012Y101921038D03*
X72031634Y98984701D03*
D19*
X65590667Y103840002D03*
X76423553Y105750132D03*
D20*
X65119324Y109392509D03*
D21*
X71007110Y104795067D03*
%TD*%
D18*
%TO.C,S21*%
X120424791Y83297254D03*
X115424791Y81197254D03*
D19*
X109924791Y87097254D03*
X120924791Y87097254D03*
D20*
X110424791Y92647254D03*
D21*
X115424791Y87097254D03*
%TD*%
%TO.C,S29*%
X134099495Y94564491D03*
D20*
X129099495Y100114491D03*
D19*
X139599495Y94564491D03*
X128599495Y94564491D03*
D18*
X134099495Y88664491D03*
X139099495Y90764491D03*
%TD*%
%TO.C,S33*%
X144046791Y41743254D03*
X139046791Y39643254D03*
D19*
X133546791Y45543254D03*
X144546791Y45543254D03*
D20*
X134046791Y51093254D03*
D21*
X139046791Y45543254D03*
%TD*%
D18*
%TO.C,S7*%
X82875050Y66387574D03*
X78315672Y63451237D03*
D19*
X71874705Y68306538D03*
X82707591Y70216668D03*
D20*
X71403362Y73859045D03*
D21*
X77291148Y69261603D03*
%TD*%
D18*
%TO.C,S27*%
X139099495Y72744491D03*
X134099495Y70644491D03*
D19*
X128599495Y76544491D03*
X139599495Y76544491D03*
D20*
X129099495Y82094491D03*
D21*
X134099495Y76544491D03*
%TD*%
%TO.C,S9*%
X74139129Y87023335D03*
D20*
X68251343Y91620777D03*
D19*
X79555572Y87978400D03*
X68722686Y86068270D03*
D18*
X75163653Y81212969D03*
X79723031Y84149306D03*
%TD*%
%TO.C,S13*%
X101015456Y74829096D03*
X96217510Y72301308D03*
D19*
X90224220Y77699500D03*
X101182362Y78658214D03*
D20*
X90238603Y83271959D03*
D21*
X95703291Y78178857D03*
%TD*%
D18*
%TO.C,S31*%
X125321152Y44426273D03*
X120321152Y42326273D03*
D19*
X114821152Y48226273D03*
X125821152Y48226273D03*
D20*
X115321152Y53776273D03*
D21*
X120321152Y48226273D03*
%TD*%
D18*
%TO.C,S3*%
X63705114Y62300682D03*
X59537571Y58830584D03*
D19*
X52552902Y62864738D03*
X63072254Y66080826D03*
D20*
X51408391Y68318415D03*
D21*
X57812578Y64472782D03*
%TD*%
D18*
%TO.C,S23*%
X120424791Y101327254D03*
X115424791Y99227254D03*
D19*
X109924791Y105127254D03*
X120924791Y105127254D03*
D20*
X110424791Y110677254D03*
D21*
X115424791Y105127254D03*
%TD*%
D18*
%TO.C,S19*%
X120424791Y65277254D03*
X115424791Y63177254D03*
D19*
X109924791Y69077254D03*
X120924791Y69077254D03*
D20*
X110424791Y74627254D03*
D21*
X115424791Y69077254D03*
%TD*%
D20*
%TO.C,B1*%
X81896791Y45365254D03*
X81896791Y51865254D03*
%TD*%
D22*
%TO.C,T1*%
X55089406Y118508838D03*
X47689406Y120708838D03*
X55089406Y120708838D03*
X47689406Y118508838D03*
D23*
X53639406Y117533838D03*
X50639406Y117533838D03*
X49139406Y117533838D03*
%TD*%
D24*
%TO.C,*%
X141078791Y61367254D03*
%TD*%
D25*
%TO.C,T2*%
X49889406Y119608838D03*
X52889406Y119608838D03*
%TD*%
D24*
%TO.C,*%
X47860791Y58573254D03*
%TD*%
D26*
%TO.C,PAD1*%
X50908791Y107341254D03*
X48908791Y107341254D03*
X46908791Y107341254D03*
%TD*%
D24*
%TO.C,*%
X140824791Y115215254D03*
%TD*%
%TO.C,*%
X61830791Y117247254D03*
%TD*%
D27*
%TO.C,REF\u002A\u002A*%
X102762791Y107797040D03*
X104756791Y69749254D03*
X84735898Y87776147D03*
%TD*%
D28*
%TO.C,MCU1*%
X50654791Y36253254D03*
D29*
X50654791Y38586777D03*
D28*
X53194791Y36253254D03*
D30*
X48114791Y37636777D03*
D28*
X53194791Y51493254D03*
D30*
X50654791Y37636777D03*
X53194791Y37636777D03*
D29*
X53194791Y38586777D03*
X48114791Y38586777D03*
D28*
X48031045Y51493254D03*
X48114791Y36253254D03*
X50654791Y51493254D03*
D31*
X48114791Y40036777D03*
X50654791Y40036777D03*
X53194791Y40036777D03*
D28*
X55734791Y51493254D03*
X58274791Y51493254D03*
X60814791Y51493254D03*
X63354791Y51493254D03*
X65894791Y51493254D03*
X68434791Y51493254D03*
X70974791Y51493254D03*
X73514791Y51493254D03*
X76054791Y51493254D03*
X55734791Y36253254D03*
X58274791Y36253254D03*
X60814791Y36253254D03*
X63354791Y36253254D03*
X65894791Y36253254D03*
X68434791Y36253254D03*
X70974791Y36253254D03*
X73514791Y36253254D03*
X76054791Y36253254D03*
%TD*%
M02*
