%TF.GenerationSoftware,KiCad,Pcbnew,(7.0.0)*%
%TF.CreationDate,2023-02-20T10:05:00+01:00*%
%TF.ProjectId,wired-split,77697265-642d-4737-906c-69742e6b6963,rev?*%
%TF.SameCoordinates,Original*%
%TF.FileFunction,Soldermask,Top*%
%TF.FilePolarity,Negative*%
%FSLAX46Y46*%
G04 Gerber Fmt 4.6, Leading zero omitted, Abs format (unit mm)*
G04 Created by KiCad (PCBNEW (7.0.0)) date 2023-02-20 10:05:00*
%MOMM*%
%LPD*%
G01*
G04 APERTURE LIST*
G04 Aperture macros list*
%AMHorizOval*
0 Thick line with rounded ends*
0 $1 width*
0 $2 $3 position (X,Y) of the first rounded end (center of the circle)*
0 $4 $5 position (X,Y) of the second rounded end (center of the circle)*
0 Add line between two ends*
20,1,$1,$2,$3,$4,$5,0*
0 Add two circle primitives to create the rounded ends*
1,1,$1,$2,$3*
1,1,$1,$4,$5*%
G04 Aperture macros list end*
%ADD10C,4.500000*%
%ADD11C,4.400000*%
%ADD12HorizOval,1.701800X-0.492404X0.086824X0.492404X-0.086824X0*%
%ADD13C,3.000000*%
%ADD14C,3.987800*%
%ADD15C,2.000000*%
%ADD16R,3.200000X2.000000*%
%ADD17R,1.350000X1.350000*%
%ADD18O,1.350000X1.350000*%
%ADD19HorizOval,1.701800X-0.498097X-0.043578X0.498097X0.043578X0*%
%ADD20C,1.752600*%
%ADD21C,0.500000*%
%ADD22HorizOval,1.701800X-0.499315X-0.026168X0.499315X0.026168X0*%
%ADD23O,2.701800X1.701800*%
%ADD24C,1.700000*%
%ADD25O,1.700000X1.700000*%
%ADD26HorizOval,1.701800X-0.498097X0.043578X0.498097X-0.043578X0*%
%ADD27HorizOval,1.701800X-0.499315X0.026168X0.499315X-0.026168X0*%
%ADD28C,1.800000*%
%ADD29C,1.600000*%
%ADD30C,0.800000*%
%ADD31O,2.000000X1.600000*%
%ADD32HorizOval,1.701800X-0.492404X-0.086824X0.492404X0.086824X0*%
%ADD33R,1.400000X1.400000*%
%ADD34C,1.400000*%
G04 APERTURE END LIST*
D10*
%TO.C,*%
X84328000Y-156464000D03*
%TD*%
D11*
%TO.C,REF\u002A\u002A*%
X121666000Y-123952000D03*
X140716000Y-143002000D03*
X159766000Y-123952000D03*
%TD*%
D12*
%TO.C,SW22*%
X344837936Y-131306707D03*
D13*
X343146852Y-133583685D03*
X338799645Y-136283119D03*
D14*
X339832851Y-130423513D03*
D13*
X336452257Y-134982431D03*
X334260582Y-133245462D03*
D12*
X334832977Y-129538540D03*
%TD*%
D15*
%TO.C,SW39*%
X312442505Y-160585287D03*
X312442505Y-155585287D03*
X312442505Y-158085287D03*
D16*
X304942504Y-163685286D03*
X304942504Y-152485286D03*
D15*
X297942505Y-155585287D03*
X297942505Y-160585287D03*
%TD*%
D17*
%TO.C,J9*%
X189913095Y-126857999D03*
D18*
X189913095Y-128857999D03*
X189913095Y-130857999D03*
X189913095Y-132857999D03*
X189913095Y-134857999D03*
X189913095Y-136857999D03*
X189913095Y-138857999D03*
X189913095Y-140857999D03*
%TD*%
D19*
%TO.C,SW6*%
X114853914Y-113697534D03*
D13*
X113809778Y-116334611D03*
X110309363Y-120067204D03*
D14*
X109790786Y-114139846D03*
D13*
X107705318Y-119418385D03*
X105138762Y-118307849D03*
D19*
X104732231Y-114579090D03*
%TD*%
D20*
%TO.C,SW27*%
X217902505Y-164581287D03*
X222902505Y-164581287D03*
%TD*%
D21*
%TO.C,mouse-bite-2mm-slot*%
X214226505Y-118049287D03*
X214226505Y-119065287D03*
X214226505Y-120081287D03*
X214226505Y-121097287D03*
X214226505Y-122113287D03*
X216258505Y-118049287D03*
X216258505Y-119065287D03*
X216258505Y-120081287D03*
X216258505Y-121097287D03*
X216258505Y-122113287D03*
%TD*%
D22*
%TO.C,SW11*%
X135437513Y-126854805D03*
D13*
X134301981Y-129453836D03*
X130673432Y-133061992D03*
D14*
X130362033Y-127120147D03*
D13*
X128093617Y-132322688D03*
X125567381Y-131123258D03*
D22*
X125291230Y-127382583D03*
%TD*%
D23*
%TO.C,SW13*%
X154996504Y-97113247D03*
D13*
X153726505Y-99649287D03*
X149914093Y-103062595D03*
D14*
X149914093Y-97112595D03*
D13*
X147376505Y-102189287D03*
X144916505Y-100859287D03*
D23*
X144836504Y-97109286D03*
%TD*%
D20*
%TO.C,U7*%
X221059255Y-94617287D03*
X223599255Y-94617287D03*
X226139255Y-94617287D03*
X228679255Y-94617287D03*
X231219255Y-94617287D03*
X233759255Y-94617287D03*
X236299255Y-94617287D03*
X238839255Y-94617287D03*
X241379255Y-94617287D03*
X243919255Y-94617287D03*
X246459255Y-94617287D03*
X248999255Y-94597287D03*
X248999255Y-79377287D03*
X246459255Y-79377287D03*
X243919255Y-79377287D03*
X241379255Y-79377287D03*
X238839255Y-79377287D03*
X236299255Y-79377287D03*
X233759255Y-79377287D03*
X231219255Y-79377287D03*
X228679255Y-79377287D03*
X226139255Y-79377287D03*
X223599255Y-79377287D03*
X221059255Y-79377287D03*
X248999255Y-92077287D03*
X248999255Y-89537287D03*
X248999255Y-86997287D03*
X248999255Y-84457287D03*
X248999255Y-81917287D03*
X246459255Y-92077287D03*
X218629255Y-94597287D03*
X218629255Y-79357287D03*
%TD*%
D10*
%TO.C,*%
X231394000Y-155448000D03*
%TD*%
%TO.C,*%
X348488000Y-85090000D03*
%TD*%
D11*
%TO.C,REF\u002A\u002A*%
X270666000Y-123952000D03*
X289716000Y-143002000D03*
X308766000Y-123952000D03*
%TD*%
D10*
%TO.C,*%
X81900000Y-85090000D03*
%TD*%
D20*
%TO.C,SW35*%
X235650505Y-164581287D03*
X240650505Y-164581287D03*
%TD*%
%TO.C,SW8*%
X207670505Y-164689287D03*
X212670505Y-164689287D03*
%TD*%
D15*
%TO.C,SW21*%
X117128505Y-155585287D03*
X117128505Y-160585287D03*
X117128505Y-158085287D03*
D16*
X124628504Y-152485286D03*
X124628504Y-163685286D03*
D15*
X131628505Y-160585287D03*
X131628505Y-155585287D03*
%TD*%
D20*
%TO.C,SW16*%
X189922505Y-164689287D03*
X194922505Y-164689287D03*
%TD*%
D23*
%TO.C,SW3*%
X158814504Y-156311247D03*
D13*
X157544505Y-158847287D03*
X153732093Y-162260595D03*
D14*
X153732093Y-156310595D03*
D13*
X151194505Y-161387287D03*
X148734505Y-160057287D03*
D23*
X148654504Y-156307286D03*
%TD*%
D10*
%TO.C,*%
X346116000Y-156464000D03*
%TD*%
D24*
%TO.C,U5*%
X106214505Y-159863287D03*
D25*
X106214504Y-157323286D03*
X106214504Y-154783286D03*
X106214504Y-152243286D03*
X106214504Y-149703286D03*
%TD*%
D23*
%TO.C,SW33*%
X286152350Y-116241898D03*
D13*
X284882351Y-118777938D03*
X281069939Y-122191246D03*
D14*
X281069939Y-116241246D03*
D13*
X278532351Y-121317938D03*
X276072351Y-119987938D03*
D23*
X275992350Y-116237937D03*
%TD*%
D26*
%TO.C,SW25*%
X326349119Y-114607430D03*
D13*
X324862922Y-117023132D03*
X320767528Y-120091178D03*
D14*
X321286105Y-114163819D03*
D13*
X318315710Y-119000027D03*
X315980988Y-117460685D03*
D26*
X316228126Y-113717982D03*
%TD*%
%TO.C,SW26*%
X324644183Y-133585805D03*
D13*
X323157986Y-136001507D03*
X319062592Y-139069553D03*
D14*
X319581169Y-133142194D03*
D13*
X316610774Y-137978402D03*
X314276052Y-136439060D03*
D26*
X314523190Y-132696357D03*
%TD*%
D23*
%TO.C,SW34*%
X286143508Y-135347971D03*
D13*
X284873509Y-137884011D03*
X281061097Y-141297319D03*
D14*
X281061097Y-135347319D03*
D13*
X278523509Y-140424011D03*
X276063509Y-139094011D03*
D23*
X275983508Y-135344010D03*
%TD*%
D21*
%TO.C,mouse-bite-2mm-slot*%
X214226505Y-155049287D03*
X214226505Y-156065287D03*
X214226505Y-157081287D03*
X214226505Y-158097287D03*
X214226505Y-159113287D03*
X216258505Y-155049287D03*
X216258505Y-156065287D03*
X216258505Y-157081287D03*
X216258505Y-158097287D03*
X216258505Y-159113287D03*
%TD*%
D23*
%TO.C,SW19*%
X177864504Y-158343247D03*
D13*
X176594505Y-160879287D03*
X172782093Y-164292595D03*
D14*
X172782093Y-158342595D03*
D13*
X170244505Y-163419287D03*
X167784505Y-162089287D03*
D23*
X167704504Y-158339286D03*
%TD*%
D20*
%TO.C,J1*%
X160584504Y-93857300D03*
X163124506Y-93857301D03*
X165664504Y-93857300D03*
X168204504Y-93857300D03*
X170744505Y-93857301D03*
X173284505Y-93857302D03*
X175824505Y-93857301D03*
X178364504Y-93857301D03*
%TD*%
D26*
%TO.C,SW24*%
X328002828Y-95562526D03*
D13*
X326516631Y-97978228D03*
X322421237Y-101046274D03*
D14*
X322939814Y-95118915D03*
D13*
X319969419Y-99955123D03*
X317634697Y-98415781D03*
D26*
X317881835Y-94673078D03*
%TD*%
D23*
%TO.C,SW23*%
X282342504Y-156311247D03*
D13*
X281072505Y-158847287D03*
X277260093Y-162260595D03*
D14*
X277260093Y-156310595D03*
D13*
X274722505Y-161387287D03*
X272262505Y-160057287D03*
D23*
X272182504Y-156307286D03*
%TD*%
D19*
%TO.C,SW7*%
X116499676Y-132717767D03*
D13*
X115455540Y-135354844D03*
X111955125Y-139087437D03*
D14*
X111436548Y-133160079D03*
D13*
X109351080Y-138438618D03*
X106784524Y-137328082D03*
D19*
X106377993Y-133599323D03*
%TD*%
D23*
%TO.C,SW38*%
X263262504Y-158349863D03*
D13*
X261992505Y-160885903D03*
X258180093Y-164299211D03*
D14*
X258180093Y-158349211D03*
D13*
X255642505Y-163425903D03*
X253182505Y-162095903D03*
D23*
X253102504Y-158345902D03*
%TD*%
D27*
%TO.C,SW29*%
X306689187Y-108370885D03*
D13*
X305288202Y-110836983D03*
X301302376Y-114046087D03*
D14*
X301613775Y-108104241D03*
D13*
X298813971Y-113041169D03*
X296426949Y-111584245D03*
D27*
X296543318Y-107835196D03*
%TD*%
D28*
%TO.C,HAT2*%
X227992505Y-151039287D03*
D29*
X227992505Y-147339287D03*
D28*
X227992505Y-144539287D03*
X217692505Y-144539287D03*
D29*
X217692505Y-147339287D03*
D28*
X217692505Y-151039287D03*
%TD*%
D22*
%TO.C,SW10*%
X134426889Y-107801174D03*
D13*
X133291357Y-110400205D03*
X129662808Y-114008361D03*
D14*
X129351409Y-108066516D03*
D13*
X127082993Y-113269057D03*
X124556757Y-112069627D03*
D22*
X124280606Y-108328952D03*
%TD*%
D23*
%TO.C,SW36*%
X267022504Y-106755863D03*
D13*
X265752505Y-109291903D03*
X261940093Y-112705211D03*
D14*
X261940093Y-106755211D03*
D13*
X259402505Y-111831903D03*
X256942505Y-110501903D03*
D23*
X256862504Y-106751902D03*
%TD*%
D12*
%TO.C,SW4*%
X348144640Y-112511835D03*
D13*
X346453556Y-114788813D03*
X342106349Y-117488247D03*
D14*
X343139555Y-111628641D03*
D13*
X339758961Y-116187559D03*
X337567286Y-114450590D03*
D12*
X338139681Y-110743668D03*
%TD*%
D20*
%TO.C,SW31*%
X226776505Y-164581287D03*
X231776505Y-164581287D03*
%TD*%
D27*
%TO.C,SW28*%
X307695335Y-89289670D03*
D13*
X306294350Y-91755768D03*
X302308524Y-94964872D03*
D14*
X302619923Y-89023026D03*
D13*
X299820119Y-93959954D03*
X297433097Y-92503030D03*
D27*
X297549466Y-88753981D03*
%TD*%
D23*
%TO.C,SW18*%
X174046504Y-125799247D03*
D13*
X172776505Y-128335287D03*
X168964093Y-131748595D03*
D14*
X168964093Y-125798595D03*
D13*
X166426505Y-130875287D03*
X163966505Y-129545287D03*
D23*
X163886504Y-125795286D03*
%TD*%
%TO.C,SW32*%
X286102504Y-97119863D03*
D13*
X284832505Y-99655903D03*
X281020093Y-103069211D03*
D14*
X281020093Y-97119211D03*
D13*
X278482505Y-102195903D03*
X276022505Y-100865903D03*
D23*
X275942504Y-97115902D03*
%TD*%
D10*
%TO.C,*%
X199014000Y-155448000D03*
%TD*%
D19*
%TO.C,SW5*%
X113183518Y-94670481D03*
D13*
X112139382Y-97307558D03*
X108638967Y-101040151D03*
D14*
X108120390Y-95112793D03*
D13*
X106034922Y-100391332D03*
X103468366Y-99280796D03*
D19*
X103061835Y-95552037D03*
%TD*%
D23*
%TO.C,SW17*%
X174046504Y-106749247D03*
D13*
X172776505Y-109285287D03*
X168964093Y-112698595D03*
D14*
X168964093Y-106748595D03*
D13*
X166426505Y-111825287D03*
X163966505Y-110495287D03*
D23*
X163886504Y-106745286D03*
%TD*%
D10*
%TO.C,*%
X153924000Y-82042000D03*
%TD*%
D30*
%TO.C,J2*%
X211384505Y-134971287D03*
X204384505Y-134971287D03*
D31*
X206784504Y-137271286D03*
X209784504Y-137271286D03*
X201684504Y-132671286D03*
X202784504Y-137271286D03*
%TD*%
D32*
%TO.C,SW1*%
X92814015Y-110741054D03*
D13*
X92003689Y-113459099D03*
X88841911Y-117482570D03*
D14*
X87808704Y-111622964D03*
D13*
X86191226Y-117063177D03*
X83537647Y-116180557D03*
D32*
X82807681Y-112501419D03*
%TD*%
D24*
%TO.C,U6*%
X323542505Y-149703287D03*
D25*
X323542504Y-152243286D03*
X323542504Y-154783286D03*
X323542504Y-157323286D03*
X323542504Y-159863286D03*
%TD*%
D23*
%TO.C,SW14*%
X154996504Y-116163247D03*
D13*
X153726505Y-118699287D03*
X149914093Y-122112595D03*
D14*
X149914093Y-116162595D03*
D13*
X147376505Y-121239287D03*
X144916505Y-119909287D03*
D23*
X144836504Y-116159286D03*
%TD*%
%TO.C,SW15*%
X154996504Y-135213247D03*
D13*
X153726505Y-137749287D03*
X149914093Y-141162595D03*
D14*
X149914093Y-135212595D03*
D13*
X147376505Y-140289287D03*
X144916505Y-138959287D03*
D23*
X144836504Y-135209286D03*
%TD*%
%TO.C,SW37*%
X267022503Y-125895177D03*
D13*
X265752504Y-128431217D03*
X261940092Y-131844525D03*
D14*
X261940092Y-125894525D03*
D13*
X259402504Y-130971217D03*
X256942504Y-129641217D03*
D23*
X256862503Y-125891216D03*
%TD*%
D17*
%TO.C,J10*%
X251937999Y-139191999D03*
D18*
X253937999Y-139191999D03*
X255937999Y-139191999D03*
X257937999Y-139191999D03*
X259937999Y-139191999D03*
X261937999Y-139191999D03*
X263937999Y-139191999D03*
X265937999Y-139191999D03*
%TD*%
D27*
%TO.C,SW30*%
X305654681Y-127367450D03*
D13*
X304253696Y-129833548D03*
X300267870Y-133042652D03*
D14*
X300579269Y-127100806D03*
D13*
X297779465Y-132037734D03*
X295392443Y-130580810D03*
D27*
X295508812Y-126831761D03*
%TD*%
D20*
%TO.C,J7*%
X252282504Y-92581286D03*
X254822506Y-92581287D03*
X257362504Y-92581286D03*
X259902504Y-92581286D03*
X262442505Y-92581287D03*
X264982505Y-92581288D03*
X267522505Y-92581287D03*
X270062504Y-92581287D03*
%TD*%
D10*
%TO.C,*%
X276508000Y-82042000D03*
%TD*%
D30*
%TO.C,J5*%
X218930005Y-134971287D03*
X225930005Y-134971287D03*
D31*
X223530004Y-132671286D03*
X220530004Y-132671286D03*
X228630004Y-137271286D03*
X227530004Y-132671286D03*
%TD*%
D22*
%TO.C,SW9*%
X133407749Y-88751375D03*
D13*
X132272217Y-91350406D03*
X128643668Y-94958562D03*
D14*
X128332269Y-89016717D03*
D13*
X126063853Y-94219258D03*
X123537617Y-93019828D03*
D22*
X123261466Y-89279153D03*
%TD*%
D32*
%TO.C,SW2*%
X96116015Y-129537054D03*
D13*
X95305689Y-132255099D03*
X92143911Y-136278570D03*
D14*
X91110704Y-130418964D03*
D13*
X89493226Y-135859177D03*
X86839647Y-134976557D03*
D32*
X86109681Y-131297419D03*
%TD*%
D20*
%TO.C,U1*%
X209582505Y-79377287D03*
X207042505Y-79377287D03*
X204502505Y-79377287D03*
X201962505Y-79377287D03*
X199422505Y-79377287D03*
X196882505Y-79377287D03*
X194342505Y-79377287D03*
X191802505Y-79377287D03*
X189262505Y-79377287D03*
X186722505Y-79377287D03*
X184182505Y-79377287D03*
X181642505Y-79397287D03*
X181642505Y-94617287D03*
X184182505Y-94617287D03*
X186722505Y-94617287D03*
X189262505Y-94617287D03*
X191802505Y-94617287D03*
X194342505Y-94617287D03*
X196882505Y-94617287D03*
X199422505Y-94617287D03*
X201962505Y-94617287D03*
X204502505Y-94617287D03*
X207042505Y-94617287D03*
X209582505Y-94617287D03*
X181642505Y-81917287D03*
X181642505Y-84457287D03*
X181642505Y-86997287D03*
X181642505Y-89537287D03*
X181642505Y-92077287D03*
X184182505Y-81917287D03*
X212012505Y-79397287D03*
X212012505Y-94637287D03*
%TD*%
%TO.C,SW12*%
X198796505Y-164689287D03*
X203796505Y-164689287D03*
%TD*%
D28*
%TO.C,HAT1*%
X202467053Y-151039287D03*
D29*
X202467053Y-147339287D03*
D28*
X202467053Y-144539287D03*
X212767053Y-144539287D03*
D29*
X212767053Y-147339287D03*
D28*
X212767053Y-151039287D03*
%TD*%
D33*
%TO.C,U10*%
X221082504Y-104475286D03*
D34*
X222862505Y-104475287D03*
X224642505Y-104475287D03*
X226422505Y-104475287D03*
X228202505Y-104475287D03*
X229982505Y-104475287D03*
X231762505Y-104475287D03*
X233542505Y-104475287D03*
X234432505Y-115175287D03*
X232652505Y-115175287D03*
X230872505Y-115175287D03*
X229092505Y-115175287D03*
X227312505Y-115175287D03*
X225532505Y-115175287D03*
X223752505Y-115175287D03*
X221972505Y-115175287D03*
%TD*%
D33*
%TO.C,U4*%
X197564504Y-104475286D03*
D34*
X199344505Y-104475287D03*
X201124505Y-104475287D03*
X202904505Y-104475287D03*
X204684505Y-104475287D03*
X206464505Y-104475287D03*
X208244505Y-104475287D03*
X210024505Y-104475287D03*
X210914505Y-115175287D03*
X209134505Y-115175287D03*
X207354505Y-115175287D03*
X205574505Y-115175287D03*
X203794505Y-115175287D03*
X202014505Y-115175287D03*
X200234505Y-115175287D03*
X198454505Y-115175287D03*
%TD*%
M02*
