%TF.GenerationSoftware,KiCad,Pcbnew,(6.0.4)*%
%TF.CreationDate,2022-07-31T18:16:21+02:00*%
%TF.ProjectId,battoota,62617474-6f6f-4746-912e-6b696361645f,v1.0.0*%
%TF.SameCoordinates,Original*%
%TF.FileFunction,Legend,Bot*%
%TF.FilePolarity,Positive*%
%FSLAX46Y46*%
G04 Gerber Fmt 4.6, Leading zero omitted, Abs format (unit mm)*
G04 Created by KiCad (PCBNEW (6.0.4)) date 2022-07-31 18:16:21*
%MOMM*%
%LPD*%
G01*
G04 APERTURE LIST*
G04 Aperture macros list*
%AMRoundRect*
0 Rectangle with rounded corners*
0 $1 Rounding radius*
0 $2 $3 $4 $5 $6 $7 $8 $9 X,Y pos of 4 corners*
0 Add a 4 corners polygon primitive as box body*
4,1,4,$2,$3,$4,$5,$6,$7,$8,$9,$2,$3,0*
0 Add four circle primitives for the rounded corners*
1,1,$1+$1,$2,$3*
1,1,$1+$1,$4,$5*
1,1,$1+$1,$6,$7*
1,1,$1+$1,$8,$9*
0 Add four rect primitives between the rounded corners*
20,1,$1+$1,$2,$3,$4,$5,0*
20,1,$1+$1,$4,$5,$6,$7,0*
20,1,$1+$1,$6,$7,$8,$9,0*
20,1,$1+$1,$8,$9,$2,$3,0*%
%AMFreePoly0*
4,1,16,0.685355,0.785355,0.700000,0.750000,0.691603,0.722265,0.210093,0.000000,0.691603,-0.722265,0.699029,-0.759806,0.677735,-0.791603,0.650000,-0.800000,-0.500000,-0.800000,-0.535355,-0.785355,-0.550000,-0.750000,-0.550000,0.750000,-0.535355,0.785355,-0.500000,0.800000,0.650000,0.800000,0.685355,0.785355,0.685355,0.785355,$1*%
%AMFreePoly1*
4,1,16,0.535355,0.785355,0.550000,0.750000,0.550000,-0.750000,0.535355,-0.785355,0.500000,-0.800000,-0.500000,-0.800000,-0.535355,-0.785355,-0.541603,-0.777735,-1.041603,-0.027735,-1.049029,0.009806,-1.041603,0.027735,-0.541603,0.777735,-0.509806,0.799029,-0.500000,0.800000,0.500000,0.800000,0.535355,0.785355,0.535355,0.785355,$1*%
G04 Aperture macros list end*
%ADD10C,0.150000*%
%ADD11C,0.100000*%
%ADD12C,0.120000*%
%ADD13C,0.200000*%
%ADD14C,0.010000*%
%ADD15RoundRect,0.375000X-0.750000X0.375000X-0.750000X-0.375000X0.750000X-0.375000X0.750000X0.375000X0*%
%ADD16C,1.752600*%
%ADD17C,5.100000*%
%ADD18C,2.100000*%
%ADD19C,1.801800*%
%ADD20C,3.100000*%
%ADD21C,3.529000*%
%ADD22RoundRect,0.050000X-1.054507X-1.505993X1.505993X-1.054507X1.054507X1.505993X-1.505993X1.054507X0*%
%ADD23C,2.132000*%
%ADD24RoundRect,0.050000X-1.181751X-1.408356X1.408356X-1.181751X1.181751X1.408356X-1.408356X1.181751X0*%
%ADD25RoundRect,0.050000X-1.300000X-1.300000X1.300000X-1.300000X1.300000X1.300000X-1.300000X1.300000X0*%
%ADD26RoundRect,0.050000X-0.450000X-0.450000X0.450000X-0.450000X0.450000X0.450000X-0.450000X0.450000X0*%
%ADD27C,1.100000*%
%ADD28RoundRect,0.050000X-0.450000X-0.625000X0.450000X-0.625000X0.450000X0.625000X-0.450000X0.625000X0*%
%ADD29RoundRect,0.050000X-1.716367X-0.658851X0.658851X-1.716367X1.716367X0.658851X-0.658851X1.716367X0*%
%ADD30RoundRect,0.425000X-0.750000X0.375000X-0.750000X-0.375000X0.750000X-0.375000X0.750000X0.375000X0*%
%ADD31RoundRect,0.050000X-0.863113X-1.623279X1.623279X-0.863113X0.863113X1.623279X-1.623279X0.863113X0*%
%ADD32RoundRect,0.050000X-1.487360X-1.080630X1.080630X-1.487360X1.487360X1.080630X-1.080630X1.487360X0*%
%ADD33C,1.852600*%
%ADD34FreePoly0,180.000000*%
%ADD35RoundRect,0.050000X-0.762000X0.250000X-0.762000X-0.250000X0.762000X-0.250000X0.762000X0.250000X0*%
%ADD36FreePoly1,180.000000*%
%ADD37C,4.500000*%
G04 APERTURE END LIST*
D10*
%TO.C,B1*%
X158422171Y79202634D02*
X157945981Y79535968D01*
X158422171Y79774063D02*
X157422171Y79774063D01*
X157422171Y79393111D01*
X157469791Y79297873D01*
X157517410Y79250254D01*
X157612648Y79202634D01*
X157755505Y79202634D01*
X157850743Y79250254D01*
X157898362Y79297873D01*
X157945981Y79393111D01*
X157945981Y79774063D01*
X157898362Y78774063D02*
X157898362Y78440730D01*
X158422171Y78297873D02*
X158422171Y78774063D01*
X157422171Y78774063D01*
X157422171Y78297873D01*
X158374552Y77916920D02*
X158422171Y77774063D01*
X158422171Y77535968D01*
X158374552Y77440730D01*
X158326933Y77393111D01*
X158231695Y77345492D01*
X158136457Y77345492D01*
X158041219Y77393111D01*
X157993600Y77440730D01*
X157945981Y77535968D01*
X157898362Y77726444D01*
X157850743Y77821682D01*
X157803124Y77869301D01*
X157707886Y77916920D01*
X157612648Y77916920D01*
X157517410Y77869301D01*
X157469791Y77821682D01*
X157422171Y77726444D01*
X157422171Y77488349D01*
X157469791Y77345492D01*
X157898362Y76916920D02*
X157898362Y76583587D01*
X158422171Y76440730D02*
X158422171Y76916920D01*
X157422171Y76916920D01*
X157422171Y76440730D01*
X157422171Y76155015D02*
X157422171Y75583587D01*
X158422171Y75869301D02*
X157422171Y75869301D01*
%TO.C,PAD1*%
X133252648Y109176349D02*
X133290743Y109062063D01*
X133328838Y109023968D01*
X133405029Y108985873D01*
X133519314Y108985873D01*
X133595505Y109023968D01*
X133633600Y109062063D01*
X133671695Y109138254D01*
X133671695Y109443015D01*
X132871695Y109443015D01*
X132871695Y109176349D01*
X132909791Y109100158D01*
X132947886Y109062063D01*
X133024076Y109023968D01*
X133100267Y109023968D01*
X133176457Y109062063D01*
X133214552Y109100158D01*
X133252648Y109176349D01*
X133252648Y109443015D01*
X133366933Y108643015D02*
X133366933Y108033492D01*
X133671695Y108338254D02*
X133062171Y108338254D01*
X133252648Y113176349D02*
X133290743Y113062063D01*
X133328838Y113023968D01*
X133405029Y112985873D01*
X133519314Y112985873D01*
X133595505Y113023968D01*
X133633600Y113062063D01*
X133671695Y113138254D01*
X133671695Y113443015D01*
X132871695Y113443015D01*
X132871695Y113176349D01*
X132909791Y113100158D01*
X132947886Y113062063D01*
X133024076Y113023968D01*
X133100267Y113023968D01*
X133176457Y113062063D01*
X133214552Y113100158D01*
X133252648Y113176349D01*
X133252648Y113443015D01*
X133366933Y112643015D02*
X133366933Y112033492D01*
X133671695Y112338254D02*
X133062171Y112338254D01*
X133252648Y111176349D02*
X133290743Y111062063D01*
X133328838Y111023968D01*
X133405029Y110985873D01*
X133519314Y110985873D01*
X133595505Y111023968D01*
X133633600Y111062063D01*
X133671695Y111138254D01*
X133671695Y111443015D01*
X132871695Y111443015D01*
X132871695Y111176349D01*
X132909791Y111100158D01*
X132947886Y111062063D01*
X133024076Y111023968D01*
X133100267Y111023968D01*
X133176457Y111062063D01*
X133214552Y111100158D01*
X133252648Y111176349D01*
X133252648Y111443015D01*
X133366933Y110643015D02*
X133366933Y110033492D01*
%TO.C,MCU1*%
X156461797Y116446070D02*
X156728464Y116827022D01*
X156918940Y116446070D02*
X156918940Y117246070D01*
X156614178Y117246070D01*
X156537988Y117207975D01*
X156499893Y117169879D01*
X156461797Y117093689D01*
X156461797Y116979403D01*
X156499893Y116903213D01*
X156537988Y116865117D01*
X156614178Y116827022D01*
X156918940Y116827022D01*
X156157036Y116674641D02*
X155776083Y116674641D01*
X156233226Y116446070D02*
X155966559Y117246070D01*
X155699893Y116446070D01*
X155509417Y117246070D02*
X155318940Y116446070D01*
X155166559Y117017498D01*
X155014178Y116446070D01*
X154823702Y117246070D01*
X156424534Y111408502D02*
X156691200Y111789454D01*
X156881677Y111408502D02*
X156881677Y112208502D01*
X156576915Y112208502D01*
X156500724Y112170407D01*
X156462629Y112132311D01*
X156424534Y112056121D01*
X156424534Y111941835D01*
X156462629Y111865645D01*
X156500724Y111827549D01*
X156576915Y111789454D01*
X156881677Y111789454D01*
X156119772Y111446597D02*
X156005486Y111408502D01*
X155815010Y111408502D01*
X155738819Y111446597D01*
X155700724Y111484692D01*
X155662629Y111560883D01*
X155662629Y111637073D01*
X155700724Y111713264D01*
X155738819Y111751359D01*
X155815010Y111789454D01*
X155967391Y111827549D01*
X156043581Y111865645D01*
X156081677Y111903740D01*
X156119772Y111979930D01*
X156119772Y112056121D01*
X156081677Y112132311D01*
X156043581Y112170407D01*
X155967391Y112208502D01*
X155776915Y112208502D01*
X155662629Y112170407D01*
X155434058Y112208502D02*
X154976915Y112208502D01*
X155205486Y111408502D02*
X155205486Y112208502D01*
X156481677Y114710407D02*
X156557868Y114748502D01*
X156672154Y114748502D01*
X156786439Y114710407D01*
X156862630Y114634216D01*
X156900725Y114558026D01*
X156938820Y114405645D01*
X156938820Y114291359D01*
X156900725Y114138978D01*
X156862630Y114062787D01*
X156786439Y113986597D01*
X156672154Y113948502D01*
X156595963Y113948502D01*
X156481677Y113986597D01*
X156443582Y114024692D01*
X156443582Y114291359D01*
X156595963Y114291359D01*
X156100725Y113948502D02*
X156100725Y114748502D01*
X155643582Y113948502D01*
X155643582Y114748502D01*
X155262630Y113948502D02*
X155262630Y114748502D01*
X155072154Y114748502D01*
X154957868Y114710407D01*
X154881677Y114634216D01*
X154843582Y114558026D01*
X154805487Y114405645D01*
X154805487Y114291359D01*
X154843582Y114138978D01*
X154881677Y114062787D01*
X154957868Y113986597D01*
X155072154Y113948502D01*
X155262630Y113948502D01*
D11*
%TO.C,REF\u002A\u002A*%
X103342638Y96061754D02*
X103342638Y95680801D01*
X103009304Y95918896D02*
X103866447Y95918896D01*
X103961685Y95871277D01*
X104009304Y95776039D01*
X104009304Y95680801D01*
X103961685Y94966515D02*
X104009304Y95061754D01*
X104009304Y95252230D01*
X103961685Y95347468D01*
X103866447Y95395087D01*
X103485495Y95395087D01*
X103390257Y95347468D01*
X103342638Y95252230D01*
X103342638Y95061754D01*
X103390257Y94966515D01*
X103485495Y94918896D01*
X103580733Y94918896D01*
X103675971Y95395087D01*
X103342638Y94490325D02*
X104009304Y94490325D01*
X103437876Y94490325D02*
X103390257Y94442706D01*
X103342638Y94347468D01*
X103342638Y94204611D01*
X103390257Y94109373D01*
X103485495Y94061754D01*
X104009304Y94061754D01*
X103342638Y93728420D02*
X103342638Y93347468D01*
X103009304Y93585563D02*
X103866447Y93585563D01*
X103961685Y93537944D01*
X104009304Y93442706D01*
X104009304Y93347468D01*
X104009304Y93014134D02*
X103342638Y93014134D01*
X103009304Y93014134D02*
X103056924Y93061754D01*
X103104543Y93014134D01*
X103056924Y92966515D01*
X103009304Y93014134D01*
X103104543Y93014134D01*
X103342638Y92537944D02*
X104009304Y92537944D01*
X103437876Y92537944D02*
X103390257Y92490325D01*
X103342638Y92395087D01*
X103342638Y92252230D01*
X103390257Y92156992D01*
X103485495Y92109373D01*
X104009304Y92109373D01*
X103342638Y91204611D02*
X104152162Y91204611D01*
X104247400Y91252230D01*
X104295019Y91299849D01*
X104342638Y91395087D01*
X104342638Y91537944D01*
X104295019Y91633182D01*
X103961685Y91204611D02*
X104009304Y91299849D01*
X104009304Y91490325D01*
X103961685Y91585563D01*
X103914066Y91633182D01*
X103818828Y91680801D01*
X103533114Y91680801D01*
X103437876Y91633182D01*
X103390257Y91585563D01*
X103342638Y91490325D01*
X103342638Y91299849D01*
X103390257Y91204611D01*
X103406138Y82107754D02*
X104406138Y82107754D01*
X103453757Y82107754D02*
X103406138Y82012515D01*
X103406138Y81822039D01*
X103453757Y81726801D01*
X103501376Y81679182D01*
X103596614Y81631563D01*
X103882328Y81631563D01*
X103977566Y81679182D01*
X104025185Y81726801D01*
X104072804Y81822039D01*
X104072804Y82012515D01*
X104025185Y82107754D01*
X103406138Y80774420D02*
X104072804Y80774420D01*
X103406138Y81202992D02*
X103929947Y81202992D01*
X104025185Y81155373D01*
X104072804Y81060134D01*
X104072804Y80917277D01*
X104025185Y80822039D01*
X103977566Y80774420D01*
X104025185Y79869658D02*
X104072804Y79964896D01*
X104072804Y80155373D01*
X104025185Y80250611D01*
X103977566Y80298230D01*
X103882328Y80345849D01*
X103596614Y80345849D01*
X103501376Y80298230D01*
X103453757Y80250611D01*
X103406138Y80155373D01*
X103406138Y79964896D01*
X103453757Y79869658D01*
X104072804Y79441087D02*
X103072804Y79441087D01*
X103691852Y79345849D02*
X104072804Y79060134D01*
X103406138Y79060134D02*
X103787090Y79441087D01*
D10*
%TO.C,B1*%
X159719791Y74623254D02*
X159469791Y74623254D01*
X159719791Y80623254D02*
X159719791Y74623254D01*
X156219791Y80623254D02*
X156469791Y80623254D01*
X156469791Y74623254D02*
X156219791Y74623254D01*
X156219791Y74623254D02*
X156219791Y80623254D01*
X159469791Y80623254D02*
X159719791Y80623254D01*
%TO.C,T2*%
X139318406Y122101838D02*
X135418406Y122101838D01*
X140668406Y119251838D02*
X140668406Y122101838D01*
X134068406Y122101838D02*
X134068406Y119251838D01*
X134068406Y119251838D02*
X140668406Y119251838D01*
X137368406Y122101838D02*
X134068406Y122101838D01*
X137368406Y122101838D02*
X140668406Y122101838D01*
D12*
%TO.C,MCU1*%
X160318690Y114622348D02*
X160318690Y115302348D01*
X160318690Y110762348D02*
X160318690Y111422348D01*
X160318690Y117842348D02*
X157518690Y117842348D01*
X157518690Y117842348D02*
X157518690Y115842348D01*
X160318690Y112097348D02*
X160318690Y112762348D01*
X157518690Y110762348D02*
X160318690Y110762348D01*
X160318690Y115842348D02*
X160318690Y116522348D01*
X157518690Y112762348D02*
X157518690Y110762348D01*
X160318690Y115302348D02*
X157518690Y115302348D01*
X160318690Y112762348D02*
X157518690Y112762348D01*
X160318690Y117172348D02*
X160318690Y117842348D01*
X160318690Y113302348D02*
X160318690Y113972348D01*
X157518690Y115302348D02*
X157518690Y113302348D01*
X157518690Y113302348D02*
X160318690Y113302348D01*
X157518690Y115842348D02*
X160318690Y115842348D01*
D13*
%TO.C,REF\u002A\u002A*%
X103810924Y75845253D02*
G75*
G03*
X104939309Y75904390I0J10794901D01*
G01*
X103729388Y97462195D02*
G75*
G03*
X102601003Y97403059I-6J-10794921D01*
G01*
X84524789Y93648298D02*
G75*
G03*
X83490924Y89497754I19286255J-7008074D01*
G01*
X104939309Y97376117D02*
G75*
G03*
X103810924Y97435254I-1128385J-10735763D01*
G01*
X102682539Y75904390D02*
G75*
G03*
X103810924Y75845254I1128379J10735785D01*
G01*
X110818973Y105926387D02*
G75*
G03*
X106668424Y106960254I-7008049J-19286133D01*
G01*
X123097058Y79632206D02*
G75*
G03*
X124130924Y83782754I-19286134J7008048D01*
G01*
X104857773Y97403059D02*
G75*
G03*
X103729388Y97462195I-1128379J-10735785D01*
G01*
X96802879Y67354119D02*
G75*
G03*
X100953424Y66320254I7008045J19286135D01*
G01*
X106668424Y66320254D02*
G75*
G03*
X110818969Y67354119I-2857506J20320019D01*
G01*
X83490923Y83782754D02*
G75*
G03*
X84524789Y79632208I20320001J2857500D01*
G01*
X100953424Y106960255D02*
G75*
G03*
X96802878Y105926389I2857500J-20320001D01*
G01*
X103729388Y75872195D02*
G75*
G03*
X104857773Y75931331I6J10794921D01*
G01*
X102601003Y75931331D02*
G75*
G03*
X103729388Y75872195I1128379J10735785D01*
G01*
X124130924Y89497754D02*
G75*
G03*
X123097058Y93648302I-20320000J-2857500D01*
G01*
X103810924Y97435254D02*
G75*
G03*
X102682539Y97376118I-6J-10794921D01*
G01*
G36*
X105810340Y71440839D02*
G01*
X105719496Y71533115D01*
X105705715Y71547111D01*
X105673854Y71579464D01*
X105627907Y71626118D01*
X105569091Y71685836D01*
X105498624Y71757381D01*
X105417725Y71839518D01*
X105327610Y71931011D01*
X105229498Y72030622D01*
X105124606Y72137115D01*
X105014152Y72249255D01*
X104899353Y72365804D01*
X104781428Y72485527D01*
X103934204Y73345664D01*
X104222572Y73348757D01*
X104510940Y73351851D01*
X105313886Y72549151D01*
X105313886Y74182709D01*
X105810340Y74182709D01*
X105810340Y71440839D01*
G37*
D14*
X105810340Y71440839D02*
X105719496Y71533115D01*
X105705715Y71547111D01*
X105673854Y71579464D01*
X105627907Y71626118D01*
X105569091Y71685836D01*
X105498624Y71757381D01*
X105417725Y71839518D01*
X105327610Y71931011D01*
X105229498Y72030622D01*
X105124606Y72137115D01*
X105014152Y72249255D01*
X104899353Y72365804D01*
X104781428Y72485527D01*
X103934204Y73345664D01*
X104222572Y73348757D01*
X104510940Y73351851D01*
X105313886Y72549151D01*
X105313886Y74182709D01*
X105810340Y74182709D01*
X105810340Y71440839D01*
G36*
X103607105Y72236831D02*
G01*
X103604492Y72208436D01*
X103595623Y72161986D01*
X103558070Y72034826D01*
X103502904Y71908963D01*
X103433212Y71790781D01*
X103352081Y71686661D01*
X103343687Y71677495D01*
X103235375Y71577169D01*
X103112955Y71493172D01*
X102979782Y71427193D01*
X102839214Y71380918D01*
X102694606Y71356037D01*
X102594360Y71351554D01*
X102445939Y71362953D01*
X102302520Y71395206D01*
X102166284Y71447229D01*
X102039409Y71517943D01*
X101924076Y71606265D01*
X101822463Y71711114D01*
X101736751Y71831407D01*
X101679496Y71938326D01*
X101626351Y72077562D01*
X101594995Y72222126D01*
X101588491Y72318490D01*
X102083730Y72318490D01*
X102084012Y72313200D01*
X102088330Y72257897D01*
X102095687Y72215605D01*
X102108332Y72176997D01*
X102128513Y72132751D01*
X102150001Y72094424D01*
X102191486Y72035630D01*
X102239543Y71980174D01*
X102288866Y71933980D01*
X102334152Y71902976D01*
X102350319Y71895200D01*
X102391224Y71877840D01*
X102434221Y71861754D01*
X102507048Y71842466D01*
X102610749Y71833945D01*
X102712290Y71846739D01*
X102809076Y71879871D01*
X102898508Y71932364D01*
X102977989Y72003241D01*
X103044923Y72091524D01*
X103073577Y72145669D01*
X103104009Y72239688D01*
X103114581Y72337237D01*
X103106275Y72435185D01*
X103080073Y72530398D01*
X103036960Y72619745D01*
X102977917Y72700091D01*
X102903927Y72768305D01*
X102815975Y72821254D01*
X102801972Y72827540D01*
X102703626Y72858165D01*
X102602274Y72868347D01*
X102501370Y72859027D01*
X102404371Y72831149D01*
X102314735Y72785653D01*
X102235918Y72723483D01*
X102171376Y72645579D01*
X102153606Y72617050D01*
X102109954Y72523627D01*
X102087098Y72425735D01*
X102083730Y72318490D01*
X101588491Y72318490D01*
X101584704Y72374604D01*
X101588265Y72464274D01*
X101610946Y72614553D01*
X101653698Y72756522D01*
X101715508Y72888507D01*
X101795366Y73008832D01*
X101892260Y73115821D01*
X102005180Y73207801D01*
X102133113Y73283094D01*
X102202964Y73315733D01*
X102278102Y73344950D01*
X102349754Y73364442D01*
X102426237Y73376379D01*
X102515872Y73382931D01*
X102533684Y73383599D01*
X102672885Y73377161D01*
X102803268Y73349485D01*
X102925484Y73300381D01*
X103040181Y73229659D01*
X103064315Y73212457D01*
X103089161Y73196114D01*
X103101592Y73189800D01*
X103102500Y73193830D01*
X103103949Y73217637D01*
X103105276Y73260760D01*
X103106445Y73320835D01*
X103107421Y73395497D01*
X103108171Y73482383D01*
X103108660Y73579128D01*
X103108852Y73683368D01*
X103109000Y74176936D01*
X103616704Y73666910D01*
X103616617Y72975196D01*
X103616614Y72963460D01*
X103616353Y72812986D01*
X103615689Y72675714D01*
X103614645Y72553058D01*
X103613242Y72446429D01*
X103611503Y72357240D01*
X103610919Y72337237D01*
X103609450Y72286903D01*
X103607105Y72236831D01*
G37*
X103607105Y72236831D02*
X103604492Y72208436D01*
X103595623Y72161986D01*
X103558070Y72034826D01*
X103502904Y71908963D01*
X103433212Y71790781D01*
X103352081Y71686661D01*
X103343687Y71677495D01*
X103235375Y71577169D01*
X103112955Y71493172D01*
X102979782Y71427193D01*
X102839214Y71380918D01*
X102694606Y71356037D01*
X102594360Y71351554D01*
X102445939Y71362953D01*
X102302520Y71395206D01*
X102166284Y71447229D01*
X102039409Y71517943D01*
X101924076Y71606265D01*
X101822463Y71711114D01*
X101736751Y71831407D01*
X101679496Y71938326D01*
X101626351Y72077562D01*
X101594995Y72222126D01*
X101588491Y72318490D01*
X102083730Y72318490D01*
X102084012Y72313200D01*
X102088330Y72257897D01*
X102095687Y72215605D01*
X102108332Y72176997D01*
X102128513Y72132751D01*
X102150001Y72094424D01*
X102191486Y72035630D01*
X102239543Y71980174D01*
X102288866Y71933980D01*
X102334152Y71902976D01*
X102350319Y71895200D01*
X102391224Y71877840D01*
X102434221Y71861754D01*
X102507048Y71842466D01*
X102610749Y71833945D01*
X102712290Y71846739D01*
X102809076Y71879871D01*
X102898508Y71932364D01*
X102977989Y72003241D01*
X103044923Y72091524D01*
X103073577Y72145669D01*
X103104009Y72239688D01*
X103114581Y72337237D01*
X103106275Y72435185D01*
X103080073Y72530398D01*
X103036960Y72619745D01*
X102977917Y72700091D01*
X102903927Y72768305D01*
X102815975Y72821254D01*
X102801972Y72827540D01*
X102703626Y72858165D01*
X102602274Y72868347D01*
X102501370Y72859027D01*
X102404371Y72831149D01*
X102314735Y72785653D01*
X102235918Y72723483D01*
X102171376Y72645579D01*
X102153606Y72617050D01*
X102109954Y72523627D01*
X102087098Y72425735D01*
X102083730Y72318490D01*
X101588491Y72318490D01*
X101584704Y72374604D01*
X101588265Y72464274D01*
X101610946Y72614553D01*
X101653698Y72756522D01*
X101715508Y72888507D01*
X101795366Y73008832D01*
X101892260Y73115821D01*
X102005180Y73207801D01*
X102133113Y73283094D01*
X102202964Y73315733D01*
X102278102Y73344950D01*
X102349754Y73364442D01*
X102426237Y73376379D01*
X102515872Y73382931D01*
X102533684Y73383599D01*
X102672885Y73377161D01*
X102803268Y73349485D01*
X102925484Y73300381D01*
X103040181Y73229659D01*
X103064315Y73212457D01*
X103089161Y73196114D01*
X103101592Y73189800D01*
X103102500Y73193830D01*
X103103949Y73217637D01*
X103105276Y73260760D01*
X103106445Y73320835D01*
X103107421Y73395497D01*
X103108171Y73482383D01*
X103108660Y73579128D01*
X103108852Y73683368D01*
X103109000Y74176936D01*
X103616704Y73666910D01*
X103616617Y72975196D01*
X103616614Y72963460D01*
X103616353Y72812986D01*
X103615689Y72675714D01*
X103614645Y72553058D01*
X103613242Y72446429D01*
X103611503Y72357240D01*
X103610919Y72337237D01*
X103609450Y72286903D01*
X103607105Y72236831D01*
G36*
X104516572Y72150526D02*
G01*
X104528801Y72140478D01*
X104554283Y72116858D01*
X104590430Y72082145D01*
X104634654Y72038820D01*
X104684367Y71989365D01*
X104845402Y71828021D01*
X104811520Y71790206D01*
X104808343Y71786714D01*
X104786475Y71763505D01*
X104752129Y71727759D01*
X104708313Y71682579D01*
X104658030Y71631066D01*
X104604288Y71576323D01*
X104430938Y71400254D01*
X103810924Y71400254D01*
X103839225Y71433889D01*
X103841518Y71436580D01*
X103862186Y71459809D01*
X103894944Y71495649D01*
X103937804Y71541994D01*
X103988776Y71596737D01*
X104045872Y71657772D01*
X104107102Y71722991D01*
X104170477Y71790289D01*
X104234010Y71857559D01*
X104295709Y71922694D01*
X104353588Y71983588D01*
X104405655Y72038134D01*
X104449924Y72084226D01*
X104484403Y72119757D01*
X104507106Y72142620D01*
X104516041Y72150709D01*
X104516572Y72150526D01*
G37*
X104516572Y72150526D02*
X104528801Y72140478D01*
X104554283Y72116858D01*
X104590430Y72082145D01*
X104634654Y72038820D01*
X104684367Y71989365D01*
X104845402Y71828021D01*
X104811520Y71790206D01*
X104808343Y71786714D01*
X104786475Y71763505D01*
X104752129Y71727759D01*
X104708313Y71682579D01*
X104658030Y71631066D01*
X104604288Y71576323D01*
X104430938Y71400254D01*
X103810924Y71400254D01*
X103839225Y71433889D01*
X103841518Y71436580D01*
X103862186Y71459809D01*
X103894944Y71495649D01*
X103937804Y71541994D01*
X103988776Y71596737D01*
X104045872Y71657772D01*
X104107102Y71722991D01*
X104170477Y71790289D01*
X104234010Y71857559D01*
X104295709Y71922694D01*
X104353588Y71983588D01*
X104405655Y72038134D01*
X104449924Y72084226D01*
X104484403Y72119757D01*
X104507106Y72142620D01*
X104516041Y72150709D01*
X104516572Y72150526D01*
%TO.C,G\u002A\u002A\u002A*%
G36*
X104630151Y54707570D02*
G01*
X104396858Y54643258D01*
X104146747Y54624050D01*
X103810667Y54635225D01*
X103526219Y54656367D01*
X103256312Y54699910D01*
X103120476Y54741218D01*
X103661943Y54741218D01*
X103712212Y54724332D01*
X103895333Y54717727D01*
X104019582Y54720197D01*
X104125956Y54733481D01*
X104085833Y54754419D01*
X103951551Y54768426D01*
X103704833Y54754419D01*
X103661943Y54741218D01*
X103120476Y54741218D01*
X102994058Y54779662D01*
X102876275Y54830486D01*
X104341597Y54830486D01*
X104342908Y54801584D01*
X104452722Y54786018D01*
X104535945Y54799576D01*
X104503875Y54837170D01*
X104454914Y54850698D01*
X104341597Y54830486D01*
X102876275Y54830486D01*
X102687996Y54911729D01*
X102286667Y55112217D01*
X102208282Y55183879D01*
X102132425Y55360900D01*
X102132991Y55368759D01*
X102339283Y55368759D01*
X102397983Y55253540D01*
X102625333Y55143946D01*
X102847118Y55090411D01*
X103223604Y55048327D01*
X103664575Y55034937D01*
X104131166Y55047895D01*
X104584513Y55084850D01*
X104985752Y55143456D01*
X105296017Y55221363D01*
X105476445Y55316223D01*
X105492870Y55337106D01*
X105467648Y55440963D01*
X105285368Y55554542D01*
X104955354Y55671486D01*
X104780003Y55729272D01*
X104492971Y55850367D01*
X104290142Y55968931D01*
X104063133Y56096450D01*
X103778078Y56113650D01*
X103516467Y55966671D01*
X103392165Y55880634D01*
X103135190Y55755590D01*
X102833677Y55645696D01*
X102725675Y55610865D01*
X102448694Y55488302D01*
X102339283Y55368759D01*
X102132991Y55368759D01*
X102140521Y55473243D01*
X102240681Y55587134D01*
X102471092Y55710227D01*
X102577253Y55755334D01*
X102833403Y55842614D01*
X103021004Y55878141D01*
X103048079Y55880318D01*
X103244595Y55951562D01*
X103456560Y56091667D01*
X103505819Y56131487D01*
X103779808Y56277658D01*
X104047205Y56267960D01*
X104345483Y56102867D01*
X104364727Y56089006D01*
X104645319Y55941058D01*
X104941455Y55852737D01*
X105061155Y55830092D01*
X105379092Y55717187D01*
X105594233Y55556210D01*
X105673333Y55369127D01*
X105669109Y55337106D01*
X105668339Y55331266D01*
X105588156Y55214183D01*
X105392697Y55076498D01*
X105059500Y54901081D01*
X104915777Y54831706D01*
X104841849Y54799576D01*
X104689770Y54733481D01*
X104630151Y54707570D01*
G37*
G36*
X107799442Y51985333D02*
G01*
X107620028Y51773667D01*
X107429847Y51994905D01*
X107238073Y52186204D01*
X107023991Y52353234D01*
X106808316Y52490324D01*
X106707046Y52111686D01*
X106629659Y51887333D01*
X106366231Y51462822D01*
X105994214Y51144981D01*
X105540861Y50960708D01*
X105290623Y50892245D01*
X105117737Y50798440D01*
X105105769Y50691711D01*
X105250000Y50565649D01*
X105352742Y50466672D01*
X105378027Y50400075D01*
X105419333Y50291283D01*
X105407101Y50168285D01*
X105337061Y50132079D01*
X105168231Y50205783D01*
X105044914Y50243962D01*
X104964787Y50163450D01*
X104913787Y50081950D01*
X104793044Y50046823D01*
X104691542Y50155644D01*
X104639140Y50215602D01*
X104482532Y50230436D01*
X104399061Y50222079D01*
X104322767Y50286006D01*
X104347863Y50399653D01*
X104516775Y50399653D01*
X104588529Y50406426D01*
X104675489Y50412391D01*
X104770055Y50308474D01*
X104782357Y50267625D01*
X104819397Y50234979D01*
X104870367Y50357285D01*
X104882796Y50393841D01*
X104950581Y50494172D01*
X105050721Y50451053D01*
X105122415Y50405425D01*
X105216964Y50400075D01*
X105205574Y50453346D01*
X105087918Y50542119D01*
X104978257Y50630734D01*
X104904649Y50781812D01*
X104890157Y50872713D01*
X104852119Y50800000D01*
X104777115Y50677619D01*
X104625970Y50516952D01*
X104578370Y50474588D01*
X104516775Y50399653D01*
X104347863Y50399653D01*
X104352613Y50421165D01*
X104488000Y50588333D01*
X104600721Y50708613D01*
X104657333Y50813122D01*
X104638058Y50829097D01*
X104491057Y50857605D01*
X104230892Y50877310D01*
X103895333Y50884667D01*
X103500743Y50875436D01*
X103243987Y50841712D01*
X103133063Y50776462D01*
X103156460Y50672668D01*
X103302667Y50523312D01*
X103412249Y50398914D01*
X103435969Y50339995D01*
X103472000Y50250496D01*
X103416192Y50147763D01*
X103289393Y50129312D01*
X103172536Y50212400D01*
X103114992Y50241809D01*
X103003905Y50148900D01*
X102993052Y50134460D01*
X102887871Y50046615D01*
X102783433Y50101500D01*
X102715286Y50151084D01*
X102523733Y50207333D01*
X102469490Y50213637D01*
X102380726Y50295190D01*
X102401931Y50411615D01*
X102582325Y50411615D01*
X102641196Y50409547D01*
X102727380Y50413538D01*
X102813434Y50308474D01*
X102825393Y50257281D01*
X102862678Y50220838D01*
X102937544Y50330334D01*
X102972231Y50386915D01*
X103058980Y50448307D01*
X103188640Y50375229D01*
X103250894Y50330200D01*
X103265299Y50339995D01*
X103165277Y50463896D01*
X103025462Y50647764D01*
X102939127Y50800000D01*
X102938865Y50800718D01*
X102900071Y50877530D01*
X102886018Y50789160D01*
X102832576Y50660603D01*
X102688833Y50509234D01*
X102669500Y50494616D01*
X102582325Y50411615D01*
X102401931Y50411615D01*
X102405276Y50429982D01*
X102540667Y50565649D01*
X102631006Y50631564D01*
X102701167Y50756732D01*
X102606699Y50856951D01*
X102350167Y50927352D01*
X102337828Y50929377D01*
X101861255Y51091629D01*
X101460784Y51391861D01*
X101171089Y51804285D01*
X101087814Y51998086D01*
X101023345Y52239840D01*
X100993408Y52536258D01*
X100988903Y52944280D01*
X100988860Y52981843D01*
X101209666Y52981843D01*
X101243855Y52458080D01*
X101403259Y51986486D01*
X101675834Y51597674D01*
X102049535Y51322256D01*
X102087740Y51303624D01*
X102276097Y51225150D01*
X102480546Y51170693D01*
X102739395Y51134516D01*
X103090955Y51110884D01*
X103573535Y51094059D01*
X104144697Y51085675D01*
X104763194Y51103676D01*
X105251581Y51160229D01*
X105630819Y51261432D01*
X105921870Y51413383D01*
X106145694Y51622178D01*
X106323254Y51893915D01*
X106424529Y52130475D01*
X106506471Y52510221D01*
X106495436Y52859890D01*
X106388576Y53125717D01*
X106373639Y53146821D01*
X106266099Y53356554D01*
X106176048Y53613628D01*
X106118673Y53792155D01*
X106046930Y53880658D01*
X105944947Y53858602D01*
X105924596Y53849158D01*
X105746335Y53789770D01*
X105464680Y53713483D01*
X105130784Y53634382D01*
X105065628Y53620603D01*
X104366584Y53533659D01*
X103602673Y53530520D01*
X102846225Y53608041D01*
X102169571Y53763080D01*
X101877909Y53846803D01*
X101618710Y53880246D01*
X101452449Y53816468D01*
X101344247Y53638916D01*
X101259226Y53331036D01*
X101209666Y52981843D01*
X100988860Y52981843D01*
X100988570Y53237704D01*
X100973264Y53515229D01*
X100937135Y53672581D01*
X100876186Y53737889D01*
X100832845Y53765392D01*
X100703348Y53921409D01*
X100570098Y54152370D01*
X100466010Y54396190D01*
X100424000Y54590787D01*
X100417492Y54631718D01*
X100326503Y54805426D01*
X100162447Y54996326D01*
X100006162Y55166417D01*
X100623034Y55166417D01*
X100677891Y54610457D01*
X100712798Y54490235D01*
X100833625Y54214049D01*
X100973471Y54018144D01*
X101171612Y53832000D01*
X101324621Y54065520D01*
X101331980Y54077211D01*
X101424587Y54337259D01*
X101472045Y54698011D01*
X101473874Y55100552D01*
X101429593Y55485965D01*
X101338723Y55795333D01*
X101324513Y55826852D01*
X101220312Y56070303D01*
X101146909Y56261000D01*
X101133108Y56298654D01*
X101086548Y56353984D01*
X101015508Y56294714D01*
X100892074Y56103603D01*
X100715494Y55709602D01*
X100623034Y55166417D01*
X100006162Y55166417D01*
X99931662Y55247498D01*
X99586687Y55808695D01*
X99368912Y56467274D01*
X99280310Y57211605D01*
X99291634Y57429453D01*
X99577333Y57429453D01*
X99591598Y56996053D01*
X99672256Y56449611D01*
X99836742Y55973902D01*
X100099358Y55516515D01*
X100311877Y55203765D01*
X100454579Y55717039D01*
X100512624Y55897483D01*
X100660243Y56225386D01*
X100822024Y56455054D01*
X101046766Y56679797D01*
X100767747Y57469373D01*
X100690937Y57692082D01*
X100594480Y57991971D01*
X100535123Y58204433D01*
X100523469Y58293691D01*
X100533327Y58296156D01*
X100669931Y58305891D01*
X100952109Y58317554D01*
X101361589Y58330639D01*
X101880102Y58344643D01*
X102489378Y58359060D01*
X103171145Y58373386D01*
X103907135Y58387118D01*
X104795177Y58401149D01*
X105579608Y58409805D01*
X106208620Y58411980D01*
X106689312Y58407606D01*
X107028786Y58396614D01*
X107234143Y58378938D01*
X107312483Y58354508D01*
X107307050Y58248229D01*
X107249196Y58017387D01*
X107148276Y57697411D01*
X107014266Y57322808D01*
X106659625Y56382404D01*
X105807568Y56406369D01*
X104955512Y56430333D01*
X104261764Y58123667D01*
X103601220Y58123667D01*
X103254393Y57277000D01*
X102907567Y56430333D01*
X102164569Y56405736D01*
X102121125Y56404380D01*
X101791435Y56396045D01*
X101586381Y56374134D01*
X101487795Y56308177D01*
X101477510Y56167705D01*
X101537359Y55922247D01*
X101649173Y55541333D01*
X101717659Y55233477D01*
X101720290Y55100552D01*
X101729460Y54637344D01*
X101676032Y54199020D01*
X102256516Y54013069D01*
X102381603Y53976360D01*
X102909152Y53870313D01*
X103513967Y53806463D01*
X104136441Y53787253D01*
X104716969Y53815128D01*
X105195943Y53892532D01*
X105246688Y53909326D01*
X106351494Y53909326D01*
X106390368Y53730301D01*
X106518490Y53441811D01*
X106708946Y53115634D01*
X106933603Y52799169D01*
X107164329Y52539817D01*
X107196620Y52510221D01*
X107369582Y52351693D01*
X107543381Y52209176D01*
X107635814Y52154667D01*
X107659990Y52167971D01*
X107696983Y52296558D01*
X107704551Y52522068D01*
X107685264Y52795410D01*
X107641694Y53067490D01*
X107576409Y53289213D01*
X107523846Y53397075D01*
X107350897Y53671777D01*
X107145022Y53932562D01*
X106977735Y54111678D01*
X106854785Y54204283D01*
X106744974Y54207257D01*
X106596613Y54140169D01*
X106584045Y54133534D01*
X106419054Y54015990D01*
X106351494Y53909326D01*
X105246688Y53909326D01*
X105885072Y54120600D01*
X106577636Y54472478D01*
X107178727Y54912535D01*
X107663451Y55422255D01*
X108006911Y55983122D01*
X108086050Y56163499D01*
X108172071Y56405438D01*
X108220933Y56648424D01*
X108242355Y56948489D01*
X108246059Y57361667D01*
X108233847Y57779333D01*
X108144551Y58506649D01*
X107955106Y59186223D01*
X107649351Y59886437D01*
X107444161Y60251778D01*
X106969924Y60864119D01*
X106392712Y61346115D01*
X105704860Y61703495D01*
X104898703Y61941985D01*
X104848022Y61952616D01*
X104556096Y62016566D01*
X104344460Y62067479D01*
X104255967Y62095145D01*
X104253630Y62102716D01*
X104279213Y62214187D01*
X104350757Y62407500D01*
X104426846Y62619207D01*
X104524172Y62978858D01*
X104595789Y63347712D01*
X104631429Y63669494D01*
X104620827Y63887926D01*
X104559249Y64018007D01*
X104397400Y64092667D01*
X104368545Y64090770D01*
X104202876Y63985839D01*
X104080976Y63726886D01*
X104005724Y63322946D01*
X103980000Y62783053D01*
X103973060Y62468386D01*
X103951015Y62210475D01*
X103920090Y62080986D01*
X103886732Y62089934D01*
X103857386Y62247336D01*
X103838501Y62563209D01*
X103811962Y62865990D01*
X103708895Y63278090D01*
X103543192Y63593086D01*
X103329296Y63776561D01*
X103236143Y63809953D01*
X103059528Y63789447D01*
X102955656Y63620138D01*
X102921667Y63298676D01*
X102969683Y62962479D01*
X103147334Y62640621D01*
X103284157Y62452524D01*
X103395912Y62237979D01*
X103371634Y62097781D01*
X103200337Y62003552D01*
X102871037Y61926916D01*
X102514894Y61842944D01*
X101790956Y61553262D01*
X101153053Y61128956D01*
X100610423Y60582637D01*
X100172300Y59926916D01*
X99847920Y59174405D01*
X99646519Y58337713D01*
X99577333Y57429453D01*
X99291634Y57429453D01*
X99322854Y58030057D01*
X99498516Y58910998D01*
X99714637Y59564422D01*
X100100594Y60336015D01*
X100591518Y60989912D01*
X101178665Y61516989D01*
X101853291Y61908122D01*
X102606652Y62154187D01*
X102820479Y62201611D01*
X103026705Y62250687D01*
X103116352Y62276777D01*
X103113828Y62297299D01*
X103049179Y62420230D01*
X102925852Y62612889D01*
X102787409Y62875491D01*
X102704290Y63251560D01*
X102747669Y63602480D01*
X102917818Y63884849D01*
X103037321Y63996981D01*
X103184764Y64076560D01*
X103334198Y64037237D01*
X103544308Y63878407D01*
X103798941Y63664147D01*
X103910637Y63896498D01*
X104042017Y64082620D01*
X104249381Y64256116D01*
X104383944Y64323239D01*
X104511315Y64328022D01*
X104651548Y64224903D01*
X104749675Y64085694D01*
X104821521Y63771329D01*
X104805796Y63344949D01*
X104701780Y62826604D01*
X104654589Y62630014D01*
X104618996Y62419930D01*
X104623079Y62320699D01*
X104692549Y62291120D01*
X104889183Y62236755D01*
X105159750Y62176064D01*
X105646798Y62044555D01*
X106358391Y61718224D01*
X106980856Y61258241D01*
X107507025Y60675014D01*
X107929730Y59978953D01*
X108241804Y59180466D01*
X108436078Y58289961D01*
X108502260Y57361667D01*
X108505384Y57317846D01*
X108505914Y57062525D01*
X108499961Y56708150D01*
X108478003Y56449785D01*
X108431675Y56240285D01*
X108352614Y56032507D01*
X108232459Y55779309D01*
X107973312Y55341863D01*
X107496756Y54796888D01*
X107038261Y54377850D01*
X107294885Y54134092D01*
X107535219Y53850123D01*
X107752833Y53458525D01*
X107897385Y53036541D01*
X107959553Y52623879D01*
X107951282Y52522068D01*
X107930013Y52260241D01*
X107799442Y51985333D01*
G37*
%TD*%
D15*
%TO.C,PAD1*%
X135109791Y108738254D03*
X135109791Y110738254D03*
X135109791Y112738254D03*
%TD*%
D16*
%TO.C,MCU1*%
X161977213Y114302348D03*
X161977213Y111762348D03*
X146737213Y111762348D03*
X146737213Y116926094D03*
X161977213Y116842348D03*
X146737213Y114302348D03*
X146737213Y109222348D03*
X146737213Y106682348D03*
X146737213Y104142348D03*
X146737213Y101602348D03*
X146737213Y99062348D03*
X146737213Y96522348D03*
X146737213Y93982348D03*
X146737213Y91442348D03*
X146737213Y88902348D03*
X161977213Y109222348D03*
X161977213Y106682348D03*
X161977213Y104142348D03*
X161977213Y101602348D03*
X161977213Y99062348D03*
X161977213Y96522348D03*
X161977213Y93982348D03*
X161977213Y91442348D03*
X161977213Y88902348D03*
%TD*%
%LPC*%
D17*
%TO.C,*%
X159112791Y38507254D03*
%TD*%
%TO.C,*%
X49130791Y40793254D03*
%TD*%
%TO.C,*%
X50146791Y115215254D03*
%TD*%
D18*
%TO.C,B1*%
X157969791Y80873254D03*
X157969791Y74373254D03*
%TD*%
D19*
%TO.C,S11*%
X65970667Y103790002D03*
D20*
X75659968Y109306336D03*
X70353903Y110604673D03*
D21*
X71387110Y104745067D03*
D19*
X76803553Y105700132D03*
D20*
X65811891Y107569854D03*
D22*
X67128657Y110035975D03*
D23*
X67122934Y100134557D03*
X76971012Y101871038D03*
D22*
X78885214Y109875034D03*
D23*
X72411634Y98934701D03*
%TD*%
D20*
%TO.C,S15*%
X88913836Y100414117D03*
X93703066Y103041525D03*
X98875783Y101285675D03*
D21*
X94221643Y97114167D03*
D19*
X99700714Y97593524D03*
X88742572Y96634810D03*
D23*
X89571861Y92892848D03*
D24*
X90440528Y102756090D03*
D23*
X99533808Y93764406D03*
D24*
X102138320Y101571110D03*
D23*
X94735862Y91236618D03*
%TD*%
D20*
%TO.C,S21*%
X120424791Y91827253D03*
D19*
X109924791Y88077254D03*
X120924791Y88077254D03*
D21*
X115424791Y88077254D03*
D20*
X115424791Y94027254D03*
X110424791Y91827253D03*
D25*
X112149790Y94027254D03*
D23*
X120424791Y84277254D03*
X110424791Y84277254D03*
X115424791Y82177254D03*
D25*
X123699791Y91827253D03*
%TD*%
D26*
%TO.C,T2*%
X141068406Y121851838D03*
X133668406Y121851838D03*
X141068406Y119651838D03*
X133668406Y119651838D03*
D27*
X135868406Y120751838D03*
X138868406Y120751838D03*
D28*
X135118406Y118676838D03*
X138118406Y118676838D03*
X139618406Y118676838D03*
%TD*%
D20*
%TO.C,S29*%
X128599495Y99294490D03*
D21*
X133599495Y95544491D03*
D20*
X133599495Y101494491D03*
D19*
X128099495Y95544491D03*
X139099495Y95544491D03*
D20*
X138599495Y99294490D03*
D23*
X128599495Y91744491D03*
X138599495Y91744491D03*
D25*
X130324494Y101494491D03*
D23*
X133599495Y89644491D03*
D25*
X141874495Y99294490D03*
%TD*%
D19*
%TO.C,S33*%
X156238501Y43549992D03*
D20*
X148171536Y51246522D03*
X157306990Y47179155D03*
D19*
X146189501Y48024096D03*
D20*
X153634084Y51222639D03*
D21*
X151214001Y45787044D03*
D29*
X150642222Y52554702D03*
D23*
X154236129Y40281888D03*
X145100674Y44349254D03*
X148814255Y40397126D03*
D29*
X160298852Y45847093D03*
%TD*%
D20*
%TO.C,S7*%
X81564006Y75822872D03*
X76257941Y77121209D03*
D19*
X71874705Y70306538D03*
D20*
X71715929Y74086390D03*
D21*
X77291148Y71261603D03*
D19*
X82707591Y72216668D03*
D23*
X82875050Y68387574D03*
D22*
X73032695Y76552511D03*
D23*
X73026972Y66651093D03*
D22*
X84789252Y76391570D03*
D23*
X78315672Y65451237D03*
%TD*%
D30*
%TO.C,PAD1*%
X135109791Y108738254D03*
X135109791Y110738254D03*
X135109791Y112738254D03*
%TD*%
D20*
%TO.C,S5*%
X56527389Y87777963D03*
D21*
X52842259Y82729963D03*
D20*
X51102647Y88419976D03*
D19*
X47582583Y81121919D03*
D20*
X46964342Y84854246D03*
D19*
X58101935Y84338007D03*
D23*
X58734795Y80557863D03*
D31*
X47970748Y87462459D03*
D23*
X49171748Y77634146D03*
D31*
X59659287Y88735481D03*
D23*
X54567252Y77087765D03*
%TD*%
D20*
%TO.C,S27*%
X133599495Y84494491D03*
D19*
X128099495Y78544491D03*
D20*
X138599495Y82294490D03*
D19*
X139099495Y78544491D03*
D20*
X128599495Y82294490D03*
D21*
X133599495Y78544491D03*
D23*
X138599495Y74744491D03*
D25*
X130324494Y84494491D03*
D23*
X128599495Y74744491D03*
X133599495Y72644491D03*
D25*
X141874495Y82294490D03*
%TD*%
D20*
%TO.C,S9*%
X78611987Y92564604D03*
D19*
X68922686Y87048270D03*
D21*
X74339129Y88003335D03*
D20*
X73305922Y93862941D03*
D19*
X79755572Y88958400D03*
D20*
X68763910Y90828122D03*
D23*
X79923031Y85129306D03*
X70074953Y83392825D03*
D22*
X70080676Y93294243D03*
X81837233Y93133302D03*
D23*
X75363653Y82192969D03*
%TD*%
D20*
%TO.C,S13*%
X90395484Y83478807D03*
X100357431Y84350365D03*
D19*
X101182362Y80658214D03*
D20*
X95184714Y86106215D03*
D19*
X90224220Y79699500D03*
D21*
X95703291Y80178857D03*
D23*
X91053509Y75957538D03*
D24*
X91922176Y85820780D03*
D23*
X101015456Y76829096D03*
X96217510Y74301308D03*
D24*
X103619968Y84635800D03*
%TD*%
D20*
%TO.C,S17*%
X92221419Y119976835D03*
D19*
X98219067Y114528834D03*
D20*
X97394136Y118220985D03*
D19*
X87260925Y113570120D03*
D20*
X87432189Y117349427D03*
D21*
X92739996Y114049477D03*
D24*
X88958881Y119691400D03*
D23*
X98052161Y110699716D03*
X88090214Y109828158D03*
X93254215Y108171928D03*
D24*
X100656673Y118506420D03*
%TD*%
D20*
%TO.C,S31*%
X137500399Y54407457D03*
X127623515Y55971802D03*
D21*
X131975328Y51485799D03*
D19*
X126543042Y52346189D03*
X137407614Y50625409D03*
D20*
X132906113Y57362545D03*
D23*
X136319319Y46950411D03*
X126442435Y48514756D03*
D32*
X129671433Y57874868D03*
X140735078Y53895134D03*
D23*
X131052365Y45658438D03*
%TD*%
D33*
%TO.C,MCU1*%
X161977213Y114302348D03*
D34*
X159643690Y114302348D03*
D33*
X161977213Y111762348D03*
D35*
X160593690Y116842348D03*
D33*
X146737213Y111762348D03*
D35*
X160593690Y114302348D03*
X160593690Y111762348D03*
D34*
X159643690Y111762348D03*
X159643690Y116842348D03*
D33*
X146737213Y116926094D03*
X161977213Y116842348D03*
X146737213Y114302348D03*
D36*
X158193690Y116842348D03*
X158193690Y114302348D03*
X158193690Y111762348D03*
D33*
X146737213Y109222348D03*
X146737213Y106682348D03*
X146737213Y104142348D03*
X146737213Y101602348D03*
X146737213Y99062348D03*
X146737213Y96522348D03*
X146737213Y93982348D03*
X146737213Y91442348D03*
X146737213Y88902348D03*
X161977213Y109222348D03*
X161977213Y106682348D03*
X161977213Y104142348D03*
X161977213Y101602348D03*
X161977213Y99062348D03*
X161977213Y96522348D03*
X161977213Y93982348D03*
X161977213Y91442348D03*
X161977213Y88902348D03*
%TD*%
D19*
%TO.C,S3*%
X52552902Y64864738D03*
X63072254Y68080826D03*
D20*
X56072966Y72162795D03*
X51934661Y68597065D03*
X61497708Y71520782D03*
D21*
X57812578Y66472782D03*
D23*
X54142067Y61376965D03*
D31*
X52941067Y71205278D03*
D23*
X63705114Y64300682D03*
X59537571Y60830584D03*
D31*
X64629606Y72478300D03*
%TD*%
D37*
%TO.C,REF\u002A\u002A*%
X84760924Y86640254D03*
X103810924Y67590254D03*
X103810924Y105690254D03*
%TD*%
D19*
%TO.C,S23*%
X120924791Y105077254D03*
D20*
X110424791Y108827253D03*
X115424791Y111027254D03*
X120424791Y108827253D03*
D21*
X115424791Y105077254D03*
D19*
X109924791Y105077254D03*
D25*
X112149790Y111027254D03*
D23*
X120424791Y101277254D03*
X110424791Y101277254D03*
X115424791Y99177254D03*
D25*
X123699791Y108827253D03*
%TD*%
D20*
%TO.C,S19*%
X120424791Y74827253D03*
D19*
X120924791Y71077254D03*
X109924791Y71077254D03*
D21*
X115424791Y71077254D03*
D20*
X115424791Y77027254D03*
X110424791Y74827253D03*
D25*
X112149790Y77027254D03*
D23*
X110424791Y67277254D03*
X120424791Y67277254D03*
D25*
X123699791Y74827253D03*
D23*
X115424791Y65177254D03*
%TD*%
M02*
