M48
; DRILL file {KiCad 7.0.2} date Wed Mar 27 11:13:33 2024
; FORMAT={-:-/ absolute / inch / decimal}
; #@! TF.CreationDate,2024-03-27T11:13:33+01:00
; #@! TF.GenerationSoftware,Kicad,Pcbnew,7.0.2
; #@! TF.FileFunction,NonPlated,1,2,NPTH
FMAT,2
INCH
; #@! TA.AperFunction,NonPlated,NPTH,ComponentDrill
T1C0.0670
; #@! TA.AperFunction,NonPlated,NPTH,ComponentDrill
T2C0.1181
; #@! TA.AperFunction,NonPlated,NPTH,ComponentDrill
T3C0.1570
%
G90
G05
T2
X1.5115Y-2.3459
X1.5443Y-2.4042
X1.7049Y-1.6227
X1.7241Y-2.3132
X1.7377Y-1.6809
X1.8117Y-2.3723
X1.8917Y-2.4479
X1.9174Y-1.59
X2.005Y-1.649
X2.085Y-1.7247
X2.1609Y-2.9108
X2.1864Y-2.9726
X2.3759Y-2.9042
X2.4412Y-2.2173
X2.4557Y-2.9736
X2.4666Y-2.2791
X2.5258Y-3.0584
X2.6561Y-2.2107
X2.7214Y-1.5237
X2.7359Y-2.28
X2.7468Y-1.5855
X2.8061Y-2.3648
X2.9363Y-1.5171
X2.988Y-3.0205
X3.008Y-3.0843
X3.0161Y-1.5864
X3.0863Y-1.6713
X3.2027Y-3.0327
X3.2762Y-3.1087
X3.3276Y-2.354
X3.3387Y-3.1993
X3.3476Y-2.4178
X3.4051Y-4.297
X3.425Y-4.3608
X3.5423Y-2.3662
X3.5923Y-3.5191
X3.6123Y-3.5829
X3.6158Y-2.4422
X3.6198Y-4.3092
X3.6672Y-1.6875
X3.6783Y-2.5328
X3.6872Y-1.7513
X3.6932Y-4.3852
X3.7557Y-4.4758
X3.807Y-3.5313
X3.8804Y-3.6073
X3.8819Y-1.6997
X3.9319Y-2.8526
X3.9429Y-3.6979
X3.9519Y-2.9164
X3.9554Y-1.7757
X4.0063Y-4.8032
X4.0179Y-1.8663
X4.0263Y-4.867
X4.1466Y-2.8648
X4.22Y-2.9408
X4.2211Y-4.8154
X4.2715Y-2.1861
X4.2825Y-3.0314
X4.2915Y-2.2499
X4.2945Y-4.8914
X4.357Y-4.982
X4.4862Y-2.1983
X4.4876Y-3.4467
X4.5076Y-3.5105
X4.5596Y-2.2743
X4.6221Y-2.3649
X4.7024Y-3.4589
X4.7758Y-3.5349
X4.8272Y-2.7802
X4.8383Y-3.6255
X4.8472Y-2.844
X5.042Y-2.7924
X5.1154Y-2.8684
X5.1779Y-2.959
X6.8652Y-2.9588
X6.9285Y-2.9801
X7.0013Y-2.7922
X7.1059Y-2.7775
X7.2048Y-3.6253
X7.216Y-2.7802
X7.2681Y-3.6466
X7.3409Y-3.4587
X7.421Y-2.3647
X7.4455Y-3.444
X7.4843Y-2.386
X7.5556Y-3.4467
X7.557Y-2.1981
X7.6617Y-2.1834
X7.6861Y-4.9818
X7.7494Y-5.0031
X7.7606Y-3.0312
X7.7717Y-2.1861
X7.8222Y-4.8152
X7.8239Y-3.0525
X7.8966Y-2.8646
X7.9268Y-4.8005
X8.0013Y-2.8499
X8.0169Y-1.8692
X8.0369Y-4.8032
X8.0803Y-1.8905
X8.1002Y-3.6977
X8.1113Y-2.8526
X8.153Y-1.7026
X8.1635Y-3.719
X8.2362Y-3.5311
X8.2576Y-1.6879
X8.2874Y-4.4756
X8.3408Y-3.5164
X8.3507Y-4.4969
X8.3565Y-2.5357
X8.3677Y-1.6906
X8.4198Y-2.557
X8.4234Y-4.309
X8.4509Y-3.5191
X8.4926Y-2.3691
X8.5281Y-4.2943
X8.5972Y-2.3544
X8.6381Y-4.297
X8.6961Y-3.2022
X8.7073Y-2.3571
X8.7594Y-3.2235
X8.8322Y-3.0356
X8.9368Y-3.0209
X8.9485Y-1.6741
X9.0098Y-1.7009
X9.0469Y-3.0236
X9.0986Y-1.5201
X9.2041Y-1.5145
X9.2287Y-2.3677
X9.29Y-2.3945
X9.3135Y-1.5268
X9.3788Y-2.2137
X9.4843Y-2.2081
X9.509Y-3.0613
X9.5702Y-3.088
X9.5937Y-2.2204
X9.659Y-2.9072
X9.7645Y-2.9017
X9.874Y-2.9139
X9.9493Y-1.7282
X10.0068Y-1.7622
X10.117Y-1.5936
X10.1431Y-2.4509
X10.2006Y-2.4849
X10.2224Y-1.6009
X10.3108Y-2.3162
X10.3295Y-1.6264
X10.4162Y-2.3236
X10.5233Y-2.3491
T3
X1.6635Y-2.5395
X1.8568Y-1.8162
X2.2882Y-3.1214
X2.5684Y-2.4279
X2.8486Y-1.7343
X3.0964Y-3.2414
X3.436Y-2.5749
X3.5134Y-4.5179
X3.7007Y-3.74
X3.7756Y-1.9084
X4.0403Y-3.0735
X4.1147Y-5.0241
X4.3799Y-2.407
X4.596Y-3.6676
X4.9356Y-3.0011
X7.1076Y-3.0009
X7.4472Y-3.6674
X7.6634Y-2.4068
X7.9285Y-5.024
X8.003Y-3.0733
X8.2593Y-1.9113
X8.3426Y-3.7398
X8.5298Y-4.5177
X8.5989Y-2.5778
X8.9385Y-3.2443
X9.1863Y-1.7373
X9.4666Y-2.4309
X9.7468Y-3.1244
X10.1776Y-1.8198
X10.3715Y-2.5425
T1
G00X1.4512Y-2.4826
M15
G01X1.4892Y-2.4928
M16
G05
G00X1.6445Y-1.7593
M15
G01X1.6825Y-1.7695
M16
G05
G00X1.8375Y-2.5863
M15
G01X1.8756Y-2.5964
M16
G05
G00X2.0308Y-1.863
M15
G01X2.0689Y-1.8732
M16
G05
G00X2.0844Y-3.0391
M15
G01X2.1209Y-3.0538
M16
G05
G00X2.3646Y-2.3455
M15
G01X2.4011Y-2.3603
M16
G05
G00X2.4552Y-3.1891
M15
G01X2.4917Y-3.2038
M16
G05
G00X2.6448Y-1.652
M15
G01X2.6813Y-1.6667
M16
G05
G00X2.7354Y-2.4955
M15
G01X2.7719Y-2.5103
M16
G05
G00X2.9006Y-3.1416
M15
G01X2.9357Y-3.1595
M16
G05
G00X3.0156Y-1.8019
M15
G01X3.0521Y-1.8167
M16
G05
G00X3.2402Y-2.4751
M15
G01X3.2753Y-2.493
M16
G05
G00X3.2569Y-3.3233
M15
G01X3.292Y-3.3412
M16
G05
G00X3.3176Y-4.4181
M15
G01X3.3527Y-4.436
M16
G05
G00X3.5048Y-3.6402
M15
G01X3.5399Y-3.6581
M16
G05
G00X3.5798Y-1.8086
M15
G01X3.6149Y-1.8265
M16
G05
G00X3.5965Y-2.6568
M15
G01X3.6316Y-2.6747
M16
G05
G00X3.674Y-4.5998
M15
G01X3.709Y-4.6177
M16
G05
G00X3.8444Y-2.9737
M15
G01X3.8795Y-2.9916
M16
G05
G00X3.8612Y-3.8219
M15
G01X3.8963Y-3.8398
M16
G05
G00X3.9189Y-4.9243
M15
G01X3.954Y-4.9422
M16
G05
G00X3.9361Y-1.9903
M15
G01X3.9712Y-2.0082
M16
G05
G00X4.184Y-2.3072
M15
G01X4.2191Y-2.3251
M16
G05
G00X4.2008Y-3.1554
M15
G01X4.2359Y-3.1733
M16
G05
G00X4.2752Y-5.1061
M15
G01X4.3103Y-5.1239
M16
G05
G00X4.4002Y-3.5678
M15
G01X4.4353Y-3.5857
M16
G05
G00X4.5404Y-2.4889
M15
G01X4.5755Y-2.5068
M16
G05
G00X4.7398Y-2.9013
M15
G01X4.7749Y-2.9192
M16
G05
G00X4.7565Y-3.7496
M15
G01X4.7916Y-3.7674
M16
G05
G00X5.0961Y-3.0831
M15
G01X5.1312Y-3.1009
M16
G05
G00X6.9118Y-3.1007
M15
G01X6.9469Y-3.0828
M16
G05
G00X7.2514Y-3.7672
M15
G01X7.2865Y-3.7493
M16
G05
G00X7.2683Y-2.9192
M15
G01X7.3033Y-2.9014
M16
G05
G00X7.4675Y-2.5066
M15
G01X7.5026Y-2.4887
M16
G05
G00X7.6079Y-3.5857
M15
G01X7.6429Y-3.5679
M16
G05
G00X7.7327Y-5.1237
M15
G01X7.7678Y-5.1058
M16
G05
G00X7.8071Y-3.1731
M15
G01X7.8422Y-3.1552
M16
G05
G00X7.824Y-2.3251
M15
G01X7.8591Y-2.3073
M16
G05
G00X8.0635Y-2.0111
M15
G01X8.0986Y-1.9932
M16
G05
G00X8.0891Y-4.9423
M15
G01X8.1242Y-4.9244
M16
G05
G00X8.1467Y-3.8396
M15
G01X8.1818Y-3.8217
M16
G05
G00X8.1636Y-2.9916
M15
G01X8.1987Y-2.9738
M16
G05
G00X8.334Y-4.6175
M15
G01X8.369Y-4.5996
M16
G05
G00X8.4031Y-2.6776
M15
G01X8.4382Y-2.6597
M16
G05
G00X8.42Y-1.8296
M15
G01X8.455Y-1.8118
M16
G05
G00X8.5032Y-3.6581
M15
G01X8.5383Y-3.6403
M16
G05
G00X8.6904Y-4.436
M15
G01X8.7255Y-4.4182
M16
G05
G00X8.7427Y-3.3441
M15
G01X8.7778Y-3.3262
M16
G05
G00X8.7596Y-2.4961
M15
G01X8.7946Y-2.4783
M16
G05
G00X8.9826Y-1.8196
M15
G01X9.0191Y-1.8048
M16
G05
G00X9.0992Y-3.1626
M15
G01X9.1342Y-3.1448
M16
G05
G00X9.2628Y-2.5132
M15
G01X9.2993Y-2.4984
M16
G05
G00X9.3535Y-1.6699
M15
G01X9.39Y-1.6552
M16
G05
G00X9.543Y-3.2067
M15
G01X9.5795Y-3.192
M16
G05
G00X9.6337Y-2.3635
M15
G01X9.6702Y-2.3487
M16
G05
G00X9.9139Y-3.057
M15
G01X9.9504Y-3.0423
M16
G05
G00X9.9653Y-1.8767
M15
G01X10.0033Y-1.8665
M16
G05
G00X10.1592Y-2.5994
M15
G01X10.1972Y-2.5892
M16
G05
G00X10.3517Y-1.7733
M15
G01X10.3898Y-1.7631
M16
G05
G00X10.5456Y-2.496
M15
G01X10.5836Y-2.4858
M16
G05
T0
M30
