M48
; DRILL file {KiCad 7.0.2} date Wed Mar 27 11:13:33 2024
; FORMAT={-:-/ absolute / inch / decimal}
; #@! TF.CreationDate,2024-03-27T11:13:33+01:00
; #@! TF.GenerationSoftware,Kicad,Pcbnew,7.0.2
; #@! TF.FileFunction,Plated,1,2,PTH
FMAT,2
INCH
; #@! TA.AperFunction,Plated,PTH,ViaDrill
T1C0.0157
; #@! TA.AperFunction,Plated,PTH,ComponentDrill
T2C0.0320
; #@! TA.AperFunction,Plated,PTH,ComponentDrill
T3C0.0354
; #@! TA.AperFunction,Plated,PTH,ComponentDrill
T4C0.0394
; #@! TA.AperFunction,Plated,PTH,ComponentDrill
T5C0.0430
; #@! TA.AperFunction,Plated,PTH,ComponentDrill
T6C0.0472
; #@! TA.AperFunction,Plated,PTH,ComponentDrill
T7C0.0500
; #@! TA.AperFunction,Plated,PTH,ComponentDrill
T8C0.0512
; #@! TA.AperFunction,Plated,PTH,ComponentDrill
T9C0.0591
; #@! TA.AperFunction,Plated,PTH,ComponentDrill
T10C0.1260
%
G90
G05
T1
X4.34Y-3.2412
X4.47Y-3.24
X4.5787Y-4.2811
X4.6751Y-4.0587
X4.6968Y-4.2831
X4.805Y-4.0154
X4.8188Y-4.2654
X4.8326Y-4.6295
X4.92Y-4.01
X4.9645Y-4.5724
X4.98Y-3.9
X5.0098Y-3.9798
X5.01Y-4.16
X5.015Y-3.485
X5.04Y-3.93
X5.1Y-3.65
X5.105Y-3.285
X5.12Y-3.49
X5.13Y-4.26
X5.15Y-4.3704
X5.16Y-4.5
X5.17Y-3.52
X5.19Y-3.25
X5.29Y-3.2458
X5.43Y-4.03
X5.49Y-3.86
X5.5019Y-3.2476
X5.5058Y-3.039
X5.5098Y-4.6945
X5.54Y-4.36
X5.55Y-3.65
X5.5944Y-4.3106
X5.6Y-3.86
X5.61Y-4.07
X5.6535Y-4.1413
X5.6574Y-3.2122
X5.7027Y-4.3323
X5.7755Y-4.3244
X5.78Y-3.01
X5.7893Y-3.1787
X5.7893Y-4.2732
X5.8178Y-3.6965
X5.8198Y-3.9012
X5.82Y-3.25
X5.8503Y-3.0232
X5.8621Y-4.2575
X5.9094Y-4.3579
X6.0983Y-4.3224
X6.1082Y-4.6256
X6.1456Y-4.3736
X6.1515Y-4.2909
X6.1987Y-4.2811
X6.2775Y-4.352
X6.307Y-4.2713
X6.4231Y-4.3244
X6.44Y-3.22
X6.4448Y-4.2516
X6.4468Y-4.1118
X6.45Y-4.17
X6.47Y-3.57
X6.47Y-3.74
X6.49Y-3.08
X6.498Y-4.3264
X6.51Y-4.42
X6.52Y-3.51
X6.53Y-3.83
X6.56Y-3.1915
X6.5885Y-4.8343
X6.61Y-3.3585
X6.63Y-3.6
X6.71Y-3.57
X6.71Y-4.3
X6.75Y-3.49
X6.7893Y-4.5114
X6.79Y-3.29
X6.79Y-4.62
X6.87Y-3.84
X6.93Y-3.82
X6.93Y-4.42
X6.98Y-3.56
X7.0Y-3.63
X7.01Y-4.18
X7.05Y-3.94
X7.1082Y-4.3461
X7.11Y-4.8
X7.1101Y-3.8901
X7.2086Y-4.535
X7.33Y-4.8
X7.8582Y-4.4307
T2
X5.7204Y-2.967
X5.7204Y-3.067
X5.7204Y-3.167
X5.7204Y-3.267
X5.7204Y-3.367
X5.7204Y-3.467
X5.7204Y-3.567
X5.7204Y-3.667
X5.7204Y-3.767
X5.7204Y-3.867
X5.7204Y-3.967
X5.7204Y-4.067
X6.3197Y-2.967
X6.3197Y-3.067
X6.3197Y-3.167
X6.3197Y-3.267
X6.3197Y-3.367
X6.3197Y-3.467
X6.3197Y-3.567
X6.3197Y-3.667
X6.3197Y-3.767
X6.3197Y-3.867
X6.3197Y-3.967
X6.3197Y-4.067
T3
X5.9448Y-5.0508
X6.0235Y-5.0508
X6.1023Y-5.0508
T4
X5.8365Y-4.6728
X6.242Y-4.6728
T5
X6.7086Y-4.7969
X6.7086Y-4.8756
X6.7086Y-4.9543
T6
X5.8365Y-4.5272
X5.8365Y-4.7831
X6.242Y-4.5272
X6.242Y-4.7831
T7
X1.4346Y-2.633
X1.4927Y-2.5973
X1.5151Y-2.7068
X1.6034Y-2.7639
X1.6279Y-1.9098
X1.686Y-1.874
X1.7083Y-2.7586
X1.7084Y-1.9835
X1.7825Y-2.6749
X1.7967Y-2.0406
X1.8149Y-2.7349
X1.9016Y-2.0353
X1.9758Y-1.9517
X2.0082Y-2.0117
X2.0496Y-3.1864
X2.1116Y-3.158
X2.1205Y-3.2694
X2.2011Y-3.3368
X2.306Y-3.3443
X2.3298Y-2.4929
X2.3898Y-3.2704
X2.3918Y-2.4644
X2.4007Y-2.5759
X2.4146Y-3.3339
X2.4814Y-2.6433
X2.5862Y-2.6508
X2.61Y-1.7993
X2.67Y-2.5768
X2.6721Y-1.7708
X2.681Y-1.8823
X2.6949Y-2.6404
X2.7616Y-1.9497
X2.8531Y-3.2853
X2.8664Y-1.9572
X2.9165Y-3.3742
X2.9174Y-3.2624
X2.9502Y-1.8832
X2.9751Y-1.9468
X2.9909Y-3.4484
X3.0947Y-3.465
X3.1847Y-3.3986
X3.1927Y-2.6188
X3.2039Y-3.4641
X3.2561Y-2.7077
X3.257Y-2.5959
X3.2701Y-4.5618
X3.3305Y-2.7819
X3.3335Y-4.6507
X3.3344Y-4.5389
X3.408Y-4.7249
X3.4343Y-2.7985
X3.4573Y-3.7839
X3.5117Y-4.7415
X3.5208Y-3.8728
X3.5216Y-3.761
X3.5243Y-2.7321
X3.5323Y-1.9523
X3.5435Y-2.7976
X3.5952Y-3.947
X3.5957Y-2.0412
X3.5965Y-1.9294
X3.6017Y-4.6751
X3.6209Y-4.7406
X3.6701Y-2.1154
X3.699Y-3.9636
X3.7739Y-2.132
X3.7889Y-3.8972
X3.7969Y-3.1174
X3.8081Y-3.9627
X3.8604Y-3.2063
X3.8612Y-3.0945
X3.8639Y-2.0656
X3.8714Y-5.0681
X3.8831Y-2.1311
X3.9348Y-3.2805
X3.9348Y-5.1569
X3.9357Y-5.0451
X4.0093Y-5.2311
X4.0386Y-3.2971
X4.113Y-5.2477
X4.1285Y-3.2307
X4.1365Y-2.4509
X4.1477Y-3.2962
X4.2Y-2.5398
X4.2008Y-2.428
X4.203Y-5.1813
X4.2222Y-5.2468
X4.2744Y-2.614
X4.3527Y-3.7116
X4.3782Y-2.6306
X4.4161Y-3.8004
X4.417Y-3.6886
X4.4681Y-2.5642
X4.4873Y-2.6297
X4.4906Y-3.8746
X4.5943Y-3.8912
X4.6843Y-3.8248
X4.6923Y-3.0451
X4.7035Y-3.8903
X4.7557Y-3.1339
X4.7566Y-3.0221
X4.8302Y-3.2081
X4.9339Y-3.2247
X5.0239Y-3.1583
X5.0431Y-3.2238
X7.0001Y-3.2236
X7.0194Y-3.1581
X7.1093Y-3.2245
X7.2131Y-3.2079
X7.2867Y-3.0219
X7.2875Y-3.1337
X7.3397Y-3.8901
X7.3509Y-3.0449
X7.359Y-3.8246
X7.4489Y-3.891
X7.5527Y-3.8744
X7.5559Y-2.6295
X7.5751Y-2.564
X7.6263Y-3.6884
X7.6271Y-3.8003
X7.6651Y-2.6304
X7.6905Y-3.7114
X7.7688Y-2.6138
X7.821Y-5.2466
X7.8403Y-5.1812
X7.8424Y-2.4278
X7.8433Y-2.5396
X7.8955Y-3.296
X7.9067Y-2.4508
X7.9147Y-3.2305
X7.9302Y-5.2476
X8.0047Y-3.2969
X8.034Y-5.2309
X8.1076Y-5.045
X8.1084Y-5.1568
X8.1084Y-3.2803
X8.1519Y-2.134
X8.1711Y-2.0685
X8.1718Y-5.0679
X8.182Y-3.0943
X8.1829Y-3.2061
X8.2351Y-3.9625
X8.2463Y-3.1173
X8.2543Y-3.897
X8.261Y-2.1349
X8.3443Y-3.9634
X8.3648Y-2.1183
X8.4223Y-4.7404
X8.4384Y-1.9323
X8.4392Y-2.0441
X8.4415Y-4.6749
X8.448Y-3.9468
X8.4914Y-2.8005
X8.5026Y-1.9553
X8.5107Y-2.735
X8.5216Y-3.7608
X8.5225Y-3.8726
X8.5315Y-4.7413
X8.5859Y-3.7838
X8.6006Y-2.8014
X8.6353Y-4.7247
X8.7044Y-2.7848
X8.7088Y-4.5387
X8.7097Y-4.6505
X8.7731Y-4.5617
X8.778Y-2.5988
X8.7788Y-2.7106
X8.831Y-3.467
X8.8422Y-2.6218
X8.8503Y-3.4015
X8.9402Y-3.4679
X9.044Y-3.4513
X9.0599Y-1.9497
X9.0847Y-1.8862
X9.1176Y-3.2653
X9.1184Y-3.3771
X9.1685Y-1.9602
X9.1818Y-3.2883
X9.2734Y-1.9527
X9.3401Y-2.6433
X9.354Y-1.8853
X9.3629Y-1.7738
X9.3649Y-2.5798
X9.4249Y-1.8023
X9.4488Y-2.6537
X9.5536Y-2.6462
X9.6203Y-3.3369
X9.6342Y-2.5788
X9.6431Y-2.4674
X9.6452Y-3.2733
X9.7051Y-2.4958
X9.729Y-3.3473
X9.8338Y-3.3398
X9.9144Y-3.2724
X9.9233Y-3.1609
X9.9853Y-3.1894
X10.0262Y-2.0153
X10.0586Y-1.9553
X10.1328Y-2.0389
X10.22Y-2.738
X10.2377Y-2.0442
X10.2525Y-2.6779
X10.326Y-1.9871
X10.3266Y-2.7616
X10.3484Y-1.8776
X10.4065Y-1.9134
X10.4316Y-2.7669
X10.5198Y-2.7098
X10.5422Y-2.6003
X10.6003Y-2.6361
T8
X5.55Y-2.902
X5.55Y-3.158
T9
X5.8621Y-5.0508
X6.185Y-5.0508
T10
X2.2664Y-1.972
X4.3149Y-4.0429
X4.5401Y-2.7953
X7.48Y-2.82
X7.88Y-4.29
X9.7598Y-1.9661
T0
M30
