%FSLAX45Y45*%
G04 Gerber Fmt 4.5, Leading zero omitted, Abs format (unit mm)*
G04 Created by KiCad (PCBNEW (6.0.4)) date 2022-05-15 06:43:50*
%MOMM*%
%LPD*%
G01*
G04 APERTURE LIST*
%TA.AperFunction,Profile*%
%ADD10C,0.150000*%
%TD*%
%ADD11C,0.200000*%
%ADD12C,0.040000*%
%ADD13C,0.109220*%
%ADD14C,0.127000*%
%ADD15C,0.130000*%
%ADD16C,0.220000*%
G04 APERTURE END LIST*
D10*
X10210042Y12248492D02*
G75*
G03*
X9993379Y12430301I-199232J-17423D01*
G01*
X15351920Y2721270D02*
X12370800Y4001870D01*
X16475374Y10390894D02*
G75*
G03*
X16237240Y10661353I-253554J16816D01*
G01*
X12604963Y10868750D02*
G75*
G03*
X12807851Y10666057I208327J5640D01*
G01*
X10210049Y12248493D02*
X10247851Y11881516D01*
X15800203Y2841879D02*
X16368021Y3847661D01*
X8054930Y11609965D02*
G75*
G03*
X8219440Y11824356I-34720J196955D01*
G01*
X16368021Y3847661D02*
G75*
G03*
X16471964Y4226311I-780621J417879D01*
G01*
X6170445Y11277678D02*
G75*
G03*
X6008214Y11045986I34725J-196958D01*
G01*
X15351922Y2721275D02*
G75*
G03*
X15800203Y2841879I135508J389745D01*
G01*
X4041959Y9036369D02*
G75*
G03*
X3977676Y8814575I127371J-157129D01*
G01*
X12594529Y11403010D02*
G75*
G03*
X12340531Y11682410I-271529J8310D01*
G01*
X5041218Y5584323D02*
G75*
G03*
X5209704Y5401304I284372J92727D01*
G01*
X3977676Y8814575D02*
X5041217Y5584323D01*
X10447090Y11698947D02*
X12340531Y11682410D01*
X12604956Y10868750D02*
X12594531Y11403010D01*
X8379544Y12289105D02*
G75*
G03*
X8197736Y12072439I17426J-199235D01*
G01*
X10247849Y11881516D02*
G75*
G03*
X10447090Y11698947I199251J17444D01*
G01*
X12370800Y4001869D02*
G75*
G03*
X11802911Y4178674I-740940J-1379439D01*
G01*
X6085239Y9976590D02*
G75*
G03*
X6159180Y10185872I-151729J171310D01*
G01*
X6008214Y11045986D02*
X6159180Y10185872D01*
X16471964Y4226311D02*
X16475367Y10390894D01*
X8379543Y12289109D02*
X9993379Y12430301D01*
X4041958Y9036370D02*
X6085240Y9976590D01*
X8219440Y11824356D02*
X8197736Y12072438D01*
X11802911Y4178674D02*
X5209704Y5401304D01*
X16237240Y10661353D02*
X12807851Y10666057D01*
X6170445Y11277677D02*
X8054931Y11609963D01*
D11*
D12*
X15220000Y10141314D02*
X15260000Y10101314D01*
X15260000Y10141314D02*
X15220000Y10101314D01*
X15220000Y6624000D02*
X15260000Y6584000D01*
X15260000Y6624000D02*
X15220000Y6584000D01*
X15410459Y9885043D02*
X15450459Y9845043D01*
X15450459Y9885043D02*
X15410459Y9845043D01*
X15618978Y9630635D02*
X15658978Y9590635D01*
X15658978Y9630635D02*
X15618978Y9590635D01*
X15852049Y5590721D02*
X15892049Y5550721D01*
X15892049Y5590721D02*
X15852049Y5550721D01*
D13*
X14728331Y10122629D02*
G75*
G03*
X14728331Y10122629I-54610J0D01*
G01*
X14728331Y9860254D02*
G75*
G03*
X14728331Y9860254I-54610J0D01*
G01*
X14728331Y9606254D02*
G75*
G03*
X14728331Y9606254I-54610J0D01*
G01*
X14728331Y9352254D02*
G75*
G03*
X14728331Y9352254I-54610J0D01*
G01*
X14728331Y9098254D02*
G75*
G03*
X14728331Y9098254I-54610J0D01*
G01*
X14728331Y8844254D02*
G75*
G03*
X14728331Y8844254I-54610J0D01*
G01*
X14728331Y8590254D02*
G75*
G03*
X14728331Y8590254I-54610J0D01*
G01*
X14728331Y8336254D02*
G75*
G03*
X14728331Y8336254I-54610J0D01*
G01*
X14728331Y8082254D02*
G75*
G03*
X14728331Y8082254I-54610J0D01*
G01*
X14728331Y7828254D02*
G75*
G03*
X14728331Y7828254I-54610J0D01*
G01*
X14728331Y7574254D02*
G75*
G03*
X14728331Y7574254I-54610J0D01*
G01*
X14728331Y7320254D02*
G75*
G03*
X14728331Y7320254I-54610J0D01*
G01*
X14809150Y5816368D02*
G75*
G03*
X14809150Y5816368I-54610J0D01*
G01*
X15009150Y5816368D02*
G75*
G03*
X15009150Y5816368I-54610J0D01*
G01*
X15209150Y5816368D02*
G75*
G03*
X15209150Y5816368I-54610J0D01*
G01*
X16252331Y10114254D02*
G75*
G03*
X16252331Y10114254I-54610J0D01*
G01*
X16252331Y9860254D02*
G75*
G03*
X16252331Y9860254I-54610J0D01*
G01*
X16252331Y9606254D02*
G75*
G03*
X16252331Y9606254I-54610J0D01*
G01*
X16252331Y9352254D02*
G75*
G03*
X16252331Y9352254I-54610J0D01*
G01*
X16252331Y9098254D02*
G75*
G03*
X16252331Y9098254I-54610J0D01*
G01*
X16252331Y8844254D02*
G75*
G03*
X16252331Y8844254I-54610J0D01*
G01*
X16252331Y8590254D02*
G75*
G03*
X16252331Y8590254I-54610J0D01*
G01*
X16252331Y8336254D02*
G75*
G03*
X16252331Y8336254I-54610J0D01*
G01*
X16252331Y8082254D02*
G75*
G03*
X16252331Y8082254I-54610J0D01*
G01*
X16252331Y7828254D02*
G75*
G03*
X16252331Y7828254I-54610J0D01*
G01*
X16252331Y7574254D02*
G75*
G03*
X16252331Y7574254I-54610J0D01*
G01*
X16252331Y7320254D02*
G75*
G03*
X16252331Y7320254I-54610J0D01*
G01*
D14*
X4917175Y7826915D02*
X4917175Y7699915D01*
X4853675Y7763415D02*
X4980675Y7763415D01*
X5414207Y6201196D02*
X5414207Y6074196D01*
X5350707Y6137696D02*
X5477707Y6137696D01*
X5456725Y7772276D02*
X5456725Y7645276D01*
X5393225Y7708776D02*
X5520225Y7708776D01*
X5456725Y7772276D02*
X5456725Y7645276D01*
X5393225Y7708776D02*
X5520225Y7708776D01*
X5873479Y8119286D02*
X5873479Y7992286D01*
X5809979Y8055786D02*
X5936979Y8055786D01*
X5953757Y6146558D02*
X5953757Y6019558D01*
X5890257Y6083058D02*
X6017257Y6083058D01*
X5953757Y6146558D02*
X5953757Y6019558D01*
X5890257Y6083058D02*
X6017257Y6083058D01*
X6370511Y6493568D02*
X6370511Y6366568D01*
X6307011Y6430068D02*
X6434011Y6430068D01*
X6712293Y10076956D02*
X6712293Y9949956D01*
X6648793Y10013456D02*
X6775793Y10013456D01*
X7007495Y8402783D02*
X7007495Y8275782D01*
X6943995Y8339282D02*
X7070995Y8339282D01*
X7241163Y9956970D02*
X7241163Y9829970D01*
X7177663Y9893470D02*
X7304663Y9893470D01*
X7241163Y9956970D02*
X7241163Y9829970D01*
X7177663Y9893470D02*
X7304663Y9893470D01*
X7302697Y6728609D02*
X7302697Y6601609D01*
X7239197Y6665109D02*
X7366197Y6665109D01*
X7536365Y8282797D02*
X7536365Y8155797D01*
X7472865Y8219297D02*
X7599865Y8219297D01*
X7536365Y8282797D02*
X7536365Y8155797D01*
X7472865Y8219297D02*
X7599865Y8219297D01*
X7697101Y10250604D02*
X7697101Y10123604D01*
X7633601Y10187104D02*
X7760601Y10187104D01*
X7831567Y6608624D02*
X7831567Y6481624D01*
X7768067Y6545124D02*
X7895067Y6545124D01*
X7831567Y6608624D02*
X7831567Y6481624D01*
X7768067Y6545124D02*
X7895067Y6545124D01*
X7992303Y8576431D02*
X7992303Y8449431D01*
X7928803Y8512931D02*
X8055803Y8512931D01*
X8287505Y6902257D02*
X8287505Y6775257D01*
X8224005Y6838757D02*
X8351005Y6838757D01*
X8809021Y11046316D02*
X8809021Y10919316D01*
X8745521Y10982816D02*
X8872521Y10982816D01*
X8957186Y9352785D02*
X8957186Y9225785D01*
X8893686Y9289285D02*
X9020686Y9289285D01*
X9105351Y7659254D02*
X9105351Y7532254D01*
X9041851Y7595754D02*
X9168851Y7595754D01*
X9325422Y10880693D02*
X9325422Y10753693D01*
X9261922Y10817193D02*
X9388922Y10817193D01*
X9325422Y10880693D02*
X9325422Y10753693D01*
X9261922Y10817193D02*
X9388922Y10817193D01*
X9473586Y9187162D02*
X9473586Y9060162D01*
X9410086Y9123662D02*
X9537086Y9123662D01*
X9473586Y9187162D02*
X9473586Y9060162D01*
X9410086Y9123662D02*
X9537086Y9123662D01*
X9621751Y7493631D02*
X9621751Y7366631D01*
X9558251Y7430131D02*
X9685251Y7430131D01*
X9621751Y7493631D02*
X9621751Y7366631D01*
X9558251Y7430131D02*
X9685251Y7430131D01*
X9805216Y11133472D02*
X9805216Y11006472D01*
X9741716Y11069972D02*
X9868716Y11069972D01*
X9953381Y9439941D02*
X9953381Y9312941D01*
X9889881Y9376441D02*
X10016881Y9376441D01*
X10101546Y7746410D02*
X10101546Y7619410D01*
X10038046Y7682910D02*
X10165046Y7682910D01*
X11041109Y10352102D02*
X11041109Y10225102D01*
X10977609Y10288602D02*
X11104609Y10288602D01*
X11041109Y8652102D02*
X11041109Y8525102D01*
X10977609Y8588602D02*
X11104609Y8588602D01*
X11041109Y6952102D02*
X11041109Y6825102D01*
X10977609Y6888602D02*
X11104609Y6888602D01*
X11541109Y10142102D02*
X11541109Y10015102D01*
X11477609Y10078602D02*
X11604609Y10078602D01*
X11541109Y10142102D02*
X11541109Y10015102D01*
X11477609Y10078602D02*
X11604609Y10078602D01*
X11541109Y8442102D02*
X11541109Y8315102D01*
X11477609Y8378602D02*
X11604609Y8378602D01*
X11541109Y8442102D02*
X11541109Y8315102D01*
X11477609Y8378602D02*
X11604609Y8378602D01*
X11541109Y6742102D02*
X11541109Y6615102D01*
X11477609Y6678602D02*
X11604609Y6678602D01*
X11541109Y6742102D02*
X11541109Y6615102D01*
X11477609Y6678602D02*
X11604609Y6678602D01*
X12041109Y10352102D02*
X12041109Y10225102D01*
X11977609Y10288602D02*
X12104609Y10288602D01*
X12041109Y8652102D02*
X12041109Y8525102D01*
X11977609Y8588602D02*
X12104609Y8588602D01*
X12041109Y6952102D02*
X12041109Y6825102D01*
X11977609Y6888602D02*
X12104609Y6888602D01*
X12807790Y4729732D02*
X12807790Y4602732D01*
X12744290Y4666232D02*
X12871290Y4666232D01*
X12919200Y9317750D02*
X12919200Y9190750D01*
X12855700Y9254250D02*
X12982700Y9254250D01*
X12919200Y7617750D02*
X12919200Y7490750D01*
X12855700Y7554250D02*
X12982700Y7554250D01*
X13236401Y4397478D02*
X13236401Y4270478D01*
X13172901Y4333978D02*
X13299901Y4333978D01*
X13236401Y4397478D02*
X13236401Y4270478D01*
X13172901Y4333978D02*
X13299901Y4333978D01*
X13419200Y9107750D02*
X13419200Y8980750D01*
X13355700Y9044250D02*
X13482700Y9044250D01*
X13419200Y9107750D02*
X13419200Y8980750D01*
X13355700Y9044250D02*
X13482700Y9044250D01*
X13419200Y7407750D02*
X13419200Y7280750D01*
X13355700Y7344250D02*
X13482700Y7344250D01*
X13419200Y7407750D02*
X13419200Y7280750D01*
X13355700Y7344250D02*
X13482700Y7344250D01*
X13773716Y4470913D02*
X13773716Y4343913D01*
X13710216Y4407413D02*
X13837216Y4407413D01*
X13919200Y9317750D02*
X13919200Y9190750D01*
X13855700Y9254250D02*
X13982700Y9254250D01*
X13919200Y7617750D02*
X13919200Y7490750D01*
X13855700Y7554250D02*
X13982700Y7554250D01*
X14619852Y4120432D02*
X14619852Y3993432D01*
X14556352Y4056932D02*
X14683352Y4056932D01*
X14947864Y3688566D02*
X14947864Y3561566D01*
X14884364Y3625066D02*
X15011364Y3625066D01*
X14947864Y3688566D02*
X14947864Y3561566D01*
X14884364Y3625066D02*
X15011364Y3625066D01*
X15485877Y3620432D02*
X15485877Y3493432D01*
X15422377Y3556932D02*
X15549377Y3556932D01*
D15*
X16354810Y6886041D02*
X16354810Y6977966D01*
X16262885Y6977966D01*
X16262885Y6886041D01*
X16354810Y6886041D01*
X16354810Y6236041D02*
X16354810Y6327966D01*
X16262885Y6327966D01*
X16262885Y6236041D01*
X16354810Y6236041D01*
D16*
X8474722Y8704143D02*
X8584722Y8814143D01*
X8474722Y8924143D01*
X8364722Y8814143D01*
X8474722Y8704143D01*
X10379722Y10609143D02*
X10489722Y10719143D01*
X10379722Y10829143D01*
X10269722Y10719143D01*
X10379722Y10609143D01*
X10379722Y6799143D02*
X10489722Y6909143D01*
X10379722Y7019143D01*
X10269722Y6909143D01*
X10379722Y6799143D01*
D11*
X4217179Y2380413D02*
X4217179Y2580413D01*
X4264798Y2580413D01*
X4293370Y2570889D01*
X4312418Y2551842D01*
X4321941Y2532794D01*
X4331465Y2494699D01*
X4331465Y2466127D01*
X4321941Y2428032D01*
X4312418Y2408985D01*
X4293370Y2389937D01*
X4264798Y2380413D01*
X4217179Y2380413D01*
X4417179Y2380413D02*
X4417179Y2513746D01*
X4417179Y2475651D02*
X4426703Y2494699D01*
X4436227Y2504223D01*
X4455275Y2513746D01*
X4474322Y2513746D01*
X4540989Y2380413D02*
X4540989Y2513746D01*
X4540989Y2580413D02*
X4531465Y2570889D01*
X4540989Y2561365D01*
X4550513Y2570889D01*
X4540989Y2580413D01*
X4540989Y2561365D01*
X4664798Y2380413D02*
X4645751Y2389937D01*
X4636227Y2408985D01*
X4636227Y2580413D01*
X4769560Y2380413D02*
X4750513Y2389937D01*
X4740989Y2408985D01*
X4740989Y2580413D01*
X4998132Y2380413D02*
X4998132Y2580413D01*
X5064798Y2437556D01*
X5131465Y2580413D01*
X5131465Y2380413D01*
X5312418Y2380413D02*
X5312418Y2485175D01*
X5302894Y2504223D01*
X5283846Y2513746D01*
X5245751Y2513746D01*
X5226703Y2504223D01*
X5312418Y2389937D02*
X5293370Y2380413D01*
X5245751Y2380413D01*
X5226703Y2389937D01*
X5217179Y2408985D01*
X5217179Y2428032D01*
X5226703Y2447080D01*
X5245751Y2456604D01*
X5293370Y2456604D01*
X5312418Y2466127D01*
X5407656Y2513746D02*
X5407656Y2313746D01*
X5407656Y2504223D02*
X5426703Y2513746D01*
X5464798Y2513746D01*
X5483846Y2504223D01*
X5493370Y2494699D01*
X5502894Y2475651D01*
X5502894Y2418508D01*
X5493370Y2399461D01*
X5483846Y2389937D01*
X5464798Y2380413D01*
X5426703Y2380413D01*
X5407656Y2389937D01*
X5588608Y2399461D02*
X5598132Y2389937D01*
X5588608Y2380413D01*
X5579084Y2389937D01*
X5588608Y2399461D01*
X5588608Y2380413D01*
X5588608Y2504223D02*
X5598132Y2494699D01*
X5588608Y2485175D01*
X5579084Y2494699D01*
X5588608Y2504223D01*
X5588608Y2485175D01*
D12*
X3919560Y2070889D02*
X3959560Y2030889D01*
X3959560Y2070889D02*
X3919560Y2030889D01*
D11*
X4255275Y2160413D02*
X4274322Y2160413D01*
X4293370Y2150889D01*
X4302894Y2141365D01*
X4312418Y2122318D01*
X4321941Y2084223D01*
X4321941Y2036603D01*
X4312418Y1998508D01*
X4302894Y1979461D01*
X4293370Y1969937D01*
X4274322Y1960413D01*
X4255275Y1960413D01*
X4236227Y1969937D01*
X4226703Y1979461D01*
X4217179Y1998508D01*
X4207656Y2036603D01*
X4207656Y2084223D01*
X4217179Y2122318D01*
X4226703Y2141365D01*
X4236227Y2150889D01*
X4255275Y2160413D01*
X4407656Y1979461D02*
X4417179Y1969937D01*
X4407656Y1960413D01*
X4398132Y1969937D01*
X4407656Y1979461D01*
X4407656Y1960413D01*
X4588608Y2093746D02*
X4588608Y1960413D01*
X4540989Y2169937D02*
X4493370Y2027080D01*
X4617179Y2027080D01*
X4731465Y2160413D02*
X4750513Y2160413D01*
X4769560Y2150889D01*
X4779084Y2141365D01*
X4788608Y2122318D01*
X4798132Y2084223D01*
X4798132Y2036603D01*
X4788608Y1998508D01*
X4779084Y1979461D01*
X4769560Y1969937D01*
X4750513Y1960413D01*
X4731465Y1960413D01*
X4712418Y1969937D01*
X4702894Y1979461D01*
X4693370Y1998508D01*
X4683846Y2036603D01*
X4683846Y2084223D01*
X4693370Y2122318D01*
X4702894Y2141365D01*
X4712418Y2150889D01*
X4731465Y2160413D01*
X4921941Y2160413D02*
X4940989Y2160413D01*
X4960037Y2150889D01*
X4969560Y2141365D01*
X4979084Y2122318D01*
X4988608Y2084223D01*
X4988608Y2036603D01*
X4979084Y1998508D01*
X4969560Y1979461D01*
X4960037Y1969937D01*
X4940989Y1960413D01*
X4921941Y1960413D01*
X4902894Y1969937D01*
X4893370Y1979461D01*
X4883846Y1998508D01*
X4874322Y2036603D01*
X4874322Y2084223D01*
X4883846Y2122318D01*
X4893370Y2141365D01*
X4902894Y2150889D01*
X4921941Y2160413D01*
X5074322Y1960413D02*
X5074322Y2093746D01*
X5074322Y2074699D02*
X5083846Y2084223D01*
X5102894Y2093746D01*
X5131465Y2093746D01*
X5150513Y2084223D01*
X5160037Y2065175D01*
X5160037Y1960413D01*
X5160037Y2065175D02*
X5169560Y2084223D01*
X5188608Y2093746D01*
X5217179Y2093746D01*
X5236227Y2084223D01*
X5245751Y2065175D01*
X5245751Y1960413D01*
X5340989Y1960413D02*
X5340989Y2093746D01*
X5340989Y2074699D02*
X5350513Y2084223D01*
X5369560Y2093746D01*
X5398132Y2093746D01*
X5417179Y2084223D01*
X5426703Y2065175D01*
X5426703Y1960413D01*
X5426703Y2065175D02*
X5436227Y2084223D01*
X5455275Y2093746D01*
X5483846Y2093746D01*
X5502894Y2084223D01*
X5512418Y2065175D01*
X5512418Y1960413D01*
X5902894Y2169937D02*
X5731465Y1912794D01*
X6160036Y2160413D02*
X6179084Y2160413D01*
X6198132Y2150889D01*
X6207656Y2141365D01*
X6217179Y2122318D01*
X6226703Y2084223D01*
X6226703Y2036603D01*
X6217179Y1998508D01*
X6207656Y1979461D01*
X6198132Y1969937D01*
X6179084Y1960413D01*
X6160036Y1960413D01*
X6140989Y1969937D01*
X6131465Y1979461D01*
X6121941Y1998508D01*
X6112417Y2036603D01*
X6112417Y2084223D01*
X6121941Y2122318D01*
X6131465Y2141365D01*
X6140989Y2150889D01*
X6160036Y2160413D01*
X6312417Y1979461D02*
X6321941Y1969937D01*
X6312417Y1960413D01*
X6302894Y1969937D01*
X6312417Y1979461D01*
X6312417Y1960413D01*
X6445751Y2160413D02*
X6464798Y2160413D01*
X6483846Y2150889D01*
X6493370Y2141365D01*
X6502894Y2122318D01*
X6512417Y2084223D01*
X6512417Y2036603D01*
X6502894Y1998508D01*
X6493370Y1979461D01*
X6483846Y1969937D01*
X6464798Y1960413D01*
X6445751Y1960413D01*
X6426703Y1969937D01*
X6417179Y1979461D01*
X6407656Y1998508D01*
X6398132Y2036603D01*
X6398132Y2084223D01*
X6407656Y2122318D01*
X6417179Y2141365D01*
X6426703Y2150889D01*
X6445751Y2160413D01*
X6702894Y1960413D02*
X6588608Y1960413D01*
X6645751Y1960413D02*
X6645751Y2160413D01*
X6626703Y2131842D01*
X6607656Y2112794D01*
X6588608Y2103270D01*
X6883846Y2160413D02*
X6788608Y2160413D01*
X6779084Y2065175D01*
X6788608Y2074699D01*
X6807656Y2084223D01*
X6855275Y2084223D01*
X6874322Y2074699D01*
X6883846Y2065175D01*
X6893370Y2046127D01*
X6893370Y1998508D01*
X6883846Y1979461D01*
X6874322Y1969937D01*
X6855275Y1960413D01*
X6807656Y1960413D01*
X6788608Y1969937D01*
X6779084Y1979461D01*
X6960036Y2160413D02*
X7093370Y2160413D01*
X7007656Y1960413D01*
X7160036Y2160413D02*
X7160036Y2122318D01*
X7236227Y2160413D02*
X7236227Y2122318D01*
X7531465Y1884223D02*
X7521941Y1893746D01*
X7502894Y1922318D01*
X7493370Y1941365D01*
X7483846Y1969937D01*
X7474322Y2017556D01*
X7474322Y2055651D01*
X7483846Y2103270D01*
X7493370Y2131842D01*
X7502894Y2150889D01*
X7521941Y2179461D01*
X7531465Y2188985D01*
X7702894Y2160413D02*
X7607656Y2160413D01*
X7598132Y2065175D01*
X7607656Y2074699D01*
X7626703Y2084223D01*
X7674322Y2084223D01*
X7693370Y2074699D01*
X7702894Y2065175D01*
X7712417Y2046127D01*
X7712417Y1998508D01*
X7702894Y1979461D01*
X7693370Y1969937D01*
X7674322Y1960413D01*
X7626703Y1960413D01*
X7607656Y1969937D01*
X7598132Y1979461D01*
X7950513Y1960413D02*
X7950513Y2160413D01*
X8036227Y1960413D02*
X8036227Y2065175D01*
X8026703Y2084223D01*
X8007656Y2093746D01*
X7979084Y2093746D01*
X7960036Y2084223D01*
X7950513Y2074699D01*
X8160036Y1960413D02*
X8140989Y1969937D01*
X8131465Y1979461D01*
X8121941Y1998508D01*
X8121941Y2055651D01*
X8131465Y2074699D01*
X8140989Y2084223D01*
X8160036Y2093746D01*
X8188608Y2093746D01*
X8207656Y2084223D01*
X8217179Y2074699D01*
X8226703Y2055651D01*
X8226703Y1998508D01*
X8217179Y1979461D01*
X8207656Y1969937D01*
X8188608Y1960413D01*
X8160036Y1960413D01*
X8340989Y1960413D02*
X8321941Y1969937D01*
X8312417Y1988984D01*
X8312417Y2160413D01*
X8493370Y1969937D02*
X8474322Y1960413D01*
X8436227Y1960413D01*
X8417179Y1969937D01*
X8407656Y1988984D01*
X8407656Y2065175D01*
X8417179Y2084223D01*
X8436227Y2093746D01*
X8474322Y2093746D01*
X8493370Y2084223D01*
X8502894Y2065175D01*
X8502894Y2046127D01*
X8407656Y2027080D01*
X8579084Y1969937D02*
X8598132Y1960413D01*
X8636227Y1960413D01*
X8655275Y1969937D01*
X8664798Y1988984D01*
X8664798Y1998508D01*
X8655275Y2017556D01*
X8636227Y2027080D01*
X8607656Y2027080D01*
X8588608Y2036603D01*
X8579084Y2055651D01*
X8579084Y2065175D01*
X8588608Y2084223D01*
X8607656Y2093746D01*
X8636227Y2093746D01*
X8655275Y2084223D01*
X8731465Y1884223D02*
X8740989Y1893746D01*
X8760037Y1922318D01*
X8769560Y1941365D01*
X8779084Y1969937D01*
X8788608Y2017556D01*
X8788608Y2055651D01*
X8779084Y2103270D01*
X8769560Y2131842D01*
X8760037Y2150889D01*
X8740989Y2179461D01*
X8731465Y2188985D01*
D13*
X3959560Y1786889D02*
G75*
G03*
X3959560Y1786889I-54610J0D01*
G01*
D11*
X4321941Y1696413D02*
X4207656Y1696413D01*
X4264798Y1696413D02*
X4264798Y1896413D01*
X4245751Y1867842D01*
X4226703Y1848794D01*
X4207656Y1839270D01*
X4407656Y1715461D02*
X4417179Y1705937D01*
X4407656Y1696413D01*
X4398132Y1705937D01*
X4407656Y1715461D01*
X4407656Y1696413D01*
X4540989Y1896413D02*
X4560037Y1896413D01*
X4579084Y1886889D01*
X4588608Y1877365D01*
X4598132Y1858318D01*
X4607656Y1820223D01*
X4607656Y1772603D01*
X4598132Y1734508D01*
X4588608Y1715461D01*
X4579084Y1705937D01*
X4560037Y1696413D01*
X4540989Y1696413D01*
X4521941Y1705937D01*
X4512418Y1715461D01*
X4502894Y1734508D01*
X4493370Y1772603D01*
X4493370Y1820223D01*
X4502894Y1858318D01*
X4512418Y1877365D01*
X4521941Y1886889D01*
X4540989Y1896413D01*
X4702894Y1696413D02*
X4740989Y1696413D01*
X4760037Y1705937D01*
X4769560Y1715461D01*
X4788608Y1744032D01*
X4798132Y1782127D01*
X4798132Y1858318D01*
X4788608Y1877365D01*
X4779084Y1886889D01*
X4760037Y1896413D01*
X4721941Y1896413D01*
X4702894Y1886889D01*
X4693370Y1877365D01*
X4683846Y1858318D01*
X4683846Y1810699D01*
X4693370Y1791651D01*
X4702894Y1782127D01*
X4721941Y1772603D01*
X4760037Y1772603D01*
X4779084Y1782127D01*
X4788608Y1791651D01*
X4798132Y1810699D01*
X4874322Y1877365D02*
X4883846Y1886889D01*
X4902894Y1896413D01*
X4950513Y1896413D01*
X4969560Y1886889D01*
X4979084Y1877365D01*
X4988608Y1858318D01*
X4988608Y1839270D01*
X4979084Y1810699D01*
X4864798Y1696413D01*
X4988608Y1696413D01*
X5074322Y1696413D02*
X5074322Y1829746D01*
X5074322Y1810699D02*
X5083846Y1820223D01*
X5102894Y1829746D01*
X5131465Y1829746D01*
X5150513Y1820223D01*
X5160037Y1801175D01*
X5160037Y1696413D01*
X5160037Y1801175D02*
X5169560Y1820223D01*
X5188608Y1829746D01*
X5217179Y1829746D01*
X5236227Y1820223D01*
X5245751Y1801175D01*
X5245751Y1696413D01*
X5340989Y1696413D02*
X5340989Y1829746D01*
X5340989Y1810699D02*
X5350513Y1820223D01*
X5369560Y1829746D01*
X5398132Y1829746D01*
X5417179Y1820223D01*
X5426703Y1801175D01*
X5426703Y1696413D01*
X5426703Y1801175D02*
X5436227Y1820223D01*
X5455275Y1829746D01*
X5483846Y1829746D01*
X5502894Y1820223D01*
X5512418Y1801175D01*
X5512418Y1696413D01*
X5902894Y1905937D02*
X5731465Y1648794D01*
X6160036Y1896413D02*
X6179084Y1896413D01*
X6198132Y1886889D01*
X6207656Y1877365D01*
X6217179Y1858318D01*
X6226703Y1820223D01*
X6226703Y1772603D01*
X6217179Y1734508D01*
X6207656Y1715461D01*
X6198132Y1705937D01*
X6179084Y1696413D01*
X6160036Y1696413D01*
X6140989Y1705937D01*
X6131465Y1715461D01*
X6121941Y1734508D01*
X6112417Y1772603D01*
X6112417Y1820223D01*
X6121941Y1858318D01*
X6131465Y1877365D01*
X6140989Y1886889D01*
X6160036Y1896413D01*
X6312417Y1715461D02*
X6321941Y1705937D01*
X6312417Y1696413D01*
X6302894Y1705937D01*
X6312417Y1715461D01*
X6312417Y1696413D01*
X6445751Y1896413D02*
X6464798Y1896413D01*
X6483846Y1886889D01*
X6493370Y1877365D01*
X6502894Y1858318D01*
X6512417Y1820223D01*
X6512417Y1772603D01*
X6502894Y1734508D01*
X6493370Y1715461D01*
X6483846Y1705937D01*
X6464798Y1696413D01*
X6445751Y1696413D01*
X6426703Y1705937D01*
X6417179Y1715461D01*
X6407656Y1734508D01*
X6398132Y1772603D01*
X6398132Y1820223D01*
X6407656Y1858318D01*
X6417179Y1877365D01*
X6426703Y1886889D01*
X6445751Y1896413D01*
X6683846Y1829746D02*
X6683846Y1696413D01*
X6636227Y1905937D02*
X6588608Y1763080D01*
X6712417Y1763080D01*
X6769560Y1896413D02*
X6893370Y1896413D01*
X6826703Y1820223D01*
X6855275Y1820223D01*
X6874322Y1810699D01*
X6883846Y1801175D01*
X6893370Y1782127D01*
X6893370Y1734508D01*
X6883846Y1715461D01*
X6874322Y1705937D01*
X6855275Y1696413D01*
X6798132Y1696413D01*
X6779084Y1705937D01*
X6769560Y1715461D01*
X7017179Y1896413D02*
X7036227Y1896413D01*
X7055275Y1886889D01*
X7064798Y1877365D01*
X7074322Y1858318D01*
X7083846Y1820223D01*
X7083846Y1772603D01*
X7074322Y1734508D01*
X7064798Y1715461D01*
X7055275Y1705937D01*
X7036227Y1696413D01*
X7017179Y1696413D01*
X6998132Y1705937D01*
X6988608Y1715461D01*
X6979084Y1734508D01*
X6969560Y1772603D01*
X6969560Y1820223D01*
X6979084Y1858318D01*
X6988608Y1877365D01*
X6998132Y1886889D01*
X7017179Y1896413D01*
X7160036Y1896413D02*
X7160036Y1858318D01*
X7236227Y1896413D02*
X7236227Y1858318D01*
X7531465Y1620223D02*
X7521941Y1629746D01*
X7502894Y1658318D01*
X7493370Y1677365D01*
X7483846Y1705937D01*
X7474322Y1753556D01*
X7474322Y1791651D01*
X7483846Y1839270D01*
X7493370Y1867842D01*
X7502894Y1886889D01*
X7521941Y1915461D01*
X7531465Y1924984D01*
X7598132Y1877365D02*
X7607656Y1886889D01*
X7626703Y1896413D01*
X7674322Y1896413D01*
X7693370Y1886889D01*
X7702894Y1877365D01*
X7712417Y1858318D01*
X7712417Y1839270D01*
X7702894Y1810699D01*
X7588608Y1696413D01*
X7712417Y1696413D01*
X7779084Y1896413D02*
X7912417Y1896413D01*
X7826703Y1696413D01*
X8140989Y1696413D02*
X8140989Y1896413D01*
X8226703Y1696413D02*
X8226703Y1801175D01*
X8217179Y1820223D01*
X8198132Y1829746D01*
X8169560Y1829746D01*
X8150513Y1820223D01*
X8140989Y1810699D01*
X8350513Y1696413D02*
X8331465Y1705937D01*
X8321941Y1715461D01*
X8312417Y1734508D01*
X8312417Y1791651D01*
X8321941Y1810699D01*
X8331465Y1820223D01*
X8350513Y1829746D01*
X8379084Y1829746D01*
X8398132Y1820223D01*
X8407656Y1810699D01*
X8417179Y1791651D01*
X8417179Y1734508D01*
X8407656Y1715461D01*
X8398132Y1705937D01*
X8379084Y1696413D01*
X8350513Y1696413D01*
X8531465Y1696413D02*
X8512418Y1705937D01*
X8502894Y1724984D01*
X8502894Y1896413D01*
X8683846Y1705937D02*
X8664798Y1696413D01*
X8626703Y1696413D01*
X8607656Y1705937D01*
X8598132Y1724984D01*
X8598132Y1801175D01*
X8607656Y1820223D01*
X8626703Y1829746D01*
X8664798Y1829746D01*
X8683846Y1820223D01*
X8693370Y1801175D01*
X8693370Y1782127D01*
X8598132Y1763080D01*
X8769560Y1705937D02*
X8788608Y1696413D01*
X8826703Y1696413D01*
X8845751Y1705937D01*
X8855275Y1724984D01*
X8855275Y1734508D01*
X8845751Y1753556D01*
X8826703Y1763080D01*
X8798132Y1763080D01*
X8779084Y1772603D01*
X8769560Y1791651D01*
X8769560Y1801175D01*
X8779084Y1820223D01*
X8798132Y1829746D01*
X8826703Y1829746D01*
X8845751Y1820223D01*
X8921941Y1620223D02*
X8931465Y1629746D01*
X8950513Y1658318D01*
X8960037Y1677365D01*
X8969560Y1705937D01*
X8979084Y1753556D01*
X8979084Y1791651D01*
X8969560Y1839270D01*
X8960037Y1867842D01*
X8950513Y1886889D01*
X8931465Y1915461D01*
X8921941Y1924984D01*
D14*
X3896060Y1586389D02*
X3896060Y1459389D01*
X3832560Y1522889D02*
X3959560Y1522889D01*
D11*
X4321941Y1432413D02*
X4207656Y1432413D01*
X4264798Y1432413D02*
X4264798Y1632413D01*
X4245751Y1603842D01*
X4226703Y1584794D01*
X4207656Y1575270D01*
X4407656Y1451461D02*
X4417179Y1441937D01*
X4407656Y1432413D01*
X4398132Y1441937D01*
X4407656Y1451461D01*
X4407656Y1432413D01*
X4493370Y1613365D02*
X4502894Y1622889D01*
X4521941Y1632413D01*
X4569560Y1632413D01*
X4588608Y1622889D01*
X4598132Y1613365D01*
X4607656Y1594318D01*
X4607656Y1575270D01*
X4598132Y1546699D01*
X4483846Y1432413D01*
X4607656Y1432413D01*
X4674322Y1632413D02*
X4807656Y1632413D01*
X4721941Y1432413D01*
X4921941Y1632413D02*
X4940989Y1632413D01*
X4960037Y1622889D01*
X4969560Y1613365D01*
X4979084Y1594318D01*
X4988608Y1556223D01*
X4988608Y1508603D01*
X4979084Y1470508D01*
X4969560Y1451461D01*
X4960037Y1441937D01*
X4940989Y1432413D01*
X4921941Y1432413D01*
X4902894Y1441937D01*
X4893370Y1451461D01*
X4883846Y1470508D01*
X4874322Y1508603D01*
X4874322Y1556223D01*
X4883846Y1594318D01*
X4893370Y1613365D01*
X4902894Y1622889D01*
X4921941Y1632413D01*
X5074322Y1432413D02*
X5074322Y1565746D01*
X5074322Y1546699D02*
X5083846Y1556223D01*
X5102894Y1565746D01*
X5131465Y1565746D01*
X5150513Y1556223D01*
X5160037Y1537175D01*
X5160037Y1432413D01*
X5160037Y1537175D02*
X5169560Y1556223D01*
X5188608Y1565746D01*
X5217179Y1565746D01*
X5236227Y1556223D01*
X5245751Y1537175D01*
X5245751Y1432413D01*
X5340989Y1432413D02*
X5340989Y1565746D01*
X5340989Y1546699D02*
X5350513Y1556223D01*
X5369560Y1565746D01*
X5398132Y1565746D01*
X5417179Y1556223D01*
X5426703Y1537175D01*
X5426703Y1432413D01*
X5426703Y1537175D02*
X5436227Y1556223D01*
X5455275Y1565746D01*
X5483846Y1565746D01*
X5502894Y1556223D01*
X5512418Y1537175D01*
X5512418Y1432413D01*
X5902894Y1641937D02*
X5731465Y1384794D01*
X6160036Y1632413D02*
X6179084Y1632413D01*
X6198132Y1622889D01*
X6207656Y1613365D01*
X6217179Y1594318D01*
X6226703Y1556223D01*
X6226703Y1508603D01*
X6217179Y1470508D01*
X6207656Y1451461D01*
X6198132Y1441937D01*
X6179084Y1432413D01*
X6160036Y1432413D01*
X6140989Y1441937D01*
X6131465Y1451461D01*
X6121941Y1470508D01*
X6112417Y1508603D01*
X6112417Y1556223D01*
X6121941Y1594318D01*
X6131465Y1613365D01*
X6140989Y1622889D01*
X6160036Y1632413D01*
X6312417Y1451461D02*
X6321941Y1441937D01*
X6312417Y1432413D01*
X6302894Y1441937D01*
X6312417Y1451461D01*
X6312417Y1432413D01*
X6445751Y1632413D02*
X6464798Y1632413D01*
X6483846Y1622889D01*
X6493370Y1613365D01*
X6502894Y1594318D01*
X6512417Y1556223D01*
X6512417Y1508603D01*
X6502894Y1470508D01*
X6493370Y1451461D01*
X6483846Y1441937D01*
X6464798Y1432413D01*
X6445751Y1432413D01*
X6426703Y1441937D01*
X6417179Y1451461D01*
X6407656Y1470508D01*
X6398132Y1508603D01*
X6398132Y1556223D01*
X6407656Y1594318D01*
X6417179Y1613365D01*
X6426703Y1622889D01*
X6445751Y1632413D01*
X6693370Y1632413D02*
X6598132Y1632413D01*
X6588608Y1537175D01*
X6598132Y1546699D01*
X6617179Y1556223D01*
X6664798Y1556223D01*
X6683846Y1546699D01*
X6693370Y1537175D01*
X6702894Y1518127D01*
X6702894Y1470508D01*
X6693370Y1451461D01*
X6683846Y1441937D01*
X6664798Y1432413D01*
X6617179Y1432413D01*
X6598132Y1441937D01*
X6588608Y1451461D01*
X6826703Y1632413D02*
X6845751Y1632413D01*
X6864798Y1622889D01*
X6874322Y1613365D01*
X6883846Y1594318D01*
X6893370Y1556223D01*
X6893370Y1508603D01*
X6883846Y1470508D01*
X6874322Y1451461D01*
X6864798Y1441937D01*
X6845751Y1432413D01*
X6826703Y1432413D01*
X6807656Y1441937D01*
X6798132Y1451461D01*
X6788608Y1470508D01*
X6779084Y1508603D01*
X6779084Y1556223D01*
X6788608Y1594318D01*
X6798132Y1613365D01*
X6807656Y1622889D01*
X6826703Y1632413D01*
X7017179Y1632413D02*
X7036227Y1632413D01*
X7055275Y1622889D01*
X7064798Y1613365D01*
X7074322Y1594318D01*
X7083846Y1556223D01*
X7083846Y1508603D01*
X7074322Y1470508D01*
X7064798Y1451461D01*
X7055275Y1441937D01*
X7036227Y1432413D01*
X7017179Y1432413D01*
X6998132Y1441937D01*
X6988608Y1451461D01*
X6979084Y1470508D01*
X6969560Y1508603D01*
X6969560Y1556223D01*
X6979084Y1594318D01*
X6988608Y1613365D01*
X6998132Y1622889D01*
X7017179Y1632413D01*
X7160036Y1632413D02*
X7160036Y1594318D01*
X7236227Y1632413D02*
X7236227Y1594318D01*
X7531465Y1356223D02*
X7521941Y1365746D01*
X7502894Y1394318D01*
X7493370Y1413365D01*
X7483846Y1441937D01*
X7474322Y1489556D01*
X7474322Y1527651D01*
X7483846Y1575270D01*
X7493370Y1603842D01*
X7502894Y1622889D01*
X7521941Y1651461D01*
X7531465Y1660984D01*
X7693370Y1632413D02*
X7655275Y1632413D01*
X7636227Y1622889D01*
X7626703Y1613365D01*
X7607656Y1584794D01*
X7598132Y1546699D01*
X7598132Y1470508D01*
X7607656Y1451461D01*
X7617179Y1441937D01*
X7636227Y1432413D01*
X7674322Y1432413D01*
X7693370Y1441937D01*
X7702894Y1451461D01*
X7712417Y1470508D01*
X7712417Y1518127D01*
X7702894Y1537175D01*
X7693370Y1546699D01*
X7674322Y1556223D01*
X7636227Y1556223D01*
X7617179Y1546699D01*
X7607656Y1537175D01*
X7598132Y1518127D01*
X7836227Y1632413D02*
X7855275Y1632413D01*
X7874322Y1622889D01*
X7883846Y1613365D01*
X7893370Y1594318D01*
X7902894Y1556223D01*
X7902894Y1508603D01*
X7893370Y1470508D01*
X7883846Y1451461D01*
X7874322Y1441937D01*
X7855275Y1432413D01*
X7836227Y1432413D01*
X7817179Y1441937D01*
X7807656Y1451461D01*
X7798132Y1470508D01*
X7788608Y1508603D01*
X7788608Y1556223D01*
X7798132Y1594318D01*
X7807656Y1613365D01*
X7817179Y1622889D01*
X7836227Y1632413D01*
X8140989Y1432413D02*
X8140989Y1632413D01*
X8226703Y1432413D02*
X8226703Y1537175D01*
X8217179Y1556223D01*
X8198132Y1565746D01*
X8169560Y1565746D01*
X8150513Y1556223D01*
X8140989Y1546699D01*
X8350513Y1432413D02*
X8331465Y1441937D01*
X8321941Y1451461D01*
X8312417Y1470508D01*
X8312417Y1527651D01*
X8321941Y1546699D01*
X8331465Y1556223D01*
X8350513Y1565746D01*
X8379084Y1565746D01*
X8398132Y1556223D01*
X8407656Y1546699D01*
X8417179Y1527651D01*
X8417179Y1470508D01*
X8407656Y1451461D01*
X8398132Y1441937D01*
X8379084Y1432413D01*
X8350513Y1432413D01*
X8531465Y1432413D02*
X8512418Y1441937D01*
X8502894Y1460984D01*
X8502894Y1632413D01*
X8683846Y1441937D02*
X8664798Y1432413D01*
X8626703Y1432413D01*
X8607656Y1441937D01*
X8598132Y1460984D01*
X8598132Y1537175D01*
X8607656Y1556223D01*
X8626703Y1565746D01*
X8664798Y1565746D01*
X8683846Y1556223D01*
X8693370Y1537175D01*
X8693370Y1518127D01*
X8598132Y1499080D01*
X8769560Y1441937D02*
X8788608Y1432413D01*
X8826703Y1432413D01*
X8845751Y1441937D01*
X8855275Y1460984D01*
X8855275Y1470508D01*
X8845751Y1489556D01*
X8826703Y1499080D01*
X8798132Y1499080D01*
X8779084Y1508603D01*
X8769560Y1527651D01*
X8769560Y1537175D01*
X8779084Y1556223D01*
X8798132Y1565746D01*
X8826703Y1565746D01*
X8845751Y1556223D01*
X8921941Y1356223D02*
X8931465Y1365746D01*
X8950513Y1394318D01*
X8960037Y1413365D01*
X8969560Y1441937D01*
X8979084Y1489556D01*
X8979084Y1527651D01*
X8969560Y1575270D01*
X8960037Y1603842D01*
X8950513Y1622889D01*
X8931465Y1651461D01*
X8921941Y1660984D01*
D15*
X3940523Y1212927D02*
X3940523Y1304852D01*
X3848598Y1304852D01*
X3848598Y1212927D01*
X3940523Y1212927D01*
D11*
X4321941Y1168413D02*
X4207656Y1168413D01*
X4264798Y1168413D02*
X4264798Y1368413D01*
X4245751Y1339842D01*
X4226703Y1320794D01*
X4207656Y1311270D01*
X4407656Y1187461D02*
X4417179Y1177937D01*
X4407656Y1168413D01*
X4398132Y1177937D01*
X4407656Y1187461D01*
X4407656Y1168413D01*
X4483846Y1368413D02*
X4607656Y1368413D01*
X4540989Y1292223D01*
X4569560Y1292223D01*
X4588608Y1282699D01*
X4598132Y1273175D01*
X4607656Y1254127D01*
X4607656Y1206508D01*
X4598132Y1187461D01*
X4588608Y1177937D01*
X4569560Y1168413D01*
X4512418Y1168413D01*
X4493370Y1177937D01*
X4483846Y1187461D01*
X4731465Y1368413D02*
X4750513Y1368413D01*
X4769560Y1358889D01*
X4779084Y1349365D01*
X4788608Y1330318D01*
X4798132Y1292223D01*
X4798132Y1244604D01*
X4788608Y1206508D01*
X4779084Y1187461D01*
X4769560Y1177937D01*
X4750513Y1168413D01*
X4731465Y1168413D01*
X4712418Y1177937D01*
X4702894Y1187461D01*
X4693370Y1206508D01*
X4683846Y1244604D01*
X4683846Y1292223D01*
X4693370Y1330318D01*
X4702894Y1349365D01*
X4712418Y1358889D01*
X4731465Y1368413D01*
X4921941Y1368413D02*
X4940989Y1368413D01*
X4960037Y1358889D01*
X4969560Y1349365D01*
X4979084Y1330318D01*
X4988608Y1292223D01*
X4988608Y1244604D01*
X4979084Y1206508D01*
X4969560Y1187461D01*
X4960037Y1177937D01*
X4940989Y1168413D01*
X4921941Y1168413D01*
X4902894Y1177937D01*
X4893370Y1187461D01*
X4883846Y1206508D01*
X4874322Y1244604D01*
X4874322Y1292223D01*
X4883846Y1330318D01*
X4893370Y1349365D01*
X4902894Y1358889D01*
X4921941Y1368413D01*
X5074322Y1168413D02*
X5074322Y1301746D01*
X5074322Y1282699D02*
X5083846Y1292223D01*
X5102894Y1301746D01*
X5131465Y1301746D01*
X5150513Y1292223D01*
X5160037Y1273175D01*
X5160037Y1168413D01*
X5160037Y1273175D02*
X5169560Y1292223D01*
X5188608Y1301746D01*
X5217179Y1301746D01*
X5236227Y1292223D01*
X5245751Y1273175D01*
X5245751Y1168413D01*
X5340989Y1168413D02*
X5340989Y1301746D01*
X5340989Y1282699D02*
X5350513Y1292223D01*
X5369560Y1301746D01*
X5398132Y1301746D01*
X5417179Y1292223D01*
X5426703Y1273175D01*
X5426703Y1168413D01*
X5426703Y1273175D02*
X5436227Y1292223D01*
X5455275Y1301746D01*
X5483846Y1301746D01*
X5502894Y1292223D01*
X5512418Y1273175D01*
X5512418Y1168413D01*
X5902894Y1377937D02*
X5731465Y1120794D01*
X6160036Y1368413D02*
X6179084Y1368413D01*
X6198132Y1358889D01*
X6207656Y1349365D01*
X6217179Y1330318D01*
X6226703Y1292223D01*
X6226703Y1244604D01*
X6217179Y1206508D01*
X6207656Y1187461D01*
X6198132Y1177937D01*
X6179084Y1168413D01*
X6160036Y1168413D01*
X6140989Y1177937D01*
X6131465Y1187461D01*
X6121941Y1206508D01*
X6112417Y1244604D01*
X6112417Y1292223D01*
X6121941Y1330318D01*
X6131465Y1349365D01*
X6140989Y1358889D01*
X6160036Y1368413D01*
X6312417Y1187461D02*
X6321941Y1177937D01*
X6312417Y1168413D01*
X6302894Y1177937D01*
X6312417Y1187461D01*
X6312417Y1168413D01*
X6445751Y1368413D02*
X6464798Y1368413D01*
X6483846Y1358889D01*
X6493370Y1349365D01*
X6502894Y1330318D01*
X6512417Y1292223D01*
X6512417Y1244604D01*
X6502894Y1206508D01*
X6493370Y1187461D01*
X6483846Y1177937D01*
X6464798Y1168413D01*
X6445751Y1168413D01*
X6426703Y1177937D01*
X6417179Y1187461D01*
X6407656Y1206508D01*
X6398132Y1244604D01*
X6398132Y1292223D01*
X6407656Y1330318D01*
X6417179Y1349365D01*
X6426703Y1358889D01*
X6445751Y1368413D01*
X6693370Y1368413D02*
X6598132Y1368413D01*
X6588608Y1273175D01*
X6598132Y1282699D01*
X6617179Y1292223D01*
X6664798Y1292223D01*
X6683846Y1282699D01*
X6693370Y1273175D01*
X6702894Y1254127D01*
X6702894Y1206508D01*
X6693370Y1187461D01*
X6683846Y1177937D01*
X6664798Y1168413D01*
X6617179Y1168413D01*
X6598132Y1177937D01*
X6588608Y1187461D01*
X6893370Y1168413D02*
X6779084Y1168413D01*
X6836227Y1168413D02*
X6836227Y1368413D01*
X6817179Y1339842D01*
X6798132Y1320794D01*
X6779084Y1311270D01*
X6969560Y1349365D02*
X6979084Y1358889D01*
X6998132Y1368413D01*
X7045751Y1368413D01*
X7064798Y1358889D01*
X7074322Y1349365D01*
X7083846Y1330318D01*
X7083846Y1311270D01*
X7074322Y1282699D01*
X6960036Y1168413D01*
X7083846Y1168413D01*
X7160036Y1368413D02*
X7160036Y1330318D01*
X7236227Y1368413D02*
X7236227Y1330318D01*
X7531465Y1092223D02*
X7521941Y1101746D01*
X7502894Y1130318D01*
X7493370Y1149365D01*
X7483846Y1177937D01*
X7474322Y1225556D01*
X7474322Y1263651D01*
X7483846Y1311270D01*
X7493370Y1339842D01*
X7502894Y1358889D01*
X7521941Y1387461D01*
X7531465Y1396985D01*
X7598132Y1349365D02*
X7607656Y1358889D01*
X7626703Y1368413D01*
X7674322Y1368413D01*
X7693370Y1358889D01*
X7702894Y1349365D01*
X7712417Y1330318D01*
X7712417Y1311270D01*
X7702894Y1282699D01*
X7588608Y1168413D01*
X7712417Y1168413D01*
X7950513Y1168413D02*
X7950513Y1368413D01*
X8036227Y1168413D02*
X8036227Y1273175D01*
X8026703Y1292223D01*
X8007656Y1301746D01*
X7979084Y1301746D01*
X7960036Y1292223D01*
X7950513Y1282699D01*
X8160036Y1168413D02*
X8140989Y1177937D01*
X8131465Y1187461D01*
X8121941Y1206508D01*
X8121941Y1263651D01*
X8131465Y1282699D01*
X8140989Y1292223D01*
X8160036Y1301746D01*
X8188608Y1301746D01*
X8207656Y1292223D01*
X8217179Y1282699D01*
X8226703Y1263651D01*
X8226703Y1206508D01*
X8217179Y1187461D01*
X8207656Y1177937D01*
X8188608Y1168413D01*
X8160036Y1168413D01*
X8340989Y1168413D02*
X8321941Y1177937D01*
X8312417Y1196985D01*
X8312417Y1368413D01*
X8493370Y1177937D02*
X8474322Y1168413D01*
X8436227Y1168413D01*
X8417179Y1177937D01*
X8407656Y1196985D01*
X8407656Y1273175D01*
X8417179Y1292223D01*
X8436227Y1301746D01*
X8474322Y1301746D01*
X8493370Y1292223D01*
X8502894Y1273175D01*
X8502894Y1254127D01*
X8407656Y1235080D01*
X8579084Y1177937D02*
X8598132Y1168413D01*
X8636227Y1168413D01*
X8655275Y1177937D01*
X8664798Y1196985D01*
X8664798Y1206508D01*
X8655275Y1225556D01*
X8636227Y1235080D01*
X8607656Y1235080D01*
X8588608Y1244604D01*
X8579084Y1263651D01*
X8579084Y1273175D01*
X8588608Y1292223D01*
X8607656Y1301746D01*
X8636227Y1301746D01*
X8655275Y1292223D01*
X8731465Y1092223D02*
X8740989Y1101746D01*
X8760037Y1130318D01*
X8769560Y1149365D01*
X8779084Y1177937D01*
X8788608Y1225556D01*
X8788608Y1263651D01*
X8779084Y1311270D01*
X8769560Y1339842D01*
X8760037Y1358889D01*
X8740989Y1387461D01*
X8731465Y1396985D01*
X3859560Y894889D02*
X3959560Y994889D01*
X3859560Y1094889D01*
X3759560Y994889D01*
X3859560Y894889D01*
X4207656Y1085365D02*
X4217179Y1094889D01*
X4236227Y1104413D01*
X4283846Y1104413D01*
X4302894Y1094889D01*
X4312418Y1085365D01*
X4321941Y1066318D01*
X4321941Y1047270D01*
X4312418Y1018699D01*
X4198132Y904413D01*
X4321941Y904413D01*
X4407656Y923461D02*
X4417179Y913937D01*
X4407656Y904413D01*
X4398132Y913937D01*
X4407656Y923461D01*
X4407656Y904413D01*
X4493370Y1085365D02*
X4502894Y1094889D01*
X4521941Y1104413D01*
X4569560Y1104413D01*
X4588608Y1094889D01*
X4598132Y1085365D01*
X4607656Y1066318D01*
X4607656Y1047270D01*
X4598132Y1018699D01*
X4483846Y904413D01*
X4607656Y904413D01*
X4731465Y1104413D02*
X4750513Y1104413D01*
X4769560Y1094889D01*
X4779084Y1085365D01*
X4788608Y1066318D01*
X4798132Y1028223D01*
X4798132Y980603D01*
X4788608Y942508D01*
X4779084Y923461D01*
X4769560Y913937D01*
X4750513Y904413D01*
X4731465Y904413D01*
X4712418Y913937D01*
X4702894Y923461D01*
X4693370Y942508D01*
X4683846Y980603D01*
X4683846Y1028223D01*
X4693370Y1066318D01*
X4702894Y1085365D01*
X4712418Y1094889D01*
X4731465Y1104413D01*
X4921941Y1104413D02*
X4940989Y1104413D01*
X4960037Y1094889D01*
X4969560Y1085365D01*
X4979084Y1066318D01*
X4988608Y1028223D01*
X4988608Y980603D01*
X4979084Y942508D01*
X4969560Y923461D01*
X4960037Y913937D01*
X4940989Y904413D01*
X4921941Y904413D01*
X4902894Y913937D01*
X4893370Y923461D01*
X4883846Y942508D01*
X4874322Y980603D01*
X4874322Y1028223D01*
X4883846Y1066318D01*
X4893370Y1085365D01*
X4902894Y1094889D01*
X4921941Y1104413D01*
X5074322Y904413D02*
X5074322Y1037746D01*
X5074322Y1018699D02*
X5083846Y1028223D01*
X5102894Y1037746D01*
X5131465Y1037746D01*
X5150513Y1028223D01*
X5160037Y1009175D01*
X5160037Y904413D01*
X5160037Y1009175D02*
X5169560Y1028223D01*
X5188608Y1037746D01*
X5217179Y1037746D01*
X5236227Y1028223D01*
X5245751Y1009175D01*
X5245751Y904413D01*
X5340989Y904413D02*
X5340989Y1037746D01*
X5340989Y1018699D02*
X5350513Y1028223D01*
X5369560Y1037746D01*
X5398132Y1037746D01*
X5417179Y1028223D01*
X5426703Y1009175D01*
X5426703Y904413D01*
X5426703Y1009175D02*
X5436227Y1028223D01*
X5455275Y1037746D01*
X5483846Y1037746D01*
X5502894Y1028223D01*
X5512418Y1009175D01*
X5512418Y904413D01*
X5902894Y1113937D02*
X5731465Y856794D01*
X6160036Y1104413D02*
X6179084Y1104413D01*
X6198132Y1094889D01*
X6207656Y1085365D01*
X6217179Y1066318D01*
X6226703Y1028223D01*
X6226703Y980603D01*
X6217179Y942508D01*
X6207656Y923461D01*
X6198132Y913937D01*
X6179084Y904413D01*
X6160036Y904413D01*
X6140989Y913937D01*
X6131465Y923461D01*
X6121941Y942508D01*
X6112417Y980603D01*
X6112417Y1028223D01*
X6121941Y1066318D01*
X6131465Y1085365D01*
X6140989Y1094889D01*
X6160036Y1104413D01*
X6312417Y923461D02*
X6321941Y913937D01*
X6312417Y904413D01*
X6302894Y913937D01*
X6312417Y923461D01*
X6312417Y904413D01*
X6445751Y1104413D02*
X6464798Y1104413D01*
X6483846Y1094889D01*
X6493370Y1085365D01*
X6502894Y1066318D01*
X6512417Y1028223D01*
X6512417Y980603D01*
X6502894Y942508D01*
X6493370Y923461D01*
X6483846Y913937D01*
X6464798Y904413D01*
X6445751Y904413D01*
X6426703Y913937D01*
X6417179Y923461D01*
X6407656Y942508D01*
X6398132Y980603D01*
X6398132Y1028223D01*
X6407656Y1066318D01*
X6417179Y1085365D01*
X6426703Y1094889D01*
X6445751Y1104413D01*
X6626703Y1018699D02*
X6607656Y1028223D01*
X6598132Y1037746D01*
X6588608Y1056794D01*
X6588608Y1066318D01*
X6598132Y1085365D01*
X6607656Y1094889D01*
X6626703Y1104413D01*
X6664798Y1104413D01*
X6683846Y1094889D01*
X6693370Y1085365D01*
X6702894Y1066318D01*
X6702894Y1056794D01*
X6693370Y1037746D01*
X6683846Y1028223D01*
X6664798Y1018699D01*
X6626703Y1018699D01*
X6607656Y1009175D01*
X6598132Y999651D01*
X6588608Y980603D01*
X6588608Y942508D01*
X6598132Y923461D01*
X6607656Y913937D01*
X6626703Y904413D01*
X6664798Y904413D01*
X6683846Y913937D01*
X6693370Y923461D01*
X6702894Y942508D01*
X6702894Y980603D01*
X6693370Y999651D01*
X6683846Y1009175D01*
X6664798Y1018699D01*
X6874322Y1104413D02*
X6836227Y1104413D01*
X6817179Y1094889D01*
X6807656Y1085365D01*
X6788608Y1056794D01*
X6779084Y1018699D01*
X6779084Y942508D01*
X6788608Y923461D01*
X6798132Y913937D01*
X6817179Y904413D01*
X6855275Y904413D01*
X6874322Y913937D01*
X6883846Y923461D01*
X6893370Y942508D01*
X6893370Y990127D01*
X6883846Y1009175D01*
X6874322Y1018699D01*
X6855275Y1028223D01*
X6817179Y1028223D01*
X6798132Y1018699D01*
X6788608Y1009175D01*
X6779084Y990127D01*
X7064798Y1104413D02*
X7026703Y1104413D01*
X7007656Y1094889D01*
X6998132Y1085365D01*
X6979084Y1056794D01*
X6969560Y1018699D01*
X6969560Y942508D01*
X6979084Y923461D01*
X6988608Y913937D01*
X7007656Y904413D01*
X7045751Y904413D01*
X7064798Y913937D01*
X7074322Y923461D01*
X7083846Y942508D01*
X7083846Y990127D01*
X7074322Y1009175D01*
X7064798Y1018699D01*
X7045751Y1028223D01*
X7007656Y1028223D01*
X6988608Y1018699D01*
X6979084Y1009175D01*
X6969560Y990127D01*
X7160036Y1104413D02*
X7160036Y1066318D01*
X7236227Y1104413D02*
X7236227Y1066318D01*
X7531465Y828223D02*
X7521941Y837746D01*
X7502894Y866318D01*
X7493370Y885365D01*
X7483846Y913937D01*
X7474322Y961556D01*
X7474322Y999651D01*
X7483846Y1047270D01*
X7493370Y1075842D01*
X7502894Y1094889D01*
X7521941Y1123461D01*
X7531465Y1132985D01*
X7588608Y1104413D02*
X7712417Y1104413D01*
X7645751Y1028223D01*
X7674322Y1028223D01*
X7693370Y1018699D01*
X7702894Y1009175D01*
X7712417Y990127D01*
X7712417Y942508D01*
X7702894Y923461D01*
X7693370Y913937D01*
X7674322Y904413D01*
X7617179Y904413D01*
X7598132Y913937D01*
X7588608Y923461D01*
X7950513Y904413D02*
X7950513Y1104413D01*
X8036227Y904413D02*
X8036227Y1009175D01*
X8026703Y1028223D01*
X8007656Y1037746D01*
X7979084Y1037746D01*
X7960036Y1028223D01*
X7950513Y1018699D01*
X8160036Y904413D02*
X8140989Y913937D01*
X8131465Y923461D01*
X8121941Y942508D01*
X8121941Y999651D01*
X8131465Y1018699D01*
X8140989Y1028223D01*
X8160036Y1037746D01*
X8188608Y1037746D01*
X8207656Y1028223D01*
X8217179Y1018699D01*
X8226703Y999651D01*
X8226703Y942508D01*
X8217179Y923461D01*
X8207656Y913937D01*
X8188608Y904413D01*
X8160036Y904413D01*
X8340989Y904413D02*
X8321941Y913937D01*
X8312417Y932984D01*
X8312417Y1104413D01*
X8493370Y913937D02*
X8474322Y904413D01*
X8436227Y904413D01*
X8417179Y913937D01*
X8407656Y932984D01*
X8407656Y1009175D01*
X8417179Y1028223D01*
X8436227Y1037746D01*
X8474322Y1037746D01*
X8493370Y1028223D01*
X8502894Y1009175D01*
X8502894Y990127D01*
X8407656Y971080D01*
X8579084Y913937D02*
X8598132Y904413D01*
X8636227Y904413D01*
X8655275Y913937D01*
X8664798Y932984D01*
X8664798Y942508D01*
X8655275Y961556D01*
X8636227Y971080D01*
X8607656Y971080D01*
X8588608Y980603D01*
X8579084Y999651D01*
X8579084Y1009175D01*
X8588608Y1028223D01*
X8607656Y1037746D01*
X8636227Y1037746D01*
X8655275Y1028223D01*
X8731465Y828223D02*
X8740989Y837746D01*
X8760037Y866318D01*
X8769560Y885365D01*
X8779084Y913937D01*
X8788608Y961556D01*
X8788608Y999651D01*
X8779084Y1047270D01*
X8769560Y1075842D01*
X8760037Y1094889D01*
X8740989Y1123461D01*
X8731465Y1132985D01*
M02*
