%TF.GenerationSoftware,KiCad,Pcbnew,7.0.2*%
%TF.CreationDate,2023-05-29T21:35:39+02:00*%
%TF.ProjectId,Bolbol,426f6c62-6f6c-42e6-9b69-6361645f7063,rev?*%
%TF.SameCoordinates,Original*%
%TF.FileFunction,Legend,Top*%
%TF.FilePolarity,Positive*%
%FSLAX46Y46*%
G04 Gerber Fmt 4.6, Leading zero omitted, Abs format (unit mm)*
G04 Created by KiCad (PCBNEW 7.0.2) date 2023-05-29 21:35:39*
%MOMM*%
%LPD*%
G01*
G04 APERTURE LIST*
G04 Aperture macros list*
%AMRoundRect*
0 Rectangle with rounded corners*
0 $1 Rounding radius*
0 $2 $3 $4 $5 $6 $7 $8 $9 X,Y pos of 4 corners*
0 Add a 4 corners polygon primitive as box body*
4,1,4,$2,$3,$4,$5,$6,$7,$8,$9,$2,$3,0*
0 Add four circle primitives for the rounded corners*
1,1,$1+$1,$2,$3*
1,1,$1+$1,$4,$5*
1,1,$1+$1,$6,$7*
1,1,$1+$1,$8,$9*
0 Add four rect primitives between the rounded corners*
20,1,$1+$1,$2,$3,$4,$5,0*
20,1,$1+$1,$4,$5,$6,$7,0*
20,1,$1+$1,$6,$7,$8,$9,0*
20,1,$1+$1,$8,$9,$2,$3,0*%
G04 Aperture macros list end*
%ADD10C,0.150000*%
%ADD11C,0.125000*%
%ADD12C,0.120000*%
%ADD13C,2.000000*%
%ADD14C,1.524000*%
%ADD15RoundRect,0.375000X0.750000X-0.375000X0.750000X0.375000X-0.750000X0.375000X-0.750000X-0.375000X0*%
%ADD16C,1.701800*%
%ADD17C,3.000000*%
%ADD18C,3.429000*%
%ADD19C,4.500000*%
%ADD20R,1.000000X0.800000*%
%ADD21C,0.900000*%
%ADD22R,0.700000X1.500000*%
G04 APERTURE END LIST*
D10*
%TO.C,H2*%
X123556098Y-110686629D02*
X123521199Y-109687238D01*
X123537817Y-110163138D02*
X124108898Y-110143196D01*
X124127179Y-110666686D02*
X124092279Y-109667295D01*
X124523913Y-109747519D02*
X124569841Y-109698267D01*
X124569841Y-109698267D02*
X124663359Y-109647353D01*
X124663359Y-109647353D02*
X124901310Y-109639043D01*
X124901310Y-109639043D02*
X124998152Y-109683310D01*
X124998152Y-109683310D02*
X125047404Y-109729238D01*
X125047404Y-109729238D02*
X125098317Y-109822756D01*
X125098317Y-109822756D02*
X125101641Y-109917936D01*
X125101641Y-109917936D02*
X125059037Y-110062368D01*
X125059037Y-110062368D02*
X124507899Y-110653391D01*
X124507899Y-110653391D02*
X125126569Y-110631787D01*
X66253698Y-36899629D02*
X66218799Y-35900238D01*
X66235417Y-36376138D02*
X66806498Y-36356196D01*
X66824779Y-36879686D02*
X66789879Y-35880295D01*
X67221513Y-35960519D02*
X67267441Y-35911267D01*
X67267441Y-35911267D02*
X67360959Y-35860353D01*
X67360959Y-35860353D02*
X67598910Y-35852043D01*
X67598910Y-35852043D02*
X67695752Y-35896310D01*
X67695752Y-35896310D02*
X67745004Y-35942238D01*
X67745004Y-35942238D02*
X67795917Y-36035756D01*
X67795917Y-36035756D02*
X67799241Y-36130936D01*
X67799241Y-36130936D02*
X67756637Y-36275368D01*
X67756637Y-36275368D02*
X67205499Y-36866391D01*
X67205499Y-36866391D02*
X67824169Y-36844787D01*
X249540098Y-68497229D02*
X249505199Y-67497838D01*
X249521817Y-67973738D02*
X250092898Y-67953796D01*
X250111179Y-68477286D02*
X250076279Y-67477895D01*
X250507913Y-67558119D02*
X250553841Y-67508867D01*
X250553841Y-67508867D02*
X250647359Y-67457953D01*
X250647359Y-67457953D02*
X250885310Y-67449643D01*
X250885310Y-67449643D02*
X250982152Y-67493910D01*
X250982152Y-67493910D02*
X251031404Y-67539838D01*
X251031404Y-67539838D02*
X251082317Y-67633356D01*
X251082317Y-67633356D02*
X251085641Y-67728536D01*
X251085641Y-67728536D02*
X251043037Y-67872968D01*
X251043037Y-67872968D02*
X250491899Y-68463991D01*
X250491899Y-68463991D02*
X251110569Y-68442387D01*
%TO.C,SW33*%
X162627486Y-120937099D02*
X162294153Y-120460908D01*
X162056058Y-120937099D02*
X162056058Y-119937099D01*
X162056058Y-119937099D02*
X162437010Y-119937099D01*
X162437010Y-119937099D02*
X162532248Y-119984718D01*
X162532248Y-119984718D02*
X162579867Y-120032337D01*
X162579867Y-120032337D02*
X162627486Y-120127575D01*
X162627486Y-120127575D02*
X162627486Y-120270432D01*
X162627486Y-120270432D02*
X162579867Y-120365670D01*
X162579867Y-120365670D02*
X162532248Y-120413289D01*
X162532248Y-120413289D02*
X162437010Y-120460908D01*
X162437010Y-120460908D02*
X162056058Y-120460908D01*
X163056058Y-120413289D02*
X163389391Y-120413289D01*
X163532248Y-120937099D02*
X163056058Y-120937099D01*
X163056058Y-120937099D02*
X163056058Y-119937099D01*
X163056058Y-119937099D02*
X163532248Y-119937099D01*
X163913201Y-120889480D02*
X164056058Y-120937099D01*
X164056058Y-120937099D02*
X164294153Y-120937099D01*
X164294153Y-120937099D02*
X164389391Y-120889480D01*
X164389391Y-120889480D02*
X164437010Y-120841860D01*
X164437010Y-120841860D02*
X164484629Y-120746622D01*
X164484629Y-120746622D02*
X164484629Y-120651384D01*
X164484629Y-120651384D02*
X164437010Y-120556146D01*
X164437010Y-120556146D02*
X164389391Y-120508527D01*
X164389391Y-120508527D02*
X164294153Y-120460908D01*
X164294153Y-120460908D02*
X164103677Y-120413289D01*
X164103677Y-120413289D02*
X164008439Y-120365670D01*
X164008439Y-120365670D02*
X163960820Y-120318051D01*
X163960820Y-120318051D02*
X163913201Y-120222813D01*
X163913201Y-120222813D02*
X163913201Y-120127575D01*
X163913201Y-120127575D02*
X163960820Y-120032337D01*
X163960820Y-120032337D02*
X164008439Y-119984718D01*
X164008439Y-119984718D02*
X164103677Y-119937099D01*
X164103677Y-119937099D02*
X164341772Y-119937099D01*
X164341772Y-119937099D02*
X164484629Y-119984718D01*
X164913201Y-120413289D02*
X165246534Y-120413289D01*
X165389391Y-120937099D02*
X164913201Y-120937099D01*
X164913201Y-120937099D02*
X164913201Y-119937099D01*
X164913201Y-119937099D02*
X165389391Y-119937099D01*
X165675106Y-119937099D02*
X166246534Y-119937099D01*
X165960820Y-120937099D02*
X165960820Y-119937099D01*
%TO.C,SW34*%
X149385522Y-117616462D02*
X149528379Y-117664081D01*
X149528379Y-117664081D02*
X149766474Y-117664081D01*
X149766474Y-117664081D02*
X149861712Y-117616462D01*
X149861712Y-117616462D02*
X149909331Y-117568842D01*
X149909331Y-117568842D02*
X149956950Y-117473604D01*
X149956950Y-117473604D02*
X149956950Y-117378366D01*
X149956950Y-117378366D02*
X149909331Y-117283128D01*
X149909331Y-117283128D02*
X149861712Y-117235509D01*
X149861712Y-117235509D02*
X149766474Y-117187890D01*
X149766474Y-117187890D02*
X149575998Y-117140271D01*
X149575998Y-117140271D02*
X149480760Y-117092652D01*
X149480760Y-117092652D02*
X149433141Y-117045033D01*
X149433141Y-117045033D02*
X149385522Y-116949795D01*
X149385522Y-116949795D02*
X149385522Y-116854557D01*
X149385522Y-116854557D02*
X149433141Y-116759319D01*
X149433141Y-116759319D02*
X149480760Y-116711700D01*
X149480760Y-116711700D02*
X149575998Y-116664081D01*
X149575998Y-116664081D02*
X149814093Y-116664081D01*
X149814093Y-116664081D02*
X149956950Y-116711700D01*
X150290284Y-116664081D02*
X150528379Y-117664081D01*
X150528379Y-117664081D02*
X150718855Y-116949795D01*
X150718855Y-116949795D02*
X150909331Y-117664081D01*
X150909331Y-117664081D02*
X151147427Y-116664081D01*
X151433141Y-116664081D02*
X152052188Y-116664081D01*
X152052188Y-116664081D02*
X151718855Y-117045033D01*
X151718855Y-117045033D02*
X151861712Y-117045033D01*
X151861712Y-117045033D02*
X151956950Y-117092652D01*
X151956950Y-117092652D02*
X152004569Y-117140271D01*
X152004569Y-117140271D02*
X152052188Y-117235509D01*
X152052188Y-117235509D02*
X152052188Y-117473604D01*
X152052188Y-117473604D02*
X152004569Y-117568842D01*
X152004569Y-117568842D02*
X151956950Y-117616462D01*
X151956950Y-117616462D02*
X151861712Y-117664081D01*
X151861712Y-117664081D02*
X151575998Y-117664081D01*
X151575998Y-117664081D02*
X151480760Y-117616462D01*
X151480760Y-117616462D02*
X151433141Y-117568842D01*
X152909331Y-116997414D02*
X152909331Y-117664081D01*
X152671236Y-116616462D02*
X152433141Y-117330747D01*
X152433141Y-117330747D02*
X153052188Y-117330747D01*
%TO.C,H2*%
X54290298Y-68446429D02*
X54255399Y-67447038D01*
X54272017Y-67922938D02*
X54843098Y-67902996D01*
X54861379Y-68426486D02*
X54826479Y-67427095D01*
X55258113Y-67507319D02*
X55304041Y-67458067D01*
X55304041Y-67458067D02*
X55397559Y-67407153D01*
X55397559Y-67407153D02*
X55635510Y-67398843D01*
X55635510Y-67398843D02*
X55732352Y-67443110D01*
X55732352Y-67443110D02*
X55781604Y-67489038D01*
X55781604Y-67489038D02*
X55832517Y-67582556D01*
X55832517Y-67582556D02*
X55835841Y-67677736D01*
X55835841Y-67677736D02*
X55793237Y-67822168D01*
X55793237Y-67822168D02*
X55242099Y-68413191D01*
X55242099Y-68413191D02*
X55860769Y-68391587D01*
D11*
%TO.C,U1*%
X161297679Y-100300586D02*
X161393393Y-100336300D01*
X161393393Y-100336300D02*
X161425298Y-100372014D01*
X161425298Y-100372014D02*
X161457202Y-100443443D01*
X161457202Y-100443443D02*
X161457202Y-100550586D01*
X161457202Y-100550586D02*
X161425298Y-100622014D01*
X161425298Y-100622014D02*
X161393393Y-100657729D01*
X161393393Y-100657729D02*
X161329583Y-100693443D01*
X161329583Y-100693443D02*
X161074345Y-100693443D01*
X161074345Y-100693443D02*
X161074345Y-99943443D01*
X161074345Y-99943443D02*
X161297679Y-99943443D01*
X161297679Y-99943443D02*
X161361488Y-99979157D01*
X161361488Y-99979157D02*
X161393393Y-100014871D01*
X161393393Y-100014871D02*
X161425298Y-100086300D01*
X161425298Y-100086300D02*
X161425298Y-100157729D01*
X161425298Y-100157729D02*
X161393393Y-100229157D01*
X161393393Y-100229157D02*
X161361488Y-100264871D01*
X161361488Y-100264871D02*
X161297679Y-100300586D01*
X161297679Y-100300586D02*
X161074345Y-100300586D01*
X162063393Y-99943443D02*
X161744345Y-99943443D01*
X161744345Y-99943443D02*
X161712441Y-100300586D01*
X161712441Y-100300586D02*
X161744345Y-100264871D01*
X161744345Y-100264871D02*
X161808155Y-100229157D01*
X161808155Y-100229157D02*
X161967679Y-100229157D01*
X161967679Y-100229157D02*
X162031488Y-100264871D01*
X162031488Y-100264871D02*
X162063393Y-100300586D01*
X162063393Y-100300586D02*
X162095298Y-100372014D01*
X162095298Y-100372014D02*
X162095298Y-100550586D01*
X162095298Y-100550586D02*
X162063393Y-100622014D01*
X162063393Y-100622014D02*
X162031488Y-100657729D01*
X162031488Y-100657729D02*
X161967679Y-100693443D01*
X161967679Y-100693443D02*
X161808155Y-100693443D01*
X161808155Y-100693443D02*
X161744345Y-100657729D01*
X161744345Y-100657729D02*
X161712441Y-100622014D01*
X162861012Y-99907729D02*
X162286726Y-100872014D01*
X163116250Y-100693443D02*
X163243869Y-100693443D01*
X163243869Y-100693443D02*
X163307679Y-100657729D01*
X163307679Y-100657729D02*
X163339583Y-100622014D01*
X163339583Y-100622014D02*
X163403393Y-100514871D01*
X163403393Y-100514871D02*
X163435298Y-100372014D01*
X163435298Y-100372014D02*
X163435298Y-100086300D01*
X163435298Y-100086300D02*
X163403393Y-100014871D01*
X163403393Y-100014871D02*
X163371488Y-99979157D01*
X163371488Y-99979157D02*
X163307679Y-99943443D01*
X163307679Y-99943443D02*
X163180060Y-99943443D01*
X163180060Y-99943443D02*
X163116250Y-99979157D01*
X163116250Y-99979157D02*
X163084345Y-100014871D01*
X163084345Y-100014871D02*
X163052441Y-100086300D01*
X163052441Y-100086300D02*
X163052441Y-100264871D01*
X163052441Y-100264871D02*
X163084345Y-100336300D01*
X163084345Y-100336300D02*
X163116250Y-100372014D01*
X163116250Y-100372014D02*
X163180060Y-100407729D01*
X163180060Y-100407729D02*
X163307679Y-100407729D01*
X163307679Y-100407729D02*
X163371488Y-100372014D01*
X163371488Y-100372014D02*
X163403393Y-100336300D01*
X163403393Y-100336300D02*
X163435298Y-100264871D01*
X161074345Y-87993443D02*
X161074345Y-87243443D01*
X161074345Y-87243443D02*
X161233869Y-87243443D01*
X161233869Y-87243443D02*
X161329583Y-87279157D01*
X161329583Y-87279157D02*
X161393393Y-87350586D01*
X161393393Y-87350586D02*
X161425298Y-87422014D01*
X161425298Y-87422014D02*
X161457202Y-87564871D01*
X161457202Y-87564871D02*
X161457202Y-87672014D01*
X161457202Y-87672014D02*
X161425298Y-87814871D01*
X161425298Y-87814871D02*
X161393393Y-87886300D01*
X161393393Y-87886300D02*
X161329583Y-87957729D01*
X161329583Y-87957729D02*
X161233869Y-87993443D01*
X161233869Y-87993443D02*
X161074345Y-87993443D01*
X162031488Y-87493443D02*
X162031488Y-87993443D01*
X161871964Y-87207729D02*
X161712441Y-87743443D01*
X161712441Y-87743443D02*
X162127202Y-87743443D01*
X162861012Y-87207729D02*
X162286726Y-88172014D01*
X163371488Y-87493443D02*
X163371488Y-87993443D01*
X163211964Y-87207729D02*
X163052441Y-87743443D01*
X163052441Y-87743443D02*
X163467202Y-87743443D01*
X140545535Y-79593443D02*
X140768868Y-80343443D01*
X140768868Y-80343443D02*
X140992202Y-79593443D01*
X141598392Y-80272014D02*
X141566488Y-80307729D01*
X141566488Y-80307729D02*
X141470773Y-80343443D01*
X141470773Y-80343443D02*
X141406964Y-80343443D01*
X141406964Y-80343443D02*
X141311250Y-80307729D01*
X141311250Y-80307729D02*
X141247440Y-80236300D01*
X141247440Y-80236300D02*
X141215535Y-80164871D01*
X141215535Y-80164871D02*
X141183631Y-80022014D01*
X141183631Y-80022014D02*
X141183631Y-79914871D01*
X141183631Y-79914871D02*
X141215535Y-79772014D01*
X141215535Y-79772014D02*
X141247440Y-79700586D01*
X141247440Y-79700586D02*
X141311250Y-79629157D01*
X141311250Y-79629157D02*
X141406964Y-79593443D01*
X141406964Y-79593443D02*
X141470773Y-79593443D01*
X141470773Y-79593443D02*
X141566488Y-79629157D01*
X141566488Y-79629157D02*
X141598392Y-79664871D01*
X142268392Y-80272014D02*
X142236488Y-80307729D01*
X142236488Y-80307729D02*
X142140773Y-80343443D01*
X142140773Y-80343443D02*
X142076964Y-80343443D01*
X142076964Y-80343443D02*
X141981250Y-80307729D01*
X141981250Y-80307729D02*
X141917440Y-80236300D01*
X141917440Y-80236300D02*
X141885535Y-80164871D01*
X141885535Y-80164871D02*
X141853631Y-80022014D01*
X141853631Y-80022014D02*
X141853631Y-79914871D01*
X141853631Y-79914871D02*
X141885535Y-79772014D01*
X141885535Y-79772014D02*
X141917440Y-79700586D01*
X141917440Y-79700586D02*
X141981250Y-79629157D01*
X141981250Y-79629157D02*
X142076964Y-79593443D01*
X142076964Y-79593443D02*
X142140773Y-79593443D01*
X142140773Y-79593443D02*
X142236488Y-79629157D01*
X142236488Y-79629157D02*
X142268392Y-79664871D01*
X139656250Y-100743443D02*
X139273393Y-100743443D01*
X139464821Y-100743443D02*
X139464821Y-99993443D01*
X139464821Y-99993443D02*
X139401012Y-100100586D01*
X139401012Y-100100586D02*
X139337202Y-100172014D01*
X139337202Y-100172014D02*
X139273393Y-100207729D01*
X140071011Y-99993443D02*
X140134821Y-99993443D01*
X140134821Y-99993443D02*
X140198630Y-100029157D01*
X140198630Y-100029157D02*
X140230535Y-100064871D01*
X140230535Y-100064871D02*
X140262440Y-100136300D01*
X140262440Y-100136300D02*
X140294345Y-100279157D01*
X140294345Y-100279157D02*
X140294345Y-100457729D01*
X140294345Y-100457729D02*
X140262440Y-100600586D01*
X140262440Y-100600586D02*
X140230535Y-100672014D01*
X140230535Y-100672014D02*
X140198630Y-100707729D01*
X140198630Y-100707729D02*
X140134821Y-100743443D01*
X140134821Y-100743443D02*
X140071011Y-100743443D01*
X140071011Y-100743443D02*
X140007202Y-100707729D01*
X140007202Y-100707729D02*
X139975297Y-100672014D01*
X139975297Y-100672014D02*
X139943392Y-100600586D01*
X139943392Y-100600586D02*
X139911488Y-100457729D01*
X139911488Y-100457729D02*
X139911488Y-100279157D01*
X139911488Y-100279157D02*
X139943392Y-100136300D01*
X139943392Y-100136300D02*
X139975297Y-100064871D01*
X139975297Y-100064871D02*
X140007202Y-100029157D01*
X140007202Y-100029157D02*
X140071011Y-99993443D01*
X141060059Y-99957729D02*
X140485773Y-100922014D01*
X141506726Y-100350586D02*
X141602440Y-100386300D01*
X141602440Y-100386300D02*
X141634345Y-100422014D01*
X141634345Y-100422014D02*
X141666249Y-100493443D01*
X141666249Y-100493443D02*
X141666249Y-100600586D01*
X141666249Y-100600586D02*
X141634345Y-100672014D01*
X141634345Y-100672014D02*
X141602440Y-100707729D01*
X141602440Y-100707729D02*
X141538630Y-100743443D01*
X141538630Y-100743443D02*
X141283392Y-100743443D01*
X141283392Y-100743443D02*
X141283392Y-99993443D01*
X141283392Y-99993443D02*
X141506726Y-99993443D01*
X141506726Y-99993443D02*
X141570535Y-100029157D01*
X141570535Y-100029157D02*
X141602440Y-100064871D01*
X141602440Y-100064871D02*
X141634345Y-100136300D01*
X141634345Y-100136300D02*
X141634345Y-100207729D01*
X141634345Y-100207729D02*
X141602440Y-100279157D01*
X141602440Y-100279157D02*
X141570535Y-100314871D01*
X141570535Y-100314871D02*
X141506726Y-100350586D01*
X141506726Y-100350586D02*
X141283392Y-100350586D01*
X142240535Y-99993443D02*
X142112916Y-99993443D01*
X142112916Y-99993443D02*
X142049107Y-100029157D01*
X142049107Y-100029157D02*
X142017202Y-100064871D01*
X142017202Y-100064871D02*
X141953392Y-100172014D01*
X141953392Y-100172014D02*
X141921488Y-100314871D01*
X141921488Y-100314871D02*
X141921488Y-100600586D01*
X141921488Y-100600586D02*
X141953392Y-100672014D01*
X141953392Y-100672014D02*
X141985297Y-100707729D01*
X141985297Y-100707729D02*
X142049107Y-100743443D01*
X142049107Y-100743443D02*
X142176726Y-100743443D01*
X142176726Y-100743443D02*
X142240535Y-100707729D01*
X142240535Y-100707729D02*
X142272440Y-100672014D01*
X142272440Y-100672014D02*
X142304345Y-100600586D01*
X142304345Y-100600586D02*
X142304345Y-100422014D01*
X142304345Y-100422014D02*
X142272440Y-100350586D01*
X142272440Y-100350586D02*
X142240535Y-100314871D01*
X142240535Y-100314871D02*
X142176726Y-100279157D01*
X142176726Y-100279157D02*
X142049107Y-100279157D01*
X142049107Y-100279157D02*
X141985297Y-100314871D01*
X141985297Y-100314871D02*
X141953392Y-100350586D01*
X141953392Y-100350586D02*
X141921488Y-100422014D01*
X139353155Y-90379157D02*
X139672202Y-90379157D01*
X139289345Y-90593443D02*
X139512678Y-89843443D01*
X139512678Y-89843443D02*
X139736012Y-90593443D01*
X140086964Y-89843443D02*
X140150774Y-89843443D01*
X140150774Y-89843443D02*
X140214583Y-89879157D01*
X140214583Y-89879157D02*
X140246488Y-89914871D01*
X140246488Y-89914871D02*
X140278393Y-89986300D01*
X140278393Y-89986300D02*
X140310298Y-90129157D01*
X140310298Y-90129157D02*
X140310298Y-90307729D01*
X140310298Y-90307729D02*
X140278393Y-90450586D01*
X140278393Y-90450586D02*
X140246488Y-90522014D01*
X140246488Y-90522014D02*
X140214583Y-90557729D01*
X140214583Y-90557729D02*
X140150774Y-90593443D01*
X140150774Y-90593443D02*
X140086964Y-90593443D01*
X140086964Y-90593443D02*
X140023155Y-90557729D01*
X140023155Y-90557729D02*
X139991250Y-90522014D01*
X139991250Y-90522014D02*
X139959345Y-90450586D01*
X139959345Y-90450586D02*
X139927441Y-90307729D01*
X139927441Y-90307729D02*
X139927441Y-90129157D01*
X139927441Y-90129157D02*
X139959345Y-89986300D01*
X139959345Y-89986300D02*
X139991250Y-89914871D01*
X139991250Y-89914871D02*
X140023155Y-89879157D01*
X140023155Y-89879157D02*
X140086964Y-89843443D01*
X141076012Y-89807729D02*
X140501726Y-90772014D01*
X141522679Y-90200586D02*
X141299345Y-90200586D01*
X141299345Y-90593443D02*
X141299345Y-89843443D01*
X141299345Y-89843443D02*
X141618393Y-89843443D01*
X141809822Y-89843443D02*
X142256488Y-89843443D01*
X142256488Y-89843443D02*
X141969346Y-90593443D01*
X161297679Y-97800586D02*
X161393393Y-97836300D01*
X161393393Y-97836300D02*
X161425298Y-97872014D01*
X161425298Y-97872014D02*
X161457202Y-97943443D01*
X161457202Y-97943443D02*
X161457202Y-98050586D01*
X161457202Y-98050586D02*
X161425298Y-98122014D01*
X161425298Y-98122014D02*
X161393393Y-98157729D01*
X161393393Y-98157729D02*
X161329583Y-98193443D01*
X161329583Y-98193443D02*
X161074345Y-98193443D01*
X161074345Y-98193443D02*
X161074345Y-97443443D01*
X161074345Y-97443443D02*
X161297679Y-97443443D01*
X161297679Y-97443443D02*
X161361488Y-97479157D01*
X161361488Y-97479157D02*
X161393393Y-97514871D01*
X161393393Y-97514871D02*
X161425298Y-97586300D01*
X161425298Y-97586300D02*
X161425298Y-97657729D01*
X161425298Y-97657729D02*
X161393393Y-97729157D01*
X161393393Y-97729157D02*
X161361488Y-97764871D01*
X161361488Y-97764871D02*
X161297679Y-97800586D01*
X161297679Y-97800586D02*
X161074345Y-97800586D01*
X162031488Y-97693443D02*
X162031488Y-98193443D01*
X161871964Y-97407729D02*
X161712441Y-97943443D01*
X161712441Y-97943443D02*
X162127202Y-97943443D01*
X162861012Y-97407729D02*
X162286726Y-98372014D01*
X163180060Y-97764871D02*
X163116250Y-97729157D01*
X163116250Y-97729157D02*
X163084345Y-97693443D01*
X163084345Y-97693443D02*
X163052441Y-97622014D01*
X163052441Y-97622014D02*
X163052441Y-97586300D01*
X163052441Y-97586300D02*
X163084345Y-97514871D01*
X163084345Y-97514871D02*
X163116250Y-97479157D01*
X163116250Y-97479157D02*
X163180060Y-97443443D01*
X163180060Y-97443443D02*
X163307679Y-97443443D01*
X163307679Y-97443443D02*
X163371488Y-97479157D01*
X163371488Y-97479157D02*
X163403393Y-97514871D01*
X163403393Y-97514871D02*
X163435298Y-97586300D01*
X163435298Y-97586300D02*
X163435298Y-97622014D01*
X163435298Y-97622014D02*
X163403393Y-97693443D01*
X163403393Y-97693443D02*
X163371488Y-97729157D01*
X163371488Y-97729157D02*
X163307679Y-97764871D01*
X163307679Y-97764871D02*
X163180060Y-97764871D01*
X163180060Y-97764871D02*
X163116250Y-97800586D01*
X163116250Y-97800586D02*
X163084345Y-97836300D01*
X163084345Y-97836300D02*
X163052441Y-97907729D01*
X163052441Y-97907729D02*
X163052441Y-98050586D01*
X163052441Y-98050586D02*
X163084345Y-98122014D01*
X163084345Y-98122014D02*
X163116250Y-98157729D01*
X163116250Y-98157729D02*
X163180060Y-98193443D01*
X163180060Y-98193443D02*
X163307679Y-98193443D01*
X163307679Y-98193443D02*
X163371488Y-98157729D01*
X163371488Y-98157729D02*
X163403393Y-98122014D01*
X163403393Y-98122014D02*
X163435298Y-98050586D01*
X163435298Y-98050586D02*
X163435298Y-97907729D01*
X163435298Y-97907729D02*
X163403393Y-97836300D01*
X163403393Y-97836300D02*
X163371488Y-97800586D01*
X163371488Y-97800586D02*
X163307679Y-97764871D01*
X161228393Y-77279157D02*
X161164583Y-77243443D01*
X161164583Y-77243443D02*
X161068869Y-77243443D01*
X161068869Y-77243443D02*
X160973155Y-77279157D01*
X160973155Y-77279157D02*
X160909345Y-77350586D01*
X160909345Y-77350586D02*
X160877440Y-77422014D01*
X160877440Y-77422014D02*
X160845536Y-77564871D01*
X160845536Y-77564871D02*
X160845536Y-77672014D01*
X160845536Y-77672014D02*
X160877440Y-77814871D01*
X160877440Y-77814871D02*
X160909345Y-77886300D01*
X160909345Y-77886300D02*
X160973155Y-77957729D01*
X160973155Y-77957729D02*
X161068869Y-77993443D01*
X161068869Y-77993443D02*
X161132678Y-77993443D01*
X161132678Y-77993443D02*
X161228393Y-77957729D01*
X161228393Y-77957729D02*
X161260297Y-77922014D01*
X161260297Y-77922014D02*
X161260297Y-77672014D01*
X161260297Y-77672014D02*
X161132678Y-77672014D01*
X161547440Y-77993443D02*
X161547440Y-77243443D01*
X161547440Y-77243443D02*
X161930297Y-77993443D01*
X161930297Y-77993443D02*
X161930297Y-77243443D01*
X162249345Y-77993443D02*
X162249345Y-77243443D01*
X162249345Y-77243443D02*
X162408869Y-77243443D01*
X162408869Y-77243443D02*
X162504583Y-77279157D01*
X162504583Y-77279157D02*
X162568393Y-77350586D01*
X162568393Y-77350586D02*
X162600298Y-77422014D01*
X162600298Y-77422014D02*
X162632202Y-77564871D01*
X162632202Y-77564871D02*
X162632202Y-77672014D01*
X162632202Y-77672014D02*
X162600298Y-77814871D01*
X162600298Y-77814871D02*
X162568393Y-77886300D01*
X162568393Y-77886300D02*
X162504583Y-77957729D01*
X162504583Y-77957729D02*
X162408869Y-77993443D01*
X162408869Y-77993443D02*
X162249345Y-77993443D01*
X139656250Y-95693443D02*
X139273393Y-95693443D01*
X139464821Y-95693443D02*
X139464821Y-94943443D01*
X139464821Y-94943443D02*
X139401012Y-95050586D01*
X139401012Y-95050586D02*
X139337202Y-95122014D01*
X139337202Y-95122014D02*
X139273393Y-95157729D01*
X140230535Y-95193443D02*
X140230535Y-95693443D01*
X140071011Y-94907729D02*
X139911488Y-95443443D01*
X139911488Y-95443443D02*
X140326249Y-95443443D01*
X141060059Y-94907729D02*
X140485773Y-95872014D01*
X141506726Y-95300586D02*
X141602440Y-95336300D01*
X141602440Y-95336300D02*
X141634345Y-95372014D01*
X141634345Y-95372014D02*
X141666249Y-95443443D01*
X141666249Y-95443443D02*
X141666249Y-95550586D01*
X141666249Y-95550586D02*
X141634345Y-95622014D01*
X141634345Y-95622014D02*
X141602440Y-95657729D01*
X141602440Y-95657729D02*
X141538630Y-95693443D01*
X141538630Y-95693443D02*
X141283392Y-95693443D01*
X141283392Y-95693443D02*
X141283392Y-94943443D01*
X141283392Y-94943443D02*
X141506726Y-94943443D01*
X141506726Y-94943443D02*
X141570535Y-94979157D01*
X141570535Y-94979157D02*
X141602440Y-95014871D01*
X141602440Y-95014871D02*
X141634345Y-95086300D01*
X141634345Y-95086300D02*
X141634345Y-95157729D01*
X141634345Y-95157729D02*
X141602440Y-95229157D01*
X141602440Y-95229157D02*
X141570535Y-95264871D01*
X141570535Y-95264871D02*
X141506726Y-95300586D01*
X141506726Y-95300586D02*
X141283392Y-95300586D01*
X141889583Y-94943443D02*
X142304345Y-94943443D01*
X142304345Y-94943443D02*
X142081011Y-95229157D01*
X142081011Y-95229157D02*
X142176726Y-95229157D01*
X142176726Y-95229157D02*
X142240535Y-95264871D01*
X142240535Y-95264871D02*
X142272440Y-95300586D01*
X142272440Y-95300586D02*
X142304345Y-95372014D01*
X142304345Y-95372014D02*
X142304345Y-95550586D01*
X142304345Y-95550586D02*
X142272440Y-95622014D01*
X142272440Y-95622014D02*
X142240535Y-95657729D01*
X142240535Y-95657729D02*
X142176726Y-95693443D01*
X142176726Y-95693443D02*
X141985297Y-95693443D01*
X141985297Y-95693443D02*
X141921488Y-95657729D01*
X141921488Y-95657729D02*
X141889583Y-95622014D01*
X140976249Y-72793443D02*
X140752916Y-72436300D01*
X140593392Y-72793443D02*
X140593392Y-72043443D01*
X140593392Y-72043443D02*
X140848630Y-72043443D01*
X140848630Y-72043443D02*
X140912440Y-72079157D01*
X140912440Y-72079157D02*
X140944345Y-72114871D01*
X140944345Y-72114871D02*
X140976249Y-72186300D01*
X140976249Y-72186300D02*
X140976249Y-72293443D01*
X140976249Y-72293443D02*
X140944345Y-72364871D01*
X140944345Y-72364871D02*
X140912440Y-72400586D01*
X140912440Y-72400586D02*
X140848630Y-72436300D01*
X140848630Y-72436300D02*
X140593392Y-72436300D01*
X141231488Y-72579157D02*
X141550535Y-72579157D01*
X141167678Y-72793443D02*
X141391011Y-72043443D01*
X141391011Y-72043443D02*
X141614345Y-72793443D01*
X141773869Y-72043443D02*
X141933393Y-72793443D01*
X141933393Y-72793443D02*
X142061012Y-72257729D01*
X142061012Y-72257729D02*
X142188631Y-72793443D01*
X142188631Y-72793443D02*
X142348155Y-72043443D01*
X139656250Y-98243443D02*
X139273393Y-98243443D01*
X139464821Y-98243443D02*
X139464821Y-97493443D01*
X139464821Y-97493443D02*
X139401012Y-97600586D01*
X139401012Y-97600586D02*
X139337202Y-97672014D01*
X139337202Y-97672014D02*
X139273393Y-97707729D01*
X140230535Y-97493443D02*
X140102916Y-97493443D01*
X140102916Y-97493443D02*
X140039107Y-97529157D01*
X140039107Y-97529157D02*
X140007202Y-97564871D01*
X140007202Y-97564871D02*
X139943392Y-97672014D01*
X139943392Y-97672014D02*
X139911488Y-97814871D01*
X139911488Y-97814871D02*
X139911488Y-98100586D01*
X139911488Y-98100586D02*
X139943392Y-98172014D01*
X139943392Y-98172014D02*
X139975297Y-98207729D01*
X139975297Y-98207729D02*
X140039107Y-98243443D01*
X140039107Y-98243443D02*
X140166726Y-98243443D01*
X140166726Y-98243443D02*
X140230535Y-98207729D01*
X140230535Y-98207729D02*
X140262440Y-98172014D01*
X140262440Y-98172014D02*
X140294345Y-98100586D01*
X140294345Y-98100586D02*
X140294345Y-97922014D01*
X140294345Y-97922014D02*
X140262440Y-97850586D01*
X140262440Y-97850586D02*
X140230535Y-97814871D01*
X140230535Y-97814871D02*
X140166726Y-97779157D01*
X140166726Y-97779157D02*
X140039107Y-97779157D01*
X140039107Y-97779157D02*
X139975297Y-97814871D01*
X139975297Y-97814871D02*
X139943392Y-97850586D01*
X139943392Y-97850586D02*
X139911488Y-97922014D01*
X141060059Y-97457729D02*
X140485773Y-98422014D01*
X141506726Y-97850586D02*
X141602440Y-97886300D01*
X141602440Y-97886300D02*
X141634345Y-97922014D01*
X141634345Y-97922014D02*
X141666249Y-97993443D01*
X141666249Y-97993443D02*
X141666249Y-98100586D01*
X141666249Y-98100586D02*
X141634345Y-98172014D01*
X141634345Y-98172014D02*
X141602440Y-98207729D01*
X141602440Y-98207729D02*
X141538630Y-98243443D01*
X141538630Y-98243443D02*
X141283392Y-98243443D01*
X141283392Y-98243443D02*
X141283392Y-97493443D01*
X141283392Y-97493443D02*
X141506726Y-97493443D01*
X141506726Y-97493443D02*
X141570535Y-97529157D01*
X141570535Y-97529157D02*
X141602440Y-97564871D01*
X141602440Y-97564871D02*
X141634345Y-97636300D01*
X141634345Y-97636300D02*
X141634345Y-97707729D01*
X141634345Y-97707729D02*
X141602440Y-97779157D01*
X141602440Y-97779157D02*
X141570535Y-97814871D01*
X141570535Y-97814871D02*
X141506726Y-97850586D01*
X141506726Y-97850586D02*
X141283392Y-97850586D01*
X141921488Y-97564871D02*
X141953392Y-97529157D01*
X141953392Y-97529157D02*
X142017202Y-97493443D01*
X142017202Y-97493443D02*
X142176726Y-97493443D01*
X142176726Y-97493443D02*
X142240535Y-97529157D01*
X142240535Y-97529157D02*
X142272440Y-97564871D01*
X142272440Y-97564871D02*
X142304345Y-97636300D01*
X142304345Y-97636300D02*
X142304345Y-97707729D01*
X142304345Y-97707729D02*
X142272440Y-97814871D01*
X142272440Y-97814871D02*
X141889583Y-98243443D01*
X141889583Y-98243443D02*
X142304345Y-98243443D01*
D10*
D11*
X139353155Y-85329157D02*
X139672202Y-85329157D01*
X139289345Y-85543443D02*
X139512678Y-84793443D01*
X139512678Y-84793443D02*
X139736012Y-85543443D01*
X139927441Y-84864871D02*
X139959345Y-84829157D01*
X139959345Y-84829157D02*
X140023155Y-84793443D01*
X140023155Y-84793443D02*
X140182679Y-84793443D01*
X140182679Y-84793443D02*
X140246488Y-84829157D01*
X140246488Y-84829157D02*
X140278393Y-84864871D01*
X140278393Y-84864871D02*
X140310298Y-84936300D01*
X140310298Y-84936300D02*
X140310298Y-85007729D01*
X140310298Y-85007729D02*
X140278393Y-85114871D01*
X140278393Y-85114871D02*
X139895536Y-85543443D01*
X139895536Y-85543443D02*
X140310298Y-85543443D01*
X141076012Y-84757729D02*
X140501726Y-85722014D01*
X141522679Y-85150586D02*
X141299345Y-85150586D01*
X141299345Y-85543443D02*
X141299345Y-84793443D01*
X141299345Y-84793443D02*
X141618393Y-84793443D01*
X142192679Y-84793443D02*
X141873631Y-84793443D01*
X141873631Y-84793443D02*
X141841727Y-85150586D01*
X141841727Y-85150586D02*
X141873631Y-85114871D01*
X141873631Y-85114871D02*
X141937441Y-85079157D01*
X141937441Y-85079157D02*
X142096965Y-85079157D01*
X142096965Y-85079157D02*
X142160774Y-85114871D01*
X142160774Y-85114871D02*
X142192679Y-85150586D01*
X142192679Y-85150586D02*
X142224584Y-85222014D01*
X142224584Y-85222014D02*
X142224584Y-85400586D01*
X142224584Y-85400586D02*
X142192679Y-85472014D01*
X142192679Y-85472014D02*
X142160774Y-85507729D01*
X142160774Y-85507729D02*
X142096965Y-85543443D01*
X142096965Y-85543443D02*
X141937441Y-85543443D01*
X141937441Y-85543443D02*
X141873631Y-85507729D01*
X141873631Y-85507729D02*
X141841727Y-85472014D01*
X139353155Y-82829157D02*
X139672202Y-82829157D01*
X139289345Y-83043443D02*
X139512678Y-82293443D01*
X139512678Y-82293443D02*
X139736012Y-83043443D01*
X139895536Y-82293443D02*
X140310298Y-82293443D01*
X140310298Y-82293443D02*
X140086964Y-82579157D01*
X140086964Y-82579157D02*
X140182679Y-82579157D01*
X140182679Y-82579157D02*
X140246488Y-82614871D01*
X140246488Y-82614871D02*
X140278393Y-82650586D01*
X140278393Y-82650586D02*
X140310298Y-82722014D01*
X140310298Y-82722014D02*
X140310298Y-82900586D01*
X140310298Y-82900586D02*
X140278393Y-82972014D01*
X140278393Y-82972014D02*
X140246488Y-83007729D01*
X140246488Y-83007729D02*
X140182679Y-83043443D01*
X140182679Y-83043443D02*
X139991250Y-83043443D01*
X139991250Y-83043443D02*
X139927441Y-83007729D01*
X139927441Y-83007729D02*
X139895536Y-82972014D01*
X141076012Y-82257729D02*
X140501726Y-83222014D01*
X141522679Y-82650586D02*
X141299345Y-82650586D01*
X141299345Y-83043443D02*
X141299345Y-82293443D01*
X141299345Y-82293443D02*
X141618393Y-82293443D01*
X142160774Y-82543443D02*
X142160774Y-83043443D01*
X142001250Y-82257729D02*
X141841727Y-82793443D01*
X141841727Y-82793443D02*
X142256488Y-82793443D01*
X140928393Y-74629157D02*
X140864583Y-74593443D01*
X140864583Y-74593443D02*
X140768869Y-74593443D01*
X140768869Y-74593443D02*
X140673155Y-74629157D01*
X140673155Y-74629157D02*
X140609345Y-74700586D01*
X140609345Y-74700586D02*
X140577440Y-74772014D01*
X140577440Y-74772014D02*
X140545536Y-74914871D01*
X140545536Y-74914871D02*
X140545536Y-75022014D01*
X140545536Y-75022014D02*
X140577440Y-75164871D01*
X140577440Y-75164871D02*
X140609345Y-75236300D01*
X140609345Y-75236300D02*
X140673155Y-75307729D01*
X140673155Y-75307729D02*
X140768869Y-75343443D01*
X140768869Y-75343443D02*
X140832678Y-75343443D01*
X140832678Y-75343443D02*
X140928393Y-75307729D01*
X140928393Y-75307729D02*
X140960297Y-75272014D01*
X140960297Y-75272014D02*
X140960297Y-75022014D01*
X140960297Y-75022014D02*
X140832678Y-75022014D01*
X141247440Y-75343443D02*
X141247440Y-74593443D01*
X141247440Y-74593443D02*
X141630297Y-75343443D01*
X141630297Y-75343443D02*
X141630297Y-74593443D01*
X141949345Y-75343443D02*
X141949345Y-74593443D01*
X141949345Y-74593443D02*
X142108869Y-74593443D01*
X142108869Y-74593443D02*
X142204583Y-74629157D01*
X142204583Y-74629157D02*
X142268393Y-74700586D01*
X142268393Y-74700586D02*
X142300298Y-74772014D01*
X142300298Y-74772014D02*
X142332202Y-74914871D01*
X142332202Y-74914871D02*
X142332202Y-75022014D01*
X142332202Y-75022014D02*
X142300298Y-75164871D01*
X142300298Y-75164871D02*
X142268393Y-75236300D01*
X142268393Y-75236300D02*
X142204583Y-75307729D01*
X142204583Y-75307729D02*
X142108869Y-75343443D01*
X142108869Y-75343443D02*
X141949345Y-75343443D01*
D12*
X149137440Y-68343443D02*
X149137440Y-67593443D01*
X149137440Y-67593443D02*
X149387440Y-68129157D01*
X149387440Y-68129157D02*
X149637440Y-67593443D01*
X149637440Y-67593443D02*
X149637440Y-68343443D01*
X149994583Y-68343443D02*
X149994583Y-67843443D01*
X149994583Y-67593443D02*
X149958869Y-67629157D01*
X149958869Y-67629157D02*
X149994583Y-67664871D01*
X149994583Y-67664871D02*
X150030297Y-67629157D01*
X150030297Y-67629157D02*
X149994583Y-67593443D01*
X149994583Y-67593443D02*
X149994583Y-67664871D01*
X150673155Y-68307729D02*
X150601726Y-68343443D01*
X150601726Y-68343443D02*
X150458869Y-68343443D01*
X150458869Y-68343443D02*
X150387440Y-68307729D01*
X150387440Y-68307729D02*
X150351726Y-68272014D01*
X150351726Y-68272014D02*
X150316012Y-68200586D01*
X150316012Y-68200586D02*
X150316012Y-67986300D01*
X150316012Y-67986300D02*
X150351726Y-67914871D01*
X150351726Y-67914871D02*
X150387440Y-67879157D01*
X150387440Y-67879157D02*
X150458869Y-67843443D01*
X150458869Y-67843443D02*
X150601726Y-67843443D01*
X150601726Y-67843443D02*
X150673155Y-67879157D01*
X150994583Y-68343443D02*
X150994583Y-67843443D01*
X150994583Y-67986300D02*
X151030297Y-67914871D01*
X151030297Y-67914871D02*
X151066012Y-67879157D01*
X151066012Y-67879157D02*
X151137440Y-67843443D01*
X151137440Y-67843443D02*
X151208869Y-67843443D01*
X151566012Y-68343443D02*
X151494583Y-68307729D01*
X151494583Y-68307729D02*
X151458869Y-68272014D01*
X151458869Y-68272014D02*
X151423155Y-68200586D01*
X151423155Y-68200586D02*
X151423155Y-67986300D01*
X151423155Y-67986300D02*
X151458869Y-67914871D01*
X151458869Y-67914871D02*
X151494583Y-67879157D01*
X151494583Y-67879157D02*
X151566012Y-67843443D01*
X151566012Y-67843443D02*
X151673155Y-67843443D01*
X151673155Y-67843443D02*
X151744583Y-67879157D01*
X151744583Y-67879157D02*
X151780298Y-67914871D01*
X151780298Y-67914871D02*
X151816012Y-67986300D01*
X151816012Y-67986300D02*
X151816012Y-68200586D01*
X151816012Y-68200586D02*
X151780298Y-68272014D01*
X151780298Y-68272014D02*
X151744583Y-68307729D01*
X151744583Y-68307729D02*
X151673155Y-68343443D01*
X151673155Y-68343443D02*
X151566012Y-68343443D01*
X152137440Y-67593443D02*
X152137440Y-68200586D01*
X152137440Y-68200586D02*
X152173154Y-68272014D01*
X152173154Y-68272014D02*
X152208869Y-68307729D01*
X152208869Y-68307729D02*
X152280297Y-68343443D01*
X152280297Y-68343443D02*
X152423154Y-68343443D01*
X152423154Y-68343443D02*
X152494583Y-68307729D01*
X152494583Y-68307729D02*
X152530297Y-68272014D01*
X152530297Y-68272014D02*
X152566011Y-68200586D01*
X152566011Y-68200586D02*
X152566011Y-67593443D01*
X152887440Y-68307729D02*
X152994583Y-68343443D01*
X152994583Y-68343443D02*
X153173154Y-68343443D01*
X153173154Y-68343443D02*
X153244583Y-68307729D01*
X153244583Y-68307729D02*
X153280297Y-68272014D01*
X153280297Y-68272014D02*
X153316011Y-68200586D01*
X153316011Y-68200586D02*
X153316011Y-68129157D01*
X153316011Y-68129157D02*
X153280297Y-68057729D01*
X153280297Y-68057729D02*
X153244583Y-68022014D01*
X153244583Y-68022014D02*
X153173154Y-67986300D01*
X153173154Y-67986300D02*
X153030297Y-67950586D01*
X153030297Y-67950586D02*
X152958868Y-67914871D01*
X152958868Y-67914871D02*
X152923154Y-67879157D01*
X152923154Y-67879157D02*
X152887440Y-67807729D01*
X152887440Y-67807729D02*
X152887440Y-67736300D01*
X152887440Y-67736300D02*
X152923154Y-67664871D01*
X152923154Y-67664871D02*
X152958868Y-67629157D01*
X152958868Y-67629157D02*
X153030297Y-67593443D01*
X153030297Y-67593443D02*
X153208868Y-67593443D01*
X153208868Y-67593443D02*
X153316011Y-67629157D01*
X153887440Y-67950586D02*
X153994583Y-67986300D01*
X153994583Y-67986300D02*
X154030297Y-68022014D01*
X154030297Y-68022014D02*
X154066011Y-68093443D01*
X154066011Y-68093443D02*
X154066011Y-68200586D01*
X154066011Y-68200586D02*
X154030297Y-68272014D01*
X154030297Y-68272014D02*
X153994583Y-68307729D01*
X153994583Y-68307729D02*
X153923154Y-68343443D01*
X153923154Y-68343443D02*
X153637440Y-68343443D01*
X153637440Y-68343443D02*
X153637440Y-67593443D01*
X153637440Y-67593443D02*
X153887440Y-67593443D01*
X153887440Y-67593443D02*
X153958869Y-67629157D01*
X153958869Y-67629157D02*
X153994583Y-67664871D01*
X153994583Y-67664871D02*
X154030297Y-67736300D01*
X154030297Y-67736300D02*
X154030297Y-67807729D01*
X154030297Y-67807729D02*
X153994583Y-67879157D01*
X153994583Y-67879157D02*
X153958869Y-67914871D01*
X153958869Y-67914871D02*
X153887440Y-67950586D01*
X153887440Y-67950586D02*
X153637440Y-67950586D01*
D11*
X160950059Y-72843443D02*
X160950059Y-72093443D01*
X160950059Y-72093443D02*
X161109583Y-72093443D01*
X161109583Y-72093443D02*
X161205297Y-72129157D01*
X161205297Y-72129157D02*
X161269107Y-72200586D01*
X161269107Y-72200586D02*
X161301012Y-72272014D01*
X161301012Y-72272014D02*
X161332916Y-72414871D01*
X161332916Y-72414871D02*
X161332916Y-72522014D01*
X161332916Y-72522014D02*
X161301012Y-72664871D01*
X161301012Y-72664871D02*
X161269107Y-72736300D01*
X161269107Y-72736300D02*
X161205297Y-72807729D01*
X161205297Y-72807729D02*
X161109583Y-72843443D01*
X161109583Y-72843443D02*
X160950059Y-72843443D01*
X161556250Y-72093443D02*
X161971012Y-72093443D01*
X161971012Y-72093443D02*
X161747678Y-72379157D01*
X161747678Y-72379157D02*
X161843393Y-72379157D01*
X161843393Y-72379157D02*
X161907202Y-72414871D01*
X161907202Y-72414871D02*
X161939107Y-72450586D01*
X161939107Y-72450586D02*
X161971012Y-72522014D01*
X161971012Y-72522014D02*
X161971012Y-72700586D01*
X161971012Y-72700586D02*
X161939107Y-72772014D01*
X161939107Y-72772014D02*
X161907202Y-72807729D01*
X161907202Y-72807729D02*
X161843393Y-72843443D01*
X161843393Y-72843443D02*
X161651964Y-72843443D01*
X161651964Y-72843443D02*
X161588155Y-72807729D01*
X161588155Y-72807729D02*
X161556250Y-72772014D01*
X162736726Y-72057729D02*
X162162440Y-73022014D01*
X162864345Y-72093443D02*
X163247202Y-72093443D01*
X163055774Y-72843443D02*
X163055774Y-72093443D01*
X163406726Y-72093443D02*
X163853392Y-72843443D01*
X163853392Y-72093443D02*
X163406726Y-72843443D01*
X164236249Y-72093443D02*
X164300059Y-72093443D01*
X164300059Y-72093443D02*
X164363868Y-72129157D01*
X164363868Y-72129157D02*
X164395773Y-72164871D01*
X164395773Y-72164871D02*
X164427678Y-72236300D01*
X164427678Y-72236300D02*
X164459583Y-72379157D01*
X164459583Y-72379157D02*
X164459583Y-72557729D01*
X164459583Y-72557729D02*
X164427678Y-72700586D01*
X164427678Y-72700586D02*
X164395773Y-72772014D01*
X164395773Y-72772014D02*
X164363868Y-72807729D01*
X164363868Y-72807729D02*
X164300059Y-72843443D01*
X164300059Y-72843443D02*
X164236249Y-72843443D01*
X164236249Y-72843443D02*
X164172440Y-72807729D01*
X164172440Y-72807729D02*
X164140535Y-72772014D01*
X164140535Y-72772014D02*
X164108630Y-72700586D01*
X164108630Y-72700586D02*
X164076726Y-72557729D01*
X164076726Y-72557729D02*
X164076726Y-72379157D01*
X164076726Y-72379157D02*
X164108630Y-72236300D01*
X164108630Y-72236300D02*
X164140535Y-72164871D01*
X164140535Y-72164871D02*
X164172440Y-72129157D01*
X164172440Y-72129157D02*
X164236249Y-72093443D01*
X160870297Y-75393443D02*
X160870297Y-74643443D01*
X160870297Y-74643443D02*
X161029821Y-74643443D01*
X161029821Y-74643443D02*
X161125535Y-74679157D01*
X161125535Y-74679157D02*
X161189345Y-74750586D01*
X161189345Y-74750586D02*
X161221250Y-74822014D01*
X161221250Y-74822014D02*
X161253154Y-74964871D01*
X161253154Y-74964871D02*
X161253154Y-75072014D01*
X161253154Y-75072014D02*
X161221250Y-75214871D01*
X161221250Y-75214871D02*
X161189345Y-75286300D01*
X161189345Y-75286300D02*
X161125535Y-75357729D01*
X161125535Y-75357729D02*
X161029821Y-75393443D01*
X161029821Y-75393443D02*
X160870297Y-75393443D01*
X161508393Y-74714871D02*
X161540297Y-74679157D01*
X161540297Y-74679157D02*
X161604107Y-74643443D01*
X161604107Y-74643443D02*
X161763631Y-74643443D01*
X161763631Y-74643443D02*
X161827440Y-74679157D01*
X161827440Y-74679157D02*
X161859345Y-74714871D01*
X161859345Y-74714871D02*
X161891250Y-74786300D01*
X161891250Y-74786300D02*
X161891250Y-74857729D01*
X161891250Y-74857729D02*
X161859345Y-74964871D01*
X161859345Y-74964871D02*
X161476488Y-75393443D01*
X161476488Y-75393443D02*
X161891250Y-75393443D01*
X162656964Y-74607729D02*
X162082678Y-75572014D01*
X163263154Y-75393443D02*
X163039821Y-75036300D01*
X162880297Y-75393443D02*
X162880297Y-74643443D01*
X162880297Y-74643443D02*
X163135535Y-74643443D01*
X163135535Y-74643443D02*
X163199345Y-74679157D01*
X163199345Y-74679157D02*
X163231250Y-74714871D01*
X163231250Y-74714871D02*
X163263154Y-74786300D01*
X163263154Y-74786300D02*
X163263154Y-74893443D01*
X163263154Y-74893443D02*
X163231250Y-74964871D01*
X163231250Y-74964871D02*
X163199345Y-75000586D01*
X163199345Y-75000586D02*
X163135535Y-75036300D01*
X163135535Y-75036300D02*
X162880297Y-75036300D01*
X163486488Y-74643443D02*
X163933154Y-75393443D01*
X163933154Y-74643443D02*
X163486488Y-75393443D01*
X164539345Y-75393443D02*
X164156488Y-75393443D01*
X164347916Y-75393443D02*
X164347916Y-74643443D01*
X164347916Y-74643443D02*
X164284107Y-74750586D01*
X164284107Y-74750586D02*
X164220297Y-74822014D01*
X164220297Y-74822014D02*
X164156488Y-74857729D01*
X139656250Y-93143443D02*
X139273393Y-93143443D01*
X139464821Y-93143443D02*
X139464821Y-92393443D01*
X139464821Y-92393443D02*
X139401012Y-92500586D01*
X139401012Y-92500586D02*
X139337202Y-92572014D01*
X139337202Y-92572014D02*
X139273393Y-92607729D01*
X140262440Y-92393443D02*
X139943392Y-92393443D01*
X139943392Y-92393443D02*
X139911488Y-92750586D01*
X139911488Y-92750586D02*
X139943392Y-92714871D01*
X139943392Y-92714871D02*
X140007202Y-92679157D01*
X140007202Y-92679157D02*
X140166726Y-92679157D01*
X140166726Y-92679157D02*
X140230535Y-92714871D01*
X140230535Y-92714871D02*
X140262440Y-92750586D01*
X140262440Y-92750586D02*
X140294345Y-92822014D01*
X140294345Y-92822014D02*
X140294345Y-93000586D01*
X140294345Y-93000586D02*
X140262440Y-93072014D01*
X140262440Y-93072014D02*
X140230535Y-93107729D01*
X140230535Y-93107729D02*
X140166726Y-93143443D01*
X140166726Y-93143443D02*
X140007202Y-93143443D01*
X140007202Y-93143443D02*
X139943392Y-93107729D01*
X139943392Y-93107729D02*
X139911488Y-93072014D01*
X141060059Y-92357729D02*
X140485773Y-93322014D01*
X141506726Y-92750586D02*
X141602440Y-92786300D01*
X141602440Y-92786300D02*
X141634345Y-92822014D01*
X141634345Y-92822014D02*
X141666249Y-92893443D01*
X141666249Y-92893443D02*
X141666249Y-93000586D01*
X141666249Y-93000586D02*
X141634345Y-93072014D01*
X141634345Y-93072014D02*
X141602440Y-93107729D01*
X141602440Y-93107729D02*
X141538630Y-93143443D01*
X141538630Y-93143443D02*
X141283392Y-93143443D01*
X141283392Y-93143443D02*
X141283392Y-92393443D01*
X141283392Y-92393443D02*
X141506726Y-92393443D01*
X141506726Y-92393443D02*
X141570535Y-92429157D01*
X141570535Y-92429157D02*
X141602440Y-92464871D01*
X141602440Y-92464871D02*
X141634345Y-92536300D01*
X141634345Y-92536300D02*
X141634345Y-92607729D01*
X141634345Y-92607729D02*
X141602440Y-92679157D01*
X141602440Y-92679157D02*
X141570535Y-92714871D01*
X141570535Y-92714871D02*
X141506726Y-92750586D01*
X141506726Y-92750586D02*
X141283392Y-92750586D01*
X142304345Y-93143443D02*
X141921488Y-93143443D01*
X142112916Y-93143443D02*
X142112916Y-92393443D01*
X142112916Y-92393443D02*
X142049107Y-92500586D01*
X142049107Y-92500586D02*
X141985297Y-92572014D01*
X141985297Y-92572014D02*
X141921488Y-92607729D01*
X161074345Y-93093443D02*
X161074345Y-92343443D01*
X161074345Y-92343443D02*
X161233869Y-92343443D01*
X161233869Y-92343443D02*
X161329583Y-92379157D01*
X161329583Y-92379157D02*
X161393393Y-92450586D01*
X161393393Y-92450586D02*
X161425298Y-92522014D01*
X161425298Y-92522014D02*
X161457202Y-92664871D01*
X161457202Y-92664871D02*
X161457202Y-92772014D01*
X161457202Y-92772014D02*
X161425298Y-92914871D01*
X161425298Y-92914871D02*
X161393393Y-92986300D01*
X161393393Y-92986300D02*
X161329583Y-93057729D01*
X161329583Y-93057729D02*
X161233869Y-93093443D01*
X161233869Y-93093443D02*
X161074345Y-93093443D01*
X161680536Y-92343443D02*
X162127202Y-92343443D01*
X162127202Y-92343443D02*
X161840060Y-93093443D01*
X162861012Y-92307729D02*
X162286726Y-93272014D01*
X163371488Y-92343443D02*
X163243869Y-92343443D01*
X163243869Y-92343443D02*
X163180060Y-92379157D01*
X163180060Y-92379157D02*
X163148155Y-92414871D01*
X163148155Y-92414871D02*
X163084345Y-92522014D01*
X163084345Y-92522014D02*
X163052441Y-92664871D01*
X163052441Y-92664871D02*
X163052441Y-92950586D01*
X163052441Y-92950586D02*
X163084345Y-93022014D01*
X163084345Y-93022014D02*
X163116250Y-93057729D01*
X163116250Y-93057729D02*
X163180060Y-93093443D01*
X163180060Y-93093443D02*
X163307679Y-93093443D01*
X163307679Y-93093443D02*
X163371488Y-93057729D01*
X163371488Y-93057729D02*
X163403393Y-93022014D01*
X163403393Y-93022014D02*
X163435298Y-92950586D01*
X163435298Y-92950586D02*
X163435298Y-92772014D01*
X163435298Y-92772014D02*
X163403393Y-92700586D01*
X163403393Y-92700586D02*
X163371488Y-92664871D01*
X163371488Y-92664871D02*
X163307679Y-92629157D01*
X163307679Y-92629157D02*
X163180060Y-92629157D01*
X163180060Y-92629157D02*
X163116250Y-92664871D01*
X163116250Y-92664871D02*
X163084345Y-92700586D01*
X163084345Y-92700586D02*
X163052441Y-92772014D01*
X141071964Y-77893443D02*
X140848631Y-77536300D01*
X140689107Y-77893443D02*
X140689107Y-77143443D01*
X140689107Y-77143443D02*
X140944345Y-77143443D01*
X140944345Y-77143443D02*
X141008155Y-77179157D01*
X141008155Y-77179157D02*
X141040060Y-77214871D01*
X141040060Y-77214871D02*
X141071964Y-77286300D01*
X141071964Y-77286300D02*
X141071964Y-77393443D01*
X141071964Y-77393443D02*
X141040060Y-77464871D01*
X141040060Y-77464871D02*
X141008155Y-77500586D01*
X141008155Y-77500586D02*
X140944345Y-77536300D01*
X140944345Y-77536300D02*
X140689107Y-77536300D01*
X141327203Y-77857729D02*
X141422917Y-77893443D01*
X141422917Y-77893443D02*
X141582441Y-77893443D01*
X141582441Y-77893443D02*
X141646250Y-77857729D01*
X141646250Y-77857729D02*
X141678155Y-77822014D01*
X141678155Y-77822014D02*
X141710060Y-77750586D01*
X141710060Y-77750586D02*
X141710060Y-77679157D01*
X141710060Y-77679157D02*
X141678155Y-77607729D01*
X141678155Y-77607729D02*
X141646250Y-77572014D01*
X141646250Y-77572014D02*
X141582441Y-77536300D01*
X141582441Y-77536300D02*
X141454822Y-77500586D01*
X141454822Y-77500586D02*
X141391012Y-77464871D01*
X141391012Y-77464871D02*
X141359107Y-77429157D01*
X141359107Y-77429157D02*
X141327203Y-77357729D01*
X141327203Y-77357729D02*
X141327203Y-77286300D01*
X141327203Y-77286300D02*
X141359107Y-77214871D01*
X141359107Y-77214871D02*
X141391012Y-77179157D01*
X141391012Y-77179157D02*
X141454822Y-77143443D01*
X141454822Y-77143443D02*
X141614345Y-77143443D01*
X141614345Y-77143443D02*
X141710060Y-77179157D01*
X141901488Y-77143443D02*
X142284345Y-77143443D01*
X142092917Y-77893443D02*
X142092917Y-77143443D01*
X161106250Y-95250586D02*
X161329584Y-95250586D01*
X161425298Y-95643443D02*
X161106250Y-95643443D01*
X161106250Y-95643443D02*
X161106250Y-94893443D01*
X161106250Y-94893443D02*
X161425298Y-94893443D01*
X161999583Y-94893443D02*
X161871964Y-94893443D01*
X161871964Y-94893443D02*
X161808155Y-94929157D01*
X161808155Y-94929157D02*
X161776250Y-94964871D01*
X161776250Y-94964871D02*
X161712440Y-95072014D01*
X161712440Y-95072014D02*
X161680536Y-95214871D01*
X161680536Y-95214871D02*
X161680536Y-95500586D01*
X161680536Y-95500586D02*
X161712440Y-95572014D01*
X161712440Y-95572014D02*
X161744345Y-95607729D01*
X161744345Y-95607729D02*
X161808155Y-95643443D01*
X161808155Y-95643443D02*
X161935774Y-95643443D01*
X161935774Y-95643443D02*
X161999583Y-95607729D01*
X161999583Y-95607729D02*
X162031488Y-95572014D01*
X162031488Y-95572014D02*
X162063393Y-95500586D01*
X162063393Y-95500586D02*
X162063393Y-95322014D01*
X162063393Y-95322014D02*
X162031488Y-95250586D01*
X162031488Y-95250586D02*
X161999583Y-95214871D01*
X161999583Y-95214871D02*
X161935774Y-95179157D01*
X161935774Y-95179157D02*
X161808155Y-95179157D01*
X161808155Y-95179157D02*
X161744345Y-95214871D01*
X161744345Y-95214871D02*
X161712440Y-95250586D01*
X161712440Y-95250586D02*
X161680536Y-95322014D01*
X162829107Y-94857729D02*
X162254821Y-95822014D01*
X162988631Y-94893443D02*
X163435297Y-94893443D01*
X163435297Y-94893443D02*
X163148155Y-95643443D01*
X139353155Y-87829157D02*
X139672202Y-87829157D01*
X139289345Y-88043443D02*
X139512678Y-87293443D01*
X139512678Y-87293443D02*
X139736012Y-88043443D01*
X140310298Y-88043443D02*
X139927441Y-88043443D01*
X140118869Y-88043443D02*
X140118869Y-87293443D01*
X140118869Y-87293443D02*
X140055060Y-87400586D01*
X140055060Y-87400586D02*
X139991250Y-87472014D01*
X139991250Y-87472014D02*
X139927441Y-87507729D01*
X141076012Y-87257729D02*
X140501726Y-88222014D01*
X141522679Y-87650586D02*
X141299345Y-87650586D01*
X141299345Y-88043443D02*
X141299345Y-87293443D01*
X141299345Y-87293443D02*
X141618393Y-87293443D01*
X142160774Y-87293443D02*
X142033155Y-87293443D01*
X142033155Y-87293443D02*
X141969346Y-87329157D01*
X141969346Y-87329157D02*
X141937441Y-87364871D01*
X141937441Y-87364871D02*
X141873631Y-87472014D01*
X141873631Y-87472014D02*
X141841727Y-87614871D01*
X141841727Y-87614871D02*
X141841727Y-87900586D01*
X141841727Y-87900586D02*
X141873631Y-87972014D01*
X141873631Y-87972014D02*
X141905536Y-88007729D01*
X141905536Y-88007729D02*
X141969346Y-88043443D01*
X141969346Y-88043443D02*
X142096965Y-88043443D01*
X142096965Y-88043443D02*
X142160774Y-88007729D01*
X142160774Y-88007729D02*
X142192679Y-87972014D01*
X142192679Y-87972014D02*
X142224584Y-87900586D01*
X142224584Y-87900586D02*
X142224584Y-87722014D01*
X142224584Y-87722014D02*
X142192679Y-87650586D01*
X142192679Y-87650586D02*
X142160774Y-87614871D01*
X142160774Y-87614871D02*
X142096965Y-87579157D01*
X142096965Y-87579157D02*
X141969346Y-87579157D01*
X141969346Y-87579157D02*
X141905536Y-87614871D01*
X141905536Y-87614871D02*
X141873631Y-87650586D01*
X141873631Y-87650586D02*
X141841727Y-87722014D01*
X160916250Y-85557729D02*
X161011964Y-85593443D01*
X161011964Y-85593443D02*
X161171488Y-85593443D01*
X161171488Y-85593443D02*
X161235297Y-85557729D01*
X161235297Y-85557729D02*
X161267202Y-85522014D01*
X161267202Y-85522014D02*
X161299107Y-85450586D01*
X161299107Y-85450586D02*
X161299107Y-85379157D01*
X161299107Y-85379157D02*
X161267202Y-85307729D01*
X161267202Y-85307729D02*
X161235297Y-85272014D01*
X161235297Y-85272014D02*
X161171488Y-85236300D01*
X161171488Y-85236300D02*
X161043869Y-85200586D01*
X161043869Y-85200586D02*
X160980059Y-85164871D01*
X160980059Y-85164871D02*
X160948154Y-85129157D01*
X160948154Y-85129157D02*
X160916250Y-85057729D01*
X160916250Y-85057729D02*
X160916250Y-84986300D01*
X160916250Y-84986300D02*
X160948154Y-84914871D01*
X160948154Y-84914871D02*
X160980059Y-84879157D01*
X160980059Y-84879157D02*
X161043869Y-84843443D01*
X161043869Y-84843443D02*
X161203392Y-84843443D01*
X161203392Y-84843443D02*
X161299107Y-84879157D01*
X161969106Y-85522014D02*
X161937202Y-85557729D01*
X161937202Y-85557729D02*
X161841487Y-85593443D01*
X161841487Y-85593443D02*
X161777678Y-85593443D01*
X161777678Y-85593443D02*
X161681964Y-85557729D01*
X161681964Y-85557729D02*
X161618154Y-85486300D01*
X161618154Y-85486300D02*
X161586249Y-85414871D01*
X161586249Y-85414871D02*
X161554345Y-85272014D01*
X161554345Y-85272014D02*
X161554345Y-85164871D01*
X161554345Y-85164871D02*
X161586249Y-85022014D01*
X161586249Y-85022014D02*
X161618154Y-84950586D01*
X161618154Y-84950586D02*
X161681964Y-84879157D01*
X161681964Y-84879157D02*
X161777678Y-84843443D01*
X161777678Y-84843443D02*
X161841487Y-84843443D01*
X161841487Y-84843443D02*
X161937202Y-84879157D01*
X161937202Y-84879157D02*
X161969106Y-84914871D01*
X162575297Y-85593443D02*
X162256249Y-85593443D01*
X162256249Y-85593443D02*
X162256249Y-84843443D01*
X163277202Y-84807729D02*
X162702916Y-85772014D01*
X163500535Y-85593443D02*
X163500535Y-84843443D01*
X163500535Y-84843443D02*
X163660059Y-84843443D01*
X163660059Y-84843443D02*
X163755773Y-84879157D01*
X163755773Y-84879157D02*
X163819583Y-84950586D01*
X163819583Y-84950586D02*
X163851488Y-85022014D01*
X163851488Y-85022014D02*
X163883392Y-85164871D01*
X163883392Y-85164871D02*
X163883392Y-85272014D01*
X163883392Y-85272014D02*
X163851488Y-85414871D01*
X163851488Y-85414871D02*
X163819583Y-85486300D01*
X163819583Y-85486300D02*
X163755773Y-85557729D01*
X163755773Y-85557729D02*
X163660059Y-85593443D01*
X163660059Y-85593443D02*
X163500535Y-85593443D01*
X164298154Y-84843443D02*
X164361964Y-84843443D01*
X164361964Y-84843443D02*
X164425773Y-84879157D01*
X164425773Y-84879157D02*
X164457678Y-84914871D01*
X164457678Y-84914871D02*
X164489583Y-84986300D01*
X164489583Y-84986300D02*
X164521488Y-85129157D01*
X164521488Y-85129157D02*
X164521488Y-85307729D01*
X164521488Y-85307729D02*
X164489583Y-85450586D01*
X164489583Y-85450586D02*
X164457678Y-85522014D01*
X164457678Y-85522014D02*
X164425773Y-85557729D01*
X164425773Y-85557729D02*
X164361964Y-85593443D01*
X164361964Y-85593443D02*
X164298154Y-85593443D01*
X164298154Y-85593443D02*
X164234345Y-85557729D01*
X164234345Y-85557729D02*
X164202440Y-85522014D01*
X164202440Y-85522014D02*
X164170535Y-85450586D01*
X164170535Y-85450586D02*
X164138631Y-85307729D01*
X164138631Y-85307729D02*
X164138631Y-85129157D01*
X164138631Y-85129157D02*
X164170535Y-84986300D01*
X164170535Y-84986300D02*
X164202440Y-84914871D01*
X164202440Y-84914871D02*
X164234345Y-84879157D01*
X164234345Y-84879157D02*
X164298154Y-84843443D01*
X165287202Y-84807729D02*
X164712916Y-85772014D01*
X165446726Y-84843443D02*
X165861488Y-84843443D01*
X165861488Y-84843443D02*
X165638154Y-85129157D01*
X165638154Y-85129157D02*
X165733869Y-85129157D01*
X165733869Y-85129157D02*
X165797678Y-85164871D01*
X165797678Y-85164871D02*
X165829583Y-85200586D01*
X165829583Y-85200586D02*
X165861488Y-85272014D01*
X165861488Y-85272014D02*
X165861488Y-85450586D01*
X165861488Y-85450586D02*
X165829583Y-85522014D01*
X165829583Y-85522014D02*
X165797678Y-85557729D01*
X165797678Y-85557729D02*
X165733869Y-85593443D01*
X165733869Y-85593443D02*
X165542440Y-85593443D01*
X165542440Y-85593443D02*
X165478631Y-85557729D01*
X165478631Y-85557729D02*
X165446726Y-85522014D01*
X160900298Y-83057729D02*
X160996012Y-83093443D01*
X160996012Y-83093443D02*
X161155536Y-83093443D01*
X161155536Y-83093443D02*
X161219345Y-83057729D01*
X161219345Y-83057729D02*
X161251250Y-83022014D01*
X161251250Y-83022014D02*
X161283155Y-82950586D01*
X161283155Y-82950586D02*
X161283155Y-82879157D01*
X161283155Y-82879157D02*
X161251250Y-82807729D01*
X161251250Y-82807729D02*
X161219345Y-82772014D01*
X161219345Y-82772014D02*
X161155536Y-82736300D01*
X161155536Y-82736300D02*
X161027917Y-82700586D01*
X161027917Y-82700586D02*
X160964107Y-82664871D01*
X160964107Y-82664871D02*
X160932202Y-82629157D01*
X160932202Y-82629157D02*
X160900298Y-82557729D01*
X160900298Y-82557729D02*
X160900298Y-82486300D01*
X160900298Y-82486300D02*
X160932202Y-82414871D01*
X160932202Y-82414871D02*
X160964107Y-82379157D01*
X160964107Y-82379157D02*
X161027917Y-82343443D01*
X161027917Y-82343443D02*
X161187440Y-82343443D01*
X161187440Y-82343443D02*
X161283155Y-82379157D01*
X161570297Y-83093443D02*
X161570297Y-82343443D01*
X161570297Y-82343443D02*
X161729821Y-82343443D01*
X161729821Y-82343443D02*
X161825535Y-82379157D01*
X161825535Y-82379157D02*
X161889345Y-82450586D01*
X161889345Y-82450586D02*
X161921250Y-82522014D01*
X161921250Y-82522014D02*
X161953154Y-82664871D01*
X161953154Y-82664871D02*
X161953154Y-82772014D01*
X161953154Y-82772014D02*
X161921250Y-82914871D01*
X161921250Y-82914871D02*
X161889345Y-82986300D01*
X161889345Y-82986300D02*
X161825535Y-83057729D01*
X161825535Y-83057729D02*
X161729821Y-83093443D01*
X161729821Y-83093443D02*
X161570297Y-83093443D01*
X162208393Y-82879157D02*
X162527440Y-82879157D01*
X162144583Y-83093443D02*
X162367916Y-82343443D01*
X162367916Y-82343443D02*
X162591250Y-83093443D01*
X163293155Y-82307729D02*
X162718869Y-83272014D01*
X163516488Y-83093443D02*
X163516488Y-82343443D01*
X163516488Y-82343443D02*
X163676012Y-82343443D01*
X163676012Y-82343443D02*
X163771726Y-82379157D01*
X163771726Y-82379157D02*
X163835536Y-82450586D01*
X163835536Y-82450586D02*
X163867441Y-82522014D01*
X163867441Y-82522014D02*
X163899345Y-82664871D01*
X163899345Y-82664871D02*
X163899345Y-82772014D01*
X163899345Y-82772014D02*
X163867441Y-82914871D01*
X163867441Y-82914871D02*
X163835536Y-82986300D01*
X163835536Y-82986300D02*
X163771726Y-83057729D01*
X163771726Y-83057729D02*
X163676012Y-83093443D01*
X163676012Y-83093443D02*
X163516488Y-83093443D01*
X164537441Y-83093443D02*
X164154584Y-83093443D01*
X164346012Y-83093443D02*
X164346012Y-82343443D01*
X164346012Y-82343443D02*
X164282203Y-82450586D01*
X164282203Y-82450586D02*
X164218393Y-82522014D01*
X164218393Y-82522014D02*
X164154584Y-82557729D01*
X165303155Y-82307729D02*
X164728869Y-83272014D01*
X165494584Y-82414871D02*
X165526488Y-82379157D01*
X165526488Y-82379157D02*
X165590298Y-82343443D01*
X165590298Y-82343443D02*
X165749822Y-82343443D01*
X165749822Y-82343443D02*
X165813631Y-82379157D01*
X165813631Y-82379157D02*
X165845536Y-82414871D01*
X165845536Y-82414871D02*
X165877441Y-82486300D01*
X165877441Y-82486300D02*
X165877441Y-82557729D01*
X165877441Y-82557729D02*
X165845536Y-82664871D01*
X165845536Y-82664871D02*
X165462679Y-83093443D01*
X165462679Y-83093443D02*
X165877441Y-83093443D01*
X161228393Y-79729157D02*
X161164583Y-79693443D01*
X161164583Y-79693443D02*
X161068869Y-79693443D01*
X161068869Y-79693443D02*
X160973155Y-79729157D01*
X160973155Y-79729157D02*
X160909345Y-79800586D01*
X160909345Y-79800586D02*
X160877440Y-79872014D01*
X160877440Y-79872014D02*
X160845536Y-80014871D01*
X160845536Y-80014871D02*
X160845536Y-80122014D01*
X160845536Y-80122014D02*
X160877440Y-80264871D01*
X160877440Y-80264871D02*
X160909345Y-80336300D01*
X160909345Y-80336300D02*
X160973155Y-80407729D01*
X160973155Y-80407729D02*
X161068869Y-80443443D01*
X161068869Y-80443443D02*
X161132678Y-80443443D01*
X161132678Y-80443443D02*
X161228393Y-80407729D01*
X161228393Y-80407729D02*
X161260297Y-80372014D01*
X161260297Y-80372014D02*
X161260297Y-80122014D01*
X161260297Y-80122014D02*
X161132678Y-80122014D01*
X161547440Y-80443443D02*
X161547440Y-79693443D01*
X161547440Y-79693443D02*
X161930297Y-80443443D01*
X161930297Y-80443443D02*
X161930297Y-79693443D01*
X162249345Y-80443443D02*
X162249345Y-79693443D01*
X162249345Y-79693443D02*
X162408869Y-79693443D01*
X162408869Y-79693443D02*
X162504583Y-79729157D01*
X162504583Y-79729157D02*
X162568393Y-79800586D01*
X162568393Y-79800586D02*
X162600298Y-79872014D01*
X162600298Y-79872014D02*
X162632202Y-80014871D01*
X162632202Y-80014871D02*
X162632202Y-80122014D01*
X162632202Y-80122014D02*
X162600298Y-80264871D01*
X162600298Y-80264871D02*
X162568393Y-80336300D01*
X162568393Y-80336300D02*
X162504583Y-80407729D01*
X162504583Y-80407729D02*
X162408869Y-80443443D01*
X162408869Y-80443443D02*
X162249345Y-80443443D01*
X161457202Y-90472014D02*
X161425298Y-90507729D01*
X161425298Y-90507729D02*
X161329583Y-90543443D01*
X161329583Y-90543443D02*
X161265774Y-90543443D01*
X161265774Y-90543443D02*
X161170060Y-90507729D01*
X161170060Y-90507729D02*
X161106250Y-90436300D01*
X161106250Y-90436300D02*
X161074345Y-90364871D01*
X161074345Y-90364871D02*
X161042441Y-90222014D01*
X161042441Y-90222014D02*
X161042441Y-90114871D01*
X161042441Y-90114871D02*
X161074345Y-89972014D01*
X161074345Y-89972014D02*
X161106250Y-89900586D01*
X161106250Y-89900586D02*
X161170060Y-89829157D01*
X161170060Y-89829157D02*
X161265774Y-89793443D01*
X161265774Y-89793443D02*
X161329583Y-89793443D01*
X161329583Y-89793443D02*
X161425298Y-89829157D01*
X161425298Y-89829157D02*
X161457202Y-89864871D01*
X162031488Y-89793443D02*
X161903869Y-89793443D01*
X161903869Y-89793443D02*
X161840060Y-89829157D01*
X161840060Y-89829157D02*
X161808155Y-89864871D01*
X161808155Y-89864871D02*
X161744345Y-89972014D01*
X161744345Y-89972014D02*
X161712441Y-90114871D01*
X161712441Y-90114871D02*
X161712441Y-90400586D01*
X161712441Y-90400586D02*
X161744345Y-90472014D01*
X161744345Y-90472014D02*
X161776250Y-90507729D01*
X161776250Y-90507729D02*
X161840060Y-90543443D01*
X161840060Y-90543443D02*
X161967679Y-90543443D01*
X161967679Y-90543443D02*
X162031488Y-90507729D01*
X162031488Y-90507729D02*
X162063393Y-90472014D01*
X162063393Y-90472014D02*
X162095298Y-90400586D01*
X162095298Y-90400586D02*
X162095298Y-90222014D01*
X162095298Y-90222014D02*
X162063393Y-90150586D01*
X162063393Y-90150586D02*
X162031488Y-90114871D01*
X162031488Y-90114871D02*
X161967679Y-90079157D01*
X161967679Y-90079157D02*
X161840060Y-90079157D01*
X161840060Y-90079157D02*
X161776250Y-90114871D01*
X161776250Y-90114871D02*
X161744345Y-90150586D01*
X161744345Y-90150586D02*
X161712441Y-90222014D01*
X162861012Y-89757729D02*
X162286726Y-90722014D01*
X163403393Y-89793443D02*
X163084345Y-89793443D01*
X163084345Y-89793443D02*
X163052441Y-90150586D01*
X163052441Y-90150586D02*
X163084345Y-90114871D01*
X163084345Y-90114871D02*
X163148155Y-90079157D01*
X163148155Y-90079157D02*
X163307679Y-90079157D01*
X163307679Y-90079157D02*
X163371488Y-90114871D01*
X163371488Y-90114871D02*
X163403393Y-90150586D01*
X163403393Y-90150586D02*
X163435298Y-90222014D01*
X163435298Y-90222014D02*
X163435298Y-90400586D01*
X163435298Y-90400586D02*
X163403393Y-90472014D01*
X163403393Y-90472014D02*
X163371488Y-90507729D01*
X163371488Y-90507729D02*
X163307679Y-90543443D01*
X163307679Y-90543443D02*
X163148155Y-90543443D01*
X163148155Y-90543443D02*
X163084345Y-90507729D01*
X163084345Y-90507729D02*
X163052441Y-90472014D01*
D10*
%TO.C,H2*%
X182509498Y-108984829D02*
X182474599Y-107985438D01*
X182491217Y-108461338D02*
X183062298Y-108441396D01*
X183080579Y-108964886D02*
X183045679Y-107965495D01*
X183477313Y-108045719D02*
X183523241Y-107996467D01*
X183523241Y-107996467D02*
X183616759Y-107945553D01*
X183616759Y-107945553D02*
X183854710Y-107937243D01*
X183854710Y-107937243D02*
X183951552Y-107981510D01*
X183951552Y-107981510D02*
X184000804Y-108027438D01*
X184000804Y-108027438D02*
X184051717Y-108120956D01*
X184051717Y-108120956D02*
X184055041Y-108216136D01*
X184055041Y-108216136D02*
X184012437Y-108360568D01*
X184012437Y-108360568D02*
X183461299Y-108951591D01*
X183461299Y-108951591D02*
X184079969Y-108929987D01*
%TO.C,*%
%TO.C,H2*%
X238211698Y-36671029D02*
X238176799Y-35671638D01*
X238193417Y-36147538D02*
X238764498Y-36127596D01*
X238782779Y-36651086D02*
X238747879Y-35651695D01*
X239179513Y-35731919D02*
X239225441Y-35682667D01*
X239225441Y-35682667D02*
X239318959Y-35631753D01*
X239318959Y-35631753D02*
X239556910Y-35623443D01*
X239556910Y-35623443D02*
X239653752Y-35667710D01*
X239653752Y-35667710D02*
X239703004Y-35713638D01*
X239703004Y-35713638D02*
X239753917Y-35807156D01*
X239753917Y-35807156D02*
X239757241Y-35902336D01*
X239757241Y-35902336D02*
X239714637Y-36046768D01*
X239714637Y-36046768D02*
X239163499Y-36637791D01*
X239163499Y-36637791D02*
X239782169Y-36616187D01*
%TO.C,PAD1*%
X174212917Y-111260575D02*
X174251012Y-111146289D01*
X174251012Y-111146289D02*
X174289108Y-111108194D01*
X174289108Y-111108194D02*
X174365298Y-111070098D01*
X174365298Y-111070098D02*
X174479584Y-111070098D01*
X174479584Y-111070098D02*
X174555774Y-111108194D01*
X174555774Y-111108194D02*
X174593870Y-111146289D01*
X174593870Y-111146289D02*
X174631965Y-111222479D01*
X174631965Y-111222479D02*
X174631965Y-111527241D01*
X174631965Y-111527241D02*
X173831965Y-111527241D01*
X173831965Y-111527241D02*
X173831965Y-111260575D01*
X173831965Y-111260575D02*
X173870060Y-111184384D01*
X173870060Y-111184384D02*
X173908155Y-111146289D01*
X173908155Y-111146289D02*
X173984346Y-111108194D01*
X173984346Y-111108194D02*
X174060536Y-111108194D01*
X174060536Y-111108194D02*
X174136727Y-111146289D01*
X174136727Y-111146289D02*
X174174822Y-111184384D01*
X174174822Y-111184384D02*
X174212917Y-111260575D01*
X174212917Y-111260575D02*
X174212917Y-111527241D01*
X174327203Y-110727241D02*
X174327203Y-110117718D01*
X174212917Y-113260575D02*
X174251012Y-113146289D01*
X174251012Y-113146289D02*
X174289108Y-113108194D01*
X174289108Y-113108194D02*
X174365298Y-113070098D01*
X174365298Y-113070098D02*
X174479584Y-113070098D01*
X174479584Y-113070098D02*
X174555774Y-113108194D01*
X174555774Y-113108194D02*
X174593870Y-113146289D01*
X174593870Y-113146289D02*
X174631965Y-113222479D01*
X174631965Y-113222479D02*
X174631965Y-113527241D01*
X174631965Y-113527241D02*
X173831965Y-113527241D01*
X173831965Y-113527241D02*
X173831965Y-113260575D01*
X173831965Y-113260575D02*
X173870060Y-113184384D01*
X173870060Y-113184384D02*
X173908155Y-113146289D01*
X173908155Y-113146289D02*
X173984346Y-113108194D01*
X173984346Y-113108194D02*
X174060536Y-113108194D01*
X174060536Y-113108194D02*
X174136727Y-113146289D01*
X174136727Y-113146289D02*
X174174822Y-113184384D01*
X174174822Y-113184384D02*
X174212917Y-113260575D01*
X174212917Y-113260575D02*
X174212917Y-113527241D01*
X174327203Y-112727241D02*
X174327203Y-112117718D01*
X174631965Y-112422479D02*
X174022441Y-112422479D01*
X174212917Y-109260575D02*
X174251012Y-109146289D01*
X174251012Y-109146289D02*
X174289108Y-109108194D01*
X174289108Y-109108194D02*
X174365298Y-109070098D01*
X174365298Y-109070098D02*
X174479584Y-109070098D01*
X174479584Y-109070098D02*
X174555774Y-109108194D01*
X174555774Y-109108194D02*
X174593870Y-109146289D01*
X174593870Y-109146289D02*
X174631965Y-109222479D01*
X174631965Y-109222479D02*
X174631965Y-109527241D01*
X174631965Y-109527241D02*
X173831965Y-109527241D01*
X173831965Y-109527241D02*
X173831965Y-109260575D01*
X173831965Y-109260575D02*
X173870060Y-109184384D01*
X173870060Y-109184384D02*
X173908155Y-109146289D01*
X173908155Y-109146289D02*
X173984346Y-109108194D01*
X173984346Y-109108194D02*
X174060536Y-109108194D01*
X174060536Y-109108194D02*
X174136727Y-109146289D01*
X174136727Y-109146289D02*
X174174822Y-109184384D01*
X174174822Y-109184384D02*
X174212917Y-109260575D01*
X174212917Y-109260575D02*
X174212917Y-109527241D01*
X174327203Y-108727241D02*
X174327203Y-108117718D01*
X174631965Y-108422479D02*
X174022441Y-108422479D01*
%TO.C,G\u002A\u002A\u002A*%
G36*
X139154050Y-113110993D02*
G01*
X139203309Y-113150813D01*
X139415274Y-113290918D01*
X139611790Y-113362162D01*
X139638865Y-113364339D01*
X139826466Y-113399866D01*
X140082616Y-113487146D01*
X140188777Y-113532253D01*
X140419188Y-113655346D01*
X140519348Y-113769237D01*
X140527444Y-113881580D01*
X140451587Y-114058601D01*
X140373202Y-114130263D01*
X139971873Y-114330751D01*
X139665811Y-114462818D01*
X139403557Y-114542570D01*
X139133650Y-114586113D01*
X138849202Y-114607255D01*
X138513122Y-114618430D01*
X138263011Y-114599222D01*
X138029718Y-114534910D01*
X137970099Y-114508999D01*
X138533913Y-114508999D01*
X138640287Y-114522283D01*
X138764536Y-114524753D01*
X138947657Y-114518148D01*
X138997926Y-114501262D01*
X138955036Y-114488061D01*
X138708318Y-114474054D01*
X138574036Y-114488061D01*
X138533913Y-114508999D01*
X137970099Y-114508999D01*
X137818020Y-114442904D01*
X138123924Y-114442904D01*
X138207147Y-114456462D01*
X138316961Y-114440896D01*
X138318272Y-114411994D01*
X138204955Y-114391782D01*
X138155994Y-114405310D01*
X138123924Y-114442904D01*
X137818020Y-114442904D01*
X137744092Y-114410774D01*
X137600369Y-114341399D01*
X137267172Y-114165982D01*
X137071713Y-114028297D01*
X136991530Y-113911214D01*
X136990760Y-113905374D01*
X137166999Y-113905374D01*
X137183424Y-113926257D01*
X137363852Y-114021117D01*
X137674117Y-114099024D01*
X138075356Y-114157630D01*
X138528703Y-114194585D01*
X138995294Y-114207543D01*
X139436265Y-114194153D01*
X139812751Y-114152069D01*
X140034536Y-114098534D01*
X140261886Y-113988940D01*
X140320586Y-113873721D01*
X140211175Y-113754178D01*
X139934194Y-113631615D01*
X139826192Y-113596784D01*
X139524679Y-113486890D01*
X139267704Y-113361846D01*
X139143402Y-113275809D01*
X138881791Y-113128830D01*
X138596736Y-113146030D01*
X138369727Y-113273549D01*
X138166898Y-113392113D01*
X137879866Y-113513208D01*
X137704515Y-113570994D01*
X137374501Y-113687938D01*
X137192221Y-113801517D01*
X137166999Y-113905374D01*
X136990760Y-113905374D01*
X136986536Y-113873353D01*
X137065636Y-113686270D01*
X137280777Y-113525293D01*
X137598714Y-113412388D01*
X137718414Y-113389743D01*
X138014550Y-113301422D01*
X138295142Y-113153474D01*
X138314386Y-113139613D01*
X138612664Y-112974520D01*
X138880061Y-112964822D01*
X139154050Y-113110993D01*
G37*
G36*
X138275925Y-104919241D02*
G01*
X138410488Y-104986364D01*
X138617852Y-105159860D01*
X138749232Y-105345982D01*
X138860928Y-105578333D01*
X139115561Y-105364073D01*
X139325671Y-105205243D01*
X139475105Y-105165920D01*
X139622548Y-105245499D01*
X139742051Y-105357631D01*
X139912200Y-105640000D01*
X139955579Y-105990920D01*
X139872460Y-106366989D01*
X139734017Y-106629591D01*
X139610690Y-106822250D01*
X139546041Y-106945181D01*
X139543517Y-106965703D01*
X139633164Y-106991793D01*
X139839390Y-107040869D01*
X140053217Y-107088293D01*
X140806578Y-107334358D01*
X141481204Y-107725491D01*
X142068351Y-108252568D01*
X142559275Y-108906465D01*
X142945232Y-109678058D01*
X143161353Y-110331482D01*
X143337015Y-111212423D01*
X143379559Y-112030875D01*
X143290957Y-112775206D01*
X143073182Y-113433785D01*
X142728207Y-113994982D01*
X142497422Y-114246154D01*
X142333366Y-114437054D01*
X142242377Y-114610762D01*
X142235869Y-114651693D01*
X142193859Y-114846290D01*
X142089771Y-115090110D01*
X141956521Y-115321071D01*
X141827024Y-115477088D01*
X141783683Y-115504591D01*
X141722734Y-115569899D01*
X141686605Y-115727251D01*
X141671299Y-116004776D01*
X141670966Y-116298200D01*
X141666461Y-116706222D01*
X141636524Y-117002640D01*
X141572055Y-117244394D01*
X141488780Y-117438195D01*
X141199085Y-117850619D01*
X140798614Y-118150851D01*
X140322041Y-118313103D01*
X140309702Y-118315128D01*
X140053170Y-118385529D01*
X139958702Y-118485748D01*
X140028863Y-118610916D01*
X140119202Y-118676831D01*
X140254593Y-118812498D01*
X140279143Y-118947290D01*
X140190379Y-119028843D01*
X140136136Y-119035147D01*
X139944583Y-119091396D01*
X139876436Y-119140980D01*
X139771998Y-119195865D01*
X139666817Y-119108020D01*
X139655964Y-119093580D01*
X139544877Y-119000671D01*
X139487333Y-119030080D01*
X139370476Y-119113168D01*
X139243677Y-119094717D01*
X139187869Y-118991984D01*
X139223900Y-118902485D01*
X139394570Y-118902485D01*
X139408975Y-118912280D01*
X139471229Y-118867251D01*
X139600889Y-118794173D01*
X139687638Y-118855565D01*
X139722325Y-118912146D01*
X139797191Y-119021642D01*
X139834476Y-118985199D01*
X139846435Y-118934006D01*
X139932489Y-118828942D01*
X140018673Y-118832933D01*
X140077544Y-118830865D01*
X139990369Y-118747864D01*
X139971036Y-118733246D01*
X139827293Y-118581877D01*
X139773851Y-118453320D01*
X139759798Y-118364950D01*
X139721004Y-118441762D01*
X139720742Y-118442480D01*
X139634407Y-118594716D01*
X139494592Y-118778584D01*
X139394570Y-118902485D01*
X139223900Y-118902485D01*
X139247620Y-118843566D01*
X139357202Y-118719168D01*
X139503409Y-118569812D01*
X139526806Y-118466018D01*
X139415882Y-118400768D01*
X139159126Y-118367044D01*
X138764536Y-118357813D01*
X138428977Y-118365170D01*
X138168812Y-118384875D01*
X138021811Y-118413383D01*
X138002536Y-118429358D01*
X138059148Y-118533867D01*
X138171869Y-118654147D01*
X138307256Y-118821315D01*
X138337102Y-118956474D01*
X138260808Y-119020401D01*
X138177337Y-119012044D01*
X138020729Y-119026878D01*
X137968327Y-119086836D01*
X137866825Y-119195657D01*
X137746082Y-119160530D01*
X137695082Y-119079030D01*
X137614955Y-118998518D01*
X137491638Y-119036697D01*
X137322808Y-119110401D01*
X137252768Y-119074195D01*
X137240536Y-118951197D01*
X137281842Y-118842405D01*
X137442905Y-118842405D01*
X137537454Y-118837055D01*
X137609148Y-118791427D01*
X137709288Y-118748308D01*
X137777073Y-118848639D01*
X137789502Y-118885195D01*
X137840472Y-119007501D01*
X137877512Y-118974855D01*
X137889814Y-118934006D01*
X137984380Y-118830089D01*
X138071340Y-118836054D01*
X138143094Y-118842827D01*
X138081499Y-118767892D01*
X138033899Y-118725528D01*
X137882754Y-118564861D01*
X137807750Y-118442480D01*
X137769712Y-118369767D01*
X137755220Y-118460668D01*
X137681612Y-118611746D01*
X137571951Y-118700361D01*
X137454295Y-118789134D01*
X137442905Y-118842405D01*
X137281842Y-118842405D01*
X137307127Y-118775808D01*
X137409869Y-118676831D01*
X137554100Y-118550769D01*
X137542132Y-118444040D01*
X137369246Y-118350235D01*
X137119008Y-118281772D01*
X136665655Y-118097499D01*
X136293638Y-117779658D01*
X136030210Y-117355147D01*
X135952823Y-117130794D01*
X135851553Y-116752156D01*
X135635878Y-116889246D01*
X135421796Y-117056276D01*
X135230022Y-117247575D01*
X135039841Y-117468813D01*
X134860427Y-117257147D01*
X134729856Y-116982239D01*
X134708587Y-116720412D01*
X134955318Y-116720412D01*
X134962886Y-116945922D01*
X134999879Y-117074509D01*
X135024055Y-117087813D01*
X135116488Y-117033304D01*
X135290287Y-116890787D01*
X135463249Y-116732259D01*
X136153398Y-116732259D01*
X136235340Y-117112005D01*
X136336615Y-117348565D01*
X136514175Y-117620302D01*
X136737999Y-117829097D01*
X137029050Y-117981048D01*
X137408288Y-118082251D01*
X137896675Y-118138804D01*
X138515172Y-118156805D01*
X139086334Y-118148421D01*
X139568914Y-118131596D01*
X139920474Y-118107964D01*
X140179323Y-118071787D01*
X140383772Y-118017330D01*
X140572129Y-117938856D01*
X140610334Y-117920224D01*
X140984035Y-117644806D01*
X141256610Y-117255994D01*
X141416014Y-116784400D01*
X141450203Y-116260637D01*
X141400643Y-115911444D01*
X141315622Y-115603564D01*
X141207420Y-115426012D01*
X141041159Y-115362234D01*
X140781960Y-115395677D01*
X140490298Y-115479400D01*
X139813644Y-115634439D01*
X139057196Y-115711960D01*
X138293285Y-115708821D01*
X137594241Y-115621877D01*
X137529085Y-115608098D01*
X137195189Y-115528997D01*
X136913534Y-115452710D01*
X136735273Y-115393322D01*
X136714922Y-115383878D01*
X136612939Y-115361822D01*
X136541196Y-115450325D01*
X136483821Y-115628852D01*
X136393770Y-115885926D01*
X136286230Y-116095659D01*
X136271293Y-116116763D01*
X136164433Y-116382590D01*
X136153398Y-116732259D01*
X135463249Y-116732259D01*
X135495540Y-116702663D01*
X135726266Y-116443311D01*
X135950923Y-116126846D01*
X136141379Y-115800669D01*
X136269501Y-115512179D01*
X136308375Y-115333154D01*
X136240815Y-115226490D01*
X136075824Y-115108946D01*
X136063256Y-115102311D01*
X135914895Y-115035223D01*
X135805084Y-115038197D01*
X135682134Y-115130802D01*
X135514847Y-115309918D01*
X135308972Y-115570703D01*
X135136023Y-115845405D01*
X135083460Y-115953267D01*
X135018175Y-116174990D01*
X134974605Y-116447070D01*
X134955318Y-116720412D01*
X134708587Y-116720412D01*
X134700316Y-116618601D01*
X134762484Y-116205939D01*
X134907036Y-115783955D01*
X135124650Y-115392357D01*
X135364984Y-115108388D01*
X135621608Y-114864630D01*
X135163113Y-114445592D01*
X134686557Y-113900617D01*
X134427410Y-113463171D01*
X134307255Y-113209973D01*
X134228194Y-113002195D01*
X134181866Y-112792695D01*
X134159908Y-112534330D01*
X134153955Y-112179955D01*
X134154485Y-111924634D01*
X134157609Y-111880813D01*
X134413810Y-111880813D01*
X134417514Y-112293991D01*
X134438936Y-112594056D01*
X134487798Y-112837042D01*
X134573819Y-113078981D01*
X134652958Y-113259358D01*
X134996418Y-113820225D01*
X135481142Y-114329945D01*
X136082233Y-114770002D01*
X136774797Y-115121880D01*
X137463926Y-115349948D01*
X137942900Y-115427352D01*
X138523428Y-115455227D01*
X139145902Y-115436017D01*
X139750717Y-115372167D01*
X140278266Y-115266120D01*
X140403353Y-115229411D01*
X140983837Y-115043460D01*
X140930409Y-114605136D01*
X140939579Y-114141928D01*
X141185995Y-114141928D01*
X141187824Y-114544469D01*
X141235282Y-114905221D01*
X141327889Y-115165269D01*
X141335248Y-115176960D01*
X141488257Y-115410480D01*
X141686398Y-115224336D01*
X141826244Y-115028431D01*
X141947071Y-114752245D01*
X141981978Y-114632023D01*
X142036835Y-114076063D01*
X141944375Y-113532878D01*
X141767795Y-113138877D01*
X141644361Y-112947766D01*
X141573321Y-112888496D01*
X141526761Y-112943826D01*
X141512960Y-112981480D01*
X141439557Y-113172177D01*
X141335356Y-113415628D01*
X141321146Y-113447147D01*
X141230276Y-113756515D01*
X141185995Y-114141928D01*
X140939579Y-114141928D01*
X140942210Y-114009003D01*
X141010696Y-113701147D01*
X141122510Y-113320233D01*
X141182359Y-113074775D01*
X141172074Y-112934303D01*
X141073488Y-112868346D01*
X140868434Y-112846435D01*
X140538744Y-112838100D01*
X140495300Y-112836744D01*
X139752302Y-112812147D01*
X139405476Y-111965480D01*
X139058649Y-111118813D01*
X138398105Y-111118813D01*
X137704357Y-112812147D01*
X136852301Y-112836111D01*
X136000244Y-112860076D01*
X135645603Y-111919672D01*
X135511593Y-111545069D01*
X135410673Y-111225093D01*
X135352819Y-110994251D01*
X135347386Y-110887972D01*
X135425726Y-110863542D01*
X135631083Y-110845866D01*
X135970557Y-110834874D01*
X136451249Y-110830500D01*
X137080261Y-110832675D01*
X137864692Y-110841331D01*
X138752734Y-110855362D01*
X139488724Y-110869094D01*
X140170491Y-110883420D01*
X140779767Y-110897837D01*
X141298280Y-110911841D01*
X141707760Y-110924926D01*
X141989938Y-110936589D01*
X142126542Y-110946324D01*
X142136400Y-110948789D01*
X142124746Y-111038047D01*
X142065389Y-111250509D01*
X141968932Y-111550398D01*
X141892122Y-111773107D01*
X141613103Y-112562683D01*
X141837845Y-112787426D01*
X141999626Y-113017094D01*
X142147245Y-113344997D01*
X142205290Y-113525441D01*
X142347992Y-114038715D01*
X142560511Y-113725965D01*
X142823127Y-113268578D01*
X142987613Y-112792869D01*
X143068271Y-112246427D01*
X143082536Y-111813027D01*
X143013350Y-110904767D01*
X142811949Y-110068075D01*
X142487569Y-109315564D01*
X142049446Y-108659843D01*
X141506816Y-108113524D01*
X140868913Y-107689218D01*
X140144975Y-107399536D01*
X139788832Y-107315564D01*
X139459532Y-107238928D01*
X139288235Y-107144699D01*
X139263957Y-107004501D01*
X139375712Y-106789956D01*
X139512535Y-106601859D01*
X139690186Y-106280001D01*
X139738202Y-105943804D01*
X139704213Y-105622342D01*
X139600341Y-105453033D01*
X139423726Y-105432527D01*
X139330573Y-105465919D01*
X139116677Y-105649394D01*
X138950974Y-105964390D01*
X138847907Y-106376490D01*
X138821368Y-106679271D01*
X138802483Y-106995144D01*
X138773137Y-107152546D01*
X138739779Y-107161494D01*
X138708854Y-107032005D01*
X138686809Y-106774094D01*
X138679869Y-106459427D01*
X138654145Y-105919534D01*
X138578893Y-105515594D01*
X138456993Y-105256641D01*
X138291324Y-105151710D01*
X138262469Y-105149813D01*
X138100620Y-105224473D01*
X138039042Y-105354554D01*
X138028440Y-105572986D01*
X138064080Y-105894768D01*
X138135697Y-106263622D01*
X138233023Y-106623273D01*
X138309112Y-106834980D01*
X138380656Y-107028293D01*
X138406239Y-107139764D01*
X138403902Y-107147335D01*
X138315409Y-107175001D01*
X138103773Y-107225914D01*
X137811847Y-107289864D01*
X137761166Y-107300495D01*
X136955009Y-107538985D01*
X136267157Y-107896365D01*
X135689945Y-108378361D01*
X135215708Y-108990702D01*
X135010518Y-109356043D01*
X134704763Y-110056257D01*
X134515318Y-110735831D01*
X134426022Y-111463147D01*
X134413810Y-111880813D01*
X134157609Y-111880813D01*
X134223791Y-110952519D01*
X134418065Y-110062014D01*
X134730139Y-109263527D01*
X135152844Y-108567466D01*
X135679013Y-107984239D01*
X136301478Y-107524256D01*
X137013071Y-107197925D01*
X137500119Y-107066416D01*
X137770686Y-107005725D01*
X137967320Y-106951360D01*
X138036790Y-106921781D01*
X138040873Y-106822550D01*
X138005280Y-106612466D01*
X137958089Y-106415876D01*
X137854073Y-105897531D01*
X137838348Y-105471151D01*
X137910194Y-105156786D01*
X138008321Y-105017577D01*
X138148554Y-104914458D01*
X138275925Y-104919241D01*
G37*
%TO.C,SW33*%
X167079868Y-122224480D02*
X167079868Y-121974480D01*
X167079868Y-122224480D02*
X161079868Y-122224480D01*
X167079868Y-118724480D02*
X167079868Y-118974480D01*
X167079868Y-118724480D02*
X161079868Y-118724480D01*
X161079868Y-122224480D02*
X161079868Y-121974480D01*
X161079868Y-118724480D02*
X161079868Y-118974480D01*
D12*
%TO.C,SW34*%
X147745046Y-120331462D02*
X147745046Y-121121462D01*
X148345046Y-122131462D02*
X154045046Y-122131462D01*
X149595046Y-119281462D02*
X151295046Y-119281462D01*
X149795046Y-122131462D02*
X149795046Y-123421462D01*
X149795046Y-123421462D02*
X149995046Y-123631462D01*
X149995046Y-123631462D02*
X150895046Y-123631462D01*
X151095046Y-123421462D02*
X150895046Y-123631462D01*
X151095046Y-123421462D02*
X151095046Y-122131462D01*
X152595046Y-119281462D02*
X152795046Y-119281462D01*
X154645046Y-121121462D02*
X154645046Y-120331462D01*
D10*
%TO.C,U1*%
X142733869Y-68646479D02*
X142733869Y-69646479D01*
X142733869Y-68646479D02*
X143733869Y-68646479D01*
X142733869Y-100646479D02*
X142733869Y-101696479D01*
X142733869Y-101696479D02*
X143733869Y-101696479D01*
X147883869Y-65746479D02*
X147883869Y-67046479D01*
X147883869Y-67046479D02*
X155383869Y-67046479D01*
X151133869Y-66096479D02*
X152133869Y-66096479D01*
X151283869Y-66246479D02*
X151983869Y-66246479D01*
X151383869Y-66396479D02*
X151883869Y-66396479D01*
X151483869Y-66546479D02*
X151783869Y-66546479D01*
X151633869Y-66746479D02*
X151133869Y-66096479D01*
X152133869Y-66096479D02*
X151633869Y-66746479D01*
X155383869Y-65746479D02*
X147883869Y-65746479D01*
X155383869Y-67046479D02*
X155383869Y-65746479D01*
X160533869Y-68646479D02*
X159583869Y-68646479D01*
X160533869Y-68646479D02*
X160533869Y-69646479D01*
X160533869Y-100696479D02*
X160533869Y-101696479D01*
X160533869Y-101696479D02*
X159523869Y-101696479D01*
%TD*%
D13*
%TO.C,SW33*%
X160829868Y-120474480D03*
X167329868Y-120474480D03*
%TD*%
D14*
%TO.C,U1*%
X159245269Y-72468479D03*
X159245269Y-75008479D03*
X159245269Y-77548479D03*
X159245269Y-80088479D03*
X159245269Y-82628479D03*
X159245269Y-85168479D03*
X159245269Y-87708479D03*
X159245269Y-90248479D03*
X159245269Y-92788479D03*
X159245269Y-95328479D03*
X159245269Y-97868479D03*
X159245269Y-100408479D03*
X144025269Y-100408479D03*
X144025269Y-97868479D03*
X144025269Y-95328479D03*
X144025269Y-92788479D03*
X144025269Y-90248479D03*
X144025269Y-87708479D03*
X144025269Y-85168479D03*
X144025269Y-82628479D03*
X144025269Y-80088479D03*
X144025269Y-77548479D03*
X144025269Y-75008479D03*
X144025269Y-72468479D03*
%TD*%
D15*
%TO.C,PAD1*%
X172461870Y-108822480D03*
X172461870Y-110822480D03*
X172461870Y-112822480D03*
%TD*%
%LPC*%
D16*
%TO.C,SW9*%
X100238946Y-70088028D03*
D17*
X102386913Y-66973750D03*
X107840725Y-67283487D03*
D18*
X105139482Y-72584976D03*
D17*
X111296979Y-71513655D03*
D16*
X110040018Y-75081924D03*
%TD*%
%TO.C,SW35*%
X107188766Y-97197991D03*
D17*
X109336733Y-94083713D03*
X114790545Y-94393450D03*
D18*
X112089302Y-99694939D03*
D17*
X118246799Y-98623618D03*
D16*
X116989838Y-102191887D03*
%TD*%
D19*
%TO.C,H2*%
X122975646Y-113789862D03*
%TD*%
D16*
%TO.C,SW19*%
X112422531Y-121976233D03*
D17*
X115303343Y-119524006D03*
X120491155Y-121234739D03*
D18*
X116509828Y-125656451D03*
D17*
X122734791Y-126215312D03*
D16*
X120597125Y-129336669D03*
%TD*%
%TO.C,SW8*%
X108183779Y-54495415D03*
D17*
X110331746Y-51381137D03*
X115785558Y-51690874D03*
D18*
X113084315Y-56992363D03*
D17*
X119241812Y-55921042D03*
D16*
X117984851Y-59489311D03*
%TD*%
%TO.C,SW5*%
X94083607Y-41418805D03*
D17*
X96231574Y-38304527D03*
X101685386Y-38614264D03*
D18*
X98984143Y-43915753D03*
D17*
X105141640Y-42844432D03*
D16*
X103884679Y-46412701D03*
%TD*%
D19*
%TO.C,H2*%
X65673246Y-40002862D03*
%TD*%
D16*
%TO.C,SW29*%
X219889912Y-41595028D03*
D17*
X218884923Y-37947770D03*
X222627839Y-33969003D03*
D18*
X224952689Y-39446007D03*
D17*
X228089972Y-34040459D03*
D16*
X230015466Y-37296986D03*
%TD*%
%TO.C,SW13*%
X115133601Y-81605377D03*
D17*
X117281568Y-78491099D03*
X122735380Y-78800836D03*
D18*
X120034137Y-84102325D03*
D17*
X126191634Y-83031004D03*
D16*
X124934673Y-86599273D03*
%TD*%
%TO.C,SW12*%
X123078434Y-66012761D03*
D17*
X125226401Y-62898483D03*
X130680213Y-63208220D03*
D18*
X127978970Y-68509709D03*
D17*
X134136467Y-67438388D03*
D16*
X132879506Y-71006657D03*
%TD*%
%TO.C,SW6*%
X86138776Y-57011419D03*
D17*
X88286743Y-53897141D03*
X93740555Y-54206878D03*
D18*
X91039312Y-59508367D03*
D17*
X97196809Y-58437046D03*
D16*
X95939848Y-62005315D03*
%TD*%
D19*
%TO.C,H2*%
X248959646Y-71600462D03*
%TD*%
D16*
%TO.C,SW2*%
X72462425Y-37296988D03*
D17*
X74387919Y-34040461D03*
X79850052Y-33969005D03*
D18*
X77525202Y-39446009D03*
D17*
X83592968Y-37947772D03*
D16*
X82587979Y-41595030D03*
%TD*%
D13*
%TO.C,SW33*%
X160829868Y-120474480D03*
X167329868Y-120474480D03*
%TD*%
D16*
%TO.C,SW28*%
X249649817Y-62177004D03*
D17*
X249031576Y-58444677D03*
X253169881Y-54878947D03*
D18*
X254909493Y-60568960D03*
D17*
X258594623Y-55520960D03*
D16*
X260169169Y-58960916D03*
%TD*%
%TO.C,SW36*%
X185488053Y-102191887D03*
D17*
X184231092Y-98623618D03*
X187687346Y-94393450D03*
D18*
X190388589Y-99694939D03*
D17*
X193141158Y-94083713D03*
D16*
X195289125Y-97197991D03*
%TD*%
%TO.C,SW24*%
X198007782Y-116575802D03*
D17*
X196750821Y-113007533D03*
X200207075Y-108777365D03*
D18*
X202908318Y-114078854D03*
D17*
X205660887Y-108467628D03*
D16*
X207808854Y-111581906D03*
%TD*%
%TO.C,SW4*%
X58786838Y-69514658D03*
D17*
X60712332Y-66258131D03*
X66174465Y-66186675D03*
D18*
X63849615Y-71663679D03*
D17*
X69917381Y-70165442D03*
D16*
X68912392Y-73812700D03*
%TD*%
%TO.C,SW20*%
X181880766Y-129336668D03*
D17*
X179743100Y-126215311D03*
X181986736Y-121234738D03*
D18*
X185968063Y-125656450D03*
D17*
X187174548Y-119524005D03*
D16*
X190055360Y-121976232D03*
%TD*%
%TO.C,SW11*%
X47425226Y-42225581D03*
D17*
X48999772Y-38785625D03*
X54424514Y-38143612D03*
D18*
X52684902Y-43833625D03*
D17*
X58562819Y-41709342D03*
D16*
X57944578Y-45441669D03*
%TD*%
%TO.C,SW25*%
X198593211Y-46412702D03*
D17*
X197336250Y-42844433D03*
X200792504Y-38614265D03*
D18*
X203493747Y-43915754D03*
D17*
X206246316Y-38304528D03*
D16*
X208394283Y-41418806D03*
%TD*%
D20*
%TO.C,SW34*%
X147545046Y-119621462D03*
X147545046Y-121831462D03*
D21*
X149695046Y-120731462D03*
X152695046Y-120731462D03*
D20*
X154845046Y-119621462D03*
X154845046Y-121831462D03*
D22*
X148945046Y-118971462D03*
X151945046Y-118971462D03*
X153445046Y-118971462D03*
%TD*%
D16*
%TO.C,SW23*%
X200382708Y-90674540D03*
D17*
X199125747Y-87106271D03*
X202582001Y-82876103D03*
D18*
X205283244Y-88177592D03*
D17*
X208035813Y-82566366D03*
D16*
X210183780Y-85680644D03*
%TD*%
D19*
%TO.C,H2*%
X53709846Y-71549662D03*
%TD*%
D16*
%TO.C,SW3*%
X65624631Y-53405822D03*
D17*
X67550125Y-50149295D03*
X73012258Y-50077839D03*
D18*
X70687408Y-55554843D03*
D17*
X76755174Y-54056606D03*
D16*
X75750185Y-57703864D03*
%TD*%
%TO.C,SW30*%
X226727705Y-57703865D03*
D17*
X225722716Y-54056607D03*
X229465632Y-50077840D03*
D18*
X231790482Y-55554844D03*
D17*
X234927765Y-50149296D03*
D16*
X236853259Y-53405823D03*
%TD*%
%TO.C,SW27*%
X214482877Y-77597931D03*
D17*
X213225916Y-74029662D03*
X216682170Y-69799494D03*
D18*
X219383413Y-75100983D03*
D17*
X222135982Y-69489757D03*
D16*
X224283949Y-72604035D03*
%TD*%
%TO.C,SW14*%
X42308723Y-58960915D03*
D17*
X43883269Y-55520959D03*
X49308011Y-54878946D03*
D18*
X47568399Y-60568959D03*
D17*
X53446316Y-58444676D03*
D16*
X52828075Y-62177003D03*
%TD*%
%TO.C,SW15*%
X94669036Y-111581903D03*
D17*
X96817003Y-108467625D03*
X102270815Y-108777362D03*
D18*
X99569572Y-114078851D03*
D17*
X105727069Y-113007530D03*
D16*
X104470108Y-116575799D03*
%TD*%
D19*
%TO.C,H2*%
X181929046Y-112088062D03*
%TD*%
D16*
%TO.C,SW26*%
X206538042Y-62005315D03*
D17*
X205281081Y-58437046D03*
X208737335Y-54206878D03*
D18*
X211438578Y-59508367D03*
D17*
X214191147Y-53897141D03*
D16*
X216339114Y-57011419D03*
%TD*%
D19*
%TO.C,*%
X165520646Y-76553462D03*
%TD*%
%TO.C,*%
X137987046Y-76553462D03*
%TD*%
D16*
%TO.C,SW32*%
X244533311Y-45441668D03*
D17*
X243915070Y-41709341D03*
X248053375Y-38143611D03*
D18*
X249792987Y-43833624D03*
D17*
X253478117Y-38785624D03*
D16*
X255052663Y-42225580D03*
%TD*%
%TO.C,SW7*%
X78193940Y-72604034D03*
D17*
X80341907Y-69489756D03*
X85795719Y-69799493D03*
D18*
X83094476Y-75100982D03*
D17*
X89251973Y-74029661D03*
D16*
X87995012Y-77597930D03*
%TD*%
D19*
%TO.C,H2*%
X237631246Y-39774262D03*
%TD*%
D16*
%TO.C,SW17*%
X169598384Y-71006657D03*
D17*
X168341423Y-67438388D03*
X171797677Y-63208220D03*
D18*
X174498920Y-68509709D03*
D17*
X177251489Y-62898483D03*
D16*
X179399456Y-66012761D03*
%TD*%
%TO.C,SW31*%
X233565500Y-73812700D03*
D17*
X232560511Y-70165442D03*
X236303427Y-66186675D03*
D18*
X238628277Y-71663679D03*
D17*
X241765560Y-66258131D03*
D16*
X243691054Y-69514658D03*
%TD*%
%TO.C,SW10*%
X92294112Y-85680643D03*
D17*
X94442079Y-82566365D03*
X99895891Y-82876102D03*
D18*
X97194648Y-88177591D03*
D17*
X103352145Y-87106270D03*
D16*
X102095184Y-90674539D03*
%TD*%
D15*
%TO.C,PAD1*%
X172461870Y-108822480D03*
X172461870Y-110822480D03*
X172461870Y-112822480D03*
%TD*%
D16*
%TO.C,SW22*%
X192437874Y-75081925D03*
D17*
X191180913Y-71513656D03*
X194637167Y-67283488D03*
D18*
X197338410Y-72584977D03*
D17*
X200090979Y-66973751D03*
D16*
X202238946Y-70088029D03*
%TD*%
%TO.C,SW18*%
X177543219Y-86599270D03*
D17*
X176286258Y-83031001D03*
X179742512Y-78800833D03*
D18*
X182443755Y-84102322D03*
D17*
X185196324Y-78491096D03*
D16*
X187344291Y-81605374D03*
%TD*%
%TO.C,SW21*%
X184493039Y-59489308D03*
D17*
X183236078Y-55921039D03*
X186692332Y-51690871D03*
D18*
X189393575Y-56992360D03*
D17*
X192146144Y-51381134D03*
D16*
X194294111Y-54495412D03*
%TD*%
%LPD*%
M02*
