%TF.GenerationSoftware,KiCad,Pcbnew,7.0.2*%
%TF.CreationDate,2023-05-29T21:35:39+02:00*%
%TF.ProjectId,Bolbol,426f6c62-6f6c-42e6-9b69-6361645f7063,rev?*%
%TF.SameCoordinates,Original*%
%TF.FileFunction,Soldermask,Bot*%
%TF.FilePolarity,Negative*%
%FSLAX46Y46*%
G04 Gerber Fmt 4.6, Leading zero omitted, Abs format (unit mm)*
G04 Created by KiCad (PCBNEW 7.0.2) date 2023-05-29 21:35:39*
%MOMM*%
%LPD*%
G01*
G04 APERTURE LIST*
G04 Aperture macros list*
%AMRoundRect*
0 Rectangle with rounded corners*
0 $1 Rounding radius*
0 $2 $3 $4 $5 $6 $7 $8 $9 X,Y pos of 4 corners*
0 Add a 4 corners polygon primitive as box body*
4,1,4,$2,$3,$4,$5,$6,$7,$8,$9,$2,$3,0*
0 Add four circle primitives for the rounded corners*
1,1,$1+$1,$2,$3*
1,1,$1+$1,$4,$5*
1,1,$1+$1,$6,$7*
1,1,$1+$1,$8,$9*
0 Add four rect primitives between the rounded corners*
20,1,$1+$1,$2,$3,$4,$5,0*
20,1,$1+$1,$4,$5,$6,$7,0*
20,1,$1+$1,$6,$7,$8,$9,0*
20,1,$1+$1,$8,$9,$2,$3,0*%
%AMRotRect*
0 Rectangle, with rotation*
0 The origin of the aperture is its center*
0 $1 length*
0 $2 width*
0 $3 Rotation angle, in degrees counterclockwise*
0 Add horizontal line*
21,1,$1,$2,0,0,$3*%
G04 Aperture macros list end*
%ADD10C,1.701800*%
%ADD11C,3.000000*%
%ADD12C,3.429000*%
%ADD13RotRect,2.600000X2.600000X333.000000*%
%ADD14C,4.500000*%
%ADD15RotRect,2.600000X2.600000X318.000000*%
%ADD16RotRect,2.600000X2.600000X23.000000*%
%ADD17RotRect,2.600000X2.600000X337.000000*%
%ADD18C,2.000000*%
%ADD19RotRect,2.600000X2.600000X17.000000*%
%ADD20RotRect,2.600000X2.600000X27.000000*%
%ADD21RotRect,2.600000X2.600000X42.000000*%
%ADD22RotRect,2.600000X2.600000X343.000000*%
%ADD23C,0.900000*%
%ADD24C,1.524000*%
%ADD25RoundRect,0.375000X0.750000X-0.375000X0.750000X0.375000X-0.750000X0.375000X-0.750000X-0.375000X0*%
%ADD26RoundRect,0.225000X0.257275X-0.353638X0.433104X0.060589X-0.257275X0.353638X-0.433104X-0.060589X0*%
%ADD27RoundRect,0.225000X0.231980X-0.370723X0.436275X0.030230X-0.231980X0.370723X-0.436275X-0.030230X0*%
%ADD28RoundRect,0.225000X0.292831X-0.324808X0.424398X0.105529X-0.292831X0.324808X-0.424398X-0.105529X0*%
%ADD29RoundRect,0.225000X0.436275X-0.030230X0.231980X0.370723X-0.436275X0.030230X-0.231980X-0.370723X0*%
%ADD30RoundRect,0.225000X0.424398X-0.105529X0.292831X0.324808X-0.424398X0.105529X-0.292831X-0.324808X0*%
%ADD31RoundRect,0.225000X0.433104X-0.060589X0.257275X0.353638X-0.433104X0.060589X-0.257275X-0.353638X0*%
%ADD32RoundRect,0.225000X0.429234X0.083716X0.128125X0.418132X-0.429234X-0.083716X-0.128125X-0.418132X0*%
%ADD33RoundRect,0.225000X0.128125X-0.418132X0.429234X-0.083716X-0.128125X0.418132X-0.429234X0.083716X0*%
G04 APERTURE END LIST*
D10*
%TO.C,SW9*%
X100238946Y-70088028D03*
D11*
X102386913Y-66973750D03*
X107840725Y-67283487D03*
D12*
X105139482Y-72584976D03*
D11*
X111296979Y-71513655D03*
D10*
X110040018Y-75081924D03*
D13*
X104922678Y-65796668D03*
X114215025Y-73000474D03*
%TD*%
D10*
%TO.C,SW35*%
X107188766Y-97197991D03*
D11*
X109336733Y-94083713D03*
X114790545Y-94393450D03*
D12*
X112089302Y-99694939D03*
D11*
X118246799Y-98623618D03*
D10*
X116989838Y-102191887D03*
D13*
X111872498Y-92906631D03*
X121164845Y-100110437D03*
%TD*%
D14*
%TO.C,H2*%
X122975646Y-113789862D03*
%TD*%
D10*
%TO.C,SW19*%
X112422531Y-121976233D03*
D11*
X115303343Y-119524006D03*
X120491155Y-121234739D03*
D12*
X116509828Y-125656451D03*
D11*
X122734791Y-126215312D03*
D10*
X120597125Y-129336669D03*
D15*
X118057355Y-119043336D03*
X125168591Y-128406714D03*
%TD*%
D10*
%TO.C,SW8*%
X108183779Y-54495415D03*
D11*
X110331746Y-51381137D03*
X115785558Y-51690874D03*
D12*
X113084315Y-56992363D03*
D11*
X119241812Y-55921042D03*
D10*
X117984851Y-59489311D03*
D13*
X112867511Y-50204055D03*
X122159858Y-57407861D03*
%TD*%
D10*
%TO.C,SW5*%
X94083607Y-41418805D03*
D11*
X96231574Y-38304527D03*
X101685386Y-38614264D03*
D12*
X98984143Y-43915753D03*
D11*
X105141640Y-42844432D03*
D10*
X103884679Y-46412701D03*
D13*
X98767339Y-37127445D03*
X108059686Y-44331251D03*
%TD*%
D14*
%TO.C,H2*%
X65673246Y-40002862D03*
%TD*%
D10*
%TO.C,SW29*%
X219889912Y-41595028D03*
D11*
X218884923Y-37947770D03*
X222627839Y-33969003D03*
D12*
X224952689Y-39446007D03*
D11*
X228089972Y-34040459D03*
D10*
X230015466Y-37296986D03*
D16*
X219613184Y-35248648D03*
X231104625Y-32760815D03*
%TD*%
D10*
%TO.C,SW13*%
X115133601Y-81605377D03*
D11*
X117281568Y-78491099D03*
X122735380Y-78800836D03*
D12*
X120034137Y-84102325D03*
D11*
X126191634Y-83031004D03*
D10*
X124934673Y-86599273D03*
D13*
X119817333Y-77314017D03*
X129109680Y-84517823D03*
%TD*%
D10*
%TO.C,SW12*%
X123078434Y-66012761D03*
D11*
X125226401Y-62898483D03*
X130680213Y-63208220D03*
D12*
X127978970Y-68509709D03*
D11*
X134136467Y-67438388D03*
D10*
X132879506Y-71006657D03*
D13*
X127762166Y-61721401D03*
X137054513Y-68925207D03*
%TD*%
D10*
%TO.C,SW6*%
X86138776Y-57011419D03*
D11*
X88286743Y-53897141D03*
X93740555Y-54206878D03*
D12*
X91039312Y-59508367D03*
D11*
X97196809Y-58437046D03*
D10*
X95939848Y-62005315D03*
D13*
X90822508Y-52720059D03*
X100114855Y-59923865D03*
%TD*%
D14*
%TO.C,H2*%
X248959646Y-71600462D03*
%TD*%
D10*
%TO.C,SW2*%
X72462425Y-37296988D03*
D11*
X74387919Y-34040461D03*
X79850052Y-33969005D03*
D12*
X77525202Y-39446009D03*
D11*
X83592968Y-37947772D03*
D10*
X82587979Y-41595030D03*
D17*
X76835398Y-32689360D03*
X86607621Y-39227417D03*
%TD*%
D18*
%TO.C,SW33*%
X160829868Y-120474480D03*
X167329868Y-120474480D03*
%TD*%
D10*
%TO.C,SW28*%
X249649817Y-62177004D03*
D11*
X249031576Y-58444677D03*
X253169881Y-54878947D03*
D12*
X254909493Y-60568960D03*
D11*
X258594623Y-55520960D03*
D10*
X260169169Y-58960916D03*
D19*
X250037982Y-55836464D03*
X261726521Y-54563442D03*
%TD*%
D10*
%TO.C,SW36*%
X185488053Y-102191887D03*
D11*
X184231092Y-98623618D03*
X187687346Y-94393450D03*
D12*
X190388589Y-99694939D03*
D11*
X193141158Y-94083713D03*
D10*
X195289125Y-97197991D03*
D20*
X184769298Y-95880270D03*
X196059204Y-92596894D03*
%TD*%
D10*
%TO.C,SW24*%
X198007782Y-116575802D03*
D11*
X196750821Y-113007533D03*
X200207075Y-108777365D03*
D12*
X202908318Y-114078854D03*
D11*
X205660887Y-108467628D03*
D10*
X207808854Y-111581906D03*
D20*
X197289027Y-110264185D03*
X208578933Y-106980809D03*
%TD*%
D10*
%TO.C,SW4*%
X58786838Y-69514658D03*
D11*
X60712332Y-66258131D03*
X66174465Y-66186675D03*
D12*
X63849615Y-71663679D03*
D11*
X69917381Y-70165442D03*
D10*
X68912392Y-73812700D03*
D17*
X63159811Y-64907030D03*
X72932034Y-71445087D03*
%TD*%
D10*
%TO.C,SW20*%
X181880766Y-129336668D03*
D11*
X179743100Y-126215311D03*
X181986736Y-121234738D03*
D12*
X185968063Y-125656450D03*
D11*
X187174548Y-119524005D03*
D10*
X190055360Y-121976232D03*
D21*
X179552936Y-123426142D03*
X189608347Y-117332602D03*
%TD*%
D10*
%TO.C,SW11*%
X47425226Y-42225581D03*
D11*
X48999772Y-38785625D03*
X54424514Y-38143612D03*
D12*
X52684902Y-43833625D03*
D11*
X58562819Y-41709342D03*
D10*
X57944578Y-45441669D03*
D22*
X51292615Y-37186094D03*
X61694717Y-42666859D03*
%TD*%
D10*
%TO.C,SW25*%
X198593211Y-46412702D03*
D11*
X197336250Y-42844433D03*
X200792504Y-38614265D03*
D12*
X203493747Y-43915754D03*
D11*
X206246316Y-38304528D03*
D10*
X208394283Y-41418806D03*
D20*
X197874456Y-40101085D03*
X209164362Y-36817709D03*
%TD*%
D23*
%TO.C,SW34*%
X149695046Y-120731462D03*
X152695046Y-120731462D03*
%TD*%
D10*
%TO.C,SW23*%
X200382708Y-90674540D03*
D11*
X199125747Y-87106271D03*
X202582001Y-82876103D03*
D12*
X205283244Y-88177592D03*
D11*
X208035813Y-82566366D03*
D10*
X210183780Y-85680644D03*
D20*
X199663953Y-84362923D03*
X210953859Y-81079547D03*
%TD*%
D14*
%TO.C,H2*%
X53709846Y-71549662D03*
%TD*%
D10*
%TO.C,SW3*%
X65624631Y-53405822D03*
D11*
X67550125Y-50149295D03*
X73012258Y-50077839D03*
D12*
X70687408Y-55554843D03*
D11*
X76755174Y-54056606D03*
D10*
X75750185Y-57703864D03*
D17*
X69997604Y-48798194D03*
X79769827Y-55336251D03*
%TD*%
D10*
%TO.C,SW30*%
X226727705Y-57703865D03*
D11*
X225722716Y-54056607D03*
X229465632Y-50077840D03*
D12*
X231790482Y-55554844D03*
D11*
X234927765Y-50149296D03*
D10*
X236853259Y-53405823D03*
D16*
X226450977Y-51357485D03*
X237942418Y-48869652D03*
%TD*%
D10*
%TO.C,SW27*%
X214482877Y-77597931D03*
D11*
X213225916Y-74029662D03*
X216682170Y-69799494D03*
D12*
X219383413Y-75100983D03*
D11*
X222135982Y-69489757D03*
D10*
X224283949Y-72604035D03*
D20*
X213764122Y-71286314D03*
X225054028Y-68002938D03*
%TD*%
D10*
%TO.C,SW14*%
X42308723Y-58960915D03*
D11*
X43883269Y-55520959D03*
X49308011Y-54878946D03*
D12*
X47568399Y-60568959D03*
D11*
X53446316Y-58444676D03*
D10*
X52828075Y-62177003D03*
D22*
X46176112Y-53921428D03*
X56578214Y-59402193D03*
%TD*%
D24*
%TO.C,U1*%
X159245269Y-72468479D03*
X159245269Y-75008479D03*
X159245269Y-77548479D03*
X159245269Y-80088479D03*
X159245269Y-82628479D03*
X159245269Y-85168479D03*
X159245269Y-87708479D03*
X159245269Y-90248479D03*
X159245269Y-92788479D03*
X159245269Y-95328479D03*
X159245269Y-97868479D03*
X159245269Y-100408479D03*
X144025269Y-100408479D03*
X144025269Y-97868479D03*
X144025269Y-95328479D03*
X144025269Y-92788479D03*
X144025269Y-90248479D03*
X144025269Y-87708479D03*
X144025269Y-85168479D03*
X144025269Y-82628479D03*
X144025269Y-80088479D03*
X144025269Y-77548479D03*
X144025269Y-75008479D03*
X144025269Y-72468479D03*
%TD*%
D10*
%TO.C,SW15*%
X94669036Y-111581903D03*
D11*
X96817003Y-108467625D03*
X102270815Y-108777362D03*
D12*
X99569572Y-114078851D03*
D11*
X105727069Y-113007530D03*
D10*
X104470108Y-116575799D03*
D13*
X99352768Y-107290543D03*
X108645115Y-114494349D03*
%TD*%
D14*
%TO.C,H2*%
X181929046Y-112088062D03*
%TD*%
D10*
%TO.C,SW26*%
X206538042Y-62005315D03*
D11*
X205281081Y-58437046D03*
X208737335Y-54206878D03*
D12*
X211438578Y-59508367D03*
D11*
X214191147Y-53897141D03*
D10*
X216339114Y-57011419D03*
D20*
X205819287Y-55693698D03*
X217109193Y-52410322D03*
%TD*%
D14*
%TO.C,*%
X165520646Y-76553462D03*
%TD*%
%TO.C,*%
X137987046Y-76553462D03*
%TD*%
D10*
%TO.C,SW32*%
X244533311Y-45441668D03*
D11*
X243915070Y-41709341D03*
X248053375Y-38143611D03*
D12*
X249792987Y-43833624D03*
D11*
X253478117Y-38785624D03*
D10*
X255052663Y-42225580D03*
D19*
X244921476Y-39101128D03*
X256610015Y-37828106D03*
%TD*%
D10*
%TO.C,SW7*%
X78193940Y-72604034D03*
D11*
X80341907Y-69489756D03*
X85795719Y-69799493D03*
D12*
X83094476Y-75100982D03*
D11*
X89251973Y-74029661D03*
D10*
X87995012Y-77597930D03*
D13*
X82877672Y-68312674D03*
X92170019Y-75516480D03*
%TD*%
D14*
%TO.C,H2*%
X237631246Y-39774262D03*
%TD*%
D10*
%TO.C,SW17*%
X169598384Y-71006657D03*
D11*
X168341423Y-67438388D03*
X171797677Y-63208220D03*
D12*
X174498920Y-68509709D03*
D11*
X177251489Y-62898483D03*
D10*
X179399456Y-66012761D03*
D20*
X168879629Y-64695040D03*
X180169535Y-61411664D03*
%TD*%
D10*
%TO.C,SW31*%
X233565500Y-73812700D03*
D11*
X232560511Y-70165442D03*
X236303427Y-66186675D03*
D12*
X238628277Y-71663679D03*
D11*
X241765560Y-66258131D03*
D10*
X243691054Y-69514658D03*
D16*
X233288772Y-67466320D03*
X244780213Y-64978487D03*
%TD*%
D10*
%TO.C,SW10*%
X92294112Y-85680643D03*
D11*
X94442079Y-82566365D03*
X99895891Y-82876102D03*
D12*
X97194648Y-88177591D03*
D11*
X103352145Y-87106270D03*
D10*
X102095184Y-90674539D03*
D13*
X96977844Y-81389283D03*
X106270191Y-88593089D03*
%TD*%
D25*
%TO.C,PAD1*%
X172461870Y-108822480D03*
X172461870Y-110822480D03*
X172461870Y-112822480D03*
%TD*%
D10*
%TO.C,SW22*%
X192437874Y-75081925D03*
D11*
X191180913Y-71513656D03*
X194637167Y-67283488D03*
D12*
X197338410Y-72584977D03*
D11*
X200090979Y-66973751D03*
D10*
X202238946Y-70088029D03*
D20*
X191719119Y-68770308D03*
X203009025Y-65486932D03*
%TD*%
D10*
%TO.C,SW18*%
X177543219Y-86599270D03*
D11*
X176286258Y-83031001D03*
X179742512Y-78800833D03*
D12*
X182443755Y-84102322D03*
D11*
X185196324Y-78491096D03*
D10*
X187344291Y-81605374D03*
D20*
X176824464Y-80287653D03*
X188114370Y-77004277D03*
%TD*%
D10*
%TO.C,SW21*%
X184493039Y-59489308D03*
D11*
X183236078Y-55921039D03*
X186692332Y-51690871D03*
D12*
X189393575Y-56992360D03*
D11*
X192146144Y-51381134D03*
D10*
X194294111Y-54495412D03*
D20*
X183774284Y-53177691D03*
X195064190Y-49894315D03*
%TD*%
D26*
%TO.C,D1*%
X84099810Y-47416774D03*
X85389222Y-44379108D03*
%TD*%
D27*
%TO.C,D6*%
X96644631Y-68043702D03*
X98142799Y-65103380D03*
%TD*%
D28*
%TO.C,D4*%
X59446304Y-51819245D03*
X60411130Y-48663439D03*
%TD*%
D29*
%TO.C,D22*%
X207566000Y-74038102D03*
X206067832Y-71097780D03*
%TD*%
%TO.C,D25*%
X214500201Y-45386904D03*
X213002033Y-42446582D03*
%TD*%
D30*
%TO.C,D32*%
X259166129Y-47958444D03*
X258201303Y-44802638D03*
%TD*%
D26*
%TO.C,D2*%
X76606810Y-63926773D03*
X77896222Y-60889107D03*
%TD*%
D29*
%TO.C,D24*%
X212937883Y-115564063D03*
X211439715Y-112623741D03*
%TD*%
D31*
%TO.C,D29*%
X234538022Y-42692375D03*
X233248610Y-39654709D03*
%TD*%
D27*
%TO.C,D15*%
X117040832Y-109521901D03*
X118539000Y-106581579D03*
%TD*%
%TO.C,D14*%
X124660833Y-94891502D03*
X126159001Y-91951180D03*
%TD*%
D29*
%TO.C,D19*%
X200809600Y-100454101D03*
X199311432Y-97513779D03*
%TD*%
%TO.C,D27*%
X230680000Y-77670302D03*
X229181832Y-74729980D03*
%TD*%
D27*
%TO.C,D13*%
X132153832Y-80007104D03*
X133652000Y-77066782D03*
%TD*%
D29*
%TO.C,D23*%
X216151200Y-90624301D03*
X214653032Y-87683979D03*
%TD*%
D31*
%TO.C,D30*%
X241675423Y-58668973D03*
X240386011Y-55631307D03*
%TD*%
D27*
%TO.C,D7*%
X88910548Y-83433064D03*
X90408716Y-80492742D03*
%TD*%
D30*
%TO.C,D28*%
X264601729Y-65560645D03*
X263636903Y-62404839D03*
%TD*%
D32*
%TO.C,D20*%
X195627383Y-123425729D03*
X193419251Y-120973351D03*
%TD*%
D27*
%TO.C,D9*%
X118488633Y-65706903D03*
X119986801Y-62766581D03*
%TD*%
D26*
%TO.C,D3*%
X70079011Y-79522376D03*
X71368423Y-76484710D03*
%TD*%
D33*
%TO.C,D16*%
X119188585Y-135446920D03*
X121396717Y-132994542D03*
%TD*%
D29*
%TO.C,D17*%
X185417201Y-70558301D03*
X183919033Y-67617979D03*
%TD*%
D28*
%TO.C,D8*%
X54417100Y-67592644D03*
X55381926Y-64436838D03*
%TD*%
D29*
%TO.C,D26*%
X221967800Y-61896902D03*
X220469632Y-58956580D03*
%TD*%
D27*
%TO.C,D10*%
X110208232Y-81683503D03*
X111706400Y-78743181D03*
%TD*%
%TO.C,D12*%
X104975831Y-123365903D03*
X106473999Y-120425581D03*
%TD*%
D29*
%TO.C,D21*%
X199882284Y-58668064D03*
X198384116Y-55727742D03*
%TD*%
%TO.C,D18*%
X193469002Y-86306301D03*
X191970834Y-83365979D03*
%TD*%
D27*
%TO.C,D5*%
X104010631Y-53337102D03*
X105508799Y-50396780D03*
%TD*%
D31*
%TO.C,D31*%
X247267552Y-77691295D03*
X245978140Y-74653629D03*
%TD*%
D27*
%TO.C,D11*%
X102549916Y-96697942D03*
X104048084Y-93757620D03*
%TD*%
M02*
