%TF.GenerationSoftware,KiCad,Pcbnew,7.0.2*%
%TF.CreationDate,2023-08-06T16:20:10+02:00*%
%TF.ProjectId,Wizza-xiao,57697a7a-612d-4786-9961-6f2e6b696361,rev?*%
%TF.SameCoordinates,Original*%
%TF.FileFunction,Legend,Bot*%
%TF.FilePolarity,Positive*%
%FSLAX46Y46*%
G04 Gerber Fmt 4.6, Leading zero omitted, Abs format (unit mm)*
G04 Created by KiCad (PCBNEW 7.0.2) date 2023-08-06 16:20:10*
%MOMM*%
%LPD*%
G01*
G04 APERTURE LIST*
G04 Aperture macros list*
%AMRoundRect*
0 Rectangle with rounded corners*
0 $1 Rounding radius*
0 $2 $3 $4 $5 $6 $7 $8 $9 X,Y pos of 4 corners*
0 Add a 4 corners polygon primitive as box body*
4,1,4,$2,$3,$4,$5,$6,$7,$8,$9,$2,$3,0*
0 Add four circle primitives for the rounded corners*
1,1,$1+$1,$2,$3*
1,1,$1+$1,$4,$5*
1,1,$1+$1,$6,$7*
1,1,$1+$1,$8,$9*
0 Add four rect primitives between the rounded corners*
20,1,$1+$1,$2,$3,$4,$5,0*
20,1,$1+$1,$4,$5,$6,$7,0*
20,1,$1+$1,$6,$7,$8,$9,0*
20,1,$1+$1,$8,$9,$2,$3,0*%
%AMRotRect*
0 Rectangle, with rotation*
0 The origin of the aperture is its center*
0 $1 length*
0 $2 width*
0 $3 Rotation angle, in degrees counterclockwise*
0 Add horizontal line*
21,1,$1,$2,0,0,$3*%
G04 Aperture macros list end*
%ADD10C,0.150000*%
%ADD11C,0.120000*%
%ADD12RoundRect,0.375000X0.375000X0.750000X-0.375000X0.750000X-0.375000X-0.750000X0.375000X-0.750000X0*%
%ADD13RoundRect,0.375000X-0.375000X-0.750000X0.375000X-0.750000X0.375000X0.750000X-0.375000X0.750000X0*%
%ADD14C,2.000000*%
%ADD15C,4.500000*%
%ADD16C,1.701800*%
%ADD17C,3.000000*%
%ADD18C,3.987800*%
%ADD19C,5.000000*%
%ADD20R,2.600000X2.600000*%
%ADD21R,2.550000X2.500000*%
%ADD22RotRect,2.600000X2.600000X8.000000*%
%ADD23RotRect,2.550000X2.500000X188.000000*%
%ADD24RotRect,2.600000X2.600000X175.000000*%
%ADD25RotRect,2.550000X2.500000X355.000000*%
%ADD26RotRect,2.600000X2.600000X14.000000*%
%ADD27RotRect,2.550000X2.500000X194.000000*%
%ADD28O,2.750000X1.800000*%
%ADD29C,1.397000*%
%ADD30RotRect,2.600000X2.600000X166.000000*%
%ADD31RotRect,2.550000X2.500000X346.000000*%
%ADD32RotRect,2.600000X2.600000X194.000000*%
%ADD33RotRect,2.550000X2.500000X14.000000*%
%ADD34RotRect,2.600000X2.600000X352.000000*%
%ADD35RotRect,2.550000X2.500000X172.000000*%
%ADD36RotRect,2.600000X2.600000X188.000000*%
%ADD37RotRect,2.550000X2.500000X8.000000*%
%ADD38RotRect,2.600000X2.600000X5.000000*%
%ADD39RotRect,2.550000X2.500000X185.000000*%
%ADD40C,0.500000*%
%ADD41C,0.800000*%
%ADD42O,2.000000X1.600000*%
%ADD43RotRect,2.600000X2.600000X172.000000*%
%ADD44RotRect,2.550000X2.500000X352.000000*%
%ADD45RotRect,2.600000X2.600000X355.000000*%
%ADD46RotRect,2.550000X2.500000X175.000000*%
%ADD47R,3.200000X2.000000*%
%ADD48RoundRect,0.225000X0.375000X-0.225000X0.375000X0.225000X-0.375000X0.225000X-0.375000X-0.225000X0*%
%ADD49RoundRect,0.225000X-0.375000X0.225000X-0.375000X-0.225000X0.375000X-0.225000X0.375000X0.225000X0*%
%ADD50O,3.500000X2.200000*%
%ADD51R,2.500000X1.500000*%
%ADD52O,2.500000X1.500000*%
%ADD53R,1.000000X0.700000*%
%ADD54R,0.600000X0.700000*%
G04 APERTURE END LIST*
D10*
%TO.C,J3*%
X47510895Y-95382247D02*
X47396609Y-95420342D01*
X47396609Y-95420342D02*
X47358514Y-95458438D01*
X47358514Y-95458438D02*
X47320418Y-95534628D01*
X47320418Y-95534628D02*
X47320418Y-95648914D01*
X47320418Y-95648914D02*
X47358514Y-95725104D01*
X47358514Y-95725104D02*
X47396609Y-95763200D01*
X47396609Y-95763200D02*
X47472799Y-95801295D01*
X47472799Y-95801295D02*
X47777561Y-95801295D01*
X47777561Y-95801295D02*
X47777561Y-95001295D01*
X47777561Y-95001295D02*
X47510895Y-95001295D01*
X47510895Y-95001295D02*
X47434704Y-95039390D01*
X47434704Y-95039390D02*
X47396609Y-95077485D01*
X47396609Y-95077485D02*
X47358514Y-95153676D01*
X47358514Y-95153676D02*
X47358514Y-95229866D01*
X47358514Y-95229866D02*
X47396609Y-95306057D01*
X47396609Y-95306057D02*
X47434704Y-95344152D01*
X47434704Y-95344152D02*
X47510895Y-95382247D01*
X47510895Y-95382247D02*
X47777561Y-95382247D01*
X46977561Y-95496533D02*
X46368038Y-95496533D01*
X49510895Y-95382247D02*
X49396609Y-95420342D01*
X49396609Y-95420342D02*
X49358514Y-95458438D01*
X49358514Y-95458438D02*
X49320418Y-95534628D01*
X49320418Y-95534628D02*
X49320418Y-95648914D01*
X49320418Y-95648914D02*
X49358514Y-95725104D01*
X49358514Y-95725104D02*
X49396609Y-95763200D01*
X49396609Y-95763200D02*
X49472799Y-95801295D01*
X49472799Y-95801295D02*
X49777561Y-95801295D01*
X49777561Y-95801295D02*
X49777561Y-95001295D01*
X49777561Y-95001295D02*
X49510895Y-95001295D01*
X49510895Y-95001295D02*
X49434704Y-95039390D01*
X49434704Y-95039390D02*
X49396609Y-95077485D01*
X49396609Y-95077485D02*
X49358514Y-95153676D01*
X49358514Y-95153676D02*
X49358514Y-95229866D01*
X49358514Y-95229866D02*
X49396609Y-95306057D01*
X49396609Y-95306057D02*
X49434704Y-95344152D01*
X49434704Y-95344152D02*
X49510895Y-95382247D01*
X49510895Y-95382247D02*
X49777561Y-95382247D01*
X48977561Y-95496533D02*
X48368038Y-95496533D01*
X48672799Y-95801295D02*
X48672799Y-95191771D01*
X45510895Y-95382247D02*
X45396609Y-95420342D01*
X45396609Y-95420342D02*
X45358514Y-95458438D01*
X45358514Y-95458438D02*
X45320418Y-95534628D01*
X45320418Y-95534628D02*
X45320418Y-95648914D01*
X45320418Y-95648914D02*
X45358514Y-95725104D01*
X45358514Y-95725104D02*
X45396609Y-95763200D01*
X45396609Y-95763200D02*
X45472799Y-95801295D01*
X45472799Y-95801295D02*
X45777561Y-95801295D01*
X45777561Y-95801295D02*
X45777561Y-95001295D01*
X45777561Y-95001295D02*
X45510895Y-95001295D01*
X45510895Y-95001295D02*
X45434704Y-95039390D01*
X45434704Y-95039390D02*
X45396609Y-95077485D01*
X45396609Y-95077485D02*
X45358514Y-95153676D01*
X45358514Y-95153676D02*
X45358514Y-95229866D01*
X45358514Y-95229866D02*
X45396609Y-95306057D01*
X45396609Y-95306057D02*
X45434704Y-95344152D01*
X45434704Y-95344152D02*
X45510895Y-95382247D01*
X45510895Y-95382247D02*
X45777561Y-95382247D01*
X44977561Y-95496533D02*
X44368038Y-95496533D01*
X44672799Y-95801295D02*
X44672799Y-95191771D01*
%TO.C,J2*%
X132452704Y-40156619D02*
X131881276Y-40156619D01*
X132166990Y-41156619D02*
X132166990Y-40156619D01*
X130976514Y-41156619D02*
X131309847Y-40680428D01*
X131547942Y-41156619D02*
X131547942Y-40156619D01*
X131547942Y-40156619D02*
X131166990Y-40156619D01*
X131166990Y-40156619D02*
X131071752Y-40204238D01*
X131071752Y-40204238D02*
X131024133Y-40251857D01*
X131024133Y-40251857D02*
X130976514Y-40347095D01*
X130976514Y-40347095D02*
X130976514Y-40489952D01*
X130976514Y-40489952D02*
X131024133Y-40585190D01*
X131024133Y-40585190D02*
X131071752Y-40632809D01*
X131071752Y-40632809D02*
X131166990Y-40680428D01*
X131166990Y-40680428D02*
X131547942Y-40680428D01*
X129976514Y-41156619D02*
X130309847Y-40680428D01*
X130547942Y-41156619D02*
X130547942Y-40156619D01*
X130547942Y-40156619D02*
X130166990Y-40156619D01*
X130166990Y-40156619D02*
X130071752Y-40204238D01*
X130071752Y-40204238D02*
X130024133Y-40251857D01*
X130024133Y-40251857D02*
X129976514Y-40347095D01*
X129976514Y-40347095D02*
X129976514Y-40489952D01*
X129976514Y-40489952D02*
X130024133Y-40585190D01*
X130024133Y-40585190D02*
X130071752Y-40632809D01*
X130071752Y-40632809D02*
X130166990Y-40680428D01*
X130166990Y-40680428D02*
X130547942Y-40680428D01*
X129595561Y-41109000D02*
X129452704Y-41156619D01*
X129452704Y-41156619D02*
X129214609Y-41156619D01*
X129214609Y-41156619D02*
X129119371Y-41109000D01*
X129119371Y-41109000D02*
X129071752Y-41061380D01*
X129071752Y-41061380D02*
X129024133Y-40966142D01*
X129024133Y-40966142D02*
X129024133Y-40870904D01*
X129024133Y-40870904D02*
X129071752Y-40775666D01*
X129071752Y-40775666D02*
X129119371Y-40728047D01*
X129119371Y-40728047D02*
X129214609Y-40680428D01*
X129214609Y-40680428D02*
X129405085Y-40632809D01*
X129405085Y-40632809D02*
X129500323Y-40585190D01*
X129500323Y-40585190D02*
X129547942Y-40537571D01*
X129547942Y-40537571D02*
X129595561Y-40442333D01*
X129595561Y-40442333D02*
X129595561Y-40347095D01*
X129595561Y-40347095D02*
X129547942Y-40251857D01*
X129547942Y-40251857D02*
X129500323Y-40204238D01*
X129500323Y-40204238D02*
X129405085Y-40156619D01*
X129405085Y-40156619D02*
X129166990Y-40156619D01*
X129166990Y-40156619D02*
X129024133Y-40204238D01*
%TO.C,J1*%
X149767804Y-40048619D02*
X149196376Y-40048619D01*
X149482090Y-41048619D02*
X149482090Y-40048619D01*
X148291614Y-41048619D02*
X148624947Y-40572428D01*
X148863042Y-41048619D02*
X148863042Y-40048619D01*
X148863042Y-40048619D02*
X148482090Y-40048619D01*
X148482090Y-40048619D02*
X148386852Y-40096238D01*
X148386852Y-40096238D02*
X148339233Y-40143857D01*
X148339233Y-40143857D02*
X148291614Y-40239095D01*
X148291614Y-40239095D02*
X148291614Y-40381952D01*
X148291614Y-40381952D02*
X148339233Y-40477190D01*
X148339233Y-40477190D02*
X148386852Y-40524809D01*
X148386852Y-40524809D02*
X148482090Y-40572428D01*
X148482090Y-40572428D02*
X148863042Y-40572428D01*
X147291614Y-41048619D02*
X147624947Y-40572428D01*
X147863042Y-41048619D02*
X147863042Y-40048619D01*
X147863042Y-40048619D02*
X147482090Y-40048619D01*
X147482090Y-40048619D02*
X147386852Y-40096238D01*
X147386852Y-40096238D02*
X147339233Y-40143857D01*
X147339233Y-40143857D02*
X147291614Y-40239095D01*
X147291614Y-40239095D02*
X147291614Y-40381952D01*
X147291614Y-40381952D02*
X147339233Y-40477190D01*
X147339233Y-40477190D02*
X147386852Y-40524809D01*
X147386852Y-40524809D02*
X147482090Y-40572428D01*
X147482090Y-40572428D02*
X147863042Y-40572428D01*
X146910661Y-41001000D02*
X146767804Y-41048619D01*
X146767804Y-41048619D02*
X146529709Y-41048619D01*
X146529709Y-41048619D02*
X146434471Y-41001000D01*
X146434471Y-41001000D02*
X146386852Y-40953380D01*
X146386852Y-40953380D02*
X146339233Y-40858142D01*
X146339233Y-40858142D02*
X146339233Y-40762904D01*
X146339233Y-40762904D02*
X146386852Y-40667666D01*
X146386852Y-40667666D02*
X146434471Y-40620047D01*
X146434471Y-40620047D02*
X146529709Y-40572428D01*
X146529709Y-40572428D02*
X146720185Y-40524809D01*
X146720185Y-40524809D02*
X146815423Y-40477190D01*
X146815423Y-40477190D02*
X146863042Y-40429571D01*
X146863042Y-40429571D02*
X146910661Y-40334333D01*
X146910661Y-40334333D02*
X146910661Y-40239095D01*
X146910661Y-40239095D02*
X146863042Y-40143857D01*
X146863042Y-40143857D02*
X146815423Y-40096238D01*
X146815423Y-40096238D02*
X146720185Y-40048619D01*
X146720185Y-40048619D02*
X146482090Y-40048619D01*
X146482090Y-40048619D02*
X146339233Y-40096238D01*
%TO.C,J4*%
X234151295Y-98982247D02*
X234037009Y-99020342D01*
X234037009Y-99020342D02*
X233998914Y-99058438D01*
X233998914Y-99058438D02*
X233960818Y-99134628D01*
X233960818Y-99134628D02*
X233960818Y-99248914D01*
X233960818Y-99248914D02*
X233998914Y-99325104D01*
X233998914Y-99325104D02*
X234037009Y-99363200D01*
X234037009Y-99363200D02*
X234113199Y-99401295D01*
X234113199Y-99401295D02*
X234417961Y-99401295D01*
X234417961Y-99401295D02*
X234417961Y-98601295D01*
X234417961Y-98601295D02*
X234151295Y-98601295D01*
X234151295Y-98601295D02*
X234075104Y-98639390D01*
X234075104Y-98639390D02*
X234037009Y-98677485D01*
X234037009Y-98677485D02*
X233998914Y-98753676D01*
X233998914Y-98753676D02*
X233998914Y-98829866D01*
X233998914Y-98829866D02*
X234037009Y-98906057D01*
X234037009Y-98906057D02*
X234075104Y-98944152D01*
X234075104Y-98944152D02*
X234151295Y-98982247D01*
X234151295Y-98982247D02*
X234417961Y-98982247D01*
X233617961Y-99096533D02*
X233008438Y-99096533D01*
X233313199Y-99401295D02*
X233313199Y-98791771D01*
X230151295Y-98982247D02*
X230037009Y-99020342D01*
X230037009Y-99020342D02*
X229998914Y-99058438D01*
X229998914Y-99058438D02*
X229960818Y-99134628D01*
X229960818Y-99134628D02*
X229960818Y-99248914D01*
X229960818Y-99248914D02*
X229998914Y-99325104D01*
X229998914Y-99325104D02*
X230037009Y-99363200D01*
X230037009Y-99363200D02*
X230113199Y-99401295D01*
X230113199Y-99401295D02*
X230417961Y-99401295D01*
X230417961Y-99401295D02*
X230417961Y-98601295D01*
X230417961Y-98601295D02*
X230151295Y-98601295D01*
X230151295Y-98601295D02*
X230075104Y-98639390D01*
X230075104Y-98639390D02*
X230037009Y-98677485D01*
X230037009Y-98677485D02*
X229998914Y-98753676D01*
X229998914Y-98753676D02*
X229998914Y-98829866D01*
X229998914Y-98829866D02*
X230037009Y-98906057D01*
X230037009Y-98906057D02*
X230075104Y-98944152D01*
X230075104Y-98944152D02*
X230151295Y-98982247D01*
X230151295Y-98982247D02*
X230417961Y-98982247D01*
X229617961Y-99096533D02*
X229008438Y-99096533D01*
X229313199Y-99401295D02*
X229313199Y-98791771D01*
X232151295Y-98982247D02*
X232037009Y-99020342D01*
X232037009Y-99020342D02*
X231998914Y-99058438D01*
X231998914Y-99058438D02*
X231960818Y-99134628D01*
X231960818Y-99134628D02*
X231960818Y-99248914D01*
X231960818Y-99248914D02*
X231998914Y-99325104D01*
X231998914Y-99325104D02*
X232037009Y-99363200D01*
X232037009Y-99363200D02*
X232113199Y-99401295D01*
X232113199Y-99401295D02*
X232417961Y-99401295D01*
X232417961Y-99401295D02*
X232417961Y-98601295D01*
X232417961Y-98601295D02*
X232151295Y-98601295D01*
X232151295Y-98601295D02*
X232075104Y-98639390D01*
X232075104Y-98639390D02*
X232037009Y-98677485D01*
X232037009Y-98677485D02*
X231998914Y-98753676D01*
X231998914Y-98753676D02*
X231998914Y-98829866D01*
X231998914Y-98829866D02*
X232037009Y-98906057D01*
X232037009Y-98906057D02*
X232075104Y-98944152D01*
X232075104Y-98944152D02*
X232151295Y-98982247D01*
X232151295Y-98982247D02*
X232417961Y-98982247D01*
X231617961Y-99096533D02*
X231008438Y-99096533D01*
%TO.C,D4*%
X136015819Y-69722505D02*
X135015819Y-69722505D01*
X135015819Y-69722505D02*
X135015819Y-69960600D01*
X135015819Y-69960600D02*
X135063438Y-70103457D01*
X135063438Y-70103457D02*
X135158676Y-70198695D01*
X135158676Y-70198695D02*
X135253914Y-70246314D01*
X135253914Y-70246314D02*
X135444390Y-70293933D01*
X135444390Y-70293933D02*
X135587247Y-70293933D01*
X135587247Y-70293933D02*
X135777723Y-70246314D01*
X135777723Y-70246314D02*
X135872961Y-70198695D01*
X135872961Y-70198695D02*
X135968200Y-70103457D01*
X135968200Y-70103457D02*
X136015819Y-69960600D01*
X136015819Y-69960600D02*
X136015819Y-69722505D01*
X135349152Y-71151076D02*
X136015819Y-71151076D01*
X134968200Y-70912981D02*
X135682485Y-70674886D01*
X135682485Y-70674886D02*
X135682485Y-71293933D01*
%TO.C,D18*%
X47433819Y-88371514D02*
X46433819Y-88371514D01*
X46433819Y-88371514D02*
X46433819Y-88609609D01*
X46433819Y-88609609D02*
X46481438Y-88752466D01*
X46481438Y-88752466D02*
X46576676Y-88847704D01*
X46576676Y-88847704D02*
X46671914Y-88895323D01*
X46671914Y-88895323D02*
X46862390Y-88942942D01*
X46862390Y-88942942D02*
X47005247Y-88942942D01*
X47005247Y-88942942D02*
X47195723Y-88895323D01*
X47195723Y-88895323D02*
X47290961Y-88847704D01*
X47290961Y-88847704D02*
X47386200Y-88752466D01*
X47386200Y-88752466D02*
X47433819Y-88609609D01*
X47433819Y-88609609D02*
X47433819Y-88371514D01*
X47433819Y-89895323D02*
X47433819Y-89323895D01*
X47433819Y-89609609D02*
X46433819Y-89609609D01*
X46433819Y-89609609D02*
X46576676Y-89514371D01*
X46576676Y-89514371D02*
X46671914Y-89419133D01*
X46671914Y-89419133D02*
X46719533Y-89323895D01*
X46862390Y-90466752D02*
X46814771Y-90371514D01*
X46814771Y-90371514D02*
X46767152Y-90323895D01*
X46767152Y-90323895D02*
X46671914Y-90276276D01*
X46671914Y-90276276D02*
X46624295Y-90276276D01*
X46624295Y-90276276D02*
X46529057Y-90323895D01*
X46529057Y-90323895D02*
X46481438Y-90371514D01*
X46481438Y-90371514D02*
X46433819Y-90466752D01*
X46433819Y-90466752D02*
X46433819Y-90657228D01*
X46433819Y-90657228D02*
X46481438Y-90752466D01*
X46481438Y-90752466D02*
X46529057Y-90800085D01*
X46529057Y-90800085D02*
X46624295Y-90847704D01*
X46624295Y-90847704D02*
X46671914Y-90847704D01*
X46671914Y-90847704D02*
X46767152Y-90800085D01*
X46767152Y-90800085D02*
X46814771Y-90752466D01*
X46814771Y-90752466D02*
X46862390Y-90657228D01*
X46862390Y-90657228D02*
X46862390Y-90466752D01*
X46862390Y-90466752D02*
X46910009Y-90371514D01*
X46910009Y-90371514D02*
X46957628Y-90323895D01*
X46957628Y-90323895D02*
X47052866Y-90276276D01*
X47052866Y-90276276D02*
X47243342Y-90276276D01*
X47243342Y-90276276D02*
X47338580Y-90323895D01*
X47338580Y-90323895D02*
X47386200Y-90371514D01*
X47386200Y-90371514D02*
X47433819Y-90466752D01*
X47433819Y-90466752D02*
X47433819Y-90657228D01*
X47433819Y-90657228D02*
X47386200Y-90752466D01*
X47386200Y-90752466D02*
X47338580Y-90800085D01*
X47338580Y-90800085D02*
X47243342Y-90847704D01*
X47243342Y-90847704D02*
X47052866Y-90847704D01*
X47052866Y-90847704D02*
X46957628Y-90800085D01*
X46957628Y-90800085D02*
X46910009Y-90752466D01*
X46910009Y-90752466D02*
X46862390Y-90657228D01*
%TO.C,D3*%
X135482419Y-53542705D02*
X134482419Y-53542705D01*
X134482419Y-53542705D02*
X134482419Y-53780800D01*
X134482419Y-53780800D02*
X134530038Y-53923657D01*
X134530038Y-53923657D02*
X134625276Y-54018895D01*
X134625276Y-54018895D02*
X134720514Y-54066514D01*
X134720514Y-54066514D02*
X134910990Y-54114133D01*
X134910990Y-54114133D02*
X135053847Y-54114133D01*
X135053847Y-54114133D02*
X135244323Y-54066514D01*
X135244323Y-54066514D02*
X135339561Y-54018895D01*
X135339561Y-54018895D02*
X135434800Y-53923657D01*
X135434800Y-53923657D02*
X135482419Y-53780800D01*
X135482419Y-53780800D02*
X135482419Y-53542705D01*
X134482419Y-54447467D02*
X134482419Y-55066514D01*
X134482419Y-55066514D02*
X134863371Y-54733181D01*
X134863371Y-54733181D02*
X134863371Y-54876038D01*
X134863371Y-54876038D02*
X134910990Y-54971276D01*
X134910990Y-54971276D02*
X134958609Y-55018895D01*
X134958609Y-55018895D02*
X135053847Y-55066514D01*
X135053847Y-55066514D02*
X135291942Y-55066514D01*
X135291942Y-55066514D02*
X135387180Y-55018895D01*
X135387180Y-55018895D02*
X135434800Y-54971276D01*
X135434800Y-54971276D02*
X135482419Y-54876038D01*
X135482419Y-54876038D02*
X135482419Y-54590324D01*
X135482419Y-54590324D02*
X135434800Y-54495086D01*
X135434800Y-54495086D02*
X135387180Y-54447467D01*
%TO.C,D22*%
X180618219Y-60635714D02*
X179618219Y-60635714D01*
X179618219Y-60635714D02*
X179618219Y-60873809D01*
X179618219Y-60873809D02*
X179665838Y-61016666D01*
X179665838Y-61016666D02*
X179761076Y-61111904D01*
X179761076Y-61111904D02*
X179856314Y-61159523D01*
X179856314Y-61159523D02*
X180046790Y-61207142D01*
X180046790Y-61207142D02*
X180189647Y-61207142D01*
X180189647Y-61207142D02*
X180380123Y-61159523D01*
X180380123Y-61159523D02*
X180475361Y-61111904D01*
X180475361Y-61111904D02*
X180570600Y-61016666D01*
X180570600Y-61016666D02*
X180618219Y-60873809D01*
X180618219Y-60873809D02*
X180618219Y-60635714D01*
X179713457Y-61588095D02*
X179665838Y-61635714D01*
X179665838Y-61635714D02*
X179618219Y-61730952D01*
X179618219Y-61730952D02*
X179618219Y-61969047D01*
X179618219Y-61969047D02*
X179665838Y-62064285D01*
X179665838Y-62064285D02*
X179713457Y-62111904D01*
X179713457Y-62111904D02*
X179808695Y-62159523D01*
X179808695Y-62159523D02*
X179903933Y-62159523D01*
X179903933Y-62159523D02*
X180046790Y-62111904D01*
X180046790Y-62111904D02*
X180618219Y-61540476D01*
X180618219Y-61540476D02*
X180618219Y-62159523D01*
X179713457Y-62540476D02*
X179665838Y-62588095D01*
X179665838Y-62588095D02*
X179618219Y-62683333D01*
X179618219Y-62683333D02*
X179618219Y-62921428D01*
X179618219Y-62921428D02*
X179665838Y-63016666D01*
X179665838Y-63016666D02*
X179713457Y-63064285D01*
X179713457Y-63064285D02*
X179808695Y-63111904D01*
X179808695Y-63111904D02*
X179903933Y-63111904D01*
X179903933Y-63111904D02*
X180046790Y-63064285D01*
X180046790Y-63064285D02*
X180618219Y-62492857D01*
X180618219Y-62492857D02*
X180618219Y-63111904D01*
%TO.C,D40*%
X116534019Y-76839914D02*
X115534019Y-76839914D01*
X115534019Y-76839914D02*
X115534019Y-77078009D01*
X115534019Y-77078009D02*
X115581638Y-77220866D01*
X115581638Y-77220866D02*
X115676876Y-77316104D01*
X115676876Y-77316104D02*
X115772114Y-77363723D01*
X115772114Y-77363723D02*
X115962590Y-77411342D01*
X115962590Y-77411342D02*
X116105447Y-77411342D01*
X116105447Y-77411342D02*
X116295923Y-77363723D01*
X116295923Y-77363723D02*
X116391161Y-77316104D01*
X116391161Y-77316104D02*
X116486400Y-77220866D01*
X116486400Y-77220866D02*
X116534019Y-77078009D01*
X116534019Y-77078009D02*
X116534019Y-76839914D01*
X115867352Y-78268485D02*
X116534019Y-78268485D01*
X115486400Y-78030390D02*
X116200685Y-77792295D01*
X116200685Y-77792295D02*
X116200685Y-78411342D01*
X115534019Y-78982771D02*
X115534019Y-79078009D01*
X115534019Y-79078009D02*
X115581638Y-79173247D01*
X115581638Y-79173247D02*
X115629257Y-79220866D01*
X115629257Y-79220866D02*
X115724495Y-79268485D01*
X115724495Y-79268485D02*
X115914971Y-79316104D01*
X115914971Y-79316104D02*
X116153066Y-79316104D01*
X116153066Y-79316104D02*
X116343542Y-79268485D01*
X116343542Y-79268485D02*
X116438780Y-79220866D01*
X116438780Y-79220866D02*
X116486400Y-79173247D01*
X116486400Y-79173247D02*
X116534019Y-79078009D01*
X116534019Y-79078009D02*
X116534019Y-78982771D01*
X116534019Y-78982771D02*
X116486400Y-78887533D01*
X116486400Y-78887533D02*
X116438780Y-78839914D01*
X116438780Y-78839914D02*
X116343542Y-78792295D01*
X116343542Y-78792295D02*
X116153066Y-78744676D01*
X116153066Y-78744676D02*
X115914971Y-78744676D01*
X115914971Y-78744676D02*
X115724495Y-78792295D01*
X115724495Y-78792295D02*
X115629257Y-78839914D01*
X115629257Y-78839914D02*
X115581638Y-78887533D01*
X115581638Y-78887533D02*
X115534019Y-78982771D01*
%TO.C,D41*%
X104062619Y-94772314D02*
X103062619Y-94772314D01*
X103062619Y-94772314D02*
X103062619Y-95010409D01*
X103062619Y-95010409D02*
X103110238Y-95153266D01*
X103110238Y-95153266D02*
X103205476Y-95248504D01*
X103205476Y-95248504D02*
X103300714Y-95296123D01*
X103300714Y-95296123D02*
X103491190Y-95343742D01*
X103491190Y-95343742D02*
X103634047Y-95343742D01*
X103634047Y-95343742D02*
X103824523Y-95296123D01*
X103824523Y-95296123D02*
X103919761Y-95248504D01*
X103919761Y-95248504D02*
X104015000Y-95153266D01*
X104015000Y-95153266D02*
X104062619Y-95010409D01*
X104062619Y-95010409D02*
X104062619Y-94772314D01*
X103395952Y-96200885D02*
X104062619Y-96200885D01*
X103015000Y-95962790D02*
X103729285Y-95724695D01*
X103729285Y-95724695D02*
X103729285Y-96343742D01*
X104062619Y-97248504D02*
X104062619Y-96677076D01*
X104062619Y-96962790D02*
X103062619Y-96962790D01*
X103062619Y-96962790D02*
X103205476Y-96867552D01*
X103205476Y-96867552D02*
X103300714Y-96772314D01*
X103300714Y-96772314D02*
X103348333Y-96677076D01*
%TO.C,D19*%
X63232619Y-71454114D02*
X62232619Y-71454114D01*
X62232619Y-71454114D02*
X62232619Y-71692209D01*
X62232619Y-71692209D02*
X62280238Y-71835066D01*
X62280238Y-71835066D02*
X62375476Y-71930304D01*
X62375476Y-71930304D02*
X62470714Y-71977923D01*
X62470714Y-71977923D02*
X62661190Y-72025542D01*
X62661190Y-72025542D02*
X62804047Y-72025542D01*
X62804047Y-72025542D02*
X62994523Y-71977923D01*
X62994523Y-71977923D02*
X63089761Y-71930304D01*
X63089761Y-71930304D02*
X63185000Y-71835066D01*
X63185000Y-71835066D02*
X63232619Y-71692209D01*
X63232619Y-71692209D02*
X63232619Y-71454114D01*
X63232619Y-72977923D02*
X63232619Y-72406495D01*
X63232619Y-72692209D02*
X62232619Y-72692209D01*
X62232619Y-72692209D02*
X62375476Y-72596971D01*
X62375476Y-72596971D02*
X62470714Y-72501733D01*
X62470714Y-72501733D02*
X62518333Y-72406495D01*
X63232619Y-73454114D02*
X63232619Y-73644590D01*
X63232619Y-73644590D02*
X63185000Y-73739828D01*
X63185000Y-73739828D02*
X63137380Y-73787447D01*
X63137380Y-73787447D02*
X62994523Y-73882685D01*
X62994523Y-73882685D02*
X62804047Y-73930304D01*
X62804047Y-73930304D02*
X62423095Y-73930304D01*
X62423095Y-73930304D02*
X62327857Y-73882685D01*
X62327857Y-73882685D02*
X62280238Y-73835066D01*
X62280238Y-73835066D02*
X62232619Y-73739828D01*
X62232619Y-73739828D02*
X62232619Y-73549352D01*
X62232619Y-73549352D02*
X62280238Y-73454114D01*
X62280238Y-73454114D02*
X62327857Y-73406495D01*
X62327857Y-73406495D02*
X62423095Y-73358876D01*
X62423095Y-73358876D02*
X62661190Y-73358876D01*
X62661190Y-73358876D02*
X62756428Y-73406495D01*
X62756428Y-73406495D02*
X62804047Y-73454114D01*
X62804047Y-73454114D02*
X62851666Y-73549352D01*
X62851666Y-73549352D02*
X62851666Y-73739828D01*
X62851666Y-73739828D02*
X62804047Y-73835066D01*
X62804047Y-73835066D02*
X62756428Y-73882685D01*
X62756428Y-73882685D02*
X62661190Y-73930304D01*
%TO.C,D39*%
X101624219Y-74528514D02*
X100624219Y-74528514D01*
X100624219Y-74528514D02*
X100624219Y-74766609D01*
X100624219Y-74766609D02*
X100671838Y-74909466D01*
X100671838Y-74909466D02*
X100767076Y-75004704D01*
X100767076Y-75004704D02*
X100862314Y-75052323D01*
X100862314Y-75052323D02*
X101052790Y-75099942D01*
X101052790Y-75099942D02*
X101195647Y-75099942D01*
X101195647Y-75099942D02*
X101386123Y-75052323D01*
X101386123Y-75052323D02*
X101481361Y-75004704D01*
X101481361Y-75004704D02*
X101576600Y-74909466D01*
X101576600Y-74909466D02*
X101624219Y-74766609D01*
X101624219Y-74766609D02*
X101624219Y-74528514D01*
X100624219Y-75433276D02*
X100624219Y-76052323D01*
X100624219Y-76052323D02*
X101005171Y-75718990D01*
X101005171Y-75718990D02*
X101005171Y-75861847D01*
X101005171Y-75861847D02*
X101052790Y-75957085D01*
X101052790Y-75957085D02*
X101100409Y-76004704D01*
X101100409Y-76004704D02*
X101195647Y-76052323D01*
X101195647Y-76052323D02*
X101433742Y-76052323D01*
X101433742Y-76052323D02*
X101528980Y-76004704D01*
X101528980Y-76004704D02*
X101576600Y-75957085D01*
X101576600Y-75957085D02*
X101624219Y-75861847D01*
X101624219Y-75861847D02*
X101624219Y-75576133D01*
X101624219Y-75576133D02*
X101576600Y-75480895D01*
X101576600Y-75480895D02*
X101528980Y-75433276D01*
X101624219Y-76528514D02*
X101624219Y-76718990D01*
X101624219Y-76718990D02*
X101576600Y-76814228D01*
X101576600Y-76814228D02*
X101528980Y-76861847D01*
X101528980Y-76861847D02*
X101386123Y-76957085D01*
X101386123Y-76957085D02*
X101195647Y-77004704D01*
X101195647Y-77004704D02*
X100814695Y-77004704D01*
X100814695Y-77004704D02*
X100719457Y-76957085D01*
X100719457Y-76957085D02*
X100671838Y-76909466D01*
X100671838Y-76909466D02*
X100624219Y-76814228D01*
X100624219Y-76814228D02*
X100624219Y-76623752D01*
X100624219Y-76623752D02*
X100671838Y-76528514D01*
X100671838Y-76528514D02*
X100719457Y-76480895D01*
X100719457Y-76480895D02*
X100814695Y-76433276D01*
X100814695Y-76433276D02*
X101052790Y-76433276D01*
X101052790Y-76433276D02*
X101148028Y-76480895D01*
X101148028Y-76480895D02*
X101195647Y-76528514D01*
X101195647Y-76528514D02*
X101243266Y-76623752D01*
X101243266Y-76623752D02*
X101243266Y-76814228D01*
X101243266Y-76814228D02*
X101195647Y-76909466D01*
X101195647Y-76909466D02*
X101148028Y-76957085D01*
X101148028Y-76957085D02*
X101052790Y-77004704D01*
%TO.C,D25*%
X179844019Y-82478714D02*
X178844019Y-82478714D01*
X178844019Y-82478714D02*
X178844019Y-82716809D01*
X178844019Y-82716809D02*
X178891638Y-82859666D01*
X178891638Y-82859666D02*
X178986876Y-82954904D01*
X178986876Y-82954904D02*
X179082114Y-83002523D01*
X179082114Y-83002523D02*
X179272590Y-83050142D01*
X179272590Y-83050142D02*
X179415447Y-83050142D01*
X179415447Y-83050142D02*
X179605923Y-83002523D01*
X179605923Y-83002523D02*
X179701161Y-82954904D01*
X179701161Y-82954904D02*
X179796400Y-82859666D01*
X179796400Y-82859666D02*
X179844019Y-82716809D01*
X179844019Y-82716809D02*
X179844019Y-82478714D01*
X178939257Y-83431095D02*
X178891638Y-83478714D01*
X178891638Y-83478714D02*
X178844019Y-83573952D01*
X178844019Y-83573952D02*
X178844019Y-83812047D01*
X178844019Y-83812047D02*
X178891638Y-83907285D01*
X178891638Y-83907285D02*
X178939257Y-83954904D01*
X178939257Y-83954904D02*
X179034495Y-84002523D01*
X179034495Y-84002523D02*
X179129733Y-84002523D01*
X179129733Y-84002523D02*
X179272590Y-83954904D01*
X179272590Y-83954904D02*
X179844019Y-83383476D01*
X179844019Y-83383476D02*
X179844019Y-84002523D01*
X178844019Y-84907285D02*
X178844019Y-84431095D01*
X178844019Y-84431095D02*
X179320209Y-84383476D01*
X179320209Y-84383476D02*
X179272590Y-84431095D01*
X179272590Y-84431095D02*
X179224971Y-84526333D01*
X179224971Y-84526333D02*
X179224971Y-84764428D01*
X179224971Y-84764428D02*
X179272590Y-84859666D01*
X179272590Y-84859666D02*
X179320209Y-84907285D01*
X179320209Y-84907285D02*
X179415447Y-84954904D01*
X179415447Y-84954904D02*
X179653542Y-84954904D01*
X179653542Y-84954904D02*
X179748780Y-84907285D01*
X179748780Y-84907285D02*
X179796400Y-84859666D01*
X179796400Y-84859666D02*
X179844019Y-84764428D01*
X179844019Y-84764428D02*
X179844019Y-84526333D01*
X179844019Y-84526333D02*
X179796400Y-84431095D01*
X179796400Y-84431095D02*
X179748780Y-84383476D01*
%TO.C,D15*%
X212686219Y-85221914D02*
X211686219Y-85221914D01*
X211686219Y-85221914D02*
X211686219Y-85460009D01*
X211686219Y-85460009D02*
X211733838Y-85602866D01*
X211733838Y-85602866D02*
X211829076Y-85698104D01*
X211829076Y-85698104D02*
X211924314Y-85745723D01*
X211924314Y-85745723D02*
X212114790Y-85793342D01*
X212114790Y-85793342D02*
X212257647Y-85793342D01*
X212257647Y-85793342D02*
X212448123Y-85745723D01*
X212448123Y-85745723D02*
X212543361Y-85698104D01*
X212543361Y-85698104D02*
X212638600Y-85602866D01*
X212638600Y-85602866D02*
X212686219Y-85460009D01*
X212686219Y-85460009D02*
X212686219Y-85221914D01*
X212686219Y-86745723D02*
X212686219Y-86174295D01*
X212686219Y-86460009D02*
X211686219Y-86460009D01*
X211686219Y-86460009D02*
X211829076Y-86364771D01*
X211829076Y-86364771D02*
X211924314Y-86269533D01*
X211924314Y-86269533D02*
X211971933Y-86174295D01*
X211686219Y-87650485D02*
X211686219Y-87174295D01*
X211686219Y-87174295D02*
X212162409Y-87126676D01*
X212162409Y-87126676D02*
X212114790Y-87174295D01*
X212114790Y-87174295D02*
X212067171Y-87269533D01*
X212067171Y-87269533D02*
X212067171Y-87507628D01*
X212067171Y-87507628D02*
X212114790Y-87602866D01*
X212114790Y-87602866D02*
X212162409Y-87650485D01*
X212162409Y-87650485D02*
X212257647Y-87698104D01*
X212257647Y-87698104D02*
X212495742Y-87698104D01*
X212495742Y-87698104D02*
X212590980Y-87650485D01*
X212590980Y-87650485D02*
X212638600Y-87602866D01*
X212638600Y-87602866D02*
X212686219Y-87507628D01*
X212686219Y-87507628D02*
X212686219Y-87269533D01*
X212686219Y-87269533D02*
X212638600Y-87174295D01*
X212638600Y-87174295D02*
X212590980Y-87126676D01*
%TO.C,D6*%
X216648619Y-70737505D02*
X215648619Y-70737505D01*
X215648619Y-70737505D02*
X215648619Y-70975600D01*
X215648619Y-70975600D02*
X215696238Y-71118457D01*
X215696238Y-71118457D02*
X215791476Y-71213695D01*
X215791476Y-71213695D02*
X215886714Y-71261314D01*
X215886714Y-71261314D02*
X216077190Y-71308933D01*
X216077190Y-71308933D02*
X216220047Y-71308933D01*
X216220047Y-71308933D02*
X216410523Y-71261314D01*
X216410523Y-71261314D02*
X216505761Y-71213695D01*
X216505761Y-71213695D02*
X216601000Y-71118457D01*
X216601000Y-71118457D02*
X216648619Y-70975600D01*
X216648619Y-70975600D02*
X216648619Y-70737505D01*
X215648619Y-72166076D02*
X215648619Y-71975600D01*
X215648619Y-71975600D02*
X215696238Y-71880362D01*
X215696238Y-71880362D02*
X215743857Y-71832743D01*
X215743857Y-71832743D02*
X215886714Y-71737505D01*
X215886714Y-71737505D02*
X216077190Y-71689886D01*
X216077190Y-71689886D02*
X216458142Y-71689886D01*
X216458142Y-71689886D02*
X216553380Y-71737505D01*
X216553380Y-71737505D02*
X216601000Y-71785124D01*
X216601000Y-71785124D02*
X216648619Y-71880362D01*
X216648619Y-71880362D02*
X216648619Y-72070838D01*
X216648619Y-72070838D02*
X216601000Y-72166076D01*
X216601000Y-72166076D02*
X216553380Y-72213695D01*
X216553380Y-72213695D02*
X216458142Y-72261314D01*
X216458142Y-72261314D02*
X216220047Y-72261314D01*
X216220047Y-72261314D02*
X216124809Y-72213695D01*
X216124809Y-72213695D02*
X216077190Y-72166076D01*
X216077190Y-72166076D02*
X216029571Y-72070838D01*
X216029571Y-72070838D02*
X216029571Y-71880362D01*
X216029571Y-71880362D02*
X216077190Y-71785124D01*
X216077190Y-71785124D02*
X216124809Y-71737505D01*
X216124809Y-71737505D02*
X216220047Y-71689886D01*
%TO.C,D17*%
X179894819Y-64623514D02*
X178894819Y-64623514D01*
X178894819Y-64623514D02*
X178894819Y-64861609D01*
X178894819Y-64861609D02*
X178942438Y-65004466D01*
X178942438Y-65004466D02*
X179037676Y-65099704D01*
X179037676Y-65099704D02*
X179132914Y-65147323D01*
X179132914Y-65147323D02*
X179323390Y-65194942D01*
X179323390Y-65194942D02*
X179466247Y-65194942D01*
X179466247Y-65194942D02*
X179656723Y-65147323D01*
X179656723Y-65147323D02*
X179751961Y-65099704D01*
X179751961Y-65099704D02*
X179847200Y-65004466D01*
X179847200Y-65004466D02*
X179894819Y-64861609D01*
X179894819Y-64861609D02*
X179894819Y-64623514D01*
X179894819Y-66147323D02*
X179894819Y-65575895D01*
X179894819Y-65861609D02*
X178894819Y-65861609D01*
X178894819Y-65861609D02*
X179037676Y-65766371D01*
X179037676Y-65766371D02*
X179132914Y-65671133D01*
X179132914Y-65671133D02*
X179180533Y-65575895D01*
X178894819Y-66480657D02*
X178894819Y-67147323D01*
X178894819Y-67147323D02*
X179894819Y-66718752D01*
%TO.C,SW25*%
X132019200Y-84661676D02*
X132066819Y-84804533D01*
X132066819Y-84804533D02*
X132066819Y-85042628D01*
X132066819Y-85042628D02*
X132019200Y-85137866D01*
X132019200Y-85137866D02*
X131971580Y-85185485D01*
X131971580Y-85185485D02*
X131876342Y-85233104D01*
X131876342Y-85233104D02*
X131781104Y-85233104D01*
X131781104Y-85233104D02*
X131685866Y-85185485D01*
X131685866Y-85185485D02*
X131638247Y-85137866D01*
X131638247Y-85137866D02*
X131590628Y-85042628D01*
X131590628Y-85042628D02*
X131543009Y-84852152D01*
X131543009Y-84852152D02*
X131495390Y-84756914D01*
X131495390Y-84756914D02*
X131447771Y-84709295D01*
X131447771Y-84709295D02*
X131352533Y-84661676D01*
X131352533Y-84661676D02*
X131257295Y-84661676D01*
X131257295Y-84661676D02*
X131162057Y-84709295D01*
X131162057Y-84709295D02*
X131114438Y-84756914D01*
X131114438Y-84756914D02*
X131066819Y-84852152D01*
X131066819Y-84852152D02*
X131066819Y-85090247D01*
X131066819Y-85090247D02*
X131114438Y-85233104D01*
X131066819Y-85566438D02*
X132066819Y-85804533D01*
X132066819Y-85804533D02*
X131352533Y-85995009D01*
X131352533Y-85995009D02*
X132066819Y-86185485D01*
X132066819Y-86185485D02*
X131066819Y-86423581D01*
X131162057Y-86756914D02*
X131114438Y-86804533D01*
X131114438Y-86804533D02*
X131066819Y-86899771D01*
X131066819Y-86899771D02*
X131066819Y-87137866D01*
X131066819Y-87137866D02*
X131114438Y-87233104D01*
X131114438Y-87233104D02*
X131162057Y-87280723D01*
X131162057Y-87280723D02*
X131257295Y-87328342D01*
X131257295Y-87328342D02*
X131352533Y-87328342D01*
X131352533Y-87328342D02*
X131495390Y-87280723D01*
X131495390Y-87280723D02*
X132066819Y-86709295D01*
X132066819Y-86709295D02*
X132066819Y-87328342D01*
X131066819Y-88233104D02*
X131066819Y-87756914D01*
X131066819Y-87756914D02*
X131543009Y-87709295D01*
X131543009Y-87709295D02*
X131495390Y-87756914D01*
X131495390Y-87756914D02*
X131447771Y-87852152D01*
X131447771Y-87852152D02*
X131447771Y-88090247D01*
X131447771Y-88090247D02*
X131495390Y-88185485D01*
X131495390Y-88185485D02*
X131543009Y-88233104D01*
X131543009Y-88233104D02*
X131638247Y-88280723D01*
X131638247Y-88280723D02*
X131876342Y-88280723D01*
X131876342Y-88280723D02*
X131971580Y-88233104D01*
X131971580Y-88233104D02*
X132019200Y-88185485D01*
X132019200Y-88185485D02*
X132066819Y-88090247D01*
X132066819Y-88090247D02*
X132066819Y-87852152D01*
X132066819Y-87852152D02*
X132019200Y-87756914D01*
X132019200Y-87756914D02*
X131971580Y-87709295D01*
%TO.C,D26*%
X179068819Y-76483314D02*
X178068819Y-76483314D01*
X178068819Y-76483314D02*
X178068819Y-76721409D01*
X178068819Y-76721409D02*
X178116438Y-76864266D01*
X178116438Y-76864266D02*
X178211676Y-76959504D01*
X178211676Y-76959504D02*
X178306914Y-77007123D01*
X178306914Y-77007123D02*
X178497390Y-77054742D01*
X178497390Y-77054742D02*
X178640247Y-77054742D01*
X178640247Y-77054742D02*
X178830723Y-77007123D01*
X178830723Y-77007123D02*
X178925961Y-76959504D01*
X178925961Y-76959504D02*
X179021200Y-76864266D01*
X179021200Y-76864266D02*
X179068819Y-76721409D01*
X179068819Y-76721409D02*
X179068819Y-76483314D01*
X178164057Y-77435695D02*
X178116438Y-77483314D01*
X178116438Y-77483314D02*
X178068819Y-77578552D01*
X178068819Y-77578552D02*
X178068819Y-77816647D01*
X178068819Y-77816647D02*
X178116438Y-77911885D01*
X178116438Y-77911885D02*
X178164057Y-77959504D01*
X178164057Y-77959504D02*
X178259295Y-78007123D01*
X178259295Y-78007123D02*
X178354533Y-78007123D01*
X178354533Y-78007123D02*
X178497390Y-77959504D01*
X178497390Y-77959504D02*
X179068819Y-77388076D01*
X179068819Y-77388076D02*
X179068819Y-78007123D01*
X178068819Y-78864266D02*
X178068819Y-78673790D01*
X178068819Y-78673790D02*
X178116438Y-78578552D01*
X178116438Y-78578552D02*
X178164057Y-78530933D01*
X178164057Y-78530933D02*
X178306914Y-78435695D01*
X178306914Y-78435695D02*
X178497390Y-78388076D01*
X178497390Y-78388076D02*
X178878342Y-78388076D01*
X178878342Y-78388076D02*
X178973580Y-78435695D01*
X178973580Y-78435695D02*
X179021200Y-78483314D01*
X179021200Y-78483314D02*
X179068819Y-78578552D01*
X179068819Y-78578552D02*
X179068819Y-78769028D01*
X179068819Y-78769028D02*
X179021200Y-78864266D01*
X179021200Y-78864266D02*
X178973580Y-78911885D01*
X178973580Y-78911885D02*
X178878342Y-78959504D01*
X178878342Y-78959504D02*
X178640247Y-78959504D01*
X178640247Y-78959504D02*
X178545009Y-78911885D01*
X178545009Y-78911885D02*
X178497390Y-78864266D01*
X178497390Y-78864266D02*
X178449771Y-78769028D01*
X178449771Y-78769028D02*
X178449771Y-78578552D01*
X178449771Y-78578552D02*
X178497390Y-78483314D01*
X178497390Y-78483314D02*
X178545009Y-78435695D01*
X178545009Y-78435695D02*
X178640247Y-78388076D01*
%TO.C,D10*%
X99795419Y-42397514D02*
X98795419Y-42397514D01*
X98795419Y-42397514D02*
X98795419Y-42635609D01*
X98795419Y-42635609D02*
X98843038Y-42778466D01*
X98843038Y-42778466D02*
X98938276Y-42873704D01*
X98938276Y-42873704D02*
X99033514Y-42921323D01*
X99033514Y-42921323D02*
X99223990Y-42968942D01*
X99223990Y-42968942D02*
X99366847Y-42968942D01*
X99366847Y-42968942D02*
X99557323Y-42921323D01*
X99557323Y-42921323D02*
X99652561Y-42873704D01*
X99652561Y-42873704D02*
X99747800Y-42778466D01*
X99747800Y-42778466D02*
X99795419Y-42635609D01*
X99795419Y-42635609D02*
X99795419Y-42397514D01*
X99795419Y-43921323D02*
X99795419Y-43349895D01*
X99795419Y-43635609D02*
X98795419Y-43635609D01*
X98795419Y-43635609D02*
X98938276Y-43540371D01*
X98938276Y-43540371D02*
X99033514Y-43445133D01*
X99033514Y-43445133D02*
X99081133Y-43349895D01*
X98795419Y-44540371D02*
X98795419Y-44635609D01*
X98795419Y-44635609D02*
X98843038Y-44730847D01*
X98843038Y-44730847D02*
X98890657Y-44778466D01*
X98890657Y-44778466D02*
X98985895Y-44826085D01*
X98985895Y-44826085D02*
X99176371Y-44873704D01*
X99176371Y-44873704D02*
X99414466Y-44873704D01*
X99414466Y-44873704D02*
X99604942Y-44826085D01*
X99604942Y-44826085D02*
X99700180Y-44778466D01*
X99700180Y-44778466D02*
X99747800Y-44730847D01*
X99747800Y-44730847D02*
X99795419Y-44635609D01*
X99795419Y-44635609D02*
X99795419Y-44540371D01*
X99795419Y-44540371D02*
X99747800Y-44445133D01*
X99747800Y-44445133D02*
X99700180Y-44397514D01*
X99700180Y-44397514D02*
X99604942Y-44349895D01*
X99604942Y-44349895D02*
X99414466Y-44302276D01*
X99414466Y-44302276D02*
X99176371Y-44302276D01*
X99176371Y-44302276D02*
X98985895Y-44349895D01*
X98985895Y-44349895D02*
X98890657Y-44397514D01*
X98890657Y-44397514D02*
X98843038Y-44445133D01*
X98843038Y-44445133D02*
X98795419Y-44540371D01*
%TO.C,D9*%
X80770819Y-44880305D02*
X79770819Y-44880305D01*
X79770819Y-44880305D02*
X79770819Y-45118400D01*
X79770819Y-45118400D02*
X79818438Y-45261257D01*
X79818438Y-45261257D02*
X79913676Y-45356495D01*
X79913676Y-45356495D02*
X80008914Y-45404114D01*
X80008914Y-45404114D02*
X80199390Y-45451733D01*
X80199390Y-45451733D02*
X80342247Y-45451733D01*
X80342247Y-45451733D02*
X80532723Y-45404114D01*
X80532723Y-45404114D02*
X80627961Y-45356495D01*
X80627961Y-45356495D02*
X80723200Y-45261257D01*
X80723200Y-45261257D02*
X80770819Y-45118400D01*
X80770819Y-45118400D02*
X80770819Y-44880305D01*
X80770819Y-45927924D02*
X80770819Y-46118400D01*
X80770819Y-46118400D02*
X80723200Y-46213638D01*
X80723200Y-46213638D02*
X80675580Y-46261257D01*
X80675580Y-46261257D02*
X80532723Y-46356495D01*
X80532723Y-46356495D02*
X80342247Y-46404114D01*
X80342247Y-46404114D02*
X79961295Y-46404114D01*
X79961295Y-46404114D02*
X79866057Y-46356495D01*
X79866057Y-46356495D02*
X79818438Y-46308876D01*
X79818438Y-46308876D02*
X79770819Y-46213638D01*
X79770819Y-46213638D02*
X79770819Y-46023162D01*
X79770819Y-46023162D02*
X79818438Y-45927924D01*
X79818438Y-45927924D02*
X79866057Y-45880305D01*
X79866057Y-45880305D02*
X79961295Y-45832686D01*
X79961295Y-45832686D02*
X80199390Y-45832686D01*
X80199390Y-45832686D02*
X80294628Y-45880305D01*
X80294628Y-45880305D02*
X80342247Y-45927924D01*
X80342247Y-45927924D02*
X80389866Y-46023162D01*
X80389866Y-46023162D02*
X80389866Y-46213638D01*
X80389866Y-46213638D02*
X80342247Y-46308876D01*
X80342247Y-46308876D02*
X80294628Y-46356495D01*
X80294628Y-46356495D02*
X80199390Y-46404114D01*
%TO.C,D7*%
X217676819Y-49223705D02*
X216676819Y-49223705D01*
X216676819Y-49223705D02*
X216676819Y-49461800D01*
X216676819Y-49461800D02*
X216724438Y-49604657D01*
X216724438Y-49604657D02*
X216819676Y-49699895D01*
X216819676Y-49699895D02*
X216914914Y-49747514D01*
X216914914Y-49747514D02*
X217105390Y-49795133D01*
X217105390Y-49795133D02*
X217248247Y-49795133D01*
X217248247Y-49795133D02*
X217438723Y-49747514D01*
X217438723Y-49747514D02*
X217533961Y-49699895D01*
X217533961Y-49699895D02*
X217629200Y-49604657D01*
X217629200Y-49604657D02*
X217676819Y-49461800D01*
X217676819Y-49461800D02*
X217676819Y-49223705D01*
X216676819Y-50128467D02*
X216676819Y-50795133D01*
X216676819Y-50795133D02*
X217676819Y-50366562D01*
%TO.C,D24*%
X213155619Y-81461714D02*
X212155619Y-81461714D01*
X212155619Y-81461714D02*
X212155619Y-81699809D01*
X212155619Y-81699809D02*
X212203238Y-81842666D01*
X212203238Y-81842666D02*
X212298476Y-81937904D01*
X212298476Y-81937904D02*
X212393714Y-81985523D01*
X212393714Y-81985523D02*
X212584190Y-82033142D01*
X212584190Y-82033142D02*
X212727047Y-82033142D01*
X212727047Y-82033142D02*
X212917523Y-81985523D01*
X212917523Y-81985523D02*
X213012761Y-81937904D01*
X213012761Y-81937904D02*
X213108000Y-81842666D01*
X213108000Y-81842666D02*
X213155619Y-81699809D01*
X213155619Y-81699809D02*
X213155619Y-81461714D01*
X212250857Y-82414095D02*
X212203238Y-82461714D01*
X212203238Y-82461714D02*
X212155619Y-82556952D01*
X212155619Y-82556952D02*
X212155619Y-82795047D01*
X212155619Y-82795047D02*
X212203238Y-82890285D01*
X212203238Y-82890285D02*
X212250857Y-82937904D01*
X212250857Y-82937904D02*
X212346095Y-82985523D01*
X212346095Y-82985523D02*
X212441333Y-82985523D01*
X212441333Y-82985523D02*
X212584190Y-82937904D01*
X212584190Y-82937904D02*
X213155619Y-82366476D01*
X213155619Y-82366476D02*
X213155619Y-82985523D01*
X212488952Y-83842666D02*
X213155619Y-83842666D01*
X212108000Y-83604571D02*
X212822285Y-83366476D01*
X212822285Y-83366476D02*
X212822285Y-83985523D01*
%TO.C,D13*%
X180567419Y-43997714D02*
X179567419Y-43997714D01*
X179567419Y-43997714D02*
X179567419Y-44235809D01*
X179567419Y-44235809D02*
X179615038Y-44378666D01*
X179615038Y-44378666D02*
X179710276Y-44473904D01*
X179710276Y-44473904D02*
X179805514Y-44521523D01*
X179805514Y-44521523D02*
X179995990Y-44569142D01*
X179995990Y-44569142D02*
X180138847Y-44569142D01*
X180138847Y-44569142D02*
X180329323Y-44521523D01*
X180329323Y-44521523D02*
X180424561Y-44473904D01*
X180424561Y-44473904D02*
X180519800Y-44378666D01*
X180519800Y-44378666D02*
X180567419Y-44235809D01*
X180567419Y-44235809D02*
X180567419Y-43997714D01*
X180567419Y-45521523D02*
X180567419Y-44950095D01*
X180567419Y-45235809D02*
X179567419Y-45235809D01*
X179567419Y-45235809D02*
X179710276Y-45140571D01*
X179710276Y-45140571D02*
X179805514Y-45045333D01*
X179805514Y-45045333D02*
X179853133Y-44950095D01*
X179567419Y-45854857D02*
X179567419Y-46473904D01*
X179567419Y-46473904D02*
X179948371Y-46140571D01*
X179948371Y-46140571D02*
X179948371Y-46283428D01*
X179948371Y-46283428D02*
X179995990Y-46378666D01*
X179995990Y-46378666D02*
X180043609Y-46426285D01*
X180043609Y-46426285D02*
X180138847Y-46473904D01*
X180138847Y-46473904D02*
X180376942Y-46473904D01*
X180376942Y-46473904D02*
X180472180Y-46426285D01*
X180472180Y-46426285D02*
X180519800Y-46378666D01*
X180519800Y-46378666D02*
X180567419Y-46283428D01*
X180567419Y-46283428D02*
X180567419Y-45997714D01*
X180567419Y-45997714D02*
X180519800Y-45902476D01*
X180519800Y-45902476D02*
X180472180Y-45854857D01*
%TO.C,D12*%
X201471619Y-43388114D02*
X200471619Y-43388114D01*
X200471619Y-43388114D02*
X200471619Y-43626209D01*
X200471619Y-43626209D02*
X200519238Y-43769066D01*
X200519238Y-43769066D02*
X200614476Y-43864304D01*
X200614476Y-43864304D02*
X200709714Y-43911923D01*
X200709714Y-43911923D02*
X200900190Y-43959542D01*
X200900190Y-43959542D02*
X201043047Y-43959542D01*
X201043047Y-43959542D02*
X201233523Y-43911923D01*
X201233523Y-43911923D02*
X201328761Y-43864304D01*
X201328761Y-43864304D02*
X201424000Y-43769066D01*
X201424000Y-43769066D02*
X201471619Y-43626209D01*
X201471619Y-43626209D02*
X201471619Y-43388114D01*
X201471619Y-44911923D02*
X201471619Y-44340495D01*
X201471619Y-44626209D02*
X200471619Y-44626209D01*
X200471619Y-44626209D02*
X200614476Y-44530971D01*
X200614476Y-44530971D02*
X200709714Y-44435733D01*
X200709714Y-44435733D02*
X200757333Y-44340495D01*
X200566857Y-45292876D02*
X200519238Y-45340495D01*
X200519238Y-45340495D02*
X200471619Y-45435733D01*
X200471619Y-45435733D02*
X200471619Y-45673828D01*
X200471619Y-45673828D02*
X200519238Y-45769066D01*
X200519238Y-45769066D02*
X200566857Y-45816685D01*
X200566857Y-45816685D02*
X200662095Y-45864304D01*
X200662095Y-45864304D02*
X200757333Y-45864304D01*
X200757333Y-45864304D02*
X200900190Y-45816685D01*
X200900190Y-45816685D02*
X201471619Y-45245257D01*
X201471619Y-45245257D02*
X201471619Y-45864304D01*
%TO.C,SW30*%
X147602600Y-85861676D02*
X147650219Y-86004533D01*
X147650219Y-86004533D02*
X147650219Y-86242628D01*
X147650219Y-86242628D02*
X147602600Y-86337866D01*
X147602600Y-86337866D02*
X147554980Y-86385485D01*
X147554980Y-86385485D02*
X147459742Y-86433104D01*
X147459742Y-86433104D02*
X147364504Y-86433104D01*
X147364504Y-86433104D02*
X147269266Y-86385485D01*
X147269266Y-86385485D02*
X147221647Y-86337866D01*
X147221647Y-86337866D02*
X147174028Y-86242628D01*
X147174028Y-86242628D02*
X147126409Y-86052152D01*
X147126409Y-86052152D02*
X147078790Y-85956914D01*
X147078790Y-85956914D02*
X147031171Y-85909295D01*
X147031171Y-85909295D02*
X146935933Y-85861676D01*
X146935933Y-85861676D02*
X146840695Y-85861676D01*
X146840695Y-85861676D02*
X146745457Y-85909295D01*
X146745457Y-85909295D02*
X146697838Y-85956914D01*
X146697838Y-85956914D02*
X146650219Y-86052152D01*
X146650219Y-86052152D02*
X146650219Y-86290247D01*
X146650219Y-86290247D02*
X146697838Y-86433104D01*
X146650219Y-86766438D02*
X147650219Y-87004533D01*
X147650219Y-87004533D02*
X146935933Y-87195009D01*
X146935933Y-87195009D02*
X147650219Y-87385485D01*
X147650219Y-87385485D02*
X146650219Y-87623581D01*
X146650219Y-87909295D02*
X146650219Y-88528342D01*
X146650219Y-88528342D02*
X147031171Y-88195009D01*
X147031171Y-88195009D02*
X147031171Y-88337866D01*
X147031171Y-88337866D02*
X147078790Y-88433104D01*
X147078790Y-88433104D02*
X147126409Y-88480723D01*
X147126409Y-88480723D02*
X147221647Y-88528342D01*
X147221647Y-88528342D02*
X147459742Y-88528342D01*
X147459742Y-88528342D02*
X147554980Y-88480723D01*
X147554980Y-88480723D02*
X147602600Y-88433104D01*
X147602600Y-88433104D02*
X147650219Y-88337866D01*
X147650219Y-88337866D02*
X147650219Y-88052152D01*
X147650219Y-88052152D02*
X147602600Y-87956914D01*
X147602600Y-87956914D02*
X147554980Y-87909295D01*
X146650219Y-89147390D02*
X146650219Y-89242628D01*
X146650219Y-89242628D02*
X146697838Y-89337866D01*
X146697838Y-89337866D02*
X146745457Y-89385485D01*
X146745457Y-89385485D02*
X146840695Y-89433104D01*
X146840695Y-89433104D02*
X147031171Y-89480723D01*
X147031171Y-89480723D02*
X147269266Y-89480723D01*
X147269266Y-89480723D02*
X147459742Y-89433104D01*
X147459742Y-89433104D02*
X147554980Y-89385485D01*
X147554980Y-89385485D02*
X147602600Y-89337866D01*
X147602600Y-89337866D02*
X147650219Y-89242628D01*
X147650219Y-89242628D02*
X147650219Y-89147390D01*
X147650219Y-89147390D02*
X147602600Y-89052152D01*
X147602600Y-89052152D02*
X147554980Y-89004533D01*
X147554980Y-89004533D02*
X147459742Y-88956914D01*
X147459742Y-88956914D02*
X147269266Y-88909295D01*
X147269266Y-88909295D02*
X147031171Y-88909295D01*
X147031171Y-88909295D02*
X146840695Y-88956914D01*
X146840695Y-88956914D02*
X146745457Y-89004533D01*
X146745457Y-89004533D02*
X146697838Y-89052152D01*
X146697838Y-89052152D02*
X146650219Y-89147390D01*
%TO.C,D1*%
X159017019Y-39704105D02*
X158017019Y-39704105D01*
X158017019Y-39704105D02*
X158017019Y-39942200D01*
X158017019Y-39942200D02*
X158064638Y-40085057D01*
X158064638Y-40085057D02*
X158159876Y-40180295D01*
X158159876Y-40180295D02*
X158255114Y-40227914D01*
X158255114Y-40227914D02*
X158445590Y-40275533D01*
X158445590Y-40275533D02*
X158588447Y-40275533D01*
X158588447Y-40275533D02*
X158778923Y-40227914D01*
X158778923Y-40227914D02*
X158874161Y-40180295D01*
X158874161Y-40180295D02*
X158969400Y-40085057D01*
X158969400Y-40085057D02*
X159017019Y-39942200D01*
X159017019Y-39942200D02*
X159017019Y-39704105D01*
X159017019Y-41227914D02*
X159017019Y-40656486D01*
X159017019Y-40942200D02*
X158017019Y-40942200D01*
X158017019Y-40942200D02*
X158159876Y-40846962D01*
X158159876Y-40846962D02*
X158255114Y-40751724D01*
X158255114Y-40751724D02*
X158302733Y-40656486D01*
%TO.C,D23*%
X161542819Y-68433514D02*
X160542819Y-68433514D01*
X160542819Y-68433514D02*
X160542819Y-68671609D01*
X160542819Y-68671609D02*
X160590438Y-68814466D01*
X160590438Y-68814466D02*
X160685676Y-68909704D01*
X160685676Y-68909704D02*
X160780914Y-68957323D01*
X160780914Y-68957323D02*
X160971390Y-69004942D01*
X160971390Y-69004942D02*
X161114247Y-69004942D01*
X161114247Y-69004942D02*
X161304723Y-68957323D01*
X161304723Y-68957323D02*
X161399961Y-68909704D01*
X161399961Y-68909704D02*
X161495200Y-68814466D01*
X161495200Y-68814466D02*
X161542819Y-68671609D01*
X161542819Y-68671609D02*
X161542819Y-68433514D01*
X160638057Y-69385895D02*
X160590438Y-69433514D01*
X160590438Y-69433514D02*
X160542819Y-69528752D01*
X160542819Y-69528752D02*
X160542819Y-69766847D01*
X160542819Y-69766847D02*
X160590438Y-69862085D01*
X160590438Y-69862085D02*
X160638057Y-69909704D01*
X160638057Y-69909704D02*
X160733295Y-69957323D01*
X160733295Y-69957323D02*
X160828533Y-69957323D01*
X160828533Y-69957323D02*
X160971390Y-69909704D01*
X160971390Y-69909704D02*
X161542819Y-69338276D01*
X161542819Y-69338276D02*
X161542819Y-69957323D01*
X160542819Y-70290657D02*
X160542819Y-70909704D01*
X160542819Y-70909704D02*
X160923771Y-70576371D01*
X160923771Y-70576371D02*
X160923771Y-70719228D01*
X160923771Y-70719228D02*
X160971390Y-70814466D01*
X160971390Y-70814466D02*
X161019009Y-70862085D01*
X161019009Y-70862085D02*
X161114247Y-70909704D01*
X161114247Y-70909704D02*
X161352342Y-70909704D01*
X161352342Y-70909704D02*
X161447580Y-70862085D01*
X161447580Y-70862085D02*
X161495200Y-70814466D01*
X161495200Y-70814466D02*
X161542819Y-70719228D01*
X161542819Y-70719228D02*
X161542819Y-70433514D01*
X161542819Y-70433514D02*
X161495200Y-70338276D01*
X161495200Y-70338276D02*
X161447580Y-70290657D01*
%TO.C,D14*%
X161390419Y-51668514D02*
X160390419Y-51668514D01*
X160390419Y-51668514D02*
X160390419Y-51906609D01*
X160390419Y-51906609D02*
X160438038Y-52049466D01*
X160438038Y-52049466D02*
X160533276Y-52144704D01*
X160533276Y-52144704D02*
X160628514Y-52192323D01*
X160628514Y-52192323D02*
X160818990Y-52239942D01*
X160818990Y-52239942D02*
X160961847Y-52239942D01*
X160961847Y-52239942D02*
X161152323Y-52192323D01*
X161152323Y-52192323D02*
X161247561Y-52144704D01*
X161247561Y-52144704D02*
X161342800Y-52049466D01*
X161342800Y-52049466D02*
X161390419Y-51906609D01*
X161390419Y-51906609D02*
X161390419Y-51668514D01*
X161390419Y-53192323D02*
X161390419Y-52620895D01*
X161390419Y-52906609D02*
X160390419Y-52906609D01*
X160390419Y-52906609D02*
X160533276Y-52811371D01*
X160533276Y-52811371D02*
X160628514Y-52716133D01*
X160628514Y-52716133D02*
X160676133Y-52620895D01*
X160723752Y-54049466D02*
X161390419Y-54049466D01*
X160342800Y-53811371D02*
X161057085Y-53573276D01*
X161057085Y-53573276D02*
X161057085Y-54192323D01*
%TO.C,D21*%
X116026019Y-60279114D02*
X115026019Y-60279114D01*
X115026019Y-60279114D02*
X115026019Y-60517209D01*
X115026019Y-60517209D02*
X115073638Y-60660066D01*
X115073638Y-60660066D02*
X115168876Y-60755304D01*
X115168876Y-60755304D02*
X115264114Y-60802923D01*
X115264114Y-60802923D02*
X115454590Y-60850542D01*
X115454590Y-60850542D02*
X115597447Y-60850542D01*
X115597447Y-60850542D02*
X115787923Y-60802923D01*
X115787923Y-60802923D02*
X115883161Y-60755304D01*
X115883161Y-60755304D02*
X115978400Y-60660066D01*
X115978400Y-60660066D02*
X116026019Y-60517209D01*
X116026019Y-60517209D02*
X116026019Y-60279114D01*
X115121257Y-61231495D02*
X115073638Y-61279114D01*
X115073638Y-61279114D02*
X115026019Y-61374352D01*
X115026019Y-61374352D02*
X115026019Y-61612447D01*
X115026019Y-61612447D02*
X115073638Y-61707685D01*
X115073638Y-61707685D02*
X115121257Y-61755304D01*
X115121257Y-61755304D02*
X115216495Y-61802923D01*
X115216495Y-61802923D02*
X115311733Y-61802923D01*
X115311733Y-61802923D02*
X115454590Y-61755304D01*
X115454590Y-61755304D02*
X116026019Y-61183876D01*
X116026019Y-61183876D02*
X116026019Y-61802923D01*
X116026019Y-62755304D02*
X116026019Y-62183876D01*
X116026019Y-62469590D02*
X115026019Y-62469590D01*
X115026019Y-62469590D02*
X115168876Y-62374352D01*
X115168876Y-62374352D02*
X115264114Y-62279114D01*
X115264114Y-62279114D02*
X115311733Y-62183876D01*
%TO.C,D16*%
X196912819Y-70108914D02*
X195912819Y-70108914D01*
X195912819Y-70108914D02*
X195912819Y-70347009D01*
X195912819Y-70347009D02*
X195960438Y-70489866D01*
X195960438Y-70489866D02*
X196055676Y-70585104D01*
X196055676Y-70585104D02*
X196150914Y-70632723D01*
X196150914Y-70632723D02*
X196341390Y-70680342D01*
X196341390Y-70680342D02*
X196484247Y-70680342D01*
X196484247Y-70680342D02*
X196674723Y-70632723D01*
X196674723Y-70632723D02*
X196769961Y-70585104D01*
X196769961Y-70585104D02*
X196865200Y-70489866D01*
X196865200Y-70489866D02*
X196912819Y-70347009D01*
X196912819Y-70347009D02*
X196912819Y-70108914D01*
X196912819Y-71632723D02*
X196912819Y-71061295D01*
X196912819Y-71347009D02*
X195912819Y-71347009D01*
X195912819Y-71347009D02*
X196055676Y-71251771D01*
X196055676Y-71251771D02*
X196150914Y-71156533D01*
X196150914Y-71156533D02*
X196198533Y-71061295D01*
X195912819Y-72489866D02*
X195912819Y-72299390D01*
X195912819Y-72299390D02*
X195960438Y-72204152D01*
X195960438Y-72204152D02*
X196008057Y-72156533D01*
X196008057Y-72156533D02*
X196150914Y-72061295D01*
X196150914Y-72061295D02*
X196341390Y-72013676D01*
X196341390Y-72013676D02*
X196722342Y-72013676D01*
X196722342Y-72013676D02*
X196817580Y-72061295D01*
X196817580Y-72061295D02*
X196865200Y-72108914D01*
X196865200Y-72108914D02*
X196912819Y-72204152D01*
X196912819Y-72204152D02*
X196912819Y-72394628D01*
X196912819Y-72394628D02*
X196865200Y-72489866D01*
X196865200Y-72489866D02*
X196817580Y-72537485D01*
X196817580Y-72537485D02*
X196722342Y-72585104D01*
X196722342Y-72585104D02*
X196484247Y-72585104D01*
X196484247Y-72585104D02*
X196389009Y-72537485D01*
X196389009Y-72537485D02*
X196341390Y-72489866D01*
X196341390Y-72489866D02*
X196293771Y-72394628D01*
X196293771Y-72394628D02*
X196293771Y-72204152D01*
X196293771Y-72204152D02*
X196341390Y-72108914D01*
X196341390Y-72108914D02*
X196389009Y-72061295D01*
X196389009Y-72061295D02*
X196484247Y-72013676D01*
%TO.C,D8*%
X63829019Y-63065705D02*
X62829019Y-63065705D01*
X62829019Y-63065705D02*
X62829019Y-63303800D01*
X62829019Y-63303800D02*
X62876638Y-63446657D01*
X62876638Y-63446657D02*
X62971876Y-63541895D01*
X62971876Y-63541895D02*
X63067114Y-63589514D01*
X63067114Y-63589514D02*
X63257590Y-63637133D01*
X63257590Y-63637133D02*
X63400447Y-63637133D01*
X63400447Y-63637133D02*
X63590923Y-63589514D01*
X63590923Y-63589514D02*
X63686161Y-63541895D01*
X63686161Y-63541895D02*
X63781400Y-63446657D01*
X63781400Y-63446657D02*
X63829019Y-63303800D01*
X63829019Y-63303800D02*
X63829019Y-63065705D01*
X63257590Y-64208562D02*
X63209971Y-64113324D01*
X63209971Y-64113324D02*
X63162352Y-64065705D01*
X63162352Y-64065705D02*
X63067114Y-64018086D01*
X63067114Y-64018086D02*
X63019495Y-64018086D01*
X63019495Y-64018086D02*
X62924257Y-64065705D01*
X62924257Y-64065705D02*
X62876638Y-64113324D01*
X62876638Y-64113324D02*
X62829019Y-64208562D01*
X62829019Y-64208562D02*
X62829019Y-64399038D01*
X62829019Y-64399038D02*
X62876638Y-64494276D01*
X62876638Y-64494276D02*
X62924257Y-64541895D01*
X62924257Y-64541895D02*
X63019495Y-64589514D01*
X63019495Y-64589514D02*
X63067114Y-64589514D01*
X63067114Y-64589514D02*
X63162352Y-64541895D01*
X63162352Y-64541895D02*
X63209971Y-64494276D01*
X63209971Y-64494276D02*
X63257590Y-64399038D01*
X63257590Y-64399038D02*
X63257590Y-64208562D01*
X63257590Y-64208562D02*
X63305209Y-64113324D01*
X63305209Y-64113324D02*
X63352828Y-64065705D01*
X63352828Y-64065705D02*
X63448066Y-64018086D01*
X63448066Y-64018086D02*
X63638542Y-64018086D01*
X63638542Y-64018086D02*
X63733780Y-64065705D01*
X63733780Y-64065705D02*
X63781400Y-64113324D01*
X63781400Y-64113324D02*
X63829019Y-64208562D01*
X63829019Y-64208562D02*
X63829019Y-64399038D01*
X63829019Y-64399038D02*
X63781400Y-64494276D01*
X63781400Y-64494276D02*
X63733780Y-64541895D01*
X63733780Y-64541895D02*
X63638542Y-64589514D01*
X63638542Y-64589514D02*
X63448066Y-64589514D01*
X63448066Y-64589514D02*
X63352828Y-64541895D01*
X63352828Y-64541895D02*
X63305209Y-64494276D01*
X63305209Y-64494276D02*
X63257590Y-64399038D01*
%TO.C,D11*%
X118947019Y-44658114D02*
X117947019Y-44658114D01*
X117947019Y-44658114D02*
X117947019Y-44896209D01*
X117947019Y-44896209D02*
X117994638Y-45039066D01*
X117994638Y-45039066D02*
X118089876Y-45134304D01*
X118089876Y-45134304D02*
X118185114Y-45181923D01*
X118185114Y-45181923D02*
X118375590Y-45229542D01*
X118375590Y-45229542D02*
X118518447Y-45229542D01*
X118518447Y-45229542D02*
X118708923Y-45181923D01*
X118708923Y-45181923D02*
X118804161Y-45134304D01*
X118804161Y-45134304D02*
X118899400Y-45039066D01*
X118899400Y-45039066D02*
X118947019Y-44896209D01*
X118947019Y-44896209D02*
X118947019Y-44658114D01*
X118947019Y-46181923D02*
X118947019Y-45610495D01*
X118947019Y-45896209D02*
X117947019Y-45896209D01*
X117947019Y-45896209D02*
X118089876Y-45800971D01*
X118089876Y-45800971D02*
X118185114Y-45705733D01*
X118185114Y-45705733D02*
X118232733Y-45610495D01*
X118947019Y-47134304D02*
X118947019Y-46562876D01*
X118947019Y-46848590D02*
X117947019Y-46848590D01*
X117947019Y-46848590D02*
X118089876Y-46753352D01*
X118089876Y-46753352D02*
X118185114Y-46658114D01*
X118185114Y-46658114D02*
X118232733Y-46562876D01*
%TO.C,D27*%
X177163819Y-97592714D02*
X176163819Y-97592714D01*
X176163819Y-97592714D02*
X176163819Y-97830809D01*
X176163819Y-97830809D02*
X176211438Y-97973666D01*
X176211438Y-97973666D02*
X176306676Y-98068904D01*
X176306676Y-98068904D02*
X176401914Y-98116523D01*
X176401914Y-98116523D02*
X176592390Y-98164142D01*
X176592390Y-98164142D02*
X176735247Y-98164142D01*
X176735247Y-98164142D02*
X176925723Y-98116523D01*
X176925723Y-98116523D02*
X177020961Y-98068904D01*
X177020961Y-98068904D02*
X177116200Y-97973666D01*
X177116200Y-97973666D02*
X177163819Y-97830809D01*
X177163819Y-97830809D02*
X177163819Y-97592714D01*
X176259057Y-98545095D02*
X176211438Y-98592714D01*
X176211438Y-98592714D02*
X176163819Y-98687952D01*
X176163819Y-98687952D02*
X176163819Y-98926047D01*
X176163819Y-98926047D02*
X176211438Y-99021285D01*
X176211438Y-99021285D02*
X176259057Y-99068904D01*
X176259057Y-99068904D02*
X176354295Y-99116523D01*
X176354295Y-99116523D02*
X176449533Y-99116523D01*
X176449533Y-99116523D02*
X176592390Y-99068904D01*
X176592390Y-99068904D02*
X177163819Y-98497476D01*
X177163819Y-98497476D02*
X177163819Y-99116523D01*
X176163819Y-99449857D02*
X176163819Y-100116523D01*
X176163819Y-100116523D02*
X177163819Y-99687952D01*
%TO.C,D28*%
X151027219Y-87863514D02*
X150027219Y-87863514D01*
X150027219Y-87863514D02*
X150027219Y-88101609D01*
X150027219Y-88101609D02*
X150074838Y-88244466D01*
X150074838Y-88244466D02*
X150170076Y-88339704D01*
X150170076Y-88339704D02*
X150265314Y-88387323D01*
X150265314Y-88387323D02*
X150455790Y-88434942D01*
X150455790Y-88434942D02*
X150598647Y-88434942D01*
X150598647Y-88434942D02*
X150789123Y-88387323D01*
X150789123Y-88387323D02*
X150884361Y-88339704D01*
X150884361Y-88339704D02*
X150979600Y-88244466D01*
X150979600Y-88244466D02*
X151027219Y-88101609D01*
X151027219Y-88101609D02*
X151027219Y-87863514D01*
X150122457Y-88815895D02*
X150074838Y-88863514D01*
X150074838Y-88863514D02*
X150027219Y-88958752D01*
X150027219Y-88958752D02*
X150027219Y-89196847D01*
X150027219Y-89196847D02*
X150074838Y-89292085D01*
X150074838Y-89292085D02*
X150122457Y-89339704D01*
X150122457Y-89339704D02*
X150217695Y-89387323D01*
X150217695Y-89387323D02*
X150312933Y-89387323D01*
X150312933Y-89387323D02*
X150455790Y-89339704D01*
X150455790Y-89339704D02*
X151027219Y-88768276D01*
X151027219Y-88768276D02*
X151027219Y-89387323D01*
X150455790Y-89958752D02*
X150408171Y-89863514D01*
X150408171Y-89863514D02*
X150360552Y-89815895D01*
X150360552Y-89815895D02*
X150265314Y-89768276D01*
X150265314Y-89768276D02*
X150217695Y-89768276D01*
X150217695Y-89768276D02*
X150122457Y-89815895D01*
X150122457Y-89815895D02*
X150074838Y-89863514D01*
X150074838Y-89863514D02*
X150027219Y-89958752D01*
X150027219Y-89958752D02*
X150027219Y-90149228D01*
X150027219Y-90149228D02*
X150074838Y-90244466D01*
X150074838Y-90244466D02*
X150122457Y-90292085D01*
X150122457Y-90292085D02*
X150217695Y-90339704D01*
X150217695Y-90339704D02*
X150265314Y-90339704D01*
X150265314Y-90339704D02*
X150360552Y-90292085D01*
X150360552Y-90292085D02*
X150408171Y-90244466D01*
X150408171Y-90244466D02*
X150455790Y-90149228D01*
X150455790Y-90149228D02*
X150455790Y-89958752D01*
X150455790Y-89958752D02*
X150503409Y-89863514D01*
X150503409Y-89863514D02*
X150551028Y-89815895D01*
X150551028Y-89815895D02*
X150646266Y-89768276D01*
X150646266Y-89768276D02*
X150836742Y-89768276D01*
X150836742Y-89768276D02*
X150931980Y-89815895D01*
X150931980Y-89815895D02*
X150979600Y-89863514D01*
X150979600Y-89863514D02*
X151027219Y-89958752D01*
X151027219Y-89958752D02*
X151027219Y-90149228D01*
X151027219Y-90149228D02*
X150979600Y-90244466D01*
X150979600Y-90244466D02*
X150931980Y-90292085D01*
X150931980Y-90292085D02*
X150836742Y-90339704D01*
X150836742Y-90339704D02*
X150646266Y-90339704D01*
X150646266Y-90339704D02*
X150551028Y-90292085D01*
X150551028Y-90292085D02*
X150503409Y-90244466D01*
X150503409Y-90244466D02*
X150455790Y-90149228D01*
%TO.C,D5*%
X138555819Y-94538305D02*
X137555819Y-94538305D01*
X137555819Y-94538305D02*
X137555819Y-94776400D01*
X137555819Y-94776400D02*
X137603438Y-94919257D01*
X137603438Y-94919257D02*
X137698676Y-95014495D01*
X137698676Y-95014495D02*
X137793914Y-95062114D01*
X137793914Y-95062114D02*
X137984390Y-95109733D01*
X137984390Y-95109733D02*
X138127247Y-95109733D01*
X138127247Y-95109733D02*
X138317723Y-95062114D01*
X138317723Y-95062114D02*
X138412961Y-95014495D01*
X138412961Y-95014495D02*
X138508200Y-94919257D01*
X138508200Y-94919257D02*
X138555819Y-94776400D01*
X138555819Y-94776400D02*
X138555819Y-94538305D01*
X137555819Y-96014495D02*
X137555819Y-95538305D01*
X137555819Y-95538305D02*
X138032009Y-95490686D01*
X138032009Y-95490686D02*
X137984390Y-95538305D01*
X137984390Y-95538305D02*
X137936771Y-95633543D01*
X137936771Y-95633543D02*
X137936771Y-95871638D01*
X137936771Y-95871638D02*
X137984390Y-95966876D01*
X137984390Y-95966876D02*
X138032009Y-96014495D01*
X138032009Y-96014495D02*
X138127247Y-96062114D01*
X138127247Y-96062114D02*
X138365342Y-96062114D01*
X138365342Y-96062114D02*
X138460580Y-96014495D01*
X138460580Y-96014495D02*
X138508200Y-95966876D01*
X138508200Y-95966876D02*
X138555819Y-95871638D01*
X138555819Y-95871638D02*
X138555819Y-95633543D01*
X138555819Y-95633543D02*
X138508200Y-95538305D01*
X138508200Y-95538305D02*
X138460580Y-95490686D01*
%TO.C,SW5*%
X210638181Y-39896619D02*
X210971514Y-39420428D01*
X211209609Y-39896619D02*
X211209609Y-38896619D01*
X211209609Y-38896619D02*
X210828657Y-38896619D01*
X210828657Y-38896619D02*
X210733419Y-38944238D01*
X210733419Y-38944238D02*
X210685800Y-38991857D01*
X210685800Y-38991857D02*
X210638181Y-39087095D01*
X210638181Y-39087095D02*
X210638181Y-39229952D01*
X210638181Y-39229952D02*
X210685800Y-39325190D01*
X210685800Y-39325190D02*
X210733419Y-39372809D01*
X210733419Y-39372809D02*
X210828657Y-39420428D01*
X210828657Y-39420428D02*
X211209609Y-39420428D01*
X210209609Y-39372809D02*
X209876276Y-39372809D01*
X209733419Y-39896619D02*
X210209609Y-39896619D01*
X210209609Y-39896619D02*
X210209609Y-38896619D01*
X210209609Y-38896619D02*
X209733419Y-38896619D01*
X209352466Y-39849000D02*
X209209609Y-39896619D01*
X209209609Y-39896619D02*
X208971514Y-39896619D01*
X208971514Y-39896619D02*
X208876276Y-39849000D01*
X208876276Y-39849000D02*
X208828657Y-39801380D01*
X208828657Y-39801380D02*
X208781038Y-39706142D01*
X208781038Y-39706142D02*
X208781038Y-39610904D01*
X208781038Y-39610904D02*
X208828657Y-39515666D01*
X208828657Y-39515666D02*
X208876276Y-39468047D01*
X208876276Y-39468047D02*
X208971514Y-39420428D01*
X208971514Y-39420428D02*
X209161990Y-39372809D01*
X209161990Y-39372809D02*
X209257228Y-39325190D01*
X209257228Y-39325190D02*
X209304847Y-39277571D01*
X209304847Y-39277571D02*
X209352466Y-39182333D01*
X209352466Y-39182333D02*
X209352466Y-39087095D01*
X209352466Y-39087095D02*
X209304847Y-38991857D01*
X209304847Y-38991857D02*
X209257228Y-38944238D01*
X209257228Y-38944238D02*
X209161990Y-38896619D01*
X209161990Y-38896619D02*
X208923895Y-38896619D01*
X208923895Y-38896619D02*
X208781038Y-38944238D01*
X208352466Y-39372809D02*
X208019133Y-39372809D01*
X207876276Y-39896619D02*
X208352466Y-39896619D01*
X208352466Y-39896619D02*
X208352466Y-38896619D01*
X208352466Y-38896619D02*
X207876276Y-38896619D01*
X207590561Y-38896619D02*
X207019133Y-38896619D01*
X207304847Y-39896619D02*
X207304847Y-38896619D01*
%TO.C,D2*%
X119926419Y-40150505D02*
X118926419Y-40150505D01*
X118926419Y-40150505D02*
X118926419Y-40388600D01*
X118926419Y-40388600D02*
X118974038Y-40531457D01*
X118974038Y-40531457D02*
X119069276Y-40626695D01*
X119069276Y-40626695D02*
X119164514Y-40674314D01*
X119164514Y-40674314D02*
X119354990Y-40721933D01*
X119354990Y-40721933D02*
X119497847Y-40721933D01*
X119497847Y-40721933D02*
X119688323Y-40674314D01*
X119688323Y-40674314D02*
X119783561Y-40626695D01*
X119783561Y-40626695D02*
X119878800Y-40531457D01*
X119878800Y-40531457D02*
X119926419Y-40388600D01*
X119926419Y-40388600D02*
X119926419Y-40150505D01*
X119021657Y-41102886D02*
X118974038Y-41150505D01*
X118974038Y-41150505D02*
X118926419Y-41245743D01*
X118926419Y-41245743D02*
X118926419Y-41483838D01*
X118926419Y-41483838D02*
X118974038Y-41579076D01*
X118974038Y-41579076D02*
X119021657Y-41626695D01*
X119021657Y-41626695D02*
X119116895Y-41674314D01*
X119116895Y-41674314D02*
X119212133Y-41674314D01*
X119212133Y-41674314D02*
X119354990Y-41626695D01*
X119354990Y-41626695D02*
X119926419Y-41055267D01*
X119926419Y-41055267D02*
X119926419Y-41674314D01*
%TO.C,D20*%
X100303419Y-58120114D02*
X99303419Y-58120114D01*
X99303419Y-58120114D02*
X99303419Y-58358209D01*
X99303419Y-58358209D02*
X99351038Y-58501066D01*
X99351038Y-58501066D02*
X99446276Y-58596304D01*
X99446276Y-58596304D02*
X99541514Y-58643923D01*
X99541514Y-58643923D02*
X99731990Y-58691542D01*
X99731990Y-58691542D02*
X99874847Y-58691542D01*
X99874847Y-58691542D02*
X100065323Y-58643923D01*
X100065323Y-58643923D02*
X100160561Y-58596304D01*
X100160561Y-58596304D02*
X100255800Y-58501066D01*
X100255800Y-58501066D02*
X100303419Y-58358209D01*
X100303419Y-58358209D02*
X100303419Y-58120114D01*
X99398657Y-59072495D02*
X99351038Y-59120114D01*
X99351038Y-59120114D02*
X99303419Y-59215352D01*
X99303419Y-59215352D02*
X99303419Y-59453447D01*
X99303419Y-59453447D02*
X99351038Y-59548685D01*
X99351038Y-59548685D02*
X99398657Y-59596304D01*
X99398657Y-59596304D02*
X99493895Y-59643923D01*
X99493895Y-59643923D02*
X99589133Y-59643923D01*
X99589133Y-59643923D02*
X99731990Y-59596304D01*
X99731990Y-59596304D02*
X100303419Y-59024876D01*
X100303419Y-59024876D02*
X100303419Y-59643923D01*
X99303419Y-60262971D02*
X99303419Y-60358209D01*
X99303419Y-60358209D02*
X99351038Y-60453447D01*
X99351038Y-60453447D02*
X99398657Y-60501066D01*
X99398657Y-60501066D02*
X99493895Y-60548685D01*
X99493895Y-60548685D02*
X99684371Y-60596304D01*
X99684371Y-60596304D02*
X99922466Y-60596304D01*
X99922466Y-60596304D02*
X100112942Y-60548685D01*
X100112942Y-60548685D02*
X100208180Y-60501066D01*
X100208180Y-60501066D02*
X100255800Y-60453447D01*
X100255800Y-60453447D02*
X100303419Y-60358209D01*
X100303419Y-60358209D02*
X100303419Y-60262971D01*
X100303419Y-60262971D02*
X100255800Y-60167733D01*
X100255800Y-60167733D02*
X100208180Y-60120114D01*
X100208180Y-60120114D02*
X100112942Y-60072495D01*
X100112942Y-60072495D02*
X99922466Y-60024876D01*
X99922466Y-60024876D02*
X99684371Y-60024876D01*
X99684371Y-60024876D02*
X99493895Y-60072495D01*
X99493895Y-60072495D02*
X99398657Y-60120114D01*
X99398657Y-60120114D02*
X99351038Y-60167733D01*
X99351038Y-60167733D02*
X99303419Y-60262971D01*
%TO.C,SW40*%
X71174181Y-39896619D02*
X71507514Y-39420428D01*
X71745609Y-39896619D02*
X71745609Y-38896619D01*
X71745609Y-38896619D02*
X71364657Y-38896619D01*
X71364657Y-38896619D02*
X71269419Y-38944238D01*
X71269419Y-38944238D02*
X71221800Y-38991857D01*
X71221800Y-38991857D02*
X71174181Y-39087095D01*
X71174181Y-39087095D02*
X71174181Y-39229952D01*
X71174181Y-39229952D02*
X71221800Y-39325190D01*
X71221800Y-39325190D02*
X71269419Y-39372809D01*
X71269419Y-39372809D02*
X71364657Y-39420428D01*
X71364657Y-39420428D02*
X71745609Y-39420428D01*
X70745609Y-39372809D02*
X70412276Y-39372809D01*
X70269419Y-39896619D02*
X70745609Y-39896619D01*
X70745609Y-39896619D02*
X70745609Y-38896619D01*
X70745609Y-38896619D02*
X70269419Y-38896619D01*
X69888466Y-39849000D02*
X69745609Y-39896619D01*
X69745609Y-39896619D02*
X69507514Y-39896619D01*
X69507514Y-39896619D02*
X69412276Y-39849000D01*
X69412276Y-39849000D02*
X69364657Y-39801380D01*
X69364657Y-39801380D02*
X69317038Y-39706142D01*
X69317038Y-39706142D02*
X69317038Y-39610904D01*
X69317038Y-39610904D02*
X69364657Y-39515666D01*
X69364657Y-39515666D02*
X69412276Y-39468047D01*
X69412276Y-39468047D02*
X69507514Y-39420428D01*
X69507514Y-39420428D02*
X69697990Y-39372809D01*
X69697990Y-39372809D02*
X69793228Y-39325190D01*
X69793228Y-39325190D02*
X69840847Y-39277571D01*
X69840847Y-39277571D02*
X69888466Y-39182333D01*
X69888466Y-39182333D02*
X69888466Y-39087095D01*
X69888466Y-39087095D02*
X69840847Y-38991857D01*
X69840847Y-38991857D02*
X69793228Y-38944238D01*
X69793228Y-38944238D02*
X69697990Y-38896619D01*
X69697990Y-38896619D02*
X69459895Y-38896619D01*
X69459895Y-38896619D02*
X69317038Y-38944238D01*
X68888466Y-39372809D02*
X68555133Y-39372809D01*
X68412276Y-39896619D02*
X68888466Y-39896619D01*
X68888466Y-39896619D02*
X68888466Y-38896619D01*
X68888466Y-38896619D02*
X68412276Y-38896619D01*
X68126561Y-38896619D02*
X67555133Y-38896619D01*
X67840847Y-39896619D02*
X67840847Y-38896619D01*
%TO.C,D38*%
X65544019Y-89006514D02*
X64544019Y-89006514D01*
X64544019Y-89006514D02*
X64544019Y-89244609D01*
X64544019Y-89244609D02*
X64591638Y-89387466D01*
X64591638Y-89387466D02*
X64686876Y-89482704D01*
X64686876Y-89482704D02*
X64782114Y-89530323D01*
X64782114Y-89530323D02*
X64972590Y-89577942D01*
X64972590Y-89577942D02*
X65115447Y-89577942D01*
X65115447Y-89577942D02*
X65305923Y-89530323D01*
X65305923Y-89530323D02*
X65401161Y-89482704D01*
X65401161Y-89482704D02*
X65496400Y-89387466D01*
X65496400Y-89387466D02*
X65544019Y-89244609D01*
X65544019Y-89244609D02*
X65544019Y-89006514D01*
X64544019Y-89911276D02*
X64544019Y-90530323D01*
X64544019Y-90530323D02*
X64924971Y-90196990D01*
X64924971Y-90196990D02*
X64924971Y-90339847D01*
X64924971Y-90339847D02*
X64972590Y-90435085D01*
X64972590Y-90435085D02*
X65020209Y-90482704D01*
X65020209Y-90482704D02*
X65115447Y-90530323D01*
X65115447Y-90530323D02*
X65353542Y-90530323D01*
X65353542Y-90530323D02*
X65448780Y-90482704D01*
X65448780Y-90482704D02*
X65496400Y-90435085D01*
X65496400Y-90435085D02*
X65544019Y-90339847D01*
X65544019Y-90339847D02*
X65544019Y-90054133D01*
X65544019Y-90054133D02*
X65496400Y-89958895D01*
X65496400Y-89958895D02*
X65448780Y-89911276D01*
X64972590Y-91101752D02*
X64924971Y-91006514D01*
X64924971Y-91006514D02*
X64877352Y-90958895D01*
X64877352Y-90958895D02*
X64782114Y-90911276D01*
X64782114Y-90911276D02*
X64734495Y-90911276D01*
X64734495Y-90911276D02*
X64639257Y-90958895D01*
X64639257Y-90958895D02*
X64591638Y-91006514D01*
X64591638Y-91006514D02*
X64544019Y-91101752D01*
X64544019Y-91101752D02*
X64544019Y-91292228D01*
X64544019Y-91292228D02*
X64591638Y-91387466D01*
X64591638Y-91387466D02*
X64639257Y-91435085D01*
X64639257Y-91435085D02*
X64734495Y-91482704D01*
X64734495Y-91482704D02*
X64782114Y-91482704D01*
X64782114Y-91482704D02*
X64877352Y-91435085D01*
X64877352Y-91435085D02*
X64924971Y-91387466D01*
X64924971Y-91387466D02*
X64972590Y-91292228D01*
X64972590Y-91292228D02*
X64972590Y-91101752D01*
X64972590Y-91101752D02*
X65020209Y-91006514D01*
X65020209Y-91006514D02*
X65067828Y-90958895D01*
X65067828Y-90958895D02*
X65163066Y-90911276D01*
X65163066Y-90911276D02*
X65353542Y-90911276D01*
X65353542Y-90911276D02*
X65448780Y-90958895D01*
X65448780Y-90958895D02*
X65496400Y-91006514D01*
X65496400Y-91006514D02*
X65544019Y-91101752D01*
X65544019Y-91101752D02*
X65544019Y-91292228D01*
X65544019Y-91292228D02*
X65496400Y-91387466D01*
X65496400Y-91387466D02*
X65448780Y-91435085D01*
X65448780Y-91435085D02*
X65353542Y-91482704D01*
X65353542Y-91482704D02*
X65163066Y-91482704D01*
X65163066Y-91482704D02*
X65067828Y-91435085D01*
X65067828Y-91435085D02*
X65020209Y-91387466D01*
X65020209Y-91387466D02*
X64972590Y-91292228D01*
%TO.C,SW12*%
X162927982Y-54565202D02*
X162927982Y-55165202D01*
X164847982Y-51505202D02*
X169927982Y-51505202D01*
X164847982Y-52521202D02*
X164847982Y-51505202D01*
X164847982Y-55950202D02*
X164847982Y-55569202D01*
X172392144Y-49600202D02*
X174118982Y-49600202D01*
X173737982Y-55950202D02*
X164847982Y-55950202D01*
X175896982Y-49600202D02*
X176277982Y-49600202D01*
X176277982Y-49981202D02*
X176277982Y-49600202D01*
X176277982Y-53410202D02*
X176277982Y-53029202D01*
X169927982Y-51505201D02*
G75*
G03*
X172392143Y-49581242I0J2539999D01*
G01*
X173737982Y-55950202D02*
G75*
G03*
X176277982Y-53410202I0J2540000D01*
G01*
%TO.C,SW31*%
X162927982Y-87565202D02*
X162927982Y-88165202D01*
X164847982Y-84505202D02*
X169927982Y-84505202D01*
X164847982Y-85521202D02*
X164847982Y-84505202D01*
X164847982Y-88950202D02*
X164847982Y-88569202D01*
X172392144Y-82600202D02*
X174118982Y-82600202D01*
X173737982Y-88950202D02*
X164847982Y-88950202D01*
X175896982Y-82600202D02*
X176277982Y-82600202D01*
X176277982Y-82981202D02*
X176277982Y-82600202D01*
X176277982Y-86410202D02*
X176277982Y-86029202D01*
X169927982Y-84505201D02*
G75*
G03*
X172392143Y-82581242I0J2539999D01*
G01*
X173737982Y-88950202D02*
G75*
G03*
X176277982Y-86410202I0J2540000D01*
G01*
%TO.C,SW7*%
X64181626Y-59586292D02*
X64265130Y-60180453D01*
X65657071Y-56288859D02*
X70687633Y-55581860D01*
X65798471Y-57294972D02*
X65657071Y-56288859D01*
X66275695Y-60690601D02*
X66222670Y-60313309D01*
X72862689Y-53352454D02*
X74572721Y-53112125D01*
X75079178Y-59453352D02*
X66275695Y-60690601D01*
X76333418Y-52864675D02*
X76710710Y-52811650D01*
X76763735Y-53188942D02*
X76710710Y-52811650D01*
X77240960Y-56584571D02*
X77187935Y-56207279D01*
X70687633Y-55581860D02*
G75*
G03*
X72860050Y-53333679I-353502J2515283D01*
G01*
X75079178Y-59453352D02*
G75*
G03*
X77240960Y-56584571I-353499J2515281D01*
G01*
%TO.C,SW20*%
X196147152Y-57910988D02*
X196199445Y-57313271D01*
X193967762Y-60792005D02*
X188907093Y-60349253D01*
X194056312Y-59779871D02*
X193967762Y-60792005D01*
X194355169Y-56363919D02*
X194321963Y-56743469D01*
X186286276Y-62032238D02*
X184566009Y-61881735D01*
X185498998Y-55589105D02*
X194355169Y-56363919D01*
X182794775Y-61726772D02*
X182415225Y-61693565D01*
X182448431Y-61314015D02*
X182415225Y-61693565D01*
X182747288Y-57898064D02*
X182714082Y-58277614D01*
X188907093Y-60349253D02*
G75*
G03*
X186284623Y-62051126I-221376J-2530335D01*
G01*
X185498998Y-55589106D02*
G75*
G03*
X182747288Y-57898064I-221376J-2530333D01*
G01*
%TO.C,SW6*%
X47746382Y-75597629D02*
X47891535Y-76179807D01*
X48869068Y-72164034D02*
X53798171Y-70935071D01*
X49114861Y-73149855D02*
X48869068Y-72164034D01*
X49944411Y-76476999D02*
X49852239Y-76107316D01*
X55728275Y-68490523D02*
X57403819Y-68072763D01*
X58570340Y-74326313D02*
X49944411Y-76476999D01*
X59129005Y-67642626D02*
X59498687Y-67550454D01*
X59590860Y-67920136D02*
X59498687Y-67550454D01*
X60420410Y-71247280D02*
X60328237Y-70877598D01*
X53798171Y-70935070D02*
G75*
G03*
X55723687Y-68472126I-614482J2464550D01*
G01*
X58570340Y-74326312D02*
G75*
G03*
X60420409Y-71247280I-614481J2464550D01*
G01*
%TO.C,SW4*%
X233819109Y-64730317D02*
X233964262Y-64148140D01*
X231215860Y-67234932D02*
X226286758Y-66005969D01*
X231461653Y-66249112D02*
X231215860Y-67234932D01*
X232291203Y-62921968D02*
X232199030Y-63291650D01*
X223434931Y-67258247D02*
X221759387Y-66840488D01*
X223665274Y-60771282D02*
X232291203Y-62921968D01*
X220034201Y-66410350D02*
X219664519Y-66318178D01*
X219756691Y-65948496D02*
X219664519Y-66318178D01*
X220586241Y-62621351D02*
X220494069Y-62991034D01*
X226286758Y-66005970D02*
G75*
G03*
X223430345Y-67276644I-614482J-2464550D01*
G01*
X223665274Y-60771283D02*
G75*
G03*
X220586242Y-62621351I-614482J-2464550D01*
G01*
%TO.C,SW9*%
X101927982Y-54565202D02*
X101927982Y-55165202D01*
X103847982Y-51505202D02*
X108927982Y-51505202D01*
X103847982Y-52521202D02*
X103847982Y-51505202D01*
X103847982Y-55950202D02*
X103847982Y-55569202D01*
X111392144Y-49600202D02*
X113118982Y-49600202D01*
X112737982Y-55950202D02*
X103847982Y-55950202D01*
X114896982Y-49600202D02*
X115277982Y-49600202D01*
X115277982Y-49981202D02*
X115277982Y-49600202D01*
X115277982Y-53410202D02*
X115277982Y-53029202D01*
X108927982Y-51505201D02*
G75*
G03*
X111392143Y-49581242I0J2539999D01*
G01*
X112737982Y-55950202D02*
G75*
G03*
X115277982Y-53410202I0J2540000D01*
G01*
%TO.C,SW33*%
X156802982Y-94240202D02*
X156802982Y-93640202D01*
X154882982Y-97300202D02*
X149802982Y-97300202D01*
X154882982Y-96284202D02*
X154882982Y-97300202D01*
X154882982Y-92855202D02*
X154882982Y-93236202D01*
X147338820Y-99205202D02*
X145611982Y-99205202D01*
X145992982Y-92855202D02*
X154882982Y-92855202D01*
X143833982Y-99205202D02*
X143452982Y-99205202D01*
X143452982Y-98824202D02*
X143452982Y-99205202D01*
X143452982Y-95395202D02*
X143452982Y-95776202D01*
X149802982Y-97300203D02*
G75*
G03*
X147338821Y-99224162I0J-2539999D01*
G01*
X145992982Y-92855202D02*
G75*
G03*
X143452982Y-95395202I0J-2540000D01*
G01*
%TO.C,SW16*%
X62612707Y-77353291D02*
X62467554Y-76771113D01*
X61490021Y-80786886D02*
X56560918Y-82015849D01*
X61244228Y-79801065D02*
X61490021Y-80786886D01*
X60414678Y-76473921D02*
X60506850Y-76843604D01*
X54630814Y-84460397D02*
X52955270Y-84878157D01*
X51788749Y-78624607D02*
X60414678Y-76473921D01*
X51230084Y-85308294D02*
X50860402Y-85400466D01*
X50768229Y-85030784D02*
X50860402Y-85400466D01*
X49938679Y-81703640D02*
X50030852Y-82073322D01*
X56560918Y-82015850D02*
G75*
G03*
X54635402Y-84478794I614482J-2464550D01*
G01*
X51788749Y-78624608D02*
G75*
G03*
X49938680Y-81703640I614481J-2464550D01*
G01*
%TO.C,SW3*%
X122052982Y-105440202D02*
X122052982Y-106040202D01*
X123972982Y-102380202D02*
X129052982Y-102380202D01*
X123972982Y-103396202D02*
X123972982Y-102380202D01*
X123972982Y-106825202D02*
X123972982Y-106444202D01*
X131517144Y-100475202D02*
X133243982Y-100475202D01*
X132862982Y-106825202D02*
X123972982Y-106825202D01*
X135021982Y-100475202D02*
X135402982Y-100475202D01*
X135402982Y-100856202D02*
X135402982Y-100475202D01*
X135402982Y-104285202D02*
X135402982Y-103904202D01*
X129052982Y-102380201D02*
G75*
G03*
X131517143Y-100456242I0J2539999D01*
G01*
X132862982Y-106825202D02*
G75*
G03*
X135402982Y-104285202I0J2540000D01*
G01*
%TO.C,SW10*%
X200810586Y-57637868D02*
X200727082Y-58232029D01*
X203137771Y-54874861D02*
X208168332Y-55581860D01*
X202996371Y-55880973D02*
X203137771Y-54874861D01*
X202519146Y-59276602D02*
X202572171Y-58899310D01*
X210873638Y-54038344D02*
X212583671Y-54278674D01*
X211322629Y-60513851D02*
X202519146Y-59276602D01*
X214344367Y-54526123D02*
X214721659Y-54579148D01*
X214668634Y-54956441D02*
X214721659Y-54579148D01*
X214191410Y-58352070D02*
X214244435Y-57974778D01*
X208168332Y-55581860D02*
G75*
G03*
X210876277Y-54019569I353500J2515281D01*
G01*
X211322629Y-60513851D02*
G75*
G03*
X214191410Y-58352070I353500J2515281D01*
G01*
%TO.C,SW14*%
X229827398Y-80740197D02*
X229972551Y-80158020D01*
X227224149Y-83244812D02*
X222295047Y-82015849D01*
X227469942Y-82258992D02*
X227224149Y-83244812D01*
X228299492Y-78931848D02*
X228207319Y-79301530D01*
X219443220Y-83268127D02*
X217767676Y-82850368D01*
X219673563Y-76781162D02*
X228299492Y-78931848D01*
X216042490Y-82420230D02*
X215672808Y-82328058D01*
X215764980Y-81958376D02*
X215672808Y-82328058D01*
X216594530Y-78631231D02*
X216502358Y-79000914D01*
X222295047Y-82015850D02*
G75*
G03*
X219438634Y-83286524I-614482J-2464550D01*
G01*
X219673563Y-76781163D02*
G75*
G03*
X216594531Y-78631231I-614482J-2464550D01*
G01*
%TO.C,SW17*%
X78782996Y-62886289D02*
X78699492Y-62292128D01*
X77307551Y-66183722D02*
X72276989Y-66890721D01*
X77166151Y-65177609D02*
X77307551Y-66183722D01*
X76688927Y-61781980D02*
X76741952Y-62159272D01*
X70101933Y-69120127D02*
X68391901Y-69360456D01*
X67885444Y-63019229D02*
X76688927Y-61781980D01*
X66631204Y-69607906D02*
X66253912Y-69660931D01*
X66200887Y-69283639D02*
X66253912Y-69660931D01*
X65723662Y-65888010D02*
X65776687Y-66265302D01*
X72276989Y-66890721D02*
G75*
G03*
X70104572Y-69138902I353502J-2515283D01*
G01*
X67885444Y-63019229D02*
G75*
G03*
X65723662Y-65888010I353499J-2515281D01*
G01*
%TO.C,SW22*%
X146427982Y-79315202D02*
X146427982Y-79915202D01*
X148347982Y-76255202D02*
X153427982Y-76255202D01*
X148347982Y-77271202D02*
X148347982Y-76255202D01*
X148347982Y-80700202D02*
X148347982Y-80319202D01*
X155892144Y-74350202D02*
X157618982Y-74350202D01*
X157237982Y-80700202D02*
X148347982Y-80700202D01*
X159396982Y-74350202D02*
X159777982Y-74350202D01*
X159777982Y-74731202D02*
X159777982Y-74350202D01*
X159777982Y-78160202D02*
X159777982Y-77779202D01*
X153427982Y-76255201D02*
G75*
G03*
X155892143Y-74331242I0J2539999D01*
G01*
X157237982Y-80700202D02*
G75*
G03*
X159777982Y-78160202I0J2540000D01*
G01*
%TO.C,SW27*%
X85123027Y-85505581D02*
X85175321Y-86103297D01*
X86769025Y-82289886D02*
X91829694Y-81847135D01*
X86857575Y-83302020D02*
X86769025Y-82289886D01*
X87156432Y-86717971D02*
X87123225Y-86338421D01*
X94118447Y-79734618D02*
X95838714Y-79584114D01*
X96012603Y-85943157D02*
X87156432Y-86717971D01*
X97609948Y-79429151D02*
X97989498Y-79395945D01*
X98022705Y-79775495D02*
X97989498Y-79395945D01*
X98321562Y-83191446D02*
X98288355Y-82811896D01*
X91829694Y-81847134D02*
G75*
G03*
X94116794Y-79715730I-221378J2530336D01*
G01*
X96012603Y-85943157D02*
G75*
G03*
X98321562Y-83191446I-221376J2530335D01*
G01*
%TO.C,SW2*%
X118740482Y-79315202D02*
X118740482Y-79915202D01*
X120660482Y-76255202D02*
X125740482Y-76255202D01*
X120660482Y-77271202D02*
X120660482Y-76255202D01*
X120660482Y-80700202D02*
X120660482Y-80319202D01*
X128204644Y-74350202D02*
X129931482Y-74350202D01*
X129550482Y-80700202D02*
X120660482Y-80700202D01*
X131709482Y-74350202D02*
X132090482Y-74350202D01*
X132090482Y-74731202D02*
X132090482Y-74350202D01*
X132090482Y-78160202D02*
X132090482Y-77779202D01*
X125740482Y-76255201D02*
G75*
G03*
X128204643Y-74331242I0J2539999D01*
G01*
X129550482Y-80700202D02*
G75*
G03*
X132090482Y-78160202I0J2540000D01*
G01*
%TO.C,SW1*%
X118427982Y-62815202D02*
X118427982Y-63415202D01*
X120347982Y-59755202D02*
X125427982Y-59755202D01*
X120347982Y-60771202D02*
X120347982Y-59755202D01*
X120347982Y-64200202D02*
X120347982Y-63819202D01*
X127892144Y-57850202D02*
X129618982Y-57850202D01*
X129237982Y-64200202D02*
X120347982Y-64200202D01*
X131396982Y-57850202D02*
X131777982Y-57850202D01*
X131777982Y-58231202D02*
X131777982Y-57850202D01*
X131777982Y-61660202D02*
X131777982Y-61279202D01*
X125427982Y-59755201D02*
G75*
G03*
X127892143Y-57831242I0J2539999D01*
G01*
X129237982Y-64200202D02*
G75*
G03*
X131777982Y-61660202I0J2540000D01*
G01*
%TO.C,SW29*%
X119552982Y-96365202D02*
X119552982Y-95765202D01*
X117632982Y-99425202D02*
X112552982Y-99425202D01*
X117632982Y-98409202D02*
X117632982Y-99425202D01*
X117632982Y-94980202D02*
X117632982Y-95361202D01*
X110088820Y-101330202D02*
X108361982Y-101330202D01*
X108742982Y-94980202D02*
X117632982Y-94980202D01*
X106583982Y-101330202D02*
X106202982Y-101330202D01*
X106202982Y-100949202D02*
X106202982Y-101330202D01*
X106202982Y-97520202D02*
X106202982Y-97901202D01*
X112552982Y-99425203D02*
G75*
G03*
X110088821Y-101349162I0J-2539999D01*
G01*
X108742982Y-94980202D02*
G75*
G03*
X106202982Y-97520202I0J-2540000D01*
G01*
%TO.C,SW15*%
X213936722Y-64834713D02*
X214020226Y-64240552D01*
X211609537Y-67597720D02*
X206578976Y-66890721D01*
X211750937Y-66591608D02*
X211609537Y-67597720D01*
X212228162Y-63195979D02*
X212175137Y-63573271D01*
X203873670Y-68434237D02*
X202163637Y-68193907D01*
X203424679Y-61958730D02*
X212228162Y-63195979D01*
X200402941Y-67946458D02*
X200025649Y-67893433D01*
X200078674Y-67516140D02*
X200025649Y-67893433D01*
X200555898Y-64120511D02*
X200502873Y-64497803D01*
X206578976Y-66890721D02*
G75*
G03*
X203871031Y-68453012I-353500J-2515281D01*
G01*
X203424679Y-61958730D02*
G75*
G03*
X200555898Y-64120511I-353500J-2515281D01*
G01*
%TO.C,SW32*%
X159302982Y-107565202D02*
X159302982Y-108165202D01*
X161222982Y-104505202D02*
X166302982Y-104505202D01*
X161222982Y-105521202D02*
X161222982Y-104505202D01*
X161222982Y-108950202D02*
X161222982Y-108569202D01*
X168767144Y-102600202D02*
X170493982Y-102600202D01*
X170112982Y-108950202D02*
X161222982Y-108950202D01*
X172271982Y-102600202D02*
X172652982Y-102600202D01*
X172652982Y-102981202D02*
X172652982Y-102600202D01*
X172652982Y-106410202D02*
X172652982Y-106029202D01*
X166302982Y-104505201D02*
G75*
G03*
X168767143Y-102581242I0J2539999D01*
G01*
X170112982Y-108950202D02*
G75*
G03*
X172652982Y-106410202I0J2540000D01*
G01*
%TO.C,SW11*%
X182662351Y-51410975D02*
X182610058Y-52008692D01*
X184841741Y-48529958D02*
X189902410Y-48972710D01*
X184753191Y-49542092D02*
X184841741Y-48529958D01*
X184454334Y-52958044D02*
X184487540Y-52578494D01*
X192523227Y-47289725D02*
X194243494Y-47440228D01*
X193310505Y-53732858D02*
X184454334Y-52958044D01*
X196014728Y-47595191D02*
X196394278Y-47628398D01*
X196361072Y-48007948D02*
X196394278Y-47628398D01*
X196062215Y-51423899D02*
X196095421Y-51044349D01*
X189902410Y-48972710D02*
G75*
G03*
X192524880Y-47270837I221376J2530335D01*
G01*
X193310505Y-53732857D02*
G75*
G03*
X196062215Y-51423899I221376J2530333D01*
G01*
%TO.C,SW23*%
X196217874Y-90316714D02*
X196134370Y-90910875D01*
X198545059Y-87553707D02*
X203575620Y-88260706D01*
X198403659Y-88559819D02*
X198545059Y-87553707D01*
X197926434Y-91955448D02*
X197979459Y-91578156D01*
X206280926Y-86717190D02*
X207990959Y-86957520D01*
X206729917Y-93192697D02*
X197926434Y-91955448D01*
X209751655Y-87204969D02*
X210128947Y-87257994D01*
X210075922Y-87635287D02*
X210128947Y-87257994D01*
X209598698Y-91030916D02*
X209651723Y-90653624D01*
X203575620Y-88260706D02*
G75*
G03*
X206283565Y-86698415I353500J2515281D01*
G01*
X206729917Y-93192697D02*
G75*
G03*
X209598698Y-91030916I353500J2515281D01*
G01*
%TO.C,SW24*%
X194807644Y-74348200D02*
X194859937Y-73750483D01*
X192628254Y-77229217D02*
X187567585Y-76786465D01*
X192716804Y-76217083D02*
X192628254Y-77229217D01*
X193015661Y-72801131D02*
X192982455Y-73180681D01*
X184946768Y-78469450D02*
X183226501Y-78318947D01*
X184159490Y-72026317D02*
X193015661Y-72801131D01*
X181455267Y-78163984D02*
X181075717Y-78130777D01*
X181108923Y-77751227D02*
X181075717Y-78130777D01*
X181407780Y-74335276D02*
X181374574Y-74714826D01*
X187567585Y-76786465D02*
G75*
G03*
X184945115Y-78488338I-221376J-2530335D01*
G01*
X184159490Y-72026318D02*
G75*
G03*
X181407780Y-74335276I-221376J-2530333D01*
G01*
D11*
%TO.C,SW35*%
X193651000Y-108783200D02*
X193651000Y-96983200D01*
X189551000Y-108783200D02*
X193651000Y-108783200D01*
X189551000Y-96983200D02*
X193651000Y-96983200D01*
X188051000Y-102883200D02*
X187051000Y-102883200D01*
X187551000Y-103383200D02*
X187551000Y-102383200D01*
X185551000Y-108783200D02*
X181451000Y-108783200D01*
X181451000Y-108783200D02*
X181451000Y-106383200D01*
X181451000Y-104183200D02*
X181451000Y-101583200D01*
X181451000Y-99383200D02*
X181451000Y-96983200D01*
X181451000Y-96983200D02*
X185551000Y-96983200D01*
X190551000Y-102883200D02*
G75*
G03*
X190551000Y-102883200I-3000000J0D01*
G01*
%TO.C,SW34*%
X85444200Y-96907000D02*
X85444200Y-108707000D01*
X89544200Y-96907000D02*
X85444200Y-96907000D01*
X89544200Y-108707000D02*
X85444200Y-108707000D01*
X91044200Y-102807000D02*
X92044200Y-102807000D01*
X91544200Y-102307000D02*
X91544200Y-103307000D01*
X93544200Y-96907000D02*
X97644200Y-96907000D01*
X97644200Y-96907000D02*
X97644200Y-99307000D01*
X97644200Y-101507000D02*
X97644200Y-104107000D01*
X97644200Y-106307000D02*
X97644200Y-108707000D01*
X97644200Y-108707000D02*
X93544200Y-108707000D01*
X94544200Y-102807000D02*
G75*
G03*
X94544200Y-102807000I-3000000J0D01*
G01*
D10*
%TO.C,SW13*%
X146427982Y-62815202D02*
X146427982Y-63415202D01*
X148347982Y-59755202D02*
X153427982Y-59755202D01*
X148347982Y-60771202D02*
X148347982Y-59755202D01*
X148347982Y-64200202D02*
X148347982Y-63819202D01*
X155892144Y-57850202D02*
X157618982Y-57850202D01*
X157237982Y-64200202D02*
X148347982Y-64200202D01*
X159396982Y-57850202D02*
X159777982Y-57850202D01*
X159777982Y-58231202D02*
X159777982Y-57850202D01*
X159777982Y-61660202D02*
X159777982Y-61279202D01*
X153427982Y-59755201D02*
G75*
G03*
X155892143Y-57831242I0J2539999D01*
G01*
X157237982Y-64200202D02*
G75*
G03*
X159777982Y-61660202I0J2540000D01*
G01*
%TO.C,SW19*%
X101927982Y-71065202D02*
X101927982Y-71665202D01*
X103847982Y-68005202D02*
X108927982Y-68005202D01*
X103847982Y-69021202D02*
X103847982Y-68005202D01*
X103847982Y-72450202D02*
X103847982Y-72069202D01*
X111392144Y-66100202D02*
X113118982Y-66100202D01*
X112737982Y-72450202D02*
X103847982Y-72450202D01*
X114896982Y-66100202D02*
X115277982Y-66100202D01*
X115277982Y-66481202D02*
X115277982Y-66100202D01*
X115277982Y-69910202D02*
X115277982Y-69529202D01*
X108927982Y-68005201D02*
G75*
G03*
X111392143Y-66081242I0J2539999D01*
G01*
X112737982Y-72450202D02*
G75*
G03*
X115277982Y-69910202I0J2540000D01*
G01*
%TO.C,SW26*%
X81079352Y-79225712D02*
X80995848Y-78631551D01*
X79603907Y-82523145D02*
X74573345Y-83230144D01*
X79462507Y-81517032D02*
X79603907Y-82523145D01*
X78985283Y-78121403D02*
X79038308Y-78498695D01*
X72398289Y-85459550D02*
X70688257Y-85699879D01*
X70181800Y-79358652D02*
X78985283Y-78121403D01*
X68927560Y-85947329D02*
X68550268Y-86000354D01*
X68497243Y-85623062D02*
X68550268Y-86000354D01*
X68020018Y-82227433D02*
X68073043Y-82604725D01*
X74573345Y-83230144D02*
G75*
G03*
X72400928Y-85478325I353502J-2515283D01*
G01*
X70181800Y-79358652D02*
G75*
G03*
X68020018Y-82227433I353499J-2515281D01*
G01*
%TO.C,SW28*%
X102240482Y-87565202D02*
X102240482Y-88165202D01*
X104160482Y-84505202D02*
X109240482Y-84505202D01*
X104160482Y-85521202D02*
X104160482Y-84505202D01*
X104160482Y-88950202D02*
X104160482Y-88569202D01*
X111704644Y-82600202D02*
X113431482Y-82600202D01*
X113050482Y-88950202D02*
X104160482Y-88950202D01*
X115209482Y-82600202D02*
X115590482Y-82600202D01*
X115590482Y-82981202D02*
X115590482Y-82600202D01*
X115590482Y-86410202D02*
X115590482Y-86029202D01*
X109240482Y-84505201D02*
G75*
G03*
X111704643Y-82581242I0J2539999D01*
G01*
X113050482Y-88950202D02*
G75*
G03*
X115590482Y-86410202I0J2540000D01*
G01*
%TO.C,SW8*%
X82246887Y-52631156D02*
X82299181Y-53228872D01*
X83892885Y-49415461D02*
X88953554Y-48972710D01*
X83981435Y-50427595D02*
X83892885Y-49415461D01*
X84280292Y-53843546D02*
X84247085Y-53463996D01*
X91242307Y-46860193D02*
X92962574Y-46709689D01*
X93136463Y-53068732D02*
X84280292Y-53843546D01*
X94733808Y-46554726D02*
X95113358Y-46521520D01*
X95146565Y-46901070D02*
X95113358Y-46521520D01*
X95445422Y-50317021D02*
X95412215Y-49937471D01*
X88953554Y-48972709D02*
G75*
G03*
X91240654Y-46841305I-221378J2530336D01*
G01*
X93136463Y-53068732D02*
G75*
G03*
X95445422Y-50317021I-221376J2530335D01*
G01*
%TO.C,SW21*%
X162927982Y-71065202D02*
X162927982Y-71665202D01*
X164847982Y-68005202D02*
X169927982Y-68005202D01*
X164847982Y-69021202D02*
X164847982Y-68005202D01*
X164847982Y-72450202D02*
X164847982Y-72069202D01*
X172392144Y-66100202D02*
X174118982Y-66100202D01*
X173737982Y-72450202D02*
X164847982Y-72450202D01*
X175896982Y-66100202D02*
X176277982Y-66100202D01*
X176277982Y-66481202D02*
X176277982Y-66100202D01*
X176277982Y-69910202D02*
X176277982Y-69529202D01*
X169927982Y-68005201D02*
G75*
G03*
X172392143Y-66081242I0J2539999D01*
G01*
X173737982Y-72450202D02*
G75*
G03*
X176277982Y-69910202I0J2540000D01*
G01*
%TO.C,SW18*%
X83586394Y-69068369D02*
X83638688Y-69666085D01*
X85232392Y-65852674D02*
X90293061Y-65409923D01*
X85320942Y-66864808D02*
X85232392Y-65852674D01*
X85619799Y-70280759D02*
X85586592Y-69901209D01*
X92581814Y-63297406D02*
X94302081Y-63146902D01*
X94475970Y-69505945D02*
X85619799Y-70280759D01*
X96073315Y-62991939D02*
X96452865Y-62958733D01*
X96486072Y-63338283D02*
X96452865Y-62958733D01*
X96784929Y-66754234D02*
X96751722Y-66374684D01*
X90293061Y-65409922D02*
G75*
G03*
X92580161Y-63278518I-221378J2530336D01*
G01*
X94475970Y-69505945D02*
G75*
G03*
X96784929Y-66754234I-221376J2530335D01*
G01*
D11*
%TO.C,D4*%
X132553200Y-72820600D02*
X132553200Y-68810600D01*
X134553200Y-72820600D02*
X132553200Y-72820600D01*
X134553200Y-72820600D02*
X134553200Y-68810600D01*
%TO.C,D18*%
X49971200Y-87225800D02*
X49971200Y-91235800D01*
X47971200Y-87225800D02*
X49971200Y-87225800D01*
X47971200Y-87225800D02*
X47971200Y-91235800D01*
%TO.C,D3*%
X132019800Y-56640800D02*
X132019800Y-52630800D01*
X134019800Y-56640800D02*
X132019800Y-56640800D01*
X134019800Y-56640800D02*
X134019800Y-52630800D01*
%TO.C,D22*%
X177155600Y-64210000D02*
X177155600Y-60200000D01*
X179155600Y-64210000D02*
X177155600Y-64210000D01*
X179155600Y-64210000D02*
X179155600Y-60200000D01*
%TO.C,D40*%
X113071400Y-80414200D02*
X113071400Y-76404200D01*
X115071400Y-80414200D02*
X113071400Y-80414200D01*
X115071400Y-80414200D02*
X115071400Y-76404200D01*
%TO.C,D41*%
X100600000Y-98346600D02*
X100600000Y-94336600D01*
X102600000Y-98346600D02*
X100600000Y-98346600D01*
X102600000Y-98346600D02*
X102600000Y-94336600D01*
%TO.C,D19*%
X65770000Y-70308400D02*
X65770000Y-74318400D01*
X63770000Y-70308400D02*
X65770000Y-70308400D01*
X63770000Y-70308400D02*
X63770000Y-74318400D01*
%TO.C,D39*%
X98161600Y-78102800D02*
X98161600Y-74092800D01*
X100161600Y-78102800D02*
X98161600Y-78102800D01*
X100161600Y-78102800D02*
X100161600Y-74092800D01*
%TO.C,D25*%
X182381400Y-81333000D02*
X182381400Y-85343000D01*
X180381400Y-81333000D02*
X182381400Y-81333000D01*
X180381400Y-81333000D02*
X180381400Y-85343000D01*
%TO.C,D15*%
X215223600Y-84076200D02*
X215223600Y-88086200D01*
X213223600Y-84076200D02*
X215223600Y-84076200D01*
X213223600Y-84076200D02*
X213223600Y-88086200D01*
%TO.C,D6*%
X219186000Y-69115600D02*
X219186000Y-73125600D01*
X217186000Y-69115600D02*
X219186000Y-69115600D01*
X217186000Y-69115600D02*
X217186000Y-73125600D01*
%TO.C,D17*%
X182432200Y-63477800D02*
X182432200Y-67487800D01*
X180432200Y-63477800D02*
X182432200Y-63477800D01*
X180432200Y-63477800D02*
X180432200Y-67487800D01*
D10*
%TO.C,SW25*%
X137504200Y-82771200D02*
X137504200Y-84971200D01*
X132904200Y-82771200D02*
X132904200Y-91371200D01*
X137504200Y-89071200D02*
X137504200Y-91371200D01*
D11*
%TO.C,D26*%
X175606200Y-80057600D02*
X175606200Y-76047600D01*
X177606200Y-80057600D02*
X175606200Y-80057600D01*
X177606200Y-80057600D02*
X177606200Y-76047600D01*
%TO.C,D10*%
X96332800Y-45971800D02*
X96332800Y-41961800D01*
X98332800Y-45971800D02*
X96332800Y-45971800D01*
X98332800Y-45971800D02*
X98332800Y-41961800D01*
%TO.C,D9*%
X77308200Y-47978400D02*
X77308200Y-43968400D01*
X79308200Y-47978400D02*
X77308200Y-47978400D01*
X79308200Y-47978400D02*
X79308200Y-43968400D01*
%TO.C,D7*%
X214214200Y-52321800D02*
X214214200Y-48311800D01*
X216214200Y-52321800D02*
X214214200Y-52321800D01*
X216214200Y-52321800D02*
X216214200Y-48311800D01*
%TO.C,D24*%
X209693000Y-85036000D02*
X209693000Y-81026000D01*
X211693000Y-85036000D02*
X209693000Y-85036000D01*
X211693000Y-85036000D02*
X211693000Y-81026000D01*
%TO.C,D13*%
X177104800Y-47572000D02*
X177104800Y-43562000D01*
X179104800Y-47572000D02*
X177104800Y-47572000D01*
X179104800Y-47572000D02*
X179104800Y-43562000D01*
%TO.C,D12*%
X198009000Y-46962400D02*
X198009000Y-42952400D01*
X200009000Y-46962400D02*
X198009000Y-46962400D01*
X200009000Y-46962400D02*
X200009000Y-42952400D01*
D10*
%TO.C,SW30*%
X141287600Y-91371200D02*
X141287600Y-89171200D01*
X145887600Y-91371200D02*
X145887600Y-82771200D01*
X141287600Y-85071200D02*
X141287600Y-82771200D01*
D11*
%TO.C,D1*%
X154614400Y-41112200D02*
X154614400Y-39812200D01*
X157734400Y-39812200D02*
X157734400Y-41812200D01*
%TO.C,D23*%
X158080200Y-72007800D02*
X158080200Y-67997800D01*
X160080200Y-72007800D02*
X158080200Y-72007800D01*
X160080200Y-72007800D02*
X160080200Y-67997800D01*
%TO.C,D14*%
X157927800Y-55242800D02*
X157927800Y-51232800D01*
X159927800Y-55242800D02*
X157927800Y-55242800D01*
X159927800Y-55242800D02*
X159927800Y-51232800D01*
%TO.C,D21*%
X112563400Y-63853400D02*
X112563400Y-59843400D01*
X114563400Y-63853400D02*
X112563400Y-63853400D01*
X114563400Y-63853400D02*
X114563400Y-59843400D01*
%TO.C,D16*%
X199450200Y-68963200D02*
X199450200Y-72973200D01*
X197450200Y-68963200D02*
X199450200Y-68963200D01*
X197450200Y-68963200D02*
X197450200Y-72973200D01*
%TO.C,D8*%
X60366400Y-66163800D02*
X60366400Y-62153800D01*
X62366400Y-66163800D02*
X60366400Y-66163800D01*
X62366400Y-66163800D02*
X62366400Y-62153800D01*
%TO.C,D11*%
X115484400Y-48232400D02*
X115484400Y-44222400D01*
X117484400Y-48232400D02*
X115484400Y-48232400D01*
X117484400Y-48232400D02*
X117484400Y-44222400D01*
%TO.C,D27*%
X173701200Y-101167000D02*
X173701200Y-97157000D01*
X175701200Y-101167000D02*
X173701200Y-101167000D01*
X175701200Y-101167000D02*
X175701200Y-97157000D01*
%TO.C,D28*%
X147564600Y-91437800D02*
X147564600Y-87427800D01*
X149564600Y-91437800D02*
X147564600Y-91437800D01*
X149564600Y-91437800D02*
X149564600Y-87427800D01*
%TO.C,D5*%
X135093200Y-97636400D02*
X135093200Y-93626400D01*
X137093200Y-97636400D02*
X135093200Y-97636400D01*
X137093200Y-97636400D02*
X137093200Y-93626400D01*
D10*
%TO.C,SW5*%
X206185800Y-37684000D02*
X206185800Y-37934000D01*
X206185800Y-37684000D02*
X212185800Y-37684000D01*
X206185800Y-41184000D02*
X206185800Y-40934000D01*
X206185800Y-41184000D02*
X212185800Y-41184000D01*
X212185800Y-37684000D02*
X212185800Y-37934000D01*
X212185800Y-41184000D02*
X212185800Y-40934000D01*
D11*
%TO.C,D2*%
X123403800Y-40218600D02*
X123403800Y-41518600D01*
X120283800Y-41518600D02*
X120283800Y-39518600D01*
%TO.C,D20*%
X96840800Y-61694400D02*
X96840800Y-57684400D01*
X98840800Y-61694400D02*
X96840800Y-61694400D01*
X98840800Y-61694400D02*
X98840800Y-57684400D01*
D10*
%TO.C,SW40*%
X72721800Y-41184000D02*
X72721800Y-40934000D01*
X72721800Y-41184000D02*
X66721800Y-41184000D01*
X72721800Y-37684000D02*
X72721800Y-37934000D01*
X72721800Y-37684000D02*
X66721800Y-37684000D01*
X66721800Y-41184000D02*
X66721800Y-40934000D01*
X66721800Y-37684000D02*
X66721800Y-37934000D01*
D11*
%TO.C,D38*%
X68081400Y-87860800D02*
X68081400Y-91870800D01*
X66081400Y-87860800D02*
X68081400Y-87860800D01*
X66081400Y-87860800D02*
X66081400Y-91870800D01*
%TD*%
D12*
%TO.C,J3*%
X45072800Y-97231200D03*
X47072800Y-97231200D03*
X49072800Y-97231200D03*
%TD*%
D13*
%TO.C,J4*%
X233713200Y-97231200D03*
X231713200Y-97231200D03*
X229713200Y-97231200D03*
%TD*%
D14*
%TO.C,SW5*%
X212435800Y-39434000D03*
X205935800Y-39434000D03*
%TD*%
%TO.C,SW40*%
X66471800Y-39434000D03*
X72971800Y-39434000D03*
%TD*%
%LPC*%
D15*
%TO.C,H8*%
X126365000Y-47117000D03*
%TD*%
%TO.C,H7*%
X233391600Y-107369000D03*
%TD*%
%TO.C,H6*%
X65278000Y-43588200D03*
%TD*%
%TO.C,H5*%
X213503400Y-43588200D03*
%TD*%
%TO.C,H4*%
X45389800Y-107340400D03*
%TD*%
%TO.C,H3*%
X152416400Y-47145600D03*
%TD*%
%TO.C,H2*%
X126263400Y-87299800D03*
%TD*%
%TO.C,H1*%
X152518000Y-87328400D03*
%TD*%
D16*
%TO.C,SW12*%
X164427982Y-48965202D03*
X164847982Y-48965202D03*
D17*
X164927982Y-52715202D03*
X164927982Y-52765202D03*
X165527982Y-53665202D03*
X167387982Y-54045202D03*
D18*
X169927982Y-48965202D03*
D19*
X169927982Y-48965202D03*
D17*
X169927982Y-54865202D03*
X172527982Y-54715202D03*
X173737982Y-51505202D03*
D16*
X175007982Y-48965202D03*
X175427982Y-48965202D03*
D20*
X161652982Y-52765202D03*
X162252982Y-53665202D03*
D21*
X163637982Y-54045202D03*
D20*
X173202982Y-54865202D03*
X175802982Y-54715202D03*
D21*
X177487982Y-51505202D03*
%TD*%
D16*
%TO.C,SW31*%
X164427982Y-81965202D03*
X164847982Y-81965202D03*
D17*
X164927982Y-85715202D03*
X164927982Y-85765202D03*
X165527982Y-86665202D03*
X167387982Y-87045202D03*
D18*
X169927982Y-81965202D03*
D19*
X169927982Y-81965202D03*
D17*
X169927982Y-87865202D03*
X172527982Y-87715202D03*
X173737982Y-84505202D03*
D16*
X175007982Y-81965202D03*
X175427982Y-81965202D03*
D20*
X161652982Y-85765202D03*
X162252982Y-86665202D03*
D21*
X163637982Y-87045202D03*
D20*
X173202982Y-87865202D03*
X175802982Y-87715202D03*
D21*
X177487982Y-84505202D03*
%TD*%
D16*
%TO.C,SW7*%
X64887659Y-53832031D03*
X65303571Y-53773578D03*
D17*
X65904692Y-57475950D03*
X65911650Y-57525463D03*
X66631067Y-58333201D03*
X68525851Y-58450640D03*
D18*
X70334133Y-53066579D03*
D19*
X70334133Y-53066579D03*
D17*
X71155254Y-58909161D03*
X73709075Y-58398770D03*
X74460554Y-55051610D03*
D16*
X75364695Y-52359580D03*
X75780607Y-52301127D03*
D22*
X62668523Y-57981255D03*
X63387939Y-58788992D03*
D23*
X64812346Y-58972540D03*
D22*
X74398382Y-58453369D03*
X76952203Y-57942978D03*
D23*
X78174059Y-54529711D03*
%TD*%
D16*
%TO.C,SW20*%
X194164788Y-63358945D03*
X193746386Y-63322339D03*
D17*
X193993525Y-59579637D03*
X193997882Y-59529827D03*
X193478606Y-58580958D03*
X191658803Y-58040295D03*
D18*
X188685717Y-62879588D03*
D19*
X188685717Y-62879588D03*
D17*
X189199936Y-57002039D03*
X186596756Y-56924864D03*
X185111591Y-60017190D03*
D16*
X183625048Y-62436837D03*
X183206646Y-62400231D03*
D24*
X197260420Y-59815262D03*
X196741143Y-58866393D03*
D25*
X195394533Y-58367129D03*
D24*
X185937398Y-56716604D03*
X183334219Y-56639428D03*
D25*
X181375861Y-59690356D03*
%TD*%
D16*
%TO.C,SW6*%
X47847063Y-69801090D03*
X48254587Y-69699483D03*
D17*
X49239417Y-73318738D03*
X49251514Y-73367253D03*
X50051421Y-74095366D03*
X51948101Y-74014104D03*
D18*
X53183689Y-68470520D03*
D19*
X53183689Y-68470520D03*
D17*
X54611028Y-74195265D03*
X57097509Y-73420723D03*
X57494997Y-70013349D03*
D16*
X58112791Y-67241557D03*
X58520315Y-67139950D03*
D26*
X46073795Y-74159547D03*
X46873702Y-74887660D03*
D27*
X48309492Y-74921311D03*
D26*
X57788747Y-73402971D03*
X60275227Y-72628429D03*
D27*
X61133606Y-69106142D03*
%TD*%
D28*
%TO.C,U1*%
X218818400Y-40208200D03*
X218818400Y-42748200D03*
X218818400Y-45288200D03*
X218818400Y-47828200D03*
X218818400Y-50368200D03*
X218818400Y-52908200D03*
X218818400Y-55448200D03*
X235008400Y-55448200D03*
X235008400Y-52908200D03*
X235008400Y-50368200D03*
X235008400Y-47828200D03*
X235008400Y-45288200D03*
X235008400Y-42748200D03*
X235008400Y-40208200D03*
D29*
X225643400Y-39256200D03*
X228183400Y-39256200D03*
X225643400Y-41796200D03*
X228183400Y-41796200D03*
X222468400Y-47511200D03*
X222468400Y-45606200D03*
%TD*%
D16*
%TO.C,SW4*%
X231008902Y-69801090D03*
X230601378Y-69699483D03*
D17*
X231430962Y-66041521D03*
X231443058Y-65993006D03*
X231078610Y-64974586D03*
X229365790Y-64155899D03*
D18*
X225672276Y-68470520D03*
D19*
X225672276Y-68470520D03*
D17*
X227099615Y-62745775D03*
X224540558Y-62262323D03*
X222589931Y-65084246D03*
D16*
X220743174Y-67241557D03*
X220335650Y-67139950D03*
D30*
X234620776Y-66785300D03*
X234256329Y-65766881D03*
D31*
X233004399Y-65063106D03*
D30*
X223921897Y-61953481D03*
X221362840Y-61470028D03*
D31*
X218951322Y-64177039D03*
%TD*%
D16*
%TO.C,SW9*%
X103427982Y-48965202D03*
X103847982Y-48965202D03*
D17*
X103927982Y-52715202D03*
X103927982Y-52765202D03*
X104527982Y-53665202D03*
X106387982Y-54045202D03*
D18*
X108927982Y-48965202D03*
D19*
X108927982Y-48965202D03*
D17*
X108927982Y-54865202D03*
X111527982Y-54715202D03*
X112737982Y-51505202D03*
D16*
X114007982Y-48965202D03*
X114427982Y-48965202D03*
D20*
X100652982Y-52765202D03*
X101252982Y-53665202D03*
D21*
X102637982Y-54045202D03*
D20*
X112202982Y-54865202D03*
X114802982Y-54715202D03*
D21*
X116487982Y-51505202D03*
%TD*%
D16*
%TO.C,SW33*%
X155302982Y-99840202D03*
X154882982Y-99840202D03*
D17*
X154802982Y-96090202D03*
X154802982Y-96040202D03*
X154202982Y-95140202D03*
X152342982Y-94760202D03*
D18*
X149802982Y-99840202D03*
D19*
X149802982Y-99840202D03*
D17*
X149802982Y-93940202D03*
X147202982Y-94090202D03*
X145992982Y-97300202D03*
D16*
X144722982Y-99840202D03*
X144302982Y-99840202D03*
D20*
X158077982Y-96040202D03*
X157477982Y-95140202D03*
D21*
X156092982Y-94760202D03*
D20*
X146527982Y-93940202D03*
X143927982Y-94090202D03*
D21*
X142242982Y-97300202D03*
%TD*%
D16*
%TO.C,SW16*%
X62512026Y-83149830D03*
X62104502Y-83251437D03*
D17*
X61119672Y-79632182D03*
X61107575Y-79583667D03*
X60307668Y-78855554D03*
X58410988Y-78936816D03*
D18*
X57175400Y-84480400D03*
D19*
X57175400Y-84480400D03*
D17*
X55748061Y-78755655D03*
X53261580Y-79530197D03*
X52864092Y-82937571D03*
D16*
X52246298Y-85709363D03*
X51838774Y-85810970D03*
D32*
X64285294Y-78791373D03*
X63485387Y-78063260D03*
D33*
X62049597Y-78029609D03*
D32*
X52570342Y-79547949D03*
X50083862Y-80322491D03*
D33*
X49225483Y-83844778D03*
%TD*%
D16*
%TO.C,SW3*%
X123552982Y-99840202D03*
X123972982Y-99840202D03*
D17*
X124052982Y-103590202D03*
X124052982Y-103640202D03*
X124652982Y-104540202D03*
X126512982Y-104920202D03*
D18*
X129052982Y-99840202D03*
D19*
X129052982Y-99840202D03*
D17*
X129052982Y-105740202D03*
X131652982Y-105590202D03*
X132862982Y-102380202D03*
D16*
X134132982Y-99840202D03*
X134552982Y-99840202D03*
D20*
X120777982Y-103640202D03*
X121377982Y-104540202D03*
D21*
X122762982Y-104920202D03*
D20*
X132327982Y-105740202D03*
X134927982Y-105590202D03*
D21*
X136612982Y-102380202D03*
%TD*%
D16*
%TO.C,SW10*%
X203075358Y-52301127D03*
X203491270Y-52359580D03*
D17*
X203048593Y-56084219D03*
X203041634Y-56133732D03*
X203510539Y-57108477D03*
X205299552Y-57743641D03*
D18*
X208521832Y-53066579D03*
D19*
X208521832Y-53066579D03*
D17*
X207700711Y-58909161D03*
X210296284Y-59122470D03*
X211941254Y-56112109D03*
D16*
X213552394Y-53773578D03*
X213968306Y-53832031D03*
D34*
X199798506Y-55677940D03*
X200267411Y-56652685D03*
D35*
X201586046Y-57221742D03*
D34*
X210943839Y-59364953D03*
X213539412Y-59578262D03*
D35*
X215654759Y-56634009D03*
%TD*%
D16*
%TO.C,SW14*%
X227017191Y-85810970D03*
X226609667Y-85709363D03*
D17*
X227439251Y-82051401D03*
X227451347Y-82002886D03*
X227086899Y-80984466D03*
X225374079Y-80165779D03*
D18*
X221680565Y-84480400D03*
D19*
X221680565Y-84480400D03*
D17*
X223107904Y-78755655D03*
X220548847Y-78272203D03*
X218598220Y-81094126D03*
D16*
X216751463Y-83251437D03*
X216343939Y-83149830D03*
D30*
X230629065Y-82795180D03*
X230264618Y-81776761D03*
D31*
X229012688Y-81072986D03*
D30*
X219930186Y-77963361D03*
X217371129Y-77479908D03*
D31*
X214959611Y-80186919D03*
%TD*%
D12*
%TO.C,J3*%
X45072800Y-97231200D03*
X47072800Y-97231200D03*
X49072800Y-97231200D03*
%TD*%
D16*
%TO.C,SW17*%
X78076963Y-68640550D03*
X77661051Y-68699003D03*
D17*
X77059930Y-64996631D03*
X77052972Y-64947118D03*
X76333555Y-64139380D03*
X74438771Y-64021941D03*
D18*
X72630489Y-69406002D03*
D19*
X72630489Y-69406002D03*
D17*
X71809368Y-63563420D03*
X69255547Y-64073811D03*
X68504068Y-67420971D03*
D16*
X67599927Y-70113001D03*
X67184015Y-70171454D03*
D36*
X80296099Y-64491326D03*
X79576683Y-63683589D03*
D37*
X78152276Y-63500041D03*
D36*
X68566240Y-64019212D03*
X66012419Y-64529603D03*
D37*
X64790563Y-67942870D03*
%TD*%
D16*
%TO.C,SW22*%
X147927982Y-73715202D03*
X148347982Y-73715202D03*
D17*
X148427982Y-77465202D03*
X148427982Y-77515202D03*
X149027982Y-78415202D03*
X150887982Y-78795202D03*
D18*
X153427982Y-73715202D03*
D19*
X153427982Y-73715202D03*
D17*
X153427982Y-79615202D03*
X156027982Y-79465202D03*
X157237982Y-76255202D03*
D16*
X158507982Y-73715202D03*
X158927982Y-73715202D03*
D20*
X145152982Y-77515202D03*
X145752982Y-78415202D03*
D21*
X147137982Y-78795202D03*
D20*
X156702982Y-79615202D03*
X159302982Y-79465202D03*
D21*
X160987982Y-76255202D03*
%TD*%
D28*
%TO.C,U2*%
X43876600Y-40208200D03*
X43876600Y-42748200D03*
X43876600Y-45288200D03*
X43876600Y-47828200D03*
X43876600Y-50368200D03*
X43876600Y-52908200D03*
X43876600Y-55448200D03*
X60066600Y-55448200D03*
X60066600Y-52908200D03*
X60066600Y-50368200D03*
X60066600Y-47828200D03*
X60066600Y-45288200D03*
X60066600Y-42748200D03*
X60066600Y-40208200D03*
D29*
X50701600Y-39256200D03*
X53241600Y-39256200D03*
X50701600Y-41796200D03*
X53241600Y-41796200D03*
X47526600Y-47511200D03*
X47526600Y-45606200D03*
%TD*%
D16*
%TO.C,SW27*%
X86129247Y-79796157D03*
X86547649Y-79759551D03*
D17*
X86954179Y-83488309D03*
X86958536Y-83538119D03*
X87634693Y-84382400D03*
X89520735Y-84598845D03*
D18*
X91608318Y-79316800D03*
D19*
X91608318Y-79316800D03*
D17*
X92122537Y-85194349D03*
X94699570Y-84818315D03*
X95625195Y-81515071D03*
D16*
X96668987Y-78874049D03*
X97087389Y-78837443D03*
D38*
X83695999Y-83823554D03*
X84372156Y-84667835D03*
D39*
X85785005Y-84925679D03*
D38*
X95385075Y-84908914D03*
X97962107Y-84532880D03*
D39*
X99360926Y-81188237D03*
%TD*%
D16*
%TO.C,SW2*%
X120240482Y-73715202D03*
X120660482Y-73715202D03*
D17*
X120740482Y-77465202D03*
X120740482Y-77515202D03*
X121340482Y-78415202D03*
X123200482Y-78795202D03*
D18*
X125740482Y-73715202D03*
D19*
X125740482Y-73715202D03*
D17*
X125740482Y-79615202D03*
X128340482Y-79465202D03*
X129550482Y-76255202D03*
D16*
X130820482Y-73715202D03*
X131240482Y-73715202D03*
D20*
X117465482Y-77515202D03*
X118065482Y-78415202D03*
D21*
X119450482Y-78795202D03*
D20*
X129015482Y-79615202D03*
X131615482Y-79465202D03*
D21*
X133300482Y-76255202D03*
%TD*%
D40*
%TO.C,mouse-bite-2mm-slot*%
X138379200Y-89535000D03*
X138379200Y-90551000D03*
X138379200Y-91567000D03*
X138379200Y-92583000D03*
X138379200Y-93599000D03*
X140411200Y-89535000D03*
X140411200Y-90551000D03*
X140411200Y-91567000D03*
X140411200Y-92583000D03*
X140411200Y-93599000D03*
%TD*%
D41*
%TO.C,J2*%
X135440800Y-40640000D03*
X128440800Y-40640000D03*
D42*
X130840800Y-42940000D03*
X133840800Y-42940000D03*
X125740800Y-38340000D03*
X126840800Y-42940000D03*
%TD*%
D16*
%TO.C,SW1*%
X119927982Y-57215202D03*
X120347982Y-57215202D03*
D17*
X120427982Y-60965202D03*
X120427982Y-61015202D03*
X121027982Y-61915202D03*
X122887982Y-62295202D03*
D18*
X125427982Y-57215202D03*
D19*
X125427982Y-57215202D03*
D17*
X125427982Y-63115202D03*
X128027982Y-62965202D03*
X129237982Y-59755202D03*
D16*
X130507982Y-57215202D03*
X130927982Y-57215202D03*
D20*
X117152982Y-61015202D03*
X117752982Y-61915202D03*
D21*
X119137982Y-62295202D03*
D20*
X128702982Y-63115202D03*
X131302982Y-62965202D03*
D21*
X132987982Y-59755202D03*
%TD*%
D16*
%TO.C,SW29*%
X118052982Y-101965202D03*
X117632982Y-101965202D03*
D17*
X117552982Y-98215202D03*
X117552982Y-98165202D03*
X116952982Y-97265202D03*
X115092982Y-96885202D03*
D18*
X112552982Y-101965202D03*
D19*
X112552982Y-101965202D03*
D17*
X112552982Y-96065202D03*
X109952982Y-96215202D03*
X108742982Y-99425202D03*
D16*
X107472982Y-101965202D03*
X107052982Y-101965202D03*
D20*
X120827982Y-98165202D03*
X120227982Y-97265202D03*
D21*
X118842982Y-96885202D03*
D20*
X109277982Y-96065202D03*
X106677982Y-96215202D03*
D21*
X104992982Y-99425202D03*
%TD*%
D16*
%TO.C,SW15*%
X211671950Y-70171454D03*
X211256038Y-70113001D03*
D17*
X211698715Y-66388362D03*
X211705674Y-66338849D03*
X211236769Y-65364104D03*
X209447756Y-64728940D03*
D18*
X206225476Y-69406002D03*
D19*
X206225476Y-69406002D03*
D17*
X207046597Y-63563420D03*
X204451024Y-63350111D03*
X202806054Y-66360472D03*
D16*
X201194914Y-68699003D03*
X200779002Y-68640550D03*
D43*
X214948802Y-66794641D03*
X214479897Y-65819896D03*
D44*
X213161262Y-65250839D03*
D43*
X203803469Y-63107628D03*
X201207896Y-62894319D03*
D44*
X199092549Y-65838572D03*
%TD*%
D16*
%TO.C,SW32*%
X160802982Y-101965202D03*
X161222982Y-101965202D03*
D17*
X161302982Y-105715202D03*
X161302982Y-105765202D03*
X161902982Y-106665202D03*
X163762982Y-107045202D03*
D18*
X166302982Y-101965202D03*
D19*
X166302982Y-101965202D03*
D17*
X166302982Y-107865202D03*
X168902982Y-107715202D03*
X170112982Y-104505202D03*
D16*
X171382982Y-101965202D03*
X171802982Y-101965202D03*
D20*
X158027982Y-105765202D03*
X158627982Y-106665202D03*
D21*
X160012982Y-107045202D03*
D20*
X169577982Y-107865202D03*
X172177982Y-107715202D03*
D21*
X173862982Y-104505202D03*
%TD*%
D16*
%TO.C,SW11*%
X184644715Y-45963018D03*
X185063117Y-45999624D03*
D17*
X184815978Y-49742326D03*
X184811621Y-49792136D03*
X185330897Y-50741005D03*
X187150700Y-51281668D03*
D18*
X190123786Y-46442375D03*
D19*
X190123786Y-46442375D03*
D17*
X189609567Y-52319924D03*
X192212747Y-52397099D03*
X193697912Y-49304773D03*
D16*
X195184455Y-46885126D03*
X195602857Y-46921732D03*
D45*
X181549083Y-49506701D03*
X182068360Y-50455570D03*
D46*
X183414970Y-50954834D03*
D45*
X192872105Y-52605359D03*
X195475284Y-52682535D03*
D46*
X197433642Y-49631607D03*
%TD*%
D16*
%TO.C,SW23*%
X198482646Y-84979973D03*
X198898558Y-85038426D03*
D17*
X198455881Y-88763065D03*
X198448922Y-88812578D03*
X198917827Y-89787323D03*
X200706840Y-90422487D03*
D18*
X203929120Y-85745425D03*
D19*
X203929120Y-85745425D03*
D17*
X203107999Y-91588007D03*
X205703572Y-91801316D03*
X207348542Y-88790955D03*
D16*
X208959682Y-86452424D03*
X209375594Y-86510877D03*
D34*
X195205794Y-88356786D03*
X195674699Y-89331531D03*
D35*
X196993334Y-89900588D03*
D34*
X206351127Y-92043799D03*
X208946700Y-92257108D03*
D35*
X211062047Y-89312855D03*
%TD*%
D41*
%TO.C,J1*%
X143255900Y-40640000D03*
X150255900Y-40640000D03*
D42*
X147855900Y-38340000D03*
X144855900Y-38340000D03*
X152955900Y-42940000D03*
X151855900Y-38340000D03*
%TD*%
D16*
%TO.C,SW24*%
X192825280Y-79796157D03*
X192406878Y-79759551D03*
D17*
X192654017Y-76016849D03*
X192658374Y-75967039D03*
X192139098Y-75018170D03*
X190319295Y-74477507D03*
D18*
X187346209Y-79316800D03*
D19*
X187346209Y-79316800D03*
D17*
X187860428Y-73439251D03*
X185257248Y-73362076D03*
X183772083Y-76454402D03*
D16*
X182285540Y-78874049D03*
X181867138Y-78837443D03*
D24*
X195920912Y-76252474D03*
X195401635Y-75303605D03*
D25*
X194055025Y-74804341D03*
D24*
X184597890Y-73153816D03*
X181994711Y-73076640D03*
D25*
X180036353Y-76127568D03*
%TD*%
D14*
%TO.C,SW35*%
X195051000Y-105383200D03*
X195051000Y-100383200D03*
X195051000Y-102883200D03*
D47*
X187551000Y-108483200D03*
X187551000Y-97283200D03*
D14*
X180551000Y-100383200D03*
X180551000Y-105383200D03*
%TD*%
D13*
%TO.C,J4*%
X233713200Y-97231200D03*
X231713200Y-97231200D03*
X229713200Y-97231200D03*
%TD*%
D14*
%TO.C,SW34*%
X84044200Y-100307000D03*
X84044200Y-105307000D03*
X84044200Y-102807000D03*
D47*
X91544200Y-97207000D03*
X91544200Y-108407000D03*
D14*
X98544200Y-105307000D03*
X98544200Y-100307000D03*
%TD*%
D40*
%TO.C,mouse-bite-2mm-slot*%
X138379200Y-56896053D03*
X138379200Y-57912053D03*
X138379200Y-58928053D03*
X138379200Y-59944053D03*
X138379200Y-60960053D03*
X140411200Y-56896053D03*
X140411200Y-57912053D03*
X140411200Y-58928053D03*
X140411200Y-59944053D03*
X140411200Y-60960053D03*
%TD*%
D16*
%TO.C,SW13*%
X147927982Y-57215202D03*
X148347982Y-57215202D03*
D17*
X148427982Y-60965202D03*
X148427982Y-61015202D03*
X149027982Y-61915202D03*
X150887982Y-62295202D03*
D18*
X153427982Y-57215202D03*
D19*
X153427982Y-57215202D03*
D17*
X153427982Y-63115202D03*
X156027982Y-62965202D03*
X157237982Y-59755202D03*
D16*
X158507982Y-57215202D03*
X158927982Y-57215202D03*
D20*
X145152982Y-61015202D03*
X145752982Y-61915202D03*
D21*
X147137982Y-62295202D03*
D20*
X156702982Y-63115202D03*
X159302982Y-62965202D03*
D21*
X160987982Y-59755202D03*
%TD*%
D16*
%TO.C,SW19*%
X103427982Y-65465202D03*
X103847982Y-65465202D03*
D17*
X103927982Y-69215202D03*
X103927982Y-69265202D03*
X104527982Y-70165202D03*
X106387982Y-70545202D03*
D18*
X108927982Y-65465202D03*
D19*
X108927982Y-65465202D03*
D17*
X108927982Y-71365202D03*
X111527982Y-71215202D03*
X112737982Y-68005202D03*
D16*
X114007982Y-65465202D03*
X114427982Y-65465202D03*
D20*
X100652982Y-69265202D03*
X101252982Y-70165202D03*
D21*
X102637982Y-70545202D03*
D20*
X112202982Y-71365202D03*
X114802982Y-71215202D03*
D21*
X116487982Y-68005202D03*
%TD*%
D16*
%TO.C,SW26*%
X80373319Y-84979973D03*
X79957407Y-85038426D03*
D17*
X79356286Y-81336054D03*
X79349328Y-81286541D03*
X78629911Y-80478803D03*
X76735127Y-80361364D03*
D18*
X74926845Y-85745425D03*
D19*
X74926845Y-85745425D03*
D17*
X74105724Y-79902843D03*
X71551903Y-80413234D03*
X70800424Y-83760394D03*
D16*
X69896283Y-86452424D03*
X69480371Y-86510877D03*
D36*
X82592455Y-80830749D03*
X81873039Y-80023012D03*
D37*
X80448632Y-79839464D03*
D36*
X70862596Y-80358635D03*
X68308775Y-80869026D03*
D37*
X67086919Y-84282293D03*
%TD*%
D16*
%TO.C,SW28*%
X103740482Y-81965202D03*
X104160482Y-81965202D03*
D17*
X104240482Y-85715202D03*
X104240482Y-85765202D03*
X104840482Y-86665202D03*
X106700482Y-87045202D03*
D18*
X109240482Y-81965202D03*
D19*
X109240482Y-81965202D03*
D17*
X109240482Y-87865202D03*
X111840482Y-87715202D03*
X113050482Y-84505202D03*
D16*
X114320482Y-81965202D03*
X114740482Y-81965202D03*
D20*
X100965482Y-85765202D03*
X101565482Y-86665202D03*
D21*
X102950482Y-87045202D03*
D20*
X112515482Y-87865202D03*
X115115482Y-87715202D03*
D21*
X116800482Y-84505202D03*
%TD*%
D16*
%TO.C,SW8*%
X83253107Y-46921732D03*
X83671509Y-46885126D03*
D17*
X84078039Y-50613884D03*
X84082396Y-50663694D03*
X84758553Y-51507975D03*
X86644595Y-51724420D03*
D18*
X88732178Y-46442375D03*
D19*
X88732178Y-46442375D03*
D17*
X89246397Y-52319924D03*
X91823430Y-51943890D03*
X92749055Y-48640646D03*
D16*
X93792847Y-45999624D03*
X94211249Y-45963018D03*
D38*
X80819859Y-50949129D03*
X81496016Y-51793410D03*
D39*
X82908865Y-52051254D03*
D38*
X92508935Y-52034489D03*
X95085967Y-51658455D03*
D39*
X96484786Y-48313812D03*
%TD*%
D16*
%TO.C,SW21*%
X164427982Y-65465202D03*
X164847982Y-65465202D03*
D17*
X164927982Y-69215202D03*
X164927982Y-69265202D03*
X165527982Y-70165202D03*
X167387982Y-70545202D03*
D18*
X169927982Y-65465202D03*
D19*
X169927982Y-65465202D03*
D17*
X169927982Y-71365202D03*
X172527982Y-71215202D03*
X173737982Y-68005202D03*
D16*
X175007982Y-65465202D03*
X175427982Y-65465202D03*
D20*
X161652982Y-69265202D03*
X162252982Y-70165202D03*
D21*
X163637982Y-70545202D03*
D20*
X173202982Y-71365202D03*
X175802982Y-71215202D03*
D21*
X177487982Y-68005202D03*
%TD*%
D16*
%TO.C,SW18*%
X84592614Y-63358945D03*
X85011016Y-63322339D03*
D17*
X85417546Y-67051097D03*
X85421903Y-67100907D03*
X86098060Y-67945188D03*
X87984102Y-68161633D03*
D18*
X90071685Y-62879588D03*
D19*
X90071685Y-62879588D03*
D17*
X90585904Y-68757137D03*
X93162937Y-68381103D03*
X94088562Y-65077859D03*
D16*
X95132354Y-62436837D03*
X95550756Y-62400231D03*
D38*
X82159366Y-67386342D03*
X82835523Y-68230623D03*
D39*
X84248372Y-68488467D03*
D38*
X93848442Y-68471702D03*
X96425474Y-68095668D03*
D39*
X97824293Y-64751025D03*
%TD*%
D48*
%TO.C,D4*%
X133553200Y-72110600D03*
X133553200Y-68810600D03*
%TD*%
D49*
%TO.C,D18*%
X48971200Y-87935800D03*
X48971200Y-91235800D03*
%TD*%
D48*
%TO.C,D3*%
X133019800Y-55930800D03*
X133019800Y-52630800D03*
%TD*%
%TO.C,D22*%
X178155600Y-63500000D03*
X178155600Y-60200000D03*
%TD*%
%TO.C,D40*%
X114071400Y-79704200D03*
X114071400Y-76404200D03*
%TD*%
%TO.C,D41*%
X101600000Y-97636600D03*
X101600000Y-94336600D03*
%TD*%
D49*
%TO.C,D19*%
X64770000Y-71018400D03*
X64770000Y-74318400D03*
%TD*%
D48*
%TO.C,D39*%
X99161600Y-77392800D03*
X99161600Y-74092800D03*
%TD*%
D49*
%TO.C,D25*%
X181381400Y-82043000D03*
X181381400Y-85343000D03*
%TD*%
%TO.C,D15*%
X214223600Y-84786200D03*
X214223600Y-88086200D03*
%TD*%
%TO.C,D6*%
X218186000Y-69825600D03*
X218186000Y-73125600D03*
%TD*%
%TO.C,D17*%
X181432200Y-64187800D03*
X181432200Y-67487800D03*
%TD*%
D50*
%TO.C,SW25*%
X135204200Y-82971200D03*
X135204200Y-91171200D03*
D51*
X135204200Y-85071200D03*
D52*
X135204200Y-87071200D03*
X135204200Y-89071200D03*
%TD*%
D48*
%TO.C,D26*%
X176606200Y-79347600D03*
X176606200Y-76047600D03*
%TD*%
%TO.C,D10*%
X97332800Y-45261800D03*
X97332800Y-41961800D03*
%TD*%
%TO.C,D9*%
X78308200Y-47268400D03*
X78308200Y-43968400D03*
%TD*%
%TO.C,D7*%
X215214200Y-51611800D03*
X215214200Y-48311800D03*
%TD*%
%TO.C,D24*%
X210693000Y-84326000D03*
X210693000Y-81026000D03*
%TD*%
%TO.C,D13*%
X178104800Y-46862000D03*
X178104800Y-43562000D03*
%TD*%
%TO.C,D12*%
X199009000Y-46252400D03*
X199009000Y-42952400D03*
%TD*%
D50*
%TO.C,SW30*%
X143587600Y-91171200D03*
X143587600Y-82971200D03*
D51*
X143587600Y-89071200D03*
D52*
X143587600Y-87071200D03*
X143587600Y-85071200D03*
%TD*%
D53*
%TO.C,D1*%
X156924400Y-41462200D03*
D54*
X155224400Y-41462200D03*
X155224400Y-39462200D03*
X157124400Y-39462200D03*
%TD*%
D48*
%TO.C,D23*%
X159080200Y-71297800D03*
X159080200Y-67997800D03*
%TD*%
%TO.C,D14*%
X158927800Y-54532800D03*
X158927800Y-51232800D03*
%TD*%
%TO.C,D21*%
X113563400Y-63143400D03*
X113563400Y-59843400D03*
%TD*%
D49*
%TO.C,D16*%
X198450200Y-69673200D03*
X198450200Y-72973200D03*
%TD*%
D48*
%TO.C,D8*%
X61366400Y-65453800D03*
X61366400Y-62153800D03*
%TD*%
%TO.C,D11*%
X116484400Y-47522400D03*
X116484400Y-44222400D03*
%TD*%
%TO.C,D27*%
X174701200Y-100457000D03*
X174701200Y-97157000D03*
%TD*%
%TO.C,D28*%
X148564600Y-90727800D03*
X148564600Y-87427800D03*
%TD*%
%TO.C,D5*%
X136093200Y-96926400D03*
X136093200Y-93626400D03*
%TD*%
D14*
%TO.C,SW5*%
X212435800Y-39434000D03*
X205935800Y-39434000D03*
%TD*%
D53*
%TO.C,D2*%
X121093800Y-39868600D03*
D54*
X122793800Y-39868600D03*
X122793800Y-41868600D03*
X120893800Y-41868600D03*
%TD*%
D48*
%TO.C,D20*%
X97840800Y-60984400D03*
X97840800Y-57684400D03*
%TD*%
D14*
%TO.C,SW40*%
X66471800Y-39434000D03*
X72971800Y-39434000D03*
%TD*%
D49*
%TO.C,D38*%
X67081400Y-88570800D03*
X67081400Y-91870800D03*
%TD*%
%LPD*%
M02*
