%TF.GenerationSoftware,KiCad,Pcbnew,7.0.2*%
%TF.CreationDate,2023-08-06T16:20:10+02:00*%
%TF.ProjectId,Wizza-xiao,57697a7a-612d-4786-9961-6f2e6b696361,rev?*%
%TF.SameCoordinates,Original*%
%TF.FileFunction,Profile,NP*%
%FSLAX46Y46*%
G04 Gerber Fmt 4.6, Leading zero omitted, Abs format (unit mm)*
G04 Created by KiCad (PCBNEW 7.0.2) date 2023-08-06 16:20:10*
%MOMM*%
%LPD*%
G01*
G04 APERTURE LIST*
%TA.AperFunction,Profile*%
%ADD10C,0.100000*%
%TD*%
%TA.AperFunction,Profile*%
%ADD11C,0.120000*%
%TD*%
G04 APERTURE END LIST*
D10*
X140345215Y-61476264D02*
X140666489Y-61474161D01*
X138123738Y-38853062D02*
G75*
G03*
X136525000Y-37211001I-1625638J16562D01*
G01*
X42154237Y-38805626D02*
X42159483Y-108754703D01*
X140666489Y-61474161D02*
X140665200Y-89037072D01*
X236635224Y-108793314D02*
X236629978Y-38844237D01*
X138122972Y-53485832D02*
X138123664Y-38853061D01*
X138496794Y-94116419D02*
X138126489Y-94116080D01*
X140344063Y-56398132D02*
X140665200Y-56398125D01*
X138126489Y-56398471D02*
X138122972Y-53485832D01*
X140673424Y-38806483D02*
X140665200Y-56398125D01*
X138495637Y-56399342D02*
G75*
G03*
X140344063Y-56398132I923963J381942D01*
G01*
X138495642Y-56399340D02*
X138126489Y-56398471D01*
X140344063Y-89037079D02*
X140665200Y-89037072D01*
X140665822Y-108745879D02*
G75*
G03*
X142264461Y-110387940I1625578J-16621D01*
G01*
X236629961Y-38844237D02*
G75*
G03*
X235031314Y-37202177I-1625561J16637D01*
G01*
X234993163Y-110391961D02*
G75*
G03*
X236635223Y-108793314I16637J1625561D01*
G01*
X140345294Y-61476232D02*
G75*
G03*
X138496795Y-61477472I-923994J-381968D01*
G01*
X43758147Y-110396764D02*
X136473976Y-110391121D01*
X42159498Y-108754703D02*
G75*
G03*
X43758147Y-110396764I1625602J-16597D01*
G01*
X142264461Y-110387940D02*
X234993163Y-110391978D01*
X140345294Y-94115179D02*
G75*
G03*
X138496795Y-94116419I-923994J-381921D01*
G01*
X138496794Y-61477472D02*
X138126489Y-61477133D01*
X142315485Y-37207787D02*
G75*
G03*
X140673425Y-38806483I-16585J-1625613D01*
G01*
X138116037Y-108792457D02*
X138126489Y-94116080D01*
X140345215Y-94115211D02*
X140666489Y-94113108D01*
X138495637Y-89038289D02*
G75*
G03*
X140344063Y-89037079I923963J381989D01*
G01*
X138495642Y-89038287D02*
X138126489Y-89037418D01*
X235031314Y-37202176D02*
X142315485Y-37207819D01*
X136525000Y-37211000D02*
X43796298Y-37206962D01*
X43796299Y-37206898D02*
G75*
G03*
X42154238Y-38805626I-16499J-1625702D01*
G01*
X136473976Y-110391075D02*
G75*
G03*
X138116036Y-108792457I16624J1625575D01*
G01*
X138126489Y-89037418D02*
X138126489Y-61477133D01*
X140666489Y-94113108D02*
X140665797Y-108745879D01*
D11*
%TO.C,U1*%
X222214400Y-47079400D02*
X222214400Y-46038000D01*
X222900200Y-45352200D02*
X224500400Y-45352200D01*
X224500400Y-47765200D02*
X222900200Y-47765200D01*
X224881400Y-45733200D02*
X224881400Y-47384200D01*
X225389400Y-41364400D02*
X225389400Y-39688000D01*
X226075200Y-39002200D02*
X227751600Y-39002200D01*
X226075200Y-42050200D02*
X227751600Y-42050200D01*
X228437400Y-41364400D02*
X228437400Y-39688000D01*
X222900200Y-47765200D02*
G75*
G03*
X222214400Y-47079400I-438047J247753D01*
G01*
X222214400Y-46038000D02*
G75*
G03*
X222900200Y-45352200I247753J438047D01*
G01*
X224881400Y-45733200D02*
G75*
G03*
X224500400Y-45352200I-380999J1D01*
G01*
X224500400Y-47765200D02*
G75*
G03*
X224881400Y-47384200I1J380999D01*
G01*
X226075200Y-42050200D02*
G75*
G03*
X225389400Y-41364400I-438047J247753D01*
G01*
X225389400Y-39688000D02*
G75*
G03*
X226075200Y-39002200I247753J438047D01*
G01*
X228437400Y-41364400D02*
G75*
G03*
X227751600Y-42050200I-247753J-438047D01*
G01*
X227751600Y-39002200D02*
G75*
G03*
X228437400Y-39688000I438050J-247750D01*
G01*
%TO.C,U2*%
X47272600Y-47079400D02*
X47272600Y-46038000D01*
X47958400Y-45352200D02*
X49558600Y-45352200D01*
X49558600Y-47765200D02*
X47958400Y-47765200D01*
X49939600Y-45733200D02*
X49939600Y-47384200D01*
X50447600Y-41364400D02*
X50447600Y-39688000D01*
X51133400Y-39002200D02*
X52809800Y-39002200D01*
X51133400Y-42050200D02*
X52809800Y-42050200D01*
X53495600Y-41364400D02*
X53495600Y-39688000D01*
X47958400Y-47765200D02*
G75*
G03*
X47272600Y-47079400I-438047J247753D01*
G01*
X47272600Y-46038000D02*
G75*
G03*
X47958400Y-45352200I247753J438047D01*
G01*
X49939600Y-45733200D02*
G75*
G03*
X49558600Y-45352200I-380999J1D01*
G01*
X49558600Y-47765200D02*
G75*
G03*
X49939600Y-47384200I1J380999D01*
G01*
X51133400Y-42050200D02*
G75*
G03*
X50447600Y-41364400I-438047J247753D01*
G01*
X50447600Y-39688000D02*
G75*
G03*
X51133400Y-39002200I247753J438047D01*
G01*
X53495600Y-41364400D02*
G75*
G03*
X52809800Y-42050200I-247753J-438047D01*
G01*
X52809800Y-39002200D02*
G75*
G03*
X53495600Y-39688000I438050J-247750D01*
G01*
%TD*%
M02*
