<?xml version="1.0" encoding="UTF-8" standalone="no"?>
<svg
   version="1.1"
   width="269.2400mm"
   height="168.1480mm"
   viewBox="0.0000 0.0000 269.2400 168.1480"
   id="svg734"
   sodipodi:docname="Batreeq-wireless-brd.svg"
   inkscape:version="1.2.2 (732a01da63, 2022-12-09)"
   xmlns:inkscape="http://www.inkscape.org/namespaces/inkscape"
   xmlns:sodipodi="http://sodipodi.sourceforge.net/DTD/sodipodi-0.dtd"
   xmlns="http://www.w3.org/2000/svg"
   xmlns:svg="http://www.w3.org/2000/svg"
   xmlns:rdf="http://www.w3.org/1999/02/22-rdf-syntax-ns#"
   xmlns:cc="http://creativecommons.org/ns#"
   xmlns:dc="http://purl.org/dc/elements/1.1/">
  <defs
     id="defs738" />
  <sodipodi:namedview
     id="namedview736"
     pagecolor="#505050"
     bordercolor="#eeeeee"
     borderopacity="1"
     inkscape:showpageshadow="0"
     inkscape:pageopacity="0"
     inkscape:pagecheckerboard="0"
     inkscape:deskcolor="#505050"
     inkscape:document-units="mm"
     showgrid="false"
     inkscape:zoom="1.3050315"
     inkscape:cx="508.79998"
     inkscape:cy="318.38312"
     inkscape:window-width="2133"
     inkscape:window-height="1121"
     inkscape:window-x="1911"
     inkscape:window-y="41"
     inkscape:window-maximized="1"
     inkscape:current-layer="svg734" />
  <title
     id="title2">SVG Image created as Batreeq-wireless-brd.svg date 2024/07/21 02:04:14 </title>
  <desc
     id="desc4">Image generated by PCBNEW </desc>
  <g
     style="fill:#000000; fill-opacity:1.0000;stroke:#000000; stroke-opacity:1.0000; stroke-linecap:round; stroke-linejoin:round;"
     transform="translate(0 0) scale(1 1)"
     id="g6" />
  <g
     style="fill:#000000; fill-opacity:0.0;  stroke:#000000; stroke-width:0.0000; stroke-opacity:1;  stroke-linecap:round; stroke-linejoin:round;"
     id="g8" />
  <g
     style="fill:#000000; fill-opacity:0.0;  stroke:#000000; stroke-width:0.1000; stroke-opacity:1;  stroke-linecap:round; stroke-linejoin:round;"
     id="g40">
    <path
       d="M140.0441 9.2264 L132.6781 9.2264 "
       id="path10" />
    <path
       d="M127.5381 10.7054 L132.6881 10.7054 "
       id="path12" />
    <path
       d="M140.0381 10.6804 L140.0441 9.2264 "
       id="path14" />
    <path
       d="M145.3381 10.6804 L140.0381 10.6804 "
       id="path16" />
    <path
       d="M145.4131 43.8054 L145.3381 10.6804 "
       id="path18" />
    <path
       d="M145.2881 43.8054 L145.4131 43.8054 "
       id="path20" />
    <path
       d="M127.5881 43.8054 L145.2881 43.8054 "
       id="path22" />
    <path
       d="M127.5381 10.7054 L127.5881 43.8054 "
       id="path24" />
    <path
       d="M132.6781 9.2264 L132.6881 10.7054 "
       id="path26" />
    <path
       style="fill:#000000; fill-opacity:0.0;  stroke:#000000; stroke-width:0.1000; stroke-opacity:1;  stroke-linecap:round; stroke-linejoin:round;fill:none"
       d="M 120.4631,16.7036 153.4881,16.7036 153.4881,30.3804 120.4631,30.3804 Z"
       id="path28" />
    <path
       style="fill:#000000; fill-opacity:0.0;  stroke:#000000; stroke-width:0.1000; stroke-opacity:1;  stroke-linecap:round; stroke-linejoin:round;fill:none"
       d="M 170.5631,6.8804 181.9631,6.8804 181.9631,16.2804 170.5631,16.2804 Z"
       id="path30" />
    <path
       style="fill:#000000; fill-opacity:0.0;  stroke:#000000; stroke-width:0.1000; stroke-opacity:1;  stroke-linecap:round; stroke-linejoin:round;fill:none"
       d="M 170.8881,17.8554 177.5881,17.8554 177.5881,25.3554 170.8881,25.3554 Z"
       id="path32" />
    <path
       style="fill:#000000; fill-opacity:0.0;  stroke:#000000; stroke-width:0.1000; stroke-opacity:1;  stroke-linecap:round; stroke-linejoin:round;fill:none"
       d="M 157.5131,12.0554 163.5131,12.0554 163.5131,15.5804 157.5131,15.5804 Z"
       id="path34" />
    <circle
       cx="230.8131"
       cy="89.7804"
       r="4.8686"
       id="circle36" />
    <circle
       cx="40.9631"
       cy="89.7554"
       r="5.0327"
       id="circle38" />
  </g>
  <g
     style="fill:#000000; fill-opacity:0.0;  stroke:#000000; stroke-width:0.1500; stroke-opacity:1;  stroke-linecap:round; stroke-linejoin:round;"
     id="g276">
    <path
       d="M8.6047 35.9614 L27.7140 39.3263 "
       id="path42" />
    <path
       d="M5.2452 55.0581 L24.3515 58.4363 "
       id="path44" />
    <path
       d="M190.9954 87.7409 L208.9841 80.4682 "
       id="path46" />
    <path
       d="M198.2660 105.7162 L216.2593 98.4562 "
       id="path48" />
    <path
       d="M174.6602 99.2190 L192.6489 91.9462 "
       id="path50" />
    <path
       d="M181.9308 117.1942 L199.9241 109.9343 "
       id="path52" />
    <path
       d="M180.8625 50.0265 L198.8513 42.7538 "
       id="path54" />
    <path
       d="M188.1332 68.0018 L206.1264 60.7418 "
       id="path56" />
    <path
       d="M63.1583 13.9248 L81.1504 21.1893 "
       id="path58" />
    <path
       d="M55.9018 31.9057 L73.8882 39.1825 "
       id="path60" />
    <path
       d="M79.5518 25.2035 L97.5439 32.4680 "
       id="path62" />
    <path
       d="M72.2953 43.1845 L90.2817 50.4613 "
       id="path64" />
    <path
       d="M146.0824 112.0121 L165.4858 112.0076 "
       id="path66" />
    <path
       d="M146.0901 131.4021 L165.4928 131.4111 "
       id="path68" />
    <path
       d="M78.6366 92.0125 L96.6288 99.2769 "
       id="path70" />
    <path
       d="M71.3801 109.9934 L89.3666 117.2702 "
       id="path72" />
    <path
       d="M189.9214 21.1917 L207.9102 13.9190 "
       id="path74" />
    <path
       d="M197.1921 39.1669 L215.1854 31.9070 "
       id="path76" />
    <path
       d="M56.0408 31.5413 L74.0329 38.8057 "
       id="path78" />
    <path
       d="M48.7842 49.5222 L66.7707 56.7990 "
       id="path80" />
    <path
       d="M65.3168 60.4365 L83.3089 67.7010 "
       id="path82" />
    <path
       d="M58.0602 78.4175 L76.0467 85.6943 "
       id="path84" />
    <path
       d="M243.3565 39.3289 L262.4642 35.9551 "
       id="path86" />
    <path
       d="M246.7310 58.4230 L265.8405 55.0627 "
       id="path88" />
    <path
       d="M204.1565 56.4247 L222.1452 49.1519 "
       id="path90" />
    <path
       d="M211.4272 74.3999 L229.4204 67.1400 "
       id="path92" />
    <path
       d="M27.1267 48.4277 L45.6835 54.0964 "
       id="path94" />
    <path
       d="M21.4649 66.9727 L40.0172 72.6541 "
       id="path96" />
    <path
       d="M107.4769 112.0121 L126.8802 112.0076 "
       id="path98" />
    <path
       d="M107.4845 131.4021 L126.8872 131.4111 "
       id="path100" />
    <path
       d="M38.2369 12.0881 L56.7937 17.7568 "
       id="path102" />
    <path
       d="M32.5751 30.6331 L51.1273 36.3146 "
       id="path104" />
    <path
       d="M62.3014 80.5344 L80.2935 87.7989 "
       id="path106" />
    <path
       d="M55.0449 98.5154 L73.0313 105.7921 "
       id="path108" />
    <path
       d="M166.1570 64.9192 L184.1457 57.6465 "
       id="path110" />
    <path
       d="M173.4276 82.8945 L191.4209 75.6345 "
       id="path112" />
    <path
       d="M11.8950 17.2330 L31.0043 20.5979 "
       id="path114" />
    <path
       d="M8.5354 36.3297 L27.6418 39.7079 "
       id="path116" />
    <path
       d="M48.9233 49.1578 L66.9154 56.4222 "
       id="path118" />
    <path
       d="M41.6667 67.1387 L59.6532 74.4155 "
       id="path120" />
    <path
       d="M214.2778 17.7592 L232.8319 12.0819 "
       id="path122" />
    <path
       d="M219.9541 36.2997 L238.5117 30.6356 "
       id="path124" />
    <path
       d="M219.8307 35.9253 L238.3848 30.2481 "
       id="path126" />
    <path
       d="M225.5070 54.4659 L244.0646 48.8018 "
       id="path128" />
    <path
       d="M72.4343 42.8200 L90.4264 50.0845 "
       id="path130" />
    <path
       d="M65.1777 60.8010 L83.1642 68.0778 "
       id="path132" />
    <path
       d="M94.2574 40.0962 L112.2495 47.3607 "
       id="path134" />
    <path
       d="M87.0008 58.0772 L104.9873 65.3540 "
       id="path136" />
    <path
       d="M159.0394 47.3027 L177.0282 40.0300 "
       id="path138" />
    <path
       d="M166.3101 65.2780 L184.3034 58.0180 "
       id="path140" />
    <path
       d="M240.0549 20.5941 L259.1627 17.2204 "
       id="path142" />
    <path
       d="M243.4295 39.6882 L262.5390 36.3279 "
       id="path144" />
    <path
       d="M173.7450 32.4100 L191.7337 25.1373 "
       id="path146" />
    <path
       d="M181.0157 50.3853 L199.0089 43.1253 "
       id="path148" />
    <path
       d="M126.7569 114.1287 L146.1602 114.1243 "
       id="path150" />
    <path
       d="M126.7645 133.5187 L146.1672 133.5278 "
       id="path152" />
    <path
       d="M197.0390 38.8082 L215.0277 31.5354 "
       id="path154" />
    <path
       d="M204.3096 56.7834 L222.3029 49.5235 "
       id="path156" />
    <path
       d="M225.3879 54.0988 L243.9421 48.4215 "
       id="path158" />
    <path
       d="M231.0643 72.6393 L249.6218 66.9752 "
       id="path160" />
    <path
       d="M32.6910 30.2739 L51.2478 35.9426 "
       id="path162" />
    <path
       d="M27.0292 48.8189 L45.5815 54.5004 "
       id="path164" />
    <path
       d="M187.9800 67.6430 L205.9688 60.3703 "
       id="path166" />
    <path
       d="M195.2507 85.6183 L213.2440 78.3583 "
       id="path168" />
    <path
       d="M87.1398 57.7127 L105.1320 64.9772 "
       id="path170" />
    <path
       d="M79.8833 75.6937 L97.8698 82.9705 "
       id="path172" />
    <path
       d="M126.7827 94.8354 L146.1860 94.8310 "
       id="path174" />
    <path
       d="M126.7903 114.2254 L146.1930 114.2345 "
       id="path176" />
    <g
       id="g178" />
    <g
       id="g180" />
    <g
       id="g182" />
    <g
       id="g184" />
    <g
       id="g186" />
    <g
       id="g188" />
    <g
       id="g190" />
    <g
       id="g192" />
    <g
       id="g194" />
    <g
       id="g196" />
    <g
       id="g198" />
    <g
       id="g200" />
    <g
       id="g202" />
    <g
       id="g204" />
    <g
       id="g206" />
    <g
       id="g208" />
    <g
       id="g210" />
    <g
       id="g212" />
    <g
       id="g214" />
    <g
       id="g216" />
    <g
       id="g218" />
    <g
       id="g220" />
    <g
       id="g222" />
    <g
       id="g224" />
    <g
       id="g226" />
    <g
       id="g228" />
    <g
       id="g230" />
    <g
       id="g232" />
    <g
       id="g234" />
    <g
       id="g236" />
    <g
       id="g238" />
    <g
       id="g240" />
    <g
       id="g242" />
    <g
       id="g244" />
    <g
       id="g246" />
    <g
       id="g248" />
    <g
       id="g250" />
    <g
       id="g252" />
    <g
       id="g254" />
    <g
       id="g256" />
    <g
       id="g258" />
    <g
       id="g260" />
    <g
       id="g262" />
    <g
       id="g264" />
    <g
       id="g266" />
    <g
       id="g268" />
    <g
       id="g270" />
    <g
       id="g272" />
    <g
       id="g274" />
  </g>
  <g
     style="fill:#000000; fill-opacity:0.0;  stroke:#000000; stroke-width:0.1500; stroke-opacity:1;  stroke-linecap:round; stroke-linejoin:round;"
     id="g278" />
  <g
     style="fill:#000000; fill-opacity:0.0;  stroke:#000000; stroke-width:0.0500; stroke-opacity:1;  stroke-linecap:round; stroke-linejoin:round;"
     id="g360">
    <circle
       cx="145.1631"
       cy="74.7661"
       r="1.3892"
       id="circle280" />
    <circle
       cx="127.1881"
       cy="53.7661"
       r="1.3892"
       id="circle282" />
    <path
       d="M127.5571 51.8043 A3.9400 3.9400 0.0 0 0 123.6171 55.7443"
       id="path284" />
    <path
       d="M123.6171 55.7443 L123.6171 72.8943 "
       id="path286" />
    <path
       d="M127.5571 76.8343 L144.6771 76.8343 "
       id="path288" />
    <path
       d="M148.6171 55.7443 A3.9400 3.9400 0.0 0 0 144.6771 51.8043"
       id="path290" />
    <path
       d="M123.6171 72.8943 A3.9399 3.9399 0.0 0 0 127.5571 76.8343"
       id="path292" />
    <path
       d="M148.6171 72.8943 L148.6171 55.7443 "
       id="path294" />
    <path
       d="M144.6771 76.8343 A3.9400 3.9400 0.0 0 0 148.6171 72.8943"
       id="path296" />
    <path
       d="M144.6771 51.8043 L127.5571 51.8043 "
       id="path298" />
    <path
       d="M21.5375 60.2447 A0.5464 0.5464 0.0 0 0 21.1337 59.5873"
       id="path300" />
    <path
       d="M166.6631 126.4304 L166.6520 132.3621 "
       id="path302" />
    <path
       d="M26.8320 19.0984 A0.6859 0.6859 0.0 0 0 27.4863 18.8634"
       id="path304" />
    <path
       d="M243.8362 18.1174 A0.6859 0.6859 0.0 0 0 244.4904 18.3524"
       id="path306" />
    <path
       d="M4.4131 56.3304 L11.3162 16.7263 "
       id="path308" />
    <path
       d="M106.3482 132.2487 A257.0073 257.0073 0.0 0 0 166.6520 132.3621"
       id="path310" />
    <path
       d="M240.9631 93.0304 L233.2131 73.6804 "
       id="path312" />
    <path
       d="M21.5376 60.2447 L19.1432 67.8483 "
       id="path314" />
    <path
       d="M19.1432 67.8483 A0.3470 0.3470 0.0 0 0 19.3552 68.2984"
       id="path316" />
    <path
       d="M151.1631 47.5604 L151.1631 91.9304 "
       id="path318" />
    <path
       d="M120.6831 47.5604 L151.1631 47.5604 "
       id="path320" />
    <path
       d="M120.6831 91.9304 L120.6831 47.5604 "
       id="path322" />
    <path
       d="M38.1631 74.4304 L30.6131 93.3804 "
       id="path324" />
    <path
       d="M151.1631 91.9304 L120.6831 91.9304 "
       id="path326" />
    <path
       d="M19.3552 68.2984 L38.1631 74.4304 "
       id="path328" />
    <path
       d="M26.8320 19.0984 L11.3162 16.7263 "
       id="path330" />
    <path
       d="M243.8362 18.1174 L236.1826 10.0256 "
       id="path332" />
    <path
       d="M233.2131 73.6804 L251.9673 67.5524 "
       id="path334" />
    <path
       d="M35.3131 10.5804 L27.4863 18.8634 "
       id="path336" />
    <path
       d="M30.6131 93.3804 L106.3631 126.3804 "
       id="path338" />
    <path
       d="M4.4131 56.3304 L21.1337 59.5873 "
       id="path340" />
    <path
       d="M250.1888 58.8413 A0.5464 0.5464 0.0 0 0 249.7849 59.4987"
       id="path342" />
    <path
       d="M250.1888 58.8413 L266.8131 55.5304 "
       id="path344" />
    <path
       d="M260.0063 15.9803 L244.4904 18.3524 "
       id="path346" />
    <path
       d="M251.9673 67.5523 A0.3468 0.3468 0.0 0 0 252.1793 67.1023"
       id="path348" />
    <path
       d="M106.3631 126.3804 L106.3482 132.2487 "
       id="path350" />
    <path
       d="M252.1793 67.1023 L249.7849 59.4987 "
       id="path352" />
    <path
       d="M166.6631 126.4304 L240.9631 93.0304 "
       id="path354" />
    <path
       d="M236.1826 10.0256 L35.3131 10.5804 "
       id="path356" />
    <path
       d="M266.8131 55.5304 L260.0063 15.9803 "
       id="path358" />
  </g>
  <g
     style="fill:#000000; fill-opacity:0.0;  stroke:#000000; stroke-width:0.1200; stroke-opacity:1;  stroke-linecap:round; stroke-linejoin:round;"
     id="g732">
    <path
       d="M10.6021 38.8368 L24.8567 41.3706 "
       id="path362" />
    <path
       d="M8.0998 53.0279 L10.6021 38.8368 "
       id="path364" />
    <path
       d="M24.8567 41.3706 L22.3579 55.5420 "
       id="path366" />
    <path
       d="M22.3579 55.5420 L8.0998 53.0279 "
       id="path368" />
    <path
       d="M194.2130 89.1210 L207.6443 83.7160 "
       id="path370" />
    <path
       d="M199.6111 102.4817 L194.2130 89.1210 "
       id="path372" />
    <path
       d="M207.6443 83.7160 L213.0349 97.0581 "
       id="path374" />
    <path
       d="M213.0349 97.0581 L199.6111 102.4817 "
       id="path376" />
    <path
       d="M177.8778 100.5990 L191.3091 95.1940 "
       id="path378" />
    <path
       d="M183.2759 113.9598 L177.8778 100.5990 "
       id="path380" />
    <path
       d="M191.3091 95.1940 L196.6997 108.5362 "
       id="path382" />
    <path
       d="M196.6997 108.5362 L183.2759 113.9598 "
       id="path384" />
    <path
       d="M184.0802 51.4066 L197.5114 46.0016 "
       id="path386" />
    <path
       d="M189.4782 64.7673 L184.0802 51.4066 "
       id="path388" />
    <path
       d="M197.5114 46.0016 L202.9020 59.3438 "
       id="path390" />
    <path
       d="M202.9020 59.3438 L189.4782 64.7673 "
       id="path392" />
    <path
       d="M64.5142 17.1527 L77.9305 22.5948 "
       id="path394" />
    <path
       d="M59.1162 30.5134 L64.5142 17.1527 "
       id="path396" />
    <path
       d="M77.9305 22.5948 L72.5399 35.9370 "
       id="path398" />
    <path
       d="M72.5399 35.9370 L59.1162 30.5134 "
       id="path400" />
    <path
       d="M80.9078 28.4314 L94.3240 33.8735 "
       id="path402" />
    <path
       d="M75.5097 41.7922 L80.9078 28.4314 "
       id="path404" />
    <path
       d="M94.3240 33.8735 L88.9334 47.2157 "
       id="path406" />
    <path
       d="M88.9334 47.2157 L75.5097 41.7922 "
       id="path408" />
    <path
       d="M148.5488 114.4970 L163.0268 114.5170 "
       id="path410" />
    <path
       d="M148.5488 128.9070 L148.5488 114.4970 "
       id="path412" />
    <path
       d="M163.0268 114.5170 L163.0268 128.9070 "
       id="path414" />
    <path
       d="M163.0268 128.9070 L148.5488 128.9070 "
       id="path416" />
    <path
       d="M79.9926 95.2404 L93.4089 100.6825 "
       id="path418" />
    <path
       d="M74.5945 108.6011 L79.9926 95.2404 "
       id="path420" />
    <path
       d="M93.4089 100.6825 L88.0183 114.0247 "
       id="path422" />
    <path
       d="M88.0183 114.0247 L74.5945 108.6011 "
       id="path424" />
    <path
       d="M193.1391 22.5718 L206.5703 17.1667 "
       id="path426" />
    <path
       d="M198.5372 35.9325 L193.1391 22.5718 "
       id="path428" />
    <path
       d="M206.5703 17.1667 L211.9609 30.5089 "
       id="path430" />
    <path
       d="M211.9609 30.5089 L198.5372 35.9325 "
       id="path432" />
    <path
       d="M57.3967 34.7692 L70.8130 40.2113 "
       id="path434" />
    <path
       d="M51.9986 48.1299 L57.3967 34.7692 "
       id="path436" />
    <path
       d="M70.8130 40.2113 L65.4224 53.5535 "
       id="path438" />
    <path
       d="M65.4224 53.5535 L51.9986 48.1299 "
       id="path440" />
    <path
       d="M66.6727 63.6644 L80.0890 69.1065 "
       id="path442" />
    <path
       d="M61.2746 77.0252 L66.6727 63.6644 "
       id="path444" />
    <path
       d="M80.0890 69.1065 L74.6984 82.4487 "
       id="path446" />
    <path
       d="M74.6984 82.4487 L61.2746 77.0252 "
       id="path448" />
    <path
       d="M246.2169 41.3478 L260.4784 38.8534 "
       id="path450" />
    <path
       d="M248.7192 55.5389 L246.2169 41.3478 "
       id="path452" />
    <path
       d="M260.4784 38.8534 L262.9772 53.0248 "
       id="path454" />
    <path
       d="M262.9772 53.0248 L248.7192 55.5389 "
       id="path456" />
    <path
       d="M207.3741 57.8047 L220.8054 52.3997 "
       id="path458" />
    <path
       d="M212.7722 71.1655 L207.3741 57.8047 "
       id="path460" />
    <path
       d="M220.8054 52.3997 L226.1960 65.7419 "
       id="path462" />
    <path
       d="M226.1960 65.7419 L212.7722 71.1655 "
       id="path464" />
    <path
       d="M28.7588 51.5251 L42.5984 55.7772 "
       id="path466" />
    <path
       d="M24.5458 65.3055 L28.7588 51.5251 "
       id="path468" />
    <path
       d="M42.5984 55.7772 L38.3911 69.5384 "
       id="path470" />
    <path
       d="M38.3911 69.5384 L24.5458 65.3055 "
       id="path472" />
    <path
       d="M109.9432 114.4970 L124.4212 114.5170 "
       id="path474" />
    <path
       d="M109.9432 128.9070 L109.9432 114.4970 "
       id="path476" />
    <path
       d="M124.4212 114.5170 L124.4212 128.9070 "
       id="path478" />
    <path
       d="M124.4212 128.9070 L109.9432 128.9070 "
       id="path480" />
    <path
       d="M39.8690 15.1856 L53.7085 19.4376 "
       id="path482" />
    <path
       d="M35.6559 28.9659 L39.8690 15.1856 "
       id="path484" />
    <path
       d="M53.7085 19.4376 L49.5013 33.1989 "
       id="path486" />
    <path
       d="M49.5013 33.1989 L35.6559 28.9659 "
       id="path488" />
    <path
       d="M63.6574 83.7623 L77.0736 89.2044 "
       id="path490" />
    <path
       d="M58.2593 97.1230 L63.6574 83.7623 "
       id="path492" />
    <path
       d="M77.0736 89.2044 L71.6831 102.5466 "
       id="path494" />
    <path
       d="M71.6831 102.5466 L58.2593 97.1230 "
       id="path496" />
    <path
       d="M169.3746 66.2993 L182.8059 60.8943 "
       id="path498" />
    <path
       d="M174.7727 79.6600 L169.3746 66.2993 "
       id="path500" />
    <path
       d="M182.8059 60.8943 L188.1965 74.2365 "
       id="path502" />
    <path
       d="M188.1965 74.2365 L174.7727 79.6600 "
       id="path504" />
    <path
       d="M13.8924 20.1084 L28.1470 22.6422 "
       id="path506" />
    <path
       d="M11.3901 34.2995 L13.8924 20.1084 "
       id="path508" />
    <path
       d="M28.1470 22.6422 L25.6482 36.8136 "
       id="path510" />
    <path
       d="M25.6482 36.8136 L11.3901 34.2995 "
       id="path512" />
    <path
       d="M50.2792 52.3857 L63.6955 57.8278 "
       id="path514" />
    <path
       d="M44.8811 65.7464 L50.2792 52.3857 "
       id="path516" />
    <path
       d="M63.6955 57.8278 L58.3049 71.1700 "
       id="path518" />
    <path
       d="M58.3049 71.1700 L44.8811 65.7464 "
       id="path520" />
    <path
       d="M217.3629 19.4144 L231.2141 15.2006 "
       id="path522" />
    <path
       d="M221.5760 33.1948 L217.3629 19.4144 "
       id="path524" />
    <path
       d="M231.2141 15.2006 L235.4214 28.9618 "
       id="path526" />
    <path
       d="M235.4214 28.9618 L221.5760 33.1948 "
       id="path528" />
    <path
       d="M222.9158 37.5806 L236.7670 33.3668 "
       id="path530" />
    <path
       d="M227.1289 51.3609 L222.9158 37.5806 "
       id="path532" />
    <path
       d="M236.7670 33.3668 L240.9742 47.1280 "
       id="path534" />
    <path
       d="M240.9742 47.1280 L227.1289 51.3609 "
       id="path536" />
    <path
       d="M73.7902 46.0479 L87.2065 51.4900 "
       id="path538" />
    <path
       d="M68.3921 59.4087 L73.7902 46.0479 "
       id="path540" />
    <path
       d="M87.2065 51.4900 L81.8159 64.8322 "
       id="path542" />
    <path
       d="M81.8159 64.8322 L68.3921 59.4087 "
       id="path544" />
    <path
       d="M95.6133 43.3241 L109.0296 48.7662 "
       id="path546" />
    <path
       d="M90.2152 56.6849 L95.6133 43.3241 "
       id="path548" />
    <path
       d="M109.0296 48.7662 L103.6390 62.1084 "
       id="path550" />
    <path
       d="M103.6390 62.1084 L90.2152 56.6849 "
       id="path552" />
    <path
       d="M162.2571 48.6828 L175.6884 43.2778 "
       id="path554" />
    <path
       d="M167.6552 62.0435 L162.2571 48.6828 "
       id="path556" />
    <path
       d="M175.6884 43.2778 L181.0789 56.6200 "
       id="path558" />
    <path
       d="M181.0789 56.6200 L167.6552 62.0435 "
       id="path560" />
    <path
       d="M242.9153 22.6130 L257.1769 20.1186 "
       id="path562" />
    <path
       d="M245.4176 36.8041 L242.9153 22.6130 "
       id="path564" />
    <path
       d="M257.1769 20.1186 L259.6757 34.2900 "
       id="path566" />
    <path
       d="M259.6757 34.2900 L245.4176 36.8041 "
       id="path568" />
    <path
       d="M176.9626 33.7901 L190.3939 28.3851 "
       id="path570" />
    <path
       d="M182.3607 47.1508 L176.9626 33.7901 "
       id="path572" />
    <path
       d="M190.3939 28.3851 L195.7845 41.7273 "
       id="path574" />
    <path
       d="M195.7845 41.7273 L182.3607 47.1508 "
       id="path576" />
    <path
       d="M129.2232 116.6137 L143.7012 116.6337 "
       id="path578" />
    <path
       d="M129.2232 131.0237 L129.2232 116.6137 "
       id="path580" />
    <path
       d="M143.7012 116.6337 L143.7012 131.0237 "
       id="path582" />
    <path
       d="M143.7012 131.0237 L129.2232 131.0237 "
       id="path584" />
    <path
       d="M200.2566 40.1883 L213.6879 34.7832 "
       id="path586" />
    <path
       d="M205.6547 53.5490 L200.2566 40.1883 "
       id="path588" />
    <path
       d="M213.6879 34.7832 L219.0785 48.1254 "
       id="path590" />
    <path
       d="M219.0785 48.1254 L205.6547 53.5490 "
       id="path592" />
    <path
       d="M228.4730 55.7540 L242.3243 51.5402 "
       id="path594" />
    <path
       d="M232.6861 69.5344 L228.4730 55.7540 "
       id="path596" />
    <path
       d="M242.3243 51.5402 L246.5315 65.3014 "
       id="path598" />
    <path
       d="M246.5315 65.3014 L232.6861 69.5344 "
       id="path600" />
    <path
       d="M34.3231 33.3714 L48.1627 37.6235 "
       id="path602" />
    <path
       d="M30.1101 47.1517 L34.3231 33.3714 "
       id="path604" />
    <path
       d="M48.1627 37.6235 L43.9555 51.3847 "
       id="path606" />
    <path
       d="M43.9555 51.3847 L30.1101 47.1517 "
       id="path608" />
    <path
       d="M191.1977 69.0231 L204.6289 63.6181 "
       id="path610" />
    <path
       d="M196.5958 82.3838 L191.1977 69.0231 "
       id="path612" />
    <path
       d="M204.6289 63.6181 L210.0195 76.9603 "
       id="path614" />
    <path
       d="M210.0195 76.9603 L196.5958 82.3838 "
       id="path616" />
    <path
       d="M88.4958 60.9406 L101.9120 66.3827 "
       id="path618" />
    <path
       d="M83.0977 74.3013 L88.4958 60.9406 "
       id="path620" />
    <path
       d="M101.9120 66.3827 L96.5215 79.7249 "
       id="path622" />
    <path
       d="M96.5215 79.7249 L83.0977 74.3013 "
       id="path624" />
    <path
       d="M129.2491 97.3204 L143.7271 97.3404 "
       id="path626" />
    <path
       d="M129.2491 111.7304 L129.2491 97.3204 "
       id="path628" />
    <path
       d="M143.7271 97.3404 L143.7271 111.7304 "
       id="path630" />
    <path
       d="M143.7271 111.7304 L129.2491 111.7304 "
       id="path632" />
    <g
       id="g634" />
    <g
       id="g636" />
    <g
       id="g638" />
    <g
       id="g640" />
    <g
       id="g642" />
    <g
       id="g644" />
    <g
       id="g646" />
    <g
       id="g648" />
    <g
       id="g650" />
    <g
       id="g652" />
    <g
       id="g654" />
    <g
       id="g656" />
    <g
       id="g658" />
    <g
       id="g660" />
    <g
       id="g662" />
    <g
       id="g664" />
    <g
       id="g666" />
    <g
       id="g668" />
    <g
       id="g670" />
    <g
       id="g672" />
    <g
       id="g674" />
    <g
       id="g676" />
    <g
       id="g678" />
    <g
       id="g680" />
    <g
       id="g682" />
    <g
       id="g684" />
    <g
       id="g686" />
    <g
       id="g688" />
    <g
       id="g690" />
    <g
       id="g692" />
    <g
       id="g694" />
    <g
       id="g696" />
    <g
       id="g698" />
    <g
       id="g700" />
    <g
       id="g702" />
    <g
       id="g704" />
    <g
       id="g706" />
    <g
       id="g708" />
    <g
       id="g710" />
    <g
       id="g712" />
    <g
       id="g714" />
    <g
       id="g716" />
    <g
       id="g718" />
    <g
       id="g720" />
    <g
       id="g722" />
    <g
       id="g724" />
    <g
       id="g726" />
    <g
       id="g728" />
    <g
       id="g730" />
  </g>
  <metadata
     id="metadata844">
    <rdf:RDF>
      <cc:Work
         rdf:about="">
        <dc:title>SVG Image created as Batreeq-wireless-brd.svg date 2024/07/21 02:04:14 </dc:title>
      </cc:Work>
    </rdf:RDF>
  </metadata>
</svg>
