  0
SECTION
  2
HEADER
  9
$ACADVER
  1
AC1014
  9
$HANDSEED
  5
FFFF
  9
$INSUNITS
 70
     4
  9
$MEASUREMENT
 70
     1
  0
ENDSEC
  0
SECTION
  2
TABLES
  0
TABLE
  2
VPORT
  5
8
330
0
100
AcDbSymbolTable
 70
     4
  0
VPORT
  5
2E
330
8
100
AcDbSymbolTableRecord
100
AcDbViewportTableRecord
  2
*ACTIVE
 70
     0
 10
0.0
 20
0.0
 11
1.0
 21
1.0
 12
210.0
 22
148.5
 13
0.0
 23
0.0
 14
10.0
 24
10.0
 15
10.0
 25
10.0
 16
0.0
 26
0.0
 36
1.0
 17
0.0
 27
0.0
 37
0.0
 40
341.0
 41
1.24
 42
50.0
 43
0.0
 44
0.0
 50
0.0
 51
0.0
 71
     0
 72
   100
 73
     1
 74
     3
 75
     0
 76
     0
 77
     0
 78
     0
  0
ENDTAB
  0
TABLE
  2
LTYPE
  5
5
330
0
100
AcDbSymbolTable
 70
     1
  0
LTYPE
  5
14
330
5
100
AcDbSymbolTableRecord
100
AcDbLinetypeTableRecord
  2
BYBLOCK
 70
     0
  3

 72
    65
 73
     0
 40
0.0
  0
LTYPE
  5
15
330
5
100
AcDbSymbolTableRecord
100
AcDbLinetypeTableRecord
  2
BYLAYER
 70
     0
  3

 72
    65
 73
     0
 40
0.0
  0
LTYPE
  5
16
330
5
100
AcDbSymbolTableRecord
100
AcDbLinetypeTableRecord
  2
CONTINUOUS
 70
     0
  3
Solid line
 72
    65
 73
     0
 40
0.0
  0
ENDTAB
  0
TABLE
  2
LAYER
  5
2
100
AcDbSymbolTable
 70
1
  0
LAYER
  5
50
100
AcDbSymbolTableRecord
100
AcDbLayerTableRecord
  2
0
 70
0
  6
CONTINUOUS
  0
ENDTAB
  0
TABLE
  2
STYLE
  5
3
330
0
100
AcDbSymbolTable
 70
     1
  0
STYLE
  5
11
330
3
100
AcDbSymbolTableRecord
100
AcDbTextStyleTableRecord
  2
STANDARD
 70
     0
 40
0.0
 41
1.0
 50
0.0
 71
     0
 42
2.5
  3
txt
  4

  0
ENDTAB
  0
TABLE
  2
VIEW
  5
6
330
0
100
AcDbSymbolTable
 70
     0
  0
ENDTAB
  0
TABLE
  2
UCS
  5
7
330
0
100
AcDbSymbolTable
 70
     0
  0
ENDTAB
  0
TABLE
  2
APPID
  5
9
330
0
100
AcDbSymbolTable
 70
     2
  0
APPID
  5
12
330
9
100
AcDbSymbolTableRecord
100
AcDbRegAppTableRecord
  2
ACAD
 70
     0
  0
ENDTAB
  0
TABLE
  2
DIMSTYLE
  5
A
330
0
100
AcDbSymbolTable
 70
     1
  0
DIMSTYLE
105
27
330
A
100
AcDbSymbolTableRecord
100
AcDbDimStyleTableRecord
  2
ISO-25
 70
     0
  3

  4

  5

  6

  7

 40
1.0
 41
2.5
 42
0.625
 43
3.75
 44
1.25
 45
0.0
 46
0.0
 47
0.0
 48
0.0
140
2.5
141
2.5
142
0.0
143
0.03937007874016
144
1.0
145
0.0
146
1.0
147
0.625
 71
     0
 72
     0
 73
     0
 74
     0
 75
     0
 76
     0
 77
     1
 78
     8
170
     0
171
     3
172
     1
173
     0
174
     0
175
     0
176
     0
177
     0
178
     0
270
     2
271
     2
272
     2
273
     2
274
     3
340
11
275
     0
280
     0
281
     0
282
     0
283
     0
284
     8
285
     0
286
     0
287
     3
288
     0
  0
ENDTAB
  0
TABLE
  2
BLOCK_RECORD
  5
1
330
0
100
AcDbSymbolTable
 70
     1
  0
BLOCK_RECORD
  5
1F
330
1
100
AcDbSymbolTableRecord
100
AcDbBlockTableRecord
  2
*MODEL_SPACE
  0
BLOCK_RECORD
  5
1B
330
1
100
AcDbSymbolTableRecord
100
AcDbBlockTableRecord
  2
*PAPER_SPACE
  0
ENDTAB
  0
ENDSEC
  0
SECTION
  2
BLOCKS
  0
BLOCK
  5
20
330
1F
100
AcDbEntity
  8
0
100
AcDbBlockBegin
  2
*MODEL_SPACE
 70
     0
 10
0.0
 20
0.0
 30
0.0
  3
*MODEL_SPACE
  1

  0
ENDBLK
  5
21
330
1F
100
AcDbEntity
  8
0
100
AcDbBlockEnd
  0
BLOCK
  5
1C
330
1B
100
AcDbEntity
 67
     1
  8
0
100
AcDbBlockBegin
  2
*PAPER_SPACE
  1

  0
ENDBLK
  5
1D
330
1B
100
AcDbEntity
 67
     1
  8
0
100
AcDbBlockEnd
  0
ENDSEC
  0
SECTION
  2
ENTITIES
  0
LINE
  5
100
100
AcDbEntity
  8
0
 62
7
100
AcDbLine
 10
140.044100
 20
158.921600
 30
0.0
 11
132.678100
 21
158.921600
 31
0.0
  0
LINE
  5
101
100
AcDbEntity
  8
0
 62
7
100
AcDbLine
 10
127.538100
 20
157.442600
 30
0.0
 11
132.688100
 21
157.442600
 31
0.0
  0
LINE
  5
102
100
AcDbEntity
  8
0
 62
7
100
AcDbLine
 10
140.038100
 20
157.467600
 30
0.0
 11
140.044100
 21
158.921600
 31
0.0
  0
LINE
  5
103
100
AcDbEntity
  8
0
 62
7
100
AcDbLine
 10
145.338100
 20
157.467600
 30
0.0
 11
140.038100
 21
157.467600
 31
0.0
  0
LINE
  5
104
100
AcDbEntity
  8
0
 62
7
100
AcDbLine
 10
145.413100
 20
124.342600
 30
0.0
 11
145.338100
 21
157.467600
 31
0.0
  0
LINE
  5
105
100
AcDbEntity
  8
0
 62
7
100
AcDbLine
 10
145.288100
 20
124.342600
 30
0.0
 11
145.413100
 21
124.342600
 31
0.0
  0
LINE
  5
106
100
AcDbEntity
  8
0
 62
7
100
AcDbLine
 10
127.588100
 20
124.342600
 30
0.0
 11
145.288100
 21
124.342600
 31
0.0
  0
LINE
  5
107
100
AcDbEntity
  8
0
 62
7
100
AcDbLine
 10
127.538100
 20
157.442600
 30
0.0
 11
127.588100
 21
124.342600
 31
0.0
  0
LINE
  5
108
100
AcDbEntity
  8
0
 62
7
100
AcDbLine
 10
132.678100
 20
158.921600
 30
0.0
 11
132.688100
 21
157.442600
 31
0.0
  0
LINE
  5
109
100
AcDbEntity
  8
0
 62
7
100
AcDbLine
 10
120.463100
 20
151.444400
 30
0.0
 11
153.488100
 21
151.444400
 31
0.0
  0
LINE
  5
10a
100
AcDbEntity
  8
0
 62
7
100
AcDbLine
 10
153.488100
 20
151.444400
 30
0.0
 11
153.488100
 21
137.767600
 31
0.0
  0
LINE
  5
10b
100
AcDbEntity
  8
0
 62
7
100
AcDbLine
 10
153.488100
 20
137.767600
 30
0.0
 11
120.463100
 21
137.767600
 31
0.0
  0
LINE
  5
10c
100
AcDbEntity
  8
0
 62
7
100
AcDbLine
 10
120.463100
 20
137.767600
 30
0.0
 11
120.463100
 21
151.444400
 31
0.0
  0
LINE
  5
10d
100
AcDbEntity
  8
0
 62
7
100
AcDbLine
 10
170.563100
 20
161.267600
 30
0.0
 11
181.963100
 21
161.267600
 31
0.0
  0
LINE
  5
10e
100
AcDbEntity
  8
0
 62
7
100
AcDbLine
 10
181.963100
 20
161.267600
 30
0.0
 11
181.963100
 21
151.867600
 31
0.0
  0
LINE
  5
10f
100
AcDbEntity
  8
0
 62
7
100
AcDbLine
 10
181.963100
 20
151.867600
 30
0.0
 11
170.563100
 21
151.867600
 31
0.0
  0
LINE
  5
110
100
AcDbEntity
  8
0
 62
7
100
AcDbLine
 10
170.563100
 20
151.867600
 30
0.0
 11
170.563100
 21
161.267600
 31
0.0
  0
LINE
  5
111
100
AcDbEntity
  8
0
 62
7
100
AcDbLine
 10
170.888100
 20
150.292600
 30
0.0
 11
177.588100
 21
150.292600
 31
0.0
  0
LINE
  5
112
100
AcDbEntity
  8
0
 62
7
100
AcDbLine
 10
177.588100
 20
150.292600
 30
0.0
 11
177.588100
 21
142.792600
 31
0.0
  0
LINE
  5
113
100
AcDbEntity
  8
0
 62
7
100
AcDbLine
 10
177.588100
 20
142.792600
 30
0.0
 11
170.888100
 21
142.792600
 31
0.0
  0
LINE
  5
114
100
AcDbEntity
  8
0
 62
7
100
AcDbLine
 10
170.888100
 20
142.792600
 30
0.0
 11
170.888100
 21
150.292600
 31
0.0
  0
LINE
  5
115
100
AcDbEntity
  8
0
 62
7
100
AcDbLine
 10
157.513100
 20
156.092600
 30
0.0
 11
163.513100
 21
156.092600
 31
0.0
  0
LINE
  5
116
100
AcDbEntity
  8
0
 62
7
100
AcDbLine
 10
163.513100
 20
156.092600
 30
0.0
 11
163.513100
 21
152.567600
 31
0.0
  0
LINE
  5
117
100
AcDbEntity
  8
0
 62
7
100
AcDbLine
 10
163.513100
 20
152.567600
 30
0.0
 11
157.513100
 21
152.567600
 31
0.0
  0
LINE
  5
118
100
AcDbEntity
  8
0
 62
7
100
AcDbLine
 10
157.513100
 20
152.567600
 30
0.0
 11
157.513100
 21
156.092600
 31
0.0
  0
SPLINE
  5
119
100
AcDbEntity
  8
0
 62
7
100
AcDbSpline
 70
8
 71
3
 72
8
 73
4
 74
0
 40
0
 40
0
 40
0
 40
0
 40
1
 40
1
 40
1
 40
1
 10
230.813100
 20
83.236200
 30
0.0
 10
228.843935
 20
83.236200
 30
0.0
 10
227.068667
 20
82.050004
 30
0.0
 10
226.315100
 20
80.230733
 30
0.0
  0
SPLINE
  5
11a
100
AcDbEntity
  8
0
 62
7
100
AcDbSpline
 70
8
 71
3
 72
8
 73
4
 74
0
 40
0
 40
0
 40
0
 40
0
 40
1
 40
1
 40
1
 40
1
 10
226.315100
 20
80.230733
 30
0.0
 10
225.561533
 20
78.411461
 30
0.0
 10
225.978070
 20
76.317390
 30
0.0
 10
227.370480
 20
74.924980
 30
0.0
  0
SPLINE
  5
11b
100
AcDbEntity
  8
0
 62
7
100
AcDbSpline
 70
8
 71
3
 72
8
 73
4
 74
0
 40
0
 40
0
 40
0
 40
0
 40
1
 40
1
 40
1
 40
1
 10
227.370480
 20
74.924980
 30
0.0
 10
228.762890
 20
73.532570
 30
0.0
 10
230.856961
 20
73.116033
 30
0.0
 10
232.676233
 20
73.869600
 30
0.0
  0
SPLINE
  5
11c
100
AcDbEntity
  8
0
 62
7
100
AcDbSpline
 70
8
 71
3
 72
8
 73
4
 74
0
 40
0
 40
0
 40
0
 40
0
 40
1
 40
1
 40
1
 40
1
 10
232.676233
 20
73.869600
 30
0.0
 10
234.495504
 20
74.623167
 30
0.0
 10
235.681700
 20
76.398435
 30
0.0
 10
235.681700
 20
78.367600
 30
0.0
  0
SPLINE
  5
11d
100
AcDbEntity
  8
0
 62
7
100
AcDbSpline
 70
8
 71
3
 72
8
 73
4
 74
0
 40
0
 40
0
 40
0
 40
0
 40
1
 40
1
 40
1
 40
1
 10
235.681700
 20
78.367600
 30
0.0
 10
235.681700
 20
81.056454
 30
0.0
 10
233.501954
 20
83.236200
 30
0.0
 10
230.813100
 20
83.236200
 30
0.0
  0
LINE
  5
11e
100
AcDbEntity
  8
0
 62
7
100
AcDbLine
 10
230.813100
 20
83.236200
 30
0.0
 11
230.813100
 21
83.236200
 31
0.0
  0
SPLINE
  5
11f
100
AcDbEntity
  8
0
 62
7
100
AcDbSpline
 70
8
 71
3
 72
8
 73
4
 74
0
 40
0
 40
0
 40
0
 40
0
 40
1
 40
1
 40
1
 40
1
 10
40.963100
 20
83.425300
 30
0.0
 10
38.927563
 20
83.425300
 30
0.0
 10
37.092458
 20
82.199122
 30
0.0
 10
36.313491
 20
80.318531
 30
0.0
  0
SPLINE
  5
120
100
AcDbEntity
  8
0
 62
7
100
AcDbSpline
 70
8
 71
3
 72
8
 73
4
 74
0
 40
0
 40
0
 40
0
 40
0
 40
1
 40
1
 40
1
 40
1
 10
36.313491
 20
80.318531
 30
0.0
 10
35.534525
 20
78.437940
 30
0.0
 10
35.965102
 20
76.273286
 30
0.0
 10
37.404444
 20
74.833944
 30
0.0
  0
SPLINE
  5
121
100
AcDbEntity
  8
0
 62
7
100
AcDbSpline
 70
8
 71
3
 72
8
 73
4
 74
0
 40
0
 40
0
 40
0
 40
0
 40
1
 40
1
 40
1
 40
1
 10
37.404444
 20
74.833944
 30
0.0
 10
38.843786
 20
73.394602
 30
0.0
 10
41.008440
 20
72.964025
 30
0.0
 10
42.889031
 20
73.742991
 30
0.0
  0
SPLINE
  5
122
100
AcDbEntity
  8
0
 62
7
100
AcDbSpline
 70
8
 71
3
 72
8
 73
4
 74
0
 40
0
 40
0
 40
0
 40
0
 40
1
 40
1
 40
1
 40
1
 10
42.889031
 20
73.742991
 30
0.0
 10
44.769622
 20
74.521958
 30
0.0
 10
45.995800
 20
76.357063
 30
0.0
 10
45.995800
 20
78.392600
 30
0.0
  0
SPLINE
  5
123
100
AcDbEntity
  8
0
 62
7
100
AcDbSpline
 70
8
 71
3
 72
8
 73
4
 74
0
 40
0
 40
0
 40
0
 40
0
 40
1
 40
1
 40
1
 40
1
 10
45.995800
 20
78.392600
 30
0.0
 10
45.995800
 20
79.727355
 30
0.0
 10
45.465571
 20
81.007442
 30
0.0
 10
44.521756
 20
81.951256
 30
0.0
  0
SPLINE
  5
124
100
AcDbEntity
  8
0
 62
7
100
AcDbSpline
 70
8
 71
3
 72
8
 73
4
 74
0
 40
0
 40
0
 40
0
 40
0
 40
1
 40
1
 40
1
 40
1
 10
44.521756
 20
81.951256
 30
0.0
 10
43.577942
 20
82.895071
 30
0.0
 10
42.297855
 20
83.425300
 30
0.0
 10
40.963100
 20
83.425300
 30
0.0
  0
LINE
  5
125
100
AcDbEntity
  8
0
 62
7
100
AcDbLine
 10
40.963100
 20
83.425300
 30
0.0
 11
40.963100
 21
83.425300
 31
0.0
  0
LINE
  5
126
100
AcDbEntity
  8
0
 62
7
100
AcDbLine
 10
8.604700
 20
132.186600
 30
0.0
 11
27.714000
 21
128.821700
 31
0.0
  0
LINE
  5
127
100
AcDbEntity
  8
0
 62
7
100
AcDbLine
 10
5.245200
 20
113.089900
 30
0.0
 11
24.351500
 21
109.711700
 31
0.0
  0
LINE
  5
128
100
AcDbEntity
  8
0
 62
7
100
AcDbLine
 10
190.995400
 20
80.407100
 30
0.0
 11
208.984100
 21
87.679800
 31
0.0
  0
LINE
  5
129
100
AcDbEntity
  8
0
 62
7
100
AcDbLine
 10
198.266000
 20
62.431800
 30
0.0
 11
216.259300
 21
69.691800
 31
0.0
  0
LINE
  5
12a
100
AcDbEntity
  8
0
 62
7
100
AcDbLine
 10
174.660200
 20
68.929000
 30
0.0
 11
192.648900
 21
76.201800
 31
0.0
  0
LINE
  5
12b
100
AcDbEntity
  8
0
 62
7
100
AcDbLine
 10
181.930800
 20
50.953800
 30
0.0
 11
199.924100
 21
58.213700
 31
0.0
  0
LINE
  5
12c
100
AcDbEntity
  8
0
 62
7
100
AcDbLine
 10
180.862500
 20
118.121500
 30
0.0
 11
198.851300
 21
125.394200
 31
0.0
  0
LINE
  5
12d
100
AcDbEntity
  8
0
 62
7
100
AcDbLine
 10
188.133200
 20
100.146200
 30
0.0
 11
206.126400
 21
107.406200
 31
0.0
  0
LINE
  5
12e
100
AcDbEntity
  8
0
 62
7
100
AcDbLine
 10
63.158300
 20
154.223200
 30
0.0
 11
81.150400
 21
146.958700
 31
0.0
  0
LINE
  5
12f
100
AcDbEntity
  8
0
 62
7
100
AcDbLine
 10
55.901800
 20
136.242300
 30
0.0
 11
73.888200
 21
128.965500
 31
0.0
  0
LINE
  5
130
100
AcDbEntity
  8
0
 62
7
100
AcDbLine
 10
79.551800
 20
142.944500
 30
0.0
 11
97.543900
 21
135.680000
 31
0.0
  0
LINE
  5
131
100
AcDbEntity
  8
0
 62
7
100
AcDbLine
 10
72.295300
 20
124.963500
 30
0.0
 11
90.281700
 21
117.686700
 31
0.0
  0
LINE
  5
132
100
AcDbEntity
  8
0
 62
7
100
AcDbLine
 10
146.082400
 20
56.135900
 30
0.0
 11
165.485800
 21
56.140400
 31
0.0
  0
LINE
  5
133
100
AcDbEntity
  8
0
 62
7
100
AcDbLine
 10
146.090100
 20
36.745900
 30
0.0
 11
165.492800
 21
36.736900
 31
0.0
  0
LINE
  5
134
100
AcDbEntity
  8
0
 62
7
100
AcDbLine
 10
78.636600
 20
76.135500
 30
0.0
 11
96.628800
 21
68.871100
 31
0.0
  0
LINE
  5
135
100
AcDbEntity
  8
0
 62
7
100
AcDbLine
 10
71.380100
 20
58.154600
 30
0.0
 11
89.366600
 21
50.877800
 31
0.0
  0
LINE
  5
136
100
AcDbEntity
  8
0
 62
7
100
AcDbLine
 10
189.921400
 20
146.956300
 30
0.0
 11
207.910200
 21
154.229000
 31
0.0
  0
LINE
  5
137
100
AcDbEntity
  8
0
 62
7
100
AcDbLine
 10
197.192100
 20
128.981100
 30
0.0
 11
215.185400
 21
136.241000
 31
0.0
  0
LINE
  5
138
100
AcDbEntity
  8
0
 62
7
100
AcDbLine
 10
56.040800
 20
136.606700
 30
0.0
 11
74.032900
 21
129.342300
 31
0.0
  0
LINE
  5
139
100
AcDbEntity
  8
0
 62
7
100
AcDbLine
 10
48.784200
 20
118.625800
 30
0.0
 11
66.770700
 21
111.349000
 31
0.0
  0
LINE
  5
13a
100
AcDbEntity
  8
0
 62
7
100
AcDbLine
 10
65.316800
 20
107.711500
 30
0.0
 11
83.308900
 21
100.447000
 31
0.0
  0
LINE
  5
13b
100
AcDbEntity
  8
0
 62
7
100
AcDbLine
 10
58.060200
 20
89.730500
 30
0.0
 11
76.046700
 21
82.453700
 31
0.0
  0
LINE
  5
13c
100
AcDbEntity
  8
0
 62
7
100
AcDbLine
 10
243.356500
 20
128.819100
 30
0.0
 11
262.464200
 21
132.192900
 31
0.0
  0
LINE
  5
13d
100
AcDbEntity
  8
0
 62
7
100
AcDbLine
 10
246.731000
 20
109.725000
 30
0.0
 11
265.840500
 21
113.085300
 31
0.0
  0
LINE
  5
13e
100
AcDbEntity
  8
0
 62
7
100
AcDbLine
 10
204.156500
 20
111.723300
 30
0.0
 11
222.145200
 21
118.996100
 31
0.0
  0
LINE
  5
13f
100
AcDbEntity
  8
0
 62
7
100
AcDbLine
 10
211.427200
 20
93.748100
 30
0.0
 11
229.420400
 21
101.008000
 31
0.0
  0
LINE
  5
140
100
AcDbEntity
  8
0
 62
7
100
AcDbLine
 10
27.126700
 20
119.720300
 30
0.0
 11
45.683500
 21
114.051600
 31
0.0
  0
LINE
  5
141
100
AcDbEntity
  8
0
 62
7
100
AcDbLine
 10
21.464900
 20
101.175300
 30
0.0
 11
40.017200
 21
95.493900
 31
0.0
  0
LINE
  5
142
100
AcDbEntity
  8
0
 62
7
100
AcDbLine
 10
107.476900
 20
56.135900
 30
0.0
 11
126.880200
 21
56.140400
 31
0.0
  0
LINE
  5
143
100
AcDbEntity
  8
0
 62
7
100
AcDbLine
 10
107.484500
 20
36.745900
 30
0.0
 11
126.887200
 21
36.736900
 31
0.0
  0
LINE
  5
144
100
AcDbEntity
  8
0
 62
7
100
AcDbLine
 10
38.236900
 20
156.059900
 30
0.0
 11
56.793700
 21
150.391200
 31
0.0
  0
LINE
  5
145
100
AcDbEntity
  8
0
 62
7
100
AcDbLine
 10
32.575100
 20
137.514900
 30
0.0
 11
51.127300
 21
131.833400
 31
0.0
  0
LINE
  5
146
100
AcDbEntity
  8
0
 62
7
100
AcDbLine
 10
62.301400
 20
87.613600
 30
0.0
 11
80.293500
 21
80.349100
 31
0.0
  0
LINE
  5
147
100
AcDbEntity
  8
0
 62
7
100
AcDbLine
 10
55.044900
 20
69.632600
 30
0.0
 11
73.031300
 21
62.355900
 31
0.0
  0
LINE
  5
148
100
AcDbEntity
  8
0
 62
7
100
AcDbLine
 10
166.157000
 20
103.228800
 30
0.0
 11
184.145700
 21
110.501500
 31
0.0
  0
LINE
  5
149
100
AcDbEntity
  8
0
 62
7
100
AcDbLine
 10
173.427600
 20
85.253500
 30
0.0
 11
191.420900
 21
92.513500
 31
0.0
  0
LINE
  5
14a
100
AcDbEntity
  8
0
 62
7
100
AcDbLine
 10
11.895000
 20
150.915000
 30
0.0
 11
31.004300
 21
147.550100
 31
0.0
  0
LINE
  5
14b
100
AcDbEntity
  8
0
 62
7
100
AcDbLine
 10
8.535400
 20
131.818300
 30
0.0
 11
27.641800
 21
128.440100
 31
0.0
  0
LINE
  5
14c
100
AcDbEntity
  8
0
 62
7
100
AcDbLine
 10
48.923300
 20
118.990200
 30
0.0
 11
66.915400
 21
111.725800
 31
0.0
  0
LINE
  5
14d
100
AcDbEntity
  8
0
 62
7
100
AcDbLine
 10
41.666700
 20
101.009300
 30
0.0
 11
59.653200
 21
93.732500
 31
0.0
  0
LINE
  5
14e
100
AcDbEntity
  8
0
 62
7
100
AcDbLine
 10
214.277800
 20
150.388800
 30
0.0
 11
232.831900
 21
156.066100
 31
0.0
  0
LINE
  5
14f
100
AcDbEntity
  8
0
 62
7
100
AcDbLine
 10
219.954100
 20
131.848300
 30
0.0
 11
238.511700
 21
137.512400
 31
0.0
  0
LINE
  5
150
100
AcDbEntity
  8
0
 62
7
100
AcDbLine
 10
219.830700
 20
132.222700
 30
0.0
 11
238.384800
 21
137.899900
 31
0.0
  0
LINE
  5
151
100
AcDbEntity
  8
0
 62
7
100
AcDbLine
 10
225.507000
 20
113.682100
 30
0.0
 11
244.064600
 21
119.346200
 31
0.0
  0
LINE
  5
152
100
AcDbEntity
  8
0
 62
7
100
AcDbLine
 10
72.434300
 20
125.328000
 30
0.0
 11
90.426400
 21
118.063500
 31
0.0
  0
LINE
  5
153
100
AcDbEntity
  8
0
 62
7
100
AcDbLine
 10
65.177700
 20
107.347000
 30
0.0
 11
83.164200
 21
100.070200
 31
0.0
  0
LINE
  5
154
100
AcDbEntity
  8
0
 62
7
100
AcDbLine
 10
94.257400
 20
128.051800
 30
0.0
 11
112.249500
 21
120.787300
 31
0.0
  0
LINE
  5
155
100
AcDbEntity
  8
0
 62
7
100
AcDbLine
 10
87.000800
 20
110.070800
 30
0.0
 11
104.987300
 21
102.794000
 31
0.0
  0
LINE
  5
156
100
AcDbEntity
  8
0
 62
7
100
AcDbLine
 10
159.039400
 20
120.845300
 30
0.0
 11
177.028200
 21
128.118000
 31
0.0
  0
LINE
  5
157
100
AcDbEntity
  8
0
 62
7
100
AcDbLine
 10
166.310100
 20
102.870000
 30
0.0
 11
184.303400
 21
110.130000
 31
0.0
  0
LINE
  5
158
100
AcDbEntity
  8
0
 62
7
100
AcDbLine
 10
240.054900
 20
147.553900
 30
0.0
 11
259.162700
 21
150.927600
 31
0.0
  0
LINE
  5
159
100
AcDbEntity
  8
0
 62
7
100
AcDbLine
 10
243.429500
 20
128.459800
 30
0.0
 11
262.539000
 21
131.820100
 31
0.0
  0
LINE
  5
15a
100
AcDbEntity
  8
0
 62
7
100
AcDbLine
 10
173.745000
 20
135.738000
 30
0.0
 11
191.733700
 21
143.010700
 31
0.0
  0
LINE
  5
15b
100
AcDbEntity
  8
0
 62
7
100
AcDbLine
 10
181.015700
 20
117.762700
 30
0.0
 11
199.008900
 21
125.022700
 31
0.0
  0
LINE
  5
15c
100
AcDbEntity
  8
0
 62
7
100
AcDbLine
 10
126.756900
 20
54.019300
 30
0.0
 11
146.160200
 21
54.023700
 31
0.0
  0
LINE
  5
15d
100
AcDbEntity
  8
0
 62
7
100
AcDbLine
 10
126.764500
 20
34.629300
 30
0.0
 11
146.167200
 21
34.620200
 31
0.0
  0
LINE
  5
15e
100
AcDbEntity
  8
0
 62
7
100
AcDbLine
 10
197.039000
 20
129.339800
 30
0.0
 11
215.027700
 21
136.612600
 31
0.0
  0
LINE
  5
15f
100
AcDbEntity
  8
0
 62
7
100
AcDbLine
 10
204.309600
 20
111.364600
 30
0.0
 11
222.302900
 21
118.624500
 31
0.0
  0
LINE
  5
160
100
AcDbEntity
  8
0
 62
7
100
AcDbLine
 10
225.387900
 20
114.049200
 30
0.0
 11
243.942100
 21
119.726500
 31
0.0
  0
LINE
  5
161
100
AcDbEntity
  8
0
 62
7
100
AcDbLine
 10
231.064300
 20
95.508700
 30
0.0
 11
249.621800
 21
101.172800
 31
0.0
  0
LINE
  5
162
100
AcDbEntity
  8
0
 62
7
100
AcDbLine
 10
32.691000
 20
137.874100
 30
0.0
 11
51.247800
 21
132.205400
 31
0.0
  0
LINE
  5
163
100
AcDbEntity
  8
0
 62
7
100
AcDbLine
 10
27.029200
 20
119.329100
 30
0.0
 11
45.581500
 21
113.647600
 31
0.0
  0
LINE
  5
164
100
AcDbEntity
  8
0
 62
7
100
AcDbLine
 10
187.980000
 20
100.505000
 30
0.0
 11
205.968800
 21
107.777700
 31
0.0
  0
LINE
  5
165
100
AcDbEntity
  8
0
 62
7
100
AcDbLine
 10
195.250700
 20
82.529700
 30
0.0
 11
213.244000
 21
89.789700
 31
0.0
  0
LINE
  5
166
100
AcDbEntity
  8
0
 62
7
100
AcDbLine
 10
87.139800
 20
110.435300
 30
0.0
 11
105.132000
 21
103.170800
 31
0.0
  0
LINE
  5
167
100
AcDbEntity
  8
0
 62
7
100
AcDbLine
 10
79.883300
 20
92.454300
 30
0.0
 11
97.869800
 21
85.177500
 31
0.0
  0
LINE
  5
168
100
AcDbEntity
  8
0
 62
7
100
AcDbLine
 10
126.782700
 20
73.312600
 30
0.0
 11
146.186000
 21
73.317000
 31
0.0
  0
LINE
  5
169
100
AcDbEntity
  8
0
 62
7
100
AcDbLine
 10
126.790300
 20
53.922600
 30
0.0
 11
146.193000
 21
53.913500
 31
0.0
  0
SPLINE
  5
16a
100
AcDbEntity
  8
0
 62
7
100
AcDbSpline
 70
8
 71
3
 72
8
 73
4
 74
0
 40
0
 40
0
 40
0
 40
0
 40
1
 40
1
 40
1
 40
1
 10
145.163100
 20
94.771100
 30
0.0
 10
144.601221
 20
94.771100
 30
0.0
 10
144.094668
 20
94.432632
 30
0.0
 10
143.879647
 20
93.913524
 30
0.0
  0
SPLINE
  5
16b
100
AcDbEntity
  8
0
 62
7
100
AcDbSpline
 70
8
 71
3
 72
8
 73
4
 74
0
 40
0
 40
0
 40
0
 40
0
 40
1
 40
1
 40
1
 40
1
 10
143.879647
 20
93.913524
 30
0.0
 10
143.664625
 20
93.394415
 30
0.0
 10
143.783479
 20
92.796896
 30
0.0
 10
144.180787
 20
92.399587
 30
0.0
  0
SPLINE
  5
16c
100
AcDbEntity
  8
0
 62
7
100
AcDbSpline
 70
8
 71
3
 72
8
 73
4
 74
0
 40
0
 40
0
 40
0
 40
0
 40
1
 40
1
 40
1
 40
1
 10
144.180787
 20
92.399587
 30
0.0
 10
144.578096
 20
92.002279
 30
0.0
 10
145.175615
 20
91.883425
 30
0.0
 10
145.694724
 20
92.098447
 30
0.0
  0
SPLINE
  5
16d
100
AcDbEntity
  8
0
 62
7
100
AcDbSpline
 70
8
 71
3
 72
8
 73
4
 74
0
 40
0
 40
0
 40
0
 40
0
 40
1
 40
1
 40
1
 40
1
 10
145.694724
 20
92.098447
 30
0.0
 10
146.213832
 20
92.313468
 30
0.0
 10
146.552300
 20
92.820021
 30
0.0
 10
146.552300
 20
93.381900
 30
0.0
  0
SPLINE
  5
16e
100
AcDbEntity
  8
0
 62
7
100
AcDbSpline
 70
8
 71
3
 72
8
 73
4
 74
0
 40
0
 40
0
 40
0
 40
0
 40
1
 40
1
 40
1
 40
1
 10
146.552300
 20
93.381900
 30
0.0
 10
146.552300
 20
93.750339
 30
0.0
 10
146.405938
 20
94.103687
 30
0.0
 10
146.145413
 20
94.364213
 30
0.0
  0
SPLINE
  5
16f
100
AcDbEntity
  8
0
 62
7
100
AcDbSpline
 70
8
 71
3
 72
8
 73
4
 74
0
 40
0
 40
0
 40
0
 40
0
 40
1
 40
1
 40
1
 40
1
 10
146.145413
 20
94.364213
 30
0.0
 10
145.884887
 20
94.624738
 30
0.0
 10
145.531539
 20
94.771100
 30
0.0
 10
145.163100
 20
94.771100
 30
0.0
  0
LINE
  5
170
100
AcDbEntity
  8
0
 62
7
100
AcDbLine
 10
145.163100
 20
94.771100
 30
0.0
 11
145.163100
 21
94.771100
 31
0.0
  0
SPLINE
  5
171
100
AcDbEntity
  8
0
 62
7
100
AcDbSpline
 70
8
 71
3
 72
8
 73
4
 74
0
 40
0
 40
0
 40
0
 40
0
 40
1
 40
1
 40
1
 40
1
 10
127.188100
 20
115.771100
 30
0.0
 10
126.626221
 20
115.771100
 30
0.0
 10
126.119668
 20
115.432632
 30
0.0
 10
125.904647
 20
114.913524
 30
0.0
  0
SPLINE
  5
172
100
AcDbEntity
  8
0
 62
7
100
AcDbSpline
 70
8
 71
3
 72
8
 73
4
 74
0
 40
0
 40
0
 40
0
 40
0
 40
1
 40
1
 40
1
 40
1
 10
125.904647
 20
114.913524
 30
0.0
 10
125.689625
 20
114.394415
 30
0.0
 10
125.808479
 20
113.796896
 30
0.0
 10
126.205787
 20
113.399587
 30
0.0
  0
SPLINE
  5
173
100
AcDbEntity
  8
0
 62
7
100
AcDbSpline
 70
8
 71
3
 72
8
 73
4
 74
0
 40
0
 40
0
 40
0
 40
0
 40
1
 40
1
 40
1
 40
1
 10
126.205787
 20
113.399587
 30
0.0
 10
126.603096
 20
113.002279
 30
0.0
 10
127.200615
 20
112.883425
 30
0.0
 10
127.719724
 20
113.098447
 30
0.0
  0
SPLINE
  5
174
100
AcDbEntity
  8
0
 62
7
100
AcDbSpline
 70
8
 71
3
 72
8
 73
4
 74
0
 40
0
 40
0
 40
0
 40
0
 40
1
 40
1
 40
1
 40
1
 10
127.719724
 20
113.098447
 30
0.0
 10
128.238832
 20
113.313468
 30
0.0
 10
128.577300
 20
113.820021
 30
0.0
 10
128.577300
 20
114.381900
 30
0.0
  0
SPLINE
  5
175
100
AcDbEntity
  8
0
 62
7
100
AcDbSpline
 70
8
 71
3
 72
8
 73
4
 74
0
 40
0
 40
0
 40
0
 40
0
 40
1
 40
1
 40
1
 40
1
 10
128.577300
 20
114.381900
 30
0.0
 10
128.577300
 20
114.750339
 30
0.0
 10
128.430938
 20
115.103687
 30
0.0
 10
128.170413
 20
115.364213
 30
0.0
  0
SPLINE
  5
176
100
AcDbEntity
  8
0
 62
7
100
AcDbSpline
 70
8
 71
3
 72
8
 73
4
 74
0
 40
0
 40
0
 40
0
 40
0
 40
1
 40
1
 40
1
 40
1
 10
128.170413
 20
115.364213
 30
0.0
 10
127.909887
 20
115.624738
 30
0.0
 10
127.556539
 20
115.771100
 30
0.0
 10
127.188100
 20
115.771100
 30
0.0
  0
LINE
  5
177
100
AcDbEntity
  8
0
 62
7
100
AcDbLine
 10
127.188100
 20
115.771100
 30
0.0
 11
127.188100
 21
115.771100
 31
0.0
  0
SPLINE
  5
178
100
AcDbEntity
  8
0
 62
7
100
AcDbSpline
 70
8
 71
3
 72
8
 73
4
 74
0
 40
0
 40
0
 40
0
 40
0
 40
1
 40
1
 40
1
 40
1
 10
127.557100
 20
116.343700
 30
0.0
 10
126.512147
 20
116.343700
 30
0.0
 10
125.509993
 20
115.928594
 30
0.0
 10
124.771099
 20
115.189701
 30
0.0
  0
SPLINE
  5
179
100
AcDbEntity
  8
0
 62
7
100
AcDbSpline
 70
8
 71
3
 72
8
 73
4
 74
0
 40
0
 40
0
 40
0
 40
0
 40
1
 40
1
 40
1
 40
1
 10
124.771099
 20
115.189701
 30
0.0
 10
124.032206
 20
114.450807
 30
0.0
 10
123.617100
 20
113.448653
 30
0.0
 10
123.617100
 20
112.403700
 30
0.0
  0
LINE
  5
17a
100
AcDbEntity
  8
0
 62
7
100
AcDbLine
 10
123.617100
 20
112.403700
 30
0.0
 11
123.617100
 21
95.253700
 31
0.0
  0
LINE
  5
17b
100
AcDbEntity
  8
0
 62
7
100
AcDbLine
 10
127.557100
 20
91.313700
 30
0.0
 11
144.677100
 21
91.313700
 31
0.0
  0
SPLINE
  5
17c
100
AcDbEntity
  8
0
 62
7
100
AcDbSpline
 70
8
 71
3
 72
8
 73
4
 74
0
 40
0
 40
0
 40
0
 40
0
 40
1
 40
1
 40
1
 40
1
 10
148.617100
 20
112.403700
 30
0.0
 10
148.617100
 20
114.579702
 30
0.0
 10
146.853102
 20
116.343700
 30
0.0
 10
144.677100
 20
116.343700
 30
0.0
  0
SPLINE
  5
17d
100
AcDbEntity
  8
0
 62
7
100
AcDbSpline
 70
8
 71
3
 72
8
 73
4
 74
0
 40
0
 40
0
 40
0
 40
0
 40
1
 40
1
 40
1
 40
1
 10
123.617100
 20
95.253700
 30
0.0
 10
123.617073
 20
94.208739
 30
0.0
 10
124.032171
 20
93.206569
 30
0.0
 10
124.771070
 20
92.467670
 30
0.0
  0
SPLINE
  5
17e
100
AcDbEntity
  8
0
 62
7
100
AcDbSpline
 70
8
 71
3
 72
8
 73
4
 74
0
 40
0
 40
0
 40
0
 40
0
 40
1
 40
1
 40
1
 40
1
 10
124.771070
 20
92.467670
 30
0.0
 10
125.509969
 20
91.728771
 30
0.0
 10
126.512139
 20
91.313673
 30
0.0
 10
127.557100
 20
91.313700
 30
0.0
  0
LINE
  5
17f
100
AcDbEntity
  8
0
 62
7
100
AcDbLine
 10
148.617100
 20
95.253700
 30
0.0
 11
148.617100
 21
112.403700
 31
0.0
  0
SPLINE
  5
180
100
AcDbEntity
  8
0
 62
7
100
AcDbSpline
 70
8
 71
3
 72
8
 73
4
 74
0
 40
0
 40
0
 40
0
 40
0
 40
1
 40
1
 40
1
 40
1
 10
144.677100
 20
91.313700
 30
0.0
 10
146.853102
 20
91.313700
 30
0.0
 10
148.617100
 20
93.077698
 30
0.0
 10
148.617100
 20
95.253700
 30
0.0
  0
LINE
  5
181
100
AcDbEntity
  8
0
 62
7
100
AcDbLine
 10
144.677100
 20
116.343700
 30
0.0
 11
127.557100
 21
116.343700
 31
0.0
  0
SPLINE
  5
182
100
AcDbEntity
  8
0
 62
7
100
AcDbSpline
 70
8
 71
3
 72
8
 73
4
 74
0
 40
0
 40
0
 40
0
 40
0
 40
1
 40
1
 40
1
 40
1
 10
21.537500
 20
107.903300
 30
0.0
 10
21.607024
 20
108.196261
 30
0.0
 10
21.426441
 20
108.490256
 30
0.0
 10
21.133700
 20
108.560700
 30
0.0
  0
LINE
  5
183
100
AcDbEntity
  8
0
 62
7
100
AcDbLine
 10
166.663100
 20
41.717600
 30
0.0
 11
166.652000
 21
35.785900
 31
0.0
  0
SPLINE
  5
184
100
AcDbEntity
  8
0
 62
7
100
AcDbSpline
 70
8
 71
3
 72
8
 73
4
 74
0
 40
0
 40
0
 40
0
 40
0
 40
1
 40
1
 40
1
 40
1
 10
26.832000
 20
149.049600
 30
0.0
 10
27.076584
 20
149.003411
 30
0.0
 10
27.326996
 20
149.093349
 30
0.0
 10
27.486300
 20
149.284600
 30
0.0
  0
SPLINE
  5
185
100
AcDbEntity
  8
0
 62
7
100
AcDbSpline
 70
8
 71
3
 72
8
 73
4
 74
0
 40
0
 40
0
 40
0
 40
0
 40
1
 40
1
 40
1
 40
1
 10
243.836200
 20
150.030600
 30
0.0
 10
243.995485
 20
149.839384
 30
0.0
 10
244.245849
 20
149.749450
 30
0.0
 10
244.490400
 20
149.795600
 30
0.0
  0
LINE
  5
186
100
AcDbEntity
  8
0
 62
7
100
AcDbLine
 10
4.413100
 20
111.817600
 30
0.0
 11
11.316200
 21
151.421700
 31
0.0
  0
SPLINE
  5
187
100
AcDbEntity
  8
0
 62
7
100
AcDbSpline
 70
8
 71
3
 72
8
 73
4
 74
0
 40
0
 40
0
 40
0
 40
0
 40
1
 40
1
 40
1
 40
1
 10
106.348200
 20
35.899300
 30
0.0
 10
126.375369
 20
33.495191
 30
0.0
 10
146.615931
 20
33.457129
 30
0.0
 10
166.652000
 20
35.785900
 30
0.0
  0
LINE
  5
188
100
AcDbEntity
  8
0
 62
7
100
AcDbLine
 10
240.963100
 20
75.117600
 30
0.0
 11
233.213100
 21
94.467600
 31
0.0
  0
LINE
  5
189
100
AcDbEntity
  8
0
 62
7
100
AcDbLine
 10
21.537600
 20
107.903300
 30
0.0
 11
19.143200
 21
100.299700
 31
0.0
  0
SPLINE
  5
18a
100
AcDbEntity
  8
0
 62
7
100
AcDbSpline
 70
8
 71
3
 72
8
 73
4
 74
0
 40
0
 40
0
 40
0
 40
0
 40
1
 40
1
 40
1
 40
1
 10
19.143200
 20
100.299700
 30
0.0
 10
19.110263
 20
100.211971
 30
0.0
 10
19.114208
 20
100.114650
 30
0.0
 10
19.154137
 20
100.029875
 30
0.0
  0
SPLINE
  5
18b
100
AcDbEntity
  8
0
 62
7
100
AcDbSpline
 70
8
 71
3
 72
8
 73
4
 74
0
 40
0
 40
0
 40
0
 40
0
 40
1
 40
1
 40
1
 40
1
 10
19.154137
 20
100.029875
 30
0.0
 10
19.194067
 20
99.945100
 30
0.0
 10
19.266587
 20
99.880078
 30
0.0
 10
19.355200
 20
99.849600
 30
0.0
  0
LINE
  5
18c
100
AcDbEntity
  8
0
 62
7
100
AcDbLine
 10
151.163100
 20
120.587600
 30
0.0
 11
151.163100
 21
76.217600
 31
0.0
  0
LINE
  5
18d
100
AcDbEntity
  8
0
 62
7
100
AcDbLine
 10
120.683100
 20
120.587600
 30
0.0
 11
151.163100
 21
120.587600
 31
0.0
  0
LINE
  5
18e
100
AcDbEntity
  8
0
 62
7
100
AcDbLine
 10
120.683100
 20
76.217600
 30
0.0
 11
120.683100
 21
120.587600
 31
0.0
  0
LINE
  5
18f
100
AcDbEntity
  8
0
 62
7
100
AcDbLine
 10
38.163100
 20
93.717600
 30
0.0
 11
30.613100
 21
74.767600
 31
0.0
  0
LINE
  5
190
100
AcDbEntity
  8
0
 62
7
100
AcDbLine
 10
151.163100
 20
76.217600
 30
0.0
 11
120.683100
 21
76.217600
 31
0.0
  0
LINE
  5
191
100
AcDbEntity
  8
0
 62
7
100
AcDbLine
 10
19.355200
 20
99.849600
 30
0.0
 11
38.163100
 21
93.717600
 31
0.0
  0
LINE
  5
192
100
AcDbEntity
  8
0
 62
7
100
AcDbLine
 10
26.832000
 20
149.049600
 30
0.0
 11
11.316200
 21
151.421700
 31
0.0
  0
LINE
  5
193
100
AcDbEntity
  8
0
 62
7
100
AcDbLine
 10
243.836200
 20
150.030600
 30
0.0
 11
236.182600
 21
158.122400
 31
0.0
  0
LINE
  5
194
100
AcDbEntity
  8
0
 62
7
100
AcDbLine
 10
233.213100
 20
94.467600
 30
0.0
 11
251.967300
 21
100.595600
 31
0.0
  0
LINE
  5
195
100
AcDbEntity
  8
0
 62
7
100
AcDbLine
 10
35.313100
 20
157.567600
 30
0.0
 11
27.486300
 21
149.284600
 31
0.0
  0
LINE
  5
196
100
AcDbEntity
  8
0
 62
7
100
AcDbLine
 10
30.613100
 20
74.767600
 30
0.0
 11
106.363100
 21
41.767600
 31
0.0
  0
LINE
  5
197
100
AcDbEntity
  8
0
 62
7
100
AcDbLine
 10
4.413100
 20
111.817600
 30
0.0
 11
21.133700
 21
108.560700
 31
0.0
  0
SPLINE
  5
198
100
AcDbEntity
  8
0
 62
7
100
AcDbSpline
 70
8
 71
3
 72
8
 73
4
 74
0
 40
0
 40
0
 40
0
 40
0
 40
1
 40
1
 40
1
 40
1
 10
250.188800
 20
109.306700
 30
0.0
 10
249.896018
 20
109.236301
 30
0.0
 10
249.715382
 20
108.942292
 30
0.0
 10
249.784900
 20
108.649300
 30
0.0
  0
LINE
  5
199
100
AcDbEntity
  8
0
 62
7
100
AcDbLine
 10
250.188800
 20
109.306700
 30
0.0
 11
266.813100
 21
112.617600
 31
0.0
  0
LINE
  5
19a
100
AcDbEntity
  8
0
 62
7
100
AcDbLine
 10
260.006300
 20
152.167700
 30
0.0
 11
244.490400
 21
149.795600
 31
0.0
  0
SPLINE
  5
19b
100
AcDbEntity
  8
0
 62
7
100
AcDbSpline
 70
8
 71
3
 72
8
 73
4
 74
0
 40
0
 40
0
 40
0
 40
0
 40
1
 40
1
 40
1
 40
1
 10
251.967300
 20
100.595700
 30
0.0
 10
252.055923
 20
100.626133
 30
0.0
 10
252.128461
 20
100.691132
 30
0.0
 10
252.168395
 20
100.775900
 30
0.0
  0
SPLINE
  5
19c
100
AcDbEntity
  8
0
 62
7
100
AcDbSpline
 70
8
 71
3
 72
8
 73
4
 74
0
 40
0
 40
0
 40
0
 40
0
 40
1
 40
1
 40
1
 40
1
 10
252.168395
 20
100.775900
 30
0.0
 10
252.208330
 20
100.860667
 30
0.0
 10
252.212264
 20
100.957986
 30
0.0
 10
252.179300
 20
101.045700
 30
0.0
  0
LINE
  5
19d
100
AcDbEntity
  8
0
 62
7
100
AcDbLine
 10
106.363100
 20
41.767600
 30
0.0
 11
106.348200
 21
35.899300
 31
0.0
  0
LINE
  5
19e
100
AcDbEntity
  8
0
 62
7
100
AcDbLine
 10
252.179300
 20
101.045700
 30
0.0
 11
249.784900
 21
108.649300
 31
0.0
  0
LINE
  5
19f
100
AcDbEntity
  8
0
 62
7
100
AcDbLine
 10
166.663100
 20
41.717600
 30
0.0
 11
240.963100
 21
75.117600
 31
0.0
  0
LINE
  5
1a0
100
AcDbEntity
  8
0
 62
7
100
AcDbLine
 10
236.182600
 20
158.122400
 30
0.0
 11
35.313100
 21
157.567600
 31
0.0
  0
LINE
  5
1a1
100
AcDbEntity
  8
0
 62
7
100
AcDbLine
 10
266.813100
 20
112.617600
 30
0.0
 11
260.006300
 21
152.167700
 31
0.0
  0
LINE
  5
1a2
100
AcDbEntity
  8
0
 62
7
100
AcDbLine
 10
10.602100
 20
129.311200
 30
0.0
 11
24.856700
 21
126.777400
 31
0.0
  0
LINE
  5
1a3
100
AcDbEntity
  8
0
 62
7
100
AcDbLine
 10
8.099800
 20
115.120100
 30
0.0
 11
10.602100
 21
129.311200
 31
0.0
  0
LINE
  5
1a4
100
AcDbEntity
  8
0
 62
7
100
AcDbLine
 10
24.856700
 20
126.777400
 30
0.0
 11
22.357900
 21
112.606000
 31
0.0
  0
LINE
  5
1a5
100
AcDbEntity
  8
0
 62
7
100
AcDbLine
 10
22.357900
 20
112.606000
 30
0.0
 11
8.099800
 21
115.120100
 31
0.0
  0
LINE
  5
1a6
100
AcDbEntity
  8
0
 62
7
100
AcDbLine
 10
194.213000
 20
79.027000
 30
0.0
 11
207.644300
 21
84.432000
 31
0.0
  0
LINE
  5
1a7
100
AcDbEntity
  8
0
 62
7
100
AcDbLine
 10
199.611100
 20
65.666300
 30
0.0
 11
194.213000
 21
79.027000
 31
0.0
  0
LINE
  5
1a8
100
AcDbEntity
  8
0
 62
7
100
AcDbLine
 10
207.644300
 20
84.432000
 30
0.0
 11
213.034900
 21
71.089900
 31
0.0
  0
LINE
  5
1a9
100
AcDbEntity
  8
0
 62
7
100
AcDbLine
 10
213.034900
 20
71.089900
 30
0.0
 11
199.611100
 21
65.666300
 31
0.0
  0
LINE
  5
1aa
100
AcDbEntity
  8
0
 62
7
100
AcDbLine
 10
177.877800
 20
67.549000
 30
0.0
 11
191.309100
 21
72.954000
 31
0.0
  0
LINE
  5
1ab
100
AcDbEntity
  8
0
 62
7
100
AcDbLine
 10
183.275900
 20
54.188200
 30
0.0
 11
177.877800
 21
67.549000
 31
0.0
  0
LINE
  5
1ac
100
AcDbEntity
  8
0
 62
7
100
AcDbLine
 10
191.309100
 20
72.954000
 30
0.0
 11
196.699700
 21
59.611800
 31
0.0
  0
LINE
  5
1ad
100
AcDbEntity
  8
0
 62
7
100
AcDbLine
 10
196.699700
 20
59.611800
 30
0.0
 11
183.275900
 21
54.188200
 31
0.0
  0
LINE
  5
1ae
100
AcDbEntity
  8
0
 62
7
100
AcDbLine
 10
184.080200
 20
116.741400
 30
0.0
 11
197.511400
 21
122.146400
 31
0.0
  0
LINE
  5
1af
100
AcDbEntity
  8
0
 62
7
100
AcDbLine
 10
189.478200
 20
103.380700
 30
0.0
 11
184.080200
 21
116.741400
 31
0.0
  0
LINE
  5
1b0
100
AcDbEntity
  8
0
 62
7
100
AcDbLine
 10
197.511400
 20
122.146400
 30
0.0
 11
202.902000
 21
108.804200
 31
0.0
  0
LINE
  5
1b1
100
AcDbEntity
  8
0
 62
7
100
AcDbLine
 10
202.902000
 20
108.804200
 30
0.0
 11
189.478200
 21
103.380700
 31
0.0
  0
LINE
  5
1b2
100
AcDbEntity
  8
0
 62
7
100
AcDbLine
 10
64.514200
 20
150.995300
 30
0.0
 11
77.930500
 21
145.553200
 31
0.0
  0
LINE
  5
1b3
100
AcDbEntity
  8
0
 62
7
100
AcDbLine
 10
59.116200
 20
137.634600
 30
0.0
 11
64.514200
 21
150.995300
 31
0.0
  0
LINE
  5
1b4
100
AcDbEntity
  8
0
 62
7
100
AcDbLine
 10
77.930500
 20
145.553200
 30
0.0
 11
72.539900
 21
132.211000
 31
0.0
  0
LINE
  5
1b5
100
AcDbEntity
  8
0
 62
7
100
AcDbLine
 10
72.539900
 20
132.211000
 30
0.0
 11
59.116200
 21
137.634600
 31
0.0
  0
LINE
  5
1b6
100
AcDbEntity
  8
0
 62
7
100
AcDbLine
 10
80.907800
 20
139.716600
 30
0.0
 11
94.324000
 21
134.274500
 31
0.0
  0
LINE
  5
1b7
100
AcDbEntity
  8
0
 62
7
100
AcDbLine
 10
75.509700
 20
126.355800
 30
0.0
 11
80.907800
 21
139.716600
 31
0.0
  0
LINE
  5
1b8
100
AcDbEntity
  8
0
 62
7
100
AcDbLine
 10
94.324000
 20
134.274500
 30
0.0
 11
88.933400
 21
120.932300
 31
0.0
  0
LINE
  5
1b9
100
AcDbEntity
  8
0
 62
7
100
AcDbLine
 10
88.933400
 20
120.932300
 30
0.0
 11
75.509700
 21
126.355800
 31
0.0
  0
LINE
  5
1ba
100
AcDbEntity
  8
0
 62
7
100
AcDbLine
 10
148.548800
 20
53.651000
 30
0.0
 11
163.026800
 21
53.631000
 31
0.0
  0
LINE
  5
1bb
100
AcDbEntity
  8
0
 62
7
100
AcDbLine
 10
148.548800
 20
39.241000
 30
0.0
 11
148.548800
 21
53.651000
 31
0.0
  0
LINE
  5
1bc
100
AcDbEntity
  8
0
 62
7
100
AcDbLine
 10
163.026800
 20
53.631000
 30
0.0
 11
163.026800
 21
39.241000
 31
0.0
  0
LINE
  5
1bd
100
AcDbEntity
  8
0
 62
7
100
AcDbLine
 10
163.026800
 20
39.241000
 30
0.0
 11
148.548800
 21
39.241000
 31
0.0
  0
LINE
  5
1be
100
AcDbEntity
  8
0
 62
7
100
AcDbLine
 10
79.992600
 20
72.907600
 30
0.0
 11
93.408900
 21
67.465500
 31
0.0
  0
LINE
  5
1bf
100
AcDbEntity
  8
0
 62
7
100
AcDbLine
 10
74.594500
 20
59.546900
 30
0.0
 11
79.992600
 21
72.907600
 31
0.0
  0
LINE
  5
1c0
100
AcDbEntity
  8
0
 62
7
100
AcDbLine
 10
93.408900
 20
67.465500
 30
0.0
 11
88.018300
 21
54.123300
 31
0.0
  0
LINE
  5
1c1
100
AcDbEntity
  8
0
 62
7
100
AcDbLine
 10
88.018300
 20
54.123300
 30
0.0
 11
74.594500
 21
59.546900
 31
0.0
  0
LINE
  5
1c2
100
AcDbEntity
  8
0
 62
7
100
AcDbLine
 10
193.139100
 20
145.576200
 30
0.0
 11
206.570300
 21
150.981300
 31
0.0
  0
LINE
  5
1c3
100
AcDbEntity
  8
0
 62
7
100
AcDbLine
 10
198.537200
 20
132.215500
 30
0.0
 11
193.139100
 21
145.576200
 31
0.0
  0
LINE
  5
1c4
100
AcDbEntity
  8
0
 62
7
100
AcDbLine
 10
206.570300
 20
150.981300
 30
0.0
 11
211.960900
 21
137.639100
 31
0.0
  0
LINE
  5
1c5
100
AcDbEntity
  8
0
 62
7
100
AcDbLine
 10
211.960900
 20
137.639100
 30
0.0
 11
198.537200
 21
132.215500
 31
0.0
  0
LINE
  5
1c6
100
AcDbEntity
  8
0
 62
7
100
AcDbLine
 10
57.396700
 20
133.378800
 30
0.0
 11
70.813000
 21
127.936700
 31
0.0
  0
LINE
  5
1c7
100
AcDbEntity
  8
0
 62
7
100
AcDbLine
 10
51.998600
 20
120.018100
 30
0.0
 11
57.396700
 21
133.378800
 31
0.0
  0
LINE
  5
1c8
100
AcDbEntity
  8
0
 62
7
100
AcDbLine
 10
70.813000
 20
127.936700
 30
0.0
 11
65.422400
 21
114.594500
 31
0.0
  0
LINE
  5
1c9
100
AcDbEntity
  8
0
 62
7
100
AcDbLine
 10
65.422400
 20
114.594500
 30
0.0
 11
51.998600
 21
120.018100
 31
0.0
  0
LINE
  5
1ca
100
AcDbEntity
  8
0
 62
7
100
AcDbLine
 10
66.672700
 20
104.483600
 30
0.0
 11
80.089000
 21
99.041500
 31
0.0
  0
LINE
  5
1cb
100
AcDbEntity
  8
0
 62
7
100
AcDbLine
 10
61.274600
 20
91.122800
 30
0.0
 11
66.672700
 21
104.483600
 31
0.0
  0
LINE
  5
1cc
100
AcDbEntity
  8
0
 62
7
100
AcDbLine
 10
80.089000
 20
99.041500
 30
0.0
 11
74.698400
 21
85.699300
 31
0.0
  0
LINE
  5
1cd
100
AcDbEntity
  8
0
 62
7
100
AcDbLine
 10
74.698400
 20
85.699300
 30
0.0
 11
61.274600
 21
91.122800
 31
0.0
  0
LINE
  5
1ce
100
AcDbEntity
  8
0
 62
7
100
AcDbLine
 10
246.216900
 20
126.800200
 30
0.0
 11
260.478400
 21
129.294600
 31
0.0
  0
LINE
  5
1cf
100
AcDbEntity
  8
0
 62
7
100
AcDbLine
 10
248.719200
 20
112.609100
 30
0.0
 11
246.216900
 21
126.800200
 31
0.0
  0
LINE
  5
1d0
100
AcDbEntity
  8
0
 62
7
100
AcDbLine
 10
260.478400
 20
129.294600
 30
0.0
 11
262.977200
 21
115.123200
 31
0.0
  0
LINE
  5
1d1
100
AcDbEntity
  8
0
 62
7
100
AcDbLine
 10
262.977200
 20
115.123200
 30
0.0
 11
248.719200
 21
112.609100
 31
0.0
  0
LINE
  5
1d2
100
AcDbEntity
  8
0
 62
7
100
AcDbLine
 10
207.374100
 20
110.343300
 30
0.0
 11
220.805400
 21
115.748300
 31
0.0
  0
LINE
  5
1d3
100
AcDbEntity
  8
0
 62
7
100
AcDbLine
 10
212.772200
 20
96.982500
 30
0.0
 11
207.374100
 21
110.343300
 31
0.0
  0
LINE
  5
1d4
100
AcDbEntity
  8
0
 62
7
100
AcDbLine
 10
220.805400
 20
115.748300
 30
0.0
 11
226.196000
 21
102.406100
 31
0.0
  0
LINE
  5
1d5
100
AcDbEntity
  8
0
 62
7
100
AcDbLine
 10
226.196000
 20
102.406100
 30
0.0
 11
212.772200
 21
96.982500
 31
0.0
  0
LINE
  5
1d6
100
AcDbEntity
  8
0
 62
7
100
AcDbLine
 10
28.758800
 20
116.622900
 30
0.0
 11
42.598400
 21
112.370800
 31
0.0
  0
LINE
  5
1d7
100
AcDbEntity
  8
0
 62
7
100
AcDbLine
 10
24.545800
 20
102.842500
 30
0.0
 11
28.758800
 21
116.622900
 31
0.0
  0
LINE
  5
1d8
100
AcDbEntity
  8
0
 62
7
100
AcDbLine
 10
42.598400
 20
112.370800
 30
0.0
 11
38.391100
 21
98.609600
 31
0.0
  0
LINE
  5
1d9
100
AcDbEntity
  8
0
 62
7
100
AcDbLine
 10
38.391100
 20
98.609600
 30
0.0
 11
24.545800
 21
102.842500
 31
0.0
  0
LINE
  5
1da
100
AcDbEntity
  8
0
 62
7
100
AcDbLine
 10
109.943200
 20
53.651000
 30
0.0
 11
124.421200
 21
53.631000
 31
0.0
  0
LINE
  5
1db
100
AcDbEntity
  8
0
 62
7
100
AcDbLine
 10
109.943200
 20
39.241000
 30
0.0
 11
109.943200
 21
53.651000
 31
0.0
  0
LINE
  5
1dc
100
AcDbEntity
  8
0
 62
7
100
AcDbLine
 10
124.421200
 20
53.631000
 30
0.0
 11
124.421200
 21
39.241000
 31
0.0
  0
LINE
  5
1dd
100
AcDbEntity
  8
0
 62
7
100
AcDbLine
 10
124.421200
 20
39.241000
 30
0.0
 11
109.943200
 21
39.241000
 31
0.0
  0
LINE
  5
1de
100
AcDbEntity
  8
0
 62
7
100
AcDbLine
 10
39.869000
 20
152.962400
 30
0.0
 11
53.708500
 21
148.710400
 31
0.0
  0
LINE
  5
1df
100
AcDbEntity
  8
0
 62
7
100
AcDbLine
 10
35.655900
 20
139.182100
 30
0.0
 11
39.869000
 21
152.962400
 31
0.0
  0
LINE
  5
1e0
100
AcDbEntity
  8
0
 62
7
100
AcDbLine
 10
53.708500
 20
148.710400
 30
0.0
 11
49.501300
 21
134.949100
 31
0.0
  0
LINE
  5
1e1
100
AcDbEntity
  8
0
 62
7
100
AcDbLine
 10
49.501300
 20
134.949100
 30
0.0
 11
35.655900
 21
139.182100
 31
0.0
  0
LINE
  5
1e2
100
AcDbEntity
  8
0
 62
7
100
AcDbLine
 10
63.657400
 20
84.385700
 30
0.0
 11
77.073600
 21
78.943600
 31
0.0
  0
LINE
  5
1e3
100
AcDbEntity
  8
0
 62
7
100
AcDbLine
 10
58.259300
 20
71.025000
 30
0.0
 11
63.657400
 21
84.385700
 31
0.0
  0
LINE
  5
1e4
100
AcDbEntity
  8
0
 62
7
100
AcDbLine
 10
77.073600
 20
78.943600
 30
0.0
 11
71.683100
 21
65.601400
 31
0.0
  0
LINE
  5
1e5
100
AcDbEntity
  8
0
 62
7
100
AcDbLine
 10
71.683100
 20
65.601400
 30
0.0
 11
58.259300
 21
71.025000
 31
0.0
  0
LINE
  5
1e6
100
AcDbEntity
  8
0
 62
7
100
AcDbLine
 10
169.374600
 20
101.848700
 30
0.0
 11
182.805900
 21
107.253700
 31
0.0
  0
LINE
  5
1e7
100
AcDbEntity
  8
0
 62
7
100
AcDbLine
 10
174.772700
 20
88.488000
 30
0.0
 11
169.374600
 21
101.848700
 31
0.0
  0
LINE
  5
1e8
100
AcDbEntity
  8
0
 62
7
100
AcDbLine
 10
182.805900
 20
107.253700
 30
0.0
 11
188.196500
 21
93.911500
 31
0.0
  0
LINE
  5
1e9
100
AcDbEntity
  8
0
 62
7
100
AcDbLine
 10
188.196500
 20
93.911500
 30
0.0
 11
174.772700
 21
88.488000
 31
0.0
  0
LINE
  5
1ea
100
AcDbEntity
  8
0
 62
7
100
AcDbLine
 10
13.892400
 20
148.039600
 30
0.0
 11
28.147000
 21
145.505800
 31
0.0
  0
LINE
  5
1eb
100
AcDbEntity
  8
0
 62
7
100
AcDbLine
 10
11.390100
 20
133.848500
 30
0.0
 11
13.892400
 21
148.039600
 31
0.0
  0
LINE
  5
1ec
100
AcDbEntity
  8
0
 62
7
100
AcDbLine
 10
28.147000
 20
145.505800
 30
0.0
 11
25.648200
 21
131.334400
 31
0.0
  0
LINE
  5
1ed
100
AcDbEntity
  8
0
 62
7
100
AcDbLine
 10
25.648200
 20
131.334400
 30
0.0
 11
11.390100
 21
133.848500
 31
0.0
  0
LINE
  5
1ee
100
AcDbEntity
  8
0
 62
7
100
AcDbLine
 10
50.279200
 20
115.762300
 30
0.0
 11
63.695500
 21
110.320200
 31
0.0
  0
LINE
  5
1ef
100
AcDbEntity
  8
0
 62
7
100
AcDbLine
 10
44.881100
 20
102.401600
 30
0.0
 11
50.279200
 21
115.762300
 31
0.0
  0
LINE
  5
1f0
100
AcDbEntity
  8
0
 62
7
100
AcDbLine
 10
63.695500
 20
110.320200
 30
0.0
 11
58.304900
 21
96.978000
 31
0.0
  0
LINE
  5
1f1
100
AcDbEntity
  8
0
 62
7
100
AcDbLine
 10
58.304900
 20
96.978000
 30
0.0
 11
44.881100
 21
102.401600
 31
0.0
  0
LINE
  5
1f2
100
AcDbEntity
  8
0
 62
7
100
AcDbLine
 10
217.362900
 20
148.733600
 30
0.0
 11
231.214100
 21
152.947400
 31
0.0
  0
LINE
  5
1f3
100
AcDbEntity
  8
0
 62
7
100
AcDbLine
 10
221.576000
 20
134.953200
 30
0.0
 11
217.362900
 21
148.733600
 31
0.0
  0
LINE
  5
1f4
100
AcDbEntity
  8
0
 62
7
100
AcDbLine
 10
231.214100
 20
152.947400
 30
0.0
 11
235.421400
 21
139.186200
 31
0.0
  0
LINE
  5
1f5
100
AcDbEntity
  8
0
 62
7
100
AcDbLine
 10
235.421400
 20
139.186200
 30
0.0
 11
221.576000
 21
134.953200
 31
0.0
  0
LINE
  5
1f6
100
AcDbEntity
  8
0
 62
7
100
AcDbLine
 10
222.915800
 20
130.567400
 30
0.0
 11
236.767000
 21
134.781200
 31
0.0
  0
LINE
  5
1f7
100
AcDbEntity
  8
0
 62
7
100
AcDbLine
 10
227.128900
 20
116.787100
 30
0.0
 11
222.915800
 21
130.567400
 31
0.0
  0
LINE
  5
1f8
100
AcDbEntity
  8
0
 62
7
100
AcDbLine
 10
236.767000
 20
134.781200
 30
0.0
 11
240.974200
 21
121.020000
 31
0.0
  0
LINE
  5
1f9
100
AcDbEntity
  8
0
 62
7
100
AcDbLine
 10
240.974200
 20
121.020000
 30
0.0
 11
227.128900
 21
116.787100
 31
0.0
  0
LINE
  5
1fa
100
AcDbEntity
  8
0
 62
7
100
AcDbLine
 10
73.790200
 20
122.100100
 30
0.0
 11
87.206500
 21
116.658000
 31
0.0
  0
LINE
  5
1fb
100
AcDbEntity
  8
0
 62
7
100
AcDbLine
 10
68.392100
 20
108.739300
 30
0.0
 11
73.790200
 21
122.100100
 31
0.0
  0
LINE
  5
1fc
100
AcDbEntity
  8
0
 62
7
100
AcDbLine
 10
87.206500
 20
116.658000
 30
0.0
 11
81.815900
 21
103.315800
 31
0.0
  0
LINE
  5
1fd
100
AcDbEntity
  8
0
 62
7
100
AcDbLine
 10
81.815900
 20
103.315800
 30
0.0
 11
68.392100
 21
108.739300
 31
0.0
  0
LINE
  5
1fe
100
AcDbEntity
  8
0
 62
7
100
AcDbLine
 10
95.613300
 20
124.823900
 30
0.0
 11
109.029600
 21
119.381800
 31
0.0
  0
LINE
  5
1ff
100
AcDbEntity
  8
0
 62
7
100
AcDbLine
 10
90.215200
 20
111.463100
 30
0.0
 11
95.613300
 21
124.823900
 31
0.0
  0
LINE
  5
200
100
AcDbEntity
  8
0
 62
7
100
AcDbLine
 10
109.029600
 20
119.381800
 30
0.0
 11
103.639000
 21
106.039600
 31
0.0
  0
LINE
  5
201
100
AcDbEntity
  8
0
 62
7
100
AcDbLine
 10
103.639000
 20
106.039600
 30
0.0
 11
90.215200
 21
111.463100
 31
0.0
  0
LINE
  5
202
100
AcDbEntity
  8
0
 62
7
100
AcDbLine
 10
162.257100
 20
119.465200
 30
0.0
 11
175.688400
 21
124.870200
 31
0.0
  0
LINE
  5
203
100
AcDbEntity
  8
0
 62
7
100
AcDbLine
 10
167.655200
 20
106.104500
 30
0.0
 11
162.257100
 21
119.465200
 31
0.0
  0
LINE
  5
204
100
AcDbEntity
  8
0
 62
7
100
AcDbLine
 10
175.688400
 20
124.870200
 30
0.0
 11
181.078900
 21
111.528000
 31
0.0
  0
LINE
  5
205
100
AcDbEntity
  8
0
 62
7
100
AcDbLine
 10
181.078900
 20
111.528000
 30
0.0
 11
167.655200
 21
106.104500
 31
0.0
  0
LINE
  5
206
100
AcDbEntity
  8
0
 62
7
100
AcDbLine
 10
242.915300
 20
145.535000
 30
0.0
 11
257.176900
 21
148.029400
 31
0.0
  0
LINE
  5
207
100
AcDbEntity
  8
0
 62
7
100
AcDbLine
 10
245.417600
 20
131.343900
 30
0.0
 11
242.915300
 21
145.535000
 31
0.0
  0
LINE
  5
208
100
AcDbEntity
  8
0
 62
7
100
AcDbLine
 10
257.176900
 20
148.029400
 30
0.0
 11
259.675700
 21
133.858000
 31
0.0
  0
LINE
  5
209
100
AcDbEntity
  8
0
 62
7
100
AcDbLine
 10
259.675700
 20
133.858000
 30
0.0
 11
245.417600
 21
131.343900
 31
0.0
  0
LINE
  5
20a
100
AcDbEntity
  8
0
 62
7
100
AcDbLine
 10
176.962600
 20
134.357900
 30
0.0
 11
190.393900
 21
139.762900
 31
0.0
  0
LINE
  5
20b
100
AcDbEntity
  8
0
 62
7
100
AcDbLine
 10
182.360700
 20
120.997200
 30
0.0
 11
176.962600
 21
134.357900
 31
0.0
  0
LINE
  5
20c
100
AcDbEntity
  8
0
 62
7
100
AcDbLine
 10
190.393900
 20
139.762900
 30
0.0
 11
195.784500
 21
126.420700
 31
0.0
  0
LINE
  5
20d
100
AcDbEntity
  8
0
 62
7
100
AcDbLine
 10
195.784500
 20
126.420700
 30
0.0
 11
182.360700
 21
120.997200
 31
0.0
  0
LINE
  5
20e
100
AcDbEntity
  8
0
 62
7
100
AcDbLine
 10
129.223200
 20
51.534300
 30
0.0
 11
143.701200
 21
51.514300
 31
0.0
  0
LINE
  5
20f
100
AcDbEntity
  8
0
 62
7
100
AcDbLine
 10
129.223200
 20
37.124300
 30
0.0
 11
129.223200
 21
51.534300
 31
0.0
  0
LINE
  5
210
100
AcDbEntity
  8
0
 62
7
100
AcDbLine
 10
143.701200
 20
51.514300
 30
0.0
 11
143.701200
 21
37.124300
 31
0.0
  0
LINE
  5
211
100
AcDbEntity
  8
0
 62
7
100
AcDbLine
 10
143.701200
 20
37.124300
 30
0.0
 11
129.223200
 21
37.124300
 31
0.0
  0
LINE
  5
212
100
AcDbEntity
  8
0
 62
7
100
AcDbLine
 10
200.256600
 20
127.959700
 30
0.0
 11
213.687900
 21
133.364800
 31
0.0
  0
LINE
  5
213
100
AcDbEntity
  8
0
 62
7
100
AcDbLine
 10
205.654700
 20
114.599000
 30
0.0
 11
200.256600
 21
127.959700
 31
0.0
  0
LINE
  5
214
100
AcDbEntity
  8
0
 62
7
100
AcDbLine
 10
213.687900
 20
133.364800
 30
0.0
 11
219.078500
 21
120.022600
 31
0.0
  0
LINE
  5
215
100
AcDbEntity
  8
0
 62
7
100
AcDbLine
 10
219.078500
 20
120.022600
 30
0.0
 11
205.654700
 21
114.599000
 31
0.0
  0
LINE
  5
216
100
AcDbEntity
  8
0
 62
7
100
AcDbLine
 10
228.473000
 20
112.394000
 30
0.0
 11
242.324300
 21
116.607800
 31
0.0
  0
LINE
  5
217
100
AcDbEntity
  8
0
 62
7
100
AcDbLine
 10
232.686100
 20
98.613600
 30
0.0
 11
228.473000
 21
112.394000
 31
0.0
  0
LINE
  5
218
100
AcDbEntity
  8
0
 62
7
100
AcDbLine
 10
242.324300
 20
116.607800
 30
0.0
 11
246.531500
 21
102.846600
 31
0.0
  0
LINE
  5
219
100
AcDbEntity
  8
0
 62
7
100
AcDbLine
 10
246.531500
 20
102.846600
 30
0.0
 11
232.686100
 21
98.613600
 31
0.0
  0
LINE
  5
21a
100
AcDbEntity
  8
0
 62
7
100
AcDbLine
 10
34.323100
 20
134.776600
 30
0.0
 11
48.162700
 21
130.524500
 31
0.0
  0
LINE
  5
21b
100
AcDbEntity
  8
0
 62
7
100
AcDbLine
 10
30.110100
 20
120.996300
 30
0.0
 11
34.323100
 21
134.776600
 31
0.0
  0
LINE
  5
21c
100
AcDbEntity
  8
0
 62
7
100
AcDbLine
 10
48.162700
 20
130.524500
 30
0.0
 11
43.955500
 21
116.763300
 31
0.0
  0
LINE
  5
21d
100
AcDbEntity
  8
0
 62
7
100
AcDbLine
 10
43.955500
 20
116.763300
 30
0.0
 11
30.110100
 21
120.996300
 31
0.0
  0
LINE
  5
21e
100
AcDbEntity
  8
0
 62
7
100
AcDbLine
 10
191.197700
 20
99.124900
 30
0.0
 11
204.628900
 21
104.529900
 31
0.0
  0
LINE
  5
21f
100
AcDbEntity
  8
0
 62
7
100
AcDbLine
 10
196.595800
 20
85.764200
 30
0.0
 11
191.197700
 21
99.124900
 31
0.0
  0
LINE
  5
220
100
AcDbEntity
  8
0
 62
7
100
AcDbLine
 10
204.628900
 20
104.529900
 30
0.0
 11
210.019500
 21
91.187700
 31
0.0
  0
LINE
  5
221
100
AcDbEntity
  8
0
 62
7
100
AcDbLine
 10
210.019500
 20
91.187700
 30
0.0
 11
196.595800
 21
85.764200
 31
0.0
  0
LINE
  5
222
100
AcDbEntity
  8
0
 62
7
100
AcDbLine
 10
88.495800
 20
107.207400
 30
0.0
 11
101.912000
 21
101.765300
 31
0.0
  0
LINE
  5
223
100
AcDbEntity
  8
0
 62
7
100
AcDbLine
 10
83.097700
 20
93.846700
 30
0.0
 11
88.495800
 21
107.207400
 31
0.0
  0
LINE
  5
224
100
AcDbEntity
  8
0
 62
7
100
AcDbLine
 10
101.912000
 20
101.765300
 30
0.0
 11
96.521500
 21
88.423100
 31
0.0
  0
LINE
  5
225
100
AcDbEntity
  8
0
 62
7
100
AcDbLine
 10
96.521500
 20
88.423100
 30
0.0
 11
83.097700
 21
93.846700
 31
0.0
  0
LINE
  5
226
100
AcDbEntity
  8
0
 62
7
100
AcDbLine
 10
129.249100
 20
70.827600
 30
0.0
 11
143.727100
 21
70.807600
 31
0.0
  0
LINE
  5
227
100
AcDbEntity
  8
0
 62
7
100
AcDbLine
 10
129.249100
 20
56.417600
 30
0.0
 11
129.249100
 21
70.827600
 31
0.0
  0
LINE
  5
228
100
AcDbEntity
  8
0
 62
7
100
AcDbLine
 10
143.727100
 20
70.807600
 30
0.0
 11
143.727100
 21
56.417600
 31
0.0
  0
LINE
  5
229
100
AcDbEntity
  8
0
 62
7
100
AcDbLine
 10
143.727100
 20
56.417600
 30
0.0
 11
129.249100
 21
56.417600
 31
0.0
  0
ENDSEC
  0
SECTION
  2
OBJECTS
  0
DICTIONARY
  5
C
330
0
100
AcDbDictionary
  3
ACAD_GROUP
350
D
  3
ACAD_MLINESTYLE
350
17
  0
DICTIONARY
  5
D
330
C
100
AcDbDictionary
  0
DICTIONARY
  5
1A
330
C
100
AcDbDictionary
  0
DICTIONARY
  5
17
330
C
100
AcDbDictionary
  3
STANDARD
350
18
  0
DICTIONARY
  5
19
330
C
100
AcDbDictionary
  0
ENDSEC
  0
EOF
