<?xml version="1.0" encoding="UTF-8" standalone="no"?>
<svg
   version="1.1"
   width="77.5462mm"
   height="81.7880mm"
   viewBox="0.0000 0.0000 77.5462 81.7880"
   id="svg834"
   sodipodi:docname="Katkoot-brd.svg"
   inkscape:version="1.2.2 (732a01da63, 2022-12-09)"
   xmlns:inkscape="http://www.inkscape.org/namespaces/inkscape"
   xmlns:sodipodi="http://sodipodi.sourceforge.net/DTD/sodipodi-0.dtd"
   xmlns="http://www.w3.org/2000/svg"
   xmlns:svg="http://www.w3.org/2000/svg"
   xmlns:rdf="http://www.w3.org/1999/02/22-rdf-syntax-ns#"
   xmlns:cc="http://creativecommons.org/ns#"
   xmlns:dc="http://purl.org/dc/elements/1.1/">
  <defs
     id="defs838" />
  <sodipodi:namedview
     id="namedview836"
     pagecolor="#505050"
     bordercolor="#eeeeee"
     borderopacity="1"
     inkscape:showpageshadow="0"
     inkscape:pageopacity="0"
     inkscape:pagecheckerboard="0"
     inkscape:deskcolor="#505050"
     inkscape:document-units="mm"
     showgrid="false"
     inkscape:zoom="2.7173912"
     inkscape:cx="147.01601"
     inkscape:cy="184.18401"
     inkscape:window-width="1920"
     inkscape:window-height="1001"
     inkscape:window-x="-9"
     inkscape:window-y="41"
     inkscape:window-maximized="1"
     inkscape:current-layer="svg834" />
  <title
     id="title2">SVG Image created as Katkoot-brd.svg date 2024/04/19 05:28:45 </title>
  <desc
     id="desc4">Image generated by PCBNEW </desc>
  <g
     style="fill:#000000; fill-opacity:1.0000;stroke:#000000; stroke-opacity:1.0000; stroke-linecap:round; stroke-linejoin:round;"
     transform="translate(0 0) scale(1 1)"
     id="g6" />
  <g
     style="fill:#000000; fill-opacity:0.0;  stroke:#000000; stroke-width:0.0000; stroke-opacity:1;  stroke-linecap:round; stroke-linejoin:round;"
     id="g72">
    <g
       id="g8" />
    <g
       id="g10" />
    <g
       id="g12" />
    <g
       id="g14" />
    <g
       id="g16" />
    <g
       id="g18" />
    <g
       id="g20" />
    <g
       id="g22" />
    <g
       id="g24" />
    <g
       id="g26" />
    <g
       id="g28" />
    <g
       id="g30" />
    <g
       id="g32" />
    <g
       id="g34" />
    <g
       id="g36" />
    <g
       id="g38" />
    <g
       id="g40" />
    <g
       id="g42" />
    <g
       id="g44" />
    <g
       id="g46" />
    <g
       id="g48" />
    <g
       id="g50" />
    <g
       id="g52" />
    <g
       id="g54" />
    <g
       id="g56" />
    <g
       id="g58" />
    <g
       id="g60" />
    <g
       id="g62" />
    <g
       id="g64" />
    <g
       id="g66" />
    <g
       id="g68" />
    <g
       id="g70" />
  </g>
  <g
     style="fill:#000000; fill-opacity:0.0;  stroke:#000000; stroke-width:0.0000; stroke-opacity:1;  stroke-linecap:round; stroke-linejoin:round;"
     id="g74" />
  <g
     style="fill:#000000; fill-opacity:0.0;  stroke:#000000; stroke-width:0.1200; stroke-opacity:1;  stroke-linecap:round; stroke-linejoin:round;"
     id="g518">
    <path
       d="M62.3500 69.6500 L63.3500 68.5500 "
       id="path438" />
    <path
       d="M62.3500 80.1500 L62.3500 69.6500 "
       id="path440" />
    <path
       d="M63.3500 68.5500 L74.3500 68.5500 "
       id="path442" />
    <path
       d="M65.3500 74.3500 L71.3500 74.3500 "
       id="path444" />
    <path
       d="M68.3500 71.3500 L68.3500 77.3500 "
       id="path446" />
    <path
       d="M74.3500 68.5500 L74.3500 80.1500 "
       id="path448" />
    <path
       d="M74.3500 80.1500 L62.3500 80.1500 "
       id="path450" />
    <circle
       cx="68.3500"
       cy="74.3500"
       r="3.0000"
       id="circle452" />
    <g
       id="g454" />
    <g
       id="g456" />
    <g
       id="g458" />
    <g
       id="g460" />
    <g
       id="g462" />
    <g
       id="g464" />
    <g
       id="g466" />
    <g
       id="g468" />
    <g
       id="g470" />
    <g
       id="g472" />
    <g
       id="g474" />
    <g
       id="g476" />
    <g
       id="g478" />
    <g
       id="g480" />
    <g
       id="g482" />
    <g
       id="g484" />
    <g
       id="g486" />
    <g
       id="g488" />
    <g
       id="g490" />
    <g
       id="g492" />
    <g
       id="g494" />
    <g
       id="g496" />
    <g
       id="g498" />
    <g
       id="g500" />
    <g
       id="g502" />
    <g
       id="g504" />
    <g
       id="g506" />
    <g
       id="g508" />
    <g
       id="g510" />
    <g
       id="g512" />
    <g
       id="g514" />
    <g
       id="g516" />
  </g>
  <g
     style="fill:#000000; fill-opacity:0.0;  stroke:#000000; stroke-width:0.1200; stroke-opacity:1;  stroke-linecap:round; stroke-linejoin:round;"
     id="g520" />
  <g
     style="fill:#000000; fill-opacity:0.0;  stroke:#000000; stroke-width:0.1500; stroke-opacity:1;  stroke-linecap:round; stroke-linejoin:round;"
     id="g562">
    <path
       d="M57.5146 24.1051 L76.9179 24.1006 "
       id="path522" />
    <path
       d="M57.5222 43.4951 L57.5146 24.1051 "
       id="path524" />
    <path
       d="M57.5222 43.4951 L76.9249 43.5042 "
       id="path526" />
    <path
       d="M76.9179 24.1006 L76.9249 43.5042 "
       id="path528" />
    <path
       d="M19.1446 62.1551 L38.5479 62.1506 "
       id="path530" />
    <path
       d="M19.1522 81.5451 L19.1446 62.1551 "
       id="path532" />
    <path
       d="M19.1522 81.5451 L38.5549 81.5542 "
       id="path534" />
    <path
       d="M38.5479 62.1506 L38.5549 81.5542 "
       id="path536" />
    <path
       d="M38.1896 62.1551 L57.5929 62.1506 "
       id="path538" />
    <path
       d="M38.1972 81.5451 L38.1896 62.1551 "
       id="path540" />
    <path
       d="M38.1972 81.5451 L57.5999 81.5542 "
       id="path542" />
    <path
       d="M57.5929 62.1506 L57.5999 81.5542 "
       id="path544" />
    <path
       d="M0.1446 62.1551 L19.5479 62.1506 "
       id="path546" />
    <path
       d="M0.1522 81.5451 L0.1446 62.1551 "
       id="path548" />
    <path
       d="M0.1522 81.5451 L19.5549 81.5542 "
       id="path550" />
    <path
       d="M19.5479 62.1506 L19.5549 81.5542 "
       id="path552" />
    <path
       d="M57.5146 43.1051 L76.9179 43.1006 "
       id="path554" />
    <path
       d="M57.5222 62.4951 L57.5146 43.1051 "
       id="path556" />
    <path
       d="M57.5222 62.4951 L76.9249 62.5042 "
       id="path558" />
    <path
       d="M76.9179 43.1006 L76.9249 62.5042 "
       id="path560" />
  </g>
  <g
     style="fill:#000000; fill-opacity:0.0;  stroke:#000000; stroke-width:0.1200; stroke-opacity:1;  stroke-linecap:round; stroke-linejoin:round;"
     id="g668">
    <path
       d="M57.5100 20.5500 L75.2900 20.5500 "
       id="path564" />
    <path
       d="M75.2900 20.5500 L75.2900 -0.4500 "
       id="path566" />
    <path
       d="M75.2900 -0.4500 L57.5100 -0.4500 "
       id="path568" />
    <path
       d="M57.5100 -0.4500 L57.5100 20.5500 "
       id="path570" />
    <path
       d="M61.1142 3.2642 L62.8922 3.2642 "
       id="path572" />
    <path
       d="M62.8922 3.2642 L62.8922 5.9312 "
       id="path574" />
    <path
       d="M62.8922 5.9312 L61.1142 5.9312 "
       id="path576" />
    <path
       d="M61.1142 5.9312 L61.1142 3.2642 "
       id="path578" />
    <path
       d="M62.8922 1.8672 L61.1142 1.8672 "
       id="path580" />
    <path
       d="M61.1142 1.8672 L61.1142 -0.7998 "
       id="path582" />
    <path
       d="M61.1142 -0.7998 L62.8922 -0.7998 "
       id="path584" />
    <path
       d="M62.8922 -0.7998 L62.8922 1.8672 "
       id="path586" />
    <path
       d="M69.7502 -0.7998 L71.5282 -0.7998 "
       id="path588" />
    <path
       d="M71.5282 -0.7998 L71.5282 1.8672 "
       id="path590" />
    <path
       d="M71.5282 1.8672 L69.7502 1.8672 "
       id="path592" />
    <path
       d="M69.7502 1.8672 L69.7502 -0.7998 "
       id="path594" />
    <path
       d="M69.7502 3.2642 L71.5282 3.2642 "
       id="path596" />
    <path
       d="M71.5282 3.2642 L71.5282 5.9312 "
       id="path598" />
    <path
       d="M71.5282 5.9312 L69.7502 5.9312 "
       id="path600" />
    <path
       d="M69.7502 5.9312 L69.7502 3.2642 "
       id="path602" />
    <g
       id="g604" />
    <g
       id="g606" />
    <g
       id="g608" />
    <g
       id="g610" />
    <g
       id="g612" />
    <g
       id="g614" />
    <g
       id="g616" />
    <g
       id="g618" />
    <g
       id="g620" />
    <g
       id="g622" />
    <g
       id="g624" />
    <g
       id="g626" />
    <g
       id="g628" />
    <g
       id="g630" />
    <g
       id="g632" />
    <g
       id="g634" />
    <g
       id="g636" />
    <g
       id="g638" />
    <g
       id="g640" />
    <g
       id="g642" />
    <g
       id="g644" />
    <g
       id="g646" />
    <g
       id="g648" />
    <g
       id="g650" />
    <g
       id="g652" />
    <g
       id="g654" />
    <g
       id="g656" />
    <g
       id="g658" />
    <g
       id="g660" />
    <g
       id="g662" />
    <g
       id="g664" />
    <g
       id="g666" />
  </g>
  <g
     style="fill:#000000; fill-opacity:0.0;  stroke:#000000; stroke-width:0.1200; stroke-opacity:1;  stroke-linecap:round; stroke-linejoin:round;"
     id="g670" />
  <g
     style="fill:#000000; fill-opacity:0.0;  stroke:#000000; stroke-width:0.1000; stroke-opacity:1;  stroke-linecap:round; stroke-linejoin:round;"
     id="g718">
    <path
       d="M53.8500 24.5000 L53.8500 20.1000 "
       id="path672" />
    <path
       d="M77.4250 0.0500 L55.1750 0.0500 "
       id="path674" />
    <path
       d="M53.4000 27.7500 L53.4000 32.1500 "
       id="path676" />
    <path
       d="M48.8000 7.9000 L55.5500 7.9000 "
       id="path678" />
    <path
       d="M55.5500 7.9000 L55.6000 20.1000 "
       id="path680" />
    <path
       d="M57.2000 32.1500 L57.2000 61.8500 "
       id="path682" />
    <path
       d="M35.9000 14.3500 L35.9000 24.5000 "
       id="path684" />
    <path
       d="M0.0750 40.3500 L35.8500 40.3500 "
       id="path686" />
    <path
       d="M0.1000 61.8500 L0.1000 81.7000 "
       id="path688" />
    <path
       d="M48.8000 6.8500 L48.8000 7.9000 "
       id="path690" />
    <path
       d="M0.0500 14.3500 L35.9000 14.3500 "
       id="path692" />
    <path
       d="M53.8500 20.1000 L55.6000 20.1000 "
       id="path694" />
    <path
       d="M35.8500 40.3500 L35.8500 26.0500 "
       id="path696" />
    <path
       d="M0.0500 14.3500 L0.0750 40.3500 "
       id="path698" />
    <path
       d="M57.2000 61.8500 L0.1000 61.8500 "
       id="path700" />
    <path
       d="M35.9000 24.5000 L53.8500 24.5000 "
       id="path702" />
    <path
       d="M55.1750 0.0500 L48.7500 0.0500 "
       id="path704" />
    <path
       d="M77.4250 0.0500 L77.5000 81.7500 "
       id="path706" />
    <path
       d="M53.4000 32.1500 L57.2000 32.1500 "
       id="path708" />
    <path
       d="M48.7500 0.0500 L48.8000 6.8500 "
       id="path710" />
    <path
       d="M35.8500 26.0500 L53.4000 26.0500 "
       id="path712" />
    <path
       d="M77.5000 81.7500 L0.1000 81.7000 "
       id="path714" />
    <path
       d="M53.4000 26.0500 L53.4000 27.7500 "
       id="path716" />
  </g>
  <g
     style="fill:#000000; fill-opacity:0.0;  stroke:#000000; stroke-width:0.1200; stroke-opacity:1;  stroke-linecap:round; stroke-linejoin:round;"
     id="g832">
    <path
       d="M59.9810 26.5900 L74.4590 26.6100 "
       id="path720" />
    <path
       d="M59.9810 41.0000 L59.9810 26.5900 "
       id="path722" />
    <path
       d="M74.4590 26.6100 L74.4590 41.0000 "
       id="path724" />
    <path
       d="M74.4590 41.0000 L59.9810 41.0000 "
       id="path726" />
    <path
       d="M21.6110 64.6400 L36.0890 64.6600 "
       id="path728" />
    <path
       d="M21.6110 79.0500 L21.6110 64.6400 "
       id="path730" />
    <path
       d="M36.0890 64.6600 L36.0890 79.0500 "
       id="path732" />
    <path
       d="M36.0890 79.0500 L21.6110 79.0500 "
       id="path734" />
    <path
       d="M40.6560 64.6400 L55.1340 64.6600 "
       id="path736" />
    <path
       d="M40.6560 79.0500 L40.6560 64.6400 "
       id="path738" />
    <path
       d="M55.1340 64.6600 L55.1340 79.0500 "
       id="path740" />
    <path
       d="M55.1340 79.0500 L40.6560 79.0500 "
       id="path742" />
    <path
       d="M2.6110 64.6400 L17.0890 64.6600 "
       id="path744" />
    <path
       d="M2.6110 79.0500 L2.6110 64.6400 "
       id="path746" />
    <path
       d="M17.0890 64.6600 L17.0890 79.0500 "
       id="path748" />
    <path
       d="M17.0890 79.0500 L2.6110 79.0500 "
       id="path750" />
    <path
       d="M59.9810 45.5900 L74.4590 45.6100 "
       id="path752" />
    <path
       d="M59.9810 60.0000 L59.9810 45.5900 "
       id="path754" />
    <path
       d="M74.4590 45.6100 L74.4590 60.0000 "
       id="path756" />
    <path
       d="M74.4590 60.0000 L59.9810 60.0000 "
       id="path758" />
    <path
       d="M8.3000 17.3200 L16.9000 17.3200 "
       id="path760" />
    <path
       d="M16.9000 17.3200 L16.9000 34.5800 "
       id="path762" />
    <path
       d="M16.9000 34.5800 L8.3000 34.5800 "
       id="path764" />
    <path
       d="M8.3000 34.5800 L8.3000 17.3200 "
       id="path766" />
    <g
       id="g768" />
    <g
       id="g770" />
    <g
       id="g772" />
    <g
       id="g774" />
    <g
       id="g776" />
    <g
       id="g778" />
    <g
       id="g780" />
    <g
       id="g782" />
    <g
       id="g784" />
    <g
       id="g786" />
    <g
       id="g788" />
    <g
       id="g790" />
    <g
       id="g792" />
    <g
       id="g794" />
    <g
       id="g796" />
    <g
       id="g798" />
    <g
       id="g800" />
    <g
       id="g802" />
    <g
       id="g804" />
    <g
       id="g806" />
    <g
       id="g808" />
    <g
       id="g810" />
    <g
       id="g812" />
    <g
       id="g814" />
    <g
       id="g816" />
    <g
       id="g818" />
    <g
       id="g820" />
    <g
       id="g822" />
    <g
       id="g824" />
    <g
       id="g826" />
    <g
       id="g828" />
    <g
       id="g830" />
  </g>
  <metadata
     id="metadata998">
    <rdf:RDF>
      <cc:Work
         rdf:about="">
        <dc:title>SVG Image created as Katkoot-brd.svg date 2024/04/19 05:28:45 </dc:title>
      </cc:Work>
    </rdf:RDF>
  </metadata>
</svg>
