  0
SECTION
  2
HEADER
  9
$ACADVER
  1
AC1014
  9
$HANDSEED
  5
FFFF
  9
$INSUNITS
 70
     4
  9
$MEASUREMENT
 70
     1
  0
ENDSEC
  0
SECTION
  2
TABLES
  0
TABLE
  2
VPORT
  5
8
330
0
100
AcDbSymbolTable
 70
     4
  0
VPORT
  5
2E
330
8
100
AcDbSymbolTableRecord
100
AcDbViewportTableRecord
  2
*ACTIVE
 70
     0
 10
0.0
 20
0.0
 11
1.0
 21
1.0
 12
210.0
 22
148.5
 13
0.0
 23
0.0
 14
10.0
 24
10.0
 15
10.0
 25
10.0
 16
0.0
 26
0.0
 36
1.0
 17
0.0
 27
0.0
 37
0.0
 40
341.0
 41
1.24
 42
50.0
 43
0.0
 44
0.0
 50
0.0
 51
0.0
 71
     0
 72
   100
 73
     1
 74
     3
 75
     0
 76
     0
 77
     0
 78
     0
  0
ENDTAB
  0
TABLE
  2
LTYPE
  5
5
330
0
100
AcDbSymbolTable
 70
     1
  0
LTYPE
  5
14
330
5
100
AcDbSymbolTableRecord
100
AcDbLinetypeTableRecord
  2
BYBLOCK
 70
     0
  3

 72
    65
 73
     0
 40
0.0
  0
LTYPE
  5
15
330
5
100
AcDbSymbolTableRecord
100
AcDbLinetypeTableRecord
  2
BYLAYER
 70
     0
  3

 72
    65
 73
     0
 40
0.0
  0
LTYPE
  5
16
330
5
100
AcDbSymbolTableRecord
100
AcDbLinetypeTableRecord
  2
CONTINUOUS
 70
     0
  3
Solid line
 72
    65
 73
     0
 40
0.0
  0
ENDTAB
  0
TABLE
  2
LAYER
  5
2
100
AcDbSymbolTable
 70
1
  0
LAYER
  5
50
100
AcDbSymbolTableRecord
100
AcDbLayerTableRecord
  2
0
 70
0
  6
CONTINUOUS
  0
ENDTAB
  0
TABLE
  2
STYLE
  5
3
330
0
100
AcDbSymbolTable
 70
     1
  0
STYLE
  5
11
330
3
100
AcDbSymbolTableRecord
100
AcDbTextStyleTableRecord
  2
STANDARD
 70
     0
 40
0.0
 41
1.0
 50
0.0
 71
     0
 42
2.5
  3
txt
  4

  0
ENDTAB
  0
TABLE
  2
VIEW
  5
6
330
0
100
AcDbSymbolTable
 70
     0
  0
ENDTAB
  0
TABLE
  2
UCS
  5
7
330
0
100
AcDbSymbolTable
 70
     0
  0
ENDTAB
  0
TABLE
  2
APPID
  5
9
330
0
100
AcDbSymbolTable
 70
     2
  0
APPID
  5
12
330
9
100
AcDbSymbolTableRecord
100
AcDbRegAppTableRecord
  2
ACAD
 70
     0
  0
ENDTAB
  0
TABLE
  2
DIMSTYLE
  5
A
330
0
100
AcDbSymbolTable
 70
     1
  0
DIMSTYLE
105
27
330
A
100
AcDbSymbolTableRecord
100
AcDbDimStyleTableRecord
  2
ISO-25
 70
     0
  3

  4

  5

  6

  7

 40
1.0
 41
2.5
 42
0.625
 43
3.75
 44
1.25
 45
0.0
 46
0.0
 47
0.0
 48
0.0
140
2.5
141
2.5
142
0.0
143
0.03937007874016
144
1.0
145
0.0
146
1.0
147
0.625
 71
     0
 72
     0
 73
     0
 74
     0
 75
     0
 76
     0
 77
     1
 78
     8
170
     0
171
     3
172
     1
173
     0
174
     0
175
     0
176
     0
177
     0
178
     0
270
     2
271
     2
272
     2
273
     2
274
     3
340
11
275
     0
280
     0
281
     0
282
     0
283
     0
284
     8
285
     0
286
     0
287
     3
288
     0
  0
ENDTAB
  0
TABLE
  2
BLOCK_RECORD
  5
1
330
0
100
AcDbSymbolTable
 70
     1
  0
BLOCK_RECORD
  5
1F
330
1
100
AcDbSymbolTableRecord
100
AcDbBlockTableRecord
  2
*MODEL_SPACE
  0
BLOCK_RECORD
  5
1B
330
1
100
AcDbSymbolTableRecord
100
AcDbBlockTableRecord
  2
*PAPER_SPACE
  0
ENDTAB
  0
ENDSEC
  0
SECTION
  2
BLOCKS
  0
BLOCK
  5
20
330
1F
100
AcDbEntity
  8
0
100
AcDbBlockBegin
  2
*MODEL_SPACE
 70
     0
 10
0.0
 20
0.0
 30
0.0
  3
*MODEL_SPACE
  1

  0
ENDBLK
  5
21
330
1F
100
AcDbEntity
  8
0
100
AcDbBlockEnd
  0
BLOCK
  5
1C
330
1B
100
AcDbEntity
 67
     1
  8
0
100
AcDbBlockBegin
  2
*PAPER_SPACE
  1

  0
ENDBLK
  5
1D
330
1B
100
AcDbEntity
 67
     1
  8
0
100
AcDbBlockEnd
  0
ENDSEC
  0
SECTION
  2
ENTITIES
  0
LINE
  5
100
100
AcDbEntity
  8
0
 62
7
100
AcDbLine
 10
62.350000
 20
12.138000
 30
0.0
 11
63.350000
 21
13.238000
 31
0.0
  0
LINE
  5
101
100
AcDbEntity
  8
0
 62
7
100
AcDbLine
 10
62.350000
 20
1.638000
 30
0.0
 11
62.350000
 21
12.138000
 31
0.0
  0
LINE
  5
102
100
AcDbEntity
  8
0
 62
7
100
AcDbLine
 10
63.350000
 20
13.238000
 30
0.0
 11
74.350000
 21
13.238000
 31
0.0
  0
LINE
  5
103
100
AcDbEntity
  8
0
 62
7
100
AcDbLine
 10
65.350000
 20
7.438000
 30
0.0
 11
71.350000
 21
7.438000
 31
0.0
  0
LINE
  5
104
100
AcDbEntity
  8
0
 62
7
100
AcDbLine
 10
68.350000
 20
10.438000
 30
0.0
 11
68.350000
 21
4.438000
 31
0.0
  0
LINE
  5
105
100
AcDbEntity
  8
0
 62
7
100
AcDbLine
 10
74.350000
 20
13.238000
 30
0.0
 11
74.350000
 21
1.638000
 31
0.0
  0
LINE
  5
106
100
AcDbEntity
  8
0
 62
7
100
AcDbLine
 10
74.350000
 20
1.638000
 30
0.0
 11
62.350000
 21
1.638000
 31
0.0
  0
SPLINE
  5
107
100
AcDbEntity
  8
0
 62
7
100
AcDbSpline
 70
8
 71
3
 72
8
 73
4
 74
0
 40
0
 40
0
 40
0
 40
0
 40
1
 40
1
 40
1
 40
1
 10
68.350000
 20
10.438000
 30
0.0
 10
67.136613
 20
10.438000
 30
0.0
 10
66.042704
 20
9.707073
 30
0.0
 10
65.578361
 20
8.586050
 30
0.0
  0
SPLINE
  5
108
100
AcDbEntity
  8
0
 62
7
100
AcDbSpline
 70
8
 71
3
 72
8
 73
4
 74
0
 40
0
 40
0
 40
0
 40
0
 40
1
 40
1
 40
1
 40
1
 10
65.578361
 20
8.586050
 30
0.0
 10
65.114018
 20
7.465027
 30
0.0
 10
65.370686
 20
6.174674
 30
0.0
 10
66.228680
 20
5.316680
 30
0.0
  0
SPLINE
  5
109
100
AcDbEntity
  8
0
 62
7
100
AcDbSpline
 70
8
 71
3
 72
8
 73
4
 74
0
 40
0
 40
0
 40
0
 40
0
 40
1
 40
1
 40
1
 40
1
 10
66.228680
 20
5.316680
 30
0.0
 10
67.086674
 20
4.458686
 30
0.0
 10
68.377027
 20
4.202018
 30
0.0
 10
69.498050
 20
4.666361
 30
0.0
  0
SPLINE
  5
10a
100
AcDbEntity
  8
0
 62
7
100
AcDbSpline
 70
8
 71
3
 72
8
 73
4
 74
0
 40
0
 40
0
 40
0
 40
0
 40
1
 40
1
 40
1
 40
1
 10
69.498050
 20
4.666361
 30
0.0
 10
70.619073
 20
5.130704
 30
0.0
 10
71.350000
 20
6.224613
 30
0.0
 10
71.350000
 20
7.438000
 30
0.0
  0
SPLINE
  5
10b
100
AcDbEntity
  8
0
 62
7
100
AcDbSpline
 70
8
 71
3
 72
8
 73
4
 74
0
 40
0
 40
0
 40
0
 40
0
 40
1
 40
1
 40
1
 40
1
 10
71.350000
 20
7.438000
 30
0.0
 10
71.350000
 20
8.233649
 30
0.0
 10
71.033929
 20
8.996711
 30
0.0
 10
70.471320
 20
9.559320
 30
0.0
  0
SPLINE
  5
10c
100
AcDbEntity
  8
0
 62
7
100
AcDbSpline
 70
8
 71
3
 72
8
 73
4
 74
0
 40
0
 40
0
 40
0
 40
0
 40
1
 40
1
 40
1
 40
1
 10
70.471320
 20
9.559320
 30
0.0
 10
69.908711
 20
10.121929
 30
0.0
 10
69.145649
 20
10.438000
 30
0.0
 10
68.350000
 20
10.438000
 30
0.0
  0
LINE
  5
10d
100
AcDbEntity
  8
0
 62
7
100
AcDbLine
 10
68.350000
 20
10.438000
 30
0.0
 11
68.350000
 21
10.438000
 31
0.0
  0
LINE
  5
10e
100
AcDbEntity
  8
0
 62
7
100
AcDbLine
 10
57.514600
 20
57.682900
 30
0.0
 11
76.917900
 21
57.687400
 31
0.0
  0
LINE
  5
10f
100
AcDbEntity
  8
0
 62
7
100
AcDbLine
 10
57.522200
 20
38.292900
 30
0.0
 11
57.514600
 21
57.682900
 31
0.0
  0
LINE
  5
110
100
AcDbEntity
  8
0
 62
7
100
AcDbLine
 10
57.522200
 20
38.292900
 30
0.0
 11
76.924900
 21
38.283800
 31
0.0
  0
LINE
  5
111
100
AcDbEntity
  8
0
 62
7
100
AcDbLine
 10
76.917900
 20
57.687400
 30
0.0
 11
76.924900
 21
38.283800
 31
0.0
  0
LINE
  5
112
100
AcDbEntity
  8
0
 62
7
100
AcDbLine
 10
19.144600
 20
19.632900
 30
0.0
 11
38.547900
 21
19.637400
 31
0.0
  0
LINE
  5
113
100
AcDbEntity
  8
0
 62
7
100
AcDbLine
 10
19.152200
 20
0.242900
 30
0.0
 11
19.144600
 21
19.632900
 31
0.0
  0
LINE
  5
114
100
AcDbEntity
  8
0
 62
7
100
AcDbLine
 10
19.152200
 20
0.242900
 30
0.0
 11
38.554900
 21
0.233800
 31
0.0
  0
LINE
  5
115
100
AcDbEntity
  8
0
 62
7
100
AcDbLine
 10
38.547900
 20
19.637400
 30
0.0
 11
38.554900
 21
0.233800
 31
0.0
  0
LINE
  5
116
100
AcDbEntity
  8
0
 62
7
100
AcDbLine
 10
38.189600
 20
19.632900
 30
0.0
 11
57.592900
 21
19.637400
 31
0.0
  0
LINE
  5
117
100
AcDbEntity
  8
0
 62
7
100
AcDbLine
 10
38.197200
 20
0.242900
 30
0.0
 11
38.189600
 21
19.632900
 31
0.0
  0
LINE
  5
118
100
AcDbEntity
  8
0
 62
7
100
AcDbLine
 10
38.197200
 20
0.242900
 30
0.0
 11
57.599900
 21
0.233800
 31
0.0
  0
LINE
  5
119
100
AcDbEntity
  8
0
 62
7
100
AcDbLine
 10
57.592900
 20
19.637400
 30
0.0
 11
57.599900
 21
0.233800
 31
0.0
  0
LINE
  5
11a
100
AcDbEntity
  8
0
 62
7
100
AcDbLine
 10
0.144600
 20
19.632900
 30
0.0
 11
19.547900
 21
19.637400
 31
0.0
  0
LINE
  5
11b
100
AcDbEntity
  8
0
 62
7
100
AcDbLine
 10
0.152200
 20
0.242900
 30
0.0
 11
0.144600
 21
19.632900
 31
0.0
  0
LINE
  5
11c
100
AcDbEntity
  8
0
 62
7
100
AcDbLine
 10
0.152200
 20
0.242900
 30
0.0
 11
19.554900
 21
0.233800
 31
0.0
  0
LINE
  5
11d
100
AcDbEntity
  8
0
 62
7
100
AcDbLine
 10
19.547900
 20
19.637400
 30
0.0
 11
19.554900
 21
0.233800
 31
0.0
  0
LINE
  5
11e
100
AcDbEntity
  8
0
 62
7
100
AcDbLine
 10
57.514600
 20
38.682900
 30
0.0
 11
76.917900
 21
38.687400
 31
0.0
  0
LINE
  5
11f
100
AcDbEntity
  8
0
 62
7
100
AcDbLine
 10
57.522200
 20
19.292900
 30
0.0
 11
57.514600
 21
38.682900
 31
0.0
  0
LINE
  5
120
100
AcDbEntity
  8
0
 62
7
100
AcDbLine
 10
57.522200
 20
19.292900
 30
0.0
 11
76.924900
 21
19.283800
 31
0.0
  0
LINE
  5
121
100
AcDbEntity
  8
0
 62
7
100
AcDbLine
 10
76.917900
 20
38.687400
 30
0.0
 11
76.924900
 21
19.283800
 31
0.0
  0
LINE
  5
122
100
AcDbEntity
  8
0
 62
7
100
AcDbLine
 10
57.510000
 20
61.238000
 30
0.0
 11
75.290000
 21
61.238000
 31
0.0
  0
LINE
  5
123
100
AcDbEntity
  8
0
 62
7
100
AcDbLine
 10
75.290000
 20
61.238000
 30
0.0
 11
75.290000
 21
82.238000
 31
0.0
  0
LINE
  5
124
100
AcDbEntity
  8
0
 62
7
100
AcDbLine
 10
75.290000
 20
82.238000
 30
0.0
 11
57.510000
 21
82.238000
 31
0.0
  0
LINE
  5
125
100
AcDbEntity
  8
0
 62
7
100
AcDbLine
 10
57.510000
 20
82.238000
 30
0.0
 11
57.510000
 21
61.238000
 31
0.0
  0
LINE
  5
126
100
AcDbEntity
  8
0
 62
7
100
AcDbLine
 10
61.114200
 20
78.523800
 30
0.0
 11
62.892200
 21
78.523800
 31
0.0
  0
LINE
  5
127
100
AcDbEntity
  8
0
 62
7
100
AcDbLine
 10
62.892200
 20
78.523800
 30
0.0
 11
62.892200
 21
75.856800
 31
0.0
  0
LINE
  5
128
100
AcDbEntity
  8
0
 62
7
100
AcDbLine
 10
62.892200
 20
75.856800
 30
0.0
 11
61.114200
 21
75.856800
 31
0.0
  0
LINE
  5
129
100
AcDbEntity
  8
0
 62
7
100
AcDbLine
 10
61.114200
 20
75.856800
 30
0.0
 11
61.114200
 21
78.523800
 31
0.0
  0
LINE
  5
12a
100
AcDbEntity
  8
0
 62
7
100
AcDbLine
 10
62.892200
 20
79.920800
 30
0.0
 11
61.114200
 21
79.920800
 31
0.0
  0
LINE
  5
12b
100
AcDbEntity
  8
0
 62
7
100
AcDbLine
 10
61.114200
 20
79.920800
 30
0.0
 11
61.114200
 21
82.587800
 31
0.0
  0
LINE
  5
12c
100
AcDbEntity
  8
0
 62
7
100
AcDbLine
 10
61.114200
 20
82.587800
 30
0.0
 11
62.892200
 21
82.587800
 31
0.0
  0
LINE
  5
12d
100
AcDbEntity
  8
0
 62
7
100
AcDbLine
 10
62.892200
 20
82.587800
 30
0.0
 11
62.892200
 21
79.920800
 31
0.0
  0
LINE
  5
12e
100
AcDbEntity
  8
0
 62
7
100
AcDbLine
 10
69.750200
 20
82.587800
 30
0.0
 11
71.528200
 21
82.587800
 31
0.0
  0
LINE
  5
12f
100
AcDbEntity
  8
0
 62
7
100
AcDbLine
 10
71.528200
 20
82.587800
 30
0.0
 11
71.528200
 21
79.920800
 31
0.0
  0
LINE
  5
130
100
AcDbEntity
  8
0
 62
7
100
AcDbLine
 10
71.528200
 20
79.920800
 30
0.0
 11
69.750200
 21
79.920800
 31
0.0
  0
LINE
  5
131
100
AcDbEntity
  8
0
 62
7
100
AcDbLine
 10
69.750200
 20
79.920800
 30
0.0
 11
69.750200
 21
82.587800
 31
0.0
  0
LINE
  5
132
100
AcDbEntity
  8
0
 62
7
100
AcDbLine
 10
69.750200
 20
78.523800
 30
0.0
 11
71.528200
 21
78.523800
 31
0.0
  0
LINE
  5
133
100
AcDbEntity
  8
0
 62
7
100
AcDbLine
 10
71.528200
 20
78.523800
 30
0.0
 11
71.528200
 21
75.856800
 31
0.0
  0
LINE
  5
134
100
AcDbEntity
  8
0
 62
7
100
AcDbLine
 10
71.528200
 20
75.856800
 30
0.0
 11
69.750200
 21
75.856800
 31
0.0
  0
LINE
  5
135
100
AcDbEntity
  8
0
 62
7
100
AcDbLine
 10
69.750200
 20
75.856800
 30
0.0
 11
69.750200
 21
78.523800
 31
0.0
  0
LINE
  5
136
100
AcDbEntity
  8
0
 62
7
100
AcDbLine
 10
53.850000
 20
57.288000
 30
0.0
 11
53.850000
 21
61.688000
 31
0.0
  0
LINE
  5
137
100
AcDbEntity
  8
0
 62
7
100
AcDbLine
 10
77.425000
 20
81.738000
 30
0.0
 11
55.175000
 21
81.738000
 31
0.0
  0
LINE
  5
138
100
AcDbEntity
  8
0
 62
7
100
AcDbLine
 10
53.400000
 20
54.038000
 30
0.0
 11
53.400000
 21
49.638000
 31
0.0
  0
LINE
  5
139
100
AcDbEntity
  8
0
 62
7
100
AcDbLine
 10
48.800000
 20
73.888000
 30
0.0
 11
55.550000
 21
73.888000
 31
0.0
  0
LINE
  5
13a
100
AcDbEntity
  8
0
 62
7
100
AcDbLine
 10
55.550000
 20
73.888000
 30
0.0
 11
55.600000
 21
61.688000
 31
0.0
  0
LINE
  5
13b
100
AcDbEntity
  8
0
 62
7
100
AcDbLine
 10
57.200000
 20
49.638000
 30
0.0
 11
57.200000
 21
19.938000
 31
0.0
  0
LINE
  5
13c
100
AcDbEntity
  8
0
 62
7
100
AcDbLine
 10
35.900000
 20
67.438000
 30
0.0
 11
35.900000
 21
57.288000
 31
0.0
  0
LINE
  5
13d
100
AcDbEntity
  8
0
 62
7
100
AcDbLine
 10
0.075000
 20
41.438000
 30
0.0
 11
35.850000
 21
41.438000
 31
0.0
  0
LINE
  5
13e
100
AcDbEntity
  8
0
 62
7
100
AcDbLine
 10
0.100000
 20
19.938000
 30
0.0
 11
0.100000
 21
0.088000
 31
0.0
  0
LINE
  5
13f
100
AcDbEntity
  8
0
 62
7
100
AcDbLine
 10
48.800000
 20
74.938000
 30
0.0
 11
48.800000
 21
73.888000
 31
0.0
  0
LINE
  5
140
100
AcDbEntity
  8
0
 62
7
100
AcDbLine
 10
0.050000
 20
67.438000
 30
0.0
 11
35.900000
 21
67.438000
 31
0.0
  0
LINE
  5
141
100
AcDbEntity
  8
0
 62
7
100
AcDbLine
 10
53.850000
 20
61.688000
 30
0.0
 11
55.600000
 21
61.688000
 31
0.0
  0
LINE
  5
142
100
AcDbEntity
  8
0
 62
7
100
AcDbLine
 10
35.850000
 20
41.438000
 30
0.0
 11
35.850000
 21
55.738000
 31
0.0
  0
LINE
  5
143
100
AcDbEntity
  8
0
 62
7
100
AcDbLine
 10
0.050000
 20
67.438000
 30
0.0
 11
0.075000
 21
41.438000
 31
0.0
  0
LINE
  5
144
100
AcDbEntity
  8
0
 62
7
100
AcDbLine
 10
57.200000
 20
19.938000
 30
0.0
 11
0.100000
 21
19.938000
 31
0.0
  0
LINE
  5
145
100
AcDbEntity
  8
0
 62
7
100
AcDbLine
 10
35.900000
 20
57.288000
 30
0.0
 11
53.850000
 21
57.288000
 31
0.0
  0
LINE
  5
146
100
AcDbEntity
  8
0
 62
7
100
AcDbLine
 10
55.175000
 20
81.738000
 30
0.0
 11
48.750000
 21
81.738000
 31
0.0
  0
LINE
  5
147
100
AcDbEntity
  8
0
 62
7
100
AcDbLine
 10
77.425000
 20
81.738000
 30
0.0
 11
77.500000
 21
0.038000
 31
0.0
  0
LINE
  5
148
100
AcDbEntity
  8
0
 62
7
100
AcDbLine
 10
53.400000
 20
49.638000
 30
0.0
 11
57.200000
 21
49.638000
 31
0.0
  0
LINE
  5
149
100
AcDbEntity
  8
0
 62
7
100
AcDbLine
 10
48.750000
 20
81.738000
 30
0.0
 11
48.800000
 21
74.938000
 31
0.0
  0
LINE
  5
14a
100
AcDbEntity
  8
0
 62
7
100
AcDbLine
 10
35.850000
 20
55.738000
 30
0.0
 11
53.400000
 21
55.738000
 31
0.0
  0
LINE
  5
14b
100
AcDbEntity
  8
0
 62
7
100
AcDbLine
 10
77.500000
 20
0.038000
 30
0.0
 11
0.100000
 21
0.088000
 31
0.0
  0
LINE
  5
14c
100
AcDbEntity
  8
0
 62
7
100
AcDbLine
 10
53.400000
 20
55.738000
 30
0.0
 11
53.400000
 21
54.038000
 31
0.0
  0
LINE
  5
14d
100
AcDbEntity
  8
0
 62
7
100
AcDbLine
 10
59.981000
 20
55.198000
 30
0.0
 11
74.459000
 21
55.178000
 31
0.0
  0
LINE
  5
14e
100
AcDbEntity
  8
0
 62
7
100
AcDbLine
 10
59.981000
 20
40.788000
 30
0.0
 11
59.981000
 21
55.198000
 31
0.0
  0
LINE
  5
14f
100
AcDbEntity
  8
0
 62
7
100
AcDbLine
 10
74.459000
 20
55.178000
 30
0.0
 11
74.459000
 21
40.788000
 31
0.0
  0
LINE
  5
150
100
AcDbEntity
  8
0
 62
7
100
AcDbLine
 10
74.459000
 20
40.788000
 30
0.0
 11
59.981000
 21
40.788000
 31
0.0
  0
LINE
  5
151
100
AcDbEntity
  8
0
 62
7
100
AcDbLine
 10
21.611000
 20
17.148000
 30
0.0
 11
36.089000
 21
17.128000
 31
0.0
  0
LINE
  5
152
100
AcDbEntity
  8
0
 62
7
100
AcDbLine
 10
21.611000
 20
2.738000
 30
0.0
 11
21.611000
 21
17.148000
 31
0.0
  0
LINE
  5
153
100
AcDbEntity
  8
0
 62
7
100
AcDbLine
 10
36.089000
 20
17.128000
 30
0.0
 11
36.089000
 21
2.738000
 31
0.0
  0
LINE
  5
154
100
AcDbEntity
  8
0
 62
7
100
AcDbLine
 10
36.089000
 20
2.738000
 30
0.0
 11
21.611000
 21
2.738000
 31
0.0
  0
LINE
  5
155
100
AcDbEntity
  8
0
 62
7
100
AcDbLine
 10
40.656000
 20
17.148000
 30
0.0
 11
55.134000
 21
17.128000
 31
0.0
  0
LINE
  5
156
100
AcDbEntity
  8
0
 62
7
100
AcDbLine
 10
40.656000
 20
2.738000
 30
0.0
 11
40.656000
 21
17.148000
 31
0.0
  0
LINE
  5
157
100
AcDbEntity
  8
0
 62
7
100
AcDbLine
 10
55.134000
 20
17.128000
 30
0.0
 11
55.134000
 21
2.738000
 31
0.0
  0
LINE
  5
158
100
AcDbEntity
  8
0
 62
7
100
AcDbLine
 10
55.134000
 20
2.738000
 30
0.0
 11
40.656000
 21
2.738000
 31
0.0
  0
LINE
  5
159
100
AcDbEntity
  8
0
 62
7
100
AcDbLine
 10
2.611000
 20
17.148000
 30
0.0
 11
17.089000
 21
17.128000
 31
0.0
  0
LINE
  5
15a
100
AcDbEntity
  8
0
 62
7
100
AcDbLine
 10
2.611000
 20
2.738000
 30
0.0
 11
2.611000
 21
17.148000
 31
0.0
  0
LINE
  5
15b
100
AcDbEntity
  8
0
 62
7
100
AcDbLine
 10
17.089000
 20
17.128000
 30
0.0
 11
17.089000
 21
2.738000
 31
0.0
  0
LINE
  5
15c
100
AcDbEntity
  8
0
 62
7
100
AcDbLine
 10
17.089000
 20
2.738000
 30
0.0
 11
2.611000
 21
2.738000
 31
0.0
  0
LINE
  5
15d
100
AcDbEntity
  8
0
 62
7
100
AcDbLine
 10
59.981000
 20
36.198000
 30
0.0
 11
74.459000
 21
36.178000
 31
0.0
  0
LINE
  5
15e
100
AcDbEntity
  8
0
 62
7
100
AcDbLine
 10
59.981000
 20
21.788000
 30
0.0
 11
59.981000
 21
36.198000
 31
0.0
  0
LINE
  5
15f
100
AcDbEntity
  8
0
 62
7
100
AcDbLine
 10
74.459000
 20
36.178000
 30
0.0
 11
74.459000
 21
21.788000
 31
0.0
  0
LINE
  5
160
100
AcDbEntity
  8
0
 62
7
100
AcDbLine
 10
74.459000
 20
21.788000
 30
0.0
 11
59.981000
 21
21.788000
 31
0.0
  0
LINE
  5
161
100
AcDbEntity
  8
0
 62
7
100
AcDbLine
 10
8.300000
 20
64.468000
 30
0.0
 11
16.900000
 21
64.468000
 31
0.0
  0
LINE
  5
162
100
AcDbEntity
  8
0
 62
7
100
AcDbLine
 10
16.900000
 20
64.468000
 30
0.0
 11
16.900000
 21
47.208000
 31
0.0
  0
LINE
  5
163
100
AcDbEntity
  8
0
 62
7
100
AcDbLine
 10
16.900000
 20
47.208000
 30
0.0
 11
8.300000
 21
47.208000
 31
0.0
  0
LINE
  5
164
100
AcDbEntity
  8
0
 62
7
100
AcDbLine
 10
8.300000
 20
47.208000
 30
0.0
 11
8.300000
 21
64.468000
 31
0.0
  0
ENDSEC
  0
SECTION
  2
OBJECTS
  0
DICTIONARY
  5
C
330
0
100
AcDbDictionary
  3
ACAD_GROUP
350
D
  3
ACAD_MLINESTYLE
350
17
  0
DICTIONARY
  5
D
330
C
100
AcDbDictionary
  0
DICTIONARY
  5
1A
330
C
100
AcDbDictionary
  0
DICTIONARY
  5
17
330
C
100
AcDbDictionary
  3
STANDARD
350
18
  0
DICTIONARY
  5
19
330
C
100
AcDbDictionary
  0
ENDSEC
  0
EOF
