<?xml version="1.0" encoding="UTF-8" standalone="no"?>
<svg
   version="1.1"
   width="136.1186mm"
   height="91.0082mm"
   viewBox="0.0000 0.0000 136.1186 91.0082"
   id="svg1810"
   sodipodi:docname="wired-plate-brd.svg"
   inkscape:version="1.2.2 (732a01da63, 2022-12-09)"
   xmlns:inkscape="http://www.inkscape.org/namespaces/inkscape"
   xmlns:sodipodi="http://sodipodi.sourceforge.net/DTD/sodipodi-0.dtd"
   xmlns="http://www.w3.org/2000/svg"
   xmlns:svg="http://www.w3.org/2000/svg"
   xmlns:rdf="http://www.w3.org/1999/02/22-rdf-syntax-ns#"
   xmlns:cc="http://creativecommons.org/ns#"
   xmlns:dc="http://purl.org/dc/elements/1.1/">
  <defs
     id="defs1814" />
  <sodipodi:namedview
     id="namedview1812"
     pagecolor="#505050"
     bordercolor="#eeeeee"
     borderopacity="1"
     inkscape:showpageshadow="0"
     inkscape:pageopacity="0"
     inkscape:pagecheckerboard="0"
     inkscape:deskcolor="#505050"
     inkscape:document-units="mm"
     showgrid="false"
     inkscape:zoom="2.4508093"
     inkscape:cx="257.26195"
     inkscape:cy="205.03431"
     inkscape:window-width="1920"
     inkscape:window-height="1001"
     inkscape:window-x="2551"
     inkscape:window-y="390"
     inkscape:window-maximized="1"
     inkscape:current-layer="svg1810" />
  <title
     id="title1380">SVG Image created as wired-plate-brd.svg date 2023/02/23 12:17:35 </title>
  <desc
     id="desc1382">Image generated by PCBNEW </desc>
  <g
     style="fill:#000000; fill-opacity:1.0000;stroke:#000000; stroke-opacity:1.0000; stroke-linecap:round; stroke-linejoin:round;"
     transform="translate(0 0) scale(1 1)"
     id="g1384" />
  <g
     style="fill:#000000; fill-opacity:0.0;  stroke:#000000; stroke-width:0.0000; stroke-opacity:1;  stroke-linecap:round; stroke-linejoin:round;"
     id="g1386" />
  <g
     style="fill:#000000; fill-opacity:0.0;  stroke:#000000; stroke-width:0.1500; stroke-opacity:1;  stroke-linecap:round; stroke-linejoin:round;"
     id="g1548">
    <path
       d="M81.3834 67.3869 L61.9801 67.3914 "
       id="path1388" />
    <path
       d="M81.3758 47.9969 L81.3834 67.3869 "
       id="path1390" />
    <path
       d="M81.3758 47.9969 L61.9731 47.9878 "
       id="path1392" />
    <path
       d="M61.9801 67.3914 L61.9731 47.9878 "
       id="path1394" />
    <path
       d="M24.1154 60.7603 L5.0077 64.1341 "
       id="path1396" />
    <path
       d="M20.7409 41.6662 L24.1154 60.7603 "
       id="path1398" />
    <path
       d="M20.7409 41.6662 L1.6314 45.0265 "
       id="path1400" />
    <path
       d="M5.0077 64.1341 L1.6314 45.0265 "
       id="path1402" />
    <path
       d="M104.2514 90.5169 L84.8481 90.5214 "
       id="path1404" />
    <path
       d="M104.2438 71.1269 L104.2514 90.5169 "
       id="path1406" />
    <path
       d="M104.2438 71.1269 L84.8411 71.1178 "
       id="path1408" />
    <path
       d="M84.8481 90.5214 L84.8411 71.1178 "
       id="path1410" />
    <path
       d="M81.3834 48.3369 L61.9801 48.3414 "
       id="path1412" />
    <path
       d="M81.3758 28.9469 L81.3834 48.3369 "
       id="path1414" />
    <path
       d="M81.3758 28.9469 L61.9731 28.9378 "
       id="path1416" />
    <path
       d="M61.9801 48.3414 L61.9731 28.9378 "
       id="path1418" />
    <path
       d="M100.4334 38.9229 L81.0301 38.9274 "
       id="path1420" />
    <path
       d="M100.4258 19.5329 L100.4334 38.9229 "
       id="path1422" />
    <path
       d="M100.4258 19.5329 L81.0231 19.5238 "
       id="path1424" />
    <path
       d="M81.0301 38.9274 L81.0231 19.5238 "
       id="path1426" />
    <path
       d="M60.2955 20.6697 L40.9190 21.6896 "
       id="path1428" />
    <path
       d="M59.2731 1.3067 L60.2955 20.6697 "
       id="path1430" />
    <path
       d="M59.2731 1.3067 L39.8965 2.3131 "
       id="path1432" />
    <path
       d="M40.9190 21.6896 L39.8965 2.3131 "
       id="path1434" />
    <path
       d="M100.4334 57.9729 L81.0301 57.9774 "
       id="path1436" />
    <path
       d="M100.4258 38.5829 L100.4334 57.9729 "
       id="path1438" />
    <path
       d="M100.4258 38.5829 L81.0231 38.5738 "
       id="path1440" />
    <path
       d="M81.0301 57.9774 L81.0231 38.5738 "
       id="path1442" />
    <path
       d="M20.8134 41.9643 L1.7057 45.3381 "
       id="path1444" />
    <path
       d="M17.4389 22.8702 L20.8134 41.9643 "
       id="path1446" />
    <path
       d="M17.4389 22.8702 L-1.6706 26.2305 "
       id="path1448" />
    <path
       d="M1.7057 45.3381 L-1.6706 26.2305 "
       id="path1450" />
    <path
       d="M40.3974 26.4042 L21.0683 28.0997 "
       id="path1452" />
    <path
       d="M38.6999 7.0886 L40.3974 26.4042 "
       id="path1454" />
    <path
       d="M38.6999 7.0886 L19.3702 8.7706 "
       id="path1456" />
    <path
       d="M21.0683 28.0997 L19.3702 8.7706 "
       id="path1458" />
    <path
       d="M81.3834 29.2869 L61.9801 29.2914 "
       id="path1460" />
    <path
       d="M81.3758 9.8969 L81.3834 29.2869 "
       id="path1462" />
    <path
       d="M81.3758 9.8969 L61.9731 9.8878 "
       id="path1464" />
    <path
       d="M61.9801 29.2914 L61.9731 9.8878 "
       id="path1466" />
    <path
       d="M42.0678 45.4312 L22.7387 47.1268 "
       id="path1468" />
    <path
       d="M40.3703 26.1157 L42.0678 45.4312 "
       id="path1470" />
    <path
       d="M40.3703 26.1157 L21.0406 27.7977 "
       id="path1472" />
    <path
       d="M22.7387 47.1268 L21.0406 27.7977 "
       id="path1474" />
    <path
       d="M43.7136 64.4514 L24.3845 66.1470 "
       id="path1476" />
    <path
       d="M42.0160 45.1359 L43.7136 64.4514 "
       id="path1478" />
    <path
       d="M42.0160 45.1359 L22.6864 46.8179 "
       id="path1480" />
    <path
       d="M24.3845 66.1470 L22.6864 46.8179 "
       id="path1482" />
    <path
       d="M61.3146 39.7195 L41.9381 40.7394 "
       id="path1484" />
    <path
       d="M60.2922 20.3565 L61.3146 39.7195 "
       id="path1486" />
    <path
       d="M60.2922 20.3565 L40.9156 21.3629 "
       id="path1488" />
    <path
       d="M41.9381 40.7394 L40.9156 21.3629 "
       id="path1490" />
    <path
       d="M85.2014 88.4849 L65.7981 88.4894 "
       id="path1492" />
    <path
       d="M85.1938 69.0949 L85.2014 88.4849 "
       id="path1494" />
    <path
       d="M85.1938 69.0949 L65.7911 69.0858 "
       id="path1496" />
    <path
       d="M65.7981 88.4894 L65.7911 69.0858 "
       id="path1498" />
    <path
       d="M62.3252 58.7731 L42.9488 59.7931 "
       id="path1500" />
    <path
       d="M61.3028 39.4101 L62.3252 58.7731 "
       id="path1502" />
    <path
       d="M61.3028 39.4101 L41.9263 40.4165 "
       id="path1504" />
    <path
       d="M42.9488 59.7931 L41.9263 40.4165 "
       id="path1506" />
    <g
       id="g1508" />
    <g
       id="g1510" />
    <g
       id="g1512" />
    <g
       id="g1514" />
    <g
       id="g1516" />
    <g
       id="g1518" />
    <g
       id="g1520" />
    <g
       id="g1522" />
    <g
       id="g1524" />
    <g
       id="g1526" />
    <g
       id="g1528" />
    <g
       id="g1530" />
    <g
       id="g1532" />
    <g
       id="g1534" />
    <g
       id="g1536" />
    <g
       id="g1538" />
    <g
       id="g1540" />
    <g
       id="g1542" />
    <g
       id="g1544" />
    <g
       id="g1546" />
  </g>
  <g
     style="fill:#000000; fill-opacity:0.0;  stroke:#000000; stroke-width:0.1500; stroke-opacity:1;  stroke-linecap:round; stroke-linejoin:round;"
     id="g1550" />
  <g
     style="fill:#000000; fill-opacity:0.0;  stroke:#000000; stroke-width:0.1000; stroke-opacity:1;  stroke-linecap:round; stroke-linejoin:round;"
     id="g1638">
    <circle
       cx="11.9315"
       cy="7.3187"
       r="1.7039"
       id="circle1552" />
    <circle
       cx="43.4275"
       cy="46.4347"
       r="1.1359"
       id="circle1554" />
    <circle
       cx="81.5275"
       cy="46.4347"
       r="1.0776"
       id="circle1556" />
    <circle
       cx="62.4775"
       cy="65.4847"
       r="1.0776"
       id="circle1558" />
    <circle
       cx="3.6786"
       cy="7.5701"
       r="1.6908"
       id="circle1560" />
    <circle
       cx="75.6841"
       cy="4.5179"
       r="1.6908"
       id="circle1562" />
    <circle
       cx="120.7836"
       cy="77.9429"
       r="1.6908"
       id="circle1564" />
    <circle
       cx="8.5860"
       cy="84.0160"
       r="1.3113"
       id="circle1566" />
    <path
       d="M102.5096 0.5448 L135.6295 0.5448 "
       id="path1568" />
    <path
       d="M135.6295 0.5448 L135.6295 18.4165 "
       id="path1570" />
    <path
       d="M135.6295 18.4165 L102.5096 18.4165 "
       id="path1572" />
    <path
       d="M102.5096 18.4165 L102.5096 0.5448 "
       id="path1574" />
    <path
       d="M110.5297 83.5196 L117.7494 83.5196 "
       id="path1576" />
    <path
       d="M117.7494 83.5196 L117.7494 90.7836 "
       id="path1578" />
    <path
       d="M117.7494 90.7836 L110.5297 90.7836 "
       id="path1580" />
    <path
       d="M110.5297 90.7836 L110.5297 83.5196 "
       id="path1582" />
    <path
       d="M119.4436 83.5196 L126.6632 83.5196 "
       id="path1584" />
    <path
       d="M126.6632 83.5196 L126.6632 90.7836 "
       id="path1586" />
    <path
       d="M126.6632 90.7836 L119.4436 90.7836 "
       id="path1588" />
    <path
       d="M119.4436 90.7836 L119.4436 83.5196 "
       id="path1590" />
    <path
       d="M128.2635 83.5187 L135.4831 83.5187 "
       id="path1592" />
    <path
       d="M135.4831 83.5187 L135.4831 90.7827 "
       id="path1594" />
    <path
       d="M135.4831 90.7827 L128.2635 90.7827 "
       id="path1596" />
    <path
       d="M128.2635 90.7827 L128.2635 83.5187 "
       id="path1598" />
    <path
       d="M121.4055 54.0547 L135.6295 54.0547 "
       id="path1600" />
    <path
       d="M135.6295 54.0547 L135.6295 60.9127 "
       id="path1602" />
    <path
       d="M135.6295 60.9127 L121.4055 60.9127 "
       id="path1604" />
    <path
       d="M121.4055 60.9127 L121.4055 54.0547 "
       id="path1606" />
    <path
       d="M122.9295 64.7227 L135.5311 64.7227 "
       id="path1608" />
    <path
       d="M135.5311 64.7227 L135.5311 75.7370 "
       id="path1610" />
    <path
       d="M135.5311 75.7370 L122.9295 75.7370 "
       id="path1612" />
    <path
       d="M122.9295 75.7370 L122.9295 64.7227 "
       id="path1614" />
    <path
       d="M135.6860 90.9820 L7.1620 90.9820 "
       id="path1616" />
    <path
       d="M135.6860 90.9820 L135.6860 0.0500 "
       id="path1618" />
    <path
       d="M136.0794 45.0993 L135.7105 45.0989 "
       id="path1620" />
    <path
       d="M135.6860 0.0500 L7.1620 0.0500 "
       id="path1622" />
    <path
       d="M0.0500 83.8700 L0.0500 7.1620 "
       id="path1624" />
    <path
       d="M0.0500 83.8700 A7.1120 7.1120 0.0 0 0 7.1620 90.9820"
       id="path1626" />
    <path
       d="M7.1620 0.0500 A7.1120 7.1120 0.0 0 0 0.0500 7.1620"
       id="path1628" />
    <path
       d="M37.3935 73.4678 L54.8676 73.4678 "
       id="path1630" />
    <path
       d="M54.8676 73.4678 L54.8676 87.6580 "
       id="path1632" />
    <path
       d="M54.8676 87.6580 L37.3935 87.6580 "
       id="path1634" />
    <path
       d="M37.3935 87.6580 L37.3935 73.4678 "
       id="path1636" />
  </g>
  <g
     style="fill:#000000; fill-opacity:0.0;  stroke:#000000; stroke-width:0.1200; stroke-opacity:1;  stroke-linecap:round; stroke-linejoin:round;"
     id="g1808">
    <path
       d="M116.5460 36.6080 L133.8060 36.6080 "
       id="path1640" />
    <path
       d="M133.8060 36.6080 L133.8060 28.0080 "
       id="path1642" />
    <path
       d="M133.8060 28.0080 L116.5460 28.0080 "
       id="path1644" />
    <path
       d="M116.5460 28.0080 L116.5460 36.6080 "
       id="path1646" />
    <path
       d="M78.9170 64.9020 L64.4390 64.8820 "
       id="path1648" />
    <path
       d="M78.9170 50.4920 L78.9170 64.9020 "
       id="path1650" />
    <path
       d="M64.4390 64.8820 L64.4390 50.4920 "
       id="path1652" />
    <path
       d="M64.4390 50.4920 L78.9170 50.4920 "
       id="path1654" />
    <path
       d="M21.2550 58.7414 L6.9935 61.2358 "
       id="path1656" />
    <path
       d="M18.7528 44.5503 L21.2550 58.7414 "
       id="path1658" />
    <path
       d="M6.9935 61.2358 L4.4947 47.0644 "
       id="path1660" />
    <path
       d="M4.4947 47.0644 L18.7528 44.5503 "
       id="path1662" />
    <path
       d="M101.7850 88.0320 L87.3070 88.0120 "
       id="path1664" />
    <path
       d="M101.7850 73.6220 L101.7850 88.0320 "
       id="path1666" />
    <path
       d="M87.3070 88.0120 L87.3070 73.6220 "
       id="path1668" />
    <path
       d="M87.3070 73.6220 L101.7850 73.6220 "
       id="path1670" />
    <path
       d="M78.9170 45.8520 L64.4390 45.8320 "
       id="path1672" />
    <path
       d="M78.9170 31.4420 L78.9170 45.8520 "
       id="path1674" />
    <path
       d="M64.4390 45.8320 L64.4390 31.4420 "
       id="path1676" />
    <path
       d="M64.4390 31.4420 L78.9170 31.4420 "
       id="path1678" />
    <path
       d="M97.9670 36.4380 L83.4890 36.4180 "
       id="path1680" />
    <path
       d="M97.9670 22.0280 L97.9670 36.4380 "
       id="path1682" />
    <path
       d="M83.4890 36.4180 L83.4890 22.0280 "
       id="path1684" />
    <path
       d="M83.4890 22.0280 L97.9670 22.0280 "
       id="path1686" />
    <path
       d="M57.7024 18.3173 L43.2432 19.0550 "
       id="path1688" />
    <path
       d="M56.9483 3.9270 L57.7024 18.3173 "
       id="path1690" />
    <path
       d="M43.2432 19.0550 L42.4901 4.6847 "
       id="path1692" />
    <path
       d="M42.4901 4.6847 L56.9483 3.9270 "
       id="path1694" />
    <path
       d="M97.9670 55.4880 L83.4890 55.4680 "
       id="path1696" />
    <path
       d="M97.9670 41.0780 L97.9670 55.4880 "
       id="path1698" />
    <path
       d="M83.4890 55.4680 L83.4890 41.0780 "
       id="path1700" />
    <path
       d="M83.4890 41.0780 L97.9670 41.0780 "
       id="path1702" />
    <path
       d="M17.9530 39.9454 L3.6915 42.4398 "
       id="path1704" />
    <path
       d="M15.4508 25.7543 L17.9530 39.9454 "
       id="path1706" />
    <path
       d="M3.6915 42.4398 L1.1927 28.2684 "
       id="path1708" />
    <path
       d="M1.1927 28.2684 L15.4508 25.7543 "
       id="path1710" />
    <path
       d="M37.7238 24.1436 L23.2992 25.3856 "
       id="path1712" />
    <path
       d="M36.4679 9.7885 L37.7238 24.1436 "
       id="path1714" />
    <path
       d="M23.2992 25.3856 L22.0450 11.0503 "
       id="path1716" />
    <path
       d="M22.0450 11.0503 L36.4679 9.7885 "
       id="path1718" />
    <path
       d="M78.9170 26.8020 L64.4390 26.7820 "
       id="path1720" />
    <path
       d="M78.9170 12.3920 L78.9170 26.8020 "
       id="path1722" />
    <path
       d="M64.4390 26.7820 L64.4390 12.3920 "
       id="path1724" />
    <path
       d="M64.4390 12.3920 L78.9170 12.3920 "
       id="path1726" />
    <path
       d="M39.3942 43.1707 L24.9696 44.4126 "
       id="path1728" />
    <path
       d="M38.1383 28.8155 L39.3942 43.1707 "
       id="path1730" />
    <path
       d="M24.9696 44.4126 L23.7154 30.0774 "
       id="path1732" />
    <path
       d="M23.7154 30.0774 L38.1383 28.8155 "
       id="path1734" />
    <path
       d="M41.0400 62.1909 L26.6154 63.4328 "
       id="path1736" />
    <path
       d="M39.7841 47.8358 L41.0400 62.1909 "
       id="path1738" />
    <path
       d="M26.6154 63.4328 L25.3612 49.0976 "
       id="path1740" />
    <path
       d="M25.3612 49.0976 L39.7841 47.8358 "
       id="path1742" />
    <path
       d="M58.7216 37.3671 L44.2624 38.1048 "
       id="path1744" />
    <path
       d="M57.9674 22.9768 L58.7216 37.3671 "
       id="path1746" />
    <path
       d="M44.2624 38.1048 L43.5092 23.7345 "
       id="path1748" />
    <path
       d="M43.5092 23.7345 L57.9674 22.9768 "
       id="path1750" />
    <path
       d="M82.7350 86.0000 L68.2570 85.9800 "
       id="path1752" />
    <path
       d="M82.7350 71.5900 L82.7350 86.0000 "
       id="path1754" />
    <path
       d="M68.2570 85.9800 L68.2570 71.5900 "
       id="path1756" />
    <path
       d="M68.2570 71.5900 L82.7350 71.5900 "
       id="path1758" />
    <path
       d="M59.7322 56.4207 L45.2730 57.1584 "
       id="path1760" />
    <path
       d="M58.9780 42.0304 L59.7322 56.4207 "
       id="path1762" />
    <path
       d="M45.2730 57.1584 L44.5199 42.7882 "
       id="path1764" />
    <path
       d="M44.5199 42.7882 L58.9780 42.0304 "
       id="path1766" />
    <g
       id="g1768" />
    <g
       id="g1770" />
    <g
       id="g1772" />
    <g
       id="g1774" />
    <g
       id="g1776" />
    <g
       id="g1778" />
    <g
       id="g1780" />
    <g
       id="g1782" />
    <g
       id="g1784" />
    <g
       id="g1786" />
    <g
       id="g1788" />
    <g
       id="g1790" />
    <g
       id="g1792" />
    <g
       id="g1794" />
    <g
       id="g1796" />
    <g
       id="g1798" />
    <g
       id="g1800" />
    <g
       id="g1802" />
    <g
       id="g1804" />
    <g
       id="g1806" />
  </g>
  <metadata
     id="metadata1816">
    <rdf:RDF>
      <cc:Work
         rdf:about="">
        <dc:title>SVG Image created as wired-plate-brd.svg date 2023/02/23 12:17:35 </dc:title>
      </cc:Work>
    </rdf:RDF>
  </metadata>
</svg>
