  0
SECTION
  2
HEADER
  9
$ACADVER
  1
AC1014
  9
$HANDSEED
  5
FFFF
  9
$INSUNITS
 70
     4
  9
$MEASUREMENT
 70
     1
  0
ENDSEC
  0
SECTION
  2
TABLES
  0
TABLE
  2
VPORT
  5
8
330
0
100
AcDbSymbolTable
 70
     4
  0
VPORT
  5
2E
330
8
100
AcDbSymbolTableRecord
100
AcDbViewportTableRecord
  2
*ACTIVE
 70
     0
 10
0.0
 20
0.0
 11
1.0
 21
1.0
 12
210.0
 22
148.5
 13
0.0
 23
0.0
 14
10.0
 24
10.0
 15
10.0
 25
10.0
 16
0.0
 26
0.0
 36
1.0
 17
0.0
 27
0.0
 37
0.0
 40
341.0
 41
1.24
 42
50.0
 43
0.0
 44
0.0
 50
0.0
 51
0.0
 71
     0
 72
   100
 73
     1
 74
     3
 75
     0
 76
     0
 77
     0
 78
     0
  0
ENDTAB
  0
TABLE
  2
LTYPE
  5
5
330
0
100
AcDbSymbolTable
 70
     1
  0
LTYPE
  5
14
330
5
100
AcDbSymbolTableRecord
100
AcDbLinetypeTableRecord
  2
BYBLOCK
 70
     0
  3

 72
    65
 73
     0
 40
0.0
  0
LTYPE
  5
15
330
5
100
AcDbSymbolTableRecord
100
AcDbLinetypeTableRecord
  2
BYLAYER
 70
     0
  3

 72
    65
 73
     0
 40
0.0
  0
LTYPE
  5
16
330
5
100
AcDbSymbolTableRecord
100
AcDbLinetypeTableRecord
  2
CONTINUOUS
 70
     0
  3
Solid line
 72
    65
 73
     0
 40
0.0
  0
ENDTAB
  0
TABLE
  2
LAYER
  5
2
100
AcDbSymbolTable
 70
1
  0
LAYER
  5
50
100
AcDbSymbolTableRecord
100
AcDbLayerTableRecord
  2
0
 70
0
  6
CONTINUOUS
  0
ENDTAB
  0
TABLE
  2
STYLE
  5
3
330
0
100
AcDbSymbolTable
 70
     1
  0
STYLE
  5
11
330
3
100
AcDbSymbolTableRecord
100
AcDbTextStyleTableRecord
  2
STANDARD
 70
     0
 40
0.0
 41
1.0
 50
0.0
 71
     0
 42
2.5
  3
txt
  4

  0
ENDTAB
  0
TABLE
  2
VIEW
  5
6
330
0
100
AcDbSymbolTable
 70
     0
  0
ENDTAB
  0
TABLE
  2
UCS
  5
7
330
0
100
AcDbSymbolTable
 70
     0
  0
ENDTAB
  0
TABLE
  2
APPID
  5
9
330
0
100
AcDbSymbolTable
 70
     2
  0
APPID
  5
12
330
9
100
AcDbSymbolTableRecord
100
AcDbRegAppTableRecord
  2
ACAD
 70
     0
  0
ENDTAB
  0
TABLE
  2
DIMSTYLE
  5
A
330
0
100
AcDbSymbolTable
 70
     1
  0
DIMSTYLE
105
27
330
A
100
AcDbSymbolTableRecord
100
AcDbDimStyleTableRecord
  2
ISO-25
 70
     0
  3

  4

  5

  6

  7

 40
1.0
 41
2.5
 42
0.625
 43
3.75
 44
1.25
 45
0.0
 46
0.0
 47
0.0
 48
0.0
140
2.5
141
2.5
142
0.0
143
0.03937007874016
144
1.0
145
0.0
146
1.0
147
0.625
 71
     0
 72
     0
 73
     0
 74
     0
 75
     0
 76
     0
 77
     1
 78
     8
170
     0
171
     3
172
     1
173
     0
174
     0
175
     0
176
     0
177
     0
178
     0
270
     2
271
     2
272
     2
273
     2
274
     3
340
11
275
     0
280
     0
281
     0
282
     0
283
     0
284
     8
285
     0
286
     0
287
     3
288
     0
  0
ENDTAB
  0
TABLE
  2
BLOCK_RECORD
  5
1
330
0
100
AcDbSymbolTable
 70
     1
  0
BLOCK_RECORD
  5
1F
330
1
100
AcDbSymbolTableRecord
100
AcDbBlockTableRecord
  2
*MODEL_SPACE
  0
BLOCK_RECORD
  5
1B
330
1
100
AcDbSymbolTableRecord
100
AcDbBlockTableRecord
  2
*PAPER_SPACE
  0
ENDTAB
  0
ENDSEC
  0
SECTION
  2
BLOCKS
  0
BLOCK
  5
20
330
1F
100
AcDbEntity
  8
0
100
AcDbBlockBegin
  2
*MODEL_SPACE
 70
     0
 10
0.0
 20
0.0
 30
0.0
  3
*MODEL_SPACE
  1

  0
ENDBLK
  5
21
330
1F
100
AcDbEntity
  8
0
100
AcDbBlockEnd
  0
BLOCK
  5
1C
330
1B
100
AcDbEntity
 67
     1
  8
0
100
AcDbBlockBegin
  2
*PAPER_SPACE
  1

  0
ENDBLK
  5
1D
330
1B
100
AcDbEntity
 67
     1
  8
0
100
AcDbBlockEnd
  0
ENDSEC
  0
SECTION
  2
ENTITIES
  0
LINE
  5
100
100
AcDbEntity
  8
0
 62
7
100
AcDbLine
 10
81.383400
 20
23.621300
 30
0.0
 11
61.980100
 21
23.616800
 31
0.0
  0
LINE
  5
101
100
AcDbEntity
  8
0
 62
7
100
AcDbLine
 10
81.375800
 20
43.011300
 30
0.0
 11
81.383400
 21
23.621300
 31
0.0
  0
LINE
  5
102
100
AcDbEntity
  8
0
 62
7
100
AcDbLine
 10
81.375800
 20
43.011300
 30
0.0
 11
61.973100
 21
43.020400
 31
0.0
  0
LINE
  5
103
100
AcDbEntity
  8
0
 62
7
100
AcDbLine
 10
61.980100
 20
23.616800
 30
0.0
 11
61.973100
 21
43.020400
 31
0.0
  0
LINE
  5
104
100
AcDbEntity
  8
0
 62
7
100
AcDbLine
 10
24.115400
 20
30.247900
 30
0.0
 11
5.007700
 21
26.874100
 31
0.0
  0
LINE
  5
105
100
AcDbEntity
  8
0
 62
7
100
AcDbLine
 10
20.740900
 20
49.342000
 30
0.0
 11
24.115400
 21
30.247900
 31
0.0
  0
LINE
  5
106
100
AcDbEntity
  8
0
 62
7
100
AcDbLine
 10
20.740900
 20
49.342000
 30
0.0
 11
1.631400
 21
45.981700
 31
0.0
  0
LINE
  5
107
100
AcDbEntity
  8
0
 62
7
100
AcDbLine
 10
5.007700
 20
26.874100
 30
0.0
 11
1.631400
 21
45.981700
 31
0.0
  0
LINE
  5
108
100
AcDbEntity
  8
0
 62
7
100
AcDbLine
 10
104.251400
 20
0.491300
 30
0.0
 11
84.848100
 21
0.486800
 31
0.0
  0
LINE
  5
109
100
AcDbEntity
  8
0
 62
7
100
AcDbLine
 10
104.243800
 20
19.881300
 30
0.0
 11
104.251400
 21
0.491300
 31
0.0
  0
LINE
  5
10a
100
AcDbEntity
  8
0
 62
7
100
AcDbLine
 10
104.243800
 20
19.881300
 30
0.0
 11
84.841100
 21
19.890400
 31
0.0
  0
LINE
  5
10b
100
AcDbEntity
  8
0
 62
7
100
AcDbLine
 10
84.848100
 20
0.486800
 30
0.0
 11
84.841100
 21
19.890400
 31
0.0
  0
LINE
  5
10c
100
AcDbEntity
  8
0
 62
7
100
AcDbLine
 10
81.383400
 20
42.671300
 30
0.0
 11
61.980100
 21
42.666800
 31
0.0
  0
LINE
  5
10d
100
AcDbEntity
  8
0
 62
7
100
AcDbLine
 10
81.375800
 20
62.061300
 30
0.0
 11
81.383400
 21
42.671300
 31
0.0
  0
LINE
  5
10e
100
AcDbEntity
  8
0
 62
7
100
AcDbLine
 10
81.375800
 20
62.061300
 30
0.0
 11
61.973100
 21
62.070400
 31
0.0
  0
LINE
  5
10f
100
AcDbEntity
  8
0
 62
7
100
AcDbLine
 10
61.980100
 20
42.666800
 30
0.0
 11
61.973100
 21
62.070400
 31
0.0
  0
LINE
  5
110
100
AcDbEntity
  8
0
 62
7
100
AcDbLine
 10
100.433400
 20
52.085300
 30
0.0
 11
81.030100
 21
52.080800
 31
0.0
  0
LINE
  5
111
100
AcDbEntity
  8
0
 62
7
100
AcDbLine
 10
100.425800
 20
71.475300
 30
0.0
 11
100.433400
 21
52.085300
 31
0.0
  0
LINE
  5
112
100
AcDbEntity
  8
0
 62
7
100
AcDbLine
 10
100.425800
 20
71.475300
 30
0.0
 11
81.023100
 21
71.484400
 31
0.0
  0
LINE
  5
113
100
AcDbEntity
  8
0
 62
7
100
AcDbLine
 10
81.030100
 20
52.080800
 30
0.0
 11
81.023100
 21
71.484400
 31
0.0
  0
LINE
  5
114
100
AcDbEntity
  8
0
 62
7
100
AcDbLine
 10
60.295500
 20
70.338500
 30
0.0
 11
40.919000
 21
69.318600
 31
0.0
  0
LINE
  5
115
100
AcDbEntity
  8
0
 62
7
100
AcDbLine
 10
59.273100
 20
89.701500
 30
0.0
 11
60.295500
 21
70.338500
 31
0.0
  0
LINE
  5
116
100
AcDbEntity
  8
0
 62
7
100
AcDbLine
 10
59.273100
 20
89.701500
 30
0.0
 11
39.896500
 21
88.695100
 31
0.0
  0
LINE
  5
117
100
AcDbEntity
  8
0
 62
7
100
AcDbLine
 10
40.919000
 20
69.318600
 30
0.0
 11
39.896500
 21
88.695100
 31
0.0
  0
LINE
  5
118
100
AcDbEntity
  8
0
 62
7
100
AcDbLine
 10
100.433400
 20
33.035300
 30
0.0
 11
81.030100
 21
33.030800
 31
0.0
  0
LINE
  5
119
100
AcDbEntity
  8
0
 62
7
100
AcDbLine
 10
100.425800
 20
52.425300
 30
0.0
 11
100.433400
 21
33.035300
 31
0.0
  0
LINE
  5
11a
100
AcDbEntity
  8
0
 62
7
100
AcDbLine
 10
100.425800
 20
52.425300
 30
0.0
 11
81.023100
 21
52.434400
 31
0.0
  0
LINE
  5
11b
100
AcDbEntity
  8
0
 62
7
100
AcDbLine
 10
81.030100
 20
33.030800
 30
0.0
 11
81.023100
 21
52.434400
 31
0.0
  0
LINE
  5
11c
100
AcDbEntity
  8
0
 62
7
100
AcDbLine
 10
20.813400
 20
49.043900
 30
0.0
 11
1.705700
 21
45.670100
 31
0.0
  0
LINE
  5
11d
100
AcDbEntity
  8
0
 62
7
100
AcDbLine
 10
17.438900
 20
68.138000
 30
0.0
 11
20.813400
 21
49.043900
 31
0.0
  0
LINE
  5
11e
100
AcDbEntity
  8
0
 62
7
100
AcDbLine
 10
17.438900
 20
68.138000
 30
0.0
 11
-1.670600
 21
64.777700
 31
0.0
  0
LINE
  5
11f
100
AcDbEntity
  8
0
 62
7
100
AcDbLine
 10
1.705700
 20
45.670100
 30
0.0
 11
-1.670600
 21
64.777700
 31
0.0
  0
LINE
  5
120
100
AcDbEntity
  8
0
 62
7
100
AcDbLine
 10
40.397400
 20
64.604000
 30
0.0
 11
21.068300
 21
62.908500
 31
0.0
  0
LINE
  5
121
100
AcDbEntity
  8
0
 62
7
100
AcDbLine
 10
38.699900
 20
83.919600
 30
0.0
 11
40.397400
 21
64.604000
 31
0.0
  0
LINE
  5
122
100
AcDbEntity
  8
0
 62
7
100
AcDbLine
 10
38.699900
 20
83.919600
 30
0.0
 11
19.370200
 21
82.237600
 31
0.0
  0
LINE
  5
123
100
AcDbEntity
  8
0
 62
7
100
AcDbLine
 10
21.068300
 20
62.908500
 30
0.0
 11
19.370200
 21
82.237600
 31
0.0
  0
LINE
  5
124
100
AcDbEntity
  8
0
 62
7
100
AcDbLine
 10
81.383400
 20
61.721300
 30
0.0
 11
61.980100
 21
61.716800
 31
0.0
  0
LINE
  5
125
100
AcDbEntity
  8
0
 62
7
100
AcDbLine
 10
81.375800
 20
81.111300
 30
0.0
 11
81.383400
 21
61.721300
 31
0.0
  0
LINE
  5
126
100
AcDbEntity
  8
0
 62
7
100
AcDbLine
 10
81.375800
 20
81.111300
 30
0.0
 11
61.973100
 21
81.120400
 31
0.0
  0
LINE
  5
127
100
AcDbEntity
  8
0
 62
7
100
AcDbLine
 10
61.980100
 20
61.716800
 30
0.0
 11
61.973100
 21
81.120400
 31
0.0
  0
LINE
  5
128
100
AcDbEntity
  8
0
 62
7
100
AcDbLine
 10
42.067800
 20
45.577000
 30
0.0
 11
22.738700
 21
43.881400
 31
0.0
  0
LINE
  5
129
100
AcDbEntity
  8
0
 62
7
100
AcDbLine
 10
40.370300
 20
64.892500
 30
0.0
 11
42.067800
 21
45.577000
 31
0.0
  0
LINE
  5
12a
100
AcDbEntity
  8
0
 62
7
100
AcDbLine
 10
40.370300
 20
64.892500
 30
0.0
 11
21.040600
 21
63.210500
 31
0.0
  0
LINE
  5
12b
100
AcDbEntity
  8
0
 62
7
100
AcDbLine
 10
22.738700
 20
43.881400
 30
0.0
 11
21.040600
 21
63.210500
 31
0.0
  0
LINE
  5
12c
100
AcDbEntity
  8
0
 62
7
100
AcDbLine
 10
43.713600
 20
26.556800
 30
0.0
 11
24.384500
 21
24.861200
 31
0.0
  0
LINE
  5
12d
100
AcDbEntity
  8
0
 62
7
100
AcDbLine
 10
42.016000
 20
45.872300
 30
0.0
 11
43.713600
 21
26.556800
 31
0.0
  0
LINE
  5
12e
100
AcDbEntity
  8
0
 62
7
100
AcDbLine
 10
42.016000
 20
45.872300
 30
0.0
 11
22.686400
 21
44.190300
 31
0.0
  0
LINE
  5
12f
100
AcDbEntity
  8
0
 62
7
100
AcDbLine
 10
24.384500
 20
24.861200
 30
0.0
 11
22.686400
 21
44.190300
 31
0.0
  0
LINE
  5
130
100
AcDbEntity
  8
0
 62
7
100
AcDbLine
 10
61.314600
 20
51.288700
 30
0.0
 11
41.938100
 21
50.268800
 31
0.0
  0
LINE
  5
131
100
AcDbEntity
  8
0
 62
7
100
AcDbLine
 10
60.292200
 20
70.651700
 30
0.0
 11
61.314600
 21
51.288700
 31
0.0
  0
LINE
  5
132
100
AcDbEntity
  8
0
 62
7
100
AcDbLine
 10
60.292200
 20
70.651700
 30
0.0
 11
40.915600
 21
69.645300
 31
0.0
  0
LINE
  5
133
100
AcDbEntity
  8
0
 62
7
100
AcDbLine
 10
41.938100
 20
50.268800
 30
0.0
 11
40.915600
 21
69.645300
 31
0.0
  0
LINE
  5
134
100
AcDbEntity
  8
0
 62
7
100
AcDbLine
 10
85.201400
 20
2.523300
 30
0.0
 11
65.798100
 21
2.518800
 31
0.0
  0
LINE
  5
135
100
AcDbEntity
  8
0
 62
7
100
AcDbLine
 10
85.193800
 20
21.913300
 30
0.0
 11
85.201400
 21
2.523300
 31
0.0
  0
LINE
  5
136
100
AcDbEntity
  8
0
 62
7
100
AcDbLine
 10
85.193800
 20
21.913300
 30
0.0
 11
65.791100
 21
21.922400
 31
0.0
  0
LINE
  5
137
100
AcDbEntity
  8
0
 62
7
100
AcDbLine
 10
65.798100
 20
2.518800
 30
0.0
 11
65.791100
 21
21.922400
 31
0.0
  0
LINE
  5
138
100
AcDbEntity
  8
0
 62
7
100
AcDbLine
 10
62.325200
 20
32.235100
 30
0.0
 11
42.948800
 21
31.215100
 31
0.0
  0
LINE
  5
139
100
AcDbEntity
  8
0
 62
7
100
AcDbLine
 10
61.302800
 20
51.598100
 30
0.0
 11
62.325200
 21
32.235100
 31
0.0
  0
LINE
  5
13a
100
AcDbEntity
  8
0
 62
7
100
AcDbLine
 10
61.302800
 20
51.598100
 30
0.0
 11
41.926300
 21
50.591700
 31
0.0
  0
LINE
  5
13b
100
AcDbEntity
  8
0
 62
7
100
AcDbLine
 10
42.948800
 20
31.215100
 30
0.0
 11
41.926300
 21
50.591700
 31
0.0
  0
SPLINE
  5
13c
100
AcDbEntity
  8
0
 62
7
100
AcDbSpline
 70
8
 71
3
 72
8
 73
4
 74
0
 40
0
 40
0
 40
0
 40
0
 40
1
 40
1
 40
1
 40
1
 10
11.931500
 20
85.393400
 30
0.0
 10
11.242337
 20
85.393400
 30
0.0
 10
10.621033
 20
84.978258
 30
0.0
 10
10.357302
 20
84.341554
 30
0.0
  0
SPLINE
  5
13d
100
AcDbEntity
  8
0
 62
7
100
AcDbSpline
 70
8
 71
3
 72
8
 73
4
 74
0
 40
0
 40
0
 40
0
 40
0
 40
1
 40
1
 40
1
 40
1
 10
10.357302
 20
84.341554
 30
0.0
 10
10.093570
 20
83.704851
 30
0.0
 10
10.239349
 20
82.971973
 30
0.0
 10
10.726661
 20
82.484661
 30
0.0
  0
SPLINE
  5
13e
100
AcDbEntity
  8
0
 62
7
100
AcDbSpline
 70
8
 71
3
 72
8
 73
4
 74
0
 40
0
 40
0
 40
0
 40
0
 40
1
 40
1
 40
1
 40
1
 10
10.726661
 20
82.484661
 30
0.0
 10
11.213973
 20
81.997349
 30
0.0
 10
11.946851
 20
81.851570
 30
0.0
 10
12.583554
 20
82.115302
 30
0.0
  0
SPLINE
  5
13f
100
AcDbEntity
  8
0
 62
7
100
AcDbSpline
 70
8
 71
3
 72
8
 73
4
 74
0
 40
0
 40
0
 40
0
 40
0
 40
1
 40
1
 40
1
 40
1
 10
12.583554
 20
82.115302
 30
0.0
 10
13.220258
 20
82.379033
 30
0.0
 10
13.635400
 20
83.000337
 30
0.0
 10
13.635400
 20
83.689500
 30
0.0
  0
SPLINE
  5
140
100
AcDbEntity
  8
0
 62
7
100
AcDbSpline
 70
8
 71
3
 72
8
 73
4
 74
0
 40
0
 40
0
 40
0
 40
0
 40
1
 40
1
 40
1
 40
1
 10
13.635400
 20
83.689500
 30
0.0
 10
13.635400
 20
84.141402
 30
0.0
 10
13.455882
 20
84.574796
 30
0.0
 10
13.136339
 20
84.894339
 30
0.0
  0
SPLINE
  5
141
100
AcDbEntity
  8
0
 62
7
100
AcDbSpline
 70
8
 71
3
 72
8
 73
4
 74
0
 40
0
 40
0
 40
0
 40
0
 40
1
 40
1
 40
1
 40
1
 10
13.136339
 20
84.894339
 30
0.0
 10
12.816796
 20
85.213882
 30
0.0
 10
12.383402
 20
85.393400
 30
0.0
 10
11.931500
 20
85.393400
 30
0.0
  0
LINE
  5
142
100
AcDbEntity
  8
0
 62
7
100
AcDbLine
 10
11.931500
 20
85.393400
 30
0.0
 11
11.931500
 21
85.393400
 31
0.0
  0
SPLINE
  5
143
100
AcDbEntity
  8
0
 62
7
100
AcDbSpline
 70
8
 71
3
 72
8
 73
4
 74
0
 40
0
 40
0
 40
0
 40
0
 40
1
 40
1
 40
1
 40
1
 10
43.427500
 20
45.709400
 30
0.0
 10
42.968071
 20
45.709400
 30
0.0
 10
42.553881
 20
45.432647
 30
0.0
 10
42.378065
 20
45.008190
 30
0.0
  0
SPLINE
  5
144
100
AcDbEntity
  8
0
 62
7
100
AcDbSpline
 70
8
 71
3
 72
8
 73
4
 74
0
 40
0
 40
0
 40
0
 40
0
 40
1
 40
1
 40
1
 40
1
 10
42.378065
 20
45.008190
 30
0.0
 10
42.202250
 20
44.583733
 30
0.0
 10
42.299432
 20
44.095163
 30
0.0
 10
42.624297
 20
43.770297
 30
0.0
  0
SPLINE
  5
145
100
AcDbEntity
  8
0
 62
7
100
AcDbSpline
 70
8
 71
3
 72
8
 73
4
 74
0
 40
0
 40
0
 40
0
 40
0
 40
1
 40
1
 40
1
 40
1
 10
42.624297
 20
43.770297
 30
0.0
 10
42.949163
 20
43.445432
 30
0.0
 10
43.437733
 20
43.348250
 30
0.0
 10
43.862190
 20
43.524065
 30
0.0
  0
SPLINE
  5
146
100
AcDbEntity
  8
0
 62
7
100
AcDbSpline
 70
8
 71
3
 72
8
 73
4
 74
0
 40
0
 40
0
 40
0
 40
0
 40
1
 40
1
 40
1
 40
1
 10
43.862190
 20
43.524065
 30
0.0
 10
44.286647
 20
43.699881
 30
0.0
 10
44.563400
 20
44.114071
 30
0.0
 10
44.563400
 20
44.573500
 30
0.0
  0
SPLINE
  5
147
100
AcDbEntity
  8
0
 62
7
100
AcDbSpline
 70
8
 71
3
 72
8
 73
4
 74
0
 40
0
 40
0
 40
0
 40
0
 40
1
 40
1
 40
1
 40
1
 10
44.563400
 20
44.573500
 30
0.0
 10
44.563400
 20
44.874759
 30
0.0
 10
44.443725
 20
45.163680
 30
0.0
 10
44.230703
 20
45.376703
 30
0.0
  0
SPLINE
  5
148
100
AcDbEntity
  8
0
 62
7
100
AcDbSpline
 70
8
 71
3
 72
8
 73
4
 74
0
 40
0
 40
0
 40
0
 40
0
 40
1
 40
1
 40
1
 40
1
 10
44.230703
 20
45.376703
 30
0.0
 10
44.017680
 20
45.589725
 30
0.0
 10
43.728759
 20
45.709400
 30
0.0
 10
43.427500
 20
45.709400
 30
0.0
  0
LINE
  5
149
100
AcDbEntity
  8
0
 62
7
100
AcDbLine
 10
43.427500
 20
45.709400
 30
0.0
 11
43.427500
 21
45.709400
 31
0.0
  0
SPLINE
  5
14a
100
AcDbEntity
  8
0
 62
7
100
AcDbSpline
 70
8
 71
3
 72
8
 73
4
 74
0
 40
0
 40
0
 40
0
 40
0
 40
1
 40
1
 40
1
 40
1
 10
81.527500
 20
45.651100
 30
0.0
 10
80.932358
 20
45.651100
 30
0.0
 10
80.449900
 20
45.168642
 30
0.0
 10
80.449900
 20
44.573500
 30
0.0
  0
SPLINE
  5
14b
100
AcDbEntity
  8
0
 62
7
100
AcDbSpline
 70
8
 71
3
 72
8
 73
4
 74
0
 40
0
 40
0
 40
0
 40
0
 40
1
 40
1
 40
1
 40
1
 10
80.449900
 20
44.573500
 30
0.0
 10
80.449900
 20
43.978358
 30
0.0
 10
80.932358
 20
43.495900
 30
0.0
 10
81.527500
 20
43.495900
 30
0.0
  0
SPLINE
  5
14c
100
AcDbEntity
  8
0
 62
7
100
AcDbSpline
 70
8
 71
3
 72
8
 73
4
 74
0
 40
0
 40
0
 40
0
 40
0
 40
1
 40
1
 40
1
 40
1
 10
81.527500
 20
43.495900
 30
0.0
 10
82.122642
 20
43.495900
 30
0.0
 10
82.605100
 20
43.978358
 30
0.0
 10
82.605100
 20
44.573500
 30
0.0
  0
SPLINE
  5
14d
100
AcDbEntity
  8
0
 62
7
100
AcDbSpline
 70
8
 71
3
 72
8
 73
4
 74
0
 40
0
 40
0
 40
0
 40
0
 40
1
 40
1
 40
1
 40
1
 10
82.605100
 20
44.573500
 30
0.0
 10
82.605100
 20
44.859297
 30
0.0
 10
82.491567
 20
45.133389
 30
0.0
 10
82.289478
 20
45.335478
 30
0.0
  0
SPLINE
  5
14e
100
AcDbEntity
  8
0
 62
7
100
AcDbSpline
 70
8
 71
3
 72
8
 73
4
 74
0
 40
0
 40
0
 40
0
 40
0
 40
1
 40
1
 40
1
 40
1
 10
82.289478
 20
45.335478
 30
0.0
 10
82.087389
 20
45.537567
 30
0.0
 10
81.813297
 20
45.651100
 30
0.0
 10
81.527500
 20
45.651100
 30
0.0
  0
LINE
  5
14f
100
AcDbEntity
  8
0
 62
7
100
AcDbLine
 10
81.527500
 20
45.651100
 30
0.0
 11
81.527500
 21
45.651100
 31
0.0
  0
SPLINE
  5
150
100
AcDbEntity
  8
0
 62
7
100
AcDbSpline
 70
8
 71
3
 72
8
 73
4
 74
0
 40
0
 40
0
 40
0
 40
0
 40
1
 40
1
 40
1
 40
1
 10
62.477500
 20
26.601100
 30
0.0
 10
62.041651
 20
26.601100
 30
0.0
 10
61.648719
 20
26.338551
 30
0.0
 10
61.481927
 20
25.935880
 30
0.0
  0
SPLINE
  5
151
100
AcDbEntity
  8
0
 62
7
100
AcDbSpline
 70
8
 71
3
 72
8
 73
4
 74
0
 40
0
 40
0
 40
0
 40
0
 40
1
 40
1
 40
1
 40
1
 10
61.481927
 20
25.935880
 30
0.0
 10
61.315135
 20
25.533208
 30
0.0
 10
61.407330
 20
25.069713
 30
0.0
 10
61.715522
 20
24.761522
 30
0.0
  0
SPLINE
  5
152
100
AcDbEntity
  8
0
 62
7
100
AcDbSpline
 70
8
 71
3
 72
8
 73
4
 74
0
 40
0
 40
0
 40
0
 40
0
 40
1
 40
1
 40
1
 40
1
 10
61.715522
 20
24.761522
 30
0.0
 10
62.023713
 20
24.453330
 30
0.0
 10
62.487208
 20
24.361135
 30
0.0
 10
62.889880
 20
24.527927
 30
0.0
  0
SPLINE
  5
153
100
AcDbEntity
  8
0
 62
7
100
AcDbSpline
 70
8
 71
3
 72
8
 73
4
 74
0
 40
0
 40
0
 40
0
 40
0
 40
1
 40
1
 40
1
 40
1
 10
62.889880
 20
24.527927
 30
0.0
 10
63.292551
 20
24.694719
 30
0.0
 10
63.555100
 20
25.087651
 30
0.0
 10
63.555100
 20
25.523500
 30
0.0
  0
SPLINE
  5
154
100
AcDbEntity
  8
0
 62
7
100
AcDbSpline
 70
8
 71
3
 72
8
 73
4
 74
0
 40
0
 40
0
 40
0
 40
0
 40
1
 40
1
 40
1
 40
1
 10
63.555100
 20
25.523500
 30
0.0
 10
63.555100
 20
25.809297
 30
0.0
 10
63.441567
 20
26.083389
 30
0.0
 10
63.239478
 20
26.285478
 30
0.0
  0
SPLINE
  5
155
100
AcDbEntity
  8
0
 62
7
100
AcDbSpline
 70
8
 71
3
 72
8
 73
4
 74
0
 40
0
 40
0
 40
0
 40
0
 40
1
 40
1
 40
1
 40
1
 10
63.239478
 20
26.285478
 30
0.0
 10
63.037389
 20
26.487567
 30
0.0
 10
62.763297
 20
26.601100
 30
0.0
 10
62.477500
 20
26.601100
 30
0.0
  0
LINE
  5
156
100
AcDbEntity
  8
0
 62
7
100
AcDbLine
 10
62.477500
 20
26.601100
 30
0.0
 11
62.477500
 21
26.601100
 31
0.0
  0
SPLINE
  5
157
100
AcDbEntity
  8
0
 62
7
100
AcDbSpline
 70
8
 71
3
 72
8
 73
4
 74
0
 40
0
 40
0
 40
0
 40
0
 40
1
 40
1
 40
1
 40
1
 10
3.678600
 20
85.128900
 30
0.0
 10
2.994735
 20
85.128900
 30
0.0
 10
2.378208
 20
84.716950
 30
0.0
 10
2.116504
 20
84.085141
 30
0.0
  0
SPLINE
  5
158
100
AcDbEntity
  8
0
 62
7
100
AcDbSpline
 70
8
 71
3
 72
8
 73
4
 74
0
 40
0
 40
0
 40
0
 40
0
 40
1
 40
1
 40
1
 40
1
 10
2.116504
 20
84.085141
 30
0.0
 10
1.854801
 20
83.453332
 30
0.0
 10
1.999458
 20
82.726089
 30
0.0
 10
2.483024
 20
82.242524
 30
0.0
  0
SPLINE
  5
159
100
AcDbEntity
  8
0
 62
7
100
AcDbSpline
 70
8
 71
3
 72
8
 73
4
 74
0
 40
0
 40
0
 40
0
 40
0
 40
1
 40
1
 40
1
 40
1
 10
2.483024
 20
82.242524
 30
0.0
 10
2.966589
 20
81.758958
 30
0.0
 10
3.693832
 20
81.614301
 30
0.0
 10
4.325641
 20
81.876004
 30
0.0
  0
SPLINE
  5
15a
100
AcDbEntity
  8
0
 62
7
100
AcDbSpline
 70
8
 71
3
 72
8
 73
4
 74
0
 40
0
 40
0
 40
0
 40
0
 40
1
 40
1
 40
1
 40
1
 10
4.325641
 20
81.876004
 30
0.0
 10
4.957450
 20
82.137708
 30
0.0
 10
5.369400
 20
82.754235
 30
0.0
 10
5.369400
 20
83.438100
 30
0.0
  0
SPLINE
  5
15b
100
AcDbEntity
  8
0
 62
7
100
AcDbSpline
 70
8
 71
3
 72
8
 73
4
 74
0
 40
0
 40
0
 40
0
 40
0
 40
1
 40
1
 40
1
 40
1
 10
5.369400
 20
83.438100
 30
0.0
 10
5.369400
 20
83.886528
 30
0.0
 10
5.191263
 20
84.316590
 30
0.0
 10
4.874176
 20
84.633676
 30
0.0
  0
SPLINE
  5
15c
100
AcDbEntity
  8
0
 62
7
100
AcDbSpline
 70
8
 71
3
 72
8
 73
4
 74
0
 40
0
 40
0
 40
0
 40
0
 40
1
 40
1
 40
1
 40
1
 10
4.874176
 20
84.633676
 30
0.0
 10
4.557090
 20
84.950763
 30
0.0
 10
4.127028
 20
85.128900
 30
0.0
 10
3.678600
 20
85.128900
 30
0.0
  0
LINE
  5
15d
100
AcDbEntity
  8
0
 62
7
100
AcDbLine
 10
3.678600
 20
85.128900
 30
0.0
 11
3.678600
 21
85.128900
 31
0.0
  0
SPLINE
  5
15e
100
AcDbEntity
  8
0
 62
7
100
AcDbSpline
 70
8
 71
3
 72
8
 73
4
 74
0
 40
0
 40
0
 40
0
 40
0
 40
1
 40
1
 40
1
 40
1
 10
75.684100
 20
88.181100
 30
0.0
 10
75.000235
 20
88.181100
 30
0.0
 10
74.383708
 20
87.769150
 30
0.0
 10
74.122004
 20
87.137341
 30
0.0
  0
SPLINE
  5
15f
100
AcDbEntity
  8
0
 62
7
100
AcDbSpline
 70
8
 71
3
 72
8
 73
4
 74
0
 40
0
 40
0
 40
0
 40
0
 40
1
 40
1
 40
1
 40
1
 10
74.122004
 20
87.137341
 30
0.0
 10
73.860301
 20
86.505532
 30
0.0
 10
74.004958
 20
85.778289
 30
0.0
 10
74.488524
 20
85.294724
 30
0.0
  0
SPLINE
  5
160
100
AcDbEntity
  8
0
 62
7
100
AcDbSpline
 70
8
 71
3
 72
8
 73
4
 74
0
 40
0
 40
0
 40
0
 40
0
 40
1
 40
1
 40
1
 40
1
 10
74.488524
 20
85.294724
 30
0.0
 10
74.972089
 20
84.811158
 30
0.0
 10
75.699332
 20
84.666501
 30
0.0
 10
76.331141
 20
84.928204
 30
0.0
  0
SPLINE
  5
161
100
AcDbEntity
  8
0
 62
7
100
AcDbSpline
 70
8
 71
3
 72
8
 73
4
 74
0
 40
0
 40
0
 40
0
 40
0
 40
1
 40
1
 40
1
 40
1
 10
76.331141
 20
84.928204
 30
0.0
 10
76.962950
 20
85.189908
 30
0.0
 10
77.374900
 20
85.806435
 30
0.0
 10
77.374900
 20
86.490300
 30
0.0
  0
SPLINE
  5
162
100
AcDbEntity
  8
0
 62
7
100
AcDbSpline
 70
8
 71
3
 72
8
 73
4
 74
0
 40
0
 40
0
 40
0
 40
0
 40
1
 40
1
 40
1
 40
1
 10
77.374900
 20
86.490300
 30
0.0
 10
77.374900
 20
86.938728
 30
0.0
 10
77.196763
 20
87.368790
 30
0.0
 10
76.879676
 20
87.685876
 30
0.0
  0
SPLINE
  5
163
100
AcDbEntity
  8
0
 62
7
100
AcDbSpline
 70
8
 71
3
 72
8
 73
4
 74
0
 40
0
 40
0
 40
0
 40
0
 40
1
 40
1
 40
1
 40
1
 10
76.879676
 20
87.685876
 30
0.0
 10
76.562590
 20
88.002963
 30
0.0
 10
76.132528
 20
88.181100
 30
0.0
 10
75.684100
 20
88.181100
 30
0.0
  0
LINE
  5
164
100
AcDbEntity
  8
0
 62
7
100
AcDbLine
 10
75.684100
 20
88.181100
 30
0.0
 11
75.684100
 21
88.181100
 31
0.0
  0
SPLINE
  5
165
100
AcDbEntity
  8
0
 62
7
100
AcDbSpline
 70
8
 71
3
 72
8
 73
4
 74
0
 40
0
 40
0
 40
0
 40
0
 40
1
 40
1
 40
1
 40
1
 10
120.783600
 20
14.756100
 30
0.0
 10
120.099735
 20
14.756100
 30
0.0
 10
119.483208
 20
14.344150
 30
0.0
 10
119.221504
 20
13.712341
 30
0.0
  0
SPLINE
  5
166
100
AcDbEntity
  8
0
 62
7
100
AcDbSpline
 70
8
 71
3
 72
8
 73
4
 74
0
 40
0
 40
0
 40
0
 40
0
 40
1
 40
1
 40
1
 40
1
 10
119.221504
 20
13.712341
 30
0.0
 10
118.959801
 20
13.080532
 30
0.0
 10
119.104458
 20
12.353289
 30
0.0
 10
119.588024
 20
11.869724
 30
0.0
  0
SPLINE
  5
167
100
AcDbEntity
  8
0
 62
7
100
AcDbSpline
 70
8
 71
3
 72
8
 73
4
 74
0
 40
0
 40
0
 40
0
 40
0
 40
1
 40
1
 40
1
 40
1
 10
119.588024
 20
11.869724
 30
0.0
 10
120.071589
 20
11.386158
 30
0.0
 10
120.798832
 20
11.241501
 30
0.0
 10
121.430641
 20
11.503204
 30
0.0
  0
SPLINE
  5
168
100
AcDbEntity
  8
0
 62
7
100
AcDbSpline
 70
8
 71
3
 72
8
 73
4
 74
0
 40
0
 40
0
 40
0
 40
0
 40
1
 40
1
 40
1
 40
1
 10
121.430641
 20
11.503204
 30
0.0
 10
122.062450
 20
11.764908
 30
0.0
 10
122.474400
 20
12.381435
 30
0.0
 10
122.474400
 20
13.065300
 30
0.0
  0
SPLINE
  5
169
100
AcDbEntity
  8
0
 62
7
100
AcDbSpline
 70
8
 71
3
 72
8
 73
4
 74
0
 40
0
 40
0
 40
0
 40
0
 40
1
 40
1
 40
1
 40
1
 10
122.474400
 20
13.065300
 30
0.0
 10
122.474400
 20
13.513728
 30
0.0
 10
122.296263
 20
13.943790
 30
0.0
 10
121.979176
 20
14.260876
 30
0.0
  0
SPLINE
  5
16a
100
AcDbEntity
  8
0
 62
7
100
AcDbSpline
 70
8
 71
3
 72
8
 73
4
 74
0
 40
0
 40
0
 40
0
 40
0
 40
1
 40
1
 40
1
 40
1
 10
121.979176
 20
14.260876
 30
0.0
 10
121.662090
 20
14.577963
 30
0.0
 10
121.232028
 20
14.756100
 30
0.0
 10
120.783600
 20
14.756100
 30
0.0
  0
LINE
  5
16b
100
AcDbEntity
  8
0
 62
7
100
AcDbLine
 10
120.783600
 20
14.756100
 30
0.0
 11
120.783600
 21
14.756100
 31
0.0
  0
SPLINE
  5
16c
100
AcDbEntity
  8
0
 62
7
100
AcDbSpline
 70
8
 71
3
 72
8
 73
4
 74
0
 40
0
 40
0
 40
0
 40
0
 40
1
 40
1
 40
1
 40
1
 10
8.586000
 20
8.303500
 30
0.0
 10
8.055629
 20
8.303500
 30
0.0
 10
7.577481
 20
7.984012
 30
0.0
 10
7.374517
 20
7.494013
 30
0.0
  0
SPLINE
  5
16d
100
AcDbEntity
  8
0
 62
7
100
AcDbSpline
 70
8
 71
3
 72
8
 73
4
 74
0
 40
0
 40
0
 40
0
 40
0
 40
1
 40
1
 40
1
 40
1
 10
7.374517
 20
7.494013
 30
0.0
 10
7.171552
 20
7.004014
 30
0.0
 10
7.283742
 20
6.440000
 30
0.0
 10
7.658771
 20
6.064971
 30
0.0
  0
SPLINE
  5
16e
100
AcDbEntity
  8
0
 62
7
100
AcDbSpline
 70
8
 71
3
 72
8
 73
4
 74
0
 40
0
 40
0
 40
0
 40
0
 40
1
 40
1
 40
1
 40
1
 10
7.658771
 20
6.064971
 30
0.0
 10
8.033800
 20
5.689942
 30
0.0
 10
8.597814
 20
5.577752
 30
0.0
 10
9.087813
 20
5.780717
 30
0.0
  0
SPLINE
  5
16f
100
AcDbEntity
  8
0
 62
7
100
AcDbSpline
 70
8
 71
3
 72
8
 73
4
 74
0
 40
0
 40
0
 40
0
 40
0
 40
1
 40
1
 40
1
 40
1
 10
9.087813
 20
5.780717
 30
0.0
 10
9.577812
 20
5.983681
 30
0.0
 10
9.897300
 20
6.461829
 30
0.0
 10
9.897300
 20
6.992200
 30
0.0
  0
SPLINE
  5
170
100
AcDbEntity
  8
0
 62
7
100
AcDbSpline
 70
8
 71
3
 72
8
 73
4
 74
0
 40
0
 40
0
 40
0
 40
0
 40
1
 40
1
 40
1
 40
1
 10
9.897300
 20
6.992200
 30
0.0
 10
9.897300
 20
7.716411
 30
0.0
 10
9.310211
 20
8.303500
 30
0.0
 10
8.586000
 20
8.303500
 30
0.0
  0
LINE
  5
171
100
AcDbEntity
  8
0
 62
7
100
AcDbLine
 10
8.586000
 20
8.303500
 30
0.0
 11
8.586000
 21
8.303500
 31
0.0
  0
LINE
  5
172
100
AcDbEntity
  8
0
 62
7
100
AcDbLine
 10
102.509600
 20
90.463400
 30
0.0
 11
135.629500
 21
90.463400
 31
0.0
  0
LINE
  5
173
100
AcDbEntity
  8
0
 62
7
100
AcDbLine
 10
135.629500
 20
90.463400
 30
0.0
 11
135.629500
 21
72.591700
 31
0.0
  0
LINE
  5
174
100
AcDbEntity
  8
0
 62
7
100
AcDbLine
 10
135.629500
 20
72.591700
 30
0.0
 11
102.509600
 21
72.591700
 31
0.0
  0
LINE
  5
175
100
AcDbEntity
  8
0
 62
7
100
AcDbLine
 10
102.509600
 20
72.591700
 30
0.0
 11
102.509600
 21
90.463400
 31
0.0
  0
LINE
  5
176
100
AcDbEntity
  8
0
 62
7
100
AcDbLine
 10
110.529700
 20
7.488600
 30
0.0
 11
117.749400
 21
7.488600
 31
0.0
  0
LINE
  5
177
100
AcDbEntity
  8
0
 62
7
100
AcDbLine
 10
117.749400
 20
7.488600
 30
0.0
 11
117.749400
 21
0.224600
 31
0.0
  0
LINE
  5
178
100
AcDbEntity
  8
0
 62
7
100
AcDbLine
 10
117.749400
 20
0.224600
 30
0.0
 11
110.529700
 21
0.224600
 31
0.0
  0
LINE
  5
179
100
AcDbEntity
  8
0
 62
7
100
AcDbLine
 10
110.529700
 20
0.224600
 30
0.0
 11
110.529700
 21
7.488600
 31
0.0
  0
LINE
  5
17a
100
AcDbEntity
  8
0
 62
7
100
AcDbLine
 10
119.443600
 20
7.488600
 30
0.0
 11
126.663200
 21
7.488600
 31
0.0
  0
LINE
  5
17b
100
AcDbEntity
  8
0
 62
7
100
AcDbLine
 10
126.663200
 20
7.488600
 30
0.0
 11
126.663200
 21
0.224600
 31
0.0
  0
LINE
  5
17c
100
AcDbEntity
  8
0
 62
7
100
AcDbLine
 10
126.663200
 20
0.224600
 30
0.0
 11
119.443600
 21
0.224600
 31
0.0
  0
LINE
  5
17d
100
AcDbEntity
  8
0
 62
7
100
AcDbLine
 10
119.443600
 20
0.224600
 30
0.0
 11
119.443600
 21
7.488600
 31
0.0
  0
LINE
  5
17e
100
AcDbEntity
  8
0
 62
7
100
AcDbLine
 10
128.263500
 20
7.489500
 30
0.0
 11
135.483100
 21
7.489500
 31
0.0
  0
LINE
  5
17f
100
AcDbEntity
  8
0
 62
7
100
AcDbLine
 10
135.483100
 20
7.489500
 30
0.0
 11
135.483100
 21
0.225500
 31
0.0
  0
LINE
  5
180
100
AcDbEntity
  8
0
 62
7
100
AcDbLine
 10
135.483100
 20
0.225500
 30
0.0
 11
128.263500
 21
0.225500
 31
0.0
  0
LINE
  5
181
100
AcDbEntity
  8
0
 62
7
100
AcDbLine
 10
128.263500
 20
0.225500
 30
0.0
 11
128.263500
 21
7.489500
 31
0.0
  0
LINE
  5
182
100
AcDbEntity
  8
0
 62
7
100
AcDbLine
 10
121.405500
 20
36.953500
 30
0.0
 11
135.629500
 21
36.953500
 31
0.0
  0
LINE
  5
183
100
AcDbEntity
  8
0
 62
7
100
AcDbLine
 10
135.629500
 20
36.953500
 30
0.0
 11
135.629500
 21
30.095500
 31
0.0
  0
LINE
  5
184
100
AcDbEntity
  8
0
 62
7
100
AcDbLine
 10
135.629500
 20
30.095500
 30
0.0
 11
121.405500
 21
30.095500
 31
0.0
  0
LINE
  5
185
100
AcDbEntity
  8
0
 62
7
100
AcDbLine
 10
121.405500
 20
30.095500
 30
0.0
 11
121.405500
 21
36.953500
 31
0.0
  0
LINE
  5
186
100
AcDbEntity
  8
0
 62
7
100
AcDbLine
 10
122.929500
 20
26.285500
 30
0.0
 11
135.531100
 21
26.285500
 31
0.0
  0
LINE
  5
187
100
AcDbEntity
  8
0
 62
7
100
AcDbLine
 10
135.531100
 20
26.285500
 30
0.0
 11
135.531100
 21
15.271200
 31
0.0
  0
LINE
  5
188
100
AcDbEntity
  8
0
 62
7
100
AcDbLine
 10
135.531100
 20
15.271200
 30
0.0
 11
122.929500
 21
15.271200
 31
0.0
  0
LINE
  5
189
100
AcDbEntity
  8
0
 62
7
100
AcDbLine
 10
122.929500
 20
15.271200
 30
0.0
 11
122.929500
 21
26.285500
 31
0.0
  0
LINE
  5
18a
100
AcDbEntity
  8
0
 62
7
100
AcDbLine
 10
135.686000
 20
0.026200
 30
0.0
 11
7.162000
 21
0.026200
 31
0.0
  0
LINE
  5
18b
100
AcDbEntity
  8
0
 62
7
100
AcDbLine
 10
135.686000
 20
0.026200
 30
0.0
 11
135.686000
 21
90.958200
 31
0.0
  0
LINE
  5
18c
100
AcDbEntity
  8
0
 62
7
100
AcDbLine
 10
136.079400
 20
45.908900
 30
0.0
 11
135.710500
 21
45.909300
 31
0.0
  0
LINE
  5
18d
100
AcDbEntity
  8
0
 62
7
100
AcDbLine
 10
135.686000
 20
90.958200
 30
0.0
 11
7.162000
 21
90.958200
 31
0.0
  0
LINE
  5
18e
100
AcDbEntity
  8
0
 62
7
100
AcDbLine
 10
0.050000
 20
7.138200
 30
0.0
 11
0.050000
 21
83.846200
 31
0.0
  0
SPLINE
  5
18f
100
AcDbEntity
  8
0
 62
7
100
AcDbSpline
 70
8
 71
3
 72
8
 73
4
 74
0
 40
0
 40
0
 40
0
 40
0
 40
1
 40
1
 40
1
 40
1
 10
0.050000
 20
7.138200
 30
0.0
 10
0.050000
 20
5.251980
 30
0.0
 10
0.799298
 20
3.443015
 30
0.0
 10
2.133057
 20
2.109257
 30
0.0
  0
SPLINE
  5
190
100
AcDbEntity
  8
0
 62
7
100
AcDbSpline
 70
8
 71
3
 72
8
 73
4
 74
0
 40
0
 40
0
 40
0
 40
0
 40
1
 40
1
 40
1
 40
1
 10
2.133057
 20
2.109257
 30
0.0
 10
3.466815
 20
0.775498
 30
0.0
 10
5.275780
 20
0.026200
 30
0.0
 10
7.162000
 20
0.026200
 30
0.0
  0
SPLINE
  5
191
100
AcDbEntity
  8
0
 62
7
100
AcDbSpline
 70
8
 71
3
 72
8
 73
4
 74
0
 40
0
 40
0
 40
0
 40
0
 40
1
 40
1
 40
1
 40
1
 10
7.162000
 20
90.958200
 30
0.0
 10
5.275780
 20
90.958200
 30
0.0
 10
3.466815
 20
90.208902
 30
0.0
 10
2.133057
 20
88.875143
 30
0.0
  0
SPLINE
  5
192
100
AcDbEntity
  8
0
 62
7
100
AcDbSpline
 70
8
 71
3
 72
8
 73
4
 74
0
 40
0
 40
0
 40
0
 40
0
 40
1
 40
1
 40
1
 40
1
 10
2.133057
 20
88.875143
 30
0.0
 10
0.799298
 20
87.541385
 30
0.0
 10
0.050000
 20
85.732420
 30
0.0
 10
0.050000
 20
83.846200
 30
0.0
  0
LINE
  5
193
100
AcDbEntity
  8
0
 62
7
100
AcDbLine
 10
37.393500
 20
17.540400
 30
0.0
 11
54.867600
 21
17.540400
 31
0.0
  0
LINE
  5
194
100
AcDbEntity
  8
0
 62
7
100
AcDbLine
 10
54.867600
 20
17.540400
 30
0.0
 11
54.867600
 21
3.350200
 31
0.0
  0
LINE
  5
195
100
AcDbEntity
  8
0
 62
7
100
AcDbLine
 10
54.867600
 20
3.350200
 30
0.0
 11
37.393500
 21
3.350200
 31
0.0
  0
LINE
  5
196
100
AcDbEntity
  8
0
 62
7
100
AcDbLine
 10
37.393500
 20
3.350200
 30
0.0
 11
37.393500
 21
17.540400
 31
0.0
  0
LINE
  5
197
100
AcDbEntity
  8
0
 62
7
100
AcDbLine
 10
116.546000
 20
54.400200
 30
0.0
 11
133.806000
 21
54.400200
 31
0.0
  0
LINE
  5
198
100
AcDbEntity
  8
0
 62
7
100
AcDbLine
 10
133.806000
 20
54.400200
 30
0.0
 11
133.806000
 21
63.000200
 31
0.0
  0
LINE
  5
199
100
AcDbEntity
  8
0
 62
7
100
AcDbLine
 10
133.806000
 20
63.000200
 30
0.0
 11
116.546000
 21
63.000200
 31
0.0
  0
LINE
  5
19a
100
AcDbEntity
  8
0
 62
7
100
AcDbLine
 10
116.546000
 20
63.000200
 30
0.0
 11
116.546000
 21
54.400200
 31
0.0
  0
LINE
  5
19b
100
AcDbEntity
  8
0
 62
7
100
AcDbLine
 10
78.917000
 20
26.106200
 30
0.0
 11
64.439000
 21
26.126200
 31
0.0
  0
LINE
  5
19c
100
AcDbEntity
  8
0
 62
7
100
AcDbLine
 10
78.917000
 20
40.516200
 30
0.0
 11
78.917000
 21
26.106200
 31
0.0
  0
LINE
  5
19d
100
AcDbEntity
  8
0
 62
7
100
AcDbLine
 10
64.439000
 20
26.126200
 30
0.0
 11
64.439000
 21
40.516200
 31
0.0
  0
LINE
  5
19e
100
AcDbEntity
  8
0
 62
7
100
AcDbLine
 10
64.439000
 20
40.516200
 30
0.0
 11
78.917000
 21
40.516200
 31
0.0
  0
LINE
  5
19f
100
AcDbEntity
  8
0
 62
7
100
AcDbLine
 10
21.255000
 20
32.266800
 30
0.0
 11
6.993500
 21
29.772400
 31
0.0
  0
LINE
  5
1a0
100
AcDbEntity
  8
0
 62
7
100
AcDbLine
 10
18.752800
 20
46.457900
 30
0.0
 11
21.255000
 21
32.266800
 31
0.0
  0
LINE
  5
1a1
100
AcDbEntity
  8
0
 62
7
100
AcDbLine
 10
6.993500
 20
29.772400
 30
0.0
 11
4.494700
 21
43.943800
 31
0.0
  0
LINE
  5
1a2
100
AcDbEntity
  8
0
 62
7
100
AcDbLine
 10
4.494700
 20
43.943800
 30
0.0
 11
18.752800
 21
46.457900
 31
0.0
  0
LINE
  5
1a3
100
AcDbEntity
  8
0
 62
7
100
AcDbLine
 10
101.785000
 20
2.976200
 30
0.0
 11
87.307000
 21
2.996200
 31
0.0
  0
LINE
  5
1a4
100
AcDbEntity
  8
0
 62
7
100
AcDbLine
 10
101.785000
 20
17.386200
 30
0.0
 11
101.785000
 21
2.976200
 31
0.0
  0
LINE
  5
1a5
100
AcDbEntity
  8
0
 62
7
100
AcDbLine
 10
87.307000
 20
2.996200
 30
0.0
 11
87.307000
 21
17.386200
 31
0.0
  0
LINE
  5
1a6
100
AcDbEntity
  8
0
 62
7
100
AcDbLine
 10
87.307000
 20
17.386200
 30
0.0
 11
101.785000
 21
17.386200
 31
0.0
  0
LINE
  5
1a7
100
AcDbEntity
  8
0
 62
7
100
AcDbLine
 10
78.917000
 20
45.156200
 30
0.0
 11
64.439000
 21
45.176200
 31
0.0
  0
LINE
  5
1a8
100
AcDbEntity
  8
0
 62
7
100
AcDbLine
 10
78.917000
 20
59.566200
 30
0.0
 11
78.917000
 21
45.156200
 31
0.0
  0
LINE
  5
1a9
100
AcDbEntity
  8
0
 62
7
100
AcDbLine
 10
64.439000
 20
45.176200
 30
0.0
 11
64.439000
 21
59.566200
 31
0.0
  0
LINE
  5
1aa
100
AcDbEntity
  8
0
 62
7
100
AcDbLine
 10
64.439000
 20
59.566200
 30
0.0
 11
78.917000
 21
59.566200
 31
0.0
  0
LINE
  5
1ab
100
AcDbEntity
  8
0
 62
7
100
AcDbLine
 10
97.967000
 20
54.570200
 30
0.0
 11
83.489000
 21
54.590200
 31
0.0
  0
LINE
  5
1ac
100
AcDbEntity
  8
0
 62
7
100
AcDbLine
 10
97.967000
 20
68.980200
 30
0.0
 11
97.967000
 21
54.570200
 31
0.0
  0
LINE
  5
1ad
100
AcDbEntity
  8
0
 62
7
100
AcDbLine
 10
83.489000
 20
54.590200
 30
0.0
 11
83.489000
 21
68.980200
 31
0.0
  0
LINE
  5
1ae
100
AcDbEntity
  8
0
 62
7
100
AcDbLine
 10
83.489000
 20
68.980200
 30
0.0
 11
97.967000
 21
68.980200
 31
0.0
  0
LINE
  5
1af
100
AcDbEntity
  8
0
 62
7
100
AcDbLine
 10
57.702400
 20
72.690900
 30
0.0
 11
43.243200
 21
71.953200
 31
0.0
  0
LINE
  5
1b0
100
AcDbEntity
  8
0
 62
7
100
AcDbLine
 10
56.948300
 20
87.081200
 30
0.0
 11
57.702400
 21
72.690900
 31
0.0
  0
LINE
  5
1b1
100
AcDbEntity
  8
0
 62
7
100
AcDbLine
 10
43.243200
 20
71.953200
 30
0.0
 11
42.490100
 21
86.323500
 31
0.0
  0
LINE
  5
1b2
100
AcDbEntity
  8
0
 62
7
100
AcDbLine
 10
42.490100
 20
86.323500
 30
0.0
 11
56.948300
 21
87.081200
 31
0.0
  0
LINE
  5
1b3
100
AcDbEntity
  8
0
 62
7
100
AcDbLine
 10
97.967000
 20
35.520200
 30
0.0
 11
83.489000
 21
35.540200
 31
0.0
  0
LINE
  5
1b4
100
AcDbEntity
  8
0
 62
7
100
AcDbLine
 10
97.967000
 20
49.930200
 30
0.0
 11
97.967000
 21
35.520200
 31
0.0
  0
LINE
  5
1b5
100
AcDbEntity
  8
0
 62
7
100
AcDbLine
 10
83.489000
 20
35.540200
 30
0.0
 11
83.489000
 21
49.930200
 31
0.0
  0
LINE
  5
1b6
100
AcDbEntity
  8
0
 62
7
100
AcDbLine
 10
83.489000
 20
49.930200
 30
0.0
 11
97.967000
 21
49.930200
 31
0.0
  0
LINE
  5
1b7
100
AcDbEntity
  8
0
 62
7
100
AcDbLine
 10
17.953000
 20
51.062800
 30
0.0
 11
3.691500
 21
48.568400
 31
0.0
  0
LINE
  5
1b8
100
AcDbEntity
  8
0
 62
7
100
AcDbLine
 10
15.450800
 20
65.253900
 30
0.0
 11
17.953000
 21
51.062800
 31
0.0
  0
LINE
  5
1b9
100
AcDbEntity
  8
0
 62
7
100
AcDbLine
 10
3.691500
 20
48.568400
 30
0.0
 11
1.192700
 21
62.739800
 31
0.0
  0
LINE
  5
1ba
100
AcDbEntity
  8
0
 62
7
100
AcDbLine
 10
1.192700
 20
62.739800
 30
0.0
 11
15.450800
 21
65.253900
 31
0.0
  0
LINE
  5
1bb
100
AcDbEntity
  8
0
 62
7
100
AcDbLine
 10
37.723800
 20
66.864600
 30
0.0
 11
23.299200
 21
65.622600
 31
0.0
  0
LINE
  5
1bc
100
AcDbEntity
  8
0
 62
7
100
AcDbLine
 10
36.467900
 20
81.219700
 30
0.0
 11
37.723800
 21
66.864600
 31
0.0
  0
LINE
  5
1bd
100
AcDbEntity
  8
0
 62
7
100
AcDbLine
 10
23.299200
 20
65.622600
 30
0.0
 11
22.045000
 21
79.957900
 31
0.0
  0
LINE
  5
1be
100
AcDbEntity
  8
0
 62
7
100
AcDbLine
 10
22.045000
 20
79.957900
 30
0.0
 11
36.467900
 21
81.219700
 31
0.0
  0
LINE
  5
1bf
100
AcDbEntity
  8
0
 62
7
100
AcDbLine
 10
78.917000
 20
64.206200
 30
0.0
 11
64.439000
 21
64.226200
 31
0.0
  0
LINE
  5
1c0
100
AcDbEntity
  8
0
 62
7
100
AcDbLine
 10
78.917000
 20
78.616200
 30
0.0
 11
78.917000
 21
64.206200
 31
0.0
  0
LINE
  5
1c1
100
AcDbEntity
  8
0
 62
7
100
AcDbLine
 10
64.439000
 20
64.226200
 30
0.0
 11
64.439000
 21
78.616200
 31
0.0
  0
LINE
  5
1c2
100
AcDbEntity
  8
0
 62
7
100
AcDbLine
 10
64.439000
 20
78.616200
 30
0.0
 11
78.917000
 21
78.616200
 31
0.0
  0
LINE
  5
1c3
100
AcDbEntity
  8
0
 62
7
100
AcDbLine
 10
39.394200
 20
47.837500
 30
0.0
 11
24.969600
 21
46.595600
 31
0.0
  0
LINE
  5
1c4
100
AcDbEntity
  8
0
 62
7
100
AcDbLine
 10
38.138300
 20
62.192700
 30
0.0
 11
39.394200
 21
47.837500
 31
0.0
  0
LINE
  5
1c5
100
AcDbEntity
  8
0
 62
7
100
AcDbLine
 10
24.969600
 20
46.595600
 30
0.0
 11
23.715400
 21
60.930800
 31
0.0
  0
LINE
  5
1c6
100
AcDbEntity
  8
0
 62
7
100
AcDbLine
 10
23.715400
 20
60.930800
 30
0.0
 11
38.138300
 21
62.192700
 31
0.0
  0
LINE
  5
1c7
100
AcDbEntity
  8
0
 62
7
100
AcDbLine
 10
41.040000
 20
28.817300
 30
0.0
 11
26.615400
 21
27.575400
 31
0.0
  0
LINE
  5
1c8
100
AcDbEntity
  8
0
 62
7
100
AcDbLine
 10
39.784100
 20
43.172400
 30
0.0
 11
41.040000
 21
28.817300
 31
0.0
  0
LINE
  5
1c9
100
AcDbEntity
  8
0
 62
7
100
AcDbLine
 10
26.615400
 20
27.575400
 30
0.0
 11
25.361200
 21
41.910600
 31
0.0
  0
LINE
  5
1ca
100
AcDbEntity
  8
0
 62
7
100
AcDbLine
 10
25.361200
 20
41.910600
 30
0.0
 11
39.784100
 21
43.172400
 31
0.0
  0
LINE
  5
1cb
100
AcDbEntity
  8
0
 62
7
100
AcDbLine
 10
58.721600
 20
53.641100
 30
0.0
 11
44.262400
 21
52.903400
 31
0.0
  0
LINE
  5
1cc
100
AcDbEntity
  8
0
 62
7
100
AcDbLine
 10
57.967400
 20
68.031400
 30
0.0
 11
58.721600
 21
53.641100
 31
0.0
  0
LINE
  5
1cd
100
AcDbEntity
  8
0
 62
7
100
AcDbLine
 10
44.262400
 20
52.903400
 30
0.0
 11
43.509200
 21
67.273700
 31
0.0
  0
LINE
  5
1ce
100
AcDbEntity
  8
0
 62
7
100
AcDbLine
 10
43.509200
 20
67.273700
 30
0.0
 11
57.967400
 21
68.031400
 31
0.0
  0
LINE
  5
1cf
100
AcDbEntity
  8
0
 62
7
100
AcDbLine
 10
82.735000
 20
5.008200
 30
0.0
 11
68.257000
 21
5.028200
 31
0.0
  0
LINE
  5
1d0
100
AcDbEntity
  8
0
 62
7
100
AcDbLine
 10
82.735000
 20
19.418200
 30
0.0
 11
82.735000
 21
5.008200
 31
0.0
  0
LINE
  5
1d1
100
AcDbEntity
  8
0
 62
7
100
AcDbLine
 10
68.257000
 20
5.028200
 30
0.0
 11
68.257000
 21
19.418200
 31
0.0
  0
LINE
  5
1d2
100
AcDbEntity
  8
0
 62
7
100
AcDbLine
 10
68.257000
 20
19.418200
 30
0.0
 11
82.735000
 21
19.418200
 31
0.0
  0
LINE
  5
1d3
100
AcDbEntity
  8
0
 62
7
100
AcDbLine
 10
59.732200
 20
34.587500
 30
0.0
 11
45.273000
 21
33.849800
 31
0.0
  0
LINE
  5
1d4
100
AcDbEntity
  8
0
 62
7
100
AcDbLine
 10
58.978000
 20
48.977800
 30
0.0
 11
59.732200
 21
34.587500
 31
0.0
  0
LINE
  5
1d5
100
AcDbEntity
  8
0
 62
7
100
AcDbLine
 10
45.273000
 20
33.849800
 30
0.0
 11
44.519900
 21
48.220000
 31
0.0
  0
LINE
  5
1d6
100
AcDbEntity
  8
0
 62
7
100
AcDbLine
 10
44.519900
 20
48.220000
 30
0.0
 11
58.978000
 21
48.977800
 31
0.0
  0
ENDSEC
  0
SECTION
  2
OBJECTS
  0
DICTIONARY
  5
C
330
0
100
AcDbDictionary
  3
ACAD_GROUP
350
D
  3
ACAD_MLINESTYLE
350
17
  0
DICTIONARY
  5
D
330
C
100
AcDbDictionary
  0
DICTIONARY
  5
1A
330
C
100
AcDbDictionary
  0
DICTIONARY
  5
17
330
C
100
AcDbDictionary
  3
STANDARD
350
18
  0
DICTIONARY
  5
19
330
C
100
AcDbDictionary
  0
ENDSEC
  0
EOF
