  0
SECTION
  2
HEADER
  9
$ACADVER
  1
AC1014
  9
$HANDSEED
  5
FFFF
  9
$MEASUREMENT
 70
     1
  0
ENDSEC
  0
SECTION
  2
TABLES
  0
TABLE
  2
VPORT
  5
8
330
0
100
AcDbSymbolTable
 70
     4
  0
VPORT
  5
2E
330
8
100
AcDbSymbolTableRecord
100
AcDbViewportTableRecord
  2
*ACTIVE
 70
     0
 10
0.0
 20
0.0
 11
1.0
 21
1.0
 12
210.0
 22
148.5
 13
0.0
 23
0.0
 14
10.0
 24
10.0
 15
10.0
 25
10.0
 16
0.0
 26
0.0
 36
1.0
 17
0.0
 27
0.0
 37
0.0
 40
341.0
 41
1.24
 42
50.0
 43
0.0
 44
0.0
 50
0.0
 51
0.0
 71
     0
 72
   100
 73
     1
 74
     3
 75
     0
 76
     0
 77
     0
 78
     0
  0
ENDTAB
  0
TABLE
  2
LTYPE
  5
5
330
0
100
AcDbSymbolTable
 70
     1
  0
LTYPE
  5
14
330
5
100
AcDbSymbolTableRecord
100
AcDbLinetypeTableRecord
  2
BYBLOCK
 70
     0
  3

 72
    65
 73
     0
 40
0.0
  0
LTYPE
  5
15
330
5
100
AcDbSymbolTableRecord
100
AcDbLinetypeTableRecord
  2
BYLAYER
 70
     0
  3

 72
    65
 73
     0
 40
0.0
  0
LTYPE
  5
16
330
5
100
AcDbSymbolTableRecord
100
AcDbLinetypeTableRecord
  2
CONTINUOUS
 70
     0
  3
Solid line
 72
    65
 73
     0
 40
0.0
  0
ENDTAB
  0
TABLE
  2
LAYER
  5
2
100
AcDbSymbolTable
 70
1
  0
LAYER
  5
50
100
AcDbSymbolTableRecord
100
AcDbLayerTableRecord
  2
0
 70
0
  6
CONTINUOUS
  0
ENDTAB
  0
TABLE
  2
STYLE
  5
3
330
0
100
AcDbSymbolTable
 70
     1
  0
STYLE
  5
11
330
3
100
AcDbSymbolTableRecord
100
AcDbTextStyleTableRecord
  2
STANDARD
 70
     0
 40
0.0
 41
1.0
 50
0.0
 71
     0
 42
2.5
  3
txt
  4

  0
ENDTAB
  0
TABLE
  2
VIEW
  5
6
330
0
100
AcDbSymbolTable
 70
     0
  0
ENDTAB
  0
TABLE
  2
UCS
  5
7
330
0
100
AcDbSymbolTable
 70
     0
  0
ENDTAB
  0
TABLE
  2
APPID
  5
9
330
0
100
AcDbSymbolTable
 70
     2
  0
APPID
  5
12
330
9
100
AcDbSymbolTableRecord
100
AcDbRegAppTableRecord
  2
ACAD
 70
     0
  0
ENDTAB
  0
TABLE
  2
DIMSTYLE
  5
A
330
0
100
AcDbSymbolTable
 70
     1
  0
DIMSTYLE
105
27
330
A
100
AcDbSymbolTableRecord
100
AcDbDimStyleTableRecord
  2
ISO-25
 70
     0
  3

  4

  5

  6

  7

 40
1.0
 41
2.5
 42
0.625
 43
3.75
 44
1.25
 45
0.0
 46
0.0
 47
0.0
 48
0.0
140
2.5
141
2.5
142
0.0
143
0.03937007874016
144
1.0
145
0.0
146
1.0
147
0.625
 71
     0
 72
     0
 73
     0
 74
     0
 75
     0
 76
     0
 77
     1
 78
     8
170
     0
171
     3
172
     1
173
     0
174
     0
175
     0
176
     0
177
     0
178
     0
270
     2
271
     2
272
     2
273
     2
274
     3
340
11
275
     0
280
     0
281
     0
282
     0
283
     0
284
     8
285
     0
286
     0
287
     3
288
     0
  0
ENDTAB
  0
TABLE
  2
BLOCK_RECORD
  5
1
330
0
100
AcDbSymbolTable
 70
     1
  0
BLOCK_RECORD
  5
1F
330
1
100
AcDbSymbolTableRecord
100
AcDbBlockTableRecord
  2
*MODEL_SPACE
  0
BLOCK_RECORD
  5
1B
330
1
100
AcDbSymbolTableRecord
100
AcDbBlockTableRecord
  2
*PAPER_SPACE
  0
ENDTAB
  0
ENDSEC
  0
SECTION
  2
BLOCKS
  0
BLOCK
  5
20
330
1F
100
AcDbEntity
  8
0
100
AcDbBlockBegin
  2
*MODEL_SPACE
 70
     0
 10
0.0
 20
0.0
 30
0.0
  3
*MODEL_SPACE
  1

  0
ENDBLK
  5
21
330
1F
100
AcDbEntity
  8
0
100
AcDbBlockEnd
  0
BLOCK
  5
1C
330
1B
100
AcDbEntity
 67
     1
  8
0
100
AcDbBlockBegin
  2
*PAPER_SPACE
  1

  0
ENDBLK
  5
1D
330
1B
100
AcDbEntity
 67
     1
  8
0
100
AcDbBlockEnd
  0
ENDSEC
  0
SECTION
  2
ENTITIES
  0
LINE
  5
100
100
AcDbEntity
  8
0
 62
7
100
AcDbLine
 10
9.784220
 20
8.785350
 30
0.0
 11
11.619480
 21
8.293600
 31
0.0
  0
LINE
  5
101
100
AcDbEntity
  8
0
 62
7
100
AcDbLine
 10
9.318350
 20
7.046690
 30
0.0
 11
9.784220
 21
8.785350
 31
0.0
  0
LINE
  5
102
100
AcDbEntity
  8
0
 62
7
100
AcDbLine
 10
11.619480
 20
8.293600
 30
0.0
 11
11.153610
 21
6.554930
 31
0.0
  0
LINE
  5
103
100
AcDbEntity
  8
0
 62
7
100
AcDbLine
 10
11.153610
 20
6.554930
 30
0.0
 11
9.318350
 21
7.046690
 31
0.0
  0
LINE
  5
104
100
AcDbEntity
  8
0
 62
7
100
AcDbLine
 10
7.634910
 20
7.911870
 30
0.0
 11
9.470170
 21
7.420110
 31
0.0
  0
LINE
  5
105
100
AcDbEntity
  8
0
 62
7
100
AcDbLine
 10
7.169040
 20
6.173200
 30
0.0
 11
7.634910
 21
7.911870
 31
0.0
  0
LINE
  5
106
100
AcDbEntity
  8
0
 62
7
100
AcDbLine
 10
9.470170
 20
7.420110
 30
0.0
 11
9.004300
 21
5.681450
 31
0.0
  0
LINE
  5
107
100
AcDbEntity
  8
0
 62
7
100
AcDbLine
 10
9.004300
 20
5.681450
 30
0.0
 11
7.169040
 21
6.173200
 31
0.0
  0
LINE
  5
108
100
AcDbEntity
  8
0
 62
7
100
AcDbLine
 10
2.135990
 20
11.188120
 30
0.0
 11
4.028760
 21
11.022520
 31
0.0
  0
LINE
  5
109
100
AcDbEntity
  8
0
 62
7
100
AcDbLine
 10
1.979110
 20
9.394970
 30
0.0
 11
2.135990
 21
11.188120
 31
0.0
  0
LINE
  5
10a
100
AcDbEntity
  8
0
 62
7
100
AcDbLine
 10
4.028760
 20
11.022520
 30
0.0
 11
3.871880
 21
9.229370
 31
0.0
  0
LINE
  5
10b
100
AcDbEntity
  8
0
 62
7
100
AcDbLine
 10
3.871880
 20
9.229370
 30
0.0
 11
1.979110
 21
9.394970
 31
0.0
  0
LINE
  5
10c
100
AcDbEntity
  8
0
 62
7
100
AcDbLine
 10
16.833120
 20
7.420110
 30
0.0
 11
18.668380
 21
7.911870
 31
0.0
  0
LINE
  5
10d
100
AcDbEntity
  8
0
 62
7
100
AcDbLine
 10
17.298990
 20
5.681450
 30
0.0
 11
16.833120
 21
7.420110
 31
0.0
  0
LINE
  5
10e
100
AcDbEntity
  8
0
 62
7
100
AcDbLine
 10
18.668380
 20
7.911870
 30
0.0
 11
19.134250
 21
6.173200
 31
0.0
  0
LINE
  5
10f
100
AcDbEntity
  8
0
 62
7
100
AcDbLine
 10
19.134250
 20
6.173200
 30
0.0
 11
17.298990
 21
5.681450
 31
0.0
  0
LINE
  5
110
100
AcDbEntity
  8
0
 62
7
100
AcDbLine
 10
20.484390
 20
8.420880
 30
0.0
 11
22.349480
 21
8.783410
 31
0.0
  0
LINE
  5
111
100
AcDbEntity
  8
0
 62
7
100
AcDbLine
 10
20.827850
 20
6.653950
 30
0.0
 11
20.484390
 21
8.420880
 31
0.0
  0
LINE
  5
112
100
AcDbEntity
  8
0
 62
7
100
AcDbLine
 10
22.349480
 20
8.783410
 30
0.0
 11
22.692940
 21
7.016490
 31
0.0
  0
LINE
  5
113
100
AcDbEntity
  8
0
 62
7
100
AcDbLine
 10
22.692940
 20
7.016490
 30
0.0
 11
20.827850
 21
6.653950
 31
0.0
  0
LINE
  5
114
100
AcDbEntity
  8
0
 62
7
100
AcDbLine
 10
19.816560
 20
11.856570
 30
0.0
 11
21.681650
 21
12.219110
 31
0.0
  0
LINE
  5
115
100
AcDbEntity
  8
0
 62
7
100
AcDbLine
 10
20.160010
 20
10.089640
 30
0.0
 11
19.816560
 21
11.856570
 31
0.0
  0
LINE
  5
116
100
AcDbEntity
  8
0
 62
7
100
AcDbLine
 10
21.681650
 20
12.219110
 30
0.0
 11
22.025110
 21
10.452180
 31
0.0
  0
LINE
  5
117
100
AcDbEntity
  8
0
 62
7
100
AcDbLine
 10
22.025110
 20
10.452180
 30
0.0
 11
20.160010
 21
10.089640
 31
0.0
  0
LINE
  5
118
100
AcDbEntity
  8
0
 62
7
100
AcDbLine
 10
14.230870
 20
9.983970
 30
0.0
 11
16.066130
 21
10.475720
 31
0.0
  0
LINE
  5
119
100
AcDbEntity
  8
0
 62
7
100
AcDbLine
 10
14.696750
 20
8.245300
 30
0.0
 11
14.230870
 21
9.983970
 31
0.0
  0
LINE
  5
11a
100
AcDbEntity
  8
0
 62
7
100
AcDbLine
 10
16.066130
 20
10.475720
 30
0.0
 11
16.532010
 21
8.737060
 31
0.0
  0
LINE
  5
11b
100
AcDbEntity
  8
0
 62
7
100
AcDbLine
 10
16.532010
 20
8.737060
 30
0.0
 11
14.696750
 21
8.245300
 31
0.0
  0
LINE
  5
11c
100
AcDbEntity
  8
0
 62
7
100
AcDbLine
 10
8.405730
 20
5.427720
 30
0.0
 11
10.240990
 21
4.935970
 31
0.0
  0
LINE
  5
11d
100
AcDbEntity
  8
0
 62
7
100
AcDbLine
 10
7.939860
 20
3.689060
 30
0.0
 11
8.405730
 21
5.427720
 31
0.0
  0
LINE
  5
11e
100
AcDbEntity
  8
0
 62
7
100
AcDbLine
 10
10.240990
 20
4.935970
 30
0.0
 11
9.775120
 21
3.197300
 31
0.0
  0
LINE
  5
11f
100
AcDbEntity
  8
0
 62
7
100
AcDbLine
 10
9.775120
 20
3.197300
 30
0.0
 11
7.939860
 21
3.689060
 31
0.0
  0
LINE
  5
120
100
AcDbEntity
  8
0
 62
7
100
AcDbLine
 10
15.136740
 20
6.603230
 30
0.0
 11
16.972000
 21
7.094980
 31
0.0
  0
LINE
  5
121
100
AcDbEntity
  8
0
 62
7
100
AcDbLine
 10
15.602620
 20
4.864560
 30
0.0
 11
15.136740
 21
6.603230
 31
0.0
  0
LINE
  5
122
100
AcDbEntity
  8
0
 62
7
100
AcDbLine
 10
16.972000
 20
7.094980
 30
0.0
 11
17.437870
 21
5.356310
 31
0.0
  0
LINE
  5
123
100
AcDbEntity
  8
0
 62
7
100
AcDbLine
 10
17.437870
 20
5.356310
 30
0.0
 11
15.602620
 21
4.864560
 31
0.0
  0
LINE
  5
124
100
AcDbEntity
  8
0
 62
7
100
AcDbLine
 10
22.427050
 20
9.279180
 30
0.0
 11
24.319820
 21
9.444780
 31
0.0
  0
LINE
  5
125
100
AcDbEntity
  8
0
 62
7
100
AcDbLine
 10
22.583930
 20
7.486030
 30
0.0
 11
22.427050
 21
9.279180
 31
0.0
  0
LINE
  5
126
100
AcDbEntity
  8
0
 62
7
100
AcDbLine
 10
24.319820
 20
9.444780
 30
0.0
 11
24.476700
 21
7.651630
 31
0.0
  0
LINE
  5
127
100
AcDbEntity
  8
0
 62
7
100
AcDbLine
 10
24.476700
 20
7.651630
 30
0.0
 11
22.583930
 21
7.486030
 31
0.0
  0
LINE
  5
128
100
AcDbEntity
  8
0
 62
7
100
AcDbLine
 10
15.927250
 20
10.800860
 30
0.0
 11
17.762510
 21
11.292610
 31
0.0
  0
LINE
  5
129
100
AcDbEntity
  8
0
 62
7
100
AcDbLine
 10
16.393120
 20
9.062190
 30
0.0
 11
15.927250
 21
10.800860
 31
0.0
  0
LINE
  5
12a
100
AcDbEntity
  8
0
 62
7
100
AcDbLine
 10
17.762510
 20
11.292610
 30
0.0
 11
18.228380
 21
9.553940
 31
0.0
  0
LINE
  5
12b
100
AcDbEntity
  8
0
 62
7
100
AcDbLine
 10
18.228380
 20
9.553940
 30
0.0
 11
16.393120
 21
9.062190
 31
0.0
  0
LINE
  5
12c
100
AcDbEntity
  8
0
 62
7
100
AcDbLine
 10
8.087850
 20
9.602240
 30
0.0
 11
9.923110
 21
9.110480
 31
0.0
  0
LINE
  5
12d
100
AcDbEntity
  8
0
 62
7
100
AcDbLine
 10
7.621970
 20
7.863570
 30
0.0
 11
8.087850
 21
9.602240
 31
0.0
  0
LINE
  5
12e
100
AcDbEntity
  8
0
 62
7
100
AcDbLine
 10
9.923110
 20
9.110480
 30
0.0
 11
9.457230
 21
7.371820
 31
0.0
  0
LINE
  5
12f
100
AcDbEntity
  8
0
 62
7
100
AcDbLine
 10
9.457230
 20
7.371820
 30
0.0
 11
7.621970
 21
7.863570
 31
0.0
  0
LINE
  5
130
100
AcDbEntity
  8
0
 62
7
100
AcDbLine
 10
4.621640
 20
12.219110
 30
0.0
 11
6.486730
 21
11.856570
 31
0.0
  0
LINE
  5
131
100
AcDbEntity
  8
0
 62
7
100
AcDbLine
 10
4.278180
 20
10.452180
 30
0.0
 11
4.621640
 21
12.219110
 31
0.0
  0
LINE
  5
132
100
AcDbEntity
  8
0
 62
7
100
AcDbLine
 10
6.486730
 20
11.856570
 30
0.0
 11
6.143280
 21
10.089640
 31
0.0
  0
LINE
  5
133
100
AcDbEntity
  8
0
 62
7
100
AcDbLine
 10
6.143280
 20
10.089640
 30
0.0
 11
4.278180
 21
10.452180
 31
0.0
  0
LINE
  5
134
100
AcDbEntity
  8
0
 62
7
100
AcDbLine
 10
18.031270
 20
10.096410
 30
0.0
 11
19.866530
 21
10.588170
 31
0.0
  0
LINE
  5
135
100
AcDbEntity
  8
0
 62
7
100
AcDbLine
 10
18.497140
 20
8.357740
 30
0.0
 11
18.031270
 21
10.096410
 31
0.0
  0
LINE
  5
136
100
AcDbEntity
  8
0
 62
7
100
AcDbLine
 10
19.866530
 20
10.588170
 30
0.0
 11
20.332400
 21
8.849500
 31
0.0
  0
LINE
  5
137
100
AcDbEntity
  8
0
 62
7
100
AcDbLine
 10
20.332400
 20
8.849500
 30
0.0
 11
18.497140
 21
8.357740
 31
0.0
  0
LINE
  5
138
100
AcDbEntity
  8
0
 62
7
100
AcDbLine
 10
5.983830
 20
8.897800
 30
0.0
 11
7.819090
 21
8.406040
 31
0.0
  0
LINE
  5
139
100
AcDbEntity
  8
0
 62
7
100
AcDbLine
 10
5.517960
 20
7.159130
 30
0.0
 11
5.983830
 21
8.897800
 31
0.0
  0
LINE
  5
13a
100
AcDbEntity
  8
0
 62
7
100
AcDbLine
 10
7.819090
 20
8.406040
 30
0.0
 11
7.353220
 21
6.667370
 31
0.0
  0
LINE
  5
13b
100
AcDbEntity
  8
0
 62
7
100
AcDbLine
 10
7.353220
 20
6.667370
 30
0.0
 11
5.517960
 21
7.159130
 31
0.0
  0
LINE
  5
13c
100
AcDbEntity
  8
0
 62
7
100
AcDbLine
 10
8.540780
 20
11.292610
 30
0.0
 11
10.376040
 21
10.800860
 31
0.0
  0
LINE
  5
13d
100
AcDbEntity
  8
0
 62
7
100
AcDbLine
 10
8.074910
 20
9.553940
 30
0.0
 11
8.540780
 21
11.292610
 31
0.0
  0
LINE
  5
13e
100
AcDbEntity
  8
0
 62
7
100
AcDbLine
 10
10.376040
 20
10.800860
 30
0.0
 11
9.910170
 21
9.062190
 31
0.0
  0
LINE
  5
13f
100
AcDbEntity
  8
0
 62
7
100
AcDbLine
 10
9.910170
 20
9.062190
 30
0.0
 11
8.074910
 21
9.553940
 31
0.0
  0
LINE
  5
140
100
AcDbEntity
  8
0
 62
7
100
AcDbLine
 10
6.889700
 20
12.278540
 30
0.0
 11
8.724960
 21
11.786780
 31
0.0
  0
LINE
  5
141
100
AcDbEntity
  8
0
 62
7
100
AcDbLine
 10
6.423820
 20
10.539870
 30
0.0
 11
6.889700
 21
12.278540
 31
0.0
  0
LINE
  5
142
100
AcDbEntity
  8
0
 62
7
100
AcDbLine
 10
8.724960
 20
11.786780
 30
0.0
 11
8.259080
 21
10.048110
 31
0.0
  0
LINE
  5
143
100
AcDbEntity
  8
0
 62
7
100
AcDbLine
 10
8.259080
 20
10.048110
 30
0.0
 11
6.423820
 21
10.539870
 31
0.0
  0
LINE
  5
144
100
AcDbEntity
  8
0
 62
7
100
AcDbLine
 10
3.953810
 20
8.783410
 30
0.0
 11
5.818900
 21
8.420880
 31
0.0
  0
LINE
  5
145
100
AcDbEntity
  8
0
 62
7
100
AcDbLine
 10
3.610350
 20
7.016490
 30
0.0
 11
3.953810
 21
8.783410
 31
0.0
  0
LINE
  5
146
100
AcDbEntity
  8
0
 62
7
100
AcDbLine
 10
5.818900
 20
8.420880
 30
0.0
 11
5.475440
 21
6.653950
 31
0.0
  0
LINE
  5
147
100
AcDbEntity
  8
0
 62
7
100
AcDbLine
 10
5.475440
 20
6.653950
 30
0.0
 11
3.610350
 21
7.016490
 31
0.0
  0
LINE
  5
148
100
AcDbEntity
  8
0
 62
7
100
AcDbLine
 10
16.380180
 20
9.110480
 30
0.0
 11
18.215440
 21
9.602240
 31
0.0
  0
LINE
  5
149
100
AcDbEntity
  8
0
 62
7
100
AcDbLine
 10
16.846060
 20
7.371820
 30
0.0
 11
16.380180
 21
9.110480
 31
0.0
  0
LINE
  5
14a
100
AcDbEntity
  8
0
 62
7
100
AcDbLine
 10
18.215440
 20
9.602240
 30
0.0
 11
18.681320
 21
7.863570
 31
0.0
  0
LINE
  5
14b
100
AcDbEntity
  8
0
 62
7
100
AcDbLine
 10
18.681320
 20
7.863570
 30
0.0
 11
16.846060
 21
7.371820
 31
0.0
  0
LINE
  5
14c
100
AcDbEntity
  8
0
 62
7
100
AcDbLine
 10
14.047930
 20
3.858850
 30
0.0
 11
15.709700
 21
4.779990
 31
0.0
  0
LINE
  5
14d
100
AcDbEntity
  8
0
 62
7
100
AcDbLine
 10
14.920580
 20
2.284530
 30
0.0
 11
14.047930
 21
3.858850
 31
0.0
  0
LINE
  5
14e
100
AcDbEntity
  8
0
 62
7
100
AcDbLine
 10
15.709700
 20
4.779990
 30
0.0
 11
16.582360
 21
3.205670
 31
0.0
  0
LINE
  5
14f
100
AcDbEntity
  8
0
 62
7
100
AcDbLine
 10
16.582360
 20
3.205670
 30
0.0
 11
14.920580
 21
2.284530
 31
0.0
  0
LINE
  5
150
100
AcDbEntity
  8
0
 62
7
100
AcDbLine
 10
17.578330
 20
11.786780
 30
0.0
 11
19.413590
 21
12.278540
 31
0.0
  0
LINE
  5
151
100
AcDbEntity
  8
0
 62
7
100
AcDbLine
 10
18.044210
 20
10.048110
 30
0.0
 11
17.578330
 21
11.786780
 31
0.0
  0
LINE
  5
152
100
AcDbEntity
  8
0
 62
7
100
AcDbLine
 10
19.413590
 20
12.278540
 30
0.0
 11
19.879470
 21
10.539870
 31
0.0
  0
LINE
  5
153
100
AcDbEntity
  8
0
 62
7
100
AcDbLine
 10
19.879470
 20
10.539870
 30
0.0
 11
18.044210
 21
10.048110
 31
0.0
  0
LINE
  5
154
100
AcDbEntity
  8
0
 62
7
100
AcDbLine
 10
1.983470
 20
9.444780
 30
0.0
 11
3.876240
 21
9.279180
 31
0.0
  0
LINE
  5
155
100
AcDbEntity
  8
0
 62
7
100
AcDbLine
 10
1.826590
 20
7.651630
 30
0.0
 11
1.983470
 21
9.444780
 31
0.0
  0
LINE
  5
156
100
AcDbEntity
  8
0
 62
7
100
AcDbLine
 10
3.876240
 20
9.279180
 30
0.0
 11
3.719360
 21
7.486030
 31
0.0
  0
LINE
  5
157
100
AcDbEntity
  8
0
 62
7
100
AcDbLine
 10
3.719360
 20
7.486030
 30
0.0
 11
1.826590
 21
7.651630
 31
0.0
  0
LINE
  5
158
100
AcDbEntity
  8
0
 62
7
100
AcDbLine
 10
1.830940
 20
7.701440
 30
0.0
 11
3.723710
 21
7.535840
 31
0.0
  0
LINE
  5
159
100
AcDbEntity
  8
0
 62
7
100
AcDbLine
 10
1.674060
 20
5.908290
 30
0.0
 11
1.830940
 21
7.701440
 31
0.0
  0
LINE
  5
15a
100
AcDbEntity
  8
0
 62
7
100
AcDbLine
 10
3.723710
 20
7.535840
 30
0.0
 11
3.566830
 21
5.742690
 31
0.0
  0
LINE
  5
15b
100
AcDbEntity
  8
0
 62
7
100
AcDbLine
 10
3.566830
 20
5.742690
 30
0.0
 11
1.674060
 21
5.908290
 31
0.0
  0
LINE
  5
15c
100
AcDbEntity
  8
0
 62
7
100
AcDbLine
 10
4.287720
 20
10.501260
 30
0.0
 11
6.152820
 21
10.138730
 31
0.0
  0
LINE
  5
15d
100
AcDbEntity
  8
0
 62
7
100
AcDbLine
 10
3.944270
 20
8.734330
 30
0.0
 11
4.287720
 21
10.501260
 31
0.0
  0
LINE
  5
15e
100
AcDbEntity
  8
0
 62
7
100
AcDbLine
 10
6.152820
 20
10.138730
 30
0.0
 11
5.809360
 21
8.371800
 31
0.0
  0
LINE
  5
15f
100
AcDbEntity
  8
0
 62
7
100
AcDbLine
 10
5.809360
 20
8.371800
 30
0.0
 11
3.944270
 21
8.734330
 31
0.0
  0
LINE
  5
160
100
AcDbEntity
  8
0
 62
7
100
AcDbLine
 10
16.062300
 20
4.935970
 30
0.0
 11
17.897560
 21
5.427720
 31
0.0
  0
LINE
  5
161
100
AcDbEntity
  8
0
 62
7
100
AcDbLine
 10
16.528170
 20
3.197300
 30
0.0
 11
16.062300
 21
4.935970
 31
0.0
  0
LINE
  5
162
100
AcDbEntity
  8
0
 62
7
100
AcDbLine
 10
17.897560
 20
5.427720
 30
0.0
 11
18.363430
 21
3.689060
 31
0.0
  0
LINE
  5
163
100
AcDbEntity
  8
0
 62
7
100
AcDbLine
 10
18.363430
 20
3.689060
 30
0.0
 11
16.528170
 21
3.197300
 31
0.0
  0
LINE
  5
164
100
AcDbEntity
  8
0
 62
7
100
AcDbLine
 10
10.237160
 20
10.475720
 30
0.0
 11
12.072420
 21
9.983970
 31
0.0
  0
LINE
  5
165
100
AcDbEntity
  8
0
 62
7
100
AcDbLine
 10
9.771280
 20
8.737060
 30
0.0
 11
10.237160
 21
10.475720
 31
0.0
  0
LINE
  5
166
100
AcDbEntity
  8
0
 62
7
100
AcDbLine
 10
12.072420
 20
9.983970
 30
0.0
 11
11.606540
 21
8.245300
 31
0.0
  0
LINE
  5
167
100
AcDbEntity
  8
0
 62
7
100
AcDbLine
 10
11.606540
 20
8.245300
 30
0.0
 11
9.771280
 21
8.737060
 31
0.0
  0
LINE
  5
168
100
AcDbEntity
  8
0
 62
7
100
AcDbLine
 10
9.331290
 20
7.094980
 30
0.0
 11
11.166550
 21
6.603230
 31
0.0
  0
LINE
  5
169
100
AcDbEntity
  8
0
 62
7
100
AcDbLine
 10
8.865420
 20
5.356310
 30
0.0
 11
9.331290
 21
7.094980
 31
0.0
  0
LINE
  5
16a
100
AcDbEntity
  8
0
 62
7
100
AcDbLine
 10
11.166550
 20
6.603230
 30
0.0
 11
10.700670
 21
4.864560
 31
0.0
  0
LINE
  5
16b
100
AcDbEntity
  8
0
 62
7
100
AcDbLine
 10
10.700670
 20
4.864560
 30
0.0
 11
8.865420
 21
5.356310
 31
0.0
  0
LINE
  5
16c
100
AcDbEntity
  8
0
 62
7
100
AcDbLine
 10
22.274530
 20
11.022520
 30
0.0
 11
24.167300
 21
11.188120
 31
0.0
  0
LINE
  5
16d
100
AcDbEntity
  8
0
 62
7
100
AcDbLine
 10
22.431410
 20
9.229370
 30
0.0
 11
22.274530
 21
11.022520
 31
0.0
  0
LINE
  5
16e
100
AcDbEntity
  8
0
 62
7
100
AcDbLine
 10
24.167300
 20
11.188120
 30
0.0
 11
24.324180
 21
9.394970
 31
0.0
  0
LINE
  5
16f
100
AcDbEntity
  8
0
 62
7
100
AcDbLine
 10
24.324180
 20
9.394970
 30
0.0
 11
22.431410
 21
9.229370
 31
0.0
  0
LINE
  5
170
100
AcDbEntity
  8
0
 62
7
100
AcDbLine
 10
20.150470
 20
10.138730
 30
0.0
 11
22.015570
 21
10.501260
 31
0.0
  0
LINE
  5
171
100
AcDbEntity
  8
0
 62
7
100
AcDbLine
 10
20.493930
 20
8.371800
 30
0.0
 11
20.150470
 21
10.138730
 31
0.0
  0
LINE
  5
172
100
AcDbEntity
  8
0
 62
7
100
AcDbLine
 10
22.015570
 20
10.501260
 30
0.0
 11
22.359020
 21
8.734330
 31
0.0
  0
LINE
  5
173
100
AcDbEntity
  8
0
 62
7
100
AcDbLine
 10
22.359020
 20
8.734330
 30
0.0
 11
20.493930
 21
8.371800
 31
0.0
  0
LINE
  5
174
100
AcDbEntity
  8
0
 62
7
100
AcDbLine
 10
14.683810
 20
8.293600
 30
0.0
 11
16.519070
 21
8.785350
 31
0.0
  0
LINE
  5
175
100
AcDbEntity
  8
0
 62
7
100
AcDbLine
 10
15.149680
 20
6.554930
 30
0.0
 11
14.683810
 21
8.293600
 31
0.0
  0
LINE
  5
176
100
AcDbEntity
  8
0
 62
7
100
AcDbLine
 10
16.519070
 20
8.785350
 30
0.0
 11
16.984940
 21
7.046690
 31
0.0
  0
LINE
  5
177
100
AcDbEntity
  8
0
 62
7
100
AcDbLine
 10
16.984940
 20
7.046690
 30
0.0
 11
15.149680
 21
6.554930
 31
0.0
  0
LINE
  5
178
100
AcDbEntity
  8
0
 62
7
100
AcDbLine
 10
22.579580
 20
7.535840
 30
0.0
 11
24.472350
 21
7.701440
 31
0.0
  0
LINE
  5
179
100
AcDbEntity
  8
0
 62
7
100
AcDbLine
 10
22.736460
 20
5.742690
 30
0.0
 11
22.579580
 21
7.535840
 31
0.0
  0
LINE
  5
17a
100
AcDbEntity
  8
0
 62
7
100
AcDbLine
 10
24.472350
 20
7.701440
 30
0.0
 11
24.629230
 21
5.908290
 31
0.0
  0
LINE
  5
17b
100
AcDbEntity
  8
0
 62
7
100
AcDbLine
 10
24.629230
 20
5.908290
 30
0.0
 11
22.736460
 21
5.742690
 31
0.0
  0
LINE
  5
17c
100
AcDbEntity
  8
0
 62
7
100
AcDbLine
 10
10.593590
 20
4.779990
 30
0.0
 11
12.255360
 21
3.858850
 31
0.0
  0
LINE
  5
17d
100
AcDbEntity
  8
0
 62
7
100
AcDbLine
 10
9.720930
 20
3.205670
 30
0.0
 11
10.593590
 21
4.779990
 31
0.0
  0
LINE
  5
17e
100
AcDbEntity
  8
0
 62
7
100
AcDbLine
 10
12.255360
 20
3.858850
 30
0.0
 11
11.382710
 21
2.284530
 31
0.0
  0
LINE
  5
17f
100
AcDbEntity
  8
0
 62
7
100
AcDbLine
 10
11.382710
 20
2.284530
 30
0.0
 11
9.720930
 21
3.205670
 31
0.0
  0
LINE
  5
180
100
AcDbEntity
  8
0
 62
7
100
AcDbLine
 10
6.436760
 20
10.588170
 30
0.0
 11
8.272020
 21
10.096410
 31
0.0
  0
LINE
  5
181
100
AcDbEntity
  8
0
 62
7
100
AcDbLine
 10
5.970890
 20
8.849500
 30
0.0
 11
6.436760
 21
10.588170
 31
0.0
  0
LINE
  5
182
100
AcDbEntity
  8
0
 62
7
100
AcDbLine
 10
8.272020
 20
10.096410
 30
0.0
 11
7.806150
 21
8.357740
 31
0.0
  0
LINE
  5
183
100
AcDbEntity
  8
0
 62
7
100
AcDbLine
 10
7.806150
 20
8.357740
 30
0.0
 11
5.970890
 21
8.849500
 31
0.0
  0
LINE
  5
184
100
AcDbEntity
  8
0
 62
7
100
AcDbLine
 10
18.484200
 20
8.406040
 30
0.0
 11
20.319460
 21
8.897800
 31
0.0
  0
LINE
  5
185
100
AcDbEntity
  8
0
 62
7
100
AcDbLine
 10
18.950070
 20
6.667370
 30
0.0
 11
18.484200
 21
8.406040
 31
0.0
  0
LINE
  5
186
100
AcDbEntity
  8
0
 62
7
100
AcDbLine
 10
20.319460
 20
8.897800
 30
0.0
 11
20.785330
 21
7.159130
 31
0.0
  0
LINE
  5
187
100
AcDbEntity
  8
0
 62
7
100
AcDbLine
 10
20.785330
 20
7.159130
 30
0.0
 11
18.950070
 21
6.667370
 31
0.0
  0
LINE
  5
188
100
AcDbEntity
  8
0
 62
7
100
AcDbLine
 10
13.874000
 20
6.585000
 30
0.0
 11
12.506000
 21
6.585000
 31
0.0
  0
LINE
  5
189
100
AcDbEntity
  8
0
 62
7
100
AcDbLine
 10
12.506000
 20
6.585000
 30
0.0
 11
12.506000
 21
10.185000
 31
0.0
  0
LINE
  5
18a
100
AcDbEntity
  8
0
 62
7
100
AcDbLine
 10
12.506000
 20
10.185000
 30
0.0
 11
13.874000
 21
10.185000
 31
0.0
  0
LINE
  5
18b
100
AcDbEntity
  8
0
 62
7
100
AcDbLine
 10
13.874000
 20
10.185000
 30
0.0
 11
13.874000
 21
6.585000
 31
0.0
  0
LINE
  5
18c
100
AcDbEntity
  8
0
 62
7
100
AcDbLine
 10
13.572400
 20
10.680730
 30
0.0
 11
12.835800
 21
10.680730
 31
0.0
  0
LINE
  5
18d
100
AcDbEntity
  8
0
 62
7
100
AcDbLine
 10
12.835800
 20
10.680730
 30
0.0
 11
12.835800
 21
10.172730
 31
0.0
  0
LINE
  5
18e
100
AcDbEntity
  8
0
 62
7
100
AcDbLine
 10
13.572400
 20
10.172730
 30
0.0
 11
13.572400
 21
10.680730
 31
0.0
  0
LINE
  5
18f
100
AcDbEntity
  8
0
 62
7
100
AcDbLine
 10
12.835800
 20
10.172730
 30
0.0
 11
13.572400
 21
10.172730
 31
0.0
  0
LINE
  5
190
100
AcDbEntity
  8
0
 62
7
100
AcDbLine
 10
13.199050
 20
6.273930
 30
0.0
 11
13.199050
 21
6.273930
 31
0.0
  0
SPLINE
  5
191
100
AcDbEntity
  8
0
 62
7
100
AcDbSpline
 70
0
 71
3
 72
25
 73
21
 74
19
 40
0.000000
 40
0.000000
 40
0.000000
 40
0.000000
 40
0.426274
 40
0.844957
 40
1.271231
 40
1.697505
 40
2.116188
 40
2.542462
 40
2.968736
 40
3.387419
 40
3.813693
 40
4.239967
 40
4.658650
 40
5.084924
 40
5.369211
 40
5.651146
 40
5.935434
 40
6.219721
 40
6.501656
 40
6.785944
 40
6.785944
 40
6.785944
 40
6.785944
 10
13.199050
 20
6.273930
 30
0.0
 10
13.056041
 20
6.257428
 30
0.0
 10
12.772570
 20
6.224718
 30
0.0
 10
12.411329
 20
5.973795
 30
0.0
 10
12.169279
 20
5.615026
 30
0.0
 10
12.084916
 20
5.187657
 30
0.0
 10
12.169675
 20
4.761727
 30
0.0
 10
12.410897
 20
4.399767
 30
0.0
 10
12.772808
 20
4.158557
 30
0.0
 10
13.198920
 20
4.073797
 30
0.0
 10
13.625598
 20
4.158149
 30
0.0
 10
13.986941
 20
4.400246
 30
0.0
 10
14.228370
 20
4.761313
 30
0.0
 10
14.303994
 20
5.140744
 30
0.0
 10
14.260033
 20
5.472200
 30
0.0
 10
14.150348
 20
5.737090
 30
0.0
 10
13.975837
 20
5.964956
 30
0.0
 10
13.748257
 20
6.138324
 30
0.0
 10
13.483365
 20
6.252271
 30
0.0
 10
13.294084
 20
6.266690
 30
0.0
 10
13.199050
 20
6.273930
 30
0.0
 11
13.199050
 21
6.273930
 31
0.0
 11
12.781060
 21
6.190301
 31
0.0
 11
12.432938
 21
5.957693
 31
0.0
 11
12.195717
 21
5.603524
 31
0.0
 11
12.113022
 21
5.185348
 31
0.0
 11
12.194703
 21
4.774710
 31
0.0
 11
12.431132
 21
4.420012
 31
0.0
 11
12.785830
 21
4.183583
 31
0.0
 11
13.196468
 21
4.101902
 31
0.0
 11
13.614644
 21
4.184597
 31
0.0
 11
13.968813
 21
4.421818
 31
0.0
 11
14.201421
 21
4.769940
 31
0.0
 11
14.285050
 21
5.187930
 31
0.0
 11
14.247843
 21
5.469772
 31
0.0
 11
14.139951
 21
5.730246
 31
0.0
 11
13.966968
 21
5.955848
 31
0.0
 11
13.741366
 21
6.128831
 31
0.0
 11
13.480892
 21
6.236723
 31
0.0
 11
13.199050
 21
6.273930
 31
0.0
  0
SPLINE
  5
192
100
AcDbEntity
  8
0
 62
7
100
AcDbSpline
 70
0
 71
3
 72
10
 73
6
 74
4
 40
0.000000
 40
0.000000
 40
0.000000
 40
0.000000
 40
0.013091
 40
0.026171
 40
0.039262
 40
0.039262
 40
0.039262
 40
0.039262
 10
9.725480
 20
3.060370
 30
0.0
 10
9.721644
 20
3.062453
 30
0.0
 10
9.713974
 20
3.066618
 30
0.0
 10
9.701853
 20
3.071640
 30
0.0
 10
9.693486
 20
3.074120
 30
0.0
 10
9.689300
 20
3.075360
 30
0.0
 11
9.725480
 21
3.060370
 31
0.0
 11
9.713868
 21
3.066416
 31
0.0
 11
9.701785
 21
3.071422
 31
0.0
 11
9.689300
 21
3.075360
 31
0.0
  0
LINE
  5
193
100
AcDbEntity
  8
0
 62
7
100
AcDbLine
 10
20.702730
 20
6.825930
 30
0.0
 11
20.737590
 21
6.646590
 31
0.0
  0
SPLINE
  5
194
100
AcDbEntity
  8
0
 62
7
100
AcDbSpline
 70
0
 71
3
 72
13
 73
9
 74
7
 40
0.000000
 40
0.000000
 40
0.000000
 40
0.000000
 40
0.041012
 40
0.081656
 40
0.122668
 40
0.163681
 40
0.204324
 40
0.245337
 40
0.245337
 40
0.245337
 40
0.245337
 10
20.702730
 20
6.825930
 30
0.0
 10
20.699042
 20
6.839184
 30
0.0
 10
20.691700
 20
6.865574
 30
0.0
 10
20.667633
 20
6.899556
 30
0.0
 10
20.636005
 20
6.926170
 30
0.0
 10
20.598220
 20
6.942931
 30
0.0
 10
20.557127
 20
6.949665
 30
0.0
 10
20.530189
 20
6.944696
 30
0.0
 10
20.516660
 20
6.942200
 30
0.0
 11
20.702730
 21
6.825930
 31
0.0
 11
20.689478
 21
6.864742
 31
0.0
 11
20.666459
 21
6.898239
 31
0.0
 11
20.634976
 21
6.924523
 31
0.0
 11
20.597551
 21
6.941297
 31
0.0
 11
20.557354
 21
6.947303
 31
0.0
 11
20.516660
 21
6.942200
 31
0.0
  0
SPLINE
  5
195
100
AcDbEntity
  8
0
 62
7
100
AcDbSpline
 70
0
 71
3
 72
13
 73
9
 74
7
 40
0.000000
 40
0.000000
 40
0.000000
 40
0.000000
 40
0.039266
 40
0.078208
 40
0.117474
 40
0.156740
 40
0.195682
 40
0.234948
 40
0.234948
 40
0.234948
 40
0.234948
 10
18.062090
 20
5.740980
 30
0.0
 10
18.049669
 20
5.736617
 30
0.0
 10
18.024930
 20
5.727927
 30
0.0
 10
17.993673
 20
5.703258
 30
0.0
 10
17.969466
 20
5.671983
 30
0.0
 10
17.954483
 20
5.635382
 30
0.0
 10
17.948746
 20
5.595979
 30
0.0
 10
17.953589
 20
5.570209
 30
0.0
 10
17.956020
 20
5.557270
 30
0.0
 11
18.062090
 21
5.740980
 31
0.0
 11
18.025818
 21
5.725941
 31
0.0
 11
17.994923
 21
5.702236
 31
0.0
 11
17.971007
 21
5.671093
 31
0.0
 11
17.955993
 21
5.634810
 31
0.0
 11
17.950909
 21
5.596202
 31
0.0
 11
17.956020
 21
5.557270
 31
0.0
  0
SPLINE
  5
196
100
AcDbEntity
  8
0
 62
7
100
AcDbSpline
 70
0
 71
3
 72
13
 73
9
 74
7
 40
0.000000
 40
0.000000
 40
0.000000
 40
0.000000
 40
0.039266
 40
0.078207
 40
0.117473
 40
0.156739
 40
0.195679
 40
0.234945
 40
0.234945
 40
0.234945
 40
0.234945
 10
7.142920
 20
6.423490
 30
0.0
 10
7.145352
 20
6.436428
 30
0.0
 10
7.150197
 20
6.462198
 30
0.0
 10
7.144463
 20
6.501601
 30
0.0
 10
7.129482
 20
6.538202
 30
0.0
 10
7.105276
 20
6.569478
 30
0.0
 10
7.074020
 20
6.594147
 30
0.0
 10
7.049281
 20
6.602837
 30
0.0
 10
7.036860
 20
6.607200
 30
0.0
 11
7.142920
 21
6.423490
 31
0.0
 11
7.148034
 21
6.462421
 31
0.0
 11
7.142953
 21
6.501029
 31
0.0
 11
7.127940
 21
6.537312
 31
0.0
 11
7.104026
 21
6.568456
 31
0.0
 11
7.073132
 21
6.592161
 31
0.0
 11
7.036860
 21
6.607200
 31
0.0
  0
LINE
  5
197
100
AcDbEntity
  8
0
 62
7
100
AcDbLine
 10
24.462300
 20
8.391670
 30
0.0
 11
24.678010
 21
5.926090
 31
0.0
  0
SPLINE
  5
198
100
AcDbEntity
  8
0
 62
7
100
AcDbSpline
 70
0
 71
3
 72
13
 73
9
 74
7
 40
0.000000
 40
0.000000
 40
0.000000
 40
0.000000
 40
0.039267
 40
0.078209
 40
0.117476
 40
0.156743
 40
0.195685
 40
0.234952
 40
0.234952
 40
0.234952
 40
0.234952
 10
19.112530
 20
6.022450
 30
0.0
 10
19.124952
 20
6.026812
 30
0.0
 10
19.149692
 20
6.035501
 30
0.0
 10
19.180950
 20
6.060169
 30
0.0
 10
19.205158
 20
6.091445
 30
0.0
 10
19.220141
 20
6.128047
 30
0.0
 10
19.225877
 20
6.167451
 30
0.0
 10
19.221032
 20
6.193221
 30
0.0
 10
19.218600
 20
6.206160
 30
0.0
 11
19.112530
 21
6.022450
 31
0.0
 11
19.148804
 21
6.037487
 31
0.0
 11
19.179700
 21
6.061192
 31
0.0
 11
19.203616
 21
6.092335
 31
0.0
 11
19.218631
 21
6.128618
 31
0.0
 11
19.223713
 21
6.167227
 31
0.0
 11
19.218600
 21
6.206160
 31
0.0
  0
SPLINE
  5
199
100
AcDbEntity
  8
0
 62
7
100
AcDbSpline
 70
0
 71
3
 72
10
 73
6
 74
4
 40
0.000000
 40
0.000000
 40
0.000000
 40
0.000000
 40
0.078428
 40
0.154530
 40
0.232958
 40
0.232958
 40
0.232958
 40
0.232958
 10
14.859480
 20
2.241500
 30
0.0
 10
14.876194
 20
2.220800
 30
0.0
 10
14.909127
 20
2.180015
 30
0.0
 10
14.990640
 20
2.158170
 30
0.0
 10
15.039555
 20
2.177022
 30
0.0
 10
15.064380
 20
2.186590
 30
0.0
 11
14.859480
 21
2.241500
 31
0.0
 11
14.915067
 21
2.186174
 31
0.0
 11
14.988576
 21
2.166475
 31
0.0
 11
15.064380
 21
2.186590
 31
0.0
  0
LINE
  5
19a
100
AcDbEntity
  8
0
 62
7
100
AcDbLine
 10
9.725480
 20
3.060370
 30
0.0
 11
11.238910
 21
2.186590
 31
0.0
  0
LINE
  5
19b
100
AcDbEntity
  8
0
 62
7
100
AcDbLine
 10
6.800180
 20
12.292170
 30
0.0
 11
6.746250
 21
12.090900
 31
0.0
  0
LINE
  5
19c
100
AcDbEntity
  8
0
 62
7
100
AcDbLine
 10
19.730560
 20
11.982480
 30
0.0
 11
21.596040
 21
12.345090
 31
0.0
  0
SPLINE
  5
19d
100
AcDbEntity
  8
0
 62
7
100
AcDbSpline
 70
0
 71
3
 72
10
 73
6
 74
4
 40
0.000000
 40
0.000000
 40
0.000000
 40
0.000000
 40
0.013091
 40
0.026171
 40
0.039262
 40
0.039262
 40
0.039262
 40
0.039262
 10
16.613990
 20
3.075360
 30
0.0
 10
16.609804
 20
3.074120
 30
0.0
 10
16.601437
 20
3.071640
 30
0.0
 10
16.589316
 20
3.066618
 30
0.0
 10
16.581646
 20
3.062453
 30
0.0
 10
16.577810
 20
3.060370
 30
0.0
 11
16.613990
 21
3.075360
 31
0.0
 11
16.601505
 21
3.071422
 31
0.0
 11
16.589422
 21
3.066416
 31
0.0
 11
16.577810
 21
3.060370
 31
0.0
  0
LINE
  5
19e
100
AcDbEntity
  8
0
 62
7
100
AcDbLine
 10
5.565700
 20
6.646590
 30
0.0
 11
5.600560
 21
6.825930
 31
0.0
  0
SPLINE
  5
19f
100
AcDbEntity
  8
0
 62
7
100
AcDbSpline
 70
0
 71
3
 72
10
 73
6
 74
4
 40
0.000000
 40
0.000000
 40
0.000000
 40
0.000000
 40
0.073227
 40
0.144524
 40
0.217751
 40
0.217751
 40
0.217751
 40
0.217751
 10
21.957120
 20
11.273620
 30
0.0
 10
21.965321
 20
11.250239
 30
0.0
 10
21.981507
 20
11.204093
 30
0.0
 10
22.043884
 20
11.157089
 30
0.0
 10
22.092704
 20
11.154249
 30
0.0
 10
22.117440
 20
11.152810
 30
0.0
 11
21.957120
 21
11.273620
 31
0.0
 11
21.988196
 21
11.207314
 31
0.0
 11
22.045137
 21
11.164406
 31
0.0
 11
22.117440
 21
11.152810
 31
0.0
  0
LINE
  5
1a0
100
AcDbEntity
  8
0
 62
7
100
AcDbLine
 10
21.771900
 20
12.226470
 30
0.0
 11
21.957120
 21
11.273620
 31
0.0
  0
LINE
  5
1a1
100
AcDbEntity
  8
0
 62
7
100
AcDbLine
 10
17.493990
 20
11.753830
 30
0.0
 11
17.552220
 21
11.536500
 31
0.0
  0
SPLINE
  5
1a2
100
AcDbEntity
  8
0
 62
7
100
AcDbSpline
 70
0
 71
3
 72
13
 73
9
 74
7
 40
0.000000
 40
0.000000
 40
0.000000
 40
0.000000
 40
0.039266
 40
0.078206
 40
0.117472
 40
0.156737
 40
0.195678
 40
0.234944
 40
0.234944
 40
0.234944
 40
0.234944
 10
3.534860
 20
5.608460
 30
0.0
 10
3.548024
 20
5.608311
 30
0.0
 10
3.574243
 20
5.608015
 30
0.0
 10
3.612052
 20
5.620505
 30
0.0
 10
3.645495
 20
5.641615
 30
0.0
 10
3.672092
 20
5.670883
 30
0.0
 10
3.690958
 20
5.705948
 30
0.0
 10
3.695220
 20
5.731820
 30
0.0
 10
3.697360
 20
5.744810
 30
0.0
 11
3.534860
 21
5.608460
 31
0.0
 11
3.574088
 21
5.610185
 31
0.0
 11
3.611226
 21
5.621893
 31
0.0
 11
3.644351
 21
5.642978
 31
0.0
 11
3.670868
 21
5.671937
 31
0.0
 11
3.688849
 21
5.706478
 31
0.0
 11
3.697360
 21
5.744810
 31
0.0
  0
LINE
  5
1a3
100
AcDbEntity
  8
0
 62
7
100
AcDbLine
 10
16.613990
 20
3.075360
 30
0.0
 11
18.341710
 21
3.538300
 31
0.0
  0
LINE
  5
1a4
100
AcDbEntity
  8
0
 62
7
100
AcDbLine
 10
3.956570
 20
6.806570
 30
0.0
 11
5.389830
 21
6.527970
 31
0.0
  0
LINE
  5
1a5
100
AcDbEntity
  8
0
 62
7
100
AcDbLine
 10
7.961580
 20
3.538300
 30
0.0
 11
9.689300
 21
3.075360
 31
0.0
  0
SPLINE
  5
1a6
100
AcDbEntity
  8
0
 62
7
100
AcDbSpline
 70
0
 71
3
 72
13
 73
9
 74
7
 40
0.000000
 40
0.000000
 40
0.000000
 40
0.000000
 40
0.039267
 40
0.078209
 40
0.117476
 40
0.156743
 40
0.195685
 40
0.234952
 40
0.234952
 40
0.234952
 40
0.234952
 10
7.855510
 20
3.722010
 30
0.0
 10
7.853078
 20
3.709071
 30
0.0
 10
7.848233
 20
3.683301
 30
0.0
 10
7.853969
 20
3.643897
 30
0.0
 10
7.868952
 20
3.607295
 30
0.0
 10
7.893160
 20
3.576019
 30
0.0
 10
7.924418
 20
3.551351
 30
0.0
 10
7.949158
 20
3.542662
 30
0.0
 10
7.961580
 20
3.538300
 30
0.0
 11
7.855510
 21
3.722010
 31
0.0
 11
7.850397
 21
3.683077
 31
0.0
 11
7.855479
 21
3.644468
 31
0.0
 11
7.870494
 21
3.608185
 31
0.0
 11
7.894410
 21
3.577042
 31
0.0
 11
7.925306
 21
3.553337
 31
0.0
 11
7.961580
 21
3.538300
 31
0.0
  0
SPLINE
  5
1a7
100
AcDbEntity
  8
0
 62
7
100
AcDbSpline
 70
0
 71
3
 72
10
 73
6
 74
4
 40
0.000000
 40
0.000000
 40
0.000000
 40
0.000000
 40
0.073226
 40
0.144522
 40
0.217748
 40
0.217748
 40
0.217748
 40
0.217748
 10
4.185850
 20
11.152810
 30
0.0
 10
4.210585
 20
11.154250
 30
0.0
 10
4.259405
 20
11.157092
 30
0.0
 10
4.321780
 20
11.204095
 30
0.0
 10
4.337968
 20
11.250240
 30
0.0
 10
4.346170
 20
11.273620
 30
0.0
 11
4.185850
 21
11.152810
 31
0.0
 11
4.258151
 21
11.164409
 31
0.0
 11
4.315091
 21
11.207316
 31
0.0
 11
4.346170
 21
11.273620
 31
0.0
  0
LINE
  5
1a8
100
AcDbEntity
  8
0
 62
7
100
AcDbLine
 10
8.703240
 20
11.937540
 30
0.0
 11
6.983890
 21
12.398240
 31
0.0
  0
LINE
  5
1a9
100
AcDbEntity
  8
0
 62
7
100
AcDbLine
 10
19.218600
 20
6.206160
 30
0.0
 11
19.160360
 21
6.423490
 31
0.0
  0
SPLINE
  5
1aa
100
AcDbEntity
  8
0
 62
7
100
AcDbSpline
 70
0
 71
3
 72
10
 73
6
 74
4
 40
0.000000
 40
0.000000
 40
0.000000
 40
0.000000
 40
0.078428
 40
0.154530
 40
0.232957
 40
0.232957
 40
0.232957
 40
0.232957
 10
19.266430
 20
6.607200
 30
0.0
 10
19.242110
 20
6.596411
 30
0.0
 10
19.194192
 20
6.575154
 30
0.0
 10
19.151997
 20
6.502073
 30
0.0
 10
19.157544
 20
6.449946
 30
0.0
 10
19.160360
 20
6.423490
 30
0.0
 11
19.266430
 21
6.607200
 31
0.0
 11
19.198604
 21
6.567823
 31
0.0
 11
19.160552
 21
6.501917
 31
0.0
 11
19.160360
 21
6.423490
 31
0.0
  0
SPLINE
  5
1ab
100
AcDbEntity
  8
0
 62
7
100
AcDbSpline
 70
0
 71
3
 72
10
 73
6
 74
4
 40
0.000000
 40
0.000000
 40
0.000000
 40
0.000000
 40
0.755461
 40
1.509845
 40
2.265305
 40
2.265305
 40
2.265305
 40
2.265305
 10
14.279970
 20
3.114270
 30
0.0
 10
14.030073
 20
3.146573
 30
0.0
 10
13.530636
 20
3.211134
 30
0.0
 10
12.772654
 20
3.211134
 30
0.0
 10
12.273217
 20
3.146573
 30
0.0
 10
12.023320
 20
3.114270
 30
0.0
 11
14.279970
 21
3.114270
 31
0.0
 11
13.528837
 21
3.195017
 31
0.0
 11
12.774453
 21
3.195017
 31
0.0
 11
12.023320
 21
3.114270
 31
0.0
  0
SPLINE
  5
1ac
100
AcDbEntity
  8
0
 62
7
100
AcDbSpline
 70
0
 71
3
 72
10
 73
6
 74
4
 40
0.000000
 40
0.000000
 40
0.000000
 40
0.000000
 40
0.078431
 40
0.154537
 40
0.232968
 40
0.232968
 40
0.232968
 40
0.232968
 10
22.605920
 20
5.744810
 30
0.0
 10
22.612322
 20
5.718985
 30
0.0
 10
22.624936
 20
5.668101
 30
0.0
 10
22.689585
 20
5.613855
 30
0.0
 10
22.741886
 20
5.610270
 30
0.0
 10
22.768430
 20
5.608450
 30
0.0
 11
22.605920
 21
5.744810
 31
0.0
 11
22.632923
 21
5.671173
 31
0.0
 11
22.691223
 21
5.622254
 31
0.0
 11
22.768430
 21
5.608450
 31
0.0
  0
SPLINE
  5
1ad
100
AcDbEntity
  8
0
 62
7
100
AcDbSpline
 70
0
 71
3
 72
10
 73
6
 74
4
 40
0.000000
 40
0.000000
 40
0.000000
 40
0.000000
 40
0.078427
 40
0.154528
 40
0.232954
 40
0.232954
 40
0.232954
 40
0.232954
 10
8.809300
 20
11.753830
 30
0.0
 10
8.812118
 20
11.780285
 30
0.0
 10
8.817669
 20
11.832411
 30
0.0
 10
8.775477
 20
11.905494
 30
0.0
 10
8.727559
 20
11.926751
 30
0.0
 10
8.703240
 20
11.937540
 30
0.0
 11
8.809300
 21
11.753830
 31
0.0
 11
8.809114
 21
11.832257
 31
0.0
 11
8.771065
 21
11.898163
 31
0.0
 11
8.703240
 21
11.937540
 31
0.0
  0
LINE
  5
1ae
100
AcDbEntity
  8
0
 62
7
100
AcDbLine
 10
8.857130
 20
11.352780
 30
0.0
 11
12.194020
 21
10.560510
 31
0.0
  0
LINE
  5
1af
100
AcDbEntity
  8
0
 62
7
100
AcDbLine
 10
19.319400
 20
12.398240
 30
0.0
 11
17.600050
 21
11.937540
 31
0.0
  0
LINE
  5
1b0
100
AcDbEntity
  8
0
 62
7
100
AcDbLine
 10
7.142930
 20
6.423490
 30
0.0
 11
7.084690
 21
6.206160
 31
0.0
  0
LINE
  5
1b1
100
AcDbEntity
  8
0
 62
7
100
AcDbLine
 10
1.625280
 20
5.926090
 30
0.0
 11
1.840990
 21
8.391670
 31
0.0
  0
LINE
  5
1b2
100
AcDbEntity
  8
0
 62
7
100
AcDbLine
 10
4.346170
 20
11.273620
 30
0.0
 11
4.531390
 21
12.226470
 31
0.0
  0
LINE
  5
1b3
100
AcDbEntity
  8
0
 62
7
100
AcDbLine
 10
19.557050
 20
12.090900
 30
0.0
 11
19.503110
 21
12.292170
 31
0.0
  0
SPLINE
  5
1b4
100
AcDbEntity
  8
0
 62
7
100
AcDbSpline
 70
0
 71
3
 72
10
 73
6
 74
4
 40
0.000000
 40
0.000000
 40
0.000000
 40
0.000000
 40
0.078429
 40
0.154533
 40
0.232962
 40
0.232962
 40
0.232962
 40
0.232962
 10
8.751070
 20
11.536500
 30
0.0
 10
8.748252
 20
11.510044
 30
0.0
 10
8.742700
 20
11.457916
 30
0.0
 10
8.784892
 20
11.384830
 30
0.0
 10
8.832810
 20
11.363570
 30
0.0
 10
8.857130
 20
11.352780
 30
0.0
 11
8.751070
 21
11.536500
 31
0.0
 11
8.751256
 21
11.458071
 31
0.0
 11
8.789305
 21
11.392162
 31
0.0
 11
8.857130
 21
11.352780
 31
0.0
  0
SPLINE
  5
1b5
100
AcDbEntity
  8
0
 62
7
100
AcDbSpline
 70
0
 71
3
 72
13
 73
9
 74
7
 40
0.000000
 40
0.000000
 40
0.000000
 40
0.000000
 40
0.041883
 40
0.083373
 40
0.125255
 40
0.167138
 40
0.208628
 40
0.250511
 40
0.250511
 40
0.250511
 40
0.250511
 10
3.956570
 20
6.806570
 30
0.0
 10
3.942603
 20
6.808124
 30
0.0
 10
3.914799
 20
6.811218
 30
0.0
 10
3.873479
 20
6.801051
 30
0.0
 10
3.836458
 20
6.780739
 30
0.0
 10
3.806728
 20
6.750751
 30
0.0
 10
3.785566
 20
6.713834
 30
0.0
 10
3.780876
 20
6.686255
 30
0.0
 10
3.778520
 20
6.672400
 30
0.0
 11
3.956570
 21
6.806570
 31
0.0
 11
3.914744
 21
6.808744
 31
0.0
 11
3.874317
 21
6.799411
 31
0.0
 11
3.837677
 21
6.779121
 31
0.0
 11
3.808074
 21
6.749493
 31
0.0
 11
3.787959
 21
6.713205
 31
0.0
 11
3.778520
 21
6.672400
 31
0.0
  0
LINE
  5
1b6
100
AcDbEntity
  8
0
 62
7
100
AcDbLine
 10
7.855510
 20
3.722010
 30
0.0
 11
8.347270
 21
5.557270
 31
0.0
  0
LINE
  5
1b7
100
AcDbEntity
  8
0
 62
7
100
AcDbLine
 10
4.707250
 20
12.345090
 30
0.0
 11
6.572730
 21
11.982480
 31
0.0
  0
LINE
  5
1b8
100
AcDbEntity
  8
0
 62
7
100
AcDbLine
 10
18.062090
 20
5.740980
 30
0.0
 11
19.112530
 21
6.022450
 31
0.0
  0
LINE
  5
1b9
100
AcDbEntity
  8
0
 62
7
100
AcDbLine
 10
17.956020
 20
5.557270
 30
0.0
 11
18.447780
 21
3.722010
 31
0.0
  0
SPLINE
  5
1ba
100
AcDbEntity
  8
0
 62
7
100
AcDbSpline
 70
0
 71
3
 72
10
 73
6
 74
4
 40
0.000000
 40
0.000000
 40
0.000000
 40
0.000000
 40
0.078426
 40
0.154526
 40
0.232953
 40
0.232953
 40
0.232953
 40
0.232953
 10
24.541660
 20
5.763590
 30
0.0
 10
24.567483
 20
5.769992
 30
0.0
 10
24.618364
 20
5.782605
 30
0.0
 10
24.672606
 20
5.847250
 30
0.0
 10
24.676191
 20
5.899548
 30
0.0
 10
24.678010
 20
5.926090
 30
0.0
 11
24.541660
 21
5.763590
 31
0.0
 11
24.615292
 21
5.790591
 31
0.0
 11
24.664207
 21
5.848888
 31
0.0
 11
24.678010
 21
5.926090
 31
0.0
  0
SPLINE
  5
1bb
100
AcDbEntity
  8
0
 62
7
100
AcDbSpline
 70
0
 71
3
 72
10
 73
6
 74
4
 40
0.000000
 40
0.000000
 40
0.000000
 40
0.000000
 40
0.078427
 40
0.154528
 40
0.232954
 40
0.232954
 40
0.232954
 40
0.232954
 10
17.600050
 20
11.937540
 30
0.0
 10
17.575731
 20
11.926751
 30
0.0
 10
17.527813
 20
11.905494
 30
0.0
 10
17.485621
 20
11.832411
 30
0.0
 10
17.491172
 20
11.780285
 30
0.0
 10
17.493990
 20
11.753830
 30
0.0
 11
17.600050
 21
11.937540
 31
0.0
 11
17.532225
 21
11.898163
 31
0.0
 11
17.494176
 21
11.832257
 31
0.0
 11
17.493990
 21
11.753830
 31
0.0
  0
LINE
  5
1bc
100
AcDbEntity
  8
0
 62
7
100
AcDbLine
 10
15.064380
 20
2.186590
 30
0.0
 11
16.577810
 21
3.060370
 31
0.0
  0
SPLINE
  5
1bd
100
AcDbEntity
  8
0
 62
7
100
AcDbSpline
 70
0
 71
3
 72
13
 73
9
 74
7
 40
0.000000
 40
0.000000
 40
0.000000
 40
0.000000
 40
0.039266
 40
0.078206
 40
0.117472
 40
0.156737
 40
0.195678
 40
0.234943
 40
0.234943
 40
0.234943
 40
0.234943
 10
21.771900
 20
12.226470
 30
0.0
 10
21.768414
 20
12.239165
 30
0.0
 10
21.761472
 20
12.264450
 30
0.0
 10
21.739044
 20
12.297351
 30
0.0
 10
21.709534
 20
12.323680
 30
0.0
 10
21.674068
 20
12.341178
 30
0.0
 10
21.635161
 20
12.349648
 30
0.0
 10
21.609116
 20
12.346614
 30
0.0
 10
21.596040
 20
12.345090
 30
0.0
 11
21.771900
 21
12.226470
 31
0.0
 11
21.759429
 21
12.263702
 31
0.0
 11
21.737937
 21
12.296175
 31
0.0
 11
21.708538
 21
12.322204
 31
0.0
 11
21.673392
 21
12.339711
 31
0.0
 11
21.635233
 21
12.347474
 31
0.0
 11
21.596040
 21
12.345090
 31
0.0
  0
SPLINE
  5
1be
100
AcDbEntity
  8
0
 62
7
100
AcDbSpline
 70
0
 71
3
 72
13
 73
9
 74
7
 40
0.000000
 40
0.000000
 40
0.000000
 40
0.000000
 40
0.039266
 40
0.078207
 40
0.117473
 40
0.156739
 40
0.195679
 40
0.234945
 40
0.234945
 40
0.234945
 40
0.234945
 10
7.084700
 20
6.206160
 30
0.0
 10
7.082268
 20
6.193222
 30
0.0
 10
7.077423
 20
6.167452
 30
0.0
 10
7.083157
 20
6.128049
 30
0.0
 10
7.098138
 20
6.091448
 30
0.0
 10
7.122344
 20
6.060172
 30
0.0
 10
7.153600
 20
6.035503
 30
0.0
 10
7.178339
 20
6.026813
 30
0.0
 10
7.190760
 20
6.022450
 30
0.0
 11
7.084700
 21
6.206160
 31
0.0
 11
7.079586
 21
6.167229
 31
0.0
 11
7.084667
 21
6.128621
 31
0.0
 11
7.099680
 21
6.092338
 31
0.0
 11
7.123594
 21
6.061194
 31
0.0
 11
7.154488
 21
6.037489
 31
0.0
 11
7.190760
 21
6.022450
 31
0.0
  0
LINE
  5
1bf
100
AcDbEntity
  8
0
 62
7
100
AcDbLine
 10
24.217830
 20
11.186000
 30
0.0
 11
24.447920
 21
8.556050
 31
0.0
  0
SPLINE
  5
1c0
100
AcDbEntity
  8
0
 62
7
100
AcDbSpline
 70
0
 71
3
 72
10
 73
6
 74
4
 40
0.000000
 40
0.000000
 40
0.000000
 40
0.000000
 40
0.078425
 40
0.154525
 40
0.232950
 40
0.232950
 40
0.232950
 40
0.232950
 10
11.238910
 20
2.186600
 30
0.0
 10
11.263735
 20
2.177033
 30
0.0
 10
11.312648
 20
2.158183
 30
0.0
 10
11.394158
 20
2.180022
 30
0.0
 10
11.427094
 20
2.220803
 30
0.0
 10
11.443810
 20
2.241500
 30
0.0
 11
11.238910
 21
2.186600
 31
0.0
 11
11.314712
 21
2.166486
 31
0.0
 11
11.388219
 21
2.186181
 31
0.0
 11
11.443810
 21
2.241500
 31
0.0
  0
LINE
  5
1c1
100
AcDbEntity
  8
0
 62
7
100
AcDbLine
 10
14.394270
 20
3.040080
 30
0.0
 11
14.859480
 21
2.241500
 31
0.0
  0
LINE
  5
1c2
100
AcDbEntity
  8
0
 62
7
100
AcDbLine
 10
14.109560
 20
10.559890
 30
0.0
 11
17.446160
 21
11.352780
 31
0.0
  0
SPLINE
  5
1c3
100
AcDbEntity
  8
0
 62
7
100
AcDbSpline
 70
0
 71
3
 72
10
 73
6
 74
4
 40
0.000000
 40
0.000000
 40
0.000000
 40
0.000000
 40
0.047141
 40
0.093728
 40
0.140868
 40
0.140868
 40
0.140868
 40
0.140868
 10
12.023320
 20
3.114270
 30
0.0
 10
12.007826
 20
3.111159
 30
0.0
 10
11.977021
 20
3.104973
 30
0.0
 10
11.936363
 20
3.078582
 30
0.0
 10
11.918170
 20
3.052965
 30
0.0
 10
11.909020
 20
3.040080
 30
0.0
 11
12.023320
 21
3.114270
 31
0.0
 11
11.977788
 21
3.102059
 31
0.0
 11
11.938711
 21
3.076695
 31
0.0
 11
11.909020
 21
3.040080
 31
0.0
  0
SPLINE
  5
1c4
100
AcDbEntity
  8
0
 62
7
100
AcDbSpline
 70
0
 71
3
 72
13
 73
9
 74
7
 40
0.000000
 40
0.000000
 40
0.000000
 40
0.000000
 40
0.039266
 40
0.078208
 40
0.117474
 40
0.156741
 40
0.195682
 40
0.234948
 40
0.234948
 40
0.234948
 40
0.234948
 10
2.247960
 20
11.322360
 30
0.0
 10
2.234796
 20
11.322508
 30
0.0
 10
2.208576
 20
11.322802
 30
0.0
 10
2.170768
 20
11.310310
 30
0.0
 10
2.137325
 20
11.289199
 30
0.0
 10
2.110728
 20
11.259928
 30
0.0
 10
2.091862
 20
11.224862
 30
0.0
 10
2.087600
 20
11.198990
 30
0.0
 10
2.085460
 20
11.186000
 30
0.0
 11
2.247960
 21
11.322360
 31
0.0
 11
2.208732
 21
11.320633
 31
0.0
 11
2.171593
 21
11.308922
 31
0.0
 11
2.138469
 21
11.287835
 31
0.0
 11
2.111952
 21
11.258875
 31
0.0
 11
2.093971
 21
11.224333
 31
0.0
 11
2.085460
 21
11.186000
 31
0.0
  0
SPLINE
  5
1c5
100
AcDbEntity
  8
0
 62
7
100
AcDbSpline
 70
0
 71
3
 72
10
 73
6
 74
4
 40
0.000000
 40
0.000000
 40
0.000000
 40
0.000000
 40
0.078428
 40
0.154530
 40
0.232958
 40
0.232958
 40
0.232958
 40
0.232958
 10
24.217830
 20
11.186000
 30
0.0
 10
24.211429
 20
11.211824
 30
0.0
 10
24.198815
 20
11.262705
 30
0.0
 10
24.134171
 20
11.316950
 30
0.0
 10
24.081873
 20
11.320539
 30
0.0
 10
24.055330
 20
11.322360
 30
0.0
 11
24.217830
 21
11.186000
 31
0.0
 11
24.190829
 21
11.259633
 31
0.0
 11
24.132533
 21
11.308552
 31
0.0
 11
24.055330
 21
11.322360
 31
0.0
  0
SPLINE
  5
1c6
100
AcDbEntity
  8
0
 62
7
100
AcDbSpline
 70
0
 71
3
 72
10
 73
6
 74
4
 40
0.000000
 40
0.000000
 40
0.000000
 40
0.000000
 40
0.074961
 40
0.147865
 40
0.222825
 40
0.222825
 40
0.222825
 40
0.222825
 10
19.557050
 20
12.090900
 30
0.0
 10
19.567183
 20
12.067625
 30
0.0
 10
19.587171
 20
12.021713
 30
0.0
 10
19.655171
 20
11.979222
 30
0.0
 10
19.705198
 20
11.981384
 30
0.0
 10
19.730560
 20
11.982480
 30
0.0
 11
19.557050
 21
12.090900
 31
0.0
 11
19.593909
 21
12.025627
 31
0.0
 11
19.655735
 21
11.986994
 31
0.0
 11
19.730560
 21
11.982480
 31
0.0
  0
SPLINE
  5
1c7
100
AcDbEntity
  8
0
 62
7
100
AcDbSpline
 70
0
 71
3
 72
13
 73
9
 74
7
 40
0.000000
 40
0.000000
 40
0.000000
 40
0.000000
 40
0.039264
 40
0.078203
 40
0.117467
 40
0.156730
 40
0.195669
 40
0.234933
 40
0.234933
 40
0.234933
 40
0.234933
 10
17.446160
 20
11.352790
 30
0.0
 10
17.458580
 20
11.357153
 30
0.0
 10
17.483318
 20
11.365843
 30
0.0
 10
17.514572
 20
11.390510
 30
0.0
 10
17.538777
 20
11.421784
 30
0.0
 10
17.553759
 20
11.458383
 30
0.0
 10
17.559494
 20
11.497784
 30
0.0
 10
17.554652
 20
11.523552
 30
0.0
 10
17.552220
 20
11.536490
 30
0.0
 11
17.446160
 21
11.352790
 31
0.0
 11
17.482430
 21
11.367828
 31
0.0
 11
17.513322
 21
11.391533
 31
0.0
 11
17.537236
 21
11.422674
 31
0.0
 11
17.552249
 21
11.458954
 31
0.0
 11
17.557331
 21
11.497560
 31
0.0
 11
17.552220
 21
11.536490
 31
0.0
  0
LINE
  5
1c8
100
AcDbEntity
  8
0
 62
7
100
AcDbLine
 10
22.117440
 20
11.152810
 30
0.0
 11
24.055330
 21
11.322360
 31
0.0
  0
SPLINE
  5
1c9
100
AcDbEntity
  8
0
 62
7
100
AcDbSpline
 70
0
 71
3
 72
10
 73
6
 74
4
 40
0.000000
 40
0.000000
 40
0.000000
 40
0.000000
 40
0.078427
 40
0.154528
 40
0.232954
 40
0.232954
 40
0.232954
 40
0.232954
 10
8.347270
 20
5.557270
 30
0.0
 10
8.350088
 20
5.583725
 30
0.0
 10
8.355639
 20
5.635851
 30
0.0
 10
8.313447
 20
5.708934
 30
0.0
 10
8.265529
 20
5.730191
 30
0.0
 10
8.241210
 20
5.740980
 30
0.0
 11
8.347270
 21
5.557270
 31
0.0
 11
8.347084
 21
5.635697
 31
0.0
 11
8.309035
 21
5.701603
 31
0.0
 11
8.241210
 21
5.740980
 31
0.0
  0
SPLINE
  5
1ca
100
AcDbEntity
  8
0
 62
7
100
AcDbSpline
 70
0
 71
3
 72
13
 73
9
 74
7
 40
0.000000
 40
0.000000
 40
0.000000
 40
0.000000
 40
0.041884
 40
0.083375
 40
0.125258
 40
0.167142
 40
0.208633
 40
0.250516
 40
0.250516
 40
0.250516
 40
0.250516
 10
22.524770
 20
6.672400
 30
0.0
 10
22.522415
 20
6.686255
 30
0.0
 10
22.517727
 20
6.713835
 30
0.0
 10
22.496565
 20
6.750754
 30
0.0
 10
22.466835
 20
6.780743
 30
0.0
 10
22.429813
 20
6.801055
 30
0.0
 10
22.388492
 20
6.811221
 30
0.0
 10
22.360688
 20
6.808125
 30
0.0
 10
22.346720
 20
6.806570
 30
0.0
 11
22.524770
 21
6.672400
 31
0.0
 11
22.515333
 21
6.713207
 31
0.0
 11
22.495219
 21
6.749496
 31
0.0
 11
22.465616
 21
6.779125
 31
0.0
 11
22.428975
 21
6.799415
 31
0.0
 11
22.388547
 21
6.808747
 31
0.0
 11
22.346720
 21
6.806570
 31
0.0
  0
LINE
  5
1cb
100
AcDbEntity
  8
0
 62
7
100
AcDbLine
 10
20.913460
 20
6.527970
 30
0.0
 11
22.346720
 21
6.806570
 31
0.0
  0
SPLINE
  5
1cc
100
AcDbEntity
  8
0
 62
7
100
AcDbSpline
 70
0
 71
3
 72
13
 73
9
 74
7
 40
0.000000
 40
0.000000
 40
0.000000
 40
0.000000
 40
0.039267
 40
0.078210
 40
0.117477
 40
0.156745
 40
0.195687
 40
0.234955
 40
0.234955
 40
0.234955
 40
0.234955
 10
5.389830
 20
6.527970
 30
0.0
 10
5.402907
 20
6.526446
 30
0.0
 10
5.428952
 20
6.523409
 30
0.0
 10
5.467862
 20
6.531878
 30
0.0
 10
5.503330
 20
6.549376
 30
0.0
 10
5.532842
 20
6.575706
 30
0.0
 10
5.555271
 20
6.608608
 30
0.0
 10
5.562214
 20
6.633894
 30
0.0
 10
5.565700
 20
6.646590
 30
0.0
 11
5.389830
 21
6.527970
 31
0.0
 11
5.429025
 21
6.525583
 31
0.0
 11
5.467186
 21
6.533345
 31
0.0
 11
5.502335
 21
6.550852
 31
0.0
 11
5.531735
 21
6.576882
 31
0.0
 11
5.553229
 21
6.609356
 31
0.0
 11
5.565700
 21
6.646590
 31
0.0
  0
LINE
  5
1cd
100
AcDbEntity
  8
0
 62
7
100
AcDbLine
 10
1.855370
 20
8.556050
 30
0.0
 11
2.085460
 21
11.186000
 31
0.0
  0
LINE
  5
1ce
100
AcDbEntity
  8
0
 62
7
100
AcDbLine
 10
11.443810
 20
2.241500
 30
0.0
 11
11.909020
 21
3.040080
 31
0.0
  0
SPLINE
  5
1cf
100
AcDbEntity
  8
0
 62
7
100
AcDbSpline
 70
0
 71
3
 72
10
 73
6
 74
4
 40
0.000000
 40
0.000000
 40
0.000000
 40
0.000000
 40
0.078429
 40
0.154531
 40
0.232960
 40
0.232960
 40
0.232960
 40
0.232960
 10
20.737590
 20
6.646590
 30
0.0
 10
20.746657
 20
6.621577
 30
0.0
 10
20.764522
 20
6.572293
 30
0.0
 10
20.834484
 20
6.525105
 30
0.0
 10
20.886872
 20
6.527005
 30
0.0
 10
20.913460
 20
6.527970
 30
0.0
 11
20.737590
 21
6.646590
 31
0.0
 11
20.772143
 21
6.576183
 31
0.0
 11
20.835236
 21
6.533628
 31
0.0
 11
20.913460
 21
6.527970
 31
0.0
  0
SPLINE
  5
1d0
100
AcDbEntity
  8
0
 62
7
100
AcDbSpline
 70
0
 71
3
 72
10
 73
6
 74
4
 40
0.000000
 40
0.000000
 40
0.000000
 40
0.000000
 40
0.078428
 40
0.154530
 40
0.232957
 40
0.232957
 40
0.232957
 40
0.232957
 10
18.341710
 20
3.538300
 30
0.0
 10
18.366030
 20
3.549089
 30
0.0
 10
18.413948
 20
3.570346
 30
0.0
 10
18.456143
 20
3.643427
 30
0.0
 10
18.450596
 20
3.695554
 30
0.0
 10
18.447780
 20
3.722010
 30
0.0
 11
18.341710
 21
3.538300
 31
0.0
 11
18.409536
 21
3.577677
 31
0.0
 11
18.447588
 21
3.643583
 31
0.0
 11
18.447780
 21
3.722010
 31
0.0
  0
LINE
  5
1d1
100
AcDbEntity
  8
0
 62
7
100
AcDbLine
 10
22.768430
 20
5.608450
 30
0.0
 11
24.541660
 21
5.763590
 31
0.0
  0
LINE
  5
1d2
100
AcDbEntity
  8
0
 62
7
100
AcDbLine
 10
1.855370
 20
8.556050
 30
0.0
 11
1.840990
 21
8.391670
 31
0.0
  0
LINE
  5
1d3
100
AcDbEntity
  8
0
 62
7
100
AcDbLine
 10
24.462300
 20
8.391670
 30
0.0
 11
24.447920
 21
8.556050
 31
0.0
  0
SPLINE
  5
1d4
100
AcDbEntity
  8
0
 62
7
100
AcDbSpline
 70
0
 71
3
 72
10
 73
6
 74
4
 40
0.000000
 40
0.000000
 40
0.000000
 40
0.000000
 40
0.078426
 40
0.154526
 40
0.232952
 40
0.232952
 40
0.232952
 40
0.232952
 10
4.707250
 20
12.345090
 30
0.0
 10
4.680663
 20
12.346054
 30
0.0
 10
4.628277
 20
12.347955
 30
0.0
 10
4.558317
 20
12.300766
 30
0.0
 10
4.540455
 20
12.251483
 30
0.0
 10
4.531390
 20
12.226470
 30
0.0
 11
4.707250
 21
12.345090
 31
0.0
 11
4.629028
 21
12.339431
 31
0.0
 11
4.565939
 21
12.296876
 31
0.0
 11
4.531390
 21
12.226470
 31
0.0
  0
SPLINE
  5
1d5
100
AcDbEntity
  8
0
 62
7
100
AcDbSpline
 70
0
 71
3
 72
13
 73
9
 74
7
 40
0.000000
 40
0.000000
 40
0.000000
 40
0.000000
 40
0.041011
 40
0.081653
 40
0.122663
 40
0.163674
 40
0.204316
 40
0.245327
 40
0.245327
 40
0.245327
 40
0.245327
 10
5.786630
 20
6.942200
 30
0.0
 10
5.773101
 20
6.944694
 30
0.0
 10
5.746164
 20
6.949660
 30
0.0
 10
5.705073
 20
6.942923
 30
0.0
 10
5.667290
 20
6.926162
 30
0.0
 10
5.635663
 20
6.899550
 30
0.0
 10
5.611594
 20
6.865571
 30
0.0
 10
5.604249
 20
6.839183
 30
0.0
 10
5.600560
 20
6.825930
 30
0.0
 11
5.786630
 21
6.942200
 31
0.0
 11
5.745937
 21
6.947298
 31
0.0
 11
5.705742
 21
6.941290
 31
0.0
 11
5.668319
 21
6.924515
 31
0.0
 11
5.636837
 21
6.898233
 31
0.0
 11
5.613816
 21
6.864739
 31
0.0
 11
5.600560
 21
6.825930
 31
0.0
  0
LINE
  5
1d6
100
AcDbEntity
  8
0
 62
7
100
AcDbLine
 10
5.786630
 20
6.942200
 30
0.0
 11
7.036860
 21
6.607200
 31
0.0
  0
LINE
  5
1d7
100
AcDbEntity
  8
0
 62
7
100
AcDbLine
 10
19.266430
 20
6.607200
 30
0.0
 11
20.516660
 21
6.942200
 31
0.0
  0
LINE
  5
1d8
100
AcDbEntity
  8
0
 62
7
100
AcDbLine
 10
12.194020
 20
10.560510
 30
0.0
 11
14.109560
 21
10.559890
 31
0.0
  0
LINE
  5
1d9
100
AcDbEntity
  8
0
 62
7
100
AcDbLine
 10
3.697360
 20
5.744810
 30
0.0
 11
3.778520
 21
6.672400
 31
0.0
  0
SPLINE
  5
1da
100
AcDbEntity
  8
0
 62
7
100
AcDbSpline
 70
0
 71
3
 72
13
 73
9
 74
7
 40
0.000000
 40
0.000000
 40
0.000000
 40
0.000000
 40
0.039267
 40
0.078209
 40
0.117476
 40
0.156743
 40
0.195685
 40
0.234952
 40
0.234952
 40
0.234952
 40
0.234952
 10
19.503110
 20
12.292170
 30
0.0
 10
19.498748
 20
12.304592
 30
0.0
 10
19.490059
 20
12.329332
 30
0.0
 10
19.465391
 20
12.360590
 30
0.0
 10
19.434115
 20
12.384798
 30
0.0
 10
19.397513
 20
12.399781
 30
0.0
 10
19.358109
 20
12.405517
 30
0.0
 10
19.332339
 20
12.400672
 30
0.0
 10
19.319400
 20
12.398240
 30
0.0
 11
19.503110
 21
12.292170
 31
0.0
 11
19.488073
 21
12.328444
 31
0.0
 11
19.464368
 21
12.359340
 31
0.0
 11
19.433225
 21
12.383256
 31
0.0
 11
19.396942
 21
12.398271
 31
0.0
 11
19.358333
 21
12.403353
 31
0.0
 11
19.319400
 21
12.398240
 31
0.0
  0
SPLINE
  5
1db
100
AcDbEntity
  8
0
 62
7
100
AcDbSpline
 70
0
 71
3
 72
10
 73
6
 74
4
 40
0.000000
 40
0.000000
 40
0.000000
 40
0.000000
 40
0.078426
 40
0.154526
 40
0.232953
 40
0.232953
 40
0.232953
 40
0.232953
 10
1.625280
 20
5.926090
 30
0.0
 10
1.627099
 20
5.899548
 30
0.0
 10
1.630684
 20
5.847250
 30
0.0
 10
1.684926
 20
5.782605
 30
0.0
 10
1.735807
 20
5.769992
 30
0.0
 10
1.761630
 20
5.763590
 30
0.0
 11
1.625280
 21
5.926090
 31
0.0
 11
1.639083
 21
5.848888
 31
0.0
 11
1.687998
 21
5.790591
 31
0.0
 11
1.761630
 21
5.763590
 31
0.0
  0
LINE
  5
1dc
100
AcDbEntity
  8
0
 62
7
100
AcDbLine
 10
2.247960
 20
11.322360
 30
0.0
 11
4.185850
 21
11.152810
 31
0.0
  0
SPLINE
  5
1dd
100
AcDbEntity
  8
0
 62
7
100
AcDbSpline
 70
0
 71
3
 72
10
 73
6
 74
4
 40
0.000000
 40
0.000000
 40
0.000000
 40
0.000000
 40
0.047141
 40
0.093728
 40
0.140870
 40
0.140870
 40
0.140870
 40
0.140870
 10
14.394270
 20
3.040080
 30
0.0
 10
14.385120
 20
3.052965
 30
0.0
 10
14.366929
 20
3.078584
 30
0.0
 10
14.326270
 20
3.104975
 30
0.0
 10
14.295464
 20
3.111159
 30
0.0
 10
14.279970
 20
3.114270
 30
0.0
 11
14.394270
 21
3.040080
 31
0.0
 11
14.364580
 21
3.076697
 31
0.0
 11
14.325503
 21
3.102061
 31
0.0
 11
14.279970
 21
3.114270
 31
0.0
  0
SPLINE
  5
1de
100
AcDbEntity
  8
0
 62
7
100
AcDbSpline
 70
0
 71
3
 72
13
 73
9
 74
7
 40
0.000000
 40
0.000000
 40
0.000000
 40
0.000000
 40
0.039267
 40
0.078209
 40
0.117476
 40
0.156743
 40
0.195685
 40
0.234952
 40
0.234952
 40
0.234952
 40
0.234952
 10
6.983890
 20
12.398240
 30
0.0
 10
6.970951
 20
12.400672
 30
0.0
 10
6.945181
 20
12.405517
 30
0.0
 10
6.905777
 20
12.399781
 30
0.0
 10
6.869175
 20
12.384798
 30
0.0
 10
6.837899
 20
12.360590
 30
0.0
 10
6.813231
 20
12.329332
 30
0.0
 10
6.804542
 20
12.304592
 30
0.0
 10
6.800180
 20
12.292170
 30
0.0
 11
6.983890
 21
12.398240
 31
0.0
 11
6.944957
 21
12.403353
 31
0.0
 11
6.906348
 21
12.398271
 31
0.0
 11
6.870065
 21
12.383256
 31
0.0
 11
6.838922
 21
12.359340
 31
0.0
 11
6.815217
 21
12.328444
 31
0.0
 11
6.800180
 21
12.292170
 31
0.0
  0
LINE
  5
1df
100
AcDbEntity
  8
0
 62
7
100
AcDbLine
 10
7.190760
 20
6.022450
 30
0.0
 11
8.241200
 21
5.740980
 31
0.0
  0
LINE
  5
1e0
100
AcDbEntity
  8
0
 62
7
100
AcDbLine
 10
1.761630
 20
5.763590
 30
0.0
 11
3.534860
 21
5.608450
 31
0.0
  0
LINE
  5
1e1
100
AcDbEntity
  8
0
 62
7
100
AcDbLine
 10
22.524770
 20
6.672400
 30
0.0
 11
22.605930
 21
5.744810
 31
0.0
  0
LINE
  5
1e2
100
AcDbEntity
  8
0
 62
7
100
AcDbLine
 10
8.751070
 20
11.536500
 30
0.0
 11
8.809300
 21
11.753830
 31
0.0
  0
LINE
  5
1e3
100
AcDbEntity
  8
0
 62
7
100
AcDbLine
 10
10.963180
 20
6.814040
 30
0.0
 11
9.611850
 21
7.176130
 31
0.0
  0
LINE
  5
1e4
100
AcDbEntity
  8
0
 62
7
100
AcDbLine
 10
9.611850
 20
7.176130
 30
0.0
 11
9.974200
 21
8.528430
 31
0.0
  0
LINE
  5
1e5
100
AcDbEntity
  8
0
 62
7
100
AcDbLine
 10
9.974200
 20
8.528430
 30
0.0
 11
11.325530
 21
8.166340
 31
0.0
  0
LINE
  5
1e6
100
AcDbEntity
  8
0
 62
7
100
AcDbLine
 10
11.325530
 20
8.166340
 30
0.0
 11
10.963180
 21
6.814040
 31
0.0
  0
LINE
  5
1e7
100
AcDbEntity
  8
0
 62
7
100
AcDbLine
 10
8.813870
 20
5.940560
 30
0.0
 11
7.462540
 21
6.302650
 31
0.0
  0
LINE
  5
1e8
100
AcDbEntity
  8
0
 62
7
100
AcDbLine
 10
7.462540
 20
6.302650
 30
0.0
 11
7.824890
 21
7.654950
 31
0.0
  0
LINE
  5
1e9
100
AcDbEntity
  8
0
 62
7
100
AcDbLine
 10
7.824890
 20
7.654950
 30
0.0
 11
9.176220
 21
7.292860
 31
0.0
  0
LINE
  5
1ea
100
AcDbEntity
  8
0
 62
7
100
AcDbLine
 10
9.176220
 20
7.292860
 30
0.0
 11
8.813870
 21
5.940560
 31
0.0
  0
LINE
  5
1eb
100
AcDbEntity
  8
0
 62
7
100
AcDbLine
 10
3.639350
 20
9.451480
 30
0.0
 11
2.245680
 21
9.573410
 31
0.0
  0
LINE
  5
1ec
100
AcDbEntity
  8
0
 62
7
100
AcDbLine
 10
2.245680
 20
9.573410
 30
0.0
 11
2.367690
 21
10.968090
 31
0.0
  0
LINE
  5
1ed
100
AcDbEntity
  8
0
 62
7
100
AcDbLine
 10
2.367690
 20
10.968090
 30
0.0
 11
3.761370
 21
10.846150
 31
0.0
  0
LINE
  5
1ee
100
AcDbEntity
  8
0
 62
7
100
AcDbLine
 10
3.761370
 20
10.846150
 30
0.0
 11
3.639350
 21
9.451480
 31
0.0
  0
LINE
  5
1ef
100
AcDbEntity
  8
0
 62
7
100
AcDbLine
 10
18.839780
 20
6.302390
 30
0.0
 11
17.488450
 21
5.940300
 31
0.0
  0
LINE
  5
1f0
100
AcDbEntity
  8
0
 62
7
100
AcDbLine
 10
17.488450
 20
5.940300
 30
0.0
 11
17.126100
 21
7.292600
 31
0.0
  0
LINE
  5
1f1
100
AcDbEntity
  8
0
 62
7
100
AcDbLine
 10
17.126100
 20
7.292600
 30
0.0
 11
18.477430
 21
7.654690
 31
0.0
  0
LINE
  5
1f2
100
AcDbEntity
  8
0
 62
7
100
AcDbLine
 10
18.477430
 20
7.654690
 30
0.0
 11
18.839780
 21
6.302390
 31
0.0
  0
LINE
  5
1f3
100
AcDbEntity
  8
0
 62
7
100
AcDbLine
 10
22.408200
 20
7.165900
 30
0.0
 11
21.034900
 21
6.898960
 31
0.0
  0
LINE
  5
1f4
100
AcDbEntity
  8
0
 62
7
100
AcDbLine
 10
21.034900
 20
6.898960
 30
0.0
 11
20.767770
 21
8.273240
 31
0.0
  0
LINE
  5
1f5
100
AcDbEntity
  8
0
 62
7
100
AcDbLine
 10
20.767770
 20
8.273240
 30
0.0
 11
22.141060
 21
8.540180
 31
0.0
  0
LINE
  5
1f6
100
AcDbEntity
  8
0
 62
7
100
AcDbLine
 10
22.141060
 20
8.540180
 30
0.0
 11
22.408200
 21
7.165900
 31
0.0
  0
LINE
  5
1f7
100
AcDbEntity
  8
0
 62
7
100
AcDbLine
 10
21.740370
 20
10.601590
 30
0.0
 11
20.367070
 21
10.334650
 31
0.0
  0
LINE
  5
1f8
100
AcDbEntity
  8
0
 62
7
100
AcDbLine
 10
20.367070
 20
10.334650
 30
0.0
 11
20.099940
 21
11.708930
 31
0.0
  0
LINE
  5
1f9
100
AcDbEntity
  8
0
 62
7
100
AcDbLine
 10
20.099940
 20
11.708930
 30
0.0
 11
21.473230
 21
11.975870
 31
0.0
  0
LINE
  5
1fa
100
AcDbEntity
  8
0
 62
7
100
AcDbLine
 10
21.473230
 20
11.975870
 30
0.0
 11
21.740370
 21
10.601590
 31
0.0
  0
LINE
  5
1fb
100
AcDbEntity
  8
0
 62
7
100
AcDbLine
 10
16.237540
 20
8.866240
 30
0.0
 11
14.886210
 21
8.504160
 31
0.0
  0
LINE
  5
1fc
100
AcDbEntity
  8
0
 62
7
100
AcDbLine
 10
14.886210
 20
8.504160
 30
0.0
 11
14.523860
 21
9.856450
 31
0.0
  0
LINE
  5
1fd
100
AcDbEntity
  8
0
 62
7
100
AcDbLine
 10
14.523860
 20
9.856450
 30
0.0
 11
15.875190
 21
10.218540
 31
0.0
  0
LINE
  5
1fe
100
AcDbEntity
  8
0
 62
7
100
AcDbLine
 10
15.875190
 20
10.218540
 30
0.0
 11
16.237540
 21
8.866240
 31
0.0
  0
LINE
  5
1ff
100
AcDbEntity
  8
0
 62
7
100
AcDbLine
 10
9.584690
 20
3.456410
 30
0.0
 11
8.233360
 21
3.818500
 31
0.0
  0
LINE
  5
200
100
AcDbEntity
  8
0
 62
7
100
AcDbLine
 10
8.233360
 20
3.818500
 30
0.0
 11
8.595710
 21
5.170800
 31
0.0
  0
LINE
  5
201
100
AcDbEntity
  8
0
 62
7
100
AcDbLine
 10
8.595710
 20
5.170800
 30
0.0
 11
9.947040
 21
4.808710
 31
0.0
  0
LINE
  5
202
100
AcDbEntity
  8
0
 62
7
100
AcDbLine
 10
9.947040
 20
4.808710
 30
0.0
 11
9.584690
 21
3.456410
 31
0.0
  0
LINE
  5
203
100
AcDbEntity
  8
0
 62
7
100
AcDbLine
 10
17.143400
 20
5.485500
 30
0.0
 11
15.792070
 21
5.123410
 31
0.0
  0
LINE
  5
204
100
AcDbEntity
  8
0
 62
7
100
AcDbLine
 10
15.792070
 20
5.123410
 30
0.0
 11
15.429730
 21
6.475710
 31
0.0
  0
LINE
  5
205
100
AcDbEntity
  8
0
 62
7
100
AcDbLine
 10
15.429730
 20
6.475710
 30
0.0
 11
16.781060
 21
6.837800
 31
0.0
  0
LINE
  5
206
100
AcDbEntity
  8
0
 62
7
100
AcDbLine
 10
16.781060
 20
6.837800
 30
0.0
 11
17.143400
 21
5.485500
 31
0.0
  0
LINE
  5
207
100
AcDbEntity
  8
0
 62
7
100
AcDbLine
 10
24.209140
 20
7.829990
 30
0.0
 11
22.815460
 21
7.708050
 31
0.0
  0
LINE
  5
208
100
AcDbEntity
  8
0
 62
7
100
AcDbLine
 10
22.815460
 20
7.708050
 30
0.0
 11
22.693450
 21
9.102730
 31
0.0
  0
LINE
  5
209
100
AcDbEntity
  8
0
 62
7
100
AcDbLine
 10
22.693450
 20
9.102730
 30
0.0
 11
24.087120
 21
9.224660
 31
0.0
  0
LINE
  5
20a
100
AcDbEntity
  8
0
 62
7
100
AcDbLine
 10
24.087120
 20
9.224660
 30
0.0
 11
24.209140
 21
7.829990
 31
0.0
  0
LINE
  5
20b
100
AcDbEntity
  8
0
 62
7
100
AcDbLine
 10
17.933910
 20
9.683130
 30
0.0
 11
16.582580
 21
9.321040
 31
0.0
  0
LINE
  5
20c
100
AcDbEntity
  8
0
 62
7
100
AcDbLine
 10
16.582580
 20
9.321040
 30
0.0
 11
16.220240
 21
10.673340
 31
0.0
  0
LINE
  5
20d
100
AcDbEntity
  8
0
 62
7
100
AcDbLine
 10
16.220240
 20
10.673340
 30
0.0
 11
17.571570
 21
11.035430
 31
0.0
  0
LINE
  5
20e
100
AcDbEntity
  8
0
 62
7
100
AcDbLine
 10
17.571570
 20
11.035430
 30
0.0
 11
17.933910
 21
9.683130
 31
0.0
  0
LINE
  5
20f
100
AcDbEntity
  8
0
 62
7
100
AcDbLine
 10
9.266810
 20
7.630930
 30
0.0
 11
7.915480
 21
7.993020
 31
0.0
  0
LINE
  5
210
100
AcDbEntity
  8
0
 62
7
100
AcDbLine
 10
7.915480
 20
7.993020
 30
0.0
 11
8.277820
 21
9.345320
 31
0.0
  0
LINE
  5
211
100
AcDbEntity
  8
0
 62
7
100
AcDbLine
 10
8.277820
 20
9.345320
 30
0.0
 11
9.629150
 21
8.983230
 31
0.0
  0
LINE
  5
212
100
AcDbEntity
  8
0
 62
7
100
AcDbLine
 10
9.629150
 20
8.983230
 30
0.0
 11
9.266810
 21
7.630930
 31
0.0
  0
LINE
  5
213
100
AcDbEntity
  8
0
 62
7
100
AcDbLine
 10
5.935240
 20
10.334840
 30
0.0
 11
4.561940
 21
10.601790
 31
0.0
  0
LINE
  5
214
100
AcDbEntity
  8
0
 62
7
100
AcDbLine
 10
4.561940
 20
10.601790
 30
0.0
 11
4.829080
 21
11.976060
 31
0.0
  0
LINE
  5
215
100
AcDbEntity
  8
0
 62
7
100
AcDbLine
 10
4.829080
 20
11.976060
 30
0.0
 11
6.202370
 21
11.709120
 31
0.0
  0
LINE
  5
216
100
AcDbEntity
  8
0
 62
7
100
AcDbLine
 10
6.202370
 20
11.709120
 30
0.0
 11
5.935240
 21
10.334840
 31
0.0
  0
LINE
  5
217
100
AcDbEntity
  8
0
 62
7
100
AcDbLine
 10
20.037930
 20
8.978690
 30
0.0
 11
18.686600
 21
8.616600
 31
0.0
  0
LINE
  5
218
100
AcDbEntity
  8
0
 62
7
100
AcDbLine
 10
18.686600
 20
8.616600
 30
0.0
 11
18.324250
 21
9.968900
 31
0.0
  0
LINE
  5
219
100
AcDbEntity
  8
0
 62
7
100
AcDbLine
 10
18.324250
 20
9.968900
 30
0.0
 11
19.675580
 21
10.330980
 31
0.0
  0
LINE
  5
21a
100
AcDbEntity
  8
0
 62
7
100
AcDbLine
 10
19.675580
 20
10.330980
 30
0.0
 11
20.037930
 21
8.978690
 31
0.0
  0
LINE
  5
21b
100
AcDbEntity
  8
0
 62
7
100
AcDbLine
 10
7.162790
 20
6.926490
 30
0.0
 11
5.811460
 21
7.288580
 31
0.0
  0
LINE
  5
21c
100
AcDbEntity
  8
0
 62
7
100
AcDbLine
 10
5.811460
 20
7.288580
 30
0.0
 11
6.173810
 21
8.640870
 31
0.0
  0
LINE
  5
21d
100
AcDbEntity
  8
0
 62
7
100
AcDbLine
 10
6.173810
 20
8.640870
 30
0.0
 11
7.525140
 21
8.278790
 31
0.0
  0
LINE
  5
21e
100
AcDbEntity
  8
0
 62
7
100
AcDbLine
 10
7.525140
 20
8.278790
 30
0.0
 11
7.162790
 21
6.926490
 31
0.0
  0
LINE
  5
21f
100
AcDbEntity
  8
0
 62
7
100
AcDbLine
 10
9.719740
 20
9.321300
 30
0.0
 11
8.368410
 21
9.683390
 31
0.0
  0
LINE
  5
220
100
AcDbEntity
  8
0
 62
7
100
AcDbLine
 10
8.368410
 20
9.683390
 30
0.0
 11
8.730760
 21
11.035690
 31
0.0
  0
LINE
  5
221
100
AcDbEntity
  8
0
 62
7
100
AcDbLine
 10
8.730760
 20
11.035690
 30
0.0
 11
10.082090
 21
10.673600
 31
0.0
  0
LINE
  5
222
100
AcDbEntity
  8
0
 62
7
100
AcDbLine
 10
10.082090
 20
10.673600
 30
0.0
 11
9.719740
 21
9.321300
 31
0.0
  0
LINE
  5
223
100
AcDbEntity
  8
0
 62
7
100
AcDbLine
 10
8.068660
 20
10.307230
 30
0.0
 11
6.717330
 21
10.669320
 31
0.0
  0
LINE
  5
224
100
AcDbEntity
  8
0
 62
7
100
AcDbLine
 10
6.717330
 20
10.669320
 30
0.0
 11
7.079670
 21
12.021610
 31
0.0
  0
LINE
  5
225
100
AcDbEntity
  8
0
 62
7
100
AcDbLine
 10
7.079670
 20
12.021610
 30
0.0
 11
8.431000
 21
11.659530
 31
0.0
  0
LINE
  5
226
100
AcDbEntity
  8
0
 62
7
100
AcDbLine
 10
8.431000
 20
11.659530
 30
0.0
 11
8.068660
 21
10.307230
 31
0.0
  0
LINE
  5
227
100
AcDbEntity
  8
0
 62
7
100
AcDbLine
 10
5.267410
 20
6.899150
 30
0.0
 11
3.894110
 21
7.166090
 31
0.0
  0
LINE
  5
228
100
AcDbEntity
  8
0
 62
7
100
AcDbLine
 10
3.894110
 20
7.166090
 30
0.0
 11
4.161240
 21
8.540370
 31
0.0
  0
LINE
  5
229
100
AcDbEntity
  8
0
 62
7
100
AcDbLine
 10
4.161240
 20
8.540370
 30
0.0
 11
5.534540
 21
8.273430
 31
0.0
  0
LINE
  5
22a
100
AcDbEntity
  8
0
 62
7
100
AcDbLine
 10
5.534540
 20
8.273430
 30
0.0
 11
5.267410
 21
6.899150
 31
0.0
  0
LINE
  5
22b
100
AcDbEntity
  8
0
 62
7
100
AcDbLine
 10
18.386850
 20
7.992760
 30
0.0
 11
17.035520
 21
7.630670
 31
0.0
  0
LINE
  5
22c
100
AcDbEntity
  8
0
 62
7
100
AcDbLine
 10
17.035520
 20
7.630670
 30
0.0
 11
16.673170
 21
8.982970
 31
0.0
  0
LINE
  5
22d
100
AcDbEntity
  8
0
 62
7
100
AcDbLine
 10
16.673170
 20
8.982970
 30
0.0
 11
18.024500
 21
9.345060
 31
0.0
  0
LINE
  5
22e
100
AcDbEntity
  8
0
 62
7
100
AcDbLine
 10
18.024500
 20
9.345060
 30
0.0
 11
18.386850
 21
7.992760
 31
0.0
  0
LINE
  5
22f
100
AcDbEntity
  8
0
 62
7
100
AcDbLine
 10
16.265390
 20
3.259780
 30
0.0
 11
15.041790
 21
2.581530
 31
0.0
  0
LINE
  5
230
100
AcDbEntity
  8
0
 62
7
100
AcDbLine
 10
15.041790
 20
2.581530
 30
0.0
 11
14.363060
 21
3.806000
 31
0.0
  0
LINE
  5
231
100
AcDbEntity
  8
0
 62
7
100
AcDbLine
 10
14.363060
 20
3.806000
 30
0.0
 11
15.586650
 21
4.484250
 31
0.0
  0
LINE
  5
232
100
AcDbEntity
  8
0
 62
7
100
AcDbLine
 10
15.586650
 20
4.484250
 30
0.0
 11
16.265390
 21
3.259780
 31
0.0
  0
LINE
  5
233
100
AcDbEntity
  8
0
 62
7
100
AcDbLine
 10
19.585000
 20
10.669060
 30
0.0
 11
18.233670
 21
10.306970
 31
0.0
  0
LINE
  5
234
100
AcDbEntity
  8
0
 62
7
100
AcDbLine
 10
18.233670
 20
10.306970
 30
0.0
 11
17.871320
 21
11.659270
 31
0.0
  0
LINE
  5
235
100
AcDbEntity
  8
0
 62
7
100
AcDbLine
 10
17.871320
 20
11.659270
 30
0.0
 11
19.222650
 21
12.021350
 31
0.0
  0
LINE
  5
236
100
AcDbEntity
  8
0
 62
7
100
AcDbLine
 10
19.222650
 20
12.021350
 30
0.0
 11
19.585000
 21
10.669060
 31
0.0
  0
LINE
  5
237
100
AcDbEntity
  8
0
 62
7
100
AcDbLine
 10
3.486830
 20
7.708140
 30
0.0
 11
2.093150
 21
7.830070
 31
0.0
  0
LINE
  5
238
100
AcDbEntity
  8
0
 62
7
100
AcDbLine
 10
2.093150
 20
7.830070
 30
0.0
 11
2.215170
 21
9.224740
 31
0.0
  0
LINE
  5
239
100
AcDbEntity
  8
0
 62
7
100
AcDbLine
 10
2.215170
 20
9.224740
 30
0.0
 11
3.608850
 21
9.102810
 31
0.0
  0
LINE
  5
23a
100
AcDbEntity
  8
0
 62
7
100
AcDbLine
 10
3.608850
 20
9.102810
 30
0.0
 11
3.486830
 21
7.708140
 31
0.0
  0
LINE
  5
23b
100
AcDbEntity
  8
0
 62
7
100
AcDbLine
 10
3.334310
 20
5.964800
 30
0.0
 11
1.940630
 21
6.086730
 31
0.0
  0
LINE
  5
23c
100
AcDbEntity
  8
0
 62
7
100
AcDbLine
 10
1.940630
 20
6.086730
 30
0.0
 11
2.062650
 21
7.481400
 31
0.0
  0
LINE
  5
23d
100
AcDbEntity
  8
0
 62
7
100
AcDbLine
 10
2.062650
 20
7.481400
 30
0.0
 11
3.456320
 21
7.359470
 31
0.0
  0
LINE
  5
23e
100
AcDbEntity
  8
0
 62
7
100
AcDbLine
 10
3.456320
 20
7.359470
 30
0.0
 11
3.334310
 21
5.964800
 31
0.0
  0
LINE
  5
23f
100
AcDbEntity
  8
0
 62
7
100
AcDbLine
 10
5.601320
 20
8.617000
 30
0.0
 11
4.228030
 21
8.883940
 31
0.0
  0
LINE
  5
240
100
AcDbEntity
  8
0
 62
7
100
AcDbLine
 10
4.228030
 20
8.883940
 30
0.0
 11
4.495160
 21
10.258220
 31
0.0
  0
LINE
  5
241
100
AcDbEntity
  8
0
 62
7
100
AcDbLine
 10
4.495160
 20
10.258220
 30
0.0
 11
5.868460
 21
9.991270
 31
0.0
  0
LINE
  5
242
100
AcDbEntity
  8
0
 62
7
100
AcDbLine
 10
5.868460
 20
9.991270
 30
0.0
 11
5.601320
 21
8.617000
 31
0.0
  0
LINE
  5
243
100
AcDbEntity
  8
0
 62
7
100
AcDbLine
 10
18.068960
 20
3.818240
 30
0.0
 11
16.717630
 21
3.456160
 31
0.0
  0
LINE
  5
244
100
AcDbEntity
  8
0
 62
7
100
AcDbLine
 10
16.717630
 20
3.456160
 30
0.0
 11
16.355280
 21
4.808450
 31
0.0
  0
LINE
  5
245
100
AcDbEntity
  8
0
 62
7
100
AcDbLine
 10
16.355280
 20
4.808450
 30
0.0
 11
17.706610
 21
5.170540
 31
0.0
  0
LINE
  5
246
100
AcDbEntity
  8
0
 62
7
100
AcDbLine
 10
17.706610
 20
5.170540
 30
0.0
 11
18.068960
 21
3.818240
 31
0.0
  0
LINE
  5
247
100
AcDbEntity
  8
0
 62
7
100
AcDbLine
 10
11.416120
 20
8.504410
 30
0.0
 11
10.064790
 21
8.866500
 31
0.0
  0
LINE
  5
248
100
AcDbEntity
  8
0
 62
7
100
AcDbLine
 10
10.064790
 20
8.866500
 30
0.0
 11
10.427130
 21
10.218800
 31
0.0
  0
LINE
  5
249
100
AcDbEntity
  8
0
 62
7
100
AcDbLine
 10
10.427130
 20
10.218800
 30
0.0
 11
11.778460
 21
9.856710
 31
0.0
  0
LINE
  5
24a
100
AcDbEntity
  8
0
 62
7
100
AcDbLine
 10
11.778460
 20
9.856710
 30
0.0
 11
11.416120
 21
8.504410
 31
0.0
  0
LINE
  5
24b
100
AcDbEntity
  8
0
 62
7
100
AcDbLine
 10
10.510250
 20
5.123670
 30
0.0
 11
9.158920
 21
5.485760
 31
0.0
  0
LINE
  5
24c
100
AcDbEntity
  8
0
 62
7
100
AcDbLine
 10
9.158920
 20
5.485760
 30
0.0
 11
9.521270
 21
6.838060
 31
0.0
  0
LINE
  5
24d
100
AcDbEntity
  8
0
 62
7
100
AcDbLine
 10
9.521270
 20
6.838060
 30
0.0
 11
10.872600
 21
6.475970
 31
0.0
  0
LINE
  5
24e
100
AcDbEntity
  8
0
 62
7
100
AcDbLine
 10
10.872600
 20
6.475970
 30
0.0
 11
10.510250
 21
5.123670
 31
0.0
  0
LINE
  5
24f
100
AcDbEntity
  8
0
 62
7
100
AcDbLine
 10
24.056620
 20
9.573330
 30
0.0
 11
22.662940
 21
9.451400
 31
0.0
  0
LINE
  5
250
100
AcDbEntity
  8
0
 62
7
100
AcDbLine
 10
22.662940
 20
9.451400
 30
0.0
 11
22.540920
 21
10.846070
 31
0.0
  0
LINE
  5
251
100
AcDbEntity
  8
0
 62
7
100
AcDbLine
 10
22.540920
 20
10.846070
 30
0.0
 11
23.934600
 21
10.968000
 31
0.0
  0
LINE
  5
252
100
AcDbEntity
  8
0
 62
7
100
AcDbLine
 10
23.934600
 20
10.968000
 30
0.0
 11
24.056620
 21
9.573330
 31
0.0
  0
LINE
  5
253
100
AcDbEntity
  8
0
 62
7
100
AcDbLine
 10
22.074280
 20
8.883750
 30
0.0
 11
20.700980
 21
8.616810
 31
0.0
  0
LINE
  5
254
100
AcDbEntity
  8
0
 62
7
100
AcDbLine
 10
20.700980
 20
8.616810
 30
0.0
 11
20.433850
 21
9.991080
 31
0.0
  0
LINE
  5
255
100
AcDbEntity
  8
0
 62
7
100
AcDbLine
 10
20.433850
 20
9.991080
 30
0.0
 11
21.807150
 21
10.258030
 31
0.0
  0
LINE
  5
256
100
AcDbEntity
  8
0
 62
7
100
AcDbLine
 10
21.807150
 20
10.258030
 30
0.0
 11
22.074280
 21
8.883750
 31
0.0
  0
LINE
  5
257
100
AcDbEntity
  8
0
 62
7
100
AcDbLine
 10
16.690470
 20
7.175870
 30
0.0
 11
15.339140
 21
6.813780
 31
0.0
  0
LINE
  5
258
100
AcDbEntity
  8
0
 62
7
100
AcDbLine
 10
15.339140
 20
6.813780
 30
0.0
 11
14.976790
 21
8.166080
 31
0.0
  0
LINE
  5
259
100
AcDbEntity
  8
0
 62
7
100
AcDbLine
 10
14.976790
 20
8.166080
 30
0.0
 11
16.328120
 21
8.528170
 31
0.0
  0
LINE
  5
25a
100
AcDbEntity
  8
0
 62
7
100
AcDbLine
 10
16.328120
 20
8.528170
 30
0.0
 11
16.690470
 21
7.175870
 31
0.0
  0
LINE
  5
25b
100
AcDbEntity
  8
0
 62
7
100
AcDbLine
 10
24.361660
 20
6.086640
 30
0.0
 11
22.967990
 21
5.964710
 31
0.0
  0
LINE
  5
25c
100
AcDbEntity
  8
0
 62
7
100
AcDbLine
 10
22.967990
 20
5.964710
 30
0.0
 11
22.845970
 21
7.359390
 31
0.0
  0
LINE
  5
25d
100
AcDbEntity
  8
0
 62
7
100
AcDbLine
 10
22.845970
 20
7.359390
 30
0.0
 11
24.239650
 21
7.481320
 31
0.0
  0
LINE
  5
25e
100
AcDbEntity
  8
0
 62
7
100
AcDbLine
 10
24.239650
 20
7.481320
 30
0.0
 11
24.361660
 21
6.086640
 31
0.0
  0
LINE
  5
25f
100
AcDbEntity
  8
0
 62
7
100
AcDbLine
 10
11.260620
 20
2.582020
 30
0.0
 11
10.037030
 21
3.260270
 31
0.0
  0
LINE
  5
260
100
AcDbEntity
  8
0
 62
7
100
AcDbLine
 10
10.037030
 20
3.260270
 30
0.0
 11
10.715760
 21
4.484730
 31
0.0
  0
LINE
  5
261
100
AcDbEntity
  8
0
 62
7
100
AcDbLine
 10
10.715760
 20
4.484730
 30
0.0
 11
11.939360
 21
3.806490
 31
0.0
  0
LINE
  5
262
100
AcDbEntity
  8
0
 62
7
100
AcDbLine
 10
11.939360
 20
3.806490
 30
0.0
 11
11.260620
 21
2.582020
 31
0.0
  0
LINE
  5
263
100
AcDbEntity
  8
0
 62
7
100
AcDbLine
 10
7.615720
 20
8.616860
 30
0.0
 11
6.264390
 21
8.978950
 31
0.0
  0
LINE
  5
264
100
AcDbEntity
  8
0
 62
7
100
AcDbLine
 10
6.264390
 20
8.978950
 30
0.0
 11
6.626740
 21
10.331240
 31
0.0
  0
LINE
  5
265
100
AcDbEntity
  8
0
 62
7
100
AcDbLine
 10
6.626740
 20
10.331240
 30
0.0
 11
7.978070
 21
9.969160
 31
0.0
  0
LINE
  5
266
100
AcDbEntity
  8
0
 62
7
100
AcDbLine
 10
7.978070
 20
9.969160
 30
0.0
 11
7.615720
 21
8.616860
 31
0.0
  0
LINE
  5
267
100
AcDbEntity
  8
0
 62
7
100
AcDbLine
 10
20.490860
 20
7.288320
 30
0.0
 11
19.139530
 21
6.926230
 31
0.0
  0
LINE
  5
268
100
AcDbEntity
  8
0
 62
7
100
AcDbLine
 10
19.139530
 20
6.926230
 30
0.0
 11
18.777190
 21
8.278530
 31
0.0
  0
LINE
  5
269
100
AcDbEntity
  8
0
 62
7
100
AcDbLine
 10
18.777190
 20
8.278530
 30
0.0
 11
20.128520
 21
8.640610
 31
0.0
  0
LINE
  5
26a
100
AcDbEntity
  8
0
 62
7
100
AcDbLine
 10
20.128520
 20
8.640610
 30
0.0
 11
20.490860
 21
7.288320
 31
0.0
  0
SPLINE
  5
26b
100
AcDbEntity
  8
0
 62
7
100
AcDbSpline
 70
0
 71
3
 72
10
 73
6
 74
4
 40
0.000000
 40
0.000000
 40
0.000000
 40
0.000000
 40
0.074959
 40
0.147860
 40
0.222819
 40
0.222819
 40
0.222819
 40
0.222819
 10
6.572730
 20
11.982480
 30
0.0
 10
6.598091
 20
11.981387
 30
0.0
 10
6.648117
 20
11.979230
 30
0.0
 10
6.716113
 20
12.021718
 30
0.0
 10
6.736105
 20
12.067627
 30
0.0
 10
6.746240
 20
12.090900
 30
0.0
 11
6.572730
 21
11.982480
 31
0.0
 11
6.647552
 21
11.987000
 31
0.0
 11
6.709377
 21
12.025632
 31
0.0
 11
6.746240
 21
12.090900
 31
0.0
  0
ENDSEC
  0
SECTION
  2
OBJECTS
  0
DICTIONARY
  5
C
330
0
100
AcDbDictionary
  3
ACAD_GROUP
350
D
  3
ACAD_MLINESTYLE
350
17
  0
DICTIONARY
  5
D
330
C
100
AcDbDictionary
  0
DICTIONARY
  5
1A
330
C
100
AcDbDictionary
  0
DICTIONARY
  5
17
330
C
100
AcDbDictionary
  3
STANDARD
350
18
  0
DICTIONARY
  5
19
330
C
100
AcDbDictionary
  0
ENDSEC
  0
EOF
