<?xml version="1.0" standalone="no"?>
 <!DOCTYPE svg PUBLIC "-//W3C//DTD SVG 1.1//EN" 
 "http://www.w3.org/Graphics/SVG/1.1/DTD/svg11.dtd"> 
<svg
  xmlns:svg="http://www.w3.org/2000/svg"
  xmlns="http://www.w3.org/2000/svg"
  xmlns:xlink="http://www.w3.org/1999/xlink"
  version="1.1"
  width="252.7300mm" height="133.3500mm" viewBox="0.0000 0.0000 252.7300 133.3500">
<title>SVG Image created as Qeshda-Plate-brd.svg date 2023/08/16 10:12:43 </title>
  <desc>Image generated by PCBNEW </desc>
<g style="fill:#000000; fill-opacity:1.0000;stroke:#000000; stroke-opacity:1.0000;
stroke-linecap:round; stroke-linejoin:round;"
 transform="translate(0 0) scale(1 1)">
</g>
<g style="fill:#000000; fill-opacity:0.0; 
stroke:#000000; stroke-width:0.0000; stroke-opacity:1; 
stroke-linecap:round; stroke-linejoin:round;">
</g>
<g style="fill:#C2C2C2; fill-opacity:0.0; 
stroke:#C2C2C2; stroke-width:0.0000; stroke-opacity:1; 
stroke-linecap:round; stroke-linejoin:round;">
</g>
<g style="fill:#C2C2C2; fill-opacity:0.0; 
stroke:#C2C2C2; stroke-width:0.1500; stroke-opacity:1; 
stroke-linecap:round; stroke-linejoin:round;">
<path d="M97.8422 45.4965
L116.1948 50.4140
" />
<path d="M93.1835 62.8831
L97.8422 45.4965
" />
<path d="M116.1948 50.4140
L111.5361 67.8007
" />
<path d="M111.5361 67.8007
L93.1835 62.8831
" />
<path d="M76.3491 54.2313
L94.7017 59.1489
" />
<path d="M71.6904 71.6180
L76.3491 54.2313
" />
<path d="M94.7017 59.1489
L90.0430 76.5355
" />
<path d="M90.0430 76.5355
L71.6904 71.6180
" />
<path d="M21.3599 21.4688
L40.2876 23.1248
" />
<path d="M19.7911 39.4003
L21.3599 21.4688
" />
<path d="M40.2876 23.1248
L38.7188 41.0563
" />
<path d="M38.7188 41.0563
L19.7911 39.4003
" />
<path d="M168.3312 59.1489
L186.6838 54.2313
" />
<path d="M172.9899 76.5355
L168.3312 59.1489
" />
<path d="M186.6838 54.2313
L191.3425 71.6180
" />
<path d="M191.3425 71.6180
L172.9899 76.5355
" />
<path d="M204.8439 49.1412
L223.4948 45.5159
" />
<path d="M208.2785 66.8105
L204.8439 49.1412
" />
<path d="M223.4948 45.5159
L226.9294 63.1851
" />
<path d="M226.9294 63.1851
L208.2785 66.8105
" />
<path d="M198.1656 14.7843
L216.8165 11.1589
" />
<path d="M201.6001 32.4536
L198.1656 14.7843
" />
<path d="M216.8165 11.1589
L220.2511 28.8282
" />
<path d="M220.2511 28.8282
L201.6001 32.4536
" />
<path d="M142.3087 33.5103
L160.6613 28.5928
" />
<path d="M146.9675 50.8970
L142.3087 33.5103
" />
<path d="M160.6613 28.5928
L165.3201 45.9794
" />
<path d="M165.3201 45.9794
L146.9675 50.8970
" />
<path d="M84.0573 79.0728
L102.4099 83.9903
" />
<path d="M79.3986 96.4594
L84.0573 79.0728
" />
<path d="M102.4099 83.9903
L97.7512 101.3770
" />
<path d="M97.7512 101.3770
L79.3986 96.4594
" />
<path d="M151.3674 67.3177
L169.7200 62.4002
" />
<path d="M156.0262 84.7044
L151.3674 67.3177
" />
<path d="M169.7200 62.4002
L174.3787 79.7869
" />
<path d="M174.3787 79.7869
L156.0262 84.7044
" />
<path d="M224.2705 40.5582
L243.1982 38.9022
" />
<path d="M225.8393 58.4897
L224.2705 40.5582
" />
<path d="M243.1982 38.9022
L244.7670 56.8337
" />
<path d="M244.7670 56.8337
L225.8393 58.4897
" />
<path d="M159.2725 25.3414
L177.6251 20.4239
" />
<path d="M163.9312 42.7281
L159.2725 25.3414
" />
<path d="M177.6251 20.4239
L182.2838 37.8106
" />
<path d="M182.2838 37.8106
L163.9312 42.7281
" />
<path d="M80.8785 37.3276
L99.2311 42.2452
" />
<path d="M76.2197 54.7143
L80.8785 37.3276
" />
<path d="M99.2311 42.2452
L94.5723 59.6318
" />
<path d="M94.5723 59.6318
L76.2197 54.7143
" />
<path d="M46.2164 11.1589
L64.8673 14.7843
" />
<path d="M42.7818 28.8282
L46.2164 11.1589
" />
<path d="M64.8673 14.7843
L61.4328 32.4536
" />
<path d="M61.4328 32.4536
L42.7818 28.8282
" />
<path d="M180.3127 32.3859
L198.6653 27.4683
" />
<path d="M184.9714 49.7726
L180.3127 32.3859
" />
<path d="M198.6653 27.4683
L203.3240 44.8550
" />
<path d="M203.3240 44.8550
L184.9714 49.7726
" />
<path d="M59.8383 44.3720
L78.1909 49.2896
" />
<path d="M55.1796 61.7587
L59.8383 44.3720
" />
<path d="M78.1909 49.2896
L73.5322 66.6763
" />
<path d="M73.5322 66.6763
L55.1796 61.7587
" />
<path d="M85.4078 20.4239
L103.7604 25.3414
" />
<path d="M80.7491 37.8106
L85.4078 20.4239
" />
<path d="M103.7604 25.3414
L99.1017 42.7281
" />
<path d="M99.1017 42.7281
L80.7491 37.8106
" />
<path d="M68.8970 10.5646
L87.2496 15.4822
" />
<path d="M64.2382 27.9513
L68.8970 10.5646
" />
<path d="M87.2496 15.4822
L82.5908 32.8689
" />
<path d="M82.5908 32.8689
L64.2382 27.9513
" />
<path d="M39.5381 45.5159
L58.1890 49.1412
" />
<path d="M36.1035 63.1851
L39.5381 45.5159
" />
<path d="M58.1890 49.1412
L54.7544 66.8105
" />
<path d="M54.7544 66.8105
L36.1035 63.1851
" />
<path d="M163.8018 42.2452
L182.1544 37.3276
" />
<path d="M168.4606 59.6318
L163.8018 42.2452
" />
<path d="M182.1544 37.3276
L186.8132 54.7143
" />
<path d="M186.8132 54.7143
L168.4606 59.6318
" />
<path d="M140.4793 94.7615
L157.0970 85.5501
" />
<path d="M149.2058 110.5047
L140.4793 94.7615
" />
<path d="M157.0970 85.5501
L165.8236 101.2933
" />
<path d="M165.8236 101.2933
L149.2058 110.5047
" />
<path d="M175.7833 15.4822
L194.1359 10.5646
" />
<path d="M180.4421 32.8689
L175.7833 15.4822
" />
<path d="M194.1359 10.5646
L198.7947 27.9513
" />
<path d="M198.7947 27.9513
L180.4421 32.8689
" />
<path d="M19.8347 38.9022
L38.7624 40.5582
" />
<path d="M18.2659 56.8337
L19.8347 38.9022
" />
<path d="M38.7624 40.5582
L37.1936 58.4897
" />
<path d="M37.1936 58.4897
L18.2659 56.8337
" />
<path d="M18.3094 56.3356
L37.2371 57.9916
" />
<path d="M16.7406 74.2671
L18.3094 56.3356
" />
<path d="M37.2371 57.9916
L35.6683 75.9231
" />
<path d="M35.6683 75.9231
L16.7406 74.2671
" />
<path d="M42.8772 28.3374
L61.5282 31.9627
" />
<path d="M39.4427 46.0067
L42.8772 28.3374
" />
<path d="M61.5282 31.9627
L58.0936 49.6320
" />
<path d="M58.0936 49.6320
L39.4427 46.0067
" />
<path d="M160.6230 83.9903
L178.9756 79.0728
" />
<path d="M165.2817 101.3770
L160.6230 83.9903
" />
<path d="M178.9756 79.0728
L183.6343 96.4594
" />
<path d="M183.6343 96.4594
L165.2817 101.3770
" />
<path d="M102.3716 28.5928
L120.7242 33.5103
" />
<path d="M97.7128 45.9794
L102.3716 28.5928
" />
<path d="M120.7242 33.5103
L116.0654 50.8970
" />
<path d="M116.0654 50.8970
L97.7128 45.9794
" />
<path d="M93.3129 62.4002
L111.6655 67.3177
" />
<path d="M88.6542 79.7869
L93.3129 62.4002
" />
<path d="M111.6655 67.3177
L107.0067 84.7044
" />
<path d="M107.0067 84.7044
L88.6542 79.7869
" />
<path d="M222.7453 23.1248
L241.6730 21.4688
" />
<path d="M224.3141 41.0563
L222.7453 23.1248
" />
<path d="M241.6730 21.4688
L243.2418 39.4003
" />
<path d="M243.2418 39.4003
L224.3141 41.0563
" />
<path d="M201.5047 31.9627
L220.1557 28.3374
" />
<path d="M204.9393 49.6320
L201.5047 31.9627
" />
<path d="M220.1557 28.3374
L223.5902 46.0067
" />
<path d="M223.5902 46.0067
L204.9393 49.6320
" />
<path d="M146.8381 50.4140
L165.1907 45.4965
" />
<path d="M151.4968 67.8007
L146.8381 50.4140
" />
<path d="M165.1907 45.4965
L169.8494 62.8831
" />
<path d="M169.8494 62.8831
L151.4968 67.8007
" />
<path d="M225.7958 57.9916
L244.7235 56.3356
" />
<path d="M227.3646 75.9231
L225.7958 57.9916
" />
<path d="M244.7235 56.3356
L246.2923 74.2671
" />
<path d="M246.2923 74.2671
L227.3646 75.9231
" />
<path d="M105.9359 85.5501
L122.5536 94.7615
" />
<path d="M97.2093 101.2933
L105.9359 85.5501
" />
<path d="M122.5536 94.7615
L113.8271 110.5047
" />
<path d="M113.8271 110.5047
L97.2093 101.2933
" />
<path d="M64.3676 27.4683
L82.7202 32.3859
" />
<path d="M59.7089 44.8550
L64.3676 27.4683
" />
<path d="M82.7202 32.3859
L78.0615 49.7726
" />
<path d="M78.0615 49.7726
L59.7089 44.8550
" />
<path d="M184.8420 49.2896
L203.1946 44.3720
" />
<path d="M189.5007 66.6763
L184.8420 49.2896
" />
<path d="M203.1946 44.3720
L207.8533 61.7587
" />
<path d="M207.8533 61.7587
L189.5007 66.6763
" />
</g>
<g style="fill:#C2C2C2; fill-opacity:0.0; 
stroke:#C2C2C2; stroke-width:0.1200; stroke-opacity:1; 
stroke-linecap:round; stroke-linejoin:round;">
<path d="M138.7400 67.5000
L125.0600 67.5000
" />
<path d="M125.0600 67.5000
L125.0600 31.5000
" />
<path d="M125.0600 31.5000
L138.7400 31.5000
" />
<path d="M138.7400 31.5000
L138.7400 67.5000
" />
</g>
<g style="fill:#C2C2C2; fill-opacity:0.0; 
stroke:#C2C2C2; stroke-width:0.2000; stroke-opacity:1; 
stroke-linecap:round; stroke-linejoin:round;">
<path d="M135.7240 26.5427
L128.3580 26.5427
" />
<path d="M128.3580 26.5427
L128.3580 31.6227
" />
<path d="M135.7240 31.6227
L135.7240 26.5427
" />
<path d="M128.3580 31.6227
L135.7240 31.6227
" />
<g >
</g>
<g >
</g>
<g >
</g>
<g >
</g>
<g >
</g>
<g >
</g>
<g >
</g>
<g >
</g>
<g >
</g>
<g >
</g>
<g >
</g>
<g >
</g>
<g >
</g>
<g >
</g>
<g >
</g>
<g >
</g>
<g >
</g>
<g >
</g>
<g >
</g>
<g >
</g>
<g >
</g>
<g >
</g>
<g >
</g>
<g >
</g>
<g >
</g>
<g >
</g>
<g >
</g>
<g >
</g>
<g >
</g>
<g >
</g>
<g >
</g>
<g >
</g>
<g >
</g>
<g >
</g>
<g >
</g>
<g >
</g>
<g >
</g>
<g >
</g>
<g >
</g>
<g >
</g>
<g >
</g>
<g >
</g>
<g >
</g>
<g >
</g>
<g >
</g>
<g >
</g>
<g >
</g>
<g >
</g>
<g >
</g>
<g >
</g>
<g >
</g>
<g >
</g>
<g >
</g>
<g >
</g>
<g >
</g>
<g >
</g>
<g >
</g>
<g >
</g>
<g >
</g>
<g >
</g>
<g >
</g>
<g >
</g>
<g >
</g>
<g >
</g>
<g >
</g>
<g >
</g>
<g >
</g>
<g >
</g>
<g >
</g>
<g >
</g>
<g >
</g>
<g >
</g>
<g >
</g>
<g >
</g>
<g >
</g>
<g >
</g>
<g >
</g>
<g >
</g>
<g >
</g>
<g >
</g>
<g >
</g>
<g >
</g>
<g >
</g>
<g >
</g>
<g >
</g>
</g>
<g style="fill:#000000; fill-opacity:0.0; 
stroke:#000000; stroke-width:0.2000; stroke-opacity:1; 
stroke-linecap:round; stroke-linejoin:round;">
</g>
<g style="fill:#D0D2CD; fill-opacity:0.0; 
stroke:#D0D2CD; stroke-width:0.2000; stroke-opacity:1; 
stroke-linecap:round; stroke-linejoin:round;">
</g>
<g style="fill:#D0D2CD; fill-opacity:0.0; 
stroke:#D0D2CD; stroke-width:0.1000; stroke-opacity:1; 
stroke-linecap:round; stroke-linejoin:round;">
<circle cx="131.9905" cy="81.4707" r="10.8600" /> 
</g>
<g style="fill:#D0D2CD; fill-opacity:0.0; 
stroke:#D0D2CD; stroke-width:0.1500; stroke-opacity:1; 
stroke-linecap:round; stroke-linejoin:round;">
<path d="M97.2548 102.7463 A1.5003 1.5003 0.0 0 0 96.8930 102.5964" />
<path d="M207.0273 65.0907 A1.4999 1.4999 0.0 0 0 205.1666 63.9280" />
<path d="M207.0273 65.0907
L207.3759 66.8841
" />
<path d="M180.6209 75.9402 A1.5000 1.5000 0.0 0 0 179.5602 77.7773" />
<path d="M71.4292 69.1151 A1.4999 1.4999 0.0 0 0 70.3686 67.2780" />
<path d="M191.1253 73.1255 A1.4999 1.4999 0.0 0 0 192.1860 71.2884" />
<path d="M244.6230 49.4333
L246.7801 74.0891
" />
<path d="M148.5948 110.9350 A1.5000 1.5000 0.0 0 0 150.6438 111.4841" />
<path d="M166.1399 102.5964 A1.5004 1.5004 0.0 0 0 165.7781 102.7463" />
<path d="M97.2548 102.7463
L112.3891 111.4841
" />
<path d="M68.0018 10.4283
L67.4625 12.4410
" />
<path d="M197.3056 13.5252
L215.9604 9.8991
" />
<path d="M219.5712 20.6138 A1.4999 1.4999 0.0 0 0 221.1744 21.8219" />
<path d="M55.6570 66.8841
L56.0056 65.0907
" />
<path d="M35.3486 77.2654 A1.4999 1.4999 0.0 0 0 36.9736 75.9019" />
<path d="M217.7190 11.0853
L219.5712 20.6138
" />
<path d="M174.9399 15.8117
L175.5222 17.9850
" />
<path d="M78.5551 96.1299 A1.4999 1.4999 0.0 0 0 79.6158 97.9670" />
<path d="M166.1399 102.5964
L183.4171 97.9670
" />
<path d="M39.5657 65.2843
L53.8983 68.0703
" />
<path d="M79.6158 97.9670
L96.8930 102.5964
" />
<path d="M41.8585 21.8219 A1.5000 1.5000 0.0 0 0 43.4617 20.6138" />
<path d="M192.6643 67.2780 A1.5001 1.5001 0.0 0 0 191.6036 69.1151" />
<path d="M87.0324 13.9746
L69.8389 9.3676
" />
<path d="M192.1860 71.2884
L191.6036 69.1151
" />
<path d="M142.7997 102.2073 A70.5285 70.5285 0.0 0 0 120.2332 102.2073" />
<path d="M226.0592 75.9019 A1.5001 1.5001 0.0 0 0 227.6843 77.2655" />
<path d="M88.0930 15.8117 A1.5000 1.5000 0.0 0 0 87.0324 13.9746" />
<path d="M87.5107 17.9850 A1.5001 1.5001 0.0 0 0 88.5713 19.8222" />
<path d="M88.5713 19.8222
L121.9402 27.7449
" />
<path d="M193.1940 9.3676
L176.0005 13.9746
" />
<path d="M71.4293 69.1151
L70.8469 71.2884
" />
<path d="M16.2528 74.0891
L18.4099 49.4333
" />
<path d="M43.4617 20.6138
L45.3139 11.0853
" />
<path d="M195.5705 12.4410
L195.0311 10.4283
" />
<path d="M39.5657 65.2843 A1.5000 1.5000 0.0 0 0 37.7852 66.6260" />
<path d="M245.4166 75.7141 A1.5000 1.5000 0.0 0 0 246.7801 74.0891" />
<path d="M78.5551 96.1299
L83.4727 77.7773
" />
<path d="M47.0725 9.8991
L65.7273 13.5252
" />
<path d="M180.6209 75.9402
L191.1253 73.1255
" />
<path d="M179.5602 77.7773
L184.4778 96.1299
" />
<path d="M176.0005 13.9746 A1.5000 1.5000 0.0 0 0 174.9399 15.8117" />
<path d="M217.7190 11.0853 A1.4999 1.4999 0.0 0 0 215.9604 9.8991" />
<path d="M150.6438 111.4841
L165.7781 102.7463
" />
<path d="M70.8470 71.2884 A1.4999 1.4999 0.0 0 0 71.9076 73.1255" />
<path d="M112.3891 111.4840 A1.5001 1.5001 0.0 0 0 114.4381 110.9350" />
<path d="M242.1783 21.4900
L244.4792 47.7895
" />
<path d="M120.2332 102.2073 A1.5001 1.5001 0.0 0 0 119.0902 102.9492" />
<path d="M143.9427 102.9492
L148.5948 110.9350
" />
<path d="M141.0956 27.7511
L174.4616 19.8222
" />
<path d="M22.4796 20.1264 A1.5000 1.5000 0.0 0 0 20.8546 21.4900" />
<path d="M242.1783 21.4900 A1.5001 1.5001 0.0 0 0 240.5533 20.1264" />
<path d="M195.5705 12.4410 A1.4999 1.4999 0.0 0 0 197.3056 13.5252" />
<path d="M174.4616 19.8221 A1.4999 1.4999 0.0 0 0 175.5222 17.9851" />
<path d="M83.4727 77.7773 A1.5000 1.5000 0.0 0 0 82.4121 75.9402" />
<path d="M221.1744 21.8219
L240.5533 20.1264
" />
<path d="M225.2477 66.6260 A1.4999 1.4999 0.0 0 0 223.4672 65.2843" />
<path d="M53.8983 68.0703 A1.4999 1.4999 0.0 0 0 55.6570 66.8841" />
<path d="M209.1346 68.0703
L223.4672 65.2843
" />
<path d="M207.3759 66.8841 A1.5001 1.5001 0.0 0 0 209.1346 68.0703" />
<path d="M18.5537 47.7895
L20.8546 21.4900
" />
<path d="M114.4381 110.9350
L119.0902 102.9492
" />
<path d="M183.4171 97.9670 A1.5001 1.5001 0.0 0 0 184.4778 96.1299" />
<path d="M47.0725 9.8991 A1.5000 1.5000 0.0 0 0 45.3139 11.0853" />
<path d="M227.6843 77.2655
L245.4166 75.7141
" />
<path d="M18.5537 47.7895
L18.4099 49.4333
" />
<path d="M244.6230 49.4333
L244.4792 47.7895
" />
<path d="M57.8663 63.9280 A1.5001 1.5001 0.0 0 0 56.0056 65.0907" />
<path d="M195.0311 10.4283 A1.4999 1.4999 0.0 0 0 193.1940 9.3676" />
<path d="M57.8663 63.9280
L70.3686 67.2780
" />
<path d="M192.6643 67.2780
L205.1666 63.9280
" />
<path d="M121.9402 27.7449
L141.0956 27.7511
" />
<path d="M36.9736 75.9019
L37.7852 66.6260
" />
<path d="M16.2528 74.0891 A1.5000 1.5000 0.0 0 0 17.6163 75.7141" />
<path d="M143.9427 102.9492 A1.4999 1.4999 0.0 0 0 142.7997 102.2073" />
<path d="M22.4796 20.1264
L41.8585 21.8219
" />
<path d="M69.8389 9.3676 A1.4999 1.4999 0.0 0 0 68.0018 10.4283" />
<path d="M65.7273 13.5252 A1.5001 1.5001 0.0 0 0 67.4624 12.4410" />
<path d="M71.9076 73.1255
L82.4120 75.9402
" />
<path d="M17.6163 75.7141
L35.3486 77.2655
" />
<path d="M225.2477 66.6260
L226.0593 75.9019
" />
<path d="M87.5107 17.9850
L88.0930 15.8117
" />
</g>
<g style="fill:#D0D2CD; fill-opacity:0.0; 
stroke:#D0D2CD; stroke-width:0.0500; stroke-opacity:1; 
stroke-linecap:round; stroke-linejoin:round;">
<path d="M109.6318 65.2096
L96.1185 61.5887
" />
<path d="M96.1185 61.5887
L99.7420 48.0657
" />
<path d="M99.7420 48.0657
L113.2553 51.6866
" />
<path d="M113.2553 51.6866
L109.6318 65.2096
" />
<path d="M88.1387 73.9444
L74.6254 70.3235
" />
<path d="M74.6254 70.3235
L78.2489 56.8005
" />
<path d="M78.2489 56.8005
L91.7622 60.4214
" />
<path d="M91.7622 60.4214
L88.1387 73.9444
" />
<path d="M36.3935 38.8352
L22.4568 37.6159
" />
<path d="M22.4568 37.6159
L23.6769 23.6691
" />
<path d="M23.6769 23.6691
L37.6137 24.8885
" />
<path d="M37.6137 24.8885
L36.3935 38.8352
" />
<path d="M188.3978 70.3261
L174.8845 73.9470
" />
<path d="M174.8845 73.9470
L171.2610 60.4240
" />
<path d="M171.2610 60.4240
L184.7743 56.8031
" />
<path d="M184.7743 56.8031
L188.3978 70.3261
" />
<path d="M224.0820 61.6910
L210.3490 64.3604
" />
<path d="M210.3490 64.3604
L207.6777 50.6176
" />
<path d="M207.6777 50.6176
L221.4106 47.9482
" />
<path d="M221.4106 47.9482
L224.0820 61.6910
" />
<path d="M217.4037 27.3341
L203.6707 30.0035
" />
<path d="M203.6707 30.0035
L200.9994 16.2607
" />
<path d="M200.9994 16.2607
L214.7323 13.5913
" />
<path d="M214.7323 13.5913
L217.4037 27.3341
" />
<path d="M162.3754 44.6876
L148.8621 48.3084
" />
<path d="M148.8621 48.3084
L145.2386 34.7855
" />
<path d="M145.2386 34.7855
L158.7519 31.1646
" />
<path d="M158.7519 31.1646
L162.3754 44.6876
" />
<path d="M95.8469 98.7859
L82.3336 95.1650
" />
<path d="M82.3336 95.1650
L85.9571 81.6420
" />
<path d="M85.9571 81.6420
L99.4704 85.2629
" />
<path d="M99.4704 85.2629
L95.8469 98.7859
" />
<path d="M171.4340 78.4950
L157.9207 82.1159
" />
<path d="M157.9207 82.1159
L154.2973 68.5929
" />
<path d="M154.2973 68.5929
L167.8106 64.9720
" />
<path d="M167.8106 64.9720
L171.4340 78.4950
" />
<path d="M242.0914 55.0501
L228.1546 56.2695
" />
<path d="M228.1546 56.2695
L226.9345 42.3227
" />
<path d="M226.9345 42.3227
L240.8712 41.1034
" />
<path d="M240.8712 41.1034
L242.0914 55.0501
" />
<path d="M179.3391 36.5187
L165.8258 40.1396
" />
<path d="M165.8258 40.1396
L162.2024 26.6166
" />
<path d="M162.2024 26.6166
L175.7157 22.9957
" />
<path d="M175.7157 22.9957
L179.3391 36.5187
" />
<path d="M92.6681 57.0407
L79.1548 53.4198
" />
<path d="M79.1548 53.4198
L82.7782 39.8968
" />
<path d="M82.7782 39.8968
L96.2915 43.5177
" />
<path d="M96.2915 43.5177
L92.6681 57.0407
" />
<path d="M59.3524 30.0016
L45.6194 27.3321
" />
<path d="M45.6194 27.3321
L48.2908 13.5894
" />
<path d="M48.2908 13.5894
L62.0237 16.2588
" />
<path d="M62.0237 16.2588
L59.3524 30.0016
" />
<path d="M200.3793 43.5631
L186.8660 47.1840
" />
<path d="M186.8660 47.1840
L183.2425 33.6610
" />
<path d="M183.2425 33.6610
L196.7558 30.0402
" />
<path d="M196.7558 30.0402
L200.3793 43.5631
" />
<path d="M71.6279 64.0851
L58.1146 60.4642
" />
<path d="M58.1146 60.4642
L61.7381 46.9413
" />
<path d="M61.7381 46.9413
L75.2514 50.5621
" />
<path d="M75.2514 50.5621
L71.6279 64.0851
" />
<path d="M97.1974 40.1370
L83.6841 36.5161
" />
<path d="M83.6841 36.5161
L87.3076 22.9931
" />
<path d="M87.3076 22.9931
L100.8209 26.6140
" />
<path d="M100.8209 26.6140
L97.1974 40.1370
" />
<path d="M80.6866 30.2777
L67.1733 26.6568
" />
<path d="M67.1733 26.6568
L70.7967 13.1339
" />
<path d="M70.7967 13.1339
L84.3100 16.7547
" />
<path d="M84.3100 16.7547
L80.6866 30.2777
" />
<path d="M52.6741 64.3585
L38.9411 61.6891
" />
<path d="M38.9411 61.6891
L41.6124 47.9463
" />
<path d="M41.6124 47.9463
L55.3454 50.6157
" />
<path d="M55.3454 50.6157
L52.6741 64.3585
" />
<path d="M183.8685 53.4224
L170.3552 57.0433
" />
<path d="M170.3552 57.0433
L166.7317 43.5203
" />
<path d="M166.7317 43.5203
L180.2450 39.8994
" />
<path d="M180.2450 39.8994
L183.8685 53.4224
" />
<path d="M162.6539 100.7522
L150.4179 107.5347
" />
<path d="M150.4179 107.5347
L143.6306 95.2900
" />
<path d="M143.6306 95.2900
L155.8665 88.5075
" />
<path d="M155.8665 88.5075
L162.6539 100.7522
" />
<path d="M195.8500 26.6594
L182.3367 30.2803
" />
<path d="M182.3367 30.2803
L178.7132 16.7573
" />
<path d="M178.7132 16.7573
L192.2265 13.1365
" />
<path d="M192.2265 13.1365
L195.8500 26.6594
" />
<path d="M34.8683 56.2686
L20.9315 55.0493
" />
<path d="M20.9315 55.0493
L22.1517 41.1026
" />
<path d="M22.1517 41.1026
L36.0885 42.3219
" />
<path d="M36.0885 42.3219
L34.8683 56.2686
" />
<path d="M33.3431 73.7020
L19.4063 72.4827
" />
<path d="M19.4063 72.4827
L20.6265 58.5360
" />
<path d="M20.6265 58.5360
L34.5632 59.7553
" />
<path d="M34.5632 59.7553
L33.3431 73.7020
" />
<path d="M56.0132 47.1800
L42.2803 44.5106
" />
<path d="M42.2803 44.5106
L44.9516 30.7678
" />
<path d="M44.9516 30.7678
L58.6846 33.4373
" />
<path d="M58.6846 33.4373
L56.0132 47.1800
" />
<path d="M180.6896 95.1676
L167.1763 98.7884
" />
<path d="M167.1763 98.7884
L163.5528 85.2655
" />
<path d="M163.5528 85.2655
L177.0661 81.6446
" />
<path d="M177.0661 81.6446
L180.6896 95.1676
" />
<path d="M114.1612 48.3059
L100.6479 44.6850
" />
<path d="M100.6479 44.6850
L104.2713 31.1620
" />
<path d="M104.2713 31.1620
L117.7846 34.7829
" />
<path d="M117.7846 34.7829
L114.1612 48.3059
" />
<path d="M105.1025 82.1133
L91.5892 78.4924
" />
<path d="M91.5892 78.4924
L95.2127 64.9694
" />
<path d="M95.2127 64.9694
L108.7260 68.5903
" />
<path d="M108.7260 68.5903
L105.1025 82.1133
" />
<path d="M240.5662 37.6167
L226.6294 38.8360
" />
<path d="M226.6294 38.8360
L225.4092 24.8893
" />
<path d="M225.4092 24.8893
L239.3460 23.6700
" />
<path d="M239.3460 23.6700
L240.5662 37.6167
" />
<path d="M220.7428 44.5125
L207.0098 47.1819
" />
<path d="M207.0098 47.1819
L204.3385 33.4392
" />
<path d="M204.3385 33.4392
L218.0715 30.7697
" />
<path d="M218.0715 30.7697
L220.7428 44.5125
" />
<path d="M166.9047 61.5913
L153.3914 65.2122
" />
<path d="M153.3914 65.2122
L149.7679 51.6892
" />
<path d="M149.7679 51.6892
L163.2812 48.0683
" />
<path d="M163.2812 48.0683
L166.9047 61.5913
" />
<path d="M243.6166 72.4836
L229.6799 73.7029
" />
<path d="M229.6799 73.7029
L228.4597 59.7561
" />
<path d="M228.4597 59.7561
L242.3965 58.5368
" />
<path d="M242.3965 58.5368
L243.6166 72.4836
" />
<path d="M112.6062 107.5298
L100.3703 100.7473
" />
<path d="M100.3703 100.7473
L107.1576 88.5027
" />
<path d="M107.1576 88.5027
L119.3936 95.2851
" />
<path d="M119.3936 95.2851
L112.6062 107.5298
" />
<path d="M76.1572 47.1814
L62.6439 43.5605
" />
<path d="M62.6439 43.5605
L66.2674 30.0376
" />
<path d="M66.2674 30.0376
L79.7807 33.6584
" />
<path d="M79.7807 33.6584
L76.1572 47.1814
" />
<path d="M204.9086 60.4668
L191.3953 64.0877
" />
<path d="M191.3953 64.0877
L187.7719 50.5647
" />
<path d="M187.7719 50.5647
L201.2852 46.9439
" />
<path d="M201.2852 46.9439
L204.9086 60.4668
" />
<g >
</g>
<g >
</g>
<g >
</g>
<g >
</g>
<g >
</g>
<g >
</g>
<g >
</g>
<g >
</g>
<g >
</g>
<g >
</g>
<g >
</g>
<g >
</g>
<g >
</g>
<g >
</g>
<g >
</g>
<g >
</g>
<g >
</g>
<g >
</g>
<g >
</g>
<g >
</g>
<g >
</g>
<g >
</g>
<g >
</g>
<g >
</g>
<g >
</g>
<g >
</g>
<g >
</g>
<g >
</g>
<g >
</g>
<g >
</g>
<g >
</g>
<g >
</g>
<g >
</g>
<g >
</g>
<g >
</g>
<g >
</g>
<g >
</g>
<g >
</g>
<g >
</g>
<g >
</g>
<g >
</g>
<g >
</g>
<g >
</g>
<g >
</g>
<g >
</g>
<g >
</g>
<g >
</g>
<g >
</g>
<g >
</g>
<g >
</g>
<g >
</g>
<g >
</g>
<g >
</g>
<g >
</g>
<g >
</g>
<g >
</g>
<g >
</g>
<g >
</g>
<g >
</g>
<g >
</g>
<g >
</g>
<g >
</g>
<g >
</g>
<g >
</g>
<g >
</g>
<g >
</g>
<g >
</g>
<g >
</g>
<g >
</g>
<g >
</g>
<g >
</g>
<g >
</g>
<g >
</g>
<g >
</g>
<g >
</g>
<g >
</g>
<g >
</g>
<g >
</g>
<g >
</g>
<g >
</g>
<g >
</g>
<g >
</g>
<g >
</g>
<g >
</g>
<g >
</g>
</g> 
</svg>
