M48
; DRILL file {KiCad (6.0.4-0)} date 2022 June 13, Monday 16:53:11
; FORMAT={-:-/ absolute / metric / decimal}
; #@! TF.CreationDate,2022-06-13T16:53:11+02:00
; #@! TF.GenerationSoftware,Kicad,Pcbnew,(6.0.4-0)
; #@! TF.FileFunction,NonPlated,1,2,NPTH
FMAT,2
METRIC
; #@! TA.AperFunction,NonPlated,NPTH,ComponentDrill
T1C0.900
; #@! TA.AperFunction,NonPlated,NPTH,ComponentDrill
T2C1.702
; #@! TA.AperFunction,NonPlated,NPTH,ComponentDrill
T3C3.000
; #@! TA.AperFunction,NonPlated,NPTH,ComponentDrill
T4C3.429
%
G90
G05
T1
X135.868Y120.752
X138.868Y120.752
T2
X47.583Y81.122
X52.553Y64.865
X58.102Y84.338
X63.072Y68.081
X65.971Y103.79
X68.923Y87.048
X71.875Y70.307
X76.804Y105.7
X79.756Y88.958
X82.708Y72.217
X87.261Y113.57
X88.743Y96.635
X90.224Y79.7
X98.219Y114.529
X99.701Y97.594
X101.182Y80.658
X109.925Y105.077
X109.925Y88.077
X109.925Y71.077
X120.925Y105.077
X120.925Y88.077
X120.925Y71.077
X125.044Y51.797
X128.099Y95.544
X128.099Y78.544
X135.908Y50.077
X139.099Y95.544
X139.099Y78.544
X144.69Y47.475
X154.739Y43.001
T3
X46.964Y84.854
X51.103Y88.42
X51.935Y68.597
X56.073Y72.163
X56.527Y87.778
X61.498Y71.521
X65.812Y107.57
X68.764Y90.828
X70.354Y110.605
X71.716Y74.086
X73.306Y93.863
X75.66Y109.306
X76.258Y77.121
X78.612Y92.565
X81.564Y75.823
X87.432Y117.349
X88.914Y100.414
X90.395Y83.479
X92.221Y119.977
X93.703Y103.042
X95.185Y86.106
X97.394Y118.221
X98.876Y101.286
X100.357Y84.35
X110.425Y108.827
X110.425Y91.827
X110.425Y74.827
X115.425Y111.027
X115.425Y94.027
X115.425Y77.027
X120.425Y108.827
X120.425Y91.827
X120.425Y74.827
X126.124Y55.423
X128.599Y99.294
X128.599Y82.294
X131.407Y56.814
X133.599Y101.494
X133.599Y84.494
X136.001Y53.859
X138.599Y99.294
X138.599Y82.294
X146.672Y50.698
X152.135Y50.674
X155.808Y46.63
T4
X52.842Y82.73
X57.813Y66.473
X71.387Y104.745
X74.339Y88.003
X77.291Y71.262
X92.74Y114.049
X94.222Y97.114
X95.703Y80.179
X115.425Y105.077
X115.425Y88.077
X115.425Y71.077
X130.476Y50.937
X133.599Y95.544
X133.599Y78.544
X149.715Y45.238
T0
M30
