%TF.GenerationSoftware,KiCad,Pcbnew,(6.0.4-0)*%
%TF.CreationDate,2022-07-25T11:54:55+02:00*%
%TF.ProjectId,battoota,62617474-6f6f-4746-912e-6b696361645f,v1.0.0*%
%TF.SameCoordinates,Original*%
%TF.FileFunction,Legend,Top*%
%TF.FilePolarity,Positive*%
%FSLAX46Y46*%
G04 Gerber Fmt 4.6, Leading zero omitted, Abs format (unit mm)*
G04 Created by KiCad (PCBNEW (6.0.4-0)) date 2022-07-25 11:54:55*
%MOMM*%
%LPD*%
G01*
G04 APERTURE LIST*
G04 Aperture macros list*
%AMRoundRect*
0 Rectangle with rounded corners*
0 $1 Rounding radius*
0 $2 $3 $4 $5 $6 $7 $8 $9 X,Y pos of 4 corners*
0 Add a 4 corners polygon primitive as box body*
4,1,4,$2,$3,$4,$5,$6,$7,$8,$9,$2,$3,0*
0 Add four circle primitives for the rounded corners*
1,1,$1+$1,$2,$3*
1,1,$1+$1,$4,$5*
1,1,$1+$1,$6,$7*
1,1,$1+$1,$8,$9*
0 Add four rect primitives between the rounded corners*
20,1,$1+$1,$2,$3,$4,$5,0*
20,1,$1+$1,$4,$5,$6,$7,0*
20,1,$1+$1,$6,$7,$8,$9,0*
20,1,$1+$1,$8,$9,$2,$3,0*%
%AMFreePoly0*
4,1,16,0.535355,0.785355,0.550000,0.750000,0.550000,-0.750000,0.535355,-0.785355,0.500000,-0.800000,-0.650000,-0.800000,-0.685355,-0.785355,-0.700000,-0.750000,-0.691603,-0.722265,-0.210093,0.000000,-0.691603,0.722265,-0.699029,0.759806,-0.677735,0.791603,-0.650000,0.800000,0.500000,0.800000,0.535355,0.785355,0.535355,0.785355,$1*%
%AMFreePoly1*
4,1,16,0.535355,0.785355,0.541603,0.777735,1.041603,0.027735,1.049029,-0.009806,1.041603,-0.027735,0.541603,-0.777735,0.509806,-0.799029,0.500000,-0.800000,-0.500000,-0.800000,-0.535355,-0.785355,-0.550000,-0.750000,-0.550000,0.750000,-0.535355,0.785355,-0.500000,0.800000,0.500000,0.800000,0.535355,0.785355,0.535355,0.785355,$1*%
G04 Aperture macros list end*
%ADD10C,0.150000*%
%ADD11C,0.100000*%
%ADD12C,0.120000*%
%ADD13C,0.200000*%
%ADD14C,0.010000*%
%ADD15C,2.000000*%
%ADD16RoundRect,0.375000X-0.750000X0.375000X-0.750000X-0.375000X0.750000X-0.375000X0.750000X0.375000X0*%
%ADD17C,1.752600*%
%ADD18C,2.100000*%
%ADD19C,1.801800*%
%ADD20C,3.100000*%
%ADD21C,3.529000*%
%ADD22RoundRect,0.050000X-1.054507X-1.505993X1.505993X-1.054507X1.054507X1.505993X-1.505993X1.054507X0*%
%ADD23C,2.132000*%
%ADD24RoundRect,0.050000X-1.181751X-1.408356X1.408356X-1.181751X1.181751X1.408356X-1.408356X1.181751X0*%
%ADD25RoundRect,0.050000X-1.300000X-1.300000X1.300000X-1.300000X1.300000X1.300000X-1.300000X1.300000X0*%
%ADD26RoundRect,0.050000X-0.450000X-0.450000X0.450000X-0.450000X0.450000X0.450000X-0.450000X0.450000X0*%
%ADD27RoundRect,0.050000X-0.450000X-0.625000X0.450000X-0.625000X0.450000X0.625000X-0.450000X0.625000X0*%
%ADD28C,1.100000*%
%ADD29RoundRect,0.050000X-1.716367X-0.658851X0.658851X-1.716367X1.716367X0.658851X-0.658851X1.716367X0*%
%ADD30RoundRect,0.425000X-0.750000X0.375000X-0.750000X-0.375000X0.750000X-0.375000X0.750000X0.375000X0*%
%ADD31RoundRect,0.050000X-0.863113X-1.623279X1.623279X-0.863113X0.863113X1.623279X-1.623279X0.863113X0*%
%ADD32RoundRect,0.050000X-1.487360X-1.080630X1.080630X-1.487360X1.487360X1.080630X-1.080630X1.487360X0*%
%ADD33C,1.852600*%
%ADD34FreePoly0,180.000000*%
%ADD35RoundRect,0.050000X-0.762000X0.250000X-0.762000X-0.250000X0.762000X-0.250000X0.762000X0.250000X0*%
%ADD36FreePoly1,180.000000*%
%ADD37C,4.500000*%
G04 APERTURE END LIST*
D10*
%TO.C,B1*%
X158422171Y76170873D02*
X157945981Y75837539D01*
X158422171Y75599444D02*
X157422171Y75599444D01*
X157422171Y75980396D01*
X157469791Y76075634D01*
X157517410Y76123254D01*
X157612648Y76170873D01*
X157755505Y76170873D01*
X157850743Y76123254D01*
X157898362Y76075634D01*
X157945981Y75980396D01*
X157945981Y75599444D01*
X157898362Y76599444D02*
X157898362Y76932777D01*
X158422171Y77075634D02*
X158422171Y76599444D01*
X157422171Y76599444D01*
X157422171Y77075634D01*
X158374552Y77456587D02*
X158422171Y77599444D01*
X158422171Y77837539D01*
X158374552Y77932777D01*
X158326933Y77980396D01*
X158231695Y78028015D01*
X158136457Y78028015D01*
X158041219Y77980396D01*
X157993600Y77932777D01*
X157945981Y77837539D01*
X157898362Y77647063D01*
X157850743Y77551825D01*
X157803124Y77504206D01*
X157707886Y77456587D01*
X157612648Y77456587D01*
X157517410Y77504206D01*
X157469791Y77551825D01*
X157422171Y77647063D01*
X157422171Y77885158D01*
X157469791Y78028015D01*
X157898362Y78456587D02*
X157898362Y78789920D01*
X158422171Y78932777D02*
X158422171Y78456587D01*
X157422171Y78456587D01*
X157422171Y78932777D01*
X157422171Y79218492D02*
X157422171Y79789920D01*
X158422171Y79504206D02*
X157422171Y79504206D01*
%TO.C,PAD1*%
X133252648Y110300158D02*
X133290743Y110414444D01*
X133328838Y110452539D01*
X133405029Y110490634D01*
X133519314Y110490634D01*
X133595505Y110452539D01*
X133633600Y110414444D01*
X133671695Y110338254D01*
X133671695Y110033492D01*
X132871695Y110033492D01*
X132871695Y110300158D01*
X132909791Y110376349D01*
X132947886Y110414444D01*
X133024076Y110452539D01*
X133100267Y110452539D01*
X133176457Y110414444D01*
X133214552Y110376349D01*
X133252648Y110300158D01*
X133252648Y110033492D01*
X133366933Y110833492D02*
X133366933Y111443015D01*
X133252648Y112300158D02*
X133290743Y112414444D01*
X133328838Y112452539D01*
X133405029Y112490634D01*
X133519314Y112490634D01*
X133595505Y112452539D01*
X133633600Y112414444D01*
X133671695Y112338254D01*
X133671695Y112033492D01*
X132871695Y112033492D01*
X132871695Y112300158D01*
X132909791Y112376349D01*
X132947886Y112414444D01*
X133024076Y112452539D01*
X133100267Y112452539D01*
X133176457Y112414444D01*
X133214552Y112376349D01*
X133252648Y112300158D01*
X133252648Y112033492D01*
X133366933Y112833492D02*
X133366933Y113443015D01*
X133671695Y113138254D02*
X133062171Y113138254D01*
X133252648Y108300158D02*
X133290743Y108414444D01*
X133328838Y108452539D01*
X133405029Y108490634D01*
X133519314Y108490634D01*
X133595505Y108452539D01*
X133633600Y108414444D01*
X133671695Y108338254D01*
X133671695Y108033492D01*
X132871695Y108033492D01*
X132871695Y108300158D01*
X132909791Y108376349D01*
X132947886Y108414444D01*
X133024076Y108452539D01*
X133100267Y108452539D01*
X133176457Y108414444D01*
X133214552Y108376349D01*
X133252648Y108300158D01*
X133252648Y108033492D01*
X133366933Y108833492D02*
X133366933Y109443015D01*
X133671695Y109138254D02*
X133062171Y109138254D01*
%TO.C,MCU1*%
X158185784Y91080443D02*
X158185784Y91880443D01*
X158490546Y91880443D01*
X158566736Y91842348D01*
X158604832Y91804252D01*
X158642927Y91728062D01*
X158642927Y91613776D01*
X158604832Y91537586D01*
X158566736Y91499490D01*
X158490546Y91461395D01*
X158185784Y91461395D01*
X159138165Y91880443D02*
X159214355Y91880443D01*
X159290546Y91842348D01*
X159328641Y91804252D01*
X159366736Y91728062D01*
X159404832Y91575681D01*
X159404832Y91385205D01*
X159366736Y91232824D01*
X159328641Y91156633D01*
X159290546Y91118538D01*
X159214355Y91080443D01*
X159138165Y91080443D01*
X159061974Y91118538D01*
X159023879Y91156633D01*
X158985784Y91232824D01*
X158947689Y91385205D01*
X158947689Y91575681D01*
X158985784Y91728062D01*
X159023879Y91804252D01*
X159061974Y91842348D01*
X159138165Y91880443D01*
X159861974Y91537586D02*
X159785784Y91575681D01*
X159747689Y91613776D01*
X159709593Y91689967D01*
X159709593Y91728062D01*
X159747689Y91804252D01*
X159785784Y91842348D01*
X159861974Y91880443D01*
X160014355Y91880443D01*
X160090546Y91842348D01*
X160128641Y91804252D01*
X160166736Y91728062D01*
X160166736Y91689967D01*
X160128641Y91613776D01*
X160090546Y91575681D01*
X160014355Y91537586D01*
X159861974Y91537586D01*
X159785784Y91499490D01*
X159747689Y91461395D01*
X159709593Y91385205D01*
X159709593Y91232824D01*
X159747689Y91156633D01*
X159785784Y91118538D01*
X159861974Y91080443D01*
X160014355Y91080443D01*
X160090546Y91118538D01*
X160128641Y91156633D01*
X160166736Y91232824D01*
X160166736Y91385205D01*
X160128641Y91461395D01*
X160090546Y91499490D01*
X160014355Y91537586D01*
X148585784Y106320443D02*
X148585784Y107120443D01*
X148890546Y107120443D01*
X148966736Y107082348D01*
X149004832Y107044252D01*
X149042927Y106968062D01*
X149042927Y106853776D01*
X149004832Y106777586D01*
X148966736Y106739490D01*
X148890546Y106701395D01*
X148585784Y106701395D01*
X149347689Y107044252D02*
X149385784Y107082348D01*
X149461974Y107120443D01*
X149652451Y107120443D01*
X149728641Y107082348D01*
X149766736Y107044252D01*
X149804832Y106968062D01*
X149804832Y106891871D01*
X149766736Y106777586D01*
X149309593Y106320443D01*
X149804832Y106320443D01*
X150566736Y106320443D02*
X150109593Y106320443D01*
X150338165Y106320443D02*
X150338165Y107120443D01*
X150261974Y107006157D01*
X150185784Y106929967D01*
X150109593Y106891871D01*
X148585784Y93620443D02*
X148585784Y94420443D01*
X148890546Y94420443D01*
X148966736Y94382348D01*
X149004832Y94344252D01*
X149042927Y94268062D01*
X149042927Y94153776D01*
X149004832Y94077586D01*
X148966736Y94039490D01*
X148890546Y94001395D01*
X148585784Y94001395D01*
X149804832Y93620443D02*
X149347689Y93620443D01*
X149576260Y93620443D02*
X149576260Y94420443D01*
X149500070Y94306157D01*
X149423879Y94229967D01*
X149347689Y94191871D01*
X150490546Y94153776D02*
X150490546Y93620443D01*
X150300070Y94458538D02*
X150109593Y93887109D01*
X150604832Y93887109D01*
X148585784Y103780443D02*
X148585784Y104580443D01*
X148890546Y104580443D01*
X148966736Y104542348D01*
X149004832Y104504252D01*
X149042927Y104428062D01*
X149042927Y104313776D01*
X149004832Y104237586D01*
X148966736Y104199490D01*
X148890546Y104161395D01*
X148585784Y104161395D01*
X149347689Y104504252D02*
X149385784Y104542348D01*
X149461974Y104580443D01*
X149652451Y104580443D01*
X149728641Y104542348D01*
X149766736Y104504252D01*
X149804832Y104428062D01*
X149804832Y104351871D01*
X149766736Y104237586D01*
X149309593Y103780443D01*
X149804832Y103780443D01*
X150300070Y104580443D02*
X150376260Y104580443D01*
X150452451Y104542348D01*
X150490546Y104504252D01*
X150528641Y104428062D01*
X150566736Y104275681D01*
X150566736Y104085205D01*
X150528641Y103932824D01*
X150490546Y103856633D01*
X150452451Y103818538D01*
X150376260Y103780443D01*
X150300070Y103780443D01*
X150223879Y103818538D01*
X150185784Y103856633D01*
X150147689Y103932824D01*
X150109593Y104085205D01*
X150109593Y104275681D01*
X150147689Y104428062D01*
X150185784Y104504252D01*
X150223879Y104542348D01*
X150300070Y104580443D01*
X152305594Y111400443D02*
X152038928Y111781395D01*
X151848451Y111400443D02*
X151848451Y112200443D01*
X152153213Y112200443D01*
X152229404Y112162348D01*
X152267499Y112124252D01*
X152305594Y112048062D01*
X152305594Y111933776D01*
X152267499Y111857586D01*
X152229404Y111819490D01*
X152153213Y111781395D01*
X151848451Y111781395D01*
X152610356Y111438538D02*
X152724642Y111400443D01*
X152915118Y111400443D01*
X152991309Y111438538D01*
X153029404Y111476633D01*
X153067499Y111552824D01*
X153067499Y111629014D01*
X153029404Y111705205D01*
X152991309Y111743300D01*
X152915118Y111781395D01*
X152762737Y111819490D01*
X152686547Y111857586D01*
X152648451Y111895681D01*
X152610356Y111971871D01*
X152610356Y112048062D01*
X152648451Y112124252D01*
X152686547Y112162348D01*
X152762737Y112200443D01*
X152953213Y112200443D01*
X153067499Y112162348D01*
X153296070Y112200443D02*
X153753213Y112200443D01*
X153524642Y111400443D02*
X153524642Y112200443D01*
X158185784Y88540443D02*
X158185784Y89340443D01*
X158490546Y89340443D01*
X158566736Y89302348D01*
X158604832Y89264252D01*
X158642927Y89188062D01*
X158642927Y89073776D01*
X158604832Y88997586D01*
X158566736Y88959490D01*
X158490546Y88921395D01*
X158185784Y88921395D01*
X159138165Y89340443D02*
X159214355Y89340443D01*
X159290546Y89302348D01*
X159328641Y89264252D01*
X159366736Y89188062D01*
X159404832Y89035681D01*
X159404832Y88845205D01*
X159366736Y88692824D01*
X159328641Y88616633D01*
X159290546Y88578538D01*
X159214355Y88540443D01*
X159138165Y88540443D01*
X159061974Y88578538D01*
X159023879Y88616633D01*
X158985784Y88692824D01*
X158947689Y88845205D01*
X158947689Y89035681D01*
X158985784Y89188062D01*
X159023879Y89264252D01*
X159061974Y89302348D01*
X159138165Y89340443D01*
X159785784Y88540443D02*
X159938165Y88540443D01*
X160014355Y88578538D01*
X160052451Y88616633D01*
X160128641Y88730919D01*
X160166736Y88883300D01*
X160166736Y89188062D01*
X160128641Y89264252D01*
X160090546Y89302348D01*
X160014355Y89340443D01*
X159861974Y89340443D01*
X159785784Y89302348D01*
X159747689Y89264252D01*
X159709593Y89188062D01*
X159709593Y88997586D01*
X159747689Y88921395D01*
X159785784Y88883300D01*
X159861974Y88845205D01*
X160014355Y88845205D01*
X160090546Y88883300D01*
X160128641Y88921395D01*
X160166736Y88997586D01*
X148585784Y91080443D02*
X148585784Y91880443D01*
X148890546Y91880443D01*
X148966736Y91842348D01*
X149004832Y91804252D01*
X149042927Y91728062D01*
X149042927Y91613776D01*
X149004832Y91537586D01*
X148966736Y91499490D01*
X148890546Y91461395D01*
X148585784Y91461395D01*
X149804832Y91080443D02*
X149347689Y91080443D01*
X149576260Y91080443D02*
X149576260Y91880443D01*
X149500070Y91766157D01*
X149423879Y91689967D01*
X149347689Y91651871D01*
X150490546Y91880443D02*
X150338165Y91880443D01*
X150261974Y91842348D01*
X150223879Y91804252D01*
X150147689Y91689967D01*
X150109593Y91537586D01*
X150109593Y91232824D01*
X150147689Y91156633D01*
X150185784Y91118538D01*
X150261974Y91080443D01*
X150414355Y91080443D01*
X150490546Y91118538D01*
X150528641Y91156633D01*
X150566736Y91232824D01*
X150566736Y91423300D01*
X150528641Y91499490D01*
X150490546Y91537586D01*
X150414355Y91575681D01*
X150261974Y91575681D01*
X150185784Y91537586D01*
X150147689Y91499490D01*
X150109593Y91423300D01*
X152305595Y116480443D02*
X152038928Y116861395D01*
X151848452Y116480443D02*
X151848452Y117280443D01*
X152153214Y117280443D01*
X152229404Y117242348D01*
X152267499Y117204252D01*
X152305595Y117128062D01*
X152305595Y117013776D01*
X152267499Y116937586D01*
X152229404Y116899490D01*
X152153214Y116861395D01*
X151848452Y116861395D01*
X152610356Y116709014D02*
X152991309Y116709014D01*
X152534166Y116480443D02*
X152800833Y117280443D01*
X153067499Y116480443D01*
X153257976Y117280443D02*
X153448452Y116480443D01*
X153600833Y117051871D01*
X153753214Y116480443D01*
X153943690Y117280443D01*
X158185784Y106320443D02*
X158185784Y107120443D01*
X158490546Y107120443D01*
X158566736Y107082348D01*
X158604832Y107044252D01*
X158642927Y106968062D01*
X158642927Y106853776D01*
X158604832Y106777586D01*
X158566736Y106739490D01*
X158490546Y106701395D01*
X158185784Y106701395D01*
X159138165Y107120443D02*
X159214355Y107120443D01*
X159290546Y107082348D01*
X159328641Y107044252D01*
X159366736Y106968062D01*
X159404832Y106815681D01*
X159404832Y106625205D01*
X159366736Y106472824D01*
X159328641Y106396633D01*
X159290546Y106358538D01*
X159214355Y106320443D01*
X159138165Y106320443D01*
X159061974Y106358538D01*
X159023879Y106396633D01*
X158985784Y106472824D01*
X158947689Y106625205D01*
X158947689Y106815681D01*
X158985784Y106968062D01*
X159023879Y107044252D01*
X159061974Y107082348D01*
X159138165Y107120443D01*
X159709593Y107044252D02*
X159747689Y107082348D01*
X159823879Y107120443D01*
X160014355Y107120443D01*
X160090546Y107082348D01*
X160128641Y107044252D01*
X160166736Y106968062D01*
X160166736Y106891871D01*
X160128641Y106777586D01*
X159671498Y106320443D01*
X160166736Y106320443D01*
X148585784Y98700443D02*
X148585784Y99500443D01*
X148890546Y99500443D01*
X148966736Y99462348D01*
X149004832Y99424252D01*
X149042927Y99348062D01*
X149042927Y99233776D01*
X149004832Y99157586D01*
X148966736Y99119490D01*
X148890546Y99081395D01*
X148585784Y99081395D01*
X149804832Y98700443D02*
X149347689Y98700443D01*
X149576260Y98700443D02*
X149576260Y99500443D01*
X149500070Y99386157D01*
X149423879Y99309967D01*
X149347689Y99271871D01*
X150261974Y99157586D02*
X150185784Y99195681D01*
X150147689Y99233776D01*
X150109593Y99309967D01*
X150109593Y99348062D01*
X150147689Y99424252D01*
X150185784Y99462348D01*
X150261974Y99500443D01*
X150414355Y99500443D01*
X150490546Y99462348D01*
X150528641Y99424252D01*
X150566736Y99348062D01*
X150566736Y99309967D01*
X150528641Y99233776D01*
X150490546Y99195681D01*
X150414355Y99157586D01*
X150261974Y99157586D01*
X150185784Y99119490D01*
X150147689Y99081395D01*
X150109593Y99005205D01*
X150109593Y98852824D01*
X150147689Y98776633D01*
X150185784Y98738538D01*
X150261974Y98700443D01*
X150414355Y98700443D01*
X150490546Y98738538D01*
X150528641Y98776633D01*
X150566736Y98852824D01*
X150566736Y99005205D01*
X150528641Y99081395D01*
X150490546Y99119490D01*
X150414355Y99157586D01*
X148585784Y88540443D02*
X148585784Y89340443D01*
X148890546Y89340443D01*
X148966736Y89302348D01*
X149004832Y89264252D01*
X149042927Y89188062D01*
X149042927Y89073776D01*
X149004832Y88997586D01*
X148966736Y88959490D01*
X148890546Y88921395D01*
X148585784Y88921395D01*
X149804832Y88540443D02*
X149347689Y88540443D01*
X149576260Y88540443D02*
X149576260Y89340443D01*
X149500070Y89226157D01*
X149423879Y89149967D01*
X149347689Y89111871D01*
X150300070Y89340443D02*
X150376260Y89340443D01*
X150452451Y89302348D01*
X150490546Y89264252D01*
X150528641Y89188062D01*
X150566736Y89035681D01*
X150566736Y88845205D01*
X150528641Y88692824D01*
X150490546Y88616633D01*
X150452451Y88578538D01*
X150376260Y88540443D01*
X150300070Y88540443D01*
X150223879Y88578538D01*
X150185784Y88616633D01*
X150147689Y88692824D01*
X150109593Y88845205D01*
X150109593Y89035681D01*
X150147689Y89188062D01*
X150185784Y89264252D01*
X150223879Y89302348D01*
X150300070Y89340443D01*
X158185784Y103780443D02*
X158185784Y104580443D01*
X158490546Y104580443D01*
X158566736Y104542348D01*
X158604832Y104504252D01*
X158642927Y104428062D01*
X158642927Y104313776D01*
X158604832Y104237586D01*
X158566736Y104199490D01*
X158490546Y104161395D01*
X158185784Y104161395D01*
X159138165Y104580443D02*
X159214355Y104580443D01*
X159290546Y104542348D01*
X159328641Y104504252D01*
X159366736Y104428062D01*
X159404832Y104275681D01*
X159404832Y104085205D01*
X159366736Y103932824D01*
X159328641Y103856633D01*
X159290546Y103818538D01*
X159214355Y103780443D01*
X159138165Y103780443D01*
X159061974Y103818538D01*
X159023879Y103856633D01*
X158985784Y103932824D01*
X158947689Y104085205D01*
X158947689Y104275681D01*
X158985784Y104428062D01*
X159023879Y104504252D01*
X159061974Y104542348D01*
X159138165Y104580443D01*
X159671498Y104580443D02*
X160166736Y104580443D01*
X159900070Y104275681D01*
X160014355Y104275681D01*
X160090546Y104237586D01*
X160128641Y104199490D01*
X160166736Y104123300D01*
X160166736Y103932824D01*
X160128641Y103856633D01*
X160090546Y103818538D01*
X160014355Y103780443D01*
X159785784Y103780443D01*
X159709593Y103818538D01*
X159671498Y103856633D01*
X158185784Y93620443D02*
X158185784Y94420443D01*
X158490546Y94420443D01*
X158566736Y94382348D01*
X158604832Y94344252D01*
X158642927Y94268062D01*
X158642927Y94153776D01*
X158604832Y94077586D01*
X158566736Y94039490D01*
X158490546Y94001395D01*
X158185784Y94001395D01*
X159138165Y94420443D02*
X159214355Y94420443D01*
X159290546Y94382348D01*
X159328641Y94344252D01*
X159366736Y94268062D01*
X159404832Y94115681D01*
X159404832Y93925205D01*
X159366736Y93772824D01*
X159328641Y93696633D01*
X159290546Y93658538D01*
X159214355Y93620443D01*
X159138165Y93620443D01*
X159061974Y93658538D01*
X159023879Y93696633D01*
X158985784Y93772824D01*
X158947689Y93925205D01*
X158947689Y94115681D01*
X158985784Y94268062D01*
X159023879Y94344252D01*
X159061974Y94382348D01*
X159138165Y94420443D01*
X159671498Y94420443D02*
X160204832Y94420443D01*
X159861974Y93620443D01*
X148585784Y101240443D02*
X148585784Y102040443D01*
X148890546Y102040443D01*
X148966736Y102002348D01*
X149004832Y101964252D01*
X149042927Y101888062D01*
X149042927Y101773776D01*
X149004832Y101697586D01*
X148966736Y101659490D01*
X148890546Y101621395D01*
X148585784Y101621395D01*
X149804832Y101240443D02*
X149347689Y101240443D01*
X149576260Y101240443D02*
X149576260Y102040443D01*
X149500070Y101926157D01*
X149423879Y101849967D01*
X149347689Y101811871D01*
X150185784Y101240443D02*
X150338165Y101240443D01*
X150414355Y101278538D01*
X150452451Y101316633D01*
X150528641Y101430919D01*
X150566736Y101583300D01*
X150566736Y101888062D01*
X150528641Y101964252D01*
X150490546Y102002348D01*
X150414355Y102040443D01*
X150261974Y102040443D01*
X150185784Y102002348D01*
X150147689Y101964252D01*
X150109593Y101888062D01*
X150109593Y101697586D01*
X150147689Y101621395D01*
X150185784Y101583300D01*
X150261974Y101545205D01*
X150414355Y101545205D01*
X150490546Y101583300D01*
X150528641Y101621395D01*
X150566736Y101697586D01*
X152248452Y114702348D02*
X152172261Y114740443D01*
X152057976Y114740443D01*
X151943690Y114702348D01*
X151867499Y114626157D01*
X151829404Y114549967D01*
X151791309Y114397586D01*
X151791309Y114283300D01*
X151829404Y114130919D01*
X151867499Y114054728D01*
X151943690Y113978538D01*
X152057976Y113940443D01*
X152134166Y113940443D01*
X152248452Y113978538D01*
X152286547Y114016633D01*
X152286547Y114283300D01*
X152134166Y114283300D01*
X152629404Y113940443D02*
X152629404Y114740443D01*
X153086547Y113940443D01*
X153086547Y114740443D01*
X153467499Y113940443D02*
X153467499Y114740443D01*
X153657976Y114740443D01*
X153772261Y114702348D01*
X153848452Y114626157D01*
X153886547Y114549967D01*
X153924642Y114397586D01*
X153924642Y114283300D01*
X153886547Y114130919D01*
X153848452Y114054728D01*
X153772261Y113978538D01*
X153657976Y113940443D01*
X153467499Y113940443D01*
X158185784Y101240443D02*
X158185784Y102040443D01*
X158490546Y102040443D01*
X158566736Y102002348D01*
X158604832Y101964252D01*
X158642927Y101888062D01*
X158642927Y101773776D01*
X158604832Y101697586D01*
X158566736Y101659490D01*
X158490546Y101621395D01*
X158185784Y101621395D01*
X159138165Y102040443D02*
X159214355Y102040443D01*
X159290546Y102002348D01*
X159328641Y101964252D01*
X159366736Y101888062D01*
X159404832Y101735681D01*
X159404832Y101545205D01*
X159366736Y101392824D01*
X159328641Y101316633D01*
X159290546Y101278538D01*
X159214355Y101240443D01*
X159138165Y101240443D01*
X159061974Y101278538D01*
X159023879Y101316633D01*
X158985784Y101392824D01*
X158947689Y101545205D01*
X158947689Y101735681D01*
X158985784Y101888062D01*
X159023879Y101964252D01*
X159061974Y102002348D01*
X159138165Y102040443D01*
X160090546Y101773776D02*
X160090546Y101240443D01*
X159900070Y102078538D02*
X159709593Y101507109D01*
X160204832Y101507109D01*
X158185784Y98700443D02*
X158185784Y99500443D01*
X158490546Y99500443D01*
X158566736Y99462348D01*
X158604832Y99424252D01*
X158642927Y99348062D01*
X158642927Y99233776D01*
X158604832Y99157586D01*
X158566736Y99119490D01*
X158490546Y99081395D01*
X158185784Y99081395D01*
X159138165Y99500443D02*
X159214355Y99500443D01*
X159290546Y99462348D01*
X159328641Y99424252D01*
X159366736Y99348062D01*
X159404832Y99195681D01*
X159404832Y99005205D01*
X159366736Y98852824D01*
X159328641Y98776633D01*
X159290546Y98738538D01*
X159214355Y98700443D01*
X159138165Y98700443D01*
X159061974Y98738538D01*
X159023879Y98776633D01*
X158985784Y98852824D01*
X158947689Y99005205D01*
X158947689Y99195681D01*
X158985784Y99348062D01*
X159023879Y99424252D01*
X159061974Y99462348D01*
X159138165Y99500443D01*
X160128641Y99500443D02*
X159747689Y99500443D01*
X159709593Y99119490D01*
X159747689Y99157586D01*
X159823879Y99195681D01*
X160014355Y99195681D01*
X160090546Y99157586D01*
X160128641Y99119490D01*
X160166736Y99043300D01*
X160166736Y98852824D01*
X160128641Y98776633D01*
X160090546Y98738538D01*
X160014355Y98700443D01*
X159823879Y98700443D01*
X159747689Y98738538D01*
X159709593Y98776633D01*
X148585784Y96160443D02*
X148585784Y96960443D01*
X148890546Y96960443D01*
X148966736Y96922348D01*
X149004832Y96884252D01*
X149042927Y96808062D01*
X149042927Y96693776D01*
X149004832Y96617586D01*
X148966736Y96579490D01*
X148890546Y96541395D01*
X148585784Y96541395D01*
X149804832Y96160443D02*
X149347689Y96160443D01*
X149576260Y96160443D02*
X149576260Y96960443D01*
X149500070Y96846157D01*
X149423879Y96769967D01*
X149347689Y96731871D01*
X150528641Y96960443D02*
X150147689Y96960443D01*
X150109593Y96579490D01*
X150147689Y96617586D01*
X150223879Y96655681D01*
X150414355Y96655681D01*
X150490546Y96617586D01*
X150528641Y96579490D01*
X150566736Y96503300D01*
X150566736Y96312824D01*
X150528641Y96236633D01*
X150490546Y96198538D01*
X150414355Y96160443D01*
X150223879Y96160443D01*
X150147689Y96198538D01*
X150109593Y96236633D01*
X158185784Y96160443D02*
X158185784Y96960443D01*
X158490546Y96960443D01*
X158566736Y96922348D01*
X158604832Y96884252D01*
X158642927Y96808062D01*
X158642927Y96693776D01*
X158604832Y96617586D01*
X158566736Y96579490D01*
X158490546Y96541395D01*
X158185784Y96541395D01*
X159138165Y96960443D02*
X159214355Y96960443D01*
X159290546Y96922348D01*
X159328641Y96884252D01*
X159366736Y96808062D01*
X159404832Y96655681D01*
X159404832Y96465205D01*
X159366736Y96312824D01*
X159328641Y96236633D01*
X159290546Y96198538D01*
X159214355Y96160443D01*
X159138165Y96160443D01*
X159061974Y96198538D01*
X159023879Y96236633D01*
X158985784Y96312824D01*
X158947689Y96465205D01*
X158947689Y96655681D01*
X158985784Y96808062D01*
X159023879Y96884252D01*
X159061974Y96922348D01*
X159138165Y96960443D01*
X160090546Y96960443D02*
X159938165Y96960443D01*
X159861974Y96922348D01*
X159823879Y96884252D01*
X159747689Y96769967D01*
X159709593Y96617586D01*
X159709593Y96312824D01*
X159747689Y96236633D01*
X159785784Y96198538D01*
X159861974Y96160443D01*
X160014355Y96160443D01*
X160090546Y96198538D01*
X160128641Y96236633D01*
X160166736Y96312824D01*
X160166736Y96503300D01*
X160128641Y96579490D01*
X160090546Y96617586D01*
X160014355Y96655681D01*
X159861974Y96655681D01*
X159785784Y96617586D01*
X159747689Y96579490D01*
X159709593Y96503300D01*
D11*
%TO.C,REF\u002A\u002A*%
X103406138Y77282254D02*
X103406138Y77663206D01*
X103072804Y77425111D02*
X103929947Y77425111D01*
X104025185Y77472730D01*
X104072804Y77567968D01*
X104072804Y77663206D01*
X104025185Y78377492D02*
X104072804Y78282254D01*
X104072804Y78091777D01*
X104025185Y77996539D01*
X103929947Y77948920D01*
X103548995Y77948920D01*
X103453757Y77996539D01*
X103406138Y78091777D01*
X103406138Y78282254D01*
X103453757Y78377492D01*
X103548995Y78425111D01*
X103644233Y78425111D01*
X103739471Y77948920D01*
X103406138Y78853682D02*
X104072804Y78853682D01*
X103501376Y78853682D02*
X103453757Y78901301D01*
X103406138Y78996539D01*
X103406138Y79139396D01*
X103453757Y79234634D01*
X103548995Y79282254D01*
X104072804Y79282254D01*
X103406138Y79615587D02*
X103406138Y79996539D01*
X103072804Y79758444D02*
X103929947Y79758444D01*
X104025185Y79806063D01*
X104072804Y79901301D01*
X104072804Y79996539D01*
X104072804Y80329873D02*
X103406138Y80329873D01*
X103072804Y80329873D02*
X103120424Y80282254D01*
X103168043Y80329873D01*
X103120424Y80377492D01*
X103072804Y80329873D01*
X103168043Y80329873D01*
X103406138Y80806063D02*
X104072804Y80806063D01*
X103501376Y80806063D02*
X103453757Y80853682D01*
X103406138Y80948920D01*
X103406138Y81091777D01*
X103453757Y81187015D01*
X103548995Y81234634D01*
X104072804Y81234634D01*
X103406138Y82139396D02*
X104215662Y82139396D01*
X104310900Y82091777D01*
X104358519Y82044158D01*
X104406138Y81948920D01*
X104406138Y81806063D01*
X104358519Y81710825D01*
X104025185Y82139396D02*
X104072804Y82044158D01*
X104072804Y81853682D01*
X104025185Y81758444D01*
X103977566Y81710825D01*
X103882328Y81663206D01*
X103596614Y81663206D01*
X103501376Y81710825D01*
X103453757Y81758444D01*
X103406138Y81853682D01*
X103406138Y82044158D01*
X103453757Y82139396D01*
X103342638Y91172754D02*
X104342638Y91172754D01*
X103390257Y91172754D02*
X103342638Y91267992D01*
X103342638Y91458468D01*
X103390257Y91553706D01*
X103437876Y91601325D01*
X103533114Y91648944D01*
X103818828Y91648944D01*
X103914066Y91601325D01*
X103961685Y91553706D01*
X104009304Y91458468D01*
X104009304Y91267992D01*
X103961685Y91172754D01*
X103342638Y92506087D02*
X104009304Y92506087D01*
X103342638Y92077515D02*
X103866447Y92077515D01*
X103961685Y92125134D01*
X104009304Y92220373D01*
X104009304Y92363230D01*
X103961685Y92458468D01*
X103914066Y92506087D01*
X103961685Y93410849D02*
X104009304Y93315611D01*
X104009304Y93125134D01*
X103961685Y93029896D01*
X103914066Y92982277D01*
X103818828Y92934658D01*
X103533114Y92934658D01*
X103437876Y92982277D01*
X103390257Y93029896D01*
X103342638Y93125134D01*
X103342638Y93315611D01*
X103390257Y93410849D01*
X104009304Y93839420D02*
X103009304Y93839420D01*
X103628352Y93934658D02*
X104009304Y94220373D01*
X103342638Y94220373D02*
X103723590Y93839420D01*
D10*
%TO.C,B1*%
X156219791Y74623254D02*
X156219791Y80623254D01*
X159719791Y74623254D02*
X159719791Y80623254D01*
X156219791Y80623254D02*
X156469791Y80623254D01*
X159719791Y74623254D02*
X159469791Y74623254D01*
X159719791Y80623254D02*
X159469791Y80623254D01*
X156219791Y74623254D02*
X156469791Y74623254D01*
%TO.C,T1*%
X134068406Y122101838D02*
X134068406Y119251838D01*
X139318406Y122101838D02*
X135418406Y122101838D01*
X134068406Y119251838D02*
X140668406Y119251838D01*
X137368406Y122101838D02*
X140668406Y122101838D01*
X140668406Y119251838D02*
X140668406Y122101838D01*
X137368406Y122101838D02*
X134068406Y122101838D01*
%TO.C,G\u002A\u002A\u002A*%
G36*
X102883978Y54811439D02*
G01*
X102740255Y54880814D01*
X102407058Y55056231D01*
X102211599Y55193916D01*
X102131416Y55310999D01*
X102130646Y55316839D01*
X102306885Y55316839D01*
X102323310Y55295956D01*
X102503738Y55201096D01*
X102814003Y55123189D01*
X103215242Y55064583D01*
X103668589Y55027628D01*
X104135180Y55014670D01*
X104576151Y55028060D01*
X104952637Y55070144D01*
X105174422Y55123679D01*
X105401772Y55233273D01*
X105460472Y55348492D01*
X105351061Y55468035D01*
X105074080Y55590598D01*
X104966078Y55625429D01*
X104664565Y55735323D01*
X104407590Y55860367D01*
X104283288Y55946404D01*
X104021677Y56093383D01*
X103736622Y56076183D01*
X103509613Y55948664D01*
X103306784Y55830100D01*
X103019752Y55709005D01*
X102844401Y55651219D01*
X102514387Y55534275D01*
X102332107Y55420696D01*
X102306885Y55316839D01*
X102130646Y55316839D01*
X102126422Y55348860D01*
X102205522Y55535943D01*
X102420663Y55696920D01*
X102738600Y55809825D01*
X102858300Y55832470D01*
X103154436Y55920791D01*
X103435028Y56068739D01*
X103454272Y56082600D01*
X103752550Y56247693D01*
X104019947Y56257391D01*
X104293936Y56111220D01*
X104343195Y56071400D01*
X104555160Y55931295D01*
X104751676Y55860051D01*
X104778751Y55857874D01*
X104966352Y55822347D01*
X105222502Y55735067D01*
X105328663Y55689960D01*
X105559074Y55566867D01*
X105659234Y55452976D01*
X105667330Y55340633D01*
X105591473Y55163612D01*
X105513088Y55091950D01*
X105111759Y54891462D01*
X104805697Y54759395D01*
X104543443Y54679643D01*
X104273536Y54636100D01*
X103989088Y54614958D01*
X103653008Y54603783D01*
X103402897Y54622991D01*
X103169604Y54687303D01*
X103109985Y54713214D01*
X103673799Y54713214D01*
X103780173Y54699930D01*
X103904422Y54697460D01*
X104087543Y54704065D01*
X104137812Y54720951D01*
X104094922Y54734152D01*
X103848204Y54748159D01*
X103713922Y54734152D01*
X103673799Y54713214D01*
X103109985Y54713214D01*
X102957906Y54779309D01*
X103263810Y54779309D01*
X103347033Y54765751D01*
X103456847Y54781317D01*
X103458158Y54810219D01*
X103344841Y54830431D01*
X103295880Y54816903D01*
X103263810Y54779309D01*
X102957906Y54779309D01*
X102883978Y54811439D01*
G37*
G36*
X104497088Y50503045D02*
G01*
X104643295Y50652401D01*
X104666692Y50756195D01*
X104555768Y50821445D01*
X104299012Y50855169D01*
X103904422Y50864400D01*
X103568863Y50857043D01*
X103308698Y50837338D01*
X103161697Y50808830D01*
X103142422Y50792855D01*
X103199034Y50688346D01*
X103311755Y50568066D01*
X103447142Y50400898D01*
X103476988Y50265739D01*
X103400694Y50201812D01*
X103317223Y50210169D01*
X103160615Y50195335D01*
X103108213Y50135377D01*
X103006711Y50026556D01*
X102885968Y50061683D01*
X102834968Y50143183D01*
X102754841Y50223695D01*
X102631524Y50185516D01*
X102462694Y50111812D01*
X102392654Y50148018D01*
X102380422Y50271016D01*
X102421728Y50379808D01*
X102582791Y50379808D01*
X102677340Y50385158D01*
X102749034Y50430786D01*
X102849174Y50473905D01*
X102916959Y50373574D01*
X102929388Y50337018D01*
X102980358Y50214712D01*
X103017398Y50247358D01*
X103029700Y50288207D01*
X103124266Y50392124D01*
X103211226Y50386159D01*
X103282980Y50379386D01*
X103221385Y50454321D01*
X103173785Y50496685D01*
X103022640Y50657352D01*
X102947636Y50779733D01*
X102909598Y50852446D01*
X102895106Y50761545D01*
X102821498Y50610467D01*
X102711837Y50521852D01*
X102594181Y50433079D01*
X102582791Y50379808D01*
X102421728Y50379808D01*
X102447013Y50446405D01*
X102549755Y50545382D01*
X102693986Y50671444D01*
X102682018Y50778173D01*
X102509132Y50871978D01*
X102258894Y50940441D01*
X101805541Y51124714D01*
X101433524Y51442555D01*
X101170096Y51867066D01*
X101092709Y52091419D01*
X100991439Y52470057D01*
X100775764Y52332967D01*
X100561682Y52165937D01*
X100369908Y51974638D01*
X100179727Y51753400D01*
X100000313Y51965066D01*
X99869742Y52239974D01*
X99848473Y52501801D01*
X100095204Y52501801D01*
X100102772Y52276291D01*
X100139765Y52147704D01*
X100163941Y52134400D01*
X100256374Y52188909D01*
X100430173Y52331426D01*
X100603135Y52489954D01*
X101293284Y52489954D01*
X101375226Y52110208D01*
X101476501Y51873648D01*
X101654061Y51601911D01*
X101877885Y51393116D01*
X102168936Y51241165D01*
X102548174Y51139962D01*
X103036561Y51083409D01*
X103655058Y51065408D01*
X104226220Y51073792D01*
X104708800Y51090617D01*
X105060360Y51114249D01*
X105319209Y51150426D01*
X105523658Y51204883D01*
X105712015Y51283357D01*
X105750220Y51301989D01*
X106123921Y51577407D01*
X106396496Y51966219D01*
X106555900Y52437813D01*
X106590089Y52961576D01*
X106540529Y53310769D01*
X106455508Y53618649D01*
X106347306Y53796201D01*
X106181045Y53859979D01*
X105921846Y53826536D01*
X105630184Y53742813D01*
X104953530Y53587774D01*
X104197082Y53510253D01*
X103433171Y53513392D01*
X102734127Y53600336D01*
X102668971Y53614115D01*
X102335075Y53693216D01*
X102053420Y53769503D01*
X101875159Y53828891D01*
X101854808Y53838335D01*
X101752825Y53860391D01*
X101681082Y53771888D01*
X101623707Y53593361D01*
X101533656Y53336287D01*
X101426116Y53126554D01*
X101411179Y53105450D01*
X101304319Y52839623D01*
X101293284Y52489954D01*
X100603135Y52489954D01*
X100635426Y52519550D01*
X100866152Y52778902D01*
X101090809Y53095367D01*
X101281265Y53421544D01*
X101409387Y53710034D01*
X101448261Y53889059D01*
X101380701Y53995723D01*
X101215710Y54113267D01*
X101203142Y54119902D01*
X101054781Y54186990D01*
X100944970Y54184016D01*
X100822020Y54091411D01*
X100654733Y53912295D01*
X100448858Y53651510D01*
X100275909Y53376808D01*
X100223346Y53268946D01*
X100158061Y53047223D01*
X100114491Y52775143D01*
X100095204Y52501801D01*
X99848473Y52501801D01*
X99840202Y52603612D01*
X99902370Y53016274D01*
X100046922Y53438258D01*
X100264536Y53829856D01*
X100504870Y54113825D01*
X100761494Y54357583D01*
X100302999Y54776621D01*
X99826443Y55321596D01*
X99567296Y55759042D01*
X99447141Y56012240D01*
X99368080Y56220018D01*
X99321752Y56429518D01*
X99299794Y56687883D01*
X99293841Y57042258D01*
X99294371Y57297579D01*
X99297495Y57341400D01*
X99553696Y57341400D01*
X99557400Y56928222D01*
X99578822Y56628157D01*
X99627684Y56385171D01*
X99713705Y56143232D01*
X99792844Y55962855D01*
X100136304Y55401988D01*
X100621028Y54892268D01*
X101222119Y54452211D01*
X101914683Y54100333D01*
X102603812Y53872265D01*
X103082786Y53794861D01*
X103663314Y53766986D01*
X104285788Y53786196D01*
X104890603Y53850046D01*
X105418152Y53956093D01*
X105543239Y53992802D01*
X106123723Y54178753D01*
X106070295Y54617077D01*
X106079465Y55080285D01*
X106325881Y55080285D01*
X106327710Y54677744D01*
X106375168Y54316992D01*
X106467775Y54056944D01*
X106475134Y54045253D01*
X106628143Y53811733D01*
X106826284Y53997877D01*
X106966130Y54193782D01*
X107086957Y54469968D01*
X107121864Y54590190D01*
X107176721Y55146150D01*
X107084261Y55689335D01*
X106907681Y56083336D01*
X106784247Y56274447D01*
X106713207Y56333717D01*
X106666647Y56278387D01*
X106652846Y56240733D01*
X106579443Y56050036D01*
X106475242Y55806585D01*
X106461032Y55775066D01*
X106370162Y55465698D01*
X106325881Y55080285D01*
X106079465Y55080285D01*
X106082096Y55213210D01*
X106150582Y55521066D01*
X106262396Y55901980D01*
X106322245Y56147438D01*
X106311960Y56287910D01*
X106213374Y56353867D01*
X106008320Y56375778D01*
X105678630Y56384113D01*
X105635186Y56385469D01*
X104892188Y56410066D01*
X104545362Y57256733D01*
X104198535Y58103400D01*
X103537991Y58103400D01*
X102844243Y56410066D01*
X101992187Y56386102D01*
X101140130Y56362137D01*
X100785489Y57302541D01*
X100651479Y57677144D01*
X100550559Y57997120D01*
X100492705Y58227962D01*
X100487272Y58334241D01*
X100565612Y58358671D01*
X100770969Y58376347D01*
X101110443Y58387339D01*
X101591135Y58391713D01*
X102220147Y58389538D01*
X103004578Y58380882D01*
X103892620Y58366851D01*
X104628610Y58353119D01*
X105310377Y58338793D01*
X105919653Y58324376D01*
X106438166Y58310372D01*
X106847646Y58297287D01*
X107129824Y58285624D01*
X107266428Y58275889D01*
X107276286Y58273424D01*
X107264632Y58184166D01*
X107205275Y57971704D01*
X107108818Y57671815D01*
X107032008Y57449106D01*
X106752989Y56659530D01*
X106977731Y56434787D01*
X107139512Y56205119D01*
X107287131Y55877216D01*
X107345176Y55696772D01*
X107487878Y55183498D01*
X107700397Y55496248D01*
X107963013Y55953635D01*
X108127499Y56429344D01*
X108208157Y56975786D01*
X108222422Y57409186D01*
X108153236Y58317446D01*
X107951835Y59154138D01*
X107627455Y59906649D01*
X107189332Y60562370D01*
X106646702Y61108689D01*
X106008799Y61532995D01*
X105284861Y61822677D01*
X104928718Y61906649D01*
X104599418Y61983285D01*
X104428121Y62077514D01*
X104403843Y62217712D01*
X104515598Y62432257D01*
X104652421Y62620354D01*
X104830072Y62942212D01*
X104878088Y63278409D01*
X104844099Y63599871D01*
X104740227Y63769180D01*
X104563612Y63789686D01*
X104470459Y63756294D01*
X104256563Y63572819D01*
X104090860Y63257823D01*
X103987793Y62845723D01*
X103961254Y62542942D01*
X103942369Y62227069D01*
X103913023Y62069667D01*
X103879665Y62060719D01*
X103848740Y62190208D01*
X103826695Y62448119D01*
X103819755Y62762786D01*
X103794031Y63302679D01*
X103718779Y63706619D01*
X103596879Y63965572D01*
X103431210Y64070503D01*
X103402355Y64072400D01*
X103240506Y63997740D01*
X103178928Y63867659D01*
X103168326Y63649227D01*
X103203966Y63327445D01*
X103275583Y62958591D01*
X103372909Y62598940D01*
X103448998Y62387233D01*
X103520542Y62193920D01*
X103546125Y62082449D01*
X103543788Y62074878D01*
X103455295Y62047212D01*
X103243659Y61996299D01*
X102951733Y61932349D01*
X102901052Y61921718D01*
X102094895Y61683228D01*
X101407043Y61325848D01*
X100829831Y60843852D01*
X100355594Y60231511D01*
X100150404Y59866170D01*
X99844649Y59165956D01*
X99655204Y58486382D01*
X99565908Y57759066D01*
X99553696Y57341400D01*
X99297495Y57341400D01*
X99363677Y58269694D01*
X99557951Y59160199D01*
X99870025Y59958686D01*
X100292730Y60654747D01*
X100818899Y61237974D01*
X101441364Y61697957D01*
X102152957Y62024288D01*
X102640005Y62155797D01*
X102910572Y62216488D01*
X103107206Y62270853D01*
X103176676Y62300432D01*
X103180759Y62399663D01*
X103145166Y62609747D01*
X103097975Y62806337D01*
X102993959Y63324682D01*
X102978234Y63751062D01*
X103050080Y64065427D01*
X103148207Y64204636D01*
X103288440Y64307755D01*
X103415811Y64302972D01*
X103550374Y64235849D01*
X103757738Y64062353D01*
X103889118Y63876231D01*
X104000814Y63643880D01*
X104255447Y63858140D01*
X104465557Y64016970D01*
X104614991Y64056293D01*
X104762434Y63976714D01*
X104881937Y63864582D01*
X105052086Y63582213D01*
X105095465Y63231293D01*
X105012346Y62855224D01*
X104873903Y62592622D01*
X104750576Y62399963D01*
X104685927Y62277032D01*
X104683403Y62256510D01*
X104773050Y62230420D01*
X104979276Y62181344D01*
X105193103Y62133920D01*
X105946464Y61887855D01*
X106621090Y61496722D01*
X107208237Y60969645D01*
X107699161Y60315748D01*
X108085118Y59544155D01*
X108301239Y58890731D01*
X108476901Y58009790D01*
X108519445Y57191338D01*
X108430843Y56447007D01*
X108213068Y55788428D01*
X107868093Y55227231D01*
X107637308Y54976059D01*
X107473252Y54785159D01*
X107382263Y54611451D01*
X107375755Y54570520D01*
X107333745Y54375923D01*
X107229657Y54132103D01*
X107096407Y53901142D01*
X106966910Y53745125D01*
X106923569Y53717622D01*
X106862620Y53652314D01*
X106826491Y53494962D01*
X106811185Y53217437D01*
X106810852Y52924013D01*
X106806347Y52515991D01*
X106776410Y52219573D01*
X106711941Y51977819D01*
X106628666Y51784018D01*
X106338971Y51371594D01*
X105938500Y51071362D01*
X105461927Y50909110D01*
X105449588Y50907085D01*
X105193056Y50836684D01*
X105098588Y50736465D01*
X105168749Y50611297D01*
X105259088Y50545382D01*
X105394479Y50409715D01*
X105419029Y50274923D01*
X105330265Y50193370D01*
X105276022Y50187066D01*
X105084469Y50130817D01*
X105016322Y50081233D01*
X104911884Y50026348D01*
X104806703Y50114193D01*
X104795850Y50128633D01*
X104684763Y50221542D01*
X104627219Y50192133D01*
X104510362Y50109045D01*
X104383563Y50127496D01*
X104327755Y50230229D01*
X104363786Y50319728D01*
X104534456Y50319728D01*
X104548861Y50309933D01*
X104611115Y50354962D01*
X104740775Y50428040D01*
X104827524Y50366648D01*
X104862211Y50310067D01*
X104937077Y50200571D01*
X104974362Y50237014D01*
X104986321Y50288207D01*
X105072375Y50393271D01*
X105158559Y50389280D01*
X105217430Y50391348D01*
X105130255Y50474349D01*
X105110922Y50488967D01*
X104967179Y50640336D01*
X104913737Y50768893D01*
X104899684Y50857263D01*
X104860890Y50780451D01*
X104860628Y50779733D01*
X104774293Y50627497D01*
X104634478Y50443629D01*
X104534456Y50319728D01*
X104363786Y50319728D01*
X104387506Y50378647D01*
X104497088Y50503045D01*
G37*
D12*
%TO.C,MCU1*%
X151118690Y115302348D02*
X151118690Y113302348D01*
X148318690Y115302348D02*
X151118690Y115302348D01*
X148318690Y112762348D02*
X151118690Y112762348D01*
D10*
X163247213Y120652348D02*
X145467213Y120652348D01*
D12*
X148318690Y117842348D02*
X151118690Y117842348D01*
X151118690Y112762348D02*
X151118690Y110762348D01*
X148318690Y113302348D02*
X148318690Y113972348D01*
X148318690Y110762348D02*
X148318690Y111447348D01*
X151118690Y110762348D02*
X148318690Y110762348D01*
X151118690Y117842348D02*
X151118690Y115842348D01*
D10*
X145467213Y87632348D02*
X163247213Y87632348D01*
D12*
X148318690Y112097348D02*
X148318690Y112762348D01*
X148318690Y117172348D02*
X148318690Y117842348D01*
D10*
X145467213Y120652348D02*
X145467213Y87632348D01*
D12*
X151118690Y115842348D02*
X148318690Y115842348D01*
D10*
X163247213Y87632348D02*
X163247213Y120652348D01*
D12*
X148318690Y114622348D02*
X148318690Y115302348D01*
X151118690Y113302348D02*
X148318690Y113302348D01*
X148318690Y115842348D02*
X148318690Y116522348D01*
D13*
%TO.C,REF\u002A\u002A*%
X124130924Y89497754D02*
G75*
G03*
X123097059Y93648299I-20320019J-2857506D01*
G01*
X104939309Y97376117D02*
G75*
G03*
X103810924Y97435254I-1128385J-10735763D01*
G01*
X102601003Y75931331D02*
G75*
G03*
X103729388Y75872195I1128379J10735785D01*
G01*
X96802878Y67354119D02*
G75*
G03*
X100953424Y66320254I7008046J19286135D01*
G01*
X102682539Y75904390D02*
G75*
G03*
X103810924Y75845254I1128379J10735785D01*
G01*
X83490924Y83782754D02*
G75*
G03*
X84524790Y79632207I20319953J2857490D01*
G01*
X103729388Y75872195D02*
G75*
G03*
X104857773Y75931331I6J10794921D01*
G01*
X100953424Y106960254D02*
G75*
G03*
X96802876Y105926388I2857496J-20319983D01*
G01*
X104857773Y97403059D02*
G75*
G03*
X103729388Y97462195I-1128379J-10735785D01*
G01*
X103729388Y97462195D02*
G75*
G03*
X102601003Y97403059I-6J-10794921D01*
G01*
X123097059Y79632208D02*
G75*
G03*
X124130924Y83782754I-19286185J7008058D01*
G01*
X106668424Y66320254D02*
G75*
G03*
X110818971Y67354120I-2857500J20320000D01*
G01*
X84524790Y93648302D02*
G75*
G03*
X83490924Y89497754I19286117J-7008044D01*
G01*
X103810924Y97435254D02*
G75*
G03*
X102682539Y97376118I-6J-10794921D01*
G01*
X103810924Y75845253D02*
G75*
G03*
X104939309Y75904390I0J10794901D01*
G01*
X110818971Y105926388D02*
G75*
G03*
X106668424Y106960254I-7008047J-19286134D01*
G01*
G36*
X103803277Y72482606D02*
G01*
X103801874Y72589235D01*
X103800830Y72711891D01*
X103800166Y72849163D01*
X103799905Y72999637D01*
X103799902Y73011373D01*
X103799815Y73703087D01*
X104307519Y74213113D01*
X104307667Y73719545D01*
X104307859Y73615305D01*
X104308348Y73518560D01*
X104309098Y73431674D01*
X104310074Y73357012D01*
X104311243Y73296937D01*
X104312570Y73253814D01*
X104314019Y73230007D01*
X104314927Y73225977D01*
X104327358Y73232291D01*
X104352204Y73248634D01*
X104376338Y73265836D01*
X104491035Y73336558D01*
X104613251Y73385662D01*
X104743634Y73413338D01*
X104882835Y73419776D01*
X104900647Y73419108D01*
X104990282Y73412556D01*
X105066765Y73400619D01*
X105138417Y73381127D01*
X105213555Y73351910D01*
X105283406Y73319271D01*
X105411339Y73243978D01*
X105524259Y73151998D01*
X105621153Y73045009D01*
X105701011Y72924684D01*
X105762821Y72792699D01*
X105805573Y72650730D01*
X105828254Y72500451D01*
X105831815Y72410781D01*
X105821524Y72258303D01*
X105790168Y72113739D01*
X105737023Y71974503D01*
X105679768Y71867584D01*
X105594056Y71747291D01*
X105492443Y71642442D01*
X105377110Y71554120D01*
X105250235Y71483406D01*
X105113999Y71431383D01*
X104970580Y71399130D01*
X104822159Y71387731D01*
X104721913Y71392214D01*
X104577305Y71417095D01*
X104436737Y71463370D01*
X104303564Y71529349D01*
X104181144Y71613346D01*
X104072832Y71713672D01*
X104064438Y71722838D01*
X103983307Y71826958D01*
X103913615Y71945140D01*
X103858449Y72071003D01*
X103820896Y72198163D01*
X103812027Y72244613D01*
X103809414Y72273008D01*
X103807069Y72323080D01*
X103805600Y72373414D01*
X104301938Y72373414D01*
X104312510Y72275865D01*
X104342942Y72181846D01*
X104371596Y72127701D01*
X104438530Y72039418D01*
X104518011Y71968541D01*
X104607443Y71916048D01*
X104704229Y71882916D01*
X104805770Y71870122D01*
X104909471Y71878643D01*
X104982298Y71897931D01*
X105025295Y71914017D01*
X105066200Y71931377D01*
X105082367Y71939153D01*
X105127653Y71970157D01*
X105176976Y72016351D01*
X105225033Y72071807D01*
X105266518Y72130601D01*
X105288006Y72168928D01*
X105308187Y72213174D01*
X105320832Y72251782D01*
X105328189Y72294074D01*
X105332507Y72349377D01*
X105332789Y72354667D01*
X105329421Y72461912D01*
X105306565Y72559804D01*
X105262913Y72653227D01*
X105245143Y72681756D01*
X105180601Y72759660D01*
X105101784Y72821830D01*
X105012148Y72867326D01*
X104915149Y72895204D01*
X104814245Y72904524D01*
X104712893Y72894342D01*
X104614547Y72863717D01*
X104600544Y72857431D01*
X104512592Y72804482D01*
X104438602Y72736268D01*
X104379559Y72655922D01*
X104336446Y72566575D01*
X104310244Y72471362D01*
X104301938Y72373414D01*
X103805600Y72373414D01*
X103805016Y72393417D01*
X103803277Y72482606D01*
G37*
D14*
X103803277Y72482606D02*
X103801874Y72589235D01*
X103800830Y72711891D01*
X103800166Y72849163D01*
X103799905Y72999637D01*
X103799902Y73011373D01*
X103799815Y73703087D01*
X104307519Y74213113D01*
X104307667Y73719545D01*
X104307859Y73615305D01*
X104308348Y73518560D01*
X104309098Y73431674D01*
X104310074Y73357012D01*
X104311243Y73296937D01*
X104312570Y73253814D01*
X104314019Y73230007D01*
X104314927Y73225977D01*
X104327358Y73232291D01*
X104352204Y73248634D01*
X104376338Y73265836D01*
X104491035Y73336558D01*
X104613251Y73385662D01*
X104743634Y73413338D01*
X104882835Y73419776D01*
X104900647Y73419108D01*
X104990282Y73412556D01*
X105066765Y73400619D01*
X105138417Y73381127D01*
X105213555Y73351910D01*
X105283406Y73319271D01*
X105411339Y73243978D01*
X105524259Y73151998D01*
X105621153Y73045009D01*
X105701011Y72924684D01*
X105762821Y72792699D01*
X105805573Y72650730D01*
X105828254Y72500451D01*
X105831815Y72410781D01*
X105821524Y72258303D01*
X105790168Y72113739D01*
X105737023Y71974503D01*
X105679768Y71867584D01*
X105594056Y71747291D01*
X105492443Y71642442D01*
X105377110Y71554120D01*
X105250235Y71483406D01*
X105113999Y71431383D01*
X104970580Y71399130D01*
X104822159Y71387731D01*
X104721913Y71392214D01*
X104577305Y71417095D01*
X104436737Y71463370D01*
X104303564Y71529349D01*
X104181144Y71613346D01*
X104072832Y71713672D01*
X104064438Y71722838D01*
X103983307Y71826958D01*
X103913615Y71945140D01*
X103858449Y72071003D01*
X103820896Y72198163D01*
X103812027Y72244613D01*
X103809414Y72273008D01*
X103807069Y72323080D01*
X103805600Y72373414D01*
X104301938Y72373414D01*
X104312510Y72275865D01*
X104342942Y72181846D01*
X104371596Y72127701D01*
X104438530Y72039418D01*
X104518011Y71968541D01*
X104607443Y71916048D01*
X104704229Y71882916D01*
X104805770Y71870122D01*
X104909471Y71878643D01*
X104982298Y71897931D01*
X105025295Y71914017D01*
X105066200Y71931377D01*
X105082367Y71939153D01*
X105127653Y71970157D01*
X105176976Y72016351D01*
X105225033Y72071807D01*
X105266518Y72130601D01*
X105288006Y72168928D01*
X105308187Y72213174D01*
X105320832Y72251782D01*
X105328189Y72294074D01*
X105332507Y72349377D01*
X105332789Y72354667D01*
X105329421Y72461912D01*
X105306565Y72559804D01*
X105262913Y72653227D01*
X105245143Y72681756D01*
X105180601Y72759660D01*
X105101784Y72821830D01*
X105012148Y72867326D01*
X104915149Y72895204D01*
X104814245Y72904524D01*
X104712893Y72894342D01*
X104614547Y72863717D01*
X104600544Y72857431D01*
X104512592Y72804482D01*
X104438602Y72736268D01*
X104379559Y72655922D01*
X104336446Y72566575D01*
X104310244Y72471362D01*
X104301938Y72373414D01*
X103805600Y72373414D01*
X103805016Y72393417D01*
X103803277Y72482606D01*
G36*
X102102633Y72585328D02*
G01*
X102905579Y73388028D01*
X103193947Y73384934D01*
X103482315Y73381841D01*
X102635091Y72521704D01*
X102517166Y72401981D01*
X102402367Y72285432D01*
X102291913Y72173292D01*
X102187021Y72066799D01*
X102088909Y71967188D01*
X101998794Y71875695D01*
X101917895Y71793558D01*
X101847428Y71722013D01*
X101788612Y71662295D01*
X101742665Y71615641D01*
X101710804Y71583288D01*
X101697023Y71569292D01*
X101606179Y71477016D01*
X101606179Y74218886D01*
X102102633Y74218886D01*
X102102633Y72585328D01*
G37*
X102102633Y72585328D02*
X102905579Y73388028D01*
X103193947Y73384934D01*
X103482315Y73381841D01*
X102635091Y72521704D01*
X102517166Y72401981D01*
X102402367Y72285432D01*
X102291913Y72173292D01*
X102187021Y72066799D01*
X102088909Y71967188D01*
X101998794Y71875695D01*
X101917895Y71793558D01*
X101847428Y71722013D01*
X101788612Y71662295D01*
X101742665Y71615641D01*
X101710804Y71583288D01*
X101697023Y71569292D01*
X101606179Y71477016D01*
X101606179Y74218886D01*
X102102633Y74218886D01*
X102102633Y72585328D01*
G36*
X102909413Y72178797D02*
G01*
X102932116Y72155934D01*
X102966595Y72120403D01*
X103010864Y72074311D01*
X103062931Y72019765D01*
X103120810Y71958871D01*
X103182509Y71893736D01*
X103246042Y71826466D01*
X103309417Y71759168D01*
X103370647Y71693949D01*
X103427743Y71632914D01*
X103478715Y71578171D01*
X103521575Y71531826D01*
X103554333Y71495986D01*
X103575001Y71472757D01*
X103577294Y71470066D01*
X103605595Y71436431D01*
X102985581Y71436431D01*
X102812231Y71612500D01*
X102758489Y71667243D01*
X102708206Y71718756D01*
X102664390Y71763936D01*
X102630044Y71799682D01*
X102608176Y71822891D01*
X102604999Y71826383D01*
X102571117Y71864198D01*
X102732152Y72025542D01*
X102781865Y72074997D01*
X102826089Y72118322D01*
X102862236Y72153035D01*
X102887718Y72176655D01*
X102899947Y72186703D01*
X102900478Y72186886D01*
X102909413Y72178797D01*
G37*
X102909413Y72178797D02*
X102932116Y72155934D01*
X102966595Y72120403D01*
X103010864Y72074311D01*
X103062931Y72019765D01*
X103120810Y71958871D01*
X103182509Y71893736D01*
X103246042Y71826466D01*
X103309417Y71759168D01*
X103370647Y71693949D01*
X103427743Y71632914D01*
X103478715Y71578171D01*
X103521575Y71531826D01*
X103554333Y71495986D01*
X103575001Y71472757D01*
X103577294Y71470066D01*
X103605595Y71436431D01*
X102985581Y71436431D01*
X102812231Y71612500D01*
X102758489Y71667243D01*
X102708206Y71718756D01*
X102664390Y71763936D01*
X102630044Y71799682D01*
X102608176Y71822891D01*
X102604999Y71826383D01*
X102571117Y71864198D01*
X102732152Y72025542D01*
X102781865Y72074997D01*
X102826089Y72118322D01*
X102862236Y72153035D01*
X102887718Y72176655D01*
X102899947Y72186703D01*
X102900478Y72186886D01*
X102909413Y72178797D01*
%TD*%
D15*
%TO.C,B1*%
X157969791Y80873254D03*
X157969791Y74373254D03*
%TD*%
D16*
%TO.C,PAD1*%
X135109791Y108738254D03*
X135109791Y110738254D03*
X135109791Y112738254D03*
%TD*%
D17*
%TO.C,MCU1*%
X161977213Y114302348D03*
X161977213Y111762348D03*
X146737213Y111762348D03*
X146737213Y116926094D03*
X161977213Y116842348D03*
X146737213Y114302348D03*
X146737213Y109222348D03*
X146737213Y106682348D03*
X146737213Y104142348D03*
X146737213Y101602348D03*
X146737213Y99062348D03*
X146737213Y96522348D03*
X146737213Y93982348D03*
X146737213Y91442348D03*
X146737213Y88902348D03*
X161977213Y109222348D03*
X161977213Y106682348D03*
X161977213Y104142348D03*
X161977213Y101602348D03*
X161977213Y99062348D03*
X161977213Y96522348D03*
X161977213Y93982348D03*
X161977213Y91442348D03*
X161977213Y88902348D03*
%TD*%
%LPC*%
D18*
%TO.C,B1*%
X157969791Y80873254D03*
X157969791Y74373254D03*
%TD*%
D19*
%TO.C,S11*%
X65970667Y103790002D03*
D20*
X75659968Y109306336D03*
X70353903Y110604673D03*
D21*
X71387110Y104745067D03*
D19*
X76803553Y105700132D03*
D20*
X65811891Y107569854D03*
D22*
X73579148Y111173370D03*
D23*
X67122934Y100134557D03*
X76971012Y101871038D03*
D22*
X62586644Y107001157D03*
D23*
X72411634Y98934701D03*
%TD*%
D20*
%TO.C,S15*%
X88913836Y100414117D03*
X93703066Y103041525D03*
X98875783Y101285675D03*
D21*
X94221643Y97114167D03*
D19*
X99700714Y97593524D03*
X88742572Y96634810D03*
D23*
X89571861Y92892848D03*
D24*
X96965603Y103326959D03*
D23*
X99533808Y93764406D03*
X94735862Y91236618D03*
D24*
X85651297Y100128683D03*
%TD*%
D20*
%TO.C,S21*%
X120424791Y91827253D03*
D19*
X109924791Y88077254D03*
X120924791Y88077254D03*
D21*
X115424791Y88077254D03*
D20*
X115424791Y94027254D03*
X110424791Y91827253D03*
D25*
X118699790Y94027253D03*
D23*
X120424791Y84277254D03*
X110424791Y84277254D03*
D25*
X107149790Y91827254D03*
D23*
X115424791Y82177254D03*
%TD*%
D26*
%TO.C,T1*%
X141068406Y119651838D03*
X133668406Y121851838D03*
X141068406Y121851838D03*
X133668406Y119651838D03*
D27*
X139618406Y118676838D03*
X136618406Y118676838D03*
X135118406Y118676838D03*
%TD*%
D28*
%TO.C,T2*%
X135868406Y120751838D03*
X138868406Y120751838D03*
%TD*%
D20*
%TO.C,S29*%
X128599495Y99294490D03*
D21*
X133599495Y95544491D03*
D20*
X133599495Y101494491D03*
D19*
X128099495Y95544491D03*
X139099495Y95544491D03*
D20*
X138599495Y99294490D03*
D23*
X128599495Y91744491D03*
X138599495Y91744491D03*
D25*
X136874494Y101494490D03*
D23*
X133599495Y89644491D03*
D25*
X125324494Y99294491D03*
%TD*%
D19*
%TO.C,S33*%
X157238501Y43549992D03*
D20*
X149171536Y51246522D03*
X158306990Y47179155D03*
D19*
X147189501Y48024096D03*
D20*
X154634084Y51222639D03*
D21*
X152214001Y45787044D03*
D29*
X157625944Y49890576D03*
D23*
X155236129Y40281888D03*
X146100674Y44349254D03*
X149814255Y40397126D03*
D29*
X146179674Y52578586D03*
%TD*%
D20*
%TO.C,S7*%
X81564006Y75822872D03*
X76257941Y77121209D03*
D19*
X71874705Y70306538D03*
D20*
X71715929Y74086390D03*
D21*
X77291148Y71261603D03*
D19*
X82707591Y72216668D03*
D23*
X82875050Y68387574D03*
D22*
X79483186Y77689906D03*
D23*
X73026972Y66651093D03*
D22*
X68490682Y73517693D03*
D23*
X78315672Y65451237D03*
%TD*%
D30*
%TO.C,PAD1*%
X135109791Y108738254D03*
X135109791Y110738254D03*
X135109791Y112738254D03*
%TD*%
D20*
%TO.C,S5*%
X56527389Y87777963D03*
D21*
X52842259Y82729963D03*
D20*
X51102647Y88419976D03*
D19*
X47582583Y81121919D03*
D20*
X46964342Y84854246D03*
D19*
X58101935Y84338007D03*
D23*
X58734795Y80557863D03*
D31*
X54234545Y89377492D03*
D23*
X49171748Y77634146D03*
D31*
X43832442Y83896730D03*
D23*
X54567252Y77087765D03*
%TD*%
D20*
%TO.C,S27*%
X133599495Y84494491D03*
D19*
X128099495Y78544491D03*
D20*
X138599495Y82294490D03*
D19*
X139099495Y78544491D03*
D20*
X128599495Y82294490D03*
D21*
X133599495Y78544491D03*
D25*
X136874494Y84494490D03*
D23*
X138599495Y74744491D03*
X128599495Y74744491D03*
X133599495Y72644491D03*
D25*
X125324494Y82294491D03*
%TD*%
D20*
%TO.C,S9*%
X78611987Y92564604D03*
D19*
X68922686Y87048270D03*
D21*
X74339129Y88003335D03*
D20*
X73305922Y93862941D03*
D19*
X79755572Y88958400D03*
D20*
X68763910Y90828122D03*
D22*
X76531167Y94431638D03*
D23*
X79923031Y85129306D03*
X70074953Y83392825D03*
D22*
X65538663Y90259425D03*
D23*
X75363653Y82192969D03*
%TD*%
D20*
%TO.C,S13*%
X90395484Y83478807D03*
X100357431Y84350365D03*
D19*
X101182362Y80658214D03*
D20*
X95184714Y86106215D03*
D19*
X90224220Y79699500D03*
D21*
X95703291Y80178857D03*
D23*
X91053509Y75957538D03*
D24*
X98447251Y86391649D03*
D23*
X101015456Y76829096D03*
X96217510Y74301308D03*
D24*
X87132945Y83193373D03*
%TD*%
D20*
%TO.C,S17*%
X92221419Y119976835D03*
D19*
X98219067Y114528834D03*
D20*
X97394136Y118220985D03*
D19*
X87260925Y113570120D03*
D20*
X87432189Y117349427D03*
D21*
X92739996Y114049477D03*
D24*
X95483956Y120262269D03*
D23*
X98052161Y110699716D03*
X88090214Y109828158D03*
D24*
X84169650Y117063993D03*
D23*
X93254215Y108171928D03*
%TD*%
D20*
%TO.C,S31*%
X138500399Y54407457D03*
X128623515Y55971802D03*
D21*
X132975328Y51485799D03*
D19*
X127543042Y52346189D03*
X138407614Y50625409D03*
D20*
X133906113Y57362545D03*
D23*
X137319319Y46950411D03*
X127442435Y48514756D03*
D32*
X137140791Y56850221D03*
X125388835Y56484126D03*
D23*
X132052365Y45658438D03*
%TD*%
D33*
%TO.C,MCU1*%
X161977213Y114302348D03*
D34*
X148993690Y114302348D03*
X148993690Y116842348D03*
D35*
X148068690Y111762348D03*
D33*
X161977213Y111762348D03*
X146737213Y111762348D03*
D35*
X148068690Y116842348D03*
D34*
X148993690Y111762348D03*
D35*
X148068690Y114302348D03*
D33*
X146737213Y116926094D03*
X161977213Y116842348D03*
X146737213Y114302348D03*
D36*
X150443690Y116842348D03*
X150443690Y114302348D03*
X150443690Y111762348D03*
D33*
X146737213Y109222348D03*
X146737213Y106682348D03*
X146737213Y104142348D03*
X146737213Y101602348D03*
X146737213Y99062348D03*
X146737213Y96522348D03*
X146737213Y93982348D03*
X146737213Y91442348D03*
X146737213Y88902348D03*
X161977213Y109222348D03*
X161977213Y106682348D03*
X161977213Y104142348D03*
X161977213Y101602348D03*
X161977213Y99062348D03*
X161977213Y96522348D03*
X161977213Y93982348D03*
X161977213Y91442348D03*
X161977213Y88902348D03*
%TD*%
D19*
%TO.C,S3*%
X52552902Y64864738D03*
X63072254Y68080826D03*
D20*
X56072966Y72162795D03*
X51934661Y68597065D03*
X61497708Y71520782D03*
D21*
X57812578Y66472782D03*
D23*
X54142067Y61376965D03*
D31*
X59204864Y73120311D03*
D23*
X63705114Y64300682D03*
X59537571Y60830584D03*
D31*
X48802761Y67639549D03*
%TD*%
D37*
%TO.C,REF\u002A\u002A*%
X84760924Y86640254D03*
X103810924Y67590254D03*
X103810924Y105690254D03*
%TD*%
D19*
%TO.C,S23*%
X120924791Y105077254D03*
D20*
X110424791Y108827253D03*
X115424791Y111027254D03*
X120424791Y108827253D03*
D21*
X115424791Y105077254D03*
D19*
X109924791Y105077254D03*
D25*
X118699790Y111027253D03*
D23*
X120424791Y101277254D03*
X110424791Y101277254D03*
X115424791Y99177254D03*
D25*
X107149790Y108827254D03*
%TD*%
D20*
%TO.C,S19*%
X120424791Y74827253D03*
D19*
X120924791Y71077254D03*
X109924791Y71077254D03*
D21*
X115424791Y71077254D03*
D20*
X115424791Y77027254D03*
X110424791Y74827253D03*
D25*
X118699790Y77027253D03*
D23*
X110424791Y67277254D03*
X120424791Y67277254D03*
D25*
X107149790Y74827254D03*
D23*
X115424791Y65177254D03*
%TD*%
M02*
