%TF.GenerationSoftware,KiCad,Pcbnew,(6.0.4)*%
%TF.CreationDate,2022-06-17T23:20:27+02:00*%
%TF.ProjectId,battoota,62617474-6f6f-4746-912e-6b696361645f,v1.0.0*%
%TF.SameCoordinates,Original*%
%TF.FileFunction,OtherDrawing,Comment*%
%FSLAX46Y46*%
G04 Gerber Fmt 4.6, Leading zero omitted, Abs format (unit mm)*
G04 Created by KiCad (PCBNEW (6.0.4)) date 2022-06-17 23:20:27*
%MOMM*%
%LPD*%
G01*
G04 APERTURE LIST*
%ADD10C,0.150000*%
G04 APERTURE END LIST*
D10*
%TO.C,S11*%
X61047831Y111553098D02*
X78774369Y114678766D01*
X78511494Y98893302D02*
X79496302Y99066950D01*
X64262726Y110596832D02*
X63277918Y110423184D01*
X81726389Y97937035D02*
X63999851Y94811367D01*
X77065226Y112854258D02*
X77238875Y111869450D01*
X77065226Y112854258D02*
X76080419Y112680609D01*
X65708993Y96635875D02*
X66693801Y96809524D01*
X77065227Y112854259D02*
X77238875Y111869451D01*
X63451567Y109438375D02*
X63277919Y110423183D01*
X78774369Y114678766D02*
X81726389Y97937035D01*
X78774370Y114678766D02*
X81726389Y97937035D01*
X61047831Y111553099D02*
X78774370Y114678766D01*
X77065227Y112854259D02*
X76080419Y112680610D01*
X64262727Y110596830D02*
X63277919Y110423183D01*
X79322653Y100051758D02*
X79496302Y99066950D01*
X79322654Y100051757D02*
X79496302Y99066950D01*
X63999850Y94811368D02*
X61047831Y111553099D01*
X63451567Y109438376D02*
X63277918Y110423184D01*
X78511494Y98893302D02*
X79496302Y99066950D01*
X65708994Y96635875D02*
X66693801Y96809523D01*
X65708994Y96635875D02*
X65535345Y97620683D01*
X81726389Y97937035D02*
X63999850Y94811368D01*
X65708993Y96635875D02*
X65535345Y97620683D01*
X63999851Y94811367D02*
X61047831Y111553098D01*
%TO.C,S15*%
X87858371Y89530713D02*
X88854565Y89617869D01*
X87858370Y89530714D02*
X88854565Y89617870D01*
X100808901Y90663739D02*
X101805096Y90750894D01*
X102446570Y106366224D02*
X103928219Y89430914D01*
X86725346Y102481244D02*
X86638190Y103477439D01*
X102446571Y106366224D02*
X103928219Y89430914D01*
X87858371Y89530713D02*
X87771215Y90526909D01*
X84515067Y104797419D02*
X102446570Y106366224D01*
X87858370Y89530714D02*
X87771215Y90526909D01*
X100584916Y104697620D02*
X99588721Y104610464D01*
X85996715Y87862110D02*
X84515067Y104797420D01*
X87634385Y103564593D02*
X86638190Y103477439D01*
X101717940Y91747089D02*
X101805096Y90750894D01*
X100584915Y104697620D02*
X99588721Y104610463D01*
X85996716Y87862109D02*
X84515067Y104797419D01*
X100808901Y90663739D02*
X101805096Y90750894D01*
X103928219Y89430914D02*
X85996715Y87862110D01*
X84515067Y104797420D02*
X102446571Y106366224D01*
X86725346Y102481245D02*
X86638190Y103477440D01*
X103928219Y89430914D02*
X85996716Y87862109D01*
X100584915Y104697620D02*
X100672072Y103701424D01*
X101717940Y91747088D02*
X101805096Y90750894D01*
X87634385Y103564595D02*
X86638190Y103477440D01*
X100584916Y104697620D02*
X100672071Y103701425D01*
%TO.C,S21*%
X121424791Y81077254D02*
X122424791Y81077254D01*
X124424790Y96577254D02*
X124424791Y79577254D01*
X109424791Y95077254D02*
X108424791Y95077254D01*
X108424791Y94077253D02*
X108424791Y95077253D01*
X106424792Y79577253D02*
X106424791Y96577253D01*
X106424791Y96577254D02*
X124424791Y96577254D01*
X121424791Y81077254D02*
X122424791Y81077254D01*
X122424790Y95077254D02*
X121424791Y95077253D01*
X122424791Y82077254D02*
X122424791Y81077254D01*
X122424791Y95077254D02*
X121424791Y95077254D01*
X124424791Y79577254D02*
X106424792Y79577253D01*
X109424791Y95077252D02*
X108424791Y95077253D01*
X106424791Y79577254D02*
X106424791Y96577254D01*
X108424791Y94077254D02*
X108424791Y95077254D01*
X122424790Y95077254D02*
X122424791Y94077253D01*
X122424791Y95077254D02*
X122424791Y94077254D01*
X108424792Y81077253D02*
X109424791Y81077253D01*
X108424791Y81077254D02*
X108424791Y82077254D01*
X122424791Y82077253D02*
X122424791Y81077254D01*
X124424791Y96577254D02*
X124424791Y79577254D01*
X108424792Y81077253D02*
X108424791Y82077254D01*
X124424791Y79577254D02*
X106424791Y79577254D01*
X106424791Y96577253D02*
X124424790Y96577254D01*
X108424791Y81077254D02*
X109424791Y81077254D01*
%TO.C,T1*%
X139318406Y124601838D02*
X139318406Y122101838D01*
X135418406Y122101838D02*
X135418406Y124601838D01*
X135418406Y124601838D02*
X139318406Y124601838D01*
%TO.C,T2*%
X139318406Y124601838D02*
X139318406Y122101838D01*
X135418406Y124601838D02*
X139318406Y124601838D01*
X135418406Y122101838D02*
X135418406Y124601838D01*
%TO.C,S29*%
X142599495Y87044491D02*
X124599496Y87044490D01*
X140599495Y89544490D02*
X140599495Y88544491D01*
X124599495Y104044491D02*
X142599495Y104044491D01*
X140599495Y102544491D02*
X139599495Y102544491D01*
X139599495Y88544491D02*
X140599495Y88544491D01*
X127599495Y102544491D02*
X126599495Y102544491D01*
X126599495Y101544491D02*
X126599495Y102544491D01*
X142599495Y104044491D02*
X142599495Y87044491D01*
X140599495Y102544491D02*
X140599495Y101544491D01*
X124599495Y87044491D02*
X124599495Y104044491D01*
X126599495Y88544491D02*
X127599495Y88544491D01*
X142599495Y87044491D02*
X124599495Y87044491D01*
X126599496Y88544490D02*
X127599495Y88544490D01*
X127599495Y102544489D02*
X126599495Y102544490D01*
X140599495Y89544491D02*
X140599495Y88544491D01*
X140599494Y102544491D02*
X139599495Y102544490D01*
X142599494Y104044491D02*
X142599495Y87044491D01*
X126599496Y88544490D02*
X126599495Y89544491D01*
X124599496Y87044490D02*
X124599495Y104044490D01*
X126599495Y88544491D02*
X126599495Y89544491D01*
X139599495Y88544491D02*
X140599495Y88544491D01*
X126599495Y101544490D02*
X126599495Y102544490D01*
X140599494Y102544491D02*
X140599495Y101544490D01*
X124599495Y104044490D02*
X142599494Y104044491D01*
%TO.C,S33*%
X145760392Y53566682D02*
X146167129Y54480228D01*
X147080675Y54073492D02*
X146167129Y54480229D01*
X138035620Y41133747D02*
X144950143Y56664020D01*
X154479439Y33812488D02*
X138035620Y41133747D01*
X158956765Y48785916D02*
X158043220Y49192651D01*
X154479439Y33812488D02*
X138035621Y41133746D01*
X144950143Y56664020D02*
X161393962Y49342761D01*
X140472817Y41690591D02*
X141386361Y41283855D01*
X158956765Y48785916D02*
X158550029Y47872369D01*
X145760393Y53566683D02*
X146167129Y54480229D01*
X161393961Y49342761D02*
X154479439Y33812488D01*
X147080674Y54073490D02*
X146167129Y54480228D01*
X138035621Y41133746D02*
X144950143Y56664019D01*
X152348907Y36403016D02*
X153262453Y35996279D01*
X140472816Y41690592D02*
X141386362Y41283856D01*
X158956766Y48785916D02*
X158550029Y47872370D01*
X153669189Y36909825D02*
X153262453Y35996279D01*
X144950143Y56664019D02*
X161393961Y49342761D01*
X158956766Y48785916D02*
X158043220Y49192652D01*
X153669189Y36909824D02*
X153262453Y35996279D01*
X161393962Y49342761D02*
X154479439Y33812488D01*
X140472816Y41690592D02*
X140879553Y42604138D01*
X140472817Y41690591D02*
X140879553Y42604138D01*
X152348907Y36403016D02*
X153262453Y35996279D01*
%TO.C,S7*%
X66951869Y78069634D02*
X84678407Y81195302D01*
X84678408Y81195302D02*
X87630427Y64453571D01*
X82969264Y79370794D02*
X81984457Y79197145D01*
X84415532Y65409838D02*
X85400340Y65583486D01*
X71613031Y63152411D02*
X72597839Y63326060D01*
X87630427Y64453571D02*
X69903888Y61327904D01*
X85226691Y66568294D02*
X85400340Y65583486D01*
X71613032Y63152411D02*
X71439383Y64137219D01*
X70166765Y77113366D02*
X69181957Y76939719D01*
X71613032Y63152411D02*
X72597839Y63326059D01*
X84415532Y65409838D02*
X85400340Y65583486D01*
X82969264Y79370794D02*
X83142913Y78385986D01*
X70166764Y77113368D02*
X69181956Y76939720D01*
X87630427Y64453571D02*
X69903889Y61327903D01*
X82969265Y79370795D02*
X81984457Y79197146D01*
X69355605Y75954912D02*
X69181956Y76939720D01*
X66951869Y78069635D02*
X84678408Y81195302D01*
X85226692Y66568293D02*
X85400340Y65583486D01*
X84678407Y81195302D02*
X87630427Y64453571D01*
X69355605Y75954911D02*
X69181957Y76939719D01*
X82969265Y79370795D02*
X83142913Y78385987D01*
X69903889Y61327903D02*
X66951869Y78069634D01*
X69903888Y61327904D02*
X66951869Y78069635D01*
X71613031Y63152411D02*
X71439383Y64137219D01*
%TO.C,S5*%
X41750357Y88227207D02*
X58963841Y93489898D01*
X58963841Y93489898D02*
X63934161Y77232718D01*
X61290623Y79038736D02*
X61582994Y78082432D01*
X48194728Y73989228D02*
X47902356Y74945533D01*
X58963842Y93489899D02*
X63934161Y77232718D01*
X60626689Y77790060D02*
X61582994Y78082432D01*
X57489790Y91470698D02*
X57782162Y90514393D01*
X44393896Y86421189D02*
X44101524Y87377493D01*
X48194729Y73989227D02*
X49151033Y74281599D01*
X63934161Y77232718D02*
X46720676Y71970027D01*
X61290623Y79038735D02*
X61582994Y78082432D01*
X44393895Y86421190D02*
X44101524Y87377494D01*
X48194729Y73989227D02*
X47902356Y74945533D01*
X57489789Y91470698D02*
X56533486Y91178326D01*
X41750357Y88227208D02*
X58963842Y93489899D01*
X46720676Y71970027D02*
X41750357Y88227208D01*
X63934161Y77232718D02*
X46720677Y71970027D01*
X45057829Y87669866D02*
X44101524Y87377494D01*
X57489790Y91470698D02*
X56533486Y91178327D01*
X60626689Y77790060D02*
X61582994Y78082432D01*
X57489789Y91470698D02*
X57782162Y90514393D01*
X48194728Y73989228D02*
X49151032Y74281599D01*
X45057829Y87669864D02*
X44101524Y87377493D01*
X46720677Y71970027D02*
X41750357Y88227207D01*
%TO.C,S27*%
X127599495Y85544491D02*
X126599495Y85544491D01*
X126599496Y71544490D02*
X127599495Y71544490D01*
X140599494Y85544491D02*
X140599495Y84544490D01*
X124599495Y70044491D02*
X124599495Y87044491D01*
X142599494Y87044491D02*
X142599495Y70044491D01*
X126599495Y71544491D02*
X127599495Y71544491D01*
X140599495Y85544491D02*
X139599495Y85544491D01*
X139599495Y71544491D02*
X140599495Y71544491D01*
X142599495Y70044491D02*
X124599495Y70044491D01*
X142599495Y87044491D02*
X142599495Y70044491D01*
X140599495Y85544491D02*
X140599495Y84544491D01*
X126599495Y71544491D02*
X126599495Y72544491D01*
X139599495Y71544491D02*
X140599495Y71544491D01*
X126599495Y84544490D02*
X126599495Y85544490D01*
X127599495Y85544489D02*
X126599495Y85544490D01*
X124599496Y70044490D02*
X124599495Y87044490D01*
X126599496Y71544490D02*
X126599495Y72544491D01*
X140599495Y72544491D02*
X140599495Y71544491D01*
X124599495Y87044490D02*
X142599494Y87044491D01*
X140599495Y72544490D02*
X140599495Y71544491D01*
X142599495Y70044491D02*
X124599496Y70044490D01*
X126599495Y84544491D02*
X126599495Y85544491D01*
X124599495Y87044491D02*
X142599495Y87044491D01*
X140599494Y85544491D02*
X139599495Y85544490D01*
%TO.C,S9*%
X81726389Y97937034D02*
X84678408Y81195303D01*
X80017245Y96112526D02*
X79032438Y95938877D01*
X66951869Y78069636D02*
X63999850Y94811367D01*
X66403586Y92696643D02*
X66229938Y93681451D01*
X82274672Y83310026D02*
X82448321Y82325218D01*
X63999850Y94811366D02*
X81726388Y97937034D01*
X66403586Y92696644D02*
X66229937Y93681452D01*
X80017246Y96112527D02*
X80190894Y95127719D01*
X84678408Y81195303D02*
X66951869Y78069636D01*
X67214745Y93855100D02*
X66229937Y93681452D01*
X63999850Y94811367D02*
X81726389Y97937034D01*
X68661013Y79894143D02*
X68487364Y80878951D01*
X84678408Y81195303D02*
X66951870Y78069635D01*
X67214746Y93855098D02*
X66229938Y93681451D01*
X81726388Y97937034D02*
X84678408Y81195303D01*
X66951870Y78069635D02*
X63999850Y94811366D01*
X81463513Y82151570D02*
X82448321Y82325218D01*
X80017245Y96112526D02*
X80190894Y95127718D01*
X68661012Y79894143D02*
X68487364Y80878951D01*
X68661012Y79894143D02*
X69645820Y80067792D01*
X82274673Y83310025D02*
X82448321Y82325218D01*
X81463513Y82151570D02*
X82448321Y82325218D01*
X80017246Y96112527D02*
X79032438Y95938878D01*
X68661013Y79894143D02*
X69645820Y80067791D01*
%TO.C,S13*%
X102066564Y87762310D02*
X101070369Y87675154D01*
X89340018Y72595404D02*
X89252863Y73591599D01*
X85996715Y87862109D02*
X103928218Y89430914D01*
X89340018Y72595404D02*
X90336213Y72682560D01*
X85996715Y87862110D02*
X103928219Y89430914D01*
X103928218Y89430914D02*
X105409867Y72495604D01*
X89116033Y86629283D02*
X88119838Y86542129D01*
X89116033Y86629285D02*
X88119838Y86542130D01*
X105409867Y72495604D02*
X87478364Y70926799D01*
X103199588Y74811779D02*
X103286744Y73815584D01*
X87478364Y70926799D02*
X85996715Y87862109D01*
X89340019Y72595403D02*
X90336213Y72682559D01*
X87478363Y70926800D02*
X85996715Y87862110D01*
X103928219Y89430914D02*
X105409867Y72495604D01*
X102066563Y87762310D02*
X102153720Y86766114D01*
X89340019Y72595403D02*
X89252863Y73591599D01*
X102066563Y87762310D02*
X101070369Y87675153D01*
X88206994Y85545935D02*
X88119838Y86542130D01*
X103199588Y74811778D02*
X103286744Y73815584D01*
X88206994Y85545934D02*
X88119838Y86542129D01*
X102290549Y73728429D02*
X103286744Y73815584D01*
X105409867Y72495604D02*
X87478363Y70926800D01*
X102290549Y73728429D02*
X103286744Y73815584D01*
X102066564Y87762310D02*
X102153719Y86766115D01*
%TO.C,S17*%
X99103269Y121632930D02*
X98107074Y121545774D01*
X83033420Y121732730D02*
X100964924Y123301534D01*
X100236293Y108682398D02*
X100323449Y107686204D01*
X99327254Y107599049D02*
X100323449Y107686204D01*
X99103268Y121632930D02*
X98107074Y121545773D01*
X99327254Y107599049D02*
X100323449Y107686204D01*
X86152738Y120499905D02*
X85156543Y120412750D01*
X100236293Y108682399D02*
X100323449Y107686204D01*
X83033420Y121732729D02*
X100964923Y123301534D01*
X100964924Y123301534D02*
X102446572Y106366224D01*
X86376723Y106466024D02*
X87372918Y106553180D01*
X102446572Y106366224D02*
X84515068Y104797420D01*
X86152738Y120499903D02*
X85156543Y120412749D01*
X99103268Y121632930D02*
X99190425Y120636734D01*
X86376723Y106466024D02*
X86289568Y107462219D01*
X86376724Y106466023D02*
X87372918Y106553179D01*
X84515069Y104797419D02*
X83033420Y121732729D01*
X86376724Y106466023D02*
X86289568Y107462219D01*
X85243699Y119416554D02*
X85156543Y120412749D01*
X100964923Y123301534D02*
X102446572Y106366224D01*
X84515068Y104797420D02*
X83033420Y121732730D01*
X102446572Y106366224D02*
X84515069Y104797419D01*
X85243699Y119416555D02*
X85156543Y120412750D01*
X99103269Y121632930D02*
X99190424Y120636735D01*
%TO.C,S31*%
X138484977Y56755786D02*
X137497289Y56912220D01*
X135307207Y43084584D02*
X136294895Y42928149D01*
X124500906Y57958179D02*
X124657341Y58945868D01*
X125645029Y58789432D02*
X124657341Y58945868D01*
X120257231Y43949567D02*
X122916616Y60740269D01*
X138484977Y56755786D02*
X138328543Y55768097D01*
X140695005Y57924450D02*
X138035620Y41133748D01*
X124500906Y57958180D02*
X124657341Y58945869D01*
X122467259Y45118231D02*
X123454947Y44961796D01*
X120257230Y43949568D02*
X122916616Y60740270D01*
X136451330Y43915838D02*
X136294895Y42928149D01*
X138035620Y41133748D02*
X120257230Y43949568D01*
X125645029Y58789434D02*
X124657341Y58945869D01*
X138484978Y56755786D02*
X138328543Y55768098D01*
X122916616Y60740270D02*
X140695006Y57924450D01*
X122916616Y60740269D02*
X140695005Y57924450D01*
X122467258Y45118232D02*
X122623693Y46105920D01*
X140695006Y57924450D02*
X138035620Y41133748D01*
X138035620Y41133748D02*
X120257231Y43949567D01*
X138484978Y56755786D02*
X137497289Y56912221D01*
X135307207Y43084584D02*
X136294895Y42928149D01*
X122467258Y45118232D02*
X123454947Y44961797D01*
X136451329Y43915837D02*
X136294895Y42928149D01*
X122467259Y45118231D02*
X122623693Y46105920D01*
%TO.C,MCU1*%
X150547213Y113437254D02*
X150547213Y118517254D01*
X150508690Y113437254D02*
X150508690Y118517254D01*
X158128690Y113437254D02*
X150508690Y113437254D01*
X150547213Y118517254D02*
X158167213Y118517254D01*
X158167213Y118517254D02*
X158167213Y113437254D01*
X158167213Y113437254D02*
X150547213Y113437254D01*
X158128690Y118517254D02*
X158128690Y113437254D01*
%TO.C,S3*%
X53165048Y57732046D02*
X54121352Y58024418D01*
X62460108Y75213517D02*
X61503805Y74921145D01*
X63934161Y77232718D02*
X68904480Y60975537D01*
X65597008Y61532879D02*
X66553313Y61825251D01*
X46720676Y71970027D02*
X63934161Y77232718D01*
X62460109Y75213517D02*
X61503805Y74921146D01*
X51690995Y55712846D02*
X46720676Y71970027D01*
X66260942Y62781554D02*
X66553313Y61825251D01*
X68904480Y60975537D02*
X51690995Y55712846D01*
X66260942Y62781555D02*
X66553313Y61825251D01*
X62460108Y75213517D02*
X62752481Y74257212D01*
X49364215Y70164008D02*
X49071843Y71120312D01*
X49364214Y70164009D02*
X49071843Y71120313D01*
X65597008Y61532879D02*
X66553313Y61825251D01*
X50028148Y71412685D02*
X49071843Y71120313D01*
X68904480Y60975537D02*
X51690996Y55712846D01*
X62460109Y75213517D02*
X62752481Y74257212D01*
X53165048Y57732046D02*
X52872675Y58688352D01*
X53165047Y57732047D02*
X54121351Y58024418D01*
X63934160Y77232717D02*
X68904480Y60975537D01*
X51690996Y55712846D02*
X46720676Y71970026D01*
X46720676Y71970026D02*
X63934160Y77232717D01*
X50028148Y71412683D02*
X49071843Y71120312D01*
X53165047Y57732047D02*
X52872675Y58688352D01*
%TO.C,S23*%
X121424791Y98077254D02*
X122424791Y98077254D01*
X122424791Y99077253D02*
X122424791Y98077254D01*
X106424791Y113577254D02*
X124424791Y113577254D01*
X122424791Y112077254D02*
X121424791Y112077254D01*
X124424791Y96577254D02*
X106424791Y96577254D01*
X124424790Y113577254D02*
X124424791Y96577254D01*
X106424791Y113577253D02*
X124424790Y113577254D01*
X108424791Y111077254D02*
X108424791Y112077254D01*
X106424791Y96577254D02*
X106424791Y113577254D01*
X124424791Y113577254D02*
X124424791Y96577254D01*
X122424791Y112077254D02*
X122424791Y111077254D01*
X122424791Y99077254D02*
X122424791Y98077254D01*
X108424791Y98077254D02*
X108424791Y99077254D01*
X108424791Y98077254D02*
X109424791Y98077254D01*
X106424792Y96577253D02*
X106424791Y113577253D01*
X109424791Y112077252D02*
X108424791Y112077253D01*
X109424791Y112077254D02*
X108424791Y112077254D01*
X108424792Y98077253D02*
X108424791Y99077254D01*
X121424791Y98077254D02*
X122424791Y98077254D01*
X122424790Y112077254D02*
X121424791Y112077253D01*
X122424790Y112077254D02*
X122424791Y111077253D01*
X108424792Y98077253D02*
X109424791Y98077253D01*
X108424791Y111077253D02*
X108424791Y112077253D01*
X124424791Y96577254D02*
X106424792Y96577253D01*
%TO.C,S19*%
X124424791Y62577254D02*
X106424792Y62577253D01*
X108424792Y64077253D02*
X108424791Y65077254D01*
X109424791Y78077254D02*
X108424791Y78077254D01*
X122424791Y78077254D02*
X121424791Y78077254D01*
X108424792Y64077253D02*
X109424791Y64077253D01*
X106424792Y62577253D02*
X106424791Y79577253D01*
X122424791Y65077254D02*
X122424791Y64077254D01*
X122424790Y78077254D02*
X122424791Y77077253D01*
X124424791Y62577254D02*
X106424791Y62577254D01*
X106424791Y62577254D02*
X106424791Y79577254D01*
X106424791Y79577253D02*
X124424790Y79577254D01*
X124424790Y79577254D02*
X124424791Y62577254D01*
X108424791Y64077254D02*
X108424791Y65077254D01*
X108424791Y64077254D02*
X109424791Y64077254D01*
X106424791Y79577254D02*
X124424791Y79577254D01*
X108424791Y77077253D02*
X108424791Y78077253D01*
X122424791Y65077253D02*
X122424791Y64077254D01*
X121424791Y64077254D02*
X122424791Y64077254D01*
X109424791Y78077252D02*
X108424791Y78077253D01*
X124424791Y79577254D02*
X124424791Y62577254D01*
X122424791Y78077254D02*
X122424791Y77077254D01*
X122424790Y78077254D02*
X121424791Y78077253D01*
X108424791Y77077254D02*
X108424791Y78077254D01*
X121424791Y64077254D02*
X122424791Y64077254D01*
%TD*%
M02*
