%FSLAX45Y45*%
G04 Gerber Fmt 4.5, Leading zero omitted, Abs format (unit mm)*
G04 Created by KiCad (PCBNEW (6.0.4)) date 2022-06-17 23:20:30*
%MOMM*%
%LPD*%
G01*
G04 APERTURE LIST*
%TA.AperFunction,Profile*%
%ADD10C,0.050000*%
%TD*%
%ADD11C,0.200000*%
%ADD12C,0.090000*%
%ADD13C,0.170180*%
%ADD14C,0.300000*%
%ADD15C,0.342900*%
G04 APERTURE END LIST*
D10*
X16431618Y3825490D02*
X16431979Y11826325D01*
X4176475Y3825325D02*
G75*
G03*
X4620979Y3380825I444505J5D01*
G01*
X16431975Y11826325D02*
G75*
G03*
X15987479Y12270825I-444495J5D01*
G01*
X4620979Y3380825D02*
X15987118Y3380990D01*
X4176115Y11826612D02*
X4176479Y3825325D01*
X15987479Y12270825D02*
X4620615Y12271112D01*
X4620615Y12271112D02*
G75*
G03*
X4176115Y11826612I0J-444500D01*
G01*
X15987118Y3380991D02*
G75*
G03*
X16431618Y3825490I2J444499D01*
G01*
D11*
D12*
X13541841Y12120184D02*
X13631841Y12030184D01*
X13631841Y12120184D02*
X13541841Y12030184D01*
X13841841Y12120184D02*
X13931841Y12030184D01*
X13931841Y12120184D02*
X13841841Y12030184D01*
D13*
X4843348Y8112192D02*
G75*
G03*
X4843348Y8112192I-85090J0D01*
G01*
X5340380Y6486474D02*
G75*
G03*
X5340380Y6486474I-85090J0D01*
G01*
X5895283Y8433801D02*
G75*
G03*
X5895283Y8433801I-85090J0D01*
G01*
X6392315Y6808083D02*
G75*
G03*
X6392315Y6808083I-85090J0D01*
G01*
X6682157Y10379000D02*
G75*
G03*
X6682157Y10379000I-85090J0D01*
G01*
X6977359Y8704827D02*
G75*
G03*
X6977359Y8704827I-85090J0D01*
G01*
X7272560Y7030654D02*
G75*
G03*
X7272560Y7030654I-85090J0D01*
G01*
X7765445Y10570013D02*
G75*
G03*
X7765445Y10570013I-85090J0D01*
G01*
X8060647Y8895840D02*
G75*
G03*
X8060647Y8895840I-85090J0D01*
G01*
X8355849Y7221667D02*
G75*
G03*
X8355849Y7221667I-85090J0D01*
G01*
X8811183Y11357012D02*
G75*
G03*
X8811183Y11357012I-85090J0D01*
G01*
X8959347Y9663481D02*
G75*
G03*
X8959347Y9663481I-85090J0D01*
G01*
X9107512Y7969950D02*
G75*
G03*
X9107512Y7969950I-85090J0D01*
G01*
X9906997Y11452883D02*
G75*
G03*
X9906997Y11452883I-85090J0D01*
G01*
X10055161Y9759352D02*
G75*
G03*
X10055161Y9759352I-85090J0D01*
G01*
X10203326Y8065821D02*
G75*
G03*
X10203326Y8065821I-85090J0D01*
G01*
X11077569Y10507725D02*
G75*
G03*
X11077569Y10507725I-85090J0D01*
G01*
X11077569Y8807725D02*
G75*
G03*
X11077569Y8807725I-85090J0D01*
G01*
X11077569Y7107725D02*
G75*
G03*
X11077569Y7107725I-85090J0D01*
G01*
X12177569Y10507725D02*
G75*
G03*
X12177569Y10507725I-85090J0D01*
G01*
X12177569Y8807725D02*
G75*
G03*
X12177569Y8807725I-85090J0D01*
G01*
X12177569Y7107725D02*
G75*
G03*
X12177569Y7107725I-85090J0D01*
G01*
X12589473Y5179740D02*
G75*
G03*
X12589473Y5179740I-85090J0D01*
G01*
X12895039Y9554449D02*
G75*
G03*
X12895039Y9554449I-85090J0D01*
G01*
X12895039Y7854449D02*
G75*
G03*
X12895039Y7854449I-85090J0D01*
G01*
X13675930Y5007662D02*
G75*
G03*
X13675930Y5007662I-85090J0D01*
G01*
X13995039Y9554449D02*
G75*
G03*
X13995039Y9554449I-85090J0D01*
G01*
X13995039Y7854449D02*
G75*
G03*
X13995039Y7854449I-85090J0D01*
G01*
X14554119Y4747531D02*
G75*
G03*
X14554119Y4747531I-85090J0D01*
G01*
X15559019Y4300120D02*
G75*
G03*
X15559019Y4300120I-85090J0D01*
G01*
D14*
X4696434Y8635425D02*
X4696434Y8335425D01*
X4546434Y8485425D02*
X4846434Y8485425D01*
X5110265Y8991998D02*
X5110265Y8691998D01*
X4960265Y8841998D02*
X5260265Y8841998D01*
X5193466Y7009706D02*
X5193466Y6709706D01*
X5043466Y6859706D02*
X5343466Y6859706D01*
X5607297Y7366279D02*
X5607297Y7066279D01*
X5457297Y7216279D02*
X5757297Y7216279D01*
X5652739Y8927796D02*
X5652739Y8627796D01*
X5502739Y8777796D02*
X5802739Y8777796D01*
X6149771Y7302078D02*
X6149771Y7002078D01*
X5999771Y7152078D02*
X6299771Y7152078D01*
X6581189Y10906985D02*
X6581189Y10606985D01*
X6431189Y10756985D02*
X6731189Y10756985D01*
X6876391Y9232812D02*
X6876391Y8932812D01*
X6726391Y9082812D02*
X7026391Y9082812D01*
X7035390Y11210467D02*
X7035390Y10910467D01*
X6885390Y11060467D02*
X7185390Y11060467D01*
X7171593Y7558639D02*
X7171593Y7258639D01*
X7021593Y7408639D02*
X7321593Y7408639D01*
X7330592Y9536294D02*
X7330592Y9236294D01*
X7180592Y9386294D02*
X7480592Y9386294D01*
X7565997Y11080634D02*
X7565997Y10780634D01*
X7415997Y10930634D02*
X7715997Y10930634D01*
X7625794Y7862121D02*
X7625794Y7562121D01*
X7475794Y7712121D02*
X7775794Y7712121D01*
X7861199Y9406460D02*
X7861199Y9106460D01*
X7711199Y9256460D02*
X8011199Y9256460D01*
X8156401Y7732287D02*
X8156401Y7432287D01*
X8006401Y7582287D02*
X8306401Y7582287D01*
X8743219Y11884943D02*
X8743219Y11584943D01*
X8593219Y11734943D02*
X8893219Y11734943D01*
X8891384Y10191412D02*
X8891384Y9891412D01*
X8741384Y10041412D02*
X9041384Y10041412D01*
X9039548Y8497881D02*
X9039548Y8197881D01*
X8889548Y8347881D02*
X9189548Y8347881D01*
X9222142Y12147683D02*
X9222142Y11847683D01*
X9072142Y11997683D02*
X9372142Y11997683D01*
X9370307Y10454153D02*
X9370307Y10154153D01*
X9220307Y10304153D02*
X9520307Y10304153D01*
X9518471Y8760622D02*
X9518471Y8460622D01*
X9368471Y8610622D02*
X9668471Y8610622D01*
X9739414Y11972098D02*
X9739414Y11672098D01*
X9589414Y11822098D02*
X9889414Y11822098D01*
X9887578Y10278568D02*
X9887578Y9978568D01*
X9737578Y10128568D02*
X10037578Y10128568D01*
X10035743Y8585037D02*
X10035743Y8285036D01*
X9885743Y8435037D02*
X10185743Y8435037D01*
X11042479Y11032725D02*
X11042479Y10732725D01*
X10892479Y10882725D02*
X11192479Y10882725D01*
X11042479Y9332725D02*
X11042479Y9032725D01*
X10892479Y9182725D02*
X11192479Y9182725D01*
X11042479Y7632725D02*
X11042479Y7332725D01*
X10892479Y7482725D02*
X11192479Y7482725D01*
X11542479Y11252725D02*
X11542479Y10952725D01*
X11392479Y11102725D02*
X11692479Y11102725D01*
X11542479Y9552725D02*
X11542479Y9252725D01*
X11392479Y9402725D02*
X11692479Y9402725D01*
X11542479Y7852725D02*
X11542479Y7552725D01*
X11392479Y7702725D02*
X11692479Y7702725D01*
X12042479Y11032725D02*
X12042479Y10732725D01*
X11892479Y10882725D02*
X12192479Y10882725D01*
X12042479Y9332725D02*
X12042479Y9032725D01*
X11892479Y9182725D02*
X12192479Y9182725D01*
X12042479Y7632725D02*
X12042479Y7332725D01*
X11892479Y7482725D02*
X12192479Y7482725D01*
X12612430Y5692301D02*
X12612430Y5392301D01*
X12462430Y5542301D02*
X12762430Y5542301D01*
X12859949Y10079449D02*
X12859949Y9779449D01*
X12709949Y9929449D02*
X13009949Y9929449D01*
X12859949Y8379449D02*
X12859949Y8079449D01*
X12709949Y8229449D02*
X13009949Y8229449D01*
X13140690Y5831375D02*
X13140690Y5531376D01*
X12990690Y5681375D02*
X13290690Y5681375D01*
X13359949Y10299449D02*
X13359949Y9999449D01*
X13209949Y10149449D02*
X13509949Y10149449D01*
X13359949Y8599449D02*
X13359949Y8299449D01*
X13209949Y8449449D02*
X13509949Y8449449D01*
X13600119Y5535867D02*
X13600119Y5235867D01*
X13450119Y5385867D02*
X13750119Y5385867D01*
X13859949Y10079449D02*
X13859949Y9779449D01*
X13709949Y9929449D02*
X14009949Y9929449D01*
X13859949Y8379449D02*
X13859949Y8079449D01*
X13709949Y8229449D02*
X14009949Y8229449D01*
X14667233Y5219773D02*
X14667233Y4919773D01*
X14517233Y5069773D02*
X14817233Y5069773D01*
X15213487Y5217385D02*
X15213487Y4917385D01*
X15063487Y5067385D02*
X15363487Y5067385D01*
X15580778Y4813037D02*
X15580778Y4513037D01*
X15430778Y4663037D02*
X15730778Y4663037D01*
D15*
X5405461Y8151762D02*
X5405461Y8394231D01*
X5162991Y8394231D01*
X5162991Y8151762D01*
X5405461Y8151762D01*
X5902492Y6526044D02*
X5902492Y6768513D01*
X5660023Y6768513D01*
X5660023Y6526044D01*
X5902492Y6526044D01*
X7259946Y10353272D02*
X7259946Y10595741D01*
X7017476Y10595741D01*
X7017476Y10353272D01*
X7259946Y10353272D01*
X7555147Y8679099D02*
X7555147Y8921568D01*
X7312678Y8921568D01*
X7312678Y8679099D01*
X7555147Y8679099D01*
X7850349Y7004926D02*
X7850349Y7247395D01*
X7607880Y7247395D01*
X7607880Y7004926D01*
X7850349Y7004926D01*
X9395234Y11283713D02*
X9395234Y11526182D01*
X9152765Y11526182D01*
X9152765Y11283713D01*
X9395234Y11283713D01*
X9543399Y9590182D02*
X9543399Y9832651D01*
X9300930Y9832651D01*
X9300930Y9590182D01*
X9543399Y9590182D01*
X9691564Y7896651D02*
X9691564Y8139120D01*
X9449095Y8139120D01*
X9449095Y7896651D01*
X9691564Y7896651D01*
X11663714Y10386491D02*
X11663714Y10628960D01*
X11421244Y10628960D01*
X11421244Y10386491D01*
X11663714Y10386491D01*
X11663714Y8686491D02*
X11663714Y8928960D01*
X11421244Y8928960D01*
X11421244Y8686491D01*
X11663714Y8686491D01*
X11663714Y6986491D02*
X11663714Y7228960D01*
X11421244Y7228960D01*
X11421244Y6986491D01*
X11663714Y6986491D01*
X13168846Y4972466D02*
X13168846Y5214936D01*
X12926377Y5214936D01*
X12926377Y4972466D01*
X13168846Y4972466D01*
X13481184Y9433215D02*
X13481184Y9675684D01*
X13238715Y9675684D01*
X13238715Y9433215D01*
X13481184Y9433215D01*
X13481184Y7733214D02*
X13481184Y7975684D01*
X13238715Y7975684D01*
X13238715Y7733214D01*
X13481184Y7733214D01*
X15092714Y4402591D02*
X15092714Y4645060D01*
X14850244Y4645060D01*
X14850244Y4402591D01*
X15092714Y4402591D01*
D11*
X4431234Y3067849D02*
X4431234Y3267849D01*
X4478853Y3267849D01*
X4507424Y3258325D01*
X4526472Y3239278D01*
X4535996Y3220230D01*
X4545520Y3182135D01*
X4545520Y3153563D01*
X4535996Y3115468D01*
X4526472Y3096421D01*
X4507424Y3077373D01*
X4478853Y3067849D01*
X4431234Y3067849D01*
X4631234Y3067849D02*
X4631234Y3201182D01*
X4631234Y3163087D02*
X4640758Y3182135D01*
X4650282Y3191659D01*
X4669329Y3201182D01*
X4688377Y3201182D01*
X4755043Y3067849D02*
X4755043Y3201182D01*
X4755043Y3267849D02*
X4745520Y3258325D01*
X4755043Y3248801D01*
X4764567Y3258325D01*
X4755043Y3267849D01*
X4755043Y3248801D01*
X4878853Y3067849D02*
X4859805Y3077373D01*
X4850282Y3096421D01*
X4850282Y3267849D01*
X4983615Y3067849D02*
X4964567Y3077373D01*
X4955043Y3096421D01*
X4955043Y3267849D01*
X5212186Y3067849D02*
X5212186Y3267849D01*
X5278853Y3124992D01*
X5345520Y3267849D01*
X5345520Y3067849D01*
X5526472Y3067849D02*
X5526472Y3172611D01*
X5516948Y3191659D01*
X5497901Y3201182D01*
X5459805Y3201182D01*
X5440758Y3191659D01*
X5526472Y3077373D02*
X5507424Y3067849D01*
X5459805Y3067849D01*
X5440758Y3077373D01*
X5431234Y3096421D01*
X5431234Y3115468D01*
X5440758Y3134516D01*
X5459805Y3144040D01*
X5507424Y3144040D01*
X5526472Y3153563D01*
X5621710Y3201182D02*
X5621710Y3001182D01*
X5621710Y3191659D02*
X5640758Y3201182D01*
X5678853Y3201182D01*
X5697901Y3191659D01*
X5707424Y3182135D01*
X5716948Y3163087D01*
X5716948Y3105944D01*
X5707424Y3086897D01*
X5697901Y3077373D01*
X5678853Y3067849D01*
X5640758Y3067849D01*
X5621710Y3077373D01*
X5802662Y3086897D02*
X5812186Y3077373D01*
X5802662Y3067849D01*
X5793139Y3077373D01*
X5802662Y3086897D01*
X5802662Y3067849D01*
X5802662Y3191659D02*
X5812186Y3182135D01*
X5802662Y3172611D01*
X5793139Y3182135D01*
X5802662Y3191659D01*
X5802662Y3172611D01*
D12*
X4083615Y2783325D02*
X4173615Y2693325D01*
X4173615Y2783325D02*
X4083615Y2693325D01*
D11*
X4469329Y2847849D02*
X4488377Y2847849D01*
X4507424Y2838325D01*
X4516948Y2828801D01*
X4526472Y2809754D01*
X4535996Y2771659D01*
X4535996Y2724040D01*
X4526472Y2685944D01*
X4516948Y2666897D01*
X4507424Y2657373D01*
X4488377Y2647849D01*
X4469329Y2647849D01*
X4450282Y2657373D01*
X4440758Y2666897D01*
X4431234Y2685944D01*
X4421710Y2724040D01*
X4421710Y2771659D01*
X4431234Y2809754D01*
X4440758Y2828801D01*
X4450282Y2838325D01*
X4469329Y2847849D01*
X4621710Y2666897D02*
X4631234Y2657373D01*
X4621710Y2647849D01*
X4612186Y2657373D01*
X4621710Y2666897D01*
X4621710Y2647849D01*
X4726472Y2647849D02*
X4764567Y2647849D01*
X4783615Y2657373D01*
X4793139Y2666897D01*
X4812186Y2695468D01*
X4821710Y2733563D01*
X4821710Y2809754D01*
X4812186Y2828801D01*
X4802663Y2838325D01*
X4783615Y2847849D01*
X4745520Y2847849D01*
X4726472Y2838325D01*
X4716948Y2828801D01*
X4707424Y2809754D01*
X4707424Y2762135D01*
X4716948Y2743087D01*
X4726472Y2733563D01*
X4745520Y2724040D01*
X4783615Y2724040D01*
X4802663Y2733563D01*
X4812186Y2743087D01*
X4821710Y2762135D01*
X4945520Y2847849D02*
X4964567Y2847849D01*
X4983615Y2838325D01*
X4993139Y2828801D01*
X5002663Y2809754D01*
X5012186Y2771659D01*
X5012186Y2724040D01*
X5002663Y2685944D01*
X4993139Y2666897D01*
X4983615Y2657373D01*
X4964567Y2647849D01*
X4945520Y2647849D01*
X4926472Y2657373D01*
X4916948Y2666897D01*
X4907424Y2685944D01*
X4897901Y2724040D01*
X4897901Y2771659D01*
X4907424Y2809754D01*
X4916948Y2828801D01*
X4926472Y2838325D01*
X4945520Y2847849D01*
X5135996Y2847849D02*
X5155043Y2847849D01*
X5174091Y2838325D01*
X5183615Y2828801D01*
X5193139Y2809754D01*
X5202663Y2771659D01*
X5202663Y2724040D01*
X5193139Y2685944D01*
X5183615Y2666897D01*
X5174091Y2657373D01*
X5155043Y2647849D01*
X5135996Y2647849D01*
X5116948Y2657373D01*
X5107424Y2666897D01*
X5097901Y2685944D01*
X5088377Y2724040D01*
X5088377Y2771659D01*
X5097901Y2809754D01*
X5107424Y2828801D01*
X5116948Y2838325D01*
X5135996Y2847849D01*
X5288377Y2647849D02*
X5288377Y2781183D01*
X5288377Y2762135D02*
X5297901Y2771659D01*
X5316948Y2781183D01*
X5345520Y2781183D01*
X5364567Y2771659D01*
X5374091Y2752611D01*
X5374091Y2647849D01*
X5374091Y2752611D02*
X5383615Y2771659D01*
X5402663Y2781183D01*
X5431234Y2781183D01*
X5450282Y2771659D01*
X5459805Y2752611D01*
X5459805Y2647849D01*
X5555043Y2647849D02*
X5555043Y2781183D01*
X5555043Y2762135D02*
X5564567Y2771659D01*
X5583615Y2781183D01*
X5612186Y2781183D01*
X5631234Y2771659D01*
X5640758Y2752611D01*
X5640758Y2647849D01*
X5640758Y2752611D02*
X5650281Y2771659D01*
X5669329Y2781183D01*
X5697901Y2781183D01*
X5716948Y2771659D01*
X5726472Y2752611D01*
X5726472Y2647849D01*
X6116948Y2857373D02*
X5945520Y2600230D01*
X6374091Y2847849D02*
X6393139Y2847849D01*
X6412186Y2838325D01*
X6421710Y2828801D01*
X6431234Y2809754D01*
X6440758Y2771659D01*
X6440758Y2724040D01*
X6431234Y2685944D01*
X6421710Y2666897D01*
X6412186Y2657373D01*
X6393139Y2647849D01*
X6374091Y2647849D01*
X6355043Y2657373D01*
X6345520Y2666897D01*
X6335996Y2685944D01*
X6326472Y2724040D01*
X6326472Y2771659D01*
X6335996Y2809754D01*
X6345520Y2828801D01*
X6355043Y2838325D01*
X6374091Y2847849D01*
X6526472Y2666897D02*
X6535996Y2657373D01*
X6526472Y2647849D01*
X6516948Y2657373D01*
X6526472Y2666897D01*
X6526472Y2647849D01*
X6659805Y2847849D02*
X6678853Y2847849D01*
X6697901Y2838325D01*
X6707424Y2828801D01*
X6716948Y2809754D01*
X6726472Y2771659D01*
X6726472Y2724040D01*
X6716948Y2685944D01*
X6707424Y2666897D01*
X6697901Y2657373D01*
X6678853Y2647849D01*
X6659805Y2647849D01*
X6640758Y2657373D01*
X6631234Y2666897D01*
X6621710Y2685944D01*
X6612186Y2724040D01*
X6612186Y2771659D01*
X6621710Y2809754D01*
X6631234Y2828801D01*
X6640758Y2838325D01*
X6659805Y2847849D01*
X6793139Y2847849D02*
X6916948Y2847849D01*
X6850281Y2771659D01*
X6878853Y2771659D01*
X6897901Y2762135D01*
X6907424Y2752611D01*
X6916948Y2733563D01*
X6916948Y2685944D01*
X6907424Y2666897D01*
X6897901Y2657373D01*
X6878853Y2647849D01*
X6821710Y2647849D01*
X6802662Y2657373D01*
X6793139Y2666897D01*
X7097901Y2847849D02*
X7002662Y2847849D01*
X6993139Y2752611D01*
X7002662Y2762135D01*
X7021710Y2771659D01*
X7069329Y2771659D01*
X7088377Y2762135D01*
X7097901Y2752611D01*
X7107424Y2733563D01*
X7107424Y2685944D01*
X7097901Y2666897D01*
X7088377Y2657373D01*
X7069329Y2647849D01*
X7021710Y2647849D01*
X7002662Y2657373D01*
X6993139Y2666897D01*
X7278853Y2781183D02*
X7278853Y2647849D01*
X7231234Y2857373D02*
X7183615Y2714516D01*
X7307424Y2714516D01*
X7374091Y2847849D02*
X7374091Y2809754D01*
X7450281Y2847849D02*
X7450281Y2809754D01*
X7745520Y2571659D02*
X7735996Y2581183D01*
X7716948Y2609754D01*
X7707424Y2628802D01*
X7697901Y2657373D01*
X7688377Y2704992D01*
X7688377Y2743087D01*
X7697901Y2790706D01*
X7707424Y2819278D01*
X7716948Y2838325D01*
X7735996Y2866897D01*
X7745520Y2876421D01*
X7812186Y2828801D02*
X7821710Y2838325D01*
X7840758Y2847849D01*
X7888377Y2847849D01*
X7907424Y2838325D01*
X7916948Y2828801D01*
X7926472Y2809754D01*
X7926472Y2790706D01*
X7916948Y2762135D01*
X7802662Y2647849D01*
X7926472Y2647849D01*
X8164567Y2647849D02*
X8164567Y2847849D01*
X8250281Y2647849D02*
X8250281Y2752611D01*
X8240758Y2771659D01*
X8221710Y2781183D01*
X8193139Y2781183D01*
X8174091Y2771659D01*
X8164567Y2762135D01*
X8374091Y2647849D02*
X8355043Y2657373D01*
X8345520Y2666897D01*
X8335996Y2685944D01*
X8335996Y2743087D01*
X8345520Y2762135D01*
X8355043Y2771659D01*
X8374091Y2781183D01*
X8402663Y2781183D01*
X8421710Y2771659D01*
X8431234Y2762135D01*
X8440758Y2743087D01*
X8440758Y2685944D01*
X8431234Y2666897D01*
X8421710Y2657373D01*
X8402663Y2647849D01*
X8374091Y2647849D01*
X8555043Y2647849D02*
X8535996Y2657373D01*
X8526472Y2676421D01*
X8526472Y2847849D01*
X8707424Y2657373D02*
X8688377Y2647849D01*
X8650282Y2647849D01*
X8631234Y2657373D01*
X8621710Y2676421D01*
X8621710Y2752611D01*
X8631234Y2771659D01*
X8650282Y2781183D01*
X8688377Y2781183D01*
X8707424Y2771659D01*
X8716948Y2752611D01*
X8716948Y2733563D01*
X8621710Y2714516D01*
X8793139Y2657373D02*
X8812186Y2647849D01*
X8850282Y2647849D01*
X8869329Y2657373D01*
X8878853Y2676421D01*
X8878853Y2685944D01*
X8869329Y2704992D01*
X8850282Y2714516D01*
X8821710Y2714516D01*
X8802663Y2724040D01*
X8793139Y2743087D01*
X8793139Y2752611D01*
X8802663Y2771659D01*
X8821710Y2781183D01*
X8850282Y2781183D01*
X8869329Y2771659D01*
X8945520Y2571659D02*
X8955043Y2581183D01*
X8974091Y2609754D01*
X8983615Y2628802D01*
X8993139Y2657373D01*
X9002663Y2704992D01*
X9002663Y2743087D01*
X8993139Y2790706D01*
X8983615Y2819278D01*
X8974091Y2838325D01*
X8955043Y2866897D01*
X8945520Y2876421D01*
X9307424Y2571659D02*
X9297901Y2581183D01*
X9278853Y2609754D01*
X9269329Y2628802D01*
X9259805Y2657373D01*
X9250282Y2704992D01*
X9250282Y2743087D01*
X9259805Y2790706D01*
X9269329Y2819278D01*
X9278853Y2838325D01*
X9297901Y2866897D01*
X9307424Y2876421D01*
X9383615Y2781183D02*
X9383615Y2647849D01*
X9383615Y2762135D02*
X9393139Y2771659D01*
X9412186Y2781183D01*
X9440758Y2781183D01*
X9459805Y2771659D01*
X9469329Y2752611D01*
X9469329Y2647849D01*
X9593139Y2647849D02*
X9574091Y2657373D01*
X9564567Y2666897D01*
X9555043Y2685944D01*
X9555043Y2743087D01*
X9564567Y2762135D01*
X9574091Y2771659D01*
X9593139Y2781183D01*
X9621710Y2781183D01*
X9640758Y2771659D01*
X9650282Y2762135D01*
X9659805Y2743087D01*
X9659805Y2685944D01*
X9650282Y2666897D01*
X9640758Y2657373D01*
X9621710Y2647849D01*
X9593139Y2647849D01*
X9716948Y2781183D02*
X9793139Y2781183D01*
X9745520Y2847849D02*
X9745520Y2676421D01*
X9755043Y2657373D01*
X9774091Y2647849D01*
X9793139Y2647849D01*
X10012186Y2781183D02*
X10012186Y2581183D01*
X10012186Y2771659D02*
X10031234Y2781183D01*
X10069329Y2781183D01*
X10088377Y2771659D01*
X10097901Y2762135D01*
X10107424Y2743087D01*
X10107424Y2685944D01*
X10097901Y2666897D01*
X10088377Y2657373D01*
X10069329Y2647849D01*
X10031234Y2647849D01*
X10012186Y2657373D01*
X10221710Y2647849D02*
X10202663Y2657373D01*
X10193139Y2676421D01*
X10193139Y2847849D01*
X10383615Y2647849D02*
X10383615Y2752611D01*
X10374091Y2771659D01*
X10355043Y2781183D01*
X10316948Y2781183D01*
X10297901Y2771659D01*
X10383615Y2657373D02*
X10364567Y2647849D01*
X10316948Y2647849D01*
X10297901Y2657373D01*
X10288377Y2676421D01*
X10288377Y2695468D01*
X10297901Y2714516D01*
X10316948Y2724040D01*
X10364567Y2724040D01*
X10383615Y2733563D01*
X10450282Y2781183D02*
X10526472Y2781183D01*
X10478853Y2847849D02*
X10478853Y2676421D01*
X10488377Y2657373D01*
X10507424Y2647849D01*
X10526472Y2647849D01*
X10669329Y2657373D02*
X10650282Y2647849D01*
X10612186Y2647849D01*
X10593139Y2657373D01*
X10583615Y2676421D01*
X10583615Y2752611D01*
X10593139Y2771659D01*
X10612186Y2781183D01*
X10650282Y2781183D01*
X10669329Y2771659D01*
X10678853Y2752611D01*
X10678853Y2733563D01*
X10583615Y2714516D01*
X10850282Y2647849D02*
X10850282Y2847849D01*
X10850282Y2657373D02*
X10831234Y2647849D01*
X10793139Y2647849D01*
X10774091Y2657373D01*
X10764567Y2666897D01*
X10755043Y2685944D01*
X10755043Y2743087D01*
X10764567Y2762135D01*
X10774091Y2771659D01*
X10793139Y2781183D01*
X10831234Y2781183D01*
X10850282Y2771659D01*
X10926472Y2571659D02*
X10935996Y2581183D01*
X10955043Y2609754D01*
X10964567Y2628802D01*
X10974091Y2657373D01*
X10983615Y2704992D01*
X10983615Y2743087D01*
X10974091Y2790706D01*
X10964567Y2819278D01*
X10955043Y2838325D01*
X10935996Y2866897D01*
X10926472Y2876421D01*
D13*
X4173615Y2474325D02*
G75*
G03*
X4173615Y2474325I-85090J0D01*
G01*
D11*
X4535996Y2383849D02*
X4421710Y2383849D01*
X4478853Y2383849D02*
X4478853Y2583849D01*
X4459805Y2555278D01*
X4440758Y2536230D01*
X4421710Y2526706D01*
X4621710Y2402897D02*
X4631234Y2393373D01*
X4621710Y2383849D01*
X4612186Y2393373D01*
X4621710Y2402897D01*
X4621710Y2383849D01*
X4697901Y2583849D02*
X4831234Y2583849D01*
X4745520Y2383849D01*
X4945520Y2583849D02*
X4964567Y2583849D01*
X4983615Y2574325D01*
X4993139Y2564802D01*
X5002663Y2545754D01*
X5012186Y2507659D01*
X5012186Y2460040D01*
X5002663Y2421944D01*
X4993139Y2402897D01*
X4983615Y2393373D01*
X4964567Y2383849D01*
X4945520Y2383849D01*
X4926472Y2393373D01*
X4916948Y2402897D01*
X4907424Y2421944D01*
X4897901Y2460040D01*
X4897901Y2507659D01*
X4907424Y2545754D01*
X4916948Y2564802D01*
X4926472Y2574325D01*
X4945520Y2583849D01*
X5088377Y2564802D02*
X5097901Y2574325D01*
X5116948Y2583849D01*
X5164567Y2583849D01*
X5183615Y2574325D01*
X5193139Y2564802D01*
X5202663Y2545754D01*
X5202663Y2526706D01*
X5193139Y2498135D01*
X5078853Y2383849D01*
X5202663Y2383849D01*
X5288377Y2383849D02*
X5288377Y2517183D01*
X5288377Y2498135D02*
X5297901Y2507659D01*
X5316948Y2517183D01*
X5345520Y2517183D01*
X5364567Y2507659D01*
X5374091Y2488611D01*
X5374091Y2383849D01*
X5374091Y2488611D02*
X5383615Y2507659D01*
X5402663Y2517183D01*
X5431234Y2517183D01*
X5450282Y2507659D01*
X5459805Y2488611D01*
X5459805Y2383849D01*
X5555043Y2383849D02*
X5555043Y2517183D01*
X5555043Y2498135D02*
X5564567Y2507659D01*
X5583615Y2517183D01*
X5612186Y2517183D01*
X5631234Y2507659D01*
X5640758Y2488611D01*
X5640758Y2383849D01*
X5640758Y2488611D02*
X5650281Y2507659D01*
X5669329Y2517183D01*
X5697901Y2517183D01*
X5716948Y2507659D01*
X5726472Y2488611D01*
X5726472Y2383849D01*
X6116948Y2593373D02*
X5945520Y2336230D01*
X6374091Y2583849D02*
X6393139Y2583849D01*
X6412186Y2574325D01*
X6421710Y2564802D01*
X6431234Y2545754D01*
X6440758Y2507659D01*
X6440758Y2460040D01*
X6431234Y2421944D01*
X6421710Y2402897D01*
X6412186Y2393373D01*
X6393139Y2383849D01*
X6374091Y2383849D01*
X6355043Y2393373D01*
X6345520Y2402897D01*
X6335996Y2421944D01*
X6326472Y2460040D01*
X6326472Y2507659D01*
X6335996Y2545754D01*
X6345520Y2564802D01*
X6355043Y2574325D01*
X6374091Y2583849D01*
X6526472Y2402897D02*
X6535996Y2393373D01*
X6526472Y2383849D01*
X6516948Y2393373D01*
X6526472Y2402897D01*
X6526472Y2383849D01*
X6659805Y2583849D02*
X6678853Y2583849D01*
X6697901Y2574325D01*
X6707424Y2564802D01*
X6716948Y2545754D01*
X6726472Y2507659D01*
X6726472Y2460040D01*
X6716948Y2421944D01*
X6707424Y2402897D01*
X6697901Y2393373D01*
X6678853Y2383849D01*
X6659805Y2383849D01*
X6640758Y2393373D01*
X6631234Y2402897D01*
X6621710Y2421944D01*
X6612186Y2460040D01*
X6612186Y2507659D01*
X6621710Y2545754D01*
X6631234Y2564802D01*
X6640758Y2574325D01*
X6659805Y2583849D01*
X6897901Y2583849D02*
X6859805Y2583849D01*
X6840758Y2574325D01*
X6831234Y2564802D01*
X6812186Y2536230D01*
X6802662Y2498135D01*
X6802662Y2421944D01*
X6812186Y2402897D01*
X6821710Y2393373D01*
X6840758Y2383849D01*
X6878853Y2383849D01*
X6897901Y2393373D01*
X6907424Y2402897D01*
X6916948Y2421944D01*
X6916948Y2469563D01*
X6907424Y2488611D01*
X6897901Y2498135D01*
X6878853Y2507659D01*
X6840758Y2507659D01*
X6821710Y2498135D01*
X6812186Y2488611D01*
X6802662Y2469563D01*
X6983615Y2583849D02*
X7116948Y2583849D01*
X7031234Y2383849D01*
X7231234Y2583849D02*
X7250281Y2583849D01*
X7269329Y2574325D01*
X7278853Y2564802D01*
X7288377Y2545754D01*
X7297901Y2507659D01*
X7297901Y2460040D01*
X7288377Y2421944D01*
X7278853Y2402897D01*
X7269329Y2393373D01*
X7250281Y2383849D01*
X7231234Y2383849D01*
X7212186Y2393373D01*
X7202662Y2402897D01*
X7193139Y2421944D01*
X7183615Y2460040D01*
X7183615Y2507659D01*
X7193139Y2545754D01*
X7202662Y2564802D01*
X7212186Y2574325D01*
X7231234Y2583849D01*
X7374091Y2583849D02*
X7374091Y2545754D01*
X7450281Y2583849D02*
X7450281Y2545754D01*
X7745520Y2307659D02*
X7735996Y2317183D01*
X7716948Y2345754D01*
X7707424Y2364802D01*
X7697901Y2393373D01*
X7688377Y2440992D01*
X7688377Y2479087D01*
X7697901Y2526706D01*
X7707424Y2555278D01*
X7716948Y2574325D01*
X7735996Y2602897D01*
X7745520Y2612421D01*
X7802662Y2583849D02*
X7926472Y2583849D01*
X7859805Y2507659D01*
X7888377Y2507659D01*
X7907424Y2498135D01*
X7916948Y2488611D01*
X7926472Y2469563D01*
X7926472Y2421944D01*
X7916948Y2402897D01*
X7907424Y2393373D01*
X7888377Y2383849D01*
X7831234Y2383849D01*
X7812186Y2393373D01*
X7802662Y2402897D01*
X8050281Y2583849D02*
X8069329Y2583849D01*
X8088377Y2574325D01*
X8097901Y2564802D01*
X8107424Y2545754D01*
X8116948Y2507659D01*
X8116948Y2460040D01*
X8107424Y2421944D01*
X8097901Y2402897D01*
X8088377Y2393373D01*
X8069329Y2383849D01*
X8050281Y2383849D01*
X8031234Y2393373D01*
X8021710Y2402897D01*
X8012186Y2421944D01*
X8002662Y2460040D01*
X8002662Y2507659D01*
X8012186Y2545754D01*
X8021710Y2564802D01*
X8031234Y2574325D01*
X8050281Y2583849D01*
X8355043Y2383849D02*
X8355043Y2583849D01*
X8440758Y2383849D02*
X8440758Y2488611D01*
X8431234Y2507659D01*
X8412186Y2517183D01*
X8383615Y2517183D01*
X8364567Y2507659D01*
X8355043Y2498135D01*
X8564567Y2383849D02*
X8545520Y2393373D01*
X8535996Y2402897D01*
X8526472Y2421944D01*
X8526472Y2479087D01*
X8535996Y2498135D01*
X8545520Y2507659D01*
X8564567Y2517183D01*
X8593139Y2517183D01*
X8612186Y2507659D01*
X8621710Y2498135D01*
X8631234Y2479087D01*
X8631234Y2421944D01*
X8621710Y2402897D01*
X8612186Y2393373D01*
X8593139Y2383849D01*
X8564567Y2383849D01*
X8745520Y2383849D02*
X8726472Y2393373D01*
X8716948Y2412421D01*
X8716948Y2583849D01*
X8897901Y2393373D02*
X8878853Y2383849D01*
X8840758Y2383849D01*
X8821710Y2393373D01*
X8812186Y2412421D01*
X8812186Y2488611D01*
X8821710Y2507659D01*
X8840758Y2517183D01*
X8878853Y2517183D01*
X8897901Y2507659D01*
X8907424Y2488611D01*
X8907424Y2469563D01*
X8812186Y2450516D01*
X8983615Y2393373D02*
X9002663Y2383849D01*
X9040758Y2383849D01*
X9059805Y2393373D01*
X9069329Y2412421D01*
X9069329Y2421944D01*
X9059805Y2440992D01*
X9040758Y2450516D01*
X9012186Y2450516D01*
X8993139Y2460040D01*
X8983615Y2479087D01*
X8983615Y2488611D01*
X8993139Y2507659D01*
X9012186Y2517183D01*
X9040758Y2517183D01*
X9059805Y2507659D01*
X9135996Y2307659D02*
X9145520Y2317183D01*
X9164567Y2345754D01*
X9174091Y2364802D01*
X9183615Y2393373D01*
X9193139Y2440992D01*
X9193139Y2479087D01*
X9183615Y2526706D01*
X9174091Y2555278D01*
X9164567Y2574325D01*
X9145520Y2602897D01*
X9135996Y2612421D01*
X9497901Y2307659D02*
X9488377Y2317183D01*
X9469329Y2345754D01*
X9459805Y2364802D01*
X9450282Y2393373D01*
X9440758Y2440992D01*
X9440758Y2479087D01*
X9450282Y2526706D01*
X9459805Y2555278D01*
X9469329Y2574325D01*
X9488377Y2602897D01*
X9497901Y2612421D01*
X9574091Y2517183D02*
X9574091Y2383849D01*
X9574091Y2498135D02*
X9583615Y2507659D01*
X9602663Y2517183D01*
X9631234Y2517183D01*
X9650282Y2507659D01*
X9659805Y2488611D01*
X9659805Y2383849D01*
X9783615Y2383849D02*
X9764567Y2393373D01*
X9755043Y2402897D01*
X9745520Y2421944D01*
X9745520Y2479087D01*
X9755043Y2498135D01*
X9764567Y2507659D01*
X9783615Y2517183D01*
X9812186Y2517183D01*
X9831234Y2507659D01*
X9840758Y2498135D01*
X9850282Y2479087D01*
X9850282Y2421944D01*
X9840758Y2402897D01*
X9831234Y2393373D01*
X9812186Y2383849D01*
X9783615Y2383849D01*
X9907424Y2517183D02*
X9983615Y2517183D01*
X9935996Y2583849D02*
X9935996Y2412421D01*
X9945520Y2393373D01*
X9964567Y2383849D01*
X9983615Y2383849D01*
X10202663Y2517183D02*
X10202663Y2317183D01*
X10202663Y2507659D02*
X10221710Y2517183D01*
X10259805Y2517183D01*
X10278853Y2507659D01*
X10288377Y2498135D01*
X10297901Y2479087D01*
X10297901Y2421944D01*
X10288377Y2402897D01*
X10278853Y2393373D01*
X10259805Y2383849D01*
X10221710Y2383849D01*
X10202663Y2393373D01*
X10412186Y2383849D02*
X10393139Y2393373D01*
X10383615Y2412421D01*
X10383615Y2583849D01*
X10574091Y2383849D02*
X10574091Y2488611D01*
X10564567Y2507659D01*
X10545520Y2517183D01*
X10507424Y2517183D01*
X10488377Y2507659D01*
X10574091Y2393373D02*
X10555043Y2383849D01*
X10507424Y2383849D01*
X10488377Y2393373D01*
X10478853Y2412421D01*
X10478853Y2431468D01*
X10488377Y2450516D01*
X10507424Y2460040D01*
X10555043Y2460040D01*
X10574091Y2469563D01*
X10640758Y2517183D02*
X10716948Y2517183D01*
X10669329Y2583849D02*
X10669329Y2412421D01*
X10678853Y2393373D01*
X10697901Y2383849D01*
X10716948Y2383849D01*
X10859805Y2393373D02*
X10840758Y2383849D01*
X10802663Y2383849D01*
X10783615Y2393373D01*
X10774091Y2412421D01*
X10774091Y2488611D01*
X10783615Y2507659D01*
X10802663Y2517183D01*
X10840758Y2517183D01*
X10859805Y2507659D01*
X10869329Y2488611D01*
X10869329Y2469563D01*
X10774091Y2450516D01*
X11040758Y2383849D02*
X11040758Y2583849D01*
X11040758Y2393373D02*
X11021710Y2383849D01*
X10983615Y2383849D01*
X10964567Y2393373D01*
X10955043Y2402897D01*
X10945520Y2421944D01*
X10945520Y2479087D01*
X10955043Y2498135D01*
X10964567Y2507659D01*
X10983615Y2517183D01*
X11021710Y2517183D01*
X11040758Y2507659D01*
X11116948Y2307659D02*
X11126472Y2317183D01*
X11145520Y2345754D01*
X11155043Y2364802D01*
X11164567Y2393373D01*
X11174091Y2440992D01*
X11174091Y2479087D01*
X11164567Y2526706D01*
X11155043Y2555278D01*
X11145520Y2574325D01*
X11126472Y2602897D01*
X11116948Y2612421D01*
X4073615Y2284145D02*
X4073615Y2084145D01*
X3973615Y2184145D02*
X4173615Y2184145D01*
X4412186Y2293669D02*
X4535996Y2293669D01*
X4469329Y2217479D01*
X4497901Y2217479D01*
X4516948Y2207955D01*
X4526472Y2198431D01*
X4535996Y2179383D01*
X4535996Y2131764D01*
X4526472Y2112717D01*
X4516948Y2103193D01*
X4497901Y2093669D01*
X4440758Y2093669D01*
X4421710Y2103193D01*
X4412186Y2112717D01*
X4621710Y2112717D02*
X4631234Y2103193D01*
X4621710Y2093669D01*
X4612186Y2103193D01*
X4621710Y2112717D01*
X4621710Y2093669D01*
X4755043Y2293669D02*
X4774091Y2293669D01*
X4793139Y2284145D01*
X4802663Y2274622D01*
X4812186Y2255574D01*
X4821710Y2217479D01*
X4821710Y2169860D01*
X4812186Y2131764D01*
X4802663Y2112717D01*
X4793139Y2103193D01*
X4774091Y2093669D01*
X4755043Y2093669D01*
X4735996Y2103193D01*
X4726472Y2112717D01*
X4716948Y2131764D01*
X4707424Y2169860D01*
X4707424Y2217479D01*
X4716948Y2255574D01*
X4726472Y2274622D01*
X4735996Y2284145D01*
X4755043Y2293669D01*
X4945520Y2293669D02*
X4964567Y2293669D01*
X4983615Y2284145D01*
X4993139Y2274622D01*
X5002663Y2255574D01*
X5012186Y2217479D01*
X5012186Y2169860D01*
X5002663Y2131764D01*
X4993139Y2112717D01*
X4983615Y2103193D01*
X4964567Y2093669D01*
X4945520Y2093669D01*
X4926472Y2103193D01*
X4916948Y2112717D01*
X4907424Y2131764D01*
X4897901Y2169860D01*
X4897901Y2217479D01*
X4907424Y2255574D01*
X4916948Y2274622D01*
X4926472Y2284145D01*
X4945520Y2293669D01*
X5135996Y2293669D02*
X5155043Y2293669D01*
X5174091Y2284145D01*
X5183615Y2274622D01*
X5193139Y2255574D01*
X5202663Y2217479D01*
X5202663Y2169860D01*
X5193139Y2131764D01*
X5183615Y2112717D01*
X5174091Y2103193D01*
X5155043Y2093669D01*
X5135996Y2093669D01*
X5116948Y2103193D01*
X5107424Y2112717D01*
X5097901Y2131764D01*
X5088377Y2169860D01*
X5088377Y2217479D01*
X5097901Y2255574D01*
X5107424Y2274622D01*
X5116948Y2284145D01*
X5135996Y2293669D01*
X5288377Y2093669D02*
X5288377Y2227003D01*
X5288377Y2207955D02*
X5297901Y2217479D01*
X5316948Y2227003D01*
X5345520Y2227003D01*
X5364567Y2217479D01*
X5374091Y2198431D01*
X5374091Y2093669D01*
X5374091Y2198431D02*
X5383615Y2217479D01*
X5402663Y2227003D01*
X5431234Y2227003D01*
X5450282Y2217479D01*
X5459805Y2198431D01*
X5459805Y2093669D01*
X5555043Y2093669D02*
X5555043Y2227003D01*
X5555043Y2207955D02*
X5564567Y2217479D01*
X5583615Y2227003D01*
X5612186Y2227003D01*
X5631234Y2217479D01*
X5640758Y2198431D01*
X5640758Y2093669D01*
X5640758Y2198431D02*
X5650281Y2217479D01*
X5669329Y2227003D01*
X5697901Y2227003D01*
X5716948Y2217479D01*
X5726472Y2198431D01*
X5726472Y2093669D01*
X6116948Y2303193D02*
X5945520Y2046050D01*
X6374091Y2293669D02*
X6393139Y2293669D01*
X6412186Y2284145D01*
X6421710Y2274622D01*
X6431234Y2255574D01*
X6440758Y2217479D01*
X6440758Y2169860D01*
X6431234Y2131764D01*
X6421710Y2112717D01*
X6412186Y2103193D01*
X6393139Y2093669D01*
X6374091Y2093669D01*
X6355043Y2103193D01*
X6345520Y2112717D01*
X6335996Y2131764D01*
X6326472Y2169860D01*
X6326472Y2217479D01*
X6335996Y2255574D01*
X6345520Y2274622D01*
X6355043Y2284145D01*
X6374091Y2293669D01*
X6526472Y2112717D02*
X6535996Y2103193D01*
X6526472Y2093669D01*
X6516948Y2103193D01*
X6526472Y2112717D01*
X6526472Y2093669D01*
X6726472Y2093669D02*
X6612186Y2093669D01*
X6669329Y2093669D02*
X6669329Y2293669D01*
X6650281Y2265098D01*
X6631234Y2246050D01*
X6612186Y2236526D01*
X6916948Y2093669D02*
X6802662Y2093669D01*
X6859805Y2093669D02*
X6859805Y2293669D01*
X6840758Y2265098D01*
X6821710Y2246050D01*
X6802662Y2236526D01*
X7031234Y2207955D02*
X7012186Y2217479D01*
X7002662Y2227003D01*
X6993139Y2246050D01*
X6993139Y2255574D01*
X7002662Y2274622D01*
X7012186Y2284145D01*
X7031234Y2293669D01*
X7069329Y2293669D01*
X7088377Y2284145D01*
X7097901Y2274622D01*
X7107424Y2255574D01*
X7107424Y2246050D01*
X7097901Y2227003D01*
X7088377Y2217479D01*
X7069329Y2207955D01*
X7031234Y2207955D01*
X7012186Y2198431D01*
X7002662Y2188907D01*
X6993139Y2169860D01*
X6993139Y2131764D01*
X7002662Y2112717D01*
X7012186Y2103193D01*
X7031234Y2093669D01*
X7069329Y2093669D01*
X7088377Y2103193D01*
X7097901Y2112717D01*
X7107424Y2131764D01*
X7107424Y2169860D01*
X7097901Y2188907D01*
X7088377Y2198431D01*
X7069329Y2207955D01*
X7297901Y2093669D02*
X7183615Y2093669D01*
X7240758Y2093669D02*
X7240758Y2293669D01*
X7221710Y2265098D01*
X7202662Y2246050D01*
X7183615Y2236526D01*
X7374091Y2293669D02*
X7374091Y2255574D01*
X7450281Y2293669D02*
X7450281Y2255574D01*
X7745520Y2017479D02*
X7735996Y2027002D01*
X7716948Y2055574D01*
X7707424Y2074621D01*
X7697901Y2103193D01*
X7688377Y2150812D01*
X7688377Y2188907D01*
X7697901Y2236526D01*
X7707424Y2265098D01*
X7716948Y2284145D01*
X7735996Y2312717D01*
X7745520Y2322241D01*
X7907424Y2227003D02*
X7907424Y2093669D01*
X7859805Y2303193D02*
X7812186Y2160336D01*
X7935996Y2160336D01*
X8107424Y2293669D02*
X8012186Y2293669D01*
X8002662Y2198431D01*
X8012186Y2207955D01*
X8031234Y2217479D01*
X8078853Y2217479D01*
X8097901Y2207955D01*
X8107424Y2198431D01*
X8116948Y2179383D01*
X8116948Y2131764D01*
X8107424Y2112717D01*
X8097901Y2103193D01*
X8078853Y2093669D01*
X8031234Y2093669D01*
X8012186Y2103193D01*
X8002662Y2112717D01*
X8355043Y2093669D02*
X8355043Y2293669D01*
X8440758Y2093669D02*
X8440758Y2198431D01*
X8431234Y2217479D01*
X8412186Y2227003D01*
X8383615Y2227003D01*
X8364567Y2217479D01*
X8355043Y2207955D01*
X8564567Y2093669D02*
X8545520Y2103193D01*
X8535996Y2112717D01*
X8526472Y2131764D01*
X8526472Y2188907D01*
X8535996Y2207955D01*
X8545520Y2217479D01*
X8564567Y2227003D01*
X8593139Y2227003D01*
X8612186Y2217479D01*
X8621710Y2207955D01*
X8631234Y2188907D01*
X8631234Y2131764D01*
X8621710Y2112717D01*
X8612186Y2103193D01*
X8593139Y2093669D01*
X8564567Y2093669D01*
X8745520Y2093669D02*
X8726472Y2103193D01*
X8716948Y2122241D01*
X8716948Y2293669D01*
X8897901Y2103193D02*
X8878853Y2093669D01*
X8840758Y2093669D01*
X8821710Y2103193D01*
X8812186Y2122241D01*
X8812186Y2198431D01*
X8821710Y2217479D01*
X8840758Y2227003D01*
X8878853Y2227003D01*
X8897901Y2217479D01*
X8907424Y2198431D01*
X8907424Y2179383D01*
X8812186Y2160336D01*
X8983615Y2103193D02*
X9002663Y2093669D01*
X9040758Y2093669D01*
X9059805Y2103193D01*
X9069329Y2122241D01*
X9069329Y2131764D01*
X9059805Y2150812D01*
X9040758Y2160336D01*
X9012186Y2160336D01*
X8993139Y2169860D01*
X8983615Y2188907D01*
X8983615Y2198431D01*
X8993139Y2217479D01*
X9012186Y2227003D01*
X9040758Y2227003D01*
X9059805Y2217479D01*
X9135996Y2017479D02*
X9145520Y2027002D01*
X9164567Y2055574D01*
X9174091Y2074621D01*
X9183615Y2103193D01*
X9193139Y2150812D01*
X9193139Y2188907D01*
X9183615Y2236526D01*
X9174091Y2265098D01*
X9164567Y2284145D01*
X9145520Y2312717D01*
X9135996Y2322241D01*
X9497901Y2017479D02*
X9488377Y2027002D01*
X9469329Y2055574D01*
X9459805Y2074621D01*
X9450282Y2103193D01*
X9440758Y2150812D01*
X9440758Y2188907D01*
X9450282Y2236526D01*
X9459805Y2265098D01*
X9469329Y2284145D01*
X9488377Y2312717D01*
X9497901Y2322241D01*
X9574091Y2227003D02*
X9574091Y2093669D01*
X9574091Y2207955D02*
X9583615Y2217479D01*
X9602663Y2227003D01*
X9631234Y2227003D01*
X9650282Y2217479D01*
X9659805Y2198431D01*
X9659805Y2093669D01*
X9783615Y2093669D02*
X9764567Y2103193D01*
X9755043Y2112717D01*
X9745520Y2131764D01*
X9745520Y2188907D01*
X9755043Y2207955D01*
X9764567Y2217479D01*
X9783615Y2227003D01*
X9812186Y2227003D01*
X9831234Y2217479D01*
X9840758Y2207955D01*
X9850282Y2188907D01*
X9850282Y2131764D01*
X9840758Y2112717D01*
X9831234Y2103193D01*
X9812186Y2093669D01*
X9783615Y2093669D01*
X9907424Y2227003D02*
X9983615Y2227003D01*
X9935996Y2293669D02*
X9935996Y2122241D01*
X9945520Y2103193D01*
X9964567Y2093669D01*
X9983615Y2093669D01*
X10202663Y2227003D02*
X10202663Y2027002D01*
X10202663Y2217479D02*
X10221710Y2227003D01*
X10259805Y2227003D01*
X10278853Y2217479D01*
X10288377Y2207955D01*
X10297901Y2188907D01*
X10297901Y2131764D01*
X10288377Y2112717D01*
X10278853Y2103193D01*
X10259805Y2093669D01*
X10221710Y2093669D01*
X10202663Y2103193D01*
X10412186Y2093669D02*
X10393139Y2103193D01*
X10383615Y2122241D01*
X10383615Y2293669D01*
X10574091Y2093669D02*
X10574091Y2198431D01*
X10564567Y2217479D01*
X10545520Y2227003D01*
X10507424Y2227003D01*
X10488377Y2217479D01*
X10574091Y2103193D02*
X10555043Y2093669D01*
X10507424Y2093669D01*
X10488377Y2103193D01*
X10478853Y2122241D01*
X10478853Y2141288D01*
X10488377Y2160336D01*
X10507424Y2169860D01*
X10555043Y2169860D01*
X10574091Y2179383D01*
X10640758Y2227003D02*
X10716948Y2227003D01*
X10669329Y2293669D02*
X10669329Y2122241D01*
X10678853Y2103193D01*
X10697901Y2093669D01*
X10716948Y2093669D01*
X10859805Y2103193D02*
X10840758Y2093669D01*
X10802663Y2093669D01*
X10783615Y2103193D01*
X10774091Y2122241D01*
X10774091Y2198431D01*
X10783615Y2217479D01*
X10802663Y2227003D01*
X10840758Y2227003D01*
X10859805Y2217479D01*
X10869329Y2198431D01*
X10869329Y2179383D01*
X10774091Y2160336D01*
X11040758Y2093669D02*
X11040758Y2293669D01*
X11040758Y2103193D02*
X11021710Y2093669D01*
X10983615Y2093669D01*
X10964567Y2103193D01*
X10955043Y2112717D01*
X10945520Y2131764D01*
X10945520Y2188907D01*
X10955043Y2207955D01*
X10964567Y2217479D01*
X10983615Y2227003D01*
X11021710Y2227003D01*
X11040758Y2217479D01*
X11116948Y2017479D02*
X11126472Y2027002D01*
X11145520Y2055574D01*
X11155043Y2074621D01*
X11164567Y2103193D01*
X11174091Y2150812D01*
X11174091Y2188907D01*
X11164567Y2236526D01*
X11155043Y2265098D01*
X11145520Y2284145D01*
X11126472Y2312717D01*
X11116948Y2322241D01*
X4144326Y1793434D02*
X4144326Y1934857D01*
X4002903Y1934857D01*
X4002903Y1793434D01*
X4144326Y1793434D01*
X4412186Y1973669D02*
X4535996Y1973669D01*
X4469329Y1897479D01*
X4497901Y1897479D01*
X4516948Y1887955D01*
X4526472Y1878431D01*
X4535996Y1859383D01*
X4535996Y1811764D01*
X4526472Y1792717D01*
X4516948Y1783193D01*
X4497901Y1773669D01*
X4440758Y1773669D01*
X4421710Y1783193D01*
X4412186Y1792717D01*
X4621710Y1792717D02*
X4631234Y1783193D01*
X4621710Y1773669D01*
X4612186Y1783193D01*
X4621710Y1792717D01*
X4621710Y1773669D01*
X4802663Y1907002D02*
X4802663Y1773669D01*
X4755043Y1983193D02*
X4707424Y1840336D01*
X4831234Y1840336D01*
X4897901Y1954621D02*
X4907424Y1964145D01*
X4926472Y1973669D01*
X4974091Y1973669D01*
X4993139Y1964145D01*
X5002663Y1954621D01*
X5012186Y1935574D01*
X5012186Y1916526D01*
X5002663Y1887955D01*
X4888377Y1773669D01*
X5012186Y1773669D01*
X5107424Y1773669D02*
X5145520Y1773669D01*
X5164567Y1783193D01*
X5174091Y1792717D01*
X5193139Y1821288D01*
X5202663Y1859383D01*
X5202663Y1935574D01*
X5193139Y1954621D01*
X5183615Y1964145D01*
X5164567Y1973669D01*
X5126472Y1973669D01*
X5107424Y1964145D01*
X5097901Y1954621D01*
X5088377Y1935574D01*
X5088377Y1887955D01*
X5097901Y1868907D01*
X5107424Y1859383D01*
X5126472Y1849860D01*
X5164567Y1849860D01*
X5183615Y1859383D01*
X5193139Y1868907D01*
X5202663Y1887955D01*
X5288377Y1773669D02*
X5288377Y1907002D01*
X5288377Y1887955D02*
X5297901Y1897479D01*
X5316948Y1907002D01*
X5345520Y1907002D01*
X5364567Y1897479D01*
X5374091Y1878431D01*
X5374091Y1773669D01*
X5374091Y1878431D02*
X5383615Y1897479D01*
X5402663Y1907002D01*
X5431234Y1907002D01*
X5450282Y1897479D01*
X5459805Y1878431D01*
X5459805Y1773669D01*
X5555043Y1773669D02*
X5555043Y1907002D01*
X5555043Y1887955D02*
X5564567Y1897479D01*
X5583615Y1907002D01*
X5612186Y1907002D01*
X5631234Y1897479D01*
X5640758Y1878431D01*
X5640758Y1773669D01*
X5640758Y1878431D02*
X5650281Y1897479D01*
X5669329Y1907002D01*
X5697901Y1907002D01*
X5716948Y1897479D01*
X5726472Y1878431D01*
X5726472Y1773669D01*
X6116948Y1983193D02*
X5945520Y1726050D01*
X6374091Y1973669D02*
X6393139Y1973669D01*
X6412186Y1964145D01*
X6421710Y1954621D01*
X6431234Y1935574D01*
X6440758Y1897479D01*
X6440758Y1849860D01*
X6431234Y1811764D01*
X6421710Y1792717D01*
X6412186Y1783193D01*
X6393139Y1773669D01*
X6374091Y1773669D01*
X6355043Y1783193D01*
X6345520Y1792717D01*
X6335996Y1811764D01*
X6326472Y1849860D01*
X6326472Y1897479D01*
X6335996Y1935574D01*
X6345520Y1954621D01*
X6355043Y1964145D01*
X6374091Y1973669D01*
X6526472Y1792717D02*
X6535996Y1783193D01*
X6526472Y1773669D01*
X6516948Y1783193D01*
X6526472Y1792717D01*
X6526472Y1773669D01*
X6726472Y1773669D02*
X6612186Y1773669D01*
X6669329Y1773669D02*
X6669329Y1973669D01*
X6650281Y1945098D01*
X6631234Y1926050D01*
X6612186Y1916526D01*
X6793139Y1973669D02*
X6916948Y1973669D01*
X6850281Y1897479D01*
X6878853Y1897479D01*
X6897901Y1887955D01*
X6907424Y1878431D01*
X6916948Y1859383D01*
X6916948Y1811764D01*
X6907424Y1792717D01*
X6897901Y1783193D01*
X6878853Y1773669D01*
X6821710Y1773669D01*
X6802662Y1783193D01*
X6793139Y1792717D01*
X7097901Y1973669D02*
X7002662Y1973669D01*
X6993139Y1878431D01*
X7002662Y1887955D01*
X7021710Y1897479D01*
X7069329Y1897479D01*
X7088377Y1887955D01*
X7097901Y1878431D01*
X7107424Y1859383D01*
X7107424Y1811764D01*
X7097901Y1792717D01*
X7088377Y1783193D01*
X7069329Y1773669D01*
X7021710Y1773669D01*
X7002662Y1783193D01*
X6993139Y1792717D01*
X7231234Y1973669D02*
X7250281Y1973669D01*
X7269329Y1964145D01*
X7278853Y1954621D01*
X7288377Y1935574D01*
X7297901Y1897479D01*
X7297901Y1849860D01*
X7288377Y1811764D01*
X7278853Y1792717D01*
X7269329Y1783193D01*
X7250281Y1773669D01*
X7231234Y1773669D01*
X7212186Y1783193D01*
X7202662Y1792717D01*
X7193139Y1811764D01*
X7183615Y1849860D01*
X7183615Y1897479D01*
X7193139Y1935574D01*
X7202662Y1954621D01*
X7212186Y1964145D01*
X7231234Y1973669D01*
X7374091Y1973669D02*
X7374091Y1935574D01*
X7450281Y1973669D02*
X7450281Y1935574D01*
X7745520Y1697479D02*
X7735996Y1707002D01*
X7716948Y1735574D01*
X7707424Y1754621D01*
X7697901Y1783193D01*
X7688377Y1830812D01*
X7688377Y1868907D01*
X7697901Y1916526D01*
X7707424Y1945098D01*
X7716948Y1964145D01*
X7735996Y1992717D01*
X7745520Y2002241D01*
X7926472Y1773669D02*
X7812186Y1773669D01*
X7869329Y1773669D02*
X7869329Y1973669D01*
X7850281Y1945098D01*
X7831234Y1926050D01*
X7812186Y1916526D01*
X8107424Y1973669D02*
X8012186Y1973669D01*
X8002662Y1878431D01*
X8012186Y1887955D01*
X8031234Y1897479D01*
X8078853Y1897479D01*
X8097901Y1887955D01*
X8107424Y1878431D01*
X8116948Y1859383D01*
X8116948Y1811764D01*
X8107424Y1792717D01*
X8097901Y1783193D01*
X8078853Y1773669D01*
X8031234Y1773669D01*
X8012186Y1783193D01*
X8002662Y1792717D01*
X8355043Y1773669D02*
X8355043Y1973669D01*
X8440758Y1773669D02*
X8440758Y1878431D01*
X8431234Y1897479D01*
X8412186Y1907002D01*
X8383615Y1907002D01*
X8364567Y1897479D01*
X8355043Y1887955D01*
X8564567Y1773669D02*
X8545520Y1783193D01*
X8535996Y1792717D01*
X8526472Y1811764D01*
X8526472Y1868907D01*
X8535996Y1887955D01*
X8545520Y1897479D01*
X8564567Y1907002D01*
X8593139Y1907002D01*
X8612186Y1897479D01*
X8621710Y1887955D01*
X8631234Y1868907D01*
X8631234Y1811764D01*
X8621710Y1792717D01*
X8612186Y1783193D01*
X8593139Y1773669D01*
X8564567Y1773669D01*
X8745520Y1773669D02*
X8726472Y1783193D01*
X8716948Y1802241D01*
X8716948Y1973669D01*
X8897901Y1783193D02*
X8878853Y1773669D01*
X8840758Y1773669D01*
X8821710Y1783193D01*
X8812186Y1802241D01*
X8812186Y1878431D01*
X8821710Y1897479D01*
X8840758Y1907002D01*
X8878853Y1907002D01*
X8897901Y1897479D01*
X8907424Y1878431D01*
X8907424Y1859383D01*
X8812186Y1840336D01*
X8983615Y1783193D02*
X9002663Y1773669D01*
X9040758Y1773669D01*
X9059805Y1783193D01*
X9069329Y1802241D01*
X9069329Y1811764D01*
X9059805Y1830812D01*
X9040758Y1840336D01*
X9012186Y1840336D01*
X8993139Y1849860D01*
X8983615Y1868907D01*
X8983615Y1878431D01*
X8993139Y1897479D01*
X9012186Y1907002D01*
X9040758Y1907002D01*
X9059805Y1897479D01*
X9135996Y1697479D02*
X9145520Y1707002D01*
X9164567Y1735574D01*
X9174091Y1754621D01*
X9183615Y1783193D01*
X9193139Y1830812D01*
X9193139Y1868907D01*
X9183615Y1916526D01*
X9174091Y1945098D01*
X9164567Y1964145D01*
X9145520Y1992717D01*
X9135996Y2002241D01*
X9497901Y1697479D02*
X9488377Y1707002D01*
X9469329Y1735574D01*
X9459805Y1754621D01*
X9450282Y1783193D01*
X9440758Y1830812D01*
X9440758Y1868907D01*
X9450282Y1916526D01*
X9459805Y1945098D01*
X9469329Y1964145D01*
X9488377Y1992717D01*
X9497901Y2002241D01*
X9574091Y1907002D02*
X9574091Y1773669D01*
X9574091Y1887955D02*
X9583615Y1897479D01*
X9602663Y1907002D01*
X9631234Y1907002D01*
X9650282Y1897479D01*
X9659805Y1878431D01*
X9659805Y1773669D01*
X9783615Y1773669D02*
X9764567Y1783193D01*
X9755043Y1792717D01*
X9745520Y1811764D01*
X9745520Y1868907D01*
X9755043Y1887955D01*
X9764567Y1897479D01*
X9783615Y1907002D01*
X9812186Y1907002D01*
X9831234Y1897479D01*
X9840758Y1887955D01*
X9850282Y1868907D01*
X9850282Y1811764D01*
X9840758Y1792717D01*
X9831234Y1783193D01*
X9812186Y1773669D01*
X9783615Y1773669D01*
X9907424Y1907002D02*
X9983615Y1907002D01*
X9935996Y1973669D02*
X9935996Y1802241D01*
X9945520Y1783193D01*
X9964567Y1773669D01*
X9983615Y1773669D01*
X10202663Y1907002D02*
X10202663Y1707002D01*
X10202663Y1897479D02*
X10221710Y1907002D01*
X10259805Y1907002D01*
X10278853Y1897479D01*
X10288377Y1887955D01*
X10297901Y1868907D01*
X10297901Y1811764D01*
X10288377Y1792717D01*
X10278853Y1783193D01*
X10259805Y1773669D01*
X10221710Y1773669D01*
X10202663Y1783193D01*
X10412186Y1773669D02*
X10393139Y1783193D01*
X10383615Y1802241D01*
X10383615Y1973669D01*
X10574091Y1773669D02*
X10574091Y1878431D01*
X10564567Y1897479D01*
X10545520Y1907002D01*
X10507424Y1907002D01*
X10488377Y1897479D01*
X10574091Y1783193D02*
X10555043Y1773669D01*
X10507424Y1773669D01*
X10488377Y1783193D01*
X10478853Y1802241D01*
X10478853Y1821288D01*
X10488377Y1840336D01*
X10507424Y1849860D01*
X10555043Y1849860D01*
X10574091Y1859383D01*
X10640758Y1907002D02*
X10716948Y1907002D01*
X10669329Y1973669D02*
X10669329Y1802241D01*
X10678853Y1783193D01*
X10697901Y1773669D01*
X10716948Y1773669D01*
X10859805Y1783193D02*
X10840758Y1773669D01*
X10802663Y1773669D01*
X10783615Y1783193D01*
X10774091Y1802241D01*
X10774091Y1878431D01*
X10783615Y1897479D01*
X10802663Y1907002D01*
X10840758Y1907002D01*
X10859805Y1897479D01*
X10869329Y1878431D01*
X10869329Y1859383D01*
X10774091Y1840336D01*
X11040758Y1773669D02*
X11040758Y1973669D01*
X11040758Y1783193D02*
X11021710Y1773669D01*
X10983615Y1773669D01*
X10964567Y1783193D01*
X10955043Y1792717D01*
X10945520Y1811764D01*
X10945520Y1868907D01*
X10955043Y1887955D01*
X10964567Y1897479D01*
X10983615Y1907002D01*
X11021710Y1907002D01*
X11040758Y1897479D01*
X11116948Y1697479D02*
X11126472Y1707002D01*
X11145520Y1735574D01*
X11155043Y1754621D01*
X11164567Y1783193D01*
X11174091Y1830812D01*
X11174091Y1868907D01*
X11164567Y1916526D01*
X11155043Y1945098D01*
X11145520Y1964145D01*
X11126472Y1992717D01*
X11116948Y2002241D01*
M02*
