M48
; DRILL file {KiCad (6.0.4)} date Thu May 26 21:53:48 2022
; FORMAT={-:-/ absolute / metric / decimal}
; #@! TF.CreationDate,2022-05-26T21:53:48+02:00
; #@! TF.GenerationSoftware,Kicad,Pcbnew,(6.0.4)
; #@! TF.FileFunction,Plated,1,2,PTH
FMAT,2
METRIC
; #@! TA.AperFunction,Plated,PTH,ViaDrill
T1C0.400
; #@! TA.AperFunction,Plated,PTH,ComponentDrill
T2C0.400
; #@! TA.AperFunction,Plated,PTH,ComponentDrill
T3C1.092
; #@! TA.AperFunction,Plated,PTH,ComponentDrill
T4C1.100
; #@! TA.AperFunction,Plated,PTH,ComponentDrill
T5C1.270
; #@! TA.AperFunction,Plated,PTH,ComponentDrill
T6C1.300
; #@! TA.AperFunction,Plated,PTH,ComponentDrill
T7C2.200
%
G90
G05
T1
X162.306Y67.77
T2
X154.686Y119.126
X154.686Y116.586
X154.686Y114.046
X154.686Y111.506
X154.686Y108.966
X154.686Y106.426
X154.686Y103.886
X154.686Y101.346
X154.686Y98.806
X154.686Y96.266
X154.686Y93.726
X154.686Y91.186
X156.21Y119.126
X156.21Y116.586
X156.21Y114.046
X156.21Y111.506
X156.21Y108.966
X156.21Y106.426
X156.21Y103.886
X156.21Y101.346
X156.21Y98.806
X156.21Y96.266
X156.21Y93.726
X156.21Y91.186
T3
X152.654Y67.794
X154.654Y67.794
X156.654Y67.794
T4
X147.828Y119.126
X147.828Y116.586
X147.828Y114.046
X147.828Y111.506
X147.828Y108.966
X147.828Y106.426
X147.828Y103.886
X147.828Y101.346
X147.828Y98.806
X147.828Y96.266
X147.828Y93.726
X147.828Y91.186
X163.068Y119.126
X163.068Y116.586
X163.068Y114.046
X163.068Y111.506
X163.068Y108.966
X163.068Y106.426
X163.068Y103.886
X163.068Y101.346
X163.068Y98.806
X163.068Y96.266
X163.068Y93.726
X163.068Y91.186
T5
X50.992Y78.27
X55.963Y62.013
X56.388Y77.724
X60.556Y81.194
X61.358Y61.467
X65.526Y64.937
X68.436Y100.342
X71.388Y83.601
X73.725Y99.142
X74.34Y66.859
X76.677Y82.401
X78.284Y102.079
X79.629Y65.659
X81.236Y85.337
X84.188Y68.595
X88.774Y109.828
X90.255Y92.893
X91.737Y75.958
X93.938Y108.172
X95.419Y91.237
X96.901Y74.301
X98.736Y110.7
X100.217Y93.764
X101.699Y76.829
X110.411Y102.886
X110.411Y85.886
X110.411Y68.886
X113.089Y42.77
X115.411Y100.786
X115.411Y83.786
X115.411Y66.786
X118.433Y41.848
X120.411Y102.886
X120.411Y85.886
X120.411Y68.886
X122.833Y45.019
X128.985Y101.378
X128.985Y84.378
X128.985Y67.378
X131.906Y46.042
X133.985Y99.278
X133.985Y82.278
X133.985Y65.278
X136.906Y43.942
X138.985Y101.378
X138.985Y84.378
X138.985Y67.378
X141.906Y46.042
X150.986Y44.847
X155.272Y41.524
X160.645Y42.258
T6
X155.298Y78.74
X161.798Y78.74
T7
X85.09Y86.995
X104.14Y106.045
X104.14Y67.945
T0
M30
