%FSLAX45Y45*%
G04 Gerber Fmt 4.5, Leading zero omitted, Abs format (unit mm)*
G04 Created by KiCad (PCBNEW (6.0.4)) date 2022-05-14 00:32:00*
%MOMM*%
%LPD*%
G01*
G04 APERTURE LIST*
%TA.AperFunction,Profile*%
%ADD10C,0.150000*%
%TD*%
%ADD11C,0.200000*%
%ADD12C,0.040000*%
%ADD13C,0.109220*%
%ADD14C,0.127000*%
%ADD15C,0.130000*%
%ADD16C,0.220000*%
G04 APERTURE END LIST*
D10*
X6170445Y11277677D02*
X8054931Y11609963D01*
X12370800Y4001870D02*
G75*
G03*
X11802911Y4178674I-740936J-1379436D01*
G01*
X15800203Y2841879D02*
X16368021Y3847661D01*
X6170445Y11277677D02*
G75*
G03*
X6008214Y11045986I34728J-196960D01*
G01*
X12594531Y11403010D02*
G75*
G03*
X12340531Y11682410I-271532J8307D01*
G01*
X8219440Y11824356D02*
X8197736Y12072438D01*
X8054931Y11609963D02*
G75*
G03*
X8219440Y11824356I-34725J196958D01*
G01*
X16471964Y4226311D02*
X16475367Y10390894D01*
X10210049Y12248493D02*
G75*
G03*
X9993379Y12430301I-199235J-17426D01*
G01*
X15351920Y2721270D02*
G75*
G03*
X15800203Y2841879I135506J389750D01*
G01*
X3977676Y8814575D02*
X5041217Y5584323D01*
X16475367Y10390894D02*
G75*
G03*
X16237240Y10661353I-253549J16821D01*
G01*
X11802911Y4178674D02*
X5209704Y5401304D01*
X6008214Y11045986D02*
X6159180Y10185872D01*
X10447090Y11698947D02*
X12340531Y11682410D01*
X15351920Y2721270D02*
X12370800Y4001870D01*
X8379543Y12289109D02*
G75*
G03*
X8197736Y12072439I17428J-199237D01*
G01*
X8379543Y12289109D02*
X9993379Y12430301D01*
X16237240Y10661353D02*
X12807851Y10666057D01*
X12604956Y10868750D02*
X12594531Y11403010D01*
X10210049Y12248493D02*
X10247851Y11881516D01*
X5041217Y5584323D02*
G75*
G03*
X5209704Y5401304I284370J92726D01*
G01*
X12604956Y10868750D02*
G75*
G03*
X12807851Y10666057I208330J5644D01*
G01*
X4041958Y9036370D02*
X6085240Y9976590D01*
X6085240Y9976590D02*
G75*
G03*
X6159180Y10185872I-151735J171311D01*
G01*
X10247851Y11881516D02*
G75*
G03*
X10447090Y11698947I199247J17439D01*
G01*
X4041958Y9036370D02*
G75*
G03*
X3977676Y8814575I127372J-157129D01*
G01*
X16368021Y3847661D02*
G75*
G03*
X16471964Y4226311I-780625J417881D01*
G01*
D11*
D12*
X15220000Y10141314D02*
X15260000Y10101314D01*
X15260000Y10141314D02*
X15220000Y10101314D01*
X15220000Y6624000D02*
X15260000Y6584000D01*
X15260000Y6624000D02*
X15220000Y6584000D01*
X15410459Y9885043D02*
X15450459Y9845043D01*
X15450459Y9885043D02*
X15410459Y9845043D01*
X15618978Y9630635D02*
X15658978Y9590635D01*
X15658978Y9630635D02*
X15618978Y9590635D01*
X15852049Y5590721D02*
X15892049Y5550721D01*
X15892049Y5590721D02*
X15852049Y5550721D01*
D13*
X14728331Y10122629D02*
G75*
G03*
X14728331Y10122629I-54610J0D01*
G01*
X14728331Y9860254D02*
G75*
G03*
X14728331Y9860254I-54610J0D01*
G01*
X14728331Y9606254D02*
G75*
G03*
X14728331Y9606254I-54610J0D01*
G01*
X14728331Y9352254D02*
G75*
G03*
X14728331Y9352254I-54610J0D01*
G01*
X14728331Y9098254D02*
G75*
G03*
X14728331Y9098254I-54610J0D01*
G01*
X14728331Y8844254D02*
G75*
G03*
X14728331Y8844254I-54610J0D01*
G01*
X14728331Y8590254D02*
G75*
G03*
X14728331Y8590254I-54610J0D01*
G01*
X14728331Y8336254D02*
G75*
G03*
X14728331Y8336254I-54610J0D01*
G01*
X14728331Y8082254D02*
G75*
G03*
X14728331Y8082254I-54610J0D01*
G01*
X14728331Y7828254D02*
G75*
G03*
X14728331Y7828254I-54610J0D01*
G01*
X14728331Y7574254D02*
G75*
G03*
X14728331Y7574254I-54610J0D01*
G01*
X14728331Y7320254D02*
G75*
G03*
X14728331Y7320254I-54610J0D01*
G01*
X14809150Y5816368D02*
G75*
G03*
X14809150Y5816368I-54610J0D01*
G01*
X15009150Y5816368D02*
G75*
G03*
X15009150Y5816368I-54610J0D01*
G01*
X15209150Y5816368D02*
G75*
G03*
X15209150Y5816368I-54610J0D01*
G01*
X16252331Y10114254D02*
G75*
G03*
X16252331Y10114254I-54610J0D01*
G01*
X16252331Y9860254D02*
G75*
G03*
X16252331Y9860254I-54610J0D01*
G01*
X16252331Y9606254D02*
G75*
G03*
X16252331Y9606254I-54610J0D01*
G01*
X16252331Y9352254D02*
G75*
G03*
X16252331Y9352254I-54610J0D01*
G01*
X16252331Y9098254D02*
G75*
G03*
X16252331Y9098254I-54610J0D01*
G01*
X16252331Y8844254D02*
G75*
G03*
X16252331Y8844254I-54610J0D01*
G01*
X16252331Y8590254D02*
G75*
G03*
X16252331Y8590254I-54610J0D01*
G01*
X16252331Y8336254D02*
G75*
G03*
X16252331Y8336254I-54610J0D01*
G01*
X16252331Y8082254D02*
G75*
G03*
X16252331Y8082254I-54610J0D01*
G01*
X16252331Y7828254D02*
G75*
G03*
X16252331Y7828254I-54610J0D01*
G01*
X16252331Y7574254D02*
G75*
G03*
X16252331Y7574254I-54610J0D01*
G01*
X16252331Y7320254D02*
G75*
G03*
X16252331Y7320254I-54610J0D01*
G01*
D14*
X4917175Y7826915D02*
X4917175Y7699915D01*
X4853675Y7763415D02*
X4980675Y7763415D01*
X5414207Y6201196D02*
X5414207Y6074196D01*
X5350707Y6137696D02*
X5477707Y6137696D01*
X5456725Y7772276D02*
X5456725Y7645276D01*
X5393225Y7708776D02*
X5520225Y7708776D01*
X5456725Y7772276D02*
X5456725Y7645276D01*
X5393225Y7708776D02*
X5520225Y7708776D01*
X5873479Y8119286D02*
X5873479Y7992286D01*
X5809979Y8055786D02*
X5936979Y8055786D01*
X5953757Y6146558D02*
X5953757Y6019558D01*
X5890257Y6083058D02*
X6017257Y6083058D01*
X5953757Y6146558D02*
X5953757Y6019558D01*
X5890257Y6083058D02*
X6017257Y6083058D01*
X6370511Y6493568D02*
X6370511Y6366568D01*
X6307011Y6430068D02*
X6434011Y6430068D01*
X6712293Y10076956D02*
X6712293Y9949956D01*
X6648793Y10013456D02*
X6775793Y10013456D01*
X7007495Y8402783D02*
X7007495Y8275782D01*
X6943995Y8339282D02*
X7070995Y8339282D01*
X7241163Y9956970D02*
X7241163Y9829970D01*
X7177663Y9893470D02*
X7304663Y9893470D01*
X7241163Y9956970D02*
X7241163Y9829970D01*
X7177663Y9893470D02*
X7304663Y9893470D01*
X7302697Y6728609D02*
X7302697Y6601609D01*
X7239197Y6665109D02*
X7366197Y6665109D01*
X7536365Y8282797D02*
X7536365Y8155797D01*
X7472865Y8219297D02*
X7599865Y8219297D01*
X7536365Y8282797D02*
X7536365Y8155797D01*
X7472865Y8219297D02*
X7599865Y8219297D01*
X7697101Y10250604D02*
X7697101Y10123604D01*
X7633601Y10187104D02*
X7760601Y10187104D01*
X7831567Y6608624D02*
X7831567Y6481624D01*
X7768067Y6545124D02*
X7895067Y6545124D01*
X7831567Y6608624D02*
X7831567Y6481624D01*
X7768067Y6545124D02*
X7895067Y6545124D01*
X7992303Y8576431D02*
X7992303Y8449431D01*
X7928803Y8512931D02*
X8055803Y8512931D01*
X8287505Y6902257D02*
X8287505Y6775257D01*
X8224005Y6838757D02*
X8351005Y6838757D01*
X8809021Y11046316D02*
X8809021Y10919316D01*
X8745521Y10982816D02*
X8872521Y10982816D01*
X8957186Y9352785D02*
X8957186Y9225785D01*
X8893686Y9289285D02*
X9020686Y9289285D01*
X9105351Y7659254D02*
X9105351Y7532254D01*
X9041851Y7595754D02*
X9168851Y7595754D01*
X9325422Y10880693D02*
X9325422Y10753693D01*
X9261922Y10817193D02*
X9388922Y10817193D01*
X9325422Y10880693D02*
X9325422Y10753693D01*
X9261922Y10817193D02*
X9388922Y10817193D01*
X9473586Y9187162D02*
X9473586Y9060162D01*
X9410086Y9123662D02*
X9537086Y9123662D01*
X9473586Y9187162D02*
X9473586Y9060162D01*
X9410086Y9123662D02*
X9537086Y9123662D01*
X9621751Y7493631D02*
X9621751Y7366631D01*
X9558251Y7430131D02*
X9685251Y7430131D01*
X9621751Y7493631D02*
X9621751Y7366631D01*
X9558251Y7430131D02*
X9685251Y7430131D01*
X9805216Y11133472D02*
X9805216Y11006472D01*
X9741716Y11069972D02*
X9868716Y11069972D01*
X9953381Y9439941D02*
X9953381Y9312941D01*
X9889881Y9376441D02*
X10016881Y9376441D01*
X10101546Y7746410D02*
X10101546Y7619410D01*
X10038046Y7682910D02*
X10165046Y7682910D01*
X11041109Y10352102D02*
X11041109Y10225102D01*
X10977609Y10288602D02*
X11104609Y10288602D01*
X11041109Y8652102D02*
X11041109Y8525102D01*
X10977609Y8588602D02*
X11104609Y8588602D01*
X11041109Y6952102D02*
X11041109Y6825102D01*
X10977609Y6888602D02*
X11104609Y6888602D01*
X11541109Y10142102D02*
X11541109Y10015102D01*
X11477609Y10078602D02*
X11604609Y10078602D01*
X11541109Y10142102D02*
X11541109Y10015102D01*
X11477609Y10078602D02*
X11604609Y10078602D01*
X11541109Y8442102D02*
X11541109Y8315102D01*
X11477609Y8378602D02*
X11604609Y8378602D01*
X11541109Y8442102D02*
X11541109Y8315102D01*
X11477609Y8378602D02*
X11604609Y8378602D01*
X11541109Y6742102D02*
X11541109Y6615102D01*
X11477609Y6678602D02*
X11604609Y6678602D01*
X11541109Y6742102D02*
X11541109Y6615102D01*
X11477609Y6678602D02*
X11604609Y6678602D01*
X12041109Y10352102D02*
X12041109Y10225102D01*
X11977609Y10288602D02*
X12104609Y10288602D01*
X12041109Y8652102D02*
X12041109Y8525102D01*
X11977609Y8588602D02*
X12104609Y8588602D01*
X12041109Y6952102D02*
X12041109Y6825102D01*
X11977609Y6888602D02*
X12104609Y6888602D01*
X12807790Y4729732D02*
X12807790Y4602732D01*
X12744290Y4666232D02*
X12871290Y4666232D01*
X12919200Y9317750D02*
X12919200Y9190750D01*
X12855700Y9254250D02*
X12982700Y9254250D01*
X12919200Y7617750D02*
X12919200Y7490750D01*
X12855700Y7554250D02*
X12982700Y7554250D01*
X13236401Y4397478D02*
X13236401Y4270478D01*
X13172901Y4333978D02*
X13299901Y4333978D01*
X13236401Y4397478D02*
X13236401Y4270478D01*
X13172901Y4333978D02*
X13299901Y4333978D01*
X13419200Y9107750D02*
X13419200Y8980750D01*
X13355700Y9044250D02*
X13482700Y9044250D01*
X13419200Y9107750D02*
X13419200Y8980750D01*
X13355700Y9044250D02*
X13482700Y9044250D01*
X13419200Y7407750D02*
X13419200Y7280750D01*
X13355700Y7344250D02*
X13482700Y7344250D01*
X13419200Y7407750D02*
X13419200Y7280750D01*
X13355700Y7344250D02*
X13482700Y7344250D01*
X13773716Y4470913D02*
X13773716Y4343913D01*
X13710216Y4407413D02*
X13837216Y4407413D01*
X13919200Y9317750D02*
X13919200Y9190750D01*
X13855700Y9254250D02*
X13982700Y9254250D01*
X13919200Y7617750D02*
X13919200Y7490750D01*
X13855700Y7554250D02*
X13982700Y7554250D01*
X14619852Y4120432D02*
X14619852Y3993432D01*
X14556352Y4056932D02*
X14683352Y4056932D01*
X14947864Y3688566D02*
X14947864Y3561566D01*
X14884364Y3625066D02*
X15011364Y3625066D01*
X14947864Y3688566D02*
X14947864Y3561566D01*
X14884364Y3625066D02*
X15011364Y3625066D01*
X15485877Y3620432D02*
X15485877Y3493432D01*
X15422377Y3556932D02*
X15549377Y3556932D01*
D15*
X16354810Y6886041D02*
X16354810Y6977966D01*
X16262885Y6977966D01*
X16262885Y6886041D01*
X16354810Y6886041D01*
X16354810Y6236041D02*
X16354810Y6327966D01*
X16262885Y6327966D01*
X16262885Y6236041D01*
X16354810Y6236041D01*
D16*
X8474722Y8704143D02*
X8584722Y8814143D01*
X8474722Y8924143D01*
X8364722Y8814143D01*
X8474722Y8704143D01*
X10379722Y10609143D02*
X10489722Y10719143D01*
X10379722Y10829143D01*
X10269722Y10719143D01*
X10379722Y10609143D01*
X10379722Y6799143D02*
X10489722Y6909143D01*
X10379722Y7019143D01*
X10269722Y6909143D01*
X10379722Y6799143D01*
D11*
X4217179Y2380410D02*
X4217179Y2580410D01*
X4264798Y2580410D01*
X4293370Y2570886D01*
X4312417Y2551839D01*
X4321941Y2532791D01*
X4331465Y2494696D01*
X4331465Y2466124D01*
X4321941Y2428029D01*
X4312417Y2408982D01*
X4293370Y2389934D01*
X4264798Y2380410D01*
X4217179Y2380410D01*
X4417179Y2380410D02*
X4417179Y2513744D01*
X4417179Y2475648D02*
X4426703Y2494696D01*
X4436227Y2504220D01*
X4455274Y2513744D01*
X4474322Y2513744D01*
X4540989Y2380410D02*
X4540989Y2513744D01*
X4540989Y2580410D02*
X4531465Y2570886D01*
X4540989Y2561363D01*
X4550513Y2570886D01*
X4540989Y2580410D01*
X4540989Y2561363D01*
X4664798Y2380410D02*
X4645751Y2389934D01*
X4636227Y2408982D01*
X4636227Y2580410D01*
X4769560Y2380410D02*
X4750513Y2389934D01*
X4740989Y2408982D01*
X4740989Y2580410D01*
X4998132Y2380410D02*
X4998132Y2580410D01*
X5064798Y2437553D01*
X5131465Y2580410D01*
X5131465Y2380410D01*
X5312417Y2380410D02*
X5312417Y2485172D01*
X5302894Y2504220D01*
X5283846Y2513744D01*
X5245751Y2513744D01*
X5226703Y2504220D01*
X5312417Y2389934D02*
X5293370Y2380410D01*
X5245751Y2380410D01*
X5226703Y2389934D01*
X5217179Y2408982D01*
X5217179Y2428029D01*
X5226703Y2447077D01*
X5245751Y2456601D01*
X5293370Y2456601D01*
X5312417Y2466124D01*
X5407655Y2513744D02*
X5407655Y2313744D01*
X5407655Y2504220D02*
X5426703Y2513744D01*
X5464798Y2513744D01*
X5483846Y2504220D01*
X5493370Y2494696D01*
X5502894Y2475648D01*
X5502894Y2418505D01*
X5493370Y2399458D01*
X5483846Y2389934D01*
X5464798Y2380410D01*
X5426703Y2380410D01*
X5407655Y2389934D01*
X5588608Y2399458D02*
X5598132Y2389934D01*
X5588608Y2380410D01*
X5579084Y2389934D01*
X5588608Y2399458D01*
X5588608Y2380410D01*
X5588608Y2504220D02*
X5598132Y2494696D01*
X5588608Y2485172D01*
X5579084Y2494696D01*
X5588608Y2504220D01*
X5588608Y2485172D01*
D12*
X3919560Y2070886D02*
X3959560Y2030886D01*
X3959560Y2070886D02*
X3919560Y2030886D01*
D11*
X4255274Y2160410D02*
X4274322Y2160410D01*
X4293370Y2150886D01*
X4302894Y2141363D01*
X4312417Y2122315D01*
X4321941Y2084220D01*
X4321941Y2036601D01*
X4312417Y1998505D01*
X4302894Y1979458D01*
X4293370Y1969934D01*
X4274322Y1960410D01*
X4255274Y1960410D01*
X4236227Y1969934D01*
X4226703Y1979458D01*
X4217179Y1998505D01*
X4207655Y2036601D01*
X4207655Y2084220D01*
X4217179Y2122315D01*
X4226703Y2141363D01*
X4236227Y2150886D01*
X4255274Y2160410D01*
X4407655Y1979458D02*
X4417179Y1969934D01*
X4407655Y1960410D01*
X4398132Y1969934D01*
X4407655Y1979458D01*
X4407655Y1960410D01*
X4588608Y2093743D02*
X4588608Y1960410D01*
X4540989Y2169934D02*
X4493370Y2027077D01*
X4617179Y2027077D01*
X4731465Y2160410D02*
X4750513Y2160410D01*
X4769560Y2150886D01*
X4779084Y2141363D01*
X4788608Y2122315D01*
X4798132Y2084220D01*
X4798132Y2036601D01*
X4788608Y1998505D01*
X4779084Y1979458D01*
X4769560Y1969934D01*
X4750513Y1960410D01*
X4731465Y1960410D01*
X4712417Y1969934D01*
X4702894Y1979458D01*
X4693370Y1998505D01*
X4683846Y2036601D01*
X4683846Y2084220D01*
X4693370Y2122315D01*
X4702894Y2141363D01*
X4712417Y2150886D01*
X4731465Y2160410D01*
X4921941Y2160410D02*
X4940989Y2160410D01*
X4960036Y2150886D01*
X4969560Y2141363D01*
X4979084Y2122315D01*
X4988608Y2084220D01*
X4988608Y2036601D01*
X4979084Y1998505D01*
X4969560Y1979458D01*
X4960036Y1969934D01*
X4940989Y1960410D01*
X4921941Y1960410D01*
X4902894Y1969934D01*
X4893370Y1979458D01*
X4883846Y1998505D01*
X4874322Y2036601D01*
X4874322Y2084220D01*
X4883846Y2122315D01*
X4893370Y2141363D01*
X4902894Y2150886D01*
X4921941Y2160410D01*
X5074322Y1960410D02*
X5074322Y2093743D01*
X5074322Y2074696D02*
X5083846Y2084220D01*
X5102894Y2093743D01*
X5131465Y2093743D01*
X5150513Y2084220D01*
X5160036Y2065172D01*
X5160036Y1960410D01*
X5160036Y2065172D02*
X5169560Y2084220D01*
X5188608Y2093743D01*
X5217179Y2093743D01*
X5236227Y2084220D01*
X5245751Y2065172D01*
X5245751Y1960410D01*
X5340989Y1960410D02*
X5340989Y2093743D01*
X5340989Y2074696D02*
X5350513Y2084220D01*
X5369560Y2093743D01*
X5398132Y2093743D01*
X5417179Y2084220D01*
X5426703Y2065172D01*
X5426703Y1960410D01*
X5426703Y2065172D02*
X5436227Y2084220D01*
X5455274Y2093743D01*
X5483846Y2093743D01*
X5502894Y2084220D01*
X5512417Y2065172D01*
X5512417Y1960410D01*
X5902893Y2169934D02*
X5731465Y1912791D01*
X6160036Y2160410D02*
X6179084Y2160410D01*
X6198132Y2150886D01*
X6207655Y2141363D01*
X6217179Y2122315D01*
X6226703Y2084220D01*
X6226703Y2036601D01*
X6217179Y1998505D01*
X6207655Y1979458D01*
X6198132Y1969934D01*
X6179084Y1960410D01*
X6160036Y1960410D01*
X6140989Y1969934D01*
X6131465Y1979458D01*
X6121941Y1998505D01*
X6112417Y2036601D01*
X6112417Y2084220D01*
X6121941Y2122315D01*
X6131465Y2141363D01*
X6140989Y2150886D01*
X6160036Y2160410D01*
X6312417Y1979458D02*
X6321941Y1969934D01*
X6312417Y1960410D01*
X6302893Y1969934D01*
X6312417Y1979458D01*
X6312417Y1960410D01*
X6445751Y2160410D02*
X6464798Y2160410D01*
X6483846Y2150886D01*
X6493370Y2141363D01*
X6502893Y2122315D01*
X6512417Y2084220D01*
X6512417Y2036601D01*
X6502893Y1998505D01*
X6493370Y1979458D01*
X6483846Y1969934D01*
X6464798Y1960410D01*
X6445751Y1960410D01*
X6426703Y1969934D01*
X6417179Y1979458D01*
X6407655Y1998505D01*
X6398132Y2036601D01*
X6398132Y2084220D01*
X6407655Y2122315D01*
X6417179Y2141363D01*
X6426703Y2150886D01*
X6445751Y2160410D01*
X6702893Y1960410D02*
X6588608Y1960410D01*
X6645751Y1960410D02*
X6645751Y2160410D01*
X6626703Y2131839D01*
X6607655Y2112791D01*
X6588608Y2103267D01*
X6883846Y2160410D02*
X6788608Y2160410D01*
X6779084Y2065172D01*
X6788608Y2074696D01*
X6807655Y2084220D01*
X6855274Y2084220D01*
X6874322Y2074696D01*
X6883846Y2065172D01*
X6893370Y2046124D01*
X6893370Y1998505D01*
X6883846Y1979458D01*
X6874322Y1969934D01*
X6855274Y1960410D01*
X6807655Y1960410D01*
X6788608Y1969934D01*
X6779084Y1979458D01*
X6960036Y2160410D02*
X7093370Y2160410D01*
X7007655Y1960410D01*
X7160036Y2160410D02*
X7160036Y2122315D01*
X7236227Y2160410D02*
X7236227Y2122315D01*
X7531465Y1884220D02*
X7521941Y1893743D01*
X7502893Y1922315D01*
X7493370Y1941362D01*
X7483846Y1969934D01*
X7474322Y2017553D01*
X7474322Y2055648D01*
X7483846Y2103267D01*
X7493370Y2131839D01*
X7502893Y2150886D01*
X7521941Y2179458D01*
X7531465Y2188982D01*
X7702893Y2160410D02*
X7607655Y2160410D01*
X7598132Y2065172D01*
X7607655Y2074696D01*
X7626703Y2084220D01*
X7674322Y2084220D01*
X7693370Y2074696D01*
X7702893Y2065172D01*
X7712417Y2046124D01*
X7712417Y1998505D01*
X7702893Y1979458D01*
X7693370Y1969934D01*
X7674322Y1960410D01*
X7626703Y1960410D01*
X7607655Y1969934D01*
X7598132Y1979458D01*
X7950512Y1960410D02*
X7950512Y2160410D01*
X8036227Y1960410D02*
X8036227Y2065172D01*
X8026703Y2084220D01*
X8007655Y2093743D01*
X7979084Y2093743D01*
X7960036Y2084220D01*
X7950512Y2074696D01*
X8160036Y1960410D02*
X8140989Y1969934D01*
X8131465Y1979458D01*
X8121941Y1998505D01*
X8121941Y2055648D01*
X8131465Y2074696D01*
X8140989Y2084220D01*
X8160036Y2093743D01*
X8188608Y2093743D01*
X8207655Y2084220D01*
X8217179Y2074696D01*
X8226703Y2055648D01*
X8226703Y1998505D01*
X8217179Y1979458D01*
X8207655Y1969934D01*
X8188608Y1960410D01*
X8160036Y1960410D01*
X8340989Y1960410D02*
X8321941Y1969934D01*
X8312417Y1988982D01*
X8312417Y2160410D01*
X8493370Y1969934D02*
X8474322Y1960410D01*
X8436227Y1960410D01*
X8417179Y1969934D01*
X8407655Y1988982D01*
X8407655Y2065172D01*
X8417179Y2084220D01*
X8436227Y2093743D01*
X8474322Y2093743D01*
X8493370Y2084220D01*
X8502894Y2065172D01*
X8502894Y2046124D01*
X8407655Y2027077D01*
X8579084Y1969934D02*
X8598132Y1960410D01*
X8636227Y1960410D01*
X8655274Y1969934D01*
X8664798Y1988982D01*
X8664798Y1998505D01*
X8655274Y2017553D01*
X8636227Y2027077D01*
X8607655Y2027077D01*
X8588608Y2036601D01*
X8579084Y2055648D01*
X8579084Y2065172D01*
X8588608Y2084220D01*
X8607655Y2093743D01*
X8636227Y2093743D01*
X8655274Y2084220D01*
X8731465Y1884220D02*
X8740989Y1893743D01*
X8760036Y1922315D01*
X8769560Y1941362D01*
X8779084Y1969934D01*
X8788608Y2017553D01*
X8788608Y2055648D01*
X8779084Y2103267D01*
X8769560Y2131839D01*
X8760036Y2150886D01*
X8740989Y2179458D01*
X8731465Y2188982D01*
D13*
X3959560Y1786886D02*
G75*
G03*
X3959560Y1786886I-54610J0D01*
G01*
D11*
X4321941Y1696410D02*
X4207655Y1696410D01*
X4264798Y1696410D02*
X4264798Y1896410D01*
X4245751Y1867839D01*
X4226703Y1848791D01*
X4207655Y1839267D01*
X4407655Y1715458D02*
X4417179Y1705934D01*
X4407655Y1696410D01*
X4398132Y1705934D01*
X4407655Y1715458D01*
X4407655Y1696410D01*
X4540989Y1896410D02*
X4560036Y1896410D01*
X4579084Y1886886D01*
X4588608Y1877362D01*
X4598132Y1858315D01*
X4607655Y1820220D01*
X4607655Y1772601D01*
X4598132Y1734505D01*
X4588608Y1715458D01*
X4579084Y1705934D01*
X4560036Y1696410D01*
X4540989Y1696410D01*
X4521941Y1705934D01*
X4512417Y1715458D01*
X4502894Y1734505D01*
X4493370Y1772601D01*
X4493370Y1820220D01*
X4502894Y1858315D01*
X4512417Y1877362D01*
X4521941Y1886886D01*
X4540989Y1896410D01*
X4702894Y1696410D02*
X4740989Y1696410D01*
X4760036Y1705934D01*
X4769560Y1715458D01*
X4788608Y1744029D01*
X4798132Y1782124D01*
X4798132Y1858315D01*
X4788608Y1877362D01*
X4779084Y1886886D01*
X4760036Y1896410D01*
X4721941Y1896410D01*
X4702894Y1886886D01*
X4693370Y1877362D01*
X4683846Y1858315D01*
X4683846Y1810696D01*
X4693370Y1791648D01*
X4702894Y1782124D01*
X4721941Y1772601D01*
X4760036Y1772601D01*
X4779084Y1782124D01*
X4788608Y1791648D01*
X4798132Y1810696D01*
X4874322Y1877362D02*
X4883846Y1886886D01*
X4902894Y1896410D01*
X4950513Y1896410D01*
X4969560Y1886886D01*
X4979084Y1877362D01*
X4988608Y1858315D01*
X4988608Y1839267D01*
X4979084Y1810696D01*
X4864798Y1696410D01*
X4988608Y1696410D01*
X5074322Y1696410D02*
X5074322Y1829743D01*
X5074322Y1810696D02*
X5083846Y1820220D01*
X5102894Y1829743D01*
X5131465Y1829743D01*
X5150513Y1820220D01*
X5160036Y1801172D01*
X5160036Y1696410D01*
X5160036Y1801172D02*
X5169560Y1820220D01*
X5188608Y1829743D01*
X5217179Y1829743D01*
X5236227Y1820220D01*
X5245751Y1801172D01*
X5245751Y1696410D01*
X5340989Y1696410D02*
X5340989Y1829743D01*
X5340989Y1810696D02*
X5350513Y1820220D01*
X5369560Y1829743D01*
X5398132Y1829743D01*
X5417179Y1820220D01*
X5426703Y1801172D01*
X5426703Y1696410D01*
X5426703Y1801172D02*
X5436227Y1820220D01*
X5455274Y1829743D01*
X5483846Y1829743D01*
X5502894Y1820220D01*
X5512417Y1801172D01*
X5512417Y1696410D01*
X5902893Y1905934D02*
X5731465Y1648791D01*
X6160036Y1896410D02*
X6179084Y1896410D01*
X6198132Y1886886D01*
X6207655Y1877362D01*
X6217179Y1858315D01*
X6226703Y1820220D01*
X6226703Y1772601D01*
X6217179Y1734505D01*
X6207655Y1715458D01*
X6198132Y1705934D01*
X6179084Y1696410D01*
X6160036Y1696410D01*
X6140989Y1705934D01*
X6131465Y1715458D01*
X6121941Y1734505D01*
X6112417Y1772601D01*
X6112417Y1820220D01*
X6121941Y1858315D01*
X6131465Y1877362D01*
X6140989Y1886886D01*
X6160036Y1896410D01*
X6312417Y1715458D02*
X6321941Y1705934D01*
X6312417Y1696410D01*
X6302893Y1705934D01*
X6312417Y1715458D01*
X6312417Y1696410D01*
X6445751Y1896410D02*
X6464798Y1896410D01*
X6483846Y1886886D01*
X6493370Y1877362D01*
X6502893Y1858315D01*
X6512417Y1820220D01*
X6512417Y1772601D01*
X6502893Y1734505D01*
X6493370Y1715458D01*
X6483846Y1705934D01*
X6464798Y1696410D01*
X6445751Y1696410D01*
X6426703Y1705934D01*
X6417179Y1715458D01*
X6407655Y1734505D01*
X6398132Y1772601D01*
X6398132Y1820220D01*
X6407655Y1858315D01*
X6417179Y1877362D01*
X6426703Y1886886D01*
X6445751Y1896410D01*
X6683846Y1829743D02*
X6683846Y1696410D01*
X6636227Y1905934D02*
X6588608Y1763077D01*
X6712417Y1763077D01*
X6769560Y1896410D02*
X6893370Y1896410D01*
X6826703Y1820220D01*
X6855274Y1820220D01*
X6874322Y1810696D01*
X6883846Y1801172D01*
X6893370Y1782124D01*
X6893370Y1734505D01*
X6883846Y1715458D01*
X6874322Y1705934D01*
X6855274Y1696410D01*
X6798132Y1696410D01*
X6779084Y1705934D01*
X6769560Y1715458D01*
X7017179Y1896410D02*
X7036227Y1896410D01*
X7055274Y1886886D01*
X7064798Y1877362D01*
X7074322Y1858315D01*
X7083846Y1820220D01*
X7083846Y1772601D01*
X7074322Y1734505D01*
X7064798Y1715458D01*
X7055274Y1705934D01*
X7036227Y1696410D01*
X7017179Y1696410D01*
X6998132Y1705934D01*
X6988608Y1715458D01*
X6979084Y1734505D01*
X6969560Y1772601D01*
X6969560Y1820220D01*
X6979084Y1858315D01*
X6988608Y1877362D01*
X6998132Y1886886D01*
X7017179Y1896410D01*
X7160036Y1896410D02*
X7160036Y1858315D01*
X7236227Y1896410D02*
X7236227Y1858315D01*
X7531465Y1620220D02*
X7521941Y1629743D01*
X7502893Y1658315D01*
X7493370Y1677362D01*
X7483846Y1705934D01*
X7474322Y1753553D01*
X7474322Y1791648D01*
X7483846Y1839267D01*
X7493370Y1867839D01*
X7502893Y1886886D01*
X7521941Y1915458D01*
X7531465Y1924982D01*
X7598132Y1877362D02*
X7607655Y1886886D01*
X7626703Y1896410D01*
X7674322Y1896410D01*
X7693370Y1886886D01*
X7702893Y1877362D01*
X7712417Y1858315D01*
X7712417Y1839267D01*
X7702893Y1810696D01*
X7588608Y1696410D01*
X7712417Y1696410D01*
X7779084Y1896410D02*
X7912417Y1896410D01*
X7826703Y1696410D01*
X8140989Y1696410D02*
X8140989Y1896410D01*
X8226703Y1696410D02*
X8226703Y1801172D01*
X8217179Y1820220D01*
X8198132Y1829743D01*
X8169560Y1829743D01*
X8150512Y1820220D01*
X8140989Y1810696D01*
X8350512Y1696410D02*
X8331465Y1705934D01*
X8321941Y1715458D01*
X8312417Y1734505D01*
X8312417Y1791648D01*
X8321941Y1810696D01*
X8331465Y1820220D01*
X8350512Y1829743D01*
X8379084Y1829743D01*
X8398132Y1820220D01*
X8407655Y1810696D01*
X8417179Y1791648D01*
X8417179Y1734505D01*
X8407655Y1715458D01*
X8398132Y1705934D01*
X8379084Y1696410D01*
X8350512Y1696410D01*
X8531465Y1696410D02*
X8512417Y1705934D01*
X8502894Y1724982D01*
X8502894Y1896410D01*
X8683846Y1705934D02*
X8664798Y1696410D01*
X8626703Y1696410D01*
X8607655Y1705934D01*
X8598132Y1724982D01*
X8598132Y1801172D01*
X8607655Y1820220D01*
X8626703Y1829743D01*
X8664798Y1829743D01*
X8683846Y1820220D01*
X8693370Y1801172D01*
X8693370Y1782124D01*
X8598132Y1763077D01*
X8769560Y1705934D02*
X8788608Y1696410D01*
X8826703Y1696410D01*
X8845751Y1705934D01*
X8855274Y1724982D01*
X8855274Y1734505D01*
X8845751Y1753553D01*
X8826703Y1763077D01*
X8798132Y1763077D01*
X8779084Y1772601D01*
X8769560Y1791648D01*
X8769560Y1801172D01*
X8779084Y1820220D01*
X8798132Y1829743D01*
X8826703Y1829743D01*
X8845751Y1820220D01*
X8921941Y1620220D02*
X8931465Y1629743D01*
X8950513Y1658315D01*
X8960036Y1677362D01*
X8969560Y1705934D01*
X8979084Y1753553D01*
X8979084Y1791648D01*
X8969560Y1839267D01*
X8960036Y1867839D01*
X8950513Y1886886D01*
X8931465Y1915458D01*
X8921941Y1924982D01*
D14*
X3896060Y1586386D02*
X3896060Y1459386D01*
X3832560Y1522886D02*
X3959560Y1522886D01*
D11*
X4321941Y1432410D02*
X4207655Y1432410D01*
X4264798Y1432410D02*
X4264798Y1632410D01*
X4245751Y1603839D01*
X4226703Y1584791D01*
X4207655Y1575267D01*
X4407655Y1451458D02*
X4417179Y1441934D01*
X4407655Y1432410D01*
X4398132Y1441934D01*
X4407655Y1451458D01*
X4407655Y1432410D01*
X4493370Y1613362D02*
X4502894Y1622886D01*
X4521941Y1632410D01*
X4569560Y1632410D01*
X4588608Y1622886D01*
X4598132Y1613362D01*
X4607655Y1594315D01*
X4607655Y1575267D01*
X4598132Y1546696D01*
X4483846Y1432410D01*
X4607655Y1432410D01*
X4674322Y1632410D02*
X4807655Y1632410D01*
X4721941Y1432410D01*
X4921941Y1632410D02*
X4940989Y1632410D01*
X4960036Y1622886D01*
X4969560Y1613362D01*
X4979084Y1594315D01*
X4988608Y1556220D01*
X4988608Y1508601D01*
X4979084Y1470505D01*
X4969560Y1451458D01*
X4960036Y1441934D01*
X4940989Y1432410D01*
X4921941Y1432410D01*
X4902894Y1441934D01*
X4893370Y1451458D01*
X4883846Y1470505D01*
X4874322Y1508601D01*
X4874322Y1556220D01*
X4883846Y1594315D01*
X4893370Y1613362D01*
X4902894Y1622886D01*
X4921941Y1632410D01*
X5074322Y1432410D02*
X5074322Y1565743D01*
X5074322Y1546696D02*
X5083846Y1556220D01*
X5102894Y1565743D01*
X5131465Y1565743D01*
X5150513Y1556220D01*
X5160036Y1537172D01*
X5160036Y1432410D01*
X5160036Y1537172D02*
X5169560Y1556220D01*
X5188608Y1565743D01*
X5217179Y1565743D01*
X5236227Y1556220D01*
X5245751Y1537172D01*
X5245751Y1432410D01*
X5340989Y1432410D02*
X5340989Y1565743D01*
X5340989Y1546696D02*
X5350513Y1556220D01*
X5369560Y1565743D01*
X5398132Y1565743D01*
X5417179Y1556220D01*
X5426703Y1537172D01*
X5426703Y1432410D01*
X5426703Y1537172D02*
X5436227Y1556220D01*
X5455274Y1565743D01*
X5483846Y1565743D01*
X5502894Y1556220D01*
X5512417Y1537172D01*
X5512417Y1432410D01*
X5902893Y1641934D02*
X5731465Y1384791D01*
X6160036Y1632410D02*
X6179084Y1632410D01*
X6198132Y1622886D01*
X6207655Y1613362D01*
X6217179Y1594315D01*
X6226703Y1556220D01*
X6226703Y1508601D01*
X6217179Y1470505D01*
X6207655Y1451458D01*
X6198132Y1441934D01*
X6179084Y1432410D01*
X6160036Y1432410D01*
X6140989Y1441934D01*
X6131465Y1451458D01*
X6121941Y1470505D01*
X6112417Y1508601D01*
X6112417Y1556220D01*
X6121941Y1594315D01*
X6131465Y1613362D01*
X6140989Y1622886D01*
X6160036Y1632410D01*
X6312417Y1451458D02*
X6321941Y1441934D01*
X6312417Y1432410D01*
X6302893Y1441934D01*
X6312417Y1451458D01*
X6312417Y1432410D01*
X6445751Y1632410D02*
X6464798Y1632410D01*
X6483846Y1622886D01*
X6493370Y1613362D01*
X6502893Y1594315D01*
X6512417Y1556220D01*
X6512417Y1508601D01*
X6502893Y1470505D01*
X6493370Y1451458D01*
X6483846Y1441934D01*
X6464798Y1432410D01*
X6445751Y1432410D01*
X6426703Y1441934D01*
X6417179Y1451458D01*
X6407655Y1470505D01*
X6398132Y1508601D01*
X6398132Y1556220D01*
X6407655Y1594315D01*
X6417179Y1613362D01*
X6426703Y1622886D01*
X6445751Y1632410D01*
X6693370Y1632410D02*
X6598132Y1632410D01*
X6588608Y1537172D01*
X6598132Y1546696D01*
X6617179Y1556220D01*
X6664798Y1556220D01*
X6683846Y1546696D01*
X6693370Y1537172D01*
X6702893Y1518124D01*
X6702893Y1470505D01*
X6693370Y1451458D01*
X6683846Y1441934D01*
X6664798Y1432410D01*
X6617179Y1432410D01*
X6598132Y1441934D01*
X6588608Y1451458D01*
X6826703Y1632410D02*
X6845751Y1632410D01*
X6864798Y1622886D01*
X6874322Y1613362D01*
X6883846Y1594315D01*
X6893370Y1556220D01*
X6893370Y1508601D01*
X6883846Y1470505D01*
X6874322Y1451458D01*
X6864798Y1441934D01*
X6845751Y1432410D01*
X6826703Y1432410D01*
X6807655Y1441934D01*
X6798132Y1451458D01*
X6788608Y1470505D01*
X6779084Y1508601D01*
X6779084Y1556220D01*
X6788608Y1594315D01*
X6798132Y1613362D01*
X6807655Y1622886D01*
X6826703Y1632410D01*
X7017179Y1632410D02*
X7036227Y1632410D01*
X7055274Y1622886D01*
X7064798Y1613362D01*
X7074322Y1594315D01*
X7083846Y1556220D01*
X7083846Y1508601D01*
X7074322Y1470505D01*
X7064798Y1451458D01*
X7055274Y1441934D01*
X7036227Y1432410D01*
X7017179Y1432410D01*
X6998132Y1441934D01*
X6988608Y1451458D01*
X6979084Y1470505D01*
X6969560Y1508601D01*
X6969560Y1556220D01*
X6979084Y1594315D01*
X6988608Y1613362D01*
X6998132Y1622886D01*
X7017179Y1632410D01*
X7160036Y1632410D02*
X7160036Y1594315D01*
X7236227Y1632410D02*
X7236227Y1594315D01*
X7531465Y1356220D02*
X7521941Y1365744D01*
X7502893Y1394315D01*
X7493370Y1413362D01*
X7483846Y1441934D01*
X7474322Y1489553D01*
X7474322Y1527648D01*
X7483846Y1575267D01*
X7493370Y1603839D01*
X7502893Y1622886D01*
X7521941Y1651458D01*
X7531465Y1660982D01*
X7693370Y1632410D02*
X7655274Y1632410D01*
X7636227Y1622886D01*
X7626703Y1613362D01*
X7607655Y1584791D01*
X7598132Y1546696D01*
X7598132Y1470505D01*
X7607655Y1451458D01*
X7617179Y1441934D01*
X7636227Y1432410D01*
X7674322Y1432410D01*
X7693370Y1441934D01*
X7702893Y1451458D01*
X7712417Y1470505D01*
X7712417Y1518124D01*
X7702893Y1537172D01*
X7693370Y1546696D01*
X7674322Y1556220D01*
X7636227Y1556220D01*
X7617179Y1546696D01*
X7607655Y1537172D01*
X7598132Y1518124D01*
X7836227Y1632410D02*
X7855274Y1632410D01*
X7874322Y1622886D01*
X7883846Y1613362D01*
X7893370Y1594315D01*
X7902893Y1556220D01*
X7902893Y1508601D01*
X7893370Y1470505D01*
X7883846Y1451458D01*
X7874322Y1441934D01*
X7855274Y1432410D01*
X7836227Y1432410D01*
X7817179Y1441934D01*
X7807655Y1451458D01*
X7798132Y1470505D01*
X7788608Y1508601D01*
X7788608Y1556220D01*
X7798132Y1594315D01*
X7807655Y1613362D01*
X7817179Y1622886D01*
X7836227Y1632410D01*
X8140989Y1432410D02*
X8140989Y1632410D01*
X8226703Y1432410D02*
X8226703Y1537172D01*
X8217179Y1556220D01*
X8198132Y1565743D01*
X8169560Y1565743D01*
X8150512Y1556220D01*
X8140989Y1546696D01*
X8350512Y1432410D02*
X8331465Y1441934D01*
X8321941Y1451458D01*
X8312417Y1470505D01*
X8312417Y1527648D01*
X8321941Y1546696D01*
X8331465Y1556220D01*
X8350512Y1565743D01*
X8379084Y1565743D01*
X8398132Y1556220D01*
X8407655Y1546696D01*
X8417179Y1527648D01*
X8417179Y1470505D01*
X8407655Y1451458D01*
X8398132Y1441934D01*
X8379084Y1432410D01*
X8350512Y1432410D01*
X8531465Y1432410D02*
X8512417Y1441934D01*
X8502894Y1460982D01*
X8502894Y1632410D01*
X8683846Y1441934D02*
X8664798Y1432410D01*
X8626703Y1432410D01*
X8607655Y1441934D01*
X8598132Y1460982D01*
X8598132Y1537172D01*
X8607655Y1556220D01*
X8626703Y1565743D01*
X8664798Y1565743D01*
X8683846Y1556220D01*
X8693370Y1537172D01*
X8693370Y1518124D01*
X8598132Y1499077D01*
X8769560Y1441934D02*
X8788608Y1432410D01*
X8826703Y1432410D01*
X8845751Y1441934D01*
X8855274Y1460982D01*
X8855274Y1470505D01*
X8845751Y1489553D01*
X8826703Y1499077D01*
X8798132Y1499077D01*
X8779084Y1508601D01*
X8769560Y1527648D01*
X8769560Y1537172D01*
X8779084Y1556220D01*
X8798132Y1565743D01*
X8826703Y1565743D01*
X8845751Y1556220D01*
X8921941Y1356220D02*
X8931465Y1365744D01*
X8950513Y1394315D01*
X8960036Y1413362D01*
X8969560Y1441934D01*
X8979084Y1489553D01*
X8979084Y1527648D01*
X8969560Y1575267D01*
X8960036Y1603839D01*
X8950513Y1622886D01*
X8931465Y1651458D01*
X8921941Y1660982D01*
D15*
X3940523Y1212924D02*
X3940523Y1304849D01*
X3848598Y1304849D01*
X3848598Y1212924D01*
X3940523Y1212924D01*
D11*
X4321941Y1168410D02*
X4207655Y1168410D01*
X4264798Y1168410D02*
X4264798Y1368410D01*
X4245751Y1339839D01*
X4226703Y1320791D01*
X4207655Y1311267D01*
X4407655Y1187458D02*
X4417179Y1177934D01*
X4407655Y1168410D01*
X4398132Y1177934D01*
X4407655Y1187458D01*
X4407655Y1168410D01*
X4483846Y1368410D02*
X4607655Y1368410D01*
X4540989Y1292220D01*
X4569560Y1292220D01*
X4588608Y1282696D01*
X4598132Y1273172D01*
X4607655Y1254124D01*
X4607655Y1206505D01*
X4598132Y1187458D01*
X4588608Y1177934D01*
X4569560Y1168410D01*
X4512417Y1168410D01*
X4493370Y1177934D01*
X4483846Y1187458D01*
X4731465Y1368410D02*
X4750513Y1368410D01*
X4769560Y1358886D01*
X4779084Y1349363D01*
X4788608Y1330315D01*
X4798132Y1292220D01*
X4798132Y1244601D01*
X4788608Y1206505D01*
X4779084Y1187458D01*
X4769560Y1177934D01*
X4750513Y1168410D01*
X4731465Y1168410D01*
X4712417Y1177934D01*
X4702894Y1187458D01*
X4693370Y1206505D01*
X4683846Y1244601D01*
X4683846Y1292220D01*
X4693370Y1330315D01*
X4702894Y1349363D01*
X4712417Y1358886D01*
X4731465Y1368410D01*
X4921941Y1368410D02*
X4940989Y1368410D01*
X4960036Y1358886D01*
X4969560Y1349363D01*
X4979084Y1330315D01*
X4988608Y1292220D01*
X4988608Y1244601D01*
X4979084Y1206505D01*
X4969560Y1187458D01*
X4960036Y1177934D01*
X4940989Y1168410D01*
X4921941Y1168410D01*
X4902894Y1177934D01*
X4893370Y1187458D01*
X4883846Y1206505D01*
X4874322Y1244601D01*
X4874322Y1292220D01*
X4883846Y1330315D01*
X4893370Y1349363D01*
X4902894Y1358886D01*
X4921941Y1368410D01*
X5074322Y1168410D02*
X5074322Y1301744D01*
X5074322Y1282696D02*
X5083846Y1292220D01*
X5102894Y1301744D01*
X5131465Y1301744D01*
X5150513Y1292220D01*
X5160036Y1273172D01*
X5160036Y1168410D01*
X5160036Y1273172D02*
X5169560Y1292220D01*
X5188608Y1301744D01*
X5217179Y1301744D01*
X5236227Y1292220D01*
X5245751Y1273172D01*
X5245751Y1168410D01*
X5340989Y1168410D02*
X5340989Y1301744D01*
X5340989Y1282696D02*
X5350513Y1292220D01*
X5369560Y1301744D01*
X5398132Y1301744D01*
X5417179Y1292220D01*
X5426703Y1273172D01*
X5426703Y1168410D01*
X5426703Y1273172D02*
X5436227Y1292220D01*
X5455274Y1301744D01*
X5483846Y1301744D01*
X5502894Y1292220D01*
X5512417Y1273172D01*
X5512417Y1168410D01*
X5902893Y1377934D02*
X5731465Y1120791D01*
X6160036Y1368410D02*
X6179084Y1368410D01*
X6198132Y1358886D01*
X6207655Y1349363D01*
X6217179Y1330315D01*
X6226703Y1292220D01*
X6226703Y1244601D01*
X6217179Y1206505D01*
X6207655Y1187458D01*
X6198132Y1177934D01*
X6179084Y1168410D01*
X6160036Y1168410D01*
X6140989Y1177934D01*
X6131465Y1187458D01*
X6121941Y1206505D01*
X6112417Y1244601D01*
X6112417Y1292220D01*
X6121941Y1330315D01*
X6131465Y1349363D01*
X6140989Y1358886D01*
X6160036Y1368410D01*
X6312417Y1187458D02*
X6321941Y1177934D01*
X6312417Y1168410D01*
X6302893Y1177934D01*
X6312417Y1187458D01*
X6312417Y1168410D01*
X6445751Y1368410D02*
X6464798Y1368410D01*
X6483846Y1358886D01*
X6493370Y1349363D01*
X6502893Y1330315D01*
X6512417Y1292220D01*
X6512417Y1244601D01*
X6502893Y1206505D01*
X6493370Y1187458D01*
X6483846Y1177934D01*
X6464798Y1168410D01*
X6445751Y1168410D01*
X6426703Y1177934D01*
X6417179Y1187458D01*
X6407655Y1206505D01*
X6398132Y1244601D01*
X6398132Y1292220D01*
X6407655Y1330315D01*
X6417179Y1349363D01*
X6426703Y1358886D01*
X6445751Y1368410D01*
X6693370Y1368410D02*
X6598132Y1368410D01*
X6588608Y1273172D01*
X6598132Y1282696D01*
X6617179Y1292220D01*
X6664798Y1292220D01*
X6683846Y1282696D01*
X6693370Y1273172D01*
X6702893Y1254124D01*
X6702893Y1206505D01*
X6693370Y1187458D01*
X6683846Y1177934D01*
X6664798Y1168410D01*
X6617179Y1168410D01*
X6598132Y1177934D01*
X6588608Y1187458D01*
X6893370Y1168410D02*
X6779084Y1168410D01*
X6836227Y1168410D02*
X6836227Y1368410D01*
X6817179Y1339839D01*
X6798132Y1320791D01*
X6779084Y1311267D01*
X6969560Y1349363D02*
X6979084Y1358886D01*
X6998132Y1368410D01*
X7045751Y1368410D01*
X7064798Y1358886D01*
X7074322Y1349363D01*
X7083846Y1330315D01*
X7083846Y1311267D01*
X7074322Y1282696D01*
X6960036Y1168410D01*
X7083846Y1168410D01*
X7160036Y1368410D02*
X7160036Y1330315D01*
X7236227Y1368410D02*
X7236227Y1330315D01*
X7531465Y1092220D02*
X7521941Y1101744D01*
X7502893Y1130315D01*
X7493370Y1149363D01*
X7483846Y1177934D01*
X7474322Y1225553D01*
X7474322Y1263648D01*
X7483846Y1311267D01*
X7493370Y1339839D01*
X7502893Y1358886D01*
X7521941Y1387458D01*
X7531465Y1396982D01*
X7598132Y1349363D02*
X7607655Y1358886D01*
X7626703Y1368410D01*
X7674322Y1368410D01*
X7693370Y1358886D01*
X7702893Y1349363D01*
X7712417Y1330315D01*
X7712417Y1311267D01*
X7702893Y1282696D01*
X7588608Y1168410D01*
X7712417Y1168410D01*
X7950512Y1168410D02*
X7950512Y1368410D01*
X8036227Y1168410D02*
X8036227Y1273172D01*
X8026703Y1292220D01*
X8007655Y1301744D01*
X7979084Y1301744D01*
X7960036Y1292220D01*
X7950512Y1282696D01*
X8160036Y1168410D02*
X8140989Y1177934D01*
X8131465Y1187458D01*
X8121941Y1206505D01*
X8121941Y1263648D01*
X8131465Y1282696D01*
X8140989Y1292220D01*
X8160036Y1301744D01*
X8188608Y1301744D01*
X8207655Y1292220D01*
X8217179Y1282696D01*
X8226703Y1263648D01*
X8226703Y1206505D01*
X8217179Y1187458D01*
X8207655Y1177934D01*
X8188608Y1168410D01*
X8160036Y1168410D01*
X8340989Y1168410D02*
X8321941Y1177934D01*
X8312417Y1196982D01*
X8312417Y1368410D01*
X8493370Y1177934D02*
X8474322Y1168410D01*
X8436227Y1168410D01*
X8417179Y1177934D01*
X8407655Y1196982D01*
X8407655Y1273172D01*
X8417179Y1292220D01*
X8436227Y1301744D01*
X8474322Y1301744D01*
X8493370Y1292220D01*
X8502894Y1273172D01*
X8502894Y1254124D01*
X8407655Y1235077D01*
X8579084Y1177934D02*
X8598132Y1168410D01*
X8636227Y1168410D01*
X8655274Y1177934D01*
X8664798Y1196982D01*
X8664798Y1206505D01*
X8655274Y1225553D01*
X8636227Y1235077D01*
X8607655Y1235077D01*
X8588608Y1244601D01*
X8579084Y1263648D01*
X8579084Y1273172D01*
X8588608Y1292220D01*
X8607655Y1301744D01*
X8636227Y1301744D01*
X8655274Y1292220D01*
X8731465Y1092220D02*
X8740989Y1101744D01*
X8760036Y1130315D01*
X8769560Y1149363D01*
X8779084Y1177934D01*
X8788608Y1225553D01*
X8788608Y1263648D01*
X8779084Y1311267D01*
X8769560Y1339839D01*
X8760036Y1358886D01*
X8740989Y1387458D01*
X8731465Y1396982D01*
X3859560Y894886D02*
X3959560Y994886D01*
X3859560Y1094886D01*
X3759560Y994886D01*
X3859560Y894886D01*
X4207655Y1085363D02*
X4217179Y1094886D01*
X4236227Y1104410D01*
X4283846Y1104410D01*
X4302894Y1094886D01*
X4312417Y1085363D01*
X4321941Y1066315D01*
X4321941Y1047267D01*
X4312417Y1018696D01*
X4198132Y904410D01*
X4321941Y904410D01*
X4407655Y923458D02*
X4417179Y913934D01*
X4407655Y904410D01*
X4398132Y913934D01*
X4407655Y923458D01*
X4407655Y904410D01*
X4493370Y1085363D02*
X4502894Y1094886D01*
X4521941Y1104410D01*
X4569560Y1104410D01*
X4588608Y1094886D01*
X4598132Y1085363D01*
X4607655Y1066315D01*
X4607655Y1047267D01*
X4598132Y1018696D01*
X4483846Y904410D01*
X4607655Y904410D01*
X4731465Y1104410D02*
X4750513Y1104410D01*
X4769560Y1094886D01*
X4779084Y1085363D01*
X4788608Y1066315D01*
X4798132Y1028220D01*
X4798132Y980601D01*
X4788608Y942505D01*
X4779084Y923458D01*
X4769560Y913934D01*
X4750513Y904410D01*
X4731465Y904410D01*
X4712417Y913934D01*
X4702894Y923458D01*
X4693370Y942505D01*
X4683846Y980601D01*
X4683846Y1028220D01*
X4693370Y1066315D01*
X4702894Y1085363D01*
X4712417Y1094886D01*
X4731465Y1104410D01*
X4921941Y1104410D02*
X4940989Y1104410D01*
X4960036Y1094886D01*
X4969560Y1085363D01*
X4979084Y1066315D01*
X4988608Y1028220D01*
X4988608Y980601D01*
X4979084Y942505D01*
X4969560Y923458D01*
X4960036Y913934D01*
X4940989Y904410D01*
X4921941Y904410D01*
X4902894Y913934D01*
X4893370Y923458D01*
X4883846Y942505D01*
X4874322Y980601D01*
X4874322Y1028220D01*
X4883846Y1066315D01*
X4893370Y1085363D01*
X4902894Y1094886D01*
X4921941Y1104410D01*
X5074322Y904410D02*
X5074322Y1037743D01*
X5074322Y1018696D02*
X5083846Y1028220D01*
X5102894Y1037743D01*
X5131465Y1037743D01*
X5150513Y1028220D01*
X5160036Y1009172D01*
X5160036Y904410D01*
X5160036Y1009172D02*
X5169560Y1028220D01*
X5188608Y1037743D01*
X5217179Y1037743D01*
X5236227Y1028220D01*
X5245751Y1009172D01*
X5245751Y904410D01*
X5340989Y904410D02*
X5340989Y1037743D01*
X5340989Y1018696D02*
X5350513Y1028220D01*
X5369560Y1037743D01*
X5398132Y1037743D01*
X5417179Y1028220D01*
X5426703Y1009172D01*
X5426703Y904410D01*
X5426703Y1009172D02*
X5436227Y1028220D01*
X5455274Y1037743D01*
X5483846Y1037743D01*
X5502894Y1028220D01*
X5512417Y1009172D01*
X5512417Y904410D01*
X5902893Y1113934D02*
X5731465Y856791D01*
X6160036Y1104410D02*
X6179084Y1104410D01*
X6198132Y1094886D01*
X6207655Y1085363D01*
X6217179Y1066315D01*
X6226703Y1028220D01*
X6226703Y980601D01*
X6217179Y942505D01*
X6207655Y923458D01*
X6198132Y913934D01*
X6179084Y904410D01*
X6160036Y904410D01*
X6140989Y913934D01*
X6131465Y923458D01*
X6121941Y942505D01*
X6112417Y980601D01*
X6112417Y1028220D01*
X6121941Y1066315D01*
X6131465Y1085363D01*
X6140989Y1094886D01*
X6160036Y1104410D01*
X6312417Y923458D02*
X6321941Y913934D01*
X6312417Y904410D01*
X6302893Y913934D01*
X6312417Y923458D01*
X6312417Y904410D01*
X6445751Y1104410D02*
X6464798Y1104410D01*
X6483846Y1094886D01*
X6493370Y1085363D01*
X6502893Y1066315D01*
X6512417Y1028220D01*
X6512417Y980601D01*
X6502893Y942505D01*
X6493370Y923458D01*
X6483846Y913934D01*
X6464798Y904410D01*
X6445751Y904410D01*
X6426703Y913934D01*
X6417179Y923458D01*
X6407655Y942505D01*
X6398132Y980601D01*
X6398132Y1028220D01*
X6407655Y1066315D01*
X6417179Y1085363D01*
X6426703Y1094886D01*
X6445751Y1104410D01*
X6626703Y1018696D02*
X6607655Y1028220D01*
X6598132Y1037743D01*
X6588608Y1056791D01*
X6588608Y1066315D01*
X6598132Y1085363D01*
X6607655Y1094886D01*
X6626703Y1104410D01*
X6664798Y1104410D01*
X6683846Y1094886D01*
X6693370Y1085363D01*
X6702893Y1066315D01*
X6702893Y1056791D01*
X6693370Y1037743D01*
X6683846Y1028220D01*
X6664798Y1018696D01*
X6626703Y1018696D01*
X6607655Y1009172D01*
X6598132Y999648D01*
X6588608Y980601D01*
X6588608Y942505D01*
X6598132Y923458D01*
X6607655Y913934D01*
X6626703Y904410D01*
X6664798Y904410D01*
X6683846Y913934D01*
X6693370Y923458D01*
X6702893Y942505D01*
X6702893Y980601D01*
X6693370Y999648D01*
X6683846Y1009172D01*
X6664798Y1018696D01*
X6874322Y1104410D02*
X6836227Y1104410D01*
X6817179Y1094886D01*
X6807655Y1085363D01*
X6788608Y1056791D01*
X6779084Y1018696D01*
X6779084Y942505D01*
X6788608Y923458D01*
X6798132Y913934D01*
X6817179Y904410D01*
X6855274Y904410D01*
X6874322Y913934D01*
X6883846Y923458D01*
X6893370Y942505D01*
X6893370Y990124D01*
X6883846Y1009172D01*
X6874322Y1018696D01*
X6855274Y1028220D01*
X6817179Y1028220D01*
X6798132Y1018696D01*
X6788608Y1009172D01*
X6779084Y990124D01*
X7064798Y1104410D02*
X7026703Y1104410D01*
X7007655Y1094886D01*
X6998132Y1085363D01*
X6979084Y1056791D01*
X6969560Y1018696D01*
X6969560Y942505D01*
X6979084Y923458D01*
X6988608Y913934D01*
X7007655Y904410D01*
X7045751Y904410D01*
X7064798Y913934D01*
X7074322Y923458D01*
X7083846Y942505D01*
X7083846Y990124D01*
X7074322Y1009172D01*
X7064798Y1018696D01*
X7045751Y1028220D01*
X7007655Y1028220D01*
X6988608Y1018696D01*
X6979084Y1009172D01*
X6969560Y990124D01*
X7160036Y1104410D02*
X7160036Y1066315D01*
X7236227Y1104410D02*
X7236227Y1066315D01*
X7531465Y828220D02*
X7521941Y837743D01*
X7502893Y866315D01*
X7493370Y885362D01*
X7483846Y913934D01*
X7474322Y961553D01*
X7474322Y999648D01*
X7483846Y1047267D01*
X7493370Y1075839D01*
X7502893Y1094886D01*
X7521941Y1123458D01*
X7531465Y1132982D01*
X7588608Y1104410D02*
X7712417Y1104410D01*
X7645751Y1028220D01*
X7674322Y1028220D01*
X7693370Y1018696D01*
X7702893Y1009172D01*
X7712417Y990124D01*
X7712417Y942505D01*
X7702893Y923458D01*
X7693370Y913934D01*
X7674322Y904410D01*
X7617179Y904410D01*
X7598132Y913934D01*
X7588608Y923458D01*
X7950512Y904410D02*
X7950512Y1104410D01*
X8036227Y904410D02*
X8036227Y1009172D01*
X8026703Y1028220D01*
X8007655Y1037743D01*
X7979084Y1037743D01*
X7960036Y1028220D01*
X7950512Y1018696D01*
X8160036Y904410D02*
X8140989Y913934D01*
X8131465Y923458D01*
X8121941Y942505D01*
X8121941Y999648D01*
X8131465Y1018696D01*
X8140989Y1028220D01*
X8160036Y1037743D01*
X8188608Y1037743D01*
X8207655Y1028220D01*
X8217179Y1018696D01*
X8226703Y999648D01*
X8226703Y942505D01*
X8217179Y923458D01*
X8207655Y913934D01*
X8188608Y904410D01*
X8160036Y904410D01*
X8340989Y904410D02*
X8321941Y913934D01*
X8312417Y932982D01*
X8312417Y1104410D01*
X8493370Y913934D02*
X8474322Y904410D01*
X8436227Y904410D01*
X8417179Y913934D01*
X8407655Y932982D01*
X8407655Y1009172D01*
X8417179Y1028220D01*
X8436227Y1037743D01*
X8474322Y1037743D01*
X8493370Y1028220D01*
X8502894Y1009172D01*
X8502894Y990124D01*
X8407655Y971077D01*
X8579084Y913934D02*
X8598132Y904410D01*
X8636227Y904410D01*
X8655274Y913934D01*
X8664798Y932982D01*
X8664798Y942505D01*
X8655274Y961553D01*
X8636227Y971077D01*
X8607655Y971077D01*
X8588608Y980601D01*
X8579084Y999648D01*
X8579084Y1009172D01*
X8588608Y1028220D01*
X8607655Y1037743D01*
X8636227Y1037743D01*
X8655274Y1028220D01*
X8731465Y828220D02*
X8740989Y837743D01*
X8760036Y866315D01*
X8769560Y885362D01*
X8779084Y913934D01*
X8788608Y961553D01*
X8788608Y999648D01*
X8779084Y1047267D01*
X8769560Y1075839D01*
X8760036Y1094886D01*
X8740989Y1123458D01*
X8731465Y1132982D01*
M02*
