%FSLAX45Y45*%
G04 Gerber Fmt 4.5, Leading zero omitted, Abs format (unit mm)*
G04 Created by KiCad (PCBNEW (6.0.4)) date 2022-05-14 00:32:00*
%MOMM*%
%LPD*%
G01*
G04 APERTURE LIST*
%TA.AperFunction,Profile*%
%ADD10C,0.150000*%
%TD*%
%ADD11C,0.200000*%
%ADD12C,0.090000*%
%ADD13C,0.170180*%
%ADD14C,0.300000*%
%ADD15C,0.342900*%
G04 APERTURE END LIST*
D10*
X6170445Y11277677D02*
X8054931Y11609963D01*
X12370800Y4001870D02*
G75*
G03*
X11802911Y4178674I-740936J-1379436D01*
G01*
X15800203Y2841879D02*
X16368021Y3847661D01*
X6170445Y11277677D02*
G75*
G03*
X6008214Y11045986I34728J-196960D01*
G01*
X12594531Y11403010D02*
G75*
G03*
X12340531Y11682410I-271532J8307D01*
G01*
X8219440Y11824356D02*
X8197736Y12072438D01*
X8054931Y11609963D02*
G75*
G03*
X8219440Y11824356I-34725J196958D01*
G01*
X16471964Y4226311D02*
X16475367Y10390894D01*
X10210049Y12248493D02*
G75*
G03*
X9993379Y12430301I-199235J-17426D01*
G01*
X15351920Y2721270D02*
G75*
G03*
X15800203Y2841879I135506J389750D01*
G01*
X3977676Y8814575D02*
X5041217Y5584323D01*
X16475367Y10390894D02*
G75*
G03*
X16237240Y10661353I-253549J16821D01*
G01*
X11802911Y4178674D02*
X5209704Y5401304D01*
X6008214Y11045986D02*
X6159180Y10185872D01*
X10447090Y11698947D02*
X12340531Y11682410D01*
X15351920Y2721270D02*
X12370800Y4001870D01*
X8379543Y12289109D02*
G75*
G03*
X8197736Y12072439I17428J-199237D01*
G01*
X8379543Y12289109D02*
X9993379Y12430301D01*
X16237240Y10661353D02*
X12807851Y10666057D01*
X12604956Y10868750D02*
X12594531Y11403010D01*
X10210049Y12248493D02*
X10247851Y11881516D01*
X5041217Y5584323D02*
G75*
G03*
X5209704Y5401304I284370J92726D01*
G01*
X12604956Y10868750D02*
G75*
G03*
X12807851Y10666057I208330J5644D01*
G01*
X4041958Y9036370D02*
X6085240Y9976590D01*
X6085240Y9976590D02*
G75*
G03*
X6159180Y10185872I-151735J171311D01*
G01*
X10247851Y11881516D02*
G75*
G03*
X10447090Y11698947I199247J17439D01*
G01*
X4041958Y9036370D02*
G75*
G03*
X3977676Y8814575I127372J-157129D01*
G01*
X16368021Y3847661D02*
G75*
G03*
X16471964Y4226311I-780625J417881D01*
G01*
D11*
D12*
X16211022Y5765803D02*
X16301022Y5675803D01*
X16301022Y5765803D02*
X16211022Y5675803D01*
X16211022Y5465803D02*
X16301022Y5375803D01*
X16301022Y5465803D02*
X16211022Y5375803D01*
D13*
X4843348Y8112192D02*
G75*
G03*
X4843348Y8112192I-85090J0D01*
G01*
X4843348Y8112192D02*
G75*
G03*
X4843348Y8112192I-85090J0D01*
G01*
X5340380Y6486474D02*
G75*
G03*
X5340380Y6486474I-85090J0D01*
G01*
X5340380Y6486474D02*
G75*
G03*
X5340380Y6486474I-85090J0D01*
G01*
X5895283Y8433801D02*
G75*
G03*
X5895283Y8433801I-85090J0D01*
G01*
X5895283Y8433801D02*
G75*
G03*
X5895283Y8433801I-85090J0D01*
G01*
X6392315Y6808083D02*
G75*
G03*
X6392315Y6808083I-85090J0D01*
G01*
X6392315Y6808083D02*
G75*
G03*
X6392315Y6808083I-85090J0D01*
G01*
X6682157Y10379000D02*
G75*
G03*
X6682157Y10379000I-85090J0D01*
G01*
X6682157Y10379000D02*
G75*
G03*
X6682157Y10379000I-85090J0D01*
G01*
X6977359Y8704827D02*
G75*
G03*
X6977359Y8704827I-85090J0D01*
G01*
X6977359Y8704827D02*
G75*
G03*
X6977359Y8704827I-85090J0D01*
G01*
X7272560Y7030654D02*
G75*
G03*
X7272560Y7030654I-85090J0D01*
G01*
X7272560Y7030654D02*
G75*
G03*
X7272560Y7030654I-85090J0D01*
G01*
X7765445Y10570013D02*
G75*
G03*
X7765445Y10570013I-85090J0D01*
G01*
X7765445Y10570013D02*
G75*
G03*
X7765445Y10570013I-85090J0D01*
G01*
X8060647Y8895840D02*
G75*
G03*
X8060647Y8895840I-85090J0D01*
G01*
X8060647Y8895840D02*
G75*
G03*
X8060647Y8895840I-85090J0D01*
G01*
X8355849Y7221667D02*
G75*
G03*
X8355849Y7221667I-85090J0D01*
G01*
X8355849Y7221667D02*
G75*
G03*
X8355849Y7221667I-85090J0D01*
G01*
X8811183Y11357012D02*
G75*
G03*
X8811183Y11357012I-85090J0D01*
G01*
X8811183Y11357012D02*
G75*
G03*
X8811183Y11357012I-85090J0D01*
G01*
X8959347Y9663481D02*
G75*
G03*
X8959347Y9663481I-85090J0D01*
G01*
X8959347Y9663481D02*
G75*
G03*
X8959347Y9663481I-85090J0D01*
G01*
X9107512Y7969950D02*
G75*
G03*
X9107512Y7969950I-85090J0D01*
G01*
X9107512Y7969950D02*
G75*
G03*
X9107512Y7969950I-85090J0D01*
G01*
X9906997Y11452883D02*
G75*
G03*
X9906997Y11452883I-85090J0D01*
G01*
X9906997Y11452883D02*
G75*
G03*
X9906997Y11452883I-85090J0D01*
G01*
X10055161Y9759352D02*
G75*
G03*
X10055161Y9759352I-85090J0D01*
G01*
X10055161Y9759352D02*
G75*
G03*
X10055161Y9759352I-85090J0D01*
G01*
X10203326Y8065821D02*
G75*
G03*
X10203326Y8065821I-85090J0D01*
G01*
X10203326Y8065821D02*
G75*
G03*
X10203326Y8065821I-85090J0D01*
G01*
X11076199Y10668602D02*
G75*
G03*
X11076199Y10668602I-85090J0D01*
G01*
X11076199Y10668602D02*
G75*
G03*
X11076199Y10668602I-85090J0D01*
G01*
X11076199Y8968602D02*
G75*
G03*
X11076199Y8968602I-85090J0D01*
G01*
X11076199Y8968602D02*
G75*
G03*
X11076199Y8968602I-85090J0D01*
G01*
X11076199Y7268602D02*
G75*
G03*
X11076199Y7268602I-85090J0D01*
G01*
X11076199Y7268602D02*
G75*
G03*
X11076199Y7268602I-85090J0D01*
G01*
X12176199Y10668602D02*
G75*
G03*
X12176199Y10668602I-85090J0D01*
G01*
X12176199Y10668602D02*
G75*
G03*
X12176199Y10668602I-85090J0D01*
G01*
X12176199Y8968602D02*
G75*
G03*
X12176199Y8968602I-85090J0D01*
G01*
X12176199Y8968602D02*
G75*
G03*
X12176199Y8968602I-85090J0D01*
G01*
X12176199Y7268602D02*
G75*
G03*
X12176199Y7268602I-85090J0D01*
G01*
X12176199Y7268602D02*
G75*
G03*
X12176199Y7268602I-85090J0D01*
G01*
X12942935Y5046224D02*
G75*
G03*
X12942935Y5046224I-85090J0D01*
G01*
X12942935Y5046224D02*
G75*
G03*
X12942935Y5046224I-85090J0D01*
G01*
X12954290Y9634250D02*
G75*
G03*
X12954290Y9634250I-85090J0D01*
G01*
X12954290Y9634250D02*
G75*
G03*
X12954290Y9634250I-85090J0D01*
G01*
X12954290Y7934250D02*
G75*
G03*
X12954290Y7934250I-85090J0D01*
G01*
X12954290Y7934250D02*
G75*
G03*
X12954290Y7934250I-85090J0D01*
G01*
X14005454Y4761523D02*
G75*
G03*
X14005454Y4761523I-85090J0D01*
G01*
X14005454Y4761523D02*
G75*
G03*
X14005454Y4761523I-85090J0D01*
G01*
X14054290Y9634250D02*
G75*
G03*
X14054290Y9634250I-85090J0D01*
G01*
X14054290Y9634250D02*
G75*
G03*
X14054290Y9634250I-85090J0D01*
G01*
X14054290Y7934250D02*
G75*
G03*
X14054290Y7934250I-85090J0D01*
G01*
X14054290Y7934250D02*
G75*
G03*
X14054290Y7934250I-85090J0D01*
G01*
X14851640Y4411021D02*
G75*
G03*
X14851640Y4411021I-85090J0D01*
G01*
X14851640Y4411021D02*
G75*
G03*
X14851640Y4411021I-85090J0D01*
G01*
X15804268Y3861021D02*
G75*
G03*
X15804268Y3861021I-85090J0D01*
G01*
X15804268Y3861021D02*
G75*
G03*
X15804268Y3861021I-85090J0D01*
G01*
D14*
X4696434Y8635425D02*
X4696434Y8335425D01*
X4546434Y8485425D02*
X4846434Y8485425D01*
X5110265Y8991998D02*
X5110265Y8691998D01*
X4960265Y8841998D02*
X5260265Y8841998D01*
X5110265Y8991998D02*
X5110265Y8691998D01*
X4960265Y8841998D02*
X5260265Y8841998D01*
X5193466Y7009707D02*
X5193466Y6709707D01*
X5043466Y6859707D02*
X5343466Y6859707D01*
X5607297Y7366279D02*
X5607297Y7066279D01*
X5457297Y7216279D02*
X5757297Y7216279D01*
X5607297Y7366279D02*
X5607297Y7066279D01*
X5457297Y7216279D02*
X5757297Y7216279D01*
X5652739Y8927796D02*
X5652739Y8627796D01*
X5502739Y8777796D02*
X5802739Y8777796D01*
X6149771Y7302078D02*
X6149771Y7002078D01*
X5999771Y7152078D02*
X6299771Y7152078D01*
X6581189Y10906986D02*
X6581189Y10606986D01*
X6431189Y10756986D02*
X6731189Y10756986D01*
X6876391Y9232812D02*
X6876391Y8932812D01*
X6726391Y9082812D02*
X7026391Y9082812D01*
X7035390Y11210467D02*
X7035390Y10910467D01*
X6885390Y11060467D02*
X7185390Y11060467D01*
X7035390Y11210467D02*
X7035390Y10910467D01*
X6885390Y11060467D02*
X7185390Y11060467D01*
X7171593Y7558639D02*
X7171593Y7258639D01*
X7021593Y7408639D02*
X7321593Y7408639D01*
X7330592Y9536294D02*
X7330592Y9236294D01*
X7180592Y9386294D02*
X7480592Y9386294D01*
X7330592Y9536294D02*
X7330592Y9236294D01*
X7180592Y9386294D02*
X7480592Y9386294D01*
X7565997Y11080634D02*
X7565997Y10780634D01*
X7415997Y10930634D02*
X7715997Y10930634D01*
X7625794Y7862121D02*
X7625794Y7562121D01*
X7475794Y7712121D02*
X7775794Y7712121D01*
X7625794Y7862121D02*
X7625794Y7562121D01*
X7475794Y7712121D02*
X7775794Y7712121D01*
X7861199Y9406461D02*
X7861199Y9106461D01*
X7711199Y9256461D02*
X8011199Y9256461D01*
X8156401Y7732287D02*
X8156401Y7432287D01*
X8006401Y7582287D02*
X8306401Y7582287D01*
X8743219Y11884943D02*
X8743219Y11584943D01*
X8593219Y11734943D02*
X8893219Y11734943D01*
X8891384Y10191412D02*
X8891384Y9891412D01*
X8741384Y10041412D02*
X9041384Y10041412D01*
X9039548Y8497881D02*
X9039548Y8197881D01*
X8889548Y8347881D02*
X9189548Y8347881D01*
X9222142Y12147683D02*
X9222142Y11847683D01*
X9072142Y11997683D02*
X9372142Y11997683D01*
X9222142Y12147683D02*
X9222142Y11847683D01*
X9072142Y11997683D02*
X9372142Y11997683D01*
X9370307Y10454153D02*
X9370307Y10154153D01*
X9220307Y10304153D02*
X9520307Y10304153D01*
X9370307Y10454153D02*
X9370307Y10154153D01*
X9220307Y10304153D02*
X9520307Y10304153D01*
X9518471Y8760622D02*
X9518471Y8460622D01*
X9368471Y8610622D02*
X9668471Y8610622D01*
X9518471Y8760622D02*
X9518471Y8460622D01*
X9368471Y8610622D02*
X9668471Y8610622D01*
X9739414Y11972099D02*
X9739414Y11672099D01*
X9589414Y11822099D02*
X9889414Y11822099D01*
X9887578Y10278568D02*
X9887578Y9978568D01*
X9737578Y10128568D02*
X10037578Y10128568D01*
X10035743Y8585037D02*
X10035743Y8285037D01*
X9885743Y8435037D02*
X10185743Y8435037D01*
X11041109Y11193602D02*
X11041109Y10893602D01*
X10891109Y11043602D02*
X11191109Y11043602D01*
X11041109Y9493602D02*
X11041109Y9193602D01*
X10891109Y9343602D02*
X11191109Y9343602D01*
X11041109Y7793602D02*
X11041109Y7493602D01*
X10891109Y7643602D02*
X11191109Y7643602D01*
X11541109Y11413602D02*
X11541109Y11113602D01*
X11391109Y11263602D02*
X11691109Y11263602D01*
X11541109Y11413602D02*
X11541109Y11113602D01*
X11391109Y11263602D02*
X11691109Y11263602D01*
X11541109Y9713602D02*
X11541109Y9413602D01*
X11391109Y9563602D02*
X11691109Y9563602D01*
X11541109Y9713602D02*
X11541109Y9413602D01*
X11391109Y9563602D02*
X11691109Y9563602D01*
X11541109Y8013602D02*
X11541109Y7713602D01*
X11391109Y7863602D02*
X11691109Y7863602D01*
X11541109Y8013602D02*
X11541109Y7713602D01*
X11391109Y7863602D02*
X11691109Y7863602D01*
X12041109Y11193602D02*
X12041109Y10893602D01*
X11891109Y11043602D02*
X12191109Y11043602D01*
X12041109Y9493602D02*
X12041109Y9193602D01*
X11891109Y9343602D02*
X12191109Y9343602D01*
X12041109Y7793602D02*
X12041109Y7493602D01*
X11891109Y7643602D02*
X12191109Y7643602D01*
X12919200Y10159250D02*
X12919200Y9859250D01*
X12769200Y10009250D02*
X13069200Y10009250D01*
X12919200Y8459250D02*
X12919200Y8159250D01*
X12769200Y8309250D02*
X13069200Y8309250D01*
X13003199Y5545506D02*
X13003199Y5245506D01*
X12853199Y5395506D02*
X13153199Y5395506D01*
X13419200Y10379250D02*
X13419200Y10079250D01*
X13269200Y10229250D02*
X13569200Y10229250D01*
X13419200Y10379250D02*
X13419200Y10079250D01*
X13269200Y10229250D02*
X13569200Y10229250D01*
X13419200Y8679250D02*
X13419200Y8379250D01*
X13269200Y8529250D02*
X13569200Y8529250D01*
X13419200Y8679250D02*
X13419200Y8379250D01*
X13269200Y8529250D02*
X13569200Y8529250D01*
X13543102Y5628600D02*
X13543102Y5328600D01*
X13393102Y5478600D02*
X13693102Y5478600D01*
X13543102Y5628600D02*
X13543102Y5328600D01*
X13393102Y5478600D02*
X13693102Y5478600D01*
X13919200Y10159250D02*
X13919200Y9859250D01*
X13769200Y10009250D02*
X14069200Y10009250D01*
X13919200Y8459250D02*
X13919200Y8159250D01*
X13769200Y8309250D02*
X14069200Y8309250D01*
X13969125Y5286687D02*
X13969125Y4986687D01*
X13819125Y5136687D02*
X14119125Y5136687D01*
X14997352Y4860781D02*
X14997352Y4560781D01*
X14847352Y4710781D02*
X15147352Y4710781D01*
X15540364Y4801306D02*
X15540364Y4501306D01*
X15390364Y4651306D02*
X15690364Y4651306D01*
X15540364Y4801306D02*
X15540364Y4501306D01*
X15390364Y4651306D02*
X15690364Y4651306D01*
X15863377Y4360781D02*
X15863377Y4060781D01*
X15713377Y4210781D02*
X16013377Y4210781D01*
D15*
X5405461Y8151762D02*
X5405461Y8394231D01*
X5162991Y8394231D01*
X5162991Y8151762D01*
X5405461Y8151762D01*
X5405461Y8151762D02*
X5405461Y8394231D01*
X5162991Y8394231D01*
X5162991Y8151762D01*
X5405461Y8151762D01*
X5902492Y6526044D02*
X5902492Y6768513D01*
X5660023Y6768513D01*
X5660023Y6526044D01*
X5902492Y6526044D01*
X5902492Y6526044D02*
X5902492Y6768513D01*
X5660023Y6768513D01*
X5660023Y6526044D01*
X5902492Y6526044D01*
X7259946Y10353272D02*
X7259946Y10595741D01*
X7017476Y10595741D01*
X7017476Y10353272D01*
X7259946Y10353272D01*
X7259946Y10353272D02*
X7259946Y10595741D01*
X7017476Y10595741D01*
X7017476Y10353272D01*
X7259946Y10353272D01*
X7555147Y8679099D02*
X7555147Y8921568D01*
X7312678Y8921568D01*
X7312678Y8679099D01*
X7555147Y8679099D01*
X7555147Y8679099D02*
X7555147Y8921568D01*
X7312678Y8921568D01*
X7312678Y8679099D01*
X7555147Y8679099D01*
X7850349Y7004926D02*
X7850349Y7247395D01*
X7607880Y7247395D01*
X7607880Y7004926D01*
X7850349Y7004926D01*
X7850349Y7004926D02*
X7850349Y7247395D01*
X7607880Y7247395D01*
X7607880Y7004926D01*
X7850349Y7004926D01*
X9395234Y11283713D02*
X9395234Y11526182D01*
X9152765Y11526182D01*
X9152765Y11283713D01*
X9395234Y11283713D01*
X9395234Y11283713D02*
X9395234Y11526182D01*
X9152765Y11526182D01*
X9152765Y11283713D01*
X9395234Y11283713D01*
X9543399Y9590182D02*
X9543399Y9832651D01*
X9300930Y9832651D01*
X9300930Y9590182D01*
X9543399Y9590182D01*
X9543399Y9590182D02*
X9543399Y9832651D01*
X9300930Y9832651D01*
X9300930Y9590182D01*
X9543399Y9590182D01*
X9691564Y7896651D02*
X9691564Y8139120D01*
X9449095Y8139120D01*
X9449095Y7896651D01*
X9691564Y7896651D01*
X9691564Y7896651D02*
X9691564Y8139120D01*
X9449095Y8139120D01*
X9449095Y7896651D01*
X9691564Y7896651D01*
X11662343Y10547367D02*
X11662343Y10789836D01*
X11419874Y10789836D01*
X11419874Y10547367D01*
X11662343Y10547367D01*
X11662343Y10547367D02*
X11662343Y10789836D01*
X11419874Y10789836D01*
X11419874Y10547367D01*
X11662343Y10547367D01*
X11662343Y8847367D02*
X11662343Y9089836D01*
X11419874Y9089836D01*
X11419874Y8847367D01*
X11662343Y8847367D01*
X11662343Y8847367D02*
X11662343Y9089836D01*
X11419874Y9089836D01*
X11419874Y8847367D01*
X11662343Y8847367D01*
X11662343Y7147367D02*
X11662343Y7389836D01*
X11419874Y7389836D01*
X11419874Y7147367D01*
X11662343Y7147367D01*
X11662343Y7147367D02*
X11662343Y7389836D01*
X11419874Y7389836D01*
X11419874Y7147367D01*
X11662343Y7147367D01*
X13510339Y4782639D02*
X13510339Y5025108D01*
X13267870Y5025108D01*
X13267870Y4782639D01*
X13510339Y4782639D01*
X13510339Y4782639D02*
X13510339Y5025108D01*
X13267870Y5025108D01*
X13267870Y4782639D01*
X13510339Y4782639D01*
X13540435Y9513015D02*
X13540435Y9755485D01*
X13297965Y9755485D01*
X13297965Y9513015D01*
X13540435Y9513015D01*
X13540435Y9513015D02*
X13540435Y9755485D01*
X13297965Y9755485D01*
X13297965Y9513015D01*
X13540435Y9513015D01*
X13540435Y7813015D02*
X13540435Y8055485D01*
X13297965Y8055485D01*
X13297965Y7813015D01*
X13540435Y7813015D01*
X13540435Y7813015D02*
X13540435Y8055485D01*
X13297965Y8055485D01*
X13297965Y7813015D01*
X13540435Y7813015D01*
X15364099Y4014787D02*
X15364099Y4257256D01*
X15121630Y4257256D01*
X15121630Y4014787D01*
X15364099Y4014787D01*
X15364099Y4014787D02*
X15364099Y4257256D01*
X15121630Y4257256D01*
X15121630Y4014787D01*
X15364099Y4014787D01*
D11*
X4217179Y2380410D02*
X4217179Y2580410D01*
X4264798Y2580410D01*
X4293370Y2570886D01*
X4312417Y2551839D01*
X4321941Y2532791D01*
X4331465Y2494696D01*
X4331465Y2466124D01*
X4321941Y2428029D01*
X4312417Y2408982D01*
X4293370Y2389934D01*
X4264798Y2380410D01*
X4217179Y2380410D01*
X4417179Y2380410D02*
X4417179Y2513744D01*
X4417179Y2475648D02*
X4426703Y2494696D01*
X4436227Y2504220D01*
X4455274Y2513744D01*
X4474322Y2513744D01*
X4540989Y2380410D02*
X4540989Y2513744D01*
X4540989Y2580410D02*
X4531465Y2570886D01*
X4540989Y2561363D01*
X4550513Y2570886D01*
X4540989Y2580410D01*
X4540989Y2561363D01*
X4664798Y2380410D02*
X4645751Y2389934D01*
X4636227Y2408982D01*
X4636227Y2580410D01*
X4769560Y2380410D02*
X4750513Y2389934D01*
X4740989Y2408982D01*
X4740989Y2580410D01*
X4998132Y2380410D02*
X4998132Y2580410D01*
X5064798Y2437553D01*
X5131465Y2580410D01*
X5131465Y2380410D01*
X5312417Y2380410D02*
X5312417Y2485172D01*
X5302894Y2504220D01*
X5283846Y2513744D01*
X5245751Y2513744D01*
X5226703Y2504220D01*
X5312417Y2389934D02*
X5293370Y2380410D01*
X5245751Y2380410D01*
X5226703Y2389934D01*
X5217179Y2408982D01*
X5217179Y2428029D01*
X5226703Y2447077D01*
X5245751Y2456601D01*
X5293370Y2456601D01*
X5312417Y2466124D01*
X5407655Y2513744D02*
X5407655Y2313744D01*
X5407655Y2504220D02*
X5426703Y2513744D01*
X5464798Y2513744D01*
X5483846Y2504220D01*
X5493370Y2494696D01*
X5502894Y2475648D01*
X5502894Y2418505D01*
X5493370Y2399458D01*
X5483846Y2389934D01*
X5464798Y2380410D01*
X5426703Y2380410D01*
X5407655Y2389934D01*
X5588608Y2399458D02*
X5598132Y2389934D01*
X5588608Y2380410D01*
X5579084Y2389934D01*
X5588608Y2399458D01*
X5588608Y2380410D01*
X5588608Y2504220D02*
X5598132Y2494696D01*
X5588608Y2485172D01*
X5579084Y2494696D01*
X5588608Y2504220D01*
X5588608Y2485172D01*
D12*
X3869560Y2095886D02*
X3959560Y2005886D01*
X3959560Y2095886D02*
X3869560Y2005886D01*
D11*
X4255274Y2160410D02*
X4274322Y2160410D01*
X4293370Y2150886D01*
X4302894Y2141363D01*
X4312417Y2122315D01*
X4321941Y2084220D01*
X4321941Y2036601D01*
X4312417Y1998505D01*
X4302894Y1979458D01*
X4293370Y1969934D01*
X4274322Y1960410D01*
X4255274Y1960410D01*
X4236227Y1969934D01*
X4226703Y1979458D01*
X4217179Y1998505D01*
X4207655Y2036601D01*
X4207655Y2084220D01*
X4217179Y2122315D01*
X4226703Y2141363D01*
X4236227Y2150886D01*
X4255274Y2160410D01*
X4407655Y1979458D02*
X4417179Y1969934D01*
X4407655Y1960410D01*
X4398132Y1969934D01*
X4407655Y1979458D01*
X4407655Y1960410D01*
X4512417Y1960410D02*
X4550513Y1960410D01*
X4569560Y1969934D01*
X4579084Y1979458D01*
X4598132Y2008029D01*
X4607655Y2046124D01*
X4607655Y2122315D01*
X4598132Y2141363D01*
X4588608Y2150886D01*
X4569560Y2160410D01*
X4531465Y2160410D01*
X4512417Y2150886D01*
X4502894Y2141363D01*
X4493370Y2122315D01*
X4493370Y2074696D01*
X4502894Y2055648D01*
X4512417Y2046124D01*
X4531465Y2036601D01*
X4569560Y2036601D01*
X4588608Y2046124D01*
X4598132Y2055648D01*
X4607655Y2074696D01*
X4731465Y2160410D02*
X4750513Y2160410D01*
X4769560Y2150886D01*
X4779084Y2141363D01*
X4788608Y2122315D01*
X4798132Y2084220D01*
X4798132Y2036601D01*
X4788608Y1998505D01*
X4779084Y1979458D01*
X4769560Y1969934D01*
X4750513Y1960410D01*
X4731465Y1960410D01*
X4712417Y1969934D01*
X4702894Y1979458D01*
X4693370Y1998505D01*
X4683846Y2036601D01*
X4683846Y2084220D01*
X4693370Y2122315D01*
X4702894Y2141363D01*
X4712417Y2150886D01*
X4731465Y2160410D01*
X4921941Y2160410D02*
X4940989Y2160410D01*
X4960036Y2150886D01*
X4969560Y2141363D01*
X4979084Y2122315D01*
X4988608Y2084220D01*
X4988608Y2036601D01*
X4979084Y1998505D01*
X4969560Y1979458D01*
X4960036Y1969934D01*
X4940989Y1960410D01*
X4921941Y1960410D01*
X4902894Y1969934D01*
X4893370Y1979458D01*
X4883846Y1998505D01*
X4874322Y2036601D01*
X4874322Y2084220D01*
X4883846Y2122315D01*
X4893370Y2141363D01*
X4902894Y2150886D01*
X4921941Y2160410D01*
X5074322Y1960410D02*
X5074322Y2093743D01*
X5074322Y2074696D02*
X5083846Y2084220D01*
X5102894Y2093743D01*
X5131465Y2093743D01*
X5150513Y2084220D01*
X5160036Y2065172D01*
X5160036Y1960410D01*
X5160036Y2065172D02*
X5169560Y2084220D01*
X5188608Y2093743D01*
X5217179Y2093743D01*
X5236227Y2084220D01*
X5245751Y2065172D01*
X5245751Y1960410D01*
X5340989Y1960410D02*
X5340989Y2093743D01*
X5340989Y2074696D02*
X5350513Y2084220D01*
X5369560Y2093743D01*
X5398132Y2093743D01*
X5417179Y2084220D01*
X5426703Y2065172D01*
X5426703Y1960410D01*
X5426703Y2065172D02*
X5436227Y2084220D01*
X5455274Y2093743D01*
X5483846Y2093743D01*
X5502894Y2084220D01*
X5512417Y2065172D01*
X5512417Y1960410D01*
X5902893Y2169934D02*
X5731465Y1912791D01*
X6160036Y2160410D02*
X6179084Y2160410D01*
X6198132Y2150886D01*
X6207655Y2141363D01*
X6217179Y2122315D01*
X6226703Y2084220D01*
X6226703Y2036601D01*
X6217179Y1998505D01*
X6207655Y1979458D01*
X6198132Y1969934D01*
X6179084Y1960410D01*
X6160036Y1960410D01*
X6140989Y1969934D01*
X6131465Y1979458D01*
X6121941Y1998505D01*
X6112417Y2036601D01*
X6112417Y2084220D01*
X6121941Y2122315D01*
X6131465Y2141363D01*
X6140989Y2150886D01*
X6160036Y2160410D01*
X6312417Y1979458D02*
X6321941Y1969934D01*
X6312417Y1960410D01*
X6302893Y1969934D01*
X6312417Y1979458D01*
X6312417Y1960410D01*
X6445751Y2160410D02*
X6464798Y2160410D01*
X6483846Y2150886D01*
X6493370Y2141363D01*
X6502893Y2122315D01*
X6512417Y2084220D01*
X6512417Y2036601D01*
X6502893Y1998505D01*
X6493370Y1979458D01*
X6483846Y1969934D01*
X6464798Y1960410D01*
X6445751Y1960410D01*
X6426703Y1969934D01*
X6417179Y1979458D01*
X6407655Y1998505D01*
X6398132Y2036601D01*
X6398132Y2084220D01*
X6407655Y2122315D01*
X6417179Y2141363D01*
X6426703Y2150886D01*
X6445751Y2160410D01*
X6579084Y2160410D02*
X6702893Y2160410D01*
X6636227Y2084220D01*
X6664798Y2084220D01*
X6683846Y2074696D01*
X6693370Y2065172D01*
X6702893Y2046124D01*
X6702893Y1998505D01*
X6693370Y1979458D01*
X6683846Y1969934D01*
X6664798Y1960410D01*
X6607655Y1960410D01*
X6588608Y1969934D01*
X6579084Y1979458D01*
X6883846Y2160410D02*
X6788608Y2160410D01*
X6779084Y2065172D01*
X6788608Y2074696D01*
X6807655Y2084220D01*
X6855274Y2084220D01*
X6874322Y2074696D01*
X6883846Y2065172D01*
X6893370Y2046124D01*
X6893370Y1998505D01*
X6883846Y1979458D01*
X6874322Y1969934D01*
X6855274Y1960410D01*
X6807655Y1960410D01*
X6788608Y1969934D01*
X6779084Y1979458D01*
X7064798Y2093743D02*
X7064798Y1960410D01*
X7017179Y2169934D02*
X6969560Y2027077D01*
X7093370Y2027077D01*
X7160036Y2160410D02*
X7160036Y2122315D01*
X7236227Y2160410D02*
X7236227Y2122315D01*
X7531465Y1884220D02*
X7521941Y1893743D01*
X7502893Y1922315D01*
X7493370Y1941362D01*
X7483846Y1969934D01*
X7474322Y2017553D01*
X7474322Y2055648D01*
X7483846Y2103267D01*
X7493370Y2131839D01*
X7502893Y2150886D01*
X7521941Y2179458D01*
X7531465Y2188982D01*
X7598132Y2141363D02*
X7607655Y2150886D01*
X7626703Y2160410D01*
X7674322Y2160410D01*
X7693370Y2150886D01*
X7702893Y2141363D01*
X7712417Y2122315D01*
X7712417Y2103267D01*
X7702893Y2074696D01*
X7588608Y1960410D01*
X7712417Y1960410D01*
X7950512Y1960410D02*
X7950512Y2160410D01*
X8036227Y1960410D02*
X8036227Y2065172D01*
X8026703Y2084220D01*
X8007655Y2093743D01*
X7979084Y2093743D01*
X7960036Y2084220D01*
X7950512Y2074696D01*
X8160036Y1960410D02*
X8140989Y1969934D01*
X8131465Y1979458D01*
X8121941Y1998505D01*
X8121941Y2055648D01*
X8131465Y2074696D01*
X8140989Y2084220D01*
X8160036Y2093743D01*
X8188608Y2093743D01*
X8207655Y2084220D01*
X8217179Y2074696D01*
X8226703Y2055648D01*
X8226703Y1998505D01*
X8217179Y1979458D01*
X8207655Y1969934D01*
X8188608Y1960410D01*
X8160036Y1960410D01*
X8340989Y1960410D02*
X8321941Y1969934D01*
X8312417Y1988982D01*
X8312417Y2160410D01*
X8493370Y1969934D02*
X8474322Y1960410D01*
X8436227Y1960410D01*
X8417179Y1969934D01*
X8407655Y1988982D01*
X8407655Y2065172D01*
X8417179Y2084220D01*
X8436227Y2093743D01*
X8474322Y2093743D01*
X8493370Y2084220D01*
X8502894Y2065172D01*
X8502894Y2046124D01*
X8407655Y2027077D01*
X8579084Y1969934D02*
X8598132Y1960410D01*
X8636227Y1960410D01*
X8655274Y1969934D01*
X8664798Y1988982D01*
X8664798Y1998505D01*
X8655274Y2017553D01*
X8636227Y2027077D01*
X8607655Y2027077D01*
X8588608Y2036601D01*
X8579084Y2055648D01*
X8579084Y2065172D01*
X8588608Y2084220D01*
X8607655Y2093743D01*
X8636227Y2093743D01*
X8655274Y2084220D01*
X8731465Y1884220D02*
X8740989Y1893743D01*
X8760036Y1922315D01*
X8769560Y1941362D01*
X8779084Y1969934D01*
X8788608Y2017553D01*
X8788608Y2055648D01*
X8779084Y2103267D01*
X8769560Y2131839D01*
X8760036Y2150886D01*
X8740989Y2179458D01*
X8731465Y2188982D01*
X9093370Y1884220D02*
X9083846Y1893743D01*
X9064798Y1922315D01*
X9055274Y1941362D01*
X9045751Y1969934D01*
X9036227Y2017553D01*
X9036227Y2055648D01*
X9045751Y2103267D01*
X9055274Y2131839D01*
X9064798Y2150886D01*
X9083846Y2179458D01*
X9093370Y2188982D01*
X9169560Y2093743D02*
X9169560Y1960410D01*
X9169560Y2074696D02*
X9179084Y2084220D01*
X9198132Y2093743D01*
X9226703Y2093743D01*
X9245751Y2084220D01*
X9255274Y2065172D01*
X9255274Y1960410D01*
X9379084Y1960410D02*
X9360036Y1969934D01*
X9350513Y1979458D01*
X9340989Y1998505D01*
X9340989Y2055648D01*
X9350513Y2074696D01*
X9360036Y2084220D01*
X9379084Y2093743D01*
X9407655Y2093743D01*
X9426703Y2084220D01*
X9436227Y2074696D01*
X9445751Y2055648D01*
X9445751Y1998505D01*
X9436227Y1979458D01*
X9426703Y1969934D01*
X9407655Y1960410D01*
X9379084Y1960410D01*
X9502894Y2093743D02*
X9579084Y2093743D01*
X9531465Y2160410D02*
X9531465Y1988982D01*
X9540989Y1969934D01*
X9560036Y1960410D01*
X9579084Y1960410D01*
X9798132Y2093743D02*
X9798132Y1893743D01*
X9798132Y2084220D02*
X9817179Y2093743D01*
X9855274Y2093743D01*
X9874322Y2084220D01*
X9883846Y2074696D01*
X9893370Y2055648D01*
X9893370Y1998505D01*
X9883846Y1979458D01*
X9874322Y1969934D01*
X9855274Y1960410D01*
X9817179Y1960410D01*
X9798132Y1969934D01*
X10007655Y1960410D02*
X9988608Y1969934D01*
X9979084Y1988982D01*
X9979084Y2160410D01*
X10169560Y1960410D02*
X10169560Y2065172D01*
X10160036Y2084220D01*
X10140989Y2093743D01*
X10102894Y2093743D01*
X10083846Y2084220D01*
X10169560Y1969934D02*
X10150513Y1960410D01*
X10102894Y1960410D01*
X10083846Y1969934D01*
X10074322Y1988982D01*
X10074322Y2008029D01*
X10083846Y2027077D01*
X10102894Y2036601D01*
X10150513Y2036601D01*
X10169560Y2046124D01*
X10236227Y2093743D02*
X10312417Y2093743D01*
X10264798Y2160410D02*
X10264798Y1988982D01*
X10274322Y1969934D01*
X10293370Y1960410D01*
X10312417Y1960410D01*
X10455274Y1969934D02*
X10436227Y1960410D01*
X10398132Y1960410D01*
X10379084Y1969934D01*
X10369560Y1988982D01*
X10369560Y2065172D01*
X10379084Y2084220D01*
X10398132Y2093743D01*
X10436227Y2093743D01*
X10455274Y2084220D01*
X10464798Y2065172D01*
X10464798Y2046124D01*
X10369560Y2027077D01*
X10636227Y1960410D02*
X10636227Y2160410D01*
X10636227Y1969934D02*
X10617179Y1960410D01*
X10579084Y1960410D01*
X10560036Y1969934D01*
X10550513Y1979458D01*
X10540989Y1998505D01*
X10540989Y2055648D01*
X10550513Y2074696D01*
X10560036Y2084220D01*
X10579084Y2093743D01*
X10617179Y2093743D01*
X10636227Y2084220D01*
X10712417Y1884220D02*
X10721941Y1893743D01*
X10740989Y1922315D01*
X10750513Y1941362D01*
X10760036Y1969934D01*
X10769560Y2017553D01*
X10769560Y2055648D01*
X10760036Y2103267D01*
X10750513Y2131839D01*
X10740989Y2150886D01*
X10721941Y2179458D01*
X10712417Y2188982D01*
D13*
X3959560Y1786886D02*
G75*
G03*
X3959560Y1786886I-85090J0D01*
G01*
D11*
X4321941Y1696410D02*
X4207655Y1696410D01*
X4264798Y1696410D02*
X4264798Y1896410D01*
X4245751Y1867839D01*
X4226703Y1848791D01*
X4207655Y1839267D01*
X4407655Y1715458D02*
X4417179Y1705934D01*
X4407655Y1696410D01*
X4398132Y1705934D01*
X4407655Y1715458D01*
X4407655Y1696410D01*
X4483846Y1896410D02*
X4617179Y1896410D01*
X4531465Y1696410D01*
X4731465Y1896410D02*
X4750513Y1896410D01*
X4769560Y1886886D01*
X4779084Y1877362D01*
X4788608Y1858315D01*
X4798132Y1820220D01*
X4798132Y1772601D01*
X4788608Y1734505D01*
X4779084Y1715458D01*
X4769560Y1705934D01*
X4750513Y1696410D01*
X4731465Y1696410D01*
X4712417Y1705934D01*
X4702894Y1715458D01*
X4693370Y1734505D01*
X4683846Y1772601D01*
X4683846Y1820220D01*
X4693370Y1858315D01*
X4702894Y1877362D01*
X4712417Y1886886D01*
X4731465Y1896410D01*
X4874322Y1877362D02*
X4883846Y1886886D01*
X4902894Y1896410D01*
X4950513Y1896410D01*
X4969560Y1886886D01*
X4979084Y1877362D01*
X4988608Y1858315D01*
X4988608Y1839267D01*
X4979084Y1810696D01*
X4864798Y1696410D01*
X4988608Y1696410D01*
X5074322Y1696410D02*
X5074322Y1829743D01*
X5074322Y1810696D02*
X5083846Y1820220D01*
X5102894Y1829743D01*
X5131465Y1829743D01*
X5150513Y1820220D01*
X5160036Y1801172D01*
X5160036Y1696410D01*
X5160036Y1801172D02*
X5169560Y1820220D01*
X5188608Y1829743D01*
X5217179Y1829743D01*
X5236227Y1820220D01*
X5245751Y1801172D01*
X5245751Y1696410D01*
X5340989Y1696410D02*
X5340989Y1829743D01*
X5340989Y1810696D02*
X5350513Y1820220D01*
X5369560Y1829743D01*
X5398132Y1829743D01*
X5417179Y1820220D01*
X5426703Y1801172D01*
X5426703Y1696410D01*
X5426703Y1801172D02*
X5436227Y1820220D01*
X5455274Y1829743D01*
X5483846Y1829743D01*
X5502894Y1820220D01*
X5512417Y1801172D01*
X5512417Y1696410D01*
X5902893Y1905934D02*
X5731465Y1648791D01*
X6160036Y1896410D02*
X6179084Y1896410D01*
X6198132Y1886886D01*
X6207655Y1877362D01*
X6217179Y1858315D01*
X6226703Y1820220D01*
X6226703Y1772601D01*
X6217179Y1734505D01*
X6207655Y1715458D01*
X6198132Y1705934D01*
X6179084Y1696410D01*
X6160036Y1696410D01*
X6140989Y1705934D01*
X6131465Y1715458D01*
X6121941Y1734505D01*
X6112417Y1772601D01*
X6112417Y1820220D01*
X6121941Y1858315D01*
X6131465Y1877362D01*
X6140989Y1886886D01*
X6160036Y1896410D01*
X6312417Y1715458D02*
X6321941Y1705934D01*
X6312417Y1696410D01*
X6302893Y1705934D01*
X6312417Y1715458D01*
X6312417Y1696410D01*
X6445751Y1896410D02*
X6464798Y1896410D01*
X6483846Y1886886D01*
X6493370Y1877362D01*
X6502893Y1858315D01*
X6512417Y1820220D01*
X6512417Y1772601D01*
X6502893Y1734505D01*
X6493370Y1715458D01*
X6483846Y1705934D01*
X6464798Y1696410D01*
X6445751Y1696410D01*
X6426703Y1705934D01*
X6417179Y1715458D01*
X6407655Y1734505D01*
X6398132Y1772601D01*
X6398132Y1820220D01*
X6407655Y1858315D01*
X6417179Y1877362D01*
X6426703Y1886886D01*
X6445751Y1896410D01*
X6683846Y1896410D02*
X6645751Y1896410D01*
X6626703Y1886886D01*
X6617179Y1877362D01*
X6598132Y1848791D01*
X6588608Y1810696D01*
X6588608Y1734505D01*
X6598132Y1715458D01*
X6607655Y1705934D01*
X6626703Y1696410D01*
X6664798Y1696410D01*
X6683846Y1705934D01*
X6693370Y1715458D01*
X6702893Y1734505D01*
X6702893Y1782124D01*
X6693370Y1801172D01*
X6683846Y1810696D01*
X6664798Y1820220D01*
X6626703Y1820220D01*
X6607655Y1810696D01*
X6598132Y1801172D01*
X6588608Y1782124D01*
X6769560Y1896410D02*
X6902893Y1896410D01*
X6817179Y1696410D01*
X7017179Y1896410D02*
X7036227Y1896410D01*
X7055274Y1886886D01*
X7064798Y1877362D01*
X7074322Y1858315D01*
X7083846Y1820220D01*
X7083846Y1772601D01*
X7074322Y1734505D01*
X7064798Y1715458D01*
X7055274Y1705934D01*
X7036227Y1696410D01*
X7017179Y1696410D01*
X6998132Y1705934D01*
X6988608Y1715458D01*
X6979084Y1734505D01*
X6969560Y1772601D01*
X6969560Y1820220D01*
X6979084Y1858315D01*
X6988608Y1877362D01*
X6998132Y1886886D01*
X7017179Y1896410D01*
X7160036Y1896410D02*
X7160036Y1858315D01*
X7236227Y1896410D02*
X7236227Y1858315D01*
X7531465Y1620220D02*
X7521941Y1629743D01*
X7502893Y1658315D01*
X7493370Y1677362D01*
X7483846Y1705934D01*
X7474322Y1753553D01*
X7474322Y1791648D01*
X7483846Y1839267D01*
X7493370Y1867839D01*
X7502893Y1886886D01*
X7521941Y1915458D01*
X7531465Y1924982D01*
X7693370Y1896410D02*
X7655274Y1896410D01*
X7636227Y1886886D01*
X7626703Y1877362D01*
X7607655Y1848791D01*
X7598132Y1810696D01*
X7598132Y1734505D01*
X7607655Y1715458D01*
X7617179Y1705934D01*
X7636227Y1696410D01*
X7674322Y1696410D01*
X7693370Y1705934D01*
X7702893Y1715458D01*
X7712417Y1734505D01*
X7712417Y1782124D01*
X7702893Y1801172D01*
X7693370Y1810696D01*
X7674322Y1820220D01*
X7636227Y1820220D01*
X7617179Y1810696D01*
X7607655Y1801172D01*
X7598132Y1782124D01*
X7836227Y1896410D02*
X7855274Y1896410D01*
X7874322Y1886886D01*
X7883846Y1877362D01*
X7893370Y1858315D01*
X7902893Y1820220D01*
X7902893Y1772601D01*
X7893370Y1734505D01*
X7883846Y1715458D01*
X7874322Y1705934D01*
X7855274Y1696410D01*
X7836227Y1696410D01*
X7817179Y1705934D01*
X7807655Y1715458D01*
X7798132Y1734505D01*
X7788608Y1772601D01*
X7788608Y1820220D01*
X7798132Y1858315D01*
X7807655Y1877362D01*
X7817179Y1886886D01*
X7836227Y1896410D01*
X8140989Y1696410D02*
X8140989Y1896410D01*
X8226703Y1696410D02*
X8226703Y1801172D01*
X8217179Y1820220D01*
X8198132Y1829743D01*
X8169560Y1829743D01*
X8150512Y1820220D01*
X8140989Y1810696D01*
X8350512Y1696410D02*
X8331465Y1705934D01*
X8321941Y1715458D01*
X8312417Y1734505D01*
X8312417Y1791648D01*
X8321941Y1810696D01*
X8331465Y1820220D01*
X8350512Y1829743D01*
X8379084Y1829743D01*
X8398132Y1820220D01*
X8407655Y1810696D01*
X8417179Y1791648D01*
X8417179Y1734505D01*
X8407655Y1715458D01*
X8398132Y1705934D01*
X8379084Y1696410D01*
X8350512Y1696410D01*
X8531465Y1696410D02*
X8512417Y1705934D01*
X8502894Y1724982D01*
X8502894Y1896410D01*
X8683846Y1705934D02*
X8664798Y1696410D01*
X8626703Y1696410D01*
X8607655Y1705934D01*
X8598132Y1724982D01*
X8598132Y1801172D01*
X8607655Y1820220D01*
X8626703Y1829743D01*
X8664798Y1829743D01*
X8683846Y1820220D01*
X8693370Y1801172D01*
X8693370Y1782124D01*
X8598132Y1763077D01*
X8769560Y1705934D02*
X8788608Y1696410D01*
X8826703Y1696410D01*
X8845751Y1705934D01*
X8855274Y1724982D01*
X8855274Y1734505D01*
X8845751Y1753553D01*
X8826703Y1763077D01*
X8798132Y1763077D01*
X8779084Y1772601D01*
X8769560Y1791648D01*
X8769560Y1801172D01*
X8779084Y1820220D01*
X8798132Y1829743D01*
X8826703Y1829743D01*
X8845751Y1820220D01*
X8921941Y1620220D02*
X8931465Y1629743D01*
X8950513Y1658315D01*
X8960036Y1677362D01*
X8969560Y1705934D01*
X8979084Y1753553D01*
X8979084Y1791648D01*
X8969560Y1839267D01*
X8960036Y1867839D01*
X8950513Y1886886D01*
X8931465Y1915458D01*
X8921941Y1924982D01*
X9283846Y1620220D02*
X9274322Y1629743D01*
X9255274Y1658315D01*
X9245751Y1677362D01*
X9236227Y1705934D01*
X9226703Y1753553D01*
X9226703Y1791648D01*
X9236227Y1839267D01*
X9245751Y1867839D01*
X9255274Y1886886D01*
X9274322Y1915458D01*
X9283846Y1924982D01*
X9360036Y1829743D02*
X9360036Y1696410D01*
X9360036Y1810696D02*
X9369560Y1820220D01*
X9388608Y1829743D01*
X9417179Y1829743D01*
X9436227Y1820220D01*
X9445751Y1801172D01*
X9445751Y1696410D01*
X9569560Y1696410D02*
X9550513Y1705934D01*
X9540989Y1715458D01*
X9531465Y1734505D01*
X9531465Y1791648D01*
X9540989Y1810696D01*
X9550513Y1820220D01*
X9569560Y1829743D01*
X9598132Y1829743D01*
X9617179Y1820220D01*
X9626703Y1810696D01*
X9636227Y1791648D01*
X9636227Y1734505D01*
X9626703Y1715458D01*
X9617179Y1705934D01*
X9598132Y1696410D01*
X9569560Y1696410D01*
X9693370Y1829743D02*
X9769560Y1829743D01*
X9721941Y1896410D02*
X9721941Y1724982D01*
X9731465Y1705934D01*
X9750513Y1696410D01*
X9769560Y1696410D01*
X9988608Y1829743D02*
X9988608Y1629743D01*
X9988608Y1820220D02*
X10007655Y1829743D01*
X10045751Y1829743D01*
X10064798Y1820220D01*
X10074322Y1810696D01*
X10083846Y1791648D01*
X10083846Y1734505D01*
X10074322Y1715458D01*
X10064798Y1705934D01*
X10045751Y1696410D01*
X10007655Y1696410D01*
X9988608Y1705934D01*
X10198132Y1696410D02*
X10179084Y1705934D01*
X10169560Y1724982D01*
X10169560Y1896410D01*
X10360036Y1696410D02*
X10360036Y1801172D01*
X10350513Y1820220D01*
X10331465Y1829743D01*
X10293370Y1829743D01*
X10274322Y1820220D01*
X10360036Y1705934D02*
X10340989Y1696410D01*
X10293370Y1696410D01*
X10274322Y1705934D01*
X10264798Y1724982D01*
X10264798Y1744029D01*
X10274322Y1763077D01*
X10293370Y1772601D01*
X10340989Y1772601D01*
X10360036Y1782124D01*
X10426703Y1829743D02*
X10502894Y1829743D01*
X10455274Y1896410D02*
X10455274Y1724982D01*
X10464798Y1705934D01*
X10483846Y1696410D01*
X10502894Y1696410D01*
X10645751Y1705934D02*
X10626703Y1696410D01*
X10588608Y1696410D01*
X10569560Y1705934D01*
X10560036Y1724982D01*
X10560036Y1801172D01*
X10569560Y1820220D01*
X10588608Y1829743D01*
X10626703Y1829743D01*
X10645751Y1820220D01*
X10655274Y1801172D01*
X10655274Y1782124D01*
X10560036Y1763077D01*
X10826703Y1696410D02*
X10826703Y1896410D01*
X10826703Y1705934D02*
X10807655Y1696410D01*
X10769560Y1696410D01*
X10750513Y1705934D01*
X10740989Y1715458D01*
X10731465Y1734505D01*
X10731465Y1791648D01*
X10740989Y1810696D01*
X10750513Y1820220D01*
X10769560Y1829743D01*
X10807655Y1829743D01*
X10826703Y1820220D01*
X10902894Y1620220D02*
X10912417Y1629743D01*
X10931465Y1658315D01*
X10940989Y1677362D01*
X10950513Y1705934D01*
X10960036Y1753553D01*
X10960036Y1791648D01*
X10950513Y1839267D01*
X10940989Y1867839D01*
X10931465Y1886886D01*
X10912417Y1915458D01*
X10902894Y1924982D01*
X3859560Y1596706D02*
X3859560Y1396706D01*
X3759560Y1496706D02*
X3959560Y1496706D01*
X4198132Y1606230D02*
X4321941Y1606230D01*
X4255274Y1530040D01*
X4283846Y1530040D01*
X4302894Y1520516D01*
X4312417Y1510992D01*
X4321941Y1491944D01*
X4321941Y1444325D01*
X4312417Y1425278D01*
X4302894Y1415754D01*
X4283846Y1406230D01*
X4226703Y1406230D01*
X4207655Y1415754D01*
X4198132Y1425278D01*
X4407655Y1425278D02*
X4417179Y1415754D01*
X4407655Y1406230D01*
X4398132Y1415754D01*
X4407655Y1425278D01*
X4407655Y1406230D01*
X4540989Y1606230D02*
X4560036Y1606230D01*
X4579084Y1596706D01*
X4588608Y1587182D01*
X4598132Y1568135D01*
X4607655Y1530040D01*
X4607655Y1482421D01*
X4598132Y1444325D01*
X4588608Y1425278D01*
X4579084Y1415754D01*
X4560036Y1406230D01*
X4540989Y1406230D01*
X4521941Y1415754D01*
X4512417Y1425278D01*
X4502894Y1444325D01*
X4493370Y1482421D01*
X4493370Y1530040D01*
X4502894Y1568135D01*
X4512417Y1587182D01*
X4521941Y1596706D01*
X4540989Y1606230D01*
X4731465Y1606230D02*
X4750513Y1606230D01*
X4769560Y1596706D01*
X4779084Y1587182D01*
X4788608Y1568135D01*
X4798132Y1530040D01*
X4798132Y1482421D01*
X4788608Y1444325D01*
X4779084Y1425278D01*
X4769560Y1415754D01*
X4750513Y1406230D01*
X4731465Y1406230D01*
X4712417Y1415754D01*
X4702894Y1425278D01*
X4693370Y1444325D01*
X4683846Y1482421D01*
X4683846Y1530040D01*
X4693370Y1568135D01*
X4702894Y1587182D01*
X4712417Y1596706D01*
X4731465Y1606230D01*
X4921941Y1606230D02*
X4940989Y1606230D01*
X4960036Y1596706D01*
X4969560Y1587182D01*
X4979084Y1568135D01*
X4988608Y1530040D01*
X4988608Y1482421D01*
X4979084Y1444325D01*
X4969560Y1425278D01*
X4960036Y1415754D01*
X4940989Y1406230D01*
X4921941Y1406230D01*
X4902894Y1415754D01*
X4893370Y1425278D01*
X4883846Y1444325D01*
X4874322Y1482421D01*
X4874322Y1530040D01*
X4883846Y1568135D01*
X4893370Y1587182D01*
X4902894Y1596706D01*
X4921941Y1606230D01*
X5074322Y1406230D02*
X5074322Y1539563D01*
X5074322Y1520516D02*
X5083846Y1530040D01*
X5102894Y1539563D01*
X5131465Y1539563D01*
X5150513Y1530040D01*
X5160036Y1510992D01*
X5160036Y1406230D01*
X5160036Y1510992D02*
X5169560Y1530040D01*
X5188608Y1539563D01*
X5217179Y1539563D01*
X5236227Y1530040D01*
X5245751Y1510992D01*
X5245751Y1406230D01*
X5340989Y1406230D02*
X5340989Y1539563D01*
X5340989Y1520516D02*
X5350513Y1530040D01*
X5369560Y1539563D01*
X5398132Y1539563D01*
X5417179Y1530040D01*
X5426703Y1510992D01*
X5426703Y1406230D01*
X5426703Y1510992D02*
X5436227Y1530040D01*
X5455274Y1539563D01*
X5483846Y1539563D01*
X5502894Y1530040D01*
X5512417Y1510992D01*
X5512417Y1406230D01*
X5902893Y1615754D02*
X5731465Y1358611D01*
X6160036Y1606230D02*
X6179084Y1606230D01*
X6198132Y1596706D01*
X6207655Y1587182D01*
X6217179Y1568135D01*
X6226703Y1530040D01*
X6226703Y1482421D01*
X6217179Y1444325D01*
X6207655Y1425278D01*
X6198132Y1415754D01*
X6179084Y1406230D01*
X6160036Y1406230D01*
X6140989Y1415754D01*
X6131465Y1425278D01*
X6121941Y1444325D01*
X6112417Y1482421D01*
X6112417Y1530040D01*
X6121941Y1568135D01*
X6131465Y1587182D01*
X6140989Y1596706D01*
X6160036Y1606230D01*
X6312417Y1425278D02*
X6321941Y1415754D01*
X6312417Y1406230D01*
X6302893Y1415754D01*
X6312417Y1425278D01*
X6312417Y1406230D01*
X6512417Y1406230D02*
X6398132Y1406230D01*
X6455274Y1406230D02*
X6455274Y1606230D01*
X6436227Y1577659D01*
X6417179Y1558611D01*
X6398132Y1549087D01*
X6702893Y1406230D02*
X6588608Y1406230D01*
X6645751Y1406230D02*
X6645751Y1606230D01*
X6626703Y1577659D01*
X6607655Y1558611D01*
X6588608Y1549087D01*
X6817179Y1520516D02*
X6798132Y1530040D01*
X6788608Y1539563D01*
X6779084Y1558611D01*
X6779084Y1568135D01*
X6788608Y1587182D01*
X6798132Y1596706D01*
X6817179Y1606230D01*
X6855274Y1606230D01*
X6874322Y1596706D01*
X6883846Y1587182D01*
X6893370Y1568135D01*
X6893370Y1558611D01*
X6883846Y1539563D01*
X6874322Y1530040D01*
X6855274Y1520516D01*
X6817179Y1520516D01*
X6798132Y1510992D01*
X6788608Y1501468D01*
X6779084Y1482421D01*
X6779084Y1444325D01*
X6788608Y1425278D01*
X6798132Y1415754D01*
X6817179Y1406230D01*
X6855274Y1406230D01*
X6874322Y1415754D01*
X6883846Y1425278D01*
X6893370Y1444325D01*
X6893370Y1482421D01*
X6883846Y1501468D01*
X6874322Y1510992D01*
X6855274Y1520516D01*
X7083846Y1406230D02*
X6969560Y1406230D01*
X7026703Y1406230D02*
X7026703Y1606230D01*
X7007655Y1577659D01*
X6988608Y1558611D01*
X6969560Y1549087D01*
X7160036Y1606230D02*
X7160036Y1568135D01*
X7236227Y1606230D02*
X7236227Y1568135D01*
X7531465Y1330040D02*
X7521941Y1339564D01*
X7502893Y1368135D01*
X7493370Y1387183D01*
X7483846Y1415754D01*
X7474322Y1463373D01*
X7474322Y1501468D01*
X7483846Y1549087D01*
X7493370Y1577659D01*
X7502893Y1596706D01*
X7521941Y1625278D01*
X7531465Y1634802D01*
X7693370Y1606230D02*
X7655274Y1606230D01*
X7636227Y1596706D01*
X7626703Y1587182D01*
X7607655Y1558611D01*
X7598132Y1520516D01*
X7598132Y1444325D01*
X7607655Y1425278D01*
X7617179Y1415754D01*
X7636227Y1406230D01*
X7674322Y1406230D01*
X7693370Y1415754D01*
X7702893Y1425278D01*
X7712417Y1444325D01*
X7712417Y1491944D01*
X7702893Y1510992D01*
X7693370Y1520516D01*
X7674322Y1530040D01*
X7636227Y1530040D01*
X7617179Y1520516D01*
X7607655Y1510992D01*
X7598132Y1491944D01*
X7836227Y1606230D02*
X7855274Y1606230D01*
X7874322Y1596706D01*
X7883846Y1587182D01*
X7893370Y1568135D01*
X7902893Y1530040D01*
X7902893Y1482421D01*
X7893370Y1444325D01*
X7883846Y1425278D01*
X7874322Y1415754D01*
X7855274Y1406230D01*
X7836227Y1406230D01*
X7817179Y1415754D01*
X7807655Y1425278D01*
X7798132Y1444325D01*
X7788608Y1482421D01*
X7788608Y1530040D01*
X7798132Y1568135D01*
X7807655Y1587182D01*
X7817179Y1596706D01*
X7836227Y1606230D01*
X8140989Y1406230D02*
X8140989Y1606230D01*
X8226703Y1406230D02*
X8226703Y1510992D01*
X8217179Y1530040D01*
X8198132Y1539563D01*
X8169560Y1539563D01*
X8150512Y1530040D01*
X8140989Y1520516D01*
X8350512Y1406230D02*
X8331465Y1415754D01*
X8321941Y1425278D01*
X8312417Y1444325D01*
X8312417Y1501468D01*
X8321941Y1520516D01*
X8331465Y1530040D01*
X8350512Y1539563D01*
X8379084Y1539563D01*
X8398132Y1530040D01*
X8407655Y1520516D01*
X8417179Y1501468D01*
X8417179Y1444325D01*
X8407655Y1425278D01*
X8398132Y1415754D01*
X8379084Y1406230D01*
X8350512Y1406230D01*
X8531465Y1406230D02*
X8512417Y1415754D01*
X8502894Y1434802D01*
X8502894Y1606230D01*
X8683846Y1415754D02*
X8664798Y1406230D01*
X8626703Y1406230D01*
X8607655Y1415754D01*
X8598132Y1434802D01*
X8598132Y1510992D01*
X8607655Y1530040D01*
X8626703Y1539563D01*
X8664798Y1539563D01*
X8683846Y1530040D01*
X8693370Y1510992D01*
X8693370Y1491944D01*
X8598132Y1472897D01*
X8769560Y1415754D02*
X8788608Y1406230D01*
X8826703Y1406230D01*
X8845751Y1415754D01*
X8855274Y1434802D01*
X8855274Y1444325D01*
X8845751Y1463373D01*
X8826703Y1472897D01*
X8798132Y1472897D01*
X8779084Y1482421D01*
X8769560Y1501468D01*
X8769560Y1510992D01*
X8779084Y1530040D01*
X8798132Y1539563D01*
X8826703Y1539563D01*
X8845751Y1530040D01*
X8921941Y1330040D02*
X8931465Y1339564D01*
X8950513Y1368135D01*
X8960036Y1387183D01*
X8969560Y1415754D01*
X8979084Y1463373D01*
X8979084Y1501468D01*
X8969560Y1549087D01*
X8960036Y1577659D01*
X8950513Y1596706D01*
X8931465Y1625278D01*
X8921941Y1634802D01*
X9283846Y1330040D02*
X9274322Y1339564D01*
X9255274Y1368135D01*
X9245751Y1387183D01*
X9236227Y1415754D01*
X9226703Y1463373D01*
X9226703Y1501468D01*
X9236227Y1549087D01*
X9245751Y1577659D01*
X9255274Y1596706D01*
X9274322Y1625278D01*
X9283846Y1634802D01*
X9360036Y1539563D02*
X9360036Y1406230D01*
X9360036Y1520516D02*
X9369560Y1530040D01*
X9388608Y1539563D01*
X9417179Y1539563D01*
X9436227Y1530040D01*
X9445751Y1510992D01*
X9445751Y1406230D01*
X9569560Y1406230D02*
X9550513Y1415754D01*
X9540989Y1425278D01*
X9531465Y1444325D01*
X9531465Y1501468D01*
X9540989Y1520516D01*
X9550513Y1530040D01*
X9569560Y1539563D01*
X9598132Y1539563D01*
X9617179Y1530040D01*
X9626703Y1520516D01*
X9636227Y1501468D01*
X9636227Y1444325D01*
X9626703Y1425278D01*
X9617179Y1415754D01*
X9598132Y1406230D01*
X9569560Y1406230D01*
X9693370Y1539563D02*
X9769560Y1539563D01*
X9721941Y1606230D02*
X9721941Y1434802D01*
X9731465Y1415754D01*
X9750513Y1406230D01*
X9769560Y1406230D01*
X9988608Y1539563D02*
X9988608Y1339564D01*
X9988608Y1530040D02*
X10007655Y1539563D01*
X10045751Y1539563D01*
X10064798Y1530040D01*
X10074322Y1520516D01*
X10083846Y1501468D01*
X10083846Y1444325D01*
X10074322Y1425278D01*
X10064798Y1415754D01*
X10045751Y1406230D01*
X10007655Y1406230D01*
X9988608Y1415754D01*
X10198132Y1406230D02*
X10179084Y1415754D01*
X10169560Y1434802D01*
X10169560Y1606230D01*
X10360036Y1406230D02*
X10360036Y1510992D01*
X10350513Y1530040D01*
X10331465Y1539563D01*
X10293370Y1539563D01*
X10274322Y1530040D01*
X10360036Y1415754D02*
X10340989Y1406230D01*
X10293370Y1406230D01*
X10274322Y1415754D01*
X10264798Y1434802D01*
X10264798Y1453849D01*
X10274322Y1472897D01*
X10293370Y1482421D01*
X10340989Y1482421D01*
X10360036Y1491944D01*
X10426703Y1539563D02*
X10502894Y1539563D01*
X10455274Y1606230D02*
X10455274Y1434802D01*
X10464798Y1415754D01*
X10483846Y1406230D01*
X10502894Y1406230D01*
X10645751Y1415754D02*
X10626703Y1406230D01*
X10588608Y1406230D01*
X10569560Y1415754D01*
X10560036Y1434802D01*
X10560036Y1510992D01*
X10569560Y1530040D01*
X10588608Y1539563D01*
X10626703Y1539563D01*
X10645751Y1530040D01*
X10655274Y1510992D01*
X10655274Y1491944D01*
X10560036Y1472897D01*
X10826703Y1406230D02*
X10826703Y1606230D01*
X10826703Y1415754D02*
X10807655Y1406230D01*
X10769560Y1406230D01*
X10750513Y1415754D01*
X10740989Y1425278D01*
X10731465Y1444325D01*
X10731465Y1501468D01*
X10740989Y1520516D01*
X10750513Y1530040D01*
X10769560Y1539563D01*
X10807655Y1539563D01*
X10826703Y1530040D01*
X10902894Y1330040D02*
X10912417Y1339564D01*
X10931465Y1368135D01*
X10940989Y1387183D01*
X10950513Y1415754D01*
X10960036Y1463373D01*
X10960036Y1501468D01*
X10950513Y1549087D01*
X10940989Y1577659D01*
X10931465Y1596706D01*
X10912417Y1625278D01*
X10902894Y1634802D01*
X3930272Y1105995D02*
X3930272Y1247418D01*
X3788849Y1247418D01*
X3788849Y1105995D01*
X3930272Y1105995D01*
X4198132Y1286230D02*
X4321941Y1286230D01*
X4255274Y1210040D01*
X4283846Y1210040D01*
X4302894Y1200516D01*
X4312417Y1190992D01*
X4321941Y1171944D01*
X4321941Y1124325D01*
X4312417Y1105278D01*
X4302894Y1095754D01*
X4283846Y1086230D01*
X4226703Y1086230D01*
X4207655Y1095754D01*
X4198132Y1105278D01*
X4407655Y1105278D02*
X4417179Y1095754D01*
X4407655Y1086230D01*
X4398132Y1095754D01*
X4407655Y1105278D01*
X4407655Y1086230D01*
X4588608Y1219564D02*
X4588608Y1086230D01*
X4540989Y1295754D02*
X4493370Y1152897D01*
X4617179Y1152897D01*
X4683846Y1267183D02*
X4693370Y1276706D01*
X4712417Y1286230D01*
X4760036Y1286230D01*
X4779084Y1276706D01*
X4788608Y1267183D01*
X4798132Y1248135D01*
X4798132Y1229087D01*
X4788608Y1200516D01*
X4674322Y1086230D01*
X4798132Y1086230D01*
X4893370Y1086230D02*
X4931465Y1086230D01*
X4950513Y1095754D01*
X4960036Y1105278D01*
X4979084Y1133849D01*
X4988608Y1171944D01*
X4988608Y1248135D01*
X4979084Y1267183D01*
X4969560Y1276706D01*
X4950513Y1286230D01*
X4912417Y1286230D01*
X4893370Y1276706D01*
X4883846Y1267183D01*
X4874322Y1248135D01*
X4874322Y1200516D01*
X4883846Y1181468D01*
X4893370Y1171944D01*
X4912417Y1162421D01*
X4950513Y1162421D01*
X4969560Y1171944D01*
X4979084Y1181468D01*
X4988608Y1200516D01*
X5074322Y1086230D02*
X5074322Y1219564D01*
X5074322Y1200516D02*
X5083846Y1210040D01*
X5102894Y1219564D01*
X5131465Y1219564D01*
X5150513Y1210040D01*
X5160036Y1190992D01*
X5160036Y1086230D01*
X5160036Y1190992D02*
X5169560Y1210040D01*
X5188608Y1219564D01*
X5217179Y1219564D01*
X5236227Y1210040D01*
X5245751Y1190992D01*
X5245751Y1086230D01*
X5340989Y1086230D02*
X5340989Y1219564D01*
X5340989Y1200516D02*
X5350513Y1210040D01*
X5369560Y1219564D01*
X5398132Y1219564D01*
X5417179Y1210040D01*
X5426703Y1190992D01*
X5426703Y1086230D01*
X5426703Y1190992D02*
X5436227Y1210040D01*
X5455274Y1219564D01*
X5483846Y1219564D01*
X5502894Y1210040D01*
X5512417Y1190992D01*
X5512417Y1086230D01*
X5902893Y1295754D02*
X5731465Y1038611D01*
X6160036Y1286230D02*
X6179084Y1286230D01*
X6198132Y1276706D01*
X6207655Y1267183D01*
X6217179Y1248135D01*
X6226703Y1210040D01*
X6226703Y1162421D01*
X6217179Y1124325D01*
X6207655Y1105278D01*
X6198132Y1095754D01*
X6179084Y1086230D01*
X6160036Y1086230D01*
X6140989Y1095754D01*
X6131465Y1105278D01*
X6121941Y1124325D01*
X6112417Y1162421D01*
X6112417Y1210040D01*
X6121941Y1248135D01*
X6131465Y1267183D01*
X6140989Y1276706D01*
X6160036Y1286230D01*
X6312417Y1105278D02*
X6321941Y1095754D01*
X6312417Y1086230D01*
X6302893Y1095754D01*
X6312417Y1105278D01*
X6312417Y1086230D01*
X6512417Y1086230D02*
X6398132Y1086230D01*
X6455274Y1086230D02*
X6455274Y1286230D01*
X6436227Y1257659D01*
X6417179Y1238611D01*
X6398132Y1229087D01*
X6579084Y1286230D02*
X6702893Y1286230D01*
X6636227Y1210040D01*
X6664798Y1210040D01*
X6683846Y1200516D01*
X6693370Y1190992D01*
X6702893Y1171944D01*
X6702893Y1124325D01*
X6693370Y1105278D01*
X6683846Y1095754D01*
X6664798Y1086230D01*
X6607655Y1086230D01*
X6588608Y1095754D01*
X6579084Y1105278D01*
X6883846Y1286230D02*
X6788608Y1286230D01*
X6779084Y1190992D01*
X6788608Y1200516D01*
X6807655Y1210040D01*
X6855274Y1210040D01*
X6874322Y1200516D01*
X6883846Y1190992D01*
X6893370Y1171944D01*
X6893370Y1124325D01*
X6883846Y1105278D01*
X6874322Y1095754D01*
X6855274Y1086230D01*
X6807655Y1086230D01*
X6788608Y1095754D01*
X6779084Y1105278D01*
X7017179Y1286230D02*
X7036227Y1286230D01*
X7055274Y1276706D01*
X7064798Y1267183D01*
X7074322Y1248135D01*
X7083846Y1210040D01*
X7083846Y1162421D01*
X7074322Y1124325D01*
X7064798Y1105278D01*
X7055274Y1095754D01*
X7036227Y1086230D01*
X7017179Y1086230D01*
X6998132Y1095754D01*
X6988608Y1105278D01*
X6979084Y1124325D01*
X6969560Y1162421D01*
X6969560Y1210040D01*
X6979084Y1248135D01*
X6988608Y1267183D01*
X6998132Y1276706D01*
X7017179Y1286230D01*
X7160036Y1286230D02*
X7160036Y1248135D01*
X7236227Y1286230D02*
X7236227Y1248135D01*
X7531465Y1010040D02*
X7521941Y1019563D01*
X7502893Y1048135D01*
X7493370Y1067183D01*
X7483846Y1095754D01*
X7474322Y1143373D01*
X7474322Y1181468D01*
X7483846Y1229087D01*
X7493370Y1257659D01*
X7502893Y1276706D01*
X7521941Y1305278D01*
X7531465Y1314802D01*
X7588608Y1286230D02*
X7712417Y1286230D01*
X7645751Y1210040D01*
X7674322Y1210040D01*
X7693370Y1200516D01*
X7702893Y1190992D01*
X7712417Y1171944D01*
X7712417Y1124325D01*
X7702893Y1105278D01*
X7693370Y1095754D01*
X7674322Y1086230D01*
X7617179Y1086230D01*
X7598132Y1095754D01*
X7588608Y1105278D01*
X7836227Y1286230D02*
X7855274Y1286230D01*
X7874322Y1276706D01*
X7883846Y1267183D01*
X7893370Y1248135D01*
X7902893Y1210040D01*
X7902893Y1162421D01*
X7893370Y1124325D01*
X7883846Y1105278D01*
X7874322Y1095754D01*
X7855274Y1086230D01*
X7836227Y1086230D01*
X7817179Y1095754D01*
X7807655Y1105278D01*
X7798132Y1124325D01*
X7788608Y1162421D01*
X7788608Y1210040D01*
X7798132Y1248135D01*
X7807655Y1267183D01*
X7817179Y1276706D01*
X7836227Y1286230D01*
X8140989Y1086230D02*
X8140989Y1286230D01*
X8226703Y1086230D02*
X8226703Y1190992D01*
X8217179Y1210040D01*
X8198132Y1219564D01*
X8169560Y1219564D01*
X8150512Y1210040D01*
X8140989Y1200516D01*
X8350512Y1086230D02*
X8331465Y1095754D01*
X8321941Y1105278D01*
X8312417Y1124325D01*
X8312417Y1181468D01*
X8321941Y1200516D01*
X8331465Y1210040D01*
X8350512Y1219564D01*
X8379084Y1219564D01*
X8398132Y1210040D01*
X8407655Y1200516D01*
X8417179Y1181468D01*
X8417179Y1124325D01*
X8407655Y1105278D01*
X8398132Y1095754D01*
X8379084Y1086230D01*
X8350512Y1086230D01*
X8531465Y1086230D02*
X8512417Y1095754D01*
X8502894Y1114802D01*
X8502894Y1286230D01*
X8683846Y1095754D02*
X8664798Y1086230D01*
X8626703Y1086230D01*
X8607655Y1095754D01*
X8598132Y1114802D01*
X8598132Y1190992D01*
X8607655Y1210040D01*
X8626703Y1219564D01*
X8664798Y1219564D01*
X8683846Y1210040D01*
X8693370Y1190992D01*
X8693370Y1171944D01*
X8598132Y1152897D01*
X8769560Y1095754D02*
X8788608Y1086230D01*
X8826703Y1086230D01*
X8845751Y1095754D01*
X8855274Y1114802D01*
X8855274Y1124325D01*
X8845751Y1143373D01*
X8826703Y1152897D01*
X8798132Y1152897D01*
X8779084Y1162421D01*
X8769560Y1181468D01*
X8769560Y1190992D01*
X8779084Y1210040D01*
X8798132Y1219564D01*
X8826703Y1219564D01*
X8845751Y1210040D01*
X8921941Y1010040D02*
X8931465Y1019563D01*
X8950513Y1048135D01*
X8960036Y1067183D01*
X8969560Y1095754D01*
X8979084Y1143373D01*
X8979084Y1181468D01*
X8969560Y1229087D01*
X8960036Y1257659D01*
X8950513Y1276706D01*
X8931465Y1305278D01*
X8921941Y1314802D01*
X9283846Y1010040D02*
X9274322Y1019563D01*
X9255274Y1048135D01*
X9245751Y1067183D01*
X9236227Y1095754D01*
X9226703Y1143373D01*
X9226703Y1181468D01*
X9236227Y1229087D01*
X9245751Y1257659D01*
X9255274Y1276706D01*
X9274322Y1305278D01*
X9283846Y1314802D01*
X9360036Y1219564D02*
X9360036Y1086230D01*
X9360036Y1200516D02*
X9369560Y1210040D01*
X9388608Y1219564D01*
X9417179Y1219564D01*
X9436227Y1210040D01*
X9445751Y1190992D01*
X9445751Y1086230D01*
X9569560Y1086230D02*
X9550513Y1095754D01*
X9540989Y1105278D01*
X9531465Y1124325D01*
X9531465Y1181468D01*
X9540989Y1200516D01*
X9550513Y1210040D01*
X9569560Y1219564D01*
X9598132Y1219564D01*
X9617179Y1210040D01*
X9626703Y1200516D01*
X9636227Y1181468D01*
X9636227Y1124325D01*
X9626703Y1105278D01*
X9617179Y1095754D01*
X9598132Y1086230D01*
X9569560Y1086230D01*
X9693370Y1219564D02*
X9769560Y1219564D01*
X9721941Y1286230D02*
X9721941Y1114802D01*
X9731465Y1095754D01*
X9750513Y1086230D01*
X9769560Y1086230D01*
X9988608Y1219564D02*
X9988608Y1019563D01*
X9988608Y1210040D02*
X10007655Y1219564D01*
X10045751Y1219564D01*
X10064798Y1210040D01*
X10074322Y1200516D01*
X10083846Y1181468D01*
X10083846Y1124325D01*
X10074322Y1105278D01*
X10064798Y1095754D01*
X10045751Y1086230D01*
X10007655Y1086230D01*
X9988608Y1095754D01*
X10198132Y1086230D02*
X10179084Y1095754D01*
X10169560Y1114802D01*
X10169560Y1286230D01*
X10360036Y1086230D02*
X10360036Y1190992D01*
X10350513Y1210040D01*
X10331465Y1219564D01*
X10293370Y1219564D01*
X10274322Y1210040D01*
X10360036Y1095754D02*
X10340989Y1086230D01*
X10293370Y1086230D01*
X10274322Y1095754D01*
X10264798Y1114802D01*
X10264798Y1133849D01*
X10274322Y1152897D01*
X10293370Y1162421D01*
X10340989Y1162421D01*
X10360036Y1171944D01*
X10426703Y1219564D02*
X10502894Y1219564D01*
X10455274Y1286230D02*
X10455274Y1114802D01*
X10464798Y1095754D01*
X10483846Y1086230D01*
X10502894Y1086230D01*
X10645751Y1095754D02*
X10626703Y1086230D01*
X10588608Y1086230D01*
X10569560Y1095754D01*
X10560036Y1114802D01*
X10560036Y1190992D01*
X10569560Y1210040D01*
X10588608Y1219564D01*
X10626703Y1219564D01*
X10645751Y1210040D01*
X10655274Y1190992D01*
X10655274Y1171944D01*
X10560036Y1152897D01*
X10826703Y1086230D02*
X10826703Y1286230D01*
X10826703Y1095754D02*
X10807655Y1086230D01*
X10769560Y1086230D01*
X10750513Y1095754D01*
X10740989Y1105278D01*
X10731465Y1124325D01*
X10731465Y1181468D01*
X10740989Y1200516D01*
X10750513Y1210040D01*
X10769560Y1219564D01*
X10807655Y1219564D01*
X10826703Y1210040D01*
X10902894Y1010040D02*
X10912417Y1019563D01*
X10931465Y1048135D01*
X10940989Y1067183D01*
X10950513Y1095754D01*
X10960036Y1143373D01*
X10960036Y1181468D01*
X10950513Y1229087D01*
X10940989Y1257659D01*
X10931465Y1276706D01*
X10912417Y1305278D01*
X10902894Y1314802D01*
M02*
