  0
SECTION
  2
HEADER
  9
$ANGBASE
  50
0.0
  9
$ANGDIR
  70
1
  9
$MEASUREMENT
  70
1
  0
ENDSEC
  0
SECTION
  2
TABLES
  0
TABLE
  2
LTYPE
  70
4
  0
LTYPE
  5
40F
  2
CONTINUOUS
  70
0
  3
Solid line
  72
65
  73
0
  40
0.0
  0
LTYPE
  5
410
  2
DASHDOT
 70
0
  3
Dash Dot ____ _ ____ _
 72
65
 73
4
 40
2.0
 49
1.25
 49
-0.25
 49
0.25
 49
-0.25
  0
LTYPE
  5
411
  2
DASHED
 70
0
  3
Dashed __ __ __ __ __
 72
65
 73
2
 40
0.75
 49
0.5
 49
-0.25
  0
LTYPE
  5
43B
  2
DOTTED
 70
0
  3
Dotted .  .  .  .
 72
65
 73
2
 40
0.2
 49
0.0
 49
-0.2
  0
ENDTAB
  0
TABLE
  2
STYLE
  70
4
  0
STYLE
  2
KICAD
  70
0
  40
0
  41
1
  42
1
  50
0
  71
0
  3
isocp.shx
  0
STYLE
  2
KICADB
  70
0
  40
0
  41
1
  42
1
  50
0
  71
0
  3
isocp.shx
  0
STYLE
  2
KICADI
  70
0
  40
0
  41
1
  42
1
  50
15
  71
0
  3
isocp.shx
  0
STYLE
  2
KICADBI
  70
0
  40
0
  41
1
  42
1
  50
15
  71
0
  3
isocp.shx
  0
ENDTAB
  0
TABLE
  2
LAYER
  70
1
  0
LAYER
  2
BLACK
  70
0
  62
7
  6
CONTINUOUS
  0
ENDTAB
  0
ENDSEC
  0
SECTION
  2
ENTITIES
0
LINE
8
BLACK
6
CONTINUOUS
10
231.6
20
-147.2
11
301.991
21
-147.196
0
ARC
8
BLACK
10
231.6
20
-144.2
40
3
50
-180
51
-90
0
LINE
8
BLACK
6
CONTINUOUS
10
228.6
20
-128.524
11
228.6
21
-144.2
0
ARC
8
BLACK
10
197.8
20
-125.525
40
3
50
-180
51
-90
0
LINE
8
BLACK
6
CONTINUOUS
10
197.803
20
-56.5814
11
301.991
21
-56.5814
0
LINE
8
BLACK
6
CONTINUOUS
10
197.8
20
-128.525
11
228.6
21
-128.524
0
LINE
8
BLACK
6
CONTINUOUS
10
194.8
20
-125.525
11
194.803
21
-59.5814
0
ARC
8
BLACK
10
301.991
20
-144.196
40
2.9999
50
-90.0019
51
0.000630274
0
LINE
8
BLACK
6
CONTINUOUS
10
304.991
20
-144.196
11
304.991
21
-59.5814
0
ARC
8
BLACK
10
301.991
20
-59.5814
40
2.99998
50
-0.000420169
51
90
0
ARC
8
BLACK
10
197.803
20
-59.5814
40
2.99999
50
-270
51
-180
0
LINE
8
BLACK
6
CONTINUOUS
10
197.301
20
-150.38
11
197.301
21
-148.38
0
LINE
8
BLACK
6
CONTINUOUS
10
197.301
20
-148.38
11
197.777
21
-148.38
0
LINE
8
BLACK
6
CONTINUOUS
10
197.777
20
-148.38
11
198.063
21
-148.475
0
LINE
8
BLACK
6
CONTINUOUS
10
198.063
20
-148.475
11
198.254
21
-148.665
0
LINE
8
BLACK
6
CONTINUOUS
10
198.254
20
-148.665
11
198.349
21
-148.856
0
LINE
8
BLACK
6
CONTINUOUS
10
198.349
20
-148.856
11
198.444
21
-149.237
0
LINE
8
BLACK
6
CONTINUOUS
10
198.444
20
-149.237
11
198.444
21
-149.523
0
LINE
8
BLACK
6
CONTINUOUS
10
198.444
20
-149.523
11
198.349
21
-149.904
0
LINE
8
BLACK
6
CONTINUOUS
10
198.349
20
-149.904
11
198.254
21
-150.094
0
LINE
8
BLACK
6
CONTINUOUS
10
198.254
20
-150.094
11
198.063
21
-150.285
0
LINE
8
BLACK
6
CONTINUOUS
10
198.063
20
-150.285
11
197.777
21
-150.38
0
LINE
8
BLACK
6
CONTINUOUS
10
197.777
20
-150.38
11
197.301
21
-150.38
0
LINE
8
BLACK
6
CONTINUOUS
10
199.301
20
-150.38
11
199.301
21
-149.046
0
LINE
8
BLACK
6
CONTINUOUS
10
199.301
20
-149.427
11
199.396
21
-149.237
0
LINE
8
BLACK
6
CONTINUOUS
10
199.396
20
-149.237
11
199.492
21
-149.142
0
LINE
8
BLACK
6
CONTINUOUS
10
199.492
20
-149.142
11
199.682
21
-149.046
0
LINE
8
BLACK
6
CONTINUOUS
10
199.682
20
-149.046
11
199.873
21
-149.046
0
LINE
8
BLACK
6
CONTINUOUS
10
200.539
20
-150.38
11
200.539
21
-149.046
0
LINE
8
BLACK
6
CONTINUOUS
10
200.539
20
-148.38
11
200.444
21
-148.475
0
LINE
8
BLACK
6
CONTINUOUS
10
200.444
20
-148.475
11
200.539
21
-148.57
0
LINE
8
BLACK
6
CONTINUOUS
10
200.539
20
-148.57
11
200.635
21
-148.475
0
LINE
8
BLACK
6
CONTINUOUS
10
200.635
20
-148.475
11
200.539
21
-148.38
0
LINE
8
BLACK
6
CONTINUOUS
10
200.539
20
-148.38
11
200.539
21
-148.57
0
LINE
8
BLACK
6
CONTINUOUS
10
201.777
20
-150.38
11
201.587
21
-150.285
0
LINE
8
BLACK
6
CONTINUOUS
10
201.587
20
-150.285
11
201.492
21
-150.094
0
LINE
8
BLACK
6
CONTINUOUS
10
201.492
20
-150.094
11
201.492
21
-148.38
0
LINE
8
BLACK
6
CONTINUOUS
10
202.825
20
-150.38
11
202.635
21
-150.285
0
LINE
8
BLACK
6
CONTINUOUS
10
202.635
20
-150.285
11
202.539
21
-150.094
0
LINE
8
BLACK
6
CONTINUOUS
10
202.539
20
-150.094
11
202.539
21
-148.38
0
LINE
8
BLACK
6
CONTINUOUS
10
205.111
20
-150.38
11
205.111
21
-148.38
0
LINE
8
BLACK
6
CONTINUOUS
10
205.111
20
-148.38
11
205.777
21
-149.808
0
LINE
8
BLACK
6
CONTINUOUS
10
205.777
20
-149.808
11
206.444
21
-148.38
0
LINE
8
BLACK
6
CONTINUOUS
10
206.444
20
-148.38
11
206.444
21
-150.38
0
LINE
8
BLACK
6
CONTINUOUS
10
208.254
20
-150.38
11
208.254
21
-149.332
0
LINE
8
BLACK
6
CONTINUOUS
10
208.254
20
-149.332
11
208.158
21
-149.142
0
LINE
8
BLACK
6
CONTINUOUS
10
208.158
20
-149.142
11
207.968
21
-149.046
0
LINE
8
BLACK
6
CONTINUOUS
10
207.968
20
-149.046
11
207.587
21
-149.046
0
LINE
8
BLACK
6
CONTINUOUS
10
207.587
20
-149.046
11
207.396
21
-149.142
0
LINE
8
BLACK
6
CONTINUOUS
10
208.254
20
-150.285
11
208.063
21
-150.38
0
LINE
8
BLACK
6
CONTINUOUS
10
208.063
20
-150.38
11
207.587
21
-150.38
0
LINE
8
BLACK
6
CONTINUOUS
10
207.587
20
-150.38
11
207.396
21
-150.285
0
LINE
8
BLACK
6
CONTINUOUS
10
207.396
20
-150.285
11
207.301
21
-150.094
0
LINE
8
BLACK
6
CONTINUOUS
10
207.301
20
-150.094
11
207.301
21
-149.904
0
LINE
8
BLACK
6
CONTINUOUS
10
207.301
20
-149.904
11
207.396
21
-149.713
0
LINE
8
BLACK
6
CONTINUOUS
10
207.396
20
-149.713
11
207.587
21
-149.618
0
LINE
8
BLACK
6
CONTINUOUS
10
207.587
20
-149.618
11
208.063
21
-149.618
0
LINE
8
BLACK
6
CONTINUOUS
10
208.063
20
-149.618
11
208.254
21
-149.523
0
LINE
8
BLACK
6
CONTINUOUS
10
209.206
20
-149.046
11
209.206
21
-151.046
0
LINE
8
BLACK
6
CONTINUOUS
10
209.206
20
-149.142
11
209.396
21
-149.046
0
LINE
8
BLACK
6
CONTINUOUS
10
209.396
20
-149.046
11
209.777
21
-149.046
0
LINE
8
BLACK
6
CONTINUOUS
10
209.777
20
-149.046
11
209.968
21
-149.142
0
LINE
8
BLACK
6
CONTINUOUS
10
209.968
20
-149.142
11
210.063
21
-149.237
0
LINE
8
BLACK
6
CONTINUOUS
10
210.063
20
-149.237
11
210.158
21
-149.427
0
LINE
8
BLACK
6
CONTINUOUS
10
210.158
20
-149.427
11
210.158
21
-149.999
0
LINE
8
BLACK
6
CONTINUOUS
10
210.158
20
-149.999
11
210.063
21
-150.189
0
LINE
8
BLACK
6
CONTINUOUS
10
210.063
20
-150.189
11
209.968
21
-150.285
0
LINE
8
BLACK
6
CONTINUOUS
10
209.968
20
-150.285
11
209.777
21
-150.38
0
LINE
8
BLACK
6
CONTINUOUS
10
209.777
20
-150.38
11
209.396
21
-150.38
0
LINE
8
BLACK
6
CONTINUOUS
10
209.396
20
-150.38
11
209.206
21
-150.285
0
LINE
8
BLACK
6
CONTINUOUS
10
211.015
20
-150.189
11
211.111
21
-150.285
0
LINE
8
BLACK
6
CONTINUOUS
10
211.111
20
-150.285
11
211.015
21
-150.38
0
LINE
8
BLACK
6
CONTINUOUS
10
211.015
20
-150.38
11
210.92
21
-150.285
0
LINE
8
BLACK
6
CONTINUOUS
10
210.92
20
-150.285
11
211.015
21
-150.189
0
LINE
8
BLACK
6
CONTINUOUS
10
211.015
20
-150.189
11
211.015
21
-150.38
0
LINE
8
BLACK
6
CONTINUOUS
10
211.015
20
-149.142
11
211.111
21
-149.237
0
LINE
8
BLACK
6
CONTINUOUS
10
211.111
20
-149.237
11
211.015
21
-149.332
0
LINE
8
BLACK
6
CONTINUOUS
10
211.015
20
-149.332
11
210.92
21
-149.237
0
LINE
8
BLACK
6
CONTINUOUS
10
210.92
20
-149.237
11
211.015
21
-149.142
0
LINE
8
BLACK
6
CONTINUOUS
10
211.015
20
-149.142
11
211.015
21
-149.332
  0
ENDSEC
  0
EOF
