%TF.GenerationSoftware,KiCad,Pcbnew,(6.0.4)*%
%TF.CreationDate,2023-01-08T04:04:53+01:00*%
%TF.ProjectId,Zazu,5a617a75-2e6b-4696-9361-645f70636258,rev?*%
%TF.SameCoordinates,Original*%
%TF.FileFunction,Soldermask,Bot*%
%TF.FilePolarity,Negative*%
%FSLAX46Y46*%
G04 Gerber Fmt 4.6, Leading zero omitted, Abs format (unit mm)*
G04 Created by KiCad (PCBNEW (6.0.4)) date 2023-01-08 04:04:53*
%MOMM*%
%LPD*%
G01*
G04 APERTURE LIST*
G04 Aperture macros list*
%AMRoundRect*
0 Rectangle with rounded corners*
0 $1 Rounding radius*
0 $2 $3 $4 $5 $6 $7 $8 $9 X,Y pos of 4 corners*
0 Add a 4 corners polygon primitive as box body*
4,1,4,$2,$3,$4,$5,$6,$7,$8,$9,$2,$3,0*
0 Add four circle primitives for the rounded corners*
1,1,$1+$1,$2,$3*
1,1,$1+$1,$4,$5*
1,1,$1+$1,$6,$7*
1,1,$1+$1,$8,$9*
0 Add four rect primitives between the rounded corners*
20,1,$1+$1,$2,$3,$4,$5,0*
20,1,$1+$1,$4,$5,$6,$7,0*
20,1,$1+$1,$6,$7,$8,$9,0*
20,1,$1+$1,$8,$9,$2,$3,0*%
%AMHorizOval*
0 Thick line with rounded ends*
0 $1 width*
0 $2 $3 position (X,Y) of the first rounded end (center of the circle)*
0 $4 $5 position (X,Y) of the second rounded end (center of the circle)*
0 Add line between two ends*
20,1,$1,$2,$3,$4,$5,0*
0 Add two circle primitives to create the rounded ends*
1,1,$1,$2,$3*
1,1,$1,$4,$5*%
%AMRotRect*
0 Rectangle, with rotation*
0 The origin of the aperture is its center*
0 $1 length*
0 $2 width*
0 $3 Rotation angle, in degrees counterclockwise*
0 Add horizontal line*
21,1,$1,$2,0,0,$3*%
%AMFreePoly0*
4,1,22,0.550000,-0.750000,0.000000,-0.750000,0.000000,-0.745033,-0.079941,-0.743568,-0.215256,-0.701293,-0.333266,-0.622738,-0.424486,-0.514219,-0.481581,-0.384460,-0.499164,-0.250000,-0.500000,-0.250000,-0.500000,0.250000,-0.499164,0.250000,-0.499963,0.256109,-0.478152,0.396186,-0.417904,0.524511,-0.324059,0.630769,-0.204165,0.706417,-0.067858,0.745374,0.000000,0.744959,0.000000,0.750000,
0.550000,0.750000,0.550000,-0.750000,0.550000,-0.750000,$1*%
%AMFreePoly1*
4,1,20,0.000000,0.744959,0.073905,0.744508,0.209726,0.703889,0.328688,0.626782,0.421226,0.519385,0.479903,0.390333,0.500000,0.250000,0.500000,-0.250000,0.499851,-0.262216,0.476331,-0.402017,0.414519,-0.529596,0.319384,-0.634700,0.198574,-0.708877,0.061801,-0.746166,0.000000,-0.745033,0.000000,-0.750000,-0.550000,-0.750000,-0.550000,0.750000,0.000000,0.750000,0.000000,0.744959,
0.000000,0.744959,$1*%
G04 Aperture macros list end*
%ADD10RoundRect,0.082000X-0.718000X0.328000X-0.718000X-0.328000X0.718000X-0.328000X0.718000X0.328000X0*%
%ADD11C,3.000000*%
%ADD12HorizOval,1.701800X-0.482963X0.129410X0.482963X-0.129410X0*%
%ADD13C,3.987800*%
%ADD14RotRect,2.600000X2.600000X165.000000*%
%ADD15RotRect,2.550000X2.500000X165.000000*%
%ADD16RotRect,3.000000X0.250000X345.000000*%
%ADD17RoundRect,0.062500X-0.347636X-0.272877X0.410136X0.164623X0.347636X0.272877X-0.410136X-0.164623X0*%
%ADD18RotRect,4.000000X0.250000X75.000000*%
%ADD19HorizOval,1.701800X-0.445503X-0.226995X0.445503X0.226995X0*%
%ADD20RotRect,2.550000X2.500000X207.000000*%
%ADD21RotRect,2.600000X2.600000X207.000000*%
%ADD22RotRect,3.000000X0.250000X27.000000*%
%ADD23RoundRect,0.062500X-0.075754X-0.435401X0.194636X0.396774X0.075754X0.435401X-0.194636X-0.396774X0*%
%ADD24RotRect,4.000000X0.250000X117.000000*%
%ADD25RoundRect,0.082000X-0.778427X0.130992X-0.608642X-0.502656X0.778427X-0.130992X0.608642X0.502656X0*%
%ADD26C,4.500000*%
%ADD27HorizOval,1.701800X-0.482963X-0.129410X0.482963X0.129410X0*%
%ADD28RotRect,2.600000X2.600000X195.000000*%
%ADD29RotRect,2.550000X2.500000X195.000000*%
%ADD30RotRect,4.000000X0.250000X105.000000*%
%ADD31RoundRect,0.062500X-0.164623X-0.410136X0.272877X0.347636X0.164623X0.410136X-0.272877X-0.347636X0*%
%ADD32RotRect,3.000000X0.250000X15.000000*%
%ADD33RoundRect,0.082000X-0.490834X0.618215X-0.788652X0.033715X0.490834X-0.618215X0.788652X-0.033715X0*%
%ADD34RoundRect,0.082000X-0.788652X-0.033715X-0.490834X-0.618215X0.788652X0.033715X0.490834X0.618215X0*%
%ADD35HorizOval,1.701800X-0.445503X0.226995X0.445503X-0.226995X0*%
%ADD36RotRect,2.600000X2.600000X153.000000*%
%ADD37RotRect,2.550000X2.500000X153.000000*%
%ADD38RoundRect,0.082000X-0.608642X0.502656X-0.778427X-0.130992X0.608642X-0.502656X0.778427X0.130992X0*%
%ADD39C,1.752600*%
%ADD40RoundRect,0.375000X0.829455X0.123000X0.399273X0.737364X-0.829455X-0.123000X-0.399273X-0.737364X0*%
%ADD41RotRect,4.000000X0.250000X63.000000*%
%ADD42RoundRect,0.062500X-0.396774X-0.194636X0.435401X0.075754X0.396774X0.194636X-0.435401X-0.075754X0*%
%ADD43RotRect,3.000000X0.250000X333.000000*%
%ADD44O,2.701800X1.701800*%
%ADD45R,2.600000X2.600000*%
%ADD46R,2.550000X2.500000*%
%ADD47R,3.000000X0.250000*%
%ADD48R,0.250000X4.000000*%
%ADD49RoundRect,0.062500X-0.265165X-0.353553X0.353553X0.265165X0.265165X0.353553X-0.353553X-0.265165X0*%
%ADD50RoundRect,0.082000X-0.788589X0.035149X-0.542847X-0.573084X0.788589X-0.035149X0.542847X0.573084X0*%
%ADD51HorizOval,1.701800X-0.463592X-0.187303X0.463592X0.187303X0*%
%ADD52RotRect,2.600000X2.600000X202.000000*%
%ADD53RotRect,2.550000X2.500000X202.000000*%
%ADD54RotRect,3.000000X0.250000X22.000000*%
%ADD55RotRect,4.000000X0.250000X112.000000*%
%ADD56RoundRect,0.062500X-0.113413X-0.427142X0.228476X0.378300X0.113413X0.427142X-0.228476X-0.378300X0*%
%ADD57C,3.200000*%
%ADD58C,4.200000*%
%ADD59C,2.400000*%
%ADD60C,2.100000*%
%ADD61RotRect,4.400000X4.400000X140.000000*%
%ADD62HorizOval,1.701800X-0.463592X0.187303X0.463592X-0.187303X0*%
%ADD63RotRect,2.550000X2.500000X158.000000*%
%ADD64RotRect,2.600000X2.600000X158.000000*%
%ADD65RotRect,3.000000X0.250000X338.000000*%
%ADD66RotRect,4.000000X0.250000X68.000000*%
%ADD67RoundRect,0.062500X-0.378300X-0.228476X0.427142X0.113413X0.378300X0.228476X-0.427142X-0.113413X0*%
%ADD68R,1.700000X1.700000*%
%ADD69O,1.700000X1.700000*%
%ADD70C,1.800000*%
%ADD71C,1.600000*%
%ADD72RoundRect,0.082000X-0.542847X0.573084X-0.788589X-0.035149X0.542847X-0.573084X0.788589X0.035149X0*%
%ADD73C,1.700000*%
%ADD74HorizOval,1.700000X0.000000X0.000000X0.000000X0.000000X0*%
%ADD75HorizOval,2.200000X0.532449X0.372825X-0.532449X-0.372825X0*%
%ADD76RotRect,1.500000X2.500000X125.000000*%
%ADD77HorizOval,1.500000X0.409576X0.286788X-0.409576X-0.286788X0*%
%ADD78RotRect,0.900000X1.200000X358.000000*%
%ADD79R,0.900000X1.200000*%
%ADD80RotRect,0.650000X0.400000X148.000000*%
%ADD81RoundRect,0.150000X0.034471X-0.227896X0.219943X0.068921X-0.034471X0.227896X-0.219943X-0.068921X0*%
%ADD82RoundRect,0.250000X0.250000X0.475000X-0.250000X0.475000X-0.250000X-0.475000X0.250000X-0.475000X0*%
%ADD83R,0.280000X1.250000*%
%ADD84R,1.800000X2.000000*%
%ADD85RotRect,0.900000X1.200000X2.000000*%
%ADD86RoundRect,0.150000X0.150000X-0.825000X0.150000X0.825000X-0.150000X0.825000X-0.150000X-0.825000X0*%
%ADD87RoundRect,0.140000X-0.069979X0.208813X-0.218357X-0.028640X0.069979X-0.208813X0.218357X0.028640X0*%
%ADD88RotRect,0.280000X1.250000X35.000000*%
%ADD89RotRect,1.800000X2.000000X35.000000*%
%ADD90RoundRect,0.250000X0.262500X0.450000X-0.262500X0.450000X-0.262500X-0.450000X0.262500X-0.450000X0*%
%ADD91RoundRect,0.250000X-0.262500X-0.450000X0.262500X-0.450000X0.262500X0.450000X-0.262500X0.450000X0*%
%ADD92RotRect,0.900000X1.200000X1.000000*%
%ADD93RoundRect,0.250000X0.450000X-0.262500X0.450000X0.262500X-0.450000X0.262500X-0.450000X-0.262500X0*%
%ADD94FreePoly0,153.000000*%
%ADD95RotRect,1.000000X1.500000X153.000000*%
%ADD96FreePoly1,153.000000*%
%ADD97RoundRect,0.218750X-0.321302X-0.101392X0.049719X-0.333232X0.321302X0.101392X-0.049719X0.333232X0*%
%ADD98RotRect,0.900000X1.200000X359.000000*%
%ADD99R,1.200000X0.900000*%
%ADD100RoundRect,0.250000X-0.250000X-0.475000X0.250000X-0.475000X0.250000X0.475000X-0.250000X0.475000X0*%
%ADD101R,1.400000X1.400000*%
%ADD102C,1.400000*%
%ADD103RoundRect,0.150000X-0.512500X-0.150000X0.512500X-0.150000X0.512500X0.150000X-0.512500X0.150000X0*%
%ADD104RoundRect,0.250000X0.475000X-0.250000X0.475000X0.250000X-0.475000X0.250000X-0.475000X-0.250000X0*%
%ADD105RotRect,1.600000X1.400000X325.000000*%
%ADD106RoundRect,0.250000X-0.350000X-0.625000X0.350000X-0.625000X0.350000X0.625000X-0.350000X0.625000X0*%
%ADD107O,1.200000X1.750000*%
G04 APERTURE END LIST*
D10*
%TO.C,D73*%
X239840436Y-173514437D03*
X239840436Y-175014437D03*
X245040436Y-175014437D03*
X245040436Y-173514437D03*
%TD*%
D11*
%TO.C,SW7*%
X98592421Y-93404918D03*
D12*
X99485719Y-89761990D03*
D11*
X102849463Y-96826621D03*
D13*
X104389436Y-91079362D03*
D12*
X109298500Y-92395418D03*
D11*
X108248494Y-95995678D03*
X107415399Y-94516343D03*
X100624370Y-95326294D03*
D14*
X95429014Y-92557285D03*
D15*
X97431697Y-94474244D03*
D14*
X106012871Y-97674253D03*
D16*
X108154148Y-98604182D03*
D17*
X109939451Y-98783023D03*
D18*
X110805368Y-96675723D03*
D15*
X111095576Y-95502444D03*
%TD*%
D11*
%TO.C,SW26*%
X301161184Y-146242255D03*
D19*
X293934275Y-143242996D03*
D11*
X304617437Y-142012088D03*
X303008459Y-141470177D03*
D19*
X302988699Y-138633982D03*
D13*
X298459941Y-140940766D03*
D11*
X298503703Y-146616173D03*
X295708020Y-146547951D03*
D20*
X295560952Y-148119292D03*
D21*
X292789973Y-148034770D03*
D22*
X306292755Y-144013713D03*
D23*
X307739161Y-142952018D03*
D20*
X306403194Y-139740473D03*
D21*
X304079231Y-144755436D03*
D24*
X306972603Y-140806577D03*
%TD*%
D25*
%TO.C,D42*%
X341967477Y-104647526D03*
X342355705Y-106096415D03*
X347378520Y-104750556D03*
X346990291Y-103301667D03*
%TD*%
D11*
%TO.C,SW40*%
X102542589Y-112933990D03*
X97976653Y-115244268D03*
X93719611Y-111822565D03*
X95751560Y-113743941D03*
D12*
X94612909Y-108179637D03*
D11*
X103375684Y-114413325D03*
D13*
X99516626Y-109497009D03*
D12*
X104425690Y-110813065D03*
D15*
X92558887Y-112891891D03*
D14*
X90556204Y-110974932D03*
D18*
X105932558Y-115093370D03*
D16*
X103281338Y-117021829D03*
D17*
X105066641Y-117200670D03*
D15*
X106222766Y-113920091D03*
D14*
X101140061Y-116091900D03*
%TD*%
D26*
%TO.C,H10*%
X238452436Y-125369438D03*
%TD*%
D27*
%TO.C,SW44*%
X366927533Y-94275404D03*
D11*
X363558105Y-101337457D03*
D13*
X362018131Y-95590199D03*
D27*
X357112702Y-96901180D03*
D11*
X360880954Y-101150683D03*
X358160547Y-100502696D03*
X366357183Y-97053730D03*
X367818332Y-97918324D03*
D28*
X354997140Y-101350328D03*
D29*
X357689993Y-102009123D03*
D30*
X370372672Y-97228823D03*
D28*
X366721513Y-100489825D03*
D31*
X370676416Y-99486757D03*
D32*
X369040879Y-100224528D03*
D29*
X370037360Y-96067629D03*
%TD*%
D11*
%TO.C,SW34*%
X334996043Y-78403057D03*
X332275636Y-77755070D03*
X341933421Y-75170698D03*
D13*
X336133220Y-72842573D03*
D27*
X331227791Y-74153554D03*
D11*
X337673194Y-78589831D03*
D27*
X341042622Y-71527778D03*
D11*
X340472272Y-74306104D03*
D28*
X329112229Y-78602702D03*
D29*
X331805082Y-79261497D03*
D30*
X344487761Y-74481197D03*
D29*
X344152449Y-73320003D03*
D28*
X340836602Y-77742199D03*
D31*
X344791505Y-76739131D03*
D32*
X343155968Y-77476902D03*
%TD*%
D33*
%TO.C,D85*%
X148049543Y-133999589D03*
X147368557Y-135336098D03*
X152001791Y-137696849D03*
X152682777Y-136360339D03*
%TD*%
D11*
%TO.C,SW39*%
X77609049Y-97598565D03*
X81866091Y-101020268D03*
D12*
X78502347Y-93955637D03*
D13*
X83406064Y-95273009D03*
D11*
X86432027Y-98709990D03*
X87265122Y-100189325D03*
X79640998Y-99519941D03*
D12*
X88315128Y-96589065D03*
D14*
X74445642Y-96750932D03*
D15*
X76448325Y-98667891D03*
D14*
X85029499Y-101867900D03*
D16*
X87170776Y-102797829D03*
D15*
X90112204Y-99696091D03*
D17*
X88956079Y-102976670D03*
D18*
X89821996Y-100869370D03*
%TD*%
D26*
%TO.C,H8*%
X321563075Y-65876331D03*
%TD*%
D25*
%TO.C,D56*%
X337039123Y-86244201D03*
X337427351Y-87693090D03*
X342450166Y-86347231D03*
X342061937Y-84898342D03*
%TD*%
D34*
%TO.C,D50*%
X251211132Y-96101430D03*
X251892118Y-97437940D03*
X256525352Y-95077189D03*
X255844366Y-93740680D03*
%TD*%
D11*
%TO.C,SW20*%
X170111891Y-138675631D03*
X175058384Y-137365150D03*
X166659288Y-134443612D03*
D35*
X168290472Y-131066018D03*
X177341300Y-135682091D03*
D11*
X175565703Y-138985368D03*
X168247357Y-136745467D03*
D13*
X172813134Y-133374142D03*
D36*
X163741242Y-132956793D03*
D37*
X165301602Y-135248243D03*
X178453119Y-139094854D03*
D36*
X173029938Y-140162451D03*
%TD*%
D34*
%TO.C,D57*%
X267513306Y-86059334D03*
X268194292Y-87395844D03*
X272827526Y-85035093D03*
X272146540Y-83698584D03*
%TD*%
D38*
%TO.C,D48*%
X98517320Y-103190161D03*
X98129091Y-104639050D03*
X103151906Y-105984909D03*
X103540134Y-104536020D03*
%TD*%
D25*
%TO.C,D49*%
X357999283Y-90627961D03*
X358387511Y-92076850D03*
X363410326Y-90730991D03*
X363022097Y-89282102D03*
%TD*%
D39*
%TO.C,U1*%
X185174396Y-77582685D03*
X187280152Y-79003035D03*
X189385907Y-80423385D03*
X191491662Y-81843735D03*
X193597418Y-83264085D03*
X195703173Y-84684435D03*
X197808929Y-86104785D03*
X199914684Y-87525135D03*
X202020440Y-88945485D03*
X204126195Y-90365835D03*
X206231951Y-91786185D03*
X208348890Y-93189954D03*
X216859806Y-80572003D03*
X214754050Y-79151653D03*
X212648295Y-77731303D03*
X210542540Y-76310953D03*
X208436784Y-74890603D03*
X206331029Y-73470253D03*
X204225273Y-72049903D03*
X202119518Y-70629553D03*
X200013762Y-69209203D03*
X197908007Y-67788853D03*
X195802251Y-66368503D03*
X193696496Y-64948153D03*
X209758056Y-91100780D03*
X211178406Y-88995024D03*
X212598756Y-86889269D03*
X214019106Y-84783513D03*
X215439456Y-82677758D03*
X207652301Y-89680430D03*
X196510025Y-69861447D03*
X183171019Y-76207266D03*
X191693119Y-63572733D03*
%TD*%
D40*
%TO.C,J4*%
X243483662Y-66696862D03*
X244630815Y-68335166D03*
X245777968Y-69973470D03*
%TD*%
D26*
%TO.C,H9*%
X207131342Y-125369438D03*
%TD*%
D11*
%TO.C,SW21*%
X286671920Y-151641986D03*
X284824645Y-156414064D03*
D19*
X277597736Y-153414805D03*
X286652160Y-148805791D03*
D11*
X282167164Y-156787982D03*
X288280898Y-152183897D03*
X279371481Y-156719760D03*
D13*
X282123402Y-151112575D03*
D20*
X279224413Y-158291101D03*
D21*
X276453434Y-158206579D03*
D23*
X291402622Y-153123827D03*
D24*
X290636064Y-150978386D03*
D22*
X289956216Y-154185522D03*
D21*
X287742692Y-154927245D03*
D20*
X290066655Y-149912282D03*
%TD*%
D38*
%TO.C,D46*%
X87301632Y-70632043D03*
X86913403Y-72080932D03*
X91936218Y-73426791D03*
X92324446Y-71977902D03*
%TD*%
D11*
%TO.C,SW43*%
X350325377Y-111073295D03*
X342128741Y-114522261D03*
X351786526Y-111937889D03*
D27*
X350895727Y-108294969D03*
D11*
X347526299Y-115357022D03*
X344849148Y-115170248D03*
D27*
X341080896Y-110920745D03*
D13*
X345986325Y-109609764D03*
D29*
X341658187Y-116028688D03*
D28*
X338965334Y-115369893D03*
D31*
X354644610Y-113506322D03*
D30*
X354340866Y-111248388D03*
D29*
X354005554Y-110087194D03*
D32*
X353009073Y-114244093D03*
D28*
X350689707Y-114509390D03*
%TD*%
D11*
%TO.C,SW23*%
X270684394Y-139688841D03*
X279593811Y-135152978D03*
D19*
X268910649Y-136383886D03*
D13*
X273436315Y-134081656D03*
D19*
X277965073Y-131774872D03*
D11*
X276137558Y-139383145D03*
X273480077Y-139757063D03*
X277984833Y-134611067D03*
D21*
X267766347Y-141175660D03*
D20*
X270537326Y-141260182D03*
D21*
X279055605Y-137896326D03*
D20*
X281379568Y-132881363D03*
%TD*%
D34*
%TO.C,D51*%
X293496559Y-136926574D03*
X294177545Y-138263084D03*
X298810779Y-135902333D03*
X298129793Y-134565824D03*
%TD*%
D13*
%TO.C,SW25*%
X281102507Y-107002649D03*
D11*
X281146269Y-112678056D03*
X285651025Y-107532060D03*
D19*
X285631265Y-104695865D03*
D11*
X278350586Y-112609834D03*
X287260003Y-108073971D03*
X283803750Y-112304138D03*
D19*
X276576841Y-109304879D03*
D21*
X275432539Y-114096653D03*
D20*
X278203518Y-114181175D03*
X289045760Y-105802356D03*
D22*
X288935321Y-110075596D03*
D24*
X289615169Y-106868460D03*
D21*
X286721797Y-110817319D03*
D23*
X290381727Y-109013901D03*
%TD*%
D26*
%TO.C,*%
X331814000Y-117630000D03*
%TD*%
D11*
%TO.C,SW4*%
X154471486Y-78477164D03*
X161282513Y-79096847D03*
X156336020Y-80407328D03*
X152883417Y-76175309D03*
D35*
X163565429Y-77413788D03*
D11*
X161789832Y-80717065D03*
D13*
X159037263Y-75105839D03*
D35*
X154514601Y-72797715D03*
D37*
X151525731Y-76979940D03*
D36*
X149965371Y-74688490D03*
D37*
X164677248Y-80826551D03*
D36*
X159254067Y-81894148D03*
D41*
X164149442Y-81913854D03*
D42*
X162864315Y-83795070D03*
D43*
X161155210Y-83248952D03*
%TD*%
D33*
%TO.C,D61*%
X150741594Y-85660019D03*
X150060608Y-86996528D03*
X154693842Y-89357279D03*
X155374828Y-88020769D03*
%TD*%
%TO.C,D84*%
X173146933Y-126997347D03*
X172465947Y-128333856D03*
X177099181Y-130694607D03*
X177780167Y-129358097D03*
%TD*%
D38*
%TO.C,D91*%
X82406758Y-88966161D03*
X82018529Y-90415050D03*
X87041344Y-91760909D03*
X87429572Y-90312020D03*
%TD*%
D33*
%TO.C,D90*%
X190426234Y-93211642D03*
X189745248Y-94548151D03*
X194378482Y-96908902D03*
X195059468Y-95572392D03*
%TD*%
D11*
%TO.C,SW8*%
X170955228Y-94704308D03*
D13*
X173656471Y-89402819D03*
D11*
X169090694Y-92774144D03*
D35*
X178184637Y-91710768D03*
D11*
X176409040Y-95014045D03*
X167502625Y-90472289D03*
X175901721Y-93393827D03*
D35*
X169133809Y-87094695D03*
D37*
X166144939Y-91276920D03*
D36*
X164584579Y-88985470D03*
D43*
X175774418Y-97545932D03*
D41*
X178768650Y-96210834D03*
D37*
X179296456Y-95123531D03*
D42*
X177483523Y-98092050D03*
D36*
X173873275Y-96191128D03*
%TD*%
D38*
%TO.C,D83*%
X103386944Y-84775086D03*
X102998715Y-86223975D03*
X108021530Y-87569834D03*
X108409758Y-86120945D03*
%TD*%
D44*
%TO.C,SW22*%
X237362848Y-179341129D03*
D13*
X242440436Y-179344437D03*
D11*
X247440436Y-183094436D03*
X242440436Y-185294437D03*
X239902848Y-184421129D03*
X246252848Y-181881129D03*
X237442848Y-183091129D03*
D44*
X247522848Y-179345090D03*
D45*
X234167848Y-183091129D03*
D46*
X236598436Y-184424437D03*
X250062848Y-181881129D03*
D47*
X248024436Y-185638476D03*
D48*
X250086195Y-183089541D03*
D49*
X249795192Y-185349153D03*
D45*
X245715437Y-185294437D03*
%TD*%
D10*
%TO.C,D59*%
X201234852Y-173514438D03*
X201234852Y-175014438D03*
X206434852Y-175014438D03*
X206434852Y-173514438D03*
%TD*%
D50*
%TO.C,D88*%
X319612761Y-101489393D03*
X320174670Y-102880169D03*
X324996026Y-100932215D03*
X324434117Y-99541439D03*
%TD*%
D26*
%TO.C,H3*%
X245972677Y-161342170D03*
%TD*%
D33*
%TO.C,D67*%
X159367411Y-68730898D03*
X158686425Y-70067407D03*
X163319659Y-72428158D03*
X164000645Y-71091648D03*
%TD*%
D11*
%TO.C,SW33*%
X313859720Y-93650404D03*
X323130561Y-89908308D03*
X316638820Y-93962027D03*
X321574936Y-89228228D03*
D51*
X312380771Y-90203433D03*
D11*
X319318777Y-93821147D03*
D13*
X317089868Y-88304403D03*
D51*
X321802443Y-86401103D03*
D52*
X310823193Y-94877241D03*
D53*
X313576261Y-95202948D03*
D54*
X324625050Y-92048331D03*
D52*
X322355305Y-92594310D03*
D55*
X325581833Y-88912651D03*
D53*
X325107507Y-87800977D03*
D56*
X326158485Y-91116738D03*
%TD*%
D11*
%TO.C,SW16*%
X166842288Y-156023644D03*
X161388476Y-155713907D03*
X157935873Y-151481888D03*
X166334969Y-154403426D03*
X159523942Y-153783743D03*
D35*
X159567057Y-148104294D03*
X168617885Y-152720367D03*
D13*
X164089719Y-150412418D03*
D36*
X155017827Y-149995069D03*
D37*
X156578187Y-152286519D03*
D43*
X166207666Y-158555531D03*
D42*
X167916771Y-159101649D03*
D37*
X169729704Y-156133130D03*
D36*
X164306523Y-157200727D03*
D41*
X169201898Y-157220433D03*
%TD*%
D11*
%TO.C,SW28*%
X290974536Y-75638313D03*
X289127261Y-80410391D03*
X283674097Y-80716087D03*
D13*
X286426018Y-75108902D03*
D11*
X292583514Y-76180224D03*
D19*
X281900352Y-77411132D03*
D11*
X286469780Y-80784309D03*
D19*
X290954776Y-72802118D03*
D21*
X280756050Y-82202906D03*
D20*
X283527029Y-82287428D03*
D22*
X294258832Y-78181849D03*
D24*
X294938680Y-74974713D03*
D21*
X292045308Y-78923572D03*
D23*
X295705238Y-77120154D03*
D20*
X294369271Y-73908609D03*
%TD*%
D35*
%TO.C,SW5*%
X145888783Y-89726836D03*
D11*
X153164014Y-97646186D03*
X147710202Y-97336449D03*
X144257599Y-93104430D03*
X152656695Y-96025968D03*
D13*
X150411445Y-92034960D03*
D35*
X154939611Y-94342909D03*
D11*
X145845668Y-95406285D03*
D36*
X141339553Y-91617611D03*
D37*
X142899913Y-93909061D03*
D36*
X150628249Y-98823269D03*
D42*
X154238497Y-100724191D03*
D37*
X156051430Y-97755672D03*
D41*
X155523624Y-98842975D03*
D43*
X152529392Y-100178073D03*
%TD*%
D34*
%TO.C,D72*%
X298714270Y-104952957D03*
X299395256Y-106289467D03*
X304028490Y-103928716D03*
X303347504Y-102592207D03*
%TD*%
D10*
%TO.C,D66*%
X220514848Y-173511130D03*
X220514848Y-175011130D03*
X225714848Y-175011130D03*
X225714848Y-173511130D03*
%TD*%
D57*
%TO.C,SW36*%
X197228052Y-139501819D03*
D58*
X207996008Y-142991378D03*
D59*
X201809741Y-113113345D03*
D57*
X212691390Y-152477497D03*
D59*
X236894041Y-144162398D03*
D58*
X245986230Y-128418738D03*
X214365675Y-102810086D03*
D60*
X243984085Y-103369716D03*
X240153863Y-100155778D03*
X242068974Y-101762747D03*
D61*
X246205658Y-140541280D03*
X203178553Y-104440241D03*
%TD*%
D35*
%TO.C,SW15*%
X160932999Y-125569020D03*
D11*
X153703590Y-128562560D03*
X150250987Y-124330541D03*
D13*
X156404833Y-123261071D03*
D11*
X158650083Y-127252079D03*
X151839056Y-126632396D03*
X159157402Y-128872297D03*
D35*
X151882171Y-120952947D03*
D36*
X147332941Y-122843722D03*
D37*
X148893301Y-125135172D03*
D43*
X158522780Y-131404184D03*
D41*
X161517012Y-130069086D03*
D37*
X162044818Y-128981783D03*
D42*
X160231885Y-131950302D03*
D36*
X156621637Y-130049380D03*
%TD*%
D27*
%TO.C,SW45*%
X361960169Y-75868698D03*
D11*
X361389819Y-78647024D03*
X353193183Y-82095990D03*
D13*
X357050767Y-77183493D03*
D27*
X352145338Y-78494474D03*
D11*
X355913590Y-82743977D03*
X362850968Y-79511618D03*
X358590741Y-82930751D03*
D29*
X352722629Y-83602417D03*
D28*
X350029776Y-82943622D03*
D30*
X365405308Y-78822117D03*
D29*
X365069996Y-77660923D03*
D32*
X364073515Y-81817822D03*
D28*
X361754149Y-82083119D03*
D31*
X365709052Y-81080051D03*
%TD*%
D34*
%TO.C,D44*%
X259836951Y-113030556D03*
X260517937Y-114367066D03*
X265151171Y-112006315D03*
X264470185Y-110669806D03*
%TD*%
%TO.C,D65*%
X284764942Y-119917586D03*
X285445928Y-121254096D03*
X290079162Y-118893345D03*
X289398176Y-117556836D03*
%TD*%
D33*
%TO.C,D41*%
X164419867Y-144037476D03*
X163738881Y-145373985D03*
X168372115Y-147734736D03*
X169053101Y-146398226D03*
%TD*%
D27*
%TO.C,SW31*%
X345968847Y-89887825D03*
X336154016Y-92513601D03*
D11*
X339922268Y-96763104D03*
X342599419Y-96949878D03*
X345398497Y-92666151D03*
D13*
X341059445Y-91202620D03*
D11*
X337201861Y-96115117D03*
X346859646Y-93530745D03*
D28*
X334038454Y-96962749D03*
D29*
X336731307Y-97621544D03*
D32*
X348082193Y-95836949D03*
D31*
X349717730Y-95099178D03*
D29*
X349078674Y-91680050D03*
D28*
X345762827Y-96102246D03*
D30*
X349413986Y-92841244D03*
%TD*%
D35*
%TO.C,SW41*%
X184477129Y-163689927D03*
D11*
X175383186Y-164753303D03*
X182194213Y-165372986D03*
X177247720Y-166683467D03*
X182701532Y-166993204D03*
X173795117Y-162451448D03*
D35*
X175426301Y-159073854D03*
D13*
X179948963Y-161381978D03*
D37*
X172437431Y-163256079D03*
D36*
X170877071Y-160964629D03*
D42*
X183776015Y-170071209D03*
D41*
X185061142Y-168189993D03*
D37*
X185588948Y-167102690D03*
D36*
X180165767Y-168170287D03*
D43*
X182066910Y-169525091D03*
%TD*%
D26*
%TO.C,H2*%
X203186436Y-160340438D03*
%TD*%
D11*
%TO.C,SW30*%
X306378895Y-114268638D03*
X300925731Y-114574334D03*
X309835148Y-110038471D03*
D19*
X308206410Y-106660365D03*
D11*
X308226170Y-109496560D03*
X303721414Y-114642556D03*
D13*
X303677652Y-108967149D03*
D19*
X299151986Y-111269379D03*
D20*
X300778663Y-116145675D03*
D21*
X298007684Y-116061153D03*
D22*
X311510466Y-112040096D03*
D21*
X309296942Y-112781819D03*
D20*
X311620905Y-107766856D03*
D24*
X312190314Y-108832960D03*
D23*
X312956872Y-110978401D03*
%TD*%
D11*
%TO.C,SW42*%
X266283579Y-167846342D03*
X263487896Y-167778120D03*
X268941060Y-167472424D03*
D13*
X266239817Y-162170935D03*
D19*
X270768575Y-159864151D03*
D11*
X272397313Y-163242257D03*
D19*
X261714151Y-164473165D03*
D11*
X270788335Y-162700346D03*
D20*
X263340828Y-169349461D03*
D21*
X260569849Y-169264939D03*
D22*
X274072631Y-165243882D03*
D21*
X271859107Y-165985605D03*
D23*
X275519037Y-164182187D03*
D20*
X274183070Y-160970642D03*
D24*
X274752479Y-162036746D03*
%TD*%
D34*
%TO.C,D64*%
X281462634Y-71094710D03*
X282143620Y-72431220D03*
X286776854Y-70070469D03*
X286095868Y-68733960D03*
%TD*%
D11*
%TO.C,SW6*%
X117001660Y-109673498D03*
X123840778Y-109697203D03*
X119027323Y-111433813D03*
D13*
X121256232Y-105917069D03*
D62*
X116549614Y-104011904D03*
D11*
X115219014Y-107518811D03*
X124487377Y-111267040D03*
D62*
X125968318Y-107821579D03*
D63*
X113936623Y-108438711D03*
D64*
X112182487Y-106291975D03*
D63*
X127373348Y-111124454D03*
D64*
X122063851Y-112660649D03*
D65*
X124075838Y-113844603D03*
D66*
X126942316Y-112253620D03*
D67*
X125826037Y-114239684D03*
%TD*%
D11*
%TO.C,SW12*%
X207647266Y-181881131D03*
X203834854Y-185294439D03*
X208834854Y-183094438D03*
D13*
X203834854Y-179344439D03*
D11*
X198837266Y-183091131D03*
D44*
X208917266Y-179345092D03*
D11*
X201297266Y-184421131D03*
D44*
X198757266Y-179341131D03*
D46*
X197992854Y-184424439D03*
D45*
X195562266Y-183091131D03*
D48*
X211480613Y-183089543D03*
D46*
X211457266Y-181881131D03*
D45*
X207109855Y-185294439D03*
D47*
X209418854Y-185638478D03*
D49*
X211189610Y-185349155D03*
%TD*%
D33*
%TO.C,D54*%
X165360798Y-99957003D03*
X164679812Y-101293512D03*
X169313046Y-103654263D03*
X169994032Y-102317753D03*
%TD*%
D11*
%TO.C,SW1*%
X129454059Y-72285823D03*
X131236705Y-74440510D03*
D13*
X135491277Y-70684081D03*
D62*
X130784659Y-68778916D03*
X140203363Y-72588591D03*
D11*
X133262368Y-76200825D03*
X138722422Y-76034052D03*
X138075823Y-74464215D03*
D63*
X128171668Y-73205723D03*
D64*
X126417532Y-71058987D03*
X136298896Y-77427661D03*
D63*
X141608393Y-75891466D03*
D65*
X138310883Y-78611615D03*
D67*
X140061082Y-79006696D03*
D66*
X141177361Y-77020632D03*
%TD*%
D50*
%TO.C,D71*%
X305377714Y-66256406D03*
X305939623Y-67647182D03*
X310760979Y-65699228D03*
X310199070Y-64308452D03*
%TD*%
D33*
%TO.C,D69*%
X156734981Y-116886128D03*
X156053995Y-118222637D03*
X160687229Y-120583388D03*
X161368215Y-119246878D03*
%TD*%
D34*
%TO.C,D58*%
X268473580Y-130063421D03*
X269154566Y-131399931D03*
X273787800Y-129039180D03*
X273106814Y-127702671D03*
%TD*%
%TO.C,D86*%
X276139123Y-102988458D03*
X276820109Y-104324968D03*
X281453343Y-101964217D03*
X280772357Y-100627708D03*
%TD*%
D26*
%TO.C,*%
X114644000Y-117376000D03*
%TD*%
D11*
%TO.C,SW11*%
X145018150Y-145676022D03*
X150471962Y-145985759D03*
D13*
X147719393Y-140374533D03*
D11*
X149964643Y-144365541D03*
D35*
X152247559Y-142682482D03*
D11*
X141565547Y-141444003D03*
X143153616Y-143745858D03*
D35*
X143196731Y-138066409D03*
D37*
X140207861Y-142248634D03*
D36*
X138647501Y-139957184D03*
D41*
X152831572Y-147182548D03*
D43*
X149837340Y-148517646D03*
D42*
X151546445Y-149063764D03*
D37*
X153359378Y-146095245D03*
D36*
X147936197Y-147162842D03*
%TD*%
D68*
%TO.C,J5*%
X198220436Y-150134438D03*
D69*
X198220436Y-152674438D03*
X198220436Y-155214438D03*
%TD*%
D33*
%TO.C,D52*%
X180282762Y-155005183D03*
X179601776Y-156341692D03*
X184235010Y-158702443D03*
X184915996Y-157365933D03*
%TD*%
D50*
%TO.C,D63*%
X312495235Y-83872898D03*
X313057144Y-85263674D03*
X317878500Y-83315720D03*
X317316591Y-81924944D03*
%TD*%
D70*
%TO.C,HAT1*%
X217557347Y-159592101D03*
D71*
X217557347Y-163292101D03*
D70*
X217557347Y-166092101D03*
X227857347Y-166092101D03*
D71*
X227857347Y-163292101D03*
D70*
X227857347Y-159592101D03*
%TD*%
D19*
%TO.C,SW19*%
X260274667Y-119346979D03*
D11*
X270957829Y-118116071D03*
X267501576Y-122346238D03*
X264844095Y-122720156D03*
D19*
X269329091Y-114737965D03*
D13*
X264800333Y-117044749D03*
D11*
X269348851Y-117574160D03*
X262048412Y-122651934D03*
D20*
X261901344Y-124223275D03*
D21*
X259130365Y-124138753D03*
D20*
X272743586Y-115844456D03*
D22*
X272633147Y-120117696D03*
D24*
X273312995Y-116910560D03*
D23*
X274079553Y-119056001D03*
D21*
X270419623Y-120859419D03*
%TD*%
D33*
%TO.C,D62*%
X142115772Y-102589145D03*
X141434786Y-103925654D03*
X146068020Y-106286405D03*
X146749006Y-104949895D03*
%TD*%
D13*
%TO.C,SW3*%
X109299485Y-72708973D03*
D11*
X107759512Y-78456232D03*
X113158543Y-77625289D03*
D12*
X104395768Y-71391601D03*
D11*
X105534419Y-76955905D03*
X103502470Y-75034529D03*
D12*
X114208549Y-74025029D03*
D11*
X112325448Y-76145954D03*
D15*
X102341746Y-76103855D03*
D14*
X100339063Y-74186896D03*
D15*
X116005625Y-77132055D03*
D14*
X110922920Y-79303864D03*
D18*
X115715417Y-78305334D03*
D16*
X113064197Y-80233793D03*
D17*
X114849500Y-80412634D03*
%TD*%
D25*
%TO.C,D87*%
X332112898Y-67884155D03*
X332501126Y-69333044D03*
X337523941Y-67987185D03*
X337135712Y-66538296D03*
%TD*%
D72*
%TO.C,D60*%
X135264557Y-64304622D03*
X134702648Y-65695398D03*
X139524004Y-67643352D03*
X140085913Y-66252576D03*
%TD*%
D11*
%TO.C,SW10*%
X135631779Y-110033556D03*
D35*
X137262963Y-106655962D03*
D13*
X141785625Y-108964086D03*
D35*
X146313791Y-111272035D03*
D11*
X144538194Y-114575312D03*
X144030875Y-112955094D03*
X139084382Y-114265575D03*
X137219848Y-112335411D03*
D36*
X132713733Y-108546737D03*
D37*
X134274093Y-110838187D03*
D42*
X145612677Y-117653317D03*
D37*
X147425610Y-114684798D03*
D43*
X143903572Y-117107199D03*
D36*
X142002429Y-115752395D03*
D41*
X146897804Y-115772101D03*
%TD*%
D51*
%TO.C,SW32*%
X314684923Y-68784611D03*
D11*
X312201257Y-76204655D03*
X316013041Y-72291816D03*
X314457416Y-71611736D03*
D51*
X305263251Y-72586941D03*
D11*
X309521300Y-76345535D03*
X306742200Y-76033912D03*
D13*
X309972348Y-70687911D03*
D52*
X303705673Y-77260749D03*
D53*
X306458741Y-77586456D03*
D54*
X317507530Y-74431839D03*
D53*
X317989987Y-70184485D03*
D56*
X319040965Y-73500246D03*
D52*
X315237785Y-74977818D03*
D55*
X318464313Y-71296159D03*
%TD*%
D25*
%TO.C,D92*%
X353031919Y-72221255D03*
X353420147Y-73670144D03*
X358442962Y-72324285D03*
X358054733Y-70875396D03*
%TD*%
D35*
%TO.C,SW9*%
X160507987Y-104023822D03*
D11*
X158876803Y-107401416D03*
X167783218Y-111943172D03*
D35*
X169558815Y-108639895D03*
D13*
X165030649Y-106331946D03*
D11*
X162329406Y-111633435D03*
X160464872Y-109703271D03*
X167275899Y-110322954D03*
D36*
X155958757Y-105914597D03*
D37*
X157519117Y-108206047D03*
D42*
X168857701Y-115021177D03*
D37*
X170670634Y-112052658D03*
D36*
X165247453Y-113120255D03*
D41*
X170142828Y-113139961D03*
D43*
X167148596Y-114475059D03*
%TD*%
D11*
%TO.C,SW13*%
X183942239Y-100656054D03*
X185530308Y-102957909D03*
D35*
X194624251Y-101894533D03*
X185573423Y-97278460D03*
D11*
X187394842Y-104888073D03*
X192848654Y-105197810D03*
X192341335Y-103577592D03*
D13*
X190096085Y-99586584D03*
D37*
X182584553Y-101460685D03*
D36*
X181024193Y-99169235D03*
X190312889Y-106374893D03*
D42*
X193923137Y-108275815D03*
D43*
X192214032Y-107729697D03*
D37*
X195736070Y-105307296D03*
D41*
X195208264Y-106394599D03*
%TD*%
D33*
%TO.C,D47*%
X181800412Y-110140765D03*
X181119426Y-111477274D03*
X185752660Y-113838025D03*
X186433646Y-112501515D03*
%TD*%
D11*
%TO.C,SW38*%
X84535872Y-81185823D03*
D13*
X88300938Y-76938891D03*
D12*
X83397221Y-75621519D03*
D11*
X91326901Y-80375872D03*
X92159996Y-81855207D03*
X86760965Y-82686150D03*
D12*
X93210002Y-78254947D03*
D11*
X82503923Y-79264447D03*
D14*
X79340516Y-78416814D03*
D15*
X81343199Y-80333773D03*
X95007078Y-81361973D03*
D17*
X93850953Y-84642552D03*
D16*
X92065650Y-84463711D03*
D14*
X89924373Y-83533782D03*
D18*
X94716870Y-82535252D03*
%TD*%
D11*
%TO.C,SW18*%
X253422592Y-105722808D03*
D19*
X260703271Y-97808839D03*
X251648847Y-102417853D03*
D11*
X262332009Y-101186945D03*
X256218275Y-105791030D03*
D13*
X256174513Y-100115623D03*
D11*
X260723031Y-100645034D03*
X258875756Y-105417112D03*
D20*
X253275524Y-107294149D03*
D21*
X250504545Y-107209627D03*
D22*
X264007327Y-103188570D03*
D20*
X264117766Y-98915330D03*
D21*
X261793803Y-103930293D03*
D24*
X264687175Y-99981434D03*
D23*
X265453733Y-102126875D03*
%TD*%
D34*
%TO.C,D89*%
X261277082Y-158152700D03*
X261958068Y-159489210D03*
X266591302Y-157128459D03*
X265910316Y-155791950D03*
%TD*%
D26*
%TO.C,H1*%
X135449344Y-119546080D03*
%TD*%
D11*
%TO.C,SW24*%
X278634182Y-91144848D03*
D19*
X267951020Y-92375756D03*
D11*
X277025204Y-90602937D03*
X269724765Y-95680711D03*
D19*
X277005444Y-87766742D03*
D11*
X275177929Y-95375015D03*
X272520448Y-95748933D03*
D13*
X272476686Y-90073526D03*
D20*
X269577697Y-97252052D03*
D21*
X266806718Y-97167530D03*
D23*
X281755906Y-92084778D03*
D22*
X280309500Y-93146473D03*
D24*
X280989348Y-89939337D03*
D20*
X280419939Y-88873233D03*
D21*
X278095976Y-93888196D03*
%TD*%
D11*
%TO.C,SW17*%
X220577260Y-184417822D03*
X228114848Y-183091129D03*
D13*
X223114848Y-179341130D03*
D44*
X218037260Y-179337822D03*
X228197260Y-179341783D03*
D11*
X226927260Y-181877822D03*
X223114848Y-185291130D03*
X218117260Y-183087822D03*
D46*
X217272848Y-184421130D03*
D45*
X214842260Y-183087822D03*
D49*
X230469604Y-185345846D03*
D46*
X230737260Y-181877822D03*
D48*
X230760607Y-183086234D03*
D45*
X226389849Y-185291130D03*
D47*
X228698848Y-185635169D03*
%TD*%
D34*
%TO.C,D70*%
X290088454Y-88023835D03*
X290769440Y-89360345D03*
X295402674Y-86999594D03*
X294721688Y-85663085D03*
%TD*%
D73*
%TO.C,U5*%
X236420970Y-83535811D03*
D74*
X237949581Y-85564345D03*
X239478191Y-87592879D03*
X241006801Y-89621413D03*
X242535411Y-91649948D03*
%TD*%
D34*
%TO.C,D45*%
X277160020Y-147098382D03*
X277841006Y-148434892D03*
X282474240Y-146074141D03*
X281793254Y-144737632D03*
%TD*%
D72*
%TO.C,D55*%
X121029509Y-99537609D03*
X120467600Y-100928385D03*
X125288956Y-102876339D03*
X125850865Y-101485563D03*
%TD*%
D75*
%TO.C,SW37*%
X254891672Y-64964955D03*
X259594999Y-71682001D03*
D76*
X258390488Y-69961782D03*
D77*
X257243335Y-68323478D03*
X256096182Y-66685174D03*
%TD*%
D19*
%TO.C,SW29*%
X290526170Y-94340257D03*
D11*
X299600354Y-92567438D03*
D13*
X295051836Y-92038027D03*
D11*
X301209332Y-93109349D03*
X295095598Y-97713434D03*
X297753079Y-97339516D03*
D19*
X299580594Y-89731243D03*
D11*
X292299915Y-97645212D03*
D20*
X292152847Y-99216553D03*
D21*
X289381868Y-99132031D03*
D23*
X304331056Y-94049279D03*
D20*
X302995089Y-90837734D03*
D22*
X302884650Y-95110974D03*
D24*
X303564498Y-91903838D03*
D21*
X300671126Y-95852697D03*
%TD*%
D11*
%TO.C,SW46*%
X323756347Y-111578521D03*
X326436304Y-111437641D03*
D13*
X324207395Y-105920897D03*
D51*
X319498298Y-107819927D03*
D11*
X328692463Y-106844722D03*
D51*
X328919970Y-104017597D03*
D11*
X320977247Y-111266898D03*
X330248088Y-107524802D03*
D52*
X317940720Y-112493735D03*
D53*
X320693788Y-112819442D03*
D56*
X333276012Y-108733232D03*
D55*
X332699360Y-106529145D03*
D53*
X332225034Y-105417471D03*
D54*
X331742577Y-109664825D03*
D52*
X329472832Y-110210804D03*
%TD*%
D11*
%TO.C,SW2*%
X124119472Y-92057412D03*
D13*
X128374044Y-88300983D03*
D11*
X126145135Y-93817727D03*
X131605189Y-93650954D03*
X130958590Y-92081117D03*
X122336826Y-89902725D03*
D62*
X133086130Y-90205493D03*
X123667426Y-86395818D03*
D63*
X121054435Y-90822625D03*
D64*
X119300299Y-88675889D03*
D66*
X134060128Y-94637534D03*
D65*
X131193650Y-96228517D03*
D63*
X134491160Y-93508368D03*
D64*
X129181663Y-95044563D03*
D67*
X132943849Y-96623598D03*
%TD*%
D26*
%TO.C,H5*%
X124112666Y-65939356D03*
%TD*%
D38*
%TO.C,D53*%
X108296995Y-66404695D03*
X107908766Y-67853584D03*
X112931581Y-69199443D03*
X113319809Y-67750554D03*
%TD*%
D13*
%TO.C,SW27*%
X289728323Y-123931778D03*
D11*
X292429566Y-129233267D03*
D19*
X294257081Y-121624994D03*
D11*
X294276841Y-124461189D03*
X286976402Y-129538963D03*
X289772085Y-129607185D03*
X295885819Y-125003100D03*
D19*
X285202657Y-126234008D03*
D21*
X284058355Y-131025782D03*
D20*
X286829334Y-131110304D03*
D23*
X299007543Y-125943030D03*
D24*
X298240985Y-123797589D03*
D21*
X295347613Y-127746448D03*
D22*
X297561137Y-127004725D03*
D20*
X297671576Y-122731485D03*
%TD*%
D11*
%TO.C,SW14*%
X178769020Y-121817198D03*
X184222832Y-122126935D03*
D35*
X185998429Y-118823658D03*
D13*
X181470263Y-116515709D03*
D11*
X183715513Y-120506717D03*
X175316417Y-117585179D03*
D35*
X176947601Y-114207585D03*
D11*
X176904486Y-119887034D03*
D37*
X173958731Y-118389810D03*
D36*
X172398371Y-116098360D03*
D41*
X186582442Y-123323724D03*
D37*
X187110248Y-122236421D03*
D36*
X181687067Y-123304018D03*
D42*
X185297315Y-125204940D03*
D43*
X183588210Y-124658822D03*
%TD*%
D33*
%TO.C,D74*%
X173986620Y-83027877D03*
X173305634Y-84364386D03*
X177938868Y-86725137D03*
X178619854Y-85388627D03*
%TD*%
D26*
%TO.C,H4*%
X309907997Y-119800077D03*
%TD*%
D72*
%TO.C,D68*%
X128147323Y-81921524D03*
X127585414Y-83312300D03*
X132406770Y-85260254D03*
X132968679Y-83869478D03*
%TD*%
D78*
%TO.C,D29*%
X303505441Y-98260854D03*
X306803431Y-98376022D03*
%TD*%
D79*
%TO.C,D39*%
X230860436Y-160040438D03*
X234160436Y-160040438D03*
%TD*%
D80*
%TO.C,U6*%
X194302529Y-72616630D03*
X193958082Y-73167861D03*
X193613634Y-73719093D03*
X192002343Y-72712246D03*
X192346790Y-72161015D03*
X192691238Y-71609783D03*
%TD*%
D81*
%TO.C,D40*%
X190131277Y-71078492D03*
X191323595Y-69170384D03*
%TD*%
D82*
%TO.C,C4*%
X232673275Y-121136078D03*
X230773275Y-121136078D03*
%TD*%
D79*
%TO.C,D15*%
X156946436Y-134132438D03*
X160246436Y-134132438D03*
%TD*%
D83*
%TO.C,J2*%
X220142000Y-152428000D03*
X220642000Y-152428000D03*
X221142000Y-152428000D03*
X221642000Y-152428000D03*
X222142000Y-152428000D03*
X222642000Y-152428000D03*
X223142000Y-152428000D03*
X223642000Y-152428000D03*
X224142000Y-152428000D03*
X224642000Y-152428000D03*
X225142000Y-152428000D03*
X225642000Y-152428000D03*
D84*
X227442000Y-149704000D03*
X218342000Y-149704000D03*
%TD*%
D85*
%TO.C,D3*%
X112972349Y-82374022D03*
X116270339Y-82258854D03*
%TD*%
D78*
%TO.C,D23*%
X283683441Y-137996854D03*
X286981431Y-138112022D03*
%TD*%
D86*
%TO.C,U2*%
X228286347Y-92557081D03*
X227016347Y-92557081D03*
X225746347Y-92557081D03*
X224476347Y-92557081D03*
X223206347Y-92557081D03*
X221936347Y-92557081D03*
X220666347Y-92557081D03*
X219396347Y-92557081D03*
X219396347Y-87607081D03*
X220666347Y-87607081D03*
X221936347Y-87607081D03*
X223206347Y-87607081D03*
X224476347Y-87607081D03*
X225746347Y-87607081D03*
X227016347Y-87607081D03*
X228286347Y-87607081D03*
%TD*%
D79*
%TO.C,D37*%
X213622000Y-168964003D03*
X216922000Y-168964003D03*
%TD*%
D87*
%TO.C,C6*%
X193521797Y-68447375D03*
X193013075Y-69261501D03*
%TD*%
D79*
%TO.C,D10*%
X141706436Y-120670438D03*
X145006436Y-120670438D03*
%TD*%
D85*
%TO.C,D9*%
X165583441Y-117934022D03*
X168881431Y-117818854D03*
%TD*%
D79*
%TO.C,D27*%
X299694436Y-128544438D03*
X302994436Y-128544438D03*
%TD*%
D88*
%TO.C,J1*%
X240409538Y-158811267D03*
X240819114Y-158524479D03*
X241228690Y-158237691D03*
X241638266Y-157950903D03*
X242047842Y-157664114D03*
X242457418Y-157377326D03*
X242866994Y-157090538D03*
X243276570Y-156803750D03*
X243686146Y-156516962D03*
X244095722Y-156230173D03*
X244505298Y-155943385D03*
X244914874Y-155656597D03*
D89*
X244826926Y-152392789D03*
X237372642Y-157612335D03*
%TD*%
D78*
%TO.C,D22*%
X247879441Y-187922854D03*
X251177431Y-188038022D03*
%TD*%
D90*
%TO.C,R1*%
X232635773Y-132566079D03*
X230810773Y-132566079D03*
%TD*%
D91*
%TO.C,R2*%
X230810775Y-130280080D03*
X232635775Y-130280080D03*
%TD*%
D92*
%TO.C,D19*%
X274802687Y-122477234D03*
X278102185Y-122419642D03*
%TD*%
D79*
%TO.C,D81*%
X370306436Y-101620438D03*
X373606436Y-101620438D03*
%TD*%
D78*
%TO.C,D21*%
X294615441Y-154394854D03*
X297913431Y-154510022D03*
%TD*%
D93*
%TO.C,R3*%
X215272001Y-127712503D03*
X215272001Y-125887503D03*
%TD*%
D79*
%TO.C,D82*%
X365226436Y-83840438D03*
X368526436Y-83840438D03*
%TD*%
%TO.C,D38*%
X230860436Y-163850438D03*
X234160436Y-163850438D03*
%TD*%
D85*
%TO.C,D16*%
X164313441Y-161876022D03*
X167611431Y-161760854D03*
%TD*%
D94*
%TO.C,JP1*%
X176645744Y-76429626D03*
D95*
X175487436Y-75839438D03*
D96*
X174329128Y-75249250D03*
%TD*%
D78*
%TO.C,D24*%
X282423441Y-94958854D03*
X285721431Y-95074022D03*
%TD*%
D85*
%TO.C,D17*%
X229083441Y-187784022D03*
X232381431Y-187668854D03*
%TD*%
D78*
%TO.C,D30*%
X312395441Y-115786854D03*
X315693431Y-115902022D03*
%TD*%
D85*
%TO.C,D7*%
X108687441Y-100916022D03*
X111985431Y-100800854D03*
%TD*%
D97*
%TO.C,F1*%
X190694598Y-67167127D03*
X192030274Y-68001749D03*
%TD*%
D79*
%TO.C,D80*%
X354050436Y-115590438D03*
X357350436Y-115590438D03*
%TD*%
D98*
%TO.C,D25*%
X291058687Y-112005642D03*
X294358185Y-112063234D03*
%TD*%
D99*
%TO.C,D35*%
X214857436Y-162234004D03*
X214857436Y-165534004D03*
%TD*%
D79*
%TO.C,D20*%
X173202436Y-144292438D03*
X176502436Y-144292438D03*
%TD*%
D85*
%TO.C,D6*%
X123419441Y-116918022D03*
X126717431Y-116802854D03*
%TD*%
%TO.C,D14*%
X182855441Y-127840022D03*
X186153431Y-127724854D03*
%TD*%
D78*
%TO.C,D34*%
X343129441Y-79972854D03*
X346427431Y-80088022D03*
%TD*%
D79*
%TO.C,D5*%
X150850436Y-103144438D03*
X154150436Y-103144438D03*
%TD*%
D100*
%TO.C,C3*%
X230773275Y-123422082D03*
X232673275Y-123422082D03*
%TD*%
D85*
%TO.C,D2*%
X132753441Y-98322022D03*
X136051431Y-98206854D03*
%TD*%
D78*
%TO.C,D18*%
X265913441Y-105626854D03*
X269211431Y-105742022D03*
%TD*%
D85*
%TO.C,D12*%
X209525441Y-188038022D03*
X212823431Y-187922854D03*
%TD*%
D79*
%TO.C,D1*%
X138912436Y-81300438D03*
X142212436Y-81300438D03*
%TD*%
D101*
%TO.C,U4*%
X228135346Y-119074438D03*
D102*
X228135346Y-120854438D03*
X228135346Y-122634438D03*
X228135346Y-124414438D03*
X228135346Y-126194438D03*
X228135346Y-127974438D03*
X228135346Y-129754438D03*
X228135346Y-131534438D03*
X217435346Y-132424438D03*
X217435346Y-130644438D03*
X217435346Y-128864438D03*
X217435346Y-127084438D03*
X217435346Y-125304438D03*
X217435346Y-123524438D03*
X217435346Y-121744438D03*
X217435346Y-119964438D03*
%TD*%
D79*
%TO.C,D78*%
X182346436Y-172994438D03*
X185646436Y-172994438D03*
%TD*%
D78*
%TO.C,D32*%
X318999441Y-77940854D03*
X322297431Y-78056022D03*
%TD*%
D85*
%TO.C,D4*%
X159233441Y-86692022D03*
X162531431Y-86576854D03*
%TD*%
D79*
%TO.C,D77*%
X103352436Y-119146438D03*
X106652436Y-119146438D03*
%TD*%
%TO.C,D79*%
X277342436Y-164358438D03*
X280642436Y-164358438D03*
%TD*%
D78*
%TO.C,D28*%
X295377441Y-80480854D03*
X298675431Y-80596022D03*
%TD*%
D79*
%TO.C,D75*%
X92176436Y-87142438D03*
X95476436Y-87142438D03*
%TD*%
D78*
%TO.C,D26*%
X308585441Y-146520854D03*
X311883431Y-146636022D03*
%TD*%
D103*
%TO.C,U3*%
X230839772Y-119038078D03*
X230839772Y-118088078D03*
X230839772Y-117138078D03*
X233114772Y-117138078D03*
X233114772Y-119038078D03*
%TD*%
D78*
%TO.C,D31*%
X348209441Y-98768854D03*
X351507431Y-98884022D03*
%TD*%
D85*
%TO.C,D13*%
X190221441Y-110568022D03*
X193519431Y-110452854D03*
%TD*%
D104*
%TO.C,C5*%
X220351998Y-85332002D03*
X220351998Y-83432002D03*
%TD*%
D79*
%TO.C,D43*%
X332968436Y-111780438D03*
X336268436Y-111780438D03*
%TD*%
D100*
%TO.C,C1*%
X230773274Y-127994079D03*
X232673274Y-127994079D03*
%TD*%
D105*
%TO.C,SW35*%
X203295591Y-77941652D03*
X196742375Y-73353040D03*
X200714497Y-81627836D03*
X194161281Y-77039224D03*
%TD*%
D85*
%TO.C,D8*%
X174219440Y-100408022D03*
X177517430Y-100292854D03*
%TD*%
D100*
%TO.C,C2*%
X230773273Y-125627258D03*
X232673273Y-125627258D03*
%TD*%
D85*
%TO.C,D11*%
X147803441Y-151716022D03*
X151101431Y-151600854D03*
%TD*%
D79*
%TO.C,D36*%
X212349999Y-163884001D03*
X209049999Y-163884001D03*
%TD*%
%TO.C,D76*%
X89636436Y-104922438D03*
X92936436Y-104922438D03*
%TD*%
D78*
%TO.C,D33*%
X324587441Y-95466854D03*
X327885431Y-95582022D03*
%TD*%
D106*
%TO.C,J3*%
X220972000Y-78196003D03*
D107*
X222972000Y-78196003D03*
X224972000Y-78196003D03*
X226972000Y-78196003D03*
X228972000Y-78196003D03*
X230972000Y-78196003D03*
X232972000Y-78196003D03*
X234972000Y-78196003D03*
%TD*%
M02*
