  0
SECTION
  2
HEADER
  9
$ACADVER
  1
AC1014
  9
$HANDSEED
  5
FFFF
  9
$MEASUREMENT
 70
     1
  0
ENDSEC
  0
SECTION
  2
TABLES
  0
TABLE
  2
VPORT
  5
8
330
0
100
AcDbSymbolTable
 70
     4
  0
VPORT
  5
2E
330
8
100
AcDbSymbolTableRecord
100
AcDbViewportTableRecord
  2
*ACTIVE
 70
     0
 10
0.0
 20
0.0
 11
1.0
 21
1.0
 12
210.0
 22
148.5
 13
0.0
 23
0.0
 14
10.0
 24
10.0
 15
10.0
 25
10.0
 16
0.0
 26
0.0
 36
1.0
 17
0.0
 27
0.0
 37
0.0
 40
341.0
 41
1.24
 42
50.0
 43
0.0
 44
0.0
 50
0.0
 51
0.0
 71
     0
 72
   100
 73
     1
 74
     3
 75
     0
 76
     0
 77
     0
 78
     0
  0
ENDTAB
  0
TABLE
  2
LTYPE
  5
5
330
0
100
AcDbSymbolTable
 70
     1
  0
LTYPE
  5
14
330
5
100
AcDbSymbolTableRecord
100
AcDbLinetypeTableRecord
  2
BYBLOCK
 70
     0
  3

 72
    65
 73
     0
 40
0.0
  0
LTYPE
  5
15
330
5
100
AcDbSymbolTableRecord
100
AcDbLinetypeTableRecord
  2
BYLAYER
 70
     0
  3

 72
    65
 73
     0
 40
0.0
  0
LTYPE
  5
16
330
5
100
AcDbSymbolTableRecord
100
AcDbLinetypeTableRecord
  2
CONTINUOUS
 70
     0
  3
Solid line
 72
    65
 73
     0
 40
0.0
  0
ENDTAB
  0
TABLE
  2
LAYER
  5
2
100
AcDbSymbolTable
 70
1
  0
LAYER
  5
50
100
AcDbSymbolTableRecord
100
AcDbLayerTableRecord
  2
0
 70
0
  6
CONTINUOUS
  0
ENDTAB
  0
TABLE
  2
STYLE
  5
3
330
0
100
AcDbSymbolTable
 70
     1
  0
STYLE
  5
11
330
3
100
AcDbSymbolTableRecord
100
AcDbTextStyleTableRecord
  2
STANDARD
 70
     0
 40
0.0
 41
1.0
 50
0.0
 71
     0
 42
2.5
  3
txt
  4

  0
ENDTAB
  0
TABLE
  2
VIEW
  5
6
330
0
100
AcDbSymbolTable
 70
     0
  0
ENDTAB
  0
TABLE
  2
UCS
  5
7
330
0
100
AcDbSymbolTable
 70
     0
  0
ENDTAB
  0
TABLE
  2
APPID
  5
9
330
0
100
AcDbSymbolTable
 70
     2
  0
APPID
  5
12
330
9
100
AcDbSymbolTableRecord
100
AcDbRegAppTableRecord
  2
ACAD
 70
     0
  0
ENDTAB
  0
TABLE
  2
DIMSTYLE
  5
A
330
0
100
AcDbSymbolTable
 70
     1
  0
DIMSTYLE
105
27
330
A
100
AcDbSymbolTableRecord
100
AcDbDimStyleTableRecord
  2
ISO-25
 70
     0
  3

  4

  5

  6

  7

 40
1.0
 41
2.5
 42
0.625
 43
3.75
 44
1.25
 45
0.0
 46
0.0
 47
0.0
 48
0.0
140
2.5
141
2.5
142
0.0
143
0.03937007874016
144
1.0
145
0.0
146
1.0
147
0.625
 71
     0
 72
     0
 73
     0
 74
     0
 75
     0
 76
     0
 77
     1
 78
     8
170
     0
171
     3
172
     1
173
     0
174
     0
175
     0
176
     0
177
     0
178
     0
270
     2
271
     2
272
     2
273
     2
274
     3
340
11
275
     0
280
     0
281
     0
282
     0
283
     0
284
     8
285
     0
286
     0
287
     3
288
     0
  0
ENDTAB
  0
TABLE
  2
BLOCK_RECORD
  5
1
330
0
100
AcDbSymbolTable
 70
     1
  0
BLOCK_RECORD
  5
1F
330
1
100
AcDbSymbolTableRecord
100
AcDbBlockTableRecord
  2
*MODEL_SPACE
  0
BLOCK_RECORD
  5
1B
330
1
100
AcDbSymbolTableRecord
100
AcDbBlockTableRecord
  2
*PAPER_SPACE
  0
ENDTAB
  0
ENDSEC
  0
SECTION
  2
BLOCKS
  0
BLOCK
  5
20
330
1F
100
AcDbEntity
  8
0
100
AcDbBlockBegin
  2
*MODEL_SPACE
 70
     0
 10
0.0
 20
0.0
 30
0.0
  3
*MODEL_SPACE
  1

  0
ENDBLK
  5
21
330
1F
100
AcDbEntity
  8
0
100
AcDbBlockEnd
  0
BLOCK
  5
1C
330
1B
100
AcDbEntity
 67
     1
  8
0
100
AcDbBlockBegin
  2
*PAPER_SPACE
  1

  0
ENDBLK
  5
1D
330
1B
100
AcDbEntity
 67
     1
  8
0
100
AcDbBlockEnd
  0
ENDSEC
  0
SECTION
  2
ENTITIES
  0
LINE
  5
100
100
AcDbEntity
  8
0
 62
7
100
AcDbLine
 10
17.375124
 20
3.197122
 30
0.0
 11
17.375124
 21
5.097129
 31
0.0
  0
LINE
  5
101
100
AcDbEntity
  8
0
 62
7
100
AcDbLine
 10
17.375124
 20
3.197122
 30
0.0
 11
15.475117
 21
3.197122
 31
0.0
  0
LINE
  5
102
100
AcDbEntity
  8
0
 62
7
100
AcDbLine
 10
17.375124
 20
3.197122
 30
0.0
 11
15.475117
 21
3.197122
 31
0.0
  0
LINE
  5
103
100
AcDbEntity
  8
0
 62
7
100
AcDbLine
 10
17.375124
 20
3.197122
 30
0.0
 11
15.475117
 21
3.197122
 31
0.0
  0
LINE
  5
104
100
AcDbEntity
  8
0
 62
7
100
AcDbLine
 10
17.375124
 20
5.097129
 30
0.0
 11
17.375124
 21
3.197122
 31
0.0
  0
LINE
  5
105
100
AcDbEntity
  8
0
 62
7
100
AcDbLine
 10
17.375124
 20
5.097129
 30
0.0
 11
17.375124
 21
3.197122
 31
0.0
  0
LINE
  5
106
100
AcDbEntity
  8
0
 62
7
100
AcDbLine
 10
17.375124
 20
5.097129
 30
0.0
 11
17.375124
 21
3.197122
 31
0.0
  0
LINE
  5
107
100
AcDbEntity
  8
0
 62
7
100
AcDbLine
 10
17.375124
 20
5.097129
 30
0.0
 11
15.475117
 21
5.097129
 31
0.0
  0
LINE
  5
108
100
AcDbEntity
  8
0
 62
7
100
AcDbLine
 10
15.475117
 20
3.197122
 30
0.0
 11
17.375124
 21
3.197122
 31
0.0
  0
LINE
  5
109
100
AcDbEntity
  8
0
 62
7
100
AcDbLine
 10
15.475117
 20
3.197122
 30
0.0
 11
15.475117
 21
5.097129
 31
0.0
  0
LINE
  5
10a
100
AcDbEntity
  8
0
 62
7
100
AcDbLine
 10
15.475117
 20
3.197122
 30
0.0
 11
15.475117
 21
5.097129
 31
0.0
  0
LINE
  5
10b
100
AcDbEntity
  8
0
 62
7
100
AcDbLine
 10
15.475117
 20
3.197122
 30
0.0
 11
15.475117
 21
5.097129
 31
0.0
  0
LINE
  5
10c
100
AcDbEntity
  8
0
 62
7
100
AcDbLine
 10
15.475117
 20
5.097129
 30
0.0
 11
17.375124
 21
5.097129
 31
0.0
  0
LINE
  5
10d
100
AcDbEntity
  8
0
 62
7
100
AcDbLine
 10
15.475117
 20
5.097129
 30
0.0
 11
17.375124
 21
5.097129
 31
0.0
  0
LINE
  5
10e
100
AcDbEntity
  8
0
 62
7
100
AcDbLine
 10
15.475117
 20
5.097129
 30
0.0
 11
17.375124
 21
5.097129
 31
0.0
  0
LINE
  5
10f
100
AcDbEntity
  8
0
 62
7
100
AcDbLine
 10
15.475117
 20
5.097129
 30
0.0
 11
15.475117
 21
3.197122
 31
0.0
  0
LINE
  5
110
100
AcDbEntity
  8
0
 62
7
100
AcDbLine
 10
17.375124
 20
5.106929
 30
0.0
 11
17.375124
 21
7.006936
 31
0.0
  0
LINE
  5
111
100
AcDbEntity
  8
0
 62
7
100
AcDbLine
 10
17.375124
 20
5.106929
 30
0.0
 11
15.475117
 21
5.106929
 31
0.0
  0
LINE
  5
112
100
AcDbEntity
  8
0
 62
7
100
AcDbLine
 10
17.375124
 20
5.106929
 30
0.0
 11
15.475117
 21
5.106929
 31
0.0
  0
LINE
  5
113
100
AcDbEntity
  8
0
 62
7
100
AcDbLine
 10
17.375124
 20
5.106929
 30
0.0
 11
15.475117
 21
5.106929
 31
0.0
  0
LINE
  5
114
100
AcDbEntity
  8
0
 62
7
100
AcDbLine
 10
17.375124
 20
7.006936
 30
0.0
 11
17.375124
 21
5.106929
 31
0.0
  0
LINE
  5
115
100
AcDbEntity
  8
0
 62
7
100
AcDbLine
 10
17.375124
 20
7.006936
 30
0.0
 11
17.375124
 21
5.106929
 31
0.0
  0
LINE
  5
116
100
AcDbEntity
  8
0
 62
7
100
AcDbLine
 10
17.375124
 20
7.006936
 30
0.0
 11
17.375124
 21
5.106929
 31
0.0
  0
LINE
  5
117
100
AcDbEntity
  8
0
 62
7
100
AcDbLine
 10
17.375124
 20
7.006936
 30
0.0
 11
15.475117
 21
7.006936
 31
0.0
  0
LINE
  5
118
100
AcDbEntity
  8
0
 62
7
100
AcDbLine
 10
15.475117
 20
5.106929
 30
0.0
 11
17.375124
 21
5.106929
 31
0.0
  0
LINE
  5
119
100
AcDbEntity
  8
0
 62
7
100
AcDbLine
 10
15.475117
 20
5.106929
 30
0.0
 11
15.475117
 21
7.006936
 31
0.0
  0
LINE
  5
11a
100
AcDbEntity
  8
0
 62
7
100
AcDbLine
 10
15.475117
 20
5.106929
 30
0.0
 11
15.475117
 21
7.006936
 31
0.0
  0
LINE
  5
11b
100
AcDbEntity
  8
0
 62
7
100
AcDbLine
 10
15.475117
 20
5.106929
 30
0.0
 11
15.475117
 21
7.006936
 31
0.0
  0
LINE
  5
11c
100
AcDbEntity
  8
0
 62
7
100
AcDbLine
 10
15.475117
 20
7.006936
 30
0.0
 11
17.375124
 21
7.006936
 31
0.0
  0
LINE
  5
11d
100
AcDbEntity
  8
0
 62
7
100
AcDbLine
 10
15.475117
 20
7.006936
 30
0.0
 11
17.375124
 21
7.006936
 31
0.0
  0
LINE
  5
11e
100
AcDbEntity
  8
0
 62
7
100
AcDbLine
 10
15.475117
 20
7.006936
 30
0.0
 11
17.375124
 21
7.006936
 31
0.0
  0
LINE
  5
11f
100
AcDbEntity
  8
0
 62
7
100
AcDbLine
 10
15.475117
 20
7.006936
 30
0.0
 11
15.475117
 21
5.106929
 31
0.0
  0
LINE
  5
120
100
AcDbEntity
  8
0
 62
7
100
AcDbLine
 10
7.826959
 20
3.197122
 30
0.0
 11
7.826959
 21
5.097129
 31
0.0
  0
LINE
  5
121
100
AcDbEntity
  8
0
 62
7
100
AcDbLine
 10
7.826959
 20
3.197122
 30
0.0
 11
5.926952
 21
3.197122
 31
0.0
  0
LINE
  5
122
100
AcDbEntity
  8
0
 62
7
100
AcDbLine
 10
7.826959
 20
3.197122
 30
0.0
 11
5.926952
 21
3.197122
 31
0.0
  0
LINE
  5
123
100
AcDbEntity
  8
0
 62
7
100
AcDbLine
 10
7.826959
 20
3.197122
 30
0.0
 11
5.926952
 21
3.197122
 31
0.0
  0
LINE
  5
124
100
AcDbEntity
  8
0
 62
7
100
AcDbLine
 10
7.826959
 20
5.097129
 30
0.0
 11
7.826959
 21
3.197122
 31
0.0
  0
LINE
  5
125
100
AcDbEntity
  8
0
 62
7
100
AcDbLine
 10
7.826959
 20
5.097129
 30
0.0
 11
7.826959
 21
3.197122
 31
0.0
  0
LINE
  5
126
100
AcDbEntity
  8
0
 62
7
100
AcDbLine
 10
7.826959
 20
5.097129
 30
0.0
 11
7.826959
 21
3.197122
 31
0.0
  0
LINE
  5
127
100
AcDbEntity
  8
0
 62
7
100
AcDbLine
 10
7.826959
 20
5.097129
 30
0.0
 11
5.926952
 21
5.097129
 31
0.0
  0
LINE
  5
128
100
AcDbEntity
  8
0
 62
7
100
AcDbLine
 10
5.926952
 20
3.197122
 30
0.0
 11
7.826959
 21
3.197122
 31
0.0
  0
LINE
  5
129
100
AcDbEntity
  8
0
 62
7
100
AcDbLine
 10
5.926952
 20
3.197122
 30
0.0
 11
5.926952
 21
5.097129
 31
0.0
  0
LINE
  5
12a
100
AcDbEntity
  8
0
 62
7
100
AcDbLine
 10
5.926952
 20
3.197122
 30
0.0
 11
5.926952
 21
5.097129
 31
0.0
  0
LINE
  5
12b
100
AcDbEntity
  8
0
 62
7
100
AcDbLine
 10
5.926952
 20
3.197122
 30
0.0
 11
5.926952
 21
5.097129
 31
0.0
  0
LINE
  5
12c
100
AcDbEntity
  8
0
 62
7
100
AcDbLine
 10
5.926952
 20
5.097129
 30
0.0
 11
7.826959
 21
5.097129
 31
0.0
  0
LINE
  5
12d
100
AcDbEntity
  8
0
 62
7
100
AcDbLine
 10
5.926952
 20
5.097129
 30
0.0
 11
7.826959
 21
5.097129
 31
0.0
  0
LINE
  5
12e
100
AcDbEntity
  8
0
 62
7
100
AcDbLine
 10
5.926952
 20
5.097129
 30
0.0
 11
7.826959
 21
5.097129
 31
0.0
  0
LINE
  5
12f
100
AcDbEntity
  8
0
 62
7
100
AcDbLine
 10
5.926952
 20
5.097129
 30
0.0
 11
5.926952
 21
3.197122
 31
0.0
  0
LINE
  5
130
100
AcDbEntity
  8
0
 62
7
100
AcDbLine
 10
21.173838
 20
5.106929
 30
0.0
 11
21.173838
 21
7.006936
 31
0.0
  0
LINE
  5
131
100
AcDbEntity
  8
0
 62
7
100
AcDbLine
 10
21.173838
 20
5.106929
 30
0.0
 11
19.273831
 21
5.106929
 31
0.0
  0
LINE
  5
132
100
AcDbEntity
  8
0
 62
7
100
AcDbLine
 10
21.173838
 20
5.106929
 30
0.0
 11
19.273831
 21
5.106929
 31
0.0
  0
LINE
  5
133
100
AcDbEntity
  8
0
 62
7
100
AcDbLine
 10
21.173838
 20
5.106929
 30
0.0
 11
19.273831
 21
5.106929
 31
0.0
  0
LINE
  5
134
100
AcDbEntity
  8
0
 62
7
100
AcDbLine
 10
21.173838
 20
7.006936
 30
0.0
 11
21.173838
 21
5.106929
 31
0.0
  0
LINE
  5
135
100
AcDbEntity
  8
0
 62
7
100
AcDbLine
 10
21.173838
 20
7.006936
 30
0.0
 11
21.173838
 21
5.106929
 31
0.0
  0
LINE
  5
136
100
AcDbEntity
  8
0
 62
7
100
AcDbLine
 10
21.173838
 20
7.006936
 30
0.0
 11
21.173838
 21
5.106929
 31
0.0
  0
LINE
  5
137
100
AcDbEntity
  8
0
 62
7
100
AcDbLine
 10
21.173838
 20
7.006936
 30
0.0
 11
19.273831
 21
7.006936
 31
0.0
  0
LINE
  5
138
100
AcDbEntity
  8
0
 62
7
100
AcDbLine
 10
19.273831
 20
5.106929
 30
0.0
 11
21.173838
 21
5.106929
 31
0.0
  0
LINE
  5
139
100
AcDbEntity
  8
0
 62
7
100
AcDbLine
 10
19.273831
 20
5.106929
 30
0.0
 11
19.273831
 21
7.006936
 31
0.0
  0
LINE
  5
13a
100
AcDbEntity
  8
0
 62
7
100
AcDbLine
 10
19.273831
 20
5.106929
 30
0.0
 11
19.273831
 21
7.006936
 31
0.0
  0
LINE
  5
13b
100
AcDbEntity
  8
0
 62
7
100
AcDbLine
 10
19.273831
 20
5.106929
 30
0.0
 11
19.273831
 21
7.006936
 31
0.0
  0
LINE
  5
13c
100
AcDbEntity
  8
0
 62
7
100
AcDbLine
 10
19.273831
 20
7.006936
 30
0.0
 11
21.173838
 21
7.006936
 31
0.0
  0
LINE
  5
13d
100
AcDbEntity
  8
0
 62
7
100
AcDbLine
 10
19.273831
 20
7.006936
 30
0.0
 11
21.173838
 21
7.006936
 31
0.0
  0
LINE
  5
13e
100
AcDbEntity
  8
0
 62
7
100
AcDbLine
 10
19.273831
 20
7.006936
 30
0.0
 11
21.173838
 21
7.006936
 31
0.0
  0
LINE
  5
13f
100
AcDbEntity
  8
0
 62
7
100
AcDbLine
 10
19.273831
 20
7.006936
 30
0.0
 11
19.273831
 21
5.106929
 31
0.0
  0
LINE
  5
140
100
AcDbEntity
  8
0
 62
7
100
AcDbLine
 10
19.272961
 20
0.784913
 30
0.0
 11
19.272961
 21
2.684920
 31
0.0
  0
LINE
  5
141
100
AcDbEntity
  8
0
 62
7
100
AcDbLine
 10
19.272961
 20
0.784913
 30
0.0
 11
17.372954
 21
0.784913
 31
0.0
  0
LINE
  5
142
100
AcDbEntity
  8
0
 62
7
100
AcDbLine
 10
19.272961
 20
0.784913
 30
0.0
 11
17.372954
 21
0.784913
 31
0.0
  0
LINE
  5
143
100
AcDbEntity
  8
0
 62
7
100
AcDbLine
 10
19.272961
 20
0.784913
 30
0.0
 11
17.372954
 21
0.784913
 31
0.0
  0
LINE
  5
144
100
AcDbEntity
  8
0
 62
7
100
AcDbLine
 10
19.272961
 20
2.684920
 30
0.0
 11
19.272961
 21
0.784913
 31
0.0
  0
LINE
  5
145
100
AcDbEntity
  8
0
 62
7
100
AcDbLine
 10
19.272961
 20
2.684920
 30
0.0
 11
19.272961
 21
0.784913
 31
0.0
  0
LINE
  5
146
100
AcDbEntity
  8
0
 62
7
100
AcDbLine
 10
19.272961
 20
2.684920
 30
0.0
 11
19.272961
 21
0.784913
 31
0.0
  0
LINE
  5
147
100
AcDbEntity
  8
0
 62
7
100
AcDbLine
 10
19.272961
 20
2.684920
 30
0.0
 11
17.372954
 21
2.684920
 31
0.0
  0
LINE
  5
148
100
AcDbEntity
  8
0
 62
7
100
AcDbLine
 10
17.372954
 20
0.784913
 30
0.0
 11
19.272961
 21
0.784913
 31
0.0
  0
LINE
  5
149
100
AcDbEntity
  8
0
 62
7
100
AcDbLine
 10
17.372954
 20
0.784913
 30
0.0
 11
17.372954
 21
2.684920
 31
0.0
  0
LINE
  5
14a
100
AcDbEntity
  8
0
 62
7
100
AcDbLine
 10
17.372954
 20
0.784913
 30
0.0
 11
17.372954
 21
2.684920
 31
0.0
  0
LINE
  5
14b
100
AcDbEntity
  8
0
 62
7
100
AcDbLine
 10
17.372954
 20
0.784913
 30
0.0
 11
17.372954
 21
2.684920
 31
0.0
  0
LINE
  5
14c
100
AcDbEntity
  8
0
 62
7
100
AcDbLine
 10
17.372954
 20
2.684920
 30
0.0
 11
19.272961
 21
2.684920
 31
0.0
  0
LINE
  5
14d
100
AcDbEntity
  8
0
 62
7
100
AcDbLine
 10
17.372954
 20
2.684920
 30
0.0
 11
19.272961
 21
2.684920
 31
0.0
  0
LINE
  5
14e
100
AcDbEntity
  8
0
 62
7
100
AcDbLine
 10
17.372954
 20
2.684920
 30
0.0
 11
19.272961
 21
2.684920
 31
0.0
  0
LINE
  5
14f
100
AcDbEntity
  8
0
 62
7
100
AcDbLine
 10
17.372954
 20
2.684920
 30
0.0
 11
17.372954
 21
0.784913
 31
0.0
  0
LINE
  5
150
100
AcDbEntity
  8
0
 62
7
100
AcDbLine
 10
5.924082
 20
5.106929
 30
0.0
 11
5.924082
 21
7.006936
 31
0.0
  0
LINE
  5
151
100
AcDbEntity
  8
0
 62
7
100
AcDbLine
 10
5.924082
 20
5.106929
 30
0.0
 11
4.024075
 21
5.106929
 31
0.0
  0
LINE
  5
152
100
AcDbEntity
  8
0
 62
7
100
AcDbLine
 10
5.924082
 20
5.106929
 30
0.0
 11
4.024075
 21
5.106929
 31
0.0
  0
LINE
  5
153
100
AcDbEntity
  8
0
 62
7
100
AcDbLine
 10
5.924082
 20
5.106929
 30
0.0
 11
4.024075
 21
5.106929
 31
0.0
  0
LINE
  5
154
100
AcDbEntity
  8
0
 62
7
100
AcDbLine
 10
5.924082
 20
7.006936
 30
0.0
 11
5.924082
 21
5.106929
 31
0.0
  0
LINE
  5
155
100
AcDbEntity
  8
0
 62
7
100
AcDbLine
 10
5.924082
 20
7.006936
 30
0.0
 11
5.924082
 21
5.106929
 31
0.0
  0
LINE
  5
156
100
AcDbEntity
  8
0
 62
7
100
AcDbLine
 10
5.924082
 20
7.006936
 30
0.0
 11
5.924082
 21
5.106929
 31
0.0
  0
LINE
  5
157
100
AcDbEntity
  8
0
 62
7
100
AcDbLine
 10
5.924082
 20
7.006936
 30
0.0
 11
4.024075
 21
7.006936
 31
0.0
  0
LINE
  5
158
100
AcDbEntity
  8
0
 62
7
100
AcDbLine
 10
4.024075
 20
5.106929
 30
0.0
 11
5.924082
 21
5.106929
 31
0.0
  0
LINE
  5
159
100
AcDbEntity
  8
0
 62
7
100
AcDbLine
 10
4.024075
 20
5.106929
 30
0.0
 11
4.024075
 21
7.006936
 31
0.0
  0
LINE
  5
15a
100
AcDbEntity
  8
0
 62
7
100
AcDbLine
 10
4.024075
 20
5.106929
 30
0.0
 11
4.024075
 21
7.006936
 31
0.0
  0
LINE
  5
15b
100
AcDbEntity
  8
0
 62
7
100
AcDbLine
 10
4.024075
 20
5.106929
 30
0.0
 11
4.024075
 21
7.006936
 31
0.0
  0
LINE
  5
15c
100
AcDbEntity
  8
0
 62
7
100
AcDbLine
 10
4.024075
 20
7.006936
 30
0.0
 11
5.924082
 21
7.006936
 31
0.0
  0
LINE
  5
15d
100
AcDbEntity
  8
0
 62
7
100
AcDbLine
 10
4.024075
 20
7.006936
 30
0.0
 11
5.924082
 21
7.006936
 31
0.0
  0
LINE
  5
15e
100
AcDbEntity
  8
0
 62
7
100
AcDbLine
 10
4.024075
 20
7.006936
 30
0.0
 11
5.924082
 21
7.006936
 31
0.0
  0
LINE
  5
15f
100
AcDbEntity
  8
0
 62
7
100
AcDbLine
 10
4.024075
 20
7.006936
 30
0.0
 11
4.024075
 21
5.106929
 31
0.0
  0
LINE
  5
160
100
AcDbEntity
  8
0
 62
7
100
AcDbLine
 10
4.021205
 20
5.106929
 30
0.0
 11
4.021205
 21
7.006936
 31
0.0
  0
LINE
  5
161
100
AcDbEntity
  8
0
 62
7
100
AcDbLine
 10
4.021205
 20
5.106929
 30
0.0
 11
2.121198
 21
5.106929
 31
0.0
  0
LINE
  5
162
100
AcDbEntity
  8
0
 62
7
100
AcDbLine
 10
4.021205
 20
5.106929
 30
0.0
 11
2.121198
 21
5.106929
 31
0.0
  0
LINE
  5
163
100
AcDbEntity
  8
0
 62
7
100
AcDbLine
 10
4.021205
 20
5.106929
 30
0.0
 11
2.121198
 21
5.106929
 31
0.0
  0
LINE
  5
164
100
AcDbEntity
  8
0
 62
7
100
AcDbLine
 10
4.021205
 20
7.006936
 30
0.0
 11
4.021205
 21
5.106929
 31
0.0
  0
LINE
  5
165
100
AcDbEntity
  8
0
 62
7
100
AcDbLine
 10
4.021205
 20
7.006936
 30
0.0
 11
4.021205
 21
5.106929
 31
0.0
  0
LINE
  5
166
100
AcDbEntity
  8
0
 62
7
100
AcDbLine
 10
4.021205
 20
7.006936
 30
0.0
 11
4.021205
 21
5.106929
 31
0.0
  0
LINE
  5
167
100
AcDbEntity
  8
0
 62
7
100
AcDbLine
 10
4.021205
 20
7.006936
 30
0.0
 11
2.121198
 21
7.006936
 31
0.0
  0
LINE
  5
168
100
AcDbEntity
  8
0
 62
7
100
AcDbLine
 10
2.121198
 20
5.106929
 30
0.0
 11
4.021205
 21
5.106929
 31
0.0
  0
LINE
  5
169
100
AcDbEntity
  8
0
 62
7
100
AcDbLine
 10
2.121198
 20
5.106929
 30
0.0
 11
2.121198
 21
7.006936
 31
0.0
  0
LINE
  5
16a
100
AcDbEntity
  8
0
 62
7
100
AcDbLine
 10
2.121198
 20
5.106929
 30
0.0
 11
2.121198
 21
7.006936
 31
0.0
  0
LINE
  5
16b
100
AcDbEntity
  8
0
 62
7
100
AcDbLine
 10
2.121198
 20
5.106929
 30
0.0
 11
2.121198
 21
7.006936
 31
0.0
  0
LINE
  5
16c
100
AcDbEntity
  8
0
 62
7
100
AcDbLine
 10
2.121198
 20
7.006936
 30
0.0
 11
4.021205
 21
7.006936
 31
0.0
  0
LINE
  5
16d
100
AcDbEntity
  8
0
 62
7
100
AcDbLine
 10
2.121198
 20
7.006936
 30
0.0
 11
4.021205
 21
7.006936
 31
0.0
  0
LINE
  5
16e
100
AcDbEntity
  8
0
 62
7
100
AcDbLine
 10
2.121198
 20
7.006936
 30
0.0
 11
4.021205
 21
7.006936
 31
0.0
  0
LINE
  5
16f
100
AcDbEntity
  8
0
 62
7
100
AcDbLine
 10
2.121198
 20
7.006936
 30
0.0
 11
2.121198
 21
5.106929
 31
0.0
  0
LINE
  5
170
100
AcDbEntity
  8
0
 62
7
100
AcDbLine
 10
21.173838
 20
3.197122
 30
0.0
 11
21.173838
 21
5.097129
 31
0.0
  0
LINE
  5
171
100
AcDbEntity
  8
0
 62
7
100
AcDbLine
 10
21.173838
 20
3.197122
 30
0.0
 11
19.273831
 21
3.197122
 31
0.0
  0
LINE
  5
172
100
AcDbEntity
  8
0
 62
7
100
AcDbLine
 10
21.173838
 20
3.197122
 30
0.0
 11
19.273831
 21
3.197122
 31
0.0
  0
LINE
  5
173
100
AcDbEntity
  8
0
 62
7
100
AcDbLine
 10
21.173838
 20
3.197122
 30
0.0
 11
19.273831
 21
3.197122
 31
0.0
  0
LINE
  5
174
100
AcDbEntity
  8
0
 62
7
100
AcDbLine
 10
21.173838
 20
5.097129
 30
0.0
 11
21.173838
 21
3.197122
 31
0.0
  0
LINE
  5
175
100
AcDbEntity
  8
0
 62
7
100
AcDbLine
 10
21.173838
 20
5.097129
 30
0.0
 11
21.173838
 21
3.197122
 31
0.0
  0
LINE
  5
176
100
AcDbEntity
  8
0
 62
7
100
AcDbLine
 10
21.173838
 20
5.097129
 30
0.0
 11
21.173838
 21
3.197122
 31
0.0
  0
LINE
  5
177
100
AcDbEntity
  8
0
 62
7
100
AcDbLine
 10
21.173838
 20
5.097129
 30
0.0
 11
19.273831
 21
5.097129
 31
0.0
  0
LINE
  5
178
100
AcDbEntity
  8
0
 62
7
100
AcDbLine
 10
19.273831
 20
3.197122
 30
0.0
 11
21.173838
 21
3.197122
 31
0.0
  0
LINE
  5
179
100
AcDbEntity
  8
0
 62
7
100
AcDbLine
 10
19.273831
 20
3.197122
 30
0.0
 11
19.273831
 21
5.097129
 31
0.0
  0
LINE
  5
17a
100
AcDbEntity
  8
0
 62
7
100
AcDbLine
 10
19.273831
 20
3.197122
 30
0.0
 11
19.273831
 21
5.097129
 31
0.0
  0
LINE
  5
17b
100
AcDbEntity
  8
0
 62
7
100
AcDbLine
 10
19.273831
 20
3.197122
 30
0.0
 11
19.273831
 21
5.097129
 31
0.0
  0
LINE
  5
17c
100
AcDbEntity
  8
0
 62
7
100
AcDbLine
 10
19.273831
 20
5.097129
 30
0.0
 11
21.173838
 21
5.097129
 31
0.0
  0
LINE
  5
17d
100
AcDbEntity
  8
0
 62
7
100
AcDbLine
 10
19.273831
 20
5.097129
 30
0.0
 11
21.173838
 21
5.097129
 31
0.0
  0
LINE
  5
17e
100
AcDbEntity
  8
0
 62
7
100
AcDbLine
 10
19.273831
 20
5.097129
 30
0.0
 11
21.173838
 21
5.097129
 31
0.0
  0
LINE
  5
17f
100
AcDbEntity
  8
0
 62
7
100
AcDbLine
 10
19.273831
 20
5.097129
 30
0.0
 11
19.273831
 21
3.197122
 31
0.0
  0
LINE
  5
180
100
AcDbEntity
  8
0
 62
7
100
AcDbLine
 10
15.455917
 20
0.143711
 30
0.0
 11
15.455917
 21
2.043718
 31
0.0
  0
LINE
  5
181
100
AcDbEntity
  8
0
 62
7
100
AcDbLine
 10
15.455917
 20
0.143711
 30
0.0
 11
13.555910
 21
0.143711
 31
0.0
  0
LINE
  5
182
100
AcDbEntity
  8
0
 62
7
100
AcDbLine
 10
15.455917
 20
0.143711
 30
0.0
 11
13.555910
 21
0.143711
 31
0.0
  0
LINE
  5
183
100
AcDbEntity
  8
0
 62
7
100
AcDbLine
 10
15.455917
 20
0.143711
 30
0.0
 11
13.555910
 21
0.143711
 31
0.0
  0
LINE
  5
184
100
AcDbEntity
  8
0
 62
7
100
AcDbLine
 10
15.455917
 20
2.043718
 30
0.0
 11
15.455917
 21
0.143711
 31
0.0
  0
LINE
  5
185
100
AcDbEntity
  8
0
 62
7
100
AcDbLine
 10
15.455917
 20
2.043718
 30
0.0
 11
15.455917
 21
0.143711
 31
0.0
  0
LINE
  5
186
100
AcDbEntity
  8
0
 62
7
100
AcDbLine
 10
15.455917
 20
2.043718
 30
0.0
 11
15.455917
 21
0.143711
 31
0.0
  0
LINE
  5
187
100
AcDbEntity
  8
0
 62
7
100
AcDbLine
 10
15.455917
 20
2.043718
 30
0.0
 11
13.555910
 21
2.043718
 31
0.0
  0
LINE
  5
188
100
AcDbEntity
  8
0
 62
7
100
AcDbLine
 10
13.555910
 20
0.143711
 30
0.0
 11
15.455917
 21
0.143711
 31
0.0
  0
LINE
  5
189
100
AcDbEntity
  8
0
 62
7
100
AcDbLine
 10
13.555910
 20
0.143711
 30
0.0
 11
13.555910
 21
2.043718
 31
0.0
  0
LINE
  5
18a
100
AcDbEntity
  8
0
 62
7
100
AcDbLine
 10
13.555910
 20
0.143711
 30
0.0
 11
13.555910
 21
2.043718
 31
0.0
  0
LINE
  5
18b
100
AcDbEntity
  8
0
 62
7
100
AcDbLine
 10
13.555910
 20
0.143711
 30
0.0
 11
13.555910
 21
2.043718
 31
0.0
  0
LINE
  5
18c
100
AcDbEntity
  8
0
 62
7
100
AcDbLine
 10
13.555910
 20
2.043718
 30
0.0
 11
15.455917
 21
2.043718
 31
0.0
  0
LINE
  5
18d
100
AcDbEntity
  8
0
 62
7
100
AcDbLine
 10
13.555910
 20
2.043718
 30
0.0
 11
15.455917
 21
2.043718
 31
0.0
  0
LINE
  5
18e
100
AcDbEntity
  8
0
 62
7
100
AcDbLine
 10
13.555910
 20
2.043718
 30
0.0
 11
15.455917
 21
2.043718
 31
0.0
  0
LINE
  5
18f
100
AcDbEntity
  8
0
 62
7
100
AcDbLine
 10
13.555910
 20
2.043718
 30
0.0
 11
13.555910
 21
0.143711
 31
0.0
  0
LINE
  5
190
100
AcDbEntity
  8
0
 62
7
100
AcDbLine
 10
5.924082
 20
7.015336
 30
0.0
 11
5.924082
 21
8.915343
 31
0.0
  0
LINE
  5
191
100
AcDbEntity
  8
0
 62
7
100
AcDbLine
 10
5.924082
 20
7.015336
 30
0.0
 11
4.024075
 21
7.015336
 31
0.0
  0
LINE
  5
192
100
AcDbEntity
  8
0
 62
7
100
AcDbLine
 10
5.924082
 20
7.015336
 30
0.0
 11
4.024075
 21
7.015336
 31
0.0
  0
LINE
  5
193
100
AcDbEntity
  8
0
 62
7
100
AcDbLine
 10
5.924082
 20
7.015336
 30
0.0
 11
4.024075
 21
7.015336
 31
0.0
  0
LINE
  5
194
100
AcDbEntity
  8
0
 62
7
100
AcDbLine
 10
5.924082
 20
8.915343
 30
0.0
 11
5.924082
 21
7.015336
 31
0.0
  0
LINE
  5
195
100
AcDbEntity
  8
0
 62
7
100
AcDbLine
 10
5.924082
 20
8.915343
 30
0.0
 11
5.924082
 21
7.015336
 31
0.0
  0
LINE
  5
196
100
AcDbEntity
  8
0
 62
7
100
AcDbLine
 10
5.924082
 20
8.915343
 30
0.0
 11
5.924082
 21
7.015336
 31
0.0
  0
LINE
  5
197
100
AcDbEntity
  8
0
 62
7
100
AcDbLine
 10
5.924082
 20
8.915343
 30
0.0
 11
4.024075
 21
8.915343
 31
0.0
  0
LINE
  5
198
100
AcDbEntity
  8
0
 62
7
100
AcDbLine
 10
4.024075
 20
7.015336
 30
0.0
 11
5.924082
 21
7.015336
 31
0.0
  0
LINE
  5
199
100
AcDbEntity
  8
0
 62
7
100
AcDbLine
 10
4.024075
 20
7.015336
 30
0.0
 11
4.024075
 21
8.915343
 31
0.0
  0
LINE
  5
19a
100
AcDbEntity
  8
0
 62
7
100
AcDbLine
 10
4.024075
 20
7.015336
 30
0.0
 11
4.024075
 21
8.915343
 31
0.0
  0
LINE
  5
19b
100
AcDbEntity
  8
0
 62
7
100
AcDbLine
 10
4.024075
 20
7.015336
 30
0.0
 11
4.024075
 21
8.915343
 31
0.0
  0
LINE
  5
19c
100
AcDbEntity
  8
0
 62
7
100
AcDbLine
 10
4.024075
 20
8.915343
 30
0.0
 11
5.924082
 21
8.915343
 31
0.0
  0
LINE
  5
19d
100
AcDbEntity
  8
0
 62
7
100
AcDbLine
 10
4.024075
 20
8.915343
 30
0.0
 11
5.924082
 21
8.915343
 31
0.0
  0
LINE
  5
19e
100
AcDbEntity
  8
0
 62
7
100
AcDbLine
 10
4.024075
 20
8.915343
 30
0.0
 11
5.924082
 21
8.915343
 31
0.0
  0
LINE
  5
19f
100
AcDbEntity
  8
0
 62
7
100
AcDbLine
 10
4.024075
 20
8.915343
 30
0.0
 11
4.024075
 21
7.015336
 31
0.0
  0
LINE
  5
1a0
100
AcDbEntity
  8
0
 62
7
100
AcDbLine
 10
24.975582
 20
3.197122
 30
0.0
 11
24.975582
 21
5.097129
 31
0.0
  0
LINE
  5
1a1
100
AcDbEntity
  8
0
 62
7
100
AcDbLine
 10
24.975582
 20
3.197122
 30
0.0
 11
23.075575
 21
3.197122
 31
0.0
  0
LINE
  5
1a2
100
AcDbEntity
  8
0
 62
7
100
AcDbLine
 10
24.975582
 20
3.197122
 30
0.0
 11
23.075575
 21
3.197122
 31
0.0
  0
LINE
  5
1a3
100
AcDbEntity
  8
0
 62
7
100
AcDbLine
 10
24.975582
 20
3.197122
 30
0.0
 11
23.075575
 21
3.197122
 31
0.0
  0
LINE
  5
1a4
100
AcDbEntity
  8
0
 62
7
100
AcDbLine
 10
24.975582
 20
5.097129
 30
0.0
 11
24.975582
 21
3.197122
 31
0.0
  0
LINE
  5
1a5
100
AcDbEntity
  8
0
 62
7
100
AcDbLine
 10
24.975582
 20
5.097129
 30
0.0
 11
24.975582
 21
3.197122
 31
0.0
  0
LINE
  5
1a6
100
AcDbEntity
  8
0
 62
7
100
AcDbLine
 10
24.975582
 20
5.097129
 30
0.0
 11
24.975582
 21
3.197122
 31
0.0
  0
LINE
  5
1a7
100
AcDbEntity
  8
0
 62
7
100
AcDbLine
 10
24.975582
 20
5.097129
 30
0.0
 11
23.075575
 21
5.097129
 31
0.0
  0
LINE
  5
1a8
100
AcDbEntity
  8
0
 62
7
100
AcDbLine
 10
23.075575
 20
3.197122
 30
0.0
 11
24.975582
 21
3.197122
 31
0.0
  0
LINE
  5
1a9
100
AcDbEntity
  8
0
 62
7
100
AcDbLine
 10
23.075575
 20
3.197122
 30
0.0
 11
23.075575
 21
5.097129
 31
0.0
  0
LINE
  5
1aa
100
AcDbEntity
  8
0
 62
7
100
AcDbLine
 10
23.075575
 20
3.197122
 30
0.0
 11
23.075575
 21
5.097129
 31
0.0
  0
LINE
  5
1ab
100
AcDbEntity
  8
0
 62
7
100
AcDbLine
 10
23.075575
 20
3.197122
 30
0.0
 11
23.075575
 21
5.097129
 31
0.0
  0
LINE
  5
1ac
100
AcDbEntity
  8
0
 62
7
100
AcDbLine
 10
23.075575
 20
5.097129
 30
0.0
 11
24.975582
 21
5.097129
 31
0.0
  0
LINE
  5
1ad
100
AcDbEntity
  8
0
 62
7
100
AcDbLine
 10
23.075575
 20
5.097129
 30
0.0
 11
24.975582
 21
5.097129
 31
0.0
  0
LINE
  5
1ae
100
AcDbEntity
  8
0
 62
7
100
AcDbLine
 10
23.075575
 20
5.097129
 30
0.0
 11
24.975582
 21
5.097129
 31
0.0
  0
LINE
  5
1af
100
AcDbEntity
  8
0
 62
7
100
AcDbLine
 10
23.075575
 20
5.097129
 30
0.0
 11
23.075575
 21
3.197122
 31
0.0
  0
LINE
  5
1b0
100
AcDbEntity
  8
0
 62
7
100
AcDbLine
 10
9.734496
 20
0.785243
 30
0.0
 11
9.734496
 21
2.685250
 31
0.0
  0
LINE
  5
1b1
100
AcDbEntity
  8
0
 62
7
100
AcDbLine
 10
9.734496
 20
0.785243
 30
0.0
 11
7.834489
 21
0.785243
 31
0.0
  0
LINE
  5
1b2
100
AcDbEntity
  8
0
 62
7
100
AcDbLine
 10
9.734496
 20
0.785243
 30
0.0
 11
7.834489
 21
0.785243
 31
0.0
  0
LINE
  5
1b3
100
AcDbEntity
  8
0
 62
7
100
AcDbLine
 10
9.734496
 20
0.785243
 30
0.0
 11
7.834489
 21
0.785243
 31
0.0
  0
LINE
  5
1b4
100
AcDbEntity
  8
0
 62
7
100
AcDbLine
 10
9.734496
 20
2.685250
 30
0.0
 11
9.734496
 21
0.785243
 31
0.0
  0
LINE
  5
1b5
100
AcDbEntity
  8
0
 62
7
100
AcDbLine
 10
9.734496
 20
2.685250
 30
0.0
 11
9.734496
 21
0.785243
 31
0.0
  0
LINE
  5
1b6
100
AcDbEntity
  8
0
 62
7
100
AcDbLine
 10
9.734496
 20
2.685250
 30
0.0
 11
9.734496
 21
0.785243
 31
0.0
  0
LINE
  5
1b7
100
AcDbEntity
  8
0
 62
7
100
AcDbLine
 10
9.734496
 20
2.685250
 30
0.0
 11
7.834489
 21
2.685250
 31
0.0
  0
LINE
  5
1b8
100
AcDbEntity
  8
0
 62
7
100
AcDbLine
 10
7.834489
 20
0.785243
 30
0.0
 11
9.734496
 21
0.785243
 31
0.0
  0
LINE
  5
1b9
100
AcDbEntity
  8
0
 62
7
100
AcDbLine
 10
7.834489
 20
0.785243
 30
0.0
 11
7.834489
 21
2.685250
 31
0.0
  0
LINE
  5
1ba
100
AcDbEntity
  8
0
 62
7
100
AcDbLine
 10
7.834489
 20
0.785243
 30
0.0
 11
7.834489
 21
2.685250
 31
0.0
  0
LINE
  5
1bb
100
AcDbEntity
  8
0
 62
7
100
AcDbLine
 10
7.834489
 20
0.785243
 30
0.0
 11
7.834489
 21
2.685250
 31
0.0
  0
LINE
  5
1bc
100
AcDbEntity
  8
0
 62
7
100
AcDbLine
 10
7.834489
 20
2.685250
 30
0.0
 11
9.734496
 21
2.685250
 31
0.0
  0
LINE
  5
1bd
100
AcDbEntity
  8
0
 62
7
100
AcDbLine
 10
7.834489
 20
2.685250
 30
0.0
 11
9.734496
 21
2.685250
 31
0.0
  0
LINE
  5
1be
100
AcDbEntity
  8
0
 62
7
100
AcDbLine
 10
7.834489
 20
2.685250
 30
0.0
 11
9.734496
 21
2.685250
 31
0.0
  0
LINE
  5
1bf
100
AcDbEntity
  8
0
 62
7
100
AcDbLine
 10
7.834489
 20
2.685250
 30
0.0
 11
7.834489
 21
0.785243
 31
0.0
  0
LINE
  5
1c0
100
AcDbEntity
  8
0
 62
7
100
AcDbLine
 10
2.118338
 20
7.015336
 30
0.0
 11
2.118338
 21
8.915343
 31
0.0
  0
LINE
  5
1c1
100
AcDbEntity
  8
0
 62
7
100
AcDbLine
 10
2.118338
 20
7.015336
 30
0.0
 11
0.218331
 21
7.015336
 31
0.0
  0
LINE
  5
1c2
100
AcDbEntity
  8
0
 62
7
100
AcDbLine
 10
2.118338
 20
7.015336
 30
0.0
 11
0.218331
 21
7.015336
 31
0.0
  0
LINE
  5
1c3
100
AcDbEntity
  8
0
 62
7
100
AcDbLine
 10
2.118338
 20
7.015336
 30
0.0
 11
0.218331
 21
7.015336
 31
0.0
  0
LINE
  5
1c4
100
AcDbEntity
  8
0
 62
7
100
AcDbLine
 10
2.118338
 20
8.915343
 30
0.0
 11
2.118338
 21
7.015336
 31
0.0
  0
LINE
  5
1c5
100
AcDbEntity
  8
0
 62
7
100
AcDbLine
 10
2.118338
 20
8.915343
 30
0.0
 11
2.118338
 21
7.015336
 31
0.0
  0
LINE
  5
1c6
100
AcDbEntity
  8
0
 62
7
100
AcDbLine
 10
2.118338
 20
8.915343
 30
0.0
 11
2.118338
 21
7.015336
 31
0.0
  0
LINE
  5
1c7
100
AcDbEntity
  8
0
 62
7
100
AcDbLine
 10
2.118338
 20
8.915343
 30
0.0
 11
0.218331
 21
8.915343
 31
0.0
  0
LINE
  5
1c8
100
AcDbEntity
  8
0
 62
7
100
AcDbLine
 10
0.218331
 20
7.015336
 30
0.0
 11
2.118338
 21
7.015336
 31
0.0
  0
LINE
  5
1c9
100
AcDbEntity
  8
0
 62
7
100
AcDbLine
 10
0.218331
 20
7.015336
 30
0.0
 11
0.218331
 21
8.915343
 31
0.0
  0
LINE
  5
1ca
100
AcDbEntity
  8
0
 62
7
100
AcDbLine
 10
0.218331
 20
7.015336
 30
0.0
 11
0.218331
 21
8.915343
 31
0.0
  0
LINE
  5
1cb
100
AcDbEntity
  8
0
 62
7
100
AcDbLine
 10
0.218331
 20
7.015336
 30
0.0
 11
0.218331
 21
8.915343
 31
0.0
  0
LINE
  5
1cc
100
AcDbEntity
  8
0
 62
7
100
AcDbLine
 10
0.218331
 20
8.915343
 30
0.0
 11
2.118338
 21
8.915343
 31
0.0
  0
LINE
  5
1cd
100
AcDbEntity
  8
0
 62
7
100
AcDbLine
 10
0.218331
 20
8.915343
 30
0.0
 11
2.118338
 21
8.915343
 31
0.0
  0
LINE
  5
1ce
100
AcDbEntity
  8
0
 62
7
100
AcDbLine
 10
0.218331
 20
8.915343
 30
0.0
 11
2.118338
 21
8.915343
 31
0.0
  0
LINE
  5
1cf
100
AcDbEntity
  8
0
 62
7
100
AcDbLine
 10
0.218331
 20
8.915343
 30
0.0
 11
0.218331
 21
7.015336
 31
0.0
  0
LINE
  5
1d0
100
AcDbEntity
  8
0
 62
7
100
AcDbLine
 10
24.975582
 20
5.106929
 30
0.0
 11
24.975582
 21
7.006936
 31
0.0
  0
LINE
  5
1d1
100
AcDbEntity
  8
0
 62
7
100
AcDbLine
 10
24.975582
 20
5.106929
 30
0.0
 11
23.075575
 21
5.106929
 31
0.0
  0
LINE
  5
1d2
100
AcDbEntity
  8
0
 62
7
100
AcDbLine
 10
24.975582
 20
5.106929
 30
0.0
 11
23.075575
 21
5.106929
 31
0.0
  0
LINE
  5
1d3
100
AcDbEntity
  8
0
 62
7
100
AcDbLine
 10
24.975582
 20
5.106929
 30
0.0
 11
23.075575
 21
5.106929
 31
0.0
  0
LINE
  5
1d4
100
AcDbEntity
  8
0
 62
7
100
AcDbLine
 10
24.975582
 20
7.006936
 30
0.0
 11
24.975582
 21
5.106929
 31
0.0
  0
LINE
  5
1d5
100
AcDbEntity
  8
0
 62
7
100
AcDbLine
 10
24.975582
 20
7.006936
 30
0.0
 11
24.975582
 21
5.106929
 31
0.0
  0
LINE
  5
1d6
100
AcDbEntity
  8
0
 62
7
100
AcDbLine
 10
24.975582
 20
7.006936
 30
0.0
 11
24.975582
 21
5.106929
 31
0.0
  0
LINE
  5
1d7
100
AcDbEntity
  8
0
 62
7
100
AcDbLine
 10
24.975582
 20
7.006936
 30
0.0
 11
23.075575
 21
7.006936
 31
0.0
  0
LINE
  5
1d8
100
AcDbEntity
  8
0
 62
7
100
AcDbLine
 10
23.075575
 20
5.106929
 30
0.0
 11
24.975582
 21
5.106929
 31
0.0
  0
LINE
  5
1d9
100
AcDbEntity
  8
0
 62
7
100
AcDbLine
 10
23.075575
 20
5.106929
 30
0.0
 11
23.075575
 21
7.006936
 31
0.0
  0
LINE
  5
1da
100
AcDbEntity
  8
0
 62
7
100
AcDbLine
 10
23.075575
 20
5.106929
 30
0.0
 11
23.075575
 21
7.006936
 31
0.0
  0
LINE
  5
1db
100
AcDbEntity
  8
0
 62
7
100
AcDbLine
 10
23.075575
 20
5.106929
 30
0.0
 11
23.075575
 21
7.006936
 31
0.0
  0
LINE
  5
1dc
100
AcDbEntity
  8
0
 62
7
100
AcDbLine
 10
23.075575
 20
7.006936
 30
0.0
 11
24.975582
 21
7.006936
 31
0.0
  0
LINE
  5
1dd
100
AcDbEntity
  8
0
 62
7
100
AcDbLine
 10
23.075575
 20
7.006936
 30
0.0
 11
24.975582
 21
7.006936
 31
0.0
  0
LINE
  5
1de
100
AcDbEntity
  8
0
 62
7
100
AcDbLine
 10
23.075575
 20
7.006936
 30
0.0
 11
24.975582
 21
7.006936
 31
0.0
  0
LINE
  5
1df
100
AcDbEntity
  8
0
 62
7
100
AcDbLine
 10
23.075575
 20
7.006936
 30
0.0
 11
23.075575
 21
5.106929
 31
0.0
  0
LINE
  5
1e0
100
AcDbEntity
  8
0
 62
7
100
AcDbLine
 10
21.173838
 20
0.784913
 30
0.0
 11
21.173838
 21
2.684920
 31
0.0
  0
LINE
  5
1e1
100
AcDbEntity
  8
0
 62
7
100
AcDbLine
 10
21.173838
 20
0.784913
 30
0.0
 11
19.273831
 21
0.784913
 31
0.0
  0
LINE
  5
1e2
100
AcDbEntity
  8
0
 62
7
100
AcDbLine
 10
21.173838
 20
0.784913
 30
0.0
 11
19.273831
 21
0.784913
 31
0.0
  0
LINE
  5
1e3
100
AcDbEntity
  8
0
 62
7
100
AcDbLine
 10
21.173838
 20
0.784913
 30
0.0
 11
19.273831
 21
0.784913
 31
0.0
  0
LINE
  5
1e4
100
AcDbEntity
  8
0
 62
7
100
AcDbLine
 10
21.173838
 20
2.684920
 30
0.0
 11
21.173838
 21
0.784913
 31
0.0
  0
LINE
  5
1e5
100
AcDbEntity
  8
0
 62
7
100
AcDbLine
 10
21.173838
 20
2.684920
 30
0.0
 11
21.173838
 21
0.784913
 31
0.0
  0
LINE
  5
1e6
100
AcDbEntity
  8
0
 62
7
100
AcDbLine
 10
21.173838
 20
2.684920
 30
0.0
 11
21.173838
 21
0.784913
 31
0.0
  0
LINE
  5
1e7
100
AcDbEntity
  8
0
 62
7
100
AcDbLine
 10
21.173838
 20
2.684920
 30
0.0
 11
19.273831
 21
2.684920
 31
0.0
  0
LINE
  5
1e8
100
AcDbEntity
  8
0
 62
7
100
AcDbLine
 10
19.273831
 20
0.784913
 30
0.0
 11
21.173838
 21
0.784913
 31
0.0
  0
LINE
  5
1e9
100
AcDbEntity
  8
0
 62
7
100
AcDbLine
 10
19.273831
 20
0.784913
 30
0.0
 11
19.273831
 21
2.684920
 31
0.0
  0
LINE
  5
1ea
100
AcDbEntity
  8
0
 62
7
100
AcDbLine
 10
19.273831
 20
0.784913
 30
0.0
 11
19.273831
 21
2.684920
 31
0.0
  0
LINE
  5
1eb
100
AcDbEntity
  8
0
 62
7
100
AcDbLine
 10
19.273831
 20
0.784913
 30
0.0
 11
19.273831
 21
2.684920
 31
0.0
  0
LINE
  5
1ec
100
AcDbEntity
  8
0
 62
7
100
AcDbLine
 10
19.273831
 20
2.684920
 30
0.0
 11
21.173838
 21
2.684920
 31
0.0
  0
LINE
  5
1ed
100
AcDbEntity
  8
0
 62
7
100
AcDbLine
 10
19.273831
 20
2.684920
 30
0.0
 11
21.173838
 21
2.684920
 31
0.0
  0
LINE
  5
1ee
100
AcDbEntity
  8
0
 62
7
100
AcDbLine
 10
19.273831
 20
2.684920
 30
0.0
 11
21.173838
 21
2.684920
 31
0.0
  0
LINE
  5
1ef
100
AcDbEntity
  8
0
 62
7
100
AcDbLine
 10
19.273831
 20
2.684920
 30
0.0
 11
19.273831
 21
0.784913
 31
0.0
  0
LINE
  5
1f0
100
AcDbEntity
  8
0
 62
7
100
AcDbLine
 10
19.272961
 20
3.197122
 30
0.0
 11
19.272961
 21
5.097129
 31
0.0
  0
LINE
  5
1f1
100
AcDbEntity
  8
0
 62
7
100
AcDbLine
 10
19.272961
 20
3.197122
 30
0.0
 11
17.372954
 21
3.197122
 31
0.0
  0
LINE
  5
1f2
100
AcDbEntity
  8
0
 62
7
100
AcDbLine
 10
19.272961
 20
3.197122
 30
0.0
 11
17.372954
 21
3.197122
 31
0.0
  0
LINE
  5
1f3
100
AcDbEntity
  8
0
 62
7
100
AcDbLine
 10
19.272961
 20
3.197122
 30
0.0
 11
17.372954
 21
3.197122
 31
0.0
  0
LINE
  5
1f4
100
AcDbEntity
  8
0
 62
7
100
AcDbLine
 10
19.272961
 20
5.097129
 30
0.0
 11
19.272961
 21
3.197122
 31
0.0
  0
LINE
  5
1f5
100
AcDbEntity
  8
0
 62
7
100
AcDbLine
 10
19.272961
 20
5.097129
 30
0.0
 11
19.272961
 21
3.197122
 31
0.0
  0
LINE
  5
1f6
100
AcDbEntity
  8
0
 62
7
100
AcDbLine
 10
19.272961
 20
5.097129
 30
0.0
 11
19.272961
 21
3.197122
 31
0.0
  0
LINE
  5
1f7
100
AcDbEntity
  8
0
 62
7
100
AcDbLine
 10
19.272961
 20
5.097129
 30
0.0
 11
17.372954
 21
5.097129
 31
0.0
  0
LINE
  5
1f8
100
AcDbEntity
  8
0
 62
7
100
AcDbLine
 10
17.372954
 20
3.197122
 30
0.0
 11
19.272961
 21
3.197122
 31
0.0
  0
LINE
  5
1f9
100
AcDbEntity
  8
0
 62
7
100
AcDbLine
 10
17.372954
 20
3.197122
 30
0.0
 11
17.372954
 21
5.097129
 31
0.0
  0
LINE
  5
1fa
100
AcDbEntity
  8
0
 62
7
100
AcDbLine
 10
17.372954
 20
3.197122
 30
0.0
 11
17.372954
 21
5.097129
 31
0.0
  0
LINE
  5
1fb
100
AcDbEntity
  8
0
 62
7
100
AcDbLine
 10
17.372954
 20
3.197122
 30
0.0
 11
17.372954
 21
5.097129
 31
0.0
  0
LINE
  5
1fc
100
AcDbEntity
  8
0
 62
7
100
AcDbLine
 10
17.372954
 20
5.097129
 30
0.0
 11
19.272961
 21
5.097129
 31
0.0
  0
LINE
  5
1fd
100
AcDbEntity
  8
0
 62
7
100
AcDbLine
 10
17.372954
 20
5.097129
 30
0.0
 11
19.272961
 21
5.097129
 31
0.0
  0
LINE
  5
1fe
100
AcDbEntity
  8
0
 62
7
100
AcDbLine
 10
17.372954
 20
5.097129
 30
0.0
 11
19.272961
 21
5.097129
 31
0.0
  0
LINE
  5
1ff
100
AcDbEntity
  8
0
 62
7
100
AcDbLine
 10
17.372954
 20
5.097129
 30
0.0
 11
17.372954
 21
3.197122
 31
0.0
  0
LINE
  5
200
100
AcDbEntity
  8
0
 62
7
100
AcDbLine
 10
4.021205
 20
0.784913
 30
0.0
 11
4.021205
 21
2.684920
 31
0.0
  0
LINE
  5
201
100
AcDbEntity
  8
0
 62
7
100
AcDbLine
 10
4.021205
 20
0.784913
 30
0.0
 11
2.121198
 21
0.784913
 31
0.0
  0
LINE
  5
202
100
AcDbEntity
  8
0
 62
7
100
AcDbLine
 10
4.021205
 20
0.784913
 30
0.0
 11
2.121198
 21
0.784913
 31
0.0
  0
LINE
  5
203
100
AcDbEntity
  8
0
 62
7
100
AcDbLine
 10
4.021205
 20
0.784913
 30
0.0
 11
2.121198
 21
0.784913
 31
0.0
  0
LINE
  5
204
100
AcDbEntity
  8
0
 62
7
100
AcDbLine
 10
4.021205
 20
2.684920
 30
0.0
 11
4.021205
 21
0.784913
 31
0.0
  0
LINE
  5
205
100
AcDbEntity
  8
0
 62
7
100
AcDbLine
 10
4.021205
 20
2.684920
 30
0.0
 11
4.021205
 21
0.784913
 31
0.0
  0
LINE
  5
206
100
AcDbEntity
  8
0
 62
7
100
AcDbLine
 10
4.021205
 20
2.684920
 30
0.0
 11
4.021205
 21
0.784913
 31
0.0
  0
LINE
  5
207
100
AcDbEntity
  8
0
 62
7
100
AcDbLine
 10
4.021205
 20
2.684920
 30
0.0
 11
2.121198
 21
2.684920
 31
0.0
  0
LINE
  5
208
100
AcDbEntity
  8
0
 62
7
100
AcDbLine
 10
2.121198
 20
0.784913
 30
0.0
 11
4.021205
 21
0.784913
 31
0.0
  0
LINE
  5
209
100
AcDbEntity
  8
0
 62
7
100
AcDbLine
 10
2.121198
 20
0.784913
 30
0.0
 11
2.121198
 21
2.684920
 31
0.0
  0
LINE
  5
20a
100
AcDbEntity
  8
0
 62
7
100
AcDbLine
 10
2.121198
 20
0.784913
 30
0.0
 11
2.121198
 21
2.684920
 31
0.0
  0
LINE
  5
20b
100
AcDbEntity
  8
0
 62
7
100
AcDbLine
 10
2.121198
 20
0.784913
 30
0.0
 11
2.121198
 21
2.684920
 31
0.0
  0
LINE
  5
20c
100
AcDbEntity
  8
0
 62
7
100
AcDbLine
 10
2.121198
 20
2.684920
 30
0.0
 11
4.021205
 21
2.684920
 31
0.0
  0
LINE
  5
20d
100
AcDbEntity
  8
0
 62
7
100
AcDbLine
 10
2.121198
 20
2.684920
 30
0.0
 11
4.021205
 21
2.684920
 31
0.0
  0
LINE
  5
20e
100
AcDbEntity
  8
0
 62
7
100
AcDbLine
 10
2.121198
 20
2.684920
 30
0.0
 11
4.021205
 21
2.684920
 31
0.0
  0
LINE
  5
20f
100
AcDbEntity
  8
0
 62
7
100
AcDbLine
 10
2.121198
 20
2.684920
 30
0.0
 11
2.121198
 21
0.784913
 31
0.0
  0
LINE
  5
210
100
AcDbEntity
  8
0
 62
7
100
AcDbLine
 10
24.975582
 20
0.784913
 30
0.0
 11
24.975582
 21
2.684920
 31
0.0
  0
LINE
  5
211
100
AcDbEntity
  8
0
 62
7
100
AcDbLine
 10
24.975582
 20
0.784913
 30
0.0
 11
23.075575
 21
0.784913
 31
0.0
  0
LINE
  5
212
100
AcDbEntity
  8
0
 62
7
100
AcDbLine
 10
24.975582
 20
0.784913
 30
0.0
 11
23.075575
 21
0.784913
 31
0.0
  0
LINE
  5
213
100
AcDbEntity
  8
0
 62
7
100
AcDbLine
 10
24.975582
 20
0.784913
 30
0.0
 11
23.075575
 21
0.784913
 31
0.0
  0
LINE
  5
214
100
AcDbEntity
  8
0
 62
7
100
AcDbLine
 10
24.975582
 20
2.684920
 30
0.0
 11
24.975582
 21
0.784913
 31
0.0
  0
LINE
  5
215
100
AcDbEntity
  8
0
 62
7
100
AcDbLine
 10
24.975582
 20
2.684920
 30
0.0
 11
24.975582
 21
0.784913
 31
0.0
  0
LINE
  5
216
100
AcDbEntity
  8
0
 62
7
100
AcDbLine
 10
24.975582
 20
2.684920
 30
0.0
 11
24.975582
 21
0.784913
 31
0.0
  0
LINE
  5
217
100
AcDbEntity
  8
0
 62
7
100
AcDbLine
 10
24.975582
 20
2.684920
 30
0.0
 11
23.075575
 21
2.684920
 31
0.0
  0
LINE
  5
218
100
AcDbEntity
  8
0
 62
7
100
AcDbLine
 10
23.075575
 20
0.784913
 30
0.0
 11
24.975582
 21
0.784913
 31
0.0
  0
LINE
  5
219
100
AcDbEntity
  8
0
 62
7
100
AcDbLine
 10
23.075575
 20
0.784913
 30
0.0
 11
23.075575
 21
2.684920
 31
0.0
  0
LINE
  5
21a
100
AcDbEntity
  8
0
 62
7
100
AcDbLine
 10
23.075575
 20
0.784913
 30
0.0
 11
23.075575
 21
2.684920
 31
0.0
  0
LINE
  5
21b
100
AcDbEntity
  8
0
 62
7
100
AcDbLine
 10
23.075575
 20
0.784913
 30
0.0
 11
23.075575
 21
2.684920
 31
0.0
  0
LINE
  5
21c
100
AcDbEntity
  8
0
 62
7
100
AcDbLine
 10
23.075575
 20
2.684920
 30
0.0
 11
24.975582
 21
2.684920
 31
0.0
  0
LINE
  5
21d
100
AcDbEntity
  8
0
 62
7
100
AcDbLine
 10
23.075575
 20
2.684920
 30
0.0
 11
24.975582
 21
2.684920
 31
0.0
  0
LINE
  5
21e
100
AcDbEntity
  8
0
 62
7
100
AcDbLine
 10
23.075575
 20
2.684920
 30
0.0
 11
24.975582
 21
2.684920
 31
0.0
  0
LINE
  5
21f
100
AcDbEntity
  8
0
 62
7
100
AcDbLine
 10
23.075575
 20
2.684920
 30
0.0
 11
23.075575
 21
0.784913
 31
0.0
  0
LINE
  5
220
100
AcDbEntity
  8
0
 62
7
100
AcDbLine
 10
23.074715
 20
5.106929
 30
0.0
 11
23.074715
 21
7.006936
 31
0.0
  0
LINE
  5
221
100
AcDbEntity
  8
0
 62
7
100
AcDbLine
 10
23.074715
 20
5.106929
 30
0.0
 11
21.174708
 21
5.106929
 31
0.0
  0
LINE
  5
222
100
AcDbEntity
  8
0
 62
7
100
AcDbLine
 10
23.074715
 20
5.106929
 30
0.0
 11
21.174708
 21
5.106929
 31
0.0
  0
LINE
  5
223
100
AcDbEntity
  8
0
 62
7
100
AcDbLine
 10
23.074715
 20
5.106929
 30
0.0
 11
21.174708
 21
5.106929
 31
0.0
  0
LINE
  5
224
100
AcDbEntity
  8
0
 62
7
100
AcDbLine
 10
23.074715
 20
7.006936
 30
0.0
 11
23.074715
 21
5.106929
 31
0.0
  0
LINE
  5
225
100
AcDbEntity
  8
0
 62
7
100
AcDbLine
 10
23.074715
 20
7.006936
 30
0.0
 11
23.074715
 21
5.106929
 31
0.0
  0
LINE
  5
226
100
AcDbEntity
  8
0
 62
7
100
AcDbLine
 10
23.074715
 20
7.006936
 30
0.0
 11
23.074715
 21
5.106929
 31
0.0
  0
LINE
  5
227
100
AcDbEntity
  8
0
 62
7
100
AcDbLine
 10
23.074715
 20
7.006936
 30
0.0
 11
21.174708
 21
7.006936
 31
0.0
  0
LINE
  5
228
100
AcDbEntity
  8
0
 62
7
100
AcDbLine
 10
21.174708
 20
5.106929
 30
0.0
 11
23.074715
 21
5.106929
 31
0.0
  0
LINE
  5
229
100
AcDbEntity
  8
0
 62
7
100
AcDbLine
 10
21.174708
 20
5.106929
 30
0.0
 11
21.174708
 21
7.006936
 31
0.0
  0
LINE
  5
22a
100
AcDbEntity
  8
0
 62
7
100
AcDbLine
 10
21.174708
 20
5.106929
 30
0.0
 11
21.174708
 21
7.006936
 31
0.0
  0
LINE
  5
22b
100
AcDbEntity
  8
0
 62
7
100
AcDbLine
 10
21.174708
 20
5.106929
 30
0.0
 11
21.174708
 21
7.006936
 31
0.0
  0
LINE
  5
22c
100
AcDbEntity
  8
0
 62
7
100
AcDbLine
 10
21.174708
 20
7.006936
 30
0.0
 11
23.074715
 21
7.006936
 31
0.0
  0
LINE
  5
22d
100
AcDbEntity
  8
0
 62
7
100
AcDbLine
 10
21.174708
 20
7.006936
 30
0.0
 11
23.074715
 21
7.006936
 31
0.0
  0
LINE
  5
22e
100
AcDbEntity
  8
0
 62
7
100
AcDbLine
 10
21.174708
 20
7.006936
 30
0.0
 11
23.074715
 21
7.006936
 31
0.0
  0
LINE
  5
22f
100
AcDbEntity
  8
0
 62
7
100
AcDbLine
 10
21.174708
 20
7.006936
 30
0.0
 11
21.174708
 21
5.106929
 31
0.0
  0
LINE
  5
230
100
AcDbEntity
  8
0
 62
7
100
AcDbLine
 10
5.924082
 20
0.784913
 30
0.0
 11
5.924082
 21
2.684920
 31
0.0
  0
LINE
  5
231
100
AcDbEntity
  8
0
 62
7
100
AcDbLine
 10
5.924082
 20
0.784913
 30
0.0
 11
4.024075
 21
0.784913
 31
0.0
  0
LINE
  5
232
100
AcDbEntity
  8
0
 62
7
100
AcDbLine
 10
5.924082
 20
0.784913
 30
0.0
 11
4.024075
 21
0.784913
 31
0.0
  0
LINE
  5
233
100
AcDbEntity
  8
0
 62
7
100
AcDbLine
 10
5.924082
 20
0.784913
 30
0.0
 11
4.024075
 21
0.784913
 31
0.0
  0
LINE
  5
234
100
AcDbEntity
  8
0
 62
7
100
AcDbLine
 10
5.924082
 20
2.684920
 30
0.0
 11
5.924082
 21
0.784913
 31
0.0
  0
LINE
  5
235
100
AcDbEntity
  8
0
 62
7
100
AcDbLine
 10
5.924082
 20
2.684920
 30
0.0
 11
5.924082
 21
0.784913
 31
0.0
  0
LINE
  5
236
100
AcDbEntity
  8
0
 62
7
100
AcDbLine
 10
5.924082
 20
2.684920
 30
0.0
 11
5.924082
 21
0.784913
 31
0.0
  0
LINE
  5
237
100
AcDbEntity
  8
0
 62
7
100
AcDbLine
 10
5.924082
 20
2.684920
 30
0.0
 11
4.024075
 21
2.684920
 31
0.0
  0
LINE
  5
238
100
AcDbEntity
  8
0
 62
7
100
AcDbLine
 10
4.024075
 20
0.784913
 30
0.0
 11
5.924082
 21
0.784913
 31
0.0
  0
LINE
  5
239
100
AcDbEntity
  8
0
 62
7
100
AcDbLine
 10
4.024075
 20
0.784913
 30
0.0
 11
4.024075
 21
2.684920
 31
0.0
  0
LINE
  5
23a
100
AcDbEntity
  8
0
 62
7
100
AcDbLine
 10
4.024075
 20
0.784913
 30
0.0
 11
4.024075
 21
2.684920
 31
0.0
  0
LINE
  5
23b
100
AcDbEntity
  8
0
 62
7
100
AcDbLine
 10
4.024075
 20
0.784913
 30
0.0
 11
4.024075
 21
2.684920
 31
0.0
  0
LINE
  5
23c
100
AcDbEntity
  8
0
 62
7
100
AcDbLine
 10
4.024075
 20
2.684920
 30
0.0
 11
5.924082
 21
2.684920
 31
0.0
  0
LINE
  5
23d
100
AcDbEntity
  8
0
 62
7
100
AcDbLine
 10
4.024075
 20
2.684920
 30
0.0
 11
5.924082
 21
2.684920
 31
0.0
  0
LINE
  5
23e
100
AcDbEntity
  8
0
 62
7
100
AcDbLine
 10
4.024075
 20
2.684920
 30
0.0
 11
5.924082
 21
2.684920
 31
0.0
  0
LINE
  5
23f
100
AcDbEntity
  8
0
 62
7
100
AcDbLine
 10
4.024075
 20
2.684920
 30
0.0
 11
4.024075
 21
0.784913
 31
0.0
  0
LINE
  5
240
100
AcDbEntity
  8
0
 62
7
100
AcDbLine
 10
23.074715
 20
0.784913
 30
0.0
 11
23.074715
 21
2.684920
 31
0.0
  0
LINE
  5
241
100
AcDbEntity
  8
0
 62
7
100
AcDbLine
 10
23.074715
 20
0.784913
 30
0.0
 11
21.174708
 21
0.784913
 31
0.0
  0
LINE
  5
242
100
AcDbEntity
  8
0
 62
7
100
AcDbLine
 10
23.074715
 20
0.784913
 30
0.0
 11
21.174708
 21
0.784913
 31
0.0
  0
LINE
  5
243
100
AcDbEntity
  8
0
 62
7
100
AcDbLine
 10
23.074715
 20
0.784913
 30
0.0
 11
21.174708
 21
0.784913
 31
0.0
  0
LINE
  5
244
100
AcDbEntity
  8
0
 62
7
100
AcDbLine
 10
23.074715
 20
2.684920
 30
0.0
 11
23.074715
 21
0.784913
 31
0.0
  0
LINE
  5
245
100
AcDbEntity
  8
0
 62
7
100
AcDbLine
 10
23.074715
 20
2.684920
 30
0.0
 11
23.074715
 21
0.784913
 31
0.0
  0
LINE
  5
246
100
AcDbEntity
  8
0
 62
7
100
AcDbLine
 10
23.074715
 20
2.684920
 30
0.0
 11
23.074715
 21
0.784913
 31
0.0
  0
LINE
  5
247
100
AcDbEntity
  8
0
 62
7
100
AcDbLine
 10
23.074715
 20
2.684920
 30
0.0
 11
21.174708
 21
2.684920
 31
0.0
  0
LINE
  5
248
100
AcDbEntity
  8
0
 62
7
100
AcDbLine
 10
21.174708
 20
0.784913
 30
0.0
 11
23.074715
 21
0.784913
 31
0.0
  0
LINE
  5
249
100
AcDbEntity
  8
0
 62
7
100
AcDbLine
 10
21.174708
 20
0.784913
 30
0.0
 11
21.174708
 21
2.684920
 31
0.0
  0
LINE
  5
24a
100
AcDbEntity
  8
0
 62
7
100
AcDbLine
 10
21.174708
 20
0.784913
 30
0.0
 11
21.174708
 21
2.684920
 31
0.0
  0
LINE
  5
24b
100
AcDbEntity
  8
0
 62
7
100
AcDbLine
 10
21.174708
 20
0.784913
 30
0.0
 11
21.174708
 21
2.684920
 31
0.0
  0
LINE
  5
24c
100
AcDbEntity
  8
0
 62
7
100
AcDbLine
 10
21.174708
 20
2.684920
 30
0.0
 11
23.074715
 21
2.684920
 31
0.0
  0
LINE
  5
24d
100
AcDbEntity
  8
0
 62
7
100
AcDbLine
 10
21.174708
 20
2.684920
 30
0.0
 11
23.074715
 21
2.684920
 31
0.0
  0
LINE
  5
24e
100
AcDbEntity
  8
0
 62
7
100
AcDbLine
 10
21.174708
 20
2.684920
 30
0.0
 11
23.074715
 21
2.684920
 31
0.0
  0
LINE
  5
24f
100
AcDbEntity
  8
0
 62
7
100
AcDbLine
 10
21.174708
 20
2.684920
 30
0.0
 11
21.174708
 21
0.784913
 31
0.0
  0
LINE
  5
250
100
AcDbEntity
  8
0
 62
7
100
AcDbLine
 10
5.924082
 20
3.197122
 30
0.0
 11
5.924082
 21
5.097129
 31
0.0
  0
LINE
  5
251
100
AcDbEntity
  8
0
 62
7
100
AcDbLine
 10
5.924082
 20
3.197122
 30
0.0
 11
4.024075
 21
3.197122
 31
0.0
  0
LINE
  5
252
100
AcDbEntity
  8
0
 62
7
100
AcDbLine
 10
5.924082
 20
3.197122
 30
0.0
 11
4.024075
 21
3.197122
 31
0.0
  0
LINE
  5
253
100
AcDbEntity
  8
0
 62
7
100
AcDbLine
 10
5.924082
 20
3.197122
 30
0.0
 11
4.024075
 21
3.197122
 31
0.0
  0
LINE
  5
254
100
AcDbEntity
  8
0
 62
7
100
AcDbLine
 10
5.924082
 20
5.097129
 30
0.0
 11
5.924082
 21
3.197122
 31
0.0
  0
LINE
  5
255
100
AcDbEntity
  8
0
 62
7
100
AcDbLine
 10
5.924082
 20
5.097129
 30
0.0
 11
5.924082
 21
3.197122
 31
0.0
  0
LINE
  5
256
100
AcDbEntity
  8
0
 62
7
100
AcDbLine
 10
5.924082
 20
5.097129
 30
0.0
 11
5.924082
 21
3.197122
 31
0.0
  0
LINE
  5
257
100
AcDbEntity
  8
0
 62
7
100
AcDbLine
 10
5.924082
 20
5.097129
 30
0.0
 11
4.024075
 21
5.097129
 31
0.0
  0
LINE
  5
258
100
AcDbEntity
  8
0
 62
7
100
AcDbLine
 10
4.024075
 20
3.197122
 30
0.0
 11
5.924082
 21
3.197122
 31
0.0
  0
LINE
  5
259
100
AcDbEntity
  8
0
 62
7
100
AcDbLine
 10
4.024075
 20
3.197122
 30
0.0
 11
4.024075
 21
5.097129
 31
0.0
  0
LINE
  5
25a
100
AcDbEntity
  8
0
 62
7
100
AcDbLine
 10
4.024075
 20
3.197122
 30
0.0
 11
4.024075
 21
5.097129
 31
0.0
  0
LINE
  5
25b
100
AcDbEntity
  8
0
 62
7
100
AcDbLine
 10
4.024075
 20
3.197122
 30
0.0
 11
4.024075
 21
5.097129
 31
0.0
  0
LINE
  5
25c
100
AcDbEntity
  8
0
 62
7
100
AcDbLine
 10
4.024075
 20
5.097129
 30
0.0
 11
5.924082
 21
5.097129
 31
0.0
  0
LINE
  5
25d
100
AcDbEntity
  8
0
 62
7
100
AcDbLine
 10
4.024075
 20
5.097129
 30
0.0
 11
5.924082
 21
5.097129
 31
0.0
  0
LINE
  5
25e
100
AcDbEntity
  8
0
 62
7
100
AcDbLine
 10
4.024075
 20
5.097129
 30
0.0
 11
5.924082
 21
5.097129
 31
0.0
  0
LINE
  5
25f
100
AcDbEntity
  8
0
 62
7
100
AcDbLine
 10
4.024075
 20
5.097129
 30
0.0
 11
4.024075
 21
3.197122
 31
0.0
  0
LINE
  5
260
100
AcDbEntity
  8
0
 62
7
100
AcDbLine
 10
7.826959
 20
7.015336
 30
0.0
 11
7.826959
 21
8.915343
 31
0.0
  0
LINE
  5
261
100
AcDbEntity
  8
0
 62
7
100
AcDbLine
 10
7.826959
 20
7.015336
 30
0.0
 11
5.926952
 21
7.015336
 31
0.0
  0
LINE
  5
262
100
AcDbEntity
  8
0
 62
7
100
AcDbLine
 10
7.826959
 20
7.015336
 30
0.0
 11
5.926952
 21
7.015336
 31
0.0
  0
LINE
  5
263
100
AcDbEntity
  8
0
 62
7
100
AcDbLine
 10
7.826959
 20
7.015336
 30
0.0
 11
5.926952
 21
7.015336
 31
0.0
  0
LINE
  5
264
100
AcDbEntity
  8
0
 62
7
100
AcDbLine
 10
7.826959
 20
8.915343
 30
0.0
 11
7.826959
 21
7.015336
 31
0.0
  0
LINE
  5
265
100
AcDbEntity
  8
0
 62
7
100
AcDbLine
 10
7.826959
 20
8.915343
 30
0.0
 11
7.826959
 21
7.015336
 31
0.0
  0
LINE
  5
266
100
AcDbEntity
  8
0
 62
7
100
AcDbLine
 10
7.826959
 20
8.915343
 30
0.0
 11
7.826959
 21
7.015336
 31
0.0
  0
LINE
  5
267
100
AcDbEntity
  8
0
 62
7
100
AcDbLine
 10
7.826959
 20
8.915343
 30
0.0
 11
5.926952
 21
8.915343
 31
0.0
  0
LINE
  5
268
100
AcDbEntity
  8
0
 62
7
100
AcDbLine
 10
5.926952
 20
7.015336
 30
0.0
 11
7.826959
 21
7.015336
 31
0.0
  0
LINE
  5
269
100
AcDbEntity
  8
0
 62
7
100
AcDbLine
 10
5.926952
 20
7.015336
 30
0.0
 11
5.926952
 21
8.915343
 31
0.0
  0
LINE
  5
26a
100
AcDbEntity
  8
0
 62
7
100
AcDbLine
 10
5.926952
 20
7.015336
 30
0.0
 11
5.926952
 21
8.915343
 31
0.0
  0
LINE
  5
26b
100
AcDbEntity
  8
0
 62
7
100
AcDbLine
 10
5.926952
 20
7.015336
 30
0.0
 11
5.926952
 21
8.915343
 31
0.0
  0
LINE
  5
26c
100
AcDbEntity
  8
0
 62
7
100
AcDbLine
 10
5.926952
 20
8.915343
 30
0.0
 11
7.826959
 21
8.915343
 31
0.0
  0
LINE
  5
26d
100
AcDbEntity
  8
0
 62
7
100
AcDbLine
 10
5.926952
 20
8.915343
 30
0.0
 11
7.826959
 21
8.915343
 31
0.0
  0
LINE
  5
26e
100
AcDbEntity
  8
0
 62
7
100
AcDbLine
 10
5.926952
 20
8.915343
 30
0.0
 11
7.826959
 21
8.915343
 31
0.0
  0
LINE
  5
26f
100
AcDbEntity
  8
0
 62
7
100
AcDbLine
 10
5.926952
 20
8.915343
 30
0.0
 11
5.926952
 21
7.015336
 31
0.0
  0
LINE
  5
270
100
AcDbEntity
  8
0
 62
7
100
AcDbLine
 10
7.826959
 20
0.784913
 30
0.0
 11
7.826959
 21
2.684920
 31
0.0
  0
LINE
  5
271
100
AcDbEntity
  8
0
 62
7
100
AcDbLine
 10
7.826959
 20
0.784913
 30
0.0
 11
5.926952
 21
0.784913
 31
0.0
  0
LINE
  5
272
100
AcDbEntity
  8
0
 62
7
100
AcDbLine
 10
7.826959
 20
0.784913
 30
0.0
 11
5.926952
 21
0.784913
 31
0.0
  0
LINE
  5
273
100
AcDbEntity
  8
0
 62
7
100
AcDbLine
 10
7.826959
 20
0.784913
 30
0.0
 11
5.926952
 21
0.784913
 31
0.0
  0
LINE
  5
274
100
AcDbEntity
  8
0
 62
7
100
AcDbLine
 10
7.826959
 20
2.684920
 30
0.0
 11
7.826959
 21
0.784913
 31
0.0
  0
LINE
  5
275
100
AcDbEntity
  8
0
 62
7
100
AcDbLine
 10
7.826959
 20
2.684920
 30
0.0
 11
7.826959
 21
0.784913
 31
0.0
  0
LINE
  5
276
100
AcDbEntity
  8
0
 62
7
100
AcDbLine
 10
7.826959
 20
2.684920
 30
0.0
 11
7.826959
 21
0.784913
 31
0.0
  0
LINE
  5
277
100
AcDbEntity
  8
0
 62
7
100
AcDbLine
 10
7.826959
 20
2.684920
 30
0.0
 11
5.926952
 21
2.684920
 31
0.0
  0
LINE
  5
278
100
AcDbEntity
  8
0
 62
7
100
AcDbLine
 10
5.926952
 20
0.784913
 30
0.0
 11
7.826959
 21
0.784913
 31
0.0
  0
LINE
  5
279
100
AcDbEntity
  8
0
 62
7
100
AcDbLine
 10
5.926952
 20
0.784913
 30
0.0
 11
5.926952
 21
2.684920
 31
0.0
  0
LINE
  5
27a
100
AcDbEntity
  8
0
 62
7
100
AcDbLine
 10
5.926952
 20
0.784913
 30
0.0
 11
5.926952
 21
2.684920
 31
0.0
  0
LINE
  5
27b
100
AcDbEntity
  8
0
 62
7
100
AcDbLine
 10
5.926952
 20
0.784913
 30
0.0
 11
5.926952
 21
2.684920
 31
0.0
  0
LINE
  5
27c
100
AcDbEntity
  8
0
 62
7
100
AcDbLine
 10
5.926952
 20
2.684920
 30
0.0
 11
7.826959
 21
2.684920
 31
0.0
  0
LINE
  5
27d
100
AcDbEntity
  8
0
 62
7
100
AcDbLine
 10
5.926952
 20
2.684920
 30
0.0
 11
7.826959
 21
2.684920
 31
0.0
  0
LINE
  5
27e
100
AcDbEntity
  8
0
 62
7
100
AcDbLine
 10
5.926952
 20
2.684920
 30
0.0
 11
7.826959
 21
2.684920
 31
0.0
  0
LINE
  5
27f
100
AcDbEntity
  8
0
 62
7
100
AcDbLine
 10
5.926952
 20
2.684920
 30
0.0
 11
5.926952
 21
0.784913
 31
0.0
  0
LINE
  5
280
100
AcDbEntity
  8
0
 62
7
100
AcDbLine
 10
21.173838
 20
7.015336
 30
0.0
 11
21.173838
 21
8.915343
 31
0.0
  0
LINE
  5
281
100
AcDbEntity
  8
0
 62
7
100
AcDbLine
 10
21.173838
 20
7.015336
 30
0.0
 11
19.273831
 21
7.015336
 31
0.0
  0
LINE
  5
282
100
AcDbEntity
  8
0
 62
7
100
AcDbLine
 10
21.173838
 20
7.015336
 30
0.0
 11
19.273831
 21
7.015336
 31
0.0
  0
LINE
  5
283
100
AcDbEntity
  8
0
 62
7
100
AcDbLine
 10
21.173838
 20
7.015336
 30
0.0
 11
19.273831
 21
7.015336
 31
0.0
  0
LINE
  5
284
100
AcDbEntity
  8
0
 62
7
100
AcDbLine
 10
21.173838
 20
8.915343
 30
0.0
 11
21.173838
 21
7.015336
 31
0.0
  0
LINE
  5
285
100
AcDbEntity
  8
0
 62
7
100
AcDbLine
 10
21.173838
 20
8.915343
 30
0.0
 11
21.173838
 21
7.015336
 31
0.0
  0
LINE
  5
286
100
AcDbEntity
  8
0
 62
7
100
AcDbLine
 10
21.173838
 20
8.915343
 30
0.0
 11
21.173838
 21
7.015336
 31
0.0
  0
LINE
  5
287
100
AcDbEntity
  8
0
 62
7
100
AcDbLine
 10
21.173838
 20
8.915343
 30
0.0
 11
19.273831
 21
8.915343
 31
0.0
  0
LINE
  5
288
100
AcDbEntity
  8
0
 62
7
100
AcDbLine
 10
19.273831
 20
7.015336
 30
0.0
 11
21.173838
 21
7.015336
 31
0.0
  0
LINE
  5
289
100
AcDbEntity
  8
0
 62
7
100
AcDbLine
 10
19.273831
 20
7.015336
 30
0.0
 11
19.273831
 21
8.915343
 31
0.0
  0
LINE
  5
28a
100
AcDbEntity
  8
0
 62
7
100
AcDbLine
 10
19.273831
 20
7.015336
 30
0.0
 11
19.273831
 21
8.915343
 31
0.0
  0
LINE
  5
28b
100
AcDbEntity
  8
0
 62
7
100
AcDbLine
 10
19.273831
 20
7.015336
 30
0.0
 11
19.273831
 21
8.915343
 31
0.0
  0
LINE
  5
28c
100
AcDbEntity
  8
0
 62
7
100
AcDbLine
 10
19.273831
 20
8.915343
 30
0.0
 11
21.173838
 21
8.915343
 31
0.0
  0
LINE
  5
28d
100
AcDbEntity
  8
0
 62
7
100
AcDbLine
 10
19.273831
 20
8.915343
 30
0.0
 11
21.173838
 21
8.915343
 31
0.0
  0
LINE
  5
28e
100
AcDbEntity
  8
0
 62
7
100
AcDbLine
 10
19.273831
 20
8.915343
 30
0.0
 11
21.173838
 21
8.915343
 31
0.0
  0
LINE
  5
28f
100
AcDbEntity
  8
0
 62
7
100
AcDbLine
 10
19.273831
 20
8.915343
 30
0.0
 11
19.273831
 21
7.015336
 31
0.0
  0
LINE
  5
290
100
AcDbEntity
  8
0
 62
7
100
AcDbLine
 10
19.272961
 20
5.106929
 30
0.0
 11
19.272961
 21
7.006936
 31
0.0
  0
LINE
  5
291
100
AcDbEntity
  8
0
 62
7
100
AcDbLine
 10
19.272961
 20
5.106929
 30
0.0
 11
17.372954
 21
5.106929
 31
0.0
  0
LINE
  5
292
100
AcDbEntity
  8
0
 62
7
100
AcDbLine
 10
19.272961
 20
5.106929
 30
0.0
 11
17.372954
 21
5.106929
 31
0.0
  0
LINE
  5
293
100
AcDbEntity
  8
0
 62
7
100
AcDbLine
 10
19.272961
 20
5.106929
 30
0.0
 11
17.372954
 21
5.106929
 31
0.0
  0
LINE
  5
294
100
AcDbEntity
  8
0
 62
7
100
AcDbLine
 10
19.272961
 20
7.006936
 30
0.0
 11
19.272961
 21
5.106929
 31
0.0
  0
LINE
  5
295
100
AcDbEntity
  8
0
 62
7
100
AcDbLine
 10
19.272961
 20
7.006936
 30
0.0
 11
19.272961
 21
5.106929
 31
0.0
  0
LINE
  5
296
100
AcDbEntity
  8
0
 62
7
100
AcDbLine
 10
19.272961
 20
7.006936
 30
0.0
 11
19.272961
 21
5.106929
 31
0.0
  0
LINE
  5
297
100
AcDbEntity
  8
0
 62
7
100
AcDbLine
 10
19.272961
 20
7.006936
 30
0.0
 11
17.372954
 21
7.006936
 31
0.0
  0
LINE
  5
298
100
AcDbEntity
  8
0
 62
7
100
AcDbLine
 10
17.372954
 20
5.106929
 30
0.0
 11
19.272961
 21
5.106929
 31
0.0
  0
LINE
  5
299
100
AcDbEntity
  8
0
 62
7
100
AcDbLine
 10
17.372954
 20
5.106929
 30
0.0
 11
17.372954
 21
7.006936
 31
0.0
  0
LINE
  5
29a
100
AcDbEntity
  8
0
 62
7
100
AcDbLine
 10
17.372954
 20
5.106929
 30
0.0
 11
17.372954
 21
7.006936
 31
0.0
  0
LINE
  5
29b
100
AcDbEntity
  8
0
 62
7
100
AcDbLine
 10
17.372954
 20
5.106929
 30
0.0
 11
17.372954
 21
7.006936
 31
0.0
  0
LINE
  5
29c
100
AcDbEntity
  8
0
 62
7
100
AcDbLine
 10
17.372954
 20
7.006936
 30
0.0
 11
19.272961
 21
7.006936
 31
0.0
  0
LINE
  5
29d
100
AcDbEntity
  8
0
 62
7
100
AcDbLine
 10
17.372954
 20
7.006936
 30
0.0
 11
19.272961
 21
7.006936
 31
0.0
  0
LINE
  5
29e
100
AcDbEntity
  8
0
 62
7
100
AcDbLine
 10
17.372954
 20
7.006936
 30
0.0
 11
19.272961
 21
7.006936
 31
0.0
  0
LINE
  5
29f
100
AcDbEntity
  8
0
 62
7
100
AcDbLine
 10
17.372954
 20
7.006936
 30
0.0
 11
17.372954
 21
5.106929
 31
0.0
  0
LINE
  5
2a0
100
AcDbEntity
  8
0
 62
7
100
AcDbLine
 10
9.734496
 20
5.107259
 30
0.0
 11
9.734496
 21
7.007266
 31
0.0
  0
LINE
  5
2a1
100
AcDbEntity
  8
0
 62
7
100
AcDbLine
 10
9.734496
 20
5.107259
 30
0.0
 11
7.834489
 21
5.107259
 31
0.0
  0
LINE
  5
2a2
100
AcDbEntity
  8
0
 62
7
100
AcDbLine
 10
9.734496
 20
5.107259
 30
0.0
 11
7.834489
 21
5.107259
 31
0.0
  0
LINE
  5
2a3
100
AcDbEntity
  8
0
 62
7
100
AcDbLine
 10
9.734496
 20
5.107259
 30
0.0
 11
7.834489
 21
5.107259
 31
0.0
  0
LINE
  5
2a4
100
AcDbEntity
  8
0
 62
7
100
AcDbLine
 10
9.734496
 20
7.007266
 30
0.0
 11
9.734496
 21
5.107259
 31
0.0
  0
LINE
  5
2a5
100
AcDbEntity
  8
0
 62
7
100
AcDbLine
 10
9.734496
 20
7.007266
 30
0.0
 11
9.734496
 21
5.107259
 31
0.0
  0
LINE
  5
2a6
100
AcDbEntity
  8
0
 62
7
100
AcDbLine
 10
9.734496
 20
7.007266
 30
0.0
 11
9.734496
 21
5.107259
 31
0.0
  0
LINE
  5
2a7
100
AcDbEntity
  8
0
 62
7
100
AcDbLine
 10
9.734496
 20
7.007266
 30
0.0
 11
7.834489
 21
7.007266
 31
0.0
  0
LINE
  5
2a8
100
AcDbEntity
  8
0
 62
7
100
AcDbLine
 10
7.834489
 20
5.107259
 30
0.0
 11
9.734496
 21
5.107259
 31
0.0
  0
LINE
  5
2a9
100
AcDbEntity
  8
0
 62
7
100
AcDbLine
 10
7.834489
 20
5.107259
 30
0.0
 11
7.834489
 21
7.007266
 31
0.0
  0
LINE
  5
2aa
100
AcDbEntity
  8
0
 62
7
100
AcDbLine
 10
7.834489
 20
5.107259
 30
0.0
 11
7.834489
 21
7.007266
 31
0.0
  0
LINE
  5
2ab
100
AcDbEntity
  8
0
 62
7
100
AcDbLine
 10
7.834489
 20
5.107259
 30
0.0
 11
7.834489
 21
7.007266
 31
0.0
  0
LINE
  5
2ac
100
AcDbEntity
  8
0
 62
7
100
AcDbLine
 10
7.834489
 20
7.007266
 30
0.0
 11
9.734496
 21
7.007266
 31
0.0
  0
LINE
  5
2ad
100
AcDbEntity
  8
0
 62
7
100
AcDbLine
 10
7.834489
 20
7.007266
 30
0.0
 11
9.734496
 21
7.007266
 31
0.0
  0
LINE
  5
2ae
100
AcDbEntity
  8
0
 62
7
100
AcDbLine
 10
7.834489
 20
7.007266
 30
0.0
 11
9.734496
 21
7.007266
 31
0.0
  0
LINE
  5
2af
100
AcDbEntity
  8
0
 62
7
100
AcDbLine
 10
7.834489
 20
7.007266
 30
0.0
 11
7.834489
 21
5.107259
 31
0.0
  0
LINE
  5
2b0
100
AcDbEntity
  8
0
 62
7
100
AcDbLine
 10
23.074715
 20
7.015336
 30
0.0
 11
23.074715
 21
8.915343
 31
0.0
  0
LINE
  5
2b1
100
AcDbEntity
  8
0
 62
7
100
AcDbLine
 10
23.074715
 20
7.015336
 30
0.0
 11
21.174708
 21
7.015336
 31
0.0
  0
LINE
  5
2b2
100
AcDbEntity
  8
0
 62
7
100
AcDbLine
 10
23.074715
 20
7.015336
 30
0.0
 11
21.174708
 21
7.015336
 31
0.0
  0
LINE
  5
2b3
100
AcDbEntity
  8
0
 62
7
100
AcDbLine
 10
23.074715
 20
7.015336
 30
0.0
 11
21.174708
 21
7.015336
 31
0.0
  0
LINE
  5
2b4
100
AcDbEntity
  8
0
 62
7
100
AcDbLine
 10
23.074715
 20
8.915343
 30
0.0
 11
23.074715
 21
7.015336
 31
0.0
  0
LINE
  5
2b5
100
AcDbEntity
  8
0
 62
7
100
AcDbLine
 10
23.074715
 20
8.915343
 30
0.0
 11
23.074715
 21
7.015336
 31
0.0
  0
LINE
  5
2b6
100
AcDbEntity
  8
0
 62
7
100
AcDbLine
 10
23.074715
 20
8.915343
 30
0.0
 11
23.074715
 21
7.015336
 31
0.0
  0
LINE
  5
2b7
100
AcDbEntity
  8
0
 62
7
100
AcDbLine
 10
23.074715
 20
8.915343
 30
0.0
 11
21.174708
 21
8.915343
 31
0.0
  0
LINE
  5
2b8
100
AcDbEntity
  8
0
 62
7
100
AcDbLine
 10
21.174708
 20
7.015336
 30
0.0
 11
23.074715
 21
7.015336
 31
0.0
  0
LINE
  5
2b9
100
AcDbEntity
  8
0
 62
7
100
AcDbLine
 10
21.174708
 20
7.015336
 30
0.0
 11
21.174708
 21
8.915343
 31
0.0
  0
LINE
  5
2ba
100
AcDbEntity
  8
0
 62
7
100
AcDbLine
 10
21.174708
 20
7.015336
 30
0.0
 11
21.174708
 21
8.915343
 31
0.0
  0
LINE
  5
2bb
100
AcDbEntity
  8
0
 62
7
100
AcDbLine
 10
21.174708
 20
7.015336
 30
0.0
 11
21.174708
 21
8.915343
 31
0.0
  0
LINE
  5
2bc
100
AcDbEntity
  8
0
 62
7
100
AcDbLine
 10
21.174708
 20
8.915343
 30
0.0
 11
23.074715
 21
8.915343
 31
0.0
  0
LINE
  5
2bd
100
AcDbEntity
  8
0
 62
7
100
AcDbLine
 10
21.174708
 20
8.915343
 30
0.0
 11
23.074715
 21
8.915343
 31
0.0
  0
LINE
  5
2be
100
AcDbEntity
  8
0
 62
7
100
AcDbLine
 10
21.174708
 20
8.915343
 30
0.0
 11
23.074715
 21
8.915343
 31
0.0
  0
LINE
  5
2bf
100
AcDbEntity
  8
0
 62
7
100
AcDbLine
 10
21.174708
 20
8.915343
 30
0.0
 11
21.174708
 21
7.015336
 31
0.0
  0
LINE
  5
2c0
100
AcDbEntity
  8
0
 62
7
100
AcDbLine
 10
7.826959
 20
5.106929
 30
0.0
 11
7.826959
 21
7.006936
 31
0.0
  0
LINE
  5
2c1
100
AcDbEntity
  8
0
 62
7
100
AcDbLine
 10
7.826959
 20
5.106929
 30
0.0
 11
5.926952
 21
5.106929
 31
0.0
  0
LINE
  5
2c2
100
AcDbEntity
  8
0
 62
7
100
AcDbLine
 10
7.826959
 20
5.106929
 30
0.0
 11
5.926952
 21
5.106929
 31
0.0
  0
LINE
  5
2c3
100
AcDbEntity
  8
0
 62
7
100
AcDbLine
 10
7.826959
 20
5.106929
 30
0.0
 11
5.926952
 21
5.106929
 31
0.0
  0
LINE
  5
2c4
100
AcDbEntity
  8
0
 62
7
100
AcDbLine
 10
7.826959
 20
7.006936
 30
0.0
 11
7.826959
 21
5.106929
 31
0.0
  0
LINE
  5
2c5
100
AcDbEntity
  8
0
 62
7
100
AcDbLine
 10
7.826959
 20
7.006936
 30
0.0
 11
7.826959
 21
5.106929
 31
0.0
  0
LINE
  5
2c6
100
AcDbEntity
  8
0
 62
7
100
AcDbLine
 10
7.826959
 20
7.006936
 30
0.0
 11
7.826959
 21
5.106929
 31
0.0
  0
LINE
  5
2c7
100
AcDbEntity
  8
0
 62
7
100
AcDbLine
 10
7.826959
 20
7.006936
 30
0.0
 11
5.926952
 21
7.006936
 31
0.0
  0
LINE
  5
2c8
100
AcDbEntity
  8
0
 62
7
100
AcDbLine
 10
5.926952
 20
5.106929
 30
0.0
 11
7.826959
 21
5.106929
 31
0.0
  0
LINE
  5
2c9
100
AcDbEntity
  8
0
 62
7
100
AcDbLine
 10
5.926952
 20
5.106929
 30
0.0
 11
5.926952
 21
7.006936
 31
0.0
  0
LINE
  5
2ca
100
AcDbEntity
  8
0
 62
7
100
AcDbLine
 10
5.926952
 20
5.106929
 30
0.0
 11
5.926952
 21
7.006936
 31
0.0
  0
LINE
  5
2cb
100
AcDbEntity
  8
0
 62
7
100
AcDbLine
 10
5.926952
 20
5.106929
 30
0.0
 11
5.926952
 21
7.006936
 31
0.0
  0
LINE
  5
2cc
100
AcDbEntity
  8
0
 62
7
100
AcDbLine
 10
5.926952
 20
7.006936
 30
0.0
 11
7.826959
 21
7.006936
 31
0.0
  0
LINE
  5
2cd
100
AcDbEntity
  8
0
 62
7
100
AcDbLine
 10
5.926952
 20
7.006936
 30
0.0
 11
7.826959
 21
7.006936
 31
0.0
  0
LINE
  5
2ce
100
AcDbEntity
  8
0
 62
7
100
AcDbLine
 10
5.926952
 20
7.006936
 30
0.0
 11
7.826959
 21
7.006936
 31
0.0
  0
LINE
  5
2cf
100
AcDbEntity
  8
0
 62
7
100
AcDbLine
 10
5.926952
 20
7.006936
 30
0.0
 11
5.926952
 21
5.106929
 31
0.0
  0
LINE
  5
2d0
100
AcDbEntity
  8
0
 62
7
100
AcDbLine
 10
4.021205
 20
7.015336
 30
0.0
 11
4.021205
 21
8.915343
 31
0.0
  0
LINE
  5
2d1
100
AcDbEntity
  8
0
 62
7
100
AcDbLine
 10
4.021205
 20
7.015336
 30
0.0
 11
2.121198
 21
7.015336
 31
0.0
  0
LINE
  5
2d2
100
AcDbEntity
  8
0
 62
7
100
AcDbLine
 10
4.021205
 20
7.015336
 30
0.0
 11
2.121198
 21
7.015336
 31
0.0
  0
LINE
  5
2d3
100
AcDbEntity
  8
0
 62
7
100
AcDbLine
 10
4.021205
 20
7.015336
 30
0.0
 11
2.121198
 21
7.015336
 31
0.0
  0
LINE
  5
2d4
100
AcDbEntity
  8
0
 62
7
100
AcDbLine
 10
4.021205
 20
8.915343
 30
0.0
 11
4.021205
 21
7.015336
 31
0.0
  0
LINE
  5
2d5
100
AcDbEntity
  8
0
 62
7
100
AcDbLine
 10
4.021205
 20
8.915343
 30
0.0
 11
4.021205
 21
7.015336
 31
0.0
  0
LINE
  5
2d6
100
AcDbEntity
  8
0
 62
7
100
AcDbLine
 10
4.021205
 20
8.915343
 30
0.0
 11
4.021205
 21
7.015336
 31
0.0
  0
LINE
  5
2d7
100
AcDbEntity
  8
0
 62
7
100
AcDbLine
 10
4.021205
 20
8.915343
 30
0.0
 11
2.121198
 21
8.915343
 31
0.0
  0
LINE
  5
2d8
100
AcDbEntity
  8
0
 62
7
100
AcDbLine
 10
2.121198
 20
7.015336
 30
0.0
 11
4.021205
 21
7.015336
 31
0.0
  0
LINE
  5
2d9
100
AcDbEntity
  8
0
 62
7
100
AcDbLine
 10
2.121198
 20
7.015336
 30
0.0
 11
2.121198
 21
8.915343
 31
0.0
  0
LINE
  5
2da
100
AcDbEntity
  8
0
 62
7
100
AcDbLine
 10
2.121198
 20
7.015336
 30
0.0
 11
2.121198
 21
8.915343
 31
0.0
  0
LINE
  5
2db
100
AcDbEntity
  8
0
 62
7
100
AcDbLine
 10
2.121198
 20
7.015336
 30
0.0
 11
2.121198
 21
8.915343
 31
0.0
  0
LINE
  5
2dc
100
AcDbEntity
  8
0
 62
7
100
AcDbLine
 10
2.121198
 20
8.915343
 30
0.0
 11
4.021205
 21
8.915343
 31
0.0
  0
LINE
  5
2dd
100
AcDbEntity
  8
0
 62
7
100
AcDbLine
 10
2.121198
 20
8.915343
 30
0.0
 11
4.021205
 21
8.915343
 31
0.0
  0
LINE
  5
2de
100
AcDbEntity
  8
0
 62
7
100
AcDbLine
 10
2.121198
 20
8.915343
 30
0.0
 11
4.021205
 21
8.915343
 31
0.0
  0
LINE
  5
2df
100
AcDbEntity
  8
0
 62
7
100
AcDbLine
 10
2.121198
 20
8.915343
 30
0.0
 11
2.121198
 21
7.015336
 31
0.0
  0
LINE
  5
2e0
100
AcDbEntity
  8
0
 62
7
100
AcDbLine
 10
17.375124
 20
7.015336
 30
0.0
 11
17.375124
 21
8.915343
 31
0.0
  0
LINE
  5
2e1
100
AcDbEntity
  8
0
 62
7
100
AcDbLine
 10
17.375124
 20
7.015336
 30
0.0
 11
15.475117
 21
7.015336
 31
0.0
  0
LINE
  5
2e2
100
AcDbEntity
  8
0
 62
7
100
AcDbLine
 10
17.375124
 20
7.015336
 30
0.0
 11
15.475117
 21
7.015336
 31
0.0
  0
LINE
  5
2e3
100
AcDbEntity
  8
0
 62
7
100
AcDbLine
 10
17.375124
 20
7.015336
 30
0.0
 11
15.475117
 21
7.015336
 31
0.0
  0
LINE
  5
2e4
100
AcDbEntity
  8
0
 62
7
100
AcDbLine
 10
17.375124
 20
8.915343
 30
0.0
 11
17.375124
 21
7.015336
 31
0.0
  0
LINE
  5
2e5
100
AcDbEntity
  8
0
 62
7
100
AcDbLine
 10
17.375124
 20
8.915343
 30
0.0
 11
17.375124
 21
7.015336
 31
0.0
  0
LINE
  5
2e6
100
AcDbEntity
  8
0
 62
7
100
AcDbLine
 10
17.375124
 20
8.915343
 30
0.0
 11
17.375124
 21
7.015336
 31
0.0
  0
LINE
  5
2e7
100
AcDbEntity
  8
0
 62
7
100
AcDbLine
 10
17.375124
 20
8.915343
 30
0.0
 11
15.475117
 21
8.915343
 31
0.0
  0
LINE
  5
2e8
100
AcDbEntity
  8
0
 62
7
100
AcDbLine
 10
15.475117
 20
7.015336
 30
0.0
 11
17.375124
 21
7.015336
 31
0.0
  0
LINE
  5
2e9
100
AcDbEntity
  8
0
 62
7
100
AcDbLine
 10
15.475117
 20
7.015336
 30
0.0
 11
15.475117
 21
8.915343
 31
0.0
  0
LINE
  5
2ea
100
AcDbEntity
  8
0
 62
7
100
AcDbLine
 10
15.475117
 20
7.015336
 30
0.0
 11
15.475117
 21
8.915343
 31
0.0
  0
LINE
  5
2eb
100
AcDbEntity
  8
0
 62
7
100
AcDbLine
 10
15.475117
 20
7.015336
 30
0.0
 11
15.475117
 21
8.915343
 31
0.0
  0
LINE
  5
2ec
100
AcDbEntity
  8
0
 62
7
100
AcDbLine
 10
15.475117
 20
8.915343
 30
0.0
 11
17.375124
 21
8.915343
 31
0.0
  0
LINE
  5
2ed
100
AcDbEntity
  8
0
 62
7
100
AcDbLine
 10
15.475117
 20
8.915343
 30
0.0
 11
17.375124
 21
8.915343
 31
0.0
  0
LINE
  5
2ee
100
AcDbEntity
  8
0
 62
7
100
AcDbLine
 10
15.475117
 20
8.915343
 30
0.0
 11
17.375124
 21
8.915343
 31
0.0
  0
LINE
  5
2ef
100
AcDbEntity
  8
0
 62
7
100
AcDbLine
 10
15.475117
 20
8.915343
 30
0.0
 11
15.475117
 21
7.015336
 31
0.0
  0
LINE
  5
2f0
100
AcDbEntity
  8
0
 62
7
100
AcDbLine
 10
2.118338
 20
3.197122
 30
0.0
 11
2.118338
 21
5.097129
 31
0.0
  0
LINE
  5
2f1
100
AcDbEntity
  8
0
 62
7
100
AcDbLine
 10
2.118338
 20
3.197122
 30
0.0
 11
0.218331
 21
3.197122
 31
0.0
  0
LINE
  5
2f2
100
AcDbEntity
  8
0
 62
7
100
AcDbLine
 10
2.118338
 20
3.197122
 30
0.0
 11
0.218331
 21
3.197122
 31
0.0
  0
LINE
  5
2f3
100
AcDbEntity
  8
0
 62
7
100
AcDbLine
 10
2.118338
 20
3.197122
 30
0.0
 11
0.218331
 21
3.197122
 31
0.0
  0
LINE
  5
2f4
100
AcDbEntity
  8
0
 62
7
100
AcDbLine
 10
2.118338
 20
5.097129
 30
0.0
 11
2.118338
 21
3.197122
 31
0.0
  0
LINE
  5
2f5
100
AcDbEntity
  8
0
 62
7
100
AcDbLine
 10
2.118338
 20
5.097129
 30
0.0
 11
2.118338
 21
3.197122
 31
0.0
  0
LINE
  5
2f6
100
AcDbEntity
  8
0
 62
7
100
AcDbLine
 10
2.118338
 20
5.097129
 30
0.0
 11
2.118338
 21
3.197122
 31
0.0
  0
LINE
  5
2f7
100
AcDbEntity
  8
0
 62
7
100
AcDbLine
 10
2.118338
 20
5.097129
 30
0.0
 11
0.218331
 21
5.097129
 31
0.0
  0
LINE
  5
2f8
100
AcDbEntity
  8
0
 62
7
100
AcDbLine
 10
0.218331
 20
3.197122
 30
0.0
 11
2.118338
 21
3.197122
 31
0.0
  0
LINE
  5
2f9
100
AcDbEntity
  8
0
 62
7
100
AcDbLine
 10
0.218331
 20
3.197122
 30
0.0
 11
0.218331
 21
5.097129
 31
0.0
  0
LINE
  5
2fa
100
AcDbEntity
  8
0
 62
7
100
AcDbLine
 10
0.218331
 20
3.197122
 30
0.0
 11
0.218331
 21
5.097129
 31
0.0
  0
LINE
  5
2fb
100
AcDbEntity
  8
0
 62
7
100
AcDbLine
 10
0.218331
 20
3.197122
 30
0.0
 11
0.218331
 21
5.097129
 31
0.0
  0
LINE
  5
2fc
100
AcDbEntity
  8
0
 62
7
100
AcDbLine
 10
0.218331
 20
5.097129
 30
0.0
 11
2.118338
 21
5.097129
 31
0.0
  0
LINE
  5
2fd
100
AcDbEntity
  8
0
 62
7
100
AcDbLine
 10
0.218331
 20
5.097129
 30
0.0
 11
2.118338
 21
5.097129
 31
0.0
  0
LINE
  5
2fe
100
AcDbEntity
  8
0
 62
7
100
AcDbLine
 10
0.218331
 20
5.097129
 30
0.0
 11
2.118338
 21
5.097129
 31
0.0
  0
LINE
  5
2ff
100
AcDbEntity
  8
0
 62
7
100
AcDbLine
 10
0.218331
 20
5.097129
 30
0.0
 11
0.218331
 21
3.197122
 31
0.0
  0
LINE
  5
300
100
AcDbEntity
  8
0
 62
7
100
AcDbLine
 10
9.734496
 20
7.015666
 30
0.0
 11
9.734496
 21
8.915673
 31
0.0
  0
LINE
  5
301
100
AcDbEntity
  8
0
 62
7
100
AcDbLine
 10
9.734496
 20
7.015666
 30
0.0
 11
7.834489
 21
7.015666
 31
0.0
  0
LINE
  5
302
100
AcDbEntity
  8
0
 62
7
100
AcDbLine
 10
9.734496
 20
7.015666
 30
0.0
 11
7.834489
 21
7.015666
 31
0.0
  0
LINE
  5
303
100
AcDbEntity
  8
0
 62
7
100
AcDbLine
 10
9.734496
 20
7.015666
 30
0.0
 11
7.834489
 21
7.015666
 31
0.0
  0
LINE
  5
304
100
AcDbEntity
  8
0
 62
7
100
AcDbLine
 10
9.734496
 20
8.915673
 30
0.0
 11
9.734496
 21
7.015666
 31
0.0
  0
LINE
  5
305
100
AcDbEntity
  8
0
 62
7
100
AcDbLine
 10
9.734496
 20
8.915673
 30
0.0
 11
9.734496
 21
7.015666
 31
0.0
  0
LINE
  5
306
100
AcDbEntity
  8
0
 62
7
100
AcDbLine
 10
9.734496
 20
8.915673
 30
0.0
 11
9.734496
 21
7.015666
 31
0.0
  0
LINE
  5
307
100
AcDbEntity
  8
0
 62
7
100
AcDbLine
 10
9.734496
 20
8.915673
 30
0.0
 11
7.834489
 21
8.915673
 31
0.0
  0
LINE
  5
308
100
AcDbEntity
  8
0
 62
7
100
AcDbLine
 10
7.834489
 20
7.015666
 30
0.0
 11
9.734496
 21
7.015666
 31
0.0
  0
LINE
  5
309
100
AcDbEntity
  8
0
 62
7
100
AcDbLine
 10
7.834489
 20
7.015666
 30
0.0
 11
7.834489
 21
8.915673
 31
0.0
  0
LINE
  5
30a
100
AcDbEntity
  8
0
 62
7
100
AcDbLine
 10
7.834489
 20
7.015666
 30
0.0
 11
7.834489
 21
8.915673
 31
0.0
  0
LINE
  5
30b
100
AcDbEntity
  8
0
 62
7
100
AcDbLine
 10
7.834489
 20
7.015666
 30
0.0
 11
7.834489
 21
8.915673
 31
0.0
  0
LINE
  5
30c
100
AcDbEntity
  8
0
 62
7
100
AcDbLine
 10
7.834489
 20
8.915673
 30
0.0
 11
9.734496
 21
8.915673
 31
0.0
  0
LINE
  5
30d
100
AcDbEntity
  8
0
 62
7
100
AcDbLine
 10
7.834489
 20
8.915673
 30
0.0
 11
9.734496
 21
8.915673
 31
0.0
  0
LINE
  5
30e
100
AcDbEntity
  8
0
 62
7
100
AcDbLine
 10
7.834489
 20
8.915673
 30
0.0
 11
9.734496
 21
8.915673
 31
0.0
  0
LINE
  5
30f
100
AcDbEntity
  8
0
 62
7
100
AcDbLine
 10
7.834489
 20
8.915673
 30
0.0
 11
7.834489
 21
7.015666
 31
0.0
  0
LINE
  5
310
100
AcDbEntity
  8
0
 62
7
100
AcDbLine
 10
11.645103
 20
0.143711
 30
0.0
 11
11.645103
 21
2.043718
 31
0.0
  0
LINE
  5
311
100
AcDbEntity
  8
0
 62
7
100
AcDbLine
 10
11.645103
 20
0.143711
 30
0.0
 11
9.745096
 21
0.143711
 31
0.0
  0
LINE
  5
312
100
AcDbEntity
  8
0
 62
7
100
AcDbLine
 10
11.645103
 20
0.143711
 30
0.0
 11
9.745096
 21
0.143711
 31
0.0
  0
LINE
  5
313
100
AcDbEntity
  8
0
 62
7
100
AcDbLine
 10
11.645103
 20
0.143711
 30
0.0
 11
9.745096
 21
0.143711
 31
0.0
  0
LINE
  5
314
100
AcDbEntity
  8
0
 62
7
100
AcDbLine
 10
11.645103
 20
2.043718
 30
0.0
 11
11.645103
 21
0.143711
 31
0.0
  0
LINE
  5
315
100
AcDbEntity
  8
0
 62
7
100
AcDbLine
 10
11.645103
 20
2.043718
 30
0.0
 11
11.645103
 21
0.143711
 31
0.0
  0
LINE
  5
316
100
AcDbEntity
  8
0
 62
7
100
AcDbLine
 10
11.645103
 20
2.043718
 30
0.0
 11
11.645103
 21
0.143711
 31
0.0
  0
LINE
  5
317
100
AcDbEntity
  8
0
 62
7
100
AcDbLine
 10
11.645103
 20
2.043718
 30
0.0
 11
9.745096
 21
2.043718
 31
0.0
  0
LINE
  5
318
100
AcDbEntity
  8
0
 62
7
100
AcDbLine
 10
9.745096
 20
0.143711
 30
0.0
 11
11.645103
 21
0.143711
 31
0.0
  0
LINE
  5
319
100
AcDbEntity
  8
0
 62
7
100
AcDbLine
 10
9.745096
 20
0.143711
 30
0.0
 11
9.745096
 21
2.043718
 31
0.0
  0
LINE
  5
31a
100
AcDbEntity
  8
0
 62
7
100
AcDbLine
 10
9.745096
 20
0.143711
 30
0.0
 11
9.745096
 21
2.043718
 31
0.0
  0
LINE
  5
31b
100
AcDbEntity
  8
0
 62
7
100
AcDbLine
 10
9.745096
 20
0.143711
 30
0.0
 11
9.745096
 21
2.043718
 31
0.0
  0
LINE
  5
31c
100
AcDbEntity
  8
0
 62
7
100
AcDbLine
 10
9.745096
 20
2.043718
 30
0.0
 11
11.645103
 21
2.043718
 31
0.0
  0
LINE
  5
31d
100
AcDbEntity
  8
0
 62
7
100
AcDbLine
 10
9.745096
 20
2.043718
 30
0.0
 11
11.645103
 21
2.043718
 31
0.0
  0
LINE
  5
31e
100
AcDbEntity
  8
0
 62
7
100
AcDbLine
 10
9.745096
 20
2.043718
 30
0.0
 11
11.645103
 21
2.043718
 31
0.0
  0
LINE
  5
31f
100
AcDbEntity
  8
0
 62
7
100
AcDbLine
 10
9.745096
 20
2.043718
 30
0.0
 11
9.745096
 21
0.143711
 31
0.0
  0
LINE
  5
320
100
AcDbEntity
  8
0
 62
7
100
AcDbLine
 10
2.118338
 20
5.106929
 30
0.0
 11
2.118338
 21
7.006936
 31
0.0
  0
LINE
  5
321
100
AcDbEntity
  8
0
 62
7
100
AcDbLine
 10
2.118338
 20
5.106929
 30
0.0
 11
0.218331
 21
5.106929
 31
0.0
  0
LINE
  5
322
100
AcDbEntity
  8
0
 62
7
100
AcDbLine
 10
2.118338
 20
5.106929
 30
0.0
 11
0.218331
 21
5.106929
 31
0.0
  0
LINE
  5
323
100
AcDbEntity
  8
0
 62
7
100
AcDbLine
 10
2.118338
 20
5.106929
 30
0.0
 11
0.218331
 21
5.106929
 31
0.0
  0
LINE
  5
324
100
AcDbEntity
  8
0
 62
7
100
AcDbLine
 10
2.118338
 20
7.006936
 30
0.0
 11
2.118338
 21
5.106929
 31
0.0
  0
LINE
  5
325
100
AcDbEntity
  8
0
 62
7
100
AcDbLine
 10
2.118338
 20
7.006936
 30
0.0
 11
2.118338
 21
5.106929
 31
0.0
  0
LINE
  5
326
100
AcDbEntity
  8
0
 62
7
100
AcDbLine
 10
2.118338
 20
7.006936
 30
0.0
 11
2.118338
 21
5.106929
 31
0.0
  0
LINE
  5
327
100
AcDbEntity
  8
0
 62
7
100
AcDbLine
 10
2.118338
 20
7.006936
 30
0.0
 11
0.218331
 21
7.006936
 31
0.0
  0
LINE
  5
328
100
AcDbEntity
  8
0
 62
7
100
AcDbLine
 10
0.218331
 20
5.106929
 30
0.0
 11
2.118338
 21
5.106929
 31
0.0
  0
LINE
  5
329
100
AcDbEntity
  8
0
 62
7
100
AcDbLine
 10
0.218331
 20
5.106929
 30
0.0
 11
0.218331
 21
7.006936
 31
0.0
  0
LINE
  5
32a
100
AcDbEntity
  8
0
 62
7
100
AcDbLine
 10
0.218331
 20
5.106929
 30
0.0
 11
0.218331
 21
7.006936
 31
0.0
  0
LINE
  5
32b
100
AcDbEntity
  8
0
 62
7
100
AcDbLine
 10
0.218331
 20
5.106929
 30
0.0
 11
0.218331
 21
7.006936
 31
0.0
  0
LINE
  5
32c
100
AcDbEntity
  8
0
 62
7
100
AcDbLine
 10
0.218331
 20
7.006936
 30
0.0
 11
2.118338
 21
7.006936
 31
0.0
  0
LINE
  5
32d
100
AcDbEntity
  8
0
 62
7
100
AcDbLine
 10
0.218331
 20
7.006936
 30
0.0
 11
2.118338
 21
7.006936
 31
0.0
  0
LINE
  5
32e
100
AcDbEntity
  8
0
 62
7
100
AcDbLine
 10
0.218331
 20
7.006936
 30
0.0
 11
2.118338
 21
7.006936
 31
0.0
  0
LINE
  5
32f
100
AcDbEntity
  8
0
 62
7
100
AcDbLine
 10
0.218331
 20
7.006936
 30
0.0
 11
0.218331
 21
5.106929
 31
0.0
  0
LINE
  5
330
100
AcDbEntity
  8
0
 62
7
100
AcDbLine
 10
13.551510
 20
0.143711
 30
0.0
 11
13.551510
 21
2.043718
 31
0.0
  0
LINE
  5
331
100
AcDbEntity
  8
0
 62
7
100
AcDbLine
 10
13.551510
 20
0.143711
 30
0.0
 11
11.651503
 21
0.143711
 31
0.0
  0
LINE
  5
332
100
AcDbEntity
  8
0
 62
7
100
AcDbLine
 10
13.551510
 20
0.143711
 30
0.0
 11
11.651503
 21
0.143711
 31
0.0
  0
LINE
  5
333
100
AcDbEntity
  8
0
 62
7
100
AcDbLine
 10
13.551510
 20
0.143711
 30
0.0
 11
11.651503
 21
0.143711
 31
0.0
  0
LINE
  5
334
100
AcDbEntity
  8
0
 62
7
100
AcDbLine
 10
13.551510
 20
2.043718
 30
0.0
 11
13.551510
 21
0.143711
 31
0.0
  0
LINE
  5
335
100
AcDbEntity
  8
0
 62
7
100
AcDbLine
 10
13.551510
 20
2.043718
 30
0.0
 11
13.551510
 21
0.143711
 31
0.0
  0
LINE
  5
336
100
AcDbEntity
  8
0
 62
7
100
AcDbLine
 10
13.551510
 20
2.043718
 30
0.0
 11
13.551510
 21
0.143711
 31
0.0
  0
LINE
  5
337
100
AcDbEntity
  8
0
 62
7
100
AcDbLine
 10
13.551510
 20
2.043718
 30
0.0
 11
11.651503
 21
2.043718
 31
0.0
  0
LINE
  5
338
100
AcDbEntity
  8
0
 62
7
100
AcDbLine
 10
11.651503
 20
0.143711
 30
0.0
 11
13.551510
 21
0.143711
 31
0.0
  0
LINE
  5
339
100
AcDbEntity
  8
0
 62
7
100
AcDbLine
 10
11.651503
 20
0.143711
 30
0.0
 11
11.651503
 21
2.043718
 31
0.0
  0
LINE
  5
33a
100
AcDbEntity
  8
0
 62
7
100
AcDbLine
 10
11.651503
 20
0.143711
 30
0.0
 11
11.651503
 21
2.043718
 31
0.0
  0
LINE
  5
33b
100
AcDbEntity
  8
0
 62
7
100
AcDbLine
 10
11.651503
 20
0.143711
 30
0.0
 11
11.651503
 21
2.043718
 31
0.0
  0
LINE
  5
33c
100
AcDbEntity
  8
0
 62
7
100
AcDbLine
 10
11.651503
 20
2.043718
 30
0.0
 11
13.551510
 21
2.043718
 31
0.0
  0
LINE
  5
33d
100
AcDbEntity
  8
0
 62
7
100
AcDbLine
 10
11.651503
 20
2.043718
 30
0.0
 11
13.551510
 21
2.043718
 31
0.0
  0
LINE
  5
33e
100
AcDbEntity
  8
0
 62
7
100
AcDbLine
 10
11.651503
 20
2.043718
 30
0.0
 11
13.551510
 21
2.043718
 31
0.0
  0
LINE
  5
33f
100
AcDbEntity
  8
0
 62
7
100
AcDbLine
 10
11.651503
 20
2.043718
 30
0.0
 11
11.651503
 21
0.143711
 31
0.0
  0
LINE
  5
340
100
AcDbEntity
  8
0
 62
7
100
AcDbLine
 10
17.375124
 20
0.784913
 30
0.0
 11
17.375124
 21
2.684920
 31
0.0
  0
LINE
  5
341
100
AcDbEntity
  8
0
 62
7
100
AcDbLine
 10
17.375124
 20
0.784913
 30
0.0
 11
15.475117
 21
0.784913
 31
0.0
  0
LINE
  5
342
100
AcDbEntity
  8
0
 62
7
100
AcDbLine
 10
17.375124
 20
0.784913
 30
0.0
 11
15.475117
 21
0.784913
 31
0.0
  0
LINE
  5
343
100
AcDbEntity
  8
0
 62
7
100
AcDbLine
 10
17.375124
 20
0.784913
 30
0.0
 11
15.475117
 21
0.784913
 31
0.0
  0
LINE
  5
344
100
AcDbEntity
  8
0
 62
7
100
AcDbLine
 10
17.375124
 20
2.684920
 30
0.0
 11
17.375124
 21
0.784913
 31
0.0
  0
LINE
  5
345
100
AcDbEntity
  8
0
 62
7
100
AcDbLine
 10
17.375124
 20
2.684920
 30
0.0
 11
17.375124
 21
0.784913
 31
0.0
  0
LINE
  5
346
100
AcDbEntity
  8
0
 62
7
100
AcDbLine
 10
17.375124
 20
2.684920
 30
0.0
 11
17.375124
 21
0.784913
 31
0.0
  0
LINE
  5
347
100
AcDbEntity
  8
0
 62
7
100
AcDbLine
 10
17.375124
 20
2.684920
 30
0.0
 11
15.475117
 21
2.684920
 31
0.0
  0
LINE
  5
348
100
AcDbEntity
  8
0
 62
7
100
AcDbLine
 10
15.475117
 20
0.784913
 30
0.0
 11
17.375124
 21
0.784913
 31
0.0
  0
LINE
  5
349
100
AcDbEntity
  8
0
 62
7
100
AcDbLine
 10
15.475117
 20
0.784913
 30
0.0
 11
15.475117
 21
2.684920
 31
0.0
  0
LINE
  5
34a
100
AcDbEntity
  8
0
 62
7
100
AcDbLine
 10
15.475117
 20
0.784913
 30
0.0
 11
15.475117
 21
2.684920
 31
0.0
  0
LINE
  5
34b
100
AcDbEntity
  8
0
 62
7
100
AcDbLine
 10
15.475117
 20
0.784913
 30
0.0
 11
15.475117
 21
2.684920
 31
0.0
  0
LINE
  5
34c
100
AcDbEntity
  8
0
 62
7
100
AcDbLine
 10
15.475117
 20
2.684920
 30
0.0
 11
17.375124
 21
2.684920
 31
0.0
  0
LINE
  5
34d
100
AcDbEntity
  8
0
 62
7
100
AcDbLine
 10
15.475117
 20
2.684920
 30
0.0
 11
17.375124
 21
2.684920
 31
0.0
  0
LINE
  5
34e
100
AcDbEntity
  8
0
 62
7
100
AcDbLine
 10
15.475117
 20
2.684920
 30
0.0
 11
17.375124
 21
2.684920
 31
0.0
  0
LINE
  5
34f
100
AcDbEntity
  8
0
 62
7
100
AcDbLine
 10
15.475117
 20
2.684920
 30
0.0
 11
15.475117
 21
0.784913
 31
0.0
  0
LINE
  5
350
100
AcDbEntity
  8
0
 62
7
100
AcDbLine
 10
2.118338
 20
0.784913
 30
0.0
 11
2.118338
 21
2.684920
 31
0.0
  0
LINE
  5
351
100
AcDbEntity
  8
0
 62
7
100
AcDbLine
 10
2.118338
 20
0.784913
 30
0.0
 11
0.218331
 21
0.784913
 31
0.0
  0
LINE
  5
352
100
AcDbEntity
  8
0
 62
7
100
AcDbLine
 10
2.118338
 20
0.784913
 30
0.0
 11
0.218331
 21
0.784913
 31
0.0
  0
LINE
  5
353
100
AcDbEntity
  8
0
 62
7
100
AcDbLine
 10
2.118338
 20
0.784913
 30
0.0
 11
0.218331
 21
0.784913
 31
0.0
  0
LINE
  5
354
100
AcDbEntity
  8
0
 62
7
100
AcDbLine
 10
2.118338
 20
2.684920
 30
0.0
 11
2.118338
 21
0.784913
 31
0.0
  0
LINE
  5
355
100
AcDbEntity
  8
0
 62
7
100
AcDbLine
 10
2.118338
 20
2.684920
 30
0.0
 11
2.118338
 21
0.784913
 31
0.0
  0
LINE
  5
356
100
AcDbEntity
  8
0
 62
7
100
AcDbLine
 10
2.118338
 20
2.684920
 30
0.0
 11
2.118338
 21
0.784913
 31
0.0
  0
LINE
  5
357
100
AcDbEntity
  8
0
 62
7
100
AcDbLine
 10
2.118338
 20
2.684920
 30
0.0
 11
0.218331
 21
2.684920
 31
0.0
  0
LINE
  5
358
100
AcDbEntity
  8
0
 62
7
100
AcDbLine
 10
0.218331
 20
0.784913
 30
0.0
 11
2.118338
 21
0.784913
 31
0.0
  0
LINE
  5
359
100
AcDbEntity
  8
0
 62
7
100
AcDbLine
 10
0.218331
 20
0.784913
 30
0.0
 11
0.218331
 21
2.684920
 31
0.0
  0
LINE
  5
35a
100
AcDbEntity
  8
0
 62
7
100
AcDbLine
 10
0.218331
 20
0.784913
 30
0.0
 11
0.218331
 21
2.684920
 31
0.0
  0
LINE
  5
35b
100
AcDbEntity
  8
0
 62
7
100
AcDbLine
 10
0.218331
 20
0.784913
 30
0.0
 11
0.218331
 21
2.684920
 31
0.0
  0
LINE
  5
35c
100
AcDbEntity
  8
0
 62
7
100
AcDbLine
 10
0.218331
 20
2.684920
 30
0.0
 11
2.118338
 21
2.684920
 31
0.0
  0
LINE
  5
35d
100
AcDbEntity
  8
0
 62
7
100
AcDbLine
 10
0.218331
 20
2.684920
 30
0.0
 11
2.118338
 21
2.684920
 31
0.0
  0
LINE
  5
35e
100
AcDbEntity
  8
0
 62
7
100
AcDbLine
 10
0.218331
 20
2.684920
 30
0.0
 11
2.118338
 21
2.684920
 31
0.0
  0
LINE
  5
35f
100
AcDbEntity
  8
0
 62
7
100
AcDbLine
 10
0.218331
 20
2.684920
 30
0.0
 11
0.218331
 21
0.784913
 31
0.0
  0
LINE
  5
360
100
AcDbEntity
  8
0
 62
7
100
AcDbLine
 10
19.272961
 20
7.015336
 30
0.0
 11
19.272961
 21
8.915343
 31
0.0
  0
LINE
  5
361
100
AcDbEntity
  8
0
 62
7
100
AcDbLine
 10
19.272961
 20
7.015336
 30
0.0
 11
17.372954
 21
7.015336
 31
0.0
  0
LINE
  5
362
100
AcDbEntity
  8
0
 62
7
100
AcDbLine
 10
19.272961
 20
7.015336
 30
0.0
 11
17.372954
 21
7.015336
 31
0.0
  0
LINE
  5
363
100
AcDbEntity
  8
0
 62
7
100
AcDbLine
 10
19.272961
 20
7.015336
 30
0.0
 11
17.372954
 21
7.015336
 31
0.0
  0
LINE
  5
364
100
AcDbEntity
  8
0
 62
7
100
AcDbLine
 10
19.272961
 20
8.915343
 30
0.0
 11
19.272961
 21
7.015336
 31
0.0
  0
LINE
  5
365
100
AcDbEntity
  8
0
 62
7
100
AcDbLine
 10
19.272961
 20
8.915343
 30
0.0
 11
19.272961
 21
7.015336
 31
0.0
  0
LINE
  5
366
100
AcDbEntity
  8
0
 62
7
100
AcDbLine
 10
19.272961
 20
8.915343
 30
0.0
 11
19.272961
 21
7.015336
 31
0.0
  0
LINE
  5
367
100
AcDbEntity
  8
0
 62
7
100
AcDbLine
 10
19.272961
 20
8.915343
 30
0.0
 11
17.372954
 21
8.915343
 31
0.0
  0
LINE
  5
368
100
AcDbEntity
  8
0
 62
7
100
AcDbLine
 10
17.372954
 20
7.015336
 30
0.0
 11
19.272961
 21
7.015336
 31
0.0
  0
LINE
  5
369
100
AcDbEntity
  8
0
 62
7
100
AcDbLine
 10
17.372954
 20
7.015336
 30
0.0
 11
17.372954
 21
8.915343
 31
0.0
  0
LINE
  5
36a
100
AcDbEntity
  8
0
 62
7
100
AcDbLine
 10
17.372954
 20
7.015336
 30
0.0
 11
17.372954
 21
8.915343
 31
0.0
  0
LINE
  5
36b
100
AcDbEntity
  8
0
 62
7
100
AcDbLine
 10
17.372954
 20
7.015336
 30
0.0
 11
17.372954
 21
8.915343
 31
0.0
  0
LINE
  5
36c
100
AcDbEntity
  8
0
 62
7
100
AcDbLine
 10
17.372954
 20
8.915343
 30
0.0
 11
19.272961
 21
8.915343
 31
0.0
  0
LINE
  5
36d
100
AcDbEntity
  8
0
 62
7
100
AcDbLine
 10
17.372954
 20
8.915343
 30
0.0
 11
19.272961
 21
8.915343
 31
0.0
  0
LINE
  5
36e
100
AcDbEntity
  8
0
 62
7
100
AcDbLine
 10
17.372954
 20
8.915343
 30
0.0
 11
19.272961
 21
8.915343
 31
0.0
  0
LINE
  5
36f
100
AcDbEntity
  8
0
 62
7
100
AcDbLine
 10
17.372954
 20
8.915343
 30
0.0
 11
17.372954
 21
7.015336
 31
0.0
  0
LINE
  5
370
100
AcDbEntity
  8
0
 62
7
100
AcDbLine
 10
4.021205
 20
3.197122
 30
0.0
 11
4.021205
 21
5.097129
 31
0.0
  0
LINE
  5
371
100
AcDbEntity
  8
0
 62
7
100
AcDbLine
 10
4.021205
 20
3.197122
 30
0.0
 11
2.121198
 21
3.197122
 31
0.0
  0
LINE
  5
372
100
AcDbEntity
  8
0
 62
7
100
AcDbLine
 10
4.021205
 20
3.197122
 30
0.0
 11
2.121198
 21
3.197122
 31
0.0
  0
LINE
  5
373
100
AcDbEntity
  8
0
 62
7
100
AcDbLine
 10
4.021205
 20
3.197122
 30
0.0
 11
2.121198
 21
3.197122
 31
0.0
  0
LINE
  5
374
100
AcDbEntity
  8
0
 62
7
100
AcDbLine
 10
4.021205
 20
5.097129
 30
0.0
 11
4.021205
 21
3.197122
 31
0.0
  0
LINE
  5
375
100
AcDbEntity
  8
0
 62
7
100
AcDbLine
 10
4.021205
 20
5.097129
 30
0.0
 11
4.021205
 21
3.197122
 31
0.0
  0
LINE
  5
376
100
AcDbEntity
  8
0
 62
7
100
AcDbLine
 10
4.021205
 20
5.097129
 30
0.0
 11
4.021205
 21
3.197122
 31
0.0
  0
LINE
  5
377
100
AcDbEntity
  8
0
 62
7
100
AcDbLine
 10
4.021205
 20
5.097129
 30
0.0
 11
2.121198
 21
5.097129
 31
0.0
  0
LINE
  5
378
100
AcDbEntity
  8
0
 62
7
100
AcDbLine
 10
2.121198
 20
3.197122
 30
0.0
 11
4.021205
 21
3.197122
 31
0.0
  0
LINE
  5
379
100
AcDbEntity
  8
0
 62
7
100
AcDbLine
 10
2.121198
 20
3.197122
 30
0.0
 11
2.121198
 21
5.097129
 31
0.0
  0
LINE
  5
37a
100
AcDbEntity
  8
0
 62
7
100
AcDbLine
 10
2.121198
 20
3.197122
 30
0.0
 11
2.121198
 21
5.097129
 31
0.0
  0
LINE
  5
37b
100
AcDbEntity
  8
0
 62
7
100
AcDbLine
 10
2.121198
 20
3.197122
 30
0.0
 11
2.121198
 21
5.097129
 31
0.0
  0
LINE
  5
37c
100
AcDbEntity
  8
0
 62
7
100
AcDbLine
 10
2.121198
 20
5.097129
 30
0.0
 11
4.021205
 21
5.097129
 31
0.0
  0
LINE
  5
37d
100
AcDbEntity
  8
0
 62
7
100
AcDbLine
 10
2.121198
 20
5.097129
 30
0.0
 11
4.021205
 21
5.097129
 31
0.0
  0
LINE
  5
37e
100
AcDbEntity
  8
0
 62
7
100
AcDbLine
 10
2.121198
 20
5.097129
 30
0.0
 11
4.021205
 21
5.097129
 31
0.0
  0
LINE
  5
37f
100
AcDbEntity
  8
0
 62
7
100
AcDbLine
 10
2.121198
 20
5.097129
 30
0.0
 11
2.121198
 21
3.197122
 31
0.0
  0
LINE
  5
380
100
AcDbEntity
  8
0
 62
7
100
AcDbLine
 10
24.975582
 20
7.015336
 30
0.0
 11
24.975582
 21
8.915343
 31
0.0
  0
LINE
  5
381
100
AcDbEntity
  8
0
 62
7
100
AcDbLine
 10
24.975582
 20
7.015336
 30
0.0
 11
23.075575
 21
7.015336
 31
0.0
  0
LINE
  5
382
100
AcDbEntity
  8
0
 62
7
100
AcDbLine
 10
24.975582
 20
7.015336
 30
0.0
 11
23.075575
 21
7.015336
 31
0.0
  0
LINE
  5
383
100
AcDbEntity
  8
0
 62
7
100
AcDbLine
 10
24.975582
 20
7.015336
 30
0.0
 11
23.075575
 21
7.015336
 31
0.0
  0
LINE
  5
384
100
AcDbEntity
  8
0
 62
7
100
AcDbLine
 10
24.975582
 20
8.915343
 30
0.0
 11
24.975582
 21
7.015336
 31
0.0
  0
LINE
  5
385
100
AcDbEntity
  8
0
 62
7
100
AcDbLine
 10
24.975582
 20
8.915343
 30
0.0
 11
24.975582
 21
7.015336
 31
0.0
  0
LINE
  5
386
100
AcDbEntity
  8
0
 62
7
100
AcDbLine
 10
24.975582
 20
8.915343
 30
0.0
 11
24.975582
 21
7.015336
 31
0.0
  0
LINE
  5
387
100
AcDbEntity
  8
0
 62
7
100
AcDbLine
 10
24.975582
 20
8.915343
 30
0.0
 11
23.075575
 21
8.915343
 31
0.0
  0
LINE
  5
388
100
AcDbEntity
  8
0
 62
7
100
AcDbLine
 10
23.075575
 20
7.015336
 30
0.0
 11
24.975582
 21
7.015336
 31
0.0
  0
LINE
  5
389
100
AcDbEntity
  8
0
 62
7
100
AcDbLine
 10
23.075575
 20
7.015336
 30
0.0
 11
23.075575
 21
8.915343
 31
0.0
  0
LINE
  5
38a
100
AcDbEntity
  8
0
 62
7
100
AcDbLine
 10
23.075575
 20
7.015336
 30
0.0
 11
23.075575
 21
8.915343
 31
0.0
  0
LINE
  5
38b
100
AcDbEntity
  8
0
 62
7
100
AcDbLine
 10
23.075575
 20
7.015336
 30
0.0
 11
23.075575
 21
8.915343
 31
0.0
  0
LINE
  5
38c
100
AcDbEntity
  8
0
 62
7
100
AcDbLine
 10
23.075575
 20
8.915343
 30
0.0
 11
24.975582
 21
8.915343
 31
0.0
  0
LINE
  5
38d
100
AcDbEntity
  8
0
 62
7
100
AcDbLine
 10
23.075575
 20
8.915343
 30
0.0
 11
24.975582
 21
8.915343
 31
0.0
  0
LINE
  5
38e
100
AcDbEntity
  8
0
 62
7
100
AcDbLine
 10
23.075575
 20
8.915343
 30
0.0
 11
24.975582
 21
8.915343
 31
0.0
  0
LINE
  5
38f
100
AcDbEntity
  8
0
 62
7
100
AcDbLine
 10
23.075575
 20
8.915343
 30
0.0
 11
23.075575
 21
7.015336
 31
0.0
  0
LINE
  5
390
100
AcDbEntity
  8
0
 62
7
100
AcDbLine
 10
9.734496
 20
3.197452
 30
0.0
 11
9.734496
 21
5.097459
 31
0.0
  0
LINE
  5
391
100
AcDbEntity
  8
0
 62
7
100
AcDbLine
 10
9.734496
 20
3.197452
 30
0.0
 11
7.834489
 21
3.197452
 31
0.0
  0
LINE
  5
392
100
AcDbEntity
  8
0
 62
7
100
AcDbLine
 10
9.734496
 20
3.197452
 30
0.0
 11
7.834489
 21
3.197452
 31
0.0
  0
LINE
  5
393
100
AcDbEntity
  8
0
 62
7
100
AcDbLine
 10
9.734496
 20
3.197452
 30
0.0
 11
7.834489
 21
3.197452
 31
0.0
  0
LINE
  5
394
100
AcDbEntity
  8
0
 62
7
100
AcDbLine
 10
9.734496
 20
5.097459
 30
0.0
 11
9.734496
 21
3.197452
 31
0.0
  0
LINE
  5
395
100
AcDbEntity
  8
0
 62
7
100
AcDbLine
 10
9.734496
 20
5.097459
 30
0.0
 11
9.734496
 21
3.197452
 31
0.0
  0
LINE
  5
396
100
AcDbEntity
  8
0
 62
7
100
AcDbLine
 10
9.734496
 20
5.097459
 30
0.0
 11
9.734496
 21
3.197452
 31
0.0
  0
LINE
  5
397
100
AcDbEntity
  8
0
 62
7
100
AcDbLine
 10
9.734496
 20
5.097459
 30
0.0
 11
7.834489
 21
5.097459
 31
0.0
  0
LINE
  5
398
100
AcDbEntity
  8
0
 62
7
100
AcDbLine
 10
7.834489
 20
3.197452
 30
0.0
 11
9.734496
 21
3.197452
 31
0.0
  0
LINE
  5
399
100
AcDbEntity
  8
0
 62
7
100
AcDbLine
 10
7.834489
 20
3.197452
 30
0.0
 11
7.834489
 21
5.097459
 31
0.0
  0
LINE
  5
39a
100
AcDbEntity
  8
0
 62
7
100
AcDbLine
 10
7.834489
 20
3.197452
 30
0.0
 11
7.834489
 21
5.097459
 31
0.0
  0
LINE
  5
39b
100
AcDbEntity
  8
0
 62
7
100
AcDbLine
 10
7.834489
 20
3.197452
 30
0.0
 11
7.834489
 21
5.097459
 31
0.0
  0
LINE
  5
39c
100
AcDbEntity
  8
0
 62
7
100
AcDbLine
 10
7.834489
 20
5.097459
 30
0.0
 11
9.734496
 21
5.097459
 31
0.0
  0
LINE
  5
39d
100
AcDbEntity
  8
0
 62
7
100
AcDbLine
 10
7.834489
 20
5.097459
 30
0.0
 11
9.734496
 21
5.097459
 31
0.0
  0
LINE
  5
39e
100
AcDbEntity
  8
0
 62
7
100
AcDbLine
 10
7.834489
 20
5.097459
 30
0.0
 11
9.734496
 21
5.097459
 31
0.0
  0
LINE
  5
39f
100
AcDbEntity
  8
0
 62
7
100
AcDbLine
 10
7.834489
 20
5.097459
 30
0.0
 11
7.834489
 21
3.197452
 31
0.0
  0
LINE
  5
3a0
100
AcDbEntity
  8
0
 62
7
100
AcDbLine
 10
23.074715
 20
3.197122
 30
0.0
 11
23.074715
 21
5.097129
 31
0.0
  0
LINE
  5
3a1
100
AcDbEntity
  8
0
 62
7
100
AcDbLine
 10
23.074715
 20
3.197122
 30
0.0
 11
21.174708
 21
3.197122
 31
0.0
  0
LINE
  5
3a2
100
AcDbEntity
  8
0
 62
7
100
AcDbLine
 10
23.074715
 20
3.197122
 30
0.0
 11
21.174708
 21
3.197122
 31
0.0
  0
LINE
  5
3a3
100
AcDbEntity
  8
0
 62
7
100
AcDbLine
 10
23.074715
 20
3.197122
 30
0.0
 11
21.174708
 21
3.197122
 31
0.0
  0
LINE
  5
3a4
100
AcDbEntity
  8
0
 62
7
100
AcDbLine
 10
23.074715
 20
5.097129
 30
0.0
 11
23.074715
 21
3.197122
 31
0.0
  0
LINE
  5
3a5
100
AcDbEntity
  8
0
 62
7
100
AcDbLine
 10
23.074715
 20
5.097129
 30
0.0
 11
23.074715
 21
3.197122
 31
0.0
  0
LINE
  5
3a6
100
AcDbEntity
  8
0
 62
7
100
AcDbLine
 10
23.074715
 20
5.097129
 30
0.0
 11
23.074715
 21
3.197122
 31
0.0
  0
LINE
  5
3a7
100
AcDbEntity
  8
0
 62
7
100
AcDbLine
 10
23.074715
 20
5.097129
 30
0.0
 11
21.174708
 21
5.097129
 31
0.0
  0
LINE
  5
3a8
100
AcDbEntity
  8
0
 62
7
100
AcDbLine
 10
21.174708
 20
3.197122
 30
0.0
 11
23.074715
 21
3.197122
 31
0.0
  0
LINE
  5
3a9
100
AcDbEntity
  8
0
 62
7
100
AcDbLine
 10
21.174708
 20
3.197122
 30
0.0
 11
21.174708
 21
5.097129
 31
0.0
  0
LINE
  5
3aa
100
AcDbEntity
  8
0
 62
7
100
AcDbLine
 10
21.174708
 20
3.197122
 30
0.0
 11
21.174708
 21
5.097129
 31
0.0
  0
LINE
  5
3ab
100
AcDbEntity
  8
0
 62
7
100
AcDbLine
 10
21.174708
 20
3.197122
 30
0.0
 11
21.174708
 21
5.097129
 31
0.0
  0
LINE
  5
3ac
100
AcDbEntity
  8
0
 62
7
100
AcDbLine
 10
21.174708
 20
5.097129
 30
0.0
 11
23.074715
 21
5.097129
 31
0.0
  0
LINE
  5
3ad
100
AcDbEntity
  8
0
 62
7
100
AcDbLine
 10
21.174708
 20
5.097129
 30
0.0
 11
23.074715
 21
5.097129
 31
0.0
  0
LINE
  5
3ae
100
AcDbEntity
  8
0
 62
7
100
AcDbLine
 10
21.174708
 20
5.097129
 30
0.0
 11
23.074715
 21
5.097129
 31
0.0
  0
LINE
  5
3af
100
AcDbEntity
  8
0
 62
7
100
AcDbLine
 10
21.174708
 20
5.097129
 30
0.0
 11
21.174708
 21
3.197122
 31
0.0
  0
LINE
  5
3b0
100
AcDbEntity
  8
0
 62
7
100
AcDbLine
 10
3.485513
 20
8.915473
 30
0.0
 11
0.005700
 21
8.915473
 31
0.0
  0
LINE
  5
3b1
100
AcDbEntity
  8
0
 62
7
100
AcDbLine
 10
3.485513
 20
10.871280
 30
0.0
 11
3.485513
 21
8.915473
 31
0.0
  0
LINE
  5
3b2
100
AcDbEntity
  8
0
 62
7
100
AcDbLine
 10
8.809652
 20
10.554029
 30
0.0
 11
8.809652
 21
10.554029
 31
0.0
  0
SPLINE
  5
3b3
100
AcDbEntity
  8
0
 62
7
100
AcDbSpline
 70
0
 71
3
 72
25
 73
21
 74
19
 40
0.000000
 40
0.000000
 40
0.000000
 40
0.000000
 40
0.196738
 40
0.389973
 40
0.586712
 40
0.783450
 40
0.976685
 40
1.173423
 40
1.370161
 40
1.563396
 40
1.760135
 40
1.956873
 40
2.150108
 40
2.346846
 40
2.478053
 40
2.608175
 40
2.739382
 40
2.870590
 40
3.000711
 40
3.131918
 40
3.131918
 40
3.131918
 40
3.131918
 10
8.809652
 20
10.554029
 30
0.0
 10
8.743650
 20
10.546413
 30
0.0
 10
8.612819
 20
10.531316
 30
0.0
 10
8.446095
 20
10.415508
 30
0.0
 10
8.334382
 20
10.249925
 30
0.0
 10
8.295446
 20
10.052681
 30
0.0
 10
8.334565
 20
9.856102
 30
0.0
 10
8.445896
 20
9.689046
 30
0.0
 10
8.612929
 20
9.577720
 30
0.0
 10
8.809593
 20
9.538601
 30
0.0
 10
9.006517
 20
9.577532
 30
0.0
 10
9.173288
 20
9.689267
 30
0.0
 10
9.284715
 20
9.855910
 30
0.0
 10
9.319618
 20
10.031029
 30
0.0
 10
9.299328
 20
10.184006
 30
0.0
 10
9.248705
 20
10.306261
 30
0.0
 10
9.168163
 20
10.411428
 30
0.0
 10
9.063128
 20
10.491442
 30
0.0
 10
8.940873
 20
10.544033
 30
0.0
 10
8.853513
 20
10.550688
 30
0.0
 10
8.809652
 20
10.554029
 30
0.0
 11
8.809652
 21
10.554029
 31
0.0
 11
8.616737
 21
10.515432
 31
0.0
 11
8.456068
 21
10.408076
 31
0.0
 11
8.346584
 21
10.244616
 31
0.0
 11
8.308418
 21
10.051615
 31
0.0
 11
8.346116
 21
9.862094
 31
0.0
 11
8.455235
 21
9.698390
 31
0.0
 11
8.618939
 21
9.589270
 31
0.0
 11
8.808461
 21
9.551572
 31
0.0
 11
9.001462
 21
9.589738
 31
0.0
 11
9.164921
 21
9.699223
 31
0.0
 11
9.272277
 21
9.859892
 31
0.0
 11
9.310874
 21
10.052807
 31
0.0
 11
9.293702
 21
10.182886
 31
0.0
 11
9.243907
 21
10.303102
 31
0.0
 11
9.164070
 21
10.407224
 31
0.0
 11
9.059948
 21
10.487061
 31
0.0
 11
8.939731
 21
10.536857
 31
0.0
 11
8.809652
 21
10.554029
 31
0.0
  0
LINE
  5
3b4
100
AcDbEntity
  8
0
 62
7
100
AcDbLine
 10
16.450231
 20
10.555999
 30
0.0
 11
16.450231
 21
10.555999
 31
0.0
  0
LINE
  5
3b5
100
AcDbEntity
  8
0
 62
7
100
AcDbLine
 10
15.956959
 20
0.635042
 30
0.0
 11
25.129592
 21
0.635042
 31
0.0
  0
LINE
  5
3b6
100
AcDbEntity
  8
0
 62
7
100
AcDbLine
 10
9.649935
 20
0.229441
 30
0.0
 11
9.650736
 21
0.000040
 31
0.0
  0
LINE
  5
3b7
100
AcDbEntity
  8
0
 62
7
100
AcDbLine
 10
15.550557
 20
0.000040
 30
0.0
 11
15.551357
 21
0.229441
 31
0.0
  0
SPLINE
  5
3b8
100
AcDbEntity
  8
0
 62
7
100
AcDbSpline
 70
0
 71
3
 72
22
 73
18
 74
16
 40
0.000000
 40
0.000000
 40
0.000000
 40
0.000000
 40
0.197637
 40
0.391755
 40
0.589392
 40
0.787029
 40
0.981147
 40
1.178784
 40
1.376421
 40
1.570539
 40
1.768176
 40
1.965814
 40
2.159931
 40
2.357569
 40
2.620834
 40
2.876292
 40
3.139557
 40
3.139557
 40
3.139557
 40
3.139557
 10
16.450231
 20
10.555999
 30
0.0
 10
16.383926
 20
10.548348
 30
0.0
 10
16.252498
 20
10.533182
 30
0.0
 10
16.085012
 20
10.416845
 30
0.0
 10
15.972788
 20
10.250505
 30
0.0
 10
15.933674
 20
10.052360
 30
0.0
 10
15.972972
 20
9.854883
 30
0.0
 10
16.084812
 20
9.687064
 30
0.0
 10
16.252608
 20
9.575230
 30
0.0
 10
16.450172
 20
9.535931
 30
0.0
 10
16.647991
 20
9.575044
 30
0.0
 10
16.815544
 20
9.687273
 30
0.0
 10
16.927403
 20
9.854741
 30
0.0
 10
16.971590
 20
10.074564
 30
0.0
 10
16.906471
 20
10.314531
 30
0.0
 10
16.713867
 20
10.514868
 30
0.0
 10
16.538987
 20
10.542152
 30
0.0
 10
16.450231
 20
10.555999
 30
0.0
 11
16.450231
 21
10.555999
 31
0.0
 11
16.256434
 21
10.517225
 31
0.0
 11
16.095031
 21
10.409379
 31
0.0
 11
15.985046
 21
10.245173
 31
0.0
 11
15.946706
 21
10.051290
 31
0.0
 11
15.984576
 21
9.860902
 31
0.0
 11
16.094194
 21
9.696450
 31
0.0
 11
16.258646
 21
9.586833
 31
0.0
 11
16.449034
 21
9.548962
 31
0.0
 11
16.642916
 21
9.587303
 31
0.0
 11
16.807123
 21
9.697287
 31
0.0
 11
16.914969
 21
9.858691
 31
0.0
 11
16.953742
 21
10.052487
 31
0.0
 11
16.884998
 21
10.306619
 31
0.0
 11
16.704363
 21
10.487255
 31
0.0
 11
16.450231
 21
10.555999
 31
0.0
  0
LINE
  5
3b9
100
AcDbEntity
  8
0
 62
7
100
AcDbLine
 10
9.244334
 20
0.635042
 30
0.0
 11
0.002500
 21
0.635042
 31
0.0
  0
LINE
  5
3ba
100
AcDbEntity
  8
0
 62
7
100
AcDbLine
 10
9.650736
 20
0.000040
 30
0.0
 11
15.550557
 21
0.000040
 31
0.0
  0
LINE
  5
3bb
100
AcDbEntity
  8
0
 62
7
100
AcDbLine
 10
25.129592
 20
0.635042
 30
0.0
 11
25.129592
 21
10.871280
 31
0.0
  0
SPLINE
  5
3bc
100
AcDbEntity
  8
0
 62
7
100
AcDbSpline
 70
0
 71
3
 72
13
 73
9
 74
7
 40
0.000000
 40
0.000000
 40
0.000000
 40
0.000000
 40
0.106176
 40
0.211474
 40
0.317650
 40
0.423826
 40
0.529124
 40
0.635300
 40
0.635300
 40
0.635300
 40
0.635300
 10
9.649935
 20
0.229441
 30
0.0
 10
9.647232
 20
0.264936
 30
0.0
 10
9.641846
 20
0.335634
 30
0.0
 10
9.599289
 20
0.434536
 30
0.0
 10
9.534541
 20
0.519648
 30
0.0
 10
9.449429
 20
0.584395
 30
0.0
 10
9.350527
 20
0.626953
 30
0.0
 10
9.279830
 20
0.632338
 30
0.0
 10
9.244334
 20
0.635042
 30
0.0
 11
9.649935
 21
0.229441
 31
0.0
 11
9.636039
 21
0.334704
 31
0.0
 11
9.595744
 21
0.431986
 31
0.0
 11
9.531138
 21
0.516244
 31
0.0
 11
9.446879
 21
0.580851
 31
0.0
 11
9.349597
 21
0.621146
 31
0.0
 11
9.244334
 21
0.635042
 31
0.0
  0
LINE
  5
3bd
100
AcDbEntity
  8
0
 62
7
100
AcDbLine
 10
0.002500
 20
10.871280
 30
0.0
 11
25.129592
 21
10.871280
 31
0.0
  0
LINE
  5
3be
100
AcDbEntity
  8
0
 62
7
100
AcDbLine
 10
0.002500
 20
0.635042
 30
0.0
 11
0.002500
 21
10.871280
 31
0.0
  0
LINE
  5
3bf
100
AcDbEntity
  8
0
 62
7
100
AcDbLine
 10
15.714158
 20
3.436253
 30
0.0
 11
17.136563
 21
3.436253
 31
0.0
  0
LINE
  5
3c0
100
AcDbEntity
  8
0
 62
7
100
AcDbLine
 10
17.136563
 20
3.436253
 30
0.0
 11
17.136563
 21
4.858658
 31
0.0
  0
LINE
  5
3c1
100
AcDbEntity
  8
0
 62
7
100
AcDbLine
 10
17.136563
 20
4.858658
 30
0.0
 11
15.714158
 21
4.858658
 31
0.0
  0
LINE
  5
3c2
100
AcDbEntity
  8
0
 62
7
100
AcDbLine
 10
15.714158
 20
4.858658
 30
0.0
 11
15.714158
 21
3.436253
 31
0.0
  0
LINE
  5
3c3
100
AcDbEntity
  8
0
 62
7
100
AcDbLine
 10
15.714158
 20
5.346060
 30
0.0
 11
17.136563
 21
5.346060
 31
0.0
  0
LINE
  5
3c4
100
AcDbEntity
  8
0
 62
7
100
AcDbLine
 10
17.136563
 20
5.346060
 30
0.0
 11
17.136563
 21
6.768465
 31
0.0
  0
LINE
  5
3c5
100
AcDbEntity
  8
0
 62
7
100
AcDbLine
 10
17.136563
 20
6.768465
 30
0.0
 11
15.714158
 21
6.768465
 31
0.0
  0
LINE
  5
3c6
100
AcDbEntity
  8
0
 62
7
100
AcDbLine
 10
15.714158
 20
6.768465
 30
0.0
 11
15.714158
 21
5.346060
 31
0.0
  0
LINE
  5
3c7
100
AcDbEntity
  8
0
 62
7
100
AcDbLine
 10
6.165993
 20
3.436253
 30
0.0
 11
7.588398
 21
3.436253
 31
0.0
  0
LINE
  5
3c8
100
AcDbEntity
  8
0
 62
7
100
AcDbLine
 10
7.588398
 20
3.436253
 30
0.0
 11
7.588398
 21
4.858658
 31
0.0
  0
LINE
  5
3c9
100
AcDbEntity
  8
0
 62
7
100
AcDbLine
 10
7.588398
 20
4.858658
 30
0.0
 11
6.165993
 21
4.858658
 31
0.0
  0
LINE
  5
3ca
100
AcDbEntity
  8
0
 62
7
100
AcDbLine
 10
6.165993
 20
4.858658
 30
0.0
 11
6.165993
 21
3.436253
 31
0.0
  0
LINE
  5
3cb
100
AcDbEntity
  8
0
 62
7
100
AcDbLine
 10
19.512872
 20
5.346060
 30
0.0
 11
20.935277
 21
5.346060
 31
0.0
  0
LINE
  5
3cc
100
AcDbEntity
  8
0
 62
7
100
AcDbLine
 10
20.935277
 20
5.346060
 30
0.0
 11
20.935277
 21
6.768465
 31
0.0
  0
LINE
  5
3cd
100
AcDbEntity
  8
0
 62
7
100
AcDbLine
 10
20.935277
 20
6.768465
 30
0.0
 11
19.512872
 21
6.768465
 31
0.0
  0
LINE
  5
3ce
100
AcDbEntity
  8
0
 62
7
100
AcDbLine
 10
19.512872
 20
6.768465
 30
0.0
 11
19.512872
 21
5.346060
 31
0.0
  0
LINE
  5
3cf
100
AcDbEntity
  8
0
 62
7
100
AcDbLine
 10
17.611995
 20
1.024044
 30
0.0
 11
19.034400
 21
1.024044
 31
0.0
  0
LINE
  5
3d0
100
AcDbEntity
  8
0
 62
7
100
AcDbLine
 10
19.034400
 20
1.024044
 30
0.0
 11
19.034400
 21
2.446449
 31
0.0
  0
LINE
  5
3d1
100
AcDbEntity
  8
0
 62
7
100
AcDbLine
 10
19.034400
 20
2.446449
 30
0.0
 11
17.611995
 21
2.446449
 31
0.0
  0
LINE
  5
3d2
100
AcDbEntity
  8
0
 62
7
100
AcDbLine
 10
17.611995
 20
2.446449
 30
0.0
 11
17.611995
 21
1.024044
 31
0.0
  0
LINE
  5
3d3
100
AcDbEntity
  8
0
 62
7
100
AcDbLine
 10
4.263116
 20
5.346060
 30
0.0
 11
5.685521
 21
5.346060
 31
0.0
  0
LINE
  5
3d4
100
AcDbEntity
  8
0
 62
7
100
AcDbLine
 10
5.685521
 20
5.346060
 30
0.0
 11
5.685521
 21
6.768465
 31
0.0
  0
LINE
  5
3d5
100
AcDbEntity
  8
0
 62
7
100
AcDbLine
 10
5.685521
 20
6.768465
 30
0.0
 11
4.263116
 21
6.768465
 31
0.0
  0
LINE
  5
3d6
100
AcDbEntity
  8
0
 62
7
100
AcDbLine
 10
4.263116
 20
6.768465
 30
0.0
 11
4.263116
 21
5.346060
 31
0.0
  0
LINE
  5
3d7
100
AcDbEntity
  8
0
 62
7
100
AcDbLine
 10
2.360239
 20
5.346060
 30
0.0
 11
3.782644
 21
5.346060
 31
0.0
  0
LINE
  5
3d8
100
AcDbEntity
  8
0
 62
7
100
AcDbLine
 10
3.782644
 20
5.346060
 30
0.0
 11
3.782644
 21
6.768465
 31
0.0
  0
LINE
  5
3d9
100
AcDbEntity
  8
0
 62
7
100
AcDbLine
 10
3.782644
 20
6.768465
 30
0.0
 11
2.360239
 21
6.768465
 31
0.0
  0
LINE
  5
3da
100
AcDbEntity
  8
0
 62
7
100
AcDbLine
 10
2.360239
 20
6.768465
 30
0.0
 11
2.360239
 21
5.346060
 31
0.0
  0
LINE
  5
3db
100
AcDbEntity
  8
0
 62
7
100
AcDbLine
 10
19.512872
 20
3.436253
 30
0.0
 11
20.935277
 21
3.436253
 31
0.0
  0
LINE
  5
3dc
100
AcDbEntity
  8
0
 62
7
100
AcDbLine
 10
20.935277
 20
3.436253
 30
0.0
 11
20.935277
 21
4.858658
 31
0.0
  0
LINE
  5
3dd
100
AcDbEntity
  8
0
 62
7
100
AcDbLine
 10
20.935277
 20
4.858658
 30
0.0
 11
19.512872
 21
4.858658
 31
0.0
  0
LINE
  5
3de
100
AcDbEntity
  8
0
 62
7
100
AcDbLine
 10
19.512872
 20
4.858658
 30
0.0
 11
19.512872
 21
3.436253
 31
0.0
  0
LINE
  5
3df
100
AcDbEntity
  8
0
 62
7
100
AcDbLine
 10
13.794951
 20
0.382841
 30
0.0
 11
15.217356
 21
0.382841
 31
0.0
  0
LINE
  5
3e0
100
AcDbEntity
  8
0
 62
7
100
AcDbLine
 10
15.217356
 20
0.382841
 30
0.0
 11
15.217356
 21
1.805247
 31
0.0
  0
LINE
  5
3e1
100
AcDbEntity
  8
0
 62
7
100
AcDbLine
 10
15.217356
 20
1.805247
 30
0.0
 11
13.794951
 21
1.805247
 31
0.0
  0
LINE
  5
3e2
100
AcDbEntity
  8
0
 62
7
100
AcDbLine
 10
13.794951
 20
1.805247
 30
0.0
 11
13.794951
 21
0.382841
 31
0.0
  0
LINE
  5
3e3
100
AcDbEntity
  8
0
 62
7
100
AcDbLine
 10
4.263116
 20
7.254467
 30
0.0
 11
5.685521
 21
7.254467
 31
0.0
  0
LINE
  5
3e4
100
AcDbEntity
  8
0
 62
7
100
AcDbLine
 10
5.685521
 20
7.254467
 30
0.0
 11
5.685521
 21
8.676872
 31
0.0
  0
LINE
  5
3e5
100
AcDbEntity
  8
0
 62
7
100
AcDbLine
 10
5.685521
 20
8.676872
 30
0.0
 11
4.263116
 21
8.676872
 31
0.0
  0
LINE
  5
3e6
100
AcDbEntity
  8
0
 62
7
100
AcDbLine
 10
4.263116
 20
8.676872
 30
0.0
 11
4.263116
 21
7.254467
 31
0.0
  0
LINE
  5
3e7
100
AcDbEntity
  8
0
 62
7
100
AcDbLine
 10
23.314616
 20
3.436253
 30
0.0
 11
24.737021
 21
3.436253
 31
0.0
  0
LINE
  5
3e8
100
AcDbEntity
  8
0
 62
7
100
AcDbLine
 10
24.737021
 20
3.436253
 30
0.0
 11
24.737021
 21
4.858658
 31
0.0
  0
LINE
  5
3e9
100
AcDbEntity
  8
0
 62
7
100
AcDbLine
 10
24.737021
 20
4.858658
 30
0.0
 11
23.314616
 21
4.858658
 31
0.0
  0
LINE
  5
3ea
100
AcDbEntity
  8
0
 62
7
100
AcDbLine
 10
23.314616
 20
4.858658
 30
0.0
 11
23.314616
 21
3.436253
 31
0.0
  0
LINE
  5
3eb
100
AcDbEntity
  8
0
 62
7
100
AcDbLine
 10
8.073530
 20
1.024374
 30
0.0
 11
9.495935
 21
1.024374
 31
0.0
  0
LINE
  5
3ec
100
AcDbEntity
  8
0
 62
7
100
AcDbLine
 10
9.495935
 20
1.024374
 30
0.0
 11
9.495935
 21
2.446779
 31
0.0
  0
LINE
  5
3ed
100
AcDbEntity
  8
0
 62
7
100
AcDbLine
 10
9.495935
 20
2.446779
 30
0.0
 11
8.073530
 21
2.446779
 31
0.0
  0
LINE
  5
3ee
100
AcDbEntity
  8
0
 62
7
100
AcDbLine
 10
8.073530
 20
2.446779
 30
0.0
 11
8.073530
 21
1.024374
 31
0.0
  0
LINE
  5
3ef
100
AcDbEntity
  8
0
 62
7
100
AcDbLine
 10
0.457372
 20
7.254467
 30
0.0
 11
1.879777
 21
7.254467
 31
0.0
  0
LINE
  5
3f0
100
AcDbEntity
  8
0
 62
7
100
AcDbLine
 10
1.879777
 20
7.254467
 30
0.0
 11
1.879777
 21
8.676872
 31
0.0
  0
LINE
  5
3f1
100
AcDbEntity
  8
0
 62
7
100
AcDbLine
 10
1.879777
 20
8.676872
 30
0.0
 11
0.457372
 21
8.676872
 31
0.0
  0
LINE
  5
3f2
100
AcDbEntity
  8
0
 62
7
100
AcDbLine
 10
0.457372
 20
8.676872
 30
0.0
 11
0.457372
 21
7.254467
 31
0.0
  0
LINE
  5
3f3
100
AcDbEntity
  8
0
 62
7
100
AcDbLine
 10
23.314616
 20
5.346060
 30
0.0
 11
24.737021
 21
5.346060
 31
0.0
  0
LINE
  5
3f4
100
AcDbEntity
  8
0
 62
7
100
AcDbLine
 10
24.737021
 20
5.346060
 30
0.0
 11
24.737021
 21
6.768465
 31
0.0
  0
LINE
  5
3f5
100
AcDbEntity
  8
0
 62
7
100
AcDbLine
 10
24.737021
 20
6.768465
 30
0.0
 11
23.314616
 21
6.768465
 31
0.0
  0
LINE
  5
3f6
100
AcDbEntity
  8
0
 62
7
100
AcDbLine
 10
23.314616
 20
6.768465
 30
0.0
 11
23.314616
 21
5.346060
 31
0.0
  0
LINE
  5
3f7
100
AcDbEntity
  8
0
 62
7
100
AcDbLine
 10
19.512872
 20
1.024044
 30
0.0
 11
20.935277
 21
1.024044
 31
0.0
  0
LINE
  5
3f8
100
AcDbEntity
  8
0
 62
7
100
AcDbLine
 10
20.935277
 20
1.024044
 30
0.0
 11
20.935277
 21
2.446449
 31
0.0
  0
LINE
  5
3f9
100
AcDbEntity
  8
0
 62
7
100
AcDbLine
 10
20.935277
 20
2.446449
 30
0.0
 11
19.512872
 21
2.446449
 31
0.0
  0
LINE
  5
3fa
100
AcDbEntity
  8
0
 62
7
100
AcDbLine
 10
19.512872
 20
2.446449
 30
0.0
 11
19.512872
 21
1.024044
 31
0.0
  0
LINE
  5
3fb
100
AcDbEntity
  8
0
 62
7
100
AcDbLine
 10
17.611995
 20
3.436253
 30
0.0
 11
19.034400
 21
3.436253
 31
0.0
  0
LINE
  5
3fc
100
AcDbEntity
  8
0
 62
7
100
AcDbLine
 10
19.034400
 20
3.436253
 30
0.0
 11
19.034400
 21
4.858658
 31
0.0
  0
LINE
  5
3fd
100
AcDbEntity
  8
0
 62
7
100
AcDbLine
 10
19.034400
 20
4.858658
 30
0.0
 11
17.611995
 21
4.858658
 31
0.0
  0
LINE
  5
3fe
100
AcDbEntity
  8
0
 62
7
100
AcDbLine
 10
17.611995
 20
4.858658
 30
0.0
 11
17.611995
 21
3.436253
 31
0.0
  0
LINE
  5
3ff
100
AcDbEntity
  8
0
 62
7
100
AcDbLine
 10
2.360239
 20
1.024044
 30
0.0
 11
3.782644
 21
1.024044
 31
0.0
  0
LINE
  5
400
100
AcDbEntity
  8
0
 62
7
100
AcDbLine
 10
3.782644
 20
1.024044
 30
0.0
 11
3.782644
 21
2.446449
 31
0.0
  0
LINE
  5
401
100
AcDbEntity
  8
0
 62
7
100
AcDbLine
 10
3.782644
 20
2.446449
 30
0.0
 11
2.360239
 21
2.446449
 31
0.0
  0
LINE
  5
402
100
AcDbEntity
  8
0
 62
7
100
AcDbLine
 10
2.360239
 20
2.446449
 30
0.0
 11
2.360239
 21
1.024044
 31
0.0
  0
LINE
  5
403
100
AcDbEntity
  8
0
 62
7
100
AcDbLine
 10
23.314616
 20
1.024044
 30
0.0
 11
24.737021
 21
1.024044
 31
0.0
  0
LINE
  5
404
100
AcDbEntity
  8
0
 62
7
100
AcDbLine
 10
24.737021
 20
1.024044
 30
0.0
 11
24.737021
 21
2.446449
 31
0.0
  0
LINE
  5
405
100
AcDbEntity
  8
0
 62
7
100
AcDbLine
 10
24.737021
 20
2.446449
 30
0.0
 11
23.314616
 21
2.446449
 31
0.0
  0
LINE
  5
406
100
AcDbEntity
  8
0
 62
7
100
AcDbLine
 10
23.314616
 20
2.446449
 30
0.0
 11
23.314616
 21
1.024044
 31
0.0
  0
LINE
  5
407
100
AcDbEntity
  8
0
 62
7
100
AcDbLine
 10
21.413749
 20
5.346060
 30
0.0
 11
22.836154
 21
5.346060
 31
0.0
  0
LINE
  5
408
100
AcDbEntity
  8
0
 62
7
100
AcDbLine
 10
22.836154
 20
5.346060
 30
0.0
 11
22.836154
 21
6.768465
 31
0.0
  0
LINE
  5
409
100
AcDbEntity
  8
0
 62
7
100
AcDbLine
 10
22.836154
 20
6.768465
 30
0.0
 11
21.413749
 21
6.768465
 31
0.0
  0
LINE
  5
40a
100
AcDbEntity
  8
0
 62
7
100
AcDbLine
 10
21.413749
 20
6.768465
 30
0.0
 11
21.413749
 21
5.346060
 31
0.0
  0
LINE
  5
40b
100
AcDbEntity
  8
0
 62
7
100
AcDbLine
 10
4.263116
 20
1.024044
 30
0.0
 11
5.685521
 21
1.024044
 31
0.0
  0
LINE
  5
40c
100
AcDbEntity
  8
0
 62
7
100
AcDbLine
 10
5.685521
 20
1.024044
 30
0.0
 11
5.685521
 21
2.446449
 31
0.0
  0
LINE
  5
40d
100
AcDbEntity
  8
0
 62
7
100
AcDbLine
 10
5.685521
 20
2.446449
 30
0.0
 11
4.263116
 21
2.446449
 31
0.0
  0
LINE
  5
40e
100
AcDbEntity
  8
0
 62
7
100
AcDbLine
 10
4.263116
 20
2.446449
 30
0.0
 11
4.263116
 21
1.024044
 31
0.0
  0
LINE
  5
40f
100
AcDbEntity
  8
0
 62
7
100
AcDbLine
 10
21.413749
 20
1.024044
 30
0.0
 11
22.836154
 21
1.024044
 31
0.0
  0
LINE
  5
410
100
AcDbEntity
  8
0
 62
7
100
AcDbLine
 10
22.836154
 20
1.024044
 30
0.0
 11
22.836154
 21
2.446449
 31
0.0
  0
LINE
  5
411
100
AcDbEntity
  8
0
 62
7
100
AcDbLine
 10
22.836154
 20
2.446449
 30
0.0
 11
21.413749
 21
2.446449
 31
0.0
  0
LINE
  5
412
100
AcDbEntity
  8
0
 62
7
100
AcDbLine
 10
21.413749
 20
2.446449
 30
0.0
 11
21.413749
 21
1.024044
 31
0.0
  0
LINE
  5
413
100
AcDbEntity
  8
0
 62
7
100
AcDbLine
 10
4.263116
 20
3.436253
 30
0.0
 11
5.685521
 21
3.436253
 31
0.0
  0
LINE
  5
414
100
AcDbEntity
  8
0
 62
7
100
AcDbLine
 10
5.685521
 20
3.436253
 30
0.0
 11
5.685521
 21
4.858658
 31
0.0
  0
LINE
  5
415
100
AcDbEntity
  8
0
 62
7
100
AcDbLine
 10
5.685521
 20
4.858658
 30
0.0
 11
4.263116
 21
4.858658
 31
0.0
  0
LINE
  5
416
100
AcDbEntity
  8
0
 62
7
100
AcDbLine
 10
4.263116
 20
4.858658
 30
0.0
 11
4.263116
 21
3.436253
 31
0.0
  0
LINE
  5
417
100
AcDbEntity
  8
0
 62
7
100
AcDbLine
 10
6.165993
 20
7.254467
 30
0.0
 11
7.588398
 21
7.254467
 31
0.0
  0
LINE
  5
418
100
AcDbEntity
  8
0
 62
7
100
AcDbLine
 10
7.588398
 20
7.254467
 30
0.0
 11
7.588398
 21
8.676872
 31
0.0
  0
LINE
  5
419
100
AcDbEntity
  8
0
 62
7
100
AcDbLine
 10
7.588398
 20
8.676872
 30
0.0
 11
6.165993
 21
8.676872
 31
0.0
  0
LINE
  5
41a
100
AcDbEntity
  8
0
 62
7
100
AcDbLine
 10
6.165993
 20
8.676872
 30
0.0
 11
6.165993
 21
7.254467
 31
0.0
  0
LINE
  5
41b
100
AcDbEntity
  8
0
 62
7
100
AcDbLine
 10
6.165993
 20
1.024044
 30
0.0
 11
7.588398
 21
1.024044
 31
0.0
  0
LINE
  5
41c
100
AcDbEntity
  8
0
 62
7
100
AcDbLine
 10
7.588398
 20
1.024044
 30
0.0
 11
7.588398
 21
2.446449
 31
0.0
  0
LINE
  5
41d
100
AcDbEntity
  8
0
 62
7
100
AcDbLine
 10
7.588398
 20
2.446449
 30
0.0
 11
6.165993
 21
2.446449
 31
0.0
  0
LINE
  5
41e
100
AcDbEntity
  8
0
 62
7
100
AcDbLine
 10
6.165993
 20
2.446449
 30
0.0
 11
6.165993
 21
1.024044
 31
0.0
  0
LINE
  5
41f
100
AcDbEntity
  8
0
 62
7
100
AcDbLine
 10
19.512872
 20
7.254467
 30
0.0
 11
20.935277
 21
7.254467
 31
0.0
  0
LINE
  5
420
100
AcDbEntity
  8
0
 62
7
100
AcDbLine
 10
20.935277
 20
7.254467
 30
0.0
 11
20.935277
 21
8.676872
 31
0.0
  0
LINE
  5
421
100
AcDbEntity
  8
0
 62
7
100
AcDbLine
 10
20.935277
 20
8.676872
 30
0.0
 11
19.512872
 21
8.676872
 31
0.0
  0
LINE
  5
422
100
AcDbEntity
  8
0
 62
7
100
AcDbLine
 10
19.512872
 20
8.676872
 30
0.0
 11
19.512872
 21
7.254467
 31
0.0
  0
LINE
  5
423
100
AcDbEntity
  8
0
 62
7
100
AcDbLine
 10
17.611995
 20
5.346060
 30
0.0
 11
19.034400
 21
5.346060
 31
0.0
  0
LINE
  5
424
100
AcDbEntity
  8
0
 62
7
100
AcDbLine
 10
19.034400
 20
5.346060
 30
0.0
 11
19.034400
 21
6.768465
 31
0.0
  0
LINE
  5
425
100
AcDbEntity
  8
0
 62
7
100
AcDbLine
 10
19.034400
 20
6.768465
 30
0.0
 11
17.611995
 21
6.768465
 31
0.0
  0
LINE
  5
426
100
AcDbEntity
  8
0
 62
7
100
AcDbLine
 10
17.611995
 20
6.768465
 30
0.0
 11
17.611995
 21
5.346060
 31
0.0
  0
LINE
  5
427
100
AcDbEntity
  8
0
 62
7
100
AcDbLine
 10
8.073530
 20
5.346390
 30
0.0
 11
9.495935
 21
5.346390
 31
0.0
  0
LINE
  5
428
100
AcDbEntity
  8
0
 62
7
100
AcDbLine
 10
9.495935
 20
5.346390
 30
0.0
 11
9.495935
 21
6.768795
 31
0.0
  0
LINE
  5
429
100
AcDbEntity
  8
0
 62
7
100
AcDbLine
 10
9.495935
 20
6.768795
 30
0.0
 11
8.073530
 21
6.768795
 31
0.0
  0
LINE
  5
42a
100
AcDbEntity
  8
0
 62
7
100
AcDbLine
 10
8.073530
 20
6.768795
 30
0.0
 11
8.073530
 21
5.346390
 31
0.0
  0
LINE
  5
42b
100
AcDbEntity
  8
0
 62
7
100
AcDbLine
 10
21.413749
 20
7.254467
 30
0.0
 11
22.836154
 21
7.254467
 31
0.0
  0
LINE
  5
42c
100
AcDbEntity
  8
0
 62
7
100
AcDbLine
 10
22.836154
 20
7.254467
 30
0.0
 11
22.836154
 21
8.676872
 31
0.0
  0
LINE
  5
42d
100
AcDbEntity
  8
0
 62
7
100
AcDbLine
 10
22.836154
 20
8.676872
 30
0.0
 11
21.413749
 21
8.676872
 31
0.0
  0
LINE
  5
42e
100
AcDbEntity
  8
0
 62
7
100
AcDbLine
 10
21.413749
 20
8.676872
 30
0.0
 11
21.413749
 21
7.254467
 31
0.0
  0
LINE
  5
42f
100
AcDbEntity
  8
0
 62
7
100
AcDbLine
 10
6.165993
 20
5.346060
 30
0.0
 11
7.588398
 21
5.346060
 31
0.0
  0
LINE
  5
430
100
AcDbEntity
  8
0
 62
7
100
AcDbLine
 10
7.588398
 20
5.346060
 30
0.0
 11
7.588398
 21
6.768465
 31
0.0
  0
LINE
  5
431
100
AcDbEntity
  8
0
 62
7
100
AcDbLine
 10
7.588398
 20
6.768465
 30
0.0
 11
6.165993
 21
6.768465
 31
0.0
  0
LINE
  5
432
100
AcDbEntity
  8
0
 62
7
100
AcDbLine
 10
6.165993
 20
6.768465
 30
0.0
 11
6.165993
 21
5.346060
 31
0.0
  0
LINE
  5
433
100
AcDbEntity
  8
0
 62
7
100
AcDbLine
 10
2.360239
 20
7.254467
 30
0.0
 11
3.782644
 21
7.254467
 31
0.0
  0
LINE
  5
434
100
AcDbEntity
  8
0
 62
7
100
AcDbLine
 10
3.782644
 20
7.254467
 30
0.0
 11
3.782644
 21
8.676872
 31
0.0
  0
LINE
  5
435
100
AcDbEntity
  8
0
 62
7
100
AcDbLine
 10
3.782644
 20
8.676872
 30
0.0
 11
2.360239
 21
8.676872
 31
0.0
  0
LINE
  5
436
100
AcDbEntity
  8
0
 62
7
100
AcDbLine
 10
2.360239
 20
8.676872
 30
0.0
 11
2.360239
 21
7.254467
 31
0.0
  0
LINE
  5
437
100
AcDbEntity
  8
0
 62
7
100
AcDbLine
 10
15.714158
 20
7.254467
 30
0.0
 11
17.136563
 21
7.254467
 31
0.0
  0
LINE
  5
438
100
AcDbEntity
  8
0
 62
7
100
AcDbLine
 10
17.136563
 20
7.254467
 30
0.0
 11
17.136563
 21
8.676872
 31
0.0
  0
LINE
  5
439
100
AcDbEntity
  8
0
 62
7
100
AcDbLine
 10
17.136563
 20
8.676872
 30
0.0
 11
15.714158
 21
8.676872
 31
0.0
  0
LINE
  5
43a
100
AcDbEntity
  8
0
 62
7
100
AcDbLine
 10
15.714158
 20
8.676872
 30
0.0
 11
15.714158
 21
7.254467
 31
0.0
  0
LINE
  5
43b
100
AcDbEntity
  8
0
 62
7
100
AcDbLine
 10
0.457372
 20
3.436253
 30
0.0
 11
1.879777
 21
3.436253
 31
0.0
  0
LINE
  5
43c
100
AcDbEntity
  8
0
 62
7
100
AcDbLine
 10
1.879777
 20
3.436253
 30
0.0
 11
1.879777
 21
4.858658
 31
0.0
  0
LINE
  5
43d
100
AcDbEntity
  8
0
 62
7
100
AcDbLine
 10
1.879777
 20
4.858658
 30
0.0
 11
0.457372
 21
4.858658
 31
0.0
  0
LINE
  5
43e
100
AcDbEntity
  8
0
 62
7
100
AcDbLine
 10
0.457372
 20
4.858658
 30
0.0
 11
0.457372
 21
3.436253
 31
0.0
  0
LINE
  5
43f
100
AcDbEntity
  8
0
 62
7
100
AcDbLine
 10
8.073530
 20
7.254797
 30
0.0
 11
9.495935
 21
7.254797
 31
0.0
  0
LINE
  5
440
100
AcDbEntity
  8
0
 62
7
100
AcDbLine
 10
9.495935
 20
7.254797
 30
0.0
 11
9.495935
 21
8.677202
 31
0.0
  0
LINE
  5
441
100
AcDbEntity
  8
0
 62
7
100
AcDbLine
 10
9.495935
 20
8.677202
 30
0.0
 11
8.073530
 21
8.677202
 31
0.0
  0
LINE
  5
442
100
AcDbEntity
  8
0
 62
7
100
AcDbLine
 10
8.073530
 20
8.677202
 30
0.0
 11
8.073530
 21
7.254797
 31
0.0
  0
LINE
  5
443
100
AcDbEntity
  8
0
 62
7
100
AcDbLine
 10
9.984137
 20
0.382841
 30
0.0
 11
11.406542
 21
0.382841
 31
0.0
  0
LINE
  5
444
100
AcDbEntity
  8
0
 62
7
100
AcDbLine
 10
11.406542
 20
0.382841
 30
0.0
 11
11.406542
 21
1.805247
 31
0.0
  0
LINE
  5
445
100
AcDbEntity
  8
0
 62
7
100
AcDbLine
 10
11.406542
 20
1.805247
 30
0.0
 11
9.984137
 21
1.805247
 31
0.0
  0
LINE
  5
446
100
AcDbEntity
  8
0
 62
7
100
AcDbLine
 10
9.984137
 20
1.805247
 30
0.0
 11
9.984137
 21
0.382841
 31
0.0
  0
LINE
  5
447
100
AcDbEntity
  8
0
 62
7
100
AcDbLine
 10
0.457372
 20
5.346060
 30
0.0
 11
1.879777
 21
5.346060
 31
0.0
  0
LINE
  5
448
100
AcDbEntity
  8
0
 62
7
100
AcDbLine
 10
1.879777
 20
5.346060
 30
0.0
 11
1.879777
 21
6.768465
 31
0.0
  0
LINE
  5
449
100
AcDbEntity
  8
0
 62
7
100
AcDbLine
 10
1.879777
 20
6.768465
 30
0.0
 11
0.457372
 21
6.768465
 31
0.0
  0
LINE
  5
44a
100
AcDbEntity
  8
0
 62
7
100
AcDbLine
 10
0.457372
 20
6.768465
 30
0.0
 11
0.457372
 21
5.346060
 31
0.0
  0
LINE
  5
44b
100
AcDbEntity
  8
0
 62
7
100
AcDbLine
 10
11.890544
 20
0.382841
 30
0.0
 11
13.312949
 21
0.382841
 31
0.0
  0
LINE
  5
44c
100
AcDbEntity
  8
0
 62
7
100
AcDbLine
 10
13.312949
 20
0.382841
 30
0.0
 11
13.312949
 21
1.805247
 31
0.0
  0
LINE
  5
44d
100
AcDbEntity
  8
0
 62
7
100
AcDbLine
 10
13.312949
 20
1.805247
 30
0.0
 11
11.890544
 21
1.805247
 31
0.0
  0
LINE
  5
44e
100
AcDbEntity
  8
0
 62
7
100
AcDbLine
 10
11.890544
 20
1.805247
 30
0.0
 11
11.890544
 21
0.382841
 31
0.0
  0
LINE
  5
44f
100
AcDbEntity
  8
0
 62
7
100
AcDbLine
 10
15.714158
 20
1.024044
 30
0.0
 11
17.136563
 21
1.024044
 31
0.0
  0
LINE
  5
450
100
AcDbEntity
  8
0
 62
7
100
AcDbLine
 10
17.136563
 20
1.024044
 30
0.0
 11
17.136563
 21
2.446449
 31
0.0
  0
LINE
  5
451
100
AcDbEntity
  8
0
 62
7
100
AcDbLine
 10
17.136563
 20
2.446449
 30
0.0
 11
15.714158
 21
2.446449
 31
0.0
  0
LINE
  5
452
100
AcDbEntity
  8
0
 62
7
100
AcDbLine
 10
15.714158
 20
2.446449
 30
0.0
 11
15.714158
 21
1.024044
 31
0.0
  0
LINE
  5
453
100
AcDbEntity
  8
0
 62
7
100
AcDbLine
 10
0.457372
 20
1.024044
 30
0.0
 11
1.879777
 21
1.024044
 31
0.0
  0
LINE
  5
454
100
AcDbEntity
  8
0
 62
7
100
AcDbLine
 10
1.879777
 20
1.024044
 30
0.0
 11
1.879777
 21
2.446449
 31
0.0
  0
LINE
  5
455
100
AcDbEntity
  8
0
 62
7
100
AcDbLine
 10
1.879777
 20
2.446449
 30
0.0
 11
0.457372
 21
2.446449
 31
0.0
  0
LINE
  5
456
100
AcDbEntity
  8
0
 62
7
100
AcDbLine
 10
0.457372
 20
2.446449
 30
0.0
 11
0.457372
 21
1.024044
 31
0.0
  0
LINE
  5
457
100
AcDbEntity
  8
0
 62
7
100
AcDbLine
 10
17.611995
 20
7.254467
 30
0.0
 11
19.034400
 21
7.254467
 31
0.0
  0
LINE
  5
458
100
AcDbEntity
  8
0
 62
7
100
AcDbLine
 10
19.034400
 20
7.254467
 30
0.0
 11
19.034400
 21
8.676872
 31
0.0
  0
LINE
  5
459
100
AcDbEntity
  8
0
 62
7
100
AcDbLine
 10
19.034400
 20
8.676872
 30
0.0
 11
17.611995
 21
8.676872
 31
0.0
  0
LINE
  5
45a
100
AcDbEntity
  8
0
 62
7
100
AcDbLine
 10
17.611995
 20
8.676872
 30
0.0
 11
17.611995
 21
7.254467
 31
0.0
  0
LINE
  5
45b
100
AcDbEntity
  8
0
 62
7
100
AcDbLine
 10
2.360239
 20
3.436253
 30
0.0
 11
3.782644
 21
3.436253
 31
0.0
  0
LINE
  5
45c
100
AcDbEntity
  8
0
 62
7
100
AcDbLine
 10
3.782644
 20
3.436253
 30
0.0
 11
3.782644
 21
4.858658
 31
0.0
  0
LINE
  5
45d
100
AcDbEntity
  8
0
 62
7
100
AcDbLine
 10
3.782644
 20
4.858658
 30
0.0
 11
2.360239
 21
4.858658
 31
0.0
  0
LINE
  5
45e
100
AcDbEntity
  8
0
 62
7
100
AcDbLine
 10
2.360239
 20
4.858658
 30
0.0
 11
2.360239
 21
3.436253
 31
0.0
  0
LINE
  5
45f
100
AcDbEntity
  8
0
 62
7
100
AcDbLine
 10
23.314616
 20
7.254467
 30
0.0
 11
24.737021
 21
7.254467
 31
0.0
  0
LINE
  5
460
100
AcDbEntity
  8
0
 62
7
100
AcDbLine
 10
24.737021
 20
7.254467
 30
0.0
 11
24.737021
 21
8.676872
 31
0.0
  0
LINE
  5
461
100
AcDbEntity
  8
0
 62
7
100
AcDbLine
 10
24.737021
 20
8.676872
 30
0.0
 11
23.314616
 21
8.676872
 31
0.0
  0
LINE
  5
462
100
AcDbEntity
  8
0
 62
7
100
AcDbLine
 10
23.314616
 20
8.676872
 30
0.0
 11
23.314616
 21
7.254467
 31
0.0
  0
LINE
  5
463
100
AcDbEntity
  8
0
 62
7
100
AcDbLine
 10
8.073530
 20
3.436583
 30
0.0
 11
9.495935
 21
3.436583
 31
0.0
  0
LINE
  5
464
100
AcDbEntity
  8
0
 62
7
100
AcDbLine
 10
9.495935
 20
3.436583
 30
0.0
 11
9.495935
 21
4.858988
 31
0.0
  0
LINE
  5
465
100
AcDbEntity
  8
0
 62
7
100
AcDbLine
 10
9.495935
 20
4.858988
 30
0.0
 11
8.073530
 21
4.858988
 31
0.0
  0
LINE
  5
466
100
AcDbEntity
  8
0
 62
7
100
AcDbLine
 10
8.073530
 20
4.858988
 30
0.0
 11
8.073530
 21
3.436583
 31
0.0
  0
LINE
  5
467
100
AcDbEntity
  8
0
 62
7
100
AcDbLine
 10
21.413749
 20
3.436253
 30
0.0
 11
22.836154
 21
3.436253
 31
0.0
  0
LINE
  5
468
100
AcDbEntity
  8
0
 62
7
100
AcDbLine
 10
22.836154
 20
3.436253
 30
0.0
 11
22.836154
 21
4.858658
 31
0.0
  0
LINE
  5
469
100
AcDbEntity
  8
0
 62
7
100
AcDbLine
 10
22.836154
 20
4.858658
 30
0.0
 11
21.413749
 21
4.858658
 31
0.0
  0
LINE
  5
46a
100
AcDbEntity
  8
0
 62
7
100
AcDbLine
 10
21.413749
 20
4.858658
 30
0.0
 11
21.413749
 21
3.436253
 31
0.0
  0
SPLINE
  5
46b
100
AcDbEntity
  8
0
 62
7
100
AcDbSpline
 70
0
 71
3
 72
13
 73
9
 74
7
 40
0.000000
 40
0.000000
 40
0.000000
 40
0.000000
 40
0.106176
 40
0.211474
 40
0.317650
 40
0.423826
 40
0.529124
 40
0.635300
 40
0.635300
 40
0.635300
 40
0.635300
 10
15.956959
 20
0.635042
 30
0.0
 10
15.921463
 20
0.632338
 30
0.0
 10
15.850766
 20
0.626953
 30
0.0
 10
15.751864
 20
0.584395
 30
0.0
 10
15.666752
 20
0.519648
 30
0.0
 10
15.602004
 20
0.434536
 30
0.0
 10
15.559446
 20
0.335634
 30
0.0
 10
15.554061
 20
0.264936
 30
0.0
 10
15.551357
 20
0.229441
 30
0.0
 11
15.956959
 21
0.635042
 31
0.0
 11
15.851696
 21
0.621146
 31
0.0
 11
15.754413
 21
0.580851
 31
0.0
 11
15.670155
 21
0.516244
 31
0.0
 11
15.605549
 21
0.431986
 31
0.0
 11
15.565253
 21
0.334704
 31
0.0
 11
15.551357
 21
0.229441
 31
0.0
  0
ENDSEC
  0
SECTION
  2
OBJECTS
  0
DICTIONARY
  5
C
330
0
100
AcDbDictionary
  3
ACAD_GROUP
350
D
  3
ACAD_MLINESTYLE
350
17
  0
DICTIONARY
  5
D
330
C
100
AcDbDictionary
  0
DICTIONARY
  5
1A
330
C
100
AcDbDictionary
  0
DICTIONARY
  5
17
330
C
100
AcDbDictionary
  3
STANDARD
350
18
  0
DICTIONARY
  5
19
330
C
100
AcDbDictionary
  0
ENDSEC
  0
EOF
