%TF.GenerationSoftware,KiCad,Pcbnew,7.0.2*%
%TF.CreationDate,2023-05-02T21:20:20+02:00*%
%TF.ProjectId,Block,426c6f63-6b2e-46b6-9963-61645f706362,rev?*%
%TF.SameCoordinates,Original*%
%TF.FileFunction,Legend,Top*%
%TF.FilePolarity,Positive*%
%FSLAX46Y46*%
G04 Gerber Fmt 4.6, Leading zero omitted, Abs format (unit mm)*
G04 Created by KiCad (PCBNEW 7.0.2) date 2023-05-02 21:20:20*
%MOMM*%
%LPD*%
G01*
G04 APERTURE LIST*
G04 Aperture macros list*
%AMRoundRect*
0 Rectangle with rounded corners*
0 $1 Rounding radius*
0 $2 $3 $4 $5 $6 $7 $8 $9 X,Y pos of 4 corners*
0 Add a 4 corners polygon primitive as box body*
4,1,4,$2,$3,$4,$5,$6,$7,$8,$9,$2,$3,0*
0 Add four circle primitives for the rounded corners*
1,1,$1+$1,$2,$3*
1,1,$1+$1,$4,$5*
1,1,$1+$1,$6,$7*
1,1,$1+$1,$8,$9*
0 Add four rect primitives between the rounded corners*
20,1,$1+$1,$2,$3,$4,$5,0*
20,1,$1+$1,$4,$5,$6,$7,0*
20,1,$1+$1,$6,$7,$8,$9,0*
20,1,$1+$1,$8,$9,$2,$3,0*%
%AMRotRect*
0 Rectangle, with rotation*
0 The origin of the aperture is its center*
0 $1 length*
0 $2 width*
0 $3 Rotation angle, in degrees counterclockwise*
0 Add horizontal line*
21,1,$1,$2,0,0,$3*%
%AMFreePoly0*
4,1,19,0.550000,-0.750000,0.000000,-0.750000,0.000000,-0.744911,-0.071157,-0.744911,-0.207708,-0.704816,-0.327430,-0.627875,-0.420627,-0.520320,-0.479746,-0.390866,-0.500000,-0.250000,-0.500000,0.250000,-0.479746,0.390866,-0.420627,0.520320,-0.327430,0.627875,-0.207708,0.704816,-0.071157,0.744911,0.000000,0.744911,0.000000,0.750000,0.550000,0.750000,0.550000,-0.750000,0.550000,-0.750000,
$1*%
%AMFreePoly1*
4,1,19,0.000000,0.744911,0.071157,0.744911,0.207708,0.704816,0.327430,0.627875,0.420627,0.520320,0.479746,0.390866,0.500000,0.250000,0.500000,-0.250000,0.479746,-0.390866,0.420627,-0.520320,0.327430,-0.627875,0.207708,-0.704816,0.071157,-0.744911,0.000000,-0.744911,0.000000,-0.750000,-0.550000,-0.750000,-0.550000,0.750000,0.000000,0.750000,0.000000,0.744911,0.000000,0.744911,
$1*%
G04 Aperture macros list end*
%ADD10C,0.150000*%
%ADD11C,0.120000*%
%ADD12C,0.100000*%
%ADD13C,0.381000*%
%ADD14C,1.752600*%
%ADD15RoundRect,0.375000X0.756430X-0.361854X0.743341X0.388032X-0.756430X0.361854X-0.743341X-0.388032X0*%
%ADD16O,2.701800X1.701800*%
%ADD17C,3.000000*%
%ADD18C,3.987800*%
%ADD19C,4.500000*%
%ADD20C,2.000000*%
%ADD21R,3.200000X2.000000*%
%ADD22RotRect,4.400000X4.400000X140.000000*%
%ADD23C,2.100000*%
%ADD24C,2.400000*%
%ADD25C,4.200000*%
%ADD26C,3.200000*%
%ADD27FreePoly0,180.000000*%
%ADD28R,1.000000X1.500000*%
%ADD29FreePoly1,180.000000*%
%ADD30FreePoly0,90.000000*%
%ADD31R,1.500000X1.000000*%
%ADD32FreePoly1,90.000000*%
%ADD33C,1.700000*%
%ADD34O,1.700000X1.700000*%
%ADD35O,1.500000X2.500000*%
%ADD36R,1.500000X2.500000*%
%ADD37O,2.200000X3.500000*%
%ADD38R,1.400000X1.400000*%
%ADD39C,1.400000*%
G04 APERTURE END LIST*
D10*
%TO.C,H10*%
X237116285Y-108897561D02*
X237116285Y-107897561D01*
X237116285Y-108373751D02*
X237687713Y-108373751D01*
X237687713Y-108897561D02*
X237687713Y-107897561D01*
X238687713Y-108897561D02*
X238116285Y-108897561D01*
X238401999Y-108897561D02*
X238401999Y-107897561D01*
X238401999Y-107897561D02*
X238306761Y-108040418D01*
X238306761Y-108040418D02*
X238211523Y-108135656D01*
X238211523Y-108135656D02*
X238116285Y-108183275D01*
X239306761Y-107897561D02*
X239401999Y-107897561D01*
X239401999Y-107897561D02*
X239497237Y-107945180D01*
X239497237Y-107945180D02*
X239544856Y-107992799D01*
X239544856Y-107992799D02*
X239592475Y-108088037D01*
X239592475Y-108088037D02*
X239640094Y-108278513D01*
X239640094Y-108278513D02*
X239640094Y-108516608D01*
X239640094Y-108516608D02*
X239592475Y-108707084D01*
X239592475Y-108707084D02*
X239544856Y-108802322D01*
X239544856Y-108802322D02*
X239497237Y-108849942D01*
X239497237Y-108849942D02*
X239401999Y-108897561D01*
X239401999Y-108897561D02*
X239306761Y-108897561D01*
X239306761Y-108897561D02*
X239211523Y-108849942D01*
X239211523Y-108849942D02*
X239163904Y-108802322D01*
X239163904Y-108802322D02*
X239116285Y-108707084D01*
X239116285Y-108707084D02*
X239068666Y-108516608D01*
X239068666Y-108516608D02*
X239068666Y-108278513D01*
X239068666Y-108278513D02*
X239116285Y-108088037D01*
X239116285Y-108088037D02*
X239163904Y-107992799D01*
X239163904Y-107992799D02*
X239211523Y-107945180D01*
X239211523Y-107945180D02*
X239306761Y-107897561D01*
%TO.C,SW36*%
X217431183Y-120398774D02*
X217352357Y-120270468D01*
X217352357Y-120270468D02*
X217169965Y-120117424D01*
X217169965Y-120117424D02*
X217066400Y-120092684D01*
X217066400Y-120092684D02*
X216999313Y-120098554D01*
X216999313Y-120098554D02*
X216901617Y-120140901D01*
X216901617Y-120140901D02*
X216840399Y-120213858D01*
X216840399Y-120213858D02*
X216815659Y-120317423D01*
X216815659Y-120317423D02*
X216821528Y-120384511D01*
X216821528Y-120384511D02*
X216863876Y-120482207D01*
X216863876Y-120482207D02*
X216979180Y-120641121D01*
X216979180Y-120641121D02*
X217021528Y-120738817D01*
X217021528Y-120738817D02*
X217027398Y-120805904D01*
X217027398Y-120805904D02*
X217002658Y-120909470D01*
X217002658Y-120909470D02*
X216941440Y-120982426D01*
X216941440Y-120982426D02*
X216843744Y-121024774D01*
X216843744Y-121024774D02*
X216776657Y-121030644D01*
X216776657Y-121030644D02*
X216673091Y-121005904D01*
X216673091Y-121005904D02*
X216490700Y-120852859D01*
X216490700Y-120852859D02*
X216411874Y-120724554D01*
X216125916Y-120546770D02*
X216586313Y-119627681D01*
X216586313Y-119627681D02*
X215981265Y-120052420D01*
X215981265Y-120052420D02*
X216294486Y-119382809D01*
X216294486Y-119382809D02*
X215469307Y-119995809D01*
X215250437Y-119812156D02*
X214776219Y-119414239D01*
X214776219Y-119414239D02*
X215276439Y-119336676D01*
X215276439Y-119336676D02*
X215167004Y-119244849D01*
X215167004Y-119244849D02*
X215124656Y-119147153D01*
X215124656Y-119147153D02*
X215118787Y-119080065D01*
X215118787Y-119080065D02*
X215143526Y-118976500D01*
X215143526Y-118976500D02*
X215296571Y-118794108D01*
X215296571Y-118794108D02*
X215394267Y-118751761D01*
X215394267Y-118751761D02*
X215461355Y-118745891D01*
X215461355Y-118745891D02*
X215564920Y-118770631D01*
X215564920Y-118770631D02*
X215783790Y-118954284D01*
X215783790Y-118954284D02*
X215826138Y-119051981D01*
X215826138Y-119051981D02*
X215832007Y-119119068D01*
X214119610Y-118863279D02*
X214265523Y-118985714D01*
X214265523Y-118985714D02*
X214369088Y-119010454D01*
X214369088Y-119010454D02*
X214436176Y-119004585D01*
X214436176Y-119004585D02*
X214600959Y-118956367D01*
X214600959Y-118956367D02*
X214759873Y-118841063D01*
X214759873Y-118841063D02*
X215004745Y-118549237D01*
X215004745Y-118549237D02*
X215029484Y-118445671D01*
X215029484Y-118445671D02*
X215023615Y-118378584D01*
X215023615Y-118378584D02*
X214981267Y-118280888D01*
X214981267Y-118280888D02*
X214835354Y-118158452D01*
X214835354Y-118158452D02*
X214731788Y-118133712D01*
X214731788Y-118133712D02*
X214664701Y-118139582D01*
X214664701Y-118139582D02*
X214567005Y-118181930D01*
X214567005Y-118181930D02*
X214413960Y-118364321D01*
X214413960Y-118364321D02*
X214389221Y-118467887D01*
X214389221Y-118467887D02*
X214395090Y-118534974D01*
X214395090Y-118534974D02*
X214437438Y-118632670D01*
X214437438Y-118632670D02*
X214583351Y-118755106D01*
X214583351Y-118755106D02*
X214686917Y-118779845D01*
X214686917Y-118779845D02*
X214754004Y-118773976D01*
X214754004Y-118773976D02*
X214851700Y-118731628D01*
%TO.C,H8*%
X112560092Y-138489696D02*
X112594991Y-137490305D01*
X112578372Y-137966205D02*
X113149453Y-137986148D01*
X113131172Y-138509638D02*
X113166072Y-137510247D01*
X113769785Y-137960162D02*
X113676267Y-137909248D01*
X113676267Y-137909248D02*
X113630339Y-137859996D01*
X113630339Y-137859996D02*
X113586073Y-137763155D01*
X113586073Y-137763155D02*
X113587734Y-137715564D01*
X113587734Y-137715564D02*
X113638648Y-137622046D01*
X113638648Y-137622046D02*
X113687900Y-137576118D01*
X113687900Y-137576118D02*
X113784742Y-137531852D01*
X113784742Y-137531852D02*
X113975102Y-137538499D01*
X113975102Y-137538499D02*
X114068620Y-137589413D01*
X114068620Y-137589413D02*
X114114549Y-137638665D01*
X114114549Y-137638665D02*
X114158815Y-137735507D01*
X114158815Y-137735507D02*
X114157153Y-137783097D01*
X114157153Y-137783097D02*
X114106239Y-137876615D01*
X114106239Y-137876615D02*
X114056987Y-137922543D01*
X114056987Y-137922543D02*
X113960145Y-137966810D01*
X113960145Y-137966810D02*
X113769785Y-137960162D01*
X113769785Y-137960162D02*
X113672943Y-138004428D01*
X113672943Y-138004428D02*
X113623691Y-138050357D01*
X113623691Y-138050357D02*
X113572778Y-138143875D01*
X113572778Y-138143875D02*
X113566130Y-138334235D01*
X113566130Y-138334235D02*
X113610396Y-138431077D01*
X113610396Y-138431077D02*
X113656324Y-138480329D01*
X113656324Y-138480329D02*
X113749843Y-138531243D01*
X113749843Y-138531243D02*
X113940203Y-138537890D01*
X113940203Y-138537890D02*
X114037045Y-138493624D01*
X114037045Y-138493624D02*
X114086297Y-138447696D01*
X114086297Y-138447696D02*
X114137210Y-138354178D01*
X114137210Y-138354178D02*
X114143858Y-138163817D01*
X114143858Y-138163817D02*
X114099592Y-138066975D01*
X114099592Y-138066975D02*
X114053664Y-138017724D01*
X114053664Y-138017724D02*
X113960145Y-137966810D01*
%TO.C,JP3*%
X170990666Y-73934619D02*
X170990666Y-74648904D01*
X170990666Y-74648904D02*
X170943047Y-74791761D01*
X170943047Y-74791761D02*
X170847809Y-74887000D01*
X170847809Y-74887000D02*
X170704952Y-74934619D01*
X170704952Y-74934619D02*
X170609714Y-74934619D01*
X171466857Y-74934619D02*
X171466857Y-73934619D01*
X171466857Y-73934619D02*
X171847809Y-73934619D01*
X171847809Y-73934619D02*
X171943047Y-73982238D01*
X171943047Y-73982238D02*
X171990666Y-74029857D01*
X171990666Y-74029857D02*
X172038285Y-74125095D01*
X172038285Y-74125095D02*
X172038285Y-74267952D01*
X172038285Y-74267952D02*
X171990666Y-74363190D01*
X171990666Y-74363190D02*
X171943047Y-74410809D01*
X171943047Y-74410809D02*
X171847809Y-74458428D01*
X171847809Y-74458428D02*
X171466857Y-74458428D01*
X172371619Y-73934619D02*
X172990666Y-73934619D01*
X172990666Y-73934619D02*
X172657333Y-74315571D01*
X172657333Y-74315571D02*
X172800190Y-74315571D01*
X172800190Y-74315571D02*
X172895428Y-74363190D01*
X172895428Y-74363190D02*
X172943047Y-74410809D01*
X172943047Y-74410809D02*
X172990666Y-74506047D01*
X172990666Y-74506047D02*
X172990666Y-74744142D01*
X172990666Y-74744142D02*
X172943047Y-74839380D01*
X172943047Y-74839380D02*
X172895428Y-74887000D01*
X172895428Y-74887000D02*
X172800190Y-74934619D01*
X172800190Y-74934619D02*
X172514476Y-74934619D01*
X172514476Y-74934619D02*
X172419238Y-74887000D01*
X172419238Y-74887000D02*
X172371619Y-74839380D01*
X174709714Y-73134619D02*
X174138286Y-73134619D01*
X174424000Y-73134619D02*
X174424000Y-72134619D01*
X174424000Y-72134619D02*
X174328762Y-72277476D01*
X174328762Y-72277476D02*
X174233524Y-72372714D01*
X174233524Y-72372714D02*
X174138286Y-72420333D01*
X168890667Y-72134619D02*
X169509714Y-72134619D01*
X169509714Y-72134619D02*
X169176381Y-72515571D01*
X169176381Y-72515571D02*
X169319238Y-72515571D01*
X169319238Y-72515571D02*
X169414476Y-72563190D01*
X169414476Y-72563190D02*
X169462095Y-72610809D01*
X169462095Y-72610809D02*
X169509714Y-72706047D01*
X169509714Y-72706047D02*
X169509714Y-72944142D01*
X169509714Y-72944142D02*
X169462095Y-73039380D01*
X169462095Y-73039380D02*
X169414476Y-73087000D01*
X169414476Y-73087000D02*
X169319238Y-73134619D01*
X169319238Y-73134619D02*
X169033524Y-73134619D01*
X169033524Y-73134619D02*
X168938286Y-73087000D01*
X168938286Y-73087000D02*
X168890667Y-73039380D01*
%TO.C,U1*%
X128214115Y-78226058D02*
X128308396Y-78178918D01*
X128308396Y-78178918D02*
X128355536Y-78178918D01*
X128355536Y-78178918D02*
X128426247Y-78202488D01*
X128426247Y-78202488D02*
X128496958Y-78273199D01*
X128496958Y-78273199D02*
X128520528Y-78343910D01*
X128520528Y-78343910D02*
X128520528Y-78391050D01*
X128520528Y-78391050D02*
X128496958Y-78461761D01*
X128496958Y-78461761D02*
X128308396Y-78650323D01*
X128308396Y-78650323D02*
X127813421Y-78155348D01*
X127813421Y-78155348D02*
X127978413Y-77990356D01*
X127978413Y-77990356D02*
X128049123Y-77966786D01*
X128049123Y-77966786D02*
X128096264Y-77966786D01*
X128096264Y-77966786D02*
X128166975Y-77990356D01*
X128166975Y-77990356D02*
X128214115Y-78037497D01*
X128214115Y-78037497D02*
X128237685Y-78108207D01*
X128237685Y-78108207D02*
X128237685Y-78155348D01*
X128237685Y-78155348D02*
X128214115Y-78226058D01*
X128214115Y-78226058D02*
X128049123Y-78391050D01*
X128544098Y-77424671D02*
X128308396Y-77660373D01*
X128308396Y-77660373D02*
X128520528Y-77919646D01*
X128520528Y-77919646D02*
X128520528Y-77872505D01*
X128520528Y-77872505D02*
X128544098Y-77801794D01*
X128544098Y-77801794D02*
X128661949Y-77683943D01*
X128661949Y-77683943D02*
X128732660Y-77660373D01*
X128732660Y-77660373D02*
X128779800Y-77660373D01*
X128779800Y-77660373D02*
X128850511Y-77683943D01*
X128850511Y-77683943D02*
X128968362Y-77801794D01*
X128968362Y-77801794D02*
X128991933Y-77872505D01*
X128991933Y-77872505D02*
X128991933Y-77919646D01*
X128991933Y-77919646D02*
X128968362Y-77990356D01*
X128968362Y-77990356D02*
X128850511Y-78108207D01*
X128850511Y-78108207D02*
X128779800Y-78131778D01*
X128779800Y-78131778D02*
X128732660Y-78131778D01*
X128042647Y-70709541D02*
X127988772Y-70709541D01*
X127988772Y-70709541D02*
X127881022Y-70655666D01*
X127881022Y-70655666D02*
X127827148Y-70601791D01*
X127827148Y-70601791D02*
X127773273Y-70494042D01*
X127773273Y-70494042D02*
X127773273Y-70386292D01*
X127773273Y-70386292D02*
X127800210Y-70305480D01*
X127800210Y-70305480D02*
X127881022Y-70170793D01*
X127881022Y-70170793D02*
X127961835Y-70089981D01*
X127961835Y-70089981D02*
X128096522Y-70009168D01*
X128096522Y-70009168D02*
X128177334Y-69982231D01*
X128177334Y-69982231D02*
X128285083Y-69982231D01*
X128285083Y-69982231D02*
X128392833Y-70036106D01*
X128392833Y-70036106D02*
X128446708Y-70089981D01*
X128446708Y-70089981D02*
X128500583Y-70197730D01*
X128500583Y-70197730D02*
X128500583Y-70251605D01*
X128743019Y-70386292D02*
X129120143Y-70763416D01*
X129120143Y-70763416D02*
X128312021Y-71086665D01*
X127125797Y-66518809D02*
X127163892Y-66404523D01*
X127163892Y-66404523D02*
X127201988Y-66366428D01*
X127201988Y-66366428D02*
X127278178Y-66328332D01*
X127278178Y-66328332D02*
X127392464Y-66328332D01*
X127392464Y-66328332D02*
X127468654Y-66366428D01*
X127468654Y-66366428D02*
X127506750Y-66404523D01*
X127506750Y-66404523D02*
X127544845Y-66480713D01*
X127544845Y-66480713D02*
X127544845Y-66785475D01*
X127544845Y-66785475D02*
X126744845Y-66785475D01*
X126744845Y-66785475D02*
X126744845Y-66518809D01*
X126744845Y-66518809D02*
X126782940Y-66442618D01*
X126782940Y-66442618D02*
X126821035Y-66404523D01*
X126821035Y-66404523D02*
X126897226Y-66366428D01*
X126897226Y-66366428D02*
X126973416Y-66366428D01*
X126973416Y-66366428D02*
X127049607Y-66404523D01*
X127049607Y-66404523D02*
X127087702Y-66442618D01*
X127087702Y-66442618D02*
X127125797Y-66518809D01*
X127125797Y-66518809D02*
X127125797Y-66785475D01*
X126821035Y-66023571D02*
X126782940Y-65985475D01*
X126782940Y-65985475D02*
X126744845Y-65909285D01*
X126744845Y-65909285D02*
X126744845Y-65718809D01*
X126744845Y-65718809D02*
X126782940Y-65642618D01*
X126782940Y-65642618D02*
X126821035Y-65604523D01*
X126821035Y-65604523D02*
X126897226Y-65566428D01*
X126897226Y-65566428D02*
X126973416Y-65566428D01*
X126973416Y-65566428D02*
X127087702Y-65604523D01*
X127087702Y-65604523D02*
X127544845Y-66061666D01*
X127544845Y-66061666D02*
X127544845Y-65566428D01*
X128301916Y-67389333D02*
X128301916Y-67622666D01*
X128668583Y-67622666D02*
X127968583Y-67622666D01*
X127968583Y-67622666D02*
X127968583Y-67289333D01*
X127968583Y-66889333D02*
X127968583Y-66822666D01*
X127968583Y-66822666D02*
X128001916Y-66755999D01*
X128001916Y-66755999D02*
X128035250Y-66722666D01*
X128035250Y-66722666D02*
X128101916Y-66689333D01*
X128101916Y-66689333D02*
X128235250Y-66655999D01*
X128235250Y-66655999D02*
X128401916Y-66655999D01*
X128401916Y-66655999D02*
X128535250Y-66689333D01*
X128535250Y-66689333D02*
X128601916Y-66722666D01*
X128601916Y-66722666D02*
X128635250Y-66755999D01*
X128635250Y-66755999D02*
X128668583Y-66822666D01*
X128668583Y-66822666D02*
X128668583Y-66889333D01*
X128668583Y-66889333D02*
X128635250Y-66955999D01*
X128635250Y-66955999D02*
X128601916Y-66989333D01*
X128601916Y-66989333D02*
X128535250Y-67022666D01*
X128535250Y-67022666D02*
X128401916Y-67055999D01*
X128401916Y-67055999D02*
X128235250Y-67055999D01*
X128235250Y-67055999D02*
X128101916Y-67022666D01*
X128101916Y-67022666D02*
X128035250Y-66989333D01*
X128035250Y-66989333D02*
X128001916Y-66955999D01*
X128001916Y-66955999D02*
X127968583Y-66889333D01*
X101344845Y-77418348D02*
X101344845Y-76961205D01*
X102144845Y-77189777D02*
X101344845Y-77189777D01*
X101344845Y-76770729D02*
X102144845Y-76237395D01*
X101344845Y-76237395D02*
X102144845Y-76770729D01*
X101344845Y-75780252D02*
X101344845Y-75704062D01*
X101344845Y-75704062D02*
X101382940Y-75627871D01*
X101382940Y-75627871D02*
X101421035Y-75589776D01*
X101421035Y-75589776D02*
X101497226Y-75551681D01*
X101497226Y-75551681D02*
X101649607Y-75513586D01*
X101649607Y-75513586D02*
X101840083Y-75513586D01*
X101840083Y-75513586D02*
X101992464Y-75551681D01*
X101992464Y-75551681D02*
X102068654Y-75589776D01*
X102068654Y-75589776D02*
X102106750Y-75627871D01*
X102106750Y-75627871D02*
X102144845Y-75704062D01*
X102144845Y-75704062D02*
X102144845Y-75780252D01*
X102144845Y-75780252D02*
X102106750Y-75856443D01*
X102106750Y-75856443D02*
X102068654Y-75894538D01*
X102068654Y-75894538D02*
X101992464Y-75932633D01*
X101992464Y-75932633D02*
X101840083Y-75970729D01*
X101840083Y-75970729D02*
X101649607Y-75970729D01*
X101649607Y-75970729D02*
X101497226Y-75932633D01*
X101497226Y-75932633D02*
X101421035Y-75894538D01*
X101421035Y-75894538D02*
X101382940Y-75856443D01*
X101382940Y-75856443D02*
X101344845Y-75780252D01*
X101306750Y-74599300D02*
X102335321Y-75285014D01*
X102144845Y-74332633D02*
X101344845Y-74332633D01*
X101344845Y-74332633D02*
X101344845Y-74142157D01*
X101344845Y-74142157D02*
X101382940Y-74027871D01*
X101382940Y-74027871D02*
X101459130Y-73951681D01*
X101459130Y-73951681D02*
X101535321Y-73913586D01*
X101535321Y-73913586D02*
X101687702Y-73875490D01*
X101687702Y-73875490D02*
X101801988Y-73875490D01*
X101801988Y-73875490D02*
X101954369Y-73913586D01*
X101954369Y-73913586D02*
X102030559Y-73951681D01*
X102030559Y-73951681D02*
X102106750Y-74027871D01*
X102106750Y-74027871D02*
X102144845Y-74142157D01*
X102144845Y-74142157D02*
X102144845Y-74332633D01*
X101344845Y-73608824D02*
X101344845Y-73113586D01*
X101344845Y-73113586D02*
X101649607Y-73380252D01*
X101649607Y-73380252D02*
X101649607Y-73265967D01*
X101649607Y-73265967D02*
X101687702Y-73189776D01*
X101687702Y-73189776D02*
X101725797Y-73151681D01*
X101725797Y-73151681D02*
X101801988Y-73113586D01*
X101801988Y-73113586D02*
X101992464Y-73113586D01*
X101992464Y-73113586D02*
X102068654Y-73151681D01*
X102068654Y-73151681D02*
X102106750Y-73189776D01*
X102106750Y-73189776D02*
X102144845Y-73265967D01*
X102144845Y-73265967D02*
X102144845Y-73494538D01*
X102144845Y-73494538D02*
X102106750Y-73570729D01*
X102106750Y-73570729D02*
X102068654Y-73608824D01*
X104684845Y-77707475D02*
X103884845Y-77707475D01*
X103884845Y-77707475D02*
X103884845Y-77516999D01*
X103884845Y-77516999D02*
X103922940Y-77402713D01*
X103922940Y-77402713D02*
X103999130Y-77326523D01*
X103999130Y-77326523D02*
X104075321Y-77288428D01*
X104075321Y-77288428D02*
X104227702Y-77250332D01*
X104227702Y-77250332D02*
X104341988Y-77250332D01*
X104341988Y-77250332D02*
X104494369Y-77288428D01*
X104494369Y-77288428D02*
X104570559Y-77326523D01*
X104570559Y-77326523D02*
X104646750Y-77402713D01*
X104646750Y-77402713D02*
X104684845Y-77516999D01*
X104684845Y-77516999D02*
X104684845Y-77707475D01*
X103961035Y-76945571D02*
X103922940Y-76907475D01*
X103922940Y-76907475D02*
X103884845Y-76831285D01*
X103884845Y-76831285D02*
X103884845Y-76640809D01*
X103884845Y-76640809D02*
X103922940Y-76564618D01*
X103922940Y-76564618D02*
X103961035Y-76526523D01*
X103961035Y-76526523D02*
X104037226Y-76488428D01*
X104037226Y-76488428D02*
X104113416Y-76488428D01*
X104113416Y-76488428D02*
X104227702Y-76526523D01*
X104227702Y-76526523D02*
X104684845Y-76983666D01*
X104684845Y-76983666D02*
X104684845Y-76488428D01*
X108964845Y-67261666D02*
X109764845Y-66994999D01*
X109764845Y-66994999D02*
X108964845Y-66728333D01*
X109688654Y-66004523D02*
X109726750Y-66042619D01*
X109726750Y-66042619D02*
X109764845Y-66156904D01*
X109764845Y-66156904D02*
X109764845Y-66233095D01*
X109764845Y-66233095D02*
X109726750Y-66347381D01*
X109726750Y-66347381D02*
X109650559Y-66423571D01*
X109650559Y-66423571D02*
X109574369Y-66461666D01*
X109574369Y-66461666D02*
X109421988Y-66499762D01*
X109421988Y-66499762D02*
X109307702Y-66499762D01*
X109307702Y-66499762D02*
X109155321Y-66461666D01*
X109155321Y-66461666D02*
X109079130Y-66423571D01*
X109079130Y-66423571D02*
X109002940Y-66347381D01*
X109002940Y-66347381D02*
X108964845Y-66233095D01*
X108964845Y-66233095D02*
X108964845Y-66156904D01*
X108964845Y-66156904D02*
X109002940Y-66042619D01*
X109002940Y-66042619D02*
X109041035Y-66004523D01*
X109688654Y-65204523D02*
X109726750Y-65242619D01*
X109726750Y-65242619D02*
X109764845Y-65356904D01*
X109764845Y-65356904D02*
X109764845Y-65433095D01*
X109764845Y-65433095D02*
X109726750Y-65547381D01*
X109726750Y-65547381D02*
X109650559Y-65623571D01*
X109650559Y-65623571D02*
X109574369Y-65661666D01*
X109574369Y-65661666D02*
X109421988Y-65699762D01*
X109421988Y-65699762D02*
X109307702Y-65699762D01*
X109307702Y-65699762D02*
X109155321Y-65661666D01*
X109155321Y-65661666D02*
X109079130Y-65623571D01*
X109079130Y-65623571D02*
X109002940Y-65547381D01*
X109002940Y-65547381D02*
X108964845Y-65433095D01*
X108964845Y-65433095D02*
X108964845Y-65356904D01*
X108964845Y-65356904D02*
X109002940Y-65242619D01*
X109002940Y-65242619D02*
X109041035Y-65204523D01*
X119848654Y-77250332D02*
X119886750Y-77288428D01*
X119886750Y-77288428D02*
X119924845Y-77402713D01*
X119924845Y-77402713D02*
X119924845Y-77478904D01*
X119924845Y-77478904D02*
X119886750Y-77593190D01*
X119886750Y-77593190D02*
X119810559Y-77669380D01*
X119810559Y-77669380D02*
X119734369Y-77707475D01*
X119734369Y-77707475D02*
X119581988Y-77745571D01*
X119581988Y-77745571D02*
X119467702Y-77745571D01*
X119467702Y-77745571D02*
X119315321Y-77707475D01*
X119315321Y-77707475D02*
X119239130Y-77669380D01*
X119239130Y-77669380D02*
X119162940Y-77593190D01*
X119162940Y-77593190D02*
X119124845Y-77478904D01*
X119124845Y-77478904D02*
X119124845Y-77402713D01*
X119124845Y-77402713D02*
X119162940Y-77288428D01*
X119162940Y-77288428D02*
X119201035Y-77250332D01*
X119124845Y-76564618D02*
X119124845Y-76716999D01*
X119124845Y-76716999D02*
X119162940Y-76793190D01*
X119162940Y-76793190D02*
X119201035Y-76831285D01*
X119201035Y-76831285D02*
X119315321Y-76907475D01*
X119315321Y-76907475D02*
X119467702Y-76945571D01*
X119467702Y-76945571D02*
X119772464Y-76945571D01*
X119772464Y-76945571D02*
X119848654Y-76907475D01*
X119848654Y-76907475D02*
X119886750Y-76869380D01*
X119886750Y-76869380D02*
X119924845Y-76793190D01*
X119924845Y-76793190D02*
X119924845Y-76640809D01*
X119924845Y-76640809D02*
X119886750Y-76564618D01*
X119886750Y-76564618D02*
X119848654Y-76526523D01*
X119848654Y-76526523D02*
X119772464Y-76488428D01*
X119772464Y-76488428D02*
X119581988Y-76488428D01*
X119581988Y-76488428D02*
X119505797Y-76526523D01*
X119505797Y-76526523D02*
X119467702Y-76564618D01*
X119467702Y-76564618D02*
X119429607Y-76640809D01*
X119429607Y-76640809D02*
X119429607Y-76793190D01*
X119429607Y-76793190D02*
X119467702Y-76869380D01*
X119467702Y-76869380D02*
X119505797Y-76907475D01*
X119505797Y-76907475D02*
X119581988Y-76945571D01*
X106462940Y-77726523D02*
X106424845Y-77802713D01*
X106424845Y-77802713D02*
X106424845Y-77916999D01*
X106424845Y-77916999D02*
X106462940Y-78031285D01*
X106462940Y-78031285D02*
X106539130Y-78107475D01*
X106539130Y-78107475D02*
X106615321Y-78145570D01*
X106615321Y-78145570D02*
X106767702Y-78183666D01*
X106767702Y-78183666D02*
X106881988Y-78183666D01*
X106881988Y-78183666D02*
X107034369Y-78145570D01*
X107034369Y-78145570D02*
X107110559Y-78107475D01*
X107110559Y-78107475D02*
X107186750Y-78031285D01*
X107186750Y-78031285D02*
X107224845Y-77916999D01*
X107224845Y-77916999D02*
X107224845Y-77840808D01*
X107224845Y-77840808D02*
X107186750Y-77726523D01*
X107186750Y-77726523D02*
X107148654Y-77688427D01*
X107148654Y-77688427D02*
X106881988Y-77688427D01*
X106881988Y-77688427D02*
X106881988Y-77840808D01*
X107224845Y-77345570D02*
X106424845Y-77345570D01*
X106424845Y-77345570D02*
X107224845Y-76888427D01*
X107224845Y-76888427D02*
X106424845Y-76888427D01*
X107224845Y-76507475D02*
X106424845Y-76507475D01*
X106424845Y-76507475D02*
X106424845Y-76316999D01*
X106424845Y-76316999D02*
X106462940Y-76202713D01*
X106462940Y-76202713D02*
X106539130Y-76126523D01*
X106539130Y-76126523D02*
X106615321Y-76088428D01*
X106615321Y-76088428D02*
X106767702Y-76050332D01*
X106767702Y-76050332D02*
X106881988Y-76050332D01*
X106881988Y-76050332D02*
X107034369Y-76088428D01*
X107034369Y-76088428D02*
X107110559Y-76126523D01*
X107110559Y-76126523D02*
X107186750Y-76202713D01*
X107186750Y-76202713D02*
X107224845Y-76316999D01*
X107224845Y-76316999D02*
X107224845Y-76507475D01*
X114844845Y-77707475D02*
X114044845Y-77707475D01*
X114044845Y-77707475D02*
X114044845Y-77516999D01*
X114044845Y-77516999D02*
X114082940Y-77402713D01*
X114082940Y-77402713D02*
X114159130Y-77326523D01*
X114159130Y-77326523D02*
X114235321Y-77288428D01*
X114235321Y-77288428D02*
X114387702Y-77250332D01*
X114387702Y-77250332D02*
X114501988Y-77250332D01*
X114501988Y-77250332D02*
X114654369Y-77288428D01*
X114654369Y-77288428D02*
X114730559Y-77326523D01*
X114730559Y-77326523D02*
X114806750Y-77402713D01*
X114806750Y-77402713D02*
X114844845Y-77516999D01*
X114844845Y-77516999D02*
X114844845Y-77707475D01*
X114044845Y-76755094D02*
X114044845Y-76678904D01*
X114044845Y-76678904D02*
X114082940Y-76602713D01*
X114082940Y-76602713D02*
X114121035Y-76564618D01*
X114121035Y-76564618D02*
X114197226Y-76526523D01*
X114197226Y-76526523D02*
X114349607Y-76488428D01*
X114349607Y-76488428D02*
X114540083Y-76488428D01*
X114540083Y-76488428D02*
X114692464Y-76526523D01*
X114692464Y-76526523D02*
X114768654Y-76564618D01*
X114768654Y-76564618D02*
X114806750Y-76602713D01*
X114806750Y-76602713D02*
X114844845Y-76678904D01*
X114844845Y-76678904D02*
X114844845Y-76755094D01*
X114844845Y-76755094D02*
X114806750Y-76831285D01*
X114806750Y-76831285D02*
X114768654Y-76869380D01*
X114768654Y-76869380D02*
X114692464Y-76907475D01*
X114692464Y-76907475D02*
X114540083Y-76945571D01*
X114540083Y-76945571D02*
X114349607Y-76945571D01*
X114349607Y-76945571D02*
X114197226Y-76907475D01*
X114197226Y-76907475D02*
X114121035Y-76869380D01*
X114121035Y-76869380D02*
X114082940Y-76831285D01*
X114082940Y-76831285D02*
X114044845Y-76755094D01*
X128095797Y-69382666D02*
X128095797Y-69649332D01*
X128514845Y-69649332D02*
X127714845Y-69649332D01*
X127714845Y-69649332D02*
X127714845Y-69268380D01*
X128514845Y-68544571D02*
X128514845Y-69001714D01*
X128514845Y-68773142D02*
X127714845Y-68773142D01*
X127714845Y-68773142D02*
X127829130Y-68849333D01*
X127829130Y-68849333D02*
X127905321Y-68925523D01*
X127905321Y-68925523D02*
X127943416Y-69001714D01*
X123073772Y-77618722D02*
X123262334Y-77807284D01*
X123046834Y-78184407D02*
X122777460Y-77915033D01*
X122777460Y-77915033D02*
X123343146Y-77349348D01*
X123343146Y-77349348D02*
X123612520Y-77618722D01*
X124097393Y-78103595D02*
X123989644Y-77995846D01*
X123989644Y-77995846D02*
X123908832Y-77968908D01*
X123908832Y-77968908D02*
X123854957Y-77968908D01*
X123854957Y-77968908D02*
X123720270Y-77995846D01*
X123720270Y-77995846D02*
X123585583Y-78076658D01*
X123585583Y-78076658D02*
X123370084Y-78292157D01*
X123370084Y-78292157D02*
X123343146Y-78372969D01*
X123343146Y-78372969D02*
X123343146Y-78426844D01*
X123343146Y-78426844D02*
X123370084Y-78507656D01*
X123370084Y-78507656D02*
X123477833Y-78615406D01*
X123477833Y-78615406D02*
X123558645Y-78642343D01*
X123558645Y-78642343D02*
X123612520Y-78642343D01*
X123612520Y-78642343D02*
X123693332Y-78615406D01*
X123693332Y-78615406D02*
X123828019Y-78480719D01*
X123828019Y-78480719D02*
X123854957Y-78399907D01*
X123854957Y-78399907D02*
X123854957Y-78346032D01*
X123854957Y-78346032D02*
X123828019Y-78265220D01*
X123828019Y-78265220D02*
X123720270Y-78157470D01*
X123720270Y-78157470D02*
X123639458Y-78130533D01*
X123639458Y-78130533D02*
X123585583Y-78130533D01*
X123585583Y-78130533D02*
X123504771Y-78157470D01*
X128104691Y-75385365D02*
X128151831Y-75479646D01*
X128151831Y-75479646D02*
X128151831Y-75526786D01*
X128151831Y-75526786D02*
X128128261Y-75597497D01*
X128128261Y-75597497D02*
X128057550Y-75668208D01*
X128057550Y-75668208D02*
X127986839Y-75691778D01*
X127986839Y-75691778D02*
X127939699Y-75691778D01*
X127939699Y-75691778D02*
X127868988Y-75668208D01*
X127868988Y-75668208D02*
X127680426Y-75479646D01*
X127680426Y-75479646D02*
X128175401Y-74984671D01*
X128175401Y-74984671D02*
X128340393Y-75149663D01*
X128340393Y-75149663D02*
X128363963Y-75220373D01*
X128363963Y-75220373D02*
X128363963Y-75267514D01*
X128363963Y-75267514D02*
X128340393Y-75338225D01*
X128340393Y-75338225D02*
X128293252Y-75385365D01*
X128293252Y-75385365D02*
X128222542Y-75408935D01*
X128222542Y-75408935D02*
X128175401Y-75408935D01*
X128175401Y-75408935D02*
X128104691Y-75385365D01*
X128104691Y-75385365D02*
X127939699Y-75220373D01*
X128623236Y-75432506D02*
X128953219Y-75762489D01*
X128953219Y-75762489D02*
X128246112Y-76045331D01*
X119505797Y-66461666D02*
X119505797Y-66728332D01*
X119924845Y-66728332D02*
X119124845Y-66728332D01*
X119124845Y-66728332D02*
X119124845Y-66347380D01*
X119124845Y-66118809D02*
X119124845Y-65585475D01*
X119124845Y-65585475D02*
X119924845Y-65928333D01*
X116965797Y-66461666D02*
X116965797Y-66728332D01*
X117384845Y-66728332D02*
X116584845Y-66728332D01*
X116584845Y-66728332D02*
X116584845Y-66347380D01*
X116584845Y-65699761D02*
X116584845Y-65852142D01*
X116584845Y-65852142D02*
X116622940Y-65928333D01*
X116622940Y-65928333D02*
X116661035Y-65966428D01*
X116661035Y-65966428D02*
X116775321Y-66042618D01*
X116775321Y-66042618D02*
X116927702Y-66080714D01*
X116927702Y-66080714D02*
X117232464Y-66080714D01*
X117232464Y-66080714D02*
X117308654Y-66042618D01*
X117308654Y-66042618D02*
X117346750Y-66004523D01*
X117346750Y-66004523D02*
X117384845Y-65928333D01*
X117384845Y-65928333D02*
X117384845Y-65775952D01*
X117384845Y-65775952D02*
X117346750Y-65699761D01*
X117346750Y-65699761D02*
X117308654Y-65661666D01*
X117308654Y-65661666D02*
X117232464Y-65623571D01*
X117232464Y-65623571D02*
X117041988Y-65623571D01*
X117041988Y-65623571D02*
X116965797Y-65661666D01*
X116965797Y-65661666D02*
X116927702Y-65699761D01*
X116927702Y-65699761D02*
X116889607Y-65775952D01*
X116889607Y-65775952D02*
X116889607Y-65928333D01*
X116889607Y-65928333D02*
X116927702Y-66004523D01*
X116927702Y-66004523D02*
X116965797Y-66042618D01*
X116965797Y-66042618D02*
X117041988Y-66080714D01*
X124585797Y-66518809D02*
X124623892Y-66404523D01*
X124623892Y-66404523D02*
X124661988Y-66366428D01*
X124661988Y-66366428D02*
X124738178Y-66328332D01*
X124738178Y-66328332D02*
X124852464Y-66328332D01*
X124852464Y-66328332D02*
X124928654Y-66366428D01*
X124928654Y-66366428D02*
X124966750Y-66404523D01*
X124966750Y-66404523D02*
X125004845Y-66480713D01*
X125004845Y-66480713D02*
X125004845Y-66785475D01*
X125004845Y-66785475D02*
X124204845Y-66785475D01*
X124204845Y-66785475D02*
X124204845Y-66518809D01*
X124204845Y-66518809D02*
X124242940Y-66442618D01*
X124242940Y-66442618D02*
X124281035Y-66404523D01*
X124281035Y-66404523D02*
X124357226Y-66366428D01*
X124357226Y-66366428D02*
X124433416Y-66366428D01*
X124433416Y-66366428D02*
X124509607Y-66404523D01*
X124509607Y-66404523D02*
X124547702Y-66442618D01*
X124547702Y-66442618D02*
X124585797Y-66518809D01*
X124585797Y-66518809D02*
X124585797Y-66785475D01*
X124204845Y-66061666D02*
X124204845Y-65566428D01*
X124204845Y-65566428D02*
X124509607Y-65833094D01*
X124509607Y-65833094D02*
X124509607Y-65718809D01*
X124509607Y-65718809D02*
X124547702Y-65642618D01*
X124547702Y-65642618D02*
X124585797Y-65604523D01*
X124585797Y-65604523D02*
X124661988Y-65566428D01*
X124661988Y-65566428D02*
X124852464Y-65566428D01*
X124852464Y-65566428D02*
X124928654Y-65604523D01*
X124928654Y-65604523D02*
X124966750Y-65642618D01*
X124966750Y-65642618D02*
X125004845Y-65718809D01*
X125004845Y-65718809D02*
X125004845Y-65947380D01*
X125004845Y-65947380D02*
X124966750Y-66023571D01*
X124966750Y-66023571D02*
X124928654Y-66061666D01*
X109002940Y-77726523D02*
X108964845Y-77802713D01*
X108964845Y-77802713D02*
X108964845Y-77916999D01*
X108964845Y-77916999D02*
X109002940Y-78031285D01*
X109002940Y-78031285D02*
X109079130Y-78107475D01*
X109079130Y-78107475D02*
X109155321Y-78145570D01*
X109155321Y-78145570D02*
X109307702Y-78183666D01*
X109307702Y-78183666D02*
X109421988Y-78183666D01*
X109421988Y-78183666D02*
X109574369Y-78145570D01*
X109574369Y-78145570D02*
X109650559Y-78107475D01*
X109650559Y-78107475D02*
X109726750Y-78031285D01*
X109726750Y-78031285D02*
X109764845Y-77916999D01*
X109764845Y-77916999D02*
X109764845Y-77840808D01*
X109764845Y-77840808D02*
X109726750Y-77726523D01*
X109726750Y-77726523D02*
X109688654Y-77688427D01*
X109688654Y-77688427D02*
X109421988Y-77688427D01*
X109421988Y-77688427D02*
X109421988Y-77840808D01*
X109764845Y-77345570D02*
X108964845Y-77345570D01*
X108964845Y-77345570D02*
X109764845Y-76888427D01*
X109764845Y-76888427D02*
X108964845Y-76888427D01*
X109764845Y-76507475D02*
X108964845Y-76507475D01*
X108964845Y-76507475D02*
X108964845Y-76316999D01*
X108964845Y-76316999D02*
X109002940Y-76202713D01*
X109002940Y-76202713D02*
X109079130Y-76126523D01*
X109079130Y-76126523D02*
X109155321Y-76088428D01*
X109155321Y-76088428D02*
X109307702Y-76050332D01*
X109307702Y-76050332D02*
X109421988Y-76050332D01*
X109421988Y-76050332D02*
X109574369Y-76088428D01*
X109574369Y-76088428D02*
X109650559Y-76126523D01*
X109650559Y-76126523D02*
X109726750Y-76202713D01*
X109726750Y-76202713D02*
X109764845Y-76316999D01*
X109764845Y-76316999D02*
X109764845Y-76507475D01*
X122045797Y-66518809D02*
X122083892Y-66404523D01*
X122083892Y-66404523D02*
X122121988Y-66366428D01*
X122121988Y-66366428D02*
X122198178Y-66328332D01*
X122198178Y-66328332D02*
X122312464Y-66328332D01*
X122312464Y-66328332D02*
X122388654Y-66366428D01*
X122388654Y-66366428D02*
X122426750Y-66404523D01*
X122426750Y-66404523D02*
X122464845Y-66480713D01*
X122464845Y-66480713D02*
X122464845Y-66785475D01*
X122464845Y-66785475D02*
X121664845Y-66785475D01*
X121664845Y-66785475D02*
X121664845Y-66518809D01*
X121664845Y-66518809D02*
X121702940Y-66442618D01*
X121702940Y-66442618D02*
X121741035Y-66404523D01*
X121741035Y-66404523D02*
X121817226Y-66366428D01*
X121817226Y-66366428D02*
X121893416Y-66366428D01*
X121893416Y-66366428D02*
X121969607Y-66404523D01*
X121969607Y-66404523D02*
X122007702Y-66442618D01*
X122007702Y-66442618D02*
X122045797Y-66518809D01*
X122045797Y-66518809D02*
X122045797Y-66785475D01*
X122464845Y-65566428D02*
X122464845Y-66023571D01*
X122464845Y-65794999D02*
X121664845Y-65794999D01*
X121664845Y-65794999D02*
X121779130Y-65871190D01*
X121779130Y-65871190D02*
X121855321Y-65947380D01*
X121855321Y-65947380D02*
X121893416Y-66023571D01*
X101725797Y-66518809D02*
X101763892Y-66404523D01*
X101763892Y-66404523D02*
X101801988Y-66366428D01*
X101801988Y-66366428D02*
X101878178Y-66328332D01*
X101878178Y-66328332D02*
X101992464Y-66328332D01*
X101992464Y-66328332D02*
X102068654Y-66366428D01*
X102068654Y-66366428D02*
X102106750Y-66404523D01*
X102106750Y-66404523D02*
X102144845Y-66480713D01*
X102144845Y-66480713D02*
X102144845Y-66785475D01*
X102144845Y-66785475D02*
X101344845Y-66785475D01*
X101344845Y-66785475D02*
X101344845Y-66518809D01*
X101344845Y-66518809D02*
X101382940Y-66442618D01*
X101382940Y-66442618D02*
X101421035Y-66404523D01*
X101421035Y-66404523D02*
X101497226Y-66366428D01*
X101497226Y-66366428D02*
X101573416Y-66366428D01*
X101573416Y-66366428D02*
X101649607Y-66404523D01*
X101649607Y-66404523D02*
X101687702Y-66442618D01*
X101687702Y-66442618D02*
X101725797Y-66518809D01*
X101725797Y-66518809D02*
X101725797Y-66785475D01*
X101344845Y-65833094D02*
X101344845Y-65756904D01*
X101344845Y-65756904D02*
X101382940Y-65680713D01*
X101382940Y-65680713D02*
X101421035Y-65642618D01*
X101421035Y-65642618D02*
X101497226Y-65604523D01*
X101497226Y-65604523D02*
X101649607Y-65566428D01*
X101649607Y-65566428D02*
X101840083Y-65566428D01*
X101840083Y-65566428D02*
X101992464Y-65604523D01*
X101992464Y-65604523D02*
X102068654Y-65642618D01*
X102068654Y-65642618D02*
X102106750Y-65680713D01*
X102106750Y-65680713D02*
X102144845Y-65756904D01*
X102144845Y-65756904D02*
X102144845Y-65833094D01*
X102144845Y-65833094D02*
X102106750Y-65909285D01*
X102106750Y-65909285D02*
X102068654Y-65947380D01*
X102068654Y-65947380D02*
X101992464Y-65985475D01*
X101992464Y-65985475D02*
X101840083Y-66023571D01*
X101840083Y-66023571D02*
X101649607Y-66023571D01*
X101649607Y-66023571D02*
X101497226Y-65985475D01*
X101497226Y-65985475D02*
X101421035Y-65947380D01*
X101421035Y-65947380D02*
X101382940Y-65909285D01*
X101382940Y-65909285D02*
X101344845Y-65833094D01*
X117384845Y-77707475D02*
X116584845Y-77707475D01*
X116584845Y-77707475D02*
X116584845Y-77516999D01*
X116584845Y-77516999D02*
X116622940Y-77402713D01*
X116622940Y-77402713D02*
X116699130Y-77326523D01*
X116699130Y-77326523D02*
X116775321Y-77288428D01*
X116775321Y-77288428D02*
X116927702Y-77250332D01*
X116927702Y-77250332D02*
X117041988Y-77250332D01*
X117041988Y-77250332D02*
X117194369Y-77288428D01*
X117194369Y-77288428D02*
X117270559Y-77326523D01*
X117270559Y-77326523D02*
X117346750Y-77402713D01*
X117346750Y-77402713D02*
X117384845Y-77516999D01*
X117384845Y-77516999D02*
X117384845Y-77707475D01*
X116851511Y-76564618D02*
X117384845Y-76564618D01*
X116546750Y-76755094D02*
X117118178Y-76945571D01*
X117118178Y-76945571D02*
X117118178Y-76450332D01*
X127455523Y-73120167D02*
X128021209Y-72554481D01*
X128021209Y-72554481D02*
X128155896Y-72689168D01*
X128155896Y-72689168D02*
X128209770Y-72796918D01*
X128209770Y-72796918D02*
X128209770Y-72904668D01*
X128209770Y-72904668D02*
X128182833Y-72985480D01*
X128182833Y-72985480D02*
X128102021Y-73120167D01*
X128102021Y-73120167D02*
X128021209Y-73200979D01*
X128021209Y-73200979D02*
X127886522Y-73281791D01*
X127886522Y-73281791D02*
X127805709Y-73308729D01*
X127805709Y-73308729D02*
X127697960Y-73308729D01*
X127697960Y-73308729D02*
X127590210Y-73254854D01*
X127590210Y-73254854D02*
X127455523Y-73120167D01*
X128856268Y-73389541D02*
X128586894Y-73120167D01*
X128586894Y-73120167D02*
X128290583Y-73362604D01*
X128290583Y-73362604D02*
X128344457Y-73362604D01*
X128344457Y-73362604D02*
X128425270Y-73389541D01*
X128425270Y-73389541D02*
X128559957Y-73524228D01*
X128559957Y-73524228D02*
X128586894Y-73605040D01*
X128586894Y-73605040D02*
X128586894Y-73658915D01*
X128586894Y-73658915D02*
X128559957Y-73739727D01*
X128559957Y-73739727D02*
X128425270Y-73874414D01*
X128425270Y-73874414D02*
X128344457Y-73901352D01*
X128344457Y-73901352D02*
X128290583Y-73901352D01*
X128290583Y-73901352D02*
X128209770Y-73874414D01*
X128209770Y-73874414D02*
X128075083Y-73739727D01*
X128075083Y-73739727D02*
X128048146Y-73658915D01*
X128048146Y-73658915D02*
X128048146Y-73605040D01*
X112304845Y-77707475D02*
X111504845Y-77707475D01*
X111504845Y-77707475D02*
X111504845Y-77516999D01*
X111504845Y-77516999D02*
X111542940Y-77402713D01*
X111542940Y-77402713D02*
X111619130Y-77326523D01*
X111619130Y-77326523D02*
X111695321Y-77288428D01*
X111695321Y-77288428D02*
X111847702Y-77250332D01*
X111847702Y-77250332D02*
X111961988Y-77250332D01*
X111961988Y-77250332D02*
X112114369Y-77288428D01*
X112114369Y-77288428D02*
X112190559Y-77326523D01*
X112190559Y-77326523D02*
X112266750Y-77402713D01*
X112266750Y-77402713D02*
X112304845Y-77516999D01*
X112304845Y-77516999D02*
X112304845Y-77707475D01*
X112304845Y-76488428D02*
X112304845Y-76945571D01*
X112304845Y-76716999D02*
X111504845Y-76716999D01*
X111504845Y-76716999D02*
X111619130Y-76793190D01*
X111619130Y-76793190D02*
X111695321Y-76869380D01*
X111695321Y-76869380D02*
X111733416Y-76945571D01*
X122464845Y-77707475D02*
X121664845Y-77707475D01*
X121664845Y-77707475D02*
X121664845Y-77516999D01*
X121664845Y-77516999D02*
X121702940Y-77402713D01*
X121702940Y-77402713D02*
X121779130Y-77326523D01*
X121779130Y-77326523D02*
X121855321Y-77288428D01*
X121855321Y-77288428D02*
X122007702Y-77250332D01*
X122007702Y-77250332D02*
X122121988Y-77250332D01*
X122121988Y-77250332D02*
X122274369Y-77288428D01*
X122274369Y-77288428D02*
X122350559Y-77326523D01*
X122350559Y-77326523D02*
X122426750Y-77402713D01*
X122426750Y-77402713D02*
X122464845Y-77516999D01*
X122464845Y-77516999D02*
X122464845Y-77707475D01*
X121664845Y-76983666D02*
X121664845Y-76450332D01*
X121664845Y-76450332D02*
X122464845Y-76793190D01*
X128614808Y-65486634D02*
X128567668Y-65392353D01*
X128567668Y-65392353D02*
X128567668Y-65345213D01*
X128567668Y-65345213D02*
X128591238Y-65274502D01*
X128591238Y-65274502D02*
X128661949Y-65203791D01*
X128661949Y-65203791D02*
X128732660Y-65180221D01*
X128732660Y-65180221D02*
X128779800Y-65180221D01*
X128779800Y-65180221D02*
X128850511Y-65203791D01*
X128850511Y-65203791D02*
X129039073Y-65392353D01*
X129039073Y-65392353D02*
X128544098Y-65887328D01*
X128544098Y-65887328D02*
X128379106Y-65722336D01*
X128379106Y-65722336D02*
X128355536Y-65651626D01*
X128355536Y-65651626D02*
X128355536Y-65604485D01*
X128355536Y-65604485D02*
X128379106Y-65533774D01*
X128379106Y-65533774D02*
X128426247Y-65486634D01*
X128426247Y-65486634D02*
X128496957Y-65463064D01*
X128496957Y-65463064D02*
X128544098Y-65463064D01*
X128544098Y-65463064D02*
X128614808Y-65486634D01*
X128614808Y-65486634D02*
X128779800Y-65651626D01*
X127836991Y-65180221D02*
X127931272Y-65274502D01*
X127931272Y-65274502D02*
X128001983Y-65298072D01*
X128001983Y-65298072D02*
X128049123Y-65298072D01*
X128049123Y-65298072D02*
X128166974Y-65274502D01*
X128166974Y-65274502D02*
X128284825Y-65203791D01*
X128284825Y-65203791D02*
X128473387Y-65015229D01*
X128473387Y-65015229D02*
X128496957Y-64944519D01*
X128496957Y-64944519D02*
X128496957Y-64897378D01*
X128496957Y-64897378D02*
X128473387Y-64826668D01*
X128473387Y-64826668D02*
X128379106Y-64732387D01*
X128379106Y-64732387D02*
X128308396Y-64708816D01*
X128308396Y-64708816D02*
X128261255Y-64708816D01*
X128261255Y-64708816D02*
X128190544Y-64732387D01*
X128190544Y-64732387D02*
X128072693Y-64850238D01*
X128072693Y-64850238D02*
X128049123Y-64920949D01*
X128049123Y-64920949D02*
X128049123Y-64968089D01*
X128049123Y-64968089D02*
X128072693Y-65038800D01*
X128072693Y-65038800D02*
X128166974Y-65133081D01*
X128166974Y-65133081D02*
X128237685Y-65156651D01*
X128237685Y-65156651D02*
X128284825Y-65156651D01*
X128284825Y-65156651D02*
X128355536Y-65133081D01*
X103922940Y-66804523D02*
X103884845Y-66880713D01*
X103884845Y-66880713D02*
X103884845Y-66994999D01*
X103884845Y-66994999D02*
X103922940Y-67109285D01*
X103922940Y-67109285D02*
X103999130Y-67185475D01*
X103999130Y-67185475D02*
X104075321Y-67223570D01*
X104075321Y-67223570D02*
X104227702Y-67261666D01*
X104227702Y-67261666D02*
X104341988Y-67261666D01*
X104341988Y-67261666D02*
X104494369Y-67223570D01*
X104494369Y-67223570D02*
X104570559Y-67185475D01*
X104570559Y-67185475D02*
X104646750Y-67109285D01*
X104646750Y-67109285D02*
X104684845Y-66994999D01*
X104684845Y-66994999D02*
X104684845Y-66918808D01*
X104684845Y-66918808D02*
X104646750Y-66804523D01*
X104646750Y-66804523D02*
X104608654Y-66766427D01*
X104608654Y-66766427D02*
X104341988Y-66766427D01*
X104341988Y-66766427D02*
X104341988Y-66918808D01*
X104684845Y-66423570D02*
X103884845Y-66423570D01*
X103884845Y-66423570D02*
X104684845Y-65966427D01*
X104684845Y-65966427D02*
X103884845Y-65966427D01*
X104684845Y-65585475D02*
X103884845Y-65585475D01*
X103884845Y-65585475D02*
X103884845Y-65394999D01*
X103884845Y-65394999D02*
X103922940Y-65280713D01*
X103922940Y-65280713D02*
X103999130Y-65204523D01*
X103999130Y-65204523D02*
X104075321Y-65166428D01*
X104075321Y-65166428D02*
X104227702Y-65128332D01*
X104227702Y-65128332D02*
X104341988Y-65128332D01*
X104341988Y-65128332D02*
X104494369Y-65166428D01*
X104494369Y-65166428D02*
X104570559Y-65204523D01*
X104570559Y-65204523D02*
X104646750Y-65280713D01*
X104646750Y-65280713D02*
X104684845Y-65394999D01*
X104684845Y-65394999D02*
X104684845Y-65585475D01*
X114425797Y-66461666D02*
X114425797Y-66728332D01*
X114844845Y-66728332D02*
X114044845Y-66728332D01*
X114044845Y-66728332D02*
X114044845Y-66347380D01*
X114044845Y-65661666D02*
X114044845Y-66042618D01*
X114044845Y-66042618D02*
X114425797Y-66080714D01*
X114425797Y-66080714D02*
X114387702Y-66042618D01*
X114387702Y-66042618D02*
X114349607Y-65966428D01*
X114349607Y-65966428D02*
X114349607Y-65775952D01*
X114349607Y-65775952D02*
X114387702Y-65699761D01*
X114387702Y-65699761D02*
X114425797Y-65661666D01*
X114425797Y-65661666D02*
X114501988Y-65623571D01*
X114501988Y-65623571D02*
X114692464Y-65623571D01*
X114692464Y-65623571D02*
X114768654Y-65661666D01*
X114768654Y-65661666D02*
X114806750Y-65699761D01*
X114806750Y-65699761D02*
X114844845Y-65775952D01*
X114844845Y-65775952D02*
X114844845Y-65966428D01*
X114844845Y-65966428D02*
X114806750Y-66042618D01*
X114806750Y-66042618D02*
X114768654Y-66080714D01*
X125700396Y-77942417D02*
X125754271Y-78050167D01*
X125754271Y-78050167D02*
X125754271Y-78104042D01*
X125754271Y-78104042D02*
X125727334Y-78184854D01*
X125727334Y-78184854D02*
X125646522Y-78265666D01*
X125646522Y-78265666D02*
X125565709Y-78292604D01*
X125565709Y-78292604D02*
X125511835Y-78292604D01*
X125511835Y-78292604D02*
X125431022Y-78265666D01*
X125431022Y-78265666D02*
X125215523Y-78050167D01*
X125215523Y-78050167D02*
X125781209Y-77484481D01*
X125781209Y-77484481D02*
X125969770Y-77673043D01*
X125969770Y-77673043D02*
X125996708Y-77753855D01*
X125996708Y-77753855D02*
X125996708Y-77807730D01*
X125996708Y-77807730D02*
X125969770Y-77888542D01*
X125969770Y-77888542D02*
X125915896Y-77942417D01*
X125915896Y-77942417D02*
X125835083Y-77969355D01*
X125835083Y-77969355D02*
X125781209Y-77969355D01*
X125781209Y-77969355D02*
X125700396Y-77942417D01*
X125700396Y-77942417D02*
X125511835Y-77753855D01*
X126400769Y-78481165D02*
X126023645Y-78858289D01*
X126481581Y-78130979D02*
X125942833Y-78400353D01*
X125942833Y-78400353D02*
X126293019Y-78750539D01*
X111885797Y-66461666D02*
X111885797Y-66728332D01*
X112304845Y-66728332D02*
X111504845Y-66728332D01*
X111504845Y-66728332D02*
X111504845Y-66347380D01*
X111771511Y-65699761D02*
X112304845Y-65699761D01*
X111466750Y-65890237D02*
X112038178Y-66080714D01*
X112038178Y-66080714D02*
X112038178Y-65585475D01*
%TO.C,J4*%
X284413930Y-76095398D02*
X284377835Y-76210331D01*
X284377835Y-76210331D02*
X284340410Y-76249085D01*
X284340410Y-76249085D02*
X284264896Y-76288504D01*
X284264896Y-76288504D02*
X284150628Y-76290499D01*
X284150628Y-76290499D02*
X284073784Y-76253739D01*
X284073784Y-76253739D02*
X284035030Y-76216315D01*
X284035030Y-76216315D02*
X283995611Y-76140801D01*
X283995611Y-76140801D02*
X283990292Y-75836085D01*
X283990292Y-75836085D02*
X284790170Y-75822123D01*
X284790170Y-75822123D02*
X284794824Y-76088749D01*
X284794824Y-76088749D02*
X284758064Y-76165593D01*
X284758064Y-76165593D02*
X284720640Y-76204347D01*
X284720640Y-76204347D02*
X284645126Y-76243766D01*
X284645126Y-76243766D02*
X284568947Y-76245096D01*
X284568947Y-76245096D02*
X284492103Y-76208336D01*
X284492103Y-76208336D02*
X284453349Y-76170912D01*
X284453349Y-76170912D02*
X284413930Y-76095398D01*
X284413930Y-76095398D02*
X284409276Y-75828772D01*
X284308969Y-76630644D02*
X284319607Y-77240075D01*
X284009573Y-76940679D02*
X284619004Y-76930041D01*
X284379025Y-74095703D02*
X284342930Y-74210636D01*
X284342930Y-74210636D02*
X284305505Y-74249390D01*
X284305505Y-74249390D02*
X284229991Y-74288809D01*
X284229991Y-74288809D02*
X284115723Y-74290804D01*
X284115723Y-74290804D02*
X284038879Y-74254044D01*
X284038879Y-74254044D02*
X284000125Y-74216620D01*
X284000125Y-74216620D02*
X283960706Y-74141106D01*
X283960706Y-74141106D02*
X283955387Y-73836390D01*
X283955387Y-73836390D02*
X284755265Y-73822428D01*
X284755265Y-73822428D02*
X284759919Y-74089054D01*
X284759919Y-74089054D02*
X284723159Y-74165898D01*
X284723159Y-74165898D02*
X284685735Y-74204652D01*
X284685735Y-74204652D02*
X284610221Y-74244071D01*
X284610221Y-74244071D02*
X284534042Y-74245401D01*
X284534042Y-74245401D02*
X284457198Y-74208641D01*
X284457198Y-74208641D02*
X284418444Y-74171217D01*
X284418444Y-74171217D02*
X284379025Y-74095703D01*
X284379025Y-74095703D02*
X284374371Y-73829077D01*
X284274064Y-74630949D02*
X284284702Y-75240380D01*
X284344120Y-72096007D02*
X284308025Y-72210940D01*
X284308025Y-72210940D02*
X284270600Y-72249694D01*
X284270600Y-72249694D02*
X284195086Y-72289113D01*
X284195086Y-72289113D02*
X284080818Y-72291108D01*
X284080818Y-72291108D02*
X284003974Y-72254348D01*
X284003974Y-72254348D02*
X283965220Y-72216924D01*
X283965220Y-72216924D02*
X283925801Y-72141410D01*
X283925801Y-72141410D02*
X283920482Y-71836694D01*
X283920482Y-71836694D02*
X284720360Y-71822732D01*
X284720360Y-71822732D02*
X284725014Y-72089358D01*
X284725014Y-72089358D02*
X284688254Y-72166202D01*
X284688254Y-72166202D02*
X284650830Y-72204956D01*
X284650830Y-72204956D02*
X284575316Y-72244375D01*
X284575316Y-72244375D02*
X284499137Y-72245705D01*
X284499137Y-72245705D02*
X284422293Y-72208945D01*
X284422293Y-72208945D02*
X284383539Y-72171521D01*
X284383539Y-72171521D02*
X284344120Y-72096007D01*
X284344120Y-72096007D02*
X284339466Y-71829381D01*
X284239159Y-72631253D02*
X284249797Y-73240684D01*
X283939763Y-72941288D02*
X284549194Y-72930650D01*
%TO.C,H9*%
X206271381Y-108897561D02*
X206271381Y-107897561D01*
X206271381Y-108373751D02*
X206842809Y-108373751D01*
X206842809Y-108897561D02*
X206842809Y-107897561D01*
X207366619Y-108897561D02*
X207557095Y-108897561D01*
X207557095Y-108897561D02*
X207652333Y-108849942D01*
X207652333Y-108849942D02*
X207699952Y-108802322D01*
X207699952Y-108802322D02*
X207795190Y-108659465D01*
X207795190Y-108659465D02*
X207842809Y-108468989D01*
X207842809Y-108468989D02*
X207842809Y-108088037D01*
X207842809Y-108088037D02*
X207795190Y-107992799D01*
X207795190Y-107992799D02*
X207747571Y-107945180D01*
X207747571Y-107945180D02*
X207652333Y-107897561D01*
X207652333Y-107897561D02*
X207461857Y-107897561D01*
X207461857Y-107897561D02*
X207366619Y-107945180D01*
X207366619Y-107945180D02*
X207319000Y-107992799D01*
X207319000Y-107992799D02*
X207271381Y-108088037D01*
X207271381Y-108088037D02*
X207271381Y-108326132D01*
X207271381Y-108326132D02*
X207319000Y-108421370D01*
X207319000Y-108421370D02*
X207366619Y-108468989D01*
X207366619Y-108468989D02*
X207461857Y-108516608D01*
X207461857Y-108516608D02*
X207652333Y-108516608D01*
X207652333Y-108516608D02*
X207747571Y-108468989D01*
X207747571Y-108468989D02*
X207795190Y-108421370D01*
X207795190Y-108421370D02*
X207842809Y-108326132D01*
%TO.C,H3*%
X333844714Y-138927902D02*
X334344714Y-138061877D01*
X334106619Y-138474270D02*
X334601491Y-138759984D01*
X334339586Y-139213616D02*
X334839586Y-138347591D01*
X335169500Y-138538067D02*
X335705611Y-138847591D01*
X335705611Y-138847591D02*
X335226460Y-139010839D01*
X335226460Y-139010839D02*
X335350178Y-139082267D01*
X335350178Y-139082267D02*
X335408847Y-139171126D01*
X335408847Y-139171126D02*
X335426277Y-139236174D01*
X335426277Y-139236174D02*
X335419897Y-139342462D01*
X335419897Y-139342462D02*
X335300849Y-139548659D01*
X335300849Y-139548659D02*
X335211991Y-139607328D01*
X335211991Y-139607328D02*
X335146942Y-139624758D01*
X335146942Y-139624758D02*
X335040654Y-139618378D01*
X335040654Y-139618378D02*
X334793218Y-139475521D01*
X334793218Y-139475521D02*
X334734549Y-139386663D01*
X334734549Y-139386663D02*
X334717119Y-139321614D01*
%TO.C,JP1*%
X152692619Y-75567333D02*
X153406904Y-75567333D01*
X153406904Y-75567333D02*
X153549761Y-75614952D01*
X153549761Y-75614952D02*
X153645000Y-75710190D01*
X153645000Y-75710190D02*
X153692619Y-75853047D01*
X153692619Y-75853047D02*
X153692619Y-75948285D01*
X153692619Y-75091142D02*
X152692619Y-75091142D01*
X152692619Y-75091142D02*
X152692619Y-74710190D01*
X152692619Y-74710190D02*
X152740238Y-74614952D01*
X152740238Y-74614952D02*
X152787857Y-74567333D01*
X152787857Y-74567333D02*
X152883095Y-74519714D01*
X152883095Y-74519714D02*
X153025952Y-74519714D01*
X153025952Y-74519714D02*
X153121190Y-74567333D01*
X153121190Y-74567333D02*
X153168809Y-74614952D01*
X153168809Y-74614952D02*
X153216428Y-74710190D01*
X153216428Y-74710190D02*
X153216428Y-75091142D01*
X153692619Y-73567333D02*
X153692619Y-74138761D01*
X153692619Y-73853047D02*
X152692619Y-73853047D01*
X152692619Y-73853047D02*
X152835476Y-73948285D01*
X152835476Y-73948285D02*
X152930714Y-74043523D01*
X152930714Y-74043523D02*
X152978333Y-74138761D01*
X155492619Y-77048285D02*
X155492619Y-77619713D01*
X155492619Y-77333999D02*
X154492619Y-77333999D01*
X154492619Y-77333999D02*
X154635476Y-77429237D01*
X154635476Y-77429237D02*
X154730714Y-77524475D01*
X154730714Y-77524475D02*
X154778333Y-77619713D01*
X154492619Y-72467332D02*
X154492619Y-71848285D01*
X154492619Y-71848285D02*
X154873571Y-72181618D01*
X154873571Y-72181618D02*
X154873571Y-72038761D01*
X154873571Y-72038761D02*
X154921190Y-71943523D01*
X154921190Y-71943523D02*
X154968809Y-71895904D01*
X154968809Y-71895904D02*
X155064047Y-71848285D01*
X155064047Y-71848285D02*
X155302142Y-71848285D01*
X155302142Y-71848285D02*
X155397380Y-71895904D01*
X155397380Y-71895904D02*
X155445000Y-71943523D01*
X155445000Y-71943523D02*
X155492619Y-72038761D01*
X155492619Y-72038761D02*
X155492619Y-72324475D01*
X155492619Y-72324475D02*
X155445000Y-72419713D01*
X155445000Y-72419713D02*
X155397380Y-72467332D01*
%TO.C,J5*%
X223305263Y-67164015D02*
X223305263Y-67878300D01*
X223305263Y-67878300D02*
X223257644Y-68021157D01*
X223257644Y-68021157D02*
X223162406Y-68116396D01*
X223162406Y-68116396D02*
X223019549Y-68164015D01*
X223019549Y-68164015D02*
X222924311Y-68164015D01*
X224257644Y-67164015D02*
X223781454Y-67164015D01*
X223781454Y-67164015D02*
X223733835Y-67640205D01*
X223733835Y-67640205D02*
X223781454Y-67592586D01*
X223781454Y-67592586D02*
X223876692Y-67544967D01*
X223876692Y-67544967D02*
X224114787Y-67544967D01*
X224114787Y-67544967D02*
X224210025Y-67592586D01*
X224210025Y-67592586D02*
X224257644Y-67640205D01*
X224257644Y-67640205D02*
X224305263Y-67735443D01*
X224305263Y-67735443D02*
X224305263Y-67973538D01*
X224305263Y-67973538D02*
X224257644Y-68068776D01*
X224257644Y-68068776D02*
X224210025Y-68116396D01*
X224210025Y-68116396D02*
X224114787Y-68164015D01*
X224114787Y-68164015D02*
X223876692Y-68164015D01*
X223876692Y-68164015D02*
X223781454Y-68116396D01*
X223781454Y-68116396D02*
X223733835Y-68068776D01*
%TO.C,H2*%
X291090302Y-72306748D02*
X291559774Y-71423801D01*
X291336216Y-71844252D02*
X291840757Y-72112521D01*
X291594844Y-72575018D02*
X292064315Y-71692070D01*
X292398010Y-71977362D02*
X292462410Y-71957673D01*
X292462410Y-71957673D02*
X292568857Y-71960340D01*
X292568857Y-71960340D02*
X292779082Y-72072119D01*
X292779082Y-72072119D02*
X292840817Y-72158875D01*
X292840817Y-72158875D02*
X292860506Y-72223276D01*
X292860506Y-72223276D02*
X292857839Y-72329722D01*
X292857839Y-72329722D02*
X292813128Y-72413812D01*
X292813128Y-72413812D02*
X292704015Y-72517592D01*
X292704015Y-72517592D02*
X291931204Y-72753864D01*
X291931204Y-72753864D02*
X292477791Y-73044489D01*
%TO.C,H1*%
X249228452Y-141479767D02*
X249193553Y-140480376D01*
X249210171Y-140956276D02*
X249781252Y-140936334D01*
X249799533Y-141459824D02*
X249764633Y-140460433D01*
X250798923Y-141424925D02*
X250227843Y-141444867D01*
X250513383Y-141434896D02*
X250478484Y-140435505D01*
X250478484Y-140435505D02*
X250388289Y-140581599D01*
X250388289Y-140581599D02*
X250296433Y-140680103D01*
X250296433Y-140680103D02*
X250202915Y-140731017D01*
%TO.C,U5*%
X320802619Y-72625904D02*
X321612142Y-72625904D01*
X321612142Y-72625904D02*
X321707380Y-72578285D01*
X321707380Y-72578285D02*
X321755000Y-72530666D01*
X321755000Y-72530666D02*
X321802619Y-72435428D01*
X321802619Y-72435428D02*
X321802619Y-72244952D01*
X321802619Y-72244952D02*
X321755000Y-72149714D01*
X321755000Y-72149714D02*
X321707380Y-72102095D01*
X321707380Y-72102095D02*
X321612142Y-72054476D01*
X321612142Y-72054476D02*
X320802619Y-72054476D01*
X320802619Y-71102095D02*
X320802619Y-71578285D01*
X320802619Y-71578285D02*
X321278809Y-71625904D01*
X321278809Y-71625904D02*
X321231190Y-71578285D01*
X321231190Y-71578285D02*
X321183571Y-71483047D01*
X321183571Y-71483047D02*
X321183571Y-71244952D01*
X321183571Y-71244952D02*
X321231190Y-71149714D01*
X321231190Y-71149714D02*
X321278809Y-71102095D01*
X321278809Y-71102095D02*
X321374047Y-71054476D01*
X321374047Y-71054476D02*
X321612142Y-71054476D01*
X321612142Y-71054476D02*
X321707380Y-71102095D01*
X321707380Y-71102095D02*
X321755000Y-71149714D01*
X321755000Y-71149714D02*
X321802619Y-71244952D01*
X321802619Y-71244952D02*
X321802619Y-71483047D01*
X321802619Y-71483047D02*
X321755000Y-71578285D01*
X321755000Y-71578285D02*
X321707380Y-71625904D01*
%TO.C,SW37*%
X287286476Y-68813000D02*
X287429333Y-68860619D01*
X287429333Y-68860619D02*
X287667428Y-68860619D01*
X287667428Y-68860619D02*
X287762666Y-68813000D01*
X287762666Y-68813000D02*
X287810285Y-68765380D01*
X287810285Y-68765380D02*
X287857904Y-68670142D01*
X287857904Y-68670142D02*
X287857904Y-68574904D01*
X287857904Y-68574904D02*
X287810285Y-68479666D01*
X287810285Y-68479666D02*
X287762666Y-68432047D01*
X287762666Y-68432047D02*
X287667428Y-68384428D01*
X287667428Y-68384428D02*
X287476952Y-68336809D01*
X287476952Y-68336809D02*
X287381714Y-68289190D01*
X287381714Y-68289190D02*
X287334095Y-68241571D01*
X287334095Y-68241571D02*
X287286476Y-68146333D01*
X287286476Y-68146333D02*
X287286476Y-68051095D01*
X287286476Y-68051095D02*
X287334095Y-67955857D01*
X287334095Y-67955857D02*
X287381714Y-67908238D01*
X287381714Y-67908238D02*
X287476952Y-67860619D01*
X287476952Y-67860619D02*
X287715047Y-67860619D01*
X287715047Y-67860619D02*
X287857904Y-67908238D01*
X288191238Y-67860619D02*
X288429333Y-68860619D01*
X288429333Y-68860619D02*
X288619809Y-68146333D01*
X288619809Y-68146333D02*
X288810285Y-68860619D01*
X288810285Y-68860619D02*
X289048381Y-67860619D01*
X289334095Y-67860619D02*
X289953142Y-67860619D01*
X289953142Y-67860619D02*
X289619809Y-68241571D01*
X289619809Y-68241571D02*
X289762666Y-68241571D01*
X289762666Y-68241571D02*
X289857904Y-68289190D01*
X289857904Y-68289190D02*
X289905523Y-68336809D01*
X289905523Y-68336809D02*
X289953142Y-68432047D01*
X289953142Y-68432047D02*
X289953142Y-68670142D01*
X289953142Y-68670142D02*
X289905523Y-68765380D01*
X289905523Y-68765380D02*
X289857904Y-68813000D01*
X289857904Y-68813000D02*
X289762666Y-68860619D01*
X289762666Y-68860619D02*
X289476952Y-68860619D01*
X289476952Y-68860619D02*
X289381714Y-68813000D01*
X289381714Y-68813000D02*
X289334095Y-68765380D01*
X290286476Y-67860619D02*
X290953142Y-67860619D01*
X290953142Y-67860619D02*
X290524571Y-68860619D01*
%TO.C,H5*%
X195829026Y-142098876D02*
X195794127Y-141099485D01*
X195810745Y-141575385D02*
X196381826Y-141555443D01*
X196400107Y-142078933D02*
X196365207Y-141079542D01*
X197317008Y-141046305D02*
X196841107Y-141062924D01*
X196841107Y-141062924D02*
X196810136Y-141540486D01*
X196810136Y-141540486D02*
X196856064Y-141491234D01*
X196856064Y-141491234D02*
X196949582Y-141440320D01*
X196949582Y-141440320D02*
X197187533Y-141432011D01*
X197187533Y-141432011D02*
X197284375Y-141476277D01*
X197284375Y-141476277D02*
X197333627Y-141522205D01*
X197333627Y-141522205D02*
X197384540Y-141615723D01*
X197384540Y-141615723D02*
X197392850Y-141853674D01*
X197392850Y-141853674D02*
X197348583Y-141950516D01*
X197348583Y-141950516D02*
X197302655Y-141999767D01*
X197302655Y-141999767D02*
X197209137Y-142050681D01*
X197209137Y-142050681D02*
X196971187Y-142058991D01*
X196971187Y-142058991D02*
X196874345Y-142014724D01*
X196874345Y-142014724D02*
X196825093Y-141968796D01*
D11*
%TO.C,SW47*%
X264053588Y-70188000D02*
G75*
G03*
X264053588Y-70188000I-3000000J0D01*
G01*
X267153588Y-76088000D02*
X263053588Y-76088000D01*
X267153588Y-73688000D02*
X267153588Y-76088000D01*
X267153588Y-68888000D02*
X267153588Y-71488000D01*
X267153588Y-64288000D02*
X267153588Y-66688000D01*
X263053588Y-64288000D02*
X267153588Y-64288000D01*
X261053588Y-69688000D02*
X261053588Y-70688000D01*
X260553588Y-70188000D02*
X261553588Y-70188000D01*
X259053588Y-76088000D02*
X254953588Y-76088000D01*
X259053588Y-64288000D02*
X254953588Y-64288000D01*
X254953588Y-64288000D02*
X254953588Y-76088000D01*
D12*
%TO.C,SW36*%
X252699547Y-111015504D02*
G75*
G03*
X252699547Y-111015504I-30000000J0D01*
G01*
X251699547Y-111015504D02*
G75*
G03*
X251699547Y-111015504I-29000000J0D01*
G01*
X246699548Y-111015504D02*
G75*
G03*
X246699548Y-111015504I-24000001J0D01*
G01*
X246193047Y-111015504D02*
G75*
G03*
X246193047Y-111015504I-23493500J0D01*
G01*
D11*
%TO.C,JP3*%
X173874000Y-72372000D02*
X173874000Y-72972000D01*
X173224000Y-73672000D02*
X170424000Y-73672000D01*
X170424000Y-71672000D02*
X173224000Y-71672000D01*
X169774000Y-72972000D02*
X169774000Y-72372000D01*
X173174000Y-73672000D02*
G75*
G03*
X173874000Y-72972000I1J699999D01*
G01*
X173874000Y-72372000D02*
G75*
G03*
X173174000Y-71672000I-699999J1D01*
G01*
X169774000Y-72972000D02*
G75*
G03*
X170474000Y-73672000I700000J0D01*
G01*
X170474000Y-71672000D02*
G75*
G03*
X169774000Y-72372000I0J-700000D01*
G01*
D13*
%TO.C,U1*%
X97064750Y-62766000D02*
X97064750Y-80546000D01*
X97064750Y-80546000D02*
X99604750Y-80546000D01*
X99604750Y-62766000D02*
X97064750Y-62766000D01*
X99604750Y-80546000D02*
X130084750Y-80546000D01*
X130084750Y-62766000D02*
X99604750Y-62766000D01*
X130084750Y-80546000D02*
X130084750Y-62766000D01*
%TO.C,G1*%
G36*
X199954181Y-78770513D02*
G01*
X200003440Y-78810333D01*
X200215405Y-78950438D01*
X200411921Y-79021682D01*
X200438996Y-79023859D01*
X200626597Y-79059386D01*
X200882747Y-79146666D01*
X200988908Y-79191773D01*
X201219319Y-79314866D01*
X201319479Y-79428757D01*
X201327575Y-79541100D01*
X201251718Y-79718121D01*
X201173333Y-79789783D01*
X200772004Y-79990271D01*
X200465942Y-80122338D01*
X200203688Y-80202090D01*
X199933781Y-80245633D01*
X199649333Y-80266775D01*
X199313253Y-80277950D01*
X199063142Y-80258742D01*
X198829849Y-80194430D01*
X198770230Y-80168519D01*
X199334044Y-80168519D01*
X199440418Y-80181803D01*
X199564667Y-80184273D01*
X199747788Y-80177668D01*
X199798057Y-80160782D01*
X199755167Y-80147581D01*
X199508449Y-80133574D01*
X199374167Y-80147581D01*
X199334044Y-80168519D01*
X198770230Y-80168519D01*
X198618151Y-80102424D01*
X198924055Y-80102424D01*
X199007278Y-80115982D01*
X199117092Y-80100416D01*
X199118403Y-80071514D01*
X199005086Y-80051302D01*
X198956125Y-80064830D01*
X198924055Y-80102424D01*
X198618151Y-80102424D01*
X198544223Y-80070294D01*
X198400500Y-80000919D01*
X198067303Y-79825502D01*
X197871844Y-79687817D01*
X197791661Y-79570734D01*
X197790891Y-79564894D01*
X197967130Y-79564894D01*
X197983555Y-79585777D01*
X198163983Y-79680637D01*
X198474248Y-79758544D01*
X198875487Y-79817150D01*
X199328834Y-79854105D01*
X199795425Y-79867063D01*
X200236396Y-79853673D01*
X200612882Y-79811589D01*
X200834667Y-79758054D01*
X201062017Y-79648460D01*
X201120717Y-79533241D01*
X201011306Y-79413698D01*
X200734325Y-79291135D01*
X200626323Y-79256304D01*
X200324810Y-79146410D01*
X200067835Y-79021366D01*
X199943533Y-78935329D01*
X199681922Y-78788350D01*
X199396867Y-78805550D01*
X199169858Y-78933069D01*
X198967029Y-79051633D01*
X198679997Y-79172728D01*
X198504646Y-79230514D01*
X198174632Y-79347458D01*
X197992352Y-79461037D01*
X197967130Y-79564894D01*
X197790891Y-79564894D01*
X197786667Y-79532873D01*
X197865767Y-79345790D01*
X198080908Y-79184813D01*
X198398845Y-79071908D01*
X198518545Y-79049263D01*
X198814681Y-78960942D01*
X199095273Y-78812994D01*
X199114517Y-78799133D01*
X199412795Y-78634040D01*
X199680192Y-78624342D01*
X199954181Y-78770513D01*
G37*
G36*
X199076056Y-70578761D02*
G01*
X199210619Y-70645884D01*
X199417983Y-70819380D01*
X199549363Y-71005502D01*
X199661059Y-71237853D01*
X199915692Y-71023593D01*
X200125802Y-70864763D01*
X200275236Y-70825440D01*
X200422679Y-70905019D01*
X200542182Y-71017151D01*
X200712331Y-71299520D01*
X200755710Y-71650440D01*
X200672591Y-72026509D01*
X200534148Y-72289111D01*
X200410821Y-72481770D01*
X200346172Y-72604701D01*
X200343648Y-72625223D01*
X200433295Y-72651313D01*
X200639521Y-72700389D01*
X200853348Y-72747813D01*
X201606709Y-72993878D01*
X202281335Y-73385011D01*
X202868482Y-73912088D01*
X203359406Y-74565985D01*
X203745363Y-75337578D01*
X203961484Y-75991002D01*
X204137146Y-76871943D01*
X204179690Y-77690395D01*
X204091088Y-78434726D01*
X203873313Y-79093305D01*
X203528338Y-79654502D01*
X203297553Y-79905674D01*
X203133497Y-80096574D01*
X203042508Y-80270282D01*
X203036000Y-80311213D01*
X202993990Y-80505810D01*
X202889902Y-80749630D01*
X202756652Y-80980591D01*
X202627155Y-81136608D01*
X202583814Y-81164111D01*
X202522865Y-81229419D01*
X202486736Y-81386771D01*
X202471430Y-81664296D01*
X202471097Y-81957720D01*
X202466592Y-82365742D01*
X202436655Y-82662160D01*
X202372186Y-82903914D01*
X202288911Y-83097715D01*
X201999216Y-83510139D01*
X201598745Y-83810371D01*
X201122172Y-83972623D01*
X201109833Y-83974648D01*
X200853301Y-84045049D01*
X200758833Y-84145268D01*
X200828994Y-84270436D01*
X200919333Y-84336351D01*
X201054724Y-84472018D01*
X201079274Y-84606810D01*
X200990510Y-84688363D01*
X200936267Y-84694667D01*
X200744714Y-84750916D01*
X200676567Y-84800500D01*
X200572129Y-84855385D01*
X200466948Y-84767540D01*
X200456095Y-84753100D01*
X200345008Y-84660191D01*
X200287464Y-84689600D01*
X200170607Y-84772688D01*
X200043808Y-84754237D01*
X199988000Y-84651504D01*
X200024031Y-84562005D01*
X200194701Y-84562005D01*
X200209106Y-84571800D01*
X200271360Y-84526771D01*
X200401020Y-84453693D01*
X200487769Y-84515085D01*
X200522456Y-84571666D01*
X200597322Y-84681162D01*
X200634607Y-84644719D01*
X200646566Y-84593526D01*
X200732620Y-84488462D01*
X200818804Y-84492453D01*
X200877675Y-84490385D01*
X200790500Y-84407384D01*
X200771167Y-84392766D01*
X200627424Y-84241397D01*
X200573982Y-84112840D01*
X200559929Y-84024470D01*
X200521135Y-84101282D01*
X200520873Y-84102000D01*
X200434538Y-84254236D01*
X200294723Y-84438104D01*
X200194701Y-84562005D01*
X200024031Y-84562005D01*
X200047751Y-84503086D01*
X200157333Y-84378688D01*
X200303540Y-84229332D01*
X200326937Y-84125538D01*
X200216013Y-84060288D01*
X199959257Y-84026564D01*
X199564667Y-84017333D01*
X199229108Y-84024690D01*
X198968943Y-84044395D01*
X198821942Y-84072903D01*
X198802667Y-84088878D01*
X198859279Y-84193387D01*
X198972000Y-84313667D01*
X199107387Y-84480835D01*
X199137233Y-84615994D01*
X199060939Y-84679921D01*
X198977468Y-84671564D01*
X198820860Y-84686398D01*
X198768458Y-84746356D01*
X198666956Y-84855177D01*
X198546213Y-84820050D01*
X198495213Y-84738550D01*
X198415086Y-84658038D01*
X198291769Y-84696217D01*
X198122939Y-84769921D01*
X198052899Y-84733715D01*
X198040667Y-84610717D01*
X198081973Y-84501925D01*
X198243036Y-84501925D01*
X198337585Y-84496575D01*
X198409279Y-84450947D01*
X198509419Y-84407828D01*
X198577204Y-84508159D01*
X198589633Y-84544715D01*
X198640603Y-84667021D01*
X198677643Y-84634375D01*
X198689945Y-84593526D01*
X198784511Y-84489609D01*
X198871471Y-84495574D01*
X198943225Y-84502347D01*
X198881630Y-84427412D01*
X198834030Y-84385048D01*
X198682885Y-84224381D01*
X198607881Y-84102000D01*
X198569843Y-84029287D01*
X198555351Y-84120188D01*
X198481743Y-84271266D01*
X198372082Y-84359881D01*
X198254426Y-84448654D01*
X198243036Y-84501925D01*
X198081973Y-84501925D01*
X198107258Y-84435328D01*
X198210000Y-84336351D01*
X198354231Y-84210289D01*
X198342263Y-84103560D01*
X198169377Y-84009755D01*
X197919139Y-83941292D01*
X197465786Y-83757019D01*
X197093769Y-83439178D01*
X196830341Y-83014667D01*
X196752954Y-82790314D01*
X196651684Y-82411676D01*
X196436009Y-82548766D01*
X196221927Y-82715796D01*
X196030153Y-82907095D01*
X195839972Y-83128333D01*
X195660558Y-82916667D01*
X195529987Y-82641759D01*
X195508718Y-82379932D01*
X195755449Y-82379932D01*
X195763017Y-82605442D01*
X195800010Y-82734029D01*
X195824186Y-82747333D01*
X195916619Y-82692824D01*
X196090418Y-82550307D01*
X196263380Y-82391779D01*
X196953529Y-82391779D01*
X197035471Y-82771525D01*
X197136746Y-83008085D01*
X197314306Y-83279822D01*
X197538130Y-83488617D01*
X197829181Y-83640568D01*
X198208419Y-83741771D01*
X198696806Y-83798324D01*
X199315303Y-83816325D01*
X199886465Y-83807941D01*
X200369045Y-83791116D01*
X200720605Y-83767484D01*
X200979454Y-83731307D01*
X201183903Y-83676850D01*
X201372260Y-83598376D01*
X201410465Y-83579744D01*
X201784166Y-83304326D01*
X202056741Y-82915514D01*
X202216145Y-82443920D01*
X202250334Y-81920157D01*
X202200774Y-81570964D01*
X202115753Y-81263084D01*
X202007551Y-81085532D01*
X201841290Y-81021754D01*
X201582091Y-81055197D01*
X201290429Y-81138920D01*
X200613775Y-81293959D01*
X199857327Y-81371480D01*
X199093416Y-81368341D01*
X198394372Y-81281397D01*
X198329216Y-81267618D01*
X197995320Y-81188517D01*
X197713665Y-81112230D01*
X197535404Y-81052842D01*
X197515053Y-81043398D01*
X197413070Y-81021342D01*
X197341327Y-81109845D01*
X197283952Y-81288372D01*
X197193901Y-81545446D01*
X197086361Y-81755179D01*
X197071424Y-81776283D01*
X196964564Y-82042110D01*
X196953529Y-82391779D01*
X196263380Y-82391779D01*
X196295671Y-82362183D01*
X196526397Y-82102831D01*
X196751054Y-81786366D01*
X196941510Y-81460189D01*
X197069632Y-81171699D01*
X197108506Y-80992674D01*
X197040946Y-80886010D01*
X196875955Y-80768466D01*
X196863387Y-80761831D01*
X196715026Y-80694743D01*
X196605215Y-80697717D01*
X196482265Y-80790322D01*
X196314978Y-80969438D01*
X196109103Y-81230223D01*
X195936154Y-81504925D01*
X195883591Y-81612787D01*
X195818306Y-81834510D01*
X195774736Y-82106590D01*
X195755449Y-82379932D01*
X195508718Y-82379932D01*
X195500447Y-82278121D01*
X195562615Y-81865459D01*
X195707167Y-81443475D01*
X195924781Y-81051877D01*
X196165115Y-80767908D01*
X196421739Y-80524150D01*
X195963244Y-80105112D01*
X195486688Y-79560137D01*
X195227541Y-79122691D01*
X195107386Y-78869493D01*
X195028325Y-78661715D01*
X194981997Y-78452215D01*
X194960039Y-78193850D01*
X194954086Y-77839475D01*
X194954616Y-77584154D01*
X194957740Y-77540333D01*
X195213941Y-77540333D01*
X195217645Y-77953511D01*
X195239067Y-78253576D01*
X195287929Y-78496562D01*
X195373950Y-78738501D01*
X195453089Y-78918878D01*
X195796549Y-79479745D01*
X196281273Y-79989465D01*
X196882364Y-80429522D01*
X197574928Y-80781400D01*
X198264057Y-81009468D01*
X198743031Y-81086872D01*
X199323559Y-81114747D01*
X199946033Y-81095537D01*
X200550848Y-81031687D01*
X201078397Y-80925640D01*
X201203484Y-80888931D01*
X201783968Y-80702980D01*
X201730540Y-80264656D01*
X201739710Y-79801448D01*
X201986126Y-79801448D01*
X201987955Y-80203989D01*
X202035413Y-80564741D01*
X202128020Y-80824789D01*
X202135379Y-80836480D01*
X202288388Y-81070000D01*
X202486529Y-80883856D01*
X202626375Y-80687951D01*
X202747202Y-80411765D01*
X202782109Y-80291543D01*
X202836966Y-79735583D01*
X202744506Y-79192398D01*
X202567926Y-78798397D01*
X202444492Y-78607286D01*
X202373452Y-78548016D01*
X202326892Y-78603346D01*
X202313091Y-78641000D01*
X202239688Y-78831697D01*
X202135487Y-79075148D01*
X202121277Y-79106667D01*
X202030407Y-79416035D01*
X201986126Y-79801448D01*
X201739710Y-79801448D01*
X201742341Y-79668523D01*
X201810827Y-79360667D01*
X201922641Y-78979753D01*
X201982490Y-78734295D01*
X201972205Y-78593823D01*
X201873619Y-78527866D01*
X201668565Y-78505955D01*
X201338875Y-78497620D01*
X201295431Y-78496264D01*
X200552433Y-78471667D01*
X200205607Y-77625000D01*
X199858780Y-76778333D01*
X199198236Y-76778333D01*
X198504488Y-78471667D01*
X197652432Y-78495631D01*
X196800375Y-78519596D01*
X196445734Y-77579192D01*
X196311724Y-77204589D01*
X196210804Y-76884613D01*
X196152950Y-76653771D01*
X196147517Y-76547492D01*
X196225857Y-76523062D01*
X196431214Y-76505386D01*
X196770688Y-76494394D01*
X197251380Y-76490020D01*
X197880392Y-76492195D01*
X198664823Y-76500851D01*
X199552865Y-76514882D01*
X200288855Y-76528614D01*
X200970622Y-76542940D01*
X201579898Y-76557357D01*
X202098411Y-76571361D01*
X202507891Y-76584446D01*
X202790069Y-76596109D01*
X202926673Y-76605844D01*
X202936531Y-76608309D01*
X202924877Y-76697567D01*
X202865520Y-76910029D01*
X202769063Y-77209918D01*
X202692253Y-77432627D01*
X202413234Y-78222203D01*
X202637976Y-78446946D01*
X202799757Y-78676614D01*
X202947376Y-79004517D01*
X203005421Y-79184961D01*
X203148123Y-79698235D01*
X203360642Y-79385485D01*
X203623258Y-78928098D01*
X203787744Y-78452389D01*
X203868402Y-77905947D01*
X203882667Y-77472547D01*
X203813481Y-76564287D01*
X203612080Y-75727595D01*
X203287700Y-74975084D01*
X202849577Y-74319363D01*
X202306947Y-73773044D01*
X201669044Y-73348738D01*
X200945106Y-73059056D01*
X200588963Y-72975084D01*
X200259663Y-72898448D01*
X200088366Y-72804219D01*
X200064088Y-72664021D01*
X200175843Y-72449476D01*
X200312666Y-72261379D01*
X200490317Y-71939521D01*
X200538333Y-71603324D01*
X200504344Y-71281862D01*
X200400472Y-71112553D01*
X200223857Y-71092047D01*
X200130704Y-71125439D01*
X199916808Y-71308914D01*
X199751105Y-71623910D01*
X199648038Y-72036010D01*
X199621499Y-72338791D01*
X199602614Y-72654664D01*
X199573268Y-72812066D01*
X199539910Y-72821014D01*
X199508985Y-72691525D01*
X199486940Y-72433614D01*
X199480000Y-72118947D01*
X199454276Y-71579054D01*
X199379024Y-71175114D01*
X199257124Y-70916161D01*
X199091455Y-70811230D01*
X199062600Y-70809333D01*
X198900751Y-70883993D01*
X198839173Y-71014074D01*
X198828571Y-71232506D01*
X198864211Y-71554288D01*
X198935828Y-71923142D01*
X199033154Y-72282793D01*
X199109243Y-72494500D01*
X199180787Y-72687813D01*
X199206370Y-72799284D01*
X199204033Y-72806855D01*
X199115540Y-72834521D01*
X198903904Y-72885434D01*
X198611978Y-72949384D01*
X198561297Y-72960015D01*
X197755140Y-73198505D01*
X197067288Y-73555885D01*
X196490076Y-74037881D01*
X196015839Y-74650222D01*
X195810649Y-75015563D01*
X195504894Y-75715777D01*
X195315449Y-76395351D01*
X195226153Y-77122667D01*
X195213941Y-77540333D01*
X194957740Y-77540333D01*
X195023922Y-76612039D01*
X195218196Y-75721534D01*
X195530270Y-74923047D01*
X195952975Y-74226986D01*
X196479144Y-73643759D01*
X197101609Y-73183776D01*
X197813202Y-72857445D01*
X198300250Y-72725936D01*
X198570817Y-72665245D01*
X198767451Y-72610880D01*
X198836921Y-72581301D01*
X198841004Y-72482070D01*
X198805411Y-72271986D01*
X198758220Y-72075396D01*
X198654204Y-71557051D01*
X198638479Y-71130671D01*
X198710325Y-70816306D01*
X198808452Y-70677097D01*
X198948685Y-70573978D01*
X199076056Y-70578761D01*
G37*
D11*
%TO.C,SW48*%
X187647588Y-70188000D02*
G75*
G03*
X187647588Y-70188000I-3000000J0D01*
G01*
X190747588Y-76088000D02*
X186647588Y-76088000D01*
X190747588Y-73688000D02*
X190747588Y-76088000D01*
X190747588Y-68888000D02*
X190747588Y-71488000D01*
X190747588Y-64288000D02*
X190747588Y-66688000D01*
X186647588Y-64288000D02*
X190747588Y-64288000D01*
X184647588Y-69688000D02*
X184647588Y-70688000D01*
X184147588Y-70188000D02*
X185147588Y-70188000D01*
X182647588Y-76088000D02*
X178547588Y-76088000D01*
X182647588Y-64288000D02*
X178547588Y-64288000D01*
X178547588Y-64288000D02*
X178547588Y-76088000D01*
%TO.C,JP1*%
X155330000Y-76784000D02*
X154730000Y-76784000D01*
X154030000Y-76134000D02*
X154030000Y-73334000D01*
X156030000Y-73334000D02*
X156030000Y-76134000D01*
X154730000Y-72684000D02*
X155330000Y-72684000D01*
X154030000Y-76084000D02*
G75*
G03*
X154730000Y-76784000I699999J-1D01*
G01*
X155330000Y-76784000D02*
G75*
G03*
X156030000Y-76084000I1J699999D01*
G01*
X154730000Y-72684000D02*
G75*
G03*
X154030000Y-73384000I0J-700000D01*
G01*
X156030000Y-73384000D02*
G75*
G03*
X155330000Y-72684000I-700000J0D01*
G01*
%TO.C,J5*%
G36*
X232251622Y-76151116D02*
G01*
X232228405Y-76242199D01*
X232151610Y-76276132D01*
X232098627Y-76264226D01*
X232066480Y-76233865D01*
X232051002Y-76191597D01*
X232046835Y-76142782D01*
X232048025Y-76106468D01*
X232051597Y-76072535D01*
X232251622Y-76072535D01*
X232251622Y-76151116D01*
G37*
G36*
X232545707Y-76104682D02*
G01*
X232546897Y-76139210D01*
X232543921Y-76178501D01*
X232532014Y-76211838D01*
X232507011Y-76234460D01*
X232464744Y-76242794D01*
X232397474Y-76214219D01*
X232373066Y-76129685D01*
X232373066Y-76072535D01*
X232542135Y-76072535D01*
X232545707Y-76104682D01*
G37*
G36*
X229971047Y-75638831D02*
G01*
X229971643Y-75659072D01*
X229964797Y-75711757D01*
X229944258Y-75753131D01*
X229909135Y-75779920D01*
X229858533Y-75788850D01*
X229775785Y-75755512D01*
X229753907Y-75711757D01*
X229746615Y-75647166D01*
X229746615Y-75615019D01*
X229968071Y-75615019D01*
X229971047Y-75638831D01*
G37*
G36*
X217221766Y-76943424D02*
G01*
X217222362Y-76964855D01*
X217201526Y-77044627D01*
X217146162Y-77093443D01*
X217066390Y-77118446D01*
X216973521Y-77125590D01*
X216920985Y-77123357D01*
X216872913Y-77116660D01*
X216793737Y-77086894D01*
X216741349Y-77032126D01*
X216722299Y-76948187D01*
X216722299Y-76935090D01*
X216723490Y-76921993D01*
X217218790Y-76921993D01*
X217221766Y-76943424D01*
G37*
G36*
X227368032Y-76204010D02*
G01*
X227368628Y-76225441D01*
X227347792Y-76305213D01*
X227292428Y-76354029D01*
X227212656Y-76379032D01*
X227119787Y-76386176D01*
X227067251Y-76383943D01*
X227019179Y-76377246D01*
X226940003Y-76347480D01*
X226887615Y-76292712D01*
X226868565Y-76208773D01*
X226868565Y-76195676D01*
X226869756Y-76182579D01*
X227365056Y-76182579D01*
X227368032Y-76204010D01*
G37*
G36*
X219468016Y-75748928D02*
G01*
X219516236Y-75752053D01*
X219597794Y-75768722D01*
X219653158Y-75804440D01*
X219673399Y-75864567D01*
X219653158Y-75925289D01*
X219598390Y-75960412D01*
X219516832Y-75977081D01*
X219468165Y-75980206D01*
X219416224Y-75981248D01*
X219364432Y-75980206D01*
X219316211Y-75977081D01*
X219234654Y-75960412D01*
X219179290Y-75925289D01*
X219159049Y-75864567D01*
X219179290Y-75803845D01*
X219234058Y-75768722D01*
X219315616Y-75752053D01*
X219364283Y-75748928D01*
X219416224Y-75747886D01*
X219468016Y-75748928D01*
G37*
G36*
X232717455Y-75943844D02*
G01*
X232717455Y-77022550D01*
X232717455Y-77072160D01*
X232290417Y-77356851D01*
X231863379Y-77072160D01*
X231863379Y-77022550D01*
X231922514Y-77022550D01*
X232043958Y-77022550D01*
X232043958Y-76707035D01*
X232659511Y-76707035D01*
X232659511Y-76559397D01*
X231922514Y-76559397D01*
X231922514Y-77022550D01*
X231863379Y-77022550D01*
X231863379Y-76148632D01*
X231912989Y-76148632D01*
X231915817Y-76207419D01*
X231924300Y-76262336D01*
X231939480Y-76311747D01*
X231962400Y-76354014D01*
X232033837Y-76415332D01*
X232083992Y-76432298D01*
X232145161Y-76437953D01*
X232195167Y-76431256D01*
X232242792Y-76411164D01*
X232284464Y-76372320D01*
X232316611Y-76309366D01*
X232380904Y-76377827D01*
X232424362Y-76397026D01*
X232473773Y-76403425D01*
X232542829Y-76392710D01*
X232605337Y-76352228D01*
X232650581Y-76270075D01*
X232663529Y-76209949D01*
X232667845Y-76134344D01*
X232662487Y-76035522D01*
X232649986Y-75943844D01*
X231934420Y-75943844D01*
X231925044Y-75995339D01*
X231918347Y-76047428D01*
X231914328Y-76098923D01*
X231912989Y-76148632D01*
X231863379Y-76148632D01*
X231863379Y-75943844D01*
X231863379Y-75894235D01*
X232717455Y-75894235D01*
X232717455Y-75943844D01*
G37*
G36*
X227551300Y-76035501D02*
G01*
X227551300Y-77124923D01*
X227551300Y-77174532D01*
X227117119Y-77463986D01*
X226682938Y-77174532D01*
X226682938Y-77124923D01*
X226682938Y-76918945D01*
X226732547Y-76918945D01*
X226736565Y-76983983D01*
X226748621Y-77040984D01*
X226783744Y-77124923D01*
X226899235Y-77088013D01*
X226873041Y-77027887D01*
X226859944Y-76933232D01*
X226876762Y-76848251D01*
X226927214Y-76790953D01*
X226978610Y-76766809D01*
X227043102Y-76752323D01*
X227120691Y-76747495D01*
X227187366Y-76751513D01*
X227242135Y-76763568D01*
X227320121Y-76805240D01*
X227361792Y-76863581D01*
X227374294Y-76930851D01*
X227361792Y-77019553D01*
X227331432Y-77085632D01*
X227448113Y-77123732D01*
X227462400Y-77099324D01*
X227480260Y-77059438D01*
X227495142Y-77004074D01*
X227501691Y-76933232D01*
X227495291Y-76863432D01*
X227476092Y-76799287D01*
X227444541Y-76742137D01*
X227401083Y-76693321D01*
X227346165Y-76653584D01*
X227280235Y-76623670D01*
X227203737Y-76604917D01*
X227117119Y-76598667D01*
X227030129Y-76603801D01*
X226953706Y-76619205D01*
X226887849Y-76644878D01*
X226832560Y-76680820D01*
X226776997Y-76743791D01*
X226743660Y-76823166D01*
X226732547Y-76918945D01*
X226682938Y-76918945D01*
X226682938Y-76192663D01*
X226738500Y-76192663D01*
X226743709Y-76264547D01*
X226759336Y-76330181D01*
X226786274Y-76388372D01*
X226825416Y-76437932D01*
X226877357Y-76478265D01*
X226942692Y-76508774D01*
X227022315Y-76527973D01*
X227117119Y-76534373D01*
X227209839Y-76528569D01*
X227287974Y-76511156D01*
X227352565Y-76483325D01*
X227404655Y-76446267D01*
X227444392Y-76399981D01*
X227471925Y-76344468D01*
X227487999Y-76281216D01*
X227493357Y-76211713D01*
X227489785Y-76129560D01*
X227475497Y-76035501D01*
X226756360Y-76035501D01*
X226742667Y-76115868D01*
X226738500Y-76192663D01*
X226682938Y-76192663D01*
X226682938Y-76035501D01*
X226682938Y-75985892D01*
X227551300Y-75985892D01*
X227551300Y-76035501D01*
G37*
G36*
X225064481Y-76049523D02*
G01*
X225064481Y-77160376D01*
X225064481Y-77209986D01*
X224630300Y-77499440D01*
X224196119Y-77209986D01*
X224196119Y-77160376D01*
X224196119Y-76888914D01*
X224245728Y-76888914D01*
X224252012Y-76972456D01*
X224270864Y-77040520D01*
X224302283Y-77093106D01*
X224370595Y-77143559D01*
X224462422Y-77160376D01*
X224517935Y-77155316D01*
X224563030Y-77140136D01*
X224629705Y-77088344D01*
X224672567Y-77019287D01*
X224701738Y-76947255D01*
X224719597Y-76901416D01*
X224741623Y-76859744D01*
X224770198Y-76829383D01*
X224807703Y-76817476D01*
X224854667Y-76830441D01*
X224882845Y-76869335D01*
X224892238Y-76934158D01*
X224880331Y-77018097D01*
X224851756Y-77084176D01*
X224964866Y-77127039D01*
X224999394Y-77041909D01*
X225011002Y-76986992D01*
X225014872Y-76923442D01*
X225008390Y-76850483D01*
X224988943Y-76788769D01*
X224956531Y-76738300D01*
X224886880Y-76687847D01*
X224794606Y-76671030D01*
X224707095Y-76690080D01*
X224648159Y-76738300D01*
X224608869Y-76803189D01*
X224581484Y-76872245D01*
X224560648Y-76922251D01*
X224535645Y-76967495D01*
X224504094Y-77000833D01*
X224463613Y-77013930D01*
X224428489Y-77008572D01*
X224397533Y-76988926D01*
X224376102Y-76950231D01*
X224368363Y-76888914D01*
X224372530Y-76829532D01*
X224385031Y-76779972D01*
X224420750Y-76703176D01*
X224301688Y-76660314D01*
X224265373Y-76742467D01*
X224250639Y-76806463D01*
X224245728Y-76888914D01*
X224196119Y-76888914D01*
X224196119Y-76369801D01*
X224245728Y-76369801D01*
X224249746Y-76434839D01*
X224261802Y-76491841D01*
X224296925Y-76575780D01*
X224412416Y-76538870D01*
X224386222Y-76478744D01*
X224373125Y-76384089D01*
X224389943Y-76299108D01*
X224440395Y-76241809D01*
X224491791Y-76217666D01*
X224556283Y-76203180D01*
X224633872Y-76198351D01*
X224700547Y-76202370D01*
X224755316Y-76214425D01*
X224833302Y-76256097D01*
X224874973Y-76314437D01*
X224887475Y-76381708D01*
X224874973Y-76470409D01*
X224844613Y-76536489D01*
X224961294Y-76574589D01*
X224975581Y-76550181D01*
X224993441Y-76510295D01*
X225008323Y-76454931D01*
X225014872Y-76384089D01*
X225008472Y-76314289D01*
X224989273Y-76250144D01*
X224957722Y-76192994D01*
X224914264Y-76144178D01*
X224859346Y-76104441D01*
X224793416Y-76074526D01*
X224716918Y-76055774D01*
X224630300Y-76049523D01*
X224543310Y-76054658D01*
X224466887Y-76070062D01*
X224401030Y-76095734D01*
X224345741Y-76131676D01*
X224290178Y-76194647D01*
X224256841Y-76274022D01*
X224245728Y-76369801D01*
X224196119Y-76369801D01*
X224196119Y-76049523D01*
X224196119Y-75999914D01*
X225064481Y-75999914D01*
X225064481Y-76049523D01*
G37*
G36*
X230144481Y-75468499D02*
G01*
X230144481Y-77160377D01*
X230144481Y-77209986D01*
X229710300Y-77499441D01*
X229276119Y-77209986D01*
X229276119Y-77160377D01*
X229276119Y-76966305D01*
X229341206Y-76966305D01*
X229956759Y-76966305D01*
X229956759Y-77160377D01*
X230078203Y-77160377D01*
X230078203Y-76624596D01*
X229956759Y-76624596D01*
X229956759Y-76818668D01*
X229341206Y-76818668D01*
X229341206Y-76966305D01*
X229276119Y-76966305D01*
X229276119Y-76275743D01*
X229325728Y-76275743D01*
X229332012Y-76359285D01*
X229350864Y-76427349D01*
X229382283Y-76479935D01*
X229450595Y-76530388D01*
X229542422Y-76547205D01*
X229597935Y-76542145D01*
X229643030Y-76526964D01*
X229709705Y-76475172D01*
X229752567Y-76406116D01*
X229781738Y-76334083D01*
X229799597Y-76288244D01*
X229821623Y-76246572D01*
X229850198Y-76216211D01*
X229887703Y-76204305D01*
X229934667Y-76217270D01*
X229962845Y-76256163D01*
X229972238Y-76320986D01*
X229960331Y-76404925D01*
X229931756Y-76471005D01*
X230044866Y-76513868D01*
X230079394Y-76428738D01*
X230091002Y-76373820D01*
X230094872Y-76310271D01*
X230088390Y-76237312D01*
X230068943Y-76175598D01*
X230036531Y-76125129D01*
X229966880Y-76074676D01*
X229874606Y-76057858D01*
X229787095Y-76076908D01*
X229728159Y-76125129D01*
X229688869Y-76190018D01*
X229661484Y-76259074D01*
X229640648Y-76309080D01*
X229615645Y-76354324D01*
X229584094Y-76387661D01*
X229543613Y-76400758D01*
X229508489Y-76395400D01*
X229477533Y-76375755D01*
X229456102Y-76337060D01*
X229448363Y-76275743D01*
X229452530Y-76216360D01*
X229465031Y-76166800D01*
X229500750Y-76090005D01*
X229381688Y-76047143D01*
X229345373Y-76129296D01*
X229330639Y-76193292D01*
X229325728Y-76275743D01*
X229276119Y-76275743D01*
X229276119Y-75986421D01*
X229341206Y-75986421D01*
X229419192Y-75952488D01*
X229501345Y-75911411D01*
X229579927Y-75867358D01*
X229648388Y-75824496D01*
X229682023Y-75876586D01*
X229728159Y-75911411D01*
X229783523Y-75931057D01*
X229844841Y-75937605D01*
X229902735Y-75932694D01*
X229952592Y-75917960D01*
X230028197Y-75861405D01*
X230054093Y-75820924D01*
X230072250Y-75773299D01*
X230082966Y-75719125D01*
X230086538Y-75658999D01*
X230085347Y-75617327D01*
X230082370Y-75567321D01*
X230076417Y-75515529D01*
X230067488Y-75468499D01*
X229341206Y-75468499D01*
X229341206Y-75614946D01*
X229612669Y-75614946D01*
X229612669Y-75691146D01*
X229545250Y-75731478D01*
X229478723Y-75769132D01*
X229411304Y-75803213D01*
X229341206Y-75832830D01*
X229341206Y-75986421D01*
X229276119Y-75986421D01*
X229276119Y-75468499D01*
X229276119Y-75418889D01*
X230144481Y-75418889D01*
X230144481Y-75468499D01*
G37*
G36*
X217409373Y-75542328D02*
G01*
X217409373Y-77263972D01*
X217409373Y-77313581D01*
X216975192Y-77603035D01*
X216541011Y-77313581D01*
X216541011Y-77263972D01*
X216541011Y-76922262D01*
X216596573Y-76922262D01*
X216601782Y-76994146D01*
X216617409Y-77059780D01*
X216644347Y-77117971D01*
X216683489Y-77167531D01*
X216735430Y-77207864D01*
X216800765Y-77238373D01*
X216880388Y-77257572D01*
X216975192Y-77263972D01*
X217067912Y-77258167D01*
X217146047Y-77240755D01*
X217210638Y-77212924D01*
X217262728Y-77175866D01*
X217302465Y-77129580D01*
X217329998Y-77074067D01*
X217346072Y-77010815D01*
X217351430Y-76941312D01*
X217347858Y-76859159D01*
X217333570Y-76765100D01*
X216614433Y-76765100D01*
X216600740Y-76845467D01*
X216596573Y-76922262D01*
X216541011Y-76922262D01*
X216541011Y-76528166D01*
X216606098Y-76528166D01*
X216606098Y-76646037D01*
X217343095Y-76646037D01*
X217343095Y-76513878D01*
X216889467Y-76513878D01*
X216935901Y-76492893D01*
X216989480Y-76468039D01*
X217047522Y-76440059D01*
X217107351Y-76409698D01*
X217168222Y-76377700D01*
X217229390Y-76344809D01*
X217288475Y-76311472D01*
X217343095Y-76278134D01*
X217343095Y-76160262D01*
X216606098Y-76160262D01*
X216606098Y-76292422D01*
X217095445Y-76292422D01*
X217013755Y-76336673D01*
X216932197Y-76378941D01*
X216850772Y-76419223D01*
X216769346Y-76457522D01*
X216687788Y-76493836D01*
X216606098Y-76528166D01*
X216541011Y-76528166D01*
X216541011Y-75843556D01*
X216590620Y-75843556D01*
X216593597Y-75916333D01*
X216602526Y-75977501D01*
X216623958Y-76059059D01*
X216991861Y-76059059D01*
X216991861Y-75912612D01*
X216722780Y-75912612D01*
X216719208Y-75884037D01*
X216718017Y-75855462D01*
X216733644Y-75784323D01*
X216780525Y-75732828D01*
X216829936Y-75709677D01*
X216894825Y-75695786D01*
X216975192Y-75691156D01*
X217029812Y-75693686D01*
X217079372Y-75701276D01*
X217160334Y-75734614D01*
X217213317Y-75793550D01*
X217232367Y-75881656D01*
X217219270Y-75960237D01*
X217189505Y-76024531D01*
X217306186Y-76062631D01*
X217320473Y-76038223D01*
X217338333Y-75997147D01*
X217353215Y-75938211D01*
X217359764Y-75861416D01*
X217353662Y-75796824D01*
X217335356Y-75736400D01*
X217304846Y-75681929D01*
X217262133Y-75635197D01*
X217207513Y-75596799D01*
X217141284Y-75567331D01*
X217063745Y-75548579D01*
X216975192Y-75542328D01*
X216885746Y-75547686D01*
X216807909Y-75563759D01*
X216741829Y-75589655D01*
X216687656Y-75624481D01*
X216645389Y-75667790D01*
X216615028Y-75719136D01*
X216596722Y-75777923D01*
X216590620Y-75843556D01*
X216541011Y-75843556D01*
X216541011Y-75542328D01*
X216541011Y-75492719D01*
X217409373Y-75492719D01*
X217409373Y-75542328D01*
G37*
G36*
X214777481Y-75553827D02*
G01*
X214777481Y-77287377D01*
X214777481Y-77336986D01*
X214343300Y-77626440D01*
X213909119Y-77336986D01*
X213909119Y-77287377D01*
X213909119Y-77081399D01*
X213958728Y-77081399D01*
X213962746Y-77146437D01*
X213974802Y-77203438D01*
X214009925Y-77287377D01*
X214125416Y-77250468D01*
X214099222Y-77190341D01*
X214086125Y-77095686D01*
X214102943Y-77010705D01*
X214153395Y-76953407D01*
X214204791Y-76929263D01*
X214269283Y-76914777D01*
X214346872Y-76909949D01*
X214413547Y-76913967D01*
X214468316Y-76926022D01*
X214546302Y-76967694D01*
X214587973Y-77026035D01*
X214600475Y-77093305D01*
X214587973Y-77182007D01*
X214557613Y-77248086D01*
X214674294Y-77286186D01*
X214688581Y-77261778D01*
X214706441Y-77221893D01*
X214721323Y-77166528D01*
X214727872Y-77095686D01*
X214721472Y-77025886D01*
X214702273Y-76961741D01*
X214670722Y-76904591D01*
X214627264Y-76855775D01*
X214572346Y-76816038D01*
X214506416Y-76786124D01*
X214429918Y-76767371D01*
X214343300Y-76761121D01*
X214256310Y-76766255D01*
X214179887Y-76781659D01*
X214114030Y-76807332D01*
X214058741Y-76843274D01*
X214003178Y-76906245D01*
X213969841Y-76985620D01*
X213958728Y-77081399D01*
X213909119Y-77081399D01*
X213909119Y-76486086D01*
X213958728Y-76486086D01*
X213962746Y-76551124D01*
X213974802Y-76608125D01*
X214009925Y-76692064D01*
X214125416Y-76655155D01*
X214099222Y-76595028D01*
X214086125Y-76500374D01*
X214102943Y-76415393D01*
X214153395Y-76358094D01*
X214204791Y-76333951D01*
X214269283Y-76319465D01*
X214346872Y-76314636D01*
X214413547Y-76318655D01*
X214468316Y-76330710D01*
X214546302Y-76372382D01*
X214587973Y-76430722D01*
X214600475Y-76497993D01*
X214587973Y-76586694D01*
X214557613Y-76652774D01*
X214674294Y-76690874D01*
X214688581Y-76666466D01*
X214706441Y-76626580D01*
X214721323Y-76571216D01*
X214727872Y-76500374D01*
X214721472Y-76430573D01*
X214702273Y-76366428D01*
X214670722Y-76309278D01*
X214627264Y-76260463D01*
X214572346Y-76220726D01*
X214506416Y-76190811D01*
X214429918Y-76172059D01*
X214343300Y-76165808D01*
X214256310Y-76170943D01*
X214179887Y-76186346D01*
X214114030Y-76212019D01*
X214058741Y-76247961D01*
X214003178Y-76310932D01*
X213969841Y-76390307D01*
X213958728Y-76486086D01*
X213909119Y-76486086D01*
X213909119Y-75759805D01*
X213974206Y-75759805D01*
X213974206Y-75911014D01*
X214037640Y-75933769D01*
X214102529Y-75955994D01*
X214168873Y-75977689D01*
X214235548Y-75998525D01*
X214301430Y-76018171D01*
X214366517Y-76036625D01*
X214461321Y-76061926D01*
X214551659Y-76084250D01*
X214635598Y-76103449D01*
X214711203Y-76119374D01*
X214711203Y-75965783D01*
X214649291Y-75955068D01*
X214577853Y-75941971D01*
X214500611Y-75927088D01*
X214421286Y-75911014D01*
X214341514Y-75893750D01*
X214262933Y-75875296D01*
X214189263Y-75856246D01*
X214124225Y-75837196D01*
X214190156Y-75817997D01*
X214264123Y-75798500D01*
X214342705Y-75779450D01*
X214422477Y-75761591D01*
X214501653Y-75745071D01*
X214578448Y-75730039D01*
X214649439Y-75717538D01*
X214711203Y-75708608D01*
X214711203Y-75553827D01*
X214644528Y-75567519D01*
X214561184Y-75587164D01*
X214498809Y-75602907D01*
X214433920Y-75619973D01*
X214366517Y-75638361D01*
X214297792Y-75657808D01*
X214228934Y-75678049D01*
X214159944Y-75699083D01*
X214061717Y-75730337D01*
X213974206Y-75759805D01*
X213909119Y-75759805D01*
X213909119Y-75553827D01*
X213909119Y-75504218D01*
X214777481Y-75504218D01*
X214777481Y-75553827D01*
G37*
G36*
X219857481Y-74996614D02*
G01*
X219857481Y-77287376D01*
X219857481Y-77336986D01*
X219423300Y-77626440D01*
X218989119Y-77336986D01*
X218989119Y-77287376D01*
X218989119Y-76819461D01*
X219054206Y-76819461D01*
X219054206Y-77287376D01*
X219175650Y-77287376D01*
X219175650Y-77127832D01*
X219669759Y-77127832D01*
X219669759Y-77287376D01*
X219791203Y-77287376D01*
X219791203Y-76819461D01*
X219669759Y-76819461D01*
X219669759Y-76980195D01*
X219175650Y-76980195D01*
X219175650Y-76819461D01*
X219054206Y-76819461D01*
X218989119Y-76819461D01*
X218989119Y-76436079D01*
X219038728Y-76436079D01*
X219045012Y-76519621D01*
X219063864Y-76587686D01*
X219095283Y-76640271D01*
X219163595Y-76690724D01*
X219255422Y-76707542D01*
X219310935Y-76702482D01*
X219356030Y-76687301D01*
X219422705Y-76635509D01*
X219465567Y-76566453D01*
X219494738Y-76494420D01*
X219512597Y-76448581D01*
X219534623Y-76406909D01*
X219563198Y-76376548D01*
X219600703Y-76364642D01*
X219647667Y-76377606D01*
X219675845Y-76416500D01*
X219685238Y-76481323D01*
X219673331Y-76565262D01*
X219644756Y-76631342D01*
X219757866Y-76674204D01*
X219792394Y-76589075D01*
X219804002Y-76534157D01*
X219807872Y-76470607D01*
X219801390Y-76397649D01*
X219781943Y-76335934D01*
X219749531Y-76285465D01*
X219679880Y-76235012D01*
X219587606Y-76218195D01*
X219500095Y-76237245D01*
X219441159Y-76285465D01*
X219401869Y-76350354D01*
X219374484Y-76419411D01*
X219353648Y-76469417D01*
X219328645Y-76514661D01*
X219297094Y-76547998D01*
X219256613Y-76561095D01*
X219221489Y-76555737D01*
X219190533Y-76536092D01*
X219169102Y-76497396D01*
X219161363Y-76436079D01*
X219165530Y-76376697D01*
X219178031Y-76327137D01*
X219213750Y-76250342D01*
X219094688Y-76207479D01*
X219058373Y-76289632D01*
X219043639Y-76353629D01*
X219038728Y-76436079D01*
X218989119Y-76436079D01*
X218989119Y-75863389D01*
X219038728Y-75863389D01*
X219049510Y-75941176D01*
X219081855Y-76006264D01*
X219135764Y-76058651D01*
X219190124Y-76088863D01*
X219256166Y-76110443D01*
X219333892Y-76123391D01*
X219423300Y-76127707D01*
X219512708Y-76123466D01*
X219590434Y-76110741D01*
X219656476Y-76089533D01*
X219710836Y-76059842D01*
X219764745Y-76007719D01*
X219797090Y-75941838D01*
X219807872Y-75862198D01*
X219797090Y-75784940D01*
X219764745Y-75719852D01*
X219710836Y-75666936D01*
X219656476Y-75636203D01*
X219590434Y-75614250D01*
X219512708Y-75601079D01*
X219423300Y-75596689D01*
X219333892Y-75600967D01*
X219256166Y-75613804D01*
X219190124Y-75635198D01*
X219135764Y-75665150D01*
X219081855Y-75717603D01*
X219049510Y-75783683D01*
X219038728Y-75863389D01*
X218989119Y-75863389D01*
X218989119Y-75537157D01*
X219054206Y-75537157D01*
X219148414Y-75534479D01*
X219240539Y-75531204D01*
X219331324Y-75527186D01*
X219421514Y-75522275D01*
X219511853Y-75516321D01*
X219603084Y-75509178D01*
X219695953Y-75501290D01*
X219791203Y-75493104D01*
X219791203Y-75371661D01*
X219728100Y-75350229D01*
X219646542Y-75324036D01*
X219556055Y-75294270D01*
X219464972Y-75264504D01*
X219550697Y-75237120D01*
X219642375Y-75208545D01*
X219726909Y-75181756D01*
X219791203Y-75160920D01*
X219791203Y-75039476D01*
X219710538Y-75031588D01*
X219623325Y-75024593D01*
X219531349Y-75018491D01*
X219436397Y-75013282D01*
X219339659Y-75008669D01*
X219242325Y-75004353D01*
X219146480Y-75000334D01*
X219054206Y-74996614D01*
X219054206Y-75131154D01*
X219626897Y-75125201D01*
X219314953Y-75212117D01*
X219314953Y-75319273D01*
X219626897Y-75409761D01*
X219054206Y-75402617D01*
X219054206Y-75537157D01*
X218989119Y-75537157D01*
X218989119Y-74996614D01*
X218989119Y-74947004D01*
X219857481Y-74947004D01*
X219857481Y-74996614D01*
G37*
G36*
X222524481Y-74966849D02*
G01*
X222524481Y-77287377D01*
X222524481Y-77336986D01*
X222090300Y-77626441D01*
X221656119Y-77336986D01*
X221656119Y-77287377D01*
X221656119Y-77121880D01*
X221721206Y-77121880D01*
X221721206Y-77287377D01*
X221774338Y-77268029D01*
X221828958Y-77243324D01*
X221883727Y-77214302D01*
X221937305Y-77182007D01*
X221988650Y-77147032D01*
X222036722Y-77109974D01*
X222080477Y-77072172D01*
X222118875Y-77034964D01*
X222162630Y-77071130D01*
X222208172Y-77105807D01*
X222254160Y-77138698D01*
X222299255Y-77169505D01*
X222343010Y-77197634D01*
X222384980Y-77222488D01*
X222458203Y-77262374D01*
X222458203Y-77096877D01*
X222386766Y-77061158D01*
X222306994Y-77014129D01*
X222226031Y-76959955D01*
X222152213Y-76905186D01*
X222458203Y-76905186D01*
X222458203Y-76758739D01*
X221721206Y-76758739D01*
X221721206Y-76905186D01*
X222058153Y-76905186D01*
X221990883Y-76967694D01*
X221949509Y-76999692D01*
X221905158Y-77030202D01*
X221858723Y-77058628D01*
X221811098Y-77084375D01*
X221721206Y-77121880D01*
X221656119Y-77121880D01*
X221656119Y-76657536D01*
X221721206Y-76657536D01*
X221842650Y-76657536D01*
X221842650Y-76342021D01*
X222458203Y-76342021D01*
X222458203Y-76194383D01*
X221721206Y-76194383D01*
X221721206Y-76657536D01*
X221656119Y-76657536D01*
X221656119Y-75866961D01*
X221705728Y-75866961D01*
X221709746Y-75931999D01*
X221721802Y-75989000D01*
X221756925Y-76072939D01*
X221872416Y-76036030D01*
X221846222Y-75975904D01*
X221833125Y-75881249D01*
X221849943Y-75796268D01*
X221900395Y-75738969D01*
X221951791Y-75714826D01*
X222016283Y-75700340D01*
X222093872Y-75695511D01*
X222160547Y-75699530D01*
X222215316Y-75711585D01*
X222293302Y-75753257D01*
X222334973Y-75811597D01*
X222347475Y-75878868D01*
X222334973Y-75967569D01*
X222304613Y-76033649D01*
X222421294Y-76071749D01*
X222435581Y-76047341D01*
X222453441Y-76007455D01*
X222468323Y-75952091D01*
X222474872Y-75881249D01*
X222468472Y-75811448D01*
X222449273Y-75747304D01*
X222417722Y-75690154D01*
X222374264Y-75641338D01*
X222319346Y-75601601D01*
X222253416Y-75571686D01*
X222176918Y-75552934D01*
X222090300Y-75546683D01*
X222003310Y-75551818D01*
X221926887Y-75567222D01*
X221861030Y-75592894D01*
X221805741Y-75628836D01*
X221750178Y-75691807D01*
X221716841Y-75771182D01*
X221705728Y-75866961D01*
X221656119Y-75866961D01*
X221656119Y-75195449D01*
X221705728Y-75195449D01*
X221712012Y-75278991D01*
X221730864Y-75347055D01*
X221762283Y-75399641D01*
X221830595Y-75450094D01*
X221922422Y-75466911D01*
X221977935Y-75461851D01*
X222023030Y-75446671D01*
X222089705Y-75394879D01*
X222132567Y-75325822D01*
X222161738Y-75253789D01*
X222179597Y-75207950D01*
X222201623Y-75166279D01*
X222230198Y-75135918D01*
X222267703Y-75124011D01*
X222314667Y-75136976D01*
X222342845Y-75175870D01*
X222352238Y-75240693D01*
X222340331Y-75324632D01*
X222311756Y-75390711D01*
X222424866Y-75433574D01*
X222459394Y-75348444D01*
X222471002Y-75293527D01*
X222474872Y-75229977D01*
X222468390Y-75157018D01*
X222448943Y-75095304D01*
X222416531Y-75044835D01*
X222346880Y-74994382D01*
X222254606Y-74977564D01*
X222167095Y-74996614D01*
X222108159Y-75044835D01*
X222068869Y-75109724D01*
X222041484Y-75178780D01*
X222020648Y-75228786D01*
X221995645Y-75274030D01*
X221964094Y-75307368D01*
X221923613Y-75320464D01*
X221888489Y-75315107D01*
X221857533Y-75295461D01*
X221836102Y-75256766D01*
X221828363Y-75195449D01*
X221832530Y-75136066D01*
X221845031Y-75086507D01*
X221880750Y-75009711D01*
X221761688Y-74966849D01*
X221725373Y-75049002D01*
X221710639Y-75112998D01*
X221705728Y-75195449D01*
X221656119Y-75195449D01*
X221656119Y-74966849D01*
X221656119Y-74917239D01*
X222524481Y-74917239D01*
X222524481Y-74966849D01*
G37*
%TO.C,kibuzzard-63B8279E*%
G36*
X150360722Y-76174025D02*
G01*
X150405172Y-76209744D01*
X150430572Y-76259750D01*
X150438509Y-76317694D01*
X150140059Y-76317694D01*
X150153553Y-76258956D01*
X150182128Y-76208156D01*
X150228165Y-76173231D01*
X150294047Y-76160531D01*
X150360722Y-76174025D01*
G37*
G36*
X147952484Y-75966063D02*
G01*
X148017572Y-76039881D01*
X148050909Y-76146244D01*
X148060434Y-76270069D01*
X148057457Y-76340117D01*
X148048528Y-76404213D01*
X148008840Y-76509781D01*
X147935815Y-76579631D01*
X147823897Y-76605031D01*
X147806434Y-76605031D01*
X147788972Y-76603444D01*
X147788972Y-75943044D01*
X147817547Y-75939075D01*
X147846122Y-75938281D01*
X147952484Y-75966063D01*
G37*
G36*
X153145020Y-76228000D02*
G01*
X152556763Y-77110385D01*
X152226034Y-77110385D01*
X151987909Y-77110385D01*
X151184634Y-77110385D01*
X150348022Y-77110385D01*
X149433622Y-77110385D01*
X148831959Y-77110385D01*
X147803259Y-77110385D01*
X147593709Y-77110385D01*
X147262980Y-77110385D01*
X147262980Y-76751081D01*
X147593709Y-76751081D01*
X147700865Y-76769338D01*
X147803259Y-76774894D01*
X147899104Y-76767948D01*
X147986615Y-76747113D01*
X148064204Y-76711195D01*
X148130284Y-76659006D01*
X148184061Y-76589752D01*
X148224740Y-76502638D01*
X148250339Y-76396473D01*
X148258872Y-76270069D01*
X148253107Y-76177994D01*
X148358884Y-76177994D01*
X148565259Y-76177994D01*
X148565259Y-76452631D01*
X148568434Y-76526053D01*
X148577959Y-76590744D01*
X148621615Y-76693138D01*
X148704165Y-76757431D01*
X148761911Y-76774100D01*
X148831959Y-76779656D01*
X148929590Y-76769338D01*
X148950439Y-76762194D01*
X149236772Y-76762194D01*
X149433622Y-76762194D01*
X149433622Y-76395481D01*
X149938447Y-76395481D01*
X149945590Y-76484778D01*
X149967022Y-76562169D01*
X150001748Y-76627852D01*
X150048778Y-76682025D01*
X150107515Y-76724491D01*
X150177365Y-76755050D01*
X150257732Y-76773505D01*
X150348022Y-76779656D01*
X150476609Y-76767750D01*
X150584559Y-76738381D01*
X150557572Y-76571694D01*
X150467878Y-76597094D01*
X150355959Y-76609794D01*
X150269440Y-76599277D01*
X150200384Y-76567725D01*
X150155140Y-76517917D01*
X150140059Y-76452631D01*
X150624247Y-76452631D01*
X150626628Y-76419294D01*
X150627231Y-76389131D01*
X150752834Y-76389131D01*
X150758986Y-76468903D01*
X150777440Y-76543119D01*
X150808992Y-76609794D01*
X150854434Y-76666944D01*
X150914164Y-76713775D01*
X150988578Y-76749494D01*
X151078470Y-76772116D01*
X151184634Y-76779656D01*
X151258850Y-76777077D01*
X151322747Y-76769338D01*
X151422759Y-76743144D01*
X151394184Y-76582806D01*
X151302903Y-76603444D01*
X151206859Y-76609794D01*
X151087598Y-76595109D01*
X151009215Y-76551056D01*
X150965757Y-76481206D01*
X150951272Y-76389131D01*
X150963972Y-76300231D01*
X151005247Y-76229588D01*
X151080653Y-76183550D01*
X151197334Y-76166881D01*
X151296553Y-76175613D01*
X151367197Y-76195456D01*
X151371959Y-76177994D01*
X151533884Y-76177994D01*
X151703747Y-76177994D01*
X151703747Y-76484381D01*
X151708509Y-76569114D01*
X151722797Y-76635987D01*
X151778359Y-76725681D01*
X151867259Y-76768544D01*
X151987909Y-76779656D01*
X152109353Y-76770131D01*
X152226034Y-76738381D01*
X152199047Y-76570106D01*
X152149040Y-76590744D01*
X152104590Y-76602650D01*
X152060140Y-76608206D01*
X152010134Y-76609794D01*
X151964097Y-76605031D01*
X151929172Y-76585981D01*
X151906947Y-76546294D01*
X151899009Y-76479619D01*
X151899009Y-76177994D01*
X152211747Y-76177994D01*
X152211747Y-76016069D01*
X151899009Y-76016069D01*
X151899009Y-75796994D01*
X151703747Y-75828744D01*
X151703747Y-76016069D01*
X151533884Y-76016069D01*
X151533884Y-76177994D01*
X151371959Y-76177994D01*
X151410059Y-76038294D01*
X151300522Y-76006544D01*
X151179872Y-75997019D01*
X151076486Y-76004758D01*
X150988578Y-76027975D01*
X150915354Y-76064488D01*
X150856022Y-76112113D01*
X150810381Y-76169858D01*
X150778234Y-76236731D01*
X150759184Y-76310550D01*
X150752834Y-76389131D01*
X150627231Y-76389131D01*
X150627422Y-76379606D01*
X150617897Y-76264689D01*
X150589322Y-76169703D01*
X150541697Y-76094650D01*
X150475727Y-76040410D01*
X150392119Y-76007867D01*
X150290872Y-75997019D01*
X150224990Y-76003369D01*
X150160697Y-76022419D01*
X150100768Y-76053970D01*
X150047984Y-76097825D01*
X150003534Y-76153983D01*
X149968609Y-76222444D01*
X149945987Y-76303009D01*
X149938447Y-76395481D01*
X149433622Y-76395481D01*
X149433622Y-76208156D01*
X149514584Y-76193075D01*
X149595547Y-76189106D01*
X149638409Y-76190694D01*
X149690797Y-76196250D01*
X149743978Y-76204981D01*
X149789222Y-76214506D01*
X149824147Y-76033531D01*
X149763028Y-76018450D01*
X149695559Y-76008925D01*
X149632853Y-76003369D01*
X149587609Y-76001781D01*
X149485017Y-76006147D01*
X149396315Y-76019244D01*
X149315551Y-76039484D01*
X149236772Y-76065281D01*
X149236772Y-76762194D01*
X148950439Y-76762194D01*
X149043097Y-76730444D01*
X149017697Y-76573281D01*
X148931972Y-76602650D01*
X148866884Y-76609794D01*
X148785128Y-76577250D01*
X148760522Y-76478031D01*
X148760522Y-76016069D01*
X148628759Y-76016069D01*
X148358884Y-76016069D01*
X148358884Y-76177994D01*
X148253107Y-76177994D01*
X148251132Y-76146442D01*
X148227915Y-76042262D01*
X148190807Y-75956141D01*
X148141397Y-75886687D01*
X148079682Y-75833705D01*
X148015266Y-75801756D01*
X148506522Y-75801756D01*
X148542240Y-75892244D01*
X148628759Y-75925581D01*
X148716072Y-75892244D01*
X148752584Y-75801756D01*
X148716072Y-75709681D01*
X148628759Y-75676344D01*
X148542240Y-75709681D01*
X148506522Y-75801756D01*
X148015266Y-75801756D01*
X148005665Y-75796994D01*
X147921329Y-75775562D01*
X147828659Y-75768419D01*
X147719122Y-75773181D01*
X147593709Y-75792231D01*
X147593709Y-76751081D01*
X147262980Y-76751081D01*
X147262980Y-75345615D01*
X147593709Y-75345615D01*
X152226034Y-75345615D01*
X152556763Y-75345615D01*
X153145020Y-76228000D01*
G37*
%TO.C,kibuzzard-63B827BA*%
G36*
X151833392Y-72875994D02*
G01*
X151898480Y-72949812D01*
X151931817Y-73056175D01*
X151941342Y-73180000D01*
X151938366Y-73250048D01*
X151929436Y-73314144D01*
X151889749Y-73419712D01*
X151816724Y-73489562D01*
X151704805Y-73514962D01*
X151687342Y-73514962D01*
X151669880Y-73513375D01*
X151669880Y-72852975D01*
X151698455Y-72849006D01*
X151727030Y-72848212D01*
X151833392Y-72875994D01*
G37*
G36*
X153032837Y-73180000D02*
G01*
X152470509Y-74023492D01*
X152139780Y-74023492D01*
X151684167Y-74023492D01*
X150695155Y-74023492D01*
X150296692Y-74023492D01*
X149107655Y-74023492D01*
X148299617Y-74023492D01*
X148142455Y-74023492D01*
X146994692Y-74023492D01*
X146689892Y-74023492D01*
X146359163Y-74023492D01*
X146359163Y-73618150D01*
X146689892Y-73618150D01*
X146799430Y-73666569D01*
X146884758Y-73686214D01*
X146994692Y-73692762D01*
X147106082Y-73684384D01*
X147196834Y-73659249D01*
X147266949Y-73617356D01*
X147334219Y-73526273D01*
X147356642Y-73403837D01*
X147349895Y-73329820D01*
X147329655Y-73269694D01*
X147260599Y-73180794D01*
X147168524Y-73123644D01*
X147072480Y-73084750D01*
X147011361Y-73060937D01*
X146955799Y-73031569D01*
X146915317Y-72993469D01*
X146899442Y-72943462D01*
X146916728Y-72880844D01*
X146968587Y-72843274D01*
X147055017Y-72830750D01*
X147166936Y-72846625D01*
X147255042Y-72884725D01*
X147312192Y-72733912D01*
X147202599Y-72689462D01*
X147491580Y-72689462D01*
X147491580Y-73672125D01*
X147686842Y-73672125D01*
X147686842Y-73238737D01*
X147947192Y-73238737D01*
X147947192Y-73672125D01*
X148142455Y-73672125D01*
X148142455Y-72689462D01*
X148299617Y-72689462D01*
X148299617Y-72851387D01*
X148513930Y-72851387D01*
X148513930Y-73510200D01*
X148299617Y-73510200D01*
X148299617Y-73672125D01*
X148923505Y-73672125D01*
X148923505Y-73510200D01*
X148710780Y-73510200D01*
X148710780Y-72851387D01*
X148923505Y-72851387D01*
X148923505Y-72689462D01*
X149107655Y-72689462D01*
X149107655Y-73672125D01*
X149302917Y-73672125D01*
X149302917Y-73251437D01*
X149658517Y-73251437D01*
X149658517Y-73089512D01*
X149302917Y-73089512D01*
X149302917Y-72851387D01*
X149709317Y-72851387D01*
X149709317Y-72689462D01*
X149841080Y-72689462D01*
X149841080Y-72851387D01*
X150099842Y-72851387D01*
X150099842Y-73672125D01*
X150296692Y-73672125D01*
X150296692Y-72851387D01*
X150555455Y-72851387D01*
X150555455Y-72689462D01*
X150695155Y-72689462D01*
X150695155Y-73672125D01*
X151325392Y-73672125D01*
X151325392Y-73661012D01*
X151474617Y-73661012D01*
X151581774Y-73679269D01*
X151684167Y-73684825D01*
X151780013Y-73677880D01*
X151867524Y-73657044D01*
X151945113Y-73621127D01*
X152011192Y-73568937D01*
X152064969Y-73499683D01*
X152105649Y-73412569D01*
X152131247Y-73306405D01*
X152139780Y-73180000D01*
X152132041Y-73056373D01*
X152108824Y-72952194D01*
X152071716Y-72866072D01*
X152022305Y-72796619D01*
X151960591Y-72743636D01*
X151886574Y-72706925D01*
X151802238Y-72685494D01*
X151709567Y-72678350D01*
X151600030Y-72683112D01*
X151474617Y-72702162D01*
X151474617Y-73661012D01*
X151325392Y-73661012D01*
X151325392Y-73510200D01*
X150890417Y-73510200D01*
X150890417Y-73233975D01*
X151238080Y-73233975D01*
X151238080Y-73072050D01*
X150890417Y-73072050D01*
X150890417Y-72851387D01*
X151290467Y-72851387D01*
X151290467Y-72689462D01*
X150695155Y-72689462D01*
X150555455Y-72689462D01*
X149841080Y-72689462D01*
X149709317Y-72689462D01*
X149107655Y-72689462D01*
X148923505Y-72689462D01*
X148299617Y-72689462D01*
X148142455Y-72689462D01*
X147947192Y-72689462D01*
X147947192Y-73076812D01*
X147686842Y-73076812D01*
X147686842Y-72689462D01*
X147491580Y-72689462D01*
X147202599Y-72689462D01*
X147198686Y-72687875D01*
X147125463Y-72672397D01*
X147040730Y-72667237D01*
X146943451Y-72675881D01*
X146861166Y-72701810D01*
X146793874Y-72745025D01*
X146726603Y-72837894D01*
X146704180Y-72960925D01*
X146729580Y-73077606D01*
X146793874Y-73156187D01*
X146880392Y-73208575D01*
X146972467Y-73245087D01*
X147039142Y-73272869D01*
X147099467Y-73306206D01*
X147143917Y-73348275D01*
X147161380Y-73402250D01*
X147154236Y-73449081D01*
X147128042Y-73490356D01*
X147076449Y-73518931D01*
X146994692Y-73529250D01*
X146915516Y-73523694D01*
X146849436Y-73507025D01*
X146747042Y-73459400D01*
X146689892Y-73618150D01*
X146359163Y-73618150D01*
X146359163Y-72336508D01*
X146689892Y-72336508D01*
X152139780Y-72336508D01*
X152470509Y-72336508D01*
X153032837Y-73180000D01*
G37*
D10*
%TO.C,SW37*%
X286496000Y-62498000D02*
X284196000Y-62498000D01*
X292796000Y-62498000D02*
X290596000Y-62498000D01*
X292796000Y-67098000D02*
X284196000Y-67098000D01*
%TD*%
D14*
%TO.C,U1*%
X100874750Y-79276000D03*
X103414750Y-79276000D03*
X105954750Y-79276000D03*
X108494750Y-79276000D03*
X111034750Y-79276000D03*
X113574750Y-79276000D03*
X116114750Y-79276000D03*
X118654750Y-79276000D03*
X121194750Y-79276000D03*
X123734750Y-79276000D03*
X126274750Y-79276000D03*
X128814750Y-79256000D03*
X128814750Y-64036000D03*
X126274750Y-64036000D03*
X123734750Y-64036000D03*
X121194750Y-64036000D03*
X118654750Y-64036000D03*
X116114750Y-64036000D03*
X113574750Y-64036000D03*
X111034750Y-64036000D03*
X108494750Y-64036000D03*
X105954750Y-64036000D03*
X103414750Y-64036000D03*
X100874750Y-64036000D03*
X128814750Y-76736000D03*
X128814750Y-74196000D03*
X128814750Y-71656000D03*
X128814750Y-69116000D03*
X128814750Y-66576000D03*
X105954750Y-66536000D03*
X126274750Y-76736000D03*
X98444750Y-79256000D03*
X98444750Y-64016000D03*
%TD*%
D15*
%TO.C,J4*%
X282503095Y-73466305D03*
X282538000Y-75466000D03*
X282572905Y-77465695D03*
%TD*%
D14*
%TO.C,J5*%
X214465999Y-79021999D03*
X217006001Y-79022000D03*
X219545999Y-79021999D03*
X222085999Y-79021999D03*
X224626000Y-79022000D03*
X227166000Y-79022001D03*
X229706000Y-79022000D03*
X232245999Y-79022000D03*
%TD*%
%LPC*%
D16*
%TO.C,SW20*%
X160244668Y-129242000D03*
D17*
X160324668Y-132992000D03*
X162784668Y-134322000D03*
D18*
X165322256Y-129245308D03*
D17*
X165322256Y-135195308D03*
X169134668Y-131782000D03*
D16*
X170404668Y-129245961D03*
%TD*%
%TO.C,SW25*%
X293713000Y-110144000D03*
D17*
X293793000Y-113894000D03*
X296253000Y-115224000D03*
D18*
X298790588Y-110147308D03*
D17*
X298790588Y-116097308D03*
X302603000Y-112684000D03*
D16*
X303873000Y-110147961D03*
%TD*%
D19*
%TO.C,H10*%
X238354380Y-111634942D03*
%TD*%
D16*
%TO.C,SW21*%
X274704334Y-153364000D03*
D17*
X274784334Y-157114000D03*
X277244334Y-158444000D03*
D18*
X279781922Y-153367308D03*
D17*
X279781922Y-159317308D03*
X283594334Y-155904000D03*
D16*
X284864334Y-153367961D03*
%TD*%
%TO.C,SW9*%
X141216000Y-110144000D03*
D17*
X141296000Y-113894000D03*
X143756000Y-115224000D03*
D18*
X146293588Y-110147308D03*
D17*
X146293588Y-116097308D03*
X150106000Y-112684000D03*
D16*
X151376000Y-110147961D03*
%TD*%
D20*
%TO.C,SW47*%
X268053588Y-67688000D03*
X268053588Y-72688000D03*
D21*
X261053588Y-75788000D03*
X261053588Y-64588000D03*
D20*
X253553588Y-70188000D03*
X253553588Y-72688000D03*
X253553588Y-67688000D03*
%TD*%
D16*
%TO.C,SW5*%
X122187334Y-110144000D03*
D17*
X122267334Y-113894000D03*
X124727334Y-115224000D03*
D18*
X127264922Y-110147308D03*
D17*
X127264922Y-116097308D03*
X131077334Y-112684000D03*
D16*
X132347334Y-110147961D03*
%TD*%
D22*
%TO.C,SW36*%
X203092754Y-90711665D03*
X246119859Y-126812704D03*
D23*
X241983175Y-88034171D03*
X240068064Y-86427202D03*
X243898286Y-89641140D03*
D24*
X201723942Y-99384769D03*
D25*
X214279876Y-89081510D03*
D26*
X197142253Y-125773243D03*
D25*
X207910209Y-129262802D03*
D26*
X212605591Y-138748921D03*
D25*
X245900431Y-114690162D03*
D24*
X236808242Y-130433822D03*
%TD*%
D16*
%TO.C,SW27*%
X293713000Y-129242000D03*
D17*
X293793000Y-132992000D03*
X296253000Y-134322000D03*
D18*
X298790588Y-129245308D03*
D17*
X298790588Y-135195308D03*
X302603000Y-131782000D03*
D16*
X303873000Y-129245961D03*
%TD*%
D19*
%TO.C,H8*%
X113226000Y-141252000D03*
%TD*%
D16*
%TO.C,SW22*%
X236534000Y-159776039D03*
D17*
X236614000Y-163526039D03*
X239074000Y-164856039D03*
D18*
X241611588Y-159779347D03*
D17*
X241611588Y-165729347D03*
X245424000Y-162316039D03*
D16*
X246694000Y-159780000D03*
%TD*%
%TO.C,SW43*%
X255726000Y-129242000D03*
D17*
X255806000Y-132992000D03*
X258266000Y-134322000D03*
D18*
X260803588Y-129245308D03*
D17*
X260803588Y-135195308D03*
X264616000Y-131782000D03*
D16*
X265886000Y-129245961D03*
%TD*%
%TO.C,SW8*%
X141216000Y-91060039D03*
D17*
X141296000Y-94810039D03*
X143756000Y-96140039D03*
D18*
X146293588Y-91063347D03*
D17*
X146293588Y-97013347D03*
X150106000Y-93600039D03*
D16*
X151376000Y-91064000D03*
%TD*%
D27*
%TO.C,JP3*%
X173124000Y-72672000D03*
D28*
X171824000Y-72672000D03*
D29*
X170524000Y-72672000D03*
%TD*%
D16*
%TO.C,SW46*%
X331730334Y-129242000D03*
D17*
X331810334Y-132992000D03*
X334270334Y-134322000D03*
D18*
X336807922Y-129245308D03*
D17*
X336807922Y-135195308D03*
X340620334Y-131782000D03*
D16*
X341890334Y-129245961D03*
%TD*%
%TO.C,SW41*%
X179320000Y-153360692D03*
D17*
X179400000Y-157110692D03*
X181860000Y-158440692D03*
D18*
X184397588Y-153364000D03*
D17*
X184397588Y-159314000D03*
X188210000Y-155900692D03*
D16*
X189480000Y-153364653D03*
%TD*%
%TO.C,SW1*%
X103158668Y-91060039D03*
D17*
X103238668Y-94810039D03*
X105698668Y-96140039D03*
D18*
X108236256Y-91063347D03*
D17*
X108236256Y-97013347D03*
X112048668Y-93600039D03*
D16*
X113318668Y-91064000D03*
%TD*%
D14*
%TO.C,U1*%
X100874750Y-79276000D03*
X103414750Y-79276000D03*
X105954750Y-79276000D03*
X108494750Y-79276000D03*
X111034750Y-79276000D03*
X113574750Y-79276000D03*
X116114750Y-79276000D03*
X118654750Y-79276000D03*
X121194750Y-79276000D03*
X123734750Y-79276000D03*
X126274750Y-79276000D03*
X128814750Y-79256000D03*
X128814750Y-64036000D03*
X126274750Y-64036000D03*
X123734750Y-64036000D03*
X121194750Y-64036000D03*
X118654750Y-64036000D03*
X116114750Y-64036000D03*
X113574750Y-64036000D03*
X111034750Y-64036000D03*
X108494750Y-64036000D03*
X105954750Y-64036000D03*
X103414750Y-64036000D03*
X100874750Y-64036000D03*
X128814750Y-76736000D03*
X128814750Y-74196000D03*
X128814750Y-71656000D03*
X128814750Y-69116000D03*
X128814750Y-66576000D03*
X105954750Y-66536000D03*
X126274750Y-76736000D03*
X98444750Y-79256000D03*
X98444750Y-64016000D03*
%TD*%
D16*
%TO.C,SW33*%
X331730334Y-110144000D03*
D17*
X331810334Y-113894000D03*
X334270334Y-115224000D03*
D18*
X336807922Y-110147308D03*
D17*
X336807922Y-116097308D03*
X340620334Y-112684000D03*
D16*
X341890334Y-110147961D03*
%TD*%
D15*
%TO.C,J4*%
X282503095Y-73466305D03*
X282538000Y-75466000D03*
X282572905Y-77465695D03*
%TD*%
D19*
%TO.C,H9*%
X207033286Y-111634942D03*
%TD*%
D16*
%TO.C,SW26*%
X293713000Y-153364000D03*
D17*
X293793000Y-157114000D03*
X296253000Y-158444000D03*
D18*
X298790588Y-153367308D03*
D17*
X298790588Y-159317308D03*
X302603000Y-155904000D03*
D16*
X303873000Y-153367961D03*
%TD*%
D20*
%TO.C,SW48*%
X191647588Y-67688000D03*
X191647588Y-72688000D03*
D21*
X184647588Y-75788000D03*
X184647588Y-64588000D03*
D20*
X177147588Y-70188000D03*
X177147588Y-72688000D03*
X177147588Y-67688000D03*
%TD*%
D16*
%TO.C,SW23*%
X274704334Y-129242000D03*
D17*
X274784334Y-132992000D03*
X277244334Y-134322000D03*
D18*
X279781922Y-129245308D03*
D17*
X279781922Y-135195308D03*
X283594334Y-131782000D03*
D16*
X284864334Y-129245961D03*
%TD*%
%TO.C,SW7*%
X122187334Y-153364000D03*
D17*
X122267334Y-157114000D03*
X124727334Y-158444000D03*
D18*
X127264922Y-153367308D03*
D17*
X127264922Y-159317308D03*
X131077334Y-155904000D03*
D16*
X132347334Y-153367961D03*
%TD*%
%TO.C,SW34*%
X331730334Y-153364000D03*
D17*
X331810334Y-157114000D03*
X334270334Y-158444000D03*
D18*
X336807922Y-153367308D03*
D17*
X336807922Y-159317308D03*
X340620334Y-155904000D03*
D16*
X341890334Y-153367961D03*
%TD*%
D19*
%TO.C,H3*%
X331656496Y-141337717D03*
%TD*%
D16*
%TO.C,SW29*%
X312721666Y-110144000D03*
D17*
X312801666Y-113894000D03*
X315261666Y-115224000D03*
D18*
X317799254Y-110147308D03*
D17*
X317799254Y-116097308D03*
X321611666Y-112684000D03*
D16*
X322881666Y-110147961D03*
%TD*%
%TO.C,SW11*%
X141216000Y-153364000D03*
D17*
X141296000Y-157114000D03*
X143756000Y-158444000D03*
D18*
X146293588Y-153367308D03*
D17*
X146293588Y-159317308D03*
X150106000Y-155904000D03*
D16*
X151376000Y-153367961D03*
%TD*%
%TO.C,SW31*%
X312721666Y-153364000D03*
D17*
X312801666Y-157114000D03*
X315261666Y-158444000D03*
D18*
X317799254Y-153367308D03*
D17*
X317799254Y-159317308D03*
X321611666Y-155904000D03*
D16*
X322881666Y-153367961D03*
%TD*%
D30*
%TO.C,JP1*%
X155030000Y-76034000D03*
D31*
X155030000Y-74734000D03*
D32*
X155030000Y-73434000D03*
%TD*%
D16*
%TO.C,SW15*%
X141216000Y-129242000D03*
D17*
X141296000Y-132992000D03*
X143756000Y-134322000D03*
D18*
X146293588Y-129245308D03*
D17*
X146293588Y-135195308D03*
X150106000Y-131782000D03*
D16*
X151376000Y-129245961D03*
%TD*%
D14*
%TO.C,J5*%
X214465999Y-79021999D03*
X217006001Y-79022000D03*
X219545999Y-79021999D03*
X222085999Y-79021999D03*
X224626000Y-79022000D03*
X227166000Y-79022001D03*
X229706000Y-79022000D03*
X232245999Y-79022000D03*
%TD*%
D16*
%TO.C,SW13*%
X160244668Y-91060039D03*
D17*
X160324668Y-94810039D03*
X162784668Y-96140039D03*
D18*
X165322256Y-91063347D03*
D17*
X165322256Y-97013347D03*
X169134668Y-93600039D03*
D16*
X170404668Y-91064000D03*
%TD*%
%TO.C,SW16*%
X160244668Y-153364000D03*
D17*
X160324668Y-157114000D03*
X162784668Y-158444000D03*
D18*
X165322256Y-153367308D03*
D17*
X165322256Y-159317308D03*
X169134668Y-155904000D03*
D16*
X170404668Y-153367961D03*
%TD*%
%TO.C,SW24*%
X293713000Y-91060039D03*
D17*
X293793000Y-94810039D03*
X296253000Y-96140039D03*
D18*
X298790588Y-91063347D03*
D17*
X298790588Y-97013347D03*
X302603000Y-93600039D03*
D16*
X303873000Y-91064000D03*
%TD*%
D19*
%TO.C,H2*%
X289036000Y-74704000D03*
%TD*%
D16*
%TO.C,SW19*%
X274704334Y-110144000D03*
D17*
X274784334Y-113894000D03*
X277244334Y-115224000D03*
D18*
X279781922Y-110147308D03*
D17*
X279781922Y-116097308D03*
X283594334Y-112684000D03*
D16*
X284864334Y-110147961D03*
%TD*%
%TO.C,SW39*%
X179320000Y-110140692D03*
D17*
X179400000Y-113890692D03*
X181860000Y-115220692D03*
D18*
X184397588Y-110144000D03*
D17*
X184397588Y-116094000D03*
X188210000Y-112680692D03*
D16*
X189480000Y-110144653D03*
%TD*%
%TO.C,SW28*%
X312721666Y-91060039D03*
D17*
X312801666Y-94810039D03*
X315261666Y-96140039D03*
D18*
X317799254Y-91063347D03*
D17*
X317799254Y-97013347D03*
X321611666Y-93600039D03*
D16*
X322881666Y-91064000D03*
%TD*%
%TO.C,SW14*%
X160244668Y-110144000D03*
D17*
X160324668Y-113894000D03*
X162784668Y-115224000D03*
D18*
X165322256Y-110147308D03*
D17*
X165322256Y-116097308D03*
X169134668Y-112684000D03*
D16*
X170404668Y-110147961D03*
%TD*%
%TO.C,SW4*%
X122187334Y-91060039D03*
D17*
X122267334Y-94810039D03*
X124727334Y-96140039D03*
D18*
X127264922Y-91063347D03*
D17*
X127264922Y-97013347D03*
X131077334Y-93600039D03*
D16*
X132347334Y-91064000D03*
%TD*%
%TO.C,SW45*%
X255726000Y-91060039D03*
D17*
X255806000Y-94810039D03*
X258266000Y-96140039D03*
D18*
X260803588Y-91063347D03*
D17*
X260803588Y-97013347D03*
X264616000Y-93600039D03*
D16*
X265886000Y-91064000D03*
%TD*%
%TO.C,SW6*%
X103158668Y-129242000D03*
D17*
X103238668Y-132992000D03*
X105698668Y-134322000D03*
D18*
X108236256Y-129245308D03*
D17*
X108236256Y-135195308D03*
X112048668Y-131782000D03*
D16*
X113318668Y-129245961D03*
%TD*%
%TO.C,SW38*%
X179320000Y-91056731D03*
D17*
X179400000Y-94806731D03*
X181860000Y-96136731D03*
D18*
X184397588Y-91060039D03*
D17*
X184397588Y-97010039D03*
X188210000Y-93596731D03*
D16*
X189480000Y-91060692D03*
%TD*%
%TO.C,SW12*%
X198426000Y-159776039D03*
D17*
X198506000Y-163526039D03*
X200966000Y-164856039D03*
D18*
X203503588Y-159779347D03*
D17*
X203503588Y-165729347D03*
X207316000Y-162316039D03*
D16*
X208586000Y-159780000D03*
%TD*%
%TO.C,SW2*%
X103158668Y-110144000D03*
D17*
X103238668Y-113894000D03*
X105698668Y-115224000D03*
D18*
X108236256Y-110147308D03*
D17*
X108236256Y-116097308D03*
X112048668Y-112684000D03*
D16*
X113318668Y-110147961D03*
%TD*%
%TO.C,SW44*%
X255726000Y-110144000D03*
D17*
X255806000Y-113894000D03*
X258266000Y-115224000D03*
D18*
X260803588Y-110147308D03*
D17*
X260803588Y-116097308D03*
X264616000Y-112684000D03*
D16*
X265886000Y-110147961D03*
%TD*%
%TO.C,SW17*%
X217490000Y-159776039D03*
D17*
X217570000Y-163526039D03*
X220030000Y-164856039D03*
D18*
X222567588Y-159779347D03*
D17*
X222567588Y-165729347D03*
X226380000Y-162316039D03*
D16*
X227650000Y-159780000D03*
%TD*%
%TO.C,SW42*%
X255726000Y-153364000D03*
D17*
X255806000Y-157114000D03*
X258266000Y-158444000D03*
D18*
X260803588Y-153367308D03*
D17*
X260803588Y-159317308D03*
X264616000Y-155904000D03*
D16*
X265886000Y-153367961D03*
%TD*%
D19*
%TO.C,H1*%
X248648000Y-144583000D03*
%TD*%
D33*
%TO.C,U5*%
X308610000Y-66784000D03*
D34*
X308610000Y-69324000D03*
X308610000Y-71864000D03*
X308610000Y-74404000D03*
X308610000Y-76944000D03*
%TD*%
D35*
%TO.C,SW37*%
X286496000Y-64798000D03*
X288496000Y-64798000D03*
D36*
X290496000Y-64798000D03*
D37*
X284396000Y-64798000D03*
X292596000Y-64798000D03*
%TD*%
D16*
%TO.C,SW3*%
X103158668Y-153364000D03*
D17*
X103238668Y-157114000D03*
X105698668Y-158444000D03*
D18*
X108236256Y-153367308D03*
D17*
X108236256Y-159317308D03*
X112048668Y-155904000D03*
D16*
X113318668Y-153367961D03*
%TD*%
D19*
%TO.C,H5*%
X196686000Y-144808000D03*
%TD*%
D16*
%TO.C,SW18*%
X274704334Y-91060039D03*
D17*
X274784334Y-94810039D03*
X277244334Y-96140039D03*
D18*
X279781922Y-91063347D03*
D17*
X279781922Y-97013347D03*
X283594334Y-93600039D03*
D16*
X284864334Y-91064000D03*
%TD*%
%TO.C,SW10*%
X122187334Y-129242000D03*
D17*
X122267334Y-132992000D03*
X124727334Y-134322000D03*
D18*
X127264922Y-129245308D03*
D17*
X127264922Y-135195308D03*
X131077334Y-131782000D03*
D16*
X132347334Y-129245961D03*
%TD*%
%TO.C,SW32*%
X331730334Y-91060039D03*
D17*
X331810334Y-94810039D03*
X334270334Y-96140039D03*
D18*
X336807922Y-91063347D03*
D17*
X336807922Y-97013347D03*
X340620334Y-93600039D03*
D16*
X341890334Y-91064000D03*
%TD*%
%TO.C,SW40*%
X179320000Y-129238692D03*
D17*
X179400000Y-132988692D03*
X181860000Y-134318692D03*
D18*
X184397588Y-129242000D03*
D17*
X184397588Y-135192000D03*
X188210000Y-131778692D03*
D16*
X189480000Y-129242653D03*
%TD*%
%TO.C,SW30*%
X312721666Y-129242000D03*
D17*
X312801666Y-132992000D03*
X315261666Y-134322000D03*
D18*
X317799254Y-129245308D03*
D17*
X317799254Y-135195308D03*
X321611666Y-131782000D03*
D16*
X322881666Y-129245961D03*
%TD*%
D19*
%TO.C,H4*%
X161994000Y-76990000D03*
%TD*%
D38*
%TO.C,U4*%
X228037290Y-105339942D03*
D39*
X228037290Y-107119942D03*
X228037290Y-108899942D03*
X228037290Y-110679942D03*
X228037290Y-112459942D03*
X228037290Y-114239942D03*
X228037290Y-116019942D03*
X228037290Y-117799942D03*
X217337290Y-118689942D03*
X217337290Y-116909942D03*
X217337290Y-115129942D03*
X217337290Y-113349942D03*
X217337290Y-111569942D03*
X217337290Y-109789942D03*
X217337290Y-108009942D03*
X217337290Y-106229942D03*
%TD*%
%LPD*%
M02*
