<?xml version="1.0" encoding="UTF-8" standalone="no"?>
<svg
   version="1.1"
   width="26.924000cm"
   height="16.814800cm"
   viewBox="0 0 269240000 168148000"
   id="svg2591"
   sodipodi:docname="Batreeq-plate-top-brd.svg"
   inkscape:version="1.2.1 (9c6d41e, 2022-07-14)"
   xmlns:inkscape="http://www.inkscape.org/namespaces/inkscape"
   xmlns:sodipodi="http://sodipodi.sourceforge.net/DTD/sodipodi-0.dtd"
   xmlns="http://www.w3.org/2000/svg"
   xmlns:svg="http://www.w3.org/2000/svg"
   xmlns:rdf="http://www.w3.org/1999/02/22-rdf-syntax-ns#"
   xmlns:cc="http://creativecommons.org/ns#"
   xmlns:dc="http://purl.org/dc/elements/1.1/">
  <defs
     id="defs2595" />
  <sodipodi:namedview
     id="namedview2593"
     pagecolor="#ffffff"
     bordercolor="#000000"
     borderopacity="0.25"
     inkscape:showpageshadow="2"
     inkscape:pageopacity="0.0"
     inkscape:pagecheckerboard="0"
     inkscape:deskcolor="#d1d1d1"
     inkscape:document-units="cm"
     showgrid="false"
     inkscape:zoom="1.2244497"
     inkscape:cx="337.70273"
     inkscape:cy="339.33611"
     inkscape:window-width="1390"
     inkscape:window-height="1099"
     inkscape:window-x="0"
     inkscape:window-y="25"
     inkscape:window-maximized="0"
     inkscape:current-layer="svg2591" />
  <title
     id="title1319">SVG Picture created as Batreeq-plate-top-brd.svg date 2022/10/18 18:25:03 </title>
  <desc
     id="desc1321">Picture generated by PCBNEW </desc>
  <g
     style="fill:#000000; fill-opacity:1.000000;stroke:#000000; stroke-opacity:1.000000; stroke-linecap:round; stroke-linejoin:round;"
     transform="translate(0 0) scale(1 1)"
     id="g1323" />
  <g
     style="fill:#000000; fill-opacity:0.0;  stroke:#000000; stroke-width:0.000000; stroke-opacity:1;  stroke-linecap:round; stroke-linejoin:round;"
     id="g1325" />
  <g
     style="fill:#E8B2A7; fill-opacity:0.0;  stroke:#E8B2A7; stroke-width:0.000000; stroke-opacity:1;  stroke-linecap:round; stroke-linejoin:round;"
     id="g1327" />
  <g
     style="fill:#E8B2A7; fill-opacity:0.0;  stroke:#E8B2A7; stroke-width:100000.000000; stroke-opacity:1;  stroke-linecap:round; stroke-linejoin:round;"
     id="g1433">
    <circle
       cx="135596003.000000"
       cy="77080001.000000"
       r="29000000.000000"
       id="circle1329" />
    <circle
       cx="135596003.000000"
       cy="77080001.000000"
       r="24000001.000000"
       id="circle1331" />
    <circle
       cx="135596003.000000"
       cy="77080001.000000"
       r="30000000.000000"
       id="circle1333" />
    <circle
       cx="135596003.000000"
       cy="77080001.000000"
       r="23493500.000000"
       id="circle1335" />
    <g
       id="g1337" />
    <g
       id="g1339" />
    <g
       id="g1341" />
    <g
       id="g1343" />
    <g
       id="g1345" />
    <g
       id="g1347" />
    <g
       id="g1349" />
    <g
       id="g1351" />
    <g
       id="g1353" />
    <g
       id="g1355" />
    <g
       id="g1357" />
    <g
       id="g1359" />
    <g
       id="g1361" />
    <g
       id="g1363" />
    <g
       id="g1365" />
    <g
       id="g1367" />
    <g
       id="g1369" />
    <g
       id="g1371" />
    <g
       id="g1373" />
    <g
       id="g1375" />
    <g
       id="g1377" />
    <g
       id="g1379" />
    <g
       id="g1381" />
    <g
       id="g1383" />
    <g
       id="g1385" />
    <g
       id="g1387" />
    <g
       id="g1389" />
    <g
       id="g1391" />
    <g
       id="g1393" />
    <g
       id="g1395" />
    <g
       id="g1397" />
    <g
       id="g1399" />
    <g
       id="g1401" />
    <g
       id="g1403" />
    <g
       id="g1405" />
    <g
       id="g1407" />
    <g
       id="g1409" />
    <g
       id="g1411" />
    <g
       id="g1413" />
    <g
       id="g1415" />
    <g
       id="g1417" />
    <g
       id="g1419" />
    <g
       id="g1421" />
    <g
       id="g1423" />
    <g
       id="g1425" />
    <g
       id="g1427" />
    <g
       id="g1429" />
    <g
       id="g1431" />
  </g>
  <g
     style="fill:#000000; fill-opacity:0.0;  stroke:#000000; stroke-width:100000.000000; stroke-opacity:1;  stroke-linecap:round; stroke-linejoin:round;"
     id="g1435" />
  <g
     style="fill:#C2C2C2; fill-opacity:0.0;  stroke:#C2C2C2; stroke-width:100000.000000; stroke-opacity:1;  stroke-linecap:round; stroke-linejoin:round;"
     id="g1437" />
  <g
     style="fill:#C2C2C2; fill-opacity:0.0;  stroke:#C2C2C2; stroke-width:150000.000000; stroke-opacity:1;  stroke-linecap:round; stroke-linejoin:round;"
     id="g2079">
    <path
       d="M6561831 50191336 L11479393 31838746 "
       id="path1439" />
    <path
       d="M11479393 31838746 L29831983 36756308 "
       id="path1441" />
    <path
       d="M29831983 36756308 L24914421 55108898 "
       id="path1443" />
    <path
       d="M24914421 55108898 L6561831 50191336 "
       id="path1445" />
    <path
       d="M6561831 50191336 L11479393 31838746 "
       id="path1447" />
    <path
       d="M11479393 31838746 L29831983 36756308 "
       id="path1449" />
    <path
       d="M29831983 36756308 L24914421 55108898 "
       id="path1451" />
    <path
       d="M24914421 55108898 L6561831 50191336 "
       id="path1453" />
    <path
       d="M210257670 80873773 L218883490 97802897 "
       id="path1455" />
    <path
       d="M218883490 97802897 L201954366 106428717 "
       id="path1457" />
    <path
       d="M201954366 106428717 L193328546 89499593 "
       id="path1459" />
    <path
       d="M201954366 106428717 L193328546 89499593 "
       id="path1461" />
    <path
       d="M210257670 80873773 L218883490 97802897 "
       id="path1463" />
    <path
       d="M193328546 89499593 L210257670 80873773 "
       id="path1465" />
    <path
       d="M218883490 97802897 L201954366 106428717 "
       id="path1467" />
    <path
       d="M193328546 89499593 L210257670 80873773 "
       id="path1469" />
    <path
       d="M241239720 36755448 L236322158 18402858 "
       id="path1471" />
    <path
       d="M254674748 13485296 L259592310 31837886 "
       id="path1473" />
    <path
       d="M259592310 31837886 L241239720 36755448 "
       id="path1475" />
    <path
       d="M236322158 18402858 L254674748 13485296 "
       id="path1477" />
    <path
       d="M259592310 31837886 L241239720 36755448 "
       id="path1479" />
    <path
       d="M241239720 36755448 L236322158 18402858 "
       id="path1481" />
    <path
       d="M236322158 18402858 L254674748 13485296 "
       id="path1483" />
    <path
       d="M254674748 13485296 L259592310 31837886 "
       id="path1485" />
    <path
       d="M194985002 93731872 L203610822 110660996 "
       id="path1487" />
    <path
       d="M186681698 119286816 L178055878 102357692 "
       id="path1489" />
    <path
       d="M186681698 119286816 L178055878 102357692 "
       id="path1491" />
    <path
       d="M194985002 93731872 L203610822 110660996 "
       id="path1493" />
    <path
       d="M203610822 110660996 L186681698 119286816 "
       id="path1495" />
    <path
       d="M178055878 102357692 L194985002 93731872 "
       id="path1497" />
    <path
       d="M203610822 110660996 L186681698 119286816 "
       id="path1499" />
    <path
       d="M178055878 102357692 L194985002 93731872 "
       id="path1501" />
    <path
       d="M196876338 44186050 L205502158 61115174 "
       id="path1503" />
    <path
       d="M205502158 61115174 L188573034 69740994 "
       id="path1505" />
    <path
       d="M179947214 52811870 L196876338 44186050 "
       id="path1507" />
    <path
       d="M205502158 61115174 L188573034 69740994 "
       id="path1509" />
    <path
       d="M179947214 52811870 L196876338 44186050 "
       id="path1511" />
    <path
       d="M188573034 69740994 L179947214 52811870 "
       id="path1513" />
    <path
       d="M188573034 69740994 L179947214 52811870 "
       id="path1515" />
    <path
       d="M196876338 44186050 L205502158 61115174 "
       id="path1517" />
    <path
       d="M67692616 14666143 L84621740 23291963 "
       id="path1519" />
    <path
       d="M84621740 23291963 L75995920 40221087 "
       id="path1521" />
    <path
       d="M75995920 40221087 L59066796 31595267 "
       id="path1523" />
    <path
       d="M75995920 40221087 L59066796 31595267 "
       id="path1525" />
    <path
       d="M67692616 14666143 L84621740 23291963 "
       id="path1527" />
    <path
       d="M59066796 31595267 L67692616 14666143 "
       id="path1529" />
    <path
       d="M59066796 31595267 L67692616 14666143 "
       id="path1531" />
    <path
       d="M84621740 23291963 L75995920 40221087 "
       id="path1533" />
    <path
       d="M99969858 35956585 L91344038 52885709 "
       id="path1535" />
    <path
       d="M74414914 44259889 L83040734 27330765 "
       id="path1537" />
    <path
       d="M83040734 27330765 L99969858 35956585 "
       id="path1539" />
    <path
       d="M74414914 44259889 L83040734 27330765 "
       id="path1541" />
    <path
       d="M91344038 52885709 L74414914 44259889 "
       id="path1543" />
    <path
       d="M99969858 35956585 L91344038 52885709 "
       id="path1545" />
    <path
       d="M91344038 52885709 L74414914 44259889 "
       id="path1547" />
    <path
       d="M83040734 27330765 L99969858 35956585 "
       id="path1549" />
    <path
       d="M136293588 140867309 L136293588 121867309 "
       id="path1551" />
    <path
       d="M136293588 121867309 L155293588 121867309 "
       id="path1553" />
    <path
       d="M155293588 140867309 L136293588 140867309 "
       id="path1555" />
    <path
       d="M155293588 140867309 L136293588 140867309 "
       id="path1557" />
    <path
       d="M136293588 140867309 L136293588 121867309 "
       id="path1559" />
    <path
       d="M155293588 121867309 L155293588 140867309 "
       id="path1561" />
    <path
       d="M155293588 121867309 L155293588 140867309 "
       id="path1563" />
    <path
       d="M136293588 121867309 L155293588 121867309 "
       id="path1565" />
    <path
       d="M155597590 139089310 L155597590 120089310 "
       id="path1567" />
    <path
       d="M174597590 120089310 L174597590 139089310 "
       id="path1569" />
    <path
       d="M155597590 120089310 L174597590 120089310 "
       id="path1571" />
    <path
       d="M174597590 139089310 L155597590 139089310 "
       id="path1573" />
    <path
       d="M174597590 120089310 L174597590 139089310 "
       id="path1575" />
    <path
       d="M155597590 120089310 L174597590 120089310 "
       id="path1577" />
    <path
       d="M155597590 139089310 L155597590 120089310 "
       id="path1579" />
    <path
       d="M174597590 139089310 L155597590 139089310 "
       id="path1581" />
    <path
       d="M242266539 45893779 L224650046 53011304 "
       id="path1583" />
    <path
       d="M224650046 53011304 L217532521 35394811 "
       id="path1585" />
    <path
       d="M242266539 45893779 L224650046 53011304 "
       id="path1587" />
    <path
       d="M235149014 28277286 L242266539 45893779 "
       id="path1589" />
    <path
       d="M224650046 53011304 L217532521 35394811 "
       id="path1591" />
    <path
       d="M235149014 28277286 L242266539 45893779 "
       id="path1593" />
    <path
       d="M217532521 35394811 L235149014 28277286 "
       id="path1595" />
    <path
       d="M217532521 35394811 L235149014 28277286 "
       id="path1597" />
    <path
       d="M67680433 110734838 L76306253 93805714 "
       id="path1599" />
    <path
       d="M93235377 102431534 L84609557 119360658 "
       id="path1601" />
    <path
       d="M67680433 110734838 L76306253 93805714 "
       id="path1603" />
    <path
       d="M84609557 119360658 L67680433 110734838 "
       id="path1605" />
    <path
       d="M76306253 93805714 L93235377 102431534 "
       id="path1607" />
    <path
       d="M84609557 119360658 L67680433 110734838 "
       id="path1609" />
    <path
       d="M93235377 102431534 L84609557 119360658 "
       id="path1611" />
    <path
       d="M76306253 93805714 L93235377 102431534 "
       id="path1613" />
    <path
       d="M203387677 14671395 L212013497 31600519 "
       id="path1615" />
    <path
       d="M212013497 31600519 L195084373 40226339 "
       id="path1617" />
    <path
       d="M186458553 23297215 L203387677 14671395 "
       id="path1619" />
    <path
       d="M212013497 31600519 L195084373 40226339 "
       id="path1621" />
    <path
       d="M203387677 14671395 L212013497 31600519 "
       id="path1623" />
    <path
       d="M186458553 23297215 L203387677 14671395 "
       id="path1625" />
    <path
       d="M195084373 40226339 L186458553 23297215 "
       id="path1627" />
    <path
       d="M195084373 40226339 L186458553 23297215 "
       id="path1629" />
    <path
       d="M67370104 57150211 L50440980 48524391 "
       id="path1631" />
    <path
       d="M50440980 48524391 L59066800 31595267 "
       id="path1633" />
    <path
       d="M67370104 57150211 L50440980 48524391 "
       id="path1635" />
    <path
       d="M75995924 40221087 L67370104 57150211 "
       id="path1637" />
    <path
       d="M59066800 31595267 L75995924 40221087 "
       id="path1639" />
    <path
       d="M50440980 48524391 L59066800 31595267 "
       id="path1641" />
    <path
       d="M59066800 31595267 L75995924 40221087 "
       id="path1643" />
    <path
       d="M75995924 40221087 L67370104 57150211 "
       id="path1645" />
    <path
       d="M65789095 61189015 L82718219 69814835 "
       id="path1647" />
    <path
       d="M74092399 86743959 L57163275 78118139 "
       id="path1649" />
    <path
       d="M65789095 61189015 L82718219 69814835 "
       id="path1651" />
    <path
       d="M82718219 69814835 L74092399 86743959 "
       id="path1653" />
    <path
       d="M82718219 69814835 L74092399 86743959 "
       id="path1655" />
    <path
       d="M74092399 86743959 L57163275 78118139 "
       id="path1657" />
    <path
       d="M57163275 78118139 L65789095 61189015 "
       id="path1659" />
    <path
       d="M57163275 78118139 L65789095 61189015 "
       id="path1661" />
    <path
       d="M259600972 31845344 L264518534 50197934 "
       id="path1663" />
    <path
       d="M246165944 55115496 L241248382 36762906 "
       id="path1665" />
    <path
       d="M259600972 31845344 L264518534 50197934 "
       id="path1667" />
    <path
       d="M241248382 36762906 L259600972 31845344 "
       id="path1669" />
    <path
       d="M241248382 36762906 L259600972 31845344 "
       id="path1671" />
    <path
       d="M264518534 50197934 L246165944 55115496 "
       id="path1673" />
    <path
       d="M246165944 55115496 L241248382 36762906 "
       id="path1675" />
    <path
       d="M264518534 50197934 L246165944 55115496 "
       id="path1677" />
    <path
       d="M212336010 74084586 L203710190 57155462 "
       id="path1679" />
    <path
       d="M229265134 65458766 L212336010 74084586 "
       id="path1681" />
    <path
       d="M203710190 57155462 L220639314 48529642 "
       id="path1683" />
    <path
       d="M220639314 48529642 L229265134 65458766 "
       id="path1685" />
    <path
       d="M203710190 57155462 L220639314 48529642 "
       id="path1687" />
    <path
       d="M220639314 48529642 L229265134 65458766 "
       id="path1689" />
    <path
       d="M212336010 74084586 L203710190 57155462 "
       id="path1691" />
    <path
       d="M229265134 65458766 L212336010 74084586 "
       id="path1693" />
    <path
       d="M39312896 70622163 L21696403 63504638 "
       id="path1695" />
    <path
       d="M28813928 45888145 L46430421 53005670 "
       id="path1697" />
    <path
       d="M28813928 45888145 L46430421 53005670 "
       id="path1699" />
    <path
       d="M21696403 63504638 L28813928 45888145 "
       id="path1701" />
    <path
       d="M21696403 63504638 L28813928 45888145 "
       id="path1703" />
    <path
       d="M39312896 70622163 L21696403 63504638 "
       id="path1705" />
    <path
       d="M46430421 53005670 L39312896 70622163 "
       id="path1707" />
    <path
       d="M46430421 53005670 L39312896 70622163 "
       id="path1709" />
    <path
       d="M97688002 119747311 L116688002 119747311 "
       id="path1711" />
    <path
       d="M116688002 119747311 L116688002 138747311 "
       id="path1713" />
    <path
       d="M116688002 138747311 L97688002 138747311 "
       id="path1715" />
    <path
       d="M97688002 138747311 L97688002 119747311 "
       id="path1717" />
    <path
       d="M116688002 138747311 L97688002 138747311 "
       id="path1719" />
    <path
       d="M97688002 138747311 L97688002 119747311 "
       id="path1721" />
    <path
       d="M97688002 119747311 L116688002 119747311 "
       id="path1723" />
    <path
       d="M116688002 119747311 L116688002 138747311 "
       id="path1725" />
    <path
       d="M53547945 35389177 L35931452 28271652 "
       id="path1727" />
    <path
       d="M53547945 35389177 L35931452 28271652 "
       id="path1729" />
    <path
       d="M35931452 28271652 L43048977 10655159 "
       id="path1731" />
    <path
       d="M60665470 17772684 L53547945 35389177 "
       id="path1733" />
    <path
       d="M43048977 10655159 L60665470 17772684 "
       id="path1735" />
    <path
       d="M43048977 10655159 L60665470 17772684 "
       id="path1737" />
    <path
       d="M35931452 28271652 L43048977 10655159 "
       id="path1739" />
    <path
       d="M60665470 17772684 L53547945 35389177 "
       id="path1741" />
    <path
       d="M61033583 80947611 L77962707 89573431 "
       id="path1743" />
    <path
       d="M77962707 89573431 L69336887 106502555 "
       id="path1745" />
    <path
       d="M69336887 106502555 L52407763 97876735 "
       id="path1747" />
    <path
       d="M69336887 106502555 L52407763 97876735 "
       id="path1749" />
    <path
       d="M61033583 80947611 L77962707 89573431 "
       id="path1751" />
    <path
       d="M52407763 97876735 L61033583 80947611 "
       id="path1753" />
    <path
       d="M52407763 97876735 L61033583 80947611 "
       id="path1755" />
    <path
       d="M77962707 89573431 L69336887 106502555 "
       id="path1757" />
    <path
       d="M192150558 77232866 L175221434 85858686 "
       id="path1759" />
    <path
       d="M175221434 85858686 L166595614 68929562 "
       id="path1761" />
    <path
       d="M192150558 77232866 L175221434 85858686 "
       id="path1763" />
    <path
       d="M175221434 85858686 L166595614 68929562 "
       id="path1765" />
    <path
       d="M166595614 68929562 L183524738 60303742 "
       id="path1767" />
    <path
       d="M183524738 60303742 L192150558 77232866 "
       id="path1769" />
    <path
       d="M183524738 60303742 L192150558 77232866 "
       id="path1771" />
    <path
       d="M166595614 68929562 L183524738 60303742 "
       id="path1773" />
    <path
       d="M11471882 31820945 L16389444 13468355 "
       id="path1775" />
    <path
       d="M16389444 13468355 L34742034 18385917 "
       id="path1777" />
    <path
       d="M29824472 36738507 L11471882 31820945 "
       id="path1779" />
    <path
       d="M16389444 13468355 L34742034 18385917 "
       id="path1781" />
    <path
       d="M29824472 36738507 L11471882 31820945 "
       id="path1783" />
    <path
       d="M34742034 18385917 L29824472 36738507 "
       id="path1785" />
    <path
       d="M34742034 18385917 L29824472 36738507 "
       id="path1787" />
    <path
       d="M11471882 31820945 L16389444 13468355 "
       id="path1789" />
    <path
       d="M50440978 48524392 L67370102 57150212 "
       id="path1791" />
    <path
       d="M41815158 65453516 L50440978 48524392 "
       id="path1793" />
    <path
       d="M67370102 57150212 L58744282 74079336 "
       id="path1795" />
    <path
       d="M58744282 74079336 L41815158 65453516 "
       id="path1797" />
    <path
       d="M50440978 48524392 L67370102 57150212 "
       id="path1799" />
    <path
       d="M58744282 74079336 L41815158 65453516 "
       id="path1801" />
    <path
       d="M67370102 57150212 L58744282 74079336 "
       id="path1803" />
    <path
       d="M41815158 65453516 L50440978 48524392 "
       id="path1805" />
    <path
       d="M235149015 28277288 L217532522 35394813 "
       id="path1807" />
    <path
       d="M217532522 35394813 L210414997 17778320 "
       id="path1809" />
    <path
       d="M235149015 28277288 L217532522 35394813 "
       id="path1811" />
    <path
       d="M217532522 35394813 L210414997 17778320 "
       id="path1813" />
    <path
       d="M210414997 17778320 L228031490 10660795 "
       id="path1815" />
    <path
       d="M228031490 10660795 L235149015 28277288 "
       id="path1817" />
    <path
       d="M228031490 10660795 L235149015 28277288 "
       id="path1819" />
    <path
       d="M210414997 17778320 L228031490 10660795 "
       id="path1821" />
    <path
       d="M91344036 52885710 L82718216 69814834 "
       id="path1823" />
    <path
       d="M74414912 44259890 L91344036 52885710 "
       id="path1825" />
    <path
       d="M65789092 61189014 L74414912 44259890 "
       id="path1827" />
    <path
       d="M74414912 44259890 L91344036 52885710 "
       id="path1829" />
    <path
       d="M91344036 52885710 L82718216 69814834 "
       id="path1831" />
    <path
       d="M82718216 69814834 L65789092 61189014 "
       id="path1833" />
    <path
       d="M65789092 61189014 L74414912 44259890 "
       id="path1835" />
    <path
       d="M82718216 69814834 L65789092 61189014 "
       id="path1837" />
    <path
       d="M104695638 69003403 L87766514 60377583 "
       id="path1839" />
    <path
       d="M96392334 43448459 L113321458 52074279 "
       id="path1841" />
    <path
       d="M96392334 43448459 L113321458 52074279 "
       id="path1843" />
    <path
       d="M87766514 60377583 L96392334 43448459 "
       id="path1845" />
    <path
       d="M113321458 52074279 L104695638 69003403 "
       id="path1847" />
    <path
       d="M87766514 60377583 L96392334 43448459 "
       id="path1849" />
    <path
       d="M104695638 69003403 L87766514 60377583 "
       id="path1851" />
    <path
       d="M113321458 52074279 L104695638 69003403 "
       id="path1853" />
    <path
       d="M166595616 68929561 L157969796 52000437 "
       id="path1855" />
    <path
       d="M166595616 68929561 L157969796 52000437 "
       id="path1857" />
    <path
       d="M157969796 52000437 L174898920 43374617 "
       id="path1859" />
    <path
       d="M174898920 43374617 L183524740 60303741 "
       id="path1861" />
    <path
       d="M183524740 60303741 L166595616 68929561 "
       id="path1863" />
    <path
       d="M157969796 52000437 L174898920 43374617 "
       id="path1865" />
    <path
       d="M174898920 43374617 L183524740 60303741 "
       id="path1867" />
    <path
       d="M183524740 60303741 L166595616 68929561 "
       id="path1869" />
    <path
       d="M196876343 44186049 L179947219 52811869 "
       id="path1871" />
    <path
       d="M188250523 27256925 L196876343 44186049 "
       id="path1873" />
    <path
       d="M171321399 35882745 L188250523 27256925 "
       id="path1875" />
    <path
       d="M171321399 35882745 L188250523 27256925 "
       id="path1877" />
    <path
       d="M196876343 44186049 L179947219 52811869 "
       id="path1879" />
    <path
       d="M179947219 52811869 L171321399 35882745 "
       id="path1881" />
    <path
       d="M188250523 27256925 L196876343 44186049 "
       id="path1883" />
    <path
       d="M179947219 52811869 L171321399 35882745 "
       id="path1885" />
    <path
       d="M135968000 121864002 L135968000 140864002 "
       id="path1887" />
    <path
       d="M135968000 121864002 L135968000 140864002 "
       id="path1889" />
    <path
       d="M135968000 140864002 L116968000 140864002 "
       id="path1891" />
    <path
       d="M135968000 140864002 L116968000 140864002 "
       id="path1893" />
    <path
       d="M116968000 121864002 L135968000 121864002 "
       id="path1895" />
    <path
       d="M116968000 140864002 L116968000 121864002 "
       id="path1897" />
    <path
       d="M116968000 140864002 L116968000 121864002 "
       id="path1899" />
    <path
       d="M116968000 121864002 L135968000 121864002 "
       id="path1901" />
    <path
       d="M220639317 48529645 L203710193 57155465 "
       id="path1903" />
    <path
       d="M203710193 57155465 L195084373 40226341 "
       id="path1905" />
    <path
       d="M220639317 48529645 L203710193 57155465 "
       id="path1907" />
    <path
       d="M212013497 31600521 L220639317 48529645 "
       id="path1909" />
    <path
       d="M203710193 57155465 L195084373 40226341 "
       id="path1911" />
    <path
       d="M195084373 40226341 L212013497 31600521 "
       id="path1913" />
    <path
       d="M195084373 40226341 L212013497 31600521 "
       id="path1915" />
    <path
       d="M212013497 31600521 L220639317 48529645 "
       id="path1917" />
    <path
       d="M249384064 63510274 L231767571 70627799 "
       id="path1919" />
    <path
       d="M249384064 63510274 L231767571 70627799 "
       id="path1921" />
    <path
       d="M224650046 53011306 L242266539 45893781 "
       id="path1923" />
    <path
       d="M242266539 45893781 L249384064 63510274 "
       id="path1925" />
    <path
       d="M242266539 45893781 L249384064 63510274 "
       id="path1927" />
    <path
       d="M224650046 53011306 L242266539 45893781 "
       id="path1929" />
    <path
       d="M231767571 70627799 L224650046 53011306 "
       id="path1931" />
    <path
       d="M231767571 70627799 L224650046 53011306 "
       id="path1933" />
    <path
       d="M35931742 28272060 L53548235 35389585 "
       id="path1935" />
    <path
       d="M28814217 45888553 L35931742 28272060 "
       id="path1937" />
    <path
       d="M35931742 28272060 L53548235 35389585 "
       id="path1939" />
    <path
       d="M28814217 45888553 L35931742 28272060 "
       id="path1941" />
    <path
       d="M46430710 53006078 L28814217 45888553 "
       id="path1943" />
    <path
       d="M46430710 53006078 L28814217 45888553 "
       id="path1945" />
    <path
       d="M53548235 35389585 L46430710 53006078 "
       id="path1947" />
    <path
       d="M53548235 35389585 L46430710 53006078 "
       id="path1949" />
    <path
       d="M188573034 69740996 L205502158 61115176 "
       id="path1951" />
    <path
       d="M205502158 61115176 L214127978 78044300 "
       id="path1953" />
    <path
       d="M205502158 61115176 L214127978 78044300 "
       id="path1955" />
    <path
       d="M188573034 69740996 L205502158 61115176 "
       id="path1957" />
    <path
       d="M214127978 78044300 L197198854 86670120 "
       id="path1959" />
    <path
       d="M197198854 86670120 L188573034 69740996 "
       id="path1961" />
    <path
       d="M197198854 86670120 L188573034 69740996 "
       id="path1963" />
    <path
       d="M214127978 78044300 L197198854 86670120 "
       id="path1965" />
    <path
       d="M104695637 69003401 L96069817 85932525 "
       id="path1967" />
    <path
       d="M96069817 85932525 L79140693 77306705 "
       id="path1969" />
    <path
       d="M104695637 69003401 L96069817 85932525 "
       id="path1971" />
    <path
       d="M79140693 77306705 L87766513 60377581 "
       id="path1973" />
    <path
       d="M96069817 85932525 L79140693 77306705 "
       id="path1975" />
    <path
       d="M87766513 60377581 L104695637 69003401 "
       id="path1977" />
    <path
       d="M79140693 77306705 L87766513 60377581 "
       id="path1979" />
    <path
       d="M87766513 60377581 L104695637 69003401 "
       id="path1981" />
    <g
       id="g1983" />
    <g
       id="g1985" />
    <g
       id="g1987" />
    <g
       id="g1989" />
    <g
       id="g1991" />
    <g
       id="g1993" />
    <g
       id="g1995" />
    <g
       id="g1997" />
    <g
       id="g1999" />
    <g
       id="g2001" />
    <g
       id="g2003" />
    <g
       id="g2005" />
    <g
       id="g2007" />
    <g
       id="g2009" />
    <g
       id="g2011" />
    <g
       id="g2013" />
    <g
       id="g2015" />
    <g
       id="g2017" />
    <g
       id="g2019" />
    <g
       id="g2021" />
    <g
       id="g2023" />
    <g
       id="g2025" />
    <g
       id="g2027" />
    <g
       id="g2029" />
    <g
       id="g2031" />
    <g
       id="g2033" />
    <g
       id="g2035" />
    <g
       id="g2037" />
    <g
       id="g2039" />
    <g
       id="g2041" />
    <g
       id="g2043" />
    <g
       id="g2045" />
    <g
       id="g2047" />
    <g
       id="g2049" />
    <g
       id="g2051" />
    <g
       id="g2053" />
    <g
       id="g2055" />
    <g
       id="g2057" />
    <g
       id="g2059" />
    <g
       id="g2061" />
    <g
       id="g2063" />
    <g
       id="g2065" />
    <g
       id="g2067" />
    <g
       id="g2069" />
    <g
       id="g2071" />
    <g
       id="g2073" />
    <g
       id="g2075" />
    <g
       id="g2077" />
  </g>
  <g
     style="fill:#000000; fill-opacity:0.0;  stroke:#000000; stroke-width:150000.000000; stroke-opacity:1;  stroke-linecap:round; stroke-linejoin:round;"
     id="g2081" />
  <g
     style="fill:#D0D2CD; fill-opacity:0.0;  stroke:#D0D2CD; stroke-width:150000.000000; stroke-opacity:1;  stroke-linecap:round; stroke-linejoin:round;"
     id="g2083" />
  <g
     style="fill:#D0D2CD; fill-opacity:0.0;  stroke:#D0D2CD; stroke-width:50000.000000; stroke-opacity:1;  stroke-linecap:round; stroke-linejoin:round;"
     id="g2219">
    <path
       d="M24383960.543426 55879989.574498 A546309.000000 546309.000000 0.0 0 0 24038945.901901 55189894.292918"
       id="path2085" />
    <path
       d="M211870470.443957 80518030.716635 A531091.000000 531091.000000 0.0 0 0 211616456.422444 81280001.749255"
       id="path2087" />
    <path
       d="M33244421.693177 15351690.447676 A685935.000000 685935.000000 0.0 0 0 33916676.332890 15174656.330573"
       id="path2089" />
    <path
       d="M205266457 12224000 L178850456 25686003 "
       id="path2091" />
    <path
       d="M203234462.611772 106934010.020386 A333548.000000 333548.000000 0.0 0 0 203125009.016876 107389444.989825"
       id="path2093" />
    <path
       d="M205774418.889373 12478020.360295 A464271.000000 464271.000000 0.0 0 0 205266457.096491 12224000.490014"
       id="path2095" />
    <path
       d="M52264059.801727 97665857.398571 A451507.000000 451507.000000 0.0 0 0 52518103.112219 98298001.676451"
       id="path2097" />
    <path
       d="M238405750.114484 15428688.659855 A686018.000000 686018.000000 0.0 0 0 239078028.018489 15605666.065800"
       id="path2099" />
    <path
       d="M177834457 25178003 L169960457 13970001 "
       id="path2101" />
    <path
       d="M63964650 16288002 L42783914 7701030 "
       id="path2103" />
    <path
       d="M229538544 7955031 L208357809 16542003 "
       id="path2105" />
    <path
       d="M204608178.069769 111287381.217906 A397276.000000 397276.000000 0.0 0 0 204757058.014650 110742600.991537"
       id="path2107" />
    <path
       d="M96774003.070981 138938002.551818 A257028768.000000 257028768.000000 0.0 0 0 175548458.045984 139192001.302979"
       id="path2109" />
    <path
       d="M96536005.391629 138683999.967809 A258274.000000 258274.000000 0.0 0 0 96774003.024346 138938002.690484"
       id="path2111" />
    <path
       d="M220058354 97919882 L211616456 81280002 "
       id="path2113" />
    <path
       d="M16764003.063450 10953994.774234 A666647.000000 666647.000000 0.0 0 0 16002002.003862 11462000.000886"
       id="path2115" />
    <path
       d="M63964659.324759 16287973.045141 A448543.000000 448543.000000 0.0 0 0 64516002.741847 16034002.892098"
       id="path2117" />
    <path
       d="M67056000.166345 11970009.321561 A464448.000000 464448.000000 0.0 0 0 66548001.313372 12224003.151101"
       id="path2119" />
    <path
       d="M204757058 110742601 L203125009 107389445 "
       id="path2121" />
    <path
       d="M24384001 55880003 L21336003 63246002 "
       id="path2123" />
    <path
       d="M21336008.383093 63246004.577906 A346871.000000 346871.000000 0.0 0 0 21507954.870279 63712788.291813"
       id="path2125" />
    <path
       d="M69197414.363662 107135422.922823 A333632.000000 333632.000000 0.0 0 0 69088000.802314 106680005.317493"
       id="path2127" />
    <path
       d="M67565465.339930 110488639.440463 A396027.000000 396027.000000 0.0 0 0 67714284.132461 111033375.763416"
       id="path2129" />
    <path
       d="M176056470.565479 125984035.587786 A434456.000000 434456.000000 0.0 0 0 175783591.429263 126417057.970950"
       id="path2131" />
    <path
       d="M93472002 25432002 L67056002 11970000 "
       id="path2133" />
    <path
       d="M5842040.143089 49784014.148115 A513770.000000 513770.000000 0.0 0 0 6152953.040462 50425893.890026"
       id="path2135" />
    <path
       d="M102362001 13970000 L94488000 25178002 "
       id="path2137" />
    <path
       d="M203234457 106934001 L219804355 98552003 "
       id="path2139" />
    <path
       style="fill:#D0D2CD; fill-opacity:0.0;  stroke:#D0D2CD; stroke-width:50000.000000; stroke-opacity:1;  stroke-linecap:round; stroke-linejoin:round;fill:none"
       d="M 142494001.000000,96520004.000000 128778002.000000,96520002.000000 128778001.000000,89916001.000000 142494001.000000,89916000.000000 Z"
       id="path2141" />
    <path
       d="M175786456 138938002 L175783591 126417058 "
       id="path2143" />
    <path
       d="M256320398.381715 11716016.452145 A666632.000000 666632.000000 0.0 0 0 255558455.992358 11208001.955240"
       id="path2145" />
    <path
       d="M105663999.066195 12927034.847044 A76785174.000000 76785174.000000 0.0 0 0 166658458.091553 12927035.211550"
       id="path2147" />
    <path
       d="M230076116.854157 8034692.872615 A503717.000000 503717.000000 0.0 0 0 229538543.849723 7955030.665866"
       id="path2149" />
    <path
       d="M85090002 119888002 L96266003 125730002 "
       id="path2151" />
    <path
       d="M69197451 107135445 L67565401 110488602 "
       id="path2153" />
    <path
       d="M60706002 81026003 L52264104 97665880 "
       id="path2155" />
    <path
       d="M21507955 63712788 L60452003 80264002 "
       id="path2157" />
    <path
       d="M96538837.470120 126163060.130116 A434380.000000 434380.000000 0.0 0 0 96266002.968648 125730002.078819"
       id="path2159" />
    <path
       d="M33244428 15351668 L16764002 10954001 "
       id="path2161" />
    <path
       d="M238405784 15428655 L230076115 8034695 "
       id="path2163" />
    <path
       d="M177834420.419897 25178022.881365 A992397.000000 992397.000000 0.0 0 0 178850456.045722 25686003.311541"
       id="path2165" />
    <path
       d="M60705968.778267 81025983.266969 A530972.000000 530972.000000 0.0 0 0 60452002.907284 80264002.224674"
       id="path2167" />
    <path
       d="M211870459 80518003 L250814504 63966788 "
       id="path2169" />
    <path
       d="M169960438.262938 13970015.210114 A2996674.000000 2996674.000000 0.0 0 0 166658457.869018 12927034.591168"
       id="path2171" />
    <path
       d="M16002002 11462000 L5842003 49784002 "
       id="path2173" />
    <path
       d="M42246341 7780696 L33916676 15174656 "
       id="path2175" />
    <path
       d="M207806435.265789 16288011.088482 A448653.000000 448653.000000 0.0 0 0 208357808.902678 16542002.697612"
       id="path2177" />
    <path
       d="M187232454 120142002 L204608174 111287374 "
       id="path2179" />
    <path
       d="M175548454.004093 139191950.302841 A258325.000000 258325.000000 0.0 0 0 175786456.219743 138938002.003044"
       id="path2181" />
    <path
       d="M67714284 111033376 L85090002 119888002 "
       id="path2183" />
    <path
       d="M6152953 50425894 L24038946 55189894 "
       id="path2185" />
    <path
       d="M266169528.294526 50679960.014221 A513856.000000 513856.000000 0.0 0 0 266480458.035516 50038000.988385"
       id="path2187" />
    <path
       d="M248283486.523456 55443823.923168 A546401.000000 546401.000000 0.0 0 0 247938458.681856 56134002.105565"
       id="path2189" />
    <path
       d="M105664015.078850 12926982.339277 A3056153.000000 3056153.000000 0.0 0 0 102362000.791602 13969999.837409"
       id="path2191" />
    <path
       d="M66548001 12224003 L64516003 16034003 "
       id="path2193" />
    <path
       d="M219804346.358847 98551978.093518 A451497.000000 451497.000000 0.0 0 0 220058353.640342 97919882.183893"
       id="path2195" />
    <path
       d="M248283510 55443894 L266169504 50679894 "
       id="path2197" />
    <path
       d="M207806457 16288002 L205774457 12478002 "
       id="path2199" />
    <path
       d="M42783936.391211 7700980.200970 A503750.000000 503750.000000 0.0 0 0 42246341.144601 7780696.165881"
       id="path2201" />
    <path
       d="M255558456 11208002 L239078028 15605666 "
       id="path2203" />
    <path
       d="M250814517.093638 63966817.444986 A346922.000000 346922.000000 0.0 0 0 250986457.586440 63499999.198023"
       id="path2205" />
    <path
       d="M96538865 126163062 L96536003 138684000 "
       id="path2207" />
    <path
       d="M250986458 63499999 L247938459 56134002 "
       id="path2209" />
    <path
       d="M176056458 125984004 L187232454 120142002 "
       id="path2211" />
    <path
       d="M52518103 98298002 L69088001 106680005 "
       id="path2213" />
    <path
       d="M93472008.236830 25431979.103258 A1070901.000000 1070901.000000 0.0 0 0 94487999.955992 25178001.953311"
       id="path2215" />
    <path
       d="M266480458 50038001 L256320457 11716003 "
       id="path2217" />
  </g>
  <g
     style="fill:#D0D2CD; fill-opacity:0.0;  stroke:#D0D2CD; stroke-width:120000.000000; stroke-opacity:1;  stroke-linecap:round; stroke-linejoin:round;"
     id="g2589">
    <path
       d="M26770121 38524075 L13247160 34900608 "
       id="path2221" />
    <path
       d="M23146654 52047036 L26770121 38524075 "
       id="path2223" />
    <path
       d="M9623693 48423569 L23146654 52047036 "
       id="path2225" />
    <path
       d="M13247160 34900608 L9623693 48423569 "
       id="path2227" />
    <path
       d="M203046906 103066224 L215520997 96710357 "
       id="path2229" />
    <path
       d="M209165130 84236266 L196691039 90592133 "
       id="path2231" />
    <path
       d="M196691039 90592133 L203046906 103066224 "
       id="path2233" />
    <path
       d="M215520997 96710357 L209165130 84236266 "
       id="path2235" />
    <path
       d="M252906981 16547158 L239384020 20170625 "
       id="path2237" />
    <path
       d="M239384020 20170625 L243007487 33693586 "
       id="path2239" />
    <path
       d="M243007487 33693586 L256530448 30070119 "
       id="path2241" />
    <path
       d="M256530448 30070119 L252906981 16547158 "
       id="path2243" />
    <path
       d="M181418371 103450232 L187774238 115924323 "
       id="path2245" />
    <path
       d="M200248329 109568456 L193892462 97094365 "
       id="path2247" />
    <path
       d="M193892462 97094365 L181418371 103450232 "
       id="path2249" />
    <path
       d="M187774238 115924323 L200248329 109568456 "
       id="path2251" />
    <path
       d="M189665574 66378501 L202139665 60022634 "
       id="path2253" />
    <path
       d="M202139665 60022634 L195783798 47548543 "
       id="path2255" />
    <path
       d="M183309707 53904410 L189665574 66378501 "
       id="path2257" />
    <path
       d="M195783798 47548543 L183309707 53904410 "
       id="path2259" />
    <path
       d="M81259247 24384503 L68785156 18028636 "
       id="path2261" />
    <path
       d="M68785156 18028636 L62429289 30502727 "
       id="path2263" />
    <path
       d="M62429289 30502727 L74903380 36858594 "
       id="path2265" />
    <path
       d="M74903380 36858594 L81259247 24384503 "
       id="path2267" />
    <path
       d="M77777407 43167349 L90251498 49523216 "
       id="path2269" />
    <path
       d="M90251498 49523216 L96607365 37049125 "
       id="path2271" />
    <path
       d="M84133274 30693258 L77777407 43167349 "
       id="path2273" />
    <path
       d="M96607365 37049125 L84133274 30693258 "
       id="path2275" />
    <path
       d="M138793588 138367309 L152793588 138367309 "
       id="path2277" />
    <path
       d="M152793588 124367309 L138793588 124367309 "
       id="path2279" />
    <path
       d="M138793588 124367309 L138793588 138367309 "
       id="path2281" />
    <path
       d="M152793588 138367309 L152793588 124367309 "
       id="path2283" />
    <path
       d="M158097590 136589310 L172097590 136589310 "
       id="path2285" />
    <path
       d="M172097590 122589310 L158097590 122589310 "
       id="path2287" />
    <path
       d="M158097590 122589310 L158097590 136589310 "
       id="path2289" />
    <path
       d="M172097590 136589310 L172097590 122589310 "
       id="path2291" />
    <path
       d="M220786997 36776254 L226031489 49756828 "
       id="path2293" />
    <path
       d="M226031489 49756828 L239012063 44512336 "
       id="path2295" />
    <path
       d="M233767571 31531762 L220786997 36776254 "
       id="path2297" />
    <path
       d="M239012063 44512336 L233767571 31531762 "
       id="path2299" />
    <path
       d="M71042926 109642298 L83517017 115998165 "
       id="path2301" />
    <path
       d="M77398793 97168207 L71042926 109642298 "
       id="path2303" />
    <path
       d="M83517017 115998165 L89872884 103524074 "
       id="path2305" />
    <path
       d="M89872884 103524074 L77398793 97168207 "
       id="path2307" />
    <path
       d="M202295137 18033888 L189821046 24389755 "
       id="path2309" />
    <path
       d="M189821046 24389755 L196176913 36863846 "
       id="path2311" />
    <path
       d="M196176913 36863846 L208651004 30507979 "
       id="path2313" />
    <path
       d="M208651004 30507979 L202295137 18033888 "
       id="path2315" />
    <path
       d="M66277564 53787718 L72633431 41313627 "
       id="path2317" />
    <path
       d="M72633431 41313627 L60159340 34957760 "
       id="path2319" />
    <path
       d="M60159340 34957760 L53803473 47431851 "
       id="path2321" />
    <path
       d="M53803473 47431851 L66277564 53787718 "
       id="path2323" />
    <path
       d="M60525768 77025599 L72999859 83381466 "
       id="path2325" />
    <path
       d="M72999859 83381466 L79355726 70907375 "
       id="path2327" />
    <path
       d="M66881635 64551508 L60525768 77025599 "
       id="path2329" />
    <path
       d="M79355726 70907375 L66881635 64551508 "
       id="path2331" />
    <path
       d="M261456672 48430167 L257833205 34907206 "
       id="path2333" />
    <path
       d="M247933711 52053634 L261456672 48430167 "
       id="path2335" />
    <path
       d="M257833205 34907206 L244310244 38530673 "
       id="path2337" />
    <path
       d="M244310244 38530673 L247933711 52053634 "
       id="path2339" />
    <path
       d="M207072683 58248002 L213428550 70722093 "
       id="path2341" />
    <path
       d="M219546774 51892135 L207072683 58248002 "
       id="path2343" />
    <path
       d="M225902641 64366226 L219546774 51892135 "
       id="path2345" />
    <path
       d="M213428550 70722093 L225902641 64366226 "
       id="path2347" />
    <path
       d="M43175945 54387113 L30195371 49142621 "
       id="path2349" />
    <path
       d="M37931453 67367687 L43175945 54387113 "
       id="path2351" />
    <path
       d="M30195371 49142621 L24950879 62123195 "
       id="path2353" />
    <path
       d="M24950879 62123195 L37931453 67367687 "
       id="path2355" />
    <path
       d="M114188002 136247311 L114188002 122247311 "
       id="path2357" />
    <path
       d="M100188002 122247311 L100188002 136247311 "
       id="path2359" />
    <path
       d="M100188002 136247311 L114188002 136247311 "
       id="path2361" />
    <path
       d="M114188002 122247311 L100188002 122247311 "
       id="path2363" />
    <path
       d="M39185928 26890209 L52166502 32134701 "
       id="path2365" />
    <path
       d="M52166502 32134701 L57410994 19154127 "
       id="path2367" />
    <path
       d="M57410994 19154127 L44430420 13909635 "
       id="path2369" />
    <path
       d="M44430420 13909635 L39185928 26890209 "
       id="path2371" />
    <path
       d="M68244347 103140062 L74600214 90665971 "
       id="path2373" />
    <path
       d="M55770256 96784195 L68244347 103140062 "
       id="path2375" />
    <path
       d="M62126123 84310104 L55770256 96784195 "
       id="path2377" />
    <path
       d="M74600214 90665971 L62126123 84310104 "
       id="path2379" />
    <path
       d="M182432198 63666235 L169958107 70022102 "
       id="path2381" />
    <path
       d="M169958107 70022102 L176313974 82496193 "
       id="path2383" />
    <path
       d="M188788065 76140326 L182432198 63666235 "
       id="path2385" />
    <path
       d="M176313974 82496193 L188788065 76140326 "
       id="path2387" />
    <path
       d="M31680172 20153684 L18157211 16530217 "
       id="path2389" />
    <path
       d="M28056705 33676645 L31680172 20153684 "
       id="path2391" />
    <path
       d="M18157211 16530217 L14533744 30053178 "
       id="path2393" />
    <path
       d="M14533744 30053178 L28056705 33676645 "
       id="path2395" />
    <path
       d="M45177651 64360976 L57651742 70716843 "
       id="path2397" />
    <path
       d="M57651742 70716843 L64007609 58242752 "
       id="path2399" />
    <path
       d="M64007609 58242752 L51533518 51886885 "
       id="path2401" />
    <path
       d="M51533518 51886885 L45177651 64360976 "
       id="path2403" />
    <path
       d="M226650047 13915271 L213669473 19159763 "
       id="path2405" />
    <path
       d="M218913965 32140337 L231894539 26895845 "
       id="path2407" />
    <path
       d="M231894539 26895845 L226650047 13915271 "
       id="path2409" />
    <path
       d="M213669473 19159763 L218913965 32140337 "
       id="path2411" />
    <path
       d="M81625676 66452341 L87981543 53978250 "
       id="path2413" />
    <path
       d="M75507452 47622383 L69151585 60096474 "
       id="path2415" />
    <path
       d="M87981543 53978250 L75507452 47622383 "
       id="path2417" />
    <path
       d="M69151585 60096474 L81625676 66452341 "
       id="path2419" />
    <path
       d="M103603098 65640910 L109958965 53166819 "
       id="path2421" />
    <path
       d="M109958965 53166819 L97484874 46810952 "
       id="path2423" />
    <path
       d="M91129007 59285043 L103603098 65640910 "
       id="path2425" />
    <path
       d="M97484874 46810952 L91129007 59285043 "
       id="path2427" />
    <path
       d="M161332289 53092977 L167688156 65567068 "
       id="path2429" />
    <path
       d="M180162247 59211201 L173806380 46737110 "
       id="path2431" />
    <path
       d="M167688156 65567068 L180162247 59211201 "
       id="path2433" />
    <path
       d="M173806380 46737110 L161332289 53092977 "
       id="path2435" />
    <path
       d="M174683892 36975285 L181039759 49449376 "
       id="path2437" />
    <path
       d="M187157983 30619418 L174683892 36975285 "
       id="path2439" />
    <path
       d="M193513850 43093509 L187157983 30619418 "
       id="path2441" />
    <path
       d="M181039759 49449376 L193513850 43093509 "
       id="path2443" />
    <path
       d="M133468000 138364002 L133468000 124364002 "
       id="path2445" />
    <path
       d="M119468000 124364002 L119468000 138364002 "
       id="path2447" />
    <path
       d="M133468000 124364002 L119468000 124364002 "
       id="path2449" />
    <path
       d="M119468000 138364002 L133468000 138364002 "
       id="path2451" />
    <path
       d="M204802733 53792972 L217276824 47437105 "
       id="path2453" />
    <path
       d="M217276824 47437105 L210920957 34963014 "
       id="path2455" />
    <path
       d="M198446866 41318881 L204802733 53792972 "
       id="path2457" />
    <path
       d="M210920957 34963014 L198446866 41318881 "
       id="path2459" />
    <path
       d="M240885096 49148257 L227904522 54392749 "
       id="path2461" />
    <path
       d="M246129588 62128831 L240885096 49148257 "
       id="path2463" />
    <path
       d="M233149014 67373323 L246129588 62128831 "
       id="path2465" />
    <path
       d="M227904522 54392749 L233149014 67373323 "
       id="path2467" />
    <path
       d="M37313185 31526536 L32068693 44507110 "
       id="path2469" />
    <path
       d="M45049267 49751602 L50293759 36771028 "
       id="path2471" />
    <path
       d="M32068693 44507110 L45049267 49751602 "
       id="path2473" />
    <path
       d="M50293759 36771028 L37313185 31526536 "
       id="path2475" />
    <path
       d="M191935527 70833536 L198291394 83307627 "
       id="path2477" />
    <path
       d="M204409618 64477669 L191935527 70833536 "
       id="path2479" />
    <path
       d="M198291394 83307627 L210765485 76951760 "
       id="path2481" />
    <path
       d="M210765485 76951760 L204409618 64477669 "
       id="path2483" />
    <path
       d="M88859053 63740074 L82503186 76214165 "
       id="path2485" />
    <path
       d="M101333144 70095941 L88859053 63740074 "
       id="path2487" />
    <path
       d="M94977277 82570032 L101333144 70095941 "
       id="path2489" />
    <path
       d="M82503186 76214165 L94977277 82570032 "
       id="path2491" />
    <g
       id="g2493" />
    <g
       id="g2495" />
    <g
       id="g2497" />
    <g
       id="g2499" />
    <g
       id="g2501" />
    <g
       id="g2503" />
    <g
       id="g2505" />
    <g
       id="g2507" />
    <g
       id="g2509" />
    <g
       id="g2511" />
    <g
       id="g2513" />
    <g
       id="g2515" />
    <g
       id="g2517" />
    <g
       id="g2519" />
    <g
       id="g2521" />
    <g
       id="g2523" />
    <g
       id="g2525" />
    <g
       id="g2527" />
    <g
       id="g2529" />
    <g
       id="g2531" />
    <g
       id="g2533" />
    <g
       id="g2535" />
    <g
       id="g2537" />
    <g
       id="g2539" />
    <g
       id="g2541" />
    <g
       id="g2543" />
    <g
       id="g2545" />
    <g
       id="g2547" />
    <g
       id="g2549" />
    <g
       id="g2551" />
    <g
       id="g2553" />
    <g
       id="g2555" />
    <g
       id="g2557" />
    <g
       id="g2559" />
    <g
       id="g2561" />
    <g
       id="g2563" />
    <g
       id="g2565" />
    <g
       id="g2567" />
    <g
       id="g2569" />
    <g
       id="g2571" />
    <g
       id="g2573" />
    <g
       id="g2575" />
    <g
       id="g2577" />
    <g
       id="g2579" />
    <g
       id="g2581" />
    <g
       id="g2583" />
    <g
       id="g2585" />
    <g
       id="g2587" />
  </g>
  <metadata
     id="metadata2771">
    <rdf:RDF>
      <cc:Work
         rdf:about="">
        <dc:title>SVG Picture created as Batreeq-plate-top-brd.svg date 2022/10/18 18:25:03 </dc:title>
      </cc:Work>
    </rdf:RDF>
  </metadata>
</svg>
