  0
SECTION
  2
HEADER
  9
$ACADVER
  1
AC1014
  9
$HANDSEED
  5
FFFF
  9
$MEASUREMENT
 70
     1
  0
ENDSEC
  0
SECTION
  2
TABLES
  0
TABLE
  2
VPORT
  5
8
330
0
100
AcDbSymbolTable
 70
     4
  0
VPORT
  5
2E
330
8
100
AcDbSymbolTableRecord
100
AcDbViewportTableRecord
  2
*ACTIVE
 70
     0
 10
0.0
 20
0.0
 11
1.0
 21
1.0
 12
210.0
 22
148.5
 13
0.0
 23
0.0
 14
10.0
 24
10.0
 15
10.0
 25
10.0
 16
0.0
 26
0.0
 36
1.0
 17
0.0
 27
0.0
 37
0.0
 40
341.0
 41
1.24
 42
50.0
 43
0.0
 44
0.0
 50
0.0
 51
0.0
 71
     0
 72
   100
 73
     1
 74
     3
 75
     0
 76
     0
 77
     0
 78
     0
  0
ENDTAB
  0
TABLE
  2
LTYPE
  5
5
330
0
100
AcDbSymbolTable
 70
     1
  0
LTYPE
  5
14
330
5
100
AcDbSymbolTableRecord
100
AcDbLinetypeTableRecord
  2
BYBLOCK
 70
     0
  3

 72
    65
 73
     0
 40
0.0
  0
LTYPE
  5
15
330
5
100
AcDbSymbolTableRecord
100
AcDbLinetypeTableRecord
  2
BYLAYER
 70
     0
  3

 72
    65
 73
     0
 40
0.0
  0
LTYPE
  5
16
330
5
100
AcDbSymbolTableRecord
100
AcDbLinetypeTableRecord
  2
CONTINUOUS
 70
     0
  3
Solid line
 72
    65
 73
     0
 40
0.0
  0
ENDTAB
  0
TABLE
  2
LAYER
  5
2
100
AcDbSymbolTable
 70
1
  0
LAYER
  5
50
100
AcDbSymbolTableRecord
100
AcDbLayerTableRecord
  2
0
 70
0
  6
CONTINUOUS
  0
ENDTAB
  0
TABLE
  2
STYLE
  5
3
330
0
100
AcDbSymbolTable
 70
     1
  0
STYLE
  5
11
330
3
100
AcDbSymbolTableRecord
100
AcDbTextStyleTableRecord
  2
STANDARD
 70
     0
 40
0.0
 41
1.0
 50
0.0
 71
     0
 42
2.5
  3
txt
  4

  0
ENDTAB
  0
TABLE
  2
VIEW
  5
6
330
0
100
AcDbSymbolTable
 70
     0
  0
ENDTAB
  0
TABLE
  2
UCS
  5
7
330
0
100
AcDbSymbolTable
 70
     0
  0
ENDTAB
  0
TABLE
  2
APPID
  5
9
330
0
100
AcDbSymbolTable
 70
     2
  0
APPID
  5
12
330
9
100
AcDbSymbolTableRecord
100
AcDbRegAppTableRecord
  2
ACAD
 70
     0
  0
ENDTAB
  0
TABLE
  2
DIMSTYLE
  5
A
330
0
100
AcDbSymbolTable
 70
     1
  0
DIMSTYLE
105
27
330
A
100
AcDbSymbolTableRecord
100
AcDbDimStyleTableRecord
  2
ISO-25
 70
     0
  3

  4

  5

  6

  7

 40
1.0
 41
2.5
 42
0.625
 43
3.75
 44
1.25
 45
0.0
 46
0.0
 47
0.0
 48
0.0
140
2.5
141
2.5
142
0.0
143
0.03937007874016
144
1.0
145
0.0
146
1.0
147
0.625
 71
     0
 72
     0
 73
     0
 74
     0
 75
     0
 76
     0
 77
     1
 78
     8
170
     0
171
     3
172
     1
173
     0
174
     0
175
     0
176
     0
177
     0
178
     0
270
     2
271
     2
272
     2
273
     2
274
     3
340
11
275
     0
280
     0
281
     0
282
     0
283
     0
284
     8
285
     0
286
     0
287
     3
288
     0
  0
ENDTAB
  0
TABLE
  2
BLOCK_RECORD
  5
1
330
0
100
AcDbSymbolTable
 70
     1
  0
BLOCK_RECORD
  5
1F
330
1
100
AcDbSymbolTableRecord
100
AcDbBlockTableRecord
  2
*MODEL_SPACE
  0
BLOCK_RECORD
  5
1B
330
1
100
AcDbSymbolTableRecord
100
AcDbBlockTableRecord
  2
*PAPER_SPACE
  0
ENDTAB
  0
ENDSEC
  0
SECTION
  2
BLOCKS
  0
BLOCK
  5
20
330
1F
100
AcDbEntity
  8
0
100
AcDbBlockBegin
  2
*MODEL_SPACE
 70
     0
 10
0.0
 20
0.0
 30
0.0
  3
*MODEL_SPACE
  1

  0
ENDBLK
  5
21
330
1F
100
AcDbEntity
  8
0
100
AcDbBlockEnd
  0
BLOCK
  5
1C
330
1B
100
AcDbEntity
 67
     1
  8
0
100
AcDbBlockBegin
  2
*PAPER_SPACE
  1

  0
ENDBLK
  5
1D
330
1B
100
AcDbEntity
 67
     1
  8
0
100
AcDbBlockEnd
  0
ENDSEC
  0
SECTION
  2
ENTITIES
  0
SPLINE
  5
100
100
AcDbEntity
  8
0
 62
7
100
AcDbSpline
 70
8
 71
3
 72
8
 73
4
 74
0
 40
0
 40
0
 40
0
 40
0
 40
1
 40
1
 40
1
 40
1
 10
101697002.250000
 20
90050999.250000
 30
0.0
 10
92899948.425387
 20
90050999.250000
 30
0.0
 10
84969109.170183
 20
84751781.878901
 30
0.0
 10
81602622.417880
 20
76624363.903941
 30
0.0
  0
SPLINE
  5
101
100
AcDbEntity
  8
0
 62
7
100
AcDbSpline
 70
8
 71
3
 72
8
 73
4
 74
0
 40
0
 40
0
 40
0
 40
0
 40
1
 40
1
 40
1
 40
1
 10
81602622.417880
 20
76624363.903941
 30
0.0
 10
78236135.665576
 20
68496945.928981
 30
0.0
 10
80096973.345346
 20
59141883.173039
 30
0.0
 10
86317429.759193
 20
52921426.759193
 30
0.0
  0
SPLINE
  5
102
100
AcDbEntity
  8
0
 62
7
100
AcDbSpline
 70
8
 71
3
 72
8
 73
4
 74
0
 40
0
 40
0
 40
0
 40
0
 40
1
 40
1
 40
1
 40
1
 10
86317429.759193
 20
52921426.759193
 30
0.0
 10
92537886.173039
 20
46700970.345346
 30
0.0
 10
101892948.928981
 20
44840132.665576
 30
0.0
 10
110020366.903941
 20
48206619.417880
 30
0.0
  0
SPLINE
  5
103
100
AcDbEntity
  8
0
 62
7
100
AcDbSpline
 70
8
 71
3
 72
8
 73
4
 74
0
 40
0
 40
0
 40
0
 40
0
 40
1
 40
1
 40
1
 40
1
 10
110020366.903941
 20
48206619.417880
 30
0.0
 10
118147784.878901
 20
51573106.170183
 30
0.0
 10
123447002.250000
 20
59503945.425387
 30
0.0
 10
123447002.250000
 20
68300999.250000
 30
0.0
  0
SPLINE
  5
104
100
AcDbEntity
  8
0
 62
7
100
AcDbSpline
 70
8
 71
3
 72
8
 73
4
 74
0
 40
0
 40
0
 40
0
 40
0
 40
1
 40
1
 40
1
 40
1
 10
123447002.250000
 20
68300999.250000
 30
0.0
 10
123447002.250000
 20
74069457.904010
 30
0.0
 10
121155490.972052
 20
79601655.509563
 30
0.0
 10
117076574.740807
 20
83680571.740807
 30
0.0
  0
SPLINE
  5
105
100
AcDbEntity
  8
0
 62
7
100
AcDbSpline
 70
8
 71
3
 72
8
 73
4
 74
0
 40
0
 40
0
 40
0
 40
0
 40
1
 40
1
 40
1
 40
1
 10
117076574.740807
 20
83680571.740807
 30
0.0
 10
112997658.509563
 20
87759487.972052
 30
0.0
 10
107465460.904010
 20
90050999.250000
 30
0.0
 10
101697002.250000
 20
90050999.250000
 30
0.0
  0
SPLINE
  5
106
100
AcDbEntity
  8
0
 62
7
100
AcDbSpline
 70
8
 71
3
 72
8
 73
4
 74
0
 40
0
 40
0
 40
0
 40
0
 40
1
 40
1
 40
1
 40
1
 10
101697002.250000
 20
86301000.000000
 30
0.0
 10
94416681.540077
 20
86301000.000000
 30
0.0
 10
87853228.089879
 20
81915440.613600
 30
0.0
 10
85067169.971887
 20
75189301.319584
 30
0.0
  0
SPLINE
  5
107
100
AcDbEntity
  8
0
 62
7
100
AcDbSpline
 70
8
 71
3
 72
8
 73
4
 74
0
 40
0
 40
0
 40
0
 40
0
 40
1
 40
1
 40
1
 40
1
 10
85067169.971887
 20
75189301.319584
 30
0.0
 10
82281111.853895
 20
68463162.025568
 30
0.0
 10
83821115.515113
 20
60721040.801511
 30
0.0
 10
88969079.658312
 20
55573076.658312
 30
0.0
  0
SPLINE
  5
108
100
AcDbEntity
  8
0
 62
7
100
AcDbSpline
 70
8
 71
3
 72
8
 73
4
 74
0
 40
0
 40
0
 40
0
 40
0
 40
1
 40
1
 40
1
 40
1
 10
88969079.658312
 20
55573076.658312
 30
0.0
 10
94117043.801511
 20
50425112.515113
 30
0.0
 10
101859165.025568
 20
48885108.853895
 30
0.0
 10
108585304.319584
 20
51671166.971887
 30
0.0
  0
SPLINE
  5
109
100
AcDbEntity
  8
0
 62
7
100
AcDbSpline
 70
8
 71
3
 72
8
 73
4
 74
0
 40
0
 40
0
 40
0
 40
0
 40
1
 40
1
 40
1
 40
1
 10
108585304.319584
 20
51671166.971887
 30
0.0
 10
115311443.613600
 20
54457225.089879
 30
0.0
 10
119697003.000000
 20
61020678.540077
 30
0.0
 10
119697003.000000
 20
68300999.250000
 30
0.0
  0
SPLINE
  5
10a
100
AcDbEntity
  8
0
 62
7
100
AcDbSpline
 70
8
 71
3
 72
8
 73
4
 74
0
 40
0
 40
0
 40
0
 40
0
 40
1
 40
1
 40
1
 40
1
 10
119697003.000000
 20
68300999.250000
 30
0.0
 10
119697003.000000
 20
73074896.266024
 30
0.0
 10
117800579.794405
 20
77653266.888971
 30
0.0
 10
114424924.841688
 20
81028921.841688
 30
0.0
  0
SPLINE
  5
10b
100
AcDbEntity
  8
0
 62
7
100
AcDbSpline
 70
8
 71
3
 72
8
 73
4
 74
0
 40
0
 40
0
 40
0
 40
0
 40
1
 40
1
 40
1
 40
1
 10
114424924.841688
 20
81028921.841688
 30
0.0
 10
111049269.888971
 20
84404576.794405
 30
0.0
 10
106470899.266024
 20
86301000.000000
 30
0.0
 10
101697002.250000
 20
86301000.000000
 30
0.0
  0
LWPOLYLINE
  5
10c
100
AcDbEntity
  8
0
 62
7
100
AcDbPolyline
 90
1
 70
1
 10
101697002.250000
 20
90050999.250000
 30
0.0
  0
SPLINE
  5
10d
100
AcDbEntity
  8
0
 62
7
100
AcDbSpline
 70
8
 71
3
 72
8
 73
4
 74
0
 40
0
 40
0
 40
0
 40
0
 40
1
 40
1
 40
1
 40
1
 10
101697002.250000
 20
90800999.250000
 30
0.0
 10
92596601.741780
 20
90800999.250000
 30
0.0
 10
84392285.270879
 20
85319050.245415
 30
0.0
 10
80909712.768496
 20
76911376.478215
 30
0.0
  0
SPLINE
  5
10e
100
AcDbEntity
  8
0
 62
7
100
AcDbSpline
 70
8
 71
3
 72
8
 73
4
 74
0
 40
0
 40
0
 40
0
 40
0
 40
1
 40
1
 40
1
 40
1
 10
80909712.768496
 20
76911376.478215
 30
0.0
 10
77427140.266113
 20
68503702.711015
 30
0.0
 10
79352144.762427
 20
58826051.584179
 30
0.0
 10
85787099.673303
 20
52391096.673303
 30
0.0
  0
SPLINE
  5
10f
100
AcDbEntity
  8
0
 62
7
100
AcDbSpline
 70
8
 71
3
 72
8
 73
4
 74
0
 40
0
 40
0
 40
0
 40
0
 40
1
 40
1
 40
1
 40
1
 10
85787099.673303
 20
52391096.673303
 30
0.0
 10
92222054.584179
 20
45956141.762427
 30
0.0
 10
101899705.711015
 20
44031137.266113
 30
0.0
 10
110307379.478215
 20
47513709.768496
 30
0.0
  0
SPLINE
  5
110
100
AcDbEntity
  8
0
 62
7
100
AcDbSpline
 70
8
 71
3
 72
8
 73
4
 74
0
 40
0
 40
0
 40
0
 40
0
 40
1
 40
1
 40
1
 40
1
 10
110307379.478215
 20
47513709.768496
 30
0.0
 10
118715053.245415
 20
50996282.270879
 30
0.0
 10
124197002.250000
 20
59200598.741780
 30
0.0
 10
124197002.250000
 20
68300999.250000
 30
0.0
  0
SPLINE
  5
111
100
AcDbEntity
  8
0
 62
7
100
AcDbSpline
 70
8
 71
3
 72
8
 73
4
 74
0
 40
0
 40
0
 40
0
 40
0
 40
1
 40
1
 40
1
 40
1
 10
124197002.250000
 20
68300999.250000
 30
0.0
 10
124197002.250000
 20
74268370.271390
 30
0.0
 10
121826473.341778
 20
79991333.311617
 30
0.0
 10
117606904.826697
 20
84210901.826697
 30
0.0
  0
SPLINE
  5
112
100
AcDbEntity
  8
0
 62
7
100
AcDbSpline
 70
8
 71
3
 72
8
 73
4
 74
0
 40
0
 40
0
 40
0
 40
0
 40
1
 40
1
 40
1
 40
1
 10
117606904.826697
 20
84210901.826697
 30
0.0
 10
113387336.311617
 20
88430470.341778
 30
0.0
 10
107664373.271390
 20
90800999.250000
 30
0.0
 10
101697002.250000
 20
90800999.250000
 30
0.0
  0
LWPOLYLINE
  5
113
100
AcDbEntity
  8
0
 62
7
100
AcDbPolyline
 90
1
 70
1
 10
101697002.250000
 20
86301000.000000
 30
0.0
  0
SPLINE
  5
114
100
AcDbEntity
  8
0
 62
7
100
AcDbSpline
 70
8
 71
3
 72
8
 73
4
 74
0
 40
0
 40
0
 40
0
 40
0
 40
1
 40
1
 40
1
 40
1
 10
101697002.250000
 20
85921124.250000
 30
0.0
 10
94570326.938671
 20
85921124.250000
 30
0.0
 10
88145389.971701
 20
81628118.618692
 30
0.0
 10
85418129.402210
 20
75043929.163702
 30
0.0
  0
SPLINE
  5
115
100
AcDbEntity
  8
0
 62
7
100
AcDbSpline
 70
8
 71
3
 72
8
 73
4
 74
0
 40
0
 40
0
 40
0
 40
0
 40
1
 40
1
 40
1
 40
1
 10
85418129.402210
 20
75043929.163702
 30
0.0
 10
82690868.832719
 20
68459739.708711
 30
0.0
 10
84198371.937190
 20
60881009.817101
 30
0.0
 10
89237692.377145
 20
55841689.377145
 30
0.0
  0
SPLINE
  5
116
100
AcDbEntity
  8
0
 62
7
100
AcDbSpline
 70
8
 71
3
 72
8
 73
4
 74
0
 40
0
 40
0
 40
0
 40
0
 40
1
 40
1
 40
1
 40
1
 10
89237692.377145
 20
55841689.377145
 30
0.0
 10
94277012.817101
 20
50802368.937190
 30
0.0
 10
101855742.708711
 20
49294865.832719
 30
0.0
 10
108439932.163702
 20
52022126.402210
 30
0.0
  0
SPLINE
  5
117
100
AcDbEntity
  8
0
 62
7
100
AcDbSpline
 70
8
 71
3
 72
8
 73
4
 74
0
 40
0
 40
0
 40
0
 40
0
 40
1
 40
1
 40
1
 40
1
 10
108439932.163702
 20
52022126.402210
 30
0.0
 10
115024121.618692
 20
54749386.971701
 30
0.0
 10
119317127.250000
 20
61174323.938671
 30
0.0
 10
119317127.250000
 20
68300999.250000
 30
0.0
  0
SPLINE
  5
118
100
AcDbEntity
  8
0
 62
7
100
AcDbSpline
 70
8
 71
3
 72
8
 73
4
 74
0
 40
0
 40
0
 40
0
 40
0
 40
1
 40
1
 40
1
 40
1
 10
119317127.250000
 20
68300999.250000
 30
0.0
 10
119317127.250000
 20
72974146.953034
 30
0.0
 10
117460726.553156
 20
77455894.692553
 30
0.0
 10
114156312.122855
 20
80760309.122855
 30
0.0
  0
SPLINE
  5
119
100
AcDbEntity
  8
0
 62
7
100
AcDbSpline
 70
8
 71
3
 72
8
 73
4
 74
0
 40
0
 40
0
 40
0
 40
0
 40
1
 40
1
 40
1
 40
1
 10
114156312.122855
 20
80760309.122855
 30
0.0
 10
110851897.692553
 20
84064723.553156
 30
0.0
 10
106370149.953034
 20
85921124.250000
 30
0.0
 10
101697002.250000
 20
85921124.250000
 30
0.0
  0
LWPOLYLINE
  5
11a
100
AcDbEntity
  8
0
 62
7
100
AcDbPolyline
 90
1
 70
1
 10
101697002.250000
 20
90800999.250000
 30
0.0
  0
LWPOLYLINE
  5
11b
100
AcDbEntity
  8
0
 62
7
100
AcDbPolyline
 90
1
 70
1
 10
101697002.250000
 20
85921124.250000
 30
0.0
  0
LWPOLYLINE
  5
11c
100
AcDbEntity
  8
0
 62
7
100
AcDbPolyline
 90
8
 70
1
 10
4921373.250000
 20
88467498.000000
 30
0.0
 10
8609544.750000
 20
102231940.500000
 30
0.0
 10
22373987.250000
 20
98543769.000000
 30
0.0
 10
18685815.750000
 20
84779326.500000
 30
0.0
 10
4921373.250000
 20
88467498.000000
 30
0.0
 10
8609544.750000
 20
102231940.500000
 30
0.0
 10
22373987.250000
 20
98543769.000000
 30
0.0
 10
18685815.750000
 20
84779326.500000
 30
0.0
  0
LWPOLYLINE
  5
11d
100
AcDbEntity
  8
0
 62
7
100
AcDbPolyline
 90
4
 70
0
 10
157693252.500000
 20
65455670.250000
 30
0.0
 10
164162617.500000
 20
52758827.250000
 30
0.0
 10
151465774.500000
 20
46289462.250000
 30
0.0
 10
144996409.500000
 20
58986305.250000
 30
0.0
  0
LWPOLYLINE
  5
11e
100
AcDbEntity
  8
0
 62
7
100
AcDbPolyline
 90
2
 70
0
 10
151465774.500000
 20
46289462.250000
 30
0.0
 10
144996409.500000
 20
58986305.250000
 30
0.0
  0
LWPOLYLINE
  5
11f
100
AcDbEntity
  8
0
 62
7
100
AcDbPolyline
 90
2
 70
0
 10
157693252.500000
 20
65455670.250000
 30
0.0
 10
164162617.500000
 20
52758827.250000
 30
0.0
  0
LWPOLYLINE
  5
120
100
AcDbEntity
  8
0
 62
7
100
AcDbPolyline
 90
2
 70
0
 10
144996409.500000
 20
58986305.250000
 30
0.0
 10
157693252.500000
 20
65455670.250000
 30
0.0
  0
LWPOLYLINE
  5
121
100
AcDbEntity
  8
0
 62
7
100
AcDbPolyline
 90
2
 70
0
 10
164162617.500000
 20
52758827.250000
 30
0.0
 10
151465774.500000
 20
46289462.250000
 30
0.0
  0
LWPOLYLINE
  5
122
100
AcDbEntity
  8
0
 62
7
100
AcDbPolyline
 90
2
 70
0
 10
144996409.500000
 20
58986305.250000
 30
0.0
 10
157693252.500000
 20
65455670.250000
 30
0.0
  0
LWPOLYLINE
  5
123
100
AcDbEntity
  8
0
 62
7
100
AcDbPolyline
 90
2
 70
0
 10
180929790.000000
 20
98544414.000000
 30
0.0
 10
177241618.500000
 20
112308856.500000
 30
0.0
  0
LWPOLYLINE
  5
124
100
AcDbEntity
  8
0
 62
7
100
AcDbPolyline
 90
3
 70
0
 10
191006061.000000
 20
115997028.000000
 30
0.0
 10
194694232.500000
 20
102232585.500000
 30
0.0
 10
180929790.000000
 20
98544414.000000
 30
0.0
  0
LWPOLYLINE
  5
125
100
AcDbEntity
  8
0
 62
7
100
AcDbPolyline
 90
2
 70
0
 10
177241618.500000
 20
112308856.500000
 30
0.0
 10
191006061.000000
 20
115997028.000000
 30
0.0
  0
LWPOLYLINE
  5
126
100
AcDbEntity
  8
0
 62
7
100
AcDbPolyline
 90
4
 70
1
 10
194694232.500000
 20
102232585.500000
 30
0.0
 10
180929790.000000
 20
98544414.000000
 30
0.0
 10
177241618.500000
 20
112308856.500000
 30
0.0
 10
191006061.000000
 20
115997028.000000
 30
0.0
  0
LWPOLYLINE
  5
127
100
AcDbEntity
  8
0
 62
7
100
AcDbPolyline
 90
2
 70
0
 10
146238751.500000
 20
55812096.000000
 30
0.0
 10
152708116.500000
 20
43115253.000000
 30
0.0
  0
LWPOLYLINE
  5
128
100
AcDbEntity
  8
0
 62
7
100
AcDbPolyline
 90
2
 70
0
 10
140011273.500000
 20
36645888.000000
 30
0.0
 10
133541908.500000
 20
49342731.000000
 30
0.0
  0
LWPOLYLINE
  5
129
100
AcDbEntity
  8
0
 62
7
100
AcDbPolyline
 90
2
 70
0
 10
140011273.500000
 20
36645888.000000
 30
0.0
 10
133541908.500000
 20
49342731.000000
 30
0.0
  0
LWPOLYLINE
  5
12a
100
AcDbEntity
  8
0
 62
7
100
AcDbPolyline
 90
3
 70
0
 10
146238751.500000
 20
55812096.000000
 30
0.0
 10
152708116.500000
 20
43115253.000000
 30
0.0
 10
140011273.500000
 20
36645888.000000
 30
0.0
  0
LWPOLYLINE
  5
12b
100
AcDbEntity
  8
0
 62
7
100
AcDbPolyline
 90
2
 70
0
 10
133541908.500000
 20
49342731.000000
 30
0.0
 10
146238751.500000
 20
55812096.000000
 30
0.0
  0
LWPOLYLINE
  5
12c
100
AcDbEntity
  8
0
 62
7
100
AcDbPolyline
 90
2
 70
0
 10
152708116.500000
 20
43115253.000000
 30
0.0
 10
140011273.500000
 20
36645888.000000
 30
0.0
  0
LWPOLYLINE
  5
12d
100
AcDbEntity
  8
0
 62
7
100
AcDbPolyline
 90
2
 70
0
 10
133541908.500000
 20
49342731.000000
 30
0.0
 10
146238751.500000
 20
55812096.000000
 30
0.0
  0
LWPOLYLINE
  5
12e
100
AcDbEntity
  8
0
 62
7
100
AcDbPolyline
 90
3
 70
0
 10
147657253.500000
 20
92971462.500000
 30
0.0
 10
154126618.500000
 20
80274619.500000
 30
0.0
 10
141429775.500000
 20
73805254.500000
 30
0.0
  0
LWPOLYLINE
  5
12f
100
AcDbEntity
  8
0
 62
7
100
AcDbPolyline
 90
2
 70
0
 10
134960410.500000
 20
86502097.500000
 30
0.0
 10
147657253.500000
 20
92971462.500000
 30
0.0
  0
LWPOLYLINE
  5
130
100
AcDbEntity
  8
0
 62
7
100
AcDbPolyline
 90
2
 70
0
 10
154126618.500000
 20
80274619.500000
 30
0.0
 10
141429775.500000
 20
73805254.500000
 30
0.0
  0
LWPOLYLINE
  5
131
100
AcDbEntity
  8
0
 62
7
100
AcDbPolyline
 90
2
 70
0
 10
134960410.500000
 20
86502097.500000
 30
0.0
 10
147657253.500000
 20
92971462.500000
 30
0.0
  0
LWPOLYLINE
  5
132
100
AcDbEntity
  8
0
 62
7
100
AcDbPolyline
 90
2
 70
0
 10
141429775.500000
 20
73805254.500000
 30
0.0
 10
134960410.500000
 20
86502097.500000
 30
0.0
  0
LWPOLYLINE
  5
133
100
AcDbEntity
  8
0
 62
7
100
AcDbPolyline
 90
2
 70
0
 10
141429775.500000
 20
73805254.500000
 30
0.0
 10
134960410.500000
 20
86502097.500000
 30
0.0
  0
LWPOLYLINE
  5
134
100
AcDbEntity
  8
0
 62
7
100
AcDbPolyline
 90
2
 70
0
 10
147657253.500000
 20
92971462.500000
 30
0.0
 10
154126618.500000
 20
80274619.500000
 30
0.0
  0
LWPOLYLINE
  5
135
100
AcDbEntity
  8
0
 62
7
100
AcDbPolyline
 90
4
 70
0
 10
50769462.000000
 20
115111392.750000
 30
0.0
 10
63466305.000000
 20
108642027.750000
 30
0.0
 10
56996940.000000
 20
95945184.750000
 30
0.0
 10
44300097.000000
 20
102414549.750000
 30
0.0
  0
LWPOLYLINE
  5
136
100
AcDbEntity
  8
0
 62
7
100
AcDbPolyline
 90
2
 70
0
 10
56996940.000000
 20
95945184.750000
 30
0.0
 10
44300097.000000
 20
102414549.750000
 30
0.0
  0
LWPOLYLINE
  5
137
100
AcDbEntity
  8
0
 62
7
100
AcDbPolyline
 90
2
 70
0
 10
50769462.000000
 20
115111392.750000
 30
0.0
 10
63466305.000000
 20
108642027.750000
 30
0.0
  0
LWPOLYLINE
  5
138
100
AcDbEntity
  8
0
 62
7
100
AcDbPolyline
 90
2
 70
0
 10
44300097.000000
 20
102414549.750000
 30
0.0
 10
50769462.000000
 20
115111392.750000
 30
0.0
  0
LWPOLYLINE
  5
139
100
AcDbEntity
  8
0
 62
7
100
AcDbPolyline
 90
2
 70
0
 10
44300097.000000
 20
102414549.750000
 30
0.0
 10
50769462.000000
 20
115111392.750000
 30
0.0
  0
LWPOLYLINE
  5
13a
100
AcDbEntity
  8
0
 62
7
100
AcDbPolyline
 90
2
 70
0
 10
63466305.000000
 20
108642027.750000
 30
0.0
 10
56996940.000000
 20
95945184.750000
 30
0.0
  0
LWPOLYLINE
  5
13b
100
AcDbEntity
  8
0
 62
7
100
AcDbPolyline
 90
2
 70
0
 10
74977393.500000
 20
99143561.250000
 30
0.0
 10
68508028.500000
 20
86446718.250000
 30
0.0
  0
LWPOLYLINE
  5
13c
100
AcDbEntity
  8
0
 62
7
100
AcDbPolyline
 90
3
 70
0
 10
55811185.500000
 20
92916083.250000
 30
0.0
 10
62280550.500000
 20
105612926.250000
 30
0.0
 10
74977393.500000
 20
99143561.250000
 30
0.0
  0
LWPOLYLINE
  5
13d
100
AcDbEntity
  8
0
 62
7
100
AcDbPolyline
 90
2
 70
0
 10
55811185.500000
 20
92916083.250000
 30
0.0
 10
62280550.500000
 20
105612926.250000
 30
0.0
  0
LWPOLYLINE
  5
13e
100
AcDbEntity
  8
0
 62
7
100
AcDbPolyline
 90
2
 70
0
 10
68508028.500000
 20
86446718.250000
 30
0.0
 10
55811185.500000
 20
92916083.250000
 30
0.0
  0
LWPOLYLINE
  5
13f
100
AcDbEntity
  8
0
 62
7
100
AcDbPolyline
 90
3
 70
0
 10
74977393.500000
 20
99143561.250000
 30
0.0
 10
68508028.500000
 20
86446718.250000
 30
0.0
 10
55811185.500000
 20
92916083.250000
 30
0.0
  0
LWPOLYLINE
  5
140
100
AcDbEntity
  8
0
 62
7
100
AcDbPolyline
 90
2
 70
0
 10
62280550.500000
 20
105612926.250000
 30
0.0
 10
74977393.500000
 20
99143561.250000
 30
0.0
  0
LWPOLYLINE
  5
141
100
AcDbEntity
  8
0
 62
7
100
AcDbPolyline
 90
3
 70
0
 10
102220191.000000
 20
20460518.250000
 30
0.0
 10
102220191.000000
 20
34710518.250000
 30
0.0
 10
116470191.000000
 20
34710518.250000
 30
0.0
  0
LWPOLYLINE
  5
142
100
AcDbEntity
  8
0
 62
7
100
AcDbPolyline
 90
2
 70
0
 10
116470191.000000
 20
20460518.250000
 30
0.0
 10
102220191.000000
 20
20460518.250000
 30
0.0
  0
LWPOLYLINE
  5
143
100
AcDbEntity
  8
0
 62
7
100
AcDbPolyline
 90
3
 70
0
 10
116470191.000000
 20
20460518.250000
 30
0.0
 10
102220191.000000
 20
20460518.250000
 30
0.0
 10
102220191.000000
 20
34710518.250000
 30
0.0
  0
LWPOLYLINE
  5
144
100
AcDbEntity
  8
0
 62
7
100
AcDbPolyline
 90
2
 70
0
 10
116470191.000000
 20
34710518.250000
 30
0.0
 10
116470191.000000
 20
20460518.250000
 30
0.0
  0
LWPOLYLINE
  5
145
100
AcDbEntity
  8
0
 62
7
100
AcDbPolyline
 90
2
 70
0
 10
116470191.000000
 20
34710518.250000
 30
0.0
 10
116470191.000000
 20
20460518.250000
 30
0.0
  0
LWPOLYLINE
  5
146
100
AcDbEntity
  8
0
 62
7
100
AcDbPolyline
 90
2
 70
0
 10
102220191.000000
 20
34710518.250000
 30
0.0
 10
116470191.000000
 20
34710518.250000
 30
0.0
  0
LWPOLYLINE
  5
147
100
AcDbEntity
  8
0
 62
7
100
AcDbPolyline
 90
2
 70
0
 10
116698192.500000
 20
21794017.500000
 30
0.0
 10
116698192.500000
 20
36044017.500000
 30
0.0
  0
LWPOLYLINE
  5
148
100
AcDbEntity
  8
0
 62
7
100
AcDbPolyline
 90
2
 70
0
 10
130948192.500000
 20
36044017.500000
 30
0.0
 10
130948192.500000
 20
21794017.500000
 30
0.0
  0
LWPOLYLINE
  5
149
100
AcDbEntity
  8
0
 62
7
100
AcDbPolyline
 90
2
 70
0
 10
116698192.500000
 20
36044017.500000
 30
0.0
 10
130948192.500000
 20
36044017.500000
 30
0.0
  0
LWPOLYLINE
  5
14a
100
AcDbEntity
  8
0
 62
7
100
AcDbPolyline
 90
2
 70
0
 10
130948192.500000
 20
21794017.500000
 30
0.0
 10
116698192.500000
 20
21794017.500000
 30
0.0
  0
LWPOLYLINE
  5
14b
100
AcDbEntity
  8
0
 62
7
100
AcDbPolyline
 90
2
 70
0
 10
130948192.500000
 20
36044017.500000
 30
0.0
 10
130948192.500000
 20
21794017.500000
 30
0.0
  0
LWPOLYLINE
  5
14c
100
AcDbEntity
  8
0
 62
7
100
AcDbPolyline
 90
2
 70
0
 10
116698192.500000
 20
36044017.500000
 30
0.0
 10
130948192.500000
 20
36044017.500000
 30
0.0
  0
LWPOLYLINE
  5
14d
100
AcDbEntity
  8
0
 62
7
100
AcDbPolyline
 90
2
 70
0
 10
116698192.500000
 20
21794017.500000
 30
0.0
 10
116698192.500000
 20
36044017.500000
 30
0.0
  0
LWPOLYLINE
  5
14e
100
AcDbEntity
  8
0
 62
7
100
AcDbPolyline
 90
2
 70
0
 10
130948192.500000
 20
21794017.500000
 30
0.0
 10
116698192.500000
 20
21794017.500000
 30
0.0
  0
LWPOLYLINE
  5
14f
100
AcDbEntity
  8
0
 62
7
100
AcDbPolyline
 90
3
 70
0
 10
181699904.250000
 20
91690665.750000
 30
0.0
 10
168487534.500000
 20
86352522.000000
 30
0.0
 10
163149390.750000
 20
99564891.750000
 30
0.0
  0
LWPOLYLINE
  5
150
100
AcDbEntity
  8
0
 62
7
100
AcDbPolyline
 90
2
 70
0
 10
181699904.250000
 20
91690665.750000
 30
0.0
 10
168487534.500000
 20
86352522.000000
 30
0.0
  0
LWPOLYLINE
  5
151
100
AcDbEntity
  8
0
 62
7
100
AcDbPolyline
 90
2
 70
0
 10
176361760.500000
 20
104903035.500000
 30
0.0
 10
181699904.250000
 20
91690665.750000
 30
0.0
  0
LWPOLYLINE
  5
152
100
AcDbEntity
  8
0
 62
7
100
AcDbPolyline
 90
2
 70
0
 10
168487534.500000
 20
86352522.000000
 30
0.0
 10
163149390.750000
 20
99564891.750000
 30
0.0
  0
LWPOLYLINE
  5
153
100
AcDbEntity
  8
0
 62
7
100
AcDbPolyline
 90
2
 70
0
 10
176361760.500000
 20
104903035.500000
 30
0.0
 10
181699904.250000
 20
91690665.750000
 30
0.0
  0
LWPOLYLINE
  5
154
100
AcDbEntity
  8
0
 62
7
100
AcDbPolyline
 90
2
 70
0
 10
163149390.750000
 20
99564891.750000
 30
0.0
 10
176361760.500000
 20
104903035.500000
 30
0.0
  0
LWPOLYLINE
  5
155
100
AcDbEntity
  8
0
 62
7
100
AcDbPolyline
 90
2
 70
0
 10
163149390.750000
 20
99564891.750000
 30
0.0
 10
176361760.500000
 20
104903035.500000
 30
0.0
  0
LWPOLYLINE
  5
156
100
AcDbEntity
  8
0
 62
7
100
AcDbPolyline
 90
2
 70
0
 10
50760324.750000
 20
43059871.500000
 30
0.0
 10
57229689.750000
 20
55756714.500000
 30
0.0
  0
LWPOLYLINE
  5
157
100
AcDbEntity
  8
0
 62
7
100
AcDbPolyline
 90
2
 70
0
 10
69926532.750000
 20
49287349.500000
 30
0.0
 10
63457167.750000
 20
36590506.500000
 30
0.0
  0
LWPOLYLINE
  5
158
100
AcDbEntity
  8
0
 62
7
100
AcDbPolyline
 90
2
 70
0
 10
50760324.750000
 20
43059871.500000
 30
0.0
 10
57229689.750000
 20
55756714.500000
 30
0.0
  0
LWPOLYLINE
  5
159
100
AcDbEntity
  8
0
 62
7
100
AcDbPolyline
 90
2
 70
0
 10
63457167.750000
 20
36590506.500000
 30
0.0
 10
50760324.750000
 20
43059871.500000
 30
0.0
  0
LWPOLYLINE
  5
15a
100
AcDbEntity
  8
0
 62
7
100
AcDbPolyline
 90
2
 70
0
 10
57229689.750000
 20
55756714.500000
 30
0.0
 10
69926532.750000
 20
49287349.500000
 30
0.0
  0
LWPOLYLINE
  5
15b
100
AcDbEntity
  8
0
 62
7
100
AcDbPolyline
 90
2
 70
0
 10
63457167.750000
 20
36590506.500000
 30
0.0
 10
50760324.750000
 20
43059871.500000
 30
0.0
  0
LWPOLYLINE
  5
15c
100
AcDbEntity
  8
0
 62
7
100
AcDbPolyline
 90
2
 70
0
 10
69926532.750000
 20
49287349.500000
 30
0.0
 10
63457167.750000
 20
36590506.500000
 30
0.0
  0
LWPOLYLINE
  5
15d
100
AcDbEntity
  8
0
 62
7
100
AcDbPolyline
 90
2
 70
0
 10
57229689.750000
 20
55756714.500000
 30
0.0
 10
69926532.750000
 20
49287349.500000
 30
0.0
  0
LWPOLYLINE
  5
15e
100
AcDbEntity
  8
0
 62
7
100
AcDbPolyline
 90
3
 70
0
 10
152540757.750000
 20
115107453.750000
 30
0.0
 10
159010122.750000
 20
102410610.750000
 30
0.0
 10
146313279.750000
 20
95941245.750000
 30
0.0
  0
LWPOLYLINE
  5
15f
100
AcDbEntity
  8
0
 62
7
100
AcDbPolyline
 90
2
 70
0
 10
139843914.750000
 20
108638088.750000
 30
0.0
 10
152540757.750000
 20
115107453.750000
 30
0.0
  0
LWPOLYLINE
  5
160
100
AcDbEntity
  8
0
 62
7
100
AcDbPolyline
 90
2
 70
0
 10
159010122.750000
 20
102410610.750000
 30
0.0
 10
146313279.750000
 20
95941245.750000
 30
0.0
  0
LWPOLYLINE
  5
161
100
AcDbEntity
  8
0
 62
7
100
AcDbPolyline
 90
2
 70
0
 10
152540757.750000
 20
115107453.750000
 30
0.0
 10
159010122.750000
 20
102410610.750000
 30
0.0
  0
LWPOLYLINE
  5
162
100
AcDbEntity
  8
0
 62
7
100
AcDbPolyline
 90
2
 70
0
 10
139843914.750000
 20
108638088.750000
 30
0.0
 10
152540757.750000
 20
115107453.750000
 30
0.0
  0
LWPOLYLINE
  5
163
100
AcDbEntity
  8
0
 62
7
100
AcDbPolyline
 90
2
 70
0
 10
146313279.750000
 20
95941245.750000
 30
0.0
 10
139843914.750000
 20
108638088.750000
 30
0.0
  0
LWPOLYLINE
  5
164
100
AcDbEntity
  8
0
 62
7
100
AcDbPolyline
 90
2
 70
0
 10
146313279.750000
 20
95941245.750000
 30
0.0
 10
139843914.750000
 20
108638088.750000
 30
0.0
  0
LWPOLYLINE
  5
165
100
AcDbEntity
  8
0
 62
7
100
AcDbPolyline
 90
3
 70
0
 10
50527578.000000
 20
83248341.750000
 30
0.0
 10
37830735.000000
 20
89717706.750000
 30
0.0
 10
44300100.000000
 20
102414549.750000
 30
0.0
  0
LWPOLYLINE
  5
166
100
AcDbEntity
  8
0
 62
7
100
AcDbPolyline
 90
2
 70
0
 10
50527578.000000
 20
83248341.750000
 30
0.0
 10
37830735.000000
 20
89717706.750000
 30
0.0
  0
LWPOLYLINE
  5
167
100
AcDbEntity
  8
0
 62
7
100
AcDbPolyline
 90
2
 70
0
 10
56996943.000000
 20
95945184.750000
 30
0.0
 10
50527578.000000
 20
83248341.750000
 30
0.0
  0
LWPOLYLINE
  5
168
100
AcDbEntity
  8
0
 62
7
100
AcDbPolyline
 90
2
 70
0
 10
44300100.000000
 20
102414549.750000
 30
0.0
 10
56996943.000000
 20
95945184.750000
 30
0.0
  0
LWPOLYLINE
  5
169
100
AcDbEntity
  8
0
 62
7
100
AcDbPolyline
 90
4
 70
0
 10
37830735.000000
 20
89717706.750000
 30
0.0
 10
44300100.000000
 20
102414549.750000
 30
0.0
 10
56996943.000000
 20
95945184.750000
 30
0.0
 10
50527578.000000
 20
83248341.750000
 30
0.0
  0
LWPOLYLINE
  5
16a
100
AcDbEntity
  8
0
 62
7
100
AcDbPolyline
 90
2
 70
0
 10
49341821.250000
 20
80219238.750000
 30
0.0
 10
62038664.250000
 20
73749873.750000
 30
0.0
  0
LWPOLYLINE
  5
16b
100
AcDbEntity
  8
0
 62
7
100
AcDbPolyline
 90
2
 70
0
 10
55569299.250000
 20
61053030.750000
 30
0.0
 10
42872456.250000
 20
67522395.750000
 30
0.0
  0
LWPOLYLINE
  5
16c
100
AcDbEntity
  8
0
 62
7
100
AcDbPolyline
 90
3
 70
0
 10
49341821.250000
 20
80219238.750000
 30
0.0
 10
62038664.250000
 20
73749873.750000
 30
0.0
 10
55569299.250000
 20
61053030.750000
 30
0.0
  0
LWPOLYLINE
  5
16d
100
AcDbEntity
  8
0
 62
7
100
AcDbPolyline
 90
4
 70
0
 10
62038664.250000
 20
73749873.750000
 30
0.0
 10
55569299.250000
 20
61053030.750000
 30
0.0
 10
42872456.250000
 20
67522395.750000
 30
0.0
 10
49341821.250000
 20
80219238.750000
 30
0.0
  0
LWPOLYLINE
  5
16e
100
AcDbEntity
  8
0
 62
7
100
AcDbPolyline
 90
2
 70
0
 10
42872456.250000
 20
67522395.750000
 30
0.0
 10
49341821.250000
 20
80219238.750000
 30
0.0
  0
LWPOLYLINE
  5
16f
100
AcDbEntity
  8
0
 62
7
100
AcDbPolyline
 90
2
 70
0
 10
194700729.000000
 20
102226992.000000
 30
0.0
 10
198388900.500000
 20
88462549.500000
 30
0.0
  0
LWPOLYLINE
  5
170
100
AcDbEntity
  8
0
 62
7
100
AcDbPolyline
 90
2
 70
0
 10
184624458.000000
 20
84774378.000000
 30
0.0
 10
180936286.500000
 20
98538820.500000
 30
0.0
  0
LWPOLYLINE
  5
171
100
AcDbEntity
  8
0
 62
7
100
AcDbPolyline
 90
2
 70
0
 10
194700729.000000
 20
102226992.000000
 30
0.0
 10
198388900.500000
 20
88462549.500000
 30
0.0
  0
LWPOLYLINE
  5
172
100
AcDbEntity
  8
0
 62
7
100
AcDbPolyline
 90
2
 70
0
 10
180936286.500000
 20
98538820.500000
 30
0.0
 10
194700729.000000
 20
102226992.000000
 30
0.0
  0
LWPOLYLINE
  5
173
100
AcDbEntity
  8
0
 62
7
100
AcDbPolyline
 90
2
 70
0
 10
180936286.500000
 20
98538820.500000
 30
0.0
 10
194700729.000000
 20
102226992.000000
 30
0.0
  0
LWPOLYLINE
  5
174
100
AcDbEntity
  8
0
 62
7
100
AcDbPolyline
 90
3
 70
0
 10
198388900.500000
 20
88462549.500000
 30
0.0
 10
184624458.000000
 20
84774378.000000
 30
0.0
 10
180936286.500000
 20
98538820.500000
 30
0.0
  0
LWPOLYLINE
  5
175
100
AcDbEntity
  8
0
 62
7
100
AcDbPolyline
 90
2
 70
0
 10
198388900.500000
 20
88462549.500000
 30
0.0
 10
184624458.000000
 20
84774378.000000
 30
0.0
  0
LWPOLYLINE
  5
176
100
AcDbEntity
  8
0
 62
7
100
AcDbPolyline
 90
2
 70
0
 10
159252007.500000
 20
70547560.500000
 30
0.0
 10
152782642.500000
 20
83244403.500000
 30
0.0
  0
LWPOLYLINE
  5
177
100
AcDbEntity
  8
0
 62
7
100
AcDbPolyline
 90
2
 70
0
 10
171948850.500000
 20
77016925.500000
 30
0.0
 10
159252007.500000
 20
70547560.500000
 30
0.0
  0
LWPOLYLINE
  5
178
100
AcDbEntity
  8
0
 62
7
100
AcDbPolyline
 90
3
 70
0
 10
152782642.500000
 20
83244403.500000
 30
0.0
 10
165479485.500000
 20
89713768.500000
 30
0.0
 10
171948850.500000
 20
77016925.500000
 30
0.0
  0
LWPOLYLINE
  5
179
100
AcDbEntity
  8
0
 62
7
100
AcDbPolyline
 90
3
 70
0
 10
152782642.500000
 20
83244403.500000
 30
0.0
 10
165479485.500000
 20
89713768.500000
 30
0.0
 10
171948850.500000
 20
77016925.500000
 30
0.0
  0
LWPOLYLINE
  5
17a
100
AcDbEntity
  8
0
 62
7
100
AcDbPolyline
 90
2
 70
0
 10
159252007.500000
 20
70547560.500000
 30
0.0
 10
152782642.500000
 20
83244403.500000
 30
0.0
  0
LWPOLYLINE
  5
17b
100
AcDbEntity
  8
0
 62
7
100
AcDbPolyline
 90
2
 70
0
 10
171948850.500000
 20
77016925.500000
 30
0.0
 10
159252007.500000
 20
70547560.500000
 30
0.0
  0
LWPOLYLINE
  5
17c
100
AcDbEntity
  8
0
 62
7
100
AcDbPolyline
 90
2
 70
0
 10
29484672.000000
 20
73144377.750000
 30
0.0
 10
16272302.250000
 20
78482521.500000
 30
0.0
  0
LWPOLYLINE
  5
17d
100
AcDbEntity
  8
0
 62
7
100
AcDbPolyline
 90
2
 70
0
 10
21610446.000000
 20
91694891.250000
 30
0.0
 10
34822815.750000
 20
86356747.500000
 30
0.0
  0
LWPOLYLINE
  5
17e
100
AcDbEntity
  8
0
 62
7
100
AcDbPolyline
 90
2
 70
0
 10
21610446.000000
 20
91694891.250000
 30
0.0
 10
34822815.750000
 20
86356747.500000
 30
0.0
  0
LWPOLYLINE
  5
17f
100
AcDbEntity
  8
0
 62
7
100
AcDbPolyline
 90
2
 70
0
 10
16272302.250000
 20
78482521.500000
 30
0.0
 10
21610446.000000
 20
91694891.250000
 30
0.0
  0
LWPOLYLINE
  5
180
100
AcDbEntity
  8
0
 62
7
100
AcDbPolyline
 90
2
 70
0
 10
16272302.250000
 20
78482521.500000
 30
0.0
 10
21610446.000000
 20
91694891.250000
 30
0.0
  0
LWPOLYLINE
  5
181
100
AcDbEntity
  8
0
 62
7
100
AcDbPolyline
 90
2
 70
0
 10
29484672.000000
 20
73144377.750000
 30
0.0
 10
16272302.250000
 20
78482521.500000
 30
0.0
  0
LWPOLYLINE
  5
182
100
AcDbEntity
  8
0
 62
7
100
AcDbPolyline
 90
2
 70
0
 10
34822815.750000
 20
86356747.500000
 30
0.0
 10
29484672.000000
 20
73144377.750000
 30
0.0
  0
LWPOLYLINE
  5
183
100
AcDbEntity
  8
0
 62
7
100
AcDbPolyline
 90
2
 70
0
 10
34822815.750000
 20
86356747.500000
 30
0.0
 10
29484672.000000
 20
73144377.750000
 30
0.0
  0
LWPOLYLINE
  5
184
100
AcDbEntity
  8
0
 62
7
100
AcDbPolyline
 90
4
 70
1
 10
73266001.500000
 20
36300516.750000
 30
0.0
 10
87516001.500000
 20
36300516.750000
 30
0.0
 10
87516001.500000
 20
22050516.750000
 30
0.0
 10
73266001.500000
 20
22050516.750000
 30
0.0
  0
LWPOLYLINE
  5
185
100
AcDbEntity
  8
0
 62
7
100
AcDbPolyline
 90
4
 70
1
 10
87516001.500000
 20
22050516.750000
 30
0.0
 10
73266001.500000
 20
22050516.750000
 30
0.0
 10
73266001.500000
 20
36300516.750000
 30
0.0
 10
87516001.500000
 20
36300516.750000
 30
0.0
  0
LWPOLYLINE
  5
186
100
AcDbEntity
  8
0
 62
7
100
AcDbPolyline
 90
2
 70
0
 10
40160958.750000
 20
99569117.250000
 30
0.0
 10
26948589.000000
 20
104907261.000000
 30
0.0
  0
LWPOLYLINE
  5
187
100
AcDbEntity
  8
0
 62
7
100
AcDbPolyline
 90
3
 70
0
 10
40160958.750000
 20
99569117.250000
 30
0.0
 10
26948589.000000
 20
104907261.000000
 30
0.0
 10
32286732.750000
 20
118119630.750000
 30
0.0
  0
LWPOLYLINE
  5
188
100
AcDbEntity
  8
0
 62
7
100
AcDbPolyline
 90
2
 70
0
 10
45499102.500000
 20
112781487.000000
 30
0.0
 10
40160958.750000
 20
99569117.250000
 30
0.0
  0
LWPOLYLINE
  5
189
100
AcDbEntity
  8
0
 62
7
100
AcDbPolyline
 90
2
 70
0
 10
32286732.750000
 20
118119630.750000
 30
0.0
 10
45499102.500000
 20
112781487.000000
 30
0.0
  0
LWPOLYLINE
  5
18a
100
AcDbEntity
  8
0
 62
7
100
AcDbPolyline
 90
2
 70
0
 10
32286732.750000
 20
118119630.750000
 30
0.0
 10
45499102.500000
 20
112781487.000000
 30
0.0
  0
LWPOLYLINE
  5
18b
100
AcDbEntity
  8
0
 62
7
100
AcDbPolyline
 90
2
 70
0
 10
26948589.000000
 20
104907261.000000
 30
0.0
 10
32286732.750000
 20
118119630.750000
 30
0.0
  0
LWPOLYLINE
  5
18c
100
AcDbEntity
  8
0
 62
7
100
AcDbPolyline
 90
2
 70
0
 10
45499102.500000
 20
112781487.000000
 30
0.0
 10
40160958.750000
 20
99569117.250000
 30
0.0
  0
LWPOLYLINE
  5
18d
100
AcDbEntity
  8
0
 62
7
100
AcDbPolyline
 90
4
 70
0
 10
45775187.250000
 20
65400291.750000
 30
0.0
 10
58472030.250000
 20
58930926.750000
 30
0.0
 10
52002665.250000
 20
46234083.750000
 30
0.0
 10
39305822.250000
 20
52703448.750000
 30
0.0
  0
LWPOLYLINE
  5
18e
100
AcDbEntity
  8
0
 62
7
100
AcDbPolyline
 90
2
 70
0
 10
52002665.250000
 20
46234083.750000
 30
0.0
 10
39305822.250000
 20
52703448.750000
 30
0.0
  0
LWPOLYLINE
  5
18f
100
AcDbEntity
  8
0
 62
7
100
AcDbPolyline
 90
2
 70
0
 10
45775187.250000
 20
65400291.750000
 30
0.0
 10
58472030.250000
 20
58930926.750000
 30
0.0
  0
LWPOLYLINE
  5
190
100
AcDbEntity
  8
0
 62
7
100
AcDbPolyline
 90
2
 70
0
 10
39305822.250000
 20
52703448.750000
 30
0.0
 10
45775187.250000
 20
65400291.750000
 30
0.0
  0
LWPOLYLINE
  5
191
100
AcDbEntity
  8
0
 62
7
100
AcDbPolyline
 90
2
 70
0
 10
39305822.250000
 20
52703448.750000
 30
0.0
 10
45775187.250000
 20
65400291.750000
 30
0.0
  0
LWPOLYLINE
  5
192
100
AcDbEntity
  8
0
 62
7
100
AcDbPolyline
 90
2
 70
0
 10
58472030.250000
 20
58930926.750000
 30
0.0
 10
52002665.250000
 20
46234083.750000
 30
0.0
  0
LWPOLYLINE
  5
193
100
AcDbEntity
  8
0
 62
7
100
AcDbPolyline
 90
3
 70
0
 10
144112918.500000
 20
68186350.500000
 30
0.0
 10
131416075.500000
 20
61716985.500000
 30
0.0
 10
124946710.500000
 20
74413828.500000
 30
0.0
  0
LWPOLYLINE
  5
194
100
AcDbEntity
  8
0
 62
7
100
AcDbPolyline
 90
4
 70
1
 10
144112918.500000
 20
68186350.500000
 30
0.0
 10
131416075.500000
 20
61716985.500000
 30
0.0
 10
124946710.500000
 20
74413828.500000
 30
0.0
 10
137643553.500000
 20
80883193.500000
 30
0.0
  0
LWPOLYLINE
  5
195
100
AcDbEntity
  8
0
 62
7
100
AcDbPolyline
 90
2
 70
0
 10
137643553.500000
 20
80883193.500000
 30
0.0
 10
144112918.500000
 20
68186350.500000
 30
0.0
  0
LWPOLYLINE
  5
196
100
AcDbEntity
  8
0
 62
7
100
AcDbPolyline
 90
2
 70
0
 10
124946710.500000
 20
74413828.500000
 30
0.0
 10
137643553.500000
 20
80883193.500000
 30
0.0
  0
LWPOLYLINE
  5
197
100
AcDbEntity
  8
0
 62
7
100
AcDbPolyline
 90
3
 70
0
 10
8603911.500000
 20
102245291.250000
 30
0.0
 10
12292083.000000
 20
116009733.750000
 30
0.0
 10
26056525.500000
 20
112321562.250000
 30
0.0
  0
LWPOLYLINE
  5
198
100
AcDbEntity
  8
0
 62
7
100
AcDbPolyline
 90
2
 70
0
 10
22368354.000000
 20
98557119.750000
 30
0.0
 10
8603911.500000
 20
102245291.250000
 30
0.0
  0
LWPOLYLINE
  5
199
100
AcDbEntity
  8
0
 62
7
100
AcDbPolyline
 90
2
 70
0
 10
12292083.000000
 20
116009733.750000
 30
0.0
 10
26056525.500000
 20
112321562.250000
 30
0.0
  0
LWPOLYLINE
  5
19a
100
AcDbEntity
  8
0
 62
7
100
AcDbPolyline
 90
2
 70
0
 10
22368354.000000
 20
98557119.750000
 30
0.0
 10
8603911.500000
 20
102245291.250000
 30
0.0
  0
LWPOLYLINE
  5
19b
100
AcDbEntity
  8
0
 62
7
100
AcDbPolyline
 90
2
 70
0
 10
26056525.500000
 20
112321562.250000
 30
0.0
 10
22368354.000000
 20
98557119.750000
 30
0.0
  0
LWPOLYLINE
  5
19c
100
AcDbEntity
  8
0
 62
7
100
AcDbPolyline
 90
2
 70
0
 10
26056525.500000
 20
112321562.250000
 30
0.0
 10
22368354.000000
 20
98557119.750000
 30
0.0
  0
LWPOLYLINE
  5
19d
100
AcDbEntity
  8
0
 62
7
100
AcDbPolyline
 90
2
 70
0
 10
8603911.500000
 20
102245291.250000
 30
0.0
 10
12292083.000000
 20
116009733.750000
 30
0.0
  0
LWPOLYLINE
  5
19e
100
AcDbEntity
  8
0
 62
7
100
AcDbPolyline
 90
2
 70
0
 10
37830733.500000
 20
89717706.000000
 30
0.0
 10
50527576.500000
 20
83248341.000000
 30
0.0
  0
LWPOLYLINE
  5
19f
100
AcDbEntity
  8
0
 62
7
100
AcDbPolyline
 90
2
 70
0
 10
31361368.500000
 20
77020863.000000
 30
0.0
 10
37830733.500000
 20
89717706.000000
 30
0.0
  0
LWPOLYLINE
  5
1a0
100
AcDbEntity
  8
0
 62
7
100
AcDbPolyline
 90
3
 70
0
 10
50527576.500000
 20
83248341.000000
 30
0.0
 10
44058211.500000
 20
70551498.000000
 30
0.0
 10
31361368.500000
 20
77020863.000000
 30
0.0
  0
LWPOLYLINE
  5
1a1
100
AcDbEntity
  8
0
 62
7
100
AcDbPolyline
 90
2
 70
0
 10
37830733.500000
 20
89717706.000000
 30
0.0
 10
50527576.500000
 20
83248341.000000
 30
0.0
  0
LWPOLYLINE
  5
1a2
100
AcDbEntity
  8
0
 62
7
100
AcDbPolyline
 90
2
 70
0
 10
44058211.500000
 20
70551498.000000
 30
0.0
 10
31361368.500000
 20
77020863.000000
 30
0.0
  0
LWPOLYLINE
  5
1a3
100
AcDbEntity
  8
0
 62
7
100
AcDbPolyline
 90
2
 70
0
 10
50527576.500000
 20
83248341.000000
 30
0.0
 10
44058211.500000
 20
70551498.000000
 30
0.0
  0
LWPOLYLINE
  5
1a4
100
AcDbEntity
  8
0
 62
7
100
AcDbPolyline
 90
2
 70
0
 10
31361368.500000
 20
77020863.000000
 30
0.0
 10
37830733.500000
 20
89717706.000000
 30
0.0
  0
LWPOLYLINE
  5
1a5
100
AcDbEntity
  8
0
 62
7
100
AcDbPolyline
 90
3
 70
0
 10
176361761.250000
 20
104903034.000000
 30
0.0
 10
163149391.500000
 20
99564890.250000
 30
0.0
 10
157811247.750000
 20
112777260.000000
 30
0.0
  0
LWPOLYLINE
  5
1a6
100
AcDbEntity
  8
0
 62
7
100
AcDbPolyline
 90
4
 70
1
 10
176361761.250000
 20
104903034.000000
 30
0.0
 10
163149391.500000
 20
99564890.250000
 30
0.0
 10
157811247.750000
 20
112777260.000000
 30
0.0
 10
171023617.500000
 20
118115403.750000
 30
0.0
  0
LWPOLYLINE
  5
1a7
100
AcDbEntity
  8
0
 62
7
100
AcDbPolyline
 90
2
 70
0
 10
171023617.500000
 20
118115403.750000
 30
0.0
 10
176361761.250000
 20
104903034.000000
 30
0.0
  0
LWPOLYLINE
  5
1a8
100
AcDbEntity
  8
0
 62
7
100
AcDbPolyline
 90
2
 70
0
 10
157811247.750000
 20
112777260.000000
 30
0.0
 10
171023617.500000
 20
118115403.750000
 30
0.0
  0
LWPOLYLINE
  5
1a9
100
AcDbEntity
  8
0
 62
7
100
AcDbPolyline
 90
2
 70
0
 10
68508027.000000
 20
86446717.500000
 30
0.0
 10
62038662.000000
 20
73749874.500000
 30
0.0
  0
LWPOLYLINE
  5
1aa
100
AcDbEntity
  8
0
 62
7
100
AcDbPolyline
 90
2
 70
0
 10
55811184.000000
 20
92916082.500000
 30
0.0
 10
68508027.000000
 20
86446717.500000
 30
0.0
  0
LWPOLYLINE
  5
1ab
100
AcDbEntity
  8
0
 62
7
100
AcDbPolyline
 90
6
 70
0
 10
49341819.000000
 20
80219239.500000
 30
0.0
 10
55811184.000000
 20
92916082.500000
 30
0.0
 10
68508027.000000
 20
86446717.500000
 30
0.0
 10
62038662.000000
 20
73749874.500000
 30
0.0
 10
49341819.000000
 20
80219239.500000
 30
0.0
 10
55811184.000000
 20
92916082.500000
 30
0.0
  0
LWPOLYLINE
  5
1ac
100
AcDbEntity
  8
0
 62
7
100
AcDbPolyline
 90
2
 70
0
 10
62038662.000000
 20
73749874.500000
 30
0.0
 10
49341819.000000
 20
80219239.500000
 30
0.0
  0
LWPOLYLINE
  5
1ad
100
AcDbEntity
  8
0
 62
7
100
AcDbPolyline
 90
2
 70
0
 10
78521728.500000
 20
74358447.750000
 30
0.0
 10
65824885.500000
 20
80827812.750000
 30
0.0
  0
LWPOLYLINE
  5
1ae
100
AcDbEntity
  8
0
 62
7
100
AcDbPolyline
 90
2
 70
0
 10
72294250.500000
 20
93524655.750000
 30
0.0
 10
84991093.500000
 20
87055290.750000
 30
0.0
  0
LWPOLYLINE
  5
1af
100
AcDbEntity
  8
0
 62
7
100
AcDbPolyline
 90
2
 70
0
 10
72294250.500000
 20
93524655.750000
 30
0.0
 10
84991093.500000
 20
87055290.750000
 30
0.0
  0
LWPOLYLINE
  5
1b0
100
AcDbEntity
  8
0
 62
7
100
AcDbPolyline
 90
2
 70
0
 10
65824885.500000
 20
80827812.750000
 30
0.0
 10
72294250.500000
 20
93524655.750000
 30
0.0
  0
LWPOLYLINE
  5
1b1
100
AcDbEntity
  8
0
 62
7
100
AcDbPolyline
 90
2
 70
0
 10
84991093.500000
 20
87055290.750000
 30
0.0
 10
78521728.500000
 20
74358447.750000
 30
0.0
  0
LWPOLYLINE
  5
1b2
100
AcDbEntity
  8
0
 62
7
100
AcDbPolyline
 90
2
 70
0
 10
65824885.500000
 20
80827812.750000
 30
0.0
 10
72294250.500000
 20
93524655.750000
 30
0.0
  0
LWPOLYLINE
  5
1b3
100
AcDbEntity
  8
0
 62
7
100
AcDbPolyline
 90
2
 70
0
 10
78521728.500000
 20
74358447.750000
 30
0.0
 10
65824885.500000
 20
80827812.750000
 30
0.0
  0
LWPOLYLINE
  5
1b4
100
AcDbEntity
  8
0
 62
7
100
AcDbPolyline
 90
2
 70
0
 10
84991093.500000
 20
87055290.750000
 30
0.0
 10
78521728.500000
 20
74358447.750000
 30
0.0
  0
LWPOLYLINE
  5
1b5
100
AcDbEntity
  8
0
 62
7
100
AcDbPolyline
 90
2
 70
0
 10
124946712.000000
 20
74413829.250000
 30
0.0
 10
118477347.000000
 20
87110672.250000
 30
0.0
  0
LWPOLYLINE
  5
1b6
100
AcDbEntity
  8
0
 62
7
100
AcDbPolyline
 90
4
 70
1
 10
124946712.000000
 20
74413829.250000
 30
0.0
 10
118477347.000000
 20
87110672.250000
 30
0.0
 10
131174190.000000
 20
93580037.250000
 30
0.0
 10
137643555.000000
 20
80883194.250000
 30
0.0
  0
LWPOLYLINE
  5
1b7
100
AcDbEntity
  8
0
 62
7
100
AcDbPolyline
 90
4
 70
0
 10
118477347.000000
 20
87110672.250000
 30
0.0
 10
131174190.000000
 20
93580037.250000
 30
0.0
 10
137643555.000000
 20
80883194.250000
 30
0.0
 10
124946712.000000
 20
74413829.250000
 30
0.0
  0
LWPOLYLINE
  5
1b8
100
AcDbEntity
  8
0
 62
7
100
AcDbPolyline
 90
2
 70
0
 10
147657257.250000
 20
92971463.250000
 30
0.0
 10
134960414.250000
 20
86502098.250000
 30
0.0
  0
LWPOLYLINE
  5
1b9
100
AcDbEntity
  8
0
 62
7
100
AcDbPolyline
 90
2
 70
0
 10
141187892.250000
 20
105668306.250000
 30
0.0
 10
147657257.250000
 20
92971463.250000
 30
0.0
  0
LWPOLYLINE
  5
1ba
100
AcDbEntity
  8
0
 62
7
100
AcDbPolyline
 90
2
 70
0
 10
128491049.250000
 20
99198941.250000
 30
0.0
 10
141187892.250000
 20
105668306.250000
 30
0.0
  0
LWPOLYLINE
  5
1bb
100
AcDbEntity
  8
0
 62
7
100
AcDbPolyline
 90
2
 70
0
 10
128491049.250000
 20
99198941.250000
 30
0.0
 10
141187892.250000
 20
105668306.250000
 30
0.0
  0
LWPOLYLINE
  5
1bc
100
AcDbEntity
  8
0
 62
7
100
AcDbPolyline
 90
3
 70
0
 10
147657257.250000
 20
92971463.250000
 30
0.0
 10
134960414.250000
 20
86502098.250000
 30
0.0
 10
128491049.250000
 20
99198941.250000
 30
0.0
  0
LWPOLYLINE
  5
1bd
100
AcDbEntity
  8
0
 62
7
100
AcDbPolyline
 90
2
 70
0
 10
141187892.250000
 20
105668306.250000
 30
0.0
 10
147657257.250000
 20
92971463.250000
 30
0.0
  0
LWPOLYLINE
  5
1be
100
AcDbEntity
  8
0
 62
7
100
AcDbPolyline
 90
2
 70
0
 10
134960414.250000
 20
86502098.250000
 30
0.0
 10
128491049.250000
 20
99198941.250000
 30
0.0
  0
LWPOLYLINE
  5
1bf
100
AcDbEntity
  8
0
 62
7
100
AcDbPolyline
 90
2
 70
0
 10
101976000.000000
 20
34712998.500000
 30
0.0
 10
101976000.000000
 20
20462998.500000
 30
0.0
  0
LWPOLYLINE
  5
1c0
100
AcDbEntity
  8
0
 62
7
100
AcDbPolyline
 90
3
 70
0
 10
101976000.000000
 20
34712998.500000
 30
0.0
 10
101976000.000000
 20
20462998.500000
 30
0.0
 10
87726000.000000
 20
20462998.500000
 30
0.0
  0
LWPOLYLINE
  5
1c1
100
AcDbEntity
  8
0
 62
7
100
AcDbPolyline
 90
2
 70
0
 10
101976000.000000
 20
20462998.500000
 30
0.0
 10
87726000.000000
 20
20462998.500000
 30
0.0
  0
LWPOLYLINE
  5
1c2
100
AcDbEntity
  8
0
 62
7
100
AcDbPolyline
 90
2
 70
0
 10
87726000.000000
 20
34712998.500000
 30
0.0
 10
101976000.000000
 20
34712998.500000
 30
0.0
  0
LWPOLYLINE
  5
1c3
100
AcDbEntity
  8
0
 62
7
100
AcDbPolyline
 90
2
 70
0
 10
87726000.000000
 20
20462998.500000
 30
0.0
 10
87726000.000000
 20
34712998.500000
 30
0.0
  0
LWPOLYLINE
  5
1c4
100
AcDbEntity
  8
0
 62
7
100
AcDbPolyline
 90
3
 70
0
 10
87726000.000000
 20
20462998.500000
 30
0.0
 10
87726000.000000
 20
34712998.500000
 30
0.0
 10
101976000.000000
 20
34712998.500000
 30
0.0
  0
LWPOLYLINE
  5
1c5
100
AcDbEntity
  8
0
 62
7
100
AcDbPolyline
 90
3
 70
0
 10
165479487.750000
 20
89713766.250000
 30
0.0
 10
152782644.750000
 20
83244401.250000
 30
0.0
 10
146313279.750000
 20
95941244.250000
 30
0.0
  0
LWPOLYLINE
  5
1c6
100
AcDbEntity
  8
0
 62
7
100
AcDbPolyline
 90
2
 70
0
 10
165479487.750000
 20
89713766.250000
 30
0.0
 10
152782644.750000
 20
83244401.250000
 30
0.0
  0
LWPOLYLINE
  5
1c7
100
AcDbEntity
  8
0
 62
7
100
AcDbPolyline
 90
2
 70
0
 10
159010122.750000
 20
102410609.250000
 30
0.0
 10
165479487.750000
 20
89713766.250000
 30
0.0
  0
LWPOLYLINE
  5
1c8
100
AcDbEntity
  8
0
 62
7
100
AcDbPolyline
 90
3
 70
0
 10
152782644.750000
 20
83244401.250000
 30
0.0
 10
146313279.750000
 20
95941244.250000
 30
0.0
 10
159010122.750000
 20
102410609.250000
 30
0.0
  0
LWPOLYLINE
  5
1c9
100
AcDbEntity
  8
0
 62
7
100
AcDbPolyline
 90
3
 70
0
 10
146313279.750000
 20
95941244.250000
 30
0.0
 10
159010122.750000
 20
102410609.250000
 30
0.0
 10
165479487.750000
 20
89713766.250000
 30
0.0
  0
LWPOLYLINE
  5
1ca
100
AcDbEntity
  8
0
 62
7
100
AcDbPolyline
 90
2
 70
0
 10
187038048.000000
 20
78478294.500000
 30
0.0
 10
173825678.250000
 20
73140150.750000
 30
0.0
  0
LWPOLYLINE
  5
1cb
100
AcDbEntity
  8
0
 62
7
100
AcDbPolyline
 90
2
 70
0
 10
187038048.000000
 20
78478294.500000
 30
0.0
 10
173825678.250000
 20
73140150.750000
 30
0.0
  0
LWPOLYLINE
  5
1cc
100
AcDbEntity
  8
0
 62
7
100
AcDbPolyline
 90
3
 70
0
 10
168487534.500000
 20
86352520.500000
 30
0.0
 10
181699904.250000
 20
91690664.250000
 30
0.0
 10
187038048.000000
 20
78478294.500000
 30
0.0
  0
LWPOLYLINE
  5
1cd
100
AcDbEntity
  8
0
 62
7
100
AcDbPolyline
 90
2
 70
0
 10
181699904.250000
 20
91690664.250000
 30
0.0
 10
187038048.000000
 20
78478294.500000
 30
0.0
  0
LWPOLYLINE
  5
1ce
100
AcDbEntity
  8
0
 62
7
100
AcDbPolyline
 90
2
 70
0
 10
168487534.500000
 20
86352520.500000
 30
0.0
 10
181699904.250000
 20
91690664.250000
 30
0.0
  0
LWPOLYLINE
  5
1cf
100
AcDbEntity
  8
0
 62
7
100
AcDbPolyline
 90
2
 70
0
 10
173825678.250000
 20
73140150.750000
 30
0.0
 10
168487534.500000
 20
86352520.500000
 30
0.0
  0
LWPOLYLINE
  5
1d0
100
AcDbEntity
  8
0
 62
7
100
AcDbPolyline
 90
2
 70
0
 10
173825678.250000
 20
73140150.750000
 30
0.0
 10
168487534.500000
 20
86352520.500000
 30
0.0
  0
LWPOLYLINE
  5
1d1
100
AcDbEntity
  8
0
 62
7
100
AcDbPolyline
 90
2
 70
0
 10
26948806.500000
 20
104906955.000000
 30
0.0
 10
40161176.250000
 20
99568811.250000
 30
0.0
  0
LWPOLYLINE
  5
1d2
100
AcDbEntity
  8
0
 62
7
100
AcDbPolyline
 90
3
 70
0
 10
21610662.750000
 20
91694585.250000
 30
0.0
 10
26948806.500000
 20
104906955.000000
 30
0.0
 10
40161176.250000
 20
99568811.250000
 30
0.0
  0
LWPOLYLINE
  5
1d3
100
AcDbEntity
  8
0
 62
7
100
AcDbPolyline
 90
2
 70
0
 10
21610662.750000
 20
91694585.250000
 30
0.0
 10
26948806.500000
 20
104906955.000000
 30
0.0
  0
LWPOLYLINE
  5
1d4
100
AcDbEntity
  8
0
 62
7
100
AcDbPolyline
 90
2
 70
0
 10
34823032.500000
 20
86356441.500000
 30
0.0
 10
21610662.750000
 20
91694585.250000
 30
0.0
  0
LWPOLYLINE
  5
1d5
100
AcDbEntity
  8
0
 62
7
100
AcDbPolyline
 90
2
 70
0
 10
34823032.500000
 20
86356441.500000
 30
0.0
 10
21610662.750000
 20
91694585.250000
 30
0.0
  0
LWPOLYLINE
  5
1d6
100
AcDbEntity
  8
0
 62
7
100
AcDbPolyline
 90
2
 70
0
 10
40161176.250000
 20
99568811.250000
 30
0.0
 10
34823032.500000
 20
86356441.500000
 30
0.0
  0
LWPOLYLINE
  5
1d7
100
AcDbEntity
  8
0
 62
7
100
AcDbPolyline
 90
2
 70
0
 10
40161176.250000
 20
99568811.250000
 30
0.0
 10
34823032.500000
 20
86356441.500000
 30
0.0
  0
LWPOLYLINE
  5
1d8
100
AcDbEntity
  8
0
 62
7
100
AcDbPolyline
 90
3
 70
0
 10
141429775.500000
 20
73805253.000000
 30
0.0
 10
154126618.500000
 20
80274618.000000
 30
0.0
 10
160595983.500000
 20
67577775.000000
 30
0.0
  0
LWPOLYLINE
  5
1d9
100
AcDbEntity
  8
0
 62
7
100
AcDbPolyline
 90
2
 70
0
 10
154126618.500000
 20
80274618.000000
 30
0.0
 10
160595983.500000
 20
67577775.000000
 30
0.0
  0
LWPOLYLINE
  5
1da
100
AcDbEntity
  8
0
 62
7
100
AcDbPolyline
 90
2
 70
0
 10
141429775.500000
 20
73805253.000000
 30
0.0
 10
154126618.500000
 20
80274618.000000
 30
0.0
  0
LWPOLYLINE
  5
1db
100
AcDbEntity
  8
0
 62
7
100
AcDbPolyline
 90
3
 70
0
 10
160595983.500000
 20
67577775.000000
 30
0.0
 10
147899140.500000
 20
61108410.000000
 30
0.0
 10
141429775.500000
 20
73805253.000000
 30
0.0
  0
LWPOLYLINE
  5
1dc
100
AcDbEntity
  8
0
 62
7
100
AcDbPolyline
 90
2
 70
0
 10
147899140.500000
 20
61108410.000000
 30
0.0
 10
141429775.500000
 20
73805253.000000
 30
0.0
  0
LWPOLYLINE
  5
1dd
100
AcDbEntity
  8
0
 62
7
100
AcDbPolyline
 90
2
 70
0
 10
160595983.500000
 20
67577775.000000
 30
0.0
 10
147899140.500000
 20
61108410.000000
 30
0.0
  0
LWPOLYLINE
  5
1de
100
AcDbEntity
  8
0
 62
7
100
AcDbPolyline
 90
3
 70
0
 10
78521727.750000
 20
74358449.250000
 30
0.0
 10
72052362.750000
 20
61661606.250000
 30
0.0
 10
59355519.750000
 20
68130971.250000
 30
0.0
  0
LWPOLYLINE
  5
1df
100
AcDbEntity
  8
0
 62
7
100
AcDbPolyline
 90
2
 70
0
 10
78521727.750000
 20
74358449.250000
 30
0.0
 10
72052362.750000
 20
61661606.250000
 30
0.0
  0
LWPOLYLINE
  5
1e0
100
AcDbEntity
  8
0
 62
7
100
AcDbPolyline
 90
2
 70
0
 10
59355519.750000
 20
68130971.250000
 30
0.0
 10
65824884.750000
 20
80827814.250000
 30
0.0
  0
LWPOLYLINE
  5
1e1
100
AcDbEntity
  8
0
 62
7
100
AcDbPolyline
 90
2
 70
0
 10
72052362.750000
 20
61661606.250000
 30
0.0
 10
59355519.750000
 20
68130971.250000
 30
0.0
  0
LWPOLYLINE
  5
1e2
100
AcDbEntity
  8
0
 62
7
100
AcDbPolyline
 90
2
 70
0
 10
65824884.750000
 20
80827814.250000
 30
0.0
 10
78521727.750000
 20
74358449.250000
 30
0.0
  0
SPLINE
  5
1e3
100
AcDbEntity
  8
0
 62
7
100
AcDbSpline
 70
8
 71
3
 72
8
 73
4
 74
0
 40
0
 40
0
 40
0
 40
0
 40
1
 40
1
 40
1
 40
1
 10
18287970.407569
 20
84201007.819127
 30
0.0
 10
18359103.838521
 20
84415362.185162
 30
0.0
 10
18243367.490915
 20
84646857.019809
 30
0.0
 10
18029209.426426
 20
84718579.280311
 30
0.0
  0
SPLINE
  5
1e4
100
AcDbEntity
  8
0
 62
7
100
AcDbSpline
 70
8
 71
3
 72
8
 73
4
 74
0
 40
0
 40
0
 40
0
 40
0
 40
1
 40
1
 40
1
 40
1
 10
158902852.832968
 20
65722476.962524
 30
0.0
 10
158795982.001209
 20
65678350.928019
 30
0.0
 10
158713558.653453
 20
65589964.638243
 30
0.0
 10
158676992.651657
 20
65480276.858092
 30
0.0
  0
SPLINE
  5
1e5
100
AcDbEntity
  8
0
 62
7
100
AcDbSpline
 70
8
 71
3
 72
8
 73
4
 74
0
 40
0
 40
0
 40
0
 40
0
 40
1
 40
1
 40
1
 40
1
 10
158676992.651657
 20
65480276.858092
 30
0.0
 10
158640426.649862
 20
65370589.077941
 30
0.0
 10
158653326.833192
 20
65250425.315742
 30
0.0
 10
158712342.316833
 20
65150998.688059
 30
0.0
  0
SPLINE
  5
1e6
100
AcDbEntity
  8
0
 62
7
100
AcDbSpline
 70
8
 71
3
 72
8
 73
4
 74
0
 40
0
 40
0
 40
0
 40
0
 40
1
 40
1
 40
1
 40
1
 10
24933316.269883
 20
114597232.164243
 30
0.0
 10
25113022.165164
 20
114546742.608284
 30
0.0
 10
25305977.748904
 20
114597556.272318
 30
0.0
 10
25437507.249667
 20
114730007.752070
 30
0.0
  0
LWPOLYLINE
  5
1e7
100
AcDbEntity
  8
0
 62
7
100
AcDbPolyline
 90
3
 70
0
 10
59355519.750000
 20
68130971.250000
 30
0.0
 10
65824884.750000
 20
80827814.250000
 30
0.0
 10
78521727.750000
 20
74358449.250000
 30
0.0
  0
SPLINE
  5
1e8
100
AcDbEntity
  8
0
 62
7
100
AcDbSpline
 70
8
 71
3
 72
8
 73
4
 74
0
 40
0
 40
0
 40
0
 40
0
 40
1
 40
1
 40
1
 40
1
 10
152425846.958829
 20
45910492.484710
 30
0.0
 10
152309692.712612
 20
45838230.479050
 30
0.0
 10
152273123.952500
 20
45686068.348973
 30
0.0
 10
152343756.762657
 20
45568916.257631
 30
0.0
  0
SPLINE
  5
1e9
100
AcDbEntity
  8
0
 62
7
100
AcDbSpline
 70
8
 71
3
 72
8
 73
4
 74
0
 40
0
 40
0
 40
0
 40
0
 40
1
 40
1
 40
1
 40
1
 10
154330814.167030
 20
116752484.729779
 30
0.0
 10
154262003.997828
 20
116895314.607347
 30
0.0
 10
154105396.587270
 20
116973630.328474
 30
0.0
 10
153949842.822368
 20
116942999.632490
 30
0.0
  0
SPLINE
  5
1ea
100
AcDbEntity
  8
0
 62
7
100
AcDbSpline
 70
8
 71
3
 72
8
 73
4
 74
0
 40
0
 40
0
 40
0
 40
0
 40
1
 40
1
 40
1
 40
1
 10
39198044.851295
 20
52861606.951072
 30
0.0
 10
39153433.025234
 20
52774366.201116
 30
0.0
 10
39148797.460776
 20
52672078.387781
 30
0.0
 10
39185335.323696
 20
52581160.028521
 30
0.0
  0
SPLINE
  5
1eb
100
AcDbEntity
  8
0
 62
7
100
AcDbSpline
 70
8
 71
3
 72
8
 73
4
 74
0
 40
0
 40
0
 40
0
 40
0
 40
1
 40
1
 40
1
 40
1
 10
39185335.323696
 20
52581160.028521
 30
0.0
 10
39221873.186616
 20
52490241.669261
 30
0.0
 10
39296001.940248
 20
52419607.307229
 30
0.0
 10
39388577.334164
 20
52387498.742662
 30
0.0
  0
SPLINE
  5
1ec
100
AcDbEntity
  8
0
 62
7
100
AcDbSpline
 70
8
 71
3
 72
8
 73
4
 74
0
 40
0
 40
0
 40
0
 40
0
 40
1
 40
1
 40
1
 40
1
 10
178804312.585863
 20
114539483.505109
 30
0.0
 10
178935861.402616
 20
114407052.763707
 30
0.0
 10
179128817.346766
 20
114356257.040311
 30
0.0
 10
179308521.013867
 20
114406750.450650
 30
0.0
  0
LWPOLYLINE
  5
1ed
100
AcDbEntity
  8
0
 62
7
100
AcDbPolyline
 90
2
 70
0
 10
153949842.750000
 20
116943000.000000
 30
0.0
 10
134137842.000000
 20
106846497.750000
 30
0.0
  0
LWPOLYLINE
  5
1ee
100
AcDbEntity
  8
0
 62
7
100
AcDbPolyline
 90
2
 70
0
 10
133375842.750000
 20
107227497.750000
 30
0.0
 10
127470342.750000
 20
115633499.250000
 30
0.0
  0
LWPOLYLINE
  5
1ef
100
AcDbEntity
  8
0
 62
7
100
AcDbPolyline
 90
2
 70
0
 10
47973487.500000
 20
113894998.500000
 30
0.0
 10
32087935.500000
 20
120335227.500000
 30
0.0
  0
SPLINE
  5
1f0
100
AcDbEntity
  8
0
 62
7
100
AcDbSpline
 70
8
 71
3
 72
8
 73
4
 74
0
 40
0
 40
0
 40
0
 40
0
 40
1
 40
1
 40
1
 40
1
 10
153456133.552327
 20
42645464.086571
 30
0.0
 10
153525438.050976
 20
42684540.969008
 30
0.0
 10
153576235.495729
 20
42749712.590228
 30
0.0
 10
153597209.446327
 20
42826460.291629
 30
0.0
  0
SPLINE
  5
1f1
100
AcDbEntity
  8
0
 62
7
100
AcDbSpline
 70
8
 71
3
 72
8
 73
4
 74
0
 40
0
 40
0
 40
0
 40
0
 40
1
 40
1
 40
1
 40
1
 10
153597209.446327
 20
42826460.291629
 30
0.0
 10
153618183.396924
 20
42903207.993030
 30
0.0
 10
153607591.549459
 20
42985156.350995
 30
0.0
 10
153567793.510988
 20
43054049.256347
 30
0.0
  0
SPLINE
  5
1f2
100
AcDbEntity
  8
0
 62
7
100
AcDbSpline
 70
8
 71
3
 72
8
 73
4
 74
0
 40
0
 40
0
 40
0
 40
0
 40
1
 40
1
 40
1
 40
1
 10
72580502.303236
 20
21907498.086136
 30
0.0
 10
92147333.879503
 20
18808571.662819
 30
0.0
 10
112074934.789031
 20
18744317.511568
 30
0.0
 10
131661343.534488
 20
21716999.022766
 30
0.0
  0
SPLINE
  5
1f3
100
AcDbEntity
  8
0
 62
7
100
AcDbSpline
 70
8
 71
3
 72
8
 73
4
 74
0
 40
0
 40
0
 40
0
 40
0
 40
1
 40
1
 40
1
 40
1
 10
72402004.043722
 20
22098000.024143
 30
0.0
 10
72403351.084294
 20
21997920.257441
 30
0.0
 10
72480721.642622
 20
21915346.610612
 30
0.0
 10
72580502.268260
 20
21907497.982137
 30
0.0
  0
LWPOLYLINE
  5
1f4
100
AcDbEntity
  8
0
 62
7
100
AcDbPolyline
 90
2
 70
0
 10
172153908.000000
 20
120144726.750000
 30
0.0
 10
156268356.750000
 20
113704497.750000
 30
0.0
  0
SPLINE
  5
1f5
100
AcDbEntity
  8
0
 62
7
100
AcDbSpline
 70
8
 71
3
 72
8
 73
4
 74
0
 40
0
 40
0
 40
0
 40
0
 40
1
 40
1
 40
1
 40
1
 10
12573002.297587
 20
117895503.919325
 30
0.0
 10
12311607.173494
 20
117940153.942378
 30
0.0
 10
12060820.560283
 20
117772961.379215
 30
0.0
 10
12001501.502896
 20
117514499.999335
 30
0.0
  0
SPLINE
  5
1f6
100
AcDbEntity
  8
0
 62
7
100
AcDbSpline
 70
8
 71
3
 72
8
 73
4
 74
0
 40
0
 40
0
 40
0
 40
0
 40
1
 40
1
 40
1
 40
1
 10
47973494.493569
 20
113895020.216144
 30
0.0
 10
48139884.190448
 20
113841435.296877
 30
0.0
 10
48319589.081113
 20
113924214.336529
 30
0.0
 10
48387002.056385
 20
114085497.830927
 30
0.0
  0
SPLINE
  5
1f7
100
AcDbEntity
  8
0
 62
7
100
AcDbSpline
 70
8
 71
3
 72
8
 73
4
 74
0
 40
0
 40
0
 40
0
 40
0
 40
1
 40
1
 40
1
 40
1
 10
50292000.124759
 20
117133493.008829
 30
0.0
 10
50136448.588415
 20
117164091.733117
 30
0.0
 10
49979855.444724
 20
117085796.886557
 30
0.0
 10
49911000.985029
 20
116942997.636674
 30
0.0
  0
LWPOLYLINE
  5
1f8
100
AcDbEntity
  8
0
 62
7
100
AcDbPolyline
 90
2
 70
0
 10
165043765.500000
 20
52671088.500000
 30
0.0
 10
158712342.000000
 20
65150998.500000
 30
0.0
  0
LWPOLYLINE
  5
1f9
100
AcDbEntity
  8
0
 62
7
100
AcDbPolyline
 90
2
 70
0
 10
153567793.500000
 20
43054049.250000
 30
0.0
 10
152343756.750000
 20
45568916.250000
 30
0.0
  0
SPLINE
  5
1fa
100
AcDbEntity
  8
0
 62
7
100
AcDbSpline
 70
8
 71
3
 72
8
 73
4
 74
0
 40
0
 40
0
 40
0
 40
0
 40
1
 40
1
 40
1
 40
1
 10
16002006.287320
 20
78676496.566571
 30
0.0
 10
15971653.642762
 20
78613115.248021
 30
0.0
 10
15968233.595702
 20
78540150.412049
 30
0.0
 10
15992524.499932
 20
78474207.811673
 30
0.0
  0
SPLINE
  5
1fb
100
AcDbEntity
  8
0
 62
7
100
AcDbSpline
 70
8
 71
3
 72
8
 73
4
 74
0
 40
0
 40
0
 40
0
 40
0
 40
1
 40
1
 40
1
 40
1
 10
15992524.499932
 20
78474207.811673
 30
0.0
 10
16016815.404162
 20
78408265.211297
 30
0.0
 10
16066750.816991
 20
78354954.625520
 30
0.0
 10
16130966.152709
 20
78326408.781140
 30
0.0
  0
SPLINE
  5
1fc
100
AcDbEntity
  8
0
 62
7
100
AcDbSpline
 70
8
 71
3
 72
8
 73
4
 74
0
 40
0
 40
0
 40
0
 40
0
 40
1
 40
1
 40
1
 40
1
 10
51898060.772747
 20
45759432.807883
 30
0.0
 10
51968654.011925
 20
45876579.931584
 30
0.0
 10
51932106.578859
 20
46028703.162404
 30
0.0
 10
51816000.601736
 20
46100996.011880
 30
0.0
  0
SPLINE
  5
1fd
100
AcDbEntity
  8
0
 62
7
100
AcDbSpline
 70
8
 71
3
 72
8
 73
4
 74
0
 40
0
 40
0
 40
0
 40
0
 40
1
 40
1
 40
1
 40
1
 10
50674099.004947
 20
43244520.419653
 30
0.0
 10
50634048.632421
 20
43175695.464144
 30
0.0
 10
50623311.225020
 20
43093671.142576
 30
0.0
 10
50644296.594755
 20
43016856.293117
 30
0.0
  0
SPLINE
  5
1fe
100
AcDbEntity
  8
0
 62
7
100
AcDbSpline
 70
8
 71
3
 72
8
 73
4
 74
0
 40
0
 40
0
 40
0
 40
0
 40
1
 40
1
 40
1
 40
1
 10
50644296.594755
 20
43016856.293117
 30
0.0
 10
50665281.964489
 20
42940041.443658
 30
0.0
 10
50716232.428333
 20
42874869.889430
 30
0.0
 10
50785713.099346
 20
42835968.177438
 30
0.0
  0
SPLINE
  5
1ff
100
AcDbEntity
  8
0
 62
7
100
AcDbSpline
 70
8
 71
3
 72
8
 73
4
 74
0
 40
0
 40
0
 40
0
 40
0
 40
1
 40
1
 40
1
 40
1
 10
132042352.924109
 20
31622973.309161
 30
0.0
 10
131910837.839624
 20
31570657.200129
 30
0.0
 10
131828137.043815
 20
31439422.191887
 30
0.0
 10
131837693.571947
 20
31298206.521787
 30
0.0
  0
LWPOLYLINE
  5
200
100
AcDbEntity
  8
0
 62
7
100
AcDbPolyline
 90
2
 70
0
 10
18288000.750000
 20
84200997.750000
 30
0.0
 10
16002002.250000
 20
78676498.500000
 30
0.0
  0
SPLINE
  5
201
100
AcDbEntity
  8
0
 62
7
100
AcDbSpline
 70
8
 71
3
 72
8
 73
4
 74
0
 40
0
 40
0
 40
0
 40
0
 40
1
 40
1
 40
1
 40
1
 10
4381530.107317
 20
88772989.388914
 30
0.0
 10
4317075.198590
 20
88575917.300903
 30
0.0
 10
4420123.051123
 20
88363174.987710
 30
0.0
 10
4614714.780346
 20
88291579.582480
 30
0.0
  0
LWPOLYLINE
  5
202
100
AcDbEntity
  8
0
 62
7
100
AcDbPolyline
 90
2
 70
0
 10
70104001.500000
 20
107036998.500000
 30
0.0
 10
50292001.500000
 20
117133500.000000
 30
0.0
  0
LWPOLYLINE
  5
203
100
AcDbEntity
  8
0
 62
7
100
AcDbPolyline
 90
2
 70
0
 10
76771500.750000
 20
115633500.000000
 30
0.0
 10
70866000.000000
 20
107227498.500000
 30
0.0
  0
LWPOLYLINE
  5
204
100
AcDbEntity
  8
0
 62
7
100
AcDbPolyline
 90
2
 70
0
 10
152425842.750000
 20
45910499.250000
 30
0.0
 10
164853266.250000
 20
52196997.750000
 30
0.0
  0
LWPOLYLINE
  5
205
100
AcDbEntity
  8
0
 62
2
100
AcDbPolyline
 90
4
 70
1
 10
106870500.750000
 20
53720997.000000
 30
0.0
 10
96583501.500000
 20
53720998.500000
 30
0.0
 10
96583500.750000
 20
58673999.250000
 30
0.0
 10
106870500.750000
 20
58674000.000000
 30
0.0
  0
SPLINE
  5
206
100
AcDbEntity
  8
0
 62
7
100
AcDbSpline
 70
8
 71
3
 72
8
 73
4
 74
0
 40
0
 40
0
 40
0
 40
0
 40
1
 40
1
 40
1
 40
1
 10
192240298.786286
 20
117323987.660891
 30
0.0
 10
192180988.328517
 20
117582435.463475
 30
0.0
 10
191930225.202871
 20
117749628.291827
 30
0.0
 10
191668841.994269
 20
117704998.533570
 30
0.0
  0
SPLINE
  5
207
100
AcDbEntity
  8
0
 62
7
100
AcDbSpline
 70
8
 71
3
 72
8
 73
4
 74
0
 40
0
 40
0
 40
0
 40
0
 40
1
 40
1
 40
1
 40
1
 10
79247999.299646
 20
116415723.864717
 30
0.0
 10
93842556.626585
 20
110099563.806796
 30
0.0
 10
110399286.166234
 20
110099563.707852
 30
0.0
 10
124993843.568665
 20
116415723.591338
 30
0.0
  0
SPLINE
  5
208
100
AcDbEntity
  8
0
 62
7
100
AcDbSpline
 70
8
 71
3
 72
8
 73
4
 74
0
 40
0
 40
0
 40
0
 40
0
 40
1
 40
1
 40
1
 40
1
 10
172557087.640618
 20
120084980.345539
 30
0.0
 10
172445884.343428
 20
120181901.391955
 30
0.0
 10
172288440.059607
 20
120205232.844587
 30
0.0
 10
172153907.887292
 20
120144727.000601
 30
0.0
  0
LWPOLYLINE
  5
209
100
AcDbEntity
  8
0
 62
7
100
AcDbPolyline
 90
2
 70
0
 10
131839842.000000
 20
21907498.500000
 30
0.0
 10
131837693.250000
 20
31298206.500000
 30
0.0
  0
LWPOLYLINE
  5
20a
100
AcDbEntity
  8
0
 62
7
100
AcDbPolyline
 90
2
 70
0
 10
63817501.500000
 20
36194998.500000
 30
0.0
 10
72199502.250000
 20
31813498.500000
 30
0.0
  0
LWPOLYLINE
  5
20b
100
AcDbEntity
  8
0
 62
7
100
AcDbPolyline
 90
2
 70
0
 10
51898088.250000
 20
45759416.250000
 30
0.0
 10
50674050.750000
 20
43244548.500000
 30
0.0
  0
LWPOLYLINE
  5
20c
100
AcDbEntity
  8
0
 62
7
100
AcDbPolyline
 90
2
 70
0
 10
45529501.500000
 20
65341497.750000
 30
0.0
 10
39198078.000000
 20
52861590.000000
 30
0.0
  0
SPLINE
  5
20d
100
AcDbEntity
  8
0
 62
7
100
AcDbSpline
 70
8
 71
3
 72
8
 73
4
 74
0
 40
0
 40
0
 40
0
 40
0
 40
1
 40
1
 40
1
 40
1
 10
72404128.102590
 20
31488704.902413
 30
0.0
 10
72413720.136978
 20
31629926.250065
 30
0.0
 10
72331026.150744
 20
31761182.730969
 30
0.0
 10
72199502.226486
 20
31813498.440886
 30
0.0
  0
LWPOLYLINE
  5
20e
100
AcDbEntity
  8
0
 62
7
100
AcDbPolyline
 90
2
 70
0
 10
16130966.250000
 20
78326409.000000
 30
0.0
 10
45339002.250000
 20
65912998.500000
 30
0.0
  0
LWPOLYLINE
  5
20f
100
AcDbEntity
  8
0
 62
7
100
AcDbPolyline
 90
2
 70
0
 10
24933321.000000
 20
114597249.000000
 30
0.0
 10
12573001.500000
 20
117895499.250000
 30
0.0
  0
SPLINE
  5
210
100
AcDbEntity
  8
0
 62
7
100
AcDbSpline
 70
8
 71
3
 72
8
 73
4
 74
0
 40
0
 40
0
 40
0
 40
0
 40
1
 40
1
 40
1
 40
1
 10
133375815.314923
 20
107227482.838976
 30
0.0
 10
133524837.133894
 20
106953294.755227
 30
0.0
 10
133829081.142951
 20
106801183.944670
 30
0.0
 10
134137842.034291
 20
106846497.516344
 30
0.0
  0
SPLINE
  5
211
100
AcDbEntity
  8
0
 62
7
100
AcDbSpline
 70
8
 71
3
 72
8
 73
4
 74
0
 40
0
 40
0
 40
0
 40
0
 40
1
 40
1
 40
1
 40
1
 10
45529476.583700
 20
65341512.549773
 30
0.0
 10
45588527.620280
 20
65440928.487387
 30
0.0
 10
45601451.501673
 20
65561102.153739
 30
0.0
 10
45564889.337401
 20
65670800.657450
 30
0.0
  0
SPLINE
  5
212
100
AcDbEntity
  8
0
 62
7
100
AcDbSpline
 70
8
 71
3
 72
8
 73
4
 74
0
 40
0
 40
0
 40
0
 40
0
 40
1
 40
1
 40
1
 40
1
 10
45564889.337401
 20
65670800.657450
 30
0.0
 10
45528327.173129
 20
65780499.161161
 30
0.0
 10
45445889.674786
 20
65868889.181309
 30
0.0
 10
45339002.180463
 20
65912998.331494
 30
0.0
  0
LWPOLYLINE
  5
213
100
AcDbEntity
  8
0
 62
7
100
AcDbPolyline
 90
2
 70
0
 10
178804338.000000
 20
114539508.750000
 30
0.0
 10
172557086.250000
 20
120084978.750000
 30
0.0
  0
SPLINE
  5
214
100
AcDbEntity
  8
0
 62
7
100
AcDbSpline
 70
8
 71
3
 72
8
 73
4
 74
0
 40
0
 40
0
 40
0
 40
0
 40
1
 40
1
 40
1
 40
1
 10
127470328.697203
 20
115633488.592414
 30
0.0
 10
126894271.841907
 20
116393061.189764
 30
0.0
 10
125901694.612622
 20
116706581.771187
 30
0.0
 10
124993843.401763
 20
116415724.056624
 30
0.0
  0
LWPOLYLINE
  5
215
100
AcDbEntity
  8
0
 62
7
100
AcDbPolyline
 90
2
 70
0
 10
158902844.250000
 20
65722497.750000
 30
0.0
 10
188110878.000000
 20
78135909.000000
 30
0.0
  0
LWPOLYLINE
  5
216
100
AcDbEntity
  8
0
 62
7
100
AcDbPolyline
 90
2
 70
0
 10
12001501.500000
 20
117514500.000000
 30
0.0
 10
4381502.250000
 20
88772998.500000
 30
0.0
  0
SPLINE
  5
217
100
AcDbEntity
  8
0
 62
7
100
AcDbSpline
 70
8
 71
3
 72
8
 73
4
 74
0
 40
0
 40
0
 40
0
 40
0
 40
1
 40
1
 40
1
 40
1
 10
155854826.449342
 20
113894991.683638
 30
0.0
 10
155922264.626643
 20
113733719.920927
 30
0.0
 10
156101958.309669
 20
113650943.588058
 30
0.0
 10
156268356.677009
 20
113704497.976791
 30
0.0
  0
LWPOLYLINE
  5
218
100
AcDbEntity
  8
0
 62
7
100
AcDbPolyline
 90
2
 70
0
 10
31684755.750000
 20
120275478.000000
 30
0.0
 10
25437507.000000
 20
114730008.000000
 30
0.0
  0
SPLINE
  5
219
100
AcDbEntity
  8
0
 62
7
100
AcDbSpline
 70
8
 71
3
 72
8
 73
4
 74
0
 40
0
 40
0
 40
0
 40
0
 40
1
 40
1
 40
1
 40
1
 10
131661340.503070
 20
21717037.272869
 30
0.0
 10
131761098.729491
 20
21724900.131404
 30
0.0
 10
131838456.150121
 20
21807440.478317
 30
0.0
 10
131839842.164807
 20
21907498.497717
 30
0.0
  0
LWPOLYLINE
  5
21a
100
AcDbEntity
  8
0
 62
7
100
AcDbPolyline
 90
2
 70
0
 10
140424340.500000
 20
36004498.500000
 30
0.0
 10
153456130.500000
 20
42645469.500000
 30
0.0
  0
LWPOLYLINE
  5
21b
100
AcDbEntity
  8
0
 62
7
100
AcDbPolyline
 90
2
 70
0
 10
50785713.000000
 20
42835968.000000
 30
0.0
 10
63817501.500000
 20
36194998.500000
 30
0.0
  0
SPLINE
  5
21c
100
AcDbEntity
  8
0
 62
7
100
AcDbSpline
 70
8
 71
3
 72
8
 73
4
 74
0
 40
0
 40
0
 40
0
 40
0
 40
1
 40
1
 40
1
 40
1
 10
199627146.220895
 20
88101029.989334
 30
0.0
 10
199821749.216176
 20
88172647.701566
 30
0.0
 10
199924798.638987
 20
88385408.008348
 30
0.0
 10
199860343.526637
 20
88582499.258711
 30
0.0
  0
SPLINE
  5
21d
100
AcDbEntity
  8
0
 62
7
100
AcDbSpline
 70
8
 71
3
 72
8
 73
4
 74
0
 40
0
 40
0
 40
0
 40
0
 40
1
 40
1
 40
1
 40
1
 10
186212614.892592
 20
84528132.057624
 30
0.0
 10
185998447.286767
 20
84456383.449782
 30
0.0
 10
185882711.893232
 20
84224871.571846
 30
0.0
 10
185953844.011392
 20
84010498.420826
 30
0.0
  0
SPLINE
  5
21e
100
AcDbEntity
  8
0
 62
7
100
AcDbSpline
 70
8
 71
3
 72
8
 73
4
 74
0
 40
0
 40
0
 40
0
 40
0
 40
1
 40
1
 40
1
 40
1
 10
79248011.309137
 20
116415763.245542
 30
0.0
 10
78340165.456720
 20
116692954.981550
 30
0.0
 10
77355392.286376
 20
116381891.624760
 30
0.0
 10
76771500.593701
 20
115633500.121943
 30
0.0
  0
LWPOLYLINE
  5
21f
100
AcDbEntity
  8
0
 62
7
100
AcDbPolyline
 90
2
 70
0
 10
4614714.750000
 20
88291579.500000
 30
0.0
 10
18029209.500000
 20
84718579.500000
 30
0.0
  0
SPLINE
  5
220
100
AcDbEntity
  8
0
 62
7
100
AcDbSpline
 70
8
 71
3
 72
8
 73
4
 74
0
 40
0
 40
0
 40
0
 40
0
 40
1
 40
1
 40
1
 40
1
 10
164853259.769135
 20
52197016.429862
 30
0.0
 10
164945821.901884
 20
52229130.301113
 30
0.0
 10
165019937.785387
 20
52299760.752120
 30
0.0
 10
165056469.570604
 20
52390669.925555
 30
0.0
  0
SPLINE
  5
221
100
AcDbEntity
  8
0
 62
7
100
AcDbSpline
 70
8
 71
3
 72
8
 73
4
 74
0
 40
0
 40
0
 40
0
 40
0
 40
1
 40
1
 40
1
 40
1
 10
165056469.570604
 20
52390669.925555
 30
0.0
 10
165093001.355821
 20
52481579.098990
 30
0.0
 10
165088367.753493
 20
52583854.973594
 30
0.0
 10
165043765.230256
 20
52671088.362080
 30
0.0
  0
LWPOLYLINE
  5
222
100
AcDbEntity
  8
0
 62
7
100
AcDbPolyline
 90
2
 70
0
 10
49911000.750000
 20
116942997.750000
 30
0.0
 10
48387002.250000
 20
114085497.750000
 30
0.0
  0
LWPOLYLINE
  5
223
100
AcDbEntity
  8
0
 62
7
100
AcDbPolyline
 90
2
 70
0
 10
186212632.500000
 20
84528079.500000
 30
0.0
 10
199627128.000000
 20
88101079.500000
 30
0.0
  0
SPLINE
  5
224
100
AcDbEntity
  8
0
 62
7
100
AcDbSpline
 70
8
 71
3
 72
8
 73
4
 74
0
 40
0
 40
0
 40
0
 40
0
 40
1
 40
1
 40
1
 40
1
 10
32087952.293408
 20
120335264.849273
 30
0.0
 10
31953407.023760
 20
120395760.636784
 30
0.0
 10
31795956.801727
 20
120372413.524892
 30
0.0
 10
31684755.858451
 20
120275477.875589
 30
0.0
  0
LWPOLYLINE
  5
225
100
AcDbEntity
  8
0
 62
7
100
AcDbPolyline
 90
2
 70
0
 10
155854842.750000
 20
113894998.500000
 30
0.0
 10
154330842.750000
 20
116752498.500000
 30
0.0
  0
SPLINE
  5
226
100
AcDbEntity
  8
0
 62
7
100
AcDbSpline
 70
8
 71
3
 72
8
 73
4
 74
0
 40
0
 40
0
 40
0
 40
0
 40
1
 40
1
 40
1
 40
1
 10
188110887.820229
 20
78135886.916260
 30
0.0
 10
188175101.760359
 20
78164441.662016
 30
0.0
 10
188225034.181610
 20
78217757.554579
 30
0.0
 10
188249323.567102
 20
78283703.209210
 30
0.0
  0
SPLINE
  5
227
100
AcDbEntity
  8
0
 62
7
100
AcDbSpline
 70
8
 71
3
 72
8
 73
4
 74
0
 40
0
 40
0
 40
0
 40
0
 40
1
 40
1
 40
1
 40
1
 10
188249323.567102
 20
78283703.209210
 30
0.0
 10
188273612.952595
 20
78349648.863840
 30
0.0
 10
188270193.473145
 20
78422615.556599
 30
0.0
 10
188239843.189830
 20
78486000.601483
 30
0.0
  0
LWPOLYLINE
  5
228
100
AcDbEntity
  8
0
 62
7
100
AcDbPolyline
 90
2
 70
0
 10
191668842.000000
 20
117704998.500000
 30
0.0
 10
179308521.000000
 20
114406750.500000
 30
0.0
  0
LWPOLYLINE
  5
229
100
AcDbEntity
  8
0
 62
7
100
AcDbPolyline
 90
2
 70
0
 10
72404148.750000
 20
31488703.500000
 30
0.0
 10
72402002.250000
 20
22098000.000000
 30
0.0
  0
LWPOLYLINE
  5
22a
100
AcDbEntity
  8
0
 62
7
100
AcDbPolyline
 90
2
 70
0
 10
188239843.500000
 20
78486000.750000
 30
0.0
 10
185953844.250000
 20
84010498.500000
 30
0.0
  0
LWPOLYLINE
  5
22b
100
AcDbEntity
  8
0
 62
7
100
AcDbPolyline
 90
2
 70
0
 10
132042343.500000
 20
31622997.000000
 30
0.0
 10
140424340.500000
 20
36004498.500000
 30
0.0
  0
SPLINE
  5
22c
100
AcDbEntity
  8
0
 62
7
100
AcDbSpline
 70
8
 71
3
 72
8
 73
4
 74
0
 40
0
 40
0
 40
0
 40
0
 40
1
 40
1
 40
1
 40
1
 10
70104006.177622
 20
107037015.672557
 30
0.0
 10
70373844.665520
 20
106963514.522070
 30
0.0
 10
70662488.574783
 20
107035669.595818
 30
0.0
 10
70865999.966994
 20
107227498.535017
 30
0.0
  0
LWPOLYLINE
  5
22d
100
AcDbEntity
  8
0
 62
7
100
AcDbPolyline
 90
2
 70
0
 10
39388577.250000
 20
52387498.500000
 30
0.0
 10
51816000.750000
 20
46100996.250000
 30
0.0
  0
LWPOLYLINE
  5
22e
100
AcDbEntity
  8
0
 62
7
100
AcDbPolyline
 90
2
 70
0
 10
199860343.500000
 20
88582499.250000
 30
0.0
 10
192240342.750000
 20
117323997.750000
 30
0.0
  0
LWPOLYLINE
  5
22f
100
AcDbEntity
  8
0
 62
7
100
AcDbPolyline
 90
2
 70
0
 10
20077590.750000
 20
97217943.750000
 30
0.0
 10
9935370.000000
 20
99935544.000000
 30
0.0
  0
LWPOLYLINE
  5
230
100
AcDbEntity
  8
0
 62
7
100
AcDbPolyline
 90
2
 70
0
 10
17359990.500000
 20
87075723.000000
 30
0.0
 10
20077590.750000
 20
97217943.750000
 30
0.0
  0
LWPOLYLINE
  5
231
100
AcDbEntity
  8
0
 62
7
100
AcDbPolyline
 90
2
 70
0
 10
7217769.750000
 20
89793323.250000
 30
0.0
 10
17359990.500000
 20
87075723.000000
 30
0.0
  0
LWPOLYLINE
  5
232
100
AcDbEntity
  8
0
 62
7
100
AcDbPolyline
 90
2
 70
0
 10
9935370.000000
 20
99935544.000000
 30
0.0
 10
7217769.750000
 20
89793323.250000
 30
0.0
  0
LWPOLYLINE
  5
233
100
AcDbEntity
  8
0
 62
7
100
AcDbPolyline
 90
2
 70
0
 10
152285179.500000
 20
48811332.000000
 30
0.0
 10
161640747.750000
 20
53578232.250000
 30
0.0
  0
LWPOLYLINE
  5
234
100
AcDbEntity
  8
0
 62
7
100
AcDbPolyline
 90
3
 70
0
 10
156873847.500000
 20
62933800.500000
 30
0.0
 10
147518279.250000
 20
58166900.250000
 30
0.0
 10
152285179.500000
 20
48811332.000000
 30
0.0
  0
LWPOLYLINE
  5
235
100
AcDbEntity
  8
0
 62
7
100
AcDbPolyline
 90
2
 70
0
 10
161640747.750000
 20
53578232.250000
 30
0.0
 10
156873847.500000
 20
62933800.500000
 30
0.0
  0
LWPOLYLINE
  5
236
100
AcDbEntity
  8
0
 62
7
100
AcDbPolyline
 90
4
 70
1
 10
189680235.750000
 20
113700631.500000
 30
0.0
 10
179538015.000000
 20
110983031.250000
 30
0.0
 10
182255615.250000
 20
100840810.500000
 30
0.0
 10
192397836.000000
 20
103558410.750000
 30
0.0
  0
LWPOLYLINE
  5
237
100
AcDbEntity
  8
0
 62
7
100
AcDbPolyline
 90
2
 70
0
 10
136063778.250000
 20
48523326.000000
 30
0.0
 10
140830678.500000
 20
39167757.750000
 30
0.0
  0
LWPOLYLINE
  5
238
100
AcDbEntity
  8
0
 62
7
100
AcDbPolyline
 90
3
 70
0
 10
150186246.750000
 20
43934658.000000
 30
0.0
 10
145419346.500000
 20
53290226.250000
 30
0.0
 10
136063778.250000
 20
48523326.000000
 30
0.0
  0
LWPOLYLINE
  5
239
100
AcDbEntity
  8
0
 62
7
100
AcDbPolyline
 90
2
 70
0
 10
140830678.500000
 20
39167757.750000
 30
0.0
 10
150186246.750000
 20
43934658.000000
 30
0.0
  0
LWPOLYLINE
  5
23a
100
AcDbEntity
  8
0
 62
7
100
AcDbPolyline
 90
3
 70
0
 10
142249180.500000
 20
76327124.250000
 30
0.0
 10
151604748.750000
 20
81094024.500000
 30
0.0
 10
146837848.500000
 20
90449592.750000
 30
0.0
  0
LWPOLYLINE
  5
23b
100
AcDbEntity
  8
0
 62
7
100
AcDbPolyline
 90
2
 70
0
 10
137482280.250000
 20
85682692.500000
 30
0.0
 10
142249180.500000
 20
76327124.250000
 30
0.0
  0
LWPOLYLINE
  5
23c
100
AcDbEntity
  8
0
 62
7
100
AcDbPolyline
 90
2
 70
0
 10
146837848.500000
 20
90449592.750000
 30
0.0
 10
137482280.250000
 20
85682692.500000
 30
0.0
  0
LWPOLYLINE
  5
23d
100
AcDbEntity
  8
0
 62
7
100
AcDbPolyline
 90
4
 70
1
 10
60944435.250000
 20
107822622.750000
 30
0.0
 10
51588867.000000
 20
112589523.000000
 30
0.0
 10
46821966.750000
 20
103233954.750000
 30
0.0
 10
56177535.000000
 20
98467054.500000
 30
0.0
  0
LWPOLYLINE
  5
23e
100
AcDbEntity
  8
0
 62
7
100
AcDbPolyline
 90
3
 70
0
 10
58333055.250000
 20
93735488.250000
 30
0.0
 10
67688623.500000
 20
88968588.000000
 30
0.0
 10
72455523.750000
 20
98324156.250000
 30
0.0
  0
LWPOLYLINE
  5
23f
100
AcDbEntity
  8
0
 62
7
100
AcDbPolyline
 90
2
 70
0
 10
63099955.500000
 20
103091056.500000
 30
0.0
 10
58333055.250000
 20
93735488.250000
 30
0.0
  0
LWPOLYLINE
  5
240
100
AcDbEntity
  8
0
 62
7
100
AcDbPolyline
 90
2
 70
0
 10
72455523.750000
 20
98324156.250000
 30
0.0
 10
63099955.500000
 20
103091056.500000
 30
0.0
  0
LWPOLYLINE
  5
241
100
AcDbEntity
  8
0
 62
7
100
AcDbPolyline
 90
2
 70
0
 10
104095191.000000
 20
22335518.250000
 30
0.0
 10
114595191.000000
 20
22335518.250000
 30
0.0
  0
LWPOLYLINE
  5
242
100
AcDbEntity
  8
0
 62
7
100
AcDbPolyline
 90
3
 70
0
 10
114595191.000000
 20
32835518.250000
 30
0.0
 10
104095191.000000
 20
32835518.250000
 30
0.0
 10
104095191.000000
 20
22335518.250000
 30
0.0
  0
LWPOLYLINE
  5
243
100
AcDbEntity
  8
0
 62
7
100
AcDbPolyline
 90
2
 70
0
 10
114595191.000000
 20
22335518.250000
 30
0.0
 10
114595191.000000
 20
32835518.250000
 30
0.0
  0
LWPOLYLINE
  5
244
100
AcDbEntity
  8
0
 62
7
100
AcDbPolyline
 90
2
 70
0
 10
118573192.500000
 20
23669017.500000
 30
0.0
 10
129073192.500000
 20
23669017.500000
 30
0.0
  0
LWPOLYLINE
  5
245
100
AcDbEntity
  8
0
 62
7
100
AcDbPolyline
 90
3
 70
0
 10
129073192.500000
 20
34169017.500000
 30
0.0
 10
118573192.500000
 20
34169017.500000
 30
0.0
 10
118573192.500000
 20
23669017.500000
 30
0.0
  0
LWPOLYLINE
  5
246
100
AcDbEntity
  8
0
 62
7
100
AcDbPolyline
 90
2
 70
0
 10
129073192.500000
 20
23669017.500000
 30
0.0
 10
129073192.500000
 20
34169017.500000
 30
0.0
  0
LWPOLYLINE
  5
247
100
AcDbEntity
  8
0
 62
7
100
AcDbPolyline
 90
3
 70
0
 10
165590247.750000
 20
98528809.500000
 30
0.0
 10
169523616.750000
 20
88793379.000000
 30
0.0
 10
179259047.250000
 20
92726748.000000
 30
0.0
  0
LWPOLYLINE
  5
248
100
AcDbEntity
  8
0
 62
7
100
AcDbPolyline
 90
2
 70
0
 10
175325678.250000
 20
102462178.500000
 30
0.0
 10
165590247.750000
 20
98528809.500000
 30
0.0
  0
LWPOLYLINE
  5
249
100
AcDbEntity
  8
0
 62
7
100
AcDbPolyline
 90
2
 70
0
 10
179259047.250000
 20
92726748.000000
 30
0.0
 10
175325678.250000
 20
102462178.500000
 30
0.0
  0
LWPOLYLINE
  5
24a
100
AcDbEntity
  8
0
 62
7
100
AcDbPolyline
 90
2
 70
0
 10
53282194.500000
 20
43879276.500000
 30
0.0
 10
62637762.750000
 20
39112376.250000
 30
0.0
  0
LWPOLYLINE
  5
24b
100
AcDbEntity
  8
0
 62
7
100
AcDbPolyline
 90
2
 70
0
 10
58049094.750000
 20
53234844.750000
 30
0.0
 10
53282194.500000
 20
43879276.500000
 30
0.0
  0
LWPOLYLINE
  5
24c
100
AcDbEntity
  8
0
 62
7
100
AcDbPolyline
 90
3
 70
0
 10
62637762.750000
 20
39112376.250000
 30
0.0
 10
67404663.000000
 20
48467944.500000
 30
0.0
 10
58049094.750000
 20
53234844.750000
 30
0.0
  0
LWPOLYLINE
  5
24d
100
AcDbEntity
  8
0
 62
7
100
AcDbPolyline
 90
4
 70
1
 10
151721352.750000
 20
112585584.000000
 30
0.0
 10
142365784.500000
 20
107818683.750000
 30
0.0
 10
147132684.750000
 20
98463115.500000
 30
0.0
 10
156488253.000000
 20
103230015.750000
 30
0.0
  0
LWPOLYLINE
  5
24e
100
AcDbEntity
  8
0
 62
7
100
AcDbPolyline
 90
4
 70
1
 10
49708173.000000
 20
85770211.500000
 30
0.0
 10
54475073.250000
 20
95125779.750000
 30
0.0
 10
45119505.000000
 20
99892680.000000
 30
0.0
 10
40352604.750000
 20
90537111.750000
 30
0.0
  0
LWPOLYLINE
  5
24f
100
AcDbEntity
  8
0
 62
7
100
AcDbPolyline
 90
3
 70
0
 10
45394326.000000
 20
68341800.750000
 30
0.0
 10
54749894.250000
 20
63574900.500000
 30
0.0
 10
59516794.500000
 20
72930468.750000
 30
0.0
  0
LWPOLYLINE
  5
250
100
AcDbEntity
  8
0
 62
7
100
AcDbPolyline
 90
2
 70
0
 10
50161226.250000
 20
77697369.000000
 30
0.0
 10
45394326.000000
 20
68341800.750000
 30
0.0
  0
LWPOLYLINE
  5
251
100
AcDbEntity
  8
0
 62
7
100
AcDbPolyline
 90
2
 70
0
 10
59516794.500000
 20
72930468.750000
 30
0.0
 10
50161226.250000
 20
77697369.000000
 30
0.0
  0
LWPOLYLINE
  5
252
100
AcDbEntity
  8
0
 62
7
100
AcDbPolyline
 90
2
 70
0
 10
196092504.000000
 20
89788374.750000
 30
0.0
 10
193374903.750000
 20
99930595.500000
 30
0.0
  0
LWPOLYLINE
  5
253
100
AcDbEntity
  8
0
 62
7
100
AcDbPolyline
 90
2
 70
0
 10
185950283.250000
 20
87070774.500000
 30
0.0
 10
196092504.000000
 20
89788374.750000
 30
0.0
  0
LWPOLYLINE
  5
254
100
AcDbEntity
  8
0
 62
7
100
AcDbPolyline
 90
3
 70
0
 10
193374903.750000
 20
99930595.500000
 30
0.0
 10
183232683.000000
 20
97212995.250000
 30
0.0
 10
185950283.250000
 20
87070774.500000
 30
0.0
  0
LWPOLYLINE
  5
255
100
AcDbEntity
  8
0
 62
7
100
AcDbPolyline
 90
2
 70
0
 10
155304512.250000
 20
82424998.500000
 30
0.0
 10
160071412.500000
 20
73069430.250000
 30
0.0
  0
LWPOLYLINE
  5
256
100
AcDbEntity
  8
0
 62
7
100
AcDbPolyline
 90
2
 70
0
 10
164660080.500000
 20
87191898.750000
 30
0.0
 10
155304512.250000
 20
82424998.500000
 30
0.0
  0
LWPOLYLINE
  5
257
100
AcDbEntity
  8
0
 62
7
100
AcDbPolyline
 90
2
 70
0
 10
169426980.750000
 20
77836330.500000
 30
0.0
 10
164660080.500000
 20
87191898.750000
 30
0.0
  0
LWPOLYLINE
  5
258
100
AcDbEntity
  8
0
 62
7
100
AcDbPolyline
 90
2
 70
0
 10
160071412.500000
 20
73069430.250000
 30
0.0
 10
169426980.750000
 20
77836330.500000
 30
0.0
  0
LWPOLYLINE
  5
259
100
AcDbEntity
  8
0
 62
7
100
AcDbPolyline
 90
2
 70
0
 10
32381958.750000
 20
85320665.250000
 30
0.0
 10
22646528.250000
 20
89254034.250000
 30
0.0
  0
LWPOLYLINE
  5
25a
100
AcDbEntity
  8
0
 62
7
100
AcDbPolyline
 90
2
 70
0
 10
28448589.750000
 20
75585234.750000
 30
0.0
 10
32381958.750000
 20
85320665.250000
 30
0.0
  0
LWPOLYLINE
  5
25b
100
AcDbEntity
  8
0
 62
7
100
AcDbPolyline
 90
3
 70
0
 10
22646528.250000
 20
89254034.250000
 30
0.0
 10
18713159.250000
 20
79518603.750000
 30
0.0
 10
28448589.750000
 20
75585234.750000
 30
0.0
  0
LWPOLYLINE
  5
25c
100
AcDbEntity
  8
0
 62
7
100
AcDbPolyline
 90
2
 70
0
 10
85641001.500000
 20
23925516.750000
 30
0.0
 10
85641001.500000
 20
34425516.750000
 30
0.0
  0
LWPOLYLINE
  5
25d
100
AcDbEntity
  8
0
 62
7
100
AcDbPolyline
 90
3
 70
0
 10
75141001.500000
 20
34425516.750000
 30
0.0
 10
75141001.500000
 20
23925516.750000
 30
0.0
 10
85641001.500000
 20
23925516.750000
 30
0.0
  0
LWPOLYLINE
  5
25e
100
AcDbEntity
  8
0
 62
7
100
AcDbPolyline
 90
2
 70
0
 10
85641001.500000
 20
34425516.750000
 30
0.0
 10
75141001.500000
 20
34425516.750000
 30
0.0
  0
LWPOLYLINE
  5
25f
100
AcDbEntity
  8
0
 62
7
100
AcDbPolyline
 90
4
 70
1
 10
29389446.000000
 20
105943343.250000
 30
0.0
 10
39124876.500000
 20
102009974.250000
 30
0.0
 10
43058245.500000
 20
111745404.750000
 30
0.0
 10
33322815.000000
 20
115678773.750000
 30
0.0
  0
LWPOLYLINE
  5
260
100
AcDbEntity
  8
0
 62
7
100
AcDbPolyline
 90
2
 70
0
 10
51183260.250000
 20
48755953.500000
 30
0.0
 10
55950160.500000
 20
58111521.750000
 30
0.0
  0
LWPOLYLINE
  5
261
100
AcDbEntity
  8
0
 62
7
100
AcDbPolyline
 90
2
 70
0
 10
41827692.000000
 20
53522853.750000
 30
0.0
 10
51183260.250000
 20
48755953.500000
 30
0.0
  0
LWPOLYLINE
  5
262
100
AcDbEntity
  8
0
 62
7
100
AcDbPolyline
 90
2
 70
0
 10
46594592.250000
 20
62878422.000000
 30
0.0
 10
41827692.000000
 20
53522853.750000
 30
0.0
  0
LWPOLYLINE
  5
263
100
AcDbEntity
  8
0
 62
7
100
AcDbPolyline
 90
2
 70
0
 10
55950160.500000
 20
58111521.750000
 30
0.0
 10
46594592.250000
 20
62878422.000000
 30
0.0
  0
LWPOLYLINE
  5
264
100
AcDbEntity
  8
0
 62
7
100
AcDbPolyline
 90
3
 70
0
 10
136824148.500000
 20
78361323.750000
 30
0.0
 10
127468580.250000
 20
73594423.500000
 30
0.0
 10
132235480.500000
 20
64238855.250000
 30
0.0
  0
LWPOLYLINE
  5
265
100
AcDbEntity
  8
0
 62
7
100
AcDbPolyline
 90
2
 70
0
 10
141591048.750000
 20
69005755.500000
 30
0.0
 10
136824148.500000
 20
78361323.750000
 30
0.0
  0
LWPOLYLINE
  5
266
100
AcDbEntity
  8
0
 62
7
100
AcDbPolyline
 90
2
 70
0
 10
132235480.500000
 20
64238855.250000
 30
0.0
 10
141591048.750000
 20
69005755.500000
 30
0.0
  0
LWPOLYLINE
  5
267
100
AcDbEntity
  8
0
 62
7
100
AcDbPolyline
 90
2
 70
0
 10
23760129.000000
 20
110995737.000000
 30
0.0
 10
13617908.250000
 20
113713337.250000
 30
0.0
  0
LWPOLYLINE
  5
268
100
AcDbEntity
  8
0
 62
7
100
AcDbPolyline
 90
2
 70
0
 10
21042528.750000
 20
100853516.250000
 30
0.0
 10
23760129.000000
 20
110995737.000000
 30
0.0
  0
LWPOLYLINE
  5
269
100
AcDbEntity
  8
0
 62
7
100
AcDbPolyline
 90
3
 70
0
 10
13617908.250000
 20
113713337.250000
 30
0.0
 10
10900308.000000
 20
103571116.500000
 30
0.0
 10
21042528.750000
 20
100853516.250000
 30
0.0
  0
LWPOLYLINE
  5
26a
100
AcDbEntity
  8
0
 62
7
100
AcDbPolyline
 90
4
 70
1
 10
33883238.250000
 20
77840268.000000
 30
0.0
 10
43238806.500000
 20
73073367.750000
 30
0.0
 10
48005706.750000
 20
82428936.000000
 30
0.0
 10
38650138.500000
 20
87195836.250000
 30
0.0
  0
LWPOLYLINE
  5
26b
100
AcDbEntity
  8
0
 62
7
100
AcDbPolyline
 90
2
 70
0
 10
169987535.250000
 20
115674546.750000
 30
0.0
 10
160252104.750000
 20
111741177.750000
 30
0.0
  0
LWPOLYLINE
  5
26c
100
AcDbEntity
  8
0
 62
7
100
AcDbPolyline
 90
3
 70
0
 10
164185473.750000
 20
102005747.250000
 30
0.0
 10
173920904.250000
 20
105939116.250000
 30
0.0
 10
169987535.250000
 20
115674546.750000
 30
0.0
  0
LWPOLYLINE
  5
26d
100
AcDbEntity
  8
0
 62
7
100
AcDbPolyline
 90
2
 70
0
 10
160252104.750000
 20
111741177.750000
 30
0.0
 10
164185473.750000
 20
102005747.250000
 30
0.0
  0
LWPOLYLINE
  5
26e
100
AcDbEntity
  8
0
 62
7
100
AcDbPolyline
 90
2
 70
0
 10
61219257.000000
 20
76271744.250000
 30
0.0
 10
65986157.250000
 20
85627312.500000
 30
0.0
  0
LWPOLYLINE
  5
26f
100
AcDbEntity
  8
0
 62
7
100
AcDbPolyline
 90
2
 70
0
 10
56630589.000000
 20
90394212.750000
 30
0.0
 10
51863688.750000
 20
81038644.500000
 30
0.0
  0
LWPOLYLINE
  5
270
100
AcDbEntity
  8
0
 62
7
100
AcDbPolyline
 90
2
 70
0
 10
65986157.250000
 20
85627312.500000
 30
0.0
 10
56630589.000000
 20
90394212.750000
 30
0.0
  0
LWPOLYLINE
  5
271
100
AcDbEntity
  8
0
 62
7
100
AcDbPolyline
 90
2
 70
0
 10
51863688.750000
 20
81038644.500000
 30
0.0
 10
61219257.000000
 20
76271744.250000
 30
0.0
  0
LWPOLYLINE
  5
272
100
AcDbEntity
  8
0
 62
7
100
AcDbPolyline
 90
3
 70
0
 10
77702323.500000
 20
76880317.500000
 30
0.0
 10
82469223.750000
 20
86235885.750000
 30
0.0
 10
73113655.500000
 20
91002786.000000
 30
0.0
  0
LWPOLYLINE
  5
273
100
AcDbEntity
  8
0
 62
7
100
AcDbPolyline
 90
2
 70
0
 10
68346755.250000
 20
81647217.750000
 30
0.0
 10
77702323.500000
 20
76880317.500000
 30
0.0
  0
LWPOLYLINE
  5
274
100
AcDbEntity
  8
0
 62
7
100
AcDbPolyline
 90
2
 70
0
 10
73113655.500000
 20
91002786.000000
 30
0.0
 10
68346755.250000
 20
81647217.750000
 30
0.0
  0
LWPOLYLINE
  5
275
100
AcDbEntity
  8
0
 62
7
100
AcDbPolyline
 90
2
 70
0
 10
120999216.750000
 20
86291267.250000
 30
0.0
 10
125766117.000000
 20
76935699.000000
 30
0.0
  0
LWPOLYLINE
  5
276
100
AcDbEntity
  8
0
 62
7
100
AcDbPolyline
 90
2
 70
0
 10
135121685.250000
 20
81702599.250000
 30
0.0
 10
130354785.000000
 20
91058167.500000
 30
0.0
  0
LWPOLYLINE
  5
277
100
AcDbEntity
  8
0
 62
7
100
AcDbPolyline
 90
2
 70
0
 10
125766117.000000
 20
76935699.000000
 30
0.0
 10
135121685.250000
 20
81702599.250000
 30
0.0
  0
LWPOLYLINE
  5
278
100
AcDbEntity
  8
0
 62
7
100
AcDbPolyline
 90
2
 70
0
 10
130354785.000000
 20
91058167.500000
 30
0.0
 10
120999216.750000
 20
86291267.250000
 30
0.0
  0
LWPOLYLINE
  5
279
100
AcDbEntity
  8
0
 62
7
100
AcDbPolyline
 90
2
 70
0
 10
131012919.000000
 20
98379536.250000
 30
0.0
 10
135779819.250000
 20
89023968.000000
 30
0.0
  0
LWPOLYLINE
  5
27a
100
AcDbEntity
  8
0
 62
7
100
AcDbPolyline
 90
2
 70
0
 10
140368487.250000
 20
103146436.500000
 30
0.0
 10
131012919.000000
 20
98379536.250000
 30
0.0
  0
LWPOLYLINE
  5
27b
100
AcDbEntity
  8
0
 62
7
100
AcDbPolyline
 90
2
 70
0
 10
145135387.500000
 20
93790868.250000
 30
0.0
 10
140368487.250000
 20
103146436.500000
 30
0.0
  0
LWPOLYLINE
  5
27c
100
AcDbEntity
  8
0
 62
7
100
AcDbPolyline
 90
2
 70
0
 10
135779819.250000
 20
89023968.000000
 30
0.0
 10
145135387.500000
 20
93790868.250000
 30
0.0
  0
LWPOLYLINE
  5
27d
100
AcDbEntity
  8
0
 62
7
100
AcDbPolyline
 90
2
 70
0
 10
100101000.000000
 20
22337998.500000
 30
0.0
 10
100101000.000000
 20
32837998.500000
 30
0.0
  0
LWPOLYLINE
  5
27e
100
AcDbEntity
  8
0
 62
7
100
AcDbPolyline
 90
2
 70
0
 10
89601000.000000
 20
32837998.500000
 30
0.0
 10
89601000.000000
 20
22337998.500000
 30
0.0
  0
LWPOLYLINE
  5
27f
100
AcDbEntity
  8
0
 62
7
100
AcDbPolyline
 90
2
 70
0
 10
100101000.000000
 20
32837998.500000
 30
0.0
 10
89601000.000000
 20
32837998.500000
 30
0.0
  0
LWPOLYLINE
  5
280
100
AcDbEntity
  8
0
 62
7
100
AcDbPolyline
 90
2
 70
0
 10
89601000.000000
 20
22337998.500000
 30
0.0
 10
100101000.000000
 20
22337998.500000
 30
0.0
  0
LWPOLYLINE
  5
281
100
AcDbEntity
  8
0
 62
7
100
AcDbPolyline
 90
3
 70
0
 10
153602049.750000
 20
85766271.000000
 30
0.0
 10
162957618.000000
 20
90533171.250000
 30
0.0
 10
158190717.750000
 20
99888739.500000
 30
0.0
  0
LWPOLYLINE
  5
282
100
AcDbEntity
  8
0
 62
7
100
AcDbPolyline
 90
2
 70
0
 10
148835149.500000
 20
95121839.250000
 30
0.0
 10
153602049.750000
 20
85766271.000000
 30
0.0
  0
LWPOLYLINE
  5
283
100
AcDbEntity
  8
0
 62
7
100
AcDbPolyline
 90
2
 70
0
 10
158190717.750000
 20
99888739.500000
 30
0.0
 10
148835149.500000
 20
95121839.250000
 30
0.0
  0
LWPOLYLINE
  5
284
100
AcDbEntity
  8
0
 62
7
100
AcDbPolyline
 90
2
 70
0
 10
180663822.000000
 20
89249807.250000
 30
0.0
 10
170928391.500000
 20
85316438.250000
 30
0.0
  0
LWPOLYLINE
  5
285
100
AcDbEntity
  8
0
 62
7
100
AcDbPolyline
 90
2
 70
0
 10
184597191.000000
 20
79514376.750000
 30
0.0
 10
180663822.000000
 20
89249807.250000
 30
0.0
  0
LWPOLYLINE
  5
286
100
AcDbEntity
  8
0
 62
7
100
AcDbPolyline
 90
2
 70
0
 10
174861760.500000
 20
75581007.750000
 30
0.0
 10
184597191.000000
 20
79514376.750000
 30
0.0
  0
LWPOLYLINE
  5
287
100
AcDbEntity
  8
0
 62
7
100
AcDbPolyline
 90
2
 70
0
 10
170928391.500000
 20
85316438.250000
 30
0.0
 10
174861760.500000
 20
75581007.750000
 30
0.0
  0
LWPOLYLINE
  5
288
100
AcDbEntity
  8
0
 62
7
100
AcDbPolyline
 90
2
 70
0
 10
27984888.750000
 20
102466098.000000
 30
0.0
 10
24051519.750000
 20
92730667.500000
 30
0.0
  0
LWPOLYLINE
  5
289
100
AcDbEntity
  8
0
 62
7
100
AcDbPolyline
 90
2
 70
0
 10
33786950.250000
 20
88797298.500000
 30
0.0
 10
37720319.250000
 20
98532729.000000
 30
0.0
  0
LWPOLYLINE
  5
28a
100
AcDbEntity
  8
0
 62
7
100
AcDbPolyline
 90
2
 70
0
 10
24051519.750000
 20
92730667.500000
 30
0.0
 10
33786950.250000
 20
88797298.500000
 30
0.0
  0
LWPOLYLINE
  5
28b
100
AcDbEntity
  8
0
 62
7
100
AcDbPolyline
 90
2
 70
0
 10
37720319.250000
 20
98532729.000000
 30
0.0
 10
27984888.750000
 20
102466098.000000
 30
0.0
  0
LWPOLYLINE
  5
28c
100
AcDbEntity
  8
0
 62
7
100
AcDbPolyline
 90
2
 70
0
 10
143951645.250000
 20
72985848.000000
 30
0.0
 10
148718545.500000
 20
63630279.750000
 30
0.0
  0
LWPOLYLINE
  5
28d
100
AcDbEntity
  8
0
 62
7
100
AcDbPolyline
 90
2
 70
0
 10
153307213.500000
 20
77752748.250000
 30
0.0
 10
143951645.250000
 20
72985848.000000
 30
0.0
  0
LWPOLYLINE
  5
28e
100
AcDbEntity
  8
0
 62
7
100
AcDbPolyline
 90
3
 70
0
 10
148718545.500000
 20
63630279.750000
 30
0.0
 10
158074113.750000
 20
68397180.000000
 30
0.0
 10
153307213.500000
 20
77752748.250000
 30
0.0
  0
LWPOLYLINE
  5
28f
100
AcDbEntity
  8
0
 62
7
100
AcDbPolyline
 90
2
 70
0
 10
66644289.750000
 20
78305944.500000
 30
0.0
 10
61877389.500000
 20
68950376.250000
 30
0.0
  0
LWPOLYLINE
  5
290
100
AcDbEntity
  8
0
 62
7
100
AcDbPolyline
 90
2
 70
0
 10
75999858.000000
 20
73539044.250000
 30
0.0
 10
66644289.750000
 20
78305944.500000
 30
0.0
  0
LWPOLYLINE
  5
291
100
AcDbEntity
  8
0
 62
7
100
AcDbPolyline
 90
2
 70
0
 10
71232957.750000
 20
64183476.000000
 30
0.0
 10
75999858.000000
 20
73539044.250000
 30
0.0
  0
LWPOLYLINE
  5
292
100
AcDbEntity
  8
0
 62
7
100
AcDbPolyline
 90
2
 70
0
 10
61877389.500000
 20
68950376.250000
 30
0.0
 10
71232957.750000
 20
64183476.000000
 30
0.0
  0
ENDSEC
  0
SECTION
  2
OBJECTS
  0
DICTIONARY
  5
C
330
0
100
AcDbDictionary
  3
ACAD_GROUP
350
D
  3
ACAD_MLINESTYLE
350
17
  0
DICTIONARY
  5
D
330
C
100
AcDbDictionary
  0
DICTIONARY
  5
1A
330
C
100
AcDbDictionary
  0
DICTIONARY
  5
17
330
C
100
AcDbDictionary
  3
STANDARD
350
18
  0
DICTIONARY
  5
19
330
C
100
AcDbDictionary
  0
ENDSEC
  0
EOF
