  0
SECTION
  2
HEADER
  9
$ACADVER
  1
AC1014
  9
$HANDSEED
  5
FFFF
  9
$MEASUREMENT
 70
     1
  0
ENDSEC
  0
SECTION
  2
TABLES
  0
TABLE
  2
VPORT
  5
8
330
0
100
AcDbSymbolTable
 70
     4
  0
VPORT
  5
2E
330
8
100
AcDbSymbolTableRecord
100
AcDbViewportTableRecord
  2
*ACTIVE
 70
     0
 10
0.0
 20
0.0
 11
1.0
 21
1.0
 12
210.0
 22
148.5
 13
0.0
 23
0.0
 14
10.0
 24
10.0
 15
10.0
 25
10.0
 16
0.0
 26
0.0
 36
1.0
 17
0.0
 27
0.0
 37
0.0
 40
341.0
 41
1.24
 42
50.0
 43
0.0
 44
0.0
 50
0.0
 51
0.0
 71
     0
 72
   100
 73
     1
 74
     3
 75
     0
 76
     0
 77
     0
 78
     0
  0
ENDTAB
  0
TABLE
  2
LTYPE
  5
5
330
0
100
AcDbSymbolTable
 70
     1
  0
LTYPE
  5
14
330
5
100
AcDbSymbolTableRecord
100
AcDbLinetypeTableRecord
  2
BYBLOCK
 70
     0
  3

 72
    65
 73
     0
 40
0.0
  0
LTYPE
  5
15
330
5
100
AcDbSymbolTableRecord
100
AcDbLinetypeTableRecord
  2
BYLAYER
 70
     0
  3

 72
    65
 73
     0
 40
0.0
  0
LTYPE
  5
16
330
5
100
AcDbSymbolTableRecord
100
AcDbLinetypeTableRecord
  2
CONTINUOUS
 70
     0
  3
Solid line
 72
    65
 73
     0
 40
0.0
  0
ENDTAB
  0
TABLE
  2
LAYER
  5
2
100
AcDbSymbolTable
 70
1
  0
LAYER
  5
50
100
AcDbSymbolTableRecord
100
AcDbLayerTableRecord
  2
0
 70
0
  6
CONTINUOUS
  0
ENDTAB
  0
TABLE
  2
STYLE
  5
3
330
0
100
AcDbSymbolTable
 70
     1
  0
STYLE
  5
11
330
3
100
AcDbSymbolTableRecord
100
AcDbTextStyleTableRecord
  2
STANDARD
 70
     0
 40
0.0
 41
1.0
 50
0.0
 71
     0
 42
2.5
  3
txt
  4

  0
ENDTAB
  0
TABLE
  2
VIEW
  5
6
330
0
100
AcDbSymbolTable
 70
     0
  0
ENDTAB
  0
TABLE
  2
UCS
  5
7
330
0
100
AcDbSymbolTable
 70
     0
  0
ENDTAB
  0
TABLE
  2
APPID
  5
9
330
0
100
AcDbSymbolTable
 70
     2
  0
APPID
  5
12
330
9
100
AcDbSymbolTableRecord
100
AcDbRegAppTableRecord
  2
ACAD
 70
     0
  0
ENDTAB
  0
TABLE
  2
DIMSTYLE
  5
A
330
0
100
AcDbSymbolTable
 70
     1
  0
DIMSTYLE
105
27
330
A
100
AcDbSymbolTableRecord
100
AcDbDimStyleTableRecord
  2
ISO-25
 70
     0
  3

  4

  5

  6

  7

 40
1.0
 41
2.5
 42
0.625
 43
3.75
 44
1.25
 45
0.0
 46
0.0
 47
0.0
 48
0.0
140
2.5
141
2.5
142
0.0
143
0.03937007874016
144
1.0
145
0.0
146
1.0
147
0.625
 71
     0
 72
     0
 73
     0
 74
     0
 75
     0
 76
     0
 77
     1
 78
     8
170
     0
171
     3
172
     1
173
     0
174
     0
175
     0
176
     0
177
     0
178
     0
270
     2
271
     2
272
     2
273
     2
274
     3
340
11
275
     0
280
     0
281
     0
282
     0
283
     0
284
     8
285
     0
286
     0
287
     3
288
     0
  0
ENDTAB
  0
TABLE
  2
BLOCK_RECORD
  5
1
330
0
100
AcDbSymbolTable
 70
     1
  0
BLOCK_RECORD
  5
1F
330
1
100
AcDbSymbolTableRecord
100
AcDbBlockTableRecord
  2
*MODEL_SPACE
  0
BLOCK_RECORD
  5
1B
330
1
100
AcDbSymbolTableRecord
100
AcDbBlockTableRecord
  2
*PAPER_SPACE
  0
ENDTAB
  0
ENDSEC
  0
SECTION
  2
BLOCKS
  0
BLOCK
  5
20
330
1F
100
AcDbEntity
  8
0
100
AcDbBlockBegin
  2
*MODEL_SPACE
 70
     0
 10
0.0
 20
0.0
 30
0.0
  3
*MODEL_SPACE
  1

  0
ENDBLK
  5
21
330
1F
100
AcDbEntity
  8
0
100
AcDbBlockEnd
  0
BLOCK
  5
1C
330
1B
100
AcDbEntity
 67
     1
  8
0
100
AcDbBlockBegin
  2
*PAPER_SPACE
  1

  0
ENDBLK
  5
1D
330
1B
100
AcDbEntity
 67
     1
  8
0
100
AcDbBlockEnd
  0
ENDSEC
  0
SECTION
  2
ENTITIES
  0
SPLINE
  5
100
100
AcDbEntity
  8
0
 62
7
100
AcDbSpline
 70
8
 71
3
 72
8
 73
4
 74
0
 40
0
 40
0
 40
0
 40
0
 40
1
 40
1
 40
1
 40
1
 10
35876442.460417
 20
31767991.402083
 30
0.0
 10
32773037.361178
 20
31767991.402083
 30
0.0
 10
29975213.512815
 20
29898545.273946
 30
0.0
 10
28787591.797419
 20
27031372.821668
 30
0.0
  0
SPLINE
  5
101
100
AcDbEntity
  8
0
 62
7
100
AcDbSpline
 70
8
 71
3
 72
8
 73
4
 74
0
 40
0
 40
0
 40
0
 40
0
 40
1
 40
1
 40
1
 40
1
 10
28787591.797419
 20
27031372.821668
 30
0.0
 10
27599970.082023
 20
24164200.369390
 30
0.0
 10
28256432.263497
 20
20863942.119378
 30
0.0
 10
30450871.053937
 20
18669503.328937
 30
0.0
  0
SPLINE
  5
102
100
AcDbEntity
  8
0
 62
7
100
AcDbSpline
 70
8
 71
3
 72
8
 73
4
 74
0
 40
0
 40
0
 40
0
 40
0
 40
1
 40
1
 40
1
 40
1
 10
30450871.053937
 20
18669503.328937
 30
0.0
 10
32645309.844378
 20
16475064.538497
 30
0.0
 10
35945568.094390
 20
15818602.357023
 30
0.0
 10
38812740.546668
 20
17006224.072419
 30
0.0
  0
SPLINE
  5
103
100
AcDbEntity
  8
0
 62
7
100
AcDbSpline
 70
8
 71
3
 72
8
 73
4
 74
0
 40
0
 40
0
 40
0
 40
0
 40
1
 40
1
 40
1
 40
1
 10
38812740.546668
 20
17006224.072419
 30
0.0
 10
41679912.998946
 20
18193845.787814
 30
0.0
 10
43549359.127083
 20
20991669.636178
 30
0.0
 10
43549359.127083
 20
24095074.735417
 30
0.0
  0
SPLINE
  5
104
100
AcDbEntity
  8
0
 62
7
100
AcDbSpline
 70
8
 71
3
 72
8
 73
4
 74
0
 40
0
 40
0
 40
0
 40
0
 40
1
 40
1
 40
1
 40
1
 10
43549359.127083
 20
24095074.735417
 30
0.0
 10
43549359.127083
 20
26130058.760581
 30
0.0
 10
42740964.870696
 20
28081695.138096
 30
0.0
 10
41302013.866896
 20
29520646.141896
 30
0.0
  0
SPLINE
  5
105
100
AcDbEntity
  8
0
 62
7
100
AcDbSpline
 70
8
 71
3
 72
8
 73
4
 74
0
 40
0
 40
0
 40
0
 40
0
 40
1
 40
1
 40
1
 40
1
 10
41302013.866896
 20
29520646.141896
 30
0.0
 10
39863062.863096
 20
30959597.145696
 30
0.0
 10
37911426.485581
 20
31767991.402083
 30
0.0
 10
35876442.460417
 20
31767991.402083
 30
0.0
  0
LINE
  5
106
100
AcDbEntity
  8
0
 62
7
100
AcDbLine
 10
35876442.460417
 20
31767991.402083
 30
0.0
 11
35876442.460417
 21
31767991.402083
 31
0.0
  0
SPLINE
  5
107
100
AcDbEntity
  8
0
 62
7
100
AcDbSpline
 70
8
 71
3
 72
8
 73
4
 74
0
 40
0
 40
0
 40
0
 40
0
 40
1
 40
1
 40
1
 40
1
 10
35876442.460417
 20
30445075.000000
 30
0.0
 10
33308107.098861
 20
30445075.000000
 30
0.0
 10
30992666.576152
 20
28897947.105353
 30
0.0
 10
30009807.184527
 20
26525114.632187
 30
0.0
  0
SPLINE
  5
108
100
AcDbEntity
  8
0
 62
7
100
AcDbSpline
 70
8
 71
3
 72
8
 73
4
 74
0
 40
0
 40
0
 40
0
 40
0
 40
1
 40
1
 40
1
 40
1
 10
30009807.184527
 20
26525114.632187
 30
0.0
 10
29026947.792902
 20
24152282.159020
 30
0.0
 10
29570226.862276
 20
21421033.838311
 30
0.0
 10
31386314.212793
 20
19604946.487793
 30
0.0
  0
SPLINE
  5
109
100
AcDbEntity
  8
0
 62
7
100
AcDbSpline
 70
8
 71
3
 72
8
 73
4
 74
0
 40
0
 40
0
 40
0
 40
0
 40
1
 40
1
 40
1
 40
1
 10
31386314.212793
 20
19604946.487793
 30
0.0
 10
33202401.563311
 20
17788859.137276
 30
0.0
 10
35933649.884020
 20
17245580.067902
 30
0.0
 10
38306482.357187
 20
18228439.459527
 30
0.0
  0
SPLINE
  5
10a
100
AcDbEntity
  8
0
 62
7
100
AcDbSpline
 70
8
 71
3
 72
8
 73
4
 74
0
 40
0
 40
0
 40
0
 40
0
 40
1
 40
1
 40
1
 40
1
 10
38306482.357187
 20
18228439.459527
 30
0.0
 10
40679314.830353
 20
19211298.851152
 30
0.0
 10
42226442.725000
 20
21526739.373861
 30
0.0
 10
42226442.725000
 20
24095074.735417
 30
0.0
  0
SPLINE
  5
10b
100
AcDbEntity
  8
0
 62
7
100
AcDbSpline
 70
8
 71
3
 72
8
 73
4
 74
0
 40
0
 40
0
 40
0
 40
0
 40
1
 40
1
 40
1
 40
1
 10
42226442.725000
 20
24095074.735417
 30
0.0
 10
42226442.725000
 20
25779199.516070
 30
0.0
 10
41557426.760804
 20
27394346.930276
 30
0.0
 10
40366570.708040
 20
28585202.983040
 30
0.0
  0
SPLINE
  5
10c
100
AcDbEntity
  8
0
 62
7
100
AcDbSpline
 70
8
 71
3
 72
8
 73
4
 74
0
 40
0
 40
0
 40
0
 40
0
 40
1
 40
1
 40
1
 40
1
 10
40366570.708040
 20
28585202.983040
 30
0.0
 10
39175714.655276
 20
29776059.035804
 30
0.0
 10
37560567.241070
 20
30445075.000000
 30
0.0
 10
35876442.460417
 20
30445075.000000
 30
0.0
  0
LINE
  5
10d
100
AcDbEntity
  8
0
 62
7
100
AcDbLine
 10
35876442.460417
 20
30445075.000000
 30
0.0
 11
35876442.460417
 21
30445075.000000
 31
0.0
  0
SPLINE
  5
10e
100
AcDbEntity
  8
0
 62
7
100
AcDbSpline
 70
8
 71
3
 72
8
 73
4
 74
0
 40
0
 40
0
 40
0
 40
0
 40
1
 40
1
 40
1
 40
1
 10
35876442.460417
 20
32032574.735417
 30
0.0
 10
32666023.392239
 20
32032574.735417
 30
0.0
 10
29771722.859449
 20
30098664.947688
 30
0.0
 10
28543148.671108
 20
27132624.479815
 30
0.0
  0
SPLINE
  5
10f
100
AcDbEntity
  8
0
 62
7
100
AcDbSpline
 70
8
 71
3
 72
8
 73
4
 74
0
 40
0
 40
0
 40
0
 40
0
 40
1
 40
1
 40
1
 40
1
 10
28543148.671108
 20
27132624.479815
 30
0.0
 10
27314574.482768
 20
24166584.011941
 30
0.0
 10
27993673.291189
 20
20752523.753307
 30
0.0
 10
30263782.384748
 20
18482414.659748
 30
0.0
  0
SPLINE
  5
110
100
AcDbEntity
  8
0
 62
7
100
AcDbSpline
 70
8
 71
3
 72
8
 73
4
 74
0
 40
0
 40
0
 40
0
 40
0
 40
1
 40
1
 40
1
 40
1
 10
30263782.384748
 20
18482414.659748
 30
0.0
 10
32533891.478307
 20
16212305.566189
 30
0.0
 10
35947951.736941
 20
15533206.757768
 30
0.0
 10
38913992.204815
 20
16761780.946108
 30
0.0
  0
SPLINE
  5
111
100
AcDbEntity
  8
0
 62
7
100
AcDbSpline
 70
8
 71
3
 72
8
 73
4
 74
0
 40
0
 40
0
 40
0
 40
0
 40
1
 40
1
 40
1
 40
1
 10
38913992.204815
 20
16761780.946108
 30
0.0
 10
41880032.672688
 20
17990355.134449
 30
0.0
 10
43813942.460417
 20
20884655.667239
 30
0.0
 10
43813942.460417
 20
24095074.735417
 30
0.0
  0
SPLINE
  5
112
100
AcDbEntity
  8
0
 62
7
100
AcDbSpline
 70
8
 71
3
 72
8
 73
4
 74
0
 40
0
 40
0
 40
0
 40
0
 40
1
 40
1
 40
1
 40
1
 10
43813942.460417
 20
24095074.735417
 30
0.0
 10
43813942.460417
 20
26200230.623518
 30
0.0
 10
42977672.540016
 20
28219164.807154
 30
0.0
 10
41489102.536085
 20
29707734.811085
 30
0.0
  0
SPLINE
  5
113
100
AcDbEntity
  8
0
 62
7
100
AcDbSpline
 70
8
 71
3
 72
8
 73
4
 74
0
 40
0
 40
0
 40
0
 40
0
 40
1
 40
1
 40
1
 40
1
 10
41489102.536085
 20
29707734.811085
 30
0.0
 10
40000532.532154
 20
31196304.815016
 30
0.0
 10
37981598.348518
 20
32032574.735417
 30
0.0
 10
35876442.460417
 20
32032574.735417
 30
0.0
  0
LINE
  5
114
100
AcDbEntity
  8
0
 62
7
100
AcDbLine
 10
35876442.460417
 20
32032574.735417
 30
0.0
 11
35876442.460417
 21
32032574.735417
 31
0.0
  0
SPLINE
  5
115
100
AcDbEntity
  8
0
 62
7
100
AcDbSpline
 70
8
 71
3
 72
8
 73
4
 74
0
 40
0
 40
0
 40
0
 40
0
 40
1
 40
1
 40
1
 40
1
 10
35876442.460417
 20
30311063.277083
 30
0.0
 10
33362309.781142
 20
30311063.277083
 30
0.0
 10
31095734.795572
 20
28796586.290483
 30
0.0
 10
30133617.872446
 20
26473830.566084
 30
0.0
  0
SPLINE
  5
116
100
AcDbEntity
  8
0
 62
7
100
AcDbSpline
 70
8
 71
3
 72
8
 73
4
 74
0
 40
0
 40
0
 40
0
 40
0
 40
1
 40
1
 40
1
 40
1
 10
30133617.872446
 20
26473830.566084
 30
0.0
 10
29171500.949320
 20
24151074.841684
 30
0.0
 10
29703314.544509
 20
21477467.352144
 30
0.0
 10
31481074.810826
 20
19699707.085826
 30
0.0
  0
SPLINE
  5
117
100
AcDbEntity
  8
0
 62
7
100
AcDbSpline
 70
8
 71
3
 72
8
 73
4
 74
0
 40
0
 40
0
 40
0
 40
0
 40
1
 40
1
 40
1
 40
1
 10
31481074.810826
 20
19699707.085826
 30
0.0
 10
33258835.077144
 20
17921946.819509
 30
0.0
 10
35932442.566684
 20
17390133.224320
 30
0.0
 10
38255198.291084
 20
18352250.147446
 30
0.0
  0
SPLINE
  5
118
100
AcDbEntity
  8
0
 62
7
100
AcDbSpline
 70
8
 71
3
 72
8
 73
4
 74
0
 40
0
 40
0
 40
0
 40
0
 40
1
 40
1
 40
1
 40
1
 10
38255198.291084
 20
18352250.147446
 30
0.0
 10
40577954.015483
 20
19314367.070572
 30
0.0
 10
42092431.002083
 20
21580942.056142
 30
0.0
 10
42092431.002083
 20
24095074.735417
 30
0.0
  0
SPLINE
  5
119
100
AcDbEntity
  8
0
 62
7
100
AcDbSpline
 70
8
 71
3
 72
8
 73
4
 74
0
 40
0
 40
0
 40
0
 40
0
 40
1
 40
1
 40
1
 40
1
 10
42092431.002083
 20
24095074.735417
 30
0.0
 10
42092431.002083
 20
25743657.397320
 30
0.0
 10
41437534.089586
 20
27324718.405428
 30
0.0
 10
40271810.110007
 20
28490442.385007
 30
0.0
  0
SPLINE
  5
11a
100
AcDbEntity
  8
0
 62
7
100
AcDbSpline
 70
8
 71
3
 72
8
 73
4
 74
0
 40
0
 40
0
 40
0
 40
0
 40
1
 40
1
 40
1
 40
1
 10
40271810.110007
 20
28490442.385007
 30
0.0
 10
39106086.130428
 20
29656166.364586
 30
0.0
 10
37525025.122320
 20
30311063.277083
 30
0.0
 10
35876442.460417
 20
30311063.277083
 30
0.0
  0
LINE
  5
11b
100
AcDbEntity
  8
0
 62
7
100
AcDbLine
 10
35876442.460417
 20
30311063.277083
 30
0.0
 11
35876442.460417
 21
30311063.277083
 31
0.0
  0
LINE
  5
11c
100
AcDbEntity
  8
0
 62
7
100
AcDbLine
 10
1736151.118750
 20
31209367.350000
 30
0.0
 11
3037256.064583
 21
36065156.787500
 31
0.0
  0
LINE
  5
11d
100
AcDbEntity
  8
0
 62
7
100
AcDbLine
 10
3037256.064583
 20
36065156.787500
 30
0.0
 11
7893045.502083
 21
34764051.841667
 31
0.0
  0
LINE
  5
11e
100
AcDbEntity
  8
0
 62
7
100
AcDbLine
 10
7893045.502083
 20
34764051.841667
 30
0.0
 11
6591940.556250
 21
29908262.404167
 31
0.0
  0
LINE
  5
11f
100
AcDbEntity
  8
0
 62
7
100
AcDbLine
 10
6591940.556250
 20
29908262.404167
 30
0.0
 11
1736151.118750
 21
31209367.350000
 31
0.0
  0
LINE
  5
120
100
AcDbEntity
  8
0
 62
7
100
AcDbLine
 10
1736151.118750
 20
31209367.350000
 30
0.0
 11
3037256.064583
 21
36065156.787500
 31
0.0
  0
LINE
  5
121
100
AcDbEntity
  8
0
 62
7
100
AcDbLine
 10
3037256.064583
 20
36065156.787500
 30
0.0
 11
7893045.502083
 21
34764051.841667
 31
0.0
  0
LINE
  5
122
100
AcDbEntity
  8
0
 62
7
100
AcDbLine
 10
7893045.502083
 20
34764051.841667
 30
0.0
 11
6591940.556250
 21
29908262.404167
 31
0.0
  0
LINE
  5
123
100
AcDbEntity
  8
0
 62
7
100
AcDbLine
 10
6591940.556250
 20
29908262.404167
 30
0.0
 11
1736151.118750
 21
31209367.350000
 31
0.0
  0
LINE
  5
124
100
AcDbEntity
  8
0
 62
7
100
AcDbLine
 10
55630675.187500
 20
23091305.893750
 30
0.0
 11
57912923.395833
 21
18612141.835417
 31
0.0
  0
LINE
  5
125
100
AcDbEntity
  8
0
 62
7
100
AcDbLine
 10
57912923.395833
 20
18612141.835417
 30
0.0
 11
53433759.337500
 21
16329893.627083
 31
0.0
  0
LINE
  5
126
100
AcDbEntity
  8
0
 62
7
100
AcDbLine
 10
53433759.337500
 20
16329893.627083
 30
0.0
 11
51151511.129167
 21
20809057.685417
 31
0.0
  0
LINE
  5
127
100
AcDbEntity
  8
0
 62
7
100
AcDbLine
 10
53433759.337500
 20
16329893.627083
 30
0.0
 11
51151511.129167
 21
20809057.685417
 31
0.0
  0
LINE
  5
128
100
AcDbEntity
  8
0
 62
7
100
AcDbLine
 10
55630675.187500
 20
23091305.893750
 30
0.0
 11
57912923.395833
 21
18612141.835417
 31
0.0
  0
LINE
  5
129
100
AcDbEntity
  8
0
 62
7
100
AcDbLine
 10
51151511.129167
 20
20809057.685417
 30
0.0
 11
55630675.187500
 21
23091305.893750
 31
0.0
  0
LINE
  5
12a
100
AcDbEntity
  8
0
 62
7
100
AcDbLine
 10
57912923.395833
 20
18612141.835417
 30
0.0
 11
53433759.337500
 21
16329893.627083
 31
0.0
  0
LINE
  5
12b
100
AcDbEntity
  8
0
 62
7
100
AcDbLine
 10
51151511.129167
 20
20809057.685417
 30
0.0
 11
55630675.187500
 21
23091305.893750
 31
0.0
  0
LINE
  5
12c
100
AcDbEntity
  8
0
 62
7
100
AcDbLine
 10
63828009.250000
 20
34764279.383333
 30
0.0
 11
62526904.304167
 21
39620068.820833
 31
0.0
  0
LINE
  5
12d
100
AcDbEntity
  8
0
 62
7
100
AcDbLine
 10
67382693.741667
 20
40921173.766667
 30
0.0
 11
68683798.687500
 21
36065384.329167
 31
0.0
  0
LINE
  5
12e
100
AcDbEntity
  8
0
 62
7
100
AcDbLine
 10
68683798.687500
 20
36065384.329167
 30
0.0
 11
63828009.250000
 21
34764279.383333
 31
0.0
  0
LINE
  5
12f
100
AcDbEntity
  8
0
 62
7
100
AcDbLine
 10
62526904.304167
 20
39620068.820833
 30
0.0
 11
67382693.741667
 21
40921173.766667
 31
0.0
  0
LINE
  5
130
100
AcDbEntity
  8
0
 62
7
100
AcDbLine
 10
68683798.687500
 20
36065384.329167
 30
0.0
 11
63828009.250000
 21
34764279.383333
 31
0.0
  0
LINE
  5
131
100
AcDbEntity
  8
0
 62
7
100
AcDbLine
 10
63828009.250000
 20
34764279.383333
 30
0.0
 11
62526904.304167
 21
39620068.820833
 31
0.0
  0
LINE
  5
132
100
AcDbEntity
  8
0
 62
7
100
AcDbLine
 10
62526904.304167
 20
39620068.820833
 30
0.0
 11
67382693.741667
 21
40921173.766667
 31
0.0
  0
LINE
  5
133
100
AcDbEntity
  8
0
 62
7
100
AcDbLine
 10
67382693.741667
 20
40921173.766667
 30
0.0
 11
68683798.687500
 21
36065384.329167
 31
0.0
  0
LINE
  5
134
100
AcDbEntity
  8
0
 62
7
100
AcDbLine
 10
51589781.779167
 20
19689267.200000
 30
0.0
 11
53872029.987500
 21
15210103.141667
 31
0.0
  0
LINE
  5
135
100
AcDbEntity
  8
0
 62
7
100
AcDbLine
 10
49392865.929167
 20
12927854.933333
 30
0.0
 11
47110617.720833
 21
17407018.991667
 31
0.0
  0
LINE
  5
136
100
AcDbEntity
  8
0
 62
7
100
AcDbLine
 10
49392865.929167
 20
12927854.933333
 30
0.0
 11
47110617.720833
 21
17407018.991667
 31
0.0
  0
LINE
  5
137
100
AcDbEntity
  8
0
 62
7
100
AcDbLine
 10
51589781.779167
 20
19689267.200000
 30
0.0
 11
53872029.987500
 21
15210103.141667
 31
0.0
  0
LINE
  5
138
100
AcDbEntity
  8
0
 62
7
100
AcDbLine
 10
53872029.987500
 20
15210103.141667
 30
0.0
 11
49392865.929167
 21
12927854.933333
 31
0.0
  0
LINE
  5
139
100
AcDbEntity
  8
0
 62
7
100
AcDbLine
 10
47110617.720833
 20
17407018.991667
 30
0.0
 11
51589781.779167
 21
19689267.200000
 31
0.0
  0
LINE
  5
13a
100
AcDbEntity
  8
0
 62
7
100
AcDbLine
 10
53872029.987500
 20
15210103.141667
 30
0.0
 11
49392865.929167
 21
12927854.933333
 31
0.0
  0
LINE
  5
13b
100
AcDbEntity
  8
0
 62
7
100
AcDbLine
 10
47110617.720833
 20
17407018.991667
 30
0.0
 11
51589781.779167
 21
19689267.200000
 31
0.0
  0
LINE
  5
13c
100
AcDbEntity
  8
0
 62
7
100
AcDbLine
 10
52090197.762500
 20
32798265.937500
 30
0.0
 11
54372445.970833
 21
28319101.879167
 31
0.0
  0
LINE
  5
13d
100
AcDbEntity
  8
0
 62
7
100
AcDbLine
 10
54372445.970833
 20
28319101.879167
 30
0.0
 11
49893281.912500
 21
26036853.670833
 31
0.0
  0
LINE
  5
13e
100
AcDbEntity
  8
0
 62
7
100
AcDbLine
 10
47611033.704167
 20
30516017.729167
 30
0.0
 11
52090197.762500
 21
32798265.937500
 31
0.0
  0
LINE
  5
13f
100
AcDbEntity
  8
0
 62
7
100
AcDbLine
 10
54372445.970833
 20
28319101.879167
 30
0.0
 11
49893281.912500
 21
26036853.670833
 31
0.0
  0
LINE
  5
140
100
AcDbEntity
  8
0
 62
7
100
AcDbLine
 10
47611033.704167
 20
30516017.729167
 30
0.0
 11
52090197.762500
 21
32798265.937500
 31
0.0
  0
LINE
  5
141
100
AcDbEntity
  8
0
 62
7
100
AcDbLine
 10
49893281.912500
 20
26036853.670833
 30
0.0
 11
47611033.704167
 21
30516017.729167
 31
0.0
  0
LINE
  5
142
100
AcDbEntity
  8
0
 62
7
100
AcDbLine
 10
49893281.912500
 20
26036853.670833
 30
0.0
 11
47611033.704167
 21
30516017.729167
 31
0.0
  0
LINE
  5
143
100
AcDbEntity
  8
0
 62
7
100
AcDbLine
 10
52090197.762500
 20
32798265.937500
 30
0.0
 11
54372445.970833
 21
28319101.879167
 31
0.0
  0
LINE
  5
144
100
AcDbEntity
  8
0
 62
7
100
AcDbLine
 10
17910337.983333
 20
40608741.331250
 30
0.0
 11
22389502.041667
 21
38326493.122917
 31
0.0
  0
LINE
  5
145
100
AcDbEntity
  8
0
 62
7
100
AcDbLine
 10
22389502.041667
 20
38326493.122917
 30
0.0
 11
20107253.833333
 21
33847329.064583
 31
0.0
  0
LINE
  5
146
100
AcDbEntity
  8
0
 62
7
100
AcDbLine
 10
20107253.833333
 20
33847329.064583
 30
0.0
 11
15628089.775000
 21
36129577.272917
 31
0.0
  0
LINE
  5
147
100
AcDbEntity
  8
0
 62
7
100
AcDbLine
 10
20107253.833333
 20
33847329.064583
 30
0.0
 11
15628089.775000
 21
36129577.272917
 31
0.0
  0
LINE
  5
148
100
AcDbEntity
  8
0
 62
7
100
AcDbLine
 10
17910337.983333
 20
40608741.331250
 30
0.0
 11
22389502.041667
 21
38326493.122917
 31
0.0
  0
LINE
  5
149
100
AcDbEntity
  8
0
 62
7
100
AcDbLine
 10
15628089.775000
 20
36129577.272917
 30
0.0
 11
17910337.983333
 21
40608741.331250
 31
0.0
  0
LINE
  5
14a
100
AcDbEntity
  8
0
 62
7
100
AcDbLine
 10
15628089.775000
 20
36129577.272917
 30
0.0
 11
17910337.983333
 21
40608741.331250
 31
0.0
  0
LINE
  5
14b
100
AcDbEntity
  8
0
 62
7
100
AcDbLine
 10
22389502.041667
 20
38326493.122917
 30
0.0
 11
20107253.833333
 21
33847329.064583
 31
0.0
  0
LINE
  5
14c
100
AcDbEntity
  8
0
 62
7
100
AcDbLine
 10
26450358.262500
 20
34975645.218750
 30
0.0
 11
24168110.054167
 21
30496481.160417
 31
0.0
  0
LINE
  5
14d
100
AcDbEntity
  8
0
 62
7
100
AcDbLine
 10
19688945.995833
 20
32778729.368750
 30
0.0
 11
21971194.204167
 21
37257893.427083
 31
0.0
  0
LINE
  5
14e
100
AcDbEntity
  8
0
 62
7
100
AcDbLine
 10
21971194.204167
 20
37257893.427083
 30
0.0
 11
26450358.262500
 21
34975645.218750
 31
0.0
  0
LINE
  5
14f
100
AcDbEntity
  8
0
 62
7
100
AcDbLine
 10
19688945.995833
 20
32778729.368750
 30
0.0
 11
21971194.204167
 21
37257893.427083
 31
0.0
  0
LINE
  5
150
100
AcDbEntity
  8
0
 62
7
100
AcDbLine
 10
24168110.054167
 20
30496481.160417
 30
0.0
 11
19688945.995833
 21
32778729.368750
 31
0.0
  0
LINE
  5
151
100
AcDbEntity
  8
0
 62
7
100
AcDbLine
 10
26450358.262500
 20
34975645.218750
 30
0.0
 11
24168110.054167
 21
30496481.160417
 31
0.0
  0
LINE
  5
152
100
AcDbEntity
  8
0
 62
7
100
AcDbLine
 10
24168110.054167
 20
30496481.160417
 30
0.0
 11
19688945.995833
 21
32778729.368750
 31
0.0
  0
LINE
  5
153
100
AcDbEntity
  8
0
 62
7
100
AcDbLine
 10
21971194.204167
 20
37257893.427083
 30
0.0
 11
26450358.262500
 21
34975645.218750
 31
0.0
  0
LINE
  5
154
100
AcDbEntity
  8
0
 62
7
100
AcDbLine
 10
36061011.825000
 20
7218016.160417
 30
0.0
 11
36061011.825000
 21
12245099.493750
 31
0.0
  0
LINE
  5
155
100
AcDbEntity
  8
0
 62
7
100
AcDbLine
 10
36061011.825000
 20
12245099.493750
 30
0.0
 11
41088095.158333
 21
12245099.493750
 31
0.0
  0
LINE
  5
156
100
AcDbEntity
  8
0
 62
7
100
AcDbLine
 10
41088095.158333
 20
7218016.160417
 30
0.0
 11
36061011.825000
 21
7218016.160417
 31
0.0
  0
LINE
  5
157
100
AcDbEntity
  8
0
 62
7
100
AcDbLine
 10
41088095.158333
 20
7218016.160417
 30
0.0
 11
36061011.825000
 21
7218016.160417
 31
0.0
  0
LINE
  5
158
100
AcDbEntity
  8
0
 62
7
100
AcDbLine
 10
36061011.825000
 20
7218016.160417
 30
0.0
 11
36061011.825000
 21
12245099.493750
 31
0.0
  0
LINE
  5
159
100
AcDbEntity
  8
0
 62
7
100
AcDbLine
 10
41088095.158333
 20
12245099.493750
 30
0.0
 11
41088095.158333
 21
7218016.160417
 31
0.0
  0
LINE
  5
15a
100
AcDbEntity
  8
0
 62
7
100
AcDbLine
 10
41088095.158333
 20
12245099.493750
 30
0.0
 11
41088095.158333
 21
7218016.160417
 31
0.0
  0
LINE
  5
15b
100
AcDbEntity
  8
0
 62
7
100
AcDbLine
 10
36061011.825000
 20
12245099.493750
 30
0.0
 11
41088095.158333
 21
12245099.493750
 31
0.0
  0
LINE
  5
15c
100
AcDbEntity
  8
0
 62
7
100
AcDbLine
 10
41168529.020833
 20
7688445.062500
 30
0.0
 11
41168529.020833
 21
12715528.395833
 31
0.0
  0
LINE
  5
15d
100
AcDbEntity
  8
0
 62
7
100
AcDbLine
 10
46195612.354167
 20
12715528.395833
 30
0.0
 11
46195612.354167
 21
7688445.062500
 31
0.0
  0
LINE
  5
15e
100
AcDbEntity
  8
0
 62
7
100
AcDbLine
 10
41168529.020833
 20
12715528.395833
 30
0.0
 11
46195612.354167
 21
12715528.395833
 31
0.0
  0
LINE
  5
15f
100
AcDbEntity
  8
0
 62
7
100
AcDbLine
 10
46195612.354167
 20
7688445.062500
 30
0.0
 11
41168529.020833
 21
7688445.062500
 31
0.0
  0
LINE
  5
160
100
AcDbEntity
  8
0
 62
7
100
AcDbLine
 10
46195612.354167
 20
12715528.395833
 30
0.0
 11
46195612.354167
 21
7688445.062500
 31
0.0
  0
LINE
  5
161
100
AcDbEntity
  8
0
 62
7
100
AcDbLine
 10
41168529.020833
 20
12715528.395833
 30
0.0
 11
46195612.354167
 21
12715528.395833
 31
0.0
  0
LINE
  5
162
100
AcDbEntity
  8
0
 62
7
100
AcDbLine
 10
41168529.020833
 20
7688445.062500
 30
0.0
 11
41168529.020833
 21
12715528.395833
 31
0.0
  0
LINE
  5
163
100
AcDbEntity
  8
0
 62
7
100
AcDbLine
 10
46195612.354167
 20
7688445.062500
 30
0.0
 11
41168529.020833
 21
7688445.062500
 31
0.0
  0
LINE
  5
164
100
AcDbEntity
  8
0
 62
7
100
AcDbLine
 10
64099688.443750
 20
32346429.306250
 30
0.0
 11
59438658.004167
 21
30463250.816667
 31
0.0
  0
LINE
  5
165
100
AcDbEntity
  8
0
 62
7
100
AcDbLine
 10
59438658.004167
 20
30463250.816667
 30
0.0
 11
57555479.514583
 21
35124281.256250
 31
0.0
  0
LINE
  5
166
100
AcDbEntity
  8
0
 62
7
100
AcDbLine
 10
64099688.443750
 20
32346429.306250
 30
0.0
 11
59438658.004167
 21
30463250.816667
 31
0.0
  0
LINE
  5
167
100
AcDbEntity
  8
0
 62
7
100
AcDbLine
 10
62216509.954167
 20
37007459.745833
 30
0.0
 11
64099688.443750
 21
32346429.306250
 31
0.0
  0
LINE
  5
168
100
AcDbEntity
  8
0
 62
7
100
AcDbLine
 10
59438658.004167
 20
30463250.816667
 30
0.0
 11
57555479.514583
 21
35124281.256250
 31
0.0
  0
LINE
  5
169
100
AcDbEntity
  8
0
 62
7
100
AcDbLine
 10
62216509.954167
 20
37007459.745833
 30
0.0
 11
64099688.443750
 21
32346429.306250
 31
0.0
  0
LINE
  5
16a
100
AcDbEntity
  8
0
 62
7
100
AcDbLine
 10
57555479.514583
 20
35124281.256250
 30
0.0
 11
62216509.954167
 21
37007459.745833
 31
0.0
  0
LINE
  5
16b
100
AcDbEntity
  8
0
 62
7
100
AcDbLine
 10
57555479.514583
 20
35124281.256250
 30
0.0
 11
62216509.954167
 21
37007459.745833
 31
0.0
  0
LINE
  5
16c
100
AcDbEntity
  8
0
 62
7
100
AcDbLine
 10
17907114.564583
 20
15190565.779167
 30
0.0
 11
20189362.772917
 21
19669729.837500
 31
0.0
  0
LINE
  5
16d
100
AcDbEntity
  8
0
 62
7
100
AcDbLine
 10
24668526.831250
 20
17387481.629167
 30
0.0
 11
22386278.622917
 21
12908317.570833
 31
0.0
  0
LINE
  5
16e
100
AcDbEntity
  8
0
 62
7
100
AcDbLine
 10
17907114.564583
 20
15190565.779167
 30
0.0
 11
20189362.772917
 21
19669729.837500
 31
0.0
  0
LINE
  5
16f
100
AcDbEntity
  8
0
 62
7
100
AcDbLine
 10
22386278.622917
 20
12908317.570833
 30
0.0
 11
17907114.564583
 21
15190565.779167
 31
0.0
  0
LINE
  5
170
100
AcDbEntity
  8
0
 62
7
100
AcDbLine
 10
20189362.772917
 20
19669729.837500
 30
0.0
 11
24668526.831250
 21
17387481.629167
 31
0.0
  0
LINE
  5
171
100
AcDbEntity
  8
0
 62
7
100
AcDbLine
 10
22386278.622917
 20
12908317.570833
 30
0.0
 11
17907114.564583
 21
15190565.779167
 31
0.0
  0
LINE
  5
172
100
AcDbEntity
  8
0
 62
7
100
AcDbLine
 10
24668526.831250
 20
17387481.629167
 30
0.0
 11
22386278.622917
 21
12908317.570833
 31
0.0
  0
LINE
  5
173
100
AcDbEntity
  8
0
 62
7
100
AcDbLine
 10
20189362.772917
 20
19669729.837500
 30
0.0
 11
24668526.831250
 21
17387481.629167
 31
0.0
  0
LINE
  5
174
100
AcDbEntity
  8
0
 62
7
100
AcDbLine
 10
53812989.539583
 20
40607351.739583
 30
0.0
 11
56095237.747917
 21
36128187.681250
 31
0.0
  0
LINE
  5
175
100
AcDbEntity
  8
0
 62
7
100
AcDbLine
 10
56095237.747917
 20
36128187.681250
 30
0.0
 11
51616073.689583
 21
33845939.472917
 31
0.0
  0
LINE
  5
176
100
AcDbEntity
  8
0
 62
7
100
AcDbLine
 10
49333825.481250
 20
38325103.531250
 30
0.0
 11
53812989.539583
 21
40607351.739583
 31
0.0
  0
LINE
  5
177
100
AcDbEntity
  8
0
 62
7
100
AcDbLine
 10
56095237.747917
 20
36128187.681250
 30
0.0
 11
51616073.689583
 21
33845939.472917
 31
0.0
  0
LINE
  5
178
100
AcDbEntity
  8
0
 62
7
100
AcDbLine
 10
53812989.539583
 20
40607351.739583
 30
0.0
 11
56095237.747917
 21
36128187.681250
 31
0.0
  0
LINE
  5
179
100
AcDbEntity
  8
0
 62
7
100
AcDbLine
 10
49333825.481250
 20
38325103.531250
 30
0.0
 11
53812989.539583
 21
40607351.739583
 31
0.0
  0
LINE
  5
17a
100
AcDbEntity
  8
0
 62
7
100
AcDbLine
 10
51616073.689583
 20
33845939.472917
 30
0.0
 11
49333825.481250
 21
38325103.531250
 31
0.0
  0
LINE
  5
17b
100
AcDbEntity
  8
0
 62
7
100
AcDbLine
 10
51616073.689583
 20
33845939.472917
 30
0.0
 11
49333825.481250
 21
38325103.531250
 31
0.0
  0
LINE
  5
17c
100
AcDbEntity
  8
0
 62
7
100
AcDbLine
 10
17825006.683333
 20
29368165.006250
 30
0.0
 11
13345842.625000
 21
31650413.214583
 31
0.0
  0
LINE
  5
17d
100
AcDbEntity
  8
0
 62
7
100
AcDbLine
 10
13345842.625000
 20
31650413.214583
 30
0.0
 11
15628090.833333
 21
36129577.272917
 31
0.0
  0
LINE
  5
17e
100
AcDbEntity
  8
0
 62
7
100
AcDbLine
 10
17825006.683333
 20
29368165.006250
 30
0.0
 11
13345842.625000
 21
31650413.214583
 31
0.0
  0
LINE
  5
17f
100
AcDbEntity
  8
0
 62
7
100
AcDbLine
 10
20107254.891667
 20
33847329.064583
 30
0.0
 11
17825006.683333
 21
29368165.006250
 31
0.0
  0
LINE
  5
180
100
AcDbEntity
  8
0
 62
7
100
AcDbLine
 10
15628090.833333
 20
36129577.272917
 30
0.0
 11
20107254.891667
 21
33847329.064583
 31
0.0
  0
LINE
  5
181
100
AcDbEntity
  8
0
 62
7
100
AcDbLine
 10
13345842.625000
 20
31650413.214583
 30
0.0
 11
15628090.833333
 21
36129577.272917
 31
0.0
  0
LINE
  5
182
100
AcDbEntity
  8
0
 62
7
100
AcDbLine
 10
15628090.833333
 20
36129577.272917
 30
0.0
 11
20107254.891667
 21
33847329.064583
 31
0.0
  0
LINE
  5
183
100
AcDbEntity
  8
0
 62
7
100
AcDbLine
 10
20107254.891667
 20
33847329.064583
 30
0.0
 11
17825006.683333
 21
29368165.006250
 31
0.0
  0
LINE
  5
184
100
AcDbEntity
  8
0
 62
7
100
AcDbLine
 10
17406698.052083
 20
28299564.781250
 30
0.0
 11
21885862.110417
 21
26017316.572917
 31
0.0
  0
LINE
  5
185
100
AcDbEntity
  8
0
 62
7
100
AcDbLine
 10
19603613.902083
 20
21538152.514583
 30
0.0
 11
15124449.843750
 21
23820400.722917
 31
0.0
  0
LINE
  5
186
100
AcDbEntity
  8
0
 62
7
100
AcDbLine
 10
17406698.052083
 20
28299564.781250
 30
0.0
 11
21885862.110417
 21
26017316.572917
 31
0.0
  0
LINE
  5
187
100
AcDbEntity
  8
0
 62
7
100
AcDbLine
 10
21885862.110417
 20
26017316.572917
 30
0.0
 11
19603613.902083
 21
21538152.514583
 31
0.0
  0
LINE
  5
188
100
AcDbEntity
  8
0
 62
7
100
AcDbLine
 10
21885862.110417
 20
26017316.572917
 30
0.0
 11
19603613.902083
 21
21538152.514583
 31
0.0
  0
LINE
  5
189
100
AcDbEntity
  8
0
 62
7
100
AcDbLine
 10
19603613.902083
 20
21538152.514583
 30
0.0
 11
15124449.843750
 21
23820400.722917
 31
0.0
  0
LINE
  5
18a
100
AcDbEntity
  8
0
 62
7
100
AcDbLine
 10
15124449.843750
 20
23820400.722917
 30
0.0
 11
17406698.052083
 21
28299564.781250
 31
0.0
  0
LINE
  5
18b
100
AcDbEntity
  8
0
 62
7
100
AcDbLine
 10
15124449.843750
 20
23820400.722917
 30
0.0
 11
17406698.052083
 21
28299564.781250
 31
0.0
  0
LINE
  5
18c
100
AcDbEntity
  8
0
 62
7
100
AcDbLine
 10
68686090.508333
 20
36063411.066667
 30
0.0
 11
69987195.454167
 21
31207621.629167
 31
0.0
  0
LINE
  5
18d
100
AcDbEntity
  8
0
 62
7
100
AcDbLine
 10
65131406.016667
 20
29906516.683333
 30
0.0
 11
63830301.070833
 21
34762306.120833
 31
0.0
  0
LINE
  5
18e
100
AcDbEntity
  8
0
 62
7
100
AcDbLine
 10
68686090.508333
 20
36063411.066667
 30
0.0
 11
69987195.454167
 21
31207621.629167
 31
0.0
  0
LINE
  5
18f
100
AcDbEntity
  8
0
 62
7
100
AcDbLine
 10
63830301.070833
 20
34762306.120833
 30
0.0
 11
68686090.508333
 21
36063411.066667
 31
0.0
  0
LINE
  5
190
100
AcDbEntity
  8
0
 62
7
100
AcDbLine
 10
63830301.070833
 20
34762306.120833
 30
0.0
 11
68686090.508333
 21
36063411.066667
 31
0.0
  0
LINE
  5
191
100
AcDbEntity
  8
0
 62
7
100
AcDbLine
 10
69987195.454167
 20
31207621.629167
 30
0.0
 11
65131406.016667
 21
29906516.683333
 31
0.0
  0
LINE
  5
192
100
AcDbEntity
  8
0
 62
7
100
AcDbLine
 10
65131406.016667
 20
29906516.683333
 30
0.0
 11
63830301.070833
 21
34762306.120833
 31
0.0
  0
LINE
  5
193
100
AcDbEntity
  8
0
 62
7
100
AcDbLine
 10
69987195.454167
 20
31207621.629167
 30
0.0
 11
65131406.016667
 21
29906516.683333
 31
0.0
  0
LINE
  5
194
100
AcDbEntity
  8
0
 62
7
100
AcDbLine
 10
56180569.312500
 20
24887611.620833
 30
0.0
 11
53898321.104167
 21
29366775.679167
 31
0.0
  0
LINE
  5
195
100
AcDbEntity
  8
0
 62
7
100
AcDbLine
 10
60659733.370833
 20
27169859.829167
 30
0.0
 11
56180569.312500
 21
24887611.620833
 31
0.0
  0
LINE
  5
196
100
AcDbEntity
  8
0
 62
7
100
AcDbLine
 10
53898321.104167
 20
29366775.679167
 30
0.0
 11
58377485.162500
 21
31649023.887500
 31
0.0
  0
LINE
  5
197
100
AcDbEntity
  8
0
 62
7
100
AcDbLine
 10
58377485.162500
 20
31649023.887500
 30
0.0
 11
60659733.370833
 21
27169859.829167
 31
0.0
  0
LINE
  5
198
100
AcDbEntity
  8
0
 62
7
100
AcDbLine
 10
53898321.104167
 20
29366775.679167
 30
0.0
 11
58377485.162500
 21
31649023.887500
 31
0.0
  0
LINE
  5
199
100
AcDbEntity
  8
0
 62
7
100
AcDbLine
 10
58377485.162500
 20
31649023.887500
 30
0.0
 11
60659733.370833
 21
27169859.829167
 31
0.0
  0
LINE
  5
19a
100
AcDbEntity
  8
0
 62
7
100
AcDbLine
 10
56180569.312500
 20
24887611.620833
 30
0.0
 11
53898321.104167
 21
29366775.679167
 31
0.0
  0
LINE
  5
19b
100
AcDbEntity
  8
0
 62
7
100
AcDbLine
 10
60659733.370833
 20
27169859.829167
 30
0.0
 11
56180569.312500
 21
24887611.620833
 31
0.0
  0
LINE
  5
19c
100
AcDbEntity
  8
0
 62
7
100
AcDbLine
 10
10401537.066667
 20
25803711.039583
 30
0.0
 11
5740506.627083
 21
27686889.529167
 31
0.0
  0
LINE
  5
19d
100
AcDbEntity
  8
0
 62
7
100
AcDbLine
 10
7623685.116667
 20
32347919.968750
 30
0.0
 11
12284715.556250
 21
30464741.479167
 31
0.0
  0
LINE
  5
19e
100
AcDbEntity
  8
0
 62
7
100
AcDbLine
 10
7623685.116667
 20
32347919.968750
 30
0.0
 11
12284715.556250
 21
30464741.479167
 31
0.0
  0
LINE
  5
19f
100
AcDbEntity
  8
0
 62
7
100
AcDbLine
 10
5740506.627083
 20
27686889.529167
 30
0.0
 11
7623685.116667
 21
32347919.968750
 31
0.0
  0
LINE
  5
1a0
100
AcDbEntity
  8
0
 62
7
100
AcDbLine
 10
5740506.627083
 20
27686889.529167
 30
0.0
 11
7623685.116667
 21
32347919.968750
 31
0.0
  0
LINE
  5
1a1
100
AcDbEntity
  8
0
 62
7
100
AcDbLine
 10
10401537.066667
 20
25803711.039583
 30
0.0
 11
5740506.627083
 21
27686889.529167
 31
0.0
  0
LINE
  5
1a2
100
AcDbEntity
  8
0
 62
7
100
AcDbLine
 10
12284715.556250
 20
30464741.479167
 30
0.0
 11
10401537.066667
 21
25803711.039583
 31
0.0
  0
LINE
  5
1a3
100
AcDbEntity
  8
0
 62
7
100
AcDbLine
 10
12284715.556250
 20
30464741.479167
 30
0.0
 11
10401537.066667
 21
25803711.039583
 31
0.0
  0
LINE
  5
1a4
100
AcDbEntity
  8
0
 62
7
100
AcDbLine
 10
25846617.195833
 20
12806015.631250
 30
0.0
 11
30873700.529167
 21
12806015.631250
 31
0.0
  0
LINE
  5
1a5
100
AcDbEntity
  8
0
 62
7
100
AcDbLine
 10
30873700.529167
 20
12806015.631250
 30
0.0
 11
30873700.529167
 21
7778932.297917
 31
0.0
  0
LINE
  5
1a6
100
AcDbEntity
  8
0
 62
7
100
AcDbLine
 10
30873700.529167
 20
7778932.297917
 30
0.0
 11
25846617.195833
 21
7778932.297917
 31
0.0
  0
LINE
  5
1a7
100
AcDbEntity
  8
0
 62
7
100
AcDbLine
 10
25846617.195833
 20
7778932.297917
 30
0.0
 11
25846617.195833
 21
12806015.631250
 31
0.0
  0
LINE
  5
1a8
100
AcDbEntity
  8
0
 62
7
100
AcDbLine
 10
30873700.529167
 20
7778932.297917
 30
0.0
 11
25846617.195833
 21
7778932.297917
 31
0.0
  0
LINE
  5
1a9
100
AcDbEntity
  8
0
 62
7
100
AcDbLine
 10
25846617.195833
 20
7778932.297917
 30
0.0
 11
25846617.195833
 21
12806015.631250
 31
0.0
  0
LINE
  5
1aa
100
AcDbEntity
  8
0
 62
7
100
AcDbLine
 10
25846617.195833
 20
12806015.631250
 30
0.0
 11
30873700.529167
 21
12806015.631250
 31
0.0
  0
LINE
  5
1ab
100
AcDbEntity
  8
0
 62
7
100
AcDbLine
 10
30873700.529167
 20
12806015.631250
 30
0.0
 11
30873700.529167
 21
7778932.297917
 31
0.0
  0
LINE
  5
1ac
100
AcDbEntity
  8
0
 62
7
100
AcDbLine
 10
14167893.781250
 20
35125771.918750
 30
0.0
 11
9506863.341667
 21
37008950.408333
 31
0.0
  0
LINE
  5
1ad
100
AcDbEntity
  8
0
 62
7
100
AcDbLine
 10
14167893.781250
 20
35125771.918750
 30
0.0
 11
9506863.341667
 21
37008950.408333
 31
0.0
  0
LINE
  5
1ae
100
AcDbEntity
  8
0
 62
7
100
AcDbLine
 10
9506863.341667
 20
37008950.408333
 30
0.0
 11
11390041.831250
 21
41669980.847917
 31
0.0
  0
LINE
  5
1af
100
AcDbEntity
  8
0
 62
7
100
AcDbLine
 10
16051072.270833
 20
39786802.358333
 30
0.0
 11
14167893.781250
 21
35125771.918750
 31
0.0
  0
LINE
  5
1b0
100
AcDbEntity
  8
0
 62
7
100
AcDbLine
 10
11390041.831250
 20
41669980.847917
 30
0.0
 11
16051072.270833
 21
39786802.358333
 31
0.0
  0
LINE
  5
1b1
100
AcDbEntity
  8
0
 62
7
100
AcDbLine
 10
11390041.831250
 20
41669980.847917
 30
0.0
 11
16051072.270833
 21
39786802.358333
 31
0.0
  0
LINE
  5
1b2
100
AcDbEntity
  8
0
 62
7
100
AcDbLine
 10
9506863.341667
 20
37008950.408333
 30
0.0
 11
11390041.831250
 21
41669980.847917
 31
0.0
  0
LINE
  5
1b3
100
AcDbEntity
  8
0
 62
7
100
AcDbLine
 10
16051072.270833
 20
39786802.358333
 30
0.0
 11
14167893.781250
 21
35125771.918750
 31
0.0
  0
LINE
  5
1b4
100
AcDbEntity
  8
0
 62
7
100
AcDbLine
 10
16148468.835417
 20
23071769.589583
 30
0.0
 11
20627632.893750
 21
20789521.381250
 31
0.0
  0
LINE
  5
1b5
100
AcDbEntity
  8
0
 62
7
100
AcDbLine
 10
20627632.893750
 20
20789521.381250
 30
0.0
 11
18345384.685417
 21
16310357.322917
 31
0.0
  0
LINE
  5
1b6
100
AcDbEntity
  8
0
 62
7
100
AcDbLine
 10
18345384.685417
 20
16310357.322917
 30
0.0
 11
13866220.627083
 21
18592605.531250
 31
0.0
  0
LINE
  5
1b7
100
AcDbEntity
  8
0
 62
7
100
AcDbLine
 10
18345384.685417
 20
16310357.322917
 30
0.0
 11
13866220.627083
 21
18592605.531250
 31
0.0
  0
LINE
  5
1b8
100
AcDbEntity
  8
0
 62
7
100
AcDbLine
 10
16148468.835417
 20
23071769.589583
 30
0.0
 11
20627632.893750
 21
20789521.381250
 31
0.0
  0
LINE
  5
1b9
100
AcDbEntity
  8
0
 62
7
100
AcDbLine
 10
13866220.627083
 20
18592605.531250
 30
0.0
 11
16148468.835417
 21
23071769.589583
 31
0.0
  0
LINE
  5
1ba
100
AcDbEntity
  8
0
 62
7
100
AcDbLine
 10
13866220.627083
 20
18592605.531250
 30
0.0
 11
16148468.835417
 21
23071769.589583
 31
0.0
  0
LINE
  5
1bb
100
AcDbEntity
  8
0
 62
7
100
AcDbLine
 10
20627632.893750
 20
20789521.381250
 30
0.0
 11
18345384.685417
 21
16310357.322917
 31
0.0
  0
LINE
  5
1bc
100
AcDbEntity
  8
0
 62
7
100
AcDbLine
 10
50839835.137500
 20
24054629.204167
 30
0.0
 11
46360671.079167
 21
21772380.995833
 31
0.0
  0
LINE
  5
1bd
100
AcDbEntity
  8
0
 62
7
100
AcDbLine
 10
46360671.079167
 20
21772380.995833
 30
0.0
 11
44078422.870833
 21
26251545.054167
 31
0.0
  0
LINE
  5
1be
100
AcDbEntity
  8
0
 62
7
100
AcDbLine
 10
50839835.137500
 20
24054629.204167
 30
0.0
 11
46360671.079167
 21
21772380.995833
 31
0.0
  0
LINE
  5
1bf
100
AcDbEntity
  8
0
 62
7
100
AcDbLine
 10
46360671.079167
 20
21772380.995833
 30
0.0
 11
44078422.870833
 21
26251545.054167
 31
0.0
  0
LINE
  5
1c0
100
AcDbEntity
  8
0
 62
7
100
AcDbLine
 10
44078422.870833
 20
26251545.054167
 30
0.0
 11
48557586.929167
 21
28533793.262500
 31
0.0
  0
LINE
  5
1c1
100
AcDbEntity
  8
0
 62
7
100
AcDbLine
 10
48557586.929167
 20
28533793.262500
 30
0.0
 11
50839835.137500
 21
24054629.204167
 31
0.0
  0
LINE
  5
1c2
100
AcDbEntity
  8
0
 62
7
100
AcDbLine
 10
48557586.929167
 20
28533793.262500
 30
0.0
 11
50839835.137500
 21
24054629.204167
 31
0.0
  0
LINE
  5
1c3
100
AcDbEntity
  8
0
 62
7
100
AcDbLine
 10
44078422.870833
 20
26251545.054167
 30
0.0
 11
48557586.929167
 21
28533793.262500
 31
0.0
  0
LINE
  5
1c4
100
AcDbEntity
  8
0
 62
7
100
AcDbLine
 10
3035268.779167
 20
36069866.635417
 30
0.0
 11
4336373.725000
 21
40925656.072917
 31
0.0
  0
LINE
  5
1c5
100
AcDbEntity
  8
0
 62
7
100
AcDbLine
 10
4336373.725000
 20
40925656.072917
 30
0.0
 11
9192163.162500
 21
39624551.127083
 31
0.0
  0
LINE
  5
1c6
100
AcDbEntity
  8
0
 62
7
100
AcDbLine
 10
7891058.216667
 20
34768761.689583
 30
0.0
 11
3035268.779167
 21
36069866.635417
 31
0.0
  0
LINE
  5
1c7
100
AcDbEntity
  8
0
 62
7
100
AcDbLine
 10
4336373.725000
 20
40925656.072917
 30
0.0
 11
9192163.162500
 21
39624551.127083
 31
0.0
  0
LINE
  5
1c8
100
AcDbEntity
  8
0
 62
7
100
AcDbLine
 10
7891058.216667
 20
34768761.689583
 30
0.0
 11
3035268.779167
 21
36069866.635417
 31
0.0
  0
LINE
  5
1c9
100
AcDbEntity
  8
0
 62
7
100
AcDbLine
 10
9192163.162500
 20
39624551.127083
 30
0.0
 11
7891058.216667
 21
34768761.689583
 31
0.0
  0
LINE
  5
1ca
100
AcDbEntity
  8
0
 62
7
100
AcDbLine
 10
9192163.162500
 20
39624551.127083
 30
0.0
 11
7891058.216667
 21
34768761.689583
 31
0.0
  0
LINE
  5
1cb
100
AcDbEntity
  8
0
 62
7
100
AcDbLine
 10
3035268.779167
 20
36069866.635417
 30
0.0
 11
4336373.725000
 21
40925656.072917
 31
0.0
  0
LINE
  5
1cc
100
AcDbEntity
  8
0
 62
7
100
AcDbLine
 10
13345842.095833
 20
31650412.950000
 30
0.0
 11
17825006.154167
 21
29368164.741667
 31
0.0
  0
LINE
  5
1cd
100
AcDbEntity
  8
0
 62
7
100
AcDbLine
 10
11063593.887500
 20
27171248.891667
 30
0.0
 11
13345842.095833
 21
31650412.950000
 31
0.0
  0
LINE
  5
1ce
100
AcDbEntity
  8
0
 62
7
100
AcDbLine
 10
17825006.154167
 20
29368164.741667
 30
0.0
 11
15542757.945833
 21
24889000.683333
 31
0.0
  0
LINE
  5
1cf
100
AcDbEntity
  8
0
 62
7
100
AcDbLine
 10
15542757.945833
 20
24889000.683333
 30
0.0
 11
11063593.887500
 21
27171248.891667
 31
0.0
  0
LINE
  5
1d0
100
AcDbEntity
  8
0
 62
7
100
AcDbLine
 10
13345842.095833
 20
31650412.950000
 30
0.0
 11
17825006.154167
 21
29368164.741667
 31
0.0
  0
LINE
  5
1d1
100
AcDbEntity
  8
0
 62
7
100
AcDbLine
 10
15542757.945833
 20
24889000.683333
 30
0.0
 11
11063593.887500
 21
27171248.891667
 31
0.0
  0
LINE
  5
1d2
100
AcDbEntity
  8
0
 62
7
100
AcDbLine
 10
17825006.154167
 20
29368164.741667
 30
0.0
 11
15542757.945833
 21
24889000.683333
 31
0.0
  0
LINE
  5
1d3
100
AcDbEntity
  8
0
 62
7
100
AcDbLine
 10
11063593.887500
 20
27171248.891667
 30
0.0
 11
13345842.095833
 21
31650412.950000
 31
0.0
  0
LINE
  5
1d4
100
AcDbEntity
  8
0
 62
7
100
AcDbLine
 10
62216510.218750
 20
37007459.216667
 30
0.0
 11
57555479.779167
 21
35124280.727083
 31
0.0
  0
LINE
  5
1d5
100
AcDbEntity
  8
0
 62
7
100
AcDbLine
 10
57555479.779167
 20
35124280.727083
 30
0.0
 11
55672301.289583
 21
39785311.166667
 31
0.0
  0
LINE
  5
1d6
100
AcDbEntity
  8
0
 62
7
100
AcDbLine
 10
62216510.218750
 20
37007459.216667
 30
0.0
 11
57555479.779167
 21
35124280.727083
 31
0.0
  0
LINE
  5
1d7
100
AcDbEntity
  8
0
 62
7
100
AcDbLine
 10
57555479.779167
 20
35124280.727083
 30
0.0
 11
55672301.289583
 21
39785311.166667
 31
0.0
  0
LINE
  5
1d8
100
AcDbEntity
  8
0
 62
7
100
AcDbLine
 10
55672301.289583
 20
39785311.166667
 30
0.0
 11
60333331.729167
 21
41668489.656250
 31
0.0
  0
LINE
  5
1d9
100
AcDbEntity
  8
0
 62
7
100
AcDbLine
 10
60333331.729167
 20
41668489.656250
 30
0.0
 11
62216510.218750
 21
37007459.216667
 31
0.0
  0
LINE
  5
1da
100
AcDbEntity
  8
0
 62
7
100
AcDbLine
 10
60333331.729167
 20
41668489.656250
 30
0.0
 11
62216510.218750
 21
37007459.216667
 31
0.0
  0
LINE
  5
1db
100
AcDbEntity
  8
0
 62
7
100
AcDbLine
 10
55672301.289583
 20
39785311.166667
 30
0.0
 11
60333331.729167
 21
41668489.656250
 31
0.0
  0
LINE
  5
1dc
100
AcDbEntity
  8
0
 62
7
100
AcDbLine
 10
24168109.525000
 20
30496480.895833
 30
0.0
 11
21885861.316667
 21
26017316.837500
 31
0.0
  0
LINE
  5
1dd
100
AcDbEntity
  8
0
 62
7
100
AcDbLine
 10
19688945.466667
 20
32778729.104167
 30
0.0
 11
24168109.525000
 21
30496480.895833
 31
0.0
  0
LINE
  5
1de
100
AcDbEntity
  8
0
 62
7
100
AcDbLine
 10
17406697.258333
 20
28299565.045833
 30
0.0
 11
19688945.466667
 21
32778729.104167
 31
0.0
  0
LINE
  5
1df
100
AcDbEntity
  8
0
 62
7
100
AcDbLine
 10
19688945.466667
 20
32778729.104167
 30
0.0
 11
24168109.525000
 21
30496480.895833
 31
0.0
  0
LINE
  5
1e0
100
AcDbEntity
  8
0
 62
7
100
AcDbLine
 10
24168109.525000
 20
30496480.895833
 30
0.0
 11
21885861.316667
 21
26017316.837500
 31
0.0
  0
LINE
  5
1e1
100
AcDbEntity
  8
0
 62
7
100
AcDbLine
 10
21885861.316667
 20
26017316.837500
 30
0.0
 11
17406697.258333
 21
28299565.045833
 31
0.0
  0
LINE
  5
1e2
100
AcDbEntity
  8
0
 62
7
100
AcDbLine
 10
17406697.258333
 20
28299565.045833
 30
0.0
 11
19688945.466667
 21
32778729.104167
 31
0.0
  0
LINE
  5
1e3
100
AcDbEntity
  8
0
 62
7
100
AcDbLine
 10
21885861.316667
 20
26017316.837500
 30
0.0
 11
17406697.258333
 21
28299565.045833
 31
0.0
  0
LINE
  5
1e4
100
AcDbEntity
  8
0
 62
7
100
AcDbLine
 10
27700720.887500
 20
26232007.956250
 30
0.0
 11
23221556.829167
 21
28514256.164583
 31
0.0
  0
LINE
  5
1e5
100
AcDbEntity
  8
0
 62
7
100
AcDbLine
 10
25503805.037500
 20
32993420.222917
 30
0.0
 11
29982969.095833
 21
30711172.014583
 31
0.0
  0
LINE
  5
1e6
100
AcDbEntity
  8
0
 62
7
100
AcDbLine
 10
25503805.037500
 20
32993420.222917
 30
0.0
 11
29982969.095833
 21
30711172.014583
 31
0.0
  0
LINE
  5
1e7
100
AcDbEntity
  8
0
 62
7
100
AcDbLine
 10
23221556.829167
 20
28514256.164583
 30
0.0
 11
25503805.037500
 21
32993420.222917
 31
0.0
  0
LINE
  5
1e8
100
AcDbEntity
  8
0
 62
7
100
AcDbLine
 10
29982969.095833
 20
30711172.014583
 30
0.0
 11
27700720.887500
 21
26232007.956250
 31
0.0
  0
LINE
  5
1e9
100
AcDbEntity
  8
0
 62
7
100
AcDbLine
 10
23221556.829167
 20
28514256.164583
 30
0.0
 11
25503805.037500
 21
32993420.222917
 31
0.0
  0
LINE
  5
1ea
100
AcDbEntity
  8
0
 62
7
100
AcDbLine
 10
27700720.887500
 20
26232007.956250
 30
0.0
 11
23221556.829167
 21
28514256.164583
 31
0.0
  0
LINE
  5
1eb
100
AcDbEntity
  8
0
 62
7
100
AcDbLine
 10
29982969.095833
 20
30711172.014583
 30
0.0
 11
27700720.887500
 21
26232007.956250
 31
0.0
  0
LINE
  5
1ec
100
AcDbEntity
  8
0
 62
7
100
AcDbLine
 10
44078423.400000
 20
26251545.318750
 30
0.0
 11
41796175.191667
 21
30730709.377083
 31
0.0
  0
LINE
  5
1ed
100
AcDbEntity
  8
0
 62
7
100
AcDbLine
 10
44078423.400000
 20
26251545.318750
 30
0.0
 11
41796175.191667
 21
30730709.377083
 31
0.0
  0
LINE
  5
1ee
100
AcDbEntity
  8
0
 62
7
100
AcDbLine
 10
41796175.191667
 20
30730709.377083
 30
0.0
 11
46275339.250000
 21
33012957.585417
 31
0.0
  0
LINE
  5
1ef
100
AcDbEntity
  8
0
 62
7
100
AcDbLine
 10
46275339.250000
 20
33012957.585417
 30
0.0
 11
48557587.458333
 21
28533793.527083
 31
0.0
  0
LINE
  5
1f0
100
AcDbEntity
  8
0
 62
7
100
AcDbLine
 10
48557587.458333
 20
28533793.527083
 30
0.0
 11
44078423.400000
 21
26251545.318750
 31
0.0
  0
LINE
  5
1f1
100
AcDbEntity
  8
0
 62
7
100
AcDbLine
 10
41796175.191667
 20
30730709.377083
 30
0.0
 11
46275339.250000
 21
33012957.585417
 31
0.0
  0
LINE
  5
1f2
100
AcDbEntity
  8
0
 62
7
100
AcDbLine
 10
46275339.250000
 20
33012957.585417
 30
0.0
 11
48557587.458333
 21
28533793.527083
 31
0.0
  0
LINE
  5
1f3
100
AcDbEntity
  8
0
 62
7
100
AcDbLine
 10
48557587.458333
 20
28533793.527083
 30
0.0
 11
44078423.400000
 21
26251545.318750
 31
0.0
  0
LINE
  5
1f4
100
AcDbEntity
  8
0
 62
7
100
AcDbLine
 10
52090199.085417
 20
32798266.202083
 30
0.0
 11
47611035.027083
 21
30516017.993750
 31
0.0
  0
LINE
  5
1f5
100
AcDbEntity
  8
0
 62
7
100
AcDbLine
 10
49807950.877083
 20
37277430.260417
 30
0.0
 11
52090199.085417
 21
32798266.202083
 31
0.0
  0
LINE
  5
1f6
100
AcDbEntity
  8
0
 62
7
100
AcDbLine
 10
45328786.818750
 20
34995182.052083
 30
0.0
 11
49807950.877083
 21
37277430.260417
 31
0.0
  0
LINE
  5
1f7
100
AcDbEntity
  8
0
 62
7
100
AcDbLine
 10
45328786.818750
 20
34995182.052083
 30
0.0
 11
49807950.877083
 21
37277430.260417
 31
0.0
  0
LINE
  5
1f8
100
AcDbEntity
  8
0
 62
7
100
AcDbLine
 10
52090199.085417
 20
32798266.202083
 30
0.0
 11
47611035.027083
 21
30516017.993750
 31
0.0
  0
LINE
  5
1f9
100
AcDbEntity
  8
0
 62
7
100
AcDbLine
 10
47611035.027083
 20
30516017.993750
 30
0.0
 11
45328786.818750
 21
34995182.052083
 31
0.0
  0
LINE
  5
1fa
100
AcDbEntity
  8
0
 62
7
100
AcDbLine
 10
49807950.877083
 20
37277430.260417
 30
0.0
 11
52090199.085417
 21
32798266.202083
 31
0.0
  0
LINE
  5
1fb
100
AcDbEntity
  8
0
 62
7
100
AcDbLine
 10
47611035.027083
 20
30516017.993750
 30
0.0
 11
45328786.818750
 21
34995182.052083
 31
0.0
  0
LINE
  5
1fc
100
AcDbEntity
  8
0
 62
7
100
AcDbLine
 10
35974866.666667
 20
12245974.470833
 30
0.0
 11
35974866.666667
 21
7218891.137500
 31
0.0
  0
LINE
  5
1fd
100
AcDbEntity
  8
0
 62
7
100
AcDbLine
 10
35974866.666667
 20
12245974.470833
 30
0.0
 11
35974866.666667
 21
7218891.137500
 31
0.0
  0
LINE
  5
1fe
100
AcDbEntity
  8
0
 62
7
100
AcDbLine
 10
35974866.666667
 20
7218891.137500
 30
0.0
 11
30947783.333333
 21
7218891.137500
 31
0.0
  0
LINE
  5
1ff
100
AcDbEntity
  8
0
 62
7
100
AcDbLine
 10
35974866.666667
 20
7218891.137500
 30
0.0
 11
30947783.333333
 21
7218891.137500
 31
0.0
  0
LINE
  5
200
100
AcDbEntity
  8
0
 62
7
100
AcDbLine
 10
30947783.333333
 20
12245974.470833
 30
0.0
 11
35974866.666667
 21
12245974.470833
 31
0.0
  0
LINE
  5
201
100
AcDbEntity
  8
0
 62
7
100
AcDbLine
 10
30947783.333333
 20
7218891.137500
 30
0.0
 11
30947783.333333
 21
12245974.470833
 31
0.0
  0
LINE
  5
202
100
AcDbEntity
  8
0
 62
7
100
AcDbLine
 10
30947783.333333
 20
7218891.137500
 30
0.0
 11
30947783.333333
 21
12245974.470833
 31
0.0
  0
LINE
  5
203
100
AcDbEntity
  8
0
 62
7
100
AcDbLine
 10
30947783.333333
 20
12245974.470833
 30
0.0
 11
35974866.666667
 21
12245974.470833
 31
0.0
  0
LINE
  5
204
100
AcDbEntity
  8
0
 62
7
100
AcDbLine
 10
58377485.956250
 20
31649023.093750
 30
0.0
 11
53898321.897917
 21
29366774.885417
 31
0.0
  0
LINE
  5
205
100
AcDbEntity
  8
0
 62
7
100
AcDbLine
 10
53898321.897917
 20
29366774.885417
 30
0.0
 11
51616073.689583
 21
33845938.943750
 31
0.0
  0
LINE
  5
206
100
AcDbEntity
  8
0
 62
7
100
AcDbLine
 10
58377485.956250
 20
31649023.093750
 30
0.0
 11
53898321.897917
 21
29366774.885417
 31
0.0
  0
LINE
  5
207
100
AcDbEntity
  8
0
 62
7
100
AcDbLine
 10
56095237.747917
 20
36128187.152083
 30
0.0
 11
58377485.956250
 21
31649023.093750
 31
0.0
  0
LINE
  5
208
100
AcDbEntity
  8
0
 62
7
100
AcDbLine
 10
53898321.897917
 20
29366774.885417
 30
0.0
 11
51616073.689583
 21
33845938.943750
 31
0.0
  0
LINE
  5
209
100
AcDbEntity
  8
0
 62
7
100
AcDbLine
 10
51616073.689583
 20
33845938.943750
 30
0.0
 11
56095237.747917
 21
36128187.152083
 31
0.0
  0
LINE
  5
20a
100
AcDbEntity
  8
0
 62
7
100
AcDbLine
 10
51616073.689583
 20
33845938.943750
 30
0.0
 11
56095237.747917
 21
36128187.152083
 31
0.0
  0
LINE
  5
20b
100
AcDbEntity
  8
0
 62
7
100
AcDbLine
 10
56095237.747917
 20
36128187.152083
 30
0.0
 11
58377485.956250
 21
31649023.093750
 31
0.0
  0
LINE
  5
20c
100
AcDbEntity
  8
0
 62
7
100
AcDbLine
 10
65982866.933333
 20
27685398.337500
 30
0.0
 11
61321836.493750
 21
25802219.847917
 31
0.0
  0
LINE
  5
20d
100
AcDbEntity
  8
0
 62
7
100
AcDbLine
 10
65982866.933333
 20
27685398.337500
 30
0.0
 11
61321836.493750
 21
25802219.847917
 31
0.0
  0
LINE
  5
20e
100
AcDbEntity
  8
0
 62
7
100
AcDbLine
 10
59438658.004167
 20
30463250.287500
 30
0.0
 11
64099688.443750
 21
32346428.777083
 31
0.0
  0
LINE
  5
20f
100
AcDbEntity
  8
0
 62
7
100
AcDbLine
 10
64099688.443750
 20
32346428.777083
 30
0.0
 11
65982866.933333
 21
27685398.337500
 31
0.0
  0
LINE
  5
210
100
AcDbEntity
  8
0
 62
7
100
AcDbLine
 10
64099688.443750
 20
32346428.777083
 30
0.0
 11
65982866.933333
 21
27685398.337500
 31
0.0
  0
LINE
  5
211
100
AcDbEntity
  8
0
 62
7
100
AcDbLine
 10
59438658.004167
 20
30463250.287500
 30
0.0
 11
64099688.443750
 21
32346428.777083
 31
0.0
  0
LINE
  5
212
100
AcDbEntity
  8
0
 62
7
100
AcDbLine
 10
61321836.493750
 20
25802219.847917
 30
0.0
 11
59438658.004167
 21
30463250.287500
 31
0.0
  0
LINE
  5
213
100
AcDbEntity
  8
0
 62
7
100
AcDbLine
 10
61321836.493750
 20
25802219.847917
 30
0.0
 11
59438658.004167
 21
30463250.287500
 31
0.0
  0
LINE
  5
214
100
AcDbEntity
  8
0
 62
7
100
AcDbLine
 10
9506940.070833
 20
37008842.458333
 30
0.0
 11
14167970.510417
 21
35125663.968750
 31
0.0
  0
LINE
  5
215
100
AcDbEntity
  8
0
 62
7
100
AcDbLine
 10
7623761.581250
 20
32347812.018750
 30
0.0
 11
9506940.070833
 21
37008842.458333
 31
0.0
  0
LINE
  5
216
100
AcDbEntity
  8
0
 62
7
100
AcDbLine
 10
9506940.070833
 20
37008842.458333
 30
0.0
 11
14167970.510417
 21
35125663.968750
 31
0.0
  0
LINE
  5
217
100
AcDbEntity
  8
0
 62
7
100
AcDbLine
 10
7623761.581250
 20
32347812.018750
 30
0.0
 11
9506940.070833
 21
37008842.458333
 31
0.0
  0
LINE
  5
218
100
AcDbEntity
  8
0
 62
7
100
AcDbLine
 10
12284792.020833
 20
30464633.529167
 30
0.0
 11
7623761.581250
 21
32347812.018750
 31
0.0
  0
LINE
  5
219
100
AcDbEntity
  8
0
 62
7
100
AcDbLine
 10
12284792.020833
 20
30464633.529167
 30
0.0
 11
7623761.581250
 21
32347812.018750
 31
0.0
  0
LINE
  5
21a
100
AcDbEntity
  8
0
 62
7
100
AcDbLine
 10
14167970.510417
 20
35125663.968750
 30
0.0
 11
12284792.020833
 21
30464633.529167
 31
0.0
  0
LINE
  5
21b
100
AcDbEntity
  8
0
 62
7
100
AcDbLine
 10
14167970.510417
 20
35125663.968750
 30
0.0
 11
12284792.020833
 21
30464633.529167
 31
0.0
  0
LINE
  5
21c
100
AcDbEntity
  8
0
 62
7
100
AcDbLine
 10
49893281.912500
 20
26036853.141667
 30
0.0
 11
54372445.970833
 21
28319101.350000
 31
0.0
  0
LINE
  5
21d
100
AcDbEntity
  8
0
 62
7
100
AcDbLine
 10
54372445.970833
 20
28319101.350000
 30
0.0
 11
56654694.179167
 21
23839937.291667
 31
0.0
  0
LINE
  5
21e
100
AcDbEntity
  8
0
 62
7
100
AcDbLine
 10
54372445.970833
 20
28319101.350000
 30
0.0
 11
56654694.179167
 21
23839937.291667
 31
0.0
  0
LINE
  5
21f
100
AcDbEntity
  8
0
 62
7
100
AcDbLine
 10
49893281.912500
 20
26036853.141667
 30
0.0
 11
54372445.970833
 21
28319101.350000
 31
0.0
  0
LINE
  5
220
100
AcDbEntity
  8
0
 62
7
100
AcDbLine
 10
56654694.179167
 20
23839937.291667
 30
0.0
 11
52175530.120833
 21
21557689.083333
 31
0.0
  0
LINE
  5
221
100
AcDbEntity
  8
0
 62
7
100
AcDbLine
 10
52175530.120833
 20
21557689.083333
 30
0.0
 11
49893281.912500
 21
26036853.141667
 31
0.0
  0
LINE
  5
222
100
AcDbEntity
  8
0
 62
7
100
AcDbLine
 10
52175530.120833
 20
21557689.083333
 30
0.0
 11
49893281.912500
 21
26036853.141667
 31
0.0
  0
LINE
  5
223
100
AcDbEntity
  8
0
 62
7
100
AcDbLine
 10
56654694.179167
 20
23839937.291667
 30
0.0
 11
52175530.120833
 21
21557689.083333
 31
0.0
  0
LINE
  5
224
100
AcDbEntity
  8
0
 62
7
100
AcDbLine
 10
27700720.622917
 20
26232008.485417
 30
0.0
 11
25418472.414583
 21
21752844.427083
 31
0.0
  0
LINE
  5
225
100
AcDbEntity
  8
0
 62
7
100
AcDbLine
 10
25418472.414583
 20
21752844.427083
 30
0.0
 11
20939308.356250
 21
24035092.635417
 31
0.0
  0
LINE
  5
226
100
AcDbEntity
  8
0
 62
7
100
AcDbLine
 10
27700720.622917
 20
26232008.485417
 30
0.0
 11
25418472.414583
 21
21752844.427083
 31
0.0
  0
LINE
  5
227
100
AcDbEntity
  8
0
 62
7
100
AcDbLine
 10
20939308.356250
 20
24035092.635417
 30
0.0
 11
23221556.564583
 21
28514256.693750
 31
0.0
  0
LINE
  5
228
100
AcDbEntity
  8
0
 62
7
100
AcDbLine
 10
25418472.414583
 20
21752844.427083
 30
0.0
 11
20939308.356250
 21
24035092.635417
 31
0.0
  0
LINE
  5
229
100
AcDbEntity
  8
0
 62
7
100
AcDbLine
 10
23221556.564583
 20
28514256.693750
 30
0.0
 11
27700720.622917
 21
26232008.485417
 31
0.0
  0
LINE
  5
22a
100
AcDbEntity
  8
0
 62
7
100
AcDbLine
 10
20939308.356250
 20
24035092.635417
 30
0.0
 11
23221556.564583
 21
28514256.693750
 31
0.0
  0
LINE
  5
22b
100
AcDbEntity
  8
0
 62
7
100
AcDbLine
 10
23221556.564583
 20
28514256.693750
 30
0.0
 11
27700720.622917
 21
26232008.485417
 31
0.0
  0
SPLINE
  5
22c
100
AcDbEntity
  8
0
 62
7
100
AcDbSpline
 70
8
 71
3
 72
8
 73
4
 74
0
 40
0
 40
0
 40
0
 40
0
 40
1
 40
1
 40
1
 40
1
 10
6451589.560448
 20
29704244.425081
 30
0.0
 10
6476683.854145
 20
29779863.881988
 30
0.0
 10
6435854.642628
 20
29861530.115321
 30
0.0
 10
6360304.436545
 20
29886832.134999
 30
0.0
  0
SPLINE
  5
22d
100
AcDbEntity
  8
0
 62
7
100
AcDbSpline
 70
8
 71
3
 72
8
 73
4
 74
0
 40
0
 40
0
 40
0
 40
0
 40
1
 40
1
 40
1
 40
1
 10
56057395.304964
 20
23185429.372890
 30
0.0
 10
56019693.650427
 20
23169862.688496
 30
0.0
 10
55990616.524968
 20
23138681.969602
 30
0.0
 10
55977716.852112
 20
23099986.558271
 30
0.0
  0
SPLINE
  5
22e
100
AcDbEntity
  8
0
 62
7
100
AcDbSpline
 70
8
 71
3
 72
8
 73
4
 74
0
 40
0
 40
0
 40
0
 40
0
 40
1
 40
1
 40
1
 40
1
 10
55977716.852112
 20
23099986.558271
 30
0.0
 10
55964817.179257
 20
23061291.146940
 30
0.0
 10
55969368.077265
 20
23018900.041942
 30
0.0
 10
55990187.428438
 20
22983824.537176
 30
0.0
  0
SPLINE
  5
22f
100
AcDbEntity
  8
0
 62
7
100
AcDbSpline
 70
8
 71
3
 72
8
 73
4
 74
0
 40
0
 40
0
 40
0
 40
0
 40
1
 40
1
 40
1
 40
1
 10
8795919.906320
 20
40427356.902386
 30
0.0
 10
8859316.152711
 20
40409545.309034
 30
0.0
 10
8927386.594752
 20
40427471.240512
 30
0.0
 10
8973787.279744
 20
40474197.179203
 30
0.0
  0
LINE
  5
230
100
AcDbEntity
  8
0
 62
7
100
AcDbLine
 10
54310083.414583
 20
41254891.666667
 30
0.0
 11
47320849.816667
 21
37693070.039583
 31
0.0
  0
SPLINE
  5
231
100
AcDbEntity
  8
0
 62
7
100
AcDbSpline
 70
8
 71
3
 72
8
 73
4
 74
0
 40
0
 40
0
 40
0
 40
0
 40
1
 40
1
 40
1
 40
1
 10
53772451.566031
 20
16196201.515440
 30
0.0
 10
53731474.929171
 20
16170709.085665
 30
0.0
 10
53718574.283243
 20
16117029.667554
 30
0.0
 10
53743491.969048
 20
16075701.013109
 30
0.0
  0
SPLINE
  5
232
100
AcDbEntity
  8
0
 62
7
100
AcDbSpline
 70
8
 71
3
 72
8
 73
4
 74
0
 40
0
 40
0
 40
0
 40
0
 40
1
 40
1
 40
1
 40
1
 10
54444481.664480
 20
41187682.113005
 30
0.0
 10
54420206.965900
 20
41238069.319814
 30
0.0
 10
54364959.351620
 20
41265697.365879
 30
0.0
 10
54310083.440113
 20
41254891.537017
 30
0.0
  0
SPLINE
  5
233
100
AcDbEntity
  8
0
 62
7
100
AcDbSpline
 70
8
 71
3
 72
8
 73
4
 74
0
 40
0
 40
0
 40
0
 40
0
 40
1
 40
1
 40
1
 40
1
 10
13828199.155874
 20
18648400.229961
 30
0.0
 10
13812461.095013
 20
18617623.632060
 30
0.0
 10
13810825.770885
 20
18581538.764578
 30
0.0
 10
13823715.516971
 20
18549464.787839
 30
0.0
  0
SPLINE
  5
234
100
AcDbEntity
  8
0
 62
7
100
AcDbSpline
 70
8
 71
3
 72
8
 73
4
 74
0
 40
0
 40
0
 40
0
 40
0
 40
1
 40
1
 40
1
 40
1
 10
13823715.516971
 20
18549464.787839
 30
0.0
 10
13836605.263056
 20
18517390.811100
 30
0.0
 10
13862756.240032
 20
18492472.577828
 30
0.0
 10
13895414.781775
 20
18481145.389772
 30
0.0
  0
SPLINE
  5
235
100
AcDbEntity
  8
0
 62
7
100
AcDbSpline
 70
8
 71
3
 72
8
 73
4
 74
0
 40
0
 40
0
 40
0
 40
0
 40
1
 40
1
 40
1
 40
1
 10
63078188.051124
 20
40406984.458747
 30
0.0
 10
63124595.550367
 20
40360265.836085
 30
0.0
 10
63192666.119553
 20
40342346.233665
 30
0.0
 10
63256061.579892
 20
40360159.186757
 30
0.0
  0
LINE
  5
236
100
AcDbEntity
  8
0
 62
7
100
AcDbLine
 10
47052033.414583
 20
37827478.372917
 30
0.0
 11
44968704.247917
 21
40792928.902083
 31
0.0
  0
LINE
  5
237
100
AcDbEntity
  8
0
 62
7
100
AcDbLine
 10
16923980.312500
 20
40179624.470833
 30
0.0
 11
11319910.579167
 21
42451594.145833
 31
0.0
  0
LINE
  5
238
100
AcDbEntity
  8
0
 62
7
100
AcDbLine
 10
60732073.100000
 20
42384389.714583
 30
0.0
 11
55128003.631250
 21
40112420.039583
 31
0.0
  0
SPLINE
  5
239
100
AcDbEntity
  8
0
 62
7
100
AcDbSpline
 70
8
 71
3
 72
8
 73
4
 74
0
 40
0
 40
0
 40
0
 40
0
 40
1
 40
1
 40
1
 40
1
 10
54135913.780960
 20
15044372.052762
 30
0.0
 10
54160362.867983
 20
15058157.508511
 30
0.0
 10
54178283.077660
 20
15081148.608219
 30
0.0
 10
54185682.221343
 20
15108223.491769
 30
0.0
  0
SPLINE
  5
23a
100
AcDbEntity
  8
0
 62
7
100
AcDbSpline
 70
8
 71
3
 72
8
 73
4
 74
0
 40
0
 40
0
 40
0
 40
0
 40
1
 40
1
 40
1
 40
1
 10
54185682.221343
 20
15108223.491769
 30
0.0
 10
54193081.365026
 20
15135298.375319
 30
0.0
 10
54189344.796615
 20
15164207.934934
 30
0.0
 10
54175304.933043
 20
15188511.820989
 30
0.0
  0
SPLINE
  5
23b
100
AcDbEntity
  8
0
 62
7
100
AcDbSpline
 70
8
 71
3
 72
8
 73
4
 74
0
 40
0
 40
0
 40
0
 40
0
 40
1
 40
1
 40
1
 40
1
 10
25604788.312530
 20
7728478.491498
 30
0.0
 10
32507531.674158
 20
6635246.114383
 30
0.0
 10
39537546.439464
 20
6612578.677692
 30
0.0
 10
46447196.191333
 20
7661274.655253
 30
0.0
  0
SPLINE
  5
23c
100
AcDbEntity
  8
0
 62
7
100
AcDbSpline
 70
8
 71
3
 72
8
 73
4
 74
0
 40
0
 40
0
 40
0
 40
0
 40
1
 40
1
 40
1
 40
1
 10
25541818.093202
 20
7795683.341851
 30
0.0
 10
25542293.299182
 20
7760377.424153
 30
0.0
 10
25569587.912814
 20
7731247.276521
 30
0.0
 10
25604788.300192
 20
7728478.454809
 30
0.0
  0
LINE
  5
23d
100
AcDbEntity
  8
0
 62
7
100
AcDbLine
 10
58223772.829167
 20
18581189.554167
 30
0.0
 11
55990187.316667
 21
22983824.470833
 31
0.0
  0
SPLINE
  5
23e
100
AcDbEntity
  8
0
 62
7
100
AcDbSpline
 70
8
 71
3
 72
8
 73
4
 74
0
 40
0
 40
0
 40
0
 40
0
 40
1
 40
1
 40
1
 40
1
 10
4435475.810538
 20
41590913.882651
 30
0.0
 10
4343261.419538
 20
41606665.418561
 30
0.0
 10
4254789.475433
 20
41547683.597667
 30
0.0
 10
4233863.030188
 20
41456504.166432
 30
0.0
  0
SPLINE
  5
23f
100
AcDbEntity
  8
0
 62
7
100
AcDbSpline
 70
8
 71
3
 72
8
 73
4
 74
0
 40
0
 40
0
 40
0
 40
0
 40
1
 40
1
 40
1
 40
1
 10
16923982.779676
 20
40179632.131806
 30
0.0
 10
16982681.367186
 20
40160728.563065
 30
0.0
 10
17046077.259170
 20
40189931.168720
 30
0.0
 10
17069859.058780
 20
40246828.401466
 30
0.0
  0
SPLINE
  5
240
100
AcDbEntity
  8
0
 62
7
100
AcDbSpline
 70
8
 71
3
 72
8
 73
4
 74
0
 40
0
 40
0
 40
0
 40
0
 40
1
 40
1
 40
1
 40
1
 10
17741900.044012
 20
41322093.367004
 30
0.0
 10
17687024.918691
 20
41332887.916961
 30
0.0
 10
17631782.337444
 20
41305267.234980
 30
0.0
 10
17607492.014163
 20
41254890.832938
 30
0.0
  0
LINE
  5
241
100
AcDbEntity
  8
0
 62
7
100
AcDbLine
 10
54175304.929167
 20
15188511.818750
 30
0.0
 11
53743491.964583
 21
16075701.010417
 31
0.0
  0
LINE
  5
242
100
AcDbEntity
  8
0
 62
7
100
AcDbLine
 10
6451600.264583
 20
29704240.872917
 30
0.0
 11
5645150.793750
 21
27755320.304167
 31
0.0
  0
SPLINE
  5
243
100
AcDbEntity
  8
0
 62
7
100
AcDbSpline
 70
8
 71
3
 72
8
 73
4
 74
0
 40
0
 40
0
 40
0
 40
0
 40
1
 40
1
 40
1
 40
1
 10
5645152.218027
 20
27755319.622096
 30
0.0
 10
5634444.479530
 20
27732960.101385
 30
0.0
 10
5633237.962928
 20
27707219.728695
 30
0.0
 10
5641807.254143
 20
27683956.644674
 30
0.0
  0
SPLINE
  5
244
100
AcDbEntity
  8
0
 62
7
100
AcDbSpline
 70
8
 71
3
 72
8
 73
4
 74
0
 40
0
 40
0
 40
0
 40
0
 40
1
 40
1
 40
1
 40
1
 10
5641807.254143
 20
27683956.644674
 30
0.0
 10
5650376.545357
 20
27660693.560652
 30
0.0
 10
5667992.649328
 20
27641886.770670
 30
0.0
 10
5690646.392761
 20
27631816.431124
 30
0.0
  0
SPLINE
  5
245
100
AcDbEntity
  8
0
 62
7
100
AcDbSpline
 70
8
 71
3
 72
8
 73
4
 74
0
 40
0
 40
0
 40
0
 40
0
 40
1
 40
1
 40
1
 40
1
 10
18308482.550386
 20
16142911.018336
 30
0.0
 10
18333386.276429
 20
16184237.920309
 30
0.0
 10
18320493.154209
 20
16237903.615626
 30
0.0
 10
18279533.545612
 20
16263406.926413
 30
0.0
  0
SPLINE
  5
246
100
AcDbEntity
  8
0
 62
7
100
AcDbSpline
 70
8
 71
3
 72
8
 73
4
 74
0
 40
0
 40
0
 40
0
 40
0
 40
1
 40
1
 40
1
 40
1
 10
17876696.037856
 20
15255705.814711
 30
0.0
 10
17862567.156437
 20
15231425.899851
 30
0.0
 10
17858779.237715
 20
15202489.541964
 30
0.0
 10
17866182.409816
 20
15175390.970072
 30
0.0
  0
SPLINE
  5
247
100
AcDbEntity
  8
0
 62
7
100
AcDbSpline
 70
8
 71
3
 72
8
 73
4
 74
0
 40
0
 40
0
 40
0
 40
0
 40
1
 40
1
 40
1
 40
1
 10
17866182.409816
 20
15175390.970072
 30
0.0
 10
17873585.581917
 20
15148292.398179
 30
0.0
 10
17891559.773329
 20
15125301.322104
 30
0.0
 10
17916071.010047
 20
15111577.662596
 30
0.0
  0
SPLINE
  5
248
100
AcDbEntity
  8
0
 62
7
100
AcDbSpline
 70
8
 71
3
 72
8
 73
4
 74
0
 40
0
 40
0
 40
0
 40
0
 40
1
 40
1
 40
1
 40
1
 10
46581607.837116
 20
11155882.250732
 30
0.0
 10
46535212.237867
 20
11137426.290045
 30
0.0
 10
46506037.234902
 20
11091129.495471
 30
0.0
 10
46509408.565659
 20
11041311.745186
 30
0.0
  0
LINE
  5
249
100
AcDbEntity
  8
0
 62
7
100
AcDbLine
 10
24731133.862500
 20
37760274.470833
 30
0.0
 11
17741900.529167
 21
41322095.833333
 31
0.0
  0
SPLINE
  5
24a
100
AcDbEntity
  8
0
 62
7
100
AcDbSpline
 70
8
 71
3
 72
8
 73
4
 74
0
 40
0
 40
0
 40
0
 40
0
 40
1
 40
1
 40
1
 40
1
 10
1545706.454526
 20
31317137.923311
 30
0.0
 10
1522968.195058
 20
31247615.270041
 30
0.0
 10
1559321.187480
 20
31172564.509553
 30
0.0
 10
1627968.825289
 20
31147307.241597
 30
0.0
  0
LINE
  5
24b
100
AcDbEntity
  8
0
 62
7
100
AcDbLine
 10
27083279.431250
 20
40792929.166667
 30
0.0
 11
24999950.000000
 21
37827478.637500
 31
0.0
  0
LINE
  5
24c
100
AcDbEntity
  8
0
 62
7
100
AcDbLine
 10
53772450.081250
 20
16196203.902083
 30
0.0
 11
58156568.927083
 21
18413940.872917
 31
0.0
  0
LINE
  5
24d
100
AcDbEntity
  8
0
 62
7
100
AcDbLine
 10
37701537.764583
 20
18951573.941667
 30
0.0
 11
34072513.029167
 21
18951574.470833
 31
0.0
  0
LINE
  5
24e
100
AcDbEntity
  8
0
 62
7
100
AcDbLine
 10
34072513.029167
 20
18951574.470833
 30
0.0
 11
34072512.764583
 21
20698883.068750
 31
0.0
  0
LINE
  5
24f
100
AcDbEntity
  8
0
 62
7
100
AcDbLine
 10
34072512.764583
 20
20698883.068750
 30
0.0
 11
37701537.764583
 21
20698883.333333
 31
0.0
  0
LINE
  5
250
100
AcDbEntity
  8
0
 62
7
100
AcDbLine
 10
37701537.764583
 20
20698883.333333
 30
0.0
 11
37701537.764583
 21
18951573.941667
 31
0.0
  0
LINE
  5
251
100
AcDbEntity
  8
0
 62
7
100
AcDbLine
 10
46510166.483333
 20
7728478.637500
 30
0.0
 11
46509408.452083
 21
11041311.737500
 31
0.0
  0
SPLINE
  5
252
100
AcDbEntity
  8
0
 62
7
100
AcDbSpline
 70
8
 71
3
 72
8
 73
4
 74
0
 40
0
 40
0
 40
0
 40
0
 40
1
 40
1
 40
1
 40
1
 10
67818105.405162
 20
41389295.647037
 30
0.0
 10
67797181.993671
 20
41480470.288504
 30
0.0
 10
67708718.335457
 20
41539452.202950
 30
0.0
 10
67616508.147978
 20
41523707.816009
 30
0.0
  0
SPLINE
  5
253
100
AcDbEntity
  8
0
 62
7
100
AcDbSpline
 70
8
 71
3
 72
8
 73
4
 74
0
 40
0
 40
0
 40
0
 40
0
 40
1
 40
1
 40
1
 40
1
 10
27956933.086264
 20
41068880.363386
 30
0.0
 10
33105568.587712
 20
38840679.454064
 30
0.0
 10
38946414.841977
 20
38840679.419159
 30
0.0
 10
44095050.370057
 20
41068880.266944
 30
0.0
  0
SPLINE
  5
254
100
AcDbEntity
  8
0
 62
7
100
AcDbSpline
 70
8
 71
3
 72
8
 73
4
 74
0
 40
0
 40
0
 40
0
 40
0
 40
1
 40
1
 40
1
 40
1
 10
60874305.917662
 20
42363312.510787
 30
0.0
 10
60835075.865598
 20
42397504.102162
 30
0.0
 10
60779533.021028
 20
42405734.920174
 30
0.0
 10
60732073.060239
 20
42384389.802990
 30
0.0
  0
LINE
  5
255
100
AcDbEntity
  8
0
 62
7
100
AcDbLine
 10
22513396.362500
 20
12768791.137500
 30
0.0
 11
25470379.960417
 21
11223095.304167
 31
0.0
  0
LINE
  5
256
100
AcDbEntity
  8
0
 62
7
100
AcDbLine
 10
18308492.243750
 20
16142905.177083
 30
0.0
 11
17876679.014583
 21
15255715.720833
 31
0.0
  0
LINE
  5
257
100
AcDbEntity
  8
0
 62
7
100
AcDbLine
 10
16061796.362500
 20
23051028.372917
 30
0.0
 11
13828210.850000
 21
18648394.250000
 31
0.0
  0
LINE
  5
258
100
AcDbEntity
  8
0
 62
7
100
AcDbLine
 10
5690646.427083
 20
27631816.508333
 30
0.0
 11
15994592.460417
 21
23252641.137500
 31
0.0
  0
SPLINE
  5
259
100
AcDbEntity
  8
0
 62
7
100
AcDbSpline
 70
8
 71
3
 72
8
 73
4
 74
0
 40
0
 40
0
 40
0
 40
0
 40
1
 40
1
 40
1
 40
1
 10
25542567.413969
 20
11108515.340573
 30
0.0
 10
25545951.270545
 20
11158335.093773
 30
0.0
 10
25516778.669846
 20
11204639.463425
 30
0.0
 10
25470379.952121
 20
11223095.283312
 30
0.0
  0
LINE
  5
25a
100
AcDbEntity
  8
0
 62
7
100
AcDbLine
 10
8795921.575000
 20
40427362.841667
 30
0.0
 11
4435475.529167
 21
41590912.235417
 31
0.0
  0
LINE
  5
25b
100
AcDbEntity
  8
0
 62
7
100
AcDbLine
 10
63078197.016667
 20
40406993.364583
 30
0.0
 11
60874305.427083
 21
42363311.947917
 31
0.0
  0
SPLINE
  5
25c
100
AcDbEntity
  8
0
 62
7
100
AcDbSpline
 70
8
 71
3
 72
8
 73
4
 74
0
 40
0
 40
0
 40
0
 40
0
 40
1
 40
1
 40
1
 40
1
 10
47052023.736098
 20
37827473.112639
 30
0.0
 10
47104595.322235
 20
37730745.649761
 30
0.0
 10
47211925.847652
 20
37677084.336036
 30
0.0
 10
47320849.828764
 20
37693069.957155
 30
0.0
  0
SPLINE
  5
25d
100
AcDbEntity
  8
0
 62
7
100
AcDbSpline
 70
8
 71
3
 72
8
 73
4
 74
0
 40
0
 40
0
 40
0
 40
0
 40
1
 40
1
 40
1
 40
1
 10
16061787.572583
 20
23051033.593948
 30
0.0
 10
16082619.466043
 20
23086105.327495
 30
0.0
 10
16087178.724201
 20
23128499.926458
 30
0.0
 10
16074280.405139
 20
23167199.120823
 30
0.0
  0
SPLINE
  5
25e
100
AcDbEntity
  8
0
 62
7
100
AcDbSpline
 70
8
 71
3
 72
8
 73
4
 74
0
 40
0
 40
0
 40
0
 40
0
 40
1
 40
1
 40
1
 40
1
 10
16074280.405139
 20
23167199.120823
 30
0.0
 10
16061382.086076
 20
23205898.315187
 30
0.0
 10
16032299.968605
 20
23237080.350073
 30
0.0
 10
15994592.435886
 20
23252641.078055
 30
0.0
  0
LINE
  5
25f
100
AcDbEntity
  8
0
 62
7
100
AcDbLine
 10
56057392.277083
 20
23185436.706250
 30
0.0
 11
66361337.516667
 21
27564612.341667
 31
0.0
  0
SPLINE
  5
260
100
AcDbEntity
  8
0
 62
7
100
AcDbSpline
 70
8
 71
3
 72
8
 73
4
 74
0
 40
0
 40
0
 40
0
 40
0
 40
1
 40
1
 40
1
 40
1
 10
44968699.290402
 20
40792925.142324
 30
0.0
 10
44765479.233117
 20
41060885.475278
 30
0.0
 10
44415320.043897
 20
41171488.569280
 30
0.0
 10
44095050.311178
 20
41068880.431087
 30
0.0
  0
LINE
  5
261
100
AcDbEntity
  8
0
 62
7
100
AcDbLine
 10
4233863.029167
 20
41456504.166667
 30
0.0
 11
1545696.627083
 21
31317141.137500
 31
0.0
  0
LINE
  5
262
100
AcDbEntity
  8
0
 62
7
100
AcDbLine
 10
11177677.722917
 20
42430515.850000
 30
0.0
 11
8973787.191667
 21
40474197.266667
 31
0.0
  0
SPLINE
  5
263
100
AcDbEntity
  8
0
 62
7
100
AcDbSpline
 70
8
 71
3
 72
8
 73
4
 74
0
 40
0
 40
0
 40
0
 40
0
 40
1
 40
1
 40
1
 40
1
 10
54982119.330740
 20
40179622.066172
 30
0.0
 10
55005910.021066
 20
40122728.972105
 30
0.0
 10
55069301.959244
 20
40093527.321343
 30
0.0
 10
55128003.605500
 20
40112420.119590
 30
0.0
  0
LINE
  5
264
100
AcDbEntity
  8
0
 62
7
100
AcDbLine
 10
49538586.787500
 20
12701586.970833
 30
0.0
 11
54135912.704167
 21
15044373.962500
 31
0.0
  0
SPLINE
  5
265
100
AcDbEntity
  8
0
 62
7
100
AcDbSpline
 70
8
 71
3
 72
8
 73
4
 74
0
 40
0
 40
0
 40
0
 40
0
 40
1
 40
1
 40
1
 40
1
 10
46447195.121916
 20
7661288.149040
 30
0.0
 10
46482387.607348
 20
7664061.990801
 30
0.0
 10
46509677.586293
 20
7693180.390962
 30
0.0
 10
46510166.541474
 20
7728478.636695
 30
0.0
  0
LINE
  5
266
100
AcDbEntity
  8
0
 62
7
100
AcDbLine
 10
17916070.975000
 20
15111577.600000
 30
0.0
 11
22513396.362500
 21
12768791.137500
 31
0.0
  0
LINE
  5
267
100
AcDbEntity
  8
0
 62
7
100
AcDbLine
 10
1627968.814583
 20
31147307.212500
 30
0.0
 11
6360304.462500
 21
29886832.212500
 31
0.0
  0
SPLINE
  5
268
100
AcDbEntity
  8
0
 62
7
100
AcDbSpline
 70
8
 71
3
 72
8
 73
4
 74
0
 40
0
 40
0
 40
0
 40
0
 40
1
 40
1
 40
1
 40
1
 10
70424021.027927
 20
31080085.579571
 30
0.0
 10
70492672.640151
 20
31105350.716941
 30
0.0
 10
70529026.186531
 20
31180407.825167
 30
0.0
 10
70506287.855230
 20
31249937.238490
 30
0.0
  0
SPLINE
  5
269
100
AcDbEntity
  8
0
 62
7
100
AcDbSpline
 70
8
 71
3
 72
8
 73
4
 74
0
 40
0
 40
0
 40
0
 40
0
 40
1
 40
1
 40
1
 40
1
 10
65691672.475998
 20
29819646.586995
 30
0.0
 10
65616118.903943
 20
29794335.272562
 30
0.0
 10
65575290.029001
 20
29712663.026735
 30
0.0
 10
65600383.859574
 20
29637036.942903
 30
0.0
  0
SPLINE
  5
26a
100
AcDbEntity
  8
0
 62
7
100
AcDbSpline
 70
8
 71
3
 72
8
 73
4
 74
0
 40
0
 40
0
 40
0
 40
0
 40
1
 40
1
 40
1
 40
1
 10
27956937.322946
 20
41068894.256066
 30
0.0
 10
27636669.480565
 20
41166681.340714
 30
0.0
 10
27289263.389916
 20
41056945.100957
 30
0.0
 10
27083279.376111
 20
40792929.209686
 30
0.0
  0
LINE
  5
26b
100
AcDbEntity
  8
0
 62
7
100
AcDbLine
 10
17607491.931250
 20
41254890.872917
 30
0.0
 11
17069859.127083
 21
40246828.372917
 31
0.0
  0
SPLINE
  5
26c
100
AcDbEntity
  8
0
 62
7
100
AcDbSpline
 70
8
 71
3
 72
8
 73
4
 74
0
 40
0
 40
0
 40
0
 40
0
 40
1
 40
1
 40
1
 40
1
 10
58156566.640778
 20
18413947.462757
 30
0.0
 10
58189220.504276
 20
18425276.522893
 30
0.0
 10
58215366.940956
 20
18450193.376442
 30
0.0
 10
58228254.542963
 20
18482264.112626
 30
0.0
  0
SPLINE
  5
26d
100
AcDbEntity
  8
0
 62
7
100
AcDbSpline
 70
8
 71
3
 72
8
 73
4
 74
0
 40
0
 40
0
 40
0
 40
0
 40
1
 40
1
 40
1
 40
1
 10
58228254.542963
 20
18482264.112626
 30
0.0
 10
58241142.144970
 20
18514334.848810
 30
0.0
 10
58239507.513038
 20
18550415.504574
 30
0.0
 10
58223772.734007
 20
18581189.505512
 30
0.0
  0
LINE
  5
26e
100
AcDbEntity
  8
0
 62
7
100
AcDbLine
 10
65691678.687500
 20
29819628.045833
 30
0.0
 11
70424014.600000
 21
31080103.045833
 31
0.0
  0
LINE
  5
26f
100
AcDbEntity
  8
0
 62
7
100
AcDbLine
 10
54982125.081250
 20
40179624.470833
 30
0.0
 11
54444491.747917
 21
41187686.970833
 31
0.0
  0
SPLINE
  5
270
100
AcDbEntity
  8
0
 62
7
100
AcDbSpline
 70
8
 71
3
 72
8
 73
4
 74
0
 40
0
 40
0
 40
0
 40
0
 40
1
 40
1
 40
1
 40
1
 10
11319916.503508
 20
42451607.321827
 30
0.0
 10
11272451.922271
 20
42472948.891310
 30
0.0
 10
11216906.982831
 20
42464712.549059
 30
0.0
 10
11177677.761176
 20
42430515.806111
 30
0.0
  0
LINE
  5
271
100
AcDbEntity
  8
0
 62
7
100
AcDbLine
 10
67616508.150000
 20
41523707.804167
 30
0.0
 11
63256061.575000
 21
40360159.204167
 31
0.0
  0
SPLINE
  5
272
100
AcDbEntity
  8
0
 62
7
100
AcDbSpline
 70
8
 71
3
 72
8
 73
4
 74
0
 40
0
 40
0
 40
0
 40
0
 40
1
 40
1
 40
1
 40
1
 10
66361340.981025
 20
27564604.551014
 30
0.0
 10
66383994.232127
 20
27574678.030767
 30
0.0
 10
66401609.280735
 20
27593486.692865
 30
0.0
 10
66410178.036172
 20
27616750.854360
 30
0.0
  0
SPLINE
  5
273
100
AcDbEntity
  8
0
 62
7
100
AcDbSpline
 70
8
 71
3
 72
8
 73
4
 74
0
 40
0
 40
0
 40
0
 40
0
 40
1
 40
1
 40
1
 40
1
 10
66410178.036172
 20
27616750.854360
 30
0.0
 10
66418746.791610
 20
27640015.015855
 30
0.0
 10
66417540.475248
 20
27665756.043578
 30
0.0
 10
66406833.569746
 20
27688116.878856
 30
0.0
  0
LINE
  5
274
100
AcDbEntity
  8
0
 62
7
100
AcDbLine
 10
25542574.697917
 20
11108514.845833
 30
0.0
 11
25541817.460417
 21
7795683.333333
 31
0.0
  0
LINE
  5
275
100
AcDbEntity
  8
0
 62
7
100
AcDbLine
 10
66406833.679167
 20
27688116.931250
 30
0.0
 11
65600383.943750
 21
29637036.970833
 31
0.0
  0
LINE
  5
276
100
AcDbEntity
  8
0
 62
7
100
AcDbLine
 10
46581604.512500
 20
11155890.608333
 30
0.0
 11
49538586.787500
 21
12701586.970833
 31
0.0
  0
LINE
  5
277
100
AcDbEntity
  8
0
 62
7
100
AcDbLine
 10
13895414.752083
 20
18481145.304167
 30
0.0
 11
18279533.597917
 21
16263407.010417
 31
0.0
  0
SPLINE
  5
278
100
AcDbEntity
  8
0
 62
7
100
AcDbSpline
 70
8
 71
3
 72
8
 73
4
 74
0
 40
0
 40
0
 40
0
 40
0
 40
1
 40
1
 40
1
 40
1
 10
24731135.512661
 20
37760280.528930
 30
0.0
 10
24826328.534781
 20
37734350.956397
 30
0.0
 10
24928155.691660
 20
37759805.662969
 30
0.0
 10
24999949.988356
 20
37827478.649853
 30
0.0
  0
LINE
  5
279
100
AcDbEntity
  8
0
 62
7
100
AcDbLine
 10
70506287.845833
 20
31249937.235417
 30
0.0
 11
67818120.914583
 21
41389299.206250
 31
0.0
  0
LINE
  5
27a
100
AcDbEntity
  8
0
 62
7
100
AcDbLine
 10
7082927.847917
 20
34296330.156250
 30
0.0
 11
3504977.750000
 21
35255039.133333
 31
0.0
  0
LINE
  5
27b
100
AcDbEntity
  8
0
 62
7
100
AcDbLine
 10
6124218.870833
 20
30718380.058333
 30
0.0
 11
7082927.847917
 21
34296330.156250
 31
0.0
  0
LINE
  5
27c
100
AcDbEntity
  8
0
 62
7
100
AcDbLine
 10
2546268.772917
 20
31677089.035417
 30
0.0
 11
6124218.870833
 21
30718380.058333
 31
0.0
  0
LINE
  5
27d
100
AcDbEntity
  8
0
 62
7
100
AcDbLine
 10
3504977.750000
 20
35255039.133333
 30
0.0
 11
2546268.772917
 21
31677089.035417
 31
0.0
  0
LINE
  5
27e
100
AcDbEntity
  8
0
 62
7
100
AcDbLine
 10
53722827.212500
 20
17219553.233333
 30
0.0
 11
57023263.789583
 21
18901209.710417
 31
0.0
  0
LINE
  5
27f
100
AcDbEntity
  8
0
 62
7
100
AcDbLine
 10
55341607.312500
 20
22201646.287500
 30
0.0
 11
52041170.735417
 21
20519989.810417
 31
0.0
  0
LINE
  5
280
100
AcDbEntity
  8
0
 62
7
100
AcDbLine
 10
52041170.735417
 20
20519989.810417
 30
0.0
 11
53722827.212500
 21
17219553.233333
 31
0.0
  0
LINE
  5
281
100
AcDbEntity
  8
0
 62
7
100
AcDbLine
 10
57023263.789583
 20
18901209.710417
 30
0.0
 11
55341607.312500
 21
22201646.287500
 31
0.0
  0
LINE
  5
282
100
AcDbEntity
  8
0
 62
7
100
AcDbLine
 10
66914972.056250
 20
40111056.112500
 30
0.0
 11
63337021.958333
 21
39152347.135417
 31
0.0
  0
LINE
  5
283
100
AcDbEntity
  8
0
 62
7
100
AcDbLine
 10
63337021.958333
 20
39152347.135417
 30
0.0
 11
64295730.935417
 21
35574397.037500
 31
0.0
  0
LINE
  5
284
100
AcDbEntity
  8
0
 62
7
100
AcDbLine
 10
64295730.935417
 20
35574397.037500
 30
0.0
 11
67873681.033333
 21
36533106.014583
 31
0.0
  0
LINE
  5
285
100
AcDbEntity
  8
0
 62
7
100
AcDbLine
 10
67873681.033333
 20
36533106.014583
 30
0.0
 11
66914972.056250
 21
40111056.112500
 31
0.0
  0
LINE
  5
286
100
AcDbEntity
  8
0
 62
7
100
AcDbLine
 10
48000277.327083
 20
17117951.116667
 30
0.0
 11
49681933.804167
 21
13817514.539583
 31
0.0
  0
LINE
  5
287
100
AcDbEntity
  8
0
 62
7
100
AcDbLine
 10
52982370.381250
 20
15499171.016667
 30
0.0
 11
51300713.904167
 21
18799607.593750
 31
0.0
  0
LINE
  5
288
100
AcDbEntity
  8
0
 62
7
100
AcDbLine
 10
51300713.904167
 20
18799607.593750
 30
0.0
 11
48000277.327083
 21
17117951.116667
 31
0.0
  0
LINE
  5
289
100
AcDbEntity
  8
0
 62
7
100
AcDbLine
 10
49681933.804167
 20
13817514.539583
 30
0.0
 11
52982370.381250
 21
15499171.016667
 31
0.0
  0
LINE
  5
28a
100
AcDbEntity
  8
0
 62
7
100
AcDbLine
 10
50182349.787500
 20
26926513.277083
 30
0.0
 11
53482786.364583
 21
28608169.754167
 31
0.0
  0
LINE
  5
28b
100
AcDbEntity
  8
0
 62
7
100
AcDbLine
 10
53482786.364583
 20
28608169.754167
 30
0.0
 11
51801129.887500
 21
31908606.331250
 31
0.0
  0
LINE
  5
28c
100
AcDbEntity
  8
0
 62
7
100
AcDbLine
 10
48500693.310417
 20
30226949.854167
 30
0.0
 11
50182349.787500
 21
26926513.277083
 31
0.0
  0
LINE
  5
28d
100
AcDbEntity
  8
0
 62
7
100
AcDbLine
 10
51801129.887500
 20
31908606.331250
 30
0.0
 11
48500693.310417
 21
30226949.854167
 31
0.0
  0
LINE
  5
28e
100
AcDbEntity
  8
0
 62
7
100
AcDbLine
 10
21499842.435417
 20
38037425.247917
 30
0.0
 11
18199405.858333
 21
39719081.725000
 31
0.0
  0
LINE
  5
28f
100
AcDbEntity
  8
0
 62
7
100
AcDbLine
 10
18199405.858333
 20
39719081.725000
 30
0.0
 11
16517749.381250
 21
36418645.147917
 31
0.0
  0
LINE
  5
290
100
AcDbEntity
  8
0
 62
7
100
AcDbLine
 10
16517749.381250
 20
36418645.147917
 30
0.0
 11
19818185.958333
 21
34736988.670833
 31
0.0
  0
LINE
  5
291
100
AcDbEntity
  8
0
 62
7
100
AcDbLine
 10
19818185.958333
 20
34736988.670833
 30
0.0
 11
21499842.435417
 21
38037425.247917
 31
0.0
  0
LINE
  5
292
100
AcDbEntity
  8
0
 62
7
100
AcDbLine
 10
20578605.602083
 20
33067797.243750
 30
0.0
 11
23879042.179167
 21
31386140.766667
 31
0.0
  0
LINE
  5
293
100
AcDbEntity
  8
0
 62
7
100
AcDbLine
 10
23879042.179167
 20
31386140.766667
 30
0.0
 11
25560698.656250
 21
34686577.343750
 31
0.0
  0
LINE
  5
294
100
AcDbEntity
  8
0
 62
7
100
AcDbLine
 10
22260262.079167
 20
36368233.820833
 30
0.0
 11
20578605.602083
 21
33067797.243750
 31
0.0
  0
LINE
  5
295
100
AcDbEntity
  8
0
 62
7
100
AcDbLine
 10
25560698.656250
 20
34686577.343750
 30
0.0
 11
22260262.079167
 21
36368233.820833
 31
0.0
  0
LINE
  5
296
100
AcDbEntity
  8
0
 62
7
100
AcDbLine
 10
36722470.158333
 20
7879474.493750
 30
0.0
 11
40426636.825000
 21
7879474.493750
 31
0.0
  0
LINE
  5
297
100
AcDbEntity
  8
0
 62
7
100
AcDbLine
 10
40426636.825000
 20
11583641.160417
 30
0.0
 11
36722470.158333
 21
11583641.160417
 31
0.0
  0
LINE
  5
298
100
AcDbEntity
  8
0
 62
7
100
AcDbLine
 10
36722470.158333
 20
11583641.160417
 30
0.0
 11
36722470.158333
 21
7879474.493750
 31
0.0
  0
LINE
  5
299
100
AcDbEntity
  8
0
 62
7
100
AcDbLine
 10
40426636.825000
 20
7879474.493750
 30
0.0
 11
40426636.825000
 21
11583641.160417
 31
0.0
  0
LINE
  5
29a
100
AcDbEntity
  8
0
 62
7
100
AcDbLine
 10
41829987.354167
 20
8349903.395833
 30
0.0
 11
45534154.020833
 21
8349903.395833
 31
0.0
  0
LINE
  5
29b
100
AcDbEntity
  8
0
 62
7
100
AcDbLine
 10
45534154.020833
 20
12054070.062500
 30
0.0
 11
41829987.354167
 21
12054070.062500
 31
0.0
  0
LINE
  5
29c
100
AcDbEntity
  8
0
 62
7
100
AcDbLine
 10
41829987.354167
 20
12054070.062500
 30
0.0
 11
41829987.354167
 21
8349903.395833
 31
0.0
  0
LINE
  5
29d
100
AcDbEntity
  8
0
 62
7
100
AcDbLine
 10
45534154.020833
 20
8349903.395833
 30
0.0
 11
45534154.020833
 21
12054070.062500
 31
0.0
  0
LINE
  5
29e
100
AcDbEntity
  8
0
 62
7
100
AcDbLine
 10
58416559.622917
 20
34758774.462500
 30
0.0
 11
59804164.797917
 21
31324330.925000
 31
0.0
  0
LINE
  5
29f
100
AcDbEntity
  8
0
 62
7
100
AcDbLine
 10
59804164.797917
 20
31324330.925000
 30
0.0
 11
63238608.335417
 21
32711936.100000
 31
0.0
  0
LINE
  5
2a0
100
AcDbEntity
  8
0
 62
7
100
AcDbLine
 10
61851003.160417
 20
36146379.637500
 30
0.0
 11
58416559.622917
 21
34758774.462500
 31
0.0
  0
LINE
  5
2a1
100
AcDbEntity
  8
0
 62
7
100
AcDbLine
 10
63238608.335417
 20
32711936.100000
 30
0.0
 11
61851003.160417
 21
36146379.637500
 31
0.0
  0
LINE
  5
2a2
100
AcDbEntity
  8
0
 62
7
100
AcDbLine
 10
18796774.170833
 20
15479633.654167
 30
0.0
 11
22097210.747917
 21
13797977.177083
 31
0.0
  0
LINE
  5
2a3
100
AcDbEntity
  8
0
 62
7
100
AcDbLine
 10
20478430.647917
 20
18780070.231250
 30
0.0
 11
18796774.170833
 21
15479633.654167
 31
0.0
  0
LINE
  5
2a4
100
AcDbEntity
  8
0
 62
7
100
AcDbLine
 10
22097210.747917
 20
13797977.177083
 30
0.0
 11
23778867.225000
 21
17098413.754167
 31
0.0
  0
LINE
  5
2a5
100
AcDbEntity
  8
0
 62
7
100
AcDbLine
 10
23778867.225000
 20
17098413.754167
 30
0.0
 11
20478430.647917
 21
18780070.231250
 31
0.0
  0
LINE
  5
2a6
100
AcDbEntity
  8
0
 62
7
100
AcDbLine
 10
53523921.664583
 20
39717692.133333
 30
0.0
 11
50223485.087500
 21
38036035.656250
 31
0.0
  0
LINE
  5
2a7
100
AcDbEntity
  8
0
 62
7
100
AcDbLine
 10
50223485.087500
 20
38036035.656250
 30
0.0
 11
51905141.564583
 21
34735599.079167
 31
0.0
  0
LINE
  5
2a8
100
AcDbEntity
  8
0
 62
7
100
AcDbLine
 10
51905141.564583
 20
34735599.079167
 30
0.0
 11
55205578.141667
 21
36417255.556250
 31
0.0
  0
LINE
  5
2a9
100
AcDbEntity
  8
0
 62
7
100
AcDbLine
 10
55205578.141667
 20
36417255.556250
 30
0.0
 11
53523921.664583
 21
39717692.133333
 31
0.0
  0
LINE
  5
2aa
100
AcDbEntity
  8
0
 62
7
100
AcDbLine
 10
17535938.808333
 20
30257824.612500
 30
0.0
 11
19217595.285417
 21
33558261.189583
 31
0.0
  0
LINE
  5
2ab
100
AcDbEntity
  8
0
 62
7
100
AcDbLine
 10
19217595.285417
 20
33558261.189583
 30
0.0
 11
15917158.708333
 21
35239917.666667
 31
0.0
  0
LINE
  5
2ac
100
AcDbEntity
  8
0
 62
7
100
AcDbLine
 10
15917158.708333
 20
35239917.666667
 30
0.0
 11
14235502.231250
 21
31939481.089583
 31
0.0
  0
LINE
  5
2ad
100
AcDbEntity
  8
0
 62
7
100
AcDbLine
 10
14235502.231250
 20
31939481.089583
 30
0.0
 11
17535938.808333
 21
30257824.612500
 31
0.0
  0
LINE
  5
2ae
100
AcDbEntity
  8
0
 62
7
100
AcDbLine
 10
16014109.450000
 20
24109468.597917
 30
0.0
 11
19314546.027083
 21
22427812.120833
 31
0.0
  0
LINE
  5
2af
100
AcDbEntity
  8
0
 62
7
100
AcDbLine
 10
19314546.027083
 20
22427812.120833
 30
0.0
 11
20996202.504167
 21
25728248.697917
 31
0.0
  0
LINE
  5
2b0
100
AcDbEntity
  8
0
 62
7
100
AcDbLine
 10
17695765.927083
 20
27409905.175000
 30
0.0
 11
16014109.450000
 21
24109468.597917
 31
0.0
  0
LINE
  5
2b1
100
AcDbEntity
  8
0
 62
7
100
AcDbLine
 10
20996202.504167
 20
25728248.697917
 30
0.0
 11
17695765.927083
 21
27409905.175000
 31
0.0
  0
LINE
  5
2b2
100
AcDbEntity
  8
0
 62
7
100
AcDbLine
 10
69177077.800000
 20
31675343.314583
 30
0.0
 11
68218368.822917
 21
35253293.412500
 31
0.0
  0
LINE
  5
2b3
100
AcDbEntity
  8
0
 62
7
100
AcDbLine
 10
65599127.702083
 20
30716634.337500
 30
0.0
 11
69177077.800000
 21
31675343.314583
 31
0.0
  0
LINE
  5
2b4
100
AcDbEntity
  8
0
 62
7
100
AcDbLine
 10
68218368.822917
 20
35253293.412500
 30
0.0
 11
64640418.725000
 21
34294584.435417
 31
0.0
  0
LINE
  5
2b5
100
AcDbEntity
  8
0
 62
7
100
AcDbLine
 10
64640418.725000
 20
34294584.435417
 30
0.0
 11
65599127.702083
 21
30716634.337500
 31
0.0
  0
LINE
  5
2b6
100
AcDbEntity
  8
0
 62
7
100
AcDbLine
 10
54787980.710417
 20
29077707.804167
 30
0.0
 11
56469637.187500
 21
25777271.227083
 31
0.0
  0
LINE
  5
2b7
100
AcDbEntity
  8
0
 62
7
100
AcDbLine
 10
58088417.287500
 20
30759364.281250
 30
0.0
 11
54787980.710417
 21
29077707.804167
 31
0.0
  0
LINE
  5
2b8
100
AcDbEntity
  8
0
 62
7
100
AcDbLine
 10
59770073.764583
 20
27458927.704167
 30
0.0
 11
58088417.287500
 21
30759364.281250
 31
0.0
  0
LINE
  5
2b9
100
AcDbEntity
  8
0
 62
7
100
AcDbLine
 10
56469637.187500
 20
25777271.227083
 30
0.0
 11
59770073.764583
 21
27458927.704167
 31
0.0
  0
LINE
  5
2ba
100
AcDbEntity
  8
0
 62
7
100
AcDbLine
 10
11423635.447917
 20
30099234.685417
 30
0.0
 11
7989191.910417
 21
31486839.860417
 31
0.0
  0
LINE
  5
2bb
100
AcDbEntity
  8
0
 62
7
100
AcDbLine
 10
10036030.272917
 20
26664791.147917
 30
0.0
 11
11423635.447917
 21
30099234.685417
 31
0.0
  0
LINE
  5
2bc
100
AcDbEntity
  8
0
 62
7
100
AcDbLine
 10
7989191.910417
 20
31486839.860417
 30
0.0
 11
6601586.735417
 21
28052396.322917
 31
0.0
  0
LINE
  5
2bd
100
AcDbEntity
  8
0
 62
7
100
AcDbLine
 10
6601586.735417
 20
28052396.322917
 30
0.0
 11
10036030.272917
 21
26664791.147917
 31
0.0
  0
LINE
  5
2be
100
AcDbEntity
  8
0
 62
7
100
AcDbLine
 10
30212242.195833
 20
8440390.631250
 30
0.0
 11
30212242.195833
 21
12144557.297917
 31
0.0
  0
LINE
  5
2bf
100
AcDbEntity
  8
0
 62
7
100
AcDbLine
 10
26508075.529167
 20
12144557.297917
 30
0.0
 11
26508075.529167
 21
8440390.631250
 31
0.0
  0
LINE
  5
2c0
100
AcDbEntity
  8
0
 62
7
100
AcDbLine
 10
26508075.529167
 20
8440390.631250
 30
0.0
 11
30212242.195833
 21
8440390.631250
 31
0.0
  0
LINE
  5
2c1
100
AcDbEntity
  8
0
 62
7
100
AcDbLine
 10
30212242.195833
 20
12144557.297917
 30
0.0
 11
26508075.529167
 21
12144557.297917
 31
0.0
  0
LINE
  5
2c2
100
AcDbEntity
  8
0
 62
7
100
AcDbLine
 10
10367943.450000
 20
37374457.202083
 30
0.0
 11
13802386.987500
 21
35986852.027083
 31
0.0
  0
LINE
  5
2c3
100
AcDbEntity
  8
0
 62
7
100
AcDbLine
 10
13802386.987500
 20
35986852.027083
 30
0.0
 11
15189992.162500
 21
39421295.564583
 31
0.0
  0
LINE
  5
2c4
100
AcDbEntity
  8
0
 62
7
100
AcDbLine
 10
15189992.162500
 20
39421295.564583
 30
0.0
 11
11755548.625000
 21
40808900.739583
 31
0.0
  0
LINE
  5
2c5
100
AcDbEntity
  8
0
 62
7
100
AcDbLine
 10
11755548.625000
 20
40808900.739583
 30
0.0
 11
10367943.450000
 21
37374457.202083
 31
0.0
  0
LINE
  5
2c6
100
AcDbEntity
  8
0
 62
7
100
AcDbLine
 10
18056316.810417
 20
17200016.929167
 30
0.0
 11
19737973.287500
 21
20500453.506250
 31
0.0
  0
LINE
  5
2c7
100
AcDbEntity
  8
0
 62
7
100
AcDbLine
 10
14755880.233333
 20
18881673.406250
 30
0.0
 11
18056316.810417
 21
17200016.929167
 31
0.0
  0
LINE
  5
2c8
100
AcDbEntity
  8
0
 62
7
100
AcDbLine
 10
16437536.710417
 20
22182109.983333
 30
0.0
 11
14755880.233333
 21
18881673.406250
 31
0.0
  0
LINE
  5
2c9
100
AcDbEntity
  8
0
 62
7
100
AcDbLine
 10
19737973.287500
 20
20500453.506250
 30
0.0
 11
16437536.710417
 21
22182109.983333
 31
0.0
  0
LINE
  5
2ca
100
AcDbEntity
  8
0
 62
7
100
AcDbLine
 10
48268519.054167
 20
27644133.656250
 30
0.0
 11
44968082.477083
 21
25962477.179167
 31
0.0
  0
LINE
  5
2cb
100
AcDbEntity
  8
0
 62
7
100
AcDbLine
 10
44968082.477083
 20
25962477.179167
 30
0.0
 11
46649738.954167
 21
22662040.602083
 31
0.0
  0
LINE
  5
2cc
100
AcDbEntity
  8
0
 62
7
100
AcDbLine
 10
49950175.531250
 20
24343697.079167
 30
0.0
 11
48268519.054167
 21
27644133.656250
 31
0.0
  0
LINE
  5
2cd
100
AcDbEntity
  8
0
 62
7
100
AcDbLine
 10
46649738.954167
 20
22662040.602083
 30
0.0
 11
49950175.531250
 21
24343697.079167
 31
0.0
  0
LINE
  5
2ce
100
AcDbEntity
  8
0
 62
7
100
AcDbLine
 10
8382045.508333
 20
39156829.441667
 30
0.0
 11
4804095.410417
 21
40115538.418750
 31
0.0
  0
LINE
  5
2cf
100
AcDbEntity
  8
0
 62
7
100
AcDbLine
 10
7423336.531250
 20
35578879.343750
 30
0.0
 11
8382045.508333
 21
39156829.441667
 31
0.0
  0
LINE
  5
2d0
100
AcDbEntity
  8
0
 62
7
100
AcDbLine
 10
4804095.410417
 20
40115538.418750
 30
0.0
 11
3845386.433333
 21
36537588.320833
 31
0.0
  0
LINE
  5
2d1
100
AcDbEntity
  8
0
 62
7
100
AcDbLine
 10
3845386.433333
 20
36537588.320833
 30
0.0
 11
7423336.531250
 21
35578879.343750
 31
0.0
  0
LINE
  5
2d2
100
AcDbEntity
  8
0
 62
7
100
AcDbLine
 10
11953253.493750
 20
27460316.766667
 30
0.0
 11
15253690.070833
 21
25778660.289583
 31
0.0
  0
LINE
  5
2d3
100
AcDbEntity
  8
0
 62
7
100
AcDbLine
 10
15253690.070833
 20
25778660.289583
 30
0.0
 11
16935346.547917
 21
29079096.866667
 31
0.0
  0
LINE
  5
2d4
100
AcDbEntity
  8
0
 62
7
100
AcDbLine
 10
16935346.547917
 20
29079096.866667
 30
0.0
 11
13634909.970833
 21
30760753.343750
 31
0.0
  0
LINE
  5
2d5
100
AcDbEntity
  8
0
 62
7
100
AcDbLine
 10
13634909.970833
 20
30760753.343750
 30
0.0
 11
11953253.493750
 21
27460316.766667
 31
0.0
  0
LINE
  5
2d6
100
AcDbEntity
  8
0
 62
7
100
AcDbLine
 10
59967824.935417
 20
40807409.547917
 30
0.0
 11
56533381.397917
 21
39419804.372917
 31
0.0
  0
LINE
  5
2d7
100
AcDbEntity
  8
0
 62
7
100
AcDbLine
 10
57920986.572917
 20
35985360.835417
 30
0.0
 11
61355430.110417
 21
37372966.010417
 31
0.0
  0
LINE
  5
2d8
100
AcDbEntity
  8
0
 62
7
100
AcDbLine
 10
61355430.110417
 20
37372966.010417
 30
0.0
 11
59967824.935417
 21
40807409.547917
 31
0.0
  0
LINE
  5
2d9
100
AcDbEntity
  8
0
 62
7
100
AcDbLine
 10
56533381.397917
 20
39419804.372917
 30
0.0
 11
57920986.572917
 21
35985360.835417
 31
0.0
  0
LINE
  5
2da
100
AcDbEntity
  8
0
 62
7
100
AcDbLine
 10
21596793.441667
 20
26906976.443750
 30
0.0
 11
23278449.918750
 21
30207413.020833
 31
0.0
  0
LINE
  5
2db
100
AcDbEntity
  8
0
 62
7
100
AcDbLine
 10
19978013.341667
 20
31889069.497917
 30
0.0
 11
18296356.864583
 21
28588632.920833
 31
0.0
  0
LINE
  5
2dc
100
AcDbEntity
  8
0
 62
7
100
AcDbLine
 10
23278449.918750
 20
30207413.020833
 30
0.0
 11
19978013.341667
 21
31889069.497917
 31
0.0
  0
LINE
  5
2dd
100
AcDbEntity
  8
0
 62
7
100
AcDbLine
 10
18296356.864583
 20
28588632.920833
 30
0.0
 11
21596793.441667
 21
26906976.443750
 31
0.0
  0
LINE
  5
2de
100
AcDbEntity
  8
0
 62
7
100
AcDbLine
 10
27411653.012500
 20
27121667.562500
 30
0.0
 11
29093309.489583
 21
30422104.139583
 31
0.0
  0
LINE
  5
2df
100
AcDbEntity
  8
0
 62
7
100
AcDbLine
 10
29093309.489583
 20
30422104.139583
 30
0.0
 11
25792872.912500
 21
32103760.616667
 31
0.0
  0
LINE
  5
2e0
100
AcDbEntity
  8
0
 62
7
100
AcDbLine
 10
24111216.435417
 20
28803324.039583
 30
0.0
 11
27411653.012500
 21
27121667.562500
 31
0.0
  0
LINE
  5
2e1
100
AcDbEntity
  8
0
 62
7
100
AcDbLine
 10
25792872.912500
 20
32103760.616667
 30
0.0
 11
24111216.435417
 21
28803324.039583
 31
0.0
  0
LINE
  5
2e2
100
AcDbEntity
  8
0
 62
7
100
AcDbLine
 10
42685834.797917
 20
30441641.502083
 30
0.0
 11
44367491.275000
 21
27141204.925000
 31
0.0
  0
LINE
  5
2e3
100
AcDbEntity
  8
0
 62
7
100
AcDbLine
 10
47667927.852083
 20
28822861.402083
 30
0.0
 11
45986271.375000
 21
32123297.979167
 31
0.0
  0
LINE
  5
2e4
100
AcDbEntity
  8
0
 62
7
100
AcDbLine
 10
44367491.275000
 20
27141204.925000
 30
0.0
 11
47667927.852083
 21
28822861.402083
 31
0.0
  0
LINE
  5
2e5
100
AcDbEntity
  8
0
 62
7
100
AcDbLine
 10
45986271.375000
 20
32123297.979167
 30
0.0
 11
42685834.797917
 21
30441641.502083
 31
0.0
  0
LINE
  5
2e6
100
AcDbEntity
  8
0
 62
7
100
AcDbLine
 10
46218446.425000
 20
34706114.177083
 30
0.0
 11
47900102.902083
 21
31405677.600000
 31
0.0
  0
LINE
  5
2e7
100
AcDbEntity
  8
0
 62
7
100
AcDbLine
 10
49518883.002083
 20
36387770.654167
 30
0.0
 11
46218446.425000
 21
34706114.177083
 31
0.0
  0
LINE
  5
2e8
100
AcDbEntity
  8
0
 62
7
100
AcDbLine
 10
51200539.479167
 20
33087334.077083
 30
0.0
 11
49518883.002083
 21
36387770.654167
 31
0.0
  0
LINE
  5
2e9
100
AcDbEntity
  8
0
 62
7
100
AcDbLine
 10
47900102.902083
 20
31405677.600000
 30
0.0
 11
51200539.479167
 21
33087334.077083
 31
0.0
  0
LINE
  5
2ea
100
AcDbEntity
  8
0
 62
7
100
AcDbLine
 10
35313408.333333
 20
7880349.470833
 30
0.0
 11
35313408.333333
 21
11584516.137500
 31
0.0
  0
LINE
  5
2eb
100
AcDbEntity
  8
0
 62
7
100
AcDbLine
 10
31609241.666667
 20
11584516.137500
 30
0.0
 11
31609241.666667
 21
7880349.470833
 31
0.0
  0
LINE
  5
2ec
100
AcDbEntity
  8
0
 62
7
100
AcDbLine
 10
35313408.333333
 20
11584516.137500
 30
0.0
 11
31609241.666667
 21
11584516.137500
 31
0.0
  0
LINE
  5
2ed
100
AcDbEntity
  8
0
 62
7
100
AcDbLine
 10
31609241.666667
 20
7880349.470833
 30
0.0
 11
35313408.333333
 21
7880349.470833
 31
0.0
  0
LINE
  5
2ee
100
AcDbEntity
  8
0
 62
7
100
AcDbLine
 10
54187389.772917
 20
30256434.491667
 30
0.0
 11
57487826.350000
 21
31938090.968750
 31
0.0
  0
LINE
  5
2ef
100
AcDbEntity
  8
0
 62
7
100
AcDbLine
 10
57487826.350000
 20
31938090.968750
 30
0.0
 11
55806169.872917
 21
35238527.545833
 31
0.0
  0
LINE
  5
2f0
100
AcDbEntity
  8
0
 62
7
100
AcDbLine
 10
52505733.295833
 20
33556871.068750
 30
0.0
 11
54187389.772917
 21
30256434.491667
 31
0.0
  0
LINE
  5
2f1
100
AcDbEntity
  8
0
 62
7
100
AcDbLine
 10
55806169.872917
 20
35238527.545833
 30
0.0
 11
52505733.295833
 21
33556871.068750
 31
0.0
  0
LINE
  5
2f2
100
AcDbEntity
  8
0
 62
7
100
AcDbLine
 10
63734181.650000
 20
31485348.668750
 30
0.0
 11
60299738.112500
 21
30097743.493750
 31
0.0
  0
LINE
  5
2f3
100
AcDbEntity
  8
0
 62
7
100
AcDbLine
 10
65121786.825000
 20
28050905.131250
 30
0.0
 11
63734181.650000
 21
31485348.668750
 31
0.0
  0
LINE
  5
2f4
100
AcDbEntity
  8
0
 62
7
100
AcDbLine
 10
61687343.287500
 20
26663299.956250
 30
0.0
 11
65121786.825000
 21
28050905.131250
 31
0.0
  0
LINE
  5
2f5
100
AcDbEntity
  8
0
 62
7
100
AcDbLine
 10
60299738.112500
 20
30097743.493750
 30
0.0
 11
61687343.287500
 21
26663299.956250
 31
0.0
  0
LINE
  5
2f6
100
AcDbEntity
  8
0
 62
7
100
AcDbLine
 10
9872446.864583
 20
36147762.350000
 30
0.0
 11
8484841.689583
 21
32713318.812500
 31
0.0
  0
LINE
  5
2f7
100
AcDbEntity
  8
0
 62
7
100
AcDbLine
 10
11919285.227083
 20
31325713.637500
 30
0.0
 11
13306890.402083
 21
34760157.175000
 31
0.0
  0
LINE
  5
2f8
100
AcDbEntity
  8
0
 62
7
100
AcDbLine
 10
8484841.689583
 20
32713318.812500
 30
0.0
 11
11919285.227083
 21
31325713.637500
 31
0.0
  0
LINE
  5
2f9
100
AcDbEntity
  8
0
 62
7
100
AcDbLine
 10
13306890.402083
 20
34760157.175000
 30
0.0
 11
9872446.864583
 21
36147762.350000
 31
0.0
  0
LINE
  5
2fa
100
AcDbEntity
  8
0
 62
7
100
AcDbLine
 10
50782941.518750
 20
25747785.266667
 30
0.0
 11
52464597.995833
 21
22447348.689583
 31
0.0
  0
LINE
  5
2fb
100
AcDbEntity
  8
0
 62
7
100
AcDbLine
 10
54083378.095833
 20
27429441.743750
 30
0.0
 11
50782941.518750
 21
25747785.266667
 31
0.0
  0
LINE
  5
2fc
100
AcDbEntity
  8
0
 62
7
100
AcDbLine
 10
52464597.995833
 20
22447348.689583
 30
0.0
 11
55765034.572917
 21
24129005.166667
 31
0.0
  0
LINE
  5
2fd
100
AcDbEntity
  8
0
 62
7
100
AcDbLine
 10
55765034.572917
 20
24129005.166667
 30
0.0
 11
54083378.095833
 21
27429441.743750
 31
0.0
  0
LINE
  5
2fe
100
AcDbEntity
  8
0
 62
7
100
AcDbLine
 10
23510624.439583
 20
27624597.087500
 30
0.0
 11
21828967.962500
 21
24324160.510417
 31
0.0
  0
LINE
  5
2ff
100
AcDbEntity
  8
0
 62
7
100
AcDbLine
 10
26811061.016667
 20
25942940.610417
 30
0.0
 11
23510624.439583
 21
27624597.087500
 31
0.0
  0
LINE
  5
300
100
AcDbEntity
  8
0
 62
7
100
AcDbLine
 10
25129404.539583
 20
22642504.033333
 30
0.0
 11
26811061.016667
 21
25942940.610417
 31
0.0
  0
LINE
  5
301
100
AcDbEntity
  8
0
 62
7
100
AcDbLine
 10
21828967.962500
 20
24324160.510417
 30
0.0
 11
25129404.539583
 21
22642504.033333
 31
0.0
  0
ENDSEC
  0
SECTION
  2
OBJECTS
  0
DICTIONARY
  5
C
330
0
100
AcDbDictionary
  3
ACAD_GROUP
350
D
  3
ACAD_MLINESTYLE
350
17
  0
DICTIONARY
  5
D
330
C
100
AcDbDictionary
  0
DICTIONARY
  5
1A
330
C
100
AcDbDictionary
  0
DICTIONARY
  5
17
330
C
100
AcDbDictionary
  3
STANDARD
350
18
  0
DICTIONARY
  5
19
330
C
100
AcDbDictionary
  0
ENDSEC
  0
EOF
