  0
SECTION
  2
HEADER
  9
$ACADVER
  1
AC1014
  9
$HANDSEED
  5
FFFF
  9
$INSUNITS
 70
     4
  9
$MEASUREMENT
 70
     1
  0
ENDSEC
  0
SECTION
  2
TABLES
  0
TABLE
  2
VPORT
  5
8
330
0
100
AcDbSymbolTable
 70
     4
  0
VPORT
  5
2E
330
8
100
AcDbSymbolTableRecord
100
AcDbViewportTableRecord
  2
*ACTIVE
 70
     0
 10
0.0
 20
0.0
 11
1.0
 21
1.0
 12
210.0
 22
148.5
 13
0.0
 23
0.0
 14
10.0
 24
10.0
 15
10.0
 25
10.0
 16
0.0
 26
0.0
 36
1.0
 17
0.0
 27
0.0
 37
0.0
 40
341.0
 41
1.24
 42
50.0
 43
0.0
 44
0.0
 50
0.0
 51
0.0
 71
     0
 72
   100
 73
     1
 74
     3
 75
     0
 76
     0
 77
     0
 78
     0
  0
ENDTAB
  0
TABLE
  2
LTYPE
  5
5
330
0
100
AcDbSymbolTable
 70
     1
  0
LTYPE
  5
14
330
5
100
AcDbSymbolTableRecord
100
AcDbLinetypeTableRecord
  2
BYBLOCK
 70
     0
  3

 72
    65
 73
     0
 40
0.0
  0
LTYPE
  5
15
330
5
100
AcDbSymbolTableRecord
100
AcDbLinetypeTableRecord
  2
BYLAYER
 70
     0
  3

 72
    65
 73
     0
 40
0.0
  0
LTYPE
  5
16
330
5
100
AcDbSymbolTableRecord
100
AcDbLinetypeTableRecord
  2
CONTINUOUS
 70
     0
  3
Solid line
 72
    65
 73
     0
 40
0.0
  0
ENDTAB
  0
TABLE
  2
LAYER
  5
2
100
AcDbSymbolTable
 70
1
  0
LAYER
  5
50
100
AcDbSymbolTableRecord
100
AcDbLayerTableRecord
  2
0
 70
0
  6
CONTINUOUS
  0
ENDTAB
  0
TABLE
  2
STYLE
  5
3
330
0
100
AcDbSymbolTable
 70
     1
  0
STYLE
  5
11
330
3
100
AcDbSymbolTableRecord
100
AcDbTextStyleTableRecord
  2
STANDARD
 70
     0
 40
0.0
 41
1.0
 50
0.0
 71
     0
 42
2.5
  3
txt
  4

  0
ENDTAB
  0
TABLE
  2
VIEW
  5
6
330
0
100
AcDbSymbolTable
 70
     0
  0
ENDTAB
  0
TABLE
  2
UCS
  5
7
330
0
100
AcDbSymbolTable
 70
     0
  0
ENDTAB
  0
TABLE
  2
APPID
  5
9
330
0
100
AcDbSymbolTable
 70
     2
  0
APPID
  5
12
330
9
100
AcDbSymbolTableRecord
100
AcDbRegAppTableRecord
  2
ACAD
 70
     0
  0
ENDTAB
  0
TABLE
  2
DIMSTYLE
  5
A
330
0
100
AcDbSymbolTable
 70
     1
  0
DIMSTYLE
105
27
330
A
100
AcDbSymbolTableRecord
100
AcDbDimStyleTableRecord
  2
ISO-25
 70
     0
  3

  4

  5

  6

  7

 40
1.0
 41
2.5
 42
0.625
 43
3.75
 44
1.25
 45
0.0
 46
0.0
 47
0.0
 48
0.0
140
2.5
141
2.5
142
0.0
143
0.03937007874016
144
1.0
145
0.0
146
1.0
147
0.625
 71
     0
 72
     0
 73
     0
 74
     0
 75
     0
 76
     0
 77
     1
 78
     8
170
     0
171
     3
172
     1
173
     0
174
     0
175
     0
176
     0
177
     0
178
     0
270
     2
271
     2
272
     2
273
     2
274
     3
340
11
275
     0
280
     0
281
     0
282
     0
283
     0
284
     8
285
     0
286
     0
287
     3
288
     0
  0
ENDTAB
  0
TABLE
  2
BLOCK_RECORD
  5
1
330
0
100
AcDbSymbolTable
 70
     1
  0
BLOCK_RECORD
  5
1F
330
1
100
AcDbSymbolTableRecord
100
AcDbBlockTableRecord
  2
*MODEL_SPACE
  0
BLOCK_RECORD
  5
1B
330
1
100
AcDbSymbolTableRecord
100
AcDbBlockTableRecord
  2
*PAPER_SPACE
  0
ENDTAB
  0
ENDSEC
  0
SECTION
  2
BLOCKS
  0
BLOCK
  5
20
330
1F
100
AcDbEntity
  8
0
100
AcDbBlockBegin
  2
*MODEL_SPACE
 70
     0
 10
0.0
 20
0.0
 30
0.0
  3
*MODEL_SPACE
  1

  0
ENDBLK
  5
21
330
1F
100
AcDbEntity
  8
0
100
AcDbBlockEnd
  0
BLOCK
  5
1C
330
1B
100
AcDbEntity
 67
     1
  8
0
100
AcDbBlockBegin
  2
*PAPER_SPACE
  1

  0
ENDBLK
  5
1D
330
1B
100
AcDbEntity
 67
     1
  8
0
100
AcDbBlockEnd
  0
ENDSEC
  0
SECTION
  2
ENTITIES
  0
SPLINE
  5
100
100
AcDbEntity
  8
0
 62
7
100
AcDbSpline
 70
8
 71
3
 72
8
 73
4
 74
0
 40
0
 40
0
 40
0
 40
0
 40
1
 40
1
 40
1
 40
1
 10
13.559600
 20
12.006800
 30
0.0
 10
12.386660
 20
12.006800
 30
0.0
 10
11.329215
 20
11.300238
 30
0.0
 10
10.880350
 20
10.216582
 30
0.0
  0
SPLINE
  5
101
100
AcDbEntity
  8
0
 62
7
100
AcDbSpline
 70
8
 71
3
 72
8
 73
4
 74
0
 40
0
 40
0
 40
0
 40
0
 40
1
 40
1
 40
1
 40
1
 10
10.880350
 20
10.216582
 30
0.0
 10
10.431485
 20
9.132926
 30
0.0
 10
10.679596
 20
7.885584
 30
0.0
 10
11.508991
 20
7.056190
 30
0.0
  0
SPLINE
  5
102
100
AcDbEntity
  8
0
 62
7
100
AcDbSpline
 70
8
 71
3
 72
8
 73
4
 74
0
 40
0
 40
0
 40
0
 40
0
 40
1
 40
1
 40
1
 40
1
 10
11.508991
 20
7.056190
 30
0.0
 10
12.338385
 20
6.226796
 30
0.0
 10
13.585727
 20
5.978684
 30
0.0
 10
14.669382
 20
6.427549
 30
0.0
  0
SPLINE
  5
103
100
AcDbEntity
  8
0
 62
7
100
AcDbSpline
 70
8
 71
3
 72
8
 73
4
 74
0
 40
0
 40
0
 40
0
 40
0
 40
1
 40
1
 40
1
 40
1
 10
14.669382
 20
6.427549
 30
0.0
 10
15.753038
 20
6.876414
 30
0.0
 10
16.459600
 20
7.933859
 30
0.0
 10
16.459600
 20
9.106800
 30
0.0
  0
SPLINE
  5
104
100
AcDbEntity
  8
0
 62
7
100
AcDbSpline
 70
8
 71
3
 72
8
 73
4
 74
0
 40
0
 40
0
 40
0
 40
0
 40
1
 40
1
 40
1
 40
1
 10
16.459600
 20
9.106800
 30
0.0
 10
16.459600
 20
9.875928
 30
0.0
 10
16.154065
 20
10.613554
 30
0.0
 10
15.610210
 20
11.157410
 30
0.0
  0
SPLINE
  5
105
100
AcDbEntity
  8
0
 62
7
100
AcDbSpline
 70
8
 71
3
 72
8
 73
4
 74
0
 40
0
 40
0
 40
0
 40
0
 40
1
 40
1
 40
1
 40
1
 10
15.610210
 20
11.157410
 30
0.0
 10
15.066354
 20
11.701265
 30
0.0
 10
14.328728
 20
12.006800
 30
0.0
 10
13.559600
 20
12.006800
 30
0.0
  0
LINE
  5
106
100
AcDbEntity
  8
0
 62
7
100
AcDbLine
 10
13.559600
 20
12.006800
 30
0.0
 11
13.559600
 21
12.006800
 31
0.0
  0
SPLINE
  5
107
100
AcDbEntity
  8
0
 62
7
100
AcDbSpline
 70
8
 71
3
 72
8
 73
4
 74
0
 40
0
 40
0
 40
0
 40
0
 40
1
 40
1
 40
1
 40
1
 10
13.559600
 20
11.506800
 30
0.0
 10
12.588891
 20
11.506800
 30
0.0
 10
11.713764
 20
10.922059
 30
0.0
 10
11.342289
 20
10.025240
 30
0.0
  0
SPLINE
  5
108
100
AcDbEntity
  8
0
 62
7
100
AcDbSpline
 70
8
 71
3
 72
8
 73
4
 74
0
 40
0
 40
0
 40
0
 40
0
 40
1
 40
1
 40
1
 40
1
 10
11.342289
 20
10.025240
 30
0.0
 10
10.970815
 20
9.128422
 30
0.0
 10
11.176149
 20
8.096139
 30
0.0
 10
11.862544
 20
7.409744
 30
0.0
  0
SPLINE
  5
109
100
AcDbEntity
  8
0
 62
7
100
AcDbSpline
 70
8
 71
3
 72
8
 73
4
 74
0
 40
0
 40
0
 40
0
 40
0
 40
1
 40
1
 40
1
 40
1
 10
11.862544
 20
7.409744
 30
0.0
 10
12.548939
 20
6.723348
 30
0.0
 10
13.581222
 20
6.518015
 30
0.0
 10
14.478041
 20
6.889489
 30
0.0
  0
SPLINE
  5
10a
100
AcDbEntity
  8
0
 62
7
100
AcDbSpline
 70
8
 71
3
 72
8
 73
4
 74
0
 40
0
 40
0
 40
0
 40
0
 40
1
 40
1
 40
1
 40
1
 10
14.478041
 20
6.889489
 30
0.0
 10
15.374859
 20
7.260963
 30
0.0
 10
15.959600
 20
8.136090
 30
0.0
 10
15.959600
 20
9.106800
 30
0.0
  0
SPLINE
  5
10b
100
AcDbEntity
  8
0
 62
7
100
AcDbSpline
 70
8
 71
3
 72
8
 73
4
 74
0
 40
0
 40
0
 40
0
 40
0
 40
1
 40
1
 40
1
 40
1
 10
15.959600
 20
9.106800
 30
0.0
 10
15.959600
 20
9.743320
 30
0.0
 10
15.706744
 20
10.353769
 30
0.0
 10
15.256657
 20
10.803856
 30
0.0
  0
SPLINE
  5
10c
100
AcDbEntity
  8
0
 62
7
100
AcDbSpline
 70
8
 71
3
 72
8
 73
4
 74
0
 40
0
 40
0
 40
0
 40
0
 40
1
 40
1
 40
1
 40
1
 10
15.256657
 20
10.803856
 30
0.0
 10
14.806569
 20
11.253944
 30
0.0
 10
14.196120
 20
11.506800
 30
0.0
 10
13.559600
 20
11.506800
 30
0.0
  0
LINE
  5
10d
100
AcDbEntity
  8
0
 62
7
100
AcDbLine
 10
13.559600
 20
11.506800
 30
0.0
 11
13.559600
 21
11.506800
 31
0.0
  0
SPLINE
  5
10e
100
AcDbEntity
  8
0
 62
7
100
AcDbSpline
 70
8
 71
3
 72
8
 73
4
 74
0
 40
0
 40
0
 40
0
 40
0
 40
1
 40
1
 40
1
 40
1
 10
13.559600
 20
12.106800
 30
0.0
 10
12.346214
 20
12.106800
 30
0.0
 10
11.252305
 20
11.375873
 30
0.0
 10
10.787962
 20
10.254850
 30
0.0
  0
SPLINE
  5
10f
100
AcDbEntity
  8
0
 62
7
100
AcDbSpline
 70
8
 71
3
 72
8
 73
4
 74
0
 40
0
 40
0
 40
0
 40
0
 40
1
 40
1
 40
1
 40
1
 10
10.787962
 20
10.254850
 30
0.0
 10
10.323619
 20
9.133827
 30
0.0
 10
10.580286
 20
7.843474
 30
0.0
 10
11.438280
 20
6.985480
 30
0.0
  0
SPLINE
  5
110
100
AcDbEntity
  8
0
 62
7
100
AcDbSpline
 70
8
 71
3
 72
8
 73
4
 74
0
 40
0
 40
0
 40
0
 40
0
 40
1
 40
1
 40
1
 40
1
 10
11.438280
 20
6.985480
 30
0.0
 10
12.296274
 20
6.127486
 30
0.0
 10
13.586627
 20
5.870818
 30
0.0
 10
14.707651
 20
6.335161
 30
0.0
  0
SPLINE
  5
111
100
AcDbEntity
  8
0
 62
7
100
AcDbSpline
 70
8
 71
3
 72
8
 73
4
 74
0
 40
0
 40
0
 40
0
 40
0
 40
1
 40
1
 40
1
 40
1
 10
14.707651
 20
6.335161
 30
0.0
 10
15.828674
 20
6.799504
 30
0.0
 10
16.559600
 20
7.893413
 30
0.0
 10
16.559600
 20
9.106800
 30
0.0
  0
SPLINE
  5
112
100
AcDbEntity
  8
0
 62
7
100
AcDbSpline
 70
8
 71
3
 72
8
 73
4
 74
0
 40
0
 40
0
 40
0
 40
0
 40
1
 40
1
 40
1
 40
1
 10
16.559600
 20
9.106800
 30
0.0
 10
16.559600
 20
9.902449
 30
0.0
 10
16.243530
 20
10.665511
 30
0.0
 10
15.680921
 20
11.228120
 30
0.0
  0
SPLINE
  5
113
100
AcDbEntity
  8
0
 62
7
100
AcDbSpline
 70
8
 71
3
 72
8
 73
4
 74
0
 40
0
 40
0
 40
0
 40
0
 40
1
 40
1
 40
1
 40
1
 10
15.680921
 20
11.228120
 30
0.0
 10
15.118312
 20
11.790729
 30
0.0
 10
14.355250
 20
12.106800
 30
0.0
 10
13.559600
 20
12.106800
 30
0.0
  0
LINE
  5
114
100
AcDbEntity
  8
0
 62
7
100
AcDbLine
 10
13.559600
 20
12.106800
 30
0.0
 11
13.559600
 21
12.106800
 31
0.0
  0
SPLINE
  5
115
100
AcDbEntity
  8
0
 62
7
100
AcDbSpline
 70
8
 71
3
 72
8
 73
4
 74
0
 40
0
 40
0
 40
0
 40
0
 40
1
 40
1
 40
1
 40
1
 10
13.559600
 20
11.456150
 30
0.0
 10
12.609377
 20
11.456150
 30
0.0
 10
11.752719
 20
10.883749
 30
0.0
 10
11.389084
 20
10.005857
 30
0.0
  0
SPLINE
  5
116
100
AcDbEntity
  8
0
 62
7
100
AcDbSpline
 70
8
 71
3
 72
8
 73
4
 74
0
 40
0
 40
0
 40
0
 40
0
 40
1
 40
1
 40
1
 40
1
 10
11.389084
 20
10.005857
 30
0.0
 10
11.025449
 20
9.127965
 30
0.0
 10
11.226450
 20
8.117468
 30
0.0
 10
11.898359
 20
7.445559
 30
0.0
  0
SPLINE
  5
117
100
AcDbEntity
  8
0
 62
7
100
AcDbSpline
 70
8
 71
3
 72
8
 73
4
 74
0
 40
0
 40
0
 40
0
 40
0
 40
1
 40
1
 40
1
 40
1
 10
11.898359
 20
7.445559
 30
0.0
 10
12.570268
 20
6.773649
 30
0.0
 10
13.580766
 20
6.572649
 30
0.0
 10
14.458658
 20
6.936284
 30
0.0
  0
SPLINE
  5
118
100
AcDbEntity
  8
0
 62
7
100
AcDbSpline
 70
8
 71
3
 72
8
 73
4
 74
0
 40
0
 40
0
 40
0
 40
0
 40
1
 40
1
 40
1
 40
1
 10
14.458658
 20
6.936284
 30
0.0
 10
15.336550
 20
7.299918
 30
0.0
 10
15.908950
 20
8.156577
 30
0.0
 10
15.908950
 20
9.106800
 30
0.0
  0
SPLINE
  5
119
100
AcDbEntity
  8
0
 62
7
100
AcDbSpline
 70
8
 71
3
 72
8
 73
4
 74
0
 40
0
 40
0
 40
0
 40
0
 40
1
 40
1
 40
1
 40
1
 10
15.908950
 20
9.106800
 30
0.0
 10
15.908950
 20
9.729886
 30
0.0
 10
15.661430
 20
10.327453
 30
0.0
 10
15.220842
 20
10.768041
 30
0.0
  0
SPLINE
  5
11a
100
AcDbEntity
  8
0
 62
7
100
AcDbSpline
 70
8
 71
3
 72
8
 73
4
 74
0
 40
0
 40
0
 40
0
 40
0
 40
1
 40
1
 40
1
 40
1
 10
15.220842
 20
10.768041
 30
0.0
 10
14.780253
 20
11.208630
 30
0.0
 10
14.182687
 20
11.456150
 30
0.0
 10
13.559600
 20
11.456150
 30
0.0
  0
LINE
  5
11b
100
AcDbEntity
  8
0
 62
7
100
AcDbLine
 10
13.559600
 20
11.456150
 30
0.0
 11
13.559600
 21
11.456150
 31
0.0
  0
LINE
  5
11c
100
AcDbEntity
  8
0
 62
7
100
AcDbLine
 10
0.656183
 20
11.795666
 30
0.0
 11
1.147939
 21
13.630925
 31
0.0
  0
LINE
  5
11d
100
AcDbEntity
  8
0
 62
7
100
AcDbLine
 10
1.147939
 20
13.630925
 30
0.0
 11
2.983198
 21
13.139169
 31
0.0
  0
LINE
  5
11e
100
AcDbEntity
  8
0
 62
7
100
AcDbLine
 10
2.983198
 20
13.139169
 30
0.0
 11
2.491442
 21
11.303910
 31
0.0
  0
LINE
  5
11f
100
AcDbEntity
  8
0
 62
7
100
AcDbLine
 10
2.491442
 20
11.303910
 30
0.0
 11
0.656183
 21
11.795666
 31
0.0
  0
LINE
  5
120
100
AcDbEntity
  8
0
 62
7
100
AcDbLine
 10
0.656183
 20
11.795666
 30
0.0
 11
1.147939
 21
13.630925
 31
0.0
  0
LINE
  5
121
100
AcDbEntity
  8
0
 62
7
100
AcDbLine
 10
1.147939
 20
13.630925
 30
0.0
 11
2.983198
 21
13.139169
 31
0.0
  0
LINE
  5
122
100
AcDbEntity
  8
0
 62
7
100
AcDbLine
 10
2.983198
 20
13.139169
 30
0.0
 11
2.491442
 21
11.303910
 31
0.0
  0
LINE
  5
123
100
AcDbEntity
  8
0
 62
7
100
AcDbLine
 10
2.491442
 20
11.303910
 30
0.0
 11
0.656183
 21
11.795666
 31
0.0
  0
LINE
  5
124
100
AcDbEntity
  8
0
 62
7
100
AcDbLine
 10
21.025767
 20
8.727423
 30
0.0
 11
21.888349
 21
7.034510
 31
0.0
  0
LINE
  5
125
100
AcDbEntity
  8
0
 62
7
100
AcDbLine
 10
21.888349
 20
7.034510
 30
0.0
 11
20.195437
 21
6.171928
 31
0.0
  0
LINE
  5
126
100
AcDbEntity
  8
0
 62
7
100
AcDbLine
 10
20.195437
 20
6.171928
 30
0.0
 11
19.332855
 21
7.864841
 31
0.0
  0
LINE
  5
127
100
AcDbEntity
  8
0
 62
7
100
AcDbLine
 10
20.195437
 20
6.171928
 30
0.0
 11
19.332855
 21
7.864841
 31
0.0
  0
LINE
  5
128
100
AcDbEntity
  8
0
 62
7
100
AcDbLine
 10
21.025767
 20
8.727423
 30
0.0
 11
21.888349
 21
7.034510
 31
0.0
  0
LINE
  5
129
100
AcDbEntity
  8
0
 62
7
100
AcDbLine
 10
19.332855
 20
7.864841
 30
0.0
 11
21.025767
 21
8.727423
 31
0.0
  0
LINE
  5
12a
100
AcDbEntity
  8
0
 62
7
100
AcDbLine
 10
21.888349
 20
7.034510
 30
0.0
 11
20.195437
 21
6.171928
 31
0.0
  0
LINE
  5
12b
100
AcDbEntity
  8
0
 62
7
100
AcDbLine
 10
19.332855
 20
7.864841
 30
0.0
 11
21.025767
 21
8.727423
 31
0.0
  0
LINE
  5
12c
100
AcDbEntity
  8
0
 62
7
100
AcDbLine
 10
24.123972
 20
13.139255
 30
0.0
 11
23.632216
 21
14.974514
 31
0.0
  0
LINE
  5
12d
100
AcDbEntity
  8
0
 62
7
100
AcDbLine
 10
25.467475
 20
15.466270
 30
0.0
 11
25.959231
 21
13.631011
 31
0.0
  0
LINE
  5
12e
100
AcDbEntity
  8
0
 62
7
100
AcDbLine
 10
25.959231
 20
13.631011
 30
0.0
 11
24.123972
 21
13.139255
 31
0.0
  0
LINE
  5
12f
100
AcDbEntity
  8
0
 62
7
100
AcDbLine
 10
23.632216
 20
14.974514
 30
0.0
 11
25.467475
 21
15.466270
 31
0.0
  0
LINE
  5
130
100
AcDbEntity
  8
0
 62
7
100
AcDbLine
 10
25.959231
 20
13.631011
 30
0.0
 11
24.123972
 21
13.139255
 31
0.0
  0
LINE
  5
131
100
AcDbEntity
  8
0
 62
7
100
AcDbLine
 10
24.123972
 20
13.139255
 30
0.0
 11
23.632216
 21
14.974514
 31
0.0
  0
LINE
  5
132
100
AcDbEntity
  8
0
 62
7
100
AcDbLine
 10
23.632216
 20
14.974514
 30
0.0
 11
25.467475
 21
15.466270
 31
0.0
  0
LINE
  5
133
100
AcDbEntity
  8
0
 62
7
100
AcDbLine
 10
25.467475
 20
15.466270
 30
0.0
 11
25.959231
 21
13.631011
 31
0.0
  0
LINE
  5
134
100
AcDbEntity
  8
0
 62
7
100
AcDbLine
 10
19.498500
 20
7.441613
 30
0.0
 11
20.361082
 21
5.748700
 31
0.0
  0
LINE
  5
135
100
AcDbEntity
  8
0
 62
7
100
AcDbLine
 10
18.668170
 20
4.886118
 30
0.0
 11
17.805588
 21
6.579031
 31
0.0
  0
LINE
  5
136
100
AcDbEntity
  8
0
 62
7
100
AcDbLine
 10
18.668170
 20
4.886118
 30
0.0
 11
17.805588
 21
6.579031
 31
0.0
  0
LINE
  5
137
100
AcDbEntity
  8
0
 62
7
100
AcDbLine
 10
19.498500
 20
7.441613
 30
0.0
 11
20.361082
 21
5.748700
 31
0.0
  0
LINE
  5
138
100
AcDbEntity
  8
0
 62
7
100
AcDbLine
 10
20.361082
 20
5.748700
 30
0.0
 11
18.668170
 21
4.886118
 31
0.0
  0
LINE
  5
139
100
AcDbEntity
  8
0
 62
7
100
AcDbLine
 10
17.805588
 20
6.579031
 30
0.0
 11
19.498500
 21
7.441613
 31
0.0
  0
LINE
  5
13a
100
AcDbEntity
  8
0
 62
7
100
AcDbLine
 10
20.361082
 20
5.748700
 30
0.0
 11
18.668170
 21
4.886118
 31
0.0
  0
LINE
  5
13b
100
AcDbEntity
  8
0
 62
7
100
AcDbLine
 10
17.805588
 20
6.579031
 30
0.0
 11
19.498500
 21
7.441613
 31
0.0
  0
LINE
  5
13c
100
AcDbEntity
  8
0
 62
7
100
AcDbLine
 10
19.687634
 20
12.396195
 30
0.0
 11
20.550216
 21
10.703283
 31
0.0
  0
LINE
  5
13d
100
AcDbEntity
  8
0
 62
7
100
AcDbLine
 10
20.550216
 20
10.703283
 30
0.0
 11
18.857303
 21
9.840701
 31
0.0
  0
LINE
  5
13e
100
AcDbEntity
  8
0
 62
7
100
AcDbLine
 10
17.994721
 20
11.533613
 30
0.0
 11
19.687634
 21
12.396195
 31
0.0
  0
LINE
  5
13f
100
AcDbEntity
  8
0
 62
7
100
AcDbLine
 10
20.550216
 20
10.703283
 30
0.0
 11
18.857303
 21
9.840701
 31
0.0
  0
LINE
  5
140
100
AcDbEntity
  8
0
 62
7
100
AcDbLine
 10
17.994721
 20
11.533613
 30
0.0
 11
19.687634
 21
12.396195
 31
0.0
  0
LINE
  5
141
100
AcDbEntity
  8
0
 62
7
100
AcDbLine
 10
18.857303
 20
9.840701
 30
0.0
 11
17.994721
 21
11.533613
 31
0.0
  0
LINE
  5
142
100
AcDbEntity
  8
0
 62
7
100
AcDbLine
 10
18.857303
 20
9.840701
 30
0.0
 11
17.994721
 21
11.533613
 31
0.0
  0
LINE
  5
143
100
AcDbEntity
  8
0
 62
7
100
AcDbLine
 10
19.687634
 20
12.396195
 30
0.0
 11
20.550216
 21
10.703283
 31
0.0
  0
LINE
  5
144
100
AcDbEntity
  8
0
 62
7
100
AcDbLine
 10
6.769262
 20
15.348186
 30
0.0
 11
8.462174
 21
14.485604
 31
0.0
  0
LINE
  5
145
100
AcDbEntity
  8
0
 62
7
100
AcDbLine
 10
8.462174
 20
14.485604
 30
0.0
 11
7.599592
 21
12.792691
 31
0.0
  0
LINE
  5
146
100
AcDbEntity
  8
0
 62
7
100
AcDbLine
 10
7.599592
 20
12.792691
 30
0.0
 11
5.906680
 21
13.655273
 31
0.0
  0
LINE
  5
147
100
AcDbEntity
  8
0
 62
7
100
AcDbLine
 10
7.599592
 20
12.792691
 30
0.0
 11
5.906680
 21
13.655273
 31
0.0
  0
LINE
  5
148
100
AcDbEntity
  8
0
 62
7
100
AcDbLine
 10
6.769262
 20
15.348186
 30
0.0
 11
8.462174
 21
14.485604
 31
0.0
  0
LINE
  5
149
100
AcDbEntity
  8
0
 62
7
100
AcDbLine
 10
5.906680
 20
13.655273
 30
0.0
 11
6.769262
 21
15.348186
 31
0.0
  0
LINE
  5
14a
100
AcDbEntity
  8
0
 62
7
100
AcDbLine
 10
5.906680
 20
13.655273
 30
0.0
 11
6.769262
 21
15.348186
 31
0.0
  0
LINE
  5
14b
100
AcDbEntity
  8
0
 62
7
100
AcDbLine
 10
8.462174
 20
14.485604
 30
0.0
 11
7.599592
 21
12.792691
 31
0.0
  0
LINE
  5
14c
100
AcDbEntity
  8
0
 62
7
100
AcDbLine
 10
9.996986
 20
13.219142
 30
0.0
 11
9.134404
 21
11.526229
 31
0.0
  0
LINE
  5
14d
100
AcDbEntity
  8
0
 62
7
100
AcDbLine
 10
7.441491
 20
12.388811
 30
0.0
 11
8.304073
 21
14.081724
 31
0.0
  0
LINE
  5
14e
100
AcDbEntity
  8
0
 62
7
100
AcDbLine
 10
8.304073
 20
14.081724
 30
0.0
 11
9.996986
 21
13.219142
 31
0.0
  0
LINE
  5
14f
100
AcDbEntity
  8
0
 62
7
100
AcDbLine
 10
7.441491
 20
12.388811
 30
0.0
 11
8.304073
 21
14.081724
 31
0.0
  0
LINE
  5
150
100
AcDbEntity
  8
0
 62
7
100
AcDbLine
 10
9.134404
 20
11.526229
 30
0.0
 11
7.441491
 21
12.388811
 31
0.0
  0
LINE
  5
151
100
AcDbEntity
  8
0
 62
7
100
AcDbLine
 10
9.996986
 20
13.219142
 30
0.0
 11
9.134404
 21
11.526229
 31
0.0
  0
LINE
  5
152
100
AcDbEntity
  8
0
 62
7
100
AcDbLine
 10
9.134404
 20
11.526229
 30
0.0
 11
7.441491
 21
12.388811
 31
0.0
  0
LINE
  5
153
100
AcDbEntity
  8
0
 62
7
100
AcDbLine
 10
8.304073
 20
14.081724
 30
0.0
 11
9.996986
 21
13.219142
 31
0.0
  0
LINE
  5
154
100
AcDbEntity
  8
0
 62
7
100
AcDbLine
 10
13.629359
 20
2.728069
 30
0.0
 11
13.629359
 21
4.628069
 31
0.0
  0
LINE
  5
155
100
AcDbEntity
  8
0
 62
7
100
AcDbLine
 10
13.629359
 20
4.628069
 30
0.0
 11
15.529359
 21
4.628069
 31
0.0
  0
LINE
  5
156
100
AcDbEntity
  8
0
 62
7
100
AcDbLine
 10
15.529359
 20
2.728069
 30
0.0
 11
13.629359
 21
2.728069
 31
0.0
  0
LINE
  5
157
100
AcDbEntity
  8
0
 62
7
100
AcDbLine
 10
15.529359
 20
2.728069
 30
0.0
 11
13.629359
 21
2.728069
 31
0.0
  0
LINE
  5
158
100
AcDbEntity
  8
0
 62
7
100
AcDbLine
 10
13.629359
 20
2.728069
 30
0.0
 11
13.629359
 21
4.628069
 31
0.0
  0
LINE
  5
159
100
AcDbEntity
  8
0
 62
7
100
AcDbLine
 10
15.529359
 20
4.628069
 30
0.0
 11
15.529359
 21
2.728069
 31
0.0
  0
LINE
  5
15a
100
AcDbEntity
  8
0
 62
7
100
AcDbLine
 10
15.529359
 20
4.628069
 30
0.0
 11
15.529359
 21
2.728069
 31
0.0
  0
LINE
  5
15b
100
AcDbEntity
  8
0
 62
7
100
AcDbLine
 10
13.629359
 20
4.628069
 30
0.0
 11
15.529359
 21
4.628069
 31
0.0
  0
LINE
  5
15c
100
AcDbEntity
  8
0
 62
7
100
AcDbLine
 10
15.559759
 20
2.905869
 30
0.0
 11
15.559759
 21
4.805869
 31
0.0
  0
LINE
  5
15d
100
AcDbEntity
  8
0
 62
7
100
AcDbLine
 10
17.459759
 20
4.805869
 30
0.0
 11
17.459759
 21
2.905869
 31
0.0
  0
LINE
  5
15e
100
AcDbEntity
  8
0
 62
7
100
AcDbLine
 10
15.559759
 20
4.805869
 30
0.0
 11
17.459759
 21
4.805869
 31
0.0
  0
LINE
  5
15f
100
AcDbEntity
  8
0
 62
7
100
AcDbLine
 10
17.459759
 20
2.905869
 30
0.0
 11
15.559759
 21
2.905869
 31
0.0
  0
LINE
  5
160
100
AcDbEntity
  8
0
 62
7
100
AcDbLine
 10
17.459759
 20
4.805869
 30
0.0
 11
17.459759
 21
2.905869
 31
0.0
  0
LINE
  5
161
100
AcDbEntity
  8
0
 62
7
100
AcDbLine
 10
15.559759
 20
4.805869
 30
0.0
 11
17.459759
 21
4.805869
 31
0.0
  0
LINE
  5
162
100
AcDbEntity
  8
0
 62
7
100
AcDbLine
 10
15.559759
 20
2.905869
 30
0.0
 11
15.559759
 21
4.805869
 31
0.0
  0
LINE
  5
163
100
AcDbEntity
  8
0
 62
7
100
AcDbLine
 10
17.459759
 20
2.905869
 30
0.0
 11
15.559759
 21
2.905869
 31
0.0
  0
LINE
  5
164
100
AcDbEntity
  8
0
 62
7
100
AcDbLine
 10
24.226654
 20
12.225422
 30
0.0
 11
22.465005
 21
11.513670
 31
0.0
  0
LINE
  5
165
100
AcDbEntity
  8
0
 62
7
100
AcDbLine
 10
22.465005
 20
11.513670
 30
0.0
 11
21.753252
 21
13.275319
 31
0.0
  0
LINE
  5
166
100
AcDbEntity
  8
0
 62
7
100
AcDbLine
 10
24.226654
 20
12.225422
 30
0.0
 11
22.465005
 21
11.513670
 31
0.0
  0
LINE
  5
167
100
AcDbEntity
  8
0
 62
7
100
AcDbLine
 10
23.514901
 20
13.987071
 30
0.0
 11
24.226654
 21
12.225422
 31
0.0
  0
LINE
  5
168
100
AcDbEntity
  8
0
 62
7
100
AcDbLine
 10
22.465005
 20
11.513670
 30
0.0
 11
21.753252
 21
13.275319
 31
0.0
  0
LINE
  5
169
100
AcDbEntity
  8
0
 62
7
100
AcDbLine
 10
23.514901
 20
13.987071
 30
0.0
 11
24.226654
 21
12.225422
 31
0.0
  0
LINE
  5
16a
100
AcDbEntity
  8
0
 62
7
100
AcDbLine
 10
21.753252
 20
13.275319
 30
0.0
 11
23.514901
 21
13.987071
 31
0.0
  0
LINE
  5
16b
100
AcDbEntity
  8
0
 62
7
100
AcDbLine
 10
21.753252
 20
13.275319
 30
0.0
 11
23.514901
 21
13.987071
 31
0.0
  0
LINE
  5
16c
100
AcDbEntity
  8
0
 62
7
100
AcDbLine
 10
6.768043
 20
5.741316
 30
0.0
 11
7.630625
 21
7.434229
 31
0.0
  0
LINE
  5
16d
100
AcDbEntity
  8
0
 62
7
100
AcDbLine
 10
9.323538
 20
6.571647
 30
0.0
 11
8.460956
 21
4.878734
 31
0.0
  0
LINE
  5
16e
100
AcDbEntity
  8
0
 62
7
100
AcDbLine
 10
6.768043
 20
5.741316
 30
0.0
 11
7.630625
 21
7.434229
 31
0.0
  0
LINE
  5
16f
100
AcDbEntity
  8
0
 62
7
100
AcDbLine
 10
8.460956
 20
4.878734
 30
0.0
 11
6.768043
 21
5.741316
 31
0.0
  0
LINE
  5
170
100
AcDbEntity
  8
0
 62
7
100
AcDbLine
 10
7.630625
 20
7.434229
 30
0.0
 11
9.323538
 21
6.571647
 31
0.0
  0
LINE
  5
171
100
AcDbEntity
  8
0
 62
7
100
AcDbLine
 10
8.460956
 20
4.878734
 30
0.0
 11
6.768043
 21
5.741316
 31
0.0
  0
LINE
  5
172
100
AcDbEntity
  8
0
 62
7
100
AcDbLine
 10
9.323538
 20
6.571647
 30
0.0
 11
8.460956
 21
4.878734
 31
0.0
  0
LINE
  5
173
100
AcDbEntity
  8
0
 62
7
100
AcDbLine
 10
7.630625
 20
7.434229
 30
0.0
 11
9.323538
 21
6.571647
 31
0.0
  0
LINE
  5
174
100
AcDbEntity
  8
0
 62
7
100
AcDbLine
 10
20.338768
 20
15.347661
 30
0.0
 11
21.201350
 21
13.654748
 31
0.0
  0
LINE
  5
175
100
AcDbEntity
  8
0
 62
7
100
AcDbLine
 10
21.201350
 20
13.654748
 30
0.0
 11
19.508437
 21
12.792166
 31
0.0
  0
LINE
  5
176
100
AcDbEntity
  8
0
 62
7
100
AcDbLine
 10
18.645855
 20
14.485079
 30
0.0
 11
20.338768
 21
15.347661
 31
0.0
  0
LINE
  5
177
100
AcDbEntity
  8
0
 62
7
100
AcDbLine
 10
21.201350
 20
13.654748
 30
0.0
 11
19.508437
 21
12.792166
 31
0.0
  0
LINE
  5
178
100
AcDbEntity
  8
0
 62
7
100
AcDbLine
 10
20.338768
 20
15.347661
 30
0.0
 11
21.201350
 21
13.654748
 31
0.0
  0
LINE
  5
179
100
AcDbEntity
  8
0
 62
7
100
AcDbLine
 10
18.645855
 20
14.485079
 30
0.0
 11
20.338768
 21
15.347661
 31
0.0
  0
LINE
  5
17a
100
AcDbEntity
  8
0
 62
7
100
AcDbLine
 10
19.508437
 20
12.792166
 30
0.0
 11
18.645855
 21
14.485079
 31
0.0
  0
LINE
  5
17b
100
AcDbEntity
  8
0
 62
7
100
AcDbLine
 10
19.508437
 20
12.792166
 30
0.0
 11
18.645855
 21
14.485079
 31
0.0
  0
LINE
  5
17c
100
AcDbEntity
  8
0
 62
7
100
AcDbLine
 10
6.737010
 20
11.099779
 30
0.0
 11
5.044098
 21
11.962361
 31
0.0
  0
LINE
  5
17d
100
AcDbEntity
  8
0
 62
7
100
AcDbLine
 10
5.044098
 20
11.962361
 30
0.0
 11
5.906680
 21
13.655273
 31
0.0
  0
LINE
  5
17e
100
AcDbEntity
  8
0
 62
7
100
AcDbLine
 10
6.737010
 20
11.099779
 30
0.0
 11
5.044098
 21
11.962361
 31
0.0
  0
LINE
  5
17f
100
AcDbEntity
  8
0
 62
7
100
AcDbLine
 10
7.599592
 20
12.792691
 30
0.0
 11
6.737010
 21
11.099779
 31
0.0
  0
LINE
  5
180
100
AcDbEntity
  8
0
 62
7
100
AcDbLine
 10
5.906680
 20
13.655273
 30
0.0
 11
7.599592
 21
12.792691
 31
0.0
  0
LINE
  5
181
100
AcDbEntity
  8
0
 62
7
100
AcDbLine
 10
5.044098
 20
11.962361
 30
0.0
 11
5.906680
 21
13.655273
 31
0.0
  0
LINE
  5
182
100
AcDbEntity
  8
0
 62
7
100
AcDbLine
 10
5.906680
 20
13.655273
 30
0.0
 11
7.599592
 21
12.792691
 31
0.0
  0
LINE
  5
183
100
AcDbEntity
  8
0
 62
7
100
AcDbLine
 10
7.599592
 20
12.792691
 30
0.0
 11
6.737010
 21
11.099779
 31
0.0
  0
LINE
  5
184
100
AcDbEntity
  8
0
 62
7
100
AcDbLine
 10
6.578910
 20
10.695899
 30
0.0
 11
8.271822
 21
9.833317
 31
0.0
  0
LINE
  5
185
100
AcDbEntity
  8
0
 62
7
100
AcDbLine
 10
7.409240
 20
8.140404
 30
0.0
 11
5.716328
 21
9.002986
 31
0.0
  0
LINE
  5
186
100
AcDbEntity
  8
0
 62
7
100
AcDbLine
 10
6.578910
 20
10.695899
 30
0.0
 11
8.271822
 21
9.833317
 31
0.0
  0
LINE
  5
187
100
AcDbEntity
  8
0
 62
7
100
AcDbLine
 10
8.271822
 20
9.833317
 30
0.0
 11
7.409240
 21
8.140404
 31
0.0
  0
LINE
  5
188
100
AcDbEntity
  8
0
 62
7
100
AcDbLine
 10
8.271822
 20
9.833317
 30
0.0
 11
7.409240
 21
8.140404
 31
0.0
  0
LINE
  5
189
100
AcDbEntity
  8
0
 62
7
100
AcDbLine
 10
7.409240
 20
8.140404
 30
0.0
 11
5.716328
 21
9.002986
 31
0.0
  0
LINE
  5
18a
100
AcDbEntity
  8
0
 62
7
100
AcDbLine
 10
5.716328
 20
9.002986
 30
0.0
 11
6.578910
 21
10.695899
 31
0.0
  0
LINE
  5
18b
100
AcDbEntity
  8
0
 62
7
100
AcDbLine
 10
5.716328
 20
9.002986
 30
0.0
 11
6.578910
 21
10.695899
 31
0.0
  0
LINE
  5
18c
100
AcDbEntity
  8
0
 62
7
100
AcDbLine
 10
25.960097
 20
13.630266
 30
0.0
 11
26.451853
 21
11.795007
 31
0.0
  0
LINE
  5
18d
100
AcDbEntity
  8
0
 62
7
100
AcDbLine
 10
24.616594
 20
11.303250
 30
0.0
 11
24.124838
 21
13.138509
 31
0.0
  0
LINE
  5
18e
100
AcDbEntity
  8
0
 62
7
100
AcDbLine
 10
25.960097
 20
13.630266
 30
0.0
 11
26.451853
 21
11.795007
 31
0.0
  0
LINE
  5
18f
100
AcDbEntity
  8
0
 62
7
100
AcDbLine
 10
24.124838
 20
13.138509
 30
0.0
 11
25.960097
 21
13.630266
 31
0.0
  0
LINE
  5
190
100
AcDbEntity
  8
0
 62
7
100
AcDbLine
 10
24.124838
 20
13.138509
 30
0.0
 11
25.960097
 21
13.630266
 31
0.0
  0
LINE
  5
191
100
AcDbEntity
  8
0
 62
7
100
AcDbLine
 10
26.451853
 20
11.795007
 30
0.0
 11
24.616594
 21
11.303250
 31
0.0
  0
LINE
  5
192
100
AcDbEntity
  8
0
 62
7
100
AcDbLine
 10
24.616594
 20
11.303250
 30
0.0
 11
24.124838
 21
13.138509
 31
0.0
  0
LINE
  5
193
100
AcDbEntity
  8
0
 62
7
100
AcDbLine
 10
26.451853
 20
11.795007
 30
0.0
 11
24.616594
 21
11.303250
 31
0.0
  0
LINE
  5
194
100
AcDbEntity
  8
0
 62
7
100
AcDbLine
 10
21.233601
 20
9.406341
 30
0.0
 11
20.371019
 21
11.099254
 31
0.0
  0
LINE
  5
195
100
AcDbEntity
  8
0
 62
7
100
AcDbLine
 10
22.926513
 20
10.268923
 30
0.0
 11
21.233601
 21
9.406341
 31
0.0
  0
LINE
  5
196
100
AcDbEntity
  8
0
 62
7
100
AcDbLine
 10
20.371019
 20
11.099254
 30
0.0
 11
22.063931
 21
11.961836
 31
0.0
  0
LINE
  5
197
100
AcDbEntity
  8
0
 62
7
100
AcDbLine
 10
22.063931
 20
11.961836
 30
0.0
 11
22.926513
 21
10.268923
 31
0.0
  0
LINE
  5
198
100
AcDbEntity
  8
0
 62
7
100
AcDbLine
 10
20.371019
 20
11.099254
 30
0.0
 11
22.063931
 21
11.961836
 31
0.0
  0
LINE
  5
199
100
AcDbEntity
  8
0
 62
7
100
AcDbLine
 10
22.063931
 20
11.961836
 30
0.0
 11
22.926513
 21
10.268923
 31
0.0
  0
LINE
  5
19a
100
AcDbEntity
  8
0
 62
7
100
AcDbLine
 10
21.233601
 20
9.406341
 30
0.0
 11
20.371019
 21
11.099254
 31
0.0
  0
LINE
  5
19b
100
AcDbEntity
  8
0
 62
7
100
AcDbLine
 10
22.926513
 20
10.268923
 30
0.0
 11
21.233601
 21
9.406341
 31
0.0
  0
LINE
  5
19c
100
AcDbEntity
  8
0
 62
7
100
AcDbLine
 10
3.931290
 20
9.752584
 30
0.0
 11
2.169640
 21
10.464336
 31
0.0
  0
LINE
  5
19d
100
AcDbEntity
  8
0
 62
7
100
AcDbLine
 10
2.881393
 20
12.225986
 30
0.0
 11
4.643042
 21
11.514233
 31
0.0
  0
LINE
  5
19e
100
AcDbEntity
  8
0
 62
7
100
AcDbLine
 10
2.881393
 20
12.225986
 30
0.0
 11
4.643042
 21
11.514233
 31
0.0
  0
LINE
  5
19f
100
AcDbEntity
  8
0
 62
7
100
AcDbLine
 10
2.169640
 20
10.464336
 30
0.0
 11
2.881393
 21
12.225986
 31
0.0
  0
LINE
  5
1a0
100
AcDbEntity
  8
0
 62
7
100
AcDbLine
 10
2.169640
 20
10.464336
 30
0.0
 11
2.881393
 21
12.225986
 31
0.0
  0
LINE
  5
1a1
100
AcDbEntity
  8
0
 62
7
100
AcDbLine
 10
3.931290
 20
9.752584
 30
0.0
 11
2.169640
 21
10.464336
 31
0.0
  0
LINE
  5
1a2
100
AcDbEntity
  8
0
 62
7
100
AcDbLine
 10
4.643042
 20
11.514233
 30
0.0
 11
3.931290
 21
9.752584
 31
0.0
  0
LINE
  5
1a3
100
AcDbEntity
  8
0
 62
7
100
AcDbLine
 10
4.643042
 20
11.514233
 30
0.0
 11
3.931290
 21
9.752584
 31
0.0
  0
LINE
  5
1a4
100
AcDbEntity
  8
0
 62
7
100
AcDbLine
 10
9.768800
 20
4.840069
 30
0.0
 11
11.668800
 21
4.840069
 31
0.0
  0
LINE
  5
1a5
100
AcDbEntity
  8
0
 62
7
100
AcDbLine
 10
11.668800
 20
4.840069
 30
0.0
 11
11.668800
 21
2.940069
 31
0.0
  0
LINE
  5
1a6
100
AcDbEntity
  8
0
 62
7
100
AcDbLine
 10
11.668800
 20
2.940069
 30
0.0
 11
9.768800
 21
2.940069
 31
0.0
  0
LINE
  5
1a7
100
AcDbEntity
  8
0
 62
7
100
AcDbLine
 10
9.768800
 20
2.940069
 30
0.0
 11
9.768800
 21
4.840069
 31
0.0
  0
LINE
  5
1a8
100
AcDbEntity
  8
0
 62
7
100
AcDbLine
 10
11.668800
 20
2.940069
 30
0.0
 11
9.768800
 21
2.940069
 31
0.0
  0
LINE
  5
1a9
100
AcDbEntity
  8
0
 62
7
100
AcDbLine
 10
9.768800
 20
2.940069
 30
0.0
 11
9.768800
 21
4.840069
 31
0.0
  0
LINE
  5
1aa
100
AcDbEntity
  8
0
 62
7
100
AcDbLine
 10
9.768800
 20
4.840069
 30
0.0
 11
11.668800
 21
4.840069
 31
0.0
  0
LINE
  5
1ab
100
AcDbEntity
  8
0
 62
7
100
AcDbLine
 10
11.668800
 20
4.840069
 30
0.0
 11
11.668800
 21
2.940069
 31
0.0
  0
LINE
  5
1ac
100
AcDbEntity
  8
0
 62
7
100
AcDbLine
 10
5.354795
 20
13.275882
 30
0.0
 11
3.593145
 21
13.987635
 31
0.0
  0
LINE
  5
1ad
100
AcDbEntity
  8
0
 62
7
100
AcDbLine
 10
5.354795
 20
13.275882
 30
0.0
 11
3.593145
 21
13.987635
 31
0.0
  0
LINE
  5
1ae
100
AcDbEntity
  8
0
 62
7
100
AcDbLine
 10
3.593145
 20
13.987635
 30
0.0
 11
4.304898
 21
15.749284
 31
0.0
  0
LINE
  5
1af
100
AcDbEntity
  8
0
 62
7
100
AcDbLine
 10
6.066547
 20
15.037532
 30
0.0
 11
5.354795
 21
13.275882
 31
0.0
  0
LINE
  5
1b0
100
AcDbEntity
  8
0
 62
7
100
AcDbLine
 10
4.304898
 20
15.749284
 30
0.0
 11
6.066547
 21
15.037532
 31
0.0
  0
LINE
  5
1b1
100
AcDbEntity
  8
0
 62
7
100
AcDbLine
 10
4.304898
 20
15.749284
 30
0.0
 11
6.066547
 21
15.037532
 31
0.0
  0
LINE
  5
1b2
100
AcDbEntity
  8
0
 62
7
100
AcDbLine
 10
3.593145
 20
13.987635
 30
0.0
 11
4.304898
 21
15.749284
 31
0.0
  0
LINE
  5
1b3
100
AcDbEntity
  8
0
 62
7
100
AcDbLine
 10
6.066547
 20
15.037532
 30
0.0
 11
5.354795
 21
13.275882
 31
0.0
  0
LINE
  5
1b4
100
AcDbEntity
  8
0
 62
7
100
AcDbLine
 10
6.103358
 20
8.720039
 30
0.0
 11
7.796271
 21
7.857457
 31
0.0
  0
LINE
  5
1b5
100
AcDbEntity
  8
0
 62
7
100
AcDbLine
 10
7.796271
 20
7.857457
 30
0.0
 11
6.933689
 21
6.164545
 31
0.0
  0
LINE
  5
1b6
100
AcDbEntity
  8
0
 62
7
100
AcDbLine
 10
6.933689
 20
6.164545
 30
0.0
 11
5.240776
 21
7.027127
 31
0.0
  0
LINE
  5
1b7
100
AcDbEntity
  8
0
 62
7
100
AcDbLine
 10
6.933689
 20
6.164545
 30
0.0
 11
5.240776
 21
7.027127
 31
0.0
  0
LINE
  5
1b8
100
AcDbEntity
  8
0
 62
7
100
AcDbLine
 10
6.103358
 20
8.720039
 30
0.0
 11
7.796271
 21
7.857457
 31
0.0
  0
LINE
  5
1b9
100
AcDbEntity
  8
0
 62
7
100
AcDbLine
 10
5.240776
 20
7.027127
 30
0.0
 11
6.103358
 21
8.720039
 31
0.0
  0
LINE
  5
1ba
100
AcDbEntity
  8
0
 62
7
100
AcDbLine
 10
5.240776
 20
7.027127
 30
0.0
 11
6.103358
 21
8.720039
 31
0.0
  0
LINE
  5
1bb
100
AcDbEntity
  8
0
 62
7
100
AcDbLine
 10
7.796271
 20
7.857457
 30
0.0
 11
6.933689
 21
6.164545
 31
0.0
  0
LINE
  5
1bc
100
AcDbEntity
  8
0
 62
7
100
AcDbLine
 10
19.215056
 20
9.091513
 30
0.0
 11
17.522143
 21
8.228931
 31
0.0
  0
LINE
  5
1bd
100
AcDbEntity
  8
0
 62
7
100
AcDbLine
 10
17.522143
 20
8.228931
 30
0.0
 11
16.659561
 21
9.921844
 31
0.0
  0
LINE
  5
1be
100
AcDbEntity
  8
0
 62
7
100
AcDbLine
 10
19.215056
 20
9.091513
 30
0.0
 11
17.522143
 21
8.228931
 31
0.0
  0
LINE
  5
1bf
100
AcDbEntity
  8
0
 62
7
100
AcDbLine
 10
17.522143
 20
8.228931
 30
0.0
 11
16.659561
 21
9.921844
 31
0.0
  0
LINE
  5
1c0
100
AcDbEntity
  8
0
 62
7
100
AcDbLine
 10
16.659561
 20
9.921844
 30
0.0
 11
18.352474
 21
10.784426
 31
0.0
  0
LINE
  5
1c1
100
AcDbEntity
  8
0
 62
7
100
AcDbLine
 10
18.352474
 20
10.784426
 30
0.0
 11
19.215056
 21
9.091513
 31
0.0
  0
LINE
  5
1c2
100
AcDbEntity
  8
0
 62
7
100
AcDbLine
 10
18.352474
 20
10.784426
 30
0.0
 11
19.215056
 21
9.091513
 31
0.0
  0
LINE
  5
1c3
100
AcDbEntity
  8
0
 62
7
100
AcDbLine
 10
16.659561
 20
9.921844
 30
0.0
 11
18.352474
 21
10.784426
 31
0.0
  0
LINE
  5
1c4
100
AcDbEntity
  8
0
 62
7
100
AcDbLine
 10
1.147188
 20
13.632706
 30
0.0
 11
1.638944
 21
15.467965
 31
0.0
  0
LINE
  5
1c5
100
AcDbEntity
  8
0
 62
7
100
AcDbLine
 10
1.638944
 20
15.467965
 30
0.0
 11
3.474203
 21
14.976208
 31
0.0
  0
LINE
  5
1c6
100
AcDbEntity
  8
0
 62
7
100
AcDbLine
 10
2.982447
 20
13.140949
 30
0.0
 11
1.147188
 21
13.632706
 31
0.0
  0
LINE
  5
1c7
100
AcDbEntity
  8
0
 62
7
100
AcDbLine
 10
1.638944
 20
15.467965
 30
0.0
 11
3.474203
 21
14.976208
 31
0.0
  0
LINE
  5
1c8
100
AcDbEntity
  8
0
 62
7
100
AcDbLine
 10
2.982447
 20
13.140949
 30
0.0
 11
1.147188
 21
13.632706
 31
0.0
  0
LINE
  5
1c9
100
AcDbEntity
  8
0
 62
7
100
AcDbLine
 10
3.474203
 20
14.976208
 30
0.0
 11
2.982447
 21
13.140949
 31
0.0
  0
LINE
  5
1ca
100
AcDbEntity
  8
0
 62
7
100
AcDbLine
 10
3.474203
 20
14.976208
 30
0.0
 11
2.982447
 21
13.140949
 31
0.0
  0
LINE
  5
1cb
100
AcDbEntity
  8
0
 62
7
100
AcDbLine
 10
1.147188
 20
13.632706
 30
0.0
 11
1.638944
 21
15.467965
 31
0.0
  0
LINE
  5
1cc
100
AcDbEntity
  8
0
 62
7
100
AcDbLine
 10
5.044098
 20
11.962361
 30
0.0
 11
6.737010
 21
11.099779
 31
0.0
  0
LINE
  5
1cd
100
AcDbEntity
  8
0
 62
7
100
AcDbLine
 10
4.181516
 20
10.269448
 30
0.0
 11
5.044098
 21
11.962361
 31
0.0
  0
LINE
  5
1ce
100
AcDbEntity
  8
0
 62
7
100
AcDbLine
 10
6.737010
 20
11.099779
 30
0.0
 11
5.874428
 21
9.406866
 31
0.0
  0
LINE
  5
1cf
100
AcDbEntity
  8
0
 62
7
100
AcDbLine
 10
5.874428
 20
9.406866
 30
0.0
 11
4.181516
 21
10.269448
 31
0.0
  0
LINE
  5
1d0
100
AcDbEntity
  8
0
 62
7
100
AcDbLine
 10
5.044098
 20
11.962361
 30
0.0
 11
6.737010
 21
11.099779
 31
0.0
  0
LINE
  5
1d1
100
AcDbEntity
  8
0
 62
7
100
AcDbLine
 10
5.874428
 20
9.406866
 30
0.0
 11
4.181516
 21
10.269448
 31
0.0
  0
LINE
  5
1d2
100
AcDbEntity
  8
0
 62
7
100
AcDbLine
 10
6.737010
 20
11.099779
 30
0.0
 11
5.874428
 21
9.406866
 31
0.0
  0
LINE
  5
1d3
100
AcDbEntity
  8
0
 62
7
100
AcDbLine
 10
4.181516
 20
10.269448
 30
0.0
 11
5.044098
 21
11.962361
 31
0.0
  0
LINE
  5
1d4
100
AcDbEntity
  8
0
 62
7
100
AcDbLine
 10
23.514902
 20
13.987071
 30
0.0
 11
21.753252
 21
13.275319
 31
0.0
  0
LINE
  5
1d5
100
AcDbEntity
  8
0
 62
7
100
AcDbLine
 10
21.753252
 20
13.275319
 30
0.0
 11
21.041500
 21
15.036968
 31
0.0
  0
LINE
  5
1d6
100
AcDbEntity
  8
0
 62
7
100
AcDbLine
 10
23.514902
 20
13.987071
 30
0.0
 11
21.753252
 21
13.275319
 31
0.0
  0
LINE
  5
1d7
100
AcDbEntity
  8
0
 62
7
100
AcDbLine
 10
21.753252
 20
13.275319
 30
0.0
 11
21.041500
 21
15.036968
 31
0.0
  0
LINE
  5
1d8
100
AcDbEntity
  8
0
 62
7
100
AcDbLine
 10
21.041500
 20
15.036968
 30
0.0
 11
22.803149
 21
15.748721
 31
0.0
  0
LINE
  5
1d9
100
AcDbEntity
  8
0
 62
7
100
AcDbLine
 10
22.803149
 20
15.748721
 30
0.0
 11
23.514902
 21
13.987071
 31
0.0
  0
LINE
  5
1da
100
AcDbEntity
  8
0
 62
7
100
AcDbLine
 10
22.803149
 20
15.748721
 30
0.0
 11
23.514902
 21
13.987071
 31
0.0
  0
LINE
  5
1db
100
AcDbEntity
  8
0
 62
7
100
AcDbLine
 10
21.041500
 20
15.036968
 30
0.0
 11
22.803149
 21
15.748721
 31
0.0
  0
LINE
  5
1dc
100
AcDbEntity
  8
0
 62
7
100
AcDbLine
 10
9.134404
 20
11.526229
 30
0.0
 11
8.271822
 21
9.833317
 31
0.0
  0
LINE
  5
1dd
100
AcDbEntity
  8
0
 62
7
100
AcDbLine
 10
7.441491
 20
12.388811
 30
0.0
 11
9.134404
 21
11.526229
 31
0.0
  0
LINE
  5
1de
100
AcDbEntity
  8
0
 62
7
100
AcDbLine
 10
6.578909
 20
10.695899
 30
0.0
 11
7.441491
 21
12.388811
 31
0.0
  0
LINE
  5
1df
100
AcDbEntity
  8
0
 62
7
100
AcDbLine
 10
7.441491
 20
12.388811
 30
0.0
 11
9.134404
 21
11.526229
 31
0.0
  0
LINE
  5
1e0
100
AcDbEntity
  8
0
 62
7
100
AcDbLine
 10
9.134404
 20
11.526229
 30
0.0
 11
8.271822
 21
9.833317
 31
0.0
  0
LINE
  5
1e1
100
AcDbEntity
  8
0
 62
7
100
AcDbLine
 10
8.271822
 20
9.833317
 30
0.0
 11
6.578909
 21
10.695899
 31
0.0
  0
LINE
  5
1e2
100
AcDbEntity
  8
0
 62
7
100
AcDbLine
 10
6.578909
 20
10.695899
 30
0.0
 11
7.441491
 21
12.388811
 31
0.0
  0
LINE
  5
1e3
100
AcDbEntity
  8
0
 62
7
100
AcDbLine
 10
8.271822
 20
9.833317
 30
0.0
 11
6.578909
 21
10.695899
 31
0.0
  0
LINE
  5
1e4
100
AcDbEntity
  8
0
 62
7
100
AcDbLine
 10
10.469564
 20
9.914460
 30
0.0
 11
8.776651
 21
10.777042
 31
0.0
  0
LINE
  5
1e5
100
AcDbEntity
  8
0
 62
7
100
AcDbLine
 10
9.639233
 20
12.469954
 30
0.0
 11
11.332146
 21
11.607372
 31
0.0
  0
LINE
  5
1e6
100
AcDbEntity
  8
0
 62
7
100
AcDbLine
 10
9.639233
 20
12.469954
 30
0.0
 11
11.332146
 21
11.607372
 31
0.0
  0
LINE
  5
1e7
100
AcDbEntity
  8
0
 62
7
100
AcDbLine
 10
8.776651
 20
10.777042
 30
0.0
 11
9.639233
 21
12.469954
 31
0.0
  0
LINE
  5
1e8
100
AcDbEntity
  8
0
 62
7
100
AcDbLine
 10
11.332146
 20
11.607372
 30
0.0
 11
10.469564
 21
9.914460
 31
0.0
  0
LINE
  5
1e9
100
AcDbEntity
  8
0
 62
7
100
AcDbLine
 10
8.776651
 20
10.777042
 30
0.0
 11
9.639233
 21
12.469954
 31
0.0
  0
LINE
  5
1ea
100
AcDbEntity
  8
0
 62
7
100
AcDbLine
 10
10.469564
 20
9.914460
 30
0.0
 11
8.776651
 21
10.777042
 31
0.0
  0
LINE
  5
1eb
100
AcDbEntity
  8
0
 62
7
100
AcDbLine
 10
11.332146
 20
11.607372
 30
0.0
 11
10.469564
 21
9.914460
 31
0.0
  0
LINE
  5
1ec
100
AcDbEntity
  8
0
 62
7
100
AcDbLine
 10
16.659562
 20
9.921844
 30
0.0
 11
15.796980
 21
11.614756
 31
0.0
  0
LINE
  5
1ed
100
AcDbEntity
  8
0
 62
7
100
AcDbLine
 10
16.659562
 20
9.921844
 30
0.0
 11
15.796980
 21
11.614756
 31
0.0
  0
LINE
  5
1ee
100
AcDbEntity
  8
0
 62
7
100
AcDbLine
 10
15.796980
 20
11.614756
 30
0.0
 11
17.489892
 21
12.477338
 31
0.0
  0
LINE
  5
1ef
100
AcDbEntity
  8
0
 62
7
100
AcDbLine
 10
17.489892
 20
12.477338
 30
0.0
 11
18.352474
 21
10.784426
 31
0.0
  0
LINE
  5
1f0
100
AcDbEntity
  8
0
 62
7
100
AcDbLine
 10
18.352474
 20
10.784426
 30
0.0
 11
16.659562
 21
9.921844
 31
0.0
  0
LINE
  5
1f1
100
AcDbEntity
  8
0
 62
7
100
AcDbLine
 10
15.796980
 20
11.614756
 30
0.0
 11
17.489892
 21
12.477338
 31
0.0
  0
LINE
  5
1f2
100
AcDbEntity
  8
0
 62
7
100
AcDbLine
 10
17.489892
 20
12.477338
 30
0.0
 11
18.352474
 21
10.784426
 31
0.0
  0
LINE
  5
1f3
100
AcDbEntity
  8
0
 62
7
100
AcDbLine
 10
18.352474
 20
10.784426
 30
0.0
 11
16.659562
 21
9.921844
 31
0.0
  0
LINE
  5
1f4
100
AcDbEntity
  8
0
 62
7
100
AcDbLine
 10
19.687634
 20
12.396195
 30
0.0
 11
17.994722
 21
11.533613
 31
0.0
  0
LINE
  5
1f5
100
AcDbEntity
  8
0
 62
7
100
AcDbLine
 10
18.825052
 20
14.089108
 30
0.0
 11
19.687634
 21
12.396195
 31
0.0
  0
LINE
  5
1f6
100
AcDbEntity
  8
0
 62
7
100
AcDbLine
 10
17.132140
 20
13.226526
 30
0.0
 11
18.825052
 21
14.089108
 31
0.0
  0
LINE
  5
1f7
100
AcDbEntity
  8
0
 62
7
100
AcDbLine
 10
17.132140
 20
13.226526
 30
0.0
 11
18.825052
 21
14.089108
 31
0.0
  0
LINE
  5
1f8
100
AcDbEntity
  8
0
 62
7
100
AcDbLine
 10
19.687634
 20
12.396195
 30
0.0
 11
17.994722
 21
11.533613
 31
0.0
  0
LINE
  5
1f9
100
AcDbEntity
  8
0
 62
7
100
AcDbLine
 10
17.994722
 20
11.533613
 30
0.0
 11
17.132140
 21
13.226526
 31
0.0
  0
LINE
  5
1fa
100
AcDbEntity
  8
0
 62
7
100
AcDbLine
 10
18.825052
 20
14.089108
 30
0.0
 11
19.687634
 21
12.396195
 31
0.0
  0
LINE
  5
1fb
100
AcDbEntity
  8
0
 62
7
100
AcDbLine
 10
17.994722
 20
11.533613
 30
0.0
 11
17.132140
 21
13.226526
 31
0.0
  0
LINE
  5
1fc
100
AcDbEntity
  8
0
 62
7
100
AcDbLine
 10
13.596800
 20
4.628400
 30
0.0
 11
13.596800
 21
2.728400
 31
0.0
  0
LINE
  5
1fd
100
AcDbEntity
  8
0
 62
7
100
AcDbLine
 10
13.596800
 20
4.628400
 30
0.0
 11
13.596800
 21
2.728400
 31
0.0
  0
LINE
  5
1fe
100
AcDbEntity
  8
0
 62
7
100
AcDbLine
 10
13.596800
 20
2.728400
 30
0.0
 11
11.696800
 21
2.728400
 31
0.0
  0
LINE
  5
1ff
100
AcDbEntity
  8
0
 62
7
100
AcDbLine
 10
13.596800
 20
2.728400
 30
0.0
 11
11.696800
 21
2.728400
 31
0.0
  0
LINE
  5
200
100
AcDbEntity
  8
0
 62
7
100
AcDbLine
 10
11.696800
 20
4.628400
 30
0.0
 11
13.596800
 21
4.628400
 31
0.0
  0
LINE
  5
201
100
AcDbEntity
  8
0
 62
7
100
AcDbLine
 10
11.696800
 20
2.728400
 30
0.0
 11
11.696800
 21
4.628400
 31
0.0
  0
LINE
  5
202
100
AcDbEntity
  8
0
 62
7
100
AcDbLine
 10
11.696800
 20
2.728400
 30
0.0
 11
11.696800
 21
4.628400
 31
0.0
  0
LINE
  5
203
100
AcDbEntity
  8
0
 62
7
100
AcDbLine
 10
11.696800
 20
4.628400
 30
0.0
 11
13.596800
 21
4.628400
 31
0.0
  0
LINE
  5
204
100
AcDbEntity
  8
0
 62
7
100
AcDbLine
 10
22.063932
 20
11.961836
 30
0.0
 11
20.371019
 21
11.099254
 31
0.0
  0
LINE
  5
205
100
AcDbEntity
  8
0
 62
7
100
AcDbLine
 10
20.371019
 20
11.099254
 30
0.0
 11
19.508437
 21
12.792166
 31
0.0
  0
LINE
  5
206
100
AcDbEntity
  8
0
 62
7
100
AcDbLine
 10
22.063932
 20
11.961836
 30
0.0
 11
20.371019
 21
11.099254
 31
0.0
  0
LINE
  5
207
100
AcDbEntity
  8
0
 62
7
100
AcDbLine
 10
21.201350
 20
13.654748
 30
0.0
 11
22.063932
 21
11.961836
 31
0.0
  0
LINE
  5
208
100
AcDbEntity
  8
0
 62
7
100
AcDbLine
 10
20.371019
 20
11.099254
 30
0.0
 11
19.508437
 21
12.792166
 31
0.0
  0
LINE
  5
209
100
AcDbEntity
  8
0
 62
7
100
AcDbLine
 10
19.508437
 20
12.792166
 30
0.0
 11
21.201350
 21
13.654748
 31
0.0
  0
LINE
  5
20a
100
AcDbEntity
  8
0
 62
7
100
AcDbLine
 10
19.508437
 20
12.792166
 30
0.0
 11
21.201350
 21
13.654748
 31
0.0
  0
LINE
  5
20b
100
AcDbEntity
  8
0
 62
7
100
AcDbLine
 10
21.201350
 20
13.654748
 30
0.0
 11
22.063932
 21
11.961836
 31
0.0
  0
LINE
  5
20c
100
AcDbEntity
  8
0
 62
7
100
AcDbLine
 10
24.938406
 20
10.463773
 30
0.0
 11
23.176757
 21
9.752020
 31
0.0
  0
LINE
  5
20d
100
AcDbEntity
  8
0
 62
7
100
AcDbLine
 10
24.938406
 20
10.463773
 30
0.0
 11
23.176757
 21
9.752020
 31
0.0
  0
LINE
  5
20e
100
AcDbEntity
  8
0
 62
7
100
AcDbLine
 10
22.465005
 20
11.513669
 30
0.0
 11
24.226654
 21
12.225422
 31
0.0
  0
LINE
  5
20f
100
AcDbEntity
  8
0
 62
7
100
AcDbLine
 10
24.226654
 20
12.225422
 30
0.0
 11
24.938406
 21
10.463773
 31
0.0
  0
LINE
  5
210
100
AcDbEntity
  8
0
 62
7
100
AcDbLine
 10
24.226654
 20
12.225422
 30
0.0
 11
24.938406
 21
10.463773
 31
0.0
  0
LINE
  5
211
100
AcDbEntity
  8
0
 62
7
100
AcDbLine
 10
22.465005
 20
11.513669
 30
0.0
 11
24.226654
 21
12.225422
 31
0.0
  0
LINE
  5
212
100
AcDbEntity
  8
0
 62
7
100
AcDbLine
 10
23.176757
 20
9.752020
 30
0.0
 11
22.465005
 21
11.513669
 31
0.0
  0
LINE
  5
213
100
AcDbEntity
  8
0
 62
7
100
AcDbLine
 10
23.176757
 20
9.752020
 30
0.0
 11
22.465005
 21
11.513669
 31
0.0
  0
LINE
  5
214
100
AcDbEntity
  8
0
 62
7
100
AcDbLine
 10
3.593174
 20
13.987594
 30
0.0
 11
5.354824
 21
13.275842
 31
0.0
  0
LINE
  5
215
100
AcDbEntity
  8
0
 62
7
100
AcDbLine
 10
2.881422
 20
12.225945
 30
0.0
 11
3.593174
 21
13.987594
 31
0.0
  0
LINE
  5
216
100
AcDbEntity
  8
0
 62
7
100
AcDbLine
 10
3.593174
 20
13.987594
 30
0.0
 11
5.354824
 21
13.275842
 31
0.0
  0
LINE
  5
217
100
AcDbEntity
  8
0
 62
7
100
AcDbLine
 10
2.881422
 20
12.225945
 30
0.0
 11
3.593174
 21
13.987594
 31
0.0
  0
LINE
  5
218
100
AcDbEntity
  8
0
 62
7
100
AcDbLine
 10
4.643071
 20
11.514192
 30
0.0
 11
2.881422
 21
12.225945
 31
0.0
  0
LINE
  5
219
100
AcDbEntity
  8
0
 62
7
100
AcDbLine
 10
4.643071
 20
11.514192
 30
0.0
 11
2.881422
 21
12.225945
 31
0.0
  0
LINE
  5
21a
100
AcDbEntity
  8
0
 62
7
100
AcDbLine
 10
5.354824
 20
13.275842
 30
0.0
 11
4.643071
 21
11.514192
 31
0.0
  0
LINE
  5
21b
100
AcDbEntity
  8
0
 62
7
100
AcDbLine
 10
5.354824
 20
13.275842
 30
0.0
 11
4.643071
 21
11.514192
 31
0.0
  0
LINE
  5
21c
100
AcDbEntity
  8
0
 62
7
100
AcDbLine
 10
18.857303
 20
9.840700
 30
0.0
 11
20.550216
 21
10.703282
 31
0.0
  0
LINE
  5
21d
100
AcDbEntity
  8
0
 62
7
100
AcDbLine
 10
20.550216
 20
10.703282
 30
0.0
 11
21.412798
 21
9.010370
 31
0.0
  0
LINE
  5
21e
100
AcDbEntity
  8
0
 62
7
100
AcDbLine
 10
20.550216
 20
10.703282
 30
0.0
 11
21.412798
 21
9.010370
 31
0.0
  0
LINE
  5
21f
100
AcDbEntity
  8
0
 62
7
100
AcDbLine
 10
18.857303
 20
9.840700
 30
0.0
 11
20.550216
 21
10.703282
 31
0.0
  0
LINE
  5
220
100
AcDbEntity
  8
0
 62
7
100
AcDbLine
 10
21.412798
 20
9.010370
 30
0.0
 11
19.719885
 21
8.147788
 31
0.0
  0
LINE
  5
221
100
AcDbEntity
  8
0
 62
7
100
AcDbLine
 10
19.719885
 20
8.147788
 30
0.0
 11
18.857303
 21
9.840700
 31
0.0
  0
LINE
  5
222
100
AcDbEntity
  8
0
 62
7
100
AcDbLine
 10
19.719885
 20
8.147788
 30
0.0
 11
18.857303
 21
9.840700
 31
0.0
  0
LINE
  5
223
100
AcDbEntity
  8
0
 62
7
100
AcDbLine
 10
21.412798
 20
9.010370
 30
0.0
 11
19.719885
 21
8.147788
 31
0.0
  0
LINE
  5
224
100
AcDbEntity
  8
0
 62
7
100
AcDbLine
 10
10.469564
 20
9.914460
 30
0.0
 11
9.606982
 21
8.221548
 31
0.0
  0
LINE
  5
225
100
AcDbEntity
  8
0
 62
7
100
AcDbLine
 10
9.606982
 20
8.221548
 30
0.0
 11
7.914069
 21
9.084130
 31
0.0
  0
LINE
  5
226
100
AcDbEntity
  8
0
 62
7
100
AcDbLine
 10
10.469564
 20
9.914460
 30
0.0
 11
9.606982
 21
8.221548
 31
0.0
  0
LINE
  5
227
100
AcDbEntity
  8
0
 62
7
100
AcDbLine
 10
7.914069
 20
9.084130
 30
0.0
 11
8.776651
 21
10.777042
 31
0.0
  0
LINE
  5
228
100
AcDbEntity
  8
0
 62
7
100
AcDbLine
 10
9.606982
 20
8.221548
 30
0.0
 11
7.914069
 21
9.084130
 31
0.0
  0
LINE
  5
229
100
AcDbEntity
  8
0
 62
7
100
AcDbLine
 10
8.776651
 20
10.777042
 30
0.0
 11
10.469564
 21
9.914460
 31
0.0
  0
LINE
  5
22a
100
AcDbEntity
  8
0
 62
7
100
AcDbLine
 10
7.914069
 20
9.084130
 30
0.0
 11
8.776651
 21
10.777042
 31
0.0
  0
LINE
  5
22b
100
AcDbEntity
  8
0
 62
7
100
AcDbLine
 10
8.776651
 20
10.777042
 30
0.0
 11
10.469564
 21
9.914460
 31
0.0
  0
SPLINE
  5
22c
100
AcDbEntity
  8
0
 62
7
100
AcDbSpline
 70
8
 71
3
 72
8
 73
4
 74
0
 40
0
 40
0
 40
0
 40
0
 40
1
 40
1
 40
1
 40
1
 10
2.438396
 20
11.226801
 30
0.0
 10
2.447881
 20
11.255382
 30
0.0
 10
2.432449
 20
11.286248
 30
0.0
 10
2.403895
 20
11.295811
 30
0.0
  0
SPLINE
  5
22d
100
AcDbEntity
  8
0
 62
7
100
AcDbSpline
 70
8
 71
3
 72
8
 73
4
 74
0
 40
0
 40
0
 40
0
 40
0
 40
1
 40
1
 40
1
 40
1
 10
21.187047
 20
8.762997
 30
0.0
 10
21.172798
 20
8.757113
 30
0.0
 10
21.161808
 20
8.745329
 30
0.0
 10
21.156932
 20
8.730704
 30
0.0
  0
SPLINE
  5
22e
100
AcDbEntity
  8
0
 62
7
100
AcDbSpline
 70
8
 71
3
 72
8
 73
4
 74
0
 40
0
 40
0
 40
0
 40
0
 40
1
 40
1
 40
1
 40
1
 10
21.156932
 20
8.730704
 30
0.0
 10
21.152057
 20
8.716079
 30
0.0
 10
21.153777
 20
8.700057
 30
0.0
 10
21.161646
 20
8.686800
 30
0.0
  0
SPLINE
  5
22f
100
AcDbEntity
  8
0
 62
7
100
AcDbSpline
 70
8
 71
3
 72
8
 73
4
 74
0
 40
0
 40
0
 40
0
 40
0
 40
1
 40
1
 40
1
 40
1
 10
3.324442
 20
15.279631
 30
0.0
 10
3.348403
 20
15.272899
 30
0.0
 10
3.374130
 20
15.279674
 30
0.0
 10
3.391668
 20
15.297334
 30
0.0
  0
LINE
  5
230
100
AcDbEntity
  8
0
 62
7
100
AcDbLine
 10
20.526646
 20
15.592400
 30
0.0
 11
17.885046
 21
14.246200
 31
0.0
  0
SPLINE
  5
231
100
AcDbEntity
  8
0
 62
7
100
AcDbSpline
 70
8
 71
3
 72
8
 73
4
 74
0
 40
0
 40
0
 40
0
 40
0
 40
1
 40
1
 40
1
 40
1
 10
20.323446
 20
6.121399
 30
0.0
 10
20.307959
 20
6.111764
 30
0.0
 10
20.303083
 20
6.091476
 30
0.0
 10
20.312501
 20
6.075856
 30
0.0
  0
SPLINE
  5
232
100
AcDbEntity
  8
0
 62
7
100
AcDbSpline
 70
8
 71
3
 72
8
 73
4
 74
0
 40
0
 40
0
 40
0
 40
0
 40
1
 40
1
 40
1
 40
1
 10
20.577442
 20
15.566998
 30
0.0
 10
20.568267
 20
15.586042
 30
0.0
 10
20.547386
 20
15.596484
 30
0.0
 10
20.526646
 20
15.592400
 30
0.0
  0
SPLINE
  5
233
100
AcDbEntity
  8
0
 62
7
100
AcDbSpline
 70
8
 71
3
 72
8
 73
4
 74
0
 40
0
 40
0
 40
0
 40
0
 40
1
 40
1
 40
1
 40
1
 10
5.226406
 20
7.048214
 30
0.0
 10
5.220458
 20
7.036582
 30
0.0
 10
5.219840
 20
7.022944
 30
0.0
 10
5.224711
 20
7.010821
 30
0.0
  0
SPLINE
  5
234
100
AcDbEntity
  8
0
 62
7
100
AcDbSpline
 70
8
 71
3
 72
8
 73
4
 74
0
 40
0
 40
0
 40
0
 40
0
 40
1
 40
1
 40
1
 40
1
 10
5.224711
 20
7.010821
 30
0.0
 10
5.229583
 20
6.998699
 30
0.0
 10
5.239467
 20
6.989281
 30
0.0
 10
5.251810
 20
6.985000
 30
0.0
  0
SPLINE
  5
235
100
AcDbEntity
  8
0
 62
7
100
AcDbSpline
 70
8
 71
3
 72
8
 73
4
 74
0
 40
0
 40
0
 40
0
 40
0
 40
1
 40
1
 40
1
 40
1
 10
23.840575
 20
15.271931
 30
0.0
 10
23.858115
 20
15.254274
 30
0.0
 10
23.883842
 20
15.247501
 30
0.0
 10
23.907803
 20
15.254233
 30
0.0
  0
LINE
  5
236
100
AcDbEntity
  8
0
 62
7
100
AcDbLine
 10
17.783446
 20
14.297000
 30
0.0
 11
16.996046
 21
15.417800
 31
0.0
  0
LINE
  5
237
100
AcDbEntity
  8
0
 62
7
100
AcDbLine
 10
6.396465
 20
15.186000
 30
0.0
 11
4.278391
 21
16.044697
 31
0.0
  0
LINE
  5
238
100
AcDbEntity
  8
0
 62
7
100
AcDbLine
 10
22.953854
 20
16.019297
 30
0.0
 11
20.835781
 21
15.160600
 31
0.0
  0
SPLINE
  5
239
100
AcDbEntity
  8
0
 62
7
100
AcDbSpline
 70
8
 71
3
 72
8
 73
4
 74
0
 40
0
 40
0
 40
0
 40
0
 40
1
 40
1
 40
1
 40
1
 10
20.460818
 20
5.686062
 30
0.0
 10
20.470058
 20
5.691272
 30
0.0
 10
20.476831
 20
5.699962
 30
0.0
 10
20.479628
 20
5.710195
 30
0.0
  0
SPLINE
  5
23a
100
AcDbEntity
  8
0
 62
7
100
AcDbSpline
 70
8
 71
3
 72
8
 73
4
 74
0
 40
0
 40
0
 40
0
 40
0
 40
1
 40
1
 40
1
 40
1
 10
20.479628
 20
5.710195
 30
0.0
 10
20.482424
 20
5.720428
 30
0.0
 10
20.481012
 20
5.731354
 30
0.0
 10
20.475706
 20
5.740540
 30
0.0
  0
SPLINE
  5
23b
100
AcDbEntity
  8
0
 62
7
100
AcDbSpline
 70
8
 71
3
 72
8
 73
4
 74
0
 40
0
 40
0
 40
0
 40
0
 40
1
 40
1
 40
1
 40
1
 10
9.677400
 20
2.921000
 30
0.0
 10
12.286311
 20
2.507810
 30
0.0
 10
14.943325
 20
2.499242
 30
0.0
 10
17.554846
 20
2.895600
 30
0.0
  0
SPLINE
  5
23c
100
AcDbEntity
  8
0
 62
7
100
AcDbSpline
 70
8
 71
3
 72
8
 73
4
 74
0
 40
0
 40
0
 40
0
 40
0
 40
1
 40
1
 40
1
 40
1
 10
9.653601
 20
2.946400
 30
0.0
 10
9.653780
 20
2.933056
 30
0.0
 10
9.664096
 20
2.922046
 30
0.0
 10
9.677400
 20
2.921000
 30
0.0
  0
LINE
  5
23d
100
AcDbEntity
  8
0
 62
7
100
AcDbLine
 10
22.005835
 20
7.022812
 30
0.0
 11
21.161646
 21
8.686800
 31
0.0
  0
SPLINE
  5
23e
100
AcDbEntity
  8
0
 62
7
100
AcDbSpline
 70
8
 71
3
 72
8
 73
4
 74
0
 40
0
 40
0
 40
0
 40
0
 40
1
 40
1
 40
1
 40
1
 10
1.676400
 20
15.719401
 30
0.0
 10
1.641548
 20
15.725354
 30
0.0
 10
1.608109
 20
15.703062
 30
0.0
 10
1.600200
 20
15.668600
 30
0.0
  0
SPLINE
  5
23f
100
AcDbEntity
  8
0
 62
7
100
AcDbSpline
 70
8
 71
3
 72
8
 73
4
 74
0
 40
0
 40
0
 40
0
 40
0
 40
1
 40
1
 40
1
 40
1
 10
6.396466
 20
15.186003
 30
0.0
 10
6.418651
 20
15.178858
 30
0.0
 10
6.442612
 20
15.189895
 30
0.0
 10
6.451600
 20
15.211400
 30
0.0
  0
SPLINE
  5
240
100
AcDbEntity
  8
0
 62
7
100
AcDbSpline
 70
8
 71
3
 72
8
 73
4
 74
0
 40
0
 40
0
 40
0
 40
0
 40
1
 40
1
 40
1
 40
1
 10
6.705600
 20
15.617799
 30
0.0
 10
6.684860
 20
15.621879
 30
0.0
 10
6.663981
 20
15.611440
 30
0.0
 10
6.654800
 20
15.592400
 30
0.0
  0
LINE
  5
241
100
AcDbEntity
  8
0
 62
7
100
AcDbLine
 10
20.475706
 20
5.740540
 30
0.0
 11
20.312501
 21
6.075856
 31
0.0
  0
LINE
  5
242
100
AcDbEntity
  8
0
 62
7
100
AcDbLine
 10
2.438400
 20
11.226800
 30
0.0
 11
2.133600
 21
10.490200
 31
0.0
  0
SPLINE
  5
243
100
AcDbEntity
  8
0
 62
7
100
AcDbSpline
 70
8
 71
3
 72
8
 73
4
 74
0
 40
0
 40
0
 40
0
 40
0
 40
1
 40
1
 40
1
 40
1
 10
2.133601
 20
10.490200
 30
0.0
 10
2.129554
 20
10.481749
 30
0.0
 10
2.129098
 20
10.472020
 30
0.0
 10
2.132337
 20
10.463228
 30
0.0
  0
SPLINE
  5
244
100
AcDbEntity
  8
0
 62
7
100
AcDbSpline
 70
8
 71
3
 72
8
 73
4
 74
0
 40
0
 40
0
 40
0
 40
0
 40
1
 40
1
 40
1
 40
1
 10
2.132337
 20
10.463228
 30
0.0
 10
2.135575
 20
10.454435
 30
0.0
 10
2.142233
 20
10.447327
 30
0.0
 10
2.150795
 20
10.443521
 30
0.0
  0
SPLINE
  5
245
100
AcDbEntity
  8
0
 62
7
100
AcDbSpline
 70
8
 71
3
 72
8
 73
4
 74
0
 40
0
 40
0
 40
0
 40
0
 40
1
 40
1
 40
1
 40
1
 10
6.919741
 20
6.101258
 30
0.0
 10
6.929154
 20
6.116877
 30
0.0
 10
6.924281
 20
6.137160
 30
0.0
 10
6.908800
 20
6.146799
 30
0.0
  0
SPLINE
  5
246
100
AcDbEntity
  8
0
 62
7
100
AcDbSpline
 70
8
 71
3
 72
8
 73
4
 74
0
 40
0
 40
0
 40
0
 40
0
 40
1
 40
1
 40
1
 40
1
 10
6.756547
 20
5.765936
 30
0.0
 10
6.751206
 20
5.756759
 30
0.0
 10
6.749775
 20
5.745823
 30
0.0
 10
6.752573
 20
5.735581
 30
0.0
  0
SPLINE
  5
247
100
AcDbEntity
  8
0
 62
7
100
AcDbSpline
 70
8
 71
3
 72
8
 73
4
 74
0
 40
0
 40
0
 40
0
 40
0
 40
1
 40
1
 40
1
 40
1
 10
6.752573
 20
5.735581
 30
0.0
 10
6.755371
 20
5.725339
 30
0.0
 10
6.762164
 20
5.716649
 30
0.0
 10
6.771428
 20
5.711462
 30
0.0
  0
SPLINE
  5
248
100
AcDbEntity
  8
0
 62
7
100
AcDbSpline
 70
8
 71
3
 72
8
 73
4
 74
0
 40
0
 40
0
 40
0
 40
0
 40
1
 40
1
 40
1
 40
1
 10
17.605647
 20
4.216396
 30
0.0
 10
17.588112
 20
4.209421
 30
0.0
 10
17.577085
 20
4.191923
 30
0.0
 10
17.578359
 20
4.173094
 30
0.0
  0
LINE
  5
249
100
AcDbEntity
  8
0
 62
7
100
AcDbLine
 10
9.347200
 20
14.271600
 30
0.0
 11
6.705600
 21
15.617800
 31
0.0
  0
SPLINE
  5
24a
100
AcDbEntity
  8
0
 62
7
100
AcDbSpline
 70
8
 71
3
 72
8
 73
4
 74
0
 40
0
 40
0
 40
0
 40
0
 40
1
 40
1
 40
1
 40
1
 10
0.584204
 20
11.836399
 30
0.0
 10
0.575610
 20
11.810122
 30
0.0
 10
0.589350
 20
11.781757
 30
0.0
 10
0.615295
 20
11.772211
 30
0.0
  0
LINE
  5
24b
100
AcDbEntity
  8
0
 62
7
100
AcDbLine
 10
10.236200
 20
15.417800
 30
0.0
 11
9.448800
 21
14.297000
 31
0.0
  0
LINE
  5
24c
100
AcDbEntity
  8
0
 62
7
100
AcDbLine
 10
20.323446
 20
6.121400
 30
0.0
 11
21.980436
 21
6.959600
 31
0.0
  0
LINE
  5
24d
100
AcDbEntity
  8
0
 62
7
100
AcDbLine
 10
14.249400
 20
7.162800
 30
0.0
 11
12.877800
 21
7.162800
 31
0.0
  0
LINE
  5
24e
100
AcDbEntity
  8
0
 62
7
100
AcDbLine
 10
12.877800
 20
7.162800
 30
0.0
 11
12.877800
 21
7.823200
 31
0.0
  0
LINE
  5
24f
100
AcDbEntity
  8
0
 62
7
100
AcDbLine
 10
12.877800
 20
7.823200
 30
0.0
 11
14.249400
 21
7.823200
 31
0.0
  0
LINE
  5
250
100
AcDbEntity
  8
0
 62
7
100
AcDbLine
 10
14.249400
 20
7.823200
 30
0.0
 11
14.249400
 21
7.162800
 31
0.0
  0
LINE
  5
251
100
AcDbEntity
  8
0
 62
7
100
AcDbLine
 10
17.578646
 20
2.921000
 30
0.0
 11
17.578359
 21
4.173094
 31
0.0
  0
SPLINE
  5
252
100
AcDbEntity
  8
0
 62
7
100
AcDbSpline
 70
8
 71
3
 72
8
 73
4
 74
0
 40
0
 40
0
 40
0
 40
0
 40
1
 40
1
 40
1
 40
1
 10
25.632040
 20
15.643198
 30
0.0
 10
25.624132
 20
15.677658
 30
0.0
 10
25.590697
 20
15.699950
 30
0.0
 10
25.555846
 20
15.694000
 30
0.0
  0
SPLINE
  5
253
100
AcDbEntity
  8
0
 62
7
100
AcDbSpline
 70
8
 71
3
 72
8
 73
4
 74
0
 40
0
 40
0
 40
0
 40
0
 40
1
 40
1
 40
1
 40
1
 10
10.566400
 20
15.522097
 30
0.0
 10
12.512341
 20
14.679942
 30
0.0
 10
14.719905
 20
14.679942
 30
0.0
 10
16.665846
 20
15.522096
 30
0.0
  0
SPLINE
  5
254
100
AcDbEntity
  8
0
 62
7
100
AcDbSpline
 70
8
 71
3
 72
8
 73
4
 74
0
 40
0
 40
0
 40
0
 40
0
 40
1
 40
1
 40
1
 40
1
 10
23.007612
 20
16.011331
 30
0.0
 10
22.992785
 20
16.024254
 30
0.0
 10
22.971792
 20
16.027364
 30
0.0
 10
22.953854
 20
16.019297
 30
0.0
  0
LINE
  5
255
100
AcDbEntity
  8
0
 62
7
100
AcDbLine
 10
8.509000
 20
4.826000
 30
0.0
 11
9.626600
 21
4.241800
 31
0.0
  0
LINE
  5
256
100
AcDbEntity
  8
0
 62
7
100
AcDbLine
 10
6.919745
 20
6.101256
 30
0.0
 11
6.756540
 21
5.765940
 31
0.0
  0
LINE
  5
257
100
AcDbEntity
  8
0
 62
7
100
AcDbLine
 10
6.070600
 20
8.712200
 30
0.0
 11
5.226410
 21
7.048212
 31
0.0
  0
LINE
  5
258
100
AcDbEntity
  8
0
 62
7
100
AcDbLine
 10
2.150796
 20
10.443521
 30
0.0
 11
6.045200
 21
8.788400
 31
0.0
  0
SPLINE
  5
259
100
AcDbEntity
  8
0
 62
7
100
AcDbSpline
 70
8
 71
3
 72
8
 73
4
 74
0
 40
0
 40
0
 40
0
 40
0
 40
1
 40
1
 40
1
 40
1
 10
9.653884
 20
4.198494
 30
0.0
 10
9.655163
 20
4.217324
 30
0.0
 10
9.644137
 20
4.234824
 30
0.0
 10
9.626600
 20
4.241800
 30
0.0
  0
LINE
  5
25a
100
AcDbEntity
  8
0
 62
7
100
AcDbLine
 10
3.324443
 20
15.279633
 30
0.0
 11
1.676400
 21
15.719400
 31
0.0
  0
LINE
  5
25b
100
AcDbEntity
  8
0
 62
7
100
AcDbLine
 10
23.840578
 20
15.271935
 30
0.0
 11
23.007612
 21
16.011331
 31
0.0
  0
SPLINE
  5
25c
100
AcDbEntity
  8
0
 62
7
100
AcDbSpline
 70
8
 71
3
 72
8
 73
4
 74
0
 40
0
 40
0
 40
0
 40
0
 40
1
 40
1
 40
1
 40
1
 10
17.783442
 20
14.296998
 30
0.0
 10
17.803312
 20
14.260439
 30
0.0
 10
17.843877
 20
14.240158
 30
0.0
 10
17.885046
 20
14.246200
 30
0.0
  0
SPLINE
  5
25d
100
AcDbEntity
  8
0
 62
7
100
AcDbSpline
 70
8
 71
3
 72
8
 73
4
 74
0
 40
0
 40
0
 40
0
 40
0
 40
1
 40
1
 40
1
 40
1
 10
6.070597
 20
8.712202
 30
0.0
 10
6.078470
 20
8.725457
 30
0.0
 10
6.080194
 20
8.741480
 30
0.0
 10
6.075319
 20
8.756107
 30
0.0
  0
SPLINE
  5
25e
100
AcDbEntity
  8
0
 62
7
100
AcDbSpline
 70
8
 71
3
 72
8
 73
4
 74
0
 40
0
 40
0
 40
0
 40
0
 40
1
 40
1
 40
1
 40
1
 10
6.075319
 20
8.756107
 30
0.0
 10
6.070444
 20
8.770733
 30
0.0
 10
6.059452
 20
8.782519
 30
0.0
 10
6.045200
 20
8.788400
 30
0.0
  0
LINE
  5
25f
100
AcDbEntity
  8
0
 62
7
100
AcDbLine
 10
21.187046
 20
8.763000
 30
0.0
 11
25.081450
 21
10.418121
 31
0.0
  0
SPLINE
  5
260
100
AcDbEntity
  8
0
 62
7
100
AcDbSpline
 70
8
 71
3
 72
8
 73
4
 74
0
 40
0
 40
0
 40
0
 40
0
 40
1
 40
1
 40
1
 40
1
 10
16.996044
 20
15.417798
 30
0.0
 10
16.919236
 20
15.519075
 30
0.0
 10
16.786893
 20
15.560878
 30
0.0
 10
16.665846
 20
15.522097
 30
0.0
  0
LINE
  5
261
100
AcDbEntity
  8
0
 62
7
100
AcDbLine
 10
1.600200
 20
15.668600
 30
0.0
 11
0.584200
 21
11.836400
 31
0.0
  0
LINE
  5
262
100
AcDbEntity
  8
0
 62
7
100
AcDbLine
 10
4.224634
 20
16.036730
 30
0.0
 11
3.391668
 21
15.297334
 31
0.0
  0
SPLINE
  5
263
100
AcDbEntity
  8
0
 62
7
100
AcDbSpline
 70
8
 71
3
 72
8
 73
4
 74
0
 40
0
 40
0
 40
0
 40
0
 40
1
 40
1
 40
1
 40
1
 10
20.780644
 20
15.185999
 30
0.0
 10
20.789635
 20
15.164496
 30
0.0
 10
20.813594
 20
15.153459
 30
0.0
 10
20.835781
 20
15.160600
 30
0.0
  0
LINE
  5
264
100
AcDbEntity
  8
0
 62
7
100
AcDbLine
 10
18.723245
 20
4.800600
 30
0.0
 11
20.460817
 21
5.686063
 31
0.0
  0
SPLINE
  5
265
100
AcDbEntity
  8
0
 62
7
100
AcDbSpline
 70
8
 71
3
 72
8
 73
4
 74
0
 40
0
 40
0
 40
0
 40
0
 40
1
 40
1
 40
1
 40
1
 10
17.554845
 20
2.895605
 30
0.0
 10
17.568146
 20
2.896653
 30
0.0
 10
17.578461
 20
2.907659
 30
0.0
 10
17.578646
 20
2.921000
 30
0.0
  0
LINE
  5
266
100
AcDbEntity
  8
0
 62
7
100
AcDbLine
 10
6.771428
 20
5.711462
 30
0.0
 11
8.509000
 21
4.826000
 31
0.0
  0
LINE
  5
267
100
AcDbEntity
  8
0
 62
7
100
AcDbLine
 10
0.615295
 20
11.772211
 30
0.0
 11
2.403895
 21
11.295811
 31
0.0
  0
SPLINE
  5
268
100
AcDbEntity
  8
0
 62
7
100
AcDbSpline
 70
8
 71
3
 72
8
 73
4
 74
0
 40
0
 40
0
 40
0
 40
0
 40
1
 40
1
 40
1
 40
1
 10
26.616953
 20
11.746804
 30
0.0
 10
26.642900
 20
11.756353
 30
0.0
 10
26.656640
 20
11.784721
 30
0.0
 10
26.648046
 20
11.811000
 30
0.0
  0
SPLINE
  5
269
100
AcDbEntity
  8
0
 62
7
100
AcDbSpline
 70
8
 71
3
 72
8
 73
4
 74
0
 40
0
 40
0
 40
0
 40
0
 40
1
 40
1
 40
1
 40
1
 10
24.828349
 20
11.270418
 30
0.0
 10
24.799793
 20
11.260851
 30
0.0
 10
24.784362
 20
11.229983
 30
0.0
 10
24.793846
 20
11.201400
 30
0.0
  0
SPLINE
  5
26a
100
AcDbEntity
  8
0
 62
7
100
AcDbSpline
 70
8
 71
3
 72
8
 73
4
 74
0
 40
0
 40
0
 40
0
 40
0
 40
1
 40
1
 40
1
 40
1
 10
10.566402
 20
15.522102
 30
0.0
 10
10.445355
 20
15.559061
 30
0.0
 10
10.314052
 20
15.517586
 30
0.0
 10
10.236200
 20
15.417800
 30
0.0
  0
LINE
  5
26b
100
AcDbEntity
  8
0
 62
7
100
AcDbLine
 10
6.654800
 20
15.592400
 30
0.0
 11
6.451600
 21
15.211400
 31
0.0
  0
SPLINE
  5
26c
100
AcDbEntity
  8
0
 62
7
100
AcDbSpline
 70
8
 71
3
 72
8
 73
4
 74
0
 40
0
 40
0
 40
0
 40
0
 40
1
 40
1
 40
1
 40
1
 10
21.980435
 20
6.959602
 30
0.0
 10
21.992776
 20
6.963884
 30
0.0
 10
22.002658
 20
6.973301
 30
0.0
 10
22.007529
 20
6.985423
 30
0.0
  0
SPLINE
  5
26d
100
AcDbEntity
  8
0
 62
7
100
AcDbSpline
 70
8
 71
3
 72
8
 73
4
 74
0
 40
0
 40
0
 40
0
 40
0
 40
1
 40
1
 40
1
 40
1
 10
22.007529
 20
6.985423
 30
0.0
 10
22.012400
 20
6.997544
 30
0.0
 10
22.011782
 20
7.011181
 30
0.0
 10
22.005835
 20
7.022812
 30
0.0
  0
LINE
  5
26e
100
AcDbEntity
  8
0
 62
7
100
AcDbLine
 10
24.828351
 20
11.270411
 30
0.0
 11
26.616950
 21
11.746811
 31
0.0
  0
LINE
  5
26f
100
AcDbEntity
  8
0
 62
7
100
AcDbLine
 10
20.780646
 20
15.186000
 30
0.0
 11
20.577446
 21
15.567000
 31
0.0
  0
SPLINE
  5
270
100
AcDbEntity
  8
0
 62
7
100
AcDbSpline
 70
8
 71
3
 72
8
 73
4
 74
0
 40
0
 40
0
 40
0
 40
0
 40
1
 40
1
 40
1
 40
1
 10
4.278394
 20
16.044702
 30
0.0
 10
4.260454
 20
16.052768
 30
0.0
 10
4.239461
 20
16.049655
 30
0.0
 10
4.224634
 20
16.036730
 30
0.0
  0
LINE
  5
271
100
AcDbEntity
  8
0
 62
7
100
AcDbLine
 10
25.555846
 20
15.694000
 30
0.0
 11
23.907803
 21
15.254233
 31
0.0
  0
SPLINE
  5
272
100
AcDbEntity
  8
0
 62
7
100
AcDbSpline
 70
8
 71
3
 72
8
 73
4
 74
0
 40
0
 40
0
 40
0
 40
0
 40
1
 40
1
 40
1
 40
1
 10
25.081452
 20
10.418118
 30
0.0
 10
25.090014
 20
10.421926
 30
0.0
 10
25.096671
 20
10.429034
 30
0.0
 10
25.099910
 20
10.437827
 30
0.0
  0
SPLINE
  5
273
100
AcDbEntity
  8
0
 62
7
100
AcDbSpline
 70
8
 71
3
 72
8
 73
4
 74
0
 40
0
 40
0
 40
0
 40
0
 40
1
 40
1
 40
1
 40
1
 10
25.099910
 20
10.437827
 30
0.0
 10
25.103148
 20
10.446620
 30
0.0
 10
25.102692
 20
10.456349
 30
0.0
 10
25.098646
 20
10.464800
 30
0.0
  0
LINE
  5
274
100
AcDbEntity
  8
0
 62
7
100
AcDbLine
 10
9.653887
 20
4.198494
 30
0.0
 11
9.653600
 21
2.946400
 31
0.0
  0
LINE
  5
275
100
AcDbEntity
  8
0
 62
7
100
AcDbLine
 10
25.098646
 20
10.464800
 30
0.0
 11
24.793846
 21
11.201400
 31
0.0
  0
LINE
  5
276
100
AcDbEntity
  8
0
 62
7
100
AcDbLine
 10
17.605646
 20
4.216400
 30
0.0
 11
18.723245
 21
4.800600
 31
0.0
  0
LINE
  5
277
100
AcDbEntity
  8
0
 62
7
100
AcDbLine
 10
5.251810
 20
6.985000
 30
0.0
 11
6.908800
 21
6.146800
 31
0.0
  0
SPLINE
  5
278
100
AcDbEntity
  8
0
 62
7
100
AcDbSpline
 70
8
 71
3
 72
8
 73
4
 74
0
 40
0
 40
0
 40
0
 40
0
 40
1
 40
1
 40
1
 40
1
 10
9.347201
 20
14.271602
 30
0.0
 10
9.383179
 20
14.261802
 30
0.0
 10
9.421665
 20
14.271423
 30
0.0
 10
9.448800
 20
14.297000
 30
0.0
  0
LINE
  5
279
100
AcDbEntity
  8
0
 62
7
100
AcDbLine
 10
26.648046
 20
11.811000
 30
0.0
 11
25.632046
 21
15.643200
 31
0.0
  0
LINE
  5
27a
100
AcDbEntity
  8
0
 62
7
100
AcDbLine
 10
2.677012
 20
12.962393
 30
0.0
 11
1.324716
 21
13.324739
 31
0.0
  0
LINE
  5
27b
100
AcDbEntity
  8
0
 62
7
100
AcDbLine
 10
2.314665
 20
11.610096
 30
0.0
 11
2.677012
 21
12.962393
 31
0.0
  0
LINE
  5
27c
100
AcDbEntity
  8
0
 62
7
100
AcDbLine
 10
0.962369
 20
11.972443
 30
0.0
 11
2.314665
 21
11.610096
 31
0.0
  0
LINE
  5
27d
100
AcDbEntity
  8
0
 62
7
100
AcDbLine
 10
1.324716
 20
13.324739
 30
0.0
 11
0.962369
 21
11.972443
 31
0.0
  0
LINE
  5
27e
100
AcDbEntity
  8
0
 62
7
100
AcDbLine
 10
20.304691
 20
6.508178
 30
0.0
 11
21.552100
 21
7.143764
 31
0.0
  0
LINE
  5
27f
100
AcDbEntity
  8
0
 62
7
100
AcDbLine
 10
20.916513
 20
8.391173
 30
0.0
 11
19.669104
 21
7.755587
 31
0.0
  0
LINE
  5
280
100
AcDbEntity
  8
0
 62
7
100
AcDbLine
 10
19.669104
 20
7.755587
 30
0.0
 11
20.304691
 21
6.508178
 31
0.0
  0
LINE
  5
281
100
AcDbEntity
  8
0
 62
7
100
AcDbLine
 10
21.552100
 20
7.143764
 30
0.0
 11
20.916513
 21
8.391173
 31
0.0
  0
LINE
  5
282
100
AcDbEntity
  8
0
 62
7
100
AcDbLine
 10
25.290698
 20
15.160084
 30
0.0
 11
23.938402
 21
14.797738
 31
0.0
  0
LINE
  5
283
100
AcDbEntity
  8
0
 62
7
100
AcDbLine
 10
23.938402
 20
14.797738
 30
0.0
 11
24.300749
 21
13.445441
 31
0.0
  0
LINE
  5
284
100
AcDbEntity
  8
0
 62
7
100
AcDbLine
 10
24.300749
 20
13.445441
 30
0.0
 11
25.653045
 21
13.807788
 31
0.0
  0
LINE
  5
285
100
AcDbEntity
  8
0
 62
7
100
AcDbLine
 10
25.653045
 20
13.807788
 30
0.0
 11
25.290698
 21
15.160084
 31
0.0
  0
LINE
  5
286
100
AcDbEntity
  8
0
 62
7
100
AcDbLine
 10
18.141837
 20
6.469777
 30
0.0
 11
18.777424
 21
5.222368
 31
0.0
  0
LINE
  5
287
100
AcDbEntity
  8
0
 62
7
100
AcDbLine
 10
20.024833
 20
5.857954
 30
0.0
 11
19.389246
 21
7.105364
 31
0.0
  0
LINE
  5
288
100
AcDbEntity
  8
0
 62
7
100
AcDbLine
 10
19.389246
 20
7.105364
 30
0.0
 11
18.141837
 21
6.469777
 31
0.0
  0
LINE
  5
289
100
AcDbEntity
  8
0
 62
7
100
AcDbLine
 10
18.777424
 20
5.222368
 30
0.0
 11
20.024833
 21
5.857954
 31
0.0
  0
LINE
  5
28a
100
AcDbEntity
  8
0
 62
7
100
AcDbLine
 10
18.966557
 20
10.176950
 30
0.0
 11
20.213967
 21
10.812537
 31
0.0
  0
LINE
  5
28b
100
AcDbEntity
  8
0
 62
7
100
AcDbLine
 10
20.213967
 20
10.812537
 30
0.0
 11
19.578380
 21
12.059946
 31
0.0
  0
LINE
  5
28c
100
AcDbEntity
  8
0
 62
7
100
AcDbLine
 10
18.330971
 20
11.424359
 30
0.0
 11
18.966557
 21
10.176950
 31
0.0
  0
LINE
  5
28d
100
AcDbEntity
  8
0
 62
7
100
AcDbLine
 10
19.578380
 20
12.059946
 30
0.0
 11
18.330971
 21
11.424359
 31
0.0
  0
LINE
  5
28e
100
AcDbEntity
  8
0
 62
7
100
AcDbLine
 10
8.125925
 20
14.376350
 30
0.0
 11
6.878516
 21
15.011936
 31
0.0
  0
LINE
  5
28f
100
AcDbEntity
  8
0
 62
7
100
AcDbLine
 10
6.878516
 20
15.011936
 30
0.0
 11
6.242929
 21
13.764527
 31
0.0
  0
LINE
  5
290
100
AcDbEntity
  8
0
 62
7
100
AcDbLine
 10
6.242929
 20
13.764527
 30
0.0
 11
7.490338
 21
13.128941
 31
0.0
  0
LINE
  5
291
100
AcDbEntity
  8
0
 62
7
100
AcDbLine
 10
7.490338
 20
13.128941
 30
0.0
 11
8.125925
 21
14.376350
 31
0.0
  0
LINE
  5
292
100
AcDbEntity
  8
0
 62
7
100
AcDbLine
 10
7.777741
 20
12.498065
 30
0.0
 11
9.025150
 21
11.862478
 31
0.0
  0
LINE
  5
293
100
AcDbEntity
  8
0
 62
7
100
AcDbLine
 10
9.025150
 20
11.862478
 30
0.0
 11
9.660737
 21
13.109888
 31
0.0
  0
LINE
  5
294
100
AcDbEntity
  8
0
 62
7
100
AcDbLine
 10
8.413327
 20
13.745474
 30
0.0
 11
7.777741
 21
12.498065
 31
0.0
  0
LINE
  5
295
100
AcDbEntity
  8
0
 62
7
100
AcDbLine
 10
9.660737
 20
13.109888
 30
0.0
 11
8.413327
 21
13.745474
 31
0.0
  0
LINE
  5
296
100
AcDbEntity
  8
0
 62
7
100
AcDbLine
 10
13.879359
 20
2.978069
 30
0.0
 11
15.279359
 21
2.978069
 31
0.0
  0
LINE
  5
297
100
AcDbEntity
  8
0
 62
7
100
AcDbLine
 10
15.279359
 20
4.378069
 30
0.0
 11
13.879359
 21
4.378069
 31
0.0
  0
LINE
  5
298
100
AcDbEntity
  8
0
 62
7
100
AcDbLine
 10
13.879359
 20
4.378069
 30
0.0
 11
13.879359
 21
2.978069
 31
0.0
  0
LINE
  5
299
100
AcDbEntity
  8
0
 62
7
100
AcDbLine
 10
15.279359
 20
2.978069
 30
0.0
 11
15.279359
 21
4.378069
 31
0.0
  0
LINE
  5
29a
100
AcDbEntity
  8
0
 62
7
100
AcDbLine
 10
15.809759
 20
3.155869
 30
0.0
 11
17.209759
 21
3.155869
 31
0.0
  0
LINE
  5
29b
100
AcDbEntity
  8
0
 62
7
100
AcDbLine
 10
17.209759
 20
4.555869
 30
0.0
 11
15.809759
 21
4.555869
 31
0.0
  0
LINE
  5
29c
100
AcDbEntity
  8
0
 62
7
100
AcDbLine
 10
15.809759
 20
4.555869
 30
0.0
 11
15.809759
 21
3.155869
 31
0.0
  0
LINE
  5
29d
100
AcDbEntity
  8
0
 62
7
100
AcDbLine
 10
17.209759
 20
3.155869
 30
0.0
 11
17.209759
 21
4.555869
 31
0.0
  0
LINE
  5
29e
100
AcDbEntity
  8
0
 62
7
100
AcDbLine
 10
22.078700
 20
13.137175
 30
0.0
 11
22.603149
 21
11.839117
 31
0.0
  0
LINE
  5
29f
100
AcDbEntity
  8
0
 62
7
100
AcDbLine
 10
22.603149
 20
11.839117
 30
0.0
 11
23.901206
 21
12.363566
 31
0.0
  0
LINE
  5
2a0
100
AcDbEntity
  8
0
 62
7
100
AcDbLine
 10
23.376757
 20
13.661624
 30
0.0
 11
22.078700
 21
13.137175
 31
0.0
  0
LINE
  5
2a1
100
AcDbEntity
  8
0
 62
7
100
AcDbLine
 10
23.901206
 20
12.363566
 30
0.0
 11
23.376757
 21
13.661624
 31
0.0
  0
LINE
  5
2a2
100
AcDbEntity
  8
0
 62
7
100
AcDbLine
 10
7.104293
 20
5.850570
 30
0.0
 11
8.351702
 21
5.214984
 31
0.0
  0
LINE
  5
2a3
100
AcDbEntity
  8
0
 62
7
100
AcDbLine
 10
7.739879
 20
7.097979
 30
0.0
 11
7.104293
 21
5.850570
 31
0.0
  0
LINE
  5
2a4
100
AcDbEntity
  8
0
 62
7
100
AcDbLine
 10
8.351702
 20
5.214984
 30
0.0
 11
8.987288
 21
6.462393
 31
0.0
  0
LINE
  5
2a5
100
AcDbEntity
  8
0
 62
7
100
AcDbLine
 10
8.987288
 20
6.462393
 30
0.0
 11
7.739879
 21
7.097979
 31
0.0
  0
LINE
  5
2a6
100
AcDbEntity
  8
0
 62
7
100
AcDbLine
 10
20.229514
 20
15.011411
 30
0.0
 11
18.982105
 21
14.375825
 31
0.0
  0
LINE
  5
2a7
100
AcDbEntity
  8
0
 62
7
100
AcDbLine
 10
18.982105
 20
14.375825
 30
0.0
 11
19.617691
 21
13.128415
 31
0.0
  0
LINE
  5
2a8
100
AcDbEntity
  8
0
 62
7
100
AcDbLine
 10
19.617691
 20
13.128415
 30
0.0
 11
20.865100
 21
13.764002
 31
0.0
  0
LINE
  5
2a9
100
AcDbEntity
  8
0
 62
7
100
AcDbLine
 10
20.865100
 20
13.764002
 30
0.0
 11
20.229514
 21
15.011411
 31
0.0
  0
LINE
  5
2aa
100
AcDbEntity
  8
0
 62
7
100
AcDbLine
 10
6.627756
 20
11.436028
 30
0.0
 11
7.263343
 21
12.683437
 31
0.0
  0
LINE
  5
2ab
100
AcDbEntity
  8
0
 62
7
100
AcDbLine
 10
7.263343
 20
12.683437
 30
0.0
 11
6.015934
 21
13.319024
 31
0.0
  0
LINE
  5
2ac
100
AcDbEntity
  8
0
 62
7
100
AcDbLine
 10
6.015934
 20
13.319024
 30
0.0
 11
5.380347
 21
12.071615
 31
0.0
  0
LINE
  5
2ad
100
AcDbEntity
  8
0
 62
7
100
AcDbLine
 10
5.380347
 20
12.071615
 30
0.0
 11
6.627756
 21
11.436028
 31
0.0
  0
LINE
  5
2ae
100
AcDbEntity
  8
0
 62
7
100
AcDbLine
 10
6.052577
 20
9.112240
 30
0.0
 11
7.299986
 21
8.476653
 31
0.0
  0
LINE
  5
2af
100
AcDbEntity
  8
0
 62
7
100
AcDbLine
 10
7.299986
 20
8.476653
 30
0.0
 11
7.935573
 21
9.724063
 31
0.0
  0
LINE
  5
2b0
100
AcDbEntity
  8
0
 62
7
100
AcDbLine
 10
6.688164
 20
10.359649
 30
0.0
 11
6.052577
 21
9.112240
 31
0.0
  0
LINE
  5
2b1
100
AcDbEntity
  8
0
 62
7
100
AcDbLine
 10
7.935573
 20
9.724063
 30
0.0
 11
6.688164
 21
10.359649
 31
0.0
  0
LINE
  5
2b2
100
AcDbEntity
  8
0
 62
7
100
AcDbLine
 10
26.145667
 20
11.971783
 30
0.0
 11
25.783321
 21
13.324079
 31
0.0
  0
LINE
  5
2b3
100
AcDbEntity
  8
0
 62
7
100
AcDbLine
 10
24.793371
 20
11.609437
 30
0.0
 11
26.145667
 21
11.971783
 31
0.0
  0
LINE
  5
2b4
100
AcDbEntity
  8
0
 62
7
100
AcDbLine
 10
25.783321
 20
13.324079
 30
0.0
 11
24.431024
 21
12.961733
 31
0.0
  0
LINE
  5
2b5
100
AcDbEntity
  8
0
 62
7
100
AcDbLine
 10
24.431024
 20
12.961733
 30
0.0
 11
24.793371
 21
11.609437
 31
0.0
  0
LINE
  5
2b6
100
AcDbEntity
  8
0
 62
7
100
AcDbLine
 10
20.707268
 20
10.990000
 30
0.0
 11
21.342855
 21
9.742591
 31
0.0
  0
LINE
  5
2b7
100
AcDbEntity
  8
0
 62
7
100
AcDbLine
 10
21.954677
 20
11.625587
 30
0.0
 11
20.707268
 21
10.990000
 31
0.0
  0
LINE
  5
2b8
100
AcDbEntity
  8
0
 62
7
100
AcDbLine
 10
22.590264
 20
10.378177
 30
0.0
 11
21.954677
 21
11.625587
 31
0.0
  0
LINE
  5
2b9
100
AcDbEntity
  8
0
 62
7
100
AcDbLine
 10
21.342855
 20
9.742591
 30
0.0
 11
22.590264
 21
10.378177
 31
0.0
  0
LINE
  5
2ba
100
AcDbEntity
  8
0
 62
7
100
AcDbLine
 10
4.317595
 20
11.376089
 30
0.0
 11
3.019537
 21
11.900538
 31
0.0
  0
LINE
  5
2bb
100
AcDbEntity
  8
0
 62
7
100
AcDbLine
 10
3.793145
 20
10.078031
 30
0.0
 11
4.317595
 21
11.376089
 31
0.0
  0
LINE
  5
2bc
100
AcDbEntity
  8
0
 62
7
100
AcDbLine
 10
3.019537
 20
11.900538
 30
0.0
 11
2.495088
 21
10.602481
 31
0.0
  0
LINE
  5
2bd
100
AcDbEntity
  8
0
 62
7
100
AcDbLine
 10
2.495088
 20
10.602481
 30
0.0
 11
3.793145
 21
10.078031
 31
0.0
  0
LINE
  5
2be
100
AcDbEntity
  8
0
 62
7
100
AcDbLine
 10
11.418800
 20
3.190069
 30
0.0
 11
11.418800
 21
4.590069
 31
0.0
  0
LINE
  5
2bf
100
AcDbEntity
  8
0
 62
7
100
AcDbLine
 10
10.018800
 20
4.590069
 30
0.0
 11
10.018800
 21
3.190069
 31
0.0
  0
LINE
  5
2c0
100
AcDbEntity
  8
0
 62
7
100
AcDbLine
 10
10.018800
 20
3.190069
 30
0.0
 11
11.418800
 21
3.190069
 31
0.0
  0
LINE
  5
2c1
100
AcDbEntity
  8
0
 62
7
100
AcDbLine
 10
11.418800
 20
4.590069
 30
0.0
 11
10.018800
 21
4.590069
 31
0.0
  0
LINE
  5
2c2
100
AcDbEntity
  8
0
 62
7
100
AcDbLine
 10
3.918593
 20
14.125779
 30
0.0
 11
5.216650
 21
13.601330
 31
0.0
  0
LINE
  5
2c3
100
AcDbEntity
  8
0
 62
7
100
AcDbLine
 10
5.216650
 20
13.601330
 30
0.0
 11
5.741099
 21
14.899387
 31
0.0
  0
LINE
  5
2c4
100
AcDbEntity
  8
0
 62
7
100
AcDbLine
 10
5.741099
 20
14.899387
 30
0.0
 11
4.443042
 21
15.423837
 31
0.0
  0
LINE
  5
2c5
100
AcDbEntity
  8
0
 62
7
100
AcDbLine
 10
4.443042
 20
15.423837
 30
0.0
 11
3.918593
 21
14.125779
 31
0.0
  0
LINE
  5
2c6
100
AcDbEntity
  8
0
 62
7
100
AcDbLine
 10
6.824435
 20
6.500794
 30
0.0
 11
7.460021
 21
7.748203
 31
0.0
  0
LINE
  5
2c7
100
AcDbEntity
  8
0
 62
7
100
AcDbLine
 10
5.577026
 20
7.136381
 30
0.0
 11
6.824435
 21
6.500794
 31
0.0
  0
LINE
  5
2c8
100
AcDbEntity
  8
0
 62
7
100
AcDbLine
 10
6.212612
 20
8.383790
 30
0.0
 11
5.577026
 21
7.136381
 31
0.0
  0
LINE
  5
2c9
100
AcDbEntity
  8
0
 62
7
100
AcDbLine
 10
7.460021
 20
7.748203
 30
0.0
 11
6.212612
 21
8.383790
 31
0.0
  0
LINE
  5
2ca
100
AcDbEntity
  8
0
 62
7
100
AcDbLine
 10
18.243220
 20
10.448177
 30
0.0
 11
16.995811
 21
9.812590
 31
0.0
  0
LINE
  5
2cb
100
AcDbEntity
  8
0
 62
7
100
AcDbLine
 10
16.995811
 20
9.812590
 30
0.0
 11
17.631397
 21
8.565181
 31
0.0
  0
LINE
  5
2cc
100
AcDbEntity
  8
0
 62
7
100
AcDbLine
 10
18.878807
 20
9.200767
 30
0.0
 11
18.243220
 21
10.448177
 31
0.0
  0
LINE
  5
2cd
100
AcDbEntity
  8
0
 62
7
100
AcDbLine
 10
17.631397
 20
8.565181
 30
0.0
 11
18.878807
 21
9.200767
 31
0.0
  0
LINE
  5
2ce
100
AcDbEntity
  8
0
 62
7
100
AcDbLine
 10
3.168017
 20
14.799432
 30
0.0
 11
1.815721
 21
15.161778
 31
0.0
  0
LINE
  5
2cf
100
AcDbEntity
  8
0
 62
7
100
AcDbLine
 10
2.805671
 20
13.447136
 30
0.0
 11
3.168017
 21
14.799432
 31
0.0
  0
LINE
  5
2d0
100
AcDbEntity
  8
0
 62
7
100
AcDbLine
 10
1.815721
 20
15.161778
 30
0.0
 11
1.453374
 21
13.809482
 31
0.0
  0
LINE
  5
2d1
100
AcDbEntity
  8
0
 62
7
100
AcDbLine
 10
1.453374
 20
13.809482
 30
0.0
 11
2.805671
 21
13.447136
 31
0.0
  0
LINE
  5
2d2
100
AcDbEntity
  8
0
 62
7
100
AcDbLine
 10
4.517765
 20
10.378702
 30
0.0
 11
5.765174
 21
9.743116
 31
0.0
  0
LINE
  5
2d3
100
AcDbEntity
  8
0
 62
7
100
AcDbLine
 10
5.765174
 20
9.743116
 30
0.0
 11
6.400761
 21
10.990525
 31
0.0
  0
LINE
  5
2d4
100
AcDbEntity
  8
0
 62
7
100
AcDbLine
 10
6.400761
 20
10.990525
 30
0.0
 11
5.153352
 21
11.626112
 31
0.0
  0
LINE
  5
2d5
100
AcDbEntity
  8
0
 62
7
100
AcDbLine
 10
5.153352
 20
11.626112
 30
0.0
 11
4.517765
 21
10.378702
 31
0.0
  0
LINE
  5
2d6
100
AcDbEntity
  8
0
 62
7
100
AcDbLine
 10
22.665005
 20
15.423273
 30
0.0
 11
21.366947
 21
14.898824
 31
0.0
  0
LINE
  5
2d7
100
AcDbEntity
  8
0
 62
7
100
AcDbLine
 10
21.891397
 20
13.600766
 30
0.0
 11
23.189454
 21
14.125216
 31
0.0
  0
LINE
  5
2d8
100
AcDbEntity
  8
0
 62
7
100
AcDbLine
 10
23.189454
 20
14.125216
 30
0.0
 11
22.665005
 21
15.423273
 31
0.0
  0
LINE
  5
2d9
100
AcDbEntity
  8
0
 62
7
100
AcDbLine
 10
21.366947
 20
14.898824
 30
0.0
 11
21.891397
 21
13.600766
 31
0.0
  0
LINE
  5
2da
100
AcDbEntity
  8
0
 62
7
100
AcDbLine
 10
8.162568
 20
10.169566
 30
0.0
 11
8.798154
 21
11.416975
 31
0.0
  0
LINE
  5
2db
100
AcDbEntity
  8
0
 62
7
100
AcDbLine
 10
7.550745
 20
12.052562
 30
0.0
 11
6.915159
 21
10.805153
 31
0.0
  0
LINE
  5
2dc
100
AcDbEntity
  8
0
 62
7
100
AcDbLine
 10
8.798154
 20
11.416975
 30
0.0
 11
7.550745
 21
12.052562
 31
0.0
  0
LINE
  5
2dd
100
AcDbEntity
  8
0
 62
7
100
AcDbLine
 10
6.915159
 20
10.805153
 30
0.0
 11
8.162568
 21
10.169566
 31
0.0
  0
LINE
  5
2de
100
AcDbEntity
  8
0
 62
7
100
AcDbLine
 10
10.360310
 20
10.250709
 30
0.0
 11
10.995897
 21
11.498118
 31
0.0
  0
LINE
  5
2df
100
AcDbEntity
  8
0
 62
7
100
AcDbLine
 10
10.995897
 20
11.498118
 30
0.0
 11
9.748487
 21
12.133705
 31
0.0
  0
LINE
  5
2e0
100
AcDbEntity
  8
0
 62
7
100
AcDbLine
 10
9.112901
 20
10.886296
 30
0.0
 11
10.360310
 21
10.250709
 31
0.0
  0
LINE
  5
2e1
100
AcDbEntity
  8
0
 62
7
100
AcDbLine
 10
9.748487
 20
12.133705
 30
0.0
 11
9.112901
 21
10.886296
 31
0.0
  0
LINE
  5
2e2
100
AcDbEntity
  8
0
 62
7
100
AcDbLine
 10
16.133229
 20
11.505502
 30
0.0
 11
16.768816
 21
10.258093
 31
0.0
  0
LINE
  5
2e3
100
AcDbEntity
  8
0
 62
7
100
AcDbLine
 10
18.016225
 20
10.893680
 30
0.0
 11
17.380638
 21
12.141089
 31
0.0
  0
LINE
  5
2e4
100
AcDbEntity
  8
0
 62
7
100
AcDbLine
 10
16.768816
 20
10.258093
 30
0.0
 11
18.016225
 21
10.893680
 31
0.0
  0
LINE
  5
2e5
100
AcDbEntity
  8
0
 62
7
100
AcDbLine
 10
17.380638
 20
12.141089
 30
0.0
 11
16.133229
 21
11.505502
 31
0.0
  0
LINE
  5
2e6
100
AcDbEntity
  8
0
 62
7
100
AcDbLine
 10
17.468389
 20
13.117272
 30
0.0
 11
18.103976
 21
11.869862
 31
0.0
  0
LINE
  5
2e7
100
AcDbEntity
  8
0
 62
7
100
AcDbLine
 10
18.715798
 20
13.752858
 30
0.0
 11
17.468389
 21
13.117272
 31
0.0
  0
LINE
  5
2e8
100
AcDbEntity
  8
0
 62
7
100
AcDbLine
 10
19.351385
 20
12.505449
 30
0.0
 11
18.715798
 21
13.752858
 31
0.0
  0
LINE
  5
2e9
100
AcDbEntity
  8
0
 62
7
100
AcDbLine
 10
18.103976
 20
11.869862
 30
0.0
 11
19.351385
 21
12.505449
 31
0.0
  0
LINE
  5
2ea
100
AcDbEntity
  8
0
 62
7
100
AcDbLine
 10
13.346800
 20
2.978400
 30
0.0
 11
13.346800
 21
4.378400
 31
0.0
  0
LINE
  5
2eb
100
AcDbEntity
  8
0
 62
7
100
AcDbLine
 10
11.946800
 20
4.378400
 30
0.0
 11
11.946800
 21
2.978400
 31
0.0
  0
LINE
  5
2ec
100
AcDbEntity
  8
0
 62
7
100
AcDbLine
 10
13.346800
 20
4.378400
 30
0.0
 11
11.946800
 21
4.378400
 31
0.0
  0
LINE
  5
2ed
100
AcDbEntity
  8
0
 62
7
100
AcDbLine
 10
11.946800
 20
2.978400
 30
0.0
 11
13.346800
 21
2.978400
 31
0.0
  0
LINE
  5
2ee
100
AcDbEntity
  8
0
 62
7
100
AcDbLine
 10
20.480273
 20
11.435503
 30
0.0
 11
21.727682
 21
12.071090
 31
0.0
  0
LINE
  5
2ef
100
AcDbEntity
  8
0
 62
7
100
AcDbLine
 10
21.727682
 20
12.071090
 30
0.0
 11
21.092096
 21
13.318499
 31
0.0
  0
LINE
  5
2f0
100
AcDbEntity
  8
0
 62
7
100
AcDbLine
 10
19.844687
 20
12.682912
 30
0.0
 11
20.480273
 21
11.435503
 31
0.0
  0
LINE
  5
2f1
100
AcDbEntity
  8
0
 62
7
100
AcDbLine
 10
21.092096
 20
13.318499
 30
0.0
 11
19.844687
 21
12.682912
 31
0.0
  0
LINE
  5
2f2
100
AcDbEntity
  8
0
 62
7
100
AcDbLine
 10
24.088510
 20
11.899974
 30
0.0
 11
22.790452
 21
11.375525
 31
0.0
  0
LINE
  5
2f3
100
AcDbEntity
  8
0
 62
7
100
AcDbLine
 10
24.612959
 20
10.601917
 30
0.0
 11
24.088510
 21
11.899974
 31
0.0
  0
LINE
  5
2f4
100
AcDbEntity
  8
0
 62
7
100
AcDbLine
 10
23.314901
 20
10.077468
 30
0.0
 11
24.612959
 21
10.601917
 31
0.0
  0
LINE
  5
2f5
100
AcDbEntity
  8
0
 62
7
100
AcDbLine
 10
22.790452
 20
11.375525
 30
0.0
 11
23.314901
 21
10.077468
 31
0.0
  0
LINE
  5
2f6
100
AcDbEntity
  8
0
 62
7
100
AcDbLine
 10
3.731319
 20
13.662146
 30
0.0
 11
3.206869
 21
12.364089
 31
0.0
  0
LINE
  5
2f7
100
AcDbEntity
  8
0
 62
7
100
AcDbLine
 10
4.504927
 20
11.839640
 30
0.0
 11
5.029376
 21
13.137697
 31
0.0
  0
LINE
  5
2f8
100
AcDbEntity
  8
0
 62
7
100
AcDbLine
 10
3.206869
 20
12.364089
 30
0.0
 11
4.504927
 21
11.839640
 31
0.0
  0
LINE
  5
2f9
100
AcDbEntity
  8
0
 62
7
100
AcDbLine
 10
5.029376
 20
13.137697
 30
0.0
 11
3.731319
 21
13.662146
 31
0.0
  0
LINE
  5
2fa
100
AcDbEntity
  8
0
 62
7
100
AcDbLine
 10
19.193553
 20
9.731446
 30
0.0
 11
19.829139
 21
8.484037
 31
0.0
  0
LINE
  5
2fb
100
AcDbEntity
  8
0
 62
7
100
AcDbLine
 10
20.440962
 20
10.367033
 30
0.0
 11
19.193553
 21
9.731446
 31
0.0
  0
LINE
  5
2fc
100
AcDbEntity
  8
0
 62
7
100
AcDbLine
 10
19.829139
 20
8.484037
 30
0.0
 11
21.076549
 21
9.119624
 31
0.0
  0
LINE
  5
2fd
100
AcDbEntity
  8
0
 62
7
100
AcDbLine
 10
21.076549
 20
9.119624
 30
0.0
 11
20.440962
 21
10.367033
 31
0.0
  0
LINE
  5
2fe
100
AcDbEntity
  8
0
 62
7
100
AcDbLine
 10
8.885905
 20
10.440793
 30
0.0
 11
8.250319
 21
9.193384
 31
0.0
  0
LINE
  5
2ff
100
AcDbEntity
  8
0
 62
7
100
AcDbLine
 10
10.133314
 20
9.805206
 30
0.0
 11
8.885905
 21
10.440793
 31
0.0
  0
LINE
  5
300
100
AcDbEntity
  8
0
 62
7
100
AcDbLine
 10
9.497728
 20
8.557797
 30
0.0
 11
10.133314
 21
9.805206
 31
0.0
  0
LINE
  5
301
100
AcDbEntity
  8
0
 62
7
100
AcDbLine
 10
8.250319
 20
9.193384
 30
0.0
 11
9.497728
 21
8.557797
 31
0.0
  0
ENDSEC
  0
SECTION
  2
OBJECTS
  0
DICTIONARY
  5
C
330
0
100
AcDbDictionary
  3
ACAD_GROUP
350
D
  3
ACAD_MLINESTYLE
350
17
  0
DICTIONARY
  5
D
330
C
100
AcDbDictionary
  0
DICTIONARY
  5
1A
330
C
100
AcDbDictionary
  0
DICTIONARY
  5
17
330
C
100
AcDbDictionary
  3
STANDARD
350
18
  0
DICTIONARY
  5
19
330
C
100
AcDbDictionary
  0
ENDSEC
  0
EOF
