  0
SECTION
  2
HEADER
  9
$ACADVER
  1
AC1014
  9
$HANDSEED
  5
FFFF
  9
$MEASUREMENT
 70
     1
  0
ENDSEC
  0
SECTION
  2
TABLES
  0
TABLE
  2
VPORT
  5
8
330
0
100
AcDbSymbolTable
 70
     4
  0
VPORT
  5
2E
330
8
100
AcDbSymbolTableRecord
100
AcDbViewportTableRecord
  2
*ACTIVE
 70
     0
 10
0.0
 20
0.0
 11
1.0
 21
1.0
 12
210.0
 22
148.5
 13
0.0
 23
0.0
 14
10.0
 24
10.0
 15
10.0
 25
10.0
 16
0.0
 26
0.0
 36
1.0
 17
0.0
 27
0.0
 37
0.0
 40
341.0
 41
1.24
 42
50.0
 43
0.0
 44
0.0
 50
0.0
 51
0.0
 71
     0
 72
   100
 73
     1
 74
     3
 75
     0
 76
     0
 77
     0
 78
     0
  0
ENDTAB
  0
TABLE
  2
LTYPE
  5
5
330
0
100
AcDbSymbolTable
 70
     1
  0
LTYPE
  5
14
330
5
100
AcDbSymbolTableRecord
100
AcDbLinetypeTableRecord
  2
BYBLOCK
 70
     0
  3

 72
    65
 73
     0
 40
0.0
  0
LTYPE
  5
15
330
5
100
AcDbSymbolTableRecord
100
AcDbLinetypeTableRecord
  2
BYLAYER
 70
     0
  3

 72
    65
 73
     0
 40
0.0
  0
LTYPE
  5
16
330
5
100
AcDbSymbolTableRecord
100
AcDbLinetypeTableRecord
  2
CONTINUOUS
 70
     0
  3
Solid line
 72
    65
 73
     0
 40
0.0
  0
ENDTAB
  0
TABLE
  2
LAYER
  5
2
100
AcDbSymbolTable
 70
1
  0
LAYER
  5
50
100
AcDbSymbolTableRecord
100
AcDbLayerTableRecord
  2
0
 70
0
  6
CONTINUOUS
  0
ENDTAB
  0
TABLE
  2
STYLE
  5
3
330
0
100
AcDbSymbolTable
 70
     1
  0
STYLE
  5
11
330
3
100
AcDbSymbolTableRecord
100
AcDbTextStyleTableRecord
  2
STANDARD
 70
     0
 40
0.0
 41
1.0
 50
0.0
 71
     0
 42
2.5
  3
txt
  4

  0
ENDTAB
  0
TABLE
  2
VIEW
  5
6
330
0
100
AcDbSymbolTable
 70
     0
  0
ENDTAB
  0
TABLE
  2
UCS
  5
7
330
0
100
AcDbSymbolTable
 70
     0
  0
ENDTAB
  0
TABLE
  2
APPID
  5
9
330
0
100
AcDbSymbolTable
 70
     2
  0
APPID
  5
12
330
9
100
AcDbSymbolTableRecord
100
AcDbRegAppTableRecord
  2
ACAD
 70
     0
  0
ENDTAB
  0
TABLE
  2
DIMSTYLE
  5
A
330
0
100
AcDbSymbolTable
 70
     1
  0
DIMSTYLE
105
27
330
A
100
AcDbSymbolTableRecord
100
AcDbDimStyleTableRecord
  2
ISO-25
 70
     0
  3

  4

  5

  6

  7

 40
1.0
 41
2.5
 42
0.625
 43
3.75
 44
1.25
 45
0.0
 46
0.0
 47
0.0
 48
0.0
140
2.5
141
2.5
142
0.0
143
0.03937007874016
144
1.0
145
0.0
146
1.0
147
0.625
 71
     0
 72
     0
 73
     0
 74
     0
 75
     0
 76
     0
 77
     1
 78
     8
170
     0
171
     3
172
     1
173
     0
174
     0
175
     0
176
     0
177
     0
178
     0
270
     2
271
     2
272
     2
273
     2
274
     3
340
11
275
     0
280
     0
281
     0
282
     0
283
     0
284
     8
285
     0
286
     0
287
     3
288
     0
  0
ENDTAB
  0
TABLE
  2
BLOCK_RECORD
  5
1
330
0
100
AcDbSymbolTable
 70
     1
  0
BLOCK_RECORD
  5
1F
330
1
100
AcDbSymbolTableRecord
100
AcDbBlockTableRecord
  2
*MODEL_SPACE
  0
BLOCK_RECORD
  5
1B
330
1
100
AcDbSymbolTableRecord
100
AcDbBlockTableRecord
  2
*PAPER_SPACE
  0
ENDTAB
  0
ENDSEC
  0
SECTION
  2
BLOCKS
  0
BLOCK
  5
20
330
1F
100
AcDbEntity
  8
0
100
AcDbBlockBegin
  2
*MODEL_SPACE
 70
     0
 10
0.0
 20
0.0
 30
0.0
  3
*MODEL_SPACE
  1

  0
ENDBLK
  5
21
330
1F
100
AcDbEntity
  8
0
100
AcDbBlockEnd
  0
BLOCK
  5
1C
330
1B
100
AcDbEntity
 67
     1
  8
0
100
AcDbBlockBegin
  2
*PAPER_SPACE
  1

  0
ENDBLK
  5
1D
330
1B
100
AcDbEntity
 67
     1
  8
0
100
AcDbBlockEnd
  0
ENDSEC
  0
SECTION
  2
ENTITIES
  0
SPLINE
  5
100
100
AcDbEntity
  8
0
 62
7
100
AcDbSpline
 70
0
 71
3
 72
10
 73
6
 74
4
 40
0.000000
 40
0.000000
 40
0.000000
 40
0.000000
 40
3011753.483216
 40
5969875.786744
 40
8981629.269959
 40
8981629.269959
 40
8981629.269959
 40
8981629.269959
 10
35876442.460417
 20
31767991.402083
 30
0.0
 10
34870188.190193
 20
31649596.845909
 30
0.0
 10
32875598.315359
 20
31414916.020227
 30
0.0
 10
30262164.253572
 20
29668675.208531
 30
0.0
 10
29282050.942591
 20
27915722.911300
 30
0.0
 10
28787591.797419
 20
27031372.821668
 30
0.0
 11
35876442.460417
 21
31767991.402083
 31
0.0
 11
32923217.070066
 21
31177128.611371
 31
0.0
 11
30463628.265208
 21
29533683.913899
 31
0.0
 11
28787591.797419
 21
27031372.821668
 31
0.0
  0
SPLINE
  5
101
100
AcDbEntity
  8
0
 62
7
100
AcDbSpline
 70
0
 71
3
 72
13
 73
9
 74
7
 40
0.000000
 40
0.000000
 40
0.000000
 40
0.000000
 40
3011753.483216
 40
5969875.786744
 40
8981629.269959
 40
11993382.753175
 40
14951505.056703
 40
17963258.539919
 40
17963258.539919
 40
17963258.539919
 40
17963258.539919
 10
28787591.797419
 20
27031372.821668
 30
0.0
 10
28508677.599101
 20
26053187.794209
 30
0.0
 10
27955815.909592
 20
24114236.567647
 30
0.0
 10
28616509.543760
 20
21078976.307269
 30
0.0
 10
30305801.539150
 20
18524433.814150
 30
0.0
 10
32860344.032269
 20
16835141.818760
 30
0.0
 10
35895604.292647
 20
16174448.184592
 30
0.0
 10
37834555.519209
 20
16727309.874101
 30
0.0
 10
38812740.546668
 20
17006224.072419
 30
0.0
 11
28787591.797419
 21
27031372.821668
 31
0.0
 11
28203327.407353
 21
24076834.927823
 31
0.0
 11
28780428.440112
 21
21175552.114890
 31
0.0
 11
30450871.053937
 21
18669503.328937
 31
0.0
 11
32956919.839890
 21
16999060.715112
 31
0.0
 11
35858202.652823
 21
16421959.682353
 31
0.0
 11
38812740.546668
 21
17006224.072419
 31
0.0
  0
SPLINE
  5
102
100
AcDbEntity
  8
0
 62
7
100
AcDbSpline
 70
0
 71
3
 72
10
 73
6
 74
4
 40
0.000000
 40
0.000000
 40
0.000000
 40
0.000000
 40
3011753.483216
 40
5969875.786744
 40
8981629.269959
 40
8981629.269959
 40
8981629.269959
 40
8981629.269959
 10
38812740.546668
 20
17006224.072419
 30
0.0
 10
39697090.636300
 20
17500683.217591
 30
0.0
 10
41450042.933531
 20
18480796.528572
 30
0.0
 10
43196283.745227
 20
21094230.590359
 30
0.0
 10
43430964.570909
 20
23088820.465193
 30
0.0
 10
43549359.127083
 20
24095074.735417
 30
0.0
 11
38812740.546668
 21
17006224.072419
 31
0.0
 11
41315051.638899
 21
18682260.540208
 31
0.0
 11
42958496.336371
 21
21141849.345066
 31
0.0
 11
43549359.127083
 21
24095074.735417
 31
0.0
  0
LINE
  5
103
100
AcDbEntity
  8
0
 62
7
100
AcDbLine
 10
35876442.460417
 20
31767991.402083
 30
0.0
 11
35876442.460417
 21
31767991.402083
 31
0.0
  0
SPLINE
  5
104
100
AcDbEntity
  8
0
 62
7
100
AcDbSpline
 70
0
 71
3
 72
13
 73
9
 74
7
 40
0.000000
 40
0.000000
 40
0.000000
 40
0.000000
 40
2008576.844360
 40
4000531.998600
 40
6009108.842960
 40
8017685.687320
 40
10009640.841560
 40
12018217.685920
 40
12018217.685920
 40
12018217.685920
 40
12018217.685920
 10
43549359.127083
 20
24095074.735417
 30
0.0
 10
43498209.584477
 20
24766556.532802
 30
0.0
 10
43396333.779981
 20
26103963.376090
 30
0.0
 10
42591251.482427
 20
27974936.229562
 30
0.0
 10
41366398.343355
 20
29585030.618355
 30
0.0
 10
39756303.954562
 20
30809883.757427
 30
0.0
 10
37885331.101090
 20
31614966.054981
 30
0.0
 10
36547924.257802
 20
31716841.859477
 30
0.0
 10
35876442.460417
 20
31767991.402083
 30
0.0
 11
43549359.127083
 21
24095074.735417
 31
0.0
 11
43286480.949361
 21
26086374.814103
 31
0.0
 11
42524192.713819
 21
27926701.410786
 31
0.0
 11
41302013.866896
 21
29520646.141896
 31
0.0
 11
39708069.135786
 21
30742824.988819
 31
0.0
 11
37867742.539103
 21
31505113.224361
 31
0.0
 11
35876442.460417
 21
31767991.402083
 31
0.0
  0
SPLINE
  5
105
100
AcDbEntity
  8
0
 62
7
100
AcDbSpline
 70
0
 71
3
 72
10
 73
6
 74
4
 40
0.000000
 40
0.000000
 40
0.000000
 40
0.000000
 40
2492485.745135
 40
4940587.063853
 40
7433072.808988
 40
7433072.808988
 40
7433072.808988
 40
7433072.808988
 10
35876442.460417
 20
30445075.000000
 30
0.0
 10
35043680.271050
 20
30347093.294256
 30
0.0
 10
33392985.133443
 20
30152874.671806
 30
0.0
 10
31230143.061157
 20
28707709.801912
 30
0.0
 10
30419014.769995
 20
27256990.598929
 30
0.0
 10
30009807.184527
 20
26525114.632187
 30
0.0
 11
35876442.460417
 21
30445075.000000
 31
0.0
 11
33432393.759670
 21
29956085.083863
 31
0.0
 11
31396871.905319
 21
28595992.863768
 31
0.0
 11
30009807.184527
 21
26525114.632187
 31
0.0
  0
SPLINE
  5
106
100
AcDbEntity
  8
0
 62
7
100
AcDbSpline
 70
0
 71
3
 72
10
 73
6
 74
4
 40
0.000000
 40
0.000000
 40
0.000000
 40
0.000000
 40
2492485.745135
 40
4940587.063853
 40
7433072.808988
 40
7433072.808988
 40
7433072.808988
 40
7433072.808988
 10
30009807.184527
 20
26525114.632187
 30
0.0
 10
29781646.184054
 20
25718246.714518
 30
0.0
 10
29329387.113120
 20
24118879.013399
 30
0.0
 10
29836861.529634
 20
21567632.838015
 30
0.0
 10
30866745.950141
 20
20263081.807574
 30
0.0
 10
31386314.212793
 20
19604946.487793
 30
0.0
 11
30009807.184527
 21
26525114.632187
 31
0.0
 11
29526278.013981
 21
24079979.721607
 31
0.0
 11
30003878.888578
 21
21678917.983274
 31
0.0
 11
31386314.212793
 21
19604946.487793
 31
0.0
  0
SPLINE
  5
107
100
AcDbEntity
  8
0
 62
7
100
AcDbSpline
 70
0
 71
3
 72
10
 73
6
 74
4
 40
0.000000
 40
0.000000
 40
0.000000
 40
0.000000
 40
2492485.745135
 40
4940587.063853
 40
7433072.808988
 40
7433072.808988
 40
7433072.808988
 40
7433072.808988
 10
31386314.212793
 20
19604946.487793
 30
0.0
 10
32044449.532574
 20
19085378.225141
 30
0.0
 10
33349000.563015
 20
18055493.804634
 30
0.0
 10
35900246.738399
 20
17548019.388120
 30
0.0
 10
37499614.439518
 20
18000278.459054
 30
0.0
 10
38306482.357187
 20
18228439.459527
 30
0.0
 11
31386314.212793
 21
19604946.487793
 31
0.0
 11
33460285.708274
 21
18222511.163578
 31
0.0
 11
35861347.446607
 21
17744910.288981
 31
0.0
 11
38306482.357187
 21
18228439.459527
 31
0.0
  0
LINE
  5
108
100
AcDbEntity
  8
0
 62
7
100
AcDbLine
 10
35876442.460417
 20
30445075.000000
 30
0.0
 11
35876442.460417
 21
30445075.000000
 31
0.0
  0
SPLINE
  5
109
100
AcDbEntity
  8
0
 62
7
100
AcDbSpline
 70
0
 71
3
 72
16
 73
12
 74
10
 40
0.000000
 40
0.000000
 40
0.000000
 40
0.000000
 40
2492485.745135
 40
4940587.063853
 40
7433072.808988
 40
9095343.370134
 40
10743858.049227
 40
12406128.610373
 40
14068399.171518
 40
15716913.850612
 40
17379184.411757
 40
17379184.411757
 40
17379184.411757
 40
17379184.411757
 10
38306482.357187
 20
18228439.459527
 30
0.0
 10
39042083.506918
 20
18637635.650298
 30
0.0
 10
40500186.740452
 20
19448741.354974
 30
0.0
 10
41890399.017738
 20
21611751.517836
 30
0.0
 10
42338008.845350
 20
23817251.189726
 30
0.0
 10
42079987.406647
 20
25757663.941455
 30
0.0
 10
41438865.562394
 20
27305978.393684
 30
0.0
 10
40418418.791500
 20
28638491.081242
 30
0.0
 10
39087741.642630
 20
29652157.135641
 30
0.0
 10
37538875.670062
 20
30318433.619937
 30
0.0
 10
36432119.672704
 20
30402744.439815
 30
0.0
 10
35876442.460417
 20
30445075.000000
 30
0.0
 11
38306482.357187
 21
18228439.459527
 31
0.0
 11
40377360.588768
 21
19615504.180319
 31
0.0
 11
41737452.808863
 21
21651026.034670
 31
0.0
 11
42226442.725000
 21
24095074.735417
 31
0.0
 11
42008888.361958
 21
25743047.282995
 31
0.0
 11
41378029.106258
 21
27266076.254054
 31
0.0
 11
40366570.708040
 21
28585202.983040
 31
0.0
 11
39047443.979054
 21
29596661.381258
 31
0.0
 11
37524415.007995
 21
30227520.636958
 31
0.0
 11
35876442.460417
 21
30445075.000000
 31
0.0
  0
SPLINE
  5
10a
100
AcDbEntity
  8
0
 62
7
100
AcDbSpline
 70
0
 71
3
 72
13
 73
9
 74
7
 40
0.000000
 40
0.000000
 40
0.000000
 40
0.000000
 40
3115607.051602
 40
6175733.572494
 40
9291340.624096
 40
12406947.675698
 40
15467074.196590
 40
18582681.248192
 40
18582681.248192
 40
18582681.248192
 40
18582681.248192
 10
35876442.460417
 20
32032574.735417
 30
0.0
 10
34831138.010114
 20
31911900.165095
 30
0.0
 10
32759143.153160
 20
31672699.912003
 30
0.0
 10
30119786.267563
 20
29839653.215006
 30
0.0
 10
28347070.269018
 20
27213842.813249
 30
0.0
 10
27743841.431515
 20
24103614.968367
 30
0.0
 10
28313988.833613
 20
20941148.066912
 30
0.0
 10
29609970.326526
 20
19306886.331953
 30
0.0
 10
30263782.384748
 20
18482414.659748
 30
0.0
 11
35876442.460417
 21
32032574.735417
 31
0.0
 11
32821381.711778
 21
31421337.365714
 31
0.0
 11
30276979.499856
 21
29721222.161433
 31
0.0
 11
28543148.671108
 21
27132624.479815
 31
0.0
 11
27938737.233110
 21
24076205.968941
 31
0.0
 11
28535738.301481
 21
21074878.921079
 31
0.0
 11
30263782.384748
 21
18482414.659748
 31
0.0
  0
SPLINE
  5
10b
100
AcDbEntity
  8
0
 62
7
100
AcDbSpline
 70
0
 71
3
 72
10
 73
6
 74
4
 40
0.000000
 40
0.000000
 40
0.000000
 40
0.000000
 40
3115607.051602
 40
6175733.572494
 40
9291340.624096
 40
9291340.624096
 40
9291340.624096
 40
9291340.624096
 10
30263782.384748
 20
18482414.659748
 30
0.0
 10
31086451.500197
 20
17832954.358493
 30
0.0
 10
32717140.220302
 20
16545598.886499
 30
0.0
 10
35906197.806655
 20
15911255.892288
 30
0.0
 10
37905407.349754
 20
16476579.707401
 30
0.0
 10
38913992.204815
 20
16761780.946108
 30
0.0
 11
30263782.384748
 21
18482414.659748
 31
0.0
 11
32856246.646079
 21
16754370.576481
 31
0.0
 11
35857573.693941
 21
16157369.508110
 31
0.0
 11
38913992.204815
 21
16761780.946108
 31
0.0
  0
LINE
  5
10c
100
AcDbEntity
  8
0
 62
7
100
AcDbLine
 10
35876442.460417
 20
32032574.735417
 30
0.0
 11
35876442.460417
 21
32032574.735417
 31
0.0
  0
SPLINE
  5
10d
100
AcDbEntity
  8
0
 62
7
100
AcDbSpline
 70
0
 71
3
 72
16
 73
12
 74
10
 40
0.000000
 40
0.000000
 40
0.000000
 40
0.000000
 40
3115607.051602
 40
6175733.572494
 40
9291340.624096
 40
11369178.738951
 40
13429822.001958
 40
15507660.116813
 40
17585498.231668
 40
19646141.494676
 40
21723979.609531
 40
21723979.609531
 40
21723979.609531
 40
21723979.609531
 10
38913992.204815
 20
16761780.946108
 30
0.0
 10
39833493.603667
 20
17273276.163260
 30
0.0
 10
41656122.569641
 20
18287158.251859
 30
0.0
 10
43393887.843841
 20
20990920.842781
 30
0.0
 10
43953400.105043
 20
23747795.317773
 30
0.0
 10
43630873.320104
 20
26173311.156371
 30
0.0
 10
42829471.048179
 20
28108704.141016
 30
0.0
 10
41553912.637709
 20
29774344.931063
 30
0.0
 10
39890566.270928
 20
31041427.446266
 30
0.0
 10
37954483.885888
 20
31874273.016933
 30
0.0
 10
36571038.946835
 20
31979661.537391
 30
0.0
 10
35876442.460417
 20
32032574.735417
 30
0.0
 11
38913992.204815
 21
16761780.946108
 31
0.0
 11
41502589.886433
 21
18495611.774856
 31
0.0
 11
43202705.090714
 21
21040013.986778
 31
0.0
 11
43813942.460417
 21
24095074.735417
 31
0.0
 11
43541999.517945
 21
26155040.334058
 31
0.0
 11
42753425.481177
 21
28058826.468557
 31
0.0
 11
41489102.536085
 21
29707734.811085
 31
0.0
 11
39840194.193557
 21
30972057.756177
 31
0.0
 11
37936408.059058
 21
31760631.792945
 31
0.0
 11
35876442.460417
 21
32032574.735417
 31
0.0
  0
SPLINE
  5
10e
100
AcDbEntity
  8
0
 62
7
100
AcDbSpline
 70
0
 71
3
 72
10
 73
6
 74
4
 40
0.000000
 40
0.000000
 40
0.000000
 40
0.000000
 40
2439883.808894
 40
4836319.889513
 40
7276203.698407
 40
7276203.698407
 40
7276203.698407
 40
7276203.698407
 10
35876442.460417
 20
30311063.277083
 30
0.0
 10
35061255.057054
 20
30215149.397584
 30
0.0
 10
33445396.532074
 20
30025029.605234
 30
0.0
 10
31328199.527572
 20
28610363.794559
 30
0.0
 10
30534189.456139
 20
27190260.870593
 30
0.0
 10
30133617.872446
 20
26473830.566084
 30
0.0
 11
35876442.460417
 21
30311063.277083
 31
0.0
 11
33483973.470478
 21
29832393.105580
 31
0.0
 11
31491409.691619
 21
28501004.553854
 31
0.0
 11
30133617.872446
 21
26473830.566084
 31
0.0
  0
SPLINE
  5
10f
100
AcDbEntity
  8
0
 62
7
100
AcDbSpline
 70
0
 71
3
 72
13
 73
9
 74
7
 40
0.000000
 40
0.000000
 40
0.000000
 40
0.000000
 40
2439883.808894
 40
4836319.889513
 40
7276203.698407
 40
9716087.507301
 40
12112523.587919
 40
14552407.396813
 40
14552407.396813
 40
14552407.396813
 40
14552407.396813
 10
30133617.872446
 20
26473830.566084
 30
0.0
 10
29907663.709751
 20
25681382.637028
 30
0.0
 10
29459779.016562
 20
24110598.132158
 30
0.0
 10
29995020.599125
 20
21651670.996738
 30
0.0
 10
31363550.995459
 20
19582183.270459
 30
0.0
 10
33433038.721738
 20
18213652.874125
 30
0.0
 10
35891965.857158
 20
17678411.291562
 30
0.0
 10
37462750.362028
 20
18126295.984751
 30
0.0
 10
38255198.291084
 20
18352250.147446
 30
0.0
 11
30133617.872446
 21
26473830.566084
 31
0.0
 11
29660293.201826
 21
24080298.289910
 31
0.0
 11
30127814.688484
 21
21729909.056612
 31
0.0
 11
31481074.810826
 21
19699707.085826
 31
0.0
 11
33511276.781612
 21
18346446.963484
 31
0.0
 11
35861666.014910
 21
17878925.476826
 31
0.0
 11
38255198.291084
 21
18352250.147446
 31
0.0
  0
SPLINE
  5
110
100
AcDbEntity
  8
0
 62
7
100
AcDbSpline
 70
0
 71
3
 72
13
 73
9
 74
7
 40
0.000000
 40
0.000000
 40
0.000000
 40
0.000000
 40
2439883.808894
 40
4836319.889513
 40
7276203.698407
 40
8903393.356785
 40
10517117.440100
 40
12144307.098479
 40
12144307.098479
 40
12144307.098479
 40
12144307.098479
 10
38255198.291084
 20
18352250.147446
 30
0.0
 10
38975314.147632
 20
18752850.645791
 30
0.0
 10
40402722.545969
 20
19546918.031637
 30
0.0
 10
41763020.385909
 20
21663688.497334
 30
0.0
 10
42203151.766979
 20
23824665.509543
 30
0.0
 10
41945487.809450
 20
25718898.222449
 30
0.0
 10
41334932.563558
 20
27252046.114905
 30
0.0
 10
40627164.489288
 20
28076501.792937
 30
0.0
 10
40271810.110007
 20
28490442.385007
 30
0.0
 11
38255198.291084
 21
18352250.147446
 31
0.0
 11
40282372.278854
 21
19710041.966619
 31
0.0
 11
41613760.830580
 21
21702605.745478
 31
0.0
 11
42092431.002083
 21
24095074.735417
 31
0.0
 11
41879467.951451
 21
25708268.128472
 31
0.0
 11
41261922.480358
 21
27199154.780168
 31
0.0
 11
40271810.110007
 21
28490442.385007
 31
0.0
  0
LINE
  5
111
100
AcDbEntity
  8
0
 62
7
100
AcDbLine
 10
35876442.460417
 20
30311063.277083
 30
0.0
 11
35876442.460417
 21
30311063.277083
 31
0.0
  0
LINE
  5
112
100
AcDbEntity
  8
0
 62
7
100
AcDbLine
 10
1736151.118750
 20
31209367.350000
 30
0.0
 11
3037256.064583
 21
36065156.787500
 31
0.0
  0
LINE
  5
113
100
AcDbEntity
  8
0
 62
7
100
AcDbLine
 10
3037256.064583
 20
36065156.787500
 30
0.0
 11
7893045.502083
 21
34764051.841667
 31
0.0
  0
LINE
  5
114
100
AcDbEntity
  8
0
 62
7
100
AcDbLine
 10
7893045.502083
 20
34764051.841667
 30
0.0
 11
6591940.556250
 21
29908262.404167
 31
0.0
  0
LINE
  5
115
100
AcDbEntity
  8
0
 62
7
100
AcDbLine
 10
6591940.556250
 20
29908262.404167
 30
0.0
 11
1736151.118750
 21
31209367.350000
 31
0.0
  0
LINE
  5
116
100
AcDbEntity
  8
0
 62
7
100
AcDbLine
 10
1736151.118750
 20
31209367.350000
 30
0.0
 11
3037256.064583
 21
36065156.787500
 31
0.0
  0
LINE
  5
117
100
AcDbEntity
  8
0
 62
7
100
AcDbLine
 10
3037256.064583
 20
36065156.787500
 30
0.0
 11
7893045.502083
 21
34764051.841667
 31
0.0
  0
LINE
  5
118
100
AcDbEntity
  8
0
 62
7
100
AcDbLine
 10
7893045.502083
 20
34764051.841667
 30
0.0
 11
6591940.556250
 21
29908262.404167
 31
0.0
  0
LINE
  5
119
100
AcDbEntity
  8
0
 62
7
100
AcDbLine
 10
6591940.556250
 20
29908262.404167
 30
0.0
 11
1736151.118750
 21
31209367.350000
 31
0.0
  0
LINE
  5
11a
100
AcDbEntity
  8
0
 62
7
100
AcDbLine
 10
55630675.187500
 20
23091305.893750
 30
0.0
 11
57912923.395833
 21
18612141.835417
 31
0.0
  0
LINE
  5
11b
100
AcDbEntity
  8
0
 62
7
100
AcDbLine
 10
57912923.395833
 20
18612141.835417
 30
0.0
 11
53433759.337500
 21
16329893.627083
 31
0.0
  0
LINE
  5
11c
100
AcDbEntity
  8
0
 62
7
100
AcDbLine
 10
53433759.337500
 20
16329893.627083
 30
0.0
 11
51151511.129167
 21
20809057.685417
 31
0.0
  0
LINE
  5
11d
100
AcDbEntity
  8
0
 62
7
100
AcDbLine
 10
53433759.337500
 20
16329893.627083
 30
0.0
 11
51151511.129167
 21
20809057.685417
 31
0.0
  0
LINE
  5
11e
100
AcDbEntity
  8
0
 62
7
100
AcDbLine
 10
55630675.187500
 20
23091305.893750
 30
0.0
 11
57912923.395833
 21
18612141.835417
 31
0.0
  0
LINE
  5
11f
100
AcDbEntity
  8
0
 62
7
100
AcDbLine
 10
51151511.129167
 20
20809057.685417
 30
0.0
 11
55630675.187500
 21
23091305.893750
 31
0.0
  0
LINE
  5
120
100
AcDbEntity
  8
0
 62
7
100
AcDbLine
 10
57912923.395833
 20
18612141.835417
 30
0.0
 11
53433759.337500
 21
16329893.627083
 31
0.0
  0
LINE
  5
121
100
AcDbEntity
  8
0
 62
7
100
AcDbLine
 10
51151511.129167
 20
20809057.685417
 30
0.0
 11
55630675.187500
 21
23091305.893750
 31
0.0
  0
LINE
  5
122
100
AcDbEntity
  8
0
 62
7
100
AcDbLine
 10
63828009.250000
 20
34764279.383333
 30
0.0
 11
62526904.304167
 21
39620068.820833
 31
0.0
  0
LINE
  5
123
100
AcDbEntity
  8
0
 62
7
100
AcDbLine
 10
67382693.741667
 20
40921173.766667
 30
0.0
 11
68683798.687500
 21
36065384.329167
 31
0.0
  0
LINE
  5
124
100
AcDbEntity
  8
0
 62
7
100
AcDbLine
 10
68683798.687500
 20
36065384.329167
 30
0.0
 11
63828009.250000
 21
34764279.383333
 31
0.0
  0
LINE
  5
125
100
AcDbEntity
  8
0
 62
7
100
AcDbLine
 10
62526904.304167
 20
39620068.820833
 30
0.0
 11
67382693.741667
 21
40921173.766667
 31
0.0
  0
LINE
  5
126
100
AcDbEntity
  8
0
 62
7
100
AcDbLine
 10
68683798.687500
 20
36065384.329167
 30
0.0
 11
63828009.250000
 21
34764279.383333
 31
0.0
  0
LINE
  5
127
100
AcDbEntity
  8
0
 62
7
100
AcDbLine
 10
63828009.250000
 20
34764279.383333
 30
0.0
 11
62526904.304167
 21
39620068.820833
 31
0.0
  0
LINE
  5
128
100
AcDbEntity
  8
0
 62
7
100
AcDbLine
 10
62526904.304167
 20
39620068.820833
 30
0.0
 11
67382693.741667
 21
40921173.766667
 31
0.0
  0
LINE
  5
129
100
AcDbEntity
  8
0
 62
7
100
AcDbLine
 10
67382693.741667
 20
40921173.766667
 30
0.0
 11
68683798.687500
 21
36065384.329167
 31
0.0
  0
LINE
  5
12a
100
AcDbEntity
  8
0
 62
7
100
AcDbLine
 10
51589781.779167
 20
19689267.200000
 30
0.0
 11
53872029.987500
 21
15210103.141667
 31
0.0
  0
LINE
  5
12b
100
AcDbEntity
  8
0
 62
7
100
AcDbLine
 10
49392865.929167
 20
12927854.933333
 30
0.0
 11
47110617.720833
 21
17407018.991667
 31
0.0
  0
LINE
  5
12c
100
AcDbEntity
  8
0
 62
7
100
AcDbLine
 10
49392865.929167
 20
12927854.933333
 30
0.0
 11
47110617.720833
 21
17407018.991667
 31
0.0
  0
LINE
  5
12d
100
AcDbEntity
  8
0
 62
7
100
AcDbLine
 10
51589781.779167
 20
19689267.200000
 30
0.0
 11
53872029.987500
 21
15210103.141667
 31
0.0
  0
LINE
  5
12e
100
AcDbEntity
  8
0
 62
7
100
AcDbLine
 10
53872029.987500
 20
15210103.141667
 30
0.0
 11
49392865.929167
 21
12927854.933333
 31
0.0
  0
LINE
  5
12f
100
AcDbEntity
  8
0
 62
7
100
AcDbLine
 10
47110617.720833
 20
17407018.991667
 30
0.0
 11
51589781.779167
 21
19689267.200000
 31
0.0
  0
LINE
  5
130
100
AcDbEntity
  8
0
 62
7
100
AcDbLine
 10
53872029.987500
 20
15210103.141667
 30
0.0
 11
49392865.929167
 21
12927854.933333
 31
0.0
  0
LINE
  5
131
100
AcDbEntity
  8
0
 62
7
100
AcDbLine
 10
47110617.720833
 20
17407018.991667
 30
0.0
 11
51589781.779167
 21
19689267.200000
 31
0.0
  0
LINE
  5
132
100
AcDbEntity
  8
0
 62
7
100
AcDbLine
 10
52090197.762500
 20
32798265.937500
 30
0.0
 11
54372445.970833
 21
28319101.879167
 31
0.0
  0
LINE
  5
133
100
AcDbEntity
  8
0
 62
7
100
AcDbLine
 10
54372445.970833
 20
28319101.879167
 30
0.0
 11
49893281.912500
 21
26036853.670833
 31
0.0
  0
LINE
  5
134
100
AcDbEntity
  8
0
 62
7
100
AcDbLine
 10
47611033.704167
 20
30516017.729167
 30
0.0
 11
52090197.762500
 21
32798265.937500
 31
0.0
  0
LINE
  5
135
100
AcDbEntity
  8
0
 62
7
100
AcDbLine
 10
54372445.970833
 20
28319101.879167
 30
0.0
 11
49893281.912500
 21
26036853.670833
 31
0.0
  0
LINE
  5
136
100
AcDbEntity
  8
0
 62
7
100
AcDbLine
 10
47611033.704167
 20
30516017.729167
 30
0.0
 11
52090197.762500
 21
32798265.937500
 31
0.0
  0
LINE
  5
137
100
AcDbEntity
  8
0
 62
7
100
AcDbLine
 10
49893281.912500
 20
26036853.670833
 30
0.0
 11
47611033.704167
 21
30516017.729167
 31
0.0
  0
LINE
  5
138
100
AcDbEntity
  8
0
 62
7
100
AcDbLine
 10
49893281.912500
 20
26036853.670833
 30
0.0
 11
47611033.704167
 21
30516017.729167
 31
0.0
  0
LINE
  5
139
100
AcDbEntity
  8
0
 62
7
100
AcDbLine
 10
52090197.762500
 20
32798265.937500
 30
0.0
 11
54372445.970833
 21
28319101.879167
 31
0.0
  0
LINE
  5
13a
100
AcDbEntity
  8
0
 62
7
100
AcDbLine
 10
17910337.983333
 20
40608741.331250
 30
0.0
 11
22389502.041667
 21
38326493.122917
 31
0.0
  0
LINE
  5
13b
100
AcDbEntity
  8
0
 62
7
100
AcDbLine
 10
22389502.041667
 20
38326493.122917
 30
0.0
 11
20107253.833333
 21
33847329.064583
 31
0.0
  0
LINE
  5
13c
100
AcDbEntity
  8
0
 62
7
100
AcDbLine
 10
20107253.833333
 20
33847329.064583
 30
0.0
 11
15628089.775000
 21
36129577.272917
 31
0.0
  0
LINE
  5
13d
100
AcDbEntity
  8
0
 62
7
100
AcDbLine
 10
20107253.833333
 20
33847329.064583
 30
0.0
 11
15628089.775000
 21
36129577.272917
 31
0.0
  0
LINE
  5
13e
100
AcDbEntity
  8
0
 62
7
100
AcDbLine
 10
17910337.983333
 20
40608741.331250
 30
0.0
 11
22389502.041667
 21
38326493.122917
 31
0.0
  0
LINE
  5
13f
100
AcDbEntity
  8
0
 62
7
100
AcDbLine
 10
15628089.775000
 20
36129577.272917
 30
0.0
 11
17910337.983333
 21
40608741.331250
 31
0.0
  0
LINE
  5
140
100
AcDbEntity
  8
0
 62
7
100
AcDbLine
 10
15628089.775000
 20
36129577.272917
 30
0.0
 11
17910337.983333
 21
40608741.331250
 31
0.0
  0
LINE
  5
141
100
AcDbEntity
  8
0
 62
7
100
AcDbLine
 10
22389502.041667
 20
38326493.122917
 30
0.0
 11
20107253.833333
 21
33847329.064583
 31
0.0
  0
LINE
  5
142
100
AcDbEntity
  8
0
 62
7
100
AcDbLine
 10
26450358.262500
 20
34975645.218750
 30
0.0
 11
24168110.054167
 21
30496481.160417
 31
0.0
  0
LINE
  5
143
100
AcDbEntity
  8
0
 62
7
100
AcDbLine
 10
19688945.995833
 20
32778729.368750
 30
0.0
 11
21971194.204167
 21
37257893.427083
 31
0.0
  0
LINE
  5
144
100
AcDbEntity
  8
0
 62
7
100
AcDbLine
 10
21971194.204167
 20
37257893.427083
 30
0.0
 11
26450358.262500
 21
34975645.218750
 31
0.0
  0
LINE
  5
145
100
AcDbEntity
  8
0
 62
7
100
AcDbLine
 10
19688945.995833
 20
32778729.368750
 30
0.0
 11
21971194.204167
 21
37257893.427083
 31
0.0
  0
LINE
  5
146
100
AcDbEntity
  8
0
 62
7
100
AcDbLine
 10
24168110.054167
 20
30496481.160417
 30
0.0
 11
19688945.995833
 21
32778729.368750
 31
0.0
  0
LINE
  5
147
100
AcDbEntity
  8
0
 62
7
100
AcDbLine
 10
26450358.262500
 20
34975645.218750
 30
0.0
 11
24168110.054167
 21
30496481.160417
 31
0.0
  0
LINE
  5
148
100
AcDbEntity
  8
0
 62
7
100
AcDbLine
 10
24168110.054167
 20
30496481.160417
 30
0.0
 11
19688945.995833
 21
32778729.368750
 31
0.0
  0
LINE
  5
149
100
AcDbEntity
  8
0
 62
7
100
AcDbLine
 10
21971194.204167
 20
37257893.427083
 30
0.0
 11
26450358.262500
 21
34975645.218750
 31
0.0
  0
LINE
  5
14a
100
AcDbEntity
  8
0
 62
7
100
AcDbLine
 10
36061011.825000
 20
7218016.160417
 30
0.0
 11
36061011.825000
 21
12245099.493750
 31
0.0
  0
LINE
  5
14b
100
AcDbEntity
  8
0
 62
7
100
AcDbLine
 10
36061011.825000
 20
12245099.493750
 30
0.0
 11
41088095.158333
 21
12245099.493750
 31
0.0
  0
LINE
  5
14c
100
AcDbEntity
  8
0
 62
7
100
AcDbLine
 10
41088095.158333
 20
7218016.160417
 30
0.0
 11
36061011.825000
 21
7218016.160417
 31
0.0
  0
LINE
  5
14d
100
AcDbEntity
  8
0
 62
7
100
AcDbLine
 10
41088095.158333
 20
7218016.160417
 30
0.0
 11
36061011.825000
 21
7218016.160417
 31
0.0
  0
LINE
  5
14e
100
AcDbEntity
  8
0
 62
7
100
AcDbLine
 10
36061011.825000
 20
7218016.160417
 30
0.0
 11
36061011.825000
 21
12245099.493750
 31
0.0
  0
LINE
  5
14f
100
AcDbEntity
  8
0
 62
7
100
AcDbLine
 10
41088095.158333
 20
12245099.493750
 30
0.0
 11
41088095.158333
 21
7218016.160417
 31
0.0
  0
LINE
  5
150
100
AcDbEntity
  8
0
 62
7
100
AcDbLine
 10
41088095.158333
 20
12245099.493750
 30
0.0
 11
41088095.158333
 21
7218016.160417
 31
0.0
  0
LINE
  5
151
100
AcDbEntity
  8
0
 62
7
100
AcDbLine
 10
36061011.825000
 20
12245099.493750
 30
0.0
 11
41088095.158333
 21
12245099.493750
 31
0.0
  0
LINE
  5
152
100
AcDbEntity
  8
0
 62
7
100
AcDbLine
 10
41168529.020833
 20
7688445.062500
 30
0.0
 11
41168529.020833
 21
12715528.395833
 31
0.0
  0
LINE
  5
153
100
AcDbEntity
  8
0
 62
7
100
AcDbLine
 10
46195612.354167
 20
12715528.395833
 30
0.0
 11
46195612.354167
 21
7688445.062500
 31
0.0
  0
LINE
  5
154
100
AcDbEntity
  8
0
 62
7
100
AcDbLine
 10
41168529.020833
 20
12715528.395833
 30
0.0
 11
46195612.354167
 21
12715528.395833
 31
0.0
  0
LINE
  5
155
100
AcDbEntity
  8
0
 62
7
100
AcDbLine
 10
46195612.354167
 20
7688445.062500
 30
0.0
 11
41168529.020833
 21
7688445.062500
 31
0.0
  0
LINE
  5
156
100
AcDbEntity
  8
0
 62
7
100
AcDbLine
 10
46195612.354167
 20
12715528.395833
 30
0.0
 11
46195612.354167
 21
7688445.062500
 31
0.0
  0
LINE
  5
157
100
AcDbEntity
  8
0
 62
7
100
AcDbLine
 10
41168529.020833
 20
12715528.395833
 30
0.0
 11
46195612.354167
 21
12715528.395833
 31
0.0
  0
LINE
  5
158
100
AcDbEntity
  8
0
 62
7
100
AcDbLine
 10
41168529.020833
 20
7688445.062500
 30
0.0
 11
41168529.020833
 21
12715528.395833
 31
0.0
  0
LINE
  5
159
100
AcDbEntity
  8
0
 62
7
100
AcDbLine
 10
46195612.354167
 20
7688445.062500
 30
0.0
 11
41168529.020833
 21
7688445.062500
 31
0.0
  0
LINE
  5
15a
100
AcDbEntity
  8
0
 62
7
100
AcDbLine
 10
64099688.443750
 20
32346429.306250
 30
0.0
 11
59438658.004167
 21
30463250.816667
 31
0.0
  0
LINE
  5
15b
100
AcDbEntity
  8
0
 62
7
100
AcDbLine
 10
59438658.004167
 20
30463250.816667
 30
0.0
 11
57555479.514583
 21
35124281.256250
 31
0.0
  0
LINE
  5
15c
100
AcDbEntity
  8
0
 62
7
100
AcDbLine
 10
64099688.443750
 20
32346429.306250
 30
0.0
 11
59438658.004167
 21
30463250.816667
 31
0.0
  0
LINE
  5
15d
100
AcDbEntity
  8
0
 62
7
100
AcDbLine
 10
62216509.954167
 20
37007459.745833
 30
0.0
 11
64099688.443750
 21
32346429.306250
 31
0.0
  0
LINE
  5
15e
100
AcDbEntity
  8
0
 62
7
100
AcDbLine
 10
59438658.004167
 20
30463250.816667
 30
0.0
 11
57555479.514583
 21
35124281.256250
 31
0.0
  0
LINE
  5
15f
100
AcDbEntity
  8
0
 62
7
100
AcDbLine
 10
62216509.954167
 20
37007459.745833
 30
0.0
 11
64099688.443750
 21
32346429.306250
 31
0.0
  0
LINE
  5
160
100
AcDbEntity
  8
0
 62
7
100
AcDbLine
 10
57555479.514583
 20
35124281.256250
 30
0.0
 11
62216509.954167
 21
37007459.745833
 31
0.0
  0
LINE
  5
161
100
AcDbEntity
  8
0
 62
7
100
AcDbLine
 10
57555479.514583
 20
35124281.256250
 30
0.0
 11
62216509.954167
 21
37007459.745833
 31
0.0
  0
LINE
  5
162
100
AcDbEntity
  8
0
 62
7
100
AcDbLine
 10
17907114.564583
 20
15190565.779167
 30
0.0
 11
20189362.772917
 21
19669729.837500
 31
0.0
  0
LINE
  5
163
100
AcDbEntity
  8
0
 62
7
100
AcDbLine
 10
24668526.831250
 20
17387481.629167
 30
0.0
 11
22386278.622917
 21
12908317.570833
 31
0.0
  0
LINE
  5
164
100
AcDbEntity
  8
0
 62
7
100
AcDbLine
 10
17907114.564583
 20
15190565.779167
 30
0.0
 11
20189362.772917
 21
19669729.837500
 31
0.0
  0
LINE
  5
165
100
AcDbEntity
  8
0
 62
7
100
AcDbLine
 10
22386278.622917
 20
12908317.570833
 30
0.0
 11
17907114.564583
 21
15190565.779167
 31
0.0
  0
LINE
  5
166
100
AcDbEntity
  8
0
 62
7
100
AcDbLine
 10
20189362.772917
 20
19669729.837500
 30
0.0
 11
24668526.831250
 21
17387481.629167
 31
0.0
  0
LINE
  5
167
100
AcDbEntity
  8
0
 62
7
100
AcDbLine
 10
22386278.622917
 20
12908317.570833
 30
0.0
 11
17907114.564583
 21
15190565.779167
 31
0.0
  0
LINE
  5
168
100
AcDbEntity
  8
0
 62
7
100
AcDbLine
 10
24668526.831250
 20
17387481.629167
 30
0.0
 11
22386278.622917
 21
12908317.570833
 31
0.0
  0
LINE
  5
169
100
AcDbEntity
  8
0
 62
7
100
AcDbLine
 10
20189362.772917
 20
19669729.837500
 30
0.0
 11
24668526.831250
 21
17387481.629167
 31
0.0
  0
LINE
  5
16a
100
AcDbEntity
  8
0
 62
7
100
AcDbLine
 10
53812989.539583
 20
40607351.739583
 30
0.0
 11
56095237.747917
 21
36128187.681250
 31
0.0
  0
LINE
  5
16b
100
AcDbEntity
  8
0
 62
7
100
AcDbLine
 10
56095237.747917
 20
36128187.681250
 30
0.0
 11
51616073.689583
 21
33845939.472917
 31
0.0
  0
LINE
  5
16c
100
AcDbEntity
  8
0
 62
7
100
AcDbLine
 10
49333825.481250
 20
38325103.531250
 30
0.0
 11
53812989.539583
 21
40607351.739583
 31
0.0
  0
LINE
  5
16d
100
AcDbEntity
  8
0
 62
7
100
AcDbLine
 10
56095237.747917
 20
36128187.681250
 30
0.0
 11
51616073.689583
 21
33845939.472917
 31
0.0
  0
LINE
  5
16e
100
AcDbEntity
  8
0
 62
7
100
AcDbLine
 10
53812989.539583
 20
40607351.739583
 30
0.0
 11
56095237.747917
 21
36128187.681250
 31
0.0
  0
LINE
  5
16f
100
AcDbEntity
  8
0
 62
7
100
AcDbLine
 10
49333825.481250
 20
38325103.531250
 30
0.0
 11
53812989.539583
 21
40607351.739583
 31
0.0
  0
LINE
  5
170
100
AcDbEntity
  8
0
 62
7
100
AcDbLine
 10
51616073.689583
 20
33845939.472917
 30
0.0
 11
49333825.481250
 21
38325103.531250
 31
0.0
  0
LINE
  5
171
100
AcDbEntity
  8
0
 62
7
100
AcDbLine
 10
51616073.689583
 20
33845939.472917
 30
0.0
 11
49333825.481250
 21
38325103.531250
 31
0.0
  0
LINE
  5
172
100
AcDbEntity
  8
0
 62
7
100
AcDbLine
 10
17825006.683333
 20
29368165.006250
 30
0.0
 11
13345842.625000
 21
31650413.214583
 31
0.0
  0
LINE
  5
173
100
AcDbEntity
  8
0
 62
7
100
AcDbLine
 10
13345842.625000
 20
31650413.214583
 30
0.0
 11
15628090.833333
 21
36129577.272917
 31
0.0
  0
LINE
  5
174
100
AcDbEntity
  8
0
 62
7
100
AcDbLine
 10
17825006.683333
 20
29368165.006250
 30
0.0
 11
13345842.625000
 21
31650413.214583
 31
0.0
  0
LINE
  5
175
100
AcDbEntity
  8
0
 62
7
100
AcDbLine
 10
20107254.891667
 20
33847329.064583
 30
0.0
 11
17825006.683333
 21
29368165.006250
 31
0.0
  0
LINE
  5
176
100
AcDbEntity
  8
0
 62
7
100
AcDbLine
 10
15628090.833333
 20
36129577.272917
 30
0.0
 11
20107254.891667
 21
33847329.064583
 31
0.0
  0
LINE
  5
177
100
AcDbEntity
  8
0
 62
7
100
AcDbLine
 10
13345842.625000
 20
31650413.214583
 30
0.0
 11
15628090.833333
 21
36129577.272917
 31
0.0
  0
LINE
  5
178
100
AcDbEntity
  8
0
 62
7
100
AcDbLine
 10
15628090.833333
 20
36129577.272917
 30
0.0
 11
20107254.891667
 21
33847329.064583
 31
0.0
  0
LINE
  5
179
100
AcDbEntity
  8
0
 62
7
100
AcDbLine
 10
20107254.891667
 20
33847329.064583
 30
0.0
 11
17825006.683333
 21
29368165.006250
 31
0.0
  0
LINE
  5
17a
100
AcDbEntity
  8
0
 62
7
100
AcDbLine
 10
17406698.052083
 20
28299564.781250
 30
0.0
 11
21885862.110417
 21
26017316.572917
 31
0.0
  0
LINE
  5
17b
100
AcDbEntity
  8
0
 62
7
100
AcDbLine
 10
19603613.902083
 20
21538152.514583
 30
0.0
 11
15124449.843750
 21
23820400.722917
 31
0.0
  0
LINE
  5
17c
100
AcDbEntity
  8
0
 62
7
100
AcDbLine
 10
17406698.052083
 20
28299564.781250
 30
0.0
 11
21885862.110417
 21
26017316.572917
 31
0.0
  0
LINE
  5
17d
100
AcDbEntity
  8
0
 62
7
100
AcDbLine
 10
21885862.110417
 20
26017316.572917
 30
0.0
 11
19603613.902083
 21
21538152.514583
 31
0.0
  0
LINE
  5
17e
100
AcDbEntity
  8
0
 62
7
100
AcDbLine
 10
21885862.110417
 20
26017316.572917
 30
0.0
 11
19603613.902083
 21
21538152.514583
 31
0.0
  0
LINE
  5
17f
100
AcDbEntity
  8
0
 62
7
100
AcDbLine
 10
19603613.902083
 20
21538152.514583
 30
0.0
 11
15124449.843750
 21
23820400.722917
 31
0.0
  0
LINE
  5
180
100
AcDbEntity
  8
0
 62
7
100
AcDbLine
 10
15124449.843750
 20
23820400.722917
 30
0.0
 11
17406698.052083
 21
28299564.781250
 31
0.0
  0
LINE
  5
181
100
AcDbEntity
  8
0
 62
7
100
AcDbLine
 10
15124449.843750
 20
23820400.722917
 30
0.0
 11
17406698.052083
 21
28299564.781250
 31
0.0
  0
LINE
  5
182
100
AcDbEntity
  8
0
 62
7
100
AcDbLine
 10
68686090.508333
 20
36063411.066667
 30
0.0
 11
69987195.454167
 21
31207621.629167
 31
0.0
  0
LINE
  5
183
100
AcDbEntity
  8
0
 62
7
100
AcDbLine
 10
65131406.016667
 20
29906516.683333
 30
0.0
 11
63830301.070833
 21
34762306.120833
 31
0.0
  0
LINE
  5
184
100
AcDbEntity
  8
0
 62
7
100
AcDbLine
 10
68686090.508333
 20
36063411.066667
 30
0.0
 11
69987195.454167
 21
31207621.629167
 31
0.0
  0
LINE
  5
185
100
AcDbEntity
  8
0
 62
7
100
AcDbLine
 10
63830301.070833
 20
34762306.120833
 30
0.0
 11
68686090.508333
 21
36063411.066667
 31
0.0
  0
LINE
  5
186
100
AcDbEntity
  8
0
 62
7
100
AcDbLine
 10
63830301.070833
 20
34762306.120833
 30
0.0
 11
68686090.508333
 21
36063411.066667
 31
0.0
  0
LINE
  5
187
100
AcDbEntity
  8
0
 62
7
100
AcDbLine
 10
69987195.454167
 20
31207621.629167
 30
0.0
 11
65131406.016667
 21
29906516.683333
 31
0.0
  0
LINE
  5
188
100
AcDbEntity
  8
0
 62
7
100
AcDbLine
 10
65131406.016667
 20
29906516.683333
 30
0.0
 11
63830301.070833
 21
34762306.120833
 31
0.0
  0
LINE
  5
189
100
AcDbEntity
  8
0
 62
7
100
AcDbLine
 10
69987195.454167
 20
31207621.629167
 30
0.0
 11
65131406.016667
 21
29906516.683333
 31
0.0
  0
LINE
  5
18a
100
AcDbEntity
  8
0
 62
7
100
AcDbLine
 10
56180569.312500
 20
24887611.620833
 30
0.0
 11
53898321.104167
 21
29366775.679167
 31
0.0
  0
LINE
  5
18b
100
AcDbEntity
  8
0
 62
7
100
AcDbLine
 10
60659733.370833
 20
27169859.829167
 30
0.0
 11
56180569.312500
 21
24887611.620833
 31
0.0
  0
LINE
  5
18c
100
AcDbEntity
  8
0
 62
7
100
AcDbLine
 10
53898321.104167
 20
29366775.679167
 30
0.0
 11
58377485.162500
 21
31649023.887500
 31
0.0
  0
LINE
  5
18d
100
AcDbEntity
  8
0
 62
7
100
AcDbLine
 10
58377485.162500
 20
31649023.887500
 30
0.0
 11
60659733.370833
 21
27169859.829167
 31
0.0
  0
LINE
  5
18e
100
AcDbEntity
  8
0
 62
7
100
AcDbLine
 10
53898321.104167
 20
29366775.679167
 30
0.0
 11
58377485.162500
 21
31649023.887500
 31
0.0
  0
LINE
  5
18f
100
AcDbEntity
  8
0
 62
7
100
AcDbLine
 10
58377485.162500
 20
31649023.887500
 30
0.0
 11
60659733.370833
 21
27169859.829167
 31
0.0
  0
LINE
  5
190
100
AcDbEntity
  8
0
 62
7
100
AcDbLine
 10
56180569.312500
 20
24887611.620833
 30
0.0
 11
53898321.104167
 21
29366775.679167
 31
0.0
  0
LINE
  5
191
100
AcDbEntity
  8
0
 62
7
100
AcDbLine
 10
60659733.370833
 20
27169859.829167
 30
0.0
 11
56180569.312500
 21
24887611.620833
 31
0.0
  0
LINE
  5
192
100
AcDbEntity
  8
0
 62
7
100
AcDbLine
 10
10401537.066667
 20
25803711.039583
 30
0.0
 11
5740506.627083
 21
27686889.529167
 31
0.0
  0
LINE
  5
193
100
AcDbEntity
  8
0
 62
7
100
AcDbLine
 10
7623685.116667
 20
32347919.968750
 30
0.0
 11
12284715.556250
 21
30464741.479167
 31
0.0
  0
LINE
  5
194
100
AcDbEntity
  8
0
 62
7
100
AcDbLine
 10
7623685.116667
 20
32347919.968750
 30
0.0
 11
12284715.556250
 21
30464741.479167
 31
0.0
  0
LINE
  5
195
100
AcDbEntity
  8
0
 62
7
100
AcDbLine
 10
5740506.627083
 20
27686889.529167
 30
0.0
 11
7623685.116667
 21
32347919.968750
 31
0.0
  0
LINE
  5
196
100
AcDbEntity
  8
0
 62
7
100
AcDbLine
 10
5740506.627083
 20
27686889.529167
 30
0.0
 11
7623685.116667
 21
32347919.968750
 31
0.0
  0
LINE
  5
197
100
AcDbEntity
  8
0
 62
7
100
AcDbLine
 10
10401537.066667
 20
25803711.039583
 30
0.0
 11
5740506.627083
 21
27686889.529167
 31
0.0
  0
LINE
  5
198
100
AcDbEntity
  8
0
 62
7
100
AcDbLine
 10
12284715.556250
 20
30464741.479167
 30
0.0
 11
10401537.066667
 21
25803711.039583
 31
0.0
  0
LINE
  5
199
100
AcDbEntity
  8
0
 62
7
100
AcDbLine
 10
12284715.556250
 20
30464741.479167
 30
0.0
 11
10401537.066667
 21
25803711.039583
 31
0.0
  0
LINE
  5
19a
100
AcDbEntity
  8
0
 62
7
100
AcDbLine
 10
25846617.195833
 20
12806015.631250
 30
0.0
 11
30873700.529167
 21
12806015.631250
 31
0.0
  0
LINE
  5
19b
100
AcDbEntity
  8
0
 62
7
100
AcDbLine
 10
30873700.529167
 20
12806015.631250
 30
0.0
 11
30873700.529167
 21
7778932.297917
 31
0.0
  0
LINE
  5
19c
100
AcDbEntity
  8
0
 62
7
100
AcDbLine
 10
30873700.529167
 20
7778932.297917
 30
0.0
 11
25846617.195833
 21
7778932.297917
 31
0.0
  0
LINE
  5
19d
100
AcDbEntity
  8
0
 62
7
100
AcDbLine
 10
25846617.195833
 20
7778932.297917
 30
0.0
 11
25846617.195833
 21
12806015.631250
 31
0.0
  0
LINE
  5
19e
100
AcDbEntity
  8
0
 62
7
100
AcDbLine
 10
30873700.529167
 20
7778932.297917
 30
0.0
 11
25846617.195833
 21
7778932.297917
 31
0.0
  0
LINE
  5
19f
100
AcDbEntity
  8
0
 62
7
100
AcDbLine
 10
25846617.195833
 20
7778932.297917
 30
0.0
 11
25846617.195833
 21
12806015.631250
 31
0.0
  0
LINE
  5
1a0
100
AcDbEntity
  8
0
 62
7
100
AcDbLine
 10
25846617.195833
 20
12806015.631250
 30
0.0
 11
30873700.529167
 21
12806015.631250
 31
0.0
  0
LINE
  5
1a1
100
AcDbEntity
  8
0
 62
7
100
AcDbLine
 10
30873700.529167
 20
12806015.631250
 30
0.0
 11
30873700.529167
 21
7778932.297917
 31
0.0
  0
LINE
  5
1a2
100
AcDbEntity
  8
0
 62
7
100
AcDbLine
 10
14167893.781250
 20
35125771.918750
 30
0.0
 11
9506863.341667
 21
37008950.408333
 31
0.0
  0
LINE
  5
1a3
100
AcDbEntity
  8
0
 62
7
100
AcDbLine
 10
14167893.781250
 20
35125771.918750
 30
0.0
 11
9506863.341667
 21
37008950.408333
 31
0.0
  0
LINE
  5
1a4
100
AcDbEntity
  8
0
 62
7
100
AcDbLine
 10
9506863.341667
 20
37008950.408333
 30
0.0
 11
11390041.831250
 21
41669980.847917
 31
0.0
  0
LINE
  5
1a5
100
AcDbEntity
  8
0
 62
7
100
AcDbLine
 10
16051072.270833
 20
39786802.358333
 30
0.0
 11
14167893.781250
 21
35125771.918750
 31
0.0
  0
LINE
  5
1a6
100
AcDbEntity
  8
0
 62
7
100
AcDbLine
 10
11390041.831250
 20
41669980.847917
 30
0.0
 11
16051072.270833
 21
39786802.358333
 31
0.0
  0
LINE
  5
1a7
100
AcDbEntity
  8
0
 62
7
100
AcDbLine
 10
11390041.831250
 20
41669980.847917
 30
0.0
 11
16051072.270833
 21
39786802.358333
 31
0.0
  0
LINE
  5
1a8
100
AcDbEntity
  8
0
 62
7
100
AcDbLine
 10
9506863.341667
 20
37008950.408333
 30
0.0
 11
11390041.831250
 21
41669980.847917
 31
0.0
  0
LINE
  5
1a9
100
AcDbEntity
  8
0
 62
7
100
AcDbLine
 10
16051072.270833
 20
39786802.358333
 30
0.0
 11
14167893.781250
 21
35125771.918750
 31
0.0
  0
LINE
  5
1aa
100
AcDbEntity
  8
0
 62
7
100
AcDbLine
 10
16148468.835417
 20
23071769.589583
 30
0.0
 11
20627632.893750
 21
20789521.381250
 31
0.0
  0
LINE
  5
1ab
100
AcDbEntity
  8
0
 62
7
100
AcDbLine
 10
20627632.893750
 20
20789521.381250
 30
0.0
 11
18345384.685417
 21
16310357.322917
 31
0.0
  0
LINE
  5
1ac
100
AcDbEntity
  8
0
 62
7
100
AcDbLine
 10
18345384.685417
 20
16310357.322917
 30
0.0
 11
13866220.627083
 21
18592605.531250
 31
0.0
  0
LINE
  5
1ad
100
AcDbEntity
  8
0
 62
7
100
AcDbLine
 10
18345384.685417
 20
16310357.322917
 30
0.0
 11
13866220.627083
 21
18592605.531250
 31
0.0
  0
LINE
  5
1ae
100
AcDbEntity
  8
0
 62
7
100
AcDbLine
 10
16148468.835417
 20
23071769.589583
 30
0.0
 11
20627632.893750
 21
20789521.381250
 31
0.0
  0
LINE
  5
1af
100
AcDbEntity
  8
0
 62
7
100
AcDbLine
 10
13866220.627083
 20
18592605.531250
 30
0.0
 11
16148468.835417
 21
23071769.589583
 31
0.0
  0
LINE
  5
1b0
100
AcDbEntity
  8
0
 62
7
100
AcDbLine
 10
13866220.627083
 20
18592605.531250
 30
0.0
 11
16148468.835417
 21
23071769.589583
 31
0.0
  0
LINE
  5
1b1
100
AcDbEntity
  8
0
 62
7
100
AcDbLine
 10
20627632.893750
 20
20789521.381250
 30
0.0
 11
18345384.685417
 21
16310357.322917
 31
0.0
  0
LINE
  5
1b2
100
AcDbEntity
  8
0
 62
7
100
AcDbLine
 10
50839835.137500
 20
24054629.204167
 30
0.0
 11
46360671.079167
 21
21772380.995833
 31
0.0
  0
LINE
  5
1b3
100
AcDbEntity
  8
0
 62
7
100
AcDbLine
 10
46360671.079167
 20
21772380.995833
 30
0.0
 11
44078422.870833
 21
26251545.054167
 31
0.0
  0
LINE
  5
1b4
100
AcDbEntity
  8
0
 62
7
100
AcDbLine
 10
50839835.137500
 20
24054629.204167
 30
0.0
 11
46360671.079167
 21
21772380.995833
 31
0.0
  0
LINE
  5
1b5
100
AcDbEntity
  8
0
 62
7
100
AcDbLine
 10
46360671.079167
 20
21772380.995833
 30
0.0
 11
44078422.870833
 21
26251545.054167
 31
0.0
  0
LINE
  5
1b6
100
AcDbEntity
  8
0
 62
7
100
AcDbLine
 10
44078422.870833
 20
26251545.054167
 30
0.0
 11
48557586.929167
 21
28533793.262500
 31
0.0
  0
LINE
  5
1b7
100
AcDbEntity
  8
0
 62
7
100
AcDbLine
 10
48557586.929167
 20
28533793.262500
 30
0.0
 11
50839835.137500
 21
24054629.204167
 31
0.0
  0
LINE
  5
1b8
100
AcDbEntity
  8
0
 62
7
100
AcDbLine
 10
48557586.929167
 20
28533793.262500
 30
0.0
 11
50839835.137500
 21
24054629.204167
 31
0.0
  0
LINE
  5
1b9
100
AcDbEntity
  8
0
 62
7
100
AcDbLine
 10
44078422.870833
 20
26251545.054167
 30
0.0
 11
48557586.929167
 21
28533793.262500
 31
0.0
  0
LINE
  5
1ba
100
AcDbEntity
  8
0
 62
7
100
AcDbLine
 10
3035268.779167
 20
36069866.635417
 30
0.0
 11
4336373.725000
 21
40925656.072917
 31
0.0
  0
LINE
  5
1bb
100
AcDbEntity
  8
0
 62
7
100
AcDbLine
 10
4336373.725000
 20
40925656.072917
 30
0.0
 11
9192163.162500
 21
39624551.127083
 31
0.0
  0
LINE
  5
1bc
100
AcDbEntity
  8
0
 62
7
100
AcDbLine
 10
7891058.216667
 20
34768761.689583
 30
0.0
 11
3035268.779167
 21
36069866.635417
 31
0.0
  0
LINE
  5
1bd
100
AcDbEntity
  8
0
 62
7
100
AcDbLine
 10
4336373.725000
 20
40925656.072917
 30
0.0
 11
9192163.162500
 21
39624551.127083
 31
0.0
  0
LINE
  5
1be
100
AcDbEntity
  8
0
 62
7
100
AcDbLine
 10
7891058.216667
 20
34768761.689583
 30
0.0
 11
3035268.779167
 21
36069866.635417
 31
0.0
  0
LINE
  5
1bf
100
AcDbEntity
  8
0
 62
7
100
AcDbLine
 10
9192163.162500
 20
39624551.127083
 30
0.0
 11
7891058.216667
 21
34768761.689583
 31
0.0
  0
LINE
  5
1c0
100
AcDbEntity
  8
0
 62
7
100
AcDbLine
 10
9192163.162500
 20
39624551.127083
 30
0.0
 11
7891058.216667
 21
34768761.689583
 31
0.0
  0
LINE
  5
1c1
100
AcDbEntity
  8
0
 62
7
100
AcDbLine
 10
3035268.779167
 20
36069866.635417
 30
0.0
 11
4336373.725000
 21
40925656.072917
 31
0.0
  0
LINE
  5
1c2
100
AcDbEntity
  8
0
 62
7
100
AcDbLine
 10
13345842.095833
 20
31650412.950000
 30
0.0
 11
17825006.154167
 21
29368164.741667
 31
0.0
  0
LINE
  5
1c3
100
AcDbEntity
  8
0
 62
7
100
AcDbLine
 10
11063593.887500
 20
27171248.891667
 30
0.0
 11
13345842.095833
 21
31650412.950000
 31
0.0
  0
LINE
  5
1c4
100
AcDbEntity
  8
0
 62
7
100
AcDbLine
 10
17825006.154167
 20
29368164.741667
 30
0.0
 11
15542757.945833
 21
24889000.683333
 31
0.0
  0
LINE
  5
1c5
100
AcDbEntity
  8
0
 62
7
100
AcDbLine
 10
15542757.945833
 20
24889000.683333
 30
0.0
 11
11063593.887500
 21
27171248.891667
 31
0.0
  0
LINE
  5
1c6
100
AcDbEntity
  8
0
 62
7
100
AcDbLine
 10
13345842.095833
 20
31650412.950000
 30
0.0
 11
17825006.154167
 21
29368164.741667
 31
0.0
  0
LINE
  5
1c7
100
AcDbEntity
  8
0
 62
7
100
AcDbLine
 10
15542757.945833
 20
24889000.683333
 30
0.0
 11
11063593.887500
 21
27171248.891667
 31
0.0
  0
LINE
  5
1c8
100
AcDbEntity
  8
0
 62
7
100
AcDbLine
 10
17825006.154167
 20
29368164.741667
 30
0.0
 11
15542757.945833
 21
24889000.683333
 31
0.0
  0
LINE
  5
1c9
100
AcDbEntity
  8
0
 62
7
100
AcDbLine
 10
11063593.887500
 20
27171248.891667
 30
0.0
 11
13345842.095833
 21
31650412.950000
 31
0.0
  0
LINE
  5
1ca
100
AcDbEntity
  8
0
 62
7
100
AcDbLine
 10
62216510.218750
 20
37007459.216667
 30
0.0
 11
57555479.779167
 21
35124280.727083
 31
0.0
  0
LINE
  5
1cb
100
AcDbEntity
  8
0
 62
7
100
AcDbLine
 10
57555479.779167
 20
35124280.727083
 30
0.0
 11
55672301.289583
 21
39785311.166667
 31
0.0
  0
LINE
  5
1cc
100
AcDbEntity
  8
0
 62
7
100
AcDbLine
 10
62216510.218750
 20
37007459.216667
 30
0.0
 11
57555479.779167
 21
35124280.727083
 31
0.0
  0
LINE
  5
1cd
100
AcDbEntity
  8
0
 62
7
100
AcDbLine
 10
57555479.779167
 20
35124280.727083
 30
0.0
 11
55672301.289583
 21
39785311.166667
 31
0.0
  0
LINE
  5
1ce
100
AcDbEntity
  8
0
 62
7
100
AcDbLine
 10
55672301.289583
 20
39785311.166667
 30
0.0
 11
60333331.729167
 21
41668489.656250
 31
0.0
  0
LINE
  5
1cf
100
AcDbEntity
  8
0
 62
7
100
AcDbLine
 10
60333331.729167
 20
41668489.656250
 30
0.0
 11
62216510.218750
 21
37007459.216667
 31
0.0
  0
LINE
  5
1d0
100
AcDbEntity
  8
0
 62
7
100
AcDbLine
 10
60333331.729167
 20
41668489.656250
 30
0.0
 11
62216510.218750
 21
37007459.216667
 31
0.0
  0
LINE
  5
1d1
100
AcDbEntity
  8
0
 62
7
100
AcDbLine
 10
55672301.289583
 20
39785311.166667
 30
0.0
 11
60333331.729167
 21
41668489.656250
 31
0.0
  0
LINE
  5
1d2
100
AcDbEntity
  8
0
 62
7
100
AcDbLine
 10
24168109.525000
 20
30496480.895833
 30
0.0
 11
21885861.316667
 21
26017316.837500
 31
0.0
  0
LINE
  5
1d3
100
AcDbEntity
  8
0
 62
7
100
AcDbLine
 10
19688945.466667
 20
32778729.104167
 30
0.0
 11
24168109.525000
 21
30496480.895833
 31
0.0
  0
LINE
  5
1d4
100
AcDbEntity
  8
0
 62
7
100
AcDbLine
 10
17406697.258333
 20
28299565.045833
 30
0.0
 11
19688945.466667
 21
32778729.104167
 31
0.0
  0
LINE
  5
1d5
100
AcDbEntity
  8
0
 62
7
100
AcDbLine
 10
19688945.466667
 20
32778729.104167
 30
0.0
 11
24168109.525000
 21
30496480.895833
 31
0.0
  0
LINE
  5
1d6
100
AcDbEntity
  8
0
 62
7
100
AcDbLine
 10
24168109.525000
 20
30496480.895833
 30
0.0
 11
21885861.316667
 21
26017316.837500
 31
0.0
  0
LINE
  5
1d7
100
AcDbEntity
  8
0
 62
7
100
AcDbLine
 10
21885861.316667
 20
26017316.837500
 30
0.0
 11
17406697.258333
 21
28299565.045833
 31
0.0
  0
LINE
  5
1d8
100
AcDbEntity
  8
0
 62
7
100
AcDbLine
 10
17406697.258333
 20
28299565.045833
 30
0.0
 11
19688945.466667
 21
32778729.104167
 31
0.0
  0
LINE
  5
1d9
100
AcDbEntity
  8
0
 62
7
100
AcDbLine
 10
21885861.316667
 20
26017316.837500
 30
0.0
 11
17406697.258333
 21
28299565.045833
 31
0.0
  0
LINE
  5
1da
100
AcDbEntity
  8
0
 62
7
100
AcDbLine
 10
27700720.887500
 20
26232007.956250
 30
0.0
 11
23221556.829167
 21
28514256.164583
 31
0.0
  0
LINE
  5
1db
100
AcDbEntity
  8
0
 62
7
100
AcDbLine
 10
25503805.037500
 20
32993420.222917
 30
0.0
 11
29982969.095833
 21
30711172.014583
 31
0.0
  0
LINE
  5
1dc
100
AcDbEntity
  8
0
 62
7
100
AcDbLine
 10
25503805.037500
 20
32993420.222917
 30
0.0
 11
29982969.095833
 21
30711172.014583
 31
0.0
  0
LINE
  5
1dd
100
AcDbEntity
  8
0
 62
7
100
AcDbLine
 10
23221556.829167
 20
28514256.164583
 30
0.0
 11
25503805.037500
 21
32993420.222917
 31
0.0
  0
LINE
  5
1de
100
AcDbEntity
  8
0
 62
7
100
AcDbLine
 10
29982969.095833
 20
30711172.014583
 30
0.0
 11
27700720.887500
 21
26232007.956250
 31
0.0
  0
LINE
  5
1df
100
AcDbEntity
  8
0
 62
7
100
AcDbLine
 10
23221556.829167
 20
28514256.164583
 30
0.0
 11
25503805.037500
 21
32993420.222917
 31
0.0
  0
LINE
  5
1e0
100
AcDbEntity
  8
0
 62
7
100
AcDbLine
 10
27700720.887500
 20
26232007.956250
 30
0.0
 11
23221556.829167
 21
28514256.164583
 31
0.0
  0
LINE
  5
1e1
100
AcDbEntity
  8
0
 62
7
100
AcDbLine
 10
29982969.095833
 20
30711172.014583
 30
0.0
 11
27700720.887500
 21
26232007.956250
 31
0.0
  0
LINE
  5
1e2
100
AcDbEntity
  8
0
 62
7
100
AcDbLine
 10
44078423.400000
 20
26251545.318750
 30
0.0
 11
41796175.191667
 21
30730709.377083
 31
0.0
  0
LINE
  5
1e3
100
AcDbEntity
  8
0
 62
7
100
AcDbLine
 10
44078423.400000
 20
26251545.318750
 30
0.0
 11
41796175.191667
 21
30730709.377083
 31
0.0
  0
LINE
  5
1e4
100
AcDbEntity
  8
0
 62
7
100
AcDbLine
 10
41796175.191667
 20
30730709.377083
 30
0.0
 11
46275339.250000
 21
33012957.585417
 31
0.0
  0
LINE
  5
1e5
100
AcDbEntity
  8
0
 62
7
100
AcDbLine
 10
46275339.250000
 20
33012957.585417
 30
0.0
 11
48557587.458333
 21
28533793.527083
 31
0.0
  0
LINE
  5
1e6
100
AcDbEntity
  8
0
 62
7
100
AcDbLine
 10
48557587.458333
 20
28533793.527083
 30
0.0
 11
44078423.400000
 21
26251545.318750
 31
0.0
  0
LINE
  5
1e7
100
AcDbEntity
  8
0
 62
7
100
AcDbLine
 10
41796175.191667
 20
30730709.377083
 30
0.0
 11
46275339.250000
 21
33012957.585417
 31
0.0
  0
LINE
  5
1e8
100
AcDbEntity
  8
0
 62
7
100
AcDbLine
 10
46275339.250000
 20
33012957.585417
 30
0.0
 11
48557587.458333
 21
28533793.527083
 31
0.0
  0
LINE
  5
1e9
100
AcDbEntity
  8
0
 62
7
100
AcDbLine
 10
48557587.458333
 20
28533793.527083
 30
0.0
 11
44078423.400000
 21
26251545.318750
 31
0.0
  0
LINE
  5
1ea
100
AcDbEntity
  8
0
 62
7
100
AcDbLine
 10
52090199.085417
 20
32798266.202083
 30
0.0
 11
47611035.027083
 21
30516017.993750
 31
0.0
  0
LINE
  5
1eb
100
AcDbEntity
  8
0
 62
7
100
AcDbLine
 10
49807950.877083
 20
37277430.260417
 30
0.0
 11
52090199.085417
 21
32798266.202083
 31
0.0
  0
LINE
  5
1ec
100
AcDbEntity
  8
0
 62
7
100
AcDbLine
 10
45328786.818750
 20
34995182.052083
 30
0.0
 11
49807950.877083
 21
37277430.260417
 31
0.0
  0
LINE
  5
1ed
100
AcDbEntity
  8
0
 62
7
100
AcDbLine
 10
45328786.818750
 20
34995182.052083
 30
0.0
 11
49807950.877083
 21
37277430.260417
 31
0.0
  0
LINE
  5
1ee
100
AcDbEntity
  8
0
 62
7
100
AcDbLine
 10
52090199.085417
 20
32798266.202083
 30
0.0
 11
47611035.027083
 21
30516017.993750
 31
0.0
  0
LINE
  5
1ef
100
AcDbEntity
  8
0
 62
7
100
AcDbLine
 10
47611035.027083
 20
30516017.993750
 30
0.0
 11
45328786.818750
 21
34995182.052083
 31
0.0
  0
LINE
  5
1f0
100
AcDbEntity
  8
0
 62
7
100
AcDbLine
 10
49807950.877083
 20
37277430.260417
 30
0.0
 11
52090199.085417
 21
32798266.202083
 31
0.0
  0
LINE
  5
1f1
100
AcDbEntity
  8
0
 62
7
100
AcDbLine
 10
47611035.027083
 20
30516017.993750
 30
0.0
 11
45328786.818750
 21
34995182.052083
 31
0.0
  0
LINE
  5
1f2
100
AcDbEntity
  8
0
 62
7
100
AcDbLine
 10
35974866.666667
 20
12245974.470833
 30
0.0
 11
35974866.666667
 21
7218891.137500
 31
0.0
  0
LINE
  5
1f3
100
AcDbEntity
  8
0
 62
7
100
AcDbLine
 10
35974866.666667
 20
12245974.470833
 30
0.0
 11
35974866.666667
 21
7218891.137500
 31
0.0
  0
LINE
  5
1f4
100
AcDbEntity
  8
0
 62
7
100
AcDbLine
 10
35974866.666667
 20
7218891.137500
 30
0.0
 11
30947783.333333
 21
7218891.137500
 31
0.0
  0
LINE
  5
1f5
100
AcDbEntity
  8
0
 62
7
100
AcDbLine
 10
35974866.666667
 20
7218891.137500
 30
0.0
 11
30947783.333333
 21
7218891.137500
 31
0.0
  0
LINE
  5
1f6
100
AcDbEntity
  8
0
 62
7
100
AcDbLine
 10
30947783.333333
 20
12245974.470833
 30
0.0
 11
35974866.666667
 21
12245974.470833
 31
0.0
  0
LINE
  5
1f7
100
AcDbEntity
  8
0
 62
7
100
AcDbLine
 10
30947783.333333
 20
7218891.137500
 30
0.0
 11
30947783.333333
 21
12245974.470833
 31
0.0
  0
LINE
  5
1f8
100
AcDbEntity
  8
0
 62
7
100
AcDbLine
 10
30947783.333333
 20
7218891.137500
 30
0.0
 11
30947783.333333
 21
12245974.470833
 31
0.0
  0
LINE
  5
1f9
100
AcDbEntity
  8
0
 62
7
100
AcDbLine
 10
30947783.333333
 20
12245974.470833
 30
0.0
 11
35974866.666667
 21
12245974.470833
 31
0.0
  0
LINE
  5
1fa
100
AcDbEntity
  8
0
 62
7
100
AcDbLine
 10
58377485.956250
 20
31649023.093750
 30
0.0
 11
53898321.897917
 21
29366774.885417
 31
0.0
  0
LINE
  5
1fb
100
AcDbEntity
  8
0
 62
7
100
AcDbLine
 10
53898321.897917
 20
29366774.885417
 30
0.0
 11
51616073.689583
 21
33845938.943750
 31
0.0
  0
LINE
  5
1fc
100
AcDbEntity
  8
0
 62
7
100
AcDbLine
 10
58377485.956250
 20
31649023.093750
 30
0.0
 11
53898321.897917
 21
29366774.885417
 31
0.0
  0
LINE
  5
1fd
100
AcDbEntity
  8
0
 62
7
100
AcDbLine
 10
56095237.747917
 20
36128187.152083
 30
0.0
 11
58377485.956250
 21
31649023.093750
 31
0.0
  0
LINE
  5
1fe
100
AcDbEntity
  8
0
 62
7
100
AcDbLine
 10
53898321.897917
 20
29366774.885417
 30
0.0
 11
51616073.689583
 21
33845938.943750
 31
0.0
  0
LINE
  5
1ff
100
AcDbEntity
  8
0
 62
7
100
AcDbLine
 10
51616073.689583
 20
33845938.943750
 30
0.0
 11
56095237.747917
 21
36128187.152083
 31
0.0
  0
LINE
  5
200
100
AcDbEntity
  8
0
 62
7
100
AcDbLine
 10
51616073.689583
 20
33845938.943750
 30
0.0
 11
56095237.747917
 21
36128187.152083
 31
0.0
  0
LINE
  5
201
100
AcDbEntity
  8
0
 62
7
100
AcDbLine
 10
56095237.747917
 20
36128187.152083
 30
0.0
 11
58377485.956250
 21
31649023.093750
 31
0.0
  0
LINE
  5
202
100
AcDbEntity
  8
0
 62
7
100
AcDbLine
 10
65982866.933333
 20
27685398.337500
 30
0.0
 11
61321836.493750
 21
25802219.847917
 31
0.0
  0
LINE
  5
203
100
AcDbEntity
  8
0
 62
7
100
AcDbLine
 10
65982866.933333
 20
27685398.337500
 30
0.0
 11
61321836.493750
 21
25802219.847917
 31
0.0
  0
LINE
  5
204
100
AcDbEntity
  8
0
 62
7
100
AcDbLine
 10
59438658.004167
 20
30463250.287500
 30
0.0
 11
64099688.443750
 21
32346428.777083
 31
0.0
  0
LINE
  5
205
100
AcDbEntity
  8
0
 62
7
100
AcDbLine
 10
64099688.443750
 20
32346428.777083
 30
0.0
 11
65982866.933333
 21
27685398.337500
 31
0.0
  0
LINE
  5
206
100
AcDbEntity
  8
0
 62
7
100
AcDbLine
 10
64099688.443750
 20
32346428.777083
 30
0.0
 11
65982866.933333
 21
27685398.337500
 31
0.0
  0
LINE
  5
207
100
AcDbEntity
  8
0
 62
7
100
AcDbLine
 10
59438658.004167
 20
30463250.287500
 30
0.0
 11
64099688.443750
 21
32346428.777083
 31
0.0
  0
LINE
  5
208
100
AcDbEntity
  8
0
 62
7
100
AcDbLine
 10
61321836.493750
 20
25802219.847917
 30
0.0
 11
59438658.004167
 21
30463250.287500
 31
0.0
  0
LINE
  5
209
100
AcDbEntity
  8
0
 62
7
100
AcDbLine
 10
61321836.493750
 20
25802219.847917
 30
0.0
 11
59438658.004167
 21
30463250.287500
 31
0.0
  0
LINE
  5
20a
100
AcDbEntity
  8
0
 62
7
100
AcDbLine
 10
9506940.070833
 20
37008842.458333
 30
0.0
 11
14167970.510417
 21
35125663.968750
 31
0.0
  0
LINE
  5
20b
100
AcDbEntity
  8
0
 62
7
100
AcDbLine
 10
7623761.581250
 20
32347812.018750
 30
0.0
 11
9506940.070833
 21
37008842.458333
 31
0.0
  0
LINE
  5
20c
100
AcDbEntity
  8
0
 62
7
100
AcDbLine
 10
9506940.070833
 20
37008842.458333
 30
0.0
 11
14167970.510417
 21
35125663.968750
 31
0.0
  0
LINE
  5
20d
100
AcDbEntity
  8
0
 62
7
100
AcDbLine
 10
7623761.581250
 20
32347812.018750
 30
0.0
 11
9506940.070833
 21
37008842.458333
 31
0.0
  0
LINE
  5
20e
100
AcDbEntity
  8
0
 62
7
100
AcDbLine
 10
12284792.020833
 20
30464633.529167
 30
0.0
 11
7623761.581250
 21
32347812.018750
 31
0.0
  0
LINE
  5
20f
100
AcDbEntity
  8
0
 62
7
100
AcDbLine
 10
12284792.020833
 20
30464633.529167
 30
0.0
 11
7623761.581250
 21
32347812.018750
 31
0.0
  0
LINE
  5
210
100
AcDbEntity
  8
0
 62
7
100
AcDbLine
 10
14167970.510417
 20
35125663.968750
 30
0.0
 11
12284792.020833
 21
30464633.529167
 31
0.0
  0
LINE
  5
211
100
AcDbEntity
  8
0
 62
7
100
AcDbLine
 10
14167970.510417
 20
35125663.968750
 30
0.0
 11
12284792.020833
 21
30464633.529167
 31
0.0
  0
LINE
  5
212
100
AcDbEntity
  8
0
 62
7
100
AcDbLine
 10
49893281.912500
 20
26036853.141667
 30
0.0
 11
54372445.970833
 21
28319101.350000
 31
0.0
  0
LINE
  5
213
100
AcDbEntity
  8
0
 62
7
100
AcDbLine
 10
54372445.970833
 20
28319101.350000
 30
0.0
 11
56654694.179167
 21
23839937.291667
 31
0.0
  0
LINE
  5
214
100
AcDbEntity
  8
0
 62
7
100
AcDbLine
 10
54372445.970833
 20
28319101.350000
 30
0.0
 11
56654694.179167
 21
23839937.291667
 31
0.0
  0
LINE
  5
215
100
AcDbEntity
  8
0
 62
7
100
AcDbLine
 10
49893281.912500
 20
26036853.141667
 30
0.0
 11
54372445.970833
 21
28319101.350000
 31
0.0
  0
LINE
  5
216
100
AcDbEntity
  8
0
 62
7
100
AcDbLine
 10
56654694.179167
 20
23839937.291667
 30
0.0
 11
52175530.120833
 21
21557689.083333
 31
0.0
  0
LINE
  5
217
100
AcDbEntity
  8
0
 62
7
100
AcDbLine
 10
52175530.120833
 20
21557689.083333
 30
0.0
 11
49893281.912500
 21
26036853.141667
 31
0.0
  0
LINE
  5
218
100
AcDbEntity
  8
0
 62
7
100
AcDbLine
 10
52175530.120833
 20
21557689.083333
 30
0.0
 11
49893281.912500
 21
26036853.141667
 31
0.0
  0
LINE
  5
219
100
AcDbEntity
  8
0
 62
7
100
AcDbLine
 10
56654694.179167
 20
23839937.291667
 30
0.0
 11
52175530.120833
 21
21557689.083333
 31
0.0
  0
LINE
  5
21a
100
AcDbEntity
  8
0
 62
7
100
AcDbLine
 10
27700720.622917
 20
26232008.485417
 30
0.0
 11
25418472.414583
 21
21752844.427083
 31
0.0
  0
LINE
  5
21b
100
AcDbEntity
  8
0
 62
7
100
AcDbLine
 10
25418472.414583
 20
21752844.427083
 30
0.0
 11
20939308.356250
 21
24035092.635417
 31
0.0
  0
LINE
  5
21c
100
AcDbEntity
  8
0
 62
7
100
AcDbLine
 10
27700720.622917
 20
26232008.485417
 30
0.0
 11
25418472.414583
 21
21752844.427083
 31
0.0
  0
LINE
  5
21d
100
AcDbEntity
  8
0
 62
7
100
AcDbLine
 10
20939308.356250
 20
24035092.635417
 30
0.0
 11
23221556.564583
 21
28514256.693750
 31
0.0
  0
LINE
  5
21e
100
AcDbEntity
  8
0
 62
7
100
AcDbLine
 10
25418472.414583
 20
21752844.427083
 30
0.0
 11
20939308.356250
 21
24035092.635417
 31
0.0
  0
LINE
  5
21f
100
AcDbEntity
  8
0
 62
7
100
AcDbLine
 10
23221556.564583
 20
28514256.693750
 30
0.0
 11
27700720.622917
 21
26232008.485417
 31
0.0
  0
LINE
  5
220
100
AcDbEntity
  8
0
 62
7
100
AcDbLine
 10
20939308.356250
 20
24035092.635417
 30
0.0
 11
23221556.564583
 21
28514256.693750
 31
0.0
  0
LINE
  5
221
100
AcDbEntity
  8
0
 62
7
100
AcDbLine
 10
23221556.564583
 20
28514256.693750
 30
0.0
 11
27700720.622917
 21
26232008.485417
 31
0.0
  0
SPLINE
  5
222
100
AcDbEntity
  8
0
 62
7
100
AcDbSpline
 70
0
 71
3
 72
10
 73
6
 74
4
 40
0.000000
 40
0.000000
 40
0.000000
 40
0.000000
 40
1627189.658378
 40
3240913.741694
 40
4868103.400072
 40
4868103.400072
 40
4868103.400072
 40
4868103.400072
 10
40271810.110007
 20
28490442.385007
 30
0.0
 10
39857856.648453
 20
28844156.379634
 30
0.0
 10
39033375.337954
 20
29548657.259364
 30
0.0
 10
37500418.999403
 20
30183628.565318
 30
0.0
 10
36419265.324378
 20
30268467.541524
 30
0.0
 10
35876442.460417
 20
30311063.277083
 30
0.0
 11
40271810.110007
 21
28490442.385007
 31
0.0
 11
38980522.505168
 21
29480554.755358
 31
0.0
 11
37489635.853472
 21
30098100.226451
 31
0.0
 11
35876442.460417
 21
30311063.277083
 31
0.0
  0
SPLINE
  5
223
100
AcDbEntity
  8
0
 62
7
100
AcDbSpline
 70
0
 71
3
 72
10
 73
6
 74
4
 40
0.000000
 40
0.000000
 40
0.000000
 40
0.000000
 40
75444.772506
 40
148658.505736
 40
224103.278241
 40
224103.278241
 40
224103.278241
 40
224103.278241
 10
6451589.560448
 20
29704244.425081
 30
0.0
 10
6455792.659257
 20
29729488.521234
 30
0.0
 10
6464074.563591
 20
29779230.199658
 30
0.0
 10
6427781.379747
 20
29851823.509941
 30
0.0
 10
6383020.671083
 20
29875046.418279
 30
0.0
 10
6360304.436545
 20
29886832.134999
 30
0.0
 11
6451589.560448
 21
29704244.425081
 31
0.0
 11
6455865.000950
 21
29779567.955979
 31
0.0
 11
6423125.329230
 21
29845053.562254
 31
0.0
 11
6360304.436545
 21
29886832.134999
 31
0.0
  0
SPLINE
  5
224
100
AcDbEntity
  8
0
 62
7
100
AcDbSpline
 70
0
 71
3
 72
13
 73
9
 74
7
 40
0.000000
 40
0.000000
 40
0.000000
 40
0.000000
 40
40156.916930
 40
79920.419407
 40
120077.336337
 40
160234.253267
 40
199997.755744
 40
240154.672674
 40
240154.672674
 40
240154.672674
 40
240154.672674
 10
56057395.304964
 20
23185429.372890
 30
0.0
 10
56045406.783924
 20
23179268.941774
 30
0.0
 10
56021547.192531
 20
23167008.432846
 30
0.0
 10
55994140.669139
 20
23136744.224336
 30
0.0
 10
55975831.096029
 20
23100615.202230
 30
0.0
 10
55968799.110185
 20
23060726.633932
 30
0.0
 10
55972563.529845
 20
23020071.142473
 30
0.0
 10
55984293.548266
 20
22995946.324370
 30
0.0
 10
55990187.428438
 20
22983824.537176
 30
0.0
 11
56057395.304964
 21
23185429.372890
 31
0.0
 11
56022848.231361
 21
23164957.985961
 31
0.0
 11
55995729.271261
 21
23135877.096491
 31
0.0
 11
55977716.852112
 21
23099986.558271
 31
0.0
 11
55970590.254074
 21
23060467.074751
 31
0.0
 11
55974834.677124
 21
23020930.749653
 31
0.0
 11
55990187.428438
 21
22983824.537176
 31
0.0
  0
LINE
  5
225
100
AcDbEntity
  8
0
 62
7
100
AcDbLine
 10
54310083.414583
 20
41254891.666667
 30
0.0
 11
47320849.816667
 21
37693070.039583
 31
0.0
  0
SPLINE
  5
226
100
AcDbEntity
  8
0
 62
7
100
AcDbSpline
 70
0
 71
3
 72
10
 73
6
 74
4
 40
0.000000
 40
0.000000
 40
0.000000
 40
0.000000
 40
64274.094323
 40
127602.544730
 40
191876.639052
 40
191876.639052
 40
191876.639052
 40
191876.639052
 10
8795919.906320
 20
40427356.902386
 30
0.0
 10
8817198.207384
 20
40423744.991910
 30
0.0
 10
8859441.748767
 20
40416574.311826
 30
0.0
 10
8923815.289564
 20
40433526.687142
 30
0.0
 10
8957047.855778
 20
40460573.535096
 30
0.0
 10
8973787.279744
 20
40474197.179203
 30
0.0
 11
8795919.906320
 21
40427356.902386
 31
0.0
 11
8859898.515976
 21
40421200.872214
 31
0.0
 11
8921139.044354
 21
40437328.188013
 31
0.0
 11
8973787.279744
 21
40474197.179203
 31
0.0
  0
SPLINE
  5
227
100
AcDbEntity
  8
0
 62
7
100
AcDbSpline
 70
0
 71
3
 72
10
 73
6
 74
4
 40
0.000000
 40
0.000000
 40
0.000000
 40
0.000000
 40
45734.893906
 40
90133.706897
 40
135868.600803
 40
135868.600803
 40
135868.600803
 40
135868.600803
 10
53772451.566031
 20
16196201.515440
 30
0.0
 10
53760698.563845
 20
16186081.962312
 30
0.0
 10
53737535.906983
 20
16166138.484639
 30
0.0
 10
53726050.284126
 20
16118346.958927
 30
0.0
 10
53737620.902409
 20
16090056.116466
 30
0.0
 10
53743491.969048
 20
16075701.013109
 30
0.0
 11
53772451.566031
 21
16196201.515440
 31
0.0
 11
53741194.420252
 21
16162814.821108
 31
0.0
 11
53730819.566384
 21
16119645.190554
 31
0.0
 11
53743491.969048
 21
16075701.013109
 31
0.0
  0
SPLINE
  5
228
100
AcDbEntity
  8
0
 62
7
100
AcDbSpline
 70
0
 71
3
 72
10
 73
6
 74
4
 40
0.000000
 40
0.000000
 40
0.000000
 40
0.000000
 40
53857.753504
 40
106542.509115
 40
160400.262619
 40
160400.262619
 40
160400.262619
 40
160400.262619
 10
54444481.664480
 20
41187682.113005
 30
0.0
 10
54434531.887686
 20
41202879.738258
 30
0.0
 10
54414849.035806
 20
41232943.991253
 30
0.0
 10
54364072.943148
 20
41258335.933424
 30
0.0
 10
54328211.548502
 20
41256048.065377
 30
0.0
 10
54310083.440113
 20
41254891.537017
 30
0.0
 11
54444481.664480
 21
41187682.113005
 31
0.0
 11
54411043.572462
 21
41229902.387930
 31
0.0
 11
54363922.340749
 21
41253466.619206
 31
0.0
 11
54310083.440113
 21
41254891.537017
 31
0.0
  0
SPLINE
  5
229
100
AcDbEntity
  8
0
 62
7
100
AcDbSpline
 70
0
 71
3
 72
13
 73
9
 74
7
 40
0.000000
 40
0.000000
 40
0.000000
 40
0.000000
 40
34034.826937
 40
67738.172507
 40
101772.999444
 40
135807.826381
 40
169511.171950
 40
203545.998887
 40
203545.998887
 40
203545.998887
 40
203545.998887
 10
13828199.155874
 20
18648400.229961
 30
0.0
 10
13823857.703020
 20
18637834.038968
 30
0.0
 10
13815217.080786
 20
18616804.566142
 30
0.0
 10
13814154.773605
 20
18582219.550901
 30
0.0
 10
13822157.096240
 20
18548838.496698
 30
0.0
 10
13839479.586856
 20
18519202.989850
 30
0.0
 10
13864179.014503
 20
18494970.985193
 30
0.0
 10
13884968.947033
 20
18485768.931871
 30
0.0
 10
13895414.781775
 20
18481145.389772
 30
0.0
 11
13828199.155874
 21
18648400.229961
 31
0.0
 11
13817177.649238
 21
18616199.362953
 31
0.0
 11
13815651.818975
 21
18582530.574073
 31
0.0
 11
13823715.516971
 21
18549464.787839
 31
0.0
 11
13840775.537571
 21
18520014.403432
 31
0.0
 11
13865175.564070
 21
18496764.581724
 31
0.0
 11
13895414.781775
 21
18481145.389772
 31
0.0
  0
LINE
  5
22a
100
AcDbEntity
  8
0
 62
7
100
AcDbLine
 10
47052033.414583
 20
37827478.372917
 30
0.0
 11
44968704.247917
 21
40792928.902083
 31
0.0
  0
LINE
  5
22b
100
AcDbEntity
  8
0
 62
7
100
AcDbLine
 10
16923980.312500
 20
40179624.470833
 30
0.0
 11
11319910.579167
 21
42451594.145833
 31
0.0
  0
LINE
  5
22c
100
AcDbEntity
  8
0
 62
7
100
AcDbLine
 10
60732073.100000
 20
42384389.714583
 30
0.0
 11
55128003.631250
 21
40112420.039583
 31
0.0
  0
SPLINE
  5
22d
100
AcDbEntity
  8
0
 62
7
100
AcDbSpline
 70
0
 71
3
 72
10
 73
6
 74
4
 40
0.000000
 40
0.000000
 40
0.000000
 40
0.000000
 40
64274.102570
 40
127602.774918
 40
191876.877488
 40
191876.877488
 40
191876.877488
 40
191876.877488
 10
63078188.051124
 20
40406984.458747
 30
0.0
 10
63094929.338782
 20
40393363.166410
 30
0.0
 10
63128165.660651
 20
40366320.942081
 30
0.0
 10
63192540.166990
 20
40349374.329567
 30
0.0
 10
63234783.446426
 20
40356546.521040
 30
0.0
 10
63256061.579892
 20
40360159.186757
 30
0.0
 11
63078188.051124
 21
40406984.458747
 31
0.0
 11
63130841.085578
 21
40370122.307102
 31
0.0
 11
63192083.238041
 21
40354000.287900
 31
0.0
 11
63256061.579892
 21
40360159.186757
 31
0.0
  0
SPLINE
  5
22e
100
AcDbEntity
  8
0
 62
7
100
AcDbSpline
 70
0
 71
3
 72
13
 73
9
 74
7
 40
0.000000
 40
0.000000
 40
0.000000
 40
0.000000
 40
27698.589306
 40
55165.015620
 40
82863.604926
 40
110562.194232
 40
138028.620547
 40
165727.209852
 40
165727.209852
 40
165727.209852
 40
165727.209852
 10
54135913.780960
 20
15044372.052762
 30
0.0
 10
54143631.314862
 20
15049538.794779
 30
0.0
 10
54159001.696133
 20
15059828.972409
 30
0.0
 10
54175966.611538
 20
15082221.663638
 30
0.0
 10
54186901.508861
 20
15107890.279494
 30
0.0
 10
54190541.120631
 20
15135552.583187
 30
0.0
 10
54187322.729755
 20
15163461.057445
 30
0.0
 10
54179322.088895
 20
15180138.171160
 30
0.0
 10
54175304.933043
 20
15188511.820989
 30
0.0
 11
54135913.780960
 21
15044372.052762
 31
0.0
 11
54158038.716696
 21
15061036.357975
 31
0.0
 11
54174923.914501
 21
15082699.568023
 31
0.0
 11
54185682.221343
 21
15108223.491769
 31
0.0
 11
54189400.291251
 21
15135671.402540
 31
0.0
 11
54185879.534638
 21
15162911.241882
 31
0.0
 11
54175304.933043
 21
15188511.820989
 31
0.0
  0
SPLINE
  5
22f
100
AcDbEntity
  8
0
 62
7
100
AcDbSpline
 70
0
 71
3
 72
10
 73
6
 74
4
 40
0.000000
 40
0.000000
 40
0.000000
 40
0.000000
 40
6974972.466810
 40
13940821.408424
 40
20915793.875234
 40
20915793.875234
 40
20915793.875234
 40
20915793.875234
 10
25604788.312530
 20
7728478.491498
 30
0.0
 10
27912560.462647
 20
7435406.555397
 30
0.0
 10
32525086.110482
 20
6849646.032263
 30
0.0
 10
39521374.967248
 20
6827087.340705
 30
0.0
 10
44137582.096061
 20
7383090.925492
 30
0.0
 10
46447196.191333
 20
7661274.655253
 30
0.0
 11
25604788.312530
 21
7728478.491498
 31
0.0
 11
32540783.756232
 21
6992130.667629
 31
0.0
 11
39506596.487471
 21
6969670.242671
 31
0.0
 11
46447196.191333
 21
7661274.655253
 31
0.0
  0
LINE
  5
230
100
AcDbEntity
  8
0
 62
7
100
AcDbLine
 10
58223772.829167
 20
18581189.554167
 30
0.0
 11
55990187.316667
 21
22983824.470833
 31
0.0
  0
SPLINE
  5
231
100
AcDbEntity
  8
0
 62
7
100
AcDbSpline
 70
0
 71
3
 72
10
 73
6
 74
4
 40
0.000000
 40
0.000000
 40
0.000000
 40
0.000000
 40
33647.793610
 40
66395.619671
 40
100043.413281
 40
100043.413281
 40
100043.413281
 40
100043.413281
 10
25541818.093202
 20
7795683.341851
 30
0.0
 10
25543634.082246
 20
7784440.336698
 30
0.0
 10
25547217.488614
 20
7762255.039715
 30
0.0
 10
25571781.594093
 20
7736039.024033
 30
0.0
 10
25593687.091245
 20
7731021.315598
 30
0.0
 10
25604788.300192
 20
7728478.454809
 30
0.0
 11
25541818.093202
 21
7795683.341851
 31
0.0
 11
25550532.596773
 21
7763183.627355
 31
0.0
 11
25572923.675689
 21
7739286.771981
 31
0.0
 11
25604788.300192
 21
7728478.454809
 31
0.0
  0
SPLINE
  5
232
100
AcDbEntity
  8
0
 62
7
100
AcDbSpline
 70
0
 71
3
 72
10
 73
6
 74
4
 40
0.000000
 40
0.000000
 40
0.000000
 40
0.000000
 40
88927.830468
 40
175377.663539
 40
264305.494008
 40
264305.494008
 40
264305.494008
 40
264305.494008
 10
4435475.810538
 20
41590913.882651
 30
0.0
 10
4405356.401772
 20
41591486.685211
 30
0.0
 10
4345956.869491
 20
41592616.329038
 30
0.0
 10
4266721.219061
 20
41539792.092051
 30
0.0
 10
4244918.447181
 20
41484527.097084
 30
0.0
 10
4233863.030188
 20
41456504.166432
 30
0.0
 11
4435475.810538
 21
41590913.882651
 31
0.0
 11
4346871.977835
 21
41583329.697644
 31
0.0
 11
4274941.565721
 21
41535375.662870
 31
0.0
 11
4233863.030188
 21
41456504.166432
 31
0.0
  0
SPLINE
  5
233
100
AcDbEntity
  8
0
 62
7
100
AcDbSpline
 70
0
 71
3
 72
10
 73
6
 74
4
 40
0.000000
 40
0.000000
 40
0.000000
 40
0.000000
 40
58735.111101
 40
115885.241454
 40
174620.352555
 40
174620.352555
 40
174620.352555
 40
174620.352555
 10
16923982.779676
 20
40179632.131806
 30
0.0
 10
16943599.116387
 20
40176383.262102
 30
0.0
 10
16982302.438364
 20
40169973.194205
 30
0.0
 10
17039297.497399
 20
40196227.328048
 30
0.0
 10
17059579.405367
 20
40229808.279667
 30
0.0
 10
17069859.058780
 20
40246828.401466
 30
0.0
 11
16923982.779676
 21
40179632.131806
 31
0.0
 11
16982605.972498
 21
40176007.971297
 31
0.0
 11
17034513.724558
 21
40199918.694317
 31
0.0
 11
17069859.058780
 21
40246828.401466
 31
0.0
  0
LINE
  5
234
100
AcDbEntity
  8
0
 62
7
100
AcDbLine
 10
54175304.929167
 20
15188511.818750
 30
0.0
 11
53743491.964583
 21
16075701.010417
 31
0.0
  0
LINE
  5
235
100
AcDbEntity
  8
0
 62
7
100
AcDbLine
 10
6451600.264583
 20
29704240.872917
 30
0.0
 11
5645150.793750
 21
27755320.304167
 31
0.0
  0
SPLINE
  5
236
100
AcDbEntity
  8
0
 62
7
100
AcDbSpline
 70
0
 71
3
 72
10
 73
6
 74
4
 40
0.000000
 40
0.000000
 40
0.000000
 40
0.000000
 40
53856.623730
 40
106541.121950
 40
160397.745680
 40
160397.745680
 40
160397.745680
 40
160397.745680
 10
17741900.044012
 20
41322093.367004
 30
0.0
 10
17723772.342597
 20
41323247.266760
 30
0.0
 10
17687911.467677
 20
41325529.953013
 30
0.0
 10
17637136.688882
 20
41300143.123033
 30
0.0
 10
17617445.783059
 20
41270085.158458
 30
0.0
 10
17607492.014163
 20
41254890.832938
 30
0.0
 11
17741900.044012
 21
41322093.367004
 31
0.0
 11
17688062.422786
 21
41320662.821569
 31
0.0
 11
17640939.767363
 21
41297102.013038
 31
0.0
 11
17607492.014163
 21
41254890.832938
 31
0.0
  0
SPLINE
  5
237
100
AcDbEntity
  8
0
 62
7
100
AcDbSpline
 70
0
 71
3
 72
13
 73
9
 74
7
 40
0.000000
 40
0.000000
 40
0.000000
 40
0.000000
 40
24457.680374
 40
48705.869105
 40
73163.549478
 40
97621.229852
 40
121869.418583
 40
146327.098956
 40
146327.098956
 40
146327.098956
 40
146327.098956
 10
5645152.218027
 20
27755319.622096
 30
0.0
 10
5642192.431101
 20
27747670.486505
 30
0.0
 10
5636298.209231
 20
27732437.733801
 30
0.0
 10
5635479.727566
 20
27707637.037861
 30
0.0
 10
5640748.080890
 20
27683566.482989
 30
0.0
 10
5652353.329089
 20
27661830.214384
 30
0.0
 10
5669064.550252
 20
27643486.836326
 30
0.0
 10
5683431.846587
 20
27635717.704946
 30
0.0
 10
5690646.392761
 20
27631816.431124
 30
0.0
 11
5645152.218027
 21
27755319.622096
 31
0.0
 11
5637621.723344
 21
27732050.118898
 31
0.0
 11
5636486.395685
 21
27707828.523412
 31
0.0
 11
5641807.254143
 21
27683956.644674
 31
0.0
 11
5653243.661709
 21
27662337.516309
 31
0.0
 11
5669820.350382
 21
27644640.396504
 31
0.0
 11
5690646.392761
 21
27631816.431124
 31
0.0
  0
SPLINE
  5
238
100
AcDbEntity
  8
0
 62
7
100
AcDbSpline
 70
0
 71
3
 72
10
 73
6
 74
4
 40
0.000000
 40
0.000000
 40
0.000000
 40
0.000000
 40
45728.671376
 40
90122.328892
 40
135851.000269
 40
135851.000269
 40
135851.000269
 40
135851.000269
 10
18308482.550386
 20
16142911.018336
 30
0.0
 10
18314350.295234
 20
16157264.943068
 30
0.0
 10
18325914.480571
 20
16185553.740591
 30
0.0
 10
18314434.573768
 20
16233337.137837
 30
0.0
 10
18291281.546319
 20
16253285.164502
 30
0.0
 10
18279533.545612
 20
16263406.926413
 30
0.0
 11
18308482.550386
 21
16142911.018336
 31
0.0
 11
18321147.710781
 21
16186850.807799
 31
0.0
 11
18310777.274976
 21
16230016.197741
 31
0.0
 11
18279533.545612
 21
16263406.926413
 31
0.0
  0
SPLINE
  5
239
100
AcDbEntity
  8
0
 62
7
100
AcDbSpline
 70
0
 71
3
 72
13
 73
9
 74
7
 40
0.000000
 40
0.000000
 40
0.000000
 40
0.000000
 40
27719.268995
 40
55204.449100
 40
82923.718095
 40
110642.987091
 40
138128.167195
 40
165847.436191
 40
165847.436191
 40
165847.436191
 40
165847.436191
 10
17876696.037856
 20
15255705.814711
 30
0.0
 10
17872651.679282
 20
15247337.090714
 30
0.0
 10
17864597.116694
 20
15230670.316494
 30
0.0
 10
17861331.704274
 20
15202743.096839
 30
0.0
 10
17864957.410939
 20
15175056.307509
 30
0.0
 10
17875912.420666
 20
15149371.841112
 30
0.0
 10
17892923.596413
 20
15126984.067315
 30
0.0
 10
17908333.424230
 20
15116727.627968
 30
0.0
 10
17916071.010047
 20
15111577.662596
 30
0.0
 11
17876696.037856
 21
15255705.814711
 31
0.0
 11
17866045.630230
 21
15230114.279176
 31
0.0
 11
17862478.115096
 21
15202861.610295
 31
0.0
 11
17866182.409816
 21
15175390.970072
 31
0.0
 11
17876959.848576
 21
15149852.671628
 31
0.0
 11
17893888.194875
 21
15128199.352784
 31
0.0
 11
17916071.010047
 21
15111577.662596
 31
0.0
  0
LINE
  5
23a
100
AcDbEntity
  8
0
 62
7
100
AcDbLine
 10
24731133.862500
 20
37760274.470833
 30
0.0
 11
17741900.529167
 21
41322095.833333
 31
0.0
  0
SPLINE
  5
23b
100
AcDbEntity
  8
0
 62
7
100
AcDbSpline
 70
0
 71
3
 72
10
 73
6
 74
4
 40
0.000000
 40
0.000000
 40
0.000000
 40
0.000000
 40
48240.795414
 40
95510.819715
 40
143751.615129
 40
143751.615129
 40
143751.615129
 40
143751.615129
 10
46581607.837116
 20
11155882.250732
 30
0.0
 10
46567374.174840
 20
11148036.674005
 30
0.0
 10
46539193.280642
 20
11132503.400602
 30
0.0
 10
46512196.086281
 20
11089662.494540
 30
0.0
 10
46510344.014015
 20
11057537.501019
 30
0.0
 10
46509408.565659
 20
11041311.745186
 30
0.0
 11
46581607.837116
 21
11155882.250732
 31
0.0
 11
46541520.056534
 21
11129046.748312
 31
0.0
 11
46516318.392904
 21
11089055.107339
 31
0.0
 11
46509408.565659
 21
11041311.745186
 31
0.0
  0
LINE
  5
23c
100
AcDbEntity
  8
0
 62
7
100
AcDbLine
 10
27083279.431250
 20
40792929.166667
 30
0.0
 11
24999950.000000
 21
37827478.637500
 31
0.0
  0
LINE
  5
23d
100
AcDbEntity
  8
0
 62
7
100
AcDbLine
 10
53772450.081250
 20
16196203.902083
 30
0.0
 11
58156568.927083
 21
18413940.872917
 31
0.0
  0
LINE
  5
23e
100
AcDbEntity
  8
0
 62
7
100
AcDbLine
 10
37701537.764583
 20
18951573.941667
 30
0.0
 11
34072513.029167
 21
18951574.470833
 31
0.0
  0
LINE
  5
23f
100
AcDbEntity
  8
0
 62
7
100
AcDbLine
 10
34072513.029167
 20
18951574.470833
 30
0.0
 11
34072512.764583
 21
20698883.068750
 31
0.0
  0
LINE
  5
240
100
AcDbEntity
  8
0
 62
7
100
AcDbLine
 10
34072512.764583
 20
20698883.068750
 30
0.0
 11
37701537.764583
 21
20698883.333333
 31
0.0
  0
LINE
  5
241
100
AcDbEntity
  8
0
 62
7
100
AcDbLine
 10
37701537.764583
 20
20698883.333333
 30
0.0
 11
37701537.764583
 21
18951573.941667
 31
0.0
  0
LINE
  5
242
100
AcDbEntity
  8
0
 62
7
100
AcDbLine
 10
46510166.483333
 20
7728478.637500
 30
0.0
 11
46509408.452083
 21
11041311.737500
 31
0.0
  0
SPLINE
  5
243
100
AcDbEntity
  8
0
 62
7
100
AcDbSpline
 70
0
 71
3
 72
10
 73
6
 74
4
 40
0.000000
 40
0.000000
 40
0.000000
 40
0.000000
 40
69433.670686
 40
136888.639879
 40
206322.310566
 40
206322.310566
 40
206322.310566
 40
206322.310566
 10
1545706.454526
 20
31317137.923311
 30
0.0
 10
1541865.025290
 20
31293920.962911
 30
0.0
 10
1534291.638805
 20
31248148.672611
 30
0.0
 10
1566759.446489
 20
31181118.876830
 30
0.0
 10
1607370.026066
 20
31158685.875055
 30
0.0
 10
1627968.825289
 20
31147307.241597
 30
0.0
 11
1545706.454526
 21
31317137.923311
 31
0.0
 11
1541672.812114
 21
31247821.515774
 31
0.0
 11
1571078.536183
 21
31187113.392258
 31
0.0
 11
1627968.825289
 21
31147307.241597
 31
0.0
  0
SPLINE
  5
244
100
AcDbEntity
  8
0
 62
7
100
AcDbSpline
 70
0
 71
3
 72
10
 73
6
 74
4
 40
0.000000
 40
0.000000
 40
0.000000
 40
0.000000
 40
88923.047038
 40
175368.363804
 40
264291.410842
 40
264291.410842
 40
264291.410842
 40
264291.410842
 10
67818105.405162
 20
41389295.647037
 30
0.0
 10
67807051.291290
 20
41417317.312339
 30
0.0
 10
67785251.072701
 20
41472579.854041
 30
0.0
 10
67706022.322762
 20
41525404.521762
 30
0.0
 10
67646625.937843
 20
41524278.686795
 30
0.0
 10
67616508.147978
 20
41523707.816009
 30
0.0
 11
67818105.405162
 21
41389295.647037
 31
0.0
 11
67777031.308373
 21
41468164.061928
 31
0.0
 11
67705106.762093
 21
41516118.753390
 31
0.0
 11
67616508.147978
 21
41523707.816009
 31
0.0
  0
SPLINE
  5
245
100
AcDbEntity
  8
0
 62
7
100
AcDbSpline
 70
0
 71
3
 72
10
 73
6
 74
4
 40
0.000000
 40
0.000000
 40
0.000000
 40
0.000000
 40
5531296.100285
 40
11013218.267401
 40
16544514.367687
 40
16544514.367687
 40
16544514.367687
 40
16544514.367687
 10
27956933.086264
 20
41068880.363386
 30
0.0
 10
29710320.607816
 20
40474160.207781
 30
0.0
 10
33201444.411727
 20
39290028.539008
 30
0.0
 10
38850539.023333
 20
39290028.505249
 30
0.0
 10
42341662.841397
 20
40474160.132295
 30
0.0
 10
44095050.370057
 20
41068880.266944
 30
0.0
 11
27956933.086264
 21
41068880.363386
 31
0.0
 11
33285030.635725
 21
39583413.079176
 31
0.0
 11
38766952.802841
 21
39583413.046416
 31
0.0
 11
44095050.370057
 21
41068880.266944
 31
0.0
  0
LINE
  5
246
100
AcDbEntity
  8
0
 62
7
100
AcDbLine
 10
22513396.362500
 20
12768791.137500
 30
0.0
 11
25470379.960417
 21
11223095.304167
 31
0.0
  0
LINE
  5
247
100
AcDbEntity
  8
0
 62
7
100
AcDbLine
 10
18308492.243750
 20
16142905.177083
 30
0.0
 11
17876679.014583
 21
15255715.720833
 31
0.0
  0
LINE
  5
248
100
AcDbEntity
  8
0
 62
7
100
AcDbLine
 10
16061796.362500
 20
23051028.372917
 30
0.0
 11
13828210.850000
 21
18648394.250000
 31
0.0
  0
LINE
  5
249
100
AcDbEntity
  8
0
 62
7
100
AcDbLine
 10
5690646.427083
 20
27631816.508333
 30
0.0
 11
15994592.460417
 21
23252641.137500
 31
0.0
  0
SPLINE
  5
24a
100
AcDbEntity
  8
0
 62
7
100
AcDbSpline
 70
0
 71
3
 72
10
 73
6
 74
4
 40
0.000000
 40
0.000000
 40
0.000000
 40
0.000000
 40
50603.019116
 40
100358.534893
 40
150961.554009
 40
150961.554009
 40
150961.554009
 40
150961.554009
 10
60874305.917662
 20
42363312.510787
 30
0.0
 10
60860299.170436
 20
42372968.459225
 30
0.0
 10
60832520.262087
 20
42392118.637518
 30
0.0
 10
60780416.963312
 20
42399839.753953
 30
0.0
 10
60748278.162706
 20
42389568.698829
 30
0.0
 10
60732073.060239
 20
42384389.802990
 30
0.0
 11
60874305.917662
 21
42363312.510787
 31
0.0
 11
60830541.811662
 21
42388716.616158
 31
0.0
 11
60781323.772056
 21
42396010.169991
 31
0.0
 11
60732073.060239
 21
42384389.802990
 31
0.0
  0
LINE
  5
24b
100
AcDbEntity
  8
0
 62
7
100
AcDbLine
 10
8795921.575000
 20
40427362.841667
 30
0.0
 11
4435475.529167
 21
41590912.235417
 31
0.0
  0
LINE
  5
24c
100
AcDbEntity
  8
0
 62
7
100
AcDbLine
 10
63078197.016667
 20
40406993.364583
 30
0.0
 11
60874305.427083
 21
42363311.947917
 31
0.0
  0
SPLINE
  5
24d
100
AcDbEntity
  8
0
 62
7
100
AcDbSpline
 70
0
 71
3
 72
10
 73
6
 74
4
 40
0.000000
 40
0.000000
 40
0.000000
 40
0.000000
 40
48242.794598
 40
95514.396339
 40
143757.190936
 40
143757.190936
 40
143757.190936
 40
143757.190936
 10
25542567.413969
 20
11108515.340573
 30
0.0
 10
25541635.502974
 20
11124742.058191
 30
0.0
 10
25539790.441614
 20
11156868.827603
 30
0.0
 10
25512796.343990
 20
11199715.356361
 30
0.0
 10
25484614.268104
 20
11215249.324399
 30
0.0
 10
25470379.952121
 20
11223095.283312
 30
0.0
 11
25542567.413969
 21
11108515.340573
 31
0.0
 11
25535666.908500
 21
11156262.070879
 31
0.0
 11
25510468.840458
 21
11196257.841882
 31
0.0
 11
25470379.952121
 21
11223095.283312
 31
0.0
  0
SPLINE
  5
24e
100
AcDbEntity
  8
0
 62
7
100
AcDbSpline
 70
0
 71
3
 72
10
 73
6
 74
4
 40
0.000000
 40
0.000000
 40
0.000000
 40
0.000000
 40
106606.841920
 40
211193.895811
 40
317800.737731
 40
317800.737731
 40
317800.737731
 40
317800.737731
 10
47052023.736098
 20
37827473.112639
 30
0.0
 10
47072846.343756
 20
37798241.614368
 30
0.0
 10
47114097.051057
 20
37740332.441853
 30
0.0
 10
47213893.457921
 20
37690437.910204
 30
0.0
 10
47284971.117468
 20
37692187.032165
 30
0.0
 10
47320849.828764
 20
37693069.957155
 30
0.0
 11
47052023.736098
 21
37827473.112639
 31
0.0
 11
47120879.210010
 21
37746085.506356
 31
0.0
 11
47214426.091535
 21
37699315.507440
 31
0.0
 11
47320849.828764
 21
37693069.957155
 31
0.0
  0
LINE
  5
24f
100
AcDbEntity
  8
0
 62
7
100
AcDbLine
 10
56057392.277083
 20
23185436.706250
 30
0.0
 11
66361337.516667
 21
27564612.341667
 31
0.0
  0
SPLINE
  5
250
100
AcDbEntity
  8
0
 62
7
100
AcDbSpline
 70
0
 71
3
 72
13
 73
9
 74
7
 40
0.000000
 40
0.000000
 40
0.000000
 40
0.000000
 40
40159.654864
 40
79925.647964
 40
120085.302828
 40
160244.957691
 40
200010.950792
 40
240170.605656
 40
240170.605656
 40
240170.605656
 40
240170.605656
 10
16061787.572583
 20
23051033.593948
 30
0.0
 10
16067685.356455
 20
23063154.565269
 30
0.0
 10
16079423.111649
 20
23087277.693071
 30
0.0
 10
16083195.263370
 20
23127935.655539
 30
0.0
 10
16076166.881002
 20
23167827.877260
 30
0.0
 10
16057856.627508
 20
23203959.887023
 30
0.0
 10
16030446.116835
 20
23234224.766757
 30
0.0
 10
16006582.841194
 20
23246482.183601
 30
0.0
 10
15994592.435886
 20
23252641.078055
 30
0.0
 11
16061787.572583
 21
23051033.593948
 31
0.0
 11
16077151.367538
 21
23088138.198559
 31
0.0
 11
16081403.418532
 21
23127676.209000
 31
0.0
 11
16074280.405139
 21
23167199.120823
 31
0.0
 11
16056267.426724
 21
23203092.441753
 31
0.0
 11
16029144.890072
 21
23232173.401380
 31
0.0
 11
15994592.435886
 21
23252641.078055
 31
0.0
  0
LINE
  5
251
100
AcDbEntity
  8
0
 62
7
100
AcDbLine
 10
4233863.029167
 20
41456504.166667
 30
0.0
 11
1545696.627083
 21
31317141.137500
 31
0.0
  0
LINE
  5
252
100
AcDbEntity
  8
0
 62
7
100
AcDbLine
 10
11177677.722917
 20
42430515.850000
 30
0.0
 11
8973787.191667
 21
40474197.266667
 31
0.0
  0
SPLINE
  5
253
100
AcDbEntity
  8
0
 62
7
100
AcDbSpline
 70
0
 71
3
 72
10
 73
6
 74
4
 40
0.000000
 40
0.000000
 40
0.000000
 40
0.000000
 40
325423.590191
 40
644558.330666
 40
969981.920857
 40
969981.920857
 40
969981.920857
 40
969981.920857
 10
44968699.290402
 20
40792925.142324
 30
0.0
 10
44892315.242618
 20
40871497.163477
 30
0.0
 10
44741023.277889
 20
41027122.792096
 30
0.0
 10
44415944.767728
 20
41129803.772988
 30
0.0
 10
44202708.633336
 20
41089319.876629
 30
0.0
 10
44095050.311178
 20
41068880.431087
 30
0.0
 11
44968699.290402
 21
40792925.142324
 31
0.0
 11
44723048.729451
 21
41006364.395877
 31
0.0
 11
44418733.989085
 21
41102486.824965
 31
0.0
 11
44095050.311178
 21
41068880.431087
 31
0.0
  0
LINE
  5
254
100
AcDbEntity
  8
0
 62
7
100
AcDbLine
 10
49538586.787500
 20
12701586.970833
 30
0.0
 11
54135912.704167
 21
15044373.962500
 31
0.0
  0
SPLINE
  5
255
100
AcDbEntity
  8
0
 62
7
100
AcDbSpline
 70
0
 71
3
 72
10
 73
6
 74
4
 40
0.000000
 40
0.000000
 40
0.000000
 40
0.000000
 40
58736.122518
 40
115887.864639
 40
174623.987156
 40
174623.987156
 40
174623.987156
 40
174623.987156
 10
54982119.330740
 20
40179622.066172
 30
0.0
 10
54992401.214488
 20
40162603.078718
 30
0.0
 10
55012687.632812
 20
40129024.183316
 30
0.0
 10
55069681.773216
 20
40102769.693685
 30
0.0
 10
55108386.608189
 20
40109174.124538
 30
0.0
 10
55128003.605500
 20
40112420.119590
 30
0.0
 11
54982119.330740
 21
40179622.066172
 31
0.0
 11
55017470.009618
 21
40132715.120085
 31
0.0
 11
55069378.956003
 21
40108803.137468
 31
0.0
 11
55128003.605500
 21
40112420.119590
 31
0.0
  0
LINE
  5
256
100
AcDbEntity
  8
0
 62
7
100
AcDbLine
 10
17916070.975000
 20
15111577.600000
 30
0.0
 11
22513396.362500
 21
12768791.137500
 31
0.0
  0
LINE
  5
257
100
AcDbEntity
  8
0
 62
7
100
AcDbLine
 10
1627968.814583
 20
31147307.212500
 30
0.0
 11
6360304.462500
 21
29886832.212500
 31
0.0
  0
SPLINE
  5
258
100
AcDbEntity
  8
0
 62
7
100
AcDbSpline
 70
0
 71
3
 72
10
 73
6
 74
4
 40
0.000000
 40
0.000000
 40
0.000000
 40
0.000000
 40
33641.937231
 40
66384.645091
 40
100026.582322
 40
100026.582322
 40
100026.582322
 40
100026.582322
 10
46447195.121916
 20
7661288.149040
 30
0.0
 10
46458293.987376
 20
7663831.701776
 30
0.0
 10
46480195.052091
 20
7668850.819567
 30
0.0
 10
46504756.820108
 20
7695058.219405
 30
0.0
 10
46508347.090060
 20
7717238.348817
 30
0.0
 10
46510166.541474
 20
7728478.636695
 30
0.0
 11
46447195.121916
 21
7661288.149040
 31
0.0
 11
46479053.493435
 21
7672096.669052
 31
0.0
 11
46501443.856789
 21
7695987.180702
 31
0.0
 11
46510166.541474
 21
7728478.636695
 31
0.0
  0
SPLINE
  5
259
100
AcDbEntity
  8
0
 62
7
100
AcDbSpline
 70
0
 71
3
 72
10
 73
6
 74
4
 40
0.000000
 40
0.000000
 40
0.000000
 40
0.000000
 40
69440.339669
 40
136902.030318
 40
206342.369987
 40
206342.369987
 40
206342.369987
 40
206342.369987
 10
70424021.027927
 20
31080085.579571
 30
0.0
 10
70444620.936821
 20
31091466.745999
 30
0.0
 10
70485233.776063
 20
31113904.781280
 30
0.0
 10
70517702.576343
 20
31180941.274256
 30
0.0
 10
70510129.248112
 20
31226718.046074
 30
0.0
 10
70506287.855230
 20
31249937.238490
 30
0.0
 11
70424021.027927
 21
31080085.579571
 31
0.0
 11
70480914.254802
 21
31119899.164050
 31
0.0
 11
70510321.257372
 21
31180614.136709
 31
0.0
 11
70506287.855230
 21
31249937.238490
 31
0.0
  0
SPLINE
  5
25a
100
AcDbEntity
  8
0
 62
7
100
AcDbSpline
 70
0
 71
3
 72
10
 73
6
 74
4
 40
0.000000
 40
0.000000
 40
0.000000
 40
0.000000
 40
75451.307805
 40
148671.693991
 40
224123.001796
 40
224123.001796
 40
224123.001796
 40
224123.001796
 10
65691672.475998
 20
29819646.586995
 30
0.0
 10
65668955.345271
 20
29807857.967271
 30
0.0
 10
65624192.777119
 20
29784629.290191
 30
0.0
 10
65587899.228917
 20
29712029.308071
 30
0.0
 10
65596180.891994
 20
29662283.222767
 30
0.0
 10
65600383.859574
 20
29637036.942903
 30
0.0
 11
65691672.475998
 21
29819646.586995
 31
0.0
 11
65628849.284773
 21
29777859.669260
 31
0.0
 11
65596108.782380
 21
29712367.040237
 31
0.0
 11
65600383.859574
 21
29637036.942903
 31
0.0
  0
LINE
  5
25b
100
AcDbEntity
  8
0
 62
7
100
AcDbLine
 10
17607491.931250
 20
41254890.872917
 30
0.0
 11
17069859.127083
 21
40246828.372917
 31
0.0
  0
SPLINE
  5
25c
100
AcDbEntity
  8
0
 62
7
100
AcDbSpline
 70
0
 71
3
 72
10
 73
6
 74
4
 40
0.000000
 40
0.000000
 40
0.000000
 40
0.000000
 40
324515.421016
 40
643011.730667
 40
967527.151682
 40
967527.151682
 40
967527.151682
 40
967527.151682
 10
27956937.322946
 20
41068894.256066
 30
0.0
 10
27849414.420949
 20
41088083.796480
 30
0.0
 10
27636362.951523
 20
41126106.949750
 30
0.0
 10
27312821.520568
 20
41023908.914097
 30
0.0
 10
27160269.428039
 20
40870401.429346
 30
0.0
 10
27083279.376111
 20
40792929.209686
 30
0.0
 11
27956937.322946
 21
41068894.256066
 31
0.0
 11
27633866.372813
 21
41099478.887130
 31
0.0
 11
27330161.107193
 21
41003546.562567
 31
0.0
 11
27083279.376111
 21
40792929.209686
 31
0.0
  0
LINE
  5
25d
100
AcDbEntity
  8
0
 62
7
100
AcDbLine
 10
65691678.687500
 20
29819628.045833
 30
0.0
 11
70424014.600000
 21
31080103.045833
 31
0.0
  0
LINE
  5
25e
100
AcDbEntity
  8
0
 62
7
100
AcDbLine
 10
54982125.081250
 20
40179624.470833
 30
0.0
 11
54444491.747917
 21
41187686.970833
 31
0.0
  0
SPLINE
  5
25f
100
AcDbEntity
  8
0
 62
7
100
AcDbSpline
 70
0
 71
3
 72
13
 73
9
 74
7
 40
0.000000
 40
0.000000
 40
0.000000
 40
0.000000
 40
34031.171037
 40
67730.950504
 40
101762.121541
 40
135793.292579
 40
169493.072045
 40
203524.243083
 40
203524.243083
 40
203524.243083
 40
203524.243083
 10
58156566.640778
 20
18413947.462757
 30
0.0
 10
58167010.932664
 20
18418571.425545
 30
0.0
 10
58187797.811141
 20
18427774.323510
 30
0.0
 10
58212493.108949
 20
18452005.093471
 30
0.0
 10
58229812.677167
 20
18481637.977530
 30
0.0
 10
58237813.786020
 20
18515015.477706
 30
0.0
 10
58236752.042851
 20
18549596.695848
 30
0.0
 10
58228113.259465
 20
18570624.274629
 30
0.0
 10
58223772.734007
 20
18581189.505512
 30
0.0
 11
58156566.640778
 21
18413947.462757
 31
0.0
 11
58186801.309861
 21
18429567.494372
 31
0.0
 11
58211197.381541
 21
18452816.296979
 31
0.0
 11
58228254.542963
 21
18482264.112626
 31
0.0
 11
58236317.033170
 21
18515326.430359
 31
0.0
 11
58234791.831159
 21
18548991.677943
 31
0.0
 11
58223772.734007
 21
18581189.505512
 31
0.0
  0
LINE
  5
260
100
AcDbEntity
  8
0
 62
7
100
AcDbLine
 10
67616508.150000
 20
41523707.804167
 30
0.0
 11
63256061.575000
 21
40360159.204167
 31
0.0
  0
SPLINE
  5
261
100
AcDbEntity
  8
0
 62
7
100
AcDbSpline
 70
0
 71
3
 72
10
 73
6
 74
4
 40
0.000000
 40
0.000000
 40
0.000000
 40
0.000000
 40
50605.736551
 40
100363.942778
 40
150969.679329
 40
150969.679329
 40
150969.679329
 40
150969.679329
 10
11319916.503508
 20
42451607.321827
 30
0.0
 10
11303710.030748
 20
42456784.918417
 30
0.0
 10
11271568.506573
 20
42467053.398698
 30
0.0
 10
11219463.166375
 20
42459327.088808
 30
0.0
 10
11191684.422756
 20
42440173.481667
 30
0.0
 10
11177677.761176
 20
42430515.806111
 30
0.0
 11
11319916.503508
 21
42451607.321827
 31
0.0
 11
11270662.027907
 21
42463223.569289
 31
0.0
 11
11221441.997056
 21
42455925.100270
 31
0.0
 11
11177677.761176
 21
42430515.806111
 31
0.0
  0
LINE
  5
262
100
AcDbEntity
  8
0
 62
7
100
AcDbLine
 10
25542574.697917
 20
11108514.845833
 30
0.0
 11
25541817.460417
 21
7795683.333333
 31
0.0
  0
LINE
  5
263
100
AcDbEntity
  8
0
 62
7
100
AcDbLine
 10
66406833.679167
 20
27688116.931250
 30
0.0
 11
65600383.943750
 21
29637036.970833
 31
0.0
  0
LINE
  5
264
100
AcDbEntity
  8
0
 62
7
100
AcDbLine
 10
46581604.512500
 20
11155890.608333
 30
0.0
 11
49538586.787500
 21
12701586.970833
 31
0.0
  0
LINE
  5
265
100
AcDbEntity
  8
0
 62
7
100
AcDbLine
 10
13895414.752083
 20
18481145.304167
 30
0.0
 11
18279533.597917
 21
16263407.010417
 31
0.0
  0
SPLINE
  5
266
100
AcDbEntity
  8
0
 62
7
100
AcDbSpline
 70
0
 71
3
 72
13
 73
9
 74
7
 40
0.000000
 40
0.000000
 40
0.000000
 40
0.000000
 40
24458.569699
 40
48707.684828
 40
73166.254528
 40
97624.824227
 40
121873.939356
 40
146332.509055
 40
146332.509055
 40
146332.509055
 40
146332.509055
 10
66361340.981025
 20
27564604.551014
 30
0.0
 10
66368555.330697
 20
27568506.792043
 30
0.0
 10
66382922.248894
 20
27576277.856683
 30
0.0
 10
66399632.587689
 20
27594623.153070
 30
0.0
 10
66411237.144233
 20
27616360.759150
 30
0.0
 10
66416505.192067
 20
27640432.255214
 30
0.0
 10
66415686.875296
 20
27665233.780970
 30
0.0
 10
66409793.119777
 20
27680467.343586
 30
0.0
 10
66406833.569746
 20
27688116.878856
 30
0.0
 11
66361340.981025
 21
27564604.551014
 31
0.0
 11
66382166.383493
 21
27577431.251439
 31
0.0
 11
66398742.297481
 21
27595130.366107
 31
0.0
 11
66410178.036172
 21
27616750.854360
 31
0.0
 11
66415498.600368
 21
27640623.709832
 31
0.0
 11
66414363.446177
 21
27664846.240862
 31
0.0
 11
66406833.569746
 21
27688116.878856
 31
0.0
  0
LINE
  5
267
100
AcDbEntity
  8
0
 62
7
100
AcDbLine
 10
70506287.845833
 20
31249937.235417
 30
0.0
 11
67818120.914583
 21
41389299.206250
 31
0.0
  0
LINE
  5
268
100
AcDbEntity
  8
0
 62
7
100
AcDbLine
 10
7082927.847917
 20
34296330.156250
 30
0.0
 11
3504977.750000
 21
35255039.133333
 31
0.0
  0
LINE
  5
269
100
AcDbEntity
  8
0
 62
7
100
AcDbLine
 10
6124218.870833
 20
30718380.058333
 30
0.0
 11
7082927.847917
 21
34296330.156250
 31
0.0
  0
LINE
  5
26a
100
AcDbEntity
  8
0
 62
7
100
AcDbLine
 10
2546268.772917
 20
31677089.035417
 30
0.0
 11
6124218.870833
 21
30718380.058333
 31
0.0
  0
LINE
  5
26b
100
AcDbEntity
  8
0
 62
7
100
AcDbLine
 10
3504977.750000
 20
35255039.133333
 30
0.0
 11
2546268.772917
 21
31677089.035417
 31
0.0
  0
LINE
  5
26c
100
AcDbEntity
  8
0
 62
7
100
AcDbLine
 10
53722827.212500
 20
17219553.233333
 30
0.0
 11
57023263.789583
 21
18901209.710417
 31
0.0
  0
LINE
  5
26d
100
AcDbEntity
  8
0
 62
7
100
AcDbLine
 10
55341607.312500
 20
22201646.287500
 30
0.0
 11
52041170.735417
 21
20519989.810417
 31
0.0
  0
LINE
  5
26e
100
AcDbEntity
  8
0
 62
7
100
AcDbLine
 10
52041170.735417
 20
20519989.810417
 30
0.0
 11
53722827.212500
 21
17219553.233333
 31
0.0
  0
LINE
  5
26f
100
AcDbEntity
  8
0
 62
7
100
AcDbLine
 10
57023263.789583
 20
18901209.710417
 30
0.0
 11
55341607.312500
 21
22201646.287500
 31
0.0
  0
LINE
  5
270
100
AcDbEntity
  8
0
 62
7
100
AcDbLine
 10
66914972.056250
 20
40111056.112500
 30
0.0
 11
63337021.958333
 21
39152347.135417
 31
0.0
  0
LINE
  5
271
100
AcDbEntity
  8
0
 62
7
100
AcDbLine
 10
63337021.958333
 20
39152347.135417
 30
0.0
 11
64295730.935417
 21
35574397.037500
 31
0.0
  0
LINE
  5
272
100
AcDbEntity
  8
0
 62
7
100
AcDbLine
 10
64295730.935417
 20
35574397.037500
 30
0.0
 11
67873681.033333
 21
36533106.014583
 31
0.0
  0
LINE
  5
273
100
AcDbEntity
  8
0
 62
7
100
AcDbLine
 10
67873681.033333
 20
36533106.014583
 30
0.0
 11
66914972.056250
 21
40111056.112500
 31
0.0
  0
LINE
  5
274
100
AcDbEntity
  8
0
 62
7
100
AcDbLine
 10
48000277.327083
 20
17117951.116667
 30
0.0
 11
49681933.804167
 21
13817514.539583
 31
0.0
  0
LINE
  5
275
100
AcDbEntity
  8
0
 62
7
100
AcDbLine
 10
52982370.381250
 20
15499171.016667
 30
0.0
 11
51300713.904167
 21
18799607.593750
 31
0.0
  0
LINE
  5
276
100
AcDbEntity
  8
0
 62
7
100
AcDbLine
 10
51300713.904167
 20
18799607.593750
 30
0.0
 11
48000277.327083
 21
17117951.116667
 31
0.0
  0
LINE
  5
277
100
AcDbEntity
  8
0
 62
7
100
AcDbLine
 10
49681933.804167
 20
13817514.539583
 30
0.0
 11
52982370.381250
 21
15499171.016667
 31
0.0
  0
LINE
  5
278
100
AcDbEntity
  8
0
 62
7
100
AcDbLine
 10
50182349.787500
 20
26926513.277083
 30
0.0
 11
53482786.364583
 21
28608169.754167
 31
0.0
  0
LINE
  5
279
100
AcDbEntity
  8
0
 62
7
100
AcDbLine
 10
53482786.364583
 20
28608169.754167
 30
0.0
 11
51801129.887500
 21
31908606.331250
 31
0.0
  0
LINE
  5
27a
100
AcDbEntity
  8
0
 62
7
100
AcDbLine
 10
48500693.310417
 20
30226949.854167
 30
0.0
 11
50182349.787500
 21
26926513.277083
 31
0.0
  0
LINE
  5
27b
100
AcDbEntity
  8
0
 62
7
100
AcDbLine
 10
51801129.887500
 20
31908606.331250
 30
0.0
 11
48500693.310417
 21
30226949.854167
 31
0.0
  0
LINE
  5
27c
100
AcDbEntity
  8
0
 62
7
100
AcDbLine
 10
21499842.435417
 20
38037425.247917
 30
0.0
 11
18199405.858333
 21
39719081.725000
 31
0.0
  0
LINE
  5
27d
100
AcDbEntity
  8
0
 62
7
100
AcDbLine
 10
18199405.858333
 20
39719081.725000
 30
0.0
 11
16517749.381250
 21
36418645.147917
 31
0.0
  0
LINE
  5
27e
100
AcDbEntity
  8
0
 62
7
100
AcDbLine
 10
16517749.381250
 20
36418645.147917
 30
0.0
 11
19818185.958333
 21
34736988.670833
 31
0.0
  0
LINE
  5
27f
100
AcDbEntity
  8
0
 62
7
100
AcDbLine
 10
19818185.958333
 20
34736988.670833
 30
0.0
 11
21499842.435417
 21
38037425.247917
 31
0.0
  0
LINE
  5
280
100
AcDbEntity
  8
0
 62
7
100
AcDbLine
 10
20578605.602083
 20
33067797.243750
 30
0.0
 11
23879042.179167
 21
31386140.766667
 31
0.0
  0
LINE
  5
281
100
AcDbEntity
  8
0
 62
7
100
AcDbLine
 10
23879042.179167
 20
31386140.766667
 30
0.0
 11
25560698.656250
 21
34686577.343750
 31
0.0
  0
LINE
  5
282
100
AcDbEntity
  8
0
 62
7
100
AcDbLine
 10
22260262.079167
 20
36368233.820833
 30
0.0
 11
20578605.602083
 21
33067797.243750
 31
0.0
  0
LINE
  5
283
100
AcDbEntity
  8
0
 62
7
100
AcDbLine
 10
25560698.656250
 20
34686577.343750
 30
0.0
 11
22260262.079167
 21
36368233.820833
 31
0.0
  0
LINE
  5
284
100
AcDbEntity
  8
0
 62
7
100
AcDbLine
 10
36722470.158333
 20
7879474.493750
 30
0.0
 11
40426636.825000
 21
7879474.493750
 31
0.0
  0
LINE
  5
285
100
AcDbEntity
  8
0
 62
7
100
AcDbLine
 10
40426636.825000
 20
11583641.160417
 30
0.0
 11
36722470.158333
 21
11583641.160417
 31
0.0
  0
LINE
  5
286
100
AcDbEntity
  8
0
 62
7
100
AcDbLine
 10
36722470.158333
 20
11583641.160417
 30
0.0
 11
36722470.158333
 21
7879474.493750
 31
0.0
  0
LINE
  5
287
100
AcDbEntity
  8
0
 62
7
100
AcDbLine
 10
40426636.825000
 20
7879474.493750
 30
0.0
 11
40426636.825000
 21
11583641.160417
 31
0.0
  0
LINE
  5
288
100
AcDbEntity
  8
0
 62
7
100
AcDbLine
 10
41829987.354167
 20
8349903.395833
 30
0.0
 11
45534154.020833
 21
8349903.395833
 31
0.0
  0
LINE
  5
289
100
AcDbEntity
  8
0
 62
7
100
AcDbLine
 10
45534154.020833
 20
12054070.062500
 30
0.0
 11
41829987.354167
 21
12054070.062500
 31
0.0
  0
LINE
  5
28a
100
AcDbEntity
  8
0
 62
7
100
AcDbLine
 10
41829987.354167
 20
12054070.062500
 30
0.0
 11
41829987.354167
 21
8349903.395833
 31
0.0
  0
LINE
  5
28b
100
AcDbEntity
  8
0
 62
7
100
AcDbLine
 10
45534154.020833
 20
8349903.395833
 30
0.0
 11
45534154.020833
 21
12054070.062500
 31
0.0
  0
LINE
  5
28c
100
AcDbEntity
  8
0
 62
7
100
AcDbLine
 10
58416559.622917
 20
34758774.462500
 30
0.0
 11
59804164.797917
 21
31324330.925000
 31
0.0
  0
LINE
  5
28d
100
AcDbEntity
  8
0
 62
7
100
AcDbLine
 10
59804164.797917
 20
31324330.925000
 30
0.0
 11
63238608.335417
 21
32711936.100000
 31
0.0
  0
LINE
  5
28e
100
AcDbEntity
  8
0
 62
7
100
AcDbLine
 10
61851003.160417
 20
36146379.637500
 30
0.0
 11
58416559.622917
 21
34758774.462500
 31
0.0
  0
LINE
  5
28f
100
AcDbEntity
  8
0
 62
7
100
AcDbLine
 10
63238608.335417
 20
32711936.100000
 30
0.0
 11
61851003.160417
 21
36146379.637500
 31
0.0
  0
LINE
  5
290
100
AcDbEntity
  8
0
 62
7
100
AcDbLine
 10
18796774.170833
 20
15479633.654167
 30
0.0
 11
22097210.747917
 21
13797977.177083
 31
0.0
  0
LINE
  5
291
100
AcDbEntity
  8
0
 62
7
100
AcDbLine
 10
20478430.647917
 20
18780070.231250
 30
0.0
 11
18796774.170833
 21
15479633.654167
 31
0.0
  0
LINE
  5
292
100
AcDbEntity
  8
0
 62
7
100
AcDbLine
 10
22097210.747917
 20
13797977.177083
 30
0.0
 11
23778867.225000
 21
17098413.754167
 31
0.0
  0
LINE
  5
293
100
AcDbEntity
  8
0
 62
7
100
AcDbLine
 10
23778867.225000
 20
17098413.754167
 30
0.0
 11
20478430.647917
 21
18780070.231250
 31
0.0
  0
LINE
  5
294
100
AcDbEntity
  8
0
 62
7
100
AcDbLine
 10
53523921.664583
 20
39717692.133333
 30
0.0
 11
50223485.087500
 21
38036035.656250
 31
0.0
  0
LINE
  5
295
100
AcDbEntity
  8
0
 62
7
100
AcDbLine
 10
50223485.087500
 20
38036035.656250
 30
0.0
 11
51905141.564583
 21
34735599.079167
 31
0.0
  0
LINE
  5
296
100
AcDbEntity
  8
0
 62
7
100
AcDbLine
 10
51905141.564583
 20
34735599.079167
 30
0.0
 11
55205578.141667
 21
36417255.556250
 31
0.0
  0
LINE
  5
297
100
AcDbEntity
  8
0
 62
7
100
AcDbLine
 10
55205578.141667
 20
36417255.556250
 30
0.0
 11
53523921.664583
 21
39717692.133333
 31
0.0
  0
LINE
  5
298
100
AcDbEntity
  8
0
 62
7
100
AcDbLine
 10
17535938.808333
 20
30257824.612500
 30
0.0
 11
19217595.285417
 21
33558261.189583
 31
0.0
  0
LINE
  5
299
100
AcDbEntity
  8
0
 62
7
100
AcDbLine
 10
19217595.285417
 20
33558261.189583
 30
0.0
 11
15917158.708333
 21
35239917.666667
 31
0.0
  0
LINE
  5
29a
100
AcDbEntity
  8
0
 62
7
100
AcDbLine
 10
15917158.708333
 20
35239917.666667
 30
0.0
 11
14235502.231250
 21
31939481.089583
 31
0.0
  0
LINE
  5
29b
100
AcDbEntity
  8
0
 62
7
100
AcDbLine
 10
14235502.231250
 20
31939481.089583
 30
0.0
 11
17535938.808333
 21
30257824.612500
 31
0.0
  0
LINE
  5
29c
100
AcDbEntity
  8
0
 62
7
100
AcDbLine
 10
16014109.450000
 20
24109468.597917
 30
0.0
 11
19314546.027083
 21
22427812.120833
 31
0.0
  0
LINE
  5
29d
100
AcDbEntity
  8
0
 62
7
100
AcDbLine
 10
19314546.027083
 20
22427812.120833
 30
0.0
 11
20996202.504167
 21
25728248.697917
 31
0.0
  0
LINE
  5
29e
100
AcDbEntity
  8
0
 62
7
100
AcDbLine
 10
17695765.927083
 20
27409905.175000
 30
0.0
 11
16014109.450000
 21
24109468.597917
 31
0.0
  0
LINE
  5
29f
100
AcDbEntity
  8
0
 62
7
100
AcDbLine
 10
20996202.504167
 20
25728248.697917
 30
0.0
 11
17695765.927083
 21
27409905.175000
 31
0.0
  0
LINE
  5
2a0
100
AcDbEntity
  8
0
 62
7
100
AcDbLine
 10
69177077.800000
 20
31675343.314583
 30
0.0
 11
68218368.822917
 21
35253293.412500
 31
0.0
  0
LINE
  5
2a1
100
AcDbEntity
  8
0
 62
7
100
AcDbLine
 10
65599127.702083
 20
30716634.337500
 30
0.0
 11
69177077.800000
 21
31675343.314583
 31
0.0
  0
LINE
  5
2a2
100
AcDbEntity
  8
0
 62
7
100
AcDbLine
 10
68218368.822917
 20
35253293.412500
 30
0.0
 11
64640418.725000
 21
34294584.435417
 31
0.0
  0
LINE
  5
2a3
100
AcDbEntity
  8
0
 62
7
100
AcDbLine
 10
64640418.725000
 20
34294584.435417
 30
0.0
 11
65599127.702083
 21
30716634.337500
 31
0.0
  0
LINE
  5
2a4
100
AcDbEntity
  8
0
 62
7
100
AcDbLine
 10
54787980.710417
 20
29077707.804167
 30
0.0
 11
56469637.187500
 21
25777271.227083
 31
0.0
  0
LINE
  5
2a5
100
AcDbEntity
  8
0
 62
7
100
AcDbLine
 10
58088417.287500
 20
30759364.281250
 30
0.0
 11
54787980.710417
 21
29077707.804167
 31
0.0
  0
LINE
  5
2a6
100
AcDbEntity
  8
0
 62
7
100
AcDbLine
 10
59770073.764583
 20
27458927.704167
 30
0.0
 11
58088417.287500
 21
30759364.281250
 31
0.0
  0
LINE
  5
2a7
100
AcDbEntity
  8
0
 62
7
100
AcDbLine
 10
56469637.187500
 20
25777271.227083
 30
0.0
 11
59770073.764583
 21
27458927.704167
 31
0.0
  0
LINE
  5
2a8
100
AcDbEntity
  8
0
 62
7
100
AcDbLine
 10
11423635.447917
 20
30099234.685417
 30
0.0
 11
7989191.910417
 21
31486839.860417
 31
0.0
  0
LINE
  5
2a9
100
AcDbEntity
  8
0
 62
7
100
AcDbLine
 10
10036030.272917
 20
26664791.147917
 30
0.0
 11
11423635.447917
 21
30099234.685417
 31
0.0
  0
LINE
  5
2aa
100
AcDbEntity
  8
0
 62
7
100
AcDbLine
 10
7989191.910417
 20
31486839.860417
 30
0.0
 11
6601586.735417
 21
28052396.322917
 31
0.0
  0
LINE
  5
2ab
100
AcDbEntity
  8
0
 62
7
100
AcDbLine
 10
6601586.735417
 20
28052396.322917
 30
0.0
 11
10036030.272917
 21
26664791.147917
 31
0.0
  0
LINE
  5
2ac
100
AcDbEntity
  8
0
 62
7
100
AcDbLine
 10
30212242.195833
 20
8440390.631250
 30
0.0
 11
30212242.195833
 21
12144557.297917
 31
0.0
  0
LINE
  5
2ad
100
AcDbEntity
  8
0
 62
7
100
AcDbLine
 10
26508075.529167
 20
12144557.297917
 30
0.0
 11
26508075.529167
 21
8440390.631250
 31
0.0
  0
LINE
  5
2ae
100
AcDbEntity
  8
0
 62
7
100
AcDbLine
 10
26508075.529167
 20
8440390.631250
 30
0.0
 11
30212242.195833
 21
8440390.631250
 31
0.0
  0
LINE
  5
2af
100
AcDbEntity
  8
0
 62
7
100
AcDbLine
 10
30212242.195833
 20
12144557.297917
 30
0.0
 11
26508075.529167
 21
12144557.297917
 31
0.0
  0
LINE
  5
2b0
100
AcDbEntity
  8
0
 62
7
100
AcDbLine
 10
10367943.450000
 20
37374457.202083
 30
0.0
 11
13802386.987500
 21
35986852.027083
 31
0.0
  0
LINE
  5
2b1
100
AcDbEntity
  8
0
 62
7
100
AcDbLine
 10
13802386.987500
 20
35986852.027083
 30
0.0
 11
15189992.162500
 21
39421295.564583
 31
0.0
  0
LINE
  5
2b2
100
AcDbEntity
  8
0
 62
7
100
AcDbLine
 10
15189992.162500
 20
39421295.564583
 30
0.0
 11
11755548.625000
 21
40808900.739583
 31
0.0
  0
LINE
  5
2b3
100
AcDbEntity
  8
0
 62
7
100
AcDbLine
 10
11755548.625000
 20
40808900.739583
 30
0.0
 11
10367943.450000
 21
37374457.202083
 31
0.0
  0
LINE
  5
2b4
100
AcDbEntity
  8
0
 62
7
100
AcDbLine
 10
18056316.810417
 20
17200016.929167
 30
0.0
 11
19737973.287500
 21
20500453.506250
 31
0.0
  0
LINE
  5
2b5
100
AcDbEntity
  8
0
 62
7
100
AcDbLine
 10
14755880.233333
 20
18881673.406250
 30
0.0
 11
18056316.810417
 21
17200016.929167
 31
0.0
  0
LINE
  5
2b6
100
AcDbEntity
  8
0
 62
7
100
AcDbLine
 10
16437536.710417
 20
22182109.983333
 30
0.0
 11
14755880.233333
 21
18881673.406250
 31
0.0
  0
LINE
  5
2b7
100
AcDbEntity
  8
0
 62
7
100
AcDbLine
 10
19737973.287500
 20
20500453.506250
 30
0.0
 11
16437536.710417
 21
22182109.983333
 31
0.0
  0
LINE
  5
2b8
100
AcDbEntity
  8
0
 62
7
100
AcDbLine
 10
48268519.054167
 20
27644133.656250
 30
0.0
 11
44968082.477083
 21
25962477.179167
 31
0.0
  0
LINE
  5
2b9
100
AcDbEntity
  8
0
 62
7
100
AcDbLine
 10
44968082.477083
 20
25962477.179167
 30
0.0
 11
46649738.954167
 21
22662040.602083
 31
0.0
  0
LINE
  5
2ba
100
AcDbEntity
  8
0
 62
7
100
AcDbLine
 10
49950175.531250
 20
24343697.079167
 30
0.0
 11
48268519.054167
 21
27644133.656250
 31
0.0
  0
LINE
  5
2bb
100
AcDbEntity
  8
0
 62
7
100
AcDbLine
 10
46649738.954167
 20
22662040.602083
 30
0.0
 11
49950175.531250
 21
24343697.079167
 31
0.0
  0
LINE
  5
2bc
100
AcDbEntity
  8
0
 62
7
100
AcDbLine
 10
8382045.508333
 20
39156829.441667
 30
0.0
 11
4804095.410417
 21
40115538.418750
 31
0.0
  0
LINE
  5
2bd
100
AcDbEntity
  8
0
 62
7
100
AcDbLine
 10
7423336.531250
 20
35578879.343750
 30
0.0
 11
8382045.508333
 21
39156829.441667
 31
0.0
  0
LINE
  5
2be
100
AcDbEntity
  8
0
 62
7
100
AcDbLine
 10
4804095.410417
 20
40115538.418750
 30
0.0
 11
3845386.433333
 21
36537588.320833
 31
0.0
  0
LINE
  5
2bf
100
AcDbEntity
  8
0
 62
7
100
AcDbLine
 10
3845386.433333
 20
36537588.320833
 30
0.0
 11
7423336.531250
 21
35578879.343750
 31
0.0
  0
LINE
  5
2c0
100
AcDbEntity
  8
0
 62
7
100
AcDbLine
 10
11953253.493750
 20
27460316.766667
 30
0.0
 11
15253690.070833
 21
25778660.289583
 31
0.0
  0
LINE
  5
2c1
100
AcDbEntity
  8
0
 62
7
100
AcDbLine
 10
15253690.070833
 20
25778660.289583
 30
0.0
 11
16935346.547917
 21
29079096.866667
 31
0.0
  0
LINE
  5
2c2
100
AcDbEntity
  8
0
 62
7
100
AcDbLine
 10
16935346.547917
 20
29079096.866667
 30
0.0
 11
13634909.970833
 21
30760753.343750
 31
0.0
  0
LINE
  5
2c3
100
AcDbEntity
  8
0
 62
7
100
AcDbLine
 10
13634909.970833
 20
30760753.343750
 30
0.0
 11
11953253.493750
 21
27460316.766667
 31
0.0
  0
LINE
  5
2c4
100
AcDbEntity
  8
0
 62
7
100
AcDbLine
 10
59967824.935417
 20
40807409.547917
 30
0.0
 11
56533381.397917
 21
39419804.372917
 31
0.0
  0
LINE
  5
2c5
100
AcDbEntity
  8
0
 62
7
100
AcDbLine
 10
57920986.572917
 20
35985360.835417
 30
0.0
 11
61355430.110417
 21
37372966.010417
 31
0.0
  0
LINE
  5
2c6
100
AcDbEntity
  8
0
 62
7
100
AcDbLine
 10
61355430.110417
 20
37372966.010417
 30
0.0
 11
59967824.935417
 21
40807409.547917
 31
0.0
  0
LINE
  5
2c7
100
AcDbEntity
  8
0
 62
7
100
AcDbLine
 10
56533381.397917
 20
39419804.372917
 30
0.0
 11
57920986.572917
 21
35985360.835417
 31
0.0
  0
LINE
  5
2c8
100
AcDbEntity
  8
0
 62
7
100
AcDbLine
 10
21596793.441667
 20
26906976.443750
 30
0.0
 11
23278449.918750
 21
30207413.020833
 31
0.0
  0
LINE
  5
2c9
100
AcDbEntity
  8
0
 62
7
100
AcDbLine
 10
19978013.341667
 20
31889069.497917
 30
0.0
 11
18296356.864583
 21
28588632.920833
 31
0.0
  0
LINE
  5
2ca
100
AcDbEntity
  8
0
 62
7
100
AcDbLine
 10
23278449.918750
 20
30207413.020833
 30
0.0
 11
19978013.341667
 21
31889069.497917
 31
0.0
  0
LINE
  5
2cb
100
AcDbEntity
  8
0
 62
7
100
AcDbLine
 10
18296356.864583
 20
28588632.920833
 30
0.0
 11
21596793.441667
 21
26906976.443750
 31
0.0
  0
LINE
  5
2cc
100
AcDbEntity
  8
0
 62
7
100
AcDbLine
 10
27411653.012500
 20
27121667.562500
 30
0.0
 11
29093309.489583
 21
30422104.139583
 31
0.0
  0
LINE
  5
2cd
100
AcDbEntity
  8
0
 62
7
100
AcDbLine
 10
29093309.489583
 20
30422104.139583
 30
0.0
 11
25792872.912500
 21
32103760.616667
 31
0.0
  0
LINE
  5
2ce
100
AcDbEntity
  8
0
 62
7
100
AcDbLine
 10
24111216.435417
 20
28803324.039583
 30
0.0
 11
27411653.012500
 21
27121667.562500
 31
0.0
  0
LINE
  5
2cf
100
AcDbEntity
  8
0
 62
7
100
AcDbLine
 10
25792872.912500
 20
32103760.616667
 30
0.0
 11
24111216.435417
 21
28803324.039583
 31
0.0
  0
LINE
  5
2d0
100
AcDbEntity
  8
0
 62
7
100
AcDbLine
 10
42685834.797917
 20
30441641.502083
 30
0.0
 11
44367491.275000
 21
27141204.925000
 31
0.0
  0
LINE
  5
2d1
100
AcDbEntity
  8
0
 62
7
100
AcDbLine
 10
47667927.852083
 20
28822861.402083
 30
0.0
 11
45986271.375000
 21
32123297.979167
 31
0.0
  0
LINE
  5
2d2
100
AcDbEntity
  8
0
 62
7
100
AcDbLine
 10
44367491.275000
 20
27141204.925000
 30
0.0
 11
47667927.852083
 21
28822861.402083
 31
0.0
  0
LINE
  5
2d3
100
AcDbEntity
  8
0
 62
7
100
AcDbLine
 10
45986271.375000
 20
32123297.979167
 30
0.0
 11
42685834.797917
 21
30441641.502083
 31
0.0
  0
LINE
  5
2d4
100
AcDbEntity
  8
0
 62
7
100
AcDbLine
 10
46218446.425000
 20
34706114.177083
 30
0.0
 11
47900102.902083
 21
31405677.600000
 31
0.0
  0
LINE
  5
2d5
100
AcDbEntity
  8
0
 62
7
100
AcDbLine
 10
49518883.002083
 20
36387770.654167
 30
0.0
 11
46218446.425000
 21
34706114.177083
 31
0.0
  0
LINE
  5
2d6
100
AcDbEntity
  8
0
 62
7
100
AcDbLine
 10
51200539.479167
 20
33087334.077083
 30
0.0
 11
49518883.002083
 21
36387770.654167
 31
0.0
  0
LINE
  5
2d7
100
AcDbEntity
  8
0
 62
7
100
AcDbLine
 10
47900102.902083
 20
31405677.600000
 30
0.0
 11
51200539.479167
 21
33087334.077083
 31
0.0
  0
LINE
  5
2d8
100
AcDbEntity
  8
0
 62
7
100
AcDbLine
 10
35313408.333333
 20
7880349.470833
 30
0.0
 11
35313408.333333
 21
11584516.137500
 31
0.0
  0
LINE
  5
2d9
100
AcDbEntity
  8
0
 62
7
100
AcDbLine
 10
31609241.666667
 20
11584516.137500
 30
0.0
 11
31609241.666667
 21
7880349.470833
 31
0.0
  0
LINE
  5
2da
100
AcDbEntity
  8
0
 62
7
100
AcDbLine
 10
35313408.333333
 20
11584516.137500
 30
0.0
 11
31609241.666667
 21
11584516.137500
 31
0.0
  0
LINE
  5
2db
100
AcDbEntity
  8
0
 62
7
100
AcDbLine
 10
31609241.666667
 20
7880349.470833
 30
0.0
 11
35313408.333333
 21
7880349.470833
 31
0.0
  0
LINE
  5
2dc
100
AcDbEntity
  8
0
 62
7
100
AcDbLine
 10
54187389.772917
 20
30256434.491667
 30
0.0
 11
57487826.350000
 21
31938090.968750
 31
0.0
  0
LINE
  5
2dd
100
AcDbEntity
  8
0
 62
7
100
AcDbLine
 10
57487826.350000
 20
31938090.968750
 30
0.0
 11
55806169.872917
 21
35238527.545833
 31
0.0
  0
LINE
  5
2de
100
AcDbEntity
  8
0
 62
7
100
AcDbLine
 10
52505733.295833
 20
33556871.068750
 30
0.0
 11
54187389.772917
 21
30256434.491667
 31
0.0
  0
LINE
  5
2df
100
AcDbEntity
  8
0
 62
7
100
AcDbLine
 10
55806169.872917
 20
35238527.545833
 30
0.0
 11
52505733.295833
 21
33556871.068750
 31
0.0
  0
LINE
  5
2e0
100
AcDbEntity
  8
0
 62
7
100
AcDbLine
 10
63734181.650000
 20
31485348.668750
 30
0.0
 11
60299738.112500
 21
30097743.493750
 31
0.0
  0
LINE
  5
2e1
100
AcDbEntity
  8
0
 62
7
100
AcDbLine
 10
65121786.825000
 20
28050905.131250
 30
0.0
 11
63734181.650000
 21
31485348.668750
 31
0.0
  0
LINE
  5
2e2
100
AcDbEntity
  8
0
 62
7
100
AcDbLine
 10
61687343.287500
 20
26663299.956250
 30
0.0
 11
65121786.825000
 21
28050905.131250
 31
0.0
  0
LINE
  5
2e3
100
AcDbEntity
  8
0
 62
7
100
AcDbLine
 10
60299738.112500
 20
30097743.493750
 30
0.0
 11
61687343.287500
 21
26663299.956250
 31
0.0
  0
LINE
  5
2e4
100
AcDbEntity
  8
0
 62
7
100
AcDbLine
 10
9872446.864583
 20
36147762.350000
 30
0.0
 11
8484841.689583
 21
32713318.812500
 31
0.0
  0
LINE
  5
2e5
100
AcDbEntity
  8
0
 62
7
100
AcDbLine
 10
11919285.227083
 20
31325713.637500
 30
0.0
 11
13306890.402083
 21
34760157.175000
 31
0.0
  0
LINE
  5
2e6
100
AcDbEntity
  8
0
 62
7
100
AcDbLine
 10
8484841.689583
 20
32713318.812500
 30
0.0
 11
11919285.227083
 21
31325713.637500
 31
0.0
  0
LINE
  5
2e7
100
AcDbEntity
  8
0
 62
7
100
AcDbLine
 10
13306890.402083
 20
34760157.175000
 30
0.0
 11
9872446.864583
 21
36147762.350000
 31
0.0
  0
LINE
  5
2e8
100
AcDbEntity
  8
0
 62
7
100
AcDbLine
 10
50782941.518750
 20
25747785.266667
 30
0.0
 11
52464597.995833
 21
22447348.689583
 31
0.0
  0
LINE
  5
2e9
100
AcDbEntity
  8
0
 62
7
100
AcDbLine
 10
54083378.095833
 20
27429441.743750
 30
0.0
 11
50782941.518750
 21
25747785.266667
 31
0.0
  0
LINE
  5
2ea
100
AcDbEntity
  8
0
 62
7
100
AcDbLine
 10
52464597.995833
 20
22447348.689583
 30
0.0
 11
55765034.572917
 21
24129005.166667
 31
0.0
  0
LINE
  5
2eb
100
AcDbEntity
  8
0
 62
7
100
AcDbLine
 10
55765034.572917
 20
24129005.166667
 30
0.0
 11
54083378.095833
 21
27429441.743750
 31
0.0
  0
LINE
  5
2ec
100
AcDbEntity
  8
0
 62
7
100
AcDbLine
 10
23510624.439583
 20
27624597.087500
 30
0.0
 11
21828967.962500
 21
24324160.510417
 31
0.0
  0
LINE
  5
2ed
100
AcDbEntity
  8
0
 62
7
100
AcDbLine
 10
26811061.016667
 20
25942940.610417
 30
0.0
 11
23510624.439583
 21
27624597.087500
 31
0.0
  0
LINE
  5
2ee
100
AcDbEntity
  8
0
 62
7
100
AcDbLine
 10
25129404.539583
 20
22642504.033333
 30
0.0
 11
26811061.016667
 21
25942940.610417
 31
0.0
  0
LINE
  5
2ef
100
AcDbEntity
  8
0
 62
7
100
AcDbLine
 10
21828967.962500
 20
24324160.510417
 30
0.0
 11
25129404.539583
 21
22642504.033333
 31
0.0
  0
SPLINE
  5
2f0
100
AcDbEntity
  8
0
 62
7
100
AcDbSpline
 70
0
 71
3
 72
10
 73
6
 74
4
 40
0.000000
 40
0.000000
 40
0.000000
 40
0.000000
 40
96480.366463
 40
191642.112956
 40
288122.479419
 40
288122.479419
 40
288122.479419
 40
288122.479419
 10
24731135.512661
 20
37760280.528930
 30
0.0
 10
24763077.697360
 20
37754986.913917
 30
0.0
 10
24826525.505371
 20
37744472.032979
 30
0.0
 10
24923219.374762
 20
37768643.522670
 30
0.0
 10
24974256.062171
 20
37807777.185938
 30
0.0
 10
24999949.988356
 20
37827478.649853
 30
0.0
 11
24731135.512661
 21
37760280.528930
 31
0.0
 11
24827181.876184
 21
37751139.567995
 31
0.0
 11
24919502.775115
 21
37774217.904510
 31
0.0
 11
24999949.988356
 21
37827478.649853
 31
0.0
  0
ENDSEC
  0
SECTION
  2
OBJECTS
  0
DICTIONARY
  5
C
330
0
100
AcDbDictionary
  3
ACAD_GROUP
350
D
  3
ACAD_MLINESTYLE
350
17
  0
DICTIONARY
  5
D
330
C
100
AcDbDictionary
  0
DICTIONARY
  5
1A
330
C
100
AcDbDictionary
  0
DICTIONARY
  5
17
330
C
100
AcDbDictionary
  3
STANDARD
350
18
  0
DICTIONARY
  5
19
330
C
100
AcDbDictionary
  0
ENDSEC
  0
EOF
