%FSLAX45Y45*%
G04 Gerber Fmt 4.5, Leading zero omitted, Abs format (unit mm)*
G04 Created by KiCad (PCBNEW (6.0.4)) date 2022-05-15 18:09:08*
%MOMM*%
%LPD*%
G01*
G04 APERTURE LIST*
%TA.AperFunction,Profile*%
%ADD10C,0.150000*%
%TD*%
%ADD11C,0.200000*%
%ADD12C,0.040000*%
%ADD13C,0.109220*%
%ADD14C,0.127000*%
%ADD15C,0.130000*%
%ADD16C,0.220000*%
G04 APERTURE END LIST*
D10*
X6193308Y11268038D02*
X8077793Y11600323D01*
X12617390Y11393371D02*
G75*
G03*
X12363394Y11672771I-271530J8309D01*
G01*
X4064822Y9026729D02*
G75*
G03*
X4000538Y8804935I127368J-157129D01*
G01*
X4064821Y9026731D02*
X6108103Y9966950D01*
X10469953Y11689307D02*
X12363394Y11672771D01*
X12741926Y3736877D02*
G75*
G03*
X12025482Y3971349I-1191097J-2427667D01*
G01*
X10270710Y11871876D02*
G75*
G03*
X10469953Y11689307I199250J17444D01*
G01*
X16260102Y10651714D02*
X12830714Y10656418D01*
X12627823Y10859110D02*
G75*
G03*
X12830714Y10656418I208327J5640D01*
G01*
X8402406Y12279469D02*
X10016242Y12420661D01*
X13997410Y3228984D02*
G75*
G03*
X14415051Y3256148I177330J497746D01*
G01*
X12025482Y3971349D02*
X5232567Y5391664D01*
X4000538Y8804935D02*
X5064080Y5574684D01*
X5064080Y5574684D02*
G75*
G03*
X5232567Y5391664I284371J92726D01*
G01*
X13997409Y3228982D02*
X12741926Y3736876D01*
X16254981Y4462540D02*
G75*
G03*
X16496248Y4877642I-207697J398385D01*
G01*
X8242303Y11814716D02*
X8220598Y12062799D01*
X6108103Y9966950D02*
G75*
G03*
X6182043Y10176232I-151733J171310D01*
G01*
X16496248Y4877642D02*
X16498230Y10381255D01*
X10232913Y12238854D02*
G75*
G03*
X10016242Y12420661I-199233J-17424D01*
G01*
X14415051Y3256148D02*
X16254981Y4462540D01*
X6031076Y11036347D02*
X6182043Y10176232D01*
X8077794Y11600323D02*
G75*
G03*
X8242303Y11814716I-34724J196957D01*
G01*
X12627819Y10859110D02*
X12617394Y11393371D01*
X16498224Y10381255D02*
G75*
G03*
X16260102Y10651714I-253545J16825D01*
G01*
X10232912Y12238854D02*
X10270714Y11871876D01*
X6193307Y11268044D02*
G75*
G03*
X6031076Y11036347I34733J-196964D01*
G01*
X8402407Y12279462D02*
G75*
G03*
X8220598Y12062799I17423J-199232D01*
G01*
D11*
D12*
X15220000Y10141314D02*
X15260000Y10101314D01*
X15260000Y10141314D02*
X15220000Y10101314D01*
X15220000Y6624000D02*
X15260000Y6584000D01*
X15260000Y6624000D02*
X15220000Y6584000D01*
X15410459Y9885043D02*
X15450459Y9845043D01*
X15450459Y9885043D02*
X15410459Y9845043D01*
X15618978Y9630635D02*
X15658978Y9590635D01*
X15658978Y9630635D02*
X15618978Y9590635D01*
X15846125Y5604462D02*
X15886125Y5564462D01*
X15886125Y5604462D02*
X15846125Y5564462D01*
D13*
X14728331Y10122629D02*
G75*
G03*
X14728331Y10122629I-54610J0D01*
G01*
X14728331Y9860254D02*
G75*
G03*
X14728331Y9860254I-54610J0D01*
G01*
X14728331Y9606254D02*
G75*
G03*
X14728331Y9606254I-54610J0D01*
G01*
X14728331Y9352254D02*
G75*
G03*
X14728331Y9352254I-54610J0D01*
G01*
X14728331Y9098254D02*
G75*
G03*
X14728331Y9098254I-54610J0D01*
G01*
X14728331Y8844254D02*
G75*
G03*
X14728331Y8844254I-54610J0D01*
G01*
X14728331Y8590254D02*
G75*
G03*
X14728331Y8590254I-54610J0D01*
G01*
X14728331Y8336254D02*
G75*
G03*
X14728331Y8336254I-54610J0D01*
G01*
X14728331Y8082254D02*
G75*
G03*
X14728331Y8082254I-54610J0D01*
G01*
X14728331Y7828254D02*
G75*
G03*
X14728331Y7828254I-54610J0D01*
G01*
X14728331Y7574254D02*
G75*
G03*
X14728331Y7574254I-54610J0D01*
G01*
X14728331Y7320254D02*
G75*
G03*
X14728331Y7320254I-54610J0D01*
G01*
X14809150Y5816368D02*
G75*
G03*
X14809150Y5816368I-54610J0D01*
G01*
X15009150Y5816368D02*
G75*
G03*
X15009150Y5816368I-54610J0D01*
G01*
X15209150Y5816368D02*
G75*
G03*
X15209150Y5816368I-54610J0D01*
G01*
X16252331Y10114254D02*
G75*
G03*
X16252331Y10114254I-54610J0D01*
G01*
X16252331Y9860254D02*
G75*
G03*
X16252331Y9860254I-54610J0D01*
G01*
X16252331Y9606254D02*
G75*
G03*
X16252331Y9606254I-54610J0D01*
G01*
X16252331Y9352254D02*
G75*
G03*
X16252331Y9352254I-54610J0D01*
G01*
X16252331Y9098254D02*
G75*
G03*
X16252331Y9098254I-54610J0D01*
G01*
X16252331Y8844254D02*
G75*
G03*
X16252331Y8844254I-54610J0D01*
G01*
X16252331Y8590254D02*
G75*
G03*
X16252331Y8590254I-54610J0D01*
G01*
X16252331Y8336254D02*
G75*
G03*
X16252331Y8336254I-54610J0D01*
G01*
X16252331Y8082254D02*
G75*
G03*
X16252331Y8082254I-54610J0D01*
G01*
X16252331Y7828254D02*
G75*
G03*
X16252331Y7828254I-54610J0D01*
G01*
X16252331Y7574254D02*
G75*
G03*
X16252331Y7574254I-54610J0D01*
G01*
X16252331Y7320254D02*
G75*
G03*
X16252331Y7320254I-54610J0D01*
G01*
D14*
X4917175Y7826915D02*
X4917175Y7699915D01*
X4853675Y7763415D02*
X4980675Y7763415D01*
X5414207Y6201196D02*
X5414207Y6074196D01*
X5350707Y6137696D02*
X5477707Y6137696D01*
X5456725Y7772276D02*
X5456725Y7645276D01*
X5393225Y7708776D02*
X5520225Y7708776D01*
X5456725Y7772276D02*
X5456725Y7645276D01*
X5393225Y7708776D02*
X5520225Y7708776D01*
X5873479Y8119286D02*
X5873479Y7992286D01*
X5809979Y8055786D02*
X5936979Y8055786D01*
X5953757Y6146558D02*
X5953757Y6019558D01*
X5890257Y6083058D02*
X6017257Y6083058D01*
X5953757Y6146558D02*
X5953757Y6019558D01*
X5890257Y6083058D02*
X6017257Y6083058D01*
X6370511Y6493568D02*
X6370511Y6366568D01*
X6307011Y6430068D02*
X6434011Y6430068D01*
X6712293Y10076956D02*
X6712293Y9949956D01*
X6648793Y10013456D02*
X6775793Y10013456D01*
X7007495Y8402783D02*
X7007495Y8275782D01*
X6943995Y8339282D02*
X7070995Y8339282D01*
X7241163Y9956970D02*
X7241163Y9829970D01*
X7177663Y9893470D02*
X7304663Y9893470D01*
X7241163Y9956970D02*
X7241163Y9829970D01*
X7177663Y9893470D02*
X7304663Y9893470D01*
X7302697Y6728609D02*
X7302697Y6601609D01*
X7239197Y6665109D02*
X7366197Y6665109D01*
X7536365Y8282797D02*
X7536365Y8155797D01*
X7472865Y8219297D02*
X7599865Y8219297D01*
X7536365Y8282797D02*
X7536365Y8155797D01*
X7472865Y8219297D02*
X7599865Y8219297D01*
X7697101Y10250604D02*
X7697101Y10123604D01*
X7633601Y10187104D02*
X7760601Y10187104D01*
X7831567Y6608624D02*
X7831567Y6481624D01*
X7768067Y6545124D02*
X7895067Y6545124D01*
X7831567Y6608624D02*
X7831567Y6481624D01*
X7768067Y6545124D02*
X7895067Y6545124D01*
X7992303Y8576431D02*
X7992303Y8449431D01*
X7928803Y8512931D02*
X8055803Y8512931D01*
X8287505Y6902257D02*
X8287505Y6775257D01*
X8224005Y6838757D02*
X8351005Y6838757D01*
X8809021Y11046316D02*
X8809021Y10919316D01*
X8745521Y10982816D02*
X8872521Y10982816D01*
X8957186Y9352785D02*
X8957186Y9225785D01*
X8893686Y9289285D02*
X9020686Y9289285D01*
X9105351Y7659254D02*
X9105351Y7532254D01*
X9041851Y7595754D02*
X9168851Y7595754D01*
X9325422Y10880693D02*
X9325422Y10753693D01*
X9261922Y10817193D02*
X9388922Y10817193D01*
X9325422Y10880693D02*
X9325422Y10753693D01*
X9261922Y10817193D02*
X9388922Y10817193D01*
X9473586Y9187162D02*
X9473586Y9060162D01*
X9410086Y9123662D02*
X9537086Y9123662D01*
X9473586Y9187162D02*
X9473586Y9060162D01*
X9410086Y9123662D02*
X9537086Y9123662D01*
X9621751Y7493631D02*
X9621751Y7366631D01*
X9558251Y7430131D02*
X9685251Y7430131D01*
X9621751Y7493631D02*
X9621751Y7366631D01*
X9558251Y7430131D02*
X9685251Y7430131D01*
X9805216Y11133472D02*
X9805216Y11006472D01*
X9741716Y11069972D02*
X9868716Y11069972D01*
X9953381Y9439941D02*
X9953381Y9312941D01*
X9889881Y9376441D02*
X10016881Y9376441D01*
X10101546Y7746410D02*
X10101546Y7619410D01*
X10038046Y7682910D02*
X10165046Y7682910D01*
X11041109Y10352102D02*
X11041109Y10225102D01*
X10977609Y10288602D02*
X11104609Y10288602D01*
X11041109Y8652102D02*
X11041109Y8525102D01*
X10977609Y8588602D02*
X11104609Y8588602D01*
X11041109Y6952102D02*
X11041109Y6825102D01*
X10977609Y6888602D02*
X11104609Y6888602D01*
X11266393Y4867373D02*
X11266393Y4740373D01*
X11202893Y4803873D02*
X11329893Y4803873D01*
X11541109Y10142102D02*
X11541109Y10015102D01*
X11477609Y10078602D02*
X11604609Y10078602D01*
X11541109Y10142102D02*
X11541109Y10015102D01*
X11477609Y10078602D02*
X11604609Y10078602D01*
X11541109Y8442102D02*
X11541109Y8315102D01*
X11477609Y8378602D02*
X11604609Y8378602D01*
X11541109Y8442102D02*
X11541109Y8315102D01*
X11477609Y8378602D02*
X11604609Y8378602D01*
X11541109Y6742102D02*
X11541109Y6615102D01*
X11477609Y6678602D02*
X11604609Y6678602D01*
X11541109Y6742102D02*
X11541109Y6615102D01*
X11477609Y6678602D02*
X11604609Y6678602D01*
X11717137Y4565827D02*
X11717137Y4438827D01*
X11653637Y4502327D02*
X11780637Y4502327D01*
X11717137Y4565827D02*
X11717137Y4438827D01*
X11653637Y4502327D02*
X11780637Y4502327D01*
X12041109Y10352102D02*
X12041109Y10225102D01*
X11977609Y10288602D02*
X12104609Y10288602D01*
X12041109Y8652102D02*
X12041109Y8525102D01*
X11977609Y8588602D02*
X12104609Y8588602D01*
X12041109Y6952102D02*
X12041109Y6825102D01*
X11977609Y6888602D02*
X12104609Y6888602D01*
X12248020Y4676564D02*
X12248020Y4549564D01*
X12184520Y4613064D02*
X12311520Y4613064D01*
X12921828Y9111385D02*
X12921828Y8984385D01*
X12858328Y9047885D02*
X12985328Y9047885D01*
X12921828Y7411385D02*
X12921828Y7284385D01*
X12858328Y7347885D02*
X12985328Y7347885D01*
X13116543Y4385961D02*
X13116543Y4258961D01*
X13053043Y4322461D02*
X13180043Y4322461D01*
X13421828Y8901385D02*
X13421828Y8774385D01*
X13358328Y8837885D02*
X13485328Y8837885D01*
X13421828Y8901385D02*
X13421828Y8774385D01*
X13358328Y8837885D02*
X13485328Y8837885D01*
X13421828Y7201385D02*
X13421828Y7074385D01*
X13358328Y7137885D02*
X13485328Y7137885D01*
X13421828Y7201385D02*
X13421828Y7074385D01*
X13358328Y7137885D02*
X13485328Y7137885D01*
X13473882Y3978028D02*
X13473882Y3851028D01*
X13410382Y3914528D02*
X13537382Y3914528D01*
X13473882Y3978028D02*
X13473882Y3851028D01*
X13410382Y3914528D02*
X13537382Y3914528D01*
X13921828Y9111385D02*
X13921828Y8984385D01*
X13858328Y9047885D02*
X13985328Y9047885D01*
X13921828Y7411385D02*
X13921828Y7284385D01*
X13858328Y7347885D02*
X13985328Y7347885D01*
X14015337Y3947589D02*
X14015337Y3820589D01*
X13951837Y3884089D02*
X14078837Y3884089D01*
D15*
X16366281Y6869289D02*
X16366281Y6961214D01*
X16274357Y6961214D01*
X16274357Y6869289D01*
X16366281Y6869289D01*
X16366281Y6219289D02*
X16366281Y6311214D01*
X16274357Y6311214D01*
X16274357Y6219289D01*
X16366281Y6219289D01*
D16*
X8474722Y8704143D02*
X8584722Y8814143D01*
X8474722Y8924143D01*
X8364722Y8814143D01*
X8474722Y8704143D01*
X10379722Y10609143D02*
X10489722Y10719143D01*
X10379722Y10829143D01*
X10269722Y10719143D01*
X10379722Y10609143D01*
X10379722Y6799143D02*
X10489722Y6909143D01*
X10379722Y7019143D01*
X10269722Y6909143D01*
X10379722Y6799143D01*
D11*
X4240042Y2880363D02*
X4240042Y3080363D01*
X4287661Y3080363D01*
X4316233Y3070839D01*
X4335280Y3051792D01*
X4344804Y3032744D01*
X4354328Y2994649D01*
X4354328Y2966077D01*
X4344804Y2927982D01*
X4335280Y2908934D01*
X4316233Y2889887D01*
X4287661Y2880363D01*
X4240042Y2880363D01*
X4440042Y2880363D02*
X4440042Y3013696D01*
X4440042Y2975601D02*
X4449566Y2994649D01*
X4459090Y3004173D01*
X4478137Y3013696D01*
X4497185Y3013696D01*
X4563852Y2880363D02*
X4563852Y3013696D01*
X4563852Y3080363D02*
X4554328Y3070839D01*
X4563852Y3061315D01*
X4573375Y3070839D01*
X4563852Y3080363D01*
X4563852Y3061315D01*
X4687661Y2880363D02*
X4668614Y2889887D01*
X4659090Y2908934D01*
X4659090Y3080363D01*
X4792423Y2880363D02*
X4773375Y2889887D01*
X4763852Y2908934D01*
X4763852Y3080363D01*
X5020995Y2880363D02*
X5020995Y3080363D01*
X5087661Y2937506D01*
X5154328Y3080363D01*
X5154328Y2880363D01*
X5335280Y2880363D02*
X5335280Y2985125D01*
X5325756Y3004173D01*
X5306709Y3013696D01*
X5268614Y3013696D01*
X5249566Y3004173D01*
X5335280Y2889887D02*
X5316233Y2880363D01*
X5268614Y2880363D01*
X5249566Y2889887D01*
X5240042Y2908934D01*
X5240042Y2927982D01*
X5249566Y2947030D01*
X5268614Y2956553D01*
X5316233Y2956553D01*
X5335280Y2966077D01*
X5430518Y3013696D02*
X5430518Y2813696D01*
X5430518Y3004173D02*
X5449566Y3013696D01*
X5487661Y3013696D01*
X5506709Y3004173D01*
X5516233Y2994649D01*
X5525756Y2975601D01*
X5525756Y2918458D01*
X5516233Y2899411D01*
X5506709Y2889887D01*
X5487661Y2880363D01*
X5449566Y2880363D01*
X5430518Y2889887D01*
X5611471Y2899411D02*
X5620994Y2889887D01*
X5611471Y2880363D01*
X5601947Y2889887D01*
X5611471Y2899411D01*
X5611471Y2880363D01*
X5611471Y3004173D02*
X5620994Y2994649D01*
X5611471Y2985125D01*
X5601947Y2994649D01*
X5611471Y3004173D01*
X5611471Y2985125D01*
D12*
X3942423Y2570839D02*
X3982423Y2530839D01*
X3982423Y2570839D02*
X3942423Y2530839D01*
D11*
X4278137Y2660363D02*
X4297185Y2660363D01*
X4316233Y2650839D01*
X4325756Y2641315D01*
X4335280Y2622268D01*
X4344804Y2584173D01*
X4344804Y2536554D01*
X4335280Y2498458D01*
X4325756Y2479411D01*
X4316233Y2469887D01*
X4297185Y2460363D01*
X4278137Y2460363D01*
X4259090Y2469887D01*
X4249566Y2479411D01*
X4240042Y2498458D01*
X4230518Y2536554D01*
X4230518Y2584173D01*
X4240042Y2622268D01*
X4249566Y2641315D01*
X4259090Y2650839D01*
X4278137Y2660363D01*
X4430518Y2479411D02*
X4440042Y2469887D01*
X4430518Y2460363D01*
X4420995Y2469887D01*
X4430518Y2479411D01*
X4430518Y2460363D01*
X4611471Y2593696D02*
X4611471Y2460363D01*
X4563852Y2669887D02*
X4516233Y2527030D01*
X4640042Y2527030D01*
X4754328Y2660363D02*
X4773375Y2660363D01*
X4792423Y2650839D01*
X4801947Y2641315D01*
X4811471Y2622268D01*
X4820995Y2584173D01*
X4820995Y2536554D01*
X4811471Y2498458D01*
X4801947Y2479411D01*
X4792423Y2469887D01*
X4773375Y2460363D01*
X4754328Y2460363D01*
X4735280Y2469887D01*
X4725756Y2479411D01*
X4716233Y2498458D01*
X4706709Y2536554D01*
X4706709Y2584173D01*
X4716233Y2622268D01*
X4725756Y2641315D01*
X4735280Y2650839D01*
X4754328Y2660363D01*
X4944804Y2660363D02*
X4963852Y2660363D01*
X4982899Y2650839D01*
X4992423Y2641315D01*
X5001947Y2622268D01*
X5011471Y2584173D01*
X5011471Y2536554D01*
X5001947Y2498458D01*
X4992423Y2479411D01*
X4982899Y2469887D01*
X4963852Y2460363D01*
X4944804Y2460363D01*
X4925756Y2469887D01*
X4916233Y2479411D01*
X4906709Y2498458D01*
X4897185Y2536554D01*
X4897185Y2584173D01*
X4906709Y2622268D01*
X4916233Y2641315D01*
X4925756Y2650839D01*
X4944804Y2660363D01*
X5097185Y2460363D02*
X5097185Y2593696D01*
X5097185Y2574649D02*
X5106709Y2584173D01*
X5125756Y2593696D01*
X5154328Y2593696D01*
X5173375Y2584173D01*
X5182899Y2565125D01*
X5182899Y2460363D01*
X5182899Y2565125D02*
X5192423Y2584173D01*
X5211471Y2593696D01*
X5240042Y2593696D01*
X5259090Y2584173D01*
X5268614Y2565125D01*
X5268614Y2460363D01*
X5363852Y2460363D02*
X5363852Y2593696D01*
X5363852Y2574649D02*
X5373375Y2584173D01*
X5392423Y2593696D01*
X5420995Y2593696D01*
X5440042Y2584173D01*
X5449566Y2565125D01*
X5449566Y2460363D01*
X5449566Y2565125D02*
X5459090Y2584173D01*
X5478137Y2593696D01*
X5506709Y2593696D01*
X5525756Y2584173D01*
X5535280Y2565125D01*
X5535280Y2460363D01*
X5925756Y2669887D02*
X5754328Y2412744D01*
X6182899Y2660363D02*
X6201947Y2660363D01*
X6220994Y2650839D01*
X6230518Y2641315D01*
X6240042Y2622268D01*
X6249566Y2584173D01*
X6249566Y2536554D01*
X6240042Y2498458D01*
X6230518Y2479411D01*
X6220994Y2469887D01*
X6201947Y2460363D01*
X6182899Y2460363D01*
X6163852Y2469887D01*
X6154328Y2479411D01*
X6144804Y2498458D01*
X6135280Y2536554D01*
X6135280Y2584173D01*
X6144804Y2622268D01*
X6154328Y2641315D01*
X6163852Y2650839D01*
X6182899Y2660363D01*
X6335280Y2479411D02*
X6344804Y2469887D01*
X6335280Y2460363D01*
X6325756Y2469887D01*
X6335280Y2479411D01*
X6335280Y2460363D01*
X6468613Y2660363D02*
X6487661Y2660363D01*
X6506709Y2650839D01*
X6516233Y2641315D01*
X6525756Y2622268D01*
X6535280Y2584173D01*
X6535280Y2536554D01*
X6525756Y2498458D01*
X6516233Y2479411D01*
X6506709Y2469887D01*
X6487661Y2460363D01*
X6468613Y2460363D01*
X6449566Y2469887D01*
X6440042Y2479411D01*
X6430518Y2498458D01*
X6420994Y2536554D01*
X6420994Y2584173D01*
X6430518Y2622268D01*
X6440042Y2641315D01*
X6449566Y2650839D01*
X6468613Y2660363D01*
X6725756Y2460363D02*
X6611471Y2460363D01*
X6668613Y2460363D02*
X6668613Y2660363D01*
X6649566Y2631792D01*
X6630518Y2612744D01*
X6611471Y2603220D01*
X6906709Y2660363D02*
X6811471Y2660363D01*
X6801947Y2565125D01*
X6811471Y2574649D01*
X6830518Y2584173D01*
X6878137Y2584173D01*
X6897185Y2574649D01*
X6906709Y2565125D01*
X6916233Y2546077D01*
X6916233Y2498458D01*
X6906709Y2479411D01*
X6897185Y2469887D01*
X6878137Y2460363D01*
X6830518Y2460363D01*
X6811471Y2469887D01*
X6801947Y2479411D01*
X6982899Y2660363D02*
X7116233Y2660363D01*
X7030518Y2460363D01*
X7182899Y2660363D02*
X7182899Y2622268D01*
X7259090Y2660363D02*
X7259090Y2622268D01*
X7554328Y2384173D02*
X7544804Y2393696D01*
X7525756Y2422268D01*
X7516233Y2441315D01*
X7506709Y2469887D01*
X7497185Y2517506D01*
X7497185Y2555601D01*
X7506709Y2603220D01*
X7516233Y2631792D01*
X7525756Y2650839D01*
X7544804Y2679411D01*
X7554328Y2688935D01*
X7725756Y2660363D02*
X7630518Y2660363D01*
X7620994Y2565125D01*
X7630518Y2574649D01*
X7649566Y2584173D01*
X7697185Y2584173D01*
X7716233Y2574649D01*
X7725756Y2565125D01*
X7735280Y2546077D01*
X7735280Y2498458D01*
X7725756Y2479411D01*
X7716233Y2469887D01*
X7697185Y2460363D01*
X7649566Y2460363D01*
X7630518Y2469887D01*
X7620994Y2479411D01*
X7973375Y2460363D02*
X7973375Y2660363D01*
X8059090Y2460363D02*
X8059090Y2565125D01*
X8049566Y2584173D01*
X8030518Y2593696D01*
X8001947Y2593696D01*
X7982899Y2584173D01*
X7973375Y2574649D01*
X8182899Y2460363D02*
X8163852Y2469887D01*
X8154328Y2479411D01*
X8144804Y2498458D01*
X8144804Y2555601D01*
X8154328Y2574649D01*
X8163852Y2584173D01*
X8182899Y2593696D01*
X8211471Y2593696D01*
X8230518Y2584173D01*
X8240042Y2574649D01*
X8249566Y2555601D01*
X8249566Y2498458D01*
X8240042Y2479411D01*
X8230518Y2469887D01*
X8211471Y2460363D01*
X8182899Y2460363D01*
X8363852Y2460363D02*
X8344804Y2469887D01*
X8335280Y2488935D01*
X8335280Y2660363D01*
X8516233Y2469887D02*
X8497185Y2460363D01*
X8459090Y2460363D01*
X8440042Y2469887D01*
X8430518Y2488935D01*
X8430518Y2565125D01*
X8440042Y2584173D01*
X8459090Y2593696D01*
X8497185Y2593696D01*
X8516233Y2584173D01*
X8525756Y2565125D01*
X8525756Y2546077D01*
X8430518Y2527030D01*
X8601947Y2469887D02*
X8620995Y2460363D01*
X8659090Y2460363D01*
X8678137Y2469887D01*
X8687661Y2488935D01*
X8687661Y2498458D01*
X8678137Y2517506D01*
X8659090Y2527030D01*
X8630518Y2527030D01*
X8611471Y2536554D01*
X8601947Y2555601D01*
X8601947Y2565125D01*
X8611471Y2584173D01*
X8630518Y2593696D01*
X8659090Y2593696D01*
X8678137Y2584173D01*
X8754328Y2384173D02*
X8763852Y2393696D01*
X8782899Y2422268D01*
X8792423Y2441315D01*
X8801947Y2469887D01*
X8811471Y2517506D01*
X8811471Y2555601D01*
X8801947Y2603220D01*
X8792423Y2631792D01*
X8782899Y2650839D01*
X8763852Y2679411D01*
X8754328Y2688935D01*
D13*
X3982423Y2286839D02*
G75*
G03*
X3982423Y2286839I-54610J0D01*
G01*
D11*
X4344804Y2196363D02*
X4230518Y2196363D01*
X4287661Y2196363D02*
X4287661Y2396363D01*
X4268614Y2367792D01*
X4249566Y2348744D01*
X4230518Y2339220D01*
X4430518Y2215411D02*
X4440042Y2205887D01*
X4430518Y2196363D01*
X4420995Y2205887D01*
X4430518Y2215411D01*
X4430518Y2196363D01*
X4563852Y2396363D02*
X4582899Y2396363D01*
X4601947Y2386839D01*
X4611471Y2377315D01*
X4620995Y2358268D01*
X4630518Y2320173D01*
X4630518Y2272554D01*
X4620995Y2234458D01*
X4611471Y2215411D01*
X4601947Y2205887D01*
X4582899Y2196363D01*
X4563852Y2196363D01*
X4544804Y2205887D01*
X4535280Y2215411D01*
X4525756Y2234458D01*
X4516233Y2272554D01*
X4516233Y2320173D01*
X4525756Y2358268D01*
X4535280Y2377315D01*
X4544804Y2386839D01*
X4563852Y2396363D01*
X4725756Y2196363D02*
X4763852Y2196363D01*
X4782899Y2205887D01*
X4792423Y2215411D01*
X4811471Y2243982D01*
X4820995Y2282077D01*
X4820995Y2358268D01*
X4811471Y2377315D01*
X4801947Y2386839D01*
X4782899Y2396363D01*
X4744804Y2396363D01*
X4725756Y2386839D01*
X4716233Y2377315D01*
X4706709Y2358268D01*
X4706709Y2310649D01*
X4716233Y2291601D01*
X4725756Y2282077D01*
X4744804Y2272554D01*
X4782899Y2272554D01*
X4801947Y2282077D01*
X4811471Y2291601D01*
X4820995Y2310649D01*
X4897185Y2377315D02*
X4906709Y2386839D01*
X4925756Y2396363D01*
X4973375Y2396363D01*
X4992423Y2386839D01*
X5001947Y2377315D01*
X5011471Y2358268D01*
X5011471Y2339220D01*
X5001947Y2310649D01*
X4887661Y2196363D01*
X5011471Y2196363D01*
X5097185Y2196363D02*
X5097185Y2329696D01*
X5097185Y2310649D02*
X5106709Y2320173D01*
X5125756Y2329696D01*
X5154328Y2329696D01*
X5173375Y2320173D01*
X5182899Y2301125D01*
X5182899Y2196363D01*
X5182899Y2301125D02*
X5192423Y2320173D01*
X5211471Y2329696D01*
X5240042Y2329696D01*
X5259090Y2320173D01*
X5268614Y2301125D01*
X5268614Y2196363D01*
X5363852Y2196363D02*
X5363852Y2329696D01*
X5363852Y2310649D02*
X5373375Y2320173D01*
X5392423Y2329696D01*
X5420995Y2329696D01*
X5440042Y2320173D01*
X5449566Y2301125D01*
X5449566Y2196363D01*
X5449566Y2301125D02*
X5459090Y2320173D01*
X5478137Y2329696D01*
X5506709Y2329696D01*
X5525756Y2320173D01*
X5535280Y2301125D01*
X5535280Y2196363D01*
X5925756Y2405887D02*
X5754328Y2148744D01*
X6182899Y2396363D02*
X6201947Y2396363D01*
X6220994Y2386839D01*
X6230518Y2377315D01*
X6240042Y2358268D01*
X6249566Y2320173D01*
X6249566Y2272554D01*
X6240042Y2234458D01*
X6230518Y2215411D01*
X6220994Y2205887D01*
X6201947Y2196363D01*
X6182899Y2196363D01*
X6163852Y2205887D01*
X6154328Y2215411D01*
X6144804Y2234458D01*
X6135280Y2272554D01*
X6135280Y2320173D01*
X6144804Y2358268D01*
X6154328Y2377315D01*
X6163852Y2386839D01*
X6182899Y2396363D01*
X6335280Y2215411D02*
X6344804Y2205887D01*
X6335280Y2196363D01*
X6325756Y2205887D01*
X6335280Y2215411D01*
X6335280Y2196363D01*
X6468613Y2396363D02*
X6487661Y2396363D01*
X6506709Y2386839D01*
X6516233Y2377315D01*
X6525756Y2358268D01*
X6535280Y2320173D01*
X6535280Y2272554D01*
X6525756Y2234458D01*
X6516233Y2215411D01*
X6506709Y2205887D01*
X6487661Y2196363D01*
X6468613Y2196363D01*
X6449566Y2205887D01*
X6440042Y2215411D01*
X6430518Y2234458D01*
X6420994Y2272554D01*
X6420994Y2320173D01*
X6430518Y2358268D01*
X6440042Y2377315D01*
X6449566Y2386839D01*
X6468613Y2396363D01*
X6706709Y2329696D02*
X6706709Y2196363D01*
X6659090Y2405887D02*
X6611471Y2263030D01*
X6735280Y2263030D01*
X6792423Y2396363D02*
X6916233Y2396363D01*
X6849566Y2320173D01*
X6878137Y2320173D01*
X6897185Y2310649D01*
X6906709Y2301125D01*
X6916233Y2282077D01*
X6916233Y2234458D01*
X6906709Y2215411D01*
X6897185Y2205887D01*
X6878137Y2196363D01*
X6820994Y2196363D01*
X6801947Y2205887D01*
X6792423Y2215411D01*
X7040042Y2396363D02*
X7059090Y2396363D01*
X7078137Y2386839D01*
X7087661Y2377315D01*
X7097185Y2358268D01*
X7106709Y2320173D01*
X7106709Y2272554D01*
X7097185Y2234458D01*
X7087661Y2215411D01*
X7078137Y2205887D01*
X7059090Y2196363D01*
X7040042Y2196363D01*
X7020994Y2205887D01*
X7011471Y2215411D01*
X7001947Y2234458D01*
X6992423Y2272554D01*
X6992423Y2320173D01*
X7001947Y2358268D01*
X7011471Y2377315D01*
X7020994Y2386839D01*
X7040042Y2396363D01*
X7182899Y2396363D02*
X7182899Y2358268D01*
X7259090Y2396363D02*
X7259090Y2358268D01*
X7554328Y2120173D02*
X7544804Y2129696D01*
X7525756Y2158268D01*
X7516233Y2177315D01*
X7506709Y2205887D01*
X7497185Y2253506D01*
X7497185Y2291601D01*
X7506709Y2339220D01*
X7516233Y2367792D01*
X7525756Y2386839D01*
X7544804Y2415411D01*
X7554328Y2424935D01*
X7620994Y2377315D02*
X7630518Y2386839D01*
X7649566Y2396363D01*
X7697185Y2396363D01*
X7716233Y2386839D01*
X7725756Y2377315D01*
X7735280Y2358268D01*
X7735280Y2339220D01*
X7725756Y2310649D01*
X7611471Y2196363D01*
X7735280Y2196363D01*
X7801947Y2396363D02*
X7935280Y2396363D01*
X7849566Y2196363D01*
X8163852Y2196363D02*
X8163852Y2396363D01*
X8249566Y2196363D02*
X8249566Y2301125D01*
X8240042Y2320173D01*
X8220994Y2329696D01*
X8192423Y2329696D01*
X8173375Y2320173D01*
X8163852Y2310649D01*
X8373375Y2196363D02*
X8354328Y2205887D01*
X8344804Y2215411D01*
X8335280Y2234458D01*
X8335280Y2291601D01*
X8344804Y2310649D01*
X8354328Y2320173D01*
X8373375Y2329696D01*
X8401947Y2329696D01*
X8420995Y2320173D01*
X8430518Y2310649D01*
X8440042Y2291601D01*
X8440042Y2234458D01*
X8430518Y2215411D01*
X8420995Y2205887D01*
X8401947Y2196363D01*
X8373375Y2196363D01*
X8554328Y2196363D02*
X8535280Y2205887D01*
X8525756Y2224935D01*
X8525756Y2396363D01*
X8706709Y2205887D02*
X8687661Y2196363D01*
X8649566Y2196363D01*
X8630518Y2205887D01*
X8620995Y2224935D01*
X8620995Y2301125D01*
X8630518Y2320173D01*
X8649566Y2329696D01*
X8687661Y2329696D01*
X8706709Y2320173D01*
X8716233Y2301125D01*
X8716233Y2282077D01*
X8620995Y2263030D01*
X8792423Y2205887D02*
X8811471Y2196363D01*
X8849566Y2196363D01*
X8868614Y2205887D01*
X8878137Y2224935D01*
X8878137Y2234458D01*
X8868614Y2253506D01*
X8849566Y2263030D01*
X8820995Y2263030D01*
X8801947Y2272554D01*
X8792423Y2291601D01*
X8792423Y2301125D01*
X8801947Y2320173D01*
X8820995Y2329696D01*
X8849566Y2329696D01*
X8868614Y2320173D01*
X8944804Y2120173D02*
X8954328Y2129696D01*
X8973375Y2158268D01*
X8982899Y2177315D01*
X8992423Y2205887D01*
X9001947Y2253506D01*
X9001947Y2291601D01*
X8992423Y2339220D01*
X8982899Y2367792D01*
X8973375Y2386839D01*
X8954328Y2415411D01*
X8944804Y2424935D01*
D14*
X3918923Y2086339D02*
X3918923Y1959339D01*
X3855423Y2022839D02*
X3982423Y2022839D01*
D11*
X4344804Y1932363D02*
X4230518Y1932363D01*
X4287661Y1932363D02*
X4287661Y2132363D01*
X4268614Y2103792D01*
X4249566Y2084744D01*
X4230518Y2075220D01*
X4430518Y1951411D02*
X4440042Y1941887D01*
X4430518Y1932363D01*
X4420995Y1941887D01*
X4430518Y1951411D01*
X4430518Y1932363D01*
X4516233Y2113315D02*
X4525756Y2122839D01*
X4544804Y2132363D01*
X4592423Y2132363D01*
X4611471Y2122839D01*
X4620995Y2113315D01*
X4630518Y2094268D01*
X4630518Y2075220D01*
X4620995Y2046649D01*
X4506709Y1932363D01*
X4630518Y1932363D01*
X4697185Y2132363D02*
X4830518Y2132363D01*
X4744804Y1932363D01*
X4944804Y2132363D02*
X4963852Y2132363D01*
X4982899Y2122839D01*
X4992423Y2113315D01*
X5001947Y2094268D01*
X5011471Y2056173D01*
X5011471Y2008553D01*
X5001947Y1970458D01*
X4992423Y1951411D01*
X4982899Y1941887D01*
X4963852Y1932363D01*
X4944804Y1932363D01*
X4925756Y1941887D01*
X4916233Y1951411D01*
X4906709Y1970458D01*
X4897185Y2008553D01*
X4897185Y2056173D01*
X4906709Y2094268D01*
X4916233Y2113315D01*
X4925756Y2122839D01*
X4944804Y2132363D01*
X5097185Y1932363D02*
X5097185Y2065696D01*
X5097185Y2046649D02*
X5106709Y2056173D01*
X5125756Y2065696D01*
X5154328Y2065696D01*
X5173375Y2056173D01*
X5182899Y2037125D01*
X5182899Y1932363D01*
X5182899Y2037125D02*
X5192423Y2056173D01*
X5211471Y2065696D01*
X5240042Y2065696D01*
X5259090Y2056173D01*
X5268614Y2037125D01*
X5268614Y1932363D01*
X5363852Y1932363D02*
X5363852Y2065696D01*
X5363852Y2046649D02*
X5373375Y2056173D01*
X5392423Y2065696D01*
X5420995Y2065696D01*
X5440042Y2056173D01*
X5449566Y2037125D01*
X5449566Y1932363D01*
X5449566Y2037125D02*
X5459090Y2056173D01*
X5478137Y2065696D01*
X5506709Y2065696D01*
X5525756Y2056173D01*
X5535280Y2037125D01*
X5535280Y1932363D01*
X5925756Y2141887D02*
X5754328Y1884744D01*
X6182899Y2132363D02*
X6201947Y2132363D01*
X6220994Y2122839D01*
X6230518Y2113315D01*
X6240042Y2094268D01*
X6249566Y2056173D01*
X6249566Y2008553D01*
X6240042Y1970458D01*
X6230518Y1951411D01*
X6220994Y1941887D01*
X6201947Y1932363D01*
X6182899Y1932363D01*
X6163852Y1941887D01*
X6154328Y1951411D01*
X6144804Y1970458D01*
X6135280Y2008553D01*
X6135280Y2056173D01*
X6144804Y2094268D01*
X6154328Y2113315D01*
X6163852Y2122839D01*
X6182899Y2132363D01*
X6335280Y1951411D02*
X6344804Y1941887D01*
X6335280Y1932363D01*
X6325756Y1941887D01*
X6335280Y1951411D01*
X6335280Y1932363D01*
X6468613Y2132363D02*
X6487661Y2132363D01*
X6506709Y2122839D01*
X6516233Y2113315D01*
X6525756Y2094268D01*
X6535280Y2056173D01*
X6535280Y2008553D01*
X6525756Y1970458D01*
X6516233Y1951411D01*
X6506709Y1941887D01*
X6487661Y1932363D01*
X6468613Y1932363D01*
X6449566Y1941887D01*
X6440042Y1951411D01*
X6430518Y1970458D01*
X6420994Y2008553D01*
X6420994Y2056173D01*
X6430518Y2094268D01*
X6440042Y2113315D01*
X6449566Y2122839D01*
X6468613Y2132363D01*
X6716233Y2132363D02*
X6620994Y2132363D01*
X6611471Y2037125D01*
X6620994Y2046649D01*
X6640042Y2056173D01*
X6687661Y2056173D01*
X6706709Y2046649D01*
X6716233Y2037125D01*
X6725756Y2018077D01*
X6725756Y1970458D01*
X6716233Y1951411D01*
X6706709Y1941887D01*
X6687661Y1932363D01*
X6640042Y1932363D01*
X6620994Y1941887D01*
X6611471Y1951411D01*
X6849566Y2132363D02*
X6868613Y2132363D01*
X6887661Y2122839D01*
X6897185Y2113315D01*
X6906709Y2094268D01*
X6916233Y2056173D01*
X6916233Y2008553D01*
X6906709Y1970458D01*
X6897185Y1951411D01*
X6887661Y1941887D01*
X6868613Y1932363D01*
X6849566Y1932363D01*
X6830518Y1941887D01*
X6820994Y1951411D01*
X6811471Y1970458D01*
X6801947Y2008553D01*
X6801947Y2056173D01*
X6811471Y2094268D01*
X6820994Y2113315D01*
X6830518Y2122839D01*
X6849566Y2132363D01*
X7040042Y2132363D02*
X7059090Y2132363D01*
X7078137Y2122839D01*
X7087661Y2113315D01*
X7097185Y2094268D01*
X7106709Y2056173D01*
X7106709Y2008553D01*
X7097185Y1970458D01*
X7087661Y1951411D01*
X7078137Y1941887D01*
X7059090Y1932363D01*
X7040042Y1932363D01*
X7020994Y1941887D01*
X7011471Y1951411D01*
X7001947Y1970458D01*
X6992423Y2008553D01*
X6992423Y2056173D01*
X7001947Y2094268D01*
X7011471Y2113315D01*
X7020994Y2122839D01*
X7040042Y2132363D01*
X7182899Y2132363D02*
X7182899Y2094268D01*
X7259090Y2132363D02*
X7259090Y2094268D01*
X7554328Y1856173D02*
X7544804Y1865696D01*
X7525756Y1894268D01*
X7516233Y1913315D01*
X7506709Y1941887D01*
X7497185Y1989506D01*
X7497185Y2027601D01*
X7506709Y2075220D01*
X7516233Y2103792D01*
X7525756Y2122839D01*
X7544804Y2151411D01*
X7554328Y2160935D01*
X7716233Y2132363D02*
X7678137Y2132363D01*
X7659090Y2122839D01*
X7649566Y2113315D01*
X7630518Y2084744D01*
X7620994Y2046649D01*
X7620994Y1970458D01*
X7630518Y1951411D01*
X7640042Y1941887D01*
X7659090Y1932363D01*
X7697185Y1932363D01*
X7716233Y1941887D01*
X7725756Y1951411D01*
X7735280Y1970458D01*
X7735280Y2018077D01*
X7725756Y2037125D01*
X7716233Y2046649D01*
X7697185Y2056173D01*
X7659090Y2056173D01*
X7640042Y2046649D01*
X7630518Y2037125D01*
X7620994Y2018077D01*
X7859090Y2132363D02*
X7878137Y2132363D01*
X7897185Y2122839D01*
X7906709Y2113315D01*
X7916233Y2094268D01*
X7925756Y2056173D01*
X7925756Y2008553D01*
X7916233Y1970458D01*
X7906709Y1951411D01*
X7897185Y1941887D01*
X7878137Y1932363D01*
X7859090Y1932363D01*
X7840042Y1941887D01*
X7830518Y1951411D01*
X7820994Y1970458D01*
X7811471Y2008553D01*
X7811471Y2056173D01*
X7820994Y2094268D01*
X7830518Y2113315D01*
X7840042Y2122839D01*
X7859090Y2132363D01*
X8163852Y1932363D02*
X8163852Y2132363D01*
X8249566Y1932363D02*
X8249566Y2037125D01*
X8240042Y2056173D01*
X8220994Y2065696D01*
X8192423Y2065696D01*
X8173375Y2056173D01*
X8163852Y2046649D01*
X8373375Y1932363D02*
X8354328Y1941887D01*
X8344804Y1951411D01*
X8335280Y1970458D01*
X8335280Y2027601D01*
X8344804Y2046649D01*
X8354328Y2056173D01*
X8373375Y2065696D01*
X8401947Y2065696D01*
X8420995Y2056173D01*
X8430518Y2046649D01*
X8440042Y2027601D01*
X8440042Y1970458D01*
X8430518Y1951411D01*
X8420995Y1941887D01*
X8401947Y1932363D01*
X8373375Y1932363D01*
X8554328Y1932363D02*
X8535280Y1941887D01*
X8525756Y1960934D01*
X8525756Y2132363D01*
X8706709Y1941887D02*
X8687661Y1932363D01*
X8649566Y1932363D01*
X8630518Y1941887D01*
X8620995Y1960934D01*
X8620995Y2037125D01*
X8630518Y2056173D01*
X8649566Y2065696D01*
X8687661Y2065696D01*
X8706709Y2056173D01*
X8716233Y2037125D01*
X8716233Y2018077D01*
X8620995Y1999030D01*
X8792423Y1941887D02*
X8811471Y1932363D01*
X8849566Y1932363D01*
X8868614Y1941887D01*
X8878137Y1960934D01*
X8878137Y1970458D01*
X8868614Y1989506D01*
X8849566Y1999030D01*
X8820995Y1999030D01*
X8801947Y2008553D01*
X8792423Y2027601D01*
X8792423Y2037125D01*
X8801947Y2056173D01*
X8820995Y2065696D01*
X8849566Y2065696D01*
X8868614Y2056173D01*
X8944804Y1856173D02*
X8954328Y1865696D01*
X8973375Y1894268D01*
X8982899Y1913315D01*
X8992423Y1941887D01*
X9001947Y1989506D01*
X9001947Y2027601D01*
X8992423Y2075220D01*
X8982899Y2103792D01*
X8973375Y2122839D01*
X8954328Y2151411D01*
X8944804Y2160935D01*
D15*
X3963385Y1712877D02*
X3963385Y1804802D01*
X3871461Y1804802D01*
X3871461Y1712877D01*
X3963385Y1712877D01*
D11*
X4344804Y1668363D02*
X4230518Y1668363D01*
X4287661Y1668363D02*
X4287661Y1868363D01*
X4268614Y1839792D01*
X4249566Y1820744D01*
X4230518Y1811220D01*
X4430518Y1687411D02*
X4440042Y1677887D01*
X4430518Y1668363D01*
X4420995Y1677887D01*
X4430518Y1687411D01*
X4430518Y1668363D01*
X4506709Y1868363D02*
X4630518Y1868363D01*
X4563852Y1792173D01*
X4592423Y1792173D01*
X4611471Y1782649D01*
X4620995Y1773125D01*
X4630518Y1754077D01*
X4630518Y1706458D01*
X4620995Y1687411D01*
X4611471Y1677887D01*
X4592423Y1668363D01*
X4535280Y1668363D01*
X4516233Y1677887D01*
X4506709Y1687411D01*
X4754328Y1868363D02*
X4773375Y1868363D01*
X4792423Y1858839D01*
X4801947Y1849315D01*
X4811471Y1830268D01*
X4820995Y1792173D01*
X4820995Y1744553D01*
X4811471Y1706458D01*
X4801947Y1687411D01*
X4792423Y1677887D01*
X4773375Y1668363D01*
X4754328Y1668363D01*
X4735280Y1677887D01*
X4725756Y1687411D01*
X4716233Y1706458D01*
X4706709Y1744553D01*
X4706709Y1792173D01*
X4716233Y1830268D01*
X4725756Y1849315D01*
X4735280Y1858839D01*
X4754328Y1868363D01*
X4944804Y1868363D02*
X4963852Y1868363D01*
X4982899Y1858839D01*
X4992423Y1849315D01*
X5001947Y1830268D01*
X5011471Y1792173D01*
X5011471Y1744553D01*
X5001947Y1706458D01*
X4992423Y1687411D01*
X4982899Y1677887D01*
X4963852Y1668363D01*
X4944804Y1668363D01*
X4925756Y1677887D01*
X4916233Y1687411D01*
X4906709Y1706458D01*
X4897185Y1744553D01*
X4897185Y1792173D01*
X4906709Y1830268D01*
X4916233Y1849315D01*
X4925756Y1858839D01*
X4944804Y1868363D01*
X5097185Y1668363D02*
X5097185Y1801696D01*
X5097185Y1782649D02*
X5106709Y1792173D01*
X5125756Y1801696D01*
X5154328Y1801696D01*
X5173375Y1792173D01*
X5182899Y1773125D01*
X5182899Y1668363D01*
X5182899Y1773125D02*
X5192423Y1792173D01*
X5211471Y1801696D01*
X5240042Y1801696D01*
X5259090Y1792173D01*
X5268614Y1773125D01*
X5268614Y1668363D01*
X5363852Y1668363D02*
X5363852Y1801696D01*
X5363852Y1782649D02*
X5373375Y1792173D01*
X5392423Y1801696D01*
X5420995Y1801696D01*
X5440042Y1792173D01*
X5449566Y1773125D01*
X5449566Y1668363D01*
X5449566Y1773125D02*
X5459090Y1792173D01*
X5478137Y1801696D01*
X5506709Y1801696D01*
X5525756Y1792173D01*
X5535280Y1773125D01*
X5535280Y1668363D01*
X5925756Y1877887D02*
X5754328Y1620744D01*
X6182899Y1868363D02*
X6201947Y1868363D01*
X6220994Y1858839D01*
X6230518Y1849315D01*
X6240042Y1830268D01*
X6249566Y1792173D01*
X6249566Y1744553D01*
X6240042Y1706458D01*
X6230518Y1687411D01*
X6220994Y1677887D01*
X6201947Y1668363D01*
X6182899Y1668363D01*
X6163852Y1677887D01*
X6154328Y1687411D01*
X6144804Y1706458D01*
X6135280Y1744553D01*
X6135280Y1792173D01*
X6144804Y1830268D01*
X6154328Y1849315D01*
X6163852Y1858839D01*
X6182899Y1868363D01*
X6335280Y1687411D02*
X6344804Y1677887D01*
X6335280Y1668363D01*
X6325756Y1677887D01*
X6335280Y1687411D01*
X6335280Y1668363D01*
X6468613Y1868363D02*
X6487661Y1868363D01*
X6506709Y1858839D01*
X6516233Y1849315D01*
X6525756Y1830268D01*
X6535280Y1792173D01*
X6535280Y1744553D01*
X6525756Y1706458D01*
X6516233Y1687411D01*
X6506709Y1677887D01*
X6487661Y1668363D01*
X6468613Y1668363D01*
X6449566Y1677887D01*
X6440042Y1687411D01*
X6430518Y1706458D01*
X6420994Y1744553D01*
X6420994Y1792173D01*
X6430518Y1830268D01*
X6440042Y1849315D01*
X6449566Y1858839D01*
X6468613Y1868363D01*
X6716233Y1868363D02*
X6620994Y1868363D01*
X6611471Y1773125D01*
X6620994Y1782649D01*
X6640042Y1792173D01*
X6687661Y1792173D01*
X6706709Y1782649D01*
X6716233Y1773125D01*
X6725756Y1754077D01*
X6725756Y1706458D01*
X6716233Y1687411D01*
X6706709Y1677887D01*
X6687661Y1668363D01*
X6640042Y1668363D01*
X6620994Y1677887D01*
X6611471Y1687411D01*
X6916233Y1668363D02*
X6801947Y1668363D01*
X6859090Y1668363D02*
X6859090Y1868363D01*
X6840042Y1839792D01*
X6820994Y1820744D01*
X6801947Y1811220D01*
X6992423Y1849315D02*
X7001947Y1858839D01*
X7020994Y1868363D01*
X7068613Y1868363D01*
X7087661Y1858839D01*
X7097185Y1849315D01*
X7106709Y1830268D01*
X7106709Y1811220D01*
X7097185Y1782649D01*
X6982899Y1668363D01*
X7106709Y1668363D01*
X7182899Y1868363D02*
X7182899Y1830268D01*
X7259090Y1868363D02*
X7259090Y1830268D01*
X7554328Y1592173D02*
X7544804Y1601696D01*
X7525756Y1630268D01*
X7516233Y1649315D01*
X7506709Y1677887D01*
X7497185Y1725506D01*
X7497185Y1763601D01*
X7506709Y1811220D01*
X7516233Y1839792D01*
X7525756Y1858839D01*
X7544804Y1887411D01*
X7554328Y1896934D01*
X7620994Y1849315D02*
X7630518Y1858839D01*
X7649566Y1868363D01*
X7697185Y1868363D01*
X7716233Y1858839D01*
X7725756Y1849315D01*
X7735280Y1830268D01*
X7735280Y1811220D01*
X7725756Y1782649D01*
X7611471Y1668363D01*
X7735280Y1668363D01*
X7973375Y1668363D02*
X7973375Y1868363D01*
X8059090Y1668363D02*
X8059090Y1773125D01*
X8049566Y1792173D01*
X8030518Y1801696D01*
X8001947Y1801696D01*
X7982899Y1792173D01*
X7973375Y1782649D01*
X8182899Y1668363D02*
X8163852Y1677887D01*
X8154328Y1687411D01*
X8144804Y1706458D01*
X8144804Y1763601D01*
X8154328Y1782649D01*
X8163852Y1792173D01*
X8182899Y1801696D01*
X8211471Y1801696D01*
X8230518Y1792173D01*
X8240042Y1782649D01*
X8249566Y1763601D01*
X8249566Y1706458D01*
X8240042Y1687411D01*
X8230518Y1677887D01*
X8211471Y1668363D01*
X8182899Y1668363D01*
X8363852Y1668363D02*
X8344804Y1677887D01*
X8335280Y1696934D01*
X8335280Y1868363D01*
X8516233Y1677887D02*
X8497185Y1668363D01*
X8459090Y1668363D01*
X8440042Y1677887D01*
X8430518Y1696934D01*
X8430518Y1773125D01*
X8440042Y1792173D01*
X8459090Y1801696D01*
X8497185Y1801696D01*
X8516233Y1792173D01*
X8525756Y1773125D01*
X8525756Y1754077D01*
X8430518Y1735030D01*
X8601947Y1677887D02*
X8620995Y1668363D01*
X8659090Y1668363D01*
X8678137Y1677887D01*
X8687661Y1696934D01*
X8687661Y1706458D01*
X8678137Y1725506D01*
X8659090Y1735030D01*
X8630518Y1735030D01*
X8611471Y1744553D01*
X8601947Y1763601D01*
X8601947Y1773125D01*
X8611471Y1792173D01*
X8630518Y1801696D01*
X8659090Y1801696D01*
X8678137Y1792173D01*
X8754328Y1592173D02*
X8763852Y1601696D01*
X8782899Y1630268D01*
X8792423Y1649315D01*
X8801947Y1677887D01*
X8811471Y1725506D01*
X8811471Y1763601D01*
X8801947Y1811220D01*
X8792423Y1839792D01*
X8782899Y1858839D01*
X8763852Y1887411D01*
X8754328Y1896934D01*
X3882423Y1394839D02*
X3982423Y1494839D01*
X3882423Y1594839D01*
X3782423Y1494839D01*
X3882423Y1394839D01*
X4230518Y1585315D02*
X4240042Y1594839D01*
X4259090Y1604363D01*
X4306709Y1604363D01*
X4325756Y1594839D01*
X4335280Y1585315D01*
X4344804Y1566268D01*
X4344804Y1547220D01*
X4335280Y1518649D01*
X4220995Y1404363D01*
X4344804Y1404363D01*
X4430518Y1423411D02*
X4440042Y1413887D01*
X4430518Y1404363D01*
X4420995Y1413887D01*
X4430518Y1423411D01*
X4430518Y1404363D01*
X4516233Y1585315D02*
X4525756Y1594839D01*
X4544804Y1604363D01*
X4592423Y1604363D01*
X4611471Y1594839D01*
X4620995Y1585315D01*
X4630518Y1566268D01*
X4630518Y1547220D01*
X4620995Y1518649D01*
X4506709Y1404363D01*
X4630518Y1404363D01*
X4754328Y1604363D02*
X4773375Y1604363D01*
X4792423Y1594839D01*
X4801947Y1585315D01*
X4811471Y1566268D01*
X4820995Y1528173D01*
X4820995Y1480553D01*
X4811471Y1442458D01*
X4801947Y1423411D01*
X4792423Y1413887D01*
X4773375Y1404363D01*
X4754328Y1404363D01*
X4735280Y1413887D01*
X4725756Y1423411D01*
X4716233Y1442458D01*
X4706709Y1480553D01*
X4706709Y1528173D01*
X4716233Y1566268D01*
X4725756Y1585315D01*
X4735280Y1594839D01*
X4754328Y1604363D01*
X4944804Y1604363D02*
X4963852Y1604363D01*
X4982899Y1594839D01*
X4992423Y1585315D01*
X5001947Y1566268D01*
X5011471Y1528173D01*
X5011471Y1480553D01*
X5001947Y1442458D01*
X4992423Y1423411D01*
X4982899Y1413887D01*
X4963852Y1404363D01*
X4944804Y1404363D01*
X4925756Y1413887D01*
X4916233Y1423411D01*
X4906709Y1442458D01*
X4897185Y1480553D01*
X4897185Y1528173D01*
X4906709Y1566268D01*
X4916233Y1585315D01*
X4925756Y1594839D01*
X4944804Y1604363D01*
X5097185Y1404363D02*
X5097185Y1537696D01*
X5097185Y1518649D02*
X5106709Y1528173D01*
X5125756Y1537696D01*
X5154328Y1537696D01*
X5173375Y1528173D01*
X5182899Y1509125D01*
X5182899Y1404363D01*
X5182899Y1509125D02*
X5192423Y1528173D01*
X5211471Y1537696D01*
X5240042Y1537696D01*
X5259090Y1528173D01*
X5268614Y1509125D01*
X5268614Y1404363D01*
X5363852Y1404363D02*
X5363852Y1537696D01*
X5363852Y1518649D02*
X5373375Y1528173D01*
X5392423Y1537696D01*
X5420995Y1537696D01*
X5440042Y1528173D01*
X5449566Y1509125D01*
X5449566Y1404363D01*
X5449566Y1509125D02*
X5459090Y1528173D01*
X5478137Y1537696D01*
X5506709Y1537696D01*
X5525756Y1528173D01*
X5535280Y1509125D01*
X5535280Y1404363D01*
X5925756Y1613887D02*
X5754328Y1356744D01*
X6182899Y1604363D02*
X6201947Y1604363D01*
X6220994Y1594839D01*
X6230518Y1585315D01*
X6240042Y1566268D01*
X6249566Y1528173D01*
X6249566Y1480553D01*
X6240042Y1442458D01*
X6230518Y1423411D01*
X6220994Y1413887D01*
X6201947Y1404363D01*
X6182899Y1404363D01*
X6163852Y1413887D01*
X6154328Y1423411D01*
X6144804Y1442458D01*
X6135280Y1480553D01*
X6135280Y1528173D01*
X6144804Y1566268D01*
X6154328Y1585315D01*
X6163852Y1594839D01*
X6182899Y1604363D01*
X6335280Y1423411D02*
X6344804Y1413887D01*
X6335280Y1404363D01*
X6325756Y1413887D01*
X6335280Y1423411D01*
X6335280Y1404363D01*
X6468613Y1604363D02*
X6487661Y1604363D01*
X6506709Y1594839D01*
X6516233Y1585315D01*
X6525756Y1566268D01*
X6535280Y1528173D01*
X6535280Y1480553D01*
X6525756Y1442458D01*
X6516233Y1423411D01*
X6506709Y1413887D01*
X6487661Y1404363D01*
X6468613Y1404363D01*
X6449566Y1413887D01*
X6440042Y1423411D01*
X6430518Y1442458D01*
X6420994Y1480553D01*
X6420994Y1528173D01*
X6430518Y1566268D01*
X6440042Y1585315D01*
X6449566Y1594839D01*
X6468613Y1604363D01*
X6649566Y1518649D02*
X6630518Y1528173D01*
X6620994Y1537696D01*
X6611471Y1556744D01*
X6611471Y1566268D01*
X6620994Y1585315D01*
X6630518Y1594839D01*
X6649566Y1604363D01*
X6687661Y1604363D01*
X6706709Y1594839D01*
X6716233Y1585315D01*
X6725756Y1566268D01*
X6725756Y1556744D01*
X6716233Y1537696D01*
X6706709Y1528173D01*
X6687661Y1518649D01*
X6649566Y1518649D01*
X6630518Y1509125D01*
X6620994Y1499601D01*
X6611471Y1480553D01*
X6611471Y1442458D01*
X6620994Y1423411D01*
X6630518Y1413887D01*
X6649566Y1404363D01*
X6687661Y1404363D01*
X6706709Y1413887D01*
X6716233Y1423411D01*
X6725756Y1442458D01*
X6725756Y1480553D01*
X6716233Y1499601D01*
X6706709Y1509125D01*
X6687661Y1518649D01*
X6897185Y1604363D02*
X6859090Y1604363D01*
X6840042Y1594839D01*
X6830518Y1585315D01*
X6811471Y1556744D01*
X6801947Y1518649D01*
X6801947Y1442458D01*
X6811471Y1423411D01*
X6820994Y1413887D01*
X6840042Y1404363D01*
X6878137Y1404363D01*
X6897185Y1413887D01*
X6906709Y1423411D01*
X6916233Y1442458D01*
X6916233Y1490077D01*
X6906709Y1509125D01*
X6897185Y1518649D01*
X6878137Y1528173D01*
X6840042Y1528173D01*
X6820994Y1518649D01*
X6811471Y1509125D01*
X6801947Y1490077D01*
X7087661Y1604363D02*
X7049566Y1604363D01*
X7030518Y1594839D01*
X7020994Y1585315D01*
X7001947Y1556744D01*
X6992423Y1518649D01*
X6992423Y1442458D01*
X7001947Y1423411D01*
X7011471Y1413887D01*
X7030518Y1404363D01*
X7068613Y1404363D01*
X7087661Y1413887D01*
X7097185Y1423411D01*
X7106709Y1442458D01*
X7106709Y1490077D01*
X7097185Y1509125D01*
X7087661Y1518649D01*
X7068613Y1528173D01*
X7030518Y1528173D01*
X7011471Y1518649D01*
X7001947Y1509125D01*
X6992423Y1490077D01*
X7182899Y1604363D02*
X7182899Y1566268D01*
X7259090Y1604363D02*
X7259090Y1566268D01*
X7554328Y1328173D02*
X7544804Y1337696D01*
X7525756Y1366268D01*
X7516233Y1385315D01*
X7506709Y1413887D01*
X7497185Y1461506D01*
X7497185Y1499601D01*
X7506709Y1547220D01*
X7516233Y1575792D01*
X7525756Y1594839D01*
X7544804Y1623411D01*
X7554328Y1632934D01*
X7611471Y1604363D02*
X7735280Y1604363D01*
X7668613Y1528173D01*
X7697185Y1528173D01*
X7716233Y1518649D01*
X7725756Y1509125D01*
X7735280Y1490077D01*
X7735280Y1442458D01*
X7725756Y1423411D01*
X7716233Y1413887D01*
X7697185Y1404363D01*
X7640042Y1404363D01*
X7620994Y1413887D01*
X7611471Y1423411D01*
X7973375Y1404363D02*
X7973375Y1604363D01*
X8059090Y1404363D02*
X8059090Y1509125D01*
X8049566Y1528173D01*
X8030518Y1537696D01*
X8001947Y1537696D01*
X7982899Y1528173D01*
X7973375Y1518649D01*
X8182899Y1404363D02*
X8163852Y1413887D01*
X8154328Y1423411D01*
X8144804Y1442458D01*
X8144804Y1499601D01*
X8154328Y1518649D01*
X8163852Y1528173D01*
X8182899Y1537696D01*
X8211471Y1537696D01*
X8230518Y1528173D01*
X8240042Y1518649D01*
X8249566Y1499601D01*
X8249566Y1442458D01*
X8240042Y1423411D01*
X8230518Y1413887D01*
X8211471Y1404363D01*
X8182899Y1404363D01*
X8363852Y1404363D02*
X8344804Y1413887D01*
X8335280Y1432934D01*
X8335280Y1604363D01*
X8516233Y1413887D02*
X8497185Y1404363D01*
X8459090Y1404363D01*
X8440042Y1413887D01*
X8430518Y1432934D01*
X8430518Y1509125D01*
X8440042Y1528173D01*
X8459090Y1537696D01*
X8497185Y1537696D01*
X8516233Y1528173D01*
X8525756Y1509125D01*
X8525756Y1490077D01*
X8430518Y1471030D01*
X8601947Y1413887D02*
X8620995Y1404363D01*
X8659090Y1404363D01*
X8678137Y1413887D01*
X8687661Y1432934D01*
X8687661Y1442458D01*
X8678137Y1461506D01*
X8659090Y1471030D01*
X8630518Y1471030D01*
X8611471Y1480553D01*
X8601947Y1499601D01*
X8601947Y1509125D01*
X8611471Y1528173D01*
X8630518Y1537696D01*
X8659090Y1537696D01*
X8678137Y1528173D01*
X8754328Y1328173D02*
X8763852Y1337696D01*
X8782899Y1366268D01*
X8792423Y1385315D01*
X8801947Y1413887D01*
X8811471Y1461506D01*
X8811471Y1499601D01*
X8801947Y1547220D01*
X8792423Y1575792D01*
X8782899Y1594839D01*
X8763852Y1623411D01*
X8754328Y1632934D01*
M02*
