M48
; DRILL file {KiCad (6.0.4)} date Sun May 15 18:09:07 2022
; FORMAT={-:-/ absolute / metric / decimal}
; #@! TF.CreationDate,2022-05-15T18:09:07+02:00
; #@! TF.GenerationSoftware,Kicad,Pcbnew,(6.0.4)
; #@! TF.FileFunction,Plated,1,2,PTH
FMAT,2
METRIC
; #@! TA.AperFunction,Plated,PTH,ViaDrill
T1C0.400
; #@! TA.AperFunction,Plated,PTH,ComponentDrill
T2C1.092
; #@! TA.AperFunction,Plated,PTH,ComponentDrill
T3C1.270
; #@! TA.AperFunction,Plated,PTH,ComponentDrill
T4C1.300
; #@! TA.AperFunction,Plated,PTH,ComponentDrill
T5C2.200
%
G90
G05
T1
X152.4Y101.213
X152.4Y66.04
X154.305Y98.65
X156.39Y96.106
X158.661Y55.845
T2
X146.737Y101.226
X146.737Y98.603
X146.737Y96.063
X146.737Y93.523
X146.737Y90.983
X146.737Y88.443
X146.737Y85.903
X146.737Y83.363
X146.737Y80.823
X146.737Y78.283
X146.737Y75.743
X146.737Y73.203
X147.545Y58.164
X149.545Y58.164
X151.545Y58.164
X161.977Y101.143
X161.977Y98.603
X161.977Y96.063
X161.977Y93.523
X161.977Y90.983
X161.977Y88.443
X161.977Y85.903
X161.977Y83.363
X161.977Y80.823
X161.977Y78.283
X161.977Y75.743
X161.977Y73.203
T3
X49.172Y77.634
X54.142Y61.377
X54.567Y77.088
X54.567Y77.088
X58.735Y80.558
X59.538Y60.831
X59.538Y60.831
X63.705Y64.301
X67.123Y100.135
X70.075Y83.393
X72.412Y98.935
X72.412Y98.935
X73.027Y66.651
X75.364Y82.193
X75.364Y82.193
X76.971Y101.871
X78.316Y65.451
X78.316Y65.451
X79.923Y85.129
X82.875Y68.388
X88.09Y109.828
X89.572Y92.893
X91.054Y75.958
X93.254Y108.172
X93.254Y108.172
X94.736Y91.237
X94.736Y91.237
X96.218Y74.301
X96.218Y74.301
X98.052Y110.7
X99.534Y93.764
X101.015Y76.829
X110.411Y102.886
X110.411Y85.886
X110.411Y68.886
X112.664Y48.039
X115.411Y100.786
X115.411Y100.786
X115.411Y83.786
X115.411Y83.786
X115.411Y66.786
X115.411Y66.786
X117.171Y45.023
X117.171Y45.023
X120.411Y102.886
X120.411Y85.886
X120.411Y68.886
X122.48Y46.131
X129.218Y90.479
X129.218Y73.479
X131.165Y43.225
X134.218Y88.379
X134.218Y88.379
X134.218Y71.379
X134.218Y71.379
X134.739Y39.145
X134.739Y39.145
X139.218Y90.479
X139.218Y73.479
X140.153Y38.841
T4
X163.203Y69.153
X163.203Y62.653
T5
X84.747Y88.141
X103.797Y107.191
X103.797Y69.091
T0
M30
