%TF.GenerationSoftware,KiCad,Pcbnew,7.0.2*%
%TF.CreationDate,2024-04-19T05:30:35+02:00*%
%TF.ProjectId,Katkoot,4b61746b-6f6f-4742-9e6b-696361645f70,rev?*%
%TF.SameCoordinates,Original*%
%TF.FileFunction,Legend,Top*%
%TF.FilePolarity,Positive*%
%FSLAX46Y46*%
G04 Gerber Fmt 4.6, Leading zero omitted, Abs format (unit mm)*
G04 Created by KiCad (PCBNEW 7.0.2) date 2024-04-19 05:30:35*
%MOMM*%
%LPD*%
G01*
G04 APERTURE LIST*
%ADD10C,0.150000*%
%ADD11C,0.120000*%
%ADD12C,4.500000*%
%ADD13C,1.701800*%
%ADD14C,3.000000*%
%ADD15C,3.987800*%
%ADD16C,5.000000*%
%ADD17C,2.000000*%
%ADD18R,3.200000X2.000000*%
%ADD19O,2.750000X1.800000*%
%ADD20R,1.400000X1.400000*%
%ADD21C,1.400000*%
G04 APERTURE END LIST*
D10*
%TO.C,*%
%TO.C,SW2*%
X192436667Y-61065000D02*
X192579524Y-61112619D01*
X192579524Y-61112619D02*
X192817619Y-61112619D01*
X192817619Y-61112619D02*
X192912857Y-61065000D01*
X192912857Y-61065000D02*
X192960476Y-61017380D01*
X192960476Y-61017380D02*
X193008095Y-60922142D01*
X193008095Y-60922142D02*
X193008095Y-60826904D01*
X193008095Y-60826904D02*
X192960476Y-60731666D01*
X192960476Y-60731666D02*
X192912857Y-60684047D01*
X192912857Y-60684047D02*
X192817619Y-60636428D01*
X192817619Y-60636428D02*
X192627143Y-60588809D01*
X192627143Y-60588809D02*
X192531905Y-60541190D01*
X192531905Y-60541190D02*
X192484286Y-60493571D01*
X192484286Y-60493571D02*
X192436667Y-60398333D01*
X192436667Y-60398333D02*
X192436667Y-60303095D01*
X192436667Y-60303095D02*
X192484286Y-60207857D01*
X192484286Y-60207857D02*
X192531905Y-60160238D01*
X192531905Y-60160238D02*
X192627143Y-60112619D01*
X192627143Y-60112619D02*
X192865238Y-60112619D01*
X192865238Y-60112619D02*
X193008095Y-60160238D01*
X193341429Y-60112619D02*
X193579524Y-61112619D01*
X193579524Y-61112619D02*
X193770000Y-60398333D01*
X193770000Y-60398333D02*
X193960476Y-61112619D01*
X193960476Y-61112619D02*
X194198572Y-60112619D01*
X194531905Y-60207857D02*
X194579524Y-60160238D01*
X194579524Y-60160238D02*
X194674762Y-60112619D01*
X194674762Y-60112619D02*
X194912857Y-60112619D01*
X194912857Y-60112619D02*
X195008095Y-60160238D01*
X195008095Y-60160238D02*
X195055714Y-60207857D01*
X195055714Y-60207857D02*
X195103333Y-60303095D01*
X195103333Y-60303095D02*
X195103333Y-60398333D01*
X195103333Y-60398333D02*
X195055714Y-60541190D01*
X195055714Y-60541190D02*
X194484286Y-61112619D01*
X194484286Y-61112619D02*
X195103333Y-61112619D01*
%TO.C,SW6*%
X154066667Y-99115000D02*
X154209524Y-99162619D01*
X154209524Y-99162619D02*
X154447619Y-99162619D01*
X154447619Y-99162619D02*
X154542857Y-99115000D01*
X154542857Y-99115000D02*
X154590476Y-99067380D01*
X154590476Y-99067380D02*
X154638095Y-98972142D01*
X154638095Y-98972142D02*
X154638095Y-98876904D01*
X154638095Y-98876904D02*
X154590476Y-98781666D01*
X154590476Y-98781666D02*
X154542857Y-98734047D01*
X154542857Y-98734047D02*
X154447619Y-98686428D01*
X154447619Y-98686428D02*
X154257143Y-98638809D01*
X154257143Y-98638809D02*
X154161905Y-98591190D01*
X154161905Y-98591190D02*
X154114286Y-98543571D01*
X154114286Y-98543571D02*
X154066667Y-98448333D01*
X154066667Y-98448333D02*
X154066667Y-98353095D01*
X154066667Y-98353095D02*
X154114286Y-98257857D01*
X154114286Y-98257857D02*
X154161905Y-98210238D01*
X154161905Y-98210238D02*
X154257143Y-98162619D01*
X154257143Y-98162619D02*
X154495238Y-98162619D01*
X154495238Y-98162619D02*
X154638095Y-98210238D01*
X154971429Y-98162619D02*
X155209524Y-99162619D01*
X155209524Y-99162619D02*
X155400000Y-98448333D01*
X155400000Y-98448333D02*
X155590476Y-99162619D01*
X155590476Y-99162619D02*
X155828572Y-98162619D01*
X156638095Y-98162619D02*
X156447619Y-98162619D01*
X156447619Y-98162619D02*
X156352381Y-98210238D01*
X156352381Y-98210238D02*
X156304762Y-98257857D01*
X156304762Y-98257857D02*
X156209524Y-98400714D01*
X156209524Y-98400714D02*
X156161905Y-98591190D01*
X156161905Y-98591190D02*
X156161905Y-98972142D01*
X156161905Y-98972142D02*
X156209524Y-99067380D01*
X156209524Y-99067380D02*
X156257143Y-99115000D01*
X156257143Y-99115000D02*
X156352381Y-99162619D01*
X156352381Y-99162619D02*
X156542857Y-99162619D01*
X156542857Y-99162619D02*
X156638095Y-99115000D01*
X156638095Y-99115000D02*
X156685714Y-99067380D01*
X156685714Y-99067380D02*
X156733333Y-98972142D01*
X156733333Y-98972142D02*
X156733333Y-98734047D01*
X156733333Y-98734047D02*
X156685714Y-98638809D01*
X156685714Y-98638809D02*
X156638095Y-98591190D01*
X156638095Y-98591190D02*
X156542857Y-98543571D01*
X156542857Y-98543571D02*
X156352381Y-98543571D01*
X156352381Y-98543571D02*
X156257143Y-98591190D01*
X156257143Y-98591190D02*
X156209524Y-98638809D01*
X156209524Y-98638809D02*
X156161905Y-98734047D01*
%TO.C,SW8*%
X173111667Y-99115000D02*
X173254524Y-99162619D01*
X173254524Y-99162619D02*
X173492619Y-99162619D01*
X173492619Y-99162619D02*
X173587857Y-99115000D01*
X173587857Y-99115000D02*
X173635476Y-99067380D01*
X173635476Y-99067380D02*
X173683095Y-98972142D01*
X173683095Y-98972142D02*
X173683095Y-98876904D01*
X173683095Y-98876904D02*
X173635476Y-98781666D01*
X173635476Y-98781666D02*
X173587857Y-98734047D01*
X173587857Y-98734047D02*
X173492619Y-98686428D01*
X173492619Y-98686428D02*
X173302143Y-98638809D01*
X173302143Y-98638809D02*
X173206905Y-98591190D01*
X173206905Y-98591190D02*
X173159286Y-98543571D01*
X173159286Y-98543571D02*
X173111667Y-98448333D01*
X173111667Y-98448333D02*
X173111667Y-98353095D01*
X173111667Y-98353095D02*
X173159286Y-98257857D01*
X173159286Y-98257857D02*
X173206905Y-98210238D01*
X173206905Y-98210238D02*
X173302143Y-98162619D01*
X173302143Y-98162619D02*
X173540238Y-98162619D01*
X173540238Y-98162619D02*
X173683095Y-98210238D01*
X174016429Y-98162619D02*
X174254524Y-99162619D01*
X174254524Y-99162619D02*
X174445000Y-98448333D01*
X174445000Y-98448333D02*
X174635476Y-99162619D01*
X174635476Y-99162619D02*
X174873572Y-98162619D01*
X175397381Y-98591190D02*
X175302143Y-98543571D01*
X175302143Y-98543571D02*
X175254524Y-98495952D01*
X175254524Y-98495952D02*
X175206905Y-98400714D01*
X175206905Y-98400714D02*
X175206905Y-98353095D01*
X175206905Y-98353095D02*
X175254524Y-98257857D01*
X175254524Y-98257857D02*
X175302143Y-98210238D01*
X175302143Y-98210238D02*
X175397381Y-98162619D01*
X175397381Y-98162619D02*
X175587857Y-98162619D01*
X175587857Y-98162619D02*
X175683095Y-98210238D01*
X175683095Y-98210238D02*
X175730714Y-98257857D01*
X175730714Y-98257857D02*
X175778333Y-98353095D01*
X175778333Y-98353095D02*
X175778333Y-98400714D01*
X175778333Y-98400714D02*
X175730714Y-98495952D01*
X175730714Y-98495952D02*
X175683095Y-98543571D01*
X175683095Y-98543571D02*
X175587857Y-98591190D01*
X175587857Y-98591190D02*
X175397381Y-98591190D01*
X175397381Y-98591190D02*
X175302143Y-98638809D01*
X175302143Y-98638809D02*
X175254524Y-98686428D01*
X175254524Y-98686428D02*
X175206905Y-98781666D01*
X175206905Y-98781666D02*
X175206905Y-98972142D01*
X175206905Y-98972142D02*
X175254524Y-99067380D01*
X175254524Y-99067380D02*
X175302143Y-99115000D01*
X175302143Y-99115000D02*
X175397381Y-99162619D01*
X175397381Y-99162619D02*
X175587857Y-99162619D01*
X175587857Y-99162619D02*
X175683095Y-99115000D01*
X175683095Y-99115000D02*
X175730714Y-99067380D01*
X175730714Y-99067380D02*
X175778333Y-98972142D01*
X175778333Y-98972142D02*
X175778333Y-98781666D01*
X175778333Y-98781666D02*
X175730714Y-98686428D01*
X175730714Y-98686428D02*
X175683095Y-98638809D01*
X175683095Y-98638809D02*
X175587857Y-98591190D01*
%TO.C,SW5*%
X135066667Y-99115000D02*
X135209524Y-99162619D01*
X135209524Y-99162619D02*
X135447619Y-99162619D01*
X135447619Y-99162619D02*
X135542857Y-99115000D01*
X135542857Y-99115000D02*
X135590476Y-99067380D01*
X135590476Y-99067380D02*
X135638095Y-98972142D01*
X135638095Y-98972142D02*
X135638095Y-98876904D01*
X135638095Y-98876904D02*
X135590476Y-98781666D01*
X135590476Y-98781666D02*
X135542857Y-98734047D01*
X135542857Y-98734047D02*
X135447619Y-98686428D01*
X135447619Y-98686428D02*
X135257143Y-98638809D01*
X135257143Y-98638809D02*
X135161905Y-98591190D01*
X135161905Y-98591190D02*
X135114286Y-98543571D01*
X135114286Y-98543571D02*
X135066667Y-98448333D01*
X135066667Y-98448333D02*
X135066667Y-98353095D01*
X135066667Y-98353095D02*
X135114286Y-98257857D01*
X135114286Y-98257857D02*
X135161905Y-98210238D01*
X135161905Y-98210238D02*
X135257143Y-98162619D01*
X135257143Y-98162619D02*
X135495238Y-98162619D01*
X135495238Y-98162619D02*
X135638095Y-98210238D01*
X135971429Y-98162619D02*
X136209524Y-99162619D01*
X136209524Y-99162619D02*
X136400000Y-98448333D01*
X136400000Y-98448333D02*
X136590476Y-99162619D01*
X136590476Y-99162619D02*
X136828572Y-98162619D01*
X137685714Y-98162619D02*
X137209524Y-98162619D01*
X137209524Y-98162619D02*
X137161905Y-98638809D01*
X137161905Y-98638809D02*
X137209524Y-98591190D01*
X137209524Y-98591190D02*
X137304762Y-98543571D01*
X137304762Y-98543571D02*
X137542857Y-98543571D01*
X137542857Y-98543571D02*
X137638095Y-98591190D01*
X137638095Y-98591190D02*
X137685714Y-98638809D01*
X137685714Y-98638809D02*
X137733333Y-98734047D01*
X137733333Y-98734047D02*
X137733333Y-98972142D01*
X137733333Y-98972142D02*
X137685714Y-99067380D01*
X137685714Y-99067380D02*
X137638095Y-99115000D01*
X137638095Y-99115000D02*
X137542857Y-99162619D01*
X137542857Y-99162619D02*
X137304762Y-99162619D01*
X137304762Y-99162619D02*
X137209524Y-99115000D01*
X137209524Y-99115000D02*
X137161905Y-99067380D01*
%TO.C,*%
%TO.C,SW3*%
X192436667Y-80065000D02*
X192579524Y-80112619D01*
X192579524Y-80112619D02*
X192817619Y-80112619D01*
X192817619Y-80112619D02*
X192912857Y-80065000D01*
X192912857Y-80065000D02*
X192960476Y-80017380D01*
X192960476Y-80017380D02*
X193008095Y-79922142D01*
X193008095Y-79922142D02*
X193008095Y-79826904D01*
X193008095Y-79826904D02*
X192960476Y-79731666D01*
X192960476Y-79731666D02*
X192912857Y-79684047D01*
X192912857Y-79684047D02*
X192817619Y-79636428D01*
X192817619Y-79636428D02*
X192627143Y-79588809D01*
X192627143Y-79588809D02*
X192531905Y-79541190D01*
X192531905Y-79541190D02*
X192484286Y-79493571D01*
X192484286Y-79493571D02*
X192436667Y-79398333D01*
X192436667Y-79398333D02*
X192436667Y-79303095D01*
X192436667Y-79303095D02*
X192484286Y-79207857D01*
X192484286Y-79207857D02*
X192531905Y-79160238D01*
X192531905Y-79160238D02*
X192627143Y-79112619D01*
X192627143Y-79112619D02*
X192865238Y-79112619D01*
X192865238Y-79112619D02*
X193008095Y-79160238D01*
X193341429Y-79112619D02*
X193579524Y-80112619D01*
X193579524Y-80112619D02*
X193770000Y-79398333D01*
X193770000Y-79398333D02*
X193960476Y-80112619D01*
X193960476Y-80112619D02*
X194198572Y-79112619D01*
X194484286Y-79112619D02*
X195103333Y-79112619D01*
X195103333Y-79112619D02*
X194770000Y-79493571D01*
X194770000Y-79493571D02*
X194912857Y-79493571D01*
X194912857Y-79493571D02*
X195008095Y-79541190D01*
X195008095Y-79541190D02*
X195055714Y-79588809D01*
X195055714Y-79588809D02*
X195103333Y-79684047D01*
X195103333Y-79684047D02*
X195103333Y-79922142D01*
X195103333Y-79922142D02*
X195055714Y-80017380D01*
X195055714Y-80017380D02*
X195008095Y-80065000D01*
X195008095Y-80065000D02*
X194912857Y-80112619D01*
X194912857Y-80112619D02*
X194627143Y-80112619D01*
X194627143Y-80112619D02*
X194531905Y-80065000D01*
X194531905Y-80065000D02*
X194484286Y-80017380D01*
%TO.C,*%
D11*
%TO.C,SW1*%
X188700000Y-103800000D02*
X188700000Y-115600000D01*
X192800000Y-103800000D02*
X188700000Y-103800000D01*
X192800000Y-115600000D02*
X188700000Y-115600000D01*
X194300000Y-109700000D02*
X195300000Y-109700000D01*
X194800000Y-109200000D02*
X194800000Y-110200000D01*
X196800000Y-103800000D02*
X200900000Y-103800000D01*
X200900000Y-103800000D02*
X200900000Y-106200000D01*
X200900000Y-108400000D02*
X200900000Y-111000000D01*
X200900000Y-113200000D02*
X200900000Y-115600000D01*
X200900000Y-115600000D02*
X196800000Y-115600000D01*
X197800000Y-109700000D02*
G75*
G03*
X197800000Y-109700000I-3000000J0D01*
G01*
%TD*%
%LPC*%
D12*
%TO.C,*%
X129300000Y-52300000D03*
%TD*%
D13*
%TO.C,SW2*%
X188170000Y-69150000D03*
X188590000Y-69150000D03*
D14*
X188670000Y-72900000D03*
X188670000Y-72950000D03*
X189270000Y-73850000D03*
X191130000Y-74230000D03*
D15*
X193670000Y-69150000D03*
D16*
X193670000Y-69150000D03*
D14*
X193670000Y-75050000D03*
X196270000Y-74900000D03*
X197480000Y-71690000D03*
D13*
X198750000Y-69150000D03*
X199170000Y-69150000D03*
%TD*%
D17*
%TO.C,SW1*%
X187300000Y-107200000D03*
X187300000Y-112200000D03*
X187300000Y-109700000D03*
D18*
X194800000Y-104100000D03*
X194800000Y-115300000D03*
D17*
X201800000Y-112200000D03*
X201800000Y-107200000D03*
%TD*%
D13*
%TO.C,SW6*%
X149800000Y-107200000D03*
X150220000Y-107200000D03*
D14*
X150300000Y-110950000D03*
X150300000Y-111000000D03*
X150900000Y-111900000D03*
X152760000Y-112280000D03*
D15*
X155300000Y-107200000D03*
D16*
X155300000Y-107200000D03*
D14*
X155300000Y-113100000D03*
X157900000Y-112950000D03*
X159110000Y-109740000D03*
D13*
X160380000Y-107200000D03*
X160800000Y-107200000D03*
%TD*%
%TO.C,SW8*%
X168845000Y-107200000D03*
X169265000Y-107200000D03*
D14*
X169345000Y-110950000D03*
X169345000Y-111000000D03*
X169945000Y-111900000D03*
X171805000Y-112280000D03*
D15*
X174345000Y-107200000D03*
D16*
X174345000Y-107200000D03*
D14*
X174345000Y-113100000D03*
X176945000Y-112950000D03*
X178155000Y-109740000D03*
D13*
X179425000Y-107200000D03*
X179845000Y-107200000D03*
%TD*%
%TO.C,SW5*%
X130800000Y-107200000D03*
X131220000Y-107200000D03*
D14*
X131300000Y-110950000D03*
X131300000Y-111000000D03*
X131900000Y-111900000D03*
X133760000Y-112280000D03*
D15*
X136300000Y-107200000D03*
D16*
X136300000Y-107200000D03*
D14*
X136300000Y-113100000D03*
X138900000Y-112950000D03*
X140110000Y-109740000D03*
D13*
X141380000Y-107200000D03*
X141800000Y-107200000D03*
%TD*%
D12*
%TO.C,*%
X159150000Y-72850000D03*
%TD*%
%TO.C,*%
X129550000Y-100150000D03*
%TD*%
%TO.C,*%
X179250000Y-39150000D03*
%TD*%
D13*
%TO.C,SW3*%
X188170000Y-88150000D03*
X188590000Y-88150000D03*
D14*
X188670000Y-91900000D03*
X188670000Y-91950000D03*
X189270000Y-92850000D03*
X191130000Y-93230000D03*
D15*
X193670000Y-88150000D03*
D16*
X193670000Y-88150000D03*
D14*
X193670000Y-94050000D03*
X196270000Y-93900000D03*
X197480000Y-90690000D03*
D13*
X198750000Y-88150000D03*
X199170000Y-88150000D03*
%TD*%
D19*
%TO.C,U3*%
X184755000Y-37780000D03*
X184755000Y-40320000D03*
X184755000Y-42860000D03*
X184755000Y-45400000D03*
X184755000Y-47940000D03*
X184755000Y-50480000D03*
X184755000Y-53020000D03*
X200945000Y-53020000D03*
X200945000Y-50480000D03*
X200945000Y-47940000D03*
X200945000Y-45400000D03*
X200945000Y-42860000D03*
X200945000Y-40320000D03*
X200945000Y-37780000D03*
%TD*%
D12*
%TO.C,*%
X197000000Y-99750000D03*
%TD*%
D20*
%TO.C,U2*%
X144400000Y-55450000D03*
D21*
X144400000Y-57230000D03*
X144400000Y-59010000D03*
X144400000Y-60790000D03*
X144400000Y-62570000D03*
X144400000Y-64350000D03*
X144400000Y-66130000D03*
X144400000Y-67910000D03*
X133700000Y-68800000D03*
X133700000Y-67020000D03*
X133700000Y-65240000D03*
X133700000Y-63460000D03*
X133700000Y-61680000D03*
X133700000Y-59900000D03*
X133700000Y-58120000D03*
X133700000Y-56340000D03*
%TD*%
%LPD*%
M02*
