M48
; DRILL file {KiCad 7.0.2} date Tue Jun 25 21:28:31 2024
; FORMAT={-:-/ absolute / inch / decimal}
; #@! TF.CreationDate,2024-06-25T21:28:31+02:00
; #@! TF.GenerationSoftware,Kicad,Pcbnew,7.0.2
; #@! TF.FileFunction,Plated,1,2,PTH
FMAT,2
INCH
; #@! TA.AperFunction,Plated,PTH,ViaDrill
T1C0.0157
; #@! TA.AperFunction,Plated,PTH,ComponentDrill
T2C0.0276
; #@! TA.AperFunction,Plated,PTH,ComponentDrill
T3C0.0394
; #@! TA.AperFunction,Plated,PTH,ComponentDrill
T4C0.0591
; #@! TA.AperFunction,Plated,PTH,ComponentDrill
T5C0.1260
%
G90
G05
T1
X4.3484Y-4.5512
X4.437Y-4.0531
X4.9449Y-4.5059
X5.0433Y-2.3622
X5.0433Y-2.6063
X5.0571Y-2.8799
X5.0709Y-2.6791
X5.0984Y-2.5059
X5.1117Y-2.7151
X5.1161Y-2.4291
X5.123Y-2.7667
X5.1299Y-2.5787
X5.2028Y-2.1634
X5.2441Y-2.002
X5.4311Y-4.0394
X5.4626Y-2.0118
X5.6988Y-4.4882
X5.7362Y-2.3819
X5.7402Y-2.5374
X5.7598Y-2.2224
X5.7992Y-4.4823
X5.815Y-4.5748
X5.874Y-2.8878
X5.8878Y-2.2402
X5.9035Y-2.4252
X5.9114Y-2.4961
X5.9213Y-2.5394
X5.9449Y-2.3465
X5.9483Y-2.84
X5.9577Y-2.7903
X5.9665Y-2.0374
X5.9823Y-2.2165
X5.9862Y-2.4941
X5.9926Y-2.7151
X5.9941Y-2.4094
X5.9941Y-2.6713
X5.9961Y-2.2736
X5.998Y-2.1299
X6.0Y-2.3169
X6.0246Y-2.8041
X6.063Y-2.4114
X6.0635Y-2.2465
X6.1437Y-2.7992
X6.1535Y-4.0787
X6.185Y-2.3307
X6.1929Y-3.8819
X6.2008Y-2.4154
X6.2343Y-2.4469
X6.3445Y-2.187
X7.1772Y-4.5748
X7.1969Y-2.4843
X7.1969Y-2.5236
X7.2362Y-2.435
X7.2717Y-4.5492
X7.2736Y-3.0472
X7.2884Y-3.7402
X7.2913Y-4.124
X7.2972Y-3.9921
X7.3346Y-3.9291
X7.3858Y-2.2185
X7.4055Y-1.7933
X7.4232Y-3.0472
X7.437Y-2.6299
X7.4449Y-1.5945
X7.4469Y-2.1772
X7.4469Y-2.4862
X7.4665Y-3.9291
X7.4685Y-2.7795
X7.4902Y-3.1398
X7.4902Y-3.5315
X7.4961Y-4.2717
X7.5315Y-1.7146
X7.5846Y-1.8957
X7.5906Y-2.2461
X7.5945Y-3.8937
X7.6457Y-1.7008
X7.6457Y-2.5256
X7.6742Y-2.377
X7.6929Y-1.7874
X7.7116Y-2.3573
X7.7205Y-2.0886
X7.7224Y-3.2933
X7.7402Y-1.8878
X7.7559Y-2.3406
X7.7894Y-1.9921
X7.8031Y-2.2992
X7.8366Y-2.2146
X7.8504Y-4.3681
X7.878Y-2.1752
X7.8996Y-3.1378
X7.9902Y-2.25
X7.9902Y-2.5039
X7.9902Y-3.2579
T2
X5.2638Y-2.2181
X5.2638Y-2.2882
X5.2638Y-2.3583
X5.2638Y-2.4283
X5.2638Y-2.4984
X5.2638Y-2.5685
X5.2638Y-2.6386
X5.2638Y-2.7087
X5.685Y-2.1831
X5.685Y-2.2531
X5.685Y-2.3232
X5.685Y-2.3933
X5.685Y-2.4634
X5.685Y-2.5335
X5.685Y-2.6035
X5.685Y-2.6736
T3
X7.2925Y-1.4874
X7.2925Y-1.5874
X7.2925Y-1.6874
X7.2925Y-1.7874
X7.2925Y-1.8874
X7.2925Y-1.9874
X7.2925Y-2.0874
X7.374Y-4.2205
X7.374Y-4.3189
X7.374Y-4.4173
X7.8925Y-1.4874
X7.8925Y-1.5874
X7.8925Y-1.6874
X7.8925Y-1.7874
X7.8925Y-1.8874
X7.8925Y-1.9874
X7.8925Y-2.0874
X7.9449Y-4.2205
X7.9449Y-4.4173
T5
X5.0906Y-2.0591
X5.1004Y-3.9429
X6.2657Y-2.8681
X7.0571Y-1.5413
X7.7559Y-3.9272
T4
G00X7.6437Y-4.0984
M15
G01X7.6949Y-4.0984
M16
G05
G00X7.6437Y-4.5394
M15
G01X7.6949Y-4.5394
M16
G05
T0
M30
