%TF.GenerationSoftware,KiCad,Pcbnew,7.0.2*%
%TF.CreationDate,2024-04-19T05:30:35+02:00*%
%TF.ProjectId,Katkoot,4b61746b-6f6f-4742-9e6b-696361645f70,rev?*%
%TF.SameCoordinates,Original*%
%TF.FileFunction,Soldermask,Top*%
%TF.FilePolarity,Negative*%
%FSLAX46Y46*%
G04 Gerber Fmt 4.6, Leading zero omitted, Abs format (unit mm)*
G04 Created by KiCad (PCBNEW 7.0.2) date 2024-04-19 05:30:35*
%MOMM*%
%LPD*%
G01*
G04 APERTURE LIST*
%ADD10C,4.500000*%
%ADD11C,1.701800*%
%ADD12C,3.000000*%
%ADD13C,3.987800*%
%ADD14C,5.000000*%
%ADD15C,2.000000*%
%ADD16R,3.200000X2.000000*%
%ADD17O,2.750000X1.800000*%
%ADD18R,1.400000X1.400000*%
%ADD19C,1.400000*%
G04 APERTURE END LIST*
D10*
%TO.C,*%
X129300000Y-52300000D03*
%TD*%
D11*
%TO.C,SW2*%
X188170000Y-69150000D03*
X188590000Y-69150000D03*
D12*
X188670000Y-72900000D03*
X188670000Y-72950000D03*
X189270000Y-73850000D03*
X191130000Y-74230000D03*
D13*
X193670000Y-69150000D03*
D14*
X193670000Y-69150000D03*
D12*
X193670000Y-75050000D03*
X196270000Y-74900000D03*
X197480000Y-71690000D03*
D11*
X198750000Y-69150000D03*
X199170000Y-69150000D03*
%TD*%
D15*
%TO.C,SW1*%
X187300000Y-107200000D03*
X187300000Y-112200000D03*
X187300000Y-109700000D03*
D16*
X194800000Y-104100000D03*
X194800000Y-115300000D03*
D15*
X201800000Y-112200000D03*
X201800000Y-107200000D03*
%TD*%
D11*
%TO.C,SW6*%
X149800000Y-107200000D03*
X150220000Y-107200000D03*
D12*
X150300000Y-110950000D03*
X150300000Y-111000000D03*
X150900000Y-111900000D03*
X152760000Y-112280000D03*
D13*
X155300000Y-107200000D03*
D14*
X155300000Y-107200000D03*
D12*
X155300000Y-113100000D03*
X157900000Y-112950000D03*
X159110000Y-109740000D03*
D11*
X160380000Y-107200000D03*
X160800000Y-107200000D03*
%TD*%
%TO.C,SW8*%
X168845000Y-107200000D03*
X169265000Y-107200000D03*
D12*
X169345000Y-110950000D03*
X169345000Y-111000000D03*
X169945000Y-111900000D03*
X171805000Y-112280000D03*
D13*
X174345000Y-107200000D03*
D14*
X174345000Y-107200000D03*
D12*
X174345000Y-113100000D03*
X176945000Y-112950000D03*
X178155000Y-109740000D03*
D11*
X179425000Y-107200000D03*
X179845000Y-107200000D03*
%TD*%
%TO.C,SW5*%
X130800000Y-107200000D03*
X131220000Y-107200000D03*
D12*
X131300000Y-110950000D03*
X131300000Y-111000000D03*
X131900000Y-111900000D03*
X133760000Y-112280000D03*
D13*
X136300000Y-107200000D03*
D14*
X136300000Y-107200000D03*
D12*
X136300000Y-113100000D03*
X138900000Y-112950000D03*
X140110000Y-109740000D03*
D11*
X141380000Y-107200000D03*
X141800000Y-107200000D03*
%TD*%
D10*
%TO.C,*%
X159150000Y-72850000D03*
%TD*%
%TO.C,*%
X129550000Y-100150000D03*
%TD*%
%TO.C,*%
X179250000Y-39150000D03*
%TD*%
D11*
%TO.C,SW3*%
X188170000Y-88150000D03*
X188590000Y-88150000D03*
D12*
X188670000Y-91900000D03*
X188670000Y-91950000D03*
X189270000Y-92850000D03*
X191130000Y-93230000D03*
D13*
X193670000Y-88150000D03*
D14*
X193670000Y-88150000D03*
D12*
X193670000Y-94050000D03*
X196270000Y-93900000D03*
X197480000Y-90690000D03*
D11*
X198750000Y-88150000D03*
X199170000Y-88150000D03*
%TD*%
D17*
%TO.C,U3*%
X184755000Y-37780000D03*
X184755000Y-40320000D03*
X184755000Y-42860000D03*
X184755000Y-45400000D03*
X184755000Y-47940000D03*
X184755000Y-50480000D03*
X184755000Y-53020000D03*
X200945000Y-53020000D03*
X200945000Y-50480000D03*
X200945000Y-47940000D03*
X200945000Y-45400000D03*
X200945000Y-42860000D03*
X200945000Y-40320000D03*
X200945000Y-37780000D03*
%TD*%
D10*
%TO.C,*%
X197000000Y-99750000D03*
%TD*%
D18*
%TO.C,U2*%
X144400000Y-55450000D03*
D19*
X144400000Y-57230000D03*
X144400000Y-59010000D03*
X144400000Y-60790000D03*
X144400000Y-62570000D03*
X144400000Y-64350000D03*
X144400000Y-66130000D03*
X144400000Y-67910000D03*
X133700000Y-68800000D03*
X133700000Y-67020000D03*
X133700000Y-65240000D03*
X133700000Y-63460000D03*
X133700000Y-61680000D03*
X133700000Y-59900000D03*
X133700000Y-58120000D03*
X133700000Y-56340000D03*
%TD*%
M02*
