%TF.GenerationSoftware,KiCad,Pcbnew,7.0.2*%
%TF.CreationDate,2024-04-19T05:30:35+02:00*%
%TF.ProjectId,Katkoot,4b61746b-6f6f-4742-9e6b-696361645f70,rev?*%
%TF.SameCoordinates,Original*%
%TF.FileFunction,Soldermask,Bot*%
%TF.FilePolarity,Negative*%
%FSLAX46Y46*%
G04 Gerber Fmt 4.6, Leading zero omitted, Abs format (unit mm)*
G04 Created by KiCad (PCBNEW 7.0.2) date 2024-04-19 05:30:35*
%MOMM*%
%LPD*%
G01*
G04 APERTURE LIST*
G04 Aperture macros list*
%AMRoundRect*
0 Rectangle with rounded corners*
0 $1 Rounding radius*
0 $2 $3 $4 $5 $6 $7 $8 $9 X,Y pos of 4 corners*
0 Add a 4 corners polygon primitive as box body*
4,1,4,$2,$3,$4,$5,$6,$7,$8,$9,$2,$3,0*
0 Add four circle primitives for the rounded corners*
1,1,$1+$1,$2,$3*
1,1,$1+$1,$4,$5*
1,1,$1+$1,$6,$7*
1,1,$1+$1,$8,$9*
0 Add four rect primitives between the rounded corners*
20,1,$1+$1,$2,$3,$4,$5,0*
20,1,$1+$1,$4,$5,$6,$7,0*
20,1,$1+$1,$6,$7,$8,$9,0*
20,1,$1+$1,$8,$9,$2,$3,0*%
G04 Aperture macros list end*
%ADD10C,4.500000*%
%ADD11C,1.701800*%
%ADD12C,3.000000*%
%ADD13C,3.987800*%
%ADD14C,5.000000*%
%ADD15R,2.600000X2.600000*%
%ADD16R,2.550000X2.500000*%
%ADD17C,2.000000*%
%ADD18R,3.200000X2.000000*%
%ADD19O,2.750000X1.800000*%
%ADD20RoundRect,0.250000X0.450000X-0.262500X0.450000X0.262500X-0.450000X0.262500X-0.450000X-0.262500X0*%
%ADD21R,1.250000X0.280000*%
%ADD22R,2.000000X1.800000*%
%ADD23RoundRect,0.225000X0.375000X-0.225000X0.375000X0.225000X-0.375000X0.225000X-0.375000X-0.225000X0*%
%ADD24R,1.400000X1.400000*%
%ADD25C,1.400000*%
%ADD26RoundRect,0.250000X0.250000X0.475000X-0.250000X0.475000X-0.250000X-0.475000X0.250000X-0.475000X0*%
%ADD27RoundRect,0.250000X-0.250000X-0.475000X0.250000X-0.475000X0.250000X0.475000X-0.250000X0.475000X0*%
%ADD28RoundRect,0.250000X-0.262500X-0.450000X0.262500X-0.450000X0.262500X0.450000X-0.262500X0.450000X0*%
%ADD29RoundRect,0.225000X0.225000X0.375000X-0.225000X0.375000X-0.225000X-0.375000X0.225000X-0.375000X0*%
%ADD30RoundRect,0.250000X-0.450000X0.262500X-0.450000X-0.262500X0.450000X-0.262500X0.450000X0.262500X0*%
%ADD31RoundRect,0.150000X-0.512500X-0.150000X0.512500X-0.150000X0.512500X0.150000X-0.512500X0.150000X0*%
G04 APERTURE END LIST*
D10*
%TO.C,*%
X129300000Y-52300000D03*
%TD*%
D11*
%TO.C,SW2*%
X188170000Y-69150000D03*
X188590000Y-69150000D03*
D12*
X188670000Y-72900000D03*
X188670000Y-72950000D03*
X189270000Y-73850000D03*
X191130000Y-74230000D03*
D13*
X193670000Y-69150000D03*
D14*
X193670000Y-69150000D03*
D12*
X193670000Y-75050000D03*
X196270000Y-74900000D03*
X197480000Y-71690000D03*
D11*
X198750000Y-69150000D03*
X199170000Y-69150000D03*
D15*
X185395000Y-72950000D03*
X185995000Y-73850000D03*
D16*
X187380000Y-74230000D03*
D15*
X196945000Y-75050000D03*
X199545000Y-74900000D03*
D16*
X201230000Y-71690000D03*
%TD*%
D17*
%TO.C,SW1*%
X187300000Y-107200000D03*
X187300000Y-112200000D03*
X187300000Y-109700000D03*
D18*
X194800000Y-104100000D03*
X194800000Y-115300000D03*
D17*
X201800000Y-112200000D03*
X201800000Y-107200000D03*
%TD*%
D11*
%TO.C,SW6*%
X149800000Y-107200000D03*
X150220000Y-107200000D03*
D12*
X150300000Y-110950000D03*
X150300000Y-111000000D03*
X150900000Y-111900000D03*
X152760000Y-112280000D03*
D13*
X155300000Y-107200000D03*
D14*
X155300000Y-107200000D03*
D12*
X155300000Y-113100000D03*
X157900000Y-112950000D03*
X159110000Y-109740000D03*
D11*
X160380000Y-107200000D03*
X160800000Y-107200000D03*
D15*
X147025000Y-111000000D03*
X147625000Y-111900000D03*
D16*
X149010000Y-112280000D03*
D15*
X158575000Y-113100000D03*
X161175000Y-112950000D03*
D16*
X162860000Y-109740000D03*
%TD*%
D11*
%TO.C,SW8*%
X168845000Y-107200000D03*
X169265000Y-107200000D03*
D12*
X169345000Y-110950000D03*
X169345000Y-111000000D03*
X169945000Y-111900000D03*
X171805000Y-112280000D03*
D13*
X174345000Y-107200000D03*
D14*
X174345000Y-107200000D03*
D12*
X174345000Y-113100000D03*
X176945000Y-112950000D03*
X178155000Y-109740000D03*
D11*
X179425000Y-107200000D03*
X179845000Y-107200000D03*
D15*
X166070000Y-111000000D03*
X166670000Y-111900000D03*
D16*
X168055000Y-112280000D03*
D15*
X177620000Y-113100000D03*
X180220000Y-112950000D03*
D16*
X181905000Y-109740000D03*
%TD*%
D11*
%TO.C,SW5*%
X130800000Y-107200000D03*
X131220000Y-107200000D03*
D12*
X131300000Y-110950000D03*
X131300000Y-111000000D03*
X131900000Y-111900000D03*
X133760000Y-112280000D03*
D13*
X136300000Y-107200000D03*
D14*
X136300000Y-107200000D03*
D12*
X136300000Y-113100000D03*
X138900000Y-112950000D03*
X140110000Y-109740000D03*
D11*
X141380000Y-107200000D03*
X141800000Y-107200000D03*
D15*
X128025000Y-111000000D03*
X128625000Y-111900000D03*
D16*
X130010000Y-112280000D03*
D15*
X139575000Y-113100000D03*
X142175000Y-112950000D03*
D16*
X143860000Y-109740000D03*
%TD*%
D10*
%TO.C,*%
X159150000Y-72850000D03*
%TD*%
%TO.C,*%
X129550000Y-100150000D03*
%TD*%
%TO.C,*%
X179250000Y-39150000D03*
%TD*%
D11*
%TO.C,SW3*%
X188170000Y-88150000D03*
X188590000Y-88150000D03*
D12*
X188670000Y-91900000D03*
X188670000Y-91950000D03*
X189270000Y-92850000D03*
X191130000Y-93230000D03*
D13*
X193670000Y-88150000D03*
D14*
X193670000Y-88150000D03*
D12*
X193670000Y-94050000D03*
X196270000Y-93900000D03*
X197480000Y-90690000D03*
D11*
X198750000Y-88150000D03*
X199170000Y-88150000D03*
D15*
X185395000Y-91950000D03*
X185995000Y-92850000D03*
D16*
X187380000Y-93230000D03*
D15*
X196945000Y-94050000D03*
X199545000Y-93900000D03*
D16*
X201230000Y-90690000D03*
%TD*%
D19*
%TO.C,U3*%
X184755000Y-37780000D03*
X184755000Y-40320000D03*
X184755000Y-42860000D03*
X184755000Y-45400000D03*
X184755000Y-47940000D03*
X184755000Y-50480000D03*
X184755000Y-53020000D03*
X200945000Y-53020000D03*
X200945000Y-50480000D03*
X200945000Y-47940000D03*
X200945000Y-45400000D03*
X200945000Y-42860000D03*
X200945000Y-40320000D03*
X200945000Y-37780000D03*
%TD*%
D10*
%TO.C,*%
X197000000Y-99750000D03*
%TD*%
D20*
%TO.C,R1*%
X131684000Y-59990500D03*
X131684000Y-58165500D03*
%TD*%
D21*
%TO.C,J2*%
X155732000Y-57100000D03*
X155732000Y-57600000D03*
X155732000Y-58100000D03*
X155732000Y-58600000D03*
X155732000Y-59100000D03*
X155732000Y-59600000D03*
X155732000Y-60100000D03*
X155732000Y-60600000D03*
X155732000Y-61100000D03*
X155732000Y-61600000D03*
X155732000Y-62100000D03*
X155732000Y-62600000D03*
D22*
X158456000Y-64400000D03*
X158456000Y-55300000D03*
%TD*%
D23*
%TO.C,D5*%
X162052000Y-103046800D03*
X162052000Y-99746800D03*
%TD*%
D24*
%TO.C,U2*%
X144400000Y-55450000D03*
D25*
X144400000Y-57230000D03*
X144400000Y-59010000D03*
X144400000Y-60790000D03*
X144400000Y-62570000D03*
X144400000Y-64350000D03*
X144400000Y-66130000D03*
X144400000Y-67910000D03*
X133700000Y-68800000D03*
X133700000Y-67020000D03*
X133700000Y-65240000D03*
X133700000Y-63460000D03*
X133700000Y-61680000D03*
X133700000Y-59900000D03*
X133700000Y-58120000D03*
X133700000Y-56340000D03*
%TD*%
D26*
%TO.C,C1*%
X148636000Y-63904000D03*
X146736000Y-63904000D03*
%TD*%
D23*
%TO.C,D7*%
X181102000Y-103097600D03*
X181102000Y-99797600D03*
%TD*%
%TO.C,D4*%
X143002000Y-102792800D03*
X143002000Y-99492800D03*
%TD*%
D21*
%TO.C,J1*%
X187124000Y-64150000D03*
X187124000Y-63650000D03*
X187124000Y-63150000D03*
X187124000Y-62650000D03*
X187124000Y-62150000D03*
X187124000Y-61650000D03*
X187124000Y-61150000D03*
X187124000Y-60650000D03*
X187124000Y-60150000D03*
X187124000Y-59650000D03*
X187124000Y-59150000D03*
X187124000Y-58650000D03*
D22*
X184400000Y-56850000D03*
X184400000Y-65950000D03*
%TD*%
D27*
%TO.C,C3*%
X146736000Y-59332000D03*
X148636000Y-59332000D03*
%TD*%
D28*
%TO.C,R2*%
X146773500Y-66190000D03*
X148598500Y-66190000D03*
%TD*%
D29*
%TO.C,D8*%
X197250000Y-108450000D03*
X193950000Y-108450000D03*
%TD*%
D23*
%TO.C,D2*%
X201218800Y-86079600D03*
X201218800Y-82779600D03*
%TD*%
D30*
%TO.C,R3*%
X131684000Y-63499500D03*
X131684000Y-65324500D03*
%TD*%
D26*
%TO.C,C2*%
X148636000Y-68476000D03*
X146736000Y-68476000D03*
%TD*%
D31*
%TO.C,U1*%
X146802500Y-53678000D03*
X146802500Y-52728000D03*
X146802500Y-51778000D03*
X149077500Y-51778000D03*
X149077500Y-53678000D03*
%TD*%
D23*
%TO.C,D1*%
X201168000Y-66877200D03*
X201168000Y-63577200D03*
%TD*%
D26*
%TO.C,C4*%
X148636000Y-61618000D03*
X146736000Y-61618000D03*
%TD*%
M02*
