0
SECTION
2
HEADER
9
$INSUNITS
70
4
9
$ACADVER
1
AC1014
9
$HANDSEED
5
FFFF
0
ENDSEC
0
SECTION
2
TABLES
0
TABLE
2
VPORT
5
8
100
AcDbSymbolTable
0
ENDTAB
0
TABLE
2
LTYPE
5
5
100
AcDbSymbolTable
0
LTYPE
5
14
100
AcDbSymbolTableRecord
100
AcDbLinetypeTableRecord
2
BYBLOCK
70
0
0
LTYPE
5
15
100
AcDbSymbolTableRecord
100
AcDbLinetypeTableRecord
2
BYLAYER
70
0
0
ENDTAB
0
TABLE
2
LAYER
5
2
100
AcDbSymbolTable
70
2
0
LAYER
5
50
100
AcDbSymbolTableRecord
100
AcDbLayerTableRecord
2
0
70
0
6
CONTINUOUS
0
ENDTAB
0
TABLE
2
STYLE
5
3
100
AcDbSymbolTable
70
1
0
STYLE
5
11
100
AcDbSymbolTableRecord
100
AcDbTextStyleTableRecord
2
STANDARD
70
0
0
ENDTAB
0
TABLE
2
VIEW
5
6
100
AcDbSymbolTable
70
0
0
ENDTAB
0
TABLE
2
UCS
5
7
100
AcDbSymbolTable
70
0
0
ENDTAB
0
TABLE
2
APPID
5
9
100
AcDbSymbolTable
70
2
0
APPID
5
12
100
AcDbSymbolTableRecord
100
AcDbRegAppTableRecord
2
ACAD
70
0
0
ENDTAB
0
TABLE
2
DIMSTYLE
5
A
100
AcDbSymbolTable
70
1
0
ENDTAB
0
TABLE
2
BLOCK_RECORD
5
1
100
AcDbSymbolTable
70
1
0
BLOCK_RECORD
5
1F
100
AcDbSymbolTableRecord
100
AcDbBlockTableRecord
2
*MODEL_SPACE
0
BLOCK_RECORD
5
1B
100
AcDbSymbolTableRecord
100
AcDbBlockTableRecord
2
*PAPER_SPACE
0
ENDTAB
0
ENDSEC
0
SECTION
2
BLOCKS
0
BLOCK
5
20
100
AcDbEntity
100
AcDbBlockBegin
2
*MODEL_SPACE
0
ENDBLK
5
21
100
AcDbEntity
100
AcDbBlockEnd
0
BLOCK
5
1C
100
AcDbEntity
100
AcDbBlockBegin
2
*PAPER_SPACE
0
ENDBLK
5
1D
100
AcDbEntity
100
AcDbBlockEnd
0
ENDSEC
0
SECTION
2
ENTITIES
0
CIRCLE
5
100
100
AcDbEntity
8
0
100
AcDbCircle
10
-260.71421399999997
20
-72.654398
30
0
40
4.5999999999999943
210
0
220
-0
230
1
0
CIRCLE
5
101
100
AcDbEntity
8
0
100
AcDbCircle
10
-167.35264999999998
20
-64.914960000000008
30
0
40
4.5999999999999943
210
0
220
-0
230
1
0
CIRCLE
5
102
100
AcDbEntity
8
0
100
AcDbCircle
10
-174.872891192509
20
-28.942228269929998
30
0
40
4.5999999999999943
210
0
220
-0
230
1
0
CIRCLE
5
103
100
AcDbEntity
8
0
100
AcDbCircle
10
-64.349557999999988
20
-70.738318000000007
30
0
40
4.6000000000000032
210
0
220
-0
230
1
0
CIRCLE
5
104
100
AcDbEntity
8
0
100
AcDbCircle
10
-53.012879999999981
20
-124.34504200000001
30
0
40
4.6000000000000032
210
0
220
-0
230
1
0
LWPOLYLINE
5
105
100
AcDbEntity
8
0
100
AcDbPolyline
90
56
70
1
43
0.0
10
-117.63330309312474
20
-129.22517270665674
10
-109.85901744479833
20
-118.15909812076691
10
-83.496083827725784
20
-131.59404469570987
42
0.35665162514873366
10
-81.755207058823515
20
-130.86689823529412
10
-79.937492929205888
20
-127.45868424226104
10
-59.249192157090008
20
-135.8460164107527
42
0.27773415375704735
10
-57.684978602707233
20
-135.59896203562406
10
-49.425282339690895
20
-128.26710649999694
10
-32.541430592795741
20
-131.05262229207821
42
0.27582672399830255
10
-29.944232061925202
20
-130.03101243342044
10
-28.108653101834204
20
-122.95092215878373
42
-0.50407630007519588
10
-26.656333037883613
20
-122.36525616964839
10
-11.300312650560329
20
-126.46019493960125
42
0.47774688497198842
10
-8.7742586746408158
20
-124.61542355696548
10
0.84535867993356129
20
-88.668469632882477
42
0.40536182459788589
10
-0.37510417015184011
20
-86.480214268074491
10
-17.057284792255665
20
-82.132027096898128
10
-15.40378380511001
20
-75.179328465526893
42
0.39407212951417475
10
-17.089197352821976
20
-72.217086346621585
10
-65.902144185075826
20
-56.28459727686792
42
-0.30651736105638244
10
-66.02822280900007
20
-55.329173595499967
10
-60.440222809000083
20
-44.15317359549995
42
0.41823721971815087
10
-62.544204257616315
20
-37.98263444367457
10
-120.19486240426798
20
-9.0303215418318796
42
-0.29163631465927653
10
-121.77482000000001
20
-6.3816916537149027
10
-121.77482000000001
20
-1.2879599999999947
42
0.36630656826919122
10
-123.69558041680902
20
0.98204000000000535
10
-180.81206720975544
20
0.98204000000000868
42
0.3710408832540884
10
-182.72377993536284
20
-1.3335645926114386
10
-182.6192760938288
20
-6.4439873275125592
42
-0.30544058586019279
10
-184.2858947644944
20
-9.0302606926639584
10
-241.96860759573201
20
-37.998671541831882
42
0.40916468786719468
10
-244.06892506790169
20
-44.158167841697527
10
-238.47724719099998
20
-55.341523595499957
42
-0.30651736105638772
10
-238.60332581492418
20
-56.296947276867932
10
-287.4231085780354
20
-72.231667586502269
42
0.38670720683721321
10
-289.10335327189267
20
-75.184668681991994
10
-287.4481830187554
20
-82.14438630123513
10
-304.1089811708332
20
-86.48699038645232
42
0.42679371698882063
10
-305.34516886628916
20
-88.701969462816962
10
-295.69882874681667
20
-124.74881938295093
42
0.34855608363898338
10
-293.331304632166
20
-126.50618421499493
10
-277.84913696211646
20
-122.37760616964836
42
-0.50407630007518589
10
-276.39681689816587
20
-122.96327215878372
10
-274.56123793807484
20
-130.04336243342041
42
0.27582672399831232
10
-271.96403940720427
20
-131.06497229207821
10
-255.08019610363309
20
-128.2794578929855
10
-246.82049294573386
20
-135.61132066286805
42
0.27773500361505743
10
-245.25628799525438
20
-135.85837647251529
10
-224.5679771121263
20
-127.47104416476327
10
-222.80093189241828
20
-130.78425395171575
42
0.45679076283815873
10
-220.90585588690919
20
-131.55364410870649
10
-194.6464702346081
20
-118.17145718974533
10
-186.8885694052168
20
-129.21420929475244
42
0.37060068255623912
10
-182.35471297098073
20
-130.62337903195751
42
-0.2072317131146908
10
-122.12584482904293
20
-130.63586080943162
42
0.33924060550643281
0
CIRCLE
5
106
100
AcDbEntity
8
0
100
AcDbCircle
10
-43.544213999999982
20
-72.908398000000005
30
0
40
4.6000000000000032
210
0
220
-0
230
1
0
CIRCLE
5
107
100
AcDbEntity
8
0
100
AcDbCircle
10
-132.08664999999999
20
-29.943960000000004
30
0
40
4.5999999999999943
210
0
220
-0
230
1
0
CIRCLE
5
108
100
AcDbEntity
8
0
100
AcDbCircle
10
-136.03155599999999
20
-64.914960000000008
30
0
40
4.5999999999999943
210
0
220
-0
230
1
0
CIRCLE
5
109
100
AcDbEntity
8
0
100
AcDbCircle
10
-238.80821099999997
20
-70.484321000000008
30
0
40
4.5999999999999943
210
0
220
-0
230
1
0
CIRCLE
5
110
100
AcDbEntity
8
0
100
AcDbCircle
10
-250.46328899999997
20
-124.40806700000002
30
0
40
4.5999999999999943
210
0
220
-0
230
1
0
LWPOLYLINE
5
111
100
AcDbEntity
8
0
100
AcDbPolyline
90
56
70
1
43
0.0
10
-62.765039961400085
20
-38.431240557011463
10
-120.41925620213398
20
-9.4771407709159341
42
-0.29101496028640056
10
-122.27482000000002
20
-6.3745699440436656
10
-122.27482000000002
20
-1.2879599999999947
42
0.36015946990177633
10
-123.73981628806791
20
0.48204000000000358
10
-180.76682135163392
20
0.48204000000000857
42
0.3647345262359995
10
-182.22388444460205
20
-1.3233421507783421
10
-182.11938060306804
20
-6.4337648856794694
42
-0.30412950785432408
10
-184.07433464813349
20
-9.4835250305215055
10
-241.744213797866
20
-38.445490770915939
42
0.40889930011535813
10
-243.61992818811558
20
-43.9381276125198
10
-238.03003359550002
20
-55.11791679774997
42
-0.33692988635956561
10
-238.33492127529209
20
-56.735300469553806
10
-287.2679642890177
20
-72.706988793251128
42
0.38627798384650719
10
-288.61613869858695
20
-75.07227042618797
10
-286.84852550637243
20
-82.504792038115951
10
-303.98287058541661
20
-86.970825193226148
42
0.42874916029827903
10
-304.86470372840057
20
-88.563226049136304
10
-295.21582437340834
20
-124.61956469147546
42
0.34048757980530597
10
-293.40140641029677
20
-126.00740553262114
10
-278.04108384526495
20
-121.91131951527929
42
-0.4870975643064851
10
-275.91281844908292
20
-122.83779107939185
10
-274.10430700793813
20
-129.81347806666474
42
0.26406301265156407
10
-272.04542970360211
20
-130.5716411460391
10
-254.92647647276192
20
-127.74733806145562
10
-246.49421234302312
20
-135.23237744565211
42
0.27612333455481664
10
-245.44414399762718
20
-135.39500823625764
10
-224.33864494640085
20
-126.83854197549857
10
-222.33847009768908
20
-130.58886981683298
42
0.4695762805226778
10
-221.1328829434546
20
-131.10815705435326
10
-194.4868226290684
20
-117.52891477875255
10
-186.47157254315488
20
-128.93798299254712
42
0.37175139796670215
10
-182.55331648549037
20
-130.16451451597874
42
-0.20717942821057975
10
-121.94108706009084
20
-130.17099845465003
42
0.33806396670416183
10
-118.04243154656247
20
-128.93774635332829
10
-110.01866512606297
20
-117.51655581756252
10
-83.313838405767413
20
-131.12573624837529
42
0.34503813616151463
10
-82.196383529411762
20
-130.63160411764707
10
-80.166825059914615
20
-126.82618198733989
10
-59.061336078545004
20
-135.38264820537634
42
0.27612231231484313
10
-58.011258515232186
20
-135.22001820651474
10
-49.5790019477312
20
-127.73498667223372
10
-32.460040296397864
20
-130.5592911460391
42
0.26406301265154725
10
-30.401162992061934
20
-129.8011280666648
10
-28.592651550917097
20
-122.82544107939187
42
-0.48709756430651308
10
-26.464386154735038
20
-121.89896951527935
10
-11.171481325280164
20
-125.97707746980063
42
0.48787906774774081
10
-9.2720681020446332
20
-124.54149295731214
10
0.36235433996678612
20
-88.53921481644123
42
0.40346798254894362
10
-0.5108471402085184
20
-86.961538407192407
10
-17.65694224242139
20
-82.492432572165797
10
-15.890216902555006
20
-75.063644232763451
42
0.39450760241623883
10
-17.241140121145563
20
-72.693452526001209
10
-66.170548724707928
20
-56.722950469553801
42
-0.33692988635956161
10
-66.47543640450003
20
-55.105566797749987
10
-60.887436404500043
20
-43.92956679774997
42
0.41850788013406975
0
CIRCLE
5
112
100
AcDbEntity
8
0
100
AcDbCircle
10
-64.349557999999988
20
-70.738318000000007
30
0
40
4.5999999999999996
210
0
220
-0
230
1
0
CIRCLE
5
113
100
AcDbEntity
8
0
100
AcDbCircle
10
-43.544213999999982
20
-72.908398000000005
30
0
40
4.6000000000000041
210
0
220
-0
230
1
0
CIRCLE
5
114
100
AcDbEntity
8
0
100
AcDbCircle
10
-53.012879999999981
20
-124.34504200000001
30
0
40
4.5999999999999996
210
0
220
-0
230
1
0
CIRCLE
5
115
100
AcDbEntity
8
0
100
AcDbCircle
10
-132.08664999999999
20
-29.943960000000004
30
0
40
4.5999999999999908
210
0
220
-0
230
1
0
CIRCLE
5
116
100
AcDbEntity
8
0
100
AcDbCircle
10
-136.03155599999999
20
-64.914960000000008
30
0
40
4.5999999999999908
210
0
220
-0
230
1
0
CIRCLE
5
117
100
AcDbEntity
8
0
100
AcDbCircle
10
-174.872891192509
20
-28.942228269929998
30
0
40
4.6000000000000085
210
0
220
-0
230
1
0
CIRCLE
5
118
100
AcDbEntity
8
0
100
AcDbCircle
10
-167.35264999999998
20
-64.914960000000008
30
0
40
4.6000000000000085
210
0
220
-0
230
1
0
CIRCLE
5
119
100
AcDbEntity
8
0
100
AcDbCircle
10
-238.80821099999997
20
-70.484321000000008
30
0
40
4.6000000000000085
210
0
220
-0
230
1
0
CIRCLE
5
120
100
AcDbEntity
8
0
100
AcDbCircle
10
-260.71421399999997
20
-72.654398
30
0
40
4.6000000000000085
210
0
220
-0
230
1
0
CIRCLE
5
121
100
AcDbEntity
8
0
100
AcDbCircle
10
-250.46328899999997
20
-124.40806700000002
30
0
40
4.6000000000000085
210
0
220
-0
230
1
0
ENDSEC
0
SECTION
2
OBJECTS
0
DICTIONARY
5
C
100
AcDbDictionary
3
ACAD_GROUP
350
D
3
ACAD_MLINESTYLE
350
17
0
DICTIONARY
5
D
100
AcDbDictionary
0
DICTIONARY
5
1A
330
C
100
AcDbDictionary
0
DICTIONARY
5
17
100
AcDbDictionary
0
ENDSEC
0
EOF
