0
SECTION
2
HEADER
9
$INSUNITS
70
4
9
$ACADVER
1
AC1014
9
$HANDSEED
5
FFFF
0
ENDSEC
0
SECTION
2
TABLES
0
TABLE
2
VPORT
5
8
100
AcDbSymbolTable
0
ENDTAB
0
TABLE
2
LTYPE
5
5
100
AcDbSymbolTable
0
LTYPE
5
14
100
AcDbSymbolTableRecord
100
AcDbLinetypeTableRecord
2
BYBLOCK
70
0
0
LTYPE
5
15
100
AcDbSymbolTableRecord
100
AcDbLinetypeTableRecord
2
BYLAYER
70
0
0
ENDTAB
0
TABLE
2
LAYER
5
2
100
AcDbSymbolTable
70
2
0
LAYER
5
50
100
AcDbSymbolTableRecord
100
AcDbLayerTableRecord
2
0
70
0
6
CONTINUOUS
0
ENDTAB
0
TABLE
2
STYLE
5
3
100
AcDbSymbolTable
70
1
0
STYLE
5
11
100
AcDbSymbolTableRecord
100
AcDbTextStyleTableRecord
2
STANDARD
70
0
0
ENDTAB
0
TABLE
2
VIEW
5
6
100
AcDbSymbolTable
70
0
0
ENDTAB
0
TABLE
2
UCS
5
7
100
AcDbSymbolTable
70
0
0
ENDTAB
0
TABLE
2
APPID
5
9
100
AcDbSymbolTable
70
2
0
APPID
5
12
100
AcDbSymbolTableRecord
100
AcDbRegAppTableRecord
2
ACAD
70
0
0
ENDTAB
0
TABLE
2
DIMSTYLE
5
A
100
AcDbSymbolTable
70
1
0
ENDTAB
0
TABLE
2
BLOCK_RECORD
5
1
100
AcDbSymbolTable
70
1
0
BLOCK_RECORD
5
1F
100
AcDbSymbolTableRecord
100
AcDbBlockTableRecord
2
*MODEL_SPACE
0
BLOCK_RECORD
5
1B
100
AcDbSymbolTableRecord
100
AcDbBlockTableRecord
2
*PAPER_SPACE
0
ENDTAB
0
ENDSEC
0
SECTION
2
BLOCKS
0
BLOCK
5
20
100
AcDbEntity
100
AcDbBlockBegin
2
*MODEL_SPACE
0
ENDBLK
5
21
100
AcDbEntity
100
AcDbBlockEnd
0
BLOCK
5
1C
100
AcDbEntity
100
AcDbBlockBegin
2
*PAPER_SPACE
0
ENDBLK
5
1D
100
AcDbEntity
100
AcDbBlockEnd
0
ENDSEC
0
SECTION
2
ENTITIES
0
LINE
5
100
100
AcDbEntity
8
0
100
AcDbLine
10
117.25968981946838
20
104.48940845474201
30
0
11
139.44951406740356
21
93.183131652902546
31
0
0
ARC
5
101
100
AcDbEntity
8
0
100
AcDbCircle
10
151.63023564188597
20
65.439303115281191
30
0
40
30.299999999999905
210
0
220
0
230
1
100
AcDbArc
50
-246.29648111442981
51
20.569229262558338
0
LINE
5
102
100
AcDbEntity
8
0
100
AcDbLine
10
179.99856087523398
20
76.084871369488553
30
0
11
176.91716052942579
21
82.132458291338139
31
0
0
ARC
5
103
100
AcDbEntity
8
0
100
AcDbCircle
10
151.63023564188597
20
65.439303115281191
30
0
40
30.299999999999937
210
0
220
-0
230
1
100
AcDbArc
50
33.430784292562421
51
64.274287210166861
0
LINE
5
104
100
AcDbEntity
8
0
100
AcDbLine
10
164.78235726186455
20
92.73603729527585
30
0
11
186.63094234442883
21
103.86845068574645
31
0
0
LINE
5
105
100
AcDbEntity
8
0
100
AcDbLine
10
186.63094234442883
20
103.86845068574645
30
0
11
186.00399216097975
21
105.28473110015787
31
0
0
LINE
5
106
100
AcDbEntity
8
0
100
AcDbLine
10
186.00399216097975
20
105.28473110015787
30
0
11
202.89436044610537
21
113.8908010258541
31
0
0
LINE
5
107
100
AcDbEntity
8
0
100
AcDbLine
10
202.89436044610537
20
113.8908010258541
30
0
11
199.91456044610538
21
120.22960102585412
31
0
0
LINE
5
108
100
AcDbEntity
8
0
100
AcDbLine
10
103.26047146854711
20
120.27784426081448
30
0
11
100.95056146854709
21
114.60669426081449
31
0
0
LINE
5
109
100
AcDbEntity
8
0
100
AcDbLine
10
100.95056146854709
20
114.60669426081449
30
0
11
117.74919969661798
21
106.0473580637494
31
0
0
LINE
5
110
100
AcDbEntity
8
0
100
AcDbLine
10
117.74919969661798
20
106.0473580637494
30
0
11
117.25968981946838
21
104.48940845474201
31
0
0
CIRCLE
5
111
100
AcDbEntity
8
0
100
AcDbCircle
10
238.80821099999997
20
70.484321000000008
30
0
40
1.9000000000000128
210
0
220
-0
230
1
0
CIRCLE
5
112
100
AcDbEntity
8
0
100
AcDbCircle
10
43.544213999999982
20
72.908398000000005
30
0
40
1.9000000000000037
210
0
220
-0
230
1
0
CIRCLE
5
113
100
AcDbEntity
8
0
100
AcDbCircle
10
64.349557999999988
20
70.738318000000007
30
0
40
1.9000000000000037
210
0
220
-0
230
1
0
CIRCLE
5
114
100
AcDbEntity
8
0
100
AcDbCircle
10
260.71421399999997
20
72.654398
30
0
40
1.9000000000000128
210
0
220
-0
230
1
0
CIRCLE
5
115
100
AcDbEntity
8
0
100
AcDbCircle
10
174.872891192509
20
28.942228269929998
30
0
40
1.9000000000000128
210
0
220
-0
230
1
0
CIRCLE
5
116
100
AcDbEntity
8
0
100
AcDbCircle
10
53.012879999999981
20
124.34504200000001
30
0
40
1.9000000000000037
210
0
220
-0
230
1
0
CIRCLE
5
117
100
AcDbEntity
8
0
100
AcDbCircle
10
132.08664999999999
20
29.943960000000004
30
0
40
1.899999999999995
210
0
220
-0
230
1
0
CIRCLE
5
118
100
AcDbEntity
8
0
100
AcDbCircle
10
250.46328899999997
20
124.40806700000002
30
0
40
1.9000000000000128
210
0
220
-0
230
1
0
LWPOLYLINE
5
119
100
AcDbEntity
8
0
100
AcDbPolyline
90
4
70
1
43
0.0
10
192.05921000000001
20
18.702349999999999
10
204.54238000000001
20
25.040400000000002
10
198.19087999999999
20
37.527940000000001
10
185.71679
20
31.172070000000001
0
LWPOLYLINE
5
120
100
AcDbEntity
8
0
100
AcDbPolyline
90
4
70
1
43
0.0
10
278.51615000000004
20
94.117189999999994
10
274.89975000000004
20
107.65239999999999
10
261.37679000000003
20
104.02892999999999
10
264.98801000000003
20
90.513040000000004
0
LWPOLYLINE
5
121
100
AcDbEntity
8
0
100
AcDbPolyline
90
4
70
1
43
0.0
10
220.87057999999999
20
88.831220000000002
10
233.35374999999999
20
95.169259999999994
10
227.00226000000001
20
107.65680999999999
10
214.52816999999999
20
101.30094
0
LWPOLYLINE
5
122
100
AcDbEntity
8
0
100
AcDbPolyline
90
4
70
1
43
0.0
10
282.33695
20
99.645169999999993
10
285.94817
20
86.129279999999994
10
299.47631000000001
20
89.733429999999998
10
295.85990999999996
20
103.26864
0
LWPOLYLINE
5
123
100
AcDbEntity
8
0
100
AcDbPolyline
90
4
70
1
43
0.0
10
198.29543000000001
20
90.795720000000003
10
210.77860999999999
20
97.133759999999995
10
204.42711
20
109.62130999999999
10
191.95301999999998
20
103.26544
0
LWPOLYLINE
5
124
100
AcDbEntity
8
0
100
AcDbPolyline
90
4
70
1
43
0.0
10
223.15398000000002
20
84.37182
10
229.49639999999999
20
71.902089999999987
10
241.97957000000002
20
78.240139999999997
10
235.62806999999998
20
90.727679999999992
0
LWPOLYLINE
5
125
100
AcDbEntity
8
0
100
AcDbPolyline
90
4
70
1
43
0.0
10
277.36959000000002
20
118.05188000000001
10
280.98081000000002
20
104.53599
10
294.50894
20
108.14014
10
290.89254999999997
20
121.67535000000001
0
LWPOLYLINE
5
126
100
AcDbEntity
8
0
100
AcDbPolyline
90
4
70
1
43
0.0
10
266.30515000000003
20
85.625610000000009
10
269.91636
20
72.109719999999996
10
283.44450000000001
20
75.71387
10
279.82810999999998
20
89.249080000000006
0
LWPOLYLINE
5
127
100
AcDbEntity
8
0
100
AcDbPolyline
90
4
70
1
43
0.0
10
273.58991999999995
20
112.47723999999999
10
269.97353000000004
20
126.01245
10
256.45057000000003
20
122.38897999999999
10
260.06178
20
108.87309
0
LWPOLYLINE
5
128
100
AcDbEntity
8
0
100
AcDbPolyline
90
4
70
1
43
0.0
10
224.11518000000001
20
39.878810000000001
10
236.59835000000001
20
46.216850000000001
10
230.24686
20
58.704390000000004
10
217.77276999999998
20
52.348530000000004
0
LWPOLYLINE
5
129
100
AcDbEntity
8
0
100
AcDbPolyline
90
4
70
1
43
0.0
10
228.03023999999999
20
63.275510000000004
10
221.67873999999998
20
75.763050000000007
10
209.20465000000002
20
69.40719
10
215.54707000000002
20
56.937470000000005
0
LWPOLYLINE
5
130
100
AcDbEntity
8
0
100
AcDbPolyline
90
4
70
1
43
0.0
10
206.92125000000001
20
73.866590000000002
10
219.40442000000002
20
80.204640000000012
10
213.05293
20
92.692179999999979
10
200.57883000000001
20
86.336309999999997
0
LWPOLYLINE
5
131
100
AcDbEntity
8
0
100
AcDbPolyline
90
4
70
1
43
0.0
10
236.86827999999997
20
105.84429
10
242.09976
20
92.869240000000005
10
255.08781999999999
20
98.095190000000002
10
249.84886
20
111.08878000000001
0
LWPOLYLINE
5
132
100
AcDbEntity
8
0
100
AcDbPolyline
90
4
70
1
43
0.0
10
243.98581000000001
20
88.227789999999985
10
249.21728000000002
20
75.252740000000003
10
262.20534999999995
20
80.47869
10
256.96638000000002
20
93.472279999999998
0
LWPOLYLINE
5
133
100
AcDbEntity
8
0
100
AcDbPolyline
90
4
70
1
43
0.0
10
224.72792999999999
20
112.09839000000001
10
218.37644
20
124.58592999999999
10
205.90235000000001
20
118.23005999999999
10
212.24475999999999
20
105.76034
0
LWPOLYLINE
5
134
100
AcDbEntity
8
0
100
AcDbPolyline
90
4
70
1
43
0.0
10
203.10225
20
70.162539999999993
10
196.75074999999998
20
82.650080000000003
10
184.27666000000002
20
76.294219999999996
10
190.61908
20
63.8245
0
LWPOLYLINE
5
135
100
AcDbEntity
8
0
100
AcDbPolyline
90
4
70
1
43
0.0
10
194.47642999999999
20
87.091669999999993
10
188.12493000000001
20
99.579210000000003
10
175.65083999999999
20
93.223339999999993
10
181.99325999999999
20
80.753619999999998
0
LWPOLYLINE
5
136
100
AcDbEntity
8
0
100
AcDbPolyline
90
4
70
1
43
0.0
10
211.73888000000002
20
53.129679999999993
10
205.38738000000001
20
65.617220000000003
10
192.91329000000002
20
59.261349999999993
10
199.25570999999997
20
46.791629999999998
0
LWPOLYLINE
5
137
100
AcDbEntity
8
0
100
AcDbPolyline
90
4
70
1
43
0.0
10
234.98223999999999
20
110.48572999999999
10
247.97030000000001
20
115.71168
10
242.73133999999999
20
128.70527000000001
10
229.75076000000001
20
123.46078
0
LWPOLYLINE
5
138
100
AcDbEntity
8
0
100
AcDbPolyline
90
4
70
1
43
0.0
10
207.94214999999997
20
29.756669999999996
10
220.42532
20
36.094720000000002
10
214.07382000000001
20
48.582260000000005
10
201.59973000000002
20
42.226390000000002
0
LWPOLYLINE
5
139
100
AcDbEntity
8
0
100
AcDbPolyline
90
4
70
1
43
0.0
10
99.424570000000017
20
25.863150000000005
10
111.88958999999998
20
19.489459999999998
10
118.2589
20
31.967919999999999
10
105.78480999999999
20
38.323790000000002
0
LWPOLYLINE
5
140
100
AcDbEntity
8
0
100
AcDbPolyline
90
4
70
1
43
0.0
10
105.59343999999999
20
91.466759999999994
10
111.96275999999999
20
103.94523
10
99.488669999999999
20
110.30108999999999
10
93.128429999999994
20
97.84044999999999
0
LWPOLYLINE
5
141
100
AcDbEntity
8
0
100
AcDbPolyline
90
4
70
1
43
0.0
10
38.217500000000001
20
90.627330000000001
10
41.853210000000004
20
104.15737
10
28.330249999999999
20
107.78083000000001
10
24.699709999999996
20
94.270119999999991
0
LWPOLYLINE
5
142
100
AcDbEntity
8
0
100
AcDbPolyline
90
4
70
1
43
0.0
10
98.648979999999995
20
66.331620000000001
10
92.288740000000018
20
53.870980000000003
10
104.75375999999999
20
47.497300000000003
10
111.12307000000001
20
59.975760000000008
0
LWPOLYLINE
5
143
100
AcDbEntity
8
0
100
AcDbPolyline
90
4
70
1
43
0.0
10
73.55158999999999
20
59.32938
10
67.19135
20
46.868739999999995
10
79.656369999999995
20
40.495049999999999
10
86.025679999999994
20
52.973509999999997
0
LWPOLYLINE
5
144
100
AcDbEntity
8
0
100
AcDbPolyline
90
4
70
1
43
0.0
10
122.03305999999999
20
81.282999999999987
10
128.40236999999999
20
93.76146
10
115.92827999999999
20
100.11733
10
109.56805000000001
20
87.656690000000012
0
LWPOLYLINE
5
145
100
AcDbEntity
8
0
100
AcDbPolyline
90
4
70
1
43
0.0
10
68.237249999999989
20
110.486
10
73.494759999999985
20
123.47210000000001
10
60.514179999999996
20
128.71659
10
55.264169999999993
20
115.74904000000001
0
LWPOLYLINE
5
146
100
AcDbEntity
8
0
100
AcDbPolyline
90
4
70
1
43
0.0
10
7.3500600000000009
20
103.58976
10
3.7195200000000002
20
90.079039999999992
10
17.237310000000001
20
86.43625999999999
10
20.873020000000004
20
99.966289999999987
0
LWPOLYLINE
5
147
100
AcDbEntity
8
0
100
AcDbPolyline
90
4
70
1
43
0.0
10
23.460619999999999
20
89.365759999999995
10
19.830089999999998
20
75.855039999999988
10
33.34787
20
72.212260000000001
10
36.983589999999992
20
85.742289999999997
0
LWPOLYLINE
5
148
100
AcDbEntity
8
0
100
AcDbPolyline
90
4
70
1
43
0.0
10
90.974229999999991
20
105.76374000000001
10
97.343550000000008
20
118.2422
10
84.869460000000018
20
124.59807000000001
10
78.509219999999999
20
112.13742999999999
0
LWPOLYLINE
5
149
100
AcDbEntity
8
0
100
AcDbPolyline
90
4
70
1
43
0.0
10
89.92192
20
49.291489999999996
10
83.561679999999981
20
36.830849999999998
10
96.026690000000002
20
30.457169999999998
10
102.39600999999999
20
42.935629999999996
0
LWPOLYLINE
5
150
100
AcDbEntity
8
0
100
AcDbPolyline
90
4
70
1
43
0.0
10
22.132179999999998
20
104.77038
10
25.767900000000004
20
118.30041
10
12.24494
20
121.92388000000001
10
8.6143999999999998
20
108.41316
0
LWPOLYLINE
5
151
100
AcDbEntity
8
0
100
AcDbPolyline
90
4
70
1
43
0.0
10
67.617820000000009
20
90.739820000000009
10
61.257580000000004
20
78.279179999999997
10
73.722589999999997
20
71.905500000000004
10
80.091909999999999
20
84.383960000000002
0
LWPOLYLINE
5
152
100
AcDbEntity
8
0
100
AcDbPolyline
90
4
70
1
43
0.0
10
82.237030000000004
20
76.442840000000004
10
75.87679
20
63.982199999999992
10
88.341800000000006
20
57.60851000000001
10
94.711119999999994
20
70.086979999999997
0
LWPOLYLINE
5
153
100
AcDbEntity
8
0
100
AcDbPolyline
90
4
70
1
43
0.0
10
33.240300000000005
20
126.15122
10
29.609760000000001
20
112.64051000000001
10
43.127549999999999
20
108.99772999999999
10
46.763260000000002
20
122.52775999999999
0
LWPOLYLINE
5
154
100
AcDbEntity
8
0
100
AcDbPolyline
90
4
70
1
43
0.0
10
82.348420000000004
20
88.834620000000001
10
88.717729999999989
20
101.31308000000001
10
76.243639999999999
20
107.66895
10
69.883409999999998
20
95.208309999999997
0
LWPOLYLINE
5
155
100
AcDbEntity
8
0
100
AcDbPolyline
90
4
70
1
43
0.0
10
96.967619999999997
20
74.537639999999996
10
103.33694
20
87.016100000000009
10
90.862850000000009
20
93.371970000000005
10
84.50260999999999
20
80.911330000000007
0
LWPOLYLINE
5
156
100
AcDbEntity
8
0
100
AcDbPolyline
90
4
70
1
43
0.0
10
113.40722999999998
20
64.353880000000004
10
119.77655
20
76.832340000000002
10
107.30246000000001
20
83.188209999999998
10
100.94222000000001
20
70.727559999999997
0
LWPOLYLINE
5
157
100
AcDbEntity
8
0
100
AcDbPolyline
90
4
70
1
43
0.0
10
61.120010000000001
20
92.869100000000003
10
66.377520000000004
20
105.8552
10
53.396949999999997
20
111.09969
10
48.146929999999998
20
98.132130000000018
0
LWPOLYLINE
5
158
100
AcDbEntity
8
0
100
AcDbPolyline
90
4
70
1
43
0.0
10
46.279139999999998
20
93.483609999999999
10
41.029119999999999
20
80.516050000000007
10
54.002200000000002
20
75.253010000000003
10
59.259709999999998
20
88.239110000000011
0
LWPOLYLINE
5
159
100
AcDbEntity
8
0
100
AcDbPolyline
90
4
70
1
43
0.0
10
125.72507
20
17.939959999999999
10
125.71507
20
3.949959999999999
10
139.71507
20
3.9299600000000012
10
139.72507000000002
20
17.939959999999999
0
LWPOLYLINE
5
160
100
AcDbEntity
8
0
100
AcDbPolyline
90
4
70
1
43
0.0
10
159.00507000000002
20
17.943259999999999
10
145.00507000000002
20
17.943259999999999
10
144.99507
20
3.9532600000000007
10
158.99507
20
3.9332600000000006
0
LWPOLYLINE
5
161
100
AcDbEntity
8
0
100
AcDbPolyline
90
4
70
1
43
0.0
10
178.33065999999999
20
17.939959999999999
10
164.33064999999999
20
17.939959999999999
10
164.32065999999998
20
3.949959999999999
10
178.32065
20
3.9299600000000012
0
LWPOLYLINE
5
162
100
AcDbEntity
8
0
100
AcDbPolyline
90
4
70
1
43
0.0
10
156.60757000000001
20
20.439959999999999
10
156.60757000000001
20
32.44229
10
146.60757000000001
20
32.44229
10
146.60757000000001
20
20.439959999999999
0
ARC
5
163
100
AcDbEntity
8
0
100
AcDbCircle
10
65.259139588273854
20
55.713715205863068
30
0
40
1.3598611809491457
210
-0
220
0
230
1
100
AcDbArc
50
-26.565051177077738
51
47.915784285354121
0
LINE
5
164
100
AcDbEntity
8
0
100
AcDbLine
10
66.47543640450003
20
55.105566797749987
30
0
11
60.887436404500043
21
43.92956679774997
31
0
0
ARC
5
165
100
AcDbEntity
8
0
100
AcDbCircle
10
64.535446875000005
20
42.1055615625
30
0
40
4.0785996973344529
210
0
220
0
230
1
100
AcDbArc
50
153.43494882292217
51
244.27372613966858
0
LINE
5
166
100
AcDbEntity
8
0
100
AcDbLine
10
62.765039961400085
20
38.431240557011463
30
0
11
120.41925620213398
21
9.4771407709159448
31
0
0
LINE
5
167
100
AcDbEntity
8
0
100
AcDbLine
10
17.241140121145563
20
72.693452526001209
30
0
11
66.170548724707928
21
56.722950469553801
31
0
0
ARC
5
168
100
AcDbEntity
8
0
100
AcDbCircle
10
118.90745990080875
20
6.4668095393297254
30
0
40
3.3686231876783097
210
-0
220
0
230
1
100
AcDbArc
50
-1.5690683878823155
51
63.334076075887666
0
LINE
5
169
100
AcDbEntity
8
0
100
AcDbLine
10
122.27482000000002
20
6.3745699440436656
30
0
11
122.27482000000002
21
1.2879599999999947
31
0
0
ARC
5
170
100
AcDbEntity
8
0
100
AcDbCircle
10
124.07657000000003
20
1.2879600000000069
30
0
40
1.8017500000000197
210
0
220
0
230
1
100
AcDbArc
50
180
51
259.22785842068765
0
LINE
5
171
100
AcDbEntity
8
0
100
AcDbLine
10
123.73981628806791
20
-0.48204000000000358
30
0
11
180.76682135163392
21
-0.48204000000000846
31
0
0
ARC
5
172
100
AcDbEntity
8
0
100
AcDbCircle
10
180.42251104364556
20
1.2865055816327833
30
0
40
1.8017499999999733
210
-0
220
0
230
1
100
AcDbArc
50
-78.983147483177419
51
1.1714871686677544
0
LINE
5
173
100
AcDbEntity
8
0
100
AcDbLine
10
182.22388444460205
20
1.3233421507783421
30
0
11
182.11938060306807
21
6.4337648856794694
31
0
0
ARC
5
174
100
AcDbEntity
8
0
100
AcDbCircle
10
185.3719355514427
20
6.5002768954559409
30
0
40
3.253234934590659
210
0
220
0
230
1
100
AcDbArc
50
113.50723084067087
51
181.17148716866743
0
LINE
5
175
100
AcDbEntity
8
0
100
AcDbLine
10
184.07433464813349
20
9.4835250305215055
30
0
11
241.744213797866
21
38.445490770915939
31
0
0
ARC
5
176
100
AcDbEntity
8
0
100
AcDbCircle
10
239.88537053191496
20
42.146871660134352
30
0
40
4.1419221111028675
210
-0
220
0
230
1
100
AcDbArc
50
-63.334076075888404
51
25.624398054501455
0
LINE
5
177
100
AcDbEntity
8
0
100
AcDbLine
10
243.61992818811558
20
43.9381276125198
30
0
11
238.03003359549996
21
55.117916797749956
31
0
0
ARC
5
178
100
AcDbEntity
8
0
100
AcDbCircle
10
239.24633041172615
20
55.726065205863065
30
0
40
1.3598611809491485
210
0
220
0
230
1
100
AcDbArc
50
132.08421571464524
51
206.56505117707906
0
LINE
5
179
100
AcDbEntity
8
0
100
AcDbLine
10
238.33492127529209
20
56.735300469553806
30
0
11
287.2679642890177
21
72.706988793251128
31
0
0
ARC
5
180
100
AcDbEntity
8
0
100
AcDbCircle
10
286.63964983337559
20
74.63197866664251
30
0
40
2.0249358181997161
210
-0
220
0
230
1
100
AcDbArc
50
-71.923377601952296
51
12.558418088377516
0
LINE
5
181
100
AcDbEntity
8
0
100
AcDbLine
10
288.61613869858695
20
75.07227042618797
30
0
11
286.84852550637243
21
82.504792038115951
31
0
0
LINE
5
182
100
AcDbEntity
8
0
100
AcDbLine
10
286.84852550637243
20
82.504792038115951
30
0
11
303.98287058541661
21
86.970825193226148
31
0
0
ARC
5
183
100
AcDbEntity
8
0
100
AcDbCircle
10
303.66595685227321
20
88.186693744885645
30
0
40
1.2564914043356805
210
-0
220
0
230
1
100
AcDbArc
50
-75.391011350602056
51
17.437760945523621
0
LINE
5
184
100
AcDbEntity
8
0
100
AcDbLine
10
304.86470372840057
20
88.563226049136304
30
0
11
295.21582437340834
21
124.61956469147546
31
0
0
ARC
5
185
100
AcDbEntity
8
0
100
AcDbCircle
10
293.40774114695341
20
124.1357114336918
30
0
40
1.8717048188364072
210
0
220
-0
230
1
100
AcDbArc
50
14.981632572389488
51
90.193916457350554
0
LINE
5
186
100
AcDbEntity
8
0
100
AcDbLine
10
293.40140641029677
20
126.00740553262114
30
0
11
278.04108384526495
21
121.91131951527927
31
0
0
ARC
5
187
100
AcDbEntity
8
0
100
AcDbCircle
10
277.33963679389319
20
123.2077069465649
30
0
40
1.4739906166164793
210
0
220
0
230
1
100
AcDbArc
50
194.53445508054068
51
298.41685653469938
0
LINE
5
188
100
AcDbEntity
8
0
100
AcDbLine
10
275.91281844908292
20
122.83779107939185
30
0
11
274.10430700793813
21
129.81347806666474
31
0
0
ARC
5
189
100
AcDbEntity
8
0
100
AcDbCircle
10
272.40713292521838
20
128.37924877565516
30
0
40
2.2220291461286954
210
0
220
-0
230
1
100
AcDbArc
50
40.200118033102683
51
99.368328784580413
0
LINE
5
190
100
AcDbEntity
8
0
100
AcDbLine
10
272.04542970360211
20
130.5716411460391
30
0
11
254.92647647276192
21
127.74733806145562
31
0
0
LINE
5
191
100
AcDbEntity
8
0
100
AcDbLine
10
254.92647647276192
20
127.74733806145562
30
0
11
246.49421234302312
21
135.23237744565211
31
0
0
ARC
5
192
100
AcDbEntity
8
0
100
AcDbCircle
10
245.8331600090433
20
134.43545591528272
30
0
40
1.0354101186614348
210
0
220
-0
230
1
100
AcDbArc
50
50.324041142267603
51
112.06832590956914
0
LINE
5
193
100
AcDbEntity
8
0
100
AcDbLine
10
245.44414399762718
20
135.39500823625764
30
0
11
224.33864494640085
21
126.83854197549857
31
0
0
LINE
5
194
100
AcDbEntity
8
0
100
AcDbLine
10
224.33864494640085
20
126.83854197549857
30
0
11
222.33847009768908
21
130.58886981683298
31
0
0
ARC
5
195
100
AcDbEntity
8
0
100
AcDbCircle
10
221.5201719047619
20
130.34819380952382
30
0
40
0.85295772054784103
210
0
220
-0
230
1
100
AcDbArc
50
16.389544729915809
51
117.00409070275693
0
ARC
5
196
100
AcDbEntity
8
0
100
AcDbCircle
10
83.070514545454515
20
130.16540090909095
30
0
40
0.9906818181817898
210
0
220
-0
230
1
100
AcDbArc
50
75.78196521908599
51
151.92751306414618
0
LINE
5
197
100
AcDbEntity
8
0
100
AcDbLine
10
82.196383529411762
20
130.63160411764707
30
0
11
80.166825059914615
21
126.82618198733989
31
0
0
LINE
5
198
100
AcDbEntity
8
0
100
AcDbLine
10
80.166825059914615
20
126.82618198733989
30
0
11
59.061336078545004
21
135.38264820537634
31
0
0
LINE
5
199
100
AcDbEntity
8
0
100
AcDbLine
10
58.011258515232186
20
135.22001820651474
30
0
11
49.5790019477312
21
127.73498667223372
31
0
0
ARC
5
200
100
AcDbEntity
8
0
100
AcDbCircle
10
58.672315382663875
20
134.4230847826708
30
0
40
1.0354221670498545
210
0
220
-0
230
1
100
AcDbArc
50
67.931664671684288
51
129.6757317558353
0
LINE
5
201
100
AcDbEntity
8
0
100
AcDbLine
10
49.5790019477312
20
127.73498667223372
30
0
11
32.460040296397864
21
130.5592911460391
31
0
0
LINE
5
202
100
AcDbEntity
8
0
100
AcDbLine
10
30.401162992061934
20
129.8011280666648
30
0
11
28.592651550917097
21
122.82544107939187
31
0
0
ARC
5
203
100
AcDbEntity
8
0
100
AcDbCircle
10
32.098337074781625
20
128.36689877565507
30
0
40
2.2220291461287531
210
0
220
-0
230
1
100
AcDbArc
50
80.631671215420681
51
139.79988196689354
0
ARC
5
204
100
AcDbEntity
8
0
100
AcDbCircle
10
27.165833206106875
20
123.19535694656489
30
0
40
1.4739906166164574
210
0
220
0
230
1
100
AcDbArc
50
241.58314346529662
51
345.46554491945989
0
LINE
5
205
100
AcDbEntity
8
0
100
AcDbLine
10
26.464386154735038
20
121.89896951527935
30
0
11
11.171481325280164
21
125.97707746980063
31
0
0
ARC
5
206
100
AcDbEntity
8
0
100
AcDbCircle
10
10.782301987494074
20
124.51765495310275
30
0
40
1.5104220069915613
210
0
220
-0
230
1
100
AcDbArc
50
75.068582821862933
51
179.09570058339435
0
LINE
5
207
100
AcDbEntity
8
0
100
AcDbLine
10
9.2720681020446332
20
124.54149295731214
30
0
11
-0.36235433996678612
21
88.53921481644123
31
0
0
ARC
5
208
100
AcDbEntity
8
0
100
AcDbCircle
10
0.89268316767998046
20
88.203359360796867
30
0
40
1.2991989965691526
210
0
220
0
230
1
100
AcDbArc
50
165.01835260370379
51
252.90834516950915
0
LINE
5
209
100
AcDbEntity
8
0
100
AcDbLine
10
0.5108471402085184
20
86.961538407192407
30
0
11
17.65694224242139
21
82.492432572165797
31
0
0
LINE
5
210
100
AcDbEntity
8
0
100
AcDbLine
10
17.65694224242139
20
82.492432572165797
30
0
11
15.890216902555006
21
75.063644232763451
31
0
0
ARC
5
211
100
AcDbEntity
8
0
100
AcDbCircle
10
17.833907532888421
20
74.601392875936241
30
0
40
1.9979012946926356
210
0
220
0
230
1
100
AcDbArc
50
166.62234757783742
51
252.74079252312626
0
LINE
5
212
100
AcDbEntity
8
0
100
AcDbLine
10
199.91456044610538
20
120.22960102585412
30
0
11
221.13288294345463
21
131.10815705435326
31
0
0
LINE
5
213
100
AcDbEntity
8
0
100
AcDbLine
10
83.313838405767413
20
131.12573624837529
30
0
11
103.26047146854711
21
120.27784426081448
31
0
0
ENDSEC
0
SECTION
2
OBJECTS
0
DICTIONARY
5
C
100
AcDbDictionary
3
ACAD_GROUP
350
D
3
ACAD_MLINESTYLE
350
17
0
DICTIONARY
5
D
100
AcDbDictionary
0
DICTIONARY
5
1A
330
C
100
AcDbDictionary
0
DICTIONARY
5
17
100
AcDbDictionary
0
ENDSEC
0
EOF
