<?xml version="1.0" standalone="no"?>
 <!DOCTYPE svg PUBLIC "-//W3C//DTD SVG 1.1//EN" 
 "http://www.w3.org/Graphics/SVG/1.1/DTD/svg11.dtd"> 
<svg
  xmlns:svg="http://www.w3.org/2000/svg"
  xmlns="http://www.w3.org/2000/svg"
  xmlns:xlink="http://www.w3.org/1999/xlink"
  version="1.1"
  width="245.1100mm" height="106.5784mm" viewBox="0.0000 0.0000 245.1100 106.5784">
<title>SVG Image created as Asfoora-brd.svg date 2024/04/16 15:39:58 </title>
  <desc>Image generated by PCBNEW </desc>
<g style="fill:#000000; fill-opacity:1.0000;stroke:#000000; stroke-opacity:1.0000;
stroke-linecap:round; stroke-linejoin:round;"
 transform="translate(0 0) scale(1 1)">
</g>
<g style="fill:#000000; fill-opacity:0.0; 
stroke:#000000; stroke-width:0.0000; stroke-opacity:1; 
stroke-linecap:round; stroke-linejoin:round;">
</g>
<g style="fill:#000000; fill-opacity:0.0; 
stroke:#000000; stroke-width:0.1000; stroke-opacity:1; 
stroke-linecap:round; stroke-linejoin:round;">
<path d="M-0.5683 40.0007
L18.7696 45.1823
" />
<path d="M18.7696 45.1823
L23.9511 25.8444
" />
<path d="M23.9511 25.8444
L4.6133 20.6629
" />
<path d="M4.6133 20.6629
L-0.5683 40.0007
" />
<path d="M181.7190 96.6572
L199.5570 87.5683
" />
<path d="M199.5570 87.5683
L190.4681 69.7303
" />
<path d="M190.4681 69.7303
L172.6301 78.8192
" />
<path d="M172.6301 78.8192
L181.7190 96.6572
" />
<path d="M166.4464 109.5153
L184.2843 100.4264
" />
<path d="M184.2843 100.4264
L175.1954 82.5884
" />
<path d="M175.1954 82.5884
L157.3575 91.6773
" />
<path d="M157.3575 91.6773
L166.4464 109.5153
" />
<path d="M168.3377 59.9695
L186.1757 50.8806
" />
<path d="M186.1757 50.8806
L177.0868 33.0426
" />
<path d="M177.0868 33.0426
L159.2488 42.1315
" />
<path d="M159.2488 42.1315
L168.3377 59.9695
" />
<path d="M51.8796 21.2618
L69.7175 30.3507
" />
<path d="M69.7175 30.3507
L78.8064 12.5127
" />
<path d="M78.8064 12.5127
L60.9685 3.4238
" />
<path d="M60.9685 3.4238
L51.8796 21.2618
" />
<path d="M67.2277 33.9264
L85.0657 43.0153
" />
<path d="M85.0657 43.0153
L94.1545 25.1773
" />
<path d="M94.1545 25.1773
L76.3166 16.0884
" />
<path d="M76.3166 16.0884
L67.2277 33.9264
" />
<path d="M204.3555 43.2150
L222.9177 35.7154
" />
<path d="M222.9177 35.7154
L215.4181 17.1532
" />
<path d="M215.4181 17.1532
L196.8559 24.6528
" />
<path d="M196.8559 24.6528
L204.3555 43.2150
" />
<path d="M60.4932 100.4013
L78.3312 109.4902
" />
<path d="M78.3312 109.4902
L87.4201 91.6523
" />
<path d="M87.4201 91.6523
L69.5821 82.5634
" />
<path d="M69.5821 82.5634
L60.4932 100.4013
" />
<path d="M174.8490 30.4548
L192.6870 21.3659
" />
<path d="M192.6870 21.3659
L183.5981 3.5280
" />
<path d="M183.5981 3.5280
L165.7602 12.6169
" />
<path d="M165.7602 12.6169
L174.8490 30.4548
" />
<path d="M43.2538 38.1909
L61.0917 47.2798
" />
<path d="M61.0917 47.2798
L70.1806 29.4418
" />
<path d="M70.1806 29.4418
L52.3427 20.3530
" />
<path d="M52.3427 20.3530
L43.2538 38.1909
" />
<path d="M49.9761 67.7846
L67.8140 76.8735
" />
<path d="M67.8140 76.8735
L76.9029 59.0356
" />
<path d="M76.9029 59.0356
L59.0650 49.9467
" />
<path d="M59.0650 49.9467
L49.9761 67.7846
" />
<path d="M225.7926 45.2760
L245.1304 40.0945
" />
<path d="M245.1304 40.0945
L239.9489 20.7566
" />
<path d="M239.9489 20.7566
L220.6110 25.9382
" />
<path d="M220.6110 25.9382
L225.7926 45.2760
" />
<path d="M192.1007 64.3131
L209.9386 55.2242
" />
<path d="M209.9386 55.2242
L200.8497 37.3862
" />
<path d="M200.8497 37.3862
L183.0118 46.4751
" />
<path d="M183.0118 46.4751
L192.1007 64.3131
" />
<path d="M14.5293 53.2321
L33.0916 60.7317
" />
<path d="M33.0916 60.7317
L40.5912 42.1695
" />
<path d="M40.5912 42.1695
L22.0290 34.6699
" />
<path d="M22.0290 34.6699
L14.5293 53.2321
" />
<path d="M28.7644 17.9991
L47.3266 25.4987
" />
<path d="M47.3266 25.4987
L54.8262 6.9365
" />
<path d="M54.8262 6.9365
L36.2640 -0.5631
" />
<path d="M36.2640 -0.5631
L28.7644 17.9991
" />
<path d="M45.2206 87.5432
L63.0585 96.6321
" />
<path d="M63.0585 96.6321
L72.1474 78.7942
" />
<path d="M72.1474 78.7942
L54.3094 69.7053
" />
<path d="M54.3094 69.7053
L45.2206 87.5432
" />
<path d="M154.2215 75.0598
L172.0594 65.9710
" />
<path d="M172.0594 65.9710
L162.9706 48.1330
" />
<path d="M162.9706 48.1330
L145.1326 57.2219
" />
<path d="M145.1326 57.2219
L154.2215 75.0598
" />
<path d="M4.3418 21.6303
L23.6796 26.8119
" />
<path d="M23.6796 26.8119
L28.8612 7.4740
" />
<path d="M28.8612 7.4740
L9.5234 2.2925
" />
<path d="M9.5234 2.2925
L4.3418 21.6303
" />
<path d="M34.6279 55.1200
L52.4659 64.2089
" />
<path d="M52.4659 64.2089
L61.5548 46.3710
" />
<path d="M61.5548 46.3710
L43.7168 37.2821
" />
<path d="M43.7168 37.2821
L34.6279 55.1200
" />
<path d="M197.2380 25.5985
L215.8002 18.0989
" />
<path d="M215.8002 18.0989
L208.3006 -0.4633
" />
<path d="M208.3006 -0.4633
L189.7383 7.0363
" />
<path d="M189.7383 7.0363
L197.2380 25.5985
" />
<path d="M58.6019 50.8555
L76.4398 59.9444
" />
<path d="M76.4398 59.9444
L85.5287 42.1065
" />
<path d="M85.5287 42.1065
L67.6908 33.0176
" />
<path d="M67.6908 33.0176
L58.6019 50.8555
" />
<path d="M81.3439 49.0168
L99.1819 58.1057
" />
<path d="M99.1819 58.1057
L108.2708 40.2677
" />
<path d="M108.2708 40.2677
L90.4328 31.1788
" />
<path d="M90.4328 31.1788
L81.3439 49.0168
" />
<path d="M145.5957 58.1307
L163.4336 49.0418
" />
<path d="M163.4336 49.0418
L154.3447 31.2039
" />
<path d="M154.3447 31.2039
L136.5068 40.2928
" />
<path d="M136.5068 40.2928
L145.5957 58.1307
" />
<path d="M159.7119 43.0403
L177.5498 33.9514
" />
<path d="M177.5498 33.9514
L168.4610 16.1135
" />
<path d="M168.4610 16.1135
L150.6230 25.2024
" />
<path d="M150.6230 25.2024
L159.7119 43.0403
" />
<path d="M220.8688 26.9202
L240.2066 21.7386
" />
<path d="M240.2066 21.7386
L235.0250 2.4008
" />
<path d="M235.0250 2.4008
L215.6872 7.5823
" />
<path d="M215.6872 7.5823
L220.8688 26.9202
" />
<path d="M183.4749 47.3839
L201.3128 38.2950
" />
<path d="M201.3128 38.2950
L192.2239 20.4571
" />
<path d="M192.2239 20.4571
L174.3860 29.5460
" />
<path d="M174.3860 29.5460
L183.4749 47.3839
" />
<path d="M211.4730 60.8315
L230.0352 53.3319
" />
<path d="M230.0352 53.3319
L222.5356 34.7696
" />
<path d="M222.5356 34.7696
L203.9734 42.2693
" />
<path d="M203.9734 42.2693
L211.4730 60.8315
" />
<path d="M21.6472 35.6160
L40.2094 43.1156
" />
<path d="M40.2094 43.1156
L47.7090 24.5534
" />
<path d="M47.7090 24.5534
L29.1468 17.0538
" />
<path d="M29.1468 17.0538
L21.6472 35.6160
" />
<path d="M176.9635 76.8986
L194.8015 67.8097
" />
<path d="M194.8015 67.8097
L185.7126 49.9717
" />
<path d="M185.7126 49.9717
L167.8746 59.0606
" />
<path d="M167.8746 59.0606
L176.9635 76.8986
" />
<path d="M72.7181 65.9459
L90.5560 75.0348
" />
<path d="M90.5560 75.0348
L99.6449 57.1968
" />
<path d="M99.6449 57.1968
L81.8070 48.1080
" />
<path d="M81.8070 48.1080
L72.7181 65.9459
" />
<g >
</g>
<g >
</g>
<g >
</g>
<g >
</g>
<g >
</g>
<g >
</g>
<g >
</g>
<g >
</g>
<g >
</g>
<g >
</g>
<g >
</g>
<g >
</g>
<g >
</g>
<g >
</g>
<g >
</g>
<g >
</g>
<g >
</g>
<g >
</g>
<g >
</g>
<g >
</g>
<g >
</g>
<g >
</g>
<g >
</g>
<g >
</g>
<g >
</g>
<g >
</g>
<g >
</g>
<g >
</g>
<g >
</g>
<g >
</g>
<g >
</g>
<g >
</g>
<g >
</g>
<g >
</g>
<g >
</g>
<g >
</g>
<g >
</g>
<g >
</g>
<g >
</g>
<g >
</g>
<g >
</g>
<g >
</g>
<g >
</g>
<g >
</g>
<g >
</g>
<g >
</g>
<g >
</g>
<g >
</g>
<g >
</g>
<g >
</g>
<g >
</g>
<g >
</g>
<g >
</g>
<g >
</g>
<g >
</g>
<g >
</g>
<g >
</g>
<g >
</g>
<g >
</g>
<g >
</g>
<g >
</g>
<g >
</g>
<g >
</g>
<g >
</g>
<g >
</g>
<g >
</g>
<g >
</g>
<g >
</g>
<g >
</g>
<g >
</g>
<g >
</g>
<g >
</g>
<g >
</g>
<g >
</g>
<g >
</g>
<g >
</g>
<g >
</g>
<g >
</g>
<g >
</g>
<g >
</g>
<g >
</g>
</g>
<g style="fill:#000000; fill-opacity:0.0; 
stroke:#000000; stroke-width:0.1000; stroke-opacity:1; 
stroke-linecap:round; stroke-linejoin:round;">
</g>
<g style="fill:#000000; fill-opacity:0.0; 
stroke:#000000; stroke-width:0.1500; stroke-opacity:1; 
stroke-linecap:round; stroke-linejoin:round;">
<path d="M153.7264 33.8489 A1.5001 1.5001 0.0 0 0 154.3819 31.8314" />
<path d="M151.6386 23.4525 A1.4999 1.4999 0.0 0 0 150.9831 25.4700" />
<path d="M211.4750 7.2733 A1.5000 1.5000 0.0 0 0 213.2541 8.1603" />
<path d="M209.0679 1.0482
L211.4751 7.2733
" />
<path d="M78.4353 15.2483 A1.5083 1.5083 0.0 0 0 77.8455 13.0976" />
<path d="M80.2182 105.7068
L86.0152 94.3295
" />
<path d="M17.5872 52.9804
L54.3210 68.2515
" />
<path d="M78.2007 106.3624 A1.5000 1.5000 0.0 0 0 80.2182 105.7068" />
<path d="M48.0164 84.2229
L54.9765 70.2690
" />
<path d="M86.9016 93.5796 A118.3206 118.3206 0.0 0 0 158.4665 93.6955" />
<path d="M58.9867 8.5470 A1.5001 1.5001 0.0 0 0 60.8851 7.8372" />
<path d="M103.3252 39.7083
L141.5063 39.7083
" />
</g>
<g style="fill:#000000; fill-opacity:0.0; 
stroke:#000000; stroke-width:0.0500; stroke-opacity:1; 
stroke-linecap:round; stroke-linejoin:round;">
<path d="M127.2026 47.1745
L118.5666 47.1745
" />
</g>
<g style="fill:#000000; fill-opacity:0.0; 
stroke:#000000; stroke-width:0.1500; stroke-opacity:1; 
stroke-linecap:round; stroke-linejoin:round;">
<path d="M0.1261 39.1593
L9.5730 3.9030
" />
<path d="M209.0679 1.0482 A1.4999 1.4999 0.0 0 0 207.1152 0.2193" />
<path d="M86.9016 93.5797 A1.5001 1.5001 0.0 0 0 86.0152 94.3295" />
<path d="M159.2291 94.3739
L165.1133 105.7068
" />
<path d="M90.9496 31.8314
L93.8166 26.1245
" />
<path d="M167.1308 106.3624
L179.6049 100.0065
" />
<path d="M187.5827 7.9533
L207.1152 0.2193
" />
<path d="M63.5894 5.8338
L77.8455 13.0976
" />
<path d="M150.9831 25.4700
L154.3819 31.8314
" />
<path d="M197.1596 85.9904 A1.5000 1.5000 0.0 0 0 197.8151 83.9729" />
<path d="M18.2823 46.8670 A1.5000 1.5000 0.0 0 0 17.3953 45.0880" />
<path d="M48.6719 86.2404
L64.7101 94.4122
" />
<path d="M16.7003 51.2014 A1.4999 1.4999 0.0 0 0 17.5872 52.9804" />
</g>
<g style="fill:#000000; fill-opacity:0.0; 
stroke:#000000; stroke-width:0.0500; stroke-opacity:1; 
stroke-linecap:round; stroke-linejoin:round;">
<path d="M118.3166 66.1660
L127.6166 66.1684
" />
</g>
<g style="fill:#000000; fill-opacity:0.0; 
stroke:#000000; stroke-width:0.1500; stroke-opacity:1; 
stroke-linecap:round; stroke-linejoin:round;">
<path d="M11.4101 2.8424 A1.5000 1.5000 0.0 0 0 9.5730 3.9030" />
<path d="M167.4909 12.8612
L182.9800 5.2401
" />
<path d="M227.3322 45.2017 A1.5000 1.5000 0.0 0 0 226.4452 46.9807" />
<path d="M93.8167 26.1245 A1.5002 1.5002 0.0 0 0 93.1611 24.1070" />
</g>
<g style="fill:#000000; fill-opacity:0.0; 
stroke:#000000; stroke-width:0.0500; stroke-opacity:1; 
stroke-linecap:round; stroke-linejoin:round;">
<path d="M118.3166 74.1575
L118.3166 66.1660
" />
</g>
<g style="fill:#000000; fill-opacity:0.0; 
stroke:#000000; stroke-width:0.1500; stroke-opacity:1; 
stroke-linecap:round; stroke-linejoin:round;">
<path d="M185.6842 7.2435 A1.5000 1.5000 0.0 0 0 187.5827 7.9533" />
<path d="M184.9975 5.8956
L185.6843 7.2435
" />
</g>
<g style="fill:#000000; fill-opacity:0.0; 
stroke:#000000; stroke-width:0.0500; stroke-opacity:1; 
stroke-linecap:round; stroke-linejoin:round;">
<path d="M127.2026 54.5405
L118.3126 54.5405
" />
</g>
<g style="fill:#000000; fill-opacity:0.0; 
stroke:#000000; stroke-width:0.1500; stroke-opacity:1; 
stroke-linecap:round; stroke-linejoin:round;">
<path d="M166.4752 15.8745 A1.0063 1.0063 0.0 0 0 166.8456 14.6426" />
<path d="M63.5894 5.8338 A1.5000 1.5000 0.0 0 0 61.5719 6.4893" />
</g>
<g style="fill:#000000; fill-opacity:0.0; 
stroke:#000000; stroke-width:0.0500; stroke-opacity:1; 
stroke-linecap:round; stroke-linejoin:round;">
<path d="M118.3166 74.1575
L127.6191 74.1570
" />
</g>
<g style="fill:#000000; fill-opacity:0.0; 
stroke:#000000; stroke-width:0.1500; stroke-opacity:1; 
stroke-linecap:round; stroke-linejoin:round;">
<path d="M33.2386 7.2311
L36.0508 1.0131
" />
<path d="M31.4596 8.1181 A1.5000 1.5000 0.0 0 0 33.2386 7.2311" />
<path d="M60.8851 7.8372
L61.5719 6.4893
" />
<path d="M213.2541 8.1603
L233.7085 2.8774
" />
<path d="M191.5499 68.2425 A1.4999 1.4999 0.0 0 0 190.8944 70.2600" />
<path d="M38.0035 0.1842
L58.9867 8.5470
" />
<path d="M101.9632 39.3813 A3.0000 3.0000 0.0 0 0 103.3252 39.7083" />
<path d="M228.0706 51.3666
L226.4452 46.9807
" />
<path d="M90.9497 31.8314 A1.4999 1.4999 0.0 0 0 91.6052 33.8489" />
</g>
<g style="fill:#000000; fill-opacity:0.0; 
stroke:#000000; stroke-width:0.0500; stroke-opacity:1; 
stroke-linecap:round; stroke-linejoin:round;">
<path d="M118.3126 54.5405
L118.3126 47.1745
" />
<path d="M127.2026 54.5405
L127.2026 47.1745
" />
</g>
<g style="fill:#000000; fill-opacity:0.0; 
stroke:#000000; stroke-width:0.1500; stroke-opacity:1; 
stroke-linecap:round; stroke-linejoin:round;">
<path d="M180.1215 94.4122
L197.1596 85.9904
" />
<path d="M191.5499 68.2426
L227.1836 53.1456
" />
<path d="M243.9319 41.0315 A1.5000 1.5000 0.0 0 0 244.9925 39.1944" />
<path d="M167.4909 12.8612 A1.3869 1.3869 0.0 0 0 166.8456 14.6426" />
<path d="M142.8683 39.3813
L153.7264 33.8489
" />
<path d="M1.1868 40.9964
L17.3953 45.0880
" />
<path d="M180.2604 97.9890
L179.4659 96.4297
" />
<path d="M78.4353 15.2483 A1.2056 1.2056 0.0 0 0 78.7104 16.8745" />
<path d="M65.3656 96.4298 A1.5001 1.5001 0.0 0 0 64.7101 94.4122" />
<path d="M227.1836 53.1456 A1.5000 1.5000 0.0 0 0 228.0706 51.3666" />
<path d="M65.2266 100.0065
L78.2007 106.3624
" />
<path d="M235.5456 3.9381
L244.9925 39.1944
" />
<path d="M48.0164 84.2229 A1.5000 1.5000 0.0 0 0 48.6719 86.2404" />
<path d="M16.7002 51.2014
L18.2823 46.8670
" />
<path d="M151.6386 23.4525
L166.4752 15.8745
" />
<path d="M227.3322 45.2017
L243.9319 41.0315
" />
</g>
<g style="fill:#000000; fill-opacity:0.0; 
stroke:#000000; stroke-width:0.0500; stroke-opacity:1; 
stroke-linecap:round; stroke-linejoin:round;">
<path d="M127.6166 66.1684
L127.6191 74.1570
" />
</g>
<g style="fill:#000000; fill-opacity:0.0; 
stroke:#000000; stroke-width:0.1500; stroke-opacity:1; 
stroke-linecap:round; stroke-linejoin:round;">
<path d="M64.5711 97.9890 A1.5000 1.5000 0.0 0 0 65.2266 100.0065" />
<path d="M11.4101 2.8423
L31.4596 8.1181
" />
<path d="M78.7104 16.8745
L93.1611 24.1070
" />
<path d="M65.3656 96.4297
L64.5711 97.9890
" />
</g>
<g style="fill:#000000; fill-opacity:0.0; 
stroke:#000000; stroke-width:0.0500; stroke-opacity:1; 
stroke-linecap:round; stroke-linejoin:round;">
<path d="M118.3126 47.1745
L118.5666 47.1745
" />
</g>
<g style="fill:#000000; fill-opacity:0.0; 
stroke:#000000; stroke-width:0.1500; stroke-opacity:1; 
stroke-linecap:round; stroke-linejoin:round;">
<path d="M180.1215 94.4123 A1.5000 1.5000 0.0 0 0 179.4659 96.4297" />
<path d="M0.1261 39.1593 A1.5000 1.5000 0.0 0 0 1.1868 40.9964" />
<path d="M159.2291 94.3739 A1.4024 1.4024 0.0 0 0 158.4665 93.6955" />
<path d="M190.8944 70.2600
L197.8151 83.9729
" />
<path d="M179.6049 100.0065 A1.5000 1.5000 0.0 0 0 180.2604 97.9890" />
<path d="M54.9766 70.2690 A1.5001 1.5001 0.0 0 0 54.3210 68.2515" />
<path d="M165.1133 105.7068 A1.5000 1.5000 0.0 0 0 167.1308 106.3624" />
<path d="M184.9975 5.8956 A1.5000 1.5000 0.0 0 0 182.9800 5.2401" />
<path d="M38.0035 0.1842 A1.5001 1.5001 0.0 0 0 36.0508 1.0131" />
<path d="M91.6052 33.8489
L101.9632 39.3813
" />
<path d="M141.5063 39.7083 A2.9996 2.9996 0.0 0 0 142.8683 39.3813" />
<path d="M235.5457 3.9381 A1.5001 1.5001 0.0 0 0 233.7085 2.8774" />
</g>
<g style="fill:#000000; fill-opacity:0.0; 
stroke:#000000; stroke-width:0.0500; stroke-opacity:1; 
stroke-linecap:round; stroke-linejoin:round;">
<path d="M20.3007 27.9928
L6.7681 24.3668
" />
<path d="M6.7681 24.3668
L3.1317 37.9380
" />
<path d="M3.1317 37.9380
L16.6643 41.5641
" />
<path d="M16.6643 41.5641
L20.3007 27.9928
" />
<path d="M189.1929 73.7695
L176.7099 80.1299
" />
<path d="M176.7099 80.1299
L183.0884 92.6486
" />
<path d="M183.0884 92.6486
L195.5714 86.2882
" />
<path d="M195.5714 86.2882
L189.1929 73.7695
" />
<path d="M173.9202 86.6276
L161.4372 92.9880
" />
<path d="M161.4372 92.9880
L167.8158 105.5067
" />
<path d="M167.8158 105.5067
L180.2988 99.1463
" />
<path d="M180.2988 99.1463
L173.9202 86.6276
" />
<path d="M175.8115 37.0818
L163.3285 43.4422
" />
<path d="M163.3285 43.4422
L169.7071 55.9609
" />
<path d="M169.7071 55.9609
L182.1901 49.6005
" />
<path d="M182.1901 49.6005
L175.8115 37.0818
" />
<path d="M74.7891 13.8552
L62.3061 7.4948
" />
<path d="M62.3061 7.4948
L55.9275 20.0134
" />
<path d="M55.9275 20.0134
L68.4105 26.3738
" />
<path d="M68.4105 26.3738
L74.7891 13.8552
" />
<path d="M90.1372 26.5198
L77.6542 20.1594
" />
<path d="M77.6542 20.1594
L71.2756 32.6781
" />
<path d="M71.2756 32.6781
L83.7586 39.0385
" />
<path d="M83.7586 39.0385
L90.1372 26.5198
" />
<path d="M213.7957 21.0658
L200.8058 26.3141
" />
<path d="M200.8058 26.3141
L206.0690 39.3410
" />
<path d="M206.0690 39.3410
L219.0589 34.0928
" />
<path d="M219.0589 34.0928
L213.7957 21.0658
" />
<path d="M83.4027 92.9948
L70.9197 86.6344
" />
<path d="M70.9197 86.6344
L64.5412 99.1530
" />
<path d="M64.5412 99.1530
L77.0242 105.5134
" />
<path d="M77.0242 105.5134
L83.4027 92.9948
" />
<path d="M182.3229 7.5672
L169.8399 13.9276
" />
<path d="M169.8399 13.9276
L176.2184 26.4462
" />
<path d="M176.2184 26.4462
L188.7014 20.0858
" />
<path d="M188.7014 20.0858
L182.3229 7.5672
" />
<path d="M66.1633 30.7843
L53.6803 24.4239
" />
<path d="M53.6803 24.4239
L47.3017 36.9426
" />
<path d="M47.3017 36.9426
L59.7847 43.3030
" />
<path d="M59.7847 43.3030
L66.1633 30.7843
" />
<path d="M72.8856 60.3781
L60.4026 54.0177
" />
<path d="M60.4026 54.0177
L54.0240 66.5363
" />
<path d="M54.0240 66.5363
L66.5070 72.8967
" />
<path d="M66.5070 72.8967
L72.8856 60.3781
" />
<path d="M237.8617 24.4424
L224.3291 28.0685
" />
<path d="M224.3291 28.0685
L227.9655 41.6397
" />
<path d="M227.9655 41.6397
L241.4981 38.0137
" />
<path d="M241.4981 38.0137
L237.8617 24.4424
" />
<path d="M199.5745 41.4254
L187.0915 47.7858
" />
<path d="M187.0915 47.7858
L193.4701 60.3045
" />
<path d="M193.4701 60.3045
L205.9531 53.9440
" />
<path d="M205.9531 53.9440
L199.5745 41.4254
" />
<path d="M36.7061 43.8570
L23.7163 38.6088
" />
<path d="M23.7163 38.6088
L18.4531 51.6357
" />
<path d="M18.4531 51.6357
L31.4429 56.8840
" />
<path d="M31.4429 56.8840
L36.7061 43.8570
" />
<path d="M50.9412 8.6240
L37.9513 3.3758
" />
<path d="M37.9513 3.3758
L32.6881 16.4027
" />
<path d="M32.6881 16.4027
L45.6780 21.6510
" />
<path d="M45.6780 21.6510
L50.9412 8.6240
" />
<path d="M68.1301 80.1367
L55.6471 73.7763
" />
<path d="M55.6471 73.7763
L49.2685 86.2949
" />
<path d="M49.2685 86.2949
L61.7515 92.6553
" />
<path d="M61.7515 92.6553
L68.1301 80.1367
" />
<path d="M161.6953 52.1722
L149.2123 58.5326
" />
<path d="M149.2123 58.5326
L155.5909 71.0512
" />
<path d="M155.5909 71.0512
L168.0739 64.6908
" />
<path d="M168.0739 64.6908
L161.6953 52.1722
" />
<path d="M25.2108 9.6224
L11.6781 5.9964
" />
<path d="M11.6781 5.9964
L8.0417 19.5676
" />
<path d="M8.0417 19.5676
L21.5743 23.1937
" />
<path d="M21.5743 23.1937
L25.2108 9.6224
" />
<path d="M57.5374 47.7135
L45.0544 41.3530
" />
<path d="M45.0544 41.3530
L38.6759 53.8717
" />
<path d="M38.6759 53.8717
L51.1589 60.2321
" />
<path d="M51.1589 60.2321
L57.5374 47.7135
" />
<path d="M206.6781 3.4493
L193.6883 8.6976
" />
<path d="M193.6883 8.6976
L198.9515 21.7245
" />
<path d="M198.9515 21.7245
L211.9414 16.4763
" />
<path d="M211.9414 16.4763
L206.6781 3.4493
" />
<path d="M81.5114 43.4490
L69.0284 37.0885
" />
<path d="M69.0284 37.0885
L62.6498 49.6072
" />
<path d="M62.6498 49.6072
L75.1328 55.9676
" />
<path d="M75.1328 55.9676
L81.5114 43.4490
" />
<path d="M104.2534 41.6102
L91.7704 35.2498
" />
<path d="M91.7704 35.2498
L85.3918 47.7684
" />
<path d="M85.3918 47.7684
L97.8748 54.1288
" />
<path d="M97.8748 54.1288
L104.2534 41.6102
" />
<path d="M153.0695 35.2431
L140.5865 41.6035
" />
<path d="M140.5865 41.6035
L146.9651 54.1221
" />
<path d="M146.9651 54.1221
L159.4481 47.7617
" />
<path d="M159.4481 47.7617
L153.0695 35.2431
" />
<path d="M167.1857 20.1527
L154.7027 26.5131
" />
<path d="M154.7027 26.5131
L161.0813 39.0317
" />
<path d="M161.0813 39.0317
L173.5643 32.6713
" />
<path d="M173.5643 32.6713
L167.1857 20.1527
" />
<path d="M232.9379 6.0866
L219.4052 9.7126
" />
<path d="M219.4052 9.7126
L223.0416 23.2839
" />
<path d="M223.0416 23.2839
L236.5743 19.6578
" />
<path d="M236.5743 19.6578
L232.9379 6.0866
" />
<path d="M190.9487 24.4963
L178.4657 30.8567
" />
<path d="M178.4657 30.8567
L184.8443 43.3753
" />
<path d="M184.8443 43.3753
L197.3273 37.0149
" />
<path d="M197.3273 37.0149
L190.9487 24.4963
" />
<path d="M220.9132 38.6823
L207.9233 43.9306
" />
<path d="M207.9233 43.9306
L213.1866 56.9575
" />
<path d="M213.1866 56.9575
L226.1764 51.7093
" />
<path d="M226.1764 51.7093
L220.9132 38.6823
" />
<path d="M43.8240 26.2409
L30.8341 20.9927
" />
<path d="M30.8341 20.9927
L25.5709 34.0196
" />
<path d="M25.5709 34.0196
L38.5607 39.2679
" />
<path d="M38.5607 39.2679
L43.8240 26.2409
" />
<path d="M184.4374 54.0109
L171.9544 60.3713
" />
<path d="M171.9544 60.3713
L178.3329 72.8900
" />
<path d="M178.3329 72.8900
L190.8159 66.5296
" />
<path d="M190.8159 66.5296
L184.4374 54.0109
" />
<path d="M95.6276 58.5393
L83.1446 52.1789
" />
<path d="M83.1446 52.1789
L76.7660 64.6976
" />
<path d="M76.7660 64.6976
L89.2490 71.0580
" />
<path d="M89.2490 71.0580
L95.6276 58.5393
" />
<g >
</g>
<g >
</g>
<g >
</g>
<g >
</g>
<g >
</g>
<g >
</g>
<g >
</g>
<g >
</g>
<g >
</g>
<g >
</g>
<g >
</g>
<g >
</g>
<g >
</g>
<g >
</g>
<g >
</g>
<g >
</g>
<g >
</g>
<g >
</g>
<g >
</g>
<g >
</g>
<g >
</g>
<g >
</g>
<g >
</g>
<g >
</g>
<g >
</g>
<g >
</g>
<g >
</g>
<g >
</g>
<g >
</g>
<g >
</g>
<g >
</g>
<g >
</g>
<g >
</g>
<g >
</g>
<g >
</g>
<g >
</g>
<g >
</g>
<g >
</g>
<g >
</g>
<g >
</g>
<g >
</g>
<g >
</g>
<g >
</g>
<g >
</g>
<g >
</g>
<g >
</g>
<g >
</g>
<g >
</g>
<g >
</g>
<g >
</g>
<g >
</g>
<g >
</g>
<g >
</g>
<g >
</g>
<g >
</g>
<g >
</g>
<g >
</g>
<g >
</g>
<g >
</g>
<g >
</g>
<g >
</g>
<g >
</g>
<g >
</g>
<g >
</g>
<g >
</g>
<g >
</g>
<g >
</g>
<g >
</g>
<g >
</g>
<g >
</g>
<g >
</g>
<g >
</g>
<g >
</g>
<g >
</g>
<g >
</g>
<g >
</g>
<g >
</g>
<g >
</g>
<g >
</g>
<g >
</g>
<g >
</g>
</g> 
</svg>
