  0
SECTION
  2
HEADER
  9
$ACADVER
  1
AC1014
  9
$HANDSEED
  5
FFFF
  9
$INSUNITS
 70
     4
  9
$MEASUREMENT
 70
     1
  0
ENDSEC
  0
SECTION
  2
TABLES
  0
TABLE
  2
VPORT
  5
8
330
0
100
AcDbSymbolTable
 70
     4
  0
VPORT
  5
2E
330
8
100
AcDbSymbolTableRecord
100
AcDbViewportTableRecord
  2
*ACTIVE
 70
     0
 10
0.0
 20
0.0
 11
1.0
 21
1.0
 12
210.0
 22
148.5
 13
0.0
 23
0.0
 14
10.0
 24
10.0
 15
10.0
 25
10.0
 16
0.0
 26
0.0
 36
1.0
 17
0.0
 27
0.0
 37
0.0
 40
341.0
 41
1.24
 42
50.0
 43
0.0
 44
0.0
 50
0.0
 51
0.0
 71
     0
 72
   100
 73
     1
 74
     3
 75
     0
 76
     0
 77
     0
 78
     0
  0
ENDTAB
  0
TABLE
  2
LTYPE
  5
5
330
0
100
AcDbSymbolTable
 70
     1
  0
LTYPE
  5
14
330
5
100
AcDbSymbolTableRecord
100
AcDbLinetypeTableRecord
  2
BYBLOCK
 70
     0
  3

 72
    65
 73
     0
 40
0.0
  0
LTYPE
  5
15
330
5
100
AcDbSymbolTableRecord
100
AcDbLinetypeTableRecord
  2
BYLAYER
 70
     0
  3

 72
    65
 73
     0
 40
0.0
  0
LTYPE
  5
16
330
5
100
AcDbSymbolTableRecord
100
AcDbLinetypeTableRecord
  2
CONTINUOUS
 70
     0
  3
Solid line
 72
    65
 73
     0
 40
0.0
  0
ENDTAB
  0
TABLE
  2
LAYER
  5
2
100
AcDbSymbolTable
 70
1
  0
LAYER
  5
50
100
AcDbSymbolTableRecord
100
AcDbLayerTableRecord
  2
0
 70
0
  6
CONTINUOUS
  0
ENDTAB
  0
TABLE
  2
STYLE
  5
3
330
0
100
AcDbSymbolTable
 70
     1
  0
STYLE
  5
11
330
3
100
AcDbSymbolTableRecord
100
AcDbTextStyleTableRecord
  2
STANDARD
 70
     0
 40
0.0
 41
1.0
 50
0.0
 71
     0
 42
2.5
  3
txt
  4

  0
ENDTAB
  0
TABLE
  2
VIEW
  5
6
330
0
100
AcDbSymbolTable
 70
     0
  0
ENDTAB
  0
TABLE
  2
UCS
  5
7
330
0
100
AcDbSymbolTable
 70
     0
  0
ENDTAB
  0
TABLE
  2
APPID
  5
9
330
0
100
AcDbSymbolTable
 70
     2
  0
APPID
  5
12
330
9
100
AcDbSymbolTableRecord
100
AcDbRegAppTableRecord
  2
ACAD
 70
     0
  0
ENDTAB
  0
TABLE
  2
DIMSTYLE
  5
A
330
0
100
AcDbSymbolTable
 70
     1
  0
DIMSTYLE
105
27
330
A
100
AcDbSymbolTableRecord
100
AcDbDimStyleTableRecord
  2
ISO-25
 70
     0
  3

  4

  5

  6

  7

 40
1.0
 41
2.5
 42
0.625
 43
3.75
 44
1.25
 45
0.0
 46
0.0
 47
0.0
 48
0.0
140
2.5
141
2.5
142
0.0
143
0.03937007874016
144
1.0
145
0.0
146
1.0
147
0.625
 71
     0
 72
     0
 73
     0
 74
     0
 75
     0
 76
     0
 77
     1
 78
     8
170
     0
171
     3
172
     1
173
     0
174
     0
175
     0
176
     0
177
     0
178
     0
270
     2
271
     2
272
     2
273
     2
274
     3
340
11
275
     0
280
     0
281
     0
282
     0
283
     0
284
     8
285
     0
286
     0
287
     3
288
     0
  0
ENDTAB
  0
TABLE
  2
BLOCK_RECORD
  5
1
330
0
100
AcDbSymbolTable
 70
     1
  0
BLOCK_RECORD
  5
1F
330
1
100
AcDbSymbolTableRecord
100
AcDbBlockTableRecord
  2
*MODEL_SPACE
  0
BLOCK_RECORD
  5
1B
330
1
100
AcDbSymbolTableRecord
100
AcDbBlockTableRecord
  2
*PAPER_SPACE
  0
ENDTAB
  0
ENDSEC
  0
SECTION
  2
BLOCKS
  0
BLOCK
  5
20
330
1F
100
AcDbEntity
  8
0
100
AcDbBlockBegin
  2
*MODEL_SPACE
 70
     0
 10
0.0
 20
0.0
 30
0.0
  3
*MODEL_SPACE
  1

  0
ENDBLK
  5
21
330
1F
100
AcDbEntity
  8
0
100
AcDbBlockEnd
  0
BLOCK
  5
1C
330
1B
100
AcDbEntity
 67
     1
  8
0
100
AcDbBlockBegin
  2
*PAPER_SPACE
  1

  0
ENDBLK
  5
1D
330
1B
100
AcDbEntity
 67
     1
  8
0
100
AcDbBlockEnd
  0
ENDSEC
  0
SECTION
  2
ENTITIES
  0
LINE
  5
100
100
AcDbEntity
  8
0
 62
7
100
AcDbLine
 10
-0.568300
 20
66.577700
 30
0.0
 11
18.769600
 21
61.396100
 31
0.0
  0
LINE
  5
101
100
AcDbEntity
  8
0
 62
7
100
AcDbLine
 10
18.769600
 20
61.396100
 30
0.0
 11
23.951100
 21
80.734000
 31
0.0
  0
LINE
  5
102
100
AcDbEntity
  8
0
 62
7
100
AcDbLine
 10
23.951100
 20
80.734000
 30
0.0
 11
4.613300
 21
85.915500
 31
0.0
  0
LINE
  5
103
100
AcDbEntity
  8
0
 62
7
100
AcDbLine
 10
4.613300
 20
85.915500
 30
0.0
 11
-0.568300
 21
66.577700
 31
0.0
  0
LINE
  5
104
100
AcDbEntity
  8
0
 62
7
100
AcDbLine
 10
181.719000
 20
9.921200
 30
0.0
 11
199.557000
 21
19.010100
 31
0.0
  0
LINE
  5
105
100
AcDbEntity
  8
0
 62
7
100
AcDbLine
 10
199.557000
 20
19.010100
 30
0.0
 11
190.468100
 21
36.848100
 31
0.0
  0
LINE
  5
106
100
AcDbEntity
  8
0
 62
7
100
AcDbLine
 10
190.468100
 20
36.848100
 30
0.0
 11
172.630100
 21
27.759200
 31
0.0
  0
LINE
  5
107
100
AcDbEntity
  8
0
 62
7
100
AcDbLine
 10
172.630100
 20
27.759200
 30
0.0
 11
181.719000
 21
9.921200
 31
0.0
  0
LINE
  5
108
100
AcDbEntity
  8
0
 62
7
100
AcDbLine
 10
166.446400
 20
-2.936900
 30
0.0
 11
184.284300
 21
6.152000
 31
0.0
  0
LINE
  5
109
100
AcDbEntity
  8
0
 62
7
100
AcDbLine
 10
184.284300
 20
6.152000
 30
0.0
 11
175.195400
 21
23.990000
 31
0.0
  0
LINE
  5
10a
100
AcDbEntity
  8
0
 62
7
100
AcDbLine
 10
175.195400
 20
23.990000
 30
0.0
 11
157.357500
 21
14.901100
 31
0.0
  0
LINE
  5
10b
100
AcDbEntity
  8
0
 62
7
100
AcDbLine
 10
157.357500
 20
14.901100
 30
0.0
 11
166.446400
 21
-2.936900
 31
0.0
  0
LINE
  5
10c
100
AcDbEntity
  8
0
 62
7
100
AcDbLine
 10
168.337700
 20
46.608900
 30
0.0
 11
186.175700
 21
55.697800
 31
0.0
  0
LINE
  5
10d
100
AcDbEntity
  8
0
 62
7
100
AcDbLine
 10
186.175700
 20
55.697800
 30
0.0
 11
177.086800
 21
73.535800
 31
0.0
  0
LINE
  5
10e
100
AcDbEntity
  8
0
 62
7
100
AcDbLine
 10
177.086800
 20
73.535800
 30
0.0
 11
159.248800
 21
64.446900
 31
0.0
  0
LINE
  5
10f
100
AcDbEntity
  8
0
 62
7
100
AcDbLine
 10
159.248800
 20
64.446900
 30
0.0
 11
168.337700
 21
46.608900
 31
0.0
  0
LINE
  5
110
100
AcDbEntity
  8
0
 62
7
100
AcDbLine
 10
51.879600
 20
85.316600
 30
0.0
 11
69.717500
 21
76.227700
 31
0.0
  0
LINE
  5
111
100
AcDbEntity
  8
0
 62
7
100
AcDbLine
 10
69.717500
 20
76.227700
 30
0.0
 11
78.806400
 21
94.065700
 31
0.0
  0
LINE
  5
112
100
AcDbEntity
  8
0
 62
7
100
AcDbLine
 10
78.806400
 20
94.065700
 30
0.0
 11
60.968500
 21
103.154600
 31
0.0
  0
LINE
  5
113
100
AcDbEntity
  8
0
 62
7
100
AcDbLine
 10
60.968500
 20
103.154600
 30
0.0
 11
51.879600
 21
85.316600
 31
0.0
  0
LINE
  5
114
100
AcDbEntity
  8
0
 62
7
100
AcDbLine
 10
67.227700
 20
72.652000
 30
0.0
 11
85.065700
 21
63.563100
 31
0.0
  0
LINE
  5
115
100
AcDbEntity
  8
0
 62
7
100
AcDbLine
 10
85.065700
 20
63.563100
 30
0.0
 11
94.154500
 21
81.401100
 31
0.0
  0
LINE
  5
116
100
AcDbEntity
  8
0
 62
7
100
AcDbLine
 10
94.154500
 20
81.401100
 30
0.0
 11
76.316600
 21
90.490000
 31
0.0
  0
LINE
  5
117
100
AcDbEntity
  8
0
 62
7
100
AcDbLine
 10
76.316600
 20
90.490000
 30
0.0
 11
67.227700
 21
72.652000
 31
0.0
  0
LINE
  5
118
100
AcDbEntity
  8
0
 62
7
100
AcDbLine
 10
204.355500
 20
63.363400
 30
0.0
 11
222.917700
 21
70.863000
 31
0.0
  0
LINE
  5
119
100
AcDbEntity
  8
0
 62
7
100
AcDbLine
 10
222.917700
 20
70.863000
 30
0.0
 11
215.418100
 21
89.425200
 31
0.0
  0
LINE
  5
11a
100
AcDbEntity
  8
0
 62
7
100
AcDbLine
 10
215.418100
 20
89.425200
 30
0.0
 11
196.855900
 21
81.925600
 31
0.0
  0
LINE
  5
11b
100
AcDbEntity
  8
0
 62
7
100
AcDbLine
 10
196.855900
 20
81.925600
 30
0.0
 11
204.355500
 21
63.363400
 31
0.0
  0
LINE
  5
11c
100
AcDbEntity
  8
0
 62
7
100
AcDbLine
 10
60.493200
 20
6.177100
 30
0.0
 11
78.331200
 21
-2.911800
 31
0.0
  0
LINE
  5
11d
100
AcDbEntity
  8
0
 62
7
100
AcDbLine
 10
78.331200
 20
-2.911800
 30
0.0
 11
87.420100
 21
14.926100
 31
0.0
  0
LINE
  5
11e
100
AcDbEntity
  8
0
 62
7
100
AcDbLine
 10
87.420100
 20
14.926100
 30
0.0
 11
69.582100
 21
24.015000
 31
0.0
  0
LINE
  5
11f
100
AcDbEntity
  8
0
 62
7
100
AcDbLine
 10
69.582100
 20
24.015000
 30
0.0
 11
60.493200
 21
6.177100
 31
0.0
  0
LINE
  5
120
100
AcDbEntity
  8
0
 62
7
100
AcDbLine
 10
174.849000
 20
76.123600
 30
0.0
 11
192.687000
 21
85.212500
 31
0.0
  0
LINE
  5
121
100
AcDbEntity
  8
0
 62
7
100
AcDbLine
 10
192.687000
 20
85.212500
 30
0.0
 11
183.598100
 21
103.050400
 31
0.0
  0
LINE
  5
122
100
AcDbEntity
  8
0
 62
7
100
AcDbLine
 10
183.598100
 20
103.050400
 30
0.0
 11
165.760200
 21
93.961500
 31
0.0
  0
LINE
  5
123
100
AcDbEntity
  8
0
 62
7
100
AcDbLine
 10
165.760200
 20
93.961500
 30
0.0
 11
174.849000
 21
76.123600
 31
0.0
  0
LINE
  5
124
100
AcDbEntity
  8
0
 62
7
100
AcDbLine
 10
43.253800
 20
68.387500
 30
0.0
 11
61.091700
 21
59.298600
 31
0.0
  0
LINE
  5
125
100
AcDbEntity
  8
0
 62
7
100
AcDbLine
 10
61.091700
 20
59.298600
 30
0.0
 11
70.180600
 21
77.136600
 31
0.0
  0
LINE
  5
126
100
AcDbEntity
  8
0
 62
7
100
AcDbLine
 10
70.180600
 20
77.136600
 30
0.0
 11
52.342700
 21
86.225400
 31
0.0
  0
LINE
  5
127
100
AcDbEntity
  8
0
 62
7
100
AcDbLine
 10
52.342700
 20
86.225400
 30
0.0
 11
43.253800
 21
68.387500
 31
0.0
  0
LINE
  5
128
100
AcDbEntity
  8
0
 62
7
100
AcDbLine
 10
49.976100
 20
38.793800
 30
0.0
 11
67.814000
 21
29.704900
 31
0.0
  0
LINE
  5
129
100
AcDbEntity
  8
0
 62
7
100
AcDbLine
 10
67.814000
 20
29.704900
 30
0.0
 11
76.902900
 21
47.542800
 31
0.0
  0
LINE
  5
12a
100
AcDbEntity
  8
0
 62
7
100
AcDbLine
 10
76.902900
 20
47.542800
 30
0.0
 11
59.065000
 21
56.631700
 31
0.0
  0
LINE
  5
12b
100
AcDbEntity
  8
0
 62
7
100
AcDbLine
 10
59.065000
 20
56.631700
 30
0.0
 11
49.976100
 21
38.793800
 31
0.0
  0
LINE
  5
12c
100
AcDbEntity
  8
0
 62
7
100
AcDbLine
 10
225.792600
 20
61.302400
 30
0.0
 11
245.130400
 21
66.483900
 31
0.0
  0
LINE
  5
12d
100
AcDbEntity
  8
0
 62
7
100
AcDbLine
 10
245.130400
 20
66.483900
 30
0.0
 11
239.948900
 21
85.821800
 31
0.0
  0
LINE
  5
12e
100
AcDbEntity
  8
0
 62
7
100
AcDbLine
 10
239.948900
 20
85.821800
 30
0.0
 11
220.611000
 21
80.640200
 31
0.0
  0
LINE
  5
12f
100
AcDbEntity
  8
0
 62
7
100
AcDbLine
 10
220.611000
 20
80.640200
 30
0.0
 11
225.792600
 21
61.302400
 31
0.0
  0
LINE
  5
130
100
AcDbEntity
  8
0
 62
7
100
AcDbLine
 10
192.100700
 20
42.265300
 30
0.0
 11
209.938600
 21
51.354200
 31
0.0
  0
LINE
  5
131
100
AcDbEntity
  8
0
 62
7
100
AcDbLine
 10
209.938600
 20
51.354200
 30
0.0
 11
200.849700
 21
69.192200
 31
0.0
  0
LINE
  5
132
100
AcDbEntity
  8
0
 62
7
100
AcDbLine
 10
200.849700
 20
69.192200
 30
0.0
 11
183.011800
 21
60.103300
 31
0.0
  0
LINE
  5
133
100
AcDbEntity
  8
0
 62
7
100
AcDbLine
 10
183.011800
 20
60.103300
 30
0.0
 11
192.100700
 21
42.265300
 31
0.0
  0
LINE
  5
134
100
AcDbEntity
  8
0
 62
7
100
AcDbLine
 10
14.529300
 20
53.346300
 30
0.0
 11
33.091600
 21
45.846700
 31
0.0
  0
LINE
  5
135
100
AcDbEntity
  8
0
 62
7
100
AcDbLine
 10
33.091600
 20
45.846700
 30
0.0
 11
40.591200
 21
64.408900
 31
0.0
  0
LINE
  5
136
100
AcDbEntity
  8
0
 62
7
100
AcDbLine
 10
40.591200
 20
64.408900
 30
0.0
 11
22.029000
 21
71.908500
 31
0.0
  0
LINE
  5
137
100
AcDbEntity
  8
0
 62
7
100
AcDbLine
 10
22.029000
 20
71.908500
 30
0.0
 11
14.529300
 21
53.346300
 31
0.0
  0
LINE
  5
138
100
AcDbEntity
  8
0
 62
7
100
AcDbLine
 10
28.764400
 20
88.579300
 30
0.0
 11
47.326600
 21
81.079700
 31
0.0
  0
LINE
  5
139
100
AcDbEntity
  8
0
 62
7
100
AcDbLine
 10
47.326600
 20
81.079700
 30
0.0
 11
54.826200
 21
99.641900
 31
0.0
  0
LINE
  5
13a
100
AcDbEntity
  8
0
 62
7
100
AcDbLine
 10
54.826200
 20
99.641900
 30
0.0
 11
36.264000
 21
107.141500
 31
0.0
  0
LINE
  5
13b
100
AcDbEntity
  8
0
 62
7
100
AcDbLine
 10
36.264000
 20
107.141500
 30
0.0
 11
28.764400
 21
88.579300
 31
0.0
  0
LINE
  5
13c
100
AcDbEntity
  8
0
 62
7
100
AcDbLine
 10
45.220600
 20
19.035200
 30
0.0
 11
63.058500
 21
9.946300
 31
0.0
  0
LINE
  5
13d
100
AcDbEntity
  8
0
 62
7
100
AcDbLine
 10
63.058500
 20
9.946300
 30
0.0
 11
72.147400
 21
27.784200
 31
0.0
  0
LINE
  5
13e
100
AcDbEntity
  8
0
 62
7
100
AcDbLine
 10
72.147400
 20
27.784200
 30
0.0
 11
54.309400
 21
36.873100
 31
0.0
  0
LINE
  5
13f
100
AcDbEntity
  8
0
 62
7
100
AcDbLine
 10
54.309400
 20
36.873100
 30
0.0
 11
45.220600
 21
19.035200
 31
0.0
  0
LINE
  5
140
100
AcDbEntity
  8
0
 62
7
100
AcDbLine
 10
154.221500
 20
31.518600
 30
0.0
 11
172.059400
 21
40.607400
 31
0.0
  0
LINE
  5
141
100
AcDbEntity
  8
0
 62
7
100
AcDbLine
 10
172.059400
 20
40.607400
 30
0.0
 11
162.970600
 21
58.445400
 31
0.0
  0
LINE
  5
142
100
AcDbEntity
  8
0
 62
7
100
AcDbLine
 10
162.970600
 20
58.445400
 30
0.0
 11
145.132600
 21
49.356500
 31
0.0
  0
LINE
  5
143
100
AcDbEntity
  8
0
 62
7
100
AcDbLine
 10
145.132600
 20
49.356500
 30
0.0
 11
154.221500
 21
31.518600
 31
0.0
  0
LINE
  5
144
100
AcDbEntity
  8
0
 62
7
100
AcDbLine
 10
4.341800
 20
84.948100
 30
0.0
 11
23.679600
 21
79.766500
 31
0.0
  0
LINE
  5
145
100
AcDbEntity
  8
0
 62
7
100
AcDbLine
 10
23.679600
 20
79.766500
 30
0.0
 11
28.861200
 21
99.104400
 31
0.0
  0
LINE
  5
146
100
AcDbEntity
  8
0
 62
7
100
AcDbLine
 10
28.861200
 20
99.104400
 30
0.0
 11
9.523400
 21
104.285900
 31
0.0
  0
LINE
  5
147
100
AcDbEntity
  8
0
 62
7
100
AcDbLine
 10
9.523400
 20
104.285900
 30
0.0
 11
4.341800
 21
84.948100
 31
0.0
  0
LINE
  5
148
100
AcDbEntity
  8
0
 62
7
100
AcDbLine
 10
34.627900
 20
51.458400
 30
0.0
 11
52.465900
 21
42.369500
 31
0.0
  0
LINE
  5
149
100
AcDbEntity
  8
0
 62
7
100
AcDbLine
 10
52.465900
 20
42.369500
 30
0.0
 11
61.554800
 21
60.207400
 31
0.0
  0
LINE
  5
14a
100
AcDbEntity
  8
0
 62
7
100
AcDbLine
 10
61.554800
 20
60.207400
 30
0.0
 11
43.716800
 21
69.296300
 31
0.0
  0
LINE
  5
14b
100
AcDbEntity
  8
0
 62
7
100
AcDbLine
 10
43.716800
 20
69.296300
 30
0.0
 11
34.627900
 21
51.458400
 31
0.0
  0
LINE
  5
14c
100
AcDbEntity
  8
0
 62
7
100
AcDbLine
 10
197.238000
 20
80.979900
 30
0.0
 11
215.800200
 21
88.479500
 31
0.0
  0
LINE
  5
14d
100
AcDbEntity
  8
0
 62
7
100
AcDbLine
 10
215.800200
 20
88.479500
 30
0.0
 11
208.300600
 21
107.041700
 31
0.0
  0
LINE
  5
14e
100
AcDbEntity
  8
0
 62
7
100
AcDbLine
 10
208.300600
 20
107.041700
 30
0.0
 11
189.738300
 21
99.542100
 31
0.0
  0
LINE
  5
14f
100
AcDbEntity
  8
0
 62
7
100
AcDbLine
 10
189.738300
 20
99.542100
 30
0.0
 11
197.238000
 21
80.979900
 31
0.0
  0
LINE
  5
150
100
AcDbEntity
  8
0
 62
7
100
AcDbLine
 10
58.601900
 20
55.722900
 30
0.0
 11
76.439800
 21
46.634000
 31
0.0
  0
LINE
  5
151
100
AcDbEntity
  8
0
 62
7
100
AcDbLine
 10
76.439800
 20
46.634000
 30
0.0
 11
85.528700
 21
64.471900
 31
0.0
  0
LINE
  5
152
100
AcDbEntity
  8
0
 62
7
100
AcDbLine
 10
85.528700
 20
64.471900
 30
0.0
 11
67.690800
 21
73.560800
 31
0.0
  0
LINE
  5
153
100
AcDbEntity
  8
0
 62
7
100
AcDbLine
 10
67.690800
 20
73.560800
 30
0.0
 11
58.601900
 21
55.722900
 31
0.0
  0
LINE
  5
154
100
AcDbEntity
  8
0
 62
7
100
AcDbLine
 10
81.343900
 20
57.561600
 30
0.0
 11
99.181900
 21
48.472700
 31
0.0
  0
LINE
  5
155
100
AcDbEntity
  8
0
 62
7
100
AcDbLine
 10
99.181900
 20
48.472700
 30
0.0
 11
108.270800
 21
66.310700
 31
0.0
  0
LINE
  5
156
100
AcDbEntity
  8
0
 62
7
100
AcDbLine
 10
108.270800
 20
66.310700
 30
0.0
 11
90.432800
 21
75.399600
 31
0.0
  0
LINE
  5
157
100
AcDbEntity
  8
0
 62
7
100
AcDbLine
 10
90.432800
 20
75.399600
 30
0.0
 11
81.343900
 21
57.561600
 31
0.0
  0
LINE
  5
158
100
AcDbEntity
  8
0
 62
7
100
AcDbLine
 10
145.595700
 20
48.447700
 30
0.0
 11
163.433600
 21
57.536600
 31
0.0
  0
LINE
  5
159
100
AcDbEntity
  8
0
 62
7
100
AcDbLine
 10
163.433600
 20
57.536600
 30
0.0
 11
154.344700
 21
75.374500
 31
0.0
  0
LINE
  5
15a
100
AcDbEntity
  8
0
 62
7
100
AcDbLine
 10
154.344700
 20
75.374500
 30
0.0
 11
136.506800
 21
66.285600
 31
0.0
  0
LINE
  5
15b
100
AcDbEntity
  8
0
 62
7
100
AcDbLine
 10
136.506800
 20
66.285600
 30
0.0
 11
145.595700
 21
48.447700
 31
0.0
  0
LINE
  5
15c
100
AcDbEntity
  8
0
 62
7
100
AcDbLine
 10
159.711900
 20
63.538100
 30
0.0
 11
177.549800
 21
72.627000
 31
0.0
  0
LINE
  5
15d
100
AcDbEntity
  8
0
 62
7
100
AcDbLine
 10
177.549800
 20
72.627000
 30
0.0
 11
168.461000
 21
90.464900
 31
0.0
  0
LINE
  5
15e
100
AcDbEntity
  8
0
 62
7
100
AcDbLine
 10
168.461000
 20
90.464900
 30
0.0
 11
150.623000
 21
81.376000
 31
0.0
  0
LINE
  5
15f
100
AcDbEntity
  8
0
 62
7
100
AcDbLine
 10
150.623000
 20
81.376000
 30
0.0
 11
159.711900
 21
63.538100
 31
0.0
  0
LINE
  5
160
100
AcDbEntity
  8
0
 62
7
100
AcDbLine
 10
220.868800
 20
79.658200
 30
0.0
 11
240.206600
 21
84.839800
 31
0.0
  0
LINE
  5
161
100
AcDbEntity
  8
0
 62
7
100
AcDbLine
 10
240.206600
 20
84.839800
 30
0.0
 11
235.025000
 21
104.177600
 31
0.0
  0
LINE
  5
162
100
AcDbEntity
  8
0
 62
7
100
AcDbLine
 10
235.025000
 20
104.177600
 30
0.0
 11
215.687200
 21
98.996100
 31
0.0
  0
LINE
  5
163
100
AcDbEntity
  8
0
 62
7
100
AcDbLine
 10
215.687200
 20
98.996100
 30
0.0
 11
220.868800
 21
79.658200
 31
0.0
  0
LINE
  5
164
100
AcDbEntity
  8
0
 62
7
100
AcDbLine
 10
183.474900
 20
59.194500
 30
0.0
 11
201.312800
 21
68.283400
 31
0.0
  0
LINE
  5
165
100
AcDbEntity
  8
0
 62
7
100
AcDbLine
 10
201.312800
 20
68.283400
 30
0.0
 11
192.223900
 21
86.121300
 31
0.0
  0
LINE
  5
166
100
AcDbEntity
  8
0
 62
7
100
AcDbLine
 10
192.223900
 20
86.121300
 30
0.0
 11
174.386000
 21
77.032400
 31
0.0
  0
LINE
  5
167
100
AcDbEntity
  8
0
 62
7
100
AcDbLine
 10
174.386000
 20
77.032400
 30
0.0
 11
183.474900
 21
59.194500
 31
0.0
  0
LINE
  5
168
100
AcDbEntity
  8
0
 62
7
100
AcDbLine
 10
211.473000
 20
45.746900
 30
0.0
 11
230.035200
 21
53.246500
 31
0.0
  0
LINE
  5
169
100
AcDbEntity
  8
0
 62
7
100
AcDbLine
 10
230.035200
 20
53.246500
 30
0.0
 11
222.535600
 21
71.808800
 31
0.0
  0
LINE
  5
16a
100
AcDbEntity
  8
0
 62
7
100
AcDbLine
 10
222.535600
 20
71.808800
 30
0.0
 11
203.973400
 21
64.309100
 31
0.0
  0
LINE
  5
16b
100
AcDbEntity
  8
0
 62
7
100
AcDbLine
 10
203.973400
 20
64.309100
 30
0.0
 11
211.473000
 21
45.746900
 31
0.0
  0
LINE
  5
16c
100
AcDbEntity
  8
0
 62
7
100
AcDbLine
 10
21.647200
 20
70.962400
 30
0.0
 11
40.209400
 21
63.462800
 31
0.0
  0
LINE
  5
16d
100
AcDbEntity
  8
0
 62
7
100
AcDbLine
 10
40.209400
 20
63.462800
 30
0.0
 11
47.709000
 21
82.025000
 31
0.0
  0
LINE
  5
16e
100
AcDbEntity
  8
0
 62
7
100
AcDbLine
 10
47.709000
 20
82.025000
 30
0.0
 11
29.146800
 21
89.524600
 31
0.0
  0
LINE
  5
16f
100
AcDbEntity
  8
0
 62
7
100
AcDbLine
 10
29.146800
 20
89.524600
 30
0.0
 11
21.647200
 21
70.962400
 31
0.0
  0
LINE
  5
170
100
AcDbEntity
  8
0
 62
7
100
AcDbLine
 10
176.963500
 20
29.679800
 30
0.0
 11
194.801500
 21
38.768700
 31
0.0
  0
LINE
  5
171
100
AcDbEntity
  8
0
 62
7
100
AcDbLine
 10
194.801500
 20
38.768700
 30
0.0
 11
185.712600
 21
56.606700
 31
0.0
  0
LINE
  5
172
100
AcDbEntity
  8
0
 62
7
100
AcDbLine
 10
185.712600
 20
56.606700
 30
0.0
 11
167.874600
 21
47.517800
 31
0.0
  0
LINE
  5
173
100
AcDbEntity
  8
0
 62
7
100
AcDbLine
 10
167.874600
 20
47.517800
 30
0.0
 11
176.963500
 21
29.679800
 31
0.0
  0
LINE
  5
174
100
AcDbEntity
  8
0
 62
7
100
AcDbLine
 10
72.718100
 20
40.632500
 30
0.0
 11
90.556000
 21
31.543600
 31
0.0
  0
LINE
  5
175
100
AcDbEntity
  8
0
 62
7
100
AcDbLine
 10
90.556000
 20
31.543600
 30
0.0
 11
99.644900
 21
49.381600
 31
0.0
  0
LINE
  5
176
100
AcDbEntity
  8
0
 62
7
100
AcDbLine
 10
99.644900
 20
49.381600
 30
0.0
 11
81.807000
 21
58.470400
 31
0.0
  0
LINE
  5
177
100
AcDbEntity
  8
0
 62
7
100
AcDbLine
 10
81.807000
 20
58.470400
 30
0.0
 11
72.718100
 21
40.632500
 31
0.0
  0
SPLINE
  5
178
100
AcDbEntity
  8
0
 62
7
100
AcDbSpline
 70
8
 71
3
 72
8
 73
4
 74
0
 40
0
 40
0
 40
0
 40
0
 40
1
 40
1
 40
1
 40
1
 10
153.726400
 20
72.729500
 30
0.0
 10
154.464482
 20
73.105646
 30
0.0
 10
154.757945
 20
74.008867
 30
0.0
 10
154.381900
 20
74.747000
 30
0.0
  0
SPLINE
  5
179
100
AcDbEntity
  8
0
 62
7
100
AcDbSpline
 70
8
 71
3
 72
8
 73
4
 74
0
 40
0
 40
0
 40
0
 40
0
 40
1
 40
1
 40
1
 40
1
 10
151.638600
 20
83.125900
 30
0.0
 10
151.284119
 20
82.945307
 30
0.0
 10
151.015906
 20
82.631283
 30
0.0
 10
150.892974
 20
82.252921
 30
0.0
  0
SPLINE
  5
17a
100
AcDbEntity
  8
0
 62
7
100
AcDbSpline
 70
8
 71
3
 72
8
 73
4
 74
0
 40
0
 40
0
 40
0
 40
0
 40
1
 40
1
 40
1
 40
1
 10
150.892974
 20
82.252921
 30
0.0
 10
150.770041
 20
81.874559
 30
0.0
 10
150.802461
 20
81.462857
 30
0.0
 10
150.983100
 20
81.108400
 30
0.0
  0
SPLINE
  5
17b
100
AcDbEntity
  8
0
 62
7
100
AcDbSpline
 70
8
 71
3
 72
8
 73
4
 74
0
 40
0
 40
0
 40
0
 40
0
 40
1
 40
1
 40
1
 40
1
 10
211.475000
 20
99.305100
 30
0.0
 10
211.758848
 20
98.602489
 30
0.0
 10
212.522151
 20
98.221932
 30
0.0
 10
213.254100
 20
98.418100
 30
0.0
  0
LINE
  5
17c
100
AcDbEntity
  8
0
 62
7
100
AcDbLine
 10
209.067900
 20
105.530200
 30
0.0
 11
211.475100
 21
99.305100
 31
0.0
  0
SPLINE
  5
17d
100
AcDbEntity
  8
0
 62
7
100
AcDbSpline
 70
8
 71
3
 72
8
 73
4
 74
0
 40
0
 40
0
 40
0
 40
0
 40
1
 40
1
 40
1
 40
1
 10
78.435300
 20
91.330100
 30
0.0
 10
78.662316
 20
91.688726
 30
0.0
 10
78.727722
 20
92.126405
 30
0.0
 10
78.615470
 20
92.535732
 30
0.0
  0
SPLINE
  5
17e
100
AcDbEntity
  8
0
 62
7
100
AcDbSpline
 70
8
 71
3
 72
8
 73
4
 74
0
 40
0
 40
0
 40
0
 40
0
 40
1
 40
1
 40
1
 40
1
 10
78.615470
 20
92.535732
 30
0.0
 10
78.503218
 20
92.945058
 30
0.0
 10
78.223697
 20
93.288145
 30
0.0
 10
77.845500
 20
93.480800
 30
0.0
  0
LINE
  5
17f
100
AcDbEntity
  8
0
 62
7
100
AcDbLine
 10
80.218200
 20
0.871600
 30
0.0
 11
86.015200
 21
12.248900
 31
0.0
  0
LINE
  5
180
100
AcDbEntity
  8
0
 62
7
100
AcDbLine
 10
17.587200
 20
53.598000
 30
0.0
 11
54.321000
 21
38.326900
 31
0.0
  0
SPLINE
  5
181
100
AcDbEntity
  8
0
 62
7
100
AcDbSpline
 70
8
 71
3
 72
8
 73
4
 74
0
 40
0
 40
0
 40
0
 40
0
 40
1
 40
1
 40
1
 40
1
 10
78.200700
 20
0.216000
 30
0.0
 10
78.555174
 20
0.035395
 30
0.0
 10
78.966876
 20
0.003005
 30
0.0
 10
79.345232
 20
0.125954
 30
0.0
  0
SPLINE
  5
182
100
AcDbEntity
  8
0
 62
7
100
AcDbSpline
 70
8
 71
3
 72
8
 73
4
 74
0
 40
0
 40
0
 40
0
 40
0
 40
1
 40
1
 40
1
 40
1
 10
79.345232
 20
0.125954
 30
0.0
 10
79.723588
 20
0.248904
 30
0.0
 10
80.037605
 20
0.517121
 30
0.0
 10
80.218200
 20
0.871600
 30
0.0
  0
LINE
  5
183
100
AcDbEntity
  8
0
 62
7
100
AcDbLine
 10
48.016400
 20
22.355500
 30
0.0
 11
54.976500
 21
36.309400
 31
0.0
  0
SPLINE
  5
184
100
AcDbEntity
  8
0
 62
7
100
AcDbSpline
 70
8
 71
3
 72
8
 73
4
 74
0
 40
0
 40
0
 40
0
 40
0
 40
1
 40
1
 40
1
 40
1
 10
86.901600
 20
12.998800
 30
0.0
 10
110.172707
 20
5.573925
 30
0.0
 10
135.171466
 20
5.533439
 30
0.0
 10
158.466500
 20
12.882900
 30
0.0
  0
SPLINE
  5
185
100
AcDbEntity
  8
0
 62
7
100
AcDbSpline
 70
8
 71
3
 72
8
 73
4
 74
0
 40
0
 40
0
 40
0
 40
0
 40
1
 40
1
 40
1
 40
1
 10
58.986700
 20
98.031400
 30
0.0
 10
59.707822
 20
97.740111
 30
0.0
 10
60.531976
 20
98.048258
 30
0.0
 10
60.885100
 20
98.741200
 30
0.0
  0
LINE
  5
186
100
AcDbEntity
  8
0
 62
7
100
AcDbLine
 10
103.325200
 20
66.870100
 30
0.0
 11
141.506300
 21
66.870100
 31
0.0
  0
LINE
  5
187
100
AcDbEntity
  8
0
 62
7
100
AcDbLine
 10
127.202600
 20
59.403900
 30
0.0
 11
118.566600
 21
59.403900
 31
0.0
  0
LINE
  5
188
100
AcDbEntity
  8
0
 62
7
100
AcDbLine
 10
0.126100
 20
67.419100
 30
0.0
 11
9.573000
 21
102.675400
 31
0.0
  0
SPLINE
  5
189
100
AcDbEntity
  8
0
 62
7
100
AcDbSpline
 70
8
 71
3
 72
8
 73
4
 74
0
 40
0
 40
0
 40
0
 40
0
 40
1
 40
1
 40
1
 40
1
 10
209.067900
 20
105.530200
 30
0.0
 10
208.918900
 20
105.899084
 30
0.0
 10
208.629451
 20
106.193660
 30
0.0
 10
208.263240
 20
106.349113
 30
0.0
  0
SPLINE
  5
18a
100
AcDbEntity
  8
0
 62
7
100
AcDbSpline
 70
8
 71
3
 72
8
 73
4
 74
0
 40
0
 40
0
 40
0
 40
0
 40
1
 40
1
 40
1
 40
1
 10
208.263240
 20
106.349113
 30
0.0
 10
207.897029
 20
106.504565
 30
0.0
 10
207.484060
 20
106.508158
 30
0.0
 10
207.115200
 20
106.359100
 30
0.0
  0
SPLINE
  5
18b
100
AcDbEntity
  8
0
 62
7
100
AcDbSpline
 70
8
 71
3
 72
8
 73
4
 74
0
 40
0
 40
0
 40
0
 40
0
 40
1
 40
1
 40
1
 40
1
 10
86.901600
 20
12.998700
 30
0.0
 10
86.517472
 20
12.877869
 30
0.0
 10
86.198053
 20
12.607674
 30
0.0
 10
86.015200
 20
12.248900
 30
0.0
  0
LINE
  5
18c
100
AcDbEntity
  8
0
 62
7
100
AcDbLine
 10
159.229100
 20
12.204500
 30
0.0
 11
165.113300
 21
0.871600
 31
0.0
  0
LINE
  5
18d
100
AcDbEntity
  8
0
 62
7
100
AcDbLine
 10
90.949600
 20
74.747000
 30
0.0
 11
93.816600
 21
80.453900
 31
0.0
  0
LINE
  5
18e
100
AcDbEntity
  8
0
 62
7
100
AcDbLine
 10
167.130800
 20
0.216000
 30
0.0
 11
179.604900
 21
6.571900
 31
0.0
  0
LINE
  5
18f
100
AcDbEntity
  8
0
 62
7
100
AcDbLine
 10
187.582700
 20
98.625100
 30
0.0
 11
207.115200
 21
106.359100
 31
0.0
  0
LINE
  5
190
100
AcDbEntity
  8
0
 62
7
100
AcDbLine
 10
63.589400
 20
100.744600
 30
0.0
 11
77.845500
 21
93.480800
 31
0.0
  0
LINE
  5
191
100
AcDbEntity
  8
0
 62
7
100
AcDbLine
 10
150.983100
 20
81.108400
 30
0.0
 11
154.381900
 21
74.747000
 31
0.0
  0
SPLINE
  5
192
100
AcDbEntity
  8
0
 62
7
100
AcDbSpline
 70
8
 71
3
 72
8
 73
4
 74
0
 40
0
 40
0
 40
0
 40
0
 40
1
 40
1
 40
1
 40
1
 10
197.159600
 20
20.588000
 30
0.0
 10
197.897728
 20
20.964107
 30
0.0
 10
198.191205
 20
21.867371
 30
0.0
 10
197.815100
 20
22.605500
 30
0.0
  0
SPLINE
  5
193
100
AcDbEntity
  8
0
 62
7
100
AcDbSpline
 70
8
 71
3
 72
8
 73
4
 74
0
 40
0
 40
0
 40
0
 40
0
 40
1
 40
1
 40
1
 40
1
 10
18.282300
 20
59.711400
 30
0.0
 10
18.478410
 20
60.443317
 30
0.0
 10
18.097863
 20
61.206557
 30
0.0
 10
17.395300
 20
61.490400
 30
0.0
  0
LINE
  5
194
100
AcDbEntity
  8
0
 62
7
100
AcDbLine
 10
48.671900
 20
20.338000
 30
0.0
 11
64.710100
 21
12.166200
 31
0.0
  0
SPLINE
  5
195
100
AcDbEntity
  8
0
 62
7
100
AcDbSpline
 70
8
 71
3
 72
8
 73
4
 74
0
 40
0
 40
0
 40
0
 40
0
 40
1
 40
1
 40
1
 40
1
 10
16.700300
 20
55.377000
 30
0.0
 10
16.504130
 20
54.645105
 30
0.0
 10
16.884644
 20
53.881845
 30
0.0
 10
17.587200
 20
53.598000
 30
0.0
  0
LINE
  5
196
100
AcDbEntity
  8
0
 62
7
100
AcDbLine
 10
118.316600
 20
40.412400
 30
0.0
 11
127.616600
 21
40.410000
 31
0.0
  0
SPLINE
  5
197
100
AcDbEntity
  8
0
 62
7
100
AcDbSpline
 70
8
 71
3
 72
8
 73
4
 74
0
 40
0
 40
0
 40
0
 40
0
 40
1
 40
1
 40
1
 40
1
 10
11.410100
 20
103.736000
 30
0.0
 10
10.609925
 20
103.950406
 30
0.0
 10
9.787440
 20
103.475566
 30
0.0
 10
9.573000
 20
102.675400
 30
0.0
  0
LINE
  5
198
100
AcDbEntity
  8
0
 62
7
100
AcDbLine
 10
167.490900
 20
93.717200
 30
0.0
 11
182.980000
 21
101.338300
 31
0.0
  0
SPLINE
  5
199
100
AcDbEntity
  8
0
 62
7
100
AcDbSpline
 70
8
 71
3
 72
8
 73
4
 74
0
 40
0
 40
0
 40
0
 40
0
 40
1
 40
1
 40
1
 40
1
 10
227.332200
 20
61.376700
 30
0.0
 10
226.629637
 20
61.092857
 30
0.0
 10
226.249090
 20
60.329617
 30
0.0
 10
226.445200
 20
59.597700
 30
0.0
  0
SPLINE
  5
19a
100
AcDbEntity
  8
0
 62
7
100
AcDbSpline
 70
8
 71
3
 72
8
 73
4
 74
0
 40
0
 40
0
 40
0
 40
0
 40
1
 40
1
 40
1
 40
1
 10
93.816700
 20
80.453900
 30
0.0
 10
94.192671
 20
81.192065
 30
0.0
 10
93.899174
 20
82.095252
 30
0.0
 10
93.161100
 20
82.471400
 30
0.0
  0
LINE
  5
19b
100
AcDbEntity
  8
0
 62
7
100
AcDbLine
 10
118.316600
 20
32.420900
 30
0.0
 11
118.316600
 21
40.412400
 31
0.0
  0
SPLINE
  5
19c
100
AcDbEntity
  8
0
 62
7
100
AcDbSpline
 70
8
 71
3
 72
8
 73
4
 74
0
 40
0
 40
0
 40
0
 40
0
 40
1
 40
1
 40
1
 40
1
 10
185.684200
 20
99.334900
 30
0.0
 10
186.037295
 20
98.641867
 30
0.0
 10
186.861551
 20
98.333699
 30
0.0
 10
187.582700
 20
98.625100
 30
0.0
  0
LINE
  5
19d
100
AcDbEntity
  8
0
 62
7
100
AcDbLine
 10
184.997500
 20
100.682800
 30
0.0
 11
185.684300
 21
99.334900
 31
0.0
  0
LINE
  5
19e
100
AcDbEntity
  8
0
 62
7
100
AcDbLine
 10
127.202600
 20
52.037900
 30
0.0
 11
118.312600
 21
52.037900
 31
0.0
  0
SPLINE
  5
19f
100
AcDbEntity
  8
0
 62
7
100
AcDbSpline
 70
8
 71
3
 72
8
 73
4
 74
0
 40
0
 40
0
 40
0
 40
0
 40
1
 40
1
 40
1
 40
1
 10
166.475200
 20
90.703900
 30
0.0
 10
166.879272
 20
90.971714
 30
0.0
 10
167.034973
 20
91.489553
 30
0.0
 10
166.845600
 20
91.935800
 30
0.0
  0
SPLINE
  5
1a0
100
AcDbEntity
  8
0
 62
7
100
AcDbSpline
 70
8
 71
3
 72
8
 73
4
 74
0
 40
0
 40
0
 40
0
 40
0
 40
1
 40
1
 40
1
 40
1
 10
63.589400
 20
100.744600
 30
0.0
 10
62.851271
 20
101.120705
 30
0.0
 10
61.948007
 20
100.827228
 30
0.0
 10
61.571900
 20
100.089100
 30
0.0
  0
LINE
  5
1a1
100
AcDbEntity
  8
0
 62
7
100
AcDbLine
 10
118.316600
 20
32.420900
 30
0.0
 11
127.619100
 21
32.421400
 31
0.0
  0
LINE
  5
1a2
100
AcDbEntity
  8
0
 62
7
100
AcDbLine
 10
33.238600
 20
99.347300
 30
0.0
 11
36.050800
 21
105.565300
 31
0.0
  0
SPLINE
  5
1a3
100
AcDbEntity
  8
0
 62
7
100
AcDbSpline
 70
8
 71
3
 72
8
 73
4
 74
0
 40
0
 40
0
 40
0
 40
0
 40
1
 40
1
 40
1
 40
1
 10
31.459600
 20
98.460300
 30
0.0
 10
32.191517
 20
98.264190
 30
0.0
 10
32.954757
 20
98.644737
 30
0.0
 10
33.238600
 20
99.347300
 30
0.0
  0
LINE
  5
1a4
100
AcDbEntity
  8
0
 62
7
100
AcDbLine
 10
60.885100
 20
98.741200
 30
0.0
 11
61.571900
 21
100.089100
 31
0.0
  0
LINE
  5
1a5
100
AcDbEntity
  8
0
 62
7
100
AcDbLine
 10
213.254100
 20
98.418100
 30
0.0
 11
233.708500
 21
103.701000
 31
0.0
  0
SPLINE
  5
1a6
100
AcDbEntity
  8
0
 62
7
100
AcDbSpline
 70
8
 71
3
 72
8
 73
4
 74
0
 40
0
 40
0
 40
0
 40
0
 40
1
 40
1
 40
1
 40
1
 10
191.549900
 20
38.335900
 30
0.0
 10
191.195419
 20
38.155307
 30
0.0
 10
190.927206
 20
37.841283
 30
0.0
 10
190.804274
 20
37.462921
 30
0.0
  0
SPLINE
  5
1a7
100
AcDbEntity
  8
0
 62
7
100
AcDbSpline
 70
8
 71
3
 72
8
 73
4
 74
0
 40
0
 40
0
 40
0
 40
0
 40
1
 40
1
 40
1
 40
1
 10
190.804274
 20
37.462921
 30
0.0
 10
190.681341
 20
37.084559
 30
0.0
 10
190.713761
 20
36.672857
 30
0.0
 10
190.894400
 20
36.318400
 30
0.0
  0
LINE
  5
1a8
100
AcDbEntity
  8
0
 62
7
100
AcDbLine
 10
38.003500
 20
106.394200
 30
0.0
 11
58.986700
 21
98.031400
 31
0.0
  0
SPLINE
  5
1a9
100
AcDbEntity
  8
0
 62
7
100
AcDbSpline
 70
8
 71
3
 72
8
 73
4
 74
0
 40
0
 40
0
 40
0
 40
0
 40
1
 40
1
 40
1
 40
1
 10
101.963200
 20
67.197100
 30
0.0
 10
102.385037
 20
66.982156
 30
0.0
 10
102.851758
 20
66.870102
 30
0.0
 10
103.325200
 20
66.870100
 30
0.0
  0
LINE
  5
1aa
100
AcDbEntity
  8
0
 62
7
100
AcDbLine
 10
228.070600
 20
55.211800
 30
0.0
 11
226.445200
 21
59.597700
 31
0.0
  0
SPLINE
  5
1ab
100
AcDbEntity
  8
0
 62
7
100
AcDbSpline
 70
8
 71
3
 72
8
 73
4
 74
0
 40
0
 40
0
 40
0
 40
0
 40
1
 40
1
 40
1
 40
1
 10
90.949700
 20
74.747000
 30
0.0
 10
90.769061
 20
74.392543
 30
0.0
 10
90.736641
 20
73.980841
 30
0.0
 10
90.859574
 20
73.602479
 30
0.0
  0
SPLINE
  5
1ac
100
AcDbEntity
  8
0
 62
7
100
AcDbSpline
 70
8
 71
3
 72
8
 73
4
 74
0
 40
0
 40
0
 40
0
 40
0
 40
1
 40
1
 40
1
 40
1
 10
90.859574
 20
73.602479
 30
0.0
 10
90.982506
 20
73.224117
 30
0.0
 10
91.250719
 20
72.910093
 30
0.0
 10
91.605200
 20
72.729500
 30
0.0
  0
LINE
  5
1ad
100
AcDbEntity
  8
0
 62
7
100
AcDbLine
 10
118.312600
 20
52.037900
 30
0.0
 11
118.312600
 21
59.403900
 31
0.0
  0
LINE
  5
1ae
100
AcDbEntity
  8
0
 62
7
100
AcDbLine
 10
127.202600
 20
52.037900
 30
0.0
 11
127.202600
 21
59.403900
 31
0.0
  0
LINE
  5
1af
100
AcDbEntity
  8
0
 62
7
100
AcDbLine
 10
180.121500
 20
12.166200
 30
0.0
 11
197.159600
 21
20.588000
 31
0.0
  0
LINE
  5
1b0
100
AcDbEntity
  8
0
 62
7
100
AcDbLine
 10
191.549900
 20
38.335800
 30
0.0
 11
227.183600
 21
53.432800
 31
0.0
  0
SPLINE
  5
1b1
100
AcDbEntity
  8
0
 62
7
100
AcDbSpline
 70
8
 71
3
 72
8
 73
4
 74
0
 40
0
 40
0
 40
0
 40
0
 40
1
 40
1
 40
1
 40
1
 10
243.931900
 20
65.546900
 30
0.0
 10
244.732066
 20
65.761340
 30
0.0
 10
245.206906
 20
66.583825
 30
0.0
 10
244.992500
 20
67.384000
 30
0.0
  0
SPLINE
  5
1b2
100
AcDbEntity
  8
0
 62
7
100
AcDbSpline
 70
8
 71
3
 72
8
 73
4
 74
0
 40
0
 40
0
 40
0
 40
0
 40
1
 40
1
 40
1
 40
1
 10
167.490900
 20
93.717200
 30
0.0
 10
166.840512
 20
93.385753
 30
0.0
 10
166.558375
 20
92.606891
 30
0.0
 10
166.845600
 20
91.935800
 30
0.0
  0
LINE
  5
1b3
100
AcDbEntity
  8
0
 62
7
100
AcDbLine
 10
142.868300
 20
67.197100
 30
0.0
 11
153.726400
 21
72.729500
 31
0.0
  0
LINE
  5
1b4
100
AcDbEntity
  8
0
 62
7
100
AcDbLine
 10
1.186800
 20
65.582000
 30
0.0
 11
17.395300
 21
61.490400
 31
0.0
  0
LINE
  5
1b5
100
AcDbEntity
  8
0
 62
7
100
AcDbLine
 10
180.260400
 20
8.589400
 30
0.0
 11
179.465900
 21
10.148700
 31
0.0
  0
SPLINE
  5
1b6
100
AcDbEntity
  8
0
 62
7
100
AcDbSpline
 70
8
 71
3
 72
8
 73
4
 74
0
 40
0
 40
0
 40
0
 40
0
 40
1
 40
1
 40
1
 40
1
 10
78.435300
 20
91.330100
 30
0.0
 10
78.083872
 20
90.800291
 30
0.0
 10
78.204260
 20
90.088636
 30
0.0
 10
78.710400
 20
89.703900
 30
0.0
  0
SPLINE
  5
1b7
100
AcDbEntity
  8
0
 62
7
100
AcDbSpline
 70
8
 71
3
 72
8
 73
4
 74
0
 40
0
 40
0
 40
0
 40
0
 40
1
 40
1
 40
1
 40
1
 10
65.365600
 20
10.148600
 30
0.0
 10
65.741713
 20
10.886758
 30
0.0
 10
65.448240
 20
11.790053
 30
0.0
 10
64.710100
 20
12.166200
 30
0.0
  0
SPLINE
  5
1b8
100
AcDbEntity
  8
0
 62
7
100
AcDbSpline
 70
8
 71
3
 72
8
 73
4
 74
0
 40
0
 40
0
 40
0
 40
0
 40
1
 40
1
 40
1
 40
1
 10
227.183600
 20
53.432800
 30
0.0
 10
227.886163
 20
53.716643
 30
0.0
 10
228.266710
 20
54.479883
 30
0.0
 10
228.070600
 20
55.211800
 30
0.0
  0
LINE
  5
1b9
100
AcDbEntity
  8
0
 62
7
100
AcDbLine
 10
65.226600
 20
6.571900
 30
0.0
 11
78.200700
 21
0.216000
 31
0.0
  0
LINE
  5
1ba
100
AcDbEntity
  8
0
 62
7
100
AcDbLine
 10
235.545600
 20
102.640300
 30
0.0
 11
244.992500
 21
67.384000
 31
0.0
  0
SPLINE
  5
1bb
100
AcDbEntity
  8
0
 62
7
100
AcDbSpline
 70
8
 71
3
 72
8
 73
4
 74
0
 40
0
 40
0
 40
0
 40
0
 40
1
 40
1
 40
1
 40
1
 10
48.016400
 20
22.355500
 30
0.0
 10
47.640295
 20
21.617371
 30
0.0
 10
47.933772
 20
20.714107
 30
0.0
 10
48.671900
 20
20.338000
 30
0.0
  0
LINE
  5
1bc
100
AcDbEntity
  8
0
 62
7
100
AcDbLine
 10
16.700200
 20
55.377000
 30
0.0
 11
18.282300
 21
59.711400
 31
0.0
  0
LINE
  5
1bd
100
AcDbEntity
  8
0
 62
7
100
AcDbLine
 10
151.638600
 20
83.125900
 30
0.0
 11
166.475200
 21
90.703900
 31
0.0
  0
LINE
  5
1be
100
AcDbEntity
  8
0
 62
7
100
AcDbLine
 10
227.332200
 20
61.376700
 30
0.0
 11
243.931900
 21
65.546900
 31
0.0
  0
LINE
  5
1bf
100
AcDbEntity
  8
0
 62
7
100
AcDbLine
 10
127.616600
 20
40.410000
 30
0.0
 11
127.619100
 21
32.421400
 31
0.0
  0
SPLINE
  5
1c0
100
AcDbEntity
  8
0
 62
7
100
AcDbSpline
 70
8
 71
3
 72
8
 73
4
 74
0
 40
0
 40
0
 40
0
 40
0
 40
1
 40
1
 40
1
 40
1
 10
64.571100
 20
8.589400
 30
0.0
 10
64.194995
 20
7.851271
 30
0.0
 10
64.488472
 20
6.948007
 30
0.0
 10
65.226600
 20
6.571900
 30
0.0
  0
LINE
  5
1c1
100
AcDbEntity
  8
0
 62
7
100
AcDbLine
 10
11.410100
 20
103.736100
 30
0.0
 11
31.459600
 21
98.460300
 31
0.0
  0
LINE
  5
1c2
100
AcDbEntity
  8
0
 62
7
100
AcDbLine
 10
78.710400
 20
89.703900
 30
0.0
 11
93.161100
 21
82.471400
 31
0.0
  0
LINE
  5
1c3
100
AcDbEntity
  8
0
 62
7
100
AcDbLine
 10
65.365600
 20
10.148700
 30
0.0
 11
64.571100
 21
8.589400
 31
0.0
  0
LINE
  5
1c4
100
AcDbEntity
  8
0
 62
7
100
AcDbLine
 10
118.312600
 20
59.403900
 30
0.0
 11
118.566600
 21
59.403900
 31
0.0
  0
SPLINE
  5
1c5
100
AcDbEntity
  8
0
 62
7
100
AcDbSpline
 70
8
 71
3
 72
8
 73
4
 74
0
 40
0
 40
0
 40
0
 40
0
 40
1
 40
1
 40
1
 40
1
 10
180.121500
 20
12.166100
 30
0.0
 10
179.383393
 20
11.790031
 30
0.0
 10
179.089878
 20
10.886831
 30
0.0
 10
179.465900
 20
10.148700
 30
0.0
  0
SPLINE
  5
1c6
100
AcDbEntity
  8
0
 62
7
100
AcDbSpline
 70
8
 71
3
 72
8
 73
4
 74
0
 40
0
 40
0
 40
0
 40
0
 40
1
 40
1
 40
1
 40
1
 10
0.126100
 20
67.419100
 30
0.0
 10
0.023142
 20
67.034828
 30
0.0
 10
0.077053
 20
66.625394
 30
0.0
 10
0.275973
 20
66.280871
 30
0.0
  0
SPLINE
  5
1c7
100
AcDbEntity
  8
0
 62
7
100
AcDbSpline
 70
8
 71
3
 72
8
 73
4
 74
0
 40
0
 40
0
 40
0
 40
0
 40
1
 40
1
 40
1
 40
1
 10
0.275973
 20
66.280871
 30
0.0
 10
0.474893
 20
65.936348
 30
0.0
 10
0.802527
 20
65.684956
 30
0.0
 10
1.186800
 20
65.582000
 30
0.0
  0
SPLINE
  5
1c8
100
AcDbEntity
  8
0
 62
7
100
AcDbSpline
 70
8
 71
3
 72
8
 73
4
 74
0
 40
0
 40
0
 40
0
 40
0
 40
1
 40
1
 40
1
 40
1
 10
159.229100
 20
12.204500
 30
0.0
 10
159.069136
 20
12.518394
 30
0.0
 10
158.796888
 20
12.760582
 30
0.0
 10
158.466500
 20
12.882900
 30
0.0
  0
LINE
  5
1c9
100
AcDbEntity
  8
0
 62
7
100
AcDbLine
 10
190.894400
 20
36.318400
 30
0.0
 11
197.815100
 21
22.605500
 31
0.0
  0
SPLINE
  5
1ca
100
AcDbEntity
  8
0
 62
7
100
AcDbSpline
 70
8
 71
3
 72
8
 73
4
 74
0
 40
0
 40
0
 40
0
 40
0
 40
1
 40
1
 40
1
 40
1
 10
179.604900
 20
6.571900
 30
0.0
 10
180.343028
 20
6.948007
 30
0.0
 10
180.636505
 20
7.851271
 30
0.0
 10
180.260400
 20
8.589400
 30
0.0
  0
SPLINE
  5
1cb
100
AcDbEntity
  8
0
 62
7
100
AcDbSpline
 70
8
 71
3
 72
8
 73
4
 74
0
 40
0
 40
0
 40
0
 40
0
 40
1
 40
1
 40
1
 40
1
 10
54.976600
 20
36.309400
 30
0.0
 10
55.352630
 20
37.047560
 30
0.0
 10
55.059120
 20
37.950790
 30
0.0
 10
54.321000
 20
38.326900
 30
0.0
  0
SPLINE
  5
1cc
100
AcDbEntity
  8
0
 62
7
100
AcDbSpline
 70
8
 71
3
 72
8
 73
4
 74
0
 40
0
 40
0
 40
0
 40
0
 40
1
 40
1
 40
1
 40
1
 10
165.113300
 20
0.871600
 30
0.0
 10
165.293895
 20
0.517121
 30
0.0
 10
165.607912
 20
0.248904
 30
0.0
 10
165.986268
 20
0.125954
 30
0.0
  0
SPLINE
  5
1cd
100
AcDbEntity
  8
0
 62
7
100
AcDbSpline
 70
8
 71
3
 72
8
 73
4
 74
0
 40
0
 40
0
 40
0
 40
0
 40
1
 40
1
 40
1
 40
1
 10
165.986268
 20
0.125954
 30
0.0
 10
166.364624
 20
0.003005
 30
0.0
 10
166.776326
 20
0.035395
 30
0.0
 10
167.130800
 20
0.216000
 30
0.0
  0
SPLINE
  5
1ce
100
AcDbEntity
  8
0
 62
7
100
AcDbSpline
 70
8
 71
3
 72
8
 73
4
 74
0
 40
0
 40
0
 40
0
 40
0
 40
1
 40
1
 40
1
 40
1
 10
184.997500
 20
100.682800
 30
0.0
 10
184.621393
 20
101.420928
 30
0.0
 10
183.718129
 20
101.714405
 30
0.0
 10
182.980000
 20
101.338300
 30
0.0
  0
SPLINE
  5
1cf
100
AcDbEntity
  8
0
 62
7
100
AcDbSpline
 70
8
 71
3
 72
8
 73
4
 74
0
 40
0
 40
0
 40
0
 40
0
 40
1
 40
1
 40
1
 40
1
 10
38.003500
 20
106.394200
 30
0.0
 10
37.235383
 20
106.704480
 30
0.0
 10
36.361163
 20
106.333384
 30
0.0
 10
36.050800
 20
105.565300
 30
0.0
  0
LINE
  5
1d0
100
AcDbEntity
  8
0
 62
7
100
AcDbLine
 10
91.605200
 20
72.729500
 30
0.0
 11
101.963200
 21
67.197100
 31
0.0
  0
SPLINE
  5
1d1
100
AcDbEntity
  8
0
 62
7
100
AcDbSpline
 70
8
 71
3
 72
8
 73
4
 74
0
 40
0
 40
0
 40
0
 40
0
 40
1
 40
1
 40
1
 40
1
 10
141.506300
 20
66.870100
 30
0.0
 10
141.979744
 20
66.870086
 30
0.0
 10
142.446468
 20
66.982141
 30
0.0
 10
142.868300
 20
67.197100
 30
0.0
  0
SPLINE
  5
1d2
100
AcDbEntity
  8
0
 62
7
100
AcDbSpline
 70
8
 71
3
 72
8
 73
4
 74
0
 40
0
 40
0
 40
0
 40
0
 40
1
 40
1
 40
1
 40
1
 10
235.545700
 20
102.640300
 30
0.0
 10
235.331259
 20
103.440520
 30
0.0
 10
234.508730
 20
103.915404
 30
0.0
 10
233.708500
 20
103.701000
 30
0.0
  0
LINE
  5
1d3
100
AcDbEntity
  8
0
 62
7
100
AcDbLine
 10
20.300700
 20
78.585600
 30
0.0
 11
6.768100
 21
82.211600
 31
0.0
  0
LINE
  5
1d4
100
AcDbEntity
  8
0
 62
7
100
AcDbLine
 10
6.768100
 20
82.211600
 30
0.0
 11
3.131700
 21
68.640400
 31
0.0
  0
LINE
  5
1d5
100
AcDbEntity
  8
0
 62
7
100
AcDbLine
 10
3.131700
 20
68.640400
 30
0.0
 11
16.664300
 21
65.014300
 31
0.0
  0
LINE
  5
1d6
100
AcDbEntity
  8
0
 62
7
100
AcDbLine
 10
16.664300
 20
65.014300
 30
0.0
 11
20.300700
 21
78.585600
 31
0.0
  0
LINE
  5
1d7
100
AcDbEntity
  8
0
 62
7
100
AcDbLine
 10
189.192900
 20
32.808900
 30
0.0
 11
176.709900
 21
26.448500
 31
0.0
  0
LINE
  5
1d8
100
AcDbEntity
  8
0
 62
7
100
AcDbLine
 10
176.709900
 20
26.448500
 30
0.0
 11
183.088400
 21
13.929800
 31
0.0
  0
LINE
  5
1d9
100
AcDbEntity
  8
0
 62
7
100
AcDbLine
 10
183.088400
 20
13.929800
 30
0.0
 11
195.571400
 21
20.290200
 31
0.0
  0
LINE
  5
1da
100
AcDbEntity
  8
0
 62
7
100
AcDbLine
 10
195.571400
 20
20.290200
 30
0.0
 11
189.192900
 21
32.808900
 31
0.0
  0
LINE
  5
1db
100
AcDbEntity
  8
0
 62
7
100
AcDbLine
 10
173.920200
 20
19.950800
 30
0.0
 11
161.437200
 21
13.590400
 31
0.0
  0
LINE
  5
1dc
100
AcDbEntity
  8
0
 62
7
100
AcDbLine
 10
161.437200
 20
13.590400
 30
0.0
 11
167.815800
 21
1.071700
 31
0.0
  0
LINE
  5
1dd
100
AcDbEntity
  8
0
 62
7
100
AcDbLine
 10
167.815800
 20
1.071700
 30
0.0
 11
180.298800
 21
7.432100
 31
0.0
  0
LINE
  5
1de
100
AcDbEntity
  8
0
 62
7
100
AcDbLine
 10
180.298800
 20
7.432100
 30
0.0
 11
173.920200
 21
19.950800
 31
0.0
  0
LINE
  5
1df
100
AcDbEntity
  8
0
 62
7
100
AcDbLine
 10
175.811500
 20
69.496600
 30
0.0
 11
163.328500
 21
63.136200
 31
0.0
  0
LINE
  5
1e0
100
AcDbEntity
  8
0
 62
7
100
AcDbLine
 10
163.328500
 20
63.136200
 30
0.0
 11
169.707100
 21
50.617500
 31
0.0
  0
LINE
  5
1e1
100
AcDbEntity
  8
0
 62
7
100
AcDbLine
 10
169.707100
 20
50.617500
 30
0.0
 11
182.190100
 21
56.977900
 31
0.0
  0
LINE
  5
1e2
100
AcDbEntity
  8
0
 62
7
100
AcDbLine
 10
182.190100
 20
56.977900
 30
0.0
 11
175.811500
 21
69.496600
 31
0.0
  0
LINE
  5
1e3
100
AcDbEntity
  8
0
 62
7
100
AcDbLine
 10
74.789100
 20
92.723200
 30
0.0
 11
62.306100
 21
99.083600
 31
0.0
  0
LINE
  5
1e4
100
AcDbEntity
  8
0
 62
7
100
AcDbLine
 10
62.306100
 20
99.083600
 30
0.0
 11
55.927500
 21
86.565000
 31
0.0
  0
LINE
  5
1e5
100
AcDbEntity
  8
0
 62
7
100
AcDbLine
 10
55.927500
 20
86.565000
 30
0.0
 11
68.410500
 21
80.204600
 31
0.0
  0
LINE
  5
1e6
100
AcDbEntity
  8
0
 62
7
100
AcDbLine
 10
68.410500
 20
80.204600
 30
0.0
 11
74.789100
 21
92.723200
 31
0.0
  0
LINE
  5
1e7
100
AcDbEntity
  8
0
 62
7
100
AcDbLine
 10
90.137200
 20
80.058600
 30
0.0
 11
77.654200
 21
86.419000
 31
0.0
  0
LINE
  5
1e8
100
AcDbEntity
  8
0
 62
7
100
AcDbLine
 10
77.654200
 20
86.419000
 30
0.0
 11
71.275600
 21
73.900300
 31
0.0
  0
LINE
  5
1e9
100
AcDbEntity
  8
0
 62
7
100
AcDbLine
 10
71.275600
 20
73.900300
 30
0.0
 11
83.758600
 21
67.539900
 31
0.0
  0
LINE
  5
1ea
100
AcDbEntity
  8
0
 62
7
100
AcDbLine
 10
83.758600
 20
67.539900
 30
0.0
 11
90.137200
 21
80.058600
 31
0.0
  0
LINE
  5
1eb
100
AcDbEntity
  8
0
 62
7
100
AcDbLine
 10
213.795700
 20
85.512600
 30
0.0
 11
200.805800
 21
80.264300
 31
0.0
  0
LINE
  5
1ec
100
AcDbEntity
  8
0
 62
7
100
AcDbLine
 10
200.805800
 20
80.264300
 30
0.0
 11
206.069000
 21
67.237400
 31
0.0
  0
LINE
  5
1ed
100
AcDbEntity
  8
0
 62
7
100
AcDbLine
 10
206.069000
 20
67.237400
 30
0.0
 11
219.058900
 21
72.485600
 31
0.0
  0
LINE
  5
1ee
100
AcDbEntity
  8
0
 62
7
100
AcDbLine
 10
219.058900
 20
72.485600
 30
0.0
 11
213.795700
 21
85.512600
 31
0.0
  0
LINE
  5
1ef
100
AcDbEntity
  8
0
 62
7
100
AcDbLine
 10
83.402700
 20
13.583600
 30
0.0
 11
70.919700
 21
19.944000
 31
0.0
  0
LINE
  5
1f0
100
AcDbEntity
  8
0
 62
7
100
AcDbLine
 10
70.919700
 20
19.944000
 30
0.0
 11
64.541200
 21
7.425400
 31
0.0
  0
LINE
  5
1f1
100
AcDbEntity
  8
0
 62
7
100
AcDbLine
 10
64.541200
 20
7.425400
 30
0.0
 11
77.024200
 21
1.065000
 31
0.0
  0
LINE
  5
1f2
100
AcDbEntity
  8
0
 62
7
100
AcDbLine
 10
77.024200
 20
1.065000
 30
0.0
 11
83.402700
 21
13.583600
 31
0.0
  0
LINE
  5
1f3
100
AcDbEntity
  8
0
 62
7
100
AcDbLine
 10
182.322900
 20
99.011200
 30
0.0
 11
169.839900
 21
92.650800
 31
0.0
  0
LINE
  5
1f4
100
AcDbEntity
  8
0
 62
7
100
AcDbLine
 10
169.839900
 20
92.650800
 30
0.0
 11
176.218400
 21
80.132200
 31
0.0
  0
LINE
  5
1f5
100
AcDbEntity
  8
0
 62
7
100
AcDbLine
 10
176.218400
 20
80.132200
 30
0.0
 11
188.701400
 21
86.492600
 31
0.0
  0
LINE
  5
1f6
100
AcDbEntity
  8
0
 62
7
100
AcDbLine
 10
188.701400
 20
86.492600
 30
0.0
 11
182.322900
 21
99.011200
 31
0.0
  0
LINE
  5
1f7
100
AcDbEntity
  8
0
 62
7
100
AcDbLine
 10
66.163300
 20
75.794100
 30
0.0
 11
53.680300
 21
82.154500
 31
0.0
  0
LINE
  5
1f8
100
AcDbEntity
  8
0
 62
7
100
AcDbLine
 10
53.680300
 20
82.154500
 30
0.0
 11
47.301700
 21
69.635800
 31
0.0
  0
LINE
  5
1f9
100
AcDbEntity
  8
0
 62
7
100
AcDbLine
 10
47.301700
 20
69.635800
 30
0.0
 11
59.784700
 21
63.275400
 31
0.0
  0
LINE
  5
1fa
100
AcDbEntity
  8
0
 62
7
100
AcDbLine
 10
59.784700
 20
63.275400
 30
0.0
 11
66.163300
 21
75.794100
 31
0.0
  0
LINE
  5
1fb
100
AcDbEntity
  8
0
 62
7
100
AcDbLine
 10
72.885600
 20
46.200300
 30
0.0
 11
60.402600
 21
52.560700
 31
0.0
  0
LINE
  5
1fc
100
AcDbEntity
  8
0
 62
7
100
AcDbLine
 10
60.402600
 20
52.560700
 30
0.0
 11
54.024000
 21
40.042100
 31
0.0
  0
LINE
  5
1fd
100
AcDbEntity
  8
0
 62
7
100
AcDbLine
 10
54.024000
 20
40.042100
 30
0.0
 11
66.507000
 21
33.681700
 31
0.0
  0
LINE
  5
1fe
100
AcDbEntity
  8
0
 62
7
100
AcDbLine
 10
66.507000
 20
33.681700
 30
0.0
 11
72.885600
 21
46.200300
 31
0.0
  0
LINE
  5
1ff
100
AcDbEntity
  8
0
 62
7
100
AcDbLine
 10
237.861700
 20
82.136000
 30
0.0
 11
224.329100
 21
78.509900
 31
0.0
  0
LINE
  5
200
100
AcDbEntity
  8
0
 62
7
100
AcDbLine
 10
224.329100
 20
78.509900
 30
0.0
 11
227.965500
 21
64.938700
 31
0.0
  0
LINE
  5
201
100
AcDbEntity
  8
0
 62
7
100
AcDbLine
 10
227.965500
 20
64.938700
 30
0.0
 11
241.498100
 21
68.564700
 31
0.0
  0
LINE
  5
202
100
AcDbEntity
  8
0
 62
7
100
AcDbLine
 10
241.498100
 20
68.564700
 30
0.0
 11
237.861700
 21
82.136000
 31
0.0
  0
LINE
  5
203
100
AcDbEntity
  8
0
 62
7
100
AcDbLine
 10
199.574500
 20
65.153000
 30
0.0
 11
187.091500
 21
58.792600
 31
0.0
  0
LINE
  5
204
100
AcDbEntity
  8
0
 62
7
100
AcDbLine
 10
187.091500
 20
58.792600
 30
0.0
 11
193.470100
 21
46.273900
 31
0.0
  0
LINE
  5
205
100
AcDbEntity
  8
0
 62
7
100
AcDbLine
 10
193.470100
 20
46.273900
 30
0.0
 11
205.953100
 21
52.634400
 31
0.0
  0
LINE
  5
206
100
AcDbEntity
  8
0
 62
7
100
AcDbLine
 10
205.953100
 20
52.634400
 30
0.0
 11
199.574500
 21
65.153000
 31
0.0
  0
LINE
  5
207
100
AcDbEntity
  8
0
 62
7
100
AcDbLine
 10
36.706100
 20
62.721400
 30
0.0
 11
23.716300
 21
67.969600
 31
0.0
  0
LINE
  5
208
100
AcDbEntity
  8
0
 62
7
100
AcDbLine
 10
23.716300
 20
67.969600
 30
0.0
 11
18.453100
 21
54.942700
 31
0.0
  0
LINE
  5
209
100
AcDbEntity
  8
0
 62
7
100
AcDbLine
 10
18.453100
 20
54.942700
 30
0.0
 11
31.442900
 21
49.694400
 31
0.0
  0
LINE
  5
20a
100
AcDbEntity
  8
0
 62
7
100
AcDbLine
 10
31.442900
 20
49.694400
 30
0.0
 11
36.706100
 21
62.721400
 31
0.0
  0
LINE
  5
20b
100
AcDbEntity
  8
0
 62
7
100
AcDbLine
 10
50.941200
 20
97.954400
 30
0.0
 11
37.951300
 21
103.202600
 31
0.0
  0
LINE
  5
20c
100
AcDbEntity
  8
0
 62
7
100
AcDbLine
 10
37.951300
 20
103.202600
 30
0.0
 11
32.688100
 21
90.175700
 31
0.0
  0
LINE
  5
20d
100
AcDbEntity
  8
0
 62
7
100
AcDbLine
 10
32.688100
 20
90.175700
 30
0.0
 11
45.678000
 21
84.927400
 31
0.0
  0
LINE
  5
20e
100
AcDbEntity
  8
0
 62
7
100
AcDbLine
 10
45.678000
 20
84.927400
 30
0.0
 11
50.941200
 21
97.954400
 31
0.0
  0
LINE
  5
20f
100
AcDbEntity
  8
0
 62
7
100
AcDbLine
 10
68.130100
 20
26.441700
 30
0.0
 11
55.647100
 21
32.802100
 31
0.0
  0
LINE
  5
210
100
AcDbEntity
  8
0
 62
7
100
AcDbLine
 10
55.647100
 20
32.802100
 30
0.0
 11
49.268500
 21
20.283500
 31
0.0
  0
LINE
  5
211
100
AcDbEntity
  8
0
 62
7
100
AcDbLine
 10
49.268500
 20
20.283500
 30
0.0
 11
61.751500
 21
13.923100
 31
0.0
  0
LINE
  5
212
100
AcDbEntity
  8
0
 62
7
100
AcDbLine
 10
61.751500
 20
13.923100
 30
0.0
 11
68.130100
 21
26.441700
 31
0.0
  0
LINE
  5
213
100
AcDbEntity
  8
0
 62
7
100
AcDbLine
 10
161.695300
 20
54.406200
 30
0.0
 11
149.212300
 21
48.045800
 31
0.0
  0
LINE
  5
214
100
AcDbEntity
  8
0
 62
7
100
AcDbLine
 10
149.212300
 20
48.045800
 30
0.0
 11
155.590900
 21
35.527200
 31
0.0
  0
LINE
  5
215
100
AcDbEntity
  8
0
 62
7
100
AcDbLine
 10
155.590900
 20
35.527200
 30
0.0
 11
168.073900
 21
41.887600
 31
0.0
  0
LINE
  5
216
100
AcDbEntity
  8
0
 62
7
100
AcDbLine
 10
168.073900
 20
41.887600
 30
0.0
 11
161.695300
 21
54.406200
 31
0.0
  0
LINE
  5
217
100
AcDbEntity
  8
0
 62
7
100
AcDbLine
 10
25.210800
 20
96.956000
 30
0.0
 11
11.678100
 21
100.582000
 31
0.0
  0
LINE
  5
218
100
AcDbEntity
  8
0
 62
7
100
AcDbLine
 10
11.678100
 20
100.582000
 30
0.0
 11
8.041700
 21
87.010800
 31
0.0
  0
LINE
  5
219
100
AcDbEntity
  8
0
 62
7
100
AcDbLine
 10
8.041700
 20
87.010800
 30
0.0
 11
21.574300
 21
83.384700
 31
0.0
  0
LINE
  5
21a
100
AcDbEntity
  8
0
 62
7
100
AcDbLine
 10
21.574300
 20
83.384700
 30
0.0
 11
25.210800
 21
96.956000
 31
0.0
  0
LINE
  5
21b
100
AcDbEntity
  8
0
 62
7
100
AcDbLine
 10
57.537400
 20
58.864900
 30
0.0
 11
45.054400
 21
65.225400
 31
0.0
  0
LINE
  5
21c
100
AcDbEntity
  8
0
 62
7
100
AcDbLine
 10
45.054400
 20
65.225400
 30
0.0
 11
38.675900
 21
52.706700
 31
0.0
  0
LINE
  5
21d
100
AcDbEntity
  8
0
 62
7
100
AcDbLine
 10
38.675900
 20
52.706700
 30
0.0
 11
51.158900
 21
46.346300
 31
0.0
  0
LINE
  5
21e
100
AcDbEntity
  8
0
 62
7
100
AcDbLine
 10
51.158900
 20
46.346300
 30
0.0
 11
57.537400
 21
58.864900
 31
0.0
  0
LINE
  5
21f
100
AcDbEntity
  8
0
 62
7
100
AcDbLine
 10
206.678100
 20
103.129100
 30
0.0
 11
193.688300
 21
97.880800
 31
0.0
  0
LINE
  5
220
100
AcDbEntity
  8
0
 62
7
100
AcDbLine
 10
193.688300
 20
97.880800
 30
0.0
 11
198.951500
 21
84.853900
 31
0.0
  0
LINE
  5
221
100
AcDbEntity
  8
0
 62
7
100
AcDbLine
 10
198.951500
 20
84.853900
 30
0.0
 11
211.941400
 21
90.102100
 31
0.0
  0
LINE
  5
222
100
AcDbEntity
  8
0
 62
7
100
AcDbLine
 10
211.941400
 20
90.102100
 30
0.0
 11
206.678100
 21
103.129100
 31
0.0
  0
LINE
  5
223
100
AcDbEntity
  8
0
 62
7
100
AcDbLine
 10
81.511400
 20
63.129400
 30
0.0
 11
69.028400
 21
69.489900
 31
0.0
  0
LINE
  5
224
100
AcDbEntity
  8
0
 62
7
100
AcDbLine
 10
69.028400
 20
69.489900
 30
0.0
 11
62.649800
 21
56.971200
 31
0.0
  0
LINE
  5
225
100
AcDbEntity
  8
0
 62
7
100
AcDbLine
 10
62.649800
 20
56.971200
 30
0.0
 11
75.132800
 21
50.610800
 31
0.0
  0
LINE
  5
226
100
AcDbEntity
  8
0
 62
7
100
AcDbLine
 10
75.132800
 20
50.610800
 30
0.0
 11
81.511400
 21
63.129400
 31
0.0
  0
LINE
  5
227
100
AcDbEntity
  8
0
 62
7
100
AcDbLine
 10
104.253400
 20
64.968200
 30
0.0
 11
91.770400
 21
71.328600
 31
0.0
  0
LINE
  5
228
100
AcDbEntity
  8
0
 62
7
100
AcDbLine
 10
91.770400
 20
71.328600
 30
0.0
 11
85.391800
 21
58.810000
 31
0.0
  0
LINE
  5
229
100
AcDbEntity
  8
0
 62
7
100
AcDbLine
 10
85.391800
 20
58.810000
 30
0.0
 11
97.874800
 21
52.449600
 31
0.0
  0
LINE
  5
22a
100
AcDbEntity
  8
0
 62
7
100
AcDbLine
 10
97.874800
 20
52.449600
 30
0.0
 11
104.253400
 21
64.968200
 31
0.0
  0
LINE
  5
22b
100
AcDbEntity
  8
0
 62
7
100
AcDbLine
 10
153.069500
 20
71.335300
 30
0.0
 11
140.586500
 21
64.974900
 31
0.0
  0
LINE
  5
22c
100
AcDbEntity
  8
0
 62
7
100
AcDbLine
 10
140.586500
 20
64.974900
 30
0.0
 11
146.965100
 21
52.456300
 31
0.0
  0
LINE
  5
22d
100
AcDbEntity
  8
0
 62
7
100
AcDbLine
 10
146.965100
 20
52.456300
 30
0.0
 11
159.448100
 21
58.816700
 31
0.0
  0
LINE
  5
22e
100
AcDbEntity
  8
0
 62
7
100
AcDbLine
 10
159.448100
 20
58.816700
 30
0.0
 11
153.069500
 21
71.335300
 31
0.0
  0
LINE
  5
22f
100
AcDbEntity
  8
0
 62
7
100
AcDbLine
 10
167.185700
 20
86.425700
 30
0.0
 11
154.702700
 21
80.065300
 31
0.0
  0
LINE
  5
230
100
AcDbEntity
  8
0
 62
7
100
AcDbLine
 10
154.702700
 20
80.065300
 30
0.0
 11
161.081300
 21
67.546700
 31
0.0
  0
LINE
  5
231
100
AcDbEntity
  8
0
 62
7
100
AcDbLine
 10
161.081300
 20
67.546700
 30
0.0
 11
173.564300
 21
73.907100
 31
0.0
  0
LINE
  5
232
100
AcDbEntity
  8
0
 62
7
100
AcDbLine
 10
173.564300
 20
73.907100
 30
0.0
 11
167.185700
 21
86.425700
 31
0.0
  0
LINE
  5
233
100
AcDbEntity
  8
0
 62
7
100
AcDbLine
 10
232.937900
 20
100.491800
 30
0.0
 11
219.405200
 21
96.865800
 31
0.0
  0
LINE
  5
234
100
AcDbEntity
  8
0
 62
7
100
AcDbLine
 10
219.405200
 20
96.865800
 30
0.0
 11
223.041600
 21
83.294500
 31
0.0
  0
LINE
  5
235
100
AcDbEntity
  8
0
 62
7
100
AcDbLine
 10
223.041600
 20
83.294500
 30
0.0
 11
236.574300
 21
86.920600
 31
0.0
  0
LINE
  5
236
100
AcDbEntity
  8
0
 62
7
100
AcDbLine
 10
236.574300
 20
86.920600
 30
0.0
 11
232.937900
 21
100.491800
 31
0.0
  0
LINE
  5
237
100
AcDbEntity
  8
0
 62
7
100
AcDbLine
 10
190.948700
 20
82.082100
 30
0.0
 11
178.465700
 21
75.721700
 31
0.0
  0
LINE
  5
238
100
AcDbEntity
  8
0
 62
7
100
AcDbLine
 10
178.465700
 20
75.721700
 30
0.0
 11
184.844300
 21
63.203100
 31
0.0
  0
LINE
  5
239
100
AcDbEntity
  8
0
 62
7
100
AcDbLine
 10
184.844300
 20
63.203100
 30
0.0
 11
197.327300
 21
69.563500
 31
0.0
  0
LINE
  5
23a
100
AcDbEntity
  8
0
 62
7
100
AcDbLine
 10
197.327300
 20
69.563500
 30
0.0
 11
190.948700
 21
82.082100
 31
0.0
  0
LINE
  5
23b
100
AcDbEntity
  8
0
 62
7
100
AcDbLine
 10
220.913200
 20
67.896100
 30
0.0
 11
207.923300
 21
62.647800
 31
0.0
  0
LINE
  5
23c
100
AcDbEntity
  8
0
 62
7
100
AcDbLine
 10
207.923300
 20
62.647800
 30
0.0
 11
213.186600
 21
49.620900
 31
0.0
  0
LINE
  5
23d
100
AcDbEntity
  8
0
 62
7
100
AcDbLine
 10
213.186600
 20
49.620900
 30
0.0
 11
226.176400
 21
54.869100
 31
0.0
  0
LINE
  5
23e
100
AcDbEntity
  8
0
 62
7
100
AcDbLine
 10
226.176400
 20
54.869100
 30
0.0
 11
220.913200
 21
67.896100
 31
0.0
  0
LINE
  5
23f
100
AcDbEntity
  8
0
 62
7
100
AcDbLine
 10
43.824000
 20
80.337500
 30
0.0
 11
30.834100
 21
85.585700
 31
0.0
  0
LINE
  5
240
100
AcDbEntity
  8
0
 62
7
100
AcDbLine
 10
30.834100
 20
85.585700
 30
0.0
 11
25.570900
 21
72.558800
 31
0.0
  0
LINE
  5
241
100
AcDbEntity
  8
0
 62
7
100
AcDbLine
 10
25.570900
 20
72.558800
 30
0.0
 11
38.560700
 21
67.310500
 31
0.0
  0
LINE
  5
242
100
AcDbEntity
  8
0
 62
7
100
AcDbLine
 10
38.560700
 20
67.310500
 30
0.0
 11
43.824000
 21
80.337500
 31
0.0
  0
LINE
  5
243
100
AcDbEntity
  8
0
 62
7
100
AcDbLine
 10
184.437400
 20
52.567500
 30
0.0
 11
171.954400
 21
46.207100
 31
0.0
  0
LINE
  5
244
100
AcDbEntity
  8
0
 62
7
100
AcDbLine
 10
171.954400
 20
46.207100
 30
0.0
 11
178.332900
 21
33.688400
 31
0.0
  0
LINE
  5
245
100
AcDbEntity
  8
0
 62
7
100
AcDbLine
 10
178.332900
 20
33.688400
 30
0.0
 11
190.815900
 21
40.048800
 31
0.0
  0
LINE
  5
246
100
AcDbEntity
  8
0
 62
7
100
AcDbLine
 10
190.815900
 20
40.048800
 30
0.0
 11
184.437400
 21
52.567500
 31
0.0
  0
LINE
  5
247
100
AcDbEntity
  8
0
 62
7
100
AcDbLine
 10
95.627600
 20
48.039100
 30
0.0
 11
83.144600
 21
54.399500
 31
0.0
  0
LINE
  5
248
100
AcDbEntity
  8
0
 62
7
100
AcDbLine
 10
83.144600
 20
54.399500
 30
0.0
 11
76.766000
 21
41.880800
 31
0.0
  0
LINE
  5
249
100
AcDbEntity
  8
0
 62
7
100
AcDbLine
 10
76.766000
 20
41.880800
 30
0.0
 11
89.249000
 21
35.520400
 31
0.0
  0
LINE
  5
24a
100
AcDbEntity
  8
0
 62
7
100
AcDbLine
 10
89.249000
 20
35.520400
 30
0.0
 11
95.627600
 21
48.039100
 31
0.0
  0
ENDSEC
  0
SECTION
  2
OBJECTS
  0
DICTIONARY
  5
C
330
0
100
AcDbDictionary
  3
ACAD_GROUP
350
D
  3
ACAD_MLINESTYLE
350
17
  0
DICTIONARY
  5
D
330
C
100
AcDbDictionary
  0
DICTIONARY
  5
1A
330
C
100
AcDbDictionary
  0
DICTIONARY
  5
17
330
C
100
AcDbDictionary
  3
STANDARD
350
18
  0
DICTIONARY
  5
19
330
C
100
AcDbDictionary
  0
ENDSEC
  0
EOF
