0
SECTION
2
HEADER
9
$INSUNITS
70
4
9
$ACADVER
1
AC1014
9
$HANDSEED
5
FFFF
0
ENDSEC
0
SECTION
2
TABLES
0
TABLE
2
VPORT
5
8
100
AcDbSymbolTable
0
ENDTAB
0
TABLE
2
LTYPE
5
5
100
AcDbSymbolTable
0
LTYPE
5
14
100
AcDbSymbolTableRecord
100
AcDbLinetypeTableRecord
2
BYBLOCK
70
0
0
LTYPE
5
15
100
AcDbSymbolTableRecord
100
AcDbLinetypeTableRecord
2
BYLAYER
70
0
0
ENDTAB
0
TABLE
2
LAYER
5
2
100
AcDbSymbolTable
70
2
0
LAYER
5
50
100
AcDbSymbolTableRecord
100
AcDbLayerTableRecord
2
0
70
0
6
CONTINUOUS
0
ENDTAB
0
TABLE
2
STYLE
5
3
100
AcDbSymbolTable
70
1
0
STYLE
5
11
100
AcDbSymbolTableRecord
100
AcDbTextStyleTableRecord
2
STANDARD
70
0
0
ENDTAB
0
TABLE
2
VIEW
5
6
100
AcDbSymbolTable
70
0
0
ENDTAB
0
TABLE
2
UCS
5
7
100
AcDbSymbolTable
70
0
0
ENDTAB
0
TABLE
2
APPID
5
9
100
AcDbSymbolTable
70
2
0
APPID
5
12
100
AcDbSymbolTableRecord
100
AcDbRegAppTableRecord
2
ACAD
70
0
0
ENDTAB
0
TABLE
2
DIMSTYLE
5
A
100
AcDbSymbolTable
70
1
0
ENDTAB
0
TABLE
2
BLOCK_RECORD
5
1
100
AcDbSymbolTable
70
1
0
BLOCK_RECORD
5
1F
100
AcDbSymbolTableRecord
100
AcDbBlockTableRecord
2
*MODEL_SPACE
0
BLOCK_RECORD
5
1B
100
AcDbSymbolTableRecord
100
AcDbBlockTableRecord
2
*PAPER_SPACE
0
ENDTAB
0
ENDSEC
0
SECTION
2
BLOCKS
0
BLOCK
5
20
100
AcDbEntity
100
AcDbBlockBegin
2
*MODEL_SPACE
0
ENDBLK
5
21
100
AcDbEntity
100
AcDbBlockEnd
0
BLOCK
5
1C
100
AcDbEntity
100
AcDbBlockBegin
2
*PAPER_SPACE
0
ENDBLK
5
1D
100
AcDbEntity
100
AcDbBlockEnd
0
ENDSEC
0
SECTION
2
ENTITIES
0
CIRCLE
5
100
100
AcDbEntity
8
0
100
AcDbCircle
10
-166.44734600000004
20
-1441.9439239999999
30
0
40
5.8000000000000043
210
0
220
0
230
1
0
CIRCLE
5
101
100
AcDbEntity
8
0
100
AcDbCircle
10
-134.18934300000004
20
-1441.943921
30
6.9388939039072284e-17
40
5.7999999999999865
210
0
220
0
230
1
0
CIRCLE
5
102
100
AcDbEntity
8
0
100
AcDbCircle
10
-166.44734600000004
20
-1441.9439239999999
30
0
40
5.8000000000000043
210
-1.8630799030755887e-46
220
-3.944304526105059e-31
230
1
0
CIRCLE
5
103
100
AcDbEntity
8
0
100
AcDbCircle
10
-134.18934300000004
20
-1441.943921
30
0
40
5.7999999999999865
210
0
220
-0
230
1
0
LINE
5
104
100
AcDbEntity
8
0
100
AcDbLine
10
-78.657140373945737
20
-1502.0667132011486
30
0
11
-56.768774519764364
21
-1510.9405090980388
31
0
0
LINE
5
105
100
AcDbEntity
8
0
100
AcDbLine
10
-56.768774519764364
20
-1510.9405090980388
30
0
11
-52.796011454458274
21
-1507.4140660294329
31
0
0
ARC
5
106
100
AcDbEntity
8
0
100
AcDbCircle
10
-51.170699999999997
20
-1500.5026
30
0
40
7.0999999999999801
210
3.5736517942006183e-31
220
-1.9314496581826562e-31
230
1
100
AcDbArc
50
-28.389867631969519
51
256.76667434295155
0
LINE
5
107
100
AcDbEntity
8
0
100
AcDbLine
10
-44.92459804292578
20
-1503.8784273566393
30
-2.8841634059722637e-30
11
-39.998427959146618
21
-1505.1929415622826
31
-2.2037055154535003e-31
0
ARC
5
108
100
AcDbEntity
8
0
100
AcDbCircle
10
-32.519790469271506
20
-1499.7493690868732
30
0
40
9.2500000000000107
210
-4.6630876934969982e-32
220
-5.5878425751201986e-32
230
1
100
AcDbArc
50
50.154802128248448
51
216.05023334667035
0
LINE
5
109
100
AcDbEntity
8
0
100
AcDbLine
10
-26.593171520751898
20
-1492.6474195067192
30
6.7320920113229035e-31
11
-20.225975697470446
21
-1468.6313094339048
31
-3.8449669912517855e-33
0
LINE
5
110
100
AcDbEntity
8
0
100
AcDbLine
10
-20.225975697470446
20
-1468.6313094339048
30
-3.8449669912517855e-33
11
-35.931710485437172
21
-1464.4480308624034
31
0
0
ARC
5
111
100
AcDbEntity
8
0
100
AcDbCircle
10
-41.052983922203694
20
-1456.7451055488705
30
0
40
9.2500000000000586
210
2.3718324187606239e-32
220
-2.3345692852317224e-32
230
1
100
AcDbArc
50
135.45363226634365
51
303.61786173969472
0
LINE
5
112
100
AcDbEntity
8
0
100
AcDbLine
10
-47.64530158971975
20
-1450.2563577674755
30
3.0784304028642929e-31
11
-55.407566491585939
21
-1446.9574151160464
31
2.7078767338671491e-32
0
ARC
5
113
100
AcDbEntity
8
0
100
AcDbCircle
10
-62.507300000000008
20
-1446.8959
30
0
40
7.099999999999965
210
3.0062751676898637e-31
220
-3.0650141278207615e-31
230
1
100
AcDbArc
50
134.44568783604777
51
359.50357737699892
0
LINE
5
114
100
AcDbEntity
8
0
100
AcDbLine
10
-67.478953169605248
20
-1441.8271067746698
30
3.0482080312790167e-30
11
-75.535716937925486
21
-1438.4030028612083
31
0
0
LINE
5
115
100
AcDbEntity
8
0
100
AcDbLine
10
-75.535716937925486
20
-1438.4030028612083
30
0
11
-66.610451346995617
21
-1420.810231158976
31
0
0
LINE
5
116
100
AcDbEntity
8
0
100
AcDbLine
10
-66.610451346995617
20
-1420.810231158976
30
0
11
-83.900026072651201
21
-1412.0641786571236
31
0
0
LINE
5
117
100
AcDbEntity
8
0
100
AcDbLine
10
-83.900026072651201
20
-1412.0641786571236
30
0
11
-81.929085262170375
21
-1408.0138536290292
31
0
0
LINE
5
118
100
AcDbEntity
8
0
100
AcDbLine
10
-81.929085262170375
20
-1408.0138536290292
30
0
11
-108.95164293341085
21
-1394.2426243732962
31
0
0
ARC
5
119
100
AcDbEntity
8
0
100
AcDbCircle
10
-116.68470863092139
20
-1389.1669771320089
30
0
40
9.2499999999998934
210
-1.328875466357242e-31
220
-1.7098418874249114e-31
230
1
100
AcDbArc
50
52.14593373355968
51
326.72085066575329
0
LINE
5
120
100
AcDbEntity
8
0
100
AcDbLine
10
-111.00842394864114
20
-1381.8633963523018
30
2.0031043799676526e-30
11
-111.0080002150186
21
-1380.0948734561894
31
-2.1932719809242827e-32
0
LINE
5
121
100
AcDbEntity
8
0
100
AcDbLine
10
-111.0080002150186
20
-1380.0948734561894
30
-2.1932719809242827e-32
11
-111.00909409467809
21
-1380.0886085090488
31
0
0
LINE
5
122
100
AcDbEntity
8
0
100
AcDbLine
10
-111.00909409467809
20
-1380.0886085090488
30
0
11
-111.01467782470499
21
-1380.0772609286716
31
0
0
LINE
5
123
100
AcDbEntity
8
0
100
AcDbLine
10
-111.01467782470499
20
-1380.0772609286716
30
0
11
-111.02084858524429
21
-1380.0705649970225
31
0
0
LINE
5
124
100
AcDbEntity
8
0
100
AcDbLine
10
-111.02084858524429
20
-1380.0705649970225
30
0
11
-111.04004030707833
21
-1380.0596896879833
31
0
0
LINE
5
125
100
AcDbEntity
8
0
100
AcDbLine
10
-111.04004030707833
20
-1380.0596896879833
30
0
11
-114.05992804085412
21
-1379.599900437031
31
0
0
LINE
5
126
100
AcDbEntity
8
0
100
AcDbLine
10
-114.05992804085412
20
-1379.599900437031
30
0
11
-117.06959906831489
21
-1379.1782267406202
31
0
0
LINE
5
127
100
AcDbEntity
8
0
100
AcDbLine
10
-117.06959906831489
20
-1379.1782267406202
30
0
11
-120.08426119602501
21
-1378.7915266267908
31
0
0
LINE
5
128
100
AcDbEntity
8
0
100
AcDbLine
10
-120.08426119602501
20
-1378.7915266267908
30
0
11
-123.10389525571654
21
-1378.4408014266082
31
0
0
LINE
5
129
100
AcDbEntity
8
0
100
AcDbLine
10
-123.10389525571654
20
-1378.4408014266082
30
0
11
-126.12653304659928
21
-1378.1260474087144
31
0
0
LINE
5
130
100
AcDbEntity
8
0
100
AcDbLine
10
-126.12653304659928
20
-1378.1260474087144
30
0
11
-129.15219727451154
21
-1377.8472626268162
31
0
0
LINE
5
131
100
AcDbEntity
8
0
100
AcDbLine
10
-129.15219727451154
20
-1377.8472626268162
30
0
11
-132.18185942349595
21
-1377.6034507652228
31
0
0
LINE
5
132
100
AcDbEntity
8
0
100
AcDbLine
10
-132.18185942349595
20
-1377.6034507652228
30
0
11
-135.21446129793159
21
-1377.3956151178149
31
0
0
LINE
5
133
100
AcDbEntity
8
0
100
AcDbLine
10
-135.21446129793159
20
-1377.3956151178149
30
0
11
-138.24809451619811
21
-1377.2247484246914
31
0
0
LINE
5
134
100
AcDbEntity
8
0
100
AcDbLine
10
-138.24809451619811
20
-1377.2247484246914
30
0
11
-141.28475864907824
21
-1377.0888529583958
31
0
0
LINE
5
135
100
AcDbEntity
8
0
100
AcDbLine
10
-141.28475864907824
20
-1377.0888529583958
30
0
11
-144.32239268097163
21
-1376.9889307862941
31
0
0
LINE
5
136
100
AcDbEntity
8
0
100
AcDbLine
10
-144.32239268097163
20
-1376.9889307862941
30
0
11
-147.35999244665442
21
-1376.9249813175429
31
0
0
LINE
5
137
100
AcDbEntity
8
0
100
AcDbLine
10
-147.35999244665442
20
-1376.9249813175429
30
0
11
-150.39962448923475
21
-1376.8980023349163
31
0
0
LINE
5
138
100
AcDbEntity
8
0
100
AcDbLine
10
-150.39962448923475
20
-1376.8980023349163
30
0
11
-153.43829060415146
21
-1376.9059961951334
31
0
0
LINE
5
139
100
AcDbEntity
8
0
100
AcDbLine
10
-153.43829060415146
20
-1376.9059961951334
30
0
11
-156.47792292320429
21
-1376.9499619485975
31
0
0
LINE
5
140
100
AcDbEntity
8
0
100
AcDbLine
10
-156.47792292320429
20
-1376.9499619485975
30
0
11
-159.51555483839576
21
-1377.0298996305764
31
0
0
LINE
5
141
100
AcDbEntity
8
0
100
AcDbLine
10
-159.51555483839576
20
-1377.0298996305764
30
0
11
-162.55218838277401
21
-1377.1458093018985
31
0
0
LINE
5
142
100
AcDbEntity
8
0
100
AcDbLine
10
-162.55218838277401
20
-1377.1458093018985
30
0
11
-165.58782204635276
21
-1377.2976909071861
31
0
0
LINE
5
143
100
AcDbEntity
8
0
100
AcDbLine
10
-165.58782204635276
20
-1377.2976909071861
30
0
11
-168.62145363512138
21
-1377.4855442466751
31
0
0
LINE
5
144
100
AcDbEntity
8
0
100
AcDbLine
10
-168.62145363512138
20
-1377.4855442466751
30
0
11
-171.65208463075851
21
-1377.7093692855876
31
0
0
LINE
5
145
100
AcDbEntity
8
0
100
AcDbLine
10
-171.65208463075851
20
-1377.7093692855876
30
0
11
-174.67972086328587
21
-1377.9691664540555
31
0
0
LINE
5
146
100
AcDbEntity
8
0
100
AcDbLine
10
-174.67972086328587
20
-1377.9691664540555
30
0
11
-177.70538591314045
21
-1378.2649382026543
31
0
0
LINE
5
147
100
AcDbEntity
8
0
100
AcDbLine
10
-177.70538591314045
20
-1378.2649382026543
30
0
11
-180.72601489671092
21
-1378.5956785908652
31
0
0
LINE
5
148
100
AcDbEntity
8
0
100
AcDbLine
10
-180.72601489671092
20
-1378.5956785908652
30
0
11
-183.74265057177172
21
-1378.9633903922638
31
0
0
LINE
5
149
100
AcDbEntity
8
0
100
AcDbLine
10
-183.74265057177172
20
-1378.9633903922638
30
0
11
-186.75532639747911
21
-1379.3660797314876
31
0
0
LINE
5
150
100
AcDbEntity
8
0
100
AcDbLine
10
-186.75532639747911
20
-1379.3660797314876
30
0
11
-189.77830970496541
21
-1379.8067213943873
31
0
0
LINE
5
151
100
AcDbEntity
8
0
100
AcDbLine
10
-189.77830970496541
20
-1379.8067213943873
30
0
11
-189.79708074684658
21
-1379.8176711688179
31
0
0
LINE
5
152
100
AcDbEntity
8
0
100
AcDbLine
10
-189.79708074684658
20
-1379.8176711688179
30
0
11
-189.8033296915292
21
-1379.8241804861957
31
0
0
LINE
5
153
100
AcDbEntity
8
0
100
AcDbLine
10
-189.8033296915292
20
-1379.8241804861957
30
0
11
-189.80768039873612
21
-1379.8333169713303
31
0
0
LINE
5
154
100
AcDbEntity
8
0
100
AcDbLine
10
-189.80768039873612
20
-1379.8333169713303
30
0
11
-189.80899978498141
21
-1379.8408734561895
31
0
0
LINE
5
155
100
AcDbEntity
8
0
100
AcDbLine
10
-189.80899978498141
20
-1379.8408734561895
30
0
11
-189.80885131698616
21
-1380.4605293789293
31
0
0
ARC
5
156
100
AcDbEntity
8
0
100
AcDbCircle
10
-186.68470863092139
20
-1389.1669771320089
30
0
40
9.249999999999952
210
7.6125900957123324e-32
220
6.1943380360048674e-32
230
1
100
AcDbArc
50
-140.86487080340851
51
109.73955615111106
0
LINE
5
157
100
AcDbEntity
8
0
100
AcDbLine
10
-193.85955975687887
20
-1395.0051284935571
30
9.0782683658465336e-31
11
-218.88807124049831
21
-1407.7599321990963
31
2.6692112377853452e-32
0
LINE
5
158
100
AcDbEntity
8
0
100
AcDbLine
10
-218.88807124049831
20
-1407.7599321990963
30
2.6692112377853452e-32
11
-216.91735058980865
21
-1411.8100529481239
31
0
0
LINE
5
159
100
AcDbEntity
8
0
100
AcDbLine
10
-216.91735058980865
20
-1411.8100529481239
30
0
11
-234.20623718701745
21
-1420.5562324072225
31
0
0
LINE
5
160
100
AcDbEntity
8
0
100
AcDbLine
10
-234.20623718701745
20
-1420.5562324072225
30
0
11
-225.28182786642299
21
-1438.149191901914
31
0
0
LINE
5
161
100
AcDbEntity
8
0
100
AcDbLine
10
-225.28182786642299
20
-1438.149191901914
30
0
11
-232.42414014194492
21
-1441.1846562790556
31
0
0
ARC
5
162
100
AcDbEntity
8
0
100
AcDbCircle
10
-236.96600000000001
20
-1446.6418999999999
30
0
40
7.0999999999999748
210
4.8739825262244242e-32
220
-3.5620548699786825e-33
230
1
100
AcDbArc
50
-184.1799188020598
51
50.230653589013379
0
LINE
5
163
100
AcDbEntity
8
0
100
AcDbLine
10
-244.0471146014718
20
-1446.1243905790011
30
3.4697568529099045e-31
11
-254.26126080405908
21
-1450.4653764873217
31
0
0
ARC
5
164
100
AcDbEntity
8
0
100
AcDbCircle
10
-261.05298392220368
20
-1456.7451055488705
30
0
40
9.2499999999999609
210
-1.0697392914079381e-31
220
-1.6535807223647917e-31
230
1
100
AcDbArc
50
-122.89975444817637
51
42.756935496193996
0
LINE
5
165
100
AcDbEntity
8
0
100
AcDbLine
10
-266.07731429947654
20
-1464.5116108285965
30
-1.8217267028282601e-30
11
-280.59147153578971
21
-1468.3775084621534
31
-9.8627719185551484e-32
0
LINE
5
166
100
AcDbEntity
8
0
100
AcDbLine
10
-280.59147153578971
20
-1468.3775084621534
30
-9.8627719185551484e-32
11
-274.0191098137949
21
-1493.1674736108037
31
0
0
ARC
5
167
100
AcDbEntity
8
0
100
AcDbCircle
10
-267.51979046927153
20
-1499.7493690868732
30
0
40
9.2499999999999716
210
-6.4956768426418851e-31
220
4.0351250457132451e-31
230
1
100
AcDbArc
50
-31.848617611274936
51
134.63832097799931
0
LINE
5
168
100
AcDbEntity
8
0
100
AcDbLine
10
-259.6624219495389
20
-1504.6303792226047
30
7.0734412984801171e-30
11
-255.12248350377791
21
-1503.418893342573
31
8.8227615486730609e-31
0
ARC
5
169
100
AcDbEntity
8
0
100
AcDbCircle
10
-248.62099999999998
20
-1500.5656999999999
30
0
40
7.0999999999999428
210
1.3207170900682995e-33
220
-8.6082963525902103e-33
230
1
100
AcDbArc
50
-81.277481725400321
51
203.69439611809184
0
LINE
5
170
100
AcDbEntity
8
0
100
AcDbLine
10
-247.54428993820082
20
-1507.5835839718834
30
-6.1834054377732857e-32
11
-244.04839511124669
21
-1510.686620797936
31
-9.1155719029140428e-32
0
LINE
5
171
100
AcDbEntity
8
0
100
AcDbLine
10
-244.04839511124669
20
-1510.686620797936
30
-9.1155719029140428e-32
11
-222.16029829522688
21
-1501.8126406964495
31
0
0
LINE
5
172
100
AcDbEntity
8
0
100
AcDbLine
10
-222.16029829522688
20
-1501.8126406964495
30
0
11
-219.71232514137026
21
-1506.4025903599306
31
0
0
LINE
5
173
100
AcDbEntity
8
0
100
AcDbLine
10
-219.71232514137026
20
-1506.4025903599306
30
0
11
-192.5403683009564
21
-1492.5553431239505
31
-1.4760882983732602e-26
0
LINE
5
174
100
AcDbEntity
8
0
100
AcDbLine
10
-192.5403683009564
20
-1492.5553431239505
30
-1.4760882983732602e-26
11
-183.9998157633209
21
-1504.7121265684286
31
2.1914598293858819e-24
0
LINE
5
175
100
AcDbEntity
8
0
100
AcDbLine
10
-183.9998157633209
20
-1504.7121265684286
30
2.1914598293858819e-24
11
-183.84771799353129
21
-1504.8919504941694
31
0
0
LINE
5
176
100
AcDbEntity
8
0
100
AcDbLine
10
-183.84771799353129
20
-1504.8919504941694
30
0
11
-183.64345462710406
21
-1505.0897781654899
31
0
0
LINE
5
177
100
AcDbEntity
8
0
100
AcDbLine
10
-183.64345462710406
20
-1505.0897781654899
30
0
11
-183.41871167076641
21
-1505.2655625939947
31
0
0
LINE
5
178
100
AcDbEntity
8
0
100
AcDbLine
10
-183.41871167076641
20
-1505.2655625939947
30
0
11
-183.17801911783076
21
-1505.4175347524179
31
0
0
LINE
5
179
100
AcDbEntity
8
0
100
AcDbLine
10
-183.17801911783076
20
-1505.4175347524179
30
0
11
-182.92248245263011
21
-1505.5439041616685
31
0
0
LINE
5
180
100
AcDbEntity
8
0
100
AcDbLine
10
-182.92248245263011
20
-1505.5439041616685
30
0
11
-182.65563401784311
21
-1505.6435524582955
31
0
0
LINE
5
181
100
AcDbEntity
8
0
100
AcDbLine
10
-182.65563401784311
20
-1505.6435524582955
30
0
11
-182.38051407623018
21
-1505.7152701651091
31
0
0
LINE
5
182
100
AcDbEntity
8
0
100
AcDbLine
10
-182.38051407623018
20
-1505.7152701651091
30
0
11
-182.09888053683721
21
-1505.7584477574064
31
0
0
LINE
5
183
100
AcDbEntity
8
0
100
AcDbLine
10
-182.09888053683721
20
-1505.7584477574064
30
0
11
-181.81442566854861
21
-1505.7724373410929
31
0
0
LINE
5
184
100
AcDbEntity
8
0
100
AcDbLine
10
-181.81442566854861
20
-1505.7724373410929
30
0
11
-181.52989680393407
21
-1505.7572313722628
31
0
0
LINE
5
185
100
AcDbEntity
8
0
100
AcDbLine
10
-181.52989680393407
20
-1505.7572313722628
30
0
11
-181.24826698829872
21
-1505.713028546895
31
0
0
LINE
5
186
100
AcDbEntity
8
0
100
AcDbLine
10
-181.24826698829872
20
-1505.713028546895
30
0
11
-181.00576675440973
21
-1505.6486727155936
31
0
0
LINE
5
187
100
AcDbEntity
8
0
100
AcDbLine
10
-181.00576675440973
20
-1505.6486727155936
30
0
11
-179.42735394322622
21
-1504.9864256013361
31
0
0
LINE
5
188
100
AcDbEntity
8
0
100
AcDbLine
10
-179.42735394322622
20
-1504.9864256013361
30
0
11
-177.84525786827143
21
-1504.3631118308676
31
0
0
LINE
5
189
100
AcDbEntity
8
0
100
AcDbLine
10
-177.84525786827143
20
-1504.3631118308676
30
0
11
-176.25012899437564
21
-1503.7749895194738
31
0
0
LINE
5
190
100
AcDbEntity
8
0
100
AcDbLine
10
-176.25012899437564
20
-1503.7749895194738
30
0
11
-174.6429422601081
21
-1503.2221493664638
31
0
0
LINE
5
191
100
AcDbEntity
8
0
100
AcDbLine
10
-174.6429422601081
20
-1503.2221493664638
30
0
11
-173.02272644647272
21
-1502.7050037497106
31
0
0
LINE
5
192
100
AcDbEntity
8
0
100
AcDbLine
10
-173.02272644647272
20
-1502.7050037497106
30
0
11
-171.39250160954984
21
-1502.2237565653793
31
0
0
LINE
5
193
100
AcDbEntity
8
0
100
AcDbLine
10
-171.39250160954984
20
-1502.2237565653793
30
0
11
-169.7512367706901
21
-1501.7784995617521
31
0
0
LINE
5
194
100
AcDbEntity
8
0
100
AcDbLine
10
-169.7512367706901
20
-1501.7784995617521
30
0
11
-168.10095722174742
21
-1501.3696392944016
31
0
0
LINE
5
195
100
AcDbEntity
8
0
100
AcDbLine
10
-168.10095722174742
20
-1501.3696392944016
30
0
11
-166.44263926097011
21
-1500.9973699722514
31
0
0
LINE
5
196
100
AcDbEntity
8
0
100
AcDbLine
10
-166.44263926097011
20
-1500.9973699722514
30
0
11
-164.77531213789115
21
-1500.6617990834391
31
0
0
LINE
5
197
100
AcDbEntity
8
0
100
AcDbLine
10
-164.77531213789115
20
-1500.6617990834391
30
0
11
-163.10196841421399
21
-1500.3630235114465
31
0
0
LINE
5
198
100
AcDbEntity
8
0
100
AcDbLine
10
-163.10196841421399
20
-1500.3630235114465
30
0
11
-161.4216071426296
21
-1500.1013443396782
31
0
0
LINE
5
199
100
AcDbEntity
8
0
100
AcDbLine
10
-161.4216071426296
20
-1500.1013443396782
30
0
11
-159.73723145408923
21
-1499.8767609145395
31
0
0
LINE
5
200
100
AcDbEntity
8
0
100
AcDbLine
10
-159.73723145408923
20
-1499.8767609145395
30
0
11
-158.04683726694779
21
-1499.6894740615398
31
0
0
LINE
5
201
100
AcDbEntity
8
0
100
AcDbLine
10
-158.04683726694779
20
-1499.6894740615398
30
0
11
-156.35344133539212
21
-1499.5394847001653
31
0
0
LINE
5
202
100
AcDbEntity
8
0
100
AcDbLine
10
-156.35344133539212
20
-1499.5394847001653
30
0
11
-154.65703518466566
21
-1499.4269925192486
31
0
0
LINE
5
203
100
AcDbEntity
8
0
100
AcDbLine
10
-154.65703518466566
20
-1499.4269925192486
30
0
11
-152.95862263609766
21
-1499.3518974189606
31
0
0
LINE
5
204
100
AcDbEntity
8
0
100
AcDbLine
10
-152.95862263609766
20
-1499.3518974189606
30
0
11
-151.2582049206643
21
-1499.3144000000002
31
0
0
LINE
5
205
100
AcDbEntity
8
0
100
AcDbLine
10
-151.2582049206643
20
-1499.3144000000002
30
0
11
-149.55879507933568
21
-1499.3144000000002
31
0
0
LINE
5
206
100
AcDbEntity
8
0
100
AcDbLine
10
-149.55879507933568
20
-1499.3144000000002
30
0
11
-147.85837736390243
21
-1499.3518974189606
31
0
0
LINE
5
207
100
AcDbEntity
8
0
100
AcDbLine
10
-147.85837736390243
20
-1499.3518974189606
30
0
11
-146.15996481533426
21
-1499.4269925192486
31
0
0
LINE
5
208
100
AcDbEntity
8
0
100
AcDbLine
10
-146.15996481533426
20
-1499.4269925192486
30
0
11
-144.4635586646078
21
-1499.5394847001653
31
0
0
LINE
5
209
100
AcDbEntity
8
0
100
AcDbLine
10
-144.4635586646078
20
-1499.5394847001653
30
0
11
-142.77015626203084
21
-1499.6894746346982
31
0
0
LINE
5
210
100
AcDbEntity
8
0
100
AcDbLine
10
-142.77015626203084
20
-1499.6894746346982
30
0
11
-141.08076985333065
21
-1499.8767609143097
31
0
0
LINE
5
211
100
AcDbEntity
8
0
100
AcDbLine
10
-141.08076985333065
20
-1499.8767609143097
30
0
11
-139.39540055880784
21
-1500.1013431403494
31
0
0
LINE
5
212
100
AcDbEntity
8
0
100
AcDbLine
10
-139.39540055880784
20
-1500.1013431403494
30
0
11
-137.71503158578628
21
-1500.3630235114465
31
0
0
LINE
5
213
100
AcDbEntity
8
0
100
AcDbLine
10
-137.71503158578628
20
-1500.3630235114465
30
0
11
-136.0416878621084
21
-1500.6617990834393
31
0
0
LWPOLYLINE
5
214
100
AcDbEntity
8
0
100
AcDbPolyline
90
114
70
1
43
0.0
10
-104.27178660452338
20
-1494.8502864446978
10
-81.105031469158092
20
-1506.6565089730061
10
-78.657140380780419
20
-1502.0667131822986
10
-56.768774522738639
20
-1510.9405090807541
10
-52.79601148583702
20
-1507.4140660373614
42
-2.9525290537470248
10
-44.924598020837401
20
-1503.8784273471103
10
-39.998427995951815
20
-1505.1929415370387
42
-0.88391218399957661
10
-26.593171529161705
20
-1492.6474194802929
10
-20.225975715688314
20
-1468.6313094444733
10
-35.931710482781256
20
-1464.4480308785319
42
-0.90170242326104222
10
-47.645301615697932
20
-1450.256357772626
10
-55.407566476878706
20
-1446.9574151384879
42
-1.4974244179285634
10
-67.47895319596951
20
-1441.8271067796563
10
-75.535716958428182
20
-1438.4030028686857
10
-66.610451367034187
20
-1420.8102311655387
10
-83.900026092470398
20
-1412.0641786637973
10
-81.929085281970202
20
-1408.0138536356631
10
-108.95164292828012
20
-1394.2426243926354
42
-2.5574430930860537
10
-111.00842396353505
20
-1381.863396321854
10
-111.00800022992007
20
-1380.0948734574788
10
-111.0090941089902
20
-1380.0886085137136
10
-111.01467783712346
20
-1380.0772609371847
10
-111.02084859462094
20
-1380.0705650088364
10
-111.04004031203588
20
-1380.0596897023013
10
-114.05992804297296
20
-1379.599900451781
10
-117.06959907030394
20
-1379.1782267553886
10
-120.08426119783296
20
-1378.7915266415823
10
-123.10389525735735
20
-1378.4408014414191
10
-126.12653304804341
20
-1378.1260474235457
10
-129.15219727579634
20
-1377.8472626416624
10
-132.18185942461713
20
-1377.6034507800819
10
-135.2144612988462
20
-1377.3956151326886
10
-138.24809451696828
20
-1377.224748439573
10
-141.28475864966714
20
-1377.0888529732856
10
-144.32239268135393
20
-1376.9889308011902
10
-147.35999244686889
20
-1376.9249813324427
10
-150.39962448926769
20
-1376.8980023498179
10
-153.43829060404883
20
-1376.9059962100346
10
-156.4779229228908
20
-1376.9499619634958
10
-159.51555483793288
20
-1377.0298996454703
10
-162.55218838210521
20
-1377.1458093167848
10
-165.58782204549414
20
-1377.2976909220629
10
-168.621453634094
20
-1377.4855442615412
10
-171.65208462957779
20
-1377.7093693004426
10
-174.67972086192614
20
-1377.9691664688949
10
-177.70538591161139
20
-1378.2649382174768
10
-180.72601489500983
20
-1378.595678605669
10
-183.74265056984271
20
-1378.9633904070399
10
-186.75532639540864
20
-1379.3660797462448
10
-189.77830969995469
20
-1379.8067214087155
10
-189.79708073753969
20
-1379.81767118064
10
-189.80332967911096
20
-1379.8241804947768
10
-189.80768038440732
20
-1379.8333169758989
10
-189.80899977007994
20
-1379.8408734574787
10
-189.80885130209009
20
-1380.4605293577526
42
-1.9334145760698309
10
-193.85955976083895
20
-1395.0051285123
10
-218.88807122069861
20
-1407.7599322057308
10
-216.91735056998996
20
-1411.8100529547974
10
-234.20623716697975
20
-1420.556232413785
10
-225.28182784592101
20
-1438.1491919093919
10
-232.42414011364696
20
-1441.1846562832202
42
-1.6384329378652016
10
-244.04711461811286
20
-1446.1243906022646
10
-254.26126077874247
20
-1450.4653764927534
42
-0.8820583016792245
10
-266.07731430202409
20
-1464.5116108446955
10
-280.59147151757185
20
-1468.377508472722
10
-274.01910980597756
20
-1493.167473582143
42
-0.88852013297450416
10
-259.66242191702668
20
-1504.6303791985063
10
-255.12248352440369
20
-1503.4188933326545
42
-2.9447178240269603
10
-247.54428990458049
20
-1507.583583981801
10
-244.04839510827262
20
-1510.6866207806511
10
-222.16029828839237
20
-1501.8126406775993
10
-219.71232513510506
20
-1506.4025903400129
10
-192.54036829619861
20
-1492.5553431048011
10
-183.99981575151185
20
-1504.7121265593159
10
-183.84771798263191
20
-1504.8919504839814
10
-183.64345461730397
20
-1505.0897781542371
10
-183.4187116621753
20
-1505.2655625817963
10
-183.17801911053112
20
-1505.4175347394041
10
-182.92248244670648
20
-1505.5439041479744
10
-182.65563401334487
20
-1505.643552444069
10
-182.38051407321586
20
-1505.7152701504958
10
-182.09888053533797
20
-1505.7584477425612
10
-181.81442566858212
20
-1505.7724373261722
10
-181.52989680548717
20
-1505.7572313574233
10
-181.24826699137674
20
-1505.7130285322946
10
-181.00576675922525
20
-1505.6486727014544
10
-179.42735394883613
20
-1504.98642558753
10
-177.84525787358351
20
-1504.3631118169444
10
-176.2501289993761
20
-1503.7749895054358
10
-174.64294226480391
20
-1503.2221493523209
10
-173.02272645085213
20
-1502.7050037354666
10
-171.39250161361377
20
-1502.2237565510422
10
-169.75123677441292
20
-1501.7784995473223
10
-168.10095722518966
20
-1501.3696392799025
10
-166.44263926406614
20
-1500.9973699576744
10
-164.77531214067611
20
-1500.6617990687996
10
-163.10196841665601
20
-1500.3630234967457
10
-161.42160714476722
20
-1500.1013443249303
10
-159.73723145589514
20
-1499.8767608997473
10
-158.04683726841813
20
-1499.6894740467101
10
-156.35344133654982
20
-1499.5394846853083
10
-154.65703518549705
20
-1499.42699250437
10
-152.95862263658375
20
-1499.3518974040667
10
-151.25820492082525
20
-1499.3143999850988
10
-149.55879507917473
20
-1499.3143999850988
10
-147.85837736341631
20
-1499.3518974040667
10
-146.15996481450279
20
-1499.42699250437
10
-144.46355866345019
20
-1499.5394846853083
10
-142.77015626055518
20
-1499.6894746198691
10
-141.08076985153625
20
-1499.8767608995158
10
-139.39540055666413
20
-1500.1013431256024
10
-137.71503158334428
20
-1500.3630234967457
10
-136.04168785932328
20
-1500.6617990688001
10
-128.07280358724131
20
-1482.5503190421252
0
LWPOLYLINE
5
215
100
AcDbEntity
8
0
100
AcDbPolyline
90
4
70
1
43
0.0
10
-143.69851576408263
20
-1430.0000213086605
10
-156.00000232458115
20
-1430.0000213086605
10
-156.00000232458115
20
-1452.0000216364861
10
-143.69851576408263
20
-1452.0000216364861
0
LWPOLYLINE
5
216
100
AcDbEntity
8
0
100
AcDbPolyline
90
4
70
1
43
0.0
10
-143.02534499999979
20
-1428.8619230000004
10
-156.7413449999998
20
-1428.8619240000003
10
-156.7413449999998
20
-1422.2579200000005
10
-143.02534599999979
20
-1422.2579220000002
0
ENDSEC
0
SECTION
2
OBJECTS
0
DICTIONARY
5
C
100
AcDbDictionary
3
ACAD_GROUP
350
D
3
ACAD_MLINESTYLE
350
17
0
DICTIONARY
5
D
100
AcDbDictionary
0
DICTIONARY
5
1A
330
C
100
AcDbDictionary
0
DICTIONARY
5
17
100
AcDbDictionary
0
ENDSEC
0
EOF
