M48
; DRILL file {KiCad 7.0.2} date Sat Jul 27 13:19:37 2024
; FORMAT={-:-/ absolute / inch / decimal}
; #@! TF.CreationDate,2024-07-27T13:19:37+02:00
; #@! TF.GenerationSoftware,Kicad,Pcbnew,7.0.2
; #@! TF.FileFunction,Plated,1,2,PTH
FMAT,2
INCH
; #@! TA.AperFunction,Plated,PTH,ViaDrill
T1C0.0157
; #@! TA.AperFunction,Plated,PTH,ComponentDrill
T2C0.0354
; #@! TA.AperFunction,Plated,PTH,ComponentDrill
T3C0.0394
; #@! TA.AperFunction,Plated,PTH,ComponentDrill
T4C0.0430
; #@! TA.AperFunction,Plated,PTH,ComponentDrill
T5C0.0472
; #@! TA.AperFunction,Plated,PTH,ComponentDrill
T6C0.0512
; #@! TA.AperFunction,Plated,PTH,ComponentDrill
T7C0.0591
; #@! TA.AperFunction,Plated,PTH,ComponentDrill
T8C0.1260
%
G90
G05
T1
X0.9901Y-2.9898
X1.1259Y-2.2496
X1.4724Y-3.0035
X1.5669Y-2.1846
X1.6889Y-1.5882
X1.6948Y-2.6492
X2.1259Y-4.6197
X2.2145Y-3.8205
X2.3424Y-2.8776
X2.4468Y-2.7004
X2.4625Y-2.1846
X2.6476Y-4.5783
X2.6869Y-1.3657
X2.6928Y-3.9386
X2.6968Y-2.8146
X2.7696Y-4.8953
X2.8228Y-3.4622
X2.992Y-4.6551
X3.0964Y-3.0035
X3.1791Y-2.8244
X3.2657Y-3.3106
X3.3208Y-2.1866
X3.4665Y-5.1945
X3.5196Y-3.0843
X3.5905Y-3.3835
X3.6456Y-1.3657
X3.7972Y-3.1984
X3.8503Y-2.7634
X3.87Y-2.6551
X4.0058Y-2.5705
X4.0846Y-2.6138
X4.2854Y-4.7555
X4.2873Y-1.8697
X4.3242Y-2.4597
X4.4645Y-3.0606
X4.5078Y-2.1197
X4.6043Y-3.3461
X4.6535Y-1.4622
X4.744Y-1.411
X4.7775Y-1.6984
X4.7972Y-2.474
X4.8169Y-2.3795
X4.8306Y-4.098
X4.8365Y-1.3697
X4.8365Y-1.5665
X4.8405Y-1.9583
X4.8464Y-2.2102
X4.8897Y-2.6394
X4.9389Y-3.7693
X4.9606Y-3.7122
X4.9625Y-5.0902
X4.9684Y-3.6295
X4.9822Y-3.1591
X5.0275Y-2.2319
X5.118Y-3.5705
X5.1495Y-3.3028
X5.4212Y-1.3028
X5.4212Y-1.7693
X5.496Y-1.9189
X5.5058Y-1.8224
X5.5078Y-1.4622
X5.5216Y-4.8638
X5.559Y-1.6197
X5.5688Y-1.7181
X5.746Y-1.5705
X5.8188Y-5.1394
X5.8474Y-1.6719
X5.935Y-1.978
X6.0019Y-2.1197
X6.0334Y-4.539
X6.057Y-1.8146
X6.057Y-2.1709
X6.1121Y-1.915
X6.118Y-2.6295
X6.2696Y-5.3087
X6.2873Y-4.5961
X6.4999Y-2.0193
X6.5629Y-2.5232
X6.5629Y-4.474
X6.62Y-4.5921
X6.6889Y-2.1748
X6.6889Y-3.2398
X6.7361Y-4.478
X6.744Y-4.0882
X6.7598Y-2.1197
X6.8562Y-4.2614
X6.87Y-2.2398
X6.8956Y-3.3441
X6.9409Y-2.3185
X6.9409Y-4.0882
X6.9546Y-5.1335
X7.0078Y-4.226
X7.0373Y-4.6591
X7.0649Y-3.3461
X7.1771Y-2.3677
X7.1909Y-2.0232
X7.2539Y-1.4976
X7.4212Y-4.0902
X7.435Y-1.7673
X7.4586Y-2.4799
X7.681Y-2.7535
X7.8287Y-5.3657
X7.9428Y-1.9031
X8.0098Y-3.5961
X8.0905Y-4.2909
X8.2755Y-2.1
X8.2755Y-3.3618
X8.2913Y-4.2732
X8.3149Y-2.3146
X8.3326Y-4.8835
X8.3444Y-4.1512
X8.3936Y-3.1157
X8.5039Y-3.2417
X8.7184Y-3.7791
X8.7637Y-1.348
X8.8936Y-4.1157
X8.9192Y-3.8185
X9.0688Y-2.102
X9.1121Y-4.3598
X9.1318Y-4.6886
X9.1791Y-4.5331
X9.2046Y-2.2083
X9.3149Y-2.8835
X9.4448Y-3.8205
X9.5767Y-3.9504
X9.7302Y-1.348
X9.7814Y-3.9366
X9.9842Y-2.102
X10.1731Y-2.8835
X10.7283Y-1.6039
X10.8405Y-2.1039
T2
X7.433Y-1.3815
X7.5117Y-1.3815
X7.5905Y-1.3815
T3
X1.9903Y-4.322
X2.3663Y-4.4739
X5.1771Y-4.0094
X5.1771Y-4.1094
X5.1771Y-4.2094
X5.1771Y-4.3094
X5.1771Y-4.4094
X5.1771Y-4.5094
X9.478Y-4.4739
X9.854Y-4.322
T4
X5.2489Y-1.5675
X5.2489Y-1.6675
X5.2489Y-1.7675
X5.2489Y-1.8675
X5.2489Y-1.9675
X5.6458Y-1.4201
X5.6458Y-1.5201
X5.6458Y-1.6201
X5.6458Y-1.7201
X5.6458Y-1.8201
X5.6458Y-1.9201
X5.6458Y-2.0201
X5.6458Y-2.1201
X5.6458Y-2.2201
X5.6458Y-2.3201
X5.6458Y-2.4201
X5.6458Y-2.5201
X5.7458Y-2.3201
X5.8458Y-2.3201
X5.9458Y-2.3201
X6.2458Y-1.4201
X6.2458Y-1.5201
X6.2458Y-1.6201
X6.2458Y-1.7201
X6.2458Y-1.8201
X6.2458Y-1.9201
X6.2458Y-2.0201
X6.2458Y-2.1201
X6.2458Y-2.2201
X6.2458Y-2.3201
X6.2458Y-2.4201
X6.2458Y-2.5201
X7.3523Y-1.6177
X7.431Y-1.6177
X7.5098Y-1.6177
T5
X1.949Y-4.4242
X2.0449Y-4.1869
X2.325Y-4.5761
X2.4209Y-4.3388
X9.4234Y-4.3388
X9.5193Y-4.5761
X9.7994Y-4.1869
X9.8953Y-4.4242
T6
X6.7637Y-1.3913
X7.0196Y-1.3913
T7
X7.3503Y-1.3815
X7.6731Y-1.3815
T8
X1.87Y-1.5764
X2.2873Y-3.6256
X3.8818Y-1.7654
X4.2266Y-4.3154
X4.3956Y-1.6118
X4.5216Y-5.5055
X7.0826Y-1.7496
X7.3956Y-5.4504
X7.49Y-4.3026
X7.9231Y-1.7339
X9.5373Y-3.6335
X9.9566Y-1.5646
T0
M30
