%TF.GenerationSoftware,KiCad,Pcbnew,7.0.2*%
%TF.CreationDate,2024-07-15T12:22:54+02:00*%
%TF.ProjectId,Batreeq-wireless,42617472-6565-4712-9d77-6972656c6573,rev?*%
%TF.SameCoordinates,Original*%
%TF.FileFunction,Profile,NP*%
%FSLAX46Y46*%
G04 Gerber Fmt 4.6, Leading zero omitted, Abs format (unit mm)*
G04 Created by KiCad (PCBNEW 7.0.2) date 2024-07-15 12:22:54*
%MOMM*%
%LPD*%
G01*
G04 APERTURE LIST*
%TA.AperFunction,Profile*%
%ADD10C,0.050000*%
%TD*%
G04 APERTURE END LIST*
D10*
X36072444Y-81754349D02*
G75*
G03*
X35668610Y-81096953I-531644J126149D01*
G01*
X181198000Y-147940000D02*
X181186887Y-153871771D01*
X41366927Y-40608032D02*
G75*
G03*
X42021195Y-40373084I127273J674032D01*
G01*
X258371117Y-39627050D02*
G75*
G03*
X259025338Y-39862008I526983J439050D01*
G01*
X18948000Y-77840000D02*
X25851112Y-38235921D01*
X120883074Y-153758332D02*
G75*
G03*
X181186887Y-153871770I30632026J255175332D01*
G01*
X255498000Y-114540000D02*
X247748000Y-95190000D01*
X36072498Y-81754362D02*
X33678087Y-89357981D01*
X33678066Y-89357973D02*
G75*
G03*
X33890068Y-89808004I324834J-121927D01*
G01*
X165698000Y-69070000D02*
X165698000Y-113440000D01*
X135218000Y-69070000D02*
X165698000Y-69070000D01*
X135218000Y-113440000D02*
X135218000Y-69070000D01*
X52698000Y-95940000D02*
X45148000Y-114890000D01*
X165698000Y-113440000D02*
X135218000Y-113440000D01*
X33890068Y-89808005D02*
X52698000Y-95940000D01*
X41366931Y-40608012D02*
X25851112Y-38235921D01*
X258371081Y-39627080D02*
X250717536Y-31535278D01*
X247748000Y-95190000D02*
X266502205Y-89062004D01*
X49848000Y-32090000D02*
X42021195Y-40373084D01*
X45148000Y-114890000D02*
X120898000Y-147890000D01*
X18948000Y-77840000D02*
X35668610Y-81096953D01*
X264723663Y-80350955D02*
G75*
G03*
X264319779Y-81008360I127737J-531245D01*
G01*
X264723662Y-80350950D02*
X281348000Y-77040000D01*
X274541160Y-37489926D02*
X259025338Y-39862009D01*
X266502196Y-89061977D02*
G75*
G03*
X266714188Y-88611977I-112596J327977D01*
G01*
X120898000Y-147890000D02*
X120883074Y-153758333D01*
X266714188Y-88611977D02*
X264319778Y-81008360D01*
X181198000Y-147940000D02*
X255498000Y-114540000D01*
X250717536Y-31535278D02*
X49848000Y-32090000D01*
X281348000Y-77040000D02*
X274541160Y-37489926D01*
M02*
