M48
; DRILL file {KiCad (6.0.4)} date Thu Jul  7 20:03:23 2022
; FORMAT={-:-/ absolute / metric / decimal}
; #@! TF.CreationDate,2022-07-07T20:03:23+02:00
; #@! TF.GenerationSoftware,Kicad,Pcbnew,(6.0.4)
; #@! TF.FileFunction,Plated,1,2,PTH
FMAT,2
METRIC
; #@! TA.AperFunction,Plated,PTH,ViaDrill
T1C0.400
; #@! TA.AperFunction,Plated,PTH,ComponentDrill
T2C1.092
; #@! TA.AperFunction,Plated,PTH,ComponentDrill
T3C1.270
; #@! TA.AperFunction,Plated,PTH,ComponentDrill
T4C1.300
; #@! TA.AperFunction,Plated,PTH,ComponentDrill
T5C2.200
%
G90
G05
T1
X198.12Y-125.476
X199.409Y-64.013
X200.66Y-127.635
X203.2Y-129.667
T2
X198.036Y-120.015
X198.12Y-135.255
X200.66Y-120.015
X200.66Y-135.255
X203.035Y-66.324
X203.2Y-120.015
X203.2Y-135.255
X205.035Y-66.324
X205.74Y-120.015
X205.74Y-135.255
X207.035Y-66.324
X208.28Y-120.015
X208.28Y-135.255
X210.82Y-120.015
X210.82Y-135.255
X213.36Y-120.015
X213.36Y-135.255
X215.9Y-120.015
X215.9Y-135.255
X218.44Y-120.015
X218.44Y-135.255
X220.98Y-120.015
X220.98Y-135.255
X223.52Y-120.015
X223.52Y-135.255
X226.06Y-120.015
X226.06Y-135.255
T3
X199.074Y-98.613
X203.606Y-113.436
X204.469Y-99.159
X208.637Y-95.689
X209.001Y-113.982
X213.169Y-110.512
X217.424Y-78.702
X220.115Y-93.966
X222.712Y-79.901
X222.807Y-109.231
X225.404Y-95.166
X227.272Y-76.965
X228.095Y-110.43
X229.963Y-92.23
X232.655Y-107.494
X237.722Y-71.013
X239.073Y-86.454
X240.424Y-101.895
X242.886Y-72.67
X244.237Y-88.111
X245.588Y-103.552
X247.684Y-70.142
X249.035Y-85.583
X250.386Y-101.024
X259.862Y-76.882
X259.862Y-92.382
X259.862Y-107.882
X264.862Y-78.982
X264.862Y-94.482
X264.862Y-109.982
X265.531Y-128.79
X269.862Y-76.882
X269.862Y-92.382
X269.862Y-107.882
X270.531Y-130.89
X275.531Y-128.79
X277.962Y-84.632
X277.962Y-100.132
X282.962Y-86.732
X282.962Y-102.232
X283.605Y-131.769
X287.962Y-84.632
X287.962Y-100.132
X288.605Y-133.869
X293.605Y-131.769
T4
X195.707Y-74.549
X195.707Y-81.049
T5
X234.188Y-90.569
X251.142Y-111.506
X255.125Y-73.615
T0
M30
