%FSLAX45Y45*%
G04 Gerber Fmt 4.5, Leading zero omitted, Abs format (unit mm)*
G04 Created by KiCad (PCBNEW (6.0.4-0)) date 2022-07-05 10:49:57*
%MOMM*%
%LPD*%
G01*
G04 APERTURE LIST*
%TA.AperFunction,Profile*%
%ADD10C,0.150000*%
%TD*%
%ADD11C,0.200000*%
%ADD12C,0.090000*%
%ADD13C,0.170180*%
%ADD14C,0.300000*%
%ADD15C,0.342900*%
G04 APERTURE END LIST*
D10*
X19450634Y-5704187D02*
X29687965Y-5704187D01*
X29987973Y-6004187D02*
G75*
G03*
X29687965Y-5704187I-299993J7D01*
G01*
X29687965Y-13909590D02*
X19450634Y-13909590D01*
X29987965Y-6004187D02*
X29987965Y-13609590D01*
X29687965Y-13909595D02*
G75*
G03*
X29987965Y-13609590I-5J300005D01*
G01*
X19150640Y-13609590D02*
G75*
G03*
X19450634Y-13909590I299990J-10D01*
G01*
X19450634Y-5704184D02*
G75*
G03*
X19150634Y-6004187I6J-300006D01*
G01*
X19150634Y-13609590D02*
X19150634Y-6004187D01*
D11*
D12*
X19457176Y-6211550D02*
X19547176Y-6301550D01*
X19547176Y-6211550D02*
X19457176Y-6301550D01*
X19457176Y-6511550D02*
X19547176Y-6601550D01*
X19547176Y-6511550D02*
X19457176Y-6601550D01*
D13*
X19833566Y-9512519D02*
G75*
G03*
X19833566Y-9512519I-85090J0D01*
G01*
X20286742Y-10994792D02*
G75*
G03*
X20286742Y-10994792I-85090J0D01*
G01*
X20885501Y-9190910D02*
G75*
G03*
X20885501Y-9190910I-85090J0D01*
G01*
X21338677Y-10673183D02*
G75*
G03*
X21338677Y-10673183I-85090J0D01*
G01*
X21712224Y-7504615D02*
G75*
G03*
X21712224Y-7504615I-85090J0D01*
G01*
X21981378Y-9031068D02*
G75*
G03*
X21981378Y-9031068I-85090J0D01*
G01*
X22250533Y-10557520D02*
G75*
G03*
X22250533Y-10557520I-85090J0D01*
G01*
X22795512Y-7313602D02*
G75*
G03*
X22795512Y-7313602I-85090J0D01*
G01*
X23064667Y-8840055D02*
G75*
G03*
X23064667Y-8840055I-85090J0D01*
G01*
X23333821Y-10366507D02*
G75*
G03*
X23333821Y-10366507I-85090J0D01*
G01*
X23774406Y-6727138D02*
G75*
G03*
X23774406Y-6727138I-85090J0D01*
G01*
X23909498Y-8271240D02*
G75*
G03*
X23909498Y-8271240I-85090J0D01*
G01*
X24044589Y-9815342D02*
G75*
G03*
X24044589Y-9815342I-85090J0D01*
G01*
X24870220Y-6631267D02*
G75*
G03*
X24870220Y-6631267I-85090J0D01*
G01*
X25005312Y-8175369D02*
G75*
G03*
X25005312Y-8175369I-85090J0D01*
G01*
X25140403Y-9719471D02*
G75*
G03*
X25140403Y-9719471I-85090J0D01*
G01*
X26021290Y-7308200D02*
G75*
G03*
X26021290Y-7308200I-85090J0D01*
G01*
X26021290Y-8858200D02*
G75*
G03*
X26021290Y-8858200I-85090J0D01*
G01*
X26021290Y-10408200D02*
G75*
G03*
X26021290Y-10408200I-85090J0D01*
G01*
X26690280Y-12451071D02*
G75*
G03*
X26690280Y-12451071I-85090J0D01*
G01*
X27121290Y-7308200D02*
G75*
G03*
X27121290Y-7308200I-85090J0D01*
G01*
X27121290Y-8858200D02*
G75*
G03*
X27121290Y-8858200I-85090J0D01*
G01*
X27121290Y-10408200D02*
G75*
G03*
X27121290Y-10408200I-85090J0D01*
G01*
X27671290Y-8083200D02*
G75*
G03*
X27671290Y-8083200I-85090J0D01*
G01*
X27671290Y-9633200D02*
G75*
G03*
X27671290Y-9633200I-85090J0D01*
G01*
X27786095Y-12546942D02*
G75*
G03*
X27786095Y-12546942I-85090J0D01*
G01*
X28424323Y-12654566D02*
G75*
G03*
X28424323Y-12654566I-85090J0D01*
G01*
X28771290Y-8083200D02*
G75*
G03*
X28771290Y-8083200I-85090J0D01*
G01*
X28771290Y-9633200D02*
G75*
G03*
X28771290Y-9633200I-85090J0D01*
G01*
X29486841Y-12939267D02*
G75*
G03*
X29486841Y-12939267I-85090J0D01*
G01*
D14*
X19686651Y-8989287D02*
X19686651Y-9289287D01*
X19536651Y-9139287D02*
X19836651Y-9139287D01*
X20100482Y-8632714D02*
X20100482Y-8932714D01*
X19950482Y-8782714D02*
X20250482Y-8782714D01*
X20139828Y-10471559D02*
X20139828Y-10771559D01*
X19989828Y-10621559D02*
X20289828Y-10621559D01*
X20553658Y-10114986D02*
X20553658Y-10414986D01*
X20403658Y-10264986D02*
X20703658Y-10264986D01*
X20642956Y-8696915D02*
X20642956Y-8996915D01*
X20492956Y-8846915D02*
X20792956Y-8846915D01*
X21096132Y-10179187D02*
X21096132Y-10479187D01*
X20946132Y-10329187D02*
X21246132Y-10329187D01*
X21611256Y-6976630D02*
X21611256Y-7276630D01*
X21461256Y-7126630D02*
X21761256Y-7126630D01*
X21880411Y-8503082D02*
X21880411Y-8803082D01*
X21730411Y-8653082D02*
X22030411Y-8653082D01*
X22065457Y-6673148D02*
X22065457Y-6973148D01*
X21915457Y-6823148D02*
X22215457Y-6823148D01*
X22149565Y-10029534D02*
X22149565Y-10329534D01*
X21999565Y-10179534D02*
X22299565Y-10179534D01*
X22334612Y-8199600D02*
X22334612Y-8499600D01*
X22184612Y-8349600D02*
X22484612Y-8349600D01*
X22596064Y-6802982D02*
X22596064Y-7102982D01*
X22446064Y-6952982D02*
X22746064Y-6952982D01*
X22603766Y-9726052D02*
X22603766Y-10026052D01*
X22453766Y-9876052D02*
X22753766Y-9876052D01*
X22865218Y-8329434D02*
X22865218Y-8629434D01*
X22715218Y-8479434D02*
X23015218Y-8479434D01*
X23134373Y-9855886D02*
X23134373Y-10155886D01*
X22984373Y-10005886D02*
X23284373Y-10005886D01*
X23706442Y-6199208D02*
X23706442Y-6499208D01*
X23556442Y-6349208D02*
X23856442Y-6349208D01*
X23841534Y-7743309D02*
X23841534Y-8043309D01*
X23691534Y-7893309D02*
X23991534Y-7893309D01*
X23976625Y-9287411D02*
X23976625Y-9587411D01*
X23826625Y-9437411D02*
X24126625Y-9437411D01*
X24185365Y-5936467D02*
X24185365Y-6236467D01*
X24035365Y-6086467D02*
X24335365Y-6086467D01*
X24320457Y-7480569D02*
X24320457Y-7780569D01*
X24170457Y-7630569D02*
X24470457Y-7630569D01*
X24455548Y-9024670D02*
X24455548Y-9324670D01*
X24305548Y-9174670D02*
X24605548Y-9174670D01*
X24702637Y-6112052D02*
X24702637Y-6412052D01*
X24552637Y-6262052D02*
X24852637Y-6262052D01*
X24837729Y-7656154D02*
X24837729Y-7956154D01*
X24687729Y-7806154D02*
X24987729Y-7806154D01*
X24972820Y-9200255D02*
X24972820Y-9500255D01*
X24822820Y-9350255D02*
X25122820Y-9350255D01*
X25986200Y-6783200D02*
X25986200Y-7083200D01*
X25836200Y-6933200D02*
X26136200Y-6933200D01*
X25986200Y-8333200D02*
X25986200Y-8633200D01*
X25836200Y-8483200D02*
X26136200Y-8483200D01*
X25986200Y-9883200D02*
X25986200Y-10183200D01*
X25836200Y-10033200D02*
X26136200Y-10033200D01*
X26486200Y-6563200D02*
X26486200Y-6863200D01*
X26336200Y-6713200D02*
X26636200Y-6713200D01*
X26486200Y-8113200D02*
X26486200Y-8413200D01*
X26336200Y-8263200D02*
X26636200Y-8263200D01*
X26486200Y-9663200D02*
X26486200Y-9963200D01*
X26336200Y-9813200D02*
X26636200Y-9813200D01*
X26687683Y-11931856D02*
X26687683Y-12231856D01*
X26537683Y-12081856D02*
X26837683Y-12081856D01*
X26986200Y-6783200D02*
X26986200Y-7083200D01*
X26836200Y-6933200D02*
X27136200Y-6933200D01*
X26986200Y-8333200D02*
X26986200Y-8633200D01*
X26836200Y-8483200D02*
X27136200Y-8483200D01*
X26986200Y-9883200D02*
X26986200Y-10183200D01*
X26836200Y-10033200D02*
X27136200Y-10033200D01*
X27204955Y-11756271D02*
X27204955Y-12056271D01*
X27054955Y-11906271D02*
X27354955Y-11906271D01*
X27636200Y-7558200D02*
X27636200Y-7858200D01*
X27486200Y-7708200D02*
X27786200Y-7708200D01*
X27636200Y-9108200D02*
X27636200Y-9408200D01*
X27486200Y-9258200D02*
X27786200Y-9258200D01*
X27683878Y-12019011D02*
X27683878Y-12319011D01*
X27533878Y-12169011D02*
X27833878Y-12169011D01*
X28136200Y-7338200D02*
X28136200Y-7638200D01*
X27986200Y-7488200D02*
X28286200Y-7488200D01*
X28136200Y-8888200D02*
X28136200Y-9188200D01*
X27986200Y-9038200D02*
X28286200Y-9038200D01*
X28484586Y-12155285D02*
X28484586Y-12455285D01*
X28334586Y-12305285D02*
X28634586Y-12305285D01*
X28636200Y-7558200D02*
X28636200Y-7858200D01*
X28486200Y-7708200D02*
X28786200Y-7708200D01*
X28636200Y-9108200D02*
X28636200Y-9408200D01*
X28486200Y-9258200D02*
X28786200Y-9258200D01*
X29024489Y-12072191D02*
X29024489Y-12372191D01*
X28874489Y-12222191D02*
X29174489Y-12222191D01*
X29450512Y-12414104D02*
X29450512Y-12714104D01*
X29300512Y-12564104D02*
X29600512Y-12564104D01*
D15*
X20395678Y-9472949D02*
X20395678Y-9230480D01*
X20153209Y-9230480D01*
X20153209Y-9472949D01*
X20395678Y-9472949D01*
X20848854Y-10955222D02*
X20848854Y-10712753D01*
X20606385Y-10712753D01*
X20606385Y-10955222D01*
X20848854Y-10955222D01*
X22290013Y-7530344D02*
X22290013Y-7287874D01*
X22047543Y-7287874D01*
X22047543Y-7530344D01*
X22290013Y-7530344D01*
X22559167Y-9056796D02*
X22559167Y-8814326D01*
X22316698Y-8814326D01*
X22316698Y-9056796D01*
X22559167Y-9056796D01*
X22828322Y-10583248D02*
X22828322Y-10340778D01*
X22585853Y-10340778D01*
X22585853Y-10583248D01*
X22828322Y-10583248D01*
X24358458Y-6800437D02*
X24358458Y-6557968D01*
X24115989Y-6557968D01*
X24115989Y-6800437D01*
X24358458Y-6800437D01*
X24493549Y-8344539D02*
X24493549Y-8102070D01*
X24251080Y-8102070D01*
X24251080Y-8344539D01*
X24493549Y-8344539D01*
X24628641Y-9888641D02*
X24628641Y-9646172D01*
X24386171Y-9646172D01*
X24386171Y-9888641D01*
X24628641Y-9888641D01*
X26607435Y-7429435D02*
X26607435Y-7186965D01*
X26364965Y-7186965D01*
X26364965Y-7429435D01*
X26607435Y-7429435D01*
X26607435Y-8979435D02*
X26607435Y-8736965D01*
X26364965Y-8736965D01*
X26364965Y-8979435D01*
X26607435Y-8979435D01*
X26607435Y-10529435D02*
X26607435Y-10286965D01*
X26364965Y-10286965D01*
X26364965Y-10529435D01*
X26607435Y-10529435D01*
X27274332Y-12620241D02*
X27274332Y-12377772D01*
X27031863Y-12377772D01*
X27031863Y-12620241D01*
X27274332Y-12620241D01*
X28257435Y-8204435D02*
X28257435Y-7961965D01*
X28014965Y-7961965D01*
X28014965Y-8204435D01*
X28257435Y-8204435D01*
X28257435Y-9754435D02*
X28257435Y-9511965D01*
X28014965Y-9511965D01*
X28014965Y-9754435D01*
X28257435Y-9754435D01*
X28991727Y-12918152D02*
X28991727Y-12675682D01*
X28749258Y-12675682D01*
X28749258Y-12918152D01*
X28991727Y-12918152D01*
D11*
X19400753Y-14227566D02*
X19400753Y-14027566D01*
X19448372Y-14027566D01*
X19476944Y-14037090D01*
X19495991Y-14056137D01*
X19505515Y-14075185D01*
X19515039Y-14113280D01*
X19515039Y-14141852D01*
X19505515Y-14179947D01*
X19495991Y-14198995D01*
X19476944Y-14218042D01*
X19448372Y-14227566D01*
X19400753Y-14227566D01*
X19600753Y-14227566D02*
X19600753Y-14094233D01*
X19600753Y-14132328D02*
X19610277Y-14113280D01*
X19619801Y-14103756D01*
X19638849Y-14094233D01*
X19657896Y-14094233D01*
X19724563Y-14227566D02*
X19724563Y-14094233D01*
X19724563Y-14027566D02*
X19715039Y-14037090D01*
X19724563Y-14046614D01*
X19734087Y-14037090D01*
X19724563Y-14027566D01*
X19724563Y-14046614D01*
X19848372Y-14227566D02*
X19829325Y-14218042D01*
X19819801Y-14198995D01*
X19819801Y-14027566D01*
X19953134Y-14227566D02*
X19934087Y-14218042D01*
X19924563Y-14198995D01*
X19924563Y-14027566D01*
X20181706Y-14227566D02*
X20181706Y-14027566D01*
X20248372Y-14170423D01*
X20315039Y-14027566D01*
X20315039Y-14227566D01*
X20495991Y-14227566D02*
X20495991Y-14122804D01*
X20486468Y-14103756D01*
X20467420Y-14094233D01*
X20429325Y-14094233D01*
X20410277Y-14103756D01*
X20495991Y-14218042D02*
X20476944Y-14227566D01*
X20429325Y-14227566D01*
X20410277Y-14218042D01*
X20400753Y-14198995D01*
X20400753Y-14179947D01*
X20410277Y-14160899D01*
X20429325Y-14151376D01*
X20476944Y-14151376D01*
X20495991Y-14141852D01*
X20591230Y-14094233D02*
X20591230Y-14294233D01*
X20591230Y-14103756D02*
X20610277Y-14094233D01*
X20648372Y-14094233D01*
X20667420Y-14103756D01*
X20676944Y-14113280D01*
X20686468Y-14132328D01*
X20686468Y-14189471D01*
X20676944Y-14208518D01*
X20667420Y-14218042D01*
X20648372Y-14227566D01*
X20610277Y-14227566D01*
X20591230Y-14218042D01*
X20772182Y-14208518D02*
X20781706Y-14218042D01*
X20772182Y-14227566D01*
X20762658Y-14218042D01*
X20772182Y-14208518D01*
X20772182Y-14227566D01*
X20772182Y-14103756D02*
X20781706Y-14113280D01*
X20772182Y-14122804D01*
X20762658Y-14113280D01*
X20772182Y-14103756D01*
X20772182Y-14122804D01*
D12*
X19053134Y-14512090D02*
X19143134Y-14602090D01*
X19143134Y-14512090D02*
X19053134Y-14602090D01*
D11*
X19438849Y-14447566D02*
X19457896Y-14447566D01*
X19476944Y-14457090D01*
X19486468Y-14466614D01*
X19495991Y-14485661D01*
X19505515Y-14523756D01*
X19505515Y-14571376D01*
X19495991Y-14609471D01*
X19486468Y-14628518D01*
X19476944Y-14638042D01*
X19457896Y-14647566D01*
X19438849Y-14647566D01*
X19419801Y-14638042D01*
X19410277Y-14628518D01*
X19400753Y-14609471D01*
X19391230Y-14571376D01*
X19391230Y-14523756D01*
X19400753Y-14485661D01*
X19410277Y-14466614D01*
X19419801Y-14457090D01*
X19438849Y-14447566D01*
X19591230Y-14628518D02*
X19600753Y-14638042D01*
X19591230Y-14647566D01*
X19581706Y-14638042D01*
X19591230Y-14628518D01*
X19591230Y-14647566D01*
X19695991Y-14647566D02*
X19734087Y-14647566D01*
X19753134Y-14638042D01*
X19762658Y-14628518D01*
X19781706Y-14599947D01*
X19791230Y-14561852D01*
X19791230Y-14485661D01*
X19781706Y-14466614D01*
X19772182Y-14457090D01*
X19753134Y-14447566D01*
X19715039Y-14447566D01*
X19695991Y-14457090D01*
X19686468Y-14466614D01*
X19676944Y-14485661D01*
X19676944Y-14533280D01*
X19686468Y-14552328D01*
X19695991Y-14561852D01*
X19715039Y-14571376D01*
X19753134Y-14571376D01*
X19772182Y-14561852D01*
X19781706Y-14552328D01*
X19791230Y-14533280D01*
X19915039Y-14447566D02*
X19934087Y-14447566D01*
X19953134Y-14457090D01*
X19962658Y-14466614D01*
X19972182Y-14485661D01*
X19981706Y-14523756D01*
X19981706Y-14571376D01*
X19972182Y-14609471D01*
X19962658Y-14628518D01*
X19953134Y-14638042D01*
X19934087Y-14647566D01*
X19915039Y-14647566D01*
X19895991Y-14638042D01*
X19886468Y-14628518D01*
X19876944Y-14609471D01*
X19867420Y-14571376D01*
X19867420Y-14523756D01*
X19876944Y-14485661D01*
X19886468Y-14466614D01*
X19895991Y-14457090D01*
X19915039Y-14447566D01*
X20105515Y-14447566D02*
X20124563Y-14447566D01*
X20143610Y-14457090D01*
X20153134Y-14466614D01*
X20162658Y-14485661D01*
X20172182Y-14523756D01*
X20172182Y-14571376D01*
X20162658Y-14609471D01*
X20153134Y-14628518D01*
X20143610Y-14638042D01*
X20124563Y-14647566D01*
X20105515Y-14647566D01*
X20086468Y-14638042D01*
X20076944Y-14628518D01*
X20067420Y-14609471D01*
X20057896Y-14571376D01*
X20057896Y-14523756D01*
X20067420Y-14485661D01*
X20076944Y-14466614D01*
X20086468Y-14457090D01*
X20105515Y-14447566D01*
X20257896Y-14647566D02*
X20257896Y-14514233D01*
X20257896Y-14533280D02*
X20267420Y-14523756D01*
X20286468Y-14514233D01*
X20315039Y-14514233D01*
X20334087Y-14523756D01*
X20343610Y-14542804D01*
X20343610Y-14647566D01*
X20343610Y-14542804D02*
X20353134Y-14523756D01*
X20372182Y-14514233D01*
X20400753Y-14514233D01*
X20419801Y-14523756D01*
X20429325Y-14542804D01*
X20429325Y-14647566D01*
X20524563Y-14647566D02*
X20524563Y-14514233D01*
X20524563Y-14533280D02*
X20534087Y-14523756D01*
X20553134Y-14514233D01*
X20581706Y-14514233D01*
X20600753Y-14523756D01*
X20610277Y-14542804D01*
X20610277Y-14647566D01*
X20610277Y-14542804D02*
X20619801Y-14523756D01*
X20638849Y-14514233D01*
X20667420Y-14514233D01*
X20686468Y-14523756D01*
X20695991Y-14542804D01*
X20695991Y-14647566D01*
X21086468Y-14438042D02*
X20915039Y-14695185D01*
X21343610Y-14447566D02*
X21362658Y-14447566D01*
X21381706Y-14457090D01*
X21391230Y-14466614D01*
X21400753Y-14485661D01*
X21410277Y-14523756D01*
X21410277Y-14571376D01*
X21400753Y-14609471D01*
X21391230Y-14628518D01*
X21381706Y-14638042D01*
X21362658Y-14647566D01*
X21343610Y-14647566D01*
X21324563Y-14638042D01*
X21315039Y-14628518D01*
X21305515Y-14609471D01*
X21295991Y-14571376D01*
X21295991Y-14523756D01*
X21305515Y-14485661D01*
X21315039Y-14466614D01*
X21324563Y-14457090D01*
X21343610Y-14447566D01*
X21495991Y-14628518D02*
X21505515Y-14638042D01*
X21495991Y-14647566D01*
X21486468Y-14638042D01*
X21495991Y-14628518D01*
X21495991Y-14647566D01*
X21629325Y-14447566D02*
X21648372Y-14447566D01*
X21667420Y-14457090D01*
X21676944Y-14466614D01*
X21686468Y-14485661D01*
X21695991Y-14523756D01*
X21695991Y-14571376D01*
X21686468Y-14609471D01*
X21676944Y-14628518D01*
X21667420Y-14638042D01*
X21648372Y-14647566D01*
X21629325Y-14647566D01*
X21610277Y-14638042D01*
X21600753Y-14628518D01*
X21591230Y-14609471D01*
X21581706Y-14571376D01*
X21581706Y-14523756D01*
X21591230Y-14485661D01*
X21600753Y-14466614D01*
X21610277Y-14457090D01*
X21629325Y-14447566D01*
X21762658Y-14447566D02*
X21886468Y-14447566D01*
X21819801Y-14523756D01*
X21848372Y-14523756D01*
X21867420Y-14533280D01*
X21876944Y-14542804D01*
X21886468Y-14561852D01*
X21886468Y-14609471D01*
X21876944Y-14628518D01*
X21867420Y-14638042D01*
X21848372Y-14647566D01*
X21791230Y-14647566D01*
X21772182Y-14638042D01*
X21762658Y-14628518D01*
X22067420Y-14447566D02*
X21972182Y-14447566D01*
X21962658Y-14542804D01*
X21972182Y-14533280D01*
X21991230Y-14523756D01*
X22038849Y-14523756D01*
X22057896Y-14533280D01*
X22067420Y-14542804D01*
X22076944Y-14561852D01*
X22076944Y-14609471D01*
X22067420Y-14628518D01*
X22057896Y-14638042D01*
X22038849Y-14647566D01*
X21991230Y-14647566D01*
X21972182Y-14638042D01*
X21962658Y-14628518D01*
X22248372Y-14514233D02*
X22248372Y-14647566D01*
X22200753Y-14438042D02*
X22153134Y-14580899D01*
X22276944Y-14580899D01*
X22343610Y-14447566D02*
X22343610Y-14485661D01*
X22419801Y-14447566D02*
X22419801Y-14485661D01*
X22715039Y-14723756D02*
X22705515Y-14714233D01*
X22686468Y-14685661D01*
X22676944Y-14666614D01*
X22667420Y-14638042D01*
X22657896Y-14590423D01*
X22657896Y-14552328D01*
X22667420Y-14504709D01*
X22676944Y-14476137D01*
X22686468Y-14457090D01*
X22705515Y-14428518D01*
X22715039Y-14418995D01*
X22781706Y-14466614D02*
X22791229Y-14457090D01*
X22810277Y-14447566D01*
X22857896Y-14447566D01*
X22876944Y-14457090D01*
X22886468Y-14466614D01*
X22895991Y-14485661D01*
X22895991Y-14504709D01*
X22886468Y-14533280D01*
X22772182Y-14647566D01*
X22895991Y-14647566D01*
X23134087Y-14647566D02*
X23134087Y-14447566D01*
X23219801Y-14647566D02*
X23219801Y-14542804D01*
X23210277Y-14523756D01*
X23191229Y-14514233D01*
X23162658Y-14514233D01*
X23143610Y-14523756D01*
X23134087Y-14533280D01*
X23343610Y-14647566D02*
X23324563Y-14638042D01*
X23315039Y-14628518D01*
X23305515Y-14609471D01*
X23305515Y-14552328D01*
X23315039Y-14533280D01*
X23324563Y-14523756D01*
X23343610Y-14514233D01*
X23372182Y-14514233D01*
X23391229Y-14523756D01*
X23400753Y-14533280D01*
X23410277Y-14552328D01*
X23410277Y-14609471D01*
X23400753Y-14628518D01*
X23391229Y-14638042D01*
X23372182Y-14647566D01*
X23343610Y-14647566D01*
X23524563Y-14647566D02*
X23505515Y-14638042D01*
X23495991Y-14618995D01*
X23495991Y-14447566D01*
X23676944Y-14638042D02*
X23657896Y-14647566D01*
X23619801Y-14647566D01*
X23600753Y-14638042D01*
X23591229Y-14618995D01*
X23591229Y-14542804D01*
X23600753Y-14523756D01*
X23619801Y-14514233D01*
X23657896Y-14514233D01*
X23676944Y-14523756D01*
X23686468Y-14542804D01*
X23686468Y-14561852D01*
X23591229Y-14580899D01*
X23762658Y-14638042D02*
X23781706Y-14647566D01*
X23819801Y-14647566D01*
X23838848Y-14638042D01*
X23848372Y-14618995D01*
X23848372Y-14609471D01*
X23838848Y-14590423D01*
X23819801Y-14580899D01*
X23791229Y-14580899D01*
X23772182Y-14571376D01*
X23762658Y-14552328D01*
X23762658Y-14542804D01*
X23772182Y-14523756D01*
X23791229Y-14514233D01*
X23819801Y-14514233D01*
X23838848Y-14523756D01*
X23915039Y-14723756D02*
X23924563Y-14714233D01*
X23943610Y-14685661D01*
X23953134Y-14666614D01*
X23962658Y-14638042D01*
X23972182Y-14590423D01*
X23972182Y-14552328D01*
X23962658Y-14504709D01*
X23953134Y-14476137D01*
X23943610Y-14457090D01*
X23924563Y-14428518D01*
X23915039Y-14418995D01*
X24276944Y-14723756D02*
X24267420Y-14714233D01*
X24248372Y-14685661D01*
X24238848Y-14666614D01*
X24229325Y-14638042D01*
X24219801Y-14590423D01*
X24219801Y-14552328D01*
X24229325Y-14504709D01*
X24238848Y-14476137D01*
X24248372Y-14457090D01*
X24267420Y-14428518D01*
X24276944Y-14418995D01*
X24353134Y-14514233D02*
X24353134Y-14647566D01*
X24353134Y-14533280D02*
X24362658Y-14523756D01*
X24381706Y-14514233D01*
X24410277Y-14514233D01*
X24429325Y-14523756D01*
X24438848Y-14542804D01*
X24438848Y-14647566D01*
X24562658Y-14647566D02*
X24543610Y-14638042D01*
X24534087Y-14628518D01*
X24524563Y-14609471D01*
X24524563Y-14552328D01*
X24534087Y-14533280D01*
X24543610Y-14523756D01*
X24562658Y-14514233D01*
X24591229Y-14514233D01*
X24610277Y-14523756D01*
X24619801Y-14533280D01*
X24629325Y-14552328D01*
X24629325Y-14609471D01*
X24619801Y-14628518D01*
X24610277Y-14638042D01*
X24591229Y-14647566D01*
X24562658Y-14647566D01*
X24686468Y-14514233D02*
X24762658Y-14514233D01*
X24715039Y-14447566D02*
X24715039Y-14618995D01*
X24724563Y-14638042D01*
X24743610Y-14647566D01*
X24762658Y-14647566D01*
X24981706Y-14514233D02*
X24981706Y-14714233D01*
X24981706Y-14523756D02*
X25000753Y-14514233D01*
X25038848Y-14514233D01*
X25057896Y-14523756D01*
X25067420Y-14533280D01*
X25076944Y-14552328D01*
X25076944Y-14609471D01*
X25067420Y-14628518D01*
X25057896Y-14638042D01*
X25038848Y-14647566D01*
X25000753Y-14647566D01*
X24981706Y-14638042D01*
X25191229Y-14647566D02*
X25172182Y-14638042D01*
X25162658Y-14618995D01*
X25162658Y-14447566D01*
X25353134Y-14647566D02*
X25353134Y-14542804D01*
X25343610Y-14523756D01*
X25324563Y-14514233D01*
X25286468Y-14514233D01*
X25267420Y-14523756D01*
X25353134Y-14638042D02*
X25334087Y-14647566D01*
X25286468Y-14647566D01*
X25267420Y-14638042D01*
X25257896Y-14618995D01*
X25257896Y-14599947D01*
X25267420Y-14580899D01*
X25286468Y-14571376D01*
X25334087Y-14571376D01*
X25353134Y-14561852D01*
X25419801Y-14514233D02*
X25495991Y-14514233D01*
X25448372Y-14447566D02*
X25448372Y-14618995D01*
X25457896Y-14638042D01*
X25476944Y-14647566D01*
X25495991Y-14647566D01*
X25638848Y-14638042D02*
X25619801Y-14647566D01*
X25581706Y-14647566D01*
X25562658Y-14638042D01*
X25553134Y-14618995D01*
X25553134Y-14542804D01*
X25562658Y-14523756D01*
X25581706Y-14514233D01*
X25619801Y-14514233D01*
X25638848Y-14523756D01*
X25648372Y-14542804D01*
X25648372Y-14561852D01*
X25553134Y-14580899D01*
X25819801Y-14647566D02*
X25819801Y-14447566D01*
X25819801Y-14638042D02*
X25800753Y-14647566D01*
X25762658Y-14647566D01*
X25743610Y-14638042D01*
X25734087Y-14628518D01*
X25724563Y-14609471D01*
X25724563Y-14552328D01*
X25734087Y-14533280D01*
X25743610Y-14523756D01*
X25762658Y-14514233D01*
X25800753Y-14514233D01*
X25819801Y-14523756D01*
X25895991Y-14723756D02*
X25905515Y-14714233D01*
X25924563Y-14685661D01*
X25934087Y-14666614D01*
X25943610Y-14638042D01*
X25953134Y-14590423D01*
X25953134Y-14552328D01*
X25943610Y-14504709D01*
X25934087Y-14476137D01*
X25924563Y-14457090D01*
X25905515Y-14428518D01*
X25895991Y-14418995D01*
D13*
X19143134Y-14821090D02*
G75*
G03*
X19143134Y-14821090I-85090J0D01*
G01*
D11*
X19505515Y-14911566D02*
X19391230Y-14911566D01*
X19448372Y-14911566D02*
X19448372Y-14711566D01*
X19429325Y-14740137D01*
X19410277Y-14759185D01*
X19391230Y-14768709D01*
X19591230Y-14892518D02*
X19600753Y-14902042D01*
X19591230Y-14911566D01*
X19581706Y-14902042D01*
X19591230Y-14892518D01*
X19591230Y-14911566D01*
X19667420Y-14711566D02*
X19800753Y-14711566D01*
X19715039Y-14911566D01*
X19915039Y-14711566D02*
X19934087Y-14711566D01*
X19953134Y-14721090D01*
X19962658Y-14730614D01*
X19972182Y-14749661D01*
X19981706Y-14787756D01*
X19981706Y-14835376D01*
X19972182Y-14873471D01*
X19962658Y-14892518D01*
X19953134Y-14902042D01*
X19934087Y-14911566D01*
X19915039Y-14911566D01*
X19895991Y-14902042D01*
X19886468Y-14892518D01*
X19876944Y-14873471D01*
X19867420Y-14835376D01*
X19867420Y-14787756D01*
X19876944Y-14749661D01*
X19886468Y-14730614D01*
X19895991Y-14721090D01*
X19915039Y-14711566D01*
X20057896Y-14730614D02*
X20067420Y-14721090D01*
X20086468Y-14711566D01*
X20134087Y-14711566D01*
X20153134Y-14721090D01*
X20162658Y-14730614D01*
X20172182Y-14749661D01*
X20172182Y-14768709D01*
X20162658Y-14797280D01*
X20048372Y-14911566D01*
X20172182Y-14911566D01*
X20257896Y-14911566D02*
X20257896Y-14778233D01*
X20257896Y-14797280D02*
X20267420Y-14787756D01*
X20286468Y-14778233D01*
X20315039Y-14778233D01*
X20334087Y-14787756D01*
X20343610Y-14806804D01*
X20343610Y-14911566D01*
X20343610Y-14806804D02*
X20353134Y-14787756D01*
X20372182Y-14778233D01*
X20400753Y-14778233D01*
X20419801Y-14787756D01*
X20429325Y-14806804D01*
X20429325Y-14911566D01*
X20524563Y-14911566D02*
X20524563Y-14778233D01*
X20524563Y-14797280D02*
X20534087Y-14787756D01*
X20553134Y-14778233D01*
X20581706Y-14778233D01*
X20600753Y-14787756D01*
X20610277Y-14806804D01*
X20610277Y-14911566D01*
X20610277Y-14806804D02*
X20619801Y-14787756D01*
X20638849Y-14778233D01*
X20667420Y-14778233D01*
X20686468Y-14787756D01*
X20695991Y-14806804D01*
X20695991Y-14911566D01*
X21086468Y-14702042D02*
X20915039Y-14959185D01*
X21343610Y-14711566D02*
X21362658Y-14711566D01*
X21381706Y-14721090D01*
X21391230Y-14730614D01*
X21400753Y-14749661D01*
X21410277Y-14787756D01*
X21410277Y-14835376D01*
X21400753Y-14873471D01*
X21391230Y-14892518D01*
X21381706Y-14902042D01*
X21362658Y-14911566D01*
X21343610Y-14911566D01*
X21324563Y-14902042D01*
X21315039Y-14892518D01*
X21305515Y-14873471D01*
X21295991Y-14835376D01*
X21295991Y-14787756D01*
X21305515Y-14749661D01*
X21315039Y-14730614D01*
X21324563Y-14721090D01*
X21343610Y-14711566D01*
X21495991Y-14892518D02*
X21505515Y-14902042D01*
X21495991Y-14911566D01*
X21486468Y-14902042D01*
X21495991Y-14892518D01*
X21495991Y-14911566D01*
X21629325Y-14711566D02*
X21648372Y-14711566D01*
X21667420Y-14721090D01*
X21676944Y-14730614D01*
X21686468Y-14749661D01*
X21695991Y-14787756D01*
X21695991Y-14835376D01*
X21686468Y-14873471D01*
X21676944Y-14892518D01*
X21667420Y-14902042D01*
X21648372Y-14911566D01*
X21629325Y-14911566D01*
X21610277Y-14902042D01*
X21600753Y-14892518D01*
X21591230Y-14873471D01*
X21581706Y-14835376D01*
X21581706Y-14787756D01*
X21591230Y-14749661D01*
X21600753Y-14730614D01*
X21610277Y-14721090D01*
X21629325Y-14711566D01*
X21867420Y-14711566D02*
X21829325Y-14711566D01*
X21810277Y-14721090D01*
X21800753Y-14730614D01*
X21781706Y-14759185D01*
X21772182Y-14797280D01*
X21772182Y-14873471D01*
X21781706Y-14892518D01*
X21791230Y-14902042D01*
X21810277Y-14911566D01*
X21848372Y-14911566D01*
X21867420Y-14902042D01*
X21876944Y-14892518D01*
X21886468Y-14873471D01*
X21886468Y-14825852D01*
X21876944Y-14806804D01*
X21867420Y-14797280D01*
X21848372Y-14787756D01*
X21810277Y-14787756D01*
X21791230Y-14797280D01*
X21781706Y-14806804D01*
X21772182Y-14825852D01*
X21953134Y-14711566D02*
X22086468Y-14711566D01*
X22000753Y-14911566D01*
X22200753Y-14711566D02*
X22219801Y-14711566D01*
X22238849Y-14721090D01*
X22248372Y-14730614D01*
X22257896Y-14749661D01*
X22267420Y-14787756D01*
X22267420Y-14835376D01*
X22257896Y-14873471D01*
X22248372Y-14892518D01*
X22238849Y-14902042D01*
X22219801Y-14911566D01*
X22200753Y-14911566D01*
X22181706Y-14902042D01*
X22172182Y-14892518D01*
X22162658Y-14873471D01*
X22153134Y-14835376D01*
X22153134Y-14787756D01*
X22162658Y-14749661D01*
X22172182Y-14730614D01*
X22181706Y-14721090D01*
X22200753Y-14711566D01*
X22343610Y-14711566D02*
X22343610Y-14749661D01*
X22419801Y-14711566D02*
X22419801Y-14749661D01*
X22715039Y-14987756D02*
X22705515Y-14978233D01*
X22686468Y-14949661D01*
X22676944Y-14930614D01*
X22667420Y-14902042D01*
X22657896Y-14854423D01*
X22657896Y-14816328D01*
X22667420Y-14768709D01*
X22676944Y-14740137D01*
X22686468Y-14721090D01*
X22705515Y-14692518D01*
X22715039Y-14682995D01*
X22772182Y-14711566D02*
X22895991Y-14711566D01*
X22829325Y-14787756D01*
X22857896Y-14787756D01*
X22876944Y-14797280D01*
X22886468Y-14806804D01*
X22895991Y-14825852D01*
X22895991Y-14873471D01*
X22886468Y-14892518D01*
X22876944Y-14902042D01*
X22857896Y-14911566D01*
X22800753Y-14911566D01*
X22781706Y-14902042D01*
X22772182Y-14892518D01*
X23019801Y-14711566D02*
X23038848Y-14711566D01*
X23057896Y-14721090D01*
X23067420Y-14730614D01*
X23076944Y-14749661D01*
X23086468Y-14787756D01*
X23086468Y-14835376D01*
X23076944Y-14873471D01*
X23067420Y-14892518D01*
X23057896Y-14902042D01*
X23038848Y-14911566D01*
X23019801Y-14911566D01*
X23000753Y-14902042D01*
X22991229Y-14892518D01*
X22981706Y-14873471D01*
X22972182Y-14835376D01*
X22972182Y-14787756D01*
X22981706Y-14749661D01*
X22991229Y-14730614D01*
X23000753Y-14721090D01*
X23019801Y-14711566D01*
X23324563Y-14911566D02*
X23324563Y-14711566D01*
X23410277Y-14911566D02*
X23410277Y-14806804D01*
X23400753Y-14787756D01*
X23381706Y-14778233D01*
X23353134Y-14778233D01*
X23334087Y-14787756D01*
X23324563Y-14797280D01*
X23534087Y-14911566D02*
X23515039Y-14902042D01*
X23505515Y-14892518D01*
X23495991Y-14873471D01*
X23495991Y-14816328D01*
X23505515Y-14797280D01*
X23515039Y-14787756D01*
X23534087Y-14778233D01*
X23562658Y-14778233D01*
X23581706Y-14787756D01*
X23591229Y-14797280D01*
X23600753Y-14816328D01*
X23600753Y-14873471D01*
X23591229Y-14892518D01*
X23581706Y-14902042D01*
X23562658Y-14911566D01*
X23534087Y-14911566D01*
X23715039Y-14911566D02*
X23695991Y-14902042D01*
X23686468Y-14882995D01*
X23686468Y-14711566D01*
X23867420Y-14902042D02*
X23848372Y-14911566D01*
X23810277Y-14911566D01*
X23791229Y-14902042D01*
X23781706Y-14882995D01*
X23781706Y-14806804D01*
X23791229Y-14787756D01*
X23810277Y-14778233D01*
X23848372Y-14778233D01*
X23867420Y-14787756D01*
X23876944Y-14806804D01*
X23876944Y-14825852D01*
X23781706Y-14844899D01*
X23953134Y-14902042D02*
X23972182Y-14911566D01*
X24010277Y-14911566D01*
X24029325Y-14902042D01*
X24038848Y-14882995D01*
X24038848Y-14873471D01*
X24029325Y-14854423D01*
X24010277Y-14844899D01*
X23981706Y-14844899D01*
X23962658Y-14835376D01*
X23953134Y-14816328D01*
X23953134Y-14806804D01*
X23962658Y-14787756D01*
X23981706Y-14778233D01*
X24010277Y-14778233D01*
X24029325Y-14787756D01*
X24105515Y-14987756D02*
X24115039Y-14978233D01*
X24134087Y-14949661D01*
X24143610Y-14930614D01*
X24153134Y-14902042D01*
X24162658Y-14854423D01*
X24162658Y-14816328D01*
X24153134Y-14768709D01*
X24143610Y-14740137D01*
X24134087Y-14721090D01*
X24115039Y-14692518D01*
X24105515Y-14682995D01*
X24467420Y-14987756D02*
X24457896Y-14978233D01*
X24438848Y-14949661D01*
X24429325Y-14930614D01*
X24419801Y-14902042D01*
X24410277Y-14854423D01*
X24410277Y-14816328D01*
X24419801Y-14768709D01*
X24429325Y-14740137D01*
X24438848Y-14721090D01*
X24457896Y-14692518D01*
X24467420Y-14682995D01*
X24543610Y-14778233D02*
X24543610Y-14911566D01*
X24543610Y-14797280D02*
X24553134Y-14787756D01*
X24572182Y-14778233D01*
X24600753Y-14778233D01*
X24619801Y-14787756D01*
X24629325Y-14806804D01*
X24629325Y-14911566D01*
X24753134Y-14911566D02*
X24734087Y-14902042D01*
X24724563Y-14892518D01*
X24715039Y-14873471D01*
X24715039Y-14816328D01*
X24724563Y-14797280D01*
X24734087Y-14787756D01*
X24753134Y-14778233D01*
X24781706Y-14778233D01*
X24800753Y-14787756D01*
X24810277Y-14797280D01*
X24819801Y-14816328D01*
X24819801Y-14873471D01*
X24810277Y-14892518D01*
X24800753Y-14902042D01*
X24781706Y-14911566D01*
X24753134Y-14911566D01*
X24876944Y-14778233D02*
X24953134Y-14778233D01*
X24905515Y-14711566D02*
X24905515Y-14882995D01*
X24915039Y-14902042D01*
X24934087Y-14911566D01*
X24953134Y-14911566D01*
X25172182Y-14778233D02*
X25172182Y-14978233D01*
X25172182Y-14787756D02*
X25191229Y-14778233D01*
X25229325Y-14778233D01*
X25248372Y-14787756D01*
X25257896Y-14797280D01*
X25267420Y-14816328D01*
X25267420Y-14873471D01*
X25257896Y-14892518D01*
X25248372Y-14902042D01*
X25229325Y-14911566D01*
X25191229Y-14911566D01*
X25172182Y-14902042D01*
X25381706Y-14911566D02*
X25362658Y-14902042D01*
X25353134Y-14882995D01*
X25353134Y-14711566D01*
X25543610Y-14911566D02*
X25543610Y-14806804D01*
X25534087Y-14787756D01*
X25515039Y-14778233D01*
X25476944Y-14778233D01*
X25457896Y-14787756D01*
X25543610Y-14902042D02*
X25524563Y-14911566D01*
X25476944Y-14911566D01*
X25457896Y-14902042D01*
X25448372Y-14882995D01*
X25448372Y-14863947D01*
X25457896Y-14844899D01*
X25476944Y-14835376D01*
X25524563Y-14835376D01*
X25543610Y-14825852D01*
X25610277Y-14778233D02*
X25686468Y-14778233D01*
X25638848Y-14711566D02*
X25638848Y-14882995D01*
X25648372Y-14902042D01*
X25667420Y-14911566D01*
X25686468Y-14911566D01*
X25829325Y-14902042D02*
X25810277Y-14911566D01*
X25772182Y-14911566D01*
X25753134Y-14902042D01*
X25743610Y-14882995D01*
X25743610Y-14806804D01*
X25753134Y-14787756D01*
X25772182Y-14778233D01*
X25810277Y-14778233D01*
X25829325Y-14787756D01*
X25838848Y-14806804D01*
X25838848Y-14825852D01*
X25743610Y-14844899D01*
X26010277Y-14911566D02*
X26010277Y-14711566D01*
X26010277Y-14902042D02*
X25991229Y-14911566D01*
X25953134Y-14911566D01*
X25934087Y-14902042D01*
X25924563Y-14892518D01*
X25915039Y-14873471D01*
X25915039Y-14816328D01*
X25924563Y-14797280D01*
X25934087Y-14787756D01*
X25953134Y-14778233D01*
X25991229Y-14778233D01*
X26010277Y-14787756D01*
X26086468Y-14987756D02*
X26095991Y-14978233D01*
X26115039Y-14949661D01*
X26124563Y-14930614D01*
X26134087Y-14902042D01*
X26143610Y-14854423D01*
X26143610Y-14816328D01*
X26134087Y-14768709D01*
X26124563Y-14740137D01*
X26115039Y-14721090D01*
X26095991Y-14692518D01*
X26086468Y-14682995D01*
X19043134Y-15011270D02*
X19043134Y-15211270D01*
X18943134Y-15111270D02*
X19143134Y-15111270D01*
X19381706Y-15001746D02*
X19505515Y-15001746D01*
X19438849Y-15077936D01*
X19467420Y-15077936D01*
X19486468Y-15087460D01*
X19495991Y-15096984D01*
X19505515Y-15116032D01*
X19505515Y-15163651D01*
X19495991Y-15182698D01*
X19486468Y-15192222D01*
X19467420Y-15201746D01*
X19410277Y-15201746D01*
X19391230Y-15192222D01*
X19381706Y-15182698D01*
X19591230Y-15182698D02*
X19600753Y-15192222D01*
X19591230Y-15201746D01*
X19581706Y-15192222D01*
X19591230Y-15182698D01*
X19591230Y-15201746D01*
X19724563Y-15001746D02*
X19743610Y-15001746D01*
X19762658Y-15011270D01*
X19772182Y-15020794D01*
X19781706Y-15039841D01*
X19791230Y-15077936D01*
X19791230Y-15125556D01*
X19781706Y-15163651D01*
X19772182Y-15182698D01*
X19762658Y-15192222D01*
X19743610Y-15201746D01*
X19724563Y-15201746D01*
X19705515Y-15192222D01*
X19695991Y-15182698D01*
X19686468Y-15163651D01*
X19676944Y-15125556D01*
X19676944Y-15077936D01*
X19686468Y-15039841D01*
X19695991Y-15020794D01*
X19705515Y-15011270D01*
X19724563Y-15001746D01*
X19915039Y-15001746D02*
X19934087Y-15001746D01*
X19953134Y-15011270D01*
X19962658Y-15020794D01*
X19972182Y-15039841D01*
X19981706Y-15077936D01*
X19981706Y-15125556D01*
X19972182Y-15163651D01*
X19962658Y-15182698D01*
X19953134Y-15192222D01*
X19934087Y-15201746D01*
X19915039Y-15201746D01*
X19895991Y-15192222D01*
X19886468Y-15182698D01*
X19876944Y-15163651D01*
X19867420Y-15125556D01*
X19867420Y-15077936D01*
X19876944Y-15039841D01*
X19886468Y-15020794D01*
X19895991Y-15011270D01*
X19915039Y-15001746D01*
X20105515Y-15001746D02*
X20124563Y-15001746D01*
X20143610Y-15011270D01*
X20153134Y-15020794D01*
X20162658Y-15039841D01*
X20172182Y-15077936D01*
X20172182Y-15125556D01*
X20162658Y-15163651D01*
X20153134Y-15182698D01*
X20143610Y-15192222D01*
X20124563Y-15201746D01*
X20105515Y-15201746D01*
X20086468Y-15192222D01*
X20076944Y-15182698D01*
X20067420Y-15163651D01*
X20057896Y-15125556D01*
X20057896Y-15077936D01*
X20067420Y-15039841D01*
X20076944Y-15020794D01*
X20086468Y-15011270D01*
X20105515Y-15001746D01*
X20257896Y-15201746D02*
X20257896Y-15068413D01*
X20257896Y-15087460D02*
X20267420Y-15077936D01*
X20286468Y-15068413D01*
X20315039Y-15068413D01*
X20334087Y-15077936D01*
X20343610Y-15096984D01*
X20343610Y-15201746D01*
X20343610Y-15096984D02*
X20353134Y-15077936D01*
X20372182Y-15068413D01*
X20400753Y-15068413D01*
X20419801Y-15077936D01*
X20429325Y-15096984D01*
X20429325Y-15201746D01*
X20524563Y-15201746D02*
X20524563Y-15068413D01*
X20524563Y-15087460D02*
X20534087Y-15077936D01*
X20553134Y-15068413D01*
X20581706Y-15068413D01*
X20600753Y-15077936D01*
X20610277Y-15096984D01*
X20610277Y-15201746D01*
X20610277Y-15096984D02*
X20619801Y-15077936D01*
X20638849Y-15068413D01*
X20667420Y-15068413D01*
X20686468Y-15077936D01*
X20695991Y-15096984D01*
X20695991Y-15201746D01*
X21086468Y-14992222D02*
X20915039Y-15249365D01*
X21343610Y-15001746D02*
X21362658Y-15001746D01*
X21381706Y-15011270D01*
X21391230Y-15020794D01*
X21400753Y-15039841D01*
X21410277Y-15077936D01*
X21410277Y-15125556D01*
X21400753Y-15163651D01*
X21391230Y-15182698D01*
X21381706Y-15192222D01*
X21362658Y-15201746D01*
X21343610Y-15201746D01*
X21324563Y-15192222D01*
X21315039Y-15182698D01*
X21305515Y-15163651D01*
X21295991Y-15125556D01*
X21295991Y-15077936D01*
X21305515Y-15039841D01*
X21315039Y-15020794D01*
X21324563Y-15011270D01*
X21343610Y-15001746D01*
X21495991Y-15182698D02*
X21505515Y-15192222D01*
X21495991Y-15201746D01*
X21486468Y-15192222D01*
X21495991Y-15182698D01*
X21495991Y-15201746D01*
X21695991Y-15201746D02*
X21581706Y-15201746D01*
X21638849Y-15201746D02*
X21638849Y-15001746D01*
X21619801Y-15030317D01*
X21600753Y-15049365D01*
X21581706Y-15058889D01*
X21886468Y-15201746D02*
X21772182Y-15201746D01*
X21829325Y-15201746D02*
X21829325Y-15001746D01*
X21810277Y-15030317D01*
X21791230Y-15049365D01*
X21772182Y-15058889D01*
X22000753Y-15087460D02*
X21981706Y-15077936D01*
X21972182Y-15068413D01*
X21962658Y-15049365D01*
X21962658Y-15039841D01*
X21972182Y-15020794D01*
X21981706Y-15011270D01*
X22000753Y-15001746D01*
X22038849Y-15001746D01*
X22057896Y-15011270D01*
X22067420Y-15020794D01*
X22076944Y-15039841D01*
X22076944Y-15049365D01*
X22067420Y-15068413D01*
X22057896Y-15077936D01*
X22038849Y-15087460D01*
X22000753Y-15087460D01*
X21981706Y-15096984D01*
X21972182Y-15106508D01*
X21962658Y-15125556D01*
X21962658Y-15163651D01*
X21972182Y-15182698D01*
X21981706Y-15192222D01*
X22000753Y-15201746D01*
X22038849Y-15201746D01*
X22057896Y-15192222D01*
X22067420Y-15182698D01*
X22076944Y-15163651D01*
X22076944Y-15125556D01*
X22067420Y-15106508D01*
X22057896Y-15096984D01*
X22038849Y-15087460D01*
X22267420Y-15201746D02*
X22153134Y-15201746D01*
X22210277Y-15201746D02*
X22210277Y-15001746D01*
X22191230Y-15030317D01*
X22172182Y-15049365D01*
X22153134Y-15058889D01*
X22343610Y-15001746D02*
X22343610Y-15039841D01*
X22419801Y-15001746D02*
X22419801Y-15039841D01*
X22715039Y-15277936D02*
X22705515Y-15268413D01*
X22686468Y-15239841D01*
X22676944Y-15220794D01*
X22667420Y-15192222D01*
X22657896Y-15144603D01*
X22657896Y-15106508D01*
X22667420Y-15058889D01*
X22676944Y-15030317D01*
X22686468Y-15011270D01*
X22705515Y-14982698D01*
X22715039Y-14973175D01*
X22876944Y-15068413D02*
X22876944Y-15201746D01*
X22829325Y-14992222D02*
X22781706Y-15135079D01*
X22905515Y-15135079D01*
X23076944Y-15001746D02*
X22981706Y-15001746D01*
X22972182Y-15096984D01*
X22981706Y-15087460D01*
X23000753Y-15077936D01*
X23048372Y-15077936D01*
X23067420Y-15087460D01*
X23076944Y-15096984D01*
X23086468Y-15116032D01*
X23086468Y-15163651D01*
X23076944Y-15182698D01*
X23067420Y-15192222D01*
X23048372Y-15201746D01*
X23000753Y-15201746D01*
X22981706Y-15192222D01*
X22972182Y-15182698D01*
X23324563Y-15201746D02*
X23324563Y-15001746D01*
X23410277Y-15201746D02*
X23410277Y-15096984D01*
X23400753Y-15077936D01*
X23381706Y-15068413D01*
X23353134Y-15068413D01*
X23334087Y-15077936D01*
X23324563Y-15087460D01*
X23534087Y-15201746D02*
X23515039Y-15192222D01*
X23505515Y-15182698D01*
X23495991Y-15163651D01*
X23495991Y-15106508D01*
X23505515Y-15087460D01*
X23515039Y-15077936D01*
X23534087Y-15068413D01*
X23562658Y-15068413D01*
X23581706Y-15077936D01*
X23591229Y-15087460D01*
X23600753Y-15106508D01*
X23600753Y-15163651D01*
X23591229Y-15182698D01*
X23581706Y-15192222D01*
X23562658Y-15201746D01*
X23534087Y-15201746D01*
X23715039Y-15201746D02*
X23695991Y-15192222D01*
X23686468Y-15173175D01*
X23686468Y-15001746D01*
X23867420Y-15192222D02*
X23848372Y-15201746D01*
X23810277Y-15201746D01*
X23791229Y-15192222D01*
X23781706Y-15173175D01*
X23781706Y-15096984D01*
X23791229Y-15077936D01*
X23810277Y-15068413D01*
X23848372Y-15068413D01*
X23867420Y-15077936D01*
X23876944Y-15096984D01*
X23876944Y-15116032D01*
X23781706Y-15135079D01*
X23953134Y-15192222D02*
X23972182Y-15201746D01*
X24010277Y-15201746D01*
X24029325Y-15192222D01*
X24038848Y-15173175D01*
X24038848Y-15163651D01*
X24029325Y-15144603D01*
X24010277Y-15135079D01*
X23981706Y-15135079D01*
X23962658Y-15125556D01*
X23953134Y-15106508D01*
X23953134Y-15096984D01*
X23962658Y-15077936D01*
X23981706Y-15068413D01*
X24010277Y-15068413D01*
X24029325Y-15077936D01*
X24105515Y-15277936D02*
X24115039Y-15268413D01*
X24134087Y-15239841D01*
X24143610Y-15220794D01*
X24153134Y-15192222D01*
X24162658Y-15144603D01*
X24162658Y-15106508D01*
X24153134Y-15058889D01*
X24143610Y-15030317D01*
X24134087Y-15011270D01*
X24115039Y-14982698D01*
X24105515Y-14973175D01*
X24467420Y-15277936D02*
X24457896Y-15268413D01*
X24438848Y-15239841D01*
X24429325Y-15220794D01*
X24419801Y-15192222D01*
X24410277Y-15144603D01*
X24410277Y-15106508D01*
X24419801Y-15058889D01*
X24429325Y-15030317D01*
X24438848Y-15011270D01*
X24457896Y-14982698D01*
X24467420Y-14973175D01*
X24543610Y-15068413D02*
X24543610Y-15201746D01*
X24543610Y-15087460D02*
X24553134Y-15077936D01*
X24572182Y-15068413D01*
X24600753Y-15068413D01*
X24619801Y-15077936D01*
X24629325Y-15096984D01*
X24629325Y-15201746D01*
X24753134Y-15201746D02*
X24734087Y-15192222D01*
X24724563Y-15182698D01*
X24715039Y-15163651D01*
X24715039Y-15106508D01*
X24724563Y-15087460D01*
X24734087Y-15077936D01*
X24753134Y-15068413D01*
X24781706Y-15068413D01*
X24800753Y-15077936D01*
X24810277Y-15087460D01*
X24819801Y-15106508D01*
X24819801Y-15163651D01*
X24810277Y-15182698D01*
X24800753Y-15192222D01*
X24781706Y-15201746D01*
X24753134Y-15201746D01*
X24876944Y-15068413D02*
X24953134Y-15068413D01*
X24905515Y-15001746D02*
X24905515Y-15173175D01*
X24915039Y-15192222D01*
X24934087Y-15201746D01*
X24953134Y-15201746D01*
X25172182Y-15068413D02*
X25172182Y-15268413D01*
X25172182Y-15077936D02*
X25191229Y-15068413D01*
X25229325Y-15068413D01*
X25248372Y-15077936D01*
X25257896Y-15087460D01*
X25267420Y-15106508D01*
X25267420Y-15163651D01*
X25257896Y-15182698D01*
X25248372Y-15192222D01*
X25229325Y-15201746D01*
X25191229Y-15201746D01*
X25172182Y-15192222D01*
X25381706Y-15201746D02*
X25362658Y-15192222D01*
X25353134Y-15173175D01*
X25353134Y-15001746D01*
X25543610Y-15201746D02*
X25543610Y-15096984D01*
X25534087Y-15077936D01*
X25515039Y-15068413D01*
X25476944Y-15068413D01*
X25457896Y-15077936D01*
X25543610Y-15192222D02*
X25524563Y-15201746D01*
X25476944Y-15201746D01*
X25457896Y-15192222D01*
X25448372Y-15173175D01*
X25448372Y-15154127D01*
X25457896Y-15135079D01*
X25476944Y-15125556D01*
X25524563Y-15125556D01*
X25543610Y-15116032D01*
X25610277Y-15068413D02*
X25686468Y-15068413D01*
X25638848Y-15001746D02*
X25638848Y-15173175D01*
X25648372Y-15192222D01*
X25667420Y-15201746D01*
X25686468Y-15201746D01*
X25829325Y-15192222D02*
X25810277Y-15201746D01*
X25772182Y-15201746D01*
X25753134Y-15192222D01*
X25743610Y-15173175D01*
X25743610Y-15096984D01*
X25753134Y-15077936D01*
X25772182Y-15068413D01*
X25810277Y-15068413D01*
X25829325Y-15077936D01*
X25838848Y-15096984D01*
X25838848Y-15116032D01*
X25743610Y-15135079D01*
X26010277Y-15201746D02*
X26010277Y-15001746D01*
X26010277Y-15192222D02*
X25991229Y-15201746D01*
X25953134Y-15201746D01*
X25934087Y-15192222D01*
X25924563Y-15182698D01*
X25915039Y-15163651D01*
X25915039Y-15106508D01*
X25924563Y-15087460D01*
X25934087Y-15077936D01*
X25953134Y-15068413D01*
X25991229Y-15068413D01*
X26010277Y-15077936D01*
X26086468Y-15277936D02*
X26095991Y-15268413D01*
X26115039Y-15239841D01*
X26124563Y-15220794D01*
X26134087Y-15192222D01*
X26143610Y-15144603D01*
X26143610Y-15106508D01*
X26134087Y-15058889D01*
X26124563Y-15030317D01*
X26115039Y-15011270D01*
X26095991Y-14982698D01*
X26086468Y-14973175D01*
X19113846Y-15501981D02*
X19113846Y-15360558D01*
X18972423Y-15360558D01*
X18972423Y-15501981D01*
X19113846Y-15501981D01*
X19381706Y-15321746D02*
X19505515Y-15321746D01*
X19438849Y-15397936D01*
X19467420Y-15397936D01*
X19486468Y-15407460D01*
X19495991Y-15416984D01*
X19505515Y-15436032D01*
X19505515Y-15483651D01*
X19495991Y-15502698D01*
X19486468Y-15512222D01*
X19467420Y-15521746D01*
X19410277Y-15521746D01*
X19391230Y-15512222D01*
X19381706Y-15502698D01*
X19591230Y-15502698D02*
X19600753Y-15512222D01*
X19591230Y-15521746D01*
X19581706Y-15512222D01*
X19591230Y-15502698D01*
X19591230Y-15521746D01*
X19772182Y-15388413D02*
X19772182Y-15521746D01*
X19724563Y-15312222D02*
X19676944Y-15455079D01*
X19800753Y-15455079D01*
X19867420Y-15340794D02*
X19876944Y-15331270D01*
X19895991Y-15321746D01*
X19943610Y-15321746D01*
X19962658Y-15331270D01*
X19972182Y-15340794D01*
X19981706Y-15359841D01*
X19981706Y-15378889D01*
X19972182Y-15407460D01*
X19857896Y-15521746D01*
X19981706Y-15521746D01*
X20076944Y-15521746D02*
X20115039Y-15521746D01*
X20134087Y-15512222D01*
X20143610Y-15502698D01*
X20162658Y-15474127D01*
X20172182Y-15436032D01*
X20172182Y-15359841D01*
X20162658Y-15340794D01*
X20153134Y-15331270D01*
X20134087Y-15321746D01*
X20095991Y-15321746D01*
X20076944Y-15331270D01*
X20067420Y-15340794D01*
X20057896Y-15359841D01*
X20057896Y-15407460D01*
X20067420Y-15426508D01*
X20076944Y-15436032D01*
X20095991Y-15445556D01*
X20134087Y-15445556D01*
X20153134Y-15436032D01*
X20162658Y-15426508D01*
X20172182Y-15407460D01*
X20257896Y-15521746D02*
X20257896Y-15388413D01*
X20257896Y-15407460D02*
X20267420Y-15397936D01*
X20286468Y-15388413D01*
X20315039Y-15388413D01*
X20334087Y-15397936D01*
X20343610Y-15416984D01*
X20343610Y-15521746D01*
X20343610Y-15416984D02*
X20353134Y-15397936D01*
X20372182Y-15388413D01*
X20400753Y-15388413D01*
X20419801Y-15397936D01*
X20429325Y-15416984D01*
X20429325Y-15521746D01*
X20524563Y-15521746D02*
X20524563Y-15388413D01*
X20524563Y-15407460D02*
X20534087Y-15397936D01*
X20553134Y-15388413D01*
X20581706Y-15388413D01*
X20600753Y-15397936D01*
X20610277Y-15416984D01*
X20610277Y-15521746D01*
X20610277Y-15416984D02*
X20619801Y-15397936D01*
X20638849Y-15388413D01*
X20667420Y-15388413D01*
X20686468Y-15397936D01*
X20695991Y-15416984D01*
X20695991Y-15521746D01*
X21086468Y-15312222D02*
X20915039Y-15569365D01*
X21343610Y-15321746D02*
X21362658Y-15321746D01*
X21381706Y-15331270D01*
X21391230Y-15340794D01*
X21400753Y-15359841D01*
X21410277Y-15397936D01*
X21410277Y-15445556D01*
X21400753Y-15483651D01*
X21391230Y-15502698D01*
X21381706Y-15512222D01*
X21362658Y-15521746D01*
X21343610Y-15521746D01*
X21324563Y-15512222D01*
X21315039Y-15502698D01*
X21305515Y-15483651D01*
X21295991Y-15445556D01*
X21295991Y-15397936D01*
X21305515Y-15359841D01*
X21315039Y-15340794D01*
X21324563Y-15331270D01*
X21343610Y-15321746D01*
X21495991Y-15502698D02*
X21505515Y-15512222D01*
X21495991Y-15521746D01*
X21486468Y-15512222D01*
X21495991Y-15502698D01*
X21495991Y-15521746D01*
X21695991Y-15521746D02*
X21581706Y-15521746D01*
X21638849Y-15521746D02*
X21638849Y-15321746D01*
X21619801Y-15350317D01*
X21600753Y-15369365D01*
X21581706Y-15378889D01*
X21762658Y-15321746D02*
X21886468Y-15321746D01*
X21819801Y-15397936D01*
X21848372Y-15397936D01*
X21867420Y-15407460D01*
X21876944Y-15416984D01*
X21886468Y-15436032D01*
X21886468Y-15483651D01*
X21876944Y-15502698D01*
X21867420Y-15512222D01*
X21848372Y-15521746D01*
X21791230Y-15521746D01*
X21772182Y-15512222D01*
X21762658Y-15502698D01*
X22067420Y-15321746D02*
X21972182Y-15321746D01*
X21962658Y-15416984D01*
X21972182Y-15407460D01*
X21991230Y-15397936D01*
X22038849Y-15397936D01*
X22057896Y-15407460D01*
X22067420Y-15416984D01*
X22076944Y-15436032D01*
X22076944Y-15483651D01*
X22067420Y-15502698D01*
X22057896Y-15512222D01*
X22038849Y-15521746D01*
X21991230Y-15521746D01*
X21972182Y-15512222D01*
X21962658Y-15502698D01*
X22200753Y-15321746D02*
X22219801Y-15321746D01*
X22238849Y-15331270D01*
X22248372Y-15340794D01*
X22257896Y-15359841D01*
X22267420Y-15397936D01*
X22267420Y-15445556D01*
X22257896Y-15483651D01*
X22248372Y-15502698D01*
X22238849Y-15512222D01*
X22219801Y-15521746D01*
X22200753Y-15521746D01*
X22181706Y-15512222D01*
X22172182Y-15502698D01*
X22162658Y-15483651D01*
X22153134Y-15445556D01*
X22153134Y-15397936D01*
X22162658Y-15359841D01*
X22172182Y-15340794D01*
X22181706Y-15331270D01*
X22200753Y-15321746D01*
X22343610Y-15321746D02*
X22343610Y-15359841D01*
X22419801Y-15321746D02*
X22419801Y-15359841D01*
X22715039Y-15597936D02*
X22705515Y-15588413D01*
X22686468Y-15559841D01*
X22676944Y-15540794D01*
X22667420Y-15512222D01*
X22657896Y-15464603D01*
X22657896Y-15426508D01*
X22667420Y-15378889D01*
X22676944Y-15350317D01*
X22686468Y-15331270D01*
X22705515Y-15302698D01*
X22715039Y-15293175D01*
X22895991Y-15521746D02*
X22781706Y-15521746D01*
X22838848Y-15521746D02*
X22838848Y-15321746D01*
X22819801Y-15350317D01*
X22800753Y-15369365D01*
X22781706Y-15378889D01*
X23076944Y-15321746D02*
X22981706Y-15321746D01*
X22972182Y-15416984D01*
X22981706Y-15407460D01*
X23000753Y-15397936D01*
X23048372Y-15397936D01*
X23067420Y-15407460D01*
X23076944Y-15416984D01*
X23086468Y-15436032D01*
X23086468Y-15483651D01*
X23076944Y-15502698D01*
X23067420Y-15512222D01*
X23048372Y-15521746D01*
X23000753Y-15521746D01*
X22981706Y-15512222D01*
X22972182Y-15502698D01*
X23324563Y-15521746D02*
X23324563Y-15321746D01*
X23410277Y-15521746D02*
X23410277Y-15416984D01*
X23400753Y-15397936D01*
X23381706Y-15388413D01*
X23353134Y-15388413D01*
X23334087Y-15397936D01*
X23324563Y-15407460D01*
X23534087Y-15521746D02*
X23515039Y-15512222D01*
X23505515Y-15502698D01*
X23495991Y-15483651D01*
X23495991Y-15426508D01*
X23505515Y-15407460D01*
X23515039Y-15397936D01*
X23534087Y-15388413D01*
X23562658Y-15388413D01*
X23581706Y-15397936D01*
X23591229Y-15407460D01*
X23600753Y-15426508D01*
X23600753Y-15483651D01*
X23591229Y-15502698D01*
X23581706Y-15512222D01*
X23562658Y-15521746D01*
X23534087Y-15521746D01*
X23715039Y-15521746D02*
X23695991Y-15512222D01*
X23686468Y-15493175D01*
X23686468Y-15321746D01*
X23867420Y-15512222D02*
X23848372Y-15521746D01*
X23810277Y-15521746D01*
X23791229Y-15512222D01*
X23781706Y-15493175D01*
X23781706Y-15416984D01*
X23791229Y-15397936D01*
X23810277Y-15388413D01*
X23848372Y-15388413D01*
X23867420Y-15397936D01*
X23876944Y-15416984D01*
X23876944Y-15436032D01*
X23781706Y-15455079D01*
X23953134Y-15512222D02*
X23972182Y-15521746D01*
X24010277Y-15521746D01*
X24029325Y-15512222D01*
X24038848Y-15493175D01*
X24038848Y-15483651D01*
X24029325Y-15464603D01*
X24010277Y-15455079D01*
X23981706Y-15455079D01*
X23962658Y-15445556D01*
X23953134Y-15426508D01*
X23953134Y-15416984D01*
X23962658Y-15397936D01*
X23981706Y-15388413D01*
X24010277Y-15388413D01*
X24029325Y-15397936D01*
X24105515Y-15597936D02*
X24115039Y-15588413D01*
X24134087Y-15559841D01*
X24143610Y-15540794D01*
X24153134Y-15512222D01*
X24162658Y-15464603D01*
X24162658Y-15426508D01*
X24153134Y-15378889D01*
X24143610Y-15350317D01*
X24134087Y-15331270D01*
X24115039Y-15302698D01*
X24105515Y-15293175D01*
X24467420Y-15597936D02*
X24457896Y-15588413D01*
X24438848Y-15559841D01*
X24429325Y-15540794D01*
X24419801Y-15512222D01*
X24410277Y-15464603D01*
X24410277Y-15426508D01*
X24419801Y-15378889D01*
X24429325Y-15350317D01*
X24438848Y-15331270D01*
X24457896Y-15302698D01*
X24467420Y-15293175D01*
X24543610Y-15388413D02*
X24543610Y-15521746D01*
X24543610Y-15407460D02*
X24553134Y-15397936D01*
X24572182Y-15388413D01*
X24600753Y-15388413D01*
X24619801Y-15397936D01*
X24629325Y-15416984D01*
X24629325Y-15521746D01*
X24753134Y-15521746D02*
X24734087Y-15512222D01*
X24724563Y-15502698D01*
X24715039Y-15483651D01*
X24715039Y-15426508D01*
X24724563Y-15407460D01*
X24734087Y-15397936D01*
X24753134Y-15388413D01*
X24781706Y-15388413D01*
X24800753Y-15397936D01*
X24810277Y-15407460D01*
X24819801Y-15426508D01*
X24819801Y-15483651D01*
X24810277Y-15502698D01*
X24800753Y-15512222D01*
X24781706Y-15521746D01*
X24753134Y-15521746D01*
X24876944Y-15388413D02*
X24953134Y-15388413D01*
X24905515Y-15321746D02*
X24905515Y-15493175D01*
X24915039Y-15512222D01*
X24934087Y-15521746D01*
X24953134Y-15521746D01*
X25172182Y-15388413D02*
X25172182Y-15588413D01*
X25172182Y-15397936D02*
X25191229Y-15388413D01*
X25229325Y-15388413D01*
X25248372Y-15397936D01*
X25257896Y-15407460D01*
X25267420Y-15426508D01*
X25267420Y-15483651D01*
X25257896Y-15502698D01*
X25248372Y-15512222D01*
X25229325Y-15521746D01*
X25191229Y-15521746D01*
X25172182Y-15512222D01*
X25381706Y-15521746D02*
X25362658Y-15512222D01*
X25353134Y-15493175D01*
X25353134Y-15321746D01*
X25543610Y-15521746D02*
X25543610Y-15416984D01*
X25534087Y-15397936D01*
X25515039Y-15388413D01*
X25476944Y-15388413D01*
X25457896Y-15397936D01*
X25543610Y-15512222D02*
X25524563Y-15521746D01*
X25476944Y-15521746D01*
X25457896Y-15512222D01*
X25448372Y-15493175D01*
X25448372Y-15474127D01*
X25457896Y-15455079D01*
X25476944Y-15445556D01*
X25524563Y-15445556D01*
X25543610Y-15436032D01*
X25610277Y-15388413D02*
X25686468Y-15388413D01*
X25638848Y-15321746D02*
X25638848Y-15493175D01*
X25648372Y-15512222D01*
X25667420Y-15521746D01*
X25686468Y-15521746D01*
X25829325Y-15512222D02*
X25810277Y-15521746D01*
X25772182Y-15521746D01*
X25753134Y-15512222D01*
X25743610Y-15493175D01*
X25743610Y-15416984D01*
X25753134Y-15397936D01*
X25772182Y-15388413D01*
X25810277Y-15388413D01*
X25829325Y-15397936D01*
X25838848Y-15416984D01*
X25838848Y-15436032D01*
X25743610Y-15455079D01*
X26010277Y-15521746D02*
X26010277Y-15321746D01*
X26010277Y-15512222D02*
X25991229Y-15521746D01*
X25953134Y-15521746D01*
X25934087Y-15512222D01*
X25924563Y-15502698D01*
X25915039Y-15483651D01*
X25915039Y-15426508D01*
X25924563Y-15407460D01*
X25934087Y-15397936D01*
X25953134Y-15388413D01*
X25991229Y-15388413D01*
X26010277Y-15397936D01*
X26086468Y-15597936D02*
X26095991Y-15588413D01*
X26115039Y-15559841D01*
X26124563Y-15540794D01*
X26134087Y-15512222D01*
X26143610Y-15464603D01*
X26143610Y-15426508D01*
X26134087Y-15378889D01*
X26124563Y-15350317D01*
X26115039Y-15331270D01*
X26095991Y-15302698D01*
X26086468Y-15293175D01*
M02*
