M48
; DRILL file {KiCad (6.0.4)} date Thu Jul  7 20:03:23 2022
; FORMAT={-:-/ absolute / metric / decimal}
; #@! TF.CreationDate,2022-07-07T20:03:23+02:00
; #@! TF.GenerationSoftware,Kicad,Pcbnew,(6.0.4)
; #@! TF.FileFunction,NonPlated,1,2,NPTH
FMAT,2
METRIC
; #@! TA.AperFunction,NonPlated,NPTH,ComponentDrill
T1C0.900
; #@! TA.AperFunction,NonPlated,NPTH,ComponentDrill
T2C1.702
; #@! TA.AperFunction,NonPlated,NPTH,ComponentDrill
T3C3.000
; #@! TA.AperFunction,NonPlated,NPTH,ComponentDrill
T4C3.429
%
G90
G05
T1
X195.022Y-62.566
X195.022Y-65.566
T2
X197.485Y-95.125
X202.017Y-109.948
X208.004Y-91.909
X212.536Y-106.732
X216.271Y-75.046
X218.963Y-90.311
X221.654Y-105.575
X227.104Y-73.136
X229.796Y-88.401
X232.487Y-103.665
X236.893Y-67.271
X238.244Y-82.712
X239.595Y-98.153
X247.851Y-66.313
X249.202Y-81.754
X250.553Y-97.195
X259.362Y-73.082
X259.362Y-88.582
X259.362Y-104.082
X265.031Y-124.99
X270.362Y-73.082
X270.362Y-88.582
X270.362Y-104.082
X276.031Y-124.99
X277.462Y-80.832
X277.462Y-96.332
X283.105Y-127.969
X288.462Y-80.832
X288.462Y-96.332
X294.105Y-127.969
T3
X196.867Y-91.393
X201.005Y-87.827
X201.398Y-106.216
X205.537Y-102.65
X206.43Y-88.469
X210.961Y-103.292
X216.113Y-71.266
X218.804Y-86.531
X220.655Y-68.231
X221.496Y-101.795
X223.346Y-83.496
X225.961Y-69.53
X226.038Y-98.761
X228.652Y-84.794
X231.344Y-100.059
X237.064Y-63.492
X238.415Y-78.933
X239.766Y-94.374
X241.854Y-60.865
X243.205Y-76.306
X244.555Y-91.747
X247.026Y-62.621
X248.377Y-78.062
X249.728Y-93.503
X259.862Y-69.332
X259.862Y-84.832
X259.862Y-100.332
X264.862Y-67.132
X264.862Y-82.632
X264.862Y-98.132
X265.531Y-121.24
X269.862Y-69.332
X269.862Y-84.832
X269.862Y-100.332
X270.531Y-119.04
X275.531Y-121.24
X277.962Y-77.082
X277.962Y-92.582
X282.962Y-74.882
X282.962Y-90.382
X283.605Y-124.219
X287.962Y-77.082
X287.962Y-92.582
X288.605Y-122.019
X293.605Y-124.219
T4
X202.744Y-93.517
X207.276Y-108.34
X221.688Y-74.091
X224.379Y-89.356
X227.071Y-104.62
X242.372Y-66.792
X243.723Y-82.233
X245.074Y-97.674
X264.862Y-73.082
X264.862Y-88.582
X264.862Y-104.082
X270.531Y-124.99
X282.962Y-80.832
X282.962Y-96.332
X288.605Y-127.969
T0
M30
