%TF.GenerationSoftware,KiCad,Pcbnew,(6.0.4)*%
%TF.CreationDate,2022-05-26T06:06:50+02:00*%
%TF.ProjectId,batta,62617474-612e-46b6-9963-61645f706362,v1.0.0*%
%TF.SameCoordinates,Original*%
%TF.FileFunction,Soldermask,Top*%
%TF.FilePolarity,Negative*%
%FSLAX46Y46*%
G04 Gerber Fmt 4.6, Leading zero omitted, Abs format (unit mm)*
G04 Created by KiCad (PCBNEW (6.0.4)) date 2022-05-26 06:06:50*
%MOMM*%
%LPD*%
G01*
G04 APERTURE LIST*
G04 Aperture macros list*
%AMRoundRect*
0 Rectangle with rounded corners*
0 $1 Rounding radius*
0 $2 $3 $4 $5 $6 $7 $8 $9 X,Y pos of 4 corners*
0 Add a 4 corners polygon primitive as box body*
4,1,4,$2,$3,$4,$5,$6,$7,$8,$9,$2,$3,0*
0 Add four circle primitives for the rounded corners*
1,1,$1+$1,$2,$3*
1,1,$1+$1,$4,$5*
1,1,$1+$1,$6,$7*
1,1,$1+$1,$8,$9*
0 Add four rect primitives between the rounded corners*
20,1,$1+$1,$2,$3,$4,$5,0*
20,1,$1+$1,$4,$5,$6,$7,0*
20,1,$1+$1,$6,$7,$8,$9,0*
20,1,$1+$1,$8,$9,$2,$3,0*%
%AMFreePoly0*
4,1,16,0.635355,0.285355,0.650000,0.250000,0.650000,-1.000000,0.635355,-1.035355,0.600000,-1.050000,0.564645,-1.035355,0.000000,-0.470710,-0.564645,-1.035355,-0.600000,-1.050000,-0.635355,-1.035355,-0.650000,-1.000000,-0.650000,0.250000,-0.635355,0.285355,-0.600000,0.300000,0.600000,0.300000,0.635355,0.285355,0.635355,0.285355,$1*%
%AMFreePoly1*
4,1,14,0.035355,0.435355,0.635355,-0.164645,0.650000,-0.200000,0.650000,-0.400000,0.635355,-0.435355,0.600000,-0.450000,-0.600000,-0.450000,-0.635355,-0.435355,-0.650000,-0.400000,-0.650000,-0.200000,-0.635355,-0.164645,-0.035355,0.435355,0.000000,0.450000,0.035355,0.435355,0.035355,0.435355,$1*%
G04 Aperture macros list end*
%ADD10C,0.100000*%
%ADD11C,0.250000*%
%ADD12C,2.132000*%
%ADD13RoundRect,0.050000X-0.863113X-1.623279X1.623279X-0.863113X0.863113X1.623279X-1.623279X0.863113X0*%
%ADD14C,3.100000*%
%ADD15C,3.529000*%
%ADD16C,1.801800*%
%ADD17FreePoly0,270.000000*%
%ADD18FreePoly0,90.000000*%
%ADD19C,1.700000*%
%ADD20FreePoly1,270.000000*%
%ADD21FreePoly1,90.000000*%
%ADD22RoundRect,0.050000X-1.300000X-1.300000X1.300000X-1.300000X1.300000X1.300000X-1.300000X1.300000X0*%
%ADD23RoundRect,0.050000X-1.054507X-1.505993X1.505993X-1.054507X1.054507X1.505993X-1.505993X1.054507X0*%
%ADD24RoundRect,0.050000X-1.181751X-1.408356X1.408356X-1.181751X1.181751X1.408356X-1.408356X1.181751X0*%
%ADD25RoundRect,0.050000X-1.387517X-1.206150X1.206150X-1.387517X1.387517X1.206150X-1.206150X1.387517X0*%
%ADD26RoundRect,0.050000X-1.652413X-0.805936X0.805936X-1.652413X1.652413X0.805936X-0.805936X1.652413X0*%
%ADD27RoundRect,0.050000X-0.450000X0.450000X-0.450000X-0.450000X0.450000X-0.450000X0.450000X0.450000X0*%
%ADD28RoundRect,0.050000X-0.625000X0.450000X-0.625000X-0.450000X0.625000X-0.450000X0.625000X0.450000X0*%
%ADD29RoundRect,0.425000X-0.375000X-0.750000X0.375000X-0.750000X0.375000X0.750000X-0.375000X0.750000X0*%
%ADD30C,2.100000*%
%ADD31C,1.100000*%
%ADD32C,4.500000*%
G04 APERTURE END LIST*
%TO.C,*%
G36*
X44704000Y101600000D02*
G01*
X43688000Y101600000D01*
X43688000Y102616000D01*
X44704000Y102616000D01*
X44704000Y101600000D01*
G37*
D10*
X44704000Y101600000D02*
X43688000Y101600000D01*
X43688000Y102616000D01*
X44704000Y102616000D01*
X44704000Y101600000D01*
G36*
X44704000Y106680000D02*
G01*
X43688000Y106680000D01*
X43688000Y107696000D01*
X44704000Y107696000D01*
X44704000Y106680000D01*
G37*
X44704000Y106680000D02*
X43688000Y106680000D01*
X43688000Y107696000D01*
X44704000Y107696000D01*
X44704000Y106680000D01*
G36*
X33528000Y119380000D02*
G01*
X32512000Y119380000D01*
X32512000Y120396000D01*
X33528000Y120396000D01*
X33528000Y119380000D01*
G37*
X33528000Y119380000D02*
X32512000Y119380000D01*
X32512000Y120396000D01*
X33528000Y120396000D01*
X33528000Y119380000D01*
G36*
X44704000Y119380000D02*
G01*
X43688000Y119380000D01*
X43688000Y120396000D01*
X44704000Y120396000D01*
X44704000Y119380000D01*
G37*
X44704000Y119380000D02*
X43688000Y119380000D01*
X43688000Y120396000D01*
X44704000Y120396000D01*
X44704000Y119380000D01*
G36*
X33528000Y111760000D02*
G01*
X32512000Y111760000D01*
X32512000Y112776000D01*
X33528000Y112776000D01*
X33528000Y111760000D01*
G37*
X33528000Y111760000D02*
X32512000Y111760000D01*
X32512000Y112776000D01*
X33528000Y112776000D01*
X33528000Y111760000D01*
G36*
X33528000Y91440000D02*
G01*
X32512000Y91440000D01*
X32512000Y92456000D01*
X33528000Y92456000D01*
X33528000Y91440000D01*
G37*
X33528000Y91440000D02*
X32512000Y91440000D01*
X32512000Y92456000D01*
X33528000Y92456000D01*
X33528000Y91440000D01*
G36*
X44704000Y116840000D02*
G01*
X43688000Y116840000D01*
X43688000Y117856000D01*
X44704000Y117856000D01*
X44704000Y116840000D01*
G37*
X44704000Y116840000D02*
X43688000Y116840000D01*
X43688000Y117856000D01*
X44704000Y117856000D01*
X44704000Y116840000D01*
G36*
X33528000Y109220000D02*
G01*
X32512000Y109220000D01*
X32512000Y110236000D01*
X33528000Y110236000D01*
X33528000Y109220000D01*
G37*
X33528000Y109220000D02*
X32512000Y109220000D01*
X32512000Y110236000D01*
X33528000Y110236000D01*
X33528000Y109220000D01*
G36*
X33528000Y93980000D02*
G01*
X32512000Y93980000D01*
X32512000Y94996000D01*
X33528000Y94996000D01*
X33528000Y93980000D01*
G37*
X33528000Y93980000D02*
X32512000Y93980000D01*
X32512000Y94996000D01*
X33528000Y94996000D01*
X33528000Y93980000D01*
G36*
X44704000Y96520000D02*
G01*
X43688000Y96520000D01*
X43688000Y97536000D01*
X44704000Y97536000D01*
X44704000Y96520000D01*
G37*
X44704000Y96520000D02*
X43688000Y96520000D01*
X43688000Y97536000D01*
X44704000Y97536000D01*
X44704000Y96520000D01*
G36*
X44704000Y111760000D02*
G01*
X43688000Y111760000D01*
X43688000Y112776000D01*
X44704000Y112776000D01*
X44704000Y111760000D01*
G37*
X44704000Y111760000D02*
X43688000Y111760000D01*
X43688000Y112776000D01*
X44704000Y112776000D01*
X44704000Y111760000D01*
G36*
X33528000Y96520000D02*
G01*
X32512000Y96520000D01*
X32512000Y97536000D01*
X33528000Y97536000D01*
X33528000Y96520000D01*
G37*
X33528000Y96520000D02*
X32512000Y96520000D01*
X32512000Y97536000D01*
X33528000Y97536000D01*
X33528000Y96520000D01*
G36*
X44704000Y109220000D02*
G01*
X43688000Y109220000D01*
X43688000Y110236000D01*
X44704000Y110236000D01*
X44704000Y109220000D01*
G37*
X44704000Y109220000D02*
X43688000Y109220000D01*
X43688000Y110236000D01*
X44704000Y110236000D01*
X44704000Y109220000D01*
G36*
X44704000Y114300000D02*
G01*
X43688000Y114300000D01*
X43688000Y115316000D01*
X44704000Y115316000D01*
X44704000Y114300000D01*
G37*
X44704000Y114300000D02*
X43688000Y114300000D01*
X43688000Y115316000D01*
X44704000Y115316000D01*
X44704000Y114300000D01*
G36*
X33528000Y106680000D02*
G01*
X32512000Y106680000D01*
X32512000Y107696000D01*
X33528000Y107696000D01*
X33528000Y106680000D01*
G37*
X33528000Y106680000D02*
X32512000Y106680000D01*
X32512000Y107696000D01*
X33528000Y107696000D01*
X33528000Y106680000D01*
G36*
X33528000Y114300000D02*
G01*
X32512000Y114300000D01*
X32512000Y115316000D01*
X33528000Y115316000D01*
X33528000Y114300000D01*
G37*
X33528000Y114300000D02*
X32512000Y114300000D01*
X32512000Y115316000D01*
X33528000Y115316000D01*
X33528000Y114300000D01*
G36*
X33528000Y99060000D02*
G01*
X32512000Y99060000D01*
X32512000Y100076000D01*
X33528000Y100076000D01*
X33528000Y99060000D01*
G37*
X33528000Y99060000D02*
X32512000Y99060000D01*
X32512000Y100076000D01*
X33528000Y100076000D01*
X33528000Y99060000D01*
G36*
X33528000Y104140000D02*
G01*
X32512000Y104140000D01*
X32512000Y105156000D01*
X33528000Y105156000D01*
X33528000Y104140000D01*
G37*
X33528000Y104140000D02*
X32512000Y104140000D01*
X32512000Y105156000D01*
X33528000Y105156000D01*
X33528000Y104140000D01*
G36*
X44704000Y99060000D02*
G01*
X43688000Y99060000D01*
X43688000Y100076000D01*
X44704000Y100076000D01*
X44704000Y99060000D01*
G37*
X44704000Y99060000D02*
X43688000Y99060000D01*
X43688000Y100076000D01*
X44704000Y100076000D01*
X44704000Y99060000D01*
G36*
X44704000Y91440000D02*
G01*
X43688000Y91440000D01*
X43688000Y92456000D01*
X44704000Y92456000D01*
X44704000Y91440000D01*
G37*
X44704000Y91440000D02*
X43688000Y91440000D01*
X43688000Y92456000D01*
X44704000Y92456000D01*
X44704000Y91440000D01*
G36*
X33528000Y116840000D02*
G01*
X32512000Y116840000D01*
X32512000Y117856000D01*
X33528000Y117856000D01*
X33528000Y116840000D01*
G37*
X33528000Y116840000D02*
X32512000Y116840000D01*
X32512000Y117856000D01*
X33528000Y117856000D01*
X33528000Y116840000D01*
G36*
X33528000Y101600000D02*
G01*
X32512000Y101600000D01*
X32512000Y102616000D01*
X33528000Y102616000D01*
X33528000Y101600000D01*
G37*
X33528000Y101600000D02*
X32512000Y101600000D01*
X32512000Y102616000D01*
X33528000Y102616000D01*
X33528000Y101600000D01*
G36*
X44704000Y93980000D02*
G01*
X43688000Y93980000D01*
X43688000Y94996000D01*
X44704000Y94996000D01*
X44704000Y93980000D01*
G37*
X44704000Y93980000D02*
X43688000Y93980000D01*
X43688000Y94996000D01*
X44704000Y94996000D01*
X44704000Y93980000D01*
G36*
X44704000Y104140000D02*
G01*
X43688000Y104140000D01*
X43688000Y105156000D01*
X44704000Y105156000D01*
X44704000Y104140000D01*
G37*
X44704000Y104140000D02*
X43688000Y104140000D01*
X43688000Y105156000D01*
X44704000Y105156000D01*
X44704000Y104140000D01*
D11*
X37971000Y91948000D02*
G75*
G03*
X37971000Y91948000I-125000J0D01*
G01*
X37971000Y104648000D02*
G75*
G03*
X37971000Y104648000I-125000J0D01*
G01*
X39495000Y112268000D02*
G75*
G03*
X39495000Y112268000I-125000J0D01*
G01*
X37971000Y114808000D02*
G75*
G03*
X37971000Y114808000I-125000J0D01*
G01*
X37971000Y102108000D02*
G75*
G03*
X37971000Y102108000I-125000J0D01*
G01*
X37971000Y109728000D02*
G75*
G03*
X37971000Y109728000I-125000J0D01*
G01*
X39495000Y119888000D02*
G75*
G03*
X39495000Y119888000I-125000J0D01*
G01*
X39495000Y97028000D02*
G75*
G03*
X39495000Y97028000I-125000J0D01*
G01*
X39495000Y102108000D02*
G75*
G03*
X39495000Y102108000I-125000J0D01*
G01*
X37971000Y117348000D02*
G75*
G03*
X37971000Y117348000I-125000J0D01*
G01*
X37971000Y112268000D02*
G75*
G03*
X37971000Y112268000I-125000J0D01*
G01*
X37971000Y119888000D02*
G75*
G03*
X37971000Y119888000I-125000J0D01*
G01*
X39495000Y104648000D02*
G75*
G03*
X39495000Y104648000I-125000J0D01*
G01*
X39495000Y117348000D02*
G75*
G03*
X39495000Y117348000I-125000J0D01*
G01*
X39495000Y109728000D02*
G75*
G03*
X39495000Y109728000I-125000J0D01*
G01*
X37971000Y94488000D02*
G75*
G03*
X37971000Y94488000I-125000J0D01*
G01*
X39495000Y94488000D02*
G75*
G03*
X39495000Y94488000I-125000J0D01*
G01*
X37971000Y107188000D02*
G75*
G03*
X37971000Y107188000I-125000J0D01*
G01*
X39495000Y91948000D02*
G75*
G03*
X39495000Y91948000I-125000J0D01*
G01*
X39495000Y99568000D02*
G75*
G03*
X39495000Y99568000I-125000J0D01*
G01*
X37971000Y97028000D02*
G75*
G03*
X37971000Y97028000I-125000J0D01*
G01*
X39495000Y107188000D02*
G75*
G03*
X39495000Y107188000I-125000J0D01*
G01*
X37971000Y99568000D02*
G75*
G03*
X37971000Y99568000I-125000J0D01*
G01*
X39495000Y114808000D02*
G75*
G03*
X39495000Y114808000I-125000J0D01*
G01*
%TD*%
D12*
%TO.C,S1*%
X40324610Y67279547D03*
D13*
X29589800Y74088512D03*
D12*
X44492153Y70749645D03*
X34929106Y67825928D03*
D13*
X39991903Y79569274D03*
D14*
X42284747Y77969745D03*
X36860005Y78611758D03*
D15*
X38599617Y72921745D03*
D16*
X43859293Y74529789D03*
X33339941Y71313701D03*
D14*
X32721700Y75046028D03*
%TD*%
D17*
%TO.C,*%
X33782000Y119888000D03*
X33782000Y117348000D03*
X33782000Y114808000D03*
X33782000Y112268000D03*
X33782000Y109728000D03*
X33782000Y107188000D03*
X33782000Y104648000D03*
X33782000Y102108000D03*
X33782000Y99568000D03*
X33782000Y97028000D03*
X33782000Y94488000D03*
X33782000Y91948000D03*
D18*
X43434000Y91948000D03*
X43434000Y94488000D03*
X43434000Y97028000D03*
X43434000Y99568000D03*
X43434000Y102108000D03*
X43434000Y104648000D03*
X43434000Y107188000D03*
X43434000Y109728000D03*
X43434000Y112268000D03*
X43434000Y114808000D03*
X43434000Y117348000D03*
X43434000Y119888000D03*
D19*
X46228000Y107188000D03*
D20*
X32766000Y99568000D03*
X32766000Y94488000D03*
D21*
X44450000Y114808000D03*
D19*
X30988000Y117348000D03*
D21*
X44450000Y107188000D03*
D19*
X46228000Y109728000D03*
X30988000Y107188000D03*
D21*
X44450000Y99568000D03*
D20*
X32766000Y97028000D03*
D19*
X30988000Y91948000D03*
D21*
X44450000Y102108000D03*
X44450000Y94488000D03*
D19*
X46228000Y114808000D03*
X46228000Y97028000D03*
D20*
X32766000Y102108000D03*
X32766000Y107188000D03*
D19*
X46228000Y117348000D03*
X46228000Y119888000D03*
D21*
X44450000Y109728000D03*
D19*
X30988000Y119888000D03*
D21*
X44450000Y104648000D03*
X44450000Y91948000D03*
D20*
X32766000Y117348000D03*
D21*
X44450000Y112268000D03*
D19*
X46228000Y112268000D03*
X30988000Y109728000D03*
X30988000Y114808000D03*
X30988000Y99568000D03*
X46228000Y94488000D03*
D21*
X44450000Y97028000D03*
D20*
X32766000Y112268000D03*
D19*
X30988000Y102108000D03*
X30988000Y94488000D03*
D21*
X44450000Y117348000D03*
D19*
X30988000Y104648000D03*
D21*
X44450000Y119888000D03*
D20*
X32766000Y104648000D03*
D19*
X46228000Y102108000D03*
D20*
X32766000Y109728000D03*
X32766000Y114808000D03*
X32766000Y91948000D03*
D19*
X46228000Y104648000D03*
X30988000Y112268000D03*
X30988000Y97028000D03*
X46228000Y91948000D03*
X46228000Y99568000D03*
D20*
X32766000Y119888000D03*
%TD*%
D14*
%TO.C,S27*%
X128985000Y91927999D03*
D16*
X128485000Y88178000D03*
X139485000Y88178000D03*
D15*
X133985000Y88178000D03*
D14*
X133985000Y94128000D03*
X138985000Y91927999D03*
D22*
X137259999Y94127999D03*
D12*
X128985000Y84378000D03*
X138985000Y84378000D03*
D22*
X125709999Y91928000D03*
D12*
X133985000Y82278000D03*
%TD*%
%TO.C,S5*%
X56387999Y77723999D03*
D13*
X45653189Y84532964D03*
D12*
X60555542Y81194097D03*
X50992495Y78270380D03*
D13*
X56055292Y90013726D03*
D14*
X58348136Y88414197D03*
X52923394Y89056210D03*
D15*
X54663006Y83366197D03*
D16*
X59922682Y84974241D03*
X49403330Y81758153D03*
D14*
X48785089Y85490480D03*
%TD*%
%TO.C,S23*%
X110411087Y110436016D03*
D16*
X109911087Y106686017D03*
X120911087Y106686017D03*
D15*
X115411087Y106686017D03*
D14*
X115411087Y112636017D03*
X120411087Y110436016D03*
D22*
X118686086Y112636016D03*
D12*
X110411087Y102886017D03*
X120411087Y102886017D03*
D22*
X107136086Y110436017D03*
D12*
X115411087Y100786017D03*
%TD*%
D14*
%TO.C,S9*%
X70077238Y91035885D03*
D16*
X70236014Y87256033D03*
X81068900Y89166163D03*
D15*
X75652457Y88211098D03*
D14*
X74619250Y94070704D03*
X79925315Y92772367D03*
D23*
X77844495Y94639401D03*
D12*
X71388281Y83600588D03*
X81236359Y85337069D03*
D23*
X66851991Y90467188D03*
D12*
X76676981Y82400732D03*
%TD*%
D14*
%TO.C,S21*%
X110411087Y93436016D03*
D16*
X109911087Y89686017D03*
X120911087Y89686017D03*
D15*
X115411087Y89686017D03*
D14*
X115411087Y95636017D03*
X120411087Y93436016D03*
D22*
X118686086Y95636016D03*
D12*
X110411087Y85886017D03*
X120411087Y85886017D03*
D22*
X107136086Y93436017D03*
D12*
X115411087Y83786017D03*
%TD*%
%TO.C,S3*%
X61358318Y61466818D03*
D13*
X50623508Y68275783D03*
D12*
X65525861Y64936916D03*
X55962814Y62013199D03*
D13*
X61025611Y73756545D03*
D14*
X63318455Y72157016D03*
X57893713Y72799029D03*
D15*
X59633325Y67109016D03*
D16*
X64893001Y68717060D03*
X54373649Y65500972D03*
D14*
X53755408Y69233299D03*
%TD*%
%TO.C,S7*%
X73029257Y74294153D03*
D16*
X73188033Y70514301D03*
X84020919Y72424431D03*
D15*
X78604476Y71469366D03*
D14*
X77571269Y77328972D03*
X82877334Y76030635D03*
D23*
X80796514Y77897669D03*
D12*
X74340300Y66858856D03*
X84188378Y68595337D03*
D23*
X69804010Y73725456D03*
D12*
X79629000Y65659000D03*
%TD*%
D14*
%TO.C,S13*%
X91078974Y83478807D03*
D16*
X90907710Y79699500D03*
X101865852Y80658214D03*
D15*
X96386781Y80178857D03*
D14*
X95868204Y86106215D03*
X101040921Y84350365D03*
D24*
X99130741Y86391649D03*
D12*
X91736999Y75957538D03*
X101698946Y76829096D03*
D24*
X87816435Y83193373D03*
D12*
X96901000Y74301308D03*
%TD*%
D14*
%TO.C,S15*%
X89597326Y100414117D03*
D16*
X89426062Y96634810D03*
X100384204Y97593524D03*
D15*
X94905133Y97114167D03*
D14*
X94386556Y103041525D03*
X99559273Y101285675D03*
D24*
X97649093Y103326959D03*
D12*
X90255351Y92892848D03*
X100217298Y93764406D03*
D24*
X86334787Y100128683D03*
D12*
X95419352Y91236618D03*
%TD*%
D14*
%TO.C,S17*%
X88115679Y117349427D03*
D16*
X87944415Y113570120D03*
X98902557Y114528834D03*
D15*
X93423486Y114049477D03*
D14*
X92904909Y119976835D03*
X98077626Y118220985D03*
D24*
X96167446Y120262269D03*
D12*
X88773704Y109828158D03*
X98735651Y110699716D03*
D24*
X84853140Y117063993D03*
D12*
X93937705Y108171928D03*
%TD*%
D14*
%TO.C,S19*%
X110411087Y76436016D03*
D16*
X109911087Y72686017D03*
X120911087Y72686017D03*
D15*
X115411087Y72686017D03*
D14*
X115411087Y78636017D03*
X120411087Y76436016D03*
D22*
X118686086Y78636016D03*
D12*
X110411087Y68886017D03*
X120411087Y68886017D03*
D22*
X107136086Y76436017D03*
D12*
X115411087Y66786017D03*
%TD*%
D14*
%TO.C,S25*%
X128985000Y74927999D03*
D16*
X128485000Y71178000D03*
X139485000Y71178000D03*
D15*
X133985000Y71178000D03*
D14*
X133985000Y77128000D03*
X138985000Y74927999D03*
D22*
X137259999Y77127999D03*
D12*
X128985000Y67378000D03*
X138985000Y67378000D03*
D22*
X125709999Y74928000D03*
D12*
X133985000Y65278000D03*
%TD*%
D14*
%TO.C,S11*%
X67125219Y107777617D03*
D16*
X67283995Y103997765D03*
X78116881Y105907895D03*
D15*
X72700438Y104952830D03*
D14*
X71667231Y110812436D03*
X76973296Y109514099D03*
D23*
X74892476Y111381133D03*
D12*
X68436262Y100342320D03*
X78284340Y102078801D03*
D23*
X63899972Y107208920D03*
D12*
X73724962Y99142464D03*
%TD*%
D14*
%TO.C,S29*%
X128985000Y108927999D03*
D16*
X128485000Y105178000D03*
X139485000Y105178000D03*
D15*
X133985000Y105178000D03*
D14*
X133985000Y111128000D03*
X138985000Y108927999D03*
D22*
X137259999Y111127999D03*
D12*
X128985000Y101378000D03*
X138985000Y101378000D03*
D22*
X125709999Y108928000D03*
D12*
X133985000Y99278000D03*
%TD*%
D14*
%TO.C,S31*%
X123894856Y53738098D03*
D16*
X123134488Y50032112D03*
X134107692Y49264790D03*
D15*
X128621090Y49648451D03*
D14*
X129036141Y55583957D03*
X133870497Y53040533D03*
D25*
X132303162Y55355504D03*
D12*
X123368195Y46206490D03*
X133343836Y45508925D03*
D25*
X120627833Y53966551D03*
D12*
X128209527Y43762823D03*
%TD*%
D14*
%TO.C,S33*%
X144776520Y50821676D03*
D16*
X143082881Y47438767D03*
X153483585Y43857517D03*
D15*
X148283233Y45648142D03*
D14*
X150220364Y51273978D03*
X154231706Y47565995D03*
D26*
X153316936Y50207741D03*
D12*
X142318481Y43683012D03*
X151773667Y40427331D03*
D26*
X141679946Y51887913D03*
D12*
X146362381Y40069582D03*
%TD*%
D27*
%TO.C,T1*%
X156169000Y87958000D03*
X158369000Y95358000D03*
X158369000Y87958000D03*
X156169000Y95358000D03*
D28*
X155194000Y89408000D03*
X155194000Y92408000D03*
X155194000Y93908000D03*
%TD*%
D29*
%TO.C,PAD1*%
X151924000Y78232000D03*
X153924000Y78232000D03*
X149924000Y78232000D03*
%TD*%
D30*
%TO.C,B1*%
X156718000Y63956000D03*
X156718000Y57456000D03*
%TD*%
D31*
%TO.C,T2*%
X157269000Y93158000D03*
X157269000Y90158000D03*
%TD*%
D32*
%TO.C,REF\u002A\u002A*%
X104140000Y67945000D03*
X104140000Y106045000D03*
X85090000Y86995000D03*
%TD*%
M02*
