%FSLAX45Y45*%
G04 Gerber Fmt 4.5, Leading zero omitted, Abs format (unit mm)*
G04 Created by KiCad (PCBNEW (6.0.4)) date 2022-08-23 16:04:33*
%MOMM*%
%LPD*%
G01*
G04 APERTURE LIST*
%TA.AperFunction,Profile*%
%ADD10C,0.150000*%
%TD*%
%TA.AperFunction,Profile*%
%ADD11C,0.050000*%
%TD*%
%ADD12C,0.200000*%
%ADD13C,0.040000*%
%ADD14C,0.081280*%
%ADD15C,0.100000*%
%ADD16C,0.109220*%
%ADD17C,0.127000*%
%ADD18C,0.130000*%
%ADD19C,0.149860*%
%ADD20C,0.150000*%
%ADD21C,0.220000*%
G04 APERTURE END LIST*
D10*
X18425774Y-6541436D02*
G75*
G03*
X18491326Y-6339686I-68114J133656D01*
G01*
X18170987Y-5430581D02*
G75*
G03*
X18105435Y-5632330I68093J-133649D01*
G01*
X24702596Y-4796523D02*
G75*
G03*
X24872086Y-4900389I143444J43853D01*
G01*
X24259181Y-3346191D02*
X24702593Y-4796524D01*
X10526640Y-4344890D02*
G75*
G03*
X10449137Y-4135785I-134000J69250D01*
G01*
X11074959Y-13727234D02*
X11654662Y-12589502D01*
X5381439Y-8844415D02*
X8279884Y-9730558D01*
X10873210Y-13792786D02*
G75*
G03*
X11074959Y-13727234I68100J133646D01*
G01*
X7854779Y-11578842D02*
X8626563Y-10064131D01*
X18896132Y-12514515D02*
G75*
G03*
X11743295Y-12514515I-3576418J-11367363D01*
G01*
X8530773Y-3846814D02*
G75*
G03*
X8713705Y-3759564I43857J143444D01*
G01*
X13385657Y-7127380D02*
X17203771Y-7127380D01*
D11*
X15773400Y-7874000D02*
X14909800Y-7874000D01*
D10*
X2933917Y-8259401D02*
X3567733Y-4664853D01*
X25225797Y-8840140D02*
G75*
G03*
X25207988Y-8844415I26013J-147590D01*
G01*
X24259182Y-3346191D02*
G75*
G03*
X24071880Y-3246601I-143442J-43849D01*
G01*
X11743296Y-12514516D02*
G75*
G03*
X11654662Y-12589502I45024J-143094D01*
G01*
X18984766Y-12589502D02*
X19564469Y-13727234D01*
X12148101Y-6339686D02*
X12533993Y-5632330D01*
X5381439Y-8844415D02*
G75*
G03*
X5363631Y-8840139I-43859J-143465D01*
G01*
X19766219Y-13792787D02*
X21013628Y-13157200D01*
X22108657Y-3846819D02*
X24071880Y-3246601D01*
X8965643Y-3536414D02*
X10449137Y-4135785D01*
X18105435Y-5632330D02*
X18491326Y-6339686D01*
X22719095Y-11780590D02*
G75*
G03*
X22784649Y-11578842I-68095J133650D01*
G01*
X7920332Y-11780592D02*
X9524144Y-12597775D01*
X3741501Y-4543184D02*
G75*
G03*
X3567733Y-4664853I-26051J-147716D01*
G01*
X20116800Y-4140200D02*
X21673785Y-3536414D01*
X12533994Y-5632331D02*
G75*
G03*
X12468441Y-5430581I-133674J68091D01*
G01*
X21925720Y-3759565D02*
G75*
G03*
X22108657Y-3846819I139080J56196D01*
G01*
X21869053Y-3619301D02*
X21925723Y-3759564D01*
D11*
X15773400Y-8610600D02*
X14884400Y-8610600D01*
D10*
X19981290Y-4508185D02*
G75*
G03*
X20052269Y-4318344I-68110J133655D01*
G01*
X8965643Y-3536416D02*
G75*
G03*
X8770375Y-3619301I-56193J-139074D01*
G01*
X5936835Y-4796524D02*
X6380246Y-3346191D01*
X5767342Y-4900390D02*
G75*
G03*
X5936835Y-4796524I26048J147720D01*
G01*
X8713705Y-3759564D02*
X8770375Y-3619301D01*
X24872086Y-4900389D02*
X26897926Y-4543179D01*
X8388110Y-9774285D02*
X8279884Y-9730558D01*
X22078417Y-9862381D02*
G75*
G03*
X22012865Y-10064131I68093J-133649D01*
G01*
X6567548Y-3246601D02*
X8530771Y-3846819D01*
X13249461Y-7094680D02*
G75*
G03*
X13385657Y-7127380I136199J267300D01*
G01*
X12148103Y-6339687D02*
G75*
G03*
X12213654Y-6541436I133637J-68103D01*
G01*
D11*
X14807574Y-9916152D02*
X15620374Y-9916152D01*
X14884400Y-8610600D02*
X14884400Y-7874000D01*
X15773400Y-8610600D02*
X15773400Y-7874000D01*
D10*
X21065284Y-12597775D02*
X22719096Y-11780592D01*
X22309544Y-9730558D02*
X25207988Y-8844415D01*
X27583837Y-8433171D02*
G75*
G03*
X27705511Y-8259401I-26047J147721D01*
G01*
X20116800Y-4140200D02*
G75*
G03*
X20052269Y-4318344I62970J-123570D01*
G01*
X17339968Y-7094681D02*
X18425774Y-6541435D01*
X3055591Y-8433170D02*
X5363631Y-8840139D01*
X21079180Y-12955450D02*
X20999732Y-12799524D01*
X10526639Y-4344889D02*
G75*
G03*
X10560349Y-4484387I93941J-51121D01*
G01*
X9589699Y-12799526D02*
G75*
G03*
X9524144Y-12597775I-133659J68096D01*
G01*
X9575800Y-13157200D02*
X10873209Y-13792787D01*
X27071695Y-4664853D02*
X27705511Y-8259401D01*
X7854778Y-11578842D02*
G75*
G03*
X7920332Y-11780592I133652J-68098D01*
G01*
X18170987Y-5430581D02*
X19981290Y-4508186D01*
X25225797Y-8840139D02*
X27583837Y-8433170D01*
X9510249Y-12955451D02*
G75*
G03*
X9575800Y-13157200I133651J-68099D01*
G01*
X3741502Y-4543179D02*
X5767342Y-4900389D01*
X10560349Y-4484387D02*
X12468441Y-5430581D01*
D11*
X14807574Y-9916152D02*
X14807574Y-10468032D01*
D10*
X9589696Y-12799524D02*
X9510248Y-12955450D01*
D11*
X14884400Y-7874000D02*
X14909800Y-7874000D01*
X14807574Y-10468032D02*
X15620374Y-10468032D01*
D10*
X21065286Y-12597777D02*
G75*
G03*
X20999732Y-12799524I68104J-133653D01*
G01*
X2933920Y-8259402D02*
G75*
G03*
X3055591Y-8433170I147720J-26048D01*
G01*
X18984767Y-12589501D02*
G75*
G03*
X18896132Y-12514515I-133667J-68119D01*
G01*
X22012865Y-10064131D02*
X22784648Y-11578842D01*
X21013628Y-13157201D02*
G75*
G03*
X21079180Y-12955450I-68098J133651D01*
G01*
X8626559Y-10064129D02*
G75*
G03*
X8561011Y-9862382I-133649J68099D01*
G01*
X19564471Y-13727234D02*
G75*
G03*
X19766219Y-13792787I133649J68094D01*
G01*
X21869052Y-3619301D02*
G75*
G03*
X21673785Y-3536414I-139072J-56179D01*
G01*
X6567547Y-3246606D02*
G75*
G03*
X6380246Y-3346191I-43857J-143444D01*
G01*
X12213654Y-6541436D02*
X13249460Y-7094681D01*
X8561011Y-9862382D02*
X8388110Y-9774285D01*
D11*
X15620374Y-10468032D02*
X15620374Y-9916152D01*
D10*
X17203771Y-7127380D02*
G75*
G03*
X17339968Y-7094682I10J299960D01*
G01*
X27071690Y-4664854D02*
G75*
G03*
X26897926Y-4543179I-147721J-26046D01*
G01*
X22309544Y-9730558D02*
X22078417Y-9862382D01*
D12*
D13*
X11054400Y-8260400D02*
X11094400Y-8300400D01*
X11094400Y-8260400D02*
X11054400Y-8300400D01*
X11333800Y-8209600D02*
X11373800Y-8249600D01*
X11373800Y-8209600D02*
X11333800Y-8249600D01*
X12476800Y-10165400D02*
X12516800Y-10205400D01*
X12516800Y-10165400D02*
X12476800Y-10205400D01*
X12629200Y-9886000D02*
X12669200Y-9926000D01*
X12669200Y-9886000D02*
X12629200Y-9926000D01*
X12704970Y-10088770D02*
X12744970Y-10128770D01*
X12744970Y-10088770D02*
X12704970Y-10128770D01*
X12705400Y-10546400D02*
X12745400Y-10586400D01*
X12745400Y-10546400D02*
X12705400Y-10586400D01*
X12718100Y-8831900D02*
X12758100Y-8871900D01*
X12758100Y-8831900D02*
X12718100Y-8871900D01*
X12781600Y-9962200D02*
X12821600Y-10002200D01*
X12821600Y-9962200D02*
X12781600Y-10002200D01*
X12934000Y-9251000D02*
X12974000Y-9291000D01*
X12974000Y-9251000D02*
X12934000Y-9291000D01*
X12946700Y-8323900D02*
X12986700Y-8363900D01*
X12986700Y-8323900D02*
X12946700Y-8363900D01*
X12984800Y-8844600D02*
X13024800Y-8884600D01*
X13024800Y-8844600D02*
X12984800Y-8884600D01*
X13010200Y-10800400D02*
X13050200Y-10840400D01*
X13050200Y-10800400D02*
X13010200Y-10840400D01*
X13061000Y-11080912D02*
X13101000Y-11120912D01*
X13101000Y-11080912D02*
X13061000Y-11120912D01*
X13086400Y-11410000D02*
X13126400Y-11450000D01*
X13126400Y-11410000D02*
X13086400Y-11450000D01*
X13111800Y-8920800D02*
X13151800Y-8960800D01*
X13151800Y-8920800D02*
X13111800Y-8960800D01*
X13162600Y-8235000D02*
X13202600Y-8275000D01*
X13202600Y-8235000D02*
X13162600Y-8275000D01*
X13264200Y-11206800D02*
X13304200Y-11246800D01*
X13304200Y-11206800D02*
X13264200Y-11246800D01*
X13416600Y-8224331D02*
X13456600Y-8264331D01*
X13456600Y-8224331D02*
X13416600Y-8264331D01*
X13772200Y-10216200D02*
X13812200Y-10256200D01*
X13812200Y-10216200D02*
X13772200Y-10256200D01*
X13924600Y-9784400D02*
X13964600Y-9824400D01*
X13964600Y-9784400D02*
X13924600Y-9824400D01*
X14051600Y-11054400D02*
X14091600Y-11094400D01*
X14091600Y-11054400D02*
X14051600Y-11094400D01*
X14077000Y-9251000D02*
X14117000Y-9291000D01*
X14117000Y-9251000D02*
X14077000Y-9291000D01*
X14127800Y-10648000D02*
X14167800Y-10688000D01*
X14167800Y-10648000D02*
X14127800Y-10688000D01*
X14204000Y-9784400D02*
X14244000Y-9824400D01*
X14244000Y-9784400D02*
X14204000Y-9824400D01*
X14229400Y-10317800D02*
X14269400Y-10357800D01*
X14269400Y-10317800D02*
X14229400Y-10357800D01*
X14331000Y-11105200D02*
X14371000Y-11145200D01*
X14371000Y-11105200D02*
X14331000Y-11145200D01*
X14661200Y-7625400D02*
X14701200Y-7665400D01*
X14701200Y-7625400D02*
X14661200Y-7665400D01*
X14686600Y-7904800D02*
X14726600Y-7944800D01*
X14726600Y-7904800D02*
X14686600Y-7944800D01*
X14762800Y-8235000D02*
X14802800Y-8275000D01*
X14802800Y-8235000D02*
X14762800Y-8275000D01*
X14813600Y-9657400D02*
X14853600Y-9697400D01*
X14853600Y-9657400D02*
X14813600Y-9697400D01*
X14813600Y-11130600D02*
X14853600Y-11170600D01*
X14853600Y-11130600D02*
X14813600Y-11170600D01*
X14889800Y-11003600D02*
X14929800Y-11043600D01*
X14929800Y-11003600D02*
X14889800Y-11043600D01*
X15804200Y-11003600D02*
X15844200Y-11043600D01*
X15844200Y-11003600D02*
X15804200Y-11043600D01*
X15829600Y-10648000D02*
X15869600Y-10688000D01*
X15869600Y-10648000D02*
X15829600Y-10688000D01*
X15850839Y-8742570D02*
X15890839Y-8782570D01*
X15890839Y-8742570D02*
X15850839Y-8782570D01*
X15880400Y-8920800D02*
X15920400Y-8960800D01*
X15920400Y-8920800D02*
X15880400Y-8960800D01*
X16045930Y-10610330D02*
X16085930Y-10650330D01*
X16085930Y-10610330D02*
X16045930Y-10650330D01*
X16083600Y-10724200D02*
X16123600Y-10764200D01*
X16123600Y-10724200D02*
X16083600Y-10764200D01*
X16185200Y-11791000D02*
X16225200Y-11831000D01*
X16225200Y-11791000D02*
X16185200Y-11831000D01*
X16337600Y-8158800D02*
X16377600Y-8198800D01*
X16377600Y-8158800D02*
X16337600Y-8198800D01*
X16363000Y-10571800D02*
X16403000Y-10611800D01*
X16403000Y-10571800D02*
X16363000Y-10611800D01*
X16413800Y-9047800D02*
X16453800Y-9087800D01*
X16453800Y-9047800D02*
X16413800Y-9087800D01*
X16413800Y-9479600D02*
X16453800Y-9519600D01*
X16453800Y-9479600D02*
X16413800Y-9519600D01*
X16464600Y-7803200D02*
X16504600Y-7843200D01*
X16504600Y-7803200D02*
X16464600Y-7843200D01*
X16515400Y-11206800D02*
X16555400Y-11246800D01*
X16555400Y-11206800D02*
X16515400Y-11246800D01*
X16540800Y-8895400D02*
X16580800Y-8935400D01*
X16580800Y-8895400D02*
X16540800Y-8935400D01*
X16566200Y-9708200D02*
X16606200Y-9748200D01*
X16606200Y-9708200D02*
X16566200Y-9748200D01*
X16642400Y-8086350D02*
X16682400Y-8126350D01*
X16682400Y-8086350D02*
X16642400Y-8126350D01*
X16769400Y-8510650D02*
X16809400Y-8550650D01*
X16809400Y-8510650D02*
X16769400Y-8550650D01*
X16820200Y-9124000D02*
X16860200Y-9164000D01*
X16860200Y-9124000D02*
X16820200Y-9164000D01*
X17023400Y-9047800D02*
X17063400Y-9087800D01*
X17063400Y-9047800D02*
X17023400Y-9087800D01*
X17023400Y-10902000D02*
X17063400Y-10942000D01*
X17063400Y-10902000D02*
X17023400Y-10942000D01*
X17125000Y-8844600D02*
X17165000Y-8884600D01*
X17165000Y-8844600D02*
X17125000Y-8884600D01*
X17226600Y-8336600D02*
X17266600Y-8376600D01*
X17266600Y-8336600D02*
X17226600Y-8376600D01*
X17226600Y-11714800D02*
X17266600Y-11754800D01*
X17266600Y-11714800D02*
X17226600Y-11754800D01*
X17302800Y-11435400D02*
X17342800Y-11475400D01*
X17342800Y-11435400D02*
X17302800Y-11475400D01*
X17429800Y-9733600D02*
X17469800Y-9773600D01*
X17469800Y-9733600D02*
X17429800Y-9773600D01*
X17503881Y-11996319D02*
X17543881Y-12036319D01*
X17543881Y-11996319D02*
X17503881Y-12036319D01*
X17582200Y-9682800D02*
X17622200Y-9722800D01*
X17622200Y-9682800D02*
X17582200Y-9722800D01*
X17582200Y-11206800D02*
X17622200Y-11246800D01*
X17622200Y-11206800D02*
X17582200Y-11246800D01*
X17709200Y-9022400D02*
X17749200Y-9062400D01*
X17749200Y-9022400D02*
X17709200Y-9062400D01*
X17760000Y-9200200D02*
X17800000Y-9240200D01*
X17800000Y-9200200D02*
X17760000Y-9240200D01*
X17760000Y-9530400D02*
X17800000Y-9570400D01*
X17800000Y-9530400D02*
X17760000Y-9570400D01*
X17785400Y-10597200D02*
X17825400Y-10637200D01*
X17825400Y-10597200D02*
X17785400Y-10637200D01*
X17887000Y-9987600D02*
X17927000Y-10027600D01*
X17927000Y-9987600D02*
X17887000Y-10027600D01*
X17963200Y-11181400D02*
X18003200Y-11221400D01*
X18003200Y-11181400D02*
X17963200Y-11221400D01*
X18039400Y-12172000D02*
X18079400Y-12212000D01*
X18079400Y-12172000D02*
X18039400Y-12212000D01*
X18039695Y-9860895D02*
X18079695Y-9900895D01*
X18079695Y-9860895D02*
X18039695Y-9900895D01*
X18598200Y-12172000D02*
X18638200Y-12212000D01*
X18638200Y-12172000D02*
X18598200Y-12212000D01*
X4757200Y-8280400D02*
G75*
G03*
X4757200Y-8280400I-20000J0D01*
G01*
X4805527Y-8163727D02*
G75*
G03*
X4805527Y-8163727I-20000J0D01*
G01*
X4805527Y-8397073D02*
G75*
G03*
X4805527Y-8397073I-20000J0D01*
G01*
X4922200Y-8115400D02*
G75*
G03*
X4922200Y-8115400I-20000J0D01*
G01*
X4922200Y-8445400D02*
G75*
G03*
X4922200Y-8445400I-20000J0D01*
G01*
X5038873Y-8163727D02*
G75*
G03*
X5038873Y-8163727I-20000J0D01*
G01*
X5038873Y-8397073D02*
G75*
G03*
X5038873Y-8397073I-20000J0D01*
G01*
X5087200Y-8280400D02*
G75*
G03*
X5087200Y-8280400I-20000J0D01*
G01*
X7500400Y-5715000D02*
G75*
G03*
X7500400Y-5715000I-20000J0D01*
G01*
X7548727Y-5598327D02*
G75*
G03*
X7548727Y-5598327I-20000J0D01*
G01*
X7548727Y-5831673D02*
G75*
G03*
X7548727Y-5831673I-20000J0D01*
G01*
X7665400Y-5550000D02*
G75*
G03*
X7665400Y-5550000I-20000J0D01*
G01*
X7665400Y-5880000D02*
G75*
G03*
X7665400Y-5880000I-20000J0D01*
G01*
X7782073Y-5598327D02*
G75*
G03*
X7782073Y-5598327I-20000J0D01*
G01*
X7782073Y-5831673D02*
G75*
G03*
X7782073Y-5831673I-20000J0D01*
G01*
X7830400Y-5715000D02*
G75*
G03*
X7830400Y-5715000I-20000J0D01*
G01*
X9913400Y-5943600D02*
G75*
G03*
X9913400Y-5943600I-20000J0D01*
G01*
X9961727Y-5826927D02*
G75*
G03*
X9961727Y-5826927I-20000J0D01*
G01*
X9961727Y-6060273D02*
G75*
G03*
X9961727Y-6060273I-20000J0D01*
G01*
X10078400Y-5778600D02*
G75*
G03*
X10078400Y-5778600I-20000J0D01*
G01*
X10078400Y-6108600D02*
G75*
G03*
X10078400Y-6108600I-20000J0D01*
G01*
X10195073Y-5826927D02*
G75*
G03*
X10195073Y-5826927I-20000J0D01*
G01*
X10195073Y-6060273D02*
G75*
G03*
X10195073Y-6060273I-20000J0D01*
G01*
X10243400Y-5943600D02*
G75*
G03*
X10243400Y-5943600I-20000J0D01*
G01*
X10904000Y-10261600D02*
G75*
G03*
X10904000Y-10261600I-20000J0D01*
G01*
X10952327Y-10144927D02*
G75*
G03*
X10952327Y-10144927I-20000J0D01*
G01*
X10952327Y-10378273D02*
G75*
G03*
X10952327Y-10378273I-20000J0D01*
G01*
X11069000Y-10096600D02*
G75*
G03*
X11069000Y-10096600I-20000J0D01*
G01*
X11069000Y-10426600D02*
G75*
G03*
X11069000Y-10426600I-20000J0D01*
G01*
X11185673Y-10144927D02*
G75*
G03*
X11185673Y-10144927I-20000J0D01*
G01*
X11185673Y-10378273D02*
G75*
G03*
X11185673Y-10378273I-20000J0D01*
G01*
X11234000Y-10261600D02*
G75*
G03*
X11234000Y-10261600I-20000J0D01*
G01*
X18854200Y-7162800D02*
G75*
G03*
X18854200Y-7162800I-20000J0D01*
G01*
X18902527Y-7046127D02*
G75*
G03*
X18902527Y-7046127I-20000J0D01*
G01*
X18902527Y-7279473D02*
G75*
G03*
X18902527Y-7279473I-20000J0D01*
G01*
X19019200Y-6997800D02*
G75*
G03*
X19019200Y-6997800I-20000J0D01*
G01*
X19019200Y-7327800D02*
G75*
G03*
X19019200Y-7327800I-20000J0D01*
G01*
X19135873Y-7046127D02*
G75*
G03*
X19135873Y-7046127I-20000J0D01*
G01*
X19135873Y-7279473D02*
G75*
G03*
X19135873Y-7279473I-20000J0D01*
G01*
X19184200Y-7162800D02*
G75*
G03*
X19184200Y-7162800I-20000J0D01*
G01*
X19870200Y-10896600D02*
G75*
G03*
X19870200Y-10896600I-20000J0D01*
G01*
X19918527Y-10779927D02*
G75*
G03*
X19918527Y-10779927I-20000J0D01*
G01*
X19918527Y-11013273D02*
G75*
G03*
X19918527Y-11013273I-20000J0D01*
G01*
X20035200Y-10731600D02*
G75*
G03*
X20035200Y-10731600I-20000J0D01*
G01*
X20035200Y-11061600D02*
G75*
G03*
X20035200Y-11061600I-20000J0D01*
G01*
X20151873Y-10779927D02*
G75*
G03*
X20151873Y-10779927I-20000J0D01*
G01*
X20151873Y-11013273D02*
G75*
G03*
X20151873Y-11013273I-20000J0D01*
G01*
X20200200Y-10896600D02*
G75*
G03*
X20200200Y-10896600I-20000J0D01*
G01*
X22842000Y-5765800D02*
G75*
G03*
X22842000Y-5765800I-20000J0D01*
G01*
X22890327Y-5649127D02*
G75*
G03*
X22890327Y-5649127I-20000J0D01*
G01*
X22890327Y-5882473D02*
G75*
G03*
X22890327Y-5882473I-20000J0D01*
G01*
X23007000Y-5600800D02*
G75*
G03*
X23007000Y-5600800I-20000J0D01*
G01*
X23007000Y-5930800D02*
G75*
G03*
X23007000Y-5930800I-20000J0D01*
G01*
X23123673Y-5649127D02*
G75*
G03*
X23123673Y-5649127I-20000J0D01*
G01*
X23123673Y-5882473D02*
G75*
G03*
X23123673Y-5882473I-20000J0D01*
G01*
X23172000Y-5765800D02*
G75*
G03*
X23172000Y-5765800I-20000J0D01*
G01*
X25585200Y-8382000D02*
G75*
G03*
X25585200Y-8382000I-20000J0D01*
G01*
X25633527Y-8265327D02*
G75*
G03*
X25633527Y-8265327I-20000J0D01*
G01*
X25633527Y-8498673D02*
G75*
G03*
X25633527Y-8498673I-20000J0D01*
G01*
X25750200Y-8217000D02*
G75*
G03*
X25750200Y-8217000I-20000J0D01*
G01*
X25750200Y-8547000D02*
G75*
G03*
X25750200Y-8547000I-20000J0D01*
G01*
X25866873Y-8265327D02*
G75*
G03*
X25866873Y-8265327I-20000J0D01*
G01*
X25866873Y-8498673D02*
G75*
G03*
X25866873Y-8498673I-20000J0D01*
G01*
X25915200Y-8382000D02*
G75*
G03*
X25915200Y-8382000I-20000J0D01*
G01*
D14*
X14529940Y-7495460D02*
X14529940Y-7576740D01*
X14489300Y-7536100D02*
X14570580Y-7536100D01*
X14529940Y-7749460D02*
X14529940Y-7830740D01*
X14489300Y-7790100D02*
X14570580Y-7790100D01*
X14529940Y-8003460D02*
X14529940Y-8084740D01*
X14489300Y-8044100D02*
X14570580Y-8044100D01*
X14529940Y-8257460D02*
X14529940Y-8338740D01*
X14489300Y-8298100D02*
X14570580Y-8298100D01*
X14529940Y-8511460D02*
X14529940Y-8592740D01*
X14489300Y-8552100D02*
X14570580Y-8552100D01*
X14529940Y-8765460D02*
X14529940Y-8846740D01*
X14489300Y-8806100D02*
X14570580Y-8806100D01*
X14529940Y-9019460D02*
X14529940Y-9100740D01*
X14489300Y-9060100D02*
X14570580Y-9060100D01*
X14529940Y-9273460D02*
X14529940Y-9354740D01*
X14489300Y-9314100D02*
X14570580Y-9314100D01*
X14529940Y-9527460D02*
X14529940Y-9608740D01*
X14489300Y-9568100D02*
X14570580Y-9568100D01*
X14529940Y-9781460D02*
X14529940Y-9862740D01*
X14489300Y-9822100D02*
X14570580Y-9822100D01*
X14529940Y-10035460D02*
X14529940Y-10116740D01*
X14489300Y-10076100D02*
X14570580Y-10076100D01*
X14529940Y-10289460D02*
X14529940Y-10370740D01*
X14489300Y-10330100D02*
X14570580Y-10330100D01*
X16051940Y-7495460D02*
X16051940Y-7576740D01*
X16011300Y-7536100D02*
X16092580Y-7536100D01*
X16051940Y-7749460D02*
X16051940Y-7830740D01*
X16011300Y-7790100D02*
X16092580Y-7790100D01*
X16051940Y-8003460D02*
X16051940Y-8084740D01*
X16011300Y-8044100D02*
X16092580Y-8044100D01*
X16051940Y-8257460D02*
X16051940Y-8338740D01*
X16011300Y-8298100D02*
X16092580Y-8298100D01*
X16051940Y-8511460D02*
X16051940Y-8592740D01*
X16011300Y-8552100D02*
X16092580Y-8552100D01*
X16051940Y-8765460D02*
X16051940Y-8846740D01*
X16011300Y-8806100D02*
X16092580Y-8806100D01*
X16051940Y-9019460D02*
X16051940Y-9100740D01*
X16011300Y-9060100D02*
X16092580Y-9060100D01*
X16051940Y-9273460D02*
X16051940Y-9354740D01*
X16011300Y-9314100D02*
X16092580Y-9314100D01*
X16051940Y-9527460D02*
X16051940Y-9608740D01*
X16011300Y-9568100D02*
X16092580Y-9568100D01*
X16051940Y-9781460D02*
X16051940Y-9862740D01*
X16011300Y-9822100D02*
X16092580Y-9822100D01*
X16051940Y-10035460D02*
X16051940Y-10116740D01*
X16011300Y-10076100D02*
X16092580Y-10076100D01*
X16051940Y-10289460D02*
X16051940Y-10370740D01*
X16011300Y-10330100D02*
X16092580Y-10330100D01*
D15*
X11105677Y-11268718D02*
X11105677Y-11198007D01*
X11034966Y-11198007D01*
X11034966Y-11268718D01*
X11105677Y-11268718D01*
X11332673Y-10823215D02*
X11332673Y-10752504D01*
X11261961Y-10752504D01*
X11261961Y-10823215D01*
X11332673Y-10823215D01*
X12397637Y-11927005D02*
X12397637Y-11856293D01*
X12326925Y-11856293D01*
X12326925Y-11927005D01*
X12397637Y-11927005D01*
X12511134Y-11704253D02*
X12511134Y-11633542D01*
X12440423Y-11633542D01*
X12440423Y-11704253D01*
X12511134Y-11704253D01*
X12624632Y-11481501D02*
X12624632Y-11410790D01*
X12553921Y-11410790D01*
X12553921Y-11481501D01*
X12624632Y-11481501D01*
X17947298Y-11526446D02*
X17947298Y-11455735D01*
X17876586Y-11455735D01*
X17876586Y-11526446D01*
X17947298Y-11526446D01*
X18060795Y-11749198D02*
X18060795Y-11678487D01*
X17990084Y-11678487D01*
X17990084Y-11749198D01*
X18060795Y-11749198D01*
X18174293Y-11971950D02*
X18174293Y-11901238D01*
X18103581Y-11901238D01*
X18103581Y-11971950D01*
X18174293Y-11971950D01*
X19239257Y-10868160D02*
X19239257Y-10797449D01*
X19168546Y-10797449D01*
X19168546Y-10868160D01*
X19239257Y-10868160D01*
X19466252Y-11313663D02*
X19466252Y-11242952D01*
X19395541Y-11242952D01*
X19395541Y-11313663D01*
X19466252Y-11313663D01*
D16*
X16560800Y-7319010D02*
X16615410Y-7264400D01*
X16560800Y-7209790D01*
X16506190Y-7264400D01*
X16560800Y-7319010D01*
X16760800Y-7319010D02*
X16815410Y-7264400D01*
X16760800Y-7209790D01*
X16706190Y-7264400D01*
X16760800Y-7319010D01*
X16960800Y-7319010D02*
X17015410Y-7264400D01*
X16960800Y-7209790D01*
X16906190Y-7264400D01*
X16960800Y-7319010D01*
D17*
X3412877Y-7712427D02*
X3539877Y-7839427D01*
X3539877Y-7712427D02*
X3412877Y-7839427D01*
X3539877Y-7775927D02*
G75*
G03*
X3539877Y-7775927I-63500J0D01*
G01*
X3741904Y-5839585D02*
X3868904Y-5966585D01*
X3868904Y-5839585D02*
X3741904Y-5966585D01*
X3868904Y-5903085D02*
G75*
G03*
X3868904Y-5903085I-63500J0D01*
G01*
X3868814Y-8006061D02*
X3995814Y-8133061D01*
X3995814Y-8006061D02*
X3868814Y-8133061D01*
X3995814Y-8069561D02*
G75*
G03*
X3995814Y-8069561I-63500J0D01*
G01*
X4197842Y-6133219D02*
X4324842Y-6260219D01*
X4324842Y-6133219D02*
X4197842Y-6260219D01*
X4324842Y-6196719D02*
G75*
G03*
X4324842Y-6196719I-63500J0D01*
G01*
X4397684Y-7886076D02*
X4524684Y-8013076D01*
X4524684Y-7886076D02*
X4397684Y-8013076D01*
X4524684Y-7949576D02*
G75*
G03*
X4524684Y-7949576I-63500J0D01*
G01*
X4726712Y-6013233D02*
X4853712Y-6140233D01*
X4853712Y-6013233D02*
X4726712Y-6140233D01*
X4853712Y-6076733D02*
G75*
G03*
X4853712Y-6076733I-63500J0D01*
G01*
X5291486Y-8176495D02*
X5418486Y-8303495D01*
X5418486Y-8176495D02*
X5291486Y-8303495D01*
X5418486Y-8239995D02*
G75*
G03*
X5418486Y-8239995I-63500J0D01*
G01*
X5708240Y-8523505D02*
X5835240Y-8650505D01*
X5835240Y-8523505D02*
X5708240Y-8650505D01*
X5835240Y-8587005D02*
G75*
G03*
X5835240Y-8587005I-63500J0D01*
G01*
X5847025Y-6359554D02*
X5974025Y-6486554D01*
X5974025Y-6359554D02*
X5847025Y-6486554D01*
X5974025Y-6423054D02*
G75*
G03*
X5974025Y-6423054I-63500J0D01*
G01*
X6247791Y-8468867D02*
X6374791Y-8595867D01*
X6374791Y-8468867D02*
X6247791Y-8595867D01*
X6374791Y-8532367D02*
G75*
G03*
X6374791Y-8532367I-63500J0D01*
G01*
X6263779Y-6706564D02*
X6390779Y-6833564D01*
X6390779Y-6706564D02*
X6263779Y-6833564D01*
X6390779Y-6770064D02*
G75*
G03*
X6390779Y-6770064I-63500J0D01*
G01*
X6402498Y-4542537D02*
X6529498Y-4669537D01*
X6529498Y-4542537D02*
X6402498Y-4669537D01*
X6529498Y-4606037D02*
G75*
G03*
X6529498Y-4606037I-63500J0D01*
G01*
X6803329Y-6651926D02*
X6930329Y-6778926D01*
X6930329Y-6651926D02*
X6803329Y-6778926D01*
X6930329Y-6715426D02*
G75*
G03*
X6930329Y-6715426I-63500J0D01*
G01*
X6819253Y-4889547D02*
X6946253Y-5016547D01*
X6946253Y-4889547D02*
X6819253Y-5016547D01*
X6946253Y-4953047D02*
G75*
G03*
X6946253Y-4953047I-63500J0D01*
G01*
X7296481Y-8248929D02*
X7423481Y-8375929D01*
X7423481Y-8248929D02*
X7296481Y-8375929D01*
X7423481Y-8312429D02*
G75*
G03*
X7423481Y-8312429I-63500J0D01*
G01*
X7358803Y-4834909D02*
X7485803Y-4961909D01*
X7485803Y-4834909D02*
X7358803Y-4961909D01*
X7485803Y-4898409D02*
G75*
G03*
X7485803Y-4898409I-63500J0D01*
G01*
X7681406Y-8630941D02*
X7808406Y-8757941D01*
X7808406Y-8630941D02*
X7681406Y-8757941D01*
X7808406Y-8694441D02*
G75*
G03*
X7808406Y-8694441I-63500J0D01*
G01*
X8008234Y-6487280D02*
X8135234Y-6614280D01*
X8135234Y-6487280D02*
X8008234Y-6614280D01*
X8135234Y-6550780D02*
G75*
G03*
X8135234Y-6550780I-63500J0D01*
G01*
X8223665Y-8623536D02*
X8350665Y-8750536D01*
X8350665Y-8623536D02*
X8223665Y-8750536D01*
X8350665Y-8687036D02*
G75*
G03*
X8350665Y-8687036I-63500J0D01*
G01*
X8292599Y-11523577D02*
X8419599Y-11650577D01*
X8419599Y-11523577D02*
X8292599Y-11650577D01*
X8419599Y-11587077D02*
G75*
G03*
X8419599Y-11587077I-63500J0D01*
G01*
X8393158Y-6869292D02*
X8520158Y-6996292D01*
X8520158Y-6869292D02*
X8393158Y-6996292D01*
X8520158Y-6932792D02*
G75*
G03*
X8520158Y-6932792I-63500J0D01*
G01*
X8642765Y-11937683D02*
X8769765Y-12064683D01*
X8769765Y-11937683D02*
X8642765Y-12064683D01*
X8769765Y-12001183D02*
G75*
G03*
X8769765Y-12001183I-63500J0D01*
G01*
X8719986Y-4725631D02*
X8846986Y-4852631D01*
X8846986Y-4725631D02*
X8719986Y-4852631D01*
X8846986Y-4789131D02*
G75*
G03*
X8846986Y-4789131I-63500J0D01*
G01*
X8868150Y-9347717D02*
X8995150Y-9474717D01*
X8995150Y-9347717D02*
X8868150Y-9474717D01*
X8995150Y-9411217D02*
G75*
G03*
X8995150Y-9411217I-63500J0D01*
G01*
X8935418Y-6861886D02*
X9062418Y-6988886D01*
X9062418Y-6861886D02*
X8935418Y-6988886D01*
X9062418Y-6925386D02*
G75*
G03*
X9062418Y-6925386I-63500J0D01*
G01*
X9104911Y-5107643D02*
X9231911Y-5234643D01*
X9231911Y-5107643D02*
X9104911Y-5234643D01*
X9231911Y-5171143D02*
G75*
G03*
X9231911Y-5171143I-63500J0D01*
G01*
X9183606Y-11977567D02*
X9310606Y-12104567D01*
X9310606Y-11977567D02*
X9183606Y-12104567D01*
X9310606Y-12041067D02*
G75*
G03*
X9310606Y-12041067I-63500J0D01*
G01*
X9218316Y-9761824D02*
X9345316Y-9888824D01*
X9345316Y-9761824D02*
X9218316Y-9888824D01*
X9345316Y-9825324D02*
G75*
G03*
X9345316Y-9825324I-63500J0D01*
G01*
X9647170Y-5100237D02*
X9774170Y-5227237D01*
X9774170Y-5100237D02*
X9647170Y-5227237D01*
X9774170Y-5163737D02*
G75*
G03*
X9774170Y-5163737I-63500J0D01*
G01*
X9730732Y-7654805D02*
X9857732Y-7781805D01*
X9857732Y-7654805D02*
X9730732Y-7781805D01*
X9857732Y-7718305D02*
G75*
G03*
X9857732Y-7718305I-63500J0D01*
G01*
X9759157Y-9801708D02*
X9886157Y-9928708D01*
X9886157Y-9801708D02*
X9759157Y-9928708D01*
X9886157Y-9865208D02*
G75*
G03*
X9886157Y-9865208I-63500J0D01*
G01*
X9769866Y-12809387D02*
X9896866Y-12936387D01*
X9896866Y-12809387D02*
X9769866Y-12936387D01*
X9896866Y-12872887D02*
G75*
G03*
X9896866Y-12872887I-63500J0D01*
G01*
X10080897Y-8068911D02*
X10207897Y-8195911D01*
X10207897Y-8068911D02*
X10080897Y-8195911D01*
X10207897Y-8132411D02*
G75*
G03*
X10207897Y-8132411I-63500J0D01*
G01*
X10120031Y-13223493D02*
X10247031Y-13350493D01*
X10247031Y-13223493D02*
X10120031Y-13350493D01*
X10247031Y-13286993D02*
G75*
G03*
X10247031Y-13286993I-63500J0D01*
G01*
X10593314Y-5961892D02*
X10720314Y-6088892D01*
X10720314Y-5961892D02*
X10593314Y-6088892D01*
X10720314Y-6025392D02*
G75*
G03*
X10720314Y-6025392I-63500J0D01*
G01*
X10621739Y-8108795D02*
X10748739Y-8235795D01*
X10748739Y-8108795D02*
X10621739Y-8235795D01*
X10748739Y-8172295D02*
G75*
G03*
X10748739Y-8172295I-63500J0D01*
G01*
X10660873Y-13263377D02*
X10787873Y-13390377D01*
X10787873Y-13263377D02*
X10660873Y-13390377D01*
X10787873Y-13326877D02*
G75*
G03*
X10787873Y-13326877I-63500J0D01*
G01*
X10943479Y-6375999D02*
X11070479Y-6502999D01*
X11070479Y-6375999D02*
X10943479Y-6502999D01*
X11070479Y-6439499D02*
G75*
G03*
X11070479Y-6439499I-63500J0D01*
G01*
X10992354Y-9363843D02*
X11119354Y-9490843D01*
X11119354Y-9363843D02*
X10992354Y-9490843D01*
X11119354Y-9427343D02*
G75*
G03*
X11119354Y-9427343I-63500J0D01*
G01*
X11342519Y-9777949D02*
X11469519Y-9904949D01*
X11469519Y-9777949D02*
X11342519Y-9904949D01*
X11469519Y-9841449D02*
G75*
G03*
X11469519Y-9841449I-63500J0D01*
G01*
X11484321Y-6415883D02*
X11611321Y-6542883D01*
X11611321Y-6415883D02*
X11484321Y-6542883D01*
X11611321Y-6479383D02*
G75*
G03*
X11611321Y-6479383I-63500J0D01*
G01*
X11854935Y-7670930D02*
X11981935Y-7797930D01*
X11981935Y-7670930D02*
X11854935Y-7797930D01*
X11981935Y-7734430D02*
G75*
G03*
X11981935Y-7734430I-63500J0D01*
G01*
X11883360Y-9817833D02*
X12010360Y-9944833D01*
X12010360Y-9817833D02*
X11883360Y-9944833D01*
X12010360Y-9881333D02*
G75*
G03*
X12010360Y-9881333I-63500J0D01*
G01*
X12205101Y-8085037D02*
X12332101Y-8212037D01*
X12332101Y-8085037D02*
X12205101Y-8212037D01*
X12332101Y-8148537D02*
G75*
G03*
X12332101Y-8148537I-63500J0D01*
G01*
X12745942Y-8124921D02*
X12872942Y-8251921D01*
X12872942Y-8124921D02*
X12745942Y-8251921D01*
X12872942Y-8188421D02*
G75*
G03*
X12872942Y-8188421I-63500J0D01*
G01*
X17716863Y-8124483D02*
X17843863Y-8251483D01*
X17843863Y-8124483D02*
X17716863Y-8251483D01*
X17843863Y-8187983D02*
G75*
G03*
X17843863Y-8187983I-63500J0D01*
G01*
X18257704Y-8084599D02*
X18384704Y-8211599D01*
X18384704Y-8084599D02*
X18257704Y-8211599D01*
X18384704Y-8148099D02*
G75*
G03*
X18384704Y-8148099I-63500J0D01*
G01*
X18579445Y-9817395D02*
X18706445Y-9944395D01*
X18706445Y-9817395D02*
X18579445Y-9944395D01*
X18706445Y-9880895D02*
G75*
G03*
X18706445Y-9880895I-63500J0D01*
G01*
X18607870Y-7670492D02*
X18734870Y-7797492D01*
X18734870Y-7670492D02*
X18607870Y-7797492D01*
X18734870Y-7733992D02*
G75*
G03*
X18734870Y-7733992I-63500J0D01*
G01*
X18978485Y-6415445D02*
X19105485Y-6542445D01*
X19105485Y-6415445D02*
X18978485Y-6542445D01*
X19105485Y-6478945D02*
G75*
G03*
X19105485Y-6478945I-63500J0D01*
G01*
X19120286Y-9777511D02*
X19247286Y-9904511D01*
X19247286Y-9777511D02*
X19120286Y-9904511D01*
X19247286Y-9841011D02*
G75*
G03*
X19247286Y-9841011I-63500J0D01*
G01*
X19470452Y-9363405D02*
X19597452Y-9490405D01*
X19597452Y-9363405D02*
X19470452Y-9490405D01*
X19597452Y-9426905D02*
G75*
G03*
X19597452Y-9426905I-63500J0D01*
G01*
X19519326Y-6375561D02*
X19646326Y-6502561D01*
X19646326Y-6375561D02*
X19519326Y-6502561D01*
X19646326Y-6439061D02*
G75*
G03*
X19646326Y-6439061I-63500J0D01*
G01*
X19801933Y-13262939D02*
X19928933Y-13389939D01*
X19928933Y-13262939D02*
X19801933Y-13389939D01*
X19928933Y-13326439D02*
G75*
G03*
X19928933Y-13326439I-63500J0D01*
G01*
X19841067Y-8108357D02*
X19968067Y-8235357D01*
X19968067Y-8108357D02*
X19841067Y-8235357D01*
X19968067Y-8171857D02*
G75*
G03*
X19968067Y-8171857I-63500J0D01*
G01*
X19869491Y-5961454D02*
X19996491Y-6088454D01*
X19996491Y-5961454D02*
X19869491Y-6088454D01*
X19996491Y-6024954D02*
G75*
G03*
X19996491Y-6024954I-63500J0D01*
G01*
X20342774Y-13223055D02*
X20469774Y-13350055D01*
X20469774Y-13223055D02*
X20342774Y-13350055D01*
X20469774Y-13286555D02*
G75*
G03*
X20469774Y-13286555I-63500J0D01*
G01*
X20381908Y-8068473D02*
X20508908Y-8195473D01*
X20508908Y-8068473D02*
X20381908Y-8195473D01*
X20508908Y-8131973D02*
G75*
G03*
X20508908Y-8131973I-63500J0D01*
G01*
X20692939Y-12808949D02*
X20819939Y-12935949D01*
X20819939Y-12808949D02*
X20692939Y-12935949D01*
X20819939Y-12872449D02*
G75*
G03*
X20819939Y-12872449I-63500J0D01*
G01*
X20703648Y-9801270D02*
X20830648Y-9928270D01*
X20830648Y-9801270D02*
X20703648Y-9928270D01*
X20830648Y-9864770D02*
G75*
G03*
X20830648Y-9864770I-63500J0D01*
G01*
X20732073Y-7654367D02*
X20859073Y-7781367D01*
X20859073Y-7654367D02*
X20732073Y-7781367D01*
X20859073Y-7717867D02*
G75*
G03*
X20859073Y-7717867I-63500J0D01*
G01*
X20815670Y-5099876D02*
X20942670Y-5226876D01*
X20942670Y-5099876D02*
X20815670Y-5226876D01*
X20942670Y-5163376D02*
G75*
G03*
X20942670Y-5163376I-63500J0D01*
G01*
X21244490Y-9761386D02*
X21371490Y-9888386D01*
X21371490Y-9761386D02*
X21244490Y-9888386D01*
X21371490Y-9824886D02*
G75*
G03*
X21371490Y-9824886I-63500J0D01*
G01*
X21279199Y-11977129D02*
X21406199Y-12104129D01*
X21406199Y-11977129D02*
X21279199Y-12104129D01*
X21406199Y-12040629D02*
G75*
G03*
X21406199Y-12040629I-63500J0D01*
G01*
X21357929Y-5107281D02*
X21484929Y-5234281D01*
X21484929Y-5107281D02*
X21357929Y-5234281D01*
X21484929Y-5170781D02*
G75*
G03*
X21484929Y-5170781I-63500J0D01*
G01*
X21527423Y-6861525D02*
X21654423Y-6988525D01*
X21654423Y-6861525D02*
X21527423Y-6988525D01*
X21654423Y-6925025D02*
G75*
G03*
X21654423Y-6925025I-63500J0D01*
G01*
X21594655Y-9347279D02*
X21721655Y-9474279D01*
X21721655Y-9347279D02*
X21594655Y-9474279D01*
X21721655Y-9410779D02*
G75*
G03*
X21721655Y-9410779I-63500J0D01*
G01*
X21742854Y-4725269D02*
X21869854Y-4852269D01*
X21869854Y-4725269D02*
X21742854Y-4852269D01*
X21869854Y-4788769D02*
G75*
G03*
X21869854Y-4788769I-63500J0D01*
G01*
X21820041Y-11937245D02*
X21947041Y-12064245D01*
X21947041Y-11937245D02*
X21820041Y-12064245D01*
X21947041Y-12000745D02*
G75*
G03*
X21947041Y-12000745I-63500J0D01*
G01*
X22069682Y-6868930D02*
X22196682Y-6995930D01*
X22196682Y-6868930D02*
X22069682Y-6995930D01*
X22196682Y-6932430D02*
G75*
G03*
X22196682Y-6932430I-63500J0D01*
G01*
X22170206Y-11523139D02*
X22297206Y-11650139D01*
X22297206Y-11523139D02*
X22170206Y-11650139D01*
X22297206Y-11586639D02*
G75*
G03*
X22297206Y-11586639I-63500J0D01*
G01*
X22239175Y-8623174D02*
X22366175Y-8750174D01*
X22366175Y-8623174D02*
X22239175Y-8750174D01*
X22366175Y-8686674D02*
G75*
G03*
X22366175Y-8686674I-63500J0D01*
G01*
X22454606Y-6486918D02*
X22581606Y-6613918D01*
X22581606Y-6486918D02*
X22454606Y-6613918D01*
X22581606Y-6550418D02*
G75*
G03*
X22581606Y-6550418I-63500J0D01*
G01*
X22781434Y-8630580D02*
X22908434Y-8757580D01*
X22908434Y-8630580D02*
X22781434Y-8757580D01*
X22908434Y-8694080D02*
G75*
G03*
X22908434Y-8694080I-63500J0D01*
G01*
X23104065Y-4834627D02*
X23231065Y-4961627D01*
X23231065Y-4834627D02*
X23104065Y-4961627D01*
X23231065Y-4898127D02*
G75*
G03*
X23231065Y-4898127I-63500J0D01*
G01*
X23166359Y-8248568D02*
X23293359Y-8375568D01*
X23293359Y-8248568D02*
X23166359Y-8375568D01*
X23293359Y-8312068D02*
G75*
G03*
X23293359Y-8312068I-63500J0D01*
G01*
X23643615Y-4889265D02*
X23770615Y-5016265D01*
X23770615Y-4889265D02*
X23643615Y-5016265D01*
X23770615Y-4952765D02*
G75*
G03*
X23770615Y-4952765I-63500J0D01*
G01*
X23659571Y-6651606D02*
X23786571Y-6778606D01*
X23786571Y-6651606D02*
X23659571Y-6778606D01*
X23786571Y-6715106D02*
G75*
G03*
X23786571Y-6715106I-63500J0D01*
G01*
X24060370Y-4542255D02*
X24187370Y-4669255D01*
X24187370Y-4542255D02*
X24060370Y-4669255D01*
X24187370Y-4605755D02*
G75*
G03*
X24187370Y-4605755I-63500J0D01*
G01*
X24199121Y-6706244D02*
X24326121Y-6833244D01*
X24326121Y-6706244D02*
X24199121Y-6833244D01*
X24326121Y-6769744D02*
G75*
G03*
X24326121Y-6769744I-63500J0D01*
G01*
X24215077Y-8468585D02*
X24342077Y-8595585D01*
X24342077Y-8468585D02*
X24215077Y-8595585D01*
X24342077Y-8532085D02*
G75*
G03*
X24342077Y-8532085I-63500J0D01*
G01*
X24615876Y-6359234D02*
X24742876Y-6486234D01*
X24742876Y-6359234D02*
X24615876Y-6486234D01*
X24742876Y-6422734D02*
G75*
G03*
X24742876Y-6422734I-63500J0D01*
G01*
X24754628Y-8523223D02*
X24881628Y-8650223D01*
X24881628Y-8523223D02*
X24754628Y-8650223D01*
X24881628Y-8586723D02*
G75*
G03*
X24881628Y-8586723I-63500J0D01*
G01*
X25171382Y-8176213D02*
X25298382Y-8303213D01*
X25298382Y-8176213D02*
X25171382Y-8303213D01*
X25298382Y-8239713D02*
G75*
G03*
X25298382Y-8239713I-63500J0D01*
G01*
X25734652Y-6014429D02*
X25861652Y-6141429D01*
X25861652Y-6014429D02*
X25734652Y-6141429D01*
X25861652Y-6077929D02*
G75*
G03*
X25861652Y-6077929I-63500J0D01*
G01*
X26065179Y-7885946D02*
X26192179Y-8012946D01*
X26192179Y-7885946D02*
X26065179Y-8012946D01*
X26192179Y-7949446D02*
G75*
G03*
X26192179Y-7949446I-63500J0D01*
G01*
X26263522Y-6134415D02*
X26390522Y-6261415D01*
X26390522Y-6134415D02*
X26263522Y-6261415D01*
X26390522Y-6197915D02*
G75*
G03*
X26390522Y-6197915I-63500J0D01*
G01*
X26594049Y-8005932D02*
X26721049Y-8132932D01*
X26721049Y-8005932D02*
X26594049Y-8132932D01*
X26721049Y-8069432D02*
G75*
G03*
X26721049Y-8069432I-63500J0D01*
G01*
X26719460Y-5840781D02*
X26846460Y-5967781D01*
X26846460Y-5840781D02*
X26719460Y-5967781D01*
X26846460Y-5904281D02*
G75*
G03*
X26846460Y-5904281I-63500J0D01*
G01*
X27049987Y-7712298D02*
X27176987Y-7839298D01*
X27176987Y-7712298D02*
X27049987Y-7839298D01*
X27176987Y-7775798D02*
G75*
G03*
X27176987Y-7775798I-63500J0D01*
G01*
D18*
X14032000Y-7306200D02*
X14162000Y-7436200D01*
X14162000Y-7306200D02*
X14032000Y-7436200D01*
X14097000Y-7306200D02*
X14097000Y-7436200D01*
X14032000Y-7371200D02*
X14162000Y-7371200D01*
X14032000Y-7956200D02*
X14162000Y-8086200D01*
X14162000Y-7956200D02*
X14032000Y-8086200D01*
X14097000Y-7956200D02*
X14097000Y-8086200D01*
X14032000Y-8021200D02*
X14162000Y-8021200D01*
D19*
X3540518Y-7597576D02*
X3690378Y-7747436D01*
X3690378Y-7597576D02*
X3540518Y-7747436D01*
X3668432Y-7725490D02*
X3668432Y-7619522D01*
X3562464Y-7619522D01*
X3562464Y-7725490D01*
X3668432Y-7725490D01*
X3621482Y-7869770D02*
X3771342Y-8019630D01*
X3771342Y-7869770D02*
X3621482Y-8019630D01*
X3749396Y-7997684D02*
X3749396Y-7891716D01*
X3643428Y-7891716D01*
X3643428Y-7997684D01*
X3749396Y-7997684D01*
X3869546Y-5724733D02*
X4019406Y-5874593D01*
X4019406Y-5724733D02*
X3869546Y-5874593D01*
X3997460Y-5852647D02*
X3997460Y-5746679D01*
X3891492Y-5746679D01*
X3891492Y-5852647D01*
X3997460Y-5852647D01*
X3950510Y-5996928D02*
X4100370Y-6146788D01*
X4100370Y-5996928D02*
X3950510Y-6146788D01*
X4078424Y-6124842D02*
X4078424Y-6018874D01*
X3972456Y-6018874D01*
X3972456Y-6124842D01*
X4078424Y-6124842D01*
X4121765Y-7957984D02*
X4271625Y-8107844D01*
X4271625Y-7957984D02*
X4121765Y-8107844D01*
X4249679Y-8085898D02*
X4249679Y-7979930D01*
X4143711Y-7979930D01*
X4143711Y-8085898D01*
X4249679Y-8085898D01*
X4290942Y-7729896D02*
X4440802Y-7879756D01*
X4440802Y-7729896D02*
X4290942Y-7879756D01*
X4418856Y-7857810D02*
X4418856Y-7751842D01*
X4312888Y-7751842D01*
X4312888Y-7857810D01*
X4418856Y-7857810D01*
X4450793Y-6085141D02*
X4600653Y-6235001D01*
X4600653Y-6085141D02*
X4450793Y-6235001D01*
X4578707Y-6213055D02*
X4578707Y-6107087D01*
X4472739Y-6107087D01*
X4472739Y-6213055D01*
X4578707Y-6213055D01*
X4619970Y-5857053D02*
X4769830Y-6006913D01*
X4769830Y-5857053D02*
X4619970Y-6006913D01*
X4747884Y-5984967D02*
X4747884Y-5878999D01*
X4641916Y-5878999D01*
X4641916Y-5984967D01*
X4747884Y-5984967D01*
X5430695Y-8079363D02*
X5580555Y-8229223D01*
X5580555Y-8079363D02*
X5430695Y-8229223D01*
X5558609Y-8207277D02*
X5558609Y-8101309D01*
X5452641Y-8101309D01*
X5452641Y-8207277D01*
X5558609Y-8207277D01*
X5477883Y-8359396D02*
X5627743Y-8509256D01*
X5627743Y-8359396D02*
X5477883Y-8509256D01*
X5605797Y-8487310D02*
X5605797Y-8381342D01*
X5499829Y-8381342D01*
X5499829Y-8487310D01*
X5605797Y-8487310D01*
X5963686Y-8507921D02*
X6113546Y-8657781D01*
X6113546Y-8507921D02*
X5963686Y-8657781D01*
X6091600Y-8635835D02*
X6091600Y-8529867D01*
X5985632Y-8529867D01*
X5985632Y-8635835D01*
X6091600Y-8635835D01*
X5986234Y-6262422D02*
X6136094Y-6412282D01*
X6136094Y-6262422D02*
X5986234Y-6412282D01*
X6114148Y-6390336D02*
X6114148Y-6284368D01*
X6008180Y-6284368D01*
X6008180Y-6390336D01*
X6114148Y-6390336D01*
X6033422Y-6542455D02*
X6183282Y-6692315D01*
X6183282Y-6542455D02*
X6033422Y-6692315D01*
X6161336Y-6670369D02*
X6161336Y-6564401D01*
X6055368Y-6564401D01*
X6055368Y-6670369D01*
X6161336Y-6670369D01*
X6159399Y-8302150D02*
X6309259Y-8452011D01*
X6309259Y-8302150D02*
X6159399Y-8452011D01*
X6287313Y-8430065D02*
X6287313Y-8324096D01*
X6181345Y-8324096D01*
X6181345Y-8430065D01*
X6287313Y-8430065D01*
X6519225Y-6690980D02*
X6669085Y-6840840D01*
X6669085Y-6690980D02*
X6519225Y-6840840D01*
X6647139Y-6818894D02*
X6647139Y-6712926D01*
X6541171Y-6712926D01*
X6541171Y-6818894D01*
X6647139Y-6818894D01*
X6541708Y-4445405D02*
X6691568Y-4595265D01*
X6691568Y-4445405D02*
X6541708Y-4595265D01*
X6669622Y-4573319D02*
X6669622Y-4467351D01*
X6563654Y-4467351D01*
X6563654Y-4573319D01*
X6669622Y-4573319D01*
X6588896Y-4725438D02*
X6738756Y-4875298D01*
X6738756Y-4725438D02*
X6588896Y-4875298D01*
X6716810Y-4853352D02*
X6716810Y-4747384D01*
X6610842Y-4747384D01*
X6610842Y-4853352D01*
X6716810Y-4853352D01*
X6714938Y-6485209D02*
X6864798Y-6635069D01*
X6864798Y-6485209D02*
X6714938Y-6635069D01*
X6842852Y-6613123D02*
X6842852Y-6507155D01*
X6736884Y-6507155D01*
X6736884Y-6613123D01*
X6842852Y-6613123D01*
X7074699Y-4873963D02*
X7224559Y-5023823D01*
X7224559Y-4873963D02*
X7074699Y-5023823D01*
X7202613Y-5001877D02*
X7202613Y-4895909D01*
X7096645Y-4895909D01*
X7096645Y-5001877D01*
X7202613Y-5001877D01*
X7270412Y-4668192D02*
X7420272Y-4818052D01*
X7420272Y-4668192D02*
X7270412Y-4818052D01*
X7398326Y-4796106D02*
X7398326Y-4690138D01*
X7292358Y-4690138D01*
X7292358Y-4796106D01*
X7398326Y-4796106D01*
X7442586Y-8165252D02*
X7592446Y-8315112D01*
X7592446Y-8165252D02*
X7442586Y-8315112D01*
X7570500Y-8293166D02*
X7570500Y-8187198D01*
X7464532Y-8187198D01*
X7464532Y-8293166D01*
X7570500Y-8293166D01*
X7465189Y-8448332D02*
X7615049Y-8598192D01*
X7615049Y-8448332D02*
X7465189Y-8598192D01*
X7593103Y-8576246D02*
X7593103Y-8470278D01*
X7487135Y-8470278D01*
X7487135Y-8576246D01*
X7593103Y-8576246D01*
X7936198Y-8638632D02*
X8086058Y-8788492D01*
X8086058Y-8638632D02*
X7936198Y-8788492D01*
X8064112Y-8766546D02*
X8064112Y-8660578D01*
X7958144Y-8660578D01*
X7958144Y-8766546D01*
X8064112Y-8766546D01*
X8149100Y-8450703D02*
X8298960Y-8600563D01*
X8298960Y-8450703D02*
X8149100Y-8600563D01*
X8277014Y-8578617D02*
X8277014Y-8472649D01*
X8171046Y-8472649D01*
X8171046Y-8578617D01*
X8277014Y-8578617D01*
X8154339Y-6403603D02*
X8304199Y-6553463D01*
X8304199Y-6403603D02*
X8154339Y-6553463D01*
X8282253Y-6531517D02*
X8282253Y-6425549D01*
X8176285Y-6425549D01*
X8176285Y-6531517D01*
X8282253Y-6531517D01*
X8176941Y-6686683D02*
X8326801Y-6836543D01*
X8326801Y-6686683D02*
X8176941Y-6836543D01*
X8304855Y-6814597D02*
X8304855Y-6708629D01*
X8198887Y-6708629D01*
X8198887Y-6814597D01*
X8304855Y-6814597D01*
X8442246Y-11737877D02*
X8592106Y-11887737D01*
X8592106Y-11737877D02*
X8442246Y-11887737D01*
X8570160Y-11865791D02*
X8570160Y-11759823D01*
X8464192Y-11759823D01*
X8464192Y-11865791D01*
X8570160Y-11865791D01*
X8444402Y-11453905D02*
X8594262Y-11603765D01*
X8594262Y-11453905D02*
X8444402Y-11603765D01*
X8572316Y-11581819D02*
X8572316Y-11475851D01*
X8466348Y-11475851D01*
X8466348Y-11581819D01*
X8572316Y-11581819D01*
X8647951Y-6876983D02*
X8797811Y-7026843D01*
X8797811Y-6876983D02*
X8647951Y-7026843D01*
X8775865Y-7004897D02*
X8775865Y-6898929D01*
X8669897Y-6898929D01*
X8669897Y-7004897D01*
X8775865Y-7004897D01*
X8860853Y-6689053D02*
X9010713Y-6838913D01*
X9010713Y-6689053D02*
X8860853Y-6838913D01*
X8988767Y-6816967D02*
X8988767Y-6710999D01*
X8882799Y-6710999D01*
X8882799Y-6816967D01*
X8988767Y-6816967D01*
X8866091Y-4641954D02*
X9015951Y-4791814D01*
X9015951Y-4641954D02*
X8866091Y-4791814D01*
X8994005Y-4769868D02*
X8994005Y-4663900D01*
X8888037Y-4663900D01*
X8888037Y-4769868D01*
X8994005Y-4769868D01*
X8888694Y-4925033D02*
X9038554Y-5074893D01*
X9038554Y-4925033D02*
X8888694Y-5074893D01*
X9016608Y-5052947D02*
X9016608Y-4946979D01*
X8910640Y-4946979D01*
X8910640Y-5052947D01*
X9016608Y-5052947D01*
X8894877Y-11968504D02*
X9044737Y-12118364D01*
X9044737Y-11968504D02*
X8894877Y-12118364D01*
X9022791Y-12096418D02*
X9022791Y-11990450D01*
X8916823Y-11990450D01*
X8916823Y-12096418D01*
X9022791Y-12096418D01*
X9017797Y-9562018D02*
X9167657Y-9711878D01*
X9167657Y-9562018D02*
X9017797Y-9711878D01*
X9145711Y-9689932D02*
X9145711Y-9583964D01*
X9039743Y-9583964D01*
X9039743Y-9689932D01*
X9145711Y-9689932D01*
X9019953Y-9278045D02*
X9169813Y-9427905D01*
X9169813Y-9278045D02*
X9019953Y-9427905D01*
X9147867Y-9405959D02*
X9147867Y-9299991D01*
X9041899Y-9299991D01*
X9041899Y-9405959D01*
X9147867Y-9405959D01*
X9123349Y-11799846D02*
X9273209Y-11949706D01*
X9273209Y-11799846D02*
X9123349Y-11949706D01*
X9251263Y-11927760D02*
X9251263Y-11821792D01*
X9145295Y-11821792D01*
X9145295Y-11927760D01*
X9251263Y-11927760D01*
X9359703Y-5115334D02*
X9509563Y-5265194D01*
X9509563Y-5115334D02*
X9359703Y-5265194D01*
X9487617Y-5243248D02*
X9487617Y-5137280D01*
X9381649Y-5137280D01*
X9381649Y-5243248D01*
X9487617Y-5243248D01*
X9470428Y-9792645D02*
X9620288Y-9942505D01*
X9620288Y-9792645D02*
X9470428Y-9942505D01*
X9598342Y-9920559D02*
X9598342Y-9814591D01*
X9492374Y-9814591D01*
X9492374Y-9920559D01*
X9598342Y-9920559D01*
X9572606Y-4927404D02*
X9722466Y-5077264D01*
X9722466Y-4927404D02*
X9572606Y-5077264D01*
X9700520Y-5055318D02*
X9700520Y-4949350D01*
X9594552Y-4949350D01*
X9594552Y-5055318D01*
X9700520Y-5055318D01*
X9698900Y-9623986D02*
X9848760Y-9773846D01*
X9848760Y-9623986D02*
X9698900Y-9773846D01*
X9826814Y-9751900D02*
X9826814Y-9645932D01*
X9720846Y-9645932D01*
X9720846Y-9751900D01*
X9826814Y-9751900D01*
X9880379Y-7869105D02*
X10030239Y-8018965D01*
X10030239Y-7869105D02*
X9880379Y-8018965D01*
X10008293Y-7997019D02*
X10008293Y-7891051D01*
X9902325Y-7891051D01*
X9902325Y-7997019D01*
X10008293Y-7997019D01*
X9882535Y-7585133D02*
X10032395Y-7734993D01*
X10032395Y-7585133D02*
X9882535Y-7734993D01*
X10010449Y-7713047D02*
X10010449Y-7607079D01*
X9904481Y-7607079D01*
X9904481Y-7713047D01*
X10010449Y-7713047D01*
X9919513Y-13023687D02*
X10069373Y-13173547D01*
X10069373Y-13023687D02*
X9919513Y-13173547D01*
X10047427Y-13151601D02*
X10047427Y-13045633D01*
X9941459Y-13045633D01*
X9941459Y-13151601D01*
X10047427Y-13151601D01*
X9921669Y-12739715D02*
X10071529Y-12889575D01*
X10071529Y-12739715D02*
X9921669Y-12889575D01*
X10049583Y-12867629D02*
X10049583Y-12761661D01*
X9943615Y-12761661D01*
X9943615Y-12867629D01*
X10049583Y-12867629D01*
X10333010Y-8099732D02*
X10482870Y-8249592D01*
X10482870Y-8099732D02*
X10333010Y-8249592D01*
X10460924Y-8227646D02*
X10460924Y-8121678D01*
X10354956Y-8121678D01*
X10354956Y-8227646D01*
X10460924Y-8227646D01*
X10372144Y-13254315D02*
X10522004Y-13404175D01*
X10522004Y-13254315D02*
X10372144Y-13404175D01*
X10500058Y-13382229D02*
X10500058Y-13276261D01*
X10394090Y-13276261D01*
X10394090Y-13382229D01*
X10500058Y-13382229D01*
X10561482Y-7931073D02*
X10711342Y-8080933D01*
X10711342Y-7931073D02*
X10561482Y-8080933D01*
X10689396Y-8058987D02*
X10689396Y-7953019D01*
X10583428Y-7953019D01*
X10583428Y-8058987D01*
X10689396Y-8058987D01*
X10600616Y-13085656D02*
X10750476Y-13235516D01*
X10750476Y-13085656D02*
X10600616Y-13235516D01*
X10728530Y-13213570D02*
X10728530Y-13107602D01*
X10622562Y-13107602D01*
X10622562Y-13213570D01*
X10728530Y-13213570D01*
X10742961Y-6176193D02*
X10892821Y-6326053D01*
X10892821Y-6176193D02*
X10742961Y-6326053D01*
X10870875Y-6304107D02*
X10870875Y-6198139D01*
X10764907Y-6198139D01*
X10764907Y-6304107D01*
X10870875Y-6304107D01*
X10745117Y-5892220D02*
X10894977Y-6042080D01*
X10894977Y-5892220D02*
X10745117Y-6042080D01*
X10873031Y-6020134D02*
X10873031Y-5914166D01*
X10767063Y-5914166D01*
X10767063Y-6020134D01*
X10873031Y-6020134D01*
X11142000Y-9578143D02*
X11291860Y-9728003D01*
X11291860Y-9578143D02*
X11142000Y-9728003D01*
X11269914Y-9706057D02*
X11269914Y-9600089D01*
X11163946Y-9600089D01*
X11163946Y-9706057D01*
X11269914Y-9706057D01*
X11144156Y-9294171D02*
X11294016Y-9444031D01*
X11294016Y-9294171D02*
X11144156Y-9444031D01*
X11272070Y-9422085D02*
X11272070Y-9316117D01*
X11166102Y-9316117D01*
X11166102Y-9422085D01*
X11272070Y-9422085D01*
X11195592Y-6406820D02*
X11345452Y-6556680D01*
X11345452Y-6406820D02*
X11195592Y-6556680D01*
X11323506Y-6534734D02*
X11323506Y-6428766D01*
X11217538Y-6428766D01*
X11217538Y-6534734D01*
X11323506Y-6534734D01*
X11424064Y-6238161D02*
X11573924Y-6388021D01*
X11573924Y-6238161D02*
X11424064Y-6388021D01*
X11551978Y-6366075D02*
X11551978Y-6260107D01*
X11446010Y-6260107D01*
X11446010Y-6366075D01*
X11551978Y-6366075D01*
X11594632Y-9808770D02*
X11744492Y-9958630D01*
X11744492Y-9808770D02*
X11594632Y-9958630D01*
X11722546Y-9936684D02*
X11722546Y-9830716D01*
X11616578Y-9830716D01*
X11616578Y-9936684D01*
X11722546Y-9936684D01*
X11823103Y-9640112D02*
X11972963Y-9789972D01*
X11972963Y-9640112D02*
X11823103Y-9789972D01*
X11951017Y-9768026D02*
X11951017Y-9662058D01*
X11845049Y-9662058D01*
X11845049Y-9768026D01*
X11951017Y-9768026D01*
X12004582Y-7885231D02*
X12154442Y-8035091D01*
X12154442Y-7885231D02*
X12004582Y-8035091D01*
X12132496Y-8013145D02*
X12132496Y-7907177D01*
X12026528Y-7907177D01*
X12026528Y-8013145D01*
X12132496Y-8013145D01*
X12006738Y-7601258D02*
X12156598Y-7751118D01*
X12156598Y-7601258D02*
X12006738Y-7751118D01*
X12134652Y-7729172D02*
X12134652Y-7623204D01*
X12028684Y-7623204D01*
X12028684Y-7729172D01*
X12134652Y-7729172D01*
X12457214Y-8115858D02*
X12607074Y-8265718D01*
X12607074Y-8115858D02*
X12457214Y-8265718D01*
X12585128Y-8243772D02*
X12585128Y-8137804D01*
X12479160Y-8137804D01*
X12479160Y-8243772D01*
X12585128Y-8243772D01*
X12685685Y-7947199D02*
X12835545Y-8097059D01*
X12835545Y-7947199D02*
X12685685Y-8097059D01*
X12813599Y-8075113D02*
X12813599Y-7969145D01*
X12707631Y-7969145D01*
X12707631Y-8075113D01*
X12813599Y-8075113D01*
X17754260Y-7946761D02*
X17904120Y-8096621D01*
X17904120Y-7946761D02*
X17754260Y-8096621D01*
X17882174Y-8074675D02*
X17882174Y-7968707D01*
X17776206Y-7968707D01*
X17776206Y-8074675D01*
X17882174Y-8074675D01*
X17982731Y-8115420D02*
X18132591Y-8265280D01*
X18132591Y-8115420D02*
X17982731Y-8265280D01*
X18110645Y-8243334D02*
X18110645Y-8137366D01*
X18004677Y-8137366D01*
X18004677Y-8243334D01*
X18110645Y-8243334D01*
X18433207Y-7600820D02*
X18583067Y-7750680D01*
X18583067Y-7600820D02*
X18433207Y-7750680D01*
X18561121Y-7728734D02*
X18561121Y-7622766D01*
X18455153Y-7622766D01*
X18455153Y-7728734D01*
X18561121Y-7728734D01*
X18435363Y-7884793D02*
X18585223Y-8034653D01*
X18585223Y-7884793D02*
X18435363Y-8034653D01*
X18563277Y-8012707D02*
X18563277Y-7906739D01*
X18457309Y-7906739D01*
X18457309Y-8012707D01*
X18563277Y-8012707D01*
X18616842Y-9639674D02*
X18766702Y-9789534D01*
X18766702Y-9639674D02*
X18616842Y-9789534D01*
X18744756Y-9767588D02*
X18744756Y-9661620D01*
X18638788Y-9661620D01*
X18638788Y-9767588D01*
X18744756Y-9767588D01*
X18845313Y-9808332D02*
X18995173Y-9958192D01*
X18995173Y-9808332D02*
X18845313Y-9958192D01*
X18973227Y-9936246D02*
X18973227Y-9830278D01*
X18867259Y-9830278D01*
X18867259Y-9936246D01*
X18973227Y-9936246D01*
X19015881Y-6237723D02*
X19165741Y-6387583D01*
X19165741Y-6237723D02*
X19015881Y-6387583D01*
X19143795Y-6365637D02*
X19143795Y-6259669D01*
X19037827Y-6259669D01*
X19037827Y-6365637D01*
X19143795Y-6365637D01*
X19244353Y-6406382D02*
X19394213Y-6556242D01*
X19394213Y-6406382D02*
X19244353Y-6556242D01*
X19372267Y-6534296D02*
X19372267Y-6428328D01*
X19266299Y-6428328D01*
X19266299Y-6534296D01*
X19372267Y-6534296D01*
X19295789Y-9293733D02*
X19445649Y-9443593D01*
X19445649Y-9293733D02*
X19295789Y-9443593D01*
X19423703Y-9421647D02*
X19423703Y-9315679D01*
X19317735Y-9315679D01*
X19317735Y-9421647D01*
X19423703Y-9421647D01*
X19297945Y-9577705D02*
X19447805Y-9727565D01*
X19447805Y-9577705D02*
X19297945Y-9727565D01*
X19425859Y-9705619D02*
X19425859Y-9599651D01*
X19319891Y-9599651D01*
X19319891Y-9705619D01*
X19425859Y-9705619D01*
X19694828Y-5891782D02*
X19844688Y-6041642D01*
X19844688Y-5891782D02*
X19694828Y-6041642D01*
X19822742Y-6019696D02*
X19822742Y-5913728D01*
X19716774Y-5913728D01*
X19716774Y-6019696D01*
X19822742Y-6019696D01*
X19696984Y-6175755D02*
X19846844Y-6325615D01*
X19846844Y-6175755D02*
X19696984Y-6325615D01*
X19824898Y-6303669D02*
X19824898Y-6197701D01*
X19718930Y-6197701D01*
X19718930Y-6303669D01*
X19824898Y-6303669D01*
X19839329Y-13085218D02*
X19989189Y-13235078D01*
X19989189Y-13085218D02*
X19839329Y-13235078D01*
X19967243Y-13213132D02*
X19967243Y-13107164D01*
X19861275Y-13107164D01*
X19861275Y-13213132D01*
X19967243Y-13213132D01*
X19878463Y-7930635D02*
X20028323Y-8080495D01*
X20028323Y-7930635D02*
X19878463Y-8080495D01*
X20006377Y-8058549D02*
X20006377Y-7952581D01*
X19900409Y-7952581D01*
X19900409Y-8058549D01*
X20006377Y-8058549D01*
X20067801Y-13253877D02*
X20217661Y-13403737D01*
X20217661Y-13253877D02*
X20067801Y-13403737D01*
X20195715Y-13381791D02*
X20195715Y-13275823D01*
X20089747Y-13275823D01*
X20089747Y-13381791D01*
X20195715Y-13381791D01*
X20106935Y-8099294D02*
X20256795Y-8249154D01*
X20256795Y-8099294D02*
X20106935Y-8249154D01*
X20234849Y-8227208D02*
X20234849Y-8121240D01*
X20128881Y-8121240D01*
X20128881Y-8227208D01*
X20234849Y-8227208D01*
X20518276Y-12739277D02*
X20668136Y-12889137D01*
X20668136Y-12739277D02*
X20518276Y-12889137D01*
X20646190Y-12867191D02*
X20646190Y-12761223D01*
X20540222Y-12761223D01*
X20540222Y-12867191D01*
X20646190Y-12867191D01*
X20520432Y-13023249D02*
X20670292Y-13173109D01*
X20670292Y-13023249D02*
X20520432Y-13173109D01*
X20648346Y-13151163D02*
X20648346Y-13045195D01*
X20542378Y-13045195D01*
X20542378Y-13151163D01*
X20648346Y-13151163D01*
X20557410Y-7584695D02*
X20707270Y-7734555D01*
X20707270Y-7584695D02*
X20557410Y-7734555D01*
X20685324Y-7712609D02*
X20685324Y-7606641D01*
X20579356Y-7606641D01*
X20579356Y-7712609D01*
X20685324Y-7712609D01*
X20559566Y-7868667D02*
X20709426Y-8018527D01*
X20709426Y-7868667D02*
X20559566Y-8018527D01*
X20687480Y-7996581D02*
X20687480Y-7890613D01*
X20581512Y-7890613D01*
X20581512Y-7996581D01*
X20687480Y-7996581D01*
X20741045Y-9623548D02*
X20890905Y-9773408D01*
X20890905Y-9623548D02*
X20741045Y-9773408D01*
X20868959Y-9751462D02*
X20868959Y-9645494D01*
X20762991Y-9645494D01*
X20762991Y-9751462D01*
X20868959Y-9751462D01*
X20867374Y-4927042D02*
X21017234Y-5076902D01*
X21017234Y-4927042D02*
X20867374Y-5076902D01*
X20995288Y-5054956D02*
X20995288Y-4948988D01*
X20889320Y-4948988D01*
X20889320Y-5054956D01*
X20995288Y-5054956D01*
X20969517Y-9792207D02*
X21119377Y-9942067D01*
X21119377Y-9792207D02*
X20969517Y-9942067D01*
X21097431Y-9920121D02*
X21097431Y-9814153D01*
X20991463Y-9814153D01*
X20991463Y-9920121D01*
X21097431Y-9920121D01*
X21080277Y-5114972D02*
X21230137Y-5264832D01*
X21230137Y-5114972D02*
X21080277Y-5264832D01*
X21208191Y-5242886D02*
X21208191Y-5136918D01*
X21102223Y-5136918D01*
X21102223Y-5242886D01*
X21208191Y-5242886D01*
X21316596Y-11799408D02*
X21466456Y-11949268D01*
X21466456Y-11799408D02*
X21316596Y-11949268D01*
X21444510Y-11927322D02*
X21444510Y-11821354D01*
X21338542Y-11821354D01*
X21338542Y-11927322D01*
X21444510Y-11927322D01*
X21419992Y-9277607D02*
X21569852Y-9427467D01*
X21569852Y-9277607D02*
X21419992Y-9427467D01*
X21547906Y-9405521D02*
X21547906Y-9299553D01*
X21441938Y-9299553D01*
X21441938Y-9405521D01*
X21547906Y-9405521D01*
X21422148Y-9561580D02*
X21572008Y-9711440D01*
X21572008Y-9561580D02*
X21422148Y-9711440D01*
X21550062Y-9689494D02*
X21550062Y-9583526D01*
X21444094Y-9583526D01*
X21444094Y-9689494D01*
X21550062Y-9689494D01*
X21545068Y-11968066D02*
X21694928Y-12117926D01*
X21694928Y-11968066D02*
X21545068Y-12117926D01*
X21672982Y-12095980D02*
X21672982Y-11990012D01*
X21567014Y-11990012D01*
X21567014Y-12095980D01*
X21672982Y-12095980D01*
X21551286Y-4924672D02*
X21701146Y-5074532D01*
X21701146Y-4924672D02*
X21551286Y-5074532D01*
X21679200Y-5052586D02*
X21679200Y-4946618D01*
X21573232Y-4946618D01*
X21573232Y-5052586D01*
X21679200Y-5052586D01*
X21573889Y-4641592D02*
X21723749Y-4791452D01*
X21723749Y-4641592D02*
X21573889Y-4791452D01*
X21701803Y-4769506D02*
X21701803Y-4663538D01*
X21595835Y-4663538D01*
X21595835Y-4769506D01*
X21701803Y-4769506D01*
X21579127Y-6688692D02*
X21728987Y-6838552D01*
X21728987Y-6688692D02*
X21579127Y-6838552D01*
X21707041Y-6816606D02*
X21707041Y-6710638D01*
X21601073Y-6710638D01*
X21601073Y-6816606D01*
X21707041Y-6816606D01*
X21792029Y-6876621D02*
X21941889Y-7026481D01*
X21941889Y-6876621D02*
X21792029Y-7026481D01*
X21919943Y-7004535D02*
X21919943Y-6898567D01*
X21813975Y-6898567D01*
X21813975Y-7004535D01*
X21919943Y-7004535D01*
X21995543Y-11453467D02*
X22145403Y-11603327D01*
X22145403Y-11453467D02*
X21995543Y-11603327D01*
X22123457Y-11581381D02*
X22123457Y-11475413D01*
X22017489Y-11475413D01*
X22017489Y-11581381D01*
X22123457Y-11581381D01*
X21997699Y-11737439D02*
X22147559Y-11887299D01*
X22147559Y-11737439D02*
X21997699Y-11887299D01*
X22125613Y-11865353D02*
X22125613Y-11759385D01*
X22019645Y-11759385D01*
X22019645Y-11865353D01*
X22125613Y-11865353D01*
X22263039Y-6686321D02*
X22412899Y-6836181D01*
X22412899Y-6686321D02*
X22263039Y-6836181D01*
X22390953Y-6814235D02*
X22390953Y-6708267D01*
X22284985Y-6708267D01*
X22284985Y-6814235D01*
X22390953Y-6814235D01*
X22285641Y-6403241D02*
X22435501Y-6553101D01*
X22435501Y-6403241D02*
X22285641Y-6553101D01*
X22413555Y-6531155D02*
X22413555Y-6425187D01*
X22307587Y-6425187D01*
X22307587Y-6531155D01*
X22413555Y-6531155D01*
X22290879Y-8450341D02*
X22440739Y-8600201D01*
X22440739Y-8450341D02*
X22290879Y-8600201D01*
X22418793Y-8578255D02*
X22418793Y-8472287D01*
X22312825Y-8472287D01*
X22312825Y-8578255D01*
X22418793Y-8578255D01*
X22503782Y-8638271D02*
X22653642Y-8788131D01*
X22653642Y-8638271D02*
X22503782Y-8788131D01*
X22631696Y-8766185D02*
X22631696Y-8660217D01*
X22525728Y-8660217D01*
X22525728Y-8766185D01*
X22631696Y-8766185D01*
X22974791Y-8447971D02*
X23124651Y-8597831D01*
X23124651Y-8447971D02*
X22974791Y-8597831D01*
X23102705Y-8575885D02*
X23102705Y-8469917D01*
X22996737Y-8469917D01*
X22996737Y-8575885D01*
X23102705Y-8575885D01*
X22997393Y-8164891D02*
X23147253Y-8314751D01*
X23147253Y-8164891D02*
X22997393Y-8314751D01*
X23125307Y-8292805D02*
X23125307Y-8186837D01*
X23019339Y-8186837D01*
X23019339Y-8292805D01*
X23125307Y-8292805D01*
X23169596Y-4667910D02*
X23319456Y-4817770D01*
X23319456Y-4667910D02*
X23169596Y-4817770D01*
X23297510Y-4795824D02*
X23297510Y-4689856D01*
X23191542Y-4689856D01*
X23191542Y-4795824D01*
X23297510Y-4795824D01*
X23365309Y-4873681D02*
X23515169Y-5023541D01*
X23515169Y-4873681D02*
X23365309Y-5023541D01*
X23493223Y-5001595D02*
X23493223Y-4895627D01*
X23387255Y-4895627D01*
X23387255Y-5001595D01*
X23493223Y-5001595D01*
X23725102Y-6484889D02*
X23874962Y-6634749D01*
X23874962Y-6484889D02*
X23725102Y-6634749D01*
X23853016Y-6612803D02*
X23853016Y-6506835D01*
X23747048Y-6506835D01*
X23747048Y-6612803D01*
X23853016Y-6612803D01*
X23851112Y-4725156D02*
X24000972Y-4875016D01*
X24000972Y-4725156D02*
X23851112Y-4875016D01*
X23979026Y-4853070D02*
X23979026Y-4747102D01*
X23873058Y-4747102D01*
X23873058Y-4853070D01*
X23979026Y-4853070D01*
X23898300Y-4445123D02*
X24048160Y-4594983D01*
X24048160Y-4445123D02*
X23898300Y-4594983D01*
X24026214Y-4573037D02*
X24026214Y-4467069D01*
X23920246Y-4467069D01*
X23920246Y-4573037D01*
X24026214Y-4573037D01*
X23920816Y-6690660D02*
X24070676Y-6840520D01*
X24070676Y-6690660D02*
X23920816Y-6840520D01*
X24048730Y-6818574D02*
X24048730Y-6712606D01*
X23942762Y-6712606D01*
X23942762Y-6818574D01*
X24048730Y-6818574D01*
X24280609Y-8301868D02*
X24430469Y-8451729D01*
X24430469Y-8301868D02*
X24280609Y-8451729D01*
X24408523Y-8429783D02*
X24408523Y-8323814D01*
X24302555Y-8323814D01*
X24302555Y-8429783D01*
X24408523Y-8429783D01*
X24406618Y-6542135D02*
X24556478Y-6691995D01*
X24556478Y-6542135D02*
X24406618Y-6691995D01*
X24534532Y-6670049D02*
X24534532Y-6564081D01*
X24428564Y-6564081D01*
X24428564Y-6670049D01*
X24534532Y-6670049D01*
X24453807Y-6262102D02*
X24603667Y-6411962D01*
X24603667Y-6262102D02*
X24453807Y-6411962D01*
X24581721Y-6390016D02*
X24581721Y-6284048D01*
X24475753Y-6284048D01*
X24475753Y-6390016D01*
X24581721Y-6390016D01*
X24476322Y-8507639D02*
X24626182Y-8657499D01*
X24626182Y-8507639D02*
X24476322Y-8657499D01*
X24604236Y-8635553D02*
X24604236Y-8529585D01*
X24498268Y-8529585D01*
X24498268Y-8635553D01*
X24604236Y-8635553D01*
X24962125Y-8359114D02*
X25111985Y-8508974D01*
X25111985Y-8359114D02*
X24962125Y-8508974D01*
X25090039Y-8487028D02*
X25090039Y-8381060D01*
X24984071Y-8381060D01*
X24984071Y-8487028D01*
X25090039Y-8487028D01*
X25009313Y-8079081D02*
X25159173Y-8228941D01*
X25159173Y-8079081D02*
X25009313Y-8228941D01*
X25137227Y-8206995D02*
X25137227Y-8101027D01*
X25031259Y-8101027D01*
X25031259Y-8206995D01*
X25137227Y-8206995D01*
X25818535Y-5858250D02*
X25968395Y-6008110D01*
X25968395Y-5858250D02*
X25818535Y-6008110D01*
X25946449Y-5986164D02*
X25946449Y-5880196D01*
X25840481Y-5880196D01*
X25840481Y-5986164D01*
X25946449Y-5986164D01*
X25987712Y-6086337D02*
X26137572Y-6236197D01*
X26137572Y-6086337D02*
X25987712Y-6236197D01*
X26115626Y-6214251D02*
X26115626Y-6108283D01*
X26009658Y-6108283D01*
X26009658Y-6214251D01*
X26115626Y-6214251D01*
X26149061Y-7729766D02*
X26298921Y-7879626D01*
X26298921Y-7729766D02*
X26149061Y-7879626D01*
X26276975Y-7857680D02*
X26276975Y-7751712D01*
X26171007Y-7751712D01*
X26171007Y-7857680D01*
X26276975Y-7857680D01*
X26318238Y-7957854D02*
X26468098Y-8107714D01*
X26468098Y-7957854D02*
X26318238Y-8107714D01*
X26446152Y-8085768D02*
X26446152Y-7979800D01*
X26340184Y-7979800D01*
X26340184Y-8085768D01*
X26446152Y-8085768D01*
X26487994Y-5998124D02*
X26637854Y-6147984D01*
X26637854Y-5998124D02*
X26487994Y-6147984D01*
X26615908Y-6126038D02*
X26615908Y-6020070D01*
X26509940Y-6020070D01*
X26509940Y-6126038D01*
X26615908Y-6126038D01*
X26568958Y-5725930D02*
X26718818Y-5875790D01*
X26718818Y-5725930D02*
X26568958Y-5875790D01*
X26696872Y-5853844D02*
X26696872Y-5747876D01*
X26590904Y-5747876D01*
X26590904Y-5853844D01*
X26696872Y-5853844D01*
X26818521Y-7869641D02*
X26968381Y-8019501D01*
X26968381Y-7869641D02*
X26818521Y-8019501D01*
X26946435Y-7997555D02*
X26946435Y-7891587D01*
X26840467Y-7891587D01*
X26840467Y-7997555D01*
X26946435Y-7997555D01*
X26899485Y-7597446D02*
X27049345Y-7747306D01*
X27049345Y-7597446D02*
X26899485Y-7747306D01*
X27027399Y-7725360D02*
X27027399Y-7619392D01*
X26921431Y-7619392D01*
X26921431Y-7725360D01*
X27027399Y-7725360D01*
D20*
X11478289Y-11752368D02*
X11628289Y-11902368D01*
X11628289Y-11752368D02*
X11478289Y-11902368D01*
X11553289Y-11902368D02*
X11628289Y-11827368D01*
X11553289Y-11752368D01*
X11478289Y-11827368D01*
X11553289Y-11902368D01*
D12*
X11640714Y-11798962D02*
X11524883Y-11739943D01*
X11581695Y-11914793D02*
X11465864Y-11855774D01*
X11524883Y-11739943D02*
G75*
G03*
X11465864Y-11855774I-29509J-57915D01*
G01*
X11581695Y-11914793D02*
G75*
G03*
X11640714Y-11798962I29509J57915D01*
G01*
D20*
X11986759Y-10754441D02*
X12136759Y-10904441D01*
X12136759Y-10754441D02*
X11986759Y-10904441D01*
X12061759Y-10904441D02*
X12136759Y-10829441D01*
X12061759Y-10754441D01*
X11986759Y-10829441D01*
X12061759Y-10904441D01*
D12*
X12149183Y-10801035D02*
X12033353Y-10742016D01*
X12090165Y-10916866D02*
X11974334Y-10857847D01*
X12033353Y-10742016D02*
G75*
G03*
X11974334Y-10857847I-29509J-57915D01*
G01*
X12090165Y-10916866D02*
G75*
G03*
X12149183Y-10801035I29509J57915D01*
G01*
D20*
X18364460Y-10799386D02*
X18514460Y-10949386D01*
X18514460Y-10799386D02*
X18364460Y-10949386D01*
X18439460Y-10949386D02*
X18514460Y-10874386D01*
X18439460Y-10799386D01*
X18364460Y-10874386D01*
X18439460Y-10949386D01*
D12*
X18411054Y-10961811D02*
X18526884Y-10902792D01*
X18352035Y-10845980D02*
X18467866Y-10786961D01*
X18526884Y-10902792D02*
G75*
G03*
X18467866Y-10786961I-29509J57915D01*
G01*
X18352035Y-10845980D02*
G75*
G03*
X18411054Y-10961811I29509J-57915D01*
G01*
D20*
X18872929Y-11797313D02*
X19022929Y-11947313D01*
X19022929Y-11797313D02*
X18872929Y-11947313D01*
X18947929Y-11947313D02*
X19022929Y-11872313D01*
X18947929Y-11797313D01*
X18872929Y-11872313D01*
X18947929Y-11947313D01*
D12*
X18919523Y-11959738D02*
X19035354Y-11900719D01*
X18860504Y-11843907D02*
X18976335Y-11784888D01*
X19035354Y-11900719D02*
G75*
G03*
X18976335Y-11784888I-29509J57915D01*
G01*
X18860504Y-11843907D02*
G75*
G03*
X18919523Y-11959738I29509J-57915D01*
G01*
D21*
X4902200Y-8170400D02*
X4902200Y-8390400D01*
X4792200Y-8280400D02*
X5012200Y-8280400D01*
X5012200Y-8280400D02*
G75*
G03*
X5012200Y-8280400I-110000J0D01*
G01*
X7645400Y-5605000D02*
X7645400Y-5825000D01*
X7535400Y-5715000D02*
X7755400Y-5715000D01*
X7755400Y-5715000D02*
G75*
G03*
X7755400Y-5715000I-110000J0D01*
G01*
X10058400Y-5833600D02*
X10058400Y-6053600D01*
X9948400Y-5943600D02*
X10168400Y-5943600D01*
X10168400Y-5943600D02*
G75*
G03*
X10168400Y-5943600I-110000J0D01*
G01*
X11049000Y-10151600D02*
X11049000Y-10371600D01*
X10939000Y-10261600D02*
X11159000Y-10261600D01*
X11159000Y-10261600D02*
G75*
G03*
X11159000Y-10261600I-110000J0D01*
G01*
X18999200Y-7052800D02*
X18999200Y-7272800D01*
X18889200Y-7162800D02*
X19109200Y-7162800D01*
X19109200Y-7162800D02*
G75*
G03*
X19109200Y-7162800I-110000J0D01*
G01*
X20015200Y-10786600D02*
X20015200Y-11006600D01*
X19905200Y-10896600D02*
X20125200Y-10896600D01*
X20125200Y-10896600D02*
G75*
G03*
X20125200Y-10896600I-110000J0D01*
G01*
X22987000Y-5655800D02*
X22987000Y-5875800D01*
X22877000Y-5765800D02*
X23097000Y-5765800D01*
X23097000Y-5765800D02*
G75*
G03*
X23097000Y-5765800I-110000J0D01*
G01*
X25730200Y-8272000D02*
X25730200Y-8492000D01*
X25620200Y-8382000D02*
X25840200Y-8382000D01*
X25840200Y-8382000D02*
G75*
G03*
X25840200Y-8382000I-110000J0D01*
G01*
D12*
X3181760Y-14127112D02*
X3181760Y-13927112D01*
X3229379Y-13927112D01*
X3257951Y-13936636D01*
X3276998Y-13955684D01*
X3286522Y-13974731D01*
X3296046Y-14012827D01*
X3296046Y-14041398D01*
X3286522Y-14079493D01*
X3276998Y-14098541D01*
X3257951Y-14117589D01*
X3229379Y-14127112D01*
X3181760Y-14127112D01*
X3381760Y-14127112D02*
X3381760Y-13993779D01*
X3381760Y-14031874D02*
X3391284Y-14012827D01*
X3400808Y-14003303D01*
X3419855Y-13993779D01*
X3438903Y-13993779D01*
X3505570Y-14127112D02*
X3505570Y-13993779D01*
X3505570Y-13927112D02*
X3496046Y-13936636D01*
X3505570Y-13946160D01*
X3515094Y-13936636D01*
X3505570Y-13927112D01*
X3505570Y-13946160D01*
X3629379Y-14127112D02*
X3610332Y-14117589D01*
X3600808Y-14098541D01*
X3600808Y-13927112D01*
X3734141Y-14127112D02*
X3715094Y-14117589D01*
X3705570Y-14098541D01*
X3705570Y-13927112D01*
X3962713Y-14127112D02*
X3962713Y-13927112D01*
X4029379Y-14069970D01*
X4096046Y-13927112D01*
X4096046Y-14127112D01*
X4276998Y-14127112D02*
X4276998Y-14022350D01*
X4267475Y-14003303D01*
X4248427Y-13993779D01*
X4210332Y-13993779D01*
X4191284Y-14003303D01*
X4276998Y-14117589D02*
X4257951Y-14127112D01*
X4210332Y-14127112D01*
X4191284Y-14117589D01*
X4181760Y-14098541D01*
X4181760Y-14079493D01*
X4191284Y-14060446D01*
X4210332Y-14050922D01*
X4257951Y-14050922D01*
X4276998Y-14041398D01*
X4372237Y-13993779D02*
X4372237Y-14193779D01*
X4372237Y-14003303D02*
X4391284Y-13993779D01*
X4429379Y-13993779D01*
X4448427Y-14003303D01*
X4457951Y-14012827D01*
X4467475Y-14031874D01*
X4467475Y-14089017D01*
X4457951Y-14108065D01*
X4448427Y-14117589D01*
X4429379Y-14127112D01*
X4391284Y-14127112D01*
X4372237Y-14117589D01*
X4553189Y-14108065D02*
X4562713Y-14117589D01*
X4553189Y-14127112D01*
X4543665Y-14117589D01*
X4553189Y-14108065D01*
X4553189Y-14127112D01*
X4553189Y-14003303D02*
X4562713Y-14012827D01*
X4553189Y-14022350D01*
X4543665Y-14012827D01*
X4553189Y-14003303D01*
X4553189Y-14022350D01*
D13*
X2884141Y-14436636D02*
X2924141Y-14476636D01*
X2924141Y-14436636D02*
X2884141Y-14476636D01*
D12*
X3219855Y-14347112D02*
X3238903Y-14347112D01*
X3257951Y-14356636D01*
X3267475Y-14366160D01*
X3276998Y-14385208D01*
X3286522Y-14423303D01*
X3286522Y-14470922D01*
X3276998Y-14509017D01*
X3267475Y-14528065D01*
X3257951Y-14537589D01*
X3238903Y-14547112D01*
X3219855Y-14547112D01*
X3200808Y-14537589D01*
X3191284Y-14528065D01*
X3181760Y-14509017D01*
X3172236Y-14470922D01*
X3172236Y-14423303D01*
X3181760Y-14385208D01*
X3191284Y-14366160D01*
X3200808Y-14356636D01*
X3219855Y-14347112D01*
X3372236Y-14528065D02*
X3381760Y-14537589D01*
X3372236Y-14547112D01*
X3362713Y-14537589D01*
X3372236Y-14528065D01*
X3372236Y-14547112D01*
X3553189Y-14413779D02*
X3553189Y-14547112D01*
X3505570Y-14337589D02*
X3457951Y-14480446D01*
X3581760Y-14480446D01*
X3696046Y-14347112D02*
X3715094Y-14347112D01*
X3734141Y-14356636D01*
X3743665Y-14366160D01*
X3753189Y-14385208D01*
X3762713Y-14423303D01*
X3762713Y-14470922D01*
X3753189Y-14509017D01*
X3743665Y-14528065D01*
X3734141Y-14537589D01*
X3715094Y-14547112D01*
X3696046Y-14547112D01*
X3676998Y-14537589D01*
X3667475Y-14528065D01*
X3657951Y-14509017D01*
X3648427Y-14470922D01*
X3648427Y-14423303D01*
X3657951Y-14385208D01*
X3667475Y-14366160D01*
X3676998Y-14356636D01*
X3696046Y-14347112D01*
X3886522Y-14347112D02*
X3905570Y-14347112D01*
X3924617Y-14356636D01*
X3934141Y-14366160D01*
X3943665Y-14385208D01*
X3953189Y-14423303D01*
X3953189Y-14470922D01*
X3943665Y-14509017D01*
X3934141Y-14528065D01*
X3924617Y-14537589D01*
X3905570Y-14547112D01*
X3886522Y-14547112D01*
X3867475Y-14537589D01*
X3857951Y-14528065D01*
X3848427Y-14509017D01*
X3838903Y-14470922D01*
X3838903Y-14423303D01*
X3848427Y-14385208D01*
X3857951Y-14366160D01*
X3867475Y-14356636D01*
X3886522Y-14347112D01*
X4038903Y-14547112D02*
X4038903Y-14413779D01*
X4038903Y-14432827D02*
X4048427Y-14423303D01*
X4067475Y-14413779D01*
X4096046Y-14413779D01*
X4115094Y-14423303D01*
X4124617Y-14442350D01*
X4124617Y-14547112D01*
X4124617Y-14442350D02*
X4134141Y-14423303D01*
X4153189Y-14413779D01*
X4181760Y-14413779D01*
X4200808Y-14423303D01*
X4210332Y-14442350D01*
X4210332Y-14547112D01*
X4305570Y-14547112D02*
X4305570Y-14413779D01*
X4305570Y-14432827D02*
X4315094Y-14423303D01*
X4334141Y-14413779D01*
X4362713Y-14413779D01*
X4381760Y-14423303D01*
X4391284Y-14442350D01*
X4391284Y-14547112D01*
X4391284Y-14442350D02*
X4400808Y-14423303D01*
X4419856Y-14413779D01*
X4448427Y-14413779D01*
X4467475Y-14423303D01*
X4476998Y-14442350D01*
X4476998Y-14547112D01*
X4867475Y-14337589D02*
X4696046Y-14594731D01*
X5124617Y-14347112D02*
X5143665Y-14347112D01*
X5162713Y-14356636D01*
X5172237Y-14366160D01*
X5181760Y-14385208D01*
X5191284Y-14423303D01*
X5191284Y-14470922D01*
X5181760Y-14509017D01*
X5172237Y-14528065D01*
X5162713Y-14537589D01*
X5143665Y-14547112D01*
X5124617Y-14547112D01*
X5105570Y-14537589D01*
X5096046Y-14528065D01*
X5086522Y-14509017D01*
X5076998Y-14470922D01*
X5076998Y-14423303D01*
X5086522Y-14385208D01*
X5096046Y-14366160D01*
X5105570Y-14356636D01*
X5124617Y-14347112D01*
X5276998Y-14528065D02*
X5286522Y-14537589D01*
X5276998Y-14547112D01*
X5267475Y-14537589D01*
X5276998Y-14528065D01*
X5276998Y-14547112D01*
X5410332Y-14347112D02*
X5429379Y-14347112D01*
X5448427Y-14356636D01*
X5457951Y-14366160D01*
X5467475Y-14385208D01*
X5476998Y-14423303D01*
X5476998Y-14470922D01*
X5467475Y-14509017D01*
X5457951Y-14528065D01*
X5448427Y-14537589D01*
X5429379Y-14547112D01*
X5410332Y-14547112D01*
X5391284Y-14537589D01*
X5381760Y-14528065D01*
X5372237Y-14509017D01*
X5362713Y-14470922D01*
X5362713Y-14423303D01*
X5372237Y-14385208D01*
X5381760Y-14366160D01*
X5391284Y-14356636D01*
X5410332Y-14347112D01*
X5667475Y-14547112D02*
X5553189Y-14547112D01*
X5610332Y-14547112D02*
X5610332Y-14347112D01*
X5591284Y-14375684D01*
X5572237Y-14394731D01*
X5553189Y-14404255D01*
X5848427Y-14347112D02*
X5753189Y-14347112D01*
X5743665Y-14442350D01*
X5753189Y-14432827D01*
X5772236Y-14423303D01*
X5819855Y-14423303D01*
X5838903Y-14432827D01*
X5848427Y-14442350D01*
X5857951Y-14461398D01*
X5857951Y-14509017D01*
X5848427Y-14528065D01*
X5838903Y-14537589D01*
X5819855Y-14547112D01*
X5772236Y-14547112D01*
X5753189Y-14537589D01*
X5743665Y-14528065D01*
X5924617Y-14347112D02*
X6057951Y-14347112D01*
X5972236Y-14547112D01*
X6124617Y-14347112D02*
X6124617Y-14385208D01*
X6200808Y-14347112D02*
X6200808Y-14385208D01*
X6496046Y-14623303D02*
X6486522Y-14613779D01*
X6467475Y-14585208D01*
X6457951Y-14566160D01*
X6448427Y-14537589D01*
X6438903Y-14489970D01*
X6438903Y-14451874D01*
X6448427Y-14404255D01*
X6457951Y-14375684D01*
X6467475Y-14356636D01*
X6486522Y-14328065D01*
X6496046Y-14318541D01*
X6657951Y-14347112D02*
X6619855Y-14347112D01*
X6600808Y-14356636D01*
X6591284Y-14366160D01*
X6572236Y-14394731D01*
X6562713Y-14432827D01*
X6562713Y-14509017D01*
X6572236Y-14528065D01*
X6581760Y-14537589D01*
X6600808Y-14547112D01*
X6638903Y-14547112D01*
X6657951Y-14537589D01*
X6667475Y-14528065D01*
X6676998Y-14509017D01*
X6676998Y-14461398D01*
X6667475Y-14442350D01*
X6657951Y-14432827D01*
X6638903Y-14423303D01*
X6600808Y-14423303D01*
X6581760Y-14432827D01*
X6572236Y-14442350D01*
X6562713Y-14461398D01*
X6772236Y-14547112D02*
X6810332Y-14547112D01*
X6829379Y-14537589D01*
X6838903Y-14528065D01*
X6857951Y-14499493D01*
X6867475Y-14461398D01*
X6867475Y-14385208D01*
X6857951Y-14366160D01*
X6848427Y-14356636D01*
X6829379Y-14347112D01*
X6791284Y-14347112D01*
X6772236Y-14356636D01*
X6762713Y-14366160D01*
X6753189Y-14385208D01*
X6753189Y-14432827D01*
X6762713Y-14451874D01*
X6772236Y-14461398D01*
X6791284Y-14470922D01*
X6829379Y-14470922D01*
X6848427Y-14461398D01*
X6857951Y-14451874D01*
X6867475Y-14432827D01*
X7105570Y-14547112D02*
X7105570Y-14347112D01*
X7191284Y-14547112D02*
X7191284Y-14442350D01*
X7181760Y-14423303D01*
X7162713Y-14413779D01*
X7134141Y-14413779D01*
X7115094Y-14423303D01*
X7105570Y-14432827D01*
X7315094Y-14547112D02*
X7296046Y-14537589D01*
X7286522Y-14528065D01*
X7276998Y-14509017D01*
X7276998Y-14451874D01*
X7286522Y-14432827D01*
X7296046Y-14423303D01*
X7315094Y-14413779D01*
X7343665Y-14413779D01*
X7362713Y-14423303D01*
X7372236Y-14432827D01*
X7381760Y-14451874D01*
X7381760Y-14509017D01*
X7372236Y-14528065D01*
X7362713Y-14537589D01*
X7343665Y-14547112D01*
X7315094Y-14547112D01*
X7496046Y-14547112D02*
X7476998Y-14537589D01*
X7467475Y-14518541D01*
X7467475Y-14347112D01*
X7648427Y-14537589D02*
X7629379Y-14547112D01*
X7591284Y-14547112D01*
X7572236Y-14537589D01*
X7562713Y-14518541D01*
X7562713Y-14442350D01*
X7572236Y-14423303D01*
X7591284Y-14413779D01*
X7629379Y-14413779D01*
X7648427Y-14423303D01*
X7657951Y-14442350D01*
X7657951Y-14461398D01*
X7562713Y-14480446D01*
X7734141Y-14537589D02*
X7753189Y-14547112D01*
X7791284Y-14547112D01*
X7810332Y-14537589D01*
X7819855Y-14518541D01*
X7819855Y-14509017D01*
X7810332Y-14489970D01*
X7791284Y-14480446D01*
X7762713Y-14480446D01*
X7743665Y-14470922D01*
X7734141Y-14451874D01*
X7734141Y-14442350D01*
X7743665Y-14423303D01*
X7762713Y-14413779D01*
X7791284Y-14413779D01*
X7810332Y-14423303D01*
X7886522Y-14623303D02*
X7896046Y-14613779D01*
X7915094Y-14585208D01*
X7924617Y-14566160D01*
X7934141Y-14537589D01*
X7943665Y-14489970D01*
X7943665Y-14451874D01*
X7934141Y-14404255D01*
X7924617Y-14375684D01*
X7915094Y-14356636D01*
X7896046Y-14328065D01*
X7886522Y-14318541D01*
D13*
X2924141Y-14720636D02*
G75*
G03*
X2924141Y-14720636I-20000J0D01*
G01*
D12*
X3219855Y-14611112D02*
X3238903Y-14611112D01*
X3257951Y-14620636D01*
X3267475Y-14630160D01*
X3276998Y-14649208D01*
X3286522Y-14687303D01*
X3286522Y-14734922D01*
X3276998Y-14773017D01*
X3267475Y-14792065D01*
X3257951Y-14801589D01*
X3238903Y-14811112D01*
X3219855Y-14811112D01*
X3200808Y-14801589D01*
X3191284Y-14792065D01*
X3181760Y-14773017D01*
X3172236Y-14734922D01*
X3172236Y-14687303D01*
X3181760Y-14649208D01*
X3191284Y-14630160D01*
X3200808Y-14620636D01*
X3219855Y-14611112D01*
X3372236Y-14792065D02*
X3381760Y-14801589D01*
X3372236Y-14811112D01*
X3362713Y-14801589D01*
X3372236Y-14792065D01*
X3372236Y-14811112D01*
X3553189Y-14677779D02*
X3553189Y-14811112D01*
X3505570Y-14601589D02*
X3457951Y-14744446D01*
X3581760Y-14744446D01*
X3696046Y-14611112D02*
X3715094Y-14611112D01*
X3734141Y-14620636D01*
X3743665Y-14630160D01*
X3753189Y-14649208D01*
X3762713Y-14687303D01*
X3762713Y-14734922D01*
X3753189Y-14773017D01*
X3743665Y-14792065D01*
X3734141Y-14801589D01*
X3715094Y-14811112D01*
X3696046Y-14811112D01*
X3676998Y-14801589D01*
X3667475Y-14792065D01*
X3657951Y-14773017D01*
X3648427Y-14734922D01*
X3648427Y-14687303D01*
X3657951Y-14649208D01*
X3667475Y-14630160D01*
X3676998Y-14620636D01*
X3696046Y-14611112D01*
X3886522Y-14611112D02*
X3905570Y-14611112D01*
X3924617Y-14620636D01*
X3934141Y-14630160D01*
X3943665Y-14649208D01*
X3953189Y-14687303D01*
X3953189Y-14734922D01*
X3943665Y-14773017D01*
X3934141Y-14792065D01*
X3924617Y-14801589D01*
X3905570Y-14811112D01*
X3886522Y-14811112D01*
X3867475Y-14801589D01*
X3857951Y-14792065D01*
X3848427Y-14773017D01*
X3838903Y-14734922D01*
X3838903Y-14687303D01*
X3848427Y-14649208D01*
X3857951Y-14630160D01*
X3867475Y-14620636D01*
X3886522Y-14611112D01*
X4038903Y-14811112D02*
X4038903Y-14677779D01*
X4038903Y-14696827D02*
X4048427Y-14687303D01*
X4067475Y-14677779D01*
X4096046Y-14677779D01*
X4115094Y-14687303D01*
X4124617Y-14706350D01*
X4124617Y-14811112D01*
X4124617Y-14706350D02*
X4134141Y-14687303D01*
X4153189Y-14677779D01*
X4181760Y-14677779D01*
X4200808Y-14687303D01*
X4210332Y-14706350D01*
X4210332Y-14811112D01*
X4305570Y-14811112D02*
X4305570Y-14677779D01*
X4305570Y-14696827D02*
X4315094Y-14687303D01*
X4334141Y-14677779D01*
X4362713Y-14677779D01*
X4381760Y-14687303D01*
X4391284Y-14706350D01*
X4391284Y-14811112D01*
X4391284Y-14706350D02*
X4400808Y-14687303D01*
X4419856Y-14677779D01*
X4448427Y-14677779D01*
X4467475Y-14687303D01*
X4476998Y-14706350D01*
X4476998Y-14811112D01*
X4867475Y-14601589D02*
X4696046Y-14858731D01*
X5124617Y-14611112D02*
X5143665Y-14611112D01*
X5162713Y-14620636D01*
X5172237Y-14630160D01*
X5181760Y-14649208D01*
X5191284Y-14687303D01*
X5191284Y-14734922D01*
X5181760Y-14773017D01*
X5172237Y-14792065D01*
X5162713Y-14801589D01*
X5143665Y-14811112D01*
X5124617Y-14811112D01*
X5105570Y-14801589D01*
X5096046Y-14792065D01*
X5086522Y-14773017D01*
X5076998Y-14734922D01*
X5076998Y-14687303D01*
X5086522Y-14649208D01*
X5096046Y-14630160D01*
X5105570Y-14620636D01*
X5124617Y-14611112D01*
X5276998Y-14792065D02*
X5286522Y-14801589D01*
X5276998Y-14811112D01*
X5267475Y-14801589D01*
X5276998Y-14792065D01*
X5276998Y-14811112D01*
X5410332Y-14611112D02*
X5429379Y-14611112D01*
X5448427Y-14620636D01*
X5457951Y-14630160D01*
X5467475Y-14649208D01*
X5476998Y-14687303D01*
X5476998Y-14734922D01*
X5467475Y-14773017D01*
X5457951Y-14792065D01*
X5448427Y-14801589D01*
X5429379Y-14811112D01*
X5410332Y-14811112D01*
X5391284Y-14801589D01*
X5381760Y-14792065D01*
X5372237Y-14773017D01*
X5362713Y-14734922D01*
X5362713Y-14687303D01*
X5372237Y-14649208D01*
X5381760Y-14630160D01*
X5391284Y-14620636D01*
X5410332Y-14611112D01*
X5667475Y-14811112D02*
X5553189Y-14811112D01*
X5610332Y-14811112D02*
X5610332Y-14611112D01*
X5591284Y-14639684D01*
X5572237Y-14658731D01*
X5553189Y-14668255D01*
X5848427Y-14611112D02*
X5753189Y-14611112D01*
X5743665Y-14706350D01*
X5753189Y-14696827D01*
X5772236Y-14687303D01*
X5819855Y-14687303D01*
X5838903Y-14696827D01*
X5848427Y-14706350D01*
X5857951Y-14725398D01*
X5857951Y-14773017D01*
X5848427Y-14792065D01*
X5838903Y-14801589D01*
X5819855Y-14811112D01*
X5772236Y-14811112D01*
X5753189Y-14801589D01*
X5743665Y-14792065D01*
X5924617Y-14611112D02*
X6057951Y-14611112D01*
X5972236Y-14811112D01*
X6124617Y-14611112D02*
X6124617Y-14649208D01*
X6200808Y-14611112D02*
X6200808Y-14649208D01*
X6496046Y-14887303D02*
X6486522Y-14877779D01*
X6467475Y-14849208D01*
X6457951Y-14830160D01*
X6448427Y-14801589D01*
X6438903Y-14753970D01*
X6438903Y-14715874D01*
X6448427Y-14668255D01*
X6457951Y-14639684D01*
X6467475Y-14620636D01*
X6486522Y-14592065D01*
X6496046Y-14582541D01*
X6657951Y-14611112D02*
X6619855Y-14611112D01*
X6600808Y-14620636D01*
X6591284Y-14630160D01*
X6572236Y-14658731D01*
X6562713Y-14696827D01*
X6562713Y-14773017D01*
X6572236Y-14792065D01*
X6581760Y-14801589D01*
X6600808Y-14811112D01*
X6638903Y-14811112D01*
X6657951Y-14801589D01*
X6667475Y-14792065D01*
X6676998Y-14773017D01*
X6676998Y-14725398D01*
X6667475Y-14706350D01*
X6657951Y-14696827D01*
X6638903Y-14687303D01*
X6600808Y-14687303D01*
X6581760Y-14696827D01*
X6572236Y-14706350D01*
X6562713Y-14725398D01*
X6848427Y-14677779D02*
X6848427Y-14811112D01*
X6800808Y-14601589D02*
X6753189Y-14744446D01*
X6876998Y-14744446D01*
X7105570Y-14811112D02*
X7105570Y-14611112D01*
X7191284Y-14811112D02*
X7191284Y-14706350D01*
X7181760Y-14687303D01*
X7162713Y-14677779D01*
X7134141Y-14677779D01*
X7115094Y-14687303D01*
X7105570Y-14696827D01*
X7315094Y-14811112D02*
X7296046Y-14801589D01*
X7286522Y-14792065D01*
X7276998Y-14773017D01*
X7276998Y-14715874D01*
X7286522Y-14696827D01*
X7296046Y-14687303D01*
X7315094Y-14677779D01*
X7343665Y-14677779D01*
X7362713Y-14687303D01*
X7372236Y-14696827D01*
X7381760Y-14715874D01*
X7381760Y-14773017D01*
X7372236Y-14792065D01*
X7362713Y-14801589D01*
X7343665Y-14811112D01*
X7315094Y-14811112D01*
X7496046Y-14811112D02*
X7476998Y-14801589D01*
X7467475Y-14782541D01*
X7467475Y-14611112D01*
X7648427Y-14801589D02*
X7629379Y-14811112D01*
X7591284Y-14811112D01*
X7572236Y-14801589D01*
X7562713Y-14782541D01*
X7562713Y-14706350D01*
X7572236Y-14687303D01*
X7591284Y-14677779D01*
X7629379Y-14677779D01*
X7648427Y-14687303D01*
X7657951Y-14706350D01*
X7657951Y-14725398D01*
X7562713Y-14744446D01*
X7734141Y-14801589D02*
X7753189Y-14811112D01*
X7791284Y-14811112D01*
X7810332Y-14801589D01*
X7819855Y-14782541D01*
X7819855Y-14773017D01*
X7810332Y-14753970D01*
X7791284Y-14744446D01*
X7762713Y-14744446D01*
X7743665Y-14734922D01*
X7734141Y-14715874D01*
X7734141Y-14706350D01*
X7743665Y-14687303D01*
X7762713Y-14677779D01*
X7791284Y-14677779D01*
X7810332Y-14687303D01*
X7886522Y-14887303D02*
X7896046Y-14877779D01*
X7915094Y-14849208D01*
X7924617Y-14830160D01*
X7934141Y-14801589D01*
X7943665Y-14753970D01*
X7943665Y-14715874D01*
X7934141Y-14668255D01*
X7924617Y-14639684D01*
X7915094Y-14620636D01*
X7896046Y-14592065D01*
X7886522Y-14582541D01*
D14*
X2883501Y-14943996D02*
X2883501Y-15025276D01*
X2842861Y-14984636D02*
X2924141Y-14984636D01*
D12*
X3219855Y-14875112D02*
X3238903Y-14875112D01*
X3257951Y-14884636D01*
X3267475Y-14894160D01*
X3276998Y-14913208D01*
X3286522Y-14951303D01*
X3286522Y-14998922D01*
X3276998Y-15037017D01*
X3267475Y-15056065D01*
X3257951Y-15065589D01*
X3238903Y-15075112D01*
X3219855Y-15075112D01*
X3200808Y-15065589D01*
X3191284Y-15056065D01*
X3181760Y-15037017D01*
X3172236Y-14998922D01*
X3172236Y-14951303D01*
X3181760Y-14913208D01*
X3191284Y-14894160D01*
X3200808Y-14884636D01*
X3219855Y-14875112D01*
X3372236Y-15056065D02*
X3381760Y-15065589D01*
X3372236Y-15075112D01*
X3362713Y-15065589D01*
X3372236Y-15056065D01*
X3372236Y-15075112D01*
X3496046Y-14960827D02*
X3476998Y-14951303D01*
X3467475Y-14941779D01*
X3457951Y-14922731D01*
X3457951Y-14913208D01*
X3467475Y-14894160D01*
X3476998Y-14884636D01*
X3496046Y-14875112D01*
X3534141Y-14875112D01*
X3553189Y-14884636D01*
X3562713Y-14894160D01*
X3572236Y-14913208D01*
X3572236Y-14922731D01*
X3562713Y-14941779D01*
X3553189Y-14951303D01*
X3534141Y-14960827D01*
X3496046Y-14960827D01*
X3476998Y-14970350D01*
X3467475Y-14979874D01*
X3457951Y-14998922D01*
X3457951Y-15037017D01*
X3467475Y-15056065D01*
X3476998Y-15065589D01*
X3496046Y-15075112D01*
X3534141Y-15075112D01*
X3553189Y-15065589D01*
X3562713Y-15056065D01*
X3572236Y-15037017D01*
X3572236Y-14998922D01*
X3562713Y-14979874D01*
X3553189Y-14970350D01*
X3534141Y-14960827D01*
X3762713Y-15075112D02*
X3648427Y-15075112D01*
X3705570Y-15075112D02*
X3705570Y-14875112D01*
X3686522Y-14903684D01*
X3667475Y-14922731D01*
X3648427Y-14932255D01*
X3829379Y-14875112D02*
X3953189Y-14875112D01*
X3886522Y-14951303D01*
X3915094Y-14951303D01*
X3934141Y-14960827D01*
X3943665Y-14970350D01*
X3953189Y-14989398D01*
X3953189Y-15037017D01*
X3943665Y-15056065D01*
X3934141Y-15065589D01*
X3915094Y-15075112D01*
X3857951Y-15075112D01*
X3838903Y-15065589D01*
X3829379Y-15056065D01*
X4038903Y-15075112D02*
X4038903Y-14941779D01*
X4038903Y-14960827D02*
X4048427Y-14951303D01*
X4067475Y-14941779D01*
X4096046Y-14941779D01*
X4115094Y-14951303D01*
X4124617Y-14970350D01*
X4124617Y-15075112D01*
X4124617Y-14970350D02*
X4134141Y-14951303D01*
X4153189Y-14941779D01*
X4181760Y-14941779D01*
X4200808Y-14951303D01*
X4210332Y-14970350D01*
X4210332Y-15075112D01*
X4305570Y-15075112D02*
X4305570Y-14941779D01*
X4305570Y-14960827D02*
X4315094Y-14951303D01*
X4334141Y-14941779D01*
X4362713Y-14941779D01*
X4381760Y-14951303D01*
X4391284Y-14970350D01*
X4391284Y-15075112D01*
X4391284Y-14970350D02*
X4400808Y-14951303D01*
X4419856Y-14941779D01*
X4448427Y-14941779D01*
X4467475Y-14951303D01*
X4476998Y-14970350D01*
X4476998Y-15075112D01*
X4867475Y-14865589D02*
X4696046Y-15122731D01*
X5124617Y-14875112D02*
X5143665Y-14875112D01*
X5162713Y-14884636D01*
X5172237Y-14894160D01*
X5181760Y-14913208D01*
X5191284Y-14951303D01*
X5191284Y-14998922D01*
X5181760Y-15037017D01*
X5172237Y-15056065D01*
X5162713Y-15065589D01*
X5143665Y-15075112D01*
X5124617Y-15075112D01*
X5105570Y-15065589D01*
X5096046Y-15056065D01*
X5086522Y-15037017D01*
X5076998Y-14998922D01*
X5076998Y-14951303D01*
X5086522Y-14913208D01*
X5096046Y-14894160D01*
X5105570Y-14884636D01*
X5124617Y-14875112D01*
X5276998Y-15056065D02*
X5286522Y-15065589D01*
X5276998Y-15075112D01*
X5267475Y-15065589D01*
X5276998Y-15056065D01*
X5276998Y-15075112D01*
X5410332Y-14875112D02*
X5429379Y-14875112D01*
X5448427Y-14884636D01*
X5457951Y-14894160D01*
X5467475Y-14913208D01*
X5476998Y-14951303D01*
X5476998Y-14998922D01*
X5467475Y-15037017D01*
X5457951Y-15056065D01*
X5448427Y-15065589D01*
X5429379Y-15075112D01*
X5410332Y-15075112D01*
X5391284Y-15065589D01*
X5381760Y-15056065D01*
X5372237Y-15037017D01*
X5362713Y-14998922D01*
X5362713Y-14951303D01*
X5372237Y-14913208D01*
X5381760Y-14894160D01*
X5391284Y-14884636D01*
X5410332Y-14875112D01*
X5543665Y-14875112D02*
X5667475Y-14875112D01*
X5600808Y-14951303D01*
X5629379Y-14951303D01*
X5648427Y-14960827D01*
X5657951Y-14970350D01*
X5667475Y-14989398D01*
X5667475Y-15037017D01*
X5657951Y-15056065D01*
X5648427Y-15065589D01*
X5629379Y-15075112D01*
X5572237Y-15075112D01*
X5553189Y-15065589D01*
X5543665Y-15056065D01*
X5743665Y-14894160D02*
X5753189Y-14884636D01*
X5772236Y-14875112D01*
X5819855Y-14875112D01*
X5838903Y-14884636D01*
X5848427Y-14894160D01*
X5857951Y-14913208D01*
X5857951Y-14932255D01*
X5848427Y-14960827D01*
X5734141Y-15075112D01*
X5857951Y-15075112D01*
X5981760Y-14875112D02*
X6000808Y-14875112D01*
X6019855Y-14884636D01*
X6029379Y-14894160D01*
X6038903Y-14913208D01*
X6048427Y-14951303D01*
X6048427Y-14998922D01*
X6038903Y-15037017D01*
X6029379Y-15056065D01*
X6019855Y-15065589D01*
X6000808Y-15075112D01*
X5981760Y-15075112D01*
X5962713Y-15065589D01*
X5953189Y-15056065D01*
X5943665Y-15037017D01*
X5934141Y-14998922D01*
X5934141Y-14951303D01*
X5943665Y-14913208D01*
X5953189Y-14894160D01*
X5962713Y-14884636D01*
X5981760Y-14875112D01*
X6124617Y-14875112D02*
X6124617Y-14913208D01*
X6200808Y-14875112D02*
X6200808Y-14913208D01*
X6496046Y-15151303D02*
X6486522Y-15141779D01*
X6467475Y-15113208D01*
X6457951Y-15094160D01*
X6448427Y-15065589D01*
X6438903Y-15017970D01*
X6438903Y-14979874D01*
X6448427Y-14932255D01*
X6457951Y-14903684D01*
X6467475Y-14884636D01*
X6486522Y-14856065D01*
X6496046Y-14846541D01*
X6562713Y-14894160D02*
X6572236Y-14884636D01*
X6591284Y-14875112D01*
X6638903Y-14875112D01*
X6657951Y-14884636D01*
X6667475Y-14894160D01*
X6676998Y-14913208D01*
X6676998Y-14932255D01*
X6667475Y-14960827D01*
X6553189Y-15075112D01*
X6676998Y-15075112D01*
X6848427Y-14941779D02*
X6848427Y-15075112D01*
X6800808Y-14865589D02*
X6753189Y-15008446D01*
X6876998Y-15008446D01*
X7105570Y-15075112D02*
X7105570Y-14875112D01*
X7191284Y-15075112D02*
X7191284Y-14970350D01*
X7181760Y-14951303D01*
X7162713Y-14941779D01*
X7134141Y-14941779D01*
X7115094Y-14951303D01*
X7105570Y-14960827D01*
X7315094Y-15075112D02*
X7296046Y-15065589D01*
X7286522Y-15056065D01*
X7276998Y-15037017D01*
X7276998Y-14979874D01*
X7286522Y-14960827D01*
X7296046Y-14951303D01*
X7315094Y-14941779D01*
X7343665Y-14941779D01*
X7362713Y-14951303D01*
X7372236Y-14960827D01*
X7381760Y-14979874D01*
X7381760Y-15037017D01*
X7372236Y-15056065D01*
X7362713Y-15065589D01*
X7343665Y-15075112D01*
X7315094Y-15075112D01*
X7496046Y-15075112D02*
X7476998Y-15065589D01*
X7467475Y-15046541D01*
X7467475Y-14875112D01*
X7648427Y-15065589D02*
X7629379Y-15075112D01*
X7591284Y-15075112D01*
X7572236Y-15065589D01*
X7562713Y-15046541D01*
X7562713Y-14970350D01*
X7572236Y-14951303D01*
X7591284Y-14941779D01*
X7629379Y-14941779D01*
X7648427Y-14951303D01*
X7657951Y-14970350D01*
X7657951Y-14989398D01*
X7562713Y-15008446D01*
X7734141Y-15065589D02*
X7753189Y-15075112D01*
X7791284Y-15075112D01*
X7810332Y-15065589D01*
X7819855Y-15046541D01*
X7819855Y-15037017D01*
X7810332Y-15017970D01*
X7791284Y-15008446D01*
X7762713Y-15008446D01*
X7743665Y-14998922D01*
X7734141Y-14979874D01*
X7734141Y-14970350D01*
X7743665Y-14951303D01*
X7762713Y-14941779D01*
X7791284Y-14941779D01*
X7810332Y-14951303D01*
X7886522Y-15151303D02*
X7896046Y-15141779D01*
X7915094Y-15113208D01*
X7924617Y-15094160D01*
X7934141Y-15065589D01*
X7943665Y-15017970D01*
X7943665Y-14979874D01*
X7934141Y-14932255D01*
X7924617Y-14903684D01*
X7915094Y-14884636D01*
X7896046Y-14856065D01*
X7886522Y-14846541D01*
D15*
X2909497Y-15283992D02*
X2909497Y-15213281D01*
X2838786Y-15213281D01*
X2838786Y-15283992D01*
X2909497Y-15283992D01*
D12*
X3286522Y-15339112D02*
X3172236Y-15339112D01*
X3229379Y-15339112D02*
X3229379Y-15139112D01*
X3210332Y-15167684D01*
X3191284Y-15186731D01*
X3172236Y-15196255D01*
X3372236Y-15320065D02*
X3381760Y-15329589D01*
X3372236Y-15339112D01*
X3362713Y-15329589D01*
X3372236Y-15320065D01*
X3372236Y-15339112D01*
X3505570Y-15139112D02*
X3524617Y-15139112D01*
X3543665Y-15148636D01*
X3553189Y-15158160D01*
X3562713Y-15177208D01*
X3572236Y-15215303D01*
X3572236Y-15262922D01*
X3562713Y-15301017D01*
X3553189Y-15320065D01*
X3543665Y-15329589D01*
X3524617Y-15339112D01*
X3505570Y-15339112D01*
X3486522Y-15329589D01*
X3476998Y-15320065D01*
X3467475Y-15301017D01*
X3457951Y-15262922D01*
X3457951Y-15215303D01*
X3467475Y-15177208D01*
X3476998Y-15158160D01*
X3486522Y-15148636D01*
X3505570Y-15139112D01*
X3696046Y-15139112D02*
X3715094Y-15139112D01*
X3734141Y-15148636D01*
X3743665Y-15158160D01*
X3753189Y-15177208D01*
X3762713Y-15215303D01*
X3762713Y-15262922D01*
X3753189Y-15301017D01*
X3743665Y-15320065D01*
X3734141Y-15329589D01*
X3715094Y-15339112D01*
X3696046Y-15339112D01*
X3676998Y-15329589D01*
X3667475Y-15320065D01*
X3657951Y-15301017D01*
X3648427Y-15262922D01*
X3648427Y-15215303D01*
X3657951Y-15177208D01*
X3667475Y-15158160D01*
X3676998Y-15148636D01*
X3696046Y-15139112D01*
X3886522Y-15139112D02*
X3905570Y-15139112D01*
X3924617Y-15148636D01*
X3934141Y-15158160D01*
X3943665Y-15177208D01*
X3953189Y-15215303D01*
X3953189Y-15262922D01*
X3943665Y-15301017D01*
X3934141Y-15320065D01*
X3924617Y-15329589D01*
X3905570Y-15339112D01*
X3886522Y-15339112D01*
X3867475Y-15329589D01*
X3857951Y-15320065D01*
X3848427Y-15301017D01*
X3838903Y-15262922D01*
X3838903Y-15215303D01*
X3848427Y-15177208D01*
X3857951Y-15158160D01*
X3867475Y-15148636D01*
X3886522Y-15139112D01*
X4038903Y-15339112D02*
X4038903Y-15205779D01*
X4038903Y-15224827D02*
X4048427Y-15215303D01*
X4067475Y-15205779D01*
X4096046Y-15205779D01*
X4115094Y-15215303D01*
X4124617Y-15234350D01*
X4124617Y-15339112D01*
X4124617Y-15234350D02*
X4134141Y-15215303D01*
X4153189Y-15205779D01*
X4181760Y-15205779D01*
X4200808Y-15215303D01*
X4210332Y-15234350D01*
X4210332Y-15339112D01*
X4305570Y-15339112D02*
X4305570Y-15205779D01*
X4305570Y-15224827D02*
X4315094Y-15215303D01*
X4334141Y-15205779D01*
X4362713Y-15205779D01*
X4381760Y-15215303D01*
X4391284Y-15234350D01*
X4391284Y-15339112D01*
X4391284Y-15234350D02*
X4400808Y-15215303D01*
X4419856Y-15205779D01*
X4448427Y-15205779D01*
X4467475Y-15215303D01*
X4476998Y-15234350D01*
X4476998Y-15339112D01*
X4867475Y-15129589D02*
X4696046Y-15386731D01*
X5124617Y-15139112D02*
X5143665Y-15139112D01*
X5162713Y-15148636D01*
X5172237Y-15158160D01*
X5181760Y-15177208D01*
X5191284Y-15215303D01*
X5191284Y-15262922D01*
X5181760Y-15301017D01*
X5172237Y-15320065D01*
X5162713Y-15329589D01*
X5143665Y-15339112D01*
X5124617Y-15339112D01*
X5105570Y-15329589D01*
X5096046Y-15320065D01*
X5086522Y-15301017D01*
X5076998Y-15262922D01*
X5076998Y-15215303D01*
X5086522Y-15177208D01*
X5096046Y-15158160D01*
X5105570Y-15148636D01*
X5124617Y-15139112D01*
X5276998Y-15320065D02*
X5286522Y-15329589D01*
X5276998Y-15339112D01*
X5267475Y-15329589D01*
X5276998Y-15320065D01*
X5276998Y-15339112D01*
X5410332Y-15139112D02*
X5429379Y-15139112D01*
X5448427Y-15148636D01*
X5457951Y-15158160D01*
X5467475Y-15177208D01*
X5476998Y-15215303D01*
X5476998Y-15262922D01*
X5467475Y-15301017D01*
X5457951Y-15320065D01*
X5448427Y-15329589D01*
X5429379Y-15339112D01*
X5410332Y-15339112D01*
X5391284Y-15329589D01*
X5381760Y-15320065D01*
X5372237Y-15301017D01*
X5362713Y-15262922D01*
X5362713Y-15215303D01*
X5372237Y-15177208D01*
X5381760Y-15158160D01*
X5391284Y-15148636D01*
X5410332Y-15139112D01*
X5543665Y-15139112D02*
X5667475Y-15139112D01*
X5600808Y-15215303D01*
X5629379Y-15215303D01*
X5648427Y-15224827D01*
X5657951Y-15234350D01*
X5667475Y-15253398D01*
X5667475Y-15301017D01*
X5657951Y-15320065D01*
X5648427Y-15329589D01*
X5629379Y-15339112D01*
X5572237Y-15339112D01*
X5553189Y-15329589D01*
X5543665Y-15320065D01*
X5762713Y-15339112D02*
X5800808Y-15339112D01*
X5819855Y-15329589D01*
X5829379Y-15320065D01*
X5848427Y-15291493D01*
X5857951Y-15253398D01*
X5857951Y-15177208D01*
X5848427Y-15158160D01*
X5838903Y-15148636D01*
X5819855Y-15139112D01*
X5781760Y-15139112D01*
X5762713Y-15148636D01*
X5753189Y-15158160D01*
X5743665Y-15177208D01*
X5743665Y-15224827D01*
X5753189Y-15243874D01*
X5762713Y-15253398D01*
X5781760Y-15262922D01*
X5819855Y-15262922D01*
X5838903Y-15253398D01*
X5848427Y-15243874D01*
X5857951Y-15224827D01*
X6029379Y-15205779D02*
X6029379Y-15339112D01*
X5981760Y-15129589D02*
X5934141Y-15272446D01*
X6057951Y-15272446D01*
X6124617Y-15139112D02*
X6124617Y-15177208D01*
X6200808Y-15139112D02*
X6200808Y-15177208D01*
X6496046Y-15415303D02*
X6486522Y-15405779D01*
X6467475Y-15377208D01*
X6457951Y-15358160D01*
X6448427Y-15329589D01*
X6438903Y-15281970D01*
X6438903Y-15243874D01*
X6448427Y-15196255D01*
X6457951Y-15167684D01*
X6467475Y-15148636D01*
X6486522Y-15120065D01*
X6496046Y-15110541D01*
X6676998Y-15339112D02*
X6562713Y-15339112D01*
X6619855Y-15339112D02*
X6619855Y-15139112D01*
X6600808Y-15167684D01*
X6581760Y-15186731D01*
X6562713Y-15196255D01*
X6800808Y-15139112D02*
X6819855Y-15139112D01*
X6838903Y-15148636D01*
X6848427Y-15158160D01*
X6857951Y-15177208D01*
X6867475Y-15215303D01*
X6867475Y-15262922D01*
X6857951Y-15301017D01*
X6848427Y-15320065D01*
X6838903Y-15329589D01*
X6819855Y-15339112D01*
X6800808Y-15339112D01*
X6781760Y-15329589D01*
X6772236Y-15320065D01*
X6762713Y-15301017D01*
X6753189Y-15262922D01*
X6753189Y-15215303D01*
X6762713Y-15177208D01*
X6772236Y-15158160D01*
X6781760Y-15148636D01*
X6800808Y-15139112D01*
X7105570Y-15339112D02*
X7105570Y-15139112D01*
X7191284Y-15339112D02*
X7191284Y-15234350D01*
X7181760Y-15215303D01*
X7162713Y-15205779D01*
X7134141Y-15205779D01*
X7115094Y-15215303D01*
X7105570Y-15224827D01*
X7315094Y-15339112D02*
X7296046Y-15329589D01*
X7286522Y-15320065D01*
X7276998Y-15301017D01*
X7276998Y-15243874D01*
X7286522Y-15224827D01*
X7296046Y-15215303D01*
X7315094Y-15205779D01*
X7343665Y-15205779D01*
X7362713Y-15215303D01*
X7372236Y-15224827D01*
X7381760Y-15243874D01*
X7381760Y-15301017D01*
X7372236Y-15320065D01*
X7362713Y-15329589D01*
X7343665Y-15339112D01*
X7315094Y-15339112D01*
X7496046Y-15339112D02*
X7476998Y-15329589D01*
X7467475Y-15310541D01*
X7467475Y-15139112D01*
X7648427Y-15329589D02*
X7629379Y-15339112D01*
X7591284Y-15339112D01*
X7572236Y-15329589D01*
X7562713Y-15310541D01*
X7562713Y-15234350D01*
X7572236Y-15215303D01*
X7591284Y-15205779D01*
X7629379Y-15205779D01*
X7648427Y-15215303D01*
X7657951Y-15234350D01*
X7657951Y-15253398D01*
X7562713Y-15272446D01*
X7734141Y-15329589D02*
X7753189Y-15339112D01*
X7791284Y-15339112D01*
X7810332Y-15329589D01*
X7819855Y-15310541D01*
X7819855Y-15301017D01*
X7810332Y-15281970D01*
X7791284Y-15272446D01*
X7762713Y-15272446D01*
X7743665Y-15262922D01*
X7734141Y-15243874D01*
X7734141Y-15234350D01*
X7743665Y-15215303D01*
X7762713Y-15205779D01*
X7791284Y-15205779D01*
X7810332Y-15215303D01*
X7886522Y-15415303D02*
X7896046Y-15405779D01*
X7915094Y-15377208D01*
X7924617Y-15358160D01*
X7934141Y-15329589D01*
X7943665Y-15281970D01*
X7943665Y-15243874D01*
X7934141Y-15196255D01*
X7924617Y-15167684D01*
X7915094Y-15148636D01*
X7896046Y-15120065D01*
X7886522Y-15110541D01*
D16*
X2869531Y-15567246D02*
X2924141Y-15512636D01*
X2869531Y-15458026D01*
X2814921Y-15512636D01*
X2869531Y-15567246D01*
D12*
X3286522Y-15603112D02*
X3172236Y-15603112D01*
X3229379Y-15603112D02*
X3229379Y-15403112D01*
X3210332Y-15431684D01*
X3191284Y-15450731D01*
X3172236Y-15460255D01*
X3372236Y-15584065D02*
X3381760Y-15593589D01*
X3372236Y-15603112D01*
X3362713Y-15593589D01*
X3372236Y-15584065D01*
X3372236Y-15603112D01*
X3505570Y-15403112D02*
X3524617Y-15403112D01*
X3543665Y-15412636D01*
X3553189Y-15422160D01*
X3562713Y-15441208D01*
X3572236Y-15479303D01*
X3572236Y-15526922D01*
X3562713Y-15565017D01*
X3553189Y-15584065D01*
X3543665Y-15593589D01*
X3524617Y-15603112D01*
X3505570Y-15603112D01*
X3486522Y-15593589D01*
X3476998Y-15584065D01*
X3467475Y-15565017D01*
X3457951Y-15526922D01*
X3457951Y-15479303D01*
X3467475Y-15441208D01*
X3476998Y-15422160D01*
X3486522Y-15412636D01*
X3505570Y-15403112D01*
X3667475Y-15603112D02*
X3705570Y-15603112D01*
X3724617Y-15593589D01*
X3734141Y-15584065D01*
X3753189Y-15555493D01*
X3762713Y-15517398D01*
X3762713Y-15441208D01*
X3753189Y-15422160D01*
X3743665Y-15412636D01*
X3724617Y-15403112D01*
X3686522Y-15403112D01*
X3667475Y-15412636D01*
X3657951Y-15422160D01*
X3648427Y-15441208D01*
X3648427Y-15488827D01*
X3657951Y-15507874D01*
X3667475Y-15517398D01*
X3686522Y-15526922D01*
X3724617Y-15526922D01*
X3743665Y-15517398D01*
X3753189Y-15507874D01*
X3762713Y-15488827D01*
X3838903Y-15422160D02*
X3848427Y-15412636D01*
X3867475Y-15403112D01*
X3915094Y-15403112D01*
X3934141Y-15412636D01*
X3943665Y-15422160D01*
X3953189Y-15441208D01*
X3953189Y-15460255D01*
X3943665Y-15488827D01*
X3829379Y-15603112D01*
X3953189Y-15603112D01*
X4038903Y-15603112D02*
X4038903Y-15469779D01*
X4038903Y-15488827D02*
X4048427Y-15479303D01*
X4067475Y-15469779D01*
X4096046Y-15469779D01*
X4115094Y-15479303D01*
X4124617Y-15498350D01*
X4124617Y-15603112D01*
X4124617Y-15498350D02*
X4134141Y-15479303D01*
X4153189Y-15469779D01*
X4181760Y-15469779D01*
X4200808Y-15479303D01*
X4210332Y-15498350D01*
X4210332Y-15603112D01*
X4305570Y-15603112D02*
X4305570Y-15469779D01*
X4305570Y-15488827D02*
X4315094Y-15479303D01*
X4334141Y-15469779D01*
X4362713Y-15469779D01*
X4381760Y-15479303D01*
X4391284Y-15498350D01*
X4391284Y-15603112D01*
X4391284Y-15498350D02*
X4400808Y-15479303D01*
X4419856Y-15469779D01*
X4448427Y-15469779D01*
X4467475Y-15479303D01*
X4476998Y-15498350D01*
X4476998Y-15603112D01*
X4867475Y-15393589D02*
X4696046Y-15650731D01*
X5124617Y-15403112D02*
X5143665Y-15403112D01*
X5162713Y-15412636D01*
X5172237Y-15422160D01*
X5181760Y-15441208D01*
X5191284Y-15479303D01*
X5191284Y-15526922D01*
X5181760Y-15565017D01*
X5172237Y-15584065D01*
X5162713Y-15593589D01*
X5143665Y-15603112D01*
X5124617Y-15603112D01*
X5105570Y-15593589D01*
X5096046Y-15584065D01*
X5086522Y-15565017D01*
X5076998Y-15526922D01*
X5076998Y-15479303D01*
X5086522Y-15441208D01*
X5096046Y-15422160D01*
X5105570Y-15412636D01*
X5124617Y-15403112D01*
X5276998Y-15584065D02*
X5286522Y-15593589D01*
X5276998Y-15603112D01*
X5267475Y-15593589D01*
X5276998Y-15584065D01*
X5276998Y-15603112D01*
X5410332Y-15403112D02*
X5429379Y-15403112D01*
X5448427Y-15412636D01*
X5457951Y-15422160D01*
X5467475Y-15441208D01*
X5476998Y-15479303D01*
X5476998Y-15526922D01*
X5467475Y-15565017D01*
X5457951Y-15584065D01*
X5448427Y-15593589D01*
X5429379Y-15603112D01*
X5410332Y-15603112D01*
X5391284Y-15593589D01*
X5381760Y-15584065D01*
X5372237Y-15565017D01*
X5362713Y-15526922D01*
X5362713Y-15479303D01*
X5372237Y-15441208D01*
X5381760Y-15422160D01*
X5391284Y-15412636D01*
X5410332Y-15403112D01*
X5648427Y-15469779D02*
X5648427Y-15603112D01*
X5600808Y-15393589D02*
X5553189Y-15536446D01*
X5676998Y-15536446D01*
X5734141Y-15403112D02*
X5857951Y-15403112D01*
X5791284Y-15479303D01*
X5819855Y-15479303D01*
X5838903Y-15488827D01*
X5848427Y-15498350D01*
X5857951Y-15517398D01*
X5857951Y-15565017D01*
X5848427Y-15584065D01*
X5838903Y-15593589D01*
X5819855Y-15603112D01*
X5762713Y-15603112D01*
X5743665Y-15593589D01*
X5734141Y-15584065D01*
X5981760Y-15403112D02*
X6000808Y-15403112D01*
X6019855Y-15412636D01*
X6029379Y-15422160D01*
X6038903Y-15441208D01*
X6048427Y-15479303D01*
X6048427Y-15526922D01*
X6038903Y-15565017D01*
X6029379Y-15584065D01*
X6019855Y-15593589D01*
X6000808Y-15603112D01*
X5981760Y-15603112D01*
X5962713Y-15593589D01*
X5953189Y-15584065D01*
X5943665Y-15565017D01*
X5934141Y-15526922D01*
X5934141Y-15479303D01*
X5943665Y-15441208D01*
X5953189Y-15422160D01*
X5962713Y-15412636D01*
X5981760Y-15403112D01*
X6124617Y-15403112D02*
X6124617Y-15441208D01*
X6200808Y-15403112D02*
X6200808Y-15441208D01*
X6496046Y-15679303D02*
X6486522Y-15669779D01*
X6467475Y-15641208D01*
X6457951Y-15622160D01*
X6448427Y-15593589D01*
X6438903Y-15545970D01*
X6438903Y-15507874D01*
X6448427Y-15460255D01*
X6457951Y-15431684D01*
X6467475Y-15412636D01*
X6486522Y-15384065D01*
X6496046Y-15374541D01*
X6553189Y-15403112D02*
X6676998Y-15403112D01*
X6610332Y-15479303D01*
X6638903Y-15479303D01*
X6657951Y-15488827D01*
X6667475Y-15498350D01*
X6676998Y-15517398D01*
X6676998Y-15565017D01*
X6667475Y-15584065D01*
X6657951Y-15593589D01*
X6638903Y-15603112D01*
X6581760Y-15603112D01*
X6562713Y-15593589D01*
X6553189Y-15584065D01*
X6915094Y-15603112D02*
X6915094Y-15403112D01*
X7000808Y-15603112D02*
X7000808Y-15498350D01*
X6991284Y-15479303D01*
X6972236Y-15469779D01*
X6943665Y-15469779D01*
X6924617Y-15479303D01*
X6915094Y-15488827D01*
X7124617Y-15603112D02*
X7105570Y-15593589D01*
X7096046Y-15584065D01*
X7086522Y-15565017D01*
X7086522Y-15507874D01*
X7096046Y-15488827D01*
X7105570Y-15479303D01*
X7124617Y-15469779D01*
X7153189Y-15469779D01*
X7172236Y-15479303D01*
X7181760Y-15488827D01*
X7191284Y-15507874D01*
X7191284Y-15565017D01*
X7181760Y-15584065D01*
X7172236Y-15593589D01*
X7153189Y-15603112D01*
X7124617Y-15603112D01*
X7305570Y-15603112D02*
X7286522Y-15593589D01*
X7276998Y-15574541D01*
X7276998Y-15403112D01*
X7457951Y-15593589D02*
X7438903Y-15603112D01*
X7400808Y-15603112D01*
X7381760Y-15593589D01*
X7372236Y-15574541D01*
X7372236Y-15498350D01*
X7381760Y-15479303D01*
X7400808Y-15469779D01*
X7438903Y-15469779D01*
X7457951Y-15479303D01*
X7467475Y-15498350D01*
X7467475Y-15517398D01*
X7372236Y-15536446D01*
X7543665Y-15593589D02*
X7562713Y-15603112D01*
X7600808Y-15603112D01*
X7619855Y-15593589D01*
X7629379Y-15574541D01*
X7629379Y-15565017D01*
X7619855Y-15545970D01*
X7600808Y-15536446D01*
X7572236Y-15536446D01*
X7553189Y-15526922D01*
X7543665Y-15507874D01*
X7543665Y-15498350D01*
X7553189Y-15479303D01*
X7572236Y-15469779D01*
X7600808Y-15469779D01*
X7619855Y-15479303D01*
X7696046Y-15679303D02*
X7705570Y-15669779D01*
X7724617Y-15641208D01*
X7734141Y-15622160D01*
X7743665Y-15593589D01*
X7753189Y-15545970D01*
X7753189Y-15507874D01*
X7743665Y-15460255D01*
X7734141Y-15431684D01*
X7724617Y-15412636D01*
X7705570Y-15384065D01*
X7696046Y-15374541D01*
D17*
X2797141Y-15713136D02*
X2924141Y-15840136D01*
X2924141Y-15713136D02*
X2797141Y-15840136D01*
X2924141Y-15776636D02*
G75*
G03*
X2924141Y-15776636I-63500J0D01*
G01*
D12*
X3286522Y-15867112D02*
X3172236Y-15867112D01*
X3229379Y-15867112D02*
X3229379Y-15667112D01*
X3210332Y-15695684D01*
X3191284Y-15714731D01*
X3172236Y-15724255D01*
X3372236Y-15848065D02*
X3381760Y-15857589D01*
X3372236Y-15867112D01*
X3362713Y-15857589D01*
X3372236Y-15848065D01*
X3372236Y-15867112D01*
X3457951Y-15686160D02*
X3467475Y-15676636D01*
X3486522Y-15667112D01*
X3534141Y-15667112D01*
X3553189Y-15676636D01*
X3562713Y-15686160D01*
X3572236Y-15705208D01*
X3572236Y-15724255D01*
X3562713Y-15752827D01*
X3448427Y-15867112D01*
X3572236Y-15867112D01*
X3638903Y-15667112D02*
X3772236Y-15667112D01*
X3686522Y-15867112D01*
X3886522Y-15667112D02*
X3905570Y-15667112D01*
X3924617Y-15676636D01*
X3934141Y-15686160D01*
X3943665Y-15705208D01*
X3953189Y-15743303D01*
X3953189Y-15790922D01*
X3943665Y-15829017D01*
X3934141Y-15848065D01*
X3924617Y-15857589D01*
X3905570Y-15867112D01*
X3886522Y-15867112D01*
X3867475Y-15857589D01*
X3857951Y-15848065D01*
X3848427Y-15829017D01*
X3838903Y-15790922D01*
X3838903Y-15743303D01*
X3848427Y-15705208D01*
X3857951Y-15686160D01*
X3867475Y-15676636D01*
X3886522Y-15667112D01*
X4038903Y-15867112D02*
X4038903Y-15733779D01*
X4038903Y-15752827D02*
X4048427Y-15743303D01*
X4067475Y-15733779D01*
X4096046Y-15733779D01*
X4115094Y-15743303D01*
X4124617Y-15762350D01*
X4124617Y-15867112D01*
X4124617Y-15762350D02*
X4134141Y-15743303D01*
X4153189Y-15733779D01*
X4181760Y-15733779D01*
X4200808Y-15743303D01*
X4210332Y-15762350D01*
X4210332Y-15867112D01*
X4305570Y-15867112D02*
X4305570Y-15733779D01*
X4305570Y-15752827D02*
X4315094Y-15743303D01*
X4334141Y-15733779D01*
X4362713Y-15733779D01*
X4381760Y-15743303D01*
X4391284Y-15762350D01*
X4391284Y-15867112D01*
X4391284Y-15762350D02*
X4400808Y-15743303D01*
X4419856Y-15733779D01*
X4448427Y-15733779D01*
X4467475Y-15743303D01*
X4476998Y-15762350D01*
X4476998Y-15867112D01*
X4867475Y-15657589D02*
X4696046Y-15914731D01*
X5124617Y-15667112D02*
X5143665Y-15667112D01*
X5162713Y-15676636D01*
X5172237Y-15686160D01*
X5181760Y-15705208D01*
X5191284Y-15743303D01*
X5191284Y-15790922D01*
X5181760Y-15829017D01*
X5172237Y-15848065D01*
X5162713Y-15857589D01*
X5143665Y-15867112D01*
X5124617Y-15867112D01*
X5105570Y-15857589D01*
X5096046Y-15848065D01*
X5086522Y-15829017D01*
X5076998Y-15790922D01*
X5076998Y-15743303D01*
X5086522Y-15705208D01*
X5096046Y-15686160D01*
X5105570Y-15676636D01*
X5124617Y-15667112D01*
X5276998Y-15848065D02*
X5286522Y-15857589D01*
X5276998Y-15867112D01*
X5267475Y-15857589D01*
X5276998Y-15848065D01*
X5276998Y-15867112D01*
X5410332Y-15667112D02*
X5429379Y-15667112D01*
X5448427Y-15676636D01*
X5457951Y-15686160D01*
X5467475Y-15705208D01*
X5476998Y-15743303D01*
X5476998Y-15790922D01*
X5467475Y-15829017D01*
X5457951Y-15848065D01*
X5448427Y-15857589D01*
X5429379Y-15867112D01*
X5410332Y-15867112D01*
X5391284Y-15857589D01*
X5381760Y-15848065D01*
X5372237Y-15829017D01*
X5362713Y-15790922D01*
X5362713Y-15743303D01*
X5372237Y-15705208D01*
X5381760Y-15686160D01*
X5391284Y-15676636D01*
X5410332Y-15667112D01*
X5657951Y-15667112D02*
X5562713Y-15667112D01*
X5553189Y-15762350D01*
X5562713Y-15752827D01*
X5581760Y-15743303D01*
X5629379Y-15743303D01*
X5648427Y-15752827D01*
X5657951Y-15762350D01*
X5667475Y-15781398D01*
X5667475Y-15829017D01*
X5657951Y-15848065D01*
X5648427Y-15857589D01*
X5629379Y-15867112D01*
X5581760Y-15867112D01*
X5562713Y-15857589D01*
X5553189Y-15848065D01*
X5791284Y-15667112D02*
X5810332Y-15667112D01*
X5829379Y-15676636D01*
X5838903Y-15686160D01*
X5848427Y-15705208D01*
X5857951Y-15743303D01*
X5857951Y-15790922D01*
X5848427Y-15829017D01*
X5838903Y-15848065D01*
X5829379Y-15857589D01*
X5810332Y-15867112D01*
X5791284Y-15867112D01*
X5772236Y-15857589D01*
X5762713Y-15848065D01*
X5753189Y-15829017D01*
X5743665Y-15790922D01*
X5743665Y-15743303D01*
X5753189Y-15705208D01*
X5762713Y-15686160D01*
X5772236Y-15676636D01*
X5791284Y-15667112D01*
X5981760Y-15667112D02*
X6000808Y-15667112D01*
X6019855Y-15676636D01*
X6029379Y-15686160D01*
X6038903Y-15705208D01*
X6048427Y-15743303D01*
X6048427Y-15790922D01*
X6038903Y-15829017D01*
X6029379Y-15848065D01*
X6019855Y-15857589D01*
X6000808Y-15867112D01*
X5981760Y-15867112D01*
X5962713Y-15857589D01*
X5953189Y-15848065D01*
X5943665Y-15829017D01*
X5934141Y-15790922D01*
X5934141Y-15743303D01*
X5943665Y-15705208D01*
X5953189Y-15686160D01*
X5962713Y-15676636D01*
X5981760Y-15667112D01*
X6124617Y-15667112D02*
X6124617Y-15705208D01*
X6200808Y-15667112D02*
X6200808Y-15705208D01*
X6496046Y-15943303D02*
X6486522Y-15933779D01*
X6467475Y-15905208D01*
X6457951Y-15886160D01*
X6448427Y-15857589D01*
X6438903Y-15809970D01*
X6438903Y-15771874D01*
X6448427Y-15724255D01*
X6457951Y-15695684D01*
X6467475Y-15676636D01*
X6486522Y-15648065D01*
X6496046Y-15638541D01*
X6581760Y-15867112D02*
X6619855Y-15867112D01*
X6638903Y-15857589D01*
X6648427Y-15848065D01*
X6667475Y-15819493D01*
X6676998Y-15781398D01*
X6676998Y-15705208D01*
X6667475Y-15686160D01*
X6657951Y-15676636D01*
X6638903Y-15667112D01*
X6600808Y-15667112D01*
X6581760Y-15676636D01*
X6572236Y-15686160D01*
X6562713Y-15705208D01*
X6562713Y-15752827D01*
X6572236Y-15771874D01*
X6581760Y-15781398D01*
X6600808Y-15790922D01*
X6638903Y-15790922D01*
X6657951Y-15781398D01*
X6667475Y-15771874D01*
X6676998Y-15752827D01*
X6800808Y-15667112D02*
X6819855Y-15667112D01*
X6838903Y-15676636D01*
X6848427Y-15686160D01*
X6857951Y-15705208D01*
X6867475Y-15743303D01*
X6867475Y-15790922D01*
X6857951Y-15829017D01*
X6848427Y-15848065D01*
X6838903Y-15857589D01*
X6819855Y-15867112D01*
X6800808Y-15867112D01*
X6781760Y-15857589D01*
X6772236Y-15848065D01*
X6762713Y-15829017D01*
X6753189Y-15790922D01*
X6753189Y-15743303D01*
X6762713Y-15705208D01*
X6772236Y-15686160D01*
X6781760Y-15676636D01*
X6800808Y-15667112D01*
X7105570Y-15867112D02*
X7105570Y-15667112D01*
X7191284Y-15867112D02*
X7191284Y-15762350D01*
X7181760Y-15743303D01*
X7162713Y-15733779D01*
X7134141Y-15733779D01*
X7115094Y-15743303D01*
X7105570Y-15752827D01*
X7315094Y-15867112D02*
X7296046Y-15857589D01*
X7286522Y-15848065D01*
X7276998Y-15829017D01*
X7276998Y-15771874D01*
X7286522Y-15752827D01*
X7296046Y-15743303D01*
X7315094Y-15733779D01*
X7343665Y-15733779D01*
X7362713Y-15743303D01*
X7372236Y-15752827D01*
X7381760Y-15771874D01*
X7381760Y-15829017D01*
X7372236Y-15848065D01*
X7362713Y-15857589D01*
X7343665Y-15867112D01*
X7315094Y-15867112D01*
X7496046Y-15867112D02*
X7476998Y-15857589D01*
X7467475Y-15838541D01*
X7467475Y-15667112D01*
X7648427Y-15857589D02*
X7629379Y-15867112D01*
X7591284Y-15867112D01*
X7572236Y-15857589D01*
X7562713Y-15838541D01*
X7562713Y-15762350D01*
X7572236Y-15743303D01*
X7591284Y-15733779D01*
X7629379Y-15733779D01*
X7648427Y-15743303D01*
X7657951Y-15762350D01*
X7657951Y-15781398D01*
X7562713Y-15800446D01*
X7734141Y-15857589D02*
X7753189Y-15867112D01*
X7791284Y-15867112D01*
X7810332Y-15857589D01*
X7819855Y-15838541D01*
X7819855Y-15829017D01*
X7810332Y-15809970D01*
X7791284Y-15800446D01*
X7762713Y-15800446D01*
X7743665Y-15790922D01*
X7734141Y-15771874D01*
X7734141Y-15762350D01*
X7743665Y-15743303D01*
X7762713Y-15733779D01*
X7791284Y-15733779D01*
X7810332Y-15743303D01*
X7886522Y-15943303D02*
X7896046Y-15933779D01*
X7915094Y-15905208D01*
X7924617Y-15886160D01*
X7934141Y-15857589D01*
X7943665Y-15809970D01*
X7943665Y-15771874D01*
X7934141Y-15724255D01*
X7924617Y-15695684D01*
X7915094Y-15676636D01*
X7896046Y-15648065D01*
X7886522Y-15638541D01*
D18*
X2794141Y-15975636D02*
X2924141Y-16105636D01*
X2924141Y-15975636D02*
X2794141Y-16105636D01*
X2859141Y-15975636D02*
X2859141Y-16105636D01*
X2794141Y-16040636D02*
X2924141Y-16040636D01*
D12*
X3286522Y-16131112D02*
X3172236Y-16131112D01*
X3229379Y-16131112D02*
X3229379Y-15931112D01*
X3210332Y-15959684D01*
X3191284Y-15978731D01*
X3172236Y-15988255D01*
X3372236Y-16112065D02*
X3381760Y-16121589D01*
X3372236Y-16131112D01*
X3362713Y-16121589D01*
X3372236Y-16112065D01*
X3372236Y-16131112D01*
X3448427Y-15931112D02*
X3572236Y-15931112D01*
X3505570Y-16007303D01*
X3534141Y-16007303D01*
X3553189Y-16016827D01*
X3562713Y-16026350D01*
X3572236Y-16045398D01*
X3572236Y-16093017D01*
X3562713Y-16112065D01*
X3553189Y-16121589D01*
X3534141Y-16131112D01*
X3476998Y-16131112D01*
X3457951Y-16121589D01*
X3448427Y-16112065D01*
X3696046Y-15931112D02*
X3715094Y-15931112D01*
X3734141Y-15940636D01*
X3743665Y-15950160D01*
X3753189Y-15969208D01*
X3762713Y-16007303D01*
X3762713Y-16054922D01*
X3753189Y-16093017D01*
X3743665Y-16112065D01*
X3734141Y-16121589D01*
X3715094Y-16131112D01*
X3696046Y-16131112D01*
X3676998Y-16121589D01*
X3667475Y-16112065D01*
X3657951Y-16093017D01*
X3648427Y-16054922D01*
X3648427Y-16007303D01*
X3657951Y-15969208D01*
X3667475Y-15950160D01*
X3676998Y-15940636D01*
X3696046Y-15931112D01*
X3886522Y-15931112D02*
X3905570Y-15931112D01*
X3924617Y-15940636D01*
X3934141Y-15950160D01*
X3943665Y-15969208D01*
X3953189Y-16007303D01*
X3953189Y-16054922D01*
X3943665Y-16093017D01*
X3934141Y-16112065D01*
X3924617Y-16121589D01*
X3905570Y-16131112D01*
X3886522Y-16131112D01*
X3867475Y-16121589D01*
X3857951Y-16112065D01*
X3848427Y-16093017D01*
X3838903Y-16054922D01*
X3838903Y-16007303D01*
X3848427Y-15969208D01*
X3857951Y-15950160D01*
X3867475Y-15940636D01*
X3886522Y-15931112D01*
X4038903Y-16131112D02*
X4038903Y-15997779D01*
X4038903Y-16016827D02*
X4048427Y-16007303D01*
X4067475Y-15997779D01*
X4096046Y-15997779D01*
X4115094Y-16007303D01*
X4124617Y-16026350D01*
X4124617Y-16131112D01*
X4124617Y-16026350D02*
X4134141Y-16007303D01*
X4153189Y-15997779D01*
X4181760Y-15997779D01*
X4200808Y-16007303D01*
X4210332Y-16026350D01*
X4210332Y-16131112D01*
X4305570Y-16131112D02*
X4305570Y-15997779D01*
X4305570Y-16016827D02*
X4315094Y-16007303D01*
X4334141Y-15997779D01*
X4362713Y-15997779D01*
X4381760Y-16007303D01*
X4391284Y-16026350D01*
X4391284Y-16131112D01*
X4391284Y-16026350D02*
X4400808Y-16007303D01*
X4419856Y-15997779D01*
X4448427Y-15997779D01*
X4467475Y-16007303D01*
X4476998Y-16026350D01*
X4476998Y-16131112D01*
X4867475Y-15921589D02*
X4696046Y-16178731D01*
X5124617Y-15931112D02*
X5143665Y-15931112D01*
X5162713Y-15940636D01*
X5172237Y-15950160D01*
X5181760Y-15969208D01*
X5191284Y-16007303D01*
X5191284Y-16054922D01*
X5181760Y-16093017D01*
X5172237Y-16112065D01*
X5162713Y-16121589D01*
X5143665Y-16131112D01*
X5124617Y-16131112D01*
X5105570Y-16121589D01*
X5096046Y-16112065D01*
X5086522Y-16093017D01*
X5076998Y-16054922D01*
X5076998Y-16007303D01*
X5086522Y-15969208D01*
X5096046Y-15950160D01*
X5105570Y-15940636D01*
X5124617Y-15931112D01*
X5276998Y-16112065D02*
X5286522Y-16121589D01*
X5276998Y-16131112D01*
X5267475Y-16121589D01*
X5276998Y-16112065D01*
X5276998Y-16131112D01*
X5410332Y-15931112D02*
X5429379Y-15931112D01*
X5448427Y-15940636D01*
X5457951Y-15950160D01*
X5467475Y-15969208D01*
X5476998Y-16007303D01*
X5476998Y-16054922D01*
X5467475Y-16093017D01*
X5457951Y-16112065D01*
X5448427Y-16121589D01*
X5429379Y-16131112D01*
X5410332Y-16131112D01*
X5391284Y-16121589D01*
X5381760Y-16112065D01*
X5372237Y-16093017D01*
X5362713Y-16054922D01*
X5362713Y-16007303D01*
X5372237Y-15969208D01*
X5381760Y-15950160D01*
X5391284Y-15940636D01*
X5410332Y-15931112D01*
X5657951Y-15931112D02*
X5562713Y-15931112D01*
X5553189Y-16026350D01*
X5562713Y-16016827D01*
X5581760Y-16007303D01*
X5629379Y-16007303D01*
X5648427Y-16016827D01*
X5657951Y-16026350D01*
X5667475Y-16045398D01*
X5667475Y-16093017D01*
X5657951Y-16112065D01*
X5648427Y-16121589D01*
X5629379Y-16131112D01*
X5581760Y-16131112D01*
X5562713Y-16121589D01*
X5553189Y-16112065D01*
X5857951Y-16131112D02*
X5743665Y-16131112D01*
X5800808Y-16131112D02*
X5800808Y-15931112D01*
X5781760Y-15959684D01*
X5762713Y-15978731D01*
X5743665Y-15988255D01*
X5934141Y-15950160D02*
X5943665Y-15940636D01*
X5962713Y-15931112D01*
X6010332Y-15931112D01*
X6029379Y-15940636D01*
X6038903Y-15950160D01*
X6048427Y-15969208D01*
X6048427Y-15988255D01*
X6038903Y-16016827D01*
X5924617Y-16131112D01*
X6048427Y-16131112D01*
X6124617Y-15931112D02*
X6124617Y-15969208D01*
X6200808Y-15931112D02*
X6200808Y-15969208D01*
X6496046Y-16207303D02*
X6486522Y-16197779D01*
X6467475Y-16169208D01*
X6457951Y-16150160D01*
X6448427Y-16121589D01*
X6438903Y-16073970D01*
X6438903Y-16035874D01*
X6448427Y-15988255D01*
X6457951Y-15959684D01*
X6467475Y-15940636D01*
X6486522Y-15912065D01*
X6496046Y-15902541D01*
X6562713Y-15950160D02*
X6572236Y-15940636D01*
X6591284Y-15931112D01*
X6638903Y-15931112D01*
X6657951Y-15940636D01*
X6667475Y-15950160D01*
X6676998Y-15969208D01*
X6676998Y-15988255D01*
X6667475Y-16016827D01*
X6553189Y-16131112D01*
X6676998Y-16131112D01*
X6915094Y-16131112D02*
X6915094Y-15931112D01*
X7000808Y-16131112D02*
X7000808Y-16026350D01*
X6991284Y-16007303D01*
X6972236Y-15997779D01*
X6943665Y-15997779D01*
X6924617Y-16007303D01*
X6915094Y-16016827D01*
X7124617Y-16131112D02*
X7105570Y-16121589D01*
X7096046Y-16112065D01*
X7086522Y-16093017D01*
X7086522Y-16035874D01*
X7096046Y-16016827D01*
X7105570Y-16007303D01*
X7124617Y-15997779D01*
X7153189Y-15997779D01*
X7172236Y-16007303D01*
X7181760Y-16016827D01*
X7191284Y-16035874D01*
X7191284Y-16093017D01*
X7181760Y-16112065D01*
X7172236Y-16121589D01*
X7153189Y-16131112D01*
X7124617Y-16131112D01*
X7305570Y-16131112D02*
X7286522Y-16121589D01*
X7276998Y-16102541D01*
X7276998Y-15931112D01*
X7457951Y-16121589D02*
X7438903Y-16131112D01*
X7400808Y-16131112D01*
X7381760Y-16121589D01*
X7372236Y-16102541D01*
X7372236Y-16026350D01*
X7381760Y-16007303D01*
X7400808Y-15997779D01*
X7438903Y-15997779D01*
X7457951Y-16007303D01*
X7467475Y-16026350D01*
X7467475Y-16045398D01*
X7372236Y-16064446D01*
X7543665Y-16121589D02*
X7562713Y-16131112D01*
X7600808Y-16131112D01*
X7619855Y-16121589D01*
X7629379Y-16102541D01*
X7629379Y-16093017D01*
X7619855Y-16073970D01*
X7600808Y-16064446D01*
X7572236Y-16064446D01*
X7553189Y-16054922D01*
X7543665Y-16035874D01*
X7543665Y-16026350D01*
X7553189Y-16007303D01*
X7572236Y-15997779D01*
X7600808Y-15997779D01*
X7619855Y-16007303D01*
X7696046Y-16207303D02*
X7705570Y-16197779D01*
X7724617Y-16169208D01*
X7734141Y-16150160D01*
X7743665Y-16121589D01*
X7753189Y-16073970D01*
X7753189Y-16035874D01*
X7743665Y-15988255D01*
X7734141Y-15959684D01*
X7724617Y-15940636D01*
X7705570Y-15912065D01*
X7696046Y-15902541D01*
D19*
X2774281Y-16229706D02*
X2924141Y-16379566D01*
X2924141Y-16229706D02*
X2774281Y-16379566D01*
X2902195Y-16357620D02*
X2902195Y-16251652D01*
X2796227Y-16251652D01*
X2796227Y-16357620D01*
X2902195Y-16357620D01*
D12*
X3286522Y-16395112D02*
X3172236Y-16395112D01*
X3229379Y-16395112D02*
X3229379Y-16195112D01*
X3210332Y-16223684D01*
X3191284Y-16242731D01*
X3172236Y-16252255D01*
X3372236Y-16376065D02*
X3381760Y-16385589D01*
X3372236Y-16395112D01*
X3362713Y-16385589D01*
X3372236Y-16376065D01*
X3372236Y-16395112D01*
X3553189Y-16261779D02*
X3553189Y-16395112D01*
X3505570Y-16185589D02*
X3457951Y-16328446D01*
X3581760Y-16328446D01*
X3667475Y-16395112D02*
X3705570Y-16395112D01*
X3724617Y-16385589D01*
X3734141Y-16376065D01*
X3753189Y-16347493D01*
X3762713Y-16309398D01*
X3762713Y-16233208D01*
X3753189Y-16214160D01*
X3743665Y-16204636D01*
X3724617Y-16195112D01*
X3686522Y-16195112D01*
X3667475Y-16204636D01*
X3657951Y-16214160D01*
X3648427Y-16233208D01*
X3648427Y-16280827D01*
X3657951Y-16299874D01*
X3667475Y-16309398D01*
X3686522Y-16318922D01*
X3724617Y-16318922D01*
X3743665Y-16309398D01*
X3753189Y-16299874D01*
X3762713Y-16280827D01*
X3857951Y-16395112D02*
X3896046Y-16395112D01*
X3915094Y-16385589D01*
X3924617Y-16376065D01*
X3943665Y-16347493D01*
X3953189Y-16309398D01*
X3953189Y-16233208D01*
X3943665Y-16214160D01*
X3934141Y-16204636D01*
X3915094Y-16195112D01*
X3876998Y-16195112D01*
X3857951Y-16204636D01*
X3848427Y-16214160D01*
X3838903Y-16233208D01*
X3838903Y-16280827D01*
X3848427Y-16299874D01*
X3857951Y-16309398D01*
X3876998Y-16318922D01*
X3915094Y-16318922D01*
X3934141Y-16309398D01*
X3943665Y-16299874D01*
X3953189Y-16280827D01*
X4038903Y-16395112D02*
X4038903Y-16261779D01*
X4038903Y-16280827D02*
X4048427Y-16271303D01*
X4067475Y-16261779D01*
X4096046Y-16261779D01*
X4115094Y-16271303D01*
X4124617Y-16290350D01*
X4124617Y-16395112D01*
X4124617Y-16290350D02*
X4134141Y-16271303D01*
X4153189Y-16261779D01*
X4181760Y-16261779D01*
X4200808Y-16271303D01*
X4210332Y-16290350D01*
X4210332Y-16395112D01*
X4305570Y-16395112D02*
X4305570Y-16261779D01*
X4305570Y-16280827D02*
X4315094Y-16271303D01*
X4334141Y-16261779D01*
X4362713Y-16261779D01*
X4381760Y-16271303D01*
X4391284Y-16290350D01*
X4391284Y-16395112D01*
X4391284Y-16290350D02*
X4400808Y-16271303D01*
X4419856Y-16261779D01*
X4448427Y-16261779D01*
X4467475Y-16271303D01*
X4476998Y-16290350D01*
X4476998Y-16395112D01*
X4867475Y-16185589D02*
X4696046Y-16442731D01*
X5124617Y-16195112D02*
X5143665Y-16195112D01*
X5162713Y-16204636D01*
X5172237Y-16214160D01*
X5181760Y-16233208D01*
X5191284Y-16271303D01*
X5191284Y-16318922D01*
X5181760Y-16357017D01*
X5172237Y-16376065D01*
X5162713Y-16385589D01*
X5143665Y-16395112D01*
X5124617Y-16395112D01*
X5105570Y-16385589D01*
X5096046Y-16376065D01*
X5086522Y-16357017D01*
X5076998Y-16318922D01*
X5076998Y-16271303D01*
X5086522Y-16233208D01*
X5096046Y-16214160D01*
X5105570Y-16204636D01*
X5124617Y-16195112D01*
X5276998Y-16376065D02*
X5286522Y-16385589D01*
X5276998Y-16395112D01*
X5267475Y-16385589D01*
X5276998Y-16376065D01*
X5276998Y-16395112D01*
X5410332Y-16195112D02*
X5429379Y-16195112D01*
X5448427Y-16204636D01*
X5457951Y-16214160D01*
X5467475Y-16233208D01*
X5476998Y-16271303D01*
X5476998Y-16318922D01*
X5467475Y-16357017D01*
X5457951Y-16376065D01*
X5448427Y-16385589D01*
X5429379Y-16395112D01*
X5410332Y-16395112D01*
X5391284Y-16385589D01*
X5381760Y-16376065D01*
X5372237Y-16357017D01*
X5362713Y-16318922D01*
X5362713Y-16271303D01*
X5372237Y-16233208D01*
X5381760Y-16214160D01*
X5391284Y-16204636D01*
X5410332Y-16195112D01*
X5657951Y-16195112D02*
X5562713Y-16195112D01*
X5553189Y-16290350D01*
X5562713Y-16280827D01*
X5581760Y-16271303D01*
X5629379Y-16271303D01*
X5648427Y-16280827D01*
X5657951Y-16290350D01*
X5667475Y-16309398D01*
X5667475Y-16357017D01*
X5657951Y-16376065D01*
X5648427Y-16385589D01*
X5629379Y-16395112D01*
X5581760Y-16395112D01*
X5562713Y-16385589D01*
X5553189Y-16376065D01*
X5762713Y-16395112D02*
X5800808Y-16395112D01*
X5819855Y-16385589D01*
X5829379Y-16376065D01*
X5848427Y-16347493D01*
X5857951Y-16309398D01*
X5857951Y-16233208D01*
X5848427Y-16214160D01*
X5838903Y-16204636D01*
X5819855Y-16195112D01*
X5781760Y-16195112D01*
X5762713Y-16204636D01*
X5753189Y-16214160D01*
X5743665Y-16233208D01*
X5743665Y-16280827D01*
X5753189Y-16299874D01*
X5762713Y-16309398D01*
X5781760Y-16318922D01*
X5819855Y-16318922D01*
X5838903Y-16309398D01*
X5848427Y-16299874D01*
X5857951Y-16280827D01*
X5981760Y-16195112D02*
X6000808Y-16195112D01*
X6019855Y-16204636D01*
X6029379Y-16214160D01*
X6038903Y-16233208D01*
X6048427Y-16271303D01*
X6048427Y-16318922D01*
X6038903Y-16357017D01*
X6029379Y-16376065D01*
X6019855Y-16385589D01*
X6000808Y-16395112D01*
X5981760Y-16395112D01*
X5962713Y-16385589D01*
X5953189Y-16376065D01*
X5943665Y-16357017D01*
X5934141Y-16318922D01*
X5934141Y-16271303D01*
X5943665Y-16233208D01*
X5953189Y-16214160D01*
X5962713Y-16204636D01*
X5981760Y-16195112D01*
X6124617Y-16195112D02*
X6124617Y-16233208D01*
X6200808Y-16195112D02*
X6200808Y-16233208D01*
X6496046Y-16471303D02*
X6486522Y-16461779D01*
X6467475Y-16433208D01*
X6457951Y-16414160D01*
X6448427Y-16385589D01*
X6438903Y-16337970D01*
X6438903Y-16299874D01*
X6448427Y-16252255D01*
X6457951Y-16223684D01*
X6467475Y-16204636D01*
X6486522Y-16176065D01*
X6496046Y-16166541D01*
X6676998Y-16395112D02*
X6562713Y-16395112D01*
X6619855Y-16395112D02*
X6619855Y-16195112D01*
X6600808Y-16223684D01*
X6581760Y-16242731D01*
X6562713Y-16252255D01*
X6753189Y-16214160D02*
X6762713Y-16204636D01*
X6781760Y-16195112D01*
X6829379Y-16195112D01*
X6848427Y-16204636D01*
X6857951Y-16214160D01*
X6867475Y-16233208D01*
X6867475Y-16252255D01*
X6857951Y-16280827D01*
X6743665Y-16395112D01*
X6867475Y-16395112D01*
X6991284Y-16195112D02*
X7010332Y-16195112D01*
X7029379Y-16204636D01*
X7038903Y-16214160D01*
X7048427Y-16233208D01*
X7057951Y-16271303D01*
X7057951Y-16318922D01*
X7048427Y-16357017D01*
X7038903Y-16376065D01*
X7029379Y-16385589D01*
X7010332Y-16395112D01*
X6991284Y-16395112D01*
X6972236Y-16385589D01*
X6962713Y-16376065D01*
X6953189Y-16357017D01*
X6943665Y-16318922D01*
X6943665Y-16271303D01*
X6953189Y-16233208D01*
X6962713Y-16214160D01*
X6972236Y-16204636D01*
X6991284Y-16195112D01*
X7296046Y-16395112D02*
X7296046Y-16195112D01*
X7381760Y-16395112D02*
X7381760Y-16290350D01*
X7372236Y-16271303D01*
X7353189Y-16261779D01*
X7324617Y-16261779D01*
X7305570Y-16271303D01*
X7296046Y-16280827D01*
X7505570Y-16395112D02*
X7486522Y-16385589D01*
X7476998Y-16376065D01*
X7467475Y-16357017D01*
X7467475Y-16299874D01*
X7476998Y-16280827D01*
X7486522Y-16271303D01*
X7505570Y-16261779D01*
X7534141Y-16261779D01*
X7553189Y-16271303D01*
X7562713Y-16280827D01*
X7572236Y-16299874D01*
X7572236Y-16357017D01*
X7562713Y-16376065D01*
X7553189Y-16385589D01*
X7534141Y-16395112D01*
X7505570Y-16395112D01*
X7686522Y-16395112D02*
X7667475Y-16385589D01*
X7657951Y-16366541D01*
X7657951Y-16195112D01*
X7838903Y-16385589D02*
X7819855Y-16395112D01*
X7781760Y-16395112D01*
X7762713Y-16385589D01*
X7753189Y-16366541D01*
X7753189Y-16290350D01*
X7762713Y-16271303D01*
X7781760Y-16261779D01*
X7819855Y-16261779D01*
X7838903Y-16271303D01*
X7848427Y-16290350D01*
X7848427Y-16309398D01*
X7753189Y-16328446D01*
X7924617Y-16385589D02*
X7943665Y-16395112D01*
X7981760Y-16395112D01*
X8000808Y-16385589D01*
X8010332Y-16366541D01*
X8010332Y-16357017D01*
X8000808Y-16337970D01*
X7981760Y-16328446D01*
X7953189Y-16328446D01*
X7934141Y-16318922D01*
X7924617Y-16299874D01*
X7924617Y-16290350D01*
X7934141Y-16271303D01*
X7953189Y-16261779D01*
X7981760Y-16261779D01*
X8000808Y-16271303D01*
X8076998Y-16471303D02*
X8086522Y-16461779D01*
X8105570Y-16433208D01*
X8115094Y-16414160D01*
X8124617Y-16385589D01*
X8134141Y-16337970D01*
X8134141Y-16299874D01*
X8124617Y-16252255D01*
X8115094Y-16223684D01*
X8105570Y-16204636D01*
X8086522Y-16176065D01*
X8076998Y-16166541D01*
D20*
X2774141Y-16499496D02*
X2924141Y-16649496D01*
X2924141Y-16499496D02*
X2774141Y-16649496D01*
X2849141Y-16649496D02*
X2924141Y-16574496D01*
X2849141Y-16499496D01*
X2774141Y-16574496D01*
X2849141Y-16649496D01*
D12*
X3286522Y-16664972D02*
X3172236Y-16664972D01*
X3229379Y-16664972D02*
X3229379Y-16464972D01*
X3210332Y-16493544D01*
X3191284Y-16512591D01*
X3172236Y-16522115D01*
X3372236Y-16645925D02*
X3381760Y-16655449D01*
X3372236Y-16664972D01*
X3362713Y-16655449D01*
X3372236Y-16645925D01*
X3372236Y-16664972D01*
X3562713Y-16464972D02*
X3467475Y-16464972D01*
X3457951Y-16560210D01*
X3467475Y-16550687D01*
X3486522Y-16541163D01*
X3534141Y-16541163D01*
X3553189Y-16550687D01*
X3562713Y-16560210D01*
X3572236Y-16579258D01*
X3572236Y-16626877D01*
X3562713Y-16645925D01*
X3553189Y-16655449D01*
X3534141Y-16664972D01*
X3486522Y-16664972D01*
X3467475Y-16655449D01*
X3457951Y-16645925D01*
X3696046Y-16464972D02*
X3715094Y-16464972D01*
X3734141Y-16474496D01*
X3743665Y-16484020D01*
X3753189Y-16503068D01*
X3762713Y-16541163D01*
X3762713Y-16588782D01*
X3753189Y-16626877D01*
X3743665Y-16645925D01*
X3734141Y-16655449D01*
X3715094Y-16664972D01*
X3696046Y-16664972D01*
X3676998Y-16655449D01*
X3667475Y-16645925D01*
X3657951Y-16626877D01*
X3648427Y-16588782D01*
X3648427Y-16541163D01*
X3657951Y-16503068D01*
X3667475Y-16484020D01*
X3676998Y-16474496D01*
X3696046Y-16464972D01*
X3886522Y-16464972D02*
X3905570Y-16464972D01*
X3924617Y-16474496D01*
X3934141Y-16484020D01*
X3943665Y-16503068D01*
X3953189Y-16541163D01*
X3953189Y-16588782D01*
X3943665Y-16626877D01*
X3934141Y-16645925D01*
X3924617Y-16655449D01*
X3905570Y-16664972D01*
X3886522Y-16664972D01*
X3867475Y-16655449D01*
X3857951Y-16645925D01*
X3848427Y-16626877D01*
X3838903Y-16588782D01*
X3838903Y-16541163D01*
X3848427Y-16503068D01*
X3857951Y-16484020D01*
X3867475Y-16474496D01*
X3886522Y-16464972D01*
X4038903Y-16664972D02*
X4038903Y-16531639D01*
X4038903Y-16550687D02*
X4048427Y-16541163D01*
X4067475Y-16531639D01*
X4096046Y-16531639D01*
X4115094Y-16541163D01*
X4124617Y-16560210D01*
X4124617Y-16664972D01*
X4124617Y-16560210D02*
X4134141Y-16541163D01*
X4153189Y-16531639D01*
X4181760Y-16531639D01*
X4200808Y-16541163D01*
X4210332Y-16560210D01*
X4210332Y-16664972D01*
X4305570Y-16664972D02*
X4305570Y-16531639D01*
X4305570Y-16550687D02*
X4315094Y-16541163D01*
X4334141Y-16531639D01*
X4362713Y-16531639D01*
X4381760Y-16541163D01*
X4391284Y-16560210D01*
X4391284Y-16664972D01*
X4391284Y-16560210D02*
X4400808Y-16541163D01*
X4419856Y-16531639D01*
X4448427Y-16531639D01*
X4467475Y-16541163D01*
X4476998Y-16560210D01*
X4476998Y-16664972D01*
X4867475Y-16455449D02*
X4696046Y-16712591D01*
X5124617Y-16464972D02*
X5143665Y-16464972D01*
X5162713Y-16474496D01*
X5172237Y-16484020D01*
X5181760Y-16503068D01*
X5191284Y-16541163D01*
X5191284Y-16588782D01*
X5181760Y-16626877D01*
X5172237Y-16645925D01*
X5162713Y-16655449D01*
X5143665Y-16664972D01*
X5124617Y-16664972D01*
X5105570Y-16655449D01*
X5096046Y-16645925D01*
X5086522Y-16626877D01*
X5076998Y-16588782D01*
X5076998Y-16541163D01*
X5086522Y-16503068D01*
X5096046Y-16484020D01*
X5105570Y-16474496D01*
X5124617Y-16464972D01*
X5276998Y-16645925D02*
X5286522Y-16655449D01*
X5276998Y-16664972D01*
X5267475Y-16655449D01*
X5276998Y-16645925D01*
X5276998Y-16664972D01*
X5410332Y-16464972D02*
X5429379Y-16464972D01*
X5448427Y-16474496D01*
X5457951Y-16484020D01*
X5467475Y-16503068D01*
X5476998Y-16541163D01*
X5476998Y-16588782D01*
X5467475Y-16626877D01*
X5457951Y-16645925D01*
X5448427Y-16655449D01*
X5429379Y-16664972D01*
X5410332Y-16664972D01*
X5391284Y-16655449D01*
X5381760Y-16645925D01*
X5372237Y-16626877D01*
X5362713Y-16588782D01*
X5362713Y-16541163D01*
X5372237Y-16503068D01*
X5381760Y-16484020D01*
X5391284Y-16474496D01*
X5410332Y-16464972D01*
X5657951Y-16464972D02*
X5562713Y-16464972D01*
X5553189Y-16560210D01*
X5562713Y-16550687D01*
X5581760Y-16541163D01*
X5629379Y-16541163D01*
X5648427Y-16550687D01*
X5657951Y-16560210D01*
X5667475Y-16579258D01*
X5667475Y-16626877D01*
X5657951Y-16645925D01*
X5648427Y-16655449D01*
X5629379Y-16664972D01*
X5581760Y-16664972D01*
X5562713Y-16655449D01*
X5553189Y-16645925D01*
X5762713Y-16664972D02*
X5800808Y-16664972D01*
X5819855Y-16655449D01*
X5829379Y-16645925D01*
X5848427Y-16617353D01*
X5857951Y-16579258D01*
X5857951Y-16503068D01*
X5848427Y-16484020D01*
X5838903Y-16474496D01*
X5819855Y-16464972D01*
X5781760Y-16464972D01*
X5762713Y-16474496D01*
X5753189Y-16484020D01*
X5743665Y-16503068D01*
X5743665Y-16550687D01*
X5753189Y-16569734D01*
X5762713Y-16579258D01*
X5781760Y-16588782D01*
X5819855Y-16588782D01*
X5838903Y-16579258D01*
X5848427Y-16569734D01*
X5857951Y-16550687D01*
X6048427Y-16664972D02*
X5934141Y-16664972D01*
X5991284Y-16664972D02*
X5991284Y-16464972D01*
X5972236Y-16493544D01*
X5953189Y-16512591D01*
X5934141Y-16522115D01*
X6124617Y-16464972D02*
X6124617Y-16503068D01*
X6200808Y-16464972D02*
X6200808Y-16503068D01*
X6496046Y-16741163D02*
X6486522Y-16731639D01*
X6467475Y-16703068D01*
X6457951Y-16684020D01*
X6448427Y-16655449D01*
X6438903Y-16607830D01*
X6438903Y-16569734D01*
X6448427Y-16522115D01*
X6457951Y-16493544D01*
X6467475Y-16474496D01*
X6486522Y-16445925D01*
X6496046Y-16436401D01*
X6610332Y-16464972D02*
X6629379Y-16464972D01*
X6648427Y-16474496D01*
X6657951Y-16484020D01*
X6667475Y-16503068D01*
X6676998Y-16541163D01*
X6676998Y-16588782D01*
X6667475Y-16626877D01*
X6657951Y-16645925D01*
X6648427Y-16655449D01*
X6629379Y-16664972D01*
X6610332Y-16664972D01*
X6591284Y-16655449D01*
X6581760Y-16645925D01*
X6572236Y-16626877D01*
X6562713Y-16588782D01*
X6562713Y-16541163D01*
X6572236Y-16503068D01*
X6581760Y-16484020D01*
X6591284Y-16474496D01*
X6610332Y-16464972D01*
X6915094Y-16664972D02*
X6915094Y-16464972D01*
X7000808Y-16664972D02*
X7000808Y-16560210D01*
X6991284Y-16541163D01*
X6972236Y-16531639D01*
X6943665Y-16531639D01*
X6924617Y-16541163D01*
X6915094Y-16550687D01*
X7124617Y-16664972D02*
X7105570Y-16655449D01*
X7096046Y-16645925D01*
X7086522Y-16626877D01*
X7086522Y-16569734D01*
X7096046Y-16550687D01*
X7105570Y-16541163D01*
X7124617Y-16531639D01*
X7153189Y-16531639D01*
X7172236Y-16541163D01*
X7181760Y-16550687D01*
X7191284Y-16569734D01*
X7191284Y-16626877D01*
X7181760Y-16645925D01*
X7172236Y-16655449D01*
X7153189Y-16664972D01*
X7124617Y-16664972D01*
X7305570Y-16664972D02*
X7286522Y-16655449D01*
X7276998Y-16636401D01*
X7276998Y-16464972D01*
X7457951Y-16655449D02*
X7438903Y-16664972D01*
X7400808Y-16664972D01*
X7381760Y-16655449D01*
X7372236Y-16636401D01*
X7372236Y-16560210D01*
X7381760Y-16541163D01*
X7400808Y-16531639D01*
X7438903Y-16531639D01*
X7457951Y-16541163D01*
X7467475Y-16560210D01*
X7467475Y-16579258D01*
X7372236Y-16598306D01*
X7543665Y-16655449D02*
X7562713Y-16664972D01*
X7600808Y-16664972D01*
X7619855Y-16655449D01*
X7629379Y-16636401D01*
X7629379Y-16626877D01*
X7619855Y-16607830D01*
X7600808Y-16598306D01*
X7572236Y-16598306D01*
X7553189Y-16588782D01*
X7543665Y-16569734D01*
X7543665Y-16560210D01*
X7553189Y-16541163D01*
X7572236Y-16531639D01*
X7600808Y-16531639D01*
X7619855Y-16541163D01*
X7867475Y-16588782D02*
X8019855Y-16588782D01*
X7943665Y-16664972D02*
X7943665Y-16512591D01*
X8353189Y-16531639D02*
X8353189Y-16664972D01*
X8305570Y-16455449D02*
X8257951Y-16598306D01*
X8381760Y-16598306D01*
X8600808Y-16655449D02*
X8619856Y-16664972D01*
X8657951Y-16664972D01*
X8676998Y-16655449D01*
X8686522Y-16636401D01*
X8686522Y-16626877D01*
X8676998Y-16607830D01*
X8657951Y-16598306D01*
X8629379Y-16598306D01*
X8610332Y-16588782D01*
X8600808Y-16569734D01*
X8600808Y-16560210D01*
X8610332Y-16541163D01*
X8629379Y-16531639D01*
X8657951Y-16531639D01*
X8676998Y-16541163D01*
X8800808Y-16664972D02*
X8781760Y-16655449D01*
X8772237Y-16636401D01*
X8772237Y-16464972D01*
X8905570Y-16664972D02*
X8886522Y-16655449D01*
X8876998Y-16645925D01*
X8867475Y-16626877D01*
X8867475Y-16569734D01*
X8876998Y-16550687D01*
X8886522Y-16541163D01*
X8905570Y-16531639D01*
X8934141Y-16531639D01*
X8953189Y-16541163D01*
X8962713Y-16550687D01*
X8972237Y-16569734D01*
X8972237Y-16626877D01*
X8962713Y-16645925D01*
X8953189Y-16655449D01*
X8934141Y-16664972D01*
X8905570Y-16664972D01*
X9029379Y-16531639D02*
X9105570Y-16531639D01*
X9057951Y-16464972D02*
X9057951Y-16636401D01*
X9067475Y-16655449D01*
X9086522Y-16664972D01*
X9105570Y-16664972D01*
X9162713Y-16655449D02*
X9181760Y-16664972D01*
X9219856Y-16664972D01*
X9238903Y-16655449D01*
X9248427Y-16636401D01*
X9248427Y-16626877D01*
X9238903Y-16607830D01*
X9219856Y-16598306D01*
X9191284Y-16598306D01*
X9172237Y-16588782D01*
X9162713Y-16569734D01*
X9162713Y-16560210D01*
X9172237Y-16541163D01*
X9191284Y-16531639D01*
X9219856Y-16531639D01*
X9238903Y-16541163D01*
X9315094Y-16741163D02*
X9324617Y-16731639D01*
X9343665Y-16703068D01*
X9353189Y-16684020D01*
X9362713Y-16655449D01*
X9372237Y-16607830D01*
X9372237Y-16569734D01*
X9362713Y-16522115D01*
X9353189Y-16493544D01*
X9343665Y-16474496D01*
X9324617Y-16445925D01*
X9315094Y-16436401D01*
X2824141Y-16744496D02*
X2824141Y-16944496D01*
X2724141Y-16844496D02*
X2924141Y-16844496D01*
X2924141Y-16844496D02*
G75*
G03*
X2924141Y-16844496I-100000J0D01*
G01*
X3172236Y-16754020D02*
X3181760Y-16744496D01*
X3200808Y-16734972D01*
X3248427Y-16734972D01*
X3267475Y-16744496D01*
X3276998Y-16754020D01*
X3286522Y-16773068D01*
X3286522Y-16792115D01*
X3276998Y-16820687D01*
X3162713Y-16934972D01*
X3286522Y-16934972D01*
X3372236Y-16915925D02*
X3381760Y-16925449D01*
X3372236Y-16934972D01*
X3362713Y-16925449D01*
X3372236Y-16915925D01*
X3372236Y-16934972D01*
X3457951Y-16754020D02*
X3467475Y-16744496D01*
X3486522Y-16734972D01*
X3534141Y-16734972D01*
X3553189Y-16744496D01*
X3562713Y-16754020D01*
X3572236Y-16773068D01*
X3572236Y-16792115D01*
X3562713Y-16820687D01*
X3448427Y-16934972D01*
X3572236Y-16934972D01*
X3696046Y-16734972D02*
X3715094Y-16734972D01*
X3734141Y-16744496D01*
X3743665Y-16754020D01*
X3753189Y-16773068D01*
X3762713Y-16811163D01*
X3762713Y-16858782D01*
X3753189Y-16896877D01*
X3743665Y-16915925D01*
X3734141Y-16925449D01*
X3715094Y-16934972D01*
X3696046Y-16934972D01*
X3676998Y-16925449D01*
X3667475Y-16915925D01*
X3657951Y-16896877D01*
X3648427Y-16858782D01*
X3648427Y-16811163D01*
X3657951Y-16773068D01*
X3667475Y-16754020D01*
X3676998Y-16744496D01*
X3696046Y-16734972D01*
X3886522Y-16734972D02*
X3905570Y-16734972D01*
X3924617Y-16744496D01*
X3934141Y-16754020D01*
X3943665Y-16773068D01*
X3953189Y-16811163D01*
X3953189Y-16858782D01*
X3943665Y-16896877D01*
X3934141Y-16915925D01*
X3924617Y-16925449D01*
X3905570Y-16934972D01*
X3886522Y-16934972D01*
X3867475Y-16925449D01*
X3857951Y-16915925D01*
X3848427Y-16896877D01*
X3838903Y-16858782D01*
X3838903Y-16811163D01*
X3848427Y-16773068D01*
X3857951Y-16754020D01*
X3867475Y-16744496D01*
X3886522Y-16734972D01*
X4038903Y-16934972D02*
X4038903Y-16801639D01*
X4038903Y-16820687D02*
X4048427Y-16811163D01*
X4067475Y-16801639D01*
X4096046Y-16801639D01*
X4115094Y-16811163D01*
X4124617Y-16830211D01*
X4124617Y-16934972D01*
X4124617Y-16830211D02*
X4134141Y-16811163D01*
X4153189Y-16801639D01*
X4181760Y-16801639D01*
X4200808Y-16811163D01*
X4210332Y-16830211D01*
X4210332Y-16934972D01*
X4305570Y-16934972D02*
X4305570Y-16801639D01*
X4305570Y-16820687D02*
X4315094Y-16811163D01*
X4334141Y-16801639D01*
X4362713Y-16801639D01*
X4381760Y-16811163D01*
X4391284Y-16830211D01*
X4391284Y-16934972D01*
X4391284Y-16830211D02*
X4400808Y-16811163D01*
X4419856Y-16801639D01*
X4448427Y-16801639D01*
X4467475Y-16811163D01*
X4476998Y-16830211D01*
X4476998Y-16934972D01*
X4867475Y-16725449D02*
X4696046Y-16982592D01*
X5124617Y-16734972D02*
X5143665Y-16734972D01*
X5162713Y-16744496D01*
X5172237Y-16754020D01*
X5181760Y-16773068D01*
X5191284Y-16811163D01*
X5191284Y-16858782D01*
X5181760Y-16896877D01*
X5172237Y-16915925D01*
X5162713Y-16925449D01*
X5143665Y-16934972D01*
X5124617Y-16934972D01*
X5105570Y-16925449D01*
X5096046Y-16915925D01*
X5086522Y-16896877D01*
X5076998Y-16858782D01*
X5076998Y-16811163D01*
X5086522Y-16773068D01*
X5096046Y-16754020D01*
X5105570Y-16744496D01*
X5124617Y-16734972D01*
X5276998Y-16915925D02*
X5286522Y-16925449D01*
X5276998Y-16934972D01*
X5267475Y-16925449D01*
X5276998Y-16915925D01*
X5276998Y-16934972D01*
X5410332Y-16734972D02*
X5429379Y-16734972D01*
X5448427Y-16744496D01*
X5457951Y-16754020D01*
X5467475Y-16773068D01*
X5476998Y-16811163D01*
X5476998Y-16858782D01*
X5467475Y-16896877D01*
X5457951Y-16915925D01*
X5448427Y-16925449D01*
X5429379Y-16934972D01*
X5410332Y-16934972D01*
X5391284Y-16925449D01*
X5381760Y-16915925D01*
X5372237Y-16896877D01*
X5362713Y-16858782D01*
X5362713Y-16811163D01*
X5372237Y-16773068D01*
X5381760Y-16754020D01*
X5391284Y-16744496D01*
X5410332Y-16734972D01*
X5591284Y-16820687D02*
X5572237Y-16811163D01*
X5562713Y-16801639D01*
X5553189Y-16782592D01*
X5553189Y-16773068D01*
X5562713Y-16754020D01*
X5572237Y-16744496D01*
X5591284Y-16734972D01*
X5629379Y-16734972D01*
X5648427Y-16744496D01*
X5657951Y-16754020D01*
X5667475Y-16773068D01*
X5667475Y-16782592D01*
X5657951Y-16801639D01*
X5648427Y-16811163D01*
X5629379Y-16820687D01*
X5591284Y-16820687D01*
X5572237Y-16830211D01*
X5562713Y-16839734D01*
X5553189Y-16858782D01*
X5553189Y-16896877D01*
X5562713Y-16915925D01*
X5572237Y-16925449D01*
X5591284Y-16934972D01*
X5629379Y-16934972D01*
X5648427Y-16925449D01*
X5657951Y-16915925D01*
X5667475Y-16896877D01*
X5667475Y-16858782D01*
X5657951Y-16839734D01*
X5648427Y-16830211D01*
X5629379Y-16820687D01*
X5838903Y-16734972D02*
X5800808Y-16734972D01*
X5781760Y-16744496D01*
X5772236Y-16754020D01*
X5753189Y-16782592D01*
X5743665Y-16820687D01*
X5743665Y-16896877D01*
X5753189Y-16915925D01*
X5762713Y-16925449D01*
X5781760Y-16934972D01*
X5819855Y-16934972D01*
X5838903Y-16925449D01*
X5848427Y-16915925D01*
X5857951Y-16896877D01*
X5857951Y-16849258D01*
X5848427Y-16830211D01*
X5838903Y-16820687D01*
X5819855Y-16811163D01*
X5781760Y-16811163D01*
X5762713Y-16820687D01*
X5753189Y-16830211D01*
X5743665Y-16849258D01*
X6029379Y-16734972D02*
X5991284Y-16734972D01*
X5972236Y-16744496D01*
X5962713Y-16754020D01*
X5943665Y-16782592D01*
X5934141Y-16820687D01*
X5934141Y-16896877D01*
X5943665Y-16915925D01*
X5953189Y-16925449D01*
X5972236Y-16934972D01*
X6010332Y-16934972D01*
X6029379Y-16925449D01*
X6038903Y-16915925D01*
X6048427Y-16896877D01*
X6048427Y-16849258D01*
X6038903Y-16830211D01*
X6029379Y-16820687D01*
X6010332Y-16811163D01*
X5972236Y-16811163D01*
X5953189Y-16820687D01*
X5943665Y-16830211D01*
X5934141Y-16849258D01*
X6124617Y-16734972D02*
X6124617Y-16773068D01*
X6200808Y-16734972D02*
X6200808Y-16773068D01*
X6496046Y-17011163D02*
X6486522Y-17001639D01*
X6467475Y-16973068D01*
X6457951Y-16954020D01*
X6448427Y-16925449D01*
X6438903Y-16877830D01*
X6438903Y-16839734D01*
X6448427Y-16792115D01*
X6457951Y-16763544D01*
X6467475Y-16744496D01*
X6486522Y-16715925D01*
X6496046Y-16706401D01*
X6600808Y-16820687D02*
X6581760Y-16811163D01*
X6572236Y-16801639D01*
X6562713Y-16782592D01*
X6562713Y-16773068D01*
X6572236Y-16754020D01*
X6581760Y-16744496D01*
X6600808Y-16734972D01*
X6638903Y-16734972D01*
X6657951Y-16744496D01*
X6667475Y-16754020D01*
X6676998Y-16773068D01*
X6676998Y-16782592D01*
X6667475Y-16801639D01*
X6657951Y-16811163D01*
X6638903Y-16820687D01*
X6600808Y-16820687D01*
X6581760Y-16830211D01*
X6572236Y-16839734D01*
X6562713Y-16858782D01*
X6562713Y-16896877D01*
X6572236Y-16915925D01*
X6581760Y-16925449D01*
X6600808Y-16934972D01*
X6638903Y-16934972D01*
X6657951Y-16925449D01*
X6667475Y-16915925D01*
X6676998Y-16896877D01*
X6676998Y-16858782D01*
X6667475Y-16839734D01*
X6657951Y-16830211D01*
X6638903Y-16820687D01*
X6915094Y-16934972D02*
X6915094Y-16734972D01*
X7000808Y-16934972D02*
X7000808Y-16830211D01*
X6991284Y-16811163D01*
X6972236Y-16801639D01*
X6943665Y-16801639D01*
X6924617Y-16811163D01*
X6915094Y-16820687D01*
X7124617Y-16934972D02*
X7105570Y-16925449D01*
X7096046Y-16915925D01*
X7086522Y-16896877D01*
X7086522Y-16839734D01*
X7096046Y-16820687D01*
X7105570Y-16811163D01*
X7124617Y-16801639D01*
X7153189Y-16801639D01*
X7172236Y-16811163D01*
X7181760Y-16820687D01*
X7191284Y-16839734D01*
X7191284Y-16896877D01*
X7181760Y-16915925D01*
X7172236Y-16925449D01*
X7153189Y-16934972D01*
X7124617Y-16934972D01*
X7305570Y-16934972D02*
X7286522Y-16925449D01*
X7276998Y-16906401D01*
X7276998Y-16734972D01*
X7457951Y-16925449D02*
X7438903Y-16934972D01*
X7400808Y-16934972D01*
X7381760Y-16925449D01*
X7372236Y-16906401D01*
X7372236Y-16830211D01*
X7381760Y-16811163D01*
X7400808Y-16801639D01*
X7438903Y-16801639D01*
X7457951Y-16811163D01*
X7467475Y-16830211D01*
X7467475Y-16849258D01*
X7372236Y-16868306D01*
X7543665Y-16925449D02*
X7562713Y-16934972D01*
X7600808Y-16934972D01*
X7619855Y-16925449D01*
X7629379Y-16906401D01*
X7629379Y-16896877D01*
X7619855Y-16877830D01*
X7600808Y-16868306D01*
X7572236Y-16868306D01*
X7553189Y-16858782D01*
X7543665Y-16839734D01*
X7543665Y-16830211D01*
X7553189Y-16811163D01*
X7572236Y-16801639D01*
X7600808Y-16801639D01*
X7619855Y-16811163D01*
X7696046Y-17011163D02*
X7705570Y-17001639D01*
X7724617Y-16973068D01*
X7734141Y-16954020D01*
X7743665Y-16925449D01*
X7753189Y-16877830D01*
X7753189Y-16839734D01*
X7743665Y-16792115D01*
X7734141Y-16763544D01*
X7724617Y-16744496D01*
X7705570Y-16715925D01*
X7696046Y-16706401D01*
M02*
