%FSLAX45Y45*%
G04 Gerber Fmt 4.5, Leading zero omitted, Abs format (unit mm)*
G04 Created by KiCad (PCBNEW (6.0.4)) date 2022-09-03 11:35:12*
%MOMM*%
%LPD*%
G01*
G04 APERTURE LIST*
%TA.AperFunction,Profile*%
%ADD10C,0.150000*%
%TD*%
%TA.AperFunction,Profile*%
%ADD11C,0.050000*%
%TD*%
%ADD12C,0.200000*%
%ADD13C,0.090000*%
%ADD14C,0.170180*%
%ADD15C,0.300000*%
%ADD16C,0.398780*%
G04 APERTURE END LIST*
D10*
X18425774Y-6541436D02*
G75*
G03*
X18491326Y-6339686I-68114J133656D01*
G01*
X18170987Y-5430581D02*
G75*
G03*
X18105435Y-5632330I68093J-133649D01*
G01*
X24902589Y-4746525D02*
G75*
G03*
X25072086Y-4850389I143451J43865D01*
G01*
X24459181Y-3296191D02*
X24902593Y-4746524D01*
X10526640Y-4344890D02*
G75*
G03*
X10449137Y-4135785I-134000J69250D01*
G01*
X11074959Y-13727234D02*
X11654662Y-12589502D01*
X5381439Y-8844415D02*
X8279884Y-9730558D01*
X10873210Y-13792786D02*
G75*
G03*
X11074959Y-13727234I68100J133646D01*
G01*
X7854779Y-11578842D02*
X8626563Y-10064131D01*
X18896132Y-12514515D02*
G75*
G03*
X11743295Y-12514515I-3576418J-11367363D01*
G01*
X8530773Y-3846814D02*
G75*
G03*
X8713705Y-3759564I43857J143444D01*
G01*
X13385657Y-7127380D02*
X17203771Y-7127380D01*
D11*
X15773400Y-7874000D02*
X14909800Y-7874000D01*
D10*
X2633917Y-8209401D02*
X3267733Y-4614853D01*
X25225797Y-8840140D02*
G75*
G03*
X25207988Y-8844415I26013J-147590D01*
G01*
X24459182Y-3296191D02*
G75*
G03*
X24271880Y-3196601I-143442J-43849D01*
G01*
X11743296Y-12514516D02*
G75*
G03*
X11654662Y-12589502I45024J-143094D01*
G01*
X18984766Y-12589502D02*
X19564469Y-13727234D01*
X12148101Y-6339686D02*
X12533993Y-5632330D01*
X5381439Y-8844415D02*
G75*
G03*
X5363631Y-8840139I-43859J-143465D01*
G01*
X19766219Y-13792787D02*
X21013628Y-13157200D01*
X22258657Y-3796819D02*
X24271880Y-3196601D01*
X8965643Y-3536414D02*
X10449137Y-4135785D01*
X18105435Y-5632330D02*
X18491326Y-6339686D01*
X22769095Y-11755590D02*
G75*
G03*
X22834649Y-11553842I-68095J133650D01*
G01*
X7920332Y-11780592D02*
X9524144Y-12597775D01*
X3441502Y-4493179D02*
G75*
G03*
X3267733Y-4614853I-26044J-147726D01*
G01*
X20116800Y-4140200D02*
X21823785Y-3486414D01*
X12533994Y-5632331D02*
G75*
G03*
X12468441Y-5430581I-133674J68091D01*
G01*
X22075726Y-3709563D02*
G75*
G03*
X22258657Y-3796819I139074J56183D01*
G01*
X22019053Y-3569301D02*
X22075723Y-3709564D01*
D11*
X15773400Y-8610600D02*
X14884400Y-8610600D01*
D10*
X19981290Y-4508185D02*
G75*
G03*
X20052269Y-4318344I-68110J133655D01*
G01*
X8965643Y-3536416D02*
G75*
G03*
X8770375Y-3619301I-56193J-139074D01*
G01*
X5736835Y-4746524D02*
X6180246Y-3296191D01*
X5567342Y-4850390D02*
G75*
G03*
X5736835Y-4746524I26048J147720D01*
G01*
X8713705Y-3759564D02*
X8770375Y-3619301D01*
X25072086Y-4850389D02*
X27197926Y-4493179D01*
X8388110Y-9774285D02*
X8279884Y-9730558D01*
X22128417Y-9837381D02*
G75*
G03*
X22062865Y-10039131I68093J-133649D01*
G01*
X6367548Y-3196601D02*
X8530771Y-3846819D01*
X13249461Y-7094680D02*
G75*
G03*
X13385657Y-7127380I136199J267300D01*
G01*
X12148103Y-6339687D02*
G75*
G03*
X12213654Y-6541436I133637J-68103D01*
G01*
D11*
X14807574Y-9869000D02*
X15634800Y-9869000D01*
X14884400Y-8610600D02*
X14884400Y-7874000D01*
X15773400Y-8610600D02*
X15773400Y-7874000D01*
D10*
X21065284Y-12597775D02*
X22769096Y-11755592D01*
X22128417Y-9837382D02*
X25207988Y-8844415D01*
X27883837Y-8383171D02*
G75*
G03*
X28005511Y-8209401I-26047J147721D01*
G01*
X20116800Y-4140200D02*
G75*
G03*
X20052269Y-4318344I62970J-123570D01*
G01*
X17339968Y-7094681D02*
X18425774Y-6541435D01*
X2755591Y-8383170D02*
X5363631Y-8840139D01*
X21079180Y-12955450D02*
X20999732Y-12799524D01*
X10526639Y-4344889D02*
G75*
G03*
X10560349Y-4484387I93941J-51121D01*
G01*
X9589699Y-12799526D02*
G75*
G03*
X9524144Y-12597775I-133659J68096D01*
G01*
X9575800Y-13157200D02*
X10873209Y-13792787D01*
X27371695Y-4614853D02*
X28005511Y-8209401D01*
X7854778Y-11578842D02*
G75*
G03*
X7920332Y-11780592I133652J-68098D01*
G01*
X18170987Y-5430581D02*
X19981290Y-4508186D01*
X25225797Y-8840139D02*
X27883837Y-8383170D01*
X9510249Y-12955451D02*
G75*
G03*
X9575800Y-13157200I133651J-68099D01*
G01*
X3441502Y-4493179D02*
X5567342Y-4850389D01*
X10560349Y-4484387D02*
X12468441Y-5430581D01*
D11*
X14807574Y-9869000D02*
X14807574Y-10541000D01*
D10*
X9589696Y-12799524D02*
X9510248Y-12955450D01*
D11*
X14884400Y-7874000D02*
X14909800Y-7874000D01*
X14807574Y-10541000D02*
X15634800Y-10541000D01*
D10*
X21065286Y-12597777D02*
G75*
G03*
X20999732Y-12799524I68104J-133653D01*
G01*
X2633920Y-8209402D02*
G75*
G03*
X2755591Y-8383170I147720J-26048D01*
G01*
X18984767Y-12589501D02*
G75*
G03*
X18896132Y-12514515I-133667J-68119D01*
G01*
X22062865Y-10039131D02*
X22834648Y-11553842D01*
X21013628Y-13157201D02*
G75*
G03*
X21079180Y-12955450I-68098J133651D01*
G01*
X8626559Y-10064129D02*
G75*
G03*
X8561011Y-9862382I-133649J68099D01*
G01*
X19564471Y-13727234D02*
G75*
G03*
X19766219Y-13792787I133649J68094D01*
G01*
X22019052Y-3569301D02*
G75*
G03*
X21823785Y-3486414I-139072J-56179D01*
G01*
X6367548Y-3196600D02*
G75*
G03*
X6180246Y-3296191I-43848J-143460D01*
G01*
X12213654Y-6541436D02*
X13249460Y-7094681D01*
X8561011Y-9862382D02*
X8388110Y-9774285D01*
D11*
X15634800Y-10541000D02*
X15634800Y-9869000D01*
D10*
X17203771Y-7127380D02*
G75*
G03*
X17339968Y-7094682I10J299960D01*
G01*
X27371698Y-4614852D02*
G75*
G03*
X27197926Y-4493179I-147729J-26058D01*
G01*
D12*
D13*
X15121200Y-7288000D02*
X15211200Y-7378000D01*
X15211200Y-7288000D02*
X15121200Y-7378000D01*
X15421200Y-7288000D02*
X15511200Y-7378000D01*
X15511200Y-7288000D02*
X15421200Y-7378000D01*
D14*
X3319348Y-7400205D02*
G75*
G03*
X3319348Y-7400205I-85090J0D01*
G01*
D12*
X3171979Y-7465472D02*
X3270459Y-7482837D01*
X3198057Y-7317573D02*
X3296538Y-7334938D01*
X3270459Y-7482837D02*
G75*
G03*
X3296538Y-7334938I13039J73949D01*
G01*
X3198057Y-7317573D02*
G75*
G03*
X3171979Y-7465472I-13039J-73949D01*
G01*
D14*
X3648376Y-5527363D02*
G75*
G03*
X3648376Y-5527363I-85090J0D01*
G01*
D12*
X3501006Y-5592630D02*
X3599487Y-5609994D01*
X3527085Y-5444731D02*
X3625566Y-5462096D01*
X3599487Y-5609994D02*
G75*
G03*
X3625566Y-5462096I13039J73949D01*
G01*
X3527085Y-5444731D02*
G75*
G03*
X3501006Y-5592630I-13039J-73949D01*
G01*
D14*
X4319844Y-7577022D02*
G75*
G03*
X4319844Y-7577022I-85090J0D01*
G01*
D12*
X4172474Y-7642289D02*
X4270955Y-7659653D01*
X4198553Y-7494390D02*
X4297034Y-7511755D01*
X4270955Y-7659653D02*
G75*
G03*
X4297034Y-7511755I13039J73949D01*
G01*
X4198553Y-7494390D02*
G75*
G03*
X4172474Y-7642289I-13039J-73949D01*
G01*
D14*
X4648872Y-5704179D02*
G75*
G03*
X4648872Y-5704179I-85090J0D01*
G01*
D12*
X4501502Y-5769446D02*
X4599983Y-5786811D01*
X4527581Y-5621548D02*
X4626062Y-5638913D01*
X4599983Y-5786811D02*
G75*
G03*
X4626062Y-5638913I13039J73949D01*
G01*
X4527581Y-5621548D02*
G75*
G03*
X4501502Y-5769446I-13039J-73949D01*
G01*
D14*
X5343315Y-7874128D02*
G75*
G03*
X5343315Y-7874128I-85090J0D01*
G01*
D12*
X5188456Y-7931318D02*
X5284086Y-7960555D01*
X5232364Y-7787700D02*
X5327995Y-7816937D01*
X5284086Y-7960555D02*
G75*
G03*
X5327995Y-7816937I21954J71809D01*
G01*
X5232364Y-7787700D02*
G75*
G03*
X5188456Y-7931318I-21954J-71809D01*
G01*
D14*
X5898854Y-6057187D02*
G75*
G03*
X5898854Y-6057187I-85090J0D01*
G01*
D12*
X5743994Y-6114377D02*
X5839625Y-6143614D01*
X5787903Y-5970759D02*
X5883533Y-5999996D01*
X5839625Y-6143614D02*
G75*
G03*
X5883533Y-5999996I21954J71809D01*
G01*
X5787903Y-5970759D02*
G75*
G03*
X5743994Y-6114377I-21954J-71809D01*
G01*
D14*
X6314805Y-8171556D02*
G75*
G03*
X6314805Y-8171556I-85090J0D01*
G01*
D12*
X6159946Y-8228746D02*
X6255576Y-8257984D01*
X6203854Y-8085129D02*
X6299484Y-8114366D01*
X6255576Y-8257984D02*
G75*
G03*
X6299484Y-8114366I21954J71809D01*
G01*
X6203854Y-8085129D02*
G75*
G03*
X6159946Y-8228746I-21954J-71809D01*
G01*
D14*
X6454328Y-4240170D02*
G75*
G03*
X6454328Y-4240170I-85090J0D01*
G01*
D12*
X6299468Y-4297360D02*
X6395099Y-4326597D01*
X6343377Y-4153742D02*
X6439007Y-4182979D01*
X6395099Y-4326597D02*
G75*
G03*
X6439007Y-4182979I21954J71809D01*
G01*
X6343377Y-4153742D02*
G75*
G03*
X6299468Y-4297360I-21954J-71809D01*
G01*
D14*
X6870344Y-6354615D02*
G75*
G03*
X6870344Y-6354615I-85090J0D01*
G01*
D12*
X6715484Y-6411805D02*
X6811115Y-6441043D01*
X6759393Y-6268188D02*
X6855023Y-6297425D01*
X6811115Y-6441043D02*
G75*
G03*
X6855023Y-6297425I21954J71809D01*
G01*
X6759393Y-6268188D02*
G75*
G03*
X6715484Y-6411805I-21954J-71809D01*
G01*
D14*
X7425817Y-4537598D02*
G75*
G03*
X7425817Y-4537598I-85090J0D01*
G01*
D12*
X7270958Y-4594788D02*
X7366588Y-4624026D01*
X7314866Y-4451171D02*
X7410497Y-4480408D01*
X7366588Y-4624026D02*
G75*
G03*
X7410497Y-4480408I21954J71809D01*
G01*
X7314866Y-4451171D02*
G75*
G03*
X7270958Y-4594788I-21954J-71809D01*
G01*
D14*
X7429805Y-7956952D02*
G75*
G03*
X7429805Y-7956952I-85090J0D01*
G01*
D12*
X7270227Y-8007843D02*
X7362945Y-8045304D01*
X7326485Y-7868599D02*
X7419203Y-7906060D01*
X7362945Y-8045304D02*
G75*
G03*
X7419203Y-7906060I28129J69622D01*
G01*
X7326485Y-7868599D02*
G75*
G03*
X7270227Y-8007843I-28129J-69622D01*
G01*
D14*
X8141557Y-6195302D02*
G75*
G03*
X8141557Y-6195302I-85090J0D01*
G01*
D12*
X7981979Y-6246194D02*
X8074697Y-6283655D01*
X8038237Y-6106950D02*
X8130956Y-6144410D01*
X8074697Y-6283655D02*
G75*
G03*
X8130956Y-6144410I28129J69622D01*
G01*
X8038237Y-6106950D02*
G75*
G03*
X7981979Y-6246194I-28129J-69622D01*
G01*
D14*
X8371675Y-8337919D02*
G75*
G03*
X8371675Y-8337919I-85090J0D01*
G01*
D12*
X8212097Y-8388811D02*
X8304815Y-8426272D01*
X8268355Y-8249566D02*
X8361074Y-8287027D01*
X8304815Y-8426272D02*
G75*
G03*
X8361074Y-8287027I28129J69622D01*
G01*
X8268355Y-8249567D02*
G75*
G03*
X8212097Y-8388811I-28129J-69622D01*
G01*
D14*
X8556392Y-11244695D02*
G75*
G03*
X8556392Y-11244695I-85090J0D01*
G01*
D12*
X8392662Y-11288901D02*
X8481763Y-11334300D01*
X8460842Y-11155090D02*
X8549943Y-11200488D01*
X8481763Y-11334300D02*
G75*
G03*
X8549943Y-11200488I34090J66906D01*
G01*
X8460842Y-11155090D02*
G75*
G03*
X8392662Y-11288901I-34090J-66906D01*
G01*
D14*
X8853310Y-4433653D02*
G75*
G03*
X8853310Y-4433653I-85090J0D01*
G01*
D12*
X8693732Y-4484545D02*
X8786450Y-4522006D01*
X8749990Y-4345300D02*
X8842708Y-4382761D01*
X8786450Y-4522006D02*
G75*
G03*
X8842708Y-4382761I28129J69622D01*
G01*
X8749990Y-4345301D02*
G75*
G03*
X8693732Y-4484545I-28129J-69622D01*
G01*
D14*
X9083428Y-6576270D02*
G75*
G03*
X9083428Y-6576270I-85090J0D01*
G01*
D12*
X8923850Y-6627162D02*
X9016568Y-6664622D01*
X8980108Y-6487917D02*
X9072826Y-6525378D01*
X9016568Y-6664622D02*
G75*
G03*
X9072826Y-6525378I28129J69622D01*
G01*
X8980108Y-6487917D02*
G75*
G03*
X8923850Y-6627162I-28129J-69622D01*
G01*
D14*
X9131943Y-9068835D02*
G75*
G03*
X9131943Y-9068835I-85090J0D01*
G01*
D12*
X8968213Y-9113041D02*
X9057314Y-9158440D01*
X9036393Y-8979230D02*
X9125494Y-9024629D01*
X9057314Y-9158440D02*
G75*
G03*
X9125494Y-9024629I34090J66906D01*
G01*
X9036393Y-8979230D02*
G75*
G03*
X8968213Y-9113041I-34090J-66906D01*
G01*
D14*
X9461475Y-11706302D02*
G75*
G03*
X9461475Y-11706302I-85090J0D01*
G01*
D12*
X9297745Y-11750508D02*
X9386845Y-11795907D01*
X9365925Y-11616697D02*
X9455026Y-11662096D01*
X9386845Y-11795907D02*
G75*
G03*
X9455026Y-11662096I34090J66906D01*
G01*
X9365925Y-11616697D02*
G75*
G03*
X9297745Y-11750508I-34090J-66906D01*
G01*
D14*
X9795180Y-4814621D02*
G75*
G03*
X9795180Y-4814621I-85090J0D01*
G01*
D12*
X9635602Y-4865512D02*
X9728320Y-4902973D01*
X9691860Y-4726268D02*
X9784579Y-4763729D01*
X9728320Y-4902973D02*
G75*
G03*
X9784579Y-4763729I28129J69622D01*
G01*
X9691860Y-4726268D02*
G75*
G03*
X9635602Y-4865512I-28129J-69622D01*
G01*
D14*
X9994525Y-7375922D02*
G75*
G03*
X9994525Y-7375922I-85090J0D01*
G01*
D12*
X9830795Y-7420129D02*
X9919895Y-7465528D01*
X9898975Y-7286317D02*
X9988076Y-7331716D01*
X9919895Y-7465528D02*
G75*
G03*
X9988076Y-7331716I34090J66906D01*
G01*
X9898975Y-7286317D02*
G75*
G03*
X9830795Y-7420129I-34090J-66906D01*
G01*
D14*
X10037026Y-9530442D02*
G75*
G03*
X10037026Y-9530442I-85090J0D01*
G01*
D12*
X9873296Y-9574648D02*
X9962396Y-9620047D01*
X9941476Y-9440837D02*
X10030577Y-9486236D01*
X9962396Y-9620047D02*
G75*
G03*
X10030577Y-9486236I34090J66906D01*
G01*
X9941476Y-9440837D02*
G75*
G03*
X9873296Y-9574648I-34090J-66906D01*
G01*
D14*
X10083659Y-12530505D02*
G75*
G03*
X10083659Y-12530505I-85090J0D01*
G01*
D12*
X9919929Y-12574711D02*
X10009029Y-12620110D01*
X9988109Y-12440900D02*
X10077210Y-12486299D01*
X10009029Y-12620110D02*
G75*
G03*
X10077210Y-12486299I34090J66906D01*
G01*
X9988109Y-12440900D02*
G75*
G03*
X9919929Y-12574711I-34090J-66906D01*
G01*
D14*
X10857107Y-5683010D02*
G75*
G03*
X10857107Y-5683010I-85090J0D01*
G01*
D12*
X10693377Y-5727216D02*
X10782477Y-5772615D01*
X10761557Y-5593405D02*
X10850658Y-5638804D01*
X10782477Y-5772615D02*
G75*
G03*
X10850658Y-5638804I34090J66906D01*
G01*
X10761557Y-5593405D02*
G75*
G03*
X10693377Y-5727216I-34090J-66906D01*
G01*
D14*
X10899608Y-7837530D02*
G75*
G03*
X10899608Y-7837530I-85090J0D01*
G01*
D12*
X10735878Y-7881736D02*
X10824978Y-7927135D01*
X10804058Y-7747925D02*
X10893159Y-7793324D01*
X10824978Y-7927135D02*
G75*
G03*
X10893158Y-7793324I34090J66906D01*
G01*
X10804058Y-7747925D02*
G75*
G03*
X10735878Y-7881736I-34090J-66906D01*
G01*
D14*
X10988742Y-12992112D02*
G75*
G03*
X10988742Y-12992112I-85090J0D01*
G01*
D12*
X10825012Y-13036318D02*
X10914112Y-13081717D01*
X10893192Y-12902507D02*
X10982293Y-12947906D01*
X10914112Y-13081717D02*
G75*
G03*
X10982292Y-12947906I34090J66906D01*
G01*
X10893192Y-12902507D02*
G75*
G03*
X10825012Y-13036318I-34090J-66906D01*
G01*
D14*
X11306147Y-9084961D02*
G75*
G03*
X11306147Y-9084961I-85090J0D01*
G01*
D12*
X11142416Y-9129167D02*
X11231517Y-9174566D01*
X11210596Y-8995355D02*
X11299697Y-9040754D01*
X11231517Y-9174566D02*
G75*
G03*
X11299697Y-9040754I34090J66906D01*
G01*
X11210596Y-8995355D02*
G75*
G03*
X11142416Y-9129167I-34090J-66906D01*
G01*
D14*
X11762190Y-6144617D02*
G75*
G03*
X11762190Y-6144617I-85090J0D01*
G01*
D12*
X11598459Y-6188824D02*
X11687560Y-6234223D01*
X11666640Y-6055012D02*
X11755740Y-6100411D01*
X11687560Y-6234223D02*
G75*
G03*
X11755740Y-6100411I34090J66906D01*
G01*
X11666640Y-6055012D02*
G75*
G03*
X11598460Y-6188824I-34090J-66906D01*
G01*
D14*
X12168729Y-7392048D02*
G75*
G03*
X12168729Y-7392048I-85090J0D01*
G01*
D12*
X12004998Y-7436254D02*
X12094099Y-7481653D01*
X12073178Y-7302443D02*
X12162279Y-7347842D01*
X12094099Y-7481653D02*
G75*
G03*
X12162279Y-7347842I34090J66906D01*
G01*
X12073178Y-7302443D02*
G75*
G03*
X12004998Y-7436254I-34090J-66906D01*
G01*
D14*
X12211229Y-9546568D02*
G75*
G03*
X12211229Y-9546568I-85090J0D01*
G01*
D12*
X12047499Y-9590774D02*
X12136600Y-9636173D01*
X12115679Y-9456963D02*
X12204780Y-9502362D01*
X12136600Y-9636173D02*
G75*
G03*
X12204780Y-9502362I34090J66906D01*
G01*
X12115679Y-9456963D02*
G75*
G03*
X12047499Y-9590774I-34090J-66906D01*
G01*
D14*
X13073811Y-7853655D02*
G75*
G03*
X13073811Y-7853655I-85090J0D01*
G01*
D12*
X12910081Y-7897862D02*
X12999182Y-7943261D01*
X12978261Y-7764050D02*
X13067362Y-7809449D01*
X12999182Y-7943261D02*
G75*
G03*
X13067362Y-7809449I34090J66906D01*
G01*
X12978261Y-7764050D02*
G75*
G03*
X12910081Y-7897862I-34090J-66906D01*
G01*
D14*
X17685564Y-7853083D02*
G75*
G03*
X17685564Y-7853083I-85090J0D01*
G01*
D12*
X17590014Y-7942689D02*
X17679115Y-7897290D01*
X17521834Y-7808877D02*
X17610934Y-7763478D01*
X17679115Y-7897290D02*
G75*
G03*
X17610934Y-7763478I-34090J66906D01*
G01*
X17521834Y-7808877D02*
G75*
G03*
X17590014Y-7942689I34090J-66906D01*
G01*
D14*
X18548146Y-9545996D02*
G75*
G03*
X18548146Y-9545996I-85090J0D01*
G01*
D12*
X18452596Y-9635601D02*
X18541697Y-9590202D01*
X18384416Y-9501790D02*
X18473516Y-9456391D01*
X18541697Y-9590202D02*
G75*
G03*
X18473516Y-9456391I-34090J66906D01*
G01*
X18384416Y-9501790D02*
G75*
G03*
X18452596Y-9635601I34090J-66906D01*
G01*
D14*
X18591007Y-7392182D02*
G75*
G03*
X18591007Y-7392182I-85090J0D01*
G01*
D12*
X18495456Y-7481787D02*
X18584557Y-7436388D01*
X18427276Y-7347976D02*
X18516377Y-7302577D01*
X18584557Y-7436388D02*
G75*
G03*
X18516377Y-7302577I-34090J66906D01*
G01*
X18427276Y-7347976D02*
G75*
G03*
X18495456Y-7481787I34090J-66906D01*
G01*
D14*
X18997186Y-6144045D02*
G75*
G03*
X18997186Y-6144045I-85090J0D01*
G01*
D12*
X18901635Y-6233651D02*
X18990736Y-6188252D01*
X18833455Y-6099839D02*
X18922556Y-6054440D01*
X18990736Y-6188252D02*
G75*
G03*
X18922556Y-6054440I-34090J66906D01*
G01*
X18833455Y-6099839D02*
G75*
G03*
X18901635Y-6233651I34090J-66906D01*
G01*
D14*
X19453589Y-9085095D02*
G75*
G03*
X19453589Y-9085095I-85090J0D01*
G01*
D12*
X19358038Y-9174700D02*
X19447139Y-9129301D01*
X19289858Y-9040888D02*
X19378959Y-8995489D01*
X19447139Y-9129301D02*
G75*
G03*
X19378959Y-8995489I-34090J66906D01*
G01*
X19289858Y-9040888D02*
G75*
G03*
X19358038Y-9174700I34090J-66906D01*
G01*
D14*
X19770634Y-12991540D02*
G75*
G03*
X19770634Y-12991540I-85090J0D01*
G01*
D12*
X19675083Y-13081145D02*
X19764184Y-13035746D01*
X19606903Y-12947334D02*
X19696004Y-12901935D01*
X19764184Y-13035746D02*
G75*
G03*
X19696004Y-12901935I-34090J66906D01*
G01*
X19606903Y-12947334D02*
G75*
G03*
X19675083Y-13081145I34090J-66906D01*
G01*
D14*
X19859768Y-7836958D02*
G75*
G03*
X19859768Y-7836958I-85090J0D01*
G01*
D12*
X19764217Y-7926563D02*
X19853318Y-7881164D01*
X19696037Y-7792752D02*
X19785138Y-7747353D01*
X19853318Y-7881164D02*
G75*
G03*
X19785138Y-7747353I-34090J66906D01*
G01*
X19696037Y-7792752D02*
G75*
G03*
X19764217Y-7926563I34090J-66906D01*
G01*
D14*
X19902628Y-5683144D02*
G75*
G03*
X19902628Y-5683144I-85090J0D01*
G01*
D12*
X19807078Y-5772749D02*
X19896178Y-5727350D01*
X19738897Y-5638938D02*
X19827998Y-5593539D01*
X19896178Y-5727350D02*
G75*
G03*
X19827998Y-5593539I-34090J66906D01*
G01*
X19738898Y-5638938D02*
G75*
G03*
X19807078Y-5772749I34090J-66906D01*
G01*
D14*
X20676076Y-12530639D02*
G75*
G03*
X20676076Y-12530639I-85090J0D01*
G01*
D12*
X20580526Y-12620244D02*
X20669626Y-12574845D01*
X20512345Y-12486432D02*
X20601446Y-12441033D01*
X20669626Y-12574845D02*
G75*
G03*
X20601446Y-12441033I-34090J66906D01*
G01*
X20512346Y-12486432D02*
G75*
G03*
X20580526Y-12620244I34090J-66906D01*
G01*
D14*
X20722349Y-9529870D02*
G75*
G03*
X20722349Y-9529870I-85090J0D01*
G01*
D12*
X20626799Y-9619475D02*
X20715900Y-9574076D01*
X20558619Y-9485664D02*
X20647720Y-9440265D01*
X20715900Y-9574076D02*
G75*
G03*
X20647720Y-9440265I-34090J66906D01*
G01*
X20558619Y-9485664D02*
G75*
G03*
X20626799Y-9619475I34090J-66906D01*
G01*
D14*
X20765210Y-7376056D02*
G75*
G03*
X20765210Y-7376056I-85090J0D01*
G01*
D12*
X20669660Y-7465662D02*
X20758760Y-7420263D01*
X20601479Y-7331850D02*
X20690580Y-7286451D01*
X20758760Y-7420263D02*
G75*
G03*
X20690580Y-7286451I-34090J66906D01*
G01*
X20601480Y-7331850D02*
G75*
G03*
X20669660Y-7465662I34090J-66906D01*
G01*
D14*
X20964244Y-4814073D02*
G75*
G03*
X20964244Y-4814073I-85090J0D01*
G01*
D12*
X20860924Y-4902425D02*
X20953642Y-4864965D01*
X20804666Y-4763181D02*
X20897384Y-4725720D01*
X20953642Y-4864965D02*
G75*
G03*
X20897384Y-4725720I-28129J69622D01*
G01*
X20804666Y-4763181D02*
G75*
G03*
X20860924Y-4902425I28129J-69622D01*
G01*
D14*
X21297900Y-11705730D02*
G75*
G03*
X21297900Y-11705730I-85090J0D01*
G01*
D12*
X21202350Y-11795335D02*
X21291451Y-11749936D01*
X21134170Y-11661524D02*
X21223271Y-11616125D01*
X21291451Y-11749936D02*
G75*
G03*
X21223271Y-11616125I-34090J66906D01*
G01*
X21134170Y-11661524D02*
G75*
G03*
X21202350Y-11795335I34090J-66906D01*
G01*
D14*
X21627792Y-9068969D02*
G75*
G03*
X21627792Y-9068969I-85090J0D01*
G01*
D12*
X21532242Y-9158574D02*
X21621342Y-9113175D01*
X21464061Y-9024763D02*
X21553162Y-8979364D01*
X21621342Y-9113175D02*
G75*
G03*
X21553162Y-8979364I-34090J66906D01*
G01*
X21464061Y-9024763D02*
G75*
G03*
X21532242Y-9158574I34090J-66906D01*
G01*
D14*
X21675996Y-6575722D02*
G75*
G03*
X21675996Y-6575722I-85090J0D01*
G01*
D12*
X21572676Y-6664074D02*
X21665395Y-6626614D01*
X21516418Y-6524830D02*
X21609136Y-6487369D01*
X21665395Y-6626614D02*
G75*
G03*
X21609136Y-6487369I-28129J69622D01*
G01*
X21516418Y-6524830D02*
G75*
G03*
X21572676Y-6664074I28129J-69622D01*
G01*
D14*
X21906411Y-4433840D02*
G75*
G03*
X21906411Y-4433840I-85090J0D01*
G01*
D12*
X21803091Y-4522192D02*
X21895810Y-4484732D01*
X21746833Y-4382948D02*
X21839551Y-4345487D01*
X21895810Y-4484732D02*
G75*
G03*
X21839551Y-4345487I-28129J69622D01*
G01*
X21746833Y-4382948D02*
G75*
G03*
X21803091Y-4522192I28129J-69622D01*
G01*
D14*
X22203343Y-11244829D02*
G75*
G03*
X22203343Y-11244829I-85090J0D01*
G01*
D12*
X22107793Y-11334434D02*
X22196893Y-11289035D01*
X22039612Y-11200622D02*
X22128713Y-11155223D01*
X22196893Y-11289035D02*
G75*
G03*
X22128713Y-11155223I-34090J66906D01*
G01*
X22039612Y-11200622D02*
G75*
G03*
X22107793Y-11334434I34090J-66906D01*
G01*
D14*
X22387749Y-8337371D02*
G75*
G03*
X22387749Y-8337371I-85090J0D01*
G01*
D12*
X22284429Y-8425724D02*
X22377147Y-8388263D01*
X22228171Y-8286479D02*
X22320889Y-8249019D01*
X22377147Y-8388263D02*
G75*
G03*
X22320889Y-8249019I-28129J69622D01*
G01*
X22228171Y-8286479D02*
G75*
G03*
X22284429Y-8425724I28129J-69622D01*
G01*
D14*
X22618164Y-6195489D02*
G75*
G03*
X22618164Y-6195489I-85090J0D01*
G01*
D12*
X22514844Y-6283841D02*
X22607562Y-6246381D01*
X22458585Y-6144597D02*
X22551304Y-6107136D01*
X22607562Y-6246381D02*
G75*
G03*
X22551304Y-6107136I-28129J69622D01*
G01*
X22458585Y-6144597D02*
G75*
G03*
X22514844Y-6283841I28129J-69622D01*
G01*
D14*
X23329916Y-7957138D02*
G75*
G03*
X23329916Y-7957138I-85090J0D01*
G01*
D12*
X23226596Y-8045491D02*
X23319314Y-8008030D01*
X23170338Y-7906246D02*
X23263056Y-7868786D01*
X23319314Y-8008030D02*
G75*
G03*
X23263056Y-7868786I-28129J69622D01*
G01*
X23170338Y-7906246D02*
G75*
G03*
X23226596Y-8045491I28129J-69622D01*
G01*
D14*
X23333653Y-4537078D02*
G75*
G03*
X23333653Y-4537078I-85090J0D01*
G01*
D12*
X23222702Y-4623506D02*
X23318333Y-4594269D01*
X23178794Y-4479888D02*
X23274424Y-4450651D01*
X23318333Y-4594269D02*
G75*
G03*
X23274424Y-4450651I-21954J71809D01*
G01*
X23178794Y-4479888D02*
G75*
G03*
X23222702Y-4623506I21954J-71809D01*
G01*
D14*
X23889160Y-6354057D02*
G75*
G03*
X23889160Y-6354057I-85090J0D01*
G01*
D12*
X23778209Y-6440485D02*
X23873839Y-6411248D01*
X23734300Y-6296867D02*
X23829931Y-6267630D01*
X23873839Y-6411248D02*
G75*
G03*
X23829931Y-6267630I-21954J71809D01*
G01*
X23734300Y-6296867D02*
G75*
G03*
X23778209Y-6440485I21954J-71809D01*
G01*
D14*
X24305375Y-4240407D02*
G75*
G03*
X24305375Y-4240407I-85090J0D01*
G01*
D12*
X24194424Y-4326835D02*
X24290054Y-4297598D01*
X24150515Y-4183217D02*
X24246146Y-4153980D01*
X24290054Y-4297598D02*
G75*
G03*
X24246146Y-4153980I-21954J71809D01*
G01*
X24150515Y-4183217D02*
G75*
G03*
X24194424Y-4326835I21954J-71809D01*
G01*
D14*
X24444666Y-8171036D02*
G75*
G03*
X24444666Y-8171036I-85090J0D01*
G01*
D12*
X24333715Y-8257464D02*
X24429345Y-8228227D01*
X24289806Y-8113846D02*
X24385437Y-8084609D01*
X24429345Y-8228227D02*
G75*
G03*
X24385437Y-8084609I-21954J71809D01*
G01*
X24289806Y-8113846D02*
G75*
G03*
X24333715Y-8257464I21954J-71809D01*
G01*
D14*
X24860881Y-6057386D02*
G75*
G03*
X24860881Y-6057386I-85090J0D01*
G01*
D12*
X24749930Y-6143814D02*
X24845560Y-6114577D01*
X24706022Y-6000196D02*
X24801652Y-5970959D01*
X24845560Y-6114577D02*
G75*
G03*
X24801652Y-5970959I-21954J71809D01*
G01*
X24706022Y-6000196D02*
G75*
G03*
X24749930Y-6143814I21954J-71809D01*
G01*
D14*
X25416387Y-7874365D02*
G75*
G03*
X25416387Y-7874365I-85090J0D01*
G01*
D12*
X25305436Y-7960793D02*
X25401067Y-7931556D01*
X25261528Y-7817175D02*
X25357158Y-7787938D01*
X25401067Y-7931556D02*
G75*
G03*
X25357158Y-7787938I-21954J71809D01*
G01*
X25261528Y-7817175D02*
G75*
G03*
X25305436Y-7960793I21954J-71809D01*
G01*
D14*
X26109129Y-5705069D02*
G75*
G03*
X26109129Y-5705069I-85090J0D01*
G01*
D12*
X25987837Y-5787701D02*
X26086318Y-5770336D01*
X25961759Y-5639802D02*
X26060240Y-5622438D01*
X26086318Y-5770336D02*
G75*
G03*
X26060240Y-5622438I-13039J73949D01*
G01*
X25961759Y-5639802D02*
G75*
G03*
X25987837Y-5787701I13039J-73949D01*
G01*
D14*
X26439655Y-7576586D02*
G75*
G03*
X26439655Y-7576586I-85090J0D01*
G01*
D12*
X26318364Y-7659217D02*
X26416845Y-7641853D01*
X26292286Y-7511319D02*
X26390766Y-7493954D01*
X26416845Y-7641853D02*
G75*
G03*
X26390766Y-7493954I-13039J73949D01*
G01*
X26292286Y-7511319D02*
G75*
G03*
X26318364Y-7659217I13039J-73949D01*
G01*
D14*
X27109762Y-5529033D02*
G75*
G03*
X27109762Y-5529033I-85090J0D01*
G01*
D12*
X26988471Y-5611664D02*
X27086952Y-5594300D01*
X26962392Y-5463766D02*
X27060873Y-5446401D01*
X27086952Y-5594300D02*
G75*
G03*
X27060873Y-5446401I-13039J73949D01*
G01*
X26962392Y-5463766D02*
G75*
G03*
X26988471Y-5611664I13039J-73949D01*
G01*
D14*
X27440289Y-7400549D02*
G75*
G03*
X27440289Y-7400549I-85090J0D01*
G01*
D12*
X27318997Y-7483181D02*
X27417478Y-7465816D01*
X27292919Y-7335283D02*
X27391400Y-7317918D01*
X27417478Y-7465816D02*
G75*
G03*
X27391400Y-7317918I-13039J73949D01*
G01*
X27292919Y-7335283D02*
G75*
G03*
X27318997Y-7483181I13039J-73949D01*
G01*
D15*
X3307481Y-6882398D02*
X3307481Y-7182398D01*
X3157481Y-7032398D02*
X3457481Y-7032398D01*
X3403367Y-7022507D02*
X3403367Y-7322507D01*
X3253367Y-7172507D02*
X3553367Y-7172507D01*
X3636509Y-5009555D02*
X3636509Y-5309555D01*
X3486509Y-5159555D02*
X3786509Y-5159555D01*
X3732394Y-5149665D02*
X3732394Y-5449665D01*
X3582394Y-5299665D02*
X3882394Y-5299665D01*
X3838087Y-6752564D02*
X3838087Y-7052564D01*
X3688087Y-6902564D02*
X3988087Y-6902564D01*
X4072826Y-6882633D02*
X4072826Y-7182633D01*
X3922826Y-7032633D02*
X4222826Y-7032633D01*
X4167115Y-4879722D02*
X4167115Y-5179722D01*
X4017115Y-5029722D02*
X4317115Y-5029722D01*
X4291994Y-7056330D02*
X4291994Y-7356330D01*
X4141994Y-7206330D02*
X4441994Y-7206330D01*
X4401854Y-5009791D02*
X4401854Y-5309791D01*
X4251854Y-5159791D02*
X4551854Y-5159791D01*
X4621022Y-5183487D02*
X4621022Y-5483487D01*
X4471022Y-5333487D02*
X4771022Y-5333487D01*
X5375727Y-7367985D02*
X5375727Y-7667985D01*
X5225727Y-7517985D02*
X5525727Y-7517985D01*
X5453823Y-7518736D02*
X5453823Y-7818736D01*
X5303823Y-7668736D02*
X5603823Y-7668736D01*
X5918201Y-7303784D02*
X5918201Y-7603784D01*
X5768201Y-7453784D02*
X6068201Y-7453784D01*
X5931265Y-5551044D02*
X5931265Y-5851044D01*
X5781265Y-5701044D02*
X6081265Y-5701044D01*
X6009361Y-5701795D02*
X6009361Y-6001795D01*
X5859361Y-5851795D02*
X6159361Y-5851795D01*
X6135338Y-7461491D02*
X6135338Y-7761491D01*
X5985338Y-7611491D02*
X6285338Y-7611491D01*
X6331704Y-7660603D02*
X6331704Y-7960603D01*
X6181704Y-7810603D02*
X6481704Y-7810603D01*
X6473739Y-5486843D02*
X6473739Y-5786843D01*
X6323739Y-5636843D02*
X6623739Y-5636843D01*
X6486739Y-3734027D02*
X6486739Y-4034027D01*
X6336739Y-3884027D02*
X6636739Y-3884027D01*
X6564835Y-3884778D02*
X6564835Y-4184778D01*
X6414835Y-4034778D02*
X6714835Y-4034778D01*
X6690877Y-5644550D02*
X6690877Y-5944550D01*
X6540877Y-5794550D02*
X6840877Y-5794550D01*
X6887243Y-5843662D02*
X6887243Y-6143662D01*
X6737243Y-5993662D02*
X7037243Y-5993662D01*
X7029213Y-3669826D02*
X7029213Y-3969826D01*
X6879213Y-3819826D02*
X7179213Y-3819826D01*
X7246351Y-3827533D02*
X7246351Y-4127533D01*
X7096351Y-3977533D02*
X7396351Y-3977533D01*
X7442716Y-4026645D02*
X7442716Y-4326645D01*
X7292716Y-4176645D02*
X7592716Y-4176645D01*
X7492809Y-7462405D02*
X7492809Y-7762405D01*
X7342809Y-7612405D02*
X7642809Y-7612405D01*
X7557469Y-7619389D02*
X7557469Y-7919389D01*
X7407469Y-7769389D02*
X7707469Y-7769389D01*
X8038814Y-7445728D02*
X8038814Y-7745728D01*
X7888814Y-7595728D02*
X8188814Y-7595728D01*
X8204562Y-5700756D02*
X8204562Y-6000756D01*
X8054562Y-5850756D02*
X8354562Y-5850756D01*
X8241381Y-7621760D02*
X8241381Y-7921760D01*
X8091381Y-7771760D02*
X8391381Y-7771760D01*
X8269221Y-5857740D02*
X8269221Y-6157740D01*
X8119221Y-6007740D02*
X8419222Y-6007740D01*
X8419645Y-7837228D02*
X8419645Y-8137228D01*
X8269645Y-7987228D02*
X8569645Y-7987228D01*
X8648862Y-10764367D02*
X8648862Y-11064367D01*
X8498862Y-10914367D02*
X8798862Y-10914367D01*
X8699594Y-10926389D02*
X8699594Y-11226389D01*
X8549594Y-11076389D02*
X8849594Y-11076389D01*
X8750567Y-5684079D02*
X8750567Y-5984079D01*
X8600567Y-5834079D02*
X8900567Y-5834079D01*
X8916314Y-3939107D02*
X8916314Y-4239107D01*
X8766314Y-4089107D02*
X9066314Y-4089107D01*
X8953133Y-5860110D02*
X8953133Y-6160110D01*
X8803133Y-6010110D02*
X9103133Y-6010110D01*
X8980974Y-4096091D02*
X8980974Y-4396091D01*
X8830974Y-4246091D02*
X9130974Y-4246091D01*
X9131398Y-6075579D02*
X9131398Y-6375579D01*
X8981398Y-6225579D02*
X9281398Y-6225579D01*
X9194243Y-10795341D02*
X9194243Y-11095341D01*
X9044243Y-10945341D02*
X9344243Y-10945341D01*
X9224413Y-8588507D02*
X9224413Y-8888507D01*
X9074413Y-8738507D02*
X9374413Y-8738507D01*
X9275145Y-8750529D02*
X9275145Y-9050529D01*
X9125145Y-8900529D02*
X9425145Y-8900529D01*
X9380697Y-10988357D02*
X9380697Y-11288357D01*
X9230697Y-11138357D02*
X9530697Y-11138357D01*
X9462320Y-3922430D02*
X9462320Y-4222430D01*
X9312320Y-4072430D02*
X9612320Y-4072430D01*
X9539504Y-11218543D02*
X9539504Y-11518543D01*
X9389504Y-11368543D02*
X9689504Y-11368543D01*
X9664886Y-4098461D02*
X9664886Y-4398461D01*
X9514886Y-4248461D02*
X9814886Y-4248461D01*
X9769794Y-8619481D02*
X9769794Y-8919481D01*
X9619794Y-8769481D02*
X9919794Y-8769481D01*
X9843150Y-4313930D02*
X9843150Y-4613930D01*
X9693150Y-4463930D02*
X9993150Y-4463930D01*
X9956248Y-8812497D02*
X9956248Y-9112497D01*
X9806248Y-8962497D02*
X10106248Y-8962497D01*
X10086995Y-6895595D02*
X10086995Y-7195595D01*
X9936995Y-7045595D02*
X10236995Y-7045595D01*
X10115055Y-9042683D02*
X10115055Y-9342683D01*
X9965055Y-9192683D02*
X10265055Y-9192683D01*
X10137727Y-7057617D02*
X10137727Y-7357617D01*
X9987727Y-7207617D02*
X10287727Y-7207617D01*
X10176129Y-12050177D02*
X10176129Y-12350177D01*
X10026129Y-12200177D02*
X10326129Y-12200177D01*
X10226861Y-12212199D02*
X10226861Y-12512199D01*
X10076861Y-12362199D02*
X10376861Y-12362199D01*
X10632376Y-6926568D02*
X10632376Y-7226568D01*
X10482376Y-7076568D02*
X10782376Y-7076568D01*
X10721510Y-12081151D02*
X10721510Y-12381151D01*
X10571510Y-12231151D02*
X10871510Y-12231151D01*
X10818830Y-7119585D02*
X10818830Y-7419585D01*
X10668830Y-7269585D02*
X10968830Y-7269585D01*
X10907964Y-12274167D02*
X10907964Y-12574167D01*
X10757964Y-12424167D02*
X11057964Y-12424167D01*
X10949577Y-5202682D02*
X10949577Y-5502682D01*
X10799577Y-5352682D02*
X11099577Y-5352682D01*
X10977636Y-7349770D02*
X10977636Y-7649770D01*
X10827636Y-7499770D02*
X11127636Y-7499770D01*
X11000309Y-5364704D02*
X11000309Y-5664704D01*
X10850309Y-5514704D02*
X11150309Y-5514704D01*
X11066770Y-12504353D02*
X11066770Y-12804353D01*
X10916770Y-12654353D02*
X11216770Y-12654353D01*
X11398616Y-8604633D02*
X11398616Y-8904633D01*
X11248616Y-8754633D02*
X11548616Y-8754633D01*
X11449348Y-8766655D02*
X11449348Y-9066655D01*
X11299348Y-8916655D02*
X11599348Y-8916655D01*
X11494958Y-5233656D02*
X11494958Y-5533656D01*
X11344958Y-5383656D02*
X11644958Y-5383656D01*
X11681411Y-5426673D02*
X11681411Y-5726672D01*
X11531411Y-5576673D02*
X11831411Y-5576673D01*
X11840218Y-5656858D02*
X11840218Y-5956858D01*
X11690218Y-5806858D02*
X11990218Y-5806858D01*
X11943997Y-8635607D02*
X11943997Y-8935607D01*
X11793997Y-8785607D02*
X12093997Y-8785607D01*
X12130451Y-8828623D02*
X12130451Y-9128623D01*
X11980451Y-8978623D02*
X12280451Y-8978623D01*
X12261198Y-6911720D02*
X12261198Y-7211720D01*
X12111198Y-7061720D02*
X12411198Y-7061720D01*
X12289258Y-9058809D02*
X12289258Y-9358809D01*
X12139258Y-9208809D02*
X12439258Y-9208809D01*
X12311930Y-7073742D02*
X12311930Y-7373742D01*
X12161930Y-7223742D02*
X12461930Y-7223742D01*
X12806579Y-6942694D02*
X12806579Y-7242694D01*
X12656579Y-7092694D02*
X12956579Y-7092694D01*
X12993033Y-7135711D02*
X12993033Y-7435711D01*
X12843033Y-7285711D02*
X13143033Y-7285711D01*
X13151840Y-7365896D02*
X13151840Y-7665896D01*
X13001840Y-7515896D02*
X13301840Y-7515896D01*
X17437600Y-7365273D02*
X17437600Y-7665273D01*
X17287600Y-7515273D02*
X17587600Y-7515273D01*
X17598498Y-7419464D02*
X17598498Y-7719464D01*
X17448498Y-7569464D02*
X17748498Y-7569464D01*
X17783226Y-6942256D02*
X17783226Y-7242256D01*
X17633226Y-7092256D02*
X17933226Y-7092256D01*
X18048974Y-6904864D02*
X18048974Y-7204864D01*
X17898974Y-7054864D02*
X18198974Y-7054864D01*
X18300182Y-9058185D02*
X18300182Y-9358185D01*
X18150182Y-9208185D02*
X18450182Y-9208185D01*
X18328542Y-6911687D02*
X18328542Y-7211687D01*
X18178542Y-7061687D02*
X18478542Y-7061687D01*
X18461080Y-9112376D02*
X18461080Y-9412376D01*
X18311080Y-9262376D02*
X18611080Y-9262376D01*
X18645808Y-8635169D02*
X18645808Y-8935169D01*
X18495808Y-8785169D02*
X18795808Y-8785169D01*
X18749222Y-5656235D02*
X18749222Y-5956235D01*
X18599222Y-5806235D02*
X18899222Y-5806235D01*
X18910120Y-5710426D02*
X18910120Y-6010426D01*
X18760120Y-5860426D02*
X19060120Y-5860426D01*
X18911556Y-8597777D02*
X18911556Y-8897777D01*
X18761556Y-8747777D02*
X19061556Y-8747777D01*
X19094847Y-5233218D02*
X19094847Y-5533218D01*
X18944847Y-5383218D02*
X19244847Y-5383218D01*
X19191124Y-8604599D02*
X19191124Y-8904599D01*
X19041124Y-8754599D02*
X19341124Y-8754599D01*
X19360595Y-5195826D02*
X19360595Y-5495826D01*
X19210595Y-5345826D02*
X19510595Y-5345826D01*
X19522670Y-12503729D02*
X19522670Y-12803729D01*
X19372670Y-12653729D02*
X19672670Y-12653729D01*
X19611804Y-7349147D02*
X19611804Y-7649147D01*
X19461804Y-7499147D02*
X19761804Y-7499147D01*
X19640163Y-5202649D02*
X19640163Y-5502649D01*
X19490163Y-5352649D02*
X19790163Y-5352649D01*
X19683568Y-12557921D02*
X19683568Y-12857921D01*
X19533568Y-12707921D02*
X19833568Y-12707921D01*
X19772702Y-7403338D02*
X19772702Y-7703338D01*
X19622702Y-7553338D02*
X19922702Y-7553338D01*
X19868295Y-12080713D02*
X19868295Y-12380713D01*
X19718295Y-12230713D02*
X20018295Y-12230713D01*
X19957429Y-6926130D02*
X19957429Y-7226130D01*
X19807429Y-7076130D02*
X20107429Y-7076130D01*
X20134043Y-12043321D02*
X20134043Y-12343321D01*
X19984043Y-12193321D02*
X20284043Y-12193321D01*
X20223177Y-6888739D02*
X20223177Y-7188739D01*
X20073177Y-7038739D02*
X20373177Y-7038739D01*
X20413611Y-12050143D02*
X20413611Y-12350143D01*
X20263611Y-12200143D02*
X20563611Y-12200143D01*
X20474386Y-9042060D02*
X20474386Y-9342060D01*
X20324386Y-9192060D02*
X20624386Y-9192060D01*
X20502745Y-6895561D02*
X20502745Y-7195561D01*
X20352745Y-7045561D02*
X20652745Y-7045561D01*
X20635283Y-9096251D02*
X20635283Y-9396251D01*
X20485283Y-9246251D02*
X20785283Y-9246251D01*
X20746342Y-4313352D02*
X20746342Y-4613352D01*
X20596342Y-4463352D02*
X20896342Y-4463352D01*
X20820011Y-8619043D02*
X20820011Y-8919043D01*
X20670011Y-8769043D02*
X20970011Y-8769043D01*
X20901905Y-4381360D02*
X20901905Y-4681360D01*
X20751905Y-4531360D02*
X21051905Y-4531360D01*
X21049937Y-11217919D02*
X21049937Y-11517919D01*
X20899937Y-11367919D02*
X21199937Y-11367919D01*
X21085759Y-8581651D02*
X21085759Y-8881651D01*
X20935759Y-8731651D02*
X21235759Y-8731651D01*
X21127521Y-3922068D02*
X21127521Y-4222068D01*
X20977521Y-4072068D02*
X21277521Y-4072068D01*
X21210834Y-11272110D02*
X21210834Y-11572110D01*
X21060834Y-11422110D02*
X21360834Y-11422110D01*
X21365327Y-8588473D02*
X21365327Y-8888473D01*
X21215327Y-8738473D02*
X21515327Y-8738473D01*
X21395516Y-3907980D02*
X21395516Y-4207980D01*
X21245516Y-4057980D02*
X21545516Y-4057980D01*
X21395562Y-10794903D02*
X21395562Y-11094903D01*
X21245562Y-10944903D02*
X21545562Y-10944903D01*
X21458095Y-6075001D02*
X21458095Y-6375001D01*
X21308095Y-6225001D02*
X21608095Y-6225001D01*
X21613657Y-6143009D02*
X21613657Y-6443009D01*
X21463657Y-6293009D02*
X21763657Y-6293009D01*
X21661310Y-10757511D02*
X21661310Y-11057511D01*
X21511310Y-10907511D02*
X21811310Y-10907511D01*
X21673426Y-3939142D02*
X21673426Y-4239143D01*
X21523426Y-4089142D02*
X21823426Y-4089142D01*
X21839273Y-5683717D02*
X21839273Y-5983717D01*
X21689273Y-5833717D02*
X21989273Y-5833717D01*
X21940878Y-10764333D02*
X21940878Y-11064333D01*
X21790878Y-10914333D02*
X22090878Y-10914333D01*
X22107269Y-5669629D02*
X22107269Y-5969629D01*
X21957269Y-5819629D02*
X22257269Y-5819629D01*
X22169847Y-7836651D02*
X22169847Y-8136651D01*
X22019847Y-7986651D02*
X22319847Y-7986651D01*
X22325410Y-7904659D02*
X22325410Y-8204659D01*
X22175410Y-8054659D02*
X22475410Y-8054659D01*
X22385179Y-5700792D02*
X22385179Y-6000792D01*
X22235179Y-5850792D02*
X22535179Y-5850792D01*
X22551025Y-7445367D02*
X22551025Y-7745367D01*
X22401025Y-7595367D02*
X22701025Y-7595367D01*
X22819021Y-7431279D02*
X22819021Y-7731279D01*
X22669021Y-7581279D02*
X22969021Y-7581279D01*
X23096931Y-7462441D02*
X23096931Y-7762441D01*
X22946931Y-7612441D02*
X23246931Y-7612441D01*
X23146824Y-4026117D02*
X23146824Y-4326117D01*
X22996824Y-4176117D02*
X23296824Y-4176117D01*
X23295867Y-4107424D02*
X23295867Y-4407424D01*
X23145867Y-4257424D02*
X23445867Y-4257424D01*
X23560655Y-3669544D02*
X23560655Y-3969544D01*
X23410655Y-3819544D02*
X23710655Y-3819544D01*
X23702330Y-5843096D02*
X23702330Y-6143096D01*
X23552330Y-5993096D02*
X23852330Y-5993096D01*
X23828859Y-3678867D02*
X23828859Y-3978867D01*
X23678859Y-3828867D02*
X23978859Y-3828867D01*
X23851374Y-5924403D02*
X23851374Y-6224403D01*
X23701374Y-6074403D02*
X24001374Y-6074403D01*
X24102995Y-3734132D02*
X24102995Y-4034132D01*
X23952995Y-3884132D02*
X24252995Y-3884132D01*
X24116161Y-5486523D02*
X24116161Y-5786523D01*
X23966161Y-5636523D02*
X24266161Y-5636523D01*
X24257837Y-7660075D02*
X24257837Y-7960075D01*
X24107837Y-7810075D02*
X24407837Y-7810075D01*
X24384365Y-5495846D02*
X24384365Y-5795846D01*
X24234365Y-5645846D02*
X24534365Y-5645846D01*
X24406880Y-7741382D02*
X24406880Y-8041382D01*
X24256880Y-7891382D02*
X24556880Y-7891382D01*
X24658501Y-5551111D02*
X24658501Y-5851111D01*
X24508501Y-5701111D02*
X24808501Y-5701111D01*
X24671667Y-7303502D02*
X24671667Y-7603502D01*
X24521667Y-7453502D02*
X24821667Y-7453502D01*
X24939871Y-7312825D02*
X24939871Y-7612825D01*
X24789871Y-7462825D02*
X25089871Y-7462825D01*
X25214007Y-7368090D02*
X25214007Y-7668090D01*
X25064007Y-7518090D02*
X25364007Y-7518090D01*
X25967048Y-5184400D02*
X25967048Y-5484400D01*
X25817048Y-5334400D02*
X26117048Y-5334400D01*
X26105071Y-5283265D02*
X26105071Y-5583265D01*
X25955071Y-5433265D02*
X26255071Y-5433265D01*
X26297574Y-7055916D02*
X26297574Y-7355916D01*
X26147574Y-7205916D02*
X26447574Y-7205916D01*
X26421249Y-4880918D02*
X26421249Y-5180918D01*
X26271249Y-5030918D02*
X26571249Y-5030918D01*
X26435598Y-7154781D02*
X26435598Y-7454781D01*
X26285598Y-7304781D02*
X26585598Y-7304781D01*
X26686318Y-4922857D02*
X26686318Y-5222857D01*
X26536318Y-5072857D02*
X26836318Y-5072857D01*
X26751776Y-6752434D02*
X26751776Y-7052434D01*
X26601776Y-6902434D02*
X26901776Y-6902434D01*
X26951675Y-5011119D02*
X26951675Y-5311119D01*
X26801675Y-5161119D02*
X27101675Y-5161119D01*
X27016844Y-6794374D02*
X27016844Y-7094374D01*
X26866844Y-6944374D02*
X27166844Y-6944374D01*
X27282202Y-6882636D02*
X27282202Y-7182636D01*
X27132202Y-7032636D02*
X27432202Y-7032636D01*
D16*
X3875758Y-7629516D02*
X3875758Y-7347533D01*
X3593775Y-7347533D01*
X3593775Y-7629516D01*
X3875758Y-7629516D01*
X4204786Y-5756674D02*
X4204786Y-5474691D01*
X3922803Y-5474691D01*
X3922803Y-5756674D01*
X4204786Y-5756674D01*
X5885231Y-8163777D02*
X5885231Y-7881794D01*
X5603248Y-7881794D01*
X5603248Y-8163777D01*
X5885231Y-8163777D01*
X6440770Y-6346836D02*
X6440770Y-6064853D01*
X6158787Y-6064853D01*
X6158787Y-6346836D01*
X6440770Y-6346836D01*
X6996243Y-4529819D02*
X6996243Y-4247836D01*
X6714261Y-4247836D01*
X6714261Y-4529819D01*
X6996243Y-4529819D01*
X7956915Y-8288394D02*
X7956915Y-8006411D01*
X7674932Y-8006411D01*
X7674932Y-8288394D01*
X7956915Y-8288394D01*
X8668668Y-6526745D02*
X8668668Y-6244762D01*
X8386685Y-6244762D01*
X8386685Y-6526745D01*
X8668668Y-6526745D01*
X9065110Y-11616481D02*
X9065110Y-11334498D01*
X8783128Y-11334498D01*
X8783128Y-11616481D01*
X9065110Y-11616481D01*
X9380420Y-4765095D02*
X9380420Y-4483113D01*
X9098437Y-4483113D01*
X9098437Y-4765095D01*
X9380420Y-4765095D01*
X9640661Y-9440621D02*
X9640661Y-9158638D01*
X9358679Y-9158638D01*
X9358679Y-9440621D01*
X9640661Y-9440621D01*
X10503243Y-7747709D02*
X10503243Y-7465726D01*
X10221260Y-7465726D01*
X10221260Y-7747709D01*
X10503243Y-7747709D01*
X10592377Y-12902291D02*
X10592377Y-12620308D01*
X10310394Y-12620308D01*
X10310394Y-12902291D01*
X10592377Y-12902291D01*
X11365825Y-6054796D02*
X11365825Y-5772814D01*
X11083842Y-5772814D01*
X11083842Y-6054796D01*
X11365825Y-6054796D01*
X11814865Y-9456747D02*
X11814865Y-9174764D01*
X11532882Y-9174764D01*
X11532882Y-9456747D01*
X11814865Y-9456747D01*
X12677447Y-7763834D02*
X12677447Y-7481852D01*
X12395464Y-7481852D01*
X12395464Y-7763834D01*
X12677447Y-7763834D01*
X18194341Y-7763396D02*
X18194341Y-7481414D01*
X17912359Y-7481414D01*
X17912359Y-7763396D01*
X18194341Y-7763396D01*
X19056923Y-9456309D02*
X19056923Y-9174326D01*
X18774941Y-9174326D01*
X18774941Y-9456309D01*
X19056923Y-9456309D01*
X19505963Y-6054358D02*
X19505963Y-5772376D01*
X19223980Y-5772376D01*
X19223980Y-6054358D01*
X19505963Y-6054358D01*
X20279411Y-12901853D02*
X20279411Y-12619870D01*
X19997428Y-12619870D01*
X19997428Y-12901853D01*
X20279411Y-12901853D01*
X20368545Y-7747271D02*
X20368545Y-7465288D01*
X20086562Y-7465288D01*
X20086562Y-7747271D01*
X20368545Y-7747271D01*
X21231127Y-9440183D02*
X21231127Y-9158200D01*
X20949144Y-9158200D01*
X20949144Y-9440183D01*
X21231127Y-9440183D01*
X21491403Y-4764734D02*
X21491403Y-4482751D01*
X21209420Y-4482751D01*
X21209420Y-4764734D01*
X21491403Y-4764734D01*
X21806678Y-11616043D02*
X21806678Y-11334060D01*
X21524695Y-11334060D01*
X21524695Y-11616043D01*
X21806678Y-11616043D01*
X22203155Y-6526383D02*
X22203155Y-6244400D01*
X21921173Y-6244400D01*
X21921173Y-6526383D01*
X22203155Y-6526383D01*
X22914908Y-8288033D02*
X22914908Y-8006050D01*
X22632925Y-8006050D01*
X22632925Y-8288033D01*
X22914908Y-8288033D01*
X23875607Y-4529537D02*
X23875607Y-4247554D01*
X23593624Y-4247554D01*
X23593624Y-4529537D01*
X23875607Y-4529537D01*
X24431113Y-6346516D02*
X24431113Y-6064533D01*
X24149131Y-6064533D01*
X24149131Y-6346516D01*
X24431113Y-6346516D01*
X24986620Y-8163495D02*
X24986620Y-7881512D01*
X24704637Y-7881512D01*
X24704637Y-8163495D01*
X24986620Y-8163495D01*
X26665561Y-5757870D02*
X26665561Y-5475887D01*
X26383578Y-5475887D01*
X26383578Y-5757870D01*
X26665561Y-5757870D01*
X26996088Y-7629386D02*
X26996088Y-7347404D01*
X26714105Y-7347404D01*
X26714105Y-7629386D01*
X26996088Y-7629386D01*
D12*
X2881760Y-14127112D02*
X2881760Y-13927112D01*
X2929379Y-13927112D01*
X2957951Y-13936636D01*
X2976998Y-13955684D01*
X2986522Y-13974731D01*
X2996046Y-14012827D01*
X2996046Y-14041398D01*
X2986522Y-14079493D01*
X2976998Y-14098541D01*
X2957951Y-14117589D01*
X2929379Y-14127112D01*
X2881760Y-14127112D01*
X3081760Y-14127112D02*
X3081760Y-13993779D01*
X3081760Y-14031874D02*
X3091284Y-14012827D01*
X3100808Y-14003303D01*
X3119855Y-13993779D01*
X3138903Y-13993779D01*
X3205570Y-14127112D02*
X3205570Y-13993779D01*
X3205570Y-13927112D02*
X3196046Y-13936636D01*
X3205570Y-13946160D01*
X3215094Y-13936636D01*
X3205570Y-13927112D01*
X3205570Y-13946160D01*
X3329379Y-14127112D02*
X3310332Y-14117589D01*
X3300808Y-14098541D01*
X3300808Y-13927112D01*
X3434141Y-14127112D02*
X3415094Y-14117589D01*
X3405570Y-14098541D01*
X3405570Y-13927112D01*
X3662713Y-14127112D02*
X3662713Y-13927112D01*
X3729379Y-14069970D01*
X3796046Y-13927112D01*
X3796046Y-14127112D01*
X3976998Y-14127112D02*
X3976998Y-14022350D01*
X3967475Y-14003303D01*
X3948427Y-13993779D01*
X3910332Y-13993779D01*
X3891284Y-14003303D01*
X3976998Y-14117589D02*
X3957951Y-14127112D01*
X3910332Y-14127112D01*
X3891284Y-14117589D01*
X3881760Y-14098541D01*
X3881760Y-14079493D01*
X3891284Y-14060446D01*
X3910332Y-14050922D01*
X3957951Y-14050922D01*
X3976998Y-14041398D01*
X4072236Y-13993779D02*
X4072236Y-14193779D01*
X4072236Y-14003303D02*
X4091284Y-13993779D01*
X4129379Y-13993779D01*
X4148427Y-14003303D01*
X4157951Y-14012827D01*
X4167475Y-14031874D01*
X4167475Y-14089017D01*
X4157951Y-14108065D01*
X4148427Y-14117589D01*
X4129379Y-14127112D01*
X4091284Y-14127112D01*
X4072236Y-14117589D01*
X4253189Y-14108065D02*
X4262713Y-14117589D01*
X4253189Y-14127112D01*
X4243665Y-14117589D01*
X4253189Y-14108065D01*
X4253189Y-14127112D01*
X4253189Y-14003303D02*
X4262713Y-14012827D01*
X4253189Y-14022350D01*
X4243665Y-14012827D01*
X4253189Y-14003303D01*
X4253189Y-14022350D01*
D13*
X2534141Y-14411636D02*
X2624141Y-14501636D01*
X2624141Y-14411636D02*
X2534141Y-14501636D01*
D12*
X2919855Y-14347112D02*
X2938903Y-14347112D01*
X2957951Y-14356636D01*
X2967475Y-14366160D01*
X2976998Y-14385208D01*
X2986522Y-14423303D01*
X2986522Y-14470922D01*
X2976998Y-14509017D01*
X2967475Y-14528065D01*
X2957951Y-14537589D01*
X2938903Y-14547112D01*
X2919855Y-14547112D01*
X2900808Y-14537589D01*
X2891284Y-14528065D01*
X2881760Y-14509017D01*
X2872236Y-14470922D01*
X2872236Y-14423303D01*
X2881760Y-14385208D01*
X2891284Y-14366160D01*
X2900808Y-14356636D01*
X2919855Y-14347112D01*
X3072236Y-14528065D02*
X3081760Y-14537589D01*
X3072236Y-14547112D01*
X3062713Y-14537589D01*
X3072236Y-14528065D01*
X3072236Y-14547112D01*
X3176998Y-14547112D02*
X3215094Y-14547112D01*
X3234141Y-14537589D01*
X3243665Y-14528065D01*
X3262713Y-14499493D01*
X3272236Y-14461398D01*
X3272236Y-14385208D01*
X3262713Y-14366160D01*
X3253189Y-14356636D01*
X3234141Y-14347112D01*
X3196046Y-14347112D01*
X3176998Y-14356636D01*
X3167475Y-14366160D01*
X3157951Y-14385208D01*
X3157951Y-14432827D01*
X3167475Y-14451874D01*
X3176998Y-14461398D01*
X3196046Y-14470922D01*
X3234141Y-14470922D01*
X3253189Y-14461398D01*
X3262713Y-14451874D01*
X3272236Y-14432827D01*
X3396046Y-14347112D02*
X3415094Y-14347112D01*
X3434141Y-14356636D01*
X3443665Y-14366160D01*
X3453189Y-14385208D01*
X3462713Y-14423303D01*
X3462713Y-14470922D01*
X3453189Y-14509017D01*
X3443665Y-14528065D01*
X3434141Y-14537589D01*
X3415094Y-14547112D01*
X3396046Y-14547112D01*
X3376998Y-14537589D01*
X3367475Y-14528065D01*
X3357951Y-14509017D01*
X3348427Y-14470922D01*
X3348427Y-14423303D01*
X3357951Y-14385208D01*
X3367475Y-14366160D01*
X3376998Y-14356636D01*
X3396046Y-14347112D01*
X3586522Y-14347112D02*
X3605570Y-14347112D01*
X3624617Y-14356636D01*
X3634141Y-14366160D01*
X3643665Y-14385208D01*
X3653189Y-14423303D01*
X3653189Y-14470922D01*
X3643665Y-14509017D01*
X3634141Y-14528065D01*
X3624617Y-14537589D01*
X3605570Y-14547112D01*
X3586522Y-14547112D01*
X3567475Y-14537589D01*
X3557951Y-14528065D01*
X3548427Y-14509017D01*
X3538903Y-14470922D01*
X3538903Y-14423303D01*
X3548427Y-14385208D01*
X3557951Y-14366160D01*
X3567475Y-14356636D01*
X3586522Y-14347112D01*
X3738903Y-14547112D02*
X3738903Y-14413779D01*
X3738903Y-14432827D02*
X3748427Y-14423303D01*
X3767475Y-14413779D01*
X3796046Y-14413779D01*
X3815094Y-14423303D01*
X3824617Y-14442350D01*
X3824617Y-14547112D01*
X3824617Y-14442350D02*
X3834141Y-14423303D01*
X3853189Y-14413779D01*
X3881760Y-14413779D01*
X3900808Y-14423303D01*
X3910332Y-14442350D01*
X3910332Y-14547112D01*
X4005570Y-14547112D02*
X4005570Y-14413779D01*
X4005570Y-14432827D02*
X4015094Y-14423303D01*
X4034141Y-14413779D01*
X4062713Y-14413779D01*
X4081760Y-14423303D01*
X4091284Y-14442350D01*
X4091284Y-14547112D01*
X4091284Y-14442350D02*
X4100808Y-14423303D01*
X4119855Y-14413779D01*
X4148427Y-14413779D01*
X4167475Y-14423303D01*
X4176998Y-14442350D01*
X4176998Y-14547112D01*
X4567475Y-14337589D02*
X4396046Y-14594731D01*
X4824617Y-14347112D02*
X4843665Y-14347112D01*
X4862713Y-14356636D01*
X4872237Y-14366160D01*
X4881760Y-14385208D01*
X4891284Y-14423303D01*
X4891284Y-14470922D01*
X4881760Y-14509017D01*
X4872237Y-14528065D01*
X4862713Y-14537589D01*
X4843665Y-14547112D01*
X4824617Y-14547112D01*
X4805570Y-14537589D01*
X4796046Y-14528065D01*
X4786522Y-14509017D01*
X4776998Y-14470922D01*
X4776998Y-14423303D01*
X4786522Y-14385208D01*
X4796046Y-14366160D01*
X4805570Y-14356636D01*
X4824617Y-14347112D01*
X4976998Y-14528065D02*
X4986522Y-14537589D01*
X4976998Y-14547112D01*
X4967475Y-14537589D01*
X4976998Y-14528065D01*
X4976998Y-14547112D01*
X5110332Y-14347112D02*
X5129379Y-14347112D01*
X5148427Y-14356636D01*
X5157951Y-14366160D01*
X5167475Y-14385208D01*
X5176998Y-14423303D01*
X5176998Y-14470922D01*
X5167475Y-14509017D01*
X5157951Y-14528065D01*
X5148427Y-14537589D01*
X5129379Y-14547112D01*
X5110332Y-14547112D01*
X5091284Y-14537589D01*
X5081760Y-14528065D01*
X5072237Y-14509017D01*
X5062713Y-14470922D01*
X5062713Y-14423303D01*
X5072237Y-14385208D01*
X5081760Y-14366160D01*
X5091284Y-14356636D01*
X5110332Y-14347112D01*
X5243665Y-14347112D02*
X5367475Y-14347112D01*
X5300808Y-14423303D01*
X5329379Y-14423303D01*
X5348427Y-14432827D01*
X5357951Y-14442350D01*
X5367475Y-14461398D01*
X5367475Y-14509017D01*
X5357951Y-14528065D01*
X5348427Y-14537589D01*
X5329379Y-14547112D01*
X5272237Y-14547112D01*
X5253189Y-14537589D01*
X5243665Y-14528065D01*
X5548427Y-14347112D02*
X5453189Y-14347112D01*
X5443665Y-14442350D01*
X5453189Y-14432827D01*
X5472237Y-14423303D01*
X5519856Y-14423303D01*
X5538903Y-14432827D01*
X5548427Y-14442350D01*
X5557951Y-14461398D01*
X5557951Y-14509017D01*
X5548427Y-14528065D01*
X5538903Y-14537589D01*
X5519856Y-14547112D01*
X5472237Y-14547112D01*
X5453189Y-14537589D01*
X5443665Y-14528065D01*
X5729379Y-14413779D02*
X5729379Y-14547112D01*
X5681760Y-14337589D02*
X5634141Y-14480446D01*
X5757951Y-14480446D01*
X5824617Y-14347112D02*
X5824617Y-14385208D01*
X5900808Y-14347112D02*
X5900808Y-14385208D01*
X6196046Y-14623303D02*
X6186522Y-14613779D01*
X6167475Y-14585208D01*
X6157951Y-14566160D01*
X6148427Y-14537589D01*
X6138903Y-14489970D01*
X6138903Y-14451874D01*
X6148427Y-14404255D01*
X6157951Y-14375684D01*
X6167475Y-14356636D01*
X6186522Y-14328065D01*
X6196046Y-14318541D01*
X6262713Y-14366160D02*
X6272236Y-14356636D01*
X6291284Y-14347112D01*
X6338903Y-14347112D01*
X6357951Y-14356636D01*
X6367475Y-14366160D01*
X6376998Y-14385208D01*
X6376998Y-14404255D01*
X6367475Y-14432827D01*
X6253189Y-14547112D01*
X6376998Y-14547112D01*
X6615094Y-14547112D02*
X6615094Y-14347112D01*
X6700808Y-14547112D02*
X6700808Y-14442350D01*
X6691284Y-14423303D01*
X6672236Y-14413779D01*
X6643665Y-14413779D01*
X6624617Y-14423303D01*
X6615094Y-14432827D01*
X6824617Y-14547112D02*
X6805570Y-14537589D01*
X6796046Y-14528065D01*
X6786522Y-14509017D01*
X6786522Y-14451874D01*
X6796046Y-14432827D01*
X6805570Y-14423303D01*
X6824617Y-14413779D01*
X6853189Y-14413779D01*
X6872236Y-14423303D01*
X6881760Y-14432827D01*
X6891284Y-14451874D01*
X6891284Y-14509017D01*
X6881760Y-14528065D01*
X6872236Y-14537589D01*
X6853189Y-14547112D01*
X6824617Y-14547112D01*
X7005570Y-14547112D02*
X6986522Y-14537589D01*
X6976998Y-14518541D01*
X6976998Y-14347112D01*
X7157951Y-14537589D02*
X7138903Y-14547112D01*
X7100808Y-14547112D01*
X7081760Y-14537589D01*
X7072236Y-14518541D01*
X7072236Y-14442350D01*
X7081760Y-14423303D01*
X7100808Y-14413779D01*
X7138903Y-14413779D01*
X7157951Y-14423303D01*
X7167475Y-14442350D01*
X7167475Y-14461398D01*
X7072236Y-14480446D01*
X7243665Y-14537589D02*
X7262713Y-14547112D01*
X7300808Y-14547112D01*
X7319855Y-14537589D01*
X7329379Y-14518541D01*
X7329379Y-14509017D01*
X7319855Y-14489970D01*
X7300808Y-14480446D01*
X7272236Y-14480446D01*
X7253189Y-14470922D01*
X7243665Y-14451874D01*
X7243665Y-14442350D01*
X7253189Y-14423303D01*
X7272236Y-14413779D01*
X7300808Y-14413779D01*
X7319855Y-14423303D01*
X7396046Y-14623303D02*
X7405570Y-14613779D01*
X7424617Y-14585208D01*
X7434141Y-14566160D01*
X7443665Y-14537589D01*
X7453189Y-14489970D01*
X7453189Y-14451874D01*
X7443665Y-14404255D01*
X7434141Y-14375684D01*
X7424617Y-14356636D01*
X7405570Y-14328065D01*
X7396046Y-14318541D01*
X7757951Y-14623303D02*
X7748427Y-14613779D01*
X7729379Y-14585208D01*
X7719855Y-14566160D01*
X7710332Y-14537589D01*
X7700808Y-14489970D01*
X7700808Y-14451874D01*
X7710332Y-14404255D01*
X7719855Y-14375684D01*
X7729379Y-14356636D01*
X7748427Y-14328065D01*
X7757951Y-14318541D01*
X7834141Y-14413779D02*
X7834141Y-14547112D01*
X7834141Y-14432827D02*
X7843665Y-14423303D01*
X7862713Y-14413779D01*
X7891284Y-14413779D01*
X7910332Y-14423303D01*
X7919855Y-14442350D01*
X7919855Y-14547112D01*
X8043665Y-14547112D02*
X8024617Y-14537589D01*
X8015094Y-14528065D01*
X8005570Y-14509017D01*
X8005570Y-14451874D01*
X8015094Y-14432827D01*
X8024617Y-14423303D01*
X8043665Y-14413779D01*
X8072236Y-14413779D01*
X8091284Y-14423303D01*
X8100808Y-14432827D01*
X8110332Y-14451874D01*
X8110332Y-14509017D01*
X8100808Y-14528065D01*
X8091284Y-14537589D01*
X8072236Y-14547112D01*
X8043665Y-14547112D01*
X8167475Y-14413779D02*
X8243665Y-14413779D01*
X8196046Y-14347112D02*
X8196046Y-14518541D01*
X8205570Y-14537589D01*
X8224617Y-14547112D01*
X8243665Y-14547112D01*
X8462713Y-14413779D02*
X8462713Y-14613779D01*
X8462713Y-14423303D02*
X8481760Y-14413779D01*
X8519856Y-14413779D01*
X8538903Y-14423303D01*
X8548427Y-14432827D01*
X8557951Y-14451874D01*
X8557951Y-14509017D01*
X8548427Y-14528065D01*
X8538903Y-14537589D01*
X8519856Y-14547112D01*
X8481760Y-14547112D01*
X8462713Y-14537589D01*
X8672237Y-14547112D02*
X8653189Y-14537589D01*
X8643665Y-14518541D01*
X8643665Y-14347112D01*
X8834141Y-14547112D02*
X8834141Y-14442350D01*
X8824617Y-14423303D01*
X8805570Y-14413779D01*
X8767475Y-14413779D01*
X8748427Y-14423303D01*
X8834141Y-14537589D02*
X8815094Y-14547112D01*
X8767475Y-14547112D01*
X8748427Y-14537589D01*
X8738903Y-14518541D01*
X8738903Y-14499493D01*
X8748427Y-14480446D01*
X8767475Y-14470922D01*
X8815094Y-14470922D01*
X8834141Y-14461398D01*
X8900808Y-14413779D02*
X8976998Y-14413779D01*
X8929379Y-14347112D02*
X8929379Y-14518541D01*
X8938903Y-14537589D01*
X8957951Y-14547112D01*
X8976998Y-14547112D01*
X9119856Y-14537589D02*
X9100808Y-14547112D01*
X9062713Y-14547112D01*
X9043665Y-14537589D01*
X9034141Y-14518541D01*
X9034141Y-14442350D01*
X9043665Y-14423303D01*
X9062713Y-14413779D01*
X9100808Y-14413779D01*
X9119856Y-14423303D01*
X9129379Y-14442350D01*
X9129379Y-14461398D01*
X9034141Y-14480446D01*
X9300808Y-14547112D02*
X9300808Y-14347112D01*
X9300808Y-14537589D02*
X9281760Y-14547112D01*
X9243665Y-14547112D01*
X9224617Y-14537589D01*
X9215094Y-14528065D01*
X9205570Y-14509017D01*
X9205570Y-14451874D01*
X9215094Y-14432827D01*
X9224617Y-14423303D01*
X9243665Y-14413779D01*
X9281760Y-14413779D01*
X9300808Y-14423303D01*
X9376998Y-14623303D02*
X9386522Y-14613779D01*
X9405570Y-14585208D01*
X9415094Y-14566160D01*
X9424617Y-14537589D01*
X9434141Y-14489970D01*
X9434141Y-14451874D01*
X9424617Y-14404255D01*
X9415094Y-14375684D01*
X9405570Y-14356636D01*
X9386522Y-14328065D01*
X9376998Y-14318541D01*
D14*
X2624141Y-14720636D02*
G75*
G03*
X2624141Y-14720636I-85090J0D01*
G01*
D12*
X2986522Y-14811112D02*
X2872236Y-14811112D01*
X2929379Y-14811112D02*
X2929379Y-14611112D01*
X2910332Y-14639684D01*
X2891284Y-14658731D01*
X2872236Y-14668255D01*
X3072236Y-14792065D02*
X3081760Y-14801589D01*
X3072236Y-14811112D01*
X3062713Y-14801589D01*
X3072236Y-14792065D01*
X3072236Y-14811112D01*
X3148427Y-14611112D02*
X3281760Y-14611112D01*
X3196046Y-14811112D01*
X3396046Y-14611112D02*
X3415094Y-14611112D01*
X3434141Y-14620636D01*
X3443665Y-14630160D01*
X3453189Y-14649208D01*
X3462713Y-14687303D01*
X3462713Y-14734922D01*
X3453189Y-14773017D01*
X3443665Y-14792065D01*
X3434141Y-14801589D01*
X3415094Y-14811112D01*
X3396046Y-14811112D01*
X3376998Y-14801589D01*
X3367475Y-14792065D01*
X3357951Y-14773017D01*
X3348427Y-14734922D01*
X3348427Y-14687303D01*
X3357951Y-14649208D01*
X3367475Y-14630160D01*
X3376998Y-14620636D01*
X3396046Y-14611112D01*
X3538903Y-14630160D02*
X3548427Y-14620636D01*
X3567475Y-14611112D01*
X3615094Y-14611112D01*
X3634141Y-14620636D01*
X3643665Y-14630160D01*
X3653189Y-14649208D01*
X3653189Y-14668255D01*
X3643665Y-14696827D01*
X3529379Y-14811112D01*
X3653189Y-14811112D01*
X3738903Y-14811112D02*
X3738903Y-14677779D01*
X3738903Y-14696827D02*
X3748427Y-14687303D01*
X3767475Y-14677779D01*
X3796046Y-14677779D01*
X3815094Y-14687303D01*
X3824617Y-14706350D01*
X3824617Y-14811112D01*
X3824617Y-14706350D02*
X3834141Y-14687303D01*
X3853189Y-14677779D01*
X3881760Y-14677779D01*
X3900808Y-14687303D01*
X3910332Y-14706350D01*
X3910332Y-14811112D01*
X4005570Y-14811112D02*
X4005570Y-14677779D01*
X4005570Y-14696827D02*
X4015094Y-14687303D01*
X4034141Y-14677779D01*
X4062713Y-14677779D01*
X4081760Y-14687303D01*
X4091284Y-14706350D01*
X4091284Y-14811112D01*
X4091284Y-14706350D02*
X4100808Y-14687303D01*
X4119855Y-14677779D01*
X4148427Y-14677779D01*
X4167475Y-14687303D01*
X4176998Y-14706350D01*
X4176998Y-14811112D01*
X4567475Y-14601589D02*
X4396046Y-14858731D01*
X4824617Y-14611112D02*
X4843665Y-14611112D01*
X4862713Y-14620636D01*
X4872237Y-14630160D01*
X4881760Y-14649208D01*
X4891284Y-14687303D01*
X4891284Y-14734922D01*
X4881760Y-14773017D01*
X4872237Y-14792065D01*
X4862713Y-14801589D01*
X4843665Y-14811112D01*
X4824617Y-14811112D01*
X4805570Y-14801589D01*
X4796046Y-14792065D01*
X4786522Y-14773017D01*
X4776998Y-14734922D01*
X4776998Y-14687303D01*
X4786522Y-14649208D01*
X4796046Y-14630160D01*
X4805570Y-14620636D01*
X4824617Y-14611112D01*
X4976998Y-14792065D02*
X4986522Y-14801589D01*
X4976998Y-14811112D01*
X4967475Y-14801589D01*
X4976998Y-14792065D01*
X4976998Y-14811112D01*
X5110332Y-14611112D02*
X5129379Y-14611112D01*
X5148427Y-14620636D01*
X5157951Y-14630160D01*
X5167475Y-14649208D01*
X5176998Y-14687303D01*
X5176998Y-14734922D01*
X5167475Y-14773017D01*
X5157951Y-14792065D01*
X5148427Y-14801589D01*
X5129379Y-14811112D01*
X5110332Y-14811112D01*
X5091284Y-14801589D01*
X5081760Y-14792065D01*
X5072237Y-14773017D01*
X5062713Y-14734922D01*
X5062713Y-14687303D01*
X5072237Y-14649208D01*
X5081760Y-14630160D01*
X5091284Y-14620636D01*
X5110332Y-14611112D01*
X5348427Y-14611112D02*
X5310332Y-14611112D01*
X5291284Y-14620636D01*
X5281760Y-14630160D01*
X5262713Y-14658731D01*
X5253189Y-14696827D01*
X5253189Y-14773017D01*
X5262713Y-14792065D01*
X5272237Y-14801589D01*
X5291284Y-14811112D01*
X5329379Y-14811112D01*
X5348427Y-14801589D01*
X5357951Y-14792065D01*
X5367475Y-14773017D01*
X5367475Y-14725398D01*
X5357951Y-14706350D01*
X5348427Y-14696827D01*
X5329379Y-14687303D01*
X5291284Y-14687303D01*
X5272237Y-14696827D01*
X5262713Y-14706350D01*
X5253189Y-14725398D01*
X5434141Y-14611112D02*
X5567475Y-14611112D01*
X5481760Y-14811112D01*
X5681760Y-14611112D02*
X5700808Y-14611112D01*
X5719855Y-14620636D01*
X5729379Y-14630160D01*
X5738903Y-14649208D01*
X5748427Y-14687303D01*
X5748427Y-14734922D01*
X5738903Y-14773017D01*
X5729379Y-14792065D01*
X5719855Y-14801589D01*
X5700808Y-14811112D01*
X5681760Y-14811112D01*
X5662713Y-14801589D01*
X5653189Y-14792065D01*
X5643665Y-14773017D01*
X5634141Y-14734922D01*
X5634141Y-14687303D01*
X5643665Y-14649208D01*
X5653189Y-14630160D01*
X5662713Y-14620636D01*
X5681760Y-14611112D01*
X5824617Y-14611112D02*
X5824617Y-14649208D01*
X5900808Y-14611112D02*
X5900808Y-14649208D01*
X6196046Y-14887303D02*
X6186522Y-14877779D01*
X6167475Y-14849208D01*
X6157951Y-14830160D01*
X6148427Y-14801589D01*
X6138903Y-14753970D01*
X6138903Y-14715874D01*
X6148427Y-14668255D01*
X6157951Y-14639684D01*
X6167475Y-14620636D01*
X6186522Y-14592065D01*
X6196046Y-14582541D01*
X6310332Y-14611112D02*
X6329379Y-14611112D01*
X6348427Y-14620636D01*
X6357951Y-14630160D01*
X6367475Y-14649208D01*
X6376998Y-14687303D01*
X6376998Y-14734922D01*
X6367475Y-14773017D01*
X6357951Y-14792065D01*
X6348427Y-14801589D01*
X6329379Y-14811112D01*
X6310332Y-14811112D01*
X6291284Y-14801589D01*
X6281760Y-14792065D01*
X6272236Y-14773017D01*
X6262713Y-14734922D01*
X6262713Y-14687303D01*
X6272236Y-14649208D01*
X6281760Y-14630160D01*
X6291284Y-14620636D01*
X6310332Y-14611112D01*
X6615094Y-14811112D02*
X6615094Y-14611112D01*
X6700808Y-14811112D02*
X6700808Y-14706350D01*
X6691284Y-14687303D01*
X6672236Y-14677779D01*
X6643665Y-14677779D01*
X6624617Y-14687303D01*
X6615094Y-14696827D01*
X6824617Y-14811112D02*
X6805570Y-14801589D01*
X6796046Y-14792065D01*
X6786522Y-14773017D01*
X6786522Y-14715874D01*
X6796046Y-14696827D01*
X6805570Y-14687303D01*
X6824617Y-14677779D01*
X6853189Y-14677779D01*
X6872236Y-14687303D01*
X6881760Y-14696827D01*
X6891284Y-14715874D01*
X6891284Y-14773017D01*
X6881760Y-14792065D01*
X6872236Y-14801589D01*
X6853189Y-14811112D01*
X6824617Y-14811112D01*
X7005570Y-14811112D02*
X6986522Y-14801589D01*
X6976998Y-14782541D01*
X6976998Y-14611112D01*
X7157951Y-14801589D02*
X7138903Y-14811112D01*
X7100808Y-14811112D01*
X7081760Y-14801589D01*
X7072236Y-14782541D01*
X7072236Y-14706350D01*
X7081760Y-14687303D01*
X7100808Y-14677779D01*
X7138903Y-14677779D01*
X7157951Y-14687303D01*
X7167475Y-14706350D01*
X7167475Y-14725398D01*
X7072236Y-14744446D01*
X7243665Y-14801589D02*
X7262713Y-14811112D01*
X7300808Y-14811112D01*
X7319855Y-14801589D01*
X7329379Y-14782541D01*
X7329379Y-14773017D01*
X7319855Y-14753970D01*
X7300808Y-14744446D01*
X7272236Y-14744446D01*
X7253189Y-14734922D01*
X7243665Y-14715874D01*
X7243665Y-14706350D01*
X7253189Y-14687303D01*
X7272236Y-14677779D01*
X7300808Y-14677779D01*
X7319855Y-14687303D01*
X7567475Y-14734922D02*
X7719855Y-14734922D01*
X7643665Y-14811112D02*
X7643665Y-14658731D01*
X8053189Y-14611112D02*
X8015094Y-14611112D01*
X7996046Y-14620636D01*
X7986522Y-14630160D01*
X7967475Y-14658731D01*
X7957951Y-14696827D01*
X7957951Y-14773017D01*
X7967475Y-14792065D01*
X7976998Y-14801589D01*
X7996046Y-14811112D01*
X8034141Y-14811112D01*
X8053189Y-14801589D01*
X8062713Y-14792065D01*
X8072236Y-14773017D01*
X8072236Y-14725398D01*
X8062713Y-14706350D01*
X8053189Y-14696827D01*
X8034141Y-14687303D01*
X7996046Y-14687303D01*
X7976998Y-14696827D01*
X7967475Y-14706350D01*
X7957951Y-14725398D01*
X8196046Y-14611112D02*
X8215094Y-14611112D01*
X8234141Y-14620636D01*
X8243665Y-14630160D01*
X8253189Y-14649208D01*
X8262713Y-14687303D01*
X8262713Y-14734922D01*
X8253189Y-14773017D01*
X8243665Y-14792065D01*
X8234141Y-14801589D01*
X8215094Y-14811112D01*
X8196046Y-14811112D01*
X8176998Y-14801589D01*
X8167475Y-14792065D01*
X8157951Y-14773017D01*
X8148427Y-14734922D01*
X8148427Y-14687303D01*
X8157951Y-14649208D01*
X8167475Y-14630160D01*
X8176998Y-14620636D01*
X8196046Y-14611112D01*
X8491284Y-14801589D02*
X8510332Y-14811112D01*
X8548427Y-14811112D01*
X8567475Y-14801589D01*
X8576998Y-14782541D01*
X8576998Y-14773017D01*
X8567475Y-14753970D01*
X8548427Y-14744446D01*
X8519856Y-14744446D01*
X8500808Y-14734922D01*
X8491284Y-14715874D01*
X8491284Y-14706350D01*
X8500808Y-14687303D01*
X8519856Y-14677779D01*
X8548427Y-14677779D01*
X8567475Y-14687303D01*
X8691284Y-14811112D02*
X8672237Y-14801589D01*
X8662713Y-14782541D01*
X8662713Y-14611112D01*
X8796046Y-14811112D02*
X8776998Y-14801589D01*
X8767475Y-14792065D01*
X8757951Y-14773017D01*
X8757951Y-14715874D01*
X8767475Y-14696827D01*
X8776998Y-14687303D01*
X8796046Y-14677779D01*
X8824617Y-14677779D01*
X8843665Y-14687303D01*
X8853189Y-14696827D01*
X8862713Y-14715874D01*
X8862713Y-14773017D01*
X8853189Y-14792065D01*
X8843665Y-14801589D01*
X8824617Y-14811112D01*
X8796046Y-14811112D01*
X8919856Y-14677779D02*
X8996046Y-14677779D01*
X8948427Y-14611112D02*
X8948427Y-14782541D01*
X8957951Y-14801589D01*
X8976998Y-14811112D01*
X8996046Y-14811112D01*
X9053189Y-14801589D02*
X9072237Y-14811112D01*
X9110332Y-14811112D01*
X9129379Y-14801589D01*
X9138903Y-14782541D01*
X9138903Y-14773017D01*
X9129379Y-14753970D01*
X9110332Y-14744446D01*
X9081760Y-14744446D01*
X9062713Y-14734922D01*
X9053189Y-14715874D01*
X9053189Y-14706350D01*
X9062713Y-14687303D01*
X9081760Y-14677779D01*
X9110332Y-14677779D01*
X9129379Y-14687303D01*
X9205570Y-14887303D02*
X9215094Y-14877779D01*
X9234141Y-14849208D01*
X9243665Y-14830160D01*
X9253189Y-14801589D01*
X9262713Y-14753970D01*
X9262713Y-14715874D01*
X9253189Y-14668255D01*
X9243665Y-14639684D01*
X9234141Y-14620636D01*
X9215094Y-14592065D01*
X9205570Y-14582541D01*
X9567475Y-14887303D02*
X9557951Y-14877779D01*
X9538903Y-14849208D01*
X9529379Y-14830160D01*
X9519856Y-14801589D01*
X9510332Y-14753970D01*
X9510332Y-14715874D01*
X9519856Y-14668255D01*
X9529379Y-14639684D01*
X9538903Y-14620636D01*
X9557951Y-14592065D01*
X9567475Y-14582541D01*
X9643665Y-14677779D02*
X9643665Y-14811112D01*
X9643665Y-14696827D02*
X9653189Y-14687303D01*
X9672237Y-14677779D01*
X9700808Y-14677779D01*
X9719856Y-14687303D01*
X9729379Y-14706350D01*
X9729379Y-14811112D01*
X9853189Y-14811112D02*
X9834141Y-14801589D01*
X9824617Y-14792065D01*
X9815094Y-14773017D01*
X9815094Y-14715874D01*
X9824617Y-14696827D01*
X9834141Y-14687303D01*
X9853189Y-14677779D01*
X9881760Y-14677779D01*
X9900808Y-14687303D01*
X9910332Y-14696827D01*
X9919856Y-14715874D01*
X9919856Y-14773017D01*
X9910332Y-14792065D01*
X9900808Y-14801589D01*
X9881760Y-14811112D01*
X9853189Y-14811112D01*
X9976998Y-14677779D02*
X10053189Y-14677779D01*
X10005570Y-14611112D02*
X10005570Y-14782541D01*
X10015094Y-14801589D01*
X10034141Y-14811112D01*
X10053189Y-14811112D01*
X10272237Y-14677779D02*
X10272237Y-14877779D01*
X10272237Y-14687303D02*
X10291284Y-14677779D01*
X10329379Y-14677779D01*
X10348427Y-14687303D01*
X10357951Y-14696827D01*
X10367475Y-14715874D01*
X10367475Y-14773017D01*
X10357951Y-14792065D01*
X10348427Y-14801589D01*
X10329379Y-14811112D01*
X10291284Y-14811112D01*
X10272237Y-14801589D01*
X10481760Y-14811112D02*
X10462713Y-14801589D01*
X10453189Y-14782541D01*
X10453189Y-14611112D01*
X10643665Y-14811112D02*
X10643665Y-14706350D01*
X10634141Y-14687303D01*
X10615094Y-14677779D01*
X10576998Y-14677779D01*
X10557951Y-14687303D01*
X10643665Y-14801589D02*
X10624617Y-14811112D01*
X10576998Y-14811112D01*
X10557951Y-14801589D01*
X10548427Y-14782541D01*
X10548427Y-14763493D01*
X10557951Y-14744446D01*
X10576998Y-14734922D01*
X10624617Y-14734922D01*
X10643665Y-14725398D01*
X10710332Y-14677779D02*
X10786522Y-14677779D01*
X10738903Y-14611112D02*
X10738903Y-14782541D01*
X10748427Y-14801589D01*
X10767475Y-14811112D01*
X10786522Y-14811112D01*
X10929379Y-14801589D02*
X10910332Y-14811112D01*
X10872237Y-14811112D01*
X10853189Y-14801589D01*
X10843665Y-14782541D01*
X10843665Y-14706350D01*
X10853189Y-14687303D01*
X10872237Y-14677779D01*
X10910332Y-14677779D01*
X10929379Y-14687303D01*
X10938903Y-14706350D01*
X10938903Y-14725398D01*
X10843665Y-14744446D01*
X11110332Y-14811112D02*
X11110332Y-14611112D01*
X11110332Y-14801589D02*
X11091284Y-14811112D01*
X11053189Y-14811112D01*
X11034141Y-14801589D01*
X11024617Y-14792065D01*
X11015094Y-14773017D01*
X11015094Y-14715874D01*
X11024617Y-14696827D01*
X11034141Y-14687303D01*
X11053189Y-14677779D01*
X11091284Y-14677779D01*
X11110332Y-14687303D01*
X11186522Y-14887303D02*
X11196046Y-14877779D01*
X11215094Y-14849208D01*
X11224617Y-14830160D01*
X11234141Y-14801589D01*
X11243665Y-14753970D01*
X11243665Y-14715874D01*
X11234141Y-14668255D01*
X11224617Y-14639684D01*
X11215094Y-14620636D01*
X11196046Y-14592065D01*
X11186522Y-14582541D01*
X2524141Y-14910816D02*
X2524141Y-15110816D01*
X2424141Y-15010816D02*
X2624141Y-15010816D01*
X2862713Y-14901292D02*
X2986522Y-14901292D01*
X2919855Y-14977483D01*
X2948427Y-14977483D01*
X2967475Y-14987007D01*
X2976998Y-14996530D01*
X2986522Y-15015578D01*
X2986522Y-15063197D01*
X2976998Y-15082245D01*
X2967475Y-15091769D01*
X2948427Y-15101292D01*
X2891284Y-15101292D01*
X2872236Y-15091769D01*
X2862713Y-15082245D01*
X3072236Y-15082245D02*
X3081760Y-15091769D01*
X3072236Y-15101292D01*
X3062713Y-15091769D01*
X3072236Y-15082245D01*
X3072236Y-15101292D01*
X3205570Y-14901292D02*
X3224617Y-14901292D01*
X3243665Y-14910816D01*
X3253189Y-14920340D01*
X3262713Y-14939388D01*
X3272236Y-14977483D01*
X3272236Y-15025102D01*
X3262713Y-15063197D01*
X3253189Y-15082245D01*
X3243665Y-15091769D01*
X3224617Y-15101292D01*
X3205570Y-15101292D01*
X3186522Y-15091769D01*
X3176998Y-15082245D01*
X3167475Y-15063197D01*
X3157951Y-15025102D01*
X3157951Y-14977483D01*
X3167475Y-14939388D01*
X3176998Y-14920340D01*
X3186522Y-14910816D01*
X3205570Y-14901292D01*
X3396046Y-14901292D02*
X3415094Y-14901292D01*
X3434141Y-14910816D01*
X3443665Y-14920340D01*
X3453189Y-14939388D01*
X3462713Y-14977483D01*
X3462713Y-15025102D01*
X3453189Y-15063197D01*
X3443665Y-15082245D01*
X3434141Y-15091769D01*
X3415094Y-15101292D01*
X3396046Y-15101292D01*
X3376998Y-15091769D01*
X3367475Y-15082245D01*
X3357951Y-15063197D01*
X3348427Y-15025102D01*
X3348427Y-14977483D01*
X3357951Y-14939388D01*
X3367475Y-14920340D01*
X3376998Y-14910816D01*
X3396046Y-14901292D01*
X3586522Y-14901292D02*
X3605570Y-14901292D01*
X3624617Y-14910816D01*
X3634141Y-14920340D01*
X3643665Y-14939388D01*
X3653189Y-14977483D01*
X3653189Y-15025102D01*
X3643665Y-15063197D01*
X3634141Y-15082245D01*
X3624617Y-15091769D01*
X3605570Y-15101292D01*
X3586522Y-15101292D01*
X3567475Y-15091769D01*
X3557951Y-15082245D01*
X3548427Y-15063197D01*
X3538903Y-15025102D01*
X3538903Y-14977483D01*
X3548427Y-14939388D01*
X3557951Y-14920340D01*
X3567475Y-14910816D01*
X3586522Y-14901292D01*
X3738903Y-15101292D02*
X3738903Y-14967959D01*
X3738903Y-14987007D02*
X3748427Y-14977483D01*
X3767475Y-14967959D01*
X3796046Y-14967959D01*
X3815094Y-14977483D01*
X3824617Y-14996530D01*
X3824617Y-15101292D01*
X3824617Y-14996530D02*
X3834141Y-14977483D01*
X3853189Y-14967959D01*
X3881760Y-14967959D01*
X3900808Y-14977483D01*
X3910332Y-14996530D01*
X3910332Y-15101292D01*
X4005570Y-15101292D02*
X4005570Y-14967959D01*
X4005570Y-14987007D02*
X4015094Y-14977483D01*
X4034141Y-14967959D01*
X4062713Y-14967959D01*
X4081760Y-14977483D01*
X4091284Y-14996530D01*
X4091284Y-15101292D01*
X4091284Y-14996530D02*
X4100808Y-14977483D01*
X4119855Y-14967959D01*
X4148427Y-14967959D01*
X4167475Y-14977483D01*
X4176998Y-14996530D01*
X4176998Y-15101292D01*
X4567475Y-14891769D02*
X4396046Y-15148911D01*
X4824617Y-14901292D02*
X4843665Y-14901292D01*
X4862713Y-14910816D01*
X4872237Y-14920340D01*
X4881760Y-14939388D01*
X4891284Y-14977483D01*
X4891284Y-15025102D01*
X4881760Y-15063197D01*
X4872237Y-15082245D01*
X4862713Y-15091769D01*
X4843665Y-15101292D01*
X4824617Y-15101292D01*
X4805570Y-15091769D01*
X4796046Y-15082245D01*
X4786522Y-15063197D01*
X4776998Y-15025102D01*
X4776998Y-14977483D01*
X4786522Y-14939388D01*
X4796046Y-14920340D01*
X4805570Y-14910816D01*
X4824617Y-14901292D01*
X4976998Y-15082245D02*
X4986522Y-15091769D01*
X4976998Y-15101292D01*
X4967475Y-15091769D01*
X4976998Y-15082245D01*
X4976998Y-15101292D01*
X5176998Y-15101292D02*
X5062713Y-15101292D01*
X5119856Y-15101292D02*
X5119856Y-14901292D01*
X5100808Y-14929864D01*
X5081760Y-14948911D01*
X5062713Y-14958435D01*
X5367475Y-15101292D02*
X5253189Y-15101292D01*
X5310332Y-15101292D02*
X5310332Y-14901292D01*
X5291284Y-14929864D01*
X5272237Y-14948911D01*
X5253189Y-14958435D01*
X5481760Y-14987007D02*
X5462713Y-14977483D01*
X5453189Y-14967959D01*
X5443665Y-14948911D01*
X5443665Y-14939388D01*
X5453189Y-14920340D01*
X5462713Y-14910816D01*
X5481760Y-14901292D01*
X5519856Y-14901292D01*
X5538903Y-14910816D01*
X5548427Y-14920340D01*
X5557951Y-14939388D01*
X5557951Y-14948911D01*
X5548427Y-14967959D01*
X5538903Y-14977483D01*
X5519856Y-14987007D01*
X5481760Y-14987007D01*
X5462713Y-14996530D01*
X5453189Y-15006054D01*
X5443665Y-15025102D01*
X5443665Y-15063197D01*
X5453189Y-15082245D01*
X5462713Y-15091769D01*
X5481760Y-15101292D01*
X5519856Y-15101292D01*
X5538903Y-15091769D01*
X5548427Y-15082245D01*
X5557951Y-15063197D01*
X5557951Y-15025102D01*
X5548427Y-15006054D01*
X5538903Y-14996530D01*
X5519856Y-14987007D01*
X5748427Y-15101292D02*
X5634141Y-15101292D01*
X5691284Y-15101292D02*
X5691284Y-14901292D01*
X5672236Y-14929864D01*
X5653189Y-14948911D01*
X5634141Y-14958435D01*
X5824617Y-14901292D02*
X5824617Y-14939388D01*
X5900808Y-14901292D02*
X5900808Y-14939388D01*
X6196046Y-15177483D02*
X6186522Y-15167959D01*
X6167475Y-15139388D01*
X6157951Y-15120340D01*
X6148427Y-15091769D01*
X6138903Y-15044150D01*
X6138903Y-15006054D01*
X6148427Y-14958435D01*
X6157951Y-14929864D01*
X6167475Y-14910816D01*
X6186522Y-14882245D01*
X6196046Y-14872721D01*
X6376998Y-15101292D02*
X6262713Y-15101292D01*
X6319855Y-15101292D02*
X6319855Y-14901292D01*
X6300808Y-14929864D01*
X6281760Y-14948911D01*
X6262713Y-14958435D01*
X6557951Y-14901292D02*
X6462713Y-14901292D01*
X6453189Y-14996530D01*
X6462713Y-14987007D01*
X6481760Y-14977483D01*
X6529379Y-14977483D01*
X6548427Y-14987007D01*
X6557951Y-14996530D01*
X6567475Y-15015578D01*
X6567475Y-15063197D01*
X6557951Y-15082245D01*
X6548427Y-15091769D01*
X6529379Y-15101292D01*
X6481760Y-15101292D01*
X6462713Y-15091769D01*
X6453189Y-15082245D01*
X6691284Y-14901292D02*
X6710332Y-14901292D01*
X6729379Y-14910816D01*
X6738903Y-14920340D01*
X6748427Y-14939388D01*
X6757951Y-14977483D01*
X6757951Y-15025102D01*
X6748427Y-15063197D01*
X6738903Y-15082245D01*
X6729379Y-15091769D01*
X6710332Y-15101292D01*
X6691284Y-15101292D01*
X6672236Y-15091769D01*
X6662713Y-15082245D01*
X6653189Y-15063197D01*
X6643665Y-15025102D01*
X6643665Y-14977483D01*
X6653189Y-14939388D01*
X6662713Y-14920340D01*
X6672236Y-14910816D01*
X6691284Y-14901292D01*
X6996046Y-15101292D02*
X6996046Y-14901292D01*
X7081760Y-15101292D02*
X7081760Y-14996530D01*
X7072236Y-14977483D01*
X7053189Y-14967959D01*
X7024617Y-14967959D01*
X7005570Y-14977483D01*
X6996046Y-14987007D01*
X7205570Y-15101292D02*
X7186522Y-15091769D01*
X7176998Y-15082245D01*
X7167475Y-15063197D01*
X7167475Y-15006054D01*
X7176998Y-14987007D01*
X7186522Y-14977483D01*
X7205570Y-14967959D01*
X7234141Y-14967959D01*
X7253189Y-14977483D01*
X7262713Y-14987007D01*
X7272236Y-15006054D01*
X7272236Y-15063197D01*
X7262713Y-15082245D01*
X7253189Y-15091769D01*
X7234141Y-15101292D01*
X7205570Y-15101292D01*
X7386522Y-15101292D02*
X7367475Y-15091769D01*
X7357951Y-15072721D01*
X7357951Y-14901292D01*
X7538903Y-15091769D02*
X7519855Y-15101292D01*
X7481760Y-15101292D01*
X7462713Y-15091769D01*
X7453189Y-15072721D01*
X7453189Y-14996530D01*
X7462713Y-14977483D01*
X7481760Y-14967959D01*
X7519855Y-14967959D01*
X7538903Y-14977483D01*
X7548427Y-14996530D01*
X7548427Y-15015578D01*
X7453189Y-15034626D01*
X7624617Y-15091769D02*
X7643665Y-15101292D01*
X7681760Y-15101292D01*
X7700808Y-15091769D01*
X7710332Y-15072721D01*
X7710332Y-15063197D01*
X7700808Y-15044150D01*
X7681760Y-15034626D01*
X7653189Y-15034626D01*
X7634141Y-15025102D01*
X7624617Y-15006054D01*
X7624617Y-14996530D01*
X7634141Y-14977483D01*
X7653189Y-14967959D01*
X7681760Y-14967959D01*
X7700808Y-14977483D01*
X7776998Y-15177483D02*
X7786522Y-15167959D01*
X7805570Y-15139388D01*
X7815094Y-15120340D01*
X7824617Y-15091769D01*
X7834141Y-15044150D01*
X7834141Y-15006054D01*
X7824617Y-14958435D01*
X7815094Y-14929864D01*
X7805570Y-14910816D01*
X7786522Y-14882245D01*
X7776998Y-14872721D01*
X8138903Y-15177483D02*
X8129379Y-15167959D01*
X8110332Y-15139388D01*
X8100808Y-15120340D01*
X8091284Y-15091769D01*
X8081760Y-15044150D01*
X8081760Y-15006054D01*
X8091284Y-14958435D01*
X8100808Y-14929864D01*
X8110332Y-14910816D01*
X8129379Y-14882245D01*
X8138903Y-14872721D01*
X8215094Y-14967959D02*
X8215094Y-15101292D01*
X8215094Y-14987007D02*
X8224617Y-14977483D01*
X8243665Y-14967959D01*
X8272236Y-14967959D01*
X8291284Y-14977483D01*
X8300808Y-14996530D01*
X8300808Y-15101292D01*
X8424617Y-15101292D02*
X8405570Y-15091769D01*
X8396046Y-15082245D01*
X8386522Y-15063197D01*
X8386522Y-15006054D01*
X8396046Y-14987007D01*
X8405570Y-14977483D01*
X8424617Y-14967959D01*
X8453189Y-14967959D01*
X8472237Y-14977483D01*
X8481760Y-14987007D01*
X8491284Y-15006054D01*
X8491284Y-15063197D01*
X8481760Y-15082245D01*
X8472237Y-15091769D01*
X8453189Y-15101292D01*
X8424617Y-15101292D01*
X8548427Y-14967959D02*
X8624617Y-14967959D01*
X8576998Y-14901292D02*
X8576998Y-15072721D01*
X8586522Y-15091769D01*
X8605570Y-15101292D01*
X8624617Y-15101292D01*
X8843665Y-14967959D02*
X8843665Y-15167959D01*
X8843665Y-14977483D02*
X8862713Y-14967959D01*
X8900808Y-14967959D01*
X8919856Y-14977483D01*
X8929379Y-14987007D01*
X8938903Y-15006054D01*
X8938903Y-15063197D01*
X8929379Y-15082245D01*
X8919856Y-15091769D01*
X8900808Y-15101292D01*
X8862713Y-15101292D01*
X8843665Y-15091769D01*
X9053189Y-15101292D02*
X9034141Y-15091769D01*
X9024617Y-15072721D01*
X9024617Y-14901292D01*
X9215094Y-15101292D02*
X9215094Y-14996530D01*
X9205570Y-14977483D01*
X9186522Y-14967959D01*
X9148427Y-14967959D01*
X9129379Y-14977483D01*
X9215094Y-15091769D02*
X9196046Y-15101292D01*
X9148427Y-15101292D01*
X9129379Y-15091769D01*
X9119856Y-15072721D01*
X9119856Y-15053673D01*
X9129379Y-15034626D01*
X9148427Y-15025102D01*
X9196046Y-15025102D01*
X9215094Y-15015578D01*
X9281760Y-14967959D02*
X9357951Y-14967959D01*
X9310332Y-14901292D02*
X9310332Y-15072721D01*
X9319856Y-15091769D01*
X9338903Y-15101292D01*
X9357951Y-15101292D01*
X9500808Y-15091769D02*
X9481760Y-15101292D01*
X9443665Y-15101292D01*
X9424617Y-15091769D01*
X9415094Y-15072721D01*
X9415094Y-14996530D01*
X9424617Y-14977483D01*
X9443665Y-14967959D01*
X9481760Y-14967959D01*
X9500808Y-14977483D01*
X9510332Y-14996530D01*
X9510332Y-15015578D01*
X9415094Y-15034626D01*
X9681760Y-15101292D02*
X9681760Y-14901292D01*
X9681760Y-15091769D02*
X9662713Y-15101292D01*
X9624617Y-15101292D01*
X9605570Y-15091769D01*
X9596046Y-15082245D01*
X9586522Y-15063197D01*
X9586522Y-15006054D01*
X9596046Y-14987007D01*
X9605570Y-14977483D01*
X9624617Y-14967959D01*
X9662713Y-14967959D01*
X9681760Y-14977483D01*
X9757951Y-15177483D02*
X9767475Y-15167959D01*
X9786522Y-15139388D01*
X9796046Y-15120340D01*
X9805570Y-15091769D01*
X9815094Y-15044150D01*
X9815094Y-15006054D01*
X9805570Y-14958435D01*
X9796046Y-14929864D01*
X9786522Y-14910816D01*
X9767475Y-14882245D01*
X9757951Y-14872721D01*
X2594853Y-15401528D02*
X2594853Y-15260105D01*
X2453430Y-15260105D01*
X2453430Y-15401528D01*
X2594853Y-15401528D01*
X2862713Y-15221292D02*
X2986522Y-15221292D01*
X2919855Y-15297483D01*
X2948427Y-15297483D01*
X2967475Y-15307007D01*
X2976998Y-15316530D01*
X2986522Y-15335578D01*
X2986522Y-15383197D01*
X2976998Y-15402245D01*
X2967475Y-15411769D01*
X2948427Y-15421292D01*
X2891284Y-15421292D01*
X2872236Y-15411769D01*
X2862713Y-15402245D01*
X3072236Y-15402245D02*
X3081760Y-15411769D01*
X3072236Y-15421292D01*
X3062713Y-15411769D01*
X3072236Y-15402245D01*
X3072236Y-15421292D01*
X3176998Y-15421292D02*
X3215094Y-15421292D01*
X3234141Y-15411769D01*
X3243665Y-15402245D01*
X3262713Y-15373673D01*
X3272236Y-15335578D01*
X3272236Y-15259388D01*
X3262713Y-15240340D01*
X3253189Y-15230816D01*
X3234141Y-15221292D01*
X3196046Y-15221292D01*
X3176998Y-15230816D01*
X3167475Y-15240340D01*
X3157951Y-15259388D01*
X3157951Y-15307007D01*
X3167475Y-15326054D01*
X3176998Y-15335578D01*
X3196046Y-15345102D01*
X3234141Y-15345102D01*
X3253189Y-15335578D01*
X3262713Y-15326054D01*
X3272236Y-15307007D01*
X3386522Y-15307007D02*
X3367475Y-15297483D01*
X3357951Y-15287959D01*
X3348427Y-15268911D01*
X3348427Y-15259388D01*
X3357951Y-15240340D01*
X3367475Y-15230816D01*
X3386522Y-15221292D01*
X3424617Y-15221292D01*
X3443665Y-15230816D01*
X3453189Y-15240340D01*
X3462713Y-15259388D01*
X3462713Y-15268911D01*
X3453189Y-15287959D01*
X3443665Y-15297483D01*
X3424617Y-15307007D01*
X3386522Y-15307007D01*
X3367475Y-15316530D01*
X3357951Y-15326054D01*
X3348427Y-15345102D01*
X3348427Y-15383197D01*
X3357951Y-15402245D01*
X3367475Y-15411769D01*
X3386522Y-15421292D01*
X3424617Y-15421292D01*
X3443665Y-15411769D01*
X3453189Y-15402245D01*
X3462713Y-15383197D01*
X3462713Y-15345102D01*
X3453189Y-15326054D01*
X3443665Y-15316530D01*
X3424617Y-15307007D01*
X3576998Y-15307007D02*
X3557951Y-15297483D01*
X3548427Y-15287959D01*
X3538903Y-15268911D01*
X3538903Y-15259388D01*
X3548427Y-15240340D01*
X3557951Y-15230816D01*
X3576998Y-15221292D01*
X3615094Y-15221292D01*
X3634141Y-15230816D01*
X3643665Y-15240340D01*
X3653189Y-15259388D01*
X3653189Y-15268911D01*
X3643665Y-15287959D01*
X3634141Y-15297483D01*
X3615094Y-15307007D01*
X3576998Y-15307007D01*
X3557951Y-15316530D01*
X3548427Y-15326054D01*
X3538903Y-15345102D01*
X3538903Y-15383197D01*
X3548427Y-15402245D01*
X3557951Y-15411769D01*
X3576998Y-15421292D01*
X3615094Y-15421292D01*
X3634141Y-15411769D01*
X3643665Y-15402245D01*
X3653189Y-15383197D01*
X3653189Y-15345102D01*
X3643665Y-15326054D01*
X3634141Y-15316530D01*
X3615094Y-15307007D01*
X3738903Y-15421292D02*
X3738903Y-15287959D01*
X3738903Y-15307007D02*
X3748427Y-15297483D01*
X3767475Y-15287959D01*
X3796046Y-15287959D01*
X3815094Y-15297483D01*
X3824617Y-15316530D01*
X3824617Y-15421292D01*
X3824617Y-15316530D02*
X3834141Y-15297483D01*
X3853189Y-15287959D01*
X3881760Y-15287959D01*
X3900808Y-15297483D01*
X3910332Y-15316530D01*
X3910332Y-15421292D01*
X4005570Y-15421292D02*
X4005570Y-15287959D01*
X4005570Y-15307007D02*
X4015094Y-15297483D01*
X4034141Y-15287959D01*
X4062713Y-15287959D01*
X4081760Y-15297483D01*
X4091284Y-15316530D01*
X4091284Y-15421292D01*
X4091284Y-15316530D02*
X4100808Y-15297483D01*
X4119855Y-15287959D01*
X4148427Y-15287959D01*
X4167475Y-15297483D01*
X4176998Y-15316530D01*
X4176998Y-15421292D01*
X4567475Y-15211769D02*
X4396046Y-15468911D01*
X4824617Y-15221292D02*
X4843665Y-15221292D01*
X4862713Y-15230816D01*
X4872237Y-15240340D01*
X4881760Y-15259388D01*
X4891284Y-15297483D01*
X4891284Y-15345102D01*
X4881760Y-15383197D01*
X4872237Y-15402245D01*
X4862713Y-15411769D01*
X4843665Y-15421292D01*
X4824617Y-15421292D01*
X4805570Y-15411769D01*
X4796046Y-15402245D01*
X4786522Y-15383197D01*
X4776998Y-15345102D01*
X4776998Y-15297483D01*
X4786522Y-15259388D01*
X4796046Y-15240340D01*
X4805570Y-15230816D01*
X4824617Y-15221292D01*
X4976998Y-15402245D02*
X4986522Y-15411769D01*
X4976998Y-15421292D01*
X4967475Y-15411769D01*
X4976998Y-15402245D01*
X4976998Y-15421292D01*
X5176998Y-15421292D02*
X5062713Y-15421292D01*
X5119856Y-15421292D02*
X5119856Y-15221292D01*
X5100808Y-15249864D01*
X5081760Y-15268911D01*
X5062713Y-15278435D01*
X5357951Y-15221292D02*
X5262713Y-15221292D01*
X5253189Y-15316530D01*
X5262713Y-15307007D01*
X5281760Y-15297483D01*
X5329379Y-15297483D01*
X5348427Y-15307007D01*
X5357951Y-15316530D01*
X5367475Y-15335578D01*
X5367475Y-15383197D01*
X5357951Y-15402245D01*
X5348427Y-15411769D01*
X5329379Y-15421292D01*
X5281760Y-15421292D01*
X5262713Y-15411769D01*
X5253189Y-15402245D01*
X5434141Y-15221292D02*
X5567475Y-15221292D01*
X5481760Y-15421292D01*
X5681760Y-15221292D02*
X5700808Y-15221292D01*
X5719855Y-15230816D01*
X5729379Y-15240340D01*
X5738903Y-15259388D01*
X5748427Y-15297483D01*
X5748427Y-15345102D01*
X5738903Y-15383197D01*
X5729379Y-15402245D01*
X5719855Y-15411769D01*
X5700808Y-15421292D01*
X5681760Y-15421292D01*
X5662713Y-15411769D01*
X5653189Y-15402245D01*
X5643665Y-15383197D01*
X5634141Y-15345102D01*
X5634141Y-15297483D01*
X5643665Y-15259388D01*
X5653189Y-15240340D01*
X5662713Y-15230816D01*
X5681760Y-15221292D01*
X5824617Y-15221292D02*
X5824617Y-15259388D01*
X5900808Y-15221292D02*
X5900808Y-15259388D01*
X6196046Y-15497483D02*
X6186522Y-15487959D01*
X6167475Y-15459388D01*
X6157951Y-15440340D01*
X6148427Y-15411769D01*
X6138903Y-15364150D01*
X6138903Y-15326054D01*
X6148427Y-15278435D01*
X6157951Y-15249864D01*
X6167475Y-15230816D01*
X6186522Y-15202245D01*
X6196046Y-15192721D01*
X6253189Y-15221292D02*
X6376998Y-15221292D01*
X6310332Y-15297483D01*
X6338903Y-15297483D01*
X6357951Y-15307007D01*
X6367475Y-15316530D01*
X6376998Y-15335578D01*
X6376998Y-15383197D01*
X6367475Y-15402245D01*
X6357951Y-15411769D01*
X6338903Y-15421292D01*
X6281760Y-15421292D01*
X6262713Y-15411769D01*
X6253189Y-15402245D01*
X6500808Y-15221292D02*
X6519855Y-15221292D01*
X6538903Y-15230816D01*
X6548427Y-15240340D01*
X6557951Y-15259388D01*
X6567475Y-15297483D01*
X6567475Y-15345102D01*
X6557951Y-15383197D01*
X6548427Y-15402245D01*
X6538903Y-15411769D01*
X6519855Y-15421292D01*
X6500808Y-15421292D01*
X6481760Y-15411769D01*
X6472236Y-15402245D01*
X6462713Y-15383197D01*
X6453189Y-15345102D01*
X6453189Y-15297483D01*
X6462713Y-15259388D01*
X6472236Y-15240340D01*
X6481760Y-15230816D01*
X6500808Y-15221292D01*
X6805570Y-15421292D02*
X6805570Y-15221292D01*
X6891284Y-15421292D02*
X6891284Y-15316530D01*
X6881760Y-15297483D01*
X6862713Y-15287959D01*
X6834141Y-15287959D01*
X6815094Y-15297483D01*
X6805570Y-15307007D01*
X7015094Y-15421292D02*
X6996046Y-15411769D01*
X6986522Y-15402245D01*
X6976998Y-15383197D01*
X6976998Y-15326054D01*
X6986522Y-15307007D01*
X6996046Y-15297483D01*
X7015094Y-15287959D01*
X7043665Y-15287959D01*
X7062713Y-15297483D01*
X7072236Y-15307007D01*
X7081760Y-15326054D01*
X7081760Y-15383197D01*
X7072236Y-15402245D01*
X7062713Y-15411769D01*
X7043665Y-15421292D01*
X7015094Y-15421292D01*
X7196046Y-15421292D02*
X7176998Y-15411769D01*
X7167475Y-15392721D01*
X7167475Y-15221292D01*
X7348427Y-15411769D02*
X7329379Y-15421292D01*
X7291284Y-15421292D01*
X7272236Y-15411769D01*
X7262713Y-15392721D01*
X7262713Y-15316530D01*
X7272236Y-15297483D01*
X7291284Y-15287959D01*
X7329379Y-15287959D01*
X7348427Y-15297483D01*
X7357951Y-15316530D01*
X7357951Y-15335578D01*
X7262713Y-15354626D01*
X7434141Y-15411769D02*
X7453189Y-15421292D01*
X7491284Y-15421292D01*
X7510332Y-15411769D01*
X7519855Y-15392721D01*
X7519855Y-15383197D01*
X7510332Y-15364150D01*
X7491284Y-15354626D01*
X7462713Y-15354626D01*
X7443665Y-15345102D01*
X7434141Y-15326054D01*
X7434141Y-15316530D01*
X7443665Y-15297483D01*
X7462713Y-15287959D01*
X7491284Y-15287959D01*
X7510332Y-15297483D01*
X7586522Y-15497483D02*
X7596046Y-15487959D01*
X7615094Y-15459388D01*
X7624617Y-15440340D01*
X7634141Y-15411769D01*
X7643665Y-15364150D01*
X7643665Y-15326054D01*
X7634141Y-15278435D01*
X7624617Y-15249864D01*
X7615094Y-15230816D01*
X7596046Y-15202245D01*
X7586522Y-15192721D01*
X7948427Y-15497483D02*
X7938903Y-15487959D01*
X7919855Y-15459388D01*
X7910332Y-15440340D01*
X7900808Y-15411769D01*
X7891284Y-15364150D01*
X7891284Y-15326054D01*
X7900808Y-15278435D01*
X7910332Y-15249864D01*
X7919855Y-15230816D01*
X7938903Y-15202245D01*
X7948427Y-15192721D01*
X8024617Y-15287959D02*
X8024617Y-15421292D01*
X8024617Y-15307007D02*
X8034141Y-15297483D01*
X8053189Y-15287959D01*
X8081760Y-15287959D01*
X8100808Y-15297483D01*
X8110332Y-15316530D01*
X8110332Y-15421292D01*
X8234141Y-15421292D02*
X8215094Y-15411769D01*
X8205570Y-15402245D01*
X8196046Y-15383197D01*
X8196046Y-15326054D01*
X8205570Y-15307007D01*
X8215094Y-15297483D01*
X8234141Y-15287959D01*
X8262713Y-15287959D01*
X8281760Y-15297483D01*
X8291284Y-15307007D01*
X8300808Y-15326054D01*
X8300808Y-15383197D01*
X8291284Y-15402245D01*
X8281760Y-15411769D01*
X8262713Y-15421292D01*
X8234141Y-15421292D01*
X8357951Y-15287959D02*
X8434141Y-15287959D01*
X8386522Y-15221292D02*
X8386522Y-15392721D01*
X8396046Y-15411769D01*
X8415094Y-15421292D01*
X8434141Y-15421292D01*
X8653189Y-15287959D02*
X8653189Y-15487959D01*
X8653189Y-15297483D02*
X8672237Y-15287959D01*
X8710332Y-15287959D01*
X8729379Y-15297483D01*
X8738903Y-15307007D01*
X8748427Y-15326054D01*
X8748427Y-15383197D01*
X8738903Y-15402245D01*
X8729379Y-15411769D01*
X8710332Y-15421292D01*
X8672237Y-15421292D01*
X8653189Y-15411769D01*
X8862713Y-15421292D02*
X8843665Y-15411769D01*
X8834141Y-15392721D01*
X8834141Y-15221292D01*
X9024617Y-15421292D02*
X9024617Y-15316530D01*
X9015094Y-15297483D01*
X8996046Y-15287959D01*
X8957951Y-15287959D01*
X8938903Y-15297483D01*
X9024617Y-15411769D02*
X9005570Y-15421292D01*
X8957951Y-15421292D01*
X8938903Y-15411769D01*
X8929379Y-15392721D01*
X8929379Y-15373673D01*
X8938903Y-15354626D01*
X8957951Y-15345102D01*
X9005570Y-15345102D01*
X9024617Y-15335578D01*
X9091284Y-15287959D02*
X9167475Y-15287959D01*
X9119856Y-15221292D02*
X9119856Y-15392721D01*
X9129379Y-15411769D01*
X9148427Y-15421292D01*
X9167475Y-15421292D01*
X9310332Y-15411769D02*
X9291284Y-15421292D01*
X9253189Y-15421292D01*
X9234141Y-15411769D01*
X9224617Y-15392721D01*
X9224617Y-15316530D01*
X9234141Y-15297483D01*
X9253189Y-15287959D01*
X9291284Y-15287959D01*
X9310332Y-15297483D01*
X9319856Y-15316530D01*
X9319856Y-15335578D01*
X9224617Y-15354626D01*
X9491284Y-15421292D02*
X9491284Y-15221292D01*
X9491284Y-15411769D02*
X9472237Y-15421292D01*
X9434141Y-15421292D01*
X9415094Y-15411769D01*
X9405570Y-15402245D01*
X9396046Y-15383197D01*
X9396046Y-15326054D01*
X9405570Y-15307007D01*
X9415094Y-15297483D01*
X9434141Y-15287959D01*
X9472237Y-15287959D01*
X9491284Y-15297483D01*
X9567475Y-15497483D02*
X9576998Y-15487959D01*
X9596046Y-15459388D01*
X9605570Y-15440340D01*
X9615094Y-15411769D01*
X9624617Y-15364150D01*
X9624617Y-15326054D01*
X9615094Y-15278435D01*
X9605570Y-15249864D01*
X9596046Y-15230816D01*
X9576998Y-15202245D01*
X9567475Y-15192721D01*
M02*
