%TF.GenerationSoftware,KiCad,Pcbnew,(6.0.4)*%
%TF.CreationDate,2022-08-23T16:30:45+02:00*%
%TF.ProjectId,Asfoora,4173666f-6f72-4612-9e6b-696361645f70,rev?*%
%TF.SameCoordinates,Original*%
%TF.FileFunction,Paste,Bot*%
%TF.FilePolarity,Positive*%
%FSLAX46Y46*%
G04 Gerber Fmt 4.6, Leading zero omitted, Abs format (unit mm)*
G04 Created by KiCad (PCBNEW (6.0.4)) date 2022-08-23 16:30:45*
%MOMM*%
%LPD*%
G01*
G04 APERTURE LIST*
G04 Aperture macros list*
%AMRotRect*
0 Rectangle, with rotation*
0 The origin of the aperture is its center*
0 $1 length*
0 $2 width*
0 $3 Rotation angle, in degrees counterclockwise*
0 Add horizontal line*
21,1,$1,$2,0,0,$3*%
G04 Aperture macros list end*
%ADD10RotRect,2.600000X2.600000X350.000000*%
%ADD11RotRect,2.550000X2.500000X350.000000*%
%ADD12RotRect,2.600000X2.600000X27.000000*%
%ADD13RotRect,2.550000X2.500000X27.000000*%
%ADD14RotRect,2.600000X2.600000X338.000000*%
%ADD15RotRect,2.550000X2.500000X338.000000*%
%ADD16RotRect,2.600000X2.600000X333.000000*%
%ADD17RotRect,2.550000X2.500000X333.000000*%
%ADD18RotRect,2.550000X2.500000X17.000000*%
%ADD19RotRect,2.600000X2.600000X17.000000*%
%ADD20RotRect,2.600000X2.600000X22.000000*%
%ADD21RotRect,2.550000X2.500000X22.000000*%
%ADD22RotRect,2.600000X2.600000X10.000000*%
%ADD23RotRect,2.550000X2.500000X10.000000*%
%ADD24RotRect,2.550000X2.500000X343.000000*%
%ADD25RotRect,2.600000X2.600000X343.000000*%
%ADD26R,1.000000X0.800000*%
%ADD27R,0.700000X1.500000*%
G04 APERTURE END LIST*
D10*
%TO.C,SW11*%
X49145183Y-72631995D03*
D11*
X47421292Y-70977509D03*
X33281549Y-71063474D03*
D10*
X38155628Y-68456942D03*
%TD*%
D12*
%TO.C,SW24*%
X221826830Y-107656512D03*
D13*
X219454374Y-107372645D03*
D12*
X210537572Y-110935846D03*
D13*
X208213609Y-115950809D03*
%TD*%
%TO.C,SW20*%
X204681705Y-120230746D03*
D12*
X207054161Y-120514613D03*
D13*
X193440940Y-128808910D03*
D12*
X195764903Y-123793947D03*
%TD*%
D13*
%TO.C,SW22*%
X205073045Y-68684923D03*
D12*
X207445501Y-68968790D03*
D13*
X193832280Y-77263087D03*
D12*
X196156243Y-72248124D03*
%TD*%
D14*
%TO.C,SW5*%
X102968031Y-45866134D03*
D15*
X101625798Y-43889385D03*
X87777170Y-41033655D03*
D14*
X93086667Y-39497460D03*
%TD*%
D16*
%TO.C,SW8*%
X121820230Y-59555399D03*
D17*
X120655390Y-57469189D03*
X107108353Y-53417338D03*
D16*
X112531534Y-52349741D03*
%TD*%
D18*
%TO.C,SW30*%
X245429791Y-55362067D03*
D19*
X247716910Y-56053594D03*
X236029711Y-57322749D03*
D18*
X232870216Y-61857971D03*
%TD*%
D17*
%TO.C,SW19*%
X112420910Y-125944136D03*
D16*
X113585750Y-128030346D03*
D17*
X98873873Y-121892285D03*
D16*
X104297054Y-120824688D03*
%TD*%
D20*
%TO.C,SW25*%
X218270789Y-39664588D03*
D21*
X215932102Y-39175028D03*
D20*
X206738677Y-41947519D03*
D21*
X203986475Y-46740852D03*
%TD*%
D14*
%TO.C,SW6*%
X95850506Y-63482627D03*
D15*
X94508273Y-61505878D03*
D14*
X85969142Y-57113953D03*
D15*
X80659645Y-58650148D03*
%TD*%
D17*
%TO.C,SW10*%
X103403751Y-91327437D03*
D16*
X104568591Y-93413647D03*
X95279895Y-86207989D03*
D17*
X89856714Y-87275586D03*
%TD*%
D22*
%TO.C,SW32*%
X273047266Y-69757659D03*
D23*
X270861471Y-68792557D03*
X257603862Y-73709414D03*
D22*
X261292511Y-69593042D03*
%TD*%
D21*
%TO.C,SW27*%
X230167152Y-74408014D03*
D20*
X232505839Y-74897574D03*
X220973727Y-77180505D03*
D21*
X218221525Y-81973838D03*
%TD*%
D24*
%TO.C,SW14*%
X66939528Y-77211303D03*
D25*
X68448939Y-79063546D03*
D24*
X52894705Y-75573427D03*
D25*
X58050109Y-73580324D03*
%TD*%
%TO.C,SW2*%
X79559063Y-42723965D03*
D24*
X78049652Y-40871722D03*
X64004829Y-39233846D03*
D25*
X69160233Y-37240743D03*
%TD*%
D16*
%TO.C,SW15*%
X98813081Y-115172245D03*
D17*
X97648241Y-113086035D03*
X84101204Y-109034184D03*
D16*
X89524385Y-107966587D03*
%TD*%
D12*
%TO.C,SW18*%
X194829287Y-86059171D03*
D13*
X192456831Y-85775304D03*
D12*
X183540029Y-89338505D03*
D13*
X181216066Y-94353468D03*
%TD*%
D11*
%TO.C,SW4*%
X50711570Y-52249086D03*
D10*
X52435461Y-53903572D03*
X41445906Y-49728519D03*
D11*
X36571827Y-52335051D03*
%TD*%
D14*
%TO.C,SW7*%
X88732981Y-81099120D03*
D15*
X87390748Y-79122371D03*
X73542120Y-76266641D03*
D14*
X78851617Y-74730446D03*
%TD*%
D18*
%TO.C,SW29*%
X239874729Y-37192276D03*
D19*
X242161848Y-37883803D03*
X230474649Y-39152958D03*
D18*
X227315154Y-43688180D03*
%TD*%
D17*
%TO.C,SW9*%
X112029570Y-74398313D03*
D16*
X113194410Y-76484523D03*
D17*
X98482533Y-70346462D03*
D16*
X103905714Y-69278865D03*
%TD*%
%TO.C,SW12*%
X134436444Y-76645780D03*
D17*
X133271604Y-74559570D03*
D16*
X125147748Y-69440122D03*
D17*
X119724567Y-70507719D03*
%TD*%
D13*
%TO.C,SW17*%
X183831011Y-68846180D03*
D12*
X186203467Y-69130047D03*
D13*
X172590246Y-77424344D03*
D12*
X174914209Y-72409381D03*
%TD*%
%TO.C,SW21*%
X198819681Y-52039666D03*
D13*
X196447225Y-51755799D03*
D12*
X187530423Y-55319000D03*
D13*
X185206460Y-60333963D03*
%TD*%
D23*
%TO.C,SW31*%
X267556205Y-50077391D03*
D22*
X269742000Y-51042493D03*
X257987245Y-50877876D03*
D23*
X254298596Y-54994248D03*
%TD*%
D21*
%TO.C,SW26*%
X223049627Y-56791521D03*
D20*
X225388314Y-57281081D03*
X213856202Y-59564012D03*
D21*
X211104000Y-64357345D03*
%TD*%
D19*
%TO.C,SW28*%
X253271972Y-74223384D03*
D18*
X250984853Y-73531857D03*
D19*
X241584773Y-75492539D03*
D18*
X238425278Y-80027761D03*
%TD*%
D25*
%TO.C,SW3*%
X74004325Y-60894136D03*
D24*
X72494914Y-59041893D03*
D25*
X63605495Y-55410914D03*
D24*
X58450091Y-57404017D03*
%TD*%
D12*
%TO.C,SW23*%
X216071320Y-85897914D03*
D13*
X213698864Y-85614047D03*
X202458099Y-94192211D03*
D12*
X204782062Y-89177248D03*
%TD*%
D17*
%TO.C,SW13*%
X124645784Y-91488694D03*
D16*
X125810624Y-93574904D03*
D17*
X111098747Y-87436843D03*
D16*
X116521928Y-86369246D03*
%TD*%
D26*
%TO.C,SW34*%
X149512000Y-74440000D03*
X156812000Y-74440000D03*
X156812000Y-72230000D03*
X149512000Y-72230000D03*
D27*
X150912000Y-75090000D03*
X153912000Y-75090000D03*
X155412000Y-75090000D03*
%TD*%
M02*
