%TF.GenerationSoftware,KiCad,Pcbnew,(6.0.4)*%
%TF.CreationDate,2022-09-06T22:19:28+02:00*%
%TF.ProjectId,Asfoora,4173666f-6f72-4612-9e6b-696361645f70,rev?*%
%TF.SameCoordinates,Original*%
%TF.FileFunction,Soldermask,Top*%
%TF.FilePolarity,Negative*%
%FSLAX46Y46*%
G04 Gerber Fmt 4.6, Leading zero omitted, Abs format (unit mm)*
G04 Created by KiCad (PCBNEW (6.0.4)) date 2022-09-06 22:19:28*
%MOMM*%
%LPD*%
G01*
G04 APERTURE LIST*
G04 Aperture macros list*
%AMRoundRect*
0 Rectangle with rounded corners*
0 $1 Rounding radius*
0 $2 $3 $4 $5 $6 $7 $8 $9 X,Y pos of 4 corners*
0 Add a 4 corners polygon primitive as box body*
4,1,4,$2,$3,$4,$5,$6,$7,$8,$9,$2,$3,0*
0 Add four circle primitives for the rounded corners*
1,1,$1+$1,$2,$3*
1,1,$1+$1,$4,$5*
1,1,$1+$1,$6,$7*
1,1,$1+$1,$8,$9*
0 Add four rect primitives between the rounded corners*
20,1,$1+$1,$2,$3,$4,$5,0*
20,1,$1+$1,$4,$5,$6,$7,0*
20,1,$1+$1,$6,$7,$8,$9,0*
20,1,$1+$1,$8,$9,$2,$3,0*%
%AMHorizOval*
0 Thick line with rounded ends*
0 $1 width*
0 $2 $3 position (X,Y) of the first rounded end (center of the circle)*
0 $4 $5 position (X,Y) of the second rounded end (center of the circle)*
0 Add line between two ends*
20,1,$1,$2,$3,$4,$5,0*
0 Add two circle primitives to create the rounded ends*
1,1,$1,$2,$3*
1,1,$1,$4,$5*%
%AMRotRect*
0 Rectangle, with rotation*
0 The origin of the aperture is its center*
0 $1 length*
0 $2 width*
0 $3 Rotation angle, in degrees counterclockwise*
0 Add horizontal line*
21,1,$1,$2,0,0,$3*%
G04 Aperture macros list end*
%ADD10HorizOval,2.032000X-1.330586X-0.095378X1.330586X0.095378X0*%
%ADD11C,2.032000*%
%ADD12HorizOval,2.032000X1.023398X0.855694X-1.023398X-0.855694X0*%
%ADD13RoundRect,0.189673X-3.285656X-1.532059X3.427761X1.180338X3.285656X1.532059X-3.427761X-1.180338X0*%
%ADD14HorizOval,2.032000X0.323987X0.822489X-0.323987X-0.822489X0*%
%ADD15HorizOval,2.032000X-0.804406X0.366589X0.804406X-0.366589X0*%
%ADD16HorizOval,1.701800X0.463592X0.187303X-0.463592X-0.187303X0*%
%ADD17C,3.000000*%
%ADD18C,3.987800*%
%ADD19HorizOval,2.032000X-1.120053X0.724595X1.120053X-0.724595X0*%
%ADD20HorizOval,2.032000X1.332292X0.067491X-1.332292X-0.067491X0*%
%ADD21HorizOval,2.032000X-0.421808X0.776874X0.421808X-0.776874X0*%
%ADD22HorizOval,2.032000X0.753734X0.461889X-0.753734X-0.461889X0*%
%ADD23RoundRect,0.189673X-3.546058X0.753800X3.447877X-1.120219X3.546058X-0.753800X-3.447877X1.120219X0*%
%ADD24HorizOval,1.701800X0.482963X-0.129410X-0.482963X0.129410X0*%
%ADD25HorizOval,1.701800X0.445503X0.226995X-0.445503X-0.226995X0*%
%ADD26RoundRect,0.189673X-3.139626X-1.812593X3.311844X1.474595X3.139626X1.812593X-3.311844X-1.474595X0*%
%ADD27HorizOval,2.032000X0.251070X0.847597X-0.251070X-0.847597X0*%
%ADD28HorizOval,2.032000X-0.833295X0.295085X0.833295X-0.295085X0*%
%ADD29HorizOval,2.032000X-1.317210X-0.210983X1.317210X0.210983X0*%
%ADD30HorizOval,2.032000X0.944925X0.941633X-0.944925X-0.941633X0*%
%ADD31R,1.200000X0.900000*%
%ADD32RoundRect,0.250000X0.350000X0.450000X-0.350000X0.450000X-0.350000X-0.450000X0.350000X-0.450000X0*%
%ADD33C,4.500000*%
%ADD34HorizOval,1.701800X0.445503X-0.226995X-0.445503X0.226995X0*%
%ADD35HorizOval,2.032000X-0.251070X0.847597X0.251070X-0.847597X0*%
%ADD36RoundRect,0.189673X-3.311844X1.474595X3.139626X-1.812593X3.311844X-1.474595X-3.139626X1.812593X0*%
%ADD37HorizOval,2.032000X0.833295X0.295085X-0.833295X-0.295085X0*%
%ADD38HorizOval,2.032000X-0.944925X0.941633X0.944925X-0.941633X0*%
%ADD39HorizOval,2.032000X-1.317210X0.210983X1.317210X-0.210983X0*%
%ADD40R,0.280000X1.250000*%
%ADD41R,1.800000X2.000000*%
%ADD42C,2.000000*%
%ADD43RotRect,3.200000X2.000000X27.000000*%
%ADD44RoundRect,0.250000X-0.350000X-0.450000X0.350000X-0.450000X0.350000X0.450000X-0.350000X0.450000X0*%
%ADD45HorizOval,2.032000X-1.332292X0.067491X1.332292X-0.067491X0*%
%ADD46HorizOval,2.032000X1.120053X0.724595X-1.120053X-0.724595X0*%
%ADD47HorizOval,2.032000X-0.753734X0.461889X0.753734X-0.461889X0*%
%ADD48HorizOval,2.032000X0.421808X0.776874X-0.421808X-0.776874X0*%
%ADD49RoundRect,0.189673X-3.447877X-1.120219X3.546058X0.753800X3.447877X1.120219X-3.546058X-0.753800X0*%
%ADD50HorizOval,1.701800X0.482963X0.129410X-0.482963X-0.129410X0*%
%ADD51HorizOval,1.701800X0.463592X-0.187303X-0.463592X0.187303X0*%
%ADD52HorizOval,2.032000X-0.323987X0.822489X0.323987X-0.822489X0*%
%ADD53RoundRect,0.189673X-3.427761X1.180338X3.285656X-1.532059X3.427761X-1.180338X-3.285656X1.532059X0*%
%ADD54HorizOval,2.032000X0.804406X0.366589X-0.804406X-0.366589X0*%
%ADD55HorizOval,2.032000X-1.330586X0.095378X1.330586X-0.095378X0*%
%ADD56HorizOval,2.032000X-1.023398X0.855694X1.023398X-0.855694X0*%
%ADD57RotRect,3.200000X2.000000X153.000000*%
%ADD58RoundRect,0.375000X-0.375000X-0.750000X0.375000X-0.750000X0.375000X0.750000X-0.375000X0.750000X0*%
%ADD59C,0.900000*%
G04 APERTURE END LIST*
D10*
%TO.C,SW30*%
X241345225Y-67308711D03*
D11*
X242660904Y-67214023D03*
D12*
X243673101Y-66368189D03*
D11*
X244934796Y-62671434D03*
X237869655Y-65525936D03*
D13*
X241582774Y-64532483D03*
D14*
X237549837Y-66349115D03*
D15*
X245736682Y-63041415D03*
D16*
X235738150Y-63646938D03*
X245159822Y-59844608D03*
D17*
X240901773Y-56086014D03*
X234410032Y-60139733D03*
X243680873Y-56397637D03*
D18*
X240450725Y-61743638D03*
D17*
X235965657Y-60819813D03*
X238221816Y-56226894D03*
%TD*%
D11*
%TO.C,SW11*%
X40725364Y-70201877D03*
D19*
X39617631Y-69485704D03*
D20*
X42042776Y-70135519D03*
D21*
X45692928Y-68720533D03*
D22*
X37163998Y-66435214D03*
D23*
X41478121Y-67411469D03*
D11*
X45275173Y-67942467D03*
X37914818Y-65970266D03*
D17*
X43792369Y-58755656D03*
D24*
X47156113Y-65820287D03*
X37343332Y-63186859D03*
D17*
X39226433Y-61065934D03*
X48049411Y-62177359D03*
X46017462Y-60255983D03*
D18*
X42252396Y-64502915D03*
D17*
X38393338Y-59586599D03*
%TD*%
%TO.C,SW24*%
X213955619Y-109449027D03*
X219408783Y-109143331D03*
X212108344Y-114221105D03*
D25*
X221182528Y-112448286D03*
D18*
X216656862Y-114750516D03*
D17*
X216613100Y-109075109D03*
X210499366Y-113679194D03*
D25*
X212128104Y-117057300D03*
D11*
X214415263Y-118743376D03*
D26*
X218027667Y-117430084D03*
D27*
X214168407Y-119591296D03*
D11*
X221204733Y-115283968D03*
D28*
X222035814Y-115582652D03*
D11*
X219335406Y-120007454D03*
D29*
X218032986Y-120216452D03*
D30*
X220270032Y-119076620D03*
%TD*%
D31*
%TO.C,D27*%
X170180000Y-103760000D03*
X170180000Y-107060000D03*
%TD*%
D32*
%TO.C,R1*%
X151892000Y-108204000D03*
X149892000Y-108204000D03*
%TD*%
D31*
%TO.C,D16*%
X136144000Y-113412000D03*
X136144000Y-116712000D03*
%TD*%
D17*
%TO.C,SW20*%
X201340431Y-121933210D03*
D25*
X196855435Y-129915401D03*
D18*
X201384193Y-127608617D03*
D17*
X196835675Y-127079206D03*
D25*
X205909859Y-125306387D03*
D17*
X204136114Y-122001432D03*
X195226697Y-126537295D03*
X198682950Y-122307128D03*
D28*
X206763145Y-128440753D03*
D11*
X199142594Y-131601477D03*
D27*
X198895738Y-132449397D03*
D11*
X205932064Y-128142069D03*
D26*
X202754998Y-130288185D03*
D29*
X202760317Y-133074553D03*
D30*
X204997363Y-131934721D03*
D11*
X204062737Y-132865555D03*
%TD*%
D31*
%TO.C,D7*%
X133858000Y-96648000D03*
X133858000Y-99948000D03*
%TD*%
%TO.C,D2*%
X133858000Y-85980000D03*
X133858000Y-89280000D03*
%TD*%
D33*
%TO.C,*%
X189992000Y-71628000D03*
%TD*%
D31*
%TO.C,D29*%
X164084000Y-98172000D03*
X164084000Y-101472000D03*
%TD*%
D29*
%TO.C,SW22*%
X204651657Y-83528730D03*
D11*
X205954077Y-83319732D03*
D30*
X206888703Y-82388898D03*
D27*
X200787078Y-82903574D03*
D26*
X204646338Y-80742362D03*
D11*
X201033934Y-82055654D03*
D28*
X208654485Y-78894930D03*
D11*
X207823404Y-78596246D03*
D25*
X207801199Y-75760564D03*
X198746775Y-80369578D03*
D17*
X198727015Y-77533383D03*
X200574290Y-72761305D03*
D18*
X203275533Y-78062794D03*
D17*
X197118037Y-76991472D03*
X203231771Y-72387387D03*
X206027454Y-72455609D03*
%TD*%
D31*
%TO.C,D21*%
X168402000Y-86488000D03*
X168402000Y-89788000D03*
%TD*%
%TO.C,D20*%
X176530000Y-98172000D03*
X176530000Y-101472000D03*
%TD*%
D34*
%TO.C,SW5*%
X91372055Y-46165480D03*
D18*
X95900221Y-48473429D03*
D17*
X93147652Y-42862203D03*
D34*
X100422883Y-50781553D03*
D17*
X100465998Y-45102104D03*
X98601464Y-43171940D03*
X93654971Y-44482421D03*
X102054067Y-47403959D03*
D11*
X98141820Y-52466289D03*
X91352350Y-49006881D03*
D35*
X98388677Y-53314209D03*
D36*
X94538144Y-51157443D03*
D37*
X90521269Y-49305565D03*
D38*
X92287052Y-52799533D03*
D11*
X93221677Y-53730367D03*
D39*
X94524097Y-53939365D03*
%TD*%
D31*
%TO.C,D23*%
X172466000Y-98172000D03*
X172466000Y-101472000D03*
%TD*%
D17*
%TO.C,SW8*%
X115814115Y-57766725D03*
D34*
X115771000Y-63446174D03*
D17*
X108495769Y-55526824D03*
D18*
X111248338Y-61138050D03*
D17*
X113949581Y-55836561D03*
D34*
X106720172Y-58830101D03*
D17*
X109003088Y-57147042D03*
X117402184Y-60068580D03*
D35*
X113736794Y-65978830D03*
D11*
X113489937Y-65130910D03*
X106700467Y-61671502D03*
D37*
X105869386Y-61970186D03*
D36*
X109886261Y-63822064D03*
D11*
X108569794Y-66394988D03*
D39*
X109872214Y-66603986D03*
D38*
X107635169Y-65464154D03*
%TD*%
D40*
%TO.C,J1*%
X150158000Y-111550000D03*
X150658000Y-111550000D03*
X151158000Y-111550000D03*
X151658000Y-111550000D03*
X152158000Y-111550000D03*
X152658000Y-111550000D03*
X153158000Y-111550000D03*
X153658000Y-111550000D03*
X154158000Y-111550000D03*
X154658000Y-111550000D03*
X155158000Y-111550000D03*
X155658000Y-111550000D03*
D41*
X157458000Y-114274000D03*
X148358000Y-114274000D03*
%TD*%
D42*
%TO.C,SW33*%
X140970000Y-80212000D03*
X140970000Y-73712000D03*
%TD*%
D31*
%TO.C,D13*%
X141478000Y-96648000D03*
X141478000Y-99948000D03*
%TD*%
D42*
%TO.C,SW16*%
X176530475Y-115367412D03*
X178800427Y-119822445D03*
X177665451Y-117594929D03*
D43*
X186890347Y-119179637D03*
X181805653Y-109200363D03*
D42*
X191720022Y-113239583D03*
X189450069Y-108784550D03*
%TD*%
D17*
%TO.C,SW19*%
X110667704Y-126543527D03*
D34*
X99985692Y-125305048D03*
D17*
X107215101Y-122311508D03*
X102268608Y-123621989D03*
D18*
X104513858Y-127612997D03*
D17*
X109079635Y-124241672D03*
X101761289Y-122001771D03*
D34*
X109036520Y-129921121D03*
D35*
X107002314Y-132453777D03*
D36*
X103151781Y-130297011D03*
D11*
X99965987Y-128146449D03*
D37*
X99134906Y-128445133D03*
D11*
X106755457Y-131605857D03*
D38*
X100900689Y-131939101D03*
D11*
X101835314Y-132869935D03*
D39*
X103137734Y-133078933D03*
%TD*%
D33*
%TO.C,*%
X109598000Y-102690000D03*
%TD*%
D31*
%TO.C,D3*%
X131826000Y-91314000D03*
X131826000Y-94614000D03*
%TD*%
D11*
%TO.C,SW25*%
X212465413Y-53805077D03*
D29*
X211162993Y-54014075D03*
D30*
X213400039Y-52874243D03*
D26*
X211157674Y-51227707D03*
D11*
X207545270Y-52540999D03*
D27*
X207298414Y-53388919D03*
D28*
X215165821Y-49380275D03*
D11*
X214334740Y-49081591D03*
D17*
X207085626Y-43246650D03*
X205238351Y-48018728D03*
D25*
X214312535Y-46245909D03*
D17*
X212538790Y-42940954D03*
D18*
X209786869Y-48548139D03*
D25*
X205258111Y-50854923D03*
D17*
X203629373Y-47476817D03*
X209743107Y-42872732D03*
%TD*%
D18*
%TO.C,SW6*%
X87274402Y-65402553D03*
D17*
X91840179Y-62031228D03*
D34*
X82746236Y-63094604D03*
D17*
X93428248Y-64333083D03*
X89975645Y-60101064D03*
D34*
X91797064Y-67710677D03*
D17*
X84521833Y-59791327D03*
X85029152Y-61411545D03*
D11*
X89516001Y-69395413D03*
D35*
X89762858Y-70243333D03*
D36*
X85912325Y-68086567D03*
D11*
X82726531Y-65936005D03*
D37*
X81895450Y-66234689D03*
D11*
X84595858Y-70659491D03*
D38*
X83661233Y-69728657D03*
D39*
X85898278Y-70868489D03*
%TD*%
D17*
%TO.C,SW10*%
X91244130Y-89385072D03*
D34*
X98519361Y-97304422D03*
D17*
X91751449Y-91005290D03*
X98562476Y-91624973D03*
D34*
X89468533Y-92688349D03*
D18*
X93996699Y-94996298D03*
D17*
X96697942Y-89694809D03*
X100150545Y-93926828D03*
D36*
X92634622Y-97680312D03*
D11*
X89448828Y-95529750D03*
X96238298Y-98989158D03*
D37*
X88617747Y-95828434D03*
D35*
X96485155Y-99837078D03*
D38*
X90383530Y-99322402D03*
D11*
X91318155Y-100253236D03*
D39*
X92620575Y-100462234D03*
%TD*%
D31*
%TO.C,D24*%
X174498000Y-103760000D03*
X174498000Y-107060000D03*
%TD*%
D44*
%TO.C,R2*%
X154464000Y-108204000D03*
X156464000Y-108204000D03*
%TD*%
D31*
%TO.C,D9*%
X139700000Y-91314000D03*
X139700000Y-94614000D03*
%TD*%
%TO.C,D18*%
X172720000Y-86488000D03*
X172720000Y-89788000D03*
%TD*%
D11*
%TO.C,SW32*%
X264962161Y-70278877D03*
D45*
X263644749Y-70212518D03*
D46*
X266069894Y-69562703D03*
D11*
X267772706Y-66047265D03*
D47*
X268523526Y-66512213D03*
D11*
X260412352Y-68019467D03*
D48*
X259994597Y-68797533D03*
D49*
X264218864Y-67485934D03*
D17*
X264572306Y-59019430D03*
X267292713Y-59667417D03*
D50*
X258525727Y-65894709D03*
X268340558Y-63268933D03*
D17*
X261895155Y-58832656D03*
X259096077Y-63116383D03*
X257634928Y-62251789D03*
D18*
X263435129Y-64579914D03*
%TD*%
D11*
%TO.C,SW27*%
X229717052Y-87663325D03*
D29*
X228414632Y-87872323D03*
D30*
X230651678Y-86732491D03*
D11*
X231586379Y-82939839D03*
X224796909Y-86399247D03*
D27*
X224550053Y-87247167D03*
D28*
X232417460Y-83238523D03*
D26*
X228409313Y-85085955D03*
D25*
X231564174Y-80104157D03*
D17*
X229790429Y-76799202D03*
D18*
X227038508Y-82406387D03*
D17*
X220881012Y-81335065D03*
X226994746Y-76730980D03*
X224337265Y-77104898D03*
X222489990Y-81876976D03*
D25*
X222509750Y-84713171D03*
%TD*%
D31*
%TO.C,D5*%
X138176000Y-85980000D03*
X138176000Y-89280000D03*
%TD*%
%TO.C,D6*%
X135890000Y-91314000D03*
X135890000Y-94614000D03*
%TD*%
D17*
%TO.C,SW14*%
X64156407Y-77682913D03*
D51*
X53407103Y-77380145D03*
D17*
X60348098Y-73767911D03*
X62373761Y-75528226D03*
D18*
X58119189Y-79284655D03*
D17*
X55534643Y-75504521D03*
D51*
X62825807Y-81189820D03*
D17*
X54888044Y-73934684D03*
D52*
X61020077Y-83890132D03*
D53*
X56996222Y-82077169D03*
D11*
X53635117Y-80212451D03*
X60700258Y-83066954D03*
D54*
X52833231Y-80582432D03*
D55*
X57224689Y-84849728D03*
D11*
X55909010Y-84755040D03*
D56*
X54896813Y-83909206D03*
%TD*%
D18*
%TO.C,SW2*%
X72354239Y-44051668D03*
D17*
X74583148Y-38534924D03*
X78391457Y-42449926D03*
D51*
X77060857Y-45956833D03*
D17*
X69123094Y-38701697D03*
D51*
X67642153Y-42147158D03*
D17*
X69769693Y-40271534D03*
X76608811Y-40295239D03*
D52*
X75255127Y-48657145D03*
D11*
X67870167Y-44979464D03*
D54*
X67068281Y-45349445D03*
D11*
X74935308Y-47833967D03*
D53*
X71231272Y-46844182D03*
D11*
X70144060Y-49522053D03*
D56*
X69131863Y-48676219D03*
D55*
X71459739Y-49616741D03*
%TD*%
D18*
%TO.C,SW15*%
X89241189Y-114754896D03*
D34*
X84713023Y-112446947D03*
D17*
X95395035Y-113685426D03*
D34*
X93763851Y-117063020D03*
D17*
X93806966Y-111383571D03*
X91942432Y-109453407D03*
X86995939Y-110763888D03*
X86488620Y-109143670D03*
D11*
X84693318Y-115288348D03*
X91482788Y-118747756D03*
D36*
X87879112Y-117438910D03*
D37*
X83862237Y-115587032D03*
D35*
X91729645Y-119595676D03*
D39*
X87865065Y-120220832D03*
D11*
X86562645Y-120011834D03*
D38*
X85628020Y-119081000D03*
%TD*%
D31*
%TO.C,D12*%
X134112000Y-107824000D03*
X134112000Y-111124000D03*
%TD*%
%TO.C,D30*%
X165862000Y-103760000D03*
X165862000Y-107060000D03*
%TD*%
%TO.C,D4*%
X130048000Y-96648000D03*
X130048000Y-99948000D03*
%TD*%
D42*
%TO.C,SW1*%
X126993664Y-119808888D03*
X129263616Y-115353855D03*
X128128640Y-117581372D03*
D57*
X118903744Y-119166080D03*
X123988438Y-109186806D03*
D42*
X116344022Y-108770993D03*
X114074069Y-113226026D03*
%TD*%
D31*
%TO.C,D8*%
X131826000Y-102236000D03*
X131826000Y-105536000D03*
%TD*%
%TO.C,D1*%
X136144000Y-80646000D03*
X136144000Y-83946000D03*
%TD*%
D17*
%TO.C,SW18*%
X191911240Y-87545990D03*
D18*
X189159319Y-93153175D03*
D17*
X186458076Y-87851686D03*
D25*
X184630561Y-95459959D03*
X193684985Y-90850945D03*
D17*
X183001823Y-92081853D03*
X184610801Y-92623764D03*
X189115557Y-87477768D03*
D11*
X193707190Y-93686627D03*
D27*
X186670864Y-97993955D03*
D26*
X190530124Y-95832743D03*
D28*
X194538271Y-93985311D03*
D11*
X186917720Y-97146035D03*
D29*
X190535443Y-98619111D03*
D11*
X191837863Y-98410113D03*
D30*
X192772489Y-97479279D03*
%TD*%
D33*
%TO.C,*%
X115318960Y-71000607D03*
%TD*%
D31*
%TO.C,D14*%
X139700000Y-102236000D03*
X139700000Y-105536000D03*
%TD*%
D20*
%TO.C,SW4*%
X46952823Y-51765130D03*
D19*
X44527678Y-51115315D03*
D11*
X45635411Y-51831488D03*
X42824865Y-47599877D03*
D22*
X42074045Y-48064825D03*
D23*
X46388168Y-49041080D03*
D11*
X50185220Y-49572078D03*
D21*
X50602975Y-50350144D03*
D17*
X50927509Y-41885594D03*
D24*
X52066160Y-47449898D03*
D18*
X47162443Y-46132526D03*
D17*
X52959458Y-43806970D03*
X48702416Y-40385267D03*
X44136480Y-42695545D03*
X43303385Y-41216210D03*
D24*
X42253379Y-44816470D03*
%TD*%
D17*
%TO.C,SW7*%
X75896014Y-76720450D03*
D34*
X74120417Y-80023727D03*
D17*
X84802429Y-81262206D03*
X81349826Y-77030187D03*
D18*
X78648583Y-82331676D03*
D17*
X83214360Y-78960351D03*
D34*
X83171245Y-84639800D03*
D17*
X76403333Y-78340668D03*
D35*
X81137039Y-87172456D03*
D11*
X80890182Y-86324536D03*
D36*
X77286506Y-85015690D03*
D11*
X74100712Y-82865128D03*
D37*
X73269631Y-83163812D03*
D38*
X75035414Y-86657780D03*
D11*
X75970039Y-87588614D03*
D39*
X77272459Y-87797612D03*
%TD*%
D31*
%TO.C,D19*%
X174752000Y-92330000D03*
X174752000Y-95630000D03*
%TD*%
D11*
%TO.C,SW29*%
X235543379Y-49597529D03*
D12*
X236555576Y-48751695D03*
D10*
X234227700Y-49692217D03*
D11*
X230752130Y-47909442D03*
D13*
X234465249Y-46915989D03*
D15*
X238619157Y-45424921D03*
D14*
X230432312Y-48732621D03*
D11*
X237817271Y-45054940D03*
D17*
X227292507Y-42523239D03*
X236563348Y-38781143D03*
D18*
X233333200Y-44127144D03*
D17*
X233784248Y-38469520D03*
X231104291Y-38610400D03*
D16*
X238042297Y-42228114D03*
D17*
X228848132Y-43203319D03*
D16*
X228620625Y-46030444D03*
%TD*%
D33*
%TO.C,*%
X247896604Y-49934506D03*
%TD*%
D31*
%TO.C,D15*%
X137668000Y-107824000D03*
X137668000Y-111124000D03*
%TD*%
D17*
%TO.C,SW9*%
X107188295Y-74695849D03*
D34*
X98094352Y-75759225D03*
D17*
X105323761Y-72765685D03*
D18*
X102622518Y-78067174D03*
D17*
X100377268Y-74076166D03*
X108776364Y-76997704D03*
D34*
X107145180Y-80375298D03*
D17*
X99869949Y-72455948D03*
D37*
X97243566Y-78899310D03*
D35*
X105110974Y-82907954D03*
D36*
X101260441Y-80751188D03*
D11*
X104864117Y-82060034D03*
X98074647Y-78600626D03*
D39*
X101246394Y-83533110D03*
D38*
X99009349Y-82393278D03*
D11*
X99943974Y-83324112D03*
%TD*%
D33*
%TO.C,*%
X200152000Y-108966000D03*
%TD*%
D17*
%TO.C,SW12*%
X122611983Y-70617205D03*
X129930329Y-72857106D03*
X123119302Y-72237423D03*
D18*
X125364552Y-76228431D03*
D34*
X129887214Y-78536555D03*
D17*
X128065795Y-70926942D03*
X131518398Y-75158961D03*
D34*
X120836386Y-73920482D03*
D11*
X120816681Y-76761883D03*
D36*
X124002475Y-78912445D03*
D11*
X127606151Y-80221291D03*
D35*
X127853008Y-81069211D03*
D37*
X119985600Y-77060567D03*
D11*
X122686008Y-81485369D03*
D39*
X123988428Y-81694367D03*
D38*
X121751383Y-80554535D03*
%TD*%
D31*
%TO.C,D17*%
X170180000Y-80392000D03*
X170180000Y-83692000D03*
%TD*%
%TO.C,D10*%
X137668000Y-96648000D03*
X137668000Y-99948000D03*
%TD*%
%TO.C,D31*%
X167894000Y-109348000D03*
X167894000Y-112648000D03*
%TD*%
%TO.C,D11*%
X135890000Y-102236000D03*
X135890000Y-105536000D03*
%TD*%
%TO.C,D32*%
X170180000Y-114936000D03*
X170180000Y-118236000D03*
%TD*%
%TO.C,D22*%
X170434000Y-92330000D03*
X170434000Y-95630000D03*
%TD*%
%TO.C,D26*%
X168148000Y-98172000D03*
X168148000Y-101472000D03*
%TD*%
D18*
%TO.C,SW17*%
X180533499Y-76224051D03*
D17*
X177832256Y-70922562D03*
X174376003Y-75152729D03*
X183285420Y-70616866D03*
X175984981Y-75694640D03*
D25*
X176004741Y-78530835D03*
D17*
X180489737Y-70548644D03*
D25*
X185059165Y-73921821D03*
D11*
X178291900Y-80216911D03*
X185081370Y-76757503D03*
D27*
X178045044Y-81064831D03*
D26*
X181904304Y-78903619D03*
D28*
X185912451Y-77056187D03*
D30*
X184146669Y-80550155D03*
D29*
X181909623Y-81689987D03*
D11*
X183212043Y-81480989D03*
%TD*%
%TO.C,SW21*%
X197328257Y-66390608D03*
D30*
X198262883Y-65459774D03*
D29*
X196025837Y-66599606D03*
D26*
X196020518Y-63813238D03*
D28*
X200028665Y-61965806D03*
D27*
X192161258Y-65974450D03*
D11*
X199197584Y-61667122D03*
X192408114Y-65126530D03*
D18*
X194649713Y-61133670D03*
D17*
X190101195Y-60604259D03*
D25*
X190120955Y-63440454D03*
D17*
X188492217Y-60062348D03*
D25*
X199175379Y-58831440D03*
D17*
X191948470Y-55832181D03*
X194605951Y-55458263D03*
X197401634Y-55526485D03*
%TD*%
D31*
%TO.C,D25*%
X166370000Y-92330000D03*
X166370000Y-95630000D03*
%TD*%
D45*
%TO.C,SW31*%
X258720926Y-51856642D03*
D11*
X260038338Y-51923001D03*
D46*
X261146071Y-51206827D03*
D48*
X255070774Y-50441657D03*
D49*
X259295041Y-49130058D03*
D47*
X263599703Y-48156337D03*
D11*
X255488529Y-49663591D03*
X262848883Y-47691389D03*
D50*
X263416735Y-44913057D03*
D17*
X262368890Y-41311541D03*
X254172254Y-44760507D03*
D18*
X258511306Y-46224038D03*
D17*
X259648483Y-40663554D03*
X252711105Y-43895913D03*
X256971332Y-40476780D03*
D50*
X253601904Y-47538833D03*
%TD*%
D33*
%TO.C,*%
X57567383Y-50087604D03*
%TD*%
D30*
%TO.C,SW26*%
X222025858Y-69803367D03*
D11*
X221091232Y-70734201D03*
D29*
X219788812Y-70943199D03*
D28*
X223791640Y-66309399D03*
D27*
X215924233Y-70318043D03*
D11*
X216171089Y-69470123D03*
D26*
X219783493Y-68156831D03*
D11*
X222960559Y-66010715D03*
D17*
X218368926Y-59801856D03*
D25*
X213883930Y-67784047D03*
D17*
X213864170Y-64947852D03*
D18*
X218412688Y-65477263D03*
D17*
X215711445Y-60175774D03*
D25*
X222938354Y-63175033D03*
D17*
X212255192Y-64405941D03*
X221164609Y-59870078D03*
%TD*%
D11*
%TO.C,SW28*%
X249778429Y-84830516D03*
D12*
X250790626Y-83984682D03*
D10*
X248462750Y-84925204D03*
D13*
X248700299Y-82148976D03*
D15*
X252854207Y-80657908D03*
D14*
X244667362Y-83965608D03*
D11*
X244987180Y-83142429D03*
X252052321Y-80287927D03*
D17*
X248019298Y-73702507D03*
X243083182Y-78436306D03*
X241527557Y-77756226D03*
D16*
X242855675Y-81263431D03*
X252277347Y-77461101D03*
D17*
X245339341Y-73843387D03*
D18*
X247568250Y-79360131D03*
D17*
X250798398Y-74014130D03*
%TD*%
D51*
%TO.C,SW3*%
X69943622Y-63573733D03*
D17*
X71274222Y-60066826D03*
X67465913Y-56151824D03*
X69491576Y-57912139D03*
D51*
X60524918Y-59764058D03*
D17*
X62652458Y-57888434D03*
D18*
X65237004Y-61668568D03*
D17*
X62005859Y-56318597D03*
D11*
X60752932Y-62596364D03*
D53*
X64114037Y-64461082D03*
D54*
X59951046Y-62966345D03*
D11*
X67818073Y-65450867D03*
D52*
X68137892Y-66274045D03*
D11*
X63026825Y-67138953D03*
D56*
X62014628Y-66293119D03*
D55*
X64342504Y-67233641D03*
%TD*%
D58*
%TO.C,PAD1*%
X169598000Y-72940000D03*
X167598000Y-72940000D03*
X165598000Y-72940000D03*
%TD*%
D30*
%TO.C,SW23*%
X215514522Y-99318022D03*
D11*
X214579896Y-100248856D03*
D29*
X213277476Y-100457854D03*
D27*
X209412897Y-99832698D03*
D26*
X213272157Y-97671486D03*
D11*
X216449223Y-95525370D03*
D28*
X217280304Y-95824054D03*
D11*
X209659753Y-98984778D03*
D17*
X211857590Y-89316511D03*
D18*
X211901352Y-94991918D03*
D25*
X207372594Y-97298702D03*
X216427018Y-92689688D03*
D17*
X209200109Y-89690429D03*
X214653273Y-89384733D03*
X207352834Y-94462507D03*
X205743856Y-93920596D03*
%TD*%
%TO.C,SW13*%
X119439975Y-87856066D03*
D34*
X121261394Y-95465679D03*
D17*
X122892578Y-92088085D03*
X121304509Y-89786230D03*
X114493482Y-89166547D03*
D34*
X112210566Y-90849606D03*
D18*
X116738732Y-93157555D03*
D17*
X113986163Y-87546329D03*
D36*
X115376655Y-95841569D03*
D11*
X118980331Y-97150415D03*
D37*
X111359780Y-93989691D03*
D11*
X112190861Y-93691007D03*
D35*
X119227188Y-97998335D03*
D38*
X113125563Y-97483659D03*
D11*
X114060188Y-98414493D03*
D39*
X115362608Y-98623491D03*
%TD*%
D31*
%TO.C,D28*%
X172466000Y-109348000D03*
X172466000Y-112648000D03*
%TD*%
D59*
%TO.C,SW34*%
X151662000Y-73330000D03*
X154662000Y-73330000D03*
%TD*%
M02*
