%TF.GenerationSoftware,KiCad,Pcbnew,(6.0.4)*%
%TF.CreationDate,2022-09-03T11:35:08+02:00*%
%TF.ProjectId,Asfoora,4173666f-6f72-4612-9e6b-696361645f70,rev?*%
%TF.SameCoordinates,Original*%
%TF.FileFunction,Soldermask,Bot*%
%TF.FilePolarity,Negative*%
%FSLAX46Y46*%
G04 Gerber Fmt 4.6, Leading zero omitted, Abs format (unit mm)*
G04 Created by KiCad (PCBNEW (6.0.4)) date 2022-09-03 11:35:08*
%MOMM*%
%LPD*%
G01*
G04 APERTURE LIST*
G04 Aperture macros list*
%AMRoundRect*
0 Rectangle with rounded corners*
0 $1 Rounding radius*
0 $2 $3 $4 $5 $6 $7 $8 $9 X,Y pos of 4 corners*
0 Add a 4 corners polygon primitive as box body*
4,1,4,$2,$3,$4,$5,$6,$7,$8,$9,$2,$3,0*
0 Add four circle primitives for the rounded corners*
1,1,$1+$1,$2,$3*
1,1,$1+$1,$4,$5*
1,1,$1+$1,$6,$7*
1,1,$1+$1,$8,$9*
0 Add four rect primitives between the rounded corners*
20,1,$1+$1,$2,$3,$4,$5,0*
20,1,$1+$1,$4,$5,$6,$7,0*
20,1,$1+$1,$6,$7,$8,$9,0*
20,1,$1+$1,$8,$9,$2,$3,0*%
%AMHorizOval*
0 Thick line with rounded ends*
0 $1 width*
0 $2 $3 position (X,Y) of the first rounded end (center of the circle)*
0 $4 $5 position (X,Y) of the second rounded end (center of the circle)*
0 Add line between two ends*
20,1,$1,$2,$3,$4,$5,0*
0 Add two circle primitives to create the rounded ends*
1,1,$1,$2,$3*
1,1,$1,$4,$5*%
%AMRotRect*
0 Rectangle, with rotation*
0 The origin of the aperture is its center*
0 $1 length*
0 $2 width*
0 $3 Rotation angle, in degrees counterclockwise*
0 Add horizontal line*
21,1,$1,$2,0,0,$3*%
G04 Aperture macros list end*
%ADD10C,3.000000*%
%ADD11C,3.987800*%
%ADD12HorizOval,1.701800X0.492404X-0.086824X-0.492404X0.086824X0*%
%ADD13RotRect,2.550000X2.500000X350.000000*%
%ADD14C,2.032000*%
%ADD15HorizOval,2.032000X0.710609X0.525823X-0.710609X-0.525823X0*%
%ADD16RotRect,2.600000X2.600000X350.000000*%
%ADD17HorizOval,2.032000X-0.487912X0.737155X0.487912X-0.737155X0*%
%ADD18HorizOval,2.032000X1.321340X0.183351X-1.321340X-0.183351X0*%
%ADD19HorizOval,2.032000X-1.178943X0.624218X1.178943X-0.624218X0*%
%ADD20HorizOval,1.701800X0.445503X0.226995X-0.445503X-0.226995X0*%
%ADD21RotRect,2.550000X2.500000X27.000000*%
%ADD22HorizOval,2.032000X0.251070X0.847597X-0.251070X-0.847597X0*%
%ADD23HorizOval,2.032000X-0.833295X0.295085X0.833295X-0.295085X0*%
%ADD24RotRect,2.600000X2.600000X27.000000*%
%ADD25HorizOval,2.032000X-1.317210X-0.210983X1.317210X0.210983X0*%
%ADD26HorizOval,2.032000X0.944925X0.941633X-0.944925X-0.941633X0*%
%ADD27C,4.500000*%
%ADD28HorizOval,1.701800X0.463592X-0.187303X-0.463592X0.187303X0*%
%ADD29RotRect,2.600000X2.600000X338.000000*%
%ADD30RotRect,2.550000X2.500000X338.000000*%
%ADD31HorizOval,2.032000X-0.323987X0.822489X0.323987X-0.822489X0*%
%ADD32HorizOval,2.032000X0.804406X0.366589X-0.804406X-0.366589X0*%
%ADD33HorizOval,2.032000X-1.023398X0.855694X1.023398X-0.855694X0*%
%ADD34HorizOval,2.032000X-1.330586X0.095378X1.330586X-0.095378X0*%
%ADD35HorizOval,1.701800X0.445503X-0.226995X-0.445503X0.226995X0*%
%ADD36HorizOval,2.032000X-0.251070X0.847597X0.251070X-0.847597X0*%
%ADD37RotRect,2.600000X2.600000X333.000000*%
%ADD38HorizOval,2.032000X0.833295X0.295085X-0.833295X-0.295085X0*%
%ADD39RotRect,2.550000X2.500000X333.000000*%
%ADD40HorizOval,2.032000X-1.317210X0.210983X1.317210X-0.210983X0*%
%ADD41HorizOval,2.032000X-0.944925X0.941633X0.944925X-0.941633X0*%
%ADD42C,2.000000*%
%ADD43RotRect,3.200000X2.000000X27.000000*%
%ADD44HorizOval,1.701800X0.478152X0.146186X-0.478152X-0.146186X0*%
%ADD45HorizOval,2.032000X-0.769394X0.435302X0.769394X-0.435302X0*%
%ADD46HorizOval,2.032000X0.394439X0.791122X-0.394439X-0.791122X0*%
%ADD47RotRect,2.550000X2.500000X17.000000*%
%ADD48RotRect,2.600000X2.600000X17.000000*%
%ADD49HorizOval,2.032000X1.094083X0.763243X-1.094083X-0.763243X0*%
%ADD50HorizOval,2.032000X-1.333835X0.020954X1.333835X-0.020954X0*%
%ADD51HorizOval,1.701800X0.463592X0.187303X-0.463592X-0.187303X0*%
%ADD52RotRect,2.600000X2.600000X22.000000*%
%ADD53RotRect,2.550000X2.500000X22.000000*%
%ADD54HorizOval,2.032000X-0.804406X0.366589X0.804406X-0.366589X0*%
%ADD55HorizOval,2.032000X0.323987X0.822489X-0.323987X-0.822489X0*%
%ADD56HorizOval,2.032000X1.023398X0.855694X-1.023398X-0.855694X0*%
%ADD57HorizOval,2.032000X-1.330586X-0.095378X1.330586X0.095378X0*%
%ADD58HorizOval,1.701800X0.492404X0.086824X-0.492404X-0.086824X0*%
%ADD59RotRect,2.550000X2.500000X10.000000*%
%ADD60HorizOval,2.032000X0.487912X0.737155X-0.487912X-0.737155X0*%
%ADD61HorizOval,2.032000X-0.710609X0.525823X0.710609X-0.525823X0*%
%ADD62RotRect,2.600000X2.600000X10.000000*%
%ADD63HorizOval,2.032000X1.178943X0.624218X-1.178943X-0.624218X0*%
%ADD64HorizOval,2.032000X-1.321340X0.183351X1.321340X-0.183351X0*%
%ADD65HorizOval,1.701800X0.478152X-0.146186X-0.478152X0.146186X0*%
%ADD66RotRect,2.600000X2.600000X343.000000*%
%ADD67HorizOval,2.032000X-0.394439X0.791122X0.394439X-0.791122X0*%
%ADD68RotRect,2.550000X2.500000X343.000000*%
%ADD69HorizOval,2.032000X0.769394X0.435302X-0.769394X-0.435302X0*%
%ADD70HorizOval,2.032000X1.333835X0.020954X-1.333835X-0.020954X0*%
%ADD71HorizOval,2.032000X-1.094083X0.763243X1.094083X-0.763243X0*%
%ADD72C,1.524000*%
%ADD73RotRect,3.200000X2.000000X153.000000*%
%ADD74RoundRect,0.375000X-0.375000X-0.750000X0.375000X-0.750000X0.375000X0.750000X-0.375000X0.750000X0*%
%ADD75R,1.000000X0.800000*%
%ADD76C,0.900000*%
%ADD77R,0.700000X1.500000*%
G04 APERTURE END LIST*
D10*
%TO.C,SW11*%
X33074810Y-70323977D03*
D11*
X37347668Y-74885246D03*
D10*
X40728262Y-70326328D03*
X42919937Y-72063297D03*
X34033667Y-71725074D03*
D12*
X32342582Y-74002051D03*
X42347541Y-75770218D03*
D10*
X38380874Y-69025640D03*
D13*
X43983047Y-70896875D03*
D14*
X33154484Y-76725058D03*
X40658719Y-78048257D03*
D15*
X32447044Y-77253676D03*
D16*
X46145183Y-72631995D03*
D17*
X41142697Y-78786953D03*
D18*
X37629759Y-80514686D03*
D19*
X35157207Y-80078708D03*
D13*
X30281549Y-71063474D03*
D16*
X35155628Y-68456942D03*
D14*
X36323144Y-80695612D03*
%TD*%
D10*
%TO.C,SW24*%
X213955619Y-109449027D03*
X219408783Y-109143331D03*
X212108344Y-114221105D03*
D20*
X221182528Y-112448286D03*
D11*
X216656862Y-114750516D03*
D10*
X216613100Y-109075109D03*
X210499366Y-113679194D03*
D20*
X212128104Y-117057300D03*
D14*
X214415263Y-118743376D03*
D21*
X219555851Y-107571990D03*
D22*
X214168407Y-119591296D03*
D14*
X221204733Y-115283968D03*
D23*
X222035814Y-115582652D03*
D24*
X222326830Y-107656512D03*
D21*
X208713609Y-115950809D03*
D14*
X219335406Y-120007454D03*
D25*
X218032986Y-120216452D03*
D24*
X211037572Y-110935846D03*
D26*
X220270032Y-119076620D03*
%TD*%
D10*
%TO.C,SW20*%
X201340431Y-121933210D03*
D20*
X196855435Y-129915401D03*
D11*
X201384193Y-127608617D03*
D10*
X196835675Y-127079206D03*
D20*
X205909859Y-125306387D03*
D10*
X204136114Y-122001432D03*
X195226697Y-126537295D03*
X198682950Y-122307128D03*
D24*
X207054161Y-120514613D03*
D21*
X204283182Y-120430091D03*
D23*
X206763145Y-128440753D03*
D14*
X199142594Y-131601477D03*
D22*
X198895738Y-132449397D03*
D14*
X205932064Y-128142069D03*
D21*
X193440940Y-128808910D03*
D25*
X202760317Y-133074553D03*
D26*
X204997363Y-131934721D03*
D14*
X204062737Y-132865555D03*
D24*
X195764903Y-123793947D03*
%TD*%
D27*
%TO.C,*%
X189992000Y-71628000D03*
%TD*%
D10*
%TO.C,SW22*%
X205027454Y-70455609D03*
X202231771Y-70387387D03*
X196118037Y-74991472D03*
D11*
X202275533Y-76062794D03*
D10*
X199574290Y-70761305D03*
X197727015Y-75533383D03*
D20*
X197746775Y-78369578D03*
X206801199Y-73760564D03*
D14*
X206823404Y-76596246D03*
D21*
X205174522Y-68884268D03*
D23*
X207654485Y-76894930D03*
D14*
X200033934Y-80055654D03*
D24*
X207945501Y-68968790D03*
D22*
X199787078Y-80903574D03*
D26*
X205888703Y-80388898D03*
D14*
X204954077Y-81319732D03*
D21*
X194332280Y-77263087D03*
D25*
X203651657Y-81528730D03*
D24*
X196656243Y-72248124D03*
%TD*%
D28*
%TO.C,SW5*%
X87682200Y-44336530D03*
D11*
X92394286Y-46241040D03*
D10*
X89163141Y-40891069D03*
D28*
X97100904Y-48146205D03*
D10*
X96648858Y-42484611D03*
X94623195Y-40724296D03*
X89809740Y-42460906D03*
X98431504Y-44639298D03*
D14*
X94975355Y-50023339D03*
D29*
X101468031Y-45866134D03*
D30*
X99713895Y-43719398D03*
D14*
X87910214Y-47168836D03*
D31*
X95295174Y-50846517D03*
D32*
X87108328Y-47538817D03*
D29*
X91586667Y-39497460D03*
D30*
X86277170Y-41033655D03*
D33*
X89171910Y-50865591D03*
D14*
X90184107Y-51711425D03*
D34*
X91499786Y-51806113D03*
%TD*%
D27*
%TO.C,*%
X46348000Y-81440000D03*
%TD*%
D10*
%TO.C,SW8*%
X116814115Y-55766725D03*
D35*
X116771000Y-61446174D03*
D10*
X109495769Y-53526824D03*
D11*
X112248338Y-59138050D03*
D10*
X114949581Y-53836561D03*
D35*
X107720172Y-56830101D03*
D10*
X110003088Y-55147042D03*
X118402184Y-58068580D03*
D36*
X114736794Y-63978830D03*
D14*
X114489937Y-63130910D03*
X107700467Y-59671502D03*
D37*
X121320230Y-59555399D03*
D38*
X106869386Y-59970186D03*
D39*
X119759870Y-57263949D03*
D37*
X112031534Y-52349741D03*
D14*
X109569794Y-64394988D03*
D39*
X106608353Y-53417338D03*
D40*
X110872214Y-64603986D03*
D41*
X108635169Y-63464154D03*
%TD*%
D42*
%TO.C,SW33*%
X140970000Y-80212000D03*
X140970000Y-73712000D03*
%TD*%
%TO.C,SW16*%
X179119418Y-114910907D03*
X181389370Y-119365940D03*
X180254394Y-117138424D03*
D43*
X189479290Y-118723132D03*
X184394596Y-108743858D03*
D42*
X194308965Y-112783078D03*
X192039012Y-108328045D03*
%TD*%
D10*
%TO.C,SW30*%
X241161610Y-56365231D03*
X238513737Y-60744035D03*
D11*
X242901221Y-62055244D03*
D10*
X246585012Y-57011112D03*
X237023304Y-59930961D03*
X243843648Y-56458461D03*
D44*
X247757910Y-60573865D03*
X238040696Y-63540573D03*
D45*
X248053956Y-63808784D03*
D46*
X239609978Y-66390367D03*
D14*
X240000324Y-65598195D03*
X247287367Y-63370322D03*
D47*
X247002706Y-55489181D03*
D48*
X249716910Y-56053594D03*
D49*
X245708279Y-66943045D03*
D48*
X238029711Y-57322749D03*
D14*
X244626214Y-67697442D03*
D47*
X234870216Y-61857971D03*
D50*
X243307289Y-67677102D03*
%TD*%
D10*
%TO.C,SW19*%
X110667704Y-126543527D03*
D35*
X99985692Y-125305048D03*
D10*
X107215101Y-122311508D03*
X102268608Y-123621989D03*
D11*
X104513858Y-127612997D03*
D10*
X109079635Y-124241672D03*
X101761289Y-122001771D03*
D35*
X109036520Y-129921121D03*
D36*
X107002314Y-132453777D03*
D37*
X113585750Y-128030346D03*
D14*
X99965987Y-128146449D03*
D39*
X112025390Y-125738896D03*
D38*
X99134906Y-128445133D03*
D14*
X106755457Y-131605857D03*
D41*
X100900689Y-131939101D03*
D37*
X104297054Y-120824688D03*
D39*
X98873873Y-121892285D03*
D14*
X101835314Y-132869935D03*
D40*
X103137734Y-133078933D03*
%TD*%
D27*
%TO.C,*%
X109598000Y-102690000D03*
%TD*%
D10*
%TO.C,SW25*%
X213955162Y-40579802D03*
X207463421Y-44633521D03*
D51*
X208791539Y-48140726D03*
D11*
X213504114Y-46237426D03*
D10*
X216734262Y-40891425D03*
D51*
X218213211Y-44338396D03*
D10*
X209019046Y-45313601D03*
X211275205Y-40720682D03*
D52*
X219770789Y-39664588D03*
D14*
X217988185Y-47165222D03*
D53*
X217017721Y-39338881D03*
D54*
X218790071Y-47535203D03*
D55*
X210603226Y-50842903D03*
D14*
X210923044Y-50019724D03*
D52*
X208238677Y-41947519D03*
D56*
X216726490Y-50861977D03*
D57*
X214398614Y-51802499D03*
D14*
X215714293Y-51707811D03*
D53*
X205486475Y-46740852D03*
%TD*%
D11*
%TO.C,SW6*%
X85276761Y-63857533D03*
D10*
X89531333Y-60101104D03*
D28*
X80564675Y-61953023D03*
D10*
X91313979Y-62255791D03*
X87505670Y-58340789D03*
D28*
X89983379Y-65762698D03*
D10*
X82045616Y-58507562D03*
X82692215Y-60077399D03*
D30*
X92596370Y-61335891D03*
D14*
X87857830Y-67639832D03*
D31*
X88177649Y-68463010D03*
D14*
X80792689Y-64785329D03*
D32*
X79990803Y-65155310D03*
D29*
X94350506Y-63482627D03*
X84469142Y-57113953D03*
D14*
X83066582Y-69327918D03*
D30*
X79159645Y-58650148D03*
D33*
X82054385Y-68482084D03*
D34*
X84382261Y-69422606D03*
%TD*%
D10*
%TO.C,SW10*%
X92244130Y-87385072D03*
D35*
X99519361Y-95304422D03*
D10*
X92751449Y-89005290D03*
X99562476Y-89624973D03*
D35*
X90468533Y-90688349D03*
D11*
X94996699Y-92996298D03*
D10*
X97697942Y-87694809D03*
X101150545Y-91926828D03*
D39*
X102508231Y-91122197D03*
D37*
X104068591Y-93413647D03*
D14*
X90448828Y-93529750D03*
X97238298Y-96989158D03*
D38*
X89617747Y-93828434D03*
D36*
X97485155Y-97837078D03*
D39*
X89356714Y-87275586D03*
D41*
X91383530Y-97322402D03*
D37*
X94779895Y-86207989D03*
D14*
X92318155Y-98253236D03*
D40*
X93620575Y-98462234D03*
%TD*%
D11*
%TO.C,SW32*%
X268550964Y-74883950D03*
D10*
X262975745Y-72059163D03*
X264355979Y-73047815D03*
X267517757Y-69024344D03*
D58*
X273551986Y-74005494D03*
X263545652Y-75765859D03*
D10*
X272822021Y-70326357D03*
X270168442Y-69443737D03*
D59*
X273422078Y-68866674D03*
D60*
X264755934Y-78785658D03*
D14*
X265239913Y-78046962D03*
D61*
X273451588Y-77252380D03*
D62*
X276047266Y-69757659D03*
D14*
X272744148Y-76723763D03*
D59*
X260603862Y-73709414D03*
D63*
X270741424Y-80077412D03*
D64*
X268268873Y-80513390D03*
D14*
X269575488Y-80694316D03*
D62*
X264292511Y-69593042D03*
%TD*%
D51*
%TO.C,SW27*%
X223026589Y-83373712D03*
D10*
X223254096Y-80546587D03*
X225510255Y-75953668D03*
X228190212Y-75812788D03*
X221698471Y-79866507D03*
D11*
X227739164Y-81470412D03*
D10*
X230969312Y-76124411D03*
D51*
X232448261Y-79571382D03*
D52*
X234005839Y-74897574D03*
D54*
X233025121Y-82768189D03*
D53*
X231252771Y-74571867D03*
D55*
X224838276Y-86075889D03*
D14*
X225158094Y-85252710D03*
X232223235Y-82398208D03*
D52*
X222473727Y-77180505D03*
D53*
X219721525Y-81973838D03*
D56*
X230961540Y-86094963D03*
D57*
X228633664Y-87035485D03*
D14*
X229949343Y-86940797D03*
%TD*%
D10*
%TO.C,SW14*%
X63317041Y-78106029D03*
D65*
X52582253Y-78741277D03*
D10*
X59182008Y-74537841D03*
X61353385Y-76114909D03*
D11*
X57442397Y-80227855D03*
D10*
X54538226Y-76687363D03*
D65*
X62297151Y-81715561D03*
D10*
X53757267Y-75179854D03*
D66*
X66448939Y-79063546D03*
D67*
X60733640Y-84562977D03*
D68*
X64514377Y-77077862D03*
D14*
X53056252Y-81542933D03*
X60343294Y-83770805D03*
D69*
X52289663Y-81981394D03*
D68*
X50894705Y-75573427D03*
D70*
X57036330Y-85849712D03*
D14*
X55717404Y-85870053D03*
D71*
X54635339Y-85115656D03*
D66*
X56050109Y-73580324D03*
%TD*%
D11*
%TO.C,SW2*%
X68552521Y-43888274D03*
D10*
X70292132Y-38198260D03*
X74427165Y-41766448D03*
D65*
X73407275Y-45375980D03*
D10*
X64867391Y-38840273D03*
D65*
X63692377Y-42401696D03*
D10*
X65648350Y-40347782D03*
X72463509Y-39775328D03*
D67*
X71843764Y-48223396D03*
D14*
X64166376Y-45203352D03*
D69*
X63399787Y-45641813D03*
D14*
X71453418Y-47431224D03*
D68*
X75624501Y-40738281D03*
D66*
X77559063Y-42723965D03*
D68*
X62004829Y-39233846D03*
D14*
X66827528Y-49530472D03*
D66*
X67160233Y-37240743D03*
D71*
X65745463Y-48776075D03*
D70*
X68146454Y-49510131D03*
%TD*%
D11*
%TO.C,SW15*%
X89241189Y-114754896D03*
D35*
X84713023Y-112446947D03*
D10*
X95395035Y-113685426D03*
D35*
X93763851Y-117063020D03*
D10*
X93806966Y-111383571D03*
X91942432Y-109453407D03*
X86995939Y-110763888D03*
X86488620Y-109143670D03*
D14*
X84693318Y-115288348D03*
D39*
X96752721Y-112880795D03*
D14*
X91482788Y-118747756D03*
D38*
X83862237Y-115587032D03*
D36*
X91729645Y-119595676D03*
D37*
X98313081Y-115172245D03*
D40*
X87865065Y-120220832D03*
D14*
X86562645Y-120011834D03*
D39*
X83601204Y-109034184D03*
D37*
X89024385Y-107966587D03*
D41*
X85628020Y-119081000D03*
%TD*%
D72*
%TO.C,U1*%
X160519400Y-75361000D03*
X160519400Y-77901000D03*
X160519400Y-80441000D03*
X160519400Y-82981000D03*
X160519400Y-85521000D03*
X160519400Y-88061000D03*
X160519400Y-90601000D03*
X160519400Y-93141000D03*
X160519400Y-95681000D03*
X160519400Y-98221000D03*
X160519400Y-100761000D03*
X160519400Y-103301000D03*
X145299400Y-103301000D03*
X145299400Y-100761000D03*
X145299400Y-98221000D03*
X145299400Y-95681000D03*
X145299400Y-93141000D03*
X145299400Y-90601000D03*
X145299400Y-88061000D03*
X145299400Y-85521000D03*
X145299400Y-82981000D03*
X145299400Y-80441000D03*
X145299400Y-77901000D03*
X145299400Y-75361000D03*
%TD*%
D42*
%TO.C,SW1*%
X123622812Y-118916489D03*
X125892764Y-114461456D03*
X124757788Y-116688973D03*
D73*
X115532892Y-118273681D03*
X120617586Y-108294407D03*
D42*
X112973170Y-107878594D03*
X110703217Y-112333627D03*
%TD*%
D10*
%TO.C,SW18*%
X191911240Y-87545990D03*
D11*
X189159319Y-93153175D03*
D10*
X186458076Y-87851686D03*
D20*
X184630561Y-95459959D03*
X193684985Y-90850945D03*
D10*
X183001823Y-92081853D03*
X184610801Y-92623764D03*
X189115557Y-87477768D03*
D14*
X193707190Y-93686627D03*
D24*
X194829287Y-86059171D03*
D22*
X186670864Y-97993955D03*
D21*
X192058308Y-85974649D03*
D23*
X194538271Y-93985311D03*
D14*
X186917720Y-97146035D03*
D24*
X183540029Y-89338505D03*
D25*
X190535443Y-98619111D03*
D14*
X191837863Y-98410113D03*
D21*
X181216066Y-94353468D03*
D26*
X192772489Y-97479279D03*
%TD*%
D27*
%TO.C,*%
X115318960Y-71000607D03*
%TD*%
D12*
%TO.C,SW4*%
X35632860Y-55273628D03*
D10*
X36365088Y-51595554D03*
X37323945Y-52996651D03*
X41671152Y-50297217D03*
X46210215Y-53334874D03*
D11*
X40637946Y-56156823D03*
D12*
X45637819Y-57041795D03*
D10*
X44018540Y-51597905D03*
D16*
X49435461Y-53903572D03*
D17*
X44432975Y-60058530D03*
D14*
X43948997Y-59319834D03*
D13*
X47273325Y-52168452D03*
D15*
X35737322Y-58525253D03*
D14*
X36444762Y-57996635D03*
D13*
X33571827Y-52335051D03*
D14*
X39613422Y-61967189D03*
D16*
X38445906Y-49728519D03*
D19*
X38447485Y-61350285D03*
D18*
X40920037Y-61786263D03*
%TD*%
D10*
%TO.C,SW7*%
X74928091Y-76124055D03*
D28*
X73447150Y-79569516D03*
D10*
X84196454Y-79872284D03*
X80388145Y-75957282D03*
D11*
X78159236Y-81474026D03*
D10*
X82413808Y-77717597D03*
D28*
X82865854Y-83379191D03*
D10*
X75574690Y-77693892D03*
D31*
X81060124Y-86079503D03*
D29*
X87232981Y-81099120D03*
D30*
X85478845Y-78952384D03*
D14*
X80740305Y-85256325D03*
X73675164Y-82401822D03*
D32*
X72873278Y-82771803D03*
D33*
X74936860Y-86098577D03*
D14*
X75949057Y-86944411D03*
D29*
X77351617Y-74730446D03*
D30*
X72042120Y-76266641D03*
D34*
X77264736Y-87039099D03*
%TD*%
D44*
%TO.C,SW29*%
X232485634Y-45370782D03*
D10*
X232958675Y-42574244D03*
D44*
X242202848Y-42404074D03*
D10*
X235606548Y-38195440D03*
X238288586Y-38288670D03*
D11*
X237346159Y-43885453D03*
D10*
X241029950Y-38841321D03*
X231468242Y-41761170D03*
D47*
X241447644Y-37319390D03*
D14*
X241732305Y-45200531D03*
D46*
X234054916Y-48220576D03*
D45*
X242498894Y-45638993D03*
D48*
X244161848Y-37883803D03*
D14*
X234445262Y-47428404D03*
D50*
X237752227Y-49507311D03*
D49*
X240153217Y-48773254D03*
D48*
X232474649Y-39152958D03*
D47*
X229315154Y-43688180D03*
D14*
X239071152Y-49527651D03*
%TD*%
D27*
%TO.C,*%
X251348000Y-50940000D03*
%TD*%
D10*
%TO.C,SW9*%
X108188295Y-72695849D03*
D35*
X99094352Y-73759225D03*
D10*
X106323761Y-70765685D03*
D11*
X103622518Y-76067174D03*
D10*
X101377268Y-72076166D03*
X109776364Y-74997704D03*
D35*
X108145180Y-78375298D03*
D10*
X100869949Y-70455948D03*
D37*
X112694410Y-76484523D03*
D38*
X98243566Y-76899310D03*
D36*
X106110974Y-80907954D03*
D14*
X105864117Y-80060034D03*
X99074647Y-76600626D03*
D39*
X111134050Y-74193073D03*
D40*
X102246394Y-81533110D03*
D41*
X100009349Y-80393278D03*
D37*
X103405714Y-69278865D03*
D14*
X100943974Y-81324112D03*
D39*
X97982533Y-70346462D03*
%TD*%
D27*
%TO.C,*%
X200152000Y-108966000D03*
%TD*%
D10*
%TO.C,SW12*%
X122611983Y-70617205D03*
X129930329Y-72857106D03*
X123119302Y-72237423D03*
D11*
X125364552Y-76228431D03*
D35*
X129887214Y-78536555D03*
D10*
X128065795Y-70926942D03*
X131518398Y-75158961D03*
D35*
X120836386Y-73920482D03*
D37*
X134436444Y-76645780D03*
D39*
X132876084Y-74354330D03*
D14*
X120816681Y-76761883D03*
X127606151Y-80221291D03*
D36*
X127853008Y-81069211D03*
D38*
X119985600Y-77060567D03*
D14*
X122686008Y-81485369D03*
D40*
X123988428Y-81694367D03*
D39*
X119724567Y-70507719D03*
D41*
X121751383Y-80554535D03*
D37*
X125147748Y-69440122D03*
%TD*%
D11*
%TO.C,SW17*%
X180533499Y-76224051D03*
D10*
X177832256Y-70922562D03*
X174376003Y-75152729D03*
X183285420Y-70616866D03*
X175984981Y-75694640D03*
D20*
X176004741Y-78530835D03*
D10*
X180489737Y-70548644D03*
D20*
X185059165Y-73921821D03*
D14*
X178291900Y-80216911D03*
X185081370Y-76757503D03*
D22*
X178045044Y-81064831D03*
D24*
X186203467Y-69130047D03*
D21*
X183432488Y-69045525D03*
D23*
X185912451Y-77056187D03*
D26*
X184146669Y-80550155D03*
D21*
X172590246Y-77424344D03*
D24*
X174914209Y-72409381D03*
D25*
X181909623Y-81689987D03*
D14*
X183212043Y-81480989D03*
%TD*%
D10*
%TO.C,SW21*%
X196401634Y-53526485D03*
X193605951Y-53458263D03*
X190948470Y-53832181D03*
D20*
X198175379Y-56831440D03*
D10*
X187492217Y-58062348D03*
D20*
X189120955Y-61440454D03*
D10*
X189101195Y-58604259D03*
D11*
X193649713Y-59133670D03*
D21*
X196548702Y-51955144D03*
D14*
X191408114Y-63126530D03*
X198197584Y-59667122D03*
D22*
X191161258Y-63974450D03*
D23*
X199028665Y-59965806D03*
D24*
X199319681Y-52039666D03*
X188030423Y-55319000D03*
D25*
X195025837Y-64599606D03*
D21*
X185706460Y-60333963D03*
D26*
X197262883Y-63459774D03*
D14*
X196328257Y-64390608D03*
%TD*%
D58*
%TO.C,SW31*%
X260240386Y-57050693D03*
D10*
X264212491Y-50309178D03*
X259670479Y-53343997D03*
X266863176Y-50728571D03*
D11*
X265245698Y-56168784D03*
D10*
X261050713Y-54332649D03*
X269516755Y-51611191D03*
D58*
X270246720Y-55290328D03*
D62*
X272742000Y-51042493D03*
D14*
X269438882Y-58008597D03*
X261934647Y-59331796D03*
D61*
X270146322Y-58537214D03*
D60*
X261450668Y-60070492D03*
D59*
X270116812Y-50151508D03*
D63*
X267436158Y-61362246D03*
D59*
X257298596Y-54994248D03*
D14*
X266270222Y-61979150D03*
D62*
X260987245Y-50877876D03*
D64*
X264963607Y-61798224D03*
%TD*%
D27*
%TO.C,*%
X54348000Y-51190000D03*
%TD*%
D10*
%TO.C,SW26*%
X223851787Y-58507918D03*
X214580946Y-62250014D03*
D51*
X225330736Y-61954889D03*
D10*
X218392730Y-58337175D03*
D11*
X220621639Y-63853919D03*
D10*
X216136571Y-62930094D03*
D51*
X215909064Y-65757219D03*
D10*
X221072687Y-58196295D03*
D53*
X224135246Y-56955374D03*
D14*
X225105710Y-64781715D03*
D52*
X226888314Y-57281081D03*
D14*
X218040569Y-67636217D03*
D55*
X217720751Y-68459396D03*
D54*
X225907596Y-65151696D03*
D57*
X221516139Y-69418992D03*
D52*
X215356202Y-59564012D03*
D14*
X222831818Y-69324304D03*
D56*
X223844015Y-68478470D03*
D53*
X212604000Y-64357345D03*
%TD*%
D10*
%TO.C,SW28*%
X252140074Y-75180902D03*
D11*
X248456283Y-80225034D03*
D10*
X246716672Y-74535021D03*
D44*
X253312972Y-78743655D03*
X243595758Y-81710363D03*
D10*
X242578366Y-78100751D03*
X244068799Y-78913825D03*
X249398710Y-74628251D03*
D14*
X252842429Y-81540112D03*
D47*
X252557768Y-73658971D03*
D14*
X245555386Y-83767985D03*
D46*
X245165040Y-84560157D03*
D48*
X255271972Y-74223384D03*
D45*
X253609018Y-81978574D03*
D47*
X240425278Y-80027761D03*
D50*
X248862351Y-85846892D03*
D48*
X243584773Y-75492539D03*
D49*
X251263341Y-85112835D03*
D14*
X250181276Y-85867232D03*
%TD*%
D65*
%TO.C,SW3*%
X67852537Y-63546151D03*
D10*
X68872427Y-59936619D03*
X64737394Y-56368431D03*
X66908771Y-57945499D03*
D65*
X58137639Y-60571867D03*
D10*
X60093612Y-58517953D03*
D11*
X62997783Y-62058445D03*
D10*
X59312653Y-57010444D03*
D14*
X58611638Y-63373523D03*
D68*
X70069763Y-58908452D03*
D69*
X57845049Y-63811984D03*
D14*
X65898680Y-65601395D03*
D66*
X72004325Y-60894136D03*
D67*
X66289026Y-66393567D03*
D14*
X61272790Y-67700643D03*
D71*
X60190725Y-66946246D03*
D66*
X61605495Y-55410914D03*
D68*
X56450091Y-57404017D03*
D70*
X62591716Y-67680302D03*
%TD*%
D74*
%TO.C,PAD1*%
X169598000Y-72940000D03*
X167598000Y-72940000D03*
X165598000Y-72940000D03*
%TD*%
D10*
%TO.C,SW23*%
X204743856Y-91920596D03*
X206352834Y-92462507D03*
X213653273Y-87384733D03*
X208200109Y-87690429D03*
D20*
X215427018Y-90689688D03*
X206372594Y-95298702D03*
D11*
X210901352Y-92991918D03*
D10*
X210857590Y-87316511D03*
D14*
X208659753Y-96984778D03*
D23*
X216280304Y-93824054D03*
D21*
X213800341Y-85813392D03*
D14*
X215449223Y-93525370D03*
D22*
X208412897Y-97832698D03*
D24*
X216571320Y-85897914D03*
D25*
X212277476Y-98457854D03*
D21*
X202958099Y-94192211D03*
D14*
X213579896Y-98248856D03*
D26*
X214514522Y-97318022D03*
D24*
X205282062Y-89177248D03*
%TD*%
D10*
%TO.C,SW13*%
X119439975Y-87856066D03*
D35*
X121261394Y-95465679D03*
D10*
X122892578Y-92088085D03*
X121304509Y-89786230D03*
X114493482Y-89166547D03*
D35*
X112210566Y-90849606D03*
D11*
X116738732Y-93157555D03*
D10*
X113986163Y-87546329D03*
D37*
X125810624Y-93574904D03*
D14*
X118980331Y-97150415D03*
D39*
X124250264Y-91283454D03*
D38*
X111359780Y-93989691D03*
D14*
X112190861Y-93691007D03*
D36*
X119227188Y-97998335D03*
D39*
X111098747Y-87436843D03*
D37*
X116521928Y-86369246D03*
D41*
X113125563Y-97483659D03*
D14*
X114060188Y-98414493D03*
D40*
X115362608Y-98623491D03*
%TD*%
D27*
%TO.C,*%
X260098000Y-83690000D03*
%TD*%
D75*
%TO.C,SW34*%
X149512000Y-74440000D03*
X156812000Y-74440000D03*
D76*
X151662000Y-73330000D03*
D75*
X156812000Y-72230000D03*
D76*
X154662000Y-73330000D03*
D75*
X149512000Y-72230000D03*
D77*
X150912000Y-75090000D03*
X153912000Y-75090000D03*
X155412000Y-75090000D03*
%TD*%
M02*
