%FSLAX45Y45*%
G04 Gerber Fmt 4.5, Leading zero omitted, Abs format (unit mm)*
G04 Created by KiCad (PCBNEW (6.0.4)) date 2022-09-06 22:19:32*
%MOMM*%
%LPD*%
G01*
G04 APERTURE LIST*
%TA.AperFunction,Profile*%
%ADD10C,0.150000*%
%TD*%
%TA.AperFunction,Profile*%
%ADD11C,0.050000*%
%TD*%
%ADD12C,0.200000*%
%ADD13C,0.040000*%
%ADD14C,0.081280*%
%ADD15C,0.100000*%
%ADD16C,0.109220*%
%ADD17C,0.127000*%
%ADD18C,0.130000*%
%ADD19C,0.150000*%
%ADD20C,0.300000*%
G04 APERTURE END LIST*
D10*
X25860193Y-8293211D02*
X25697658Y-7854623D01*
X25786356Y-7676722D02*
G75*
G03*
X25697658Y-7854623I56192J-139078D01*
G01*
X25771495Y-8471112D02*
G75*
G03*
X25860193Y-8293211I-56191J139078D01*
G01*
X4723162Y-8276691D02*
X4881365Y-7843253D01*
X4723162Y-8276691D02*
G75*
G03*
X4811860Y-8454592I144886J-38825D01*
G01*
X4881365Y-7843253D02*
G75*
G03*
X4792667Y-7665352I-144886J38824D01*
G01*
X18425774Y-6541436D02*
G75*
G03*
X18491326Y-6339686I-68114J133656D01*
G01*
X18216999Y-5501801D02*
G75*
G03*
X18151446Y-5703551I68093J-133649D01*
G01*
X24200640Y-3883884D02*
G75*
G03*
X24378544Y-3972580I139082J56201D01*
G01*
X23959923Y-3261367D02*
X24200643Y-3883882D01*
X10896670Y-4681379D02*
G75*
G03*
X10837688Y-4466315I-127454J80665D01*
G01*
X11074959Y-13727234D02*
X11654662Y-12589502D01*
X4811860Y-8454592D02*
X8485240Y-9981702D01*
X10873210Y-13792786D02*
G75*
G03*
X11074959Y-13727234I68100J133646D01*
G01*
X7854779Y-11578842D02*
X8550793Y-10183451D01*
X18896132Y-12514515D02*
G75*
G03*
X11743295Y-12514515I-3576418J-11367363D01*
G01*
X8951809Y-4011247D02*
G75*
G03*
X9141648Y-3940273I56192J139076D01*
G01*
X13385657Y-7127380D02*
X17203771Y-7127380D01*
D11*
X15773400Y-7874000D02*
X14909800Y-7874000D01*
D10*
X3065751Y-7072480D02*
X4010440Y-3546850D01*
X23959924Y-3261367D02*
G75*
G03*
X23764655Y-3178481I-139075J-56184D01*
G01*
X11743296Y-12514516D02*
G75*
G03*
X11654662Y-12589502I45024J-143094D01*
G01*
X18984766Y-12589502D02*
X19564469Y-13727234D01*
X12148101Y-6339686D02*
X12434800Y-5769000D01*
X19766219Y-13792787D02*
X21013628Y-13157200D01*
X21811405Y-3951878D02*
X23764655Y-3178481D01*
X9412077Y-3739930D02*
X10837688Y-4466315D01*
X18151446Y-5703551D02*
X18491326Y-6339686D01*
X22769095Y-11755590D02*
G75*
G03*
X22834649Y-11553842I-68095J133650D01*
G01*
X7920332Y-11780592D02*
X9524144Y-12597775D01*
X4194152Y-3440784D02*
G75*
G03*
X4010440Y-3546850I-38820J-144894D01*
G01*
X19802228Y-4442666D02*
X21351134Y-3680556D01*
X12434801Y-5769000D02*
G75*
G03*
X12369247Y-5567251I-133674J68091D01*
G01*
X21621565Y-3880898D02*
G75*
G03*
X21811405Y-3951878I133648J68091D01*
G01*
X21552884Y-3746109D02*
X21621563Y-3880899D01*
D11*
X15773400Y-8610600D02*
X14884400Y-8610600D01*
D10*
X19700660Y-4744000D02*
G75*
G03*
X19737697Y-4620809I-55597J83878D01*
G01*
X9412076Y-3739932D02*
G75*
G03*
X9210328Y-3805483I-68100J-133647D01*
G01*
X6376999Y-3879658D02*
X6658216Y-3257858D01*
X6199099Y-3968356D02*
G75*
G03*
X6376999Y-3879658I38823J144888D01*
G01*
X9141648Y-3940273D02*
X9210328Y-3805483D01*
X24378544Y-3972580D02*
X26423988Y-3444293D01*
X22208130Y-9980805D02*
G75*
G03*
X22142578Y-10182555I68093J-133649D01*
G01*
X6853485Y-3174971D02*
X8951806Y-4011252D01*
X13249461Y-7094680D02*
G75*
G03*
X13385657Y-7127380I136199J267300D01*
G01*
X12148103Y-6339687D02*
G75*
G03*
X12213654Y-6541436I133637J-68103D01*
G01*
D11*
X14807574Y-9869000D02*
X15634800Y-9869000D01*
X14884400Y-8610600D02*
X14884400Y-7874000D01*
X15773400Y-8610600D02*
X15773400Y-7874000D01*
D10*
X21065284Y-12597775D02*
X22769096Y-11755592D01*
X22208131Y-9980806D02*
X25771495Y-8471112D01*
X27446323Y-7259702D02*
G75*
G03*
X27552389Y-7075989I-38823J144889D01*
G01*
X19802228Y-4442665D02*
G75*
G03*
X19737697Y-4620809I62970J-123570D01*
G01*
X17339968Y-7094681D02*
X18425774Y-6541435D01*
X3171817Y-7256191D02*
X4792667Y-7665352D01*
X21079180Y-12955450D02*
X20999732Y-12799524D01*
X10896666Y-4681376D02*
G75*
G03*
X10924182Y-4844000I100476J-66639D01*
G01*
X9589699Y-12799526D02*
G75*
G03*
X9524144Y-12597775I-133659J68096D01*
G01*
X9575800Y-13157200D02*
X10873209Y-13792787D01*
X26607700Y-3550359D02*
X27552389Y-7075989D01*
X7854778Y-11578842D02*
G75*
G03*
X7920332Y-11780592I133652J-68098D01*
G01*
X18216999Y-5501801D02*
X19700660Y-4744000D01*
X25786356Y-7676722D02*
X27446323Y-7259700D01*
X9510249Y-12955451D02*
G75*
G03*
X9575800Y-13157200I133651J-68099D01*
G01*
X4194152Y-3440784D02*
X6199099Y-3968356D01*
X10924182Y-4844000D02*
X12369247Y-5567251D01*
D11*
X14807574Y-9869000D02*
X14807574Y-10541000D01*
D10*
X9589696Y-12799524D02*
X9510248Y-12955450D01*
D11*
X14884400Y-7874000D02*
X14909800Y-7874000D01*
X14807574Y-10541000D02*
X15634800Y-10541000D01*
D10*
X21065286Y-12597777D02*
G75*
G03*
X20999732Y-12799524I68104J-133653D01*
G01*
X3065754Y-7072480D02*
G75*
G03*
X3171817Y-7256191I144887J-38824D01*
G01*
X18984767Y-12589501D02*
G75*
G03*
X18896132Y-12514515I-133667J-68119D01*
G01*
X22142578Y-10182555D02*
X22834648Y-11553842D01*
X21013628Y-13157201D02*
G75*
G03*
X21079180Y-12955450I-68098J133651D01*
G01*
X8550789Y-10183449D02*
G75*
G03*
X8485240Y-9981702I-133649J68099D01*
G01*
X19564471Y-13727234D02*
G75*
G03*
X19766219Y-13792787I133649J68094D01*
G01*
X21552883Y-3746109D02*
G75*
G03*
X21351134Y-3680556I-133647J-68086D01*
G01*
X6853485Y-3174970D02*
G75*
G03*
X6658216Y-3257858I-56185J-139092D01*
G01*
X12213654Y-6541436D02*
X13249460Y-7094681D01*
D11*
X15634800Y-10541000D02*
X15634800Y-9869000D01*
D10*
X17203771Y-7127380D02*
G75*
G03*
X17339968Y-7094682I10J299960D01*
G01*
X26607703Y-3550358D02*
G75*
G03*
X26423988Y-3444293I-144895J-38834D01*
G01*
D12*
D13*
X11003530Y-8212730D02*
X11043530Y-8252730D01*
X11043530Y-8212730D02*
X11003530Y-8252730D01*
X11333800Y-8209600D02*
X11373800Y-8249600D01*
X11373800Y-8209600D02*
X11333800Y-8249600D01*
X12476800Y-10165400D02*
X12516800Y-10205400D01*
X12516800Y-10165400D02*
X12476800Y-10205400D01*
X12629200Y-9886000D02*
X12669200Y-9926000D01*
X12669200Y-9886000D02*
X12629200Y-9926000D01*
X12704970Y-10088770D02*
X12744970Y-10128770D01*
X12744970Y-10088770D02*
X12704970Y-10128770D01*
X12705400Y-10546400D02*
X12745400Y-10586400D01*
X12745400Y-10546400D02*
X12705400Y-10586400D01*
X12718100Y-8831900D02*
X12758100Y-8871900D01*
X12758100Y-8831900D02*
X12718100Y-8871900D01*
X12781600Y-9962200D02*
X12821600Y-10002200D01*
X12821600Y-9962200D02*
X12781600Y-10002200D01*
X12934000Y-9251000D02*
X12974000Y-9291000D01*
X12974000Y-9251000D02*
X12934000Y-9291000D01*
X12946700Y-8323900D02*
X12986700Y-8363900D01*
X12986700Y-8323900D02*
X12946700Y-8363900D01*
X12984800Y-8844600D02*
X13024800Y-8884600D01*
X13024800Y-8844600D02*
X12984800Y-8884600D01*
X13010200Y-10800400D02*
X13050200Y-10840400D01*
X13050200Y-10800400D02*
X13010200Y-10840400D01*
X13061000Y-11080912D02*
X13101000Y-11120912D01*
X13101000Y-11080912D02*
X13061000Y-11120912D01*
X13086400Y-11410000D02*
X13126400Y-11450000D01*
X13126400Y-11410000D02*
X13086400Y-11450000D01*
X13111800Y-8920800D02*
X13151800Y-8960800D01*
X13151800Y-8920800D02*
X13111800Y-8960800D01*
X13162600Y-8235000D02*
X13202600Y-8275000D01*
X13202600Y-8235000D02*
X13162600Y-8275000D01*
X13264200Y-11206800D02*
X13304200Y-11246800D01*
X13304200Y-11206800D02*
X13264200Y-11246800D01*
X13416600Y-8224331D02*
X13456600Y-8264331D01*
X13456600Y-8224331D02*
X13416600Y-8264331D01*
X13458092Y-11917292D02*
X13498092Y-11957292D01*
X13498092Y-11917292D02*
X13458092Y-11957292D01*
X13772200Y-10216200D02*
X13812200Y-10256200D01*
X13812200Y-10216200D02*
X13772200Y-10256200D01*
X13924600Y-9784400D02*
X13964600Y-9824400D01*
X13964600Y-9784400D02*
X13924600Y-9824400D01*
X14051600Y-11054400D02*
X14091600Y-11094400D01*
X14091600Y-11054400D02*
X14051600Y-11094400D01*
X14077000Y-9251000D02*
X14117000Y-9291000D01*
X14117000Y-9251000D02*
X14077000Y-9291000D01*
X14127800Y-10648000D02*
X14167800Y-10688000D01*
X14167800Y-10648000D02*
X14127800Y-10688000D01*
X14204000Y-9784400D02*
X14244000Y-9824400D01*
X14244000Y-9784400D02*
X14204000Y-9824400D01*
X14229400Y-10317800D02*
X14269400Y-10357800D01*
X14269400Y-10317800D02*
X14229400Y-10357800D01*
X14289800Y-11649000D02*
X14329800Y-11689000D01*
X14329800Y-11649000D02*
X14289800Y-11689000D01*
X14331000Y-11105200D02*
X14371000Y-11145200D01*
X14371000Y-11105200D02*
X14331000Y-11145200D01*
X14661200Y-7625400D02*
X14701200Y-7665400D01*
X14701200Y-7625400D02*
X14661200Y-7665400D01*
X14686600Y-7904800D02*
X14726600Y-7944800D01*
X14726600Y-7904800D02*
X14686600Y-7944800D01*
X14762800Y-8235000D02*
X14802800Y-8275000D01*
X14802800Y-8235000D02*
X14762800Y-8275000D01*
X14813600Y-9657400D02*
X14853600Y-9697400D01*
X14853600Y-9657400D02*
X14813600Y-9697400D01*
X14813600Y-11130600D02*
X14853600Y-11170600D01*
X14853600Y-11130600D02*
X14813600Y-11170600D01*
X14889800Y-11003600D02*
X14929800Y-11043600D01*
X14929800Y-11003600D02*
X14889800Y-11043600D01*
X15804200Y-11003600D02*
X15844200Y-11043600D01*
X15844200Y-11003600D02*
X15804200Y-11043600D01*
X15829600Y-10648000D02*
X15869600Y-10688000D01*
X15869600Y-10648000D02*
X15829600Y-10688000D01*
X15850839Y-8742570D02*
X15890839Y-8782570D01*
X15890839Y-8742570D02*
X15850839Y-8782570D01*
X15880400Y-8920800D02*
X15920400Y-8960800D01*
X15920400Y-8920800D02*
X15880400Y-8960800D01*
X16045930Y-10610330D02*
X16085930Y-10650330D01*
X16085930Y-10610330D02*
X16045930Y-10650330D01*
X16083600Y-10724200D02*
X16123600Y-10764200D01*
X16123600Y-10724200D02*
X16083600Y-10764200D01*
X16185200Y-11791000D02*
X16225200Y-11831000D01*
X16225200Y-11791000D02*
X16185200Y-11831000D01*
X16337600Y-8158800D02*
X16377600Y-8198800D01*
X16377600Y-8158800D02*
X16337600Y-8198800D01*
X16363000Y-10571800D02*
X16403000Y-10611800D01*
X16403000Y-10571800D02*
X16363000Y-10611800D01*
X16413800Y-9047800D02*
X16453800Y-9087800D01*
X16453800Y-9047800D02*
X16413800Y-9087800D01*
X16413800Y-9479600D02*
X16453800Y-9519600D01*
X16453800Y-9479600D02*
X16413800Y-9519600D01*
X16464600Y-7803200D02*
X16504600Y-7843200D01*
X16504600Y-7803200D02*
X16464600Y-7843200D01*
X16515400Y-11206800D02*
X16555400Y-11246800D01*
X16555400Y-11206800D02*
X16515400Y-11246800D01*
X16540800Y-8895400D02*
X16580800Y-8935400D01*
X16580800Y-8895400D02*
X16540800Y-8935400D01*
X16566200Y-9708200D02*
X16606200Y-9748200D01*
X16606200Y-9708200D02*
X16566200Y-9748200D01*
X16642400Y-8086350D02*
X16682400Y-8126350D01*
X16682400Y-8086350D02*
X16642400Y-8126350D01*
X16769400Y-8510650D02*
X16809400Y-8550650D01*
X16809400Y-8510650D02*
X16769400Y-8550650D01*
X16820200Y-9124000D02*
X16860200Y-9164000D01*
X16860200Y-9124000D02*
X16820200Y-9164000D01*
X17023400Y-9047800D02*
X17063400Y-9087800D01*
X17063400Y-9047800D02*
X17023400Y-9087800D01*
X17023400Y-10902000D02*
X17063400Y-10942000D01*
X17063400Y-10902000D02*
X17023400Y-10942000D01*
X17125000Y-8844600D02*
X17165000Y-8884600D01*
X17165000Y-8844600D02*
X17125000Y-8884600D01*
X17226600Y-8336600D02*
X17266600Y-8376600D01*
X17266600Y-8336600D02*
X17226600Y-8376600D01*
X17226600Y-11714800D02*
X17266600Y-11754800D01*
X17266600Y-11714800D02*
X17226600Y-11754800D01*
X17302800Y-11435400D02*
X17342800Y-11475400D01*
X17342800Y-11435400D02*
X17302800Y-11475400D01*
X17429800Y-9733600D02*
X17469800Y-9773600D01*
X17469800Y-9733600D02*
X17429800Y-9773600D01*
X17503881Y-11996319D02*
X17543881Y-12036319D01*
X17543881Y-11996319D02*
X17503881Y-12036319D01*
X17582200Y-9682800D02*
X17622200Y-9722800D01*
X17622200Y-9682800D02*
X17582200Y-9722800D01*
X17582200Y-11206800D02*
X17622200Y-11246800D01*
X17622200Y-11206800D02*
X17582200Y-11246800D01*
X17709200Y-9022400D02*
X17749200Y-9062400D01*
X17749200Y-9022400D02*
X17709200Y-9062400D01*
X17760000Y-9200200D02*
X17800000Y-9240200D01*
X17800000Y-9200200D02*
X17760000Y-9240200D01*
X17760000Y-9530400D02*
X17800000Y-9570400D01*
X17800000Y-9530400D02*
X17760000Y-9570400D01*
X17785400Y-10597200D02*
X17825400Y-10637200D01*
X17825400Y-10597200D02*
X17785400Y-10637200D01*
X17887000Y-9987600D02*
X17927000Y-10027600D01*
X17927000Y-9987600D02*
X17887000Y-10027600D01*
X18039400Y-12172000D02*
X18079400Y-12212000D01*
X18079400Y-12172000D02*
X18039400Y-12212000D01*
X18039695Y-9860895D02*
X18079695Y-9900895D01*
X18079695Y-9860895D02*
X18039695Y-9900895D01*
X18289800Y-11499000D02*
X18329800Y-11539000D01*
X18329800Y-11499000D02*
X18289800Y-11539000D01*
X18598200Y-12172000D02*
X18638200Y-12212000D01*
X18638200Y-12172000D02*
X18598200Y-12212000D01*
D14*
X14570580Y-7536100D02*
G75*
G03*
X14570580Y-7536100I-40640J0D01*
G01*
X14570580Y-7790100D02*
G75*
G03*
X14570580Y-7790100I-40640J0D01*
G01*
X14570580Y-8044100D02*
G75*
G03*
X14570580Y-8044100I-40640J0D01*
G01*
X14570580Y-8298100D02*
G75*
G03*
X14570580Y-8298100I-40640J0D01*
G01*
X14570580Y-8552100D02*
G75*
G03*
X14570580Y-8552100I-40640J0D01*
G01*
X14570580Y-8806100D02*
G75*
G03*
X14570580Y-8806100I-40640J0D01*
G01*
X14570580Y-9060100D02*
G75*
G03*
X14570580Y-9060100I-40640J0D01*
G01*
X14570580Y-9314100D02*
G75*
G03*
X14570580Y-9314100I-40640J0D01*
G01*
X14570580Y-9568100D02*
G75*
G03*
X14570580Y-9568100I-40640J0D01*
G01*
X14570580Y-9822100D02*
G75*
G03*
X14570580Y-9822100I-40640J0D01*
G01*
X14570580Y-10076100D02*
G75*
G03*
X14570580Y-10076100I-40640J0D01*
G01*
X14570580Y-10330100D02*
G75*
G03*
X14570580Y-10330100I-40640J0D01*
G01*
X16092580Y-7536100D02*
G75*
G03*
X16092580Y-7536100I-40640J0D01*
G01*
X16092580Y-7790100D02*
G75*
G03*
X16092580Y-7790100I-40640J0D01*
G01*
X16092580Y-8044100D02*
G75*
G03*
X16092580Y-8044100I-40640J0D01*
G01*
X16092580Y-8298100D02*
G75*
G03*
X16092580Y-8298100I-40640J0D01*
G01*
X16092580Y-8552100D02*
G75*
G03*
X16092580Y-8552100I-40640J0D01*
G01*
X16092580Y-8806100D02*
G75*
G03*
X16092580Y-8806100I-40640J0D01*
G01*
X16092580Y-9060100D02*
G75*
G03*
X16092580Y-9060100I-40640J0D01*
G01*
X16092580Y-9314100D02*
G75*
G03*
X16092580Y-9314100I-40640J0D01*
G01*
X16092580Y-9568100D02*
G75*
G03*
X16092580Y-9568100I-40640J0D01*
G01*
X16092580Y-9822100D02*
G75*
G03*
X16092580Y-9822100I-40640J0D01*
G01*
X16092580Y-10076100D02*
G75*
G03*
X16092580Y-10076100I-40640J0D01*
G01*
X16092580Y-10330100D02*
G75*
G03*
X16092580Y-10330100I-40640J0D01*
G01*
D15*
X11407407Y-11272603D02*
X11407407Y-11372603D01*
X11357407Y-11322603D02*
X11457407Y-11322603D01*
X11634402Y-10827099D02*
X11634402Y-10927099D01*
X11584402Y-10877099D02*
X11684402Y-10877099D01*
X12699366Y-11930889D02*
X12699366Y-12030889D01*
X12649366Y-11980889D02*
X12749366Y-11980889D01*
X12812864Y-11708137D02*
X12812864Y-11808137D01*
X12762864Y-11758137D02*
X12862864Y-11758137D01*
X12926362Y-11485385D02*
X12926362Y-11585385D01*
X12876362Y-11535385D02*
X12976362Y-11535385D01*
X17653048Y-11486741D02*
X17653048Y-11586741D01*
X17603048Y-11536741D02*
X17703048Y-11536741D01*
X17766545Y-11709493D02*
X17766545Y-11809493D01*
X17716545Y-11759493D02*
X17816545Y-11759493D01*
X17880043Y-11932244D02*
X17880043Y-12032244D01*
X17830043Y-11982244D02*
X17930043Y-11982244D01*
X18945007Y-10828455D02*
X18945007Y-10928455D01*
X18895007Y-10878455D02*
X18995007Y-10878455D01*
X19172002Y-11273958D02*
X19172002Y-11373958D01*
X19122002Y-11323958D02*
X19222002Y-11323958D01*
D16*
X16598415Y-7332615D02*
X16598415Y-7255384D01*
X16521184Y-7255384D01*
X16521184Y-7332615D01*
X16598415Y-7332615D01*
X16798416Y-7332615D02*
X16798416Y-7255384D01*
X16721184Y-7255384D01*
X16721184Y-7332615D01*
X16798416Y-7332615D01*
X16998416Y-7332615D02*
X16998416Y-7255384D01*
X16921185Y-7255384D01*
X16921185Y-7332615D01*
X16998416Y-7332615D01*
D17*
X3643925Y-6751434D02*
X3707425Y-6687934D01*
X3643925Y-6624434D01*
X3580425Y-6687934D01*
X3643925Y-6751434D01*
X3791482Y-6660527D02*
X3854982Y-6597027D01*
X3791482Y-6533527D01*
X3727982Y-6597027D01*
X3791482Y-6660527D01*
X3848414Y-6938742D02*
X3911914Y-6875242D01*
X3848414Y-6811742D01*
X3784914Y-6875242D01*
X3848414Y-6938742D01*
X4072536Y-7083688D02*
X4136036Y-7020188D01*
X4072536Y-6956688D01*
X4009036Y-7020188D01*
X4072536Y-7083688D01*
X4134930Y-4914395D02*
X4198430Y-4850895D01*
X4134930Y-4787395D01*
X4071430Y-4850895D01*
X4134930Y-4914395D01*
X4282487Y-4823488D02*
X4345987Y-4759988D01*
X4282487Y-4696488D01*
X4218987Y-4759988D01*
X4282487Y-4823488D01*
X4339105Y-7070222D02*
X4402605Y-7006722D01*
X4339105Y-6943222D01*
X4275605Y-7006722D01*
X4339105Y-7070222D01*
X4339419Y-5101703D02*
X4402919Y-5038203D01*
X4339419Y-4974703D01*
X4275919Y-5038203D01*
X4339419Y-5101703D01*
X4527517Y-6857747D02*
X4591017Y-6794247D01*
X4527517Y-6730747D01*
X4464017Y-6794247D01*
X4527517Y-6857747D01*
X4563541Y-5246649D02*
X4627041Y-5183149D01*
X4563541Y-5119649D01*
X4500041Y-5183149D01*
X4563541Y-5246649D01*
X4609851Y-7010253D02*
X4673351Y-6946753D01*
X4609851Y-6883253D01*
X4546351Y-6946753D01*
X4609851Y-7010253D01*
X4830109Y-5233183D02*
X4893609Y-5169683D01*
X4830109Y-5106183D01*
X4766609Y-5169683D01*
X4830109Y-5233183D01*
X5018522Y-5020708D02*
X5082022Y-4957208D01*
X5018522Y-4893708D01*
X4955022Y-4957208D01*
X5018522Y-5020708D01*
X5100856Y-5173214D02*
X5164356Y-5109714D01*
X5100856Y-5046214D01*
X5037356Y-5109714D01*
X5100856Y-5173214D01*
X5205976Y-8156992D02*
X5269476Y-8093492D01*
X5205976Y-8029992D01*
X5142476Y-8093492D01*
X5205976Y-8156992D01*
X5363512Y-8084745D02*
X5427012Y-8021245D01*
X5363512Y-7957745D01*
X5300012Y-8021245D01*
X5363512Y-8084745D01*
X5386114Y-8367825D02*
X5449614Y-8304325D01*
X5386114Y-8240825D01*
X5322614Y-8304325D01*
X5386114Y-8367825D01*
X5590901Y-8539004D02*
X5654401Y-8475504D01*
X5590901Y-8412004D01*
X5527401Y-8475504D01*
X5590901Y-8539004D01*
X5857123Y-8558125D02*
X5920623Y-8494625D01*
X5857123Y-8431125D01*
X5793623Y-8494625D01*
X5857123Y-8558125D01*
X5917758Y-6395383D02*
X5981258Y-6331883D01*
X5917758Y-6268383D01*
X5854258Y-6331883D01*
X5917758Y-6395383D01*
X6070026Y-8370195D02*
X6133526Y-8306695D01*
X6070026Y-8243195D01*
X6006526Y-8306695D01*
X6070026Y-8370195D01*
X6075293Y-6323136D02*
X6138793Y-6259636D01*
X6075293Y-6196136D01*
X6011793Y-6259636D01*
X6075293Y-6323136D01*
X6097895Y-6606216D02*
X6161395Y-6542716D01*
X6097895Y-6479216D01*
X6034395Y-6542716D01*
X6097895Y-6606216D01*
X6133160Y-8531599D02*
X6196660Y-8468099D01*
X6133160Y-8404599D01*
X6069660Y-8468099D01*
X6133160Y-8531599D01*
X6302682Y-6777395D02*
X6366182Y-6713895D01*
X6302682Y-6650395D01*
X6239182Y-6713895D01*
X6302682Y-6777395D01*
X6568905Y-6796516D02*
X6632405Y-6733016D01*
X6568905Y-6669516D01*
X6505405Y-6733016D01*
X6568905Y-6796516D01*
X6629481Y-4633693D02*
X6692981Y-4570193D01*
X6629481Y-4506693D01*
X6565981Y-4570193D01*
X6629481Y-4633693D01*
X6781807Y-6608587D02*
X6845307Y-6545087D01*
X6781807Y-6481587D01*
X6718307Y-6545087D01*
X6781807Y-6608587D01*
X6787017Y-4561446D02*
X6850517Y-4497946D01*
X6787017Y-4434446D01*
X6723517Y-4497946D01*
X6787017Y-4561446D01*
X6809619Y-4844526D02*
X6873119Y-4781026D01*
X6809619Y-4717526D01*
X6746119Y-4781026D01*
X6809619Y-4844526D01*
X6844942Y-6769990D02*
X6908442Y-6706490D01*
X6844942Y-6642990D01*
X6781442Y-6706490D01*
X6844942Y-6769990D01*
X7014406Y-5015705D02*
X7077906Y-4952205D01*
X7014406Y-4888705D01*
X6950906Y-4952205D01*
X7014406Y-5015705D01*
X7246839Y-8408255D02*
X7310339Y-8344755D01*
X7246839Y-8281255D01*
X7183339Y-8344755D01*
X7246839Y-8408255D01*
X7280628Y-5034826D02*
X7344128Y-4971326D01*
X7280628Y-4907826D01*
X7217128Y-4971326D01*
X7280628Y-5034826D01*
X7407915Y-8633985D02*
X7471415Y-8570485D01*
X7407915Y-8506985D01*
X7344415Y-8570485D01*
X7407915Y-8633985D01*
X7410071Y-8350013D02*
X7473571Y-8286513D01*
X7410071Y-8223013D01*
X7346571Y-8286513D01*
X7410071Y-8350013D01*
X7493531Y-4846897D02*
X7557031Y-4783397D01*
X7493531Y-4719897D01*
X7430031Y-4783397D01*
X7493531Y-4846897D01*
X7556665Y-5008300D02*
X7620165Y-4944800D01*
X7556665Y-4881300D01*
X7493165Y-4944800D01*
X7556665Y-5008300D01*
X7597004Y-8822361D02*
X7660504Y-8758861D01*
X7597004Y-8695361D01*
X7533504Y-8758861D01*
X7597004Y-8822361D01*
X7860547Y-8864613D02*
X7924047Y-8801113D01*
X7860547Y-8737613D01*
X7797047Y-8801113D01*
X7860547Y-8864613D01*
X8089018Y-8695954D02*
X8152518Y-8632454D01*
X8089018Y-8568954D01*
X8025518Y-8632454D01*
X8089018Y-8695954D01*
X8109420Y-6715342D02*
X8172920Y-6651842D01*
X8109420Y-6588342D01*
X8045920Y-6651842D01*
X8109420Y-6715342D01*
X8137845Y-8862245D02*
X8201345Y-8798745D01*
X8137845Y-8735245D01*
X8074345Y-8798745D01*
X8137845Y-8862245D01*
X8270497Y-6941073D02*
X8333997Y-6877573D01*
X8270497Y-6814073D01*
X8206997Y-6877573D01*
X8270497Y-6941073D01*
X8272653Y-6657100D02*
X8336153Y-6593600D01*
X8272653Y-6530100D01*
X8209153Y-6593600D01*
X8272653Y-6657100D01*
X8306099Y-11650577D02*
X8369599Y-11587077D01*
X8306099Y-11523577D01*
X8242599Y-11587077D01*
X8306099Y-11650577D01*
X8459586Y-7129449D02*
X8523086Y-7065949D01*
X8459586Y-7002449D01*
X8396086Y-7065949D01*
X8459586Y-7129449D01*
X8467176Y-11876307D02*
X8530676Y-11812807D01*
X8467176Y-11749307D01*
X8403676Y-11812807D01*
X8467176Y-11876307D01*
X8469332Y-11592335D02*
X8532832Y-11528835D01*
X8469332Y-11465335D01*
X8405832Y-11528835D01*
X8469332Y-11592335D01*
X8656265Y-12064683D02*
X8719765Y-12001183D01*
X8656265Y-11937683D01*
X8592765Y-12001183D01*
X8656265Y-12064683D01*
X8723129Y-7171700D02*
X8786629Y-7108200D01*
X8723129Y-7044700D01*
X8659629Y-7108200D01*
X8723129Y-7171700D01*
X8781650Y-9674717D02*
X8845150Y-9611217D01*
X8781650Y-9547717D01*
X8718150Y-9611217D01*
X8781650Y-9674717D01*
X8919807Y-12106934D02*
X8983307Y-12043434D01*
X8919807Y-11979934D01*
X8856307Y-12043434D01*
X8919807Y-12106934D01*
X8942727Y-9900448D02*
X9006227Y-9836948D01*
X8942727Y-9773448D01*
X8879227Y-9836948D01*
X8942727Y-9900448D01*
X8944883Y-9616475D02*
X9008383Y-9552975D01*
X8944883Y-9489475D01*
X8881383Y-9552975D01*
X8944883Y-9616475D01*
X8951600Y-7003041D02*
X9015100Y-6939541D01*
X8951600Y-6876041D01*
X8888100Y-6939541D01*
X8951600Y-7003041D01*
X8972002Y-5022430D02*
X9035502Y-4958930D01*
X8972002Y-4895430D01*
X8908502Y-4958930D01*
X8972002Y-5022430D01*
X9000427Y-7169333D02*
X9063927Y-7105833D01*
X9000427Y-7042333D01*
X8936927Y-7105833D01*
X9000427Y-7169333D01*
X9131816Y-10088824D02*
X9195316Y-10025324D01*
X9131816Y-9961824D01*
X9068316Y-10025324D01*
X9131816Y-10088824D01*
X9133079Y-5248161D02*
X9196579Y-5184661D01*
X9133079Y-5121161D01*
X9069579Y-5184661D01*
X9133079Y-5248161D01*
X9135235Y-4964188D02*
X9198735Y-4900688D01*
X9135235Y-4837188D01*
X9071735Y-4900688D01*
X9135235Y-4964188D01*
X9148279Y-11938276D02*
X9211779Y-11874776D01*
X9148279Y-11811276D01*
X9084779Y-11874776D01*
X9148279Y-11938276D01*
X9197106Y-12104567D02*
X9260606Y-12041067D01*
X9197106Y-11977567D01*
X9133606Y-12041067D01*
X9197106Y-12104567D01*
X9322168Y-5436537D02*
X9385668Y-5373037D01*
X9322168Y-5309537D01*
X9258668Y-5373037D01*
X9322168Y-5436537D01*
X9395358Y-10131075D02*
X9458858Y-10067575D01*
X9395358Y-10004075D01*
X9331858Y-10067575D01*
X9395358Y-10131075D01*
X9585711Y-5478788D02*
X9649211Y-5415288D01*
X9585711Y-5351788D01*
X9522211Y-5415288D01*
X9585711Y-5478788D01*
X9623830Y-9962416D02*
X9687330Y-9898916D01*
X9623830Y-9835416D01*
X9560330Y-9898916D01*
X9623830Y-9962416D01*
X9644232Y-7981805D02*
X9707732Y-7918305D01*
X9644232Y-7854805D01*
X9580732Y-7918305D01*
X9644232Y-7981805D01*
X9672657Y-10128708D02*
X9736157Y-10065208D01*
X9672657Y-10001708D01*
X9609157Y-10065208D01*
X9672657Y-10128708D01*
X9805309Y-8207535D02*
X9868809Y-8144035D01*
X9805309Y-8080535D01*
X9741809Y-8144035D01*
X9805309Y-8207535D01*
X9807465Y-7923563D02*
X9870965Y-7860063D01*
X9807465Y-7796563D01*
X9743965Y-7860063D01*
X9807465Y-7923563D01*
X9814182Y-5310129D02*
X9877682Y-5246629D01*
X9814182Y-5183129D01*
X9750682Y-5246629D01*
X9814182Y-5310129D01*
X9833366Y-12936387D02*
X9896866Y-12872887D01*
X9833366Y-12809387D01*
X9769866Y-12872887D01*
X9833366Y-12936387D01*
X9863009Y-5476421D02*
X9926509Y-5412921D01*
X9863009Y-5349421D01*
X9799509Y-5412921D01*
X9863009Y-5476421D01*
X9994397Y-8395911D02*
X10057897Y-8332411D01*
X9994397Y-8268911D01*
X9930897Y-8332411D01*
X9994397Y-8395911D01*
X9994443Y-13162117D02*
X10057943Y-13098617D01*
X9994443Y-13035117D01*
X9930943Y-13098617D01*
X9994443Y-13162117D01*
X9996599Y-12878145D02*
X10060099Y-12814645D01*
X9996599Y-12751145D01*
X9933099Y-12814645D01*
X9996599Y-12878145D01*
X10183531Y-13350493D02*
X10247031Y-13286993D01*
X10183531Y-13223493D01*
X10120031Y-13286993D01*
X10183531Y-13350493D01*
X10257940Y-8438162D02*
X10321440Y-8374662D01*
X10257940Y-8311162D01*
X10194440Y-8374662D01*
X10257940Y-8438162D01*
X10447074Y-13392745D02*
X10510574Y-13329245D01*
X10447074Y-13265745D01*
X10383574Y-13329245D01*
X10447074Y-13392745D01*
X10486412Y-8269503D02*
X10549912Y-8206003D01*
X10486412Y-8142503D01*
X10422912Y-8206003D01*
X10486412Y-8269503D01*
X10506814Y-6288892D02*
X10570314Y-6225392D01*
X10506814Y-6161892D01*
X10443314Y-6225392D01*
X10506814Y-6288892D01*
X10535239Y-8435795D02*
X10598739Y-8372295D01*
X10535239Y-8308795D01*
X10471739Y-8372295D01*
X10535239Y-8435795D01*
X10667891Y-6514623D02*
X10731391Y-6451123D01*
X10667891Y-6387623D01*
X10604391Y-6451123D01*
X10667891Y-6514623D01*
X10670047Y-6230650D02*
X10733547Y-6167150D01*
X10670047Y-6103650D01*
X10606547Y-6167150D01*
X10670047Y-6230650D01*
X10675546Y-13224086D02*
X10739046Y-13160586D01*
X10675546Y-13097086D01*
X10612046Y-13160586D01*
X10675546Y-13224086D01*
X10724373Y-13390377D02*
X10787873Y-13326877D01*
X10724373Y-13263377D01*
X10660873Y-13326877D01*
X10724373Y-13390377D01*
X10856979Y-6702999D02*
X10920479Y-6639499D01*
X10856979Y-6575999D01*
X10793479Y-6639499D01*
X10856979Y-6702999D01*
X11055854Y-9490843D02*
X11119354Y-9427343D01*
X11055854Y-9363843D01*
X10992354Y-9427343D01*
X11055854Y-9490843D01*
X11120522Y-6745250D02*
X11184022Y-6681750D01*
X11120522Y-6618250D01*
X11057022Y-6681750D01*
X11120522Y-6745250D01*
X11216930Y-9716573D02*
X11280430Y-9653073D01*
X11216930Y-9589573D01*
X11153430Y-9653073D01*
X11216930Y-9716573D01*
X11219086Y-9432601D02*
X11282586Y-9369101D01*
X11219086Y-9305601D01*
X11155586Y-9369101D01*
X11219086Y-9432601D01*
X11348994Y-6576591D02*
X11412494Y-6513091D01*
X11348994Y-6449591D01*
X11285494Y-6513091D01*
X11348994Y-6576591D01*
X11397821Y-6742883D02*
X11461321Y-6679383D01*
X11397821Y-6615883D01*
X11334321Y-6679383D01*
X11397821Y-6742883D01*
X11406019Y-9904949D02*
X11469519Y-9841449D01*
X11406019Y-9777949D01*
X11342519Y-9841449D01*
X11406019Y-9904949D01*
X11669562Y-9947200D02*
X11733062Y-9883700D01*
X11669562Y-9820200D01*
X11606062Y-9883700D01*
X11669562Y-9947200D01*
X11898033Y-9778542D02*
X11961533Y-9715042D01*
X11898033Y-9651542D01*
X11834533Y-9715042D01*
X11898033Y-9778542D01*
X11918435Y-7797930D02*
X11981935Y-7734430D01*
X11918435Y-7670930D01*
X11854935Y-7734430D01*
X11918435Y-7797930D01*
X11946860Y-9944833D02*
X12010360Y-9881333D01*
X11946860Y-9817833D01*
X11883360Y-9881333D01*
X11946860Y-9944833D01*
X12079512Y-8023661D02*
X12143012Y-7960161D01*
X12079512Y-7896661D01*
X12016012Y-7960161D01*
X12079512Y-8023661D01*
X12081668Y-7739688D02*
X12145168Y-7676188D01*
X12081668Y-7612688D01*
X12018168Y-7676188D01*
X12081668Y-7739688D01*
X12268601Y-8212037D02*
X12332101Y-8148537D01*
X12268601Y-8085037D01*
X12205101Y-8148537D01*
X12268601Y-8212037D01*
X12532144Y-8254288D02*
X12595644Y-8190788D01*
X12532144Y-8127288D01*
X12468644Y-8190788D01*
X12532144Y-8254288D01*
X12760615Y-8085629D02*
X12824115Y-8022129D01*
X12760615Y-7958629D01*
X12697115Y-8022129D01*
X12760615Y-8085629D01*
X12809442Y-8251921D02*
X12872942Y-8188421D01*
X12809442Y-8124921D01*
X12745942Y-8188421D01*
X12809442Y-8251921D01*
X17780363Y-8251483D02*
X17843863Y-8187983D01*
X17780363Y-8124483D01*
X17716863Y-8187983D01*
X17780363Y-8251483D01*
X17829190Y-8085191D02*
X17892690Y-8021691D01*
X17829190Y-7958191D01*
X17765690Y-8021691D01*
X17829190Y-8085191D01*
X18057661Y-8253850D02*
X18121161Y-8190350D01*
X18057661Y-8126850D01*
X17994161Y-8190350D01*
X18057661Y-8253850D01*
X18321204Y-8211599D02*
X18384704Y-8148099D01*
X18321204Y-8084599D01*
X18257704Y-8148099D01*
X18321204Y-8211599D01*
X18508137Y-7739250D02*
X18571637Y-7675750D01*
X18508137Y-7612250D01*
X18444637Y-7675750D01*
X18508137Y-7739250D01*
X18510293Y-8023223D02*
X18573793Y-7959723D01*
X18510293Y-7896223D01*
X18446793Y-7959723D01*
X18510293Y-8023223D01*
X18642945Y-9944395D02*
X18706445Y-9880895D01*
X18642945Y-9817395D01*
X18579445Y-9880895D01*
X18642945Y-9944395D01*
X18671370Y-7797492D02*
X18734870Y-7733992D01*
X18671370Y-7670492D01*
X18607870Y-7733992D01*
X18671370Y-7797492D01*
X18691772Y-9778104D02*
X18755272Y-9714604D01*
X18691772Y-9651104D01*
X18628272Y-9714604D01*
X18691772Y-9778104D01*
X18920243Y-9946762D02*
X18983743Y-9883262D01*
X18920243Y-9819762D01*
X18856743Y-9883262D01*
X18920243Y-9946762D01*
X19183786Y-9904511D02*
X19247286Y-9841011D01*
X19183786Y-9777511D01*
X19120286Y-9841011D01*
X19183786Y-9904511D01*
X19191985Y-6742445D02*
X19255485Y-6678945D01*
X19191985Y-6615445D01*
X19128485Y-6678945D01*
X19191985Y-6742445D01*
X19240811Y-6576153D02*
X19304311Y-6512653D01*
X19240811Y-6449153D01*
X19177311Y-6512653D01*
X19240811Y-6576153D01*
X19370719Y-9432163D02*
X19434219Y-9368663D01*
X19370719Y-9305163D01*
X19307219Y-9368663D01*
X19370719Y-9432163D01*
X19372875Y-9716135D02*
X19436375Y-9652635D01*
X19372875Y-9589135D01*
X19309375Y-9652635D01*
X19372875Y-9716135D01*
X19469283Y-6744812D02*
X19532783Y-6681312D01*
X19469283Y-6617812D01*
X19405783Y-6681312D01*
X19469283Y-6744812D01*
X19533952Y-9490405D02*
X19597452Y-9426905D01*
X19533952Y-9363405D01*
X19470452Y-9426905D01*
X19533952Y-9490405D01*
X19732826Y-6702561D02*
X19796326Y-6639061D01*
X19732826Y-6575561D01*
X19669326Y-6639061D01*
X19732826Y-6702561D01*
X19865433Y-13389939D02*
X19928933Y-13326439D01*
X19865433Y-13262939D01*
X19801933Y-13326439D01*
X19865433Y-13389939D01*
X19914259Y-13223648D02*
X19977759Y-13160148D01*
X19914259Y-13096648D01*
X19850759Y-13160148D01*
X19914259Y-13223648D01*
X19919758Y-6230212D02*
X19983258Y-6166712D01*
X19919758Y-6103212D01*
X19856258Y-6166712D01*
X19919758Y-6230212D01*
X19921914Y-6514185D02*
X19985414Y-6450685D01*
X19921914Y-6387185D01*
X19858414Y-6450685D01*
X19921914Y-6514185D01*
X20054567Y-8435357D02*
X20118067Y-8371857D01*
X20054567Y-8308357D01*
X19991067Y-8371857D01*
X20054567Y-8435357D01*
X20082991Y-6288454D02*
X20146491Y-6224954D01*
X20082991Y-6161454D01*
X20019491Y-6224954D01*
X20082991Y-6288454D01*
X20103393Y-8269065D02*
X20166893Y-8205565D01*
X20103393Y-8142065D01*
X20039893Y-8205565D01*
X20103393Y-8269065D01*
X20142731Y-13392307D02*
X20206231Y-13328807D01*
X20142731Y-13265307D01*
X20079231Y-13328807D01*
X20142731Y-13392307D01*
X20331865Y-8437724D02*
X20395365Y-8374224D01*
X20331865Y-8310724D01*
X20268365Y-8374224D01*
X20331865Y-8437724D01*
X20406274Y-13350055D02*
X20469774Y-13286555D01*
X20406274Y-13223055D01*
X20342774Y-13286555D01*
X20406274Y-13350055D01*
X20593206Y-12877707D02*
X20656706Y-12814207D01*
X20593206Y-12750707D01*
X20529706Y-12814207D01*
X20593206Y-12877707D01*
X20595362Y-13161679D02*
X20658862Y-13098179D01*
X20595362Y-13034679D01*
X20531862Y-13098179D01*
X20595362Y-13161679D01*
X20595408Y-8395473D02*
X20658908Y-8331973D01*
X20595408Y-8268473D01*
X20531908Y-8331973D01*
X20595408Y-8395473D01*
X20705700Y-5483892D02*
X20769200Y-5420392D01*
X20705700Y-5356892D01*
X20642200Y-5420392D01*
X20705700Y-5483892D01*
X20754527Y-5317600D02*
X20818027Y-5254100D01*
X20754527Y-5190600D01*
X20691027Y-5254100D01*
X20754527Y-5317600D01*
X20756439Y-12935949D02*
X20819939Y-12872449D01*
X20756439Y-12808949D01*
X20692939Y-12872449D01*
X20756439Y-12935949D01*
X20782340Y-7923125D02*
X20845840Y-7859625D01*
X20782340Y-7796125D01*
X20718840Y-7859625D01*
X20782340Y-7923125D01*
X20784496Y-8207097D02*
X20847996Y-8143597D01*
X20784496Y-8080097D01*
X20720996Y-8143597D01*
X20784496Y-8207097D01*
X20917148Y-10128270D02*
X20980648Y-10064770D01*
X20917148Y-10001270D01*
X20853648Y-10064770D01*
X20917148Y-10128270D01*
X20945573Y-7981367D02*
X21009073Y-7917867D01*
X20945573Y-7854367D01*
X20882073Y-7917867D01*
X20945573Y-7981367D01*
X20965975Y-9961978D02*
X21029475Y-9898478D01*
X20965975Y-9834978D01*
X20902475Y-9898478D01*
X20965975Y-9961978D01*
X20982998Y-5486259D02*
X21046498Y-5422759D01*
X20982998Y-5359259D01*
X20919498Y-5422759D01*
X20982998Y-5486259D01*
X21194447Y-10130637D02*
X21257947Y-10067137D01*
X21194447Y-10003637D01*
X21130947Y-10067137D01*
X21194447Y-10130637D01*
X21246541Y-5444008D02*
X21310041Y-5380508D01*
X21246541Y-5317008D01*
X21183041Y-5380508D01*
X21246541Y-5444008D01*
X21392699Y-12104129D02*
X21456199Y-12040629D01*
X21392699Y-11977129D01*
X21329199Y-12040629D01*
X21392699Y-12104129D01*
X21433474Y-4971659D02*
X21496974Y-4908159D01*
X21433474Y-4844659D01*
X21369974Y-4908159D01*
X21433474Y-4971659D01*
X21435630Y-5255632D02*
X21499130Y-5192132D01*
X21435630Y-5128632D01*
X21372130Y-5192132D01*
X21435630Y-5255632D01*
X21441526Y-11937838D02*
X21505026Y-11874338D01*
X21441526Y-11810838D01*
X21378026Y-11874338D01*
X21441526Y-11937838D01*
X21457990Y-10088386D02*
X21521490Y-10024886D01*
X21457990Y-9961386D01*
X21394490Y-10024886D01*
X21457990Y-10088386D01*
X21568282Y-7176804D02*
X21631782Y-7113304D01*
X21568282Y-7049804D01*
X21504782Y-7113304D01*
X21568282Y-7176804D01*
X21596707Y-5029901D02*
X21660207Y-4966401D01*
X21596707Y-4902901D01*
X21533207Y-4966401D01*
X21596707Y-5029901D01*
X21617109Y-7010512D02*
X21680609Y-6947012D01*
X21617109Y-6883512D01*
X21553609Y-6947012D01*
X21617109Y-7010512D01*
X21644922Y-9616037D02*
X21708422Y-9552537D01*
X21644922Y-9489037D01*
X21581422Y-9552537D01*
X21644922Y-9616037D01*
X21647078Y-9900010D02*
X21710578Y-9836510D01*
X21647078Y-9773010D01*
X21583578Y-9836510D01*
X21647078Y-9900010D01*
X21669998Y-12106496D02*
X21733498Y-12042996D01*
X21669998Y-11979496D01*
X21606498Y-12042996D01*
X21669998Y-12106496D01*
X21808155Y-9674279D02*
X21871655Y-9610779D01*
X21808155Y-9547279D01*
X21744655Y-9610779D01*
X21808155Y-9674279D01*
X21845580Y-7179171D02*
X21909080Y-7115671D01*
X21845580Y-7052171D01*
X21782080Y-7115671D01*
X21845580Y-7179171D01*
X21933541Y-12064245D02*
X21997041Y-12000745D01*
X21933541Y-11937245D01*
X21870041Y-12000745D01*
X21933541Y-12064245D01*
X22109123Y-7136920D02*
X22172623Y-7073420D01*
X22109123Y-7009920D01*
X22045623Y-7073420D01*
X22109123Y-7136920D01*
X22120473Y-11591897D02*
X22183973Y-11528397D01*
X22120473Y-11464897D01*
X22056973Y-11528397D01*
X22120473Y-11591897D01*
X22122629Y-11875869D02*
X22186129Y-11812369D01*
X22122629Y-11748869D01*
X22059129Y-11812369D01*
X22122629Y-11875869D01*
X22283706Y-11650139D02*
X22347206Y-11586639D01*
X22283706Y-11523139D01*
X22220206Y-11586639D01*
X22283706Y-11650139D01*
X22296056Y-6664571D02*
X22359556Y-6601071D01*
X22296056Y-6537571D01*
X22232556Y-6601071D01*
X22296056Y-6664571D01*
X22298212Y-6948544D02*
X22361712Y-6885044D01*
X22298212Y-6821544D01*
X22234712Y-6885044D01*
X22298212Y-6948544D01*
X22430864Y-8869716D02*
X22494364Y-8806216D01*
X22430864Y-8742716D01*
X22367364Y-8806216D01*
X22430864Y-8869716D01*
X22459288Y-6722813D02*
X22522788Y-6659313D01*
X22459288Y-6595813D01*
X22395788Y-6659313D01*
X22459288Y-6722813D01*
X22479691Y-8703425D02*
X22543191Y-8639925D01*
X22479691Y-8576425D01*
X22416191Y-8639925D01*
X22479691Y-8703425D01*
X22708162Y-8872084D02*
X22771662Y-8808584D01*
X22708162Y-8745084D01*
X22644662Y-8808584D01*
X22708162Y-8872084D01*
X22971705Y-8829833D02*
X23035205Y-8766333D01*
X22971705Y-8702833D01*
X22908205Y-8766333D01*
X22971705Y-8829833D01*
X23012079Y-5015848D02*
X23075579Y-4952348D01*
X23012079Y-4888848D01*
X22948579Y-4952348D01*
X23012079Y-5015848D01*
X23075213Y-4854444D02*
X23138713Y-4790944D01*
X23075213Y-4727444D01*
X23011713Y-4790944D01*
X23075213Y-4854444D01*
X23158638Y-8357484D02*
X23222138Y-8293984D01*
X23158638Y-8230484D01*
X23095138Y-8293984D01*
X23158638Y-8357484D01*
X23160794Y-8641456D02*
X23224294Y-8577956D01*
X23160794Y-8514456D01*
X23097294Y-8577956D01*
X23160794Y-8641456D01*
X23288115Y-5042374D02*
X23351615Y-4978874D01*
X23288115Y-4915374D01*
X23224615Y-4978874D01*
X23288115Y-5042374D01*
X23321870Y-8415726D02*
X23385370Y-8352226D01*
X23321870Y-8288726D01*
X23258370Y-8352226D01*
X23321870Y-8415726D01*
X23554338Y-5023253D02*
X23617838Y-4959753D01*
X23554338Y-4896253D01*
X23490838Y-4959753D01*
X23554338Y-5023253D01*
X23723831Y-6777497D02*
X23787331Y-6713997D01*
X23723831Y-6650497D01*
X23660331Y-6713997D01*
X23723831Y-6777497D01*
X23759125Y-4852074D02*
X23822625Y-4788574D01*
X23759125Y-4725074D01*
X23695625Y-4788574D01*
X23759125Y-4852074D01*
X23781727Y-4568994D02*
X23845227Y-4505494D01*
X23781727Y-4441994D01*
X23718227Y-4505494D01*
X23781727Y-4568994D01*
X23786965Y-6616094D02*
X23850465Y-6552594D01*
X23786965Y-6489094D01*
X23723465Y-6552594D01*
X23786965Y-6616094D01*
X23939262Y-4641241D02*
X24002762Y-4577741D01*
X23939262Y-4514241D01*
X23875762Y-4577741D01*
X23939262Y-4641241D01*
X23999868Y-6804023D02*
X24063368Y-6740523D01*
X23999868Y-6677023D01*
X23936368Y-6740523D01*
X23999868Y-6804023D01*
X24266090Y-6784902D02*
X24329590Y-6721402D01*
X24266090Y-6657902D01*
X24202590Y-6721402D01*
X24266090Y-6784902D01*
X24435584Y-8539146D02*
X24499084Y-8475646D01*
X24435584Y-8412146D01*
X24372084Y-8475646D01*
X24435584Y-8539146D01*
X24470877Y-6613723D02*
X24534377Y-6550223D01*
X24470877Y-6486723D01*
X24407377Y-6550223D01*
X24470877Y-6613723D01*
X24493480Y-6330643D02*
X24556980Y-6267143D01*
X24493480Y-6203643D01*
X24429980Y-6267143D01*
X24493480Y-6330643D01*
X24498718Y-8377743D02*
X24562218Y-8314243D01*
X24498718Y-8250743D01*
X24435218Y-8314243D01*
X24498718Y-8377743D01*
X24651015Y-6402890D02*
X24714515Y-6339390D01*
X24651015Y-6275890D01*
X24587515Y-6339390D01*
X24651015Y-6402890D01*
X24711620Y-8565673D02*
X24775120Y-8502173D01*
X24711620Y-8438673D01*
X24648120Y-8502173D01*
X24711620Y-8565673D01*
X24977843Y-8546552D02*
X25041343Y-8483052D01*
X24977843Y-8419552D01*
X24914343Y-8483052D01*
X24977843Y-8546552D01*
X25182630Y-8375372D02*
X25246130Y-8311872D01*
X25182630Y-8248372D01*
X25119130Y-8311872D01*
X25182630Y-8375372D01*
X25205232Y-8092293D02*
X25268732Y-8028793D01*
X25205232Y-7965293D01*
X25141732Y-8028793D01*
X25205232Y-8092293D01*
X25362767Y-8164540D02*
X25426267Y-8101040D01*
X25362767Y-8037540D01*
X25299267Y-8101040D01*
X25362767Y-8164540D01*
X25466519Y-5182365D02*
X25530019Y-5118865D01*
X25466519Y-5055365D01*
X25403019Y-5118865D01*
X25466519Y-5182365D01*
X25548853Y-5029859D02*
X25612353Y-4966359D01*
X25548853Y-4902859D01*
X25485353Y-4966359D01*
X25548853Y-5029859D01*
X25737265Y-5242334D02*
X25800765Y-5178834D01*
X25737265Y-5115334D01*
X25673765Y-5178834D01*
X25737265Y-5242334D01*
X25958901Y-7017953D02*
X26022401Y-6954453D01*
X25958901Y-6890953D01*
X25895401Y-6954453D01*
X25958901Y-7017953D01*
X26003834Y-5255800D02*
X26067334Y-5192300D01*
X26003834Y-5128800D01*
X25940334Y-5192300D01*
X26003834Y-5255800D01*
X26041235Y-6865447D02*
X26104735Y-6801947D01*
X26041235Y-6738447D01*
X25977735Y-6801947D01*
X26041235Y-6865447D01*
X26227956Y-5110854D02*
X26291456Y-5047354D01*
X26227956Y-4983854D01*
X26164456Y-5047354D01*
X26227956Y-5110854D01*
X26229648Y-7077922D02*
X26293148Y-7014422D01*
X26229648Y-6950922D01*
X26166148Y-7014422D01*
X26229648Y-7077922D01*
X26284888Y-4832639D02*
X26348388Y-4769139D01*
X26284888Y-4705639D01*
X26221388Y-4769139D01*
X26284888Y-4832639D01*
X26432445Y-4923546D02*
X26495945Y-4860046D01*
X26432445Y-4796546D01*
X26368945Y-4860046D01*
X26432445Y-4923546D01*
X26496216Y-7091388D02*
X26559716Y-7027888D01*
X26496216Y-6964388D01*
X26432716Y-7027888D01*
X26496216Y-7091388D01*
X26720338Y-6946442D02*
X26783838Y-6882942D01*
X26720338Y-6819442D01*
X26656838Y-6882942D01*
X26720338Y-6946442D01*
X26777271Y-6668226D02*
X26840771Y-6604726D01*
X26777271Y-6541226D01*
X26713771Y-6604726D01*
X26777271Y-6668226D01*
X26924827Y-6759134D02*
X26988327Y-6695634D01*
X26924827Y-6632134D01*
X26861327Y-6695634D01*
X26924827Y-6759134D01*
D18*
X14032000Y-7306200D02*
X14162000Y-7436200D01*
X14162000Y-7306200D02*
X14032000Y-7436200D01*
X14162000Y-7371200D02*
G75*
G03*
X14162000Y-7371200I-65000J0D01*
G01*
X14032000Y-7956200D02*
X14162000Y-8086200D01*
X14162000Y-7956200D02*
X14032000Y-8086200D01*
X14162000Y-8021200D02*
G75*
G03*
X14162000Y-8021200I-65000J0D01*
G01*
D19*
X11815374Y-11841608D02*
X11965374Y-11991608D01*
X11965374Y-11841608D02*
X11815374Y-11991608D01*
X11890374Y-11841608D02*
X11890374Y-11991608D01*
X11815374Y-11916608D02*
X11965374Y-11916608D01*
D12*
X11977799Y-11888202D02*
X11861968Y-11829183D01*
X11918780Y-12004033D02*
X11802950Y-11945014D01*
X11861968Y-11829183D02*
G75*
G03*
X11802950Y-11945014I-29509J-57915D01*
G01*
X11918780Y-12004033D02*
G75*
G03*
X11977799Y-11888202I29509J57915D01*
G01*
D19*
X12323844Y-10843681D02*
X12473844Y-10993681D01*
X12473844Y-10843681D02*
X12323844Y-10993681D01*
X12398844Y-10843681D02*
X12398844Y-10993681D01*
X12323844Y-10918681D02*
X12473844Y-10918681D01*
D12*
X12486269Y-10890275D02*
X12370438Y-10831256D01*
X12427250Y-11006105D02*
X12311419Y-10947087D01*
X12370438Y-10831256D02*
G75*
G03*
X12311419Y-10947087I-29509J-57915D01*
G01*
X12427250Y-11006105D02*
G75*
G03*
X12486269Y-10890275I29509J57915D01*
G01*
D19*
X18105565Y-10845036D02*
X18255565Y-10995036D01*
X18255565Y-10845036D02*
X18105565Y-10995036D01*
X18180565Y-10845036D02*
X18180565Y-10995036D01*
X18105565Y-10920036D02*
X18255565Y-10920036D01*
D12*
X18152159Y-11007461D02*
X18267990Y-10948442D01*
X18093141Y-10891630D02*
X18208971Y-10832612D01*
X18267990Y-10948442D02*
G75*
G03*
X18208971Y-10832612I-29509J57915D01*
G01*
X18093141Y-10891630D02*
G75*
G03*
X18152159Y-11007461I29509J-57915D01*
G01*
D19*
X18614035Y-11842964D02*
X18764035Y-11992964D01*
X18764035Y-11842964D02*
X18614035Y-11992964D01*
X18689035Y-11842964D02*
X18689035Y-11992964D01*
X18614035Y-11917964D02*
X18764035Y-11917964D01*
D12*
X18660629Y-12005388D02*
X18776460Y-11946370D01*
X18601610Y-11889558D02*
X18717441Y-11830539D01*
X18776460Y-11946370D02*
G75*
G03*
X18717441Y-11830539I-29509J57915D01*
G01*
X18601610Y-11889558D02*
G75*
G03*
X18660629Y-12005388I29509J-57915D01*
G01*
D20*
X5606738Y-4858760D02*
X5906738Y-5158760D01*
X5906738Y-4858760D02*
X5606738Y-5158760D01*
X5862805Y-5114827D02*
X5862805Y-4902693D01*
X5650671Y-4902693D01*
X5650671Y-5114827D01*
X5862805Y-5114827D01*
X10809800Y-10119000D02*
X11109800Y-10419000D01*
X11109800Y-10119000D02*
X10809800Y-10419000D01*
X11065867Y-10375067D02*
X11065867Y-10162933D01*
X10853733Y-10162933D01*
X10853733Y-10375067D01*
X11065867Y-10375067D01*
X11381896Y-6950061D02*
X11681896Y-7250061D01*
X11681896Y-6950061D02*
X11381896Y-7250061D01*
X11637963Y-7206128D02*
X11637963Y-6993994D01*
X11425829Y-6993994D01*
X11425829Y-7206128D01*
X11637963Y-7206128D01*
X18849200Y-7012800D02*
X19149200Y-7312800D01*
X19149200Y-7012800D02*
X18849200Y-7312800D01*
X19105267Y-7268867D02*
X19105267Y-7056733D01*
X18893133Y-7056733D01*
X18893133Y-7268867D01*
X19105267Y-7268867D01*
X19865200Y-10746600D02*
X20165200Y-11046600D01*
X20165200Y-10746600D02*
X19865200Y-11046600D01*
X20121267Y-11002667D02*
X20121267Y-10790533D01*
X19909133Y-10790533D01*
X19909133Y-11002667D01*
X20121267Y-11002667D01*
X24639660Y-4843451D02*
X24939660Y-5143451D01*
X24939660Y-4843451D02*
X24639660Y-5143451D01*
X24895727Y-5099518D02*
X24895727Y-4887384D01*
X24683593Y-4887384D01*
X24683593Y-5099518D01*
X24895727Y-5099518D01*
D12*
X3310761Y-14127112D02*
X3310761Y-13927112D01*
X3358380Y-13927112D01*
X3386952Y-13936636D01*
X3405999Y-13955684D01*
X3415523Y-13974731D01*
X3425047Y-14012827D01*
X3425047Y-14041398D01*
X3415523Y-14079493D01*
X3405999Y-14098541D01*
X3386952Y-14117589D01*
X3358380Y-14127112D01*
X3310761Y-14127112D01*
X3510761Y-14127112D02*
X3510761Y-13993779D01*
X3510761Y-14031874D02*
X3520285Y-14012827D01*
X3529809Y-14003303D01*
X3548856Y-13993779D01*
X3567904Y-13993779D01*
X3634571Y-14127112D02*
X3634571Y-13993779D01*
X3634571Y-13927112D02*
X3625047Y-13936636D01*
X3634571Y-13946160D01*
X3644095Y-13936636D01*
X3634571Y-13927112D01*
X3634571Y-13946160D01*
X3758380Y-14127112D02*
X3739333Y-14117589D01*
X3729809Y-14098541D01*
X3729809Y-13927112D01*
X3863142Y-14127112D02*
X3844095Y-14117589D01*
X3834571Y-14098541D01*
X3834571Y-13927112D01*
X4091714Y-14127112D02*
X4091714Y-13927112D01*
X4158380Y-14069970D01*
X4225047Y-13927112D01*
X4225047Y-14127112D01*
X4405999Y-14127112D02*
X4405999Y-14022350D01*
X4396476Y-14003303D01*
X4377428Y-13993779D01*
X4339333Y-13993779D01*
X4320285Y-14003303D01*
X4405999Y-14117589D02*
X4386952Y-14127112D01*
X4339333Y-14127112D01*
X4320285Y-14117589D01*
X4310761Y-14098541D01*
X4310761Y-14079493D01*
X4320285Y-14060446D01*
X4339333Y-14050922D01*
X4386952Y-14050922D01*
X4405999Y-14041398D01*
X4501238Y-13993779D02*
X4501238Y-14193779D01*
X4501238Y-14003303D02*
X4520285Y-13993779D01*
X4558380Y-13993779D01*
X4577428Y-14003303D01*
X4586952Y-14012827D01*
X4596476Y-14031874D01*
X4596476Y-14089017D01*
X4586952Y-14108065D01*
X4577428Y-14117589D01*
X4558380Y-14127112D01*
X4520285Y-14127112D01*
X4501238Y-14117589D01*
X4682190Y-14108065D02*
X4691714Y-14117589D01*
X4682190Y-14127112D01*
X4672666Y-14117589D01*
X4682190Y-14108065D01*
X4682190Y-14127112D01*
X4682190Y-14003303D02*
X4691714Y-14012827D01*
X4682190Y-14022350D01*
X4672666Y-14012827D01*
X4682190Y-14003303D01*
X4682190Y-14022350D01*
D13*
X3013142Y-14436636D02*
X3053142Y-14476636D01*
X3053142Y-14436636D02*
X3013142Y-14476636D01*
D12*
X3348856Y-14347112D02*
X3367904Y-14347112D01*
X3386952Y-14356636D01*
X3396476Y-14366160D01*
X3405999Y-14385208D01*
X3415523Y-14423303D01*
X3415523Y-14470922D01*
X3405999Y-14509017D01*
X3396476Y-14528065D01*
X3386952Y-14537589D01*
X3367904Y-14547112D01*
X3348856Y-14547112D01*
X3329809Y-14537589D01*
X3320285Y-14528065D01*
X3310761Y-14509017D01*
X3301237Y-14470922D01*
X3301237Y-14423303D01*
X3310761Y-14385208D01*
X3320285Y-14366160D01*
X3329809Y-14356636D01*
X3348856Y-14347112D01*
X3501237Y-14528065D02*
X3510761Y-14537589D01*
X3501237Y-14547112D01*
X3491714Y-14537589D01*
X3501237Y-14528065D01*
X3501237Y-14547112D01*
X3682190Y-14413779D02*
X3682190Y-14547112D01*
X3634571Y-14337589D02*
X3586952Y-14480446D01*
X3710761Y-14480446D01*
X3825047Y-14347112D02*
X3844095Y-14347112D01*
X3863142Y-14356636D01*
X3872666Y-14366160D01*
X3882190Y-14385208D01*
X3891714Y-14423303D01*
X3891714Y-14470922D01*
X3882190Y-14509017D01*
X3872666Y-14528065D01*
X3863142Y-14537589D01*
X3844095Y-14547112D01*
X3825047Y-14547112D01*
X3805999Y-14537589D01*
X3796476Y-14528065D01*
X3786952Y-14509017D01*
X3777428Y-14470922D01*
X3777428Y-14423303D01*
X3786952Y-14385208D01*
X3796476Y-14366160D01*
X3805999Y-14356636D01*
X3825047Y-14347112D01*
X4015523Y-14347112D02*
X4034571Y-14347112D01*
X4053618Y-14356636D01*
X4063142Y-14366160D01*
X4072666Y-14385208D01*
X4082190Y-14423303D01*
X4082190Y-14470922D01*
X4072666Y-14509017D01*
X4063142Y-14528065D01*
X4053618Y-14537589D01*
X4034571Y-14547112D01*
X4015523Y-14547112D01*
X3996476Y-14537589D01*
X3986952Y-14528065D01*
X3977428Y-14509017D01*
X3967904Y-14470922D01*
X3967904Y-14423303D01*
X3977428Y-14385208D01*
X3986952Y-14366160D01*
X3996476Y-14356636D01*
X4015523Y-14347112D01*
X4167904Y-14547112D02*
X4167904Y-14413779D01*
X4167904Y-14432827D02*
X4177428Y-14423303D01*
X4196476Y-14413779D01*
X4225047Y-14413779D01*
X4244095Y-14423303D01*
X4253618Y-14442350D01*
X4253618Y-14547112D01*
X4253618Y-14442350D02*
X4263142Y-14423303D01*
X4282190Y-14413779D01*
X4310761Y-14413779D01*
X4329809Y-14423303D01*
X4339333Y-14442350D01*
X4339333Y-14547112D01*
X4434571Y-14547112D02*
X4434571Y-14413779D01*
X4434571Y-14432827D02*
X4444095Y-14423303D01*
X4463142Y-14413779D01*
X4491714Y-14413779D01*
X4510761Y-14423303D01*
X4520285Y-14442350D01*
X4520285Y-14547112D01*
X4520285Y-14442350D02*
X4529809Y-14423303D01*
X4548857Y-14413779D01*
X4577428Y-14413779D01*
X4596476Y-14423303D01*
X4605999Y-14442350D01*
X4605999Y-14547112D01*
X4996476Y-14337589D02*
X4825047Y-14594731D01*
X5253618Y-14347112D02*
X5272666Y-14347112D01*
X5291714Y-14356636D01*
X5301238Y-14366160D01*
X5310761Y-14385208D01*
X5320285Y-14423303D01*
X5320285Y-14470922D01*
X5310761Y-14509017D01*
X5301238Y-14528065D01*
X5291714Y-14537589D01*
X5272666Y-14547112D01*
X5253618Y-14547112D01*
X5234571Y-14537589D01*
X5225047Y-14528065D01*
X5215523Y-14509017D01*
X5205999Y-14470922D01*
X5205999Y-14423303D01*
X5215523Y-14385208D01*
X5225047Y-14366160D01*
X5234571Y-14356636D01*
X5253618Y-14347112D01*
X5405999Y-14528065D02*
X5415523Y-14537589D01*
X5405999Y-14547112D01*
X5396476Y-14537589D01*
X5405999Y-14528065D01*
X5405999Y-14547112D01*
X5539333Y-14347112D02*
X5558380Y-14347112D01*
X5577428Y-14356636D01*
X5586952Y-14366160D01*
X5596476Y-14385208D01*
X5605999Y-14423303D01*
X5605999Y-14470922D01*
X5596476Y-14509017D01*
X5586952Y-14528065D01*
X5577428Y-14537589D01*
X5558380Y-14547112D01*
X5539333Y-14547112D01*
X5520285Y-14537589D01*
X5510761Y-14528065D01*
X5501238Y-14509017D01*
X5491714Y-14470922D01*
X5491714Y-14423303D01*
X5501238Y-14385208D01*
X5510761Y-14366160D01*
X5520285Y-14356636D01*
X5539333Y-14347112D01*
X5796476Y-14547112D02*
X5682190Y-14547112D01*
X5739333Y-14547112D02*
X5739333Y-14347112D01*
X5720285Y-14375684D01*
X5701237Y-14394731D01*
X5682190Y-14404255D01*
X5977428Y-14347112D02*
X5882190Y-14347112D01*
X5872666Y-14442350D01*
X5882190Y-14432827D01*
X5901237Y-14423303D01*
X5948856Y-14423303D01*
X5967904Y-14432827D01*
X5977428Y-14442350D01*
X5986952Y-14461398D01*
X5986952Y-14509017D01*
X5977428Y-14528065D01*
X5967904Y-14537589D01*
X5948856Y-14547112D01*
X5901237Y-14547112D01*
X5882190Y-14537589D01*
X5872666Y-14528065D01*
X6053618Y-14347112D02*
X6186952Y-14347112D01*
X6101237Y-14547112D01*
X6253618Y-14347112D02*
X6253618Y-14385208D01*
X6329809Y-14347112D02*
X6329809Y-14385208D01*
X6625047Y-14623303D02*
X6615523Y-14613779D01*
X6596476Y-14585208D01*
X6586952Y-14566160D01*
X6577428Y-14537589D01*
X6567904Y-14489970D01*
X6567904Y-14451874D01*
X6577428Y-14404255D01*
X6586952Y-14375684D01*
X6596476Y-14356636D01*
X6615523Y-14328065D01*
X6625047Y-14318541D01*
X6682190Y-14347112D02*
X6815523Y-14347112D01*
X6729809Y-14547112D01*
X6996476Y-14547112D02*
X6882190Y-14547112D01*
X6939333Y-14547112D02*
X6939333Y-14347112D01*
X6920285Y-14375684D01*
X6901237Y-14394731D01*
X6882190Y-14404255D01*
X7234571Y-14547112D02*
X7234571Y-14347112D01*
X7320285Y-14547112D02*
X7320285Y-14442350D01*
X7310761Y-14423303D01*
X7291714Y-14413779D01*
X7263142Y-14413779D01*
X7244095Y-14423303D01*
X7234571Y-14432827D01*
X7444095Y-14547112D02*
X7425047Y-14537589D01*
X7415523Y-14528065D01*
X7405999Y-14509017D01*
X7405999Y-14451874D01*
X7415523Y-14432827D01*
X7425047Y-14423303D01*
X7444095Y-14413779D01*
X7472666Y-14413779D01*
X7491714Y-14423303D01*
X7501237Y-14432827D01*
X7510761Y-14451874D01*
X7510761Y-14509017D01*
X7501237Y-14528065D01*
X7491714Y-14537589D01*
X7472666Y-14547112D01*
X7444095Y-14547112D01*
X7625047Y-14547112D02*
X7605999Y-14537589D01*
X7596476Y-14518541D01*
X7596476Y-14347112D01*
X7777428Y-14537589D02*
X7758380Y-14547112D01*
X7720285Y-14547112D01*
X7701237Y-14537589D01*
X7691714Y-14518541D01*
X7691714Y-14442350D01*
X7701237Y-14423303D01*
X7720285Y-14413779D01*
X7758380Y-14413779D01*
X7777428Y-14423303D01*
X7786952Y-14442350D01*
X7786952Y-14461398D01*
X7691714Y-14480446D01*
X7863142Y-14537589D02*
X7882190Y-14547112D01*
X7920285Y-14547112D01*
X7939333Y-14537589D01*
X7948856Y-14518541D01*
X7948856Y-14509017D01*
X7939333Y-14489970D01*
X7920285Y-14480446D01*
X7891714Y-14480446D01*
X7872666Y-14470922D01*
X7863142Y-14451874D01*
X7863142Y-14442350D01*
X7872666Y-14423303D01*
X7891714Y-14413779D01*
X7920285Y-14413779D01*
X7939333Y-14423303D01*
X8015523Y-14623303D02*
X8025047Y-14613779D01*
X8044095Y-14585208D01*
X8053618Y-14566160D01*
X8063142Y-14537589D01*
X8072666Y-14489970D01*
X8072666Y-14451874D01*
X8063142Y-14404255D01*
X8053618Y-14375684D01*
X8044095Y-14356636D01*
X8025047Y-14328065D01*
X8015523Y-14318541D01*
D14*
X3053142Y-14720636D02*
G75*
G03*
X3053142Y-14720636I-40640J0D01*
G01*
D12*
X3348856Y-14611112D02*
X3367904Y-14611112D01*
X3386952Y-14620636D01*
X3396476Y-14630160D01*
X3405999Y-14649208D01*
X3415523Y-14687303D01*
X3415523Y-14734922D01*
X3405999Y-14773017D01*
X3396476Y-14792065D01*
X3386952Y-14801589D01*
X3367904Y-14811112D01*
X3348856Y-14811112D01*
X3329809Y-14801589D01*
X3320285Y-14792065D01*
X3310761Y-14773017D01*
X3301237Y-14734922D01*
X3301237Y-14687303D01*
X3310761Y-14649208D01*
X3320285Y-14630160D01*
X3329809Y-14620636D01*
X3348856Y-14611112D01*
X3501237Y-14792065D02*
X3510761Y-14801589D01*
X3501237Y-14811112D01*
X3491714Y-14801589D01*
X3501237Y-14792065D01*
X3501237Y-14811112D01*
X3625047Y-14696827D02*
X3605999Y-14687303D01*
X3596476Y-14677779D01*
X3586952Y-14658731D01*
X3586952Y-14649208D01*
X3596476Y-14630160D01*
X3605999Y-14620636D01*
X3625047Y-14611112D01*
X3663142Y-14611112D01*
X3682190Y-14620636D01*
X3691714Y-14630160D01*
X3701237Y-14649208D01*
X3701237Y-14658731D01*
X3691714Y-14677779D01*
X3682190Y-14687303D01*
X3663142Y-14696827D01*
X3625047Y-14696827D01*
X3605999Y-14706350D01*
X3596476Y-14715874D01*
X3586952Y-14734922D01*
X3586952Y-14773017D01*
X3596476Y-14792065D01*
X3605999Y-14801589D01*
X3625047Y-14811112D01*
X3663142Y-14811112D01*
X3682190Y-14801589D01*
X3691714Y-14792065D01*
X3701237Y-14773017D01*
X3701237Y-14734922D01*
X3691714Y-14715874D01*
X3682190Y-14706350D01*
X3663142Y-14696827D01*
X3891714Y-14811112D02*
X3777428Y-14811112D01*
X3834571Y-14811112D02*
X3834571Y-14611112D01*
X3815523Y-14639684D01*
X3796476Y-14658731D01*
X3777428Y-14668255D01*
X3958380Y-14611112D02*
X4082190Y-14611112D01*
X4015523Y-14687303D01*
X4044095Y-14687303D01*
X4063142Y-14696827D01*
X4072666Y-14706350D01*
X4082190Y-14725398D01*
X4082190Y-14773017D01*
X4072666Y-14792065D01*
X4063142Y-14801589D01*
X4044095Y-14811112D01*
X3986952Y-14811112D01*
X3967904Y-14801589D01*
X3958380Y-14792065D01*
X4167904Y-14811112D02*
X4167904Y-14677779D01*
X4167904Y-14696827D02*
X4177428Y-14687303D01*
X4196476Y-14677779D01*
X4225047Y-14677779D01*
X4244095Y-14687303D01*
X4253618Y-14706350D01*
X4253618Y-14811112D01*
X4253618Y-14706350D02*
X4263142Y-14687303D01*
X4282190Y-14677779D01*
X4310761Y-14677779D01*
X4329809Y-14687303D01*
X4339333Y-14706350D01*
X4339333Y-14811112D01*
X4434571Y-14811112D02*
X4434571Y-14677779D01*
X4434571Y-14696827D02*
X4444095Y-14687303D01*
X4463142Y-14677779D01*
X4491714Y-14677779D01*
X4510761Y-14687303D01*
X4520285Y-14706350D01*
X4520285Y-14811112D01*
X4520285Y-14706350D02*
X4529809Y-14687303D01*
X4548857Y-14677779D01*
X4577428Y-14677779D01*
X4596476Y-14687303D01*
X4605999Y-14706350D01*
X4605999Y-14811112D01*
X4996476Y-14601589D02*
X4825047Y-14858731D01*
X5253618Y-14611112D02*
X5272666Y-14611112D01*
X5291714Y-14620636D01*
X5301238Y-14630160D01*
X5310761Y-14649208D01*
X5320285Y-14687303D01*
X5320285Y-14734922D01*
X5310761Y-14773017D01*
X5301238Y-14792065D01*
X5291714Y-14801589D01*
X5272666Y-14811112D01*
X5253618Y-14811112D01*
X5234571Y-14801589D01*
X5225047Y-14792065D01*
X5215523Y-14773017D01*
X5205999Y-14734922D01*
X5205999Y-14687303D01*
X5215523Y-14649208D01*
X5225047Y-14630160D01*
X5234571Y-14620636D01*
X5253618Y-14611112D01*
X5405999Y-14792065D02*
X5415523Y-14801589D01*
X5405999Y-14811112D01*
X5396476Y-14801589D01*
X5405999Y-14792065D01*
X5405999Y-14811112D01*
X5539333Y-14611112D02*
X5558380Y-14611112D01*
X5577428Y-14620636D01*
X5586952Y-14630160D01*
X5596476Y-14649208D01*
X5605999Y-14687303D01*
X5605999Y-14734922D01*
X5596476Y-14773017D01*
X5586952Y-14792065D01*
X5577428Y-14801589D01*
X5558380Y-14811112D01*
X5539333Y-14811112D01*
X5520285Y-14801589D01*
X5510761Y-14792065D01*
X5501238Y-14773017D01*
X5491714Y-14734922D01*
X5491714Y-14687303D01*
X5501238Y-14649208D01*
X5510761Y-14630160D01*
X5520285Y-14620636D01*
X5539333Y-14611112D01*
X5672666Y-14611112D02*
X5796476Y-14611112D01*
X5729809Y-14687303D01*
X5758380Y-14687303D01*
X5777428Y-14696827D01*
X5786952Y-14706350D01*
X5796476Y-14725398D01*
X5796476Y-14773017D01*
X5786952Y-14792065D01*
X5777428Y-14801589D01*
X5758380Y-14811112D01*
X5701237Y-14811112D01*
X5682190Y-14801589D01*
X5672666Y-14792065D01*
X5872666Y-14630160D02*
X5882190Y-14620636D01*
X5901237Y-14611112D01*
X5948856Y-14611112D01*
X5967904Y-14620636D01*
X5977428Y-14630160D01*
X5986952Y-14649208D01*
X5986952Y-14668255D01*
X5977428Y-14696827D01*
X5863142Y-14811112D01*
X5986952Y-14811112D01*
X6110761Y-14611112D02*
X6129809Y-14611112D01*
X6148856Y-14620636D01*
X6158380Y-14630160D01*
X6167904Y-14649208D01*
X6177428Y-14687303D01*
X6177428Y-14734922D01*
X6167904Y-14773017D01*
X6158380Y-14792065D01*
X6148856Y-14801589D01*
X6129809Y-14811112D01*
X6110761Y-14811112D01*
X6091714Y-14801589D01*
X6082190Y-14792065D01*
X6072666Y-14773017D01*
X6063142Y-14734922D01*
X6063142Y-14687303D01*
X6072666Y-14649208D01*
X6082190Y-14630160D01*
X6091714Y-14620636D01*
X6110761Y-14611112D01*
X6253618Y-14611112D02*
X6253618Y-14649208D01*
X6329809Y-14611112D02*
X6329809Y-14649208D01*
X6625047Y-14887303D02*
X6615523Y-14877779D01*
X6596476Y-14849208D01*
X6586952Y-14830160D01*
X6577428Y-14801589D01*
X6567904Y-14753970D01*
X6567904Y-14715874D01*
X6577428Y-14668255D01*
X6586952Y-14639684D01*
X6596476Y-14620636D01*
X6615523Y-14592065D01*
X6625047Y-14582541D01*
X6691714Y-14630160D02*
X6701237Y-14620636D01*
X6720285Y-14611112D01*
X6767904Y-14611112D01*
X6786952Y-14620636D01*
X6796476Y-14630160D01*
X6805999Y-14649208D01*
X6805999Y-14668255D01*
X6796476Y-14696827D01*
X6682190Y-14811112D01*
X6805999Y-14811112D01*
X6977428Y-14677779D02*
X6977428Y-14811112D01*
X6929809Y-14601589D02*
X6882190Y-14744446D01*
X7005999Y-14744446D01*
X7234571Y-14811112D02*
X7234571Y-14611112D01*
X7320285Y-14811112D02*
X7320285Y-14706350D01*
X7310761Y-14687303D01*
X7291714Y-14677779D01*
X7263142Y-14677779D01*
X7244095Y-14687303D01*
X7234571Y-14696827D01*
X7444095Y-14811112D02*
X7425047Y-14801589D01*
X7415523Y-14792065D01*
X7405999Y-14773017D01*
X7405999Y-14715874D01*
X7415523Y-14696827D01*
X7425047Y-14687303D01*
X7444095Y-14677779D01*
X7472666Y-14677779D01*
X7491714Y-14687303D01*
X7501237Y-14696827D01*
X7510761Y-14715874D01*
X7510761Y-14773017D01*
X7501237Y-14792065D01*
X7491714Y-14801589D01*
X7472666Y-14811112D01*
X7444095Y-14811112D01*
X7625047Y-14811112D02*
X7605999Y-14801589D01*
X7596476Y-14782541D01*
X7596476Y-14611112D01*
X7777428Y-14801589D02*
X7758380Y-14811112D01*
X7720285Y-14811112D01*
X7701237Y-14801589D01*
X7691714Y-14782541D01*
X7691714Y-14706350D01*
X7701237Y-14687303D01*
X7720285Y-14677779D01*
X7758380Y-14677779D01*
X7777428Y-14687303D01*
X7786952Y-14706350D01*
X7786952Y-14725398D01*
X7691714Y-14744446D01*
X7863142Y-14801589D02*
X7882190Y-14811112D01*
X7920285Y-14811112D01*
X7939333Y-14801589D01*
X7948856Y-14782541D01*
X7948856Y-14773017D01*
X7939333Y-14753970D01*
X7920285Y-14744446D01*
X7891714Y-14744446D01*
X7872666Y-14734922D01*
X7863142Y-14715874D01*
X7863142Y-14706350D01*
X7872666Y-14687303D01*
X7891714Y-14677779D01*
X7920285Y-14677779D01*
X7939333Y-14687303D01*
X8015523Y-14887303D02*
X8025047Y-14877779D01*
X8044095Y-14849208D01*
X8053618Y-14830160D01*
X8063142Y-14801589D01*
X8072666Y-14753970D01*
X8072666Y-14715874D01*
X8063142Y-14668255D01*
X8053618Y-14639684D01*
X8044095Y-14620636D01*
X8025047Y-14592065D01*
X8015523Y-14582541D01*
D15*
X3003142Y-14934636D02*
X3003142Y-15034636D01*
X2953142Y-14984636D02*
X3053142Y-14984636D01*
D12*
X3415523Y-15075112D02*
X3301237Y-15075112D01*
X3358380Y-15075112D02*
X3358380Y-14875112D01*
X3339333Y-14903684D01*
X3320285Y-14922731D01*
X3301237Y-14932255D01*
X3501237Y-15056065D02*
X3510761Y-15065589D01*
X3501237Y-15075112D01*
X3491714Y-15065589D01*
X3501237Y-15056065D01*
X3501237Y-15075112D01*
X3634571Y-14875112D02*
X3653618Y-14875112D01*
X3672666Y-14884636D01*
X3682190Y-14894160D01*
X3691714Y-14913208D01*
X3701237Y-14951303D01*
X3701237Y-14998922D01*
X3691714Y-15037017D01*
X3682190Y-15056065D01*
X3672666Y-15065589D01*
X3653618Y-15075112D01*
X3634571Y-15075112D01*
X3615523Y-15065589D01*
X3605999Y-15056065D01*
X3596476Y-15037017D01*
X3586952Y-14998922D01*
X3586952Y-14951303D01*
X3596476Y-14913208D01*
X3605999Y-14894160D01*
X3615523Y-14884636D01*
X3634571Y-14875112D01*
X3825047Y-14875112D02*
X3844095Y-14875112D01*
X3863142Y-14884636D01*
X3872666Y-14894160D01*
X3882190Y-14913208D01*
X3891714Y-14951303D01*
X3891714Y-14998922D01*
X3882190Y-15037017D01*
X3872666Y-15056065D01*
X3863142Y-15065589D01*
X3844095Y-15075112D01*
X3825047Y-15075112D01*
X3805999Y-15065589D01*
X3796476Y-15056065D01*
X3786952Y-15037017D01*
X3777428Y-14998922D01*
X3777428Y-14951303D01*
X3786952Y-14913208D01*
X3796476Y-14894160D01*
X3805999Y-14884636D01*
X3825047Y-14875112D01*
X4015523Y-14875112D02*
X4034571Y-14875112D01*
X4053618Y-14884636D01*
X4063142Y-14894160D01*
X4072666Y-14913208D01*
X4082190Y-14951303D01*
X4082190Y-14998922D01*
X4072666Y-15037017D01*
X4063142Y-15056065D01*
X4053618Y-15065589D01*
X4034571Y-15075112D01*
X4015523Y-15075112D01*
X3996476Y-15065589D01*
X3986952Y-15056065D01*
X3977428Y-15037017D01*
X3967904Y-14998922D01*
X3967904Y-14951303D01*
X3977428Y-14913208D01*
X3986952Y-14894160D01*
X3996476Y-14884636D01*
X4015523Y-14875112D01*
X4167904Y-15075112D02*
X4167904Y-14941779D01*
X4167904Y-14960827D02*
X4177428Y-14951303D01*
X4196476Y-14941779D01*
X4225047Y-14941779D01*
X4244095Y-14951303D01*
X4253618Y-14970350D01*
X4253618Y-15075112D01*
X4253618Y-14970350D02*
X4263142Y-14951303D01*
X4282190Y-14941779D01*
X4310761Y-14941779D01*
X4329809Y-14951303D01*
X4339333Y-14970350D01*
X4339333Y-15075112D01*
X4434571Y-15075112D02*
X4434571Y-14941779D01*
X4434571Y-14960827D02*
X4444095Y-14951303D01*
X4463142Y-14941779D01*
X4491714Y-14941779D01*
X4510761Y-14951303D01*
X4520285Y-14970350D01*
X4520285Y-15075112D01*
X4520285Y-14970350D02*
X4529809Y-14951303D01*
X4548857Y-14941779D01*
X4577428Y-14941779D01*
X4596476Y-14951303D01*
X4605999Y-14970350D01*
X4605999Y-15075112D01*
X4996476Y-14865589D02*
X4825047Y-15122731D01*
X5253618Y-14875112D02*
X5272666Y-14875112D01*
X5291714Y-14884636D01*
X5301238Y-14894160D01*
X5310761Y-14913208D01*
X5320285Y-14951303D01*
X5320285Y-14998922D01*
X5310761Y-15037017D01*
X5301238Y-15056065D01*
X5291714Y-15065589D01*
X5272666Y-15075112D01*
X5253618Y-15075112D01*
X5234571Y-15065589D01*
X5225047Y-15056065D01*
X5215523Y-15037017D01*
X5205999Y-14998922D01*
X5205999Y-14951303D01*
X5215523Y-14913208D01*
X5225047Y-14894160D01*
X5234571Y-14884636D01*
X5253618Y-14875112D01*
X5405999Y-15056065D02*
X5415523Y-15065589D01*
X5405999Y-15075112D01*
X5396476Y-15065589D01*
X5405999Y-15056065D01*
X5405999Y-15075112D01*
X5539333Y-14875112D02*
X5558380Y-14875112D01*
X5577428Y-14884636D01*
X5586952Y-14894160D01*
X5596476Y-14913208D01*
X5605999Y-14951303D01*
X5605999Y-14998922D01*
X5596476Y-15037017D01*
X5586952Y-15056065D01*
X5577428Y-15065589D01*
X5558380Y-15075112D01*
X5539333Y-15075112D01*
X5520285Y-15065589D01*
X5510761Y-15056065D01*
X5501238Y-15037017D01*
X5491714Y-14998922D01*
X5491714Y-14951303D01*
X5501238Y-14913208D01*
X5510761Y-14894160D01*
X5520285Y-14884636D01*
X5539333Y-14875112D01*
X5672666Y-14875112D02*
X5796476Y-14875112D01*
X5729809Y-14951303D01*
X5758380Y-14951303D01*
X5777428Y-14960827D01*
X5786952Y-14970350D01*
X5796476Y-14989398D01*
X5796476Y-15037017D01*
X5786952Y-15056065D01*
X5777428Y-15065589D01*
X5758380Y-15075112D01*
X5701237Y-15075112D01*
X5682190Y-15065589D01*
X5672666Y-15056065D01*
X5891714Y-15075112D02*
X5929809Y-15075112D01*
X5948856Y-15065589D01*
X5958380Y-15056065D01*
X5977428Y-15027493D01*
X5986952Y-14989398D01*
X5986952Y-14913208D01*
X5977428Y-14894160D01*
X5967904Y-14884636D01*
X5948856Y-14875112D01*
X5910761Y-14875112D01*
X5891714Y-14884636D01*
X5882190Y-14894160D01*
X5872666Y-14913208D01*
X5872666Y-14960827D01*
X5882190Y-14979874D01*
X5891714Y-14989398D01*
X5910761Y-14998922D01*
X5948856Y-14998922D01*
X5967904Y-14989398D01*
X5977428Y-14979874D01*
X5986952Y-14960827D01*
X6158380Y-14941779D02*
X6158380Y-15075112D01*
X6110761Y-14865589D02*
X6063142Y-15008446D01*
X6186952Y-15008446D01*
X6253618Y-14875112D02*
X6253618Y-14913208D01*
X6329809Y-14875112D02*
X6329809Y-14913208D01*
X6625047Y-15151303D02*
X6615523Y-15141779D01*
X6596476Y-15113208D01*
X6586952Y-15094160D01*
X6577428Y-15065589D01*
X6567904Y-15017970D01*
X6567904Y-14979874D01*
X6577428Y-14932255D01*
X6586952Y-14903684D01*
X6596476Y-14884636D01*
X6615523Y-14856065D01*
X6625047Y-14846541D01*
X6805999Y-15075112D02*
X6691714Y-15075112D01*
X6748856Y-15075112D02*
X6748856Y-14875112D01*
X6729809Y-14903684D01*
X6710761Y-14922731D01*
X6691714Y-14932255D01*
X6929809Y-14875112D02*
X6948856Y-14875112D01*
X6967904Y-14884636D01*
X6977428Y-14894160D01*
X6986952Y-14913208D01*
X6996476Y-14951303D01*
X6996476Y-14998922D01*
X6986952Y-15037017D01*
X6977428Y-15056065D01*
X6967904Y-15065589D01*
X6948856Y-15075112D01*
X6929809Y-15075112D01*
X6910761Y-15065589D01*
X6901237Y-15056065D01*
X6891714Y-15037017D01*
X6882190Y-14998922D01*
X6882190Y-14951303D01*
X6891714Y-14913208D01*
X6901237Y-14894160D01*
X6910761Y-14884636D01*
X6929809Y-14875112D01*
X7234571Y-15075112D02*
X7234571Y-14875112D01*
X7320285Y-15075112D02*
X7320285Y-14970350D01*
X7310761Y-14951303D01*
X7291714Y-14941779D01*
X7263142Y-14941779D01*
X7244095Y-14951303D01*
X7234571Y-14960827D01*
X7444095Y-15075112D02*
X7425047Y-15065589D01*
X7415523Y-15056065D01*
X7405999Y-15037017D01*
X7405999Y-14979874D01*
X7415523Y-14960827D01*
X7425047Y-14951303D01*
X7444095Y-14941779D01*
X7472666Y-14941779D01*
X7491714Y-14951303D01*
X7501237Y-14960827D01*
X7510761Y-14979874D01*
X7510761Y-15037017D01*
X7501237Y-15056065D01*
X7491714Y-15065589D01*
X7472666Y-15075112D01*
X7444095Y-15075112D01*
X7625047Y-15075112D02*
X7605999Y-15065589D01*
X7596476Y-15046541D01*
X7596476Y-14875112D01*
X7777428Y-15065589D02*
X7758380Y-15075112D01*
X7720285Y-15075112D01*
X7701237Y-15065589D01*
X7691714Y-15046541D01*
X7691714Y-14970350D01*
X7701237Y-14951303D01*
X7720285Y-14941779D01*
X7758380Y-14941779D01*
X7777428Y-14951303D01*
X7786952Y-14970350D01*
X7786952Y-14989398D01*
X7691714Y-15008446D01*
X7863142Y-15065589D02*
X7882190Y-15075112D01*
X7920285Y-15075112D01*
X7939333Y-15065589D01*
X7948856Y-15046541D01*
X7948856Y-15037017D01*
X7939333Y-15017970D01*
X7920285Y-15008446D01*
X7891714Y-15008446D01*
X7872666Y-14998922D01*
X7863142Y-14979874D01*
X7863142Y-14970350D01*
X7872666Y-14951303D01*
X7891714Y-14941779D01*
X7920285Y-14941779D01*
X7939333Y-14951303D01*
X8015523Y-15151303D02*
X8025047Y-15141779D01*
X8044095Y-15113208D01*
X8053618Y-15094160D01*
X8063142Y-15065589D01*
X8072666Y-15017970D01*
X8072666Y-14979874D01*
X8063142Y-14932255D01*
X8053618Y-14903684D01*
X8044095Y-14884636D01*
X8025047Y-14856065D01*
X8015523Y-14846541D01*
D16*
X3037148Y-15287252D02*
X3037148Y-15210021D01*
X2959917Y-15210021D01*
X2959917Y-15287252D01*
X3037148Y-15287252D01*
D12*
X3415523Y-15339112D02*
X3301237Y-15339112D01*
X3358380Y-15339112D02*
X3358380Y-15139112D01*
X3339333Y-15167684D01*
X3320285Y-15186731D01*
X3301237Y-15196255D01*
X3501237Y-15320065D02*
X3510761Y-15329589D01*
X3501237Y-15339112D01*
X3491714Y-15329589D01*
X3501237Y-15320065D01*
X3501237Y-15339112D01*
X3634571Y-15139112D02*
X3653618Y-15139112D01*
X3672666Y-15148636D01*
X3682190Y-15158160D01*
X3691714Y-15177208D01*
X3701237Y-15215303D01*
X3701237Y-15262922D01*
X3691714Y-15301017D01*
X3682190Y-15320065D01*
X3672666Y-15329589D01*
X3653618Y-15339112D01*
X3634571Y-15339112D01*
X3615523Y-15329589D01*
X3605999Y-15320065D01*
X3596476Y-15301017D01*
X3586952Y-15262922D01*
X3586952Y-15215303D01*
X3596476Y-15177208D01*
X3605999Y-15158160D01*
X3615523Y-15148636D01*
X3634571Y-15139112D01*
X3796476Y-15339112D02*
X3834571Y-15339112D01*
X3853618Y-15329589D01*
X3863142Y-15320065D01*
X3882190Y-15291493D01*
X3891714Y-15253398D01*
X3891714Y-15177208D01*
X3882190Y-15158160D01*
X3872666Y-15148636D01*
X3853618Y-15139112D01*
X3815523Y-15139112D01*
X3796476Y-15148636D01*
X3786952Y-15158160D01*
X3777428Y-15177208D01*
X3777428Y-15224827D01*
X3786952Y-15243874D01*
X3796476Y-15253398D01*
X3815523Y-15262922D01*
X3853618Y-15262922D01*
X3872666Y-15253398D01*
X3882190Y-15243874D01*
X3891714Y-15224827D01*
X3967904Y-15158160D02*
X3977428Y-15148636D01*
X3996476Y-15139112D01*
X4044095Y-15139112D01*
X4063142Y-15148636D01*
X4072666Y-15158160D01*
X4082190Y-15177208D01*
X4082190Y-15196255D01*
X4072666Y-15224827D01*
X3958380Y-15339112D01*
X4082190Y-15339112D01*
X4167904Y-15339112D02*
X4167904Y-15205779D01*
X4167904Y-15224827D02*
X4177428Y-15215303D01*
X4196476Y-15205779D01*
X4225047Y-15205779D01*
X4244095Y-15215303D01*
X4253618Y-15234350D01*
X4253618Y-15339112D01*
X4253618Y-15234350D02*
X4263142Y-15215303D01*
X4282190Y-15205779D01*
X4310761Y-15205779D01*
X4329809Y-15215303D01*
X4339333Y-15234350D01*
X4339333Y-15339112D01*
X4434571Y-15339112D02*
X4434571Y-15205779D01*
X4434571Y-15224827D02*
X4444095Y-15215303D01*
X4463142Y-15205779D01*
X4491714Y-15205779D01*
X4510761Y-15215303D01*
X4520285Y-15234350D01*
X4520285Y-15339112D01*
X4520285Y-15234350D02*
X4529809Y-15215303D01*
X4548857Y-15205779D01*
X4577428Y-15205779D01*
X4596476Y-15215303D01*
X4605999Y-15234350D01*
X4605999Y-15339112D01*
X4996476Y-15129589D02*
X4825047Y-15386731D01*
X5253618Y-15139112D02*
X5272666Y-15139112D01*
X5291714Y-15148636D01*
X5301238Y-15158160D01*
X5310761Y-15177208D01*
X5320285Y-15215303D01*
X5320285Y-15262922D01*
X5310761Y-15301017D01*
X5301238Y-15320065D01*
X5291714Y-15329589D01*
X5272666Y-15339112D01*
X5253618Y-15339112D01*
X5234571Y-15329589D01*
X5225047Y-15320065D01*
X5215523Y-15301017D01*
X5205999Y-15262922D01*
X5205999Y-15215303D01*
X5215523Y-15177208D01*
X5225047Y-15158160D01*
X5234571Y-15148636D01*
X5253618Y-15139112D01*
X5405999Y-15320065D02*
X5415523Y-15329589D01*
X5405999Y-15339112D01*
X5396476Y-15329589D01*
X5405999Y-15320065D01*
X5405999Y-15339112D01*
X5539333Y-15139112D02*
X5558380Y-15139112D01*
X5577428Y-15148636D01*
X5586952Y-15158160D01*
X5596476Y-15177208D01*
X5605999Y-15215303D01*
X5605999Y-15262922D01*
X5596476Y-15301017D01*
X5586952Y-15320065D01*
X5577428Y-15329589D01*
X5558380Y-15339112D01*
X5539333Y-15339112D01*
X5520285Y-15329589D01*
X5510761Y-15320065D01*
X5501238Y-15301017D01*
X5491714Y-15262922D01*
X5491714Y-15215303D01*
X5501238Y-15177208D01*
X5510761Y-15158160D01*
X5520285Y-15148636D01*
X5539333Y-15139112D01*
X5777428Y-15205779D02*
X5777428Y-15339112D01*
X5729809Y-15129589D02*
X5682190Y-15272446D01*
X5805999Y-15272446D01*
X5863142Y-15139112D02*
X5986952Y-15139112D01*
X5920285Y-15215303D01*
X5948856Y-15215303D01*
X5967904Y-15224827D01*
X5977428Y-15234350D01*
X5986952Y-15253398D01*
X5986952Y-15301017D01*
X5977428Y-15320065D01*
X5967904Y-15329589D01*
X5948856Y-15339112D01*
X5891714Y-15339112D01*
X5872666Y-15329589D01*
X5863142Y-15320065D01*
X6110761Y-15139112D02*
X6129809Y-15139112D01*
X6148856Y-15148636D01*
X6158380Y-15158160D01*
X6167904Y-15177208D01*
X6177428Y-15215303D01*
X6177428Y-15262922D01*
X6167904Y-15301017D01*
X6158380Y-15320065D01*
X6148856Y-15329589D01*
X6129809Y-15339112D01*
X6110761Y-15339112D01*
X6091714Y-15329589D01*
X6082190Y-15320065D01*
X6072666Y-15301017D01*
X6063142Y-15262922D01*
X6063142Y-15215303D01*
X6072666Y-15177208D01*
X6082190Y-15158160D01*
X6091714Y-15148636D01*
X6110761Y-15139112D01*
X6253618Y-15139112D02*
X6253618Y-15177208D01*
X6329809Y-15139112D02*
X6329809Y-15177208D01*
X6625047Y-15415303D02*
X6615523Y-15405779D01*
X6596476Y-15377208D01*
X6586952Y-15358160D01*
X6577428Y-15329589D01*
X6567904Y-15281970D01*
X6567904Y-15243874D01*
X6577428Y-15196255D01*
X6586952Y-15167684D01*
X6596476Y-15148636D01*
X6615523Y-15120065D01*
X6625047Y-15110541D01*
X6682190Y-15139112D02*
X6805999Y-15139112D01*
X6739333Y-15215303D01*
X6767904Y-15215303D01*
X6786952Y-15224827D01*
X6796476Y-15234350D01*
X6805999Y-15253398D01*
X6805999Y-15301017D01*
X6796476Y-15320065D01*
X6786952Y-15329589D01*
X6767904Y-15339112D01*
X6710761Y-15339112D01*
X6691714Y-15329589D01*
X6682190Y-15320065D01*
X7044095Y-15339112D02*
X7044095Y-15139112D01*
X7129809Y-15339112D02*
X7129809Y-15234350D01*
X7120285Y-15215303D01*
X7101237Y-15205779D01*
X7072666Y-15205779D01*
X7053618Y-15215303D01*
X7044095Y-15224827D01*
X7253618Y-15339112D02*
X7234571Y-15329589D01*
X7225047Y-15320065D01*
X7215523Y-15301017D01*
X7215523Y-15243874D01*
X7225047Y-15224827D01*
X7234571Y-15215303D01*
X7253618Y-15205779D01*
X7282190Y-15205779D01*
X7301237Y-15215303D01*
X7310761Y-15224827D01*
X7320285Y-15243874D01*
X7320285Y-15301017D01*
X7310761Y-15320065D01*
X7301237Y-15329589D01*
X7282190Y-15339112D01*
X7253618Y-15339112D01*
X7434571Y-15339112D02*
X7415523Y-15329589D01*
X7405999Y-15310541D01*
X7405999Y-15139112D01*
X7586952Y-15329589D02*
X7567904Y-15339112D01*
X7529809Y-15339112D01*
X7510761Y-15329589D01*
X7501237Y-15310541D01*
X7501237Y-15234350D01*
X7510761Y-15215303D01*
X7529809Y-15205779D01*
X7567904Y-15205779D01*
X7586952Y-15215303D01*
X7596476Y-15234350D01*
X7596476Y-15253398D01*
X7501237Y-15272446D01*
X7672666Y-15329589D02*
X7691714Y-15339112D01*
X7729809Y-15339112D01*
X7748856Y-15329589D01*
X7758380Y-15310541D01*
X7758380Y-15301017D01*
X7748856Y-15281970D01*
X7729809Y-15272446D01*
X7701237Y-15272446D01*
X7682190Y-15262922D01*
X7672666Y-15243874D01*
X7672666Y-15234350D01*
X7682190Y-15215303D01*
X7701237Y-15205779D01*
X7729809Y-15205779D01*
X7748856Y-15215303D01*
X7825047Y-15415303D02*
X7834571Y-15405779D01*
X7853618Y-15377208D01*
X7863142Y-15358160D01*
X7872666Y-15329589D01*
X7882190Y-15281970D01*
X7882190Y-15243874D01*
X7872666Y-15196255D01*
X7863142Y-15167684D01*
X7853618Y-15148636D01*
X7834571Y-15120065D01*
X7825047Y-15110541D01*
D17*
X2989642Y-15576136D02*
X3053142Y-15512636D01*
X2989642Y-15449136D01*
X2926142Y-15512636D01*
X2989642Y-15576136D01*
D12*
X3415523Y-15603112D02*
X3301237Y-15603112D01*
X3358380Y-15603112D02*
X3358380Y-15403112D01*
X3339333Y-15431684D01*
X3320285Y-15450731D01*
X3301237Y-15460255D01*
X3501237Y-15584065D02*
X3510761Y-15593589D01*
X3501237Y-15603112D01*
X3491714Y-15593589D01*
X3501237Y-15584065D01*
X3501237Y-15603112D01*
X3586952Y-15422160D02*
X3596476Y-15412636D01*
X3615523Y-15403112D01*
X3663142Y-15403112D01*
X3682190Y-15412636D01*
X3691714Y-15422160D01*
X3701237Y-15441208D01*
X3701237Y-15460255D01*
X3691714Y-15488827D01*
X3577428Y-15603112D01*
X3701237Y-15603112D01*
X3767904Y-15403112D02*
X3901237Y-15403112D01*
X3815523Y-15603112D01*
X4015523Y-15403112D02*
X4034571Y-15403112D01*
X4053618Y-15412636D01*
X4063142Y-15422160D01*
X4072666Y-15441208D01*
X4082190Y-15479303D01*
X4082190Y-15526922D01*
X4072666Y-15565017D01*
X4063142Y-15584065D01*
X4053618Y-15593589D01*
X4034571Y-15603112D01*
X4015523Y-15603112D01*
X3996476Y-15593589D01*
X3986952Y-15584065D01*
X3977428Y-15565017D01*
X3967904Y-15526922D01*
X3967904Y-15479303D01*
X3977428Y-15441208D01*
X3986952Y-15422160D01*
X3996476Y-15412636D01*
X4015523Y-15403112D01*
X4167904Y-15603112D02*
X4167904Y-15469779D01*
X4167904Y-15488827D02*
X4177428Y-15479303D01*
X4196476Y-15469779D01*
X4225047Y-15469779D01*
X4244095Y-15479303D01*
X4253618Y-15498350D01*
X4253618Y-15603112D01*
X4253618Y-15498350D02*
X4263142Y-15479303D01*
X4282190Y-15469779D01*
X4310761Y-15469779D01*
X4329809Y-15479303D01*
X4339333Y-15498350D01*
X4339333Y-15603112D01*
X4434571Y-15603112D02*
X4434571Y-15469779D01*
X4434571Y-15488827D02*
X4444095Y-15479303D01*
X4463142Y-15469779D01*
X4491714Y-15469779D01*
X4510761Y-15479303D01*
X4520285Y-15498350D01*
X4520285Y-15603112D01*
X4520285Y-15498350D02*
X4529809Y-15479303D01*
X4548857Y-15469779D01*
X4577428Y-15469779D01*
X4596476Y-15479303D01*
X4605999Y-15498350D01*
X4605999Y-15603112D01*
X4996476Y-15393589D02*
X4825047Y-15650731D01*
X5253618Y-15403112D02*
X5272666Y-15403112D01*
X5291714Y-15412636D01*
X5301238Y-15422160D01*
X5310761Y-15441208D01*
X5320285Y-15479303D01*
X5320285Y-15526922D01*
X5310761Y-15565017D01*
X5301238Y-15584065D01*
X5291714Y-15593589D01*
X5272666Y-15603112D01*
X5253618Y-15603112D01*
X5234571Y-15593589D01*
X5225047Y-15584065D01*
X5215523Y-15565017D01*
X5205999Y-15526922D01*
X5205999Y-15479303D01*
X5215523Y-15441208D01*
X5225047Y-15422160D01*
X5234571Y-15412636D01*
X5253618Y-15403112D01*
X5405999Y-15584065D02*
X5415523Y-15593589D01*
X5405999Y-15603112D01*
X5396476Y-15593589D01*
X5405999Y-15584065D01*
X5405999Y-15603112D01*
X5539333Y-15403112D02*
X5558380Y-15403112D01*
X5577428Y-15412636D01*
X5586952Y-15422160D01*
X5596476Y-15441208D01*
X5605999Y-15479303D01*
X5605999Y-15526922D01*
X5596476Y-15565017D01*
X5586952Y-15584065D01*
X5577428Y-15593589D01*
X5558380Y-15603112D01*
X5539333Y-15603112D01*
X5520285Y-15593589D01*
X5510761Y-15584065D01*
X5501238Y-15565017D01*
X5491714Y-15526922D01*
X5491714Y-15479303D01*
X5501238Y-15441208D01*
X5510761Y-15422160D01*
X5520285Y-15412636D01*
X5539333Y-15403112D01*
X5786952Y-15403112D02*
X5691714Y-15403112D01*
X5682190Y-15498350D01*
X5691714Y-15488827D01*
X5710761Y-15479303D01*
X5758380Y-15479303D01*
X5777428Y-15488827D01*
X5786952Y-15498350D01*
X5796476Y-15517398D01*
X5796476Y-15565017D01*
X5786952Y-15584065D01*
X5777428Y-15593589D01*
X5758380Y-15603112D01*
X5710761Y-15603112D01*
X5691714Y-15593589D01*
X5682190Y-15584065D01*
X5920285Y-15403112D02*
X5939333Y-15403112D01*
X5958380Y-15412636D01*
X5967904Y-15422160D01*
X5977428Y-15441208D01*
X5986952Y-15479303D01*
X5986952Y-15526922D01*
X5977428Y-15565017D01*
X5967904Y-15584065D01*
X5958380Y-15593589D01*
X5939333Y-15603112D01*
X5920285Y-15603112D01*
X5901237Y-15593589D01*
X5891714Y-15584065D01*
X5882190Y-15565017D01*
X5872666Y-15526922D01*
X5872666Y-15479303D01*
X5882190Y-15441208D01*
X5891714Y-15422160D01*
X5901237Y-15412636D01*
X5920285Y-15403112D01*
X6110761Y-15403112D02*
X6129809Y-15403112D01*
X6148856Y-15412636D01*
X6158380Y-15422160D01*
X6167904Y-15441208D01*
X6177428Y-15479303D01*
X6177428Y-15526922D01*
X6167904Y-15565017D01*
X6158380Y-15584065D01*
X6148856Y-15593589D01*
X6129809Y-15603112D01*
X6110761Y-15603112D01*
X6091714Y-15593589D01*
X6082190Y-15584065D01*
X6072666Y-15565017D01*
X6063142Y-15526922D01*
X6063142Y-15479303D01*
X6072666Y-15441208D01*
X6082190Y-15422160D01*
X6091714Y-15412636D01*
X6110761Y-15403112D01*
X6253618Y-15403112D02*
X6253618Y-15441208D01*
X6329809Y-15403112D02*
X6329809Y-15441208D01*
X6625047Y-15679303D02*
X6615523Y-15669779D01*
X6596476Y-15641208D01*
X6586952Y-15622160D01*
X6577428Y-15593589D01*
X6567904Y-15545970D01*
X6567904Y-15507874D01*
X6577428Y-15460255D01*
X6586952Y-15431684D01*
X6596476Y-15412636D01*
X6615523Y-15384065D01*
X6625047Y-15374541D01*
X6691714Y-15422160D02*
X6701237Y-15412636D01*
X6720285Y-15403112D01*
X6767904Y-15403112D01*
X6786952Y-15412636D01*
X6796476Y-15422160D01*
X6805999Y-15441208D01*
X6805999Y-15460255D01*
X6796476Y-15488827D01*
X6682190Y-15603112D01*
X6805999Y-15603112D01*
X6996476Y-15603112D02*
X6882190Y-15603112D01*
X6939333Y-15603112D02*
X6939333Y-15403112D01*
X6920285Y-15431684D01*
X6901237Y-15450731D01*
X6882190Y-15460255D01*
X7120285Y-15403112D02*
X7139333Y-15403112D01*
X7158380Y-15412636D01*
X7167904Y-15422160D01*
X7177428Y-15441208D01*
X7186952Y-15479303D01*
X7186952Y-15526922D01*
X7177428Y-15565017D01*
X7167904Y-15584065D01*
X7158380Y-15593589D01*
X7139333Y-15603112D01*
X7120285Y-15603112D01*
X7101237Y-15593589D01*
X7091714Y-15584065D01*
X7082190Y-15565017D01*
X7072666Y-15526922D01*
X7072666Y-15479303D01*
X7082190Y-15441208D01*
X7091714Y-15422160D01*
X7101237Y-15412636D01*
X7120285Y-15403112D01*
X7425047Y-15603112D02*
X7425047Y-15403112D01*
X7510761Y-15603112D02*
X7510761Y-15498350D01*
X7501237Y-15479303D01*
X7482190Y-15469779D01*
X7453618Y-15469779D01*
X7434571Y-15479303D01*
X7425047Y-15488827D01*
X7634571Y-15603112D02*
X7615523Y-15593589D01*
X7605999Y-15584065D01*
X7596476Y-15565017D01*
X7596476Y-15507874D01*
X7605999Y-15488827D01*
X7615523Y-15479303D01*
X7634571Y-15469779D01*
X7663142Y-15469779D01*
X7682190Y-15479303D01*
X7691714Y-15488827D01*
X7701237Y-15507874D01*
X7701237Y-15565017D01*
X7691714Y-15584065D01*
X7682190Y-15593589D01*
X7663142Y-15603112D01*
X7634571Y-15603112D01*
X7815523Y-15603112D02*
X7796476Y-15593589D01*
X7786952Y-15574541D01*
X7786952Y-15403112D01*
X7967904Y-15593589D02*
X7948856Y-15603112D01*
X7910761Y-15603112D01*
X7891714Y-15593589D01*
X7882190Y-15574541D01*
X7882190Y-15498350D01*
X7891714Y-15479303D01*
X7910761Y-15469779D01*
X7948856Y-15469779D01*
X7967904Y-15479303D01*
X7977428Y-15498350D01*
X7977428Y-15517398D01*
X7882190Y-15536446D01*
X8053618Y-15593589D02*
X8072666Y-15603112D01*
X8110761Y-15603112D01*
X8129809Y-15593589D01*
X8139333Y-15574541D01*
X8139333Y-15565017D01*
X8129809Y-15545970D01*
X8110761Y-15536446D01*
X8082190Y-15536446D01*
X8063142Y-15526922D01*
X8053618Y-15507874D01*
X8053618Y-15498350D01*
X8063142Y-15479303D01*
X8082190Y-15469779D01*
X8110761Y-15469779D01*
X8129809Y-15479303D01*
X8205999Y-15679303D02*
X8215523Y-15669779D01*
X8234571Y-15641208D01*
X8244095Y-15622160D01*
X8253618Y-15593589D01*
X8263142Y-15545970D01*
X8263142Y-15507874D01*
X8253618Y-15460255D01*
X8244095Y-15431684D01*
X8234571Y-15412636D01*
X8215523Y-15384065D01*
X8205999Y-15374541D01*
D18*
X2923142Y-15711636D02*
X3053142Y-15841636D01*
X3053142Y-15711636D02*
X2923142Y-15841636D01*
X3053142Y-15776636D02*
G75*
G03*
X3053142Y-15776636I-65000J0D01*
G01*
D12*
X3415523Y-15867112D02*
X3301237Y-15867112D01*
X3358380Y-15867112D02*
X3358380Y-15667112D01*
X3339333Y-15695684D01*
X3320285Y-15714731D01*
X3301237Y-15724255D01*
X3501237Y-15848065D02*
X3510761Y-15857589D01*
X3501237Y-15867112D01*
X3491714Y-15857589D01*
X3501237Y-15848065D01*
X3501237Y-15867112D01*
X3577428Y-15667112D02*
X3701237Y-15667112D01*
X3634571Y-15743303D01*
X3663142Y-15743303D01*
X3682190Y-15752827D01*
X3691714Y-15762350D01*
X3701237Y-15781398D01*
X3701237Y-15829017D01*
X3691714Y-15848065D01*
X3682190Y-15857589D01*
X3663142Y-15867112D01*
X3605999Y-15867112D01*
X3586952Y-15857589D01*
X3577428Y-15848065D01*
X3825047Y-15667112D02*
X3844095Y-15667112D01*
X3863142Y-15676636D01*
X3872666Y-15686160D01*
X3882190Y-15705208D01*
X3891714Y-15743303D01*
X3891714Y-15790922D01*
X3882190Y-15829017D01*
X3872666Y-15848065D01*
X3863142Y-15857589D01*
X3844095Y-15867112D01*
X3825047Y-15867112D01*
X3805999Y-15857589D01*
X3796476Y-15848065D01*
X3786952Y-15829017D01*
X3777428Y-15790922D01*
X3777428Y-15743303D01*
X3786952Y-15705208D01*
X3796476Y-15686160D01*
X3805999Y-15676636D01*
X3825047Y-15667112D01*
X4015523Y-15667112D02*
X4034571Y-15667112D01*
X4053618Y-15676636D01*
X4063142Y-15686160D01*
X4072666Y-15705208D01*
X4082190Y-15743303D01*
X4082190Y-15790922D01*
X4072666Y-15829017D01*
X4063142Y-15848065D01*
X4053618Y-15857589D01*
X4034571Y-15867112D01*
X4015523Y-15867112D01*
X3996476Y-15857589D01*
X3986952Y-15848065D01*
X3977428Y-15829017D01*
X3967904Y-15790922D01*
X3967904Y-15743303D01*
X3977428Y-15705208D01*
X3986952Y-15686160D01*
X3996476Y-15676636D01*
X4015523Y-15667112D01*
X4167904Y-15867112D02*
X4167904Y-15733779D01*
X4167904Y-15752827D02*
X4177428Y-15743303D01*
X4196476Y-15733779D01*
X4225047Y-15733779D01*
X4244095Y-15743303D01*
X4253618Y-15762350D01*
X4253618Y-15867112D01*
X4253618Y-15762350D02*
X4263142Y-15743303D01*
X4282190Y-15733779D01*
X4310761Y-15733779D01*
X4329809Y-15743303D01*
X4339333Y-15762350D01*
X4339333Y-15867112D01*
X4434571Y-15867112D02*
X4434571Y-15733779D01*
X4434571Y-15752827D02*
X4444095Y-15743303D01*
X4463142Y-15733779D01*
X4491714Y-15733779D01*
X4510761Y-15743303D01*
X4520285Y-15762350D01*
X4520285Y-15867112D01*
X4520285Y-15762350D02*
X4529809Y-15743303D01*
X4548857Y-15733779D01*
X4577428Y-15733779D01*
X4596476Y-15743303D01*
X4605999Y-15762350D01*
X4605999Y-15867112D01*
X4996476Y-15657589D02*
X4825047Y-15914731D01*
X5253618Y-15667112D02*
X5272666Y-15667112D01*
X5291714Y-15676636D01*
X5301238Y-15686160D01*
X5310761Y-15705208D01*
X5320285Y-15743303D01*
X5320285Y-15790922D01*
X5310761Y-15829017D01*
X5301238Y-15848065D01*
X5291714Y-15857589D01*
X5272666Y-15867112D01*
X5253618Y-15867112D01*
X5234571Y-15857589D01*
X5225047Y-15848065D01*
X5215523Y-15829017D01*
X5205999Y-15790922D01*
X5205999Y-15743303D01*
X5215523Y-15705208D01*
X5225047Y-15686160D01*
X5234571Y-15676636D01*
X5253618Y-15667112D01*
X5405999Y-15848065D02*
X5415523Y-15857589D01*
X5405999Y-15867112D01*
X5396476Y-15857589D01*
X5405999Y-15848065D01*
X5405999Y-15867112D01*
X5539333Y-15667112D02*
X5558380Y-15667112D01*
X5577428Y-15676636D01*
X5586952Y-15686160D01*
X5596476Y-15705208D01*
X5605999Y-15743303D01*
X5605999Y-15790922D01*
X5596476Y-15829017D01*
X5586952Y-15848065D01*
X5577428Y-15857589D01*
X5558380Y-15867112D01*
X5539333Y-15867112D01*
X5520285Y-15857589D01*
X5510761Y-15848065D01*
X5501238Y-15829017D01*
X5491714Y-15790922D01*
X5491714Y-15743303D01*
X5501238Y-15705208D01*
X5510761Y-15686160D01*
X5520285Y-15676636D01*
X5539333Y-15667112D01*
X5786952Y-15667112D02*
X5691714Y-15667112D01*
X5682190Y-15762350D01*
X5691714Y-15752827D01*
X5710761Y-15743303D01*
X5758380Y-15743303D01*
X5777428Y-15752827D01*
X5786952Y-15762350D01*
X5796476Y-15781398D01*
X5796476Y-15829017D01*
X5786952Y-15848065D01*
X5777428Y-15857589D01*
X5758380Y-15867112D01*
X5710761Y-15867112D01*
X5691714Y-15857589D01*
X5682190Y-15848065D01*
X5986952Y-15867112D02*
X5872666Y-15867112D01*
X5929809Y-15867112D02*
X5929809Y-15667112D01*
X5910761Y-15695684D01*
X5891714Y-15714731D01*
X5872666Y-15724255D01*
X6063142Y-15686160D02*
X6072666Y-15676636D01*
X6091714Y-15667112D01*
X6139333Y-15667112D01*
X6158380Y-15676636D01*
X6167904Y-15686160D01*
X6177428Y-15705208D01*
X6177428Y-15724255D01*
X6167904Y-15752827D01*
X6053618Y-15867112D01*
X6177428Y-15867112D01*
X6253618Y-15667112D02*
X6253618Y-15705208D01*
X6329809Y-15667112D02*
X6329809Y-15705208D01*
X6625047Y-15943303D02*
X6615523Y-15933779D01*
X6596476Y-15905208D01*
X6586952Y-15886160D01*
X6577428Y-15857589D01*
X6567904Y-15809970D01*
X6567904Y-15771874D01*
X6577428Y-15724255D01*
X6586952Y-15695684D01*
X6596476Y-15676636D01*
X6615523Y-15648065D01*
X6625047Y-15638541D01*
X6691714Y-15686160D02*
X6701237Y-15676636D01*
X6720285Y-15667112D01*
X6767904Y-15667112D01*
X6786952Y-15676636D01*
X6796476Y-15686160D01*
X6805999Y-15705208D01*
X6805999Y-15724255D01*
X6796476Y-15752827D01*
X6682190Y-15867112D01*
X6805999Y-15867112D01*
X7044095Y-15867112D02*
X7044095Y-15667112D01*
X7129809Y-15867112D02*
X7129809Y-15762350D01*
X7120285Y-15743303D01*
X7101237Y-15733779D01*
X7072666Y-15733779D01*
X7053618Y-15743303D01*
X7044095Y-15752827D01*
X7253618Y-15867112D02*
X7234571Y-15857589D01*
X7225047Y-15848065D01*
X7215523Y-15829017D01*
X7215523Y-15771874D01*
X7225047Y-15752827D01*
X7234571Y-15743303D01*
X7253618Y-15733779D01*
X7282190Y-15733779D01*
X7301237Y-15743303D01*
X7310761Y-15752827D01*
X7320285Y-15771874D01*
X7320285Y-15829017D01*
X7310761Y-15848065D01*
X7301237Y-15857589D01*
X7282190Y-15867112D01*
X7253618Y-15867112D01*
X7434571Y-15867112D02*
X7415523Y-15857589D01*
X7405999Y-15838541D01*
X7405999Y-15667112D01*
X7586952Y-15857589D02*
X7567904Y-15867112D01*
X7529809Y-15867112D01*
X7510761Y-15857589D01*
X7501237Y-15838541D01*
X7501237Y-15762350D01*
X7510761Y-15743303D01*
X7529809Y-15733779D01*
X7567904Y-15733779D01*
X7586952Y-15743303D01*
X7596476Y-15762350D01*
X7596476Y-15781398D01*
X7501237Y-15800446D01*
X7672666Y-15857589D02*
X7691714Y-15867112D01*
X7729809Y-15867112D01*
X7748856Y-15857589D01*
X7758380Y-15838541D01*
X7758380Y-15829017D01*
X7748856Y-15809970D01*
X7729809Y-15800446D01*
X7701237Y-15800446D01*
X7682190Y-15790922D01*
X7672666Y-15771874D01*
X7672666Y-15762350D01*
X7682190Y-15743303D01*
X7701237Y-15733779D01*
X7729809Y-15733779D01*
X7748856Y-15743303D01*
X7825047Y-15943303D02*
X7834571Y-15933779D01*
X7853618Y-15905208D01*
X7863142Y-15886160D01*
X7872666Y-15857589D01*
X7882190Y-15809970D01*
X7882190Y-15771874D01*
X7872666Y-15724255D01*
X7863142Y-15695684D01*
X7853618Y-15676636D01*
X7834571Y-15648065D01*
X7825047Y-15638541D01*
D19*
X2903142Y-15965636D02*
X3053142Y-16115636D01*
X3053142Y-15965636D02*
X2903142Y-16115636D01*
X2978142Y-15965636D02*
X2978142Y-16115636D01*
X2903142Y-16040636D02*
X3053142Y-16040636D01*
D12*
X3415523Y-16131112D02*
X3301237Y-16131112D01*
X3358380Y-16131112D02*
X3358380Y-15931112D01*
X3339333Y-15959684D01*
X3320285Y-15978731D01*
X3301237Y-15988255D01*
X3501237Y-16112065D02*
X3510761Y-16121589D01*
X3501237Y-16131112D01*
X3491714Y-16121589D01*
X3501237Y-16112065D01*
X3501237Y-16131112D01*
X3691714Y-15931112D02*
X3596476Y-15931112D01*
X3586952Y-16026350D01*
X3596476Y-16016827D01*
X3615523Y-16007303D01*
X3663142Y-16007303D01*
X3682190Y-16016827D01*
X3691714Y-16026350D01*
X3701237Y-16045398D01*
X3701237Y-16093017D01*
X3691714Y-16112065D01*
X3682190Y-16121589D01*
X3663142Y-16131112D01*
X3615523Y-16131112D01*
X3596476Y-16121589D01*
X3586952Y-16112065D01*
X3825047Y-15931112D02*
X3844095Y-15931112D01*
X3863142Y-15940636D01*
X3872666Y-15950160D01*
X3882190Y-15969208D01*
X3891714Y-16007303D01*
X3891714Y-16054922D01*
X3882190Y-16093017D01*
X3872666Y-16112065D01*
X3863142Y-16121589D01*
X3844095Y-16131112D01*
X3825047Y-16131112D01*
X3805999Y-16121589D01*
X3796476Y-16112065D01*
X3786952Y-16093017D01*
X3777428Y-16054922D01*
X3777428Y-16007303D01*
X3786952Y-15969208D01*
X3796476Y-15950160D01*
X3805999Y-15940636D01*
X3825047Y-15931112D01*
X4015523Y-15931112D02*
X4034571Y-15931112D01*
X4053618Y-15940636D01*
X4063142Y-15950160D01*
X4072666Y-15969208D01*
X4082190Y-16007303D01*
X4082190Y-16054922D01*
X4072666Y-16093017D01*
X4063142Y-16112065D01*
X4053618Y-16121589D01*
X4034571Y-16131112D01*
X4015523Y-16131112D01*
X3996476Y-16121589D01*
X3986952Y-16112065D01*
X3977428Y-16093017D01*
X3967904Y-16054922D01*
X3967904Y-16007303D01*
X3977428Y-15969208D01*
X3986952Y-15950160D01*
X3996476Y-15940636D01*
X4015523Y-15931112D01*
X4167904Y-16131112D02*
X4167904Y-15997779D01*
X4167904Y-16016827D02*
X4177428Y-16007303D01*
X4196476Y-15997779D01*
X4225047Y-15997779D01*
X4244095Y-16007303D01*
X4253618Y-16026350D01*
X4253618Y-16131112D01*
X4253618Y-16026350D02*
X4263142Y-16007303D01*
X4282190Y-15997779D01*
X4310761Y-15997779D01*
X4329809Y-16007303D01*
X4339333Y-16026350D01*
X4339333Y-16131112D01*
X4434571Y-16131112D02*
X4434571Y-15997779D01*
X4434571Y-16016827D02*
X4444095Y-16007303D01*
X4463142Y-15997779D01*
X4491714Y-15997779D01*
X4510761Y-16007303D01*
X4520285Y-16026350D01*
X4520285Y-16131112D01*
X4520285Y-16026350D02*
X4529809Y-16007303D01*
X4548857Y-15997779D01*
X4577428Y-15997779D01*
X4596476Y-16007303D01*
X4605999Y-16026350D01*
X4605999Y-16131112D01*
X4996476Y-15921589D02*
X4825047Y-16178731D01*
X5253618Y-15931112D02*
X5272666Y-15931112D01*
X5291714Y-15940636D01*
X5301238Y-15950160D01*
X5310761Y-15969208D01*
X5320285Y-16007303D01*
X5320285Y-16054922D01*
X5310761Y-16093017D01*
X5301238Y-16112065D01*
X5291714Y-16121589D01*
X5272666Y-16131112D01*
X5253618Y-16131112D01*
X5234571Y-16121589D01*
X5225047Y-16112065D01*
X5215523Y-16093017D01*
X5205999Y-16054922D01*
X5205999Y-16007303D01*
X5215523Y-15969208D01*
X5225047Y-15950160D01*
X5234571Y-15940636D01*
X5253618Y-15931112D01*
X5405999Y-16112065D02*
X5415523Y-16121589D01*
X5405999Y-16131112D01*
X5396476Y-16121589D01*
X5405999Y-16112065D01*
X5405999Y-16131112D01*
X5539333Y-15931112D02*
X5558380Y-15931112D01*
X5577428Y-15940636D01*
X5586952Y-15950160D01*
X5596476Y-15969208D01*
X5605999Y-16007303D01*
X5605999Y-16054922D01*
X5596476Y-16093017D01*
X5586952Y-16112065D01*
X5577428Y-16121589D01*
X5558380Y-16131112D01*
X5539333Y-16131112D01*
X5520285Y-16121589D01*
X5510761Y-16112065D01*
X5501238Y-16093017D01*
X5491714Y-16054922D01*
X5491714Y-16007303D01*
X5501238Y-15969208D01*
X5510761Y-15950160D01*
X5520285Y-15940636D01*
X5539333Y-15931112D01*
X5786952Y-15931112D02*
X5691714Y-15931112D01*
X5682190Y-16026350D01*
X5691714Y-16016827D01*
X5710761Y-16007303D01*
X5758380Y-16007303D01*
X5777428Y-16016827D01*
X5786952Y-16026350D01*
X5796476Y-16045398D01*
X5796476Y-16093017D01*
X5786952Y-16112065D01*
X5777428Y-16121589D01*
X5758380Y-16131112D01*
X5710761Y-16131112D01*
X5691714Y-16121589D01*
X5682190Y-16112065D01*
X5891714Y-16131112D02*
X5929809Y-16131112D01*
X5948856Y-16121589D01*
X5958380Y-16112065D01*
X5977428Y-16083493D01*
X5986952Y-16045398D01*
X5986952Y-15969208D01*
X5977428Y-15950160D01*
X5967904Y-15940636D01*
X5948856Y-15931112D01*
X5910761Y-15931112D01*
X5891714Y-15940636D01*
X5882190Y-15950160D01*
X5872666Y-15969208D01*
X5872666Y-16016827D01*
X5882190Y-16035874D01*
X5891714Y-16045398D01*
X5910761Y-16054922D01*
X5948856Y-16054922D01*
X5967904Y-16045398D01*
X5977428Y-16035874D01*
X5986952Y-16016827D01*
X6177428Y-16131112D02*
X6063142Y-16131112D01*
X6120285Y-16131112D02*
X6120285Y-15931112D01*
X6101237Y-15959684D01*
X6082190Y-15978731D01*
X6063142Y-15988255D01*
X6253618Y-15931112D02*
X6253618Y-15969208D01*
X6329809Y-15931112D02*
X6329809Y-15969208D01*
X6625047Y-16207303D02*
X6615523Y-16197779D01*
X6596476Y-16169208D01*
X6586952Y-16150160D01*
X6577428Y-16121589D01*
X6567904Y-16073970D01*
X6567904Y-16035874D01*
X6577428Y-15988255D01*
X6586952Y-15959684D01*
X6596476Y-15940636D01*
X6615523Y-15912065D01*
X6625047Y-15902541D01*
X6739333Y-15931112D02*
X6758380Y-15931112D01*
X6777428Y-15940636D01*
X6786952Y-15950160D01*
X6796476Y-15969208D01*
X6805999Y-16007303D01*
X6805999Y-16054922D01*
X6796476Y-16093017D01*
X6786952Y-16112065D01*
X6777428Y-16121589D01*
X6758380Y-16131112D01*
X6739333Y-16131112D01*
X6720285Y-16121589D01*
X6710761Y-16112065D01*
X6701237Y-16093017D01*
X6691714Y-16054922D01*
X6691714Y-16007303D01*
X6701237Y-15969208D01*
X6710761Y-15950160D01*
X6720285Y-15940636D01*
X6739333Y-15931112D01*
X7044095Y-16131112D02*
X7044095Y-15931112D01*
X7129809Y-16131112D02*
X7129809Y-16026350D01*
X7120285Y-16007303D01*
X7101237Y-15997779D01*
X7072666Y-15997779D01*
X7053618Y-16007303D01*
X7044095Y-16016827D01*
X7253618Y-16131112D02*
X7234571Y-16121589D01*
X7225047Y-16112065D01*
X7215523Y-16093017D01*
X7215523Y-16035874D01*
X7225047Y-16016827D01*
X7234571Y-16007303D01*
X7253618Y-15997779D01*
X7282190Y-15997779D01*
X7301237Y-16007303D01*
X7310761Y-16016827D01*
X7320285Y-16035874D01*
X7320285Y-16093017D01*
X7310761Y-16112065D01*
X7301237Y-16121589D01*
X7282190Y-16131112D01*
X7253618Y-16131112D01*
X7434571Y-16131112D02*
X7415523Y-16121589D01*
X7405999Y-16102541D01*
X7405999Y-15931112D01*
X7586952Y-16121589D02*
X7567904Y-16131112D01*
X7529809Y-16131112D01*
X7510761Y-16121589D01*
X7501237Y-16102541D01*
X7501237Y-16026350D01*
X7510761Y-16007303D01*
X7529809Y-15997779D01*
X7567904Y-15997779D01*
X7586952Y-16007303D01*
X7596476Y-16026350D01*
X7596476Y-16045398D01*
X7501237Y-16064446D01*
X7672666Y-16121589D02*
X7691714Y-16131112D01*
X7729809Y-16131112D01*
X7748856Y-16121589D01*
X7758380Y-16102541D01*
X7758380Y-16093017D01*
X7748856Y-16073970D01*
X7729809Y-16064446D01*
X7701237Y-16064446D01*
X7682190Y-16054922D01*
X7672666Y-16035874D01*
X7672666Y-16026350D01*
X7682190Y-16007303D01*
X7701237Y-15997779D01*
X7729809Y-15997779D01*
X7748856Y-16007303D01*
X7996476Y-16054922D02*
X8148856Y-16054922D01*
X8072666Y-16131112D02*
X8072666Y-15978731D01*
X8482190Y-15997779D02*
X8482190Y-16131112D01*
X8434571Y-15921589D02*
X8386952Y-16064446D01*
X8510761Y-16064446D01*
X8729809Y-16121589D02*
X8748857Y-16131112D01*
X8786952Y-16131112D01*
X8805999Y-16121589D01*
X8815523Y-16102541D01*
X8815523Y-16093017D01*
X8805999Y-16073970D01*
X8786952Y-16064446D01*
X8758380Y-16064446D01*
X8739333Y-16054922D01*
X8729809Y-16035874D01*
X8729809Y-16026350D01*
X8739333Y-16007303D01*
X8758380Y-15997779D01*
X8786952Y-15997779D01*
X8805999Y-16007303D01*
X8929809Y-16131112D02*
X8910761Y-16121589D01*
X8901238Y-16102541D01*
X8901238Y-15931112D01*
X9034571Y-16131112D02*
X9015523Y-16121589D01*
X9005999Y-16112065D01*
X8996476Y-16093017D01*
X8996476Y-16035874D01*
X9005999Y-16016827D01*
X9015523Y-16007303D01*
X9034571Y-15997779D01*
X9063142Y-15997779D01*
X9082190Y-16007303D01*
X9091714Y-16016827D01*
X9101238Y-16035874D01*
X9101238Y-16093017D01*
X9091714Y-16112065D01*
X9082190Y-16121589D01*
X9063142Y-16131112D01*
X9034571Y-16131112D01*
X9158380Y-15997779D02*
X9234571Y-15997779D01*
X9186952Y-15931112D02*
X9186952Y-16102541D01*
X9196476Y-16121589D01*
X9215523Y-16131112D01*
X9234571Y-16131112D01*
X9291714Y-16121589D02*
X9310761Y-16131112D01*
X9348857Y-16131112D01*
X9367904Y-16121589D01*
X9377428Y-16102541D01*
X9377428Y-16093017D01*
X9367904Y-16073970D01*
X9348857Y-16064446D01*
X9320285Y-16064446D01*
X9301238Y-16054922D01*
X9291714Y-16035874D01*
X9291714Y-16026350D01*
X9301238Y-16007303D01*
X9320285Y-15997779D01*
X9348857Y-15997779D01*
X9367904Y-16007303D01*
X9444095Y-16207303D02*
X9453618Y-16197779D01*
X9472666Y-16169208D01*
X9482190Y-16150160D01*
X9491714Y-16121589D01*
X9501238Y-16073970D01*
X9501238Y-16035874D01*
X9491714Y-15988255D01*
X9482190Y-15959684D01*
X9472666Y-15940636D01*
X9453618Y-15912065D01*
X9444095Y-15902541D01*
X2853142Y-16210636D02*
X3053142Y-16410636D01*
X3053142Y-16210636D02*
X2853142Y-16410636D01*
X3023854Y-16381348D02*
X3023854Y-16239925D01*
X2882431Y-16239925D01*
X2882431Y-16381348D01*
X3023854Y-16381348D01*
X3291714Y-16201112D02*
X3415523Y-16201112D01*
X3348856Y-16277303D01*
X3377428Y-16277303D01*
X3396476Y-16286827D01*
X3405999Y-16296350D01*
X3415523Y-16315398D01*
X3415523Y-16363017D01*
X3405999Y-16382065D01*
X3396476Y-16391589D01*
X3377428Y-16401112D01*
X3320285Y-16401112D01*
X3301237Y-16391589D01*
X3291714Y-16382065D01*
X3501237Y-16382065D02*
X3510761Y-16391589D01*
X3501237Y-16401112D01*
X3491714Y-16391589D01*
X3501237Y-16382065D01*
X3501237Y-16401112D01*
X3634571Y-16201112D02*
X3653618Y-16201112D01*
X3672666Y-16210636D01*
X3682190Y-16220160D01*
X3691714Y-16239208D01*
X3701237Y-16277303D01*
X3701237Y-16324922D01*
X3691714Y-16363017D01*
X3682190Y-16382065D01*
X3672666Y-16391589D01*
X3653618Y-16401112D01*
X3634571Y-16401112D01*
X3615523Y-16391589D01*
X3605999Y-16382065D01*
X3596476Y-16363017D01*
X3586952Y-16324922D01*
X3586952Y-16277303D01*
X3596476Y-16239208D01*
X3605999Y-16220160D01*
X3615523Y-16210636D01*
X3634571Y-16201112D01*
X3825047Y-16201112D02*
X3844095Y-16201112D01*
X3863142Y-16210636D01*
X3872666Y-16220160D01*
X3882190Y-16239208D01*
X3891714Y-16277303D01*
X3891714Y-16324922D01*
X3882190Y-16363017D01*
X3872666Y-16382065D01*
X3863142Y-16391589D01*
X3844095Y-16401112D01*
X3825047Y-16401112D01*
X3805999Y-16391589D01*
X3796476Y-16382065D01*
X3786952Y-16363017D01*
X3777428Y-16324922D01*
X3777428Y-16277303D01*
X3786952Y-16239208D01*
X3796476Y-16220160D01*
X3805999Y-16210636D01*
X3825047Y-16201112D01*
X4015523Y-16201112D02*
X4034571Y-16201112D01*
X4053618Y-16210636D01*
X4063142Y-16220160D01*
X4072666Y-16239208D01*
X4082190Y-16277303D01*
X4082190Y-16324922D01*
X4072666Y-16363017D01*
X4063142Y-16382065D01*
X4053618Y-16391589D01*
X4034571Y-16401112D01*
X4015523Y-16401112D01*
X3996476Y-16391589D01*
X3986952Y-16382065D01*
X3977428Y-16363017D01*
X3967904Y-16324922D01*
X3967904Y-16277303D01*
X3977428Y-16239208D01*
X3986952Y-16220160D01*
X3996476Y-16210636D01*
X4015523Y-16201112D01*
X4167904Y-16401112D02*
X4167904Y-16267779D01*
X4167904Y-16286827D02*
X4177428Y-16277303D01*
X4196476Y-16267779D01*
X4225047Y-16267779D01*
X4244095Y-16277303D01*
X4253618Y-16296350D01*
X4253618Y-16401112D01*
X4253618Y-16296350D02*
X4263142Y-16277303D01*
X4282190Y-16267779D01*
X4310761Y-16267779D01*
X4329809Y-16277303D01*
X4339333Y-16296350D01*
X4339333Y-16401112D01*
X4434571Y-16401112D02*
X4434571Y-16267779D01*
X4434571Y-16286827D02*
X4444095Y-16277303D01*
X4463142Y-16267779D01*
X4491714Y-16267779D01*
X4510761Y-16277303D01*
X4520285Y-16296350D01*
X4520285Y-16401112D01*
X4520285Y-16296350D02*
X4529809Y-16277303D01*
X4548857Y-16267779D01*
X4577428Y-16267779D01*
X4596476Y-16277303D01*
X4605999Y-16296350D01*
X4605999Y-16401112D01*
X4996476Y-16191589D02*
X4825047Y-16448731D01*
X5253618Y-16201112D02*
X5272666Y-16201112D01*
X5291714Y-16210636D01*
X5301238Y-16220160D01*
X5310761Y-16239208D01*
X5320285Y-16277303D01*
X5320285Y-16324922D01*
X5310761Y-16363017D01*
X5301238Y-16382065D01*
X5291714Y-16391589D01*
X5272666Y-16401112D01*
X5253618Y-16401112D01*
X5234571Y-16391589D01*
X5225047Y-16382065D01*
X5215523Y-16363017D01*
X5205999Y-16324922D01*
X5205999Y-16277303D01*
X5215523Y-16239208D01*
X5225047Y-16220160D01*
X5234571Y-16210636D01*
X5253618Y-16201112D01*
X5405999Y-16382065D02*
X5415523Y-16391589D01*
X5405999Y-16401112D01*
X5396476Y-16391589D01*
X5405999Y-16382065D01*
X5405999Y-16401112D01*
X5605999Y-16401112D02*
X5491714Y-16401112D01*
X5548857Y-16401112D02*
X5548857Y-16201112D01*
X5529809Y-16229684D01*
X5510761Y-16248731D01*
X5491714Y-16258255D01*
X5796476Y-16401112D02*
X5682190Y-16401112D01*
X5739333Y-16401112D02*
X5739333Y-16201112D01*
X5720285Y-16229684D01*
X5701237Y-16248731D01*
X5682190Y-16258255D01*
X5910761Y-16286827D02*
X5891714Y-16277303D01*
X5882190Y-16267779D01*
X5872666Y-16248731D01*
X5872666Y-16239208D01*
X5882190Y-16220160D01*
X5891714Y-16210636D01*
X5910761Y-16201112D01*
X5948856Y-16201112D01*
X5967904Y-16210636D01*
X5977428Y-16220160D01*
X5986952Y-16239208D01*
X5986952Y-16248731D01*
X5977428Y-16267779D01*
X5967904Y-16277303D01*
X5948856Y-16286827D01*
X5910761Y-16286827D01*
X5891714Y-16296350D01*
X5882190Y-16305874D01*
X5872666Y-16324922D01*
X5872666Y-16363017D01*
X5882190Y-16382065D01*
X5891714Y-16391589D01*
X5910761Y-16401112D01*
X5948856Y-16401112D01*
X5967904Y-16391589D01*
X5977428Y-16382065D01*
X5986952Y-16363017D01*
X5986952Y-16324922D01*
X5977428Y-16305874D01*
X5967904Y-16296350D01*
X5948856Y-16286827D01*
X6177428Y-16401112D02*
X6063142Y-16401112D01*
X6120285Y-16401112D02*
X6120285Y-16201112D01*
X6101237Y-16229684D01*
X6082190Y-16248731D01*
X6063142Y-16258255D01*
X6253618Y-16201112D02*
X6253618Y-16239208D01*
X6329809Y-16201112D02*
X6329809Y-16239208D01*
X6625047Y-16477303D02*
X6615523Y-16467779D01*
X6596476Y-16439208D01*
X6586952Y-16420160D01*
X6577428Y-16391589D01*
X6567904Y-16343970D01*
X6567904Y-16305874D01*
X6577428Y-16258255D01*
X6586952Y-16229684D01*
X6596476Y-16210636D01*
X6615523Y-16182065D01*
X6625047Y-16172541D01*
X6786952Y-16201112D02*
X6748856Y-16201112D01*
X6729809Y-16210636D01*
X6720285Y-16220160D01*
X6701237Y-16248731D01*
X6691714Y-16286827D01*
X6691714Y-16363017D01*
X6701237Y-16382065D01*
X6710761Y-16391589D01*
X6729809Y-16401112D01*
X6767904Y-16401112D01*
X6786952Y-16391589D01*
X6796476Y-16382065D01*
X6805999Y-16363017D01*
X6805999Y-16315398D01*
X6796476Y-16296350D01*
X6786952Y-16286827D01*
X6767904Y-16277303D01*
X6729809Y-16277303D01*
X6710761Y-16286827D01*
X6701237Y-16296350D01*
X6691714Y-16315398D01*
X7044095Y-16401112D02*
X7044095Y-16201112D01*
X7129809Y-16401112D02*
X7129809Y-16296350D01*
X7120285Y-16277303D01*
X7101237Y-16267779D01*
X7072666Y-16267779D01*
X7053618Y-16277303D01*
X7044095Y-16286827D01*
X7253618Y-16401112D02*
X7234571Y-16391589D01*
X7225047Y-16382065D01*
X7215523Y-16363017D01*
X7215523Y-16305874D01*
X7225047Y-16286827D01*
X7234571Y-16277303D01*
X7253618Y-16267779D01*
X7282190Y-16267779D01*
X7301237Y-16277303D01*
X7310761Y-16286827D01*
X7320285Y-16305874D01*
X7320285Y-16363017D01*
X7310761Y-16382065D01*
X7301237Y-16391589D01*
X7282190Y-16401112D01*
X7253618Y-16401112D01*
X7434571Y-16401112D02*
X7415523Y-16391589D01*
X7405999Y-16372541D01*
X7405999Y-16201112D01*
X7586952Y-16391589D02*
X7567904Y-16401112D01*
X7529809Y-16401112D01*
X7510761Y-16391589D01*
X7501237Y-16372541D01*
X7501237Y-16296350D01*
X7510761Y-16277303D01*
X7529809Y-16267779D01*
X7567904Y-16267779D01*
X7586952Y-16277303D01*
X7596476Y-16296350D01*
X7596476Y-16315398D01*
X7501237Y-16334446D01*
X7672666Y-16391589D02*
X7691714Y-16401112D01*
X7729809Y-16401112D01*
X7748856Y-16391589D01*
X7758380Y-16372541D01*
X7758380Y-16363017D01*
X7748856Y-16343970D01*
X7729809Y-16334446D01*
X7701237Y-16334446D01*
X7682190Y-16324922D01*
X7672666Y-16305874D01*
X7672666Y-16296350D01*
X7682190Y-16277303D01*
X7701237Y-16267779D01*
X7729809Y-16267779D01*
X7748856Y-16277303D01*
X7825047Y-16477303D02*
X7834571Y-16467779D01*
X7853618Y-16439208D01*
X7863142Y-16420160D01*
X7872666Y-16391589D01*
X7882190Y-16343970D01*
X7882190Y-16305874D01*
X7872666Y-16258255D01*
X7863142Y-16229684D01*
X7853618Y-16210636D01*
X7834571Y-16182065D01*
X7825047Y-16172541D01*
M02*
