%FSLAX45Y45*%
G04 Gerber Fmt 4.5, Leading zero omitted, Abs format (unit mm)*
G04 Created by KiCad (PCBNEW (6.0.4)) date 2022-09-06 22:19:32*
%MOMM*%
%LPD*%
G01*
G04 APERTURE LIST*
%TA.AperFunction,Profile*%
%ADD10C,0.150000*%
%TD*%
%TA.AperFunction,Profile*%
%ADD11C,0.050000*%
%TD*%
%ADD12C,0.200000*%
%ADD13C,0.090000*%
%ADD14C,0.170180*%
%ADD15C,0.300000*%
%ADD16C,0.398780*%
G04 APERTURE END LIST*
D10*
X25860193Y-8293211D02*
X25697658Y-7854623D01*
X25786356Y-7676722D02*
G75*
G03*
X25697658Y-7854623I56192J-139078D01*
G01*
X25771495Y-8471112D02*
G75*
G03*
X25860193Y-8293211I-56191J139078D01*
G01*
X4723162Y-8276691D02*
X4881365Y-7843253D01*
X4723162Y-8276691D02*
G75*
G03*
X4811860Y-8454592I144886J-38825D01*
G01*
X4881365Y-7843253D02*
G75*
G03*
X4792667Y-7665352I-144886J38824D01*
G01*
X18425774Y-6541436D02*
G75*
G03*
X18491326Y-6339686I-68114J133656D01*
G01*
X18216999Y-5501801D02*
G75*
G03*
X18151446Y-5703551I68093J-133649D01*
G01*
X24200640Y-3883884D02*
G75*
G03*
X24378544Y-3972580I139082J56201D01*
G01*
X23959923Y-3261367D02*
X24200643Y-3883882D01*
X10896670Y-4681379D02*
G75*
G03*
X10837688Y-4466315I-127454J80665D01*
G01*
X11074959Y-13727234D02*
X11654662Y-12589502D01*
X4811860Y-8454592D02*
X8485240Y-9981702D01*
X10873210Y-13792786D02*
G75*
G03*
X11074959Y-13727234I68100J133646D01*
G01*
X7854779Y-11578842D02*
X8550793Y-10183451D01*
X18896132Y-12514515D02*
G75*
G03*
X11743295Y-12514515I-3576418J-11367363D01*
G01*
X8951809Y-4011247D02*
G75*
G03*
X9141648Y-3940273I56192J139076D01*
G01*
X13385657Y-7127380D02*
X17203771Y-7127380D01*
D11*
X15773400Y-7874000D02*
X14909800Y-7874000D01*
D10*
X3065751Y-7072480D02*
X4010440Y-3546850D01*
X23959924Y-3261367D02*
G75*
G03*
X23764655Y-3178481I-139075J-56184D01*
G01*
X11743296Y-12514516D02*
G75*
G03*
X11654662Y-12589502I45024J-143094D01*
G01*
X18984766Y-12589502D02*
X19564469Y-13727234D01*
X12148101Y-6339686D02*
X12434800Y-5769000D01*
X19766219Y-13792787D02*
X21013628Y-13157200D01*
X21811405Y-3951878D02*
X23764655Y-3178481D01*
X9412077Y-3739930D02*
X10837688Y-4466315D01*
X18151446Y-5703551D02*
X18491326Y-6339686D01*
X22769095Y-11755590D02*
G75*
G03*
X22834649Y-11553842I-68095J133650D01*
G01*
X7920332Y-11780592D02*
X9524144Y-12597775D01*
X4194152Y-3440784D02*
G75*
G03*
X4010440Y-3546850I-38820J-144894D01*
G01*
X19802228Y-4442666D02*
X21351134Y-3680556D01*
X12434801Y-5769000D02*
G75*
G03*
X12369247Y-5567251I-133674J68091D01*
G01*
X21621565Y-3880898D02*
G75*
G03*
X21811405Y-3951878I133648J68091D01*
G01*
X21552884Y-3746109D02*
X21621563Y-3880899D01*
D11*
X15773400Y-8610600D02*
X14884400Y-8610600D01*
D10*
X19700660Y-4744000D02*
G75*
G03*
X19737697Y-4620809I-55597J83878D01*
G01*
X9412076Y-3739932D02*
G75*
G03*
X9210328Y-3805483I-68100J-133647D01*
G01*
X6376999Y-3879658D02*
X6658216Y-3257858D01*
X6199099Y-3968356D02*
G75*
G03*
X6376999Y-3879658I38823J144888D01*
G01*
X9141648Y-3940273D02*
X9210328Y-3805483D01*
X24378544Y-3972580D02*
X26423988Y-3444293D01*
X22208130Y-9980805D02*
G75*
G03*
X22142578Y-10182555I68093J-133649D01*
G01*
X6853485Y-3174971D02*
X8951806Y-4011252D01*
X13249461Y-7094680D02*
G75*
G03*
X13385657Y-7127380I136199J267300D01*
G01*
X12148103Y-6339687D02*
G75*
G03*
X12213654Y-6541436I133637J-68103D01*
G01*
D11*
X14807574Y-9869000D02*
X15634800Y-9869000D01*
X14884400Y-8610600D02*
X14884400Y-7874000D01*
X15773400Y-8610600D02*
X15773400Y-7874000D01*
D10*
X21065284Y-12597775D02*
X22769096Y-11755592D01*
X22208131Y-9980806D02*
X25771495Y-8471112D01*
X27446323Y-7259702D02*
G75*
G03*
X27552389Y-7075989I-38823J144889D01*
G01*
X19802228Y-4442665D02*
G75*
G03*
X19737697Y-4620809I62970J-123570D01*
G01*
X17339968Y-7094681D02*
X18425774Y-6541435D01*
X3171817Y-7256191D02*
X4792667Y-7665352D01*
X21079180Y-12955450D02*
X20999732Y-12799524D01*
X10896666Y-4681376D02*
G75*
G03*
X10924182Y-4844000I100476J-66639D01*
G01*
X9589699Y-12799526D02*
G75*
G03*
X9524144Y-12597775I-133659J68096D01*
G01*
X9575800Y-13157200D02*
X10873209Y-13792787D01*
X26607700Y-3550359D02*
X27552389Y-7075989D01*
X7854778Y-11578842D02*
G75*
G03*
X7920332Y-11780592I133652J-68098D01*
G01*
X18216999Y-5501801D02*
X19700660Y-4744000D01*
X25786356Y-7676722D02*
X27446323Y-7259700D01*
X9510249Y-12955451D02*
G75*
G03*
X9575800Y-13157200I133651J-68099D01*
G01*
X4194152Y-3440784D02*
X6199099Y-3968356D01*
X10924182Y-4844000D02*
X12369247Y-5567251D01*
D11*
X14807574Y-9869000D02*
X14807574Y-10541000D01*
D10*
X9589696Y-12799524D02*
X9510248Y-12955450D01*
D11*
X14884400Y-7874000D02*
X14909800Y-7874000D01*
X14807574Y-10541000D02*
X15634800Y-10541000D01*
D10*
X21065286Y-12597777D02*
G75*
G03*
X20999732Y-12799524I68104J-133653D01*
G01*
X3065754Y-7072480D02*
G75*
G03*
X3171817Y-7256191I144887J-38824D01*
G01*
X18984767Y-12589501D02*
G75*
G03*
X18896132Y-12514515I-133667J-68119D01*
G01*
X22142578Y-10182555D02*
X22834648Y-11553842D01*
X21013628Y-13157201D02*
G75*
G03*
X21079180Y-12955450I-68098J133651D01*
G01*
X8550789Y-10183449D02*
G75*
G03*
X8485240Y-9981702I-133649J68099D01*
G01*
X19564471Y-13727234D02*
G75*
G03*
X19766219Y-13792787I133649J68094D01*
G01*
X21552883Y-3746109D02*
G75*
G03*
X21351134Y-3680556I-133647J-68086D01*
G01*
X6853485Y-3174970D02*
G75*
G03*
X6658216Y-3257858I-56185J-139092D01*
G01*
X12213654Y-6541436D02*
X13249460Y-7094681D01*
D11*
X15634800Y-10541000D02*
X15634800Y-9869000D01*
D10*
X17203771Y-7127380D02*
G75*
G03*
X17339968Y-7094682I10J299960D01*
G01*
X26607703Y-3550358D02*
G75*
G03*
X26423988Y-3444293I-144895J-38834D01*
G01*
D12*
D13*
X15121200Y-7288000D02*
X15211200Y-7378000D01*
X15211200Y-7288000D02*
X15121200Y-7378000D01*
X15421200Y-7288000D02*
X15511200Y-7378000D01*
X15511200Y-7288000D02*
X15421200Y-7378000D01*
D14*
X3819423Y-6318686D02*
G75*
G03*
X3819423Y-6318686I-85090J0D01*
G01*
D12*
X3666602Y-6378276D02*
X3763195Y-6404158D01*
X3705472Y-6233214D02*
X3802064Y-6259095D01*
X3763195Y-6404158D02*
G75*
G03*
X3802064Y-6259095I19435J72531D01*
G01*
X3705472Y-6233213D02*
G75*
G03*
X3666602Y-6378276I-19435J-72531D01*
G01*
D14*
X4310428Y-4481647D02*
G75*
G03*
X4310428Y-4481647I-85090J0D01*
G01*
D12*
X4157607Y-4541237D02*
X4254200Y-4567119D01*
X4196476Y-4396175D02*
X4293069Y-4422057D01*
X4254200Y-4567119D02*
G75*
G03*
X4293069Y-4422057I19435J72531D01*
G01*
X4196476Y-4396175D02*
G75*
G03*
X4157607Y-4541237I-19435J-72531D01*
G01*
D14*
X4800701Y-6582029D02*
G75*
G03*
X4800701Y-6582029I-85090J0D01*
G01*
D12*
X4647880Y-6641619D02*
X4744473Y-6667501D01*
X4686750Y-6496556D02*
X4783342Y-6522438D01*
X4744473Y-6667501D02*
G75*
G03*
X4783342Y-6522438I19435J72531D01*
G01*
X4686750Y-6496556D02*
G75*
G03*
X4647880Y-6641619I-19435J-72531D01*
G01*
D14*
X5291706Y-4744990D02*
G75*
G03*
X5291706Y-4744990I-85090J0D01*
G01*
D12*
X5138885Y-4804580D02*
X5235478Y-4830462D01*
X5177754Y-4659518D02*
X5274347Y-4685399D01*
X5235478Y-4830462D02*
G75*
G03*
X5274347Y-4685399I19435J72531D01*
G01*
X5177754Y-4659517D02*
G75*
G03*
X5138885Y-4804580I-19435J-72531D01*
G01*
D14*
X5425800Y-7738014D02*
G75*
G03*
X5425800Y-7738014I-85090J0D01*
G01*
D12*
X5266222Y-7788906D02*
X5358940Y-7826367D01*
X5322480Y-7649662D02*
X5415199Y-7687123D01*
X5358940Y-7826367D02*
G75*
G03*
X5415199Y-7687123I28129J69622D01*
G01*
X5322480Y-7649662D02*
G75*
G03*
X5266222Y-7788906I-28129J-69622D01*
G01*
D14*
X6137582Y-5976406D02*
G75*
G03*
X6137582Y-5976406I-85090J0D01*
G01*
D12*
X5978003Y-6027298D02*
X6070722Y-6064758D01*
X6034262Y-5888053D02*
X6126980Y-5925514D01*
X6070722Y-6064758D02*
G75*
G03*
X6126980Y-5925514I28129J69622D01*
G01*
X6034262Y-5888053D02*
G75*
G03*
X5978003Y-6027298I-28129J-69622D01*
G01*
D14*
X6367671Y-8118982D02*
G75*
G03*
X6367671Y-8118982I-85090J0D01*
G01*
D12*
X6208092Y-8169874D02*
X6300811Y-8207335D01*
X6264351Y-8030629D02*
X6357069Y-8068090D01*
X6300811Y-8207334D02*
G75*
G03*
X6357069Y-8068090I28129J69622D01*
G01*
X6264351Y-8030629D02*
G75*
G03*
X6208092Y-8169874I-28129J-69622D01*
G01*
D14*
X6849305Y-4214716D02*
G75*
G03*
X6849305Y-4214716I-85090J0D01*
G01*
D12*
X6689727Y-4265608D02*
X6782445Y-4303068D01*
X6745985Y-4126363D02*
X6838704Y-4163824D01*
X6782445Y-4303068D02*
G75*
G03*
X6838704Y-4163824I28129J69622D01*
G01*
X6745985Y-4126363D02*
G75*
G03*
X6689727Y-4265608I-28129J-69622D01*
G01*
D14*
X7079452Y-6357373D02*
G75*
G03*
X7079452Y-6357373I-85090J0D01*
G01*
D12*
X6919874Y-6408265D02*
X7012592Y-6445726D01*
X6976132Y-6269021D02*
X7068851Y-6306481D01*
X7012592Y-6445726D02*
G75*
G03*
X7068851Y-6306481I28129J69622D01*
G01*
X6976132Y-6269021D02*
G75*
G03*
X6919874Y-6408265I-28129J-69622D01*
G01*
D14*
X7497132Y-8002373D02*
G75*
G03*
X7497132Y-8002373I-85090J0D01*
G01*
D12*
X7333401Y-8046579D02*
X7422502Y-8091978D01*
X7401581Y-7912767D02*
X7490682Y-7958166D01*
X7422502Y-8091978D02*
G75*
G03*
X7490682Y-7958166I34090J66906D01*
G01*
X7401581Y-7912767D02*
G75*
G03*
X7333401Y-8046579I-34090J-66906D01*
G01*
D14*
X7791176Y-4595683D02*
G75*
G03*
X7791176Y-4595683I-85090J0D01*
G01*
D12*
X7631597Y-4646575D02*
X7724316Y-4684036D01*
X7687856Y-4507331D02*
X7780574Y-4544791D01*
X7724316Y-4684036D02*
G75*
G03*
X7780574Y-4544791I28129J69622D01*
G01*
X7687856Y-4507331D02*
G75*
G03*
X7631597Y-4646575I-28129J-69622D01*
G01*
D14*
X8359714Y-6309460D02*
G75*
G03*
X8359714Y-6309460I-85090J0D01*
G01*
D12*
X8195983Y-6353667D02*
X8285084Y-6399066D01*
X8264163Y-6219855D02*
X8353264Y-6265254D01*
X8285084Y-6399066D02*
G75*
G03*
X8353264Y-6265254I34090J66906D01*
G01*
X8264163Y-6219855D02*
G75*
G03*
X8195983Y-6353667I-34090J-66906D01*
G01*
D14*
X8402215Y-8463980D02*
G75*
G03*
X8402215Y-8463980I-85090J0D01*
G01*
D12*
X8238484Y-8508186D02*
X8327585Y-8553585D01*
X8306664Y-8374375D02*
X8395765Y-8419774D01*
X8327585Y-8553585D02*
G75*
G03*
X8395765Y-8419774I34090J66906D01*
G01*
X8306664Y-8374375D02*
G75*
G03*
X8238484Y-8508186I-34090J-66906D01*
G01*
D14*
X8556392Y-11244695D02*
G75*
G03*
X8556392Y-11244695I-85090J0D01*
G01*
D12*
X8392662Y-11288901D02*
X8481763Y-11334300D01*
X8460842Y-11155090D02*
X8549943Y-11200488D01*
X8481763Y-11334300D02*
G75*
G03*
X8549943Y-11200488I34090J66906D01*
G01*
X8460842Y-11155090D02*
G75*
G03*
X8392662Y-11288901I-34090J-66906D01*
G01*
D14*
X9031943Y-9268835D02*
G75*
G03*
X9031943Y-9268835I-85090J0D01*
G01*
D12*
X8868213Y-9313041D02*
X8957314Y-9358440D01*
X8936393Y-9179230D02*
X9025494Y-9224629D01*
X8957314Y-9358440D02*
G75*
G03*
X9025494Y-9224629I34090J66906D01*
G01*
X8936393Y-9179230D02*
G75*
G03*
X8868213Y-9313041I-34090J-66906D01*
G01*
D14*
X9222296Y-4616548D02*
G75*
G03*
X9222296Y-4616548I-85090J0D01*
G01*
D12*
X9058565Y-4660754D02*
X9147666Y-4706153D01*
X9126745Y-4526943D02*
X9215846Y-4572342D01*
X9147666Y-4706153D02*
G75*
G03*
X9215846Y-4572342I34090J66906D01*
G01*
X9126745Y-4526943D02*
G75*
G03*
X9058565Y-4660754I-34090J-66906D01*
G01*
D14*
X9264796Y-6771068D02*
G75*
G03*
X9264796Y-6771068I-85090J0D01*
G01*
D12*
X9101066Y-6815274D02*
X9190167Y-6860673D01*
X9169246Y-6681462D02*
X9258347Y-6726861D01*
X9190167Y-6860673D02*
G75*
G03*
X9258347Y-6726861I34090J66906D01*
G01*
X9169246Y-6681462D02*
G75*
G03*
X9101066Y-6815274I-34090J-66906D01*
G01*
D14*
X9461475Y-11706302D02*
G75*
G03*
X9461475Y-11706302I-85090J0D01*
G01*
D12*
X9297745Y-11750508D02*
X9386845Y-11795907D01*
X9365925Y-11616697D02*
X9455026Y-11662096D01*
X9386845Y-11795907D02*
G75*
G03*
X9455026Y-11662096I34090J66906D01*
G01*
X9365925Y-11616697D02*
G75*
G03*
X9297745Y-11750508I-34090J-66906D01*
G01*
D14*
X9894525Y-7575922D02*
G75*
G03*
X9894525Y-7575922I-85090J0D01*
G01*
D12*
X9730795Y-7620129D02*
X9819895Y-7665528D01*
X9798975Y-7486317D02*
X9888076Y-7531716D01*
X9819895Y-7665528D02*
G75*
G03*
X9888076Y-7531716I34090J66906D01*
G01*
X9798975Y-7486317D02*
G75*
G03*
X9730795Y-7620129I-34090J-66906D01*
G01*
D14*
X9937026Y-9730442D02*
G75*
G03*
X9937026Y-9730442I-85090J0D01*
G01*
D12*
X9773296Y-9774648D02*
X9862396Y-9820047D01*
X9841476Y-9640837D02*
X9930577Y-9686236D01*
X9862396Y-9820047D02*
G75*
G03*
X9930577Y-9686236I34090J66906D01*
G01*
X9841476Y-9640837D02*
G75*
G03*
X9773296Y-9774648I-34090J-66906D01*
G01*
D14*
X10083659Y-12530505D02*
G75*
G03*
X10083659Y-12530505I-85090J0D01*
G01*
D12*
X9919929Y-12574711D02*
X10009029Y-12620110D01*
X9988109Y-12440900D02*
X10077210Y-12486299D01*
X10009029Y-12620110D02*
G75*
G03*
X10077210Y-12486299I34090J66906D01*
G01*
X9988109Y-12440900D02*
G75*
G03*
X9919929Y-12574711I-34090J-66906D01*
G01*
D14*
X10127378Y-5078155D02*
G75*
G03*
X10127378Y-5078155I-85090J0D01*
G01*
D12*
X9963648Y-5122362D02*
X10052749Y-5167761D01*
X10031828Y-4988550D02*
X10120929Y-5033949D01*
X10052749Y-5167761D02*
G75*
G03*
X10120929Y-5033949I34090J66906D01*
G01*
X10031828Y-4988550D02*
G75*
G03*
X9963648Y-5122362I-34090J-66906D01*
G01*
D14*
X10757107Y-5883010D02*
G75*
G03*
X10757107Y-5883010I-85090J0D01*
G01*
D12*
X10593377Y-5927216D02*
X10682477Y-5972615D01*
X10661557Y-5793405D02*
X10750658Y-5838804D01*
X10682477Y-5972615D02*
G75*
G03*
X10750658Y-5838804I34090J66906D01*
G01*
X10661557Y-5793405D02*
G75*
G03*
X10593377Y-5927216I-34090J-66906D01*
G01*
D14*
X10799608Y-8037530D02*
G75*
G03*
X10799608Y-8037530I-85090J0D01*
G01*
D12*
X10635878Y-8081736D02*
X10724978Y-8127135D01*
X10704058Y-7947925D02*
X10793159Y-7993324D01*
X10724978Y-8127135D02*
G75*
G03*
X10793158Y-7993324I34090J66906D01*
G01*
X10704058Y-7947925D02*
G75*
G03*
X10635878Y-8081736I-34090J-66906D01*
G01*
D14*
X10988742Y-12992112D02*
G75*
G03*
X10988742Y-12992112I-85090J0D01*
G01*
D12*
X10825012Y-13036318D02*
X10914112Y-13081717D01*
X10893192Y-12902507D02*
X10982293Y-12947906D01*
X10914112Y-13081717D02*
G75*
G03*
X10982292Y-12947906I34090J66906D01*
G01*
X10893192Y-12902507D02*
G75*
G03*
X10825012Y-13036318I-34090J-66906D01*
G01*
D14*
X11306147Y-9084961D02*
G75*
G03*
X11306147Y-9084961I-85090J0D01*
G01*
D12*
X11142416Y-9129167D02*
X11231517Y-9174566D01*
X11210596Y-8995355D02*
X11299697Y-9040754D01*
X11231517Y-9174566D02*
G75*
G03*
X11299697Y-9040754I34090J66906D01*
G01*
X11210596Y-8995355D02*
G75*
G03*
X11142416Y-9129167I-34090J-66906D01*
G01*
D14*
X11662190Y-6344617D02*
G75*
G03*
X11662190Y-6344617I-85090J0D01*
G01*
D12*
X11498459Y-6388824D02*
X11587560Y-6434223D01*
X11566640Y-6255012D02*
X11655740Y-6300411D01*
X11587560Y-6434223D02*
G75*
G03*
X11655740Y-6300411I34090J66906D01*
G01*
X11566640Y-6255012D02*
G75*
G03*
X11498460Y-6388824I-34090J-66906D01*
G01*
D14*
X12168729Y-7392048D02*
G75*
G03*
X12168729Y-7392048I-85090J0D01*
G01*
D12*
X12004998Y-7436254D02*
X12094099Y-7481653D01*
X12073178Y-7302443D02*
X12162279Y-7347842D01*
X12094099Y-7481653D02*
G75*
G03*
X12162279Y-7347842I34090J66906D01*
G01*
X12073178Y-7302443D02*
G75*
G03*
X12004998Y-7436254I-34090J-66906D01*
G01*
D14*
X12211229Y-9546568D02*
G75*
G03*
X12211229Y-9546568I-85090J0D01*
G01*
D12*
X12047499Y-9590774D02*
X12136600Y-9636173D01*
X12115679Y-9456963D02*
X12204780Y-9502362D01*
X12136600Y-9636173D02*
G75*
G03*
X12204780Y-9502362I34090J66906D01*
G01*
X12115679Y-9456963D02*
G75*
G03*
X12047499Y-9590774I-34090J-66906D01*
G01*
D14*
X13073811Y-7853655D02*
G75*
G03*
X13073811Y-7853655I-85090J0D01*
G01*
D12*
X12910081Y-7897862D02*
X12999182Y-7943261D01*
X12978261Y-7764050D02*
X13067362Y-7809449D01*
X12999182Y-7943261D02*
G75*
G03*
X13067362Y-7809449I34090J66906D01*
G01*
X12978261Y-7764050D02*
G75*
G03*
X12910081Y-7897862I-34090J-66906D01*
G01*
D14*
X17685564Y-7853083D02*
G75*
G03*
X17685564Y-7853083I-85090J0D01*
G01*
D12*
X17590014Y-7942689D02*
X17679115Y-7897290D01*
X17521834Y-7808877D02*
X17610934Y-7763478D01*
X17679115Y-7897290D02*
G75*
G03*
X17610934Y-7763478I-34090J66906D01*
G01*
X17521834Y-7808877D02*
G75*
G03*
X17590014Y-7942689I34090J-66906D01*
G01*
D14*
X18548146Y-9545996D02*
G75*
G03*
X18548146Y-9545996I-85090J0D01*
G01*
D12*
X18452596Y-9635601D02*
X18541697Y-9590202D01*
X18384416Y-9501790D02*
X18473516Y-9456391D01*
X18541697Y-9590202D02*
G75*
G03*
X18473516Y-9456391I-34090J66906D01*
G01*
X18384416Y-9501790D02*
G75*
G03*
X18452596Y-9635601I34090J-66906D01*
G01*
D14*
X18591007Y-7392182D02*
G75*
G03*
X18591007Y-7392182I-85090J0D01*
G01*
D12*
X18495456Y-7481787D02*
X18584557Y-7436388D01*
X18427276Y-7347976D02*
X18516377Y-7302577D01*
X18584557Y-7436388D02*
G75*
G03*
X18516377Y-7302577I-34090J66906D01*
G01*
X18427276Y-7347976D02*
G75*
G03*
X18495456Y-7481787I34090J-66906D01*
G01*
D14*
X19097186Y-6344045D02*
G75*
G03*
X19097186Y-6344045I-85090J0D01*
G01*
D12*
X19001635Y-6433651D02*
X19090736Y-6388252D01*
X18933455Y-6299839D02*
X19022556Y-6254440D01*
X19090736Y-6388252D02*
G75*
G03*
X19022556Y-6254440I-34090J66906D01*
G01*
X18933455Y-6299839D02*
G75*
G03*
X19001635Y-6433651I34090J-66906D01*
G01*
D14*
X19453589Y-9085095D02*
G75*
G03*
X19453589Y-9085095I-85090J0D01*
G01*
D12*
X19358038Y-9174700D02*
X19447139Y-9129301D01*
X19289858Y-9040888D02*
X19378959Y-8995489D01*
X19447139Y-9129301D02*
G75*
G03*
X19378959Y-8995489I-34090J66906D01*
G01*
X19289858Y-9040888D02*
G75*
G03*
X19358038Y-9174700I34090J-66906D01*
G01*
D14*
X19770634Y-12991540D02*
G75*
G03*
X19770634Y-12991540I-85090J0D01*
G01*
D12*
X19675083Y-13081145D02*
X19764184Y-13035746D01*
X19606903Y-12947334D02*
X19696004Y-12901935D01*
X19764184Y-13035746D02*
G75*
G03*
X19696004Y-12901935I-34090J66906D01*
G01*
X19606903Y-12947334D02*
G75*
G03*
X19675083Y-13081145I34090J-66906D01*
G01*
D14*
X19959768Y-8036958D02*
G75*
G03*
X19959768Y-8036958I-85090J0D01*
G01*
D12*
X19864217Y-8126563D02*
X19953318Y-8081164D01*
X19796037Y-7992752D02*
X19885138Y-7947353D01*
X19953318Y-8081164D02*
G75*
G03*
X19885138Y-7947353I-34090J66906D01*
G01*
X19796037Y-7992752D02*
G75*
G03*
X19864217Y-8126563I34090J-66906D01*
G01*
D14*
X20002628Y-5883144D02*
G75*
G03*
X20002628Y-5883144I-85090J0D01*
G01*
D12*
X19907078Y-5972749D02*
X19996178Y-5927350D01*
X19838897Y-5838938D02*
X19927998Y-5793539D01*
X19996178Y-5927350D02*
G75*
G03*
X19927998Y-5793539I-34090J66906D01*
G01*
X19838898Y-5838938D02*
G75*
G03*
X19907078Y-5972749I34090J-66906D01*
G01*
D14*
X20610901Y-5085492D02*
G75*
G03*
X20610901Y-5085492I-85090J0D01*
G01*
D12*
X20515351Y-5175098D02*
X20604452Y-5129699D01*
X20447171Y-5041286D02*
X20536271Y-4995887D01*
X20604452Y-5129699D02*
G75*
G03*
X20536271Y-4995887I-34090J66906D01*
G01*
X20447171Y-5041286D02*
G75*
G03*
X20515351Y-5175098I34090J-66906D01*
G01*
D14*
X20676076Y-12530639D02*
G75*
G03*
X20676076Y-12530639I-85090J0D01*
G01*
D12*
X20580526Y-12620244D02*
X20669626Y-12574845D01*
X20512345Y-12486432D02*
X20601446Y-12441033D01*
X20669626Y-12574845D02*
G75*
G03*
X20601446Y-12441033I-34090J66906D01*
G01*
X20512346Y-12486432D02*
G75*
G03*
X20580526Y-12620244I34090J-66906D01*
G01*
D14*
X20822349Y-9729870D02*
G75*
G03*
X20822349Y-9729870I-85090J0D01*
G01*
D12*
X20726799Y-9819475D02*
X20815900Y-9774076D01*
X20658619Y-9685664D02*
X20747720Y-9640265D01*
X20815900Y-9774076D02*
G75*
G03*
X20747720Y-9640265I-34090J66906D01*
G01*
X20658619Y-9685664D02*
G75*
G03*
X20726799Y-9819475I34090J-66906D01*
G01*
D14*
X20865210Y-7576056D02*
G75*
G03*
X20865210Y-7576056I-85090J0D01*
G01*
D12*
X20769660Y-7665662D02*
X20858760Y-7620263D01*
X20701479Y-7531850D02*
X20790580Y-7486451D01*
X20858760Y-7620263D02*
G75*
G03*
X20790580Y-7486451I-34090J66906D01*
G01*
X20701480Y-7531850D02*
G75*
G03*
X20769660Y-7665662I34090J-66906D01*
G01*
D14*
X21297900Y-11705730D02*
G75*
G03*
X21297900Y-11705730I-85090J0D01*
G01*
D12*
X21202350Y-11795335D02*
X21291451Y-11749936D01*
X21134170Y-11661524D02*
X21223271Y-11616125D01*
X21291451Y-11749936D02*
G75*
G03*
X21223271Y-11616125I-34090J66906D01*
G01*
X21134170Y-11661524D02*
G75*
G03*
X21202350Y-11795335I34090J-66906D01*
G01*
D14*
X21473483Y-6778405D02*
G75*
G03*
X21473483Y-6778405I-85090J0D01*
G01*
D12*
X21377933Y-6868010D02*
X21467034Y-6822611D01*
X21309753Y-6734198D02*
X21398853Y-6688799D01*
X21467033Y-6822611D02*
G75*
G03*
X21398853Y-6688799I-34090J66906D01*
G01*
X21309753Y-6734198D02*
G75*
G03*
X21377933Y-6868010I34090J-66906D01*
G01*
D14*
X21516344Y-4624591D02*
G75*
G03*
X21516344Y-4624591I-85090J0D01*
G01*
D12*
X21420793Y-4714196D02*
X21509894Y-4668797D01*
X21352613Y-4580385D02*
X21441714Y-4534986D01*
X21509894Y-4668797D02*
G75*
G03*
X21441714Y-4534986I-34090J66906D01*
G01*
X21352613Y-4580385D02*
G75*
G03*
X21420793Y-4714196I34090J-66906D01*
G01*
D14*
X21727792Y-9268969D02*
G75*
G03*
X21727792Y-9268969I-85090J0D01*
G01*
D12*
X21632242Y-9358574D02*
X21721342Y-9313175D01*
X21564061Y-9224763D02*
X21653162Y-9179364D01*
X21721342Y-9313175D02*
G75*
G03*
X21653162Y-9179364I-34090J66906D01*
G01*
X21564061Y-9224763D02*
G75*
G03*
X21632242Y-9358574I34090J-66906D01*
G01*
D14*
X22203343Y-11244829D02*
G75*
G03*
X22203343Y-11244829I-85090J0D01*
G01*
D12*
X22107793Y-11334434D02*
X22196893Y-11289035D01*
X22039612Y-11200622D02*
X22128713Y-11155223D01*
X22196893Y-11289035D02*
G75*
G03*
X22128713Y-11155223I-34090J66906D01*
G01*
X22039612Y-11200622D02*
G75*
G03*
X22107793Y-11334434I34090J-66906D01*
G01*
D14*
X22336065Y-8471317D02*
G75*
G03*
X22336065Y-8471317I-85090J0D01*
G01*
D12*
X22240515Y-8560922D02*
X22329616Y-8515523D01*
X22172335Y-8427111D02*
X22261435Y-8381712D01*
X22329615Y-8515523D02*
G75*
G03*
X22261435Y-8381712I-34090J66906D01*
G01*
X22172335Y-8427111D02*
G75*
G03*
X22240515Y-8560922I34090J-66906D01*
G01*
D14*
X22378925Y-6317503D02*
G75*
G03*
X22378925Y-6317503I-85090J0D01*
G01*
D12*
X22283375Y-6407108D02*
X22372476Y-6361709D01*
X22215195Y-6273297D02*
X22304296Y-6227898D01*
X22372476Y-6361709D02*
G75*
G03*
X22304296Y-6227898I-34090J66906D01*
G01*
X22215195Y-6273297D02*
G75*
G03*
X22283375Y-6407108I34090J-66906D01*
G01*
D14*
X22947152Y-4603044D02*
G75*
G03*
X22947152Y-4603044I-85090J0D01*
G01*
D12*
X22843832Y-4691397D02*
X22936551Y-4653936D01*
X22787574Y-4552153D02*
X22880292Y-4514692D01*
X22936551Y-4653936D02*
G75*
G03*
X22880292Y-4514692I-28129J69622D01*
G01*
X22787574Y-4552153D02*
G75*
G03*
X22843832Y-4691397I28129J-69622D01*
G01*
D14*
X23241507Y-8010416D02*
G75*
G03*
X23241507Y-8010416I-85090J0D01*
G01*
D12*
X23145957Y-8100021D02*
X23235058Y-8054622D01*
X23077777Y-7966209D02*
X23166878Y-7920810D01*
X23235058Y-8054622D02*
G75*
G03*
X23166878Y-7920810I-34090J66906D01*
G01*
X23077777Y-7966209D02*
G75*
G03*
X23145957Y-8100021I34090J-66906D01*
G01*
D14*
X23658905Y-6364694D02*
G75*
G03*
X23658905Y-6364694I-85090J0D01*
G01*
D12*
X23555585Y-6453046D02*
X23648303Y-6415586D01*
X23499327Y-6313802D02*
X23592045Y-6276341D01*
X23648303Y-6415586D02*
G75*
G03*
X23592045Y-6276341I-28129J69622D01*
G01*
X23499327Y-6313802D02*
G75*
G03*
X23555585Y-6453046I28129J-69622D01*
G01*
D14*
X23889320Y-4222811D02*
G75*
G03*
X23889320Y-4222811I-85090J0D01*
G01*
D12*
X23786000Y-4311164D02*
X23878718Y-4273703D01*
X23729741Y-4171919D02*
X23822460Y-4134459D01*
X23878718Y-4273703D02*
G75*
G03*
X23822460Y-4134459I-28129J69622D01*
G01*
X23729741Y-4171919D02*
G75*
G03*
X23786000Y-4311164I28129J-69622D01*
G01*
D14*
X24370657Y-8126343D02*
G75*
G03*
X24370657Y-8126343I-85090J0D01*
G01*
D12*
X24267337Y-8214696D02*
X24360056Y-8177235D01*
X24211079Y-8075451D02*
X24303797Y-8037990D01*
X24360056Y-8177235D02*
G75*
G03*
X24303797Y-8037991I-28129J69622D01*
G01*
X24211079Y-8075451D02*
G75*
G03*
X24267337Y-8214696I28129J-69622D01*
G01*
D14*
X24601072Y-5984461D02*
G75*
G03*
X24601072Y-5984461I-85090J0D01*
G01*
D12*
X24497752Y-6072813D02*
X24590471Y-6035353D01*
X24441494Y-5933569D02*
X24534212Y-5896108D01*
X24590471Y-6035353D02*
G75*
G03*
X24534212Y-5896108I-28129J69622D01*
G01*
X24441494Y-5933569D02*
G75*
G03*
X24497752Y-6072813I28129J-69622D01*
G01*
D14*
X25312825Y-7746110D02*
G75*
G03*
X25312825Y-7746110I-85090J0D01*
G01*
D12*
X25209505Y-7834463D02*
X25302223Y-7797002D01*
X25153246Y-7695218D02*
X25245965Y-7657757D01*
X25302223Y-7797002D02*
G75*
G03*
X25245965Y-7657758I-28129J69622D01*
G01*
X25153246Y-7695218D02*
G75*
G03*
X25209505Y-7834463I28129J-69622D01*
G01*
D14*
X25445280Y-4753883D02*
G75*
G03*
X25445280Y-4753883I-85090J0D01*
G01*
D12*
X25331329Y-4839356D02*
X25427921Y-4813474D01*
X25292459Y-4694293D02*
X25389052Y-4668411D01*
X25427921Y-4813474D02*
G75*
G03*
X25389052Y-4668411I-19435J72531D01*
G01*
X25292459Y-4694293D02*
G75*
G03*
X25331329Y-4839356I19435J-72531D01*
G01*
D14*
X25937663Y-6589471D02*
G75*
G03*
X25937663Y-6589471I-85090J0D01*
G01*
D12*
X25823711Y-6674943D02*
X25920304Y-6649061D01*
X25784842Y-6529880D02*
X25881434Y-6503999D01*
X25920304Y-6649061D02*
G75*
G03*
X25881434Y-6503998I-19435J72531D01*
G01*
X25784842Y-6529880D02*
G75*
G03*
X25823711Y-6674943I19435J-72531D01*
G01*
D14*
X26426763Y-4491306D02*
G75*
G03*
X26426763Y-4491306I-85090J0D01*
G01*
D12*
X26312812Y-4576778D02*
X26409404Y-4550896D01*
X26273942Y-4431715D02*
X26370535Y-4405833D01*
X26409404Y-4550896D02*
G75*
G03*
X26370535Y-4405833I-19435J72531D01*
G01*
X26273942Y-4431715D02*
G75*
G03*
X26312812Y-4576778I19435J-72531D01*
G01*
D14*
X26919146Y-6326893D02*
G75*
G03*
X26919146Y-6326893I-85090J0D01*
G01*
D12*
X26805194Y-6412366D02*
X26901787Y-6386484D01*
X26766325Y-6267303D02*
X26862917Y-6241421D01*
X26901787Y-6386484D02*
G75*
G03*
X26862917Y-6241421I-19435J72531D01*
G01*
X26766325Y-6267303D02*
G75*
G03*
X26805194Y-6412366I19435J-72531D01*
G01*
D15*
X3839334Y-5808660D02*
X3839334Y-6108660D01*
X3689334Y-5958660D02*
X3989334Y-5958660D01*
X3922643Y-5956593D02*
X3922643Y-6256593D01*
X3772643Y-6106593D02*
X4072643Y-6106593D01*
X4330339Y-3971621D02*
X4330339Y-4271621D01*
X4180338Y-4121621D02*
X4480339Y-4121621D01*
X4379237Y-5725566D02*
X4379237Y-6025566D01*
X4229237Y-5875566D02*
X4529237Y-5875566D01*
X4413648Y-4119554D02*
X4413648Y-4419555D01*
X4263648Y-4269555D02*
X4563648Y-4269555D01*
X4601746Y-5875598D02*
X4601746Y-6175598D01*
X4451746Y-6025598D02*
X4751746Y-6025598D01*
X4804941Y-6067736D02*
X4804941Y-6367736D01*
X4654941Y-6217736D02*
X4954941Y-6217736D01*
X4870242Y-3888527D02*
X4870242Y-4188527D01*
X4720242Y-4038527D02*
X5020242Y-4038527D01*
X5092751Y-4038559D02*
X5092751Y-4338559D01*
X4942751Y-4188559D02*
X5242751Y-4188559D01*
X5295946Y-4230697D02*
X5295946Y-4530697D01*
X5145946Y-4380697D02*
X5445946Y-4380697D01*
X5488804Y-7243468D02*
X5488804Y-7543468D01*
X5338804Y-7393468D02*
X5638804Y-7393468D01*
X5553464Y-7400452D02*
X5553464Y-7700452D01*
X5403464Y-7550452D02*
X5703464Y-7550452D01*
X6034810Y-7226791D02*
X6034810Y-7526791D01*
X5884810Y-7376791D02*
X6184810Y-7376791D01*
X6200586Y-5481860D02*
X6200586Y-5781860D01*
X6050586Y-5631860D02*
X6350586Y-5631860D01*
X6237376Y-7402823D02*
X6237376Y-7702823D01*
X6087376Y-7552823D02*
X6387376Y-7552823D01*
X6265246Y-5638843D02*
X6265246Y-5938843D01*
X6115246Y-5788843D02*
X6415246Y-5788843D01*
X6415641Y-7618291D02*
X6415641Y-7918291D01*
X6265641Y-7768291D02*
X6565641Y-7768291D01*
X6746591Y-5465182D02*
X6746591Y-5765182D01*
X6596591Y-5615182D02*
X6896591Y-5615182D01*
X6912309Y-3720170D02*
X6912309Y-4020170D01*
X6762309Y-3870170D02*
X7062309Y-3870170D01*
X6949158Y-5641214D02*
X6949158Y-5941214D01*
X6799158Y-5791214D02*
X7099158Y-5791214D01*
X6976969Y-3877153D02*
X6976969Y-4177153D01*
X6826969Y-4027153D02*
X7126969Y-4027153D01*
X7127422Y-5856683D02*
X7127422Y-6156683D01*
X6977422Y-6006683D02*
X7277422Y-6006683D01*
X7458315Y-3703492D02*
X7458315Y-4003492D01*
X7308315Y-3853492D02*
X7608315Y-3853492D01*
X7589601Y-7522045D02*
X7589601Y-7822045D01*
X7439601Y-7672045D02*
X7739601Y-7672045D01*
X7640333Y-7684067D02*
X7640333Y-7984067D01*
X7490333Y-7834067D02*
X7790333Y-7834067D01*
X7660881Y-3879524D02*
X7660881Y-4179524D01*
X7510881Y-4029524D02*
X7810881Y-4029524D01*
X7839146Y-4094993D02*
X7839146Y-4394993D01*
X7689146Y-4244993D02*
X7989146Y-4244993D01*
X8134983Y-7553019D02*
X8134983Y-7853019D01*
X7984983Y-7703019D02*
X8284983Y-7703019D01*
X8321436Y-7746035D02*
X8321436Y-8046035D01*
X8171436Y-7896035D02*
X8471436Y-7896035D01*
X8452183Y-5829133D02*
X8452183Y-6129133D01*
X8302183Y-5979133D02*
X8602183Y-5979133D01*
X8480243Y-7976221D02*
X8480243Y-8276221D01*
X8330243Y-8126221D02*
X8630243Y-8126221D01*
X8502915Y-5991154D02*
X8502915Y-6291154D01*
X8352915Y-6141154D02*
X8652915Y-6141154D01*
X8648862Y-10764367D02*
X8648862Y-11064367D01*
X8498862Y-10914367D02*
X8798862Y-10914367D01*
X8699594Y-10926389D02*
X8699594Y-11226389D01*
X8549594Y-11076389D02*
X8849594Y-11076389D01*
X8997565Y-5860106D02*
X8997565Y-6160106D01*
X8847565Y-6010106D02*
X9147565Y-6010106D01*
X9124413Y-8788507D02*
X9124413Y-9088507D01*
X8974413Y-8938507D02*
X9274413Y-8938507D01*
X9175145Y-8950529D02*
X9175145Y-9250529D01*
X9025145Y-9100529D02*
X9325145Y-9100529D01*
X9184018Y-6053123D02*
X9184018Y-6353123D01*
X9034018Y-6203123D02*
X9334018Y-6203123D01*
X9194243Y-10795341D02*
X9194243Y-11095341D01*
X9044243Y-10945341D02*
X9344243Y-10945341D01*
X9314765Y-4136220D02*
X9314765Y-4436220D01*
X9164765Y-4286220D02*
X9464765Y-4286220D01*
X9342825Y-6283308D02*
X9342825Y-6583308D01*
X9192825Y-6433308D02*
X9492825Y-6433308D01*
X9365497Y-4298242D02*
X9365497Y-4598242D01*
X9215497Y-4448242D02*
X9515497Y-4448242D01*
X9380697Y-10988357D02*
X9380697Y-11288357D01*
X9230697Y-11138357D02*
X9530697Y-11138357D01*
X9539504Y-11218543D02*
X9539504Y-11518543D01*
X9389504Y-11368543D02*
X9689504Y-11368543D01*
X9669794Y-8819481D02*
X9669794Y-9119481D01*
X9519794Y-8969481D02*
X9819794Y-8969481D01*
X9856248Y-9012497D02*
X9856248Y-9312497D01*
X9706248Y-9162497D02*
X10006248Y-9162497D01*
X9860146Y-4167194D02*
X9860146Y-4467194D01*
X9710146Y-4317194D02*
X10010146Y-4317194D01*
X9986995Y-7095595D02*
X9986995Y-7395595D01*
X9836995Y-7245595D02*
X10136995Y-7245595D01*
X10015055Y-9242683D02*
X10015055Y-9542683D01*
X9865055Y-9392683D02*
X10165055Y-9392683D01*
X10037727Y-7257617D02*
X10037727Y-7557617D01*
X9887727Y-7407617D02*
X10187727Y-7407617D01*
X10046600Y-4360210D02*
X10046600Y-4660210D01*
X9896600Y-4510210D02*
X10196600Y-4510210D01*
X10176129Y-12050177D02*
X10176129Y-12350177D01*
X10026129Y-12200177D02*
X10326129Y-12200177D01*
X10205407Y-4590396D02*
X10205407Y-4890396D01*
X10055407Y-4740396D02*
X10355407Y-4740396D01*
X10226861Y-12212199D02*
X10226861Y-12512199D01*
X10076861Y-12362199D02*
X10376861Y-12362199D01*
X10532376Y-7126568D02*
X10532376Y-7426568D01*
X10382376Y-7276568D02*
X10682376Y-7276568D01*
X10718830Y-7319585D02*
X10718830Y-7619585D01*
X10568830Y-7469585D02*
X10868830Y-7469585D01*
X10721510Y-12081151D02*
X10721510Y-12381151D01*
X10571510Y-12231151D02*
X10871510Y-12231151D01*
X10849577Y-5402682D02*
X10849577Y-5702682D01*
X10699577Y-5552682D02*
X10999577Y-5552682D01*
X10877636Y-7549770D02*
X10877636Y-7849770D01*
X10727636Y-7699770D02*
X11027636Y-7699770D01*
X10900309Y-5564704D02*
X10900309Y-5864704D01*
X10750309Y-5714704D02*
X11050309Y-5714704D01*
X10907964Y-12274167D02*
X10907964Y-12574167D01*
X10757964Y-12424167D02*
X11057964Y-12424167D01*
X11066770Y-12504353D02*
X11066770Y-12804353D01*
X10916770Y-12654353D02*
X11216770Y-12654353D01*
X11394958Y-5433656D02*
X11394958Y-5733656D01*
X11244958Y-5583656D02*
X11544958Y-5583656D01*
X11398616Y-8604633D02*
X11398616Y-8904633D01*
X11248616Y-8754633D02*
X11548616Y-8754633D01*
X11449348Y-8766655D02*
X11449348Y-9066655D01*
X11299348Y-8916655D02*
X11599348Y-8916655D01*
X11581411Y-5626672D02*
X11581411Y-5926672D01*
X11431411Y-5776672D02*
X11731411Y-5776672D01*
X11740218Y-5856858D02*
X11740218Y-6156858D01*
X11590218Y-6006858D02*
X11890218Y-6006858D01*
X11943997Y-8635607D02*
X11943997Y-8935607D01*
X11793997Y-8785607D02*
X12093997Y-8785607D01*
X12130451Y-8828623D02*
X12130451Y-9128623D01*
X11980451Y-8978623D02*
X12280451Y-8978623D01*
X12261198Y-6911720D02*
X12261198Y-7211720D01*
X12111198Y-7061720D02*
X12411198Y-7061720D01*
X12289258Y-9058809D02*
X12289258Y-9358809D01*
X12139258Y-9208809D02*
X12439258Y-9208809D01*
X12311930Y-7073742D02*
X12311930Y-7373742D01*
X12161930Y-7223742D02*
X12461930Y-7223742D01*
X12806579Y-6942694D02*
X12806579Y-7242694D01*
X12656579Y-7092694D02*
X12956579Y-7092694D01*
X12993033Y-7135711D02*
X12993033Y-7435711D01*
X12843033Y-7285711D02*
X13143033Y-7285711D01*
X13151840Y-7365896D02*
X13151840Y-7665896D01*
X13001840Y-7515896D02*
X13301840Y-7515896D01*
X17437600Y-7365273D02*
X17437600Y-7665273D01*
X17287600Y-7515273D02*
X17587600Y-7515273D01*
X17598498Y-7419464D02*
X17598498Y-7719464D01*
X17448498Y-7569464D02*
X17748498Y-7569464D01*
X17783226Y-6942256D02*
X17783226Y-7242256D01*
X17633226Y-7092256D02*
X17933226Y-7092256D01*
X18048974Y-6904864D02*
X18048974Y-7204864D01*
X17898974Y-7054864D02*
X18198974Y-7054864D01*
X18300182Y-9058185D02*
X18300182Y-9358185D01*
X18150182Y-9208185D02*
X18450182Y-9208185D01*
X18328542Y-6911687D02*
X18328542Y-7211687D01*
X18178542Y-7061687D02*
X18478542Y-7061687D01*
X18461080Y-9112376D02*
X18461080Y-9412376D01*
X18311080Y-9262376D02*
X18611080Y-9262376D01*
X18645808Y-8635169D02*
X18645808Y-8935169D01*
X18495808Y-8785169D02*
X18795808Y-8785169D01*
X18849222Y-5856235D02*
X18849222Y-6156235D01*
X18699222Y-6006235D02*
X18999222Y-6006235D01*
X18911556Y-8597777D02*
X18911556Y-8897777D01*
X18761556Y-8747777D02*
X19061556Y-8747777D01*
X19010120Y-5910426D02*
X19010120Y-6210426D01*
X18860120Y-6060426D02*
X19160120Y-6060426D01*
X19191124Y-8604599D02*
X19191124Y-8904599D01*
X19041124Y-8754599D02*
X19341124Y-8754599D01*
X19194847Y-5433218D02*
X19194847Y-5733218D01*
X19044847Y-5583218D02*
X19344847Y-5583218D01*
X19460595Y-5395826D02*
X19460595Y-5695826D01*
X19310595Y-5545826D02*
X19610595Y-5545826D01*
X19522670Y-12503729D02*
X19522670Y-12803729D01*
X19372670Y-12653729D02*
X19672670Y-12653729D01*
X19683568Y-12557921D02*
X19683568Y-12857921D01*
X19533568Y-12707921D02*
X19833568Y-12707921D01*
X19711804Y-7549147D02*
X19711804Y-7849147D01*
X19561804Y-7699147D02*
X19861804Y-7699147D01*
X19740163Y-5402649D02*
X19740163Y-5702648D01*
X19590163Y-5552649D02*
X19890163Y-5552649D01*
X19868295Y-12080713D02*
X19868295Y-12380713D01*
X19718295Y-12230713D02*
X20018295Y-12230713D01*
X19872702Y-7603338D02*
X19872702Y-7903338D01*
X19722702Y-7753338D02*
X20022702Y-7753338D01*
X20057429Y-7126130D02*
X20057429Y-7426130D01*
X19907429Y-7276130D02*
X20207429Y-7276130D01*
X20134043Y-12043321D02*
X20134043Y-12343321D01*
X19984043Y-12193321D02*
X20284043Y-12193321D01*
X20323177Y-7088739D02*
X20323177Y-7388739D01*
X20173177Y-7238739D02*
X20473177Y-7238739D01*
X20362937Y-4597682D02*
X20362937Y-4897682D01*
X20212937Y-4747682D02*
X20512937Y-4747682D01*
X20413611Y-12050143D02*
X20413611Y-12350143D01*
X20263611Y-12200143D02*
X20563611Y-12200143D01*
X20523835Y-4651873D02*
X20523835Y-4951873D01*
X20373835Y-4801873D02*
X20673835Y-4801873D01*
X20574386Y-9242060D02*
X20574386Y-9542060D01*
X20424386Y-9392060D02*
X20724386Y-9392060D01*
X20602745Y-7095561D02*
X20602745Y-7395561D01*
X20452745Y-7245561D02*
X20752745Y-7245561D01*
X20708563Y-4174665D02*
X20708563Y-4474665D01*
X20558563Y-4324665D02*
X20858563Y-4324665D01*
X20735283Y-9296251D02*
X20735283Y-9596251D01*
X20585283Y-9446251D02*
X20885283Y-9446251D01*
X20920011Y-8819043D02*
X20920011Y-9119043D01*
X20770011Y-8969043D02*
X21070011Y-8969043D01*
X20974311Y-4137273D02*
X20974311Y-4437273D01*
X20824311Y-4287273D02*
X21124311Y-4287273D01*
X21049937Y-11217919D02*
X21049937Y-11517919D01*
X20899937Y-11367919D02*
X21199937Y-11367919D01*
X21185759Y-8781651D02*
X21185759Y-9081651D01*
X21035759Y-8931651D02*
X21335759Y-8931651D01*
X21210834Y-11272110D02*
X21210834Y-11572110D01*
X21060834Y-11422110D02*
X21360834Y-11422110D01*
X21225519Y-6290594D02*
X21225519Y-6590594D01*
X21075519Y-6440594D02*
X21375519Y-6440594D01*
X21253879Y-4144095D02*
X21253879Y-4444095D01*
X21103879Y-4294095D02*
X21403879Y-4294095D01*
X21386417Y-6344785D02*
X21386417Y-6644785D01*
X21236417Y-6494785D02*
X21536417Y-6494785D01*
X21395562Y-10794903D02*
X21395562Y-11094903D01*
X21245562Y-10944903D02*
X21545562Y-10944903D01*
X21465327Y-8788473D02*
X21465327Y-9088473D01*
X21315327Y-8938473D02*
X21615327Y-8938473D01*
X21571145Y-5867577D02*
X21571145Y-6167577D01*
X21421145Y-6017577D02*
X21721145Y-6017577D01*
X21661310Y-10757511D02*
X21661310Y-11057511D01*
X21511310Y-10907511D02*
X21811310Y-10907511D01*
X21836893Y-5830186D02*
X21836893Y-6130186D01*
X21686893Y-5980186D02*
X21986893Y-5980186D01*
X21940878Y-10764333D02*
X21940878Y-11064333D01*
X21790878Y-10914333D02*
X22090878Y-10914333D01*
X22088101Y-7983506D02*
X22088101Y-8283506D01*
X21938101Y-8133506D02*
X22238101Y-8133506D01*
X22116461Y-5837008D02*
X22116461Y-6137008D01*
X21966461Y-5987008D02*
X22266461Y-5987008D01*
X22248999Y-8037698D02*
X22248999Y-8337698D01*
X22098999Y-8187698D02*
X22398999Y-8187698D01*
X22433726Y-7560490D02*
X22433726Y-7860490D01*
X22283727Y-7710490D02*
X22583726Y-7710490D01*
X22699475Y-7523098D02*
X22699475Y-7823098D01*
X22549475Y-7673098D02*
X22849475Y-7673098D01*
X22729251Y-4102324D02*
X22729251Y-4402324D01*
X22579251Y-4252324D02*
X22879251Y-4252324D01*
X22884813Y-4170332D02*
X22884813Y-4470332D01*
X22734813Y-4320332D02*
X23034813Y-4320332D01*
X22979043Y-7529920D02*
X22979043Y-7829920D01*
X22829043Y-7679920D02*
X23129043Y-7679920D01*
X23110429Y-3711040D02*
X23110429Y-4011040D01*
X22960429Y-3861040D02*
X23260429Y-3861040D01*
X23378425Y-3696952D02*
X23378425Y-3996952D01*
X23228425Y-3846952D02*
X23528425Y-3846952D01*
X23441003Y-5863973D02*
X23441003Y-6163973D01*
X23291003Y-6013973D02*
X23591003Y-6013973D01*
X23596566Y-5931981D02*
X23596566Y-6231981D01*
X23446566Y-6081981D02*
X23746566Y-6081981D01*
X23656335Y-3728114D02*
X23656335Y-4028114D01*
X23506335Y-3878114D02*
X23806335Y-3878114D01*
X23822182Y-5472689D02*
X23822182Y-5772689D01*
X23672182Y-5622689D02*
X23972182Y-5622689D01*
X24090177Y-5458601D02*
X24090177Y-5758601D01*
X23940177Y-5608601D02*
X24240177Y-5608601D01*
X24152756Y-7625623D02*
X24152756Y-7925623D01*
X24002756Y-7775623D02*
X24302756Y-7775623D01*
X24308318Y-7693631D02*
X24308318Y-7993631D01*
X24158318Y-7843631D02*
X24458318Y-7843631D01*
X24368087Y-5489764D02*
X24368087Y-5789764D01*
X24218087Y-5639764D02*
X24518087Y-5639764D01*
X24533934Y-7234339D02*
X24533934Y-7534339D01*
X24383934Y-7384339D02*
X24683934Y-7384339D01*
X24801930Y-7220251D02*
X24801930Y-7520251D01*
X24651930Y-7370251D02*
X24951930Y-7370251D01*
X25079840Y-7251413D02*
X25079840Y-7551413D01*
X24929840Y-7401413D02*
X25229840Y-7401413D01*
X25271110Y-4239591D02*
X25271110Y-4539591D01*
X25121110Y-4389591D02*
X25421110Y-4389591D01*
X25417225Y-4326051D02*
X25417225Y-4626051D01*
X25267225Y-4476051D02*
X25567225Y-4476051D01*
X25697133Y-3897678D02*
X25697133Y-4197678D01*
X25547133Y-4047678D02*
X25847133Y-4047678D01*
X25763493Y-6075179D02*
X25763493Y-6375179D01*
X25613493Y-6225179D02*
X25913493Y-6225179D01*
X25909608Y-6161638D02*
X25909608Y-6461638D01*
X25759608Y-6311638D02*
X26059608Y-6311638D01*
X25964848Y-3916355D02*
X25964848Y-4216355D01*
X25814848Y-4066355D02*
X26114848Y-4066355D01*
X26189515Y-5733266D02*
X26189515Y-6033266D01*
X26039515Y-5883266D02*
X26339515Y-5883266D01*
X26236889Y-3981154D02*
X26236889Y-4281154D01*
X26086889Y-4131154D02*
X26386889Y-4131154D01*
X26457231Y-5751943D02*
X26457231Y-6051943D01*
X26307231Y-5901943D02*
X26607231Y-5901943D01*
X26729271Y-5816742D02*
X26729271Y-6116742D01*
X26579271Y-5966742D02*
X26879271Y-5966742D01*
D16*
X4366231Y-6591283D02*
X4366231Y-6309300D01*
X4084248Y-6309300D01*
X4084248Y-6591283D01*
X4366231Y-6591283D01*
X4857236Y-4754244D02*
X4857236Y-4472261D01*
X4575253Y-4472261D01*
X4575253Y-4754244D01*
X4857236Y-4754244D01*
X5952910Y-8069457D02*
X5952910Y-7787474D01*
X5670927Y-7787474D01*
X5670927Y-8069457D01*
X5952910Y-8069457D01*
X6664692Y-6307848D02*
X6664692Y-6025865D01*
X6382709Y-6025865D01*
X6382709Y-6307848D01*
X6664692Y-6307848D01*
X7376415Y-4546158D02*
X7376415Y-4264175D01*
X7094432Y-4264175D01*
X7094432Y-4546158D01*
X7376415Y-4546158D01*
X8005850Y-8374159D02*
X8005850Y-8092176D01*
X7723867Y-8092176D01*
X7723867Y-8374159D01*
X8005850Y-8374159D01*
X8868432Y-6681247D02*
X8868432Y-6399264D01*
X8586449Y-6399264D01*
X8586449Y-6681247D01*
X8868432Y-6681247D01*
X9065110Y-11616481D02*
X9065110Y-11334498D01*
X8783128Y-11334498D01*
X8783128Y-11616481D01*
X9065110Y-11616481D01*
X9540661Y-9640621D02*
X9540661Y-9358638D01*
X9258679Y-9358638D01*
X9258679Y-9640621D01*
X9540661Y-9640621D01*
X9731014Y-4988334D02*
X9731014Y-4706352D01*
X9449031Y-4706352D01*
X9449031Y-4988334D01*
X9731014Y-4988334D01*
X10403243Y-7947709D02*
X10403243Y-7665726D01*
X10121260Y-7665726D01*
X10121260Y-7947709D01*
X10403243Y-7947709D01*
X10592377Y-12902291D02*
X10592377Y-12620308D01*
X10310394Y-12620308D01*
X10310394Y-12902291D01*
X10592377Y-12902291D01*
X11265825Y-6254796D02*
X11265825Y-5972814D01*
X10983842Y-5972814D01*
X10983842Y-6254796D01*
X11265825Y-6254796D01*
X11814865Y-9456747D02*
X11814865Y-9174764D01*
X11532882Y-9174764D01*
X11532882Y-9456747D01*
X11814865Y-9456747D01*
X12677447Y-7763834D02*
X12677447Y-7481852D01*
X12395464Y-7481852D01*
X12395464Y-7763834D01*
X12677447Y-7763834D01*
X18194341Y-7763396D02*
X18194341Y-7481414D01*
X17912359Y-7481414D01*
X17912359Y-7763396D01*
X18194341Y-7763396D01*
X19056923Y-9456309D02*
X19056923Y-9174326D01*
X18774941Y-9174326D01*
X18774941Y-9456309D01*
X19056923Y-9456309D01*
X19605963Y-6254358D02*
X19605963Y-5972376D01*
X19323980Y-5972376D01*
X19323980Y-6254358D01*
X19605963Y-6254358D01*
X20279411Y-12901853D02*
X20279411Y-12619870D01*
X19997428Y-12619870D01*
X19997428Y-12901853D01*
X20279411Y-12901853D01*
X20468545Y-7947271D02*
X20468545Y-7665288D01*
X20186562Y-7665288D01*
X20186562Y-7947271D01*
X20468545Y-7947271D01*
X21119678Y-4995805D02*
X21119678Y-4713823D01*
X20837696Y-4713823D01*
X20837696Y-4995805D01*
X21119678Y-4995805D01*
X21331127Y-9640183D02*
X21331127Y-9358200D01*
X21049144Y-9358200D01*
X21049144Y-9640183D01*
X21331127Y-9640183D01*
X21806678Y-11616043D02*
X21806678Y-11334060D01*
X21524695Y-11334060D01*
X21524695Y-11616043D01*
X21806678Y-11616043D01*
X21982260Y-6688718D02*
X21982260Y-6406735D01*
X21700277Y-6406735D01*
X21700277Y-6688718D01*
X21982260Y-6688718D01*
X22844842Y-8381630D02*
X22844842Y-8099647D01*
X22562859Y-8099647D01*
X22562859Y-8381630D01*
X22844842Y-8381630D01*
X23474311Y-4553706D02*
X23474311Y-4271723D01*
X23192329Y-4271723D01*
X23192329Y-4553706D01*
X23474311Y-4553706D01*
X24186064Y-6315355D02*
X24186064Y-6033372D01*
X23904081Y-6033372D01*
X23904081Y-6315355D01*
X24186064Y-6315355D01*
X24897816Y-8077004D02*
X24897816Y-7795022D01*
X24615834Y-7795022D01*
X24615834Y-8077004D01*
X24897816Y-8077004D01*
X25992122Y-4763395D02*
X25992122Y-4481412D01*
X25710139Y-4481412D01*
X25710139Y-4763395D01*
X25992122Y-4763395D01*
X26484504Y-6598983D02*
X26484504Y-6317000D01*
X26202521Y-6317000D01*
X26202521Y-6598983D01*
X26484504Y-6598983D01*
D12*
X3310761Y-14127112D02*
X3310761Y-13927112D01*
X3358380Y-13927112D01*
X3386952Y-13936636D01*
X3405999Y-13955684D01*
X3415523Y-13974731D01*
X3425047Y-14012827D01*
X3425047Y-14041398D01*
X3415523Y-14079493D01*
X3405999Y-14098541D01*
X3386952Y-14117589D01*
X3358380Y-14127112D01*
X3310761Y-14127112D01*
X3510761Y-14127112D02*
X3510761Y-13993779D01*
X3510761Y-14031874D02*
X3520285Y-14012827D01*
X3529809Y-14003303D01*
X3548856Y-13993779D01*
X3567904Y-13993779D01*
X3634571Y-14127112D02*
X3634571Y-13993779D01*
X3634571Y-13927112D02*
X3625047Y-13936636D01*
X3634571Y-13946160D01*
X3644095Y-13936636D01*
X3634571Y-13927112D01*
X3634571Y-13946160D01*
X3758380Y-14127112D02*
X3739333Y-14117589D01*
X3729809Y-14098541D01*
X3729809Y-13927112D01*
X3863142Y-14127112D02*
X3844095Y-14117589D01*
X3834571Y-14098541D01*
X3834571Y-13927112D01*
X4091714Y-14127112D02*
X4091714Y-13927112D01*
X4158380Y-14069970D01*
X4225047Y-13927112D01*
X4225047Y-14127112D01*
X4405999Y-14127112D02*
X4405999Y-14022350D01*
X4396476Y-14003303D01*
X4377428Y-13993779D01*
X4339333Y-13993779D01*
X4320285Y-14003303D01*
X4405999Y-14117589D02*
X4386952Y-14127112D01*
X4339333Y-14127112D01*
X4320285Y-14117589D01*
X4310761Y-14098541D01*
X4310761Y-14079493D01*
X4320285Y-14060446D01*
X4339333Y-14050922D01*
X4386952Y-14050922D01*
X4405999Y-14041398D01*
X4501238Y-13993779D02*
X4501238Y-14193779D01*
X4501238Y-14003303D02*
X4520285Y-13993779D01*
X4558380Y-13993779D01*
X4577428Y-14003303D01*
X4586952Y-14012827D01*
X4596476Y-14031874D01*
X4596476Y-14089017D01*
X4586952Y-14108065D01*
X4577428Y-14117589D01*
X4558380Y-14127112D01*
X4520285Y-14127112D01*
X4501238Y-14117589D01*
X4682190Y-14108065D02*
X4691714Y-14117589D01*
X4682190Y-14127112D01*
X4672666Y-14117589D01*
X4682190Y-14108065D01*
X4682190Y-14127112D01*
X4682190Y-14003303D02*
X4691714Y-14012827D01*
X4682190Y-14022350D01*
X4672666Y-14012827D01*
X4682190Y-14003303D01*
X4682190Y-14022350D01*
D13*
X2963142Y-14411636D02*
X3053142Y-14501636D01*
X3053142Y-14411636D02*
X2963142Y-14501636D01*
D12*
X3348856Y-14347112D02*
X3367904Y-14347112D01*
X3386952Y-14356636D01*
X3396476Y-14366160D01*
X3405999Y-14385208D01*
X3415523Y-14423303D01*
X3415523Y-14470922D01*
X3405999Y-14509017D01*
X3396476Y-14528065D01*
X3386952Y-14537589D01*
X3367904Y-14547112D01*
X3348856Y-14547112D01*
X3329809Y-14537589D01*
X3320285Y-14528065D01*
X3310761Y-14509017D01*
X3301237Y-14470922D01*
X3301237Y-14423303D01*
X3310761Y-14385208D01*
X3320285Y-14366160D01*
X3329809Y-14356636D01*
X3348856Y-14347112D01*
X3501237Y-14528065D02*
X3510761Y-14537589D01*
X3501237Y-14547112D01*
X3491714Y-14537589D01*
X3501237Y-14528065D01*
X3501237Y-14547112D01*
X3605999Y-14547112D02*
X3644095Y-14547112D01*
X3663142Y-14537589D01*
X3672666Y-14528065D01*
X3691714Y-14499493D01*
X3701237Y-14461398D01*
X3701237Y-14385208D01*
X3691714Y-14366160D01*
X3682190Y-14356636D01*
X3663142Y-14347112D01*
X3625047Y-14347112D01*
X3605999Y-14356636D01*
X3596476Y-14366160D01*
X3586952Y-14385208D01*
X3586952Y-14432827D01*
X3596476Y-14451874D01*
X3605999Y-14461398D01*
X3625047Y-14470922D01*
X3663142Y-14470922D01*
X3682190Y-14461398D01*
X3691714Y-14451874D01*
X3701237Y-14432827D01*
X3825047Y-14347112D02*
X3844095Y-14347112D01*
X3863142Y-14356636D01*
X3872666Y-14366160D01*
X3882190Y-14385208D01*
X3891714Y-14423303D01*
X3891714Y-14470922D01*
X3882190Y-14509017D01*
X3872666Y-14528065D01*
X3863142Y-14537589D01*
X3844095Y-14547112D01*
X3825047Y-14547112D01*
X3805999Y-14537589D01*
X3796476Y-14528065D01*
X3786952Y-14509017D01*
X3777428Y-14470922D01*
X3777428Y-14423303D01*
X3786952Y-14385208D01*
X3796476Y-14366160D01*
X3805999Y-14356636D01*
X3825047Y-14347112D01*
X4015523Y-14347112D02*
X4034571Y-14347112D01*
X4053618Y-14356636D01*
X4063142Y-14366160D01*
X4072666Y-14385208D01*
X4082190Y-14423303D01*
X4082190Y-14470922D01*
X4072666Y-14509017D01*
X4063142Y-14528065D01*
X4053618Y-14537589D01*
X4034571Y-14547112D01*
X4015523Y-14547112D01*
X3996476Y-14537589D01*
X3986952Y-14528065D01*
X3977428Y-14509017D01*
X3967904Y-14470922D01*
X3967904Y-14423303D01*
X3977428Y-14385208D01*
X3986952Y-14366160D01*
X3996476Y-14356636D01*
X4015523Y-14347112D01*
X4167904Y-14547112D02*
X4167904Y-14413779D01*
X4167904Y-14432827D02*
X4177428Y-14423303D01*
X4196476Y-14413779D01*
X4225047Y-14413779D01*
X4244095Y-14423303D01*
X4253618Y-14442350D01*
X4253618Y-14547112D01*
X4253618Y-14442350D02*
X4263142Y-14423303D01*
X4282190Y-14413779D01*
X4310761Y-14413779D01*
X4329809Y-14423303D01*
X4339333Y-14442350D01*
X4339333Y-14547112D01*
X4434571Y-14547112D02*
X4434571Y-14413779D01*
X4434571Y-14432827D02*
X4444095Y-14423303D01*
X4463142Y-14413779D01*
X4491714Y-14413779D01*
X4510761Y-14423303D01*
X4520285Y-14442350D01*
X4520285Y-14547112D01*
X4520285Y-14442350D02*
X4529809Y-14423303D01*
X4548857Y-14413779D01*
X4577428Y-14413779D01*
X4596476Y-14423303D01*
X4605999Y-14442350D01*
X4605999Y-14547112D01*
X4996476Y-14337589D02*
X4825047Y-14594731D01*
X5253618Y-14347112D02*
X5272666Y-14347112D01*
X5291714Y-14356636D01*
X5301238Y-14366160D01*
X5310761Y-14385208D01*
X5320285Y-14423303D01*
X5320285Y-14470922D01*
X5310761Y-14509017D01*
X5301238Y-14528065D01*
X5291714Y-14537589D01*
X5272666Y-14547112D01*
X5253618Y-14547112D01*
X5234571Y-14537589D01*
X5225047Y-14528065D01*
X5215523Y-14509017D01*
X5205999Y-14470922D01*
X5205999Y-14423303D01*
X5215523Y-14385208D01*
X5225047Y-14366160D01*
X5234571Y-14356636D01*
X5253618Y-14347112D01*
X5405999Y-14528065D02*
X5415523Y-14537589D01*
X5405999Y-14547112D01*
X5396476Y-14537589D01*
X5405999Y-14528065D01*
X5405999Y-14547112D01*
X5539333Y-14347112D02*
X5558380Y-14347112D01*
X5577428Y-14356636D01*
X5586952Y-14366160D01*
X5596476Y-14385208D01*
X5605999Y-14423303D01*
X5605999Y-14470922D01*
X5596476Y-14509017D01*
X5586952Y-14528065D01*
X5577428Y-14537589D01*
X5558380Y-14547112D01*
X5539333Y-14547112D01*
X5520285Y-14537589D01*
X5510761Y-14528065D01*
X5501238Y-14509017D01*
X5491714Y-14470922D01*
X5491714Y-14423303D01*
X5501238Y-14385208D01*
X5510761Y-14366160D01*
X5520285Y-14356636D01*
X5539333Y-14347112D01*
X5672666Y-14347112D02*
X5796476Y-14347112D01*
X5729809Y-14423303D01*
X5758380Y-14423303D01*
X5777428Y-14432827D01*
X5786952Y-14442350D01*
X5796476Y-14461398D01*
X5796476Y-14509017D01*
X5786952Y-14528065D01*
X5777428Y-14537589D01*
X5758380Y-14547112D01*
X5701237Y-14547112D01*
X5682190Y-14537589D01*
X5672666Y-14528065D01*
X5977428Y-14347112D02*
X5882190Y-14347112D01*
X5872666Y-14442350D01*
X5882190Y-14432827D01*
X5901237Y-14423303D01*
X5948856Y-14423303D01*
X5967904Y-14432827D01*
X5977428Y-14442350D01*
X5986952Y-14461398D01*
X5986952Y-14509017D01*
X5977428Y-14528065D01*
X5967904Y-14537589D01*
X5948856Y-14547112D01*
X5901237Y-14547112D01*
X5882190Y-14537589D01*
X5872666Y-14528065D01*
X6158380Y-14413779D02*
X6158380Y-14547112D01*
X6110761Y-14337589D02*
X6063142Y-14480446D01*
X6186952Y-14480446D01*
X6253618Y-14347112D02*
X6253618Y-14385208D01*
X6329809Y-14347112D02*
X6329809Y-14385208D01*
X6625047Y-14623303D02*
X6615523Y-14613779D01*
X6596476Y-14585208D01*
X6586952Y-14566160D01*
X6577428Y-14537589D01*
X6567904Y-14489970D01*
X6567904Y-14451874D01*
X6577428Y-14404255D01*
X6586952Y-14375684D01*
X6596476Y-14356636D01*
X6615523Y-14328065D01*
X6625047Y-14318541D01*
X6691714Y-14366160D02*
X6701237Y-14356636D01*
X6720285Y-14347112D01*
X6767904Y-14347112D01*
X6786952Y-14356636D01*
X6796476Y-14366160D01*
X6805999Y-14385208D01*
X6805999Y-14404255D01*
X6796476Y-14432827D01*
X6682190Y-14547112D01*
X6805999Y-14547112D01*
X7044095Y-14547112D02*
X7044095Y-14347112D01*
X7129809Y-14547112D02*
X7129809Y-14442350D01*
X7120285Y-14423303D01*
X7101237Y-14413779D01*
X7072666Y-14413779D01*
X7053618Y-14423303D01*
X7044095Y-14432827D01*
X7253618Y-14547112D02*
X7234571Y-14537589D01*
X7225047Y-14528065D01*
X7215523Y-14509017D01*
X7215523Y-14451874D01*
X7225047Y-14432827D01*
X7234571Y-14423303D01*
X7253618Y-14413779D01*
X7282190Y-14413779D01*
X7301237Y-14423303D01*
X7310761Y-14432827D01*
X7320285Y-14451874D01*
X7320285Y-14509017D01*
X7310761Y-14528065D01*
X7301237Y-14537589D01*
X7282190Y-14547112D01*
X7253618Y-14547112D01*
X7434571Y-14547112D02*
X7415523Y-14537589D01*
X7405999Y-14518541D01*
X7405999Y-14347112D01*
X7586952Y-14537589D02*
X7567904Y-14547112D01*
X7529809Y-14547112D01*
X7510761Y-14537589D01*
X7501237Y-14518541D01*
X7501237Y-14442350D01*
X7510761Y-14423303D01*
X7529809Y-14413779D01*
X7567904Y-14413779D01*
X7586952Y-14423303D01*
X7596476Y-14442350D01*
X7596476Y-14461398D01*
X7501237Y-14480446D01*
X7672666Y-14537589D02*
X7691714Y-14547112D01*
X7729809Y-14547112D01*
X7748856Y-14537589D01*
X7758380Y-14518541D01*
X7758380Y-14509017D01*
X7748856Y-14489970D01*
X7729809Y-14480446D01*
X7701237Y-14480446D01*
X7682190Y-14470922D01*
X7672666Y-14451874D01*
X7672666Y-14442350D01*
X7682190Y-14423303D01*
X7701237Y-14413779D01*
X7729809Y-14413779D01*
X7748856Y-14423303D01*
X7825047Y-14623303D02*
X7834571Y-14613779D01*
X7853618Y-14585208D01*
X7863142Y-14566160D01*
X7872666Y-14537589D01*
X7882190Y-14489970D01*
X7882190Y-14451874D01*
X7872666Y-14404255D01*
X7863142Y-14375684D01*
X7853618Y-14356636D01*
X7834571Y-14328065D01*
X7825047Y-14318541D01*
X8186952Y-14623303D02*
X8177428Y-14613779D01*
X8158380Y-14585208D01*
X8148856Y-14566160D01*
X8139333Y-14537589D01*
X8129809Y-14489970D01*
X8129809Y-14451874D01*
X8139333Y-14404255D01*
X8148856Y-14375684D01*
X8158380Y-14356636D01*
X8177428Y-14328065D01*
X8186952Y-14318541D01*
X8263142Y-14413779D02*
X8263142Y-14547112D01*
X8263142Y-14432827D02*
X8272666Y-14423303D01*
X8291714Y-14413779D01*
X8320285Y-14413779D01*
X8339333Y-14423303D01*
X8348856Y-14442350D01*
X8348856Y-14547112D01*
X8472666Y-14547112D02*
X8453618Y-14537589D01*
X8444095Y-14528065D01*
X8434571Y-14509017D01*
X8434571Y-14451874D01*
X8444095Y-14432827D01*
X8453618Y-14423303D01*
X8472666Y-14413779D01*
X8501238Y-14413779D01*
X8520285Y-14423303D01*
X8529809Y-14432827D01*
X8539333Y-14451874D01*
X8539333Y-14509017D01*
X8529809Y-14528065D01*
X8520285Y-14537589D01*
X8501238Y-14547112D01*
X8472666Y-14547112D01*
X8596476Y-14413779D02*
X8672666Y-14413779D01*
X8625047Y-14347112D02*
X8625047Y-14518541D01*
X8634571Y-14537589D01*
X8653618Y-14547112D01*
X8672666Y-14547112D01*
X8891714Y-14413779D02*
X8891714Y-14613779D01*
X8891714Y-14423303D02*
X8910761Y-14413779D01*
X8948857Y-14413779D01*
X8967904Y-14423303D01*
X8977428Y-14432827D01*
X8986952Y-14451874D01*
X8986952Y-14509017D01*
X8977428Y-14528065D01*
X8967904Y-14537589D01*
X8948857Y-14547112D01*
X8910761Y-14547112D01*
X8891714Y-14537589D01*
X9101238Y-14547112D02*
X9082190Y-14537589D01*
X9072666Y-14518541D01*
X9072666Y-14347112D01*
X9263142Y-14547112D02*
X9263142Y-14442350D01*
X9253618Y-14423303D01*
X9234571Y-14413779D01*
X9196476Y-14413779D01*
X9177428Y-14423303D01*
X9263142Y-14537589D02*
X9244095Y-14547112D01*
X9196476Y-14547112D01*
X9177428Y-14537589D01*
X9167904Y-14518541D01*
X9167904Y-14499493D01*
X9177428Y-14480446D01*
X9196476Y-14470922D01*
X9244095Y-14470922D01*
X9263142Y-14461398D01*
X9329809Y-14413779D02*
X9405999Y-14413779D01*
X9358380Y-14347112D02*
X9358380Y-14518541D01*
X9367904Y-14537589D01*
X9386952Y-14547112D01*
X9405999Y-14547112D01*
X9548857Y-14537589D02*
X9529809Y-14547112D01*
X9491714Y-14547112D01*
X9472666Y-14537589D01*
X9463142Y-14518541D01*
X9463142Y-14442350D01*
X9472666Y-14423303D01*
X9491714Y-14413779D01*
X9529809Y-14413779D01*
X9548857Y-14423303D01*
X9558380Y-14442350D01*
X9558380Y-14461398D01*
X9463142Y-14480446D01*
X9729809Y-14547112D02*
X9729809Y-14347112D01*
X9729809Y-14537589D02*
X9710761Y-14547112D01*
X9672666Y-14547112D01*
X9653618Y-14537589D01*
X9644095Y-14528065D01*
X9634571Y-14509017D01*
X9634571Y-14451874D01*
X9644095Y-14432827D01*
X9653618Y-14423303D01*
X9672666Y-14413779D01*
X9710761Y-14413779D01*
X9729809Y-14423303D01*
X9805999Y-14623303D02*
X9815523Y-14613779D01*
X9834571Y-14585208D01*
X9844095Y-14566160D01*
X9853618Y-14537589D01*
X9863142Y-14489970D01*
X9863142Y-14451874D01*
X9853618Y-14404255D01*
X9844095Y-14375684D01*
X9834571Y-14356636D01*
X9815523Y-14328065D01*
X9805999Y-14318541D01*
D14*
X3053142Y-14720636D02*
G75*
G03*
X3053142Y-14720636I-85090J0D01*
G01*
D12*
X3415523Y-14811112D02*
X3301237Y-14811112D01*
X3358380Y-14811112D02*
X3358380Y-14611112D01*
X3339333Y-14639684D01*
X3320285Y-14658731D01*
X3301237Y-14668255D01*
X3501237Y-14792065D02*
X3510761Y-14801589D01*
X3501237Y-14811112D01*
X3491714Y-14801589D01*
X3501237Y-14792065D01*
X3501237Y-14811112D01*
X3577428Y-14611112D02*
X3710761Y-14611112D01*
X3625047Y-14811112D01*
X3825047Y-14611112D02*
X3844095Y-14611112D01*
X3863142Y-14620636D01*
X3872666Y-14630160D01*
X3882190Y-14649208D01*
X3891714Y-14687303D01*
X3891714Y-14734922D01*
X3882190Y-14773017D01*
X3872666Y-14792065D01*
X3863142Y-14801589D01*
X3844095Y-14811112D01*
X3825047Y-14811112D01*
X3805999Y-14801589D01*
X3796476Y-14792065D01*
X3786952Y-14773017D01*
X3777428Y-14734922D01*
X3777428Y-14687303D01*
X3786952Y-14649208D01*
X3796476Y-14630160D01*
X3805999Y-14620636D01*
X3825047Y-14611112D01*
X3967904Y-14630160D02*
X3977428Y-14620636D01*
X3996476Y-14611112D01*
X4044095Y-14611112D01*
X4063142Y-14620636D01*
X4072666Y-14630160D01*
X4082190Y-14649208D01*
X4082190Y-14668255D01*
X4072666Y-14696827D01*
X3958380Y-14811112D01*
X4082190Y-14811112D01*
X4167904Y-14811112D02*
X4167904Y-14677779D01*
X4167904Y-14696827D02*
X4177428Y-14687303D01*
X4196476Y-14677779D01*
X4225047Y-14677779D01*
X4244095Y-14687303D01*
X4253618Y-14706350D01*
X4253618Y-14811112D01*
X4253618Y-14706350D02*
X4263142Y-14687303D01*
X4282190Y-14677779D01*
X4310761Y-14677779D01*
X4329809Y-14687303D01*
X4339333Y-14706350D01*
X4339333Y-14811112D01*
X4434571Y-14811112D02*
X4434571Y-14677779D01*
X4434571Y-14696827D02*
X4444095Y-14687303D01*
X4463142Y-14677779D01*
X4491714Y-14677779D01*
X4510761Y-14687303D01*
X4520285Y-14706350D01*
X4520285Y-14811112D01*
X4520285Y-14706350D02*
X4529809Y-14687303D01*
X4548857Y-14677779D01*
X4577428Y-14677779D01*
X4596476Y-14687303D01*
X4605999Y-14706350D01*
X4605999Y-14811112D01*
X4996476Y-14601589D02*
X4825047Y-14858731D01*
X5253618Y-14611112D02*
X5272666Y-14611112D01*
X5291714Y-14620636D01*
X5301238Y-14630160D01*
X5310761Y-14649208D01*
X5320285Y-14687303D01*
X5320285Y-14734922D01*
X5310761Y-14773017D01*
X5301238Y-14792065D01*
X5291714Y-14801589D01*
X5272666Y-14811112D01*
X5253618Y-14811112D01*
X5234571Y-14801589D01*
X5225047Y-14792065D01*
X5215523Y-14773017D01*
X5205999Y-14734922D01*
X5205999Y-14687303D01*
X5215523Y-14649208D01*
X5225047Y-14630160D01*
X5234571Y-14620636D01*
X5253618Y-14611112D01*
X5405999Y-14792065D02*
X5415523Y-14801589D01*
X5405999Y-14811112D01*
X5396476Y-14801589D01*
X5405999Y-14792065D01*
X5405999Y-14811112D01*
X5539333Y-14611112D02*
X5558380Y-14611112D01*
X5577428Y-14620636D01*
X5586952Y-14630160D01*
X5596476Y-14649208D01*
X5605999Y-14687303D01*
X5605999Y-14734922D01*
X5596476Y-14773017D01*
X5586952Y-14792065D01*
X5577428Y-14801589D01*
X5558380Y-14811112D01*
X5539333Y-14811112D01*
X5520285Y-14801589D01*
X5510761Y-14792065D01*
X5501238Y-14773017D01*
X5491714Y-14734922D01*
X5491714Y-14687303D01*
X5501238Y-14649208D01*
X5510761Y-14630160D01*
X5520285Y-14620636D01*
X5539333Y-14611112D01*
X5777428Y-14611112D02*
X5739333Y-14611112D01*
X5720285Y-14620636D01*
X5710761Y-14630160D01*
X5691714Y-14658731D01*
X5682190Y-14696827D01*
X5682190Y-14773017D01*
X5691714Y-14792065D01*
X5701237Y-14801589D01*
X5720285Y-14811112D01*
X5758380Y-14811112D01*
X5777428Y-14801589D01*
X5786952Y-14792065D01*
X5796476Y-14773017D01*
X5796476Y-14725398D01*
X5786952Y-14706350D01*
X5777428Y-14696827D01*
X5758380Y-14687303D01*
X5720285Y-14687303D01*
X5701237Y-14696827D01*
X5691714Y-14706350D01*
X5682190Y-14725398D01*
X5863142Y-14611112D02*
X5996476Y-14611112D01*
X5910761Y-14811112D01*
X6110761Y-14611112D02*
X6129809Y-14611112D01*
X6148856Y-14620636D01*
X6158380Y-14630160D01*
X6167904Y-14649208D01*
X6177428Y-14687303D01*
X6177428Y-14734922D01*
X6167904Y-14773017D01*
X6158380Y-14792065D01*
X6148856Y-14801589D01*
X6129809Y-14811112D01*
X6110761Y-14811112D01*
X6091714Y-14801589D01*
X6082190Y-14792065D01*
X6072666Y-14773017D01*
X6063142Y-14734922D01*
X6063142Y-14687303D01*
X6072666Y-14649208D01*
X6082190Y-14630160D01*
X6091714Y-14620636D01*
X6110761Y-14611112D01*
X6253618Y-14611112D02*
X6253618Y-14649208D01*
X6329809Y-14611112D02*
X6329809Y-14649208D01*
X6625047Y-14887303D02*
X6615523Y-14877779D01*
X6596476Y-14849208D01*
X6586952Y-14830160D01*
X6577428Y-14801589D01*
X6567904Y-14753970D01*
X6567904Y-14715874D01*
X6577428Y-14668255D01*
X6586952Y-14639684D01*
X6596476Y-14620636D01*
X6615523Y-14592065D01*
X6625047Y-14582541D01*
X6739333Y-14611112D02*
X6758380Y-14611112D01*
X6777428Y-14620636D01*
X6786952Y-14630160D01*
X6796476Y-14649208D01*
X6805999Y-14687303D01*
X6805999Y-14734922D01*
X6796476Y-14773017D01*
X6786952Y-14792065D01*
X6777428Y-14801589D01*
X6758380Y-14811112D01*
X6739333Y-14811112D01*
X6720285Y-14801589D01*
X6710761Y-14792065D01*
X6701237Y-14773017D01*
X6691714Y-14734922D01*
X6691714Y-14687303D01*
X6701237Y-14649208D01*
X6710761Y-14630160D01*
X6720285Y-14620636D01*
X6739333Y-14611112D01*
X7044095Y-14811112D02*
X7044095Y-14611112D01*
X7129809Y-14811112D02*
X7129809Y-14706350D01*
X7120285Y-14687303D01*
X7101237Y-14677779D01*
X7072666Y-14677779D01*
X7053618Y-14687303D01*
X7044095Y-14696827D01*
X7253618Y-14811112D02*
X7234571Y-14801589D01*
X7225047Y-14792065D01*
X7215523Y-14773017D01*
X7215523Y-14715874D01*
X7225047Y-14696827D01*
X7234571Y-14687303D01*
X7253618Y-14677779D01*
X7282190Y-14677779D01*
X7301237Y-14687303D01*
X7310761Y-14696827D01*
X7320285Y-14715874D01*
X7320285Y-14773017D01*
X7310761Y-14792065D01*
X7301237Y-14801589D01*
X7282190Y-14811112D01*
X7253618Y-14811112D01*
X7434571Y-14811112D02*
X7415523Y-14801589D01*
X7405999Y-14782541D01*
X7405999Y-14611112D01*
X7586952Y-14801589D02*
X7567904Y-14811112D01*
X7529809Y-14811112D01*
X7510761Y-14801589D01*
X7501237Y-14782541D01*
X7501237Y-14706350D01*
X7510761Y-14687303D01*
X7529809Y-14677779D01*
X7567904Y-14677779D01*
X7586952Y-14687303D01*
X7596476Y-14706350D01*
X7596476Y-14725398D01*
X7501237Y-14744446D01*
X7672666Y-14801589D02*
X7691714Y-14811112D01*
X7729809Y-14811112D01*
X7748856Y-14801589D01*
X7758380Y-14782541D01*
X7758380Y-14773017D01*
X7748856Y-14753970D01*
X7729809Y-14744446D01*
X7701237Y-14744446D01*
X7682190Y-14734922D01*
X7672666Y-14715874D01*
X7672666Y-14706350D01*
X7682190Y-14687303D01*
X7701237Y-14677779D01*
X7729809Y-14677779D01*
X7748856Y-14687303D01*
X7996476Y-14734922D02*
X8148856Y-14734922D01*
X8072666Y-14811112D02*
X8072666Y-14658731D01*
X8482190Y-14611112D02*
X8444095Y-14611112D01*
X8425047Y-14620636D01*
X8415523Y-14630160D01*
X8396476Y-14658731D01*
X8386952Y-14696827D01*
X8386952Y-14773017D01*
X8396476Y-14792065D01*
X8405999Y-14801589D01*
X8425047Y-14811112D01*
X8463142Y-14811112D01*
X8482190Y-14801589D01*
X8491714Y-14792065D01*
X8501238Y-14773017D01*
X8501238Y-14725398D01*
X8491714Y-14706350D01*
X8482190Y-14696827D01*
X8463142Y-14687303D01*
X8425047Y-14687303D01*
X8405999Y-14696827D01*
X8396476Y-14706350D01*
X8386952Y-14725398D01*
X8625047Y-14611112D02*
X8644095Y-14611112D01*
X8663142Y-14620636D01*
X8672666Y-14630160D01*
X8682190Y-14649208D01*
X8691714Y-14687303D01*
X8691714Y-14734922D01*
X8682190Y-14773017D01*
X8672666Y-14792065D01*
X8663142Y-14801589D01*
X8644095Y-14811112D01*
X8625047Y-14811112D01*
X8605999Y-14801589D01*
X8596476Y-14792065D01*
X8586952Y-14773017D01*
X8577428Y-14734922D01*
X8577428Y-14687303D01*
X8586952Y-14649208D01*
X8596476Y-14630160D01*
X8605999Y-14620636D01*
X8625047Y-14611112D01*
X8920285Y-14801589D02*
X8939333Y-14811112D01*
X8977428Y-14811112D01*
X8996476Y-14801589D01*
X9005999Y-14782541D01*
X9005999Y-14773017D01*
X8996476Y-14753970D01*
X8977428Y-14744446D01*
X8948857Y-14744446D01*
X8929809Y-14734922D01*
X8920285Y-14715874D01*
X8920285Y-14706350D01*
X8929809Y-14687303D01*
X8948857Y-14677779D01*
X8977428Y-14677779D01*
X8996476Y-14687303D01*
X9120285Y-14811112D02*
X9101238Y-14801589D01*
X9091714Y-14782541D01*
X9091714Y-14611112D01*
X9225047Y-14811112D02*
X9205999Y-14801589D01*
X9196476Y-14792065D01*
X9186952Y-14773017D01*
X9186952Y-14715874D01*
X9196476Y-14696827D01*
X9205999Y-14687303D01*
X9225047Y-14677779D01*
X9253618Y-14677779D01*
X9272666Y-14687303D01*
X9282190Y-14696827D01*
X9291714Y-14715874D01*
X9291714Y-14773017D01*
X9282190Y-14792065D01*
X9272666Y-14801589D01*
X9253618Y-14811112D01*
X9225047Y-14811112D01*
X9348857Y-14677779D02*
X9425047Y-14677779D01*
X9377428Y-14611112D02*
X9377428Y-14782541D01*
X9386952Y-14801589D01*
X9405999Y-14811112D01*
X9425047Y-14811112D01*
X9482190Y-14801589D02*
X9501238Y-14811112D01*
X9539333Y-14811112D01*
X9558380Y-14801589D01*
X9567904Y-14782541D01*
X9567904Y-14773017D01*
X9558380Y-14753970D01*
X9539333Y-14744446D01*
X9510761Y-14744446D01*
X9491714Y-14734922D01*
X9482190Y-14715874D01*
X9482190Y-14706350D01*
X9491714Y-14687303D01*
X9510761Y-14677779D01*
X9539333Y-14677779D01*
X9558380Y-14687303D01*
X9634571Y-14887303D02*
X9644095Y-14877779D01*
X9663142Y-14849208D01*
X9672666Y-14830160D01*
X9682190Y-14801589D01*
X9691714Y-14753970D01*
X9691714Y-14715874D01*
X9682190Y-14668255D01*
X9672666Y-14639684D01*
X9663142Y-14620636D01*
X9644095Y-14592065D01*
X9634571Y-14582541D01*
X9996476Y-14887303D02*
X9986952Y-14877779D01*
X9967904Y-14849208D01*
X9958380Y-14830160D01*
X9948857Y-14801589D01*
X9939333Y-14753970D01*
X9939333Y-14715874D01*
X9948857Y-14668255D01*
X9958380Y-14639684D01*
X9967904Y-14620636D01*
X9986952Y-14592065D01*
X9996476Y-14582541D01*
X10072666Y-14677779D02*
X10072666Y-14811112D01*
X10072666Y-14696827D02*
X10082190Y-14687303D01*
X10101238Y-14677779D01*
X10129809Y-14677779D01*
X10148857Y-14687303D01*
X10158380Y-14706350D01*
X10158380Y-14811112D01*
X10282190Y-14811112D02*
X10263142Y-14801589D01*
X10253618Y-14792065D01*
X10244095Y-14773017D01*
X10244095Y-14715874D01*
X10253618Y-14696827D01*
X10263142Y-14687303D01*
X10282190Y-14677779D01*
X10310761Y-14677779D01*
X10329809Y-14687303D01*
X10339333Y-14696827D01*
X10348857Y-14715874D01*
X10348857Y-14773017D01*
X10339333Y-14792065D01*
X10329809Y-14801589D01*
X10310761Y-14811112D01*
X10282190Y-14811112D01*
X10405999Y-14677779D02*
X10482190Y-14677779D01*
X10434571Y-14611112D02*
X10434571Y-14782541D01*
X10444095Y-14801589D01*
X10463142Y-14811112D01*
X10482190Y-14811112D01*
X10701238Y-14677779D02*
X10701238Y-14877779D01*
X10701238Y-14687303D02*
X10720285Y-14677779D01*
X10758380Y-14677779D01*
X10777428Y-14687303D01*
X10786952Y-14696827D01*
X10796476Y-14715874D01*
X10796476Y-14773017D01*
X10786952Y-14792065D01*
X10777428Y-14801589D01*
X10758380Y-14811112D01*
X10720285Y-14811112D01*
X10701238Y-14801589D01*
X10910761Y-14811112D02*
X10891714Y-14801589D01*
X10882190Y-14782541D01*
X10882190Y-14611112D01*
X11072666Y-14811112D02*
X11072666Y-14706350D01*
X11063142Y-14687303D01*
X11044095Y-14677779D01*
X11005999Y-14677779D01*
X10986952Y-14687303D01*
X11072666Y-14801589D02*
X11053618Y-14811112D01*
X11005999Y-14811112D01*
X10986952Y-14801589D01*
X10977428Y-14782541D01*
X10977428Y-14763493D01*
X10986952Y-14744446D01*
X11005999Y-14734922D01*
X11053618Y-14734922D01*
X11072666Y-14725398D01*
X11139333Y-14677779D02*
X11215523Y-14677779D01*
X11167904Y-14611112D02*
X11167904Y-14782541D01*
X11177428Y-14801589D01*
X11196476Y-14811112D01*
X11215523Y-14811112D01*
X11358380Y-14801589D02*
X11339333Y-14811112D01*
X11301237Y-14811112D01*
X11282190Y-14801589D01*
X11272666Y-14782541D01*
X11272666Y-14706350D01*
X11282190Y-14687303D01*
X11301237Y-14677779D01*
X11339333Y-14677779D01*
X11358380Y-14687303D01*
X11367904Y-14706350D01*
X11367904Y-14725398D01*
X11272666Y-14744446D01*
X11539333Y-14811112D02*
X11539333Y-14611112D01*
X11539333Y-14801589D02*
X11520285Y-14811112D01*
X11482190Y-14811112D01*
X11463142Y-14801589D01*
X11453618Y-14792065D01*
X11444095Y-14773017D01*
X11444095Y-14715874D01*
X11453618Y-14696827D01*
X11463142Y-14687303D01*
X11482190Y-14677779D01*
X11520285Y-14677779D01*
X11539333Y-14687303D01*
X11615523Y-14887303D02*
X11625047Y-14877779D01*
X11644095Y-14849208D01*
X11653618Y-14830160D01*
X11663142Y-14801589D01*
X11672666Y-14753970D01*
X11672666Y-14715874D01*
X11663142Y-14668255D01*
X11653618Y-14639684D01*
X11644095Y-14620636D01*
X11625047Y-14592065D01*
X11615523Y-14582541D01*
X2953142Y-14910816D02*
X2953142Y-15110816D01*
X2853142Y-15010816D02*
X3053142Y-15010816D01*
X3291714Y-14901292D02*
X3415523Y-14901292D01*
X3348856Y-14977483D01*
X3377428Y-14977483D01*
X3396476Y-14987007D01*
X3405999Y-14996530D01*
X3415523Y-15015578D01*
X3415523Y-15063197D01*
X3405999Y-15082245D01*
X3396476Y-15091769D01*
X3377428Y-15101292D01*
X3320285Y-15101292D01*
X3301237Y-15091769D01*
X3291714Y-15082245D01*
X3501237Y-15082245D02*
X3510761Y-15091769D01*
X3501237Y-15101292D01*
X3491714Y-15091769D01*
X3501237Y-15082245D01*
X3501237Y-15101292D01*
X3634571Y-14901292D02*
X3653618Y-14901292D01*
X3672666Y-14910816D01*
X3682190Y-14920340D01*
X3691714Y-14939388D01*
X3701237Y-14977483D01*
X3701237Y-15025102D01*
X3691714Y-15063197D01*
X3682190Y-15082245D01*
X3672666Y-15091769D01*
X3653618Y-15101292D01*
X3634571Y-15101292D01*
X3615523Y-15091769D01*
X3605999Y-15082245D01*
X3596476Y-15063197D01*
X3586952Y-15025102D01*
X3586952Y-14977483D01*
X3596476Y-14939388D01*
X3605999Y-14920340D01*
X3615523Y-14910816D01*
X3634571Y-14901292D01*
X3825047Y-14901292D02*
X3844095Y-14901292D01*
X3863142Y-14910816D01*
X3872666Y-14920340D01*
X3882190Y-14939388D01*
X3891714Y-14977483D01*
X3891714Y-15025102D01*
X3882190Y-15063197D01*
X3872666Y-15082245D01*
X3863142Y-15091769D01*
X3844095Y-15101292D01*
X3825047Y-15101292D01*
X3805999Y-15091769D01*
X3796476Y-15082245D01*
X3786952Y-15063197D01*
X3777428Y-15025102D01*
X3777428Y-14977483D01*
X3786952Y-14939388D01*
X3796476Y-14920340D01*
X3805999Y-14910816D01*
X3825047Y-14901292D01*
X4015523Y-14901292D02*
X4034571Y-14901292D01*
X4053618Y-14910816D01*
X4063142Y-14920340D01*
X4072666Y-14939388D01*
X4082190Y-14977483D01*
X4082190Y-15025102D01*
X4072666Y-15063197D01*
X4063142Y-15082245D01*
X4053618Y-15091769D01*
X4034571Y-15101292D01*
X4015523Y-15101292D01*
X3996476Y-15091769D01*
X3986952Y-15082245D01*
X3977428Y-15063197D01*
X3967904Y-15025102D01*
X3967904Y-14977483D01*
X3977428Y-14939388D01*
X3986952Y-14920340D01*
X3996476Y-14910816D01*
X4015523Y-14901292D01*
X4167904Y-15101292D02*
X4167904Y-14967959D01*
X4167904Y-14987007D02*
X4177428Y-14977483D01*
X4196476Y-14967959D01*
X4225047Y-14967959D01*
X4244095Y-14977483D01*
X4253618Y-14996530D01*
X4253618Y-15101292D01*
X4253618Y-14996530D02*
X4263142Y-14977483D01*
X4282190Y-14967959D01*
X4310761Y-14967959D01*
X4329809Y-14977483D01*
X4339333Y-14996530D01*
X4339333Y-15101292D01*
X4434571Y-15101292D02*
X4434571Y-14967959D01*
X4434571Y-14987007D02*
X4444095Y-14977483D01*
X4463142Y-14967959D01*
X4491714Y-14967959D01*
X4510761Y-14977483D01*
X4520285Y-14996530D01*
X4520285Y-15101292D01*
X4520285Y-14996530D02*
X4529809Y-14977483D01*
X4548857Y-14967959D01*
X4577428Y-14967959D01*
X4596476Y-14977483D01*
X4605999Y-14996530D01*
X4605999Y-15101292D01*
X4996476Y-14891769D02*
X4825047Y-15148911D01*
X5253618Y-14901292D02*
X5272666Y-14901292D01*
X5291714Y-14910816D01*
X5301238Y-14920340D01*
X5310761Y-14939388D01*
X5320285Y-14977483D01*
X5320285Y-15025102D01*
X5310761Y-15063197D01*
X5301238Y-15082245D01*
X5291714Y-15091769D01*
X5272666Y-15101292D01*
X5253618Y-15101292D01*
X5234571Y-15091769D01*
X5225047Y-15082245D01*
X5215523Y-15063197D01*
X5205999Y-15025102D01*
X5205999Y-14977483D01*
X5215523Y-14939388D01*
X5225047Y-14920340D01*
X5234571Y-14910816D01*
X5253618Y-14901292D01*
X5405999Y-15082245D02*
X5415523Y-15091769D01*
X5405999Y-15101292D01*
X5396476Y-15091769D01*
X5405999Y-15082245D01*
X5405999Y-15101292D01*
X5605999Y-15101292D02*
X5491714Y-15101292D01*
X5548857Y-15101292D02*
X5548857Y-14901292D01*
X5529809Y-14929864D01*
X5510761Y-14948911D01*
X5491714Y-14958435D01*
X5796476Y-15101292D02*
X5682190Y-15101292D01*
X5739333Y-15101292D02*
X5739333Y-14901292D01*
X5720285Y-14929864D01*
X5701237Y-14948911D01*
X5682190Y-14958435D01*
X5910761Y-14987007D02*
X5891714Y-14977483D01*
X5882190Y-14967959D01*
X5872666Y-14948911D01*
X5872666Y-14939388D01*
X5882190Y-14920340D01*
X5891714Y-14910816D01*
X5910761Y-14901292D01*
X5948856Y-14901292D01*
X5967904Y-14910816D01*
X5977428Y-14920340D01*
X5986952Y-14939388D01*
X5986952Y-14948911D01*
X5977428Y-14967959D01*
X5967904Y-14977483D01*
X5948856Y-14987007D01*
X5910761Y-14987007D01*
X5891714Y-14996530D01*
X5882190Y-15006054D01*
X5872666Y-15025102D01*
X5872666Y-15063197D01*
X5882190Y-15082245D01*
X5891714Y-15091769D01*
X5910761Y-15101292D01*
X5948856Y-15101292D01*
X5967904Y-15091769D01*
X5977428Y-15082245D01*
X5986952Y-15063197D01*
X5986952Y-15025102D01*
X5977428Y-15006054D01*
X5967904Y-14996530D01*
X5948856Y-14987007D01*
X6177428Y-15101292D02*
X6063142Y-15101292D01*
X6120285Y-15101292D02*
X6120285Y-14901292D01*
X6101237Y-14929864D01*
X6082190Y-14948911D01*
X6063142Y-14958435D01*
X6253618Y-14901292D02*
X6253618Y-14939388D01*
X6329809Y-14901292D02*
X6329809Y-14939388D01*
X6625047Y-15177483D02*
X6615523Y-15167959D01*
X6596476Y-15139388D01*
X6586952Y-15120340D01*
X6577428Y-15091769D01*
X6567904Y-15044150D01*
X6567904Y-15006054D01*
X6577428Y-14958435D01*
X6586952Y-14929864D01*
X6596476Y-14910816D01*
X6615523Y-14882245D01*
X6625047Y-14872721D01*
X6805999Y-15101292D02*
X6691714Y-15101292D01*
X6748856Y-15101292D02*
X6748856Y-14901292D01*
X6729809Y-14929864D01*
X6710761Y-14948911D01*
X6691714Y-14958435D01*
X6986952Y-14901292D02*
X6891714Y-14901292D01*
X6882190Y-14996530D01*
X6891714Y-14987007D01*
X6910761Y-14977483D01*
X6958380Y-14977483D01*
X6977428Y-14987007D01*
X6986952Y-14996530D01*
X6996476Y-15015578D01*
X6996476Y-15063197D01*
X6986952Y-15082245D01*
X6977428Y-15091769D01*
X6958380Y-15101292D01*
X6910761Y-15101292D01*
X6891714Y-15091769D01*
X6882190Y-15082245D01*
X7120285Y-14901292D02*
X7139333Y-14901292D01*
X7158380Y-14910816D01*
X7167904Y-14920340D01*
X7177428Y-14939388D01*
X7186952Y-14977483D01*
X7186952Y-15025102D01*
X7177428Y-15063197D01*
X7167904Y-15082245D01*
X7158380Y-15091769D01*
X7139333Y-15101292D01*
X7120285Y-15101292D01*
X7101237Y-15091769D01*
X7091714Y-15082245D01*
X7082190Y-15063197D01*
X7072666Y-15025102D01*
X7072666Y-14977483D01*
X7082190Y-14939388D01*
X7091714Y-14920340D01*
X7101237Y-14910816D01*
X7120285Y-14901292D01*
X7425047Y-15101292D02*
X7425047Y-14901292D01*
X7510761Y-15101292D02*
X7510761Y-14996530D01*
X7501237Y-14977483D01*
X7482190Y-14967959D01*
X7453618Y-14967959D01*
X7434571Y-14977483D01*
X7425047Y-14987007D01*
X7634571Y-15101292D02*
X7615523Y-15091769D01*
X7605999Y-15082245D01*
X7596476Y-15063197D01*
X7596476Y-15006054D01*
X7605999Y-14987007D01*
X7615523Y-14977483D01*
X7634571Y-14967959D01*
X7663142Y-14967959D01*
X7682190Y-14977483D01*
X7691714Y-14987007D01*
X7701237Y-15006054D01*
X7701237Y-15063197D01*
X7691714Y-15082245D01*
X7682190Y-15091769D01*
X7663142Y-15101292D01*
X7634571Y-15101292D01*
X7815523Y-15101292D02*
X7796476Y-15091769D01*
X7786952Y-15072721D01*
X7786952Y-14901292D01*
X7967904Y-15091769D02*
X7948856Y-15101292D01*
X7910761Y-15101292D01*
X7891714Y-15091769D01*
X7882190Y-15072721D01*
X7882190Y-14996530D01*
X7891714Y-14977483D01*
X7910761Y-14967959D01*
X7948856Y-14967959D01*
X7967904Y-14977483D01*
X7977428Y-14996530D01*
X7977428Y-15015578D01*
X7882190Y-15034626D01*
X8053618Y-15091769D02*
X8072666Y-15101292D01*
X8110761Y-15101292D01*
X8129809Y-15091769D01*
X8139333Y-15072721D01*
X8139333Y-15063197D01*
X8129809Y-15044150D01*
X8110761Y-15034626D01*
X8082190Y-15034626D01*
X8063142Y-15025102D01*
X8053618Y-15006054D01*
X8053618Y-14996530D01*
X8063142Y-14977483D01*
X8082190Y-14967959D01*
X8110761Y-14967959D01*
X8129809Y-14977483D01*
X8205999Y-15177483D02*
X8215523Y-15167959D01*
X8234571Y-15139388D01*
X8244095Y-15120340D01*
X8253618Y-15091769D01*
X8263142Y-15044150D01*
X8263142Y-15006054D01*
X8253618Y-14958435D01*
X8244095Y-14929864D01*
X8234571Y-14910816D01*
X8215523Y-14882245D01*
X8205999Y-14872721D01*
X8567904Y-15177483D02*
X8558380Y-15167959D01*
X8539333Y-15139388D01*
X8529809Y-15120340D01*
X8520285Y-15091769D01*
X8510761Y-15044150D01*
X8510761Y-15006054D01*
X8520285Y-14958435D01*
X8529809Y-14929864D01*
X8539333Y-14910816D01*
X8558380Y-14882245D01*
X8567904Y-14872721D01*
X8644095Y-14967959D02*
X8644095Y-15101292D01*
X8644095Y-14987007D02*
X8653618Y-14977483D01*
X8672666Y-14967959D01*
X8701238Y-14967959D01*
X8720285Y-14977483D01*
X8729809Y-14996530D01*
X8729809Y-15101292D01*
X8853618Y-15101292D02*
X8834571Y-15091769D01*
X8825047Y-15082245D01*
X8815523Y-15063197D01*
X8815523Y-15006054D01*
X8825047Y-14987007D01*
X8834571Y-14977483D01*
X8853618Y-14967959D01*
X8882190Y-14967959D01*
X8901238Y-14977483D01*
X8910761Y-14987007D01*
X8920285Y-15006054D01*
X8920285Y-15063197D01*
X8910761Y-15082245D01*
X8901238Y-15091769D01*
X8882190Y-15101292D01*
X8853618Y-15101292D01*
X8977428Y-14967959D02*
X9053618Y-14967959D01*
X9005999Y-14901292D02*
X9005999Y-15072721D01*
X9015523Y-15091769D01*
X9034571Y-15101292D01*
X9053618Y-15101292D01*
X9272666Y-14967959D02*
X9272666Y-15167959D01*
X9272666Y-14977483D02*
X9291714Y-14967959D01*
X9329809Y-14967959D01*
X9348857Y-14977483D01*
X9358380Y-14987007D01*
X9367904Y-15006054D01*
X9367904Y-15063197D01*
X9358380Y-15082245D01*
X9348857Y-15091769D01*
X9329809Y-15101292D01*
X9291714Y-15101292D01*
X9272666Y-15091769D01*
X9482190Y-15101292D02*
X9463142Y-15091769D01*
X9453618Y-15072721D01*
X9453618Y-14901292D01*
X9644095Y-15101292D02*
X9644095Y-14996530D01*
X9634571Y-14977483D01*
X9615523Y-14967959D01*
X9577428Y-14967959D01*
X9558380Y-14977483D01*
X9644095Y-15091769D02*
X9625047Y-15101292D01*
X9577428Y-15101292D01*
X9558380Y-15091769D01*
X9548857Y-15072721D01*
X9548857Y-15053673D01*
X9558380Y-15034626D01*
X9577428Y-15025102D01*
X9625047Y-15025102D01*
X9644095Y-15015578D01*
X9710761Y-14967959D02*
X9786952Y-14967959D01*
X9739333Y-14901292D02*
X9739333Y-15072721D01*
X9748857Y-15091769D01*
X9767904Y-15101292D01*
X9786952Y-15101292D01*
X9929809Y-15091769D02*
X9910761Y-15101292D01*
X9872666Y-15101292D01*
X9853618Y-15091769D01*
X9844095Y-15072721D01*
X9844095Y-14996530D01*
X9853618Y-14977483D01*
X9872666Y-14967959D01*
X9910761Y-14967959D01*
X9929809Y-14977483D01*
X9939333Y-14996530D01*
X9939333Y-15015578D01*
X9844095Y-15034626D01*
X10110761Y-15101292D02*
X10110761Y-14901292D01*
X10110761Y-15091769D02*
X10091714Y-15101292D01*
X10053618Y-15101292D01*
X10034571Y-15091769D01*
X10025047Y-15082245D01*
X10015523Y-15063197D01*
X10015523Y-15006054D01*
X10025047Y-14987007D01*
X10034571Y-14977483D01*
X10053618Y-14967959D01*
X10091714Y-14967959D01*
X10110761Y-14977483D01*
X10186952Y-15177483D02*
X10196476Y-15167959D01*
X10215523Y-15139388D01*
X10225047Y-15120340D01*
X10234571Y-15091769D01*
X10244095Y-15044150D01*
X10244095Y-15006054D01*
X10234571Y-14958435D01*
X10225047Y-14929864D01*
X10215523Y-14910816D01*
X10196476Y-14882245D01*
X10186952Y-14872721D01*
X3023854Y-15401528D02*
X3023854Y-15260105D01*
X2882431Y-15260105D01*
X2882431Y-15401528D01*
X3023854Y-15401528D01*
X3291714Y-15221292D02*
X3415523Y-15221292D01*
X3348856Y-15297483D01*
X3377428Y-15297483D01*
X3396476Y-15307007D01*
X3405999Y-15316530D01*
X3415523Y-15335578D01*
X3415523Y-15383197D01*
X3405999Y-15402245D01*
X3396476Y-15411769D01*
X3377428Y-15421292D01*
X3320285Y-15421292D01*
X3301237Y-15411769D01*
X3291714Y-15402245D01*
X3501237Y-15402245D02*
X3510761Y-15411769D01*
X3501237Y-15421292D01*
X3491714Y-15411769D01*
X3501237Y-15402245D01*
X3501237Y-15421292D01*
X3605999Y-15421292D02*
X3644095Y-15421292D01*
X3663142Y-15411769D01*
X3672666Y-15402245D01*
X3691714Y-15373673D01*
X3701237Y-15335578D01*
X3701237Y-15259388D01*
X3691714Y-15240340D01*
X3682190Y-15230816D01*
X3663142Y-15221292D01*
X3625047Y-15221292D01*
X3605999Y-15230816D01*
X3596476Y-15240340D01*
X3586952Y-15259388D01*
X3586952Y-15307007D01*
X3596476Y-15326054D01*
X3605999Y-15335578D01*
X3625047Y-15345102D01*
X3663142Y-15345102D01*
X3682190Y-15335578D01*
X3691714Y-15326054D01*
X3701237Y-15307007D01*
X3815523Y-15307007D02*
X3796476Y-15297483D01*
X3786952Y-15287959D01*
X3777428Y-15268911D01*
X3777428Y-15259388D01*
X3786952Y-15240340D01*
X3796476Y-15230816D01*
X3815523Y-15221292D01*
X3853618Y-15221292D01*
X3872666Y-15230816D01*
X3882190Y-15240340D01*
X3891714Y-15259388D01*
X3891714Y-15268911D01*
X3882190Y-15287959D01*
X3872666Y-15297483D01*
X3853618Y-15307007D01*
X3815523Y-15307007D01*
X3796476Y-15316530D01*
X3786952Y-15326054D01*
X3777428Y-15345102D01*
X3777428Y-15383197D01*
X3786952Y-15402245D01*
X3796476Y-15411769D01*
X3815523Y-15421292D01*
X3853618Y-15421292D01*
X3872666Y-15411769D01*
X3882190Y-15402245D01*
X3891714Y-15383197D01*
X3891714Y-15345102D01*
X3882190Y-15326054D01*
X3872666Y-15316530D01*
X3853618Y-15307007D01*
X4005999Y-15307007D02*
X3986952Y-15297483D01*
X3977428Y-15287959D01*
X3967904Y-15268911D01*
X3967904Y-15259388D01*
X3977428Y-15240340D01*
X3986952Y-15230816D01*
X4005999Y-15221292D01*
X4044095Y-15221292D01*
X4063142Y-15230816D01*
X4072666Y-15240340D01*
X4082190Y-15259388D01*
X4082190Y-15268911D01*
X4072666Y-15287959D01*
X4063142Y-15297483D01*
X4044095Y-15307007D01*
X4005999Y-15307007D01*
X3986952Y-15316530D01*
X3977428Y-15326054D01*
X3967904Y-15345102D01*
X3967904Y-15383197D01*
X3977428Y-15402245D01*
X3986952Y-15411769D01*
X4005999Y-15421292D01*
X4044095Y-15421292D01*
X4063142Y-15411769D01*
X4072666Y-15402245D01*
X4082190Y-15383197D01*
X4082190Y-15345102D01*
X4072666Y-15326054D01*
X4063142Y-15316530D01*
X4044095Y-15307007D01*
X4167904Y-15421292D02*
X4167904Y-15287959D01*
X4167904Y-15307007D02*
X4177428Y-15297483D01*
X4196476Y-15287959D01*
X4225047Y-15287959D01*
X4244095Y-15297483D01*
X4253618Y-15316530D01*
X4253618Y-15421292D01*
X4253618Y-15316530D02*
X4263142Y-15297483D01*
X4282190Y-15287959D01*
X4310761Y-15287959D01*
X4329809Y-15297483D01*
X4339333Y-15316530D01*
X4339333Y-15421292D01*
X4434571Y-15421292D02*
X4434571Y-15287959D01*
X4434571Y-15307007D02*
X4444095Y-15297483D01*
X4463142Y-15287959D01*
X4491714Y-15287959D01*
X4510761Y-15297483D01*
X4520285Y-15316530D01*
X4520285Y-15421292D01*
X4520285Y-15316530D02*
X4529809Y-15297483D01*
X4548857Y-15287959D01*
X4577428Y-15287959D01*
X4596476Y-15297483D01*
X4605999Y-15316530D01*
X4605999Y-15421292D01*
X4996476Y-15211769D02*
X4825047Y-15468911D01*
X5253618Y-15221292D02*
X5272666Y-15221292D01*
X5291714Y-15230816D01*
X5301238Y-15240340D01*
X5310761Y-15259388D01*
X5320285Y-15297483D01*
X5320285Y-15345102D01*
X5310761Y-15383197D01*
X5301238Y-15402245D01*
X5291714Y-15411769D01*
X5272666Y-15421292D01*
X5253618Y-15421292D01*
X5234571Y-15411769D01*
X5225047Y-15402245D01*
X5215523Y-15383197D01*
X5205999Y-15345102D01*
X5205999Y-15297483D01*
X5215523Y-15259388D01*
X5225047Y-15240340D01*
X5234571Y-15230816D01*
X5253618Y-15221292D01*
X5405999Y-15402245D02*
X5415523Y-15411769D01*
X5405999Y-15421292D01*
X5396476Y-15411769D01*
X5405999Y-15402245D01*
X5405999Y-15421292D01*
X5605999Y-15421292D02*
X5491714Y-15421292D01*
X5548857Y-15421292D02*
X5548857Y-15221292D01*
X5529809Y-15249864D01*
X5510761Y-15268911D01*
X5491714Y-15278435D01*
X5786952Y-15221292D02*
X5691714Y-15221292D01*
X5682190Y-15316530D01*
X5691714Y-15307007D01*
X5710761Y-15297483D01*
X5758380Y-15297483D01*
X5777428Y-15307007D01*
X5786952Y-15316530D01*
X5796476Y-15335578D01*
X5796476Y-15383197D01*
X5786952Y-15402245D01*
X5777428Y-15411769D01*
X5758380Y-15421292D01*
X5710761Y-15421292D01*
X5691714Y-15411769D01*
X5682190Y-15402245D01*
X5863142Y-15221292D02*
X5996476Y-15221292D01*
X5910761Y-15421292D01*
X6110761Y-15221292D02*
X6129809Y-15221292D01*
X6148856Y-15230816D01*
X6158380Y-15240340D01*
X6167904Y-15259388D01*
X6177428Y-15297483D01*
X6177428Y-15345102D01*
X6167904Y-15383197D01*
X6158380Y-15402245D01*
X6148856Y-15411769D01*
X6129809Y-15421292D01*
X6110761Y-15421292D01*
X6091714Y-15411769D01*
X6082190Y-15402245D01*
X6072666Y-15383197D01*
X6063142Y-15345102D01*
X6063142Y-15297483D01*
X6072666Y-15259388D01*
X6082190Y-15240340D01*
X6091714Y-15230816D01*
X6110761Y-15221292D01*
X6253618Y-15221292D02*
X6253618Y-15259388D01*
X6329809Y-15221292D02*
X6329809Y-15259388D01*
X6625047Y-15497483D02*
X6615523Y-15487959D01*
X6596476Y-15459388D01*
X6586952Y-15440340D01*
X6577428Y-15411769D01*
X6567904Y-15364150D01*
X6567904Y-15326054D01*
X6577428Y-15278435D01*
X6586952Y-15249864D01*
X6596476Y-15230816D01*
X6615523Y-15202245D01*
X6625047Y-15192721D01*
X6682190Y-15221292D02*
X6805999Y-15221292D01*
X6739333Y-15297483D01*
X6767904Y-15297483D01*
X6786952Y-15307007D01*
X6796476Y-15316530D01*
X6805999Y-15335578D01*
X6805999Y-15383197D01*
X6796476Y-15402245D01*
X6786952Y-15411769D01*
X6767904Y-15421292D01*
X6710761Y-15421292D01*
X6691714Y-15411769D01*
X6682190Y-15402245D01*
X6929809Y-15221292D02*
X6948856Y-15221292D01*
X6967904Y-15230816D01*
X6977428Y-15240340D01*
X6986952Y-15259388D01*
X6996476Y-15297483D01*
X6996476Y-15345102D01*
X6986952Y-15383197D01*
X6977428Y-15402245D01*
X6967904Y-15411769D01*
X6948856Y-15421292D01*
X6929809Y-15421292D01*
X6910761Y-15411769D01*
X6901237Y-15402245D01*
X6891714Y-15383197D01*
X6882190Y-15345102D01*
X6882190Y-15297483D01*
X6891714Y-15259388D01*
X6901237Y-15240340D01*
X6910761Y-15230816D01*
X6929809Y-15221292D01*
X7234571Y-15421292D02*
X7234571Y-15221292D01*
X7320285Y-15421292D02*
X7320285Y-15316530D01*
X7310761Y-15297483D01*
X7291714Y-15287959D01*
X7263142Y-15287959D01*
X7244095Y-15297483D01*
X7234571Y-15307007D01*
X7444095Y-15421292D02*
X7425047Y-15411769D01*
X7415523Y-15402245D01*
X7405999Y-15383197D01*
X7405999Y-15326054D01*
X7415523Y-15307007D01*
X7425047Y-15297483D01*
X7444095Y-15287959D01*
X7472666Y-15287959D01*
X7491714Y-15297483D01*
X7501237Y-15307007D01*
X7510761Y-15326054D01*
X7510761Y-15383197D01*
X7501237Y-15402245D01*
X7491714Y-15411769D01*
X7472666Y-15421292D01*
X7444095Y-15421292D01*
X7625047Y-15421292D02*
X7605999Y-15411769D01*
X7596476Y-15392721D01*
X7596476Y-15221292D01*
X7777428Y-15411769D02*
X7758380Y-15421292D01*
X7720285Y-15421292D01*
X7701237Y-15411769D01*
X7691714Y-15392721D01*
X7691714Y-15316530D01*
X7701237Y-15297483D01*
X7720285Y-15287959D01*
X7758380Y-15287959D01*
X7777428Y-15297483D01*
X7786952Y-15316530D01*
X7786952Y-15335578D01*
X7691714Y-15354626D01*
X7863142Y-15411769D02*
X7882190Y-15421292D01*
X7920285Y-15421292D01*
X7939333Y-15411769D01*
X7948856Y-15392721D01*
X7948856Y-15383197D01*
X7939333Y-15364150D01*
X7920285Y-15354626D01*
X7891714Y-15354626D01*
X7872666Y-15345102D01*
X7863142Y-15326054D01*
X7863142Y-15316530D01*
X7872666Y-15297483D01*
X7891714Y-15287959D01*
X7920285Y-15287959D01*
X7939333Y-15297483D01*
X8015523Y-15497483D02*
X8025047Y-15487959D01*
X8044095Y-15459388D01*
X8053618Y-15440340D01*
X8063142Y-15411769D01*
X8072666Y-15364150D01*
X8072666Y-15326054D01*
X8063142Y-15278435D01*
X8053618Y-15249864D01*
X8044095Y-15230816D01*
X8025047Y-15202245D01*
X8015523Y-15192721D01*
X8377428Y-15497483D02*
X8367904Y-15487959D01*
X8348856Y-15459388D01*
X8339333Y-15440340D01*
X8329809Y-15411769D01*
X8320285Y-15364150D01*
X8320285Y-15326054D01*
X8329809Y-15278435D01*
X8339333Y-15249864D01*
X8348856Y-15230816D01*
X8367904Y-15202245D01*
X8377428Y-15192721D01*
X8453618Y-15287959D02*
X8453618Y-15421292D01*
X8453618Y-15307007D02*
X8463142Y-15297483D01*
X8482190Y-15287959D01*
X8510761Y-15287959D01*
X8529809Y-15297483D01*
X8539333Y-15316530D01*
X8539333Y-15421292D01*
X8663142Y-15421292D02*
X8644095Y-15411769D01*
X8634571Y-15402245D01*
X8625047Y-15383197D01*
X8625047Y-15326054D01*
X8634571Y-15307007D01*
X8644095Y-15297483D01*
X8663142Y-15287959D01*
X8691714Y-15287959D01*
X8710761Y-15297483D01*
X8720285Y-15307007D01*
X8729809Y-15326054D01*
X8729809Y-15383197D01*
X8720285Y-15402245D01*
X8710761Y-15411769D01*
X8691714Y-15421292D01*
X8663142Y-15421292D01*
X8786952Y-15287959D02*
X8863142Y-15287959D01*
X8815523Y-15221292D02*
X8815523Y-15392721D01*
X8825047Y-15411769D01*
X8844095Y-15421292D01*
X8863142Y-15421292D01*
X9082190Y-15287959D02*
X9082190Y-15487959D01*
X9082190Y-15297483D02*
X9101238Y-15287959D01*
X9139333Y-15287959D01*
X9158380Y-15297483D01*
X9167904Y-15307007D01*
X9177428Y-15326054D01*
X9177428Y-15383197D01*
X9167904Y-15402245D01*
X9158380Y-15411769D01*
X9139333Y-15421292D01*
X9101238Y-15421292D01*
X9082190Y-15411769D01*
X9291714Y-15421292D02*
X9272666Y-15411769D01*
X9263142Y-15392721D01*
X9263142Y-15221292D01*
X9453618Y-15421292D02*
X9453618Y-15316530D01*
X9444095Y-15297483D01*
X9425047Y-15287959D01*
X9386952Y-15287959D01*
X9367904Y-15297483D01*
X9453618Y-15411769D02*
X9434571Y-15421292D01*
X9386952Y-15421292D01*
X9367904Y-15411769D01*
X9358380Y-15392721D01*
X9358380Y-15373673D01*
X9367904Y-15354626D01*
X9386952Y-15345102D01*
X9434571Y-15345102D01*
X9453618Y-15335578D01*
X9520285Y-15287959D02*
X9596476Y-15287959D01*
X9548857Y-15221292D02*
X9548857Y-15392721D01*
X9558380Y-15411769D01*
X9577428Y-15421292D01*
X9596476Y-15421292D01*
X9739333Y-15411769D02*
X9720285Y-15421292D01*
X9682190Y-15421292D01*
X9663142Y-15411769D01*
X9653618Y-15392721D01*
X9653618Y-15316530D01*
X9663142Y-15297483D01*
X9682190Y-15287959D01*
X9720285Y-15287959D01*
X9739333Y-15297483D01*
X9748857Y-15316530D01*
X9748857Y-15335578D01*
X9653618Y-15354626D01*
X9920285Y-15421292D02*
X9920285Y-15221292D01*
X9920285Y-15411769D02*
X9901238Y-15421292D01*
X9863142Y-15421292D01*
X9844095Y-15411769D01*
X9834571Y-15402245D01*
X9825047Y-15383197D01*
X9825047Y-15326054D01*
X9834571Y-15307007D01*
X9844095Y-15297483D01*
X9863142Y-15287959D01*
X9901238Y-15287959D01*
X9920285Y-15297483D01*
X9996476Y-15497483D02*
X10005999Y-15487959D01*
X10025047Y-15459388D01*
X10034571Y-15440340D01*
X10044095Y-15411769D01*
X10053618Y-15364150D01*
X10053618Y-15326054D01*
X10044095Y-15278435D01*
X10034571Y-15249864D01*
X10025047Y-15230816D01*
X10005999Y-15202245D01*
X9996476Y-15192721D01*
M02*
