M48
; DRILL file {KiCad (6.0.4)} date Sat Aug 27 03:08:57 2022
; FORMAT={-:-/ absolute / metric / decimal}
; #@! TF.CreationDate,2022-08-27T03:08:57+02:00
; #@! TF.GenerationSoftware,Kicad,Pcbnew,(6.0.4)
; #@! TF.FileFunction,Plated,1,2,PTH
FMAT,2
METRIC
; #@! TA.AperFunction,Plated,PTH,ViaDrill
T1C0.400
; #@! TA.AperFunction,Plated,PTH,ComponentDrill
T2C0.813
; #@! TA.AperFunction,Plated,PTH,ComponentDrill
T3C1.000
; #@! TA.AperFunction,Plated,PTH,ComponentDrill
T4C1.092
; #@! TA.AperFunction,Plated,PTH,ComponentDrill
T5C1.270
; #@! TA.AperFunction,Plated,PTH,ComponentDrill
T6C1.300
; #@! TA.AperFunction,Plated,PTH,ComponentDrill
T7C1.500
; #@! TA.AperFunction,Plated,PTH,ComponentDrill
T8C3.000
%
G90
G05
T1
X110.235Y-82.327
X113.538Y-82.296
X124.968Y-101.854
X126.492Y-99.06
X127.25Y-101.088
X127.254Y-105.664
X127.381Y-88.519
X128.016Y-99.822
X129.54Y-92.71
X129.667Y-83.439
X130.048Y-88.646
X130.302Y-108.204
X130.81Y-111.009
X131.064Y-114.3
X131.318Y-89.408
X131.826Y-82.55
X132.842Y-112.268
X134.366Y-82.443
X137.922Y-102.362
X139.446Y-98.044
X140.716Y-110.744
X140.97Y-92.71
X141.478Y-106.68
X142.24Y-98.044
X142.494Y-103.378
X143.51Y-111.252
X146.812Y-76.454
X147.066Y-79.248
X147.828Y-82.55
X148.336Y-96.774
X148.336Y-111.506
X149.098Y-110.236
X158.242Y-110.236
X158.496Y-106.68
X158.708Y-87.626
X159.004Y-89.408
X160.659Y-106.303
X161.036Y-107.442
X162.052Y-118.11
X163.576Y-81.788
X163.83Y-105.918
X164.338Y-90.678
X164.338Y-94.996
X164.846Y-78.232
X165.354Y-112.268
X165.608Y-89.154
X165.862Y-97.282
X166.624Y-81.063
X167.894Y-85.306
X168.402Y-91.44
X170.434Y-90.678
X170.434Y-109.22
X171.45Y-88.646
X172.466Y-83.566
X172.466Y-117.348
X173.228Y-114.554
X174.498Y-97.536
X175.239Y-120.163
X176.022Y-97.028
X176.022Y-112.268
X177.292Y-90.424
X177.8Y-92.202
X177.8Y-95.504
X178.054Y-106.172
X179.07Y-100.076
X179.832Y-112.014
X180.594Y-121.92
X180.597Y-98.809
X186.182Y-121.92
T2
X145.299Y-75.361
X145.299Y-77.901
X145.299Y-80.441
X145.299Y-82.981
X145.299Y-85.521
X145.299Y-88.061
X145.299Y-90.601
X145.299Y-93.141
X145.299Y-95.681
X145.299Y-98.221
X145.299Y-100.761
X145.299Y-103.301
X160.519Y-75.361
X160.519Y-77.901
X160.519Y-80.441
X160.519Y-82.981
X160.519Y-85.521
X160.519Y-88.061
X160.519Y-90.601
X160.519Y-93.141
X160.519Y-95.681
X160.519Y-98.221
X160.519Y-100.761
X160.519Y-103.301
T3
X110.703Y-112.334
X112.973Y-107.879
X123.623Y-118.916
X124.758Y-116.689
X125.893Y-114.461
X179.119Y-114.911
X180.254Y-117.138
X181.389Y-119.366
X192.039Y-108.328
X194.309Y-112.783
T4
X165.598Y-72.94
X167.598Y-72.94
X169.598Y-72.94
T5
X31.764Y-77.759
X33.154Y-76.725
X33.964Y-79.447
X35.054Y-59.031
X36.323Y-80.696
X36.445Y-57.997
X37.254Y-60.719
X38.967Y-80.329
X39.613Y-61.967
X40.659Y-78.048
X41.612Y-79.496
X42.257Y-61.601
X43.949Y-59.32
X44.902Y-60.767
X51.55Y-82.4
X53.056Y-81.543
X53.528Y-84.343
X55.717Y-85.87
X57.105Y-64.231
X58.386Y-85.829
X58.612Y-63.374
X59.084Y-66.174
X60.343Y-83.771
X61.113Y-85.324
X61.273Y-67.701
X62.66Y-46.06
X63.942Y-67.659
X64.166Y-45.203
X64.638Y-48.004
X65.899Y-65.601
X66.668Y-67.154
X66.828Y-49.53
X69.496Y-49.489
X71.453Y-47.431
X72.1Y-83.124
X72.223Y-48.984
X73.675Y-82.402
X73.901Y-85.233
X75.949Y-86.944
X78.611Y-87.136
X79.217Y-65.508
X80.74Y-85.256
X80.793Y-64.785
X81.019Y-67.616
X81.372Y-86.87
X83.061Y-115.871
X83.067Y-69.328
X84.672Y-118.128
X84.693Y-115.288
X85.729Y-69.519
X86.335Y-47.891
X86.563Y-120.012
X87.858Y-67.64
X87.91Y-47.169
X88.136Y-50.0
X88.489Y-69.254
X88.817Y-94.112
X89.198Y-120.434
X90.184Y-51.711
X90.427Y-96.369
X90.449Y-93.53
X91.483Y-118.748
X91.971Y-120.411
X92.318Y-98.253
X92.846Y-51.903
X94.954Y-98.676
X94.975Y-50.023
X95.607Y-51.637
X97.238Y-96.989
X97.442Y-77.183
X97.727Y-98.652
X98.334Y-128.729
X99.053Y-79.44
X99.075Y-76.601
X99.944Y-130.986
X99.966Y-128.146
X100.944Y-81.324
X101.835Y-132.87
X103.579Y-81.747
X104.471Y-133.292
X105.864Y-80.06
X106.068Y-60.254
X106.352Y-81.723
X106.755Y-131.606
X107.244Y-133.269
X107.679Y-62.511
X107.7Y-59.672
X109.57Y-64.395
X110.559Y-94.273
X112.169Y-96.531
X112.191Y-93.691
X112.205Y-64.817
X114.06Y-98.414
X114.49Y-63.131
X114.978Y-64.794
X116.696Y-98.837
X118.98Y-97.15
X119.184Y-77.344
X119.469Y-98.813
X120.795Y-79.602
X120.817Y-76.762
X122.686Y-81.485
X125.321Y-81.908
X127.606Y-80.221
X128.094Y-81.884
X177.804Y-81.88
X178.292Y-80.217
X180.577Y-81.903
X183.212Y-81.481
X185.081Y-76.758
X185.103Y-79.597
X186.429Y-98.809
X186.714Y-77.34
X186.918Y-97.146
X189.202Y-98.833
X190.92Y-64.789
X191.408Y-63.127
X191.838Y-98.41
X193.693Y-64.813
X193.707Y-93.687
X193.729Y-96.526
X195.34Y-94.269
X196.328Y-64.391
X198.198Y-59.667
X198.219Y-62.507
X198.654Y-133.264
X199.143Y-131.601
X199.546Y-81.719
X199.83Y-60.25
X200.034Y-80.056
X201.427Y-133.288
X202.319Y-81.742
X204.063Y-132.866
X204.954Y-81.32
X205.932Y-128.142
X205.954Y-130.982
X206.823Y-76.596
X206.845Y-79.436
X207.564Y-128.724
X208.171Y-98.648
X208.456Y-77.179
X208.66Y-96.985
X210.292Y-51.634
X210.923Y-50.02
X210.944Y-98.671
X213.052Y-51.899
X213.58Y-98.249
X213.927Y-120.406
X214.415Y-118.743
X215.449Y-93.525
X215.471Y-96.365
X215.714Y-51.708
X216.7Y-120.43
X217.082Y-94.108
X217.409Y-69.25
X217.762Y-49.996
X217.988Y-47.165
X218.041Y-67.636
X219.335Y-120.007
X219.564Y-47.888
X220.17Y-69.516
X221.205Y-115.284
X221.226Y-118.124
X222.832Y-69.324
X222.837Y-115.866
X224.527Y-86.867
X224.88Y-67.613
X225.106Y-64.782
X225.158Y-85.253
X226.681Y-65.504
X227.287Y-87.132
X229.949Y-86.941
X231.997Y-85.229
X232.223Y-82.398
X233.676Y-48.981
X233.799Y-83.121
X234.445Y-47.428
X236.402Y-49.486
X239.071Y-49.528
X239.231Y-67.151
X240.0Y-65.598
X241.26Y-48.001
X241.732Y-45.201
X241.957Y-67.656
X243.239Y-46.058
X244.626Y-67.697
X244.786Y-85.321
X245.555Y-83.768
X246.815Y-66.171
X247.287Y-63.37
X247.513Y-85.826
X248.794Y-64.227
X250.181Y-85.867
X252.371Y-84.34
X252.842Y-81.54
X254.349Y-82.397
X260.982Y-60.779
X261.935Y-59.332
X263.626Y-61.613
X264.287Y-79.494
X265.24Y-78.047
X266.27Y-61.979
X266.932Y-80.328
X268.629Y-60.731
X269.439Y-58.009
X269.575Y-80.694
X270.83Y-59.043
X271.935Y-79.446
X272.744Y-76.724
X274.135Y-77.758
T6
X140.97Y-73.712
X140.97Y-80.212
T8
X46.348Y-81.44
X54.348Y-51.19
X109.598Y-102.69
X115.319Y-71.001
X189.992Y-71.628
X200.152Y-108.966
X251.348Y-50.94
X260.098Y-83.69
T7
G00X116.112Y-118.569
M15
G01X114.954Y-117.979
M16
G05
G00X121.197Y-108.59
M15
G01X120.038Y-107.999
M16
G05
G00X183.815Y-109.039
M15
G01X184.974Y-108.449
M16
G05
G00X188.9Y-119.018
M15
G01X190.058Y-118.428
M16
G05
T0
M30
