%TF.GenerationSoftware,KiCad,Pcbnew,(6.0.4)*%
%TF.CreationDate,2022-09-06T22:19:28+02:00*%
%TF.ProjectId,Asfoora,4173666f-6f72-4612-9e6b-696361645f70,rev?*%
%TF.SameCoordinates,Original*%
%TF.FileFunction,Paste,Bot*%
%TF.FilePolarity,Positive*%
%FSLAX46Y46*%
G04 Gerber Fmt 4.6, Leading zero omitted, Abs format (unit mm)*
G04 Created by KiCad (PCBNEW (6.0.4)) date 2022-09-06 22:19:28*
%MOMM*%
%LPD*%
G01*
G04 APERTURE LIST*
G04 Aperture macros list*
%AMRotRect*
0 Rectangle, with rotation*
0 The origin of the aperture is its center*
0 $1 length*
0 $2 width*
0 $3 Rotation angle, in degrees counterclockwise*
0 Add horizontal line*
21,1,$1,$2,0,0,$3*%
G04 Aperture macros list end*
%ADD10RotRect,2.550000X2.500000X22.000000*%
%ADD11RotRect,2.600000X2.600000X22.000000*%
%ADD12RotRect,2.600000X2.600000X345.000000*%
%ADD13RotRect,2.550000X2.500000X345.000000*%
%ADD14RotRect,2.550000X2.500000X27.000000*%
%ADD15RotRect,2.600000X2.600000X27.000000*%
%ADD16RotRect,2.600000X2.600000X333.000000*%
%ADD17RotRect,2.550000X2.500000X333.000000*%
%ADD18RotRect,2.600000X2.600000X15.000000*%
%ADD19RotRect,2.550000X2.500000X15.000000*%
%ADD20RotRect,2.600000X2.600000X338.000000*%
%ADD21RotRect,2.550000X2.500000X338.000000*%
%ADD22R,1.000000X0.800000*%
%ADD23R,0.700000X1.500000*%
G04 APERTURE END LIST*
D10*
%TO.C,SW30*%
X232433086Y-62247064D03*
D11*
X235185288Y-57453731D03*
X246717400Y-55170800D03*
D10*
X243964332Y-54845093D03*
%TD*%
D12*
%TO.C,SW11*%
X40628961Y-57908024D03*
D13*
X35546256Y-60079833D03*
D12*
X51212818Y-63024992D03*
D13*
X49210135Y-61108033D03*
%TD*%
D14*
%TO.C,SW24*%
X219555851Y-107571990D03*
D15*
X222326830Y-107656512D03*
D14*
X208713609Y-115950809D03*
D15*
X211037572Y-110935846D03*
%TD*%
%TO.C,SW20*%
X207054161Y-120514613D03*
D14*
X204283182Y-120430091D03*
X193440940Y-128808910D03*
D15*
X195764903Y-123793947D03*
%TD*%
%TO.C,SW22*%
X197656243Y-74248124D03*
D14*
X195332280Y-79263087D03*
D15*
X208945501Y-70968790D03*
D14*
X206174522Y-70884268D03*
%TD*%
D16*
%TO.C,SW5*%
X104972113Y-48890778D03*
D17*
X103411753Y-46599328D03*
D16*
X95683417Y-41685120D03*
D17*
X90260236Y-42752717D03*
%TD*%
D16*
%TO.C,SW8*%
X120320230Y-61555399D03*
D17*
X118759870Y-59263949D03*
D16*
X111031534Y-54349741D03*
D17*
X105608353Y-55417338D03*
%TD*%
D16*
%TO.C,SW19*%
X113585750Y-128030346D03*
D17*
X112025390Y-125738896D03*
D16*
X104297054Y-120824688D03*
D17*
X98873873Y-121892285D03*
%TD*%
D14*
%TO.C,SW25*%
X201843616Y-49748432D03*
D15*
X204167579Y-44733469D03*
D14*
X212685858Y-41369613D03*
D15*
X215456837Y-41454135D03*
%TD*%
D17*
%TO.C,SW6*%
X94785934Y-63528452D03*
D16*
X96346294Y-65819902D03*
X87057598Y-58614244D03*
D17*
X81634417Y-59681841D03*
%TD*%
%TO.C,SW10*%
X101508231Y-93122197D03*
D16*
X103068591Y-95413647D03*
D17*
X88356714Y-89275586D03*
D16*
X93779895Y-88207989D03*
%TD*%
D18*
%TO.C,SW32*%
X258731747Y-59680288D03*
D19*
X255415900Y-64102484D03*
D18*
X270456120Y-58819785D03*
D19*
X267763267Y-58160990D03*
%TD*%
D14*
%TO.C,SW27*%
X219095255Y-83606680D03*
D15*
X221419218Y-78591717D03*
D14*
X229937497Y-75227861D03*
D15*
X232708476Y-75312383D03*
%TD*%
D20*
%TO.C,SW14*%
X67192934Y-78909749D03*
D21*
X65438798Y-76763013D03*
X52002073Y-74077270D03*
D20*
X57311570Y-72541075D03*
%TD*%
D21*
%TO.C,SW2*%
X79673848Y-41530026D03*
D20*
X81427984Y-43676762D03*
D21*
X66237123Y-38844283D03*
D20*
X71546620Y-37308088D03*
%TD*%
D17*
%TO.C,SW15*%
X96752721Y-112880795D03*
D16*
X98313081Y-115172245D03*
D17*
X83601204Y-109034184D03*
D16*
X89024385Y-107966587D03*
%TD*%
D15*
%TO.C,SW18*%
X194829287Y-86059171D03*
D14*
X192058308Y-85974649D03*
D15*
X183540029Y-89338505D03*
D14*
X181216066Y-94353468D03*
%TD*%
D12*
%TO.C,SW4*%
X45539008Y-39537635D03*
D13*
X40456303Y-41709444D03*
X54120182Y-42737644D03*
D12*
X56122865Y-44654603D03*
%TD*%
D16*
%TO.C,SW7*%
X87720475Y-82749025D03*
D17*
X86160115Y-80457575D03*
D16*
X78431779Y-75543367D03*
D17*
X73008598Y-76610964D03*
%TD*%
D10*
%TO.C,SW29*%
X225315561Y-44630570D03*
D11*
X228067763Y-39837237D03*
X239599875Y-37554306D03*
D10*
X236846807Y-37228599D03*
%TD*%
D16*
%TO.C,SW9*%
X111694410Y-78484523D03*
D17*
X110134050Y-76193073D03*
D16*
X102405714Y-71278865D03*
D17*
X96982533Y-72346462D03*
%TD*%
D16*
%TO.C,SW12*%
X134436444Y-76645780D03*
D17*
X132876084Y-74354330D03*
X119724567Y-70507719D03*
D16*
X125147748Y-69440122D03*
%TD*%
D15*
%TO.C,SW17*%
X186203467Y-69130047D03*
D14*
X183432488Y-69045525D03*
X172590246Y-77424344D03*
D15*
X174914209Y-72409381D03*
%TD*%
D14*
%TO.C,SW21*%
X186706460Y-62333963D03*
D15*
X189030423Y-57319000D03*
X200319681Y-54039666D03*
D14*
X197548702Y-53955144D03*
%TD*%
D18*
%TO.C,SW31*%
X253807924Y-41324412D03*
D19*
X250492077Y-45746608D03*
X262839444Y-39805114D03*
D18*
X265532297Y-40463909D03*
%TD*%
D14*
%TO.C,SW26*%
X210469435Y-66677556D03*
D15*
X212793398Y-61662593D03*
X224082656Y-58383259D03*
D14*
X221311677Y-58298737D03*
%TD*%
D11*
%TO.C,SW28*%
X242302813Y-75070224D03*
D10*
X239550611Y-79863557D03*
D11*
X253834925Y-72787293D03*
D10*
X251081857Y-72461586D03*
%TD*%
D21*
%TO.C,SW3*%
X72556613Y-59146926D03*
D20*
X74310749Y-61293662D03*
X64429385Y-54924988D03*
D21*
X59119888Y-56461183D03*
%TD*%
D15*
%TO.C,SW23*%
X206282062Y-91177248D03*
D14*
X203958099Y-96192211D03*
D15*
X217571320Y-87897914D03*
D14*
X214800341Y-87813392D03*
%TD*%
D16*
%TO.C,SW13*%
X125810624Y-93574904D03*
D17*
X124250264Y-91283454D03*
X111098747Y-87436843D03*
D16*
X116521928Y-86369246D03*
%TD*%
D22*
%TO.C,SW34*%
X149512000Y-74440000D03*
X156812000Y-74440000D03*
X156812000Y-72230000D03*
X149512000Y-72230000D03*
D23*
X150912000Y-75090000D03*
X153912000Y-75090000D03*
X155412000Y-75090000D03*
%TD*%
M02*
