M48
; DRILL file {KiCad (6.0.4)} date Tue Aug 23 16:30:49 2022
; FORMAT={-:-/ absolute / metric / decimal}
; #@! TF.CreationDate,2022-08-23T16:30:49+02:00
; #@! TF.GenerationSoftware,Kicad,Pcbnew,(6.0.4)
; #@! TF.FileFunction,NonPlated,1,2,NPTH
FMAT,2
METRIC
; #@! TA.AperFunction,NonPlated,NPTH,ComponentDrill
T1C0.900
; #@! TA.AperFunction,NonPlated,NPTH,ComponentDrill
T2C1.702
; #@! TA.AperFunction,NonPlated,NPTH,ComponentDrill
T3C1.800
; #@! TA.AperFunction,NonPlated,NPTH,ComponentDrill
T4C3.000
; #@! TA.AperFunction,NonPlated,NPTH,ComponentDrill
T5C4.800
%
G90
G05
T1
X151.662Y-73.33
X154.662Y-73.33
T3
X34.461Y-79.482
X37.751Y-60.754
X46.237Y-70.287
X49.527Y-51.559
X53.039Y-84.073
X58.595Y-65.904
X64.15Y-47.734
X65.848Y-76.382
X71.403Y-58.213
X72.946Y-84.747
X76.958Y-40.042
X80.063Y-67.13
X82.768Y-117.43
X86.375Y-78.201
X87.181Y-49.514
X88.523Y-95.671
X93.493Y-60.584
X96.717Y-112.08
X97.149Y-78.742
X97.54Y-130.288
X100.611Y-42.968
X102.473Y-90.321
X105.775Y-61.813
X109.765Y-95.833
X111.098Y-73.392
X111.49Y-124.938
X118.391Y-78.903
X119.724Y-56.463
X123.715Y-90.482
X132.34Y-73.553
X178.599Y-83.438
X182.47Y-69.008
X187.225Y-100.367
X191.095Y-85.937
X191.215Y-66.348
X195.086Y-51.918
X199.449Y-134.823
X199.841Y-83.277
X203.32Y-120.393
X203.712Y-68.847
X208.467Y-100.206
X209.448Y-53.255
X212.337Y-85.776
X214.222Y-121.964
X214.562Y-39.218
X216.566Y-70.872
X218.093Y-107.534
X221.679Y-56.834
X223.683Y-88.488
X228.797Y-74.45
X232.188Y-50.654
X237.743Y-68.824
X238.506Y-37.115
X243.298Y-86.993
X244.061Y-55.285
X249.616Y-73.455
X258.286Y-62.502
X261.592Y-81.217
X266.207Y-49.834
X269.512Y-68.549
T4
X36.075Y-70.324
X37.034Y-71.725
X39.365Y-51.596
X40.324Y-52.997
X41.378Y-69.028
X41.381Y-69.026
X43.728Y-70.326
X44.668Y-50.3
X44.671Y-50.297
X45.92Y-72.063
X45.923Y-72.06
X47.019Y-51.598
X49.21Y-53.335
X49.213Y-53.332
X55.757Y-75.18
X56.538Y-76.687
X61.179Y-74.54
X61.182Y-74.538
X61.313Y-57.01
X62.094Y-58.518
X63.353Y-76.115
X65.317Y-78.106
X65.32Y-78.104
X66.734Y-56.371
X66.737Y-56.368
X66.867Y-38.84
X67.648Y-40.348
X68.909Y-57.945
X70.872Y-59.937
X70.876Y-59.934
X72.289Y-38.201
X72.292Y-38.198
X74.464Y-39.775
X76.427Y-41.766
X76.428Y-76.124
X76.43Y-41.764
X77.075Y-77.694
X81.885Y-75.959
X81.888Y-75.957
X83.546Y-58.508
X83.914Y-77.718
X84.192Y-60.077
X85.696Y-79.872
X85.7Y-79.87
X86.989Y-109.144
X87.496Y-110.764
X89.002Y-58.343
X89.006Y-58.341
X90.663Y-40.891
X91.031Y-60.101
X91.31Y-42.461
X92.439Y-109.455
X92.442Y-109.453
X92.744Y-87.385
X92.814Y-62.256
X92.817Y-62.254
X93.251Y-89.005
X94.307Y-111.384
X95.895Y-113.685
X95.899Y-113.684
X96.12Y-40.726
X96.123Y-40.724
X98.149Y-42.485
X98.194Y-87.697
X98.198Y-87.695
X99.932Y-44.639
X99.935Y-44.637
X100.062Y-89.625
X101.37Y-70.456
X101.651Y-91.927
X101.654Y-91.925
X101.761Y-122.002
X101.877Y-72.076
X102.269Y-123.622
X106.82Y-70.768
X106.824Y-70.766
X107.211Y-122.313
X107.215Y-122.312
X108.688Y-72.696
X109.08Y-124.242
X109.996Y-53.527
X110.276Y-74.998
X110.28Y-74.996
X110.503Y-55.147
X110.668Y-126.544
X110.671Y-126.542
X113.986Y-87.546
X114.493Y-89.167
X115.446Y-53.838
X115.45Y-53.837
X117.314Y-55.767
X118.902Y-58.069
X118.906Y-58.067
X119.436Y-87.858
X119.44Y-87.856
X121.305Y-89.786
X122.612Y-70.617
X122.893Y-92.088
X122.896Y-92.086
X123.119Y-72.237
X128.062Y-70.929
X128.066Y-70.927
X129.93Y-72.857
X131.518Y-75.159
X131.522Y-75.157
X174.376Y-75.153
X175.985Y-75.695
X177.832Y-70.927
X177.832Y-70.923
X180.49Y-70.549
X183.002Y-92.082
X183.285Y-70.617
X183.286Y-70.613
X184.611Y-92.624
X186.457Y-87.856
X186.458Y-87.852
X186.992Y-58.062
X188.601Y-58.604
X189.116Y-87.478
X190.448Y-53.836
X190.448Y-53.832
X191.911Y-87.546
X191.912Y-87.542
X193.106Y-53.458
X195.227Y-126.537
X195.618Y-74.991
X195.902Y-53.526
X195.902Y-53.522
X196.836Y-127.079
X197.227Y-75.533
X198.682Y-122.311
X198.683Y-122.307
X199.074Y-70.765
X199.074Y-70.761
X201.34Y-121.933
X201.732Y-70.387
X204.136Y-122.001
X204.137Y-121.997
X204.244Y-91.921
X204.527Y-70.456
X204.528Y-70.452
X205.853Y-92.463
X205.963Y-44.634
X207.519Y-45.314
X207.699Y-87.694
X207.7Y-87.69
X209.774Y-40.725
X209.775Y-40.721
X209.999Y-113.679
X210.358Y-87.317
X211.608Y-114.221
X212.455Y-40.58
X213.081Y-62.25
X213.153Y-87.385
X213.154Y-87.381
X213.455Y-109.453
X213.456Y-109.449
X214.637Y-62.93
X215.234Y-40.891
X215.235Y-40.887
X216.113Y-109.075
X216.892Y-58.341
X216.893Y-58.337
X218.909Y-109.143
X218.909Y-109.139
X219.573Y-58.196
X220.198Y-79.867
X221.754Y-80.547
X222.352Y-58.508
X222.353Y-58.504
X224.009Y-75.958
X224.01Y-75.954
X226.69Y-75.813
X229.468Y-41.761
X229.469Y-76.124
X229.47Y-76.12
X230.959Y-42.574
X233.605Y-38.199
X233.607Y-38.195
X235.023Y-59.931
X236.289Y-38.289
X236.514Y-60.744
X239.03Y-38.841
X239.031Y-38.837
X239.16Y-56.369
X239.162Y-56.365
X240.578Y-78.101
X241.844Y-56.458
X242.069Y-78.914
X244.585Y-57.011
X244.586Y-57.007
X244.715Y-74.539
X244.717Y-74.535
X247.399Y-74.628
X250.14Y-75.181
X250.141Y-75.177
X256.67Y-53.344
X258.051Y-54.333
X259.976Y-72.059
X261.211Y-50.313
X261.212Y-50.309
X261.356Y-73.048
X263.863Y-50.729
X264.516Y-69.028
X264.518Y-69.024
X266.517Y-51.611
X266.519Y-51.608
X267.168Y-69.444
X269.822Y-70.326
X269.824Y-70.323
T5
X40.349Y-74.885
X43.639Y-56.156
X59.444Y-80.228
X64.999Y-62.058
X70.554Y-43.888
X79.66Y-81.474
X86.778Y-63.857
X89.742Y-114.755
X93.896Y-46.241
X95.498Y-92.996
X104.124Y-76.067
X104.515Y-127.613
X112.75Y-59.138
X116.74Y-93.157
X125.366Y-76.228
X180.534Y-76.223
X189.16Y-93.152
X193.15Y-59.133
X201.385Y-127.608
X201.776Y-76.062
X210.402Y-92.991
X212.005Y-46.236
X216.158Y-114.749
X219.122Y-63.853
X226.24Y-81.469
X235.347Y-43.885
X240.902Y-62.054
X246.457Y-80.224
X262.247Y-56.168
X265.552Y-74.883
T2
G00X34.85Y-73.915
M15
G01X35.835Y-74.089
M16
G05
G00X38.14Y-55.187
M15
G01X39.125Y-55.36
M16
G05
G00X44.855Y-75.683
M15
G01X45.84Y-75.857
M16
G05
G00X48.145Y-56.955
M15
G01X49.13Y-57.129
M16
G05
G00X54.104Y-78.595
M15
G01X55.06Y-78.887
M16
G05
G00X59.659Y-60.426
M15
G01X60.616Y-60.718
M16
G05
G00X63.819Y-81.569
M15
G01X64.775Y-81.862
M16
G05
G00X65.214Y-42.256
M15
G01X66.171Y-42.548
M16
G05
G00X69.374Y-63.4
M15
G01X70.331Y-63.692
M16
G05
G00X74.484Y-79.382
M15
G01X75.411Y-79.757
M16
G05
G00X74.929Y-45.23
M15
G01X75.885Y-45.522
M16
G05
G00X81.601Y-61.766
M15
G01X82.528Y-62.14
M16
G05
G00X83.902Y-83.192
M15
G01X84.829Y-83.566
M16
G05
G00X84.768Y-112.22
M15
G01X85.659Y-112.674
M16
G05
G00X88.719Y-44.149
M15
G01X89.646Y-44.524
M16
G05
G00X90.523Y-90.461
M15
G01X91.414Y-90.915
M16
G05
G00X91.02Y-65.575
M15
G01X91.947Y-65.95
M16
G05
G00X93.818Y-116.836
M15
G01X94.709Y-117.29
M16
G05
G00X98.137Y-47.959
M15
G01X99.064Y-48.334
M16
G05
G00X99.149Y-73.532
M15
G01X100.04Y-73.986
M16
G05
G00X99.54Y-125.078
M15
G01X100.431Y-125.532
M16
G05
G00X99.574Y-95.077
M15
G01X100.465Y-95.531
M16
G05
G00X107.775Y-56.603
M15
G01X108.666Y-57.057
M16
G05
G00X108.2Y-78.148
M15
G01X109.091Y-78.602
M16
G05
G00X108.591Y-129.694
M15
G01X109.482Y-130.148
M16
G05
G00X111.765Y-90.623
M15
G01X112.656Y-91.077
M16
G05
G00X116.825Y-61.219
M15
G01X117.717Y-61.673
M16
G05
G00X120.391Y-73.693
M15
G01X121.282Y-74.147
M16
G05
G00X120.816Y-95.239
M15
G01X121.707Y-95.693
M16
G05
G00X129.442Y-78.31
M15
G01X130.333Y-78.764
M16
G05
G00X175.559Y-78.758
M15
G01X176.45Y-78.304
M16
G05
G00X184.185Y-95.687
M15
G01X185.076Y-95.233
M16
G05
G00X184.614Y-74.149
M15
G01X185.505Y-73.695
M16
G05
G00X188.175Y-61.667
M15
G01X189.066Y-61.213
M16
G05
G00X193.239Y-91.078
M15
G01X194.13Y-90.624
M16
G05
G00X196.41Y-130.142
M15
G01X197.301Y-129.688
M16
G05
G00X196.801Y-78.597
M15
G01X197.692Y-78.143
M16
G05
G00X197.23Y-57.058
M15
G01X198.121Y-56.604
M16
G05
G00X205.427Y-95.526
M15
G01X206.318Y-95.072
M16
G05
G00X205.464Y-125.533
M15
G01X206.355Y-125.079
M16
G05
G00X205.856Y-73.988
M15
G01X206.747Y-73.534
M16
G05
G00X206.828Y-48.328
M15
G01X207.755Y-47.953
M16
G05
G00X211.183Y-117.284
M15
G01X212.074Y-116.83
M16
G05
G00X213.945Y-65.945
M15
G01X214.873Y-65.57
M16
G05
G00X214.482Y-90.917
M15
G01X215.373Y-90.463
M16
G05
G00X216.25Y-44.526
M15
G01X217.177Y-44.151
M16
G05
G00X220.237Y-112.675
M15
G01X221.128Y-112.221
M16
G05
G00X221.063Y-83.561
M15
G01X221.99Y-83.186
M16
G05
G00X223.367Y-62.142
M15
G01X224.294Y-61.768
M16
G05
G00X230.007Y-45.517
M15
G01X230.964Y-45.225
M16
G05
G00X230.485Y-79.759
M15
G01X231.412Y-79.384
M16
G05
G00X235.563Y-63.687
M15
G01X236.519Y-63.394
M16
G05
G00X239.725Y-42.55
M15
G01X240.681Y-42.258
M16
G05
G00X241.118Y-81.857
M15
G01X242.074Y-81.564
M16
G05
G00X245.28Y-60.72
M15
G01X246.236Y-60.428
M16
G05
G00X250.835Y-78.89
M15
G01X251.791Y-78.597
M16
G05
G00X256.748Y-57.138
M15
G01X257.733Y-56.964
M16
G05
G00X260.053Y-75.853
M15
G01X261.038Y-75.679
M16
G05
G00X266.754Y-55.377
M15
G01X267.739Y-55.204
M16
G05
G00X270.06Y-74.092
M15
G01X271.044Y-73.919
M16
G05
T0
M30
