%TF.GenerationSoftware,KiCad,Pcbnew,(6.0.4)*%
%TF.CreationDate,2022-08-21T15:28:52+02:00*%
%TF.ProjectId,Asfoora,4173666f-6f72-4612-9e6b-696361645f70,rev?*%
%TF.SameCoordinates,Original*%
%TF.FileFunction,Soldermask,Bot*%
%TF.FilePolarity,Negative*%
%FSLAX46Y46*%
G04 Gerber Fmt 4.6, Leading zero omitted, Abs format (unit mm)*
G04 Created by KiCad (PCBNEW (6.0.4)) date 2022-08-21 15:28:52*
%MOMM*%
%LPD*%
G01*
G04 APERTURE LIST*
G04 Aperture macros list*
%AMRoundRect*
0 Rectangle with rounded corners*
0 $1 Rounding radius*
0 $2 $3 $4 $5 $6 $7 $8 $9 X,Y pos of 4 corners*
0 Add a 4 corners polygon primitive as box body*
4,1,4,$2,$3,$4,$5,$6,$7,$8,$9,$2,$3,0*
0 Add four circle primitives for the rounded corners*
1,1,$1+$1,$2,$3*
1,1,$1+$1,$4,$5*
1,1,$1+$1,$6,$7*
1,1,$1+$1,$8,$9*
0 Add four rect primitives between the rounded corners*
20,1,$1+$1,$2,$3,$4,$5,0*
20,1,$1+$1,$4,$5,$6,$7,0*
20,1,$1+$1,$6,$7,$8,$9,0*
20,1,$1+$1,$8,$9,$2,$3,0*%
%AMHorizOval*
0 Thick line with rounded ends*
0 $1 width*
0 $2 $3 position (X,Y) of the first rounded end (center of the circle)*
0 $4 $5 position (X,Y) of the second rounded end (center of the circle)*
0 Add line between two ends*
20,1,$1,$2,$3,$4,$5,0*
0 Add two circle primitives to create the rounded ends*
1,1,$1,$2,$3*
1,1,$1,$4,$5*%
%AMRotRect*
0 Rectangle, with rotation*
0 The origin of the aperture is its center*
0 $1 length*
0 $2 width*
0 $3 Rotation angle, in degrees counterclockwise*
0 Add horizontal line*
21,1,$1,$2,0,0,$3*%
G04 Aperture macros list end*
%ADD10C,3.000000*%
%ADD11C,4.800000*%
%ADD12HorizOval,1.701800X0.492404X-0.086824X-0.492404X0.086824X0*%
%ADD13C,1.800000*%
%ADD14HorizOval,1.706624X0.490029X-0.086405X-0.490029X0.086405X0*%
%ADD15RotRect,2.600000X2.600000X350.000000*%
%ADD16C,2.032000*%
%ADD17C,2.286000*%
%ADD18RotRect,2.550000X2.500000X350.000000*%
%ADD19HorizOval,1.706624X0.443354X0.225900X-0.443354X-0.225900X0*%
%ADD20HorizOval,1.701800X0.445503X0.226995X-0.445503X-0.226995X0*%
%ADD21RotRect,2.600000X2.600000X27.000000*%
%ADD22RotRect,2.550000X2.500000X27.000000*%
%ADD23HorizOval,1.701800X0.463592X-0.187303X-0.463592X0.187303X0*%
%ADD24HorizOval,1.706624X0.461356X-0.186400X-0.461356X0.186400X0*%
%ADD25RotRect,2.600000X2.600000X338.000000*%
%ADD26RotRect,2.550000X2.500000X338.000000*%
%ADD27HorizOval,1.706624X0.443354X-0.225900X-0.443354X0.225900X0*%
%ADD28HorizOval,1.701800X0.445503X-0.226995X-0.445503X0.226995X0*%
%ADD29RotRect,2.600000X2.600000X333.000000*%
%ADD30RotRect,2.550000X2.500000X333.000000*%
%ADD31C,2.000000*%
%ADD32RotRect,3.200000X2.000000X27.000000*%
%ADD33HorizOval,1.701800X0.478152X0.146186X-0.478152X-0.146186X0*%
%ADD34HorizOval,1.706624X0.475846X0.145481X-0.475846X-0.145481X0*%
%ADD35RotRect,2.550000X2.500000X17.000000*%
%ADD36RotRect,2.600000X2.600000X17.000000*%
%ADD37HorizOval,1.701800X0.463592X0.187303X-0.463592X-0.187303X0*%
%ADD38HorizOval,1.706624X0.461356X0.186400X-0.461356X-0.186400X0*%
%ADD39RotRect,2.600000X2.600000X22.000000*%
%ADD40RotRect,2.550000X2.500000X22.000000*%
%ADD41HorizOval,1.706624X0.490029X0.086405X-0.490029X-0.086405X0*%
%ADD42HorizOval,1.701800X0.492404X0.086824X-0.492404X-0.086824X0*%
%ADD43RotRect,2.600000X2.600000X10.000000*%
%ADD44RotRect,2.550000X2.500000X10.000000*%
%ADD45HorizOval,1.706624X0.475846X-0.145481X-0.475846X0.145481X0*%
%ADD46HorizOval,1.701800X0.478152X-0.146186X-0.478152X0.146186X0*%
%ADD47RotRect,2.550000X2.500000X343.000000*%
%ADD48RotRect,2.600000X2.600000X343.000000*%
%ADD49C,1.524000*%
%ADD50RotRect,3.200000X2.000000X153.000000*%
%ADD51RoundRect,0.375000X0.795495X0.265165X0.265165X0.795495X-0.795495X-0.265165X-0.265165X-0.795495X0*%
%ADD52R,1.000000X0.800000*%
%ADD53C,0.900000*%
%ADD54R,0.700000X1.500000*%
G04 APERTURE END LIST*
D10*
%TO.C,SW11*%
X45922887Y-72060459D03*
X36074810Y-70323977D03*
X41380874Y-69025640D03*
D11*
X40348853Y-74884792D03*
D10*
X45919937Y-72063297D03*
X43728262Y-70326328D03*
D12*
X45347541Y-75770218D03*
D13*
X34461066Y-79482234D03*
D14*
X35342582Y-74002051D03*
D10*
X37033667Y-71725074D03*
X41377925Y-69028479D03*
D13*
X46236639Y-70287350D03*
D15*
X49145183Y-72631995D03*
D16*
X34763766Y-77759275D03*
D17*
X43658719Y-78048257D03*
D18*
X47421292Y-70977509D03*
D17*
X36154484Y-76725058D03*
D16*
X44611843Y-79495756D03*
D18*
X33281549Y-71063474D03*
D15*
X38155628Y-68456942D03*
D17*
X36964123Y-79447003D03*
D16*
X39323144Y-80695612D03*
D17*
X41966947Y-80329136D03*
%TD*%
D19*
%TO.C,SW24*%
X211628104Y-117057300D03*
D10*
X213454972Y-109453069D03*
X209999366Y-113679194D03*
D13*
X218092921Y-107534401D03*
D10*
X216113100Y-109075109D03*
D11*
X216157535Y-114749440D03*
D10*
X218909431Y-109139289D03*
X213455619Y-109449027D03*
X218908783Y-109143331D03*
D20*
X220682528Y-112448286D03*
D10*
X211608344Y-114221105D03*
D13*
X214222150Y-121964478D03*
D17*
X220704733Y-115283968D03*
D21*
X221826830Y-107656512D03*
D22*
X219454374Y-107372645D03*
D17*
X213915263Y-118743376D03*
D16*
X222337059Y-115866388D03*
X213426994Y-120406293D03*
D17*
X220726291Y-118123693D03*
D16*
X218835406Y-120007454D03*
D17*
X216199977Y-120429965D03*
D21*
X210537572Y-110935846D03*
D22*
X208213609Y-115950809D03*
%TD*%
D20*
%TO.C,SW20*%
X205909859Y-125306387D03*
D11*
X201384866Y-127607541D03*
D10*
X204136114Y-122001432D03*
D13*
X203320252Y-120392502D03*
D10*
X204136762Y-121997390D03*
X198682303Y-122311170D03*
X196835675Y-127079206D03*
X195226697Y-126537295D03*
D19*
X196855435Y-129915401D03*
D10*
X201340431Y-121933210D03*
X198682950Y-122307128D03*
D13*
X199449481Y-134822579D03*
D17*
X199142594Y-131601477D03*
D16*
X207564390Y-128724489D03*
D22*
X204681705Y-120230746D03*
D21*
X207054161Y-120514613D03*
D16*
X198654325Y-133264394D03*
D17*
X205932064Y-128142069D03*
X205953622Y-130981794D03*
D22*
X193440940Y-128808910D03*
D17*
X201427308Y-133288066D03*
D21*
X195764903Y-123793947D03*
D16*
X204062737Y-132865555D03*
%TD*%
D11*
%TO.C,SW22*%
X201776206Y-76061718D03*
D13*
X203711592Y-68846679D03*
D10*
X201731771Y-70387387D03*
X199073643Y-70765347D03*
X204528102Y-70451567D03*
D13*
X199840821Y-83276756D03*
D10*
X199074290Y-70761305D03*
X197227015Y-75533383D03*
D20*
X206301199Y-73760564D03*
D10*
X204527454Y-70455609D03*
D19*
X197246775Y-78369578D03*
D10*
X195618037Y-74991472D03*
D17*
X206323404Y-76596246D03*
D16*
X199045665Y-81718571D03*
D22*
X205073045Y-68684923D03*
D16*
X207955730Y-77178666D03*
D17*
X199533934Y-80055654D03*
D21*
X207445501Y-68968790D03*
D22*
X193832280Y-77263087D03*
D16*
X204454077Y-81319732D03*
D17*
X206344962Y-79435971D03*
X201818648Y-81742243D03*
D21*
X196156243Y-72248124D03*
%TD*%
D10*
%TO.C,SW5*%
X91309740Y-42460906D03*
X98148858Y-42484611D03*
D13*
X100610525Y-42968005D03*
D10*
X99934979Y-44637135D03*
D23*
X98600904Y-48146205D03*
D10*
X96123195Y-40724296D03*
X90663141Y-40891069D03*
D13*
X87180553Y-49513680D03*
D11*
X93895539Y-46240843D03*
D10*
X96119719Y-40726460D03*
D24*
X89182200Y-44336530D03*
D10*
X99931504Y-44639298D03*
D16*
X97106700Y-51637372D03*
D17*
X96475355Y-50023339D03*
X89410214Y-47168836D03*
D16*
X87834861Y-47891306D03*
D25*
X102968031Y-45866134D03*
D26*
X101625798Y-43889385D03*
X87777170Y-41033655D03*
D17*
X89636237Y-49999634D03*
X94346331Y-51902635D03*
D16*
X91684107Y-51711425D03*
D25*
X93086667Y-39497460D03*
%TD*%
D10*
%TO.C,SW8*%
X118905834Y-58066728D03*
X109995769Y-53526824D03*
D13*
X105774924Y-61813095D03*
D10*
X110503088Y-55147042D03*
D11*
X112749604Y-59137962D03*
D10*
X115445930Y-53838413D03*
D27*
X108220172Y-56830101D03*
D13*
X119724284Y-56462828D03*
D10*
X117314115Y-55766725D03*
X118902184Y-58068580D03*
D28*
X117271000Y-61446174D03*
D10*
X115449581Y-53836561D03*
D29*
X121820230Y-59555399D03*
D16*
X115478207Y-64793827D03*
X106568141Y-60253922D03*
D17*
X108200467Y-59671502D03*
D30*
X120655390Y-57469189D03*
D17*
X114989937Y-63130910D03*
D16*
X110069794Y-64394988D03*
D17*
X108178910Y-62511227D03*
X112705223Y-64817499D03*
D30*
X107108353Y-53417338D03*
D29*
X112531534Y-52349741D03*
%TD*%
D31*
%TO.C,SW33*%
X140970000Y-73712000D03*
X140970000Y-80212000D03*
%TD*%
%TO.C,SW16*%
X179119418Y-114910907D03*
X181389370Y-119365940D03*
X180254394Y-117138424D03*
D32*
X189479290Y-118723132D03*
X184394596Y-108743858D03*
D31*
X194308965Y-112783078D03*
X192039012Y-108328045D03*
%TD*%
D10*
%TO.C,SW30*%
X239161610Y-56365231D03*
D11*
X240902071Y-62054302D03*
D13*
X237743210Y-68823652D03*
D10*
X244585012Y-57011112D03*
X239160270Y-56369100D03*
X241843648Y-56458461D03*
D13*
X244060932Y-55284952D03*
D10*
X244586352Y-57007244D03*
D33*
X245757910Y-60573865D03*
D34*
X236040696Y-63540573D03*
D10*
X235023304Y-59930961D03*
X236513737Y-60744035D03*
D17*
X238000324Y-65598195D03*
D16*
X237230710Y-67151061D03*
X246793758Y-64227344D03*
D35*
X245429791Y-55362067D03*
D36*
X247716910Y-56053594D03*
D17*
X245287367Y-63370322D03*
X244815484Y-66170648D03*
D36*
X236029711Y-57322749D03*
D16*
X242626214Y-67697442D03*
D35*
X232870216Y-61857971D03*
D17*
X239957456Y-67655897D03*
%TD*%
D10*
%TO.C,SW19*%
X110671354Y-126541675D03*
X102268608Y-123621989D03*
X107211450Y-122313360D03*
X107215101Y-122311508D03*
D13*
X111489804Y-124937775D03*
X97540444Y-130288042D03*
D10*
X101761289Y-122001771D03*
X110667704Y-126543527D03*
D27*
X99985692Y-125305048D03*
D11*
X104515124Y-127612909D03*
D28*
X109036520Y-129921121D03*
D10*
X109079635Y-124241672D03*
D30*
X112420910Y-125944136D03*
D17*
X99965987Y-128146449D03*
D16*
X98333661Y-128728869D03*
X107243727Y-133268774D03*
D17*
X106755457Y-131605857D03*
D29*
X113585750Y-128030346D03*
D16*
X101835314Y-132869935D03*
D17*
X104470743Y-133292446D03*
X99944430Y-130986174D03*
D30*
X98873873Y-121892285D03*
D29*
X104297054Y-120824688D03*
%TD*%
D10*
%TO.C,SW25*%
X215235259Y-40887455D03*
X209775205Y-40720682D03*
D37*
X216713211Y-44338396D03*
D10*
X215234262Y-40891425D03*
D13*
X214561731Y-39217510D03*
D10*
X207519046Y-45313601D03*
D11*
X212004878Y-46236413D03*
D13*
X209448026Y-53255317D03*
D10*
X212455162Y-40579802D03*
D38*
X207291539Y-48140726D03*
D10*
X209774208Y-40724653D03*
X205963421Y-44633521D03*
D17*
X209423044Y-50019724D03*
X216488185Y-47165222D03*
D39*
X218270789Y-39664588D03*
D40*
X215932102Y-39175028D03*
D16*
X208791700Y-51633758D03*
X218063538Y-47887692D03*
D17*
X216262163Y-49996020D03*
D39*
X206738677Y-41947519D03*
D17*
X211552069Y-51899021D03*
D16*
X214214293Y-51707811D03*
D40*
X203986475Y-46740852D03*
%TD*%
D10*
%TO.C,SW6*%
X89005670Y-58340789D03*
X92817454Y-62253628D03*
D11*
X86778014Y-63857336D03*
D10*
X84192215Y-60077399D03*
X91031333Y-60101104D03*
D23*
X91483379Y-65762698D03*
D10*
X92813979Y-62255791D03*
D13*
X80063028Y-67130173D03*
D10*
X83545616Y-58507562D03*
D13*
X93493000Y-60584498D03*
D10*
X89002194Y-58342953D03*
D24*
X82064675Y-61953023D03*
D16*
X89989175Y-69253865D03*
D17*
X82292689Y-64785329D03*
X89357830Y-67639832D03*
D25*
X95850506Y-63482627D03*
D26*
X94508273Y-61505878D03*
D16*
X80717336Y-65507799D03*
X84566582Y-69327918D03*
D17*
X87228806Y-69519128D03*
D25*
X85969142Y-57113953D03*
D17*
X82518712Y-67616127D03*
D26*
X80659645Y-58650148D03*
%TD*%
D13*
%TO.C,SW10*%
X102472645Y-90321076D03*
D28*
X100019361Y-95304422D03*
D10*
X98197942Y-87694809D03*
X101654195Y-91924976D03*
D11*
X95497965Y-92996210D03*
D10*
X101650545Y-91926828D03*
D27*
X90968533Y-90688349D03*
D10*
X100062476Y-89624973D03*
X92744130Y-87385072D03*
X93251449Y-89005290D03*
D13*
X88523285Y-95671343D03*
D10*
X98194291Y-87696661D03*
D30*
X103403751Y-91327437D03*
D29*
X104568591Y-93413647D03*
D17*
X97738298Y-96989158D03*
X90948828Y-93529750D03*
D16*
X89316502Y-94112170D03*
X98226568Y-98652075D03*
X92818155Y-98253236D03*
D29*
X95279895Y-86207989D03*
D30*
X89856714Y-87275586D03*
D17*
X90927271Y-96369475D03*
X95453584Y-98675747D03*
%TD*%
D10*
%TO.C,SW32*%
X259975745Y-72059163D03*
D41*
X260545652Y-75765859D03*
D42*
X270551986Y-74005494D03*
D10*
X267168442Y-69443737D03*
D13*
X269512213Y-68549194D03*
D10*
X269822021Y-70326357D03*
X261355979Y-73047815D03*
D11*
X265551922Y-74883118D03*
D10*
X264517757Y-69024344D03*
X264515956Y-69028021D03*
X269823822Y-70322681D03*
D13*
X261591631Y-81217042D03*
D16*
X261286788Y-79494461D03*
D43*
X273047266Y-69757659D03*
D44*
X270861471Y-68792557D03*
D17*
X262239913Y-78046962D03*
X269744148Y-76723763D03*
D16*
X271134866Y-77757979D03*
X266575488Y-80694316D03*
D17*
X268934508Y-79445707D03*
D44*
X257603862Y-73709414D03*
D43*
X261292511Y-69593042D03*
D17*
X263931685Y-80327840D03*
%TD*%
D13*
%TO.C,SW27*%
X228796781Y-74450496D03*
D37*
X230948261Y-79571382D03*
D10*
X229469312Y-76124411D03*
D38*
X221526589Y-83373712D03*
D10*
X221754096Y-80546587D03*
X224010255Y-75953668D03*
X226690212Y-75812788D03*
D11*
X226239928Y-81469399D03*
D10*
X220198471Y-79866507D03*
X224009258Y-75957639D03*
X229470309Y-76120441D03*
D13*
X223683076Y-88488303D03*
D17*
X230723235Y-82398208D03*
D40*
X230167152Y-74408014D03*
D17*
X223658094Y-85252710D03*
D39*
X232505839Y-74897574D03*
D16*
X232298588Y-83120678D03*
X223026750Y-86866744D03*
D17*
X225787119Y-87132007D03*
D16*
X228449343Y-86940797D03*
D39*
X220973727Y-77180505D03*
D40*
X218221525Y-81973838D03*
D17*
X230497213Y-85229006D03*
%TD*%
D10*
%TO.C,SW14*%
X61178735Y-74540300D03*
D13*
X53039441Y-84073181D03*
D45*
X54582253Y-78741277D03*
D13*
X65847815Y-76381916D03*
D10*
X55757267Y-75179854D03*
D46*
X64297151Y-81715561D03*
D10*
X63353385Y-76114909D03*
D11*
X59443628Y-80227548D03*
D10*
X65320314Y-78103571D03*
X56538226Y-76687363D03*
X65317041Y-78106029D03*
X61182008Y-74537841D03*
D17*
X62343294Y-83770805D03*
D16*
X63112908Y-85323671D03*
D47*
X66939528Y-77211303D03*
D17*
X55056252Y-81542933D03*
D16*
X53549861Y-82399954D03*
D48*
X68448939Y-79063546D03*
D16*
X57717404Y-85870053D03*
D17*
X60386163Y-85828507D03*
X55528134Y-84343259D03*
D47*
X52894705Y-75573427D03*
D48*
X58050109Y-73580324D03*
%TD*%
D10*
%TO.C,SW2*%
X67648350Y-40347782D03*
D13*
X64149565Y-47733600D03*
D10*
X74463509Y-39775328D03*
D46*
X75407275Y-45375980D03*
D10*
X72288859Y-38200719D03*
X72292132Y-38198260D03*
X66867391Y-38840273D03*
X76430438Y-41763990D03*
X76427165Y-41766448D03*
D11*
X70553752Y-43887967D03*
D13*
X76957939Y-40042335D03*
D45*
X65692377Y-42401696D03*
D48*
X79559063Y-42723965D03*
D17*
X73453418Y-47431224D03*
D16*
X64659985Y-46060373D03*
D47*
X78049652Y-40871722D03*
D16*
X74223032Y-48984090D03*
D17*
X66166376Y-45203352D03*
D47*
X64004829Y-39233846D03*
D17*
X66638258Y-48003678D03*
D48*
X69160233Y-37240743D03*
D17*
X71496287Y-49488926D03*
D16*
X68827528Y-49530472D03*
%TD*%
D10*
%TO.C,SW15*%
X95898685Y-113683574D03*
X94306966Y-111383571D03*
D11*
X89742455Y-114754808D03*
D13*
X82767775Y-117429941D03*
D27*
X85213023Y-112446947D03*
D10*
X87495939Y-110763888D03*
D28*
X94263851Y-117063020D03*
D10*
X86988620Y-109143670D03*
X92438781Y-109455259D03*
X92442432Y-109453407D03*
X95895035Y-113685426D03*
D13*
X96717135Y-112079674D03*
D17*
X85193318Y-115288348D03*
D16*
X83560992Y-115870768D03*
D29*
X98813081Y-115172245D03*
D16*
X92471058Y-120410673D03*
D30*
X97648241Y-113086035D03*
D17*
X91982788Y-118747756D03*
D30*
X84101204Y-109034184D03*
D17*
X85171761Y-118128073D03*
X89698074Y-120434345D03*
D16*
X87062645Y-120011834D03*
D29*
X89524385Y-107966587D03*
%TD*%
D49*
%TO.C,U1*%
X160519400Y-75438000D03*
X160519400Y-77978000D03*
X160519400Y-80518000D03*
X160519400Y-83058000D03*
X160519400Y-85598000D03*
X160519400Y-88138000D03*
X160519400Y-90678000D03*
X160519400Y-93218000D03*
X160519400Y-95758000D03*
X160519400Y-98298000D03*
X160519400Y-100838000D03*
X160519400Y-103378000D03*
X145299400Y-103378000D03*
X145299400Y-100838000D03*
X145299400Y-98298000D03*
X145299400Y-95758000D03*
X145299400Y-93218000D03*
X145299400Y-90678000D03*
X145299400Y-88138000D03*
X145299400Y-85598000D03*
X145299400Y-83058000D03*
X145299400Y-80518000D03*
X145299400Y-77978000D03*
X145299400Y-75438000D03*
%TD*%
D31*
%TO.C,SW1*%
X123622812Y-118916489D03*
X125892764Y-114461456D03*
X124757788Y-116688973D03*
D50*
X115532892Y-118273681D03*
X120617586Y-108294407D03*
D31*
X112973170Y-107878594D03*
X110703217Y-112333627D03*
%TD*%
D10*
%TO.C,SW18*%
X183001823Y-92081853D03*
X186458076Y-87851686D03*
X186457429Y-87855728D03*
X184610801Y-92623764D03*
D13*
X187224607Y-100367137D03*
D10*
X191911888Y-87541948D03*
X191911240Y-87545990D03*
D11*
X189159992Y-93152099D03*
D20*
X193684985Y-90850945D03*
D10*
X189115557Y-87477768D03*
D19*
X184630561Y-95459959D03*
D13*
X191095378Y-85937060D03*
D21*
X194829287Y-86059171D03*
D16*
X195339516Y-94269047D03*
D17*
X186917720Y-97146035D03*
D22*
X192456831Y-85775304D03*
D17*
X193707190Y-93686627D03*
D16*
X186429451Y-98808952D03*
X191837863Y-98410113D03*
D17*
X193728748Y-96526352D03*
X189202434Y-98832624D03*
D21*
X183540029Y-89338505D03*
D22*
X181216066Y-94353468D03*
%TD*%
D10*
%TO.C,SW4*%
X44671152Y-50297217D03*
D12*
X48637819Y-57041795D03*
D13*
X37751344Y-60753811D03*
D10*
X39365088Y-51595554D03*
D11*
X43639131Y-56156369D03*
D10*
X44668203Y-50300056D03*
X40323945Y-52996651D03*
X47018540Y-51597905D03*
X49210215Y-53334874D03*
D13*
X49526917Y-51558927D03*
D10*
X49213165Y-53332036D03*
D14*
X38632860Y-55273628D03*
D18*
X50711570Y-52249086D03*
D16*
X47902121Y-60767333D03*
D17*
X46948997Y-59319834D03*
D15*
X52435461Y-53903572D03*
D17*
X39444762Y-57996635D03*
D16*
X38054044Y-59030852D03*
D15*
X41445906Y-49728519D03*
D18*
X36571827Y-52335051D03*
D17*
X45257225Y-61600713D03*
X40254401Y-60718580D03*
D16*
X42613422Y-61967189D03*
%TD*%
D11*
%TO.C,SW7*%
X79660489Y-81473829D03*
D10*
X81884669Y-75959446D03*
X83913808Y-77717597D03*
X81888145Y-75957282D03*
X77074690Y-77693892D03*
D24*
X74947150Y-79569516D03*
D13*
X86375475Y-78200991D03*
D10*
X76428091Y-76124055D03*
X85696454Y-79872284D03*
D23*
X84365854Y-83379191D03*
D13*
X72945503Y-84746666D03*
D10*
X85699929Y-79870121D03*
D16*
X73599811Y-83124292D03*
D25*
X88732981Y-81099120D03*
D17*
X82240305Y-85256325D03*
X75175164Y-82401822D03*
D26*
X87390748Y-79122371D03*
D16*
X82871650Y-86870358D03*
D26*
X73542120Y-76266641D03*
D17*
X80111281Y-87135621D03*
D25*
X78851617Y-74730446D03*
D16*
X77449057Y-86944411D03*
D17*
X75401187Y-85232620D03*
%TD*%
D10*
%TO.C,SW29*%
X236288586Y-38288670D03*
X233606548Y-38195440D03*
X229468242Y-41761170D03*
D34*
X230485634Y-45370782D03*
D10*
X230958675Y-42574244D03*
X239031290Y-38837453D03*
D11*
X235347009Y-43884511D03*
D10*
X233605208Y-38199309D03*
D13*
X232188148Y-50653861D03*
X238505870Y-37115161D03*
D10*
X239029950Y-38841321D03*
D33*
X240202848Y-42404074D03*
D35*
X239874729Y-37192276D03*
D36*
X242161848Y-37883803D03*
D16*
X241238696Y-46057553D03*
D17*
X232445262Y-47428404D03*
D16*
X231675648Y-48981270D03*
D17*
X239732305Y-45200531D03*
D36*
X230474649Y-39152958D03*
D16*
X237071152Y-49527651D03*
D17*
X239260422Y-48000857D03*
X234402394Y-49486106D03*
D35*
X227315154Y-43688180D03*
%TD*%
D13*
%TO.C,SW9*%
X97149104Y-78742219D03*
D10*
X108688295Y-72695849D03*
X110280014Y-74995852D03*
D28*
X108645180Y-78375298D03*
D11*
X104123784Y-76067086D03*
D27*
X99594352Y-73759225D03*
D10*
X106823761Y-70765685D03*
X110276364Y-74997704D03*
X101369949Y-70455948D03*
D13*
X111098464Y-73391952D03*
D10*
X106820110Y-70767537D03*
X101877268Y-72076166D03*
D17*
X106364117Y-80060034D03*
D30*
X112029570Y-74398313D03*
D16*
X97942321Y-77183046D03*
D29*
X113194410Y-76484523D03*
D17*
X99574647Y-76600626D03*
D16*
X106852387Y-81722951D03*
D30*
X98482533Y-70346462D03*
D16*
X101443974Y-81324112D03*
D17*
X99553090Y-79440351D03*
X104079403Y-81746623D03*
D29*
X103905714Y-69278865D03*
%TD*%
D13*
%TO.C,SW12*%
X118391138Y-78903476D03*
D28*
X129887214Y-78536555D03*
D10*
X128065795Y-70926942D03*
X128062144Y-70928794D03*
D27*
X120836386Y-73920482D03*
D10*
X131518398Y-75158961D03*
X123119302Y-72237423D03*
X129930329Y-72857106D03*
D13*
X132340498Y-73553209D03*
D11*
X125365818Y-76228343D03*
D10*
X131522048Y-75157109D03*
X122611983Y-70617205D03*
D29*
X134436444Y-76645780D03*
D17*
X120816681Y-76761883D03*
D16*
X119184355Y-77344303D03*
D17*
X127606151Y-80221291D03*
D30*
X133271604Y-74559570D03*
D16*
X128094421Y-81884208D03*
D17*
X125321437Y-81907880D03*
D29*
X125147748Y-69440122D03*
D16*
X122686008Y-81485369D03*
D17*
X120795124Y-79601608D03*
D30*
X119724567Y-70507719D03*
%TD*%
D19*
%TO.C,SW17*%
X176004741Y-78530835D03*
D10*
X177831609Y-70926604D03*
X174376003Y-75152729D03*
X183286068Y-70612824D03*
X177832256Y-70922562D03*
D11*
X180534172Y-76222975D03*
D10*
X183285420Y-70616866D03*
D13*
X182469558Y-69007936D03*
X178598787Y-83438013D03*
D10*
X180489737Y-70548644D03*
D20*
X185059165Y-73921821D03*
D10*
X175984981Y-75694640D03*
D22*
X183831011Y-68846180D03*
D17*
X178291900Y-80216911D03*
D16*
X186713696Y-77339923D03*
X177803631Y-81879828D03*
D17*
X185081370Y-76757503D03*
D21*
X186203467Y-69130047D03*
D22*
X172590246Y-77424344D03*
D17*
X185102928Y-79597228D03*
X180576614Y-81903500D03*
D21*
X174914209Y-72409381D03*
D16*
X183212043Y-81480989D03*
%TD*%
D13*
%TO.C,SW21*%
X195085772Y-51917555D03*
D20*
X197675379Y-56831440D03*
D11*
X193150386Y-59132594D03*
D10*
X195902282Y-53522443D03*
X195901634Y-53526485D03*
X190448470Y-53832181D03*
D19*
X188620955Y-61440454D03*
D10*
X190447823Y-53836223D03*
X193105951Y-53458263D03*
D13*
X191215001Y-66347632D03*
D10*
X188601195Y-58604259D03*
X186992217Y-58062348D03*
D21*
X198819681Y-52039666D03*
D17*
X197697584Y-59667122D03*
D16*
X199329910Y-60249542D03*
X190419845Y-64789447D03*
D22*
X196447225Y-51755799D03*
D17*
X190908114Y-63126530D03*
D21*
X187530423Y-55319000D03*
D17*
X193192828Y-64813119D03*
X197719142Y-62506847D03*
D16*
X195828257Y-64390608D03*
D22*
X185206460Y-60333963D03*
%TD*%
D10*
%TO.C,SW31*%
X263863176Y-50728571D03*
D13*
X258286365Y-62501876D03*
D11*
X262246656Y-56167952D03*
D10*
X266518556Y-51607515D03*
D41*
X257240386Y-57050693D03*
D42*
X267246720Y-55290328D03*
D10*
X261210690Y-50312855D03*
X266516755Y-51611191D03*
X258050713Y-54332649D03*
D13*
X266206947Y-49834028D03*
D10*
X261212491Y-50309178D03*
X256670479Y-53343997D03*
D44*
X267556205Y-50077391D03*
D17*
X258934647Y-59331796D03*
D16*
X267829600Y-59042813D03*
D17*
X266438882Y-58008597D03*
D43*
X269742000Y-51042493D03*
D16*
X257981522Y-60779295D03*
D43*
X257987245Y-50877876D03*
D16*
X263270222Y-61979150D03*
D17*
X260626419Y-61612674D03*
D44*
X254298596Y-54994248D03*
D17*
X265629242Y-60730541D03*
%TD*%
D10*
%TO.C,SW26*%
X214636571Y-62930094D03*
X216891733Y-58341146D03*
X222352784Y-58503948D03*
D11*
X219122403Y-63852906D03*
D13*
X216565551Y-70871810D03*
D10*
X222351787Y-58507918D03*
D13*
X221679256Y-56834003D03*
D10*
X213080946Y-62250014D03*
X219572687Y-58196295D03*
D38*
X214409064Y-65757219D03*
D37*
X223830736Y-61954889D03*
D10*
X216892730Y-58337175D03*
D40*
X223049627Y-56791521D03*
D16*
X225181063Y-65504185D03*
D39*
X225388314Y-57281081D03*
D16*
X215909225Y-69250251D03*
D17*
X223605710Y-64781715D03*
X216540569Y-67636217D03*
D16*
X221331818Y-69324304D03*
D39*
X213856202Y-59564012D03*
D17*
X218669594Y-69515514D03*
X223379688Y-67612513D03*
D40*
X211104000Y-64357345D03*
%TD*%
D33*
%TO.C,SW28*%
X251312972Y-78743655D03*
D10*
X247398710Y-74628251D03*
D34*
X241595758Y-81710363D03*
D10*
X244715332Y-74538890D03*
D11*
X246457133Y-80224092D03*
D10*
X250140074Y-75180902D03*
D13*
X243298272Y-86993442D03*
D10*
X250141414Y-75177034D03*
X244716672Y-74535021D03*
X242068799Y-78913825D03*
X240578366Y-78100751D03*
D13*
X249615994Y-73454742D03*
D36*
X253271972Y-74223384D03*
D35*
X250984853Y-73531857D03*
D17*
X243555386Y-83767985D03*
X250842429Y-81540112D03*
D16*
X242785772Y-85320851D03*
X252348820Y-82397134D03*
D36*
X241584773Y-75492539D03*
D16*
X248181276Y-85867232D03*
D17*
X250370546Y-84340438D03*
D35*
X238425278Y-80027761D03*
D17*
X245512518Y-85825687D03*
%TD*%
D10*
%TO.C,SW3*%
X66734121Y-56370890D03*
X61312653Y-57010444D03*
X70875700Y-59934161D03*
X70872427Y-59936619D03*
D13*
X58594827Y-65903771D03*
D45*
X60137639Y-60571867D03*
D10*
X62093612Y-58517953D03*
D13*
X71403201Y-58212506D03*
D10*
X66737394Y-56368431D03*
D46*
X69852537Y-63546151D03*
D10*
X68908771Y-57945499D03*
D11*
X64999014Y-62058138D03*
D16*
X59105247Y-64230544D03*
D17*
X67898680Y-65601395D03*
X60611638Y-63373523D03*
D48*
X74004325Y-60894136D03*
D16*
X68668294Y-67154261D03*
D47*
X72494914Y-59041893D03*
D48*
X63605495Y-55410914D03*
D16*
X63272790Y-67700643D03*
D17*
X65941549Y-67659097D03*
X61083520Y-66173849D03*
D47*
X58450091Y-57404017D03*
%TD*%
D51*
%TO.C,PAD1*%
X169816214Y-75582214D03*
X168402000Y-74168000D03*
X166987786Y-72753786D03*
%TD*%
D10*
%TO.C,SW23*%
X210357590Y-87316511D03*
D11*
X210402025Y-92990842D03*
D10*
X205852834Y-92462507D03*
D19*
X205872594Y-95298702D03*
D10*
X207700109Y-87690429D03*
D20*
X214927018Y-90689688D03*
D13*
X208466640Y-100205880D03*
D10*
X204243856Y-91920596D03*
D13*
X212337411Y-85775803D03*
D10*
X213153921Y-87380691D03*
X213153273Y-87384733D03*
X207699462Y-87694471D03*
D21*
X216071320Y-85897914D03*
D16*
X207671484Y-98647695D03*
X216581549Y-94107790D03*
D22*
X213698864Y-85614047D03*
D17*
X214949223Y-93525370D03*
X208159753Y-96984778D03*
D16*
X213079896Y-98248856D03*
D17*
X214970781Y-96365095D03*
X210444467Y-98671367D03*
D22*
X202458099Y-94192211D03*
D21*
X204782062Y-89177248D03*
%TD*%
D13*
%TO.C,SW13*%
X109765318Y-95832600D03*
D10*
X114493482Y-89166547D03*
D11*
X116739998Y-93157467D03*
D10*
X122892578Y-92088085D03*
X119436324Y-87857918D03*
D13*
X123714678Y-90482333D03*
D10*
X122896228Y-92086233D03*
D27*
X112210566Y-90849606D03*
D10*
X119439975Y-87856066D03*
D28*
X121261394Y-95465679D03*
D10*
X121304509Y-89786230D03*
X113986163Y-87546329D03*
D16*
X110558535Y-94273427D03*
D17*
X118980331Y-97150415D03*
X112190861Y-93691007D03*
D30*
X124645784Y-91488694D03*
D16*
X119468601Y-98813332D03*
D29*
X125810624Y-93574904D03*
D17*
X112169304Y-96530732D03*
D30*
X111098747Y-87436843D03*
D16*
X114060188Y-98414493D03*
D29*
X116521928Y-86369246D03*
D17*
X116695617Y-98837004D03*
%TD*%
D52*
%TO.C,SW34*%
X149512000Y-74440000D03*
X156812000Y-74440000D03*
D53*
X151662000Y-73330000D03*
D52*
X156812000Y-72230000D03*
D53*
X154662000Y-73330000D03*
D52*
X149512000Y-72230000D03*
D54*
X150912000Y-75090000D03*
X153912000Y-75090000D03*
X155412000Y-75090000D03*
%TD*%
M02*
