  0
SECTION
  2
HEADER
  9
$ACADVER
  1
AC1014
  9
$HANDSEED
  5
FFFF
  9
$INSUNITS
 70
     5
  9
$MEASUREMENT
 70
     1
  0
ENDSEC
  0
SECTION
  2
TABLES
  0
TABLE
  2
VPORT
  5
8
330
0
100
AcDbSymbolTable
 70
     4
  0
VPORT
  5
2E
330
8
100
AcDbSymbolTableRecord
100
AcDbViewportTableRecord
  2
*ACTIVE
 70
     0
 10
0.0
 20
0.0
 11
1.0
 21
1.0
 12
210.0
 22
148.5
 13
0.0
 23
0.0
 14
10.0
 24
10.0
 15
10.0
 25
10.0
 16
0.0
 26
0.0
 36
1.0
 17
0.0
 27
0.0
 37
0.0
 40
341.0
 41
1.24
 42
50.0
 43
0.0
 44
0.0
 50
0.0
 51
0.0
 71
     0
 72
   100
 73
     1
 74
     3
 75
     0
 76
     0
 77
     0
 78
     0
  0
ENDTAB
  0
TABLE
  2
LTYPE
  5
5
330
0
100
AcDbSymbolTable
 70
     1
  0
LTYPE
  5
14
330
5
100
AcDbSymbolTableRecord
100
AcDbLinetypeTableRecord
  2
BYBLOCK
 70
     0
  3

 72
    65
 73
     0
 40
0.0
  0
LTYPE
  5
15
330
5
100
AcDbSymbolTableRecord
100
AcDbLinetypeTableRecord
  2
BYLAYER
 70
     0
  3

 72
    65
 73
     0
 40
0.0
  0
LTYPE
  5
16
330
5
100
AcDbSymbolTableRecord
100
AcDbLinetypeTableRecord
  2
CONTINUOUS
 70
     0
  3
Solid line
 72
    65
 73
     0
 40
0.0
  0
ENDTAB
  0
TABLE
  2
LAYER
  5
2
100
AcDbSymbolTable
 70
1
  0
LAYER
  5
50
100
AcDbSymbolTableRecord
100
AcDbLayerTableRecord
  2
0
 70
0
  6
CONTINUOUS
  0
ENDTAB
  0
TABLE
  2
STYLE
  5
3
330
0
100
AcDbSymbolTable
 70
     1
  0
STYLE
  5
11
330
3
100
AcDbSymbolTableRecord
100
AcDbTextStyleTableRecord
  2
STANDARD
 70
     0
 40
0.0
 41
1.0
 50
0.0
 71
     0
 42
2.5
  3
txt
  4

  0
ENDTAB
  0
TABLE
  2
VIEW
  5
6
330
0
100
AcDbSymbolTable
 70
     0
  0
ENDTAB
  0
TABLE
  2
UCS
  5
7
330
0
100
AcDbSymbolTable
 70
     0
  0
ENDTAB
  0
TABLE
  2
APPID
  5
9
330
0
100
AcDbSymbolTable
 70
     2
  0
APPID
  5
12
330
9
100
AcDbSymbolTableRecord
100
AcDbRegAppTableRecord
  2
ACAD
 70
     0
  0
ENDTAB
  0
TABLE
  2
DIMSTYLE
  5
A
330
0
100
AcDbSymbolTable
 70
     1
  0
DIMSTYLE
105
27
330
A
100
AcDbSymbolTableRecord
100
AcDbDimStyleTableRecord
  2
ISO-25
 70
     0
  3

  4

  5

  6

  7

 40
1.0
 41
2.5
 42
0.625
 43
3.75
 44
1.25
 45
0.0
 46
0.0
 47
0.0
 48
0.0
140
2.5
141
2.5
142
0.0
143
0.03937007874016
144
1.0
145
0.0
146
1.0
147
0.625
 71
     0
 72
     0
 73
     0
 74
     0
 75
     0
 76
     0
 77
     1
 78
     8
170
     0
171
     3
172
     1
173
     0
174
     0
175
     0
176
     0
177
     0
178
     0
270
     2
271
     2
272
     2
273
     2
274
     3
340
11
275
     0
280
     0
281
     0
282
     0
283
     0
284
     8
285
     0
286
     0
287
     3
288
     0
  0
ENDTAB
  0
TABLE
  2
BLOCK_RECORD
  5
1
330
0
100
AcDbSymbolTable
 70
     1
  0
BLOCK_RECORD
  5
1F
330
1
100
AcDbSymbolTableRecord
100
AcDbBlockTableRecord
  2
*MODEL_SPACE
  0
BLOCK_RECORD
  5
1B
330
1
100
AcDbSymbolTableRecord
100
AcDbBlockTableRecord
  2
*PAPER_SPACE
  0
ENDTAB
  0
ENDSEC
  0
SECTION
  2
BLOCKS
  0
BLOCK
  5
20
330
1F
100
AcDbEntity
  8
0
100
AcDbBlockBegin
  2
*MODEL_SPACE
 70
     0
 10
0.0
 20
0.0
 30
0.0
  3
*MODEL_SPACE
  1

  0
ENDBLK
  5
21
330
1F
100
AcDbEntity
  8
0
100
AcDbBlockEnd
  0
BLOCK
  5
1C
330
1B
100
AcDbEntity
 67
     1
  8
0
100
AcDbBlockBegin
  2
*PAPER_SPACE
  1

  0
ENDBLK
  5
1D
330
1B
100
AcDbEntity
 67
     1
  8
0
100
AcDbBlockEnd
  0
ENDSEC
  0
SECTION
  2
ENTITIES
  0
SPLINE
  5
100
100
AcDbEntity
  8
0
 62
7
100
AcDbSpline
 70
8
 71
3
 72
8
 73
4
 74
0
 40
0
 40
0
 40
0
 40
0
 40
1
 40
1
 40
1
 40
1
 10
0.939800
 20
2.893200
 30
0.0
 10
0.879131
 20
2.893200
 30
0.0
 10
0.824435
 20
2.856654
 30
0.0
 10
0.801218
 20
2.800603
 30
0.0
  0
SPLINE
  5
101
100
AcDbEntity
  8
0
 62
7
100
AcDbSpline
 70
8
 71
3
 72
8
 73
4
 74
0
 40
0
 40
0
 40
0
 40
0
 40
1
 40
1
 40
1
 40
1
 10
0.801218
 20
2.800603
 30
0.0
 10
0.778001
 20
2.744551
 30
0.0
 10
0.790834
 20
2.680034
 30
0.0
 10
0.833734
 20
2.637134
 30
0.0
  0
SPLINE
  5
102
100
AcDbEntity
  8
0
 62
7
100
AcDbSpline
 70
8
 71
3
 72
8
 73
4
 74
0
 40
0
 40
0
 40
0
 40
0
 40
1
 40
1
 40
1
 40
1
 10
0.833734
 20
2.637134
 30
0.0
 10
0.876634
 20
2.594234
 30
0.0
 10
0.941151
 20
2.581401
 30
0.0
 10
0.997203
 20
2.604618
 30
0.0
  0
SPLINE
  5
103
100
AcDbEntity
  8
0
 62
7
100
AcDbSpline
 70
8
 71
3
 72
8
 73
4
 74
0
 40
0
 40
0
 40
0
 40
0
 40
1
 40
1
 40
1
 40
1
 10
0.997203
 20
2.604618
 30
0.0
 10
1.053254
 20
2.627835
 30
0.0
 10
1.089800
 20
2.682531
 30
0.0
 10
1.089800
 20
2.743200
 30
0.0
  0
SPLINE
  5
104
100
AcDbEntity
  8
0
 62
7
100
AcDbSpline
 70
8
 71
3
 72
8
 73
4
 74
0
 40
0
 40
0
 40
0
 40
0
 40
1
 40
1
 40
1
 40
1
 10
1.089800
 20
2.743200
 30
0.0
 10
1.089800
 20
2.782982
 30
0.0
 10
1.073996
 20
2.821136
 30
0.0
 10
1.045866
 20
2.849266
 30
0.0
  0
SPLINE
  5
105
100
AcDbEntity
  8
0
 62
7
100
AcDbSpline
 70
8
 71
3
 72
8
 73
4
 74
0
 40
0
 40
0
 40
0
 40
0
 40
1
 40
1
 40
1
 40
1
 10
1.045866
 20
2.849266
 30
0.0
 10
1.017736
 20
2.877396
 30
0.0
 10
0.979582
 20
2.893200
 30
0.0
 10
0.939800
 20
2.893200
 30
0.0
  0
LINE
  5
106
100
AcDbEntity
  8
0
 62
7
100
AcDbLine
 10
0.939800
 20
2.893200
 30
0.0
 11
0.939800
 21
2.893200
 31
0.0
  0
SPLINE
  5
107
100
AcDbEntity
  8
0
 62
7
100
AcDbSpline
 70
8
 71
3
 72
8
 73
4
 74
0
 40
0
 40
0
 40
0
 40
0
 40
1
 40
1
 40
1
 40
1
 10
10.642600
 20
9.090800
 30
0.0
 10
10.581931
 20
9.090800
 30
0.0
 10
10.527235
 20
9.054254
 30
0.0
 10
10.504018
 20
8.998203
 30
0.0
  0
SPLINE
  5
108
100
AcDbEntity
  8
0
 62
7
100
AcDbSpline
 70
8
 71
3
 72
8
 73
4
 74
0
 40
0
 40
0
 40
0
 40
0
 40
1
 40
1
 40
1
 40
1
 10
10.504018
 20
8.998203
 30
0.0
 10
10.480801
 20
8.942151
 30
0.0
 10
10.493634
 20
8.877634
 30
0.0
 10
10.536534
 20
8.834734
 30
0.0
  0
SPLINE
  5
109
100
AcDbEntity
  8
0
 62
7
100
AcDbSpline
 70
8
 71
3
 72
8
 73
4
 74
0
 40
0
 40
0
 40
0
 40
0
 40
1
 40
1
 40
1
 40
1
 10
10.536534
 20
8.834734
 30
0.0
 10
10.579434
 20
8.791834
 30
0.0
 10
10.643951
 20
8.779001
 30
0.0
 10
10.700003
 20
8.802218
 30
0.0
  0
SPLINE
  5
10a
100
AcDbEntity
  8
0
 62
7
100
AcDbSpline
 70
8
 71
3
 72
8
 73
4
 74
0
 40
0
 40
0
 40
0
 40
0
 40
1
 40
1
 40
1
 40
1
 10
10.700003
 20
8.802218
 30
0.0
 10
10.756054
 20
8.825435
 30
0.0
 10
10.792600
 20
8.880131
 30
0.0
 10
10.792600
 20
8.940800
 30
0.0
  0
SPLINE
  5
10b
100
AcDbEntity
  8
0
 62
7
100
AcDbSpline
 70
8
 71
3
 72
8
 73
4
 74
0
 40
0
 40
0
 40
0
 40
0
 40
1
 40
1
 40
1
 40
1
 10
10.792600
 20
8.940800
 30
0.0
 10
10.792600
 20
8.980582
 30
0.0
 10
10.776796
 20
9.018736
 30
0.0
 10
10.748666
 20
9.046866
 30
0.0
  0
SPLINE
  5
10c
100
AcDbEntity
  8
0
 62
7
100
AcDbSpline
 70
8
 71
3
 72
8
 73
4
 74
0
 40
0
 40
0
 40
0
 40
0
 40
1
 40
1
 40
1
 40
1
 10
10.748666
 20
9.046866
 30
0.0
 10
10.720536
 20
9.074996
 30
0.0
 10
10.682382
 20
9.090800
 30
0.0
 10
10.642600
 20
9.090800
 30
0.0
  0
LINE
  5
10d
100
AcDbEntity
  8
0
 62
7
100
AcDbLine
 10
10.642600
 20
9.090800
 30
0.0
 11
10.642600
 21
9.090800
 31
0.0
  0
SPLINE
  5
10e
100
AcDbEntity
  8
0
 62
7
100
AcDbSpline
 70
8
 71
3
 72
8
 73
4
 74
0
 40
0
 40
0
 40
0
 40
0
 40
1
 40
1
 40
1
 40
1
 10
2.565400
 20
9.090800
 30
0.0
 10
2.504731
 20
9.090800
 30
0.0
 10
2.450035
 20
9.054254
 30
0.0
 10
2.426818
 20
8.998203
 30
0.0
  0
SPLINE
  5
10f
100
AcDbEntity
  8
0
 62
7
100
AcDbSpline
 70
8
 71
3
 72
8
 73
4
 74
0
 40
0
 40
0
 40
0
 40
0
 40
1
 40
1
 40
1
 40
1
 10
2.426818
 20
8.998203
 30
0.0
 10
2.403601
 20
8.942151
 30
0.0
 10
2.416434
 20
8.877634
 30
0.0
 10
2.459334
 20
8.834734
 30
0.0
  0
SPLINE
  5
110
100
AcDbEntity
  8
0
 62
7
100
AcDbSpline
 70
8
 71
3
 72
8
 73
4
 74
0
 40
0
 40
0
 40
0
 40
0
 40
1
 40
1
 40
1
 40
1
 10
2.459334
 20
8.834734
 30
0.0
 10
2.502234
 20
8.791834
 30
0.0
 10
2.566751
 20
8.779001
 30
0.0
 10
2.622803
 20
8.802218
 30
0.0
  0
SPLINE
  5
111
100
AcDbEntity
  8
0
 62
7
100
AcDbSpline
 70
8
 71
3
 72
8
 73
4
 74
0
 40
0
 40
0
 40
0
 40
0
 40
1
 40
1
 40
1
 40
1
 10
2.622803
 20
8.802218
 30
0.0
 10
2.678854
 20
8.825435
 30
0.0
 10
2.715400
 20
8.880131
 30
0.0
 10
2.715400
 20
8.940800
 30
0.0
  0
SPLINE
  5
112
100
AcDbEntity
  8
0
 62
7
100
AcDbSpline
 70
8
 71
3
 72
8
 73
4
 74
0
 40
0
 40
0
 40
0
 40
0
 40
1
 40
1
 40
1
 40
1
 10
2.715400
 20
8.940800
 30
0.0
 10
2.715400
 20
8.980582
 30
0.0
 10
2.699596
 20
9.018736
 30
0.0
 10
2.671466
 20
9.046866
 30
0.0
  0
SPLINE
  5
113
100
AcDbEntity
  8
0
 62
7
100
AcDbSpline
 70
8
 71
3
 72
8
 73
4
 74
0
 40
0
 40
0
 40
0
 40
0
 40
1
 40
1
 40
1
 40
1
 10
2.671466
 20
9.046866
 30
0.0
 10
2.643336
 20
9.074996
 30
0.0
 10
2.605182
 20
9.090800
 30
0.0
 10
2.565400
 20
9.090800
 30
0.0
  0
LINE
  5
114
100
AcDbEntity
  8
0
 62
7
100
AcDbLine
 10
2.565400
 20
9.090800
 30
0.0
 11
2.565400
 21
9.090800
 31
0.0
  0
SPLINE
  5
115
100
AcDbEntity
  8
0
 62
7
100
AcDbSpline
 70
8
 71
3
 72
8
 73
4
 74
0
 40
0
 40
0
 40
0
 40
0
 40
1
 40
1
 40
1
 40
1
 10
10.693400
 20
2.867800
 30
0.0
 10
10.632731
 20
2.867800
 30
0.0
 10
10.578035
 20
2.831254
 30
0.0
 10
10.554818
 20
2.775203
 30
0.0
  0
SPLINE
  5
116
100
AcDbEntity
  8
0
 62
7
100
AcDbSpline
 70
8
 71
3
 72
8
 73
4
 74
0
 40
0
 40
0
 40
0
 40
0
 40
1
 40
1
 40
1
 40
1
 10
10.554818
 20
2.775203
 30
0.0
 10
10.531601
 20
2.719151
 30
0.0
 10
10.544434
 20
2.654634
 30
0.0
 10
10.587334
 20
2.611734
 30
0.0
  0
SPLINE
  5
117
100
AcDbEntity
  8
0
 62
7
100
AcDbSpline
 70
8
 71
3
 72
8
 73
4
 74
0
 40
0
 40
0
 40
0
 40
0
 40
1
 40
1
 40
1
 40
1
 10
10.587334
 20
2.611734
 30
0.0
 10
10.630234
 20
2.568834
 30
0.0
 10
10.694751
 20
2.556001
 30
0.0
 10
10.750803
 20
2.579218
 30
0.0
  0
SPLINE
  5
118
100
AcDbEntity
  8
0
 62
7
100
AcDbSpline
 70
8
 71
3
 72
8
 73
4
 74
0
 40
0
 40
0
 40
0
 40
0
 40
1
 40
1
 40
1
 40
1
 10
10.750803
 20
2.579218
 30
0.0
 10
10.806854
 20
2.602435
 30
0.0
 10
10.843400
 20
2.657131
 30
0.0
 10
10.843400
 20
2.717800
 30
0.0
  0
SPLINE
  5
119
100
AcDbEntity
  8
0
 62
7
100
AcDbSpline
 70
8
 71
3
 72
8
 73
4
 74
0
 40
0
 40
0
 40
0
 40
0
 40
1
 40
1
 40
1
 40
1
 10
10.843400
 20
2.717800
 30
0.0
 10
10.843400
 20
2.757582
 30
0.0
 10
10.827596
 20
2.795736
 30
0.0
 10
10.799466
 20
2.823866
 30
0.0
  0
SPLINE
  5
11a
100
AcDbEntity
  8
0
 62
7
100
AcDbSpline
 70
8
 71
3
 72
8
 73
4
 74
0
 40
0
 40
0
 40
0
 40
0
 40
1
 40
1
 40
1
 40
1
 10
10.799466
 20
2.823866
 30
0.0
 10
10.771336
 20
2.851996
 30
0.0
 10
10.733182
 20
2.867800
 30
0.0
 10
10.693400
 20
2.867800
 30
0.0
  0
LINE
  5
11b
100
AcDbEntity
  8
0
 62
7
100
AcDbLine
 10
10.693400
 20
2.867800
 30
0.0
 11
10.693400
 21
2.867800
 31
0.0
  0
LINE
  5
11c
100
AcDbEntity
  8
0
 62
7
100
AcDbLine
 10
4.919295
 20
5.709445
 30
0.0
 11
4.753700
 21
7.602215
 31
0.0
  0
LINE
  5
11d
100
AcDbEntity
  8
0
 62
7
100
AcDbLine
 10
4.753700
 20
7.602215
 30
0.0
 11
6.646469
 21
7.767811
 31
0.0
  0
LINE
  5
11e
100
AcDbEntity
  8
0
 62
7
100
AcDbLine
 10
4.753700
 20
7.602215
 30
0.0
 11
6.646469
 21
7.767811
 31
0.0
  0
LINE
  5
11f
100
AcDbEntity
  8
0
 62
7
100
AcDbLine
 10
4.919295
 20
5.709445
 30
0.0
 11
4.753700
 21
7.602215
 31
0.0
  0
LINE
  5
120
100
AcDbEntity
  8
0
 62
7
100
AcDbLine
 10
6.812065
 20
5.875041
 30
0.0
 11
4.919295
 21
5.709445
 31
0.0
  0
LINE
  5
121
100
AcDbEntity
  8
0
 62
7
100
AcDbLine
 10
6.646469
 20
7.767811
 30
0.0
 11
6.812065
 21
5.875041
 31
0.0
  0
LINE
  5
122
100
AcDbEntity
  8
0
 62
7
100
AcDbLine
 10
6.812065
 20
5.875041
 30
0.0
 11
4.919295
 21
5.709445
 31
0.0
  0
LINE
  5
123
100
AcDbEntity
  8
0
 62
7
100
AcDbLine
 10
6.646469
 20
7.767811
 30
0.0
 11
6.812065
 21
5.875041
 31
0.0
  0
LINE
  5
124
100
AcDbEntity
  8
0
 62
7
100
AcDbLine
 10
6.480874
 20
9.660581
 30
0.0
 11
6.646469
 21
7.767811
 31
0.0
  0
LINE
  5
125
100
AcDbEntity
  8
0
 62
7
100
AcDbLine
 10
6.480874
 20
9.660581
 30
0.0
 11
6.646469
 21
7.767811
 31
0.0
  0
LINE
  5
126
100
AcDbEntity
  8
0
 62
7
100
AcDbLine
 10
4.753700
 20
7.602215
 30
0.0
 11
4.588104
 21
9.494985
 31
0.0
  0
LINE
  5
127
100
AcDbEntity
  8
0
 62
7
100
AcDbLine
 10
4.588104
 20
9.494985
 30
0.0
 11
6.480874
 21
9.660581
 31
0.0
  0
LINE
  5
128
100
AcDbEntity
  8
0
 62
7
100
AcDbLine
 10
4.753700
 20
7.602215
 30
0.0
 11
4.588104
 21
9.494985
 31
0.0
  0
LINE
  5
129
100
AcDbEntity
  8
0
 62
7
100
AcDbLine
 10
4.588104
 20
9.494985
 30
0.0
 11
6.480874
 21
9.660581
 31
0.0
  0
LINE
  5
12a
100
AcDbEntity
  8
0
 62
7
100
AcDbLine
 10
6.646469
 20
7.767811
 30
0.0
 11
4.753700
 21
7.602215
 31
0.0
  0
LINE
  5
12b
100
AcDbEntity
  8
0
 62
7
100
AcDbLine
 10
6.646469
 20
7.767811
 30
0.0
 11
4.753700
 21
7.602215
 31
0.0
  0
LINE
  5
12c
100
AcDbEntity
  8
0
 62
7
100
AcDbLine
 10
4.527044
 20
6.820883
 30
0.0
 11
4.856975
 21
4.949749
 31
0.0
  0
LINE
  5
12d
100
AcDbEntity
  8
0
 62
7
100
AcDbLine
 10
4.856975
 20
4.949749
 30
0.0
 11
2.985841
 21
4.619817
 31
0.0
  0
LINE
  5
12e
100
AcDbEntity
  8
0
 62
7
100
AcDbLine
 10
2.985841
 20
4.619817
 30
0.0
 11
2.655909
 21
6.490952
 31
0.0
  0
LINE
  5
12f
100
AcDbEntity
  8
0
 62
7
100
AcDbLine
 10
2.655909
 20
6.490952
 30
0.0
 11
4.527044
 21
6.820883
 31
0.0
  0
LINE
  5
130
100
AcDbEntity
  8
0
 62
7
100
AcDbLine
 10
4.856975
 20
4.949749
 30
0.0
 11
2.985841
 21
4.619817
 31
0.0
  0
LINE
  5
131
100
AcDbEntity
  8
0
 62
7
100
AcDbLine
 10
2.985841
 20
4.619817
 30
0.0
 11
2.655909
 21
6.490952
 31
0.0
  0
LINE
  5
132
100
AcDbEntity
  8
0
 62
7
100
AcDbLine
 10
4.527044
 20
6.820883
 30
0.0
 11
4.856975
 21
4.949749
 31
0.0
  0
LINE
  5
133
100
AcDbEntity
  8
0
 62
7
100
AcDbLine
 10
2.655909
 20
6.490952
 30
0.0
 11
4.527044
 21
6.820883
 31
0.0
  0
LINE
  5
134
100
AcDbEntity
  8
0
 62
7
100
AcDbLine
 10
0.864176
 20
4.121052
 30
0.0
 11
2.681155
 21
4.676559
 31
0.0
  0
LINE
  5
135
100
AcDbEntity
  8
0
 62
7
100
AcDbLine
 10
3.236661
 20
2.859580
 30
0.0
 11
1.419682
 21
2.304073
 31
0.0
  0
LINE
  5
136
100
AcDbEntity
  8
0
 62
7
100
AcDbLine
 10
0.864176
 20
4.121052
 30
0.0
 11
2.681155
 21
4.676559
 31
0.0
  0
LINE
  5
137
100
AcDbEntity
  8
0
 62
7
100
AcDbLine
 10
2.681155
 20
4.676559
 30
0.0
 11
3.236661
 21
2.859580
 31
0.0
  0
LINE
  5
138
100
AcDbEntity
  8
0
 62
7
100
AcDbLine
 10
1.419682
 20
2.304073
 30
0.0
 11
0.864176
 21
4.121052
 31
0.0
  0
LINE
  5
139
100
AcDbEntity
  8
0
 62
7
100
AcDbLine
 10
1.419682
 20
2.304073
 30
0.0
 11
0.864176
 21
4.121052
 31
0.0
  0
LINE
  5
13a
100
AcDbEntity
  8
0
 62
7
100
AcDbLine
 10
3.236661
 20
2.859580
 30
0.0
 11
1.419682
 21
2.304073
 31
0.0
  0
LINE
  5
13b
100
AcDbEntity
  8
0
 62
7
100
AcDbLine
 10
2.681155
 20
4.676559
 30
0.0
 11
3.236661
 21
2.859580
 31
0.0
  0
LINE
  5
13c
100
AcDbEntity
  8
0
 62
7
100
AcDbLine
 10
8.935360
 20
2.640563
 30
0.0
 11
7.035360
 21
2.640563
 31
0.0
  0
LINE
  5
13d
100
AcDbEntity
  8
0
 62
7
100
AcDbLine
 10
8.935360
 20
4.540563
 30
0.0
 11
8.935360
 21
2.640563
 31
0.0
  0
LINE
  5
13e
100
AcDbEntity
  8
0
 62
7
100
AcDbLine
 10
7.035360
 20
2.640563
 30
0.0
 11
7.035360
 21
4.540563
 31
0.0
  0
LINE
  5
13f
100
AcDbEntity
  8
0
 62
7
100
AcDbLine
 10
8.935360
 20
4.540563
 30
0.0
 11
8.935360
 21
2.640563
 31
0.0
  0
LINE
  5
140
100
AcDbEntity
  8
0
 62
7
100
AcDbLine
 10
7.035360
 20
2.640563
 30
0.0
 11
7.035360
 21
4.540563
 31
0.0
  0
LINE
  5
141
100
AcDbEntity
  8
0
 62
7
100
AcDbLine
 10
8.935360
 20
2.640563
 30
0.0
 11
7.035360
 21
2.640563
 31
0.0
  0
LINE
  5
142
100
AcDbEntity
  8
0
 62
7
100
AcDbLine
 10
7.035360
 20
4.540563
 30
0.0
 11
8.935360
 21
4.540563
 31
0.0
  0
LINE
  5
143
100
AcDbEntity
  8
0
 62
7
100
AcDbLine
 10
7.035360
 20
4.540563
 30
0.0
 11
8.935360
 21
4.540563
 31
0.0
  0
LINE
  5
144
100
AcDbEntity
  8
0
 62
7
100
AcDbLine
 10
8.975360
 20
5.300563
 30
0.0
 11
10.875360
 21
5.300563
 31
0.0
  0
LINE
  5
145
100
AcDbEntity
  8
0
 62
7
100
AcDbLine
 10
8.975360
 20
3.400563
 30
0.0
 11
8.975360
 21
5.300563
 31
0.0
  0
LINE
  5
146
100
AcDbEntity
  8
0
 62
7
100
AcDbLine
 10
10.875360
 20
5.300563
 30
0.0
 11
10.875360
 21
3.400563
 31
0.0
  0
LINE
  5
147
100
AcDbEntity
  8
0
 62
7
100
AcDbLine
 10
10.875360
 20
3.400563
 30
0.0
 11
8.975360
 21
3.400563
 31
0.0
  0
LINE
  5
148
100
AcDbEntity
  8
0
 62
7
100
AcDbLine
 10
10.875360
 20
5.300563
 30
0.0
 11
10.875360
 21
3.400563
 31
0.0
  0
LINE
  5
149
100
AcDbEntity
  8
0
 62
7
100
AcDbLine
 10
8.975360
 20
5.300563
 30
0.0
 11
10.875360
 21
5.300563
 31
0.0
  0
LINE
  5
14a
100
AcDbEntity
  8
0
 62
7
100
AcDbLine
 10
8.975360
 20
3.400563
 30
0.0
 11
8.975360
 21
5.300563
 31
0.0
  0
LINE
  5
14b
100
AcDbEntity
  8
0
 62
7
100
AcDbLine
 10
10.875360
 20
3.400563
 30
0.0
 11
8.975360
 21
3.400563
 31
0.0
  0
LINE
  5
14c
100
AcDbEntity
  8
0
 62
7
100
AcDbLine
 10
9.397860
 20
0.540563
 30
0.0
 11
7.497860
 21
0.540563
 31
0.0
  0
LINE
  5
14d
100
AcDbEntity
  8
0
 62
7
100
AcDbLine
 10
9.397860
 20
2.440563
 30
0.0
 11
9.397860
 21
0.540563
 31
0.0
  0
LINE
  5
14e
100
AcDbEntity
  8
0
 62
7
100
AcDbLine
 10
7.497860
 20
0.540563
 30
0.0
 11
7.497860
 21
2.440563
 31
0.0
  0
LINE
  5
14f
100
AcDbEntity
  8
0
 62
7
100
AcDbLine
 10
9.397860
 20
2.440563
 30
0.0
 11
9.397860
 21
0.540563
 31
0.0
  0
LINE
  5
150
100
AcDbEntity
  8
0
 62
7
100
AcDbLine
 10
9.397860
 20
0.540563
 30
0.0
 11
7.497860
 21
0.540563
 31
0.0
  0
LINE
  5
151
100
AcDbEntity
  8
0
 62
7
100
AcDbLine
 10
7.497860
 20
0.540563
 30
0.0
 11
7.497860
 21
2.440563
 31
0.0
  0
LINE
  5
152
100
AcDbEntity
  8
0
 62
7
100
AcDbLine
 10
7.497860
 20
2.440563
 30
0.0
 11
9.397860
 21
2.440563
 31
0.0
  0
LINE
  5
153
100
AcDbEntity
  8
0
 62
7
100
AcDbLine
 10
7.497860
 20
2.440563
 30
0.0
 11
9.397860
 21
2.440563
 31
0.0
  0
LINE
  5
154
100
AcDbEntity
  8
0
 62
7
100
AcDbLine
 10
5.186907
 20
3.078614
 30
0.0
 11
3.315772
 21
2.748683
 31
0.0
  0
LINE
  5
155
100
AcDbEntity
  8
0
 62
7
100
AcDbLine
 10
5.186907
 20
3.078614
 30
0.0
 11
3.315772
 21
2.748683
 31
0.0
  0
LINE
  5
156
100
AcDbEntity
  8
0
 62
7
100
AcDbLine
 10
3.315772
 20
2.748683
 30
0.0
 11
2.985841
 21
4.619817
 31
0.0
  0
LINE
  5
157
100
AcDbEntity
  8
0
 62
7
100
AcDbLine
 10
4.856975
 20
4.949749
 30
0.0
 11
5.186907
 21
3.078614
 31
0.0
  0
LINE
  5
158
100
AcDbEntity
  8
0
 62
7
100
AcDbLine
 10
3.315772
 20
2.748683
 30
0.0
 11
2.985841
 21
4.619817
 31
0.0
  0
LINE
  5
159
100
AcDbEntity
  8
0
 62
7
100
AcDbLine
 10
2.985841
 20
4.619817
 30
0.0
 11
4.856975
 21
4.949749
 31
0.0
  0
LINE
  5
15a
100
AcDbEntity
  8
0
 62
7
100
AcDbLine
 10
4.856975
 20
4.949749
 30
0.0
 11
5.186907
 21
3.078614
 31
0.0
  0
LINE
  5
15b
100
AcDbEntity
  8
0
 62
7
100
AcDbLine
 10
2.985841
 20
4.619817
 30
0.0
 11
4.856975
 21
4.949749
 31
0.0
  0
LINE
  5
15c
100
AcDbEntity
  8
0
 62
7
100
AcDbLine
 10
6.812065
 20
5.875041
 30
0.0
 11
6.977661
 21
3.982271
 31
0.0
  0
LINE
  5
15d
100
AcDbEntity
  8
0
 62
7
100
AcDbLine
 10
6.812065
 20
5.875041
 30
0.0
 11
6.977661
 21
3.982271
 31
0.0
  0
LINE
  5
15e
100
AcDbEntity
  8
0
 62
7
100
AcDbLine
 10
4.919296
 20
5.709445
 30
0.0
 11
6.812065
 21
5.875041
 31
0.0
  0
LINE
  5
15f
100
AcDbEntity
  8
0
 62
7
100
AcDbLine
 10
5.084891
 20
3.816676
 30
0.0
 11
4.919296
 21
5.709445
 31
0.0
  0
LINE
  5
160
100
AcDbEntity
  8
0
 62
7
100
AcDbLine
 10
4.919296
 20
5.709445
 30
0.0
 11
6.812065
 21
5.875041
 31
0.0
  0
LINE
  5
161
100
AcDbEntity
  8
0
 62
7
100
AcDbLine
 10
5.084891
 20
3.816676
 30
0.0
 11
4.919296
 21
5.709445
 31
0.0
  0
LINE
  5
162
100
AcDbEntity
  8
0
 62
7
100
AcDbLine
 10
6.977661
 20
3.982271
 30
0.0
 11
5.084891
 21
3.816676
 31
0.0
  0
LINE
  5
163
100
AcDbEntity
  8
0
 62
7
100
AcDbLine
 10
6.977661
 20
3.982271
 30
0.0
 11
5.084891
 21
3.816676
 31
0.0
  0
LINE
  5
164
100
AcDbEntity
  8
0
 62
7
100
AcDbLine
 10
9.437860
 20
0.369563
 30
0.0
 11
9.437860
 21
2.269563
 31
0.0
  0
LINE
  5
165
100
AcDbEntity
  8
0
 62
7
100
AcDbLine
 10
9.437860
 20
0.369563
 30
0.0
 11
9.437860
 21
2.269563
 31
0.0
  0
LINE
  5
166
100
AcDbEntity
  8
0
 62
7
100
AcDbLine
 10
11.337860
 20
0.369563
 30
0.0
 11
9.437860
 21
0.369563
 31
0.0
  0
LINE
  5
167
100
AcDbEntity
  8
0
 62
7
100
AcDbLine
 10
9.437860
 20
2.269563
 30
0.0
 11
11.337860
 21
2.269563
 31
0.0
  0
LINE
  5
168
100
AcDbEntity
  8
0
 62
7
100
AcDbLine
 10
11.337860
 20
0.369563
 30
0.0
 11
9.437860
 21
0.369563
 31
0.0
  0
LINE
  5
169
100
AcDbEntity
  8
0
 62
7
100
AcDbLine
 10
11.337860
 20
2.269563
 30
0.0
 11
11.337860
 21
0.369563
 31
0.0
  0
LINE
  5
16a
100
AcDbEntity
  8
0
 62
7
100
AcDbLine
 10
11.337860
 20
2.269563
 30
0.0
 11
11.337860
 21
0.369563
 31
0.0
  0
LINE
  5
16b
100
AcDbEntity
  8
0
 62
7
100
AcDbLine
 10
9.437860
 20
2.269563
 30
0.0
 11
11.337860
 21
2.269563
 31
0.0
  0
LINE
  5
16c
100
AcDbEntity
  8
0
 62
7
100
AcDbLine
 10
8.935360
 20
6.440563
 30
0.0
 11
7.035360
 21
6.440563
 31
0.0
  0
LINE
  5
16d
100
AcDbEntity
  8
0
 62
7
100
AcDbLine
 10
7.035360
 20
8.340563
 30
0.0
 11
8.935360
 21
8.340563
 31
0.0
  0
LINE
  5
16e
100
AcDbEntity
  8
0
 62
7
100
AcDbLine
 10
8.935360
 20
8.340563
 30
0.0
 11
8.935360
 21
6.440563
 31
0.0
  0
LINE
  5
16f
100
AcDbEntity
  8
0
 62
7
100
AcDbLine
 10
8.935360
 20
6.440563
 30
0.0
 11
7.035360
 21
6.440563
 31
0.0
  0
LINE
  5
170
100
AcDbEntity
  8
0
 62
7
100
AcDbLine
 10
8.935360
 20
8.340563
 30
0.0
 11
8.935360
 21
6.440563
 31
0.0
  0
LINE
  5
171
100
AcDbEntity
  8
0
 62
7
100
AcDbLine
 10
7.035360
 20
6.440563
 30
0.0
 11
7.035360
 21
8.340563
 31
0.0
  0
LINE
  5
172
100
AcDbEntity
  8
0
 62
7
100
AcDbLine
 10
7.035360
 20
6.440563
 30
0.0
 11
7.035360
 21
8.340563
 31
0.0
  0
LINE
  5
173
100
AcDbEntity
  8
0
 62
7
100
AcDbLine
 10
7.035360
 20
8.340563
 30
0.0
 11
8.935360
 21
8.340563
 31
0.0
  0
LINE
  5
174
100
AcDbEntity
  8
0
 62
7
100
AcDbLine
 10
0.308670
 20
5.938031
 30
0.0
 11
2.125649
 21
6.493538
 31
0.0
  0
LINE
  5
175
100
AcDbEntity
  8
0
 62
7
100
AcDbLine
 10
2.681155
 20
4.676559
 30
0.0
 11
0.864176
 21
4.121052
 31
0.0
  0
LINE
  5
176
100
AcDbEntity
  8
0
 62
7
100
AcDbLine
 10
2.125649
 20
6.493538
 30
0.0
 11
2.681155
 21
4.676559
 31
0.0
  0
LINE
  5
177
100
AcDbEntity
  8
0
 62
7
100
AcDbLine
 10
2.125649
 20
6.493538
 30
0.0
 11
2.681155
 21
4.676559
 31
0.0
  0
LINE
  5
178
100
AcDbEntity
  8
0
 62
7
100
AcDbLine
 10
0.864176
 20
4.121052
 30
0.0
 11
0.308670
 21
5.938031
 31
0.0
  0
LINE
  5
179
100
AcDbEntity
  8
0
 62
7
100
AcDbLine
 10
0.864176
 20
4.121052
 30
0.0
 11
0.308670
 21
5.938031
 31
0.0
  0
LINE
  5
17a
100
AcDbEntity
  8
0
 62
7
100
AcDbLine
 10
2.681155
 20
4.676559
 30
0.0
 11
0.864176
 21
4.121052
 31
0.0
  0
LINE
  5
17b
100
AcDbEntity
  8
0
 62
7
100
AcDbLine
 10
0.308670
 20
5.938031
 30
0.0
 11
2.125649
 21
6.493538
 31
0.0
  0
LINE
  5
17c
100
AcDbEntity
  8
0
 62
7
100
AcDbLine
 10
8.975360
 20
5.300563
 30
0.0
 11
8.975360
 21
7.200563
 31
0.0
  0
LINE
  5
17d
100
AcDbEntity
  8
0
 62
7
100
AcDbLine
 10
10.875360
 20
5.300563
 30
0.0
 11
8.975360
 21
5.300563
 31
0.0
  0
LINE
  5
17e
100
AcDbEntity
  8
0
 62
7
100
AcDbLine
 10
8.975360
 20
7.200563
 30
0.0
 11
10.875360
 21
7.200563
 31
0.0
  0
LINE
  5
17f
100
AcDbEntity
  8
0
 62
7
100
AcDbLine
 10
10.875360
 20
5.300563
 30
0.0
 11
8.975360
 21
5.300563
 31
0.0
  0
LINE
  5
180
100
AcDbEntity
  8
0
 62
7
100
AcDbLine
 10
8.975360
 20
5.300563
 30
0.0
 11
8.975360
 21
7.200563
 31
0.0
  0
LINE
  5
181
100
AcDbEntity
  8
0
 62
7
100
AcDbLine
 10
8.975360
 20
7.200563
 30
0.0
 11
10.875360
 21
7.200563
 31
0.0
  0
LINE
  5
182
100
AcDbEntity
  8
0
 62
7
100
AcDbLine
 10
10.875360
 20
7.200563
 30
0.0
 11
10.875360
 21
5.300563
 31
0.0
  0
LINE
  5
183
100
AcDbEntity
  8
0
 62
7
100
AcDbLine
 10
10.875360
 20
7.200563
 30
0.0
 11
10.875360
 21
5.300563
 31
0.0
  0
LINE
  5
184
100
AcDbEntity
  8
0
 62
7
100
AcDbLine
 10
4.527044
 20
6.820883
 30
0.0
 11
2.655909
 21
6.490952
 31
0.0
  0
LINE
  5
185
100
AcDbEntity
  8
0
 62
7
100
AcDbLine
 10
4.527044
 20
6.820883
 30
0.0
 11
2.655909
 21
6.490952
 31
0.0
  0
LINE
  5
186
100
AcDbEntity
  8
0
 62
7
100
AcDbLine
 10
2.655909
 20
6.490952
 30
0.0
 11
2.325978
 21
8.362087
 31
0.0
  0
LINE
  5
187
100
AcDbEntity
  8
0
 62
7
100
AcDbLine
 10
4.197112
 20
8.692018
 30
0.0
 11
4.527044
 21
6.820883
 31
0.0
  0
LINE
  5
188
100
AcDbEntity
  8
0
 62
7
100
AcDbLine
 10
2.325978
 20
8.362087
 30
0.0
 11
4.197112
 21
8.692018
 31
0.0
  0
LINE
  5
189
100
AcDbEntity
  8
0
 62
7
100
AcDbLine
 10
2.325978
 20
8.362087
 30
0.0
 11
4.197112
 21
8.692018
 31
0.0
  0
LINE
  5
18a
100
AcDbEntity
  8
0
 62
7
100
AcDbLine
 10
4.197112
 20
8.692018
 30
0.0
 11
4.527044
 21
6.820883
 31
0.0
  0
LINE
  5
18b
100
AcDbEntity
  8
0
 62
7
100
AcDbLine
 10
2.655909
 20
6.490952
 30
0.0
 11
2.325978
 21
8.362087
 31
0.0
  0
LINE
  5
18c
100
AcDbEntity
  8
0
 62
7
100
AcDbLine
 10
8.935360
 20
6.440563
 30
0.0
 11
8.935360
 21
4.540563
 31
0.0
  0
LINE
  5
18d
100
AcDbEntity
  8
0
 62
7
100
AcDbLine
 10
8.935360
 20
4.540563
 30
0.0
 11
7.035360
 21
4.540563
 31
0.0
  0
LINE
  5
18e
100
AcDbEntity
  8
0
 62
7
100
AcDbLine
 10
8.935360
 20
6.440563
 30
0.0
 11
8.935360
 21
4.540563
 31
0.0
  0
LINE
  5
18f
100
AcDbEntity
  8
0
 62
7
100
AcDbLine
 10
7.035360
 20
4.540563
 30
0.0
 11
7.035360
 21
6.440563
 31
0.0
  0
LINE
  5
190
100
AcDbEntity
  8
0
 62
7
100
AcDbLine
 10
7.035360
 20
4.540563
 30
0.0
 11
7.035360
 21
6.440563
 31
0.0
  0
LINE
  5
191
100
AcDbEntity
  8
0
 62
7
100
AcDbLine
 10
7.035360
 20
6.440563
 30
0.0
 11
8.935360
 21
6.440563
 31
0.0
  0
LINE
  5
192
100
AcDbEntity
  8
0
 62
7
100
AcDbLine
 10
7.035360
 20
6.440563
 30
0.0
 11
8.935360
 21
6.440563
 31
0.0
  0
LINE
  5
193
100
AcDbEntity
  8
0
 62
7
100
AcDbLine
 10
8.935360
 20
4.540563
 30
0.0
 11
7.035360
 21
4.540563
 31
0.0
  0
LINE
  5
194
100
AcDbEntity
  8
0
 62
7
100
AcDbLine
 10
4.033800
 20
0.469200
 30
0.0
 11
11.072860
 21
0.469563
 31
0.0
  0
SPLINE
  5
195
100
AcDbEntity
  8
0
 62
7
100
AcDbSpline
 70
8
 71
3
 72
8
 73
4
 74
0
 40
0
 40
0
 40
0
 40
0
 40
1
 40
1
 40
1
 40
1
 10
3.733800
 20
0.769200
 30
0.0
 10
3.733800
 20
0.689635
 30
0.0
 10
3.765407
 20
0.613329
 30
0.0
 10
3.821668
 20
0.557068
 30
0.0
  0
SPLINE
  5
196
100
AcDbEntity
  8
0
 62
7
100
AcDbSpline
 70
8
 71
3
 72
8
 73
4
 74
0
 40
0
 40
0
 40
0
 40
0
 40
1
 40
1
 40
1
 40
1
 10
3.821668
 20
0.557068
 30
0.0
 10
3.877929
 20
0.500807
 30
0.0
 10
3.954235
 20
0.469200
 30
0.0
 10
4.033800
 20
0.469200
 30
0.0
  0
LINE
  5
197
100
AcDbEntity
  8
0
 62
7
100
AcDbLine
 10
3.733800
 20
2.336800
 30
0.0
 11
3.733800
 21
0.769200
 31
0.0
  0
SPLINE
  5
198
100
AcDbEntity
  8
0
 62
7
100
AcDbSpline
 70
8
 71
3
 72
8
 73
4
 74
0
 40
0
 40
0
 40
0
 40
0
 40
1
 40
1
 40
1
 40
1
 10
0.353800
 20
2.636700
 30
0.0
 10
0.353800
 20
2.557135
 30
0.0
 10
0.385407
 20
2.480829
 30
0.0
 10
0.441668
 20
2.424568
 30
0.0
  0
SPLINE
  5
199
100
AcDbEntity
  8
0
 62
7
100
AcDbSpline
 70
8
 71
3
 72
8
 73
4
 74
0
 40
0
 40
0
 40
0
 40
0
 40
1
 40
1
 40
1
 40
1
 10
0.441668
 20
2.424568
 30
0.0
 10
0.497929
 20
2.368307
 30
0.0
 10
0.574235
 20
2.336700
 30
0.0
 10
0.653800
 20
2.336700
 30
0.0
  0
LINE
  5
19a
100
AcDbEntity
  8
0
 62
7
100
AcDbLine
 10
0.654121
 20
9.531058
 30
0.0
 11
11.072860
 21
9.531058
 31
0.0
  0
LINE
  5
19b
100
AcDbEntity
  8
0
 62
7
100
AcDbLine
 10
0.653800
 20
2.336700
 30
0.0
 11
3.733800
 21
2.336800
 31
0.0
  0
LINE
  5
19c
100
AcDbEntity
  8
0
 62
7
100
AcDbLine
 10
0.353800
 20
2.636700
 30
0.0
 11
0.354121
 21
9.231058
 31
0.0
  0
SPLINE
  5
19d
100
AcDbEntity
  8
0
 62
7
100
AcDbSpline
 70
8
 71
3
 72
8
 73
4
 74
0
 40
0
 40
0
 40
0
 40
0
 40
1
 40
1
 40
1
 40
1
 10
11.072860
 20
0.469570
 30
0.0
 10
11.152425
 20
0.469567
 30
0.0
 10
11.228731
 20
0.501173
 30
0.0
 10
11.284993
 20
0.557433
 30
0.0
  0
SPLINE
  5
19e
100
AcDbEntity
  8
0
 62
7
100
AcDbSpline
 70
8
 71
3
 72
8
 73
4
 74
0
 40
0
 40
0
 40
0
 40
0
 40
1
 40
1
 40
1
 40
1
 10
11.284993
 20
0.557433
 30
0.0
 10
11.341254
 20
0.613693
 30
0.0
 10
11.372861
 20
0.689999
 30
0.0
 10
11.372860
 20
0.769563
 30
0.0
  0
LINE
  5
19f
100
AcDbEntity
  8
0
 62
7
100
AcDbLine
 10
11.372860
 20
0.769563
 30
0.0
 11
11.372860
 21
9.231058
 31
0.0
  0
SPLINE
  5
1a0
100
AcDbEntity
  8
0
 62
7
100
AcDbSpline
 70
8
 71
3
 72
8
 73
4
 74
0
 40
0
 40
0
 40
0
 40
0
 40
1
 40
1
 40
1
 40
1
 10
11.372858
 20
9.231058
 30
0.0
 10
11.372858
 20
9.310623
 30
0.0
 10
11.341252
 20
9.386929
 30
0.0
 10
11.284991
 20
9.443190
 30
0.0
  0
SPLINE
  5
1a1
100
AcDbEntity
  8
0
 62
7
100
AcDbSpline
 70
8
 71
3
 72
8
 73
4
 74
0
 40
0
 40
0
 40
0
 40
0
 40
1
 40
1
 40
1
 40
1
 10
11.284991
 20
9.443190
 30
0.0
 10
11.228731
 20
9.499451
 30
0.0
 10
11.152425
 20
9.531058
 30
0.0
 10
11.072860
 20
9.531058
 30
0.0
  0
SPLINE
  5
1a2
100
AcDbEntity
  8
0
 62
7
100
AcDbSpline
 70
8
 71
3
 72
8
 73
4
 74
0
 40
0
 40
0
 40
0
 40
0
 40
1
 40
1
 40
1
 40
1
 10
0.654121
 20
9.531059
 30
0.0
 10
0.574556
 20
9.531059
 30
0.0
 10
0.498249
 20
9.499452
 30
0.0
 10
0.441988
 20
9.443191
 30
0.0
  0
SPLINE
  5
1a3
100
AcDbEntity
  8
0
 62
7
100
AcDbSpline
 70
8
 71
3
 72
8
 73
4
 74
0
 40
0
 40
0
 40
0
 40
0
 40
1
 40
1
 40
1
 40
1
 10
0.441988
 20
9.443191
 30
0.0
 10
0.385727
 20
9.386930
 30
0.0
 10
0.354120
 20
9.310623
 30
0.0
 10
0.354121
 20
9.231058
 30
0.0
  0
LINE
  5
1a4
100
AcDbEntity
  8
0
 62
7
100
AcDbLine
 10
5.024537
 20
7.374956
 30
0.0
 11
5.146555
 21
5.980283
 31
0.0
  0
LINE
  5
1a5
100
AcDbEntity
  8
0
 62
7
100
AcDbLine
 10
5.146555
 20
5.980283
 30
0.0
 11
6.541228
 21
6.102301
 31
0.0
  0
LINE
  5
1a6
100
AcDbEntity
  8
0
 62
7
100
AcDbLine
 10
6.541228
 20
6.102301
 30
0.0
 11
6.419210
 21
7.496974
 31
0.0
  0
LINE
  5
1a7
100
AcDbEntity
  8
0
 62
7
100
AcDbLine
 10
6.419210
 20
7.496974
 30
0.0
 11
5.024537
 21
7.374956
 31
0.0
  0
LINE
  5
1a8
100
AcDbEntity
  8
0
 62
7
100
AcDbLine
 10
4.980959
 20
7.873053
 30
0.0
 11
6.375632
 21
7.995071
 31
0.0
  0
LINE
  5
1a9
100
AcDbEntity
  8
0
 62
7
100
AcDbLine
 10
6.375632
 20
7.995071
 30
0.0
 11
6.253614
 21
9.389744
 31
0.0
  0
LINE
  5
1aa
100
AcDbEntity
  8
0
 62
7
100
AcDbLine
 10
6.253614
 20
9.389744
 30
0.0
 11
4.858941
 21
9.267726
 31
0.0
  0
LINE
  5
1ab
100
AcDbEntity
  8
0
 62
7
100
AcDbLine
 10
4.858941
 20
9.267726
 30
0.0
 11
4.980959
 21
7.873053
 31
0.0
  0
LINE
  5
1ac
100
AcDbEntity
  8
0
 62
7
100
AcDbLine
 10
3.188630
 20
4.909431
 30
0.0
 11
4.567361
 21
5.152539
 31
0.0
  0
LINE
  5
1ad
100
AcDbEntity
  8
0
 62
7
100
AcDbLine
 10
4.567361
 20
5.152539
 30
0.0
 11
4.324254
 21
6.531270
 31
0.0
  0
LINE
  5
1ae
100
AcDbEntity
  8
0
 62
7
100
AcDbLine
 10
4.324254
 20
6.531270
 30
0.0
 11
2.945523
 21
6.288162
 31
0.0
  0
LINE
  5
1af
100
AcDbEntity
  8
0
 62
7
100
AcDbLine
 10
2.945523
 20
6.288162
 30
0.0
 11
3.188630
 21
4.909431
 31
0.0
  0
LINE
  5
1b0
100
AcDbEntity
  8
0
 62
7
100
AcDbLine
 10
1.176345
 20
3.955069
 30
0.0
 11
1.585666
 21
2.616242
 31
0.0
  0
LINE
  5
1b1
100
AcDbEntity
  8
0
 62
7
100
AcDbLine
 10
2.515172
 20
4.364389
 30
0.0
 11
1.176345
 21
3.955069
 31
0.0
  0
LINE
  5
1b2
100
AcDbEntity
  8
0
 62
7
100
AcDbLine
 10
2.924492
 20
3.025563
 30
0.0
 11
2.515172
 21
4.364389
 31
0.0
  0
LINE
  5
1b3
100
AcDbEntity
  8
0
 62
7
100
AcDbLine
 10
1.585666
 20
2.616242
 30
0.0
 11
2.924492
 21
3.025563
 31
0.0
  0
LINE
  5
1b4
100
AcDbEntity
  8
0
 62
7
100
AcDbLine
 10
8.685360
 20
4.290563
 30
0.0
 11
7.285360
 21
4.290563
 31
0.0
  0
LINE
  5
1b5
100
AcDbEntity
  8
0
 62
7
100
AcDbLine
 10
8.685360
 20
2.890563
 30
0.0
 11
8.685360
 21
4.290563
 31
0.0
  0
LINE
  5
1b6
100
AcDbEntity
  8
0
 62
7
100
AcDbLine
 10
7.285360
 20
4.290563
 30
0.0
 11
7.285360
 21
2.890563
 31
0.0
  0
LINE
  5
1b7
100
AcDbEntity
  8
0
 62
7
100
AcDbLine
 10
7.285360
 20
2.890563
 30
0.0
 11
8.685360
 21
2.890563
 31
0.0
  0
LINE
  5
1b8
100
AcDbEntity
  8
0
 62
7
100
AcDbLine
 10
10.625360
 20
5.050563
 30
0.0
 11
9.225360
 21
5.050563
 31
0.0
  0
LINE
  5
1b9
100
AcDbEntity
  8
0
 62
7
100
AcDbLine
 10
9.225360
 20
5.050563
 30
0.0
 11
9.225360
 21
3.650563
 31
0.0
  0
LINE
  5
1ba
100
AcDbEntity
  8
0
 62
7
100
AcDbLine
 10
10.625360
 20
3.650563
 30
0.0
 11
10.625360
 21
5.050563
 31
0.0
  0
LINE
  5
1bb
100
AcDbEntity
  8
0
 62
7
100
AcDbLine
 10
9.225360
 20
3.650563
 30
0.0
 11
10.625360
 21
3.650563
 31
0.0
  0
LINE
  5
1bc
100
AcDbEntity
  8
0
 62
7
100
AcDbLine
 10
9.147860
 20
0.790563
 30
0.0
 11
9.147860
 21
2.190563
 31
0.0
  0
LINE
  5
1bd
100
AcDbEntity
  8
0
 62
7
100
AcDbLine
 10
9.147860
 20
2.190563
 30
0.0
 11
7.747860
 21
2.190563
 31
0.0
  0
LINE
  5
1be
100
AcDbEntity
  8
0
 62
7
100
AcDbLine
 10
7.747860
 20
2.190563
 30
0.0
 11
7.747860
 21
0.790563
 31
0.0
  0
LINE
  5
1bf
100
AcDbEntity
  8
0
 62
7
100
AcDbLine
 10
7.747860
 20
0.790563
 30
0.0
 11
9.147860
 21
0.790563
 31
0.0
  0
LINE
  5
1c0
100
AcDbEntity
  8
0
 62
7
100
AcDbLine
 10
3.518562
 20
3.038296
 30
0.0
 11
4.897293
 21
3.281404
 31
0.0
  0
LINE
  5
1c1
100
AcDbEntity
  8
0
 62
7
100
AcDbLine
 10
4.897293
 20
3.281404
 30
0.0
 11
4.654185
 21
4.660135
 31
0.0
  0
LINE
  5
1c2
100
AcDbEntity
  8
0
 62
7
100
AcDbLine
 10
4.654185
 20
4.660135
 30
0.0
 11
3.275455
 21
4.417027
 31
0.0
  0
LINE
  5
1c3
100
AcDbEntity
  8
0
 62
7
100
AcDbLine
 10
3.275455
 20
4.417027
 30
0.0
 11
3.518562
 21
3.038296
 31
0.0
  0
LINE
  5
1c4
100
AcDbEntity
  8
0
 62
7
100
AcDbLine
 10
6.706824
 20
4.209531
 30
0.0
 11
6.584806
 21
5.604204
 31
0.0
  0
LINE
  5
1c5
100
AcDbEntity
  8
0
 62
7
100
AcDbLine
 10
6.584806
 20
5.604204
 30
0.0
 11
5.190133
 21
5.482186
 31
0.0
  0
LINE
  5
1c6
100
AcDbEntity
  8
0
 62
7
100
AcDbLine
 10
5.190133
 20
5.482186
 30
0.0
 11
5.312151
 21
4.087513
 31
0.0
  0
LINE
  5
1c7
100
AcDbEntity
  8
0
 62
7
100
AcDbLine
 10
5.312151
 20
4.087513
 30
0.0
 11
6.706824
 21
4.209531
 31
0.0
  0
LINE
  5
1c8
100
AcDbEntity
  8
0
 62
7
100
AcDbLine
 10
11.087860
 20
2.019563
 30
0.0
 11
9.687860
 21
2.019563
 31
0.0
  0
LINE
  5
1c9
100
AcDbEntity
  8
0
 62
7
100
AcDbLine
 10
9.687860
 20
2.019563
 30
0.0
 11
9.687860
 21
0.619563
 31
0.0
  0
LINE
  5
1ca
100
AcDbEntity
  8
0
 62
7
100
AcDbLine
 10
9.687860
 20
0.619563
 30
0.0
 11
11.087860
 21
0.619563
 31
0.0
  0
LINE
  5
1cb
100
AcDbEntity
  8
0
 62
7
100
AcDbLine
 10
11.087860
 20
0.619563
 30
0.0
 11
11.087860
 21
2.019563
 31
0.0
  0
LINE
  5
1cc
100
AcDbEntity
  8
0
 62
7
100
AcDbLine
 10
7.285360
 20
8.090563
 30
0.0
 11
7.285360
 21
6.690563
 31
0.0
  0
LINE
  5
1cd
100
AcDbEntity
  8
0
 62
7
100
AcDbLine
 10
8.685360
 20
6.690563
 30
0.0
 11
8.685360
 21
8.090563
 31
0.0
  0
LINE
  5
1ce
100
AcDbEntity
  8
0
 62
7
100
AcDbLine
 10
8.685360
 20
8.090563
 30
0.0
 11
7.285360
 21
8.090563
 31
0.0
  0
LINE
  5
1cf
100
AcDbEntity
  8
0
 62
7
100
AcDbLine
 10
7.285360
 20
6.690563
 30
0.0
 11
8.685360
 21
6.690563
 31
0.0
  0
LINE
  5
1d0
100
AcDbEntity
  8
0
 62
7
100
AcDbLine
 10
0.620839
 20
5.772048
 30
0.0
 11
1.030159
 21
4.433222
 31
0.0
  0
LINE
  5
1d1
100
AcDbEntity
  8
0
 62
7
100
AcDbLine
 10
2.368986
 20
4.842542
 30
0.0
 11
1.959665
 21
6.181369
 31
0.0
  0
LINE
  5
1d2
100
AcDbEntity
  8
0
 62
7
100
AcDbLine
 10
1.030159
 20
4.433222
 30
0.0
 11
2.368986
 21
4.842542
 31
0.0
  0
LINE
  5
1d3
100
AcDbEntity
  8
0
 62
7
100
AcDbLine
 10
1.959665
 20
6.181369
 30
0.0
 11
0.620839
 21
5.772048
 31
0.0
  0
LINE
  5
1d4
100
AcDbEntity
  8
0
 62
7
100
AcDbLine
 10
9.225360
 20
6.950563
 30
0.0
 11
9.225360
 21
5.550563
 31
0.0
  0
LINE
  5
1d5
100
AcDbEntity
  8
0
 62
7
100
AcDbLine
 10
10.625360
 20
6.950563
 30
0.0
 11
9.225360
 21
6.950563
 31
0.0
  0
LINE
  5
1d6
100
AcDbEntity
  8
0
 62
7
100
AcDbLine
 10
9.225360
 20
5.550563
 30
0.0
 11
10.625360
 21
5.550563
 31
0.0
  0
LINE
  5
1d7
100
AcDbEntity
  8
0
 62
7
100
AcDbLine
 10
10.625360
 20
5.550563
 30
0.0
 11
10.625360
 21
6.950563
 31
0.0
  0
LINE
  5
1d8
100
AcDbEntity
  8
0
 62
7
100
AcDbLine
 10
2.615591
 20
8.159297
 30
0.0
 11
2.858699
 21
6.780566
 31
0.0
  0
LINE
  5
1d9
100
AcDbEntity
  8
0
 62
7
100
AcDbLine
 10
4.237430
 20
7.023673
 30
0.0
 11
3.994322
 21
8.402404
 31
0.0
  0
LINE
  5
1da
100
AcDbEntity
  8
0
 62
7
100
AcDbLine
 10
3.994322
 20
8.402404
 30
0.0
 11
2.615591
 21
8.159297
 31
0.0
  0
LINE
  5
1db
100
AcDbEntity
  8
0
 62
7
100
AcDbLine
 10
2.858699
 20
6.780566
 30
0.0
 11
4.237430
 21
7.023673
 31
0.0
  0
LINE
  5
1dc
100
AcDbEntity
  8
0
 62
7
100
AcDbLine
 10
7.285360
 20
6.190563
 30
0.0
 11
7.285360
 21
4.790563
 31
0.0
  0
LINE
  5
1dd
100
AcDbEntity
  8
0
 62
7
100
AcDbLine
 10
7.285360
 20
4.790563
 30
0.0
 11
8.685360
 21
4.790563
 31
0.0
  0
LINE
  5
1de
100
AcDbEntity
  8
0
 62
7
100
AcDbLine
 10
8.685360
 20
6.190563
 30
0.0
 11
7.285360
 21
6.190563
 31
0.0
  0
LINE
  5
1df
100
AcDbEntity
  8
0
 62
7
100
AcDbLine
 10
8.685360
 20
4.790563
 30
0.0
 11
8.685360
 21
6.190563
 31
0.0
  0
ENDSEC
  0
SECTION
  2
OBJECTS
  0
DICTIONARY
  5
C
330
0
100
AcDbDictionary
  3
ACAD_GROUP
350
D
  3
ACAD_MLINESTYLE
350
17
  0
DICTIONARY
  5
D
330
C
100
AcDbDictionary
  0
DICTIONARY
  5
1A
330
C
100
AcDbDictionary
  0
DICTIONARY
  5
17
330
C
100
AcDbDictionary
  3
STANDARD
350
18
  0
DICTIONARY
  5
19
330
C
100
AcDbDictionary
  0
ENDSEC
  0
EOF
