  0
SECTION
  2
HEADER
  9
$ANGBASE
  50
0.0
  9
$ANGDIR
  70
1
  9
$MEASUREMENT
  70
1
  0
ENDSEC
  0
SECTION
  2
TABLES
  0
TABLE
  2
LTYPE
  70
4
  0
LTYPE
  5
40F
  2
CONTINUOUS
  70
0
  3
Solid line
  72
65
  73
0
  40
0.0
  0
LTYPE
  5
410
  2
DASHDOT
 70
0
  3
Dash Dot ____ _ ____ _
 72
65
 73
4
 40
2.0
 49
1.25
 49
-0.25
 49
0.25
 49
-0.25
  0
LTYPE
  5
411
  2
DASHED
 70
0
  3
Dashed __ __ __ __ __
 72
65
 73
2
 40
0.75
 49
0.5
 49
-0.25
  0
LTYPE
  5
43B
  2
DOTTED
 70
0
  3
Dotted .  .  .  .
 72
65
 73
2
 40
0.2
 49
0.0
 49
-0.2
  0
ENDTAB
  0
TABLE
  2
STYLE
  70
4
  0
STYLE
  2
KICAD
  70
0
  40
0
  41
1
  42
1
  50
0
  71
0
  3
isocp.shx
  0
STYLE
  2
KICADB
  70
0
  40
0
  41
1
  42
1
  50
0
  71
0
  3
isocp.shx
  0
STYLE
  2
KICADI
  70
0
  40
0
  41
1
  42
1
  50
15
  71
0
  3
isocp.shx
  0
STYLE
  2
KICADBI
  70
0
  40
0
  41
1
  42
1
  50
15
  71
0
  3
isocp.shx
  0
ENDTAB
  0
TABLE
  2
LAYER
  70
1
  0
LAYER
  2
BLACK
  70
0
  62
7
  6
CONTINUOUS
  0
ENDTAB
  0
ENDSEC
  0
SECTION
  2
ENTITIES
0
LINE
8
BLACK
6
CONTINUOUS
10
169.551
20
-143.016
11
169.554
21
-143.016
0
LINE
8
BLACK
6
CONTINUOUS
10
169.554
20
-143.016
11
169.557
21
-143.017
0
LINE
8
BLACK
6
CONTINUOUS
10
169.557
20
-143.017
11
169.567
21
-143.019
0
LINE
8
BLACK
6
CONTINUOUS
10
169.567
20
-143.019
11
169.582
21
-143.031
0
LINE
8
BLACK
6
CONTINUOUS
10
169.582
20
-143.031
11
169.598
21
-143.041
0
LINE
8
BLACK
6
CONTINUOUS
10
169.598
20
-143.041
11
169.601
21
-143.048
0
LINE
8
BLACK
6
CONTINUOUS
10
169.601
20
-143.048
11
169.606
21
-143.052
0
LINE
8
BLACK
6
CONTINUOUS
10
169.606
20
-143.052
11
169.609
21
-143.071
0
LINE
8
BLACK
6
CONTINUOUS
10
169.609
20
-143.071
11
169.616
21
-143.089
0
LINE
8
BLACK
6
CONTINUOUS
10
169.616
20
-143.089
11
169.616
21
-162.089
0
LINE
8
BLACK
6
CONTINUOUS
10
169.616
20
-162.089
11
169.614
21
-162.099
0
LINE
8
BLACK
6
CONTINUOUS
10
169.614
20
-162.099
11
169.615
21
-162.102
0
LINE
8
BLACK
6
CONTINUOUS
10
169.615
20
-162.102
11
169.613
21
-162.105
0
LINE
8
BLACK
6
CONTINUOUS
10
169.613
20
-162.105
11
169.611
21
-162.115
0
LINE
8
BLACK
6
CONTINUOUS
10
169.611
20
-162.115
11
169.599
21
-162.13
0
LINE
8
BLACK
6
CONTINUOUS
10
169.599
20
-162.13
11
169.589
21
-162.147
0
LINE
8
BLACK
6
CONTINUOUS
10
169.589
20
-162.147
11
169.583
21
-162.149
0
LINE
8
BLACK
6
CONTINUOUS
10
169.583
20
-162.149
11
169.578
21
-162.154
0
LINE
8
BLACK
6
CONTINUOUS
10
169.578
20
-162.154
11
169.559
21
-162.158
0
LINE
8
BLACK
6
CONTINUOUS
10
169.559
20
-162.158
11
169.541
21
-162.164
0
LINE
8
BLACK
6
CONTINUOUS
10
169.541
20
-162.164
11
150.541
21
-162.164
0
LINE
8
BLACK
6
CONTINUOUS
10
150.541
20
-162.164
11
150.531
21
-162.163
0
LINE
8
BLACK
6
CONTINUOUS
10
150.531
20
-162.163
11
150.528
21
-162.163
0
LINE
8
BLACK
6
CONTINUOUS
10
150.528
20
-162.163
11
150.525
21
-162.162
0
LINE
8
BLACK
6
CONTINUOUS
10
150.525
20
-162.162
11
150.515
21
-162.16
0
LINE
8
BLACK
6
CONTINUOUS
10
150.515
20
-162.16
11
150.5
21
-162.147
0
LINE
8
BLACK
6
CONTINUOUS
10
150.5
20
-162.147
11
150.483
21
-162.138
0
LINE
8
BLACK
6
CONTINUOUS
10
150.483
20
-162.138
11
150.481
21
-162.131
0
LINE
8
BLACK
6
CONTINUOUS
10
150.481
20
-162.131
11
150.476
21
-162.127
0
LINE
8
BLACK
6
CONTINUOUS
10
150.476
20
-162.127
11
150.473
21
-162.108
0
LINE
8
BLACK
6
CONTINUOUS
10
150.473
20
-162.108
11
150.466
21
-162.089
0
LINE
8
BLACK
6
CONTINUOUS
10
150.466
20
-162.089
11
150.466
21
-143.089
0
LINE
8
BLACK
6
CONTINUOUS
10
150.466
20
-143.089
11
150.468
21
-143.08
0
LINE
8
BLACK
6
CONTINUOUS
10
150.468
20
-143.08
11
150.467
21
-143.076
0
LINE
8
BLACK
6
CONTINUOUS
10
150.467
20
-143.076
11
150.469
21
-143.073
0
LINE
8
BLACK
6
CONTINUOUS
10
150.469
20
-143.073
11
150.47
21
-143.064
0
LINE
8
BLACK
6
CONTINUOUS
10
150.47
20
-143.064
11
150.483
21
-143.049
0
LINE
8
BLACK
6
CONTINUOUS
10
150.483
20
-143.049
11
150.493
21
-143.032
0
LINE
8
BLACK
6
CONTINUOUS
10
150.493
20
-143.032
11
150.499
21
-143.03
0
LINE
8
BLACK
6
CONTINUOUS
10
150.499
20
-143.03
11
150.503
21
-143.024
0
LINE
8
BLACK
6
CONTINUOUS
10
150.503
20
-143.024
11
150.523
21
-143.021
0
LINE
8
BLACK
6
CONTINUOUS
10
150.523
20
-143.021
11
150.541
21
-143.014
0
LINE
8
BLACK
6
CONTINUOUS
10
150.541
20
-143.014
11
169.541
21
-143.014
0
LINE
8
BLACK
6
CONTINUOUS
10
169.541
20
-143.014
11
169.551
21
-143.016
0
LINE
8
BLACK
6
CONTINUOUS
10
150.616
20
-143.164
11
150.616
21
-162.014
0
LINE
8
BLACK
6
CONTINUOUS
10
150.616
20
-162.014
11
169.466
21
-162.014
0
LINE
8
BLACK
6
CONTINUOUS
10
169.466
20
-162.014
11
169.466
21
-143.164
0
LINE
8
BLACK
6
CONTINUOUS
10
169.466
20
-143.164
11
150.616
21
-143.164
0
LINE
8
BLACK
6
CONTINUOUS
10
150.225
20
-143.013
11
150.228
21
-143.012
0
LINE
8
BLACK
6
CONTINUOUS
10
150.228
20
-143.012
11
150.231
21
-143.014
0
LINE
8
BLACK
6
CONTINUOUS
10
150.231
20
-143.014
11
150.241
21
-143.016
0
LINE
8
BLACK
6
CONTINUOUS
10
150.241
20
-143.016
11
150.256
21
-143.028
0
LINE
8
BLACK
6
CONTINUOUS
10
150.256
20
-143.028
11
150.273
21
-143.038
0
LINE
8
BLACK
6
CONTINUOUS
10
150.273
20
-143.038
11
150.275
21
-143.044
0
LINE
8
BLACK
6
CONTINUOUS
10
150.275
20
-143.044
11
150.28
21
-143.049
0
LINE
8
BLACK
6
CONTINUOUS
10
150.28
20
-143.049
11
150.284
21
-143.068
0
LINE
8
BLACK
6
CONTINUOUS
10
150.284
20
-143.068
11
150.29
21
-143.086
0
LINE
8
BLACK
6
CONTINUOUS
10
150.29
20
-143.086
11
150.29
21
-162.086
0
LINE
8
BLACK
6
CONTINUOUS
10
150.29
20
-162.086
11
150.289
21
-162.096
0
LINE
8
BLACK
6
CONTINUOUS
10
150.289
20
-162.096
11
150.289
21
-162.099
0
LINE
8
BLACK
6
CONTINUOUS
10
150.289
20
-162.099
11
150.288
21
-162.102
0
LINE
8
BLACK
6
CONTINUOUS
10
150.288
20
-162.102
11
150.286
21
-162.112
0
LINE
8
BLACK
6
CONTINUOUS
10
150.286
20
-162.112
11
150.273
21
-162.127
0
LINE
8
BLACK
6
CONTINUOUS
10
150.273
20
-162.127
11
150.264
21
-162.144
0
LINE
8
BLACK
6
CONTINUOUS
10
150.264
20
-162.144
11
150.257
21
-162.146
0
LINE
8
BLACK
6
CONTINUOUS
10
150.257
20
-162.146
11
150.253
21
-162.151
0
LINE
8
BLACK
6
CONTINUOUS
10
150.253
20
-162.151
11
150.234
21
-162.154
0
LINE
8
BLACK
6
CONTINUOUS
10
150.234
20
-162.154
11
150.215
21
-162.161
0
LINE
8
BLACK
6
CONTINUOUS
10
150.215
20
-162.161
11
131.215
21
-162.161
0
LINE
8
BLACK
6
CONTINUOUS
10
131.215
20
-162.161
11
131.206
21
-162.159
0
LINE
8
BLACK
6
CONTINUOUS
10
131.206
20
-162.159
11
131.202
21
-162.16
0
LINE
8
BLACK
6
CONTINUOUS
10
131.202
20
-162.16
11
131.199
21
-162.158
0
LINE
8
BLACK
6
CONTINUOUS
10
131.199
20
-162.158
11
131.19
21
-162.157
0
LINE
8
BLACK
6
CONTINUOUS
10
131.19
20
-162.157
11
131.175
21
-162.144
0
LINE
8
BLACK
6
CONTINUOUS
10
131.175
20
-162.144
11
131.158
21
-162.134
0
LINE
8
BLACK
6
CONTINUOUS
10
131.158
20
-162.134
11
131.156
21
-162.128
0
LINE
8
BLACK
6
CONTINUOUS
10
131.156
20
-162.128
11
131.15
21
-162.124
0
LINE
8
BLACK
6
CONTINUOUS
10
131.15
20
-162.124
11
131.147
21
-162.104
0
LINE
8
BLACK
6
CONTINUOUS
10
131.147
20
-162.104
11
131.14
21
-162.086
0
LINE
8
BLACK
6
CONTINUOUS
10
131.14
20
-162.086
11
131.14
21
-143.086
0
LINE
8
BLACK
6
CONTINUOUS
10
131.14
20
-143.086
11
131.142
21
-143.076
0
LINE
8
BLACK
6
CONTINUOUS
10
131.142
20
-143.076
11
131.141
21
-143.073
0
LINE
8
BLACK
6
CONTINUOUS
10
131.141
20
-143.073
11
131.143
21
-143.07
0
LINE
8
BLACK
6
CONTINUOUS
10
131.143
20
-143.07
11
131.145
21
-143.06
0
LINE
8
BLACK
6
CONTINUOUS
10
131.145
20
-143.06
11
131.157
21
-143.045
0
LINE
8
BLACK
6
CONTINUOUS
10
131.157
20
-143.045
11
131.167
21
-143.029
0
LINE
8
BLACK
6
CONTINUOUS
10
131.167
20
-143.029
11
131.173
21
-143.026
0
LINE
8
BLACK
6
CONTINUOUS
10
131.173
20
-143.026
11
131.178
21
-143.021
0
LINE
8
BLACK
6
CONTINUOUS
10
131.178
20
-143.021
11
131.197
21
-143.018
0
LINE
8
BLACK
6
CONTINUOUS
10
131.197
20
-143.018
11
131.215
21
-143.011
0
LINE
8
BLACK
6
CONTINUOUS
10
131.215
20
-143.011
11
150.215
21
-143.011
0
LINE
8
BLACK
6
CONTINUOUS
10
150.215
20
-143.011
11
150.225
21
-143.013
0
LINE
8
BLACK
6
CONTINUOUS
10
131.29
20
-143.161
11
131.29
21
-162.011
0
LINE
8
BLACK
6
CONTINUOUS
10
131.29
20
-162.011
11
150.14
21
-162.011
0
LINE
8
BLACK
6
CONTINUOUS
10
150.14
20
-162.011
11
150.14
21
-143.161
0
LINE
8
BLACK
6
CONTINUOUS
10
150.14
20
-143.161
11
131.29
21
-143.161
0
LINE
8
BLACK
6
CONTINUOUS
10
188.855
20
-141.238
11
188.858
21
-141.238
0
LINE
8
BLACK
6
CONTINUOUS
10
188.858
20
-141.238
11
188.861
21
-141.239
0
LINE
8
BLACK
6
CONTINUOUS
10
188.861
20
-141.239
11
188.871
21
-141.241
0
LINE
8
BLACK
6
CONTINUOUS
10
188.871
20
-141.241
11
188.886
21
-141.253
0
LINE
8
BLACK
6
CONTINUOUS
10
188.886
20
-141.253
11
188.902
21
-141.263
0
LINE
8
BLACK
6
CONTINUOUS
10
188.902
20
-141.263
11
188.905
21
-141.27
0
LINE
8
BLACK
6
CONTINUOUS
10
188.905
20
-141.27
11
188.91
21
-141.274
0
LINE
8
BLACK
6
CONTINUOUS
10
188.91
20
-141.274
11
188.913
21
-141.293
0
LINE
8
BLACK
6
CONTINUOUS
10
188.913
20
-141.293
11
188.92
21
-141.311
0
LINE
8
BLACK
6
CONTINUOUS
10
188.92
20
-141.311
11
188.92
21
-160.311
0
LINE
8
BLACK
6
CONTINUOUS
10
188.92
20
-160.311
11
188.918
21
-160.321
0
LINE
8
BLACK
6
CONTINUOUS
10
188.918
20
-160.321
11
188.919
21
-160.324
0
LINE
8
BLACK
6
CONTINUOUS
10
188.919
20
-160.324
11
188.917
21
-160.327
0
LINE
8
BLACK
6
CONTINUOUS
10
188.917
20
-160.327
11
188.915
21
-160.337
0
LINE
8
BLACK
6
CONTINUOUS
10
188.915
20
-160.337
11
188.903
21
-160.352
0
LINE
8
BLACK
6
CONTINUOUS
10
188.903
20
-160.352
11
188.893
21
-160.369
0
LINE
8
BLACK
6
CONTINUOUS
10
188.893
20
-160.369
11
188.887
21
-160.371
0
LINE
8
BLACK
6
CONTINUOUS
10
188.887
20
-160.371
11
188.882
21
-160.376
0
LINE
8
BLACK
6
CONTINUOUS
10
188.882
20
-160.376
11
188.863
21
-160.38
0
LINE
8
BLACK
6
CONTINUOUS
10
188.863
20
-160.38
11
188.845
21
-160.386
0
LINE
8
BLACK
6
CONTINUOUS
10
188.845
20
-160.386
11
169.845
21
-160.386
0
LINE
8
BLACK
6
CONTINUOUS
10
169.845
20
-160.386
11
169.835
21
-160.385
0
LINE
8
BLACK
6
CONTINUOUS
10
169.835
20
-160.385
11
169.832
21
-160.385
0
LINE
8
BLACK
6
CONTINUOUS
10
169.832
20
-160.385
11
169.829
21
-160.384
0
LINE
8
BLACK
6
CONTINUOUS
10
169.829
20
-160.384
11
169.819
21
-160.382
0
LINE
8
BLACK
6
CONTINUOUS
10
169.819
20
-160.382
11
169.804
21
-160.369
0
LINE
8
BLACK
6
CONTINUOUS
10
169.804
20
-160.369
11
169.787
21
-160.36
0
LINE
8
BLACK
6
CONTINUOUS
10
169.787
20
-160.36
11
169.785
21
-160.353
0
LINE
8
BLACK
6
CONTINUOUS
10
169.785
20
-160.353
11
169.78
21
-160.349
0
LINE
8
BLACK
6
CONTINUOUS
10
169.78
20
-160.349
11
169.777
21
-160.33
0
LINE
8
BLACK
6
CONTINUOUS
10
169.777
20
-160.33
11
169.77
21
-160.311
0
LINE
8
BLACK
6
CONTINUOUS
10
169.77
20
-160.311
11
169.77
21
-141.311
0
LINE
8
BLACK
6
CONTINUOUS
10
169.77
20
-141.311
11
169.772
21
-141.302
0
LINE
8
BLACK
6
CONTINUOUS
10
169.772
20
-141.302
11
169.771
21
-141.298
0
LINE
8
BLACK
6
CONTINUOUS
10
169.771
20
-141.298
11
169.773
21
-141.295
0
LINE
8
BLACK
6
CONTINUOUS
10
169.773
20
-141.295
11
169.774
21
-141.286
0
LINE
8
BLACK
6
CONTINUOUS
10
169.774
20
-141.286
11
169.787
21
-141.271
0
LINE
8
BLACK
6
CONTINUOUS
10
169.787
20
-141.271
11
169.797
21
-141.254
0
LINE
8
BLACK
6
CONTINUOUS
10
169.797
20
-141.254
11
169.803
21
-141.252
0
LINE
8
BLACK
6
CONTINUOUS
10
169.803
20
-141.252
11
169.807
21
-141.246
0
LINE
8
BLACK
6
CONTINUOUS
10
169.807
20
-141.246
11
169.827
21
-141.243
0
LINE
8
BLACK
6
CONTINUOUS
10
169.827
20
-141.243
11
169.845
21
-141.236
0
LINE
8
BLACK
6
CONTINUOUS
10
169.845
20
-141.236
11
188.845
21
-141.236
0
LINE
8
BLACK
6
CONTINUOUS
10
188.845
20
-141.236
11
188.855
21
-141.238
0
LINE
8
BLACK
6
CONTINUOUS
10
169.92
20
-141.386
11
169.92
21
-160.236
0
LINE
8
BLACK
6
CONTINUOUS
10
169.92
20
-160.236
11
188.77
21
-160.236
0
LINE
8
BLACK
6
CONTINUOUS
10
188.77
20
-160.236
11
188.77
21
-141.386
0
LINE
8
BLACK
6
CONTINUOUS
10
188.77
20
-141.386
11
169.92
21
-141.386
0
LINE
8
BLACK
6
CONTINUOUS
10
130.945
20
-140.896
11
130.948
21
-140.896
0
LINE
8
BLACK
6
CONTINUOUS
10
130.948
20
-140.896
11
130.951
21
-140.897
0
LINE
8
BLACK
6
CONTINUOUS
10
130.951
20
-140.897
11
130.961
21
-140.899
0
LINE
8
BLACK
6
CONTINUOUS
10
130.961
20
-140.899
11
130.976
21
-140.911
0
LINE
8
BLACK
6
CONTINUOUS
10
130.976
20
-140.911
11
130.993
21
-140.921
0
LINE
8
BLACK
6
CONTINUOUS
10
130.993
20
-140.921
11
130.995
21
-140.928
0
LINE
8
BLACK
6
CONTINUOUS
10
130.995
20
-140.928
11
131
21
-140.932
0
LINE
8
BLACK
6
CONTINUOUS
10
131
20
-140.932
11
131.004
21
-140.951
0
LINE
8
BLACK
6
CONTINUOUS
10
131.004
20
-140.951
11
131.01
21
-140.969
0
LINE
8
BLACK
6
CONTINUOUS
10
131.01
20
-140.969
11
131.01
21
-159.969
0
LINE
8
BLACK
6
CONTINUOUS
10
131.01
20
-159.969
11
131.009
21
-159.979
0
LINE
8
BLACK
6
CONTINUOUS
10
131.009
20
-159.979
11
131.009
21
-159.982
0
LINE
8
BLACK
6
CONTINUOUS
10
131.009
20
-159.982
11
131.008
21
-159.985
0
LINE
8
BLACK
6
CONTINUOUS
10
131.008
20
-159.985
11
131.006
21
-159.995
0
LINE
8
BLACK
6
CONTINUOUS
10
131.006
20
-159.995
11
130.993
21
-160.01
0
LINE
8
BLACK
6
CONTINUOUS
10
130.993
20
-160.01
11
130.984
21
-160.027
0
LINE
8
BLACK
6
CONTINUOUS
10
130.984
20
-160.027
11
130.977
21
-160.029
0
LINE
8
BLACK
6
CONTINUOUS
10
130.977
20
-160.029
11
130.973
21
-160.034
0
LINE
8
BLACK
6
CONTINUOUS
10
130.973
20
-160.034
11
130.954
21
-160.038
0
LINE
8
BLACK
6
CONTINUOUS
10
130.954
20
-160.038
11
130.935
21
-160.044
0
LINE
8
BLACK
6
CONTINUOUS
10
130.935
20
-160.044
11
111.935
21
-160.044
0
LINE
8
BLACK
6
CONTINUOUS
10
111.935
20
-160.044
11
111.926
21
-160.043
0
LINE
8
BLACK
6
CONTINUOUS
10
111.926
20
-160.043
11
111.922
21
-160.043
0
LINE
8
BLACK
6
CONTINUOUS
10
111.922
20
-160.043
11
111.919
21
-160.042
0
LINE
8
BLACK
6
CONTINUOUS
10
111.919
20
-160.042
11
111.91
21
-160.04
0
LINE
8
BLACK
6
CONTINUOUS
10
111.91
20
-160.04
11
111.895
21
-160.027
0
LINE
8
BLACK
6
CONTINUOUS
10
111.895
20
-160.027
11
111.878
21
-160.018
0
LINE
8
BLACK
6
CONTINUOUS
10
111.878
20
-160.018
11
111.876
21
-160.011
0
LINE
8
BLACK
6
CONTINUOUS
10
111.876
20
-160.011
11
111.87
21
-160.007
0
LINE
8
BLACK
6
CONTINUOUS
10
111.87
20
-160.007
11
111.867
21
-159.988
0
LINE
8
BLACK
6
CONTINUOUS
10
111.867
20
-159.988
11
111.86
21
-159.969
0
LINE
8
BLACK
6
CONTINUOUS
10
111.86
20
-159.969
11
111.86
21
-140.969
0
LINE
8
BLACK
6
CONTINUOUS
10
111.86
20
-140.969
11
111.862
21
-140.96
0
LINE
8
BLACK
6
CONTINUOUS
10
111.862
20
-140.96
11
111.861
21
-140.956
0
LINE
8
BLACK
6
CONTINUOUS
10
111.861
20
-140.956
11
111.863
21
-140.953
0
LINE
8
BLACK
6
CONTINUOUS
10
111.863
20
-140.953
11
111.865
21
-140.944
0
LINE
8
BLACK
6
CONTINUOUS
10
111.865
20
-140.944
11
111.877
21
-140.929
0
LINE
8
BLACK
6
CONTINUOUS
10
111.877
20
-140.929
11
111.887
21
-140.912
0
LINE
8
BLACK
6
CONTINUOUS
10
111.887
20
-140.912
11
111.893
21
-140.91
0
LINE
8
BLACK
6
CONTINUOUS
10
111.893
20
-140.91
11
111.898
21
-140.904
0
LINE
8
BLACK
6
CONTINUOUS
10
111.898
20
-140.904
11
111.917
21
-140.901
0
LINE
8
BLACK
6
CONTINUOUS
10
111.917
20
-140.901
11
111.935
21
-140.894
0
LINE
8
BLACK
6
CONTINUOUS
10
111.935
20
-140.894
11
130.935
21
-140.894
0
LINE
8
BLACK
6
CONTINUOUS
10
130.935
20
-140.894
11
130.945
21
-140.896
0
LINE
8
BLACK
6
CONTINUOUS
10
112.01
20
-141.044
11
112.01
21
-159.894
0
LINE
8
BLACK
6
CONTINUOUS
10
112.01
20
-159.894
11
130.86
21
-159.894
0
LINE
8
BLACK
6
CONTINUOUS
10
130.86
20
-159.894
11
130.86
21
-141.044
0
LINE
8
BLACK
6
CONTINUOUS
10
130.86
20
-141.044
11
112.01
21
-141.044
0
LINE
8
BLACK
6
CONTINUOUS
10
90.5683
20
-114.959
11
90.5876
21
-114.961
0
LINE
8
BLACK
6
CONTINUOUS
10
90.5876
20
-114.961
11
107.517
21
-123.587
0
LINE
8
BLACK
6
CONTINUOUS
10
107.517
20
-123.587
11
107.525
21
-123.593
0
LINE
8
BLACK
6
CONTINUOUS
10
107.525
20
-123.593
11
107.528
21
-123.594
0
LINE
8
BLACK
6
CONTINUOUS
10
107.528
20
-123.594
11
107.53
21
-123.597
0
LINE
8
BLACK
6
CONTINUOUS
10
107.53
20
-123.597
11
107.538
21
-123.602
0
LINE
8
BLACK
6
CONTINUOUS
10
107.538
20
-123.602
11
107.545
21
-123.62
0
LINE
8
BLACK
6
CONTINUOUS
10
107.545
20
-123.62
11
107.556
21
-123.637
0
LINE
8
BLACK
6
CONTINUOUS
10
107.556
20
-123.637
11
107.555
21
-123.643
0
LINE
8
BLACK
6
CONTINUOUS
10
107.555
20
-123.643
11
107.558
21
-123.65
0
LINE
8
BLACK
6
CONTINUOUS
10
107.558
20
-123.65
11
107.552
21
-123.668
0
LINE
8
BLACK
6
CONTINUOUS
10
107.552
20
-123.668
11
107.55
21
-123.688
0
LINE
8
BLACK
6
CONTINUOUS
10
107.55
20
-123.688
11
98.9237
21
-140.617
0
LINE
8
BLACK
6
CONTINUOUS
10
98.9237
20
-140.617
11
98.9178
21
-140.625
0
LINE
8
BLACK
6
CONTINUOUS
10
98.9178
20
-140.625
11
98.9168
21
-140.628
0
LINE
8
BLACK
6
CONTINUOUS
10
98.9168
20
-140.628
11
98.914
21
-140.63
0
LINE
8
BLACK
6
CONTINUOUS
10
98.914
20
-140.63
11
98.9081
21
-140.638
0
LINE
8
BLACK
6
CONTINUOUS
10
98.9081
20
-140.638
11
98.8901
21
-140.645
0
LINE
8
BLACK
6
CONTINUOUS
10
98.8901
20
-140.645
11
98.8738
21
-140.656
0
LINE
8
BLACK
6
CONTINUOUS
10
98.8738
20
-140.656
11
98.8671
21
-140.655
0
LINE
8
BLACK
6
CONTINUOUS
10
98.8671
20
-140.655
11
98.8608
21
-140.658
0
LINE
8
BLACK
6
CONTINUOUS
10
98.8608
20
-140.658
11
98.8422
21
-140.652
0
LINE
8
BLACK
6
CONTINUOUS
10
98.8422
20
-140.652
11
98.8229
21
-140.65
0
LINE
8
BLACK
6
CONTINUOUS
10
98.8229
20
-140.65
11
81.8937
21
-132.024
0
LINE
8
BLACK
6
CONTINUOUS
10
81.8937
20
-132.024
11
81.8858
21
-132.018
0
LINE
8
BLACK
6
CONTINUOUS
10
81.8858
20
-132.018
11
81.8826
21
-132.017
0
LINE
8
BLACK
6
CONTINUOUS
10
81.8826
20
-132.017
11
81.8808
21
-132.014
0
LINE
8
BLACK
6
CONTINUOUS
10
81.8808
20
-132.014
11
81.8729
21
-132.008
0
LINE
8
BLACK
6
CONTINUOUS
10
81.8729
20
-132.008
11
81.8653
21
-131.99
0
LINE
8
BLACK
6
CONTINUOUS
10
81.8653
20
-131.99
11
81.8547
21
-131.974
0
LINE
8
BLACK
6
CONTINUOUS
10
81.8547
20
-131.974
11
81.8555
21
-131.967
0
LINE
8
BLACK
6
CONTINUOUS
10
81.8555
20
-131.967
11
81.8529
21
-131.961
0
LINE
8
BLACK
6
CONTINUOUS
10
81.8529
20
-131.961
11
81.8586
21
-131.942
0
LINE
8
BLACK
6
CONTINUOUS
10
81.8586
20
-131.942
11
81.861
21
-131.923
0
LINE
8
BLACK
6
CONTINUOUS
10
81.861
20
-131.923
11
90.4868
21
-114.994
0
LINE
8
BLACK
6
CONTINUOUS
10
90.4868
20
-114.994
11
90.4927
21
-114.986
0
LINE
8
BLACK
6
CONTINUOUS
10
90.4927
20
-114.986
11
90.4937
21
-114.983
0
LINE
8
BLACK
6
CONTINUOUS
10
90.4937
20
-114.983
11
90.4965
21
-114.981
0
LINE
8
BLACK
6
CONTINUOUS
10
90.4965
20
-114.981
11
90.5024
21
-114.973
0
LINE
8
BLACK
6
CONTINUOUS
10
90.5024
20
-114.973
11
90.5204
21
-114.965
0
LINE
8
BLACK
6
CONTINUOUS
10
90.5204
20
-114.965
11
90.5367
21
-114.955
0
LINE
8
BLACK
6
CONTINUOUS
10
90.5367
20
-114.955
11
90.5434
21
-114.956
0
LINE
8
BLACK
6
CONTINUOUS
10
90.5434
20
-114.956
11
90.5497
21
-114.953
0
LINE
8
BLACK
6
CONTINUOUS
10
90.5497
20
-114.953
11
90.5683
21
-114.959
0
LINE
8
BLACK
6
CONTINUOUS
10
82.0287
20
-131.924
11
98.8241
21
-140.482
0
LINE
8
BLACK
6
CONTINUOUS
10
98.8241
20
-140.482
11
107.382
21
-123.686
0
LINE
8
BLACK
6
CONTINUOUS
10
107.382
20
-123.686
11
90.5864
21
-115.129
0
LINE
8
BLACK
6
CONTINUOUS
10
90.5864
20
-115.129
11
82.0287
21
-131.924
0
LINE
8
BLACK
6
CONTINUOUS
10
209.242
20
-114.884
11
209.262
21
-114.885
0
LINE
8
BLACK
6
CONTINUOUS
10
209.262
20
-114.885
11
209.267
21
-114.89
0
LINE
8
BLACK
6
CONTINUOUS
10
209.267
20
-114.89
11
209.273
21
-114.891
0
LINE
8
BLACK
6
CONTINUOUS
10
209.273
20
-114.891
11
209.285
21
-114.907
0
LINE
8
BLACK
6
CONTINUOUS
10
209.285
20
-114.907
11
209.299
21
-114.92
0
LINE
8
BLACK
6
CONTINUOUS
10
209.299
20
-114.92
11
217.925
21
-131.849
0
LINE
8
BLACK
6
CONTINUOUS
10
217.925
20
-131.849
11
217.928
21
-131.858
0
LINE
8
BLACK
6
CONTINUOUS
10
217.928
20
-131.858
11
217.93
21
-131.861
0
LINE
8
BLACK
6
CONTINUOUS
10
217.93
20
-131.861
11
217.93
21
-131.864
0
LINE
8
BLACK
6
CONTINUOUS
10
217.93
20
-131.864
11
217.933
21
-131.874
0
LINE
8
BLACK
6
CONTINUOUS
10
217.933
20
-131.874
11
217.928
21
-131.893
0
LINE
8
BLACK
6
CONTINUOUS
10
217.928
20
-131.893
11
217.927
21
-131.912
0
LINE
8
BLACK
6
CONTINUOUS
10
217.927
20
-131.912
11
217.923
21
-131.917
0
LINE
8
BLACK
6
CONTINUOUS
10
217.923
20
-131.917
11
217.921
21
-131.924
0
LINE
8
BLACK
6
CONTINUOUS
10
217.921
20
-131.924
11
217.906
21
-131.936
0
LINE
8
BLACK
6
CONTINUOUS
10
217.906
20
-131.936
11
217.892
21
-131.95
0
LINE
8
BLACK
6
CONTINUOUS
10
217.892
20
-131.95
11
200.963
21
-140.576
0
LINE
8
BLACK
6
CONTINUOUS
10
200.963
20
-140.576
11
200.954
21
-140.579
0
LINE
8
BLACK
6
CONTINUOUS
10
200.954
20
-140.579
11
200.951
21
-140.581
0
LINE
8
BLACK
6
CONTINUOUS
10
200.951
20
-140.581
11
200.948
21
-140.58
0
LINE
8
BLACK
6
CONTINUOUS
10
200.948
20
-140.58
11
200.938
21
-140.583
0
LINE
8
BLACK
6
CONTINUOUS
10
200.938
20
-140.583
11
200.919
21
-140.579
0
LINE
8
BLACK
6
CONTINUOUS
10
200.919
20
-140.579
11
200.9
21
-140.578
0
LINE
8
BLACK
6
CONTINUOUS
10
200.9
20
-140.578
11
200.895
21
-140.573
0
LINE
8
BLACK
6
CONTINUOUS
10
200.895
20
-140.573
11
200.888
21
-140.572
0
LINE
8
BLACK
6
CONTINUOUS
10
200.888
20
-140.572
11
200.876
21
-140.556
0
LINE
8
BLACK
6
CONTINUOUS
10
200.876
20
-140.556
11
200.862
21
-140.543
0
LINE
8
BLACK
6
CONTINUOUS
10
200.862
20
-140.543
11
192.236
21
-123.614
0
LINE
8
BLACK
6
CONTINUOUS
10
192.236
20
-123.614
11
192.234
21
-123.604
0
LINE
8
BLACK
6
CONTINUOUS
10
192.234
20
-123.604
11
192.231
21
-123.602
0
LINE
8
BLACK
6
CONTINUOUS
10
192.231
20
-123.602
11
192.232
21
-123.598
0
LINE
8
BLACK
6
CONTINUOUS
10
192.232
20
-123.598
11
192.229
21
-123.589
0
LINE
8
BLACK
6
CONTINUOUS
10
192.229
20
-123.589
11
192.233
21
-123.57
0
LINE
8
BLACK
6
CONTINUOUS
10
192.233
20
-123.57
11
192.234
21
-123.55
0
LINE
8
BLACK
6
CONTINUOUS
10
192.234
20
-123.55
11
192.239
21
-123.546
0
LINE
8
BLACK
6
CONTINUOUS
10
192.239
20
-123.546
11
192.24
21
-123.539
0
LINE
8
BLACK
6
CONTINUOUS
10
192.24
20
-123.539
11
192.256
21
-123.527
0
LINE
8
BLACK
6
CONTINUOUS
10
192.256
20
-123.527
11
192.269
21
-123.513
0
LINE
8
BLACK
6
CONTINUOUS
10
192.269
20
-123.513
11
209.198
21
-114.887
0
LINE
8
BLACK
6
CONTINUOUS
10
209.198
20
-114.887
11
209.208
21
-114.884
0
LINE
8
BLACK
6
CONTINUOUS
10
209.208
20
-114.884
11
209.21
21
-114.882
0
LINE
8
BLACK
6
CONTINUOUS
10
209.21
20
-114.882
11
209.214
21
-114.882
0
LINE
8
BLACK
6
CONTINUOUS
10
209.214
20
-114.882
11
209.223
21
-114.88
0
LINE
8
BLACK
6
CONTINUOUS
10
209.223
20
-114.88
11
209.242
21
-114.884
0
LINE
8
BLACK
6
CONTINUOUS
10
192.404
20
-123.613
11
200.962
21
-140.408
0
LINE
8
BLACK
6
CONTINUOUS
10
200.962
20
-140.408
11
217.757
21
-131.85
0
LINE
8
BLACK
6
CONTINUOUS
10
217.757
20
-131.85
11
209.2
21
-115.055
0
LINE
8
BLACK
6
CONTINUOUS
10
209.2
20
-115.055
11
192.404
21
-123.613
0
LINE
8
BLACK
6
CONTINUOUS
10
75.2956
20
-102.1
11
75.315
21
-102.103
0
LINE
8
BLACK
6
CONTINUOUS
10
75.315
20
-102.103
11
92.2441
21
-110.729
0
LINE
8
BLACK
6
CONTINUOUS
10
92.2441
20
-110.729
11
92.252
21
-110.735
0
LINE
8
BLACK
6
CONTINUOUS
10
92.252
20
-110.735
11
92.2552
21
-110.736
0
LINE
8
BLACK
6
CONTINUOUS
10
92.2552
20
-110.736
11
92.257
21
-110.738
0
LINE
8
BLACK
6
CONTINUOUS
10
92.257
20
-110.738
11
92.2649
21
-110.744
0
LINE
8
BLACK
6
CONTINUOUS
10
92.2649
20
-110.744
11
92.2725
21
-110.762
0
LINE
8
BLACK
6
CONTINUOUS
10
92.2725
20
-110.762
11
92.2831
21
-110.779
0
LINE
8
BLACK
6
CONTINUOUS
10
92.2831
20
-110.779
11
92.2823
21
-110.785
0
LINE
8
BLACK
6
CONTINUOUS
10
92.2823
20
-110.785
11
92.2849
21
-110.792
0
LINE
8
BLACK
6
CONTINUOUS
10
92.2849
20
-110.792
11
92.2792
21
-110.81
0
LINE
8
BLACK
6
CONTINUOUS
10
92.2792
20
-110.81
11
92.2769
21
-110.83
0
LINE
8
BLACK
6
CONTINUOUS
10
92.2769
20
-110.83
11
83.6511
21
-127.759
0
LINE
8
BLACK
6
CONTINUOUS
10
83.6511
20
-127.759
11
83.6451
21
-127.767
0
LINE
8
BLACK
6
CONTINUOUS
10
83.6451
20
-127.767
11
83.6441
21
-127.77
0
LINE
8
BLACK
6
CONTINUOUS
10
83.6441
20
-127.77
11
83.6413
21
-127.772
0
LINE
8
BLACK
6
CONTINUOUS
10
83.6413
20
-127.772
11
83.6354
21
-127.779
0
LINE
8
BLACK
6
CONTINUOUS
10
83.6354
20
-127.779
11
83.6174
21
-127.787
0
LINE
8
BLACK
6
CONTINUOUS
10
83.6174
20
-127.787
11
83.6011
21
-127.798
0
LINE
8
BLACK
6
CONTINUOUS
10
83.6011
20
-127.798
11
83.5944
21
-127.797
0
LINE
8
BLACK
6
CONTINUOUS
10
83.5944
20
-127.797
11
83.5882
21
-127.8
0
LINE
8
BLACK
6
CONTINUOUS
10
83.5882
20
-127.8
11
83.5695
21
-127.794
0
LINE
8
BLACK
6
CONTINUOUS
10
83.5695
20
-127.794
11
83.5502
21
-127.791
0
LINE
8
BLACK
6
CONTINUOUS
10
83.5502
20
-127.791
11
66.6211
21
-119.166
0
LINE
8
BLACK
6
CONTINUOUS
10
66.6211
20
-119.166
11
66.6132
21
-119.16
0
LINE
8
BLACK
6
CONTINUOUS
10
66.6132
20
-119.16
11
66.61
21
-119.159
0
LINE
8
BLACK
6
CONTINUOUS
10
66.61
20
-119.159
11
66.6082
21
-119.156
0
LINE
8
BLACK
6
CONTINUOUS
10
66.6082
20
-119.156
11
66.6003
21
-119.15
0
LINE
8
BLACK
6
CONTINUOUS
10
66.6003
20
-119.15
11
66.5926
21
-119.132
0
LINE
8
BLACK
6
CONTINUOUS
10
66.5926
20
-119.132
11
66.582
21
-119.116
0
LINE
8
BLACK
6
CONTINUOUS
10
66.582
20
-119.116
11
66.5829
21
-119.109
0
LINE
8
BLACK
6
CONTINUOUS
10
66.5829
20
-119.109
11
66.5802
21
-119.103
0
LINE
8
BLACK
6
CONTINUOUS
10
66.5802
20
-119.103
11
66.5859
21
-119.084
0
LINE
8
BLACK
6
CONTINUOUS
10
66.5859
20
-119.084
11
66.5883
21
-119.065
0
LINE
8
BLACK
6
CONTINUOUS
10
66.5883
20
-119.065
11
75.2141
21
-102.136
0
LINE
8
BLACK
6
CONTINUOUS
10
75.2141
20
-102.136
11
75.2201
21
-102.128
0
LINE
8
BLACK
6
CONTINUOUS
10
75.2201
20
-102.128
11
75.221
21
-102.125
0
LINE
8
BLACK
6
CONTINUOUS
10
75.221
20
-102.125
11
75.2238
21
-102.123
0
LINE
8
BLACK
6
CONTINUOUS
10
75.2238
20
-102.123
11
75.2298
21
-102.115
0
LINE
8
BLACK
6
CONTINUOUS
10
75.2298
20
-102.115
11
75.2477
21
-102.107
0
LINE
8
BLACK
6
CONTINUOUS
10
75.2477
20
-102.107
11
75.2641
21
-102.097
0
LINE
8
BLACK
6
CONTINUOUS
10
75.2641
20
-102.097
11
75.2708
21
-102.097
0
LINE
8
BLACK
6
CONTINUOUS
10
75.2708
20
-102.097
11
75.277
21
-102.095
0
LINE
8
BLACK
6
CONTINUOUS
10
75.277
20
-102.095
11
75.2956
21
-102.1
0
LINE
8
BLACK
6
CONTINUOUS
10
66.756
20
-119.066
11
83.5515
21
-127.624
0
LINE
8
BLACK
6
CONTINUOUS
10
83.5515
20
-127.624
11
92.1092
21
-110.828
0
LINE
8
BLACK
6
CONTINUOUS
10
92.1092
20
-110.828
11
75.3137
21
-102.271
0
LINE
8
BLACK
6
CONTINUOUS
10
75.3137
20
-102.271
11
66.756
21
-119.066
0
LINE
8
BLACK
6
CONTINUOUS
10
224.515
20
-102.026
11
224.534
21
-102.027
0
LINE
8
BLACK
6
CONTINUOUS
10
224.534
20
-102.027
11
224.539
21
-102.031
0
LINE
8
BLACK
6
CONTINUOUS
10
224.539
20
-102.031
11
224.546
21
-102.033
0
LINE
8
BLACK
6
CONTINUOUS
10
224.546
20
-102.033
11
224.558
21
-102.049
0
LINE
8
BLACK
6
CONTINUOUS
10
224.558
20
-102.049
11
224.572
21
-102.062
0
LINE
8
BLACK
6
CONTINUOUS
10
224.572
20
-102.062
11
233.198
21
-118.991
0
LINE
8
BLACK
6
CONTINUOUS
10
233.198
20
-118.991
11
233.201
21
-119
0
LINE
8
BLACK
6
CONTINUOUS
10
233.201
20
-119
11
233.203
21
-119.003
0
LINE
8
BLACK
6
CONTINUOUS
10
233.203
20
-119.003
11
233.202
21
-119.006
0
LINE
8
BLACK
6
CONTINUOUS
10
233.202
20
-119.006
11
233.205
21
-119.016
0
LINE
8
BLACK
6
CONTINUOUS
10
233.205
20
-119.016
11
233.201
21
-119.035
0
LINE
8
BLACK
6
CONTINUOUS
10
233.201
20
-119.035
11
233.2
21
-119.054
0
LINE
8
BLACK
6
CONTINUOUS
10
233.2
20
-119.054
11
233.195
21
-119.059
0
LINE
8
BLACK
6
CONTINUOUS
10
233.195
20
-119.059
11
233.194
21
-119.066
0
LINE
8
BLACK
6
CONTINUOUS
10
233.194
20
-119.066
11
233.178
21
-119.078
0
LINE
8
BLACK
6
CONTINUOUS
10
233.178
20
-119.078
11
233.165
21
-119.092
0
LINE
8
BLACK
6
CONTINUOUS
10
233.165
20
-119.092
11
216.236
21
-127.718
0
LINE
8
BLACK
6
CONTINUOUS
10
216.236
20
-127.718
11
216.226
21
-127.721
0
LINE
8
BLACK
6
CONTINUOUS
10
216.226
20
-127.721
11
216.224
21
-127.723
0
LINE
8
BLACK
6
CONTINUOUS
10
216.224
20
-127.723
11
216.22
21
-127.722
0
LINE
8
BLACK
6
CONTINUOUS
10
216.22
20
-127.722
11
216.211
21
-127.725
0
LINE
8
BLACK
6
CONTINUOUS
10
216.211
20
-127.725
11
216.192
21
-127.721
0
LINE
8
BLACK
6
CONTINUOUS
10
216.192
20
-127.721
11
216.172
21
-127.72
0
LINE
8
BLACK
6
CONTINUOUS
10
216.172
20
-127.72
11
216.167
21
-127.715
0
LINE
8
BLACK
6
CONTINUOUS
10
216.167
20
-127.715
11
216.161
21
-127.714
0
LINE
8
BLACK
6
CONTINUOUS
10
216.161
20
-127.714
11
216.149
21
-127.698
0
LINE
8
BLACK
6
CONTINUOUS
10
216.149
20
-127.698
11
216.135
21
-127.685
0
LINE
8
BLACK
6
CONTINUOUS
10
216.135
20
-127.685
11
207.509
21
-110.756
0
LINE
8
BLACK
6
CONTINUOUS
10
207.509
20
-110.756
11
207.506
21
-110.746
0
LINE
8
BLACK
6
CONTINUOUS
10
207.506
20
-110.746
11
207.504
21
-110.744
0
LINE
8
BLACK
6
CONTINUOUS
10
207.504
20
-110.744
11
207.504
21
-110.74
0
LINE
8
BLACK
6
CONTINUOUS
10
207.504
20
-110.74
11
207.501
21
-110.731
0
LINE
8
BLACK
6
CONTINUOUS
10
207.501
20
-110.731
11
207.506
21
-110.712
0
LINE
8
BLACK
6
CONTINUOUS
10
207.506
20
-110.712
11
207.507
21
-110.692
0
LINE
8
BLACK
6
CONTINUOUS
10
207.507
20
-110.692
11
207.511
21
-110.687
0
LINE
8
BLACK
6
CONTINUOUS
10
207.511
20
-110.687
11
207.513
21
-110.681
0
LINE
8
BLACK
6
CONTINUOUS
10
207.513
20
-110.681
11
207.529
21
-110.669
0
LINE
8
BLACK
6
CONTINUOUS
10
207.529
20
-110.669
11
207.542
21
-110.655
0
LINE
8
BLACK
6
CONTINUOUS
10
207.542
20
-110.655
11
224.471
21
-102.029
0
LINE
8
BLACK
6
CONTINUOUS
10
224.471
20
-102.029
11
224.48
21
-102.026
0
LINE
8
BLACK
6
CONTINUOUS
10
224.48
20
-102.026
11
224.483
21
-102.024
0
LINE
8
BLACK
6
CONTINUOUS
10
224.483
20
-102.024
11
224.486
21
-102.024
0
LINE
8
BLACK
6
CONTINUOUS
10
224.486
20
-102.024
11
224.496
21
-102.021
0
LINE
8
BLACK
6
CONTINUOUS
10
224.496
20
-102.021
11
224.515
21
-102.026
0
LINE
8
BLACK
6
CONTINUOUS
10
207.677
20
-110.754
11
216.234
21
-127.55
0
LINE
8
BLACK
6
CONTINUOUS
10
216.234
20
-127.55
11
233.03
21
-118.992
0
LINE
8
BLACK
6
CONTINUOUS
10
233.03
20
-118.992
11
224.472
21
-102.197
0
LINE
8
BLACK
6
CONTINUOUS
10
224.472
20
-102.197
11
207.677
21
-110.754
0
LINE
8
BLACK
6
CONTINUOUS
10
97.3028
20
-48.4836
11
97.3221
21
-48.486
0
LINE
8
BLACK
6
CONTINUOUS
10
97.3221
20
-48.486
11
114.251
21
-57.1118
0
LINE
8
BLACK
6
CONTINUOUS
10
114.251
20
-57.1118
11
114.259
21
-57.1178
0
LINE
8
BLACK
6
CONTINUOUS
10
114.259
20
-57.1178
11
114.262
21
-57.1188
0
LINE
8
BLACK
6
CONTINUOUS
10
114.262
20
-57.1188
11
114.264
21
-57.1216
0
LINE
8
BLACK
6
CONTINUOUS
10
114.264
20
-57.1216
11
114.272
21
-57.1275
0
LINE
8
BLACK
6
CONTINUOUS
10
114.272
20
-57.1275
11
114.28
21
-57.1454
0
LINE
8
BLACK
6
CONTINUOUS
10
114.28
20
-57.1454
11
114.29
21
-57.1618
0
LINE
8
BLACK
6
CONTINUOUS
10
114.29
20
-57.1618
11
114.289
21
-57.1685
0
LINE
8
BLACK
6
CONTINUOUS
10
114.289
20
-57.1685
11
114.292
21
-57.1747
0
LINE
8
BLACK
6
CONTINUOUS
10
114.292
20
-57.1747
11
114.286
21
-57.1934
0
LINE
8
BLACK
6
CONTINUOUS
10
114.286
20
-57.1934
11
114.284
21
-57.2127
0
LINE
8
BLACK
6
CONTINUOUS
10
114.284
20
-57.2127
11
105.658
21
-74.1418
0
LINE
8
BLACK
6
CONTINUOUS
10
105.658
20
-74.1418
11
105.658
21
-74.1418
0
LINE
8
BLACK
6
CONTINUOUS
10
105.658
20
-74.1418
11
97.0324
21
-91.071
0
LINE
8
BLACK
6
CONTINUOUS
10
97.0324
20
-91.071
11
97.0324
21
-91.071
0
LINE
8
BLACK
6
CONTINUOUS
10
97.0324
20
-91.071
11
88.4066
21
-108
0
LINE
8
BLACK
6
CONTINUOUS
10
88.4066
20
-108
11
88.4006
21
-108.008
0
LINE
8
BLACK
6
CONTINUOUS
10
88.4006
20
-108.008
11
88.3996
21
-108.011
0
LINE
8
BLACK
6
CONTINUOUS
10
88.3996
20
-108.011
11
88.3968
21
-108.013
0
LINE
8
BLACK
6
CONTINUOUS
10
88.3968
20
-108.013
11
88.3909
21
-108.021
0
LINE
8
BLACK
6
CONTINUOUS
10
88.3909
20
-108.021
11
88.373
21
-108.029
0
LINE
8
BLACK
6
CONTINUOUS
10
88.373
20
-108.029
11
88.3566
21
-108.039
0
LINE
8
BLACK
6
CONTINUOUS
10
88.3566
20
-108.039
11
88.3499
21
-108.038
0
LINE
8
BLACK
6
CONTINUOUS
10
88.3499
20
-108.038
11
88.3437
21
-108.041
0
LINE
8
BLACK
6
CONTINUOUS
10
88.3437
20
-108.041
11
88.325
21
-108.035
0
LINE
8
BLACK
6
CONTINUOUS
10
88.325
20
-108.035
11
88.3057
21
-108.033
0
LINE
8
BLACK
6
CONTINUOUS
10
88.3057
20
-108.033
11
71.3766
21
-99.407
0
LINE
8
BLACK
6
CONTINUOUS
10
71.3766
20
-99.407
11
71.3687
21
-99.4011
0
LINE
8
BLACK
6
CONTINUOUS
10
71.3687
20
-99.4011
11
71.3655
21
-99.4001
0
LINE
8
BLACK
6
CONTINUOUS
10
71.3655
20
-99.4001
11
71.3637
21
-99.3973
0
LINE
8
BLACK
6
CONTINUOUS
10
71.3637
20
-99.3973
11
71.3558
21
-99.3914
0
LINE
8
BLACK
6
CONTINUOUS
10
71.3558
20
-99.3914
11
71.3482
21
-99.3734
0
LINE
8
BLACK
6
CONTINUOUS
10
71.3482
20
-99.3734
11
71.3375
21
-99.3571
0
LINE
8
BLACK
6
CONTINUOUS
10
71.3375
20
-99.3571
11
71.3384
21
-99.3504
0
LINE
8
BLACK
6
CONTINUOUS
10
71.3384
20
-99.3504
11
71.3357
21
-99.3441
0
LINE
8
BLACK
6
CONTINUOUS
10
71.3357
20
-99.3441
11
71.3414
21
-99.3255
0
LINE
8
BLACK
6
CONTINUOUS
10
71.3414
20
-99.3255
11
71.3438
21
-99.3062
0
LINE
8
BLACK
6
CONTINUOUS
10
71.3438
20
-99.3062
11
79.9696
21
-82.377
0
LINE
8
BLACK
6
CONTINUOUS
10
79.9696
20
-82.377
11
79.9696
21
-82.377
0
LINE
8
BLACK
6
CONTINUOUS
10
79.9696
20
-82.377
11
88.5954
21
-65.4479
0
LINE
8
BLACK
6
CONTINUOUS
10
88.5954
20
-65.4479
11
88.5954
21
-65.4479
0
LINE
8
BLACK
6
CONTINUOUS
10
88.5954
20
-65.4479
11
97.2213
21
-48.5188
0
LINE
8
BLACK
6
CONTINUOUS
10
97.2213
20
-48.5188
11
97.2272
21
-48.5109
0
LINE
8
BLACK
6
CONTINUOUS
10
97.2272
20
-48.5109
11
97.2282
21
-48.5077
0
LINE
8
BLACK
6
CONTINUOUS
10
97.2282
20
-48.5077
11
97.231
21
-48.5059
0
LINE
8
BLACK
6
CONTINUOUS
10
97.231
20
-48.5059
11
97.2369
21
-48.498
0
LINE
8
BLACK
6
CONTINUOUS
10
97.2369
20
-48.498
11
97.2549
21
-48.4904
0
LINE
8
BLACK
6
CONTINUOUS
10
97.2549
20
-48.4904
11
97.2712
21
-48.4798
0
LINE
8
BLACK
6
CONTINUOUS
10
97.2712
20
-48.4798
11
97.2779
21
-48.4806
0
LINE
8
BLACK
6
CONTINUOUS
10
97.2779
20
-48.4806
11
97.2842
21
-48.4779
0
LINE
8
BLACK
6
CONTINUOUS
10
97.2842
20
-48.4779
11
97.3028
21
-48.4836
0
LINE
8
BLACK
6
CONTINUOUS
10
71.5115
20
-99.3074
11
88.307
21
-107.865
0
LINE
8
BLACK
6
CONTINUOUS
10
88.307
20
-107.865
11
96.8647
21
-91.0697
0
LINE
8
BLACK
6
CONTINUOUS
10
96.8647
20
-91.0697
11
80.0692
21
-82.512
0
LINE
8
BLACK
6
CONTINUOUS
10
80.0692
20
-82.512
11
71.5115
21
-99.3074
0
LINE
8
BLACK
6
CONTINUOUS
10
80.1373
20
-82.3783
11
96.9328
21
-90.936
0
LINE
8
BLACK
6
CONTINUOUS
10
96.9328
20
-90.936
11
105.491
21
-74.1406
0
LINE
8
BLACK
6
CONTINUOUS
10
105.491
20
-74.1406
11
88.695
21
-65.5828
0
LINE
8
BLACK
6
CONTINUOUS
10
88.695
20
-65.5828
11
80.1373
21
-82.3783
0
LINE
8
BLACK
6
CONTINUOUS
10
88.7631
20
-65.4492
11
105.559
21
-74.0069
0
LINE
8
BLACK
6
CONTINUOUS
10
105.559
20
-74.0069
11
114.116
21
-57.2114
0
LINE
8
BLACK
6
CONTINUOUS
10
114.116
20
-57.2114
11
97.3209
21
-48.6537
0
LINE
8
BLACK
6
CONTINUOUS
10
97.3209
20
-48.6537
11
88.7631
21
-65.4492
0
LINE
8
BLACK
6
CONTINUOUS
10
202.508
20
-48.4089
11
202.527
21
-48.41
0
LINE
8
BLACK
6
CONTINUOUS
10
202.527
20
-48.41
11
202.532
21
-48.4146
0
LINE
8
BLACK
6
CONTINUOUS
10
202.532
20
-48.4146
11
202.539
21
-48.4161
0
LINE
8
BLACK
6
CONTINUOUS
10
202.539
20
-48.4161
11
202.55
21
-48.4317
0
LINE
8
BLACK
6
CONTINUOUS
10
202.55
20
-48.4317
11
202.565
21
-48.445
0
LINE
8
BLACK
6
CONTINUOUS
10
202.565
20
-48.445
11
211.191
21
-65.3741
0
LINE
8
BLACK
6
CONTINUOUS
10
211.191
20
-65.3741
11
211.191
21
-65.3741
0
LINE
8
BLACK
6
CONTINUOUS
10
211.191
20
-65.3741
11
219.816
21
-82.3032
0
LINE
8
BLACK
6
CONTINUOUS
10
219.816
20
-82.3032
11
219.816
21
-82.3032
0
LINE
8
BLACK
6
CONTINUOUS
10
219.816
20
-82.3032
11
228.442
21
-99.2323
0
LINE
8
BLACK
6
CONTINUOUS
10
228.442
20
-99.2323
11
228.445
21
-99.2418
0
LINE
8
BLACK
6
CONTINUOUS
10
228.445
20
-99.2418
11
228.447
21
-99.2444
0
LINE
8
BLACK
6
CONTINUOUS
10
228.447
20
-99.2444
11
228.447
21
-99.2478
0
LINE
8
BLACK
6
CONTINUOUS
10
228.447
20
-99.2478
11
228.45
21
-99.2572
0
LINE
8
BLACK
6
CONTINUOUS
10
228.45
20
-99.2572
11
228.445
21
-99.2762
0
LINE
8
BLACK
6
CONTINUOUS
10
228.445
20
-99.2762
11
228.444
21
-99.2957
0
LINE
8
BLACK
6
CONTINUOUS
10
228.444
20
-99.2957
11
228.44
21
-99.3006
0
LINE
8
BLACK
6
CONTINUOUS
10
228.44
20
-99.3006
11
228.438
21
-99.3072
0
LINE
8
BLACK
6
CONTINUOUS
10
228.438
20
-99.3072
11
228.423
21
-99.319
0
LINE
8
BLACK
6
CONTINUOUS
10
228.423
20
-99.319
11
228.409
21
-99.3332
0
LINE
8
BLACK
6
CONTINUOUS
10
228.409
20
-99.3332
11
211.48
21
-107.959
0
LINE
8
BLACK
6
CONTINUOUS
10
211.48
20
-107.959
11
211.471
21
-107.962
0
LINE
8
BLACK
6
CONTINUOUS
10
211.471
20
-107.962
11
211.468
21
-107.964
0
LINE
8
BLACK
6
CONTINUOUS
10
211.468
20
-107.964
11
211.465
21
-107.964
0
LINE
8
BLACK
6
CONTINUOUS
10
211.465
20
-107.964
11
211.455
21
-107.967
0
LINE
8
BLACK
6
CONTINUOUS
10
211.455
20
-107.967
11
211.436
21
-107.962
0
LINE
8
BLACK
6
CONTINUOUS
10
211.436
20
-107.962
11
211.417
21
-107.961
0
LINE
8
BLACK
6
CONTINUOUS
10
211.417
20
-107.961
11
211.412
21
-107.957
0
LINE
8
BLACK
6
CONTINUOUS
10
211.412
20
-107.957
11
211.405
21
-107.955
0
LINE
8
BLACK
6
CONTINUOUS
10
211.405
20
-107.955
11
211.394
21
-107.94
0
LINE
8
BLACK
6
CONTINUOUS
10
211.394
20
-107.94
11
211.379
21
-107.926
0
LINE
8
BLACK
6
CONTINUOUS
10
211.379
20
-107.926
11
202.754
21
-90.9971
0
LINE
8
BLACK
6
CONTINUOUS
10
202.754
20
-90.9971
11
202.754
21
-90.9971
0
LINE
8
BLACK
6
CONTINUOUS
10
202.754
20
-90.9971
11
194.128
21
-74.068
0
LINE
8
BLACK
6
CONTINUOUS
10
194.128
20
-74.068
11
194.128
21
-74.068
0
LINE
8
BLACK
6
CONTINUOUS
10
194.128
20
-74.068
11
185.502
21
-57.1389
0
LINE
8
BLACK
6
CONTINUOUS
10
185.502
20
-57.1389
11
185.499
21
-57.1294
0
LINE
8
BLACK
6
CONTINUOUS
10
185.499
20
-57.1294
11
185.497
21
-57.1267
0
LINE
8
BLACK
6
CONTINUOUS
10
185.497
20
-57.1267
11
185.497
21
-57.1234
0
LINE
8
BLACK
6
CONTINUOUS
10
185.497
20
-57.1234
11
185.494
21
-57.114
0
LINE
8
BLACK
6
CONTINUOUS
10
185.494
20
-57.114
11
185.499
21
-57.095
0
LINE
8
BLACK
6
CONTINUOUS
10
185.499
20
-57.095
11
185.5
21
-57.0755
0
LINE
8
BLACK
6
CONTINUOUS
10
185.5
20
-57.0755
11
185.504
21
-57.0706
0
LINE
8
BLACK
6
CONTINUOUS
10
185.504
20
-57.0706
11
185.506
21
-57.064
0
LINE
8
BLACK
6
CONTINUOUS
10
185.506
20
-57.064
11
185.521
21
-57.0522
0
LINE
8
BLACK
6
CONTINUOUS
10
185.521
20
-57.0522
11
185.535
21
-57.038
0
LINE
8
BLACK
6
CONTINUOUS
10
185.535
20
-57.038
11
202.464
21
-48.4122
0
LINE
8
BLACK
6
CONTINUOUS
10
202.464
20
-48.4122
11
202.473
21
-48.4093
0
LINE
8
BLACK
6
CONTINUOUS
10
202.473
20
-48.4093
11
202.476
21
-48.4073
0
LINE
8
BLACK
6
CONTINUOUS
10
202.476
20
-48.4073
11
202.479
21
-48.4075
0
LINE
8
BLACK
6
CONTINUOUS
10
202.479
20
-48.4075
11
202.489
21
-48.4046
0
LINE
8
BLACK
6
CONTINUOUS
10
202.489
20
-48.4046
11
202.508
21
-48.4089
0
LINE
8
BLACK
6
CONTINUOUS
10
202.921
20
-90.9958
11
211.479
21
-107.791
0
LINE
8
BLACK
6
CONTINUOUS
10
211.479
20
-107.791
11
228.274
21
-99.2336
0
LINE
8
BLACK
6
CONTINUOUS
10
228.274
20
-99.2336
11
219.717
21
-82.4381
0
LINE
8
BLACK
6
CONTINUOUS
10
219.717
20
-82.4381
11
202.921
21
-90.9958
0
LINE
8
BLACK
6
CONTINUOUS
10
194.295
20
-74.0667
11
202.853
21
-90.8622
0
LINE
8
BLACK
6
CONTINUOUS
10
202.853
20
-90.8622
11
219.649
21
-82.3045
0
LINE
8
BLACK
6
CONTINUOUS
10
219.649
20
-82.3045
11
211.091
21
-65.509
0
LINE
8
BLACK
6
CONTINUOUS
10
211.091
20
-65.509
11
194.295
21
-74.0667
0
LINE
8
BLACK
6
CONTINUOUS
10
185.67
20
-57.1376
11
194.227
21
-73.9331
0
LINE
8
BLACK
6
CONTINUOUS
10
194.227
20
-73.9331
11
211.023
21
-65.3753
0
LINE
8
BLACK
6
CONTINUOUS
10
211.023
20
-65.3753
11
202.465
21
-48.5799
0
LINE
8
BLACK
6
CONTINUOUS
10
202.465
20
-48.5799
11
185.67
21
-57.1376
0
LINE
8
BLACK
6
CONTINUOUS
10
110.654
20
-64.6013
11
110.674
21
-64.6037
0
LINE
8
BLACK
6
CONTINUOUS
10
110.674
20
-64.6037
11
127.603
21
-73.2295
0
LINE
8
BLACK
6
CONTINUOUS
10
127.603
20
-73.2295
11
127.611
21
-73.2355
0
LINE
8
BLACK
6
CONTINUOUS
10
127.611
20
-73.2355
11
127.614
21
-73.2365
0
LINE
8
BLACK
6
CONTINUOUS
10
127.614
20
-73.2365
11
127.616
21
-73.2393
0
LINE
8
BLACK
6
CONTINUOUS
10
127.616
20
-73.2393
11
127.624
21
-73.2452
0
LINE
8
BLACK
6
CONTINUOUS
10
127.624
20
-73.2452
11
127.631
21
-73.2631
0
LINE
8
BLACK
6
CONTINUOUS
10
127.631
20
-73.2631
11
127.642
21
-73.2795
0
LINE
8
BLACK
6
CONTINUOUS
10
127.642
20
-73.2795
11
127.641
21
-73.2862
0
LINE
8
BLACK
6
CONTINUOUS
10
127.641
20
-73.2862
11
127.644
21
-73.2924
0
LINE
8
BLACK
6
CONTINUOUS
10
127.644
20
-73.2924
11
127.638
21
-73.3111
0
LINE
8
BLACK
6
CONTINUOUS
10
127.638
20
-73.3111
11
127.636
21
-73.3304
0
LINE
8
BLACK
6
CONTINUOUS
10
127.636
20
-73.3304
11
119.01
21
-90.2595
0
LINE
8
BLACK
6
CONTINUOUS
10
119.01
20
-90.2595
11
119.01
21
-90.2595
0
LINE
8
BLACK
6
CONTINUOUS
10
119.01
20
-90.2595
11
110.384
21
-107.189
0
LINE
8
BLACK
6
CONTINUOUS
10
110.384
20
-107.189
11
110.378
21
-107.197
0
LINE
8
BLACK
6
CONTINUOUS
10
110.378
20
-107.197
11
110.377
21
-107.2
0
LINE
8
BLACK
6
CONTINUOUS
10
110.377
20
-107.2
11
110.374
21
-107.202
0
LINE
8
BLACK
6
CONTINUOUS
10
110.374
20
-107.202
11
110.368
21
-107.209
0
LINE
8
BLACK
6
CONTINUOUS
10
110.368
20
-107.209
11
110.35
21
-107.217
0
LINE
8
BLACK
6
CONTINUOUS
10
110.35
20
-107.217
11
110.334
21
-107.228
0
LINE
8
BLACK
6
CONTINUOUS
10
110.334
20
-107.228
11
110.327
21
-107.227
0
LINE
8
BLACK
6
CONTINUOUS
10
110.327
20
-107.227
11
110.321
21
-107.229
0
LINE
8
BLACK
6
CONTINUOUS
10
110.321
20
-107.229
11
110.302
21
-107.224
0
LINE
8
BLACK
6
CONTINUOUS
10
110.302
20
-107.224
11
110.283
21
-107.221
0
LINE
8
BLACK
6
CONTINUOUS
10
110.283
20
-107.221
11
93.354
21
-98.5956
0
LINE
8
BLACK
6
CONTINUOUS
10
93.354
20
-98.5956
11
93.3461
21
-98.5897
0
LINE
8
BLACK
6
CONTINUOUS
10
93.3461
20
-98.5897
11
93.3429
21
-98.5887
0
LINE
8
BLACK
6
CONTINUOUS
10
93.3429
20
-98.5887
11
93.3411
21
-98.5859
0
LINE
8
BLACK
6
CONTINUOUS
10
93.3411
20
-98.5859
11
93.3332
21
-98.5799
0
LINE
8
BLACK
6
CONTINUOUS
10
93.3332
20
-98.5799
11
93.3256
21
-98.562
0
LINE
8
BLACK
6
CONTINUOUS
10
93.3256
20
-98.562
11
93.315
21
-98.5457
0
LINE
8
BLACK
6
CONTINUOUS
10
93.315
20
-98.5457
11
93.3158
21
-98.5389
0
LINE
8
BLACK
6
CONTINUOUS
10
93.3158
20
-98.5389
11
93.3131
21
-98.5327
0
LINE
8
BLACK
6
CONTINUOUS
10
93.3131
20
-98.5327
11
93.3188
21
-98.5141
0
LINE
8
BLACK
6
CONTINUOUS
10
93.3188
20
-98.5141
11
93.3212
21
-98.4947
0
LINE
8
BLACK
6
CONTINUOUS
10
93.3212
20
-98.4947
11
101.947
21
-81.5656
0
LINE
8
BLACK
6
CONTINUOUS
10
101.947
20
-81.5656
11
101.947
21
-81.5656
0
LINE
8
BLACK
6
CONTINUOUS
10
101.947
20
-81.5656
11
110.573
21
-64.6365
0
LINE
8
BLACK
6
CONTINUOUS
10
110.573
20
-64.6365
11
110.579
21
-64.6286
0
LINE
8
BLACK
6
CONTINUOUS
10
110.579
20
-64.6286
11
110.58
21
-64.6254
0
LINE
8
BLACK
6
CONTINUOUS
10
110.58
20
-64.6254
11
110.583
21
-64.6236
0
LINE
8
BLACK
6
CONTINUOUS
10
110.583
20
-64.6236
11
110.589
21
-64.6157
0
LINE
8
BLACK
6
CONTINUOUS
10
110.589
20
-64.6157
11
110.606
21
-64.6081
0
LINE
8
BLACK
6
CONTINUOUS
10
110.606
20
-64.6081
11
110.623
21
-64.5975
0
LINE
8
BLACK
6
CONTINUOUS
10
110.623
20
-64.5975
11
110.63
21
-64.5983
0
LINE
8
BLACK
6
CONTINUOUS
10
110.63
20
-64.5983
11
110.636
21
-64.5956
0
LINE
8
BLACK
6
CONTINUOUS
10
110.636
20
-64.5956
11
110.654
21
-64.6013
0
LINE
8
BLACK
6
CONTINUOUS
10
93.4889
20
-98.496
11
110.284
21
-107.054
0
LINE
8
BLACK
6
CONTINUOUS
10
110.284
20
-107.054
11
118.842
21
-90.2583
0
LINE
8
BLACK
6
CONTINUOUS
10
118.842
20
-90.2583
11
102.047
21
-81.7005
0
LINE
8
BLACK
6
CONTINUOUS
10
102.047
20
-81.7005
11
93.4889
21
-98.496
0
LINE
8
BLACK
6
CONTINUOUS
10
102.115
20
-81.5669
11
118.91
21
-90.1246
0
LINE
8
BLACK
6
CONTINUOUS
10
118.91
20
-90.1246
11
127.468
21
-73.3291
0
LINE
8
BLACK
6
CONTINUOUS
10
127.468
20
-73.3291
11
110.672
21
-64.7714
0
LINE
8
BLACK
6
CONTINUOUS
10
110.672
20
-64.7714
11
102.115
21
-81.5669
0
LINE
8
BLACK
6
CONTINUOUS
10
189.156
20
-64.5266
11
189.176
21
-64.5277
0
LINE
8
BLACK
6
CONTINUOUS
10
189.176
20
-64.5277
11
189.181
21
-64.5323
0
LINE
8
BLACK
6
CONTINUOUS
10
189.181
20
-64.5323
11
189.187
21
-64.5338
0
LINE
8
BLACK
6
CONTINUOUS
10
189.187
20
-64.5338
11
189.199
21
-64.5494
0
LINE
8
BLACK
6
CONTINUOUS
10
189.199
20
-64.5494
11
189.213
21
-64.5626
0
LINE
8
BLACK
6
CONTINUOUS
10
189.213
20
-64.5626
11
197.839
21
-81.4918
0
LINE
8
BLACK
6
CONTINUOUS
10
197.839
20
-81.4918
11
197.839
21
-81.4918
0
LINE
8
BLACK
6
CONTINUOUS
10
197.839
20
-81.4918
11
206.465
21
-98.4209
0
LINE
8
BLACK
6
CONTINUOUS
10
206.465
20
-98.4209
11
206.468
21
-98.4304
0
LINE
8
BLACK
6
CONTINUOUS
10
206.468
20
-98.4304
11
206.47
21
-98.433
0
LINE
8
BLACK
6
CONTINUOUS
10
206.47
20
-98.433
11
206.469
21
-98.4363
0
LINE
8
BLACK
6
CONTINUOUS
10
206.469
20
-98.4363
11
206.472
21
-98.4458
0
LINE
8
BLACK
6
CONTINUOUS
10
206.472
20
-98.4458
11
206.468
21
-98.4648
0
LINE
8
BLACK
6
CONTINUOUS
10
206.468
20
-98.4648
11
206.467
21
-98.4842
0
LINE
8
BLACK
6
CONTINUOUS
10
206.467
20
-98.4842
11
206.462
21
-98.4892
0
LINE
8
BLACK
6
CONTINUOUS
10
206.462
20
-98.4892
11
206.461
21
-98.4958
0
LINE
8
BLACK
6
CONTINUOUS
10
206.461
20
-98.4958
11
206.445
21
-98.5075
0
LINE
8
BLACK
6
CONTINUOUS
10
206.445
20
-98.5075
11
206.432
21
-98.5218
0
LINE
8
BLACK
6
CONTINUOUS
10
206.432
20
-98.5218
11
189.503
21
-107.148
0
LINE
8
BLACK
6
CONTINUOUS
10
189.503
20
-107.148
11
189.493
21
-107.15
0
LINE
8
BLACK
6
CONTINUOUS
10
189.493
20
-107.15
11
189.491
21
-107.152
0
LINE
8
BLACK
6
CONTINUOUS
10
189.491
20
-107.152
11
189.487
21
-107.152
0
LINE
8
BLACK
6
CONTINUOUS
10
189.487
20
-107.152
11
189.478
21
-107.155
0
LINE
8
BLACK
6
CONTINUOUS
10
189.478
20
-107.155
11
189.459
21
-107.151
0
LINE
8
BLACK
6
CONTINUOUS
10
189.459
20
-107.151
11
189.439
21
-107.15
0
LINE
8
BLACK
6
CONTINUOUS
10
189.439
20
-107.15
11
189.435
21
-107.145
0
LINE
8
BLACK
6
CONTINUOUS
10
189.435
20
-107.145
11
189.428
21
-107.144
0
LINE
8
BLACK
6
CONTINUOUS
10
189.428
20
-107.144
11
189.416
21
-107.128
0
LINE
8
BLACK
6
CONTINUOUS
10
189.416
20
-107.128
11
189.402
21
-107.115
0
LINE
8
BLACK
6
CONTINUOUS
10
189.402
20
-107.115
11
180.776
21
-90.1857
0
LINE
8
BLACK
6
CONTINUOUS
10
180.776
20
-90.1857
11
180.776
21
-90.1857
0
LINE
8
BLACK
6
CONTINUOUS
10
180.776
20
-90.1857
11
172.15
21
-73.2566
0
LINE
8
BLACK
6
CONTINUOUS
10
172.15
20
-73.2566
11
172.147
21
-73.2471
0
LINE
8
BLACK
6
CONTINUOUS
10
172.147
20
-73.2471
11
172.145
21
-73.2444
0
LINE
8
BLACK
6
CONTINUOUS
10
172.145
20
-73.2444
11
172.146
21
-73.2411
0
LINE
8
BLACK
6
CONTINUOUS
10
172.146
20
-73.2411
11
172.143
21
-73.2317
0
LINE
8
BLACK
6
CONTINUOUS
10
172.143
20
-73.2317
11
172.147
21
-73.2127
0
LINE
8
BLACK
6
CONTINUOUS
10
172.147
20
-73.2127
11
172.148
21
-73.1932
0
LINE
8
BLACK
6
CONTINUOUS
10
172.148
20
-73.1932
11
172.153
21
-73.1883
0
LINE
8
BLACK
6
CONTINUOUS
10
172.153
20
-73.1883
11
172.154
21
-73.1817
0
LINE
8
BLACK
6
CONTINUOUS
10
172.154
20
-73.1817
11
172.17
21
-73.1699
0
LINE
8
BLACK
6
CONTINUOUS
10
172.17
20
-73.1699
11
172.183
21
-73.1557
0
LINE
8
BLACK
6
CONTINUOUS
10
172.183
20
-73.1557
11
189.112
21
-64.5299
0
LINE
8
BLACK
6
CONTINUOUS
10
189.112
20
-64.5299
11
189.122
21
-64.527
0
LINE
8
BLACK
6
CONTINUOUS
10
189.122
20
-64.527
11
189.124
21
-64.525
0
LINE
8
BLACK
6
CONTINUOUS
10
189.124
20
-64.525
11
189.128
21
-64.5251
0
LINE
8
BLACK
6
CONTINUOUS
10
189.128
20
-64.5251
11
189.137
21
-64.5223
0
LINE
8
BLACK
6
CONTINUOUS
10
189.137
20
-64.5223
11
189.156
21
-64.5266
0
LINE
8
BLACK
6
CONTINUOUS
10
180.944
20
-90.1844
11
189.502
21
-106.98
0
LINE
8
BLACK
6
CONTINUOUS
10
189.502
20
-106.98
11
206.297
21
-98.4222
0
LINE
8
BLACK
6
CONTINUOUS
10
206.297
20
-98.4222
11
197.739
21
-81.6267
0
LINE
8
BLACK
6
CONTINUOUS
10
197.739
20
-81.6267
11
180.944
21
-90.1844
0
LINE
8
BLACK
6
CONTINUOUS
10
172.318
20
-73.2553
11
180.876
21
-90.0508
0
LINE
8
BLACK
6
CONTINUOUS
10
180.876
20
-90.0508
11
197.671
21
-81.493
0
LINE
8
BLACK
6
CONTINUOUS
10
197.671
20
-81.493
11
189.113
21
-64.6976
0
LINE
8
BLACK
6
CONTINUOUS
10
189.113
20
-64.6976
11
172.318
21
-73.2553
0
LINE
8
BLACK
6
CONTINUOUS
10
217.645
20
-35.8234
11
217.664
21
-35.8244
0
LINE
8
BLACK
6
CONTINUOUS
10
217.664
20
-35.8244
11
217.669
21
-35.829
0
LINE
8
BLACK
6
CONTINUOUS
10
217.669
20
-35.829
11
217.676
21
-35.8306
0
LINE
8
BLACK
6
CONTINUOUS
10
217.676
20
-35.8306
11
217.688
21
-35.8461
0
LINE
8
BLACK
6
CONTINUOUS
10
217.688
20
-35.8461
11
217.702
21
-35.8594
0
LINE
8
BLACK
6
CONTINUOUS
10
217.702
20
-35.8594
11
226.328
21
-52.7885
0
LINE
8
BLACK
6
CONTINUOUS
10
226.328
20
-52.7885
11
226.328
21
-52.7886
0
LINE
8
BLACK
6
CONTINUOUS
10
226.328
20
-52.7886
11
234.953
21
-69.7177
0
LINE
8
BLACK
6
CONTINUOUS
10
234.953
20
-69.7177
11
234.953
21
-69.7177
0
LINE
8
BLACK
6
CONTINUOUS
10
234.953
20
-69.7177
11
243.579
21
-86.6468
0
LINE
8
BLACK
6
CONTINUOUS
10
243.579
20
-86.6468
11
243.582
21
-86.6563
0
LINE
8
BLACK
6
CONTINUOUS
10
243.582
20
-86.6563
11
243.584
21
-86.6589
0
LINE
8
BLACK
6
CONTINUOUS
10
243.584
20
-86.6589
11
243.584
21
-86.6622
0
LINE
8
BLACK
6
CONTINUOUS
10
243.584
20
-86.6622
11
243.587
21
-86.6717
0
LINE
8
BLACK
6
CONTINUOUS
10
243.587
20
-86.6717
11
243.583
21
-86.6907
0
LINE
8
BLACK
6
CONTINUOUS
10
243.583
20
-86.6907
11
243.582
21
-86.7101
0
LINE
8
BLACK
6
CONTINUOUS
10
243.582
20
-86.7101
11
243.577
21
-86.7151
0
LINE
8
BLACK
6
CONTINUOUS
10
243.577
20
-86.7151
11
243.575
21
-86.7217
0
LINE
8
BLACK
6
CONTINUOUS
10
243.575
20
-86.7217
11
243.56
21
-86.7334
0
LINE
8
BLACK
6
CONTINUOUS
10
243.56
20
-86.7334
11
243.547
21
-86.7477
0
LINE
8
BLACK
6
CONTINUOUS
10
243.547
20
-86.7477
11
226.617
21
-95.3735
0
LINE
8
BLACK
6
CONTINUOUS
10
226.617
20
-95.3735
11
226.608
21
-95.3764
0
LINE
8
BLACK
6
CONTINUOUS
10
226.608
20
-95.3764
11
226.605
21
-95.3784
0
LINE
8
BLACK
6
CONTINUOUS
10
226.605
20
-95.3784
11
226.602
21
-95.3782
0
LINE
8
BLACK
6
CONTINUOUS
10
226.602
20
-95.3782
11
226.592
21
-95.3811
0
LINE
8
BLACK
6
CONTINUOUS
10
226.592
20
-95.3811
11
226.574
21
-95.3767
0
LINE
8
BLACK
6
CONTINUOUS
10
226.574
20
-95.3767
11
226.554
21
-95.3757
0
LINE
8
BLACK
6
CONTINUOUS
10
226.554
20
-95.3757
11
226.549
21
-95.3711
0
LINE
8
BLACK
6
CONTINUOUS
10
226.549
20
-95.3711
11
226.543
21
-95.3696
0
LINE
8
BLACK
6
CONTINUOUS
10
226.543
20
-95.3696
11
226.531
21
-95.354
0
LINE
8
BLACK
6
CONTINUOUS
10
226.531
20
-95.354
11
226.517
21
-95.3407
0
LINE
8
BLACK
6
CONTINUOUS
10
226.517
20
-95.3407
11
217.891
21
-78.4116
0
LINE
8
BLACK
6
CONTINUOUS
10
217.891
20
-78.4116
11
217.891
21
-78.4116
0
LINE
8
BLACK
6
CONTINUOUS
10
217.891
20
-78.4116
11
209.265
21
-61.4825
0
LINE
8
BLACK
6
CONTINUOUS
10
209.265
20
-61.4825
11
209.265
21
-61.4825
0
LINE
8
BLACK
6
CONTINUOUS
10
209.265
20
-61.4825
11
200.639
21
-44.5533
0
LINE
8
BLACK
6
CONTINUOUS
10
200.639
20
-44.5533
11
200.636
21
-44.5439
0
LINE
8
BLACK
6
CONTINUOUS
10
200.636
20
-44.5439
11
200.634
21
-44.5412
0
LINE
8
BLACK
6
CONTINUOUS
10
200.634
20
-44.5412
11
200.634
21
-44.5379
0
LINE
8
BLACK
6
CONTINUOUS
10
200.634
20
-44.5379
11
200.631
21
-44.5284
0
LINE
8
BLACK
6
CONTINUOUS
10
200.631
20
-44.5284
11
200.636
21
-44.5094
0
LINE
8
BLACK
6
CONTINUOUS
10
200.636
20
-44.5094
11
200.637
21
-44.49
0
LINE
8
BLACK
6
CONTINUOUS
10
200.637
20
-44.49
11
200.641
21
-44.485
0
LINE
8
BLACK
6
CONTINUOUS
10
200.641
20
-44.485
11
200.643
21
-44.4784
0
LINE
8
BLACK
6
CONTINUOUS
10
200.643
20
-44.4784
11
200.659
21
-44.4667
0
LINE
8
BLACK
6
CONTINUOUS
10
200.659
20
-44.4667
11
200.672
21
-44.4525
0
LINE
8
BLACK
6
CONTINUOUS
10
200.672
20
-44.4525
11
217.601
21
-35.8266
0
LINE
8
BLACK
6
CONTINUOUS
10
217.601
20
-35.8266
11
217.61
21
-35.8238
0
LINE
8
BLACK
6
CONTINUOUS
10
217.61
20
-35.8238
11
217.613
21
-35.8217
0
LINE
8
BLACK
6
CONTINUOUS
10
217.613
20
-35.8217
11
217.616
21
-35.8219
0
LINE
8
BLACK
6
CONTINUOUS
10
217.616
20
-35.8219
11
217.626
21
-35.819
0
LINE
8
BLACK
6
CONTINUOUS
10
217.626
20
-35.819
11
217.645
21
-35.8234
0
LINE
8
BLACK
6
CONTINUOUS
10
218.058
20
-78.4103
11
226.616
21
-95.2058
0
LINE
8
BLACK
6
CONTINUOUS
10
226.616
20
-95.2058
11
243.412
21
-86.6481
0
LINE
8
BLACK
6
CONTINUOUS
10
243.412
20
-86.6481
11
234.854
21
-69.8526
0
LINE
8
BLACK
6
CONTINUOUS
10
234.854
20
-69.8526
11
218.058
21
-78.4103
0
LINE
8
BLACK
6
CONTINUOUS
10
209.433
20
-61.4812
11
217.99
21
-78.2767
0
LINE
8
BLACK
6
CONTINUOUS
10
217.99
20
-78.2767
11
234.786
21
-69.7189
0
LINE
8
BLACK
6
CONTINUOUS
10
234.786
20
-69.7189
11
226.228
21
-52.9235
0
LINE
8
BLACK
6
CONTINUOUS
10
226.228
20
-52.9235
11
209.433
21
-61.4812
0
LINE
8
BLACK
6
CONTINUOUS
10
200.807
20
-44.5521
11
209.364
21
-61.3475
0
LINE
8
BLACK
6
CONTINUOUS
10
209.364
20
-61.3475
11
226.16
21
-52.7898
0
LINE
8
BLACK
6
CONTINUOUS
10
226.16
20
-52.7898
11
217.602
21
-35.9943
0
LINE
8
BLACK
6
CONTINUOUS
10
217.602
20
-35.9943
11
200.807
21
-44.5521
0
LINE
8
BLACK
6
CONTINUOUS
10
81.9547
20
-35.819
11
81.974
21
-35.8214
0
LINE
8
BLACK
6
CONTINUOUS
10
81.974
20
-35.8214
11
98.9031
21
-44.4472
0
LINE
8
BLACK
6
CONTINUOUS
10
98.9031
20
-44.4472
11
98.911
21
-44.4532
0
LINE
8
BLACK
6
CONTINUOUS
10
98.911
20
-44.4532
11
98.9142
21
-44.4541
0
LINE
8
BLACK
6
CONTINUOUS
10
98.9142
20
-44.4541
11
98.916
21
-44.4569
0
LINE
8
BLACK
6
CONTINUOUS
10
98.916
20
-44.4569
11
98.9239
21
-44.4629
0
LINE
8
BLACK
6
CONTINUOUS
10
98.9239
20
-44.4629
11
98.9316
21
-44.4808
0
LINE
8
BLACK
6
CONTINUOUS
10
98.9316
20
-44.4808
11
98.9422
21
-44.4972
0
LINE
8
BLACK
6
CONTINUOUS
10
98.9422
20
-44.4972
11
98.9413
21
-44.5039
0
LINE
8
BLACK
6
CONTINUOUS
10
98.9413
20
-44.5039
11
98.944
21
-44.5101
0
LINE
8
BLACK
6
CONTINUOUS
10
98.944
20
-44.5101
11
98.9383
21
-44.5288
0
LINE
8
BLACK
6
CONTINUOUS
10
98.9383
20
-44.5288
11
98.9359
21
-44.5481
0
LINE
8
BLACK
6
CONTINUOUS
10
98.9359
20
-44.5481
11
90.3101
21
-61.4772
0
LINE
8
BLACK
6
CONTINUOUS
10
90.3101
20
-61.4772
11
90.3101
21
-61.4772
0
LINE
8
BLACK
6
CONTINUOUS
10
90.3101
20
-61.4772
11
81.6843
21
-78.4063
0
LINE
8
BLACK
6
CONTINUOUS
10
81.6843
20
-78.4063
11
81.6843
21
-78.4063
0
LINE
8
BLACK
6
CONTINUOUS
10
81.6843
20
-78.4063
11
73.0585
21
-95.3355
0
LINE
8
BLACK
6
CONTINUOUS
10
73.0585
20
-95.3355
11
73.0525
21
-95.3434
0
LINE
8
BLACK
6
CONTINUOUS
10
73.0525
20
-95.3434
11
73.0515
21
-95.3465
0
LINE
8
BLACK
6
CONTINUOUS
10
73.0515
20
-95.3465
11
73.0487
21
-95.3484
0
LINE
8
BLACK
6
CONTINUOUS
10
73.0487
20
-95.3484
11
73.0428
21
-95.3563
0
LINE
8
BLACK
6
CONTINUOUS
10
73.0428
20
-95.3563
11
73.0248
21
-95.3639
0
LINE
8
BLACK
6
CONTINUOUS
10
73.0248
20
-95.3639
11
73.0085
21
-95.3745
0
LINE
8
BLACK
6
CONTINUOUS
10
73.0085
20
-95.3745
11
73.0018
21
-95.3737
0
LINE
8
BLACK
6
CONTINUOUS
10
73.0018
20
-95.3737
11
72.9956
21
-95.3763
0
LINE
8
BLACK
6
CONTINUOUS
10
72.9956
20
-95.3763
11
72.9769
21
-95.3706
0
LINE
8
BLACK
6
CONTINUOUS
10
72.9769
20
-95.3706
11
72.9576
21
-95.3682
0
LINE
8
BLACK
6
CONTINUOUS
10
72.9576
20
-95.3682
11
56.0285
21
-86.7424
0
LINE
8
BLACK
6
CONTINUOUS
10
56.0285
20
-86.7424
11
56.0206
21
-86.7365
0
LINE
8
BLACK
6
CONTINUOUS
10
56.0206
20
-86.7365
11
56.0174
21
-86.7355
0
LINE
8
BLACK
6
CONTINUOUS
10
56.0174
20
-86.7355
11
56.0155
21
-86.7327
0
LINE
8
BLACK
6
CONTINUOUS
10
56.0155
20
-86.7327
11
56.0076
21
-86.7267
0
LINE
8
BLACK
6
CONTINUOUS
10
56.0076
20
-86.7267
11
56
21
-86.7088
0
LINE
8
BLACK
6
CONTINUOUS
10
56
20
-86.7088
11
55.9894
21
-86.6925
0
LINE
8
BLACK
6
CONTINUOUS
10
55.9894
20
-86.6925
11
55.9902
21
-86.6857
0
LINE
8
BLACK
6
CONTINUOUS
10
55.9902
20
-86.6857
11
55.9876
21
-86.6795
0
LINE
8
BLACK
6
CONTINUOUS
10
55.9876
20
-86.6795
11
55.9933
21
-86.6609
0
LINE
8
BLACK
6
CONTINUOUS
10
55.9933
20
-86.6609
11
55.9957
21
-86.6415
0
LINE
8
BLACK
6
CONTINUOUS
10
55.9957
20
-86.6415
11
64.6215
21
-69.7124
0
LINE
8
BLACK
6
CONTINUOUS
10
64.6215
20
-69.7124
11
64.6215
21
-69.7124
0
LINE
8
BLACK
6
CONTINUOUS
10
64.6215
20
-69.7124
11
73.2473
21
-52.7833
0
LINE
8
BLACK
6
CONTINUOUS
10
73.2473
20
-52.7833
11
73.2473
21
-52.7833
0
LINE
8
BLACK
6
CONTINUOUS
10
73.2473
20
-52.7833
11
81.8731
21
-35.8542
0
LINE
8
BLACK
6
CONTINUOUS
10
81.8731
20
-35.8542
11
81.8791
21
-35.8463
0
LINE
8
BLACK
6
CONTINUOUS
10
81.8791
20
-35.8463
11
81.8801
21
-35.8431
0
LINE
8
BLACK
6
CONTINUOUS
10
81.8801
20
-35.8431
11
81.8829
21
-35.8413
0
LINE
8
BLACK
6
CONTINUOUS
10
81.8829
20
-35.8413
11
81.8888
21
-35.8334
0
LINE
8
BLACK
6
CONTINUOUS
10
81.8888
20
-35.8334
11
81.9067
21
-35.8258
0
LINE
8
BLACK
6
CONTINUOUS
10
81.9067
20
-35.8258
11
81.9231
21
-35.8151
0
LINE
8
BLACK
6
CONTINUOUS
10
81.9231
20
-35.8151
11
81.9298
21
-35.816
0
LINE
8
BLACK
6
CONTINUOUS
10
81.9298
20
-35.816
11
81.936
21
-35.8133
0
LINE
8
BLACK
6
CONTINUOUS
10
81.936
20
-35.8133
11
81.9547
21
-35.819
0
LINE
8
BLACK
6
CONTINUOUS
10
56.1634
20
-86.6428
11
72.9588
21
-95.2005
0
LINE
8
BLACK
6
CONTINUOUS
10
72.9588
20
-95.2005
11
81.5166
21
-78.4051
0
LINE
8
BLACK
6
CONTINUOUS
10
81.5166
20
-78.4051
11
64.7211
21
-69.8473
0
LINE
8
BLACK
6
CONTINUOUS
10
64.7211
20
-69.8473
11
56.1634
21
-86.6428
0
LINE
8
BLACK
6
CONTINUOUS
10
64.7892
20
-69.7137
11
81.5847
21
-78.2714
0
LINE
8
BLACK
6
CONTINUOUS
10
81.5847
20
-78.2714
11
90.1424
21
-61.4759
0
LINE
8
BLACK
6
CONTINUOUS
10
90.1424
20
-61.4759
11
73.3469
21
-52.9182
0
LINE
8
BLACK
6
CONTINUOUS
10
73.3469
20
-52.9182
11
64.7892
21
-69.7137
0
LINE
8
BLACK
6
CONTINUOUS
10
73.415
20
-52.7846
11
90.2105
21
-61.3423
0
LINE
8
BLACK
6
CONTINUOUS
10
90.2105
20
-61.3423
11
98.7682
21
-44.5468
0
LINE
8
BLACK
6
CONTINUOUS
10
98.7682
20
-44.5468
11
81.9727
21
-35.9891
0
LINE
8
BLACK
6
CONTINUOUS
10
81.9727
20
-35.9891
11
73.415
21
-52.7846
0
LINE
8
BLACK
6
CONTINUOUS
10
242.295
20
-31.8139
11
242.314
21
-31.8166
0
LINE
8
BLACK
6
CONTINUOUS
10
242.314
20
-31.8166
11
242.319
21
-31.8217
0
LINE
8
BLACK
6
CONTINUOUS
10
242.319
20
-31.8217
11
242.325
21
-31.8238
0
LINE
8
BLACK
6
CONTINUOUS
10
242.325
20
-31.8238
11
242.335
21
-31.8403
0
LINE
8
BLACK
6
CONTINUOUS
10
242.335
20
-31.8403
11
242.348
21
-31.8548
0
LINE
8
BLACK
6
CONTINUOUS
10
242.348
20
-31.8548
11
249.466
21
-49.4713
0
LINE
8
BLACK
6
CONTINUOUS
10
249.466
20
-49.4713
11
256.583
21
-67.0878
0
LINE
8
BLACK
6
CONTINUOUS
10
256.583
20
-67.0878
11
256.583
21
-67.0878
0
LINE
8
BLACK
6
CONTINUOUS
10
256.583
20
-67.0878
11
263.701
21
-84.7043
0
LINE
8
BLACK
6
CONTINUOUS
10
263.701
20
-84.7043
11
263.703
21
-84.7139
0
LINE
8
BLACK
6
CONTINUOUS
10
263.703
20
-84.7139
11
263.705
21
-84.7168
0
LINE
8
BLACK
6
CONTINUOUS
10
263.705
20
-84.7168
11
263.704
21
-84.7201
0
LINE
8
BLACK
6
CONTINUOUS
10
263.704
20
-84.7201
11
263.706
21
-84.7297
0
LINE
8
BLACK
6
CONTINUOUS
10
263.706
20
-84.7297
11
263.7
21
-84.7483
0
LINE
8
BLACK
6
CONTINUOUS
10
263.7
20
-84.7483
11
263.698
21
-84.7676
0
LINE
8
BLACK
6
CONTINUOUS
10
263.698
20
-84.7676
11
263.693
21
-84.7721
0
LINE
8
BLACK
6
CONTINUOUS
10
263.693
20
-84.7721
11
263.691
21
-84.7785
0
LINE
8
BLACK
6
CONTINUOUS
10
263.691
20
-84.7785
11
263.674
21
-84.7889
0
LINE
8
BLACK
6
CONTINUOUS
10
263.674
20
-84.7889
11
263.66
21
-84.8019
0
LINE
8
BLACK
6
CONTINUOUS
10
263.66
20
-84.8019
11
246.043
21
-91.9194
0
LINE
8
BLACK
6
CONTINUOUS
10
246.043
20
-91.9194
11
246.033
21
-91.9215
0
LINE
8
BLACK
6
CONTINUOUS
10
246.033
20
-91.9215
11
246.031
21
-91.9232
0
LINE
8
BLACK
6
CONTINUOUS
10
246.031
20
-91.9232
11
246.027
21
-91.9228
0
LINE
8
BLACK
6
CONTINUOUS
10
246.027
20
-91.9228
11
246.018
21
-91.9248
0
LINE
8
BLACK
6
CONTINUOUS
10
246.018
20
-91.9248
11
245.999
21
-91.9188
0
LINE
8
BLACK
6
CONTINUOUS
10
245.999
20
-91.9188
11
245.98
21
-91.9161
0
LINE
8
BLACK
6
CONTINUOUS
10
245.98
20
-91.9161
11
245.975
21
-91.9111
0
LINE
8
BLACK
6
CONTINUOUS
10
245.975
20
-91.9111
11
245.969
21
-91.909
0
LINE
8
BLACK
6
CONTINUOUS
10
245.969
20
-91.909
11
245.958
21
-91.8924
0
LINE
8
BLACK
6
CONTINUOUS
10
245.958
20
-91.8924
11
245.945
21
-91.878
0
LINE
8
BLACK
6
CONTINUOUS
10
245.945
20
-91.878
11
238.828
21
-74.2615
0
LINE
8
BLACK
6
CONTINUOUS
10
238.828
20
-74.2615
11
238.828
21
-74.2615
0
LINE
8
BLACK
6
CONTINUOUS
10
238.828
20
-74.2615
11
231.71
21
-56.645
0
LINE
8
BLACK
6
CONTINUOUS
10
231.71
20
-56.645
11
224.593
21
-39.0285
0
LINE
8
BLACK
6
CONTINUOUS
10
224.593
20
-39.0285
11
224.591
21
-39.0188
0
LINE
8
BLACK
6
CONTINUOUS
10
224.591
20
-39.0188
11
224.589
21
-39.016
0
LINE
8
BLACK
6
CONTINUOUS
10
224.589
20
-39.016
11
224.589
21
-39.0127
0
LINE
8
BLACK
6
CONTINUOUS
10
224.589
20
-39.0127
11
224.587
21
-39.003
0
LINE
8
BLACK
6
CONTINUOUS
10
224.587
20
-39.003
11
224.593
21
-38.9845
0
LINE
8
BLACK
6
CONTINUOUS
10
224.593
20
-38.9845
11
224.596
21
-38.9652
0
LINE
8
BLACK
6
CONTINUOUS
10
224.596
20
-38.9652
11
224.601
21
-38.9607
0
LINE
8
BLACK
6
CONTINUOUS
10
224.601
20
-38.9607
11
224.603
21
-38.9542
0
LINE
8
BLACK
6
CONTINUOUS
10
224.603
20
-38.9542
11
224.62
21
-38.9439
0
LINE
8
BLACK
6
CONTINUOUS
10
224.62
20
-38.9439
11
224.634
21
-38.9309
0
LINE
8
BLACK
6
CONTINUOUS
10
224.634
20
-38.9309
11
242.251
21
-31.8133
0
LINE
8
BLACK
6
CONTINUOUS
10
242.251
20
-31.8133
11
242.26
21
-31.8113
0
LINE
8
BLACK
6
CONTINUOUS
10
242.26
20
-31.8113
11
242.263
21
-31.8095
0
LINE
8
BLACK
6
CONTINUOUS
10
242.263
20
-31.8095
11
242.267
21
-31.81
0
LINE
8
BLACK
6
CONTINUOUS
10
242.267
20
-31.81
11
242.276
21
-31.8079
0
LINE
8
BLACK
6
CONTINUOUS
10
242.276
20
-31.8079
11
242.295
21
-31.8139
0
LINE
8
BLACK
6
CONTINUOUS
10
238.995
20
-74.2748
11
246.056
21
-91.7522
0
LINE
8
BLACK
6
CONTINUOUS
10
246.056
20
-91.7522
11
263.534
21
-84.6909
0
LINE
8
BLACK
6
CONTINUOUS
10
263.534
20
-84.6909
11
256.472
21
-67.2135
0
LINE
8
BLACK
6
CONTINUOUS
10
256.472
20
-67.2135
11
238.995
21
-74.2748
0
LINE
8
BLACK
6
CONTINUOUS
10
231.877
20
-56.6583
11
238.939
21
-74.1357
0
LINE
8
BLACK
6
CONTINUOUS
10
238.939
20
-74.1357
11
256.416
21
-67.0744
0
LINE
8
BLACK
6
CONTINUOUS
10
256.416
20
-67.0744
11
249.355
21
-49.597
0
LINE
8
BLACK
6
CONTINUOUS
10
249.355
20
-49.597
11
231.877
21
-56.6583
0
LINE
8
BLACK
6
CONTINUOUS
10
224.76
20
-39.0418
11
231.821
21
-56.5193
0
LINE
8
BLACK
6
CONTINUOUS
10
231.821
20
-56.5193
11
249.299
21
-49.4579
0
LINE
8
BLACK
6
CONTINUOUS
10
249.299
20
-49.4579
11
242.237
21
-31.9805
0
LINE
8
BLACK
6
CONTINUOUS
10
242.237
20
-31.9805
11
224.76
21
-39.0418
0
LINE
8
BLACK
6
CONTINUOUS
10
57.3049
20
-31.807
11
57.3244
21
-31.8077
0
LINE
8
BLACK
6
CONTINUOUS
10
57.3244
20
-31.8077
11
74.9409
21
-38.9252
0
LINE
8
BLACK
6
CONTINUOUS
10
74.9409
20
-38.9252
11
74.9493
21
-38.9305
0
LINE
8
BLACK
6
CONTINUOUS
10
74.9493
20
-38.9305
11
74.9526
21
-38.9312
0
LINE
8
BLACK
6
CONTINUOUS
10
74.9526
20
-38.9312
11
74.9546
21
-38.9338
0
LINE
8
BLACK
6
CONTINUOUS
10
74.9546
20
-38.9338
11
74.963
21
-38.939
0
LINE
8
BLACK
6
CONTINUOUS
10
74.963
20
-38.939
11
74.9721
21
-38.9562
0
LINE
8
BLACK
6
CONTINUOUS
10
74.9721
20
-38.9562
11
74.9841
21
-38.9716
0
LINE
8
BLACK
6
CONTINUOUS
10
74.9841
20
-38.9716
11
74.9839
21
-38.9783
0
LINE
8
BLACK
6
CONTINUOUS
10
74.9839
20
-38.9783
11
74.9871
21
-38.9843
0
LINE
8
BLACK
6
CONTINUOUS
10
74.9871
20
-38.9843
11
74.983
21
-39.0034
0
LINE
8
BLACK
6
CONTINUOUS
10
74.983
20
-39.0034
11
74.9824
21
-39.0229
0
LINE
8
BLACK
6
CONTINUOUS
10
74.9824
20
-39.0229
11
67.8652
21
-56.6385
0
LINE
8
BLACK
6
CONTINUOUS
10
67.8652
20
-56.6385
11
67.8651
21
-56.6398
0
LINE
8
BLACK
6
CONTINUOUS
10
67.8651
20
-56.6398
11
60.7476
21
-74.2562
0
LINE
8
BLACK
6
CONTINUOUS
10
60.7476
20
-74.2562
11
60.7463
21
-74.2583
0
LINE
8
BLACK
6
CONTINUOUS
10
60.7463
20
-74.2583
11
53.6298
21
-91.8723
0
LINE
8
BLACK
6
CONTINUOUS
10
53.6298
20
-91.8723
11
53.6245
21
-91.8807
0
LINE
8
BLACK
6
CONTINUOUS
10
53.6245
20
-91.8807
11
53.6238
21
-91.884
0
LINE
8
BLACK
6
CONTINUOUS
10
53.6238
20
-91.884
11
53.6212
21
-91.886
0
LINE
8
BLACK
6
CONTINUOUS
10
53.6212
20
-91.886
11
53.616
21
-91.8944
0
LINE
8
BLACK
6
CONTINUOUS
10
53.616
20
-91.8944
11
53.5988
21
-91.9036
0
LINE
8
BLACK
6
CONTINUOUS
10
53.5988
20
-91.9036
11
53.5834
21
-91.9156
0
LINE
8
BLACK
6
CONTINUOUS
10
53.5834
20
-91.9156
11
53.5767
21
-91.9153
0
LINE
8
BLACK
6
CONTINUOUS
10
53.5767
20
-91.9153
11
53.5707
21
-91.9185
0
LINE
8
BLACK
6
CONTINUOUS
10
53.5707
20
-91.9185
11
53.5516
21
-91.9145
0
LINE
8
BLACK
6
CONTINUOUS
10
53.5516
20
-91.9145
11
53.5321
21
-91.9138
0
LINE
8
BLACK
6
CONTINUOUS
10
53.5321
20
-91.9138
11
35.9157
21
-84.7963
0
LINE
8
BLACK
6
CONTINUOUS
10
35.9157
20
-84.7963
11
35.9073
21
-84.791
0
LINE
8
BLACK
6
CONTINUOUS
10
35.9073
20
-84.791
11
35.904
21
-84.7903
0
LINE
8
BLACK
6
CONTINUOUS
10
35.904
20
-84.7903
11
35.902
21
-84.7877
0
LINE
8
BLACK
6
CONTINUOUS
10
35.902
20
-84.7877
11
35.8936
21
-84.7824
0
LINE
8
BLACK
6
CONTINUOUS
10
35.8936
20
-84.7824
11
35.8844
21
-84.7652
0
LINE
8
BLACK
6
CONTINUOUS
10
35.8844
20
-84.7652
11
35.8724
21
-84.7499
0
LINE
8
BLACK
6
CONTINUOUS
10
35.8724
20
-84.7499
11
35.8727
21
-84.7431
0
LINE
8
BLACK
6
CONTINUOUS
10
35.8727
20
-84.7431
11
35.8695
21
-84.7372
0
LINE
8
BLACK
6
CONTINUOUS
10
35.8695
20
-84.7372
11
35.8735
21
-84.7181
0
LINE
8
BLACK
6
CONTINUOUS
10
35.8735
20
-84.7181
11
35.8742
21
-84.6986
0
LINE
8
BLACK
6
CONTINUOUS
10
35.8742
20
-84.6986
11
42.9917
21
-67.0821
0
LINE
8
BLACK
6
CONTINUOUS
10
42.9917
20
-67.0821
11
42.993
21
-67.0801
0
LINE
8
BLACK
6
CONTINUOUS
10
42.993
20
-67.0801
11
50.1092
21
-49.4669
0
LINE
8
BLACK
6
CONTINUOUS
10
50.1092
20
-49.4669
11
50.1093
21
-49.4656
0
LINE
8
BLACK
6
CONTINUOUS
10
50.1093
20
-49.4656
11
57.2268
21
-31.8491
0
LINE
8
BLACK
6
CONTINUOUS
10
57.2268
20
-31.8491
11
57.232
21
-31.8407
0
LINE
8
BLACK
6
CONTINUOUS
10
57.232
20
-31.8407
11
57.2327
21
-31.8375
0
LINE
8
BLACK
6
CONTINUOUS
10
57.2327
20
-31.8375
11
57.2353
21
-31.8354
0
LINE
8
BLACK
6
CONTINUOUS
10
57.2353
20
-31.8354
11
57.2406
21
-31.827
0
LINE
8
BLACK
6
CONTINUOUS
10
57.2406
20
-31.827
11
57.2578
21
-31.8179
0
LINE
8
BLACK
6
CONTINUOUS
10
57.2578
20
-31.8179
11
57.2731
21
-31.8059
0
LINE
8
BLACK
6
CONTINUOUS
10
57.2731
20
-31.8059
11
57.2799
21
-31.8061
0
LINE
8
BLACK
6
CONTINUOUS
10
57.2799
20
-31.8061
11
57.2859
21
-31.803
0
LINE
8
BLACK
6
CONTINUOUS
10
57.2859
20
-31.803
11
57.3049
21
-31.807
0
LINE
8
BLACK
6
CONTINUOUS
10
36.0414
20
-84.6853
11
53.5188
21
-91.7466
0
LINE
8
BLACK
6
CONTINUOUS
10
53.5188
20
-91.7466
11
60.58
21
-74.2694
0
LINE
8
BLACK
6
CONTINUOUS
10
60.58
20
-74.2694
11
43.1026
21
-67.2081
0
LINE
8
BLACK
6
CONTINUOUS
10
43.1026
20
-67.2081
11
36.0414
21
-84.6853
0
LINE
8
BLACK
6
CONTINUOUS
10
43.1593
20
-67.0689
11
60.6367
21
-74.1303
0
LINE
8
BLACK
6
CONTINUOUS
10
60.6367
20
-74.1303
11
67.6979
21
-56.6531
0
LINE
8
BLACK
6
CONTINUOUS
10
67.6979
20
-56.6531
11
50.2205
21
-49.5918
0
LINE
8
BLACK
6
CONTINUOUS
10
50.2205
20
-49.5918
11
43.1593
21
-67.0689
0
LINE
8
BLACK
6
CONTINUOUS
10
50.2764
20
-49.4523
11
67.7538
21
-56.5136
0
LINE
8
BLACK
6
CONTINUOUS
10
67.7538
20
-56.5136
11
74.8152
21
-39.0362
0
LINE
8
BLACK
6
CONTINUOUS
10
74.8152
20
-39.0362
11
57.3378
21
-31.9749
0
LINE
8
BLACK
6
CONTINUOUS
10
57.3378
20
-31.9749
11
50.2764
21
-49.4523
0
LINE
8
BLACK
6
CONTINUOUS
10
268.946
20
-34.6409
11
268.965
21
-34.6459
0
LINE
8
BLACK
6
CONTINUOUS
10
268.965
20
-34.6459
11
268.969
21
-34.6515
0
LINE
8
BLACK
6
CONTINUOUS
10
268.969
20
-34.6515
11
268.975
21
-34.6543
0
LINE
8
BLACK
6
CONTINUOUS
10
268.975
20
-34.6543
11
268.983
21
-34.672
0
LINE
8
BLACK
6
CONTINUOUS
10
268.983
20
-34.672
11
268.995
21
-34.688
0
LINE
8
BLACK
6
CONTINUOUS
10
268.995
20
-34.688
11
273.91
21
-53.0326
0
LINE
8
BLACK
6
CONTINUOUS
10
273.91
20
-53.0326
11
273.921
21
-53.048
0
LINE
8
BLACK
6
CONTINUOUS
10
273.921
20
-53.048
11
278.838
21
-71.4006
0
LINE
8
BLACK
6
CONTINUOUS
10
278.838
20
-71.4006
11
278.839
21
-71.4105
0
LINE
8
BLACK
6
CONTINUOUS
10
278.839
20
-71.4105
11
278.841
21
-71.4135
0
LINE
8
BLACK
6
CONTINUOUS
10
278.841
20
-71.4135
11
278.84
21
-71.4167
0
LINE
8
BLACK
6
CONTINUOUS
10
278.84
20
-71.4167
11
278.841
21
-71.4265
0
LINE
8
BLACK
6
CONTINUOUS
10
278.841
20
-71.4265
11
278.832
21
-71.4442
0
LINE
8
BLACK
6
CONTINUOUS
10
278.832
20
-71.4442
11
278.827
21
-71.463
0
LINE
8
BLACK
6
CONTINUOUS
10
278.827
20
-71.463
11
278.822
21
-71.4669
0
LINE
8
BLACK
6
CONTINUOUS
10
278.822
20
-71.4669
11
278.819
21
-71.473
0
LINE
8
BLACK
6
CONTINUOUS
10
278.819
20
-71.473
11
278.801
21
-71.4813
0
LINE
8
BLACK
6
CONTINUOUS
10
278.801
20
-71.4813
11
278.785
21
-71.4925
0
LINE
8
BLACK
6
CONTINUOUS
10
278.785
20
-71.4925
11
260.433
21
-76.41
0
LINE
8
BLACK
6
CONTINUOUS
10
260.433
20
-76.41
11
260.423
21
-76.4109
0
LINE
8
BLACK
6
CONTINUOUS
10
260.423
20
-76.4109
11
260.42
21
-76.4123
0
LINE
8
BLACK
6
CONTINUOUS
10
260.42
20
-76.4123
11
260.417
21
-76.4114
0
LINE
8
BLACK
6
CONTINUOUS
10
260.417
20
-76.4114
11
260.407
21
-76.4123
0
LINE
8
BLACK
6
CONTINUOUS
10
260.407
20
-76.4123
11
260.389
21
-76.4041
0
LINE
8
BLACK
6
CONTINUOUS
10
260.389
20
-76.4041
11
260.37
21
-76.399
0
LINE
8
BLACK
6
CONTINUOUS
10
260.37
20
-76.399
11
260.366
21
-76.3935
0
LINE
8
BLACK
6
CONTINUOUS
10
260.366
20
-76.3935
11
260.36
21
-76.3906
0
LINE
8
BLACK
6
CONTINUOUS
10
260.36
20
-76.3906
11
260.352
21
-76.3729
0
LINE
8
BLACK
6
CONTINUOUS
10
260.352
20
-76.3729
11
260.341
21
-76.357
0
LINE
8
BLACK
6
CONTINUOUS
10
260.341
20
-76.357
11
255.425
21
-58.0124
0
LINE
8
BLACK
6
CONTINUOUS
10
255.425
20
-58.0124
11
255.415
21
-57.9969
0
LINE
8
BLACK
6
CONTINUOUS
10
255.415
20
-57.9969
11
250.497
21
-39.6443
0
LINE
8
BLACK
6
CONTINUOUS
10
250.497
20
-39.6443
11
250.496
21
-39.6345
0
LINE
8
BLACK
6
CONTINUOUS
10
250.496
20
-39.6345
11
250.495
21
-39.6315
0
LINE
8
BLACK
6
CONTINUOUS
10
250.495
20
-39.6315
11
250.496
21
-39.6283
0
LINE
8
BLACK
6
CONTINUOUS
10
250.496
20
-39.6283
11
250.495
21
-39.6184
0
LINE
8
BLACK
6
CONTINUOUS
10
250.495
20
-39.6184
11
250.503
21
-39.6007
0
LINE
8
BLACK
6
CONTINUOUS
10
250.503
20
-39.6007
11
250.508
21
-39.5819
0
LINE
8
BLACK
6
CONTINUOUS
10
250.508
20
-39.5819
11
250.514
21
-39.578
0
LINE
8
BLACK
6
CONTINUOUS
10
250.514
20
-39.578
11
250.516
21
-39.5719
0
LINE
8
BLACK
6
CONTINUOUS
10
250.516
20
-39.5719
11
250.534
21
-39.5637
0
LINE
8
BLACK
6
CONTINUOUS
10
250.534
20
-39.5637
11
250.55
21
-39.5525
0
LINE
8
BLACK
6
CONTINUOUS
10
250.55
20
-39.5525
11
268.903
21
-34.6349
0
LINE
8
BLACK
6
CONTINUOUS
10
268.903
20
-34.6349
11
268.913
21
-34.6341
0
LINE
8
BLACK
6
CONTINUOUS
10
268.913
20
-34.6341
11
268.916
21
-34.6327
0
LINE
8
BLACK
6
CONTINUOUS
10
268.916
20
-34.6327
11
268.919
21
-34.6335
0
LINE
8
BLACK
6
CONTINUOUS
10
268.919
20
-34.6335
11
268.929
21
-34.6327
0
LINE
8
BLACK
6
CONTINUOUS
10
268.929
20
-34.6327
11
268.946
21
-34.6409
0
LINE
8
BLACK
6
CONTINUOUS
10
255.588
20
-58.038
11
260.466
21
-76.2457
0
LINE
8
BLACK
6
CONTINUOUS
10
260.466
20
-76.2457
11
278.674
21
-71.367
0
LINE
8
BLACK
6
CONTINUOUS
10
278.674
20
-71.367
11
273.795
21
-53.1593
0
LINE
8
BLACK
6
CONTINUOUS
10
273.795
20
-53.1593
11
255.588
21
-58.038
0
LINE
8
BLACK
6
CONTINUOUS
10
250.661
20
-39.678
11
255.54
21
-57.8857
0
LINE
8
BLACK
6
CONTINUOUS
10
255.54
20
-57.8857
11
273.748
21
-53.0069
0
LINE
8
BLACK
6
CONTINUOUS
10
273.748
20
-53.0069
11
268.869
21
-34.7992
0
LINE
8
BLACK
6
CONTINUOUS
10
268.869
20
-34.7992
11
250.661
21
-39.678
0
LINE
8
BLACK
6
CONTINUOUS
10
49.0088
20
-39.5355
11
49.0178
21
-39.5397
0
LINE
8
BLACK
6
CONTINUOUS
10
49.0178
20
-39.5397
11
49.0211
21
-39.54
0
LINE
8
BLACK
6
CONTINUOUS
10
49.0211
20
-39.54
11
49.0234
21
-39.5424
0
LINE
8
BLACK
6
CONTINUOUS
10
49.0234
20
-39.5424
11
49.0324
21
-39.5466
0
LINE
8
BLACK
6
CONTINUOUS
10
49.0324
20
-39.5466
11
49.0436
21
-39.5625
0
LINE
8
BLACK
6
CONTINUOUS
10
49.0436
20
-39.5625
11
49.0574
21
-39.5763
0
LINE
8
BLACK
6
CONTINUOUS
10
49.0574
20
-39.5763
11
49.0579
21
-39.583
0
LINE
8
BLACK
6
CONTINUOUS
10
49.0579
20
-39.583
11
49.0618
21
-39.5886
0
LINE
8
BLACK
6
CONTINUOUS
10
49.0618
20
-39.5886
11
49.0601
21
-39.608
0
LINE
8
BLACK
6
CONTINUOUS
10
49.0601
20
-39.608
11
49.0618
21
-39.6274
0
LINE
8
BLACK
6
CONTINUOUS
10
49.0618
20
-39.6274
11
44.1504
21
-57.957
0
LINE
8
BLACK
6
CONTINUOUS
10
44.1504
20
-57.957
11
44.1518
21
-57.959
0
LINE
8
BLACK
6
CONTINUOUS
10
44.1518
20
-57.959
11
44.1501
21
-57.9784
0
LINE
8
BLACK
6
CONTINUOUS
10
44.1501
20
-57.9784
11
44.1518
21
-57.9978
0
LINE
8
BLACK
6
CONTINUOUS
10
44.1518
20
-57.9978
11
39.2342
21
-76.3504
0
LINE
8
BLACK
6
CONTINUOUS
10
39.2342
20
-76.3504
11
39.23
21
-76.3594
0
LINE
8
BLACK
6
CONTINUOUS
10
39.23
20
-76.3594
11
39.2297
21
-76.3627
0
LINE
8
BLACK
6
CONTINUOUS
10
39.2297
20
-76.3627
11
39.2274
21
-76.365
0
LINE
8
BLACK
6
CONTINUOUS
10
39.2274
20
-76.365
11
39.2232
21
-76.374
0
LINE
8
BLACK
6
CONTINUOUS
10
39.2232
20
-76.374
11
39.2072
21
-76.3852
0
LINE
8
BLACK
6
CONTINUOUS
10
39.2072
20
-76.3852
11
39.1935
21
-76.3989
0
LINE
8
BLACK
6
CONTINUOUS
10
39.1935
20
-76.3989
11
39.1867
21
-76.3995
0
LINE
8
BLACK
6
CONTINUOUS
10
39.1867
20
-76.3995
11
39.1812
21
-76.4034
0
LINE
8
BLACK
6
CONTINUOUS
10
39.1812
20
-76.4034
11
39.1618
21
-76.4017
0
LINE
8
BLACK
6
CONTINUOUS
10
39.1618
20
-76.4017
11
39.1424
21
-76.4034
0
LINE
8
BLACK
6
CONTINUOUS
10
39.1424
20
-76.4034
11
20.7898
21
-71.4859
0
LINE
8
BLACK
6
CONTINUOUS
10
20.7898
20
-71.4859
11
20.7808
21
-71.4817
0
LINE
8
BLACK
6
CONTINUOUS
10
20.7808
20
-71.4817
11
20.7775
21
-71.4814
0
LINE
8
BLACK
6
CONTINUOUS
10
20.7775
20
-71.4814
11
20.7751
21
-71.479
0
LINE
8
BLACK
6
CONTINUOUS
10
20.7751
20
-71.479
11
20.7662
21
-71.4748
0
LINE
8
BLACK
6
CONTINUOUS
10
20.7662
20
-71.4748
11
20.755
21
-71.4589
0
LINE
8
BLACK
6
CONTINUOUS
10
20.755
20
-71.4589
11
20.7412
21
-71.4451
0
LINE
8
BLACK
6
CONTINUOUS
10
20.7412
20
-71.4451
11
20.7406
21
-71.4384
0
LINE
8
BLACK
6
CONTINUOUS
10
20.7406
20
-71.4384
11
20.7367
21
-71.4328
0
LINE
8
BLACK
6
CONTINUOUS
10
20.7367
20
-71.4328
11
20.7384
21
-71.4134
0
LINE
8
BLACK
6
CONTINUOUS
10
20.7384
20
-71.4134
11
20.7367
21
-71.394
0
LINE
8
BLACK
6
CONTINUOUS
10
20.7367
20
-71.394
11
25.6481
21
-53.0644
0
LINE
8
BLACK
6
CONTINUOUS
10
25.6481
20
-53.0644
11
25.6468
21
-53.0624
0
LINE
8
BLACK
6
CONTINUOUS
10
25.6468
20
-53.0624
11
25.6485
21
-53.043
0
LINE
8
BLACK
6
CONTINUOUS
10
25.6485
20
-53.043
11
25.6468
21
-53.0236
0
LINE
8
BLACK
6
CONTINUOUS
10
25.6468
20
-53.0236
11
30.5643
21
-34.671
0
LINE
8
BLACK
6
CONTINUOUS
10
30.5643
20
-34.671
11
30.5685
21
-34.6621
0
LINE
8
BLACK
6
CONTINUOUS
10
30.5685
20
-34.6621
11
30.5688
21
-34.6587
0
LINE
8
BLACK
6
CONTINUOUS
10
30.5688
20
-34.6587
11
30.5712
21
-34.6564
0
LINE
8
BLACK
6
CONTINUOUS
10
30.5712
20
-34.6564
11
30.5754
21
-34.6474
0
LINE
8
BLACK
6
CONTINUOUS
10
30.5754
20
-34.6474
11
30.5913
21
-34.6362
0
LINE
8
BLACK
6
CONTINUOUS
10
30.5913
20
-34.6362
11
30.6051
21
-34.6225
0
LINE
8
BLACK
6
CONTINUOUS
10
30.6051
20
-34.6225
11
30.6118
21
-34.6219
0
LINE
8
BLACK
6
CONTINUOUS
10
30.6118
20
-34.6219
11
30.6174
21
-34.618
0
LINE
8
BLACK
6
CONTINUOUS
10
30.6174
20
-34.618
11
30.6368
21
-34.6197
0
LINE
8
BLACK
6
CONTINUOUS
10
30.6368
20
-34.6197
11
30.6562
21
-34.618
0
LINE
8
BLACK
6
CONTINUOUS
10
30.6562
20
-34.618
11
49.0088
21
-39.5355
0
LINE
8
BLACK
6
CONTINUOUS
10
20.901
20
-71.3604
11
39.1087
21
-76.2391
0
LINE
8
BLACK
6
CONTINUOUS
10
39.1087
20
-76.2391
11
43.9875
21
-58.0314
0
LINE
8
BLACK
6
CONTINUOUS
10
43.9875
20
-58.0314
11
25.7798
21
-53.1527
0
LINE
8
BLACK
6
CONTINUOUS
10
25.7798
20
-53.1527
11
20.901
21
-71.3604
0
LINE
8
BLACK
6
CONTINUOUS
10
25.8111
20
-52.99
11
44.0188
21
-57.8687
0
LINE
8
BLACK
6
CONTINUOUS
10
44.0188
20
-57.8687
11
48.8975
21
-39.661
0
LINE
8
BLACK
6
CONTINUOUS
10
48.8975
20
-39.661
11
30.6898
21
-34.7823
0
LINE
8
BLACK
6
CONTINUOUS
10
30.6898
20
-34.7823
11
25.8111
21
-52.99
  0
ENDSEC
  0
EOF
