  0
SECTION
  2
HEADER
  9
$ANGBASE
  50
0.0
  9
$ANGDIR
  70
1
  9
$MEASUREMENT
  70
1
  0
ENDSEC
  0
SECTION
  2
TABLES
  0
TABLE
  2
LTYPE
  70
4
  0
LTYPE
  5
40F
  2
CONTINUOUS
  70
0
  3
Solid line
  72
65
  73
0
  40
0.0
  0
LTYPE
  5
410
  2
DASHDOT
 70
0
  3
Dash Dot ____ _ ____ _
 72
65
 73
4
 40
2.0
 49
1.25
 49
-0.25
 49
0.25
 49
-0.25
  0
LTYPE
  5
411
  2
DASHED
 70
0
  3
Dashed __ __ __ __ __
 72
65
 73
2
 40
0.75
 49
0.5
 49
-0.25
  0
LTYPE
  5
43B
  2
DOTTED
 70
0
  3
Dotted .  .  .  .
 72
65
 73
2
 40
0.2
 49
0.0
 49
-0.2
  0
ENDTAB
  0
TABLE
  2
STYLE
  70
4
  0
STYLE
  2
KICAD
  70
0
  40
0
  41
1
  42
1
  50
0
  71
0
  3
isocp.shx
  0
STYLE
  2
KICADB
  70
0
  40
0
  41
1
  42
1
  50
0
  71
0
  3
isocp.shx
  0
STYLE
  2
KICADI
  70
0
  40
0
  41
1
  42
1
  50
15
  71
0
  3
isocp.shx
  0
STYLE
  2
KICADBI
  70
0
  40
0
  41
1
  42
1
  50
15
  71
0
  3
isocp.shx
  0
ENDTAB
  0
TABLE
  2
LAYER
  70
1
  0
LAYER
  2
BLACK
  70
0
  62
7
  6
CONTINUOUS
  0
ENDTAB
  0
ENDSEC
  0
SECTION
  2
ENTITIES
0
LINE
8
BLACK
6
CONTINUOUS
10
119.867
20
-96.2059
11
119.958
21
-95.161
0
LINE
8
BLACK
6
CONTINUOUS
10
119.958
20
-95.161
11
120.086
21
-94.1199
0
LINE
8
BLACK
6
CONTINUOUS
10
120.086
20
-94.1199
11
120.25
21
-93.0839
0
LINE
8
BLACK
6
CONTINUOUS
10
120.25
20
-93.0839
11
120.45
21
-92.0543
0
LINE
8
BLACK
6
CONTINUOUS
10
120.45
20
-92.0543
11
120.686
21
-91.0323
0
LINE
8
BLACK
6
CONTINUOUS
10
120.686
20
-91.0323
11
120.957
21
-90.0192
0
LINE
8
BLACK
6
CONTINUOUS
10
120.957
20
-90.0192
11
121.264
21
-89.0161
0
LINE
8
BLACK
6
CONTINUOUS
10
121.264
20
-89.0161
11
121.606
21
-88.0244
0
LINE
8
BLACK
6
CONTINUOUS
10
121.606
20
-88.0244
11
121.981
21
-87.0451
0
LINE
8
BLACK
6
CONTINUOUS
10
121.981
20
-87.0451
11
122.391
21
-86.0796
0
LINE
8
BLACK
6
CONTINUOUS
10
122.391
20
-86.0796
11
122.835
21
-85.129
0
LINE
8
BLACK
6
CONTINUOUS
10
122.835
20
-85.129
11
123.311
21
-84.1945
0
LINE
8
BLACK
6
CONTINUOUS
10
123.311
20
-84.1945
11
123.819
21
-83.2771
0
LINE
8
BLACK
6
CONTINUOUS
10
123.819
20
-83.2771
11
124.36
21
-82.378
0
LINE
8
BLACK
6
CONTINUOUS
10
124.36
20
-82.378
11
124.931
21
-81.4983
0
LINE
8
BLACK
6
CONTINUOUS
10
124.931
20
-81.4983
11
125.532
21
-80.6391
0
LINE
8
BLACK
6
CONTINUOUS
10
125.532
20
-80.6391
11
126.164
21
-79.8015
0
LINE
8
BLACK
6
CONTINUOUS
10
126.164
20
-79.8015
11
126.824
21
-78.9863
0
LINE
8
BLACK
6
CONTINUOUS
10
126.824
20
-78.9863
11
127.512
21
-78.1947
0
LINE
8
BLACK
6
CONTINUOUS
10
127.512
20
-78.1947
11
128.227
21
-77.4276
0
LINE
8
BLACK
6
CONTINUOUS
10
128.227
20
-77.4276
11
128.969
21
-76.6859
0
LINE
8
BLACK
6
CONTINUOUS
10
128.969
20
-76.6859
11
129.736
21
-75.9706
0
LINE
8
BLACK
6
CONTINUOUS
10
129.736
20
-75.9706
11
130.528
21
-75.2824
0
LINE
8
BLACK
6
CONTINUOUS
10
130.528
20
-75.2824
11
131.343
21
-74.6224
0
LINE
8
BLACK
6
CONTINUOUS
10
131.343
20
-74.6224
11
132.18
21
-73.9911
0
LINE
8
BLACK
6
CONTINUOUS
10
132.18
20
-73.9911
11
133.04
21
-73.3895
0
LINE
8
BLACK
6
CONTINUOUS
10
133.04
20
-73.3895
11
133.919
21
-72.8182
0
LINE
8
BLACK
6
CONTINUOUS
10
133.919
20
-72.8182
11
134.818
21
-72.278
0
LINE
8
BLACK
6
CONTINUOUS
10
134.818
20
-72.278
11
135.736
21
-71.7695
0
LINE
8
BLACK
6
CONTINUOUS
10
135.736
20
-71.7695
11
136.67
21
-71.2933
0
LINE
8
BLACK
6
CONTINUOUS
10
136.67
20
-71.2933
11
137.621
21
-70.85
0
LINE
8
BLACK
6
CONTINUOUS
10
137.621
20
-70.85
11
138.586
21
-70.4402
0
LINE
8
BLACK
6
CONTINUOUS
10
138.586
20
-70.4402
11
139.566
21
-70.0643
0
LINE
8
BLACK
6
CONTINUOUS
10
139.566
20
-70.0643
11
140.557
21
-69.7228
0
LINE
8
BLACK
6
CONTINUOUS
10
140.557
20
-69.7228
11
141.56
21
-69.4162
0
LINE
8
BLACK
6
CONTINUOUS
10
141.56
20
-69.4162
11
142.574
21
-69.1447
0
LINE
8
BLACK
6
CONTINUOUS
10
142.574
20
-69.1447
11
143.596
21
-68.9087
0
LINE
8
BLACK
6
CONTINUOUS
10
143.596
20
-68.9087
11
144.625
21
-68.7086
0
LINE
8
BLACK
6
CONTINUOUS
10
144.625
20
-68.7086
11
145.661
21
-68.5445
0
LINE
8
BLACK
6
CONTINUOUS
10
145.661
20
-68.5445
11
146.702
21
-68.4167
0
LINE
8
BLACK
6
CONTINUOUS
10
146.702
20
-68.4167
11
147.747
21
-68.3253
0
LINE
8
BLACK
6
CONTINUOUS
10
147.747
20
-68.3253
11
148.795
21
-68.2704
0
LINE
8
BLACK
6
CONTINUOUS
10
148.795
20
-68.2704
11
149.843
21
-68.2521
0
LINE
8
BLACK
6
CONTINUOUS
10
149.843
20
-68.2521
11
150.892
21
-68.2704
0
LINE
8
BLACK
6
CONTINUOUS
10
150.892
20
-68.2704
11
151.94
21
-68.3253
0
LINE
8
BLACK
6
CONTINUOUS
10
151.94
20
-68.3253
11
152.984
21
-68.4167
0
LINE
8
BLACK
6
CONTINUOUS
10
152.984
20
-68.4167
11
154.025
21
-68.5445
0
LINE
8
BLACK
6
CONTINUOUS
10
154.025
20
-68.5445
11
155.061
21
-68.7086
0
LINE
8
BLACK
6
CONTINUOUS
10
155.061
20
-68.7086
11
156.091
21
-68.9087
0
LINE
8
BLACK
6
CONTINUOUS
10
156.091
20
-68.9087
11
157.113
21
-69.1447
0
LINE
8
BLACK
6
CONTINUOUS
10
157.113
20
-69.1447
11
158.126
21
-69.4162
0
LINE
8
BLACK
6
CONTINUOUS
10
158.126
20
-69.4162
11
159.129
21
-69.7228
0
LINE
8
BLACK
6
CONTINUOUS
10
159.129
20
-69.7228
11
160.121
21
-70.0643
0
LINE
8
BLACK
6
CONTINUOUS
10
160.121
20
-70.0643
11
161.1
21
-70.4402
0
LINE
8
BLACK
6
CONTINUOUS
10
161.1
20
-70.4402
11
162.066
21
-70.85
0
LINE
8
BLACK
6
CONTINUOUS
10
162.066
20
-70.85
11
163.016
21
-71.2933
0
LINE
8
BLACK
6
CONTINUOUS
10
163.016
20
-71.2933
11
163.951
21
-71.7695
0
LINE
8
BLACK
6
CONTINUOUS
10
163.951
20
-71.7695
11
164.868
21
-72.278
0
LINE
8
BLACK
6
CONTINUOUS
10
164.868
20
-72.278
11
165.767
21
-72.8182
0
LINE
8
BLACK
6
CONTINUOUS
10
165.767
20
-72.8182
11
166.647
21
-73.3895
0
LINE
8
BLACK
6
CONTINUOUS
10
166.647
20
-73.3895
11
167.506
21
-73.9911
0
LINE
8
BLACK
6
CONTINUOUS
10
167.506
20
-73.9911
11
168.344
21
-74.6224
0
LINE
8
BLACK
6
CONTINUOUS
10
168.344
20
-74.6224
11
169.159
21
-75.2824
0
LINE
8
BLACK
6
CONTINUOUS
10
169.159
20
-75.2824
11
169.951
21
-75.9706
0
LINE
8
BLACK
6
CONTINUOUS
10
169.951
20
-75.9706
11
170.718
21
-76.6859
0
LINE
8
BLACK
6
CONTINUOUS
10
170.718
20
-76.6859
11
171.46
21
-77.4276
0
LINE
8
BLACK
6
CONTINUOUS
10
171.46
20
-77.4276
11
172.175
21
-78.1947
0
LINE
8
BLACK
6
CONTINUOUS
10
172.175
20
-78.1947
11
172.863
21
-78.9863
0
LINE
8
BLACK
6
CONTINUOUS
10
172.863
20
-78.9863
11
173.523
21
-79.8015
0
LINE
8
BLACK
6
CONTINUOUS
10
173.523
20
-79.8015
11
174.154
21
-80.6391
0
LINE
8
BLACK
6
CONTINUOUS
10
174.154
20
-80.6391
11
174.756
21
-81.4983
0
LINE
8
BLACK
6
CONTINUOUS
10
174.756
20
-81.4983
11
175.327
21
-82.378
0
LINE
8
BLACK
6
CONTINUOUS
10
175.327
20
-82.378
11
175.867
21
-83.2771
0
LINE
8
BLACK
6
CONTINUOUS
10
175.867
20
-83.2771
11
176.376
21
-84.1945
0
LINE
8
BLACK
6
CONTINUOUS
10
176.376
20
-84.1945
11
176.852
21
-85.129
0
LINE
8
BLACK
6
CONTINUOUS
10
176.852
20
-85.129
11
177.295
21
-86.0796
0
LINE
8
BLACK
6
CONTINUOUS
10
177.295
20
-86.0796
11
177.705
21
-87.0451
0
LINE
8
BLACK
6
CONTINUOUS
10
177.705
20
-87.0451
11
178.081
21
-88.0244
0
LINE
8
BLACK
6
CONTINUOUS
10
178.081
20
-88.0244
11
178.423
21
-89.0161
0
LINE
8
BLACK
6
CONTINUOUS
10
178.423
20
-89.0161
11
178.729
21
-90.0192
0
LINE
8
BLACK
6
CONTINUOUS
10
178.729
20
-90.0192
11
179.001
21
-91.0323
0
LINE
8
BLACK
6
CONTINUOUS
10
179.001
20
-91.0323
11
179.237
21
-92.0543
0
LINE
8
BLACK
6
CONTINUOUS
10
179.237
20
-92.0543
11
179.437
21
-93.0839
0
LINE
8
BLACK
6
CONTINUOUS
10
179.437
20
-93.0839
11
179.601
21
-94.1199
0
LINE
8
BLACK
6
CONTINUOUS
10
179.601
20
-94.1199
11
179.729
21
-95.161
0
LINE
8
BLACK
6
CONTINUOUS
10
179.729
20
-95.161
11
179.82
21
-96.2059
0
LINE
8
BLACK
6
CONTINUOUS
10
179.82
20
-96.2059
11
179.875
21
-97.2533
0
LINE
8
BLACK
6
CONTINUOUS
10
179.875
20
-97.2533
11
179.893
21
-98.3021
0
LINE
8
BLACK
6
CONTINUOUS
10
179.893
20
-98.3021
11
179.875
21
-99.3508
0
LINE
8
BLACK
6
CONTINUOUS
10
179.875
20
-99.3508
11
179.82
21
-100.398
0
LINE
8
BLACK
6
CONTINUOUS
10
179.82
20
-100.398
11
179.729
21
-101.443
0
LINE
8
BLACK
6
CONTINUOUS
10
179.729
20
-101.443
11
179.601
21
-102.484
0
LINE
8
BLACK
6
CONTINUOUS
10
179.601
20
-102.484
11
179.437
21
-103.52
0
LINE
8
BLACK
6
CONTINUOUS
10
179.437
20
-103.52
11
179.237
21
-104.55
0
LINE
8
BLACK
6
CONTINUOUS
10
179.237
20
-104.55
11
179.001
21
-105.572
0
LINE
8
BLACK
6
CONTINUOUS
10
179.001
20
-105.572
11
178.729
21
-106.585
0
LINE
8
BLACK
6
CONTINUOUS
10
178.729
20
-106.585
11
178.423
21
-107.588
0
LINE
8
BLACK
6
CONTINUOUS
10
178.423
20
-107.588
11
178.081
21
-108.58
0
LINE
8
BLACK
6
CONTINUOUS
10
178.081
20
-108.58
11
177.705
21
-109.559
0
LINE
8
BLACK
6
CONTINUOUS
10
177.705
20
-109.559
11
177.295
21
-110.525
0
LINE
8
BLACK
6
CONTINUOUS
10
177.295
20
-110.525
11
176.852
21
-111.475
0
LINE
8
BLACK
6
CONTINUOUS
10
176.852
20
-111.475
11
176.376
21
-112.41
0
LINE
8
BLACK
6
CONTINUOUS
10
176.376
20
-112.41
11
175.867
21
-113.327
0
LINE
8
BLACK
6
CONTINUOUS
10
175.867
20
-113.327
11
175.327
21
-114.226
0
LINE
8
BLACK
6
CONTINUOUS
10
175.327
20
-114.226
11
174.756
21
-115.106
0
LINE
8
BLACK
6
CONTINUOUS
10
174.756
20
-115.106
11
174.154
21
-115.965
0
LINE
8
BLACK
6
CONTINUOUS
10
174.154
20
-115.965
11
173.523
21
-116.803
0
LINE
8
BLACK
6
CONTINUOUS
10
173.523
20
-116.803
11
172.863
21
-117.618
0
LINE
8
BLACK
6
CONTINUOUS
10
172.863
20
-117.618
11
172.175
21
-118.409
0
LINE
8
BLACK
6
CONTINUOUS
10
172.175
20
-118.409
11
171.46
21
-119.177
0
LINE
8
BLACK
6
CONTINUOUS
10
171.46
20
-119.177
11
170.718
21
-119.918
0
LINE
8
BLACK
6
CONTINUOUS
10
170.718
20
-119.918
11
169.951
21
-120.634
0
LINE
8
BLACK
6
CONTINUOUS
10
169.951
20
-120.634
11
169.159
21
-121.322
0
LINE
8
BLACK
6
CONTINUOUS
10
169.159
20
-121.322
11
168.344
21
-121.982
0
LINE
8
BLACK
6
CONTINUOUS
10
168.344
20
-121.982
11
167.506
21
-122.613
0
LINE
8
BLACK
6
CONTINUOUS
10
167.506
20
-122.613
11
166.647
21
-123.215
0
LINE
8
BLACK
6
CONTINUOUS
10
166.647
20
-123.215
11
165.767
21
-123.786
0
LINE
8
BLACK
6
CONTINUOUS
10
165.767
20
-123.786
11
164.868
21
-124.326
0
LINE
8
BLACK
6
CONTINUOUS
10
164.868
20
-124.326
11
163.951
21
-124.835
0
LINE
8
BLACK
6
CONTINUOUS
10
163.951
20
-124.835
11
163.016
21
-125.311
0
LINE
8
BLACK
6
CONTINUOUS
10
163.016
20
-125.311
11
162.066
21
-125.754
0
LINE
8
BLACK
6
CONTINUOUS
10
162.066
20
-125.754
11
161.1
21
-126.164
0
LINE
8
BLACK
6
CONTINUOUS
10
161.1
20
-126.164
11
160.121
21
-126.54
0
LINE
8
BLACK
6
CONTINUOUS
10
160.121
20
-126.54
11
159.129
21
-126.881
0
LINE
8
BLACK
6
CONTINUOUS
10
159.129
20
-126.881
11
158.126
21
-127.188
0
LINE
8
BLACK
6
CONTINUOUS
10
158.126
20
-127.188
11
157.113
21
-127.459
0
LINE
8
BLACK
6
CONTINUOUS
10
157.113
20
-127.459
11
156.091
21
-127.695
0
LINE
8
BLACK
6
CONTINUOUS
10
156.091
20
-127.695
11
155.061
21
-127.896
0
LINE
8
BLACK
6
CONTINUOUS
10
155.061
20
-127.896
11
154.025
21
-128.06
0
LINE
8
BLACK
6
CONTINUOUS
10
154.025
20
-128.06
11
152.984
21
-128.187
0
LINE
8
BLACK
6
CONTINUOUS
10
152.984
20
-128.187
11
151.94
21
-128.279
0
LINE
8
BLACK
6
CONTINUOUS
10
151.94
20
-128.279
11
150.892
21
-128.334
0
LINE
8
BLACK
6
CONTINUOUS
10
150.892
20
-128.334
11
149.843
21
-128.352
0
LINE
8
BLACK
6
CONTINUOUS
10
149.843
20
-128.352
11
148.795
21
-128.334
0
LINE
8
BLACK
6
CONTINUOUS
10
148.795
20
-128.334
11
147.747
21
-128.279
0
LINE
8
BLACK
6
CONTINUOUS
10
147.747
20
-128.279
11
146.702
21
-128.187
0
LINE
8
BLACK
6
CONTINUOUS
10
146.702
20
-128.187
11
145.661
21
-128.06
0
LINE
8
BLACK
6
CONTINUOUS
10
145.661
20
-128.06
11
144.625
21
-127.896
0
LINE
8
BLACK
6
CONTINUOUS
10
144.625
20
-127.896
11
143.596
21
-127.695
0
LINE
8
BLACK
6
CONTINUOUS
10
143.596
20
-127.695
11
142.574
21
-127.459
0
LINE
8
BLACK
6
CONTINUOUS
10
142.574
20
-127.459
11
141.56
21
-127.188
0
LINE
8
BLACK
6
CONTINUOUS
10
141.56
20
-127.188
11
140.557
21
-126.881
0
LINE
8
BLACK
6
CONTINUOUS
10
140.557
20
-126.881
11
139.566
21
-126.54
0
LINE
8
BLACK
6
CONTINUOUS
10
139.566
20
-126.54
11
138.586
21
-126.164
0
LINE
8
BLACK
6
CONTINUOUS
10
138.586
20
-126.164
11
137.621
21
-125.754
0
LINE
8
BLACK
6
CONTINUOUS
10
137.621
20
-125.754
11
136.67
21
-125.311
0
LINE
8
BLACK
6
CONTINUOUS
10
136.67
20
-125.311
11
135.736
21
-124.835
0
LINE
8
BLACK
6
CONTINUOUS
10
135.736
20
-124.835
11
134.818
21
-124.326
0
LINE
8
BLACK
6
CONTINUOUS
10
134.818
20
-124.326
11
133.919
21
-123.786
0
LINE
8
BLACK
6
CONTINUOUS
10
133.919
20
-123.786
11
133.04
21
-123.215
0
LINE
8
BLACK
6
CONTINUOUS
10
133.04
20
-123.215
11
132.18
21
-122.613
0
LINE
8
BLACK
6
CONTINUOUS
10
132.18
20
-122.613
11
131.343
21
-121.982
0
LINE
8
BLACK
6
CONTINUOUS
10
131.343
20
-121.982
11
130.528
21
-121.322
0
LINE
8
BLACK
6
CONTINUOUS
10
130.528
20
-121.322
11
129.736
21
-120.634
0
LINE
8
BLACK
6
CONTINUOUS
10
129.736
20
-120.634
11
128.969
21
-119.918
0
LINE
8
BLACK
6
CONTINUOUS
10
128.969
20
-119.918
11
128.227
21
-119.177
0
LINE
8
BLACK
6
CONTINUOUS
10
128.227
20
-119.177
11
127.512
21
-118.409
0
LINE
8
BLACK
6
CONTINUOUS
10
127.512
20
-118.409
11
126.824
21
-117.618
0
LINE
8
BLACK
6
CONTINUOUS
10
126.824
20
-117.618
11
126.164
21
-116.803
0
LINE
8
BLACK
6
CONTINUOUS
10
126.164
20
-116.803
11
125.532
21
-115.965
0
LINE
8
BLACK
6
CONTINUOUS
10
125.532
20
-115.965
11
124.931
21
-115.106
0
LINE
8
BLACK
6
CONTINUOUS
10
124.931
20
-115.106
11
124.36
21
-114.226
0
LINE
8
BLACK
6
CONTINUOUS
10
124.36
20
-114.226
11
123.819
21
-113.327
0
LINE
8
BLACK
6
CONTINUOUS
10
123.819
20
-113.327
11
123.311
21
-112.41
0
LINE
8
BLACK
6
CONTINUOUS
10
123.311
20
-112.41
11
122.835
21
-111.475
0
LINE
8
BLACK
6
CONTINUOUS
10
122.835
20
-111.475
11
122.391
21
-110.525
0
LINE
8
BLACK
6
CONTINUOUS
10
122.391
20
-110.525
11
121.981
21
-109.559
0
LINE
8
BLACK
6
CONTINUOUS
10
121.981
20
-109.559
11
121.606
21
-108.58
0
LINE
8
BLACK
6
CONTINUOUS
10
121.606
20
-108.58
11
121.264
21
-107.588
0
LINE
8
BLACK
6
CONTINUOUS
10
121.264
20
-107.588
11
120.957
21
-106.585
0
LINE
8
BLACK
6
CONTINUOUS
10
120.957
20
-106.585
11
120.686
21
-105.572
0
LINE
8
BLACK
6
CONTINUOUS
10
120.686
20
-105.572
11
120.45
21
-104.55
0
LINE
8
BLACK
6
CONTINUOUS
10
120.45
20
-104.55
11
120.25
21
-103.52
0
LINE
8
BLACK
6
CONTINUOUS
10
120.25
20
-103.52
11
120.086
21
-102.484
0
LINE
8
BLACK
6
CONTINUOUS
10
120.086
20
-102.484
11
119.958
21
-101.443
0
LINE
8
BLACK
6
CONTINUOUS
10
119.958
20
-101.443
11
119.867
21
-100.398
0
LINE
8
BLACK
6
CONTINUOUS
10
119.867
20
-100.398
11
119.812
21
-99.3508
0
LINE
8
BLACK
6
CONTINUOUS
10
119.812
20
-99.3508
11
119.793
21
-98.3021
0
LINE
8
BLACK
6
CONTINUOUS
10
119.793
20
-98.3021
11
119.812
21
-97.2533
0
LINE
8
BLACK
6
CONTINUOUS
10
119.812
20
-97.2533
11
119.867
21
-96.2059
0
LINE
8
BLACK
6
CONTINUOUS
10
119.961
20
-100.392
11
120.052
21
-101.433
0
LINE
8
BLACK
6
CONTINUOUS
10
120.052
20
-101.433
11
120.18
21
-102.471
0
LINE
8
BLACK
6
CONTINUOUS
10
120.18
20
-102.471
11
120.343
21
-103.504
0
LINE
8
BLACK
6
CONTINUOUS
10
120.343
20
-103.504
11
120.543
21
-104.53
0
LINE
8
BLACK
6
CONTINUOUS
10
120.543
20
-104.53
11
120.778
21
-105.549
0
LINE
8
BLACK
6
CONTINUOUS
10
120.778
20
-105.549
11
121.049
21
-106.559
0
LINE
8
BLACK
6
CONTINUOUS
10
121.049
20
-106.559
11
121.354
21
-107.559
0
LINE
8
BLACK
6
CONTINUOUS
10
121.354
20
-107.559
11
121.695
21
-108.547
0
LINE
8
BLACK
6
CONTINUOUS
10
121.695
20
-108.547
11
122.07
21
-109.523
0
LINE
8
BLACK
6
CONTINUOUS
10
122.07
20
-109.523
11
122.478
21
-110.486
0
LINE
8
BLACK
6
CONTINUOUS
10
122.478
20
-110.486
11
122.92
21
-111.433
0
LINE
8
BLACK
6
CONTINUOUS
10
122.92
20
-111.433
11
123.395
21
-112.365
0
LINE
8
BLACK
6
CONTINUOUS
10
123.395
20
-112.365
11
123.902
21
-113.28
0
LINE
8
BLACK
6
CONTINUOUS
10
123.902
20
-113.28
11
124.44
21
-114.176
0
LINE
8
BLACK
6
CONTINUOUS
10
124.44
20
-114.176
11
125.01
21
-115.053
0
LINE
8
BLACK
6
CONTINUOUS
10
125.01
20
-115.053
11
125.609
21
-115.909
0
LINE
8
BLACK
6
CONTINUOUS
10
125.609
20
-115.909
11
126.238
21
-116.744
0
LINE
8
BLACK
6
CONTINUOUS
10
126.238
20
-116.744
11
126.896
21
-117.557
0
LINE
8
BLACK
6
CONTINUOUS
10
126.896
20
-117.557
11
127.582
21
-118.346
0
LINE
8
BLACK
6
CONTINUOUS
10
127.582
20
-118.346
11
128.296
21
-119.111
0
LINE
8
BLACK
6
CONTINUOUS
10
128.296
20
-119.111
11
129.035
21
-119.85
0
LINE
8
BLACK
6
CONTINUOUS
10
129.035
20
-119.85
11
129.8
21
-120.563
0
LINE
8
BLACK
6
CONTINUOUS
10
129.8
20
-120.563
11
130.589
21
-121.249
0
LINE
8
BLACK
6
CONTINUOUS
10
130.589
20
-121.249
11
131.401
21
-121.907
0
LINE
8
BLACK
6
CONTINUOUS
10
131.401
20
-121.907
11
132.236
21
-122.536
0
LINE
8
BLACK
6
CONTINUOUS
10
132.236
20
-122.536
11
133.093
21
-123.136
0
LINE
8
BLACK
6
CONTINUOUS
10
133.093
20
-123.136
11
133.97
21
-123.705
0
LINE
8
BLACK
6
CONTINUOUS
10
133.97
20
-123.705
11
134.866
21
-124.244
0
LINE
8
BLACK
6
CONTINUOUS
10
134.866
20
-124.244
11
135.78
21
-124.751
0
LINE
8
BLACK
6
CONTINUOUS
10
135.78
20
-124.751
11
136.712
21
-125.225
0
LINE
8
BLACK
6
CONTINUOUS
10
136.712
20
-125.225
11
137.66
21
-125.667
0
LINE
8
BLACK
6
CONTINUOUS
10
137.66
20
-125.667
11
138.622
21
-126.076
0
LINE
8
BLACK
6
CONTINUOUS
10
138.622
20
-126.076
11
139.598
21
-126.451
0
LINE
8
BLACK
6
CONTINUOUS
10
139.598
20
-126.451
11
140.587
21
-126.791
0
LINE
8
BLACK
6
CONTINUOUS
10
140.587
20
-126.791
11
141.587
21
-127.097
0
LINE
8
BLACK
6
CONTINUOUS
10
141.587
20
-127.097
11
142.597
21
-127.367
0
LINE
8
BLACK
6
CONTINUOUS
10
142.597
20
-127.367
11
143.615
21
-127.602
0
LINE
8
BLACK
6
CONTINUOUS
10
143.615
20
-127.602
11
144.642
21
-127.802
0
LINE
8
BLACK
6
CONTINUOUS
10
144.642
20
-127.802
11
145.674
21
-127.966
0
LINE
8
BLACK
6
CONTINUOUS
10
145.674
20
-127.966
11
146.712
21
-128.093
0
LINE
8
BLACK
6
CONTINUOUS
10
146.712
20
-128.093
11
147.754
21
-128.184
0
LINE
8
BLACK
6
CONTINUOUS
10
147.754
20
-128.184
11
148.798
21
-128.239
0
LINE
8
BLACK
6
CONTINUOUS
10
148.798
20
-128.239
11
149.843
21
-128.257
0
LINE
8
BLACK
6
CONTINUOUS
10
149.843
20
-128.257
11
150.889
21
-128.239
0
LINE
8
BLACK
6
CONTINUOUS
10
150.889
20
-128.239
11
151.933
21
-128.184
0
LINE
8
BLACK
6
CONTINUOUS
10
151.933
20
-128.184
11
152.974
21
-128.093
0
LINE
8
BLACK
6
CONTINUOUS
10
152.974
20
-128.093
11
154.012
21
-127.966
0
LINE
8
BLACK
6
CONTINUOUS
10
154.012
20
-127.966
11
155.045
21
-127.802
0
LINE
8
BLACK
6
CONTINUOUS
10
155.045
20
-127.802
11
156.071
21
-127.602
0
LINE
8
BLACK
6
CONTINUOUS
10
156.071
20
-127.602
11
157.09
21
-127.367
0
LINE
8
BLACK
6
CONTINUOUS
10
157.09
20
-127.367
11
158.1
21
-127.097
0
LINE
8
BLACK
6
CONTINUOUS
10
158.1
20
-127.097
11
159.1
21
-126.791
0
LINE
8
BLACK
6
CONTINUOUS
10
159.1
20
-126.791
11
160.089
21
-126.451
0
LINE
8
BLACK
6
CONTINUOUS
10
160.089
20
-126.451
11
161.065
21
-126.076
0
LINE
8
BLACK
6
CONTINUOUS
10
161.065
20
-126.076
11
162.027
21
-125.667
0
LINE
8
BLACK
6
CONTINUOUS
10
162.027
20
-125.667
11
162.975
21
-125.225
0
LINE
8
BLACK
6
CONTINUOUS
10
162.975
20
-125.225
11
163.906
21
-124.751
0
LINE
8
BLACK
6
CONTINUOUS
10
163.906
20
-124.751
11
164.821
21
-124.244
0
LINE
8
BLACK
6
CONTINUOUS
10
164.821
20
-124.244
11
165.717
21
-123.705
0
LINE
8
BLACK
6
CONTINUOUS
10
165.717
20
-123.705
11
166.594
21
-123.136
0
LINE
8
BLACK
6
CONTINUOUS
10
166.594
20
-123.136
11
167.45
21
-122.536
0
LINE
8
BLACK
6
CONTINUOUS
10
167.45
20
-122.536
11
168.285
21
-121.907
0
LINE
8
BLACK
6
CONTINUOUS
10
168.285
20
-121.907
11
169.098
21
-121.249
0
LINE
8
BLACK
6
CONTINUOUS
10
169.098
20
-121.249
11
169.887
21
-120.563
0
LINE
8
BLACK
6
CONTINUOUS
10
169.887
20
-120.563
11
170.652
21
-119.85
0
LINE
8
BLACK
6
CONTINUOUS
10
170.652
20
-119.85
11
171.391
21
-119.111
0
LINE
8
BLACK
6
CONTINUOUS
10
171.391
20
-119.111
11
172.104
21
-118.346
0
LINE
8
BLACK
6
CONTINUOUS
10
172.104
20
-118.346
11
172.79
21
-117.557
0
LINE
8
BLACK
6
CONTINUOUS
10
172.79
20
-117.557
11
173.448
21
-116.744
0
LINE
8
BLACK
6
CONTINUOUS
10
173.448
20
-116.744
11
174.077
21
-115.909
0
LINE
8
BLACK
6
CONTINUOUS
10
174.077
20
-115.909
11
174.677
21
-115.053
0
LINE
8
BLACK
6
CONTINUOUS
10
174.677
20
-115.053
11
175.247
21
-114.176
0
LINE
8
BLACK
6
CONTINUOUS
10
175.247
20
-114.176
11
175.785
21
-113.28
0
LINE
8
BLACK
6
CONTINUOUS
10
175.785
20
-113.28
11
176.292
21
-112.365
0
LINE
8
BLACK
6
CONTINUOUS
10
176.292
20
-112.365
11
176.767
21
-111.433
0
LINE
8
BLACK
6
CONTINUOUS
10
176.767
20
-111.433
11
177.209
21
-110.486
0
LINE
8
BLACK
6
CONTINUOUS
10
177.209
20
-110.486
11
177.617
21
-109.523
0
LINE
8
BLACK
6
CONTINUOUS
10
177.617
20
-109.523
11
177.992
21
-108.547
0
LINE
8
BLACK
6
CONTINUOUS
10
177.992
20
-108.547
11
178.332
21
-107.559
0
LINE
8
BLACK
6
CONTINUOUS
10
178.332
20
-107.559
11
178.638
21
-106.559
0
LINE
8
BLACK
6
CONTINUOUS
10
178.638
20
-106.559
11
178.909
21
-105.549
0
LINE
8
BLACK
6
CONTINUOUS
10
178.909
20
-105.549
11
179.144
21
-104.53
0
LINE
8
BLACK
6
CONTINUOUS
10
179.144
20
-104.53
11
179.343
21
-103.504
0
LINE
8
BLACK
6
CONTINUOUS
10
179.343
20
-103.504
11
179.507
21
-102.471
0
LINE
8
BLACK
6
CONTINUOUS
10
179.507
20
-102.471
11
179.634
21
-101.433
0
LINE
8
BLACK
6
CONTINUOUS
10
179.634
20
-101.433
11
179.725
21
-100.392
0
LINE
8
BLACK
6
CONTINUOUS
10
179.725
20
-100.392
11
179.78
21
-99.3475
0
LINE
8
BLACK
6
CONTINUOUS
10
179.78
20
-99.3475
11
179.798
21
-98.3021
0
LINE
8
BLACK
6
CONTINUOUS
10
179.798
20
-98.3021
11
179.78
21
-97.2567
0
LINE
8
BLACK
6
CONTINUOUS
10
179.78
20
-97.2567
11
179.725
21
-96.2125
0
LINE
8
BLACK
6
CONTINUOUS
10
179.725
20
-96.2125
11
179.634
21
-95.1709
0
LINE
8
BLACK
6
CONTINUOUS
10
179.634
20
-95.1709
11
179.507
21
-94.1331
0
LINE
8
BLACK
6
CONTINUOUS
10
179.507
20
-94.1331
11
179.343
21
-93.1004
0
LINE
8
BLACK
6
CONTINUOUS
10
179.343
20
-93.1004
11
179.144
21
-92.0741
0
LINE
8
BLACK
6
CONTINUOUS
10
179.144
20
-92.0741
11
178.909
21
-91.0553
0
LINE
8
BLACK
6
CONTINUOUS
10
178.909
20
-91.0553
11
178.638
21
-90.0454
0
LINE
8
BLACK
6
CONTINUOUS
10
178.638
20
-90.0454
11
178.332
21
-89.0455
0
LINE
8
BLACK
6
CONTINUOUS
10
178.332
20
-89.0455
11
177.992
21
-88.0569
0
LINE
8
BLACK
6
CONTINUOUS
10
177.992
20
-88.0569
11
177.617
21
-87.0807
0
LINE
8
BLACK
6
CONTINUOUS
10
177.617
20
-87.0807
11
177.209
21
-86.1183
0
LINE
8
BLACK
6
CONTINUOUS
10
177.209
20
-86.1183
11
176.767
21
-85.1707
0
LINE
8
BLACK
6
CONTINUOUS
10
176.767
20
-85.1707
11
176.292
21
-84.2391
0
LINE
8
BLACK
6
CONTINUOUS
10
176.292
20
-84.2391
11
175.785
21
-83.3246
0
LINE
8
BLACK
6
CONTINUOUS
10
175.785
20
-83.3246
11
175.247
21
-82.4283
0
LINE
8
BLACK
6
CONTINUOUS
10
175.247
20
-82.4283
11
174.677
21
-81.5515
0
LINE
8
BLACK
6
CONTINUOUS
10
174.677
20
-81.5515
11
174.077
21
-80.695
0
LINE
8
BLACK
6
CONTINUOUS
10
174.077
20
-80.695
11
173.448
21
-79.8599
0
LINE
8
BLACK
6
CONTINUOUS
10
173.448
20
-79.8599
11
172.79
21
-79.0474
0
LINE
8
BLACK
6
CONTINUOUS
10
172.79
20
-79.0474
11
172.104
21
-78.2583
0
LINE
8
BLACK
6
CONTINUOUS
10
172.104
20
-78.2583
11
171.391
21
-77.4936
0
LINE
8
BLACK
6
CONTINUOUS
10
171.391
20
-77.4936
11
170.652
21
-76.7543
0
LINE
8
BLACK
6
CONTINUOUS
10
170.652
20
-76.7543
11
169.887
21
-76.0412
0
LINE
8
BLACK
6
CONTINUOUS
10
169.887
20
-76.0412
11
169.098
21
-75.3552
0
LINE
8
BLACK
6
CONTINUOUS
10
169.098
20
-75.3552
11
168.285
21
-74.6972
0
LINE
8
BLACK
6
CONTINUOUS
10
168.285
20
-74.6972
11
167.45
21
-74.068
0
LINE
8
BLACK
6
CONTINUOUS
10
167.45
20
-74.068
11
166.594
21
-73.4683
0
LINE
8
BLACK
6
CONTINUOUS
10
166.594
20
-73.4683
11
165.717
21
-72.8988
0
LINE
8
BLACK
6
CONTINUOUS
10
165.717
20
-72.8988
11
164.821
21
-72.3603
0
LINE
8
BLACK
6
CONTINUOUS
10
164.821
20
-72.3603
11
163.906
21
-71.8534
0
LINE
8
BLACK
6
CONTINUOUS
10
163.906
20
-71.8534
11
162.975
21
-71.3787
0
LINE
8
BLACK
6
CONTINUOUS
10
162.975
20
-71.3787
11
162.027
21
-70.9368
0
LINE
8
BLACK
6
CONTINUOUS
10
162.027
20
-70.9368
11
161.065
21
-70.5283
0
LINE
8
BLACK
6
CONTINUOUS
10
161.065
20
-70.5283
11
160.089
21
-70.1536
0
LINE
8
BLACK
6
CONTINUOUS
10
160.089
20
-70.1536
11
159.1
21
-69.8132
0
LINE
8
BLACK
6
CONTINUOUS
10
159.1
20
-69.8132
11
158.1
21
-69.5075
0
LINE
8
BLACK
6
CONTINUOUS
10
158.1
20
-69.5075
11
157.09
21
-69.2369
0
LINE
8
BLACK
6
CONTINUOUS
10
157.09
20
-69.2369
11
156.071
21
-69.0017
0
LINE
8
BLACK
6
CONTINUOUS
10
156.071
20
-69.0017
11
155.045
21
-68.8022
0
LINE
8
BLACK
6
CONTINUOUS
10
155.045
20
-68.8022
11
154.012
21
-68.6386
0
LINE
8
BLACK
6
CONTINUOUS
10
154.012
20
-68.6386
11
152.974
21
-68.5112
0
LINE
8
BLACK
6
CONTINUOUS
10
152.974
20
-68.5112
11
151.933
21
-68.42
0
LINE
8
BLACK
6
CONTINUOUS
10
151.933
20
-68.42
11
150.889
21
-68.3653
0
LINE
8
BLACK
6
CONTINUOUS
10
150.889
20
-68.3653
11
149.843
21
-68.3471
0
LINE
8
BLACK
6
CONTINUOUS
10
149.843
20
-68.3471
11
148.798
21
-68.3653
0
LINE
8
BLACK
6
CONTINUOUS
10
148.798
20
-68.3653
11
147.754
21
-68.42
0
LINE
8
BLACK
6
CONTINUOUS
10
147.754
20
-68.42
11
146.712
21
-68.5112
0
LINE
8
BLACK
6
CONTINUOUS
10
146.712
20
-68.5112
11
145.674
21
-68.6386
0
LINE
8
BLACK
6
CONTINUOUS
10
145.674
20
-68.6386
11
144.642
21
-68.8022
0
LINE
8
BLACK
6
CONTINUOUS
10
144.642
20
-68.8022
11
143.615
21
-69.0017
0
LINE
8
BLACK
6
CONTINUOUS
10
143.615
20
-69.0017
11
142.597
21
-69.2369
0
LINE
8
BLACK
6
CONTINUOUS
10
142.597
20
-69.2369
11
141.587
21
-69.5075
0
LINE
8
BLACK
6
CONTINUOUS
10
141.587
20
-69.5075
11
140.587
21
-69.8132
0
LINE
8
BLACK
6
CONTINUOUS
10
140.587
20
-69.8132
11
139.598
21
-70.1536
0
LINE
8
BLACK
6
CONTINUOUS
10
139.598
20
-70.1536
11
138.622
21
-70.5283
0
LINE
8
BLACK
6
CONTINUOUS
10
138.622
20
-70.5283
11
137.66
21
-70.9368
0
LINE
8
BLACK
6
CONTINUOUS
10
137.66
20
-70.9368
11
136.712
21
-71.3787
0
LINE
8
BLACK
6
CONTINUOUS
10
136.712
20
-71.3787
11
135.78
21
-71.8534
0
LINE
8
BLACK
6
CONTINUOUS
10
135.78
20
-71.8534
11
134.866
21
-72.3603
0
LINE
8
BLACK
6
CONTINUOUS
10
134.866
20
-72.3603
11
133.97
21
-72.8988
0
LINE
8
BLACK
6
CONTINUOUS
10
133.97
20
-72.8988
11
133.093
21
-73.4683
0
LINE
8
BLACK
6
CONTINUOUS
10
133.093
20
-73.4683
11
132.236
21
-74.068
0
LINE
8
BLACK
6
CONTINUOUS
10
132.236
20
-74.068
11
131.401
21
-74.6972
0
LINE
8
BLACK
6
CONTINUOUS
10
131.401
20
-74.6972
11
130.589
21
-75.3552
0
LINE
8
BLACK
6
CONTINUOUS
10
130.589
20
-75.3552
11
129.8
21
-76.0412
0
LINE
8
BLACK
6
CONTINUOUS
10
129.8
20
-76.0412
11
129.035
21
-76.7543
0
LINE
8
BLACK
6
CONTINUOUS
10
129.035
20
-76.7543
11
128.296
21
-77.4936
0
LINE
8
BLACK
6
CONTINUOUS
10
128.296
20
-77.4936
11
127.582
21
-78.2583
0
LINE
8
BLACK
6
CONTINUOUS
10
127.582
20
-78.2583
11
126.896
21
-79.0474
0
LINE
8
BLACK
6
CONTINUOUS
10
126.896
20
-79.0474
11
126.238
21
-79.8599
0
LINE
8
BLACK
6
CONTINUOUS
10
126.238
20
-79.8599
11
125.609
21
-80.695
0
LINE
8
BLACK
6
CONTINUOUS
10
125.609
20
-80.695
11
125.01
21
-81.5515
0
LINE
8
BLACK
6
CONTINUOUS
10
125.01
20
-81.5515
11
124.44
21
-82.4283
0
LINE
8
BLACK
6
CONTINUOUS
10
124.44
20
-82.4283
11
123.902
21
-83.3246
0
LINE
8
BLACK
6
CONTINUOUS
10
123.902
20
-83.3246
11
123.395
21
-84.2391
0
LINE
8
BLACK
6
CONTINUOUS
10
123.395
20
-84.2391
11
122.92
21
-85.1707
0
LINE
8
BLACK
6
CONTINUOUS
10
122.92
20
-85.1707
11
122.478
21
-86.1183
0
LINE
8
BLACK
6
CONTINUOUS
10
122.478
20
-86.1183
11
122.07
21
-87.0807
0
LINE
8
BLACK
6
CONTINUOUS
10
122.07
20
-87.0807
11
121.695
21
-88.0569
0
LINE
8
BLACK
6
CONTINUOUS
10
121.695
20
-88.0569
11
121.354
21
-89.0455
0
LINE
8
BLACK
6
CONTINUOUS
10
121.354
20
-89.0455
11
121.049
21
-90.0454
0
LINE
8
BLACK
6
CONTINUOUS
10
121.049
20
-90.0454
11
120.778
21
-91.0553
0
LINE
8
BLACK
6
CONTINUOUS
10
120.778
20
-91.0553
11
120.543
21
-92.0741
0
LINE
8
BLACK
6
CONTINUOUS
10
120.543
20
-92.0741
11
120.343
21
-93.1004
0
LINE
8
BLACK
6
CONTINUOUS
10
120.343
20
-93.1004
11
120.18
21
-94.1331
0
LINE
8
BLACK
6
CONTINUOUS
10
120.18
20
-94.1331
11
120.052
21
-95.1709
0
LINE
8
BLACK
6
CONTINUOUS
10
120.052
20
-95.1709
11
119.961
21
-96.2125
0
LINE
8
BLACK
6
CONTINUOUS
10
119.961
20
-96.2125
11
119.907
21
-97.2567
0
LINE
8
BLACK
6
CONTINUOUS
10
119.907
20
-97.2567
11
119.888
21
-98.3021
0
LINE
8
BLACK
6
CONTINUOUS
10
119.888
20
-98.3021
11
119.907
21
-99.3475
0
LINE
8
BLACK
6
CONTINUOUS
10
119.907
20
-99.3475
11
119.961
21
-100.392
0
LINE
8
BLACK
6
CONTINUOUS
10
120.851
20
-96.478
11
120.937
21
-95.4168
0
LINE
8
BLACK
6
CONTINUOUS
10
120.937
20
-95.4168
11
121.062
21
-94.3595
0
LINE
8
BLACK
6
CONTINUOUS
10
121.062
20
-94.3595
11
121.226
21
-93.3075
0
LINE
8
BLACK
6
CONTINUOUS
10
121.226
20
-93.3075
11
121.428
21
-92.2622
0
LINE
8
BLACK
6
CONTINUOUS
10
121.428
20
-92.2622
11
121.669
21
-91.2251
0
LINE
8
BLACK
6
CONTINUOUS
10
121.669
20
-91.2251
11
121.947
21
-90.1974
0
LINE
8
BLACK
6
CONTINUOUS
10
121.947
20
-90.1974
11
122.263
21
-89.1806
0
LINE
8
BLACK
6
CONTINUOUS
10
122.263
20
-89.1806
11
122.615
21
-88.1761
0
LINE
8
BLACK
6
CONTINUOUS
10
122.615
20
-88.1761
11
123.005
21
-87.1851
0
LINE
8
BLACK
6
CONTINUOUS
10
123.005
20
-87.1851
11
123.43
21
-86.2091
0
LINE
8
BLACK
6
CONTINUOUS
10
123.43
20
-86.2091
11
123.891
21
-85.2494
0
LINE
8
BLACK
6
CONTINUOUS
10
123.891
20
-85.2494
11
124.387
21
-84.3071
0
LINE
8
BLACK
6
CONTINUOUS
10
124.387
20
-84.3071
11
124.917
21
-83.3837
0
LINE
8
BLACK
6
CONTINUOUS
10
124.917
20
-83.3837
11
125.48
21
-82.4803
0
LINE
8
BLACK
6
CONTINUOUS
10
125.48
20
-82.4803
11
126.076
21
-81.5982
0
LINE
8
BLACK
6
CONTINUOUS
10
126.076
20
-81.5982
11
126.704
21
-80.7385
0
LINE
8
BLACK
6
CONTINUOUS
10
126.704
20
-80.7385
11
127.363
21
-79.9024
0
LINE
8
BLACK
6
CONTINUOUS
10
127.363
20
-79.9024
11
128.053
21
-79.091
0
LINE
8
BLACK
6
CONTINUOUS
10
128.053
20
-79.091
11
128.771
21
-78.3054
0
LINE
8
BLACK
6
CONTINUOUS
10
128.771
20
-78.3054
11
129.518
21
-77.5466
0
LINE
8
BLACK
6
CONTINUOUS
10
129.518
20
-77.5466
11
130.292
21
-76.8158
0
LINE
8
BLACK
6
CONTINUOUS
10
130.292
20
-76.8158
11
131.093
21
-76.1138
0
LINE
8
BLACK
6
CONTINUOUS
10
131.093
20
-76.1138
11
131.918
21
-75.4416
0
LINE
8
BLACK
6
CONTINUOUS
10
131.918
20
-75.4416
11
132.768
21
-74.8001
0
LINE
8
BLACK
6
CONTINUOUS
10
132.768
20
-74.8001
11
133.641
21
-74.1902
0
LINE
8
BLACK
6
CONTINUOUS
10
133.641
20
-74.1902
11
134.535
21
-73.6127
0
LINE
8
BLACK
6
CONTINUOUS
10
134.535
20
-73.6127
11
135.45
21
-73.0683
0
LINE
8
BLACK
6
CONTINUOUS
10
135.45
20
-73.0683
11
136.385
21
-72.5579
0
LINE
8
BLACK
6
CONTINUOUS
10
136.385
20
-72.5579
11
137.337
21
-72.082
0
LINE
8
BLACK
6
CONTINUOUS
10
137.337
20
-72.082
11
138.306
21
-71.6413
0
LINE
8
BLACK
6
CONTINUOUS
10
138.306
20
-71.6413
11
139.291
21
-71.2364
0
LINE
8
BLACK
6
CONTINUOUS
10
139.291
20
-71.2364
11
140.29
21
-70.8679
0
LINE
8
BLACK
6
CONTINUOUS
10
140.29
20
-70.8679
11
141.301
21
-70.5363
0
LINE
8
BLACK
6
CONTINUOUS
10
141.301
20
-70.5363
11
142.325
21
-70.2419
0
LINE
8
BLACK
6
CONTINUOUS
10
142.325
20
-70.2419
11
143.358
21
-69.9853
0
LINE
8
BLACK
6
CONTINUOUS
10
143.358
20
-69.9853
11
144.4
21
-69.7666
0
LINE
8
BLACK
6
CONTINUOUS
10
144.4
20
-69.7666
11
145.449
21
-69.5863
0
LINE
8
BLACK
6
CONTINUOUS
10
145.449
20
-69.5863
11
146.504
21
-69.4446
0
LINE
8
BLACK
6
CONTINUOUS
10
146.504
20
-69.4446
11
147.564
21
-69.3416
0
LINE
8
BLACK
6
CONTINUOUS
10
147.564
20
-69.3416
11
148.627
21
-69.2776
0
LINE
8
BLACK
6
CONTINUOUS
10
148.627
20
-69.2776
11
149.691
21
-69.2525
0
LINE
8
BLACK
6
CONTINUOUS
10
149.691
20
-69.2525
11
150.756
21
-69.2664
0
LINE
8
BLACK
6
CONTINUOUS
10
150.756
20
-69.2664
11
151.819
21
-69.3193
0
LINE
8
BLACK
6
CONTINUOUS
10
151.819
20
-69.3193
11
152.88
21
-69.4112
0
LINE
8
BLACK
6
CONTINUOUS
10
152.88
20
-69.4112
11
153.937
21
-69.5419
0
LINE
8
BLACK
6
CONTINUOUS
10
153.937
20
-69.5419
11
154.988
21
-69.7112
0
LINE
8
BLACK
6
CONTINUOUS
10
154.988
20
-69.7112
11
156.032
21
-69.9189
0
LINE
8
BLACK
6
CONTINUOUS
10
156.032
20
-69.9189
11
157.068
21
-70.1647
0
LINE
8
BLACK
6
CONTINUOUS
10
157.068
20
-70.1647
11
158.094
21
-70.4484
0
LINE
8
BLACK
6
CONTINUOUS
10
158.094
20
-70.4484
11
159.109
21
-70.7694
0
LINE
8
BLACK
6
CONTINUOUS
10
159.109
20
-70.7694
11
160.112
21
-71.1274
0
LINE
8
BLACK
6
CONTINUOUS
10
160.112
20
-71.1274
11
161.101
21
-71.522
0
LINE
8
BLACK
6
CONTINUOUS
10
161.101
20
-71.522
11
162.074
21
-71.9524
0
LINE
8
BLACK
6
CONTINUOUS
10
162.074
20
-71.9524
11
163.032
21
-72.4183
0
LINE
8
BLACK
6
CONTINUOUS
10
163.032
20
-72.4183
11
163.971
21
-72.919
0
LINE
8
BLACK
6
CONTINUOUS
10
163.971
20
-72.919
11
164.892
21
-73.4537
0
LINE
8
BLACK
6
CONTINUOUS
10
164.892
20
-73.4537
11
165.792
21
-74.0219
0
LINE
8
BLACK
6
CONTINUOUS
10
165.792
20
-74.0219
11
166.671
21
-74.6226
0
LINE
8
BLACK
6
CONTINUOUS
10
166.671
20
-74.6226
11
167.528
21
-75.2552
0
LINE
8
BLACK
6
CONTINUOUS
10
167.528
20
-75.2552
11
168.361
21
-75.9187
0
LINE
8
BLACK
6
CONTINUOUS
10
168.361
20
-75.9187
11
169.168
21
-76.6122
0
LINE
8
BLACK
6
CONTINUOUS
10
169.168
20
-76.6122
11
169.95
21
-77.3349
0
LINE
8
BLACK
6
CONTINUOUS
10
169.95
20
-77.3349
11
170.705
21
-78.0858
0
LINE
8
BLACK
6
CONTINUOUS
10
170.705
20
-78.0858
11
171.432
21
-78.8638
0
LINE
8
BLACK
6
CONTINUOUS
10
171.432
20
-78.8638
11
172.129
21
-79.668
0
LINE
8
BLACK
6
CONTINUOUS
10
172.129
20
-79.668
11
172.797
21
-80.4971
0
LINE
8
BLACK
6
CONTINUOUS
10
172.797
20
-80.4971
11
173.434
21
-81.3502
0
LINE
8
BLACK
6
CONTINUOUS
10
173.434
20
-81.3502
11
174.04
21
-82.2261
0
LINE
8
BLACK
6
CONTINUOUS
10
174.04
20
-82.2261
11
174.613
21
-83.1235
0
LINE
8
BLACK
6
CONTINUOUS
10
174.613
20
-83.1235
11
175.152
21
-84.0413
0
LINE
8
BLACK
6
CONTINUOUS
10
175.152
20
-84.0413
11
175.658
21
-84.9783
0
LINE
8
BLACK
6
CONTINUOUS
10
175.658
20
-84.9783
11
176.129
21
-85.9332
0
LINE
8
BLACK
6
CONTINUOUS
10
176.129
20
-85.9332
11
176.564
21
-86.9047
0
LINE
8
BLACK
6
CONTINUOUS
10
176.564
20
-86.9047
11
176.964
21
-87.8915
0
LINE
8
BLACK
6
CONTINUOUS
10
176.964
20
-87.8915
11
177.327
21
-88.8923
0
LINE
8
BLACK
6
CONTINUOUS
10
177.327
20
-88.8923
11
177.653
21
-89.9057
0
LINE
8
BLACK
6
CONTINUOUS
10
177.653
20
-89.9057
11
177.942
21
-90.9304
0
LINE
8
BLACK
6
CONTINUOUS
10
177.942
20
-90.9304
11
178.194
21
-91.965
0
LINE
8
BLACK
6
CONTINUOUS
10
178.194
20
-91.965
11
178.407
21
-93.0081
0
LINE
8
BLACK
6
CONTINUOUS
10
178.407
20
-93.0081
11
178.582
21
-94.0584
0
LINE
8
BLACK
6
CONTINUOUS
10
178.582
20
-94.0584
11
178.718
21
-95.1143
0
LINE
8
BLACK
6
CONTINUOUS
10
178.718
20
-95.1143
11
178.815
21
-96.1745
0
LINE
8
BLACK
6
CONTINUOUS
10
178.815
20
-96.1745
11
178.874
21
-97.2376
0
LINE
8
BLACK
6
CONTINUOUS
10
178.874
20
-97.2376
11
178.893
21
-98.3021
0
LINE
8
BLACK
6
CONTINUOUS
10
178.893
20
-98.3021
11
178.89
21
-98.7584
0
LINE
8
BLACK
6
CONTINUOUS
10
178.89
20
-98.7584
11
178.854
21
-99.8224
0
LINE
8
BLACK
6
CONTINUOUS
10
178.854
20
-99.8224
11
178.778
21
-100.884
0
LINE
8
BLACK
6
CONTINUOUS
10
178.778
20
-100.884
11
178.664
21
-101.943
0
LINE
8
BLACK
6
CONTINUOUS
10
178.664
20
-101.943
11
178.512
21
-102.997
0
LINE
8
BLACK
6
CONTINUOUS
10
178.512
20
-102.997
11
178.32
21
-104.044
0
LINE
8
BLACK
6
CONTINUOUS
10
178.32
20
-104.044
11
178.091
21
-105.084
0
LINE
8
BLACK
6
CONTINUOUS
10
178.091
20
-105.084
11
177.823
21
-106.114
0
LINE
8
BLACK
6
CONTINUOUS
10
177.823
20
-106.114
11
177.518
21
-107.134
0
LINE
8
BLACK
6
CONTINUOUS
10
177.518
20
-107.134
11
177.176
21
-108.142
0
LINE
8
BLACK
6
CONTINUOUS
10
177.176
20
-108.142
11
176.797
21
-109.137
0
LINE
8
BLACK
6
CONTINUOUS
10
176.797
20
-109.137
11
176.382
21
-110.118
0
LINE
8
BLACK
6
CONTINUOUS
10
176.382
20
-110.118
11
175.931
21
-111.082
0
LINE
8
BLACK
6
CONTINUOUS
10
175.931
20
-111.082
11
175.445
21
-112.03
0
LINE
8
BLACK
6
CONTINUOUS
10
175.445
20
-112.03
11
174.925
21
-112.959
0
LINE
8
BLACK
6
CONTINUOUS
10
174.925
20
-112.959
11
174.371
21
-113.868
0
LINE
8
BLACK
6
CONTINUOUS
10
174.371
20
-113.868
11
173.784
21
-114.756
0
LINE
8
BLACK
6
CONTINUOUS
10
173.784
20
-114.756
11
173.165
21
-115.622
0
LINE
8
BLACK
6
CONTINUOUS
10
173.165
20
-115.622
11
172.515
21
-116.465
0
LINE
8
BLACK
6
CONTINUOUS
10
172.515
20
-116.465
11
171.834
21
-117.284
0
LINE
8
BLACK
6
CONTINUOUS
10
171.834
20
-117.284
11
171.124
21
-118.077
0
LINE
8
BLACK
6
CONTINUOUS
10
171.124
20
-118.077
11
170.385
21
-118.844
0
LINE
8
BLACK
6
CONTINUOUS
10
170.385
20
-118.844
11
169.618
21
-119.582
0
LINE
8
BLACK
6
CONTINUOUS
10
169.618
20
-119.582
11
168.825
21
-120.293
0
LINE
8
BLACK
6
CONTINUOUS
10
168.825
20
-120.293
11
168.007
21
-120.974
0
LINE
8
BLACK
6
CONTINUOUS
10
168.007
20
-120.974
11
167.164
21
-121.624
0
LINE
8
BLACK
6
CONTINUOUS
10
167.164
20
-121.624
11
166.297
21
-122.243
0
LINE
8
BLACK
6
CONTINUOUS
10
166.297
20
-122.243
11
165.409
21
-122.83
0
LINE
8
BLACK
6
CONTINUOUS
10
165.409
20
-122.83
11
164.5
21
-123.384
0
LINE
8
BLACK
6
CONTINUOUS
10
164.5
20
-123.384
11
163.571
21
-123.904
0
LINE
8
BLACK
6
CONTINUOUS
10
163.571
20
-123.904
11
162.624
21
-124.39
0
LINE
8
BLACK
6
CONTINUOUS
10
162.624
20
-124.39
11
161.659
21
-124.841
0
LINE
8
BLACK
6
CONTINUOUS
10
161.659
20
-124.841
11
160.679
21
-125.256
0
LINE
8
BLACK
6
CONTINUOUS
10
160.679
20
-125.256
11
159.684
21
-125.635
0
LINE
8
BLACK
6
CONTINUOUS
10
159.684
20
-125.635
11
158.676
21
-125.977
0
LINE
8
BLACK
6
CONTINUOUS
10
158.676
20
-125.977
11
157.655
21
-126.282
0
LINE
8
BLACK
6
CONTINUOUS
10
157.655
20
-126.282
11
156.625
21
-126.549
0
LINE
8
BLACK
6
CONTINUOUS
10
156.625
20
-126.549
11
155.585
21
-126.779
0
LINE
8
BLACK
6
CONTINUOUS
10
155.585
20
-126.779
11
154.538
21
-126.97
0
LINE
8
BLACK
6
CONTINUOUS
10
154.538
20
-126.97
11
153.484
21
-127.123
0
LINE
8
BLACK
6
CONTINUOUS
10
153.484
20
-127.123
11
152.426
21
-127.237
0
LINE
8
BLACK
6
CONTINUOUS
10
152.426
20
-127.237
11
151.364
21
-127.312
0
LINE
8
BLACK
6
CONTINUOUS
10
151.364
20
-127.312
11
150.3
21
-127.348
0
LINE
8
BLACK
6
CONTINUOUS
10
150.3
20
-127.348
11
149.235
21
-127.346
0
LINE
8
BLACK
6
CONTINUOUS
10
149.235
20
-127.346
11
148.171
21
-127.304
0
LINE
8
BLACK
6
CONTINUOUS
10
148.171
20
-127.304
11
147.109
21
-127.223
0
LINE
8
BLACK
6
CONTINUOUS
10
147.109
20
-127.223
11
146.052
21
-127.104
0
LINE
8
BLACK
6
CONTINUOUS
10
146.052
20
-127.104
11
144.999
21
-126.945
0
LINE
8
BLACK
6
CONTINUOUS
10
144.999
20
-126.945
11
143.952
21
-126.748
0
LINE
8
BLACK
6
CONTINUOUS
10
143.952
20
-126.748
11
142.914
21
-126.514
0
LINE
8
BLACK
6
CONTINUOUS
10
142.914
20
-126.514
11
141.885
21
-126.241
0
LINE
8
BLACK
6
CONTINUOUS
10
141.885
20
-126.241
11
140.866
21
-125.93
0
LINE
8
BLACK
6
CONTINUOUS
10
140.866
20
-125.93
11
139.86
21
-125.583
0
LINE
8
BLACK
6
CONTINUOUS
10
139.86
20
-125.583
11
138.867
21
-125.199
0
LINE
8
BLACK
6
CONTINUOUS
10
138.867
20
-125.199
11
137.889
21
-124.778
0
LINE
8
BLACK
6
CONTINUOUS
10
137.889
20
-124.778
11
136.927
21
-124.323
0
LINE
8
BLACK
6
CONTINUOUS
10
136.927
20
-124.323
11
135.982
21
-123.832
0
LINE
8
BLACK
6
CONTINUOUS
10
135.982
20
-123.832
11
135.056
21
-123.307
0
LINE
8
BLACK
6
CONTINUOUS
10
135.056
20
-123.307
11
134.149
21
-122.748
0
LINE
8
BLACK
6
CONTINUOUS
10
134.149
20
-122.748
11
133.264
21
-122.156
0
LINE
8
BLACK
6
CONTINUOUS
10
133.264
20
-122.156
11
132.401
21
-121.533
0
LINE
8
BLACK
6
CONTINUOUS
10
132.401
20
-121.533
11
131.562
21
-120.878
0
LINE
8
BLACK
6
CONTINUOUS
10
131.562
20
-120.878
11
130.747
21
-120.193
0
LINE
8
BLACK
6
CONTINUOUS
10
130.747
20
-120.193
11
129.957
21
-119.479
0
LINE
8
BLACK
6
CONTINUOUS
10
129.957
20
-119.479
11
129.195
21
-118.736
0
LINE
8
BLACK
6
CONTINUOUS
10
129.195
20
-118.736
11
128.46
21
-117.965
0
LINE
8
BLACK
6
CONTINUOUS
10
128.46
20
-117.965
11
127.754
21
-117.169
0
LINE
8
BLACK
6
CONTINUOUS
10
127.754
20
-117.169
11
127.077
21
-116.346
0
LINE
8
BLACK
6
CONTINUOUS
10
127.077
20
-116.346
11
126.431
21
-115.5
0
LINE
8
BLACK
6
CONTINUOUS
10
126.431
20
-115.5
11
125.817
21
-114.631
0
LINE
8
BLACK
6
CONTINUOUS
10
125.817
20
-114.631
11
125.234
21
-113.739
0
LINE
8
BLACK
6
CONTINUOUS
10
125.234
20
-113.739
11
124.685
21
-112.827
0
LINE
8
BLACK
6
CONTINUOUS
10
124.685
20
-112.827
11
124.17
21
-111.895
0
LINE
8
BLACK
6
CONTINUOUS
10
124.17
20
-111.895
11
123.689
21
-110.946
0
LINE
8
BLACK
6
CONTINUOUS
10
123.689
20
-110.946
11
123.243
21
-109.979
0
LINE
8
BLACK
6
CONTINUOUS
10
123.243
20
-109.979
11
122.833
21
-108.996
0
LINE
8
BLACK
6
CONTINUOUS
10
122.833
20
-108.996
11
122.46
21
-107.999
0
LINE
8
BLACK
6
CONTINUOUS
10
122.46
20
-107.999
11
122.123
21
-106.989
0
LINE
8
BLACK
6
CONTINUOUS
10
122.123
20
-106.989
11
121.823
21
-105.968
0
LINE
8
BLACK
6
CONTINUOUS
10
121.823
20
-105.968
11
121.561
21
-104.936
0
LINE
8
BLACK
6
CONTINUOUS
10
121.561
20
-104.936
11
121.337
21
-103.895
0
LINE
8
BLACK
6
CONTINUOUS
10
121.337
20
-103.895
11
121.151
21
-102.846
0
LINE
8
BLACK
6
CONTINUOUS
10
121.151
20
-102.846
11
121.004
21
-101.792
0
LINE
8
BLACK
6
CONTINUOUS
10
121.004
20
-101.792
11
120.895
21
-100.733
0
LINE
8
BLACK
6
CONTINUOUS
10
120.895
20
-100.733
11
120.826
21
-99.6705
0
LINE
8
BLACK
6
CONTINUOUS
10
120.826
20
-99.6705
11
120.795
21
-98.6063
0
LINE
8
BLACK
6
CONTINUOUS
10
120.795
20
-98.6063
11
120.795
21
-98.6053
0
LINE
8
BLACK
6
CONTINUOUS
10
120.795
20
-98.6053
11
120.803
21
-97.5416
0
LINE
8
BLACK
6
CONTINUOUS
10
120.803
20
-97.5416
11
120.851
21
-96.478
0
LINE
8
BLACK
6
CONTINUOUS
10
120.99
20
-100.725
11
121.098
21
-101.781
0
LINE
8
BLACK
6
CONTINUOUS
10
121.098
20
-101.781
11
121.245
21
-102.832
0
LINE
8
BLACK
6
CONTINUOUS
10
121.245
20
-102.832
11
121.43
21
-103.877
0
LINE
8
BLACK
6
CONTINUOUS
10
121.43
20
-103.877
11
121.653
21
-104.914
0
LINE
8
BLACK
6
CONTINUOUS
10
121.653
20
-104.914
11
121.915
21
-105.943
0
LINE
8
BLACK
6
CONTINUOUS
10
121.915
20
-105.943
11
122.213
21
-106.961
0
LINE
8
BLACK
6
CONTINUOUS
10
122.213
20
-106.961
11
122.549
21
-107.967
0
LINE
8
BLACK
6
CONTINUOUS
10
122.549
20
-107.967
11
122.922
21
-108.961
0
LINE
8
BLACK
6
CONTINUOUS
10
122.922
20
-108.961
11
123.33
21
-109.94
0
LINE
8
BLACK
6
CONTINUOUS
10
123.33
20
-109.94
11
123.775
21
-110.904
0
LINE
8
BLACK
6
CONTINUOUS
10
123.775
20
-110.904
11
124.254
21
-111.851
0
LINE
8
BLACK
6
CONTINUOUS
10
124.254
20
-111.851
11
124.768
21
-112.78
0
LINE
8
BLACK
6
CONTINUOUS
10
124.768
20
-112.78
11
125.315
21
-113.689
0
LINE
8
BLACK
6
CONTINUOUS
10
125.315
20
-113.689
11
125.895
21
-114.577
0
LINE
8
BLACK
6
CONTINUOUS
10
125.895
20
-114.577
11
126.508
21
-115.444
0
LINE
8
BLACK
6
CONTINUOUS
10
126.508
20
-115.444
11
127.152
21
-116.287
0
LINE
8
BLACK
6
CONTINUOUS
10
127.152
20
-116.287
11
127.826
21
-117.107
0
LINE
8
BLACK
6
CONTINUOUS
10
127.826
20
-117.107
11
128.53
21
-117.901
0
LINE
8
BLACK
6
CONTINUOUS
10
128.53
20
-117.901
11
129.262
21
-118.669
0
LINE
8
BLACK
6
CONTINUOUS
10
129.262
20
-118.669
11
130.022
21
-119.409
0
LINE
8
BLACK
6
CONTINUOUS
10
130.022
20
-119.409
11
130.809
21
-120.121
0
LINE
8
BLACK
6
CONTINUOUS
10
130.809
20
-120.121
11
131.621
21
-120.804
0
LINE
8
BLACK
6
CONTINUOUS
10
131.621
20
-120.804
11
132.458
21
-121.457
0
LINE
8
BLACK
6
CONTINUOUS
10
132.458
20
-121.457
11
133.318
21
-122.078
0
LINE
8
BLACK
6
CONTINUOUS
10
133.318
20
-122.078
11
134.201
21
-122.668
0
LINE
8
BLACK
6
CONTINUOUS
10
134.201
20
-122.668
11
135.104
21
-123.225
0
LINE
8
BLACK
6
CONTINUOUS
10
135.104
20
-123.225
11
136.027
21
-123.748
0
LINE
8
BLACK
6
CONTINUOUS
10
136.027
20
-123.748
11
136.969
21
-124.237
0
LINE
8
BLACK
6
CONTINUOUS
10
136.969
20
-124.237
11
137.928
21
-124.692
0
LINE
8
BLACK
6
CONTINUOUS
10
137.928
20
-124.692
11
138.903
21
-125.111
0
LINE
8
BLACK
6
CONTINUOUS
10
138.903
20
-125.111
11
139.893
21
-125.493
0
LINE
8
BLACK
6
CONTINUOUS
10
139.893
20
-125.493
11
140.896
21
-125.84
0
LINE
8
BLACK
6
CONTINUOUS
10
140.896
20
-125.84
11
141.911
21
-126.149
0
LINE
8
BLACK
6
CONTINUOUS
10
141.911
20
-126.149
11
142.937
21
-126.421
0
LINE
8
BLACK
6
CONTINUOUS
10
142.937
20
-126.421
11
143.972
21
-126.655
0
LINE
8
BLACK
6
CONTINUOUS
10
143.972
20
-126.655
11
145.015
21
-126.852
0
LINE
8
BLACK
6
CONTINUOUS
10
145.015
20
-126.852
11
146.064
21
-127.009
0
LINE
8
BLACK
6
CONTINUOUS
10
146.064
20
-127.009
11
147.118
21
-127.129
0
LINE
8
BLACK
6
CONTINUOUS
10
147.118
20
-127.129
11
148.177
21
-127.209
0
LINE
8
BLACK
6
CONTINUOUS
10
148.177
20
-127.209
11
149.237
21
-127.251
0
LINE
8
BLACK
6
CONTINUOUS
10
149.237
20
-127.251
11
150.298
21
-127.253
0
LINE
8
BLACK
6
CONTINUOUS
10
150.298
20
-127.253
11
151.359
21
-127.217
0
LINE
8
BLACK
6
CONTINUOUS
10
151.359
20
-127.217
11
152.417
21
-127.142
0
LINE
8
BLACK
6
CONTINUOUS
10
152.417
20
-127.142
11
153.472
21
-127.029
0
LINE
8
BLACK
6
CONTINUOUS
10
153.472
20
-127.029
11
154.523
21
-126.876
0
LINE
8
BLACK
6
CONTINUOUS
10
154.523
20
-126.876
11
155.567
21
-126.686
0
LINE
8
BLACK
6
CONTINUOUS
10
155.567
20
-126.686
11
156.603
21
-126.457
0
LINE
8
BLACK
6
CONTINUOUS
10
156.603
20
-126.457
11
157.63
21
-126.19
0
LINE
8
BLACK
6
CONTINUOUS
10
157.63
20
-126.19
11
158.647
21
-125.886
0
LINE
8
BLACK
6
CONTINUOUS
10
158.647
20
-125.886
11
159.651
21
-125.545
0
LINE
8
BLACK
6
CONTINUOUS
10
159.651
20
-125.545
11
160.643
21
-125.168
0
LINE
8
BLACK
6
CONTINUOUS
10
160.643
20
-125.168
11
161.62
21
-124.754
0
LINE
8
BLACK
6
CONTINUOUS
10
161.62
20
-124.754
11
162.582
21
-124.304
0
LINE
8
BLACK
6
CONTINUOUS
10
162.582
20
-124.304
11
163.526
21
-123.82
0
LINE
8
BLACK
6
CONTINUOUS
10
163.526
20
-123.82
11
164.452
21
-123.302
0
LINE
8
BLACK
6
CONTINUOUS
10
164.452
20
-123.302
11
165.358
21
-122.75
0
LINE
8
BLACK
6
CONTINUOUS
10
165.358
20
-122.75
11
166.244
21
-122.165
0
LINE
8
BLACK
6
CONTINUOUS
10
166.244
20
-122.165
11
167.107
21
-121.548
0
LINE
8
BLACK
6
CONTINUOUS
10
167.107
20
-121.548
11
167.947
21
-120.899
0
LINE
8
BLACK
6
CONTINUOUS
10
167.947
20
-120.899
11
168.763
21
-120.221
0
LINE
8
BLACK
6
CONTINUOUS
10
168.763
20
-120.221
11
169.554
21
-119.513
0
LINE
8
BLACK
6
CONTINUOUS
10
169.554
20
-119.513
11
170.318
21
-118.776
0
LINE
8
BLACK
6
CONTINUOUS
10
170.318
20
-118.776
11
171.054
21
-118.012
0
LINE
8
BLACK
6
CONTINUOUS
10
171.054
20
-118.012
11
171.762
21
-117.222
0
LINE
8
BLACK
6
CONTINUOUS
10
171.762
20
-117.222
11
172.441
21
-116.406
0
LINE
8
BLACK
6
CONTINUOUS
10
172.441
20
-116.406
11
173.089
21
-115.566
0
LINE
8
BLACK
6
CONTINUOUS
10
173.089
20
-115.566
11
173.706
21
-114.702
0
LINE
8
BLACK
6
CONTINUOUS
10
173.706
20
-114.702
11
174.291
21
-113.817
0
LINE
8
BLACK
6
CONTINUOUS
10
174.291
20
-113.817
11
174.843
21
-112.911
0
LINE
8
BLACK
6
CONTINUOUS
10
174.843
20
-112.911
11
175.361
21
-111.985
0
LINE
8
BLACK
6
CONTINUOUS
10
175.361
20
-111.985
11
175.846
21
-111.04
0
LINE
8
BLACK
6
CONTINUOUS
10
175.846
20
-111.04
11
176.295
21
-110.079
0
LINE
8
BLACK
6
CONTINUOUS
10
176.295
20
-110.079
11
176.709
21
-109.102
0
LINE
8
BLACK
6
CONTINUOUS
10
176.709
20
-109.102
11
177.086
21
-108.11
0
LINE
8
BLACK
6
CONTINUOUS
10
177.086
20
-108.11
11
177.428
21
-107.105
0
LINE
8
BLACK
6
CONTINUOUS
10
177.428
20
-107.105
11
177.732
21
-106.089
0
LINE
8
BLACK
6
CONTINUOUS
10
177.732
20
-106.089
11
177.998
21
-105.061
0
LINE
8
BLACK
6
CONTINUOUS
10
177.998
20
-105.061
11
178.227
21
-104.025
0
LINE
8
BLACK
6
CONTINUOUS
10
178.227
20
-104.025
11
178.418
21
-102.981
0
LINE
8
BLACK
6
CONTINUOUS
10
178.418
20
-102.981
11
178.57
21
-101.931
0
LINE
8
BLACK
6
CONTINUOUS
10
178.57
20
-101.931
11
178.684
21
-100.876
0
LINE
8
BLACK
6
CONTINUOUS
10
178.684
20
-100.876
11
178.759
21
-99.8175
0
LINE
8
BLACK
6
CONTINUOUS
10
178.759
20
-99.8175
11
178.795
21
-98.7569
0
LINE
8
BLACK
6
CONTINUOUS
10
178.795
20
-98.7569
11
178.798
21
-98.3021
0
LINE
8
BLACK
6
CONTINUOUS
10
178.798
20
-98.3021
11
178.779
21
-97.2411
0
LINE
8
BLACK
6
CONTINUOUS
10
178.779
20
-97.2411
11
178.721
21
-96.1815
0
LINE
8
BLACK
6
CONTINUOUS
10
178.721
20
-96.1815
11
178.623
21
-95.1247
0
LINE
8
BLACK
6
CONTINUOUS
10
178.623
20
-95.1247
11
178.488
21
-94.0723
0
LINE
8
BLACK
6
CONTINUOUS
10
178.488
20
-94.0723
11
178.313
21
-93.0255
0
LINE
8
BLACK
6
CONTINUOUS
10
178.313
20
-93.0255
11
178.101
21
-91.9858
0
LINE
8
BLACK
6
CONTINUOUS
10
178.101
20
-91.9858
11
177.851
21
-90.9545
0
LINE
8
BLACK
6
CONTINUOUS
10
177.851
20
-90.9545
11
177.562
21
-89.9332
0
LINE
8
BLACK
6
CONTINUOUS
10
177.562
20
-89.9332
11
177.237
21
-88.9231
0
LINE
8
BLACK
6
CONTINUOUS
10
177.237
20
-88.9231
11
176.875
21
-87.9256
0
LINE
8
BLACK
6
CONTINUOUS
10
176.875
20
-87.9256
11
176.477
21
-86.942
0
LINE
8
BLACK
6
CONTINUOUS
10
176.477
20
-86.942
11
176.043
21
-85.9737
0
LINE
8
BLACK
6
CONTINUOUS
10
176.043
20
-85.9737
11
175.573
21
-85.0219
0
LINE
8
BLACK
6
CONTINUOUS
10
175.573
20
-85.0219
11
175.069
21
-84.088
0
LINE
8
BLACK
6
CONTINUOUS
10
175.069
20
-84.088
11
174.531
21
-83.1732
0
LINE
8
BLACK
6
CONTINUOUS
10
174.531
20
-83.1732
11
173.961
21
-82.2787
0
LINE
8
BLACK
6
CONTINUOUS
10
173.961
20
-82.2787
11
173.357
21
-81.4057
0
LINE
8
BLACK
6
CONTINUOUS
10
173.357
20
-81.4057
11
172.722
21
-80.5554
0
LINE
8
BLACK
6
CONTINUOUS
10
172.722
20
-80.5554
11
172.057
21
-79.7289
0
LINE
8
BLACK
6
CONTINUOUS
10
172.057
20
-79.7289
11
171.361
21
-78.9274
0
LINE
8
BLACK
6
CONTINUOUS
10
171.361
20
-78.9274
11
170.637
21
-78.152
0
LINE
8
BLACK
6
CONTINUOUS
10
170.637
20
-78.152
11
169.884
21
-77.4035
0
LINE
8
BLACK
6
CONTINUOUS
10
169.884
20
-77.4035
11
169.105
21
-76.6832
0
LINE
8
BLACK
6
CONTINUOUS
10
169.105
20
-76.6832
11
168.3
21
-75.9919
0
LINE
8
BLACK
6
CONTINUOUS
10
168.3
20
-75.9919
11
167.47
21
-75.3306
0
LINE
8
BLACK
6
CONTINUOUS
10
167.47
20
-75.3306
11
166.616
21
-74.7001
0
LINE
8
BLACK
6
CONTINUOUS
10
166.616
20
-74.7001
11
165.74
21
-74.1013
0
LINE
8
BLACK
6
CONTINUOUS
10
165.74
20
-74.1013
11
164.843
21
-73.5351
0
LINE
8
BLACK
6
CONTINUOUS
10
164.843
20
-73.5351
11
163.925
21
-73.0021
0
LINE
8
BLACK
6
CONTINUOUS
10
163.925
20
-73.0021
11
162.989
21
-72.503
0
LINE
8
BLACK
6
CONTINUOUS
10
162.989
20
-72.503
11
162.034
21
-72.0387
0
LINE
8
BLACK
6
CONTINUOUS
10
162.034
20
-72.0387
11
161.064
21
-71.6096
0
LINE
8
BLACK
6
CONTINUOUS
10
161.064
20
-71.6096
11
160.078
21
-71.2163
0
LINE
8
BLACK
6
CONTINUOUS
10
160.078
20
-71.2163
11
159.079
21
-70.8595
0
LINE
8
BLACK
6
CONTINUOUS
10
159.079
20
-70.8595
11
158.067
21
-70.5395
0
LINE
8
BLACK
6
CONTINUOUS
10
158.067
20
-70.5395
11
157.044
21
-70.2568
0
LINE
8
BLACK
6
CONTINUOUS
10
157.044
20
-70.2568
11
156.012
21
-70.0118
0
LINE
8
BLACK
6
CONTINUOUS
10
156.012
20
-70.0118
11
154.971
21
-69.8047
0
LINE
8
BLACK
6
CONTINUOUS
10
154.971
20
-69.8047
11
153.923
21
-69.636
0
LINE
8
BLACK
6
CONTINUOUS
10
153.923
20
-69.636
11
152.87
21
-69.5058
0
LINE
8
BLACK
6
CONTINUOUS
10
152.87
20
-69.5058
11
151.813
21
-69.4142
0
LINE
8
BLACK
6
CONTINUOUS
10
151.813
20
-69.4142
11
150.753
21
-69.3614
0
LINE
8
BLACK
6
CONTINUOUS
10
150.753
20
-69.3614
11
149.692
21
-69.3475
0
LINE
8
BLACK
6
CONTINUOUS
10
149.692
20
-69.3475
11
148.631
21
-69.3725
0
LINE
8
BLACK
6
CONTINUOUS
10
148.631
20
-69.3725
11
147.572
21
-69.4364
0
LINE
8
BLACK
6
CONTINUOUS
10
147.572
20
-69.4364
11
146.515
21
-69.539
0
LINE
8
BLACK
6
CONTINUOUS
10
146.515
20
-69.539
11
145.464
21
-69.6803
0
LINE
8
BLACK
6
CONTINUOUS
10
145.464
20
-69.6803
11
144.418
21
-69.86
0
LINE
8
BLACK
6
CONTINUOUS
10
144.418
20
-69.86
11
143.379
21
-70.0779
0
LINE
8
BLACK
6
CONTINUOUS
10
143.379
20
-70.0779
11
142.349
21
-70.3337
0
LINE
8
BLACK
6
CONTINUOUS
10
142.349
20
-70.3337
11
141.329
21
-70.6271
0
LINE
8
BLACK
6
CONTINUOUS
10
141.329
20
-70.6271
11
140.321
21
-70.9577
0
LINE
8
BLACK
6
CONTINUOUS
10
140.321
20
-70.9577
11
139.325
21
-71.325
0
LINE
8
BLACK
6
CONTINUOUS
10
139.325
20
-71.325
11
138.344
21
-71.7285
0
LINE
8
BLACK
6
CONTINUOUS
10
138.344
20
-71.7285
11
137.378
21
-72.1678
0
LINE
8
BLACK
6
CONTINUOUS
10
137.378
20
-72.1678
11
136.429
21
-72.6421
0
LINE
8
BLACK
6
CONTINUOUS
10
136.429
20
-72.6421
11
135.497
21
-73.1509
0
LINE
8
BLACK
6
CONTINUOUS
10
135.497
20
-73.1509
11
134.585
21
-73.6935
0
LINE
8
BLACK
6
CONTINUOUS
10
134.585
20
-73.6935
11
133.694
21
-74.2691
0
LINE
8
BLACK
6
CONTINUOUS
10
133.694
20
-74.2691
11
132.824
21
-74.877
0
LINE
8
BLACK
6
CONTINUOUS
10
132.824
20
-74.877
11
131.977
21
-75.5164
0
LINE
8
BLACK
6
CONTINUOUS
10
131.977
20
-75.5164
11
131.154
21
-76.1864
0
LINE
8
BLACK
6
CONTINUOUS
10
131.154
20
-76.1864
11
130.356
21
-76.8861
0
LINE
8
BLACK
6
CONTINUOUS
10
130.356
20
-76.8861
11
129.585
21
-77.6146
0
LINE
8
BLACK
6
CONTINUOUS
10
129.585
20
-77.6146
11
128.84
21
-78.3708
0
LINE
8
BLACK
6
CONTINUOUS
10
128.84
20
-78.3708
11
128.124
21
-79.1538
0
LINE
8
BLACK
6
CONTINUOUS
10
128.124
20
-79.1538
11
127.437
21
-79.9626
0
LINE
8
BLACK
6
CONTINUOUS
10
127.437
20
-79.9626
11
126.78
21
-80.7959
0
LINE
8
BLACK
6
CONTINUOUS
10
126.78
20
-80.7959
11
126.154
21
-81.6528
0
LINE
8
BLACK
6
CONTINUOUS
10
126.154
20
-81.6528
11
125.56
21
-82.5321
0
LINE
8
BLACK
6
CONTINUOUS
10
125.56
20
-82.5321
11
124.998
21
-83.4325
0
LINE
8
BLACK
6
CONTINUOUS
10
124.998
20
-83.4325
11
124.47
21
-84.3529
0
LINE
8
BLACK
6
CONTINUOUS
10
124.47
20
-84.3529
11
123.976
21
-85.2921
0
LINE
8
BLACK
6
CONTINUOUS
10
123.976
20
-85.2921
11
123.516
21
-86.2487
0
LINE
8
BLACK
6
CONTINUOUS
10
123.516
20
-86.2487
11
123.092
21
-87.2215
0
LINE
8
BLACK
6
CONTINUOUS
10
123.092
20
-87.2215
11
122.704
21
-88.2092
0
LINE
8
BLACK
6
CONTINUOUS
10
122.704
20
-88.2092
11
122.353
21
-89.2104
0
LINE
8
BLACK
6
CONTINUOUS
10
122.353
20
-89.2104
11
122.038
21
-90.2239
0
LINE
8
BLACK
6
CONTINUOUS
10
122.038
20
-90.2239
11
121.761
21
-91.2482
0
LINE
8
BLACK
6
CONTINUOUS
10
121.761
20
-91.2482
11
121.521
21
-92.282
0
LINE
8
BLACK
6
CONTINUOUS
10
121.521
20
-92.282
11
121.32
21
-93.3239
0
LINE
8
BLACK
6
CONTINUOUS
10
121.32
20
-93.3239
11
121.156
21
-94.3724
0
LINE
8
BLACK
6
CONTINUOUS
10
121.156
20
-94.3724
11
121.032
21
-95.4263
0
LINE
8
BLACK
6
CONTINUOUS
10
121.032
20
-95.4263
11
120.946
21
-96.484
0
LINE
8
BLACK
6
CONTINUOUS
10
120.946
20
-96.484
11
120.898
21
-97.5441
0
LINE
8
BLACK
6
CONTINUOUS
10
120.898
20
-97.5441
11
120.89
21
-98.6053
0
LINE
8
BLACK
6
CONTINUOUS
10
120.89
20
-98.6053
11
120.921
21
-99.666
0
LINE
8
BLACK
6
CONTINUOUS
10
120.921
20
-99.666
11
120.99
21
-100.725
0
LINE
8
BLACK
6
CONTINUOUS
10
125.824
20
-97.0853
11
125.892
21
-96.1224
0
LINE
8
BLACK
6
CONTINUOUS
10
125.892
20
-96.1224
11
125.999
21
-95.1629
0
LINE
8
BLACK
6
CONTINUOUS
10
125.999
20
-95.1629
11
126.144
21
-94.2085
0
LINE
8
BLACK
6
CONTINUOUS
10
126.144
20
-94.2085
11
126.328
21
-93.2608
0
LINE
8
BLACK
6
CONTINUOUS
10
126.328
20
-93.2608
11
126.549
21
-92.3211
0
LINE
8
BLACK
6
CONTINUOUS
10
126.549
20
-92.3211
11
126.808
21
-91.3911
0
LINE
8
BLACK
6
CONTINUOUS
10
126.808
20
-91.3911
11
127.104
21
-90.4722
0
LINE
8
BLACK
6
CONTINUOUS
10
127.104
20
-90.4722
11
127.436
21
-89.5659
0
LINE
8
BLACK
6
CONTINUOUS
10
127.436
20
-89.5659
11
127.805
21
-88.6737
0
LINE
8
BLACK
6
CONTINUOUS
10
127.805
20
-88.6737
11
128.209
21
-87.797
0
LINE
8
BLACK
6
CONTINUOUS
10
128.209
20
-87.797
11
128.648
21
-86.9372
0
LINE
8
BLACK
6
CONTINUOUS
10
128.648
20
-86.9372
11
129.121
21
-86.0958
0
LINE
8
BLACK
6
CONTINUOUS
10
129.121
20
-86.0958
11
129.628
21
-85.274
0
LINE
8
BLACK
6
CONTINUOUS
10
129.628
20
-85.274
11
130.167
21
-84.4732
0
LINE
8
BLACK
6
CONTINUOUS
10
130.167
20
-84.4732
11
130.738
21
-83.6947
0
LINE
8
BLACK
6
CONTINUOUS
10
130.738
20
-83.6947
11
131.339
21
-82.9397
0
LINE
8
BLACK
6
CONTINUOUS
10
131.339
20
-82.9397
11
131.971
21
-82.2095
0
LINE
8
BLACK
6
CONTINUOUS
10
131.971
20
-82.2095
11
132.631
21
-81.5052
0
LINE
8
BLACK
6
CONTINUOUS
10
132.631
20
-81.5052
11
133.319
21
-80.828
0
LINE
8
BLACK
6
CONTINUOUS
10
133.319
20
-80.828
11
134.033
21
-80.1789
0
LINE
8
BLACK
6
CONTINUOUS
10
134.033
20
-80.1789
11
134.774
21
-79.559
0
LINE
8
BLACK
6
CONTINUOUS
10
134.774
20
-79.559
11
135.538
21
-78.9693
0
LINE
8
BLACK
6
CONTINUOUS
10
135.538
20
-78.9693
11
136.325
21
-78.4108
0
LINE
8
BLACK
6
CONTINUOUS
10
136.325
20
-78.4108
11
137.134
21
-77.8843
0
LINE
8
BLACK
6
CONTINUOUS
10
137.134
20
-77.8843
11
137.964
21
-77.3907
0
LINE
8
BLACK
6
CONTINUOUS
10
137.964
20
-77.3907
11
138.813
21
-76.9308
0
LINE
8
BLACK
6
CONTINUOUS
10
138.813
20
-76.9308
11
139.679
21
-76.5054
0
LINE
8
BLACK
6
CONTINUOUS
10
139.679
20
-76.5054
11
140.562
21
-76.115
0
LINE
8
BLACK
6
CONTINUOUS
10
140.562
20
-76.115
11
141.46
21
-75.7604
0
LINE
8
BLACK
6
CONTINUOUS
10
141.46
20
-75.7604
11
142.372
21
-75.4422
0
LINE
8
BLACK
6
CONTINUOUS
10
142.372
20
-75.4422
11
143.295
21
-75.1607
0
LINE
8
BLACK
6
CONTINUOUS
10
143.295
20
-75.1607
11
144.229
21
-74.9166
0
LINE
8
BLACK
6
CONTINUOUS
10
144.229
20
-74.9166
11
145.172
21
-74.7101
0
LINE
8
BLACK
6
CONTINUOUS
10
145.172
20
-74.7101
11
146.123
21
-74.5416
0
LINE
8
BLACK
6
CONTINUOUS
10
146.123
20
-74.5416
11
147.079
21
-74.4115
0
LINE
8
BLACK
6
CONTINUOUS
10
147.079
20
-74.4115
11
148.04
21
-74.3198
0
LINE
8
BLACK
6
CONTINUOUS
10
148.04
20
-74.3198
11
149.004
21
-74.2667
0
LINE
8
BLACK
6
CONTINUOUS
10
149.004
20
-74.2667
11
149.969
21
-74.2524
0
LINE
8
BLACK
6
CONTINUOUS
10
149.969
20
-74.2524
11
150.934
21
-74.2768
0
LINE
8
BLACK
6
CONTINUOUS
10
150.934
20
-74.2768
11
151.898
21
-74.34
0
LINE
8
BLACK
6
CONTINUOUS
10
151.898
20
-74.34
11
152.858
21
-74.4417
0
LINE
8
BLACK
6
CONTINUOUS
10
152.858
20
-74.4417
11
153.813
21
-74.5819
0
LINE
8
BLACK
6
CONTINUOUS
10
153.813
20
-74.5819
11
154.761
21
-74.7603
0
LINE
8
BLACK
6
CONTINUOUS
10
154.761
20
-74.7603
11
155.702
21
-74.9767
0
LINE
8
BLACK
6
CONTINUOUS
10
155.702
20
-74.9767
11
156.634
21
-75.2306
0
LINE
8
BLACK
6
CONTINUOUS
10
156.634
20
-75.2306
11
157.554
21
-75.5217
0
LINE
8
BLACK
6
CONTINUOUS
10
157.554
20
-75.5217
11
158.462
21
-75.8495
0
LINE
8
BLACK
6
CONTINUOUS
10
158.462
20
-75.8495
11
159.356
21
-76.2134
0
LINE
8
BLACK
6
CONTINUOUS
10
159.356
20
-76.2134
11
160.235
21
-76.613
0
LINE
8
BLACK
6
CONTINUOUS
10
160.235
20
-76.613
11
161.097
21
-77.0475
0
LINE
8
BLACK
6
CONTINUOUS
10
161.097
20
-77.0475
11
161.941
21
-77.5163
0
LINE
8
BLACK
6
CONTINUOUS
10
161.941
20
-77.5163
11
162.765
21
-78.0185
0
LINE
8
BLACK
6
CONTINUOUS
10
162.765
20
-78.0185
11
163.569
21
-78.5534
0
LINE
8
BLACK
6
CONTINUOUS
10
163.569
20
-78.5534
11
164.35
21
-79.1202
0
LINE
8
BLACK
6
CONTINUOUS
10
164.35
20
-79.1202
11
165.109
21
-79.7178
0
LINE
8
BLACK
6
CONTINUOUS
10
165.109
20
-79.7178
11
165.842
21
-80.3454
0
LINE
8
BLACK
6
CONTINUOUS
10
165.842
20
-80.3454
11
166.55
21
-81.002
0
LINE
8
BLACK
6
CONTINUOUS
10
166.55
20
-81.002
11
167.231
21
-81.6864
0
LINE
8
BLACK
6
CONTINUOUS
10
167.231
20
-81.6864
11
167.884
21
-82.3975
0
LINE
8
BLACK
6
CONTINUOUS
10
167.884
20
-82.3975
11
168.507
21
-83.1343
0
LINE
8
BLACK
6
CONTINUOUS
10
168.507
20
-83.1343
11
169.101
21
-83.8956
0
LINE
8
BLACK
6
CONTINUOUS
10
169.101
20
-83.8956
11
169.664
21
-84.68
0
LINE
8
BLACK
6
CONTINUOUS
10
169.664
20
-84.68
11
170.194
21
-85.4864
0
LINE
8
BLACK
6
CONTINUOUS
10
170.194
20
-85.4864
11
170.692
21
-86.3134
0
LINE
8
BLACK
6
CONTINUOUS
10
170.692
20
-86.3134
11
171.157
21
-87.1598
0
LINE
8
BLACK
6
CONTINUOUS
10
171.157
20
-87.1598
11
171.587
21
-88.0241
0
LINE
8
BLACK
6
CONTINUOUS
10
171.587
20
-88.0241
11
171.981
21
-88.905
0
LINE
8
BLACK
6
CONTINUOUS
10
171.981
20
-88.905
11
172.341
21
-89.801
0
LINE
8
BLACK
6
CONTINUOUS
10
172.341
20
-89.801
11
172.664
21
-90.7107
0
LINE
8
BLACK
6
CONTINUOUS
10
172.664
20
-90.7107
11
172.95
21
-91.6327
0
LINE
8
BLACK
6
CONTINUOUS
10
172.95
20
-91.6327
11
173.199
21
-92.5653
0
LINE
8
BLACK
6
CONTINUOUS
10
173.199
20
-92.5653
11
173.411
21
-93.5073
0
LINE
8
BLACK
6
CONTINUOUS
10
173.411
20
-93.5073
11
173.584
21
-94.4569
0
LINE
8
BLACK
6
CONTINUOUS
10
173.584
20
-94.4569
11
173.719
21
-95.4128
0
LINE
8
BLACK
6
CONTINUOUS
10
173.719
20
-95.4128
11
173.816
21
-96.3733
0
LINE
8
BLACK
6
CONTINUOUS
10
173.816
20
-96.3733
11
173.874
21
-97.3369
0
LINE
8
BLACK
6
CONTINUOUS
10
173.874
20
-97.3369
11
173.893
21
-98.3021
0
LINE
8
BLACK
6
CONTINUOUS
10
173.893
20
-98.3021
11
173.888
21
-98.8057
0
LINE
8
BLACK
6
CONTINUOUS
10
173.888
20
-98.8057
11
173.848
21
-99.7703
0
LINE
8
BLACK
6
CONTINUOUS
10
173.848
20
-99.7703
11
173.77
21
-100.732
0
LINE
8
BLACK
6
CONTINUOUS
10
173.77
20
-100.732
11
173.653
21
-101.691
0
LINE
8
BLACK
6
CONTINUOUS
10
173.653
20
-101.691
11
173.498
21
-102.644
0
LINE
8
BLACK
6
CONTINUOUS
10
173.498
20
-102.644
11
173.305
21
-103.589
0
LINE
8
BLACK
6
CONTINUOUS
10
173.305
20
-103.589
11
173.074
21
-104.527
0
LINE
8
BLACK
6
CONTINUOUS
10
173.074
20
-104.527
11
172.805
21
-105.454
0
LINE
8
BLACK
6
CONTINUOUS
10
172.805
20
-105.454
11
172.5
21
-106.37
0
LINE
8
BLACK
6
CONTINUOUS
10
172.5
20
-106.37
11
172.158
21
-107.272
0
LINE
8
BLACK
6
CONTINUOUS
10
172.158
20
-107.272
11
171.78
21
-108.161
0
LINE
8
BLACK
6
CONTINUOUS
10
171.78
20
-108.161
11
171.367
21
-109.033
0
LINE
8
BLACK
6
CONTINUOUS
10
171.367
20
-109.033
11
170.919
21
-109.888
0
LINE
8
BLACK
6
CONTINUOUS
10
170.919
20
-109.888
11
170.437
21
-110.725
0
LINE
8
BLACK
6
CONTINUOUS
10
170.437
20
-110.725
11
169.921
21
-111.541
0
LINE
8
BLACK
6
CONTINUOUS
10
169.921
20
-111.541
11
169.374
21
-112.336
0
LINE
8
BLACK
6
CONTINUOUS
10
169.374
20
-112.336
11
168.795
21
-113.109
0
LINE
8
BLACK
6
CONTINUOUS
10
168.795
20
-113.109
11
168.186
21
-113.857
0
LINE
8
BLACK
6
CONTINUOUS
10
168.186
20
-113.857
11
167.546
21
-114.581
0
LINE
8
BLACK
6
CONTINUOUS
10
167.546
20
-114.581
11
166.879
21
-115.278
0
LINE
8
BLACK
6
CONTINUOUS
10
166.879
20
-115.278
11
166.184
21
-115.948
0
LINE
8
BLACK
6
CONTINUOUS
10
166.184
20
-115.948
11
165.463
21
-116.59
0
LINE
8
BLACK
6
CONTINUOUS
10
165.463
20
-116.59
11
164.716
21
-117.202
0
LINE
8
BLACK
6
CONTINUOUS
10
164.716
20
-117.202
11
163.946
21
-117.784
0
LINE
8
BLACK
6
CONTINUOUS
10
163.946
20
-117.784
11
163.152
21
-118.334
0
LINE
8
BLACK
6
CONTINUOUS
10
163.152
20
-118.334
11
162.338
21
-118.852
0
LINE
8
BLACK
6
CONTINUOUS
10
162.338
20
-118.852
11
161.503
21
-119.337
0
LINE
8
BLACK
6
CONTINUOUS
10
161.503
20
-119.337
11
160.649
21
-119.788
0
LINE
8
BLACK
6
CONTINUOUS
10
160.649
20
-119.788
11
159.779
21
-120.204
0
LINE
8
BLACK
6
CONTINUOUS
10
159.779
20
-120.204
11
158.892
21
-120.585
0
LINE
8
BLACK
6
CONTINUOUS
10
158.892
20
-120.585
11
157.99
21
-120.93
0
LINE
8
BLACK
6
CONTINUOUS
10
157.99
20
-120.93
11
157.075
21
-121.239
0
LINE
8
BLACK
6
CONTINUOUS
10
157.075
20
-121.239
11
156.149
21
-121.511
0
LINE
8
BLACK
6
CONTINUOUS
10
156.149
20
-121.511
11
155.213
21
-121.745
0
LINE
8
BLACK
6
CONTINUOUS
10
155.213
20
-121.745
11
154.267
21
-121.942
0
LINE
8
BLACK
6
CONTINUOUS
10
154.267
20
-121.942
11
153.315
21
-122.1
0
LINE
8
BLACK
6
CONTINUOUS
10
153.315
20
-122.1
11
152.357
21
-122.22
0
LINE
8
BLACK
6
CONTINUOUS
10
152.357
20
-122.22
11
151.395
21
-122.302
0
LINE
8
BLACK
6
CONTINUOUS
10
151.395
20
-122.302
11
150.431
21
-122.345
0
LINE
8
BLACK
6
CONTINUOUS
10
150.431
20
-122.345
11
149.466
21
-122.349
0
LINE
8
BLACK
6
CONTINUOUS
10
149.466
20
-122.349
11
148.501
21
-122.315
0
LINE
8
BLACK
6
CONTINUOUS
10
148.501
20
-122.315
11
147.538
21
-122.241
0
LINE
8
BLACK
6
CONTINUOUS
10
147.538
20
-122.241
11
146.579
21
-122.13
0
LINE
8
BLACK
6
CONTINUOUS
10
146.579
20
-122.13
11
145.626
21
-121.979
0
LINE
8
BLACK
6
CONTINUOUS
10
145.626
20
-121.979
11
144.679
21
-121.791
0
LINE
8
BLACK
6
CONTINUOUS
10
144.679
20
-121.791
11
143.74
21
-121.565
0
LINE
8
BLACK
6
CONTINUOUS
10
143.74
20
-121.565
11
142.812
21
-121.301
0
LINE
8
BLACK
6
CONTINUOUS
10
142.812
20
-121.301
11
141.894
21
-121
0
LINE
8
BLACK
6
CONTINUOUS
10
141.894
20
-121
11
140.99
21
-120.663
0
LINE
8
BLACK
6
CONTINUOUS
10
140.99
20
-120.663
11
140.1
21
-120.29
0
LINE
8
BLACK
6
CONTINUOUS
10
140.1
20
-120.29
11
139.225
21
-119.881
0
LINE
8
BLACK
6
CONTINUOUS
10
139.225
20
-119.881
11
138.368
21
-119.438
0
LINE
8
BLACK
6
CONTINUOUS
10
138.368
20
-119.438
11
137.529
21
-118.96
0
LINE
8
BLACK
6
CONTINUOUS
10
137.529
20
-118.96
11
136.71
21
-118.449
0
LINE
8
BLACK
6
CONTINUOUS
10
136.71
20
-118.449
11
135.912
21
-117.906
0
LINE
8
BLACK
6
CONTINUOUS
10
135.912
20
-117.906
11
135.136
21
-117.331
0
LINE
8
BLACK
6
CONTINUOUS
10
135.136
20
-117.331
11
134.384
21
-116.725
0
LINE
8
BLACK
6
CONTINUOUS
10
134.384
20
-116.725
11
133.657
21
-116.09
0
LINE
8
BLACK
6
CONTINUOUS
10
133.657
20
-116.09
11
132.957
21
-115.426
0
LINE
8
BLACK
6
CONTINUOUS
10
132.957
20
-115.426
11
132.283
21
-114.735
0
LINE
8
BLACK
6
CONTINUOUS
10
132.283
20
-114.735
11
131.638
21
-114.017
0
LINE
8
BLACK
6
CONTINUOUS
10
131.638
20
-114.017
11
131.022
21
-113.274
0
LINE
8
BLACK
6
CONTINUOUS
10
131.022
20
-113.274
11
130.436
21
-112.506
0
LINE
8
BLACK
6
CONTINUOUS
10
130.436
20
-112.506
11
129.882
21
-111.716
0
LINE
8
BLACK
6
CONTINUOUS
10
129.882
20
-111.716
11
129.359
21
-110.904
0
LINE
8
BLACK
6
CONTINUOUS
10
129.359
20
-110.904
11
128.87
21
-110.072
0
LINE
8
BLACK
6
CONTINUOUS
10
128.87
20
-110.072
11
128.415
21
-109.221
0
LINE
8
BLACK
6
CONTINUOUS
10
128.415
20
-109.221
11
127.994
21
-108.352
0
LINE
8
BLACK
6
CONTINUOUS
10
127.994
20
-108.352
11
127.608
21
-107.467
0
LINE
8
BLACK
6
CONTINUOUS
10
127.608
20
-107.467
11
127.258
21
-106.567
0
LINE
8
BLACK
6
CONTINUOUS
10
127.258
20
-106.567
11
126.945
21
-105.654
0
LINE
8
BLACK
6
CONTINUOUS
10
126.945
20
-105.654
11
126.668
21
-104.729
0
LINE
8
BLACK
6
CONTINUOUS
10
126.668
20
-104.729
11
126.429
21
-103.794
0
LINE
8
BLACK
6
CONTINUOUS
10
126.429
20
-103.794
11
126.227
21
-102.85
0
LINE
8
BLACK
6
CONTINUOUS
10
126.227
20
-102.85
11
126.064
21
-101.898
0
LINE
8
BLACK
6
CONTINUOUS
10
126.064
20
-101.898
11
125.939
21
-100.941
0
LINE
8
BLACK
6
CONTINUOUS
10
125.939
20
-100.941
11
125.852
21
-99.9797
0
LINE
8
BLACK
6
CONTINUOUS
10
125.852
20
-99.9797
11
125.804
21
-99.0155
0
LINE
8
BLACK
6
CONTINUOUS
10
125.804
20
-99.0155
11
125.795
21
-98.0512
0
LINE
8
BLACK
6
CONTINUOUS
10
125.795
20
-98.0512
11
125.795
21
-98.0502
0
LINE
8
BLACK
6
CONTINUOUS
10
125.795
20
-98.0502
11
125.824
21
-97.0853
0
LINE
8
BLACK
6
CONTINUOUS
10
125.947
20
-99.9731
11
126.033
21
-100.931
0
LINE
8
BLACK
6
CONTINUOUS
10
126.033
20
-100.931
11
126.158
21
-101.884
0
LINE
8
BLACK
6
CONTINUOUS
10
126.158
20
-101.884
11
126.321
21
-102.832
0
LINE
8
BLACK
6
CONTINUOUS
10
126.321
20
-102.832
11
126.521
21
-103.772
0
LINE
8
BLACK
6
CONTINUOUS
10
126.521
20
-103.772
11
126.76
21
-104.704
0
LINE
8
BLACK
6
CONTINUOUS
10
126.76
20
-104.704
11
127.035
21
-105.625
0
LINE
8
BLACK
6
CONTINUOUS
10
127.035
20
-105.625
11
127.347
21
-106.534
0
LINE
8
BLACK
6
CONTINUOUS
10
127.347
20
-106.534
11
127.696
21
-107.431
0
LINE
8
BLACK
6
CONTINUOUS
10
127.696
20
-107.431
11
128.08
21
-108.312
0
LINE
8
BLACK
6
CONTINUOUS
10
128.08
20
-108.312
11
128.499
21
-109.177
0
LINE
8
BLACK
6
CONTINUOUS
10
128.499
20
-109.177
11
128.953
21
-110.025
0
LINE
8
BLACK
6
CONTINUOUS
10
128.953
20
-110.025
11
129.44
21
-110.854
0
LINE
8
BLACK
6
CONTINUOUS
10
129.44
20
-110.854
11
129.96
21
-111.663
0
LINE
8
BLACK
6
CONTINUOUS
10
129.96
20
-111.663
11
130.513
21
-112.45
0
LINE
8
BLACK
6
CONTINUOUS
10
130.513
20
-112.45
11
131.096
21
-113.214
0
LINE
8
BLACK
6
CONTINUOUS
10
131.096
20
-113.214
11
131.71
21
-113.955
0
LINE
8
BLACK
6
CONTINUOUS
10
131.71
20
-113.955
11
132.352
21
-114.67
0
LINE
8
BLACK
6
CONTINUOUS
10
132.352
20
-114.67
11
133.023
21
-115.359
0
LINE
8
BLACK
6
CONTINUOUS
10
133.023
20
-115.359
11
133.721
21
-116.02
0
LINE
8
BLACK
6
CONTINUOUS
10
133.721
20
-116.02
11
134.445
21
-116.653
0
LINE
8
BLACK
6
CONTINUOUS
10
134.445
20
-116.653
11
135.194
21
-117.256
0
LINE
8
BLACK
6
CONTINUOUS
10
135.194
20
-117.256
11
135.967
21
-117.828
0
LINE
8
BLACK
6
CONTINUOUS
10
135.967
20
-117.828
11
136.761
21
-118.37
0
LINE
8
BLACK
6
CONTINUOUS
10
136.761
20
-118.37
11
137.577
21
-118.878
0
LINE
8
BLACK
6
CONTINUOUS
10
137.577
20
-118.878
11
138.413
21
-119.354
0
LINE
8
BLACK
6
CONTINUOUS
10
138.413
20
-119.354
11
139.267
21
-119.796
0
LINE
8
BLACK
6
CONTINUOUS
10
139.267
20
-119.796
11
140.138
21
-120.203
0
LINE
8
BLACK
6
CONTINUOUS
10
140.138
20
-120.203
11
141.025
21
-120.575
0
LINE
8
BLACK
6
CONTINUOUS
10
141.025
20
-120.575
11
141.926
21
-120.911
0
LINE
8
BLACK
6
CONTINUOUS
10
141.926
20
-120.911
11
142.84
21
-121.21
0
LINE
8
BLACK
6
CONTINUOUS
10
142.84
20
-121.21
11
143.765
21
-121.473
0
LINE
8
BLACK
6
CONTINUOUS
10
143.765
20
-121.473
11
144.699
21
-121.698
0
LINE
8
BLACK
6
CONTINUOUS
10
144.699
20
-121.698
11
145.642
21
-121.886
0
LINE
8
BLACK
6
CONTINUOUS
10
145.642
20
-121.886
11
146.592
21
-122.035
0
LINE
8
BLACK
6
CONTINUOUS
10
146.592
20
-122.035
11
147.547
21
-122.147
0
LINE
8
BLACK
6
CONTINUOUS
10
147.547
20
-122.147
11
148.506
21
-122.22
0
LINE
8
BLACK
6
CONTINUOUS
10
148.506
20
-122.22
11
149.467
21
-122.254
0
LINE
8
BLACK
6
CONTINUOUS
10
149.467
20
-122.254
11
150.429
21
-122.25
0
LINE
8
BLACK
6
CONTINUOUS
10
150.429
20
-122.25
11
151.389
21
-122.207
0
LINE
8
BLACK
6
CONTINUOUS
10
151.389
20
-122.207
11
152.347
21
-122.126
0
LINE
8
BLACK
6
CONTINUOUS
10
152.347
20
-122.126
11
153.301
21
-122.006
0
LINE
8
BLACK
6
CONTINUOUS
10
153.301
20
-122.006
11
154.25
21
-121.848
0
LINE
8
BLACK
6
CONTINUOUS
10
154.25
20
-121.848
11
155.191
21
-121.652
0
LINE
8
BLACK
6
CONTINUOUS
10
155.191
20
-121.652
11
156.124
21
-121.419
0
LINE
8
BLACK
6
CONTINUOUS
10
156.124
20
-121.419
11
157.047
21
-121.148
0
LINE
8
BLACK
6
CONTINUOUS
10
157.047
20
-121.148
11
157.958
21
-120.841
0
LINE
8
BLACK
6
CONTINUOUS
10
157.958
20
-120.841
11
158.856
21
-120.497
0
LINE
8
BLACK
6
CONTINUOUS
10
158.856
20
-120.497
11
159.739
21
-120.117
0
LINE
8
BLACK
6
CONTINUOUS
10
159.739
20
-120.117
11
160.607
21
-119.703
0
LINE
8
BLACK
6
CONTINUOUS
10
160.607
20
-119.703
11
161.457
21
-119.254
0
LINE
8
BLACK
6
CONTINUOUS
10
161.457
20
-119.254
11
162.288
21
-118.771
0
LINE
8
BLACK
6
CONTINUOUS
10
162.288
20
-118.771
11
163.1
21
-118.255
0
LINE
8
BLACK
6
CONTINUOUS
10
163.1
20
-118.255
11
163.89
21
-117.707
0
LINE
8
BLACK
6
CONTINUOUS
10
163.89
20
-117.707
11
164.657
21
-117.127
0
LINE
8
BLACK
6
CONTINUOUS
10
164.657
20
-117.127
11
165.401
21
-116.518
0
LINE
8
BLACK
6
CONTINUOUS
10
165.401
20
-116.518
11
166.119
21
-115.879
0
LINE
8
BLACK
6
CONTINUOUS
10
166.119
20
-115.879
11
166.812
21
-115.211
0
LINE
8
BLACK
6
CONTINUOUS
10
166.812
20
-115.211
11
167.477
21
-114.517
0
LINE
8
BLACK
6
CONTINUOUS
10
167.477
20
-114.517
11
168.113
21
-113.796
0
LINE
8
BLACK
6
CONTINUOUS
10
168.113
20
-113.796
11
168.72
21
-113.05
0
LINE
8
BLACK
6
CONTINUOUS
10
168.72
20
-113.05
11
169.297
21
-112.281
0
LINE
8
BLACK
6
CONTINUOUS
10
169.297
20
-112.281
11
169.842
21
-111.489
0
LINE
8
BLACK
6
CONTINUOUS
10
169.842
20
-111.489
11
170.355
21
-110.676
0
LINE
8
BLACK
6
CONTINUOUS
10
170.355
20
-110.676
11
170.835
21
-109.842
0
LINE
8
BLACK
6
CONTINUOUS
10
170.835
20
-109.842
11
171.281
21
-108.991
0
LINE
8
BLACK
6
CONTINUOUS
10
171.281
20
-108.991
11
171.693
21
-108.122
0
LINE
8
BLACK
6
CONTINUOUS
10
171.693
20
-108.122
11
172.07
21
-107.237
0
LINE
8
BLACK
6
CONTINUOUS
10
172.07
20
-107.237
11
172.41
21
-106.338
0
LINE
8
BLACK
6
CONTINUOUS
10
172.41
20
-106.338
11
172.715
21
-105.426
0
LINE
8
BLACK
6
CONTINUOUS
10
172.715
20
-105.426
11
172.982
21
-104.502
0
LINE
8
BLACK
6
CONTINUOUS
10
172.982
20
-104.502
11
173.212
21
-103.568
0
LINE
8
BLACK
6
CONTINUOUS
10
173.212
20
-103.568
11
173.405
21
-102.626
0
LINE
8
BLACK
6
CONTINUOUS
10
173.405
20
-102.626
11
173.559
21
-101.677
0
LINE
8
BLACK
6
CONTINUOUS
10
173.559
20
-101.677
11
173.676
21
-100.723
0
LINE
8
BLACK
6
CONTINUOUS
10
173.676
20
-100.723
11
173.754
21
-99.7645
0
LINE
8
BLACK
6
CONTINUOUS
10
173.754
20
-99.7645
11
173.793
21
-98.8038
0
LINE
8
BLACK
6
CONTINUOUS
10
173.793
20
-98.8038
11
173.798
21
-98.3021
0
LINE
8
BLACK
6
CONTINUOUS
10
173.798
20
-98.3021
11
173.779
21
-97.3407
0
LINE
8
BLACK
6
CONTINUOUS
10
173.779
20
-97.3407
11
173.721
21
-96.3809
0
LINE
8
BLACK
6
CONTINUOUS
10
173.721
20
-96.3809
11
173.625
21
-95.4242
0
LINE
8
BLACK
6
CONTINUOUS
10
173.625
20
-95.4242
11
173.49
21
-94.4721
0
LINE
8
BLACK
6
CONTINUOUS
10
173.49
20
-94.4721
11
173.317
21
-93.5262
0
LINE
8
BLACK
6
CONTINUOUS
10
173.317
20
-93.5262
11
173.107
21
-92.588
0
LINE
8
BLACK
6
CONTINUOUS
10
173.107
20
-92.588
11
172.859
21
-91.659
0
LINE
8
BLACK
6
CONTINUOUS
10
172.859
20
-91.659
11
172.574
21
-90.7407
0
LINE
8
BLACK
6
CONTINUOUS
10
172.574
20
-90.7407
11
172.252
21
-89.8346
0
LINE
8
BLACK
6
CONTINUOUS
10
172.252
20
-89.8346
11
171.894
21
-88.9421
0
LINE
8
BLACK
6
CONTINUOUS
10
171.894
20
-88.9421
11
171.501
21
-88.0647
0
LINE
8
BLACK
6
CONTINUOUS
10
171.501
20
-88.0647
11
171.072
21
-87.2038
0
LINE
8
BLACK
6
CONTINUOUS
10
171.072
20
-87.2038
11
170.61
21
-86.3608
0
LINE
8
BLACK
6
CONTINUOUS
10
170.61
20
-86.3608
11
170.114
21
-85.537
0
LINE
8
BLACK
6
CONTINUOUS
10
170.114
20
-85.537
11
169.585
21
-84.7338
0
LINE
8
BLACK
6
CONTINUOUS
10
169.585
20
-84.7338
11
169.025
21
-83.9525
0
LINE
8
BLACK
6
CONTINUOUS
10
169.025
20
-83.9525
11
168.434
21
-83.1942
0
LINE
8
BLACK
6
CONTINUOUS
10
168.434
20
-83.1942
11
167.812
21
-82.4604
0
LINE
8
BLACK
6
CONTINUOUS
10
167.812
20
-82.4604
11
167.162
21
-81.752
0
LINE
8
BLACK
6
CONTINUOUS
10
167.162
20
-81.752
11
166.484
21
-81.0703
0
LINE
8
BLACK
6
CONTINUOUS
10
166.484
20
-81.0703
11
165.779
21
-80.4164
0
LINE
8
BLACK
6
CONTINUOUS
10
165.779
20
-80.4164
11
165.048
21
-79.7913
0
LINE
8
BLACK
6
CONTINUOUS
10
165.048
20
-79.7913
11
164.293
21
-79.196
0
LINE
8
BLACK
6
CONTINUOUS
10
164.293
20
-79.196
11
163.515
21
-78.6315
0
LINE
8
BLACK
6
CONTINUOUS
10
163.515
20
-78.6315
11
162.714
21
-78.0986
0
LINE
8
BLACK
6
CONTINUOUS
10
162.714
20
-78.0986
11
161.893
21
-77.5984
0
LINE
8
BLACK
6
CONTINUOUS
10
161.893
20
-77.5984
11
161.053
21
-77.1315
0
LINE
8
BLACK
6
CONTINUOUS
10
161.053
20
-77.1315
11
160.194
21
-76.6987
0
LINE
8
BLACK
6
CONTINUOUS
10
160.194
20
-76.6987
11
159.319
21
-76.3007
0
LINE
8
BLACK
6
CONTINUOUS
10
159.319
20
-76.3007
11
158.428
21
-75.9382
0
LINE
8
BLACK
6
CONTINUOUS
10
158.428
20
-75.9382
11
157.524
21
-75.6117
0
LINE
8
BLACK
6
CONTINUOUS
10
157.524
20
-75.6117
11
156.607
21
-75.3217
0
LINE
8
BLACK
6
CONTINUOUS
10
156.607
20
-75.3217
11
155.679
21
-75.0688
0
LINE
8
BLACK
6
CONTINUOUS
10
155.679
20
-75.0688
11
154.742
21
-74.8533
0
LINE
8
BLACK
6
CONTINUOUS
10
154.742
20
-74.8533
11
153.797
21
-74.6756
0
LINE
8
BLACK
6
CONTINUOUS
10
153.797
20
-74.6756
11
152.846
21
-74.536
0
LINE
8
BLACK
6
CONTINUOUS
10
152.846
20
-74.536
11
151.89
21
-74.4346
0
LINE
8
BLACK
6
CONTINUOUS
10
151.89
20
-74.4346
11
150.93
21
-74.3718
0
LINE
8
BLACK
6
CONTINUOUS
10
150.93
20
-74.3718
11
149.969
21
-74.3474
0
LINE
8
BLACK
6
CONTINUOUS
10
149.969
20
-74.3474
11
149.007
21
-74.3617
0
LINE
8
BLACK
6
CONTINUOUS
10
149.007
20
-74.3617
11
148.047
21
-74.4145
0
LINE
8
BLACK
6
CONTINUOUS
10
148.047
20
-74.4145
11
147.09
21
-74.5058
0
LINE
8
BLACK
6
CONTINUOUS
10
147.09
20
-74.5058
11
146.137
21
-74.6355
0
LINE
8
BLACK
6
CONTINUOUS
10
146.137
20
-74.6355
11
145.19
21
-74.8033
0
LINE
8
BLACK
6
CONTINUOUS
10
145.19
20
-74.8033
11
144.251
21
-75.009
0
LINE
8
BLACK
6
CONTINUOUS
10
144.251
20
-75.009
11
143.321
21
-75.2522
0
LINE
8
BLACK
6
CONTINUOUS
10
143.321
20
-75.2522
11
142.401
21
-75.5325
0
LINE
8
BLACK
6
CONTINUOUS
10
142.401
20
-75.5325
11
141.493
21
-75.8495
0
LINE
8
BLACK
6
CONTINUOUS
10
141.493
20
-75.8495
11
140.599
21
-76.2027
0
LINE
8
BLACK
6
CONTINUOUS
10
140.599
20
-76.2027
11
139.72
21
-76.5915
0
LINE
8
BLACK
6
CONTINUOUS
10
139.72
20
-76.5915
11
138.856
21
-77.0153
0
LINE
8
BLACK
6
CONTINUOUS
10
138.856
20
-77.0153
11
138.011
21
-77.4733
0
LINE
8
BLACK
6
CONTINUOUS
10
138.011
20
-77.4733
11
137.185
21
-77.965
0
LINE
8
BLACK
6
CONTINUOUS
10
137.185
20
-77.965
11
136.379
21
-78.4894
0
LINE
8
BLACK
6
CONTINUOUS
10
136.379
20
-78.4894
11
135.594
21
-79.0457
0
LINE
8
BLACK
6
CONTINUOUS
10
135.594
20
-79.0457
11
134.833
21
-79.633
0
LINE
8
BLACK
6
CONTINUOUS
10
134.833
20
-79.633
11
134.096
21
-80.2505
0
LINE
8
BLACK
6
CONTINUOUS
10
134.096
20
-80.2505
11
133.384
21
-80.897
0
LINE
8
BLACK
6
CONTINUOUS
10
133.384
20
-80.897
11
132.699
21
-81.5715
0
LINE
8
BLACK
6
CONTINUOUS
10
132.699
20
-81.5715
11
132.041
21
-82.2731
0
LINE
8
BLACK
6
CONTINUOUS
10
132.041
20
-82.2731
11
131.412
21
-83.0004
0
LINE
8
BLACK
6
CONTINUOUS
10
131.412
20
-83.0004
11
130.813
21
-83.7524
0
LINE
8
BLACK
6
CONTINUOUS
10
130.813
20
-83.7524
11
130.245
21
-84.5278
0
LINE
8
BLACK
6
CONTINUOUS
10
130.245
20
-84.5278
11
129.708
21
-85.3255
0
LINE
8
BLACK
6
CONTINUOUS
10
129.708
20
-85.3255
11
129.203
21
-86.144
0
LINE
8
BLACK
6
CONTINUOUS
10
129.203
20
-86.144
11
128.732
21
-86.9821
0
LINE
8
BLACK
6
CONTINUOUS
10
128.732
20
-86.9821
11
128.294
21
-87.8385
0
LINE
8
BLACK
6
CONTINUOUS
10
128.294
20
-87.8385
11
127.892
21
-88.7117
0
LINE
8
BLACK
6
CONTINUOUS
10
127.892
20
-88.7117
11
127.525
21
-89.6004
0
LINE
8
BLACK
6
CONTINUOUS
10
127.525
20
-89.6004
11
127.193
21
-90.5031
0
LINE
8
BLACK
6
CONTINUOUS
10
127.193
20
-90.5031
11
126.899
21
-91.4184
0
LINE
8
BLACK
6
CONTINUOUS
10
126.899
20
-91.4184
11
126.641
21
-92.3447
0
LINE
8
BLACK
6
CONTINUOUS
10
126.641
20
-92.3447
11
126.421
21
-93.2807
0
LINE
8
BLACK
6
CONTINUOUS
10
126.421
20
-93.2807
11
126.238
21
-94.2247
0
LINE
8
BLACK
6
CONTINUOUS
10
126.238
20
-94.2247
11
126.093
21
-95.1753
0
LINE
8
BLACK
6
CONTINUOUS
10
126.093
20
-95.1753
11
125.987
21
-96.131
0
LINE
8
BLACK
6
CONTINUOUS
10
125.987
20
-96.131
11
125.919
21
-97.0901
0
LINE
8
BLACK
6
CONTINUOUS
10
125.919
20
-97.0901
11
125.89
21
-98.0512
0
LINE
8
BLACK
6
CONTINUOUS
10
125.89
20
-98.0512
11
125.899
21
-99.0127
0
LINE
8
BLACK
6
CONTINUOUS
10
125.899
20
-99.0127
11
125.947
21
-99.9731
0
LINE
8
BLACK
6
CONTINUOUS
10
126.33
20
-97.1109
11
126.397
21
-96.1683
0
LINE
8
BLACK
6
CONTINUOUS
10
126.397
20
-96.1683
11
126.501
21
-95.229
0
LINE
8
BLACK
6
CONTINUOUS
10
126.501
20
-95.229
11
126.643
21
-94.2947
0
LINE
8
BLACK
6
CONTINUOUS
10
126.643
20
-94.2947
11
126.823
21
-93.3669
0
LINE
8
BLACK
6
CONTINUOUS
10
126.823
20
-93.3669
11
127.04
21
-92.447
0
LINE
8
BLACK
6
CONTINUOUS
10
127.04
20
-92.447
11
127.293
21
-91.5366
0
LINE
8
BLACK
6
CONTINUOUS
10
127.293
20
-91.5366
11
127.583
21
-90.6371
0
LINE
8
BLACK
6
CONTINUOUS
10
127.583
20
-90.6371
11
127.908
21
-89.7499
0
LINE
8
BLACK
6
CONTINUOUS
10
127.908
20
-89.7499
11
128.269
21
-88.8765
0
LINE
8
BLACK
6
CONTINUOUS
10
128.269
20
-88.8765
11
128.665
21
-88.0182
0
LINE
8
BLACK
6
CONTINUOUS
10
128.665
20
-88.0182
11
129.094
21
-87.1766
0
LINE
8
BLACK
6
CONTINUOUS
10
129.094
20
-87.1766
11
129.558
21
-86.3528
0
LINE
8
BLACK
6
CONTINUOUS
10
129.558
20
-86.3528
11
130.053
21
-85.5484
0
LINE
8
BLACK
6
CONTINUOUS
10
130.053
20
-85.5484
11
130.581
21
-84.7644
0
LINE
8
BLACK
6
CONTINUOUS
10
130.581
20
-84.7644
11
131.14
21
-84.0023
0
LINE
8
BLACK
6
CONTINUOUS
10
131.14
20
-84.0023
11
131.729
21
-83.2632
0
LINE
8
BLACK
6
CONTINUOUS
10
131.729
20
-83.2632
11
132.347
21
-82.5484
0
LINE
8
BLACK
6
CONTINUOUS
10
132.347
20
-82.5484
11
132.993
21
-81.8589
0
LINE
8
BLACK
6
CONTINUOUS
10
132.993
20
-81.8589
11
133.667
21
-81.196
0
LINE
8
BLACK
6
CONTINUOUS
10
133.667
20
-81.196
11
134.366
21
-80.5606
0
LINE
8
BLACK
6
CONTINUOUS
10
134.366
20
-80.5606
11
135.091
21
-79.9537
0
LINE
8
BLACK
6
CONTINUOUS
10
135.091
20
-79.9537
11
135.839
21
-79.3765
0
LINE
8
BLACK
6
CONTINUOUS
10
135.839
20
-79.3765
11
136.61
21
-78.8297
0
LINE
8
BLACK
6
CONTINUOUS
10
136.61
20
-78.8297
11
137.402
21
-78.3143
0
LINE
8
BLACK
6
CONTINUOUS
10
137.402
20
-78.3143
11
138.214
21
-77.8311
0
LINE
8
BLACK
6
CONTINUOUS
10
138.214
20
-77.8311
11
139.045
21
-77.3809
0
LINE
8
BLACK
6
CONTINUOUS
10
139.045
20
-77.3809
11
139.893
21
-76.9644
0
LINE
8
BLACK
6
CONTINUOUS
10
139.893
20
-76.9644
11
140.758
21
-76.5823
0
LINE
8
BLACK
6
CONTINUOUS
10
140.758
20
-76.5823
11
141.637
21
-76.2352
0
LINE
8
BLACK
6
CONTINUOUS
10
141.637
20
-76.2352
11
142.529
21
-75.9236
0
LINE
8
BLACK
6
CONTINUOUS
10
142.529
20
-75.9236
11
143.433
21
-75.6481
0
LINE
8
BLACK
6
CONTINUOUS
10
143.433
20
-75.6481
11
144.347
21
-75.4091
0
LINE
8
BLACK
6
CONTINUOUS
10
144.347
20
-75.4091
11
145.27
21
-75.207
0
LINE
8
BLACK
6
CONTINUOUS
10
145.27
20
-75.207
11
146.201
21
-75.042
0
LINE
8
BLACK
6
CONTINUOUS
10
146.201
20
-75.042
11
147.137
21
-74.9146
0
LINE
8
BLACK
6
CONTINUOUS
10
147.137
20
-74.9146
11
148.078
21
-74.8248
0
LINE
8
BLACK
6
CONTINUOUS
10
148.078
20
-74.8248
11
149.022
21
-74.7729
0
LINE
8
BLACK
6
CONTINUOUS
10
149.022
20
-74.7729
11
149.967
21
-74.7589
0
LINE
8
BLACK
6
CONTINUOUS
10
149.967
20
-74.7589
11
150.911
21
-74.7828
0
LINE
8
BLACK
6
CONTINUOUS
10
150.911
20
-74.7828
11
151.854
21
-74.8446
0
LINE
8
BLACK
6
CONTINUOUS
10
151.854
20
-74.8446
11
152.794
21
-74.9442
0
LINE
8
BLACK
6
CONTINUOUS
10
152.794
20
-74.9442
11
153.729
21
-75.0815
0
LINE
8
BLACK
6
CONTINUOUS
10
153.729
20
-75.0815
11
154.658
21
-75.2561
0
LINE
8
BLACK
6
CONTINUOUS
10
154.658
20
-75.2561
11
155.579
21
-75.4679
0
LINE
8
BLACK
6
CONTINUOUS
10
155.579
20
-75.4679
11
156.491
21
-75.7165
0
LINE
8
BLACK
6
CONTINUOUS
10
156.491
20
-75.7165
11
157.392
21
-76.0014
0
LINE
8
BLACK
6
CONTINUOUS
10
157.392
20
-76.0014
11
158.281
21
-76.3223
0
LINE
8
BLACK
6
CONTINUOUS
10
158.281
20
-76.3223
11
159.156
21
-76.6786
0
LINE
8
BLACK
6
CONTINUOUS
10
159.156
20
-76.6786
11
160.016
21
-77.0698
0
LINE
8
BLACK
6
CONTINUOUS
10
160.016
20
-77.0698
11
160.86
21
-77.4951
0
LINE
8
BLACK
6
CONTINUOUS
10
160.86
20
-77.4951
11
161.686
21
-77.954
0
LINE
8
BLACK
6
CONTINUOUS
10
161.686
20
-77.954
11
162.493
21
-78.4457
0
LINE
8
BLACK
6
CONTINUOUS
10
162.493
20
-78.4457
11
163.28
21
-78.9694
0
LINE
8
BLACK
6
CONTINUOUS
10
163.28
20
-78.9694
11
164.045
21
-79.5242
0
LINE
8
BLACK
6
CONTINUOUS
10
164.045
20
-79.5242
11
164.787
21
-80.1092
0
LINE
8
BLACK
6
CONTINUOUS
10
164.787
20
-80.1092
11
165.505
21
-80.7236
0
LINE
8
BLACK
6
CONTINUOUS
10
165.505
20
-80.7236
11
166.198
21
-81.3663
0
LINE
8
BLACK
6
CONTINUOUS
10
166.198
20
-81.3663
11
166.865
21
-82.0363
0
LINE
8
BLACK
6
CONTINUOUS
10
166.865
20
-82.0363
11
167.504
21
-82.7325
0
LINE
8
BLACK
6
CONTINUOUS
10
167.504
20
-82.7325
11
168.114
21
-83.4538
0
LINE
8
BLACK
6
CONTINUOUS
10
168.114
20
-83.4538
11
168.695
21
-84.199
0
LINE
8
BLACK
6
CONTINUOUS
10
168.695
20
-84.199
11
169.246
21
-84.9669
0
LINE
8
BLACK
6
CONTINUOUS
10
169.246
20
-84.9669
11
169.766
21
-85.7563
0
LINE
8
BLACK
6
CONTINUOUS
10
169.766
20
-85.7563
11
170.253
21
-86.5659
0
LINE
8
BLACK
6
CONTINUOUS
10
170.253
20
-86.5659
11
170.708
21
-87.3945
0
LINE
8
BLACK
6
CONTINUOUS
10
170.708
20
-87.3945
11
171.129
21
-88.2406
0
LINE
8
BLACK
6
CONTINUOUS
10
171.129
20
-88.2406
11
171.515
21
-89.1029
0
LINE
8
BLACK
6
CONTINUOUS
10
171.515
20
-89.1029
11
171.867
21
-89.98
0
LINE
8
BLACK
6
CONTINUOUS
10
171.867
20
-89.98
11
172.183
21
-90.8706
0
LINE
8
BLACK
6
CONTINUOUS
10
172.183
20
-90.8706
11
172.463
21
-91.7731
0
LINE
8
BLACK
6
CONTINUOUS
10
172.463
20
-91.7731
11
172.707
21
-92.6862
0
LINE
8
BLACK
6
CONTINUOUS
10
172.707
20
-92.6862
11
172.914
21
-93.6083
0
LINE
8
BLACK
6
CONTINUOUS
10
172.914
20
-93.6083
11
173.084
21
-94.5379
0
LINE
8
BLACK
6
CONTINUOUS
10
173.084
20
-94.5379
11
173.216
21
-95.4736
0
LINE
8
BLACK
6
CONTINUOUS
10
173.216
20
-95.4736
11
173.311
21
-96.4139
0
LINE
8
BLACK
6
CONTINUOUS
10
173.311
20
-96.4139
11
173.368
21
-97.3572
0
LINE
8
BLACK
6
CONTINUOUS
10
173.368
20
-97.3572
11
173.387
21
-98.3021
0
LINE
8
BLACK
6
CONTINUOUS
10
173.387
20
-98.3021
11
173.382
21
-98.7951
0
LINE
8
BLACK
6
CONTINUOUS
10
173.382
20
-98.7951
11
173.343
21
-99.7394
0
LINE
8
BLACK
6
CONTINUOUS
10
173.343
20
-99.7394
11
173.266
21
-100.681
0
LINE
8
BLACK
6
CONTINUOUS
10
173.266
20
-100.681
11
173.152
21
-101.619
0
LINE
8
BLACK
6
CONTINUOUS
10
173.152
20
-101.619
11
173
21
-102.552
0
LINE
8
BLACK
6
CONTINUOUS
10
173
20
-102.552
11
172.811
21
-103.478
0
LINE
8
BLACK
6
CONTINUOUS
10
172.811
20
-103.478
11
172.585
21
-104.396
0
LINE
8
BLACK
6
CONTINUOUS
10
172.585
20
-104.396
11
172.322
21
-105.303
0
LINE
8
BLACK
6
CONTINUOUS
10
172.322
20
-105.303
11
172.023
21
-106.2
0
LINE
8
BLACK
6
CONTINUOUS
10
172.023
20
-106.2
11
171.688
21
-107.084
0
LINE
8
BLACK
6
CONTINUOUS
10
171.688
20
-107.084
11
171.318
21
-107.953
0
LINE
8
BLACK
6
CONTINUOUS
10
171.318
20
-107.953
11
170.913
21
-108.807
0
LINE
8
BLACK
6
CONTINUOUS
10
170.913
20
-108.807
11
170.475
21
-109.644
0
LINE
8
BLACK
6
CONTINUOUS
10
170.475
20
-109.644
11
170.003
21
-110.463
0
LINE
8
BLACK
6
CONTINUOUS
10
170.003
20
-110.463
11
169.499
21
-111.262
0
LINE
8
BLACK
6
CONTINUOUS
10
169.499
20
-111.262
11
168.963
21
-112.041
0
LINE
8
BLACK
6
CONTINUOUS
10
168.963
20
-112.041
11
168.396
21
-112.797
0
LINE
8
BLACK
6
CONTINUOUS
10
168.396
20
-112.797
11
167.799
21
-113.53
0
LINE
8
BLACK
6
CONTINUOUS
10
167.799
20
-113.53
11
167.174
21
-114.238
0
LINE
8
BLACK
6
CONTINUOUS
10
167.174
20
-114.238
11
166.52
21
-114.921
0
LINE
8
BLACK
6
CONTINUOUS
10
166.52
20
-114.921
11
165.84
21
-115.577
0
LINE
8
BLACK
6
CONTINUOUS
10
165.84
20
-115.577
11
165.134
21
-116.205
0
LINE
8
BLACK
6
CONTINUOUS
10
165.134
20
-116.205
11
164.403
21
-116.804
0
LINE
8
BLACK
6
CONTINUOUS
10
164.403
20
-116.804
11
163.649
21
-117.373
0
LINE
8
BLACK
6
CONTINUOUS
10
163.649
20
-117.373
11
162.872
21
-117.912
0
LINE
8
BLACK
6
CONTINUOUS
10
162.872
20
-117.912
11
162.075
21
-118.419
0
LINE
8
BLACK
6
CONTINUOUS
10
162.075
20
-118.419
11
161.257
21
-118.894
0
LINE
8
BLACK
6
CONTINUOUS
10
161.257
20
-118.894
11
160.422
21
-119.335
0
LINE
8
BLACK
6
CONTINUOUS
10
160.422
20
-119.335
11
159.569
21
-119.743
0
LINE
8
BLACK
6
CONTINUOUS
10
159.569
20
-119.743
11
158.701
21
-120.116
0
LINE
8
BLACK
6
CONTINUOUS
10
158.701
20
-120.116
11
157.818
21
-120.454
0
LINE
8
BLACK
6
CONTINUOUS
10
157.818
20
-120.454
11
156.923
21
-120.756
0
LINE
8
BLACK
6
CONTINUOUS
10
156.923
20
-120.756
11
156.016
21
-121.022
0
LINE
8
BLACK
6
CONTINUOUS
10
156.016
20
-121.022
11
155.099
21
-121.251
0
LINE
8
BLACK
6
CONTINUOUS
10
155.099
20
-121.251
11
154.174
21
-121.444
0
LINE
8
BLACK
6
CONTINUOUS
10
154.174
20
-121.444
11
153.242
21
-121.599
0
LINE
8
BLACK
6
CONTINUOUS
10
153.242
20
-121.599
11
152.304
21
-121.717
0
LINE
8
BLACK
6
CONTINUOUS
10
152.304
20
-121.717
11
151.363
21
-121.797
0
LINE
8
BLACK
6
CONTINUOUS
10
151.363
20
-121.797
11
150.419
21
-121.839
0
LINE
8
BLACK
6
CONTINUOUS
10
150.419
20
-121.839
11
149.474
21
-121.843
0
LINE
8
BLACK
6
CONTINUOUS
10
149.474
20
-121.843
11
148.529
21
-121.809
0
LINE
8
BLACK
6
CONTINUOUS
10
148.529
20
-121.809
11
147.587
21
-121.737
0
LINE
8
BLACK
6
CONTINUOUS
10
147.587
20
-121.737
11
146.648
21
-121.628
0
LINE
8
BLACK
6
CONTINUOUS
10
146.648
20
-121.628
11
145.715
21
-121.481
0
LINE
8
BLACK
6
CONTINUOUS
10
145.715
20
-121.481
11
144.788
21
-121.296
0
LINE
8
BLACK
6
CONTINUOUS
10
144.788
20
-121.296
11
143.869
21
-121.075
0
LINE
8
BLACK
6
CONTINUOUS
10
143.869
20
-121.075
11
142.96
21
-120.817
0
LINE
8
BLACK
6
CONTINUOUS
10
142.96
20
-120.817
11
142.062
21
-120.522
0
LINE
8
BLACK
6
CONTINUOUS
10
142.062
20
-120.522
11
141.176
21
-120.192
0
LINE
8
BLACK
6
CONTINUOUS
10
141.176
20
-120.192
11
140.305
21
-119.827
0
LINE
8
BLACK
6
CONTINUOUS
10
140.305
20
-119.827
11
139.449
21
-119.427
0
LINE
8
BLACK
6
CONTINUOUS
10
139.449
20
-119.427
11
138.609
21
-118.993
0
LINE
8
BLACK
6
CONTINUOUS
10
138.609
20
-118.993
11
137.788
21
-118.525
0
LINE
8
BLACK
6
CONTINUOUS
10
137.788
20
-118.525
11
136.986
21
-118.025
0
LINE
8
BLACK
6
CONTINUOUS
10
136.986
20
-118.025
11
136.205
21
-117.493
0
LINE
8
BLACK
6
CONTINUOUS
10
136.205
20
-117.493
11
135.446
21
-116.93
0
LINE
8
BLACK
6
CONTINUOUS
10
135.446
20
-116.93
11
134.71
21
-116.337
0
LINE
8
BLACK
6
CONTINUOUS
10
134.71
20
-116.337
11
133.998
21
-115.716
0
LINE
8
BLACK
6
CONTINUOUS
10
133.998
20
-115.716
11
133.312
21
-115.066
0
LINE
8
BLACK
6
CONTINUOUS
10
133.312
20
-115.066
11
132.653
21
-114.389
0
LINE
8
BLACK
6
CONTINUOUS
10
132.653
20
-114.389
11
132.021
21
-113.686
0
LINE
8
BLACK
6
CONTINUOUS
10
132.021
20
-113.686
11
131.418
21
-112.958
0
LINE
8
BLACK
6
CONTINUOUS
10
131.418
20
-112.958
11
130.845
21
-112.207
0
LINE
8
BLACK
6
CONTINUOUS
10
130.845
20
-112.207
11
130.302
21
-111.433
0
LINE
8
BLACK
6
CONTINUOUS
10
130.302
20
-111.433
11
129.791
21
-110.639
0
LINE
8
BLACK
6
CONTINUOUS
10
129.791
20
-110.639
11
129.312
21
-109.824
0
LINE
8
BLACK
6
CONTINUOUS
10
129.312
20
-109.824
11
128.866
21
-108.991
0
LINE
8
BLACK
6
CONTINUOUS
10
128.866
20
-108.991
11
128.454
21
-108.14
0
LINE
8
BLACK
6
CONTINUOUS
10
128.454
20
-108.14
11
128.076
21
-107.274
0
LINE
8
BLACK
6
CONTINUOUS
10
128.076
20
-107.274
11
127.734
21
-106.393
0
LINE
8
BLACK
6
CONTINUOUS
10
127.734
20
-106.393
11
127.427
21
-105.499
0
LINE
8
BLACK
6
CONTINUOUS
10
127.427
20
-105.499
11
127.156
21
-104.594
0
LINE
8
BLACK
6
CONTINUOUS
10
127.156
20
-104.594
11
126.922
21
-103.678
0
LINE
8
BLACK
6
CONTINUOUS
10
126.922
20
-103.678
11
126.725
21
-102.754
0
LINE
8
BLACK
6
CONTINUOUS
10
126.725
20
-102.754
11
126.565
21
-101.823
0
LINE
8
BLACK
6
CONTINUOUS
10
126.565
20
-101.823
11
126.442
21
-100.886
0
LINE
8
BLACK
6
CONTINUOUS
10
126.442
20
-100.886
11
126.357
21
-99.9444
0
LINE
8
BLACK
6
CONTINUOUS
10
126.357
20
-99.9444
11
126.31
21
-99.0005
0
LINE
8
BLACK
6
CONTINUOUS
10
126.31
20
-99.0005
11
126.301
21
-98.0565
0
LINE
8
BLACK
6
CONTINUOUS
10
126.301
20
-98.0565
11
126.301
21
-98.0555
0
LINE
8
BLACK
6
CONTINUOUS
10
126.301
20
-98.0555
11
126.33
21
-97.1109
0
LINE
8
BLACK
6
CONTINUOUS
10
126.452
20
-99.9378
11
126.536
21
-100.875
0
LINE
8
BLACK
6
CONTINUOUS
10
126.536
20
-100.875
11
126.658
21
-101.808
0
LINE
8
BLACK
6
CONTINUOUS
10
126.658
20
-101.808
11
126.818
21
-102.736
0
LINE
8
BLACK
6
CONTINUOUS
10
126.818
20
-102.736
11
127.014
21
-103.657
0
LINE
8
BLACK
6
CONTINUOUS
10
127.014
20
-103.657
11
127.248
21
-104.568
0
LINE
8
BLACK
6
CONTINUOUS
10
127.248
20
-104.568
11
127.517
21
-105.47
0
LINE
8
BLACK
6
CONTINUOUS
10
127.517
20
-105.47
11
127.823
21
-106.36
0
LINE
8
BLACK
6
CONTINUOUS
10
127.823
20
-106.36
11
128.164
21
-107.238
0
LINE
8
BLACK
6
CONTINUOUS
10
128.164
20
-107.238
11
128.54
21
-108.1
0
LINE
8
BLACK
6
CONTINUOUS
10
128.54
20
-108.1
11
128.951
21
-108.947
0
LINE
8
BLACK
6
CONTINUOUS
10
128.951
20
-108.947
11
129.395
21
-109.777
0
LINE
8
BLACK
6
CONTINUOUS
10
129.395
20
-109.777
11
129.872
21
-110.589
0
LINE
8
BLACK
6
CONTINUOUS
10
129.872
20
-110.589
11
130.381
21
-111.38
0
LINE
8
BLACK
6
CONTINUOUS
10
130.381
20
-111.38
11
130.921
21
-112.151
0
LINE
8
BLACK
6
CONTINUOUS
10
130.921
20
-112.151
11
131.492
21
-112.899
0
LINE
8
BLACK
6
CONTINUOUS
10
131.492
20
-112.899
11
132.093
21
-113.624
0
LINE
8
BLACK
6
CONTINUOUS
10
132.093
20
-113.624
11
132.722
21
-114.324
0
LINE
8
BLACK
6
CONTINUOUS
10
132.722
20
-114.324
11
133.379
21
-114.998
0
LINE
8
BLACK
6
CONTINUOUS
10
133.379
20
-114.998
11
134.062
21
-115.645
0
LINE
8
BLACK
6
CONTINUOUS
10
134.062
20
-115.645
11
134.771
21
-116.265
0
LINE
8
BLACK
6
CONTINUOUS
10
134.771
20
-116.265
11
135.504
21
-116.855
0
LINE
8
BLACK
6
CONTINUOUS
10
135.504
20
-116.855
11
136.26
21
-117.416
0
LINE
8
BLACK
6
CONTINUOUS
10
136.26
20
-117.416
11
137.038
21
-117.945
0
LINE
8
BLACK
6
CONTINUOUS
10
137.038
20
-117.945
11
137.837
21
-118.443
0
LINE
8
BLACK
6
CONTINUOUS
10
137.837
20
-118.443
11
138.655
21
-118.909
0
LINE
8
BLACK
6
CONTINUOUS
10
138.655
20
-118.909
11
139.491
21
-119.341
0
LINE
8
BLACK
6
CONTINUOUS
10
139.491
20
-119.341
11
140.343
21
-119.74
0
LINE
8
BLACK
6
CONTINUOUS
10
140.343
20
-119.74
11
141.211
21
-120.104
0
LINE
8
BLACK
6
CONTINUOUS
10
141.211
20
-120.104
11
142.093
21
-120.433
0
LINE
8
BLACK
6
CONTINUOUS
10
142.093
20
-120.433
11
142.988
21
-120.726
0
LINE
8
BLACK
6
CONTINUOUS
10
142.988
20
-120.726
11
143.893
21
-120.983
0
LINE
8
BLACK
6
CONTINUOUS
10
143.893
20
-120.983
11
144.808
21
-121.204
0
LINE
8
BLACK
6
CONTINUOUS
10
144.808
20
-121.204
11
145.731
21
-121.387
0
LINE
8
BLACK
6
CONTINUOUS
10
145.731
20
-121.387
11
146.661
21
-121.534
0
LINE
8
BLACK
6
CONTINUOUS
10
146.661
20
-121.534
11
147.596
21
-121.643
0
LINE
8
BLACK
6
CONTINUOUS
10
147.596
20
-121.643
11
148.534
21
-121.714
0
LINE
8
BLACK
6
CONTINUOUS
10
148.534
20
-121.714
11
149.475
21
-121.748
0
LINE
8
BLACK
6
CONTINUOUS
10
149.475
20
-121.748
11
150.416
21
-121.744
0
LINE
8
BLACK
6
CONTINUOUS
10
150.416
20
-121.744
11
151.357
21
-121.702
0
LINE
8
BLACK
6
CONTINUOUS
10
151.357
20
-121.702
11
152.294
21
-121.622
0
LINE
8
BLACK
6
CONTINUOUS
10
152.294
20
-121.622
11
153.228
21
-121.505
0
LINE
8
BLACK
6
CONTINUOUS
10
153.228
20
-121.505
11
154.157
21
-121.35
0
LINE
8
BLACK
6
CONTINUOUS
10
154.157
20
-121.35
11
155.078
21
-121.159
0
LINE
8
BLACK
6
CONTINUOUS
10
155.078
20
-121.159
11
155.991
21
-120.93
0
LINE
8
BLACK
6
CONTINUOUS
10
155.991
20
-120.93
11
156.894
21
-120.665
0
LINE
8
BLACK
6
CONTINUOUS
10
156.894
20
-120.665
11
157.786
21
-120.364
0
LINE
8
BLACK
6
CONTINUOUS
10
157.786
20
-120.364
11
158.665
21
-120.028
0
LINE
8
BLACK
6
CONTINUOUS
10
158.665
20
-120.028
11
159.53
21
-119.656
0
LINE
8
BLACK
6
CONTINUOUS
10
159.53
20
-119.656
11
160.379
21
-119.25
0
LINE
8
BLACK
6
CONTINUOUS
10
160.379
20
-119.25
11
161.211
21
-118.811
0
LINE
8
BLACK
6
CONTINUOUS
10
161.211
20
-118.811
11
162.025
21
-118.338
0
LINE
8
BLACK
6
CONTINUOUS
10
162.025
20
-118.338
11
162.82
21
-117.833
0
LINE
8
BLACK
6
CONTINUOUS
10
162.82
20
-117.833
11
163.593
21
-117.296
0
LINE
8
BLACK
6
CONTINUOUS
10
163.593
20
-117.296
11
164.344
21
-116.729
0
LINE
8
BLACK
6
CONTINUOUS
10
164.344
20
-116.729
11
165.072
21
-116.132
0
LINE
8
BLACK
6
CONTINUOUS
10
165.072
20
-116.132
11
165.775
21
-115.507
0
LINE
8
BLACK
6
CONTINUOUS
10
165.775
20
-115.507
11
166.453
21
-114.854
0
LINE
8
BLACK
6
CONTINUOUS
10
166.453
20
-114.854
11
167.104
21
-114.174
0
LINE
8
BLACK
6
CONTINUOUS
10
167.104
20
-114.174
11
167.727
21
-113.468
0
LINE
8
BLACK
6
CONTINUOUS
10
167.727
20
-113.468
11
168.321
21
-112.738
0
LINE
8
BLACK
6
CONTINUOUS
10
168.321
20
-112.738
11
168.885
21
-111.985
0
LINE
8
BLACK
6
CONTINUOUS
10
168.885
20
-111.985
11
169.419
21
-111.21
0
LINE
8
BLACK
6
CONTINUOUS
10
169.419
20
-111.21
11
169.922
21
-110.414
0
LINE
8
BLACK
6
CONTINUOUS
10
169.922
20
-110.414
11
170.391
21
-109.598
0
LINE
8
BLACK
6
CONTINUOUS
10
170.391
20
-109.598
11
170.828
21
-108.765
0
LINE
8
BLACK
6
CONTINUOUS
10
170.828
20
-108.765
11
171.231
21
-107.914
0
LINE
8
BLACK
6
CONTINUOUS
10
171.231
20
-107.914
11
171.6
21
-107.048
0
LINE
8
BLACK
6
CONTINUOUS
10
171.6
20
-107.048
11
171.933
21
-106.168
0
LINE
8
BLACK
6
CONTINUOUS
10
171.933
20
-106.168
11
172.231
21
-105.275
0
LINE
8
BLACK
6
CONTINUOUS
10
172.231
20
-105.275
11
172.493
21
-104.371
0
LINE
8
BLACK
6
CONTINUOUS
10
172.493
20
-104.371
11
172.718
21
-103.457
0
LINE
8
BLACK
6
CONTINUOUS
10
172.718
20
-103.457
11
172.907
21
-102.535
0
LINE
8
BLACK
6
CONTINUOUS
10
172.907
20
-102.535
11
173.058
21
-101.606
0
LINE
8
BLACK
6
CONTINUOUS
10
173.058
20
-101.606
11
173.172
21
-100.672
0
LINE
8
BLACK
6
CONTINUOUS
10
173.172
20
-100.672
11
173.248
21
-99.7336
0
LINE
8
BLACK
6
CONTINUOUS
10
173.248
20
-99.7336
11
173.287
21
-98.7931
0
LINE
8
BLACK
6
CONTINUOUS
10
173.287
20
-98.7931
11
173.292
21
-98.3021
0
LINE
8
BLACK
6
CONTINUOUS
10
173.292
20
-98.3021
11
173.273
21
-97.361
0
LINE
8
BLACK
6
CONTINUOUS
10
173.273
20
-97.361
11
173.216
21
-96.4215
0
LINE
8
BLACK
6
CONTINUOUS
10
173.216
20
-96.4215
11
173.122
21
-95.485
0
LINE
8
BLACK
6
CONTINUOUS
10
173.122
20
-95.485
11
172.99
21
-94.5531
0
LINE
8
BLACK
6
CONTINUOUS
10
172.99
20
-94.5531
11
172.821
21
-93.6272
0
LINE
8
BLACK
6
CONTINUOUS
10
172.821
20
-93.6272
11
172.615
21
-92.7088
0
LINE
8
BLACK
6
CONTINUOUS
10
172.615
20
-92.7088
11
172.372
21
-91.7995
0
LINE
8
BLACK
6
CONTINUOUS
10
172.372
20
-91.7995
11
172.093
21
-90.9006
0
LINE
8
BLACK
6
CONTINUOUS
10
172.093
20
-90.9006
11
171.778
21
-90.0136
0
LINE
8
BLACK
6
CONTINUOUS
10
171.778
20
-90.0136
11
171.428
21
-89.14
0
LINE
8
BLACK
6
CONTINUOUS
10
171.428
20
-89.14
11
171.043
21
-88.2812
0
LINE
8
BLACK
6
CONTINUOUS
10
171.043
20
-88.2812
11
170.623
21
-87.4385
0
LINE
8
BLACK
6
CONTINUOUS
10
170.623
20
-87.4385
11
170.171
21
-86.6133
0
LINE
8
BLACK
6
CONTINUOUS
10
170.171
20
-86.6133
11
169.685
21
-85.8069
0
LINE
8
BLACK
6
CONTINUOUS
10
169.685
20
-85.8069
11
169.168
21
-85.0207
0
LINE
8
BLACK
6
CONTINUOUS
10
169.168
20
-85.0207
11
168.619
21
-84.2559
0
LINE
8
BLACK
6
CONTINUOUS
10
168.619
20
-84.2559
11
168.04
21
-83.5137
0
LINE
8
BLACK
6
CONTINUOUS
10
168.04
20
-83.5137
11
167.432
21
-82.7953
0
LINE
8
BLACK
6
CONTINUOUS
10
167.432
20
-82.7953
11
166.796
21
-82.1019
0
LINE
8
BLACK
6
CONTINUOUS
10
166.796
20
-82.1019
11
166.132
21
-81.4346
0
LINE
8
BLACK
6
CONTINUOUS
10
166.132
20
-81.4346
11
165.442
21
-80.7945
0
LINE
8
BLACK
6
CONTINUOUS
10
165.442
20
-80.7945
11
164.727
21
-80.1826
0
LINE
8
BLACK
6
CONTINUOUS
10
164.727
20
-80.1826
11
163.988
21
-79.5999
0
LINE
8
BLACK
6
CONTINUOUS
10
163.988
20
-79.5999
11
163.226
21
-79.0474
0
LINE
8
BLACK
6
CONTINUOUS
10
163.226
20
-79.0474
11
162.442
21
-78.5258
0
LINE
8
BLACK
6
CONTINUOUS
10
162.442
20
-78.5258
11
161.638
21
-78.0361
0
LINE
8
BLACK
6
CONTINUOUS
10
161.638
20
-78.0361
11
160.816
21
-77.5791
0
LINE
8
BLACK
6
CONTINUOUS
10
160.816
20
-77.5791
11
159.975
21
-77.1555
0
LINE
8
BLACK
6
CONTINUOUS
10
159.975
20
-77.1555
11
159.118
21
-76.7659
0
LINE
8
BLACK
6
CONTINUOUS
10
159.118
20
-76.7659
11
158.247
21
-76.411
0
LINE
8
BLACK
6
CONTINUOUS
10
158.247
20
-76.411
11
157.361
21
-76.0914
0
LINE
8
BLACK
6
CONTINUOUS
10
157.361
20
-76.0914
11
156.464
21
-75.8076
0
LINE
8
BLACK
6
CONTINUOUS
10
156.464
20
-75.8076
11
155.556
21
-75.56
0
LINE
8
BLACK
6
CONTINUOUS
10
155.556
20
-75.56
11
154.638
21
-75.3491
0
LINE
8
BLACK
6
CONTINUOUS
10
154.638
20
-75.3491
11
153.713
21
-75.1752
0
LINE
8
BLACK
6
CONTINUOUS
10
153.713
20
-75.1752
11
152.782
21
-75.0385
0
LINE
8
BLACK
6
CONTINUOUS
10
152.782
20
-75.0385
11
151.846
21
-74.9393
0
LINE
8
BLACK
6
CONTINUOUS
10
151.846
20
-74.9393
11
150.907
21
-74.8777
0
LINE
8
BLACK
6
CONTINUOUS
10
150.907
20
-74.8777
11
149.966
21
-74.8539
0
LINE
8
BLACK
6
CONTINUOUS
10
149.966
20
-74.8539
11
149.025
21
-74.8679
0
LINE
8
BLACK
6
CONTINUOUS
10
149.025
20
-74.8679
11
148.085
21
-74.9196
0
LINE
8
BLACK
6
CONTINUOUS
10
148.085
20
-74.9196
11
147.148
21
-75.009
0
LINE
8
BLACK
6
CONTINUOUS
10
147.148
20
-75.009
11
146.216
21
-75.1359
0
LINE
8
BLACK
6
CONTINUOUS
10
146.216
20
-75.1359
11
145.289
21
-75.3001
0
LINE
8
BLACK
6
CONTINUOUS
10
145.289
20
-75.3001
11
144.369
21
-75.5015
0
LINE
8
BLACK
6
CONTINUOUS
10
144.369
20
-75.5015
11
143.459
21
-75.7395
0
LINE
8
BLACK
6
CONTINUOUS
10
143.459
20
-75.7395
11
142.558
21
-76.0139
0
LINE
8
BLACK
6
CONTINUOUS
10
142.558
20
-76.0139
11
141.67
21
-76.3242
0
LINE
8
BLACK
6
CONTINUOUS
10
141.67
20
-76.3242
11
140.794
21
-76.6699
0
LINE
8
BLACK
6
CONTINUOUS
10
140.794
20
-76.6699
11
139.934
21
-77.0505
0
LINE
8
BLACK
6
CONTINUOUS
10
139.934
20
-77.0505
11
139.089
21
-77.4653
0
LINE
8
BLACK
6
CONTINUOUS
10
139.089
20
-77.4653
11
138.261
21
-77.9137
0
LINE
8
BLACK
6
CONTINUOUS
10
138.261
20
-77.9137
11
137.452
21
-78.395
0
LINE
8
BLACK
6
CONTINUOUS
10
137.452
20
-78.395
11
136.663
21
-78.9083
0
LINE
8
BLACK
6
CONTINUOUS
10
136.663
20
-78.9083
11
135.896
21
-79.4528
0
LINE
8
BLACK
6
CONTINUOUS
10
135.896
20
-79.4528
11
135.15
21
-80.0278
0
LINE
8
BLACK
6
CONTINUOUS
10
135.15
20
-80.0278
11
134.429
21
-80.6321
0
LINE
8
BLACK
6
CONTINUOUS
10
134.429
20
-80.6321
11
133.732
21
-81.265
0
LINE
8
BLACK
6
CONTINUOUS
10
133.732
20
-81.265
11
133.061
21
-81.9253
0
LINE
8
BLACK
6
CONTINUOUS
10
133.061
20
-81.9253
11
132.418
21
-82.612
0
LINE
8
BLACK
6
CONTINUOUS
10
132.418
20
-82.612
11
131.802
21
-83.3239
0
LINE
8
BLACK
6
CONTINUOUS
10
131.802
20
-83.3239
11
131.216
21
-84.06
0
LINE
8
BLACK
6
CONTINUOUS
10
131.216
20
-84.06
11
130.659
21
-84.8191
0
LINE
8
BLACK
6
CONTINUOUS
10
130.659
20
-84.8191
11
130.133
21
-85.5998
0
LINE
8
BLACK
6
CONTINUOUS
10
130.133
20
-85.5998
11
129.639
21
-86.4011
0
LINE
8
BLACK
6
CONTINUOUS
10
129.639
20
-86.4011
11
129.178
21
-87.2215
0
LINE
8
BLACK
6
CONTINUOUS
10
129.178
20
-87.2215
11
128.75
21
-88.0597
0
LINE
8
BLACK
6
CONTINUOUS
10
128.75
20
-88.0597
11
128.356
21
-88.9145
0
LINE
8
BLACK
6
CONTINUOUS
10
128.356
20
-88.9145
11
127.997
21
-89.7844
0
LINE
8
BLACK
6
CONTINUOUS
10
127.997
20
-89.7844
11
127.672
21
-90.668
0
LINE
8
BLACK
6
CONTINUOUS
10
127.672
20
-90.668
11
127.384
21
-91.5639
0
LINE
8
BLACK
6
CONTINUOUS
10
127.384
20
-91.5639
11
127.132
21
-92.4707
0
LINE
8
BLACK
6
CONTINUOUS
10
127.132
20
-92.4707
11
126.916
21
-93.3868
0
LINE
8
BLACK
6
CONTINUOUS
10
126.916
20
-93.3868
11
126.737
21
-94.3109
0
LINE
8
BLACK
6
CONTINUOUS
10
126.737
20
-94.3109
11
126.595
21
-95.2414
0
LINE
8
BLACK
6
CONTINUOUS
10
126.595
20
-95.2414
11
126.491
21
-96.1769
0
LINE
8
BLACK
6
CONTINUOUS
10
126.491
20
-96.1769
11
126.425
21
-97.1157
0
LINE
8
BLACK
6
CONTINUOUS
10
126.425
20
-97.1157
11
126.396
21
-98.0565
0
LINE
8
BLACK
6
CONTINUOUS
10
126.396
20
-98.0565
11
126.405
21
-98.9977
0
LINE
8
BLACK
6
CONTINUOUS
10
126.405
20
-98.9977
11
126.452
21
-99.9378
0
CIRCLE
8
BLACK
10
166.447
20
-98.0561
40
1.6
0
CIRCLE
8
BLACK
10
248.621
20
-39.4343
40
1.6
0
CIRCLE
8
BLACK
10
134.189
20
-98.0561
40
1.6
0
CIRCLE
8
BLACK
10
192.972
20
-111.198
40
1.6
0
CIRCLE
8
BLACK
10
114.577
20
-63.3861
40
1.6
0
CIRCLE
8
BLACK
10
124.286
20
-113.06
40
1.2
0
CIRCLE
8
BLACK
10
135.054
20
-116.549
40
2.1
0
CIRCLE
8
BLACK
10
128.868
20
-86.6713
40
1.2
0
CIRCLE
8
BLACK
10
139.749
20
-126.035
40
1.2
0
CIRCLE
8
BLACK
10
163.952
20
-117.72
40
1.2
0
CIRCLE
8
BLACK
10
173.044
20
-101.977
40
2.1
0
CIRCLE
8
BLACK
10
141.424
20
-76.3681
40
2.1
0
CIRCLE
8
BLACK
10
171.042
20
-76.9277
40
0.75
0
CIRCLE
8
BLACK
10
167.212
20
-73.7138
40
0.75
0
CIRCLE
8
BLACK
10
169.127
20
-75.3207
40
0.75
0
LINE
8
BLACK
6
CONTINUOUS
10
171.969
20
-112.701
11
172.179
21
-112.524
0
LINE
8
BLACK
6
CONTINUOUS
10
172.179
20
-112.524
11
172.413
21
-112.379
0
LINE
8
BLACK
6
CONTINUOUS
10
172.413
20
-112.379
11
172.665
21
-112.269
0
LINE
8
BLACK
6
CONTINUOUS
10
172.665
20
-112.269
11
172.93
21
-112.197
0
LINE
8
BLACK
6
CONTINUOUS
10
172.93
20
-112.197
11
173.203
21
-112.163
0
LINE
8
BLACK
6
CONTINUOUS
10
173.203
20
-112.163
11
173.478
21
-112.17
0
LINE
8
BLACK
6
CONTINUOUS
10
173.478
20
-112.17
11
173.749
21
-112.216
0
LINE
8
BLACK
6
CONTINUOUS
10
173.749
20
-112.216
11
174.011
21
-112.301
0
LINE
8
BLACK
6
CONTINUOUS
10
174.011
20
-112.301
11
174.257
21
-112.422
0
LINE
8
BLACK
6
CONTINUOUS
10
174.257
20
-112.422
11
174.484
21
-112.578
0
LINE
8
BLACK
6
CONTINUOUS
10
174.484
20
-112.578
11
174.685
21
-112.765
0
LINE
8
BLACK
6
CONTINUOUS
10
174.685
20
-112.765
11
174.858
21
-112.979
0
LINE
8
BLACK
6
CONTINUOUS
10
174.858
20
-112.979
11
174.998
21
-113.216
0
LINE
8
BLACK
6
CONTINUOUS
10
174.998
20
-113.216
11
175.102
21
-113.471
0
LINE
8
BLACK
6
CONTINUOUS
10
175.102
20
-113.471
11
175.168
21
-113.738
0
LINE
8
BLACK
6
CONTINUOUS
10
175.168
20
-113.738
11
175.195
21
-114.011
0
LINE
8
BLACK
6
CONTINUOUS
10
175.195
20
-114.011
11
175.182
21
-114.286
0
LINE
8
BLACK
6
CONTINUOUS
10
175.182
20
-114.286
11
175.13
21
-114.556
0
LINE
8
BLACK
6
CONTINUOUS
10
175.13
20
-114.556
11
175.04
21
-114.816
0
LINE
8
BLACK
6
CONTINUOUS
10
175.04
20
-114.816
11
174.912
21
-115.059
0
LINE
8
BLACK
6
CONTINUOUS
10
174.912
20
-115.059
11
174.751
21
-115.282
0
LINE
8
BLACK
6
CONTINUOUS
10
174.751
20
-115.282
11
174.687
21
-115.359
0
LINE
8
BLACK
6
CONTINUOUS
10
174.687
20
-115.359
11
174.559
21
-115.497
0
LINE
8
BLACK
6
CONTINUOUS
10
174.559
20
-115.497
11
174.348
21
-115.675
0
LINE
8
BLACK
6
CONTINUOUS
10
174.348
20
-115.675
11
174.115
21
-115.82
0
LINE
8
BLACK
6
CONTINUOUS
10
174.115
20
-115.82
11
173.863
21
-115.93
0
LINE
8
BLACK
6
CONTINUOUS
10
173.863
20
-115.93
11
173.597
21
-116.002
0
LINE
8
BLACK
6
CONTINUOUS
10
173.597
20
-116.002
11
173.324
21
-116.035
0
LINE
8
BLACK
6
CONTINUOUS
10
173.324
20
-116.035
11
173.049
21
-116.029
0
LINE
8
BLACK
6
CONTINUOUS
10
173.049
20
-116.029
11
172.778
21
-115.983
0
LINE
8
BLACK
6
CONTINUOUS
10
172.778
20
-115.983
11
172.517
21
-115.898
0
LINE
8
BLACK
6
CONTINUOUS
10
172.517
20
-115.898
11
172.27
21
-115.776
0
LINE
8
BLACK
6
CONTINUOUS
10
172.27
20
-115.776
11
172.044
21
-115.62
0
LINE
8
BLACK
6
CONTINUOUS
10
172.044
20
-115.62
11
171.842
21
-115.433
0
LINE
8
BLACK
6
CONTINUOUS
10
171.842
20
-115.433
11
171.669
21
-115.219
0
LINE
8
BLACK
6
CONTINUOUS
10
171.669
20
-115.219
11
171.53
21
-114.982
0
LINE
8
BLACK
6
CONTINUOUS
10
171.53
20
-114.982
11
171.426
21
-114.728
0
LINE
8
BLACK
6
CONTINUOUS
10
171.426
20
-114.728
11
171.359
21
-114.461
0
LINE
8
BLACK
6
CONTINUOUS
10
171.359
20
-114.461
11
171.332
21
-114.187
0
LINE
8
BLACK
6
CONTINUOUS
10
171.332
20
-114.187
11
171.345
21
-113.913
0
LINE
8
BLACK
6
CONTINUOUS
10
171.345
20
-113.913
11
171.397
21
-113.643
0
LINE
8
BLACK
6
CONTINUOUS
10
171.397
20
-113.643
11
171.488
21
-113.383
0
LINE
8
BLACK
6
CONTINUOUS
10
171.488
20
-113.383
11
171.615
21
-113.139
0
LINE
8
BLACK
6
CONTINUOUS
10
171.615
20
-113.139
11
171.776
21
-112.916
0
LINE
8
BLACK
6
CONTINUOUS
10
171.776
20
-112.916
11
171.84
21
-112.84
0
LINE
8
BLACK
6
CONTINUOUS
10
171.84
20
-112.84
11
171.969
21
-112.701
0
LINE
8
BLACK
6
CONTINUOUS
10
128.942
20
-76.6001
11
129.152
21
-76.4228
0
LINE
8
BLACK
6
CONTINUOUS
10
129.152
20
-76.4228
11
129.385
21
-76.2777
0
LINE
8
BLACK
6
CONTINUOUS
10
129.385
20
-76.2777
11
129.638
21
-76.1678
0
LINE
8
BLACK
6
CONTINUOUS
10
129.638
20
-76.1678
11
129.903
21
-76.0955
0
LINE
8
BLACK
6
CONTINUOUS
10
129.903
20
-76.0955
11
130.176
21
-76.0622
0
LINE
8
BLACK
6
CONTINUOUS
10
130.176
20
-76.0622
11
130.451
21
-76.0687
0
LINE
8
BLACK
6
CONTINUOUS
10
130.451
20
-76.0687
11
130.722
21
-76.1148
0
LINE
8
BLACK
6
CONTINUOUS
10
130.722
20
-76.1148
11
130.984
21
-76.1995
0
LINE
8
BLACK
6
CONTINUOUS
10
130.984
20
-76.1995
11
131.23
21
-76.3212
0
LINE
8
BLACK
6
CONTINUOUS
10
131.23
20
-76.3212
11
131.457
21
-76.4771
0
LINE
8
BLACK
6
CONTINUOUS
10
131.457
20
-76.4771
11
131.658
21
-76.6641
0
LINE
8
BLACK
6
CONTINUOUS
10
131.658
20
-76.6641
11
131.831
21
-76.8783
0
LINE
8
BLACK
6
CONTINUOUS
10
131.831
20
-76.8783
11
131.971
21
-77.1151
0
LINE
8
BLACK
6
CONTINUOUS
10
131.971
20
-77.1151
11
132.075
21
-77.3696
0
LINE
8
BLACK
6
CONTINUOUS
10
132.075
20
-77.3696
11
132.141
21
-77.6365
0
LINE
8
BLACK
6
CONTINUOUS
10
132.141
20
-77.6365
11
132.168
21
-77.9102
0
LINE
8
BLACK
6
CONTINUOUS
10
132.168
20
-77.9102
11
132.155
21
-78.1849
0
LINE
8
BLACK
6
CONTINUOUS
10
132.155
20
-78.1849
11
132.103
21
-78.4549
0
LINE
8
BLACK
6
CONTINUOUS
10
132.103
20
-78.4549
11
132.012
21
-78.7145
0
LINE
8
BLACK
6
CONTINUOUS
10
132.012
20
-78.7145
11
131.885
21
-78.9583
0
LINE
8
BLACK
6
CONTINUOUS
10
131.885
20
-78.9583
11
131.724
21
-79.1812
0
LINE
8
BLACK
6
CONTINUOUS
10
131.724
20
-79.1812
11
131.66
21
-79.2578
0
LINE
8
BLACK
6
CONTINUOUS
10
131.66
20
-79.2578
11
131.531
21
-79.3964
0
LINE
8
BLACK
6
CONTINUOUS
10
131.531
20
-79.3964
11
131.321
21
-79.5737
0
LINE
8
BLACK
6
CONTINUOUS
10
131.321
20
-79.5737
11
131.088
21
-79.7188
0
LINE
8
BLACK
6
CONTINUOUS
10
131.088
20
-79.7188
11
130.836
21
-79.8287
0
LINE
8
BLACK
6
CONTINUOUS
10
130.836
20
-79.8287
11
130.57
21
-79.901
0
LINE
8
BLACK
6
CONTINUOUS
10
130.57
20
-79.901
11
130.297
21
-79.9343
0
LINE
8
BLACK
6
CONTINUOUS
10
130.297
20
-79.9343
11
130.022
21
-79.9278
0
LINE
8
BLACK
6
CONTINUOUS
10
130.022
20
-79.9278
11
129.751
21
-79.8817
0
LINE
8
BLACK
6
CONTINUOUS
10
129.751
20
-79.8817
11
129.49
21
-79.7969
0
LINE
8
BLACK
6
CONTINUOUS
10
129.49
20
-79.7969
11
129.243
21
-79.6753
0
LINE
8
BLACK
6
CONTINUOUS
10
129.243
20
-79.6753
11
129.016
21
-79.5194
0
LINE
8
BLACK
6
CONTINUOUS
10
129.016
20
-79.5194
11
128.815
21
-79.3323
0
LINE
8
BLACK
6
CONTINUOUS
10
128.815
20
-79.3323
11
128.642
21
-79.1182
0
LINE
8
BLACK
6
CONTINUOUS
10
128.642
20
-79.1182
11
128.503
21
-78.8814
0
LINE
8
BLACK
6
CONTINUOUS
10
128.503
20
-78.8814
11
128.398
21
-78.6268
0
LINE
8
BLACK
6
CONTINUOUS
10
128.398
20
-78.6268
11
128.332
21
-78.3599
0
LINE
8
BLACK
6
CONTINUOUS
10
128.332
20
-78.3599
11
128.305
21
-78.0863
0
LINE
8
BLACK
6
CONTINUOUS
10
128.305
20
-78.0863
11
128.318
21
-77.8116
0
LINE
8
BLACK
6
CONTINUOUS
10
128.318
20
-77.8116
11
128.37
21
-77.5416
0
LINE
8
BLACK
6
CONTINUOUS
10
128.37
20
-77.5416
11
128.461
21
-77.282
0
LINE
8
BLACK
6
CONTINUOUS
10
128.461
20
-77.282
11
128.588
21
-77.0381
0
LINE
8
BLACK
6
CONTINUOUS
10
128.588
20
-77.0381
11
128.749
21
-76.8152
0
LINE
8
BLACK
6
CONTINUOUS
10
128.749
20
-76.8152
11
128.813
21
-76.7386
0
LINE
8
BLACK
6
CONTINUOUS
10
128.813
20
-76.7386
11
128.942
21
-76.6001
0
CIRCLE
8
BLACK
10
104.01
20
-111.31
40
1.6
0
CIRCLE
8
BLACK
10
62.5073
20
-93.1041
40
1.6
0
CIRCLE
8
BLACK
10
184.935
20
-63.1321
40
1.6
0
CIRCLE
8
BLACK
10
51.1707
20
-39.4974
40
1.6
0
CIRCLE
8
BLACK
10
236.966
20
-93.3581
40
1.6
  0
ENDSEC
  0
EOF
