%FSLAX45Y45*%
G04 Gerber Fmt 4.5, Leading zero omitted, Abs format (unit mm)*
G04 Created by KiCad (PCBNEW (6.0.4)) date 2022-05-26 21:53:49*
%MOMM*%
%LPD*%
G01*
G04 APERTURE LIST*
%TA.AperFunction,Profile*%
%ADD10C,0.150000*%
%TD*%
%ADD11C,0.200000*%
%ADD12C,0.090000*%
%ADD13C,0.170180*%
%ADD14C,0.300000*%
%ADD15C,0.342900*%
G04 APERTURE END LIST*
D10*
X16865768Y12115786D02*
G75*
G03*
X16560968Y12420586I-304800J0D01*
G01*
X4579491Y12425784D02*
G75*
G03*
X4274691Y12120984I0J-304800D01*
G01*
X4261741Y3886032D02*
G75*
G03*
X4566541Y3581232I304800J0D01*
G01*
X16560800Y3581400D02*
G75*
G03*
X16865600Y3886200I0J304800D01*
G01*
X16560968Y12420586D02*
X4579491Y12425784D01*
X4261741Y3886032D02*
X4274691Y12120984D01*
X16865600Y3886200D02*
X16865768Y12115786D01*
X16560800Y3581400D02*
X4566541Y3581232D01*
D11*
D12*
X16566600Y6973200D02*
X16656600Y6883200D01*
X16656600Y6973200D02*
X16566600Y6883200D01*
X16566600Y6673200D02*
X16656600Y6583200D01*
X16656600Y6673200D02*
X16566600Y6583200D01*
D13*
X5025423Y8175815D02*
G75*
G03*
X5025423Y8175815I-85090J0D01*
G01*
X5522455Y6550097D02*
G75*
G03*
X5522455Y6550097I-85090J0D01*
G01*
X6077358Y8497424D02*
G75*
G03*
X6077358Y8497424I-85090J0D01*
G01*
X6574390Y6871706D02*
G75*
G03*
X6574390Y6871706I-85090J0D01*
G01*
X6813489Y10399777D02*
G75*
G03*
X6813489Y10399777I-85090J0D01*
G01*
X7108691Y8725603D02*
G75*
G03*
X7108691Y8725603I-85090J0D01*
G01*
X7403893Y7051430D02*
G75*
G03*
X7403893Y7051430I-85090J0D01*
G01*
X7896778Y10590790D02*
G75*
G03*
X7896778Y10590790I-85090J0D01*
G01*
X8191980Y8916616D02*
G75*
G03*
X8191980Y8916616I-85090J0D01*
G01*
X8487182Y7242443D02*
G75*
G03*
X8487182Y7242443I-85090J0D01*
G01*
X8879532Y11357012D02*
G75*
G03*
X8879532Y11357012I-85090J0D01*
G01*
X9027696Y9663481D02*
G75*
G03*
X9027696Y9663481I-85090J0D01*
G01*
X9175861Y7969950D02*
G75*
G03*
X9175861Y7969950I-85090J0D01*
G01*
X9975346Y11452883D02*
G75*
G03*
X9975346Y11452883I-85090J0D01*
G01*
X10123510Y9759352D02*
G75*
G03*
X10123510Y9759352I-85090J0D01*
G01*
X10271675Y8065821D02*
G75*
G03*
X10271675Y8065821I-85090J0D01*
G01*
X11076199Y10668602D02*
G75*
G03*
X11076199Y10668602I-85090J0D01*
G01*
X11076199Y8968602D02*
G75*
G03*
X11076199Y8968602I-85090J0D01*
G01*
X11076199Y7268602D02*
G75*
G03*
X11076199Y7268602I-85090J0D01*
G01*
X11259796Y4635999D02*
G75*
G03*
X11259796Y4635999I-85090J0D01*
G01*
X12176199Y10668602D02*
G75*
G03*
X12176199Y10668602I-85090J0D01*
G01*
X12176199Y8968602D02*
G75*
G03*
X12176199Y8968602I-85090J0D01*
G01*
X12176199Y7268602D02*
G75*
G03*
X12176199Y7268602I-85090J0D01*
G01*
X12331603Y4883445D02*
G75*
G03*
X12331603Y4883445I-85090J0D01*
G01*
X12933590Y10517800D02*
G75*
G03*
X12933590Y10517800I-85090J0D01*
G01*
X12933590Y8817800D02*
G75*
G03*
X12933590Y8817800I-85090J0D01*
G01*
X12933590Y7117800D02*
G75*
G03*
X12933590Y7117800I-85090J0D01*
G01*
X13225690Y4984200D02*
G75*
G03*
X13225690Y4984200I-85090J0D01*
G01*
X14033590Y10517800D02*
G75*
G03*
X14033590Y10517800I-85090J0D01*
G01*
X14033590Y8817800D02*
G75*
G03*
X14033590Y8817800I-85090J0D01*
G01*
X14033590Y7117800D02*
G75*
G03*
X14033590Y7117800I-85090J0D01*
G01*
X14325690Y4984200D02*
G75*
G03*
X14325690Y4984200I-85090J0D01*
G01*
X15233760Y4864650D02*
G75*
G03*
X15233760Y4864650I-85090J0D01*
G01*
X16296278Y4579949D02*
G75*
G03*
X16296278Y4579949I-85090J0D01*
G01*
D14*
X4878509Y8699048D02*
X4878509Y8399048D01*
X4728509Y8549048D02*
X5028509Y8549048D01*
X5292339Y9055621D02*
X5292339Y8755621D01*
X5142339Y8905621D02*
X5442339Y8905621D01*
X5375541Y7073330D02*
X5375541Y6773330D01*
X5225541Y6923330D02*
X5525541Y6923330D01*
X5789371Y7429903D02*
X5789371Y7129903D01*
X5639371Y7279903D02*
X5939371Y7279903D01*
X5834814Y8991420D02*
X5834814Y8691420D01*
X5684814Y8841420D02*
X5984814Y8841420D01*
X6331845Y7365702D02*
X6331845Y7065702D01*
X6181845Y7215702D02*
X6481845Y7215702D01*
X6712522Y10927762D02*
X6712522Y10627762D01*
X6562522Y10777762D02*
X6862522Y10777762D01*
X7007724Y9253589D02*
X7007724Y8953589D01*
X6857724Y9103589D02*
X7157724Y9103589D01*
X7166723Y11231244D02*
X7166723Y10931244D01*
X7016723Y11081244D02*
X7316723Y11081244D01*
X7302926Y7579415D02*
X7302926Y7279415D01*
X7152926Y7429415D02*
X7452926Y7429415D01*
X7461925Y9557070D02*
X7461925Y9257070D01*
X7311925Y9407070D02*
X7611925Y9407070D01*
X7697330Y11101410D02*
X7697330Y10801410D01*
X7547330Y10951410D02*
X7847330Y10951410D01*
X7757127Y7882897D02*
X7757127Y7582897D01*
X7607127Y7732897D02*
X7907127Y7732897D01*
X7992531Y9427237D02*
X7992531Y9127237D01*
X7842531Y9277237D02*
X8142531Y9277237D01*
X8287733Y7753063D02*
X8287733Y7453063D01*
X8137733Y7603063D02*
X8437733Y7603063D01*
X8811568Y11884943D02*
X8811568Y11584943D01*
X8661568Y11734943D02*
X8961568Y11734943D01*
X8959733Y10191412D02*
X8959733Y9891412D01*
X8809733Y10041412D02*
X9109733Y10041412D01*
X9107897Y8497881D02*
X9107897Y8197881D01*
X8957897Y8347881D02*
X9257897Y8347881D01*
X9290491Y12147683D02*
X9290491Y11847683D01*
X9140491Y11997683D02*
X9440491Y11997683D01*
X9438656Y10454153D02*
X9438656Y10154153D01*
X9288656Y10304153D02*
X9588656Y10304153D01*
X9586820Y8760622D02*
X9586820Y8460622D01*
X9436820Y8610622D02*
X9736820Y8610622D01*
X9807763Y11972098D02*
X9807763Y11672098D01*
X9657763Y11822098D02*
X9957763Y11822098D01*
X9955927Y10278568D02*
X9955927Y9978568D01*
X9805927Y10128568D02*
X10105927Y10128568D01*
X10104092Y8585037D02*
X10104092Y8285036D01*
X9954092Y8435037D02*
X10254092Y8435037D01*
X11041109Y11193602D02*
X11041109Y10893602D01*
X10891109Y11043602D02*
X11191109Y11043602D01*
X11041109Y9493602D02*
X11041109Y9193602D01*
X10891109Y9343602D02*
X11191109Y9343602D01*
X11041109Y7793602D02*
X11041109Y7493602D01*
X10891109Y7643602D02*
X11191109Y7643602D01*
X11139068Y5162635D02*
X11139068Y4862635D01*
X10989068Y5012635D02*
X11289068Y5012635D01*
X11541109Y11413602D02*
X11541109Y11113602D01*
X11391109Y11263602D02*
X11691109Y11263602D01*
X11541109Y9713602D02*
X11541109Y9413602D01*
X11391109Y9563602D02*
X11691109Y9563602D01*
X11541109Y8013602D02*
X11541109Y7713602D01*
X11391109Y7863602D02*
X11691109Y7863602D01*
X11576764Y5489472D02*
X11576764Y5189472D01*
X11426764Y5339472D02*
X11726764Y5339472D01*
X12041109Y11193602D02*
X12041109Y10893602D01*
X11891109Y11043602D02*
X12191109Y11043602D01*
X12041109Y9493602D02*
X12041109Y9193602D01*
X11891109Y9343602D02*
X12191109Y9343602D01*
X12041109Y7793602D02*
X12041109Y7493602D01*
X11891109Y7643602D02*
X12191109Y7643602D01*
X12113438Y5387586D02*
X12113438Y5087586D01*
X11963438Y5237586D02*
X12263438Y5237586D01*
X12898500Y11042800D02*
X12898500Y10742800D01*
X12748500Y10892800D02*
X13048500Y10892800D01*
X12898500Y9342800D02*
X12898500Y9042800D01*
X12748500Y9192800D02*
X13048500Y9192800D01*
X12898500Y7642800D02*
X12898500Y7342800D01*
X12748500Y7492800D02*
X13048500Y7492800D01*
X13190600Y5509200D02*
X13190600Y5209200D01*
X13040600Y5359200D02*
X13340600Y5359200D01*
X13398500Y11262800D02*
X13398500Y10962800D01*
X13248500Y11112800D02*
X13548500Y11112800D01*
X13398500Y9562800D02*
X13398500Y9262800D01*
X13248500Y9412800D02*
X13548500Y9412800D01*
X13398500Y7862800D02*
X13398500Y7562800D01*
X13248500Y7712800D02*
X13548500Y7712800D01*
X13690600Y5729200D02*
X13690600Y5429200D01*
X13540600Y5579200D02*
X13840600Y5579200D01*
X13898500Y11042800D02*
X13898500Y10742800D01*
X13748500Y10892800D02*
X14048500Y10892800D01*
X13898500Y9342800D02*
X13898500Y9042800D01*
X13748500Y9192800D02*
X14048500Y9192800D01*
X13898500Y7642800D02*
X13898500Y7342800D01*
X13748500Y7492800D02*
X14048500Y7492800D01*
X14190600Y5509200D02*
X14190600Y5209200D01*
X14040600Y5359200D02*
X14340600Y5359200D01*
X15294023Y5363931D02*
X15294023Y5063931D01*
X15144023Y5213931D02*
X15444023Y5213931D01*
X15833927Y5447026D02*
X15833927Y5147026D01*
X15683927Y5297026D02*
X15983927Y5297026D01*
X16259949Y5105112D02*
X16259949Y4805112D01*
X16109949Y4955112D02*
X16409949Y4955112D01*
D15*
X5587535Y8215385D02*
X5587535Y8457854D01*
X5345066Y8457854D01*
X5345066Y8215385D01*
X5587535Y8215385D01*
X6084567Y6589667D02*
X6084567Y6832136D01*
X5842098Y6832136D01*
X5842098Y6589667D01*
X6084567Y6589667D01*
X7391278Y10374048D02*
X7391278Y10616518D01*
X7148809Y10616518D01*
X7148809Y10374048D01*
X7391278Y10374048D01*
X7686480Y8699875D02*
X7686480Y8942344D01*
X7444011Y8942344D01*
X7444011Y8699875D01*
X7686480Y8699875D01*
X7981682Y7025702D02*
X7981682Y7268171D01*
X7739213Y7268171D01*
X7739213Y7025702D01*
X7981682Y7025702D01*
X9463583Y11283713D02*
X9463583Y11526182D01*
X9221114Y11526182D01*
X9221114Y11283713D01*
X9463583Y11283713D01*
X9611748Y9590182D02*
X9611748Y9832651D01*
X9369279Y9832651D01*
X9369279Y9590182D01*
X9611748Y9590182D01*
X9759913Y7896651D02*
X9759913Y8139120D01*
X9517444Y8139120D01*
X9517444Y7896651D01*
X9759913Y7896651D01*
X11662343Y10547367D02*
X11662343Y10789836D01*
X11419874Y10789836D01*
X11419874Y10547367D01*
X11662343Y10547367D01*
X11662343Y8847367D02*
X11662343Y9089836D01*
X11419874Y9089836D01*
X11419874Y8847367D01*
X11662343Y8847367D01*
X11662343Y7147367D02*
X11662343Y7389836D01*
X11419874Y7389836D01*
X11419874Y7147367D01*
X11662343Y7147367D01*
X11831844Y4638487D02*
X11831844Y4880957D01*
X11589375Y4880957D01*
X11589375Y4638487D01*
X11831844Y4638487D01*
X13519735Y10396565D02*
X13519735Y10639035D01*
X13277265Y10639035D01*
X13277265Y10396565D01*
X13519735Y10396565D01*
X13519735Y8696565D02*
X13519735Y8939035D01*
X13277265Y8939035D01*
X13277265Y8696565D01*
X13519735Y8696565D01*
X13519735Y6996565D02*
X13519735Y7239035D01*
X13277265Y7239035D01*
X13277265Y6996565D01*
X13519735Y6996565D01*
X13811834Y4862966D02*
X13811834Y5105435D01*
X13569365Y5105435D01*
X13569365Y4862966D01*
X13811834Y4862966D01*
X15801164Y4601065D02*
X15801164Y4843534D01*
X15558695Y4843534D01*
X15558695Y4601065D01*
X15801164Y4601065D01*
D11*
X4511860Y3263256D02*
X4511860Y3463256D01*
X4559479Y3463256D01*
X4588051Y3453732D01*
X4607098Y3434684D01*
X4616622Y3415637D01*
X4626146Y3377542D01*
X4626146Y3348970D01*
X4616622Y3310875D01*
X4607098Y3291827D01*
X4588051Y3272780D01*
X4559479Y3263256D01*
X4511860Y3263256D01*
X4711860Y3263256D02*
X4711860Y3396589D01*
X4711860Y3358494D02*
X4721384Y3377542D01*
X4730908Y3387065D01*
X4749955Y3396589D01*
X4769003Y3396589D01*
X4835670Y3263256D02*
X4835670Y3396589D01*
X4835670Y3463256D02*
X4826146Y3453732D01*
X4835670Y3444208D01*
X4845193Y3453732D01*
X4835670Y3463256D01*
X4835670Y3444208D01*
X4959479Y3263256D02*
X4940431Y3272780D01*
X4930908Y3291827D01*
X4930908Y3463256D01*
X5064241Y3263256D02*
X5045193Y3272780D01*
X5035670Y3291827D01*
X5035670Y3463256D01*
X5292812Y3263256D02*
X5292812Y3463256D01*
X5359479Y3320399D01*
X5426146Y3463256D01*
X5426146Y3263256D01*
X5607098Y3263256D02*
X5607098Y3368018D01*
X5597574Y3387065D01*
X5578527Y3396589D01*
X5540431Y3396589D01*
X5521384Y3387065D01*
X5607098Y3272780D02*
X5588051Y3263256D01*
X5540431Y3263256D01*
X5521384Y3272780D01*
X5511860Y3291827D01*
X5511860Y3310875D01*
X5521384Y3329923D01*
X5540431Y3339446D01*
X5588051Y3339446D01*
X5607098Y3348970D01*
X5702336Y3396589D02*
X5702336Y3196589D01*
X5702336Y3387065D02*
X5721384Y3396589D01*
X5759479Y3396589D01*
X5778527Y3387065D01*
X5788050Y3377542D01*
X5797574Y3358494D01*
X5797574Y3301351D01*
X5788050Y3282304D01*
X5778527Y3272780D01*
X5759479Y3263256D01*
X5721384Y3263256D01*
X5702336Y3272780D01*
X5883289Y3282304D02*
X5892812Y3272780D01*
X5883289Y3263256D01*
X5873765Y3272780D01*
X5883289Y3282304D01*
X5883289Y3263256D01*
X5883289Y3387065D02*
X5892812Y3377542D01*
X5883289Y3368018D01*
X5873765Y3377542D01*
X5883289Y3387065D01*
X5883289Y3368018D01*
D12*
X4164241Y2978732D02*
X4254241Y2888732D01*
X4254241Y2978732D02*
X4164241Y2888732D01*
D11*
X4549955Y3043256D02*
X4569003Y3043256D01*
X4588051Y3033732D01*
X4597574Y3024208D01*
X4607098Y3005161D01*
X4616622Y2967065D01*
X4616622Y2919446D01*
X4607098Y2881351D01*
X4597574Y2862304D01*
X4588051Y2852780D01*
X4569003Y2843256D01*
X4549955Y2843256D01*
X4530908Y2852780D01*
X4521384Y2862304D01*
X4511860Y2881351D01*
X4502336Y2919446D01*
X4502336Y2967065D01*
X4511860Y3005161D01*
X4521384Y3024208D01*
X4530908Y3033732D01*
X4549955Y3043256D01*
X4702336Y2862304D02*
X4711860Y2852780D01*
X4702336Y2843256D01*
X4692812Y2852780D01*
X4702336Y2862304D01*
X4702336Y2843256D01*
X4807098Y2843256D02*
X4845193Y2843256D01*
X4864241Y2852780D01*
X4873765Y2862304D01*
X4892812Y2890875D01*
X4902336Y2928970D01*
X4902336Y3005161D01*
X4892812Y3024208D01*
X4883289Y3033732D01*
X4864241Y3043256D01*
X4826146Y3043256D01*
X4807098Y3033732D01*
X4797574Y3024208D01*
X4788051Y3005161D01*
X4788051Y2957542D01*
X4797574Y2938494D01*
X4807098Y2928970D01*
X4826146Y2919446D01*
X4864241Y2919446D01*
X4883289Y2928970D01*
X4892812Y2938494D01*
X4902336Y2957542D01*
X5026146Y3043256D02*
X5045193Y3043256D01*
X5064241Y3033732D01*
X5073765Y3024208D01*
X5083289Y3005161D01*
X5092812Y2967065D01*
X5092812Y2919446D01*
X5083289Y2881351D01*
X5073765Y2862304D01*
X5064241Y2852780D01*
X5045193Y2843256D01*
X5026146Y2843256D01*
X5007098Y2852780D01*
X4997574Y2862304D01*
X4988051Y2881351D01*
X4978527Y2919446D01*
X4978527Y2967065D01*
X4988051Y3005161D01*
X4997574Y3024208D01*
X5007098Y3033732D01*
X5026146Y3043256D01*
X5216622Y3043256D02*
X5235670Y3043256D01*
X5254717Y3033732D01*
X5264241Y3024208D01*
X5273765Y3005161D01*
X5283289Y2967065D01*
X5283289Y2919446D01*
X5273765Y2881351D01*
X5264241Y2862304D01*
X5254717Y2852780D01*
X5235670Y2843256D01*
X5216622Y2843256D01*
X5197574Y2852780D01*
X5188051Y2862304D01*
X5178527Y2881351D01*
X5169003Y2919446D01*
X5169003Y2967065D01*
X5178527Y3005161D01*
X5188051Y3024208D01*
X5197574Y3033732D01*
X5216622Y3043256D01*
X5369003Y2843256D02*
X5369003Y2976589D01*
X5369003Y2957542D02*
X5378527Y2967065D01*
X5397574Y2976589D01*
X5426146Y2976589D01*
X5445193Y2967065D01*
X5454717Y2948018D01*
X5454717Y2843256D01*
X5454717Y2948018D02*
X5464241Y2967065D01*
X5483289Y2976589D01*
X5511860Y2976589D01*
X5530908Y2967065D01*
X5540431Y2948018D01*
X5540431Y2843256D01*
X5635669Y2843256D02*
X5635669Y2976589D01*
X5635669Y2957542D02*
X5645193Y2967065D01*
X5664241Y2976589D01*
X5692812Y2976589D01*
X5711860Y2967065D01*
X5721384Y2948018D01*
X5721384Y2843256D01*
X5721384Y2948018D02*
X5730908Y2967065D01*
X5749955Y2976589D01*
X5778527Y2976589D01*
X5797574Y2967065D01*
X5807098Y2948018D01*
X5807098Y2843256D01*
X6197574Y3052780D02*
X6026146Y2795637D01*
X6454717Y3043256D02*
X6473765Y3043256D01*
X6492812Y3033732D01*
X6502336Y3024208D01*
X6511860Y3005161D01*
X6521384Y2967065D01*
X6521384Y2919446D01*
X6511860Y2881351D01*
X6502336Y2862304D01*
X6492812Y2852780D01*
X6473765Y2843256D01*
X6454717Y2843256D01*
X6435669Y2852780D01*
X6426146Y2862304D01*
X6416622Y2881351D01*
X6407098Y2919446D01*
X6407098Y2967065D01*
X6416622Y3005161D01*
X6426146Y3024208D01*
X6435669Y3033732D01*
X6454717Y3043256D01*
X6607098Y2862304D02*
X6616622Y2852780D01*
X6607098Y2843256D01*
X6597574Y2852780D01*
X6607098Y2862304D01*
X6607098Y2843256D01*
X6740431Y3043256D02*
X6759479Y3043256D01*
X6778527Y3033732D01*
X6788050Y3024208D01*
X6797574Y3005161D01*
X6807098Y2967065D01*
X6807098Y2919446D01*
X6797574Y2881351D01*
X6788050Y2862304D01*
X6778527Y2852780D01*
X6759479Y2843256D01*
X6740431Y2843256D01*
X6721384Y2852780D01*
X6711860Y2862304D01*
X6702336Y2881351D01*
X6692812Y2919446D01*
X6692812Y2967065D01*
X6702336Y3005161D01*
X6711860Y3024208D01*
X6721384Y3033732D01*
X6740431Y3043256D01*
X6873765Y3043256D02*
X6997574Y3043256D01*
X6930908Y2967065D01*
X6959479Y2967065D01*
X6978527Y2957542D01*
X6988050Y2948018D01*
X6997574Y2928970D01*
X6997574Y2881351D01*
X6988050Y2862304D01*
X6978527Y2852780D01*
X6959479Y2843256D01*
X6902336Y2843256D01*
X6883289Y2852780D01*
X6873765Y2862304D01*
X7178527Y3043256D02*
X7083289Y3043256D01*
X7073765Y2948018D01*
X7083289Y2957542D01*
X7102336Y2967065D01*
X7149955Y2967065D01*
X7169003Y2957542D01*
X7178527Y2948018D01*
X7188050Y2928970D01*
X7188050Y2881351D01*
X7178527Y2862304D01*
X7169003Y2852780D01*
X7149955Y2843256D01*
X7102336Y2843256D01*
X7083289Y2852780D01*
X7073765Y2862304D01*
X7359479Y2976589D02*
X7359479Y2843256D01*
X7311860Y3052780D02*
X7264241Y2909923D01*
X7388050Y2909923D01*
X7454717Y3043256D02*
X7454717Y3005161D01*
X7530908Y3043256D02*
X7530908Y3005161D01*
X7826146Y2767066D02*
X7816622Y2776589D01*
X7797574Y2805161D01*
X7788050Y2824208D01*
X7778527Y2852780D01*
X7769003Y2900399D01*
X7769003Y2938494D01*
X7778527Y2986113D01*
X7788050Y3014684D01*
X7797574Y3033732D01*
X7816622Y3062304D01*
X7826146Y3071827D01*
X7892812Y3024208D02*
X7902336Y3033732D01*
X7921384Y3043256D01*
X7969003Y3043256D01*
X7988050Y3033732D01*
X7997574Y3024208D01*
X8007098Y3005161D01*
X8007098Y2986113D01*
X7997574Y2957542D01*
X7883289Y2843256D01*
X8007098Y2843256D01*
X8245193Y2843256D02*
X8245193Y3043256D01*
X8330908Y2843256D02*
X8330908Y2948018D01*
X8321384Y2967065D01*
X8302336Y2976589D01*
X8273765Y2976589D01*
X8254717Y2967065D01*
X8245193Y2957542D01*
X8454717Y2843256D02*
X8435670Y2852780D01*
X8426146Y2862304D01*
X8416622Y2881351D01*
X8416622Y2938494D01*
X8426146Y2957542D01*
X8435670Y2967065D01*
X8454717Y2976589D01*
X8483289Y2976589D01*
X8502336Y2967065D01*
X8511860Y2957542D01*
X8521384Y2938494D01*
X8521384Y2881351D01*
X8511860Y2862304D01*
X8502336Y2852780D01*
X8483289Y2843256D01*
X8454717Y2843256D01*
X8635670Y2843256D02*
X8616622Y2852780D01*
X8607098Y2871827D01*
X8607098Y3043256D01*
X8788051Y2852780D02*
X8769003Y2843256D01*
X8730908Y2843256D01*
X8711860Y2852780D01*
X8702336Y2871827D01*
X8702336Y2948018D01*
X8711860Y2967065D01*
X8730908Y2976589D01*
X8769003Y2976589D01*
X8788051Y2967065D01*
X8797574Y2948018D01*
X8797574Y2928970D01*
X8702336Y2909923D01*
X8873765Y2852780D02*
X8892812Y2843256D01*
X8930908Y2843256D01*
X8949955Y2852780D01*
X8959479Y2871827D01*
X8959479Y2881351D01*
X8949955Y2900399D01*
X8930908Y2909923D01*
X8902336Y2909923D01*
X8883289Y2919446D01*
X8873765Y2938494D01*
X8873765Y2948018D01*
X8883289Y2967065D01*
X8902336Y2976589D01*
X8930908Y2976589D01*
X8949955Y2967065D01*
X9026146Y2767066D02*
X9035670Y2776589D01*
X9054717Y2805161D01*
X9064241Y2824208D01*
X9073765Y2852780D01*
X9083289Y2900399D01*
X9083289Y2938494D01*
X9073765Y2986113D01*
X9064241Y3014684D01*
X9054717Y3033732D01*
X9035670Y3062304D01*
X9026146Y3071827D01*
X9388051Y2767066D02*
X9378527Y2776589D01*
X9359479Y2805161D01*
X9349955Y2824208D01*
X9340431Y2852780D01*
X9330908Y2900399D01*
X9330908Y2938494D01*
X9340431Y2986113D01*
X9349955Y3014684D01*
X9359479Y3033732D01*
X9378527Y3062304D01*
X9388051Y3071827D01*
X9464241Y2976589D02*
X9464241Y2843256D01*
X9464241Y2957542D02*
X9473765Y2967065D01*
X9492812Y2976589D01*
X9521384Y2976589D01*
X9540431Y2967065D01*
X9549955Y2948018D01*
X9549955Y2843256D01*
X9673765Y2843256D02*
X9654717Y2852780D01*
X9645193Y2862304D01*
X9635670Y2881351D01*
X9635670Y2938494D01*
X9645193Y2957542D01*
X9654717Y2967065D01*
X9673765Y2976589D01*
X9702336Y2976589D01*
X9721384Y2967065D01*
X9730908Y2957542D01*
X9740431Y2938494D01*
X9740431Y2881351D01*
X9730908Y2862304D01*
X9721384Y2852780D01*
X9702336Y2843256D01*
X9673765Y2843256D01*
X9797574Y2976589D02*
X9873765Y2976589D01*
X9826146Y3043256D02*
X9826146Y2871827D01*
X9835670Y2852780D01*
X9854717Y2843256D01*
X9873765Y2843256D01*
X10092812Y2976589D02*
X10092812Y2776589D01*
X10092812Y2967065D02*
X10111860Y2976589D01*
X10149955Y2976589D01*
X10169003Y2967065D01*
X10178527Y2957542D01*
X10188051Y2938494D01*
X10188051Y2881351D01*
X10178527Y2862304D01*
X10169003Y2852780D01*
X10149955Y2843256D01*
X10111860Y2843256D01*
X10092812Y2852780D01*
X10302336Y2843256D02*
X10283289Y2852780D01*
X10273765Y2871827D01*
X10273765Y3043256D01*
X10464241Y2843256D02*
X10464241Y2948018D01*
X10454717Y2967065D01*
X10435670Y2976589D01*
X10397574Y2976589D01*
X10378527Y2967065D01*
X10464241Y2852780D02*
X10445193Y2843256D01*
X10397574Y2843256D01*
X10378527Y2852780D01*
X10369003Y2871827D01*
X10369003Y2890875D01*
X10378527Y2909923D01*
X10397574Y2919446D01*
X10445193Y2919446D01*
X10464241Y2928970D01*
X10530908Y2976589D02*
X10607098Y2976589D01*
X10559479Y3043256D02*
X10559479Y2871827D01*
X10569003Y2852780D01*
X10588051Y2843256D01*
X10607098Y2843256D01*
X10749955Y2852780D02*
X10730908Y2843256D01*
X10692812Y2843256D01*
X10673765Y2852780D01*
X10664241Y2871827D01*
X10664241Y2948018D01*
X10673765Y2967065D01*
X10692812Y2976589D01*
X10730908Y2976589D01*
X10749955Y2967065D01*
X10759479Y2948018D01*
X10759479Y2928970D01*
X10664241Y2909923D01*
X10930908Y2843256D02*
X10930908Y3043256D01*
X10930908Y2852780D02*
X10911860Y2843256D01*
X10873765Y2843256D01*
X10854717Y2852780D01*
X10845193Y2862304D01*
X10835670Y2881351D01*
X10835670Y2938494D01*
X10845193Y2957542D01*
X10854717Y2967065D01*
X10873765Y2976589D01*
X10911860Y2976589D01*
X10930908Y2967065D01*
X11007098Y2767066D02*
X11016622Y2776589D01*
X11035670Y2805161D01*
X11045193Y2824208D01*
X11054717Y2852780D01*
X11064241Y2900399D01*
X11064241Y2938494D01*
X11054717Y2986113D01*
X11045193Y3014684D01*
X11035670Y3033732D01*
X11016622Y3062304D01*
X11007098Y3071827D01*
D13*
X4254241Y2669732D02*
G75*
G03*
X4254241Y2669732I-85090J0D01*
G01*
D11*
X4616622Y2579256D02*
X4502336Y2579256D01*
X4559479Y2579256D02*
X4559479Y2779256D01*
X4540431Y2750685D01*
X4521384Y2731637D01*
X4502336Y2722113D01*
X4702336Y2598304D02*
X4711860Y2588780D01*
X4702336Y2579256D01*
X4692812Y2588780D01*
X4702336Y2598304D01*
X4702336Y2579256D01*
X4778527Y2779256D02*
X4911860Y2779256D01*
X4826146Y2579256D01*
X5026146Y2779256D02*
X5045193Y2779256D01*
X5064241Y2769732D01*
X5073765Y2760208D01*
X5083289Y2741161D01*
X5092812Y2703066D01*
X5092812Y2655446D01*
X5083289Y2617351D01*
X5073765Y2598304D01*
X5064241Y2588780D01*
X5045193Y2579256D01*
X5026146Y2579256D01*
X5007098Y2588780D01*
X4997574Y2598304D01*
X4988051Y2617351D01*
X4978527Y2655446D01*
X4978527Y2703066D01*
X4988051Y2741161D01*
X4997574Y2760208D01*
X5007098Y2769732D01*
X5026146Y2779256D01*
X5169003Y2760208D02*
X5178527Y2769732D01*
X5197574Y2779256D01*
X5245193Y2779256D01*
X5264241Y2769732D01*
X5273765Y2760208D01*
X5283289Y2741161D01*
X5283289Y2722113D01*
X5273765Y2693542D01*
X5159479Y2579256D01*
X5283289Y2579256D01*
X5369003Y2579256D02*
X5369003Y2712589D01*
X5369003Y2693542D02*
X5378527Y2703066D01*
X5397574Y2712589D01*
X5426146Y2712589D01*
X5445193Y2703066D01*
X5454717Y2684018D01*
X5454717Y2579256D01*
X5454717Y2684018D02*
X5464241Y2703066D01*
X5483289Y2712589D01*
X5511860Y2712589D01*
X5530908Y2703066D01*
X5540431Y2684018D01*
X5540431Y2579256D01*
X5635669Y2579256D02*
X5635669Y2712589D01*
X5635669Y2693542D02*
X5645193Y2703066D01*
X5664241Y2712589D01*
X5692812Y2712589D01*
X5711860Y2703066D01*
X5721384Y2684018D01*
X5721384Y2579256D01*
X5721384Y2684018D02*
X5730908Y2703066D01*
X5749955Y2712589D01*
X5778527Y2712589D01*
X5797574Y2703066D01*
X5807098Y2684018D01*
X5807098Y2579256D01*
X6197574Y2788780D02*
X6026146Y2531637D01*
X6454717Y2779256D02*
X6473765Y2779256D01*
X6492812Y2769732D01*
X6502336Y2760208D01*
X6511860Y2741161D01*
X6521384Y2703066D01*
X6521384Y2655446D01*
X6511860Y2617351D01*
X6502336Y2598304D01*
X6492812Y2588780D01*
X6473765Y2579256D01*
X6454717Y2579256D01*
X6435669Y2588780D01*
X6426146Y2598304D01*
X6416622Y2617351D01*
X6407098Y2655446D01*
X6407098Y2703066D01*
X6416622Y2741161D01*
X6426146Y2760208D01*
X6435669Y2769732D01*
X6454717Y2779256D01*
X6607098Y2598304D02*
X6616622Y2588780D01*
X6607098Y2579256D01*
X6597574Y2588780D01*
X6607098Y2598304D01*
X6607098Y2579256D01*
X6740431Y2779256D02*
X6759479Y2779256D01*
X6778527Y2769732D01*
X6788050Y2760208D01*
X6797574Y2741161D01*
X6807098Y2703066D01*
X6807098Y2655446D01*
X6797574Y2617351D01*
X6788050Y2598304D01*
X6778527Y2588780D01*
X6759479Y2579256D01*
X6740431Y2579256D01*
X6721384Y2588780D01*
X6711860Y2598304D01*
X6702336Y2617351D01*
X6692812Y2655446D01*
X6692812Y2703066D01*
X6702336Y2741161D01*
X6711860Y2760208D01*
X6721384Y2769732D01*
X6740431Y2779256D01*
X6978527Y2779256D02*
X6940431Y2779256D01*
X6921384Y2769732D01*
X6911860Y2760208D01*
X6892812Y2731637D01*
X6883289Y2693542D01*
X6883289Y2617351D01*
X6892812Y2598304D01*
X6902336Y2588780D01*
X6921384Y2579256D01*
X6959479Y2579256D01*
X6978527Y2588780D01*
X6988050Y2598304D01*
X6997574Y2617351D01*
X6997574Y2664970D01*
X6988050Y2684018D01*
X6978527Y2693542D01*
X6959479Y2703066D01*
X6921384Y2703066D01*
X6902336Y2693542D01*
X6892812Y2684018D01*
X6883289Y2664970D01*
X7064241Y2779256D02*
X7197574Y2779256D01*
X7111860Y2579256D01*
X7311860Y2779256D02*
X7330908Y2779256D01*
X7349955Y2769732D01*
X7359479Y2760208D01*
X7369003Y2741161D01*
X7378527Y2703066D01*
X7378527Y2655446D01*
X7369003Y2617351D01*
X7359479Y2598304D01*
X7349955Y2588780D01*
X7330908Y2579256D01*
X7311860Y2579256D01*
X7292812Y2588780D01*
X7283289Y2598304D01*
X7273765Y2617351D01*
X7264241Y2655446D01*
X7264241Y2703066D01*
X7273765Y2741161D01*
X7283289Y2760208D01*
X7292812Y2769732D01*
X7311860Y2779256D01*
X7454717Y2779256D02*
X7454717Y2741161D01*
X7530908Y2779256D02*
X7530908Y2741161D01*
X7826146Y2503066D02*
X7816622Y2512589D01*
X7797574Y2541161D01*
X7788050Y2560208D01*
X7778527Y2588780D01*
X7769003Y2636399D01*
X7769003Y2674494D01*
X7778527Y2722113D01*
X7788050Y2750685D01*
X7797574Y2769732D01*
X7816622Y2798304D01*
X7826146Y2807827D01*
X7883289Y2779256D02*
X8007098Y2779256D01*
X7940431Y2703066D01*
X7969003Y2703066D01*
X7988050Y2693542D01*
X7997574Y2684018D01*
X8007098Y2664970D01*
X8007098Y2617351D01*
X7997574Y2598304D01*
X7988050Y2588780D01*
X7969003Y2579256D01*
X7911860Y2579256D01*
X7892812Y2588780D01*
X7883289Y2598304D01*
X8178527Y2712589D02*
X8178527Y2579256D01*
X8130908Y2788780D02*
X8083289Y2645923D01*
X8207098Y2645923D01*
X8435670Y2579256D02*
X8435670Y2779256D01*
X8521384Y2579256D02*
X8521384Y2684018D01*
X8511860Y2703066D01*
X8492812Y2712589D01*
X8464241Y2712589D01*
X8445193Y2703066D01*
X8435670Y2693542D01*
X8645193Y2579256D02*
X8626146Y2588780D01*
X8616622Y2598304D01*
X8607098Y2617351D01*
X8607098Y2674494D01*
X8616622Y2693542D01*
X8626146Y2703066D01*
X8645193Y2712589D01*
X8673765Y2712589D01*
X8692812Y2703066D01*
X8702336Y2693542D01*
X8711860Y2674494D01*
X8711860Y2617351D01*
X8702336Y2598304D01*
X8692812Y2588780D01*
X8673765Y2579256D01*
X8645193Y2579256D01*
X8826146Y2579256D02*
X8807098Y2588780D01*
X8797574Y2607827D01*
X8797574Y2779256D01*
X8978527Y2588780D02*
X8959479Y2579256D01*
X8921384Y2579256D01*
X8902336Y2588780D01*
X8892812Y2607827D01*
X8892812Y2684018D01*
X8902336Y2703066D01*
X8921384Y2712589D01*
X8959479Y2712589D01*
X8978527Y2703066D01*
X8988051Y2684018D01*
X8988051Y2664970D01*
X8892812Y2645923D01*
X9064241Y2588780D02*
X9083289Y2579256D01*
X9121384Y2579256D01*
X9140431Y2588780D01*
X9149955Y2607827D01*
X9149955Y2617351D01*
X9140431Y2636399D01*
X9121384Y2645923D01*
X9092812Y2645923D01*
X9073765Y2655446D01*
X9064241Y2674494D01*
X9064241Y2684018D01*
X9073765Y2703066D01*
X9092812Y2712589D01*
X9121384Y2712589D01*
X9140431Y2703066D01*
X9216622Y2503066D02*
X9226146Y2512589D01*
X9245193Y2541161D01*
X9254717Y2560208D01*
X9264241Y2588780D01*
X9273765Y2636399D01*
X9273765Y2674494D01*
X9264241Y2722113D01*
X9254717Y2750685D01*
X9245193Y2769732D01*
X9226146Y2798304D01*
X9216622Y2807827D01*
X9578527Y2503066D02*
X9569003Y2512589D01*
X9549955Y2541161D01*
X9540431Y2560208D01*
X9530908Y2588780D01*
X9521384Y2636399D01*
X9521384Y2674494D01*
X9530908Y2722113D01*
X9540431Y2750685D01*
X9549955Y2769732D01*
X9569003Y2798304D01*
X9578527Y2807827D01*
X9654717Y2712589D02*
X9654717Y2579256D01*
X9654717Y2693542D02*
X9664241Y2703066D01*
X9683289Y2712589D01*
X9711860Y2712589D01*
X9730908Y2703066D01*
X9740431Y2684018D01*
X9740431Y2579256D01*
X9864241Y2579256D02*
X9845193Y2588780D01*
X9835670Y2598304D01*
X9826146Y2617351D01*
X9826146Y2674494D01*
X9835670Y2693542D01*
X9845193Y2703066D01*
X9864241Y2712589D01*
X9892812Y2712589D01*
X9911860Y2703066D01*
X9921384Y2693542D01*
X9930908Y2674494D01*
X9930908Y2617351D01*
X9921384Y2598304D01*
X9911860Y2588780D01*
X9892812Y2579256D01*
X9864241Y2579256D01*
X9988051Y2712589D02*
X10064241Y2712589D01*
X10016622Y2779256D02*
X10016622Y2607827D01*
X10026146Y2588780D01*
X10045193Y2579256D01*
X10064241Y2579256D01*
X10283289Y2712589D02*
X10283289Y2512589D01*
X10283289Y2703066D02*
X10302336Y2712589D01*
X10340431Y2712589D01*
X10359479Y2703066D01*
X10369003Y2693542D01*
X10378527Y2674494D01*
X10378527Y2617351D01*
X10369003Y2598304D01*
X10359479Y2588780D01*
X10340431Y2579256D01*
X10302336Y2579256D01*
X10283289Y2588780D01*
X10492812Y2579256D02*
X10473765Y2588780D01*
X10464241Y2607827D01*
X10464241Y2779256D01*
X10654717Y2579256D02*
X10654717Y2684018D01*
X10645193Y2703066D01*
X10626146Y2712589D01*
X10588051Y2712589D01*
X10569003Y2703066D01*
X10654717Y2588780D02*
X10635670Y2579256D01*
X10588051Y2579256D01*
X10569003Y2588780D01*
X10559479Y2607827D01*
X10559479Y2626875D01*
X10569003Y2645923D01*
X10588051Y2655446D01*
X10635670Y2655446D01*
X10654717Y2664970D01*
X10721384Y2712589D02*
X10797574Y2712589D01*
X10749955Y2779256D02*
X10749955Y2607827D01*
X10759479Y2588780D01*
X10778527Y2579256D01*
X10797574Y2579256D01*
X10940431Y2588780D02*
X10921384Y2579256D01*
X10883289Y2579256D01*
X10864241Y2588780D01*
X10854717Y2607827D01*
X10854717Y2684018D01*
X10864241Y2703066D01*
X10883289Y2712589D01*
X10921384Y2712589D01*
X10940431Y2703066D01*
X10949955Y2684018D01*
X10949955Y2664970D01*
X10854717Y2645923D01*
X11121384Y2579256D02*
X11121384Y2779256D01*
X11121384Y2588780D02*
X11102336Y2579256D01*
X11064241Y2579256D01*
X11045193Y2588780D01*
X11035670Y2598304D01*
X11026146Y2617351D01*
X11026146Y2674494D01*
X11035670Y2693542D01*
X11045193Y2703066D01*
X11064241Y2712589D01*
X11102336Y2712589D01*
X11121384Y2703066D01*
X11197574Y2503066D02*
X11207098Y2512589D01*
X11226146Y2541161D01*
X11235669Y2560208D01*
X11245193Y2588780D01*
X11254717Y2636399D01*
X11254717Y2674494D01*
X11245193Y2722113D01*
X11235669Y2750685D01*
X11226146Y2769732D01*
X11207098Y2798304D01*
X11197574Y2807827D01*
X4154241Y2479552D02*
X4154241Y2279552D01*
X4054241Y2379552D02*
X4254241Y2379552D01*
X4492812Y2489076D02*
X4616622Y2489076D01*
X4549955Y2412886D01*
X4578527Y2412886D01*
X4597574Y2403362D01*
X4607098Y2393838D01*
X4616622Y2374790D01*
X4616622Y2327171D01*
X4607098Y2308124D01*
X4597574Y2298600D01*
X4578527Y2289076D01*
X4521384Y2289076D01*
X4502336Y2298600D01*
X4492812Y2308124D01*
X4702336Y2308124D02*
X4711860Y2298600D01*
X4702336Y2289076D01*
X4692812Y2298600D01*
X4702336Y2308124D01*
X4702336Y2289076D01*
X4835670Y2489076D02*
X4854717Y2489076D01*
X4873765Y2479552D01*
X4883289Y2470028D01*
X4892812Y2450981D01*
X4902336Y2412886D01*
X4902336Y2365266D01*
X4892812Y2327171D01*
X4883289Y2308124D01*
X4873765Y2298600D01*
X4854717Y2289076D01*
X4835670Y2289076D01*
X4816622Y2298600D01*
X4807098Y2308124D01*
X4797574Y2327171D01*
X4788051Y2365266D01*
X4788051Y2412886D01*
X4797574Y2450981D01*
X4807098Y2470028D01*
X4816622Y2479552D01*
X4835670Y2489076D01*
X5026146Y2489076D02*
X5045193Y2489076D01*
X5064241Y2479552D01*
X5073765Y2470028D01*
X5083289Y2450981D01*
X5092812Y2412886D01*
X5092812Y2365266D01*
X5083289Y2327171D01*
X5073765Y2308124D01*
X5064241Y2298600D01*
X5045193Y2289076D01*
X5026146Y2289076D01*
X5007098Y2298600D01*
X4997574Y2308124D01*
X4988051Y2327171D01*
X4978527Y2365266D01*
X4978527Y2412886D01*
X4988051Y2450981D01*
X4997574Y2470028D01*
X5007098Y2479552D01*
X5026146Y2489076D01*
X5216622Y2489076D02*
X5235670Y2489076D01*
X5254717Y2479552D01*
X5264241Y2470028D01*
X5273765Y2450981D01*
X5283289Y2412886D01*
X5283289Y2365266D01*
X5273765Y2327171D01*
X5264241Y2308124D01*
X5254717Y2298600D01*
X5235670Y2289076D01*
X5216622Y2289076D01*
X5197574Y2298600D01*
X5188051Y2308124D01*
X5178527Y2327171D01*
X5169003Y2365266D01*
X5169003Y2412886D01*
X5178527Y2450981D01*
X5188051Y2470028D01*
X5197574Y2479552D01*
X5216622Y2489076D01*
X5369003Y2289076D02*
X5369003Y2422409D01*
X5369003Y2403362D02*
X5378527Y2412886D01*
X5397574Y2422409D01*
X5426146Y2422409D01*
X5445193Y2412886D01*
X5454717Y2393838D01*
X5454717Y2289076D01*
X5454717Y2393838D02*
X5464241Y2412886D01*
X5483289Y2422409D01*
X5511860Y2422409D01*
X5530908Y2412886D01*
X5540431Y2393838D01*
X5540431Y2289076D01*
X5635669Y2289076D02*
X5635669Y2422409D01*
X5635669Y2403362D02*
X5645193Y2412886D01*
X5664241Y2422409D01*
X5692812Y2422409D01*
X5711860Y2412886D01*
X5721384Y2393838D01*
X5721384Y2289076D01*
X5721384Y2393838D02*
X5730908Y2412886D01*
X5749955Y2422409D01*
X5778527Y2422409D01*
X5797574Y2412886D01*
X5807098Y2393838D01*
X5807098Y2289076D01*
X6197574Y2498600D02*
X6026146Y2241457D01*
X6454717Y2489076D02*
X6473765Y2489076D01*
X6492812Y2479552D01*
X6502336Y2470028D01*
X6511860Y2450981D01*
X6521384Y2412886D01*
X6521384Y2365266D01*
X6511860Y2327171D01*
X6502336Y2308124D01*
X6492812Y2298600D01*
X6473765Y2289076D01*
X6454717Y2289076D01*
X6435669Y2298600D01*
X6426146Y2308124D01*
X6416622Y2327171D01*
X6407098Y2365266D01*
X6407098Y2412886D01*
X6416622Y2450981D01*
X6426146Y2470028D01*
X6435669Y2479552D01*
X6454717Y2489076D01*
X6607098Y2308124D02*
X6616622Y2298600D01*
X6607098Y2289076D01*
X6597574Y2298600D01*
X6607098Y2308124D01*
X6607098Y2289076D01*
X6807098Y2289076D02*
X6692812Y2289076D01*
X6749955Y2289076D02*
X6749955Y2489076D01*
X6730908Y2460505D01*
X6711860Y2441457D01*
X6692812Y2431933D01*
X6997574Y2289076D02*
X6883289Y2289076D01*
X6940431Y2289076D02*
X6940431Y2489076D01*
X6921384Y2460505D01*
X6902336Y2441457D01*
X6883289Y2431933D01*
X7111860Y2403362D02*
X7092812Y2412886D01*
X7083289Y2422409D01*
X7073765Y2441457D01*
X7073765Y2450981D01*
X7083289Y2470028D01*
X7092812Y2479552D01*
X7111860Y2489076D01*
X7149955Y2489076D01*
X7169003Y2479552D01*
X7178527Y2470028D01*
X7188050Y2450981D01*
X7188050Y2441457D01*
X7178527Y2422409D01*
X7169003Y2412886D01*
X7149955Y2403362D01*
X7111860Y2403362D01*
X7092812Y2393838D01*
X7083289Y2384314D01*
X7073765Y2365266D01*
X7073765Y2327171D01*
X7083289Y2308124D01*
X7092812Y2298600D01*
X7111860Y2289076D01*
X7149955Y2289076D01*
X7169003Y2298600D01*
X7178527Y2308124D01*
X7188050Y2327171D01*
X7188050Y2365266D01*
X7178527Y2384314D01*
X7169003Y2393838D01*
X7149955Y2403362D01*
X7378527Y2289076D02*
X7264241Y2289076D01*
X7321384Y2289076D02*
X7321384Y2489076D01*
X7302336Y2460505D01*
X7283289Y2441457D01*
X7264241Y2431933D01*
X7454717Y2489076D02*
X7454717Y2450981D01*
X7530908Y2489076D02*
X7530908Y2450981D01*
X7826146Y2212886D02*
X7816622Y2222409D01*
X7797574Y2250981D01*
X7788050Y2270028D01*
X7778527Y2298600D01*
X7769003Y2346219D01*
X7769003Y2384314D01*
X7778527Y2431933D01*
X7788050Y2460505D01*
X7797574Y2479552D01*
X7816622Y2508124D01*
X7826146Y2517647D01*
X7997574Y2489076D02*
X7902336Y2489076D01*
X7892812Y2393838D01*
X7902336Y2403362D01*
X7921384Y2412886D01*
X7969003Y2412886D01*
X7988050Y2403362D01*
X7997574Y2393838D01*
X8007098Y2374790D01*
X8007098Y2327171D01*
X7997574Y2308124D01*
X7988050Y2298600D01*
X7969003Y2289076D01*
X7921384Y2289076D01*
X7902336Y2298600D01*
X7892812Y2308124D01*
X8197574Y2289076D02*
X8083289Y2289076D01*
X8140431Y2289076D02*
X8140431Y2489076D01*
X8121384Y2460505D01*
X8102336Y2441457D01*
X8083289Y2431933D01*
X8435670Y2289076D02*
X8435670Y2489076D01*
X8521384Y2289076D02*
X8521384Y2393838D01*
X8511860Y2412886D01*
X8492812Y2422409D01*
X8464241Y2422409D01*
X8445193Y2412886D01*
X8435670Y2403362D01*
X8645193Y2289076D02*
X8626146Y2298600D01*
X8616622Y2308124D01*
X8607098Y2327171D01*
X8607098Y2384314D01*
X8616622Y2403362D01*
X8626146Y2412886D01*
X8645193Y2422409D01*
X8673765Y2422409D01*
X8692812Y2412886D01*
X8702336Y2403362D01*
X8711860Y2384314D01*
X8711860Y2327171D01*
X8702336Y2308124D01*
X8692812Y2298600D01*
X8673765Y2289076D01*
X8645193Y2289076D01*
X8826146Y2289076D02*
X8807098Y2298600D01*
X8797574Y2317647D01*
X8797574Y2489076D01*
X8978527Y2298600D02*
X8959479Y2289076D01*
X8921384Y2289076D01*
X8902336Y2298600D01*
X8892812Y2317647D01*
X8892812Y2393838D01*
X8902336Y2412886D01*
X8921384Y2422409D01*
X8959479Y2422409D01*
X8978527Y2412886D01*
X8988051Y2393838D01*
X8988051Y2374790D01*
X8892812Y2355743D01*
X9064241Y2298600D02*
X9083289Y2289076D01*
X9121384Y2289076D01*
X9140431Y2298600D01*
X9149955Y2317647D01*
X9149955Y2327171D01*
X9140431Y2346219D01*
X9121384Y2355743D01*
X9092812Y2355743D01*
X9073765Y2365266D01*
X9064241Y2384314D01*
X9064241Y2393838D01*
X9073765Y2412886D01*
X9092812Y2422409D01*
X9121384Y2422409D01*
X9140431Y2412886D01*
X9216622Y2212886D02*
X9226146Y2222409D01*
X9245193Y2250981D01*
X9254717Y2270028D01*
X9264241Y2298600D01*
X9273765Y2346219D01*
X9273765Y2384314D01*
X9264241Y2431933D01*
X9254717Y2460505D01*
X9245193Y2479552D01*
X9226146Y2508124D01*
X9216622Y2517647D01*
X9578527Y2212886D02*
X9569003Y2222409D01*
X9549955Y2250981D01*
X9540431Y2270028D01*
X9530908Y2298600D01*
X9521384Y2346219D01*
X9521384Y2384314D01*
X9530908Y2431933D01*
X9540431Y2460505D01*
X9549955Y2479552D01*
X9569003Y2508124D01*
X9578527Y2517647D01*
X9654717Y2422409D02*
X9654717Y2289076D01*
X9654717Y2403362D02*
X9664241Y2412886D01*
X9683289Y2422409D01*
X9711860Y2422409D01*
X9730908Y2412886D01*
X9740431Y2393838D01*
X9740431Y2289076D01*
X9864241Y2289076D02*
X9845193Y2298600D01*
X9835670Y2308124D01*
X9826146Y2327171D01*
X9826146Y2384314D01*
X9835670Y2403362D01*
X9845193Y2412886D01*
X9864241Y2422409D01*
X9892812Y2422409D01*
X9911860Y2412886D01*
X9921384Y2403362D01*
X9930908Y2384314D01*
X9930908Y2327171D01*
X9921384Y2308124D01*
X9911860Y2298600D01*
X9892812Y2289076D01*
X9864241Y2289076D01*
X9988051Y2422409D02*
X10064241Y2422409D01*
X10016622Y2489076D02*
X10016622Y2317647D01*
X10026146Y2298600D01*
X10045193Y2289076D01*
X10064241Y2289076D01*
X10283289Y2422409D02*
X10283289Y2222409D01*
X10283289Y2412886D02*
X10302336Y2422409D01*
X10340431Y2422409D01*
X10359479Y2412886D01*
X10369003Y2403362D01*
X10378527Y2384314D01*
X10378527Y2327171D01*
X10369003Y2308124D01*
X10359479Y2298600D01*
X10340431Y2289076D01*
X10302336Y2289076D01*
X10283289Y2298600D01*
X10492812Y2289076D02*
X10473765Y2298600D01*
X10464241Y2317647D01*
X10464241Y2489076D01*
X10654717Y2289076D02*
X10654717Y2393838D01*
X10645193Y2412886D01*
X10626146Y2422409D01*
X10588051Y2422409D01*
X10569003Y2412886D01*
X10654717Y2298600D02*
X10635670Y2289076D01*
X10588051Y2289076D01*
X10569003Y2298600D01*
X10559479Y2317647D01*
X10559479Y2336695D01*
X10569003Y2355743D01*
X10588051Y2365266D01*
X10635670Y2365266D01*
X10654717Y2374790D01*
X10721384Y2422409D02*
X10797574Y2422409D01*
X10749955Y2489076D02*
X10749955Y2317647D01*
X10759479Y2298600D01*
X10778527Y2289076D01*
X10797574Y2289076D01*
X10940431Y2298600D02*
X10921384Y2289076D01*
X10883289Y2289076D01*
X10864241Y2298600D01*
X10854717Y2317647D01*
X10854717Y2393838D01*
X10864241Y2412886D01*
X10883289Y2422409D01*
X10921384Y2422409D01*
X10940431Y2412886D01*
X10949955Y2393838D01*
X10949955Y2374790D01*
X10854717Y2355743D01*
X11121384Y2289076D02*
X11121384Y2489076D01*
X11121384Y2298600D02*
X11102336Y2289076D01*
X11064241Y2289076D01*
X11045193Y2298600D01*
X11035670Y2308124D01*
X11026146Y2327171D01*
X11026146Y2384314D01*
X11035670Y2403362D01*
X11045193Y2412886D01*
X11064241Y2422409D01*
X11102336Y2422409D01*
X11121384Y2412886D01*
X11197574Y2212886D02*
X11207098Y2222409D01*
X11226146Y2250981D01*
X11235669Y2270028D01*
X11245193Y2298600D01*
X11254717Y2346219D01*
X11254717Y2384314D01*
X11245193Y2431933D01*
X11235669Y2460505D01*
X11226146Y2479552D01*
X11207098Y2508124D01*
X11197574Y2517647D01*
X4224952Y1988841D02*
X4224952Y2130264D01*
X4083530Y2130264D01*
X4083530Y1988841D01*
X4224952Y1988841D01*
X4492812Y2169076D02*
X4616622Y2169076D01*
X4549955Y2092885D01*
X4578527Y2092885D01*
X4597574Y2083362D01*
X4607098Y2073838D01*
X4616622Y2054790D01*
X4616622Y2007171D01*
X4607098Y1988124D01*
X4597574Y1978600D01*
X4578527Y1969076D01*
X4521384Y1969076D01*
X4502336Y1978600D01*
X4492812Y1988124D01*
X4702336Y1988124D02*
X4711860Y1978600D01*
X4702336Y1969076D01*
X4692812Y1978600D01*
X4702336Y1988124D01*
X4702336Y1969076D01*
X4883289Y2102409D02*
X4883289Y1969076D01*
X4835670Y2178600D02*
X4788051Y2035743D01*
X4911860Y2035743D01*
X4978527Y2150028D02*
X4988051Y2159552D01*
X5007098Y2169076D01*
X5054717Y2169076D01*
X5073765Y2159552D01*
X5083289Y2150028D01*
X5092812Y2130981D01*
X5092812Y2111933D01*
X5083289Y2083362D01*
X4969003Y1969076D01*
X5092812Y1969076D01*
X5188051Y1969076D02*
X5226146Y1969076D01*
X5245193Y1978600D01*
X5254717Y1988124D01*
X5273765Y2016695D01*
X5283289Y2054790D01*
X5283289Y2130981D01*
X5273765Y2150028D01*
X5264241Y2159552D01*
X5245193Y2169076D01*
X5207098Y2169076D01*
X5188051Y2159552D01*
X5178527Y2150028D01*
X5169003Y2130981D01*
X5169003Y2083362D01*
X5178527Y2064314D01*
X5188051Y2054790D01*
X5207098Y2045266D01*
X5245193Y2045266D01*
X5264241Y2054790D01*
X5273765Y2064314D01*
X5283289Y2083362D01*
X5369003Y1969076D02*
X5369003Y2102409D01*
X5369003Y2083362D02*
X5378527Y2092885D01*
X5397574Y2102409D01*
X5426146Y2102409D01*
X5445193Y2092885D01*
X5454717Y2073838D01*
X5454717Y1969076D01*
X5454717Y2073838D02*
X5464241Y2092885D01*
X5483289Y2102409D01*
X5511860Y2102409D01*
X5530908Y2092885D01*
X5540431Y2073838D01*
X5540431Y1969076D01*
X5635669Y1969076D02*
X5635669Y2102409D01*
X5635669Y2083362D02*
X5645193Y2092885D01*
X5664241Y2102409D01*
X5692812Y2102409D01*
X5711860Y2092885D01*
X5721384Y2073838D01*
X5721384Y1969076D01*
X5721384Y2073838D02*
X5730908Y2092885D01*
X5749955Y2102409D01*
X5778527Y2102409D01*
X5797574Y2092885D01*
X5807098Y2073838D01*
X5807098Y1969076D01*
X6197574Y2178600D02*
X6026146Y1921457D01*
X6454717Y2169076D02*
X6473765Y2169076D01*
X6492812Y2159552D01*
X6502336Y2150028D01*
X6511860Y2130981D01*
X6521384Y2092885D01*
X6521384Y2045266D01*
X6511860Y2007171D01*
X6502336Y1988124D01*
X6492812Y1978600D01*
X6473765Y1969076D01*
X6454717Y1969076D01*
X6435669Y1978600D01*
X6426146Y1988124D01*
X6416622Y2007171D01*
X6407098Y2045266D01*
X6407098Y2092885D01*
X6416622Y2130981D01*
X6426146Y2150028D01*
X6435669Y2159552D01*
X6454717Y2169076D01*
X6607098Y1988124D02*
X6616622Y1978600D01*
X6607098Y1969076D01*
X6597574Y1978600D01*
X6607098Y1988124D01*
X6607098Y1969076D01*
X6807098Y1969076D02*
X6692812Y1969076D01*
X6749955Y1969076D02*
X6749955Y2169076D01*
X6730908Y2140505D01*
X6711860Y2121457D01*
X6692812Y2111933D01*
X6873765Y2169076D02*
X6997574Y2169076D01*
X6930908Y2092885D01*
X6959479Y2092885D01*
X6978527Y2083362D01*
X6988050Y2073838D01*
X6997574Y2054790D01*
X6997574Y2007171D01*
X6988050Y1988124D01*
X6978527Y1978600D01*
X6959479Y1969076D01*
X6902336Y1969076D01*
X6883289Y1978600D01*
X6873765Y1988124D01*
X7178527Y2169076D02*
X7083289Y2169076D01*
X7073765Y2073838D01*
X7083289Y2083362D01*
X7102336Y2092885D01*
X7149955Y2092885D01*
X7169003Y2083362D01*
X7178527Y2073838D01*
X7188050Y2054790D01*
X7188050Y2007171D01*
X7178527Y1988124D01*
X7169003Y1978600D01*
X7149955Y1969076D01*
X7102336Y1969076D01*
X7083289Y1978600D01*
X7073765Y1988124D01*
X7311860Y2169076D02*
X7330908Y2169076D01*
X7349955Y2159552D01*
X7359479Y2150028D01*
X7369003Y2130981D01*
X7378527Y2092885D01*
X7378527Y2045266D01*
X7369003Y2007171D01*
X7359479Y1988124D01*
X7349955Y1978600D01*
X7330908Y1969076D01*
X7311860Y1969076D01*
X7292812Y1978600D01*
X7283289Y1988124D01*
X7273765Y2007171D01*
X7264241Y2045266D01*
X7264241Y2092885D01*
X7273765Y2130981D01*
X7283289Y2150028D01*
X7292812Y2159552D01*
X7311860Y2169076D01*
X7454717Y2169076D02*
X7454717Y2130981D01*
X7530908Y2169076D02*
X7530908Y2130981D01*
X7826146Y1892885D02*
X7816622Y1902409D01*
X7797574Y1930981D01*
X7788050Y1950028D01*
X7778527Y1978600D01*
X7769003Y2026219D01*
X7769003Y2064314D01*
X7778527Y2111933D01*
X7788050Y2140505D01*
X7797574Y2159552D01*
X7816622Y2188124D01*
X7826146Y2197647D01*
X8007098Y1969076D02*
X7892812Y1969076D01*
X7949955Y1969076D02*
X7949955Y2169076D01*
X7930908Y2140505D01*
X7911860Y2121457D01*
X7892812Y2111933D01*
X8073765Y2169076D02*
X8207098Y2169076D01*
X8121384Y1969076D01*
X8435670Y1969076D02*
X8435670Y2169076D01*
X8521384Y1969076D02*
X8521384Y2073838D01*
X8511860Y2092885D01*
X8492812Y2102409D01*
X8464241Y2102409D01*
X8445193Y2092885D01*
X8435670Y2083362D01*
X8645193Y1969076D02*
X8626146Y1978600D01*
X8616622Y1988124D01*
X8607098Y2007171D01*
X8607098Y2064314D01*
X8616622Y2083362D01*
X8626146Y2092885D01*
X8645193Y2102409D01*
X8673765Y2102409D01*
X8692812Y2092885D01*
X8702336Y2083362D01*
X8711860Y2064314D01*
X8711860Y2007171D01*
X8702336Y1988124D01*
X8692812Y1978600D01*
X8673765Y1969076D01*
X8645193Y1969076D01*
X8826146Y1969076D02*
X8807098Y1978600D01*
X8797574Y1997647D01*
X8797574Y2169076D01*
X8978527Y1978600D02*
X8959479Y1969076D01*
X8921384Y1969076D01*
X8902336Y1978600D01*
X8892812Y1997647D01*
X8892812Y2073838D01*
X8902336Y2092885D01*
X8921384Y2102409D01*
X8959479Y2102409D01*
X8978527Y2092885D01*
X8988051Y2073838D01*
X8988051Y2054790D01*
X8892812Y2035743D01*
X9064241Y1978600D02*
X9083289Y1969076D01*
X9121384Y1969076D01*
X9140431Y1978600D01*
X9149955Y1997647D01*
X9149955Y2007171D01*
X9140431Y2026219D01*
X9121384Y2035743D01*
X9092812Y2035743D01*
X9073765Y2045266D01*
X9064241Y2064314D01*
X9064241Y2073838D01*
X9073765Y2092885D01*
X9092812Y2102409D01*
X9121384Y2102409D01*
X9140431Y2092885D01*
X9216622Y1892885D02*
X9226146Y1902409D01*
X9245193Y1930981D01*
X9254717Y1950028D01*
X9264241Y1978600D01*
X9273765Y2026219D01*
X9273765Y2064314D01*
X9264241Y2111933D01*
X9254717Y2140505D01*
X9245193Y2159552D01*
X9226146Y2188124D01*
X9216622Y2197647D01*
X9578527Y1892885D02*
X9569003Y1902409D01*
X9549955Y1930981D01*
X9540431Y1950028D01*
X9530908Y1978600D01*
X9521384Y2026219D01*
X9521384Y2064314D01*
X9530908Y2111933D01*
X9540431Y2140505D01*
X9549955Y2159552D01*
X9569003Y2188124D01*
X9578527Y2197647D01*
X9654717Y2102409D02*
X9654717Y1969076D01*
X9654717Y2083362D02*
X9664241Y2092885D01*
X9683289Y2102409D01*
X9711860Y2102409D01*
X9730908Y2092885D01*
X9740431Y2073838D01*
X9740431Y1969076D01*
X9864241Y1969076D02*
X9845193Y1978600D01*
X9835670Y1988124D01*
X9826146Y2007171D01*
X9826146Y2064314D01*
X9835670Y2083362D01*
X9845193Y2092885D01*
X9864241Y2102409D01*
X9892812Y2102409D01*
X9911860Y2092885D01*
X9921384Y2083362D01*
X9930908Y2064314D01*
X9930908Y2007171D01*
X9921384Y1988124D01*
X9911860Y1978600D01*
X9892812Y1969076D01*
X9864241Y1969076D01*
X9988051Y2102409D02*
X10064241Y2102409D01*
X10016622Y2169076D02*
X10016622Y1997647D01*
X10026146Y1978600D01*
X10045193Y1969076D01*
X10064241Y1969076D01*
X10283289Y2102409D02*
X10283289Y1902409D01*
X10283289Y2092885D02*
X10302336Y2102409D01*
X10340431Y2102409D01*
X10359479Y2092885D01*
X10369003Y2083362D01*
X10378527Y2064314D01*
X10378527Y2007171D01*
X10369003Y1988124D01*
X10359479Y1978600D01*
X10340431Y1969076D01*
X10302336Y1969076D01*
X10283289Y1978600D01*
X10492812Y1969076D02*
X10473765Y1978600D01*
X10464241Y1997647D01*
X10464241Y2169076D01*
X10654717Y1969076D02*
X10654717Y2073838D01*
X10645193Y2092885D01*
X10626146Y2102409D01*
X10588051Y2102409D01*
X10569003Y2092885D01*
X10654717Y1978600D02*
X10635670Y1969076D01*
X10588051Y1969076D01*
X10569003Y1978600D01*
X10559479Y1997647D01*
X10559479Y2016695D01*
X10569003Y2035743D01*
X10588051Y2045266D01*
X10635670Y2045266D01*
X10654717Y2054790D01*
X10721384Y2102409D02*
X10797574Y2102409D01*
X10749955Y2169076D02*
X10749955Y1997647D01*
X10759479Y1978600D01*
X10778527Y1969076D01*
X10797574Y1969076D01*
X10940431Y1978600D02*
X10921384Y1969076D01*
X10883289Y1969076D01*
X10864241Y1978600D01*
X10854717Y1997647D01*
X10854717Y2073838D01*
X10864241Y2092885D01*
X10883289Y2102409D01*
X10921384Y2102409D01*
X10940431Y2092885D01*
X10949955Y2073838D01*
X10949955Y2054790D01*
X10854717Y2035743D01*
X11121384Y1969076D02*
X11121384Y2169076D01*
X11121384Y1978600D02*
X11102336Y1969076D01*
X11064241Y1969076D01*
X11045193Y1978600D01*
X11035670Y1988124D01*
X11026146Y2007171D01*
X11026146Y2064314D01*
X11035670Y2083362D01*
X11045193Y2092885D01*
X11064241Y2102409D01*
X11102336Y2102409D01*
X11121384Y2092885D01*
X11197574Y1892885D02*
X11207098Y1902409D01*
X11226146Y1930981D01*
X11235669Y1950028D01*
X11245193Y1978600D01*
X11254717Y2026219D01*
X11254717Y2064314D01*
X11245193Y2111933D01*
X11235669Y2140505D01*
X11226146Y2159552D01*
X11207098Y2188124D01*
X11197574Y2197647D01*
M02*
