%TF.GenerationSoftware,KiCad,Pcbnew,(6.0.4)*%
%TF.CreationDate,2022-10-17T18:10:13+02:00*%
%TF.ProjectId,Batreeq,42617472-6565-4712-9e6b-696361645f70,rev?*%
%TF.SameCoordinates,Original*%
%TF.FileFunction,Soldermask,Bot*%
%TF.FilePolarity,Negative*%
%FSLAX46Y46*%
G04 Gerber Fmt 4.6, Leading zero omitted, Abs format (unit mm)*
G04 Created by KiCad (PCBNEW (6.0.4)) date 2022-10-17 18:10:13*
%MOMM*%
%LPD*%
G01*
G04 APERTURE LIST*
G04 Aperture macros list*
%AMRoundRect*
0 Rectangle with rounded corners*
0 $1 Rounding radius*
0 $2 $3 $4 $5 $6 $7 $8 $9 X,Y pos of 4 corners*
0 Add a 4 corners polygon primitive as box body*
4,1,4,$2,$3,$4,$5,$6,$7,$8,$9,$2,$3,0*
0 Add four circle primitives for the rounded corners*
1,1,$1+$1,$2,$3*
1,1,$1+$1,$4,$5*
1,1,$1+$1,$6,$7*
1,1,$1+$1,$8,$9*
0 Add four rect primitives between the rounded corners*
20,1,$1+$1,$2,$3,$4,$5,0*
20,1,$1+$1,$4,$5,$6,$7,0*
20,1,$1+$1,$6,$7,$8,$9,0*
20,1,$1+$1,$8,$9,$2,$3,0*%
%AMHorizOval*
0 Thick line with rounded ends*
0 $1 width*
0 $2 $3 position (X,Y) of the first rounded end (center of the circle)*
0 $4 $5 position (X,Y) of the second rounded end (center of the circle)*
0 Add line between two ends*
20,1,$1,$2,$3,$4,$5,0*
0 Add two circle primitives to create the rounded ends*
1,1,$1,$2,$3*
1,1,$1,$4,$5*%
%AMRotRect*
0 Rectangle, with rotation*
0 The origin of the aperture is its center*
0 $1 length*
0 $2 width*
0 $3 Rotation angle, in degrees counterclockwise*
0 Add horizontal line*
21,1,$1,$2,0,0,$3*%
G04 Aperture macros list end*
%ADD10C,3.000000*%
%ADD11HorizOval,1.701800X0.482963X-0.129410X-0.482963X0.129410X0*%
%ADD12C,3.987800*%
%ADD13C,2.032000*%
%ADD14RoundRect,0.062500X-0.347636X-0.272877X0.410136X0.164623X0.347636X0.272877X-0.410136X-0.164623X0*%
%ADD15RotRect,7.000000X0.250000X75.000000*%
%ADD16RotRect,2.000000X0.250000X345.000000*%
%ADD17HorizOval,2.032000X0.753734X0.461889X-0.753734X-0.461889X0*%
%ADD18RotRect,2.550000X2.500000X345.000000*%
%ADD19RotRect,2.600000X2.600000X345.000000*%
%ADD20HorizOval,2.032000X-0.421808X0.776874X0.421808X-0.776874X0*%
%ADD21RotRect,3.000000X0.250000X165.000000*%
%ADD22RoundRect,0.062500X-0.272877X0.347636X0.164623X-0.410136X0.272877X-0.347636X-0.164623X0.410136X0*%
%ADD23HorizOval,2.032000X1.332292X0.067491X-1.332292X-0.067491X0*%
%ADD24RoundRect,0.062500X0.347636X0.272877X-0.410136X-0.164623X-0.347636X-0.272877X0.410136X0.164623X0*%
%ADD25RotRect,4.000000X0.250000X345.000000*%
%ADD26HorizOval,2.032000X-1.120053X0.724595X1.120053X-0.724595X0*%
%ADD27RotRect,7.000000X0.250000X255.000000*%
%ADD28RotRect,4.000000X0.250000X255.000000*%
%ADD29HorizOval,1.701800X0.445503X0.226995X-0.445503X-0.226995X0*%
%ADD30RotRect,2.550000X2.500000X27.000000*%
%ADD31RoundRect,0.062500X-0.075754X-0.435401X0.194636X0.396774X0.075754X0.435401X-0.194636X-0.396774X0*%
%ADD32RotRect,2.600000X2.600000X27.000000*%
%ADD33HorizOval,2.032000X-0.833295X0.295085X0.833295X-0.295085X0*%
%ADD34RotRect,7.000000X0.250000X117.000000*%
%ADD35HorizOval,2.032000X0.251070X0.847597X-0.251070X-0.847597X0*%
%ADD36RotRect,2.000000X0.250000X27.000000*%
%ADD37RotRect,7.000000X0.250000X297.000000*%
%ADD38HorizOval,2.032000X0.944925X0.941633X-0.944925X-0.941633X0*%
%ADD39RotRect,3.000000X0.250000X207.000000*%
%ADD40RoundRect,0.062500X-0.435401X0.075754X0.396774X-0.194636X0.435401X-0.075754X-0.396774X0.194636X0*%
%ADD41HorizOval,2.032000X-1.317210X-0.210983X1.317210X0.210983X0*%
%ADD42RoundRect,0.062500X0.075754X0.435401X-0.194636X-0.396774X-0.075754X-0.435401X0.194636X0.396774X0*%
%ADD43RotRect,4.000000X0.250000X27.000000*%
%ADD44RotRect,4.000000X0.250000X297.000000*%
%ADD45C,4.500000*%
%ADD46HorizOval,1.701800X0.482963X0.129410X-0.482963X-0.129410X0*%
%ADD47HorizOval,2.032000X0.421808X0.776874X-0.421808X-0.776874X0*%
%ADD48RotRect,2.600000X2.600000X15.000000*%
%ADD49RotRect,7.000000X0.250000X105.000000*%
%ADD50RotRect,2.000000X0.250000X15.000000*%
%ADD51RotRect,2.550000X2.500000X15.000000*%
%ADD52HorizOval,2.032000X-0.753734X0.461889X0.753734X-0.461889X0*%
%ADD53RoundRect,0.062500X-0.164623X-0.410136X0.272877X0.347636X0.164623X0.410136X-0.272877X-0.347636X0*%
%ADD54RotRect,4.000000X0.250000X15.000000*%
%ADD55RoundRect,0.062500X0.164623X0.410136X-0.272877X-0.347636X-0.164623X-0.410136X0.272877X0.347636X0*%
%ADD56HorizOval,2.032000X-1.332292X0.067491X1.332292X-0.067491X0*%
%ADD57RotRect,4.000000X0.250000X285.000000*%
%ADD58RotRect,3.000000X0.250000X195.000000*%
%ADD59RoundRect,0.062500X-0.410136X0.164623X0.347636X-0.272877X0.410136X-0.164623X-0.347636X0.272877X0*%
%ADD60RotRect,7.000000X0.250000X285.000000*%
%ADD61HorizOval,2.032000X1.120053X0.724595X-1.120053X-0.724595X0*%
%ADD62HorizOval,1.701800X0.445503X-0.226995X-0.445503X0.226995X0*%
%ADD63HorizOval,2.032000X0.833295X0.295085X-0.833295X-0.295085X0*%
%ADD64RotRect,7.000000X0.250000X63.000000*%
%ADD65RotRect,2.000000X0.250000X333.000000*%
%ADD66HorizOval,2.032000X-0.251070X0.847597X0.251070X-0.847597X0*%
%ADD67RoundRect,0.062500X-0.396774X-0.194636X0.435401X0.075754X0.396774X0.194636X-0.435401X-0.075754X0*%
%ADD68RotRect,2.550000X2.500000X333.000000*%
%ADD69RotRect,2.600000X2.600000X333.000000*%
%ADD70RotRect,7.000000X0.250000X243.000000*%
%ADD71RoundRect,0.062500X0.396774X0.194636X-0.435401X-0.075754X-0.396774X-0.194636X0.435401X0.075754X0*%
%ADD72RotRect,4.000000X0.250000X243.000000*%
%ADD73RotRect,3.000000X0.250000X153.000000*%
%ADD74HorizOval,2.032000X-0.944925X0.941633X0.944925X-0.941633X0*%
%ADD75HorizOval,2.032000X-1.317210X0.210983X1.317210X-0.210983X0*%
%ADD76RotRect,4.000000X0.250000X333.000000*%
%ADD77RoundRect,0.062500X-0.194636X0.396774X0.075754X-0.435401X0.194636X-0.396774X-0.075754X0.435401X0*%
%ADD78O,2.701800X1.701800*%
%ADD79HorizOval,2.032000X-0.608505X0.641231X0.608505X-0.641231X0*%
%ADD80R,0.250000X7.000000*%
%ADD81R,2.550000X2.500000*%
%ADD82R,2.600000X2.600000*%
%ADD83RoundRect,0.062500X-0.265165X-0.353553X0.353553X0.265165X0.265165X0.353553X-0.353553X-0.265165X0*%
%ADD84HorizOval,2.032000X0.608505X0.641231X-0.608505X-0.641231X0*%
%ADD85R,2.000000X0.250000*%
%ADD86R,4.000000X0.250000*%
%ADD87RoundRect,0.062500X0.265165X0.353553X-0.353553X-0.265165X-0.265165X-0.353553X0.353553X0.265165X0*%
%ADD88R,0.250000X4.000000*%
%ADD89HorizOval,2.032000X1.269427X0.410014X-1.269427X-0.410014X0*%
%ADD90RoundRect,0.062500X-0.353553X0.265165X0.265165X-0.353553X0.353553X-0.265165X-0.265165X0.353553X0*%
%ADD91R,3.000000X0.250000*%
%ADD92HorizOval,2.032000X-1.269427X0.410014X1.269427X-0.410014X0*%
%ADD93HorizOval,1.701800X0.463592X0.187303X-0.463592X-0.187303X0*%
%ADD94HorizOval,2.032000X-0.804406X0.366589X0.804406X-0.366589X0*%
%ADD95HorizOval,2.032000X0.323987X0.822489X-0.323987X-0.822489X0*%
%ADD96RotRect,7.000000X0.250000X112.000000*%
%ADD97RotRect,2.600000X2.600000X22.000000*%
%ADD98RoundRect,0.062500X-0.113413X-0.427142X0.228476X0.378300X0.113413X0.427142X-0.228476X-0.378300X0*%
%ADD99RotRect,2.000000X0.250000X22.000000*%
%ADD100RotRect,2.550000X2.500000X22.000000*%
%ADD101RotRect,4.000000X0.250000X22.000000*%
%ADD102RoundRect,0.062500X-0.427142X0.113413X0.378300X-0.228476X0.427142X-0.113413X-0.378300X0.228476X0*%
%ADD103RotRect,4.000000X0.250000X292.000000*%
%ADD104RoundRect,0.062500X0.113413X0.427142X-0.228476X-0.378300X-0.113413X-0.427142X0.228476X0.378300X0*%
%ADD105HorizOval,2.032000X-1.330586X-0.095378X1.330586X0.095378X0*%
%ADD106HorizOval,2.032000X1.023398X0.855694X-1.023398X-0.855694X0*%
%ADD107RotRect,7.000000X0.250000X292.000000*%
%ADD108RotRect,3.000000X0.250000X202.000000*%
%ADD109C,3.200000*%
%ADD110C,4.200000*%
%ADD111C,2.400000*%
%ADD112C,2.100000*%
%ADD113RotRect,4.400000X4.400000X140.000000*%
%ADD114HorizOval,1.701800X0.463592X-0.187303X-0.463592X0.187303X0*%
%ADD115RotRect,2.000000X0.250000X338.000000*%
%ADD116HorizOval,2.032000X0.804406X0.366589X-0.804406X-0.366589X0*%
%ADD117HorizOval,2.032000X-0.323987X0.822489X0.323987X-0.822489X0*%
%ADD118RotRect,7.000000X0.250000X68.000000*%
%ADD119RoundRect,0.062500X-0.378300X-0.228476X0.427142X0.113413X0.378300X0.228476X-0.427142X-0.113413X0*%
%ADD120RotRect,2.600000X2.600000X338.000000*%
%ADD121RotRect,2.550000X2.500000X338.000000*%
%ADD122RotRect,4.000000X0.250000X338.000000*%
%ADD123RotRect,4.000000X0.250000X248.000000*%
%ADD124RoundRect,0.062500X-0.228476X0.378300X0.113413X-0.427142X0.228476X-0.378300X-0.113413X0.427142X0*%
%ADD125HorizOval,2.032000X-1.023398X0.855694X1.023398X-0.855694X0*%
%ADD126RotRect,7.000000X0.250000X248.000000*%
%ADD127HorizOval,2.032000X-1.330586X0.095378X1.330586X-0.095378X0*%
%ADD128RoundRect,0.062500X0.378300X0.228476X-0.427142X-0.113413X-0.378300X-0.228476X0.427142X0.113413X0*%
%ADD129RotRect,3.000000X0.250000X158.000000*%
%ADD130RoundRect,0.375000X-0.827182X-0.137458X-0.386343X-0.744220X0.827182X0.137458X0.386343X0.744220X0*%
%ADD131C,1.700000*%
%ADD132HorizOval,1.700000X0.000000X0.000000X0.000000X0.000000X0*%
%ADD133HorizOval,2.200000X0.532449X0.372825X-0.532449X-0.372825X0*%
%ADD134RotRect,1.500000X2.500000X125.000000*%
%ADD135HorizOval,1.500000X0.409576X0.286788X-0.409576X-0.286788X0*%
%ADD136RotRect,0.900000X1.200000X358.000000*%
%ADD137RoundRect,0.250000X0.250000X0.475000X-0.250000X0.475000X-0.250000X-0.475000X0.250000X-0.475000X0*%
%ADD138R,0.900000X1.200000*%
%ADD139R,0.280000X1.250000*%
%ADD140R,1.800000X2.000000*%
%ADD141RotRect,0.900000X1.200000X2.000000*%
%ADD142RoundRect,0.150000X0.150000X-0.825000X0.150000X0.825000X-0.150000X0.825000X-0.150000X-0.825000X0*%
%ADD143RoundRect,0.250000X0.262500X0.450000X-0.262500X0.450000X-0.262500X-0.450000X0.262500X-0.450000X0*%
%ADD144RoundRect,0.250000X-0.262500X-0.450000X0.262500X-0.450000X0.262500X0.450000X-0.262500X0.450000X0*%
%ADD145RotRect,0.900000X1.200000X1.000000*%
%ADD146RoundRect,0.250000X0.450000X-0.262500X0.450000X0.262500X-0.450000X0.262500X-0.450000X-0.262500X0*%
%ADD147RotRect,0.900000X1.200000X359.000000*%
%ADD148RoundRect,0.250000X-0.250000X-0.475000X0.250000X-0.475000X0.250000X0.475000X-0.250000X0.475000X0*%
%ADD149R,1.400000X1.400000*%
%ADD150C,1.400000*%
%ADD151RoundRect,0.150000X-0.512500X-0.150000X0.512500X-0.150000X0.512500X0.150000X-0.512500X0.150000X0*%
%ADD152RoundRect,0.250000X0.475000X-0.250000X0.475000X0.250000X-0.475000X0.250000X-0.475000X-0.250000X0*%
G04 APERTURE END LIST*
D10*
%TO.C,SW7*%
X33987410Y-58946068D03*
D11*
X27538373Y-63377271D03*
D10*
X28588379Y-59777011D03*
D11*
X37351154Y-66010699D03*
D10*
X36212503Y-60446395D03*
X38244452Y-62367771D03*
X29421474Y-61256346D03*
D12*
X32447437Y-64693327D03*
D13*
X28109859Y-66160678D03*
D14*
X39010355Y-70066348D03*
D13*
X35470214Y-68132879D03*
D15*
X40264501Y-66510160D03*
D16*
X37727334Y-70022093D03*
D17*
X27359039Y-66625626D03*
D18*
X39405176Y-61298445D03*
D19*
X41407859Y-63215404D03*
D20*
X35887969Y-68910945D03*
D21*
X28682725Y-57168507D03*
D22*
X24030284Y-68060886D03*
D19*
X30824002Y-58098436D03*
D23*
X32237817Y-70325931D03*
D24*
X26897422Y-56989666D03*
D25*
X26129466Y-68922890D03*
D26*
X29812672Y-69676116D03*
D27*
X24722257Y-64354063D03*
D18*
X25741297Y-60270245D03*
D28*
X26031505Y-59096966D03*
D13*
X30920405Y-70392289D03*
%TD*%
D29*
%TO.C,SW26*%
X224879675Y-112567049D03*
D10*
X215805491Y-114339868D03*
X223105930Y-109262094D03*
X214196513Y-113797957D03*
D12*
X220354009Y-114869279D03*
D29*
X215825251Y-117176063D03*
D10*
X217652766Y-109567790D03*
X220310247Y-109193872D03*
D13*
X218112410Y-118862139D03*
D30*
X223252998Y-107690753D03*
D31*
X228826461Y-114470762D03*
D32*
X226023977Y-107775275D03*
D33*
X225732961Y-115701415D03*
D34*
X227378918Y-110988811D03*
D13*
X224901880Y-115402731D03*
D35*
X217865554Y-119710059D03*
D36*
X227843378Y-115296382D03*
D37*
X214386070Y-119786311D03*
D38*
X223967179Y-119195383D03*
D39*
X212521195Y-111796332D03*
D13*
X223032553Y-120126217D03*
D40*
X216352183Y-123004037D03*
D41*
X221730133Y-120335215D03*
D30*
X212410756Y-116069572D03*
D42*
X211074789Y-112858027D03*
D43*
X218488972Y-122240004D03*
D44*
X211841347Y-115003468D03*
D32*
X214734719Y-111054609D03*
%TD*%
D45*
%TO.C,H10*%
X166447346Y-98056076D03*
%TD*%
D10*
%TO.C,SW34*%
X266063636Y-41426131D03*
D46*
X257296650Y-47653423D03*
D10*
X260666078Y-40591370D03*
X257867000Y-44875097D03*
D12*
X262206052Y-46338628D03*
D10*
X263343229Y-40778144D03*
X256405851Y-44010503D03*
D46*
X267111481Y-45027647D03*
D47*
X258765520Y-50556247D03*
D48*
X269227043Y-40578499D03*
D49*
X269884244Y-44003519D03*
D13*
X259183275Y-49778181D03*
D50*
X269442961Y-48313527D03*
D51*
X266534190Y-39919704D03*
D13*
X266543629Y-47805979D03*
D52*
X267294449Y-48270927D03*
D53*
X270576216Y-47710342D03*
D54*
X258849310Y-53160522D03*
D55*
X253547767Y-42442070D03*
D56*
X262415672Y-51971232D03*
D57*
X253851511Y-44700004D03*
D58*
X255183304Y-41704299D03*
D59*
X256600363Y-53463596D03*
D48*
X257502670Y-41439002D03*
D60*
X255346218Y-49907408D03*
D61*
X264840817Y-51321417D03*
D13*
X263733084Y-52037591D03*
D51*
X254186823Y-45861198D03*
%TD*%
D45*
%TO.C,H8*%
X248621075Y-39434330D03*
%TD*%
%TO.C,H9*%
X134189343Y-98056079D03*
%TD*%
D10*
%TO.C,SW21*%
X202380098Y-122425889D03*
D12*
X205081341Y-127727378D03*
D10*
X200532823Y-127197967D03*
X205037579Y-122051971D03*
X198923845Y-126656056D03*
D29*
X209607007Y-125425148D03*
X200552583Y-130034162D03*
D10*
X207833262Y-122120193D03*
D36*
X212570710Y-128154481D03*
D33*
X210460293Y-128559514D03*
D35*
X202592886Y-132568158D03*
D30*
X207980330Y-120548852D03*
D34*
X212106250Y-123846910D03*
D13*
X202839742Y-131720238D03*
D32*
X210751309Y-120633374D03*
D31*
X213553793Y-127328861D03*
D13*
X209629212Y-128260830D03*
D44*
X196568679Y-127861567D03*
D43*
X203216304Y-135098103D03*
D38*
X208694511Y-132053482D03*
D42*
X195802121Y-125716126D03*
D32*
X199462051Y-123912708D03*
D40*
X201079515Y-135862136D03*
D39*
X197248527Y-124654431D03*
D13*
X207759885Y-132984316D03*
D30*
X197138088Y-128927671D03*
D41*
X206457465Y-133193314D03*
D37*
X199113402Y-132644410D03*
%TD*%
D10*
%TO.C,SW25*%
X209724598Y-72574371D03*
D29*
X202443919Y-80488340D03*
D10*
X202424159Y-77652145D03*
X206928915Y-72506149D03*
D29*
X211498343Y-75879326D03*
D12*
X206972677Y-78181556D03*
D10*
X200815181Y-77110234D03*
X204271434Y-72880067D03*
D34*
X213997586Y-74301088D03*
D13*
X204731078Y-82174416D03*
X211520548Y-78715008D03*
D33*
X212351629Y-79013692D03*
D35*
X204484222Y-83022336D03*
D36*
X214462046Y-78608659D03*
D31*
X215445129Y-77783039D03*
D32*
X212642645Y-71087552D03*
D30*
X209871666Y-71003030D03*
D39*
X199139863Y-75108609D03*
D32*
X201353387Y-74366886D03*
D41*
X208348801Y-83647492D03*
D13*
X209651221Y-83438494D03*
D44*
X198460015Y-78315745D03*
D40*
X202970851Y-86316314D03*
D38*
X210585847Y-82507660D03*
D42*
X197693457Y-76170304D03*
D43*
X205107640Y-85552281D03*
D37*
X201004738Y-83098588D03*
D30*
X199029424Y-79381849D03*
%TD*%
D10*
%TO.C,SW4*%
X92249109Y-47594369D03*
X90661040Y-45292514D03*
D62*
X90617925Y-50971963D03*
D10*
X83850013Y-44672831D03*
D12*
X86095263Y-48663839D03*
D62*
X81567097Y-46355890D03*
D10*
X88796506Y-43362350D03*
X83342694Y-43052613D03*
D63*
X80716311Y-49495975D03*
D13*
X81547392Y-49197291D03*
D64*
X93363765Y-52066228D03*
D65*
X90151869Y-54973911D03*
D13*
X88336862Y-52656699D03*
D66*
X88583719Y-53504619D03*
D67*
X91397651Y-55283954D03*
D68*
X93606795Y-46789738D03*
D69*
X95167155Y-49081188D03*
X85878459Y-41875530D03*
D70*
X78609433Y-46725834D03*
D71*
X82268211Y-39974608D03*
D72*
X80983084Y-41855824D03*
D73*
X83977316Y-40520726D03*
D74*
X82482094Y-52989943D03*
D13*
X83416719Y-53920777D03*
D75*
X84719139Y-54129775D03*
D76*
X79035980Y-51487395D03*
D68*
X80455278Y-42943127D03*
D77*
X77161890Y-50207784D03*
%TD*%
D10*
%TO.C,SW8*%
X99198131Y-57337453D03*
X106009158Y-57957136D03*
X98690812Y-55717235D03*
D62*
X96915215Y-59020512D03*
D10*
X107597227Y-60258991D03*
D12*
X101443381Y-61328461D03*
D10*
X104144624Y-56026972D03*
D62*
X105966043Y-63636585D03*
D67*
X106745769Y-67948576D03*
D66*
X103931837Y-66169241D03*
D68*
X108954913Y-59454360D03*
D65*
X105499987Y-67638533D03*
D64*
X108711883Y-64730850D03*
D63*
X96064429Y-62160597D03*
D69*
X110515273Y-61745810D03*
D13*
X103684980Y-65321321D03*
X96895510Y-61861913D03*
D70*
X93957551Y-59390456D03*
D74*
X97830212Y-65654565D03*
D68*
X95803396Y-55607749D03*
D73*
X99325434Y-53185348D03*
D69*
X101226577Y-54540152D03*
D13*
X98764837Y-66585399D03*
D72*
X96331202Y-54520446D03*
D75*
X100067257Y-66794397D03*
D76*
X94384098Y-64152017D03*
D71*
X97616329Y-52639230D03*
D77*
X92510008Y-62872406D03*
%TD*%
D78*
%TO.C,SW22*%
X165120932Y-152589385D03*
D10*
X162580932Y-147509385D03*
X165040932Y-148839385D03*
X155043344Y-148836078D03*
D78*
X154960932Y-152585424D03*
D10*
X156230932Y-150049385D03*
D12*
X160043344Y-152586077D03*
D10*
X160043344Y-146636077D03*
D79*
X164458243Y-155769509D03*
D80*
X168064279Y-152317797D03*
D81*
X165885344Y-147506077D03*
D82*
X168315932Y-148839385D03*
D83*
X167773276Y-156077409D03*
D13*
X156233344Y-155126077D03*
D84*
X155628445Y-155769509D03*
D13*
X163853344Y-155126077D03*
D85*
X166522520Y-156366732D03*
D86*
X155035344Y-158306732D03*
D80*
X152493585Y-154257797D03*
D13*
X160043344Y-158486077D03*
D87*
X152688588Y-146581361D03*
D88*
X152397585Y-148840973D03*
D82*
X156768343Y-146636077D03*
D89*
X161298692Y-158081008D03*
D90*
X152784588Y-158017409D03*
D91*
X154459344Y-146292038D03*
D92*
X158787996Y-158081008D03*
D81*
X152420932Y-150049385D03*
%TD*%
D45*
%TO.C,H3*%
X192972150Y-111198053D03*
%TD*%
D78*
%TO.C,SW27*%
X174264934Y-150807425D03*
D10*
X181884934Y-145731386D03*
X179347346Y-144858078D03*
X184344934Y-147061386D03*
D12*
X179347346Y-150808078D03*
D78*
X184424934Y-150811386D03*
D10*
X175534934Y-148271386D03*
X174347346Y-147058079D03*
D80*
X187368281Y-150539798D03*
D83*
X187077278Y-154299410D03*
D82*
X187619934Y-147061386D03*
D13*
X175537346Y-153348078D03*
D81*
X185189346Y-145728078D03*
D85*
X185826522Y-154588733D03*
D13*
X183157346Y-153348078D03*
D79*
X183762245Y-153991510D03*
D84*
X174932447Y-153991510D03*
D90*
X172088590Y-156239410D03*
D88*
X171701587Y-147062974D03*
D89*
X180602694Y-156303009D03*
D92*
X178091998Y-156303009D03*
D80*
X171797587Y-152479798D03*
D13*
X179347346Y-156708078D03*
D91*
X173763346Y-144514039D03*
D81*
X171724934Y-148271386D03*
D86*
X174339346Y-156528733D03*
D87*
X171992590Y-144803362D03*
D82*
X176072345Y-144858078D03*
%TD*%
D10*
%TO.C,SW33*%
X244598919Y-56204776D03*
X247378019Y-56516399D03*
X241918962Y-56345656D03*
D12*
X244147871Y-61862400D03*
D93*
X239435296Y-63765700D03*
D10*
X238107178Y-60258495D03*
D93*
X248856968Y-59963370D03*
D10*
X239662803Y-60938575D03*
D13*
X241566801Y-65644698D03*
D94*
X249433828Y-63160177D03*
D95*
X241246983Y-66467877D03*
D13*
X248631942Y-62790196D03*
D96*
X251484253Y-58608961D03*
D97*
X250414546Y-55289562D03*
D98*
X252622816Y-62203823D03*
D99*
X251571516Y-62940620D03*
D100*
X247661478Y-54963855D03*
D97*
X238882434Y-57572493D03*
D101*
X241647530Y-69042529D03*
D102*
X239452282Y-69617421D03*
D103*
X235655906Y-61254152D03*
D13*
X246358050Y-67332785D03*
D104*
X235079254Y-59050065D03*
D105*
X245042371Y-67427473D03*
D106*
X247370247Y-66486951D03*
D100*
X236130232Y-62365826D03*
D107*
X237774094Y-66240582D03*
D108*
X236612689Y-58118472D03*
%TD*%
D45*
%TO.C,H6*%
X114577344Y-63386078D03*
%TD*%
D10*
%TO.C,SW16*%
X99274677Y-124432085D03*
D62*
X99231562Y-130111534D03*
D10*
X91956331Y-122192184D03*
D62*
X90180734Y-125495461D03*
D10*
X97410143Y-122501921D03*
X92463650Y-123812402D03*
D12*
X94708900Y-127803410D03*
D10*
X100862746Y-126733940D03*
D65*
X98765506Y-134113482D03*
D63*
X89329948Y-128635546D03*
D66*
X97197356Y-132644190D03*
D69*
X103780792Y-128220759D03*
D64*
X101977402Y-131205799D03*
D67*
X100011288Y-134423525D03*
D68*
X102220432Y-125929309D03*
D13*
X96950499Y-131796270D03*
X90161029Y-128336862D03*
D68*
X89068915Y-122082698D03*
D75*
X93332776Y-133269346D03*
D76*
X87649617Y-130626966D03*
D71*
X90881848Y-119114179D03*
D69*
X94492096Y-121015101D03*
D73*
X92590953Y-119660297D03*
D74*
X91095731Y-132129514D03*
D77*
X85775527Y-129347355D03*
D70*
X87223070Y-125865405D03*
D72*
X89596721Y-120995395D03*
D13*
X92030356Y-133060348D03*
%TD*%
D10*
%TO.C,SW28*%
X207326520Y-47595579D03*
X213440254Y-42991494D03*
D12*
X213484016Y-48666901D03*
D29*
X208955258Y-50973685D03*
X218009682Y-46364671D03*
D10*
X216235937Y-43059716D03*
X210782773Y-43365412D03*
X208935498Y-48137490D03*
D13*
X211242417Y-52659761D03*
D34*
X220508925Y-44786433D03*
D13*
X218031887Y-49200353D03*
D36*
X220973385Y-49094004D03*
D35*
X210995561Y-53507681D03*
D30*
X216383005Y-41488375D03*
D32*
X219153984Y-41572897D03*
D33*
X218862968Y-49499037D03*
D31*
X221956468Y-48268384D03*
D32*
X207864726Y-44852231D03*
D40*
X209482190Y-56801659D03*
D41*
X214860140Y-54132837D03*
D39*
X205651202Y-45593954D03*
D44*
X204971354Y-48801090D03*
D13*
X216162560Y-53923839D03*
D37*
X207516077Y-53583933D03*
D43*
X211618979Y-56037626D03*
D38*
X217097186Y-52993005D03*
D30*
X205540763Y-49867194D03*
D42*
X204204796Y-46655649D03*
%TD*%
D10*
%TO.C,SW5*%
X75224197Y-61601955D03*
D62*
X72941281Y-63285014D03*
D10*
X74716878Y-59981737D03*
X82035224Y-62221638D03*
X83623293Y-64523493D03*
X80170690Y-60291474D03*
D62*
X81992109Y-67901087D03*
D12*
X77469447Y-65592963D03*
D64*
X84737949Y-68995352D03*
D13*
X79711046Y-69585823D03*
D67*
X82771835Y-72213078D03*
D66*
X79957903Y-70433743D03*
D68*
X84980979Y-63718862D03*
D65*
X81526053Y-71903035D03*
D69*
X86541339Y-66010312D03*
D63*
X72090495Y-66425099D03*
D13*
X72921576Y-66126415D03*
D72*
X72357268Y-58784948D03*
D77*
X68536074Y-67136908D03*
D73*
X75351500Y-57449850D03*
D70*
X69983617Y-63654958D03*
D75*
X76093323Y-71058899D03*
D68*
X71829462Y-59872251D03*
D76*
X70410164Y-68416519D03*
D74*
X73856278Y-69919067D03*
D71*
X73642395Y-56903732D03*
D69*
X77252643Y-58804654D03*
D13*
X74790903Y-70849901D03*
%TD*%
D109*
%TO.C,SW36*%
X124286053Y-113059816D03*
D110*
X135054009Y-116549375D03*
D111*
X128867742Y-86671342D03*
D109*
X139749391Y-126035494D03*
D111*
X163952042Y-117720395D03*
D110*
X173044231Y-101976735D03*
X141423676Y-76368083D03*
D112*
X171042086Y-76927713D03*
X167211864Y-73713775D03*
X169126975Y-75320744D03*
D113*
X173263659Y-114099277D03*
X130236554Y-77998238D03*
%TD*%
D12*
%TO.C,SW15*%
X84191742Y-95186711D03*
D62*
X79663576Y-92878762D03*
X88714404Y-97494835D03*
D10*
X90345588Y-94117241D03*
X81946492Y-91195703D03*
X88757519Y-91815386D03*
X81439173Y-89575485D03*
X86892985Y-89885222D03*
D13*
X79643871Y-95720163D03*
D65*
X88248348Y-101496783D03*
D69*
X93263634Y-95604060D03*
D63*
X78812790Y-96018847D03*
D66*
X86680198Y-100027491D03*
D67*
X89494130Y-101806826D03*
D64*
X91460244Y-98589100D03*
D13*
X86433341Y-99179571D03*
D68*
X91703274Y-93312610D03*
D71*
X80364690Y-86497480D03*
D76*
X77132459Y-98010267D03*
D73*
X82073795Y-87043598D03*
D77*
X75258369Y-96730656D03*
D72*
X79079563Y-88378696D03*
D69*
X83974938Y-88398402D03*
D13*
X81513198Y-100443649D03*
D68*
X78551757Y-89465999D03*
D75*
X82815618Y-100652647D03*
D70*
X76705912Y-93248706D03*
D74*
X80578573Y-99512815D03*
%TD*%
D46*
%TO.C,SW31*%
X262222874Y-66013471D03*
D10*
X265592302Y-58951418D03*
X268269453Y-59138192D03*
X270989860Y-59786179D03*
X261332075Y-62370551D03*
D12*
X267132276Y-64698676D03*
D46*
X272037705Y-63387695D03*
D10*
X262793224Y-63235145D03*
D13*
X264109499Y-68138229D03*
D52*
X272220673Y-66630975D03*
D13*
X271469853Y-66166027D03*
D47*
X263691744Y-68916295D03*
D50*
X274369185Y-66673575D03*
D53*
X275502440Y-66070390D03*
D51*
X271460414Y-58279752D03*
D48*
X274153267Y-58938547D03*
D49*
X274810468Y-62363567D03*
D60*
X260272442Y-68267456D03*
D48*
X262428894Y-59799050D03*
D55*
X258473991Y-60802118D03*
D13*
X268659308Y-70397639D03*
D51*
X259113047Y-64221246D03*
D57*
X258777735Y-63060052D03*
D61*
X269767041Y-69681465D03*
D54*
X263775534Y-71520570D03*
D56*
X267341896Y-70331280D03*
D59*
X261526587Y-71823644D03*
D58*
X260109528Y-60064347D03*
%TD*%
D45*
%TO.C,H2*%
X104010023Y-111310117D03*
%TD*%
D29*
%TO.C,SW23*%
X226206895Y-84831932D03*
D10*
X228034410Y-77223659D03*
X224578157Y-81453826D03*
X233487574Y-76917963D03*
D29*
X235261319Y-80222918D03*
D10*
X226187135Y-81995737D03*
X230691891Y-76849741D03*
D12*
X230735653Y-82525148D03*
D31*
X239208105Y-82126631D03*
D35*
X228247198Y-87365928D03*
D36*
X238225022Y-82952251D03*
D34*
X237760562Y-78644680D03*
D32*
X236405621Y-75431144D03*
D13*
X228494054Y-86518008D03*
D30*
X233634642Y-75346622D03*
D33*
X236114605Y-83357284D03*
D13*
X235283524Y-83058600D03*
D42*
X221456433Y-80513896D03*
D40*
X226733827Y-90659906D03*
D37*
X224767714Y-87442180D03*
D44*
X222222991Y-82659337D03*
D13*
X233414197Y-87782086D03*
D38*
X234348823Y-86851252D03*
D39*
X222902839Y-79452201D03*
D32*
X225116363Y-78710478D03*
D41*
X232111777Y-87991084D03*
D30*
X222792400Y-83725441D03*
D43*
X228870616Y-89895873D03*
%TD*%
D10*
%TO.C,SW6*%
X54351450Y-77873324D03*
X45083087Y-74125095D03*
X52568804Y-75718637D03*
D114*
X53020850Y-81380231D03*
D10*
X45729686Y-75694932D03*
X50543141Y-73958322D03*
D114*
X43602146Y-77570556D03*
D12*
X48314232Y-79475066D03*
D115*
X52905360Y-85407570D03*
D13*
X43830160Y-80402862D03*
D116*
X43028274Y-80772843D03*
D117*
X51215120Y-84080543D03*
D118*
X55851612Y-82231017D03*
D13*
X50895301Y-83257365D03*
D119*
X54173424Y-85607856D03*
D120*
X57387977Y-79100160D03*
D121*
X55633841Y-76953424D03*
D122*
X41527900Y-82903135D03*
D123*
X42628148Y-73138515D03*
D121*
X42197116Y-74267681D03*
D124*
X39549417Y-81791732D03*
D13*
X46104053Y-84945451D03*
D125*
X45091856Y-84099617D03*
D126*
X40687980Y-78196869D03*
D127*
X47419732Y-85040139D03*
D128*
X43744427Y-71152451D03*
D120*
X47506613Y-72731486D03*
D129*
X45494626Y-71547532D03*
%TD*%
D10*
%TO.C,SW12*%
X123975346Y-145389387D03*
D78*
X116355346Y-150465426D03*
D10*
X116437758Y-146716080D03*
D12*
X121437758Y-150466079D03*
D10*
X126435346Y-146719387D03*
X117625346Y-147929387D03*
X121437758Y-144516079D03*
D78*
X126515346Y-150469387D03*
D13*
X125247758Y-153006079D03*
X117627758Y-153006079D03*
D79*
X125852657Y-153649511D03*
D80*
X129458693Y-150197799D03*
D84*
X117022859Y-153649511D03*
D81*
X127279758Y-145386079D03*
D83*
X129167690Y-153957411D03*
D82*
X129710346Y-146719387D03*
D85*
X127916934Y-154246734D03*
D92*
X120182410Y-155961010D03*
D13*
X121437758Y-156366079D03*
D89*
X122693106Y-155961010D03*
D81*
X113815346Y-147929387D03*
D82*
X118162757Y-144516079D03*
D91*
X115853758Y-144172040D03*
D90*
X114179002Y-155897411D03*
D86*
X116429758Y-156186734D03*
D88*
X113791999Y-146720975D03*
D80*
X113887999Y-152137799D03*
D87*
X114083002Y-144461363D03*
%TD*%
D10*
%TO.C,SW1*%
X59964735Y-40461946D03*
X66803853Y-40485651D03*
X64778190Y-38725336D03*
D12*
X62549281Y-44242080D03*
D10*
X68586499Y-42640338D03*
X59318136Y-38892109D03*
D114*
X67255899Y-46147245D03*
X57837195Y-42337570D03*
D120*
X71623026Y-43867174D03*
D118*
X70086661Y-46998031D03*
D13*
X65130350Y-48024379D03*
D116*
X57263323Y-45539857D03*
D117*
X65450169Y-48847557D03*
D119*
X68408473Y-50374870D03*
D121*
X69868890Y-41720438D03*
D115*
X67140409Y-50174584D03*
D13*
X58065209Y-45169876D03*
D121*
X56432165Y-39034695D03*
D125*
X59326905Y-48866631D03*
D127*
X61654781Y-49807153D03*
D129*
X59729675Y-36314546D03*
D126*
X54923029Y-42963883D03*
D128*
X57979476Y-35919465D03*
D122*
X55762949Y-47670149D03*
D120*
X61741662Y-37498500D03*
D13*
X60339102Y-49712465D03*
D124*
X53784466Y-46558746D03*
D123*
X56863197Y-37905529D03*
%TD*%
D10*
%TO.C,SW11*%
X85590076Y-113875837D03*
D62*
X74908064Y-112637358D03*
D10*
X77190980Y-110954299D03*
X84002007Y-111573982D03*
D12*
X79436230Y-114945307D03*
D10*
X76683661Y-109334081D03*
X82137473Y-109643818D03*
D62*
X83958892Y-117253431D03*
D63*
X74057278Y-115777443D03*
D13*
X81677829Y-118938167D03*
D68*
X86947762Y-113071206D03*
D66*
X81924686Y-119786087D03*
D65*
X83492836Y-121255379D03*
D69*
X88508122Y-115362656D03*
D13*
X74888359Y-115478759D03*
D64*
X86704732Y-118347696D03*
D67*
X84738618Y-121565422D03*
D74*
X75823061Y-119271411D03*
D13*
X76757686Y-120202245D03*
D71*
X75609178Y-106256076D03*
D69*
X79219426Y-108156998D03*
D72*
X74324051Y-108137292D03*
D73*
X77318283Y-106802194D03*
D76*
X72376947Y-117768863D03*
D70*
X71950400Y-113007302D03*
D75*
X78060106Y-120411243D03*
D77*
X70502857Y-116489252D03*
D68*
X73796245Y-109224595D03*
%TD*%
D10*
%TO.C,SW19*%
X196372998Y-88692063D03*
X189072559Y-93769837D03*
X187463581Y-93227926D03*
D29*
X189092319Y-96606032D03*
D10*
X193577315Y-88623841D03*
D12*
X193621077Y-94299248D03*
D29*
X198146743Y-91997018D03*
D10*
X190919834Y-88997759D03*
D30*
X196520066Y-87120722D03*
D36*
X201110446Y-94726351D03*
D33*
X199000029Y-95131384D03*
D35*
X191132622Y-99140028D03*
D13*
X191379478Y-98292108D03*
X198168948Y-94832700D03*
D32*
X199291045Y-87205244D03*
D34*
X200645986Y-90418780D03*
D31*
X202093529Y-93900731D03*
D40*
X189619251Y-102434006D03*
D32*
X188001787Y-90484578D03*
D41*
X194997201Y-99765184D03*
D13*
X196299621Y-99556186D03*
D37*
X187653138Y-99216280D03*
D43*
X191756040Y-101669973D03*
D30*
X185677824Y-95499541D03*
D44*
X185108415Y-94433437D03*
D38*
X197234247Y-98625352D03*
D42*
X184341857Y-92287996D03*
D39*
X185788263Y-91226301D03*
%TD*%
D10*
%TO.C,SW3*%
X38897461Y-40575677D03*
X43154503Y-43997380D03*
X33498430Y-41406620D03*
X34331525Y-42885955D03*
D11*
X42261205Y-47640308D03*
X32448424Y-45006880D03*
D10*
X41122554Y-42076004D03*
D12*
X37357488Y-46322936D03*
D13*
X33019910Y-47790287D03*
D19*
X46317910Y-44845013D03*
D18*
X44315227Y-42928054D03*
D20*
X40798020Y-50540554D03*
D16*
X42637385Y-51651702D03*
D14*
X43920406Y-51695957D03*
D15*
X45174552Y-48139769D03*
D13*
X40380265Y-49762488D03*
D17*
X32269090Y-48255235D03*
D25*
X31039517Y-50552499D03*
D28*
X30941556Y-40726575D03*
D18*
X30651348Y-41899854D03*
D24*
X31807473Y-38619275D03*
D26*
X34722723Y-51305725D03*
D13*
X35830456Y-52021898D03*
D19*
X35734053Y-39728045D03*
D21*
X33592776Y-38798116D03*
D23*
X37147868Y-51955540D03*
D22*
X28940335Y-49690495D03*
D27*
X29632308Y-45983672D03*
%TD*%
D10*
%TO.C,SW10*%
X66598375Y-78531080D03*
X66091056Y-76910862D03*
X74997471Y-81452618D03*
D62*
X73366287Y-84830212D03*
D10*
X71544868Y-77220599D03*
X73409402Y-79150763D03*
D12*
X68843625Y-82522088D03*
D62*
X64315459Y-80214139D03*
D68*
X76355157Y-80647987D03*
D64*
X76112127Y-85924477D03*
D63*
X63464673Y-83354224D03*
D69*
X77915517Y-82939437D03*
D66*
X71332081Y-87362868D03*
D13*
X64295754Y-83055540D03*
D67*
X74146013Y-89142203D03*
D13*
X71085224Y-86514948D03*
D65*
X72900231Y-88832160D03*
D77*
X59910252Y-84066033D03*
D68*
X63203640Y-76801376D03*
D76*
X61784342Y-85345644D03*
D74*
X65230456Y-86848192D03*
D71*
X65016573Y-73832857D03*
D72*
X63731446Y-75714073D03*
D13*
X66165081Y-87779026D03*
D75*
X67467501Y-87988024D03*
D70*
X61357795Y-80584083D03*
D69*
X68626821Y-75733779D03*
D73*
X66725678Y-74378975D03*
%TD*%
D12*
%TO.C,SW32*%
X237030347Y-44245909D03*
D10*
X240260495Y-38899908D03*
D93*
X241739444Y-42346879D03*
X232317772Y-46149209D03*
D10*
X232545279Y-43322084D03*
X234801438Y-38729165D03*
X237481395Y-38588285D03*
X230989654Y-42642004D03*
D94*
X242316304Y-45543686D03*
D98*
X245505292Y-44587332D03*
D100*
X240543954Y-37347364D03*
D13*
X241514418Y-45173705D03*
D95*
X234129459Y-48851386D03*
D99*
X244453992Y-45324129D03*
D13*
X234449277Y-48028207D03*
D97*
X243297022Y-37673071D03*
D96*
X244366729Y-40992470D03*
D13*
X239240526Y-49716294D03*
D104*
X227961730Y-41433574D03*
D105*
X237924847Y-49810982D03*
D100*
X229012708Y-44749335D03*
D101*
X234530006Y-51426038D03*
D107*
X230656570Y-48624091D03*
D106*
X240252723Y-48870460D03*
D108*
X229495165Y-40501981D03*
D103*
X228538382Y-43637661D03*
D102*
X232334758Y-52000930D03*
D97*
X231764910Y-39956002D03*
%TD*%
D130*
%TO.C,PAD1*%
X191098000Y-51590000D03*
X189922429Y-49971966D03*
X188746858Y-48353932D03*
%TD*%
D10*
%TO.C,SW9*%
X98971405Y-77188116D03*
D62*
X88289393Y-75949637D03*
D12*
X92817559Y-78257586D03*
D10*
X90572309Y-74266578D03*
D62*
X97340221Y-80565710D03*
D10*
X90064990Y-72646360D03*
X95518802Y-72956097D03*
X97383336Y-74886261D03*
D13*
X95059158Y-82250446D03*
D63*
X87438607Y-79089722D03*
D69*
X101889451Y-78674935D03*
D66*
X95306015Y-83098366D03*
D13*
X88269688Y-78791038D03*
D67*
X98119947Y-84877701D03*
D68*
X100329091Y-76383485D03*
D64*
X100086061Y-81659975D03*
D65*
X96874165Y-84567658D03*
D13*
X90139015Y-83514524D03*
D74*
X89204390Y-82583690D03*
D70*
X85331729Y-76319581D03*
D77*
X83884186Y-79801531D03*
D71*
X88990507Y-69568355D03*
D69*
X92600755Y-71469277D03*
D75*
X91441435Y-83723522D03*
D76*
X85758276Y-81081142D03*
D68*
X87177574Y-72536874D03*
D72*
X87705380Y-71449571D03*
D73*
X90699612Y-70114473D03*
%TD*%
D62*
%TO.C,SW13*%
X110266815Y-75138206D03*
D12*
X114794981Y-77446155D03*
D10*
X119360758Y-74074830D03*
X112042412Y-71834929D03*
X112549731Y-73455147D03*
X120948827Y-76376685D03*
D62*
X119317643Y-79754279D03*
D10*
X117496224Y-72144666D03*
D69*
X123866873Y-77863504D03*
D63*
X109416029Y-78278291D03*
D66*
X117283437Y-82286935D03*
D65*
X118851587Y-83756227D03*
D68*
X122306513Y-75572054D03*
D64*
X122063483Y-80848544D03*
D13*
X117036580Y-81439015D03*
D67*
X120097369Y-84066270D03*
D13*
X110247110Y-77979607D03*
D69*
X114578177Y-70657846D03*
D71*
X110967929Y-68756924D03*
D76*
X107735698Y-80269711D03*
D68*
X109154996Y-71725443D03*
D77*
X105861608Y-78990100D03*
D13*
X112116437Y-82703093D03*
D73*
X112677034Y-69303042D03*
D70*
X107309151Y-75508150D03*
D74*
X111181812Y-81772259D03*
D75*
X113418857Y-82912091D03*
D72*
X109682802Y-70638140D03*
%TD*%
D29*
%TO.C,SW18*%
X189520925Y-75067893D03*
X180466501Y-79676907D03*
D10*
X184951497Y-71694716D03*
D12*
X184995259Y-77370123D03*
D10*
X180446741Y-76840712D03*
X187747180Y-71762938D03*
X182294016Y-72068634D03*
X178837763Y-76298801D03*
D36*
X192484628Y-77797226D03*
D34*
X192020168Y-73489655D03*
D30*
X187894248Y-70191597D03*
D32*
X190665227Y-70276119D03*
D33*
X190374211Y-78202259D03*
D35*
X182506804Y-82210903D03*
D31*
X193467711Y-76971606D03*
D13*
X182753660Y-81362983D03*
X189543130Y-77903575D03*
D37*
X179027320Y-82287155D03*
D32*
X179375969Y-73555453D03*
D40*
X180993433Y-85504881D03*
D44*
X176482597Y-77504312D03*
D30*
X177052006Y-78570416D03*
D13*
X187673803Y-82627061D03*
D43*
X183130222Y-84740848D03*
D38*
X188608429Y-81696227D03*
D39*
X177162445Y-74297176D03*
D42*
X175716039Y-75358871D03*
D41*
X186371383Y-82836059D03*
%TD*%
D45*
%TO.C,H1*%
X62507345Y-93104077D03*
%TD*%
D10*
%TO.C,SW24*%
X195645619Y-55950942D03*
D29*
X202872528Y-58950201D03*
D10*
X192189366Y-60181109D03*
X201098783Y-55645246D03*
D29*
X193818104Y-63559215D03*
D12*
X198346862Y-61252431D03*
D10*
X198303100Y-55577024D03*
X193798344Y-60723020D03*
D30*
X201245851Y-54073905D03*
D33*
X203725814Y-62084567D03*
D13*
X202894733Y-61785883D03*
X196105263Y-65245291D03*
D34*
X205371771Y-57371963D03*
D35*
X195858407Y-66093211D03*
D31*
X206819314Y-60853914D03*
D32*
X204016830Y-54158427D03*
D36*
X205836231Y-61679534D03*
D32*
X192727572Y-57437761D03*
D38*
X201960032Y-65578535D03*
D13*
X201025406Y-66509369D03*
D43*
X196481825Y-68623156D03*
D41*
X199722986Y-66718367D03*
D40*
X194345036Y-69387189D03*
D37*
X192378923Y-66169463D03*
D42*
X189067642Y-59241179D03*
D30*
X190403609Y-62452724D03*
D44*
X189834200Y-61386620D03*
D39*
X190514048Y-58179484D03*
%TD*%
D78*
%TO.C,SW17*%
X135635344Y-152582117D03*
D10*
X140717756Y-146632770D03*
X135717756Y-148832771D03*
D78*
X145795344Y-152586078D03*
D12*
X140717756Y-152582770D03*
D10*
X143255344Y-147506078D03*
X136905344Y-150046078D03*
X145715344Y-148836078D03*
D81*
X146559756Y-147502770D03*
D79*
X145132655Y-155766202D03*
D80*
X148738691Y-152314490D03*
D13*
X144527756Y-155122770D03*
X136907756Y-155122770D03*
D82*
X148990344Y-148836078D03*
D84*
X136302857Y-155766202D03*
D83*
X148447688Y-156074102D03*
D85*
X147196932Y-156363425D03*
D90*
X133459000Y-158014102D03*
D87*
X133363000Y-146578054D03*
D86*
X135709756Y-158303425D03*
D81*
X133095344Y-150046078D03*
D91*
X135133756Y-146288731D03*
D82*
X137442755Y-146632770D03*
D92*
X139462408Y-158077701D03*
D88*
X133071997Y-148837666D03*
D89*
X141973104Y-158077701D03*
D80*
X133167997Y-154254490D03*
D13*
X140717756Y-158482770D03*
%TD*%
D45*
%TO.C,H7*%
X184935343Y-63132079D03*
%TD*%
D131*
%TO.C,U5*%
X158630606Y-54183266D03*
D132*
X159783742Y-56446423D03*
X160936878Y-58709579D03*
X162090014Y-60972736D03*
X163243150Y-63235892D03*
%TD*%
D133*
%TO.C,SW37*%
X181949673Y-38522954D03*
X186653000Y-45240000D03*
D134*
X185448489Y-43519781D03*
D135*
X184301336Y-41881477D03*
X183154183Y-40243173D03*
%TD*%
D10*
%TO.C,SW29*%
X215952340Y-64524705D03*
D29*
X217581078Y-67902811D03*
D10*
X222066074Y-59920620D03*
X224861757Y-59988842D03*
D12*
X222109836Y-65596027D03*
D10*
X219408593Y-60294538D03*
X217561318Y-65066616D03*
D29*
X226635502Y-63293797D03*
D13*
X219868237Y-69588887D03*
X226657707Y-66129479D03*
D36*
X229599205Y-66023130D03*
D31*
X230582288Y-65197510D03*
D32*
X227779804Y-58502023D03*
D30*
X225008825Y-58417501D03*
D35*
X219621381Y-70436807D03*
D33*
X227488788Y-66428163D03*
D34*
X229134745Y-61715559D03*
D38*
X225723006Y-69922131D03*
D43*
X220244799Y-72966752D03*
D40*
X218108010Y-73730785D03*
D42*
X212830616Y-63584775D03*
D30*
X214166583Y-66796320D03*
D37*
X216141897Y-70513059D03*
D39*
X214277022Y-62523080D03*
D13*
X224788380Y-70852965D03*
D32*
X216490546Y-61781357D03*
D41*
X223485960Y-71061963D03*
D44*
X213597174Y-65730216D03*
%TD*%
D93*
%TO.C,SW30*%
X246552821Y-81382195D03*
D10*
X254495544Y-74132894D03*
D12*
X251265396Y-79478895D03*
D10*
X249036487Y-73962151D03*
X246780328Y-78555070D03*
X251716444Y-73821271D03*
D93*
X255974493Y-77579865D03*
D10*
X245224703Y-77874990D03*
D13*
X248684326Y-83261193D03*
D100*
X254779003Y-72580350D03*
D97*
X257532071Y-72906057D03*
D94*
X256551353Y-80776672D03*
D95*
X248364508Y-84084372D03*
D98*
X259740341Y-79820318D03*
D13*
X255749467Y-80406691D03*
D99*
X258689041Y-80557115D03*
D96*
X258601778Y-76225456D03*
D104*
X242196779Y-76666560D03*
D103*
X242773431Y-78870647D03*
D107*
X244891619Y-83857077D03*
D13*
X253475575Y-84949280D03*
D106*
X254487772Y-84103446D03*
D100*
X243247757Y-79982321D03*
D105*
X252159896Y-85043968D03*
D108*
X243730214Y-75734967D03*
D101*
X248765055Y-86659024D03*
D102*
X246569807Y-87233916D03*
D97*
X245999959Y-75188988D03*
%TD*%
D10*
%TO.C,SW2*%
X61469264Y-60257239D03*
X57660955Y-56342237D03*
X52200901Y-56509010D03*
X59686618Y-58102552D03*
D114*
X50719960Y-59954471D03*
D10*
X52847500Y-58078847D03*
D12*
X55432046Y-61858981D03*
D114*
X60138664Y-63764146D03*
D119*
X61291238Y-67991771D03*
D120*
X64505791Y-61484075D03*
D116*
X50146088Y-63156758D03*
D117*
X58332934Y-66464458D03*
D13*
X58013115Y-65641280D03*
D121*
X62751655Y-59337339D03*
D115*
X60023174Y-67791485D03*
D13*
X50947974Y-62786777D03*
D118*
X62969426Y-64614932D03*
D126*
X47805794Y-60580784D03*
D125*
X52209670Y-66483532D03*
D129*
X52612440Y-53931447D03*
D124*
X46667231Y-64175647D03*
D128*
X50862241Y-53536366D03*
D122*
X48645714Y-65287050D03*
D13*
X53221867Y-67329366D03*
D127*
X54537546Y-67424054D03*
D123*
X49745962Y-55522430D03*
D120*
X54624427Y-55115401D03*
D121*
X49314930Y-56651596D03*
%TD*%
D45*
%TO.C,H5*%
X51170667Y-39497354D03*
%TD*%
D29*
%TO.C,SW20*%
X211069739Y-97417466D03*
D10*
X215554735Y-89435275D03*
D29*
X220124163Y-92808452D03*
D10*
X211049979Y-94581271D03*
X218350418Y-89503497D03*
X212897254Y-89809193D03*
X209441001Y-94039360D03*
D12*
X215598497Y-95110682D03*
D34*
X222623406Y-91230214D03*
D35*
X213110042Y-99951462D03*
D32*
X221268465Y-88016678D03*
D13*
X220146368Y-95644134D03*
D30*
X218497486Y-87932156D03*
D33*
X220977449Y-95942818D03*
D36*
X223087866Y-95537785D03*
D31*
X224070949Y-94712165D03*
D13*
X213356898Y-99103542D03*
D43*
X213733460Y-102481407D03*
D38*
X219211667Y-99436786D03*
D37*
X209630558Y-100027714D03*
D40*
X211596671Y-103245440D03*
D41*
X216974621Y-100576618D03*
D44*
X207085835Y-95244871D03*
D13*
X218277041Y-100367620D03*
D32*
X209979207Y-91296012D03*
D42*
X206319277Y-93099430D03*
D30*
X207655244Y-96310975D03*
D39*
X207765683Y-92037735D03*
%TD*%
D10*
%TO.C,SW14*%
X110734937Y-91003952D03*
D62*
X101640994Y-92067328D03*
X110691822Y-96683401D03*
D12*
X106169160Y-94375277D03*
D10*
X112323006Y-93305807D03*
X103923910Y-90384269D03*
X108870403Y-89073788D03*
X103416591Y-88764051D03*
D13*
X108410759Y-98368137D03*
D67*
X111471548Y-100995392D03*
D64*
X113437662Y-97777666D03*
D63*
X100790208Y-95207413D03*
D13*
X101621289Y-94908729D03*
D66*
X108657616Y-99216057D03*
D65*
X110225766Y-100685349D03*
D69*
X115241052Y-94792626D03*
D68*
X113680692Y-92501176D03*
D70*
X98683330Y-92437272D03*
D74*
X102555991Y-98701381D03*
D71*
X102342108Y-85686046D03*
D76*
X99109877Y-97198833D03*
D69*
X105952356Y-87586968D03*
D13*
X103490616Y-99632215D03*
D77*
X97235787Y-95919222D03*
D73*
X104051213Y-86232164D03*
D68*
X100529175Y-88654565D03*
D75*
X104793036Y-99841213D03*
D72*
X101056981Y-87567262D03*
%TD*%
D45*
%TO.C,H4*%
X236965997Y-93358077D03*
%TD*%
D136*
%TO.C,D29*%
X229514351Y-69424494D03*
X232812341Y-69539662D03*
%TD*%
D137*
%TO.C,C4*%
X159731275Y-94694077D03*
X157831275Y-94694077D03*
%TD*%
D138*
%TO.C,D15*%
X84987344Y-104280078D03*
X88287344Y-104280078D03*
%TD*%
D139*
%TO.C,J2*%
X140571655Y-137534000D03*
X141071655Y-137534000D03*
X141571655Y-137534000D03*
X142071655Y-137534000D03*
X142571655Y-137534000D03*
X143071655Y-137534000D03*
X143571655Y-137534000D03*
X144071655Y-137534000D03*
X144571655Y-137534000D03*
X145071655Y-137534000D03*
X145571655Y-137534000D03*
X146071655Y-137534000D03*
D140*
X147871655Y-134810000D03*
X138771655Y-134810000D03*
%TD*%
D141*
%TO.C,D3*%
X40030349Y-54807663D03*
X43328339Y-54692495D03*
%TD*%
D136*
%TO.C,D23*%
X238404351Y-86442493D03*
X241702341Y-86557661D03*
%TD*%
D142*
%TO.C,U2*%
X155344347Y-66115078D03*
X154074347Y-66115078D03*
X152804347Y-66115078D03*
X151534347Y-66115078D03*
X150264347Y-66115078D03*
X148994347Y-66115078D03*
X147724347Y-66115078D03*
X146454347Y-66115078D03*
X146454347Y-61165078D03*
X147724347Y-61165078D03*
X148994347Y-61165078D03*
X150264347Y-61165078D03*
X151534347Y-61165078D03*
X152804347Y-61165078D03*
X154074347Y-61165078D03*
X155344347Y-61165078D03*
%TD*%
D138*
%TO.C,D10*%
X69747345Y-91834079D03*
X73047345Y-91834079D03*
%TD*%
D141*
%TO.C,D9*%
X92862349Y-87319663D03*
X96160339Y-87204495D03*
%TD*%
D139*
%TO.C,J1*%
X153713000Y-137528076D03*
X154213000Y-137528076D03*
X154713000Y-137528076D03*
X155213000Y-137528076D03*
X155713000Y-137528076D03*
X156213000Y-137528076D03*
X156713000Y-137528076D03*
X157213000Y-137528076D03*
X157713000Y-137528076D03*
X158213000Y-137528076D03*
X158713000Y-137528076D03*
X159213000Y-137528076D03*
D140*
X161013000Y-134804076D03*
X151913000Y-134804076D03*
%TD*%
D136*
%TO.C,D22*%
X164744351Y-160102494D03*
X168042341Y-160217662D03*
%TD*%
D143*
%TO.C,R1*%
X159693773Y-106124078D03*
X157868773Y-106124078D03*
%TD*%
D144*
%TO.C,R2*%
X157868776Y-103838079D03*
X159693776Y-103838079D03*
%TD*%
D145*
%TO.C,D19*%
X201065594Y-98212874D03*
X204365092Y-98155282D03*
%TD*%
D136*
%TO.C,D21*%
X211937336Y-131407167D03*
X215235326Y-131522335D03*
%TD*%
%TO.C,D27*%
X183794348Y-158324495D03*
X187092338Y-158439663D03*
%TD*%
D146*
%TO.C,R3*%
X142330000Y-101270500D03*
X142330000Y-99445500D03*
%TD*%
D141*
%TO.C,D16*%
X95910350Y-136595663D03*
X99208340Y-136480495D03*
%TD*%
D136*
%TO.C,D24*%
X205892350Y-65106492D03*
X209190340Y-65221660D03*
%TD*%
D141*
%TO.C,D17*%
X145440350Y-159963662D03*
X148738340Y-159848494D03*
%TD*%
D136*
%TO.C,D30*%
X258470351Y-83902495D03*
X261768341Y-84017663D03*
%TD*%
D141*
%TO.C,D7*%
X34442351Y-73349662D03*
X37740341Y-73234494D03*
%TD*%
D147*
%TO.C,D25*%
X214527595Y-81899282D03*
X217827093Y-81956874D03*
%TD*%
D138*
%TO.C,D20*%
X222655344Y-99200079D03*
X225955344Y-99200079D03*
%TD*%
D141*
%TO.C,D6*%
X49682351Y-88843661D03*
X52980341Y-88728493D03*
%TD*%
%TO.C,D14*%
X107086349Y-103575663D03*
X110384339Y-103460495D03*
%TD*%
D136*
%TO.C,D34*%
X268630351Y-52406494D03*
X271928341Y-52521662D03*
%TD*%
D138*
%TO.C,D5*%
X78383344Y-75070078D03*
X81683344Y-75070078D03*
%TD*%
D148*
%TO.C,C3*%
X157831276Y-96980079D03*
X159731276Y-96980079D03*
%TD*%
D141*
%TO.C,D2*%
X57169087Y-70809662D03*
X60467077Y-70694494D03*
%TD*%
D136*
%TO.C,D18*%
X192176352Y-81362494D03*
X195474342Y-81477662D03*
%TD*%
D141*
%TO.C,D12*%
X125882351Y-158185662D03*
X129180341Y-158070494D03*
%TD*%
D138*
%TO.C,D1*%
X63718000Y-53495000D03*
X67018000Y-53495000D03*
%TD*%
D149*
%TO.C,U4*%
X155193347Y-92642077D03*
D150*
X155193347Y-94422077D03*
X155193347Y-96202077D03*
X155193347Y-97982077D03*
X155193347Y-99762077D03*
X155193347Y-101542077D03*
X155193347Y-103322077D03*
X155193347Y-105102077D03*
X144493347Y-105992077D03*
X144493347Y-104212077D03*
X144493347Y-102432077D03*
X144493347Y-100652077D03*
X144493347Y-98872077D03*
X144493347Y-97092077D03*
X144493347Y-95312077D03*
X144493347Y-93532077D03*
%TD*%
D136*
%TO.C,D32*%
X243992349Y-49104494D03*
X247290339Y-49219662D03*
%TD*%
D141*
%TO.C,D4*%
X87020351Y-57855661D03*
X90318341Y-57740493D03*
%TD*%
D136*
%TO.C,D28*%
X220878350Y-52406495D03*
X224176340Y-52521663D03*
%TD*%
%TO.C,D26*%
X227736350Y-118446495D03*
X231034340Y-118561663D03*
%TD*%
D151*
%TO.C,U3*%
X157897773Y-92596077D03*
X157897773Y-91646077D03*
X157897773Y-90696077D03*
X160172773Y-90696077D03*
X160172773Y-92596077D03*
%TD*%
D136*
%TO.C,D31*%
X273456351Y-70440495D03*
X276754341Y-70555663D03*
%TD*%
D141*
%TO.C,D13*%
X115722347Y-87065661D03*
X119020337Y-86950493D03*
%TD*%
D152*
%TO.C,C5*%
X147410000Y-58890000D03*
X147410000Y-56990000D03*
%TD*%
D148*
%TO.C,C1*%
X157831275Y-101552078D03*
X159731275Y-101552078D03*
%TD*%
D141*
%TO.C,D8*%
X102006349Y-70809662D03*
X105304339Y-70694494D03*
%TD*%
D148*
%TO.C,C2*%
X157831274Y-99185257D03*
X159731274Y-99185257D03*
%TD*%
D141*
%TO.C,D11*%
X79654352Y-124149661D03*
X82952342Y-124034493D03*
%TD*%
D136*
%TO.C,D33*%
X251104348Y-66630495D03*
X254402338Y-66745663D03*
%TD*%
M02*
