%TF.GenerationSoftware,KiCad,Pcbnew,(6.0.4)*%
%TF.CreationDate,2022-06-21T01:29:20+02:00*%
%TF.ProjectId,battoota,62617474-6f6f-4746-912e-6b696361645f,v1.0.0*%
%TF.SameCoordinates,Original*%
%TF.FileFunction,Legend,Bot*%
%TF.FilePolarity,Positive*%
%FSLAX46Y46*%
G04 Gerber Fmt 4.6, Leading zero omitted, Abs format (unit mm)*
G04 Created by KiCad (PCBNEW (6.0.4)) date 2022-06-21 01:29:20*
%MOMM*%
%LPD*%
G01*
G04 APERTURE LIST*
G04 Aperture macros list*
%AMRoundRect*
0 Rectangle with rounded corners*
0 $1 Rounding radius*
0 $2 $3 $4 $5 $6 $7 $8 $9 X,Y pos of 4 corners*
0 Add a 4 corners polygon primitive as box body*
4,1,4,$2,$3,$4,$5,$6,$7,$8,$9,$2,$3,0*
0 Add four circle primitives for the rounded corners*
1,1,$1+$1,$2,$3*
1,1,$1+$1,$4,$5*
1,1,$1+$1,$6,$7*
1,1,$1+$1,$8,$9*
0 Add four rect primitives between the rounded corners*
20,1,$1+$1,$2,$3,$4,$5,0*
20,1,$1+$1,$4,$5,$6,$7,0*
20,1,$1+$1,$6,$7,$8,$9,0*
20,1,$1+$1,$8,$9,$2,$3,0*%
%AMFreePoly0*
4,1,16,0.685355,0.785355,0.700000,0.750000,0.691603,0.722265,0.210093,0.000000,0.691603,-0.722265,0.699029,-0.759806,0.677735,-0.791603,0.650000,-0.800000,-0.500000,-0.800000,-0.535355,-0.785355,-0.550000,-0.750000,-0.550000,0.750000,-0.535355,0.785355,-0.500000,0.800000,0.650000,0.800000,0.685355,0.785355,0.685355,0.785355,$1*%
%AMFreePoly1*
4,1,16,0.535355,0.785355,0.550000,0.750000,0.550000,-0.750000,0.535355,-0.785355,0.500000,-0.800000,-0.500000,-0.800000,-0.535355,-0.785355,-0.541603,-0.777735,-1.041603,-0.027735,-1.049029,0.009806,-1.041603,0.027735,-0.541603,0.777735,-0.509806,0.799029,-0.500000,0.800000,0.500000,0.800000,0.535355,0.785355,0.535355,0.785355,$1*%
G04 Aperture macros list end*
%ADD10C,0.150000*%
%ADD11C,0.100000*%
%ADD12C,0.120000*%
%ADD13C,0.200000*%
%ADD14C,0.010000*%
%ADD15RoundRect,0.375000X-0.375000X-0.750000X0.375000X-0.750000X0.375000X0.750000X-0.375000X0.750000X0*%
%ADD16C,1.752600*%
%ADD17RoundRect,0.425000X-0.375000X-0.750000X0.375000X-0.750000X0.375000X0.750000X-0.375000X0.750000X0*%
%ADD18C,2.100000*%
%ADD19C,1.801800*%
%ADD20C,3.100000*%
%ADD21C,3.529000*%
%ADD22C,2.132000*%
%ADD23RoundRect,0.050000X-1.253839X-1.344577X1.344577X-1.253839X1.253839X1.344577X-1.344577X1.253839X0*%
%ADD24RoundRect,0.050000X-1.300000X-1.300000X1.300000X-1.300000X1.300000X1.300000X-1.300000X1.300000X0*%
%ADD25RoundRect,0.050000X-1.666227X-0.776974X0.776974X-1.666227X1.666227X0.776974X-0.776974X1.666227X0*%
%ADD26RoundRect,0.050000X-0.450000X0.450000X-0.450000X-0.450000X0.450000X-0.450000X0.450000X0.450000X0*%
%ADD27C,1.100000*%
%ADD28RoundRect,0.050000X-0.625000X0.450000X-0.625000X-0.450000X0.625000X-0.450000X0.625000X0.450000X0*%
%ADD29RoundRect,0.050000X-1.181751X-1.408356X1.408356X-1.181751X1.181751X1.408356X-1.408356X1.181751X0*%
%ADD30RoundRect,0.050000X-1.408356X-1.181751X1.181751X-1.408356X1.408356X1.181751X-1.181751X1.408356X0*%
%ADD31C,1.852600*%
%ADD32FreePoly0,180.000000*%
%ADD33RoundRect,0.050000X-0.762000X0.250000X-0.762000X-0.250000X0.762000X-0.250000X0.762000X0.250000X0*%
%ADD34FreePoly1,180.000000*%
%ADD35C,4.500000*%
G04 APERTURE END LIST*
D10*
%TO.C,PAD1*%
X149309955Y60268523D02*
X149195669Y60230428D01*
X149157574Y60192333D01*
X149119479Y60116142D01*
X149119479Y60001857D01*
X149157574Y59925666D01*
X149195669Y59887571D01*
X149271860Y59849476D01*
X149576621Y59849476D01*
X149576621Y60649476D01*
X149309955Y60649476D01*
X149233764Y60611381D01*
X149195669Y60573285D01*
X149157574Y60497095D01*
X149157574Y60420904D01*
X149195669Y60344714D01*
X149233764Y60306619D01*
X149309955Y60268523D01*
X149576621Y60268523D01*
X148776621Y60154238D02*
X148167098Y60154238D01*
X148471860Y59849476D02*
X148471860Y60459000D01*
X145309955Y60268523D02*
X145195669Y60230428D01*
X145157574Y60192333D01*
X145119479Y60116142D01*
X145119479Y60001857D01*
X145157574Y59925666D01*
X145195669Y59887571D01*
X145271860Y59849476D01*
X145576621Y59849476D01*
X145576621Y60649476D01*
X145309955Y60649476D01*
X145233764Y60611381D01*
X145195669Y60573285D01*
X145157574Y60497095D01*
X145157574Y60420904D01*
X145195669Y60344714D01*
X145233764Y60306619D01*
X145309955Y60268523D01*
X145576621Y60268523D01*
X144776621Y60154238D02*
X144167098Y60154238D01*
X144471860Y59849476D02*
X144471860Y60459000D01*
X147309955Y60268523D02*
X147195669Y60230428D01*
X147157574Y60192333D01*
X147119479Y60116142D01*
X147119479Y60001857D01*
X147157574Y59925666D01*
X147195669Y59887571D01*
X147271860Y59849476D01*
X147576621Y59849476D01*
X147576621Y60649476D01*
X147309955Y60649476D01*
X147233764Y60611381D01*
X147195669Y60573285D01*
X147157574Y60497095D01*
X147157574Y60420904D01*
X147195669Y60344714D01*
X147233764Y60306619D01*
X147309955Y60268523D01*
X147576621Y60268523D01*
X146776621Y60154238D02*
X146167098Y60154238D01*
%TO.C,B1*%
X158948380Y73259380D02*
X158472190Y73592714D01*
X158948380Y73830809D02*
X157948380Y73830809D01*
X157948380Y73449857D01*
X157996000Y73354619D01*
X158043619Y73307000D01*
X158138857Y73259380D01*
X158281714Y73259380D01*
X158376952Y73307000D01*
X158424571Y73354619D01*
X158472190Y73449857D01*
X158472190Y73830809D01*
X158424571Y72830809D02*
X158424571Y72497476D01*
X158948380Y72354619D02*
X158948380Y72830809D01*
X157948380Y72830809D01*
X157948380Y72354619D01*
X158900761Y71973666D02*
X158948380Y71830809D01*
X158948380Y71592714D01*
X158900761Y71497476D01*
X158853142Y71449857D01*
X158757904Y71402238D01*
X158662666Y71402238D01*
X158567428Y71449857D01*
X158519809Y71497476D01*
X158472190Y71592714D01*
X158424571Y71783190D01*
X158376952Y71878428D01*
X158329333Y71926047D01*
X158234095Y71973666D01*
X158138857Y71973666D01*
X158043619Y71926047D01*
X157996000Y71878428D01*
X157948380Y71783190D01*
X157948380Y71545095D01*
X157996000Y71402238D01*
X158424571Y70973666D02*
X158424571Y70640333D01*
X158948380Y70497476D02*
X158948380Y70973666D01*
X157948380Y70973666D01*
X157948380Y70497476D01*
X157948380Y70211761D02*
X157948380Y69640333D01*
X158948380Y69926047D02*
X157948380Y69926047D01*
%TO.C,MCU1*%
X153869584Y116486976D02*
X154136251Y116867928D01*
X154326727Y116486976D02*
X154326727Y117286976D01*
X154021965Y117286976D01*
X153945775Y117248881D01*
X153907680Y117210785D01*
X153869584Y117134595D01*
X153869584Y117020309D01*
X153907680Y116944119D01*
X153945775Y116906023D01*
X154021965Y116867928D01*
X154326727Y116867928D01*
X153564823Y116715547D02*
X153183870Y116715547D01*
X153641013Y116486976D02*
X153374346Y117286976D01*
X153107680Y116486976D01*
X152917204Y117286976D02*
X152726727Y116486976D01*
X152574346Y117058404D01*
X152421965Y116486976D01*
X152231489Y117286976D01*
X153832321Y111449408D02*
X154098987Y111830360D01*
X154289464Y111449408D02*
X154289464Y112249408D01*
X153984702Y112249408D01*
X153908511Y112211313D01*
X153870416Y112173217D01*
X153832321Y112097027D01*
X153832321Y111982741D01*
X153870416Y111906551D01*
X153908511Y111868455D01*
X153984702Y111830360D01*
X154289464Y111830360D01*
X153527559Y111487503D02*
X153413273Y111449408D01*
X153222797Y111449408D01*
X153146606Y111487503D01*
X153108511Y111525598D01*
X153070416Y111601789D01*
X153070416Y111677979D01*
X153108511Y111754170D01*
X153146606Y111792265D01*
X153222797Y111830360D01*
X153375178Y111868455D01*
X153451368Y111906551D01*
X153489464Y111944646D01*
X153527559Y112020836D01*
X153527559Y112097027D01*
X153489464Y112173217D01*
X153451368Y112211313D01*
X153375178Y112249408D01*
X153184702Y112249408D01*
X153070416Y112211313D01*
X152841845Y112249408D02*
X152384702Y112249408D01*
X152613273Y111449408D02*
X152613273Y112249408D01*
X153889464Y114751313D02*
X153965655Y114789408D01*
X154079941Y114789408D01*
X154194226Y114751313D01*
X154270417Y114675122D01*
X154308512Y114598932D01*
X154346607Y114446551D01*
X154346607Y114332265D01*
X154308512Y114179884D01*
X154270417Y114103693D01*
X154194226Y114027503D01*
X154079941Y113989408D01*
X154003750Y113989408D01*
X153889464Y114027503D01*
X153851369Y114065598D01*
X153851369Y114332265D01*
X154003750Y114332265D01*
X153508512Y113989408D02*
X153508512Y114789408D01*
X153051369Y113989408D01*
X153051369Y114789408D01*
X152670417Y113989408D02*
X152670417Y114789408D01*
X152479941Y114789408D01*
X152365655Y114751313D01*
X152289464Y114675122D01*
X152251369Y114598932D01*
X152213274Y114446551D01*
X152213274Y114332265D01*
X152251369Y114179884D01*
X152289464Y114103693D01*
X152365655Y114027503D01*
X152479941Y113989408D01*
X152670417Y113989408D01*
D11*
%TO.C,REF\u002A\u002A*%
X97114988Y88857812D02*
X97495418Y88837875D01*
X97240204Y88517459D02*
X97285063Y89373427D01*
X97337601Y89466043D01*
X97435201Y89508612D01*
X97530309Y89503628D01*
X98241123Y89418691D02*
X98148508Y89471229D01*
X97958293Y89481198D01*
X97860693Y89438629D01*
X97808155Y89346013D01*
X97788217Y88965583D01*
X97830787Y88867983D01*
X97923402Y88815445D01*
X98113617Y88805476D01*
X98211217Y88848046D01*
X98263755Y88940661D01*
X98268740Y89035769D01*
X97798186Y89155798D01*
X98684263Y88775570D02*
X98719153Y89441323D01*
X98689247Y88870678D02*
X98734309Y88820632D01*
X98826924Y88768094D01*
X98969586Y88760617D01*
X99067185Y88803186D01*
X99119723Y88895802D01*
X99147138Y89418893D01*
X99445123Y88735695D02*
X99825554Y88715758D01*
X99570339Y88395342D02*
X99615199Y89251310D01*
X99667737Y89343926D01*
X99765337Y89386495D01*
X99860444Y89381511D01*
X100193321Y89364065D02*
X100158430Y88698312D01*
X100140985Y88365436D02*
X100095923Y88415482D01*
X100145969Y88460543D01*
X100191031Y88410497D01*
X100140985Y88365436D01*
X100145969Y88460543D01*
X100633968Y88673390D02*
X100668859Y89339143D01*
X100638952Y88768498D02*
X100684014Y88718452D01*
X100776629Y88665914D01*
X100919291Y88658437D01*
X101016891Y88701007D01*
X101069429Y88793622D01*
X101096843Y89316714D01*
X101965474Y88603609D02*
X102007841Y89412024D01*
X101965272Y89509623D01*
X101920210Y89559669D01*
X101827595Y89612207D01*
X101684934Y89619684D01*
X101587334Y89577115D01*
X101997873Y89221808D02*
X101905257Y89274347D01*
X101715042Y89284315D01*
X101617442Y89241746D01*
X101567396Y89196684D01*
X101514858Y89104069D01*
X101499905Y88818746D01*
X101542474Y88721146D01*
X101587536Y88671100D01*
X101680151Y88618562D01*
X101870367Y88608594D01*
X101967966Y88651163D01*
X111053188Y88190929D02*
X111105524Y89189559D01*
X111055681Y88238483D02*
X111148296Y88185945D01*
X111338511Y88175976D01*
X111436111Y88218546D01*
X111486157Y88263607D01*
X111538695Y88356223D01*
X111553648Y88641545D01*
X111511079Y88739145D01*
X111466017Y88789191D01*
X111373402Y88841729D01*
X111183187Y88851698D01*
X111085587Y88809129D01*
X112384694Y88121148D02*
X112419585Y88786901D01*
X111956710Y88143578D02*
X111984124Y88666669D01*
X112036663Y88759285D01*
X112134262Y88801854D01*
X112276924Y88794378D01*
X112369539Y88741840D01*
X112414601Y88691794D01*
X113320615Y88691996D02*
X113227999Y88744534D01*
X113037784Y88754503D01*
X112940185Y88711933D01*
X112890139Y88666872D01*
X112837600Y88574256D01*
X112822647Y88288934D01*
X112865217Y88191334D01*
X112910278Y88141288D01*
X113002894Y88088750D01*
X113193109Y88078781D01*
X113290709Y88121350D01*
X113751091Y88717120D02*
X113698755Y87718490D01*
X113826261Y88331705D02*
X114131521Y88697182D01*
X114096631Y88031429D02*
X113736138Y88431797D01*
D10*
%TO.C,B1*%
X160246000Y68680000D02*
X159996000Y68680000D01*
X160246000Y74680000D02*
X160246000Y68680000D01*
X156746000Y74680000D02*
X156996000Y74680000D01*
X156996000Y68680000D02*
X156746000Y68680000D01*
X156746000Y68680000D02*
X156746000Y74680000D01*
X159996000Y74680000D02*
X160246000Y74680000D01*
%TO.C,T2*%
X160354000Y57740000D02*
X160354000Y61640000D01*
X157504000Y56390000D02*
X160354000Y56390000D01*
X160354000Y62990000D02*
X157504000Y62990000D01*
X157504000Y62990000D02*
X157504000Y56390000D01*
X160354000Y59690000D02*
X160354000Y62990000D01*
X160354000Y59690000D02*
X160354000Y56390000D01*
D12*
%TO.C,MCU1*%
X157726477Y114663254D02*
X157726477Y115343254D01*
X157726477Y110803254D02*
X157726477Y111463254D01*
X157726477Y117883254D02*
X154926477Y117883254D01*
X154926477Y117883254D02*
X154926477Y115883254D01*
X157726477Y112138254D02*
X157726477Y112803254D01*
X154926477Y110803254D02*
X157726477Y110803254D01*
X157726477Y115883254D02*
X157726477Y116563254D01*
X154926477Y112803254D02*
X154926477Y110803254D01*
X157726477Y115343254D02*
X154926477Y115343254D01*
X157726477Y112803254D02*
X154926477Y112803254D01*
X157726477Y117213254D02*
X157726477Y117883254D01*
X157726477Y113343254D02*
X157726477Y114013254D01*
X154926477Y115343254D02*
X154926477Y113343254D01*
X154926477Y113343254D02*
X157726477Y113343254D01*
X154926477Y115883254D02*
X157726477Y115883254D01*
D13*
%TO.C,REF\u002A\u002A*%
X117328292Y88267407D02*
G75*
G03*
X117328291Y89397341I-10780107J564962D01*
G01*
X95736708Y89317326D02*
G75*
G03*
X95736708Y88187393I10780126J-564968D01*
G01*
X98540287Y69939442D02*
G75*
G03*
X102631034Y68689772I8007834J18893050D01*
G01*
X95885989Y90521084D02*
G75*
G03*
X95767879Y89397341I10662096J-1688710D01*
G01*
X117210181Y87143664D02*
G75*
G03*
X117328291Y88267407I-10662055J1688704D01*
G01*
X87655155Y96840177D02*
G75*
G03*
X86405483Y92749425I18892944J-8007806D01*
G01*
X114555887Y107725304D02*
G75*
G03*
X110465136Y108974976I-8007802J-18892930D01*
G01*
X95854818Y90441070D02*
G75*
G03*
X95736708Y89317326I10662017J-1688700D01*
G01*
X125441016Y80824575D02*
G75*
G03*
X126690687Y84915323I-18892990J8007822D01*
G01*
X126989787Y90622491D02*
G75*
G03*
X126174562Y94821456I-20441721J-1790122D01*
G01*
X108338202Y68390671D02*
G75*
G03*
X112537168Y69205897I-1790117J20441703D01*
G01*
X86106382Y87042257D02*
G75*
G03*
X86921608Y82843291I20441703J1790117D01*
G01*
X117297120Y88187393D02*
G75*
G03*
X117297120Y89317327I-10780127J564969D01*
G01*
X117179009Y87063649D02*
G75*
G03*
X117297119Y88187393I-10662017J1688701D01*
G01*
X104757968Y109274076D02*
G75*
G03*
X100559000Y108458850I1790117J-20441702D01*
G01*
X95767879Y89397341D02*
G75*
G03*
X95767879Y88267407I10780127J-564969D01*
G01*
G36*
X121831311Y90033574D02*
G01*
X121734407Y89947684D01*
X121719709Y89934654D01*
X121685733Y89904530D01*
X121636738Y89861088D01*
X121574024Y89805478D01*
X121498889Y89738852D01*
X121412631Y89662362D01*
X121316547Y89577159D01*
X121211937Y89484395D01*
X121100101Y89385220D01*
X120982334Y89280786D01*
X120859936Y89172244D01*
X120734206Y89060747D01*
X119830907Y88259700D01*
X119842910Y88547835D01*
X119854913Y88835969D01*
X120698536Y89595805D01*
X119067216Y89681299D01*
X119093199Y90177072D01*
X121831311Y90033574D01*
G37*
D14*
X121831311Y90033574D02*
X121734407Y89947684D01*
X121719709Y89934654D01*
X121685733Y89904530D01*
X121636738Y89861088D01*
X121574024Y89805478D01*
X121498889Y89738852D01*
X121412631Y89662362D01*
X121316547Y89577159D01*
X121211937Y89484395D01*
X121100101Y89385220D01*
X120982334Y89280786D01*
X120859936Y89172244D01*
X120734206Y89060747D01*
X119830907Y88259700D01*
X119842910Y88547835D01*
X119854913Y88835969D01*
X120698536Y89595805D01*
X119067216Y89681299D01*
X119093199Y90177072D01*
X121831311Y90033574D01*
G36*
X120921102Y87875017D02*
G01*
X120949321Y87870922D01*
X120995243Y87859634D01*
X121120263Y87815477D01*
X121243067Y87753800D01*
X121357439Y87678018D01*
X121457171Y87591549D01*
X121465885Y87582687D01*
X121560405Y87469273D01*
X121637880Y87342625D01*
X121696798Y87206181D01*
X121735653Y87063384D01*
X121752932Y86917672D01*
X121752162Y86817329D01*
X121733011Y86669708D01*
X121693296Y86528173D01*
X121634215Y86394846D01*
X121556957Y86271846D01*
X121462720Y86161294D01*
X121352697Y86065307D01*
X121228083Y85986008D01*
X121118314Y85934428D01*
X120976488Y85888642D01*
X120830481Y85864895D01*
X120677673Y85862599D01*
X120588312Y85870848D01*
X120439426Y85901363D01*
X120299889Y85951486D01*
X120171320Y86020119D01*
X120055339Y86106165D01*
X119953568Y86208525D01*
X119867624Y86326104D01*
X119799130Y86457803D01*
X119770191Y86529266D01*
X119744947Y86605830D01*
X119729231Y86678404D01*
X119721313Y86755407D01*
X119719462Y86845262D01*
X119719727Y86863085D01*
X119723834Y86904614D01*
X120237862Y86904614D01*
X120241889Y86803361D01*
X120264652Y86705036D01*
X120305394Y86613142D01*
X120363354Y86531179D01*
X120437773Y86462648D01*
X120465333Y86443410D01*
X120556344Y86394928D01*
X120652905Y86366980D01*
X120759827Y86358004D01*
X120765125Y86358009D01*
X120820578Y86359426D01*
X120863197Y86364560D01*
X120902414Y86375167D01*
X120947655Y86393005D01*
X120987054Y86412457D01*
X121047939Y86450808D01*
X121105834Y86495897D01*
X121154546Y86542735D01*
X121187878Y86586336D01*
X121196489Y86602074D01*
X121215966Y86642015D01*
X121234281Y86684111D01*
X121257354Y86755829D01*
X121271290Y86858941D01*
X121263828Y86961013D01*
X121235807Y87059400D01*
X121188066Y87151457D01*
X121121446Y87234538D01*
X121036787Y87306001D01*
X120984216Y87337450D01*
X120891918Y87372760D01*
X120795056Y87388423D01*
X120696808Y87385255D01*
X120600354Y87364072D01*
X120508873Y87325694D01*
X120425547Y87270937D01*
X120353554Y87200618D01*
X120296075Y87115558D01*
X120289065Y87101903D01*
X120253335Y87005295D01*
X120237862Y86904614D01*
X119723834Y86904614D01*
X119733441Y87001758D01*
X119767903Y87130514D01*
X119823336Y87249992D01*
X119899964Y87360831D01*
X119918405Y87384032D01*
X119936026Y87407988D01*
X119942982Y87420072D01*
X119939005Y87421189D01*
X119915307Y87423882D01*
X119872312Y87427464D01*
X119812381Y87431776D01*
X119737872Y87436658D01*
X119651144Y87441954D01*
X119554558Y87447506D01*
X119450470Y87453153D01*
X118957587Y87479132D01*
X119493485Y87959448D01*
X120184246Y87923159D01*
X120195966Y87922542D01*
X120346220Y87914406D01*
X120483269Y87906559D01*
X120605703Y87899097D01*
X120712112Y87892116D01*
X120801088Y87885711D01*
X120821033Y87884081D01*
X120871221Y87879980D01*
X120921102Y87875017D01*
G37*
X120921102Y87875017D02*
X120949321Y87870922D01*
X120995243Y87859634D01*
X121120263Y87815477D01*
X121243067Y87753800D01*
X121357439Y87678018D01*
X121457171Y87591549D01*
X121465885Y87582687D01*
X121560405Y87469273D01*
X121637880Y87342625D01*
X121696798Y87206181D01*
X121735653Y87063384D01*
X121752932Y86917672D01*
X121752162Y86817329D01*
X121733011Y86669708D01*
X121693296Y86528173D01*
X121634215Y86394846D01*
X121556957Y86271846D01*
X121462720Y86161294D01*
X121352697Y86065307D01*
X121228083Y85986008D01*
X121118314Y85934428D01*
X120976488Y85888642D01*
X120830481Y85864895D01*
X120677673Y85862599D01*
X120588312Y85870848D01*
X120439426Y85901363D01*
X120299889Y85951486D01*
X120171320Y86020119D01*
X120055339Y86106165D01*
X119953568Y86208525D01*
X119867624Y86326104D01*
X119799130Y86457803D01*
X119770191Y86529266D01*
X119744947Y86605830D01*
X119729231Y86678404D01*
X119721313Y86755407D01*
X119719462Y86845262D01*
X119719727Y86863085D01*
X119723834Y86904614D01*
X120237862Y86904614D01*
X120241889Y86803361D01*
X120264652Y86705036D01*
X120305394Y86613142D01*
X120363354Y86531179D01*
X120437773Y86462648D01*
X120465333Y86443410D01*
X120556344Y86394928D01*
X120652905Y86366980D01*
X120759827Y86358004D01*
X120765125Y86358009D01*
X120820578Y86359426D01*
X120863197Y86364560D01*
X120902414Y86375167D01*
X120947655Y86393005D01*
X120987054Y86412457D01*
X121047939Y86450808D01*
X121105834Y86495897D01*
X121154546Y86542735D01*
X121187878Y86586336D01*
X121196489Y86602074D01*
X121215966Y86642015D01*
X121234281Y86684111D01*
X121257354Y86755829D01*
X121271290Y86858941D01*
X121263828Y86961013D01*
X121235807Y87059400D01*
X121188066Y87151457D01*
X121121446Y87234538D01*
X121036787Y87306001D01*
X120984216Y87337450D01*
X120891918Y87372760D01*
X120795056Y87388423D01*
X120696808Y87385255D01*
X120600354Y87364072D01*
X120508873Y87325694D01*
X120425547Y87270937D01*
X120353554Y87200618D01*
X120296075Y87115558D01*
X120289065Y87101903D01*
X120253335Y87005295D01*
X120237862Y86904614D01*
X119723834Y86904614D01*
X119733441Y87001758D01*
X119767903Y87130514D01*
X119823336Y87249992D01*
X119899964Y87360831D01*
X119918405Y87384032D01*
X119936026Y87407988D01*
X119942982Y87420072D01*
X119939005Y87421189D01*
X119915307Y87423882D01*
X119872312Y87427464D01*
X119812381Y87431776D01*
X119737872Y87436658D01*
X119651144Y87441954D01*
X119554558Y87447506D01*
X119450470Y87453153D01*
X118957587Y87479132D01*
X119493485Y87959448D01*
X120184246Y87923159D01*
X120195966Y87922542D01*
X120346220Y87914406D01*
X120483269Y87906559D01*
X120605703Y87899097D01*
X120712112Y87892116D01*
X120801088Y87885711D01*
X120821033Y87884081D01*
X120871221Y87879980D01*
X120921102Y87875017D01*
G36*
X121430149Y89054407D02*
G01*
X121433470Y89051052D01*
X121455502Y89027999D01*
X121489402Y88991829D01*
X121532227Y88945709D01*
X121581038Y88892799D01*
X121632893Y88836265D01*
X121799648Y88653938D01*
X121767199Y88034774D01*
X121735091Y88064797D01*
X121732524Y88067227D01*
X121710409Y88089083D01*
X121676332Y88123671D01*
X121632294Y88168898D01*
X121580293Y88222665D01*
X121522330Y88282877D01*
X121460405Y88347437D01*
X121396516Y88414247D01*
X121332663Y88481214D01*
X121270847Y88546237D01*
X121213065Y88607224D01*
X121161319Y88662074D01*
X121117607Y88708695D01*
X121083929Y88744986D01*
X121062286Y88768854D01*
X121054676Y88778200D01*
X121054886Y88778721D01*
X121065560Y88790408D01*
X121090482Y88814618D01*
X121127039Y88848899D01*
X121172619Y88890795D01*
X121224608Y88937852D01*
X121394159Y89090222D01*
X121430149Y89054407D01*
G37*
X121430149Y89054407D02*
X121433470Y89051052D01*
X121455502Y89027999D01*
X121489402Y88991829D01*
X121532227Y88945709D01*
X121581038Y88892799D01*
X121632893Y88836265D01*
X121799648Y88653938D01*
X121767199Y88034774D01*
X121735091Y88064797D01*
X121732524Y88067227D01*
X121710409Y88089083D01*
X121676332Y88123671D01*
X121632294Y88168898D01*
X121580293Y88222665D01*
X121522330Y88282877D01*
X121460405Y88347437D01*
X121396516Y88414247D01*
X121332663Y88481214D01*
X121270847Y88546237D01*
X121213065Y88607224D01*
X121161319Y88662074D01*
X121117607Y88708695D01*
X121083929Y88744986D01*
X121062286Y88768854D01*
X121054676Y88778200D01*
X121054886Y88778721D01*
X121065560Y88790408D01*
X121090482Y88814618D01*
X121127039Y88848899D01*
X121172619Y88890795D01*
X121224608Y88937852D01*
X121394159Y89090222D01*
X121430149Y89054407D01*
%TO.C,G\u002A\u002A\u002A*%
G36*
X94630151Y54707570D02*
G01*
X94396858Y54643258D01*
X94146747Y54624050D01*
X93810667Y54635225D01*
X93526219Y54656367D01*
X93256312Y54699910D01*
X93120476Y54741218D01*
X93661943Y54741218D01*
X93712212Y54724332D01*
X93895333Y54717727D01*
X94019582Y54720197D01*
X94125956Y54733481D01*
X94085833Y54754419D01*
X93951551Y54768426D01*
X93704833Y54754419D01*
X93661943Y54741218D01*
X93120476Y54741218D01*
X92994058Y54779662D01*
X92876275Y54830486D01*
X94341597Y54830486D01*
X94342908Y54801584D01*
X94452722Y54786018D01*
X94535945Y54799576D01*
X94503875Y54837170D01*
X94454914Y54850698D01*
X94341597Y54830486D01*
X92876275Y54830486D01*
X92687996Y54911729D01*
X92286667Y55112217D01*
X92208282Y55183879D01*
X92132425Y55360900D01*
X92132991Y55368759D01*
X92339283Y55368759D01*
X92397983Y55253540D01*
X92625333Y55143946D01*
X92847118Y55090411D01*
X93223604Y55048327D01*
X93664575Y55034937D01*
X94131166Y55047895D01*
X94584513Y55084850D01*
X94985752Y55143456D01*
X95296017Y55221363D01*
X95476445Y55316223D01*
X95492870Y55337106D01*
X95467648Y55440963D01*
X95285368Y55554542D01*
X94955354Y55671486D01*
X94780003Y55729272D01*
X94492971Y55850367D01*
X94290142Y55968931D01*
X94063133Y56096450D01*
X93778078Y56113650D01*
X93516467Y55966671D01*
X93392165Y55880634D01*
X93135190Y55755590D01*
X92833677Y55645696D01*
X92725675Y55610865D01*
X92448694Y55488302D01*
X92339283Y55368759D01*
X92132991Y55368759D01*
X92140521Y55473243D01*
X92240681Y55587134D01*
X92471092Y55710227D01*
X92577253Y55755334D01*
X92833403Y55842614D01*
X93021004Y55878141D01*
X93048079Y55880318D01*
X93244595Y55951562D01*
X93456560Y56091667D01*
X93505819Y56131487D01*
X93779808Y56277658D01*
X94047205Y56267960D01*
X94345483Y56102867D01*
X94364727Y56089006D01*
X94645319Y55941058D01*
X94941455Y55852737D01*
X95061155Y55830092D01*
X95379092Y55717187D01*
X95594233Y55556210D01*
X95673333Y55369127D01*
X95669109Y55337106D01*
X95668339Y55331266D01*
X95588156Y55214183D01*
X95392697Y55076498D01*
X95059500Y54901081D01*
X94915777Y54831706D01*
X94841849Y54799576D01*
X94689770Y54733481D01*
X94630151Y54707570D01*
G37*
G36*
X97799442Y51985333D02*
G01*
X97620028Y51773667D01*
X97429847Y51994905D01*
X97238073Y52186204D01*
X97023991Y52353234D01*
X96808316Y52490324D01*
X96707046Y52111686D01*
X96629659Y51887333D01*
X96366231Y51462822D01*
X95994214Y51144981D01*
X95540861Y50960708D01*
X95290623Y50892245D01*
X95117737Y50798440D01*
X95105769Y50691711D01*
X95250000Y50565649D01*
X95352742Y50466672D01*
X95378027Y50400075D01*
X95419333Y50291283D01*
X95407101Y50168285D01*
X95337061Y50132079D01*
X95168231Y50205783D01*
X95044914Y50243962D01*
X94964787Y50163450D01*
X94913787Y50081950D01*
X94793044Y50046823D01*
X94691542Y50155644D01*
X94639140Y50215602D01*
X94482532Y50230436D01*
X94399061Y50222079D01*
X94322767Y50286006D01*
X94347863Y50399653D01*
X94516775Y50399653D01*
X94588529Y50406426D01*
X94675489Y50412391D01*
X94770055Y50308474D01*
X94782357Y50267625D01*
X94819397Y50234979D01*
X94870367Y50357285D01*
X94882796Y50393841D01*
X94950581Y50494172D01*
X95050721Y50451053D01*
X95122415Y50405425D01*
X95216964Y50400075D01*
X95205574Y50453346D01*
X95087918Y50542119D01*
X94978257Y50630734D01*
X94904649Y50781812D01*
X94890157Y50872713D01*
X94852119Y50800000D01*
X94777115Y50677619D01*
X94625970Y50516952D01*
X94578370Y50474588D01*
X94516775Y50399653D01*
X94347863Y50399653D01*
X94352613Y50421165D01*
X94488000Y50588333D01*
X94600721Y50708613D01*
X94657333Y50813122D01*
X94638058Y50829097D01*
X94491057Y50857605D01*
X94230892Y50877310D01*
X93895333Y50884667D01*
X93500743Y50875436D01*
X93243987Y50841712D01*
X93133063Y50776462D01*
X93156460Y50672668D01*
X93302667Y50523312D01*
X93412249Y50398914D01*
X93435969Y50339995D01*
X93472000Y50250496D01*
X93416192Y50147763D01*
X93289393Y50129312D01*
X93172536Y50212400D01*
X93114992Y50241809D01*
X93003905Y50148900D01*
X92993052Y50134460D01*
X92887871Y50046615D01*
X92783433Y50101500D01*
X92715286Y50151084D01*
X92523733Y50207333D01*
X92469490Y50213637D01*
X92380726Y50295190D01*
X92401931Y50411615D01*
X92582325Y50411615D01*
X92641196Y50409547D01*
X92727380Y50413538D01*
X92813434Y50308474D01*
X92825393Y50257281D01*
X92862678Y50220838D01*
X92937544Y50330334D01*
X92972231Y50386915D01*
X93058980Y50448307D01*
X93188640Y50375229D01*
X93250894Y50330200D01*
X93265299Y50339995D01*
X93165277Y50463896D01*
X93025462Y50647764D01*
X92939127Y50800000D01*
X92938865Y50800718D01*
X92900071Y50877530D01*
X92886018Y50789160D01*
X92832576Y50660603D01*
X92688833Y50509234D01*
X92669500Y50494616D01*
X92582325Y50411615D01*
X92401931Y50411615D01*
X92405276Y50429982D01*
X92540667Y50565649D01*
X92631006Y50631564D01*
X92701167Y50756732D01*
X92606699Y50856951D01*
X92350167Y50927352D01*
X92337828Y50929377D01*
X91861255Y51091629D01*
X91460784Y51391861D01*
X91171089Y51804285D01*
X91087814Y51998086D01*
X91023345Y52239840D01*
X90993408Y52536258D01*
X90988903Y52944280D01*
X90988860Y52981843D01*
X91209666Y52981843D01*
X91243855Y52458080D01*
X91403259Y51986486D01*
X91675834Y51597674D01*
X92049535Y51322256D01*
X92087740Y51303624D01*
X92276097Y51225150D01*
X92480546Y51170693D01*
X92739395Y51134516D01*
X93090955Y51110884D01*
X93573535Y51094059D01*
X94144697Y51085675D01*
X94763194Y51103676D01*
X95251581Y51160229D01*
X95630819Y51261432D01*
X95921870Y51413383D01*
X96145694Y51622178D01*
X96323254Y51893915D01*
X96424529Y52130475D01*
X96506471Y52510221D01*
X96495436Y52859890D01*
X96388576Y53125717D01*
X96373639Y53146821D01*
X96266099Y53356554D01*
X96176048Y53613628D01*
X96118673Y53792155D01*
X96046930Y53880658D01*
X95944947Y53858602D01*
X95924596Y53849158D01*
X95746335Y53789770D01*
X95464680Y53713483D01*
X95130784Y53634382D01*
X95065628Y53620603D01*
X94366584Y53533659D01*
X93602673Y53530520D01*
X92846225Y53608041D01*
X92169571Y53763080D01*
X91877909Y53846803D01*
X91618710Y53880246D01*
X91452449Y53816468D01*
X91344247Y53638916D01*
X91259226Y53331036D01*
X91209666Y52981843D01*
X90988860Y52981843D01*
X90988570Y53237704D01*
X90973264Y53515229D01*
X90937135Y53672581D01*
X90876186Y53737889D01*
X90832845Y53765392D01*
X90703348Y53921409D01*
X90570098Y54152370D01*
X90466010Y54396190D01*
X90424000Y54590787D01*
X90417492Y54631718D01*
X90326503Y54805426D01*
X90162447Y54996326D01*
X90006162Y55166417D01*
X90623034Y55166417D01*
X90677891Y54610457D01*
X90712798Y54490235D01*
X90833625Y54214049D01*
X90973471Y54018144D01*
X91171612Y53832000D01*
X91324621Y54065520D01*
X91331980Y54077211D01*
X91424587Y54337259D01*
X91472045Y54698011D01*
X91473874Y55100552D01*
X91429593Y55485965D01*
X91338723Y55795333D01*
X91324513Y55826852D01*
X91220312Y56070303D01*
X91146909Y56261000D01*
X91133108Y56298654D01*
X91086548Y56353984D01*
X91015508Y56294714D01*
X90892074Y56103603D01*
X90715494Y55709602D01*
X90623034Y55166417D01*
X90006162Y55166417D01*
X89931662Y55247498D01*
X89586687Y55808695D01*
X89368912Y56467274D01*
X89280310Y57211605D01*
X89291634Y57429453D01*
X89577333Y57429453D01*
X89591598Y56996053D01*
X89672256Y56449611D01*
X89836742Y55973902D01*
X90099358Y55516515D01*
X90311877Y55203765D01*
X90454579Y55717039D01*
X90512624Y55897483D01*
X90660243Y56225386D01*
X90822024Y56455054D01*
X91046766Y56679797D01*
X90767747Y57469373D01*
X90690937Y57692082D01*
X90594480Y57991971D01*
X90535123Y58204433D01*
X90523469Y58293691D01*
X90533327Y58296156D01*
X90669931Y58305891D01*
X90952109Y58317554D01*
X91361589Y58330639D01*
X91880102Y58344643D01*
X92489378Y58359060D01*
X93171145Y58373386D01*
X93907135Y58387118D01*
X94795177Y58401149D01*
X95579608Y58409805D01*
X96208620Y58411980D01*
X96689312Y58407606D01*
X97028786Y58396614D01*
X97234143Y58378938D01*
X97312483Y58354508D01*
X97307050Y58248229D01*
X97249196Y58017387D01*
X97148276Y57697411D01*
X97014266Y57322808D01*
X96659625Y56382404D01*
X95807568Y56406369D01*
X94955512Y56430333D01*
X94261764Y58123667D01*
X93601220Y58123667D01*
X93254393Y57277000D01*
X92907567Y56430333D01*
X92164569Y56405736D01*
X92121125Y56404380D01*
X91791435Y56396045D01*
X91586381Y56374134D01*
X91487795Y56308177D01*
X91477510Y56167705D01*
X91537359Y55922247D01*
X91649173Y55541333D01*
X91717659Y55233477D01*
X91720290Y55100552D01*
X91729460Y54637344D01*
X91676032Y54199020D01*
X92256516Y54013069D01*
X92381603Y53976360D01*
X92909152Y53870313D01*
X93513967Y53806463D01*
X94136441Y53787253D01*
X94716969Y53815128D01*
X95195943Y53892532D01*
X95246688Y53909326D01*
X96351494Y53909326D01*
X96390368Y53730301D01*
X96518490Y53441811D01*
X96708946Y53115634D01*
X96933603Y52799169D01*
X97164329Y52539817D01*
X97196620Y52510221D01*
X97369582Y52351693D01*
X97543381Y52209176D01*
X97635814Y52154667D01*
X97659990Y52167971D01*
X97696983Y52296558D01*
X97704551Y52522068D01*
X97685264Y52795410D01*
X97641694Y53067490D01*
X97576409Y53289213D01*
X97523846Y53397075D01*
X97350897Y53671777D01*
X97145022Y53932562D01*
X96977735Y54111678D01*
X96854785Y54204283D01*
X96744974Y54207257D01*
X96596613Y54140169D01*
X96584045Y54133534D01*
X96419054Y54015990D01*
X96351494Y53909326D01*
X95246688Y53909326D01*
X95885072Y54120600D01*
X96577636Y54472478D01*
X97178727Y54912535D01*
X97663451Y55422255D01*
X98006911Y55983122D01*
X98086050Y56163499D01*
X98172071Y56405438D01*
X98220933Y56648424D01*
X98242355Y56948489D01*
X98246059Y57361667D01*
X98233847Y57779333D01*
X98144551Y58506649D01*
X97955106Y59186223D01*
X97649351Y59886437D01*
X97444161Y60251778D01*
X96969924Y60864119D01*
X96392712Y61346115D01*
X95704860Y61703495D01*
X94898703Y61941985D01*
X94848022Y61952616D01*
X94556096Y62016566D01*
X94344460Y62067479D01*
X94255967Y62095145D01*
X94253630Y62102716D01*
X94279213Y62214187D01*
X94350757Y62407500D01*
X94426846Y62619207D01*
X94524172Y62978858D01*
X94595789Y63347712D01*
X94631429Y63669494D01*
X94620827Y63887926D01*
X94559249Y64018007D01*
X94397400Y64092667D01*
X94368545Y64090770D01*
X94202876Y63985839D01*
X94080976Y63726886D01*
X94005724Y63322946D01*
X93980000Y62783053D01*
X93973060Y62468386D01*
X93951015Y62210475D01*
X93920090Y62080986D01*
X93886732Y62089934D01*
X93857386Y62247336D01*
X93838501Y62563209D01*
X93811962Y62865990D01*
X93708895Y63278090D01*
X93543192Y63593086D01*
X93329296Y63776561D01*
X93236143Y63809953D01*
X93059528Y63789447D01*
X92955656Y63620138D01*
X92921667Y63298676D01*
X92969683Y62962479D01*
X93147334Y62640621D01*
X93284157Y62452524D01*
X93395912Y62237979D01*
X93371634Y62097781D01*
X93200337Y62003552D01*
X92871037Y61926916D01*
X92514894Y61842944D01*
X91790956Y61553262D01*
X91153053Y61128956D01*
X90610423Y60582637D01*
X90172300Y59926916D01*
X89847920Y59174405D01*
X89646519Y58337713D01*
X89577333Y57429453D01*
X89291634Y57429453D01*
X89322854Y58030057D01*
X89498516Y58910998D01*
X89714637Y59564422D01*
X90100594Y60336015D01*
X90591518Y60989912D01*
X91178665Y61516989D01*
X91853291Y61908122D01*
X92606652Y62154187D01*
X92820479Y62201611D01*
X93026705Y62250687D01*
X93116352Y62276777D01*
X93113828Y62297299D01*
X93049179Y62420230D01*
X92925852Y62612889D01*
X92787409Y62875491D01*
X92704290Y63251560D01*
X92747669Y63602480D01*
X92917818Y63884849D01*
X93037321Y63996981D01*
X93184764Y64076560D01*
X93334198Y64037237D01*
X93544308Y63878407D01*
X93798941Y63664147D01*
X93910637Y63896498D01*
X94042017Y64082620D01*
X94249381Y64256116D01*
X94383944Y64323239D01*
X94511315Y64328022D01*
X94651548Y64224903D01*
X94749675Y64085694D01*
X94821521Y63771329D01*
X94805796Y63344949D01*
X94701780Y62826604D01*
X94654589Y62630014D01*
X94618996Y62419930D01*
X94623079Y62320699D01*
X94692549Y62291120D01*
X94889183Y62236755D01*
X95159750Y62176064D01*
X95646798Y62044555D01*
X96358391Y61718224D01*
X96980856Y61258241D01*
X97507025Y60675014D01*
X97929730Y59978953D01*
X98241804Y59180466D01*
X98436078Y58289961D01*
X98502260Y57361667D01*
X98505384Y57317846D01*
X98505914Y57062525D01*
X98499961Y56708150D01*
X98478003Y56449785D01*
X98431675Y56240285D01*
X98352614Y56032507D01*
X98232459Y55779309D01*
X97973312Y55341863D01*
X97496756Y54796888D01*
X97038261Y54377850D01*
X97294885Y54134092D01*
X97535219Y53850123D01*
X97752833Y53458525D01*
X97897385Y53036541D01*
X97959553Y52623879D01*
X97951282Y52522068D01*
X97930013Y52260241D01*
X97799442Y51985333D01*
G37*
%TD*%
D15*
%TO.C,PAD1*%
X148871860Y62011381D03*
X146871860Y62011381D03*
X144871860Y62011381D03*
%TD*%
D16*
%TO.C,MCU1*%
X159385000Y114343254D03*
X159385000Y111803254D03*
X144145000Y111803254D03*
X144145000Y116967000D03*
X159385000Y116883254D03*
X144145000Y114343254D03*
X144145000Y109263254D03*
X144145000Y106723254D03*
X144145000Y104183254D03*
X144145000Y101643254D03*
X144145000Y99103254D03*
X144145000Y96563254D03*
X144145000Y94023254D03*
X144145000Y91483254D03*
X144145000Y88943254D03*
X159385000Y109263254D03*
X159385000Y106723254D03*
X159385000Y104183254D03*
X159385000Y101643254D03*
X159385000Y99103254D03*
X159385000Y96563254D03*
X159385000Y94023254D03*
X159385000Y91483254D03*
X159385000Y88943254D03*
%TD*%
%LPC*%
D17*
%TO.C,PAD1*%
X148871860Y62011381D03*
X146871860Y62011381D03*
X144871860Y62011381D03*
%TD*%
D18*
%TO.C,B1*%
X158496000Y74930000D03*
X158496000Y68430000D03*
%TD*%
D19*
%TO.C,S11*%
X71773275Y108266500D03*
D20*
X77062273Y114404822D03*
D21*
X77269925Y108458447D03*
D20*
X82136006Y112380659D03*
X72142098Y112031664D03*
D19*
X82766575Y108650394D03*
D22*
X72405589Y104486264D03*
X82399497Y104835259D03*
D23*
X73789267Y114290527D03*
D22*
X77475832Y102562041D03*
D23*
X85409011Y112494955D03*
%TD*%
D21*
%TO.C,S15*%
X96495817Y96246989D03*
D20*
X96495817Y102196989D03*
D19*
X90995817Y96246989D03*
D20*
X101495817Y99996988D03*
X91495817Y99996988D03*
D19*
X101995817Y96246989D03*
D22*
X91495817Y92446989D03*
X101495817Y92446989D03*
D24*
X93220816Y102196989D03*
X104770817Y99996988D03*
D22*
X96495817Y90346989D03*
%TD*%
D20*
%TO.C,S21*%
X114611087Y95636017D03*
D19*
X109111087Y89686017D03*
X120111087Y89686017D03*
D20*
X109611087Y93436016D03*
X119611087Y93436016D03*
D21*
X114611087Y89686017D03*
D22*
X109611087Y85886017D03*
X119611087Y85886017D03*
D24*
X111336086Y95636017D03*
D22*
X114611087Y83786017D03*
D24*
X122886087Y93436016D03*
%TD*%
D19*
%TO.C,S29*%
X138218280Y97278852D03*
D20*
X137718280Y101028851D03*
X127718280Y101028851D03*
D19*
X127218280Y97278852D03*
D21*
X132718280Y97278852D03*
D20*
X132718280Y103228852D03*
D24*
X129443279Y103228852D03*
D22*
X127718280Y93478852D03*
X137718280Y93478852D03*
X132718280Y91378852D03*
D24*
X140993280Y101028851D03*
%TD*%
D20*
%TO.C,S33*%
X148480391Y49902477D03*
D19*
X147667662Y46207620D03*
D20*
X144534373Y53679902D03*
D19*
X137331044Y49969842D03*
D20*
X139083465Y53322678D03*
D21*
X142499353Y48088731D03*
D25*
X141456879Y54800018D03*
D22*
X145898140Y42807798D03*
X136501213Y46228000D03*
D25*
X151557885Y48782361D03*
D22*
X140481434Y42544545D03*
%TD*%
D21*
%TO.C,S7*%
X78456509Y74479159D03*
D20*
X78248857Y80425534D03*
X73328682Y78052376D03*
X83322590Y78401371D03*
D19*
X72959859Y74287212D03*
X83953159Y74671106D03*
D23*
X74975851Y80311239D03*
D22*
X83586081Y70855971D03*
X73592173Y70506976D03*
D23*
X86595595Y78515667D03*
D22*
X78662416Y68582753D03*
%TD*%
D26*
%TO.C,T2*%
X160104000Y55990000D03*
X160104000Y63390000D03*
X157904000Y55990000D03*
X157904000Y63390000D03*
D27*
X159004000Y61190000D03*
X159004000Y58190000D03*
D28*
X156929000Y61940000D03*
X156929000Y58940000D03*
X156929000Y57440000D03*
%TD*%
D19*
%TO.C,S5*%
X52940861Y93963998D03*
D21*
X58419932Y94443355D03*
D19*
X63899003Y94922712D03*
D20*
X57901355Y100370713D03*
X63074072Y98614863D03*
X53112125Y97743305D03*
D22*
X53770150Y90222036D03*
D29*
X54638817Y100085278D03*
D22*
X63732097Y91093594D03*
X58934151Y88565806D03*
D29*
X66336609Y98900298D03*
%TD*%
D21*
%TO.C,S27*%
X132718280Y80278852D03*
D19*
X127218280Y80278852D03*
D20*
X127718280Y84028851D03*
D19*
X138218280Y80278852D03*
D20*
X137718280Y84028851D03*
X132718280Y86228852D03*
D22*
X137718280Y76478852D03*
D24*
X129443279Y86228852D03*
D22*
X127718280Y76478852D03*
X132718280Y74378852D03*
D24*
X140993280Y84028851D03*
%TD*%
D19*
%TO.C,S9*%
X83359867Y91660750D03*
D20*
X82729298Y95391015D03*
D21*
X77863217Y91468803D03*
D20*
X72735390Y95042020D03*
X77655565Y97415178D03*
D19*
X72366567Y91276856D03*
D22*
X72998881Y87496620D03*
D23*
X74382559Y97300883D03*
D22*
X82992789Y87845615D03*
D23*
X86002303Y95505311D03*
D22*
X78069124Y85572397D03*
%TD*%
D19*
%TO.C,S13*%
X90995817Y79246989D03*
D21*
X96495817Y79246989D03*
D20*
X96495817Y85196989D03*
X91495817Y82996988D03*
D19*
X101995817Y79246989D03*
D20*
X101495817Y82996988D03*
D22*
X91495817Y75446989D03*
D24*
X93220816Y85196989D03*
D22*
X101495817Y75446989D03*
X96495817Y73346989D03*
D24*
X104770817Y82996988D03*
%TD*%
D19*
%TO.C,S17*%
X101995818Y113246989D03*
D20*
X91495818Y116996988D03*
X96495818Y119196989D03*
D21*
X96495818Y113246989D03*
D19*
X90995818Y113246989D03*
D20*
X101495818Y116996988D03*
D24*
X93220817Y119196989D03*
D22*
X91495818Y109446989D03*
X101495818Y109446989D03*
D24*
X104770818Y116996988D03*
D22*
X96495818Y107346989D03*
%TD*%
D19*
%TO.C,S31*%
X128389091Y51952225D03*
D20*
X118255880Y56603090D03*
D19*
X117430949Y52910939D03*
D20*
X128217827Y55731532D03*
X123428597Y58358940D03*
D21*
X122910020Y52431582D03*
D30*
X120166058Y58644376D03*
D22*
X127559802Y48210263D03*
X117597855Y49081821D03*
X122395801Y46554033D03*
D30*
X131480365Y55446097D03*
%TD*%
D31*
%TO.C,MCU1*%
X159385000Y114343254D03*
D32*
X157051477Y114343254D03*
D31*
X159385000Y111803254D03*
D33*
X158001477Y116883254D03*
D31*
X144145000Y111803254D03*
D33*
X158001477Y114343254D03*
X158001477Y111803254D03*
D32*
X157051477Y111803254D03*
X157051477Y116883254D03*
D31*
X144145000Y116967000D03*
X159385000Y116883254D03*
X144145000Y114343254D03*
D34*
X155601477Y116883254D03*
X155601477Y114343254D03*
X155601477Y111803254D03*
D31*
X144145000Y109263254D03*
X144145000Y106723254D03*
X144145000Y104183254D03*
X144145000Y101643254D03*
X144145000Y99103254D03*
X144145000Y96563254D03*
X144145000Y94023254D03*
X144145000Y91483254D03*
X144145000Y88943254D03*
X159385000Y109263254D03*
X159385000Y106723254D03*
X159385000Y104183254D03*
X159385000Y101643254D03*
X159385000Y99103254D03*
X159385000Y96563254D03*
X159385000Y94023254D03*
X159385000Y91483254D03*
X159385000Y88943254D03*
%TD*%
D19*
%TO.C,S3*%
X65380650Y77987400D03*
D20*
X54593772Y80807993D03*
X59383002Y83435401D03*
X64555719Y81679551D03*
D19*
X54422508Y77028686D03*
D21*
X59901579Y77508043D03*
D22*
X55251797Y73286724D03*
X65213744Y74158282D03*
D29*
X56120464Y83149966D03*
X67818256Y81964986D03*
D22*
X60415798Y71630494D03*
%TD*%
D35*
%TO.C,REF\u002A\u002A*%
X105551085Y69808481D03*
X125571978Y87835374D03*
X87524192Y89829374D03*
%TD*%
D20*
%TO.C,S23*%
X119611087Y110436016D03*
X109611087Y110436016D03*
X114611087Y112636017D03*
D19*
X109111087Y106686017D03*
D21*
X114611087Y106686017D03*
D19*
X120111087Y106686017D03*
D22*
X109611087Y102886017D03*
X119611087Y102886017D03*
D24*
X111336086Y112636017D03*
D22*
X114611087Y100786017D03*
D24*
X122886087Y110436016D03*
%TD*%
D20*
%TO.C,S19*%
X109611087Y76436016D03*
D19*
X120111087Y72686017D03*
X109111087Y72686017D03*
D21*
X114611087Y72686017D03*
D20*
X114611087Y78636017D03*
X119611087Y76436016D03*
D22*
X109611087Y68886017D03*
X119611087Y68886017D03*
D24*
X111336086Y78636017D03*
X122886087Y76436016D03*
D22*
X114611087Y66786017D03*
%TD*%
M02*
