M48
; DRILL file {KiCad (6.0.4-0)} date 2022 July 27, Wednesday 11:57:41
; FORMAT={-:-/ absolute / metric / decimal}
; #@! TF.CreationDate,2022-07-27T11:57:41+02:00
; #@! TF.GenerationSoftware,Kicad,Pcbnew,(6.0.4-0)
; #@! TF.FileFunction,NonPlated,1,2,NPTH
FMAT,2
METRIC
; #@! TA.AperFunction,NonPlated,NPTH,ComponentDrill
T1C0.900
; #@! TA.AperFunction,NonPlated,NPTH,ComponentDrill
T2C1.702
; #@! TA.AperFunction,NonPlated,NPTH,ComponentDrill
T3C3.000
; #@! TA.AperFunction,NonPlated,NPTH,ComponentDrill
T4C3.429
%
G90
G05
T1
X157.269Y93.158
X157.269Y90.158
T2
X33.34Y71.314
X43.859Y74.53
X49.403Y81.758
X54.374Y65.501
X59.923Y84.974
X64.893Y68.717
X67.284Y103.998
X70.236Y87.256
X73.188Y70.514
X78.117Y105.908
X81.069Y89.166
X84.021Y72.424
X87.944Y113.57
X89.426Y96.635
X90.908Y79.7
X98.903Y114.529
X100.384Y97.594
X101.866Y80.658
X105.51Y48.188
X109.911Y104.686
X109.911Y87.686
X109.911Y70.686
X116.51Y48.188
X120.911Y104.686
X120.911Y87.686
X120.911Y70.686
X124.307Y47.882
X128.485Y103.178
X128.485Y86.178
X128.485Y69.178
X135.281Y47.114
X139.485Y103.178
X139.485Y86.178
X139.485Y69.178
X143.785Y45.62
X154.411Y42.772
T3
X32.722Y75.046
X36.86Y78.612
X42.285Y77.97
X48.785Y85.49
X52.923Y89.056
X53.755Y69.233
X57.894Y72.799
X58.348Y88.414
X63.318Y72.157
X67.125Y107.778
X70.077Y91.036
X71.667Y110.812
X73.029Y74.294
X74.619Y94.071
X76.973Y109.514
X77.571Y77.329
X79.925Y92.772
X82.877Y76.031
X88.116Y117.349
X89.597Y100.414
X91.079Y83.479
X92.905Y119.977
X94.387Y103.042
X95.868Y86.106
X98.078Y118.221
X99.559Y101.286
X101.041Y84.35
X106.01Y51.938
X110.411Y108.436
X110.411Y91.436
X110.411Y74.436
X111.01Y54.138
X115.411Y110.636
X115.411Y93.636
X115.411Y76.636
X116.01Y51.938
X120.411Y108.436
X120.411Y91.436
X120.411Y74.436
X125.068Y51.588
X128.985Y106.928
X128.985Y89.928
X128.985Y72.928
X130.209Y53.434
X133.985Y109.128
X133.985Y92.128
X133.985Y75.128
X135.043Y50.89
X138.985Y106.928
X138.985Y89.928
X138.985Y72.928
X145.239Y49.112
X150.638Y49.943
X154.898Y46.524
T4
X38.6Y72.922
X54.663Y83.366
X59.633Y67.109
X72.7Y104.953
X75.652Y88.211
X78.604Y71.469
X93.423Y114.049
X94.905Y97.114
X96.387Y80.179
X111.01Y48.188
X115.411Y104.686
X115.411Y87.686
X115.411Y70.686
X129.794Y47.498
X133.985Y103.178
X133.985Y86.178
X133.985Y69.178
X149.098Y44.196
T0
M30
