  0
SECTION
  2
HEADER
  9
$ANGBASE
  50
0.0
  9
$ANGDIR
  70
1
  9
$MEASUREMENT
  70
1
  0
ENDSEC
  0
SECTION
  2
TABLES
  0
TABLE
  2
LTYPE
  70
4
  0
LTYPE
  5
40F
  2
CONTINUOUS
  70
0
  3
Solid line
  72
65
  73
0
  40
0.0
  0
LTYPE
  5
410
  2
DASHDOT
 70
0
  3
Dash Dot ____ _ ____ _
 72
65
 73
4
 40
2.0
 49
1.25
 49
-0.25
 49
0.25
 49
-0.25
  0
LTYPE
  5
411
  2
DASHED
 70
0
  3
Dashed __ __ __ __ __
 72
65
 73
2
 40
0.75
 49
0.5
 49
-0.25
  0
LTYPE
  5
43B
  2
DOTTED
 70
0
  3
Dotted .  .  .  .
 72
65
 73
2
 40
0.2
 49
0.0
 49
-0.2
  0
ENDTAB
  0
TABLE
  2
STYLE
  70
4
  0
STYLE
  2
KICAD
  70
0
  40
0
  41
1
  42
1
  50
0
  71
0
  3
isocp.shx
  0
STYLE
  2
KICADB
  70
0
  40
0
  41
1
  42
1
  50
0
  71
0
  3
isocp.shx
  0
STYLE
  2
KICADI
  70
0
  40
0
  41
1
  42
1
  50
15
  71
0
  3
isocp.shx
  0
STYLE
  2
KICADBI
  70
0
  40
0
  41
1
  42
1
  50
15
  71
0
  3
isocp.shx
  0
ENDTAB
  0
TABLE
  2
LAYER
  70
1
  0
LAYER
  2
BLACK
  70
0
  62
7
  6
CONTINUOUS
  0
ENDTAB
  0
ENDSEC
  0
SECTION
  2
ENTITIES
0
LINE
8
BLACK
6
CONTINUOUS
10
197.803
20
-147.196
11
301.991
21
-147.196
0
ARC
8
BLACK
10
197.803
20
-144.196
40
2.99997
50
-180.001
51
-89.9998
0
LINE
8
BLACK
6
CONTINUOUS
10
197.803
20
-56.5814
11
301.991
21
-56.5814
0
ARC
8
BLACK
10
301.991
20
-144.196
40
2.9999
50
-90.0019
51
0.000630274
0
LINE
8
BLACK
6
CONTINUOUS
10
194.803
20
-144.196
11
194.803
21
-59.5814
0
LINE
8
BLACK
6
CONTINUOUS
10
304.991
20
-144.196
11
304.991
21
-59.5814
0
ARC
8
BLACK
10
301.991
20
-59.5814
40
2.99998
50
-0.000420169
51
90
0
ARC
8
BLACK
10
197.803
20
-59.5814
40
2.99999
50
-270
51
-180
0
LINE
8
BLACK
6
CONTINUOUS
10
198.682
20
-137.722
11
199.082
21
-138.122
0
LINE
8
BLACK
6
CONTINUOUS
10
199.082
20
-137.722
11
198.682
21
-138.122
0
LINE
8
BLACK
6
CONTINUOUS
10
201.222
20
-137.722
11
201.622
21
-138.122
0
LINE
8
BLACK
6
CONTINUOUS
10
201.622
20
-137.722
11
201.222
21
-138.122
0
LINE
8
BLACK
6
CONTINUOUS
10
203.762
20
-137.722
11
204.162
21
-138.122
0
LINE
8
BLACK
6
CONTINUOUS
10
204.162
20
-137.722
11
203.762
21
-138.122
0
LINE
8
BLACK
6
CONTINUOUS
10
204.803
20
-63.2937
11
205.203
21
-63.6937
0
LINE
8
BLACK
6
CONTINUOUS
10
205.203
20
-63.2937
11
204.803
21
-63.6937
0
CIRCLE
8
BLACK
10
198.798
20
-145.574
40
0.5461
0
CIRCLE
8
BLACK
10
198.882
20
-130.334
40
0.5461
0
CIRCLE
8
BLACK
10
200.47
20
-71.374
40
0.5461
0
CIRCLE
8
BLACK
10
201.422
20
-130.334
40
0.5461
0
CIRCLE
8
BLACK
10
201.422
20
-145.574
40
0.5461
0
CIRCLE
8
BLACK
10
202.47
20
-71.374
40
0.5461
0
CIRCLE
8
BLACK
10
203.962
20
-130.334
40
0.5461
0
CIRCLE
8
BLACK
10
203.962
20
-145.574
40
0.5461
0
CIRCLE
8
BLACK
10
204.47
20
-71.374
40
0.5461
0
CIRCLE
8
BLACK
10
206.502
20
-130.334
40
0.5461
0
CIRCLE
8
BLACK
10
206.502
20
-145.574
40
0.5461
0
CIRCLE
8
BLACK
10
209.042
20
-130.334
40
0.5461
0
CIRCLE
8
BLACK
10
209.042
20
-145.574
40
0.5461
0
CIRCLE
8
BLACK
10
211.582
20
-130.334
40
0.5461
0
CIRCLE
8
BLACK
10
211.582
20
-145.574
40
0.5461
0
CIRCLE
8
BLACK
10
214.122
20
-130.334
40
0.5461
0
CIRCLE
8
BLACK
10
214.122
20
-145.574
40
0.5461
0
CIRCLE
8
BLACK
10
216.662
20
-130.334
40
0.5461
0
CIRCLE
8
BLACK
10
216.662
20
-145.574
40
0.5461
0
CIRCLE
8
BLACK
10
219.202
20
-130.334
40
0.5461
0
CIRCLE
8
BLACK
10
219.202
20
-145.574
40
0.5461
0
CIRCLE
8
BLACK
10
221.742
20
-130.334
40
0.5461
0
CIRCLE
8
BLACK
10
221.742
20
-145.574
40
0.5461
0
CIRCLE
8
BLACK
10
224.282
20
-130.334
40
0.5461
0
CIRCLE
8
BLACK
10
224.282
20
-145.574
40
0.5461
0
CIRCLE
8
BLACK
10
226.822
20
-130.334
40
0.5461
0
CIRCLE
8
BLACK
10
226.822
20
-145.574
40
0.5461
0
LINE
8
BLACK
6
CONTINUOUS
10
233.172
20
-130.804
11
233.172
21
-132.104
0
LINE
8
BLACK
6
CONTINUOUS
10
232.522
20
-131.454
11
233.822
21
-131.454
0
LINE
8
BLACK
6
CONTINUOUS
10
233.172
20
-137.304
11
233.172
21
-138.604
0
LINE
8
BLACK
6
CONTINUOUS
10
232.522
20
-137.954
11
233.822
21
-137.954
0
LINE
8
BLACK
6
CONTINUOUS
10
203.84
20
-102.892
11
203.84
21
-101.832
0
LINE
8
BLACK
6
CONTINUOUS
10
203.84
20
-101.832
11
202.78
21
-101.832
0
LINE
8
BLACK
6
CONTINUOUS
10
202.78
20
-101.832
11
202.78
21
-102.892
0
LINE
8
BLACK
6
CONTINUOUS
10
202.78
20
-102.892
11
203.84
21
-102.892
0
LINE
8
BLACK
6
CONTINUOUS
10
205.797
20
-104.95
11
205.797
21
-103.89
0
LINE
8
BLACK
6
CONTINUOUS
10
205.797
20
-103.89
11
204.738
21
-103.89
0
LINE
8
BLACK
6
CONTINUOUS
10
204.738
20
-103.89
11
204.738
21
-104.95
0
LINE
8
BLACK
6
CONTINUOUS
10
204.738
20
-104.95
11
205.797
21
-104.95
0
LINE
8
BLACK
6
CONTINUOUS
10
209.395
20
-121.062
11
209.395
21
-120.002
0
LINE
8
BLACK
6
CONTINUOUS
10
209.395
20
-120.002
11
208.335
21
-120.002
0
LINE
8
BLACK
6
CONTINUOUS
10
208.335
20
-120.002
11
208.335
21
-121.062
0
LINE
8
BLACK
6
CONTINUOUS
10
208.335
20
-121.062
11
209.395
21
-121.062
0
LINE
8
BLACK
6
CONTINUOUS
10
210.655
20
-103.464
11
210.655
21
-102.405
0
LINE
8
BLACK
6
CONTINUOUS
10
210.655
20
-102.405
11
209.596
21
-102.405
0
LINE
8
BLACK
6
CONTINUOUS
10
209.596
20
-102.405
11
209.596
21
-103.464
0
LINE
8
BLACK
6
CONTINUOUS
10
209.596
20
-103.464
11
210.655
21
-103.464
0
LINE
8
BLACK
6
CONTINUOUS
10
211.127
20
-100.664
11
211.127
21
-99.6043
0
LINE
8
BLACK
6
CONTINUOUS
10
211.127
20
-99.6043
11
210.067
21
-99.6043
0
LINE
8
BLACK
6
CONTINUOUS
10
210.067
20
-99.6043
11
210.067
21
-100.664
0
LINE
8
BLACK
6
CONTINUOUS
10
210.067
20
-100.664
11
211.127
21
-100.664
0
LINE
8
BLACK
6
CONTINUOUS
10
211.352
20
-123.119
11
211.352
21
-122.06
0
LINE
8
BLACK
6
CONTINUOUS
10
211.352
20
-122.06
11
210.293
21
-122.06
0
LINE
8
BLACK
6
CONTINUOUS
10
210.293
20
-122.06
11
210.293
21
-123.119
0
LINE
8
BLACK
6
CONTINUOUS
10
210.293
20
-123.119
11
211.352
21
-123.119
0
LINE
8
BLACK
6
CONTINUOUS
10
216.21
20
-121.634
11
216.21
21
-120.574
0
LINE
8
BLACK
6
CONTINUOUS
10
216.21
20
-120.574
11
215.151
21
-120.574
0
LINE
8
BLACK
6
CONTINUOUS
10
215.151
20
-120.574
11
215.151
21
-121.634
0
LINE
8
BLACK
6
CONTINUOUS
10
215.151
20
-121.634
11
216.21
21
-121.634
0
LINE
8
BLACK
6
CONTINUOUS
10
216.682
20
-118.834
11
216.682
21
-117.774
0
LINE
8
BLACK
6
CONTINUOUS
10
216.682
20
-117.774
11
215.622
21
-117.774
0
LINE
8
BLACK
6
CONTINUOUS
10
215.622
20
-117.774
11
215.622
21
-118.834
0
LINE
8
BLACK
6
CONTINUOUS
10
215.622
20
-118.834
11
216.682
21
-118.834
0
LINE
8
BLACK
6
CONTINUOUS
10
222.746
20
-79.67
11
222.746
21
-78.6103
0
LINE
8
BLACK
6
CONTINUOUS
10
222.746
20
-78.6103
11
221.686
21
-78.6103
0
LINE
8
BLACK
6
CONTINUOUS
10
221.686
20
-78.6103
11
221.686
21
-79.67
0
LINE
8
BLACK
6
CONTINUOUS
10
221.686
20
-79.67
11
222.746
21
-79.67
0
LINE
8
BLACK
6
CONTINUOUS
10
224.438
20
-81.9509
11
224.438
21
-80.8912
0
LINE
8
BLACK
6
CONTINUOUS
10
224.438
20
-80.8912
11
223.378
21
-80.8912
0
LINE
8
BLACK
6
CONTINUOUS
10
223.378
20
-80.8912
11
223.378
21
-81.9509
0
LINE
8
BLACK
6
CONTINUOUS
10
223.378
20
-81.9509
11
224.438
21
-81.9509
0
LINE
8
BLACK
6
CONTINUOUS
10
226.045
20
-98.3813
11
226.045
21
-97.3217
0
LINE
8
BLACK
6
CONTINUOUS
10
226.045
20
-97.3217
11
224.986
21
-97.3217
0
LINE
8
BLACK
6
CONTINUOUS
10
224.986
20
-97.3217
11
224.986
21
-98.3813
0
LINE
8
BLACK
6
CONTINUOUS
10
224.986
20
-98.3813
11
226.045
21
-98.3813
0
LINE
8
BLACK
6
CONTINUOUS
10
227.737
20
-100.662
11
227.737
21
-99.6025
0
LINE
8
BLACK
6
CONTINUOUS
10
227.737
20
-99.6025
11
226.677
21
-99.6025
0
LINE
8
BLACK
6
CONTINUOUS
10
226.677
20
-99.6025
11
226.677
21
-100.662
0
LINE
8
BLACK
6
CONTINUOUS
10
226.677
20
-100.662
11
227.737
21
-100.662
0
LINE
8
BLACK
6
CONTINUOUS
10
229.345
20
-117.093
11
229.345
21
-116.033
0
LINE
8
BLACK
6
CONTINUOUS
10
229.345
20
-116.033
11
228.285
21
-116.033
0
LINE
8
BLACK
6
CONTINUOUS
10
228.285
20
-116.033
11
228.285
21
-117.093
0
LINE
8
BLACK
6
CONTINUOUS
10
228.285
20
-117.093
11
229.345
21
-117.093
0
LINE
8
BLACK
6
CONTINUOUS
10
229.44
20
-81.0687
11
229.44
21
-80.0091
0
LINE
8
BLACK
6
CONTINUOUS
10
229.44
20
-80.0091
11
228.381
21
-80.0091
0
LINE
8
BLACK
6
CONTINUOUS
10
228.381
20
-80.0091
11
228.381
21
-81.0687
0
LINE
8
BLACK
6
CONTINUOUS
10
228.381
20
-81.0687
11
229.44
21
-81.0687
0
LINE
8
BLACK
6
CONTINUOUS
10
230.25
20
-78.3468
11
230.25
21
-77.2871
0
LINE
8
BLACK
6
CONTINUOUS
10
230.25
20
-77.2871
11
229.19
21
-77.2871
0
LINE
8
BLACK
6
CONTINUOUS
10
229.19
20
-77.2871
11
229.19
21
-78.3468
0
LINE
8
BLACK
6
CONTINUOUS
10
229.19
20
-78.3468
11
230.25
21
-78.3468
0
LINE
8
BLACK
6
CONTINUOUS
10
231.036
20
-119.374
11
231.036
21
-118.314
0
LINE
8
BLACK
6
CONTINUOUS
10
231.036
20
-118.314
11
229.977
21
-118.314
0
LINE
8
BLACK
6
CONTINUOUS
10
229.977
20
-118.314
11
229.977
21
-119.374
0
LINE
8
BLACK
6
CONTINUOUS
10
229.977
20
-119.374
11
231.036
21
-119.374
0
LINE
8
BLACK
6
CONTINUOUS
10
232.74
20
-99.7801
11
232.74
21
-98.7204
0
LINE
8
BLACK
6
CONTINUOUS
10
232.74
20
-98.7204
11
231.68
21
-98.7204
0
LINE
8
BLACK
6
CONTINUOUS
10
231.68
20
-98.7204
11
231.68
21
-99.7801
0
LINE
8
BLACK
6
CONTINUOUS
10
231.68
20
-99.7801
11
232.74
21
-99.7801
0
LINE
8
BLACK
6
CONTINUOUS
10
233.549
20
-97.0581
11
233.549
21
-95.9985
0
LINE
8
BLACK
6
CONTINUOUS
10
233.549
20
-95.9985
11
232.49
21
-95.9985
0
LINE
8
BLACK
6
CONTINUOUS
10
232.49
20
-95.9985
11
232.49
21
-97.0581
0
LINE
8
BLACK
6
CONTINUOUS
10
232.49
20
-97.0581
11
233.549
21
-97.0581
0
LINE
8
BLACK
6
CONTINUOUS
10
236.039
20
-118.491
11
236.039
21
-117.432
0
LINE
8
BLACK
6
CONTINUOUS
10
236.039
20
-117.432
11
234.979
21
-117.432
0
LINE
8
BLACK
6
CONTINUOUS
10
234.979
20
-117.432
11
234.979
21
-118.491
0
LINE
8
BLACK
6
CONTINUOUS
10
234.979
20
-118.491
11
236.039
21
-118.491
0
LINE
8
BLACK
6
CONTINUOUS
10
236.849
20
-115.769
11
236.849
21
-114.71
0
LINE
8
BLACK
6
CONTINUOUS
10
236.849
20
-114.71
11
235.789
21
-114.71
0
LINE
8
BLACK
6
CONTINUOUS
10
235.789
20
-114.71
11
235.789
21
-115.769
0
LINE
8
BLACK
6
CONTINUOUS
10
235.789
20
-115.769
11
236.849
21
-115.769
0
LINE
8
BLACK
6
CONTINUOUS
10
244.391
20
-68.9703
11
244.391
21
-67.9106
0
LINE
8
BLACK
6
CONTINUOUS
10
244.391
20
-67.9106
11
243.331
21
-67.9106
0
LINE
8
BLACK
6
CONTINUOUS
10
243.331
20
-67.9106
11
243.331
21
-68.9703
0
LINE
8
BLACK
6
CONTINUOUS
10
243.331
20
-68.9703
11
244.391
21
-68.9703
0
LINE
8
BLACK
6
CONTINUOUS
10
245.877
20
-71.3899
11
245.877
21
-70.3302
0
LINE
8
BLACK
6
CONTINUOUS
10
245.877
20
-70.3302
11
244.817
21
-70.3302
0
LINE
8
BLACK
6
CONTINUOUS
10
244.817
20
-70.3302
11
244.817
21
-71.3899
0
LINE
8
BLACK
6
CONTINUOUS
10
244.817
20
-71.3899
11
245.877
21
-71.3899
0
LINE
8
BLACK
6
CONTINUOUS
10
246.047
20
-87.898
11
246.047
21
-86.8383
0
LINE
8
BLACK
6
CONTINUOUS
10
246.047
20
-86.8383
11
244.987
21
-86.8383
0
LINE
8
BLACK
6
CONTINUOUS
10
244.987
20
-86.8383
11
244.987
21
-87.898
0
LINE
8
BLACK
6
CONTINUOUS
10
244.987
20
-87.898
11
246.047
21
-87.898
0
LINE
8
BLACK
6
CONTINUOUS
10
247.533
20
-90.3176
11
247.533
21
-89.2579
0
LINE
8
BLACK
6
CONTINUOUS
10
247.533
20
-89.2579
11
246.473
21
-89.2579
0
LINE
8
BLACK
6
CONTINUOUS
10
246.473
20
-89.2579
11
246.473
21
-90.3176
0
LINE
8
BLACK
6
CONTINUOUS
10
246.473
20
-90.3176
11
247.533
21
-90.3176
0
LINE
8
BLACK
6
CONTINUOUS
10
247.702
20
-106.826
11
247.702
21
-105.766
0
LINE
8
BLACK
6
CONTINUOUS
10
247.702
20
-105.766
11
246.643
21
-105.766
0
LINE
8
BLACK
6
CONTINUOUS
10
246.643
20
-105.766
11
246.643
21
-106.826
0
LINE
8
BLACK
6
CONTINUOUS
10
246.643
20
-106.826
11
247.702
21
-106.826
0
LINE
8
BLACK
6
CONTINUOUS
10
249.189
20
-109.245
11
249.189
21
-108.186
0
LINE
8
BLACK
6
CONTINUOUS
10
249.189
20
-108.186
11
248.129
21
-108.186
0
LINE
8
BLACK
6
CONTINUOUS
10
248.129
20
-108.186
11
248.129
21
-109.245
0
LINE
8
BLACK
6
CONTINUOUS
10
248.129
20
-109.245
11
249.189
21
-109.245
0
LINE
8
BLACK
6
CONTINUOUS
10
250.938
20
-70.9472
11
250.938
21
-69.8875
0
LINE
8
BLACK
6
CONTINUOUS
10
250.938
20
-69.8875
11
249.878
21
-69.8875
0
LINE
8
BLACK
6
CONTINUOUS
10
249.878
20
-69.8875
11
249.878
21
-70.9472
0
LINE
8
BLACK
6
CONTINUOUS
10
249.878
20
-70.9472
11
250.938
21
-70.9472
0
LINE
8
BLACK
6
CONTINUOUS
10
251.982
20
-68.3061
11
251.982
21
-67.2464
0
LINE
8
BLACK
6
CONTINUOUS
10
251.982
20
-67.2464
11
250.922
21
-67.2464
0
LINE
8
BLACK
6
CONTINUOUS
10
250.922
20
-67.2464
11
250.922
21
-68.3061
0
LINE
8
BLACK
6
CONTINUOUS
10
250.922
20
-68.3061
11
251.982
21
-68.3061
0
LINE
8
BLACK
6
CONTINUOUS
10
252.594
20
-89.8748
11
252.594
21
-88.8152
0
LINE
8
BLACK
6
CONTINUOUS
10
252.594
20
-88.8152
11
251.534
21
-88.8152
0
LINE
8
BLACK
6
CONTINUOUS
10
251.534
20
-88.8152
11
251.534
21
-89.8748
0
LINE
8
BLACK
6
CONTINUOUS
10
251.534
20
-89.8748
11
252.594
21
-89.8748
0
LINE
8
BLACK
6
CONTINUOUS
10
253.638
20
-87.2338
11
253.638
21
-86.1741
0
LINE
8
BLACK
6
CONTINUOUS
10
253.638
20
-86.1741
11
252.578
21
-86.1741
0
LINE
8
BLACK
6
CONTINUOUS
10
252.578
20
-86.1741
11
252.578
21
-87.2338
0
LINE
8
BLACK
6
CONTINUOUS
10
252.578
20
-87.2338
11
253.638
21
-87.2338
0
LINE
8
BLACK
6
CONTINUOUS
10
254.25
20
-108.803
11
254.25
21
-107.743
0
LINE
8
BLACK
6
CONTINUOUS
10
254.25
20
-107.743
11
253.19
21
-107.743
0
LINE
8
BLACK
6
CONTINUOUS
10
253.19
20
-107.743
11
253.19
21
-108.803
0
LINE
8
BLACK
6
CONTINUOUS
10
253.19
20
-108.803
11
254.25
21
-108.803
0
LINE
8
BLACK
6
CONTINUOUS
10
255.294
20
-106.162
11
255.294
21
-105.102
0
LINE
8
BLACK
6
CONTINUOUS
10
255.294
20
-105.102
11
254.234
21
-105.102
0
LINE
8
BLACK
6
CONTINUOUS
10
254.234
20
-105.102
11
254.234
21
-106.162
0
LINE
8
BLACK
6
CONTINUOUS
10
254.234
20
-106.162
11
255.294
21
-106.162
0
LINE
8
BLACK
6
CONTINUOUS
10
267.835
20
-81.0562
11
267.835
21
-79.9965
0
LINE
8
BLACK
6
CONTINUOUS
10
267.835
20
-79.9965
11
266.776
21
-79.9965
0
LINE
8
BLACK
6
CONTINUOUS
10
266.776
20
-79.9965
11
266.776
21
-81.0562
0
LINE
8
BLACK
6
CONTINUOUS
10
266.776
20
-81.0562
11
267.835
21
-81.0562
0
LINE
8
BLACK
6
CONTINUOUS
10
267.835
20
-100.056
11
267.835
21
-98.9965
0
LINE
8
BLACK
6
CONTINUOUS
10
267.835
20
-98.9965
11
266.776
21
-98.9965
0
LINE
8
BLACK
6
CONTINUOUS
10
266.776
20
-98.9965
11
266.776
21
-100.056
0
LINE
8
BLACK
6
CONTINUOUS
10
266.776
20
-100.056
11
267.835
21
-100.056
0
LINE
8
BLACK
6
CONTINUOUS
10
267.835
20
-119.056
11
267.835
21
-117.997
0
LINE
8
BLACK
6
CONTINUOUS
10
267.835
20
-117.997
11
266.776
21
-117.997
0
LINE
8
BLACK
6
CONTINUOUS
10
266.776
20
-117.997
11
266.776
21
-119.056
0
LINE
8
BLACK
6
CONTINUOUS
10
266.776
20
-119.056
11
267.835
21
-119.056
0
LINE
8
BLACK
6
CONTINUOUS
10
269.105
20
-83.5962
11
269.105
21
-82.5365
0
LINE
8
BLACK
6
CONTINUOUS
10
269.105
20
-82.5365
11
268.046
21
-82.5365
0
LINE
8
BLACK
6
CONTINUOUS
10
268.046
20
-82.5365
11
268.046
21
-83.5962
0
LINE
8
BLACK
6
CONTINUOUS
10
268.046
20
-83.5962
11
269.105
21
-83.5962
0
LINE
8
BLACK
6
CONTINUOUS
10
269.105
20
-102.596
11
269.105
21
-101.537
0
LINE
8
BLACK
6
CONTINUOUS
10
269.105
20
-101.537
11
268.046
21
-101.537
0
LINE
8
BLACK
6
CONTINUOUS
10
268.046
20
-101.537
11
268.046
21
-102.596
0
LINE
8
BLACK
6
CONTINUOUS
10
268.046
20
-102.596
11
269.105
21
-102.596
0
LINE
8
BLACK
6
CONTINUOUS
10
269.105
20
-121.596
11
269.105
21
-120.537
0
LINE
8
BLACK
6
CONTINUOUS
10
269.105
20
-120.537
11
268.046
21
-120.537
0
LINE
8
BLACK
6
CONTINUOUS
10
268.046
20
-120.537
11
268.046
21
-121.596
0
LINE
8
BLACK
6
CONTINUOUS
10
268.046
20
-121.596
11
269.105
21
-121.596
0
LINE
8
BLACK
6
CONTINUOUS
10
272.46
20
-140.056
11
272.46
21
-138.997
0
LINE
8
BLACK
6
CONTINUOUS
10
272.46
20
-138.997
11
271.401
21
-138.997
0
LINE
8
BLACK
6
CONTINUOUS
10
271.401
20
-138.997
11
271.401
21
-140.056
0
LINE
8
BLACK
6
CONTINUOUS
10
271.401
20
-140.056
11
272.46
21
-140.056
0
LINE
8
BLACK
6
CONTINUOUS
10
273.73
20
-142.596
11
273.73
21
-141.537
0
LINE
8
BLACK
6
CONTINUOUS
10
273.73
20
-141.537
11
272.671
21
-141.537
0
LINE
8
BLACK
6
CONTINUOUS
10
272.671
20
-141.537
11
272.671
21
-142.596
0
LINE
8
BLACK
6
CONTINUOUS
10
272.671
20
-142.596
11
273.73
21
-142.596
0
LINE
8
BLACK
6
CONTINUOUS
10
274.185
20
-83.5962
11
274.185
21
-82.5365
0
LINE
8
BLACK
6
CONTINUOUS
10
274.185
20
-82.5365
11
273.126
21
-82.5365
0
LINE
8
BLACK
6
CONTINUOUS
10
273.126
20
-82.5365
11
273.126
21
-83.5962
0
LINE
8
BLACK
6
CONTINUOUS
10
273.126
20
-83.5962
11
274.185
21
-83.5962
0
LINE
8
BLACK
6
CONTINUOUS
10
274.185
20
-102.596
11
274.185
21
-101.537
0
LINE
8
BLACK
6
CONTINUOUS
10
274.185
20
-101.537
11
273.126
21
-101.537
0
LINE
8
BLACK
6
CONTINUOUS
10
273.126
20
-101.537
11
273.126
21
-102.596
0
LINE
8
BLACK
6
CONTINUOUS
10
273.126
20
-102.596
11
274.185
21
-102.596
0
LINE
8
BLACK
6
CONTINUOUS
10
274.185
20
-121.596
11
274.185
21
-120.537
0
LINE
8
BLACK
6
CONTINUOUS
10
274.185
20
-120.537
11
273.126
21
-120.537
0
LINE
8
BLACK
6
CONTINUOUS
10
273.126
20
-120.537
11
273.126
21
-121.596
0
LINE
8
BLACK
6
CONTINUOUS
10
273.126
20
-121.596
11
274.185
21
-121.596
0
LINE
8
BLACK
6
CONTINUOUS
10
275.455
20
-81.0562
11
275.455
21
-79.9965
0
LINE
8
BLACK
6
CONTINUOUS
10
275.455
20
-79.9965
11
274.396
21
-79.9965
0
LINE
8
BLACK
6
CONTINUOUS
10
274.396
20
-79.9965
11
274.396
21
-81.0562
0
LINE
8
BLACK
6
CONTINUOUS
10
274.396
20
-81.0562
11
275.455
21
-81.0562
0
LINE
8
BLACK
6
CONTINUOUS
10
275.455
20
-100.056
11
275.455
21
-98.9965
0
LINE
8
BLACK
6
CONTINUOUS
10
275.455
20
-98.9965
11
274.396
21
-98.9965
0
LINE
8
BLACK
6
CONTINUOUS
10
274.396
20
-98.9965
11
274.396
21
-100.056
0
LINE
8
BLACK
6
CONTINUOUS
10
274.396
20
-100.056
11
275.455
21
-100.056
0
LINE
8
BLACK
6
CONTINUOUS
10
275.455
20
-119.056
11
275.455
21
-117.997
0
LINE
8
BLACK
6
CONTINUOUS
10
275.455
20
-117.997
11
274.396
21
-117.997
0
LINE
8
BLACK
6
CONTINUOUS
10
274.396
20
-117.997
11
274.396
21
-119.056
0
LINE
8
BLACK
6
CONTINUOUS
10
274.396
20
-119.056
11
275.455
21
-119.056
0
LINE
8
BLACK
6
CONTINUOUS
10
278.81
20
-142.596
11
278.81
21
-141.537
0
LINE
8
BLACK
6
CONTINUOUS
10
278.81
20
-141.537
11
277.751
21
-141.537
0
LINE
8
BLACK
6
CONTINUOUS
10
277.751
20
-141.537
11
277.751
21
-142.596
0
LINE
8
BLACK
6
CONTINUOUS
10
277.751
20
-142.596
11
278.81
21
-142.596
0
LINE
8
BLACK
6
CONTINUOUS
10
280.08
20
-140.056
11
280.08
21
-138.997
0
LINE
8
BLACK
6
CONTINUOUS
10
280.08
20
-138.997
11
279.021
21
-138.997
0
LINE
8
BLACK
6
CONTINUOUS
10
279.021
20
-138.997
11
279.021
21
-140.056
0
LINE
8
BLACK
6
CONTINUOUS
10
279.021
20
-140.056
11
280.08
21
-140.056
0
LINE
8
BLACK
6
CONTINUOUS
10
287.235
20
-92.4562
11
287.235
21
-91.3965
0
LINE
8
BLACK
6
CONTINUOUS
10
287.235
20
-91.3965
11
286.176
21
-91.3965
0
LINE
8
BLACK
6
CONTINUOUS
10
286.176
20
-91.3965
11
286.176
21
-92.4562
0
LINE
8
BLACK
6
CONTINUOUS
10
286.176
20
-92.4562
11
287.235
21
-92.4562
0
LINE
8
BLACK
6
CONTINUOUS
10
287.235
20
-111.456
11
287.235
21
-110.397
0
LINE
8
BLACK
6
CONTINUOUS
10
287.235
20
-110.397
11
286.176
21
-110.397
0
LINE
8
BLACK
6
CONTINUOUS
10
286.176
20
-110.397
11
286.176
21
-111.456
0
LINE
8
BLACK
6
CONTINUOUS
10
286.176
20
-111.456
11
287.235
21
-111.456
0
LINE
8
BLACK
6
CONTINUOUS
10
288.505
20
-94.9962
11
288.505
21
-93.9365
0
LINE
8
BLACK
6
CONTINUOUS
10
288.505
20
-93.9365
11
287.446
21
-93.9365
0
LINE
8
BLACK
6
CONTINUOUS
10
287.446
20
-93.9365
11
287.446
21
-94.9962
0
LINE
8
BLACK
6
CONTINUOUS
10
287.446
20
-94.9962
11
288.505
21
-94.9962
0
LINE
8
BLACK
6
CONTINUOUS
10
288.505
20
-113.996
11
288.505
21
-112.937
0
LINE
8
BLACK
6
CONTINUOUS
10
288.505
20
-112.937
11
287.446
21
-112.937
0
LINE
8
BLACK
6
CONTINUOUS
10
287.446
20
-112.937
11
287.446
21
-113.996
0
LINE
8
BLACK
6
CONTINUOUS
10
287.446
20
-113.996
11
288.505
21
-113.996
0
LINE
8
BLACK
6
CONTINUOUS
10
291.86
20
-141.766
11
291.86
21
-140.707
0
LINE
8
BLACK
6
CONTINUOUS
10
291.86
20
-140.707
11
290.801
21
-140.707
0
LINE
8
BLACK
6
CONTINUOUS
10
290.801
20
-140.707
11
290.801
21
-141.766
0
LINE
8
BLACK
6
CONTINUOUS
10
290.801
20
-141.766
11
291.86
21
-141.766
0
LINE
8
BLACK
6
CONTINUOUS
10
293.13
20
-144.306
11
293.13
21
-143.247
0
LINE
8
BLACK
6
CONTINUOUS
10
293.13
20
-143.247
11
292.071
21
-143.247
0
LINE
8
BLACK
6
CONTINUOUS
10
292.071
20
-143.247
11
292.071
21
-144.306
0
LINE
8
BLACK
6
CONTINUOUS
10
292.071
20
-144.306
11
293.13
21
-144.306
0
LINE
8
BLACK
6
CONTINUOUS
10
293.585
20
-94.9962
11
293.585
21
-93.9365
0
LINE
8
BLACK
6
CONTINUOUS
10
293.585
20
-93.9365
11
292.526
21
-93.9365
0
LINE
8
BLACK
6
CONTINUOUS
10
292.526
20
-93.9365
11
292.526
21
-94.9962
0
LINE
8
BLACK
6
CONTINUOUS
10
292.526
20
-94.9962
11
293.585
21
-94.9962
0
LINE
8
BLACK
6
CONTINUOUS
10
293.585
20
-113.996
11
293.585
21
-112.937
0
LINE
8
BLACK
6
CONTINUOUS
10
293.585
20
-112.937
11
292.526
21
-112.937
0
LINE
8
BLACK
6
CONTINUOUS
10
292.526
20
-112.937
11
292.526
21
-113.996
0
LINE
8
BLACK
6
CONTINUOUS
10
292.526
20
-113.996
11
293.585
21
-113.996
0
LINE
8
BLACK
6
CONTINUOUS
10
294.855
20
-92.4562
11
294.855
21
-91.3965
0
LINE
8
BLACK
6
CONTINUOUS
10
294.855
20
-91.3965
11
293.796
21
-91.3965
0
LINE
8
BLACK
6
CONTINUOUS
10
293.796
20
-91.3965
11
293.796
21
-92.4562
0
LINE
8
BLACK
6
CONTINUOUS
10
293.796
20
-92.4562
11
294.855
21
-92.4562
0
LINE
8
BLACK
6
CONTINUOUS
10
294.855
20
-111.456
11
294.855
21
-110.397
0
LINE
8
BLACK
6
CONTINUOUS
10
294.855
20
-110.397
11
293.796
21
-110.397
0
LINE
8
BLACK
6
CONTINUOUS
10
293.796
20
-110.397
11
293.796
21
-111.456
0
LINE
8
BLACK
6
CONTINUOUS
10
293.796
20
-111.456
11
294.855
21
-111.456
0
LINE
8
BLACK
6
CONTINUOUS
10
298.21
20
-144.306
11
298.21
21
-143.247
0
LINE
8
BLACK
6
CONTINUOUS
10
298.21
20
-143.247
11
297.151
21
-143.247
0
LINE
8
BLACK
6
CONTINUOUS
10
297.151
20
-143.247
11
297.151
21
-144.306
0
LINE
8
BLACK
6
CONTINUOUS
10
297.151
20
-144.306
11
298.21
21
-144.306
0
LINE
8
BLACK
6
CONTINUOUS
10
299.48
20
-141.766
11
299.48
21
-140.707
0
LINE
8
BLACK
6
CONTINUOUS
10
299.48
20
-140.707
11
298.421
21
-140.707
0
LINE
8
BLACK
6
CONTINUOUS
10
298.421
20
-140.707
11
298.421
21
-141.766
0
LINE
8
BLACK
6
CONTINUOUS
10
298.421
20
-141.766
11
299.48
21
-141.766
0
LINE
8
BLACK
6
CONTINUOUS
10
240.078
20
-96.6525
11
241.178
21
-95.5525
0
LINE
8
BLACK
6
CONTINUOUS
10
241.178
20
-95.5525
11
240.078
21
-94.4525
0
LINE
8
BLACK
6
CONTINUOUS
10
240.078
20
-94.4525
11
238.978
21
-95.5525
0
LINE
8
BLACK
6
CONTINUOUS
10
238.978
20
-95.5525
11
240.078
21
-96.6525
0
LINE
8
BLACK
6
CONTINUOUS
10
255.914
20
-118.448
11
257.014
21
-117.348
0
LINE
8
BLACK
6
CONTINUOUS
10
257.014
20
-117.348
11
255.914
21
-116.248
0
LINE
8
BLACK
6
CONTINUOUS
10
255.914
20
-116.248
11
254.814
21
-117.348
0
LINE
8
BLACK
6
CONTINUOUS
10
254.814
20
-117.348
11
255.914
21
-118.448
0
LINE
8
BLACK
6
CONTINUOUS
10
261.874
20
-80.8171
11
262.974
21
-79.7171
0
LINE
8
BLACK
6
CONTINUOUS
10
262.974
20
-79.7171
11
261.874
21
-78.6171
0
LINE
8
BLACK
6
CONTINUOUS
10
261.874
20
-78.6171
11
260.774
21
-79.7171
0
LINE
8
BLACK
6
CONTINUOUS
10
260.774
20
-79.7171
11
261.874
21
-80.8171
0
LINE
8
BLACK
6
CONTINUOUS
10
199.16
20
-122.96
11
202.16
21
-125.96
0
LINE
8
BLACK
6
CONTINUOUS
10
202.16
20
-122.96
11
199.16
21
-125.96
0
CIRCLE
8
BLACK
10
200.66
20
-124.46
40
1.5
0
LINE
8
BLACK
6
CONTINUOUS
10
215.416
20
-60.984
11
218.416
21
-63.984
0
LINE
8
BLACK
6
CONTINUOUS
10
218.416
20
-60.984
11
215.416
21
-63.984
0
CIRCLE
8
BLACK
10
216.916
20
-62.484
40
1.5
0
LINE
8
BLACK
6
CONTINUOUS
10
296.188
20
-60.984
11
299.188
21
-63.984
0
LINE
8
BLACK
6
CONTINUOUS
10
299.188
20
-60.984
11
296.188
21
-63.984
0
CIRCLE
8
BLACK
10
297.688
20
-62.484
40
1.5
0
LINE
8
BLACK
6
CONTINUOUS
10
296.696
20
-123.214
11
299.696
21
-126.214
0
LINE
8
BLACK
6
CONTINUOUS
10
299.696
20
-123.214
11
296.696
21
-126.214
0
CIRCLE
8
BLACK
10
298.196
20
-124.714
40
1.5
0
LINE
8
BLACK
6
CONTINUOUS
10
197.304
20
-150.376
11
197.304
21
-148.376
0
LINE
8
BLACK
6
CONTINUOUS
10
197.304
20
-148.376
11
197.781
21
-148.376
0
LINE
8
BLACK
6
CONTINUOUS
10
197.781
20
-148.376
11
198.066
21
-148.471
0
LINE
8
BLACK
6
CONTINUOUS
10
198.066
20
-148.471
11
198.257
21
-148.662
0
LINE
8
BLACK
6
CONTINUOUS
10
198.257
20
-148.662
11
198.352
21
-148.852
0
LINE
8
BLACK
6
CONTINUOUS
10
198.352
20
-148.852
11
198.447
21
-149.233
0
LINE
8
BLACK
6
CONTINUOUS
10
198.447
20
-149.233
11
198.447
21
-149.519
0
LINE
8
BLACK
6
CONTINUOUS
10
198.447
20
-149.519
11
198.352
21
-149.9
0
LINE
8
BLACK
6
CONTINUOUS
10
198.352
20
-149.9
11
198.257
21
-150.09
0
LINE
8
BLACK
6
CONTINUOUS
10
198.257
20
-150.09
11
198.066
21
-150.281
0
LINE
8
BLACK
6
CONTINUOUS
10
198.066
20
-150.281
11
197.781
21
-150.376
0
LINE
8
BLACK
6
CONTINUOUS
10
197.781
20
-150.376
11
197.304
21
-150.376
0
LINE
8
BLACK
6
CONTINUOUS
10
199.304
20
-150.376
11
199.304
21
-149.043
0
LINE
8
BLACK
6
CONTINUOUS
10
199.304
20
-149.424
11
199.4
21
-149.233
0
LINE
8
BLACK
6
CONTINUOUS
10
199.4
20
-149.233
11
199.495
21
-149.138
0
LINE
8
BLACK
6
CONTINUOUS
10
199.495
20
-149.138
11
199.685
21
-149.043
0
LINE
8
BLACK
6
CONTINUOUS
10
199.685
20
-149.043
11
199.876
21
-149.043
0
LINE
8
BLACK
6
CONTINUOUS
10
200.542
20
-150.376
11
200.542
21
-149.043
0
LINE
8
BLACK
6
CONTINUOUS
10
200.542
20
-148.376
11
200.447
21
-148.471
0
LINE
8
BLACK
6
CONTINUOUS
10
200.447
20
-148.471
11
200.542
21
-148.567
0
LINE
8
BLACK
6
CONTINUOUS
10
200.542
20
-148.567
11
200.638
21
-148.471
0
LINE
8
BLACK
6
CONTINUOUS
10
200.638
20
-148.471
11
200.542
21
-148.376
0
LINE
8
BLACK
6
CONTINUOUS
10
200.542
20
-148.376
11
200.542
21
-148.567
0
LINE
8
BLACK
6
CONTINUOUS
10
201.781
20
-150.376
11
201.59
21
-150.281
0
LINE
8
BLACK
6
CONTINUOUS
10
201.59
20
-150.281
11
201.495
21
-150.09
0
LINE
8
BLACK
6
CONTINUOUS
10
201.495
20
-150.09
11
201.495
21
-148.376
0
LINE
8
BLACK
6
CONTINUOUS
10
202.828
20
-150.376
11
202.638
21
-150.281
0
LINE
8
BLACK
6
CONTINUOUS
10
202.638
20
-150.281
11
202.542
21
-150.09
0
LINE
8
BLACK
6
CONTINUOUS
10
202.542
20
-150.09
11
202.542
21
-148.376
0
LINE
8
BLACK
6
CONTINUOUS
10
205.114
20
-150.376
11
205.114
21
-148.376
0
LINE
8
BLACK
6
CONTINUOUS
10
205.114
20
-148.376
11
205.781
21
-149.805
0
LINE
8
BLACK
6
CONTINUOUS
10
205.781
20
-149.805
11
206.447
21
-148.376
0
LINE
8
BLACK
6
CONTINUOUS
10
206.447
20
-148.376
11
206.447
21
-150.376
0
LINE
8
BLACK
6
CONTINUOUS
10
208.257
20
-150.376
11
208.257
21
-149.329
0
LINE
8
BLACK
6
CONTINUOUS
10
208.257
20
-149.329
11
208.162
21
-149.138
0
LINE
8
BLACK
6
CONTINUOUS
10
208.162
20
-149.138
11
207.971
21
-149.043
0
LINE
8
BLACK
6
CONTINUOUS
10
207.971
20
-149.043
11
207.59
21
-149.043
0
LINE
8
BLACK
6
CONTINUOUS
10
207.59
20
-149.043
11
207.4
21
-149.138
0
LINE
8
BLACK
6
CONTINUOUS
10
208.257
20
-150.281
11
208.066
21
-150.376
0
LINE
8
BLACK
6
CONTINUOUS
10
208.066
20
-150.376
11
207.59
21
-150.376
0
LINE
8
BLACK
6
CONTINUOUS
10
207.59
20
-150.376
11
207.4
21
-150.281
0
LINE
8
BLACK
6
CONTINUOUS
10
207.4
20
-150.281
11
207.304
21
-150.09
0
LINE
8
BLACK
6
CONTINUOUS
10
207.304
20
-150.09
11
207.304
21
-149.9
0
LINE
8
BLACK
6
CONTINUOUS
10
207.304
20
-149.9
11
207.4
21
-149.709
0
LINE
8
BLACK
6
CONTINUOUS
10
207.4
20
-149.709
11
207.59
21
-149.614
0
LINE
8
BLACK
6
CONTINUOUS
10
207.59
20
-149.614
11
208.066
21
-149.614
0
LINE
8
BLACK
6
CONTINUOUS
10
208.066
20
-149.614
11
208.257
21
-149.519
0
LINE
8
BLACK
6
CONTINUOUS
10
209.209
20
-149.043
11
209.209
21
-151.043
0
LINE
8
BLACK
6
CONTINUOUS
10
209.209
20
-149.138
11
209.4
21
-149.043
0
LINE
8
BLACK
6
CONTINUOUS
10
209.4
20
-149.043
11
209.781
21
-149.043
0
LINE
8
BLACK
6
CONTINUOUS
10
209.781
20
-149.043
11
209.971
21
-149.138
0
LINE
8
BLACK
6
CONTINUOUS
10
209.971
20
-149.138
11
210.066
21
-149.233
0
LINE
8
BLACK
6
CONTINUOUS
10
210.066
20
-149.233
11
210.162
21
-149.424
0
LINE
8
BLACK
6
CONTINUOUS
10
210.162
20
-149.424
11
210.162
21
-149.995
0
LINE
8
BLACK
6
CONTINUOUS
10
210.162
20
-149.995
11
210.066
21
-150.186
0
LINE
8
BLACK
6
CONTINUOUS
10
210.066
20
-150.186
11
209.971
21
-150.281
0
LINE
8
BLACK
6
CONTINUOUS
10
209.971
20
-150.281
11
209.781
21
-150.376
0
LINE
8
BLACK
6
CONTINUOUS
10
209.781
20
-150.376
11
209.4
21
-150.376
0
LINE
8
BLACK
6
CONTINUOUS
10
209.4
20
-150.376
11
209.209
21
-150.281
0
LINE
8
BLACK
6
CONTINUOUS
10
211.019
20
-150.186
11
211.114
21
-150.281
0
LINE
8
BLACK
6
CONTINUOUS
10
211.114
20
-150.281
11
211.019
21
-150.376
0
LINE
8
BLACK
6
CONTINUOUS
10
211.019
20
-150.376
11
210.923
21
-150.281
0
LINE
8
BLACK
6
CONTINUOUS
10
210.923
20
-150.281
11
211.019
21
-150.186
0
LINE
8
BLACK
6
CONTINUOUS
10
211.019
20
-150.186
11
211.019
21
-150.376
0
LINE
8
BLACK
6
CONTINUOUS
10
211.019
20
-149.138
11
211.114
21
-149.233
0
LINE
8
BLACK
6
CONTINUOUS
10
211.114
20
-149.233
11
211.019
21
-149.329
0
LINE
8
BLACK
6
CONTINUOUS
10
211.019
20
-149.329
11
210.923
21
-149.233
0
LINE
8
BLACK
6
CONTINUOUS
10
210.923
20
-149.233
11
211.019
21
-149.138
0
LINE
8
BLACK
6
CONTINUOUS
10
211.019
20
-149.138
11
211.019
21
-149.329
0
LINE
8
BLACK
6
CONTINUOUS
10
194.328
20
-153.471
11
194.728
21
-153.871
0
LINE
8
BLACK
6
CONTINUOUS
10
194.728
20
-153.471
11
194.328
21
-153.871
0
LINE
8
BLACK
6
CONTINUOUS
10
197.685
20
-152.576
11
197.876
21
-152.576
0
LINE
8
BLACK
6
CONTINUOUS
10
197.876
20
-152.576
11
198.066
21
-152.671
0
LINE
8
BLACK
6
CONTINUOUS
10
198.066
20
-152.671
11
198.162
21
-152.767
0
LINE
8
BLACK
6
CONTINUOUS
10
198.162
20
-152.767
11
198.257
21
-152.957
0
LINE
8
BLACK
6
CONTINUOUS
10
198.257
20
-152.957
11
198.352
21
-153.338
0
LINE
8
BLACK
6
CONTINUOUS
10
198.352
20
-153.338
11
198.352
21
-153.814
0
LINE
8
BLACK
6
CONTINUOUS
10
198.352
20
-153.814
11
198.257
21
-154.195
0
LINE
8
BLACK
6
CONTINUOUS
10
198.257
20
-154.195
11
198.162
21
-154.386
0
LINE
8
BLACK
6
CONTINUOUS
10
198.162
20
-154.386
11
198.066
21
-154.481
0
LINE
8
BLACK
6
CONTINUOUS
10
198.066
20
-154.481
11
197.876
21
-154.576
0
LINE
8
BLACK
6
CONTINUOUS
10
197.876
20
-154.576
11
197.685
21
-154.576
0
LINE
8
BLACK
6
CONTINUOUS
10
197.685
20
-154.576
11
197.495
21
-154.481
0
LINE
8
BLACK
6
CONTINUOUS
10
197.495
20
-154.481
11
197.4
21
-154.386
0
LINE
8
BLACK
6
CONTINUOUS
10
197.4
20
-154.386
11
197.304
21
-154.195
0
LINE
8
BLACK
6
CONTINUOUS
10
197.304
20
-154.195
11
197.209
21
-153.814
0
LINE
8
BLACK
6
CONTINUOUS
10
197.209
20
-153.814
11
197.209
21
-153.338
0
LINE
8
BLACK
6
CONTINUOUS
10
197.209
20
-153.338
11
197.304
21
-152.957
0
LINE
8
BLACK
6
CONTINUOUS
10
197.304
20
-152.957
11
197.4
21
-152.767
0
LINE
8
BLACK
6
CONTINUOUS
10
197.4
20
-152.767
11
197.495
21
-152.671
0
LINE
8
BLACK
6
CONTINUOUS
10
197.495
20
-152.671
11
197.685
21
-152.576
0
LINE
8
BLACK
6
CONTINUOUS
10
199.209
20
-154.386
11
199.304
21
-154.481
0
LINE
8
BLACK
6
CONTINUOUS
10
199.304
20
-154.481
11
199.209
21
-154.576
0
LINE
8
BLACK
6
CONTINUOUS
10
199.209
20
-154.576
11
199.114
21
-154.481
0
LINE
8
BLACK
6
CONTINUOUS
10
199.114
20
-154.481
11
199.209
21
-154.386
0
LINE
8
BLACK
6
CONTINUOUS
10
199.209
20
-154.386
11
199.209
21
-154.576
0
LINE
8
BLACK
6
CONTINUOUS
10
201.019
20
-153.243
11
201.019
21
-154.576
0
LINE
8
BLACK
6
CONTINUOUS
10
200.542
20
-152.481
11
200.066
21
-153.909
0
LINE
8
BLACK
6
CONTINUOUS
10
200.066
20
-153.909
11
201.304
21
-153.909
0
LINE
8
BLACK
6
CONTINUOUS
10
202.447
20
-152.576
11
202.638
21
-152.576
0
LINE
8
BLACK
6
CONTINUOUS
10
202.638
20
-152.576
11
202.828
21
-152.671
0
LINE
8
BLACK
6
CONTINUOUS
10
202.828
20
-152.671
11
202.923
21
-152.767
0
LINE
8
BLACK
6
CONTINUOUS
10
202.923
20
-152.767
11
203.019
21
-152.957
0
LINE
8
BLACK
6
CONTINUOUS
10
203.019
20
-152.957
11
203.114
21
-153.338
0
LINE
8
BLACK
6
CONTINUOUS
10
203.114
20
-153.338
11
203.114
21
-153.814
0
LINE
8
BLACK
6
CONTINUOUS
10
203.114
20
-153.814
11
203.019
21
-154.195
0
LINE
8
BLACK
6
CONTINUOUS
10
203.019
20
-154.195
11
202.923
21
-154.386
0
LINE
8
BLACK
6
CONTINUOUS
10
202.923
20
-154.386
11
202.828
21
-154.481
0
LINE
8
BLACK
6
CONTINUOUS
10
202.828
20
-154.481
11
202.638
21
-154.576
0
LINE
8
BLACK
6
CONTINUOUS
10
202.638
20
-154.576
11
202.447
21
-154.576
0
LINE
8
BLACK
6
CONTINUOUS
10
202.447
20
-154.576
11
202.257
21
-154.481
0
LINE
8
BLACK
6
CONTINUOUS
10
202.257
20
-154.481
11
202.162
21
-154.386
0
LINE
8
BLACK
6
CONTINUOUS
10
202.162
20
-154.386
11
202.066
21
-154.195
0
LINE
8
BLACK
6
CONTINUOUS
10
202.066
20
-154.195
11
201.971
21
-153.814
0
LINE
8
BLACK
6
CONTINUOUS
10
201.971
20
-153.814
11
201.971
21
-153.338
0
LINE
8
BLACK
6
CONTINUOUS
10
201.971
20
-153.338
11
202.066
21
-152.957
0
LINE
8
BLACK
6
CONTINUOUS
10
202.066
20
-152.957
11
202.162
21
-152.767
0
LINE
8
BLACK
6
CONTINUOUS
10
202.162
20
-152.767
11
202.257
21
-152.671
0
LINE
8
BLACK
6
CONTINUOUS
10
202.257
20
-152.671
11
202.447
21
-152.576
0
LINE
8
BLACK
6
CONTINUOUS
10
204.352
20
-152.576
11
204.542
21
-152.576
0
LINE
8
BLACK
6
CONTINUOUS
10
204.542
20
-152.576
11
204.733
21
-152.671
0
LINE
8
BLACK
6
CONTINUOUS
10
204.733
20
-152.671
11
204.828
21
-152.767
0
LINE
8
BLACK
6
CONTINUOUS
10
204.828
20
-152.767
11
204.923
21
-152.957
0
LINE
8
BLACK
6
CONTINUOUS
10
204.923
20
-152.957
11
205.019
21
-153.338
0
LINE
8
BLACK
6
CONTINUOUS
10
205.019
20
-153.338
11
205.019
21
-153.814
0
LINE
8
BLACK
6
CONTINUOUS
10
205.019
20
-153.814
11
204.923
21
-154.195
0
LINE
8
BLACK
6
CONTINUOUS
10
204.923
20
-154.195
11
204.828
21
-154.386
0
LINE
8
BLACK
6
CONTINUOUS
10
204.828
20
-154.386
11
204.733
21
-154.481
0
LINE
8
BLACK
6
CONTINUOUS
10
204.733
20
-154.481
11
204.542
21
-154.576
0
LINE
8
BLACK
6
CONTINUOUS
10
204.542
20
-154.576
11
204.352
21
-154.576
0
LINE
8
BLACK
6
CONTINUOUS
10
204.352
20
-154.576
11
204.162
21
-154.481
0
LINE
8
BLACK
6
CONTINUOUS
10
204.162
20
-154.481
11
204.066
21
-154.386
0
LINE
8
BLACK
6
CONTINUOUS
10
204.066
20
-154.386
11
203.971
21
-154.195
0
LINE
8
BLACK
6
CONTINUOUS
10
203.971
20
-154.195
11
203.876
21
-153.814
0
LINE
8
BLACK
6
CONTINUOUS
10
203.876
20
-153.814
11
203.876
21
-153.338
0
LINE
8
BLACK
6
CONTINUOUS
10
203.876
20
-153.338
11
203.971
21
-152.957
0
LINE
8
BLACK
6
CONTINUOUS
10
203.971
20
-152.957
11
204.066
21
-152.767
0
LINE
8
BLACK
6
CONTINUOUS
10
204.066
20
-152.767
11
204.162
21
-152.671
0
LINE
8
BLACK
6
CONTINUOUS
10
204.162
20
-152.671
11
204.352
21
-152.576
0
LINE
8
BLACK
6
CONTINUOUS
10
205.876
20
-154.576
11
205.876
21
-153.243
0
LINE
8
BLACK
6
CONTINUOUS
10
205.876
20
-153.433
11
205.971
21
-153.338
0
LINE
8
BLACK
6
CONTINUOUS
10
205.971
20
-153.338
11
206.162
21
-153.243
0
LINE
8
BLACK
6
CONTINUOUS
10
206.162
20
-153.243
11
206.447
21
-153.243
0
LINE
8
BLACK
6
CONTINUOUS
10
206.447
20
-153.243
11
206.638
21
-153.338
0
LINE
8
BLACK
6
CONTINUOUS
10
206.638
20
-153.338
11
206.733
21
-153.529
0
LINE
8
BLACK
6
CONTINUOUS
10
206.733
20
-153.529
11
206.733
21
-154.576
0
LINE
8
BLACK
6
CONTINUOUS
10
206.733
20
-153.529
11
206.828
21
-153.338
0
LINE
8
BLACK
6
CONTINUOUS
10
206.828
20
-153.338
11
207.019
21
-153.243
0
LINE
8
BLACK
6
CONTINUOUS
10
207.019
20
-153.243
11
207.304
21
-153.243
0
LINE
8
BLACK
6
CONTINUOUS
10
207.304
20
-153.243
11
207.495
21
-153.338
0
LINE
8
BLACK
6
CONTINUOUS
10
207.495
20
-153.338
11
207.59
21
-153.529
0
LINE
8
BLACK
6
CONTINUOUS
10
207.59
20
-153.529
11
207.59
21
-154.576
0
LINE
8
BLACK
6
CONTINUOUS
10
208.542
20
-154.576
11
208.542
21
-153.243
0
LINE
8
BLACK
6
CONTINUOUS
10
208.542
20
-153.433
11
208.638
21
-153.338
0
LINE
8
BLACK
6
CONTINUOUS
10
208.638
20
-153.338
11
208.828
21
-153.243
0
LINE
8
BLACK
6
CONTINUOUS
10
208.828
20
-153.243
11
209.114
21
-153.243
0
LINE
8
BLACK
6
CONTINUOUS
10
209.114
20
-153.243
11
209.304
21
-153.338
0
LINE
8
BLACK
6
CONTINUOUS
10
209.304
20
-153.338
11
209.4
21
-153.529
0
LINE
8
BLACK
6
CONTINUOUS
10
209.4
20
-153.529
11
209.4
21
-154.576
0
LINE
8
BLACK
6
CONTINUOUS
10
209.4
20
-153.529
11
209.495
21
-153.338
0
LINE
8
BLACK
6
CONTINUOUS
10
209.495
20
-153.338
11
209.685
21
-153.243
0
LINE
8
BLACK
6
CONTINUOUS
10
209.685
20
-153.243
11
209.971
21
-153.243
0
LINE
8
BLACK
6
CONTINUOUS
10
209.971
20
-153.243
11
210.162
21
-153.338
0
LINE
8
BLACK
6
CONTINUOUS
10
210.162
20
-153.338
11
210.257
21
-153.529
0
LINE
8
BLACK
6
CONTINUOUS
10
210.257
20
-153.529
11
210.257
21
-154.576
0
LINE
8
BLACK
6
CONTINUOUS
10
214.162
20
-152.481
11
212.447
21
-155.052
0
LINE
8
BLACK
6
CONTINUOUS
10
216.733
20
-152.576
11
216.923
21
-152.576
0
LINE
8
BLACK
6
CONTINUOUS
10
216.923
20
-152.576
11
217.114
21
-152.671
0
LINE
8
BLACK
6
CONTINUOUS
10
217.114
20
-152.671
11
217.209
21
-152.767
0
LINE
8
BLACK
6
CONTINUOUS
10
217.209
20
-152.767
11
217.304
21
-152.957
0
LINE
8
BLACK
6
CONTINUOUS
10
217.304
20
-152.957
11
217.4
21
-153.338
0
LINE
8
BLACK
6
CONTINUOUS
10
217.4
20
-153.338
11
217.4
21
-153.814
0
LINE
8
BLACK
6
CONTINUOUS
10
217.4
20
-153.814
11
217.304
21
-154.195
0
LINE
8
BLACK
6
CONTINUOUS
10
217.304
20
-154.195
11
217.209
21
-154.386
0
LINE
8
BLACK
6
CONTINUOUS
10
217.209
20
-154.386
11
217.114
21
-154.481
0
LINE
8
BLACK
6
CONTINUOUS
10
217.114
20
-154.481
11
216.923
21
-154.576
0
LINE
8
BLACK
6
CONTINUOUS
10
216.923
20
-154.576
11
216.733
21
-154.576
0
LINE
8
BLACK
6
CONTINUOUS
10
216.733
20
-154.576
11
216.542
21
-154.481
0
LINE
8
BLACK
6
CONTINUOUS
10
216.542
20
-154.481
11
216.447
21
-154.386
0
LINE
8
BLACK
6
CONTINUOUS
10
216.447
20
-154.386
11
216.352
21
-154.195
0
LINE
8
BLACK
6
CONTINUOUS
10
216.352
20
-154.195
11
216.257
21
-153.814
0
LINE
8
BLACK
6
CONTINUOUS
10
216.257
20
-153.814
11
216.257
21
-153.338
0
LINE
8
BLACK
6
CONTINUOUS
10
216.257
20
-153.338
11
216.352
21
-152.957
0
LINE
8
BLACK
6
CONTINUOUS
10
216.352
20
-152.957
11
216.447
21
-152.767
0
LINE
8
BLACK
6
CONTINUOUS
10
216.447
20
-152.767
11
216.542
21
-152.671
0
LINE
8
BLACK
6
CONTINUOUS
10
216.542
20
-152.671
11
216.733
21
-152.576
0
LINE
8
BLACK
6
CONTINUOUS
10
218.257
20
-154.386
11
218.352
21
-154.481
0
LINE
8
BLACK
6
CONTINUOUS
10
218.352
20
-154.481
11
218.257
21
-154.576
0
LINE
8
BLACK
6
CONTINUOUS
10
218.257
20
-154.576
11
218.162
21
-154.481
0
LINE
8
BLACK
6
CONTINUOUS
10
218.162
20
-154.481
11
218.257
21
-154.386
0
LINE
8
BLACK
6
CONTINUOUS
10
218.257
20
-154.386
11
218.257
21
-154.576
0
LINE
8
BLACK
6
CONTINUOUS
10
219.59
20
-152.576
11
219.781
21
-152.576
0
LINE
8
BLACK
6
CONTINUOUS
10
219.781
20
-152.576
11
219.971
21
-152.671
0
LINE
8
BLACK
6
CONTINUOUS
10
219.971
20
-152.671
11
220.066
21
-152.767
0
LINE
8
BLACK
6
CONTINUOUS
10
220.066
20
-152.767
11
220.162
21
-152.957
0
LINE
8
BLACK
6
CONTINUOUS
10
220.162
20
-152.957
11
220.257
21
-153.338
0
LINE
8
BLACK
6
CONTINUOUS
10
220.257
20
-153.338
11
220.257
21
-153.814
0
LINE
8
BLACK
6
CONTINUOUS
10
220.257
20
-153.814
11
220.162
21
-154.195
0
LINE
8
BLACK
6
CONTINUOUS
10
220.162
20
-154.195
11
220.066
21
-154.386
0
LINE
8
BLACK
6
CONTINUOUS
10
220.066
20
-154.386
11
219.971
21
-154.481
0
LINE
8
BLACK
6
CONTINUOUS
10
219.971
20
-154.481
11
219.781
21
-154.576
0
LINE
8
BLACK
6
CONTINUOUS
10
219.781
20
-154.576
11
219.59
21
-154.576
0
LINE
8
BLACK
6
CONTINUOUS
10
219.59
20
-154.576
11
219.4
21
-154.481
0
LINE
8
BLACK
6
CONTINUOUS
10
219.4
20
-154.481
11
219.304
21
-154.386
0
LINE
8
BLACK
6
CONTINUOUS
10
219.304
20
-154.386
11
219.209
21
-154.195
0
LINE
8
BLACK
6
CONTINUOUS
10
219.209
20
-154.195
11
219.114
21
-153.814
0
LINE
8
BLACK
6
CONTINUOUS
10
219.114
20
-153.814
11
219.114
21
-153.338
0
LINE
8
BLACK
6
CONTINUOUS
10
219.114
20
-153.338
11
219.209
21
-152.957
0
LINE
8
BLACK
6
CONTINUOUS
10
219.209
20
-152.957
11
219.304
21
-152.767
0
LINE
8
BLACK
6
CONTINUOUS
10
219.304
20
-152.767
11
219.4
21
-152.671
0
LINE
8
BLACK
6
CONTINUOUS
10
219.4
20
-152.671
11
219.59
21
-152.576
0
LINE
8
BLACK
6
CONTINUOUS
10
222.162
20
-154.576
11
221.019
21
-154.576
0
LINE
8
BLACK
6
CONTINUOUS
10
221.59
20
-154.576
11
221.59
21
-152.576
0
LINE
8
BLACK
6
CONTINUOUS
10
221.59
20
-152.576
11
221.4
21
-152.862
0
LINE
8
BLACK
6
CONTINUOUS
10
221.4
20
-152.862
11
221.209
21
-153.052
0
LINE
8
BLACK
6
CONTINUOUS
10
221.209
20
-153.052
11
221.019
21
-153.148
0
LINE
8
BLACK
6
CONTINUOUS
10
223.971
20
-152.576
11
223.019
21
-152.576
0
LINE
8
BLACK
6
CONTINUOUS
10
223.019
20
-152.576
11
222.923
21
-153.529
0
LINE
8
BLACK
6
CONTINUOUS
10
222.923
20
-153.529
11
223.019
21
-153.433
0
LINE
8
BLACK
6
CONTINUOUS
10
223.019
20
-153.433
11
223.209
21
-153.338
0
LINE
8
BLACK
6
CONTINUOUS
10
223.209
20
-153.338
11
223.685
21
-153.338
0
LINE
8
BLACK
6
CONTINUOUS
10
223.685
20
-153.338
11
223.876
21
-153.433
0
LINE
8
BLACK
6
CONTINUOUS
10
223.876
20
-153.433
11
223.971
21
-153.529
0
LINE
8
BLACK
6
CONTINUOUS
10
223.971
20
-153.529
11
224.066
21
-153.719
0
LINE
8
BLACK
6
CONTINUOUS
10
224.066
20
-153.719
11
224.066
21
-154.195
0
LINE
8
BLACK
6
CONTINUOUS
10
224.066
20
-154.195
11
223.971
21
-154.386
0
LINE
8
BLACK
6
CONTINUOUS
10
223.971
20
-154.386
11
223.876
21
-154.481
0
LINE
8
BLACK
6
CONTINUOUS
10
223.876
20
-154.481
11
223.685
21
-154.576
0
LINE
8
BLACK
6
CONTINUOUS
10
223.685
20
-154.576
11
223.209
21
-154.576
0
LINE
8
BLACK
6
CONTINUOUS
10
223.209
20
-154.576
11
223.019
21
-154.481
0
LINE
8
BLACK
6
CONTINUOUS
10
223.019
20
-154.481
11
222.923
21
-154.386
0
LINE
8
BLACK
6
CONTINUOUS
10
224.733
20
-152.576
11
226.066
21
-152.576
0
LINE
8
BLACK
6
CONTINUOUS
10
226.066
20
-152.576
11
225.209
21
-154.576
0
LINE
8
BLACK
6
CONTINUOUS
10
226.733
20
-152.576
11
226.733
21
-152.957
0
LINE
8
BLACK
6
CONTINUOUS
10
227.495
20
-152.576
11
227.495
21
-152.957
0
LINE
8
BLACK
6
CONTINUOUS
10
230.447
20
-155.338
11
230.352
21
-155.243
0
LINE
8
BLACK
6
CONTINUOUS
10
230.352
20
-155.243
11
230.162
21
-154.957
0
LINE
8
BLACK
6
CONTINUOUS
10
230.162
20
-154.957
11
230.066
21
-154.767
0
LINE
8
BLACK
6
CONTINUOUS
10
230.066
20
-154.767
11
229.971
21
-154.481
0
LINE
8
BLACK
6
CONTINUOUS
10
229.971
20
-154.481
11
229.876
21
-154.005
0
LINE
8
BLACK
6
CONTINUOUS
10
229.876
20
-154.005
11
229.876
21
-153.624
0
LINE
8
BLACK
6
CONTINUOUS
10
229.876
20
-153.624
11
229.971
21
-153.148
0
LINE
8
BLACK
6
CONTINUOUS
10
229.971
20
-153.148
11
230.066
21
-152.862
0
LINE
8
BLACK
6
CONTINUOUS
10
230.066
20
-152.862
11
230.162
21
-152.671
0
LINE
8
BLACK
6
CONTINUOUS
10
230.162
20
-152.671
11
230.352
21
-152.386
0
LINE
8
BLACK
6
CONTINUOUS
10
230.352
20
-152.386
11
230.447
21
-152.29
0
LINE
8
BLACK
6
CONTINUOUS
10
232.066
20
-153.243
11
232.066
21
-154.576
0
LINE
8
BLACK
6
CONTINUOUS
10
231.59
20
-152.481
11
231.114
21
-153.909
0
LINE
8
BLACK
6
CONTINUOUS
10
231.114
20
-153.909
11
232.352
21
-153.909
0
LINE
8
BLACK
6
CONTINUOUS
10
234.638
20
-154.576
11
234.638
21
-152.576
0
LINE
8
BLACK
6
CONTINUOUS
10
235.495
20
-154.576
11
235.495
21
-153.529
0
LINE
8
BLACK
6
CONTINUOUS
10
235.495
20
-153.529
11
235.4
21
-153.338
0
LINE
8
BLACK
6
CONTINUOUS
10
235.4
20
-153.338
11
235.209
21
-153.243
0
LINE
8
BLACK
6
CONTINUOUS
10
235.209
20
-153.243
11
234.923
21
-153.243
0
LINE
8
BLACK
6
CONTINUOUS
10
234.923
20
-153.243
11
234.733
21
-153.338
0
LINE
8
BLACK
6
CONTINUOUS
10
234.733
20
-153.338
11
234.638
21
-153.433
0
LINE
8
BLACK
6
CONTINUOUS
10
236.733
20
-154.576
11
236.542
21
-154.481
0
LINE
8
BLACK
6
CONTINUOUS
10
236.542
20
-154.481
11
236.447
21
-154.386
0
LINE
8
BLACK
6
CONTINUOUS
10
236.447
20
-154.386
11
236.352
21
-154.195
0
LINE
8
BLACK
6
CONTINUOUS
10
236.352
20
-154.195
11
236.352
21
-153.624
0
LINE
8
BLACK
6
CONTINUOUS
10
236.352
20
-153.624
11
236.447
21
-153.433
0
LINE
8
BLACK
6
CONTINUOUS
10
236.447
20
-153.433
11
236.542
21
-153.338
0
LINE
8
BLACK
6
CONTINUOUS
10
236.542
20
-153.338
11
236.733
21
-153.243
0
LINE
8
BLACK
6
CONTINUOUS
10
236.733
20
-153.243
11
237.019
21
-153.243
0
LINE
8
BLACK
6
CONTINUOUS
10
237.019
20
-153.243
11
237.209
21
-153.338
0
LINE
8
BLACK
6
CONTINUOUS
10
237.209
20
-153.338
11
237.304
21
-153.433
0
LINE
8
BLACK
6
CONTINUOUS
10
237.304
20
-153.433
11
237.4
21
-153.624
0
LINE
8
BLACK
6
CONTINUOUS
10
237.4
20
-153.624
11
237.4
21
-154.195
0
LINE
8
BLACK
6
CONTINUOUS
10
237.4
20
-154.195
11
237.304
21
-154.386
0
LINE
8
BLACK
6
CONTINUOUS
10
237.304
20
-154.386
11
237.209
21
-154.481
0
LINE
8
BLACK
6
CONTINUOUS
10
237.209
20
-154.481
11
237.019
21
-154.576
0
LINE
8
BLACK
6
CONTINUOUS
10
237.019
20
-154.576
11
236.733
21
-154.576
0
LINE
8
BLACK
6
CONTINUOUS
10
238.542
20
-154.576
11
238.352
21
-154.481
0
LINE
8
BLACK
6
CONTINUOUS
10
238.352
20
-154.481
11
238.257
21
-154.29
0
LINE
8
BLACK
6
CONTINUOUS
10
238.257
20
-154.29
11
238.257
21
-152.576
0
LINE
8
BLACK
6
CONTINUOUS
10
240.066
20
-154.481
11
239.876
21
-154.576
0
LINE
8
BLACK
6
CONTINUOUS
10
239.876
20
-154.576
11
239.495
21
-154.576
0
LINE
8
BLACK
6
CONTINUOUS
10
239.495
20
-154.576
11
239.304
21
-154.481
0
LINE
8
BLACK
6
CONTINUOUS
10
239.304
20
-154.481
11
239.209
21
-154.29
0
LINE
8
BLACK
6
CONTINUOUS
10
239.209
20
-154.29
11
239.209
21
-153.529
0
LINE
8
BLACK
6
CONTINUOUS
10
239.209
20
-153.529
11
239.304
21
-153.338
0
LINE
8
BLACK
6
CONTINUOUS
10
239.304
20
-153.338
11
239.495
21
-153.243
0
LINE
8
BLACK
6
CONTINUOUS
10
239.495
20
-153.243
11
239.876
21
-153.243
0
LINE
8
BLACK
6
CONTINUOUS
10
239.876
20
-153.243
11
240.066
21
-153.338
0
LINE
8
BLACK
6
CONTINUOUS
10
240.066
20
-153.338
11
240.162
21
-153.529
0
LINE
8
BLACK
6
CONTINUOUS
10
240.162
20
-153.529
11
240.162
21
-153.719
0
LINE
8
BLACK
6
CONTINUOUS
10
240.162
20
-153.719
11
239.209
21
-153.909
0
LINE
8
BLACK
6
CONTINUOUS
10
240.923
20
-154.481
11
241.114
21
-154.576
0
LINE
8
BLACK
6
CONTINUOUS
10
241.114
20
-154.576
11
241.495
21
-154.576
0
LINE
8
BLACK
6
CONTINUOUS
10
241.495
20
-154.576
11
241.685
21
-154.481
0
LINE
8
BLACK
6
CONTINUOUS
10
241.685
20
-154.481
11
241.781
21
-154.29
0
LINE
8
BLACK
6
CONTINUOUS
10
241.781
20
-154.29
11
241.781
21
-154.195
0
LINE
8
BLACK
6
CONTINUOUS
10
241.781
20
-154.195
11
241.685
21
-154.005
0
LINE
8
BLACK
6
CONTINUOUS
10
241.685
20
-154.005
11
241.495
21
-153.909
0
LINE
8
BLACK
6
CONTINUOUS
10
241.495
20
-153.909
11
241.209
21
-153.909
0
LINE
8
BLACK
6
CONTINUOUS
10
241.209
20
-153.909
11
241.019
21
-153.814
0
LINE
8
BLACK
6
CONTINUOUS
10
241.019
20
-153.814
11
240.923
21
-153.624
0
LINE
8
BLACK
6
CONTINUOUS
10
240.923
20
-153.624
11
240.923
21
-153.529
0
LINE
8
BLACK
6
CONTINUOUS
10
240.923
20
-153.529
11
241.019
21
-153.338
0
LINE
8
BLACK
6
CONTINUOUS
10
241.019
20
-153.338
11
241.209
21
-153.243
0
LINE
8
BLACK
6
CONTINUOUS
10
241.209
20
-153.243
11
241.495
21
-153.243
0
LINE
8
BLACK
6
CONTINUOUS
10
241.495
20
-153.243
11
241.685
21
-153.338
0
LINE
8
BLACK
6
CONTINUOUS
10
242.447
20
-155.338
11
242.542
21
-155.243
0
LINE
8
BLACK
6
CONTINUOUS
10
242.542
20
-155.243
11
242.733
21
-154.957
0
LINE
8
BLACK
6
CONTINUOUS
10
242.733
20
-154.957
11
242.828
21
-154.767
0
LINE
8
BLACK
6
CONTINUOUS
10
242.828
20
-154.767
11
242.923
21
-154.481
0
LINE
8
BLACK
6
CONTINUOUS
10
242.923
20
-154.481
11
243.019
21
-154.005
0
LINE
8
BLACK
6
CONTINUOUS
10
243.019
20
-154.005
11
243.019
21
-153.624
0
LINE
8
BLACK
6
CONTINUOUS
10
243.019
20
-153.624
11
242.923
21
-153.148
0
LINE
8
BLACK
6
CONTINUOUS
10
242.923
20
-153.148
11
242.828
21
-152.862
0
LINE
8
BLACK
6
CONTINUOUS
10
242.828
20
-152.862
11
242.733
21
-152.671
0
LINE
8
BLACK
6
CONTINUOUS
10
242.733
20
-152.671
11
242.542
21
-152.386
0
LINE
8
BLACK
6
CONTINUOUS
10
242.542
20
-152.386
11
242.447
21
-152.29
0
CIRCLE
8
BLACK
10
194.182
20
-156.311
40
0.5461
0
LINE
8
BLACK
6
CONTINUOUS
10
198.352
20
-157.216
11
197.209
21
-157.216
0
LINE
8
BLACK
6
CONTINUOUS
10
197.781
20
-157.216
11
197.781
21
-155.216
0
LINE
8
BLACK
6
CONTINUOUS
10
197.781
20
-155.216
11
197.59
21
-155.502
0
LINE
8
BLACK
6
CONTINUOUS
10
197.59
20
-155.502
11
197.4
21
-155.692
0
LINE
8
BLACK
6
CONTINUOUS
10
197.4
20
-155.692
11
197.209
21
-155.788
0
LINE
8
BLACK
6
CONTINUOUS
10
199.209
20
-157.026
11
199.304
21
-157.121
0
LINE
8
BLACK
6
CONTINUOUS
10
199.304
20
-157.121
11
199.209
21
-157.216
0
LINE
8
BLACK
6
CONTINUOUS
10
199.209
20
-157.216
11
199.114
21
-157.121
0
LINE
8
BLACK
6
CONTINUOUS
10
199.114
20
-157.121
11
199.209
21
-157.026
0
LINE
8
BLACK
6
CONTINUOUS
10
199.209
20
-157.026
11
199.209
21
-157.216
0
LINE
8
BLACK
6
CONTINUOUS
10
200.542
20
-155.216
11
200.733
21
-155.216
0
LINE
8
BLACK
6
CONTINUOUS
10
200.733
20
-155.216
11
200.923
21
-155.311
0
LINE
8
BLACK
6
CONTINUOUS
10
200.923
20
-155.311
11
201.019
21
-155.407
0
LINE
8
BLACK
6
CONTINUOUS
10
201.019
20
-155.407
11
201.114
21
-155.597
0
LINE
8
BLACK
6
CONTINUOUS
10
201.114
20
-155.597
11
201.209
21
-155.978
0
LINE
8
BLACK
6
CONTINUOUS
10
201.209
20
-155.978
11
201.209
21
-156.454
0
LINE
8
BLACK
6
CONTINUOUS
10
201.209
20
-156.454
11
201.114
21
-156.835
0
LINE
8
BLACK
6
CONTINUOUS
10
201.114
20
-156.835
11
201.019
21
-157.026
0
LINE
8
BLACK
6
CONTINUOUS
10
201.019
20
-157.026
11
200.923
21
-157.121
0
LINE
8
BLACK
6
CONTINUOUS
10
200.923
20
-157.121
11
200.733
21
-157.216
0
LINE
8
BLACK
6
CONTINUOUS
10
200.733
20
-157.216
11
200.542
21
-157.216
0
LINE
8
BLACK
6
CONTINUOUS
10
200.542
20
-157.216
11
200.352
21
-157.121
0
LINE
8
BLACK
6
CONTINUOUS
10
200.352
20
-157.121
11
200.257
21
-157.026
0
LINE
8
BLACK
6
CONTINUOUS
10
200.257
20
-157.026
11
200.162
21
-156.835
0
LINE
8
BLACK
6
CONTINUOUS
10
200.162
20
-156.835
11
200.066
21
-156.454
0
LINE
8
BLACK
6
CONTINUOUS
10
200.066
20
-156.454
11
200.066
21
-155.978
0
LINE
8
BLACK
6
CONTINUOUS
10
200.066
20
-155.978
11
200.162
21
-155.597
0
LINE
8
BLACK
6
CONTINUOUS
10
200.162
20
-155.597
11
200.257
21
-155.407
0
LINE
8
BLACK
6
CONTINUOUS
10
200.257
20
-155.407
11
200.352
21
-155.311
0
LINE
8
BLACK
6
CONTINUOUS
10
200.352
20
-155.311
11
200.542
21
-155.216
0
LINE
8
BLACK
6
CONTINUOUS
10
202.162
20
-157.216
11
202.542
21
-157.216
0
LINE
8
BLACK
6
CONTINUOUS
10
202.542
20
-157.216
11
202.733
21
-157.121
0
LINE
8
BLACK
6
CONTINUOUS
10
202.733
20
-157.121
11
202.828
21
-157.026
0
LINE
8
BLACK
6
CONTINUOUS
10
202.828
20
-157.026
11
203.019
21
-156.74
0
LINE
8
BLACK
6
CONTINUOUS
10
203.019
20
-156.74
11
203.114
21
-156.359
0
LINE
8
BLACK
6
CONTINUOUS
10
203.114
20
-156.359
11
203.114
21
-155.597
0
LINE
8
BLACK
6
CONTINUOUS
10
203.114
20
-155.597
11
203.019
21
-155.407
0
LINE
8
BLACK
6
CONTINUOUS
10
203.019
20
-155.407
11
202.923
21
-155.311
0
LINE
8
BLACK
6
CONTINUOUS
10
202.923
20
-155.311
11
202.733
21
-155.216
0
LINE
8
BLACK
6
CONTINUOUS
10
202.733
20
-155.216
11
202.352
21
-155.216
0
LINE
8
BLACK
6
CONTINUOUS
10
202.352
20
-155.216
11
202.162
21
-155.311
0
LINE
8
BLACK
6
CONTINUOUS
10
202.162
20
-155.311
11
202.066
21
-155.407
0
LINE
8
BLACK
6
CONTINUOUS
10
202.066
20
-155.407
11
201.971
21
-155.597
0
LINE
8
BLACK
6
CONTINUOUS
10
201.971
20
-155.597
11
201.971
21
-156.073
0
LINE
8
BLACK
6
CONTINUOUS
10
201.971
20
-156.073
11
202.066
21
-156.264
0
LINE
8
BLACK
6
CONTINUOUS
10
202.066
20
-156.264
11
202.162
21
-156.359
0
LINE
8
BLACK
6
CONTINUOUS
10
202.162
20
-156.359
11
202.352
21
-156.454
0
LINE
8
BLACK
6
CONTINUOUS
10
202.352
20
-156.454
11
202.733
21
-156.454
0
LINE
8
BLACK
6
CONTINUOUS
10
202.733
20
-156.454
11
202.923
21
-156.359
0
LINE
8
BLACK
6
CONTINUOUS
10
202.923
20
-156.359
11
203.019
21
-156.264
0
LINE
8
BLACK
6
CONTINUOUS
10
203.019
20
-156.264
11
203.114
21
-156.073
0
LINE
8
BLACK
6
CONTINUOUS
10
203.876
20
-155.407
11
203.971
21
-155.311
0
LINE
8
BLACK
6
CONTINUOUS
10
203.971
20
-155.311
11
204.162
21
-155.216
0
LINE
8
BLACK
6
CONTINUOUS
10
204.162
20
-155.216
11
204.638
21
-155.216
0
LINE
8
BLACK
6
CONTINUOUS
10
204.638
20
-155.216
11
204.828
21
-155.311
0
LINE
8
BLACK
6
CONTINUOUS
10
204.828
20
-155.311
11
204.923
21
-155.407
0
LINE
8
BLACK
6
CONTINUOUS
10
204.923
20
-155.407
11
205.019
21
-155.597
0
LINE
8
BLACK
6
CONTINUOUS
10
205.019
20
-155.597
11
205.019
21
-155.788
0
LINE
8
BLACK
6
CONTINUOUS
10
205.019
20
-155.788
11
204.923
21
-156.073
0
LINE
8
BLACK
6
CONTINUOUS
10
204.923
20
-156.073
11
203.781
21
-157.216
0
LINE
8
BLACK
6
CONTINUOUS
10
203.781
20
-157.216
11
205.019
21
-157.216
0
LINE
8
BLACK
6
CONTINUOUS
10
205.876
20
-157.216
11
205.876
21
-155.883
0
LINE
8
BLACK
6
CONTINUOUS
10
205.876
20
-156.073
11
205.971
21
-155.978
0
LINE
8
BLACK
6
CONTINUOUS
10
205.971
20
-155.978
11
206.162
21
-155.883
0
LINE
8
BLACK
6
CONTINUOUS
10
206.162
20
-155.883
11
206.447
21
-155.883
0
LINE
8
BLACK
6
CONTINUOUS
10
206.447
20
-155.883
11
206.638
21
-155.978
0
LINE
8
BLACK
6
CONTINUOUS
10
206.638
20
-155.978
11
206.733
21
-156.169
0
LINE
8
BLACK
6
CONTINUOUS
10
206.733
20
-156.169
11
206.733
21
-157.216
0
LINE
8
BLACK
6
CONTINUOUS
10
206.733
20
-156.169
11
206.828
21
-155.978
0
LINE
8
BLACK
6
CONTINUOUS
10
206.828
20
-155.978
11
207.019
21
-155.883
0
LINE
8
BLACK
6
CONTINUOUS
10
207.019
20
-155.883
11
207.304
21
-155.883
0
LINE
8
BLACK
6
CONTINUOUS
10
207.304
20
-155.883
11
207.495
21
-155.978
0
LINE
8
BLACK
6
CONTINUOUS
10
207.495
20
-155.978
11
207.59
21
-156.169
0
LINE
8
BLACK
6
CONTINUOUS
10
207.59
20
-156.169
11
207.59
21
-157.216
0
LINE
8
BLACK
6
CONTINUOUS
10
208.542
20
-157.216
11
208.542
21
-155.883
0
LINE
8
BLACK
6
CONTINUOUS
10
208.542
20
-156.073
11
208.638
21
-155.978
0
LINE
8
BLACK
6
CONTINUOUS
10
208.638
20
-155.978
11
208.828
21
-155.883
0
LINE
8
BLACK
6
CONTINUOUS
10
208.828
20
-155.883
11
209.114
21
-155.883
0
LINE
8
BLACK
6
CONTINUOUS
10
209.114
20
-155.883
11
209.304
21
-155.978
0
LINE
8
BLACK
6
CONTINUOUS
10
209.304
20
-155.978
11
209.4
21
-156.169
0
LINE
8
BLACK
6
CONTINUOUS
10
209.4
20
-156.169
11
209.4
21
-157.216
0
LINE
8
BLACK
6
CONTINUOUS
10
209.4
20
-156.169
11
209.495
21
-155.978
0
LINE
8
BLACK
6
CONTINUOUS
10
209.495
20
-155.978
11
209.685
21
-155.883
0
LINE
8
BLACK
6
CONTINUOUS
10
209.685
20
-155.883
11
209.971
21
-155.883
0
LINE
8
BLACK
6
CONTINUOUS
10
209.971
20
-155.883
11
210.162
21
-155.978
0
LINE
8
BLACK
6
CONTINUOUS
10
210.162
20
-155.978
11
210.257
21
-156.169
0
LINE
8
BLACK
6
CONTINUOUS
10
210.257
20
-156.169
11
210.257
21
-157.216
0
LINE
8
BLACK
6
CONTINUOUS
10
214.162
20
-155.121
11
212.447
21
-157.692
0
LINE
8
BLACK
6
CONTINUOUS
10
216.733
20
-155.216
11
216.923
21
-155.216
0
LINE
8
BLACK
6
CONTINUOUS
10
216.923
20
-155.216
11
217.114
21
-155.311
0
LINE
8
BLACK
6
CONTINUOUS
10
217.114
20
-155.311
11
217.209
21
-155.407
0
LINE
8
BLACK
6
CONTINUOUS
10
217.209
20
-155.407
11
217.304
21
-155.597
0
LINE
8
BLACK
6
CONTINUOUS
10
217.304
20
-155.597
11
217.4
21
-155.978
0
LINE
8
BLACK
6
CONTINUOUS
10
217.4
20
-155.978
11
217.4
21
-156.454
0
LINE
8
BLACK
6
CONTINUOUS
10
217.4
20
-156.454
11
217.304
21
-156.835
0
LINE
8
BLACK
6
CONTINUOUS
10
217.304
20
-156.835
11
217.209
21
-157.026
0
LINE
8
BLACK
6
CONTINUOUS
10
217.209
20
-157.026
11
217.114
21
-157.121
0
LINE
8
BLACK
6
CONTINUOUS
10
217.114
20
-157.121
11
216.923
21
-157.216
0
LINE
8
BLACK
6
CONTINUOUS
10
216.923
20
-157.216
11
216.733
21
-157.216
0
LINE
8
BLACK
6
CONTINUOUS
10
216.733
20
-157.216
11
216.542
21
-157.121
0
LINE
8
BLACK
6
CONTINUOUS
10
216.542
20
-157.121
11
216.447
21
-157.026
0
LINE
8
BLACK
6
CONTINUOUS
10
216.447
20
-157.026
11
216.352
21
-156.835
0
LINE
8
BLACK
6
CONTINUOUS
10
216.352
20
-156.835
11
216.257
21
-156.454
0
LINE
8
BLACK
6
CONTINUOUS
10
216.257
20
-156.454
11
216.257
21
-155.978
0
LINE
8
BLACK
6
CONTINUOUS
10
216.257
20
-155.978
11
216.352
21
-155.597
0
LINE
8
BLACK
6
CONTINUOUS
10
216.352
20
-155.597
11
216.447
21
-155.407
0
LINE
8
BLACK
6
CONTINUOUS
10
216.447
20
-155.407
11
216.542
21
-155.311
0
LINE
8
BLACK
6
CONTINUOUS
10
216.542
20
-155.311
11
216.733
21
-155.216
0
LINE
8
BLACK
6
CONTINUOUS
10
218.257
20
-157.026
11
218.352
21
-157.121
0
LINE
8
BLACK
6
CONTINUOUS
10
218.352
20
-157.121
11
218.257
21
-157.216
0
LINE
8
BLACK
6
CONTINUOUS
10
218.257
20
-157.216
11
218.162
21
-157.121
0
LINE
8
BLACK
6
CONTINUOUS
10
218.162
20
-157.121
11
218.257
21
-157.026
0
LINE
8
BLACK
6
CONTINUOUS
10
218.257
20
-157.026
11
218.257
21
-157.216
0
LINE
8
BLACK
6
CONTINUOUS
10
219.59
20
-155.216
11
219.781
21
-155.216
0
LINE
8
BLACK
6
CONTINUOUS
10
219.781
20
-155.216
11
219.971
21
-155.311
0
LINE
8
BLACK
6
CONTINUOUS
10
219.971
20
-155.311
11
220.066
21
-155.407
0
LINE
8
BLACK
6
CONTINUOUS
10
220.066
20
-155.407
11
220.162
21
-155.597
0
LINE
8
BLACK
6
CONTINUOUS
10
220.162
20
-155.597
11
220.257
21
-155.978
0
LINE
8
BLACK
6
CONTINUOUS
10
220.257
20
-155.978
11
220.257
21
-156.454
0
LINE
8
BLACK
6
CONTINUOUS
10
220.257
20
-156.454
11
220.162
21
-156.835
0
LINE
8
BLACK
6
CONTINUOUS
10
220.162
20
-156.835
11
220.066
21
-157.026
0
LINE
8
BLACK
6
CONTINUOUS
10
220.066
20
-157.026
11
219.971
21
-157.121
0
LINE
8
BLACK
6
CONTINUOUS
10
219.971
20
-157.121
11
219.781
21
-157.216
0
LINE
8
BLACK
6
CONTINUOUS
10
219.781
20
-157.216
11
219.59
21
-157.216
0
LINE
8
BLACK
6
CONTINUOUS
10
219.59
20
-157.216
11
219.4
21
-157.121
0
LINE
8
BLACK
6
CONTINUOUS
10
219.4
20
-157.121
11
219.304
21
-157.026
0
LINE
8
BLACK
6
CONTINUOUS
10
219.304
20
-157.026
11
219.209
21
-156.835
0
LINE
8
BLACK
6
CONTINUOUS
10
219.209
20
-156.835
11
219.114
21
-156.454
0
LINE
8
BLACK
6
CONTINUOUS
10
219.114
20
-156.454
11
219.114
21
-155.978
0
LINE
8
BLACK
6
CONTINUOUS
10
219.114
20
-155.978
11
219.209
21
-155.597
0
LINE
8
BLACK
6
CONTINUOUS
10
219.209
20
-155.597
11
219.304
21
-155.407
0
LINE
8
BLACK
6
CONTINUOUS
10
219.304
20
-155.407
11
219.4
21
-155.311
0
LINE
8
BLACK
6
CONTINUOUS
10
219.4
20
-155.311
11
219.59
21
-155.216
0
LINE
8
BLACK
6
CONTINUOUS
10
221.971
20
-155.883
11
221.971
21
-157.216
0
LINE
8
BLACK
6
CONTINUOUS
10
221.495
20
-155.121
11
221.019
21
-156.549
0
LINE
8
BLACK
6
CONTINUOUS
10
221.019
20
-156.549
11
222.257
21
-156.549
0
LINE
8
BLACK
6
CONTINUOUS
10
222.828
20
-155.216
11
224.066
21
-155.216
0
LINE
8
BLACK
6
CONTINUOUS
10
224.066
20
-155.216
11
223.4
21
-155.978
0
LINE
8
BLACK
6
CONTINUOUS
10
223.4
20
-155.978
11
223.685
21
-155.978
0
LINE
8
BLACK
6
CONTINUOUS
10
223.685
20
-155.978
11
223.876
21
-156.073
0
LINE
8
BLACK
6
CONTINUOUS
10
223.876
20
-156.073
11
223.971
21
-156.169
0
LINE
8
BLACK
6
CONTINUOUS
10
223.971
20
-156.169
11
224.066
21
-156.359
0
LINE
8
BLACK
6
CONTINUOUS
10
224.066
20
-156.359
11
224.066
21
-156.835
0
LINE
8
BLACK
6
CONTINUOUS
10
224.066
20
-156.835
11
223.971
21
-157.026
0
LINE
8
BLACK
6
CONTINUOUS
10
223.971
20
-157.026
11
223.876
21
-157.121
0
LINE
8
BLACK
6
CONTINUOUS
10
223.876
20
-157.121
11
223.685
21
-157.216
0
LINE
8
BLACK
6
CONTINUOUS
10
223.685
20
-157.216
11
223.114
21
-157.216
0
LINE
8
BLACK
6
CONTINUOUS
10
223.114
20
-157.216
11
222.923
21
-157.121
0
LINE
8
BLACK
6
CONTINUOUS
10
222.923
20
-157.121
11
222.828
21
-157.026
0
LINE
8
BLACK
6
CONTINUOUS
10
225.304
20
-155.216
11
225.495
21
-155.216
0
LINE
8
BLACK
6
CONTINUOUS
10
225.495
20
-155.216
11
225.685
21
-155.311
0
LINE
8
BLACK
6
CONTINUOUS
10
225.685
20
-155.311
11
225.781
21
-155.407
0
LINE
8
BLACK
6
CONTINUOUS
10
225.781
20
-155.407
11
225.876
21
-155.597
0
LINE
8
BLACK
6
CONTINUOUS
10
225.876
20
-155.597
11
225.971
21
-155.978
0
LINE
8
BLACK
6
CONTINUOUS
10
225.971
20
-155.978
11
225.971
21
-156.454
0
LINE
8
BLACK
6
CONTINUOUS
10
225.971
20
-156.454
11
225.876
21
-156.835
0
LINE
8
BLACK
6
CONTINUOUS
10
225.876
20
-156.835
11
225.781
21
-157.026
0
LINE
8
BLACK
6
CONTINUOUS
10
225.781
20
-157.026
11
225.685
21
-157.121
0
LINE
8
BLACK
6
CONTINUOUS
10
225.685
20
-157.121
11
225.495
21
-157.216
0
LINE
8
BLACK
6
CONTINUOUS
10
225.495
20
-157.216
11
225.304
21
-157.216
0
LINE
8
BLACK
6
CONTINUOUS
10
225.304
20
-157.216
11
225.114
21
-157.121
0
LINE
8
BLACK
6
CONTINUOUS
10
225.114
20
-157.121
11
225.019
21
-157.026
0
LINE
8
BLACK
6
CONTINUOUS
10
225.019
20
-157.026
11
224.923
21
-156.835
0
LINE
8
BLACK
6
CONTINUOUS
10
224.923
20
-156.835
11
224.828
21
-156.454
0
LINE
8
BLACK
6
CONTINUOUS
10
224.828
20
-156.454
11
224.828
21
-155.978
0
LINE
8
BLACK
6
CONTINUOUS
10
224.828
20
-155.978
11
224.923
21
-155.597
0
LINE
8
BLACK
6
CONTINUOUS
10
224.923
20
-155.597
11
225.019
21
-155.407
0
LINE
8
BLACK
6
CONTINUOUS
10
225.019
20
-155.407
11
225.114
21
-155.311
0
LINE
8
BLACK
6
CONTINUOUS
10
225.114
20
-155.311
11
225.304
21
-155.216
0
LINE
8
BLACK
6
CONTINUOUS
10
226.733
20
-155.216
11
226.733
21
-155.597
0
LINE
8
BLACK
6
CONTINUOUS
10
227.495
20
-155.216
11
227.495
21
-155.597
0
LINE
8
BLACK
6
CONTINUOUS
10
230.447
20
-157.978
11
230.352
21
-157.883
0
LINE
8
BLACK
6
CONTINUOUS
10
230.352
20
-157.883
11
230.162
21
-157.597
0
LINE
8
BLACK
6
CONTINUOUS
10
230.162
20
-157.597
11
230.066
21
-157.407
0
LINE
8
BLACK
6
CONTINUOUS
10
230.066
20
-157.407
11
229.971
21
-157.121
0
LINE
8
BLACK
6
CONTINUOUS
10
229.971
20
-157.121
11
229.876
21
-156.645
0
LINE
8
BLACK
6
CONTINUOUS
10
229.876
20
-156.645
11
229.876
21
-156.264
0
LINE
8
BLACK
6
CONTINUOUS
10
229.876
20
-156.264
11
229.971
21
-155.788
0
LINE
8
BLACK
6
CONTINUOUS
10
229.971
20
-155.788
11
230.066
21
-155.502
0
LINE
8
BLACK
6
CONTINUOUS
10
230.066
20
-155.502
11
230.162
21
-155.311
0
LINE
8
BLACK
6
CONTINUOUS
10
230.162
20
-155.311
11
230.352
21
-155.026
0
LINE
8
BLACK
6
CONTINUOUS
10
230.352
20
-155.026
11
230.447
21
-154.93
0
LINE
8
BLACK
6
CONTINUOUS
10
231.114
20
-155.407
11
231.209
21
-155.311
0
LINE
8
BLACK
6
CONTINUOUS
10
231.209
20
-155.311
11
231.4
21
-155.216
0
LINE
8
BLACK
6
CONTINUOUS
10
231.4
20
-155.216
11
231.876
21
-155.216
0
LINE
8
BLACK
6
CONTINUOUS
10
231.876
20
-155.216
11
232.066
21
-155.311
0
LINE
8
BLACK
6
CONTINUOUS
10
232.066
20
-155.311
11
232.162
21
-155.407
0
LINE
8
BLACK
6
CONTINUOUS
10
232.162
20
-155.407
11
232.257
21
-155.597
0
LINE
8
BLACK
6
CONTINUOUS
10
232.257
20
-155.597
11
232.257
21
-155.788
0
LINE
8
BLACK
6
CONTINUOUS
10
232.257
20
-155.788
11
232.162
21
-156.073
0
LINE
8
BLACK
6
CONTINUOUS
10
232.162
20
-156.073
11
231.019
21
-157.216
0
LINE
8
BLACK
6
CONTINUOUS
10
231.019
20
-157.216
11
232.257
21
-157.216
0
LINE
8
BLACK
6
CONTINUOUS
10
232.923
20
-155.216
11
234.257
21
-155.216
0
LINE
8
BLACK
6
CONTINUOUS
10
234.257
20
-155.216
11
233.4
21
-157.216
0
LINE
8
BLACK
6
CONTINUOUS
10
236.542
20
-157.216
11
236.542
21
-155.216
0
LINE
8
BLACK
6
CONTINUOUS
10
237.4
20
-157.216
11
237.4
21
-156.169
0
LINE
8
BLACK
6
CONTINUOUS
10
237.4
20
-156.169
11
237.304
21
-155.978
0
LINE
8
BLACK
6
CONTINUOUS
10
237.304
20
-155.978
11
237.114
21
-155.883
0
LINE
8
BLACK
6
CONTINUOUS
10
237.114
20
-155.883
11
236.828
21
-155.883
0
LINE
8
BLACK
6
CONTINUOUS
10
236.828
20
-155.883
11
236.638
21
-155.978
0
LINE
8
BLACK
6
CONTINUOUS
10
236.638
20
-155.978
11
236.542
21
-156.073
0
LINE
8
BLACK
6
CONTINUOUS
10
238.638
20
-157.216
11
238.447
21
-157.121
0
LINE
8
BLACK
6
CONTINUOUS
10
238.447
20
-157.121
11
238.352
21
-157.026
0
LINE
8
BLACK
6
CONTINUOUS
10
238.352
20
-157.026
11
238.257
21
-156.835
0
LINE
8
BLACK
6
CONTINUOUS
10
238.257
20
-156.835
11
238.257
21
-156.264
0
LINE
8
BLACK
6
CONTINUOUS
10
238.257
20
-156.264
11
238.352
21
-156.073
0
LINE
8
BLACK
6
CONTINUOUS
10
238.352
20
-156.073
11
238.447
21
-155.978
0
LINE
8
BLACK
6
CONTINUOUS
10
238.447
20
-155.978
11
238.638
21
-155.883
0
LINE
8
BLACK
6
CONTINUOUS
10
238.638
20
-155.883
11
238.923
21
-155.883
0
LINE
8
BLACK
6
CONTINUOUS
10
238.923
20
-155.883
11
239.114
21
-155.978
0
LINE
8
BLACK
6
CONTINUOUS
10
239.114
20
-155.978
11
239.209
21
-156.073
0
LINE
8
BLACK
6
CONTINUOUS
10
239.209
20
-156.073
11
239.304
21
-156.264
0
LINE
8
BLACK
6
CONTINUOUS
10
239.304
20
-156.264
11
239.304
21
-156.835
0
LINE
8
BLACK
6
CONTINUOUS
10
239.304
20
-156.835
11
239.209
21
-157.026
0
LINE
8
BLACK
6
CONTINUOUS
10
239.209
20
-157.026
11
239.114
21
-157.121
0
LINE
8
BLACK
6
CONTINUOUS
10
239.114
20
-157.121
11
238.923
21
-157.216
0
LINE
8
BLACK
6
CONTINUOUS
10
238.923
20
-157.216
11
238.638
21
-157.216
0
LINE
8
BLACK
6
CONTINUOUS
10
240.447
20
-157.216
11
240.257
21
-157.121
0
LINE
8
BLACK
6
CONTINUOUS
10
240.257
20
-157.121
11
240.162
21
-156.93
0
LINE
8
BLACK
6
CONTINUOUS
10
240.162
20
-156.93
11
240.162
21
-155.216
0
LINE
8
BLACK
6
CONTINUOUS
10
241.971
20
-157.121
11
241.781
21
-157.216
0
LINE
8
BLACK
6
CONTINUOUS
10
241.781
20
-157.216
11
241.4
21
-157.216
0
LINE
8
BLACK
6
CONTINUOUS
10
241.4
20
-157.216
11
241.209
21
-157.121
0
LINE
8
BLACK
6
CONTINUOUS
10
241.209
20
-157.121
11
241.114
21
-156.93
0
LINE
8
BLACK
6
CONTINUOUS
10
241.114
20
-156.93
11
241.114
21
-156.169
0
LINE
8
BLACK
6
CONTINUOUS
10
241.114
20
-156.169
11
241.209
21
-155.978
0
LINE
8
BLACK
6
CONTINUOUS
10
241.209
20
-155.978
11
241.4
21
-155.883
0
LINE
8
BLACK
6
CONTINUOUS
10
241.4
20
-155.883
11
241.781
21
-155.883
0
LINE
8
BLACK
6
CONTINUOUS
10
241.781
20
-155.883
11
241.971
21
-155.978
0
LINE
8
BLACK
6
CONTINUOUS
10
241.971
20
-155.978
11
242.066
21
-156.169
0
LINE
8
BLACK
6
CONTINUOUS
10
242.066
20
-156.169
11
242.066
21
-156.359
0
LINE
8
BLACK
6
CONTINUOUS
10
242.066
20
-156.359
11
241.114
21
-156.549
0
LINE
8
BLACK
6
CONTINUOUS
10
242.828
20
-157.121
11
243.019
21
-157.216
0
LINE
8
BLACK
6
CONTINUOUS
10
243.019
20
-157.216
11
243.4
21
-157.216
0
LINE
8
BLACK
6
CONTINUOUS
10
243.4
20
-157.216
11
243.59
21
-157.121
0
LINE
8
BLACK
6
CONTINUOUS
10
243.59
20
-157.121
11
243.685
21
-156.93
0
LINE
8
BLACK
6
CONTINUOUS
10
243.685
20
-156.93
11
243.685
21
-156.835
0
LINE
8
BLACK
6
CONTINUOUS
10
243.685
20
-156.835
11
243.59
21
-156.645
0
LINE
8
BLACK
6
CONTINUOUS
10
243.59
20
-156.645
11
243.4
21
-156.549
0
LINE
8
BLACK
6
CONTINUOUS
10
243.4
20
-156.549
11
243.114
21
-156.549
0
LINE
8
BLACK
6
CONTINUOUS
10
243.114
20
-156.549
11
242.923
21
-156.454
0
LINE
8
BLACK
6
CONTINUOUS
10
242.923
20
-156.454
11
242.828
21
-156.264
0
LINE
8
BLACK
6
CONTINUOUS
10
242.828
20
-156.264
11
242.828
21
-156.169
0
LINE
8
BLACK
6
CONTINUOUS
10
242.828
20
-156.169
11
242.923
21
-155.978
0
LINE
8
BLACK
6
CONTINUOUS
10
242.923
20
-155.978
11
243.114
21
-155.883
0
LINE
8
BLACK
6
CONTINUOUS
10
243.114
20
-155.883
11
243.4
21
-155.883
0
LINE
8
BLACK
6
CONTINUOUS
10
243.4
20
-155.883
11
243.59
21
-155.978
0
LINE
8
BLACK
6
CONTINUOUS
10
244.352
20
-157.978
11
244.447
21
-157.883
0
LINE
8
BLACK
6
CONTINUOUS
10
244.447
20
-157.883
11
244.638
21
-157.597
0
LINE
8
BLACK
6
CONTINUOUS
10
244.638
20
-157.597
11
244.733
21
-157.407
0
LINE
8
BLACK
6
CONTINUOUS
10
244.733
20
-157.407
11
244.828
21
-157.121
0
LINE
8
BLACK
6
CONTINUOUS
10
244.828
20
-157.121
11
244.923
21
-156.645
0
LINE
8
BLACK
6
CONTINUOUS
10
244.923
20
-156.645
11
244.923
21
-156.264
0
LINE
8
BLACK
6
CONTINUOUS
10
244.923
20
-156.264
11
244.828
21
-155.788
0
LINE
8
BLACK
6
CONTINUOUS
10
244.828
20
-155.788
11
244.733
21
-155.502
0
LINE
8
BLACK
6
CONTINUOUS
10
244.733
20
-155.502
11
244.638
21
-155.311
0
LINE
8
BLACK
6
CONTINUOUS
10
244.638
20
-155.311
11
244.447
21
-155.026
0
LINE
8
BLACK
6
CONTINUOUS
10
244.447
20
-155.026
11
244.352
21
-154.93
0
LINE
8
BLACK
6
CONTINUOUS
10
194.078
20
-158.301
11
194.078
21
-159.601
0
LINE
8
BLACK
6
CONTINUOUS
10
193.428
20
-158.951
11
194.728
21
-158.951
0
LINE
8
BLACK
6
CONTINUOUS
10
198.352
20
-159.856
11
197.209
21
-159.856
0
LINE
8
BLACK
6
CONTINUOUS
10
197.781
20
-159.856
11
197.781
21
-157.856
0
LINE
8
BLACK
6
CONTINUOUS
10
197.781
20
-157.856
11
197.59
21
-158.142
0
LINE
8
BLACK
6
CONTINUOUS
10
197.59
20
-158.142
11
197.4
21
-158.332
0
LINE
8
BLACK
6
CONTINUOUS
10
197.4
20
-158.332
11
197.209
21
-158.428
0
LINE
8
BLACK
6
CONTINUOUS
10
199.209
20
-159.666
11
199.304
21
-159.761
0
LINE
8
BLACK
6
CONTINUOUS
10
199.304
20
-159.761
11
199.209
21
-159.856
0
LINE
8
BLACK
6
CONTINUOUS
10
199.209
20
-159.856
11
199.114
21
-159.761
0
LINE
8
BLACK
6
CONTINUOUS
10
199.114
20
-159.761
11
199.209
21
-159.666
0
LINE
8
BLACK
6
CONTINUOUS
10
199.209
20
-159.666
11
199.209
21
-159.856
0
LINE
8
BLACK
6
CONTINUOUS
10
199.971
20
-157.856
11
201.209
21
-157.856
0
LINE
8
BLACK
6
CONTINUOUS
10
201.209
20
-157.856
11
200.542
21
-158.618
0
LINE
8
BLACK
6
CONTINUOUS
10
200.542
20
-158.618
11
200.828
21
-158.618
0
LINE
8
BLACK
6
CONTINUOUS
10
200.828
20
-158.618
11
201.019
21
-158.713
0
LINE
8
BLACK
6
CONTINUOUS
10
201.019
20
-158.713
11
201.114
21
-158.809
0
LINE
8
BLACK
6
CONTINUOUS
10
201.114
20
-158.809
11
201.209
21
-158.999
0
LINE
8
BLACK
6
CONTINUOUS
10
201.209
20
-158.999
11
201.209
21
-159.475
0
LINE
8
BLACK
6
CONTINUOUS
10
201.209
20
-159.475
11
201.114
21
-159.666
0
LINE
8
BLACK
6
CONTINUOUS
10
201.114
20
-159.666
11
201.019
21
-159.761
0
LINE
8
BLACK
6
CONTINUOUS
10
201.019
20
-159.761
11
200.828
21
-159.856
0
LINE
8
BLACK
6
CONTINUOUS
10
200.828
20
-159.856
11
200.257
21
-159.856
0
LINE
8
BLACK
6
CONTINUOUS
10
200.257
20
-159.856
11
200.066
21
-159.761
0
LINE
8
BLACK
6
CONTINUOUS
10
200.066
20
-159.761
11
199.971
21
-159.666
0
LINE
8
BLACK
6
CONTINUOUS
10
202.447
20
-157.856
11
202.638
21
-157.856
0
LINE
8
BLACK
6
CONTINUOUS
10
202.638
20
-157.856
11
202.828
21
-157.951
0
LINE
8
BLACK
6
CONTINUOUS
10
202.828
20
-157.951
11
202.923
21
-158.047
0
LINE
8
BLACK
6
CONTINUOUS
10
202.923
20
-158.047
11
203.019
21
-158.237
0
LINE
8
BLACK
6
CONTINUOUS
10
203.019
20
-158.237
11
203.114
21
-158.618
0
LINE
8
BLACK
6
CONTINUOUS
10
203.114
20
-158.618
11
203.114
21
-159.094
0
LINE
8
BLACK
6
CONTINUOUS
10
203.114
20
-159.094
11
203.019
21
-159.475
0
LINE
8
BLACK
6
CONTINUOUS
10
203.019
20
-159.475
11
202.923
21
-159.666
0
LINE
8
BLACK
6
CONTINUOUS
10
202.923
20
-159.666
11
202.828
21
-159.761
0
LINE
8
BLACK
6
CONTINUOUS
10
202.828
20
-159.761
11
202.638
21
-159.856
0
LINE
8
BLACK
6
CONTINUOUS
10
202.638
20
-159.856
11
202.447
21
-159.856
0
LINE
8
BLACK
6
CONTINUOUS
10
202.447
20
-159.856
11
202.257
21
-159.761
0
LINE
8
BLACK
6
CONTINUOUS
10
202.257
20
-159.761
11
202.162
21
-159.666
0
LINE
8
BLACK
6
CONTINUOUS
10
202.162
20
-159.666
11
202.066
21
-159.475
0
LINE
8
BLACK
6
CONTINUOUS
10
202.066
20
-159.475
11
201.971
21
-159.094
0
LINE
8
BLACK
6
CONTINUOUS
10
201.971
20
-159.094
11
201.971
21
-158.618
0
LINE
8
BLACK
6
CONTINUOUS
10
201.971
20
-158.618
11
202.066
21
-158.237
0
LINE
8
BLACK
6
CONTINUOUS
10
202.066
20
-158.237
11
202.162
21
-158.047
0
LINE
8
BLACK
6
CONTINUOUS
10
202.162
20
-158.047
11
202.257
21
-157.951
0
LINE
8
BLACK
6
CONTINUOUS
10
202.257
20
-157.951
11
202.447
21
-157.856
0
LINE
8
BLACK
6
CONTINUOUS
10
204.352
20
-157.856
11
204.542
21
-157.856
0
LINE
8
BLACK
6
CONTINUOUS
10
204.542
20
-157.856
11
204.733
21
-157.951
0
LINE
8
BLACK
6
CONTINUOUS
10
204.733
20
-157.951
11
204.828
21
-158.047
0
LINE
8
BLACK
6
CONTINUOUS
10
204.828
20
-158.047
11
204.923
21
-158.237
0
LINE
8
BLACK
6
CONTINUOUS
10
204.923
20
-158.237
11
205.019
21
-158.618
0
LINE
8
BLACK
6
CONTINUOUS
10
205.019
20
-158.618
11
205.019
21
-159.094
0
LINE
8
BLACK
6
CONTINUOUS
10
205.019
20
-159.094
11
204.923
21
-159.475
0
LINE
8
BLACK
6
CONTINUOUS
10
204.923
20
-159.475
11
204.828
21
-159.666
0
LINE
8
BLACK
6
CONTINUOUS
10
204.828
20
-159.666
11
204.733
21
-159.761
0
LINE
8
BLACK
6
CONTINUOUS
10
204.733
20
-159.761
11
204.542
21
-159.856
0
LINE
8
BLACK
6
CONTINUOUS
10
204.542
20
-159.856
11
204.352
21
-159.856
0
LINE
8
BLACK
6
CONTINUOUS
10
204.352
20
-159.856
11
204.162
21
-159.761
0
LINE
8
BLACK
6
CONTINUOUS
10
204.162
20
-159.761
11
204.066
21
-159.666
0
LINE
8
BLACK
6
CONTINUOUS
10
204.066
20
-159.666
11
203.971
21
-159.475
0
LINE
8
BLACK
6
CONTINUOUS
10
203.971
20
-159.475
11
203.876
21
-159.094
0
LINE
8
BLACK
6
CONTINUOUS
10
203.876
20
-159.094
11
203.876
21
-158.618
0
LINE
8
BLACK
6
CONTINUOUS
10
203.876
20
-158.618
11
203.971
21
-158.237
0
LINE
8
BLACK
6
CONTINUOUS
10
203.971
20
-158.237
11
204.066
21
-158.047
0
LINE
8
BLACK
6
CONTINUOUS
10
204.066
20
-158.047
11
204.162
21
-157.951
0
LINE
8
BLACK
6
CONTINUOUS
10
204.162
20
-157.951
11
204.352
21
-157.856
0
LINE
8
BLACK
6
CONTINUOUS
10
205.876
20
-159.856
11
205.876
21
-158.523
0
LINE
8
BLACK
6
CONTINUOUS
10
205.876
20
-158.713
11
205.971
21
-158.618
0
LINE
8
BLACK
6
CONTINUOUS
10
205.971
20
-158.618
11
206.162
21
-158.523
0
LINE
8
BLACK
6
CONTINUOUS
10
206.162
20
-158.523
11
206.447
21
-158.523
0
LINE
8
BLACK
6
CONTINUOUS
10
206.447
20
-158.523
11
206.638
21
-158.618
0
LINE
8
BLACK
6
CONTINUOUS
10
206.638
20
-158.618
11
206.733
21
-158.809
0
LINE
8
BLACK
6
CONTINUOUS
10
206.733
20
-158.809
11
206.733
21
-159.856
0
LINE
8
BLACK
6
CONTINUOUS
10
206.733
20
-158.809
11
206.828
21
-158.618
0
LINE
8
BLACK
6
CONTINUOUS
10
206.828
20
-158.618
11
207.019
21
-158.523
0
LINE
8
BLACK
6
CONTINUOUS
10
207.019
20
-158.523
11
207.304
21
-158.523
0
LINE
8
BLACK
6
CONTINUOUS
10
207.304
20
-158.523
11
207.495
21
-158.618
0
LINE
8
BLACK
6
CONTINUOUS
10
207.495
20
-158.618
11
207.59
21
-158.809
0
LINE
8
BLACK
6
CONTINUOUS
10
207.59
20
-158.809
11
207.59
21
-159.856
0
LINE
8
BLACK
6
CONTINUOUS
10
208.542
20
-159.856
11
208.542
21
-158.523
0
LINE
8
BLACK
6
CONTINUOUS
10
208.542
20
-158.713
11
208.638
21
-158.618
0
LINE
8
BLACK
6
CONTINUOUS
10
208.638
20
-158.618
11
208.828
21
-158.523
0
LINE
8
BLACK
6
CONTINUOUS
10
208.828
20
-158.523
11
209.114
21
-158.523
0
LINE
8
BLACK
6
CONTINUOUS
10
209.114
20
-158.523
11
209.304
21
-158.618
0
LINE
8
BLACK
6
CONTINUOUS
10
209.304
20
-158.618
11
209.4
21
-158.809
0
LINE
8
BLACK
6
CONTINUOUS
10
209.4
20
-158.809
11
209.4
21
-159.856
0
LINE
8
BLACK
6
CONTINUOUS
10
209.4
20
-158.809
11
209.495
21
-158.618
0
LINE
8
BLACK
6
CONTINUOUS
10
209.495
20
-158.618
11
209.685
21
-158.523
0
LINE
8
BLACK
6
CONTINUOUS
10
209.685
20
-158.523
11
209.971
21
-158.523
0
LINE
8
BLACK
6
CONTINUOUS
10
209.971
20
-158.523
11
210.162
21
-158.618
0
LINE
8
BLACK
6
CONTINUOUS
10
210.162
20
-158.618
11
210.257
21
-158.809
0
LINE
8
BLACK
6
CONTINUOUS
10
210.257
20
-158.809
11
210.257
21
-159.856
0
LINE
8
BLACK
6
CONTINUOUS
10
214.162
20
-157.761
11
212.447
21
-160.332
0
LINE
8
BLACK
6
CONTINUOUS
10
216.733
20
-157.856
11
216.923
21
-157.856
0
LINE
8
BLACK
6
CONTINUOUS
10
216.923
20
-157.856
11
217.114
21
-157.951
0
LINE
8
BLACK
6
CONTINUOUS
10
217.114
20
-157.951
11
217.209
21
-158.047
0
LINE
8
BLACK
6
CONTINUOUS
10
217.209
20
-158.047
11
217.304
21
-158.237
0
LINE
8
BLACK
6
CONTINUOUS
10
217.304
20
-158.237
11
217.4
21
-158.618
0
LINE
8
BLACK
6
CONTINUOUS
10
217.4
20
-158.618
11
217.4
21
-159.094
0
LINE
8
BLACK
6
CONTINUOUS
10
217.4
20
-159.094
11
217.304
21
-159.475
0
LINE
8
BLACK
6
CONTINUOUS
10
217.304
20
-159.475
11
217.209
21
-159.666
0
LINE
8
BLACK
6
CONTINUOUS
10
217.209
20
-159.666
11
217.114
21
-159.761
0
LINE
8
BLACK
6
CONTINUOUS
10
217.114
20
-159.761
11
216.923
21
-159.856
0
LINE
8
BLACK
6
CONTINUOUS
10
216.923
20
-159.856
11
216.733
21
-159.856
0
LINE
8
BLACK
6
CONTINUOUS
10
216.733
20
-159.856
11
216.542
21
-159.761
0
LINE
8
BLACK
6
CONTINUOUS
10
216.542
20
-159.761
11
216.447
21
-159.666
0
LINE
8
BLACK
6
CONTINUOUS
10
216.447
20
-159.666
11
216.352
21
-159.475
0
LINE
8
BLACK
6
CONTINUOUS
10
216.352
20
-159.475
11
216.257
21
-159.094
0
LINE
8
BLACK
6
CONTINUOUS
10
216.257
20
-159.094
11
216.257
21
-158.618
0
LINE
8
BLACK
6
CONTINUOUS
10
216.257
20
-158.618
11
216.352
21
-158.237
0
LINE
8
BLACK
6
CONTINUOUS
10
216.352
20
-158.237
11
216.447
21
-158.047
0
LINE
8
BLACK
6
CONTINUOUS
10
216.447
20
-158.047
11
216.542
21
-157.951
0
LINE
8
BLACK
6
CONTINUOUS
10
216.542
20
-157.951
11
216.733
21
-157.856
0
LINE
8
BLACK
6
CONTINUOUS
10
218.257
20
-159.666
11
218.352
21
-159.761
0
LINE
8
BLACK
6
CONTINUOUS
10
218.352
20
-159.761
11
218.257
21
-159.856
0
LINE
8
BLACK
6
CONTINUOUS
10
218.257
20
-159.856
11
218.162
21
-159.761
0
LINE
8
BLACK
6
CONTINUOUS
10
218.162
20
-159.761
11
218.257
21
-159.666
0
LINE
8
BLACK
6
CONTINUOUS
10
218.257
20
-159.666
11
218.257
21
-159.856
0
LINE
8
BLACK
6
CONTINUOUS
10
219.59
20
-157.856
11
219.781
21
-157.856
0
LINE
8
BLACK
6
CONTINUOUS
10
219.781
20
-157.856
11
219.971
21
-157.951
0
LINE
8
BLACK
6
CONTINUOUS
10
219.971
20
-157.951
11
220.066
21
-158.047
0
LINE
8
BLACK
6
CONTINUOUS
10
220.066
20
-158.047
11
220.162
21
-158.237
0
LINE
8
BLACK
6
CONTINUOUS
10
220.162
20
-158.237
11
220.257
21
-158.618
0
LINE
8
BLACK
6
CONTINUOUS
10
220.257
20
-158.618
11
220.257
21
-159.094
0
LINE
8
BLACK
6
CONTINUOUS
10
220.257
20
-159.094
11
220.162
21
-159.475
0
LINE
8
BLACK
6
CONTINUOUS
10
220.162
20
-159.475
11
220.066
21
-159.666
0
LINE
8
BLACK
6
CONTINUOUS
10
220.066
20
-159.666
11
219.971
21
-159.761
0
LINE
8
BLACK
6
CONTINUOUS
10
219.971
20
-159.761
11
219.781
21
-159.856
0
LINE
8
BLACK
6
CONTINUOUS
10
219.781
20
-159.856
11
219.59
21
-159.856
0
LINE
8
BLACK
6
CONTINUOUS
10
219.59
20
-159.856
11
219.4
21
-159.761
0
LINE
8
BLACK
6
CONTINUOUS
10
219.4
20
-159.761
11
219.304
21
-159.666
0
LINE
8
BLACK
6
CONTINUOUS
10
219.304
20
-159.666
11
219.209
21
-159.475
0
LINE
8
BLACK
6
CONTINUOUS
10
219.209
20
-159.475
11
219.114
21
-159.094
0
LINE
8
BLACK
6
CONTINUOUS
10
219.114
20
-159.094
11
219.114
21
-158.618
0
LINE
8
BLACK
6
CONTINUOUS
10
219.114
20
-158.618
11
219.209
21
-158.237
0
LINE
8
BLACK
6
CONTINUOUS
10
219.209
20
-158.237
11
219.304
21
-158.047
0
LINE
8
BLACK
6
CONTINUOUS
10
219.304
20
-158.047
11
219.4
21
-157.951
0
LINE
8
BLACK
6
CONTINUOUS
10
219.4
20
-157.951
11
219.59
21
-157.856
0
LINE
8
BLACK
6
CONTINUOUS
10
222.066
20
-157.856
11
221.114
21
-157.856
0
LINE
8
BLACK
6
CONTINUOUS
10
221.114
20
-157.856
11
221.019
21
-158.809
0
LINE
8
BLACK
6
CONTINUOUS
10
221.019
20
-158.809
11
221.114
21
-158.713
0
LINE
8
BLACK
6
CONTINUOUS
10
221.114
20
-158.713
11
221.304
21
-158.618
0
LINE
8
BLACK
6
CONTINUOUS
10
221.304
20
-158.618
11
221.781
21
-158.618
0
LINE
8
BLACK
6
CONTINUOUS
10
221.781
20
-158.618
11
221.971
21
-158.713
0
LINE
8
BLACK
6
CONTINUOUS
10
221.971
20
-158.713
11
222.066
21
-158.809
0
LINE
8
BLACK
6
CONTINUOUS
10
222.066
20
-158.809
11
222.162
21
-158.999
0
LINE
8
BLACK
6
CONTINUOUS
10
222.162
20
-158.999
11
222.162
21
-159.475
0
LINE
8
BLACK
6
CONTINUOUS
10
222.162
20
-159.475
11
222.066
21
-159.666
0
LINE
8
BLACK
6
CONTINUOUS
10
222.066
20
-159.666
11
221.971
21
-159.761
0
LINE
8
BLACK
6
CONTINUOUS
10
221.971
20
-159.761
11
221.781
21
-159.856
0
LINE
8
BLACK
6
CONTINUOUS
10
221.781
20
-159.856
11
221.304
21
-159.856
0
LINE
8
BLACK
6
CONTINUOUS
10
221.304
20
-159.856
11
221.114
21
-159.761
0
LINE
8
BLACK
6
CONTINUOUS
10
221.114
20
-159.761
11
221.019
21
-159.666
0
LINE
8
BLACK
6
CONTINUOUS
10
224.066
20
-159.856
11
222.923
21
-159.856
0
LINE
8
BLACK
6
CONTINUOUS
10
223.495
20
-159.856
11
223.495
21
-157.856
0
LINE
8
BLACK
6
CONTINUOUS
10
223.495
20
-157.856
11
223.304
21
-158.142
0
LINE
8
BLACK
6
CONTINUOUS
10
223.304
20
-158.142
11
223.114
21
-158.332
0
LINE
8
BLACK
6
CONTINUOUS
10
223.114
20
-158.332
11
222.923
21
-158.428
0
LINE
8
BLACK
6
CONTINUOUS
10
224.828
20
-158.047
11
224.923
21
-157.951
0
LINE
8
BLACK
6
CONTINUOUS
10
224.923
20
-157.951
11
225.114
21
-157.856
0
LINE
8
BLACK
6
CONTINUOUS
10
225.114
20
-157.856
11
225.59
21
-157.856
0
LINE
8
BLACK
6
CONTINUOUS
10
225.59
20
-157.856
11
225.781
21
-157.951
0
LINE
8
BLACK
6
CONTINUOUS
10
225.781
20
-157.951
11
225.876
21
-158.047
0
LINE
8
BLACK
6
CONTINUOUS
10
225.876
20
-158.047
11
225.971
21
-158.237
0
LINE
8
BLACK
6
CONTINUOUS
10
225.971
20
-158.237
11
225.971
21
-158.428
0
LINE
8
BLACK
6
CONTINUOUS
10
225.971
20
-158.428
11
225.876
21
-158.713
0
LINE
8
BLACK
6
CONTINUOUS
10
225.876
20
-158.713
11
224.733
21
-159.856
0
LINE
8
BLACK
6
CONTINUOUS
10
224.733
20
-159.856
11
225.971
21
-159.856
0
LINE
8
BLACK
6
CONTINUOUS
10
226.733
20
-157.856
11
226.733
21
-158.237
0
LINE
8
BLACK
6
CONTINUOUS
10
227.495
20
-157.856
11
227.495
21
-158.237
0
LINE
8
BLACK
6
CONTINUOUS
10
230.447
20
-160.618
11
230.352
21
-160.523
0
LINE
8
BLACK
6
CONTINUOUS
10
230.352
20
-160.523
11
230.162
21
-160.237
0
LINE
8
BLACK
6
CONTINUOUS
10
230.162
20
-160.237
11
230.066
21
-160.047
0
LINE
8
BLACK
6
CONTINUOUS
10
230.066
20
-160.047
11
229.971
21
-159.761
0
LINE
8
BLACK
6
CONTINUOUS
10
229.971
20
-159.761
11
229.876
21
-159.285
0
LINE
8
BLACK
6
CONTINUOUS
10
229.876
20
-159.285
11
229.876
21
-158.904
0
LINE
8
BLACK
6
CONTINUOUS
10
229.876
20
-158.904
11
229.971
21
-158.428
0
LINE
8
BLACK
6
CONTINUOUS
10
229.971
20
-158.428
11
230.066
21
-158.142
0
LINE
8
BLACK
6
CONTINUOUS
10
230.066
20
-158.142
11
230.162
21
-157.951
0
LINE
8
BLACK
6
CONTINUOUS
10
230.162
20
-157.951
11
230.352
21
-157.666
0
LINE
8
BLACK
6
CONTINUOUS
10
230.352
20
-157.666
11
230.447
21
-157.57
0
LINE
8
BLACK
6
CONTINUOUS
10
231.114
20
-158.047
11
231.209
21
-157.951
0
LINE
8
BLACK
6
CONTINUOUS
10
231.209
20
-157.951
11
231.4
21
-157.856
0
LINE
8
BLACK
6
CONTINUOUS
10
231.4
20
-157.856
11
231.876
21
-157.856
0
LINE
8
BLACK
6
CONTINUOUS
10
231.876
20
-157.856
11
232.066
21
-157.951
0
LINE
8
BLACK
6
CONTINUOUS
10
232.066
20
-157.951
11
232.162
21
-158.047
0
LINE
8
BLACK
6
CONTINUOUS
10
232.162
20
-158.047
11
232.257
21
-158.237
0
LINE
8
BLACK
6
CONTINUOUS
10
232.257
20
-158.237
11
232.257
21
-158.428
0
LINE
8
BLACK
6
CONTINUOUS
10
232.257
20
-158.428
11
232.162
21
-158.713
0
LINE
8
BLACK
6
CONTINUOUS
10
232.162
20
-158.713
11
231.019
21
-159.856
0
LINE
8
BLACK
6
CONTINUOUS
10
231.019
20
-159.856
11
232.257
21
-159.856
0
LINE
8
BLACK
6
CONTINUOUS
10
234.638
20
-159.856
11
234.638
21
-157.856
0
LINE
8
BLACK
6
CONTINUOUS
10
235.495
20
-159.856
11
235.495
21
-158.809
0
LINE
8
BLACK
6
CONTINUOUS
10
235.495
20
-158.809
11
235.4
21
-158.618
0
LINE
8
BLACK
6
CONTINUOUS
10
235.4
20
-158.618
11
235.209
21
-158.523
0
LINE
8
BLACK
6
CONTINUOUS
10
235.209
20
-158.523
11
234.923
21
-158.523
0
LINE
8
BLACK
6
CONTINUOUS
10
234.923
20
-158.523
11
234.733
21
-158.618
0
LINE
8
BLACK
6
CONTINUOUS
10
234.733
20
-158.618
11
234.638
21
-158.713
0
LINE
8
BLACK
6
CONTINUOUS
10
236.733
20
-159.856
11
236.542
21
-159.761
0
LINE
8
BLACK
6
CONTINUOUS
10
236.542
20
-159.761
11
236.447
21
-159.666
0
LINE
8
BLACK
6
CONTINUOUS
10
236.447
20
-159.666
11
236.352
21
-159.475
0
LINE
8
BLACK
6
CONTINUOUS
10
236.352
20
-159.475
11
236.352
21
-158.904
0
LINE
8
BLACK
6
CONTINUOUS
10
236.352
20
-158.904
11
236.447
21
-158.713
0
LINE
8
BLACK
6
CONTINUOUS
10
236.447
20
-158.713
11
236.542
21
-158.618
0
LINE
8
BLACK
6
CONTINUOUS
10
236.542
20
-158.618
11
236.733
21
-158.523
0
LINE
8
BLACK
6
CONTINUOUS
10
236.733
20
-158.523
11
237.019
21
-158.523
0
LINE
8
BLACK
6
CONTINUOUS
10
237.019
20
-158.523
11
237.209
21
-158.618
0
LINE
8
BLACK
6
CONTINUOUS
10
237.209
20
-158.618
11
237.304
21
-158.713
0
LINE
8
BLACK
6
CONTINUOUS
10
237.304
20
-158.713
11
237.4
21
-158.904
0
LINE
8
BLACK
6
CONTINUOUS
10
237.4
20
-158.904
11
237.4
21
-159.475
0
LINE
8
BLACK
6
CONTINUOUS
10
237.4
20
-159.475
11
237.304
21
-159.666
0
LINE
8
BLACK
6
CONTINUOUS
10
237.304
20
-159.666
11
237.209
21
-159.761
0
LINE
8
BLACK
6
CONTINUOUS
10
237.209
20
-159.761
11
237.019
21
-159.856
0
LINE
8
BLACK
6
CONTINUOUS
10
237.019
20
-159.856
11
236.733
21
-159.856
0
LINE
8
BLACK
6
CONTINUOUS
10
238.542
20
-159.856
11
238.352
21
-159.761
0
LINE
8
BLACK
6
CONTINUOUS
10
238.352
20
-159.761
11
238.257
21
-159.57
0
LINE
8
BLACK
6
CONTINUOUS
10
238.257
20
-159.57
11
238.257
21
-157.856
0
LINE
8
BLACK
6
CONTINUOUS
10
240.066
20
-159.761
11
239.876
21
-159.856
0
LINE
8
BLACK
6
CONTINUOUS
10
239.876
20
-159.856
11
239.495
21
-159.856
0
LINE
8
BLACK
6
CONTINUOUS
10
239.495
20
-159.856
11
239.304
21
-159.761
0
LINE
8
BLACK
6
CONTINUOUS
10
239.304
20
-159.761
11
239.209
21
-159.57
0
LINE
8
BLACK
6
CONTINUOUS
10
239.209
20
-159.57
11
239.209
21
-158.809
0
LINE
8
BLACK
6
CONTINUOUS
10
239.209
20
-158.809
11
239.304
21
-158.618
0
LINE
8
BLACK
6
CONTINUOUS
10
239.304
20
-158.618
11
239.495
21
-158.523
0
LINE
8
BLACK
6
CONTINUOUS
10
239.495
20
-158.523
11
239.876
21
-158.523
0
LINE
8
BLACK
6
CONTINUOUS
10
239.876
20
-158.523
11
240.066
21
-158.618
0
LINE
8
BLACK
6
CONTINUOUS
10
240.066
20
-158.618
11
240.162
21
-158.809
0
LINE
8
BLACK
6
CONTINUOUS
10
240.162
20
-158.809
11
240.162
21
-158.999
0
LINE
8
BLACK
6
CONTINUOUS
10
240.162
20
-158.999
11
239.209
21
-159.189
0
LINE
8
BLACK
6
CONTINUOUS
10
240.923
20
-159.761
11
241.114
21
-159.856
0
LINE
8
BLACK
6
CONTINUOUS
10
241.114
20
-159.856
11
241.495
21
-159.856
0
LINE
8
BLACK
6
CONTINUOUS
10
241.495
20
-159.856
11
241.685
21
-159.761
0
LINE
8
BLACK
6
CONTINUOUS
10
241.685
20
-159.761
11
241.781
21
-159.57
0
LINE
8
BLACK
6
CONTINUOUS
10
241.781
20
-159.57
11
241.781
21
-159.475
0
LINE
8
BLACK
6
CONTINUOUS
10
241.781
20
-159.475
11
241.685
21
-159.285
0
LINE
8
BLACK
6
CONTINUOUS
10
241.685
20
-159.285
11
241.495
21
-159.189
0
LINE
8
BLACK
6
CONTINUOUS
10
241.495
20
-159.189
11
241.209
21
-159.189
0
LINE
8
BLACK
6
CONTINUOUS
10
241.209
20
-159.189
11
241.019
21
-159.094
0
LINE
8
BLACK
6
CONTINUOUS
10
241.019
20
-159.094
11
240.923
21
-158.904
0
LINE
8
BLACK
6
CONTINUOUS
10
240.923
20
-158.904
11
240.923
21
-158.809
0
LINE
8
BLACK
6
CONTINUOUS
10
240.923
20
-158.809
11
241.019
21
-158.618
0
LINE
8
BLACK
6
CONTINUOUS
10
241.019
20
-158.618
11
241.209
21
-158.523
0
LINE
8
BLACK
6
CONTINUOUS
10
241.209
20
-158.523
11
241.495
21
-158.523
0
LINE
8
BLACK
6
CONTINUOUS
10
241.495
20
-158.523
11
241.685
21
-158.618
0
LINE
8
BLACK
6
CONTINUOUS
10
242.447
20
-160.618
11
242.542
21
-160.523
0
LINE
8
BLACK
6
CONTINUOUS
10
242.542
20
-160.523
11
242.733
21
-160.237
0
LINE
8
BLACK
6
CONTINUOUS
10
242.733
20
-160.237
11
242.828
21
-160.047
0
LINE
8
BLACK
6
CONTINUOUS
10
242.828
20
-160.047
11
242.923
21
-159.761
0
LINE
8
BLACK
6
CONTINUOUS
10
242.923
20
-159.761
11
243.019
21
-159.285
0
LINE
8
BLACK
6
CONTINUOUS
10
243.019
20
-159.285
11
243.019
21
-158.904
0
LINE
8
BLACK
6
CONTINUOUS
10
243.019
20
-158.904
11
242.923
21
-158.428
0
LINE
8
BLACK
6
CONTINUOUS
10
242.923
20
-158.428
11
242.828
21
-158.142
0
LINE
8
BLACK
6
CONTINUOUS
10
242.828
20
-158.142
11
242.733
21
-157.951
0
LINE
8
BLACK
6
CONTINUOUS
10
242.733
20
-157.951
11
242.542
21
-157.666
0
LINE
8
BLACK
6
CONTINUOUS
10
242.542
20
-157.666
11
242.447
21
-157.57
0
LINE
8
BLACK
6
CONTINUOUS
10
194.509
20
-162.121
11
194.509
21
-161.062
0
LINE
8
BLACK
6
CONTINUOUS
10
194.509
20
-161.062
11
193.449
21
-161.062
0
LINE
8
BLACK
6
CONTINUOUS
10
193.449
20
-161.062
11
193.449
21
-162.121
0
LINE
8
BLACK
6
CONTINUOUS
10
193.449
20
-162.121
11
194.509
21
-162.121
0
LINE
8
BLACK
6
CONTINUOUS
10
198.352
20
-162.496
11
197.209
21
-162.496
0
LINE
8
BLACK
6
CONTINUOUS
10
197.781
20
-162.496
11
197.781
21
-160.496
0
LINE
8
BLACK
6
CONTINUOUS
10
197.781
20
-160.496
11
197.59
21
-160.782
0
LINE
8
BLACK
6
CONTINUOUS
10
197.59
20
-160.782
11
197.4
21
-160.972
0
LINE
8
BLACK
6
CONTINUOUS
10
197.4
20
-160.972
11
197.209
21
-161.068
0
LINE
8
BLACK
6
CONTINUOUS
10
199.209
20
-162.306
11
199.304
21
-162.401
0
LINE
8
BLACK
6
CONTINUOUS
10
199.304
20
-162.401
11
199.209
21
-162.496
0
LINE
8
BLACK
6
CONTINUOUS
10
199.209
20
-162.496
11
199.114
21
-162.401
0
LINE
8
BLACK
6
CONTINUOUS
10
199.114
20
-162.401
11
199.209
21
-162.306
0
LINE
8
BLACK
6
CONTINUOUS
10
199.209
20
-162.306
11
199.209
21
-162.496
0
LINE
8
BLACK
6
CONTINUOUS
10
201.019
20
-161.163
11
201.019
21
-162.496
0
LINE
8
BLACK
6
CONTINUOUS
10
200.542
20
-160.401
11
200.066
21
-161.829
0
LINE
8
BLACK
6
CONTINUOUS
10
200.066
20
-161.829
11
201.304
21
-161.829
0
LINE
8
BLACK
6
CONTINUOUS
10
202.162
20
-162.496
11
202.542
21
-162.496
0
LINE
8
BLACK
6
CONTINUOUS
10
202.542
20
-162.496
11
202.733
21
-162.401
0
LINE
8
BLACK
6
CONTINUOUS
10
202.733
20
-162.401
11
202.828
21
-162.306
0
LINE
8
BLACK
6
CONTINUOUS
10
202.828
20
-162.306
11
203.019
21
-162.02
0
LINE
8
BLACK
6
CONTINUOUS
10
203.019
20
-162.02
11
203.114
21
-161.639
0
LINE
8
BLACK
6
CONTINUOUS
10
203.114
20
-161.639
11
203.114
21
-160.877
0
LINE
8
BLACK
6
CONTINUOUS
10
203.114
20
-160.877
11
203.019
21
-160.687
0
LINE
8
BLACK
6
CONTINUOUS
10
203.019
20
-160.687
11
202.923
21
-160.591
0
LINE
8
BLACK
6
CONTINUOUS
10
202.923
20
-160.591
11
202.733
21
-160.496
0
LINE
8
BLACK
6
CONTINUOUS
10
202.733
20
-160.496
11
202.352
21
-160.496
0
LINE
8
BLACK
6
CONTINUOUS
10
202.352
20
-160.496
11
202.162
21
-160.591
0
LINE
8
BLACK
6
CONTINUOUS
10
202.162
20
-160.591
11
202.066
21
-160.687
0
LINE
8
BLACK
6
CONTINUOUS
10
202.066
20
-160.687
11
201.971
21
-160.877
0
LINE
8
BLACK
6
CONTINUOUS
10
201.971
20
-160.877
11
201.971
21
-161.353
0
LINE
8
BLACK
6
CONTINUOUS
10
201.971
20
-161.353
11
202.066
21
-161.544
0
LINE
8
BLACK
6
CONTINUOUS
10
202.066
20
-161.544
11
202.162
21
-161.639
0
LINE
8
BLACK
6
CONTINUOUS
10
202.162
20
-161.639
11
202.352
21
-161.734
0
LINE
8
BLACK
6
CONTINUOUS
10
202.352
20
-161.734
11
202.733
21
-161.734
0
LINE
8
BLACK
6
CONTINUOUS
10
202.733
20
-161.734
11
202.923
21
-161.639
0
LINE
8
BLACK
6
CONTINUOUS
10
202.923
20
-161.639
11
203.019
21
-161.544
0
LINE
8
BLACK
6
CONTINUOUS
10
203.019
20
-161.544
11
203.114
21
-161.353
0
LINE
8
BLACK
6
CONTINUOUS
10
204.066
20
-162.496
11
204.447
21
-162.496
0
LINE
8
BLACK
6
CONTINUOUS
10
204.447
20
-162.496
11
204.638
21
-162.401
0
LINE
8
BLACK
6
CONTINUOUS
10
204.638
20
-162.401
11
204.733
21
-162.306
0
LINE
8
BLACK
6
CONTINUOUS
10
204.733
20
-162.306
11
204.923
21
-162.02
0
LINE
8
BLACK
6
CONTINUOUS
10
204.923
20
-162.02
11
205.019
21
-161.639
0
LINE
8
BLACK
6
CONTINUOUS
10
205.019
20
-161.639
11
205.019
21
-160.877
0
LINE
8
BLACK
6
CONTINUOUS
10
205.019
20
-160.877
11
204.923
21
-160.687
0
LINE
8
BLACK
6
CONTINUOUS
10
204.923
20
-160.687
11
204.828
21
-160.591
0
LINE
8
BLACK
6
CONTINUOUS
10
204.828
20
-160.591
11
204.638
21
-160.496
0
LINE
8
BLACK
6
CONTINUOUS
10
204.638
20
-160.496
11
204.257
21
-160.496
0
LINE
8
BLACK
6
CONTINUOUS
10
204.257
20
-160.496
11
204.066
21
-160.591
0
LINE
8
BLACK
6
CONTINUOUS
10
204.066
20
-160.591
11
203.971
21
-160.687
0
LINE
8
BLACK
6
CONTINUOUS
10
203.971
20
-160.687
11
203.876
21
-160.877
0
LINE
8
BLACK
6
CONTINUOUS
10
203.876
20
-160.877
11
203.876
21
-161.353
0
LINE
8
BLACK
6
CONTINUOUS
10
203.876
20
-161.353
11
203.971
21
-161.544
0
LINE
8
BLACK
6
CONTINUOUS
10
203.971
20
-161.544
11
204.066
21
-161.639
0
LINE
8
BLACK
6
CONTINUOUS
10
204.066
20
-161.639
11
204.257
21
-161.734
0
LINE
8
BLACK
6
CONTINUOUS
10
204.257
20
-161.734
11
204.638
21
-161.734
0
LINE
8
BLACK
6
CONTINUOUS
10
204.638
20
-161.734
11
204.828
21
-161.639
0
LINE
8
BLACK
6
CONTINUOUS
10
204.828
20
-161.639
11
204.923
21
-161.544
0
LINE
8
BLACK
6
CONTINUOUS
10
204.923
20
-161.544
11
205.019
21
-161.353
0
LINE
8
BLACK
6
CONTINUOUS
10
205.876
20
-162.496
11
205.876
21
-161.163
0
LINE
8
BLACK
6
CONTINUOUS
10
205.876
20
-161.353
11
205.971
21
-161.258
0
LINE
8
BLACK
6
CONTINUOUS
10
205.971
20
-161.258
11
206.162
21
-161.163
0
LINE
8
BLACK
6
CONTINUOUS
10
206.162
20
-161.163
11
206.447
21
-161.163
0
LINE
8
BLACK
6
CONTINUOUS
10
206.447
20
-161.163
11
206.638
21
-161.258
0
LINE
8
BLACK
6
CONTINUOUS
10
206.638
20
-161.258
11
206.733
21
-161.449
0
LINE
8
BLACK
6
CONTINUOUS
10
206.733
20
-161.449
11
206.733
21
-162.496
0
LINE
8
BLACK
6
CONTINUOUS
10
206.733
20
-161.449
11
206.828
21
-161.258
0
LINE
8
BLACK
6
CONTINUOUS
10
206.828
20
-161.258
11
207.019
21
-161.163
0
LINE
8
BLACK
6
CONTINUOUS
10
207.019
20
-161.163
11
207.304
21
-161.163
0
LINE
8
BLACK
6
CONTINUOUS
10
207.304
20
-161.163
11
207.495
21
-161.258
0
LINE
8
BLACK
6
CONTINUOUS
10
207.495
20
-161.258
11
207.59
21
-161.449
0
LINE
8
BLACK
6
CONTINUOUS
10
207.59
20
-161.449
11
207.59
21
-162.496
0
LINE
8
BLACK
6
CONTINUOUS
10
208.542
20
-162.496
11
208.542
21
-161.163
0
LINE
8
BLACK
6
CONTINUOUS
10
208.542
20
-161.353
11
208.638
21
-161.258
0
LINE
8
BLACK
6
CONTINUOUS
10
208.638
20
-161.258
11
208.828
21
-161.163
0
LINE
8
BLACK
6
CONTINUOUS
10
208.828
20
-161.163
11
209.114
21
-161.163
0
LINE
8
BLACK
6
CONTINUOUS
10
209.114
20
-161.163
11
209.304
21
-161.258
0
LINE
8
BLACK
6
CONTINUOUS
10
209.304
20
-161.258
11
209.4
21
-161.449
0
LINE
8
BLACK
6
CONTINUOUS
10
209.4
20
-161.449
11
209.4
21
-162.496
0
LINE
8
BLACK
6
CONTINUOUS
10
209.4
20
-161.449
11
209.495
21
-161.258
0
LINE
8
BLACK
6
CONTINUOUS
10
209.495
20
-161.258
11
209.685
21
-161.163
0
LINE
8
BLACK
6
CONTINUOUS
10
209.685
20
-161.163
11
209.971
21
-161.163
0
LINE
8
BLACK
6
CONTINUOUS
10
209.971
20
-161.163
11
210.162
21
-161.258
0
LINE
8
BLACK
6
CONTINUOUS
10
210.162
20
-161.258
11
210.257
21
-161.449
0
LINE
8
BLACK
6
CONTINUOUS
10
210.257
20
-161.449
11
210.257
21
-162.496
0
LINE
8
BLACK
6
CONTINUOUS
10
214.162
20
-160.401
11
212.447
21
-162.972
0
LINE
8
BLACK
6
CONTINUOUS
10
216.733
20
-160.496
11
216.923
21
-160.496
0
LINE
8
BLACK
6
CONTINUOUS
10
216.923
20
-160.496
11
217.114
21
-160.591
0
LINE
8
BLACK
6
CONTINUOUS
10
217.114
20
-160.591
11
217.209
21
-160.687
0
LINE
8
BLACK
6
CONTINUOUS
10
217.209
20
-160.687
11
217.304
21
-160.877
0
LINE
8
BLACK
6
CONTINUOUS
10
217.304
20
-160.877
11
217.4
21
-161.258
0
LINE
8
BLACK
6
CONTINUOUS
10
217.4
20
-161.258
11
217.4
21
-161.734
0
LINE
8
BLACK
6
CONTINUOUS
10
217.4
20
-161.734
11
217.304
21
-162.115
0
LINE
8
BLACK
6
CONTINUOUS
10
217.304
20
-162.115
11
217.209
21
-162.306
0
LINE
8
BLACK
6
CONTINUOUS
10
217.209
20
-162.306
11
217.114
21
-162.401
0
LINE
8
BLACK
6
CONTINUOUS
10
217.114
20
-162.401
11
216.923
21
-162.496
0
LINE
8
BLACK
6
CONTINUOUS
10
216.923
20
-162.496
11
216.733
21
-162.496
0
LINE
8
BLACK
6
CONTINUOUS
10
216.733
20
-162.496
11
216.542
21
-162.401
0
LINE
8
BLACK
6
CONTINUOUS
10
216.542
20
-162.401
11
216.447
21
-162.306
0
LINE
8
BLACK
6
CONTINUOUS
10
216.447
20
-162.306
11
216.352
21
-162.115
0
LINE
8
BLACK
6
CONTINUOUS
10
216.352
20
-162.115
11
216.257
21
-161.734
0
LINE
8
BLACK
6
CONTINUOUS
10
216.257
20
-161.734
11
216.257
21
-161.258
0
LINE
8
BLACK
6
CONTINUOUS
10
216.257
20
-161.258
11
216.352
21
-160.877
0
LINE
8
BLACK
6
CONTINUOUS
10
216.352
20
-160.877
11
216.447
21
-160.687
0
LINE
8
BLACK
6
CONTINUOUS
10
216.447
20
-160.687
11
216.542
21
-160.591
0
LINE
8
BLACK
6
CONTINUOUS
10
216.542
20
-160.591
11
216.733
21
-160.496
0
LINE
8
BLACK
6
CONTINUOUS
10
218.257
20
-162.306
11
218.352
21
-162.401
0
LINE
8
BLACK
6
CONTINUOUS
10
218.352
20
-162.401
11
218.257
21
-162.496
0
LINE
8
BLACK
6
CONTINUOUS
10
218.257
20
-162.496
11
218.162
21
-162.401
0
LINE
8
BLACK
6
CONTINUOUS
10
218.162
20
-162.401
11
218.257
21
-162.306
0
LINE
8
BLACK
6
CONTINUOUS
10
218.257
20
-162.306
11
218.257
21
-162.496
0
LINE
8
BLACK
6
CONTINUOUS
10
219.59
20
-160.496
11
219.781
21
-160.496
0
LINE
8
BLACK
6
CONTINUOUS
10
219.781
20
-160.496
11
219.971
21
-160.591
0
LINE
8
BLACK
6
CONTINUOUS
10
219.971
20
-160.591
11
220.066
21
-160.687
0
LINE
8
BLACK
6
CONTINUOUS
10
220.066
20
-160.687
11
220.162
21
-160.877
0
LINE
8
BLACK
6
CONTINUOUS
10
220.162
20
-160.877
11
220.257
21
-161.258
0
LINE
8
BLACK
6
CONTINUOUS
10
220.257
20
-161.258
11
220.257
21
-161.734
0
LINE
8
BLACK
6
CONTINUOUS
10
220.257
20
-161.734
11
220.162
21
-162.115
0
LINE
8
BLACK
6
CONTINUOUS
10
220.162
20
-162.115
11
220.066
21
-162.306
0
LINE
8
BLACK
6
CONTINUOUS
10
220.066
20
-162.306
11
219.971
21
-162.401
0
LINE
8
BLACK
6
CONTINUOUS
10
219.971
20
-162.401
11
219.781
21
-162.496
0
LINE
8
BLACK
6
CONTINUOUS
10
219.781
20
-162.496
11
219.59
21
-162.496
0
LINE
8
BLACK
6
CONTINUOUS
10
219.59
20
-162.496
11
219.4
21
-162.401
0
LINE
8
BLACK
6
CONTINUOUS
10
219.4
20
-162.401
11
219.304
21
-162.306
0
LINE
8
BLACK
6
CONTINUOUS
10
219.304
20
-162.306
11
219.209
21
-162.115
0
LINE
8
BLACK
6
CONTINUOUS
10
219.209
20
-162.115
11
219.114
21
-161.734
0
LINE
8
BLACK
6
CONTINUOUS
10
219.114
20
-161.734
11
219.114
21
-161.258
0
LINE
8
BLACK
6
CONTINUOUS
10
219.114
20
-161.258
11
219.209
21
-160.877
0
LINE
8
BLACK
6
CONTINUOUS
10
219.209
20
-160.877
11
219.304
21
-160.687
0
LINE
8
BLACK
6
CONTINUOUS
10
219.304
20
-160.687
11
219.4
21
-160.591
0
LINE
8
BLACK
6
CONTINUOUS
10
219.4
20
-160.591
11
219.59
21
-160.496
0
LINE
8
BLACK
6
CONTINUOUS
10
222.066
20
-160.496
11
221.114
21
-160.496
0
LINE
8
BLACK
6
CONTINUOUS
10
221.114
20
-160.496
11
221.019
21
-161.449
0
LINE
8
BLACK
6
CONTINUOUS
10
221.019
20
-161.449
11
221.114
21
-161.353
0
LINE
8
BLACK
6
CONTINUOUS
10
221.114
20
-161.353
11
221.304
21
-161.258
0
LINE
8
BLACK
6
CONTINUOUS
10
221.304
20
-161.258
11
221.781
21
-161.258
0
LINE
8
BLACK
6
CONTINUOUS
10
221.781
20
-161.258
11
221.971
21
-161.353
0
LINE
8
BLACK
6
CONTINUOUS
10
221.971
20
-161.353
11
222.066
21
-161.449
0
LINE
8
BLACK
6
CONTINUOUS
10
222.066
20
-161.449
11
222.162
21
-161.639
0
LINE
8
BLACK
6
CONTINUOUS
10
222.162
20
-161.639
11
222.162
21
-162.115
0
LINE
8
BLACK
6
CONTINUOUS
10
222.162
20
-162.115
11
222.066
21
-162.306
0
LINE
8
BLACK
6
CONTINUOUS
10
222.066
20
-162.306
11
221.971
21
-162.401
0
LINE
8
BLACK
6
CONTINUOUS
10
221.971
20
-162.401
11
221.781
21
-162.496
0
LINE
8
BLACK
6
CONTINUOUS
10
221.781
20
-162.496
11
221.304
21
-162.496
0
LINE
8
BLACK
6
CONTINUOUS
10
221.304
20
-162.496
11
221.114
21
-162.401
0
LINE
8
BLACK
6
CONTINUOUS
10
221.114
20
-162.401
11
221.019
21
-162.306
0
LINE
8
BLACK
6
CONTINUOUS
10
223.114
20
-162.496
11
223.495
21
-162.496
0
LINE
8
BLACK
6
CONTINUOUS
10
223.495
20
-162.496
11
223.685
21
-162.401
0
LINE
8
BLACK
6
CONTINUOUS
10
223.685
20
-162.401
11
223.781
21
-162.306
0
LINE
8
BLACK
6
CONTINUOUS
10
223.781
20
-162.306
11
223.971
21
-162.02
0
LINE
8
BLACK
6
CONTINUOUS
10
223.971
20
-162.02
11
224.066
21
-161.639
0
LINE
8
BLACK
6
CONTINUOUS
10
224.066
20
-161.639
11
224.066
21
-160.877
0
LINE
8
BLACK
6
CONTINUOUS
10
224.066
20
-160.877
11
223.971
21
-160.687
0
LINE
8
BLACK
6
CONTINUOUS
10
223.971
20
-160.687
11
223.876
21
-160.591
0
LINE
8
BLACK
6
CONTINUOUS
10
223.876
20
-160.591
11
223.685
21
-160.496
0
LINE
8
BLACK
6
CONTINUOUS
10
223.685
20
-160.496
11
223.304
21
-160.496
0
LINE
8
BLACK
6
CONTINUOUS
10
223.304
20
-160.496
11
223.114
21
-160.591
0
LINE
8
BLACK
6
CONTINUOUS
10
223.114
20
-160.591
11
223.019
21
-160.687
0
LINE
8
BLACK
6
CONTINUOUS
10
223.019
20
-160.687
11
222.923
21
-160.877
0
LINE
8
BLACK
6
CONTINUOUS
10
222.923
20
-160.877
11
222.923
21
-161.353
0
LINE
8
BLACK
6
CONTINUOUS
10
222.923
20
-161.353
11
223.019
21
-161.544
0
LINE
8
BLACK
6
CONTINUOUS
10
223.019
20
-161.544
11
223.114
21
-161.639
0
LINE
8
BLACK
6
CONTINUOUS
10
223.114
20
-161.639
11
223.304
21
-161.734
0
LINE
8
BLACK
6
CONTINUOUS
10
223.304
20
-161.734
11
223.685
21
-161.734
0
LINE
8
BLACK
6
CONTINUOUS
10
223.685
20
-161.734
11
223.876
21
-161.639
0
LINE
8
BLACK
6
CONTINUOUS
10
223.876
20
-161.639
11
223.971
21
-161.544
0
LINE
8
BLACK
6
CONTINUOUS
10
223.971
20
-161.544
11
224.066
21
-161.353
0
LINE
8
BLACK
6
CONTINUOUS
10
225.304
20
-160.496
11
225.495
21
-160.496
0
LINE
8
BLACK
6
CONTINUOUS
10
225.495
20
-160.496
11
225.685
21
-160.591
0
LINE
8
BLACK
6
CONTINUOUS
10
225.685
20
-160.591
11
225.781
21
-160.687
0
LINE
8
BLACK
6
CONTINUOUS
10
225.781
20
-160.687
11
225.876
21
-160.877
0
LINE
8
BLACK
6
CONTINUOUS
10
225.876
20
-160.877
11
225.971
21
-161.258
0
LINE
8
BLACK
6
CONTINUOUS
10
225.971
20
-161.258
11
225.971
21
-161.734
0
LINE
8
BLACK
6
CONTINUOUS
10
225.971
20
-161.734
11
225.876
21
-162.115
0
LINE
8
BLACK
6
CONTINUOUS
10
225.876
20
-162.115
11
225.781
21
-162.306
0
LINE
8
BLACK
6
CONTINUOUS
10
225.781
20
-162.306
11
225.685
21
-162.401
0
LINE
8
BLACK
6
CONTINUOUS
10
225.685
20
-162.401
11
225.495
21
-162.496
0
LINE
8
BLACK
6
CONTINUOUS
10
225.495
20
-162.496
11
225.304
21
-162.496
0
LINE
8
BLACK
6
CONTINUOUS
10
225.304
20
-162.496
11
225.114
21
-162.401
0
LINE
8
BLACK
6
CONTINUOUS
10
225.114
20
-162.401
11
225.019
21
-162.306
0
LINE
8
BLACK
6
CONTINUOUS
10
225.019
20
-162.306
11
224.923
21
-162.115
0
LINE
8
BLACK
6
CONTINUOUS
10
224.923
20
-162.115
11
224.828
21
-161.734
0
LINE
8
BLACK
6
CONTINUOUS
10
224.828
20
-161.734
11
224.828
21
-161.258
0
LINE
8
BLACK
6
CONTINUOUS
10
224.828
20
-161.258
11
224.923
21
-160.877
0
LINE
8
BLACK
6
CONTINUOUS
10
224.923
20
-160.877
11
225.019
21
-160.687
0
LINE
8
BLACK
6
CONTINUOUS
10
225.019
20
-160.687
11
225.114
21
-160.591
0
LINE
8
BLACK
6
CONTINUOUS
10
225.114
20
-160.591
11
225.304
21
-160.496
0
LINE
8
BLACK
6
CONTINUOUS
10
226.733
20
-160.496
11
226.733
21
-160.877
0
LINE
8
BLACK
6
CONTINUOUS
10
227.495
20
-160.496
11
227.495
21
-160.877
0
LINE
8
BLACK
6
CONTINUOUS
10
230.447
20
-163.258
11
230.352
21
-163.163
0
LINE
8
BLACK
6
CONTINUOUS
10
230.352
20
-163.163
11
230.162
21
-162.877
0
LINE
8
BLACK
6
CONTINUOUS
10
230.162
20
-162.877
11
230.066
21
-162.687
0
LINE
8
BLACK
6
CONTINUOUS
10
230.066
20
-162.687
11
229.971
21
-162.401
0
LINE
8
BLACK
6
CONTINUOUS
10
229.971
20
-162.401
11
229.876
21
-161.925
0
LINE
8
BLACK
6
CONTINUOUS
10
229.876
20
-161.925
11
229.876
21
-161.544
0
LINE
8
BLACK
6
CONTINUOUS
10
229.876
20
-161.544
11
229.971
21
-161.068
0
LINE
8
BLACK
6
CONTINUOUS
10
229.971
20
-161.068
11
230.066
21
-160.782
0
LINE
8
BLACK
6
CONTINUOUS
10
230.066
20
-160.782
11
230.162
21
-160.591
0
LINE
8
BLACK
6
CONTINUOUS
10
230.162
20
-160.591
11
230.352
21
-160.306
0
LINE
8
BLACK
6
CONTINUOUS
10
230.352
20
-160.306
11
230.447
21
-160.21
0
LINE
8
BLACK
6
CONTINUOUS
10
232.066
20
-160.496
11
231.685
21
-160.496
0
LINE
8
BLACK
6
CONTINUOUS
10
231.685
20
-160.496
11
231.495
21
-160.591
0
LINE
8
BLACK
6
CONTINUOUS
10
231.495
20
-160.591
11
231.4
21
-160.687
0
LINE
8
BLACK
6
CONTINUOUS
10
231.4
20
-160.687
11
231.209
21
-160.972
0
LINE
8
BLACK
6
CONTINUOUS
10
231.209
20
-160.972
11
231.114
21
-161.353
0
LINE
8
BLACK
6
CONTINUOUS
10
231.114
20
-161.353
11
231.114
21
-162.115
0
LINE
8
BLACK
6
CONTINUOUS
10
231.114
20
-162.115
11
231.209
21
-162.306
0
LINE
8
BLACK
6
CONTINUOUS
10
231.209
20
-162.306
11
231.304
21
-162.401
0
LINE
8
BLACK
6
CONTINUOUS
10
231.304
20
-162.401
11
231.495
21
-162.496
0
LINE
8
BLACK
6
CONTINUOUS
10
231.495
20
-162.496
11
231.876
21
-162.496
0
LINE
8
BLACK
6
CONTINUOUS
10
231.876
20
-162.496
11
232.066
21
-162.401
0
LINE
8
BLACK
6
CONTINUOUS
10
232.066
20
-162.401
11
232.162
21
-162.306
0
LINE
8
BLACK
6
CONTINUOUS
10
232.162
20
-162.306
11
232.257
21
-162.115
0
LINE
8
BLACK
6
CONTINUOUS
10
232.257
20
-162.115
11
232.257
21
-161.639
0
LINE
8
BLACK
6
CONTINUOUS
10
232.257
20
-161.639
11
232.162
21
-161.449
0
LINE
8
BLACK
6
CONTINUOUS
10
232.162
20
-161.449
11
232.066
21
-161.353
0
LINE
8
BLACK
6
CONTINUOUS
10
232.066
20
-161.353
11
231.876
21
-161.258
0
LINE
8
BLACK
6
CONTINUOUS
10
231.876
20
-161.258
11
231.495
21
-161.258
0
LINE
8
BLACK
6
CONTINUOUS
10
231.495
20
-161.258
11
231.304
21
-161.353
0
LINE
8
BLACK
6
CONTINUOUS
10
231.304
20
-161.353
11
231.209
21
-161.449
0
LINE
8
BLACK
6
CONTINUOUS
10
231.209
20
-161.449
11
231.114
21
-161.639
0
LINE
8
BLACK
6
CONTINUOUS
10
233.495
20
-160.496
11
233.685
21
-160.496
0
LINE
8
BLACK
6
CONTINUOUS
10
233.685
20
-160.496
11
233.876
21
-160.591
0
LINE
8
BLACK
6
CONTINUOUS
10
233.876
20
-160.591
11
233.971
21
-160.687
0
LINE
8
BLACK
6
CONTINUOUS
10
233.971
20
-160.687
11
234.066
21
-160.877
0
LINE
8
BLACK
6
CONTINUOUS
10
234.066
20
-160.877
11
234.162
21
-161.258
0
LINE
8
BLACK
6
CONTINUOUS
10
234.162
20
-161.258
11
234.162
21
-161.734
0
LINE
8
BLACK
6
CONTINUOUS
10
234.162
20
-161.734
11
234.066
21
-162.115
0
LINE
8
BLACK
6
CONTINUOUS
10
234.066
20
-162.115
11
233.971
21
-162.306
0
LINE
8
BLACK
6
CONTINUOUS
10
233.971
20
-162.306
11
233.876
21
-162.401
0
LINE
8
BLACK
6
CONTINUOUS
10
233.876
20
-162.401
11
233.685
21
-162.496
0
LINE
8
BLACK
6
CONTINUOUS
10
233.685
20
-162.496
11
233.495
21
-162.496
0
LINE
8
BLACK
6
CONTINUOUS
10
233.495
20
-162.496
11
233.304
21
-162.401
0
LINE
8
BLACK
6
CONTINUOUS
10
233.304
20
-162.401
11
233.209
21
-162.306
0
LINE
8
BLACK
6
CONTINUOUS
10
233.209
20
-162.306
11
233.114
21
-162.115
0
LINE
8
BLACK
6
CONTINUOUS
10
233.114
20
-162.115
11
233.019
21
-161.734
0
LINE
8
BLACK
6
CONTINUOUS
10
233.019
20
-161.734
11
233.019
21
-161.258
0
LINE
8
BLACK
6
CONTINUOUS
10
233.019
20
-161.258
11
233.114
21
-160.877
0
LINE
8
BLACK
6
CONTINUOUS
10
233.114
20
-160.877
11
233.209
21
-160.687
0
LINE
8
BLACK
6
CONTINUOUS
10
233.209
20
-160.687
11
233.304
21
-160.591
0
LINE
8
BLACK
6
CONTINUOUS
10
233.304
20
-160.591
11
233.495
21
-160.496
0
LINE
8
BLACK
6
CONTINUOUS
10
236.542
20
-162.496
11
236.542
21
-160.496
0
LINE
8
BLACK
6
CONTINUOUS
10
237.4
20
-162.496
11
237.4
21
-161.449
0
LINE
8
BLACK
6
CONTINUOUS
10
237.4
20
-161.449
11
237.304
21
-161.258
0
LINE
8
BLACK
6
CONTINUOUS
10
237.304
20
-161.258
11
237.114
21
-161.163
0
LINE
8
BLACK
6
CONTINUOUS
10
237.114
20
-161.163
11
236.828
21
-161.163
0
LINE
8
BLACK
6
CONTINUOUS
10
236.828
20
-161.163
11
236.638
21
-161.258
0
LINE
8
BLACK
6
CONTINUOUS
10
236.638
20
-161.258
11
236.542
21
-161.353
0
LINE
8
BLACK
6
CONTINUOUS
10
238.638
20
-162.496
11
238.447
21
-162.401
0
LINE
8
BLACK
6
CONTINUOUS
10
238.447
20
-162.401
11
238.352
21
-162.306
0
LINE
8
BLACK
6
CONTINUOUS
10
238.352
20
-162.306
11
238.257
21
-162.115
0
LINE
8
BLACK
6
CONTINUOUS
10
238.257
20
-162.115
11
238.257
21
-161.544
0
LINE
8
BLACK
6
CONTINUOUS
10
238.257
20
-161.544
11
238.352
21
-161.353
0
LINE
8
BLACK
6
CONTINUOUS
10
238.352
20
-161.353
11
238.447
21
-161.258
0
LINE
8
BLACK
6
CONTINUOUS
10
238.447
20
-161.258
11
238.638
21
-161.163
0
LINE
8
BLACK
6
CONTINUOUS
10
238.638
20
-161.163
11
238.923
21
-161.163
0
LINE
8
BLACK
6
CONTINUOUS
10
238.923
20
-161.163
11
239.114
21
-161.258
0
LINE
8
BLACK
6
CONTINUOUS
10
239.114
20
-161.258
11
239.209
21
-161.353
0
LINE
8
BLACK
6
CONTINUOUS
10
239.209
20
-161.353
11
239.304
21
-161.544
0
LINE
8
BLACK
6
CONTINUOUS
10
239.304
20
-161.544
11
239.304
21
-162.115
0
LINE
8
BLACK
6
CONTINUOUS
10
239.304
20
-162.115
11
239.209
21
-162.306
0
LINE
8
BLACK
6
CONTINUOUS
10
239.209
20
-162.306
11
239.114
21
-162.401
0
LINE
8
BLACK
6
CONTINUOUS
10
239.114
20
-162.401
11
238.923
21
-162.496
0
LINE
8
BLACK
6
CONTINUOUS
10
238.923
20
-162.496
11
238.638
21
-162.496
0
LINE
8
BLACK
6
CONTINUOUS
10
240.447
20
-162.496
11
240.257
21
-162.401
0
LINE
8
BLACK
6
CONTINUOUS
10
240.257
20
-162.401
11
240.162
21
-162.21
0
LINE
8
BLACK
6
CONTINUOUS
10
240.162
20
-162.21
11
240.162
21
-160.496
0
LINE
8
BLACK
6
CONTINUOUS
10
241.971
20
-162.401
11
241.781
21
-162.496
0
LINE
8
BLACK
6
CONTINUOUS
10
241.781
20
-162.496
11
241.4
21
-162.496
0
LINE
8
BLACK
6
CONTINUOUS
10
241.4
20
-162.496
11
241.209
21
-162.401
0
LINE
8
BLACK
6
CONTINUOUS
10
241.209
20
-162.401
11
241.114
21
-162.21
0
LINE
8
BLACK
6
CONTINUOUS
10
241.114
20
-162.21
11
241.114
21
-161.449
0
LINE
8
BLACK
6
CONTINUOUS
10
241.114
20
-161.449
11
241.209
21
-161.258
0
LINE
8
BLACK
6
CONTINUOUS
10
241.209
20
-161.258
11
241.4
21
-161.163
0
LINE
8
BLACK
6
CONTINUOUS
10
241.4
20
-161.163
11
241.781
21
-161.163
0
LINE
8
BLACK
6
CONTINUOUS
10
241.781
20
-161.163
11
241.971
21
-161.258
0
LINE
8
BLACK
6
CONTINUOUS
10
241.971
20
-161.258
11
242.066
21
-161.449
0
LINE
8
BLACK
6
CONTINUOUS
10
242.066
20
-161.449
11
242.066
21
-161.639
0
LINE
8
BLACK
6
CONTINUOUS
10
242.066
20
-161.639
11
241.114
21
-161.829
0
LINE
8
BLACK
6
CONTINUOUS
10
242.828
20
-162.401
11
243.019
21
-162.496
0
LINE
8
BLACK
6
CONTINUOUS
10
243.019
20
-162.496
11
243.4
21
-162.496
0
LINE
8
BLACK
6
CONTINUOUS
10
243.4
20
-162.496
11
243.59
21
-162.401
0
LINE
8
BLACK
6
CONTINUOUS
10
243.59
20
-162.401
11
243.685
21
-162.21
0
LINE
8
BLACK
6
CONTINUOUS
10
243.685
20
-162.21
11
243.685
21
-162.115
0
LINE
8
BLACK
6
CONTINUOUS
10
243.685
20
-162.115
11
243.59
21
-161.925
0
LINE
8
BLACK
6
CONTINUOUS
10
243.59
20
-161.925
11
243.4
21
-161.829
0
LINE
8
BLACK
6
CONTINUOUS
10
243.4
20
-161.829
11
243.114
21
-161.829
0
LINE
8
BLACK
6
CONTINUOUS
10
243.114
20
-161.829
11
242.923
21
-161.734
0
LINE
8
BLACK
6
CONTINUOUS
10
242.923
20
-161.734
11
242.828
21
-161.544
0
LINE
8
BLACK
6
CONTINUOUS
10
242.828
20
-161.544
11
242.828
21
-161.449
0
LINE
8
BLACK
6
CONTINUOUS
10
242.828
20
-161.449
11
242.923
21
-161.258
0
LINE
8
BLACK
6
CONTINUOUS
10
242.923
20
-161.258
11
243.114
21
-161.163
0
LINE
8
BLACK
6
CONTINUOUS
10
243.114
20
-161.163
11
243.4
21
-161.163
0
LINE
8
BLACK
6
CONTINUOUS
10
243.4
20
-161.163
11
243.59
21
-161.258
0
LINE
8
BLACK
6
CONTINUOUS
10
244.352
20
-163.258
11
244.447
21
-163.163
0
LINE
8
BLACK
6
CONTINUOUS
10
244.447
20
-163.163
11
244.638
21
-162.877
0
LINE
8
BLACK
6
CONTINUOUS
10
244.638
20
-162.877
11
244.733
21
-162.687
0
LINE
8
BLACK
6
CONTINUOUS
10
244.733
20
-162.687
11
244.828
21
-162.401
0
LINE
8
BLACK
6
CONTINUOUS
10
244.828
20
-162.401
11
244.923
21
-161.925
0
LINE
8
BLACK
6
CONTINUOUS
10
244.923
20
-161.925
11
244.923
21
-161.544
0
LINE
8
BLACK
6
CONTINUOUS
10
244.923
20
-161.544
11
244.828
21
-161.068
0
LINE
8
BLACK
6
CONTINUOUS
10
244.828
20
-161.068
11
244.733
21
-160.782
0
LINE
8
BLACK
6
CONTINUOUS
10
244.733
20
-160.782
11
244.638
21
-160.591
0
LINE
8
BLACK
6
CONTINUOUS
10
244.638
20
-160.591
11
244.447
21
-160.306
0
LINE
8
BLACK
6
CONTINUOUS
10
244.447
20
-160.306
11
244.352
21
-160.21
0
LINE
8
BLACK
6
CONTINUOUS
10
193.728
20
-165.29
11
194.728
21
-164.29
0
LINE
8
BLACK
6
CONTINUOUS
10
194.728
20
-164.29
11
193.728
21
-163.29
0
LINE
8
BLACK
6
CONTINUOUS
10
193.728
20
-163.29
11
192.728
21
-164.29
0
LINE
8
BLACK
6
CONTINUOUS
10
192.728
20
-164.29
11
193.728
21
-165.29
0
LINE
8
BLACK
6
CONTINUOUS
10
197.209
20
-163.385
11
197.304
21
-163.29
0
LINE
8
BLACK
6
CONTINUOUS
10
197.304
20
-163.29
11
197.495
21
-163.195
0
LINE
8
BLACK
6
CONTINUOUS
10
197.495
20
-163.195
11
197.971
21
-163.195
0
LINE
8
BLACK
6
CONTINUOUS
10
197.971
20
-163.195
11
198.162
21
-163.29
0
LINE
8
BLACK
6
CONTINUOUS
10
198.162
20
-163.29
11
198.257
21
-163.385
0
LINE
8
BLACK
6
CONTINUOUS
10
198.257
20
-163.385
11
198.352
21
-163.576
0
LINE
8
BLACK
6
CONTINUOUS
10
198.352
20
-163.576
11
198.352
21
-163.766
0
LINE
8
BLACK
6
CONTINUOUS
10
198.352
20
-163.766
11
198.257
21
-164.052
0
LINE
8
BLACK
6
CONTINUOUS
10
198.257
20
-164.052
11
197.114
21
-165.195
0
LINE
8
BLACK
6
CONTINUOUS
10
197.114
20
-165.195
11
198.352
21
-165.195
0
LINE
8
BLACK
6
CONTINUOUS
10
199.209
20
-165.004
11
199.304
21
-165.099
0
LINE
8
BLACK
6
CONTINUOUS
10
199.304
20
-165.099
11
199.209
21
-165.195
0
LINE
8
BLACK
6
CONTINUOUS
10
199.209
20
-165.195
11
199.114
21
-165.099
0
LINE
8
BLACK
6
CONTINUOUS
10
199.114
20
-165.099
11
199.209
21
-165.004
0
LINE
8
BLACK
6
CONTINUOUS
10
199.209
20
-165.004
11
199.209
21
-165.195
0
LINE
8
BLACK
6
CONTINUOUS
10
200.066
20
-163.385
11
200.162
21
-163.29
0
LINE
8
BLACK
6
CONTINUOUS
10
200.162
20
-163.29
11
200.352
21
-163.195
0
LINE
8
BLACK
6
CONTINUOUS
10
200.352
20
-163.195
11
200.828
21
-163.195
0
LINE
8
BLACK
6
CONTINUOUS
10
200.828
20
-163.195
11
201.019
21
-163.29
0
LINE
8
BLACK
6
CONTINUOUS
10
201.019
20
-163.29
11
201.114
21
-163.385
0
LINE
8
BLACK
6
CONTINUOUS
10
201.114
20
-163.385
11
201.209
21
-163.576
0
LINE
8
BLACK
6
CONTINUOUS
10
201.209
20
-163.576
11
201.209
21
-163.766
0
LINE
8
BLACK
6
CONTINUOUS
10
201.209
20
-163.766
11
201.114
21
-164.052
0
LINE
8
BLACK
6
CONTINUOUS
10
201.114
20
-164.052
11
199.971
21
-165.195
0
LINE
8
BLACK
6
CONTINUOUS
10
199.971
20
-165.195
11
201.209
21
-165.195
0
LINE
8
BLACK
6
CONTINUOUS
10
202.447
20
-163.195
11
202.638
21
-163.195
0
LINE
8
BLACK
6
CONTINUOUS
10
202.638
20
-163.195
11
202.828
21
-163.29
0
LINE
8
BLACK
6
CONTINUOUS
10
202.828
20
-163.29
11
202.923
21
-163.385
0
LINE
8
BLACK
6
CONTINUOUS
10
202.923
20
-163.385
11
203.019
21
-163.576
0
LINE
8
BLACK
6
CONTINUOUS
10
203.019
20
-163.576
11
203.114
21
-163.957
0
LINE
8
BLACK
6
CONTINUOUS
10
203.114
20
-163.957
11
203.114
21
-164.433
0
LINE
8
BLACK
6
CONTINUOUS
10
203.114
20
-164.433
11
203.019
21
-164.814
0
LINE
8
BLACK
6
CONTINUOUS
10
203.019
20
-164.814
11
202.923
21
-165.004
0
LINE
8
BLACK
6
CONTINUOUS
10
202.923
20
-165.004
11
202.828
21
-165.099
0
LINE
8
BLACK
6
CONTINUOUS
10
202.828
20
-165.099
11
202.638
21
-165.195
0
LINE
8
BLACK
6
CONTINUOUS
10
202.638
20
-165.195
11
202.447
21
-165.195
0
LINE
8
BLACK
6
CONTINUOUS
10
202.447
20
-165.195
11
202.257
21
-165.099
0
LINE
8
BLACK
6
CONTINUOUS
10
202.257
20
-165.099
11
202.162
21
-165.004
0
LINE
8
BLACK
6
CONTINUOUS
10
202.162
20
-165.004
11
202.066
21
-164.814
0
LINE
8
BLACK
6
CONTINUOUS
10
202.066
20
-164.814
11
201.971
21
-164.433
0
LINE
8
BLACK
6
CONTINUOUS
10
201.971
20
-164.433
11
201.971
21
-163.957
0
LINE
8
BLACK
6
CONTINUOUS
10
201.971
20
-163.957
11
202.066
21
-163.576
0
LINE
8
BLACK
6
CONTINUOUS
10
202.066
20
-163.576
11
202.162
21
-163.385
0
LINE
8
BLACK
6
CONTINUOUS
10
202.162
20
-163.385
11
202.257
21
-163.29
0
LINE
8
BLACK
6
CONTINUOUS
10
202.257
20
-163.29
11
202.447
21
-163.195
0
LINE
8
BLACK
6
CONTINUOUS
10
204.352
20
-163.195
11
204.542
21
-163.195
0
LINE
8
BLACK
6
CONTINUOUS
10
204.542
20
-163.195
11
204.733
21
-163.29
0
LINE
8
BLACK
6
CONTINUOUS
10
204.733
20
-163.29
11
204.828
21
-163.385
0
LINE
8
BLACK
6
CONTINUOUS
10
204.828
20
-163.385
11
204.923
21
-163.576
0
LINE
8
BLACK
6
CONTINUOUS
10
204.923
20
-163.576
11
205.019
21
-163.957
0
LINE
8
BLACK
6
CONTINUOUS
10
205.019
20
-163.957
11
205.019
21
-164.433
0
LINE
8
BLACK
6
CONTINUOUS
10
205.019
20
-164.433
11
204.923
21
-164.814
0
LINE
8
BLACK
6
CONTINUOUS
10
204.923
20
-164.814
11
204.828
21
-165.004
0
LINE
8
BLACK
6
CONTINUOUS
10
204.828
20
-165.004
11
204.733
21
-165.099
0
LINE
8
BLACK
6
CONTINUOUS
10
204.733
20
-165.099
11
204.542
21
-165.195
0
LINE
8
BLACK
6
CONTINUOUS
10
204.542
20
-165.195
11
204.352
21
-165.195
0
LINE
8
BLACK
6
CONTINUOUS
10
204.352
20
-165.195
11
204.162
21
-165.099
0
LINE
8
BLACK
6
CONTINUOUS
10
204.162
20
-165.099
11
204.066
21
-165.004
0
LINE
8
BLACK
6
CONTINUOUS
10
204.066
20
-165.004
11
203.971
21
-164.814
0
LINE
8
BLACK
6
CONTINUOUS
10
203.971
20
-164.814
11
203.876
21
-164.433
0
LINE
8
BLACK
6
CONTINUOUS
10
203.876
20
-164.433
11
203.876
21
-163.957
0
LINE
8
BLACK
6
CONTINUOUS
10
203.876
20
-163.957
11
203.971
21
-163.576
0
LINE
8
BLACK
6
CONTINUOUS
10
203.971
20
-163.576
11
204.066
21
-163.385
0
LINE
8
BLACK
6
CONTINUOUS
10
204.066
20
-163.385
11
204.162
21
-163.29
0
LINE
8
BLACK
6
CONTINUOUS
10
204.162
20
-163.29
11
204.352
21
-163.195
0
LINE
8
BLACK
6
CONTINUOUS
10
205.876
20
-165.195
11
205.876
21
-163.861
0
LINE
8
BLACK
6
CONTINUOUS
10
205.876
20
-164.052
11
205.971
21
-163.957
0
LINE
8
BLACK
6
CONTINUOUS
10
205.971
20
-163.957
11
206.162
21
-163.861
0
LINE
8
BLACK
6
CONTINUOUS
10
206.162
20
-163.861
11
206.447
21
-163.861
0
LINE
8
BLACK
6
CONTINUOUS
10
206.447
20
-163.861
11
206.638
21
-163.957
0
LINE
8
BLACK
6
CONTINUOUS
10
206.638
20
-163.957
11
206.733
21
-164.147
0
LINE
8
BLACK
6
CONTINUOUS
10
206.733
20
-164.147
11
206.733
21
-165.195
0
LINE
8
BLACK
6
CONTINUOUS
10
206.733
20
-164.147
11
206.828
21
-163.957
0
LINE
8
BLACK
6
CONTINUOUS
10
206.828
20
-163.957
11
207.019
21
-163.861
0
LINE
8
BLACK
6
CONTINUOUS
10
207.019
20
-163.861
11
207.304
21
-163.861
0
LINE
8
BLACK
6
CONTINUOUS
10
207.304
20
-163.861
11
207.495
21
-163.957
0
LINE
8
BLACK
6
CONTINUOUS
10
207.495
20
-163.957
11
207.59
21
-164.147
0
LINE
8
BLACK
6
CONTINUOUS
10
207.59
20
-164.147
11
207.59
21
-165.195
0
LINE
8
BLACK
6
CONTINUOUS
10
208.542
20
-165.195
11
208.542
21
-163.861
0
LINE
8
BLACK
6
CONTINUOUS
10
208.542
20
-164.052
11
208.638
21
-163.957
0
LINE
8
BLACK
6
CONTINUOUS
10
208.638
20
-163.957
11
208.828
21
-163.861
0
LINE
8
BLACK
6
CONTINUOUS
10
208.828
20
-163.861
11
209.114
21
-163.861
0
LINE
8
BLACK
6
CONTINUOUS
10
209.114
20
-163.861
11
209.304
21
-163.957
0
LINE
8
BLACK
6
CONTINUOUS
10
209.304
20
-163.957
11
209.4
21
-164.147
0
LINE
8
BLACK
6
CONTINUOUS
10
209.4
20
-164.147
11
209.4
21
-165.195
0
LINE
8
BLACK
6
CONTINUOUS
10
209.4
20
-164.147
11
209.495
21
-163.957
0
LINE
8
BLACK
6
CONTINUOUS
10
209.495
20
-163.957
11
209.685
21
-163.861
0
LINE
8
BLACK
6
CONTINUOUS
10
209.685
20
-163.861
11
209.971
21
-163.861
0
LINE
8
BLACK
6
CONTINUOUS
10
209.971
20
-163.861
11
210.162
21
-163.957
0
LINE
8
BLACK
6
CONTINUOUS
10
210.162
20
-163.957
11
210.257
21
-164.147
0
LINE
8
BLACK
6
CONTINUOUS
10
210.257
20
-164.147
11
210.257
21
-165.195
0
LINE
8
BLACK
6
CONTINUOUS
10
214.162
20
-163.099
11
212.447
21
-165.671
0
LINE
8
BLACK
6
CONTINUOUS
10
216.733
20
-163.195
11
216.923
21
-163.195
0
LINE
8
BLACK
6
CONTINUOUS
10
216.923
20
-163.195
11
217.114
21
-163.29
0
LINE
8
BLACK
6
CONTINUOUS
10
217.114
20
-163.29
11
217.209
21
-163.385
0
LINE
8
BLACK
6
CONTINUOUS
10
217.209
20
-163.385
11
217.304
21
-163.576
0
LINE
8
BLACK
6
CONTINUOUS
10
217.304
20
-163.576
11
217.4
21
-163.957
0
LINE
8
BLACK
6
CONTINUOUS
10
217.4
20
-163.957
11
217.4
21
-164.433
0
LINE
8
BLACK
6
CONTINUOUS
10
217.4
20
-164.433
11
217.304
21
-164.814
0
LINE
8
BLACK
6
CONTINUOUS
10
217.304
20
-164.814
11
217.209
21
-165.004
0
LINE
8
BLACK
6
CONTINUOUS
10
217.209
20
-165.004
11
217.114
21
-165.099
0
LINE
8
BLACK
6
CONTINUOUS
10
217.114
20
-165.099
11
216.923
21
-165.195
0
LINE
8
BLACK
6
CONTINUOUS
10
216.923
20
-165.195
11
216.733
21
-165.195
0
LINE
8
BLACK
6
CONTINUOUS
10
216.733
20
-165.195
11
216.542
21
-165.099
0
LINE
8
BLACK
6
CONTINUOUS
10
216.542
20
-165.099
11
216.447
21
-165.004
0
LINE
8
BLACK
6
CONTINUOUS
10
216.447
20
-165.004
11
216.352
21
-164.814
0
LINE
8
BLACK
6
CONTINUOUS
10
216.352
20
-164.814
11
216.257
21
-164.433
0
LINE
8
BLACK
6
CONTINUOUS
10
216.257
20
-164.433
11
216.257
21
-163.957
0
LINE
8
BLACK
6
CONTINUOUS
10
216.257
20
-163.957
11
216.352
21
-163.576
0
LINE
8
BLACK
6
CONTINUOUS
10
216.352
20
-163.576
11
216.447
21
-163.385
0
LINE
8
BLACK
6
CONTINUOUS
10
216.447
20
-163.385
11
216.542
21
-163.29
0
LINE
8
BLACK
6
CONTINUOUS
10
216.542
20
-163.29
11
216.733
21
-163.195
0
LINE
8
BLACK
6
CONTINUOUS
10
218.257
20
-165.004
11
218.352
21
-165.099
0
LINE
8
BLACK
6
CONTINUOUS
10
218.352
20
-165.099
11
218.257
21
-165.195
0
LINE
8
BLACK
6
CONTINUOUS
10
218.257
20
-165.195
11
218.162
21
-165.099
0
LINE
8
BLACK
6
CONTINUOUS
10
218.162
20
-165.099
11
218.257
21
-165.004
0
LINE
8
BLACK
6
CONTINUOUS
10
218.257
20
-165.004
11
218.257
21
-165.195
0
LINE
8
BLACK
6
CONTINUOUS
10
219.59
20
-163.195
11
219.781
21
-163.195
0
LINE
8
BLACK
6
CONTINUOUS
10
219.781
20
-163.195
11
219.971
21
-163.29
0
LINE
8
BLACK
6
CONTINUOUS
10
219.971
20
-163.29
11
220.066
21
-163.385
0
LINE
8
BLACK
6
CONTINUOUS
10
220.066
20
-163.385
11
220.162
21
-163.576
0
LINE
8
BLACK
6
CONTINUOUS
10
220.162
20
-163.576
11
220.257
21
-163.957
0
LINE
8
BLACK
6
CONTINUOUS
10
220.257
20
-163.957
11
220.257
21
-164.433
0
LINE
8
BLACK
6
CONTINUOUS
10
220.257
20
-164.433
11
220.162
21
-164.814
0
LINE
8
BLACK
6
CONTINUOUS
10
220.162
20
-164.814
11
220.066
21
-165.004
0
LINE
8
BLACK
6
CONTINUOUS
10
220.066
20
-165.004
11
219.971
21
-165.099
0
LINE
8
BLACK
6
CONTINUOUS
10
219.971
20
-165.099
11
219.781
21
-165.195
0
LINE
8
BLACK
6
CONTINUOUS
10
219.781
20
-165.195
11
219.59
21
-165.195
0
LINE
8
BLACK
6
CONTINUOUS
10
219.59
20
-165.195
11
219.4
21
-165.099
0
LINE
8
BLACK
6
CONTINUOUS
10
219.4
20
-165.099
11
219.304
21
-165.004
0
LINE
8
BLACK
6
CONTINUOUS
10
219.304
20
-165.004
11
219.209
21
-164.814
0
LINE
8
BLACK
6
CONTINUOUS
10
219.209
20
-164.814
11
219.114
21
-164.433
0
LINE
8
BLACK
6
CONTINUOUS
10
219.114
20
-164.433
11
219.114
21
-163.957
0
LINE
8
BLACK
6
CONTINUOUS
10
219.114
20
-163.957
11
219.209
21
-163.576
0
LINE
8
BLACK
6
CONTINUOUS
10
219.209
20
-163.576
11
219.304
21
-163.385
0
LINE
8
BLACK
6
CONTINUOUS
10
219.304
20
-163.385
11
219.4
21
-163.29
0
LINE
8
BLACK
6
CONTINUOUS
10
219.4
20
-163.29
11
219.59
21
-163.195
0
LINE
8
BLACK
6
CONTINUOUS
10
221.4
20
-164.052
11
221.209
21
-163.957
0
LINE
8
BLACK
6
CONTINUOUS
10
221.209
20
-163.957
11
221.114
21
-163.861
0
LINE
8
BLACK
6
CONTINUOUS
10
221.114
20
-163.861
11
221.019
21
-163.671
0
LINE
8
BLACK
6
CONTINUOUS
10
221.019
20
-163.671
11
221.019
21
-163.576
0
LINE
8
BLACK
6
CONTINUOUS
10
221.019
20
-163.576
11
221.114
21
-163.385
0
LINE
8
BLACK
6
CONTINUOUS
10
221.114
20
-163.385
11
221.209
21
-163.29
0
LINE
8
BLACK
6
CONTINUOUS
10
221.209
20
-163.29
11
221.4
21
-163.195
0
LINE
8
BLACK
6
CONTINUOUS
10
221.4
20
-163.195
11
221.781
21
-163.195
0
LINE
8
BLACK
6
CONTINUOUS
10
221.781
20
-163.195
11
221.971
21
-163.29
0
LINE
8
BLACK
6
CONTINUOUS
10
221.971
20
-163.29
11
222.066
21
-163.385
0
LINE
8
BLACK
6
CONTINUOUS
10
222.066
20
-163.385
11
222.162
21
-163.576
0
LINE
8
BLACK
6
CONTINUOUS
10
222.162
20
-163.576
11
222.162
21
-163.671
0
LINE
8
BLACK
6
CONTINUOUS
10
222.162
20
-163.671
11
222.066
21
-163.861
0
LINE
8
BLACK
6
CONTINUOUS
10
222.066
20
-163.861
11
221.971
21
-163.957
0
LINE
8
BLACK
6
CONTINUOUS
10
221.971
20
-163.957
11
221.781
21
-164.052
0
LINE
8
BLACK
6
CONTINUOUS
10
221.781
20
-164.052
11
221.4
21
-164.052
0
LINE
8
BLACK
6
CONTINUOUS
10
221.4
20
-164.052
11
221.209
21
-164.147
0
LINE
8
BLACK
6
CONTINUOUS
10
221.209
20
-164.147
11
221.114
21
-164.242
0
LINE
8
BLACK
6
CONTINUOUS
10
221.114
20
-164.242
11
221.019
21
-164.433
0
LINE
8
BLACK
6
CONTINUOUS
10
221.019
20
-164.433
11
221.019
21
-164.814
0
LINE
8
BLACK
6
CONTINUOUS
10
221.019
20
-164.814
11
221.114
21
-165.004
0
LINE
8
BLACK
6
CONTINUOUS
10
221.114
20
-165.004
11
221.209
21
-165.099
0
LINE
8
BLACK
6
CONTINUOUS
10
221.209
20
-165.099
11
221.4
21
-165.195
0
LINE
8
BLACK
6
CONTINUOUS
10
221.4
20
-165.195
11
221.781
21
-165.195
0
LINE
8
BLACK
6
CONTINUOUS
10
221.781
20
-165.195
11
221.971
21
-165.099
0
LINE
8
BLACK
6
CONTINUOUS
10
221.971
20
-165.099
11
222.066
21
-165.004
0
LINE
8
BLACK
6
CONTINUOUS
10
222.066
20
-165.004
11
222.162
21
-164.814
0
LINE
8
BLACK
6
CONTINUOUS
10
222.162
20
-164.814
11
222.162
21
-164.433
0
LINE
8
BLACK
6
CONTINUOUS
10
222.162
20
-164.433
11
222.066
21
-164.242
0
LINE
8
BLACK
6
CONTINUOUS
10
222.066
20
-164.242
11
221.971
21
-164.147
0
LINE
8
BLACK
6
CONTINUOUS
10
221.971
20
-164.147
11
221.781
21
-164.052
0
LINE
8
BLACK
6
CONTINUOUS
10
223.876
20
-163.195
11
223.495
21
-163.195
0
LINE
8
BLACK
6
CONTINUOUS
10
223.495
20
-163.195
11
223.304
21
-163.29
0
LINE
8
BLACK
6
CONTINUOUS
10
223.304
20
-163.29
11
223.209
21
-163.385
0
LINE
8
BLACK
6
CONTINUOUS
10
223.209
20
-163.385
11
223.019
21
-163.671
0
LINE
8
BLACK
6
CONTINUOUS
10
223.019
20
-163.671
11
222.923
21
-164.052
0
LINE
8
BLACK
6
CONTINUOUS
10
222.923
20
-164.052
11
222.923
21
-164.814
0
LINE
8
BLACK
6
CONTINUOUS
10
222.923
20
-164.814
11
223.019
21
-165.004
0
LINE
8
BLACK
6
CONTINUOUS
10
223.019
20
-165.004
11
223.114
21
-165.099
0
LINE
8
BLACK
6
CONTINUOUS
10
223.114
20
-165.099
11
223.304
21
-165.195
0
LINE
8
BLACK
6
CONTINUOUS
10
223.304
20
-165.195
11
223.685
21
-165.195
0
LINE
8
BLACK
6
CONTINUOUS
10
223.685
20
-165.195
11
223.876
21
-165.099
0
LINE
8
BLACK
6
CONTINUOUS
10
223.876
20
-165.099
11
223.971
21
-165.004
0
LINE
8
BLACK
6
CONTINUOUS
10
223.971
20
-165.004
11
224.066
21
-164.814
0
LINE
8
BLACK
6
CONTINUOUS
10
224.066
20
-164.814
11
224.066
21
-164.338
0
LINE
8
BLACK
6
CONTINUOUS
10
224.066
20
-164.338
11
223.971
21
-164.147
0
LINE
8
BLACK
6
CONTINUOUS
10
223.971
20
-164.147
11
223.876
21
-164.052
0
LINE
8
BLACK
6
CONTINUOUS
10
223.876
20
-164.052
11
223.685
21
-163.957
0
LINE
8
BLACK
6
CONTINUOUS
10
223.685
20
-163.957
11
223.304
21
-163.957
0
LINE
8
BLACK
6
CONTINUOUS
10
223.304
20
-163.957
11
223.114
21
-164.052
0
LINE
8
BLACK
6
CONTINUOUS
10
223.114
20
-164.052
11
223.019
21
-164.147
0
LINE
8
BLACK
6
CONTINUOUS
10
223.019
20
-164.147
11
222.923
21
-164.338
0
LINE
8
BLACK
6
CONTINUOUS
10
225.781
20
-163.195
11
225.4
21
-163.195
0
LINE
8
BLACK
6
CONTINUOUS
10
225.4
20
-163.195
11
225.209
21
-163.29
0
LINE
8
BLACK
6
CONTINUOUS
10
225.209
20
-163.29
11
225.114
21
-163.385
0
LINE
8
BLACK
6
CONTINUOUS
10
225.114
20
-163.385
11
224.923
21
-163.671
0
LINE
8
BLACK
6
CONTINUOUS
10
224.923
20
-163.671
11
224.828
21
-164.052
0
LINE
8
BLACK
6
CONTINUOUS
10
224.828
20
-164.052
11
224.828
21
-164.814
0
LINE
8
BLACK
6
CONTINUOUS
10
224.828
20
-164.814
11
224.923
21
-165.004
0
LINE
8
BLACK
6
CONTINUOUS
10
224.923
20
-165.004
11
225.019
21
-165.099
0
LINE
8
BLACK
6
CONTINUOUS
10
225.019
20
-165.099
11
225.209
21
-165.195
0
LINE
8
BLACK
6
CONTINUOUS
10
225.209
20
-165.195
11
225.59
21
-165.195
0
LINE
8
BLACK
6
CONTINUOUS
10
225.59
20
-165.195
11
225.781
21
-165.099
0
LINE
8
BLACK
6
CONTINUOUS
10
225.781
20
-165.099
11
225.876
21
-165.004
0
LINE
8
BLACK
6
CONTINUOUS
10
225.876
20
-165.004
11
225.971
21
-164.814
0
LINE
8
BLACK
6
CONTINUOUS
10
225.971
20
-164.814
11
225.971
21
-164.338
0
LINE
8
BLACK
6
CONTINUOUS
10
225.971
20
-164.338
11
225.876
21
-164.147
0
LINE
8
BLACK
6
CONTINUOUS
10
225.876
20
-164.147
11
225.781
21
-164.052
0
LINE
8
BLACK
6
CONTINUOUS
10
225.781
20
-164.052
11
225.59
21
-163.957
0
LINE
8
BLACK
6
CONTINUOUS
10
225.59
20
-163.957
11
225.209
21
-163.957
0
LINE
8
BLACK
6
CONTINUOUS
10
225.209
20
-163.957
11
225.019
21
-164.052
0
LINE
8
BLACK
6
CONTINUOUS
10
225.019
20
-164.052
11
224.923
21
-164.147
0
LINE
8
BLACK
6
CONTINUOUS
10
224.923
20
-164.147
11
224.828
21
-164.338
0
LINE
8
BLACK
6
CONTINUOUS
10
226.733
20
-163.195
11
226.733
21
-163.576
0
LINE
8
BLACK
6
CONTINUOUS
10
227.495
20
-163.195
11
227.495
21
-163.576
0
LINE
8
BLACK
6
CONTINUOUS
10
230.447
20
-165.957
11
230.352
21
-165.861
0
LINE
8
BLACK
6
CONTINUOUS
10
230.352
20
-165.861
11
230.162
21
-165.576
0
LINE
8
BLACK
6
CONTINUOUS
10
230.162
20
-165.576
11
230.066
21
-165.385
0
LINE
8
BLACK
6
CONTINUOUS
10
230.066
20
-165.385
11
229.971
21
-165.099
0
LINE
8
BLACK
6
CONTINUOUS
10
229.971
20
-165.099
11
229.876
21
-164.623
0
LINE
8
BLACK
6
CONTINUOUS
10
229.876
20
-164.623
11
229.876
21
-164.242
0
LINE
8
BLACK
6
CONTINUOUS
10
229.876
20
-164.242
11
229.971
21
-163.766
0
LINE
8
BLACK
6
CONTINUOUS
10
229.971
20
-163.766
11
230.066
21
-163.48
0
LINE
8
BLACK
6
CONTINUOUS
10
230.066
20
-163.48
11
230.162
21
-163.29
0
LINE
8
BLACK
6
CONTINUOUS
10
230.162
20
-163.29
11
230.352
21
-163.004
0
LINE
8
BLACK
6
CONTINUOUS
10
230.352
20
-163.004
11
230.447
21
-162.909
0
LINE
8
BLACK
6
CONTINUOUS
10
231.019
20
-163.195
11
232.257
21
-163.195
0
LINE
8
BLACK
6
CONTINUOUS
10
232.257
20
-163.195
11
231.59
21
-163.957
0
LINE
8
BLACK
6
CONTINUOUS
10
231.59
20
-163.957
11
231.876
21
-163.957
0
LINE
8
BLACK
6
CONTINUOUS
10
231.876
20
-163.957
11
232.066
21
-164.052
0
LINE
8
BLACK
6
CONTINUOUS
10
232.066
20
-164.052
11
232.162
21
-164.147
0
LINE
8
BLACK
6
CONTINUOUS
10
232.162
20
-164.147
11
232.257
21
-164.338
0
LINE
8
BLACK
6
CONTINUOUS
10
232.257
20
-164.338
11
232.257
21
-164.814
0
LINE
8
BLACK
6
CONTINUOUS
10
232.257
20
-164.814
11
232.162
21
-165.004
0
LINE
8
BLACK
6
CONTINUOUS
10
232.162
20
-165.004
11
232.066
21
-165.099
0
LINE
8
BLACK
6
CONTINUOUS
10
232.066
20
-165.099
11
231.876
21
-165.195
0
LINE
8
BLACK
6
CONTINUOUS
10
231.876
20
-165.195
11
231.304
21
-165.195
0
LINE
8
BLACK
6
CONTINUOUS
10
231.304
20
-165.195
11
231.114
21
-165.099
0
LINE
8
BLACK
6
CONTINUOUS
10
231.114
20
-165.099
11
231.019
21
-165.004
0
LINE
8
BLACK
6
CONTINUOUS
10
234.638
20
-165.195
11
234.638
21
-163.195
0
LINE
8
BLACK
6
CONTINUOUS
10
235.495
20
-165.195
11
235.495
21
-164.147
0
LINE
8
BLACK
6
CONTINUOUS
10
235.495
20
-164.147
11
235.4
21
-163.957
0
LINE
8
BLACK
6
CONTINUOUS
10
235.4
20
-163.957
11
235.209
21
-163.861
0
LINE
8
BLACK
6
CONTINUOUS
10
235.209
20
-163.861
11
234.923
21
-163.861
0
LINE
8
BLACK
6
CONTINUOUS
10
234.923
20
-163.861
11
234.733
21
-163.957
0
LINE
8
BLACK
6
CONTINUOUS
10
234.733
20
-163.957
11
234.638
21
-164.052
0
LINE
8
BLACK
6
CONTINUOUS
10
236.733
20
-165.195
11
236.542
21
-165.099
0
LINE
8
BLACK
6
CONTINUOUS
10
236.542
20
-165.099
11
236.447
21
-165.004
0
LINE
8
BLACK
6
CONTINUOUS
10
236.447
20
-165.004
11
236.352
21
-164.814
0
LINE
8
BLACK
6
CONTINUOUS
10
236.352
20
-164.814
11
236.352
21
-164.242
0
LINE
8
BLACK
6
CONTINUOUS
10
236.352
20
-164.242
11
236.447
21
-164.052
0
LINE
8
BLACK
6
CONTINUOUS
10
236.447
20
-164.052
11
236.542
21
-163.957
0
LINE
8
BLACK
6
CONTINUOUS
10
236.542
20
-163.957
11
236.733
21
-163.861
0
LINE
8
BLACK
6
CONTINUOUS
10
236.733
20
-163.861
11
237.019
21
-163.861
0
LINE
8
BLACK
6
CONTINUOUS
10
237.019
20
-163.861
11
237.209
21
-163.957
0
LINE
8
BLACK
6
CONTINUOUS
10
237.209
20
-163.957
11
237.304
21
-164.052
0
LINE
8
BLACK
6
CONTINUOUS
10
237.304
20
-164.052
11
237.4
21
-164.242
0
LINE
8
BLACK
6
CONTINUOUS
10
237.4
20
-164.242
11
237.4
21
-164.814
0
LINE
8
BLACK
6
CONTINUOUS
10
237.4
20
-164.814
11
237.304
21
-165.004
0
LINE
8
BLACK
6
CONTINUOUS
10
237.304
20
-165.004
11
237.209
21
-165.099
0
LINE
8
BLACK
6
CONTINUOUS
10
237.209
20
-165.099
11
237.019
21
-165.195
0
LINE
8
BLACK
6
CONTINUOUS
10
237.019
20
-165.195
11
236.733
21
-165.195
0
LINE
8
BLACK
6
CONTINUOUS
10
238.542
20
-165.195
11
238.352
21
-165.099
0
LINE
8
BLACK
6
CONTINUOUS
10
238.352
20
-165.099
11
238.257
21
-164.909
0
LINE
8
BLACK
6
CONTINUOUS
10
238.257
20
-164.909
11
238.257
21
-163.195
0
LINE
8
BLACK
6
CONTINUOUS
10
240.066
20
-165.099
11
239.876
21
-165.195
0
LINE
8
BLACK
6
CONTINUOUS
10
239.876
20
-165.195
11
239.495
21
-165.195
0
LINE
8
BLACK
6
CONTINUOUS
10
239.495
20
-165.195
11
239.304
21
-165.099
0
LINE
8
BLACK
6
CONTINUOUS
10
239.304
20
-165.099
11
239.209
21
-164.909
0
LINE
8
BLACK
6
CONTINUOUS
10
239.209
20
-164.909
11
239.209
21
-164.147
0
LINE
8
BLACK
6
CONTINUOUS
10
239.209
20
-164.147
11
239.304
21
-163.957
0
LINE
8
BLACK
6
CONTINUOUS
10
239.304
20
-163.957
11
239.495
21
-163.861
0
LINE
8
BLACK
6
CONTINUOUS
10
239.495
20
-163.861
11
239.876
21
-163.861
0
LINE
8
BLACK
6
CONTINUOUS
10
239.876
20
-163.861
11
240.066
21
-163.957
0
LINE
8
BLACK
6
CONTINUOUS
10
240.066
20
-163.957
11
240.162
21
-164.147
0
LINE
8
BLACK
6
CONTINUOUS
10
240.162
20
-164.147
11
240.162
21
-164.338
0
LINE
8
BLACK
6
CONTINUOUS
10
240.162
20
-164.338
11
239.209
21
-164.528
0
LINE
8
BLACK
6
CONTINUOUS
10
240.923
20
-165.099
11
241.114
21
-165.195
0
LINE
8
BLACK
6
CONTINUOUS
10
241.114
20
-165.195
11
241.495
21
-165.195
0
LINE
8
BLACK
6
CONTINUOUS
10
241.495
20
-165.195
11
241.685
21
-165.099
0
LINE
8
BLACK
6
CONTINUOUS
10
241.685
20
-165.099
11
241.781
21
-164.909
0
LINE
8
BLACK
6
CONTINUOUS
10
241.781
20
-164.909
11
241.781
21
-164.814
0
LINE
8
BLACK
6
CONTINUOUS
10
241.781
20
-164.814
11
241.685
21
-164.623
0
LINE
8
BLACK
6
CONTINUOUS
10
241.685
20
-164.623
11
241.495
21
-164.528
0
LINE
8
BLACK
6
CONTINUOUS
10
241.495
20
-164.528
11
241.209
21
-164.528
0
LINE
8
BLACK
6
CONTINUOUS
10
241.209
20
-164.528
11
241.019
21
-164.433
0
LINE
8
BLACK
6
CONTINUOUS
10
241.019
20
-164.433
11
240.923
21
-164.242
0
LINE
8
BLACK
6
CONTINUOUS
10
240.923
20
-164.242
11
240.923
21
-164.147
0
LINE
8
BLACK
6
CONTINUOUS
10
240.923
20
-164.147
11
241.019
21
-163.957
0
LINE
8
BLACK
6
CONTINUOUS
10
241.019
20
-163.957
11
241.209
21
-163.861
0
LINE
8
BLACK
6
CONTINUOUS
10
241.209
20
-163.861
11
241.495
21
-163.861
0
LINE
8
BLACK
6
CONTINUOUS
10
241.495
20
-163.861
11
241.685
21
-163.957
0
LINE
8
BLACK
6
CONTINUOUS
10
242.447
20
-165.957
11
242.542
21
-165.861
0
LINE
8
BLACK
6
CONTINUOUS
10
242.542
20
-165.861
11
242.733
21
-165.576
0
LINE
8
BLACK
6
CONTINUOUS
10
242.733
20
-165.576
11
242.828
21
-165.385
0
LINE
8
BLACK
6
CONTINUOUS
10
242.828
20
-165.385
11
242.923
21
-165.099
0
LINE
8
BLACK
6
CONTINUOUS
10
242.923
20
-165.099
11
243.019
21
-164.623
0
LINE
8
BLACK
6
CONTINUOUS
10
243.019
20
-164.623
11
243.019
21
-164.242
0
LINE
8
BLACK
6
CONTINUOUS
10
243.019
20
-164.242
11
242.923
21
-163.766
0
LINE
8
BLACK
6
CONTINUOUS
10
242.923
20
-163.766
11
242.828
21
-163.48
0
LINE
8
BLACK
6
CONTINUOUS
10
242.828
20
-163.48
11
242.733
21
-163.29
0
LINE
8
BLACK
6
CONTINUOUS
10
242.733
20
-163.29
11
242.542
21
-163.004
0
LINE
8
BLACK
6
CONTINUOUS
10
242.542
20
-163.004
11
242.447
21
-162.909
0
LINE
8
BLACK
6
CONTINUOUS
10
192.728
20
-166.49
11
194.728
21
-168.49
0
LINE
8
BLACK
6
CONTINUOUS
10
194.728
20
-166.49
11
192.728
21
-168.49
0
CIRCLE
8
BLACK
10
193.728
20
-167.49
40
1
0
LINE
8
BLACK
6
CONTINUOUS
10
197.114
20
-166.395
11
198.352
21
-166.395
0
LINE
8
BLACK
6
CONTINUOUS
10
198.352
20
-166.395
11
197.685
21
-167.157
0
LINE
8
BLACK
6
CONTINUOUS
10
197.685
20
-167.157
11
197.971
21
-167.157
0
LINE
8
BLACK
6
CONTINUOUS
10
197.971
20
-167.157
11
198.162
21
-167.252
0
LINE
8
BLACK
6
CONTINUOUS
10
198.162
20
-167.252
11
198.257
21
-167.347
0
LINE
8
BLACK
6
CONTINUOUS
10
198.257
20
-167.347
11
198.352
21
-167.538
0
LINE
8
BLACK
6
CONTINUOUS
10
198.352
20
-167.538
11
198.352
21
-168.014
0
LINE
8
BLACK
6
CONTINUOUS
10
198.352
20
-168.014
11
198.257
21
-168.204
0
LINE
8
BLACK
6
CONTINUOUS
10
198.257
20
-168.204
11
198.162
21
-168.299
0
LINE
8
BLACK
6
CONTINUOUS
10
198.162
20
-168.299
11
197.971
21
-168.395
0
LINE
8
BLACK
6
CONTINUOUS
10
197.971
20
-168.395
11
197.4
21
-168.395
0
LINE
8
BLACK
6
CONTINUOUS
10
197.4
20
-168.395
11
197.209
21
-168.299
0
LINE
8
BLACK
6
CONTINUOUS
10
197.209
20
-168.299
11
197.114
21
-168.204
0
LINE
8
BLACK
6
CONTINUOUS
10
199.209
20
-168.204
11
199.304
21
-168.299
0
LINE
8
BLACK
6
CONTINUOUS
10
199.304
20
-168.299
11
199.209
21
-168.395
0
LINE
8
BLACK
6
CONTINUOUS
10
199.209
20
-168.395
11
199.114
21
-168.299
0
LINE
8
BLACK
6
CONTINUOUS
10
199.114
20
-168.299
11
199.209
21
-168.204
0
LINE
8
BLACK
6
CONTINUOUS
10
199.209
20
-168.204
11
199.209
21
-168.395
0
LINE
8
BLACK
6
CONTINUOUS
10
200.542
20
-166.395
11
200.733
21
-166.395
0
LINE
8
BLACK
6
CONTINUOUS
10
200.733
20
-166.395
11
200.923
21
-166.49
0
LINE
8
BLACK
6
CONTINUOUS
10
200.923
20
-166.49
11
201.019
21
-166.585
0
LINE
8
BLACK
6
CONTINUOUS
10
201.019
20
-166.585
11
201.114
21
-166.776
0
LINE
8
BLACK
6
CONTINUOUS
10
201.114
20
-166.776
11
201.209
21
-167.157
0
LINE
8
BLACK
6
CONTINUOUS
10
201.209
20
-167.157
11
201.209
21
-167.633
0
LINE
8
BLACK
6
CONTINUOUS
10
201.209
20
-167.633
11
201.114
21
-168.014
0
LINE
8
BLACK
6
CONTINUOUS
10
201.114
20
-168.014
11
201.019
21
-168.204
0
LINE
8
BLACK
6
CONTINUOUS
10
201.019
20
-168.204
11
200.923
21
-168.299
0
LINE
8
BLACK
6
CONTINUOUS
10
200.923
20
-168.299
11
200.733
21
-168.395
0
LINE
8
BLACK
6
CONTINUOUS
10
200.733
20
-168.395
11
200.542
21
-168.395
0
LINE
8
BLACK
6
CONTINUOUS
10
200.542
20
-168.395
11
200.352
21
-168.299
0
LINE
8
BLACK
6
CONTINUOUS
10
200.352
20
-168.299
11
200.257
21
-168.204
0
LINE
8
BLACK
6
CONTINUOUS
10
200.257
20
-168.204
11
200.162
21
-168.014
0
LINE
8
BLACK
6
CONTINUOUS
10
200.162
20
-168.014
11
200.066
21
-167.633
0
LINE
8
BLACK
6
CONTINUOUS
10
200.066
20
-167.633
11
200.066
21
-167.157
0
LINE
8
BLACK
6
CONTINUOUS
10
200.066
20
-167.157
11
200.162
21
-166.776
0
LINE
8
BLACK
6
CONTINUOUS
10
200.162
20
-166.776
11
200.257
21
-166.585
0
LINE
8
BLACK
6
CONTINUOUS
10
200.257
20
-166.585
11
200.352
21
-166.49
0
LINE
8
BLACK
6
CONTINUOUS
10
200.352
20
-166.49
11
200.542
21
-166.395
0
LINE
8
BLACK
6
CONTINUOUS
10
202.447
20
-166.395
11
202.638
21
-166.395
0
LINE
8
BLACK
6
CONTINUOUS
10
202.638
20
-166.395
11
202.828
21
-166.49
0
LINE
8
BLACK
6
CONTINUOUS
10
202.828
20
-166.49
11
202.923
21
-166.585
0
LINE
8
BLACK
6
CONTINUOUS
10
202.923
20
-166.585
11
203.019
21
-166.776
0
LINE
8
BLACK
6
CONTINUOUS
10
203.019
20
-166.776
11
203.114
21
-167.157
0
LINE
8
BLACK
6
CONTINUOUS
10
203.114
20
-167.157
11
203.114
21
-167.633
0
LINE
8
BLACK
6
CONTINUOUS
10
203.114
20
-167.633
11
203.019
21
-168.014
0
LINE
8
BLACK
6
CONTINUOUS
10
203.019
20
-168.014
11
202.923
21
-168.204
0
LINE
8
BLACK
6
CONTINUOUS
10
202.923
20
-168.204
11
202.828
21
-168.299
0
LINE
8
BLACK
6
CONTINUOUS
10
202.828
20
-168.299
11
202.638
21
-168.395
0
LINE
8
BLACK
6
CONTINUOUS
10
202.638
20
-168.395
11
202.447
21
-168.395
0
LINE
8
BLACK
6
CONTINUOUS
10
202.447
20
-168.395
11
202.257
21
-168.299
0
LINE
8
BLACK
6
CONTINUOUS
10
202.257
20
-168.299
11
202.162
21
-168.204
0
LINE
8
BLACK
6
CONTINUOUS
10
202.162
20
-168.204
11
202.066
21
-168.014
0
LINE
8
BLACK
6
CONTINUOUS
10
202.066
20
-168.014
11
201.971
21
-167.633
0
LINE
8
BLACK
6
CONTINUOUS
10
201.971
20
-167.633
11
201.971
21
-167.157
0
LINE
8
BLACK
6
CONTINUOUS
10
201.971
20
-167.157
11
202.066
21
-166.776
0
LINE
8
BLACK
6
CONTINUOUS
10
202.066
20
-166.776
11
202.162
21
-166.585
0
LINE
8
BLACK
6
CONTINUOUS
10
202.162
20
-166.585
11
202.257
21
-166.49
0
LINE
8
BLACK
6
CONTINUOUS
10
202.257
20
-166.49
11
202.447
21
-166.395
0
LINE
8
BLACK
6
CONTINUOUS
10
204.352
20
-166.395
11
204.542
21
-166.395
0
LINE
8
BLACK
6
CONTINUOUS
10
204.542
20
-166.395
11
204.733
21
-166.49
0
LINE
8
BLACK
6
CONTINUOUS
10
204.733
20
-166.49
11
204.828
21
-166.585
0
LINE
8
BLACK
6
CONTINUOUS
10
204.828
20
-166.585
11
204.923
21
-166.776
0
LINE
8
BLACK
6
CONTINUOUS
10
204.923
20
-166.776
11
205.019
21
-167.157
0
LINE
8
BLACK
6
CONTINUOUS
10
205.019
20
-167.157
11
205.019
21
-167.633
0
LINE
8
BLACK
6
CONTINUOUS
10
205.019
20
-167.633
11
204.923
21
-168.014
0
LINE
8
BLACK
6
CONTINUOUS
10
204.923
20
-168.014
11
204.828
21
-168.204
0
LINE
8
BLACK
6
CONTINUOUS
10
204.828
20
-168.204
11
204.733
21
-168.299
0
LINE
8
BLACK
6
CONTINUOUS
10
204.733
20
-168.299
11
204.542
21
-168.395
0
LINE
8
BLACK
6
CONTINUOUS
10
204.542
20
-168.395
11
204.352
21
-168.395
0
LINE
8
BLACK
6
CONTINUOUS
10
204.352
20
-168.395
11
204.162
21
-168.299
0
LINE
8
BLACK
6
CONTINUOUS
10
204.162
20
-168.299
11
204.066
21
-168.204
0
LINE
8
BLACK
6
CONTINUOUS
10
204.066
20
-168.204
11
203.971
21
-168.014
0
LINE
8
BLACK
6
CONTINUOUS
10
203.971
20
-168.014
11
203.876
21
-167.633
0
LINE
8
BLACK
6
CONTINUOUS
10
203.876
20
-167.633
11
203.876
21
-167.157
0
LINE
8
BLACK
6
CONTINUOUS
10
203.876
20
-167.157
11
203.971
21
-166.776
0
LINE
8
BLACK
6
CONTINUOUS
10
203.971
20
-166.776
11
204.066
21
-166.585
0
LINE
8
BLACK
6
CONTINUOUS
10
204.066
20
-166.585
11
204.162
21
-166.49
0
LINE
8
BLACK
6
CONTINUOUS
10
204.162
20
-166.49
11
204.352
21
-166.395
0
LINE
8
BLACK
6
CONTINUOUS
10
205.876
20
-168.395
11
205.876
21
-167.061
0
LINE
8
BLACK
6
CONTINUOUS
10
205.876
20
-167.252
11
205.971
21
-167.157
0
LINE
8
BLACK
6
CONTINUOUS
10
205.971
20
-167.157
11
206.162
21
-167.061
0
LINE
8
BLACK
6
CONTINUOUS
10
206.162
20
-167.061
11
206.447
21
-167.061
0
LINE
8
BLACK
6
CONTINUOUS
10
206.447
20
-167.061
11
206.638
21
-167.157
0
LINE
8
BLACK
6
CONTINUOUS
10
206.638
20
-167.157
11
206.733
21
-167.347
0
LINE
8
BLACK
6
CONTINUOUS
10
206.733
20
-167.347
11
206.733
21
-168.395
0
LINE
8
BLACK
6
CONTINUOUS
10
206.733
20
-167.347
11
206.828
21
-167.157
0
LINE
8
BLACK
6
CONTINUOUS
10
206.828
20
-167.157
11
207.019
21
-167.061
0
LINE
8
BLACK
6
CONTINUOUS
10
207.019
20
-167.061
11
207.304
21
-167.061
0
LINE
8
BLACK
6
CONTINUOUS
10
207.304
20
-167.061
11
207.495
21
-167.157
0
LINE
8
BLACK
6
CONTINUOUS
10
207.495
20
-167.157
11
207.59
21
-167.347
0
LINE
8
BLACK
6
CONTINUOUS
10
207.59
20
-167.347
11
207.59
21
-168.395
0
LINE
8
BLACK
6
CONTINUOUS
10
208.542
20
-168.395
11
208.542
21
-167.061
0
LINE
8
BLACK
6
CONTINUOUS
10
208.542
20
-167.252
11
208.638
21
-167.157
0
LINE
8
BLACK
6
CONTINUOUS
10
208.638
20
-167.157
11
208.828
21
-167.061
0
LINE
8
BLACK
6
CONTINUOUS
10
208.828
20
-167.061
11
209.114
21
-167.061
0
LINE
8
BLACK
6
CONTINUOUS
10
209.114
20
-167.061
11
209.304
21
-167.157
0
LINE
8
BLACK
6
CONTINUOUS
10
209.304
20
-167.157
11
209.4
21
-167.347
0
LINE
8
BLACK
6
CONTINUOUS
10
209.4
20
-167.347
11
209.4
21
-168.395
0
LINE
8
BLACK
6
CONTINUOUS
10
209.4
20
-167.347
11
209.495
21
-167.157
0
LINE
8
BLACK
6
CONTINUOUS
10
209.495
20
-167.157
11
209.685
21
-167.061
0
LINE
8
BLACK
6
CONTINUOUS
10
209.685
20
-167.061
11
209.971
21
-167.061
0
LINE
8
BLACK
6
CONTINUOUS
10
209.971
20
-167.061
11
210.162
21
-167.157
0
LINE
8
BLACK
6
CONTINUOUS
10
210.162
20
-167.157
11
210.257
21
-167.347
0
LINE
8
BLACK
6
CONTINUOUS
10
210.257
20
-167.347
11
210.257
21
-168.395
0
LINE
8
BLACK
6
CONTINUOUS
10
214.162
20
-166.299
11
212.447
21
-168.871
0
LINE
8
BLACK
6
CONTINUOUS
10
216.733
20
-166.395
11
216.923
21
-166.395
0
LINE
8
BLACK
6
CONTINUOUS
10
216.923
20
-166.395
11
217.114
21
-166.49
0
LINE
8
BLACK
6
CONTINUOUS
10
217.114
20
-166.49
11
217.209
21
-166.585
0
LINE
8
BLACK
6
CONTINUOUS
10
217.209
20
-166.585
11
217.304
21
-166.776
0
LINE
8
BLACK
6
CONTINUOUS
10
217.304
20
-166.776
11
217.4
21
-167.157
0
LINE
8
BLACK
6
CONTINUOUS
10
217.4
20
-167.157
11
217.4
21
-167.633
0
LINE
8
BLACK
6
CONTINUOUS
10
217.4
20
-167.633
11
217.304
21
-168.014
0
LINE
8
BLACK
6
CONTINUOUS
10
217.304
20
-168.014
11
217.209
21
-168.204
0
LINE
8
BLACK
6
CONTINUOUS
10
217.209
20
-168.204
11
217.114
21
-168.299
0
LINE
8
BLACK
6
CONTINUOUS
10
217.114
20
-168.299
11
216.923
21
-168.395
0
LINE
8
BLACK
6
CONTINUOUS
10
216.923
20
-168.395
11
216.733
21
-168.395
0
LINE
8
BLACK
6
CONTINUOUS
10
216.733
20
-168.395
11
216.542
21
-168.299
0
LINE
8
BLACK
6
CONTINUOUS
10
216.542
20
-168.299
11
216.447
21
-168.204
0
LINE
8
BLACK
6
CONTINUOUS
10
216.447
20
-168.204
11
216.352
21
-168.014
0
LINE
8
BLACK
6
CONTINUOUS
10
216.352
20
-168.014
11
216.257
21
-167.633
0
LINE
8
BLACK
6
CONTINUOUS
10
216.257
20
-167.633
11
216.257
21
-167.157
0
LINE
8
BLACK
6
CONTINUOUS
10
216.257
20
-167.157
11
216.352
21
-166.776
0
LINE
8
BLACK
6
CONTINUOUS
10
216.352
20
-166.776
11
216.447
21
-166.585
0
LINE
8
BLACK
6
CONTINUOUS
10
216.447
20
-166.585
11
216.542
21
-166.49
0
LINE
8
BLACK
6
CONTINUOUS
10
216.542
20
-166.49
11
216.733
21
-166.395
0
LINE
8
BLACK
6
CONTINUOUS
10
218.257
20
-168.204
11
218.352
21
-168.299
0
LINE
8
BLACK
6
CONTINUOUS
10
218.352
20
-168.299
11
218.257
21
-168.395
0
LINE
8
BLACK
6
CONTINUOUS
10
218.257
20
-168.395
11
218.162
21
-168.299
0
LINE
8
BLACK
6
CONTINUOUS
10
218.162
20
-168.299
11
218.257
21
-168.204
0
LINE
8
BLACK
6
CONTINUOUS
10
218.257
20
-168.204
11
218.257
21
-168.395
0
LINE
8
BLACK
6
CONTINUOUS
10
220.257
20
-168.395
11
219.114
21
-168.395
0
LINE
8
BLACK
6
CONTINUOUS
10
219.685
20
-168.395
11
219.685
21
-166.395
0
LINE
8
BLACK
6
CONTINUOUS
10
219.685
20
-166.395
11
219.495
21
-166.68
0
LINE
8
BLACK
6
CONTINUOUS
10
219.495
20
-166.68
11
219.304
21
-166.871
0
LINE
8
BLACK
6
CONTINUOUS
10
219.304
20
-166.871
11
219.114
21
-166.966
0
LINE
8
BLACK
6
CONTINUOUS
10
222.162
20
-168.395
11
221.019
21
-168.395
0
LINE
8
BLACK
6
CONTINUOUS
10
221.59
20
-168.395
11
221.59
21
-166.395
0
LINE
8
BLACK
6
CONTINUOUS
10
221.59
20
-166.395
11
221.4
21
-166.68
0
LINE
8
BLACK
6
CONTINUOUS
10
221.4
20
-166.68
11
221.209
21
-166.871
0
LINE
8
BLACK
6
CONTINUOUS
10
221.209
20
-166.871
11
221.019
21
-166.966
0
LINE
8
BLACK
6
CONTINUOUS
10
223.304
20
-167.252
11
223.114
21
-167.157
0
LINE
8
BLACK
6
CONTINUOUS
10
223.114
20
-167.157
11
223.019
21
-167.061
0
LINE
8
BLACK
6
CONTINUOUS
10
223.019
20
-167.061
11
222.923
21
-166.871
0
LINE
8
BLACK
6
CONTINUOUS
10
222.923
20
-166.871
11
222.923
21
-166.776
0
LINE
8
BLACK
6
CONTINUOUS
10
222.923
20
-166.776
11
223.019
21
-166.585
0
LINE
8
BLACK
6
CONTINUOUS
10
223.019
20
-166.585
11
223.114
21
-166.49
0
LINE
8
BLACK
6
CONTINUOUS
10
223.114
20
-166.49
11
223.304
21
-166.395
0
LINE
8
BLACK
6
CONTINUOUS
10
223.304
20
-166.395
11
223.685
21
-166.395
0
LINE
8
BLACK
6
CONTINUOUS
10
223.685
20
-166.395
11
223.876
21
-166.49
0
LINE
8
BLACK
6
CONTINUOUS
10
223.876
20
-166.49
11
223.971
21
-166.585
0
LINE
8
BLACK
6
CONTINUOUS
10
223.971
20
-166.585
11
224.066
21
-166.776
0
LINE
8
BLACK
6
CONTINUOUS
10
224.066
20
-166.776
11
224.066
21
-166.871
0
LINE
8
BLACK
6
CONTINUOUS
10
224.066
20
-166.871
11
223.971
21
-167.061
0
LINE
8
BLACK
6
CONTINUOUS
10
223.971
20
-167.061
11
223.876
21
-167.157
0
LINE
8
BLACK
6
CONTINUOUS
10
223.876
20
-167.157
11
223.685
21
-167.252
0
LINE
8
BLACK
6
CONTINUOUS
10
223.685
20
-167.252
11
223.304
21
-167.252
0
LINE
8
BLACK
6
CONTINUOUS
10
223.304
20
-167.252
11
223.114
21
-167.347
0
LINE
8
BLACK
6
CONTINUOUS
10
223.114
20
-167.347
11
223.019
21
-167.442
0
LINE
8
BLACK
6
CONTINUOUS
10
223.019
20
-167.442
11
222.923
21
-167.633
0
LINE
8
BLACK
6
CONTINUOUS
10
222.923
20
-167.633
11
222.923
21
-168.014
0
LINE
8
BLACK
6
CONTINUOUS
10
222.923
20
-168.014
11
223.019
21
-168.204
0
LINE
8
BLACK
6
CONTINUOUS
10
223.019
20
-168.204
11
223.114
21
-168.299
0
LINE
8
BLACK
6
CONTINUOUS
10
223.114
20
-168.299
11
223.304
21
-168.395
0
LINE
8
BLACK
6
CONTINUOUS
10
223.304
20
-168.395
11
223.685
21
-168.395
0
LINE
8
BLACK
6
CONTINUOUS
10
223.685
20
-168.395
11
223.876
21
-168.299
0
LINE
8
BLACK
6
CONTINUOUS
10
223.876
20
-168.299
11
223.971
21
-168.204
0
LINE
8
BLACK
6
CONTINUOUS
10
223.971
20
-168.204
11
224.066
21
-168.014
0
LINE
8
BLACK
6
CONTINUOUS
10
224.066
20
-168.014
11
224.066
21
-167.633
0
LINE
8
BLACK
6
CONTINUOUS
10
224.066
20
-167.633
11
223.971
21
-167.442
0
LINE
8
BLACK
6
CONTINUOUS
10
223.971
20
-167.442
11
223.876
21
-167.347
0
LINE
8
BLACK
6
CONTINUOUS
10
223.876
20
-167.347
11
223.685
21
-167.252
0
LINE
8
BLACK
6
CONTINUOUS
10
225.971
20
-168.395
11
224.828
21
-168.395
0
LINE
8
BLACK
6
CONTINUOUS
10
225.4
20
-168.395
11
225.4
21
-166.395
0
LINE
8
BLACK
6
CONTINUOUS
10
225.4
20
-166.395
11
225.209
21
-166.68
0
LINE
8
BLACK
6
CONTINUOUS
10
225.209
20
-166.68
11
225.019
21
-166.871
0
LINE
8
BLACK
6
CONTINUOUS
10
225.019
20
-166.871
11
224.828
21
-166.966
0
LINE
8
BLACK
6
CONTINUOUS
10
226.733
20
-166.395
11
226.733
21
-166.776
0
LINE
8
BLACK
6
CONTINUOUS
10
227.495
20
-166.395
11
227.495
21
-166.776
0
LINE
8
BLACK
6
CONTINUOUS
10
230.447
20
-169.157
11
230.352
21
-169.061
0
LINE
8
BLACK
6
CONTINUOUS
10
230.352
20
-169.061
11
230.162
21
-168.776
0
LINE
8
BLACK
6
CONTINUOUS
10
230.162
20
-168.776
11
230.066
21
-168.585
0
LINE
8
BLACK
6
CONTINUOUS
10
230.066
20
-168.585
11
229.971
21
-168.299
0
LINE
8
BLACK
6
CONTINUOUS
10
229.971
20
-168.299
11
229.876
21
-167.823
0
LINE
8
BLACK
6
CONTINUOUS
10
229.876
20
-167.823
11
229.876
21
-167.442
0
LINE
8
BLACK
6
CONTINUOUS
10
229.876
20
-167.442
11
229.971
21
-166.966
0
LINE
8
BLACK
6
CONTINUOUS
10
229.971
20
-166.966
11
230.066
21
-166.68
0
LINE
8
BLACK
6
CONTINUOUS
10
230.066
20
-166.68
11
230.162
21
-166.49
0
LINE
8
BLACK
6
CONTINUOUS
10
230.162
20
-166.49
11
230.352
21
-166.204
0
LINE
8
BLACK
6
CONTINUOUS
10
230.352
20
-166.204
11
230.447
21
-166.109
0
LINE
8
BLACK
6
CONTINUOUS
10
232.066
20
-167.061
11
232.066
21
-168.395
0
LINE
8
BLACK
6
CONTINUOUS
10
231.59
20
-166.299
11
231.114
21
-167.728
0
LINE
8
BLACK
6
CONTINUOUS
10
231.114
20
-167.728
11
232.352
21
-167.728
0
LINE
8
BLACK
6
CONTINUOUS
10
234.638
20
-168.395
11
234.638
21
-166.395
0
LINE
8
BLACK
6
CONTINUOUS
10
235.495
20
-168.395
11
235.495
21
-167.347
0
LINE
8
BLACK
6
CONTINUOUS
10
235.495
20
-167.347
11
235.4
21
-167.157
0
LINE
8
BLACK
6
CONTINUOUS
10
235.4
20
-167.157
11
235.209
21
-167.061
0
LINE
8
BLACK
6
CONTINUOUS
10
235.209
20
-167.061
11
234.923
21
-167.061
0
LINE
8
BLACK
6
CONTINUOUS
10
234.923
20
-167.061
11
234.733
21
-167.157
0
LINE
8
BLACK
6
CONTINUOUS
10
234.733
20
-167.157
11
234.638
21
-167.252
0
LINE
8
BLACK
6
CONTINUOUS
10
236.733
20
-168.395
11
236.542
21
-168.299
0
LINE
8
BLACK
6
CONTINUOUS
10
236.542
20
-168.299
11
236.447
21
-168.204
0
LINE
8
BLACK
6
CONTINUOUS
10
236.447
20
-168.204
11
236.352
21
-168.014
0
LINE
8
BLACK
6
CONTINUOUS
10
236.352
20
-168.014
11
236.352
21
-167.442
0
LINE
8
BLACK
6
CONTINUOUS
10
236.352
20
-167.442
11
236.447
21
-167.252
0
LINE
8
BLACK
6
CONTINUOUS
10
236.447
20
-167.252
11
236.542
21
-167.157
0
LINE
8
BLACK
6
CONTINUOUS
10
236.542
20
-167.157
11
236.733
21
-167.061
0
LINE
8
BLACK
6
CONTINUOUS
10
236.733
20
-167.061
11
237.019
21
-167.061
0
LINE
8
BLACK
6
CONTINUOUS
10
237.019
20
-167.061
11
237.209
21
-167.157
0
LINE
8
BLACK
6
CONTINUOUS
10
237.209
20
-167.157
11
237.304
21
-167.252
0
LINE
8
BLACK
6
CONTINUOUS
10
237.304
20
-167.252
11
237.4
21
-167.442
0
LINE
8
BLACK
6
CONTINUOUS
10
237.4
20
-167.442
11
237.4
21
-168.014
0
LINE
8
BLACK
6
CONTINUOUS
10
237.4
20
-168.014
11
237.304
21
-168.204
0
LINE
8
BLACK
6
CONTINUOUS
10
237.304
20
-168.204
11
237.209
21
-168.299
0
LINE
8
BLACK
6
CONTINUOUS
10
237.209
20
-168.299
11
237.019
21
-168.395
0
LINE
8
BLACK
6
CONTINUOUS
10
237.019
20
-168.395
11
236.733
21
-168.395
0
LINE
8
BLACK
6
CONTINUOUS
10
238.542
20
-168.395
11
238.352
21
-168.299
0
LINE
8
BLACK
6
CONTINUOUS
10
238.352
20
-168.299
11
238.257
21
-168.109
0
LINE
8
BLACK
6
CONTINUOUS
10
238.257
20
-168.109
11
238.257
21
-166.395
0
LINE
8
BLACK
6
CONTINUOUS
10
240.066
20
-168.299
11
239.876
21
-168.395
0
LINE
8
BLACK
6
CONTINUOUS
10
239.876
20
-168.395
11
239.495
21
-168.395
0
LINE
8
BLACK
6
CONTINUOUS
10
239.495
20
-168.395
11
239.304
21
-168.299
0
LINE
8
BLACK
6
CONTINUOUS
10
239.304
20
-168.299
11
239.209
21
-168.109
0
LINE
8
BLACK
6
CONTINUOUS
10
239.209
20
-168.109
11
239.209
21
-167.347
0
LINE
8
BLACK
6
CONTINUOUS
10
239.209
20
-167.347
11
239.304
21
-167.157
0
LINE
8
BLACK
6
CONTINUOUS
10
239.304
20
-167.157
11
239.495
21
-167.061
0
LINE
8
BLACK
6
CONTINUOUS
10
239.495
20
-167.061
11
239.876
21
-167.061
0
LINE
8
BLACK
6
CONTINUOUS
10
239.876
20
-167.061
11
240.066
21
-167.157
0
LINE
8
BLACK
6
CONTINUOUS
10
240.066
20
-167.157
11
240.162
21
-167.347
0
LINE
8
BLACK
6
CONTINUOUS
10
240.162
20
-167.347
11
240.162
21
-167.538
0
LINE
8
BLACK
6
CONTINUOUS
10
240.162
20
-167.538
11
239.209
21
-167.728
0
LINE
8
BLACK
6
CONTINUOUS
10
240.923
20
-168.299
11
241.114
21
-168.395
0
LINE
8
BLACK
6
CONTINUOUS
10
241.114
20
-168.395
11
241.495
21
-168.395
0
LINE
8
BLACK
6
CONTINUOUS
10
241.495
20
-168.395
11
241.685
21
-168.299
0
LINE
8
BLACK
6
CONTINUOUS
10
241.685
20
-168.299
11
241.781
21
-168.109
0
LINE
8
BLACK
6
CONTINUOUS
10
241.781
20
-168.109
11
241.781
21
-168.014
0
LINE
8
BLACK
6
CONTINUOUS
10
241.781
20
-168.014
11
241.685
21
-167.823
0
LINE
8
BLACK
6
CONTINUOUS
10
241.685
20
-167.823
11
241.495
21
-167.728
0
LINE
8
BLACK
6
CONTINUOUS
10
241.495
20
-167.728
11
241.209
21
-167.728
0
LINE
8
BLACK
6
CONTINUOUS
10
241.209
20
-167.728
11
241.019
21
-167.633
0
LINE
8
BLACK
6
CONTINUOUS
10
241.019
20
-167.633
11
240.923
21
-167.442
0
LINE
8
BLACK
6
CONTINUOUS
10
240.923
20
-167.442
11
240.923
21
-167.347
0
LINE
8
BLACK
6
CONTINUOUS
10
240.923
20
-167.347
11
241.019
21
-167.157
0
LINE
8
BLACK
6
CONTINUOUS
10
241.019
20
-167.157
11
241.209
21
-167.061
0
LINE
8
BLACK
6
CONTINUOUS
10
241.209
20
-167.061
11
241.495
21
-167.061
0
LINE
8
BLACK
6
CONTINUOUS
10
241.495
20
-167.061
11
241.685
21
-167.157
0
LINE
8
BLACK
6
CONTINUOUS
10
242.447
20
-169.157
11
242.542
21
-169.061
0
LINE
8
BLACK
6
CONTINUOUS
10
242.542
20
-169.061
11
242.733
21
-168.776
0
LINE
8
BLACK
6
CONTINUOUS
10
242.733
20
-168.776
11
242.828
21
-168.585
0
LINE
8
BLACK
6
CONTINUOUS
10
242.828
20
-168.585
11
242.923
21
-168.299
0
LINE
8
BLACK
6
CONTINUOUS
10
242.923
20
-168.299
11
243.019
21
-167.823
0
LINE
8
BLACK
6
CONTINUOUS
10
243.019
20
-167.823
11
243.019
21
-167.442
0
LINE
8
BLACK
6
CONTINUOUS
10
243.019
20
-167.442
11
242.923
21
-166.966
0
LINE
8
BLACK
6
CONTINUOUS
10
242.923
20
-166.966
11
242.828
21
-166.68
0
LINE
8
BLACK
6
CONTINUOUS
10
242.828
20
-166.68
11
242.733
21
-166.49
0
LINE
8
BLACK
6
CONTINUOUS
10
242.733
20
-166.49
11
242.542
21
-166.204
0
LINE
8
BLACK
6
CONTINUOUS
10
242.542
20
-166.204
11
242.447
21
-166.109
  0
ENDSEC
  0
EOF
