%TF.GenerationSoftware,KiCad,Pcbnew,(6.0.4)*%
%TF.CreationDate,2022-12-04T19:47:34+01:00*%
%TF.ProjectId,BatreeqV2,42617472-6565-4715-9632-2e6b69636164,rev?*%
%TF.SameCoordinates,Original*%
%TF.FileFunction,Other,Comment*%
%FSLAX46Y46*%
G04 Gerber Fmt 4.6, Leading zero omitted, Abs format (unit mm)*
G04 Created by KiCad (PCBNEW (6.0.4)) date 2022-12-04 19:47:34*
%MOMM*%
%LPD*%
G01*
G04 APERTURE LIST*
%ADD10C,0.150000*%
%ADD11C,1.750000*%
G04 APERTURE END LIST*
D10*
%TO.C,J2*%
X147402380Y-124981142D02*
X147354761Y-125028761D01*
X147211904Y-125076380D01*
X147116666Y-125076380D01*
X146973809Y-125028761D01*
X146878571Y-124933523D01*
X146830952Y-124838285D01*
X146783333Y-124647809D01*
X146783333Y-124504952D01*
X146830952Y-124314476D01*
X146878571Y-124219238D01*
X146973809Y-124124000D01*
X147116666Y-124076380D01*
X147211904Y-124076380D01*
X147354761Y-124124000D01*
X147402380Y-124171619D01*
X148259523Y-124409714D02*
X148259523Y-125076380D01*
X148021428Y-124028761D02*
X147783333Y-124743047D01*
X148402380Y-124743047D01*
X148688095Y-124076380D02*
X149354761Y-124076380D01*
X148926190Y-125076380D01*
X149783333Y-125076380D02*
X149973809Y-125076380D01*
X150069047Y-125028761D01*
X150116666Y-124981142D01*
X150211904Y-124838285D01*
X150259523Y-124647809D01*
X150259523Y-124266857D01*
X150211904Y-124171619D01*
X150164285Y-124124000D01*
X150069047Y-124076380D01*
X149878571Y-124076380D01*
X149783333Y-124124000D01*
X149735714Y-124171619D01*
X149688095Y-124266857D01*
X149688095Y-124504952D01*
X149735714Y-124600190D01*
X149783333Y-124647809D01*
X149878571Y-124695428D01*
X150069047Y-124695428D01*
X150164285Y-124647809D01*
X150211904Y-124600190D01*
X150259523Y-124504952D01*
X150592857Y-124076380D02*
X151259523Y-124076380D01*
X150830952Y-125076380D01*
X152116666Y-124076380D02*
X151640476Y-124076380D01*
X151592857Y-124552571D01*
X151640476Y-124504952D01*
X151735714Y-124457333D01*
X151973809Y-124457333D01*
X152069047Y-124504952D01*
X152116666Y-124552571D01*
X152164285Y-124647809D01*
X152164285Y-124885904D01*
X152116666Y-124981142D01*
X152069047Y-125028761D01*
X151973809Y-125076380D01*
X151735714Y-125076380D01*
X151640476Y-125028761D01*
X151592857Y-124981142D01*
X152783333Y-124076380D02*
X152878571Y-124076380D01*
X152973809Y-124124000D01*
X153021428Y-124171619D01*
X153069047Y-124266857D01*
X153116666Y-124457333D01*
X153116666Y-124695428D01*
X153069047Y-124885904D01*
X153021428Y-124981142D01*
X152973809Y-125028761D01*
X152878571Y-125076380D01*
X152783333Y-125076380D01*
X152688095Y-125028761D01*
X152640476Y-124981142D01*
X152592857Y-124885904D01*
X152545238Y-124695428D01*
X152545238Y-124457333D01*
X152592857Y-124266857D01*
X152640476Y-124171619D01*
X152688095Y-124124000D01*
X152783333Y-124076380D01*
X147402380Y-124977142D02*
X147354761Y-125024761D01*
X147211904Y-125072380D01*
X147116666Y-125072380D01*
X146973809Y-125024761D01*
X146878571Y-124929523D01*
X146830952Y-124834285D01*
X146783333Y-124643809D01*
X146783333Y-124500952D01*
X146830952Y-124310476D01*
X146878571Y-124215238D01*
X146973809Y-124120000D01*
X147116666Y-124072380D01*
X147211904Y-124072380D01*
X147354761Y-124120000D01*
X147402380Y-124167619D01*
X148259523Y-124405714D02*
X148259523Y-125072380D01*
X148021428Y-124024761D02*
X147783333Y-124739047D01*
X148402380Y-124739047D01*
X148688095Y-124072380D02*
X149354761Y-124072380D01*
X148926190Y-125072380D01*
X149783333Y-125072380D02*
X149973809Y-125072380D01*
X150069047Y-125024761D01*
X150116666Y-124977142D01*
X150211904Y-124834285D01*
X150259523Y-124643809D01*
X150259523Y-124262857D01*
X150211904Y-124167619D01*
X150164285Y-124120000D01*
X150069047Y-124072380D01*
X149878571Y-124072380D01*
X149783333Y-124120000D01*
X149735714Y-124167619D01*
X149688095Y-124262857D01*
X149688095Y-124500952D01*
X149735714Y-124596190D01*
X149783333Y-124643809D01*
X149878571Y-124691428D01*
X150069047Y-124691428D01*
X150164285Y-124643809D01*
X150211904Y-124596190D01*
X150259523Y-124500952D01*
X150592857Y-124072380D02*
X151259523Y-124072380D01*
X150830952Y-125072380D01*
X152116666Y-124072380D02*
X151640476Y-124072380D01*
X151592857Y-124548571D01*
X151640476Y-124500952D01*
X151735714Y-124453333D01*
X151973809Y-124453333D01*
X152069047Y-124500952D01*
X152116666Y-124548571D01*
X152164285Y-124643809D01*
X152164285Y-124881904D01*
X152116666Y-124977142D01*
X152069047Y-125024761D01*
X151973809Y-125072380D01*
X151735714Y-125072380D01*
X151640476Y-125024761D01*
X151592857Y-124977142D01*
X152783333Y-124072380D02*
X152878571Y-124072380D01*
X152973809Y-124120000D01*
X153021428Y-124167619D01*
X153069047Y-124262857D01*
X153116666Y-124453333D01*
X153116666Y-124691428D01*
X153069047Y-124881904D01*
X153021428Y-124977142D01*
X152973809Y-125024761D01*
X152878571Y-125072380D01*
X152783333Y-125072380D01*
X152688095Y-125024761D01*
X152640476Y-124977142D01*
X152592857Y-124881904D01*
X152545238Y-124691428D01*
X152545238Y-124453333D01*
X152592857Y-124262857D01*
X152640476Y-124167619D01*
X152688095Y-124120000D01*
X152783333Y-124072380D01*
%TO.C,J1*%
X129908804Y-128066072D02*
X129976148Y-128066072D01*
X130110835Y-128133416D01*
X130178178Y-128200759D01*
X130245522Y-128335446D01*
X130245522Y-128470133D01*
X130211850Y-128571148D01*
X130110835Y-128739507D01*
X130009820Y-128840522D01*
X129841461Y-128941538D01*
X129740446Y-128975209D01*
X129605759Y-128975209D01*
X129471072Y-128907866D01*
X129403728Y-128840522D01*
X129336385Y-128705835D01*
X129336385Y-128638492D01*
X128898652Y-127864042D02*
X129370056Y-127392637D01*
X128797637Y-128301774D02*
X129471072Y-127965057D01*
X129033339Y-127527324D01*
X128359904Y-127796698D02*
X127888499Y-127325294D01*
X128898652Y-126921233D01*
X128292560Y-126315141D02*
X128157873Y-126180454D01*
X128056858Y-126146782D01*
X127989515Y-126146782D01*
X127821156Y-126180454D01*
X127652797Y-126281469D01*
X127383423Y-126550843D01*
X127349751Y-126651859D01*
X127349751Y-126719202D01*
X127383423Y-126820217D01*
X127518110Y-126954904D01*
X127619125Y-126988576D01*
X127686469Y-126988576D01*
X127787484Y-126954904D01*
X127955843Y-126786546D01*
X127989515Y-126685530D01*
X127989515Y-126618187D01*
X127955843Y-126517172D01*
X127821156Y-126382484D01*
X127720140Y-126348813D01*
X127652797Y-126348813D01*
X127551782Y-126382484D01*
X127013034Y-126449828D02*
X126541629Y-125978423D01*
X127551782Y-125574362D01*
X125935538Y-125372332D02*
X126272255Y-125709049D01*
X126642644Y-125406004D01*
X126575301Y-125406004D01*
X126474286Y-125372332D01*
X126305927Y-125203973D01*
X126272255Y-125102958D01*
X126272255Y-125035614D01*
X126305927Y-124934599D01*
X126474286Y-124766240D01*
X126575301Y-124732569D01*
X126642644Y-124732569D01*
X126743660Y-124766240D01*
X126912018Y-124934599D01*
X126945690Y-125035614D01*
X126945690Y-125102958D01*
X125464133Y-124900927D02*
X125396790Y-124833584D01*
X125363118Y-124732569D01*
X125363118Y-124665225D01*
X125396790Y-124564210D01*
X125497805Y-124395851D01*
X125666164Y-124227492D01*
X125834522Y-124126477D01*
X125935538Y-124092805D01*
X126002881Y-124092805D01*
X126103896Y-124126477D01*
X126171240Y-124193821D01*
X126204912Y-124294836D01*
X126204912Y-124362179D01*
X126171240Y-124463195D01*
X126070225Y-124631553D01*
X125901866Y-124799912D01*
X125733507Y-124900927D01*
X125632492Y-124934599D01*
X125565148Y-124934599D01*
X125464133Y-124900927D01*
X129905976Y-128068900D02*
X129973320Y-128068900D01*
X130108007Y-128136244D01*
X130175350Y-128203587D01*
X130242694Y-128338274D01*
X130242694Y-128472961D01*
X130209022Y-128573976D01*
X130108007Y-128742335D01*
X130006992Y-128843350D01*
X129838633Y-128944366D01*
X129737618Y-128978037D01*
X129602931Y-128978037D01*
X129468244Y-128910694D01*
X129400900Y-128843350D01*
X129333557Y-128708663D01*
X129333557Y-128641320D01*
X128895824Y-127866870D02*
X129367228Y-127395465D01*
X128794809Y-128304602D02*
X129468244Y-127967885D01*
X129030511Y-127530152D01*
X128357076Y-127799526D02*
X127885671Y-127328122D01*
X128895824Y-126924061D01*
X128289732Y-126317969D02*
X128155045Y-126183282D01*
X128054030Y-126149610D01*
X127986687Y-126149610D01*
X127818328Y-126183282D01*
X127649969Y-126284297D01*
X127380595Y-126553671D01*
X127346923Y-126654687D01*
X127346923Y-126722030D01*
X127380595Y-126823045D01*
X127515282Y-126957732D01*
X127616297Y-126991404D01*
X127683641Y-126991404D01*
X127784656Y-126957732D01*
X127953015Y-126789374D01*
X127986687Y-126688358D01*
X127986687Y-126621015D01*
X127953015Y-126520000D01*
X127818328Y-126385312D01*
X127717312Y-126351641D01*
X127649969Y-126351641D01*
X127548954Y-126385312D01*
X127010206Y-126452656D02*
X126538801Y-125981251D01*
X127548954Y-125577190D01*
X125932710Y-125375160D02*
X126269427Y-125711877D01*
X126639816Y-125408832D01*
X126572473Y-125408832D01*
X126471458Y-125375160D01*
X126303099Y-125206801D01*
X126269427Y-125105786D01*
X126269427Y-125038442D01*
X126303099Y-124937427D01*
X126471458Y-124769068D01*
X126572473Y-124735397D01*
X126639816Y-124735397D01*
X126740832Y-124769068D01*
X126909190Y-124937427D01*
X126942862Y-125038442D01*
X126942862Y-125105786D01*
X125461305Y-124903755D02*
X125393962Y-124836412D01*
X125360290Y-124735397D01*
X125360290Y-124668053D01*
X125393962Y-124567038D01*
X125494977Y-124398679D01*
X125663336Y-124230320D01*
X125831694Y-124129305D01*
X125932710Y-124095633D01*
X126000053Y-124095633D01*
X126101068Y-124129305D01*
X126168412Y-124196649D01*
X126202084Y-124297664D01*
X126202084Y-124365007D01*
X126168412Y-124466023D01*
X126067397Y-124634381D01*
X125899038Y-124802740D01*
X125730679Y-124903755D01*
X125629664Y-124937427D01*
X125562320Y-124937427D01*
X125461305Y-124903755D01*
%TO.C,H10*%
D11*
X167322346Y-98056076D02*
G75*
G03*
X167322346Y-98056076I-875000J0D01*
G01*
%TO.C,H8*%
X249496075Y-39434330D02*
G75*
G03*
X249496075Y-39434330I-875000J0D01*
G01*
%TO.C,H9*%
X135064343Y-98056079D02*
G75*
G03*
X135064343Y-98056079I-875000J0D01*
G01*
%TO.C,H3*%
X193848895Y-111098068D02*
G75*
G03*
X193848895Y-111098068I-875000J0D01*
G01*
%TO.C,H6*%
X115452344Y-63386078D02*
G75*
G03*
X115452344Y-63386078I-875000J0D01*
G01*
%TO.C,H2*%
X104885023Y-111310117D02*
G75*
G03*
X104885023Y-111310117I-875000J0D01*
G01*
%TO.C,H1*%
X63382345Y-93104077D02*
G75*
G03*
X63382345Y-93104077I-875000J0D01*
G01*
%TO.C,H7*%
X185810343Y-63132079D02*
G75*
G03*
X185810343Y-63132079I-875000J0D01*
G01*
%TO.C,H5*%
X52045667Y-39497354D02*
G75*
G03*
X52045667Y-39497354I-875000J0D01*
G01*
%TO.C,H4*%
X237840997Y-93358077D02*
G75*
G03*
X237840997Y-93358077I-875000J0D01*
G01*
%TD*%
M02*
