M48
; DRILL file {KiCad (6.0.4)} date Sun Dec  4 19:47:34 2022
; FORMAT={-:-/ absolute / inch / decimal}
; #@! TF.CreationDate,2022-12-04T19:47:34+01:00
; #@! TF.GenerationSoftware,Kicad,Pcbnew,(6.0.4)
; #@! TF.FileFunction,Plated,1,2,PTH
FMAT,2
INCH
; #@! TA.AperFunction,Plated,PTH,ViaDrill
T1C0.0157
; #@! TA.AperFunction,Plated,PTH,ComponentDrill
T2C0.0276
; #@! TA.AperFunction,Plated,PTH,ComponentDrill
T3C0.0354
; #@! TA.AperFunction,Plated,PTH,ComponentDrill
T4C0.0394
; #@! TA.AperFunction,Plated,PTH,ComponentDrill
T5C0.0430
; #@! TA.AperFunction,Plated,PTH,ComponentDrill
T6C0.0472
; #@! TA.AperFunction,Plated,PTH,ComponentDrill
T7C0.0500
; #@! TA.AperFunction,Plated,PTH,ComponentDrill
T8C0.0591
; #@! TA.AperFunction,Plated,PTH,ComponentDrill
T9C0.0945
; #@! TA.AperFunction,Plated,PTH,ComponentDrill
T10C0.1260
; #@! TA.AperFunction,Plated,PTH,ComponentDrill
T11C0.1496
%
G90
G05
T1
X4.7235Y-5.2561
X4.8309Y-3.4455
X4.8599Y-3.2638
X4.8709Y-3.4655
X4.9029Y-3.2611
X4.9432Y-3.2611
X4.9835Y-3.2611
X5.0435Y-4.8811
X5.0735Y-2.8611
X5.0809Y-5.5455
X5.1335Y-6.0811
X5.1535Y-2.9111
X5.2335Y-5.7311
X5.2635Y-2.3811
X5.2935Y-3.4511
X5.3335Y-2.3411
X5.4192Y-3.1799
X5.4409Y-4.1855
X5.4809Y-3.6855
X5.4907Y-3.6353
X5.5109Y-4.1155
X5.5135Y-2.6211
X5.5509Y-4.2855
X5.5809Y-3.8555
X5.6309Y-4.2155
X5.7035Y-2.2511
X5.7135Y-2.6611
X5.7135Y-2.7011
X5.7135Y-2.7405
X5.7135Y-2.7798
X5.7335Y-2.3233
X5.7735Y-2.1411
X5.9135Y-2.2611
X5.9535Y-2.5011
X5.9585Y-4.8361
X5.977Y-2.1876
X6.0335Y-2.2711
X6.0535Y-3.4611
X6.1159Y-2.3305
X6.1735Y-2.6611
X6.1735Y-2.7011
X6.1735Y-2.7411
X6.1735Y-2.7805
X6.1735Y-3.4611
X6.1934Y-4.9513
X6.2535Y-3.3811
X6.2535Y-3.4911
X6.3442Y-3.7355
X6.3935Y-2.6611
X6.3935Y-2.7011
X6.3935Y-2.7411
X6.3935Y-2.7805
X6.4435Y-5.4111
X7.3235Y-5.4511
T2
X5.6887Y-3.6824
X5.6887Y-3.7524
X5.6887Y-3.8225
X5.6887Y-3.8926
X5.6887Y-3.9627
X5.6887Y-4.0328
X5.6887Y-4.1028
X5.6887Y-4.1729
X6.11Y-3.6473
X6.11Y-3.7174
X6.11Y-3.7875
X6.11Y-3.8576
X6.11Y-3.9276
X6.11Y-3.9977
X6.11Y-4.0678
X6.11Y-4.1379
T3
X7.2108Y-1.5844
X7.256Y-1.6489
X7.3011Y-1.7134
T4
X5.7308Y-5.4038
X5.9158Y-5.1833
X5.9158Y-5.5889
X6.1363Y-5.4038
X6.2453Y-2.1332
X6.2907Y-2.2223
X6.3361Y-2.3114
X6.3815Y-2.4005
X6.4269Y-2.4896
T5
X4.4211Y-2.0169
X4.504Y-2.0728
X4.5869Y-2.1287
X4.6699Y-2.1847
X4.7528Y-2.2406
X4.7567Y-1.5195
X4.8357Y-2.2965
X4.8396Y-1.5754
X4.9186Y-2.3524
X4.9225Y-1.6313
X5.0015Y-2.4083
X5.0054Y-1.6872
X5.0844Y-2.4643
X5.0883Y-1.7432
X5.1673Y-2.5202
X5.1712Y-1.7991
X5.2502Y-2.5761
X5.2541Y-1.855
X5.3331Y-2.632
X5.337Y-1.9109
X5.4199Y-1.9668
X5.5028Y-2.0228
X5.5857Y-2.0787
X5.6686Y-2.1346
X7.431Y-1.9037
X7.4773Y-1.9674
X7.5235Y-2.0311
T6
X5.7308Y-5.2581
X5.7308Y-5.5141
X5.8056Y-5.1833
X5.8056Y-5.5889
X6.0615Y-5.1833
X6.0615Y-5.5889
X6.1363Y-5.2581
X6.1363Y-5.5141
T7
X1.0486Y-2.6405
X1.1067Y-2.6048
X1.1291Y-2.7143
X1.2173Y-2.7713
X1.2419Y-1.9173
X1.3Y-1.8815
X1.3223Y-2.766
X1.3224Y-1.991
X1.3965Y-2.6824
X1.4106Y-2.0481
X1.4289Y-2.7424
X1.5156Y-2.0428
X1.5898Y-1.9592
X1.6222Y-2.0192
X1.6636Y-3.1939
X1.7256Y-3.1655
X1.7345Y-3.2769
X1.8151Y-3.3443
X1.9199Y-3.3518
X1.9438Y-2.5004
X2.0038Y-3.2778
X2.0058Y-2.4719
X2.0147Y-2.5834
X2.0286Y-3.3414
X2.0953Y-2.6508
X2.2002Y-2.6583
X2.224Y-1.8068
X2.284Y-2.5843
X2.286Y-1.7783
X2.2949Y-1.8898
X2.3088Y-2.6478
X2.3756Y-1.9572
X2.4671Y-3.2928
X2.4804Y-1.9647
X2.5305Y-3.3817
X2.5313Y-3.2699
X2.5642Y-1.8907
X2.589Y-1.9543
X2.6049Y-3.4559
X2.7087Y-3.4725
X2.7986Y-3.4061
X2.8067Y-2.6263
X2.8179Y-3.4716
X2.8701Y-2.7152
X2.8709Y-2.6034
X2.8841Y-4.5693
X2.9445Y-2.7894
X2.9475Y-4.6582
X2.9484Y-4.5464
X3.022Y-4.7324
X3.0483Y-2.806
X3.0713Y-3.7914
X3.1257Y-4.749
X3.1347Y-3.8803
X3.1356Y-3.7685
X3.1382Y-2.7396
X3.1463Y-1.9598
X3.1575Y-2.8051
X3.2092Y-3.9545
X3.2097Y-2.0487
X3.2105Y-1.9369
X3.2157Y-4.6826
X3.2349Y-4.7481
X3.2841Y-2.1229
X3.3129Y-3.9711
X3.3879Y-2.1395
X3.4029Y-3.9047
X3.4109Y-3.1249
X3.4221Y-3.9702
X3.4743Y-3.2138
X3.4752Y-3.102
X3.4778Y-2.0731
X3.4854Y-5.0756
X3.4971Y-2.1386
X3.5488Y-3.288
X3.5488Y-5.1644
X3.5496Y-5.0526
X3.6232Y-5.2386
X3.6525Y-3.3046
X3.727Y-5.2552
X3.7425Y-3.2382
X3.7505Y-2.4584
X3.7617Y-3.3037
X3.8139Y-2.5473
X3.8148Y-2.4355
X3.8169Y-5.1888
X3.8362Y-5.2543
X3.8884Y-2.6215
X3.9366Y-3.7595
X3.9921Y-2.6381
X4.0Y-3.8484
X4.0008Y-3.7366
X4.0744Y-3.9225
X4.0821Y-2.5717
X4.1013Y-2.6372
X4.1782Y-3.9392
X4.2681Y-3.8728
X4.2762Y-3.093
X4.2874Y-3.9382
X4.3396Y-3.1819
X4.3404Y-3.0701
X4.414Y-3.256
X4.5178Y-3.2727
X4.5842Y-6.0735
X4.6077Y-3.2063
X4.627Y-3.2717
X4.631Y-6.0239
X4.681Y-6.1239
X4.781Y-6.1561
X4.881Y-6.1239
X4.931Y-6.0239
X4.9779Y-6.0735
X5.3432Y-6.1568
X5.3901Y-6.1072
X5.4401Y-6.2072
X5.5401Y-6.2395
X5.6401Y-6.2072
X5.6901Y-6.1072
X5.7369Y-6.1568
X6.1041Y-6.1569
X6.1509Y-6.1073
X6.2009Y-6.2073
X6.3009Y-6.2396
X6.4009Y-6.2073
X6.4509Y-6.1073
X6.4978Y-6.1569
X6.8641Y-6.0869
X6.9109Y-6.0373
X6.9609Y-6.1373
X7.0609Y-6.1696
X7.1609Y-6.1373
X7.1758Y-3.2687
X7.195Y-3.2033
X7.2109Y-6.0373
X7.2578Y-6.0869
X7.285Y-3.2697
X7.3887Y-3.253
X7.4623Y-3.0671
X7.4632Y-3.1789
X7.5154Y-3.9352
X7.5266Y-3.09
X7.5346Y-3.8698
X7.6246Y-3.9362
X7.7015Y-2.6342
X7.7207Y-2.5687
X7.7283Y-3.9195
X7.8019Y-3.7336
X7.8028Y-3.8454
X7.8106Y-2.6351
X7.8662Y-3.7565
X7.9144Y-2.6185
X7.9666Y-5.2513
X7.9858Y-5.1858
X7.988Y-2.4325
X7.9888Y-2.5443
X8.0411Y-3.3007
X8.0522Y-2.4554
X8.0603Y-3.2352
X8.0758Y-5.2522
X8.1502Y-3.3016
X8.1795Y-5.2356
X8.2531Y-5.0496
X8.254Y-5.1614
X8.254Y-3.285
X8.2974Y-2.1387
X8.3166Y-2.0732
X8.3174Y-5.0726
X8.3276Y-3.099
X8.3284Y-3.2108
X8.3807Y-3.9672
X8.3918Y-3.1219
X8.3999Y-3.9017
X8.4066Y-2.1396
X8.4898Y-3.9681
X8.5103Y-2.123
X8.5679Y-4.7451
X8.5839Y-1.937
X8.5848Y-2.0488
X8.5871Y-4.6796
X8.5936Y-3.9515
X8.637Y-2.8052
X8.6482Y-1.96
X8.6562Y-2.7397
X8.6672Y-3.7655
X8.668Y-3.8773
X8.6771Y-4.746
X8.7314Y-3.7884
X8.7462Y-2.8061
X8.7808Y-4.7294
X8.8499Y-2.7895
X8.8544Y-4.5434
X8.8553Y-4.6552
X8.9187Y-4.5663
X8.9235Y-2.6035
X8.9244Y-2.7153
X8.9766Y-3.4717
X8.9878Y-2.6265
X8.9958Y-3.4062
X9.0858Y-3.4726
X9.1895Y-3.456
X9.2054Y-1.9544
X9.2303Y-1.8909
X9.2631Y-3.27
X9.264Y-3.3818
X9.3141Y-1.9649
X9.3274Y-3.293
X9.4189Y-1.9573
X9.4856Y-2.648
X9.4995Y-1.8899
X9.5084Y-1.7785
X9.5105Y-2.5844
X9.5705Y-1.8069
X9.5943Y-2.6584
X9.6991Y-2.6509
X9.7659Y-3.3415
X9.7798Y-2.5835
X9.7887Y-2.4721
X9.7907Y-3.278
X9.8507Y-2.5005
X9.8745Y-3.352
X9.9794Y-3.3445
X10.06Y-3.2771
X10.0689Y-3.1656
X10.1309Y-3.1941
X10.1717Y-2.0198
X10.2041Y-1.9598
X10.2782Y-2.0434
X10.3656Y-2.7426
X10.3832Y-2.0487
X10.398Y-2.6826
X10.4714Y-1.9917
X10.4722Y-2.7663
X10.4938Y-1.8821
X10.5519Y-1.9179
X10.5771Y-2.7716
X10.6654Y-2.7145
X10.6878Y-2.605
X10.7459Y-2.6408
T8
X6.5831Y-2.9021
X6.6585Y-2.9654
X6.7339Y-3.0287
X7.1634Y-1.5167
X7.3485Y-1.7811
T9
X4.8932Y-4.4512
X5.5019Y-4.962
T10
X2.0146Y-1.555
X2.4609Y-3.6655
X4.0949Y-4.3823
X4.5109Y-2.4955
X5.283Y-3.8605
X6.553Y-3.8605
X7.2809Y-2.4855
X7.5973Y-4.3779
X9.3294Y-3.6755
X9.7882Y-1.5525
T11
G00X5.1262Y-3.0723
M15
G01X5.1287Y-3.0693
M16
G05
G00X6.8201Y-4.4936
M15
G01X6.8227Y-4.4906
M16
G05
T0
M30
