M48
; DRILL file {KiCad (6.0.4)} date Sun Dec  4 19:47:34 2022
; FORMAT={-:-/ absolute / inch / decimal}
; #@! TF.CreationDate,2022-12-04T19:47:34+01:00
; #@! TF.GenerationSoftware,Kicad,Pcbnew,(6.0.4)
; #@! TF.FileFunction,NonPlated,1,2,NPTH
FMAT,2
INCH
; #@! TA.AperFunction,NonPlated,NPTH,ComponentDrill
T1C0.0670
; #@! TA.AperFunction,NonPlated,NPTH,ComponentDrill
T2C0.0945
; #@! TA.AperFunction,NonPlated,NPTH,ComponentDrill
T3C0.1181
; #@! TA.AperFunction,NonPlated,NPTH,ComponentDrill
T4C0.1570
; #@! TA.AperFunction,NonPlated,NPTH,ComponentDrill
T5C0.1654
%
G90
G05
T2
X5.0735Y-3.4123
X6.4548Y-4.6347
T3
X1.1255Y-2.3534
X1.1583Y-2.4117
X1.3188Y-1.6302
X1.3381Y-2.3207
X1.3516Y-1.6884
X1.4257Y-2.3798
X1.5057Y-2.4554
X1.5314Y-1.5975
X1.619Y-1.6565
X1.699Y-1.7322
X1.7749Y-2.9183
X1.8004Y-2.9801
X1.9899Y-2.9117
X2.0552Y-2.2248
X2.0696Y-2.981
X2.0806Y-2.2866
X2.1398Y-3.0659
X2.2701Y-2.2182
X2.3354Y-1.5312
X2.3499Y-2.2875
X2.3608Y-1.593
X2.42Y-2.3723
X2.5503Y-1.5246
X2.602Y-3.028
X2.622Y-3.0918
X2.6301Y-1.5939
X2.7003Y-1.6788
X2.8167Y-3.0402
X2.8901Y-3.1162
X2.9416Y-2.3615
X2.9527Y-3.2068
X2.9616Y-2.4253
X3.019Y-4.3045
X3.039Y-4.3683
X3.1563Y-2.3737
X3.2063Y-3.5266
X3.2262Y-3.5904
X3.2297Y-2.4497
X3.2338Y-4.3167
X3.2812Y-1.695
X3.2923Y-2.5403
X3.3012Y-1.7588
X3.3072Y-4.3927
X3.3697Y-4.4833
X3.421Y-3.5388
X3.4944Y-3.6148
X3.4959Y-1.7072
X3.5459Y-2.8601
X3.5569Y-3.7054
X3.5658Y-2.9239
X3.5693Y-1.7832
X3.6203Y-4.8107
X3.6319Y-1.8738
X3.6403Y-4.8745
X3.7606Y-2.8723
X3.834Y-2.9483
X3.835Y-4.8229
X3.8855Y-2.1936
X3.8965Y-3.0389
X3.9054Y-2.2574
X3.9085Y-4.8989
X3.971Y-4.9895
X4.0715Y-3.4946
X4.0915Y-3.5584
X4.1002Y-2.2058
X4.1736Y-2.2818
X4.2361Y-2.3724
X4.2862Y-3.5068
X4.3596Y-3.5828
X4.4111Y-2.8281
X4.4222Y-3.6735
X4.4311Y-2.8919
X4.5842Y-5.7762
X4.6258Y-2.8403
X4.6309Y-5.824
X4.6992Y-2.9163
X4.7618Y-3.007
X4.781Y-5.6896
X4.8809Y-5.724
X4.9778Y-5.7764
X5.3432Y-5.8596
X5.39Y-5.9073
X5.5401Y-5.7729
X5.64Y-5.8073
X5.7368Y-5.8597
X6.1041Y-5.8597
X6.1508Y-5.9075
X6.3009Y-5.7731
X6.4008Y-5.8075
X6.4977Y-5.8598
X6.8641Y-5.7897
X6.9108Y-5.8375
X7.0409Y-3.0039
X7.0609Y-5.7031
X7.1042Y-3.0252
X7.1608Y-5.7375
X7.1769Y-2.8373
X7.2577Y-5.7898
X7.2816Y-2.8226
X7.3805Y-3.6704
X7.3916Y-2.8253
X7.4438Y-3.6917
X7.5165Y-3.5038
X7.5665Y-2.3693
X7.6212Y-3.4891
X7.6299Y-2.3907
X7.7026Y-2.2028
X7.7312Y-3.4918
X7.8072Y-2.1881
X7.8316Y-4.9865
X7.895Y-5.0078
X7.9061Y-3.0358
X7.9173Y-2.1908
X7.9677Y-4.8199
X7.9695Y-3.0572
X8.0422Y-2.8693
X8.0723Y-4.8052
X8.1468Y-2.8546
X8.1625Y-1.8738
X8.1824Y-4.8079
X8.2258Y-1.8952
X8.2457Y-3.7023
X8.2569Y-2.8573
X8.2985Y-1.7073
X8.3091Y-3.7237
X8.3818Y-3.5358
X8.4032Y-1.6926
X8.4329Y-4.4802
X8.4864Y-3.5211
X8.4963Y-4.5016
X8.5021Y-2.5403
X8.5132Y-1.6953
X8.5654Y-2.5617
X8.569Y-4.3137
X8.5965Y-3.5238
X8.6381Y-2.3738
X8.6736Y-4.299
X8.7428Y-2.3591
X8.7837Y-4.3017
X8.8417Y-3.2068
X8.8528Y-2.3618
X8.905Y-3.2282
X8.9777Y-3.0403
X9.0824Y-3.0256
X9.0941Y-1.6788
X9.1553Y-1.7056
X9.1924Y-3.0283
X9.2442Y-1.5248
X9.3497Y-1.5192
X9.3743Y-2.3724
X9.4355Y-2.3992
X9.4591Y-1.5315
X9.5244Y-2.2183
X9.6299Y-2.2128
X9.6545Y-3.0659
X9.7158Y-3.0927
X9.7393Y-2.2251
X9.8046Y-2.9119
X9.9101Y-2.9063
X10.0195Y-2.9186
X10.0947Y-1.7327
X10.1522Y-1.7667
X10.2624Y-1.5981
X10.2887Y-2.4555
X10.3462Y-2.4896
X10.3678Y-1.6054
X10.4564Y-2.3209
X10.4749Y-1.631
X10.5618Y-2.3283
X10.6689Y-2.3538
T4
X1.2775Y-2.547
X1.4708Y-1.8237
X1.9021Y-3.1289
X2.1824Y-2.4354
X2.4626Y-1.7418
X2.7104Y-3.2489
X3.05Y-2.5824
X3.1274Y-4.5254
X3.3146Y-3.7475
X3.3896Y-1.9159
X3.6542Y-3.081
X3.7287Y-5.0316
X3.9938Y-2.4145
X4.1799Y-3.7156
X4.5195Y-3.0491
X4.781Y-5.9239
X5.5401Y-6.0072
X6.3009Y-6.0073
X7.0609Y-5.9373
X7.2833Y-3.0461
X7.6229Y-3.7126
X7.8089Y-2.4115
X8.0741Y-5.0286
X8.1485Y-3.078
X8.4049Y-1.916
X8.4881Y-3.7445
X8.6754Y-4.5224
X8.7445Y-2.5825
X9.0841Y-3.249
X9.3319Y-1.742
X9.6121Y-2.4355
X9.8923Y-3.1291
X10.3231Y-1.8244
X10.517Y-2.5472
T5
X5.3171Y-4.5886
X5.5679Y-3.0066
X6.8128Y-4.0148
T1
G00X1.0652Y-2.4901
M15
G01X1.1032Y-2.5003
M16
G05
G00X1.2585Y-1.7668
M15
G01X1.2965Y-1.777
M16
G05
G00X1.4515Y-2.5938
M15
G01X1.4895Y-2.6039
M16
G05
G00X1.6448Y-1.8705
M15
G01X1.6828Y-1.8807
M16
G05
G00X1.6984Y-3.0466
M15
G01X1.7349Y-3.0613
M16
G05
G00X1.9786Y-2.353
M15
G01X2.0151Y-2.3678
M16
G05
G00X2.0692Y-3.1966
M15
G01X2.1057Y-3.2113
M16
G05
G00X2.2588Y-1.6595
M15
G01X2.2953Y-1.6742
M16
G05
G00X2.3494Y-2.503
M15
G01X2.3859Y-2.5178
M16
G05
G00X2.5146Y-3.1491
M15
G01X2.5496Y-3.167
M16
G05
G00X2.6296Y-1.8094
M15
G01X2.6661Y-1.8242
M16
G05
G00X2.8542Y-2.4826
M15
G01X2.8892Y-2.5005
M16
G05
G00X2.8709Y-3.3308
M15
G01X2.906Y-3.3487
M16
G05
G00X2.9316Y-4.4256
M15
G01X2.9667Y-4.4435
M16
G05
G00X3.1188Y-3.6477
M15
G01X3.1539Y-3.6656
M16
G05
G00X3.1938Y-1.8161
M15
G01X3.2288Y-1.834
M16
G05
G00X3.2105Y-2.6643
M15
G01X3.2456Y-2.6822
M16
G05
G00X3.2879Y-4.6073
M15
G01X3.323Y-4.6252
M16
G05
G00X3.4584Y-2.9812
M15
G01X3.4935Y-2.9991
M16
G05
G00X3.4752Y-3.8294
M15
G01X3.5102Y-3.8473
M16
G05
G00X3.5329Y-4.9318
M15
G01X3.568Y-4.9497
M16
G05
G00X3.5501Y-1.9978
M15
G01X3.5852Y-2.0157
M16
G05
G00X3.798Y-2.3147
M15
G01X3.8331Y-2.3326
M16
G05
G00X3.8148Y-3.1629
M15
G01X3.8498Y-3.1808
M16
G05
G00X3.8892Y-5.1136
M15
G01X3.9243Y-5.1314
M16
G05
G00X3.9841Y-3.6158
M15
G01X4.0192Y-3.6336
M16
G05
G00X4.1544Y-2.4964
M15
G01X4.1894Y-2.5143
M16
G05
G00X4.3237Y-2.9493
M15
G01X4.3588Y-2.9671
M16
G05
G00X4.3404Y-3.7975
M15
G01X4.3755Y-3.8154
M16
G05
G00X4.5612Y-5.9238
M15
G01X4.6006Y-5.9238
M16
G05
G00X4.68Y-3.131
M15
G01X4.7151Y-3.1489
M16
G05
G00X4.9612Y-5.924
M15
G01X5.0006Y-5.924
M16
G05
G00X5.3203Y-6.0072
M15
G01X5.3597Y-6.0072
M16
G05
G00X5.7203Y-6.0073
M15
G01X5.7597Y-6.0073
M16
G05
G00X6.0811Y-6.0073
M15
G01X6.1205Y-6.0073
M16
G05
G00X6.4811Y-6.0075
M15
G01X6.5205Y-6.0075
M16
G05
G00X6.8411Y-5.9373
M15
G01X6.8805Y-5.9373
M16
G05
G00X7.0874Y-3.1458
M15
G01X7.1225Y-3.1279
M16
G05
G00X7.2411Y-5.9375
M15
G01X7.2805Y-5.9375
M16
G05
G00X7.427Y-3.8123
M15
G01X7.4621Y-3.7945
M16
G05
G00X7.4439Y-2.9644
M15
G01X7.479Y-2.9465
M16
G05
G00X7.6131Y-2.5113
M15
G01X7.6482Y-2.4934
M16
G05
G00X7.7835Y-3.6309
M15
G01X7.8186Y-3.613
M16
G05
G00X7.8782Y-5.1284
M15
G01X7.9133Y-5.1105
M16
G05
G00X7.9527Y-3.1778
M15
G01X7.9878Y-3.1599
M16
G05
G00X7.9696Y-2.3298
M15
G01X8.0046Y-2.3119
M16
G05
G00X8.209Y-2.0158
M15
G01X8.2441Y-1.9979
M16
G05
G00X8.2347Y-4.9469
M15
G01X8.2698Y-4.9291
M16
G05
G00X8.2923Y-3.8443
M15
G01X8.3274Y-3.8264
M16
G05
G00X8.3092Y-2.9963
M15
G01X8.3442Y-2.9784
M16
G05
G00X8.4795Y-4.6222
M15
G01X8.5146Y-4.6043
M16
G05
G00X8.5486Y-2.6823
M15
G01X8.5837Y-2.6644
M16
G05
G00X8.5655Y-1.8343
M15
G01X8.6006Y-1.8164
M16
G05
G00X8.6488Y-3.6628
M15
G01X8.6838Y-3.6449
M16
G05
G00X8.836Y-4.4407
M15
G01X8.8711Y-4.4228
M16
G05
G00X8.8882Y-3.3488
M15
G01X8.9233Y-3.3309
M16
G05
G00X8.9051Y-2.5008
M15
G01X8.9402Y-2.4829
M16
G05
G00X9.1281Y-1.8243
M15
G01X9.1646Y-1.8095
M16
G05
G00X9.2447Y-3.1673
M15
G01X9.2798Y-3.1494
M16
G05
G00X9.4083Y-2.5178
M15
G01X9.4448Y-2.5031
M16
G05
G00X9.499Y-1.6746
M15
G01X9.5356Y-1.6598
M16
G05
G00X9.6886Y-3.2114
M15
G01X9.7251Y-3.1966
M16
G05
G00X9.7793Y-2.3681
M15
G01X9.8158Y-2.3534
M16
G05
G00X10.0595Y-3.0617
M15
G01X10.096Y-3.047
M16
G05
G00X10.1108Y-1.8812
M15
G01X10.1488Y-1.871
M16
G05
G00X10.3047Y-2.6041
M15
G01X10.3427Y-2.5939
M16
G05
G00X10.4972Y-1.7778
M15
G01X10.5352Y-1.7676
M16
G05
G00X10.6911Y-2.5007
M15
G01X10.7292Y-2.4905
M16
G05
T0
M30
