%TF.GenerationSoftware,KiCad,Pcbnew,(6.0.4)*%
%TF.CreationDate,2022-12-18T06:26:39+01:00*%
%TF.ProjectId,BatreeqV2,42617472-6565-4715-9632-2e6b69636164,rev?*%
%TF.SameCoordinates,Original*%
%TF.FileFunction,Soldermask,Bot*%
%TF.FilePolarity,Negative*%
%FSLAX46Y46*%
G04 Gerber Fmt 4.6, Leading zero omitted, Abs format (unit mm)*
G04 Created by KiCad (PCBNEW (6.0.4)) date 2022-12-18 06:26:39*
%MOMM*%
%LPD*%
G01*
G04 APERTURE LIST*
G04 Aperture macros list*
%AMRoundRect*
0 Rectangle with rounded corners*
0 $1 Rounding radius*
0 $2 $3 $4 $5 $6 $7 $8 $9 X,Y pos of 4 corners*
0 Add a 4 corners polygon primitive as box body*
4,1,4,$2,$3,$4,$5,$6,$7,$8,$9,$2,$3,0*
0 Add four circle primitives for the rounded corners*
1,1,$1+$1,$2,$3*
1,1,$1+$1,$4,$5*
1,1,$1+$1,$6,$7*
1,1,$1+$1,$8,$9*
0 Add four rect primitives between the rounded corners*
20,1,$1+$1,$2,$3,$4,$5,0*
20,1,$1+$1,$4,$5,$6,$7,0*
20,1,$1+$1,$6,$7,$8,$9,0*
20,1,$1+$1,$8,$9,$2,$3,0*%
%AMHorizOval*
0 Thick line with rounded ends*
0 $1 width*
0 $2 $3 position (X,Y) of the first rounded end (center of the circle)*
0 $4 $5 position (X,Y) of the second rounded end (center of the circle)*
0 Add line between two ends*
20,1,$1,$2,$3,$4,$5,0*
0 Add two circle primitives to create the rounded ends*
1,1,$1,$2,$3*
1,1,$1,$4,$5*%
%AMRotRect*
0 Rectangle, with rotation*
0 The origin of the aperture is its center*
0 $1 length*
0 $2 width*
0 $3 Rotation angle, in degrees counterclockwise*
0 Add horizontal line*
21,1,$1,$2,0,0,$3*%
%AMFreePoly0*
4,1,6,1.000000,0.000000,0.500000,-0.750000,-0.500000,-0.750000,-0.500000,0.750000,0.500000,0.750000,1.000000,0.000000,1.000000,0.000000,$1*%
%AMFreePoly1*
4,1,6,0.500000,-0.750000,-0.650000,-0.750000,-0.150000,0.000000,-0.650000,0.750000,0.500000,0.750000,0.500000,-0.750000,0.500000,-0.750000,$1*%
G04 Aperture macros list end*
%ADD10C,1.752600*%
%ADD11RoundRect,0.082000X0.718000X-0.328000X0.718000X0.328000X-0.718000X0.328000X-0.718000X-0.328000X0*%
%ADD12C,3.000000*%
%ADD13HorizOval,1.701800X0.482963X-0.129410X-0.482963X0.129410X0*%
%ADD14C,3.987800*%
%ADD15RotRect,2.600000X2.600000X345.000000*%
%ADD16RotRect,2.550000X2.500000X345.000000*%
%ADD17RotRect,3.000000X0.250000X165.000000*%
%ADD18RoundRect,0.062500X0.347636X0.272877X-0.410136X-0.164623X-0.347636X-0.272877X0.410136X0.164623X0*%
%ADD19RotRect,4.000000X0.250000X255.000000*%
%ADD20HorizOval,1.701800X0.445503X0.226995X-0.445503X-0.226995X0*%
%ADD21RotRect,2.550000X2.500000X27.000000*%
%ADD22RotRect,2.600000X2.600000X27.000000*%
%ADD23RotRect,3.000000X0.250000X207.000000*%
%ADD24RoundRect,0.062500X0.075754X0.435401X-0.194636X-0.396774X-0.075754X-0.435401X0.194636X0.396774X0*%
%ADD25RotRect,4.000000X0.250000X297.000000*%
%ADD26C,4.500000*%
%ADD27HorizOval,1.701800X0.482963X0.129410X-0.482963X-0.129410X0*%
%ADD28RotRect,2.600000X2.600000X15.000000*%
%ADD29RotRect,2.550000X2.500000X15.000000*%
%ADD30RotRect,4.000000X0.250000X285.000000*%
%ADD31RoundRect,0.062500X0.164623X0.410136X-0.272877X-0.347636X-0.164623X-0.410136X0.272877X0.347636X0*%
%ADD32RotRect,3.000000X0.250000X195.000000*%
%ADD33RoundRect,0.082000X0.778427X-0.130992X0.608642X0.502656X-0.778427X0.130992X-0.608642X-0.502656X0*%
%ADD34RoundRect,0.082000X0.788652X0.033715X0.490834X0.618215X-0.788652X-0.033715X-0.490834X-0.618215X0*%
%ADD35RoundRect,0.375000X0.829455X0.123000X0.399273X0.737364X-0.829455X-0.123000X-0.399273X-0.737364X0*%
%ADD36HorizOval,1.701800X0.445503X-0.226995X-0.445503X0.226995X0*%
%ADD37RotRect,2.550000X2.500000X333.000000*%
%ADD38RotRect,2.600000X2.600000X333.000000*%
%ADD39RotRect,4.000000X0.250000X243.000000*%
%ADD40RoundRect,0.062500X0.396774X0.194636X-0.435401X-0.075754X-0.396774X-0.194636X0.435401X0.075754X0*%
%ADD41RotRect,3.000000X0.250000X153.000000*%
%ADD42RoundRect,0.082000X0.490834X-0.618215X0.788652X-0.033715X-0.490834X0.618215X-0.788652X0.033715X0*%
%ADD43RoundRect,0.082000X0.608642X-0.502656X0.778427X0.130992X-0.608642X0.502656X-0.778427X-0.130992X0*%
%ADD44O,2.701800X1.701800*%
%ADD45R,2.600000X2.600000*%
%ADD46R,2.550000X2.500000*%
%ADD47R,3.000000X0.250000*%
%ADD48R,0.250000X4.000000*%
%ADD49RoundRect,0.062500X0.265165X0.353553X-0.353553X-0.265165X-0.265165X-0.353553X0.353553X0.265165X0*%
%ADD50RoundRect,0.082000X0.788589X-0.035149X0.542847X0.573084X-0.788589X0.035149X-0.542847X-0.573084X0*%
%ADD51HorizOval,1.701800X0.463592X0.187303X-0.463592X-0.187303X0*%
%ADD52RotRect,2.600000X2.600000X22.000000*%
%ADD53RotRect,2.550000X2.500000X22.000000*%
%ADD54RotRect,3.000000X0.250000X202.000000*%
%ADD55RotRect,4.000000X0.250000X292.000000*%
%ADD56RoundRect,0.062500X0.113413X0.427142X-0.228476X-0.378300X-0.113413X-0.427142X0.228476X0.378300X0*%
%ADD57C,3.200000*%
%ADD58C,4.200000*%
%ADD59C,2.400000*%
%ADD60C,2.100000*%
%ADD61RotRect,4.400000X4.400000X140.000000*%
%ADD62HorizOval,1.701800X0.463592X-0.187303X-0.463592X0.187303X0*%
%ADD63RotRect,2.550000X2.500000X338.000000*%
%ADD64RotRect,2.600000X2.600000X338.000000*%
%ADD65RotRect,3.000000X0.250000X158.000000*%
%ADD66RotRect,4.000000X0.250000X248.000000*%
%ADD67RoundRect,0.062500X0.378300X0.228476X-0.427142X-0.113413X-0.378300X-0.228476X0.427142X0.113413X0*%
%ADD68C,1.600000*%
%ADD69C,1.800000*%
%ADD70RoundRect,0.082000X0.542847X-0.573084X0.788589X0.035149X-0.542847X0.573084X-0.788589X-0.035149X0*%
%ADD71C,1.700000*%
%ADD72HorizOval,1.700000X0.000000X0.000000X0.000000X0.000000X0*%
%ADD73HorizOval,2.200000X0.532449X0.372825X-0.532449X-0.372825X0*%
%ADD74RotRect,1.500000X2.500000X125.000000*%
%ADD75HorizOval,1.500000X0.409576X0.286788X-0.409576X-0.286788X0*%
%ADD76RotRect,0.900000X1.200000X358.000000*%
%ADD77R,0.900000X1.200000*%
%ADD78RoundRect,0.085000X-0.265000X-0.085000X0.265000X-0.085000X0.265000X0.085000X-0.265000X0.085000X0*%
%ADD79O,0.700000X0.340000*%
%ADD80RoundRect,0.150000X0.175000X0.150000X-0.175000X0.150000X-0.175000X-0.150000X0.175000X-0.150000X0*%
%ADD81RoundRect,0.250000X0.250000X0.475000X-0.250000X0.475000X-0.250000X-0.475000X0.250000X-0.475000X0*%
%ADD82R,0.280000X1.250000*%
%ADD83R,1.800000X2.000000*%
%ADD84RotRect,0.900000X1.200000X2.000000*%
%ADD85RoundRect,0.150000X0.150000X-0.825000X0.150000X0.825000X-0.150000X0.825000X-0.150000X-0.825000X0*%
%ADD86RoundRect,0.140000X-0.170000X0.140000X-0.170000X-0.140000X0.170000X-0.140000X0.170000X0.140000X0*%
%ADD87RotRect,0.280000X1.250000X315.000000*%
%ADD88RotRect,1.800000X2.000000X315.000000*%
%ADD89RoundRect,0.250000X0.262500X0.450000X-0.262500X0.450000X-0.262500X-0.450000X0.262500X-0.450000X0*%
%ADD90RoundRect,0.250000X-0.262500X-0.450000X0.262500X-0.450000X0.262500X0.450000X-0.262500X0.450000X0*%
%ADD91RotRect,0.900000X1.200000X1.000000*%
%ADD92FreePoly0,0.000000*%
%ADD93FreePoly1,0.000000*%
%ADD94RoundRect,0.250000X0.450000X-0.262500X0.450000X0.262500X-0.450000X0.262500X-0.450000X-0.262500X0*%
%ADD95FreePoly0,270.000000*%
%ADD96FreePoly1,270.000000*%
%ADD97FreePoly0,180.000000*%
%ADD98FreePoly1,180.000000*%
%ADD99RoundRect,0.218750X0.218750X0.256250X-0.218750X0.256250X-0.218750X-0.256250X0.218750X-0.256250X0*%
%ADD100RotRect,0.900000X1.200000X359.000000*%
%ADD101R,1.200000X0.900000*%
%ADD102RoundRect,0.250000X-0.250000X-0.475000X0.250000X-0.475000X0.250000X0.475000X-0.250000X0.475000X0*%
%ADD103R,1.400000X1.400000*%
%ADD104C,1.400000*%
%ADD105RoundRect,0.150000X-0.512500X-0.150000X0.512500X-0.150000X0.512500X0.150000X-0.512500X0.150000X0*%
%ADD106RoundRect,0.250000X0.475000X-0.250000X0.475000X0.250000X-0.475000X0.250000X-0.475000X-0.250000X0*%
%ADD107RotRect,1.600000X1.400000X325.000000*%
%ADD108RoundRect,0.250000X-0.350000X-0.625000X0.350000X-0.625000X0.350000X0.625000X-0.350000X0.625000X0*%
%ADD109O,1.200000X1.750000*%
G04 APERTURE END LIST*
D10*
%TO.C,U1*%
X112519960Y-51428247D03*
X114625716Y-52848597D03*
X116731471Y-54268947D03*
X118837226Y-55689297D03*
X120942982Y-57109647D03*
X123048737Y-58529997D03*
X125154493Y-59950347D03*
X127260248Y-61370697D03*
X129366004Y-62791047D03*
X131471759Y-64211397D03*
X133577515Y-65631747D03*
X135694454Y-67035516D03*
X144205370Y-54417565D03*
X142099614Y-52997215D03*
X139993859Y-51576865D03*
X137888104Y-50156515D03*
X135782348Y-48736165D03*
X133676593Y-47315815D03*
X131570837Y-45895465D03*
X129465082Y-44475115D03*
X127359326Y-43054765D03*
X125253571Y-41634415D03*
X123147815Y-40214065D03*
X121042060Y-38793715D03*
X137103620Y-64946342D03*
X132880925Y-62122223D03*
X138523970Y-62840586D03*
X134301275Y-60016467D03*
X139944320Y-60734831D03*
X135721625Y-57910712D03*
X141364670Y-58629075D03*
X142785020Y-56523320D03*
X134997865Y-63525992D03*
X123855589Y-43707009D03*
%TD*%
D11*
%TO.C,D74*%
X162930907Y-158703640D03*
X162930907Y-157203640D03*
X157730907Y-157203640D03*
X157730907Y-158703640D03*
%TD*%
D12*
%TO.C,SW7*%
X38532015Y-62655336D03*
D13*
X37638717Y-66298264D03*
D12*
X34274973Y-59233633D03*
D14*
X32735000Y-64980892D03*
D13*
X27825936Y-63664836D03*
D12*
X28875942Y-60064576D03*
X29709037Y-61543911D03*
X36500066Y-60733960D03*
D15*
X41695422Y-63502969D03*
D16*
X39692739Y-61586010D03*
D15*
X31111565Y-58386001D03*
D17*
X28970288Y-57456072D03*
D18*
X27184985Y-57277231D03*
D19*
X26319068Y-59384531D03*
D16*
X26028860Y-60557810D03*
%TD*%
D12*
%TO.C,SW26*%
X217940329Y-109855355D03*
D20*
X225167238Y-112854614D03*
D12*
X214484076Y-114085522D03*
X216093054Y-114627433D03*
D20*
X216112814Y-117463628D03*
D14*
X220641572Y-115156844D03*
D12*
X220597810Y-109481437D03*
X223393493Y-109549659D03*
D21*
X223540561Y-107978318D03*
D22*
X226311540Y-108062840D03*
D23*
X212808758Y-112083897D03*
D24*
X211362352Y-113145592D03*
D21*
X212698319Y-116357137D03*
D22*
X215022282Y-111342174D03*
D25*
X212128910Y-115291033D03*
%TD*%
D26*
%TO.C,H10*%
X166734908Y-98343640D03*
%TD*%
D12*
%TO.C,SW34*%
X263630792Y-41065710D03*
X266351199Y-41713697D03*
X256693414Y-44298069D03*
D14*
X262493615Y-46626194D03*
D27*
X267399044Y-45315213D03*
D12*
X260953641Y-40878936D03*
D27*
X257584213Y-47940989D03*
D12*
X258154563Y-45162663D03*
D28*
X269514606Y-40866065D03*
D29*
X266821753Y-40207270D03*
D30*
X254139074Y-44987570D03*
D29*
X254474386Y-46148764D03*
D28*
X257790233Y-41726568D03*
D31*
X253835330Y-42729636D03*
D32*
X255470867Y-41991865D03*
%TD*%
D26*
%TO.C,H8*%
X248908639Y-39721893D03*
%TD*%
D33*
%TO.C,D42*%
X271440162Y-69944658D03*
X271051934Y-68495769D03*
X266029119Y-69841628D03*
X266417348Y-71290517D03*
%TD*%
D34*
%TO.C,D70*%
X190246204Y-81671878D03*
X189565218Y-80335368D03*
X184931984Y-82696119D03*
X185612970Y-84032628D03*
%TD*%
%TO.C,D41*%
X203597806Y-65554187D03*
X202916820Y-64217677D03*
X198283586Y-66578428D03*
X198964572Y-67914937D03*
%TD*%
D35*
%TO.C,J4*%
X170829226Y-40542424D03*
X171976379Y-42180728D03*
X173123532Y-43819032D03*
%TD*%
D26*
%TO.C,H9*%
X134476906Y-98343643D03*
%TD*%
D12*
%TO.C,SW21*%
X200820388Y-127485530D03*
X202667663Y-122713452D03*
D20*
X209894572Y-125712711D03*
X200840148Y-130321725D03*
D12*
X205325144Y-122339534D03*
X199211410Y-126943619D03*
X208120827Y-122407756D03*
D14*
X205368906Y-128014941D03*
D21*
X208267895Y-120836415D03*
D22*
X211038874Y-120920937D03*
D24*
X196089686Y-126003689D03*
D25*
X196856244Y-128149130D03*
D23*
X197536092Y-124941994D03*
D22*
X199749616Y-124200271D03*
D21*
X197425653Y-129215234D03*
%TD*%
D34*
%TO.C,D55*%
X225604954Y-119171036D03*
X224923968Y-117834526D03*
X220290734Y-120195277D03*
X220971720Y-121531786D03*
%TD*%
D14*
%TO.C,SW25*%
X207260239Y-78469120D03*
D12*
X207216477Y-72793713D03*
X202711721Y-77939709D03*
D20*
X202731481Y-80775904D03*
D12*
X210012160Y-72861935D03*
X201102743Y-77397798D03*
X204558996Y-73167631D03*
D20*
X211785905Y-76166890D03*
D22*
X212930207Y-71375116D03*
D21*
X210159228Y-71290594D03*
X199316986Y-79669413D03*
D23*
X199427425Y-75396173D03*
D25*
X198747577Y-78603309D03*
D22*
X201640949Y-74654450D03*
D24*
X197981019Y-76457868D03*
%TD*%
D12*
%TO.C,SW4*%
X90948604Y-45580080D03*
X84137577Y-44960397D03*
X89084070Y-43649916D03*
X92536673Y-47881935D03*
D36*
X81854661Y-46643456D03*
D12*
X83630258Y-43340179D03*
D14*
X86382827Y-48951405D03*
D36*
X90905489Y-51259529D03*
D37*
X93894359Y-47077304D03*
D38*
X95454719Y-49368754D03*
D37*
X80742842Y-43230693D03*
D38*
X86166023Y-42163096D03*
D39*
X81270648Y-42143390D03*
D40*
X82555775Y-40262174D03*
D41*
X84264880Y-40808292D03*
%TD*%
D42*
%TO.C,D51*%
X77426862Y-72255467D03*
X78107848Y-70918958D03*
X73474614Y-68558207D03*
X72793628Y-69894717D03*
%TD*%
%TO.C,D67*%
X114752396Y-84108662D03*
X115433382Y-82772153D03*
X110800148Y-80411402D03*
X110119162Y-81747912D03*
%TD*%
D12*
%TO.C,SW8*%
X104432188Y-56314536D03*
D14*
X101730945Y-61616025D03*
D12*
X106296722Y-58244700D03*
D36*
X97202779Y-59308076D03*
D12*
X98978376Y-56004799D03*
X107884791Y-60546555D03*
X99485695Y-57625017D03*
D36*
X106253607Y-63924149D03*
D37*
X109242477Y-59741924D03*
D38*
X110802837Y-62033374D03*
D41*
X99612998Y-53472912D03*
D39*
X96618766Y-54808010D03*
D37*
X96090960Y-55895313D03*
D40*
X97903893Y-52926794D03*
D38*
X101514141Y-54827716D03*
%TD*%
D43*
%TO.C,D63*%
X33737492Y-71285168D03*
X34125721Y-69836279D03*
X29102906Y-68490420D03*
X28714678Y-69939309D03*
%TD*%
D44*
%TO.C,SW22*%
X165408495Y-152876948D03*
D14*
X160330907Y-152873640D03*
D12*
X155330907Y-149123641D03*
X160330907Y-146923640D03*
X162868495Y-147796948D03*
X156518495Y-150336948D03*
X165328495Y-149126948D03*
D44*
X155248495Y-152872987D03*
D45*
X168603495Y-149126948D03*
D46*
X166172907Y-147793640D03*
X152708495Y-150336948D03*
D47*
X154746907Y-146579601D03*
D48*
X152685148Y-149128536D03*
D49*
X152976151Y-146868924D03*
D45*
X157055906Y-146923640D03*
%TD*%
D11*
%TO.C,D64*%
X124325323Y-156583643D03*
X124325323Y-155083643D03*
X119125323Y-155083643D03*
X119125323Y-156583643D03*
%TD*%
D50*
%TO.C,D71*%
X256147593Y-84197965D03*
X255585684Y-82807189D03*
X250764328Y-84755143D03*
X251326237Y-86145919D03*
%TD*%
D26*
%TO.C,H3*%
X193259713Y-111485617D03*
%TD*%
D44*
%TO.C,SW27*%
X184712498Y-151098949D03*
D12*
X182172498Y-146018949D03*
X184632498Y-147348949D03*
X174634910Y-147345642D03*
X179634910Y-145145641D03*
D14*
X179634910Y-151095641D03*
D12*
X175822498Y-148558949D03*
D44*
X174552498Y-151094988D03*
D46*
X185476910Y-146015641D03*
D45*
X187907498Y-147348949D03*
D48*
X171989151Y-147350537D03*
D47*
X174050910Y-144801602D03*
D46*
X172012498Y-148558949D03*
D45*
X176359909Y-145145641D03*
D49*
X172280154Y-145090925D03*
%TD*%
D42*
%TO.C,D56*%
X86052679Y-55326346D03*
X86733665Y-53989837D03*
X82100431Y-51629086D03*
X81419445Y-52965596D03*
%TD*%
D12*
%TO.C,SW33*%
X247665582Y-56803964D03*
X238394741Y-60546060D03*
X244886482Y-56492341D03*
X239950366Y-61226140D03*
D51*
X249144531Y-60250935D03*
D12*
X242206525Y-56633221D03*
D14*
X244435434Y-62149965D03*
D51*
X239722859Y-64053265D03*
D52*
X250702109Y-55577127D03*
D53*
X247949041Y-55251420D03*
D54*
X236900252Y-58406037D03*
D52*
X239169997Y-57860058D03*
D55*
X235943469Y-61541717D03*
D53*
X236417795Y-62653391D03*
D56*
X235366817Y-59337630D03*
%TD*%
D26*
%TO.C,H6*%
X114864907Y-63673641D03*
%TD*%
D12*
%TO.C,SW16*%
X92243895Y-122479748D03*
X97697707Y-122789485D03*
X101150310Y-127021504D03*
X92751214Y-124099966D03*
X99562241Y-124719649D03*
D36*
X99519126Y-130399098D03*
X90468298Y-125783025D03*
D14*
X94996464Y-128090974D03*
D38*
X104068356Y-128508323D03*
D37*
X102507996Y-126216873D03*
D41*
X92878517Y-119947861D03*
D40*
X91169412Y-119401743D03*
D37*
X89356479Y-122370262D03*
D38*
X94779660Y-121302665D03*
D39*
X89884285Y-121282959D03*
%TD*%
D12*
%TO.C,SW28*%
X209223060Y-48425055D03*
X211070335Y-43652977D03*
X216523499Y-43347281D03*
D14*
X213771578Y-48954466D03*
D12*
X207614082Y-47883144D03*
D20*
X218297244Y-46652236D03*
D12*
X213727816Y-43279059D03*
D20*
X209242820Y-51261250D03*
D22*
X219441546Y-41860462D03*
D21*
X216670567Y-41775940D03*
D23*
X205938764Y-45881519D03*
D25*
X205258916Y-49088655D03*
D22*
X208152288Y-45139796D03*
D24*
X204492358Y-46943214D03*
D21*
X205828325Y-50154759D03*
%TD*%
D36*
%TO.C,SW5*%
X82279673Y-68188650D03*
D12*
X75004442Y-60269300D03*
X80458254Y-60579037D03*
X83910857Y-64811056D03*
X75511761Y-61889518D03*
D14*
X77757011Y-65880526D03*
D36*
X73228845Y-63572577D03*
D12*
X82322788Y-62509201D03*
D38*
X86828903Y-66297875D03*
D37*
X85268543Y-64006425D03*
D38*
X77540207Y-59092217D03*
D40*
X73929959Y-57191295D03*
D37*
X72117026Y-60159814D03*
D39*
X72644832Y-59072511D03*
D41*
X75639064Y-57737413D03*
%TD*%
D34*
%TO.C,D66*%
X235986598Y-86826905D03*
X235305612Y-85490395D03*
X230672378Y-87851146D03*
X231353364Y-89187655D03*
%TD*%
D11*
%TO.C,D69*%
X143605319Y-158700333D03*
X143605319Y-157200333D03*
X138405319Y-157200333D03*
X138405319Y-158700333D03*
%TD*%
D57*
%TO.C,SW36*%
X124573616Y-113347381D03*
D58*
X135341572Y-116836940D03*
D59*
X129155305Y-86958907D03*
D57*
X140036954Y-126323059D03*
D59*
X164239605Y-118007960D03*
D58*
X173331794Y-102264300D03*
X141711239Y-76655648D03*
D60*
X171329649Y-77215278D03*
X167499427Y-74001340D03*
X169414538Y-75608309D03*
D61*
X173551222Y-114386842D03*
X130524117Y-78285803D03*
%TD*%
D36*
%TO.C,SW15*%
X79951139Y-93166326D03*
D12*
X87180548Y-90172786D03*
X90633151Y-94404805D03*
D14*
X84479305Y-95474275D03*
D12*
X82234055Y-91483267D03*
X89045082Y-92102950D03*
X81726736Y-89863049D03*
D36*
X89001967Y-97782399D03*
D38*
X93551197Y-95891624D03*
D37*
X91990837Y-93600174D03*
D41*
X82361358Y-87331162D03*
D39*
X79367126Y-88666260D03*
D37*
X78839320Y-89753563D03*
D40*
X80652253Y-86785044D03*
D38*
X84262501Y-88685966D03*
%TD*%
D11*
%TO.C,D43*%
X182234910Y-156925642D03*
X182234910Y-155425642D03*
X177034910Y-155425642D03*
X177034910Y-156925642D03*
%TD*%
D34*
%TO.C,D65*%
X198872023Y-98601004D03*
X198191037Y-97264494D03*
X193557803Y-99625245D03*
X194238789Y-100961754D03*
%TD*%
%TO.C,D61*%
X220849442Y-99412439D03*
X220168456Y-98075929D03*
X215535222Y-100436680D03*
X216216208Y-101773189D03*
%TD*%
D42*
%TO.C,D58*%
X94666316Y-134465916D03*
X95347302Y-133129407D03*
X90714068Y-130768656D03*
X90033082Y-132105166D03*
%TD*%
D27*
%TO.C,SW31*%
X262510438Y-66301034D03*
X272325269Y-63675258D03*
D12*
X268557017Y-59425755D03*
X265879866Y-59238981D03*
X263080788Y-63522708D03*
D14*
X267419840Y-64986239D03*
D12*
X271277424Y-60073742D03*
X261619639Y-62658114D03*
D28*
X274440831Y-59226110D03*
D29*
X271747978Y-58567315D03*
D32*
X260397092Y-60351910D03*
D31*
X258761555Y-61089681D03*
D29*
X259400611Y-64508809D03*
D28*
X262716458Y-60086613D03*
D30*
X259065299Y-63347615D03*
%TD*%
D26*
%TO.C,H2*%
X104297587Y-111597682D03*
%TD*%
D12*
%TO.C,SW23*%
X228321973Y-77511224D03*
X233775137Y-77205528D03*
X224865720Y-81741391D03*
D20*
X226494458Y-85119497D03*
D12*
X226474698Y-82283302D03*
X230979454Y-77137306D03*
D14*
X231023216Y-82812713D03*
D20*
X235548882Y-80510483D03*
D21*
X233922205Y-75634187D03*
D22*
X236693184Y-75718709D03*
D23*
X223190402Y-79739766D03*
D22*
X225403926Y-78998043D03*
D21*
X223079963Y-84013006D03*
D25*
X222510554Y-82946902D03*
D24*
X221743996Y-80801461D03*
%TD*%
D34*
%TO.C,D47*%
X218734962Y-52968658D03*
X218053976Y-51632148D03*
X213420742Y-53992899D03*
X214101728Y-55329408D03*
%TD*%
D12*
%TO.C,SW6*%
X52856366Y-76006200D03*
X46017248Y-75982495D03*
X50830703Y-74245885D03*
D14*
X48601794Y-79762629D03*
D62*
X53308412Y-81667794D03*
D12*
X54639012Y-78160887D03*
X45370649Y-74412658D03*
D62*
X43889708Y-77858119D03*
D63*
X55921403Y-77240987D03*
D64*
X57675539Y-79387723D03*
D63*
X42484678Y-74555244D03*
D64*
X47794175Y-73019049D03*
D65*
X45782188Y-71835095D03*
D66*
X42915710Y-73426078D03*
D67*
X44031989Y-71440014D03*
%TD*%
D12*
%TO.C,SW12*%
X117912909Y-148216950D03*
X121725321Y-144803642D03*
X116725321Y-147003643D03*
D14*
X121725321Y-150753642D03*
D12*
X126722909Y-147006950D03*
D44*
X116642909Y-150752989D03*
D12*
X124262909Y-145676950D03*
D44*
X126802909Y-150756950D03*
D46*
X127567321Y-145673642D03*
D45*
X129997909Y-147006950D03*
D48*
X114079562Y-147008538D03*
D46*
X114102909Y-148216950D03*
D45*
X118450320Y-144803642D03*
D47*
X116141321Y-144459603D03*
D49*
X114370565Y-144748926D03*
%TD*%
D42*
%TO.C,D45*%
X92774974Y-84920093D03*
X93455960Y-83583584D03*
X88822726Y-81222833D03*
X88141740Y-82559343D03*
%TD*%
D12*
%TO.C,SW1*%
X68874063Y-42927901D03*
X67091417Y-40773214D03*
D14*
X62836845Y-44529643D03*
D62*
X67543463Y-46434808D03*
X58124759Y-42625133D03*
D12*
X65065754Y-39012899D03*
X59605700Y-39179672D03*
X60252299Y-40749509D03*
D63*
X70156454Y-42008001D03*
D64*
X71910590Y-44154737D03*
X62029226Y-37786063D03*
D63*
X56719729Y-39322258D03*
D65*
X60017239Y-36602109D03*
D67*
X58267040Y-36207028D03*
D66*
X57150761Y-38193092D03*
%TD*%
D50*
%TO.C,D53*%
X241912546Y-48964978D03*
X241350637Y-47574202D03*
X236529281Y-49522156D03*
X237091190Y-50912932D03*
%TD*%
D42*
%TO.C,D46*%
X84149157Y-101849218D03*
X84830143Y-100512709D03*
X80196909Y-98151958D03*
X79515923Y-99488468D03*
%TD*%
D34*
%TO.C,D60*%
X212223623Y-82483311D03*
X211542637Y-81146801D03*
X206909403Y-83507552D03*
X207590389Y-84844061D03*
%TD*%
D12*
%TO.C,SW11*%
X82425037Y-109931381D03*
X76971225Y-109621644D03*
D14*
X79723794Y-115232870D03*
D12*
X77478544Y-111241862D03*
D36*
X75195628Y-112924921D03*
D12*
X85877640Y-114163400D03*
X84289571Y-111861545D03*
D36*
X84246456Y-117540994D03*
D37*
X87235326Y-113358769D03*
D38*
X88795686Y-115650219D03*
D39*
X74611615Y-108424855D03*
D41*
X77605847Y-107089757D03*
D40*
X75896742Y-106543639D03*
D37*
X74083809Y-109512158D03*
D38*
X79506990Y-108444561D03*
%TD*%
D50*
%TO.C,D48*%
X249030067Y-66581470D03*
X248468158Y-65190694D03*
X243646802Y-67138648D03*
X244208711Y-68529424D03*
%TD*%
D68*
%TO.C,HAT1*%
X150549563Y-131944562D03*
D69*
X145849563Y-133844562D03*
X154249563Y-142244562D03*
D68*
X145849563Y-137544562D03*
X150549563Y-142244562D03*
D69*
X145849563Y-140344562D03*
X147749563Y-131944562D03*
X156149563Y-140344562D03*
X147749563Y-142244562D03*
D68*
X156149563Y-137544562D03*
D69*
X156149563Y-133844562D03*
X154249563Y-131944562D03*
%TD*%
D20*
%TO.C,SW19*%
X198434307Y-92284581D03*
D12*
X187751145Y-93515489D03*
X191207398Y-89285322D03*
X193864879Y-88911404D03*
D20*
X189379883Y-96893595D03*
D14*
X193908641Y-94586811D03*
D12*
X189360123Y-94057400D03*
X196660562Y-88979626D03*
D21*
X196807630Y-87408285D03*
D22*
X199578609Y-87492807D03*
D21*
X185965388Y-95787104D03*
D23*
X186075827Y-91513864D03*
D25*
X185395979Y-94721000D03*
D24*
X184629421Y-92575559D03*
D22*
X188289351Y-90772141D03*
%TD*%
D42*
%TO.C,D73*%
X68801040Y-89184593D03*
X69482026Y-87848084D03*
X64848792Y-85487333D03*
X64167806Y-86823843D03*
%TD*%
D14*
%TO.C,SW3*%
X37645053Y-46610499D03*
D12*
X39185026Y-40863240D03*
X33785995Y-41694183D03*
D13*
X42548770Y-47927871D03*
D12*
X41410119Y-42363567D03*
X43442068Y-44284943D03*
D13*
X32735989Y-45294443D03*
D12*
X34619090Y-43173518D03*
D16*
X44602792Y-43215617D03*
D15*
X46605475Y-45132576D03*
D16*
X30938913Y-42187417D03*
D15*
X36021618Y-40015608D03*
D19*
X31229121Y-41014138D03*
D17*
X33880341Y-39085679D03*
D18*
X32095038Y-38906838D03*
%TD*%
D33*
%TO.C,D59*%
X266513937Y-51584612D03*
X266125709Y-50135723D03*
X261102894Y-51481582D03*
X261491123Y-52930471D03*
%TD*%
D70*
%TO.C,D50*%
X63063565Y-50909102D03*
X63625474Y-49518326D03*
X58804118Y-47570372D03*
X58242209Y-48961148D03*
%TD*%
D12*
%TO.C,SW10*%
X75285033Y-81740182D03*
D36*
X73653849Y-85117776D03*
D14*
X69131187Y-82809652D03*
D36*
X64603021Y-80501703D03*
D12*
X66378618Y-77198426D03*
X66885937Y-78818644D03*
X71832430Y-77508163D03*
X73696964Y-79438327D03*
D38*
X78203079Y-83227001D03*
D37*
X76642719Y-80935551D03*
D40*
X65304135Y-74120421D03*
D37*
X63491202Y-77088940D03*
D41*
X67013240Y-74666539D03*
D38*
X68914383Y-76021343D03*
D39*
X64019008Y-76001637D03*
%TD*%
D51*
%TO.C,SW32*%
X232605337Y-46436773D03*
D12*
X235089003Y-39016729D03*
X231277219Y-42929568D03*
X232832844Y-43609648D03*
D51*
X242027009Y-42634443D03*
D12*
X237768960Y-38875849D03*
X240548060Y-39187472D03*
D14*
X237317912Y-44533473D03*
D52*
X243584587Y-37960635D03*
D53*
X240831519Y-37634928D03*
D54*
X229782730Y-40789545D03*
D53*
X229300273Y-45036899D03*
D56*
X228249295Y-41721138D03*
D52*
X232052475Y-40243566D03*
D55*
X228825947Y-43925225D03*
%TD*%
D42*
%TO.C,D52*%
X79393644Y-121607814D03*
X80074630Y-120271305D03*
X75441396Y-117910554D03*
X74760410Y-119247064D03*
%TD*%
D36*
%TO.C,SW9*%
X97627785Y-80853274D03*
D12*
X99258969Y-77475680D03*
X90352554Y-72933924D03*
D36*
X88576957Y-76237201D03*
D14*
X93105123Y-78545150D03*
D12*
X95806366Y-73243661D03*
X97670900Y-75173825D03*
X90859873Y-74554142D03*
D38*
X102177015Y-78962499D03*
D37*
X100616655Y-76671049D03*
D40*
X89278071Y-69855919D03*
D37*
X87465138Y-72824438D03*
D38*
X92888319Y-71756841D03*
D39*
X87992944Y-71737135D03*
D41*
X90987176Y-70402037D03*
%TD*%
D12*
%TO.C,SW13*%
X121236391Y-76664250D03*
X119648322Y-74362395D03*
D36*
X110554379Y-75425771D03*
X119605207Y-80041844D03*
D12*
X117783788Y-72432231D03*
X112329976Y-72122494D03*
X112837295Y-73742712D03*
D14*
X115082545Y-77733720D03*
D37*
X122594077Y-75859619D03*
D38*
X124154437Y-78151069D03*
X114865741Y-70945411D03*
D40*
X111255493Y-69044489D03*
D41*
X112964598Y-69590607D03*
D37*
X109442560Y-72013008D03*
D39*
X109970366Y-70925705D03*
%TD*%
D42*
%TO.C,D72*%
X106126574Y-101037785D03*
X106807560Y-99701276D03*
X102174326Y-97340525D03*
X101493340Y-98677035D03*
%TD*%
D12*
%TO.C,SW18*%
X188034744Y-72050500D03*
D20*
X180754065Y-79964469D03*
X189808489Y-75355455D03*
D12*
X179125327Y-76586363D03*
X185239061Y-71982278D03*
D14*
X185282823Y-77657685D03*
D12*
X180734305Y-77128274D03*
X182581580Y-72356196D03*
D21*
X188181812Y-70479159D03*
D22*
X190952791Y-70563681D03*
D23*
X177450009Y-74584738D03*
D21*
X177339570Y-78857978D03*
D22*
X179663533Y-73843015D03*
D25*
X176770161Y-77791874D03*
D24*
X176003603Y-75646433D03*
%TD*%
D26*
%TO.C,H1*%
X62794908Y-93391642D03*
%TD*%
D12*
%TO.C,SW24*%
X192476930Y-60468673D03*
D20*
X203160092Y-59237765D03*
D12*
X194085908Y-61010584D03*
X201386347Y-55932810D03*
D20*
X194105668Y-63846779D03*
D12*
X195933183Y-56238506D03*
X198590664Y-55864588D03*
D14*
X198634426Y-61539995D03*
D21*
X201533415Y-54361469D03*
D22*
X204304394Y-54445991D03*
D24*
X189355206Y-59528743D03*
D23*
X190801612Y-58467048D03*
D25*
X190121764Y-61674184D03*
D21*
X190691173Y-62740288D03*
D22*
X193015136Y-57725325D03*
%TD*%
D12*
%TO.C,SW17*%
X143542907Y-147793641D03*
X136005319Y-149120334D03*
D14*
X141005319Y-152870333D03*
D44*
X146082907Y-152873641D03*
X135922907Y-152869680D03*
D12*
X137192907Y-150333641D03*
X141005319Y-146920333D03*
X146002907Y-149123641D03*
D46*
X146847319Y-147790333D03*
D45*
X149277907Y-149123641D03*
D49*
X133650563Y-146865617D03*
D46*
X133382907Y-150333641D03*
D48*
X133359560Y-149125229D03*
D45*
X137730318Y-146920333D03*
D47*
X135421319Y-146576294D03*
%TD*%
D26*
%TO.C,H7*%
X185222906Y-63419643D03*
%TD*%
D34*
%TO.C,D54*%
X227360782Y-69897783D03*
X226679796Y-68561273D03*
X222046562Y-70922024D03*
X222727548Y-72258533D03*
%TD*%
D71*
%TO.C,U5*%
X163766534Y-57381373D03*
D72*
X165295145Y-59409907D03*
X166823755Y-61438441D03*
X168352365Y-63466975D03*
X169880975Y-65495510D03*
%TD*%
D34*
%TO.C,D49*%
X210332288Y-132029134D03*
X209651302Y-130692624D03*
X205018068Y-133053375D03*
X205699054Y-134389884D03*
%TD*%
D70*
%TO.C,D68*%
X48828517Y-86142089D03*
X49390426Y-84751313D03*
X44569070Y-82803359D03*
X44007161Y-84194135D03*
%TD*%
D73*
%TO.C,SW37*%
X182237236Y-38810517D03*
X186940563Y-45527563D03*
D74*
X185736052Y-43807344D03*
D75*
X184588899Y-42169040D03*
X183441746Y-40530736D03*
%TD*%
D20*
%TO.C,SW29*%
X226923066Y-63581361D03*
D12*
X217848882Y-65354180D03*
D14*
X222397400Y-65883591D03*
D12*
X216239904Y-64812269D03*
X222353638Y-60208184D03*
X219696157Y-60582102D03*
D20*
X217868642Y-68190375D03*
D12*
X225149321Y-60276406D03*
D21*
X225296389Y-58705065D03*
D22*
X228067368Y-58789587D03*
D24*
X213118180Y-63872339D03*
D21*
X214454147Y-67083884D03*
D23*
X214564586Y-62810644D03*
D25*
X213884738Y-66017780D03*
D22*
X216778110Y-62068921D03*
%TD*%
D12*
%TO.C,SW30*%
X252004007Y-74108837D03*
X249324050Y-74249717D03*
D14*
X251552959Y-79766461D03*
D51*
X256262056Y-77867431D03*
D12*
X247067891Y-78842636D03*
D51*
X246840384Y-81669761D03*
D12*
X254783107Y-74420460D03*
X245512266Y-78162556D03*
D52*
X257819634Y-73193623D03*
D53*
X255066566Y-72867916D03*
D56*
X242484342Y-76954126D03*
D55*
X243060994Y-79158213D03*
D53*
X243535320Y-80269887D03*
D54*
X244017777Y-76022533D03*
D52*
X246287522Y-75476554D03*
%TD*%
D12*
%TO.C,SW2*%
X59974182Y-58390116D03*
D14*
X55719610Y-62146545D03*
D12*
X57948519Y-56629801D03*
X52488465Y-56796574D03*
X53135064Y-58366411D03*
X61756828Y-60544803D03*
D62*
X51007524Y-60242035D03*
X60426228Y-64051710D03*
D63*
X63039219Y-59624903D03*
D64*
X64793355Y-61771639D03*
D66*
X50033526Y-55809994D03*
D65*
X52900004Y-54219011D03*
D63*
X49602494Y-56939160D03*
D64*
X54911991Y-55402965D03*
D67*
X51149805Y-53823930D03*
%TD*%
D26*
%TO.C,H5*%
X51458230Y-39784918D03*
%TD*%
D43*
%TO.C,D44*%
X38647543Y-52914777D03*
X39035772Y-51465888D03*
X34012957Y-50120029D03*
X33624729Y-51568918D03*
%TD*%
D14*
%TO.C,SW20*%
X215886061Y-95398247D03*
D12*
X213184818Y-90096758D03*
D20*
X211357303Y-97705031D03*
D12*
X211337543Y-94868836D03*
X218637982Y-89791062D03*
X215842299Y-89722840D03*
X209728565Y-94326925D03*
D20*
X220411727Y-93096017D03*
D22*
X221556029Y-88304243D03*
D21*
X218785050Y-88219721D03*
D24*
X206606841Y-93386995D03*
D25*
X207373399Y-95532436D03*
D22*
X210266771Y-91583577D03*
D23*
X208053247Y-92325300D03*
D21*
X207942808Y-96598540D03*
%TD*%
D12*
%TO.C,SW14*%
X109157966Y-89361352D03*
X103704154Y-89051615D03*
D36*
X101928557Y-92354892D03*
D14*
X106456723Y-94662841D03*
D12*
X104211473Y-90671833D03*
X112610569Y-93593371D03*
D36*
X110979385Y-96970965D03*
D12*
X111022500Y-91291516D03*
D37*
X113968255Y-92788740D03*
D38*
X115528615Y-95080190D03*
D39*
X101344544Y-87854826D03*
D37*
X100816738Y-88942129D03*
D38*
X106239919Y-87874532D03*
D40*
X102629671Y-85973610D03*
D41*
X104338776Y-86519728D03*
%TD*%
D42*
%TO.C,D62*%
X101400796Y-67990967D03*
X102081782Y-66654458D03*
X97448548Y-64293707D03*
X96767562Y-65630217D03*
%TD*%
D26*
%TO.C,H4*%
X237253561Y-93645639D03*
%TD*%
D70*
%TO.C,D57*%
X55946331Y-68526004D03*
X56508240Y-67135228D03*
X51686884Y-65187274D03*
X51124975Y-66578050D03*
%TD*%
D76*
%TO.C,D29*%
X229801915Y-69712058D03*
X233099905Y-69827226D03*
%TD*%
D77*
%TO.C,D39*%
X158493562Y-133919564D03*
X161793562Y-133919564D03*
%TD*%
D78*
%TO.C,U6*%
X120498000Y-46248000D03*
D79*
X120498000Y-45748000D03*
X120498000Y-45248000D03*
X121998000Y-45248000D03*
X121998000Y-45748000D03*
X121998000Y-46248000D03*
%TD*%
D80*
%TO.C,D40*%
X106117000Y-53114000D03*
X103867000Y-53114000D03*
%TD*%
D81*
%TO.C,C4*%
X160018839Y-94981640D03*
X158118839Y-94981640D03*
%TD*%
D77*
%TO.C,D15*%
X85274908Y-104567642D03*
X88574908Y-104567642D03*
%TD*%
D82*
%TO.C,J2*%
X147487564Y-126273562D03*
X147987564Y-126273562D03*
X148487564Y-126273562D03*
X148987564Y-126273562D03*
X149487564Y-126273562D03*
X149987564Y-126273562D03*
X150487564Y-126273562D03*
X150987564Y-126273562D03*
X151487564Y-126273562D03*
X151987564Y-126273562D03*
X152487564Y-126273562D03*
X152987564Y-126273562D03*
D83*
X154787564Y-123549562D03*
X145687564Y-123549562D03*
%TD*%
D84*
%TO.C,D3*%
X40317913Y-55095226D03*
X43615903Y-54980058D03*
%TD*%
D76*
%TO.C,D23*%
X238691913Y-86730057D03*
X241989903Y-86845225D03*
%TD*%
D85*
%TO.C,U2*%
X155631911Y-66402643D03*
X154361911Y-66402643D03*
X153091911Y-66402643D03*
X151821911Y-66402643D03*
X150551911Y-66402643D03*
X149281911Y-66402643D03*
X148011911Y-66402643D03*
X146741911Y-66402643D03*
X146741911Y-61452643D03*
X148011911Y-61452643D03*
X149281911Y-61452643D03*
X150551911Y-61452643D03*
X151821911Y-61452643D03*
X153091911Y-61452643D03*
X154361911Y-61452643D03*
X155631911Y-61452643D03*
%TD*%
D77*
%TO.C,D37*%
X140967564Y-142809565D03*
X144267564Y-142809565D03*
%TD*%
D86*
%TO.C,C6*%
X99150000Y-50884000D03*
X99150000Y-51844000D03*
%TD*%
D77*
%TO.C,D10*%
X70034907Y-92121643D03*
X73334907Y-92121643D03*
%TD*%
D84*
%TO.C,D9*%
X93149912Y-87607229D03*
X96447902Y-87492061D03*
%TD*%
D87*
%TO.C,J1*%
X125231938Y-125826099D03*
X125585491Y-126179652D03*
X125939045Y-126533206D03*
X126292598Y-126886759D03*
X126646151Y-127240312D03*
X126999705Y-127593866D03*
X127353258Y-127947419D03*
X127706812Y-128300973D03*
X128060365Y-128654526D03*
X128413918Y-129008079D03*
X128767472Y-129361633D03*
X129121025Y-129715186D03*
D88*
X132319976Y-129061819D03*
X125885305Y-122627148D03*
%TD*%
D76*
%TO.C,D22*%
X165031914Y-160390059D03*
X168329904Y-160505227D03*
%TD*%
D89*
%TO.C,R1*%
X159981337Y-106411641D03*
X158156337Y-106411641D03*
%TD*%
D90*
%TO.C,R2*%
X158156339Y-104125642D03*
X159981339Y-104125642D03*
%TD*%
D91*
%TO.C,D19*%
X201353158Y-98500438D03*
X204652656Y-98442846D03*
%TD*%
D76*
%TO.C,D21*%
X212224900Y-131694731D03*
X215522890Y-131809899D03*
%TD*%
%TO.C,D27*%
X184081910Y-158612059D03*
X187379900Y-158727227D03*
%TD*%
D92*
%TO.C,JP6*%
X119507000Y-48034000D03*
D93*
X120957000Y-48034000D03*
%TD*%
D94*
%TO.C,R3*%
X142617565Y-101558065D03*
X142617565Y-99733065D03*
%TD*%
D95*
%TO.C,JP1*%
X109818000Y-53913000D03*
D96*
X109818000Y-55363000D03*
%TD*%
D77*
%TO.C,D38*%
X158493563Y-137729564D03*
X161793563Y-137729564D03*
%TD*%
D97*
%TO.C,JP4*%
X120158000Y-41684000D03*
D98*
X118708000Y-41684000D03*
%TD*%
D84*
%TO.C,D16*%
X96197914Y-136883227D03*
X99495904Y-136768059D03*
%TD*%
D76*
%TO.C,D24*%
X206179913Y-65394056D03*
X209477903Y-65509224D03*
%TD*%
D84*
%TO.C,D17*%
X145727912Y-160251227D03*
X149025902Y-160136059D03*
%TD*%
D76*
%TO.C,D30*%
X258757915Y-84190059D03*
X262055905Y-84305227D03*
%TD*%
D84*
%TO.C,D7*%
X34729914Y-73637228D03*
X38027904Y-73522060D03*
%TD*%
D99*
%TO.C,F1*%
X105525500Y-50574000D03*
X103950500Y-50574000D03*
%TD*%
D100*
%TO.C,D25*%
X214815157Y-82186846D03*
X218114655Y-82244438D03*
%TD*%
D101*
%TO.C,D35*%
X142617562Y-136079566D03*
X142617562Y-139379566D03*
%TD*%
D77*
%TO.C,D20*%
X222942907Y-99487642D03*
X226242907Y-99487642D03*
%TD*%
D84*
%TO.C,D6*%
X49969914Y-89131225D03*
X53267904Y-89016057D03*
%TD*%
%TO.C,D14*%
X107373912Y-103863227D03*
X110671902Y-103748059D03*
%TD*%
D76*
%TO.C,D34*%
X268917915Y-52694057D03*
X272215905Y-52809225D03*
%TD*%
D77*
%TO.C,D5*%
X78670907Y-75357641D03*
X81970907Y-75357641D03*
%TD*%
D102*
%TO.C,C3*%
X158118839Y-97267644D03*
X160018839Y-97267644D03*
%TD*%
D84*
%TO.C,D2*%
X57456649Y-71097225D03*
X60754639Y-70982057D03*
%TD*%
D76*
%TO.C,D18*%
X192463915Y-81650058D03*
X195761905Y-81765226D03*
%TD*%
D84*
%TO.C,D12*%
X126169914Y-158473226D03*
X129467904Y-158358058D03*
%TD*%
D77*
%TO.C,D1*%
X64005563Y-53782564D03*
X67305563Y-53782564D03*
%TD*%
D103*
%TO.C,U4*%
X155480910Y-92929642D03*
D104*
X155480910Y-94709642D03*
X155480910Y-96489642D03*
X155480910Y-98269642D03*
X155480910Y-100049642D03*
X155480910Y-101829642D03*
X155480910Y-103609642D03*
X155480910Y-105389642D03*
X144780910Y-106279642D03*
X144780910Y-104499642D03*
X144780910Y-102719642D03*
X144780910Y-100939642D03*
X144780910Y-99159642D03*
X144780910Y-97379642D03*
X144780910Y-95599642D03*
X144780910Y-93819642D03*
%TD*%
D95*
%TO.C,JP5*%
X101219000Y-50357000D03*
D96*
X101219000Y-51807000D03*
%TD*%
D76*
%TO.C,D32*%
X244279914Y-49392058D03*
X247577904Y-49507226D03*
%TD*%
D84*
%TO.C,D4*%
X87307914Y-58143226D03*
X90605904Y-58028058D03*
%TD*%
D97*
%TO.C,JP3*%
X118888000Y-45494000D03*
D98*
X117438000Y-45494000D03*
%TD*%
D76*
%TO.C,D28*%
X221165913Y-52694061D03*
X224463903Y-52809229D03*
%TD*%
%TO.C,D26*%
X228023913Y-118734060D03*
X231321903Y-118849228D03*
%TD*%
D105*
%TO.C,U3*%
X158185336Y-92883640D03*
X158185336Y-91933640D03*
X158185336Y-90983640D03*
X160460336Y-90983640D03*
X160460336Y-92883640D03*
%TD*%
D76*
%TO.C,D31*%
X273743913Y-70728058D03*
X277041903Y-70843226D03*
%TD*%
D84*
%TO.C,D13*%
X116009910Y-87353225D03*
X119307900Y-87238057D03*
%TD*%
D106*
%TO.C,C5*%
X147697562Y-59177564D03*
X147697562Y-57277564D03*
%TD*%
D102*
%TO.C,C1*%
X158118838Y-101839641D03*
X160018838Y-101839641D03*
%TD*%
D107*
%TO.C,SW35*%
X130641155Y-51787214D03*
X124087939Y-47198602D03*
X128060061Y-55473398D03*
X121506845Y-50884786D03*
%TD*%
D84*
%TO.C,D8*%
X102293912Y-71097226D03*
X105591902Y-70982058D03*
%TD*%
D102*
%TO.C,C2*%
X158118837Y-99472820D03*
X160018837Y-99472820D03*
%TD*%
D84*
%TO.C,D11*%
X79941914Y-124437224D03*
X83239904Y-124322056D03*
%TD*%
D77*
%TO.C,D36*%
X139695563Y-137729563D03*
X136395563Y-137729563D03*
%TD*%
D76*
%TO.C,D33*%
X251391911Y-66918061D03*
X254689901Y-67033229D03*
%TD*%
D95*
%TO.C,JP2*%
X108548000Y-50320000D03*
D96*
X108548000Y-51770000D03*
%TD*%
D108*
%TO.C,J3*%
X148317564Y-52041565D03*
D109*
X150317564Y-52041565D03*
X152317564Y-52041565D03*
X154317564Y-52041565D03*
X156317564Y-52041565D03*
X158317564Y-52041565D03*
X160317564Y-52041565D03*
X162317564Y-52041565D03*
%TD*%
M02*
