%TF.GenerationSoftware,KiCad,Pcbnew,(6.0.4-0)*%
%TF.CreationDate,2022-06-15T11:13:41+02:00*%
%TF.ProjectId,konafa_min,6b6f6e61-6661-45f6-9d69-6e2e6b696361,v1.0.0*%
%TF.SameCoordinates,Original*%
%TF.FileFunction,OtherDrawing,Comment*%
%FSLAX46Y46*%
G04 Gerber Fmt 4.6, Leading zero omitted, Abs format (unit mm)*
G04 Created by KiCad (PCBNEW (6.0.4-0)) date 2022-06-15 11:13:41*
%MOMM*%
%LPD*%
G01*
G04 APERTURE LIST*
%ADD10C,0.150000*%
G04 APERTURE END LIST*
D10*
%TO.C,S15*%
X297198293Y-138508911D02*
X279811628Y-133850169D01*
X282131708Y-132918917D02*
X282390527Y-131952992D01*
X282131709Y-132918919D02*
X282390527Y-131952992D01*
X294688744Y-136283565D02*
X295654669Y-136542384D01*
X299278135Y-123019422D02*
X299019317Y-123985349D01*
X279811628Y-133850168D02*
X284211551Y-117429429D01*
X301598216Y-122088172D02*
X297198293Y-138508911D01*
X284211551Y-117429429D02*
X301598216Y-122088172D01*
X294688744Y-136283565D02*
X295654669Y-136542384D01*
X285496355Y-120361882D02*
X285755175Y-119395956D01*
X299278136Y-123019423D02*
X298312210Y-122760603D01*
X301598215Y-122088172D02*
X297198293Y-138508911D01*
X282131708Y-132918917D02*
X283097634Y-133177737D01*
X299278136Y-123019423D02*
X299019317Y-123985348D01*
X295913488Y-135576459D02*
X295654669Y-136542384D01*
X295913489Y-135576458D02*
X295654669Y-136542384D01*
X286721100Y-119654775D02*
X285755175Y-119395956D01*
X284211551Y-117429430D02*
X301598215Y-122088172D01*
X299278135Y-123019422D02*
X298312210Y-122760604D01*
X286721100Y-119654777D02*
X285755174Y-119395957D01*
X285496355Y-120361883D02*
X285755174Y-119395957D01*
X297198293Y-138508911D02*
X279811628Y-133850168D01*
X279811628Y-133850169D02*
X284211551Y-117429430D01*
X282131709Y-132918919D02*
X283097633Y-133177737D01*
%TO.C,T2*%
X191171762Y-62115501D02*
X193671762Y-62115501D01*
X191171762Y-66015501D02*
X191171762Y-62115501D01*
X193671762Y-66015501D02*
X191171762Y-66015501D01*
%TO.C,S3*%
X218433613Y-114553830D02*
X215481593Y-97812099D01*
X215481593Y-97812098D02*
X233208132Y-94686431D01*
X231498988Y-96510939D02*
X230514181Y-96684588D01*
X220142755Y-112729322D02*
X221127563Y-112555673D01*
X233208131Y-94686431D02*
X236160151Y-111428162D01*
X232945256Y-110471895D02*
X233930064Y-110298247D01*
X232945256Y-110471895D02*
X233930064Y-110298247D01*
X218696489Y-98768367D02*
X217711681Y-98942014D01*
X217885329Y-99926821D02*
X217711680Y-98942013D01*
X233756415Y-109313439D02*
X233930064Y-110298247D01*
X236160151Y-111428162D02*
X218433613Y-114553830D01*
X233208132Y-94686431D02*
X236160151Y-111428162D01*
X215481593Y-97812099D02*
X233208131Y-94686431D01*
X231498989Y-96510938D02*
X230514181Y-96684587D01*
X218696488Y-98768365D02*
X217711680Y-98942013D01*
X231498988Y-96510939D02*
X231672637Y-97495747D01*
X218433612Y-114553829D02*
X215481593Y-97812098D01*
X220142756Y-112729322D02*
X221127563Y-112555674D01*
X233756416Y-109313440D02*
X233930064Y-110298247D01*
X220142756Y-112729322D02*
X219969107Y-111744514D01*
X220142755Y-112729322D02*
X219969107Y-111744514D01*
X217885329Y-99926822D02*
X217711681Y-98942014D01*
X231498989Y-96510938D02*
X231672637Y-97495746D01*
X236160151Y-111428162D02*
X218433612Y-114553829D01*
%TO.C,S14*%
X281755903Y-134242121D02*
X263824399Y-132673317D01*
X265306047Y-115738007D02*
X283237551Y-117306811D01*
X265947523Y-131353338D02*
X266943717Y-131440493D01*
X267080547Y-118402806D02*
X267167702Y-117406611D01*
X263824399Y-132673317D02*
X265306047Y-115738007D01*
X283237551Y-117306811D02*
X281755903Y-134242121D01*
X265306046Y-115738008D02*
X283237550Y-117306811D01*
X281114428Y-118626791D02*
X281027272Y-119622986D01*
X278898053Y-132486361D02*
X279894248Y-132573517D01*
X265947523Y-131353338D02*
X266034678Y-130357142D01*
X268163897Y-117493769D02*
X267167702Y-117406612D01*
X278898053Y-132486361D02*
X279894248Y-132573517D01*
X283237550Y-117306811D02*
X281755903Y-134242121D01*
X268163897Y-117493767D02*
X267167702Y-117406611D01*
X281114428Y-118626791D02*
X280118233Y-118539636D01*
X279981403Y-131577322D02*
X279894248Y-132573517D01*
X281114427Y-118626791D02*
X280118233Y-118539637D01*
X265947522Y-131353337D02*
X266034678Y-130357142D01*
X267080546Y-118402807D02*
X267167702Y-117406612D01*
X281755903Y-134242121D02*
X263824400Y-132673318D01*
X281114427Y-118626791D02*
X281027272Y-119622987D01*
X265947522Y-131353337D02*
X266943717Y-131440492D01*
X263824400Y-132673318D02*
X265306046Y-115738008D01*
X279981403Y-131577323D02*
X279894248Y-132573517D01*
%TO.C,S1*%
X213397775Y-97579936D02*
X218368094Y-113837117D01*
X211923722Y-99599137D02*
X212216095Y-100555442D01*
X211923723Y-99599137D02*
X210967419Y-99891508D01*
X211923723Y-99599137D02*
X212216095Y-100555442D01*
X218368094Y-113837117D02*
X201154610Y-119099808D01*
X215724556Y-112031100D02*
X216016927Y-112987403D01*
X211923722Y-99599137D02*
X210967419Y-99891509D01*
X199491762Y-103399971D02*
X198535457Y-103692342D01*
X215060622Y-113279775D02*
X216016927Y-112987403D01*
X202628662Y-117080608D02*
X203584966Y-116788236D01*
X199491762Y-103399969D02*
X198535457Y-103692341D01*
X201154610Y-119099808D02*
X196184290Y-102842628D01*
X213397774Y-97579937D02*
X218368094Y-113837117D01*
X215060622Y-113279775D02*
X216016927Y-112987403D01*
X202628661Y-117080607D02*
X203584965Y-116788236D01*
X198827829Y-104648646D02*
X198535457Y-103692342D01*
X215724556Y-112031099D02*
X216016927Y-112987403D01*
X198827828Y-104648645D02*
X198535457Y-103692341D01*
X196184290Y-102842628D02*
X213397774Y-97579937D01*
X196184290Y-102842627D02*
X213397775Y-97579936D01*
X202628662Y-117080608D02*
X202336289Y-116124302D01*
X218368094Y-113837117D02*
X201154609Y-119099808D01*
X202628661Y-117080607D02*
X202336289Y-116124302D01*
X201154609Y-119099808D02*
X196184290Y-102842627D01*
%TO.C,S6*%
X233367485Y-89990809D02*
X251298989Y-88422005D01*
X249661319Y-104124490D02*
X250657514Y-104037335D01*
X234849134Y-106926120D02*
X233367485Y-89990810D01*
X236710789Y-105257516D02*
X236623633Y-104261320D01*
X251298988Y-88422005D02*
X252780637Y-105357315D01*
X250570358Y-103041140D02*
X250657514Y-104037335D01*
X251298989Y-88422005D02*
X252780637Y-105357315D01*
X250570358Y-103041141D02*
X250657514Y-104037335D01*
X249437333Y-90090609D02*
X249524490Y-91086805D01*
X249437334Y-90090609D02*
X249524489Y-91086804D01*
X234849133Y-106926119D02*
X233367485Y-89990809D01*
X249437334Y-90090609D02*
X248441139Y-90177765D01*
X249437333Y-90090609D02*
X248441139Y-90177766D01*
X252780637Y-105357315D02*
X234849134Y-106926120D01*
X236710788Y-105257515D02*
X237706983Y-105170359D01*
X233367485Y-89990810D02*
X251298988Y-88422005D01*
X236710788Y-105257515D02*
X236623633Y-104261320D01*
X252780637Y-105357315D02*
X234849133Y-106926119D01*
X236710789Y-105257516D02*
X237706983Y-105170360D01*
X236486803Y-91223636D02*
X235490608Y-91310790D01*
X235577764Y-92306985D02*
X235490608Y-91310790D01*
X235577764Y-92306984D02*
X235490608Y-91310789D01*
X249661319Y-104124490D02*
X250657514Y-104037335D01*
X236486803Y-91223634D02*
X235490608Y-91310789D01*
%TO.C,S13*%
X271601999Y-68330745D02*
X270601999Y-68330745D01*
X286601999Y-83830745D02*
X268602000Y-83830746D01*
X268601999Y-66830746D02*
X286601998Y-66830745D01*
X286601998Y-66830745D02*
X286601999Y-83830745D01*
X268602000Y-83830746D02*
X268601999Y-66830746D01*
X270601999Y-82330745D02*
X271601999Y-82330745D01*
X284601998Y-68330745D02*
X283601999Y-68330746D01*
X270601999Y-69330745D02*
X270601999Y-68330745D01*
X270602000Y-82330746D02*
X271601999Y-82330746D01*
X286601999Y-66830745D02*
X286601999Y-83830745D01*
X284601999Y-68330745D02*
X284601999Y-69330745D01*
X284601999Y-68330745D02*
X283601999Y-68330745D01*
X270602000Y-82330746D02*
X270601999Y-81330745D01*
X270601999Y-69330746D02*
X270601999Y-68330746D01*
X271601999Y-68330747D02*
X270601999Y-68330746D01*
X286601999Y-83830745D02*
X268601999Y-83830745D01*
X268601999Y-66830745D02*
X286601999Y-66830745D01*
X268601999Y-83830745D02*
X268601999Y-66830745D01*
X284601999Y-81330746D02*
X284601999Y-82330745D01*
X284601999Y-81330745D02*
X284601999Y-82330745D01*
X283601999Y-82330745D02*
X284601999Y-82330745D01*
X270601999Y-82330745D02*
X270601999Y-81330745D01*
X284601998Y-68330745D02*
X284601999Y-69330746D01*
X283601999Y-82330745D02*
X284601999Y-82330745D01*
%TO.C,S5*%
X213050519Y-84024789D02*
X210098500Y-67283058D01*
X213050520Y-84024790D02*
X210098500Y-67283059D01*
X226115896Y-65981898D02*
X225131088Y-66155547D01*
X228373322Y-78784399D02*
X228546971Y-79769207D01*
X210098500Y-67283058D02*
X227825039Y-64157391D01*
X226115895Y-65981899D02*
X226289544Y-66966707D01*
X227562163Y-79942855D02*
X228546971Y-79769207D01*
X214759662Y-82200282D02*
X214586014Y-81215474D01*
X226115896Y-65981898D02*
X226289544Y-66966706D01*
X213313395Y-68239325D02*
X212328587Y-68412973D01*
X214759662Y-82200282D02*
X215744470Y-82026633D01*
X226115895Y-65981899D02*
X225131088Y-66155548D01*
X227562163Y-79942855D02*
X228546971Y-79769207D01*
X214759663Y-82200282D02*
X214586014Y-81215474D01*
X227825038Y-64157391D02*
X230777058Y-80899122D01*
X210098500Y-67283059D02*
X227825038Y-64157391D01*
X213313396Y-68239327D02*
X212328588Y-68412974D01*
X227825039Y-64157391D02*
X230777058Y-80899122D01*
X214759663Y-82200282D02*
X215744470Y-82026634D01*
X230777058Y-80899122D02*
X213050519Y-84024789D01*
X212502236Y-69397782D02*
X212328588Y-68412974D01*
X212502236Y-69397781D02*
X212328587Y-68412973D01*
X228373323Y-78784400D02*
X228546971Y-79769207D01*
X230777058Y-80899122D02*
X213050520Y-84024790D01*
%TO.C,S13*%
X286611999Y-82332000D02*
X286612000Y-99332000D01*
X271612000Y-83832000D02*
X270612000Y-83832000D01*
X284612000Y-96832001D02*
X284612000Y-97832000D01*
X284612000Y-83832000D02*
X284612000Y-84832000D01*
X270612001Y-97832001D02*
X270612000Y-96832000D01*
X284611999Y-83832000D02*
X284612000Y-84832001D01*
X271612000Y-83832002D02*
X270612000Y-83832001D01*
X286612000Y-99332000D02*
X268612001Y-99332001D01*
X270612000Y-84832000D02*
X270612000Y-83832000D01*
X284612000Y-83832000D02*
X283612000Y-83832000D01*
X283612000Y-97832000D02*
X284612000Y-97832000D01*
X284612000Y-96832000D02*
X284612000Y-97832000D01*
X286612000Y-82332000D02*
X286612000Y-99332000D01*
X270612001Y-97832001D02*
X271612000Y-97832001D01*
X270612000Y-84832001D02*
X270612000Y-83832001D01*
X286612000Y-99332000D02*
X268612000Y-99332000D01*
X270612000Y-97832000D02*
X270612000Y-96832000D01*
X268612000Y-82332000D02*
X286612000Y-82332000D01*
X268612000Y-82332001D02*
X286611999Y-82332000D01*
X268612001Y-99332001D02*
X268612000Y-82332001D01*
X284611999Y-83832000D02*
X283612000Y-83832001D01*
X270612000Y-97832000D02*
X271612000Y-97832000D01*
X283612000Y-97832000D02*
X284612000Y-97832000D01*
X268612000Y-99332000D02*
X268612000Y-82332000D01*
%TO.C,S11*%
X268112000Y-66082000D02*
X268112000Y-67082000D01*
X268112000Y-79082001D02*
X268112000Y-80082000D01*
X267112000Y-80082000D02*
X268112000Y-80082000D01*
X268112000Y-66082000D02*
X267112000Y-66082000D01*
X254112000Y-80082000D02*
X255112000Y-80082000D01*
X254112000Y-67082001D02*
X254112000Y-66082001D01*
X254112000Y-67082000D02*
X254112000Y-66082000D01*
X254112000Y-80082000D02*
X254112000Y-79082000D01*
X270112000Y-64582000D02*
X270112000Y-81582000D01*
X254112001Y-80082001D02*
X255112000Y-80082001D01*
X270112000Y-81582000D02*
X252112001Y-81582001D01*
X268111999Y-66082000D02*
X268112000Y-67082001D01*
X267112000Y-80082000D02*
X268112000Y-80082000D01*
X252112000Y-64582000D02*
X270112000Y-64582000D01*
X254112001Y-80082001D02*
X254112000Y-79082000D01*
X255112000Y-66082000D02*
X254112000Y-66082000D01*
X270111999Y-64582000D02*
X270112000Y-81582000D01*
X255112000Y-66082002D02*
X254112000Y-66082001D01*
X268112000Y-79082000D02*
X268112000Y-80082000D01*
X252112001Y-81582001D02*
X252112000Y-64582001D01*
X252112000Y-64582001D02*
X270111999Y-64582000D01*
X270112000Y-81582000D02*
X252112000Y-81582000D01*
X268111999Y-66082000D02*
X267112000Y-66082001D01*
X252112000Y-81582000D02*
X252112000Y-64582000D01*
%TO.C,S12*%
X283612000Y-113332000D02*
X284612000Y-113332000D01*
X268612000Y-97832001D02*
X286611999Y-97832000D01*
X284611999Y-99332000D02*
X283612000Y-99332001D01*
X271612000Y-99332000D02*
X270612000Y-99332000D01*
X284611999Y-99332000D02*
X284612000Y-100332001D01*
X270612000Y-100332001D02*
X270612000Y-99332001D01*
X271612000Y-99332002D02*
X270612000Y-99332001D01*
X286612000Y-114832000D02*
X268612001Y-114832001D01*
X270612000Y-100332000D02*
X270612000Y-99332000D01*
X286612000Y-114832000D02*
X268612000Y-114832000D01*
X284612000Y-112332001D02*
X284612000Y-113332000D01*
X270612000Y-113332000D02*
X270612000Y-112332000D01*
X283612000Y-113332000D02*
X284612000Y-113332000D01*
X284612000Y-112332000D02*
X284612000Y-113332000D01*
X286612000Y-97832000D02*
X286612000Y-114832000D01*
X270612001Y-113332001D02*
X271612000Y-113332001D01*
X284612000Y-99332000D02*
X284612000Y-100332000D01*
X268612000Y-97832000D02*
X286612000Y-97832000D01*
X270612000Y-113332000D02*
X271612000Y-113332000D01*
X284612000Y-99332000D02*
X283612000Y-99332000D01*
X268612001Y-114832001D02*
X268612000Y-97832001D01*
X268612000Y-114832000D02*
X268612000Y-97832000D01*
X286611999Y-97832000D02*
X286612000Y-114832000D01*
X270612001Y-113332001D02*
X270612000Y-112332000D01*
%TO.C,S8*%
X233784974Y-60341598D02*
X232788779Y-60428753D01*
X234008959Y-74375479D02*
X235005154Y-74288323D01*
X230665656Y-59108774D02*
X248597159Y-57539969D01*
X248597159Y-57539969D02*
X250078808Y-74475279D01*
X232875935Y-61424949D02*
X232788779Y-60428754D01*
X246735505Y-59208573D02*
X245739310Y-59295729D01*
X246735504Y-59208573D02*
X246822661Y-60204769D01*
X234008960Y-74375480D02*
X233921804Y-73379284D01*
X234008959Y-74375479D02*
X233921804Y-73379284D01*
X232875935Y-61424948D02*
X232788779Y-60428753D01*
X246959490Y-73242454D02*
X247955685Y-73155299D01*
X232147305Y-76044084D02*
X230665656Y-59108774D01*
X232147304Y-76044083D02*
X230665656Y-59108773D01*
X246959490Y-73242454D02*
X247955685Y-73155299D01*
X250078808Y-74475279D02*
X232147305Y-76044084D01*
X248597160Y-57539969D02*
X250078808Y-74475279D01*
X230665656Y-59108773D02*
X248597160Y-57539969D01*
X247868529Y-72159104D02*
X247955685Y-73155299D01*
X250078808Y-74475279D02*
X232147304Y-76044083D01*
X233784974Y-60341600D02*
X232788779Y-60428754D01*
X246735504Y-59208573D02*
X245739310Y-59295730D01*
X234008960Y-74375480D02*
X235005154Y-74288324D01*
X247868529Y-72159105D02*
X247955685Y-73155299D01*
X246735505Y-59208573D02*
X246822660Y-60204768D01*
%TO.C,S9*%
X270111999Y-95582000D02*
X270112000Y-112582000D01*
X255112000Y-97082002D02*
X254112000Y-97082001D01*
X267112000Y-111082000D02*
X268112000Y-111082000D01*
X270112000Y-112582000D02*
X252112001Y-112582001D01*
X268112000Y-110082000D02*
X268112000Y-111082000D01*
X268112000Y-97082000D02*
X268112000Y-98082000D01*
X254112000Y-98082001D02*
X254112000Y-97082001D01*
X254112001Y-111082001D02*
X254112000Y-110082000D01*
X255112000Y-97082000D02*
X254112000Y-97082000D01*
X267112000Y-111082000D02*
X268112000Y-111082000D01*
X270112000Y-95582000D02*
X270112000Y-112582000D01*
X254112000Y-111082000D02*
X255112000Y-111082000D01*
X268112000Y-97082000D02*
X267112000Y-97082000D01*
X252112000Y-95582000D02*
X270112000Y-95582000D01*
X254112000Y-98082000D02*
X254112000Y-97082000D01*
X268111999Y-97082000D02*
X267112000Y-97082001D01*
X254112001Y-111082001D02*
X255112000Y-111082001D01*
X252112001Y-112582001D02*
X252112000Y-95582001D01*
X270112000Y-112582000D02*
X252112000Y-112582000D01*
X252112000Y-112582000D02*
X252112000Y-95582000D01*
X268111999Y-97082000D02*
X268112000Y-98082001D01*
X268112000Y-110082001D02*
X268112000Y-111082000D01*
X252112000Y-95582001D02*
X270111999Y-95582000D01*
X254112000Y-111082000D02*
X254112000Y-110082000D01*
%TO.C,S10*%
X268112000Y-81582000D02*
X268112000Y-82582000D01*
X254112001Y-95582001D02*
X255112000Y-95582001D01*
X270111999Y-80082000D02*
X270112000Y-97082000D01*
X268111999Y-81582000D02*
X268112000Y-82582001D01*
X254112000Y-95582000D02*
X255112000Y-95582000D01*
X252112000Y-97082000D02*
X252112000Y-80082000D01*
X254112000Y-82582000D02*
X254112000Y-81582000D01*
X270112000Y-80082000D02*
X270112000Y-97082000D01*
X252112000Y-80082001D02*
X270111999Y-80082000D01*
X268112000Y-81582000D02*
X267112000Y-81582000D01*
X252112000Y-80082000D02*
X270112000Y-80082000D01*
X252112001Y-97082001D02*
X252112000Y-80082001D01*
X268112000Y-94582001D02*
X268112000Y-95582000D01*
X270112000Y-97082000D02*
X252112000Y-97082000D01*
X254112001Y-95582001D02*
X254112000Y-94582000D01*
X255112000Y-81582002D02*
X254112000Y-81582001D01*
X270112000Y-97082000D02*
X252112001Y-97082001D01*
X267112000Y-95582000D02*
X268112000Y-95582000D01*
X267112000Y-95582000D02*
X268112000Y-95582000D01*
X268112000Y-94582000D02*
X268112000Y-95582000D01*
X254112000Y-82582001D02*
X254112000Y-81582001D01*
X268111999Y-81582000D02*
X267112000Y-81582001D01*
X254112000Y-95582000D02*
X254112000Y-94582000D01*
X255112000Y-81582000D02*
X254112000Y-81582000D01*
%TO.C,S2*%
X198096900Y-102257883D02*
X199053204Y-101965512D01*
X211192795Y-97208376D02*
X211485166Y-98164679D01*
X198096900Y-102257883D02*
X197804528Y-101301578D01*
X194296068Y-89825922D02*
X194003696Y-88869618D01*
X196622849Y-104277084D02*
X191652529Y-88019904D01*
X210528861Y-98457051D02*
X211485166Y-98164679D01*
X207391961Y-84776413D02*
X207684334Y-85732718D01*
X191652529Y-88019904D02*
X208866013Y-82757213D01*
X213836333Y-99014393D02*
X196622848Y-104277084D01*
X191652529Y-88019903D02*
X208866014Y-82757212D01*
X213836333Y-99014393D02*
X196622849Y-104277084D01*
X210528861Y-98457051D02*
X211485166Y-98164679D01*
X211192795Y-97208375D02*
X211485166Y-98164679D01*
X194960001Y-88577247D02*
X194003696Y-88869618D01*
X207391962Y-84776413D02*
X206435658Y-85068784D01*
X194960001Y-88577245D02*
X194003696Y-88869617D01*
X194296067Y-89825921D02*
X194003696Y-88869617D01*
X208866014Y-82757212D02*
X213836333Y-99014393D01*
X207391962Y-84776413D02*
X207684334Y-85732718D01*
X198096901Y-102257884D02*
X197804528Y-101301578D01*
X198096901Y-102257884D02*
X199053205Y-101965512D01*
X207391961Y-84776413D02*
X206435658Y-85068785D01*
X208866013Y-82757213D02*
X213836333Y-99014393D01*
X196622848Y-104277084D02*
X191652529Y-88019903D01*
%TO.C,T1*%
X191171762Y-62115501D02*
X193671762Y-62115501D01*
X193671762Y-66015501D02*
X191171762Y-66015501D01*
X191171762Y-66015501D02*
X191171762Y-62115501D01*
%TO.C,S4*%
X212790046Y-82547579D02*
X230516584Y-79421911D01*
X230516584Y-79421911D02*
X233468604Y-96163642D01*
X228807441Y-81246419D02*
X227822634Y-81420068D01*
X230253709Y-95207375D02*
X231238517Y-95033727D01*
X217451208Y-97464802D02*
X217277560Y-96479994D01*
X233468604Y-96163642D02*
X215742066Y-99289310D01*
X228807442Y-81246418D02*
X227822634Y-81420067D01*
X228807442Y-81246418D02*
X228981090Y-82231226D01*
X215193782Y-84662301D02*
X215020133Y-83677493D01*
X215742065Y-99289309D02*
X212790046Y-82547578D01*
X215193782Y-84662302D02*
X215020134Y-83677494D01*
X216004942Y-83503847D02*
X215020134Y-83677494D01*
X212790046Y-82547578D02*
X230516585Y-79421911D01*
X228807441Y-81246419D02*
X228981090Y-82231227D01*
X217451209Y-97464802D02*
X217277560Y-96479994D01*
X215742066Y-99289310D02*
X212790046Y-82547579D01*
X230516585Y-79421911D02*
X233468604Y-96163642D01*
X217451209Y-97464802D02*
X218436016Y-97291154D01*
X217451208Y-97464802D02*
X218436016Y-97291153D01*
X231064869Y-94048920D02*
X231238517Y-95033727D01*
X233468604Y-96163642D02*
X215742065Y-99289309D01*
X230253709Y-95207375D02*
X231238517Y-95033727D01*
X231064868Y-94048919D02*
X231238517Y-95033727D01*
X216004941Y-83503845D02*
X215020133Y-83677493D01*
%TO.C,S7*%
X249948074Y-72980987D02*
X251429723Y-89916297D01*
X248310405Y-88683472D02*
X249306600Y-88596317D01*
X233498219Y-91485101D02*
X232016571Y-74549791D01*
X248086420Y-74649591D02*
X247090225Y-74736747D01*
X251429723Y-89916297D02*
X233498219Y-91485101D01*
X235359875Y-89816498D02*
X235272719Y-88820302D01*
X234226850Y-76865967D02*
X234139694Y-75869772D01*
X251429723Y-89916297D02*
X233498220Y-91485102D01*
X248310405Y-88683472D02*
X249306600Y-88596317D01*
X235135889Y-75782616D02*
X234139694Y-75869771D01*
X248086419Y-74649591D02*
X247090225Y-74736748D01*
X249219444Y-87600122D02*
X249306600Y-88596317D01*
X235135889Y-75782618D02*
X234139694Y-75869772D01*
X233498220Y-91485102D02*
X232016571Y-74549792D01*
X249948075Y-72980987D02*
X251429723Y-89916297D01*
X248086419Y-74649591D02*
X248173576Y-75645787D01*
X248086420Y-74649591D02*
X248173575Y-75645786D01*
X235359875Y-89816498D02*
X236356069Y-89729342D01*
X232016571Y-74549792D02*
X249948074Y-72980987D01*
X249219444Y-87600123D02*
X249306600Y-88596317D01*
X232016571Y-74549791D02*
X249948075Y-72980987D01*
X234226850Y-76865966D02*
X234139694Y-75869771D01*
X235359874Y-89816497D02*
X235272719Y-88820302D01*
X235359874Y-89816497D02*
X236356069Y-89729341D01*
%TO.C,MCU1*%
X192786000Y-131406477D02*
X197866000Y-131406477D01*
X197866000Y-131445000D02*
X197866000Y-123825000D01*
X192786000Y-123825000D02*
X192786000Y-131445000D01*
X197866000Y-123786477D02*
X192786000Y-123786477D01*
X197866000Y-131406477D02*
X197866000Y-123786477D01*
X197866000Y-123825000D02*
X192786000Y-123825000D01*
X192786000Y-131445000D02*
X197866000Y-131445000D01*
%TD*%
M02*
