M48
; DRILL file {KiCad (6.0.4)} date Sun Dec 18 06:26:39 2022
; FORMAT={-:-/ absolute / inch / decimal}
; #@! TF.CreationDate,2022-12-18T06:26:39+01:00
; #@! TF.GenerationSoftware,Kicad,Pcbnew,(6.0.4)
; #@! TF.FileFunction,Plated,1,2,PTH
FMAT,2
INCH
; #@! TA.AperFunction,Plated,PTH,ViaDrill
T1C0.0157
; #@! TA.AperFunction,Plated,PTH,ComponentDrill
T2C0.0276
; #@! TA.AperFunction,Plated,PTH,ComponentDrill
T3C0.0295
; #@! TA.AperFunction,Plated,PTH,ComponentDrill
T4C0.0354
; #@! TA.AperFunction,Plated,PTH,ComponentDrill
T5C0.0394
; #@! TA.AperFunction,Plated,PTH,ComponentDrill
T6C0.0430
; #@! TA.AperFunction,Plated,PTH,ComponentDrill
T7C0.0472
; #@! TA.AperFunction,Plated,PTH,ComponentDrill
T8C0.0591
; #@! TA.AperFunction,Plated,PTH,ComponentDrill
T9C0.0945
; #@! TA.AperFunction,Plated,PTH,ComponentDrill
T10C0.1260
; #@! TA.AperFunction,Plated,PTH,ComponentDrill
T11C0.1496
%
G90
G05
T1
X1.0635Y-2.7211
X1.2235Y-1.8811
X1.2335Y-2.8811
X1.3035Y-2.8811
X1.4735Y-2.1511
X1.5235Y-2.2011
X1.6135Y-2.2511
X1.6335Y-2.6711
X1.6635Y-3.3011
X1.8735Y-2.7011
X1.8935Y-3.4611
X1.9535Y-1.9411
X1.9835Y-3.3011
X1.9935Y-2.6711
X2.0635Y-2.4911
X2.0635Y-3.1311
X2.1735Y-2.0111
X2.1735Y-2.7911
X2.2235Y-1.7711
X2.2235Y-1.8411
X2.2235Y-3.2011
X2.4535Y-2.0511
X2.4635Y-3.3911
X2.4735Y-3.3311
X2.5435Y-1.8811
X2.6035Y-2.2711
X2.6735Y-3.5711
X2.7535Y-3.4111
X2.8335Y-2.7911
X2.8835Y-1.6311
X2.8835Y-4.6711
X2.9335Y-2.6311
X2.9535Y-2.9411
X3.0135Y-4.5511
X3.0635Y-3.6111
X3.0735Y-3.8711
X3.0935Y-4.8411
X3.1035Y-3.9811
X3.1235Y-3.7811
X3.1335Y-2.1111
X3.1335Y-3.2011
X3.1435Y-4.4111
X3.1735Y-1.9211
X3.2035Y-4.6511
X3.2135Y-4.2111
X3.2535Y-4.0511
X3.3735Y-2.2411
X3.3735Y-3.9011
X3.3835Y-3.1711
X3.3935Y-4.9811
X3.4135Y-3.9911
X3.4435Y-2.0711
X3.4435Y-4.6511
X3.4535Y-3.3111
X3.4735Y-5.1611
X3.5135Y-2.4711
X3.5235Y-3.1011
X3.5435Y-3.4411
X3.6735Y-2.3311
X3.6935Y-5.3611
X3.7535Y-2.5411
X3.7535Y-3.7911
X3.7835Y-1.8711
X3.7835Y-5.1811
X3.8135Y-3.5411
X3.8635Y-2.0411
X3.9335Y-3.6011
X3.9735Y-2.7411
X3.9935Y-3.7211
X4.0335Y-3.9911
X4.0435Y-2.5611
X4.0735Y-2.9911
X4.1135Y-4.8811
X4.2635Y-3.1711
X4.3035Y-2.7311
X4.3335Y-1.9811
X4.3435Y-2.0611
X4.3835Y-3.3311
X4.4408Y-2.3783
X4.4835Y-2.3111
X4.6135Y-3.6611
X4.6135Y-6.1511
X4.6335Y-1.8711
X4.6735Y-6.0211
X4.7335Y-1.7311
X4.7349Y-5.2674
X4.8135Y-2.8511
X4.8235Y-1.8911
X4.8235Y-3.1711
X4.8422Y-3.4568
X4.8712Y-3.2751
X4.8822Y-3.4768
X4.8864Y-1.8582
X4.8935Y-6.2311
X4.9035Y-6.0311
X4.9135Y-2.0011
X4.9142Y-3.2724
X4.9435Y-2.1211
X4.9545Y-3.2724
X4.9735Y-1.8211
X4.9735Y-1.9611
X4.9949Y-3.2724
X5.0035Y-5.5311
X5.0135Y-2.2711
X5.0549Y-4.8924
X5.0849Y-2.8724
X5.1035Y-5.8911
X5.1235Y-2.2711
X5.1449Y-6.0924
X5.1635Y-2.2311
X5.1649Y-2.9224
X5.2135Y-5.7711
X5.3049Y-3.4624
X5.3735Y-6.1211
X5.3735Y-6.2311
X5.4305Y-3.1912
X5.4522Y-4.1968
X5.4549Y-1.8724
X5.5049Y-3.7424
X5.5222Y-4.1268
X5.5249Y-2.6324
X5.5449Y-3.5924
X5.5622Y-4.2968
X5.5922Y-3.8668
X5.6422Y-4.2268
X5.6535Y-6.1311
X5.6535Y-6.3111
X5.7049Y-1.9324
X5.7249Y-2.7124
X5.7249Y-2.7518
X5.7249Y-2.7911
X5.7249Y-2.6724
X5.7449Y-2.3346
X5.7649Y-1.9024
X5.7735Y-5.7411
X5.8249Y-1.9024
X5.8849Y-2.2024
X5.9249Y-2.2724
X5.9649Y-2.5124
X5.9699Y-4.8474
X6.0233Y-2.234
X6.0449Y-2.2824
X6.0649Y-3.4724
X6.1035Y-6.1111
X6.1272Y-2.3418
X6.1335Y-6.2511
X6.1849Y-2.6724
X6.1849Y-3.4724
X6.1849Y-2.7124
X6.1849Y-2.7524
X6.1849Y-2.7918
X6.2047Y-4.9626
X6.2649Y-3.5024
X6.2649Y-3.3924
X6.3555Y-3.7468
X6.4035Y-6.1311
X6.4035Y-6.3211
X6.4049Y-2.7124
X6.4049Y-2.7918
X6.4049Y-2.6724
X6.4049Y-2.7524
X6.4549Y-5.4224
X6.5635Y-5.7311
X6.6835Y-2.8111
X6.9035Y-6.1811
X7.1635Y-3.2411
X7.1735Y-6.2611
X7.1935Y-6.0511
X7.2535Y-3.3911
X7.3335Y-5.6611
X7.3349Y-5.4624
X7.3435Y-3.3811
X7.3535Y-2.7011
X7.4135Y-3.1111
X7.4635Y-2.2611
X7.5035Y-5.6311
X7.5135Y-5.4211
X7.5435Y-2.0011
X7.5735Y-3.9811
X7.6435Y-2.7511
X7.6435Y-3.1211
X7.7135Y-2.6211
X7.7535Y-3.7811
X7.7735Y-2.5611
X7.7735Y-2.7011
X7.7835Y-3.3411
X7.8735Y-5.2611
X7.8835Y-3.9411
X7.9435Y-2.4711
X8.0335Y-5.3311
X8.0535Y-4.1611
X8.0635Y-2.4011
X8.0835Y-2.2111
X8.0935Y-4.5911
X8.1035Y-2.6539
X8.1035Y-3.3811
X8.1335Y-2.3211
X8.2235Y-5.0911
X8.2635Y-4.4211
X8.2835Y-2.7111
X8.2835Y-3.1411
X8.3035Y-5.2411
X8.3235Y-3.9811
X8.3335Y-4.2711
X8.3435Y-2.0611
X8.3735Y-2.2211
X8.3935Y-4.1411
X8.5035Y-3.3311
X8.5435Y-1.9811
X8.5444Y-4.8489
X8.6035Y-3.3811
X8.6135Y-4.6511
X8.6235Y-3.8111
X8.6435Y-2.1311
X8.7035Y-1.7211
X8.7035Y-2.9011
X8.7135Y-3.9811
X8.8335Y-4.5911
X8.8435Y-1.8411
X8.8435Y-2.2211
X8.8735Y-2.6411
X8.8822Y-4.1411
X8.9035Y-4.7411
X9.0435Y-3.3911
X9.0535Y-3.5311
X9.1535Y-2.8211
X9.2035Y-1.9111
X9.2135Y-3.3153
X9.2235Y-2.8111
X9.2435Y-2.8611
X9.2635Y-2.0211
X9.3135Y-3.4711
X9.4235Y-2.7111
X9.4635Y-1.8211
X9.5435Y-2.0011
X9.5435Y-2.7211
X9.5535Y-1.3811
X9.7035Y-2.1011
X9.7435Y-2.5111
X9.8235Y-3.2611
X9.8335Y-3.4111
X9.8435Y-2.5711
X10.0235Y-3.2011
X10.1035Y-2.7611
X10.1382Y-3.2864
X10.2235Y-2.1011
X10.3435Y-2.8111
X10.4135Y-2.8311
X10.5035Y-2.0911
X10.6235Y-1.6911
X10.6435Y-2.6311
X10.7035Y-2.8111
X10.8135Y-2.2411
T2
X5.7Y-3.6937
X5.7Y-3.7638
X5.7Y-3.8338
X5.7Y-3.9039
X5.7Y-3.974
X5.7Y-4.0441
X5.7Y-4.1142
X5.7Y-4.1842
X6.1213Y-3.6586
X6.1213Y-3.7287
X6.1213Y-3.7988
X6.1213Y-3.8689
X6.1213Y-3.939
X6.1213Y-4.009
X6.1213Y-4.0791
X6.1213Y-4.1492
T3
X5.8393Y-2.0489
X5.918Y-2.0489
X5.9968Y-2.0489
X6.0755Y-2.0489
X6.1542Y-2.0489
X6.233Y-2.0489
X6.3117Y-2.0489
X6.3905Y-2.0489
T4
X7.2221Y-1.5957
X7.2673Y-1.6602
X7.3124Y-1.7247
T5
X5.7421Y-5.4151
X5.9271Y-5.1947
X5.9271Y-5.6002
X6.1476Y-5.4151
X6.4475Y-2.2591
X6.5077Y-2.339
X6.5679Y-2.4188
X6.628Y-2.4987
X6.6882Y-2.5786
T6
X4.4299Y-2.0247
X4.5128Y-2.0807
X4.5957Y-2.1366
X4.6786Y-2.1925
X4.7615Y-2.2484
X4.7654Y-1.5273
X4.8444Y-2.3043
X4.8483Y-1.5832
X4.8762Y-1.7207
X4.9273Y-2.3602
X4.9312Y-1.6392
X5.0102Y-2.4162
X5.0141Y-1.6951
X5.0931Y-2.4721
X5.0971Y-1.751
X5.1761Y-2.528
X5.18Y-1.8069
X5.2315Y-2.4458
X5.259Y-2.5839
X5.2629Y-1.8628
X5.2875Y-2.3629
X5.3149Y-2.501
X5.3423Y-2.6392
X5.3434Y-2.2799
X5.3458Y-1.9187
X5.3978Y-2.5569
X5.4287Y-1.9747
X5.4537Y-2.474
X5.5096Y-2.3911
X5.5116Y-2.0306
X5.5655Y-2.3082
X5.5945Y-2.0865
X5.6215Y-2.2253
X5.6774Y-2.1424
X6.7256Y-1.5962
X6.7707Y-1.6607
X6.8159Y-1.7252
T7
X5.7421Y-5.2695
X5.7421Y-5.5254
X5.8169Y-5.1947
X5.8169Y-5.6002
X6.0728Y-5.1947
X6.0728Y-5.6002
X6.1476Y-5.2695
X6.1476Y-5.5254
T8
X6.5945Y-2.9134
X6.6699Y-2.9767
X6.7453Y-3.04
X7.1747Y-1.528
X7.3599Y-1.7924
T9
X4.9045Y-4.4625
X5.5133Y-4.9733
T10
X2.0259Y-1.5663
X2.4722Y-3.6768
X4.1062Y-4.3936
X4.5222Y-2.5068
X5.2944Y-3.8718
X6.5644Y-3.8718
X7.2922Y-2.4968
X7.6087Y-4.3892
X9.3407Y-3.6868
X9.7996Y-1.5639
T11
G00X5.1375Y-3.0836
M15
G01X5.14Y-3.0806
M16
G05
G00X6.8315Y-4.5049
M15
G01X6.834Y-4.5019
M16
G05
T0
M30
