%TF.GenerationSoftware,KiCad,Pcbnew,(6.0.4)*%
%TF.CreationDate,2022-12-18T06:26:38+01:00*%
%TF.ProjectId,BatreeqV2,42617472-6565-4715-9632-2e6b69636164,rev?*%
%TF.SameCoordinates,Original*%
%TF.FileFunction,Soldermask,Top*%
%TF.FilePolarity,Negative*%
%FSLAX46Y46*%
G04 Gerber Fmt 4.6, Leading zero omitted, Abs format (unit mm)*
G04 Created by KiCad (PCBNEW (6.0.4)) date 2022-12-18 06:26:38*
%MOMM*%
%LPD*%
G01*
G04 APERTURE LIST*
G04 Aperture macros list*
%AMRoundRect*
0 Rectangle with rounded corners*
0 $1 Rounding radius*
0 $2 $3 $4 $5 $6 $7 $8 $9 X,Y pos of 4 corners*
0 Add a 4 corners polygon primitive as box body*
4,1,4,$2,$3,$4,$5,$6,$7,$8,$9,$2,$3,0*
0 Add four circle primitives for the rounded corners*
1,1,$1+$1,$2,$3*
1,1,$1+$1,$4,$5*
1,1,$1+$1,$6,$7*
1,1,$1+$1,$8,$9*
0 Add four rect primitives between the rounded corners*
20,1,$1+$1,$2,$3,$4,$5,0*
20,1,$1+$1,$4,$5,$6,$7,0*
20,1,$1+$1,$6,$7,$8,$9,0*
20,1,$1+$1,$8,$9,$2,$3,0*%
%AMHorizOval*
0 Thick line with rounded ends*
0 $1 width*
0 $2 $3 position (X,Y) of the first rounded end (center of the circle)*
0 $4 $5 position (X,Y) of the second rounded end (center of the circle)*
0 Add line between two ends*
20,1,$1,$2,$3,$4,$5,0*
0 Add two circle primitives to create the rounded ends*
1,1,$1,$2,$3*
1,1,$1,$4,$5*%
%AMRotRect*
0 Rectangle, with rotation*
0 The origin of the aperture is its center*
0 $1 length*
0 $2 width*
0 $3 Rotation angle, in degrees counterclockwise*
0 Add horizontal line*
21,1,$1,$2,0,0,$3*%
G04 Aperture macros list end*
%ADD10C,1.752600*%
%ADD11C,3.000000*%
%ADD12HorizOval,1.701800X0.482963X-0.129410X-0.482963X0.129410X0*%
%ADD13C,3.987800*%
%ADD14HorizOval,1.701800X0.445503X0.226995X-0.445503X-0.226995X0*%
%ADD15C,4.500000*%
%ADD16HorizOval,1.701800X0.482963X0.129410X-0.482963X-0.129410X0*%
%ADD17RoundRect,0.375000X0.829455X0.123000X0.399273X0.737364X-0.829455X-0.123000X-0.399273X-0.737364X0*%
%ADD18HorizOval,1.701800X0.445503X-0.226995X-0.445503X0.226995X0*%
%ADD19O,2.701800X1.701800*%
%ADD20HorizOval,1.701800X0.463592X0.187303X-0.463592X-0.187303X0*%
%ADD21C,3.200000*%
%ADD22C,4.200000*%
%ADD23C,2.400000*%
%ADD24C,2.100000*%
%ADD25RotRect,4.400000X4.400000X140.000000*%
%ADD26HorizOval,1.701800X0.463592X-0.187303X-0.463592X0.187303X0*%
%ADD27C,1.600000*%
%ADD28C,1.800000*%
%ADD29C,1.700000*%
%ADD30HorizOval,1.700000X0.000000X0.000000X0.000000X0.000000X0*%
%ADD31HorizOval,2.200000X0.532449X0.372825X-0.532449X-0.372825X0*%
%ADD32RotRect,1.500000X2.500000X125.000000*%
%ADD33HorizOval,1.500000X0.409576X0.286788X-0.409576X-0.286788X0*%
%ADD34R,1.400000X1.400000*%
%ADD35C,1.400000*%
%ADD36RoundRect,0.250000X-0.350000X-0.625000X0.350000X-0.625000X0.350000X0.625000X-0.350000X0.625000X0*%
%ADD37O,1.200000X1.750000*%
G04 APERTURE END LIST*
D10*
%TO.C,U1*%
X112519960Y-51428247D03*
X114625716Y-52848597D03*
X116731471Y-54268947D03*
X118837226Y-55689297D03*
X120942982Y-57109647D03*
X123048737Y-58529997D03*
X125154493Y-59950347D03*
X127260248Y-61370697D03*
X129366004Y-62791047D03*
X131471759Y-64211397D03*
X133577515Y-65631747D03*
X135694454Y-67035516D03*
X144205370Y-54417565D03*
X142099614Y-52997215D03*
X139993859Y-51576865D03*
X137888104Y-50156515D03*
X135782348Y-48736165D03*
X133676593Y-47315815D03*
X131570837Y-45895465D03*
X129465082Y-44475115D03*
X127359326Y-43054765D03*
X125253571Y-41634415D03*
X123147815Y-40214065D03*
X121042060Y-38793715D03*
X137103620Y-64946342D03*
X132880925Y-62122223D03*
X138523970Y-62840586D03*
X134301275Y-60016467D03*
X139944320Y-60734831D03*
X135721625Y-57910712D03*
X141364670Y-58629075D03*
X142785020Y-56523320D03*
X134997865Y-63525992D03*
X123855589Y-43707009D03*
%TD*%
D11*
%TO.C,SW7*%
X38532015Y-62655336D03*
D12*
X37638717Y-66298264D03*
D11*
X34274973Y-59233633D03*
D13*
X32735000Y-64980892D03*
D12*
X27825936Y-63664836D03*
D11*
X28875942Y-60064576D03*
X29709037Y-61543911D03*
X36500066Y-60733960D03*
%TD*%
%TO.C,SW26*%
X217940329Y-109855355D03*
D14*
X225167238Y-112854614D03*
D11*
X214484076Y-114085522D03*
X216093054Y-114627433D03*
D14*
X216112814Y-117463628D03*
D13*
X220641572Y-115156844D03*
D11*
X220597810Y-109481437D03*
X223393493Y-109549659D03*
%TD*%
D15*
%TO.C,H10*%
X166734908Y-98343640D03*
%TD*%
D11*
%TO.C,SW34*%
X263630792Y-41065710D03*
X266351199Y-41713697D03*
X256693414Y-44298069D03*
D13*
X262493615Y-46626194D03*
D16*
X267399044Y-45315213D03*
D11*
X260953641Y-40878936D03*
D16*
X257584213Y-47940989D03*
D11*
X258154563Y-45162663D03*
%TD*%
D15*
%TO.C,H8*%
X248908639Y-39721893D03*
%TD*%
D17*
%TO.C,J4*%
X170829226Y-40542424D03*
X171976379Y-42180728D03*
X173123532Y-43819032D03*
%TD*%
D15*
%TO.C,H9*%
X134476906Y-98343643D03*
%TD*%
D11*
%TO.C,SW21*%
X200820388Y-127485530D03*
X202667663Y-122713452D03*
D14*
X209894572Y-125712711D03*
X200840148Y-130321725D03*
D11*
X205325144Y-122339534D03*
X199211410Y-126943619D03*
X208120827Y-122407756D03*
D13*
X205368906Y-128014941D03*
%TD*%
%TO.C,SW25*%
X207260239Y-78469120D03*
D11*
X207216477Y-72793713D03*
X202711721Y-77939709D03*
D14*
X202731481Y-80775904D03*
D11*
X210012160Y-72861935D03*
X201102743Y-77397798D03*
X204558996Y-73167631D03*
D14*
X211785905Y-76166890D03*
%TD*%
D11*
%TO.C,SW4*%
X90948604Y-45580080D03*
X84137577Y-44960397D03*
X89084070Y-43649916D03*
X92536673Y-47881935D03*
D18*
X81854661Y-46643456D03*
D11*
X83630258Y-43340179D03*
D13*
X86382827Y-48951405D03*
D18*
X90905489Y-51259529D03*
%TD*%
D11*
%TO.C,SW8*%
X104432188Y-56314536D03*
D13*
X101730945Y-61616025D03*
D11*
X106296722Y-58244700D03*
D18*
X97202779Y-59308076D03*
D11*
X98978376Y-56004799D03*
X107884791Y-60546555D03*
X99485695Y-57625017D03*
D18*
X106253607Y-63924149D03*
%TD*%
D19*
%TO.C,SW22*%
X165408495Y-152876948D03*
D13*
X160330907Y-152873640D03*
D11*
X155330907Y-149123641D03*
X160330907Y-146923640D03*
X162868495Y-147796948D03*
X156518495Y-150336948D03*
X165328495Y-149126948D03*
D19*
X155248495Y-152872987D03*
%TD*%
D15*
%TO.C,H3*%
X193259713Y-111485617D03*
%TD*%
D19*
%TO.C,SW27*%
X184712498Y-151098949D03*
D11*
X182172498Y-146018949D03*
X184632498Y-147348949D03*
X174634910Y-147345642D03*
X179634910Y-145145641D03*
D13*
X179634910Y-151095641D03*
D11*
X175822498Y-148558949D03*
D19*
X174552498Y-151094988D03*
%TD*%
D11*
%TO.C,SW33*%
X247665582Y-56803964D03*
X238394741Y-60546060D03*
X244886482Y-56492341D03*
X239950366Y-61226140D03*
D20*
X249144531Y-60250935D03*
D11*
X242206525Y-56633221D03*
D13*
X244435434Y-62149965D03*
D20*
X239722859Y-64053265D03*
%TD*%
D15*
%TO.C,H6*%
X114864907Y-63673641D03*
%TD*%
D11*
%TO.C,SW16*%
X92243895Y-122479748D03*
X97697707Y-122789485D03*
X101150310Y-127021504D03*
X92751214Y-124099966D03*
X99562241Y-124719649D03*
D18*
X99519126Y-130399098D03*
X90468298Y-125783025D03*
D13*
X94996464Y-128090974D03*
%TD*%
D11*
%TO.C,SW28*%
X209223060Y-48425055D03*
X211070335Y-43652977D03*
X216523499Y-43347281D03*
D13*
X213771578Y-48954466D03*
D11*
X207614082Y-47883144D03*
D14*
X218297244Y-46652236D03*
D11*
X213727816Y-43279059D03*
D14*
X209242820Y-51261250D03*
%TD*%
D18*
%TO.C,SW5*%
X82279673Y-68188650D03*
D11*
X75004442Y-60269300D03*
X80458254Y-60579037D03*
X83910857Y-64811056D03*
X75511761Y-61889518D03*
D13*
X77757011Y-65880526D03*
D18*
X73228845Y-63572577D03*
D11*
X82322788Y-62509201D03*
%TD*%
D21*
%TO.C,SW36*%
X124573616Y-113347381D03*
D22*
X135341572Y-116836940D03*
D23*
X129155305Y-86958907D03*
D21*
X140036954Y-126323059D03*
D23*
X164239605Y-118007960D03*
D22*
X173331794Y-102264300D03*
X141711239Y-76655648D03*
D24*
X171329649Y-77215278D03*
X167499427Y-74001340D03*
X169414538Y-75608309D03*
D25*
X173551222Y-114386842D03*
X130524117Y-78285803D03*
%TD*%
D18*
%TO.C,SW15*%
X79951139Y-93166326D03*
D11*
X87180548Y-90172786D03*
X90633151Y-94404805D03*
D13*
X84479305Y-95474275D03*
D11*
X82234055Y-91483267D03*
X89045082Y-92102950D03*
X81726736Y-89863049D03*
D18*
X89001967Y-97782399D03*
%TD*%
D16*
%TO.C,SW31*%
X262510438Y-66301034D03*
X272325269Y-63675258D03*
D11*
X268557017Y-59425755D03*
X265879866Y-59238981D03*
X263080788Y-63522708D03*
D13*
X267419840Y-64986239D03*
D11*
X271277424Y-60073742D03*
X261619639Y-62658114D03*
%TD*%
D15*
%TO.C,H2*%
X104297587Y-111597682D03*
%TD*%
D11*
%TO.C,SW23*%
X228321973Y-77511224D03*
X233775137Y-77205528D03*
X224865720Y-81741391D03*
D14*
X226494458Y-85119497D03*
D11*
X226474698Y-82283302D03*
X230979454Y-77137306D03*
D13*
X231023216Y-82812713D03*
D14*
X235548882Y-80510483D03*
%TD*%
D11*
%TO.C,SW6*%
X52856366Y-76006200D03*
X46017248Y-75982495D03*
X50830703Y-74245885D03*
D13*
X48601794Y-79762629D03*
D26*
X53308412Y-81667794D03*
D11*
X54639012Y-78160887D03*
X45370649Y-74412658D03*
D26*
X43889708Y-77858119D03*
%TD*%
D11*
%TO.C,SW12*%
X117912909Y-148216950D03*
X121725321Y-144803642D03*
X116725321Y-147003643D03*
D13*
X121725321Y-150753642D03*
D11*
X126722909Y-147006950D03*
D19*
X116642909Y-150752989D03*
D11*
X124262909Y-145676950D03*
D19*
X126802909Y-150756950D03*
%TD*%
D11*
%TO.C,SW1*%
X68874063Y-42927901D03*
X67091417Y-40773214D03*
D13*
X62836845Y-44529643D03*
D26*
X67543463Y-46434808D03*
X58124759Y-42625133D03*
D11*
X65065754Y-39012899D03*
X59605700Y-39179672D03*
X60252299Y-40749509D03*
%TD*%
%TO.C,SW11*%
X82425037Y-109931381D03*
X76971225Y-109621644D03*
D13*
X79723794Y-115232870D03*
D11*
X77478544Y-111241862D03*
D18*
X75195628Y-112924921D03*
D11*
X85877640Y-114163400D03*
X84289571Y-111861545D03*
D18*
X84246456Y-117540994D03*
%TD*%
D27*
%TO.C,HAT1*%
X150549563Y-131944562D03*
D28*
X145849563Y-133844562D03*
X154249563Y-142244562D03*
D27*
X145849563Y-137544562D03*
X150549563Y-142244562D03*
D28*
X145849563Y-140344562D03*
X147749563Y-131944562D03*
X156149563Y-140344562D03*
X147749563Y-142244562D03*
D27*
X156149563Y-137544562D03*
D28*
X156149563Y-133844562D03*
X154249563Y-131944562D03*
%TD*%
D14*
%TO.C,SW19*%
X198434307Y-92284581D03*
D11*
X187751145Y-93515489D03*
X191207398Y-89285322D03*
X193864879Y-88911404D03*
D14*
X189379883Y-96893595D03*
D13*
X193908641Y-94586811D03*
D11*
X189360123Y-94057400D03*
X196660562Y-88979626D03*
%TD*%
D13*
%TO.C,SW3*%
X37645053Y-46610499D03*
D11*
X39185026Y-40863240D03*
X33785995Y-41694183D03*
D12*
X42548770Y-47927871D03*
D11*
X41410119Y-42363567D03*
X43442068Y-44284943D03*
D12*
X32735989Y-45294443D03*
D11*
X34619090Y-43173518D03*
%TD*%
%TO.C,SW10*%
X75285033Y-81740182D03*
D18*
X73653849Y-85117776D03*
D13*
X69131187Y-82809652D03*
D18*
X64603021Y-80501703D03*
D11*
X66378618Y-77198426D03*
X66885937Y-78818644D03*
X71832430Y-77508163D03*
X73696964Y-79438327D03*
%TD*%
D20*
%TO.C,SW32*%
X232605337Y-46436773D03*
D11*
X235089003Y-39016729D03*
X231277219Y-42929568D03*
X232832844Y-43609648D03*
D20*
X242027009Y-42634443D03*
D11*
X237768960Y-38875849D03*
X240548060Y-39187472D03*
D13*
X237317912Y-44533473D03*
%TD*%
D18*
%TO.C,SW9*%
X97627785Y-80853274D03*
D11*
X99258969Y-77475680D03*
X90352554Y-72933924D03*
D18*
X88576957Y-76237201D03*
D13*
X93105123Y-78545150D03*
D11*
X95806366Y-73243661D03*
X97670900Y-75173825D03*
X90859873Y-74554142D03*
%TD*%
%TO.C,SW13*%
X121236391Y-76664250D03*
X119648322Y-74362395D03*
D18*
X110554379Y-75425771D03*
X119605207Y-80041844D03*
D11*
X117783788Y-72432231D03*
X112329976Y-72122494D03*
X112837295Y-73742712D03*
D13*
X115082545Y-77733720D03*
%TD*%
D11*
%TO.C,SW18*%
X188034744Y-72050500D03*
D14*
X180754065Y-79964469D03*
X189808489Y-75355455D03*
D11*
X179125327Y-76586363D03*
X185239061Y-71982278D03*
D13*
X185282823Y-77657685D03*
D11*
X180734305Y-77128274D03*
X182581580Y-72356196D03*
%TD*%
D15*
%TO.C,H1*%
X62794908Y-93391642D03*
%TD*%
D11*
%TO.C,SW24*%
X192476930Y-60468673D03*
D14*
X203160092Y-59237765D03*
D11*
X194085908Y-61010584D03*
X201386347Y-55932810D03*
D14*
X194105668Y-63846779D03*
D11*
X195933183Y-56238506D03*
X198590664Y-55864588D03*
D13*
X198634426Y-61539995D03*
%TD*%
D11*
%TO.C,SW17*%
X143542907Y-147793641D03*
X136005319Y-149120334D03*
D13*
X141005319Y-152870333D03*
D19*
X146082907Y-152873641D03*
X135922907Y-152869680D03*
D11*
X137192907Y-150333641D03*
X141005319Y-146920333D03*
X146002907Y-149123641D03*
%TD*%
D15*
%TO.C,H7*%
X185222906Y-63419643D03*
%TD*%
D29*
%TO.C,U5*%
X163766534Y-57381373D03*
D30*
X165295145Y-59409907D03*
X166823755Y-61438441D03*
X168352365Y-63466975D03*
X169880975Y-65495510D03*
%TD*%
D31*
%TO.C,SW37*%
X182237236Y-38810517D03*
X186940563Y-45527563D03*
D32*
X185736052Y-43807344D03*
D33*
X184588899Y-42169040D03*
X183441746Y-40530736D03*
%TD*%
D14*
%TO.C,SW29*%
X226923066Y-63581361D03*
D11*
X217848882Y-65354180D03*
D13*
X222397400Y-65883591D03*
D11*
X216239904Y-64812269D03*
X222353638Y-60208184D03*
X219696157Y-60582102D03*
D14*
X217868642Y-68190375D03*
D11*
X225149321Y-60276406D03*
%TD*%
%TO.C,SW30*%
X252004007Y-74108837D03*
X249324050Y-74249717D03*
D13*
X251552959Y-79766461D03*
D20*
X256262056Y-77867431D03*
D11*
X247067891Y-78842636D03*
D20*
X246840384Y-81669761D03*
D11*
X254783107Y-74420460D03*
X245512266Y-78162556D03*
%TD*%
%TO.C,SW2*%
X59974182Y-58390116D03*
D13*
X55719610Y-62146545D03*
D11*
X57948519Y-56629801D03*
X52488465Y-56796574D03*
X53135064Y-58366411D03*
X61756828Y-60544803D03*
D26*
X51007524Y-60242035D03*
X60426228Y-64051710D03*
%TD*%
D15*
%TO.C,H5*%
X51458230Y-39784918D03*
%TD*%
D13*
%TO.C,SW20*%
X215886061Y-95398247D03*
D11*
X213184818Y-90096758D03*
D14*
X211357303Y-97705031D03*
D11*
X211337543Y-94868836D03*
X218637982Y-89791062D03*
X215842299Y-89722840D03*
X209728565Y-94326925D03*
D14*
X220411727Y-93096017D03*
%TD*%
D11*
%TO.C,SW14*%
X109157966Y-89361352D03*
X103704154Y-89051615D03*
D18*
X101928557Y-92354892D03*
D13*
X106456723Y-94662841D03*
D11*
X104211473Y-90671833D03*
X112610569Y-93593371D03*
D18*
X110979385Y-96970965D03*
D11*
X111022500Y-91291516D03*
%TD*%
D15*
%TO.C,H4*%
X237253561Y-93645639D03*
%TD*%
D34*
%TO.C,U4*%
X155480910Y-92929642D03*
D35*
X155480910Y-94709642D03*
X155480910Y-96489642D03*
X155480910Y-98269642D03*
X155480910Y-100049642D03*
X155480910Y-101829642D03*
X155480910Y-103609642D03*
X155480910Y-105389642D03*
X144780910Y-106279642D03*
X144780910Y-104499642D03*
X144780910Y-102719642D03*
X144780910Y-100939642D03*
X144780910Y-99159642D03*
X144780910Y-97379642D03*
X144780910Y-95599642D03*
X144780910Y-93819642D03*
%TD*%
D36*
%TO.C,J3*%
X148317564Y-52041565D03*
D37*
X150317564Y-52041565D03*
X152317564Y-52041565D03*
X154317564Y-52041565D03*
X156317564Y-52041565D03*
X158317564Y-52041565D03*
X160317564Y-52041565D03*
X162317564Y-52041565D03*
%TD*%
M02*
