%TF.GenerationSoftware,KiCad,Pcbnew,(6.0.4)*%
%TF.CreationDate,2022-05-17T22:37:58+02:00*%
%TF.ProjectId,battoota,62617474-6f6f-4746-912e-6b696361645f,v1.0.0*%
%TF.SameCoordinates,Original*%
%TF.FileFunction,Soldermask,Bot*%
%TF.FilePolarity,Negative*%
%FSLAX46Y46*%
G04 Gerber Fmt 4.6, Leading zero omitted, Abs format (unit mm)*
G04 Created by KiCad (PCBNEW (6.0.4)) date 2022-05-17 22:37:58*
%MOMM*%
%LPD*%
G01*
G04 APERTURE LIST*
G04 Aperture macros list*
%AMRoundRect*
0 Rectangle with rounded corners*
0 $1 Rounding radius*
0 $2 $3 $4 $5 $6 $7 $8 $9 X,Y pos of 4 corners*
0 Add a 4 corners polygon primitive as box body*
4,1,4,$2,$3,$4,$5,$6,$7,$8,$9,$2,$3,0*
0 Add four circle primitives for the rounded corners*
1,1,$1+$1,$2,$3*
1,1,$1+$1,$4,$5*
1,1,$1+$1,$6,$7*
1,1,$1+$1,$8,$9*
0 Add four rect primitives between the rounded corners*
20,1,$1+$1,$2,$3,$4,$5,0*
20,1,$1+$1,$4,$5,$6,$7,0*
20,1,$1+$1,$6,$7,$8,$9,0*
20,1,$1+$1,$8,$9,$2,$3,0*%
%AMFreePoly0*
4,1,16,0.685355,0.785355,0.700000,0.750000,0.691603,0.722265,0.210093,0.000000,0.691603,-0.722265,0.699029,-0.759806,0.677735,-0.791603,0.650000,-0.800000,-0.500000,-0.800000,-0.535355,-0.785355,-0.550000,-0.750000,-0.550000,0.750000,-0.535355,0.785355,-0.500000,0.800000,0.650000,0.800000,0.685355,0.785355,0.685355,0.785355,$1*%
%AMFreePoly1*
4,1,16,0.535355,0.785355,0.550000,0.750000,0.550000,-0.750000,0.535355,-0.785355,0.500000,-0.800000,-0.500000,-0.800000,-0.535355,-0.785355,-0.541603,-0.777735,-1.041603,-0.027735,-1.049029,0.009806,-1.041603,0.027735,-0.541603,0.777735,-0.509806,0.799029,-0.500000,0.800000,0.500000,0.800000,0.535355,0.785355,0.535355,0.785355,$1*%
G04 Aperture macros list end*
%ADD10RoundRect,0.425000X-0.375000X-0.750000X0.375000X-0.750000X0.375000X0.750000X-0.375000X0.750000X0*%
%ADD11C,2.100000*%
%ADD12C,3.100000*%
%ADD13C,1.801800*%
%ADD14C,3.529000*%
%ADD15RoundRect,0.050000X-1.230182X-1.366255X1.366255X-1.230182X1.230182X1.366255X-1.366255X1.230182X0*%
%ADD16C,2.132000*%
%ADD17RoundRect,0.050000X-1.300000X-1.300000X1.300000X-1.300000X1.300000X1.300000X-1.300000X1.300000X0*%
%ADD18RoundRect,0.050000X-1.666227X-0.776974X0.776974X-1.666227X1.666227X0.776974X-0.776974X1.666227X0*%
%ADD19RoundRect,0.050000X-0.450000X0.450000X-0.450000X-0.450000X0.450000X-0.450000X0.450000X0.450000X0*%
%ADD20C,1.100000*%
%ADD21RoundRect,0.050000X-0.625000X0.450000X-0.625000X-0.450000X0.625000X-0.450000X0.625000X0.450000X0*%
%ADD22RoundRect,0.050000X-1.131880X-1.448740X1.448740X-1.131880X1.131880X1.448740X-1.448740X1.131880X0*%
%ADD23RoundRect,0.050000X-1.408356X-1.181751X1.181751X-1.408356X1.408356X1.181751X-1.181751X1.408356X0*%
%ADD24C,1.852600*%
%ADD25FreePoly0,180.000000*%
%ADD26RoundRect,0.050000X-0.762000X0.250000X-0.762000X-0.250000X0.762000X-0.250000X0.762000X0.250000X0*%
%ADD27FreePoly1,180.000000*%
%ADD28C,4.500000*%
G04 APERTURE END LIST*
D10*
%TO.C,PAD1*%
X151545396Y58163682D03*
X149545396Y58163682D03*
X147545396Y58163682D03*
%TD*%
D11*
%TO.C,B1*%
X163203191Y69152519D03*
X163203191Y62652519D03*
%TD*%
D12*
%TO.C,S11*%
X81269895Y112395012D03*
X76161608Y114330317D03*
X76161608Y114330317D03*
D13*
X70980545Y108100623D03*
D12*
X71283599Y111871652D03*
D14*
X76473007Y108388471D03*
D13*
X81965469Y108676319D03*
D15*
X72891096Y114158916D03*
X84540407Y112566412D03*
%TD*%
D13*
%TO.C,S34*%
X141178726Y44889558D03*
D14*
X136010417Y46770669D03*
D13*
X130842108Y48651780D03*
D16*
X130012277Y44909938D03*
X139409204Y41489736D03*
X133992498Y41226483D03*
X133992498Y41226483D03*
%TD*%
D14*
%TO.C,S15*%
X96495817Y96246989D03*
D13*
X101995817Y96246989D03*
D12*
X101495817Y99996989D03*
X96495817Y102196989D03*
X96495817Y102196989D03*
X91495817Y99996989D03*
D13*
X90995817Y96246989D03*
D17*
X93220817Y102196989D03*
X104770817Y99996989D03*
%TD*%
D12*
%TO.C,S21*%
X115411087Y95636017D03*
D13*
X109911087Y89686017D03*
D12*
X115411087Y95636017D03*
X120411087Y93436017D03*
D13*
X120911087Y89686017D03*
D12*
X110411087Y93436017D03*
D14*
X115411087Y89686017D03*
D17*
X112136087Y95636017D03*
X123686087Y93436017D03*
%TD*%
D13*
%TO.C,S8*%
X72759969Y74147219D03*
X83744893Y74722915D03*
D14*
X78252431Y74435067D03*
D16*
X73458160Y70378595D03*
X83444455Y70901955D03*
X78561213Y68543153D03*
X78561213Y68543153D03*
%TD*%
D14*
%TO.C,S14*%
X96495817Y79246989D03*
D13*
X101995817Y79246989D03*
X90995817Y79246989D03*
D16*
X91495817Y75446989D03*
X101495817Y75446989D03*
X96495817Y73346989D03*
X96495817Y73346989D03*
%TD*%
D14*
%TO.C,S20*%
X115411087Y72686017D03*
D13*
X109911087Y72686017D03*
X120911087Y72686017D03*
D16*
X120411087Y68886017D03*
X110411087Y68886017D03*
X115411087Y66786017D03*
X115411087Y66786017D03*
%TD*%
D13*
%TO.C,S28*%
X128718280Y77278852D03*
X139718280Y77278852D03*
D14*
X134218280Y77278852D03*
D16*
X129218280Y73478852D03*
X139218280Y73478852D03*
X134218280Y71378852D03*
X134218280Y71378852D03*
%TD*%
D12*
%TO.C,S29*%
X134218280Y100228852D03*
X134218280Y100228852D03*
D13*
X139718280Y94278852D03*
D14*
X134218280Y94278852D03*
D12*
X139218280Y98028852D03*
X129218280Y98028852D03*
D13*
X128718280Y94278852D03*
D17*
X130943280Y100228852D03*
X142493280Y98028852D03*
%TD*%
D14*
%TO.C,S33*%
X136010417Y46770669D03*
D12*
X138045437Y52361840D03*
X132594529Y52004617D03*
D13*
X130842108Y48651780D03*
D12*
X138045437Y52361840D03*
X141991456Y48584416D03*
D13*
X141178726Y44889558D03*
D18*
X134967944Y53481956D03*
X145068949Y47464300D03*
%TD*%
D12*
%TO.C,S7*%
X73063023Y77918248D03*
X83049319Y78441608D03*
X77941032Y80376913D03*
D13*
X72759969Y74147219D03*
D12*
X77941032Y80376913D03*
D13*
X83744893Y74722915D03*
D14*
X78252431Y74435067D03*
D15*
X74670520Y80205512D03*
X86319831Y78613008D03*
%TD*%
D19*
%TO.C,T2*%
X163600140Y52144619D03*
X163600140Y59544619D03*
X161400140Y52144619D03*
X161400140Y59544619D03*
D20*
X162500140Y57344619D03*
X162500140Y54344619D03*
D21*
X160425140Y58094619D03*
X160425140Y55094619D03*
X160425140Y53594619D03*
%TD*%
D14*
%TO.C,S5*%
X57124882Y91914188D03*
D13*
X62583886Y92584469D03*
D12*
X56399759Y97819838D03*
X56399759Y97819838D03*
D13*
X51665878Y91243907D03*
D12*
X51705141Y95026889D03*
X61630603Y96245583D03*
D22*
X53149171Y97420716D03*
X64881191Y96644705D03*
%TD*%
D12*
%TO.C,S27*%
X129218280Y81028852D03*
D13*
X139718280Y77278852D03*
D14*
X134218280Y77278852D03*
D12*
X139218280Y81028852D03*
X134218280Y83228852D03*
X134218280Y83228852D03*
D13*
X128718280Y77278852D03*
D17*
X130943280Y83228852D03*
X142493280Y81028852D03*
%TD*%
D12*
%TO.C,S9*%
X72173311Y94894950D03*
D14*
X77362719Y91411769D03*
D12*
X77051320Y97353615D03*
X82159607Y95418310D03*
D13*
X71870257Y91123921D03*
D12*
X77051320Y97353615D03*
D13*
X82855181Y91699617D03*
D15*
X73780808Y97182214D03*
X85430119Y95589710D03*
%TD*%
D13*
%TO.C,S16*%
X101995817Y96246989D03*
D14*
X96495817Y96246989D03*
D13*
X90995817Y96246989D03*
D16*
X101495817Y92446989D03*
X91495817Y92446989D03*
X96495817Y90346989D03*
X96495817Y90346989D03*
%TD*%
D13*
%TO.C,S30*%
X139718280Y94278852D03*
X128718280Y94278852D03*
D14*
X134218280Y94278852D03*
D16*
X139218280Y90478852D03*
X129218280Y90478852D03*
X134218280Y88378852D03*
X134218280Y88378852D03*
%TD*%
D13*
%TO.C,S13*%
X90995817Y79246989D03*
X101995817Y79246989D03*
D14*
X96495817Y79246989D03*
D12*
X96495817Y85196989D03*
X101495817Y82996989D03*
X96495817Y85196989D03*
X91495817Y82996989D03*
D17*
X93220817Y85196989D03*
X104770817Y82996989D03*
%TD*%
D13*
%TO.C,S24*%
X109911087Y106686017D03*
X120911087Y106686017D03*
D14*
X115411087Y106686017D03*
D16*
X110411087Y102886017D03*
X120411087Y102886017D03*
X115411087Y100786017D03*
X115411087Y100786017D03*
%TD*%
D13*
%TO.C,S17*%
X90995818Y113246989D03*
D14*
X96495818Y113246989D03*
D13*
X101995818Y113246989D03*
D12*
X91495818Y116996989D03*
X101495818Y116996989D03*
X96495818Y119196989D03*
X96495818Y119196989D03*
D17*
X93220818Y119196989D03*
X104770818Y116996989D03*
%TD*%
D13*
%TO.C,S4*%
X53737657Y74370621D03*
X64655665Y75711183D03*
D14*
X59196661Y75040902D03*
D16*
X54697034Y70659880D03*
X64622495Y71878573D03*
X59915690Y69184880D03*
X59915690Y69184880D03*
%TD*%
D13*
%TO.C,S10*%
X82855181Y91699617D03*
X71870257Y91123921D03*
D14*
X77362719Y91411769D03*
D16*
X72568448Y87355297D03*
X82554743Y87878657D03*
X77671501Y85519855D03*
X77671501Y85519855D03*
%TD*%
D13*
%TO.C,S22*%
X109911087Y89686017D03*
X120911087Y89686017D03*
D14*
X115411087Y89686017D03*
D16*
X110411087Y85886017D03*
X120411087Y85886017D03*
X115411087Y83786017D03*
X115411087Y83786017D03*
%TD*%
D14*
%TO.C,S31*%
X116421084Y51113520D03*
D13*
X110942013Y51592877D03*
D12*
X116939661Y57040878D03*
X121728892Y54413471D03*
X116939661Y57040878D03*
X111766945Y55285029D03*
D13*
X121900155Y50634163D03*
D23*
X113677123Y57326314D03*
X124991429Y54128036D03*
%TD*%
D24*
%TO.C,MCU1*%
X161977213Y98602542D03*
D25*
X159643690Y98602542D03*
D24*
X161977213Y96062542D03*
D26*
X160593690Y101142542D03*
D24*
X146737213Y96062542D03*
D26*
X160593690Y98602542D03*
X160593690Y96062542D03*
D25*
X159643690Y96062542D03*
X159643690Y101142542D03*
D24*
X146737213Y101226288D03*
X161977213Y101142542D03*
X146737213Y98602542D03*
D27*
X158193690Y101142542D03*
X158193690Y98602542D03*
X158193690Y96062542D03*
D24*
X146737213Y93522542D03*
X146737213Y90982542D03*
X146737213Y88442542D03*
X146737213Y85902542D03*
X146737213Y83362542D03*
X146737213Y80822542D03*
X146737213Y78282542D03*
X146737213Y75742542D03*
X146737213Y73202542D03*
X161977213Y93522542D03*
X161977213Y90982542D03*
X161977213Y88442542D03*
X161977213Y85902542D03*
X161977213Y83362542D03*
X161977213Y80822542D03*
X161977213Y78282542D03*
X161977213Y75742542D03*
X161977213Y73202542D03*
%TD*%
D13*
%TO.C,S3*%
X53737657Y74370621D03*
D12*
X53776920Y78153603D03*
D14*
X59196661Y75040902D03*
D12*
X63702382Y79372297D03*
X58471538Y80946552D03*
X58471538Y80946552D03*
D13*
X64655665Y75711183D03*
D22*
X55220950Y80547430D03*
X66952970Y79771419D03*
%TD*%
D13*
%TO.C,S32*%
X121900155Y50634163D03*
D14*
X116421084Y51113520D03*
D13*
X110942013Y51592877D03*
D16*
X121070866Y46892201D03*
X111108919Y47763759D03*
X115906865Y45235971D03*
X115906865Y45235971D03*
%TD*%
D28*
%TO.C,REF\u002A\u002A*%
X104279037Y68433484D03*
X125215946Y85387859D03*
X87324662Y89370393D03*
%TD*%
D14*
%TO.C,S12*%
X76473007Y108388471D03*
D13*
X70980545Y108100623D03*
X81965469Y108676319D03*
D16*
X81665031Y104855359D03*
X71678736Y104331999D03*
X76781789Y102496557D03*
X76781789Y102496557D03*
%TD*%
D14*
%TO.C,S23*%
X115411087Y106686017D03*
D13*
X120911087Y106686017D03*
D12*
X115411087Y112636017D03*
X115411087Y112636017D03*
X110411087Y110436017D03*
X120411087Y110436017D03*
D13*
X109911087Y106686017D03*
D17*
X112136087Y112636017D03*
X123686087Y110436017D03*
%TD*%
D13*
%TO.C,S6*%
X51665878Y91243907D03*
X62583886Y92584469D03*
D14*
X57124882Y91914188D03*
D16*
X52625255Y87533166D03*
X62550716Y88751859D03*
X57843911Y86058166D03*
X57843911Y86058166D03*
%TD*%
D14*
%TO.C,S19*%
X115411087Y72686017D03*
D12*
X115411087Y78636017D03*
X110411087Y76436017D03*
D13*
X120911087Y72686017D03*
X109911087Y72686017D03*
D12*
X120411087Y76436017D03*
X115411087Y78636017D03*
D17*
X112136087Y78636017D03*
X123686087Y76436017D03*
%TD*%
D13*
%TO.C,S18*%
X101995818Y113246989D03*
D14*
X96495818Y113246989D03*
D13*
X90995818Y113246989D03*
D16*
X91495818Y109446989D03*
X101495818Y109446989D03*
X96495818Y107346989D03*
X96495818Y107346989D03*
%TD*%
M02*
