M48
; DRILL file {KiCad (6.0.4)} date Tue Jun 21 15:17:06 2022
; FORMAT={-:-/ absolute / metric / decimal}
; #@! TF.CreationDate,2022-06-21T15:17:06+02:00
; #@! TF.GenerationSoftware,Kicad,Pcbnew,(6.0.4)
; #@! TF.FileFunction,NonPlated,1,2,NPTH
FMAT,2
METRIC
; #@! TA.AperFunction,NonPlated,NPTH,ComponentDrill
T1C0.900
; #@! TA.AperFunction,NonPlated,NPTH,ComponentDrill
T2C1.702
; #@! TA.AperFunction,NonPlated,NPTH,ComponentDrill
T3C3.000
; #@! TA.AperFunction,NonPlated,NPTH,ComponentDrill
T4C3.429
%
G90
G05
T1
X159.004Y59.666
X159.004Y56.666
T2
X52.941Y93.964
X54.423Y77.029
X63.899Y94.923
X65.381Y77.987
X71.773Y108.266
X72.367Y91.277
X72.96Y74.287
X82.767Y108.65
X83.36Y91.661
X83.953Y74.671
X90.996Y96.247
X90.996Y79.247
X90.996Y113.247
X101.996Y96.247
X101.996Y79.247
X101.996Y113.247
X109.111Y106.686
X109.111Y89.686
X109.111Y72.686
X117.82Y49.855
X120.111Y106.686
X120.111Y89.686
X120.111Y72.686
X127.209Y71.293
X127.218Y105.279
X127.218Y88.279
X128.82Y49.855
X137.901Y48.659
X138.209Y71.293
X138.218Y105.279
X138.218Y88.279
X148.526Y45.812
T3
X53.112Y97.743
X54.594Y80.808
X57.901Y100.371
X59.383Y83.435
X63.074Y98.615
X64.556Y81.68
X72.142Y112.032
X72.735Y95.042
X73.329Y78.052
X77.062Y114.405
X77.656Y97.415
X78.249Y80.426
X82.136Y112.381
X82.729Y95.391
X83.323Y78.401
X91.496Y99.997
X91.496Y82.997
X91.496Y116.997
X96.496Y102.197
X96.496Y85.197
X96.496Y119.197
X101.496Y99.997
X101.496Y82.997
X101.496Y116.997
X109.611Y110.436
X109.611Y93.436
X109.611Y76.436
X114.611Y112.636
X114.611Y95.636
X114.611Y78.636
X118.32Y53.605
X119.611Y110.436
X119.611Y93.436
X119.611Y76.436
X123.32Y55.805
X127.709Y75.043
X127.718Y109.029
X127.718Y92.029
X128.32Y53.605
X132.709Y77.243
X132.718Y111.229
X132.718Y94.229
X137.709Y75.043
X137.718Y109.029
X137.718Y92.029
X139.354Y52.152
X144.753Y52.983
X149.014Y49.564
T4
X58.42Y94.443
X59.902Y77.508
X77.27Y108.458
X77.863Y91.469
X78.457Y74.479
X96.496Y96.247
X96.496Y79.247
X96.496Y113.247
X114.611Y106.686
X114.611Y89.686
X114.611Y72.686
X123.32Y49.855
X132.709Y71.293
X132.718Y105.279
X132.718Y88.279
X143.213Y47.236
T0
M30
