%TF.GenerationSoftware,KiCad,Pcbnew,(6.0.4)*%
%TF.CreationDate,2022-06-21T15:17:04+02:00*%
%TF.ProjectId,konafa,6b6f6e61-6661-42e6-9b69-6361645f7063,v1.0.0*%
%TF.SameCoordinates,Original*%
%TF.FileFunction,Soldermask,Bot*%
%TF.FilePolarity,Negative*%
%FSLAX46Y46*%
G04 Gerber Fmt 4.6, Leading zero omitted, Abs format (unit mm)*
G04 Created by KiCad (PCBNEW (6.0.4)) date 2022-06-21 15:17:04*
%MOMM*%
%LPD*%
G01*
G04 APERTURE LIST*
G04 Aperture macros list*
%AMRoundRect*
0 Rectangle with rounded corners*
0 $1 Rounding radius*
0 $2 $3 $4 $5 $6 $7 $8 $9 X,Y pos of 4 corners*
0 Add a 4 corners polygon primitive as box body*
4,1,4,$2,$3,$4,$5,$6,$7,$8,$9,$2,$3,0*
0 Add four circle primitives for the rounded corners*
1,1,$1+$1,$2,$3*
1,1,$1+$1,$4,$5*
1,1,$1+$1,$6,$7*
1,1,$1+$1,$8,$9*
0 Add four rect primitives between the rounded corners*
20,1,$1+$1,$2,$3,$4,$5,0*
20,1,$1+$1,$4,$5,$6,$7,0*
20,1,$1+$1,$6,$7,$8,$9,0*
20,1,$1+$1,$8,$9,$2,$3,0*%
%AMFreePoly0*
4,1,16,0.685355,0.785355,0.700000,0.750000,0.691603,0.722265,0.210093,0.000000,0.691603,-0.722265,0.699029,-0.759806,0.677735,-0.791603,0.650000,-0.800000,-0.500000,-0.800000,-0.535355,-0.785355,-0.550000,-0.750000,-0.550000,0.750000,-0.535355,0.785355,-0.500000,0.800000,0.650000,0.800000,0.685355,0.785355,0.685355,0.785355,$1*%
%AMFreePoly1*
4,1,16,0.535355,0.785355,0.550000,0.750000,0.550000,-0.750000,0.535355,-0.785355,0.500000,-0.800000,-0.500000,-0.800000,-0.535355,-0.785355,-0.541603,-0.777735,-1.041603,-0.027735,-1.049029,0.009806,-1.041603,0.027735,-0.541603,0.777735,-0.509806,0.799029,-0.500000,0.800000,0.500000,0.800000,0.535355,0.785355,0.535355,0.785355,$1*%
G04 Aperture macros list end*
%ADD10RoundRect,0.425000X-0.375000X-0.750000X0.375000X-0.750000X0.375000X0.750000X-0.375000X0.750000X0*%
%ADD11C,2.100000*%
%ADD12C,1.801800*%
%ADD13C,3.100000*%
%ADD14C,3.529000*%
%ADD15C,2.132000*%
%ADD16RoundRect,0.050000X-1.253839X-1.344577X1.344577X-1.253839X1.253839X1.344577X-1.344577X1.253839X0*%
%ADD17RoundRect,0.050000X-1.300000X-1.300000X1.300000X-1.300000X1.300000X1.300000X-1.300000X1.300000X0*%
%ADD18RoundRect,0.050000X-1.592168X-0.919239X0.919239X-1.592168X1.592168X0.919239X-0.919239X1.592168X0*%
%ADD19RoundRect,0.050000X-0.450000X0.450000X-0.450000X-0.450000X0.450000X-0.450000X0.450000X0.450000X0*%
%ADD20C,1.100000*%
%ADD21RoundRect,0.050000X-0.625000X0.450000X-0.625000X-0.450000X0.625000X-0.450000X0.625000X0.450000X0*%
%ADD22RoundRect,0.050000X-1.181751X-1.408356X1.408356X-1.181751X1.181751X1.408356X-1.408356X1.181751X0*%
%ADD23C,1.852600*%
%ADD24FreePoly0,180.000000*%
%ADD25RoundRect,0.050000X-0.762000X0.250000X-0.762000X-0.250000X0.762000X-0.250000X0.762000X0.250000X0*%
%ADD26FreePoly1,180.000000*%
%ADD27C,4.500000*%
G04 APERTURE END LIST*
D10*
%TO.C,PAD1*%
X148871860Y60487381D03*
X146871860Y60487381D03*
X144871860Y60487381D03*
%TD*%
D11*
%TO.C,B1*%
X158496000Y79248000D03*
X158496000Y72748000D03*
%TD*%
D12*
%TO.C,S11*%
X71773275Y108266500D03*
D13*
X77062273Y114404822D03*
D14*
X77269925Y108458447D03*
D13*
X82136006Y112380659D03*
X72142098Y112031664D03*
D12*
X82766575Y108650394D03*
D15*
X72405589Y104486264D03*
X82399497Y104835259D03*
D16*
X73789267Y114290527D03*
D15*
X77475832Y102562041D03*
D16*
X85409011Y112494955D03*
%TD*%
D14*
%TO.C,S15*%
X96495817Y96246989D03*
D13*
X96495817Y102196989D03*
D12*
X90995817Y96246989D03*
D13*
X101495817Y99996988D03*
X91495817Y99996988D03*
D12*
X101995817Y96246989D03*
D15*
X91495817Y92446989D03*
X101495817Y92446989D03*
D17*
X93220816Y102196989D03*
X104770817Y99996988D03*
D15*
X96495817Y90346989D03*
%TD*%
D13*
%TO.C,S21*%
X114611087Y95636017D03*
D12*
X109111087Y89686017D03*
X120111087Y89686017D03*
D13*
X109611087Y93436016D03*
X119611087Y93436016D03*
D14*
X114611087Y89686017D03*
D15*
X109611087Y85886017D03*
X119611087Y85886017D03*
D17*
X111336086Y95636017D03*
D15*
X114611087Y83786017D03*
D17*
X122886087Y93436016D03*
%TD*%
D12*
%TO.C,S29*%
X138218280Y105278852D03*
D13*
X137718280Y109028851D03*
X127718280Y109028851D03*
D12*
X127218280Y105278852D03*
D14*
X132718280Y105278852D03*
D13*
X132718280Y111228852D03*
D17*
X129443279Y111228852D03*
D15*
X127718280Y101478852D03*
X137718280Y101478852D03*
X132718280Y99378852D03*
D17*
X140993280Y109028851D03*
%TD*%
D13*
%TO.C,S33*%
X149013668Y49563678D03*
D12*
X148526060Y45812047D03*
D13*
X144753441Y52982811D03*
D12*
X137900876Y48659057D03*
D13*
X139354410Y52151868D03*
D14*
X143213468Y47235552D03*
D18*
X141590033Y53830443D03*
D15*
X147059585Y42270939D03*
X137400326Y44859129D03*
D18*
X152177075Y48716045D03*
D15*
X141686436Y41536590D03*
%TD*%
D14*
%TO.C,S7*%
X78456509Y74479159D03*
D13*
X78248857Y80425534D03*
X73328682Y78052376D03*
X83322590Y78401371D03*
D12*
X72959859Y74287212D03*
X83953159Y74671106D03*
D16*
X74975851Y80311239D03*
D15*
X83586081Y70855971D03*
X73592173Y70506976D03*
D16*
X86595595Y78515667D03*
D15*
X78662416Y68582753D03*
%TD*%
D19*
%TO.C,T2*%
X160104000Y54466000D03*
X160104000Y61866000D03*
X157904000Y54466000D03*
X157904000Y61866000D03*
D20*
X159004000Y59666000D03*
X159004000Y56666000D03*
D21*
X156929000Y60416000D03*
X156929000Y57416000D03*
X156929000Y55916000D03*
%TD*%
D12*
%TO.C,S5*%
X52940861Y93963998D03*
D14*
X58419932Y94443355D03*
D12*
X63899003Y94922712D03*
D13*
X57901355Y100370713D03*
X63074072Y98614863D03*
X53112125Y97743305D03*
D15*
X53770150Y90222036D03*
D22*
X54638817Y100085278D03*
D15*
X63732097Y91093594D03*
X58934151Y88565806D03*
D22*
X66336609Y98900298D03*
%TD*%
D14*
%TO.C,S27*%
X132718280Y88278852D03*
D12*
X127218280Y88278852D03*
D13*
X127718280Y92028851D03*
D12*
X138218280Y88278852D03*
D13*
X137718280Y92028851D03*
X132718280Y94228852D03*
D15*
X137718280Y84478852D03*
D17*
X129443279Y94228852D03*
D15*
X127718280Y84478852D03*
X132718280Y82378852D03*
D17*
X140993280Y92028851D03*
%TD*%
D12*
%TO.C,S9*%
X83359867Y91660750D03*
D13*
X82729298Y95391015D03*
D14*
X77863217Y91468803D03*
D13*
X72735390Y95042020D03*
X77655565Y97415178D03*
D12*
X72366567Y91276856D03*
D15*
X72998881Y87496620D03*
D16*
X74382559Y97300883D03*
D15*
X82992789Y87845615D03*
D16*
X86002303Y95505311D03*
D15*
X78069124Y85572397D03*
%TD*%
D12*
%TO.C,S13*%
X90995817Y79246989D03*
D14*
X96495817Y79246989D03*
D13*
X96495817Y85196989D03*
X91495817Y82996988D03*
D12*
X101995817Y79246989D03*
D13*
X101495817Y82996988D03*
D15*
X91495817Y75446989D03*
D17*
X93220816Y85196989D03*
D15*
X101495817Y75446989D03*
X96495817Y73346989D03*
D17*
X104770817Y82996988D03*
%TD*%
D13*
%TO.C,S27*%
X132708967Y77242685D03*
D14*
X132708967Y71292685D03*
D13*
X127708967Y75042684D03*
D12*
X127208967Y71292685D03*
D13*
X137708967Y75042684D03*
D12*
X138208967Y71292685D03*
D17*
X129433966Y77242685D03*
D15*
X137708967Y67492685D03*
X127708967Y67492685D03*
D17*
X140983967Y75042684D03*
D15*
X132708967Y65392685D03*
%TD*%
D12*
%TO.C,S17*%
X101995818Y113246989D03*
D13*
X91495818Y116996988D03*
X96495818Y119196989D03*
D14*
X96495818Y113246989D03*
D12*
X90995818Y113246989D03*
D13*
X101495818Y116996988D03*
D17*
X93220817Y119196989D03*
D15*
X91495818Y109446989D03*
X101495818Y109446989D03*
D17*
X104770818Y116996988D03*
D15*
X96495818Y107346989D03*
%TD*%
D12*
%TO.C,S31*%
X128820174Y49854554D03*
D13*
X118320174Y53604553D03*
D12*
X117820174Y49854554D03*
D13*
X128320174Y53604553D03*
X123320174Y55804554D03*
D14*
X123320174Y49854554D03*
D17*
X120045173Y55804554D03*
D15*
X128320174Y46054554D03*
X118320174Y46054554D03*
X123320174Y43954554D03*
D17*
X131595174Y53604553D03*
%TD*%
D23*
%TO.C,MCU1*%
X159385000Y114343254D03*
D24*
X157051477Y114343254D03*
D23*
X159385000Y111803254D03*
D25*
X158001477Y116883254D03*
D23*
X144145000Y111803254D03*
D25*
X158001477Y114343254D03*
X158001477Y111803254D03*
D24*
X157051477Y111803254D03*
X157051477Y116883254D03*
D23*
X144145000Y116967000D03*
X159385000Y116883254D03*
X144145000Y114343254D03*
D26*
X155601477Y116883254D03*
X155601477Y114343254D03*
X155601477Y111803254D03*
D23*
X144145000Y109263254D03*
X144145000Y106723254D03*
X144145000Y104183254D03*
X144145000Y101643254D03*
X144145000Y99103254D03*
X144145000Y96563254D03*
X144145000Y94023254D03*
X144145000Y91483254D03*
X144145000Y88943254D03*
X159385000Y109263254D03*
X159385000Y106723254D03*
X159385000Y104183254D03*
X159385000Y101643254D03*
X159385000Y99103254D03*
X159385000Y96563254D03*
X159385000Y94023254D03*
X159385000Y91483254D03*
X159385000Y88943254D03*
%TD*%
D12*
%TO.C,S3*%
X65380650Y77987400D03*
D13*
X54593772Y80807993D03*
X59383002Y83435401D03*
X64555719Y81679551D03*
D12*
X54422508Y77028686D03*
D14*
X59901579Y77508043D03*
D15*
X55251797Y73286724D03*
X65213744Y74158282D03*
D22*
X56120464Y83149966D03*
X67818256Y81964986D03*
D15*
X60415798Y71630494D03*
%TD*%
D27*
%TO.C,REF\u002A\u002A*%
X86538433Y87040631D03*
X105918000Y68326000D03*
X105253064Y106420198D03*
%TD*%
D13*
%TO.C,S23*%
X119611087Y110436016D03*
X109611087Y110436016D03*
X114611087Y112636017D03*
D12*
X109111087Y106686017D03*
D14*
X114611087Y106686017D03*
D12*
X120111087Y106686017D03*
D15*
X109611087Y102886017D03*
X119611087Y102886017D03*
D17*
X111336086Y112636017D03*
D15*
X114611087Y100786017D03*
D17*
X122886087Y110436016D03*
%TD*%
D13*
%TO.C,S19*%
X109611087Y76436016D03*
D12*
X120111087Y72686017D03*
X109111087Y72686017D03*
D14*
X114611087Y72686017D03*
D13*
X114611087Y78636017D03*
X119611087Y76436016D03*
D15*
X109611087Y68886017D03*
X119611087Y68886017D03*
D17*
X111336086Y78636017D03*
X122886087Y76436016D03*
D15*
X114611087Y66786017D03*
%TD*%
M02*
