%TF.GenerationSoftware,KiCad,Pcbnew,(6.0.4-0)*%
%TF.CreationDate,2022-06-13T07:49:06+02:00*%
%TF.ProjectId,konafa,6b6f6e61-6661-42e6-9b69-6361645f7063,v1.0.0*%
%TF.SameCoordinates,Original*%
%TF.FileFunction,Legend,Top*%
%TF.FilePolarity,Positive*%
%FSLAX46Y46*%
G04 Gerber Fmt 4.6, Leading zero omitted, Abs format (unit mm)*
G04 Created by KiCad (PCBNEW (6.0.4-0)) date 2022-06-13 07:49:06*
%MOMM*%
%LPD*%
G01*
G04 APERTURE LIST*
G04 Aperture macros list*
%AMRoundRect*
0 Rectangle with rounded corners*
0 $1 Rounding radius*
0 $2 $3 $4 $5 $6 $7 $8 $9 X,Y pos of 4 corners*
0 Add a 4 corners polygon primitive as box body*
4,1,4,$2,$3,$4,$5,$6,$7,$8,$9,$2,$3,0*
0 Add four circle primitives for the rounded corners*
1,1,$1+$1,$2,$3*
1,1,$1+$1,$4,$5*
1,1,$1+$1,$6,$7*
1,1,$1+$1,$8,$9*
0 Add four rect primitives between the rounded corners*
20,1,$1+$1,$2,$3,$4,$5,0*
20,1,$1+$1,$4,$5,$6,$7,0*
20,1,$1+$1,$6,$7,$8,$9,0*
20,1,$1+$1,$8,$9,$2,$3,0*%
%AMFreePoly0*
4,1,16,0.535355,0.785355,0.541603,0.777735,1.041603,0.027735,1.049029,-0.009806,1.041603,-0.027735,0.541603,-0.777735,0.509806,-0.799029,0.500000,-0.800000,-0.500000,-0.800000,-0.535355,-0.785355,-0.550000,-0.750000,-0.550000,0.750000,-0.535355,0.785355,-0.500000,0.800000,0.500000,0.800000,0.535355,0.785355,0.535355,0.785355,$1*%
%AMFreePoly1*
4,1,16,0.535355,0.785355,0.550000,0.750000,0.550000,-0.750000,0.535355,-0.785355,0.500000,-0.800000,-0.650000,-0.800000,-0.685355,-0.785355,-0.700000,-0.750000,-0.691603,-0.722265,-0.210093,0.000000,-0.691603,0.722265,-0.699029,0.759806,-0.677735,0.791603,-0.650000,0.800000,0.500000,0.800000,0.535355,0.785355,0.535355,0.785355,$1*%
G04 Aperture macros list end*
%ADD10C,0.150000*%
%ADD11C,0.100000*%
%ADD12C,0.120000*%
%ADD13C,0.200000*%
%ADD14C,0.010000*%
%ADD15C,2.000000*%
%ADD16RoundRect,0.375000X-0.750000X0.375000X-0.750000X-0.375000X0.750000X-0.375000X0.750000X0.375000X0*%
%ADD17C,1.752600*%
%ADD18C,3.529000*%
%ADD19C,1.801800*%
%ADD20C,3.100000*%
%ADD21RoundRect,0.050000X-1.300000X-1.300000X1.300000X-1.300000X1.300000X1.300000X-1.300000X1.300000X0*%
%ADD22C,2.132000*%
%ADD23C,2.100000*%
%ADD24RoundRect,0.050000X-1.054507X-1.505993X1.505993X-1.054507X1.054507X1.505993X-1.505993X1.054507X0*%
%ADD25RoundRect,0.050000X-1.181751X-1.408356X1.408356X-1.181751X1.181751X1.408356X-1.408356X1.181751X0*%
%ADD26RoundRect,0.050000X-0.625000X0.450000X-0.625000X-0.450000X0.625000X-0.450000X0.625000X0.450000X0*%
%ADD27RoundRect,0.050000X-0.450000X0.450000X-0.450000X-0.450000X0.450000X-0.450000X0.450000X0.450000X0*%
%ADD28C,1.100000*%
%ADD29RoundRect,0.050000X-1.692328X-0.718350X0.718350X-1.692328X1.692328X0.718350X-0.718350X1.692328X0*%
%ADD30RoundRect,0.425000X-0.750000X0.375000X-0.750000X-0.375000X0.750000X-0.375000X0.750000X0.375000X0*%
%ADD31RoundRect,0.050000X-0.863113X-1.623279X1.623279X-0.863113X0.863113X1.623279X-1.623279X0.863113X0*%
%ADD32RoundRect,0.050000X-1.448740X-1.131880X1.131880X-1.448740X1.448740X1.131880X-1.131880X1.448740X0*%
%ADD33C,1.852600*%
%ADD34FreePoly0,180.000000*%
%ADD35RoundRect,0.050000X-0.762000X0.250000X-0.762000X-0.250000X0.762000X-0.250000X0.762000X0.250000X0*%
%ADD36FreePoly1,180.000000*%
%ADD37C,4.500000*%
G04 APERTURE END LIST*
D10*
%TO.C,B1*%
X162359171Y80540873D02*
X161882981Y80207539D01*
X162359171Y79969444D02*
X161359171Y79969444D01*
X161359171Y80350396D01*
X161406791Y80445634D01*
X161454410Y80493254D01*
X161549648Y80540873D01*
X161692505Y80540873D01*
X161787743Y80493254D01*
X161835362Y80445634D01*
X161882981Y80350396D01*
X161882981Y79969444D01*
X161835362Y80969444D02*
X161835362Y81302777D01*
X162359171Y81445634D02*
X162359171Y80969444D01*
X161359171Y80969444D01*
X161359171Y81445634D01*
X162311552Y81826587D02*
X162359171Y81969444D01*
X162359171Y82207539D01*
X162311552Y82302777D01*
X162263933Y82350396D01*
X162168695Y82398015D01*
X162073457Y82398015D01*
X161978219Y82350396D01*
X161930600Y82302777D01*
X161882981Y82207539D01*
X161835362Y82017063D01*
X161787743Y81921825D01*
X161740124Y81874206D01*
X161644886Y81826587D01*
X161549648Y81826587D01*
X161454410Y81874206D01*
X161406791Y81921825D01*
X161359171Y82017063D01*
X161359171Y82255158D01*
X161406791Y82398015D01*
X161835362Y82826587D02*
X161835362Y83159920D01*
X162359171Y83302777D02*
X162359171Y82826587D01*
X161359171Y82826587D01*
X161359171Y83302777D01*
X161359171Y83588492D02*
X161359171Y84159920D01*
X162359171Y83874206D02*
X161359171Y83874206D01*
%TO.C,PAD1*%
X157382648Y71724158D02*
X157420743Y71838444D01*
X157458838Y71876539D01*
X157535029Y71914634D01*
X157649314Y71914634D01*
X157725505Y71876539D01*
X157763600Y71838444D01*
X157801695Y71762254D01*
X157801695Y71457492D01*
X157001695Y71457492D01*
X157001695Y71724158D01*
X157039791Y71800349D01*
X157077886Y71838444D01*
X157154076Y71876539D01*
X157230267Y71876539D01*
X157306457Y71838444D01*
X157344552Y71800349D01*
X157382648Y71724158D01*
X157382648Y71457492D01*
X157496933Y72257492D02*
X157496933Y72867015D01*
X157801695Y72562254D02*
X157192171Y72562254D01*
X157382648Y75724158D02*
X157420743Y75838444D01*
X157458838Y75876539D01*
X157535029Y75914634D01*
X157649314Y75914634D01*
X157725505Y75876539D01*
X157763600Y75838444D01*
X157801695Y75762254D01*
X157801695Y75457492D01*
X157001695Y75457492D01*
X157001695Y75724158D01*
X157039791Y75800349D01*
X157077886Y75838444D01*
X157154076Y75876539D01*
X157230267Y75876539D01*
X157306457Y75838444D01*
X157344552Y75800349D01*
X157382648Y75724158D01*
X157382648Y75457492D01*
X157496933Y76257492D02*
X157496933Y76867015D01*
X157801695Y76562254D02*
X157192171Y76562254D01*
X157382648Y73724158D02*
X157420743Y73838444D01*
X157458838Y73876539D01*
X157535029Y73914634D01*
X157649314Y73914634D01*
X157725505Y73876539D01*
X157763600Y73838444D01*
X157801695Y73762254D01*
X157801695Y73457492D01*
X157001695Y73457492D01*
X157001695Y73724158D01*
X157039791Y73800349D01*
X157077886Y73838444D01*
X157154076Y73876539D01*
X157230267Y73876539D01*
X157306457Y73838444D01*
X157344552Y73800349D01*
X157382648Y73724158D01*
X157382648Y73457492D01*
X157496933Y74257492D02*
X157496933Y74867015D01*
%TO.C,MCU1*%
X158185784Y96057349D02*
X158185784Y96857349D01*
X158490546Y96857349D01*
X158566736Y96819254D01*
X158604832Y96781158D01*
X158642927Y96704968D01*
X158642927Y96590682D01*
X158604832Y96514492D01*
X158566736Y96476396D01*
X158490546Y96438301D01*
X158185784Y96438301D01*
X159138165Y96857349D02*
X159214355Y96857349D01*
X159290546Y96819254D01*
X159328641Y96781158D01*
X159366736Y96704968D01*
X159404832Y96552587D01*
X159404832Y96362111D01*
X159366736Y96209730D01*
X159328641Y96133539D01*
X159290546Y96095444D01*
X159214355Y96057349D01*
X159138165Y96057349D01*
X159061974Y96095444D01*
X159023879Y96133539D01*
X158985784Y96209730D01*
X158947689Y96362111D01*
X158947689Y96552587D01*
X158985784Y96704968D01*
X159023879Y96781158D01*
X159061974Y96819254D01*
X159138165Y96857349D01*
X160090546Y96857349D02*
X159938165Y96857349D01*
X159861974Y96819254D01*
X159823879Y96781158D01*
X159747689Y96666873D01*
X159709593Y96514492D01*
X159709593Y96209730D01*
X159747689Y96133539D01*
X159785784Y96095444D01*
X159861974Y96057349D01*
X160014355Y96057349D01*
X160090546Y96095444D01*
X160128641Y96133539D01*
X160166736Y96209730D01*
X160166736Y96400206D01*
X160128641Y96476396D01*
X160090546Y96514492D01*
X160014355Y96552587D01*
X159861974Y96552587D01*
X159785784Y96514492D01*
X159747689Y96476396D01*
X159709593Y96400206D01*
X148585784Y96057349D02*
X148585784Y96857349D01*
X148890546Y96857349D01*
X148966736Y96819254D01*
X149004832Y96781158D01*
X149042927Y96704968D01*
X149042927Y96590682D01*
X149004832Y96514492D01*
X148966736Y96476396D01*
X148890546Y96438301D01*
X148585784Y96438301D01*
X149804832Y96057349D02*
X149347689Y96057349D01*
X149576260Y96057349D02*
X149576260Y96857349D01*
X149500070Y96743063D01*
X149423879Y96666873D01*
X149347689Y96628777D01*
X150528641Y96857349D02*
X150147689Y96857349D01*
X150109593Y96476396D01*
X150147689Y96514492D01*
X150223879Y96552587D01*
X150414355Y96552587D01*
X150490546Y96514492D01*
X150528641Y96476396D01*
X150566736Y96400206D01*
X150566736Y96209730D01*
X150528641Y96133539D01*
X150490546Y96095444D01*
X150414355Y96057349D01*
X150223879Y96057349D01*
X150147689Y96095444D01*
X150109593Y96133539D01*
X158185784Y98597349D02*
X158185784Y99397349D01*
X158490546Y99397349D01*
X158566736Y99359254D01*
X158604832Y99321158D01*
X158642927Y99244968D01*
X158642927Y99130682D01*
X158604832Y99054492D01*
X158566736Y99016396D01*
X158490546Y98978301D01*
X158185784Y98978301D01*
X159138165Y99397349D02*
X159214355Y99397349D01*
X159290546Y99359254D01*
X159328641Y99321158D01*
X159366736Y99244968D01*
X159404832Y99092587D01*
X159404832Y98902111D01*
X159366736Y98749730D01*
X159328641Y98673539D01*
X159290546Y98635444D01*
X159214355Y98597349D01*
X159138165Y98597349D01*
X159061974Y98635444D01*
X159023879Y98673539D01*
X158985784Y98749730D01*
X158947689Y98902111D01*
X158947689Y99092587D01*
X158985784Y99244968D01*
X159023879Y99321158D01*
X159061974Y99359254D01*
X159138165Y99397349D01*
X160128641Y99397349D02*
X159747689Y99397349D01*
X159709593Y99016396D01*
X159747689Y99054492D01*
X159823879Y99092587D01*
X160014355Y99092587D01*
X160090546Y99054492D01*
X160128641Y99016396D01*
X160166736Y98940206D01*
X160166736Y98749730D01*
X160128641Y98673539D01*
X160090546Y98635444D01*
X160014355Y98597349D01*
X159823879Y98597349D01*
X159747689Y98635444D01*
X159709593Y98673539D01*
X158185784Y101137349D02*
X158185784Y101937349D01*
X158490546Y101937349D01*
X158566736Y101899254D01*
X158604832Y101861158D01*
X158642927Y101784968D01*
X158642927Y101670682D01*
X158604832Y101594492D01*
X158566736Y101556396D01*
X158490546Y101518301D01*
X158185784Y101518301D01*
X159138165Y101937349D02*
X159214355Y101937349D01*
X159290546Y101899254D01*
X159328641Y101861158D01*
X159366736Y101784968D01*
X159404832Y101632587D01*
X159404832Y101442111D01*
X159366736Y101289730D01*
X159328641Y101213539D01*
X159290546Y101175444D01*
X159214355Y101137349D01*
X159138165Y101137349D01*
X159061974Y101175444D01*
X159023879Y101213539D01*
X158985784Y101289730D01*
X158947689Y101442111D01*
X158947689Y101632587D01*
X158985784Y101784968D01*
X159023879Y101861158D01*
X159061974Y101899254D01*
X159138165Y101937349D01*
X160090546Y101670682D02*
X160090546Y101137349D01*
X159900070Y101975444D02*
X159709593Y101404015D01*
X160204832Y101404015D01*
X152248452Y114599254D02*
X152172261Y114637349D01*
X152057976Y114637349D01*
X151943690Y114599254D01*
X151867499Y114523063D01*
X151829404Y114446873D01*
X151791309Y114294492D01*
X151791309Y114180206D01*
X151829404Y114027825D01*
X151867499Y113951634D01*
X151943690Y113875444D01*
X152057976Y113837349D01*
X152134166Y113837349D01*
X152248452Y113875444D01*
X152286547Y113913539D01*
X152286547Y114180206D01*
X152134166Y114180206D01*
X152629404Y113837349D02*
X152629404Y114637349D01*
X153086547Y113837349D01*
X153086547Y114637349D01*
X153467499Y113837349D02*
X153467499Y114637349D01*
X153657976Y114637349D01*
X153772261Y114599254D01*
X153848452Y114523063D01*
X153886547Y114446873D01*
X153924642Y114294492D01*
X153924642Y114180206D01*
X153886547Y114027825D01*
X153848452Y113951634D01*
X153772261Y113875444D01*
X153657976Y113837349D01*
X153467499Y113837349D01*
X148585784Y101137349D02*
X148585784Y101937349D01*
X148890546Y101937349D01*
X148966736Y101899254D01*
X149004832Y101861158D01*
X149042927Y101784968D01*
X149042927Y101670682D01*
X149004832Y101594492D01*
X148966736Y101556396D01*
X148890546Y101518301D01*
X148585784Y101518301D01*
X149804832Y101137349D02*
X149347689Y101137349D01*
X149576260Y101137349D02*
X149576260Y101937349D01*
X149500070Y101823063D01*
X149423879Y101746873D01*
X149347689Y101708777D01*
X150185784Y101137349D02*
X150338165Y101137349D01*
X150414355Y101175444D01*
X150452451Y101213539D01*
X150528641Y101327825D01*
X150566736Y101480206D01*
X150566736Y101784968D01*
X150528641Y101861158D01*
X150490546Y101899254D01*
X150414355Y101937349D01*
X150261974Y101937349D01*
X150185784Y101899254D01*
X150147689Y101861158D01*
X150109593Y101784968D01*
X150109593Y101594492D01*
X150147689Y101518301D01*
X150185784Y101480206D01*
X150261974Y101442111D01*
X150414355Y101442111D01*
X150490546Y101480206D01*
X150528641Y101518301D01*
X150566736Y101594492D01*
X158185784Y93517349D02*
X158185784Y94317349D01*
X158490546Y94317349D01*
X158566736Y94279254D01*
X158604832Y94241158D01*
X158642927Y94164968D01*
X158642927Y94050682D01*
X158604832Y93974492D01*
X158566736Y93936396D01*
X158490546Y93898301D01*
X158185784Y93898301D01*
X159138165Y94317349D02*
X159214355Y94317349D01*
X159290546Y94279254D01*
X159328641Y94241158D01*
X159366736Y94164968D01*
X159404832Y94012587D01*
X159404832Y93822111D01*
X159366736Y93669730D01*
X159328641Y93593539D01*
X159290546Y93555444D01*
X159214355Y93517349D01*
X159138165Y93517349D01*
X159061974Y93555444D01*
X159023879Y93593539D01*
X158985784Y93669730D01*
X158947689Y93822111D01*
X158947689Y94012587D01*
X158985784Y94164968D01*
X159023879Y94241158D01*
X159061974Y94279254D01*
X159138165Y94317349D01*
X159671498Y94317349D02*
X160204832Y94317349D01*
X159861974Y93517349D01*
X158185784Y103677349D02*
X158185784Y104477349D01*
X158490546Y104477349D01*
X158566736Y104439254D01*
X158604832Y104401158D01*
X158642927Y104324968D01*
X158642927Y104210682D01*
X158604832Y104134492D01*
X158566736Y104096396D01*
X158490546Y104058301D01*
X158185784Y104058301D01*
X159138165Y104477349D02*
X159214355Y104477349D01*
X159290546Y104439254D01*
X159328641Y104401158D01*
X159366736Y104324968D01*
X159404832Y104172587D01*
X159404832Y103982111D01*
X159366736Y103829730D01*
X159328641Y103753539D01*
X159290546Y103715444D01*
X159214355Y103677349D01*
X159138165Y103677349D01*
X159061974Y103715444D01*
X159023879Y103753539D01*
X158985784Y103829730D01*
X158947689Y103982111D01*
X158947689Y104172587D01*
X158985784Y104324968D01*
X159023879Y104401158D01*
X159061974Y104439254D01*
X159138165Y104477349D01*
X159671498Y104477349D02*
X160166736Y104477349D01*
X159900070Y104172587D01*
X160014355Y104172587D01*
X160090546Y104134492D01*
X160128641Y104096396D01*
X160166736Y104020206D01*
X160166736Y103829730D01*
X160128641Y103753539D01*
X160090546Y103715444D01*
X160014355Y103677349D01*
X159785784Y103677349D01*
X159709593Y103715444D01*
X159671498Y103753539D01*
X148585784Y88437349D02*
X148585784Y89237349D01*
X148890546Y89237349D01*
X148966736Y89199254D01*
X149004832Y89161158D01*
X149042927Y89084968D01*
X149042927Y88970682D01*
X149004832Y88894492D01*
X148966736Y88856396D01*
X148890546Y88818301D01*
X148585784Y88818301D01*
X149804832Y88437349D02*
X149347689Y88437349D01*
X149576260Y88437349D02*
X149576260Y89237349D01*
X149500070Y89123063D01*
X149423879Y89046873D01*
X149347689Y89008777D01*
X150300070Y89237349D02*
X150376260Y89237349D01*
X150452451Y89199254D01*
X150490546Y89161158D01*
X150528641Y89084968D01*
X150566736Y88932587D01*
X150566736Y88742111D01*
X150528641Y88589730D01*
X150490546Y88513539D01*
X150452451Y88475444D01*
X150376260Y88437349D01*
X150300070Y88437349D01*
X150223879Y88475444D01*
X150185784Y88513539D01*
X150147689Y88589730D01*
X150109593Y88742111D01*
X150109593Y88932587D01*
X150147689Y89084968D01*
X150185784Y89161158D01*
X150223879Y89199254D01*
X150300070Y89237349D01*
X148585784Y98597349D02*
X148585784Y99397349D01*
X148890546Y99397349D01*
X148966736Y99359254D01*
X149004832Y99321158D01*
X149042927Y99244968D01*
X149042927Y99130682D01*
X149004832Y99054492D01*
X148966736Y99016396D01*
X148890546Y98978301D01*
X148585784Y98978301D01*
X149804832Y98597349D02*
X149347689Y98597349D01*
X149576260Y98597349D02*
X149576260Y99397349D01*
X149500070Y99283063D01*
X149423879Y99206873D01*
X149347689Y99168777D01*
X150261974Y99054492D02*
X150185784Y99092587D01*
X150147689Y99130682D01*
X150109593Y99206873D01*
X150109593Y99244968D01*
X150147689Y99321158D01*
X150185784Y99359254D01*
X150261974Y99397349D01*
X150414355Y99397349D01*
X150490546Y99359254D01*
X150528641Y99321158D01*
X150566736Y99244968D01*
X150566736Y99206873D01*
X150528641Y99130682D01*
X150490546Y99092587D01*
X150414355Y99054492D01*
X150261974Y99054492D01*
X150185784Y99016396D01*
X150147689Y98978301D01*
X150109593Y98902111D01*
X150109593Y98749730D01*
X150147689Y98673539D01*
X150185784Y98635444D01*
X150261974Y98597349D01*
X150414355Y98597349D01*
X150490546Y98635444D01*
X150528641Y98673539D01*
X150566736Y98749730D01*
X150566736Y98902111D01*
X150528641Y98978301D01*
X150490546Y99016396D01*
X150414355Y99054492D01*
X158185784Y106217349D02*
X158185784Y107017349D01*
X158490546Y107017349D01*
X158566736Y106979254D01*
X158604832Y106941158D01*
X158642927Y106864968D01*
X158642927Y106750682D01*
X158604832Y106674492D01*
X158566736Y106636396D01*
X158490546Y106598301D01*
X158185784Y106598301D01*
X159138165Y107017349D02*
X159214355Y107017349D01*
X159290546Y106979254D01*
X159328641Y106941158D01*
X159366736Y106864968D01*
X159404832Y106712587D01*
X159404832Y106522111D01*
X159366736Y106369730D01*
X159328641Y106293539D01*
X159290546Y106255444D01*
X159214355Y106217349D01*
X159138165Y106217349D01*
X159061974Y106255444D01*
X159023879Y106293539D01*
X158985784Y106369730D01*
X158947689Y106522111D01*
X158947689Y106712587D01*
X158985784Y106864968D01*
X159023879Y106941158D01*
X159061974Y106979254D01*
X159138165Y107017349D01*
X159709593Y106941158D02*
X159747689Y106979254D01*
X159823879Y107017349D01*
X160014355Y107017349D01*
X160090546Y106979254D01*
X160128641Y106941158D01*
X160166736Y106864968D01*
X160166736Y106788777D01*
X160128641Y106674492D01*
X159671498Y106217349D01*
X160166736Y106217349D01*
X152305595Y116377349D02*
X152038928Y116758301D01*
X151848452Y116377349D02*
X151848452Y117177349D01*
X152153214Y117177349D01*
X152229404Y117139254D01*
X152267499Y117101158D01*
X152305595Y117024968D01*
X152305595Y116910682D01*
X152267499Y116834492D01*
X152229404Y116796396D01*
X152153214Y116758301D01*
X151848452Y116758301D01*
X152610356Y116605920D02*
X152991309Y116605920D01*
X152534166Y116377349D02*
X152800833Y117177349D01*
X153067499Y116377349D01*
X153257976Y117177349D02*
X153448452Y116377349D01*
X153600833Y116948777D01*
X153753214Y116377349D01*
X153943690Y117177349D01*
X148585784Y90977349D02*
X148585784Y91777349D01*
X148890546Y91777349D01*
X148966736Y91739254D01*
X149004832Y91701158D01*
X149042927Y91624968D01*
X149042927Y91510682D01*
X149004832Y91434492D01*
X148966736Y91396396D01*
X148890546Y91358301D01*
X148585784Y91358301D01*
X149804832Y90977349D02*
X149347689Y90977349D01*
X149576260Y90977349D02*
X149576260Y91777349D01*
X149500070Y91663063D01*
X149423879Y91586873D01*
X149347689Y91548777D01*
X150490546Y91777349D02*
X150338165Y91777349D01*
X150261974Y91739254D01*
X150223879Y91701158D01*
X150147689Y91586873D01*
X150109593Y91434492D01*
X150109593Y91129730D01*
X150147689Y91053539D01*
X150185784Y91015444D01*
X150261974Y90977349D01*
X150414355Y90977349D01*
X150490546Y91015444D01*
X150528641Y91053539D01*
X150566736Y91129730D01*
X150566736Y91320206D01*
X150528641Y91396396D01*
X150490546Y91434492D01*
X150414355Y91472587D01*
X150261974Y91472587D01*
X150185784Y91434492D01*
X150147689Y91396396D01*
X150109593Y91320206D01*
X158185784Y88437349D02*
X158185784Y89237349D01*
X158490546Y89237349D01*
X158566736Y89199254D01*
X158604832Y89161158D01*
X158642927Y89084968D01*
X158642927Y88970682D01*
X158604832Y88894492D01*
X158566736Y88856396D01*
X158490546Y88818301D01*
X158185784Y88818301D01*
X159138165Y89237349D02*
X159214355Y89237349D01*
X159290546Y89199254D01*
X159328641Y89161158D01*
X159366736Y89084968D01*
X159404832Y88932587D01*
X159404832Y88742111D01*
X159366736Y88589730D01*
X159328641Y88513539D01*
X159290546Y88475444D01*
X159214355Y88437349D01*
X159138165Y88437349D01*
X159061974Y88475444D01*
X159023879Y88513539D01*
X158985784Y88589730D01*
X158947689Y88742111D01*
X158947689Y88932587D01*
X158985784Y89084968D01*
X159023879Y89161158D01*
X159061974Y89199254D01*
X159138165Y89237349D01*
X159785784Y88437349D02*
X159938165Y88437349D01*
X160014355Y88475444D01*
X160052451Y88513539D01*
X160128641Y88627825D01*
X160166736Y88780206D01*
X160166736Y89084968D01*
X160128641Y89161158D01*
X160090546Y89199254D01*
X160014355Y89237349D01*
X159861974Y89237349D01*
X159785784Y89199254D01*
X159747689Y89161158D01*
X159709593Y89084968D01*
X159709593Y88894492D01*
X159747689Y88818301D01*
X159785784Y88780206D01*
X159861974Y88742111D01*
X160014355Y88742111D01*
X160090546Y88780206D01*
X160128641Y88818301D01*
X160166736Y88894492D01*
X152305594Y111297349D02*
X152038928Y111678301D01*
X151848451Y111297349D02*
X151848451Y112097349D01*
X152153213Y112097349D01*
X152229404Y112059254D01*
X152267499Y112021158D01*
X152305594Y111944968D01*
X152305594Y111830682D01*
X152267499Y111754492D01*
X152229404Y111716396D01*
X152153213Y111678301D01*
X151848451Y111678301D01*
X152610356Y111335444D02*
X152724642Y111297349D01*
X152915118Y111297349D01*
X152991309Y111335444D01*
X153029404Y111373539D01*
X153067499Y111449730D01*
X153067499Y111525920D01*
X153029404Y111602111D01*
X152991309Y111640206D01*
X152915118Y111678301D01*
X152762737Y111716396D01*
X152686547Y111754492D01*
X152648451Y111792587D01*
X152610356Y111868777D01*
X152610356Y111944968D01*
X152648451Y112021158D01*
X152686547Y112059254D01*
X152762737Y112097349D01*
X152953213Y112097349D01*
X153067499Y112059254D01*
X153296070Y112097349D02*
X153753213Y112097349D01*
X153524642Y111297349D02*
X153524642Y112097349D01*
X148585784Y103677349D02*
X148585784Y104477349D01*
X148890546Y104477349D01*
X148966736Y104439254D01*
X149004832Y104401158D01*
X149042927Y104324968D01*
X149042927Y104210682D01*
X149004832Y104134492D01*
X148966736Y104096396D01*
X148890546Y104058301D01*
X148585784Y104058301D01*
X149347689Y104401158D02*
X149385784Y104439254D01*
X149461974Y104477349D01*
X149652451Y104477349D01*
X149728641Y104439254D01*
X149766736Y104401158D01*
X149804832Y104324968D01*
X149804832Y104248777D01*
X149766736Y104134492D01*
X149309593Y103677349D01*
X149804832Y103677349D01*
X150300070Y104477349D02*
X150376260Y104477349D01*
X150452451Y104439254D01*
X150490546Y104401158D01*
X150528641Y104324968D01*
X150566736Y104172587D01*
X150566736Y103982111D01*
X150528641Y103829730D01*
X150490546Y103753539D01*
X150452451Y103715444D01*
X150376260Y103677349D01*
X150300070Y103677349D01*
X150223879Y103715444D01*
X150185784Y103753539D01*
X150147689Y103829730D01*
X150109593Y103982111D01*
X150109593Y104172587D01*
X150147689Y104324968D01*
X150185784Y104401158D01*
X150223879Y104439254D01*
X150300070Y104477349D01*
X148585784Y93517349D02*
X148585784Y94317349D01*
X148890546Y94317349D01*
X148966736Y94279254D01*
X149004832Y94241158D01*
X149042927Y94164968D01*
X149042927Y94050682D01*
X149004832Y93974492D01*
X148966736Y93936396D01*
X148890546Y93898301D01*
X148585784Y93898301D01*
X149804832Y93517349D02*
X149347689Y93517349D01*
X149576260Y93517349D02*
X149576260Y94317349D01*
X149500070Y94203063D01*
X149423879Y94126873D01*
X149347689Y94088777D01*
X150490546Y94050682D02*
X150490546Y93517349D01*
X150300070Y94355444D02*
X150109593Y93784015D01*
X150604832Y93784015D01*
X148585784Y106217349D02*
X148585784Y107017349D01*
X148890546Y107017349D01*
X148966736Y106979254D01*
X149004832Y106941158D01*
X149042927Y106864968D01*
X149042927Y106750682D01*
X149004832Y106674492D01*
X148966736Y106636396D01*
X148890546Y106598301D01*
X148585784Y106598301D01*
X149347689Y106941158D02*
X149385784Y106979254D01*
X149461974Y107017349D01*
X149652451Y107017349D01*
X149728641Y106979254D01*
X149766736Y106941158D01*
X149804832Y106864968D01*
X149804832Y106788777D01*
X149766736Y106674492D01*
X149309593Y106217349D01*
X149804832Y106217349D01*
X150566736Y106217349D02*
X150109593Y106217349D01*
X150338165Y106217349D02*
X150338165Y107017349D01*
X150261974Y106903063D01*
X150185784Y106826873D01*
X150109593Y106788777D01*
X158185784Y90977349D02*
X158185784Y91777349D01*
X158490546Y91777349D01*
X158566736Y91739254D01*
X158604832Y91701158D01*
X158642927Y91624968D01*
X158642927Y91510682D01*
X158604832Y91434492D01*
X158566736Y91396396D01*
X158490546Y91358301D01*
X158185784Y91358301D01*
X159138165Y91777349D02*
X159214355Y91777349D01*
X159290546Y91739254D01*
X159328641Y91701158D01*
X159366736Y91624968D01*
X159404832Y91472587D01*
X159404832Y91282111D01*
X159366736Y91129730D01*
X159328641Y91053539D01*
X159290546Y91015444D01*
X159214355Y90977349D01*
X159138165Y90977349D01*
X159061974Y91015444D01*
X159023879Y91053539D01*
X158985784Y91129730D01*
X158947689Y91282111D01*
X158947689Y91472587D01*
X158985784Y91624968D01*
X159023879Y91701158D01*
X159061974Y91739254D01*
X159138165Y91777349D01*
X159861974Y91434492D02*
X159785784Y91472587D01*
X159747689Y91510682D01*
X159709593Y91586873D01*
X159709593Y91624968D01*
X159747689Y91701158D01*
X159785784Y91739254D01*
X159861974Y91777349D01*
X160014355Y91777349D01*
X160090546Y91739254D01*
X160128641Y91701158D01*
X160166736Y91624968D01*
X160166736Y91586873D01*
X160128641Y91510682D01*
X160090546Y91472587D01*
X160014355Y91434492D01*
X159861974Y91434492D01*
X159785784Y91396396D01*
X159747689Y91358301D01*
X159709593Y91282111D01*
X159709593Y91129730D01*
X159747689Y91053539D01*
X159785784Y91015444D01*
X159861974Y90977349D01*
X160014355Y90977349D01*
X160090546Y91015444D01*
X160128641Y91053539D01*
X160166736Y91129730D01*
X160166736Y91282111D01*
X160128641Y91358301D01*
X160090546Y91396396D01*
X160014355Y91434492D01*
D11*
%TO.C,REF\u002A\u002A*%
X103717005Y77536254D02*
X103717005Y77917206D01*
X103383671Y77679111D02*
X104240814Y77679111D01*
X104336052Y77726730D01*
X104383671Y77821968D01*
X104383671Y77917206D01*
X104336052Y78631492D02*
X104383671Y78536254D01*
X104383671Y78345777D01*
X104336052Y78250539D01*
X104240814Y78202920D01*
X103859862Y78202920D01*
X103764624Y78250539D01*
X103717005Y78345777D01*
X103717005Y78536254D01*
X103764624Y78631492D01*
X103859862Y78679111D01*
X103955100Y78679111D01*
X104050338Y78202920D01*
X103717005Y79107682D02*
X104383671Y79107682D01*
X103812243Y79107682D02*
X103764624Y79155301D01*
X103717005Y79250539D01*
X103717005Y79393396D01*
X103764624Y79488634D01*
X103859862Y79536254D01*
X104383671Y79536254D01*
X103717005Y79869587D02*
X103717005Y80250539D01*
X103383671Y80012444D02*
X104240814Y80012444D01*
X104336052Y80060063D01*
X104383671Y80155301D01*
X104383671Y80250539D01*
X104383671Y80583873D02*
X103717005Y80583873D01*
X103383671Y80583873D02*
X103431291Y80536254D01*
X103478910Y80583873D01*
X103431291Y80631492D01*
X103383671Y80583873D01*
X103478910Y80583873D01*
X103717005Y81060063D02*
X104383671Y81060063D01*
X103812243Y81060063D02*
X103764624Y81107682D01*
X103717005Y81202920D01*
X103717005Y81345777D01*
X103764624Y81441015D01*
X103859862Y81488634D01*
X104383671Y81488634D01*
X103717005Y82393396D02*
X104526529Y82393396D01*
X104621767Y82345777D01*
X104669386Y82298158D01*
X104717005Y82202920D01*
X104717005Y82060063D01*
X104669386Y81964825D01*
X104336052Y82393396D02*
X104383671Y82298158D01*
X104383671Y82107682D01*
X104336052Y82012444D01*
X104288433Y81964825D01*
X104193195Y81917206D01*
X103907481Y81917206D01*
X103812243Y81964825D01*
X103764624Y82012444D01*
X103717005Y82107682D01*
X103717005Y82298158D01*
X103764624Y82393396D01*
X103653505Y91426754D02*
X104653505Y91426754D01*
X103701124Y91426754D02*
X103653505Y91521992D01*
X103653505Y91712468D01*
X103701124Y91807706D01*
X103748743Y91855325D01*
X103843981Y91902944D01*
X104129695Y91902944D01*
X104224933Y91855325D01*
X104272552Y91807706D01*
X104320171Y91712468D01*
X104320171Y91521992D01*
X104272552Y91426754D01*
X103653505Y92760087D02*
X104320171Y92760087D01*
X103653505Y92331515D02*
X104177314Y92331515D01*
X104272552Y92379134D01*
X104320171Y92474373D01*
X104320171Y92617230D01*
X104272552Y92712468D01*
X104224933Y92760087D01*
X104272552Y93664849D02*
X104320171Y93569611D01*
X104320171Y93379134D01*
X104272552Y93283896D01*
X104224933Y93236277D01*
X104129695Y93188658D01*
X103843981Y93188658D01*
X103748743Y93236277D01*
X103701124Y93283896D01*
X103653505Y93379134D01*
X103653505Y93569611D01*
X103701124Y93664849D01*
X104320171Y94093420D02*
X103320171Y94093420D01*
X103939219Y94188658D02*
X104320171Y94474373D01*
X103653505Y94474373D02*
X104034457Y94093420D01*
D10*
%TO.C,B1*%
X160156791Y78993254D02*
X160156791Y84993254D01*
X163656791Y78993254D02*
X163656791Y84993254D01*
X160156791Y84993254D02*
X160406791Y84993254D01*
X163656791Y78993254D02*
X163406791Y78993254D01*
X163656791Y84993254D02*
X163406791Y84993254D01*
X160156791Y78993254D02*
X160406791Y78993254D01*
%TO.C,T1*%
X162029791Y59352254D02*
X162029791Y62652254D01*
X159179791Y56052254D02*
X162029791Y56052254D01*
X162029791Y59352254D02*
X162029791Y56052254D01*
X159179791Y62652254D02*
X159179791Y56052254D01*
X162029791Y57402254D02*
X162029791Y61302254D01*
X162029791Y62652254D02*
X159179791Y62652254D01*
%TO.C,G\u002A\u002A\u002A*%
G36*
X92883978Y54811439D02*
G01*
X92740255Y54880814D01*
X92407058Y55056231D01*
X92211599Y55193916D01*
X92131416Y55310999D01*
X92130646Y55316839D01*
X92306885Y55316839D01*
X92323310Y55295956D01*
X92503738Y55201096D01*
X92814003Y55123189D01*
X93215242Y55064583D01*
X93668589Y55027628D01*
X94135180Y55014670D01*
X94576151Y55028060D01*
X94952637Y55070144D01*
X95174422Y55123679D01*
X95401772Y55233273D01*
X95460472Y55348492D01*
X95351061Y55468035D01*
X95074080Y55590598D01*
X94966078Y55625429D01*
X94664565Y55735323D01*
X94407590Y55860367D01*
X94283288Y55946404D01*
X94021677Y56093383D01*
X93736622Y56076183D01*
X93509613Y55948664D01*
X93306784Y55830100D01*
X93019752Y55709005D01*
X92844401Y55651219D01*
X92514387Y55534275D01*
X92332107Y55420696D01*
X92306885Y55316839D01*
X92130646Y55316839D01*
X92126422Y55348860D01*
X92205522Y55535943D01*
X92420663Y55696920D01*
X92738600Y55809825D01*
X92858300Y55832470D01*
X93154436Y55920791D01*
X93435028Y56068739D01*
X93454272Y56082600D01*
X93752550Y56247693D01*
X94019947Y56257391D01*
X94293936Y56111220D01*
X94343195Y56071400D01*
X94555160Y55931295D01*
X94751676Y55860051D01*
X94778751Y55857874D01*
X94966352Y55822347D01*
X95222502Y55735067D01*
X95328663Y55689960D01*
X95559074Y55566867D01*
X95659234Y55452976D01*
X95667330Y55340633D01*
X95591473Y55163612D01*
X95513088Y55091950D01*
X95111759Y54891462D01*
X94805697Y54759395D01*
X94543443Y54679643D01*
X94273536Y54636100D01*
X93989088Y54614958D01*
X93653008Y54603783D01*
X93402897Y54622991D01*
X93169604Y54687303D01*
X93109985Y54713214D01*
X93673799Y54713214D01*
X93780173Y54699930D01*
X93904422Y54697460D01*
X94087543Y54704065D01*
X94137812Y54720951D01*
X94094922Y54734152D01*
X93848204Y54748159D01*
X93713922Y54734152D01*
X93673799Y54713214D01*
X93109985Y54713214D01*
X92957906Y54779309D01*
X93263810Y54779309D01*
X93347033Y54765751D01*
X93456847Y54781317D01*
X93458158Y54810219D01*
X93344841Y54830431D01*
X93295880Y54816903D01*
X93263810Y54779309D01*
X92957906Y54779309D01*
X92883978Y54811439D01*
G37*
G36*
X94497088Y50503045D02*
G01*
X94643295Y50652401D01*
X94666692Y50756195D01*
X94555768Y50821445D01*
X94299012Y50855169D01*
X93904422Y50864400D01*
X93568863Y50857043D01*
X93308698Y50837338D01*
X93161697Y50808830D01*
X93142422Y50792855D01*
X93199034Y50688346D01*
X93311755Y50568066D01*
X93447142Y50400898D01*
X93476988Y50265739D01*
X93400694Y50201812D01*
X93317223Y50210169D01*
X93160615Y50195335D01*
X93108213Y50135377D01*
X93006711Y50026556D01*
X92885968Y50061683D01*
X92834968Y50143183D01*
X92754841Y50223695D01*
X92631524Y50185516D01*
X92462694Y50111812D01*
X92392654Y50148018D01*
X92380422Y50271016D01*
X92421728Y50379808D01*
X92582791Y50379808D01*
X92677340Y50385158D01*
X92749034Y50430786D01*
X92849174Y50473905D01*
X92916959Y50373574D01*
X92929388Y50337018D01*
X92980358Y50214712D01*
X93017398Y50247358D01*
X93029700Y50288207D01*
X93124266Y50392124D01*
X93211226Y50386159D01*
X93282980Y50379386D01*
X93221385Y50454321D01*
X93173785Y50496685D01*
X93022640Y50657352D01*
X92947636Y50779733D01*
X92909598Y50852446D01*
X92895106Y50761545D01*
X92821498Y50610467D01*
X92711837Y50521852D01*
X92594181Y50433079D01*
X92582791Y50379808D01*
X92421728Y50379808D01*
X92447013Y50446405D01*
X92549755Y50545382D01*
X92693986Y50671444D01*
X92682018Y50778173D01*
X92509132Y50871978D01*
X92258894Y50940441D01*
X91805541Y51124714D01*
X91433524Y51442555D01*
X91170096Y51867066D01*
X91092709Y52091419D01*
X90991439Y52470057D01*
X90775764Y52332967D01*
X90561682Y52165937D01*
X90369908Y51974638D01*
X90179727Y51753400D01*
X90000313Y51965066D01*
X89869742Y52239974D01*
X89848473Y52501801D01*
X90095204Y52501801D01*
X90102772Y52276291D01*
X90139765Y52147704D01*
X90163941Y52134400D01*
X90256374Y52188909D01*
X90430173Y52331426D01*
X90603135Y52489954D01*
X91293284Y52489954D01*
X91375226Y52110208D01*
X91476501Y51873648D01*
X91654061Y51601911D01*
X91877885Y51393116D01*
X92168936Y51241165D01*
X92548174Y51139962D01*
X93036561Y51083409D01*
X93655058Y51065408D01*
X94226220Y51073792D01*
X94708800Y51090617D01*
X95060360Y51114249D01*
X95319209Y51150426D01*
X95523658Y51204883D01*
X95712015Y51283357D01*
X95750220Y51301989D01*
X96123921Y51577407D01*
X96396496Y51966219D01*
X96555900Y52437813D01*
X96590089Y52961576D01*
X96540529Y53310769D01*
X96455508Y53618649D01*
X96347306Y53796201D01*
X96181045Y53859979D01*
X95921846Y53826536D01*
X95630184Y53742813D01*
X94953530Y53587774D01*
X94197082Y53510253D01*
X93433171Y53513392D01*
X92734127Y53600336D01*
X92668971Y53614115D01*
X92335075Y53693216D01*
X92053420Y53769503D01*
X91875159Y53828891D01*
X91854808Y53838335D01*
X91752825Y53860391D01*
X91681082Y53771888D01*
X91623707Y53593361D01*
X91533656Y53336287D01*
X91426116Y53126554D01*
X91411179Y53105450D01*
X91304319Y52839623D01*
X91293284Y52489954D01*
X90603135Y52489954D01*
X90635426Y52519550D01*
X90866152Y52778902D01*
X91090809Y53095367D01*
X91281265Y53421544D01*
X91409387Y53710034D01*
X91448261Y53889059D01*
X91380701Y53995723D01*
X91215710Y54113267D01*
X91203142Y54119902D01*
X91054781Y54186990D01*
X90944970Y54184016D01*
X90822020Y54091411D01*
X90654733Y53912295D01*
X90448858Y53651510D01*
X90275909Y53376808D01*
X90223346Y53268946D01*
X90158061Y53047223D01*
X90114491Y52775143D01*
X90095204Y52501801D01*
X89848473Y52501801D01*
X89840202Y52603612D01*
X89902370Y53016274D01*
X90046922Y53438258D01*
X90264536Y53829856D01*
X90504870Y54113825D01*
X90761494Y54357583D01*
X90302999Y54776621D01*
X89826443Y55321596D01*
X89567296Y55759042D01*
X89447141Y56012240D01*
X89368080Y56220018D01*
X89321752Y56429518D01*
X89299794Y56687883D01*
X89293841Y57042258D01*
X89294371Y57297579D01*
X89297495Y57341400D01*
X89553696Y57341400D01*
X89557400Y56928222D01*
X89578822Y56628157D01*
X89627684Y56385171D01*
X89713705Y56143232D01*
X89792844Y55962855D01*
X90136304Y55401988D01*
X90621028Y54892268D01*
X91222119Y54452211D01*
X91914683Y54100333D01*
X92603812Y53872265D01*
X93082786Y53794861D01*
X93663314Y53766986D01*
X94285788Y53786196D01*
X94890603Y53850046D01*
X95418152Y53956093D01*
X95543239Y53992802D01*
X96123723Y54178753D01*
X96070295Y54617077D01*
X96079465Y55080285D01*
X96325881Y55080285D01*
X96327710Y54677744D01*
X96375168Y54316992D01*
X96467775Y54056944D01*
X96475134Y54045253D01*
X96628143Y53811733D01*
X96826284Y53997877D01*
X96966130Y54193782D01*
X97086957Y54469968D01*
X97121864Y54590190D01*
X97176721Y55146150D01*
X97084261Y55689335D01*
X96907681Y56083336D01*
X96784247Y56274447D01*
X96713207Y56333717D01*
X96666647Y56278387D01*
X96652846Y56240733D01*
X96579443Y56050036D01*
X96475242Y55806585D01*
X96461032Y55775066D01*
X96370162Y55465698D01*
X96325881Y55080285D01*
X96079465Y55080285D01*
X96082096Y55213210D01*
X96150582Y55521066D01*
X96262396Y55901980D01*
X96322245Y56147438D01*
X96311960Y56287910D01*
X96213374Y56353867D01*
X96008320Y56375778D01*
X95678630Y56384113D01*
X95635186Y56385469D01*
X94892188Y56410066D01*
X94545362Y57256733D01*
X94198535Y58103400D01*
X93537991Y58103400D01*
X92844243Y56410066D01*
X91992187Y56386102D01*
X91140130Y56362137D01*
X90785489Y57302541D01*
X90651479Y57677144D01*
X90550559Y57997120D01*
X90492705Y58227962D01*
X90487272Y58334241D01*
X90565612Y58358671D01*
X90770969Y58376347D01*
X91110443Y58387339D01*
X91591135Y58391713D01*
X92220147Y58389538D01*
X93004578Y58380882D01*
X93892620Y58366851D01*
X94628610Y58353119D01*
X95310377Y58338793D01*
X95919653Y58324376D01*
X96438166Y58310372D01*
X96847646Y58297287D01*
X97129824Y58285624D01*
X97266428Y58275889D01*
X97276286Y58273424D01*
X97264632Y58184166D01*
X97205275Y57971704D01*
X97108818Y57671815D01*
X97032008Y57449106D01*
X96752989Y56659530D01*
X96977731Y56434787D01*
X97139512Y56205119D01*
X97287131Y55877216D01*
X97345176Y55696772D01*
X97487878Y55183498D01*
X97700397Y55496248D01*
X97963013Y55953635D01*
X98127499Y56429344D01*
X98208157Y56975786D01*
X98222422Y57409186D01*
X98153236Y58317446D01*
X97951835Y59154138D01*
X97627455Y59906649D01*
X97189332Y60562370D01*
X96646702Y61108689D01*
X96008799Y61532995D01*
X95284861Y61822677D01*
X94928718Y61906649D01*
X94599418Y61983285D01*
X94428121Y62077514D01*
X94403843Y62217712D01*
X94515598Y62432257D01*
X94652421Y62620354D01*
X94830072Y62942212D01*
X94878088Y63278409D01*
X94844099Y63599871D01*
X94740227Y63769180D01*
X94563612Y63789686D01*
X94470459Y63756294D01*
X94256563Y63572819D01*
X94090860Y63257823D01*
X93987793Y62845723D01*
X93961254Y62542942D01*
X93942369Y62227069D01*
X93913023Y62069667D01*
X93879665Y62060719D01*
X93848740Y62190208D01*
X93826695Y62448119D01*
X93819755Y62762786D01*
X93794031Y63302679D01*
X93718779Y63706619D01*
X93596879Y63965572D01*
X93431210Y64070503D01*
X93402355Y64072400D01*
X93240506Y63997740D01*
X93178928Y63867659D01*
X93168326Y63649227D01*
X93203966Y63327445D01*
X93275583Y62958591D01*
X93372909Y62598940D01*
X93448998Y62387233D01*
X93520542Y62193920D01*
X93546125Y62082449D01*
X93543788Y62074878D01*
X93455295Y62047212D01*
X93243659Y61996299D01*
X92951733Y61932349D01*
X92901052Y61921718D01*
X92094895Y61683228D01*
X91407043Y61325848D01*
X90829831Y60843852D01*
X90355594Y60231511D01*
X90150404Y59866170D01*
X89844649Y59165956D01*
X89655204Y58486382D01*
X89565908Y57759066D01*
X89553696Y57341400D01*
X89297495Y57341400D01*
X89363677Y58269694D01*
X89557951Y59160199D01*
X89870025Y59958686D01*
X90292730Y60654747D01*
X90818899Y61237974D01*
X91441364Y61697957D01*
X92152957Y62024288D01*
X92640005Y62155797D01*
X92910572Y62216488D01*
X93107206Y62270853D01*
X93176676Y62300432D01*
X93180759Y62399663D01*
X93145166Y62609747D01*
X93097975Y62806337D01*
X92993959Y63324682D01*
X92978234Y63751062D01*
X93050080Y64065427D01*
X93148207Y64204636D01*
X93288440Y64307755D01*
X93415811Y64302972D01*
X93550374Y64235849D01*
X93757738Y64062353D01*
X93889118Y63876231D01*
X94000814Y63643880D01*
X94255447Y63858140D01*
X94465557Y64016970D01*
X94614991Y64056293D01*
X94762434Y63976714D01*
X94881937Y63864582D01*
X95052086Y63582213D01*
X95095465Y63231293D01*
X95012346Y62855224D01*
X94873903Y62592622D01*
X94750576Y62399963D01*
X94685927Y62277032D01*
X94683403Y62256510D01*
X94773050Y62230420D01*
X94979276Y62181344D01*
X95193103Y62133920D01*
X95946464Y61887855D01*
X96621090Y61496722D01*
X97208237Y60969645D01*
X97699161Y60315748D01*
X98085118Y59544155D01*
X98301239Y58890731D01*
X98476901Y58009790D01*
X98519445Y57191338D01*
X98430843Y56447007D01*
X98213068Y55788428D01*
X97868093Y55227231D01*
X97637308Y54976059D01*
X97473252Y54785159D01*
X97382263Y54611451D01*
X97375755Y54570520D01*
X97333745Y54375923D01*
X97229657Y54132103D01*
X97096407Y53901142D01*
X96966910Y53745125D01*
X96923569Y53717622D01*
X96862620Y53652314D01*
X96826491Y53494962D01*
X96811185Y53217437D01*
X96810852Y52924013D01*
X96806347Y52515991D01*
X96776410Y52219573D01*
X96711941Y51977819D01*
X96628666Y51784018D01*
X96338971Y51371594D01*
X95938500Y51071362D01*
X95461927Y50909110D01*
X95449588Y50907085D01*
X95193056Y50836684D01*
X95098588Y50736465D01*
X95168749Y50611297D01*
X95259088Y50545382D01*
X95394479Y50409715D01*
X95419029Y50274923D01*
X95330265Y50193370D01*
X95276022Y50187066D01*
X95084469Y50130817D01*
X95016322Y50081233D01*
X94911884Y50026348D01*
X94806703Y50114193D01*
X94795850Y50128633D01*
X94684763Y50221542D01*
X94627219Y50192133D01*
X94510362Y50109045D01*
X94383563Y50127496D01*
X94327755Y50230229D01*
X94363786Y50319728D01*
X94534456Y50319728D01*
X94548861Y50309933D01*
X94611115Y50354962D01*
X94740775Y50428040D01*
X94827524Y50366648D01*
X94862211Y50310067D01*
X94937077Y50200571D01*
X94974362Y50237014D01*
X94986321Y50288207D01*
X95072375Y50393271D01*
X95158559Y50389280D01*
X95217430Y50391348D01*
X95130255Y50474349D01*
X95110922Y50488967D01*
X94967179Y50640336D01*
X94913737Y50768893D01*
X94899684Y50857263D01*
X94860890Y50780451D01*
X94860628Y50779733D01*
X94774293Y50627497D01*
X94634478Y50443629D01*
X94534456Y50319728D01*
X94363786Y50319728D01*
X94387506Y50378647D01*
X94497088Y50503045D01*
G37*
D12*
%TO.C,MCU1*%
X148318690Y115739254D02*
X148318690Y116419254D01*
X151118690Y113199254D02*
X148318690Y113199254D01*
X148318690Y114519254D02*
X148318690Y115199254D01*
D10*
X163247213Y87529254D02*
X163247213Y120549254D01*
D12*
X151118690Y115739254D02*
X148318690Y115739254D01*
D10*
X145467213Y120549254D02*
X145467213Y87529254D01*
D12*
X148318690Y117069254D02*
X148318690Y117739254D01*
X148318690Y111994254D02*
X148318690Y112659254D01*
D10*
X145467213Y87529254D02*
X163247213Y87529254D01*
D12*
X151118690Y117739254D02*
X151118690Y115739254D01*
X151118690Y110659254D02*
X148318690Y110659254D01*
X148318690Y110659254D02*
X148318690Y111344254D01*
X148318690Y113199254D02*
X148318690Y113869254D01*
X151118690Y112659254D02*
X151118690Y110659254D01*
X148318690Y117739254D02*
X151118690Y117739254D01*
D10*
X163247213Y120549254D02*
X145467213Y120549254D01*
D12*
X148318690Y112659254D02*
X151118690Y112659254D01*
X148318690Y115199254D02*
X151118690Y115199254D01*
X151118690Y115199254D02*
X151118690Y113199254D01*
D13*
%TO.C,REF\u002A\u002A*%
X124441791Y89751754D02*
G75*
G03*
X123407926Y93902299I-20320019J-2857506D01*
G01*
X105250176Y97630117D02*
G75*
G03*
X104121791Y97689254I-1128385J-10735763D01*
G01*
X102911870Y76185331D02*
G75*
G03*
X104040255Y76126195I1128379J10735785D01*
G01*
X97113745Y67608119D02*
G75*
G03*
X101264291Y66574254I7008046J19286135D01*
G01*
X102993406Y76158390D02*
G75*
G03*
X104121791Y76099254I1128379J10735785D01*
G01*
X83801791Y84036754D02*
G75*
G03*
X84835657Y79886207I20319953J2857490D01*
G01*
X104040255Y76126195D02*
G75*
G03*
X105168640Y76185331I6J10794921D01*
G01*
X101264291Y107214254D02*
G75*
G03*
X97113743Y106180388I2857496J-20319983D01*
G01*
X105168640Y97657059D02*
G75*
G03*
X104040255Y97716195I-1128379J-10735785D01*
G01*
X104040255Y97716195D02*
G75*
G03*
X102911870Y97657059I-6J-10794921D01*
G01*
X123407926Y79886208D02*
G75*
G03*
X124441791Y84036754I-19286185J7008058D01*
G01*
X106979291Y66574254D02*
G75*
G03*
X111129838Y67608120I-2857500J20320000D01*
G01*
X84835657Y93902302D02*
G75*
G03*
X83801791Y89751754I19286117J-7008044D01*
G01*
X104121791Y97689254D02*
G75*
G03*
X102993406Y97630118I-6J-10794921D01*
G01*
X104121791Y76099253D02*
G75*
G03*
X105250176Y76158390I0J10794901D01*
G01*
X111129838Y106180388D02*
G75*
G03*
X106979291Y107214254I-7008047J-19286134D01*
G01*
G36*
X104114144Y72736606D02*
G01*
X104112741Y72843235D01*
X104111697Y72965891D01*
X104111033Y73103163D01*
X104110772Y73253637D01*
X104110769Y73265373D01*
X104110682Y73957087D01*
X104618386Y74467113D01*
X104618534Y73973545D01*
X104618726Y73869305D01*
X104619215Y73772560D01*
X104619965Y73685674D01*
X104620941Y73611012D01*
X104622110Y73550937D01*
X104623437Y73507814D01*
X104624886Y73484007D01*
X104625794Y73479977D01*
X104638225Y73486291D01*
X104663071Y73502634D01*
X104687205Y73519836D01*
X104801902Y73590558D01*
X104924118Y73639662D01*
X105054501Y73667338D01*
X105193702Y73673776D01*
X105211514Y73673108D01*
X105301149Y73666556D01*
X105377632Y73654619D01*
X105449284Y73635127D01*
X105524422Y73605910D01*
X105594273Y73573271D01*
X105722206Y73497978D01*
X105835126Y73405998D01*
X105932020Y73299009D01*
X106011878Y73178684D01*
X106073688Y73046699D01*
X106116440Y72904730D01*
X106139121Y72754451D01*
X106142682Y72664781D01*
X106132391Y72512303D01*
X106101035Y72367739D01*
X106047890Y72228503D01*
X105990635Y72121584D01*
X105904923Y72001291D01*
X105803310Y71896442D01*
X105687977Y71808120D01*
X105561102Y71737406D01*
X105424866Y71685383D01*
X105281447Y71653130D01*
X105133026Y71641731D01*
X105032780Y71646214D01*
X104888172Y71671095D01*
X104747604Y71717370D01*
X104614431Y71783349D01*
X104492011Y71867346D01*
X104383699Y71967672D01*
X104375305Y71976838D01*
X104294174Y72080958D01*
X104224482Y72199140D01*
X104169316Y72325003D01*
X104131763Y72452163D01*
X104122894Y72498613D01*
X104120281Y72527008D01*
X104117936Y72577080D01*
X104116467Y72627414D01*
X104612805Y72627414D01*
X104623377Y72529865D01*
X104653809Y72435846D01*
X104682463Y72381701D01*
X104749397Y72293418D01*
X104828878Y72222541D01*
X104918310Y72170048D01*
X105015096Y72136916D01*
X105116637Y72124122D01*
X105220338Y72132643D01*
X105293165Y72151931D01*
X105336162Y72168017D01*
X105377067Y72185377D01*
X105393234Y72193153D01*
X105438520Y72224157D01*
X105487843Y72270351D01*
X105535900Y72325807D01*
X105577385Y72384601D01*
X105598873Y72422928D01*
X105619054Y72467174D01*
X105631699Y72505782D01*
X105639056Y72548074D01*
X105643374Y72603377D01*
X105643656Y72608667D01*
X105640288Y72715912D01*
X105617432Y72813804D01*
X105573780Y72907227D01*
X105556010Y72935756D01*
X105491468Y73013660D01*
X105412651Y73075830D01*
X105323015Y73121326D01*
X105226016Y73149204D01*
X105125112Y73158524D01*
X105023760Y73148342D01*
X104925414Y73117717D01*
X104911411Y73111431D01*
X104823459Y73058482D01*
X104749469Y72990268D01*
X104690426Y72909922D01*
X104647313Y72820575D01*
X104621111Y72725362D01*
X104612805Y72627414D01*
X104116467Y72627414D01*
X104115883Y72647417D01*
X104114144Y72736606D01*
G37*
D14*
X104114144Y72736606D02*
X104112741Y72843235D01*
X104111697Y72965891D01*
X104111033Y73103163D01*
X104110772Y73253637D01*
X104110769Y73265373D01*
X104110682Y73957087D01*
X104618386Y74467113D01*
X104618534Y73973545D01*
X104618726Y73869305D01*
X104619215Y73772560D01*
X104619965Y73685674D01*
X104620941Y73611012D01*
X104622110Y73550937D01*
X104623437Y73507814D01*
X104624886Y73484007D01*
X104625794Y73479977D01*
X104638225Y73486291D01*
X104663071Y73502634D01*
X104687205Y73519836D01*
X104801902Y73590558D01*
X104924118Y73639662D01*
X105054501Y73667338D01*
X105193702Y73673776D01*
X105211514Y73673108D01*
X105301149Y73666556D01*
X105377632Y73654619D01*
X105449284Y73635127D01*
X105524422Y73605910D01*
X105594273Y73573271D01*
X105722206Y73497978D01*
X105835126Y73405998D01*
X105932020Y73299009D01*
X106011878Y73178684D01*
X106073688Y73046699D01*
X106116440Y72904730D01*
X106139121Y72754451D01*
X106142682Y72664781D01*
X106132391Y72512303D01*
X106101035Y72367739D01*
X106047890Y72228503D01*
X105990635Y72121584D01*
X105904923Y72001291D01*
X105803310Y71896442D01*
X105687977Y71808120D01*
X105561102Y71737406D01*
X105424866Y71685383D01*
X105281447Y71653130D01*
X105133026Y71641731D01*
X105032780Y71646214D01*
X104888172Y71671095D01*
X104747604Y71717370D01*
X104614431Y71783349D01*
X104492011Y71867346D01*
X104383699Y71967672D01*
X104375305Y71976838D01*
X104294174Y72080958D01*
X104224482Y72199140D01*
X104169316Y72325003D01*
X104131763Y72452163D01*
X104122894Y72498613D01*
X104120281Y72527008D01*
X104117936Y72577080D01*
X104116467Y72627414D01*
X104612805Y72627414D01*
X104623377Y72529865D01*
X104653809Y72435846D01*
X104682463Y72381701D01*
X104749397Y72293418D01*
X104828878Y72222541D01*
X104918310Y72170048D01*
X105015096Y72136916D01*
X105116637Y72124122D01*
X105220338Y72132643D01*
X105293165Y72151931D01*
X105336162Y72168017D01*
X105377067Y72185377D01*
X105393234Y72193153D01*
X105438520Y72224157D01*
X105487843Y72270351D01*
X105535900Y72325807D01*
X105577385Y72384601D01*
X105598873Y72422928D01*
X105619054Y72467174D01*
X105631699Y72505782D01*
X105639056Y72548074D01*
X105643374Y72603377D01*
X105643656Y72608667D01*
X105640288Y72715912D01*
X105617432Y72813804D01*
X105573780Y72907227D01*
X105556010Y72935756D01*
X105491468Y73013660D01*
X105412651Y73075830D01*
X105323015Y73121326D01*
X105226016Y73149204D01*
X105125112Y73158524D01*
X105023760Y73148342D01*
X104925414Y73117717D01*
X104911411Y73111431D01*
X104823459Y73058482D01*
X104749469Y72990268D01*
X104690426Y72909922D01*
X104647313Y72820575D01*
X104621111Y72725362D01*
X104612805Y72627414D01*
X104116467Y72627414D01*
X104115883Y72647417D01*
X104114144Y72736606D01*
G36*
X102413500Y72839328D02*
G01*
X103216446Y73642028D01*
X103504814Y73638934D01*
X103793182Y73635841D01*
X102945958Y72775704D01*
X102828033Y72655981D01*
X102713234Y72539432D01*
X102602780Y72427292D01*
X102497888Y72320799D01*
X102399776Y72221188D01*
X102309661Y72129695D01*
X102228762Y72047558D01*
X102158295Y71976013D01*
X102099479Y71916295D01*
X102053532Y71869641D01*
X102021671Y71837288D01*
X102007890Y71823292D01*
X101917046Y71731016D01*
X101917046Y74472886D01*
X102413500Y74472886D01*
X102413500Y72839328D01*
G37*
X102413500Y72839328D02*
X103216446Y73642028D01*
X103504814Y73638934D01*
X103793182Y73635841D01*
X102945958Y72775704D01*
X102828033Y72655981D01*
X102713234Y72539432D01*
X102602780Y72427292D01*
X102497888Y72320799D01*
X102399776Y72221188D01*
X102309661Y72129695D01*
X102228762Y72047558D01*
X102158295Y71976013D01*
X102099479Y71916295D01*
X102053532Y71869641D01*
X102021671Y71837288D01*
X102007890Y71823292D01*
X101917046Y71731016D01*
X101917046Y74472886D01*
X102413500Y74472886D01*
X102413500Y72839328D01*
G36*
X103220280Y72432797D02*
G01*
X103242983Y72409934D01*
X103277462Y72374403D01*
X103321731Y72328311D01*
X103373798Y72273765D01*
X103431677Y72212871D01*
X103493376Y72147736D01*
X103556909Y72080466D01*
X103620284Y72013168D01*
X103681514Y71947949D01*
X103738610Y71886914D01*
X103789582Y71832171D01*
X103832442Y71785826D01*
X103865200Y71749986D01*
X103885868Y71726757D01*
X103888161Y71724066D01*
X103916462Y71690431D01*
X103296448Y71690431D01*
X103123098Y71866500D01*
X103069356Y71921243D01*
X103019073Y71972756D01*
X102975257Y72017936D01*
X102940911Y72053682D01*
X102919043Y72076891D01*
X102915866Y72080383D01*
X102881984Y72118198D01*
X103043019Y72279542D01*
X103092732Y72328997D01*
X103136956Y72372322D01*
X103173103Y72407035D01*
X103198585Y72430655D01*
X103210814Y72440703D01*
X103211345Y72440886D01*
X103220280Y72432797D01*
G37*
X103220280Y72432797D02*
X103242983Y72409934D01*
X103277462Y72374403D01*
X103321731Y72328311D01*
X103373798Y72273765D01*
X103431677Y72212871D01*
X103493376Y72147736D01*
X103556909Y72080466D01*
X103620284Y72013168D01*
X103681514Y71947949D01*
X103738610Y71886914D01*
X103789582Y71832171D01*
X103832442Y71785826D01*
X103865200Y71749986D01*
X103885868Y71726757D01*
X103888161Y71724066D01*
X103916462Y71690431D01*
X103296448Y71690431D01*
X103123098Y71866500D01*
X103069356Y71921243D01*
X103019073Y71972756D01*
X102975257Y72017936D01*
X102940911Y72053682D01*
X102919043Y72076891D01*
X102915866Y72080383D01*
X102881984Y72118198D01*
X103043019Y72279542D01*
X103092732Y72328997D01*
X103136956Y72372322D01*
X103173103Y72407035D01*
X103198585Y72430655D01*
X103210814Y72440703D01*
X103211345Y72440886D01*
X103220280Y72432797D01*
%TD*%
D15*
%TO.C,B1*%
X161906791Y85243254D03*
X161906791Y78743254D03*
%TD*%
D16*
%TO.C,PAD1*%
X159239791Y76162254D03*
X159239791Y74162254D03*
X159239791Y72162254D03*
%TD*%
D17*
%TO.C,MCU1*%
X161977213Y88799254D03*
X161977213Y91339254D03*
X161977213Y93879254D03*
X161977213Y96419254D03*
X161977213Y98959254D03*
X161977213Y101499254D03*
X161977213Y104039254D03*
X161977213Y106579254D03*
X161977213Y109119254D03*
X146737213Y88799254D03*
X146737213Y91339254D03*
X146737213Y93879254D03*
X146737213Y96419254D03*
X146737213Y98959254D03*
X146737213Y101499254D03*
X146737213Y104039254D03*
X146737213Y106579254D03*
X146737213Y109119254D03*
X146737213Y114199254D03*
X161977213Y116739254D03*
X146737213Y116823000D03*
X146737213Y111659254D03*
X161977213Y111659254D03*
X161977213Y114199254D03*
%TD*%
%LPC*%
D18*
%TO.C,S23*%
X133513229Y104608987D03*
D19*
X139013229Y104608987D03*
D20*
X133513229Y110558987D03*
X133513229Y110558987D03*
X128513229Y108358987D03*
X138513229Y108358987D03*
D19*
X128013229Y104608987D03*
D21*
X136788229Y110558987D03*
X125238229Y108358987D03*
%TD*%
D19*
%TO.C,S24*%
X128013229Y104608987D03*
X139013229Y104608987D03*
D18*
X133513229Y104608987D03*
D22*
X128513229Y100808987D03*
X138513229Y100808987D03*
X133513229Y98708987D03*
X133513229Y98708987D03*
%TD*%
D23*
%TO.C,B1*%
X161906791Y85243254D03*
X161906791Y78743254D03*
%TD*%
D20*
%TO.C,S11*%
X75659968Y109306337D03*
X70353903Y110604673D03*
X70353903Y110604673D03*
D19*
X65970667Y103790002D03*
D20*
X65811891Y107569855D03*
D18*
X71387110Y104745067D03*
D19*
X76803553Y105700132D03*
D24*
X73579149Y111173371D03*
X62586645Y107001157D03*
%TD*%
D19*
%TO.C,S34*%
X155058825Y43492509D03*
D18*
X149959314Y45552845D03*
D19*
X144859803Y47613181D03*
D22*
X143899890Y43902579D03*
X153171728Y40156513D03*
X147749135Y40082460D03*
X147749135Y40082460D03*
%TD*%
D18*
%TO.C,S15*%
X94221643Y97114167D03*
D19*
X99700714Y97593524D03*
D20*
X98875782Y101285676D03*
X93703066Y103041525D03*
X93703066Y103041525D03*
X88913835Y100414118D03*
D19*
X88742572Y96634810D03*
D25*
X96965604Y103326961D03*
X85651298Y100128683D03*
%TD*%
D21*
%TO.C,S21*%
X107149791Y92462254D03*
X118699791Y94662254D03*
D18*
X115424791Y88712254D03*
D20*
X110424791Y92462254D03*
D19*
X120924791Y88712254D03*
D20*
X120424791Y92462254D03*
X115424791Y94662254D03*
D19*
X109924791Y88712254D03*
D20*
X115424791Y94662254D03*
%TD*%
D19*
%TO.C,S8*%
X71874705Y70306538D03*
X82707591Y72216668D03*
D18*
X77291148Y71261603D03*
D22*
X73026972Y66651093D03*
X82875050Y68387574D03*
X78315672Y65451237D03*
X78315672Y65451237D03*
%TD*%
D26*
%TO.C,T1*%
X158604791Y61602254D03*
X158604791Y60102254D03*
X158604791Y57102254D03*
D27*
X159579791Y63052254D03*
X161779791Y55652254D03*
X161779791Y63052254D03*
X159579791Y55652254D03*
%TD*%
D28*
%TO.C,T2*%
X160679791Y57852254D03*
X160679791Y60852254D03*
%TD*%
D18*
%TO.C,S14*%
X95703291Y80178857D03*
D19*
X101182362Y80658214D03*
X90224220Y79699500D03*
D22*
X91053509Y75957538D03*
X101015456Y76829096D03*
X96217510Y74301308D03*
X96217510Y74301308D03*
%TD*%
D18*
%TO.C,S20*%
X115424791Y71712254D03*
D19*
X109924791Y71712254D03*
X120924791Y71712254D03*
D22*
X120424791Y67912254D03*
X110424791Y67912254D03*
X115424791Y65812254D03*
X115424791Y65812254D03*
%TD*%
%TO.C,S28*%
X133505791Y64711491D03*
X133505791Y64711491D03*
X138505791Y66811491D03*
X128505791Y66811491D03*
D18*
X133505791Y70611491D03*
D19*
X139005791Y70611491D03*
X128005791Y70611491D03*
%TD*%
D21*
%TO.C,S29*%
X125230791Y91361491D03*
X136780791Y93561491D03*
D19*
X128005791Y87611491D03*
D20*
X128505791Y91361491D03*
X138505791Y91361491D03*
D18*
X133505791Y87611491D03*
D19*
X139005791Y87611491D03*
D20*
X133505791Y93561491D03*
X133505791Y93561491D03*
%TD*%
D18*
%TO.C,S33*%
X149959314Y45552845D03*
D20*
X152188223Y51069589D03*
X146728169Y50902817D03*
D19*
X144859803Y47613181D03*
D20*
X152188223Y51069589D03*
X156000008Y47156751D03*
D19*
X155058825Y43492509D03*
D29*
X155224750Y49842752D03*
X143691642Y52129654D03*
%TD*%
D20*
%TO.C,S7*%
X71715929Y74086391D03*
X81564006Y75822873D03*
X76257941Y77121209D03*
D19*
X71874705Y70306538D03*
D20*
X76257941Y77121209D03*
D19*
X82707591Y72216668D03*
D18*
X77291148Y71261603D03*
D24*
X79483187Y77689907D03*
X68490683Y73517693D03*
%TD*%
D30*
%TO.C,PAD1*%
X159239791Y76162254D03*
X159239791Y74162254D03*
X159239791Y72162254D03*
%TD*%
D18*
%TO.C,S5*%
X52842259Y82729963D03*
D19*
X58101935Y84338007D03*
D20*
X51102647Y88419976D03*
X51102647Y88419976D03*
D19*
X47582583Y81121919D03*
D20*
X46964341Y84854247D03*
X56527389Y87777964D03*
D31*
X54234545Y89377494D03*
X43832443Y83896730D03*
%TD*%
D21*
%TO.C,S27*%
X125230791Y74361491D03*
X136780791Y76561491D03*
D19*
X128005791Y70611491D03*
D20*
X133505791Y76561491D03*
X133505791Y76561491D03*
X138505791Y74361491D03*
D18*
X133505791Y70611491D03*
D19*
X139005791Y70611491D03*
D20*
X128505791Y74361491D03*
%TD*%
%TO.C,S9*%
X68763910Y90828123D03*
D18*
X74339129Y88003335D03*
D20*
X73305922Y93862941D03*
X78611987Y92564605D03*
D19*
X68922686Y87048270D03*
D20*
X73305922Y93862941D03*
D19*
X79755572Y88958400D03*
D24*
X76531168Y94431639D03*
X65538664Y90259425D03*
%TD*%
D19*
%TO.C,S16*%
X99700714Y97593524D03*
D18*
X94221643Y97114167D03*
D19*
X88742572Y96634810D03*
D22*
X99533808Y93764406D03*
X89571861Y92892848D03*
X94735862Y91236618D03*
X94735862Y91236618D03*
%TD*%
%TO.C,S30*%
X133505791Y81711491D03*
X133505791Y81711491D03*
X128505791Y83811491D03*
X138505791Y83811491D03*
D18*
X133505791Y87611491D03*
D19*
X128005791Y87611491D03*
X139005791Y87611491D03*
%TD*%
%TO.C,S13*%
X90224220Y79699500D03*
X101182362Y80658214D03*
D18*
X95703291Y80178857D03*
D20*
X95184714Y86106215D03*
X100357430Y84350366D03*
X95184714Y86106215D03*
X90395483Y83478808D03*
D25*
X98447252Y86391651D03*
X87132946Y83193373D03*
%TD*%
D19*
%TO.C,S24*%
X109924791Y105712254D03*
X120924791Y105712254D03*
D18*
X115424791Y105712254D03*
D22*
X110424791Y101912254D03*
X120424791Y101912254D03*
X115424791Y99812254D03*
X115424791Y99812254D03*
%TD*%
D19*
%TO.C,S17*%
X87260925Y113570120D03*
D18*
X92739996Y114049477D03*
D19*
X98219067Y114528834D03*
D20*
X87432188Y117349428D03*
X97394135Y118220986D03*
X92221419Y119976835D03*
X92221419Y119976835D03*
D25*
X95483957Y120262271D03*
X84169651Y117063993D03*
%TD*%
D19*
%TO.C,S4*%
X52552902Y64864738D03*
X63072254Y68080826D03*
D18*
X57812578Y66472782D03*
D22*
X54142067Y61376965D03*
X63705114Y64300682D03*
X59537571Y60830584D03*
X59537571Y60830584D03*
%TD*%
D19*
%TO.C,S10*%
X79755572Y88958400D03*
X68922686Y87048270D03*
D18*
X74339129Y88003335D03*
D22*
X70074953Y83392825D03*
X79923031Y85129306D03*
X75363653Y82192969D03*
X75363653Y82192969D03*
%TD*%
D19*
%TO.C,S22*%
X109924791Y88712254D03*
X120924791Y88712254D03*
D18*
X115424791Y88712254D03*
D22*
X110424791Y84912254D03*
X120424791Y84912254D03*
X115424791Y82812254D03*
X115424791Y82812254D03*
%TD*%
D18*
%TO.C,S31*%
X130533477Y50576709D03*
D19*
X125074473Y51246990D03*
D20*
X131258600Y56482359D03*
X135953218Y53689410D03*
X131258600Y56482359D03*
X126027756Y54908104D03*
D19*
X135992481Y49906428D03*
D32*
X134509188Y56083237D03*
X122777168Y55307226D03*
%TD*%
D33*
%TO.C,MCU1*%
X161977213Y88799254D03*
X161977213Y91339254D03*
X161977213Y93879254D03*
X161977213Y96419254D03*
X161977213Y98959254D03*
X161977213Y101499254D03*
X161977213Y104039254D03*
X161977213Y106579254D03*
X161977213Y109119254D03*
X146737213Y88799254D03*
X146737213Y91339254D03*
X146737213Y93879254D03*
X146737213Y96419254D03*
X146737213Y98959254D03*
X146737213Y101499254D03*
X146737213Y104039254D03*
X146737213Y106579254D03*
X146737213Y109119254D03*
D34*
X150443690Y111659254D03*
X150443690Y114199254D03*
X150443690Y116739254D03*
D33*
X146737213Y114199254D03*
X161977213Y116739254D03*
X146737213Y116823000D03*
D35*
X148068690Y114199254D03*
D36*
X148993690Y111659254D03*
D35*
X148068690Y116739254D03*
D33*
X146737213Y111659254D03*
X161977213Y111659254D03*
D35*
X148068690Y111659254D03*
D36*
X148993690Y116739254D03*
X148993690Y114199254D03*
D33*
X161977213Y114199254D03*
%TD*%
D19*
%TO.C,S3*%
X52552902Y64864738D03*
D20*
X51934660Y68597066D03*
D18*
X57812578Y66472782D03*
D20*
X61497708Y71520783D03*
X56072966Y72162795D03*
X56072966Y72162795D03*
D19*
X63072254Y68080826D03*
D31*
X59204864Y73120313D03*
X48802762Y67639549D03*
%TD*%
D19*
%TO.C,S32*%
X135992481Y49906428D03*
D18*
X130533477Y50576709D03*
D19*
X125074473Y51246990D03*
D22*
X135033104Y46195687D03*
X125107643Y47414380D03*
X129814448Y44720687D03*
X129814448Y44720687D03*
%TD*%
D37*
%TO.C,REF\u002A\u002A*%
X85071791Y86894254D03*
X104121791Y67844254D03*
X104121791Y105944254D03*
%TD*%
D18*
%TO.C,S12*%
X71387110Y104745067D03*
D19*
X65970667Y103790002D03*
X76803553Y105700132D03*
D22*
X76971012Y101871038D03*
X67122934Y100134557D03*
X72411634Y98934701D03*
X72411634Y98934701D03*
%TD*%
D18*
%TO.C,S23*%
X115424791Y105712254D03*
D19*
X120924791Y105712254D03*
D20*
X115424791Y111662254D03*
X115424791Y111662254D03*
X110424791Y109462254D03*
X120424791Y109462254D03*
D19*
X109924791Y105712254D03*
D21*
X118699791Y111662254D03*
X107149791Y109462254D03*
%TD*%
D19*
%TO.C,S6*%
X47582583Y81121919D03*
X58101935Y84338007D03*
D18*
X52842259Y82729963D03*
D22*
X49171748Y77634146D03*
X58734795Y80557863D03*
X54567252Y77087765D03*
X54567252Y77087765D03*
%TD*%
D21*
%TO.C,S19*%
X107149791Y75462254D03*
X118699791Y77662254D03*
D20*
X115424791Y77662254D03*
X120424791Y75462254D03*
D19*
X109924791Y71712254D03*
X120924791Y71712254D03*
D20*
X110424791Y75462254D03*
X115424791Y77662254D03*
D18*
X115424791Y71712254D03*
%TD*%
D19*
%TO.C,S18*%
X98219067Y114528834D03*
D18*
X92739996Y114049477D03*
D19*
X87260925Y113570120D03*
D22*
X88090214Y109828158D03*
X98052161Y110699716D03*
X93254215Y108171928D03*
X93254215Y108171928D03*
%TD*%
M02*
