  0
SECTION
  2
HEADER
  9
$ANGBASE
  50
0.0
  9
$ANGDIR
  70
1
  9
$MEASUREMENT
  70
1
  0
ENDSEC
  0
SECTION
  2
TABLES
  0
TABLE
  2
LTYPE
  70
4
  0
LTYPE
  5
40F
  2
CONTINUOUS
  70
0
  3
Solid line
  72
65
  73
0
  40
0.0
  0
LTYPE
  5
410
  2
DASHDOT
 70
0
  3
Dash Dot ____ _ ____ _
 72
65
 73
4
 40
2.0
 49
1.25
 49
-0.25
 49
0.25
 49
-0.25
  0
LTYPE
  5
411
  2
DASHED
 70
0
  3
Dashed __ __ __ __ __
 72
65
 73
2
 40
0.75
 49
0.5
 49
-0.25
  0
LTYPE
  5
43B
  2
DOTTED
 70
0
  3
Dotted .  .  .  .
 72
65
 73
2
 40
0.2
 49
0.0
 49
-0.2
  0
ENDTAB
  0
TABLE
  2
STYLE
  70
4
  0
STYLE
  2
KICAD
  70
0
  40
0
  41
1
  42
1
  50
0
  71
0
  3
isocp.shx
  0
STYLE
  2
KICADB
  70
0
  40
0
  41
1
  42
1
  50
0
  71
0
  3
isocp.shx
  0
STYLE
  2
KICADI
  70
0
  40
0
  41
1
  42
1
  50
15
  71
0
  3
isocp.shx
  0
STYLE
  2
KICADBI
  70
0
  40
0
  41
1
  42
1
  50
15
  71
0
  3
isocp.shx
  0
ENDTAB
  0
TABLE
  2
LAYER
  70
1
  0
LAYER
  2
BLACK
  70
0
  62
7
  6
CONTINUOUS
  0
ENDTAB
  0
ENDSEC
  0
SECTION
  2
ENTITIES
0
LINE
8
BLACK
6
CONTINUOUS
10
231.6
20
-147.2
11
301.991
21
-147.196
0
ARC
8
BLACK
10
231.6
20
-144.2
40
3
50
-180
51
-90
0
LINE
8
BLACK
6
CONTINUOUS
10
228.6
20
-128.524
11
228.6
21
-144.2
0
ARC
8
BLACK
10
197.8
20
-125.525
40
3
50
-180
51
-90
0
LINE
8
BLACK
6
CONTINUOUS
10
197.803
20
-56.5814
11
301.991
21
-56.5814
0
LINE
8
BLACK
6
CONTINUOUS
10
197.8
20
-128.525
11
228.6
21
-128.524
0
LINE
8
BLACK
6
CONTINUOUS
10
194.8
20
-125.525
11
194.803
21
-59.5814
0
ARC
8
BLACK
10
301.991
20
-144.196
40
2.9999
50
-90.0019
51
0.000630274
0
LINE
8
BLACK
6
CONTINUOUS
10
304.991
20
-144.196
11
304.991
21
-59.5814
0
ARC
8
BLACK
10
301.991
20
-59.5814
40
2.99998
50
-0.000420169
51
90
0
ARC
8
BLACK
10
197.803
20
-59.5814
40
2.99999
50
-270
51
-180
0
LINE
8
BLACK
6
CONTINUOUS
10
199.16
20
-122.96
11
202.16
21
-125.96
0
LINE
8
BLACK
6
CONTINUOUS
10
202.16
20
-122.96
11
199.16
21
-125.96
0
LINE
8
BLACK
6
CONTINUOUS
10
215.416
20
-60.984
11
218.416
21
-63.984
0
LINE
8
BLACK
6
CONTINUOUS
10
218.416
20
-60.984
11
215.416
21
-63.984
0
LINE
8
BLACK
6
CONTINUOUS
10
296.188
20
-60.984
11
299.188
21
-63.984
0
LINE
8
BLACK
6
CONTINUOUS
10
299.188
20
-60.984
11
296.188
21
-63.984
0
LINE
8
BLACK
6
CONTINUOUS
10
296.696
20
-123.214
11
299.696
21
-126.214
0
LINE
8
BLACK
6
CONTINUOUS
10
299.696
20
-123.214
11
296.696
21
-126.214
0
LINE
8
BLACK
6
CONTINUOUS
10
197.301
20
-150.38
11
197.301
21
-148.38
0
LINE
8
BLACK
6
CONTINUOUS
10
197.301
20
-148.38
11
197.777
21
-148.38
0
LINE
8
BLACK
6
CONTINUOUS
10
197.777
20
-148.38
11
198.063
21
-148.475
0
LINE
8
BLACK
6
CONTINUOUS
10
198.063
20
-148.475
11
198.254
21
-148.665
0
LINE
8
BLACK
6
CONTINUOUS
10
198.254
20
-148.665
11
198.349
21
-148.856
0
LINE
8
BLACK
6
CONTINUOUS
10
198.349
20
-148.856
11
198.444
21
-149.237
0
LINE
8
BLACK
6
CONTINUOUS
10
198.444
20
-149.237
11
198.444
21
-149.523
0
LINE
8
BLACK
6
CONTINUOUS
10
198.444
20
-149.523
11
198.349
21
-149.904
0
LINE
8
BLACK
6
CONTINUOUS
10
198.349
20
-149.904
11
198.254
21
-150.094
0
LINE
8
BLACK
6
CONTINUOUS
10
198.254
20
-150.094
11
198.063
21
-150.285
0
LINE
8
BLACK
6
CONTINUOUS
10
198.063
20
-150.285
11
197.777
21
-150.38
0
LINE
8
BLACK
6
CONTINUOUS
10
197.777
20
-150.38
11
197.301
21
-150.38
0
LINE
8
BLACK
6
CONTINUOUS
10
199.301
20
-150.38
11
199.301
21
-149.046
0
LINE
8
BLACK
6
CONTINUOUS
10
199.301
20
-149.427
11
199.396
21
-149.237
0
LINE
8
BLACK
6
CONTINUOUS
10
199.396
20
-149.237
11
199.492
21
-149.142
0
LINE
8
BLACK
6
CONTINUOUS
10
199.492
20
-149.142
11
199.682
21
-149.046
0
LINE
8
BLACK
6
CONTINUOUS
10
199.682
20
-149.046
11
199.873
21
-149.046
0
LINE
8
BLACK
6
CONTINUOUS
10
200.539
20
-150.38
11
200.539
21
-149.046
0
LINE
8
BLACK
6
CONTINUOUS
10
200.539
20
-148.38
11
200.444
21
-148.475
0
LINE
8
BLACK
6
CONTINUOUS
10
200.444
20
-148.475
11
200.539
21
-148.57
0
LINE
8
BLACK
6
CONTINUOUS
10
200.539
20
-148.57
11
200.635
21
-148.475
0
LINE
8
BLACK
6
CONTINUOUS
10
200.635
20
-148.475
11
200.539
21
-148.38
0
LINE
8
BLACK
6
CONTINUOUS
10
200.539
20
-148.38
11
200.539
21
-148.57
0
LINE
8
BLACK
6
CONTINUOUS
10
201.777
20
-150.38
11
201.587
21
-150.285
0
LINE
8
BLACK
6
CONTINUOUS
10
201.587
20
-150.285
11
201.492
21
-150.094
0
LINE
8
BLACK
6
CONTINUOUS
10
201.492
20
-150.094
11
201.492
21
-148.38
0
LINE
8
BLACK
6
CONTINUOUS
10
202.825
20
-150.38
11
202.635
21
-150.285
0
LINE
8
BLACK
6
CONTINUOUS
10
202.635
20
-150.285
11
202.539
21
-150.094
0
LINE
8
BLACK
6
CONTINUOUS
10
202.539
20
-150.094
11
202.539
21
-148.38
0
LINE
8
BLACK
6
CONTINUOUS
10
205.111
20
-150.38
11
205.111
21
-148.38
0
LINE
8
BLACK
6
CONTINUOUS
10
205.111
20
-148.38
11
205.777
21
-149.808
0
LINE
8
BLACK
6
CONTINUOUS
10
205.777
20
-149.808
11
206.444
21
-148.38
0
LINE
8
BLACK
6
CONTINUOUS
10
206.444
20
-148.38
11
206.444
21
-150.38
0
LINE
8
BLACK
6
CONTINUOUS
10
208.254
20
-150.38
11
208.254
21
-149.332
0
LINE
8
BLACK
6
CONTINUOUS
10
208.254
20
-149.332
11
208.158
21
-149.142
0
LINE
8
BLACK
6
CONTINUOUS
10
208.158
20
-149.142
11
207.968
21
-149.046
0
LINE
8
BLACK
6
CONTINUOUS
10
207.968
20
-149.046
11
207.587
21
-149.046
0
LINE
8
BLACK
6
CONTINUOUS
10
207.587
20
-149.046
11
207.396
21
-149.142
0
LINE
8
BLACK
6
CONTINUOUS
10
208.254
20
-150.285
11
208.063
21
-150.38
0
LINE
8
BLACK
6
CONTINUOUS
10
208.063
20
-150.38
11
207.587
21
-150.38
0
LINE
8
BLACK
6
CONTINUOUS
10
207.587
20
-150.38
11
207.396
21
-150.285
0
LINE
8
BLACK
6
CONTINUOUS
10
207.396
20
-150.285
11
207.301
21
-150.094
0
LINE
8
BLACK
6
CONTINUOUS
10
207.301
20
-150.094
11
207.301
21
-149.904
0
LINE
8
BLACK
6
CONTINUOUS
10
207.301
20
-149.904
11
207.396
21
-149.713
0
LINE
8
BLACK
6
CONTINUOUS
10
207.396
20
-149.713
11
207.587
21
-149.618
0
LINE
8
BLACK
6
CONTINUOUS
10
207.587
20
-149.618
11
208.063
21
-149.618
0
LINE
8
BLACK
6
CONTINUOUS
10
208.063
20
-149.618
11
208.254
21
-149.523
0
LINE
8
BLACK
6
CONTINUOUS
10
209.206
20
-149.046
11
209.206
21
-151.046
0
LINE
8
BLACK
6
CONTINUOUS
10
209.206
20
-149.142
11
209.396
21
-149.046
0
LINE
8
BLACK
6
CONTINUOUS
10
209.396
20
-149.046
11
209.777
21
-149.046
0
LINE
8
BLACK
6
CONTINUOUS
10
209.777
20
-149.046
11
209.968
21
-149.142
0
LINE
8
BLACK
6
CONTINUOUS
10
209.968
20
-149.142
11
210.063
21
-149.237
0
LINE
8
BLACK
6
CONTINUOUS
10
210.063
20
-149.237
11
210.158
21
-149.427
0
LINE
8
BLACK
6
CONTINUOUS
10
210.158
20
-149.427
11
210.158
21
-149.999
0
LINE
8
BLACK
6
CONTINUOUS
10
210.158
20
-149.999
11
210.063
21
-150.189
0
LINE
8
BLACK
6
CONTINUOUS
10
210.063
20
-150.189
11
209.968
21
-150.285
0
LINE
8
BLACK
6
CONTINUOUS
10
209.968
20
-150.285
11
209.777
21
-150.38
0
LINE
8
BLACK
6
CONTINUOUS
10
209.777
20
-150.38
11
209.396
21
-150.38
0
LINE
8
BLACK
6
CONTINUOUS
10
209.396
20
-150.38
11
209.206
21
-150.285
0
LINE
8
BLACK
6
CONTINUOUS
10
211.015
20
-150.189
11
211.111
21
-150.285
0
LINE
8
BLACK
6
CONTINUOUS
10
211.111
20
-150.285
11
211.015
21
-150.38
0
LINE
8
BLACK
6
CONTINUOUS
10
211.015
20
-150.38
11
210.92
21
-150.285
0
LINE
8
BLACK
6
CONTINUOUS
10
210.92
20
-150.285
11
211.015
21
-150.189
0
LINE
8
BLACK
6
CONTINUOUS
10
211.015
20
-150.189
11
211.015
21
-150.38
0
LINE
8
BLACK
6
CONTINUOUS
10
211.015
20
-149.142
11
211.111
21
-149.237
0
LINE
8
BLACK
6
CONTINUOUS
10
211.111
20
-149.237
11
211.015
21
-149.332
0
LINE
8
BLACK
6
CONTINUOUS
10
211.015
20
-149.332
11
210.92
21
-149.237
0
LINE
8
BLACK
6
CONTINUOUS
10
210.92
20
-149.237
11
211.015
21
-149.142
0
LINE
8
BLACK
6
CONTINUOUS
10
211.015
20
-149.142
11
211.015
21
-149.332
0
LINE
8
BLACK
6
CONTINUOUS
10
192.725
20
-152.675
11
194.725
21
-154.675
0
LINE
8
BLACK
6
CONTINUOUS
10
194.725
20
-152.675
11
192.725
21
-154.675
0
LINE
8
BLACK
6
CONTINUOUS
10
197.111
20
-152.58
11
198.349
21
-152.58
0
LINE
8
BLACK
6
CONTINUOUS
10
198.349
20
-152.58
11
197.682
21
-153.342
0
LINE
8
BLACK
6
CONTINUOUS
10
197.682
20
-153.342
11
197.968
21
-153.342
0
LINE
8
BLACK
6
CONTINUOUS
10
197.968
20
-153.342
11
198.158
21
-153.437
0
LINE
8
BLACK
6
CONTINUOUS
10
198.158
20
-153.437
11
198.254
21
-153.532
0
LINE
8
BLACK
6
CONTINUOUS
10
198.254
20
-153.532
11
198.349
21
-153.723
0
LINE
8
BLACK
6
CONTINUOUS
10
198.349
20
-153.723
11
198.349
21
-154.199
0
LINE
8
BLACK
6
CONTINUOUS
10
198.349
20
-154.199
11
198.254
21
-154.389
0
LINE
8
BLACK
6
CONTINUOUS
10
198.254
20
-154.389
11
198.158
21
-154.485
0
LINE
8
BLACK
6
CONTINUOUS
10
198.158
20
-154.485
11
197.968
21
-154.58
0
LINE
8
BLACK
6
CONTINUOUS
10
197.968
20
-154.58
11
197.396
21
-154.58
0
LINE
8
BLACK
6
CONTINUOUS
10
197.396
20
-154.58
11
197.206
21
-154.485
0
LINE
8
BLACK
6
CONTINUOUS
10
197.206
20
-154.485
11
197.111
21
-154.389
0
LINE
8
BLACK
6
CONTINUOUS
10
199.206
20
-154.389
11
199.301
21
-154.485
0
LINE
8
BLACK
6
CONTINUOUS
10
199.301
20
-154.485
11
199.206
21
-154.58
0
LINE
8
BLACK
6
CONTINUOUS
10
199.206
20
-154.58
11
199.111
21
-154.485
0
LINE
8
BLACK
6
CONTINUOUS
10
199.111
20
-154.485
11
199.206
21
-154.389
0
LINE
8
BLACK
6
CONTINUOUS
10
199.206
20
-154.389
11
199.206
21
-154.58
0
LINE
8
BLACK
6
CONTINUOUS
10
200.539
20
-152.58
11
200.73
21
-152.58
0
LINE
8
BLACK
6
CONTINUOUS
10
200.73
20
-152.58
11
200.92
21
-152.675
0
LINE
8
BLACK
6
CONTINUOUS
10
200.92
20
-152.675
11
201.015
21
-152.77
0
LINE
8
BLACK
6
CONTINUOUS
10
201.015
20
-152.77
11
201.111
21
-152.961
0
LINE
8
BLACK
6
CONTINUOUS
10
201.111
20
-152.961
11
201.206
21
-153.342
0
LINE
8
BLACK
6
CONTINUOUS
10
201.206
20
-153.342
11
201.206
21
-153.818
0
LINE
8
BLACK
6
CONTINUOUS
10
201.206
20
-153.818
11
201.111
21
-154.199
0
LINE
8
BLACK
6
CONTINUOUS
10
201.111
20
-154.199
11
201.015
21
-154.389
0
LINE
8
BLACK
6
CONTINUOUS
10
201.015
20
-154.389
11
200.92
21
-154.485
0
LINE
8
BLACK
6
CONTINUOUS
10
200.92
20
-154.485
11
200.73
21
-154.58
0
LINE
8
BLACK
6
CONTINUOUS
10
200.73
20
-154.58
11
200.539
21
-154.58
0
LINE
8
BLACK
6
CONTINUOUS
10
200.539
20
-154.58
11
200.349
21
-154.485
0
LINE
8
BLACK
6
CONTINUOUS
10
200.349
20
-154.485
11
200.254
21
-154.389
0
LINE
8
BLACK
6
CONTINUOUS
10
200.254
20
-154.389
11
200.158
21
-154.199
0
LINE
8
BLACK
6
CONTINUOUS
10
200.158
20
-154.199
11
200.063
21
-153.818
0
LINE
8
BLACK
6
CONTINUOUS
10
200.063
20
-153.818
11
200.063
21
-153.342
0
LINE
8
BLACK
6
CONTINUOUS
10
200.063
20
-153.342
11
200.158
21
-152.961
0
LINE
8
BLACK
6
CONTINUOUS
10
200.158
20
-152.961
11
200.254
21
-152.77
0
LINE
8
BLACK
6
CONTINUOUS
10
200.254
20
-152.77
11
200.349
21
-152.675
0
LINE
8
BLACK
6
CONTINUOUS
10
200.349
20
-152.675
11
200.539
21
-152.58
0
LINE
8
BLACK
6
CONTINUOUS
10
202.444
20
-152.58
11
202.635
21
-152.58
0
LINE
8
BLACK
6
CONTINUOUS
10
202.635
20
-152.58
11
202.825
21
-152.675
0
LINE
8
BLACK
6
CONTINUOUS
10
202.825
20
-152.675
11
202.92
21
-152.77
0
LINE
8
BLACK
6
CONTINUOUS
10
202.92
20
-152.77
11
203.015
21
-152.961
0
LINE
8
BLACK
6
CONTINUOUS
10
203.015
20
-152.961
11
203.111
21
-153.342
0
LINE
8
BLACK
6
CONTINUOUS
10
203.111
20
-153.342
11
203.111
21
-153.818
0
LINE
8
BLACK
6
CONTINUOUS
10
203.111
20
-153.818
11
203.015
21
-154.199
0
LINE
8
BLACK
6
CONTINUOUS
10
203.015
20
-154.199
11
202.92
21
-154.389
0
LINE
8
BLACK
6
CONTINUOUS
10
202.92
20
-154.389
11
202.825
21
-154.485
0
LINE
8
BLACK
6
CONTINUOUS
10
202.825
20
-154.485
11
202.635
21
-154.58
0
LINE
8
BLACK
6
CONTINUOUS
10
202.635
20
-154.58
11
202.444
21
-154.58
0
LINE
8
BLACK
6
CONTINUOUS
10
202.444
20
-154.58
11
202.254
21
-154.485
0
LINE
8
BLACK
6
CONTINUOUS
10
202.254
20
-154.485
11
202.158
21
-154.389
0
LINE
8
BLACK
6
CONTINUOUS
10
202.158
20
-154.389
11
202.063
21
-154.199
0
LINE
8
BLACK
6
CONTINUOUS
10
202.063
20
-154.199
11
201.968
21
-153.818
0
LINE
8
BLACK
6
CONTINUOUS
10
201.968
20
-153.818
11
201.968
21
-153.342
0
LINE
8
BLACK
6
CONTINUOUS
10
201.968
20
-153.342
11
202.063
21
-152.961
0
LINE
8
BLACK
6
CONTINUOUS
10
202.063
20
-152.961
11
202.158
21
-152.77
0
LINE
8
BLACK
6
CONTINUOUS
10
202.158
20
-152.77
11
202.254
21
-152.675
0
LINE
8
BLACK
6
CONTINUOUS
10
202.254
20
-152.675
11
202.444
21
-152.58
0
LINE
8
BLACK
6
CONTINUOUS
10
204.349
20
-152.58
11
204.539
21
-152.58
0
LINE
8
BLACK
6
CONTINUOUS
10
204.539
20
-152.58
11
204.73
21
-152.675
0
LINE
8
BLACK
6
CONTINUOUS
10
204.73
20
-152.675
11
204.825
21
-152.77
0
LINE
8
BLACK
6
CONTINUOUS
10
204.825
20
-152.77
11
204.92
21
-152.961
0
LINE
8
BLACK
6
CONTINUOUS
10
204.92
20
-152.961
11
205.015
21
-153.342
0
LINE
8
BLACK
6
CONTINUOUS
10
205.015
20
-153.342
11
205.015
21
-153.818
0
LINE
8
BLACK
6
CONTINUOUS
10
205.015
20
-153.818
11
204.92
21
-154.199
0
LINE
8
BLACK
6
CONTINUOUS
10
204.92
20
-154.199
11
204.825
21
-154.389
0
LINE
8
BLACK
6
CONTINUOUS
10
204.825
20
-154.389
11
204.73
21
-154.485
0
LINE
8
BLACK
6
CONTINUOUS
10
204.73
20
-154.485
11
204.539
21
-154.58
0
LINE
8
BLACK
6
CONTINUOUS
10
204.539
20
-154.58
11
204.349
21
-154.58
0
LINE
8
BLACK
6
CONTINUOUS
10
204.349
20
-154.58
11
204.158
21
-154.485
0
LINE
8
BLACK
6
CONTINUOUS
10
204.158
20
-154.485
11
204.063
21
-154.389
0
LINE
8
BLACK
6
CONTINUOUS
10
204.063
20
-154.389
11
203.968
21
-154.199
0
LINE
8
BLACK
6
CONTINUOUS
10
203.968
20
-154.199
11
203.873
21
-153.818
0
LINE
8
BLACK
6
CONTINUOUS
10
203.873
20
-153.818
11
203.873
21
-153.342
0
LINE
8
BLACK
6
CONTINUOUS
10
203.873
20
-153.342
11
203.968
21
-152.961
0
LINE
8
BLACK
6
CONTINUOUS
10
203.968
20
-152.961
11
204.063
21
-152.77
0
LINE
8
BLACK
6
CONTINUOUS
10
204.063
20
-152.77
11
204.158
21
-152.675
0
LINE
8
BLACK
6
CONTINUOUS
10
204.158
20
-152.675
11
204.349
21
-152.58
0
LINE
8
BLACK
6
CONTINUOUS
10
205.873
20
-154.58
11
205.873
21
-153.246
0
LINE
8
BLACK
6
CONTINUOUS
10
205.873
20
-153.437
11
205.968
21
-153.342
0
LINE
8
BLACK
6
CONTINUOUS
10
205.968
20
-153.342
11
206.158
21
-153.246
0
LINE
8
BLACK
6
CONTINUOUS
10
206.158
20
-153.246
11
206.444
21
-153.246
0
LINE
8
BLACK
6
CONTINUOUS
10
206.444
20
-153.246
11
206.635
21
-153.342
0
LINE
8
BLACK
6
CONTINUOUS
10
206.635
20
-153.342
11
206.73
21
-153.532
0
LINE
8
BLACK
6
CONTINUOUS
10
206.73
20
-153.532
11
206.73
21
-154.58
0
LINE
8
BLACK
6
CONTINUOUS
10
206.73
20
-153.532
11
206.825
21
-153.342
0
LINE
8
BLACK
6
CONTINUOUS
10
206.825
20
-153.342
11
207.015
21
-153.246
0
LINE
8
BLACK
6
CONTINUOUS
10
207.015
20
-153.246
11
207.301
21
-153.246
0
LINE
8
BLACK
6
CONTINUOUS
10
207.301
20
-153.246
11
207.492
21
-153.342
0
LINE
8
BLACK
6
CONTINUOUS
10
207.492
20
-153.342
11
207.587
21
-153.532
0
LINE
8
BLACK
6
CONTINUOUS
10
207.587
20
-153.532
11
207.587
21
-154.58
0
LINE
8
BLACK
6
CONTINUOUS
10
208.539
20
-154.58
11
208.539
21
-153.246
0
LINE
8
BLACK
6
CONTINUOUS
10
208.539
20
-153.437
11
208.635
21
-153.342
0
LINE
8
BLACK
6
CONTINUOUS
10
208.635
20
-153.342
11
208.825
21
-153.246
0
LINE
8
BLACK
6
CONTINUOUS
10
208.825
20
-153.246
11
209.111
21
-153.246
0
LINE
8
BLACK
6
CONTINUOUS
10
209.111
20
-153.246
11
209.301
21
-153.342
0
LINE
8
BLACK
6
CONTINUOUS
10
209.301
20
-153.342
11
209.396
21
-153.532
0
LINE
8
BLACK
6
CONTINUOUS
10
209.396
20
-153.532
11
209.396
21
-154.58
0
LINE
8
BLACK
6
CONTINUOUS
10
209.396
20
-153.532
11
209.492
21
-153.342
0
LINE
8
BLACK
6
CONTINUOUS
10
209.492
20
-153.342
11
209.682
21
-153.246
0
LINE
8
BLACK
6
CONTINUOUS
10
209.682
20
-153.246
11
209.968
21
-153.246
0
LINE
8
BLACK
6
CONTINUOUS
10
209.968
20
-153.246
11
210.158
21
-153.342
0
LINE
8
BLACK
6
CONTINUOUS
10
210.158
20
-153.342
11
210.254
21
-153.532
0
LINE
8
BLACK
6
CONTINUOUS
10
210.254
20
-153.532
11
210.254
21
-154.58
0
LINE
8
BLACK
6
CONTINUOUS
10
214.158
20
-152.485
11
212.444
21
-155.056
0
LINE
8
BLACK
6
CONTINUOUS
10
216.73
20
-152.58
11
216.92
21
-152.58
0
LINE
8
BLACK
6
CONTINUOUS
10
216.92
20
-152.58
11
217.111
21
-152.675
0
LINE
8
BLACK
6
CONTINUOUS
10
217.111
20
-152.675
11
217.206
21
-152.77
0
LINE
8
BLACK
6
CONTINUOUS
10
217.206
20
-152.77
11
217.301
21
-152.961
0
LINE
8
BLACK
6
CONTINUOUS
10
217.301
20
-152.961
11
217.396
21
-153.342
0
LINE
8
BLACK
6
CONTINUOUS
10
217.396
20
-153.342
11
217.396
21
-153.818
0
LINE
8
BLACK
6
CONTINUOUS
10
217.396
20
-153.818
11
217.301
21
-154.199
0
LINE
8
BLACK
6
CONTINUOUS
10
217.301
20
-154.199
11
217.206
21
-154.389
0
LINE
8
BLACK
6
CONTINUOUS
10
217.206
20
-154.389
11
217.111
21
-154.485
0
LINE
8
BLACK
6
CONTINUOUS
10
217.111
20
-154.485
11
216.92
21
-154.58
0
LINE
8
BLACK
6
CONTINUOUS
10
216.92
20
-154.58
11
216.73
21
-154.58
0
LINE
8
BLACK
6
CONTINUOUS
10
216.73
20
-154.58
11
216.539
21
-154.485
0
LINE
8
BLACK
6
CONTINUOUS
10
216.539
20
-154.485
11
216.444
21
-154.389
0
LINE
8
BLACK
6
CONTINUOUS
10
216.444
20
-154.389
11
216.349
21
-154.199
0
LINE
8
BLACK
6
CONTINUOUS
10
216.349
20
-154.199
11
216.254
21
-153.818
0
LINE
8
BLACK
6
CONTINUOUS
10
216.254
20
-153.818
11
216.254
21
-153.342
0
LINE
8
BLACK
6
CONTINUOUS
10
216.254
20
-153.342
11
216.349
21
-152.961
0
LINE
8
BLACK
6
CONTINUOUS
10
216.349
20
-152.961
11
216.444
21
-152.77
0
LINE
8
BLACK
6
CONTINUOUS
10
216.444
20
-152.77
11
216.539
21
-152.675
0
LINE
8
BLACK
6
CONTINUOUS
10
216.539
20
-152.675
11
216.73
21
-152.58
0
LINE
8
BLACK
6
CONTINUOUS
10
218.254
20
-154.389
11
218.349
21
-154.485
0
LINE
8
BLACK
6
CONTINUOUS
10
218.349
20
-154.485
11
218.254
21
-154.58
0
LINE
8
BLACK
6
CONTINUOUS
10
218.254
20
-154.58
11
218.158
21
-154.485
0
LINE
8
BLACK
6
CONTINUOUS
10
218.158
20
-154.485
11
218.254
21
-154.389
0
LINE
8
BLACK
6
CONTINUOUS
10
218.254
20
-154.389
11
218.254
21
-154.58
0
LINE
8
BLACK
6
CONTINUOUS
10
220.254
20
-154.58
11
219.111
21
-154.58
0
LINE
8
BLACK
6
CONTINUOUS
10
219.682
20
-154.58
11
219.682
21
-152.58
0
LINE
8
BLACK
6
CONTINUOUS
10
219.682
20
-152.58
11
219.492
21
-152.865
0
LINE
8
BLACK
6
CONTINUOUS
10
219.492
20
-152.865
11
219.301
21
-153.056
0
LINE
8
BLACK
6
CONTINUOUS
10
219.301
20
-153.056
11
219.111
21
-153.151
0
LINE
8
BLACK
6
CONTINUOUS
10
222.158
20
-154.58
11
221.015
21
-154.58
0
LINE
8
BLACK
6
CONTINUOUS
10
221.587
20
-154.58
11
221.587
21
-152.58
0
LINE
8
BLACK
6
CONTINUOUS
10
221.587
20
-152.58
11
221.396
21
-152.865
0
LINE
8
BLACK
6
CONTINUOUS
10
221.396
20
-152.865
11
221.206
21
-153.056
0
LINE
8
BLACK
6
CONTINUOUS
10
221.206
20
-153.056
11
221.015
21
-153.151
0
LINE
8
BLACK
6
CONTINUOUS
10
223.301
20
-153.437
11
223.111
21
-153.342
0
LINE
8
BLACK
6
CONTINUOUS
10
223.111
20
-153.342
11
223.015
21
-153.246
0
LINE
8
BLACK
6
CONTINUOUS
10
223.015
20
-153.246
11
222.92
21
-153.056
0
LINE
8
BLACK
6
CONTINUOUS
10
222.92
20
-153.056
11
222.92
21
-152.961
0
LINE
8
BLACK
6
CONTINUOUS
10
222.92
20
-152.961
11
223.015
21
-152.77
0
LINE
8
BLACK
6
CONTINUOUS
10
223.015
20
-152.77
11
223.111
21
-152.675
0
LINE
8
BLACK
6
CONTINUOUS
10
223.111
20
-152.675
11
223.301
21
-152.58
0
LINE
8
BLACK
6
CONTINUOUS
10
223.301
20
-152.58
11
223.682
21
-152.58
0
LINE
8
BLACK
6
CONTINUOUS
10
223.682
20
-152.58
11
223.873
21
-152.675
0
LINE
8
BLACK
6
CONTINUOUS
10
223.873
20
-152.675
11
223.968
21
-152.77
0
LINE
8
BLACK
6
CONTINUOUS
10
223.968
20
-152.77
11
224.063
21
-152.961
0
LINE
8
BLACK
6
CONTINUOUS
10
224.063
20
-152.961
11
224.063
21
-153.056
0
LINE
8
BLACK
6
CONTINUOUS
10
224.063
20
-153.056
11
223.968
21
-153.246
0
LINE
8
BLACK
6
CONTINUOUS
10
223.968
20
-153.246
11
223.873
21
-153.342
0
LINE
8
BLACK
6
CONTINUOUS
10
223.873
20
-153.342
11
223.682
21
-153.437
0
LINE
8
BLACK
6
CONTINUOUS
10
223.682
20
-153.437
11
223.301
21
-153.437
0
LINE
8
BLACK
6
CONTINUOUS
10
223.301
20
-153.437
11
223.111
21
-153.532
0
LINE
8
BLACK
6
CONTINUOUS
10
223.111
20
-153.532
11
223.015
21
-153.627
0
LINE
8
BLACK
6
CONTINUOUS
10
223.015
20
-153.627
11
222.92
21
-153.818
0
LINE
8
BLACK
6
CONTINUOUS
10
222.92
20
-153.818
11
222.92
21
-154.199
0
LINE
8
BLACK
6
CONTINUOUS
10
222.92
20
-154.199
11
223.015
21
-154.389
0
LINE
8
BLACK
6
CONTINUOUS
10
223.015
20
-154.389
11
223.111
21
-154.485
0
LINE
8
BLACK
6
CONTINUOUS
10
223.111
20
-154.485
11
223.301
21
-154.58
0
LINE
8
BLACK
6
CONTINUOUS
10
223.301
20
-154.58
11
223.682
21
-154.58
0
LINE
8
BLACK
6
CONTINUOUS
10
223.682
20
-154.58
11
223.873
21
-154.485
0
LINE
8
BLACK
6
CONTINUOUS
10
223.873
20
-154.485
11
223.968
21
-154.389
0
LINE
8
BLACK
6
CONTINUOUS
10
223.968
20
-154.389
11
224.063
21
-154.199
0
LINE
8
BLACK
6
CONTINUOUS
10
224.063
20
-154.199
11
224.063
21
-153.818
0
LINE
8
BLACK
6
CONTINUOUS
10
224.063
20
-153.818
11
223.968
21
-153.627
0
LINE
8
BLACK
6
CONTINUOUS
10
223.968
20
-153.627
11
223.873
21
-153.532
0
LINE
8
BLACK
6
CONTINUOUS
10
223.873
20
-153.532
11
223.682
21
-153.437
0
LINE
8
BLACK
6
CONTINUOUS
10
225.968
20
-154.58
11
224.825
21
-154.58
0
LINE
8
BLACK
6
CONTINUOUS
10
225.396
20
-154.58
11
225.396
21
-152.58
0
LINE
8
BLACK
6
CONTINUOUS
10
225.396
20
-152.58
11
225.206
21
-152.865
0
LINE
8
BLACK
6
CONTINUOUS
10
225.206
20
-152.865
11
225.015
21
-153.056
0
LINE
8
BLACK
6
CONTINUOUS
10
225.015
20
-153.056
11
224.825
21
-153.151
0
LINE
8
BLACK
6
CONTINUOUS
10
226.73
20
-152.58
11
226.73
21
-152.961
0
LINE
8
BLACK
6
CONTINUOUS
10
227.492
20
-152.58
11
227.492
21
-152.961
0
LINE
8
BLACK
6
CONTINUOUS
10
230.444
20
-155.342
11
230.349
21
-155.246
0
LINE
8
BLACK
6
CONTINUOUS
10
230.349
20
-155.246
11
230.158
21
-154.961
0
LINE
8
BLACK
6
CONTINUOUS
10
230.158
20
-154.961
11
230.063
21
-154.77
0
LINE
8
BLACK
6
CONTINUOUS
10
230.063
20
-154.77
11
229.968
21
-154.485
0
LINE
8
BLACK
6
CONTINUOUS
10
229.968
20
-154.485
11
229.873
21
-154.008
0
LINE
8
BLACK
6
CONTINUOUS
10
229.873
20
-154.008
11
229.873
21
-153.627
0
LINE
8
BLACK
6
CONTINUOUS
10
229.873
20
-153.627
11
229.968
21
-153.151
0
LINE
8
BLACK
6
CONTINUOUS
10
229.968
20
-153.151
11
230.063
21
-152.865
0
LINE
8
BLACK
6
CONTINUOUS
10
230.063
20
-152.865
11
230.158
21
-152.675
0
LINE
8
BLACK
6
CONTINUOUS
10
230.158
20
-152.675
11
230.349
21
-152.389
0
LINE
8
BLACK
6
CONTINUOUS
10
230.349
20
-152.389
11
230.444
21
-152.294
0
LINE
8
BLACK
6
CONTINUOUS
10
232.063
20
-153.246
11
232.063
21
-154.58
0
LINE
8
BLACK
6
CONTINUOUS
10
231.587
20
-152.485
11
231.111
21
-153.913
0
LINE
8
BLACK
6
CONTINUOUS
10
231.111
20
-153.913
11
232.349
21
-153.913
0
LINE
8
BLACK
6
CONTINUOUS
10
234.635
20
-154.58
11
234.635
21
-152.58
0
LINE
8
BLACK
6
CONTINUOUS
10
235.492
20
-154.58
11
235.492
21
-153.532
0
LINE
8
BLACK
6
CONTINUOUS
10
235.492
20
-153.532
11
235.396
21
-153.342
0
LINE
8
BLACK
6
CONTINUOUS
10
235.396
20
-153.342
11
235.206
21
-153.246
0
LINE
8
BLACK
6
CONTINUOUS
10
235.206
20
-153.246
11
234.92
21
-153.246
0
LINE
8
BLACK
6
CONTINUOUS
10
234.92
20
-153.246
11
234.73
21
-153.342
0
LINE
8
BLACK
6
CONTINUOUS
10
234.73
20
-153.342
11
234.635
21
-153.437
0
LINE
8
BLACK
6
CONTINUOUS
10
236.73
20
-154.58
11
236.539
21
-154.485
0
LINE
8
BLACK
6
CONTINUOUS
10
236.539
20
-154.485
11
236.444
21
-154.389
0
LINE
8
BLACK
6
CONTINUOUS
10
236.444
20
-154.389
11
236.349
21
-154.199
0
LINE
8
BLACK
6
CONTINUOUS
10
236.349
20
-154.199
11
236.349
21
-153.627
0
LINE
8
BLACK
6
CONTINUOUS
10
236.349
20
-153.627
11
236.444
21
-153.437
0
LINE
8
BLACK
6
CONTINUOUS
10
236.444
20
-153.437
11
236.539
21
-153.342
0
LINE
8
BLACK
6
CONTINUOUS
10
236.539
20
-153.342
11
236.73
21
-153.246
0
LINE
8
BLACK
6
CONTINUOUS
10
236.73
20
-153.246
11
237.015
21
-153.246
0
LINE
8
BLACK
6
CONTINUOUS
10
237.015
20
-153.246
11
237.206
21
-153.342
0
LINE
8
BLACK
6
CONTINUOUS
10
237.206
20
-153.342
11
237.301
21
-153.437
0
LINE
8
BLACK
6
CONTINUOUS
10
237.301
20
-153.437
11
237.396
21
-153.627
0
LINE
8
BLACK
6
CONTINUOUS
10
237.396
20
-153.627
11
237.396
21
-154.199
0
LINE
8
BLACK
6
CONTINUOUS
10
237.396
20
-154.199
11
237.301
21
-154.389
0
LINE
8
BLACK
6
CONTINUOUS
10
237.301
20
-154.389
11
237.206
21
-154.485
0
LINE
8
BLACK
6
CONTINUOUS
10
237.206
20
-154.485
11
237.015
21
-154.58
0
LINE
8
BLACK
6
CONTINUOUS
10
237.015
20
-154.58
11
236.73
21
-154.58
0
LINE
8
BLACK
6
CONTINUOUS
10
238.539
20
-154.58
11
238.349
21
-154.485
0
LINE
8
BLACK
6
CONTINUOUS
10
238.349
20
-154.485
11
238.254
21
-154.294
0
LINE
8
BLACK
6
CONTINUOUS
10
238.254
20
-154.294
11
238.254
21
-152.58
0
LINE
8
BLACK
6
CONTINUOUS
10
240.063
20
-154.485
11
239.873
21
-154.58
0
LINE
8
BLACK
6
CONTINUOUS
10
239.873
20
-154.58
11
239.492
21
-154.58
0
LINE
8
BLACK
6
CONTINUOUS
10
239.492
20
-154.58
11
239.301
21
-154.485
0
LINE
8
BLACK
6
CONTINUOUS
10
239.301
20
-154.485
11
239.206
21
-154.294
0
LINE
8
BLACK
6
CONTINUOUS
10
239.206
20
-154.294
11
239.206
21
-153.532
0
LINE
8
BLACK
6
CONTINUOUS
10
239.206
20
-153.532
11
239.301
21
-153.342
0
LINE
8
BLACK
6
CONTINUOUS
10
239.301
20
-153.342
11
239.492
21
-153.246
0
LINE
8
BLACK
6
CONTINUOUS
10
239.492
20
-153.246
11
239.873
21
-153.246
0
LINE
8
BLACK
6
CONTINUOUS
10
239.873
20
-153.246
11
240.063
21
-153.342
0
LINE
8
BLACK
6
CONTINUOUS
10
240.063
20
-153.342
11
240.158
21
-153.532
0
LINE
8
BLACK
6
CONTINUOUS
10
240.158
20
-153.532
11
240.158
21
-153.723
0
LINE
8
BLACK
6
CONTINUOUS
10
240.158
20
-153.723
11
239.206
21
-153.913
0
LINE
8
BLACK
6
CONTINUOUS
10
240.92
20
-154.485
11
241.111
21
-154.58
0
LINE
8
BLACK
6
CONTINUOUS
10
241.111
20
-154.58
11
241.492
21
-154.58
0
LINE
8
BLACK
6
CONTINUOUS
10
241.492
20
-154.58
11
241.682
21
-154.485
0
LINE
8
BLACK
6
CONTINUOUS
10
241.682
20
-154.485
11
241.777
21
-154.294
0
LINE
8
BLACK
6
CONTINUOUS
10
241.777
20
-154.294
11
241.777
21
-154.199
0
LINE
8
BLACK
6
CONTINUOUS
10
241.777
20
-154.199
11
241.682
21
-154.008
0
LINE
8
BLACK
6
CONTINUOUS
10
241.682
20
-154.008
11
241.492
21
-153.913
0
LINE
8
BLACK
6
CONTINUOUS
10
241.492
20
-153.913
11
241.206
21
-153.913
0
LINE
8
BLACK
6
CONTINUOUS
10
241.206
20
-153.913
11
241.015
21
-153.818
0
LINE
8
BLACK
6
CONTINUOUS
10
241.015
20
-153.818
11
240.92
21
-153.627
0
LINE
8
BLACK
6
CONTINUOUS
10
240.92
20
-153.627
11
240.92
21
-153.532
0
LINE
8
BLACK
6
CONTINUOUS
10
240.92
20
-153.532
11
241.015
21
-153.342
0
LINE
8
BLACK
6
CONTINUOUS
10
241.015
20
-153.342
11
241.206
21
-153.246
0
LINE
8
BLACK
6
CONTINUOUS
10
241.206
20
-153.246
11
241.492
21
-153.246
0
LINE
8
BLACK
6
CONTINUOUS
10
241.492
20
-153.246
11
241.682
21
-153.342
0
LINE
8
BLACK
6
CONTINUOUS
10
242.444
20
-155.342
11
242.539
21
-155.246
0
LINE
8
BLACK
6
CONTINUOUS
10
242.539
20
-155.246
11
242.73
21
-154.961
0
LINE
8
BLACK
6
CONTINUOUS
10
242.73
20
-154.961
11
242.825
21
-154.77
0
LINE
8
BLACK
6
CONTINUOUS
10
242.825
20
-154.77
11
242.92
21
-154.485
0
LINE
8
BLACK
6
CONTINUOUS
10
242.92
20
-154.485
11
243.015
21
-154.008
0
LINE
8
BLACK
6
CONTINUOUS
10
243.015
20
-154.008
11
243.015
21
-153.627
0
LINE
8
BLACK
6
CONTINUOUS
10
243.015
20
-153.627
11
242.92
21
-153.151
0
LINE
8
BLACK
6
CONTINUOUS
10
242.92
20
-153.151
11
242.825
21
-152.865
0
LINE
8
BLACK
6
CONTINUOUS
10
242.825
20
-152.865
11
242.73
21
-152.675
0
LINE
8
BLACK
6
CONTINUOUS
10
242.73
20
-152.675
11
242.539
21
-152.389
0
LINE
8
BLACK
6
CONTINUOUS
10
242.539
20
-152.389
11
242.444
21
-152.294
  0
ENDSEC
  0
EOF
