%TF.GenerationSoftware,KiCad,Pcbnew,(6.0.7-1)-1*%
%TF.CreationDate,2022-08-15T16:00:22+02:00*%
%TF.ProjectId,plate,706c6174-652e-46b6-9963-61645f706362,v1.0.0*%
%TF.SameCoordinates,Original*%
%TF.FileFunction,Copper,L1,Top*%
%TF.FilePolarity,Positive*%
%FSLAX46Y46*%
G04 Gerber Fmt 4.6, Leading zero omitted, Abs format (unit mm)*
G04 Created by KiCad (PCBNEW (6.0.7-1)-1) date 2022-08-15 16:00:22*
%MOMM*%
%LPD*%
G01*
G04 APERTURE LIST*
%TA.AperFunction,ComponentPad*%
%ADD10C,5.000000*%
%TD*%
G04 APERTURE END LIST*
D10*
%TO.P,,1,1*%
%TO.N,N/C*%
X200660000Y-124460000D03*
%TD*%
%TO.P,,1,1*%
%TO.N,N/C*%
X297688000Y-62484000D03*
%TD*%
%TO.P,,1,1*%
%TO.N,N/C*%
X216916000Y-62484000D03*
%TD*%
%TO.P,,1,1*%
%TO.N,N/C*%
X298196000Y-124714000D03*
%TD*%
%TA.AperFunction,NonConductor*%
G36*
X301960619Y-57091422D02*
G01*
X301975452Y-57093732D01*
X301975456Y-57093732D01*
X301984325Y-57095113D01*
X302001524Y-57092864D01*
X302025464Y-57092031D01*
X302283310Y-57107628D01*
X302298414Y-57109462D01*
X302579355Y-57160947D01*
X302594128Y-57164588D01*
X302866824Y-57249563D01*
X302881040Y-57254955D01*
X303098796Y-57352960D01*
X303141505Y-57372182D01*
X303154977Y-57379253D01*
X303356214Y-57500905D01*
X303399403Y-57527014D01*
X303411923Y-57535656D01*
X303446894Y-57563054D01*
X303636763Y-57711808D01*
X303648152Y-57721898D01*
X303850114Y-57923861D01*
X303860203Y-57935250D01*
X304036353Y-58160091D01*
X304044997Y-58172613D01*
X304192757Y-58417042D01*
X304199824Y-58430506D01*
X304317055Y-58690986D01*
X304322443Y-58705194D01*
X304353016Y-58803308D01*
X304407417Y-58977891D01*
X304411058Y-58992665D01*
X304462540Y-59273604D01*
X304464374Y-59288706D01*
X304478646Y-59524663D01*
X304479539Y-59539429D01*
X304478298Y-59565795D01*
X304478292Y-59566266D01*
X304476910Y-59575142D01*
X304478074Y-59584045D01*
X304478074Y-59584052D01*
X304481037Y-59606712D01*
X304482101Y-59623048D01*
X304482101Y-144147006D01*
X304480601Y-144166390D01*
X304478911Y-144177247D01*
X304476910Y-144190097D01*
X304478694Y-144203735D01*
X304479159Y-144207293D01*
X304479992Y-144231235D01*
X304464398Y-144489079D01*
X304462564Y-144504184D01*
X304411082Y-144785121D01*
X304407441Y-144799895D01*
X304322468Y-145072587D01*
X304317074Y-145086810D01*
X304257268Y-145219692D01*
X304199852Y-145347265D01*
X304192781Y-145360738D01*
X304045018Y-145605164D01*
X304036375Y-145617686D01*
X303860225Y-145842523D01*
X303850135Y-145853912D01*
X303784661Y-145919384D01*
X303648168Y-146055874D01*
X303636779Y-146065963D01*
X303623082Y-146076694D01*
X303411944Y-146242106D01*
X303399426Y-146250746D01*
X303154985Y-146398509D01*
X303141513Y-146405579D01*
X303098775Y-146424813D01*
X302881056Y-146522795D01*
X302866844Y-146528185D01*
X302690035Y-146583276D01*
X302594146Y-146613153D01*
X302579373Y-146616794D01*
X302298424Y-146668272D01*
X302283319Y-146670105D01*
X302175828Y-146676604D01*
X302032410Y-146685275D01*
X302006863Y-146684071D01*
X302005764Y-146684058D01*
X301996894Y-146682676D01*
X301987990Y-146683840D01*
X301987988Y-146683840D01*
X301965299Y-146686806D01*
X301948974Y-146687869D01*
X231649357Y-146691497D01*
X231629967Y-146689997D01*
X231615152Y-146687691D01*
X231606276Y-146686309D01*
X231589077Y-146688558D01*
X231565137Y-146689391D01*
X231307290Y-146673794D01*
X231292186Y-146671960D01*
X231220214Y-146658771D01*
X231011240Y-146620475D01*
X230996473Y-146616836D01*
X230984654Y-146613153D01*
X230723769Y-146531858D01*
X230709555Y-146526466D01*
X230449092Y-146409242D01*
X230435621Y-146402172D01*
X230191187Y-146254405D01*
X230178666Y-146245762D01*
X229953829Y-146069615D01*
X229942440Y-146059525D01*
X229740475Y-145857560D01*
X229730385Y-145846171D01*
X229667645Y-145766088D01*
X287631625Y-145766088D01*
X287634092Y-145774719D01*
X287639751Y-145794520D01*
X287643329Y-145811282D01*
X287647521Y-145840554D01*
X287651235Y-145848722D01*
X287651235Y-145848723D01*
X287658149Y-145863929D01*
X287664597Y-145881453D01*
X287671652Y-145906138D01*
X287676444Y-145913732D01*
X287676445Y-145913735D01*
X287687431Y-145931147D01*
X287695570Y-145946230D01*
X287707809Y-145973149D01*
X287713670Y-145979951D01*
X287724571Y-145992602D01*
X287735674Y-146007606D01*
X287749377Y-146029325D01*
X287756102Y-146035264D01*
X287756105Y-146035268D01*
X287771539Y-146048899D01*
X287783583Y-146061091D01*
X287797028Y-146076694D01*
X287797031Y-146076696D01*
X287802888Y-146083494D01*
X287810417Y-146088374D01*
X287810418Y-146088375D01*
X287824436Y-146097461D01*
X287839310Y-146108752D01*
X287851818Y-146119798D01*
X287858552Y-146125745D01*
X287885312Y-146138309D01*
X287900292Y-146146630D01*
X287917584Y-146157838D01*
X287917589Y-146157840D01*
X287925116Y-146162719D01*
X287933709Y-146165289D01*
X287933714Y-146165291D01*
X287949721Y-146170078D01*
X287967165Y-146176739D01*
X287982277Y-146183834D01*
X287982279Y-146183835D01*
X287990401Y-146187648D01*
X287999268Y-146189029D01*
X287999269Y-146189029D01*
X288001954Y-146189447D01*
X288019618Y-146192197D01*
X288036333Y-146195980D01*
X288056067Y-146201882D01*
X288056073Y-146201883D01*
X288064667Y-146204453D01*
X288073638Y-146204508D01*
X288073639Y-146204508D01*
X288083698Y-146204569D01*
X288099107Y-146204663D01*
X288099890Y-146204696D01*
X288100987Y-146204867D01*
X288131978Y-146204867D01*
X288132748Y-146204869D01*
X288206386Y-146205319D01*
X288206387Y-146205319D01*
X288210322Y-146205343D01*
X288211666Y-146204959D01*
X288213011Y-146204867D01*
X302131978Y-146204867D01*
X302132749Y-146204869D01*
X302210322Y-146205343D01*
X302238753Y-146197217D01*
X302255516Y-146193639D01*
X302256354Y-146193519D01*
X302284788Y-146189447D01*
X302308165Y-146178818D01*
X302325688Y-146172371D01*
X302350372Y-146165316D01*
X302357966Y-146160524D01*
X302357969Y-146160523D01*
X302375381Y-146149537D01*
X302390466Y-146141397D01*
X302417383Y-146129159D01*
X302436836Y-146112397D01*
X302451840Y-146101294D01*
X302473559Y-146087591D01*
X302479498Y-146080866D01*
X302479502Y-146080863D01*
X302493133Y-146065429D01*
X302505325Y-146053385D01*
X302520928Y-146039940D01*
X302520930Y-146039937D01*
X302527728Y-146034080D01*
X302541695Y-146012532D01*
X302552986Y-145997658D01*
X302564032Y-145985150D01*
X302564033Y-145985149D01*
X302569979Y-145978416D01*
X302582544Y-145951654D01*
X302590864Y-145936676D01*
X302602072Y-145919384D01*
X302602074Y-145919379D01*
X302606953Y-145911852D01*
X302609523Y-145903259D01*
X302609525Y-145903254D01*
X302614312Y-145887247D01*
X302620973Y-145869803D01*
X302628068Y-145854691D01*
X302628069Y-145854689D01*
X302631882Y-145846567D01*
X302636431Y-145817350D01*
X302640214Y-145800635D01*
X302646116Y-145780901D01*
X302646117Y-145780895D01*
X302648687Y-145772301D01*
X302648897Y-145737861D01*
X302648930Y-145737078D01*
X302649101Y-145735981D01*
X302649101Y-145704990D01*
X302649103Y-145704220D01*
X302649553Y-145630582D01*
X302649553Y-145630581D01*
X302649577Y-145626646D01*
X302649193Y-145625302D01*
X302649101Y-145623957D01*
X302649101Y-131704990D01*
X302649103Y-131704220D01*
X302649401Y-131655469D01*
X302649577Y-131626646D01*
X302641451Y-131598214D01*
X302637873Y-131581452D01*
X302634953Y-131561065D01*
X302633681Y-131552180D01*
X302623052Y-131528803D01*
X302616605Y-131511280D01*
X302612017Y-131495229D01*
X302609550Y-131486596D01*
X302604757Y-131478999D01*
X302593771Y-131461587D01*
X302585631Y-131446502D01*
X302583165Y-131441078D01*
X302573393Y-131419585D01*
X302556631Y-131400132D01*
X302545528Y-131385128D01*
X302531825Y-131363409D01*
X302525100Y-131357470D01*
X302525097Y-131357466D01*
X302509663Y-131343835D01*
X302497619Y-131331643D01*
X302484174Y-131316040D01*
X302484171Y-131316038D01*
X302478314Y-131309240D01*
X302464610Y-131300357D01*
X302456766Y-131295273D01*
X302441892Y-131283982D01*
X302429384Y-131272936D01*
X302429383Y-131272935D01*
X302422650Y-131266989D01*
X302395888Y-131254424D01*
X302380910Y-131246104D01*
X302363618Y-131234896D01*
X302363613Y-131234894D01*
X302356086Y-131230015D01*
X302347493Y-131227445D01*
X302347488Y-131227443D01*
X302331481Y-131222656D01*
X302314037Y-131215995D01*
X302298925Y-131208900D01*
X302298923Y-131208899D01*
X302290801Y-131205086D01*
X302281934Y-131203705D01*
X302281933Y-131203705D01*
X302271079Y-131202015D01*
X302261584Y-131200537D01*
X302244869Y-131196754D01*
X302225135Y-131190852D01*
X302225129Y-131190851D01*
X302216535Y-131188281D01*
X302207564Y-131188226D01*
X302207563Y-131188226D01*
X302197504Y-131188165D01*
X302182095Y-131188071D01*
X302181312Y-131188038D01*
X302180215Y-131187867D01*
X302149224Y-131187867D01*
X302148454Y-131187865D01*
X302074816Y-131187415D01*
X302074815Y-131187415D01*
X302070880Y-131187391D01*
X302069536Y-131187775D01*
X302068191Y-131187867D01*
X288149224Y-131187867D01*
X288148454Y-131187865D01*
X288147638Y-131187860D01*
X288070880Y-131187391D01*
X288048519Y-131193782D01*
X288042448Y-131195517D01*
X288025686Y-131199095D01*
X287996414Y-131203287D01*
X287988246Y-131207001D01*
X287988245Y-131207001D01*
X287973039Y-131213915D01*
X287955515Y-131220363D01*
X287930830Y-131227418D01*
X287923236Y-131232210D01*
X287923233Y-131232211D01*
X287905821Y-131243197D01*
X287890738Y-131251336D01*
X287863819Y-131263575D01*
X287857017Y-131269436D01*
X287844366Y-131280337D01*
X287829362Y-131291440D01*
X287807643Y-131305143D01*
X287801704Y-131311868D01*
X287801700Y-131311871D01*
X287788069Y-131327305D01*
X287775877Y-131339349D01*
X287760274Y-131352794D01*
X287760272Y-131352797D01*
X287753474Y-131358654D01*
X287748594Y-131366183D01*
X287748593Y-131366184D01*
X287739507Y-131380202D01*
X287728216Y-131395076D01*
X287717170Y-131407584D01*
X287711223Y-131414318D01*
X287704913Y-131427758D01*
X287698659Y-131441078D01*
X287690338Y-131456058D01*
X287679130Y-131473350D01*
X287679128Y-131473355D01*
X287674249Y-131480882D01*
X287671679Y-131489475D01*
X287671677Y-131489480D01*
X287666890Y-131505487D01*
X287660229Y-131522931D01*
X287653134Y-131538043D01*
X287649320Y-131546167D01*
X287647939Y-131555034D01*
X287647939Y-131555035D01*
X287644771Y-131575382D01*
X287640988Y-131592099D01*
X287635086Y-131611833D01*
X287635085Y-131611839D01*
X287632515Y-131620433D01*
X287632460Y-131629404D01*
X287632460Y-131629405D01*
X287632305Y-131654864D01*
X287632272Y-131655656D01*
X287632101Y-131656753D01*
X287632101Y-131687744D01*
X287632099Y-131688514D01*
X287631625Y-131766088D01*
X287632009Y-131767432D01*
X287632101Y-131768777D01*
X287632101Y-145687744D01*
X287632099Y-145688514D01*
X287631625Y-145766088D01*
X229667645Y-145766088D01*
X229554238Y-145621334D01*
X229545595Y-145608813D01*
X229397828Y-145364379D01*
X229390757Y-145350906D01*
X229389118Y-145347265D01*
X229273534Y-145090445D01*
X229268141Y-145076227D01*
X229183164Y-144803527D01*
X229179523Y-144788754D01*
X229178858Y-144785121D01*
X229128040Y-144507814D01*
X229126206Y-144492710D01*
X229111269Y-144245768D01*
X229112520Y-144222216D01*
X229112334Y-144222199D01*
X229112769Y-144217350D01*
X229113576Y-144212552D01*
X229113729Y-144200000D01*
X229109773Y-144172376D01*
X229108500Y-144154514D01*
X229108500Y-144056088D01*
X268231625Y-144056088D01*
X268234092Y-144064719D01*
X268239751Y-144084520D01*
X268243329Y-144101282D01*
X268247521Y-144130554D01*
X268251235Y-144138722D01*
X268251235Y-144138723D01*
X268258149Y-144153929D01*
X268264597Y-144171453D01*
X268271652Y-144196138D01*
X268276444Y-144203732D01*
X268276445Y-144203735D01*
X268287431Y-144221147D01*
X268295570Y-144236230D01*
X268307809Y-144263149D01*
X268313670Y-144269951D01*
X268324571Y-144282602D01*
X268335674Y-144297606D01*
X268349377Y-144319325D01*
X268356102Y-144325264D01*
X268356105Y-144325268D01*
X268371539Y-144338899D01*
X268383583Y-144351091D01*
X268397028Y-144366694D01*
X268397031Y-144366696D01*
X268402888Y-144373494D01*
X268410417Y-144378374D01*
X268410418Y-144378375D01*
X268424436Y-144387461D01*
X268439310Y-144398752D01*
X268451818Y-144409798D01*
X268458552Y-144415745D01*
X268485312Y-144428309D01*
X268500292Y-144436630D01*
X268517584Y-144447838D01*
X268517589Y-144447840D01*
X268525116Y-144452719D01*
X268533709Y-144455289D01*
X268533714Y-144455291D01*
X268549721Y-144460078D01*
X268567165Y-144466739D01*
X268582277Y-144473834D01*
X268582279Y-144473835D01*
X268590401Y-144477648D01*
X268599268Y-144479029D01*
X268599269Y-144479029D01*
X268601954Y-144479447D01*
X268619618Y-144482197D01*
X268636333Y-144485980D01*
X268656067Y-144491882D01*
X268656073Y-144491883D01*
X268664667Y-144494453D01*
X268673638Y-144494508D01*
X268673639Y-144494508D01*
X268683698Y-144494569D01*
X268699107Y-144494663D01*
X268699890Y-144494696D01*
X268700987Y-144494867D01*
X268731978Y-144494867D01*
X268732748Y-144494869D01*
X268806386Y-144495319D01*
X268806387Y-144495319D01*
X268810322Y-144495343D01*
X268811666Y-144494959D01*
X268813011Y-144494867D01*
X282731978Y-144494867D01*
X282732749Y-144494869D01*
X282810322Y-144495343D01*
X282838753Y-144487217D01*
X282855516Y-144483639D01*
X282856354Y-144483519D01*
X282884788Y-144479447D01*
X282908165Y-144468818D01*
X282925688Y-144462371D01*
X282950372Y-144455316D01*
X282957966Y-144450524D01*
X282957969Y-144450523D01*
X282975381Y-144439537D01*
X282990466Y-144431397D01*
X283017383Y-144419159D01*
X283036836Y-144402397D01*
X283051840Y-144391294D01*
X283073559Y-144377591D01*
X283079498Y-144370866D01*
X283079502Y-144370863D01*
X283093133Y-144355429D01*
X283105325Y-144343385D01*
X283120928Y-144329940D01*
X283120930Y-144329937D01*
X283127728Y-144324080D01*
X283141695Y-144302532D01*
X283152986Y-144287658D01*
X283164032Y-144275150D01*
X283164033Y-144275149D01*
X283169979Y-144268416D01*
X283182544Y-144241654D01*
X283190864Y-144226676D01*
X283202072Y-144209384D01*
X283202074Y-144209379D01*
X283206953Y-144201852D01*
X283209523Y-144193259D01*
X283209525Y-144193254D01*
X283214312Y-144177247D01*
X283220973Y-144159803D01*
X283228068Y-144144691D01*
X283228069Y-144144689D01*
X283231882Y-144136567D01*
X283236431Y-144107350D01*
X283240214Y-144090635D01*
X283246116Y-144070901D01*
X283246117Y-144070895D01*
X283248687Y-144062301D01*
X283248897Y-144027861D01*
X283248930Y-144027078D01*
X283249101Y-144025981D01*
X283249101Y-143994990D01*
X283249103Y-143994220D01*
X283249553Y-143920582D01*
X283249553Y-143920581D01*
X283249577Y-143916646D01*
X283249193Y-143915302D01*
X283249101Y-143913957D01*
X283249101Y-129994990D01*
X283249103Y-129994220D01*
X283249401Y-129945469D01*
X283249577Y-129916646D01*
X283241451Y-129888214D01*
X283237873Y-129871452D01*
X283234953Y-129851065D01*
X283233681Y-129842180D01*
X283223052Y-129818803D01*
X283216605Y-129801280D01*
X283212017Y-129785229D01*
X283209550Y-129776596D01*
X283204757Y-129768999D01*
X283193771Y-129751587D01*
X283185631Y-129736502D01*
X283183165Y-129731078D01*
X283173393Y-129709585D01*
X283156631Y-129690132D01*
X283145528Y-129675128D01*
X283131825Y-129653409D01*
X283125100Y-129647470D01*
X283125097Y-129647466D01*
X283109663Y-129633835D01*
X283097619Y-129621643D01*
X283084174Y-129606040D01*
X283084171Y-129606038D01*
X283078314Y-129599240D01*
X283064610Y-129590357D01*
X283056766Y-129585273D01*
X283041892Y-129573982D01*
X283029384Y-129562936D01*
X283029383Y-129562935D01*
X283022650Y-129556989D01*
X282995888Y-129544424D01*
X282980910Y-129536104D01*
X282963618Y-129524896D01*
X282963613Y-129524894D01*
X282956086Y-129520015D01*
X282947493Y-129517445D01*
X282947488Y-129517443D01*
X282931481Y-129512656D01*
X282914037Y-129505995D01*
X282898925Y-129498900D01*
X282898923Y-129498899D01*
X282890801Y-129495086D01*
X282881934Y-129493705D01*
X282881933Y-129493705D01*
X282871079Y-129492015D01*
X282861584Y-129490537D01*
X282844869Y-129486754D01*
X282825135Y-129480852D01*
X282825129Y-129480851D01*
X282816535Y-129478281D01*
X282807564Y-129478226D01*
X282807563Y-129478226D01*
X282797504Y-129478165D01*
X282782095Y-129478071D01*
X282781312Y-129478038D01*
X282780215Y-129477867D01*
X282749224Y-129477867D01*
X282748454Y-129477865D01*
X282674816Y-129477415D01*
X282674815Y-129477415D01*
X282670880Y-129477391D01*
X282669536Y-129477775D01*
X282668191Y-129477867D01*
X268749224Y-129477867D01*
X268748454Y-129477865D01*
X268747638Y-129477860D01*
X268670880Y-129477391D01*
X268648519Y-129483782D01*
X268642448Y-129485517D01*
X268625686Y-129489095D01*
X268596414Y-129493287D01*
X268588246Y-129497001D01*
X268588245Y-129497001D01*
X268573039Y-129503915D01*
X268555515Y-129510363D01*
X268530830Y-129517418D01*
X268523236Y-129522210D01*
X268523233Y-129522211D01*
X268505821Y-129533197D01*
X268490738Y-129541336D01*
X268463819Y-129553575D01*
X268457017Y-129559436D01*
X268444366Y-129570337D01*
X268429362Y-129581440D01*
X268407643Y-129595143D01*
X268401704Y-129601868D01*
X268401700Y-129601871D01*
X268388069Y-129617305D01*
X268375877Y-129629349D01*
X268360274Y-129642794D01*
X268360272Y-129642797D01*
X268353474Y-129648654D01*
X268348594Y-129656183D01*
X268348593Y-129656184D01*
X268339507Y-129670202D01*
X268328216Y-129685076D01*
X268317170Y-129697584D01*
X268311223Y-129704318D01*
X268304913Y-129717758D01*
X268298659Y-129731078D01*
X268290338Y-129746058D01*
X268279130Y-129763350D01*
X268279128Y-129763355D01*
X268274249Y-129770882D01*
X268271679Y-129779475D01*
X268271677Y-129779480D01*
X268266890Y-129795487D01*
X268260229Y-129812931D01*
X268253134Y-129828043D01*
X268249320Y-129836167D01*
X268247939Y-129845034D01*
X268247939Y-129845035D01*
X268244771Y-129865382D01*
X268240988Y-129882099D01*
X268235086Y-129901833D01*
X268235085Y-129901839D01*
X268232515Y-129910433D01*
X268232460Y-129919404D01*
X268232460Y-129919405D01*
X268232305Y-129944864D01*
X268232272Y-129945656D01*
X268232101Y-129946753D01*
X268232101Y-129977744D01*
X268232099Y-129978514D01*
X268231625Y-130056088D01*
X268232009Y-130057432D01*
X268232101Y-130058777D01*
X268232101Y-143977744D01*
X268232099Y-143978514D01*
X268231625Y-144056088D01*
X229108500Y-144056088D01*
X229108500Y-128532623D01*
X229108502Y-128531857D01*
X229108919Y-128463234D01*
X229108974Y-128454262D01*
X229106507Y-128445631D01*
X229100850Y-128425838D01*
X229097271Y-128409075D01*
X229094353Y-128388700D01*
X229094353Y-128388699D01*
X229093080Y-128379813D01*
X229082448Y-128356429D01*
X229076001Y-128338908D01*
X229071411Y-128322848D01*
X229071408Y-128322842D01*
X229068942Y-128314214D01*
X229053169Y-128289216D01*
X229045032Y-128274135D01*
X229036508Y-128255389D01*
X229036506Y-128255385D01*
X229032792Y-128247218D01*
X229026935Y-128240420D01*
X229026932Y-128240416D01*
X229016026Y-128227759D01*
X229004920Y-128212751D01*
X228996005Y-128198622D01*
X228996002Y-128198618D01*
X228991213Y-128191029D01*
X228984489Y-128185091D01*
X228984483Y-128185084D01*
X228969057Y-128171462D01*
X228957007Y-128159265D01*
X228954843Y-128156754D01*
X228937713Y-128136873D01*
X228916150Y-128122896D01*
X228901287Y-128111614D01*
X228888764Y-128100555D01*
X228888763Y-128100554D01*
X228882035Y-128094613D01*
X228855282Y-128082053D01*
X228840298Y-128073730D01*
X228823017Y-128062529D01*
X228823012Y-128062527D01*
X228815485Y-128057648D01*
X228790865Y-128050285D01*
X228773438Y-128043630D01*
X228750184Y-128032714D01*
X228741316Y-128031333D01*
X228741311Y-128031332D01*
X228720969Y-128028165D01*
X228704256Y-128024384D01*
X228675934Y-128015914D01*
X228666958Y-128015859D01*
X228666957Y-128015859D01*
X228656966Y-128015798D01*
X228641487Y-128015704D01*
X228640699Y-128015671D01*
X228639597Y-128015499D01*
X228636593Y-128015499D01*
X228612228Y-128015500D01*
X228608622Y-128015500D01*
X228607858Y-128015498D01*
X228602349Y-128015464D01*
X228534240Y-128015048D01*
X228534237Y-128015048D01*
X228530279Y-128015024D01*
X228528927Y-128015411D01*
X228527573Y-128015503D01*
X225595410Y-128015598D01*
X197849357Y-128016499D01*
X197829968Y-128014998D01*
X197815151Y-128012690D01*
X197815144Y-128012690D01*
X197806276Y-128011309D01*
X197789077Y-128013558D01*
X197765137Y-128014391D01*
X197507290Y-127998794D01*
X197492186Y-127996960D01*
X197420214Y-127983771D01*
X197211240Y-127945475D01*
X197196473Y-127941836D01*
X196923769Y-127856858D01*
X196909555Y-127851466D01*
X196649092Y-127734242D01*
X196635621Y-127727172D01*
X196391187Y-127579405D01*
X196378666Y-127570762D01*
X196161461Y-127400594D01*
X196153828Y-127394614D01*
X196142440Y-127384525D01*
X195940475Y-127182560D01*
X195930385Y-127171171D01*
X195754238Y-126946334D01*
X195745595Y-126933813D01*
X195597828Y-126689379D01*
X195590757Y-126675906D01*
X195473534Y-126415445D01*
X195468141Y-126401227D01*
X195427850Y-126271927D01*
X195383164Y-126128526D01*
X195379523Y-126113754D01*
X195375573Y-126092195D01*
X195328040Y-125832814D01*
X195326206Y-125817710D01*
X195311269Y-125570768D01*
X195312520Y-125547216D01*
X195312334Y-125547199D01*
X195312769Y-125542350D01*
X195313576Y-125537552D01*
X195313729Y-125525000D01*
X195313040Y-125520186D01*
X195313039Y-125520176D01*
X195309775Y-125497387D01*
X195308502Y-125479518D01*
X195308507Y-125394636D01*
X195308557Y-124365341D01*
X197647888Y-124365341D01*
X197647983Y-124368971D01*
X197647983Y-124368972D01*
X197650367Y-124460000D01*
X197656970Y-124712171D01*
X197705856Y-125055660D01*
X197793897Y-125391253D01*
X197919927Y-125714503D01*
X197921624Y-125717708D01*
X198056110Y-125971708D01*
X198082275Y-126021126D01*
X198084325Y-126024109D01*
X198084327Y-126024112D01*
X198276733Y-126304064D01*
X198276739Y-126304071D01*
X198278790Y-126307056D01*
X198416259Y-126464640D01*
X198486093Y-126544692D01*
X198506866Y-126568505D01*
X198509551Y-126570948D01*
X198738697Y-126779454D01*
X198763481Y-126802006D01*
X199045233Y-127004466D01*
X199348388Y-127173200D01*
X199668928Y-127305972D01*
X199672422Y-127306967D01*
X199672424Y-127306968D01*
X199999103Y-127400025D01*
X199999108Y-127400026D01*
X200002604Y-127401022D01*
X200199304Y-127433233D01*
X200341412Y-127456504D01*
X200341419Y-127456505D01*
X200344993Y-127457090D01*
X200518276Y-127465262D01*
X200687931Y-127473263D01*
X200687932Y-127473263D01*
X200691558Y-127473434D01*
X200700415Y-127472830D01*
X201034073Y-127450084D01*
X201034081Y-127450083D01*
X201037704Y-127449836D01*
X201041279Y-127449173D01*
X201041282Y-127449173D01*
X201375279Y-127387270D01*
X201375283Y-127387269D01*
X201378844Y-127386609D01*
X201710456Y-127284592D01*
X202028145Y-127145136D01*
X202180674Y-127056006D01*
X202324560Y-126971926D01*
X202324562Y-126971925D01*
X202327700Y-126970091D01*
X202330609Y-126967907D01*
X202602244Y-126763958D01*
X202602248Y-126763955D01*
X202605151Y-126761775D01*
X202856819Y-126522950D01*
X203079370Y-126256783D01*
X203088224Y-126243305D01*
X203217993Y-126045748D01*
X203269853Y-125966799D01*
X203398446Y-125711121D01*
X203424117Y-125660080D01*
X203424120Y-125660072D01*
X203425744Y-125656844D01*
X203453318Y-125581496D01*
X203543729Y-125334437D01*
X203543730Y-125334433D01*
X203544977Y-125331026D01*
X203545822Y-125327504D01*
X203545825Y-125327496D01*
X203625124Y-124997191D01*
X203625125Y-124997187D01*
X203625971Y-124993662D01*
X203629298Y-124966171D01*
X203667316Y-124652004D01*
X203667316Y-124651997D01*
X203667652Y-124649225D01*
X203673599Y-124460000D01*
X203673438Y-124457204D01*
X203653836Y-124117246D01*
X203653835Y-124117241D01*
X203653627Y-124113626D01*
X203637876Y-124023375D01*
X203594600Y-123775415D01*
X203594598Y-123775408D01*
X203593976Y-123771842D01*
X203495437Y-123439180D01*
X203494013Y-123435841D01*
X203360740Y-123123386D01*
X203360738Y-123123383D01*
X203359316Y-123120048D01*
X203352075Y-123107352D01*
X203189208Y-122821816D01*
X203187417Y-122818676D01*
X202982018Y-122539060D01*
X202745842Y-122284904D01*
X202482019Y-122059578D01*
X202194047Y-121866069D01*
X202187034Y-121862449D01*
X201888961Y-121708602D01*
X201885741Y-121706940D01*
X201561189Y-121584302D01*
X201557668Y-121583418D01*
X201557663Y-121583416D01*
X201396378Y-121542904D01*
X201224692Y-121499780D01*
X201188893Y-121495067D01*
X200884315Y-121454968D01*
X200884307Y-121454967D01*
X200880711Y-121454494D01*
X200736045Y-121452221D01*
X200537446Y-121449101D01*
X200537442Y-121449101D01*
X200533804Y-121449044D01*
X200530190Y-121449405D01*
X200530184Y-121449405D01*
X200286843Y-121473694D01*
X200188569Y-121483503D01*
X199849583Y-121557414D01*
X199846156Y-121558587D01*
X199846150Y-121558589D01*
X199524765Y-121668624D01*
X199521339Y-121669797D01*
X199208188Y-121819163D01*
X198914279Y-122003532D01*
X198911443Y-122005804D01*
X198911436Y-122005809D01*
X198766296Y-122122088D01*
X198643509Y-122220459D01*
X198399466Y-122467071D01*
X198397225Y-122469929D01*
X198340732Y-122541978D01*
X198185386Y-122740098D01*
X198183493Y-122743187D01*
X198183491Y-122743190D01*
X198137233Y-122818676D01*
X198004105Y-123035921D01*
X198002580Y-123039206D01*
X198002578Y-123039210D01*
X197923586Y-123209384D01*
X197858027Y-123350620D01*
X197749087Y-123680023D01*
X197748351Y-123683578D01*
X197748350Y-123683581D01*
X197696486Y-123934023D01*
X197678730Y-124019764D01*
X197647888Y-124365341D01*
X195308557Y-124365341D01*
X195309142Y-112341310D01*
X202511722Y-112341310D01*
X202515914Y-112370578D01*
X202517184Y-112387668D01*
X202517365Y-112417244D01*
X202519938Y-112425846D01*
X202519938Y-112425849D01*
X202527230Y-112450232D01*
X202527432Y-112451006D01*
X202527588Y-112452098D01*
X202528460Y-112454950D01*
X202536667Y-112481792D01*
X202536871Y-112482468D01*
X202559099Y-112556795D01*
X202559861Y-112557971D01*
X202560339Y-112559222D01*
X206564685Y-125656844D01*
X206629834Y-125869938D01*
X206630056Y-125870669D01*
X206652303Y-125945061D01*
X206657185Y-125952592D01*
X206657185Y-125952593D01*
X206668386Y-125969873D01*
X206676709Y-125984858D01*
X206689276Y-126011625D01*
X206695216Y-126018351D01*
X206695218Y-126018354D01*
X206706276Y-126030874D01*
X206717565Y-126045747D01*
X206731528Y-126067288D01*
X206753934Y-126086595D01*
X206766117Y-126098631D01*
X206785697Y-126120800D01*
X206807416Y-126134504D01*
X206822422Y-126145608D01*
X206841873Y-126162368D01*
X206868786Y-126174604D01*
X206883871Y-126182744D01*
X206901287Y-126193733D01*
X206901292Y-126193735D01*
X206908883Y-126198525D01*
X206917514Y-126200992D01*
X206917517Y-126200993D01*
X206933565Y-126205579D01*
X206951092Y-126212027D01*
X206966294Y-126218939D01*
X206966297Y-126218940D01*
X206974468Y-126222655D01*
X206983356Y-126223928D01*
X206983360Y-126223929D01*
X207003739Y-126226848D01*
X207020499Y-126230426D01*
X207040300Y-126236085D01*
X207040305Y-126236086D01*
X207048934Y-126238552D01*
X207074616Y-126238395D01*
X207093244Y-126239666D01*
X207118655Y-126243305D01*
X207147928Y-126239113D01*
X207165013Y-126237843D01*
X207185612Y-126237717D01*
X207185613Y-126237717D01*
X207194589Y-126237662D01*
X207203188Y-126235090D01*
X207203190Y-126235090D01*
X207227568Y-126227799D01*
X207228349Y-126227595D01*
X207229443Y-126227439D01*
X207232307Y-126226563D01*
X207232320Y-126226560D01*
X207259223Y-126218335D01*
X207259960Y-126218112D01*
X207330366Y-126197056D01*
X207330370Y-126197055D01*
X207334140Y-126195927D01*
X207335311Y-126195168D01*
X207336571Y-126194687D01*
X212489295Y-124619341D01*
X295183888Y-124619341D01*
X295183983Y-124622971D01*
X295183983Y-124622972D01*
X295186319Y-124712171D01*
X295192970Y-124966171D01*
X295241856Y-125309660D01*
X295329897Y-125645253D01*
X295455927Y-125968503D01*
X295474456Y-126003498D01*
X295600753Y-126242032D01*
X295618275Y-126275126D01*
X295620325Y-126278109D01*
X295620327Y-126278112D01*
X295812733Y-126558064D01*
X295812739Y-126558071D01*
X295814790Y-126561056D01*
X295926733Y-126689379D01*
X296024984Y-126802006D01*
X296042866Y-126822505D01*
X296045551Y-126824948D01*
X296255268Y-127015775D01*
X296299481Y-127056006D01*
X296581233Y-127258466D01*
X296884388Y-127427200D01*
X297204928Y-127559972D01*
X297208422Y-127560967D01*
X297208424Y-127560968D01*
X297535103Y-127654025D01*
X297535108Y-127654026D01*
X297538604Y-127655022D01*
X297735304Y-127687233D01*
X297877412Y-127710504D01*
X297877419Y-127710505D01*
X297880993Y-127711090D01*
X298054276Y-127719262D01*
X298223931Y-127727263D01*
X298223932Y-127727263D01*
X298227558Y-127727434D01*
X298236415Y-127726830D01*
X298570073Y-127704084D01*
X298570081Y-127704083D01*
X298573704Y-127703836D01*
X298577279Y-127703173D01*
X298577282Y-127703173D01*
X298911279Y-127641270D01*
X298911283Y-127641269D01*
X298914844Y-127640609D01*
X299113791Y-127579405D01*
X299242978Y-127539662D01*
X299246456Y-127538592D01*
X299564145Y-127399136D01*
X299584452Y-127387270D01*
X299860560Y-127225926D01*
X299860562Y-127225925D01*
X299863700Y-127224091D01*
X299919014Y-127182560D01*
X300138244Y-127017958D01*
X300138248Y-127017955D01*
X300141151Y-127015775D01*
X300392819Y-126776950D01*
X300407599Y-126759274D01*
X300613048Y-126513560D01*
X300615370Y-126510783D01*
X300805853Y-126220799D01*
X300907887Y-126017927D01*
X300960117Y-125914080D01*
X300960120Y-125914072D01*
X300961744Y-125910844D01*
X300962989Y-125907442D01*
X301079729Y-125588437D01*
X301079730Y-125588433D01*
X301080977Y-125585026D01*
X301081822Y-125581504D01*
X301081825Y-125581496D01*
X301161124Y-125251191D01*
X301161125Y-125251187D01*
X301161971Y-125247662D01*
X301162408Y-125244052D01*
X301203316Y-124906004D01*
X301203316Y-124905997D01*
X301203652Y-124903225D01*
X301209599Y-124714000D01*
X301209285Y-124708546D01*
X301189836Y-124371246D01*
X301189835Y-124371241D01*
X301189627Y-124367626D01*
X301129976Y-124025842D01*
X301031437Y-123693180D01*
X300947053Y-123495343D01*
X300896740Y-123377386D01*
X300896738Y-123377383D01*
X300895316Y-123374048D01*
X300893500Y-123370863D01*
X300725208Y-123075816D01*
X300723417Y-123072676D01*
X300518018Y-122793060D01*
X300281842Y-122538904D01*
X300018019Y-122313578D01*
X299730047Y-122120069D01*
X299421741Y-121960940D01*
X299097189Y-121838302D01*
X299093668Y-121837418D01*
X299093663Y-121837416D01*
X298899830Y-121788729D01*
X298760692Y-121753780D01*
X298686854Y-121744059D01*
X298420315Y-121708968D01*
X298420307Y-121708967D01*
X298416711Y-121708494D01*
X298272045Y-121706221D01*
X298073446Y-121703101D01*
X298073442Y-121703101D01*
X298069804Y-121703044D01*
X298066190Y-121703405D01*
X298066184Y-121703405D01*
X297822843Y-121727694D01*
X297724569Y-121737503D01*
X297385583Y-121811414D01*
X297382156Y-121812587D01*
X297382150Y-121812589D01*
X297068555Y-121919957D01*
X297057339Y-121923797D01*
X296744188Y-122073163D01*
X296741109Y-122075094D01*
X296741108Y-122075095D01*
X296697065Y-122102723D01*
X296450279Y-122257532D01*
X296447443Y-122259804D01*
X296447436Y-122259809D01*
X296203384Y-122455332D01*
X296179509Y-122474459D01*
X295935466Y-122721071D01*
X295933225Y-122723929D01*
X295783422Y-122914981D01*
X295721386Y-122994098D01*
X295719493Y-122997187D01*
X295719491Y-122997190D01*
X295674321Y-123070901D01*
X295540105Y-123289921D01*
X295538580Y-123293206D01*
X295538578Y-123293210D01*
X295444972Y-123494869D01*
X295394027Y-123604620D01*
X295285087Y-123934023D01*
X295214730Y-124273764D01*
X295183888Y-124619341D01*
X212489295Y-124619341D01*
X217602465Y-123056088D01*
X263606625Y-123056088D01*
X263609092Y-123064719D01*
X263614751Y-123084520D01*
X263618329Y-123101282D01*
X263622521Y-123130554D01*
X263626235Y-123138722D01*
X263626235Y-123138723D01*
X263633149Y-123153929D01*
X263639597Y-123171453D01*
X263646652Y-123196138D01*
X263651444Y-123203732D01*
X263651445Y-123203735D01*
X263662431Y-123221147D01*
X263670570Y-123236230D01*
X263682809Y-123263149D01*
X263688670Y-123269951D01*
X263699571Y-123282602D01*
X263710674Y-123297606D01*
X263724377Y-123319325D01*
X263731102Y-123325264D01*
X263731105Y-123325268D01*
X263746539Y-123338899D01*
X263758583Y-123351091D01*
X263772028Y-123366694D01*
X263772031Y-123366696D01*
X263777888Y-123373494D01*
X263785417Y-123378374D01*
X263785418Y-123378375D01*
X263799436Y-123387461D01*
X263814310Y-123398752D01*
X263826818Y-123409798D01*
X263833552Y-123415745D01*
X263860312Y-123428309D01*
X263875292Y-123436630D01*
X263892584Y-123447838D01*
X263892589Y-123447840D01*
X263900116Y-123452719D01*
X263908709Y-123455289D01*
X263908714Y-123455291D01*
X263924721Y-123460078D01*
X263942165Y-123466739D01*
X263957277Y-123473834D01*
X263957279Y-123473835D01*
X263965401Y-123477648D01*
X263974268Y-123479029D01*
X263974269Y-123479029D01*
X263976954Y-123479447D01*
X263994618Y-123482197D01*
X264011333Y-123485980D01*
X264031067Y-123491882D01*
X264031073Y-123491883D01*
X264039667Y-123494453D01*
X264048638Y-123494508D01*
X264048639Y-123494508D01*
X264058698Y-123494569D01*
X264074107Y-123494663D01*
X264074890Y-123494696D01*
X264075987Y-123494867D01*
X264106978Y-123494867D01*
X264107748Y-123494869D01*
X264181386Y-123495319D01*
X264181387Y-123495319D01*
X264185322Y-123495343D01*
X264186666Y-123494959D01*
X264188011Y-123494867D01*
X278106978Y-123494867D01*
X278107749Y-123494869D01*
X278185322Y-123495343D01*
X278213753Y-123487217D01*
X278230516Y-123483639D01*
X278231354Y-123483519D01*
X278259788Y-123479447D01*
X278283165Y-123468818D01*
X278300688Y-123462371D01*
X278325372Y-123455316D01*
X278332966Y-123450524D01*
X278332969Y-123450523D01*
X278350381Y-123439537D01*
X278365466Y-123431397D01*
X278392383Y-123419159D01*
X278411836Y-123402397D01*
X278426840Y-123391294D01*
X278448559Y-123377591D01*
X278454498Y-123370866D01*
X278454502Y-123370863D01*
X278468133Y-123355429D01*
X278480325Y-123343385D01*
X278495928Y-123329940D01*
X278495930Y-123329937D01*
X278502728Y-123324080D01*
X278516695Y-123302532D01*
X278527986Y-123287658D01*
X278539032Y-123275150D01*
X278539033Y-123275149D01*
X278544979Y-123268416D01*
X278557544Y-123241654D01*
X278565864Y-123226676D01*
X278577072Y-123209384D01*
X278577074Y-123209379D01*
X278581953Y-123201852D01*
X278584523Y-123193259D01*
X278584525Y-123193254D01*
X278589312Y-123177247D01*
X278595973Y-123159803D01*
X278603068Y-123144691D01*
X278603069Y-123144689D01*
X278606882Y-123136567D01*
X278608935Y-123123386D01*
X278611431Y-123107352D01*
X278615214Y-123090635D01*
X278621116Y-123070901D01*
X278621117Y-123070895D01*
X278623687Y-123062301D01*
X278623897Y-123027861D01*
X278623930Y-123027078D01*
X278624101Y-123025981D01*
X278624101Y-122994990D01*
X278624103Y-122994220D01*
X278624553Y-122920582D01*
X278624553Y-122920581D01*
X278624577Y-122916646D01*
X278624193Y-122915302D01*
X278624101Y-122913957D01*
X278624101Y-115456088D01*
X283006625Y-115456088D01*
X283009092Y-115464719D01*
X283014751Y-115484520D01*
X283018329Y-115501282D01*
X283022521Y-115530554D01*
X283026235Y-115538722D01*
X283026235Y-115538723D01*
X283033149Y-115553929D01*
X283039597Y-115571453D01*
X283046652Y-115596138D01*
X283051444Y-115603732D01*
X283051445Y-115603735D01*
X283062431Y-115621147D01*
X283070570Y-115636230D01*
X283082809Y-115663149D01*
X283088670Y-115669951D01*
X283099571Y-115682602D01*
X283110674Y-115697606D01*
X283124377Y-115719325D01*
X283131102Y-115725264D01*
X283131105Y-115725268D01*
X283146539Y-115738899D01*
X283158583Y-115751091D01*
X283172028Y-115766694D01*
X283172031Y-115766696D01*
X283177888Y-115773494D01*
X283185417Y-115778374D01*
X283185418Y-115778375D01*
X283199436Y-115787461D01*
X283214310Y-115798752D01*
X283226818Y-115809798D01*
X283233552Y-115815745D01*
X283260312Y-115828309D01*
X283275292Y-115836630D01*
X283292584Y-115847838D01*
X283292589Y-115847840D01*
X283300116Y-115852719D01*
X283308709Y-115855289D01*
X283308714Y-115855291D01*
X283324721Y-115860078D01*
X283342165Y-115866739D01*
X283357277Y-115873834D01*
X283357279Y-115873835D01*
X283365401Y-115877648D01*
X283374268Y-115879029D01*
X283374269Y-115879029D01*
X283376954Y-115879447D01*
X283394618Y-115882197D01*
X283411333Y-115885980D01*
X283431067Y-115891882D01*
X283431073Y-115891883D01*
X283439667Y-115894453D01*
X283448638Y-115894508D01*
X283448639Y-115894508D01*
X283458698Y-115894569D01*
X283474107Y-115894663D01*
X283474890Y-115894696D01*
X283475987Y-115894867D01*
X283506978Y-115894867D01*
X283507748Y-115894869D01*
X283581386Y-115895319D01*
X283581387Y-115895319D01*
X283585322Y-115895343D01*
X283586666Y-115894959D01*
X283588011Y-115894867D01*
X297506978Y-115894867D01*
X297507749Y-115894869D01*
X297585322Y-115895343D01*
X297613753Y-115887217D01*
X297630516Y-115883639D01*
X297631354Y-115883519D01*
X297659788Y-115879447D01*
X297683165Y-115868818D01*
X297700688Y-115862371D01*
X297725372Y-115855316D01*
X297732966Y-115850524D01*
X297732969Y-115850523D01*
X297750381Y-115839537D01*
X297765466Y-115831397D01*
X297792383Y-115819159D01*
X297811836Y-115802397D01*
X297826840Y-115791294D01*
X297848559Y-115777591D01*
X297854498Y-115770866D01*
X297854502Y-115770863D01*
X297868133Y-115755429D01*
X297880325Y-115743385D01*
X297895928Y-115729940D01*
X297895930Y-115729937D01*
X297902728Y-115724080D01*
X297916695Y-115702532D01*
X297927986Y-115687658D01*
X297939032Y-115675150D01*
X297939033Y-115675149D01*
X297944979Y-115668416D01*
X297957544Y-115641654D01*
X297965864Y-115626676D01*
X297977072Y-115609384D01*
X297977074Y-115609379D01*
X297981953Y-115601852D01*
X297984523Y-115593259D01*
X297984525Y-115593254D01*
X297989312Y-115577247D01*
X297995973Y-115559803D01*
X298003068Y-115544691D01*
X298003069Y-115544689D01*
X298006882Y-115536567D01*
X298011431Y-115507350D01*
X298015214Y-115490635D01*
X298021116Y-115470901D01*
X298021117Y-115470895D01*
X298023687Y-115462301D01*
X298023897Y-115427861D01*
X298023930Y-115427078D01*
X298024101Y-115425981D01*
X298024101Y-115394990D01*
X298024103Y-115394220D01*
X298024553Y-115320582D01*
X298024553Y-115320581D01*
X298024577Y-115316646D01*
X298024193Y-115315302D01*
X298024101Y-115313957D01*
X298024101Y-101394990D01*
X298024103Y-101394220D01*
X298024401Y-101345469D01*
X298024577Y-101316646D01*
X298016451Y-101288214D01*
X298012873Y-101271452D01*
X298009953Y-101251065D01*
X298008681Y-101242180D01*
X297998052Y-101218803D01*
X297991605Y-101201280D01*
X297987017Y-101185229D01*
X297984550Y-101176596D01*
X297979757Y-101168999D01*
X297968771Y-101151587D01*
X297960631Y-101136502D01*
X297958165Y-101131078D01*
X297948393Y-101109585D01*
X297931631Y-101090132D01*
X297920528Y-101075128D01*
X297906825Y-101053409D01*
X297900100Y-101047470D01*
X297900097Y-101047466D01*
X297884663Y-101033835D01*
X297872619Y-101021643D01*
X297859174Y-101006040D01*
X297859171Y-101006038D01*
X297853314Y-100999240D01*
X297839610Y-100990357D01*
X297831766Y-100985273D01*
X297816892Y-100973982D01*
X297804384Y-100962936D01*
X297804383Y-100962935D01*
X297797650Y-100956989D01*
X297770888Y-100944424D01*
X297755910Y-100936104D01*
X297738618Y-100924896D01*
X297738613Y-100924894D01*
X297731086Y-100920015D01*
X297722493Y-100917445D01*
X297722488Y-100917443D01*
X297706481Y-100912656D01*
X297689037Y-100905995D01*
X297673925Y-100898900D01*
X297673923Y-100898899D01*
X297665801Y-100895086D01*
X297656934Y-100893705D01*
X297656933Y-100893705D01*
X297646079Y-100892015D01*
X297636584Y-100890537D01*
X297619869Y-100886754D01*
X297600135Y-100880852D01*
X297600129Y-100880851D01*
X297591535Y-100878281D01*
X297582564Y-100878226D01*
X297582563Y-100878226D01*
X297572504Y-100878165D01*
X297557095Y-100878071D01*
X297556312Y-100878038D01*
X297555215Y-100877867D01*
X297524224Y-100877867D01*
X297523454Y-100877865D01*
X297449816Y-100877415D01*
X297449815Y-100877415D01*
X297445880Y-100877391D01*
X297444536Y-100877775D01*
X297443191Y-100877867D01*
X283524224Y-100877867D01*
X283523454Y-100877865D01*
X283522638Y-100877860D01*
X283445880Y-100877391D01*
X283423519Y-100883782D01*
X283417448Y-100885517D01*
X283400686Y-100889095D01*
X283371414Y-100893287D01*
X283363246Y-100897001D01*
X283363245Y-100897001D01*
X283348039Y-100903915D01*
X283330515Y-100910363D01*
X283305830Y-100917418D01*
X283298236Y-100922210D01*
X283298233Y-100922211D01*
X283280821Y-100933197D01*
X283265738Y-100941336D01*
X283238819Y-100953575D01*
X283232017Y-100959436D01*
X283219366Y-100970337D01*
X283204362Y-100981440D01*
X283182643Y-100995143D01*
X283176704Y-101001868D01*
X283176700Y-101001871D01*
X283163069Y-101017305D01*
X283150877Y-101029349D01*
X283135274Y-101042794D01*
X283135272Y-101042797D01*
X283128474Y-101048654D01*
X283123594Y-101056183D01*
X283123593Y-101056184D01*
X283114507Y-101070202D01*
X283103216Y-101085076D01*
X283092170Y-101097584D01*
X283086223Y-101104318D01*
X283079913Y-101117758D01*
X283073659Y-101131078D01*
X283065338Y-101146058D01*
X283054130Y-101163350D01*
X283054128Y-101163355D01*
X283049249Y-101170882D01*
X283046679Y-101179475D01*
X283046677Y-101179480D01*
X283041890Y-101195487D01*
X283035229Y-101212931D01*
X283028134Y-101228043D01*
X283024320Y-101236167D01*
X283022939Y-101245034D01*
X283022939Y-101245035D01*
X283019771Y-101265382D01*
X283015988Y-101282099D01*
X283010086Y-101301833D01*
X283010085Y-101301839D01*
X283007515Y-101310433D01*
X283007460Y-101319404D01*
X283007460Y-101319405D01*
X283007305Y-101344864D01*
X283007272Y-101345656D01*
X283007101Y-101346753D01*
X283007101Y-101377744D01*
X283007099Y-101378514D01*
X283006625Y-101456088D01*
X283007009Y-101457432D01*
X283007101Y-101458777D01*
X283007101Y-115377744D01*
X283007099Y-115378514D01*
X283006625Y-115456088D01*
X278624101Y-115456088D01*
X278624101Y-108994990D01*
X278624103Y-108994220D01*
X278624401Y-108945469D01*
X278624577Y-108916646D01*
X278616451Y-108888214D01*
X278612873Y-108871452D01*
X278609953Y-108851065D01*
X278608681Y-108842180D01*
X278598052Y-108818803D01*
X278591605Y-108801280D01*
X278587017Y-108785229D01*
X278584550Y-108776596D01*
X278579757Y-108768999D01*
X278568771Y-108751587D01*
X278560631Y-108736502D01*
X278558165Y-108731078D01*
X278548393Y-108709585D01*
X278531631Y-108690132D01*
X278520528Y-108675128D01*
X278506825Y-108653409D01*
X278500100Y-108647470D01*
X278500097Y-108647466D01*
X278484663Y-108633835D01*
X278472619Y-108621643D01*
X278459174Y-108606040D01*
X278459171Y-108606038D01*
X278453314Y-108599240D01*
X278439610Y-108590357D01*
X278431766Y-108585273D01*
X278416892Y-108573982D01*
X278404384Y-108562936D01*
X278404383Y-108562935D01*
X278397650Y-108556989D01*
X278370888Y-108544424D01*
X278355910Y-108536104D01*
X278338618Y-108524896D01*
X278338613Y-108524894D01*
X278331086Y-108520015D01*
X278322493Y-108517445D01*
X278322488Y-108517443D01*
X278306481Y-108512656D01*
X278289037Y-108505995D01*
X278273925Y-108498900D01*
X278273923Y-108498899D01*
X278265801Y-108495086D01*
X278256934Y-108493705D01*
X278256933Y-108493705D01*
X278246079Y-108492015D01*
X278236584Y-108490537D01*
X278219869Y-108486754D01*
X278200135Y-108480852D01*
X278200129Y-108480851D01*
X278191535Y-108478281D01*
X278182564Y-108478226D01*
X278182563Y-108478226D01*
X278172504Y-108478165D01*
X278157095Y-108478071D01*
X278156312Y-108478038D01*
X278155215Y-108477867D01*
X278124224Y-108477867D01*
X278123454Y-108477865D01*
X278049816Y-108477415D01*
X278049815Y-108477415D01*
X278045880Y-108477391D01*
X278044536Y-108477775D01*
X278043191Y-108477867D01*
X264124224Y-108477867D01*
X264123454Y-108477865D01*
X264122638Y-108477860D01*
X264045880Y-108477391D01*
X264023519Y-108483782D01*
X264017448Y-108485517D01*
X264000686Y-108489095D01*
X263971414Y-108493287D01*
X263963246Y-108497001D01*
X263963245Y-108497001D01*
X263948039Y-108503915D01*
X263930515Y-108510363D01*
X263905830Y-108517418D01*
X263898236Y-108522210D01*
X263898233Y-108522211D01*
X263880821Y-108533197D01*
X263865738Y-108541336D01*
X263838819Y-108553575D01*
X263832017Y-108559436D01*
X263819366Y-108570337D01*
X263804362Y-108581440D01*
X263782643Y-108595143D01*
X263776704Y-108601868D01*
X263776700Y-108601871D01*
X263763069Y-108617305D01*
X263750877Y-108629349D01*
X263735274Y-108642794D01*
X263735272Y-108642797D01*
X263728474Y-108648654D01*
X263723594Y-108656183D01*
X263723593Y-108656184D01*
X263714507Y-108670202D01*
X263703216Y-108685076D01*
X263692170Y-108697584D01*
X263686223Y-108704318D01*
X263679913Y-108717758D01*
X263673659Y-108731078D01*
X263665338Y-108746058D01*
X263654130Y-108763350D01*
X263654128Y-108763355D01*
X263649249Y-108770882D01*
X263646679Y-108779475D01*
X263646677Y-108779480D01*
X263641890Y-108795487D01*
X263635229Y-108812931D01*
X263628134Y-108828043D01*
X263624320Y-108836167D01*
X263622939Y-108845034D01*
X263622939Y-108845035D01*
X263619771Y-108865382D01*
X263615988Y-108882099D01*
X263610086Y-108901833D01*
X263610085Y-108901839D01*
X263607515Y-108910433D01*
X263607460Y-108919404D01*
X263607460Y-108919405D01*
X263607305Y-108944864D01*
X263607272Y-108945656D01*
X263607101Y-108946753D01*
X263607101Y-108977744D01*
X263607099Y-108978514D01*
X263606625Y-109056088D01*
X263607009Y-109057432D01*
X263607101Y-109058777D01*
X263607101Y-122977744D01*
X263607099Y-122978514D01*
X263606625Y-123056088D01*
X217602465Y-123056088D01*
X220647459Y-122125140D01*
X220648195Y-122124917D01*
X220713809Y-122105294D01*
X220722406Y-122102723D01*
X220729938Y-122097841D01*
X220729940Y-122097840D01*
X220747217Y-122086642D01*
X220762197Y-122078321D01*
X220788970Y-122065751D01*
X220795695Y-122059811D01*
X220795699Y-122059809D01*
X220808219Y-122048751D01*
X220823094Y-122037460D01*
X220844633Y-122023499D01*
X220850588Y-122016589D01*
X220857390Y-122008694D01*
X220863933Y-122001101D01*
X220875973Y-121988913D01*
X220891415Y-121975274D01*
X220898145Y-121969330D01*
X220902934Y-121961739D01*
X220902937Y-121961736D01*
X220911848Y-121947612D01*
X220922960Y-121932595D01*
X220933850Y-121919957D01*
X220939713Y-121913153D01*
X220943429Y-121904980D01*
X220943431Y-121904977D01*
X220951949Y-121886242D01*
X220960087Y-121871159D01*
X220971079Y-121853737D01*
X220975870Y-121846144D01*
X220982926Y-121821454D01*
X220989374Y-121803929D01*
X220996285Y-121788729D01*
X220996285Y-121788728D01*
X221000000Y-121780558D01*
X221002150Y-121765550D01*
X221002753Y-121761333D01*
X221004191Y-121751298D01*
X221007768Y-121734538D01*
X221013432Y-121714722D01*
X221013433Y-121714715D01*
X221015897Y-121706093D01*
X221015740Y-121680411D01*
X221017011Y-121661780D01*
X221019377Y-121645260D01*
X221019377Y-121645254D01*
X221020649Y-121636372D01*
X221019377Y-121627487D01*
X221016458Y-121607101D01*
X221015188Y-121590012D01*
X221015062Y-121569415D01*
X221015062Y-121569414D01*
X221015007Y-121560438D01*
X221005144Y-121527459D01*
X221004940Y-121526678D01*
X221004784Y-121525584D01*
X221003908Y-121522720D01*
X221003905Y-121522707D01*
X220995680Y-121495804D01*
X220995457Y-121495067D01*
X220974401Y-121424661D01*
X220974400Y-121424657D01*
X220973272Y-121420887D01*
X220972513Y-121419716D01*
X220972032Y-121418456D01*
X216902471Y-108107523D01*
X216902248Y-108106786D01*
X216899371Y-108097167D01*
X216880068Y-108032621D01*
X216863985Y-108007807D01*
X216855668Y-107992834D01*
X216855547Y-107992577D01*
X216843096Y-107966057D01*
X216826096Y-107946808D01*
X216814805Y-107931933D01*
X216812800Y-107928840D01*
X216800844Y-107910394D01*
X216778446Y-107891094D01*
X216766258Y-107879054D01*
X216752619Y-107863612D01*
X216746675Y-107856882D01*
X216739084Y-107852093D01*
X216739081Y-107852090D01*
X216724957Y-107843179D01*
X216709940Y-107832067D01*
X216697302Y-107821177D01*
X216697303Y-107821177D01*
X216690498Y-107815314D01*
X216682325Y-107811598D01*
X216682322Y-107811596D01*
X216663587Y-107803078D01*
X216648504Y-107794940D01*
X216631082Y-107783948D01*
X216623489Y-107779157D01*
X216598799Y-107772101D01*
X216581274Y-107765653D01*
X216566074Y-107758742D01*
X216566073Y-107758742D01*
X216557903Y-107755027D01*
X216549017Y-107753754D01*
X216549016Y-107753754D01*
X216538678Y-107752274D01*
X216528643Y-107750836D01*
X216511883Y-107747259D01*
X216492067Y-107741595D01*
X216492060Y-107741594D01*
X216483438Y-107739130D01*
X216457756Y-107739287D01*
X216439125Y-107738016D01*
X216422605Y-107735650D01*
X216422599Y-107735650D01*
X216419282Y-107735175D01*
X223502992Y-107735175D01*
X223504497Y-107744026D01*
X223504497Y-107744028D01*
X223508762Y-107769113D01*
X223508869Y-107769914D01*
X223508891Y-107771015D01*
X223509407Y-107773943D01*
X223509409Y-107773956D01*
X223514281Y-107801586D01*
X223514412Y-107802342D01*
X223527408Y-107878772D01*
X223528020Y-107880030D01*
X223528343Y-107881336D01*
X225945360Y-121588911D01*
X225945491Y-121589670D01*
X225958483Y-121666081D01*
X225962413Y-121674156D01*
X225962413Y-121674157D01*
X225971424Y-121692673D01*
X225977858Y-121708558D01*
X225987069Y-121736655D01*
X225992148Y-121744058D01*
X225992148Y-121744059D01*
X226001593Y-121757827D01*
X226010988Y-121773969D01*
X226018294Y-121788982D01*
X226018296Y-121788985D01*
X226022222Y-121797052D01*
X226028255Y-121803693D01*
X226028255Y-121803694D01*
X226042101Y-121818937D01*
X226052736Y-121832380D01*
X226064385Y-121849362D01*
X226064390Y-121849367D01*
X226069466Y-121856767D01*
X226076419Y-121862448D01*
X226076420Y-121862449D01*
X226089349Y-121873013D01*
X226102894Y-121885866D01*
X226120157Y-121904871D01*
X226145387Y-121920301D01*
X226159359Y-121930212D01*
X226182262Y-121948925D01*
X226190525Y-121952424D01*
X226190528Y-121952426D01*
X226205910Y-121958940D01*
X226222514Y-121967472D01*
X226244417Y-121980868D01*
X226253082Y-121983214D01*
X226253084Y-121983215D01*
X226272955Y-121988595D01*
X226289150Y-121994187D01*
X226316390Y-122005722D01*
X226341907Y-122008697D01*
X226360237Y-122012227D01*
X226376345Y-122016589D01*
X226376350Y-122016590D01*
X226385012Y-122018935D01*
X226414576Y-122018342D01*
X226431690Y-122019165D01*
X226452147Y-122021550D01*
X226452154Y-122021550D01*
X226461068Y-122022589D01*
X226469919Y-122021084D01*
X226469921Y-122021084D01*
X226495006Y-122016819D01*
X226495807Y-122016712D01*
X226496908Y-122016690D01*
X226499836Y-122016174D01*
X226499849Y-122016172D01*
X226527479Y-122011300D01*
X226528235Y-122011169D01*
X226554164Y-122006760D01*
X226604665Y-121998173D01*
X226605923Y-121997561D01*
X226607229Y-121997238D01*
X240314804Y-119580221D01*
X240315563Y-119580090D01*
X240328962Y-119577812D01*
X240391974Y-119567098D01*
X240418573Y-119554154D01*
X240434450Y-119547723D01*
X240454017Y-119541309D01*
X240454019Y-119541308D01*
X240462548Y-119538512D01*
X240483719Y-119523988D01*
X240499861Y-119514594D01*
X240514873Y-119507289D01*
X240514877Y-119507286D01*
X240522945Y-119503360D01*
X240544834Y-119483477D01*
X240558276Y-119472843D01*
X240575258Y-119461193D01*
X240575259Y-119461192D01*
X240582660Y-119456115D01*
X240598902Y-119436236D01*
X240611756Y-119422690D01*
X240624122Y-119411458D01*
X240624124Y-119411455D01*
X240630764Y-119405424D01*
X240636670Y-119395767D01*
X240646197Y-119380192D01*
X240656111Y-119366216D01*
X240669137Y-119350272D01*
X240674818Y-119343319D01*
X240678317Y-119335056D01*
X240678320Y-119335051D01*
X240684829Y-119319678D01*
X240693367Y-119303066D01*
X240702076Y-119288827D01*
X240702079Y-119288821D01*
X240706761Y-119281165D01*
X240714488Y-119252628D01*
X240720083Y-119236427D01*
X240728113Y-119217463D01*
X240728114Y-119217458D01*
X240731615Y-119209191D01*
X240734588Y-119183686D01*
X240738119Y-119165347D01*
X240742482Y-119149233D01*
X240744828Y-119140570D01*
X240744235Y-119111005D01*
X240745058Y-119093891D01*
X240747443Y-119073434D01*
X240747443Y-119073427D01*
X240748482Y-119064513D01*
X240742712Y-119030578D01*
X240742605Y-119029780D01*
X240742583Y-119028674D01*
X240737173Y-118997994D01*
X240737042Y-118997233D01*
X240724727Y-118924806D01*
X240724066Y-118920916D01*
X240723453Y-118919655D01*
X240723131Y-118918354D01*
X238306124Y-105210832D01*
X238305993Y-105210073D01*
X238294496Y-105142457D01*
X238294495Y-105142455D01*
X238292991Y-105133607D01*
X238280047Y-105107008D01*
X238273616Y-105091131D01*
X238267202Y-105071564D01*
X238267201Y-105071562D01*
X238264405Y-105063033D01*
X238249881Y-105041861D01*
X238240487Y-105025720D01*
X238233182Y-105010708D01*
X238233179Y-105010704D01*
X238229253Y-105002636D01*
X238209370Y-104980747D01*
X238198736Y-104967305D01*
X238187086Y-104950323D01*
X238187085Y-104950322D01*
X238182008Y-104942921D01*
X238162129Y-104926679D01*
X238148583Y-104913825D01*
X238137351Y-104901459D01*
X238137348Y-104901457D01*
X238131317Y-104894817D01*
X238121660Y-104888911D01*
X238106085Y-104879384D01*
X238092109Y-104869470D01*
X238076165Y-104856444D01*
X238069212Y-104850763D01*
X238060949Y-104847264D01*
X238060944Y-104847261D01*
X238045571Y-104840752D01*
X238028959Y-104832214D01*
X238014720Y-104823505D01*
X238014714Y-104823502D01*
X238007058Y-104818820D01*
X237988587Y-104813819D01*
X237978521Y-104811093D01*
X237962320Y-104805498D01*
X237943356Y-104797468D01*
X237943351Y-104797467D01*
X237935084Y-104793966D01*
X237926167Y-104792926D01*
X237926165Y-104792926D01*
X237915098Y-104791636D01*
X237909579Y-104790993D01*
X237891244Y-104787463D01*
X237866463Y-104780753D01*
X237836898Y-104781346D01*
X237819784Y-104780523D01*
X237799327Y-104778138D01*
X237799320Y-104778138D01*
X237790406Y-104777099D01*
X237756472Y-104782869D01*
X237755673Y-104782976D01*
X237754567Y-104782998D01*
X237729252Y-104787462D01*
X237723887Y-104788408D01*
X237723126Y-104788539D01*
X237650701Y-104800853D01*
X237650698Y-104800854D01*
X237646809Y-104801515D01*
X237645548Y-104802128D01*
X237644253Y-104802449D01*
X232388042Y-105729261D01*
X223936725Y-107219457D01*
X223935966Y-107219588D01*
X223899653Y-107225763D01*
X223859500Y-107232590D01*
X223851426Y-107236519D01*
X223851421Y-107236521D01*
X223832907Y-107245531D01*
X223817018Y-107251967D01*
X223797459Y-107258378D01*
X223797454Y-107258380D01*
X223788926Y-107261176D01*
X223781523Y-107266255D01*
X223781522Y-107266255D01*
X223767754Y-107275700D01*
X223751612Y-107285095D01*
X223736599Y-107292401D01*
X223736596Y-107292403D01*
X223728529Y-107296329D01*
X223721888Y-107302362D01*
X223721887Y-107302362D01*
X223706644Y-107316208D01*
X223693201Y-107326843D01*
X223676219Y-107338492D01*
X223676214Y-107338497D01*
X223668814Y-107343573D01*
X223663133Y-107350526D01*
X223663132Y-107350527D01*
X223652568Y-107363456D01*
X223639715Y-107377001D01*
X223620710Y-107394264D01*
X223605280Y-107419494D01*
X223595369Y-107433466D01*
X223576656Y-107456369D01*
X223573157Y-107464632D01*
X223573155Y-107464635D01*
X223566641Y-107480017D01*
X223558109Y-107496621D01*
X223544713Y-107518524D01*
X223542367Y-107527189D01*
X223542366Y-107527191D01*
X223536986Y-107547062D01*
X223531394Y-107563257D01*
X223519859Y-107590497D01*
X223516884Y-107616014D01*
X223513354Y-107634344D01*
X223508992Y-107650452D01*
X223508991Y-107650457D01*
X223506646Y-107659119D01*
X223506826Y-107668093D01*
X223507239Y-107688680D01*
X223506416Y-107705797D01*
X223504031Y-107726254D01*
X223504031Y-107726261D01*
X223502992Y-107735175D01*
X216419282Y-107735175D01*
X216413717Y-107734378D01*
X216404835Y-107735650D01*
X216404832Y-107735650D01*
X216384446Y-107738569D01*
X216367357Y-107739839D01*
X216346761Y-107739965D01*
X216346760Y-107739965D01*
X216337783Y-107740020D01*
X216329181Y-107742593D01*
X216329178Y-107742593D01*
X216304795Y-107749885D01*
X216304021Y-107750087D01*
X216302929Y-107750243D01*
X216273115Y-107759358D01*
X216272559Y-107759526D01*
X216252071Y-107765653D01*
X216202013Y-107780623D01*
X216202010Y-107780624D01*
X216198232Y-107781754D01*
X216197056Y-107782516D01*
X216195805Y-107782994D01*
X207950116Y-110303954D01*
X202884938Y-111852534D01*
X202884201Y-111852757D01*
X202818565Y-111872386D01*
X202818563Y-111872387D01*
X202809966Y-111874958D01*
X202802436Y-111879839D01*
X202785155Y-111891040D01*
X202770173Y-111899362D01*
X202743402Y-111911931D01*
X202736673Y-111917874D01*
X202724153Y-111928931D01*
X202709279Y-111940221D01*
X202695270Y-111949301D01*
X202695268Y-111949303D01*
X202687739Y-111954183D01*
X202668432Y-111976589D01*
X202656396Y-111988772D01*
X202634227Y-112008352D01*
X202620526Y-112030067D01*
X202609419Y-112045077D01*
X202592659Y-112064528D01*
X202588944Y-112072700D01*
X202580423Y-112091441D01*
X202572283Y-112106526D01*
X202561294Y-112123942D01*
X202561292Y-112123947D01*
X202556502Y-112131538D01*
X202554035Y-112140169D01*
X202554034Y-112140172D01*
X202549448Y-112156220D01*
X202543000Y-112173747D01*
X202536088Y-112188949D01*
X202536087Y-112188952D01*
X202532372Y-112197123D01*
X202531099Y-112206011D01*
X202531098Y-112206015D01*
X202528179Y-112226394D01*
X202524601Y-112243154D01*
X202518942Y-112262955D01*
X202518941Y-112262960D01*
X202516475Y-112271589D01*
X202516530Y-112280563D01*
X202516632Y-112297269D01*
X202515361Y-112315899D01*
X202511722Y-112341310D01*
X195309142Y-112341310D01*
X195310025Y-94171519D01*
X196956659Y-94171519D01*
X196960851Y-94200787D01*
X196962121Y-94217877D01*
X196962302Y-94247453D01*
X196964875Y-94256055D01*
X196964875Y-94256058D01*
X196972167Y-94280441D01*
X196972369Y-94281215D01*
X196972525Y-94282307D01*
X196973397Y-94285159D01*
X196981604Y-94312001D01*
X196981808Y-94312677D01*
X197004036Y-94387004D01*
X197004798Y-94388180D01*
X197005276Y-94389431D01*
X201010106Y-107488636D01*
X201074771Y-107700147D01*
X201074995Y-107700885D01*
X201092471Y-107759322D01*
X201097240Y-107775270D01*
X201102122Y-107782801D01*
X201102122Y-107782802D01*
X201113323Y-107800082D01*
X201121646Y-107815067D01*
X201129628Y-107832067D01*
X201134213Y-107841834D01*
X201140153Y-107848560D01*
X201140155Y-107848563D01*
X201151213Y-107861083D01*
X201162503Y-107875957D01*
X201165990Y-107881336D01*
X201176465Y-107897497D01*
X201198871Y-107916804D01*
X201211054Y-107928840D01*
X201230634Y-107951009D01*
X201252353Y-107964713D01*
X201267359Y-107975817D01*
X201286810Y-107992577D01*
X201313723Y-108004813D01*
X201328808Y-108012953D01*
X201346224Y-108023942D01*
X201346229Y-108023944D01*
X201353820Y-108028734D01*
X201362451Y-108031201D01*
X201362454Y-108031202D01*
X201378502Y-108035788D01*
X201396029Y-108042236D01*
X201411231Y-108049148D01*
X201411234Y-108049149D01*
X201419405Y-108052864D01*
X201428293Y-108054137D01*
X201428297Y-108054138D01*
X201448676Y-108057057D01*
X201465436Y-108060635D01*
X201485237Y-108066294D01*
X201485242Y-108066295D01*
X201493871Y-108068761D01*
X201519553Y-108068604D01*
X201538181Y-108069875D01*
X201563592Y-108073514D01*
X201592865Y-108069322D01*
X201609950Y-108068052D01*
X201630549Y-108067926D01*
X201630550Y-108067926D01*
X201639526Y-108067871D01*
X201648125Y-108065299D01*
X201648127Y-108065299D01*
X201672505Y-108058008D01*
X201673286Y-108057804D01*
X201674380Y-108057648D01*
X201677244Y-108056772D01*
X201677257Y-108056769D01*
X201704160Y-108048544D01*
X201704897Y-108048321D01*
X201775303Y-108027265D01*
X201775307Y-108027264D01*
X201779077Y-108026136D01*
X201780248Y-108025377D01*
X201781508Y-108024896D01*
X215092396Y-103955349D01*
X215093132Y-103955126D01*
X215158746Y-103935503D01*
X215167343Y-103932932D01*
X215174875Y-103928050D01*
X215174877Y-103928049D01*
X215192154Y-103916851D01*
X215207134Y-103908530D01*
X215233907Y-103895960D01*
X215240632Y-103890020D01*
X215240636Y-103890018D01*
X215253156Y-103878960D01*
X215268031Y-103867669D01*
X215289570Y-103853708D01*
X215308870Y-103831310D01*
X215320910Y-103819122D01*
X215336352Y-103805483D01*
X215343082Y-103799539D01*
X215347871Y-103791948D01*
X215347874Y-103791945D01*
X215356785Y-103777821D01*
X215367897Y-103762804D01*
X215378787Y-103750166D01*
X215384650Y-103743362D01*
X215388366Y-103735189D01*
X215388368Y-103735186D01*
X215396886Y-103716451D01*
X215405024Y-103701368D01*
X215416016Y-103683946D01*
X215420807Y-103676353D01*
X215427863Y-103651663D01*
X215434311Y-103634138D01*
X215441222Y-103618938D01*
X215441222Y-103618937D01*
X215444937Y-103610767D01*
X215449128Y-103581507D01*
X215452705Y-103564747D01*
X215458369Y-103544931D01*
X215458370Y-103544924D01*
X215460834Y-103536302D01*
X215460677Y-103510620D01*
X215461948Y-103491989D01*
X215464314Y-103475469D01*
X215464314Y-103475463D01*
X215465586Y-103466581D01*
X215464314Y-103457696D01*
X215461395Y-103437310D01*
X215460125Y-103420221D01*
X215459999Y-103399624D01*
X215459999Y-103399623D01*
X215459944Y-103390647D01*
X215450081Y-103357668D01*
X215449877Y-103356887D01*
X215449721Y-103355793D01*
X215448845Y-103352929D01*
X215448842Y-103352916D01*
X215440617Y-103326013D01*
X215440394Y-103325276D01*
X215419338Y-103254870D01*
X215419337Y-103254866D01*
X215418209Y-103251096D01*
X215417450Y-103249925D01*
X215416969Y-103248665D01*
X211347408Y-89937732D01*
X211347185Y-89936995D01*
X211332596Y-89888214D01*
X211325005Y-89862830D01*
X211308922Y-89838016D01*
X211300605Y-89823043D01*
X211295857Y-89812931D01*
X211288033Y-89796266D01*
X211271033Y-89777017D01*
X211259742Y-89762142D01*
X211245781Y-89740603D01*
X211223383Y-89721303D01*
X211211195Y-89709263D01*
X211197556Y-89693821D01*
X211191612Y-89687091D01*
X211184021Y-89682302D01*
X211184018Y-89682299D01*
X211169894Y-89673388D01*
X211154877Y-89662276D01*
X211142239Y-89651386D01*
X211142240Y-89651386D01*
X211135435Y-89645523D01*
X211127262Y-89641807D01*
X211127259Y-89641805D01*
X211108524Y-89633287D01*
X211093441Y-89625149D01*
X211087884Y-89621643D01*
X211068426Y-89609366D01*
X211043736Y-89602310D01*
X211026211Y-89595862D01*
X211011011Y-89588951D01*
X211011010Y-89588951D01*
X211002840Y-89585236D01*
X210993954Y-89583963D01*
X210993953Y-89583963D01*
X210983615Y-89582483D01*
X210973580Y-89581045D01*
X210956820Y-89577468D01*
X210937004Y-89571804D01*
X210936997Y-89571803D01*
X210928375Y-89569339D01*
X210902693Y-89569496D01*
X210884062Y-89568225D01*
X210867542Y-89565859D01*
X210867536Y-89565859D01*
X210858654Y-89564587D01*
X210849772Y-89565859D01*
X210849769Y-89565859D01*
X210829383Y-89568778D01*
X210812294Y-89570048D01*
X210791698Y-89570174D01*
X210791697Y-89570174D01*
X210782720Y-89570229D01*
X210774118Y-89572802D01*
X210774115Y-89572802D01*
X210749732Y-89580094D01*
X210748958Y-89580296D01*
X210747866Y-89580452D01*
X210718052Y-89589567D01*
X210717496Y-89589735D01*
X210697008Y-89595862D01*
X210646950Y-89610832D01*
X210646947Y-89610833D01*
X210643169Y-89611963D01*
X210641993Y-89612725D01*
X210640742Y-89613203D01*
X200865023Y-92601940D01*
X197329875Y-93682743D01*
X197329138Y-93682966D01*
X197263502Y-93702595D01*
X197263500Y-93702596D01*
X197254903Y-93705167D01*
X197247373Y-93710048D01*
X197230092Y-93721249D01*
X197215110Y-93729571D01*
X197188339Y-93742140D01*
X197181610Y-93748083D01*
X197169090Y-93759140D01*
X197154216Y-93770430D01*
X197140207Y-93779510D01*
X197140205Y-93779512D01*
X197132676Y-93784392D01*
X197113369Y-93806798D01*
X197101333Y-93818981D01*
X197079164Y-93838561D01*
X197065463Y-93860276D01*
X197054356Y-93875286D01*
X197037596Y-93894737D01*
X197033881Y-93902909D01*
X197025360Y-93921650D01*
X197017220Y-93936735D01*
X197006231Y-93954151D01*
X197006229Y-93954156D01*
X197001439Y-93961747D01*
X196998972Y-93970378D01*
X196998971Y-93970381D01*
X196994385Y-93986429D01*
X196987937Y-94003956D01*
X196981025Y-94019158D01*
X196981024Y-94019161D01*
X196977309Y-94027332D01*
X196976036Y-94036220D01*
X196976035Y-94036224D01*
X196973116Y-94056603D01*
X196969538Y-94073363D01*
X196963879Y-94093164D01*
X196963878Y-94093169D01*
X196961412Y-94101798D01*
X196961467Y-94110772D01*
X196961569Y-94127478D01*
X196960298Y-94146108D01*
X196956659Y-94171519D01*
X195310025Y-94171519D01*
X195310102Y-92596404D01*
X195310276Y-89023828D01*
X220203676Y-89023828D01*
X220205181Y-89032679D01*
X220205181Y-89032681D01*
X220209446Y-89057766D01*
X220209553Y-89058567D01*
X220209575Y-89059668D01*
X220210091Y-89062596D01*
X220210093Y-89062609D01*
X220214965Y-89090239D01*
X220215096Y-89090995D01*
X220228092Y-89167425D01*
X220228704Y-89168683D01*
X220229027Y-89169989D01*
X222646044Y-102877564D01*
X222646175Y-102878323D01*
X222659167Y-102954734D01*
X222663097Y-102962809D01*
X222663097Y-102962810D01*
X222672108Y-102981326D01*
X222678542Y-102997211D01*
X222687753Y-103025308D01*
X222692832Y-103032711D01*
X222692832Y-103032712D01*
X222702277Y-103046480D01*
X222711672Y-103062622D01*
X222718978Y-103077635D01*
X222718980Y-103077638D01*
X222722906Y-103085705D01*
X222728939Y-103092346D01*
X222728939Y-103092347D01*
X222742785Y-103107590D01*
X222753420Y-103121033D01*
X222765069Y-103138015D01*
X222765074Y-103138020D01*
X222770150Y-103145420D01*
X222777103Y-103151101D01*
X222777104Y-103151102D01*
X222790033Y-103161666D01*
X222803578Y-103174519D01*
X222820841Y-103193524D01*
X222846071Y-103208954D01*
X222860043Y-103218865D01*
X222882946Y-103237578D01*
X222891209Y-103241077D01*
X222891212Y-103241079D01*
X222906594Y-103247593D01*
X222923198Y-103256125D01*
X222945101Y-103269521D01*
X222953766Y-103271867D01*
X222953768Y-103271868D01*
X222973639Y-103277248D01*
X222989834Y-103282840D01*
X223017074Y-103294375D01*
X223042591Y-103297350D01*
X223060921Y-103300880D01*
X223077029Y-103305242D01*
X223077034Y-103305243D01*
X223085696Y-103307588D01*
X223115260Y-103306995D01*
X223132374Y-103307818D01*
X223152831Y-103310203D01*
X223152838Y-103310203D01*
X223161752Y-103311242D01*
X223170603Y-103309737D01*
X223170605Y-103309737D01*
X223195690Y-103305472D01*
X223196491Y-103305365D01*
X223197592Y-103305343D01*
X223200520Y-103304827D01*
X223200533Y-103304825D01*
X223228163Y-103299953D01*
X223228919Y-103299822D01*
X223254848Y-103295413D01*
X223305349Y-103286826D01*
X223306607Y-103286214D01*
X223307913Y-103285891D01*
X237015488Y-100868874D01*
X237016247Y-100868743D01*
X237029646Y-100866465D01*
X237092658Y-100855751D01*
X237119257Y-100842807D01*
X237135134Y-100836376D01*
X237154701Y-100829962D01*
X237154703Y-100829961D01*
X237163232Y-100827165D01*
X237184403Y-100812641D01*
X237200545Y-100803247D01*
X237215557Y-100795942D01*
X237215561Y-100795939D01*
X237223629Y-100792013D01*
X237245518Y-100772130D01*
X237258960Y-100761496D01*
X237275942Y-100749846D01*
X237275943Y-100749845D01*
X237283344Y-100744768D01*
X237299586Y-100724889D01*
X237312440Y-100711343D01*
X237324806Y-100700111D01*
X237324808Y-100700108D01*
X237331448Y-100694077D01*
X237337354Y-100684420D01*
X237346881Y-100668845D01*
X237356795Y-100654869D01*
X237369821Y-100638925D01*
X237375502Y-100631972D01*
X237379001Y-100623709D01*
X237379004Y-100623704D01*
X237385513Y-100608331D01*
X237394051Y-100591719D01*
X237402760Y-100577480D01*
X237402763Y-100577474D01*
X237407445Y-100569818D01*
X237415172Y-100541281D01*
X237420767Y-100525080D01*
X237428797Y-100506116D01*
X237428798Y-100506111D01*
X237432299Y-100497844D01*
X237435272Y-100472339D01*
X237438803Y-100454000D01*
X237443166Y-100437886D01*
X237445512Y-100429223D01*
X237444919Y-100399658D01*
X237445742Y-100382544D01*
X237448127Y-100362087D01*
X237448127Y-100362080D01*
X237449166Y-100353166D01*
X237443396Y-100319231D01*
X237443289Y-100318433D01*
X237443267Y-100317327D01*
X237437857Y-100286647D01*
X237437726Y-100285886D01*
X237425411Y-100213459D01*
X237424750Y-100209569D01*
X237424137Y-100208308D01*
X237423815Y-100207007D01*
X236865171Y-97038781D01*
X242650560Y-97038781D01*
X242651288Y-97047730D01*
X242653350Y-97073087D01*
X242653387Y-97073895D01*
X242653313Y-97074998D01*
X242656027Y-97106020D01*
X242656080Y-97106658D01*
X242662368Y-97183959D01*
X242662869Y-97185268D01*
X242663075Y-97186587D01*
X243328160Y-104788539D01*
X243876210Y-111052781D01*
X243876274Y-111053548D01*
X243882548Y-111130685D01*
X243885756Y-111139063D01*
X243885757Y-111139069D01*
X243893121Y-111158303D01*
X243898145Y-111174685D01*
X243902830Y-111194735D01*
X243904874Y-111203482D01*
X243909289Y-111211301D01*
X243917498Y-111225840D01*
X243925447Y-111242731D01*
X243934629Y-111266713D01*
X243952532Y-111290256D01*
X243961948Y-111304565D01*
X243972074Y-111322500D01*
X243972077Y-111322504D01*
X243976489Y-111330318D01*
X243994881Y-111348234D01*
X244007254Y-111362220D01*
X244022795Y-111382657D01*
X244046583Y-111400228D01*
X244059634Y-111411315D01*
X244080823Y-111431956D01*
X244088752Y-111436163D01*
X244103507Y-111443992D01*
X244119310Y-111453944D01*
X244139958Y-111469195D01*
X244167716Y-111479381D01*
X244183356Y-111486360D01*
X244209491Y-111500227D01*
X244218280Y-111502039D01*
X244218283Y-111502040D01*
X244234641Y-111505412D01*
X244252605Y-111510529D01*
X244276701Y-111519371D01*
X244295349Y-111520626D01*
X244306202Y-111521357D01*
X244323180Y-111523667D01*
X244343358Y-111527827D01*
X244343361Y-111527827D01*
X244352149Y-111529639D01*
X244370554Y-111528142D01*
X244386453Y-111526849D01*
X244387258Y-111526812D01*
X244388366Y-111526887D01*
X244397165Y-111526117D01*
X244419444Y-111524168D01*
X244420212Y-111524103D01*
X244478392Y-111519371D01*
X244497327Y-111517831D01*
X244498632Y-111517331D01*
X244499949Y-111517125D01*
X258366299Y-110303977D01*
X258367066Y-110303913D01*
X258435108Y-110298379D01*
X258435111Y-110298378D01*
X258444053Y-110297651D01*
X258452431Y-110294444D01*
X258452433Y-110294443D01*
X258471664Y-110287080D01*
X258488049Y-110282055D01*
X258508107Y-110277369D01*
X258508109Y-110277368D01*
X258516850Y-110275326D01*
X258539215Y-110262698D01*
X258556106Y-110254750D01*
X258580081Y-110245571D01*
X258603624Y-110227668D01*
X258617933Y-110218252D01*
X258635868Y-110208126D01*
X258635872Y-110208123D01*
X258643686Y-110203711D01*
X258661605Y-110185316D01*
X258675588Y-110172946D01*
X258696025Y-110157405D01*
X258713596Y-110133617D01*
X258724683Y-110120566D01*
X258739060Y-110105807D01*
X258745324Y-110099377D01*
X258757360Y-110076693D01*
X258767312Y-110060890D01*
X258777229Y-110047464D01*
X258777230Y-110047462D01*
X258782563Y-110040242D01*
X258792749Y-110012484D01*
X258799728Y-109996844D01*
X258813595Y-109970709D01*
X258818780Y-109945558D01*
X258823898Y-109927592D01*
X258829646Y-109911928D01*
X258832739Y-109903499D01*
X258834725Y-109873998D01*
X258837035Y-109857020D01*
X258841195Y-109836842D01*
X258841195Y-109836839D01*
X258843007Y-109828051D01*
X258840217Y-109793747D01*
X258840180Y-109792942D01*
X258840255Y-109791833D01*
X258837535Y-109760740D01*
X258837471Y-109759989D01*
X258831518Y-109686796D01*
X258831199Y-109682873D01*
X258830699Y-109681568D01*
X258830493Y-109680251D01*
X258338443Y-104056088D01*
X263606625Y-104056088D01*
X263609092Y-104064719D01*
X263614751Y-104084520D01*
X263618329Y-104101282D01*
X263622521Y-104130554D01*
X263626235Y-104138722D01*
X263626235Y-104138723D01*
X263633149Y-104153929D01*
X263639597Y-104171453D01*
X263646652Y-104196138D01*
X263651444Y-104203732D01*
X263651445Y-104203735D01*
X263662431Y-104221147D01*
X263670570Y-104236230D01*
X263682809Y-104263149D01*
X263688670Y-104269951D01*
X263699571Y-104282602D01*
X263710674Y-104297606D01*
X263724377Y-104319325D01*
X263731102Y-104325264D01*
X263731105Y-104325268D01*
X263746539Y-104338899D01*
X263758583Y-104351091D01*
X263772028Y-104366694D01*
X263772031Y-104366696D01*
X263777888Y-104373494D01*
X263785417Y-104378374D01*
X263785418Y-104378375D01*
X263799436Y-104387461D01*
X263814310Y-104398752D01*
X263826818Y-104409798D01*
X263833552Y-104415745D01*
X263860312Y-104428309D01*
X263875292Y-104436630D01*
X263892584Y-104447838D01*
X263892589Y-104447840D01*
X263900116Y-104452719D01*
X263908709Y-104455289D01*
X263908714Y-104455291D01*
X263924721Y-104460078D01*
X263942165Y-104466739D01*
X263957277Y-104473834D01*
X263957279Y-104473835D01*
X263965401Y-104477648D01*
X263974268Y-104479029D01*
X263974269Y-104479029D01*
X263976954Y-104479447D01*
X263994618Y-104482197D01*
X264011333Y-104485980D01*
X264031067Y-104491882D01*
X264031073Y-104491883D01*
X264039667Y-104494453D01*
X264048638Y-104494508D01*
X264048639Y-104494508D01*
X264058698Y-104494569D01*
X264074107Y-104494663D01*
X264074890Y-104494696D01*
X264075987Y-104494867D01*
X264106978Y-104494867D01*
X264107748Y-104494869D01*
X264181386Y-104495319D01*
X264181387Y-104495319D01*
X264185322Y-104495343D01*
X264186666Y-104494959D01*
X264188011Y-104494867D01*
X278106978Y-104494867D01*
X278107749Y-104494869D01*
X278185322Y-104495343D01*
X278213753Y-104487217D01*
X278230516Y-104483639D01*
X278231354Y-104483519D01*
X278259788Y-104479447D01*
X278283165Y-104468818D01*
X278300688Y-104462371D01*
X278325372Y-104455316D01*
X278332966Y-104450524D01*
X278332969Y-104450523D01*
X278350381Y-104439537D01*
X278365466Y-104431397D01*
X278392383Y-104419159D01*
X278411836Y-104402397D01*
X278426840Y-104391294D01*
X278448559Y-104377591D01*
X278454498Y-104370866D01*
X278454502Y-104370863D01*
X278468133Y-104355429D01*
X278480325Y-104343385D01*
X278495928Y-104329940D01*
X278495930Y-104329937D01*
X278502728Y-104324080D01*
X278516695Y-104302532D01*
X278527986Y-104287658D01*
X278539032Y-104275150D01*
X278539033Y-104275149D01*
X278544979Y-104268416D01*
X278557544Y-104241654D01*
X278565864Y-104226676D01*
X278577072Y-104209384D01*
X278577074Y-104209379D01*
X278581953Y-104201852D01*
X278584523Y-104193259D01*
X278584525Y-104193254D01*
X278589312Y-104177247D01*
X278595973Y-104159803D01*
X278603068Y-104144691D01*
X278603069Y-104144689D01*
X278606882Y-104136567D01*
X278611431Y-104107350D01*
X278615214Y-104090635D01*
X278621116Y-104070901D01*
X278621117Y-104070895D01*
X278623687Y-104062301D01*
X278623897Y-104027861D01*
X278623930Y-104027078D01*
X278624101Y-104025981D01*
X278624101Y-103994990D01*
X278624103Y-103994220D01*
X278624553Y-103920582D01*
X278624553Y-103920581D01*
X278624577Y-103916646D01*
X278624193Y-103915302D01*
X278624101Y-103913957D01*
X278624101Y-96456088D01*
X283006625Y-96456088D01*
X283009092Y-96464719D01*
X283014751Y-96484520D01*
X283018329Y-96501282D01*
X283022521Y-96530554D01*
X283026235Y-96538722D01*
X283026235Y-96538723D01*
X283033149Y-96553929D01*
X283039597Y-96571453D01*
X283046652Y-96596138D01*
X283051444Y-96603732D01*
X283051445Y-96603735D01*
X283062431Y-96621147D01*
X283070570Y-96636230D01*
X283082809Y-96663149D01*
X283088670Y-96669951D01*
X283099571Y-96682602D01*
X283110674Y-96697606D01*
X283124377Y-96719325D01*
X283131102Y-96725264D01*
X283131105Y-96725268D01*
X283146539Y-96738899D01*
X283158583Y-96751091D01*
X283172028Y-96766694D01*
X283172031Y-96766696D01*
X283177888Y-96773494D01*
X283185417Y-96778374D01*
X283185418Y-96778375D01*
X283199436Y-96787461D01*
X283214310Y-96798752D01*
X283222452Y-96805942D01*
X283233552Y-96815745D01*
X283260312Y-96828309D01*
X283275292Y-96836630D01*
X283292584Y-96847838D01*
X283292589Y-96847840D01*
X283300116Y-96852719D01*
X283308709Y-96855289D01*
X283308714Y-96855291D01*
X283324721Y-96860078D01*
X283342165Y-96866739D01*
X283357277Y-96873834D01*
X283357279Y-96873835D01*
X283365401Y-96877648D01*
X283374268Y-96879029D01*
X283374269Y-96879029D01*
X283376954Y-96879447D01*
X283394618Y-96882197D01*
X283411333Y-96885980D01*
X283431067Y-96891882D01*
X283431073Y-96891883D01*
X283439667Y-96894453D01*
X283448638Y-96894508D01*
X283448639Y-96894508D01*
X283458698Y-96894569D01*
X283474107Y-96894663D01*
X283474890Y-96894696D01*
X283475987Y-96894867D01*
X283506978Y-96894867D01*
X283507748Y-96894869D01*
X283581386Y-96895319D01*
X283581387Y-96895319D01*
X283585322Y-96895343D01*
X283586666Y-96894959D01*
X283588011Y-96894867D01*
X297506978Y-96894867D01*
X297507749Y-96894869D01*
X297585322Y-96895343D01*
X297613753Y-96887217D01*
X297630516Y-96883639D01*
X297631354Y-96883519D01*
X297659788Y-96879447D01*
X297683165Y-96868818D01*
X297700688Y-96862371D01*
X297725372Y-96855316D01*
X297732966Y-96850524D01*
X297732969Y-96850523D01*
X297750381Y-96839537D01*
X297765466Y-96831397D01*
X297792383Y-96819159D01*
X297811836Y-96802397D01*
X297826840Y-96791294D01*
X297848559Y-96777591D01*
X297854498Y-96770866D01*
X297854502Y-96770863D01*
X297868133Y-96755429D01*
X297880325Y-96743385D01*
X297895928Y-96729940D01*
X297895930Y-96729937D01*
X297902728Y-96724080D01*
X297916695Y-96702532D01*
X297927986Y-96687658D01*
X297939032Y-96675150D01*
X297939033Y-96675149D01*
X297944979Y-96668416D01*
X297957544Y-96641654D01*
X297965864Y-96626676D01*
X297977072Y-96609384D01*
X297977074Y-96609379D01*
X297981953Y-96601852D01*
X297984523Y-96593259D01*
X297984525Y-96593254D01*
X297989312Y-96577247D01*
X297995973Y-96559803D01*
X298003068Y-96544691D01*
X298003069Y-96544689D01*
X298006882Y-96536567D01*
X298011431Y-96507350D01*
X298015214Y-96490635D01*
X298021116Y-96470901D01*
X298021117Y-96470895D01*
X298023687Y-96462301D01*
X298023897Y-96427861D01*
X298023930Y-96427078D01*
X298024101Y-96425981D01*
X298024101Y-96394990D01*
X298024103Y-96394220D01*
X298024553Y-96320582D01*
X298024553Y-96320581D01*
X298024577Y-96316646D01*
X298024193Y-96315302D01*
X298024101Y-96313957D01*
X298024101Y-82394990D01*
X298024103Y-82394220D01*
X298024401Y-82345469D01*
X298024577Y-82316646D01*
X298016451Y-82288214D01*
X298012873Y-82271452D01*
X298009953Y-82251065D01*
X298008681Y-82242180D01*
X297998052Y-82218803D01*
X297991605Y-82201280D01*
X297987017Y-82185229D01*
X297984550Y-82176596D01*
X297979757Y-82168999D01*
X297968771Y-82151587D01*
X297960631Y-82136502D01*
X297948393Y-82109585D01*
X297931631Y-82090132D01*
X297920528Y-82075128D01*
X297906825Y-82053409D01*
X297900100Y-82047470D01*
X297900097Y-82047466D01*
X297884663Y-82033835D01*
X297872619Y-82021643D01*
X297859174Y-82006040D01*
X297859171Y-82006038D01*
X297853314Y-81999240D01*
X297839610Y-81990357D01*
X297831766Y-81985273D01*
X297816892Y-81973982D01*
X297804384Y-81962936D01*
X297804383Y-81962935D01*
X297797650Y-81956989D01*
X297770888Y-81944424D01*
X297755910Y-81936104D01*
X297738618Y-81924896D01*
X297738613Y-81924894D01*
X297731086Y-81920015D01*
X297722493Y-81917445D01*
X297722488Y-81917443D01*
X297706481Y-81912656D01*
X297689037Y-81905995D01*
X297673925Y-81898900D01*
X297673923Y-81898899D01*
X297665801Y-81895086D01*
X297656934Y-81893705D01*
X297656933Y-81893705D01*
X297646079Y-81892015D01*
X297636584Y-81890537D01*
X297619869Y-81886754D01*
X297600135Y-81880852D01*
X297600129Y-81880851D01*
X297591535Y-81878281D01*
X297582564Y-81878226D01*
X297582563Y-81878226D01*
X297572504Y-81878165D01*
X297557095Y-81878071D01*
X297556312Y-81878038D01*
X297555215Y-81877867D01*
X297524224Y-81877867D01*
X297523454Y-81877865D01*
X297449816Y-81877415D01*
X297449815Y-81877415D01*
X297445880Y-81877391D01*
X297444536Y-81877775D01*
X297443191Y-81877867D01*
X283524224Y-81877867D01*
X283523454Y-81877865D01*
X283522638Y-81877860D01*
X283445880Y-81877391D01*
X283423519Y-81883782D01*
X283417448Y-81885517D01*
X283400686Y-81889095D01*
X283371414Y-81893287D01*
X283363246Y-81897001D01*
X283363245Y-81897001D01*
X283348039Y-81903915D01*
X283330515Y-81910363D01*
X283305830Y-81917418D01*
X283298236Y-81922210D01*
X283298233Y-81922211D01*
X283280821Y-81933197D01*
X283265738Y-81941336D01*
X283238819Y-81953575D01*
X283232017Y-81959436D01*
X283219366Y-81970337D01*
X283204362Y-81981440D01*
X283182643Y-81995143D01*
X283176704Y-82001868D01*
X283176700Y-82001871D01*
X283163069Y-82017305D01*
X283150877Y-82029349D01*
X283135274Y-82042794D01*
X283135272Y-82042797D01*
X283128474Y-82048654D01*
X283123594Y-82056183D01*
X283123593Y-82056184D01*
X283114507Y-82070202D01*
X283103216Y-82085076D01*
X283097190Y-82091900D01*
X283086223Y-82104318D01*
X283076499Y-82125029D01*
X283073659Y-82131078D01*
X283065338Y-82146058D01*
X283054130Y-82163350D01*
X283054128Y-82163355D01*
X283049249Y-82170882D01*
X283046679Y-82179475D01*
X283046677Y-82179480D01*
X283041890Y-82195487D01*
X283035229Y-82212931D01*
X283028134Y-82228043D01*
X283024320Y-82236167D01*
X283022939Y-82245034D01*
X283022939Y-82245035D01*
X283019771Y-82265382D01*
X283015988Y-82282099D01*
X283010086Y-82301833D01*
X283010085Y-82301839D01*
X283007515Y-82310433D01*
X283007460Y-82319404D01*
X283007460Y-82319405D01*
X283007305Y-82344864D01*
X283007272Y-82345656D01*
X283007101Y-82346753D01*
X283007101Y-82377744D01*
X283007099Y-82378514D01*
X283006625Y-82456088D01*
X283007009Y-82457432D01*
X283007101Y-82458777D01*
X283007101Y-96377744D01*
X283007099Y-96378514D01*
X283006625Y-96456088D01*
X278624101Y-96456088D01*
X278624101Y-89994990D01*
X278624103Y-89994220D01*
X278624401Y-89945469D01*
X278624577Y-89916646D01*
X278616451Y-89888214D01*
X278612873Y-89871452D01*
X278611638Y-89862830D01*
X278608681Y-89842180D01*
X278598052Y-89818803D01*
X278591605Y-89801280D01*
X278589949Y-89795487D01*
X278584550Y-89776596D01*
X278579757Y-89768999D01*
X278568771Y-89751587D01*
X278560631Y-89736502D01*
X278558165Y-89731078D01*
X278548393Y-89709585D01*
X278531631Y-89690132D01*
X278520528Y-89675128D01*
X278506825Y-89653409D01*
X278500100Y-89647470D01*
X278500097Y-89647466D01*
X278484663Y-89633835D01*
X278472619Y-89621643D01*
X278459174Y-89606040D01*
X278459171Y-89606038D01*
X278453314Y-89599240D01*
X278439610Y-89590357D01*
X278431766Y-89585273D01*
X278416892Y-89573982D01*
X278404384Y-89562936D01*
X278404383Y-89562935D01*
X278397650Y-89556989D01*
X278370888Y-89544424D01*
X278355910Y-89536104D01*
X278338618Y-89524896D01*
X278338613Y-89524894D01*
X278331086Y-89520015D01*
X278322493Y-89517445D01*
X278322488Y-89517443D01*
X278306481Y-89512656D01*
X278289037Y-89505995D01*
X278273925Y-89498900D01*
X278273923Y-89498899D01*
X278265801Y-89495086D01*
X278256934Y-89493705D01*
X278256933Y-89493705D01*
X278246079Y-89492015D01*
X278236584Y-89490537D01*
X278219869Y-89486754D01*
X278200135Y-89480852D01*
X278200129Y-89480851D01*
X278191535Y-89478281D01*
X278182564Y-89478226D01*
X278182563Y-89478226D01*
X278172504Y-89478165D01*
X278157095Y-89478071D01*
X278156312Y-89478038D01*
X278155215Y-89477867D01*
X278124224Y-89477867D01*
X278123454Y-89477865D01*
X278049816Y-89477415D01*
X278049815Y-89477415D01*
X278045880Y-89477391D01*
X278044536Y-89477775D01*
X278043191Y-89477867D01*
X264124224Y-89477867D01*
X264123454Y-89477865D01*
X264122638Y-89477860D01*
X264045880Y-89477391D01*
X264023519Y-89483782D01*
X264017448Y-89485517D01*
X264000686Y-89489095D01*
X263971414Y-89493287D01*
X263963246Y-89497001D01*
X263963245Y-89497001D01*
X263948039Y-89503915D01*
X263930515Y-89510363D01*
X263905830Y-89517418D01*
X263898236Y-89522210D01*
X263898233Y-89522211D01*
X263880821Y-89533197D01*
X263865738Y-89541336D01*
X263838819Y-89553575D01*
X263832017Y-89559436D01*
X263819366Y-89570337D01*
X263804362Y-89581440D01*
X263782643Y-89595143D01*
X263776704Y-89601868D01*
X263776700Y-89601871D01*
X263763069Y-89617305D01*
X263750877Y-89629349D01*
X263735274Y-89642794D01*
X263735272Y-89642797D01*
X263728474Y-89648654D01*
X263723594Y-89656183D01*
X263723593Y-89656184D01*
X263714507Y-89670202D01*
X263703216Y-89685076D01*
X263692170Y-89697584D01*
X263686223Y-89704318D01*
X263673659Y-89731078D01*
X263665338Y-89746058D01*
X263654130Y-89763350D01*
X263654128Y-89763355D01*
X263649249Y-89770882D01*
X263646679Y-89779475D01*
X263646677Y-89779480D01*
X263641890Y-89795487D01*
X263635229Y-89812931D01*
X263628134Y-89828043D01*
X263624320Y-89836167D01*
X263622939Y-89845034D01*
X263622939Y-89845035D01*
X263619771Y-89865382D01*
X263615988Y-89882099D01*
X263610086Y-89901833D01*
X263610085Y-89901839D01*
X263607515Y-89910433D01*
X263607460Y-89919404D01*
X263607460Y-89919405D01*
X263607305Y-89944864D01*
X263607272Y-89945656D01*
X263607101Y-89946753D01*
X263607101Y-89977744D01*
X263607099Y-89978514D01*
X263606625Y-90056088D01*
X263607009Y-90057432D01*
X263607101Y-90058777D01*
X263607101Y-103977744D01*
X263607099Y-103978514D01*
X263606625Y-104056088D01*
X258338443Y-104056088D01*
X257617345Y-95813901D01*
X257617281Y-95813134D01*
X257611747Y-95745092D01*
X257611746Y-95745089D01*
X257611019Y-95736147D01*
X257600448Y-95708536D01*
X257595423Y-95692151D01*
X257590737Y-95672093D01*
X257590736Y-95672091D01*
X257588694Y-95663350D01*
X257576066Y-95640985D01*
X257568118Y-95624094D01*
X257558939Y-95600119D01*
X257541036Y-95576576D01*
X257531620Y-95562267D01*
X257521494Y-95544332D01*
X257521491Y-95544328D01*
X257517079Y-95536514D01*
X257498684Y-95518595D01*
X257486314Y-95504612D01*
X257470773Y-95484175D01*
X257446985Y-95466604D01*
X257433934Y-95455517D01*
X257419175Y-95441140D01*
X257412745Y-95434876D01*
X257390061Y-95422840D01*
X257374258Y-95412888D01*
X257360832Y-95402971D01*
X257360830Y-95402970D01*
X257353610Y-95397637D01*
X257325852Y-95387451D01*
X257310212Y-95380472D01*
X257284077Y-95366605D01*
X257258914Y-95361417D01*
X257240974Y-95356307D01*
X257216867Y-95347461D01*
X257187363Y-95345475D01*
X257170387Y-95343165D01*
X257141419Y-95337192D01*
X257107097Y-95339983D01*
X257106309Y-95340019D01*
X257105201Y-95339945D01*
X257102210Y-95340207D01*
X257102204Y-95340207D01*
X257074272Y-95342651D01*
X257073504Y-95342716D01*
X257000170Y-95348680D01*
X257000164Y-95348681D01*
X256996241Y-95349000D01*
X256994935Y-95349500D01*
X256993613Y-95349707D01*
X243127419Y-96562842D01*
X243126652Y-96562906D01*
X243058461Y-96568452D01*
X243058458Y-96568453D01*
X243049515Y-96569180D01*
X243041137Y-96572388D01*
X243041131Y-96572389D01*
X243021897Y-96579753D01*
X243005515Y-96584777D01*
X242985465Y-96589462D01*
X242985463Y-96589463D01*
X242976718Y-96591506D01*
X242958395Y-96601852D01*
X242954360Y-96604130D01*
X242937469Y-96612079D01*
X242913487Y-96621261D01*
X242889944Y-96639164D01*
X242875635Y-96648580D01*
X242857700Y-96658706D01*
X242857696Y-96658709D01*
X242849882Y-96663121D01*
X242831966Y-96681513D01*
X242817980Y-96693886D01*
X242797543Y-96709427D01*
X242779972Y-96733215D01*
X242768885Y-96746266D01*
X242748244Y-96767455D01*
X242737629Y-96787461D01*
X242736208Y-96790139D01*
X242726256Y-96805942D01*
X242716494Y-96819159D01*
X242711005Y-96826590D01*
X242700819Y-96854348D01*
X242693840Y-96869988D01*
X242679973Y-96896123D01*
X242674785Y-96921286D01*
X242669675Y-96939226D01*
X242660829Y-96963333D01*
X242660227Y-96972285D01*
X242658844Y-96992833D01*
X242656533Y-97009813D01*
X242650560Y-97038781D01*
X236865171Y-97038781D01*
X235006808Y-86499485D01*
X235006677Y-86498726D01*
X234995180Y-86431110D01*
X234995179Y-86431108D01*
X234993675Y-86422260D01*
X234980731Y-86395661D01*
X234974300Y-86379784D01*
X234967886Y-86360217D01*
X234967885Y-86360215D01*
X234965089Y-86351686D01*
X234950565Y-86330514D01*
X234941171Y-86314373D01*
X234933866Y-86299361D01*
X234933863Y-86299357D01*
X234929937Y-86291289D01*
X234910054Y-86269400D01*
X234899420Y-86255958D01*
X234887770Y-86238976D01*
X234887769Y-86238975D01*
X234882692Y-86231574D01*
X234862813Y-86215332D01*
X234849267Y-86202478D01*
X234838035Y-86190112D01*
X234838032Y-86190110D01*
X234832001Y-86183470D01*
X234822344Y-86177564D01*
X234806769Y-86168037D01*
X234792793Y-86158123D01*
X234776849Y-86145097D01*
X234769896Y-86139416D01*
X234761633Y-86135917D01*
X234761628Y-86135914D01*
X234746255Y-86129405D01*
X234729643Y-86120867D01*
X234715404Y-86112158D01*
X234715398Y-86112155D01*
X234707742Y-86107473D01*
X234689271Y-86102472D01*
X234679205Y-86099746D01*
X234663004Y-86094151D01*
X234644040Y-86086121D01*
X234644035Y-86086120D01*
X234635768Y-86082619D01*
X234626851Y-86081579D01*
X234626849Y-86081579D01*
X234615782Y-86080289D01*
X234610263Y-86079646D01*
X234591928Y-86076116D01*
X234567147Y-86069406D01*
X234537582Y-86069999D01*
X234520468Y-86069176D01*
X234500011Y-86066791D01*
X234500004Y-86066791D01*
X234491090Y-86065752D01*
X234457156Y-86071522D01*
X234456357Y-86071629D01*
X234455251Y-86071651D01*
X234429936Y-86076115D01*
X234424571Y-86077061D01*
X234423810Y-86077192D01*
X234351385Y-86089506D01*
X234351382Y-86089507D01*
X234347493Y-86090168D01*
X234346232Y-86090781D01*
X234344937Y-86091102D01*
X229088726Y-87017914D01*
X220637409Y-88508110D01*
X220636650Y-88508241D01*
X220600337Y-88514416D01*
X220560184Y-88521243D01*
X220552110Y-88525172D01*
X220552105Y-88525174D01*
X220533591Y-88534184D01*
X220517702Y-88540620D01*
X220498143Y-88547031D01*
X220498138Y-88547033D01*
X220489610Y-88549829D01*
X220482207Y-88554908D01*
X220482206Y-88554908D01*
X220468438Y-88564353D01*
X220452296Y-88573748D01*
X220437283Y-88581054D01*
X220437280Y-88581056D01*
X220429213Y-88584982D01*
X220422572Y-88591015D01*
X220422571Y-88591015D01*
X220407328Y-88604861D01*
X220393885Y-88615496D01*
X220376903Y-88627145D01*
X220376898Y-88627150D01*
X220369498Y-88632226D01*
X220363817Y-88639179D01*
X220363816Y-88639180D01*
X220353252Y-88652109D01*
X220340399Y-88665654D01*
X220321394Y-88682917D01*
X220305964Y-88708147D01*
X220296053Y-88722119D01*
X220277340Y-88745022D01*
X220273841Y-88753285D01*
X220273839Y-88753288D01*
X220267325Y-88768670D01*
X220258793Y-88785274D01*
X220245397Y-88807177D01*
X220243051Y-88815842D01*
X220243050Y-88815844D01*
X220237670Y-88835715D01*
X220232078Y-88851910D01*
X220220543Y-88879150D01*
X220217568Y-88904667D01*
X220214038Y-88922997D01*
X220209676Y-88939105D01*
X220209675Y-88939110D01*
X220207330Y-88947772D01*
X220207510Y-88956746D01*
X220207923Y-88977333D01*
X220207100Y-88994450D01*
X220204715Y-89014907D01*
X220204715Y-89014914D01*
X220203676Y-89023828D01*
X195310276Y-89023828D01*
X195311187Y-70312481D01*
X216904361Y-70312481D01*
X216905866Y-70321332D01*
X216905866Y-70321334D01*
X216910131Y-70346419D01*
X216910238Y-70347220D01*
X216910260Y-70348321D01*
X216910776Y-70351249D01*
X216910778Y-70351262D01*
X216915650Y-70378892D01*
X216915781Y-70379648D01*
X216928777Y-70456078D01*
X216929389Y-70457336D01*
X216929712Y-70458642D01*
X219346729Y-84166217D01*
X219346860Y-84166976D01*
X219359852Y-84243387D01*
X219363782Y-84251462D01*
X219363782Y-84251463D01*
X219372793Y-84269979D01*
X219379227Y-84285864D01*
X219388438Y-84313961D01*
X219393517Y-84321364D01*
X219393517Y-84321365D01*
X219402962Y-84335133D01*
X219412357Y-84351275D01*
X219419663Y-84366288D01*
X219419665Y-84366291D01*
X219423591Y-84374358D01*
X219429624Y-84380999D01*
X219429624Y-84381000D01*
X219443470Y-84396243D01*
X219454105Y-84409686D01*
X219465754Y-84426668D01*
X219465759Y-84426673D01*
X219470835Y-84434073D01*
X219477788Y-84439754D01*
X219477789Y-84439755D01*
X219490718Y-84450319D01*
X219504263Y-84463172D01*
X219521526Y-84482177D01*
X219546756Y-84497607D01*
X219560728Y-84507518D01*
X219583631Y-84526231D01*
X219591894Y-84529730D01*
X219591897Y-84529732D01*
X219607279Y-84536246D01*
X219623883Y-84544778D01*
X219645786Y-84558174D01*
X219654451Y-84560520D01*
X219654453Y-84560521D01*
X219674324Y-84565901D01*
X219690519Y-84571493D01*
X219717759Y-84583028D01*
X219743276Y-84586003D01*
X219761606Y-84589533D01*
X219777714Y-84593895D01*
X219777719Y-84593896D01*
X219786381Y-84596241D01*
X219815945Y-84595648D01*
X219833059Y-84596471D01*
X219853516Y-84598856D01*
X219853523Y-84598856D01*
X219862437Y-84599895D01*
X219871288Y-84598390D01*
X219871290Y-84598390D01*
X219896375Y-84594125D01*
X219897176Y-84594018D01*
X219898277Y-84593996D01*
X219901205Y-84593480D01*
X219901218Y-84593478D01*
X219928848Y-84588606D01*
X219929604Y-84588475D01*
X219955533Y-84584066D01*
X220006034Y-84575479D01*
X220007292Y-84574867D01*
X220008598Y-84574544D01*
X233716173Y-82157527D01*
X233716932Y-82157396D01*
X233730331Y-82155118D01*
X233793343Y-82144404D01*
X233819942Y-82131460D01*
X233835819Y-82125029D01*
X233855386Y-82118615D01*
X233855388Y-82118614D01*
X233863917Y-82115818D01*
X233885088Y-82101294D01*
X233901230Y-82091900D01*
X233916242Y-82084595D01*
X233916246Y-82084592D01*
X233924314Y-82080666D01*
X233946203Y-82060783D01*
X233959645Y-82050149D01*
X233976627Y-82038499D01*
X233976628Y-82038498D01*
X233984029Y-82033421D01*
X234000271Y-82013542D01*
X234013125Y-81999996D01*
X234025491Y-81988764D01*
X234025493Y-81988761D01*
X234032133Y-81982730D01*
X234039713Y-81970337D01*
X234047566Y-81957498D01*
X234057480Y-81943522D01*
X234070506Y-81927578D01*
X234076187Y-81920625D01*
X234079686Y-81912362D01*
X234079689Y-81912357D01*
X234086198Y-81896984D01*
X234094736Y-81880372D01*
X234103445Y-81866133D01*
X234103448Y-81866127D01*
X234108130Y-81858471D01*
X234115857Y-81829934D01*
X234121452Y-81813733D01*
X234129482Y-81794769D01*
X234129483Y-81794764D01*
X234132984Y-81786497D01*
X234135957Y-81760992D01*
X234139488Y-81742653D01*
X234143851Y-81726539D01*
X234146197Y-81717876D01*
X234145604Y-81688311D01*
X234146427Y-81671197D01*
X234148812Y-81650740D01*
X234148812Y-81650733D01*
X234149851Y-81641819D01*
X234144081Y-81607884D01*
X234143974Y-81607086D01*
X234143952Y-81605980D01*
X234138542Y-81575300D01*
X234138411Y-81574539D01*
X234126096Y-81502112D01*
X234125435Y-81498222D01*
X234124822Y-81496961D01*
X234124500Y-81495660D01*
X233527707Y-78111082D01*
X240994600Y-78111082D01*
X240995328Y-78120031D01*
X240997390Y-78145388D01*
X240997427Y-78146196D01*
X240997353Y-78147299D01*
X241000067Y-78178321D01*
X241000120Y-78178959D01*
X241006408Y-78256260D01*
X241006909Y-78257569D01*
X241007115Y-78258888D01*
X241617348Y-85233878D01*
X242220250Y-92125082D01*
X242220314Y-92125849D01*
X242226588Y-92202986D01*
X242229796Y-92211364D01*
X242229797Y-92211370D01*
X242237161Y-92230604D01*
X242242185Y-92246986D01*
X242246870Y-92267036D01*
X242248914Y-92275783D01*
X242253329Y-92283602D01*
X242261538Y-92298141D01*
X242269487Y-92315032D01*
X242278669Y-92339014D01*
X242296572Y-92362557D01*
X242305988Y-92376866D01*
X242316114Y-92394801D01*
X242316117Y-92394805D01*
X242320529Y-92402619D01*
X242338921Y-92420535D01*
X242351294Y-92434521D01*
X242366835Y-92454958D01*
X242390623Y-92472529D01*
X242403674Y-92483616D01*
X242424863Y-92504257D01*
X242432792Y-92508464D01*
X242447547Y-92516293D01*
X242463350Y-92526245D01*
X242483998Y-92541496D01*
X242511756Y-92551682D01*
X242527396Y-92558661D01*
X242553531Y-92572528D01*
X242562320Y-92574340D01*
X242562323Y-92574341D01*
X242578681Y-92577713D01*
X242596645Y-92582830D01*
X242620741Y-92591672D01*
X242639389Y-92592927D01*
X242650242Y-92593658D01*
X242667220Y-92595968D01*
X242687398Y-92600128D01*
X242687401Y-92600128D01*
X242696189Y-92601940D01*
X242714594Y-92600443D01*
X242730493Y-92599150D01*
X242731298Y-92599113D01*
X242732406Y-92599188D01*
X242741205Y-92598418D01*
X242763484Y-92596469D01*
X242764252Y-92596404D01*
X242822432Y-92591672D01*
X242841367Y-92590132D01*
X242842672Y-92589632D01*
X242843989Y-92589426D01*
X256710339Y-91376278D01*
X256711106Y-91376214D01*
X256779148Y-91370680D01*
X256779151Y-91370679D01*
X256788093Y-91369952D01*
X256796471Y-91366745D01*
X256796473Y-91366744D01*
X256815704Y-91359381D01*
X256832089Y-91354356D01*
X256852147Y-91349670D01*
X256852149Y-91349669D01*
X256860890Y-91347627D01*
X256883255Y-91334999D01*
X256900146Y-91327051D01*
X256924121Y-91317872D01*
X256947664Y-91299969D01*
X256961973Y-91290553D01*
X256979908Y-91280427D01*
X256979912Y-91280424D01*
X256987726Y-91276012D01*
X257005645Y-91257617D01*
X257019628Y-91245247D01*
X257040065Y-91229706D01*
X257057636Y-91205918D01*
X257068723Y-91192867D01*
X257083100Y-91178108D01*
X257089364Y-91171678D01*
X257101400Y-91148994D01*
X257111352Y-91133191D01*
X257121269Y-91119765D01*
X257121270Y-91119763D01*
X257126603Y-91112543D01*
X257136789Y-91084785D01*
X257143768Y-91069145D01*
X257157635Y-91043010D01*
X257162820Y-91017859D01*
X257167938Y-90999893D01*
X257173686Y-90984229D01*
X257176779Y-90975800D01*
X257178765Y-90946299D01*
X257181075Y-90929321D01*
X257185235Y-90909143D01*
X257185235Y-90909140D01*
X257187047Y-90900352D01*
X257184257Y-90866048D01*
X257184220Y-90865243D01*
X257184295Y-90864134D01*
X257181575Y-90833041D01*
X257181511Y-90832290D01*
X257175558Y-90759097D01*
X257175239Y-90755174D01*
X257174739Y-90753869D01*
X257174533Y-90752552D01*
X256676157Y-85056088D01*
X263606625Y-85056088D01*
X263609092Y-85064719D01*
X263614751Y-85084520D01*
X263618329Y-85101282D01*
X263622521Y-85130554D01*
X263626235Y-85138722D01*
X263626235Y-85138723D01*
X263633149Y-85153929D01*
X263639597Y-85171453D01*
X263646652Y-85196138D01*
X263651444Y-85203732D01*
X263651445Y-85203735D01*
X263662431Y-85221147D01*
X263670570Y-85236230D01*
X263682809Y-85263149D01*
X263688670Y-85269951D01*
X263699571Y-85282602D01*
X263710674Y-85297606D01*
X263724377Y-85319325D01*
X263731102Y-85325264D01*
X263731105Y-85325268D01*
X263746539Y-85338899D01*
X263758583Y-85351091D01*
X263772028Y-85366694D01*
X263772031Y-85366696D01*
X263777888Y-85373494D01*
X263785417Y-85378374D01*
X263785418Y-85378375D01*
X263799436Y-85387461D01*
X263814310Y-85398752D01*
X263826818Y-85409798D01*
X263833552Y-85415745D01*
X263860312Y-85428309D01*
X263875292Y-85436630D01*
X263892584Y-85447838D01*
X263892589Y-85447840D01*
X263900116Y-85452719D01*
X263908709Y-85455289D01*
X263908714Y-85455291D01*
X263924721Y-85460078D01*
X263942165Y-85466739D01*
X263957277Y-85473834D01*
X263957279Y-85473835D01*
X263965401Y-85477648D01*
X263974268Y-85479029D01*
X263974269Y-85479029D01*
X263976954Y-85479447D01*
X263994618Y-85482197D01*
X264011333Y-85485980D01*
X264031067Y-85491882D01*
X264031073Y-85491883D01*
X264039667Y-85494453D01*
X264048638Y-85494508D01*
X264048639Y-85494508D01*
X264058698Y-85494569D01*
X264074107Y-85494663D01*
X264074890Y-85494696D01*
X264075987Y-85494867D01*
X264106978Y-85494867D01*
X264107748Y-85494869D01*
X264181386Y-85495319D01*
X264181387Y-85495319D01*
X264185322Y-85495343D01*
X264186666Y-85494959D01*
X264188011Y-85494867D01*
X278106978Y-85494867D01*
X278107749Y-85494869D01*
X278185322Y-85495343D01*
X278213753Y-85487217D01*
X278230516Y-85483639D01*
X278231354Y-85483519D01*
X278259788Y-85479447D01*
X278283165Y-85468818D01*
X278300688Y-85462371D01*
X278325372Y-85455316D01*
X278332966Y-85450524D01*
X278332969Y-85450523D01*
X278350381Y-85439537D01*
X278365466Y-85431397D01*
X278392383Y-85419159D01*
X278411836Y-85402397D01*
X278426840Y-85391294D01*
X278448559Y-85377591D01*
X278454498Y-85370866D01*
X278454502Y-85370863D01*
X278468133Y-85355429D01*
X278480325Y-85343385D01*
X278495928Y-85329940D01*
X278495930Y-85329937D01*
X278502728Y-85324080D01*
X278516695Y-85302532D01*
X278527986Y-85287658D01*
X278539032Y-85275150D01*
X278539033Y-85275149D01*
X278544979Y-85268416D01*
X278557544Y-85241654D01*
X278565864Y-85226676D01*
X278577072Y-85209384D01*
X278577074Y-85209379D01*
X278581953Y-85201852D01*
X278584523Y-85193259D01*
X278584525Y-85193254D01*
X278589312Y-85177247D01*
X278595973Y-85159803D01*
X278603068Y-85144691D01*
X278603069Y-85144689D01*
X278606882Y-85136567D01*
X278611431Y-85107350D01*
X278615214Y-85090635D01*
X278621116Y-85070901D01*
X278621117Y-85070895D01*
X278623687Y-85062301D01*
X278623897Y-85027861D01*
X278623930Y-85027078D01*
X278624101Y-85025981D01*
X278624101Y-84994990D01*
X278624103Y-84994220D01*
X278624553Y-84920582D01*
X278624553Y-84920581D01*
X278624577Y-84916646D01*
X278624193Y-84915302D01*
X278624101Y-84913957D01*
X278624101Y-70994990D01*
X278624103Y-70994220D01*
X278624401Y-70945469D01*
X278624577Y-70916646D01*
X278616451Y-70888214D01*
X278612873Y-70871452D01*
X278609953Y-70851065D01*
X278608681Y-70842180D01*
X278598052Y-70818803D01*
X278591605Y-70801280D01*
X278587017Y-70785229D01*
X278584550Y-70776596D01*
X278579757Y-70768999D01*
X278568771Y-70751587D01*
X278560631Y-70736502D01*
X278558165Y-70731078D01*
X278548393Y-70709585D01*
X278531631Y-70690132D01*
X278520528Y-70675128D01*
X278506825Y-70653409D01*
X278500100Y-70647470D01*
X278500097Y-70647466D01*
X278484663Y-70633835D01*
X278472619Y-70621643D01*
X278459174Y-70606040D01*
X278459171Y-70606038D01*
X278453314Y-70599240D01*
X278439610Y-70590357D01*
X278431766Y-70585273D01*
X278416892Y-70573982D01*
X278404384Y-70562936D01*
X278404383Y-70562935D01*
X278397650Y-70556989D01*
X278370888Y-70544424D01*
X278355910Y-70536104D01*
X278338618Y-70524896D01*
X278338613Y-70524894D01*
X278331086Y-70520015D01*
X278322493Y-70517445D01*
X278322488Y-70517443D01*
X278306481Y-70512656D01*
X278289037Y-70505995D01*
X278273925Y-70498900D01*
X278273923Y-70498899D01*
X278265801Y-70495086D01*
X278256934Y-70493705D01*
X278256933Y-70493705D01*
X278246079Y-70492015D01*
X278236584Y-70490537D01*
X278219869Y-70486754D01*
X278200135Y-70480852D01*
X278200129Y-70480851D01*
X278191535Y-70478281D01*
X278182564Y-70478226D01*
X278182563Y-70478226D01*
X278172504Y-70478165D01*
X278157095Y-70478071D01*
X278156312Y-70478038D01*
X278155215Y-70477867D01*
X278124224Y-70477867D01*
X278123454Y-70477865D01*
X278049816Y-70477415D01*
X278049815Y-70477415D01*
X278045880Y-70477391D01*
X278044536Y-70477775D01*
X278043191Y-70477867D01*
X264124224Y-70477867D01*
X264123454Y-70477865D01*
X264122638Y-70477860D01*
X264045880Y-70477391D01*
X264023519Y-70483782D01*
X264017448Y-70485517D01*
X264000686Y-70489095D01*
X263971414Y-70493287D01*
X263963246Y-70497001D01*
X263963245Y-70497001D01*
X263948039Y-70503915D01*
X263930515Y-70510363D01*
X263905830Y-70517418D01*
X263898236Y-70522210D01*
X263898233Y-70522211D01*
X263880821Y-70533197D01*
X263865738Y-70541336D01*
X263838819Y-70553575D01*
X263832017Y-70559436D01*
X263819366Y-70570337D01*
X263804362Y-70581440D01*
X263782643Y-70595143D01*
X263776704Y-70601868D01*
X263776700Y-70601871D01*
X263763069Y-70617305D01*
X263750877Y-70629349D01*
X263735274Y-70642794D01*
X263735272Y-70642797D01*
X263728474Y-70648654D01*
X263723594Y-70656183D01*
X263723593Y-70656184D01*
X263714507Y-70670202D01*
X263703216Y-70685076D01*
X263692170Y-70697584D01*
X263686223Y-70704318D01*
X263679913Y-70717758D01*
X263673659Y-70731078D01*
X263665338Y-70746058D01*
X263654130Y-70763350D01*
X263654128Y-70763355D01*
X263649249Y-70770882D01*
X263646679Y-70779475D01*
X263646677Y-70779480D01*
X263641890Y-70795487D01*
X263635229Y-70812931D01*
X263628134Y-70828043D01*
X263624320Y-70836167D01*
X263622939Y-70845034D01*
X263622939Y-70845035D01*
X263619771Y-70865382D01*
X263615988Y-70882099D01*
X263610086Y-70901833D01*
X263610085Y-70901839D01*
X263607515Y-70910433D01*
X263607460Y-70919404D01*
X263607460Y-70919405D01*
X263607305Y-70944864D01*
X263607272Y-70945656D01*
X263607101Y-70946753D01*
X263607101Y-70977744D01*
X263607099Y-70978514D01*
X263606625Y-71056088D01*
X263607009Y-71057432D01*
X263607101Y-71058777D01*
X263607101Y-84977744D01*
X263607099Y-84978514D01*
X263606625Y-85056088D01*
X256676157Y-85056088D01*
X255961385Y-76886202D01*
X255961321Y-76885435D01*
X255955787Y-76817393D01*
X255955786Y-76817390D01*
X255955059Y-76808448D01*
X255944488Y-76780837D01*
X255939463Y-76764452D01*
X255934777Y-76744394D01*
X255934776Y-76744392D01*
X255932734Y-76735651D01*
X255920106Y-76713286D01*
X255912158Y-76696395D01*
X255902979Y-76672420D01*
X255885076Y-76648877D01*
X255875660Y-76634568D01*
X255865534Y-76616633D01*
X255865531Y-76616629D01*
X255861119Y-76608815D01*
X255842724Y-76590896D01*
X255830354Y-76576913D01*
X255814813Y-76556476D01*
X255791025Y-76538905D01*
X255777974Y-76527818D01*
X255763215Y-76513441D01*
X255756785Y-76507177D01*
X255734101Y-76495141D01*
X255718298Y-76485189D01*
X255704872Y-76475272D01*
X255704870Y-76475271D01*
X255697650Y-76469938D01*
X255669892Y-76459752D01*
X255654252Y-76452773D01*
X255628117Y-76438906D01*
X255602954Y-76433718D01*
X255585014Y-76428608D01*
X255560907Y-76419762D01*
X255531403Y-76417776D01*
X255514427Y-76415466D01*
X255485459Y-76409493D01*
X255451137Y-76412284D01*
X255450349Y-76412320D01*
X255449241Y-76412246D01*
X255446250Y-76412508D01*
X255446244Y-76412508D01*
X255418312Y-76414952D01*
X255417544Y-76415017D01*
X255344210Y-76420981D01*
X255344204Y-76420982D01*
X255340281Y-76421301D01*
X255338975Y-76421801D01*
X255337653Y-76422008D01*
X241471459Y-77635143D01*
X241470692Y-77635207D01*
X241402501Y-77640753D01*
X241402498Y-77640754D01*
X241393555Y-77641481D01*
X241385177Y-77644689D01*
X241385171Y-77644690D01*
X241365937Y-77652054D01*
X241349555Y-77657078D01*
X241329505Y-77661763D01*
X241329503Y-77661764D01*
X241320758Y-77663807D01*
X241312938Y-77668222D01*
X241312939Y-77668222D01*
X241298400Y-77676431D01*
X241281509Y-77684380D01*
X241257527Y-77693562D01*
X241233984Y-77711465D01*
X241219675Y-77720881D01*
X241201740Y-77731007D01*
X241201736Y-77731010D01*
X241193922Y-77735422D01*
X241176006Y-77753814D01*
X241162020Y-77766187D01*
X241141583Y-77781728D01*
X241124012Y-77805516D01*
X241112925Y-77818567D01*
X241092284Y-77839756D01*
X241088077Y-77847685D01*
X241080248Y-77862440D01*
X241070296Y-77878243D01*
X241055045Y-77898891D01*
X241044859Y-77926649D01*
X241037880Y-77942289D01*
X241024013Y-77968424D01*
X241018825Y-77993587D01*
X241013715Y-78011527D01*
X241004869Y-78035634D01*
X241004267Y-78044586D01*
X241002884Y-78065134D01*
X241000573Y-78082114D01*
X240994600Y-78111082D01*
X233527707Y-78111082D01*
X231707493Y-67788138D01*
X231707362Y-67787379D01*
X231695865Y-67719763D01*
X231695864Y-67719761D01*
X231694360Y-67710913D01*
X231681416Y-67684314D01*
X231674985Y-67668437D01*
X231668571Y-67648870D01*
X231668570Y-67648868D01*
X231665774Y-67640339D01*
X231651250Y-67619167D01*
X231641856Y-67603026D01*
X231634551Y-67588014D01*
X231634548Y-67588010D01*
X231630622Y-67579942D01*
X231610739Y-67558053D01*
X231600105Y-67544611D01*
X231588455Y-67527629D01*
X231588454Y-67527628D01*
X231583377Y-67520227D01*
X231563498Y-67503985D01*
X231549952Y-67491131D01*
X231538720Y-67478765D01*
X231538717Y-67478763D01*
X231532686Y-67472123D01*
X231523029Y-67466217D01*
X231507454Y-67456690D01*
X231493478Y-67446776D01*
X231477534Y-67433750D01*
X231470581Y-67428069D01*
X231462318Y-67424570D01*
X231462313Y-67424567D01*
X231446940Y-67418058D01*
X231430328Y-67409520D01*
X231416089Y-67400811D01*
X231416083Y-67400808D01*
X231408427Y-67396126D01*
X231389956Y-67391125D01*
X231379890Y-67388399D01*
X231363689Y-67382804D01*
X231344725Y-67374774D01*
X231344720Y-67374773D01*
X231336453Y-67371272D01*
X231327536Y-67370232D01*
X231327534Y-67370232D01*
X231316467Y-67368942D01*
X231310948Y-67368299D01*
X231292613Y-67364769D01*
X231267832Y-67358059D01*
X231238267Y-67358652D01*
X231221153Y-67357829D01*
X231200696Y-67355444D01*
X231200689Y-67355444D01*
X231191775Y-67354405D01*
X231157841Y-67360175D01*
X231157042Y-67360282D01*
X231155936Y-67360304D01*
X231130621Y-67364768D01*
X231125256Y-67365714D01*
X231124495Y-67365845D01*
X231052070Y-67378159D01*
X231052067Y-67378160D01*
X231048178Y-67378821D01*
X231046917Y-67379434D01*
X231045622Y-67379755D01*
X225789410Y-68306567D01*
X217338094Y-69796763D01*
X217337335Y-69796894D01*
X217301022Y-69803069D01*
X217260869Y-69809896D01*
X217252795Y-69813825D01*
X217252790Y-69813827D01*
X217234276Y-69822837D01*
X217218387Y-69829273D01*
X217198828Y-69835684D01*
X217198823Y-69835686D01*
X217190295Y-69838482D01*
X217182892Y-69843561D01*
X217182891Y-69843561D01*
X217169123Y-69853006D01*
X217152981Y-69862401D01*
X217137968Y-69869707D01*
X217137965Y-69869709D01*
X217129898Y-69873635D01*
X217123257Y-69879668D01*
X217123256Y-69879668D01*
X217108013Y-69893514D01*
X217094570Y-69904149D01*
X217077588Y-69915798D01*
X217077583Y-69915803D01*
X217070183Y-69920879D01*
X217064502Y-69927832D01*
X217064501Y-69927833D01*
X217053937Y-69940762D01*
X217041084Y-69954307D01*
X217022079Y-69971570D01*
X217006649Y-69996800D01*
X216996738Y-70010772D01*
X216978025Y-70033675D01*
X216974526Y-70041938D01*
X216974524Y-70041941D01*
X216968010Y-70057323D01*
X216959478Y-70073927D01*
X216946082Y-70095830D01*
X216943736Y-70104495D01*
X216943735Y-70104497D01*
X216938355Y-70124368D01*
X216932763Y-70140563D01*
X216921228Y-70167803D01*
X216918253Y-70193320D01*
X216914723Y-70211650D01*
X216910361Y-70227758D01*
X216910360Y-70227763D01*
X216908015Y-70236425D01*
X216908195Y-70245399D01*
X216908608Y-70265986D01*
X216907785Y-70283103D01*
X216905400Y-70303560D01*
X216905400Y-70303567D01*
X216904361Y-70312481D01*
X195311187Y-70312481D01*
X195311573Y-62389341D01*
X213903888Y-62389341D01*
X213903983Y-62392971D01*
X213903983Y-62392972D01*
X213906367Y-62484000D01*
X213912970Y-62736171D01*
X213961856Y-63079660D01*
X214049897Y-63415253D01*
X214175927Y-63738503D01*
X214177624Y-63741708D01*
X214311113Y-63993825D01*
X214338275Y-64045126D01*
X214340325Y-64048109D01*
X214340327Y-64048112D01*
X214532733Y-64328064D01*
X214532739Y-64328071D01*
X214534790Y-64331056D01*
X214762866Y-64592505D01*
X214765551Y-64594948D01*
X214975268Y-64785775D01*
X215019481Y-64826006D01*
X215301233Y-65028466D01*
X215604388Y-65197200D01*
X215924928Y-65329972D01*
X215928422Y-65330967D01*
X215928424Y-65330968D01*
X216255103Y-65424025D01*
X216255108Y-65424026D01*
X216258604Y-65425022D01*
X216455304Y-65457233D01*
X216597412Y-65480504D01*
X216597419Y-65480505D01*
X216600993Y-65481090D01*
X216774276Y-65489262D01*
X216943931Y-65497263D01*
X216943932Y-65497263D01*
X216947558Y-65497434D01*
X216956415Y-65496830D01*
X217290073Y-65474084D01*
X217290081Y-65474083D01*
X217293704Y-65473836D01*
X217297279Y-65473173D01*
X217297282Y-65473173D01*
X217631279Y-65411270D01*
X217631283Y-65411269D01*
X217634844Y-65410609D01*
X217966456Y-65308592D01*
X218284145Y-65169136D01*
X218528511Y-65026341D01*
X218580560Y-64995926D01*
X218580562Y-64995925D01*
X218583700Y-64994091D01*
X218586609Y-64991907D01*
X218858244Y-64787958D01*
X218858248Y-64787955D01*
X218861151Y-64785775D01*
X219112819Y-64546950D01*
X219335370Y-64280783D01*
X219525853Y-63990799D01*
X219654446Y-63735121D01*
X219680117Y-63684080D01*
X219680120Y-63684072D01*
X219681744Y-63680844D01*
X219800977Y-63355026D01*
X219801822Y-63351504D01*
X219801825Y-63351496D01*
X219881124Y-63021191D01*
X219881125Y-63021187D01*
X219881971Y-63017662D01*
X219916035Y-62736171D01*
X219923316Y-62676004D01*
X219923316Y-62675997D01*
X219923652Y-62673225D01*
X219929599Y-62484000D01*
X219929438Y-62481204D01*
X219909836Y-62141246D01*
X219909835Y-62141241D01*
X219909627Y-62137626D01*
X219849976Y-61795842D01*
X219751437Y-61463180D01*
X219615316Y-61144048D01*
X219565569Y-61056831D01*
X219445208Y-60845816D01*
X219443417Y-60842676D01*
X219238018Y-60563060D01*
X219001842Y-60308904D01*
X218738019Y-60083578D01*
X218450047Y-59890069D01*
X218141741Y-59730940D01*
X217817189Y-59608302D01*
X217813668Y-59607418D01*
X217813663Y-59607416D01*
X217542993Y-59539429D01*
X217480692Y-59523780D01*
X217458476Y-59520855D01*
X217140315Y-59478968D01*
X217140307Y-59478967D01*
X217136711Y-59478494D01*
X216992045Y-59476221D01*
X216793446Y-59473101D01*
X216793442Y-59473101D01*
X216789804Y-59473044D01*
X216786190Y-59473405D01*
X216786184Y-59473405D01*
X216542843Y-59497694D01*
X216444569Y-59507503D01*
X216265461Y-59546555D01*
X216117609Y-59578792D01*
X216105583Y-59581414D01*
X216102156Y-59582587D01*
X216102150Y-59582589D01*
X215826422Y-59676992D01*
X215777339Y-59693797D01*
X215464188Y-59843163D01*
X215170279Y-60027532D01*
X215167443Y-60029804D01*
X215167436Y-60029809D01*
X214923384Y-60225332D01*
X214899509Y-60244459D01*
X214655466Y-60491071D01*
X214653225Y-60493929D01*
X214596732Y-60565978D01*
X214441386Y-60764098D01*
X214439493Y-60767187D01*
X214439491Y-60767190D01*
X214393233Y-60842676D01*
X214260105Y-61059921D01*
X214258580Y-61063206D01*
X214258578Y-61063210D01*
X214219505Y-61147386D01*
X214114027Y-61374620D01*
X214005087Y-61704023D01*
X213934730Y-62043764D01*
X213903888Y-62389341D01*
X195311573Y-62389341D01*
X195311707Y-59630795D01*
X195313207Y-59611418D01*
X195315518Y-59596571D01*
X195315518Y-59596569D01*
X195316900Y-59587694D01*
X195314651Y-59570496D01*
X195313818Y-59546555D01*
X195329413Y-59288706D01*
X195331247Y-59273601D01*
X195347780Y-59183383D01*
X239338641Y-59183383D01*
X239339369Y-59192332D01*
X239341431Y-59217689D01*
X239341468Y-59218497D01*
X239341394Y-59219600D01*
X239344108Y-59250622D01*
X239344161Y-59251260D01*
X239350449Y-59328561D01*
X239350950Y-59329870D01*
X239351156Y-59331189D01*
X239884298Y-65425022D01*
X240564291Y-73197383D01*
X240564355Y-73198150D01*
X240570629Y-73275287D01*
X240573837Y-73283665D01*
X240573838Y-73283671D01*
X240581202Y-73302905D01*
X240586226Y-73319287D01*
X240590911Y-73339337D01*
X240592955Y-73348084D01*
X240597370Y-73355903D01*
X240605579Y-73370442D01*
X240613528Y-73387333D01*
X240622710Y-73411315D01*
X240640613Y-73434858D01*
X240650029Y-73449167D01*
X240660155Y-73467102D01*
X240660158Y-73467106D01*
X240664570Y-73474920D01*
X240682962Y-73492836D01*
X240695335Y-73506822D01*
X240710876Y-73527259D01*
X240734664Y-73544830D01*
X240747715Y-73555917D01*
X240768904Y-73576558D01*
X240776833Y-73580765D01*
X240791588Y-73588594D01*
X240807391Y-73598546D01*
X240828039Y-73613797D01*
X240855797Y-73623983D01*
X240871437Y-73630962D01*
X240897572Y-73644829D01*
X240906361Y-73646641D01*
X240906364Y-73646642D01*
X240922722Y-73650014D01*
X240940686Y-73655131D01*
X240964782Y-73663973D01*
X240983430Y-73665228D01*
X240994283Y-73665959D01*
X241011261Y-73668269D01*
X241031439Y-73672429D01*
X241031442Y-73672429D01*
X241040230Y-73674241D01*
X241058635Y-73672744D01*
X241074534Y-73671451D01*
X241075339Y-73671414D01*
X241076447Y-73671489D01*
X241085246Y-73670719D01*
X241107525Y-73668770D01*
X241108293Y-73668705D01*
X241166473Y-73663973D01*
X241185408Y-73662433D01*
X241186713Y-73661933D01*
X241188030Y-73661727D01*
X255054380Y-72448579D01*
X255055147Y-72448515D01*
X255123189Y-72442981D01*
X255123192Y-72442980D01*
X255132134Y-72442253D01*
X255140512Y-72439046D01*
X255140514Y-72439045D01*
X255159745Y-72431682D01*
X255176130Y-72426657D01*
X255196188Y-72421971D01*
X255196190Y-72421970D01*
X255204931Y-72419928D01*
X255227296Y-72407300D01*
X255244187Y-72399352D01*
X255268162Y-72390173D01*
X255291705Y-72372270D01*
X255306014Y-72362854D01*
X255323949Y-72352728D01*
X255323953Y-72352725D01*
X255331767Y-72348313D01*
X255349686Y-72329918D01*
X255363669Y-72317548D01*
X255384106Y-72302007D01*
X255401677Y-72278219D01*
X255412764Y-72265168D01*
X255427141Y-72250409D01*
X255433405Y-72243979D01*
X255445441Y-72221295D01*
X255455393Y-72205492D01*
X255465310Y-72192066D01*
X255465311Y-72192064D01*
X255470644Y-72184844D01*
X255480830Y-72157086D01*
X255487809Y-72141446D01*
X255501676Y-72115311D01*
X255506861Y-72090160D01*
X255511979Y-72072194D01*
X255517727Y-72056530D01*
X255520820Y-72048101D01*
X255522806Y-72018600D01*
X255525116Y-72001622D01*
X255529276Y-71981444D01*
X255529276Y-71981441D01*
X255531088Y-71972653D01*
X255528298Y-71938349D01*
X255528261Y-71937544D01*
X255528336Y-71936435D01*
X255525616Y-71905342D01*
X255525552Y-71904591D01*
X255519599Y-71831398D01*
X255519280Y-71827475D01*
X255518780Y-71826170D01*
X255518574Y-71824853D01*
X254693074Y-62389341D01*
X294675888Y-62389341D01*
X294675983Y-62392971D01*
X294675983Y-62392972D01*
X294678367Y-62484000D01*
X294684970Y-62736171D01*
X294733856Y-63079660D01*
X294821897Y-63415253D01*
X294947927Y-63738503D01*
X294949624Y-63741708D01*
X295083113Y-63993825D01*
X295110275Y-64045126D01*
X295112325Y-64048109D01*
X295112327Y-64048112D01*
X295304733Y-64328064D01*
X295304739Y-64328071D01*
X295306790Y-64331056D01*
X295534866Y-64592505D01*
X295537551Y-64594948D01*
X295747268Y-64785775D01*
X295791481Y-64826006D01*
X296073233Y-65028466D01*
X296376388Y-65197200D01*
X296696928Y-65329972D01*
X296700422Y-65330967D01*
X296700424Y-65330968D01*
X297027103Y-65424025D01*
X297027108Y-65424026D01*
X297030604Y-65425022D01*
X297227304Y-65457233D01*
X297369412Y-65480504D01*
X297369419Y-65480505D01*
X297372993Y-65481090D01*
X297546276Y-65489262D01*
X297715931Y-65497263D01*
X297715932Y-65497263D01*
X297719558Y-65497434D01*
X297728415Y-65496830D01*
X298062073Y-65474084D01*
X298062081Y-65474083D01*
X298065704Y-65473836D01*
X298069279Y-65473173D01*
X298069282Y-65473173D01*
X298403279Y-65411270D01*
X298403283Y-65411269D01*
X298406844Y-65410609D01*
X298738456Y-65308592D01*
X299056145Y-65169136D01*
X299300511Y-65026341D01*
X299352560Y-64995926D01*
X299352562Y-64995925D01*
X299355700Y-64994091D01*
X299358609Y-64991907D01*
X299630244Y-64787958D01*
X299630248Y-64787955D01*
X299633151Y-64785775D01*
X299884819Y-64546950D01*
X300107370Y-64280783D01*
X300297853Y-63990799D01*
X300426446Y-63735121D01*
X300452117Y-63684080D01*
X300452120Y-63684072D01*
X300453744Y-63680844D01*
X300572977Y-63355026D01*
X300573822Y-63351504D01*
X300573825Y-63351496D01*
X300653124Y-63021191D01*
X300653125Y-63021187D01*
X300653971Y-63017662D01*
X300688035Y-62736171D01*
X300695316Y-62676004D01*
X300695316Y-62675997D01*
X300695652Y-62673225D01*
X300701599Y-62484000D01*
X300701438Y-62481204D01*
X300681836Y-62141246D01*
X300681835Y-62141241D01*
X300681627Y-62137626D01*
X300621976Y-61795842D01*
X300523437Y-61463180D01*
X300387316Y-61144048D01*
X300337569Y-61056831D01*
X300217208Y-60845816D01*
X300215417Y-60842676D01*
X300010018Y-60563060D01*
X299773842Y-60308904D01*
X299510019Y-60083578D01*
X299222047Y-59890069D01*
X298913741Y-59730940D01*
X298589189Y-59608302D01*
X298585668Y-59607418D01*
X298585663Y-59607416D01*
X298314993Y-59539429D01*
X298252692Y-59523780D01*
X298230476Y-59520855D01*
X297912315Y-59478968D01*
X297912307Y-59478967D01*
X297908711Y-59478494D01*
X297764045Y-59476221D01*
X297565446Y-59473101D01*
X297565442Y-59473101D01*
X297561804Y-59473044D01*
X297558190Y-59473405D01*
X297558184Y-59473405D01*
X297314843Y-59497694D01*
X297216569Y-59507503D01*
X297037461Y-59546555D01*
X296889609Y-59578792D01*
X296877583Y-59581414D01*
X296874156Y-59582587D01*
X296874150Y-59582589D01*
X296598422Y-59676992D01*
X296549339Y-59693797D01*
X296236188Y-59843163D01*
X295942279Y-60027532D01*
X295939443Y-60029804D01*
X295939436Y-60029809D01*
X295695384Y-60225332D01*
X295671509Y-60244459D01*
X295427466Y-60491071D01*
X295425225Y-60493929D01*
X295368732Y-60565978D01*
X295213386Y-60764098D01*
X295211493Y-60767187D01*
X295211491Y-60767190D01*
X295165233Y-60842676D01*
X295032105Y-61059921D01*
X295030580Y-61063206D01*
X295030578Y-61063210D01*
X294991505Y-61147386D01*
X294886027Y-61374620D01*
X294777087Y-61704023D01*
X294706730Y-62043764D01*
X294675888Y-62389341D01*
X254693074Y-62389341D01*
X254305426Y-57958503D01*
X254305362Y-57957736D01*
X254299828Y-57889694D01*
X254299827Y-57889691D01*
X254299100Y-57880749D01*
X254288529Y-57853138D01*
X254283504Y-57836753D01*
X254278818Y-57816695D01*
X254278817Y-57816693D01*
X254276775Y-57807952D01*
X254264147Y-57785587D01*
X254256199Y-57768696D01*
X254247020Y-57744721D01*
X254229117Y-57721178D01*
X254219701Y-57706869D01*
X254209575Y-57688934D01*
X254209572Y-57688930D01*
X254205160Y-57681116D01*
X254186765Y-57663197D01*
X254174395Y-57649214D01*
X254158854Y-57628777D01*
X254135066Y-57611206D01*
X254122015Y-57600119D01*
X254107256Y-57585742D01*
X254100826Y-57579478D01*
X254078142Y-57567442D01*
X254062339Y-57557490D01*
X254048913Y-57547573D01*
X254048911Y-57547572D01*
X254041691Y-57542239D01*
X254013933Y-57532053D01*
X253998293Y-57525074D01*
X253972158Y-57511207D01*
X253946995Y-57506019D01*
X253929055Y-57500909D01*
X253904948Y-57492063D01*
X253875444Y-57490077D01*
X253858468Y-57487767D01*
X253829500Y-57481794D01*
X253795178Y-57484585D01*
X253794390Y-57484621D01*
X253793282Y-57484547D01*
X253790291Y-57484809D01*
X253790285Y-57484809D01*
X253762353Y-57487253D01*
X253761585Y-57487318D01*
X253688251Y-57493282D01*
X253688245Y-57493283D01*
X253684322Y-57493602D01*
X253683016Y-57494102D01*
X253681694Y-57494309D01*
X239815500Y-58707444D01*
X239814733Y-58707508D01*
X239746542Y-58713054D01*
X239746539Y-58713055D01*
X239737596Y-58713782D01*
X239729218Y-58716990D01*
X239729212Y-58716991D01*
X239709978Y-58724355D01*
X239693596Y-58729379D01*
X239673546Y-58734064D01*
X239673544Y-58734065D01*
X239664799Y-58736108D01*
X239656979Y-58740523D01*
X239656980Y-58740523D01*
X239642441Y-58748732D01*
X239625550Y-58756681D01*
X239601568Y-58765863D01*
X239578025Y-58783766D01*
X239563716Y-58793182D01*
X239545781Y-58803308D01*
X239545777Y-58803311D01*
X239537963Y-58807723D01*
X239520047Y-58826115D01*
X239506061Y-58838488D01*
X239485624Y-58854029D01*
X239468053Y-58877817D01*
X239456966Y-58890868D01*
X239436325Y-58912057D01*
X239432118Y-58919986D01*
X239424289Y-58934741D01*
X239414337Y-58950544D01*
X239399086Y-58971192D01*
X239388900Y-58998950D01*
X239381921Y-59014590D01*
X239368054Y-59040725D01*
X239362866Y-59065888D01*
X239357756Y-59083828D01*
X239348910Y-59107935D01*
X239348308Y-59116887D01*
X239346925Y-59137435D01*
X239344614Y-59154415D01*
X239338641Y-59183383D01*
X195347780Y-59183383D01*
X195382730Y-58992660D01*
X195386371Y-58977888D01*
X195470642Y-58707444D01*
X195471344Y-58705193D01*
X195476736Y-58690973D01*
X195593962Y-58430505D01*
X195601032Y-58417034D01*
X195748798Y-58172597D01*
X195757442Y-58160075D01*
X195933585Y-57935244D01*
X195943674Y-57923855D01*
X196145643Y-57721885D01*
X196157032Y-57711795D01*
X196196191Y-57681116D01*
X196381874Y-57535642D01*
X196394394Y-57527000D01*
X196420519Y-57511207D01*
X196638822Y-57379238D01*
X196652287Y-57372170D01*
X196912763Y-57254940D01*
X196926988Y-57249546D01*
X197199676Y-57164573D01*
X197214449Y-57160932D01*
X197495392Y-57109448D01*
X197510496Y-57107614D01*
X197560237Y-57104605D01*
X197761056Y-57092458D01*
X197788048Y-57093730D01*
X197796931Y-57095113D01*
X197828492Y-57090986D01*
X197844829Y-57089922D01*
X301941234Y-57089922D01*
X301960619Y-57091422D01*
G37*
%TD.AperFunction*%
M02*
