%TF.GenerationSoftware,KiCad,Pcbnew,(6.0.4)*%
%TF.CreationDate,2022-07-08T06:12:20+02:00*%
%TF.ProjectId,battoota,62617474-6f6f-4746-912e-6b696361645f,v1.0.0*%
%TF.SameCoordinates,Original*%
%TF.FileFunction,Legend,Bot*%
%TF.FilePolarity,Positive*%
%FSLAX46Y46*%
G04 Gerber Fmt 4.6, Leading zero omitted, Abs format (unit mm)*
G04 Created by KiCad (PCBNEW (6.0.4)) date 2022-07-08 06:12:20*
%MOMM*%
%LPD*%
G01*
G04 APERTURE LIST*
G04 Aperture macros list*
%AMRoundRect*
0 Rectangle with rounded corners*
0 $1 Rounding radius*
0 $2 $3 $4 $5 $6 $7 $8 $9 X,Y pos of 4 corners*
0 Add a 4 corners polygon primitive as box body*
4,1,4,$2,$3,$4,$5,$6,$7,$8,$9,$2,$3,0*
0 Add four circle primitives for the rounded corners*
1,1,$1+$1,$2,$3*
1,1,$1+$1,$4,$5*
1,1,$1+$1,$6,$7*
1,1,$1+$1,$8,$9*
0 Add four rect primitives between the rounded corners*
20,1,$1+$1,$2,$3,$4,$5,0*
20,1,$1+$1,$4,$5,$6,$7,0*
20,1,$1+$1,$6,$7,$8,$9,0*
20,1,$1+$1,$8,$9,$2,$3,0*%
%AMFreePoly0*
4,1,16,0.535355,0.785355,0.541603,0.777735,1.041603,0.027735,1.049029,-0.009806,1.041603,-0.027735,0.541603,-0.777735,0.509806,-0.799029,0.500000,-0.800000,-0.500000,-0.800000,-0.535355,-0.785355,-0.550000,-0.750000,-0.550000,0.750000,-0.535355,0.785355,-0.500000,0.800000,0.500000,0.800000,0.535355,0.785355,0.535355,0.785355,$1*%
%AMFreePoly1*
4,1,16,0.535355,0.785355,0.550000,0.750000,0.550000,-0.750000,0.535355,-0.785355,0.500000,-0.800000,-0.650000,-0.800000,-0.685355,-0.785355,-0.700000,-0.750000,-0.691603,-0.722265,-0.210093,0.000000,-0.691603,0.722265,-0.699029,0.759806,-0.677735,0.791603,-0.650000,0.800000,0.500000,0.800000,0.535355,0.785355,0.535355,0.785355,$1*%
G04 Aperture macros list end*
%ADD10C,0.150000*%
%ADD11C,0.100000*%
%ADD12C,0.120000*%
%ADD13C,0.200000*%
%ADD14C,0.010000*%
%ADD15RoundRect,0.375000X-0.375000X-0.750000X0.375000X-0.750000X0.375000X0.750000X-0.375000X0.750000X0*%
%ADD16C,1.752600*%
%ADD17C,5.100000*%
%ADD18C,2.100000*%
%ADD19C,1.801800*%
%ADD20C,3.100000*%
%ADD21C,3.529000*%
%ADD22RoundRect,0.050000X-1.054507X-1.505993X1.505993X-1.054507X1.054507X1.505993X-1.505993X1.054507X0*%
%ADD23C,2.132000*%
%ADD24RoundRect,0.050000X-1.181751X-1.408356X1.408356X-1.181751X1.181751X1.408356X-1.408356X1.181751X0*%
%ADD25RoundRect,0.050000X-1.300000X-1.300000X1.300000X-1.300000X1.300000X1.300000X-1.300000X1.300000X0*%
%ADD26RoundRect,0.050000X-0.450000X-0.450000X0.450000X-0.450000X0.450000X0.450000X-0.450000X0.450000X0*%
%ADD27C,1.100000*%
%ADD28RoundRect,0.050000X-0.450000X-0.625000X0.450000X-0.625000X0.450000X0.625000X-0.450000X0.625000X0*%
%ADD29RoundRect,0.425000X-0.375000X-0.750000X0.375000X-0.750000X0.375000X0.750000X-0.375000X0.750000X0*%
%ADD30RoundRect,0.050000X-0.863113X-1.623279X1.623279X-0.863113X0.863113X1.623279X-1.623279X0.863113X0*%
%ADD31C,1.852600*%
%ADD32FreePoly0,90.000000*%
%ADD33RoundRect,0.050000X-0.250000X-0.762000X0.250000X-0.762000X0.250000X0.762000X-0.250000X0.762000X0*%
%ADD34FreePoly1,90.000000*%
%ADD35C,4.500000*%
G04 APERTURE END LIST*
D10*
%TO.C,B1*%
X84381171Y50956634D02*
X83904981Y51289968D01*
X84381171Y51528063D02*
X83381171Y51528063D01*
X83381171Y51147111D01*
X83428791Y51051873D01*
X83476410Y51004254D01*
X83571648Y50956634D01*
X83714505Y50956634D01*
X83809743Y51004254D01*
X83857362Y51051873D01*
X83904981Y51147111D01*
X83904981Y51528063D01*
X83857362Y50528063D02*
X83857362Y50194730D01*
X84381171Y50051873D02*
X84381171Y50528063D01*
X83381171Y50528063D01*
X83381171Y50051873D01*
X84333552Y49670920D02*
X84381171Y49528063D01*
X84381171Y49289968D01*
X84333552Y49194730D01*
X84285933Y49147111D01*
X84190695Y49099492D01*
X84095457Y49099492D01*
X84000219Y49147111D01*
X83952600Y49194730D01*
X83904981Y49289968D01*
X83857362Y49480444D01*
X83809743Y49575682D01*
X83762124Y49623301D01*
X83666886Y49670920D01*
X83571648Y49670920D01*
X83476410Y49623301D01*
X83428791Y49575682D01*
X83381171Y49480444D01*
X83381171Y49242349D01*
X83428791Y49099492D01*
X83857362Y48670920D02*
X83857362Y48337587D01*
X84381171Y48194730D02*
X84381171Y48670920D01*
X83381171Y48670920D01*
X83381171Y48194730D01*
X83381171Y47909015D02*
X83381171Y47337587D01*
X84381171Y47623301D02*
X83381171Y47623301D01*
%TO.C,PAD1*%
X51346886Y105598396D02*
X51232600Y105560301D01*
X51194505Y105522206D01*
X51156410Y105446015D01*
X51156410Y105331730D01*
X51194505Y105255539D01*
X51232600Y105217444D01*
X51308791Y105179349D01*
X51613552Y105179349D01*
X51613552Y105979349D01*
X51346886Y105979349D01*
X51270695Y105941254D01*
X51232600Y105903158D01*
X51194505Y105826968D01*
X51194505Y105750777D01*
X51232600Y105674587D01*
X51270695Y105636492D01*
X51346886Y105598396D01*
X51613552Y105598396D01*
X50813552Y105484111D02*
X50204029Y105484111D01*
X50508791Y105179349D02*
X50508791Y105788873D01*
X47346886Y105598396D02*
X47232600Y105560301D01*
X47194505Y105522206D01*
X47156410Y105446015D01*
X47156410Y105331730D01*
X47194505Y105255539D01*
X47232600Y105217444D01*
X47308791Y105179349D01*
X47613552Y105179349D01*
X47613552Y105979349D01*
X47346886Y105979349D01*
X47270695Y105941254D01*
X47232600Y105903158D01*
X47194505Y105826968D01*
X47194505Y105750777D01*
X47232600Y105674587D01*
X47270695Y105636492D01*
X47346886Y105598396D01*
X47613552Y105598396D01*
X46813552Y105484111D02*
X46204029Y105484111D01*
X46508791Y105179349D02*
X46508791Y105788873D01*
X49346886Y105598396D02*
X49232600Y105560301D01*
X49194505Y105522206D01*
X49156410Y105446015D01*
X49156410Y105331730D01*
X49194505Y105255539D01*
X49232600Y105217444D01*
X49308791Y105179349D01*
X49613552Y105179349D01*
X49613552Y105979349D01*
X49346886Y105979349D01*
X49270695Y105941254D01*
X49232600Y105903158D01*
X49194505Y105826968D01*
X49194505Y105750777D01*
X49232600Y105674587D01*
X49270695Y105636492D01*
X49346886Y105598396D01*
X49613552Y105598396D01*
X48813552Y105484111D02*
X48204029Y105484111D01*
%TO.C,MCU1*%
X68796695Y42552682D02*
X67996695Y42552682D01*
X67996695Y42247920D01*
X68034791Y42171730D01*
X68072886Y42133634D01*
X68149076Y42095539D01*
X68263362Y42095539D01*
X68339552Y42133634D01*
X68377648Y42171730D01*
X68415743Y42247920D01*
X68415743Y42552682D01*
X67996695Y41600301D02*
X67996695Y41524111D01*
X68034791Y41447920D01*
X68072886Y41409825D01*
X68149076Y41371730D01*
X68301457Y41333634D01*
X68491933Y41333634D01*
X68644314Y41371730D01*
X68720505Y41409825D01*
X68758600Y41447920D01*
X68796695Y41524111D01*
X68796695Y41600301D01*
X68758600Y41676492D01*
X68720505Y41714587D01*
X68644314Y41752682D01*
X68491933Y41790777D01*
X68301457Y41790777D01*
X68149076Y41752682D01*
X68072886Y41714587D01*
X68034791Y41676492D01*
X67996695Y41600301D01*
X67996695Y40647920D02*
X67996695Y40800301D01*
X68034791Y40876492D01*
X68072886Y40914587D01*
X68187171Y40990777D01*
X68339552Y41028873D01*
X68644314Y41028873D01*
X68720505Y40990777D01*
X68758600Y40952682D01*
X68796695Y40876492D01*
X68796695Y40724111D01*
X68758600Y40647920D01*
X68720505Y40609825D01*
X68644314Y40571730D01*
X68453838Y40571730D01*
X68377648Y40609825D01*
X68339552Y40647920D01*
X68301457Y40724111D01*
X68301457Y40876492D01*
X68339552Y40952682D01*
X68377648Y40990777D01*
X68453838Y41028873D01*
X68796695Y52152682D02*
X67996695Y52152682D01*
X67996695Y51847920D01*
X68034791Y51771730D01*
X68072886Y51733634D01*
X68149076Y51695539D01*
X68263362Y51695539D01*
X68339552Y51733634D01*
X68377648Y51771730D01*
X68415743Y51847920D01*
X68415743Y52152682D01*
X68796695Y50933634D02*
X68796695Y51390777D01*
X68796695Y51162206D02*
X67996695Y51162206D01*
X68110981Y51238396D01*
X68187171Y51314587D01*
X68225267Y51390777D01*
X67996695Y50209825D02*
X67996695Y50590777D01*
X68377648Y50628873D01*
X68339552Y50590777D01*
X68301457Y50514587D01*
X68301457Y50324111D01*
X68339552Y50247920D01*
X68377648Y50209825D01*
X68453838Y50171730D01*
X68644314Y50171730D01*
X68720505Y50209825D01*
X68758600Y50247920D01*
X68796695Y50324111D01*
X68796695Y50514587D01*
X68758600Y50590777D01*
X68720505Y50628873D01*
X66256695Y42552682D02*
X65456695Y42552682D01*
X65456695Y42247920D01*
X65494791Y42171730D01*
X65532886Y42133634D01*
X65609076Y42095539D01*
X65723362Y42095539D01*
X65799552Y42133634D01*
X65837648Y42171730D01*
X65875743Y42247920D01*
X65875743Y42552682D01*
X65456695Y41600301D02*
X65456695Y41524111D01*
X65494791Y41447920D01*
X65532886Y41409825D01*
X65609076Y41371730D01*
X65761457Y41333634D01*
X65951933Y41333634D01*
X66104314Y41371730D01*
X66180505Y41409825D01*
X66218600Y41447920D01*
X66256695Y41524111D01*
X66256695Y41600301D01*
X66218600Y41676492D01*
X66180505Y41714587D01*
X66104314Y41752682D01*
X65951933Y41790777D01*
X65761457Y41790777D01*
X65609076Y41752682D01*
X65532886Y41714587D01*
X65494791Y41676492D01*
X65456695Y41600301D01*
X65456695Y40609825D02*
X65456695Y40990777D01*
X65837648Y41028873D01*
X65799552Y40990777D01*
X65761457Y40914587D01*
X65761457Y40724111D01*
X65799552Y40647920D01*
X65837648Y40609825D01*
X65913838Y40571730D01*
X66104314Y40571730D01*
X66180505Y40609825D01*
X66218600Y40647920D01*
X66256695Y40724111D01*
X66256695Y40914587D01*
X66218600Y40990777D01*
X66180505Y41028873D01*
X63716695Y42552682D02*
X62916695Y42552682D01*
X62916695Y42247920D01*
X62954791Y42171730D01*
X62992886Y42133634D01*
X63069076Y42095539D01*
X63183362Y42095539D01*
X63259552Y42133634D01*
X63297648Y42171730D01*
X63335743Y42247920D01*
X63335743Y42552682D01*
X62916695Y41600301D02*
X62916695Y41524111D01*
X62954791Y41447920D01*
X62992886Y41409825D01*
X63069076Y41371730D01*
X63221457Y41333634D01*
X63411933Y41333634D01*
X63564314Y41371730D01*
X63640505Y41409825D01*
X63678600Y41447920D01*
X63716695Y41524111D01*
X63716695Y41600301D01*
X63678600Y41676492D01*
X63640505Y41714587D01*
X63564314Y41752682D01*
X63411933Y41790777D01*
X63221457Y41790777D01*
X63069076Y41752682D01*
X62992886Y41714587D01*
X62954791Y41676492D01*
X62916695Y41600301D01*
X63183362Y40647920D02*
X63716695Y40647920D01*
X62878600Y40838396D02*
X63450029Y41028873D01*
X63450029Y40533634D01*
X50254791Y48490014D02*
X50216695Y48566205D01*
X50216695Y48680491D01*
X50254791Y48794776D01*
X50330981Y48870967D01*
X50407171Y48909062D01*
X50559552Y48947157D01*
X50673838Y48947157D01*
X50826219Y48909062D01*
X50902410Y48870967D01*
X50978600Y48794776D01*
X51016695Y48680491D01*
X51016695Y48604300D01*
X50978600Y48490014D01*
X50940505Y48451919D01*
X50673838Y48451919D01*
X50673838Y48604300D01*
X51016695Y48109062D02*
X50216695Y48109062D01*
X51016695Y47651919D01*
X50216695Y47651919D01*
X51016695Y47270967D02*
X50216695Y47270967D01*
X50216695Y47080491D01*
X50254791Y46966205D01*
X50330981Y46890014D01*
X50407171Y46851919D01*
X50559552Y46813824D01*
X50673838Y46813824D01*
X50826219Y46851919D01*
X50902410Y46890014D01*
X50978600Y46966205D01*
X51016695Y47080491D01*
X51016695Y47270967D01*
X63716695Y52152682D02*
X62916695Y52152682D01*
X62916695Y51847920D01*
X62954791Y51771730D01*
X62992886Y51733634D01*
X63069076Y51695539D01*
X63183362Y51695539D01*
X63259552Y51733634D01*
X63297648Y51771730D01*
X63335743Y51847920D01*
X63335743Y52152682D01*
X63716695Y50933634D02*
X63716695Y51390777D01*
X63716695Y51162206D02*
X62916695Y51162206D01*
X63030981Y51238396D01*
X63107171Y51314587D01*
X63145267Y51390777D01*
X63716695Y50552682D02*
X63716695Y50400301D01*
X63678600Y50324111D01*
X63640505Y50286015D01*
X63526219Y50209825D01*
X63373838Y50171730D01*
X63069076Y50171730D01*
X62992886Y50209825D01*
X62954791Y50247920D01*
X62916695Y50324111D01*
X62916695Y50476492D01*
X62954791Y50552682D01*
X62992886Y50590777D01*
X63069076Y50628873D01*
X63259552Y50628873D01*
X63335743Y50590777D01*
X63373838Y50552682D01*
X63411933Y50476492D01*
X63411933Y50324111D01*
X63373838Y50247920D01*
X63335743Y50209825D01*
X63259552Y50171730D01*
X71336695Y42552682D02*
X70536695Y42552682D01*
X70536695Y42247920D01*
X70574791Y42171730D01*
X70612886Y42133634D01*
X70689076Y42095539D01*
X70803362Y42095539D01*
X70879552Y42133634D01*
X70917648Y42171730D01*
X70955743Y42247920D01*
X70955743Y42552682D01*
X70536695Y41600301D02*
X70536695Y41524111D01*
X70574791Y41447920D01*
X70612886Y41409825D01*
X70689076Y41371730D01*
X70841457Y41333634D01*
X71031933Y41333634D01*
X71184314Y41371730D01*
X71260505Y41409825D01*
X71298600Y41447920D01*
X71336695Y41524111D01*
X71336695Y41600301D01*
X71298600Y41676492D01*
X71260505Y41714587D01*
X71184314Y41752682D01*
X71031933Y41790777D01*
X70841457Y41790777D01*
X70689076Y41752682D01*
X70612886Y41714587D01*
X70574791Y41676492D01*
X70536695Y41600301D01*
X70536695Y41066968D02*
X70536695Y40533634D01*
X71336695Y40876492D01*
X61176695Y42552682D02*
X60376695Y42552682D01*
X60376695Y42247920D01*
X60414791Y42171730D01*
X60452886Y42133634D01*
X60529076Y42095539D01*
X60643362Y42095539D01*
X60719552Y42133634D01*
X60757648Y42171730D01*
X60795743Y42247920D01*
X60795743Y42552682D01*
X60376695Y41600301D02*
X60376695Y41524111D01*
X60414791Y41447920D01*
X60452886Y41409825D01*
X60529076Y41371730D01*
X60681457Y41333634D01*
X60871933Y41333634D01*
X61024314Y41371730D01*
X61100505Y41409825D01*
X61138600Y41447920D01*
X61176695Y41524111D01*
X61176695Y41600301D01*
X61138600Y41676492D01*
X61100505Y41714587D01*
X61024314Y41752682D01*
X60871933Y41790777D01*
X60681457Y41790777D01*
X60529076Y41752682D01*
X60452886Y41714587D01*
X60414791Y41676492D01*
X60376695Y41600301D01*
X60376695Y41066968D02*
X60376695Y40571730D01*
X60681457Y40838396D01*
X60681457Y40724111D01*
X60719552Y40647920D01*
X60757648Y40609825D01*
X60833838Y40571730D01*
X61024314Y40571730D01*
X61100505Y40609825D01*
X61138600Y40647920D01*
X61176695Y40724111D01*
X61176695Y40952682D01*
X61138600Y41028873D01*
X61100505Y41066968D01*
X76416695Y52152682D02*
X75616695Y52152682D01*
X75616695Y51847920D01*
X75654791Y51771730D01*
X75692886Y51733634D01*
X75769076Y51695539D01*
X75883362Y51695539D01*
X75959552Y51733634D01*
X75997648Y51771730D01*
X76035743Y51847920D01*
X76035743Y52152682D01*
X76416695Y50933634D02*
X76416695Y51390777D01*
X76416695Y51162206D02*
X75616695Y51162206D01*
X75730981Y51238396D01*
X75807171Y51314587D01*
X75845267Y51390777D01*
X75616695Y50438396D02*
X75616695Y50362206D01*
X75654791Y50286015D01*
X75692886Y50247920D01*
X75769076Y50209825D01*
X75921457Y50171730D01*
X76111933Y50171730D01*
X76264314Y50209825D01*
X76340505Y50247920D01*
X76378600Y50286015D01*
X76416695Y50362206D01*
X76416695Y50438396D01*
X76378600Y50514587D01*
X76340505Y50552682D01*
X76264314Y50590777D01*
X76111933Y50628873D01*
X75921457Y50628873D01*
X75769076Y50590777D01*
X75692886Y50552682D01*
X75654791Y50514587D01*
X75616695Y50438396D01*
X66256695Y52152682D02*
X65456695Y52152682D01*
X65456695Y51847920D01*
X65494791Y51771730D01*
X65532886Y51733634D01*
X65609076Y51695539D01*
X65723362Y51695539D01*
X65799552Y51733634D01*
X65837648Y51771730D01*
X65875743Y51847920D01*
X65875743Y52152682D01*
X66256695Y50933634D02*
X66256695Y51390777D01*
X66256695Y51162206D02*
X65456695Y51162206D01*
X65570981Y51238396D01*
X65647171Y51314587D01*
X65685267Y51390777D01*
X65799552Y50476492D02*
X65761457Y50552682D01*
X65723362Y50590777D01*
X65647171Y50628873D01*
X65609076Y50628873D01*
X65532886Y50590777D01*
X65494791Y50552682D01*
X65456695Y50476492D01*
X65456695Y50324111D01*
X65494791Y50247920D01*
X65532886Y50209825D01*
X65609076Y50171730D01*
X65647171Y50171730D01*
X65723362Y50209825D01*
X65761457Y50247920D01*
X65799552Y50324111D01*
X65799552Y50476492D01*
X65837648Y50552682D01*
X65875743Y50590777D01*
X65951933Y50628873D01*
X66104314Y50628873D01*
X66180505Y50590777D01*
X66218600Y50552682D01*
X66256695Y50476492D01*
X66256695Y50324111D01*
X66218600Y50247920D01*
X66180505Y50209825D01*
X66104314Y50171730D01*
X65951933Y50171730D01*
X65875743Y50209825D01*
X65837648Y50247920D01*
X65799552Y50324111D01*
X58636695Y42552682D02*
X57836695Y42552682D01*
X57836695Y42247920D01*
X57874791Y42171730D01*
X57912886Y42133634D01*
X57989076Y42095539D01*
X58103362Y42095539D01*
X58179552Y42133634D01*
X58217648Y42171730D01*
X58255743Y42247920D01*
X58255743Y42552682D01*
X57836695Y41600301D02*
X57836695Y41524111D01*
X57874791Y41447920D01*
X57912886Y41409825D01*
X57989076Y41371730D01*
X58141457Y41333634D01*
X58331933Y41333634D01*
X58484314Y41371730D01*
X58560505Y41409825D01*
X58598600Y41447920D01*
X58636695Y41524111D01*
X58636695Y41600301D01*
X58598600Y41676492D01*
X58560505Y41714587D01*
X58484314Y41752682D01*
X58331933Y41790777D01*
X58141457Y41790777D01*
X57989076Y41752682D01*
X57912886Y41714587D01*
X57874791Y41676492D01*
X57836695Y41600301D01*
X57912886Y41028873D02*
X57874791Y40990777D01*
X57836695Y40914587D01*
X57836695Y40724111D01*
X57874791Y40647920D01*
X57912886Y40609825D01*
X57989076Y40571730D01*
X58065267Y40571730D01*
X58179552Y40609825D01*
X58636695Y41066968D01*
X58636695Y40571730D01*
X48476695Y48432871D02*
X48095743Y48699538D01*
X48476695Y48890014D02*
X47676695Y48890014D01*
X47676695Y48585252D01*
X47714791Y48509062D01*
X47752886Y48470967D01*
X47829076Y48432871D01*
X47943362Y48432871D01*
X48019552Y48470967D01*
X48057648Y48509062D01*
X48095743Y48585252D01*
X48095743Y48890014D01*
X48248124Y48128110D02*
X48248124Y47747157D01*
X48476695Y48204300D02*
X47676695Y47937633D01*
X48476695Y47670967D01*
X47676695Y47480491D02*
X48476695Y47290014D01*
X47905267Y47137633D01*
X48476695Y46985252D01*
X47676695Y46794776D01*
X73876695Y52152682D02*
X73076695Y52152682D01*
X73076695Y51847920D01*
X73114791Y51771730D01*
X73152886Y51733634D01*
X73229076Y51695539D01*
X73343362Y51695539D01*
X73419552Y51733634D01*
X73457648Y51771730D01*
X73495743Y51847920D01*
X73495743Y52152682D01*
X73876695Y50933634D02*
X73876695Y51390777D01*
X73876695Y51162206D02*
X73076695Y51162206D01*
X73190981Y51238396D01*
X73267171Y51314587D01*
X73305267Y51390777D01*
X73076695Y50247920D02*
X73076695Y50400301D01*
X73114791Y50476492D01*
X73152886Y50514587D01*
X73267171Y50590777D01*
X73419552Y50628873D01*
X73724314Y50628873D01*
X73800505Y50590777D01*
X73838600Y50552682D01*
X73876695Y50476492D01*
X73876695Y50324111D01*
X73838600Y50247920D01*
X73800505Y50209825D01*
X73724314Y50171730D01*
X73533838Y50171730D01*
X73457648Y50209825D01*
X73419552Y50247920D01*
X73381457Y50324111D01*
X73381457Y50476492D01*
X73419552Y50552682D01*
X73457648Y50590777D01*
X73533838Y50628873D01*
X76416695Y42552682D02*
X75616695Y42552682D01*
X75616695Y42247920D01*
X75654791Y42171730D01*
X75692886Y42133634D01*
X75769076Y42095539D01*
X75883362Y42095539D01*
X75959552Y42133634D01*
X75997648Y42171730D01*
X76035743Y42247920D01*
X76035743Y42552682D01*
X75616695Y41600301D02*
X75616695Y41524111D01*
X75654791Y41447920D01*
X75692886Y41409825D01*
X75769076Y41371730D01*
X75921457Y41333634D01*
X76111933Y41333634D01*
X76264314Y41371730D01*
X76340505Y41409825D01*
X76378600Y41447920D01*
X76416695Y41524111D01*
X76416695Y41600301D01*
X76378600Y41676492D01*
X76340505Y41714587D01*
X76264314Y41752682D01*
X76111933Y41790777D01*
X75921457Y41790777D01*
X75769076Y41752682D01*
X75692886Y41714587D01*
X75654791Y41676492D01*
X75616695Y41600301D01*
X76416695Y40952682D02*
X76416695Y40800301D01*
X76378600Y40724111D01*
X76340505Y40686015D01*
X76226219Y40609825D01*
X76073838Y40571730D01*
X75769076Y40571730D01*
X75692886Y40609825D01*
X75654791Y40647920D01*
X75616695Y40724111D01*
X75616695Y40876492D01*
X75654791Y40952682D01*
X75692886Y40990777D01*
X75769076Y41028873D01*
X75959552Y41028873D01*
X76035743Y40990777D01*
X76073838Y40952682D01*
X76111933Y40876492D01*
X76111933Y40724111D01*
X76073838Y40647920D01*
X76035743Y40609825D01*
X75959552Y40571730D01*
X53556695Y48432872D02*
X53175743Y48699538D01*
X53556695Y48890015D02*
X52756695Y48890015D01*
X52756695Y48585253D01*
X52794791Y48509062D01*
X52832886Y48470967D01*
X52909076Y48432872D01*
X53023362Y48432872D01*
X53099552Y48470967D01*
X53137648Y48509062D01*
X53175743Y48585253D01*
X53175743Y48890015D01*
X53518600Y48128110D02*
X53556695Y48013824D01*
X53556695Y47823348D01*
X53518600Y47747157D01*
X53480505Y47709062D01*
X53404314Y47670967D01*
X53328124Y47670967D01*
X53251933Y47709062D01*
X53213838Y47747157D01*
X53175743Y47823348D01*
X53137648Y47975729D01*
X53099552Y48051919D01*
X53061457Y48090015D01*
X52985267Y48128110D01*
X52909076Y48128110D01*
X52832886Y48090015D01*
X52794791Y48051919D01*
X52756695Y47975729D01*
X52756695Y47785253D01*
X52794791Y47670967D01*
X52756695Y47442396D02*
X52756695Y46985253D01*
X53556695Y47213824D02*
X52756695Y47213824D01*
X61176695Y52152682D02*
X60376695Y52152682D01*
X60376695Y51847920D01*
X60414791Y51771730D01*
X60452886Y51733634D01*
X60529076Y51695539D01*
X60643362Y51695539D01*
X60719552Y51733634D01*
X60757648Y51771730D01*
X60795743Y51847920D01*
X60795743Y52152682D01*
X60452886Y51390777D02*
X60414791Y51352682D01*
X60376695Y51276492D01*
X60376695Y51086015D01*
X60414791Y51009825D01*
X60452886Y50971730D01*
X60529076Y50933634D01*
X60605267Y50933634D01*
X60719552Y50971730D01*
X61176695Y51428873D01*
X61176695Y50933634D01*
X60376695Y50438396D02*
X60376695Y50362206D01*
X60414791Y50286015D01*
X60452886Y50247920D01*
X60529076Y50209825D01*
X60681457Y50171730D01*
X60871933Y50171730D01*
X61024314Y50209825D01*
X61100505Y50247920D01*
X61138600Y50286015D01*
X61176695Y50362206D01*
X61176695Y50438396D01*
X61138600Y50514587D01*
X61100505Y50552682D01*
X61024314Y50590777D01*
X60871933Y50628873D01*
X60681457Y50628873D01*
X60529076Y50590777D01*
X60452886Y50552682D01*
X60414791Y50514587D01*
X60376695Y50438396D01*
X71336695Y52152682D02*
X70536695Y52152682D01*
X70536695Y51847920D01*
X70574791Y51771730D01*
X70612886Y51733634D01*
X70689076Y51695539D01*
X70803362Y51695539D01*
X70879552Y51733634D01*
X70917648Y51771730D01*
X70955743Y51847920D01*
X70955743Y52152682D01*
X71336695Y50933634D02*
X71336695Y51390777D01*
X71336695Y51162206D02*
X70536695Y51162206D01*
X70650981Y51238396D01*
X70727171Y51314587D01*
X70765267Y51390777D01*
X70803362Y50247920D02*
X71336695Y50247920D01*
X70498600Y50438396D02*
X71070029Y50628873D01*
X71070029Y50133634D01*
X58636695Y52152682D02*
X57836695Y52152682D01*
X57836695Y51847920D01*
X57874791Y51771730D01*
X57912886Y51733634D01*
X57989076Y51695539D01*
X58103362Y51695539D01*
X58179552Y51733634D01*
X58217648Y51771730D01*
X58255743Y51847920D01*
X58255743Y52152682D01*
X57912886Y51390777D02*
X57874791Y51352682D01*
X57836695Y51276492D01*
X57836695Y51086015D01*
X57874791Y51009825D01*
X57912886Y50971730D01*
X57989076Y50933634D01*
X58065267Y50933634D01*
X58179552Y50971730D01*
X58636695Y51428873D01*
X58636695Y50933634D01*
X58636695Y50171730D02*
X58636695Y50628873D01*
X58636695Y50400301D02*
X57836695Y50400301D01*
X57950981Y50476492D01*
X58027171Y50552682D01*
X58065267Y50628873D01*
X73876695Y42552682D02*
X73076695Y42552682D01*
X73076695Y42247920D01*
X73114791Y42171730D01*
X73152886Y42133634D01*
X73229076Y42095539D01*
X73343362Y42095539D01*
X73419552Y42133634D01*
X73457648Y42171730D01*
X73495743Y42247920D01*
X73495743Y42552682D01*
X73076695Y41600301D02*
X73076695Y41524111D01*
X73114791Y41447920D01*
X73152886Y41409825D01*
X73229076Y41371730D01*
X73381457Y41333634D01*
X73571933Y41333634D01*
X73724314Y41371730D01*
X73800505Y41409825D01*
X73838600Y41447920D01*
X73876695Y41524111D01*
X73876695Y41600301D01*
X73838600Y41676492D01*
X73800505Y41714587D01*
X73724314Y41752682D01*
X73571933Y41790777D01*
X73381457Y41790777D01*
X73229076Y41752682D01*
X73152886Y41714587D01*
X73114791Y41676492D01*
X73076695Y41600301D01*
X73419552Y40876492D02*
X73381457Y40952682D01*
X73343362Y40990777D01*
X73267171Y41028873D01*
X73229076Y41028873D01*
X73152886Y40990777D01*
X73114791Y40952682D01*
X73076695Y40876492D01*
X73076695Y40724111D01*
X73114791Y40647920D01*
X73152886Y40609825D01*
X73229076Y40571730D01*
X73267171Y40571730D01*
X73343362Y40609825D01*
X73381457Y40647920D01*
X73419552Y40724111D01*
X73419552Y40876492D01*
X73457648Y40952682D01*
X73495743Y40990777D01*
X73571933Y41028873D01*
X73724314Y41028873D01*
X73800505Y40990777D01*
X73838600Y40952682D01*
X73876695Y40876492D01*
X73876695Y40724111D01*
X73838600Y40647920D01*
X73800505Y40609825D01*
X73724314Y40571730D01*
X73571933Y40571730D01*
X73495743Y40609825D01*
X73457648Y40647920D01*
X73419552Y40724111D01*
D11*
%TO.C,REF\u002A\u002A*%
X103018505Y96950754D02*
X103018505Y96569801D01*
X102685171Y96807896D02*
X103542314Y96807896D01*
X103637552Y96760277D01*
X103685171Y96665039D01*
X103685171Y96569801D01*
X103637552Y95855515D02*
X103685171Y95950754D01*
X103685171Y96141230D01*
X103637552Y96236468D01*
X103542314Y96284087D01*
X103161362Y96284087D01*
X103066124Y96236468D01*
X103018505Y96141230D01*
X103018505Y95950754D01*
X103066124Y95855515D01*
X103161362Y95807896D01*
X103256600Y95807896D01*
X103351838Y96284087D01*
X103018505Y95379325D02*
X103685171Y95379325D01*
X103113743Y95379325D02*
X103066124Y95331706D01*
X103018505Y95236468D01*
X103018505Y95093611D01*
X103066124Y94998373D01*
X103161362Y94950754D01*
X103685171Y94950754D01*
X103018505Y94617420D02*
X103018505Y94236468D01*
X102685171Y94474563D02*
X103542314Y94474563D01*
X103637552Y94426944D01*
X103685171Y94331706D01*
X103685171Y94236468D01*
X103685171Y93903134D02*
X103018505Y93903134D01*
X102685171Y93903134D02*
X102732791Y93950754D01*
X102780410Y93903134D01*
X102732791Y93855515D01*
X102685171Y93903134D01*
X102780410Y93903134D01*
X103018505Y93426944D02*
X103685171Y93426944D01*
X103113743Y93426944D02*
X103066124Y93379325D01*
X103018505Y93284087D01*
X103018505Y93141230D01*
X103066124Y93045992D01*
X103161362Y92998373D01*
X103685171Y92998373D01*
X103018505Y92093611D02*
X103828029Y92093611D01*
X103923267Y92141230D01*
X103970886Y92188849D01*
X104018505Y92284087D01*
X104018505Y92426944D01*
X103970886Y92522182D01*
X103637552Y92093611D02*
X103685171Y92188849D01*
X103685171Y92379325D01*
X103637552Y92474563D01*
X103589933Y92522182D01*
X103494695Y92569801D01*
X103208981Y92569801D01*
X103113743Y92522182D01*
X103066124Y92474563D01*
X103018505Y92379325D01*
X103018505Y92188849D01*
X103066124Y92093611D01*
X103082005Y82996754D02*
X104082005Y82996754D01*
X103129624Y82996754D02*
X103082005Y82901515D01*
X103082005Y82711039D01*
X103129624Y82615801D01*
X103177243Y82568182D01*
X103272481Y82520563D01*
X103558195Y82520563D01*
X103653433Y82568182D01*
X103701052Y82615801D01*
X103748671Y82711039D01*
X103748671Y82901515D01*
X103701052Y82996754D01*
X103082005Y81663420D02*
X103748671Y81663420D01*
X103082005Y82091992D02*
X103605814Y82091992D01*
X103701052Y82044373D01*
X103748671Y81949134D01*
X103748671Y81806277D01*
X103701052Y81711039D01*
X103653433Y81663420D01*
X103701052Y80758658D02*
X103748671Y80853896D01*
X103748671Y81044373D01*
X103701052Y81139611D01*
X103653433Y81187230D01*
X103558195Y81234849D01*
X103272481Y81234849D01*
X103177243Y81187230D01*
X103129624Y81139611D01*
X103082005Y81044373D01*
X103082005Y80853896D01*
X103129624Y80758658D01*
X103748671Y80330087D02*
X102748671Y80330087D01*
X103367719Y80234849D02*
X103748671Y79949134D01*
X103082005Y79949134D02*
X103462957Y80330087D01*
D10*
%TO.C,B1*%
X82428791Y46631254D02*
X82178791Y46631254D01*
X85678791Y52631254D02*
X85678791Y46631254D01*
X85428791Y52631254D02*
X85678791Y52631254D01*
X85678791Y46631254D02*
X85428791Y46631254D01*
X82178791Y46631254D02*
X82178791Y52631254D01*
X82178791Y52631254D02*
X82428791Y52631254D01*
%TO.C,T2*%
X53339406Y120958838D02*
X49439406Y120958838D01*
X54689406Y118108838D02*
X54689406Y120958838D01*
X48089406Y120958838D02*
X48089406Y118108838D01*
X48089406Y118108838D02*
X54689406Y118108838D01*
X51389406Y120958838D02*
X48089406Y120958838D01*
X51389406Y120958838D02*
X54689406Y120958838D01*
D12*
%TO.C,MCU1*%
X49114791Y52419777D02*
X48434791Y52419777D01*
X51654791Y49619777D02*
X51654791Y52419777D01*
X50334791Y52419777D02*
X49654791Y52419777D01*
D10*
X77324791Y37491254D02*
X44304791Y37491254D01*
D12*
X49114791Y49619777D02*
X49114791Y52419777D01*
D10*
X44304791Y55271254D02*
X77324791Y55271254D01*
D12*
X47784791Y52419777D02*
X47114791Y52419777D01*
X52859791Y52419777D02*
X52194791Y52419777D01*
D10*
X77324791Y55271254D02*
X77324791Y37491254D01*
D12*
X47114791Y49619777D02*
X49114791Y49619777D01*
X54194791Y49619777D02*
X54194791Y52419777D01*
X54194791Y52419777D02*
X53509791Y52419777D01*
X51654791Y52419777D02*
X50984791Y52419777D01*
X52194791Y49619777D02*
X54194791Y49619777D01*
X47114791Y52419777D02*
X47114791Y49619777D01*
D10*
X44304791Y37491254D02*
X44304791Y55271254D01*
D12*
X52194791Y52419777D02*
X52194791Y49619777D01*
X49654791Y52419777D02*
X49654791Y49619777D01*
X49654791Y49619777D02*
X51654791Y49619777D01*
D13*
%TO.C,REF\u002A\u002A*%
X103486791Y76734253D02*
G75*
G03*
X104615176Y76793390I0J10794901D01*
G01*
X103405255Y98351195D02*
G75*
G03*
X102276870Y98292059I-6J-10794921D01*
G01*
X84200656Y94537298D02*
G75*
G03*
X83166791Y90386754I19286255J-7008074D01*
G01*
X104615176Y98265117D02*
G75*
G03*
X103486791Y98324254I-1128385J-10735763D01*
G01*
X102358406Y76793390D02*
G75*
G03*
X103486791Y76734254I1128379J10735785D01*
G01*
X110494840Y106815387D02*
G75*
G03*
X106344291Y107849254I-7008049J-19286133D01*
G01*
X122772925Y80521206D02*
G75*
G03*
X123806791Y84671754I-19286134J7008048D01*
G01*
X104533640Y98292059D02*
G75*
G03*
X103405255Y98351195I-1128379J-10735785D01*
G01*
X96478746Y68243119D02*
G75*
G03*
X100629291Y67209254I7008045J19286135D01*
G01*
X106344291Y67209254D02*
G75*
G03*
X110494836Y68243119I-2857506J20320019D01*
G01*
X83166790Y84671754D02*
G75*
G03*
X84200656Y80521208I20320001J2857500D01*
G01*
X100629291Y107849255D02*
G75*
G03*
X96478745Y106815389I2857500J-20320001D01*
G01*
X103405255Y76761195D02*
G75*
G03*
X104533640Y76820331I6J10794921D01*
G01*
X102276870Y76820331D02*
G75*
G03*
X103405255Y76761195I1128379J10735785D01*
G01*
X123806791Y90386754D02*
G75*
G03*
X122772925Y94537302I-20320000J-2857500D01*
G01*
X103486791Y98324254D02*
G75*
G03*
X102358406Y98265118I-6J-10794921D01*
G01*
G36*
X105486207Y72329839D02*
G01*
X105395363Y72422115D01*
X105381582Y72436111D01*
X105349721Y72468464D01*
X105303774Y72515118D01*
X105244958Y72574836D01*
X105174491Y72646381D01*
X105093592Y72728518D01*
X105003477Y72820011D01*
X104905365Y72919622D01*
X104800473Y73026115D01*
X104690019Y73138255D01*
X104575220Y73254804D01*
X104457295Y73374527D01*
X103610071Y74234664D01*
X103898439Y74237757D01*
X104186807Y74240851D01*
X104989753Y73438151D01*
X104989753Y75071709D01*
X105486207Y75071709D01*
X105486207Y72329839D01*
G37*
D14*
X105486207Y72329839D02*
X105395363Y72422115D01*
X105381582Y72436111D01*
X105349721Y72468464D01*
X105303774Y72515118D01*
X105244958Y72574836D01*
X105174491Y72646381D01*
X105093592Y72728518D01*
X105003477Y72820011D01*
X104905365Y72919622D01*
X104800473Y73026115D01*
X104690019Y73138255D01*
X104575220Y73254804D01*
X104457295Y73374527D01*
X103610071Y74234664D01*
X103898439Y74237757D01*
X104186807Y74240851D01*
X104989753Y73438151D01*
X104989753Y75071709D01*
X105486207Y75071709D01*
X105486207Y72329839D01*
G36*
X103282972Y73125831D02*
G01*
X103280359Y73097436D01*
X103271490Y73050986D01*
X103233937Y72923826D01*
X103178771Y72797963D01*
X103109079Y72679781D01*
X103027948Y72575661D01*
X103019554Y72566495D01*
X102911242Y72466169D01*
X102788822Y72382172D01*
X102655649Y72316193D01*
X102515081Y72269918D01*
X102370473Y72245037D01*
X102270227Y72240554D01*
X102121806Y72251953D01*
X101978387Y72284206D01*
X101842151Y72336229D01*
X101715276Y72406943D01*
X101599943Y72495265D01*
X101498330Y72600114D01*
X101412618Y72720407D01*
X101355363Y72827326D01*
X101302218Y72966562D01*
X101270862Y73111126D01*
X101264358Y73207490D01*
X101759597Y73207490D01*
X101759879Y73202200D01*
X101764197Y73146897D01*
X101771554Y73104605D01*
X101784199Y73065997D01*
X101804380Y73021751D01*
X101825868Y72983424D01*
X101867353Y72924630D01*
X101915410Y72869174D01*
X101964733Y72822980D01*
X102010019Y72791976D01*
X102026186Y72784200D01*
X102067091Y72766840D01*
X102110088Y72750754D01*
X102182915Y72731466D01*
X102286616Y72722945D01*
X102388157Y72735739D01*
X102484943Y72768871D01*
X102574375Y72821364D01*
X102653856Y72892241D01*
X102720790Y72980524D01*
X102749444Y73034669D01*
X102779876Y73128688D01*
X102790448Y73226237D01*
X102782142Y73324185D01*
X102755940Y73419398D01*
X102712827Y73508745D01*
X102653784Y73589091D01*
X102579794Y73657305D01*
X102491842Y73710254D01*
X102477839Y73716540D01*
X102379493Y73747165D01*
X102278141Y73757347D01*
X102177237Y73748027D01*
X102080238Y73720149D01*
X101990602Y73674653D01*
X101911785Y73612483D01*
X101847243Y73534579D01*
X101829473Y73506050D01*
X101785821Y73412627D01*
X101762965Y73314735D01*
X101759597Y73207490D01*
X101264358Y73207490D01*
X101260571Y73263604D01*
X101264132Y73353274D01*
X101286813Y73503553D01*
X101329565Y73645522D01*
X101391375Y73777507D01*
X101471233Y73897832D01*
X101568127Y74004821D01*
X101681047Y74096801D01*
X101808980Y74172094D01*
X101878831Y74204733D01*
X101953969Y74233950D01*
X102025621Y74253442D01*
X102102104Y74265379D01*
X102191739Y74271931D01*
X102209551Y74272599D01*
X102348752Y74266161D01*
X102479135Y74238485D01*
X102601351Y74189381D01*
X102716048Y74118659D01*
X102740182Y74101457D01*
X102765028Y74085114D01*
X102777459Y74078800D01*
X102778367Y74082830D01*
X102779816Y74106637D01*
X102781143Y74149760D01*
X102782312Y74209835D01*
X102783288Y74284497D01*
X102784038Y74371383D01*
X102784527Y74468128D01*
X102784719Y74572368D01*
X102784867Y75065936D01*
X103292571Y74555910D01*
X103292484Y73864196D01*
X103292481Y73852460D01*
X103292220Y73701986D01*
X103291556Y73564714D01*
X103290512Y73442058D01*
X103289109Y73335429D01*
X103287370Y73246240D01*
X103286786Y73226237D01*
X103285317Y73175903D01*
X103282972Y73125831D01*
G37*
X103282972Y73125831D02*
X103280359Y73097436D01*
X103271490Y73050986D01*
X103233937Y72923826D01*
X103178771Y72797963D01*
X103109079Y72679781D01*
X103027948Y72575661D01*
X103019554Y72566495D01*
X102911242Y72466169D01*
X102788822Y72382172D01*
X102655649Y72316193D01*
X102515081Y72269918D01*
X102370473Y72245037D01*
X102270227Y72240554D01*
X102121806Y72251953D01*
X101978387Y72284206D01*
X101842151Y72336229D01*
X101715276Y72406943D01*
X101599943Y72495265D01*
X101498330Y72600114D01*
X101412618Y72720407D01*
X101355363Y72827326D01*
X101302218Y72966562D01*
X101270862Y73111126D01*
X101264358Y73207490D01*
X101759597Y73207490D01*
X101759879Y73202200D01*
X101764197Y73146897D01*
X101771554Y73104605D01*
X101784199Y73065997D01*
X101804380Y73021751D01*
X101825868Y72983424D01*
X101867353Y72924630D01*
X101915410Y72869174D01*
X101964733Y72822980D01*
X102010019Y72791976D01*
X102026186Y72784200D01*
X102067091Y72766840D01*
X102110088Y72750754D01*
X102182915Y72731466D01*
X102286616Y72722945D01*
X102388157Y72735739D01*
X102484943Y72768871D01*
X102574375Y72821364D01*
X102653856Y72892241D01*
X102720790Y72980524D01*
X102749444Y73034669D01*
X102779876Y73128688D01*
X102790448Y73226237D01*
X102782142Y73324185D01*
X102755940Y73419398D01*
X102712827Y73508745D01*
X102653784Y73589091D01*
X102579794Y73657305D01*
X102491842Y73710254D01*
X102477839Y73716540D01*
X102379493Y73747165D01*
X102278141Y73757347D01*
X102177237Y73748027D01*
X102080238Y73720149D01*
X101990602Y73674653D01*
X101911785Y73612483D01*
X101847243Y73534579D01*
X101829473Y73506050D01*
X101785821Y73412627D01*
X101762965Y73314735D01*
X101759597Y73207490D01*
X101264358Y73207490D01*
X101260571Y73263604D01*
X101264132Y73353274D01*
X101286813Y73503553D01*
X101329565Y73645522D01*
X101391375Y73777507D01*
X101471233Y73897832D01*
X101568127Y74004821D01*
X101681047Y74096801D01*
X101808980Y74172094D01*
X101878831Y74204733D01*
X101953969Y74233950D01*
X102025621Y74253442D01*
X102102104Y74265379D01*
X102191739Y74271931D01*
X102209551Y74272599D01*
X102348752Y74266161D01*
X102479135Y74238485D01*
X102601351Y74189381D01*
X102716048Y74118659D01*
X102740182Y74101457D01*
X102765028Y74085114D01*
X102777459Y74078800D01*
X102778367Y74082830D01*
X102779816Y74106637D01*
X102781143Y74149760D01*
X102782312Y74209835D01*
X102783288Y74284497D01*
X102784038Y74371383D01*
X102784527Y74468128D01*
X102784719Y74572368D01*
X102784867Y75065936D01*
X103292571Y74555910D01*
X103292484Y73864196D01*
X103292481Y73852460D01*
X103292220Y73701986D01*
X103291556Y73564714D01*
X103290512Y73442058D01*
X103289109Y73335429D01*
X103287370Y73246240D01*
X103286786Y73226237D01*
X103285317Y73175903D01*
X103282972Y73125831D01*
G36*
X104192439Y73039526D02*
G01*
X104204668Y73029478D01*
X104230150Y73005858D01*
X104266297Y72971145D01*
X104310521Y72927820D01*
X104360234Y72878365D01*
X104521269Y72717021D01*
X104487387Y72679206D01*
X104484210Y72675714D01*
X104462342Y72652505D01*
X104427996Y72616759D01*
X104384180Y72571579D01*
X104333897Y72520066D01*
X104280155Y72465323D01*
X104106805Y72289254D01*
X103486791Y72289254D01*
X103515092Y72322889D01*
X103517385Y72325580D01*
X103538053Y72348809D01*
X103570811Y72384649D01*
X103613671Y72430994D01*
X103664643Y72485737D01*
X103721739Y72546772D01*
X103782969Y72611991D01*
X103846344Y72679289D01*
X103909877Y72746559D01*
X103971576Y72811694D01*
X104029455Y72872588D01*
X104081522Y72927134D01*
X104125791Y72973226D01*
X104160270Y73008757D01*
X104182973Y73031620D01*
X104191908Y73039709D01*
X104192439Y73039526D01*
G37*
X104192439Y73039526D02*
X104204668Y73029478D01*
X104230150Y73005858D01*
X104266297Y72971145D01*
X104310521Y72927820D01*
X104360234Y72878365D01*
X104521269Y72717021D01*
X104487387Y72679206D01*
X104484210Y72675714D01*
X104462342Y72652505D01*
X104427996Y72616759D01*
X104384180Y72571579D01*
X104333897Y72520066D01*
X104280155Y72465323D01*
X104106805Y72289254D01*
X103486791Y72289254D01*
X103515092Y72322889D01*
X103517385Y72325580D01*
X103538053Y72348809D01*
X103570811Y72384649D01*
X103613671Y72430994D01*
X103664643Y72485737D01*
X103721739Y72546772D01*
X103782969Y72611991D01*
X103846344Y72679289D01*
X103909877Y72746559D01*
X103971576Y72811694D01*
X104029455Y72872588D01*
X104081522Y72927134D01*
X104125791Y72973226D01*
X104160270Y73008757D01*
X104182973Y73031620D01*
X104191908Y73039709D01*
X104192439Y73039526D01*
%TO.C,G\u002A\u002A\u002A*%
G36*
X98294942Y51812824D02*
G01*
X98061649Y51748512D01*
X97811538Y51729304D01*
X97475458Y51740479D01*
X97191010Y51761621D01*
X96921103Y51805164D01*
X96785267Y51846472D01*
X97326734Y51846472D01*
X97377003Y51829586D01*
X97560124Y51822981D01*
X97684373Y51825451D01*
X97790747Y51838735D01*
X97750624Y51859673D01*
X97616342Y51873680D01*
X97369624Y51859673D01*
X97326734Y51846472D01*
X96785267Y51846472D01*
X96658849Y51884916D01*
X96541066Y51935740D01*
X98006388Y51935740D01*
X98007699Y51906838D01*
X98117513Y51891272D01*
X98200736Y51904830D01*
X98168666Y51942424D01*
X98119705Y51955952D01*
X98006388Y51935740D01*
X96541066Y51935740D01*
X96352787Y52016983D01*
X95951458Y52217471D01*
X95873073Y52289133D01*
X95797216Y52466154D01*
X95797782Y52474013D01*
X96004074Y52474013D01*
X96062774Y52358794D01*
X96290124Y52249200D01*
X96511909Y52195665D01*
X96888395Y52153581D01*
X97329366Y52140191D01*
X97795957Y52153149D01*
X98249304Y52190104D01*
X98650543Y52248710D01*
X98960808Y52326617D01*
X99141236Y52421477D01*
X99157661Y52442360D01*
X99132439Y52546217D01*
X98950159Y52659796D01*
X98620145Y52776740D01*
X98444794Y52834526D01*
X98157762Y52955621D01*
X97954933Y53074185D01*
X97727924Y53201704D01*
X97442869Y53218904D01*
X97181258Y53071925D01*
X97056956Y52985888D01*
X96799981Y52860844D01*
X96498468Y52750950D01*
X96390466Y52716119D01*
X96113485Y52593556D01*
X96004074Y52474013D01*
X95797782Y52474013D01*
X95805312Y52578497D01*
X95905472Y52692388D01*
X96135883Y52815481D01*
X96242044Y52860588D01*
X96498194Y52947868D01*
X96685795Y52983395D01*
X96712870Y52985572D01*
X96909386Y53056816D01*
X97121351Y53196921D01*
X97170610Y53236741D01*
X97444599Y53382912D01*
X97711996Y53373214D01*
X98010274Y53208121D01*
X98029518Y53194260D01*
X98310110Y53046312D01*
X98606246Y52957991D01*
X98725946Y52935346D01*
X99043883Y52822441D01*
X99259024Y52661464D01*
X99338124Y52474381D01*
X99333900Y52442360D01*
X99333130Y52436520D01*
X99252947Y52319437D01*
X99057488Y52181752D01*
X98724291Y52006335D01*
X98580568Y51936960D01*
X98506640Y51904830D01*
X98354561Y51838735D01*
X98294942Y51812824D01*
G37*
G36*
X101464233Y49090587D02*
G01*
X101284819Y48878921D01*
X101094638Y49100159D01*
X100902864Y49291458D01*
X100688782Y49458488D01*
X100473107Y49595578D01*
X100371837Y49216940D01*
X100294450Y48992587D01*
X100031022Y48568076D01*
X99659005Y48250235D01*
X99205652Y48065962D01*
X98955414Y47997499D01*
X98782528Y47903694D01*
X98770560Y47796965D01*
X98914791Y47670903D01*
X99017533Y47571926D01*
X99042818Y47505329D01*
X99084124Y47396537D01*
X99071892Y47273539D01*
X99001852Y47237333D01*
X98833022Y47311037D01*
X98709705Y47349216D01*
X98629578Y47268704D01*
X98578578Y47187204D01*
X98457835Y47152077D01*
X98356333Y47260898D01*
X98303931Y47320856D01*
X98147323Y47335690D01*
X98063852Y47327333D01*
X97987558Y47391260D01*
X98012654Y47504907D01*
X98181566Y47504907D01*
X98253320Y47511680D01*
X98340280Y47517645D01*
X98434846Y47413728D01*
X98447148Y47372879D01*
X98484188Y47340233D01*
X98535158Y47462539D01*
X98547587Y47499095D01*
X98615372Y47599426D01*
X98715512Y47556307D01*
X98787206Y47510679D01*
X98881755Y47505329D01*
X98870365Y47558600D01*
X98752709Y47647373D01*
X98643048Y47735988D01*
X98569440Y47887066D01*
X98554948Y47977967D01*
X98516910Y47905254D01*
X98441906Y47782873D01*
X98290761Y47622206D01*
X98243161Y47579842D01*
X98181566Y47504907D01*
X98012654Y47504907D01*
X98017404Y47526419D01*
X98152791Y47693587D01*
X98265512Y47813867D01*
X98322124Y47918376D01*
X98302849Y47934351D01*
X98155848Y47962859D01*
X97895683Y47982564D01*
X97560124Y47989921D01*
X97165534Y47980690D01*
X96908778Y47946966D01*
X96797854Y47881716D01*
X96821251Y47777922D01*
X96967458Y47628566D01*
X97077040Y47504168D01*
X97100760Y47445249D01*
X97136791Y47355750D01*
X97080983Y47253017D01*
X96954184Y47234566D01*
X96837327Y47317654D01*
X96779783Y47347063D01*
X96668696Y47254154D01*
X96657843Y47239714D01*
X96552662Y47151869D01*
X96448224Y47206754D01*
X96380077Y47256338D01*
X96188524Y47312587D01*
X96134281Y47318891D01*
X96045517Y47400444D01*
X96066722Y47516869D01*
X96247116Y47516869D01*
X96305987Y47514801D01*
X96392171Y47518792D01*
X96478225Y47413728D01*
X96490184Y47362535D01*
X96527469Y47326092D01*
X96602335Y47435588D01*
X96637022Y47492169D01*
X96723771Y47553561D01*
X96853431Y47480483D01*
X96915685Y47435454D01*
X96930090Y47445249D01*
X96830068Y47569150D01*
X96690253Y47753018D01*
X96603918Y47905254D01*
X96603656Y47905972D01*
X96564862Y47982784D01*
X96550809Y47894414D01*
X96497367Y47765857D01*
X96353624Y47614488D01*
X96334291Y47599870D01*
X96247116Y47516869D01*
X96066722Y47516869D01*
X96070067Y47535236D01*
X96205458Y47670903D01*
X96295797Y47736818D01*
X96365958Y47861986D01*
X96271490Y47962205D01*
X96014958Y48032606D01*
X96002619Y48034631D01*
X95526046Y48196883D01*
X95125575Y48497115D01*
X94835880Y48909539D01*
X94752605Y49103340D01*
X94688136Y49345094D01*
X94658199Y49641512D01*
X94653694Y50049534D01*
X94653651Y50087097D01*
X94874457Y50087097D01*
X94908646Y49563334D01*
X95068050Y49091740D01*
X95340625Y48702928D01*
X95714326Y48427510D01*
X95752531Y48408878D01*
X95940888Y48330404D01*
X96145337Y48275947D01*
X96404186Y48239770D01*
X96755746Y48216138D01*
X97238326Y48199313D01*
X97809488Y48190929D01*
X98427985Y48208930D01*
X98916372Y48265483D01*
X99295610Y48366686D01*
X99586661Y48518637D01*
X99810485Y48727432D01*
X99988045Y48999169D01*
X100089320Y49235729D01*
X100171262Y49615475D01*
X100160227Y49965144D01*
X100053367Y50230971D01*
X100038430Y50252075D01*
X99930890Y50461808D01*
X99840839Y50718882D01*
X99783464Y50897409D01*
X99711721Y50985912D01*
X99609738Y50963856D01*
X99589387Y50954412D01*
X99411126Y50895024D01*
X99129471Y50818737D01*
X98795575Y50739636D01*
X98730419Y50725857D01*
X98031375Y50638913D01*
X97267464Y50635774D01*
X96511016Y50713295D01*
X95834362Y50868334D01*
X95542700Y50952057D01*
X95283501Y50985500D01*
X95117240Y50921722D01*
X95009038Y50744170D01*
X94924017Y50436290D01*
X94874457Y50087097D01*
X94653651Y50087097D01*
X94653361Y50342958D01*
X94638055Y50620483D01*
X94601926Y50777835D01*
X94540977Y50843143D01*
X94497636Y50870646D01*
X94368139Y51026663D01*
X94234889Y51257624D01*
X94130801Y51501444D01*
X94088791Y51696041D01*
X94082283Y51736972D01*
X93991294Y51910680D01*
X93827238Y52101580D01*
X93670953Y52271671D01*
X94287825Y52271671D01*
X94342682Y51715711D01*
X94377589Y51595489D01*
X94498416Y51319303D01*
X94638262Y51123398D01*
X94836403Y50937254D01*
X94989412Y51170774D01*
X94996771Y51182465D01*
X95089378Y51442513D01*
X95136836Y51803265D01*
X95138665Y52205806D01*
X95094384Y52591219D01*
X95003514Y52900587D01*
X94989304Y52932106D01*
X94885103Y53175557D01*
X94811700Y53366254D01*
X94797899Y53403908D01*
X94751339Y53459238D01*
X94680299Y53399968D01*
X94556865Y53208857D01*
X94380285Y52814856D01*
X94287825Y52271671D01*
X93670953Y52271671D01*
X93596453Y52352752D01*
X93251478Y52913949D01*
X93033703Y53572528D01*
X92945101Y54316859D01*
X92956425Y54534707D01*
X93242124Y54534707D01*
X93256389Y54101307D01*
X93337047Y53554865D01*
X93501533Y53079156D01*
X93764149Y52621769D01*
X93976668Y52309019D01*
X94119370Y52822293D01*
X94177415Y53002737D01*
X94325034Y53330640D01*
X94486815Y53560308D01*
X94711557Y53785051D01*
X94432538Y54574627D01*
X94355728Y54797336D01*
X94259271Y55097225D01*
X94199914Y55309687D01*
X94188260Y55398945D01*
X94198118Y55401410D01*
X94334722Y55411145D01*
X94616900Y55422808D01*
X95026380Y55435893D01*
X95544893Y55449897D01*
X96154169Y55464314D01*
X96835936Y55478640D01*
X97571926Y55492372D01*
X98459968Y55506403D01*
X99244399Y55515059D01*
X99873411Y55517234D01*
X100354103Y55512860D01*
X100693577Y55501868D01*
X100898934Y55484192D01*
X100977274Y55459762D01*
X100971841Y55353483D01*
X100913987Y55122641D01*
X100813067Y54802665D01*
X100679057Y54428062D01*
X100324416Y53487658D01*
X99472359Y53511623D01*
X98620303Y53535587D01*
X97926555Y55228921D01*
X97266011Y55228921D01*
X96919184Y54382254D01*
X96572358Y53535587D01*
X95829360Y53510990D01*
X95785916Y53509634D01*
X95456226Y53501299D01*
X95251172Y53479388D01*
X95152586Y53413431D01*
X95142301Y53272959D01*
X95202150Y53027501D01*
X95313964Y52646587D01*
X95382450Y52338731D01*
X95385081Y52205806D01*
X95394251Y51742598D01*
X95340823Y51304274D01*
X95921307Y51118323D01*
X96046394Y51081614D01*
X96573943Y50975567D01*
X97178758Y50911717D01*
X97801232Y50892507D01*
X98381760Y50920382D01*
X98860734Y50997786D01*
X98911479Y51014580D01*
X100016285Y51014580D01*
X100055159Y50835555D01*
X100183281Y50547065D01*
X100373737Y50220888D01*
X100598394Y49904423D01*
X100829120Y49645071D01*
X100861411Y49615475D01*
X101034373Y49456947D01*
X101208172Y49314430D01*
X101300605Y49259921D01*
X101324781Y49273225D01*
X101361774Y49401812D01*
X101369342Y49627322D01*
X101350055Y49900664D01*
X101306485Y50172744D01*
X101241200Y50394467D01*
X101188637Y50502329D01*
X101015688Y50777031D01*
X100809813Y51037816D01*
X100642526Y51216932D01*
X100519576Y51309537D01*
X100409765Y51312511D01*
X100261404Y51245423D01*
X100248836Y51238788D01*
X100083845Y51121244D01*
X100016285Y51014580D01*
X98911479Y51014580D01*
X99549863Y51225854D01*
X100242427Y51577732D01*
X100843518Y52017789D01*
X101328242Y52527509D01*
X101671702Y53088376D01*
X101750841Y53268753D01*
X101836862Y53510692D01*
X101885724Y53753678D01*
X101907146Y54053743D01*
X101910850Y54466921D01*
X101898638Y54884587D01*
X101809342Y55611903D01*
X101619897Y56291477D01*
X101314142Y56991691D01*
X101108952Y57357032D01*
X100634715Y57969373D01*
X100057503Y58451369D01*
X99369651Y58808749D01*
X98563494Y59047239D01*
X98512813Y59057870D01*
X98220887Y59121820D01*
X98009251Y59172733D01*
X97920758Y59200399D01*
X97918421Y59207970D01*
X97944004Y59319441D01*
X98015548Y59512754D01*
X98091637Y59724461D01*
X98188963Y60084112D01*
X98260580Y60452966D01*
X98296220Y60774748D01*
X98285618Y60993180D01*
X98224040Y61123261D01*
X98062191Y61197921D01*
X98033336Y61196024D01*
X97867667Y61091093D01*
X97745767Y60832140D01*
X97670515Y60428200D01*
X97644791Y59888307D01*
X97637851Y59573640D01*
X97615806Y59315729D01*
X97584881Y59186240D01*
X97551523Y59195188D01*
X97522177Y59352590D01*
X97503292Y59668463D01*
X97476753Y59971244D01*
X97373686Y60383344D01*
X97207983Y60698340D01*
X96994087Y60881815D01*
X96900934Y60915207D01*
X96724319Y60894701D01*
X96620447Y60725392D01*
X96586458Y60403930D01*
X96634474Y60067733D01*
X96812125Y59745875D01*
X96948948Y59557778D01*
X97060703Y59343233D01*
X97036425Y59203035D01*
X96865128Y59108806D01*
X96535828Y59032170D01*
X96179685Y58948198D01*
X95455747Y58658516D01*
X94817844Y58234210D01*
X94275214Y57687891D01*
X93837091Y57032170D01*
X93512711Y56279659D01*
X93311310Y55442967D01*
X93242124Y54534707D01*
X92956425Y54534707D01*
X92987645Y55135311D01*
X93163307Y56016252D01*
X93379428Y56669676D01*
X93765385Y57441269D01*
X94256309Y58095166D01*
X94843456Y58622243D01*
X95518082Y59013376D01*
X96271443Y59259441D01*
X96485270Y59306865D01*
X96691496Y59355941D01*
X96781143Y59382031D01*
X96778619Y59402553D01*
X96713970Y59525484D01*
X96590643Y59718143D01*
X96452200Y59980745D01*
X96369081Y60356814D01*
X96412460Y60707734D01*
X96582609Y60990103D01*
X96702112Y61102235D01*
X96849555Y61181814D01*
X96998989Y61142491D01*
X97209099Y60983661D01*
X97463732Y60769401D01*
X97575428Y61001752D01*
X97706808Y61187874D01*
X97914172Y61361370D01*
X98048735Y61428493D01*
X98176106Y61433276D01*
X98316339Y61330157D01*
X98414466Y61190948D01*
X98486312Y60876583D01*
X98470587Y60450203D01*
X98366571Y59931858D01*
X98319380Y59735268D01*
X98283787Y59525184D01*
X98287870Y59425953D01*
X98357340Y59396374D01*
X98553974Y59342009D01*
X98824541Y59281318D01*
X99311589Y59149809D01*
X100023182Y58823478D01*
X100645647Y58363495D01*
X101171816Y57780268D01*
X101594521Y57084207D01*
X101906595Y56285720D01*
X102100869Y55395215D01*
X102167051Y54466921D01*
X102170175Y54423100D01*
X102170705Y54167779D01*
X102164752Y53813404D01*
X102142794Y53555039D01*
X102096466Y53345539D01*
X102017405Y53137761D01*
X101897250Y52884563D01*
X101638103Y52447117D01*
X101161547Y51902142D01*
X100703052Y51483104D01*
X100959676Y51239346D01*
X101200010Y50955377D01*
X101417624Y50563779D01*
X101562176Y50141795D01*
X101624344Y49729133D01*
X101616073Y49627322D01*
X101594804Y49365495D01*
X101464233Y49090587D01*
G37*
%TD*%
D15*
%TO.C,PAD1*%
X50908791Y107341254D03*
X48908791Y107341254D03*
X46908791Y107341254D03*
%TD*%
D16*
%TO.C,MCU1*%
X76054791Y38761254D03*
X73514791Y38761254D03*
X70974791Y38761254D03*
X68434791Y38761254D03*
X65894791Y38761254D03*
X63354791Y38761254D03*
X60814791Y38761254D03*
X58274791Y38761254D03*
X55734791Y38761254D03*
X76054791Y54001254D03*
X73514791Y54001254D03*
X70974791Y54001254D03*
X68434791Y54001254D03*
X65894791Y54001254D03*
X63354791Y54001254D03*
X60814791Y54001254D03*
X58274791Y54001254D03*
X55734791Y54001254D03*
X50654791Y54001254D03*
X48114791Y38761254D03*
X48031045Y54001254D03*
X53194791Y54001254D03*
X53194791Y38761254D03*
X50654791Y38761254D03*
%TD*%
%LPC*%
D17*
%TO.C,*%
X47860791Y58573254D03*
%TD*%
%TO.C,*%
X141078791Y61367254D03*
%TD*%
%TO.C,*%
X140824791Y115215254D03*
%TD*%
%TO.C,*%
X61830791Y117247254D03*
%TD*%
D18*
%TO.C,B1*%
X83928791Y52881254D03*
X83928791Y46381254D03*
%TD*%
D19*
%TO.C,S11*%
X65970667Y103790002D03*
D20*
X75659968Y109306336D03*
X70353903Y110604673D03*
D21*
X71387110Y104745067D03*
D19*
X76803553Y105700132D03*
D20*
X65811891Y107569854D03*
D22*
X67128657Y110035975D03*
D23*
X67122934Y100134557D03*
X76971012Y101871038D03*
D22*
X78885214Y109875034D03*
D23*
X72411634Y98934701D03*
%TD*%
D20*
%TO.C,S15*%
X88913836Y100414117D03*
X93703066Y103041525D03*
X98875783Y101285675D03*
D21*
X94221643Y97114167D03*
D19*
X99700714Y97593524D03*
X88742572Y96634810D03*
D23*
X89571861Y92892848D03*
D24*
X90440528Y102756090D03*
D23*
X99533808Y93764406D03*
D24*
X102138320Y101571110D03*
D23*
X94735862Y91236618D03*
%TD*%
D20*
%TO.C,S21*%
X120424791Y91827253D03*
D19*
X109924791Y88077254D03*
X120924791Y88077254D03*
D21*
X115424791Y88077254D03*
D20*
X115424791Y94027254D03*
X110424791Y91827253D03*
D25*
X112149790Y94027254D03*
D23*
X120424791Y84277254D03*
X110424791Y84277254D03*
X115424791Y82177254D03*
D25*
X123699791Y91827253D03*
%TD*%
D26*
%TO.C,T2*%
X55089406Y120708838D03*
X47689406Y120708838D03*
X55089406Y118508838D03*
X47689406Y118508838D03*
D27*
X49889406Y119608838D03*
X52889406Y119608838D03*
D28*
X49139406Y117533838D03*
X52139406Y117533838D03*
X53639406Y117533838D03*
%TD*%
D20*
%TO.C,S29*%
X128599495Y99294490D03*
D21*
X133599495Y95544491D03*
D20*
X133599495Y101494491D03*
D19*
X128099495Y95544491D03*
X139099495Y95544491D03*
D20*
X138599495Y99294490D03*
D23*
X128599495Y91744491D03*
X138599495Y91744491D03*
D25*
X130324494Y101494491D03*
D23*
X133599495Y89644491D03*
D25*
X141874495Y99294490D03*
%TD*%
D19*
%TO.C,S33*%
X144011792Y47543254D03*
D20*
X133511792Y51293253D03*
X143511792Y51293253D03*
D19*
X133011792Y47543254D03*
D20*
X138511792Y53493254D03*
D21*
X138511792Y47543254D03*
D25*
X135236791Y53493254D03*
D23*
X143511792Y43743254D03*
X133511792Y43743254D03*
X138511792Y41643254D03*
D25*
X146786792Y51293253D03*
%TD*%
D20*
%TO.C,S7*%
X81564006Y75822872D03*
X76257941Y77121209D03*
D19*
X71874705Y70306538D03*
D20*
X71715929Y74086390D03*
D21*
X77291148Y71261603D03*
D19*
X82707591Y72216668D03*
D23*
X82875050Y68387574D03*
D22*
X73032695Y76552511D03*
D23*
X73026972Y66651093D03*
D22*
X84789252Y76391570D03*
D23*
X78315672Y65451237D03*
%TD*%
D29*
%TO.C,PAD1*%
X50908791Y107341254D03*
X48908791Y107341254D03*
X46908791Y107341254D03*
%TD*%
D20*
%TO.C,S5*%
X56527389Y87777963D03*
D21*
X52842259Y82729963D03*
D20*
X51102647Y88419976D03*
D19*
X47582583Y81121919D03*
D20*
X46964342Y84854246D03*
D19*
X58101935Y84338007D03*
D23*
X58734795Y80557863D03*
D30*
X47970748Y87462459D03*
D23*
X49171748Y77634146D03*
D30*
X59659287Y88735481D03*
D23*
X54567252Y77087765D03*
%TD*%
D20*
%TO.C,S27*%
X133599495Y84494491D03*
D19*
X128099495Y78544491D03*
D20*
X138599495Y82294490D03*
D19*
X139099495Y78544491D03*
D20*
X128599495Y82294490D03*
D21*
X133599495Y78544491D03*
D23*
X138599495Y74744491D03*
D25*
X130324494Y84494491D03*
D23*
X128599495Y74744491D03*
X133599495Y72644491D03*
D25*
X141874495Y82294490D03*
%TD*%
D23*
%TO.C,S9*%
X75363653Y82192969D03*
D22*
X81837233Y93133302D03*
X70080676Y93294243D03*
D23*
X70074953Y83392825D03*
X79923031Y85129306D03*
D20*
X68763910Y90828122D03*
D19*
X79755572Y88958400D03*
D20*
X73305922Y93862941D03*
D21*
X74339129Y88003335D03*
D19*
X68922686Y87048270D03*
D20*
X78611987Y92564604D03*
%TD*%
%TO.C,S13*%
X90395484Y83478807D03*
X100357431Y84350365D03*
D19*
X101182362Y80658214D03*
D20*
X95184714Y86106215D03*
D19*
X90224220Y79699500D03*
D21*
X95703291Y80178857D03*
D23*
X91053509Y75957538D03*
D24*
X91922176Y85820780D03*
D23*
X101015456Y76829096D03*
X96217510Y74301308D03*
D24*
X103619968Y84635800D03*
%TD*%
D20*
%TO.C,S17*%
X92221419Y119976835D03*
D19*
X98219067Y114528834D03*
D20*
X97394136Y118220985D03*
D19*
X87260925Y113570120D03*
D20*
X87432189Y117349427D03*
D21*
X92739996Y114049477D03*
D24*
X88958881Y119691400D03*
D23*
X98052161Y110699716D03*
X88090214Y109828158D03*
X93254215Y108171928D03*
D24*
X100656673Y118506420D03*
%TD*%
D23*
%TO.C,S31*%
X120321152Y44326273D03*
D25*
X128596152Y53976272D03*
X117046151Y56176273D03*
D23*
X115321152Y46426273D03*
X125321152Y46426273D03*
D20*
X120321152Y56176273D03*
D19*
X125821152Y50226273D03*
X114821152Y50226273D03*
D21*
X120321152Y50226273D03*
D20*
X115321152Y53976272D03*
X125321152Y53976272D03*
%TD*%
D31*
%TO.C,MCU1*%
X76054791Y38761254D03*
X73514791Y38761254D03*
X70974791Y38761254D03*
X68434791Y38761254D03*
X65894791Y38761254D03*
X63354791Y38761254D03*
X60814791Y38761254D03*
X58274791Y38761254D03*
X55734791Y38761254D03*
X76054791Y54001254D03*
X73514791Y54001254D03*
X70974791Y54001254D03*
X68434791Y54001254D03*
X65894791Y54001254D03*
X63354791Y54001254D03*
X60814791Y54001254D03*
X58274791Y54001254D03*
X55734791Y54001254D03*
D32*
X53194791Y50294777D03*
X50654791Y50294777D03*
X48114791Y50294777D03*
D31*
X50654791Y54001254D03*
X48114791Y38761254D03*
X48031045Y54001254D03*
D33*
X50654791Y52669777D03*
D34*
X53194791Y51744777D03*
D33*
X48114791Y52669777D03*
D31*
X53194791Y54001254D03*
X53194791Y38761254D03*
D33*
X53194791Y52669777D03*
D34*
X48114791Y51744777D03*
X50654791Y51744777D03*
D31*
X50654791Y38761254D03*
%TD*%
D30*
%TO.C,S3*%
X64629606Y72478300D03*
D23*
X59537571Y60830584D03*
X63705114Y64300682D03*
D30*
X52941067Y71205278D03*
D23*
X54142067Y61376965D03*
D21*
X57812578Y66472782D03*
D20*
X61497708Y71520782D03*
X51934661Y68597065D03*
X56072966Y72162795D03*
D19*
X63072254Y68080826D03*
X52552902Y64864738D03*
%TD*%
D35*
%TO.C,REF\u002A\u002A*%
X84436791Y87529254D03*
X103486791Y68479254D03*
X103486791Y106579254D03*
%TD*%
D19*
%TO.C,S23*%
X120924791Y105077254D03*
D20*
X110424791Y108827253D03*
X115424791Y111027254D03*
X120424791Y108827253D03*
D21*
X115424791Y105077254D03*
D19*
X109924791Y105077254D03*
D25*
X112149790Y111027254D03*
D23*
X120424791Y101277254D03*
X110424791Y101277254D03*
X115424791Y99177254D03*
D25*
X123699791Y108827253D03*
%TD*%
D20*
%TO.C,S19*%
X120424791Y74827253D03*
D19*
X120924791Y71077254D03*
X109924791Y71077254D03*
D21*
X115424791Y71077254D03*
D20*
X115424791Y77027254D03*
X110424791Y74827253D03*
D25*
X112149790Y77027254D03*
D23*
X110424791Y67277254D03*
X120424791Y67277254D03*
D25*
X123699791Y74827253D03*
D23*
X115424791Y65177254D03*
%TD*%
M02*
