%FSLAX45Y45*%
G04 Gerber Fmt 4.5, Leading zero omitted, Abs format (unit mm)*
G04 Created by KiCad (PCBNEW (6.0.4)) date 2022-07-08 06:12:22*
%MOMM*%
%LPD*%
G01*
G04 APERTURE LIST*
%TA.AperFunction,Profile*%
%ADD10C,0.050000*%
%TD*%
%ADD11C,0.200000*%
%ADD12C,0.090000*%
%ADD13C,0.170180*%
%ADD14C,0.300000*%
%ADD15C,0.342900*%
G04 APERTURE END LIST*
D10*
X14831618Y4125490D02*
X14831979Y11826325D01*
X4176475Y4125325D02*
G75*
G03*
X4620979Y3680825I444505J5D01*
G01*
X14831975Y11826325D02*
G75*
G03*
X14387479Y12270825I-444495J5D01*
G01*
X4620979Y3680825D02*
X14387118Y3680990D01*
X4176115Y11826612D02*
X4176479Y4125325D01*
X14387479Y12270825D02*
X4620615Y12271112D01*
X4620615Y12271112D02*
G75*
G03*
X4176115Y11826612I0J-444500D01*
G01*
X14387118Y3680991D02*
G75*
G03*
X14831618Y4125490I2J444499D01*
G01*
D11*
D12*
X4943941Y12005884D02*
X5033941Y11915884D01*
X5033941Y12005884D02*
X4943941Y11915884D01*
X5243941Y12005884D02*
X5333941Y11915884D01*
X5333941Y12005884D02*
X5243941Y11915884D01*
D13*
X4843348Y8112192D02*
G75*
G03*
X4843348Y8112192I-85090J0D01*
G01*
X5340380Y6486474D02*
G75*
G03*
X5340380Y6486474I-85090J0D01*
G01*
X5895283Y8433801D02*
G75*
G03*
X5895283Y8433801I-85090J0D01*
G01*
X6392315Y6808083D02*
G75*
G03*
X6392315Y6808083I-85090J0D01*
G01*
X6682157Y10379000D02*
G75*
G03*
X6682157Y10379000I-85090J0D01*
G01*
X6977359Y8704827D02*
G75*
G03*
X6977359Y8704827I-85090J0D01*
G01*
X7272560Y7030654D02*
G75*
G03*
X7272560Y7030654I-85090J0D01*
G01*
X7765445Y10570013D02*
G75*
G03*
X7765445Y10570013I-85090J0D01*
G01*
X8060647Y8895840D02*
G75*
G03*
X8060647Y8895840I-85090J0D01*
G01*
X8355849Y7221667D02*
G75*
G03*
X8355849Y7221667I-85090J0D01*
G01*
X8811183Y11357012D02*
G75*
G03*
X8811183Y11357012I-85090J0D01*
G01*
X8959347Y9663481D02*
G75*
G03*
X8959347Y9663481I-85090J0D01*
G01*
X9107512Y7969950D02*
G75*
G03*
X9107512Y7969950I-85090J0D01*
G01*
X9906997Y11452883D02*
G75*
G03*
X9906997Y11452883I-85090J0D01*
G01*
X10055161Y9759352D02*
G75*
G03*
X10055161Y9759352I-85090J0D01*
G01*
X10203326Y8065821D02*
G75*
G03*
X10203326Y8065821I-85090J0D01*
G01*
X11077569Y10507725D02*
G75*
G03*
X11077569Y10507725I-85090J0D01*
G01*
X11077569Y8807725D02*
G75*
G03*
X11077569Y8807725I-85090J0D01*
G01*
X11077569Y7107725D02*
G75*
G03*
X11077569Y7107725I-85090J0D01*
G01*
X11567205Y5022627D02*
G75*
G03*
X11567205Y5022627I-85090J0D01*
G01*
X12177569Y10507725D02*
G75*
G03*
X12177569Y10507725I-85090J0D01*
G01*
X12177569Y8807725D02*
G75*
G03*
X12177569Y8807725I-85090J0D01*
G01*
X12177569Y7107725D02*
G75*
G03*
X12177569Y7107725I-85090J0D01*
G01*
X12667205Y5022627D02*
G75*
G03*
X12667205Y5022627I-85090J0D01*
G01*
X12895039Y9554449D02*
G75*
G03*
X12895039Y9554449I-85090J0D01*
G01*
X12895039Y7854449D02*
G75*
G03*
X12895039Y7854449I-85090J0D01*
G01*
X13386269Y4754325D02*
G75*
G03*
X13386269Y4754325I-85090J0D01*
G01*
X13995039Y9554449D02*
G75*
G03*
X13995039Y9554449I-85090J0D01*
G01*
X13995039Y7854449D02*
G75*
G03*
X13995039Y7854449I-85090J0D01*
G01*
X14486269Y4754325D02*
G75*
G03*
X14486269Y4754325I-85090J0D01*
G01*
D14*
X4696434Y8635425D02*
X4696434Y8335425D01*
X4546434Y8485425D02*
X4846434Y8485425D01*
X5110265Y8991998D02*
X5110265Y8691998D01*
X4960265Y8841998D02*
X5260265Y8841998D01*
X5193466Y7009706D02*
X5193466Y6709706D01*
X5043466Y6859706D02*
X5343466Y6859706D01*
X5607297Y7366279D02*
X5607297Y7066279D01*
X5457297Y7216279D02*
X5757297Y7216279D01*
X5652739Y8927796D02*
X5652739Y8627796D01*
X5502739Y8777796D02*
X5802739Y8777796D01*
X6149771Y7302078D02*
X6149771Y7002078D01*
X5999771Y7152078D02*
X6299771Y7152078D01*
X6581189Y10906985D02*
X6581189Y10606985D01*
X6431189Y10756985D02*
X6731189Y10756985D01*
X6876391Y9232812D02*
X6876391Y8932812D01*
X6726391Y9082812D02*
X7026391Y9082812D01*
X7035390Y11210467D02*
X7035390Y10910467D01*
X6885390Y11060467D02*
X7185390Y11060467D01*
X7171593Y7558639D02*
X7171593Y7258639D01*
X7021593Y7408639D02*
X7321593Y7408639D01*
X7330592Y9536294D02*
X7330592Y9236294D01*
X7180592Y9386294D02*
X7480592Y9386294D01*
X7565997Y11080634D02*
X7565997Y10780634D01*
X7415997Y10930634D02*
X7715997Y10930634D01*
X7625794Y7862121D02*
X7625794Y7562121D01*
X7475794Y7712121D02*
X7775794Y7712121D01*
X7861199Y9406460D02*
X7861199Y9106460D01*
X7711199Y9256460D02*
X8011199Y9256460D01*
X8156401Y7732287D02*
X8156401Y7432287D01*
X8006401Y7582287D02*
X8306401Y7582287D01*
X8743219Y11884943D02*
X8743219Y11584943D01*
X8593219Y11734943D02*
X8893219Y11734943D01*
X8891384Y10191412D02*
X8891384Y9891412D01*
X8741384Y10041412D02*
X9041384Y10041412D01*
X9039548Y8497881D02*
X9039548Y8197881D01*
X8889548Y8347881D02*
X9189548Y8347881D01*
X9222142Y12147683D02*
X9222142Y11847683D01*
X9072142Y11997683D02*
X9372142Y11997683D01*
X9370307Y10454153D02*
X9370307Y10154153D01*
X9220307Y10304153D02*
X9520307Y10304153D01*
X9518471Y8760622D02*
X9518471Y8460622D01*
X9368471Y8610622D02*
X9668471Y8610622D01*
X9739414Y11972098D02*
X9739414Y11672098D01*
X9589414Y11822098D02*
X9889414Y11822098D01*
X9887578Y10278568D02*
X9887578Y9978568D01*
X9737578Y10128568D02*
X10037578Y10128568D01*
X10035743Y8585037D02*
X10035743Y8285036D01*
X9885743Y8435037D02*
X10185743Y8435037D01*
X11042479Y11032725D02*
X11042479Y10732725D01*
X10892479Y10882725D02*
X11192479Y10882725D01*
X11042479Y9332725D02*
X11042479Y9032725D01*
X10892479Y9182725D02*
X11192479Y9182725D01*
X11042479Y7632725D02*
X11042479Y7332725D01*
X10892479Y7482725D02*
X11192479Y7482725D01*
X11532115Y5547627D02*
X11532115Y5247627D01*
X11382115Y5397627D02*
X11682115Y5397627D01*
X11542479Y11252725D02*
X11542479Y10952725D01*
X11392479Y11102725D02*
X11692479Y11102725D01*
X11542479Y9552725D02*
X11542479Y9252725D01*
X11392479Y9402725D02*
X11692479Y9402725D01*
X11542479Y7852725D02*
X11542479Y7552725D01*
X11392479Y7702725D02*
X11692479Y7702725D01*
X12032115Y5767627D02*
X12032115Y5467627D01*
X11882115Y5617627D02*
X12182115Y5617627D01*
X12042479Y11032725D02*
X12042479Y10732725D01*
X11892479Y10882725D02*
X12192479Y10882725D01*
X12042479Y9332725D02*
X12042479Y9032725D01*
X11892479Y9182725D02*
X12192479Y9182725D01*
X12042479Y7632725D02*
X12042479Y7332725D01*
X11892479Y7482725D02*
X12192479Y7482725D01*
X12532115Y5547627D02*
X12532115Y5247627D01*
X12382115Y5397627D02*
X12682115Y5397627D01*
X12859949Y10079449D02*
X12859949Y9779449D01*
X12709949Y9929449D02*
X13009949Y9929449D01*
X12859949Y8379449D02*
X12859949Y8079449D01*
X12709949Y8229449D02*
X13009949Y8229449D01*
X13351179Y5279325D02*
X13351179Y4979325D01*
X13201179Y5129325D02*
X13501179Y5129325D01*
X13359949Y10299449D02*
X13359949Y9999449D01*
X13209949Y10149449D02*
X13509949Y10149449D01*
X13359949Y8599449D02*
X13359949Y8299449D01*
X13209949Y8449449D02*
X13509949Y8449449D01*
X13851179Y5499325D02*
X13851179Y5199325D01*
X13701179Y5349325D02*
X14001179Y5349325D01*
X13859949Y10079449D02*
X13859949Y9779449D01*
X13709949Y9929449D02*
X14009949Y9929449D01*
X13859949Y8379449D02*
X13859949Y8079449D01*
X13709949Y8229449D02*
X14009949Y8229449D01*
X14351179Y5279325D02*
X14351179Y4979325D01*
X14201179Y5129325D02*
X14501179Y5129325D01*
D15*
X5405461Y8151762D02*
X5405461Y8394231D01*
X5162991Y8394231D01*
X5162991Y8151762D01*
X5405461Y8151762D01*
X5902492Y6526044D02*
X5902492Y6768513D01*
X5660023Y6768513D01*
X5660023Y6526044D01*
X5902492Y6526044D01*
X7259946Y10353272D02*
X7259946Y10595741D01*
X7017476Y10595741D01*
X7017476Y10353272D01*
X7259946Y10353272D01*
X7555147Y8679099D02*
X7555147Y8921568D01*
X7312678Y8921568D01*
X7312678Y8679099D01*
X7555147Y8679099D01*
X7850349Y7004926D02*
X7850349Y7247395D01*
X7607880Y7247395D01*
X7607880Y7004926D01*
X7850349Y7004926D01*
X9395234Y11283713D02*
X9395234Y11526182D01*
X9152765Y11526182D01*
X9152765Y11283713D01*
X9395234Y11283713D01*
X9543399Y9590182D02*
X9543399Y9832651D01*
X9300930Y9832651D01*
X9300930Y9590182D01*
X9543399Y9590182D01*
X9691564Y7896651D02*
X9691564Y8139120D01*
X9449095Y8139120D01*
X9449095Y7896651D01*
X9691564Y7896651D01*
X11663714Y10386491D02*
X11663714Y10628960D01*
X11421244Y10628960D01*
X11421244Y10386491D01*
X11663714Y10386491D01*
X11663714Y8686491D02*
X11663714Y8928960D01*
X11421244Y8928960D01*
X11421244Y8686491D01*
X11663714Y8686491D01*
X11663714Y6986491D02*
X11663714Y7228960D01*
X11421244Y7228960D01*
X11421244Y6986491D01*
X11663714Y6986491D01*
X12153350Y4901393D02*
X12153350Y5143862D01*
X11910881Y5143862D01*
X11910881Y4901393D01*
X12153350Y4901393D01*
X13481184Y9433215D02*
X13481184Y9675684D01*
X13238715Y9675684D01*
X13238715Y9433215D01*
X13481184Y9433215D01*
X13481184Y7733214D02*
X13481184Y7975684D01*
X13238715Y7975684D01*
X13238715Y7733214D01*
X13481184Y7733214D01*
X13972414Y4633091D02*
X13972414Y4875560D01*
X13729945Y4875560D01*
X13729945Y4633091D01*
X13972414Y4633091D01*
D11*
X4431234Y3367849D02*
X4431234Y3567849D01*
X4478853Y3567849D01*
X4507424Y3558325D01*
X4526472Y3539278D01*
X4535996Y3520230D01*
X4545520Y3482135D01*
X4545520Y3453563D01*
X4535996Y3415468D01*
X4526472Y3396421D01*
X4507424Y3377373D01*
X4478853Y3367849D01*
X4431234Y3367849D01*
X4631234Y3367849D02*
X4631234Y3501182D01*
X4631234Y3463087D02*
X4640758Y3482135D01*
X4650282Y3491659D01*
X4669329Y3501182D01*
X4688377Y3501182D01*
X4755043Y3367849D02*
X4755043Y3501182D01*
X4755043Y3567849D02*
X4745520Y3558325D01*
X4755043Y3548801D01*
X4764567Y3558325D01*
X4755043Y3567849D01*
X4755043Y3548801D01*
X4878853Y3367849D02*
X4859805Y3377373D01*
X4850282Y3396421D01*
X4850282Y3567849D01*
X4983615Y3367849D02*
X4964567Y3377373D01*
X4955043Y3396421D01*
X4955043Y3567849D01*
X5212186Y3367849D02*
X5212186Y3567849D01*
X5278853Y3424992D01*
X5345520Y3567849D01*
X5345520Y3367849D01*
X5526472Y3367849D02*
X5526472Y3472611D01*
X5516948Y3491659D01*
X5497901Y3501182D01*
X5459805Y3501182D01*
X5440758Y3491659D01*
X5526472Y3377373D02*
X5507424Y3367849D01*
X5459805Y3367849D01*
X5440758Y3377373D01*
X5431234Y3396421D01*
X5431234Y3415468D01*
X5440758Y3434516D01*
X5459805Y3444040D01*
X5507424Y3444040D01*
X5526472Y3453563D01*
X5621710Y3501182D02*
X5621710Y3301182D01*
X5621710Y3491659D02*
X5640758Y3501182D01*
X5678853Y3501182D01*
X5697901Y3491659D01*
X5707424Y3482135D01*
X5716948Y3463087D01*
X5716948Y3405944D01*
X5707424Y3386897D01*
X5697901Y3377373D01*
X5678853Y3367849D01*
X5640758Y3367849D01*
X5621710Y3377373D01*
X5802662Y3386897D02*
X5812186Y3377373D01*
X5802662Y3367849D01*
X5793139Y3377373D01*
X5802662Y3386897D01*
X5802662Y3367849D01*
X5802662Y3491659D02*
X5812186Y3482135D01*
X5802662Y3472611D01*
X5793139Y3482135D01*
X5802662Y3491659D01*
X5802662Y3472611D01*
D12*
X4083615Y3083325D02*
X4173615Y2993325D01*
X4173615Y3083325D02*
X4083615Y2993325D01*
D11*
X4469329Y3147849D02*
X4488377Y3147849D01*
X4507424Y3138325D01*
X4516948Y3128801D01*
X4526472Y3109754D01*
X4535996Y3071659D01*
X4535996Y3024040D01*
X4526472Y2985944D01*
X4516948Y2966897D01*
X4507424Y2957373D01*
X4488377Y2947849D01*
X4469329Y2947849D01*
X4450282Y2957373D01*
X4440758Y2966897D01*
X4431234Y2985944D01*
X4421710Y3024040D01*
X4421710Y3071659D01*
X4431234Y3109754D01*
X4440758Y3128801D01*
X4450282Y3138325D01*
X4469329Y3147849D01*
X4621710Y2966897D02*
X4631234Y2957373D01*
X4621710Y2947849D01*
X4612186Y2957373D01*
X4621710Y2966897D01*
X4621710Y2947849D01*
X4726472Y2947849D02*
X4764567Y2947849D01*
X4783615Y2957373D01*
X4793139Y2966897D01*
X4812186Y2995468D01*
X4821710Y3033563D01*
X4821710Y3109754D01*
X4812186Y3128801D01*
X4802663Y3138325D01*
X4783615Y3147849D01*
X4745520Y3147849D01*
X4726472Y3138325D01*
X4716948Y3128801D01*
X4707424Y3109754D01*
X4707424Y3062135D01*
X4716948Y3043087D01*
X4726472Y3033563D01*
X4745520Y3024040D01*
X4783615Y3024040D01*
X4802663Y3033563D01*
X4812186Y3043087D01*
X4821710Y3062135D01*
X4945520Y3147849D02*
X4964567Y3147849D01*
X4983615Y3138325D01*
X4993139Y3128801D01*
X5002663Y3109754D01*
X5012186Y3071659D01*
X5012186Y3024040D01*
X5002663Y2985944D01*
X4993139Y2966897D01*
X4983615Y2957373D01*
X4964567Y2947849D01*
X4945520Y2947849D01*
X4926472Y2957373D01*
X4916948Y2966897D01*
X4907424Y2985944D01*
X4897901Y3024040D01*
X4897901Y3071659D01*
X4907424Y3109754D01*
X4916948Y3128801D01*
X4926472Y3138325D01*
X4945520Y3147849D01*
X5135996Y3147849D02*
X5155043Y3147849D01*
X5174091Y3138325D01*
X5183615Y3128801D01*
X5193139Y3109754D01*
X5202663Y3071659D01*
X5202663Y3024040D01*
X5193139Y2985944D01*
X5183615Y2966897D01*
X5174091Y2957373D01*
X5155043Y2947849D01*
X5135996Y2947849D01*
X5116948Y2957373D01*
X5107424Y2966897D01*
X5097901Y2985944D01*
X5088377Y3024040D01*
X5088377Y3071659D01*
X5097901Y3109754D01*
X5107424Y3128801D01*
X5116948Y3138325D01*
X5135996Y3147849D01*
X5288377Y2947849D02*
X5288377Y3081182D01*
X5288377Y3062135D02*
X5297901Y3071659D01*
X5316948Y3081182D01*
X5345520Y3081182D01*
X5364567Y3071659D01*
X5374091Y3052611D01*
X5374091Y2947849D01*
X5374091Y3052611D02*
X5383615Y3071659D01*
X5402663Y3081182D01*
X5431234Y3081182D01*
X5450282Y3071659D01*
X5459805Y3052611D01*
X5459805Y2947849D01*
X5555043Y2947849D02*
X5555043Y3081182D01*
X5555043Y3062135D02*
X5564567Y3071659D01*
X5583615Y3081182D01*
X5612186Y3081182D01*
X5631234Y3071659D01*
X5640758Y3052611D01*
X5640758Y2947849D01*
X5640758Y3052611D02*
X5650281Y3071659D01*
X5669329Y3081182D01*
X5697901Y3081182D01*
X5716948Y3071659D01*
X5726472Y3052611D01*
X5726472Y2947849D01*
X6116948Y3157373D02*
X5945520Y2900230D01*
X6374091Y3147849D02*
X6393139Y3147849D01*
X6412186Y3138325D01*
X6421710Y3128801D01*
X6431234Y3109754D01*
X6440758Y3071659D01*
X6440758Y3024040D01*
X6431234Y2985944D01*
X6421710Y2966897D01*
X6412186Y2957373D01*
X6393139Y2947849D01*
X6374091Y2947849D01*
X6355043Y2957373D01*
X6345520Y2966897D01*
X6335996Y2985944D01*
X6326472Y3024040D01*
X6326472Y3071659D01*
X6335996Y3109754D01*
X6345520Y3128801D01*
X6355043Y3138325D01*
X6374091Y3147849D01*
X6526472Y2966897D02*
X6535996Y2957373D01*
X6526472Y2947849D01*
X6516948Y2957373D01*
X6526472Y2966897D01*
X6526472Y2947849D01*
X6659805Y3147849D02*
X6678853Y3147849D01*
X6697901Y3138325D01*
X6707424Y3128801D01*
X6716948Y3109754D01*
X6726472Y3071659D01*
X6726472Y3024040D01*
X6716948Y2985944D01*
X6707424Y2966897D01*
X6697901Y2957373D01*
X6678853Y2947849D01*
X6659805Y2947849D01*
X6640758Y2957373D01*
X6631234Y2966897D01*
X6621710Y2985944D01*
X6612186Y3024040D01*
X6612186Y3071659D01*
X6621710Y3109754D01*
X6631234Y3128801D01*
X6640758Y3138325D01*
X6659805Y3147849D01*
X6793139Y3147849D02*
X6916948Y3147849D01*
X6850281Y3071659D01*
X6878853Y3071659D01*
X6897901Y3062135D01*
X6907424Y3052611D01*
X6916948Y3033563D01*
X6916948Y2985944D01*
X6907424Y2966897D01*
X6897901Y2957373D01*
X6878853Y2947849D01*
X6821710Y2947849D01*
X6802662Y2957373D01*
X6793139Y2966897D01*
X7097901Y3147849D02*
X7002662Y3147849D01*
X6993139Y3052611D01*
X7002662Y3062135D01*
X7021710Y3071659D01*
X7069329Y3071659D01*
X7088377Y3062135D01*
X7097901Y3052611D01*
X7107424Y3033563D01*
X7107424Y2985944D01*
X7097901Y2966897D01*
X7088377Y2957373D01*
X7069329Y2947849D01*
X7021710Y2947849D01*
X7002662Y2957373D01*
X6993139Y2966897D01*
X7278853Y3081182D02*
X7278853Y2947849D01*
X7231234Y3157373D02*
X7183615Y3014516D01*
X7307424Y3014516D01*
X7374091Y3147849D02*
X7374091Y3109754D01*
X7450281Y3147849D02*
X7450281Y3109754D01*
X7745520Y2871659D02*
X7735996Y2881182D01*
X7716948Y2909754D01*
X7707424Y2928801D01*
X7697901Y2957373D01*
X7688377Y3004992D01*
X7688377Y3043087D01*
X7697901Y3090706D01*
X7707424Y3119278D01*
X7716948Y3138325D01*
X7735996Y3166897D01*
X7745520Y3176421D01*
X7812186Y3128801D02*
X7821710Y3138325D01*
X7840758Y3147849D01*
X7888377Y3147849D01*
X7907424Y3138325D01*
X7916948Y3128801D01*
X7926472Y3109754D01*
X7926472Y3090706D01*
X7916948Y3062135D01*
X7802662Y2947849D01*
X7926472Y2947849D01*
X8164567Y2947849D02*
X8164567Y3147849D01*
X8250281Y2947849D02*
X8250281Y3052611D01*
X8240758Y3071659D01*
X8221710Y3081182D01*
X8193139Y3081182D01*
X8174091Y3071659D01*
X8164567Y3062135D01*
X8374091Y2947849D02*
X8355043Y2957373D01*
X8345520Y2966897D01*
X8335996Y2985944D01*
X8335996Y3043087D01*
X8345520Y3062135D01*
X8355043Y3071659D01*
X8374091Y3081182D01*
X8402663Y3081182D01*
X8421710Y3071659D01*
X8431234Y3062135D01*
X8440758Y3043087D01*
X8440758Y2985944D01*
X8431234Y2966897D01*
X8421710Y2957373D01*
X8402663Y2947849D01*
X8374091Y2947849D01*
X8555043Y2947849D02*
X8535996Y2957373D01*
X8526472Y2976421D01*
X8526472Y3147849D01*
X8707424Y2957373D02*
X8688377Y2947849D01*
X8650282Y2947849D01*
X8631234Y2957373D01*
X8621710Y2976421D01*
X8621710Y3052611D01*
X8631234Y3071659D01*
X8650282Y3081182D01*
X8688377Y3081182D01*
X8707424Y3071659D01*
X8716948Y3052611D01*
X8716948Y3033563D01*
X8621710Y3014516D01*
X8793139Y2957373D02*
X8812186Y2947849D01*
X8850282Y2947849D01*
X8869329Y2957373D01*
X8878853Y2976421D01*
X8878853Y2985944D01*
X8869329Y3004992D01*
X8850282Y3014516D01*
X8821710Y3014516D01*
X8802663Y3024040D01*
X8793139Y3043087D01*
X8793139Y3052611D01*
X8802663Y3071659D01*
X8821710Y3081182D01*
X8850282Y3081182D01*
X8869329Y3071659D01*
X8945520Y2871659D02*
X8955043Y2881182D01*
X8974091Y2909754D01*
X8983615Y2928801D01*
X8993139Y2957373D01*
X9002663Y3004992D01*
X9002663Y3043087D01*
X8993139Y3090706D01*
X8983615Y3119278D01*
X8974091Y3138325D01*
X8955043Y3166897D01*
X8945520Y3176421D01*
X9307424Y2871659D02*
X9297901Y2881182D01*
X9278853Y2909754D01*
X9269329Y2928801D01*
X9259805Y2957373D01*
X9250282Y3004992D01*
X9250282Y3043087D01*
X9259805Y3090706D01*
X9269329Y3119278D01*
X9278853Y3138325D01*
X9297901Y3166897D01*
X9307424Y3176421D01*
X9383615Y3081182D02*
X9383615Y2947849D01*
X9383615Y3062135D02*
X9393139Y3071659D01*
X9412186Y3081182D01*
X9440758Y3081182D01*
X9459805Y3071659D01*
X9469329Y3052611D01*
X9469329Y2947849D01*
X9593139Y2947849D02*
X9574091Y2957373D01*
X9564567Y2966897D01*
X9555043Y2985944D01*
X9555043Y3043087D01*
X9564567Y3062135D01*
X9574091Y3071659D01*
X9593139Y3081182D01*
X9621710Y3081182D01*
X9640758Y3071659D01*
X9650282Y3062135D01*
X9659805Y3043087D01*
X9659805Y2985944D01*
X9650282Y2966897D01*
X9640758Y2957373D01*
X9621710Y2947849D01*
X9593139Y2947849D01*
X9716948Y3081182D02*
X9793139Y3081182D01*
X9745520Y3147849D02*
X9745520Y2976421D01*
X9755043Y2957373D01*
X9774091Y2947849D01*
X9793139Y2947849D01*
X10012186Y3081182D02*
X10012186Y2881182D01*
X10012186Y3071659D02*
X10031234Y3081182D01*
X10069329Y3081182D01*
X10088377Y3071659D01*
X10097901Y3062135D01*
X10107424Y3043087D01*
X10107424Y2985944D01*
X10097901Y2966897D01*
X10088377Y2957373D01*
X10069329Y2947849D01*
X10031234Y2947849D01*
X10012186Y2957373D01*
X10221710Y2947849D02*
X10202663Y2957373D01*
X10193139Y2976421D01*
X10193139Y3147849D01*
X10383615Y2947849D02*
X10383615Y3052611D01*
X10374091Y3071659D01*
X10355043Y3081182D01*
X10316948Y3081182D01*
X10297901Y3071659D01*
X10383615Y2957373D02*
X10364567Y2947849D01*
X10316948Y2947849D01*
X10297901Y2957373D01*
X10288377Y2976421D01*
X10288377Y2995468D01*
X10297901Y3014516D01*
X10316948Y3024040D01*
X10364567Y3024040D01*
X10383615Y3033563D01*
X10450282Y3081182D02*
X10526472Y3081182D01*
X10478853Y3147849D02*
X10478853Y2976421D01*
X10488377Y2957373D01*
X10507424Y2947849D01*
X10526472Y2947849D01*
X10669329Y2957373D02*
X10650282Y2947849D01*
X10612186Y2947849D01*
X10593139Y2957373D01*
X10583615Y2976421D01*
X10583615Y3052611D01*
X10593139Y3071659D01*
X10612186Y3081182D01*
X10650282Y3081182D01*
X10669329Y3071659D01*
X10678853Y3052611D01*
X10678853Y3033563D01*
X10583615Y3014516D01*
X10850282Y2947849D02*
X10850282Y3147849D01*
X10850282Y2957373D02*
X10831234Y2947849D01*
X10793139Y2947849D01*
X10774091Y2957373D01*
X10764567Y2966897D01*
X10755043Y2985944D01*
X10755043Y3043087D01*
X10764567Y3062135D01*
X10774091Y3071659D01*
X10793139Y3081182D01*
X10831234Y3081182D01*
X10850282Y3071659D01*
X10926472Y2871659D02*
X10935996Y2881182D01*
X10955043Y2909754D01*
X10964567Y2928801D01*
X10974091Y2957373D01*
X10983615Y3004992D01*
X10983615Y3043087D01*
X10974091Y3090706D01*
X10964567Y3119278D01*
X10955043Y3138325D01*
X10935996Y3166897D01*
X10926472Y3176421D01*
D13*
X4173615Y2774325D02*
G75*
G03*
X4173615Y2774325I-85090J0D01*
G01*
D11*
X4535996Y2683849D02*
X4421710Y2683849D01*
X4478853Y2683849D02*
X4478853Y2883849D01*
X4459805Y2855278D01*
X4440758Y2836230D01*
X4421710Y2826706D01*
X4621710Y2702897D02*
X4631234Y2693373D01*
X4621710Y2683849D01*
X4612186Y2693373D01*
X4621710Y2702897D01*
X4621710Y2683849D01*
X4697901Y2883849D02*
X4831234Y2883849D01*
X4745520Y2683849D01*
X4945520Y2883849D02*
X4964567Y2883849D01*
X4983615Y2874325D01*
X4993139Y2864801D01*
X5002663Y2845754D01*
X5012186Y2807659D01*
X5012186Y2760040D01*
X5002663Y2721944D01*
X4993139Y2702897D01*
X4983615Y2693373D01*
X4964567Y2683849D01*
X4945520Y2683849D01*
X4926472Y2693373D01*
X4916948Y2702897D01*
X4907424Y2721944D01*
X4897901Y2760040D01*
X4897901Y2807659D01*
X4907424Y2845754D01*
X4916948Y2864801D01*
X4926472Y2874325D01*
X4945520Y2883849D01*
X5088377Y2864801D02*
X5097901Y2874325D01*
X5116948Y2883849D01*
X5164567Y2883849D01*
X5183615Y2874325D01*
X5193139Y2864801D01*
X5202663Y2845754D01*
X5202663Y2826706D01*
X5193139Y2798135D01*
X5078853Y2683849D01*
X5202663Y2683849D01*
X5288377Y2683849D02*
X5288377Y2817182D01*
X5288377Y2798135D02*
X5297901Y2807659D01*
X5316948Y2817182D01*
X5345520Y2817182D01*
X5364567Y2807659D01*
X5374091Y2788611D01*
X5374091Y2683849D01*
X5374091Y2788611D02*
X5383615Y2807659D01*
X5402663Y2817182D01*
X5431234Y2817182D01*
X5450282Y2807659D01*
X5459805Y2788611D01*
X5459805Y2683849D01*
X5555043Y2683849D02*
X5555043Y2817182D01*
X5555043Y2798135D02*
X5564567Y2807659D01*
X5583615Y2817182D01*
X5612186Y2817182D01*
X5631234Y2807659D01*
X5640758Y2788611D01*
X5640758Y2683849D01*
X5640758Y2788611D02*
X5650281Y2807659D01*
X5669329Y2817182D01*
X5697901Y2817182D01*
X5716948Y2807659D01*
X5726472Y2788611D01*
X5726472Y2683849D01*
X6116948Y2893373D02*
X5945520Y2636230D01*
X6374091Y2883849D02*
X6393139Y2883849D01*
X6412186Y2874325D01*
X6421710Y2864801D01*
X6431234Y2845754D01*
X6440758Y2807659D01*
X6440758Y2760040D01*
X6431234Y2721944D01*
X6421710Y2702897D01*
X6412186Y2693373D01*
X6393139Y2683849D01*
X6374091Y2683849D01*
X6355043Y2693373D01*
X6345520Y2702897D01*
X6335996Y2721944D01*
X6326472Y2760040D01*
X6326472Y2807659D01*
X6335996Y2845754D01*
X6345520Y2864801D01*
X6355043Y2874325D01*
X6374091Y2883849D01*
X6526472Y2702897D02*
X6535996Y2693373D01*
X6526472Y2683849D01*
X6516948Y2693373D01*
X6526472Y2702897D01*
X6526472Y2683849D01*
X6659805Y2883849D02*
X6678853Y2883849D01*
X6697901Y2874325D01*
X6707424Y2864801D01*
X6716948Y2845754D01*
X6726472Y2807659D01*
X6726472Y2760040D01*
X6716948Y2721944D01*
X6707424Y2702897D01*
X6697901Y2693373D01*
X6678853Y2683849D01*
X6659805Y2683849D01*
X6640758Y2693373D01*
X6631234Y2702897D01*
X6621710Y2721944D01*
X6612186Y2760040D01*
X6612186Y2807659D01*
X6621710Y2845754D01*
X6631234Y2864801D01*
X6640758Y2874325D01*
X6659805Y2883849D01*
X6897901Y2883849D02*
X6859805Y2883849D01*
X6840758Y2874325D01*
X6831234Y2864801D01*
X6812186Y2836230D01*
X6802662Y2798135D01*
X6802662Y2721944D01*
X6812186Y2702897D01*
X6821710Y2693373D01*
X6840758Y2683849D01*
X6878853Y2683849D01*
X6897901Y2693373D01*
X6907424Y2702897D01*
X6916948Y2721944D01*
X6916948Y2769563D01*
X6907424Y2788611D01*
X6897901Y2798135D01*
X6878853Y2807659D01*
X6840758Y2807659D01*
X6821710Y2798135D01*
X6812186Y2788611D01*
X6802662Y2769563D01*
X6983615Y2883849D02*
X7116948Y2883849D01*
X7031234Y2683849D01*
X7231234Y2883849D02*
X7250281Y2883849D01*
X7269329Y2874325D01*
X7278853Y2864801D01*
X7288377Y2845754D01*
X7297901Y2807659D01*
X7297901Y2760040D01*
X7288377Y2721944D01*
X7278853Y2702897D01*
X7269329Y2693373D01*
X7250281Y2683849D01*
X7231234Y2683849D01*
X7212186Y2693373D01*
X7202662Y2702897D01*
X7193139Y2721944D01*
X7183615Y2760040D01*
X7183615Y2807659D01*
X7193139Y2845754D01*
X7202662Y2864801D01*
X7212186Y2874325D01*
X7231234Y2883849D01*
X7374091Y2883849D02*
X7374091Y2845754D01*
X7450281Y2883849D02*
X7450281Y2845754D01*
X7745520Y2607659D02*
X7735996Y2617183D01*
X7716948Y2645754D01*
X7707424Y2664802D01*
X7697901Y2693373D01*
X7688377Y2740992D01*
X7688377Y2779087D01*
X7697901Y2826706D01*
X7707424Y2855278D01*
X7716948Y2874325D01*
X7735996Y2902897D01*
X7745520Y2912421D01*
X7802662Y2883849D02*
X7926472Y2883849D01*
X7859805Y2807659D01*
X7888377Y2807659D01*
X7907424Y2798135D01*
X7916948Y2788611D01*
X7926472Y2769563D01*
X7926472Y2721944D01*
X7916948Y2702897D01*
X7907424Y2693373D01*
X7888377Y2683849D01*
X7831234Y2683849D01*
X7812186Y2693373D01*
X7802662Y2702897D01*
X8050281Y2883849D02*
X8069329Y2883849D01*
X8088377Y2874325D01*
X8097901Y2864801D01*
X8107424Y2845754D01*
X8116948Y2807659D01*
X8116948Y2760040D01*
X8107424Y2721944D01*
X8097901Y2702897D01*
X8088377Y2693373D01*
X8069329Y2683849D01*
X8050281Y2683849D01*
X8031234Y2693373D01*
X8021710Y2702897D01*
X8012186Y2721944D01*
X8002662Y2760040D01*
X8002662Y2807659D01*
X8012186Y2845754D01*
X8021710Y2864801D01*
X8031234Y2874325D01*
X8050281Y2883849D01*
X8355043Y2683849D02*
X8355043Y2883849D01*
X8440758Y2683849D02*
X8440758Y2788611D01*
X8431234Y2807659D01*
X8412186Y2817182D01*
X8383615Y2817182D01*
X8364567Y2807659D01*
X8355043Y2798135D01*
X8564567Y2683849D02*
X8545520Y2693373D01*
X8535996Y2702897D01*
X8526472Y2721944D01*
X8526472Y2779087D01*
X8535996Y2798135D01*
X8545520Y2807659D01*
X8564567Y2817182D01*
X8593139Y2817182D01*
X8612186Y2807659D01*
X8621710Y2798135D01*
X8631234Y2779087D01*
X8631234Y2721944D01*
X8621710Y2702897D01*
X8612186Y2693373D01*
X8593139Y2683849D01*
X8564567Y2683849D01*
X8745520Y2683849D02*
X8726472Y2693373D01*
X8716948Y2712421D01*
X8716948Y2883849D01*
X8897901Y2693373D02*
X8878853Y2683849D01*
X8840758Y2683849D01*
X8821710Y2693373D01*
X8812186Y2712421D01*
X8812186Y2788611D01*
X8821710Y2807659D01*
X8840758Y2817182D01*
X8878853Y2817182D01*
X8897901Y2807659D01*
X8907424Y2788611D01*
X8907424Y2769563D01*
X8812186Y2750516D01*
X8983615Y2693373D02*
X9002663Y2683849D01*
X9040758Y2683849D01*
X9059805Y2693373D01*
X9069329Y2712421D01*
X9069329Y2721944D01*
X9059805Y2740992D01*
X9040758Y2750516D01*
X9012186Y2750516D01*
X8993139Y2760040D01*
X8983615Y2779087D01*
X8983615Y2788611D01*
X8993139Y2807659D01*
X9012186Y2817182D01*
X9040758Y2817182D01*
X9059805Y2807659D01*
X9135996Y2607659D02*
X9145520Y2617183D01*
X9164567Y2645754D01*
X9174091Y2664802D01*
X9183615Y2693373D01*
X9193139Y2740992D01*
X9193139Y2779087D01*
X9183615Y2826706D01*
X9174091Y2855278D01*
X9164567Y2874325D01*
X9145520Y2902897D01*
X9135996Y2912421D01*
X9497901Y2607659D02*
X9488377Y2617183D01*
X9469329Y2645754D01*
X9459805Y2664802D01*
X9450282Y2693373D01*
X9440758Y2740992D01*
X9440758Y2779087D01*
X9450282Y2826706D01*
X9459805Y2855278D01*
X9469329Y2874325D01*
X9488377Y2902897D01*
X9497901Y2912421D01*
X9574091Y2817182D02*
X9574091Y2683849D01*
X9574091Y2798135D02*
X9583615Y2807659D01*
X9602663Y2817182D01*
X9631234Y2817182D01*
X9650282Y2807659D01*
X9659805Y2788611D01*
X9659805Y2683849D01*
X9783615Y2683849D02*
X9764567Y2693373D01*
X9755043Y2702897D01*
X9745520Y2721944D01*
X9745520Y2779087D01*
X9755043Y2798135D01*
X9764567Y2807659D01*
X9783615Y2817182D01*
X9812186Y2817182D01*
X9831234Y2807659D01*
X9840758Y2798135D01*
X9850282Y2779087D01*
X9850282Y2721944D01*
X9840758Y2702897D01*
X9831234Y2693373D01*
X9812186Y2683849D01*
X9783615Y2683849D01*
X9907424Y2817182D02*
X9983615Y2817182D01*
X9935996Y2883849D02*
X9935996Y2712421D01*
X9945520Y2693373D01*
X9964567Y2683849D01*
X9983615Y2683849D01*
X10202663Y2817182D02*
X10202663Y2617183D01*
X10202663Y2807659D02*
X10221710Y2817182D01*
X10259805Y2817182D01*
X10278853Y2807659D01*
X10288377Y2798135D01*
X10297901Y2779087D01*
X10297901Y2721944D01*
X10288377Y2702897D01*
X10278853Y2693373D01*
X10259805Y2683849D01*
X10221710Y2683849D01*
X10202663Y2693373D01*
X10412186Y2683849D02*
X10393139Y2693373D01*
X10383615Y2712421D01*
X10383615Y2883849D01*
X10574091Y2683849D02*
X10574091Y2788611D01*
X10564567Y2807659D01*
X10545520Y2817182D01*
X10507424Y2817182D01*
X10488377Y2807659D01*
X10574091Y2693373D02*
X10555043Y2683849D01*
X10507424Y2683849D01*
X10488377Y2693373D01*
X10478853Y2712421D01*
X10478853Y2731468D01*
X10488377Y2750516D01*
X10507424Y2760040D01*
X10555043Y2760040D01*
X10574091Y2769563D01*
X10640758Y2817182D02*
X10716948Y2817182D01*
X10669329Y2883849D02*
X10669329Y2712421D01*
X10678853Y2693373D01*
X10697901Y2683849D01*
X10716948Y2683849D01*
X10859805Y2693373D02*
X10840758Y2683849D01*
X10802663Y2683849D01*
X10783615Y2693373D01*
X10774091Y2712421D01*
X10774091Y2788611D01*
X10783615Y2807659D01*
X10802663Y2817182D01*
X10840758Y2817182D01*
X10859805Y2807659D01*
X10869329Y2788611D01*
X10869329Y2769563D01*
X10774091Y2750516D01*
X11040758Y2683849D02*
X11040758Y2883849D01*
X11040758Y2693373D02*
X11021710Y2683849D01*
X10983615Y2683849D01*
X10964567Y2693373D01*
X10955043Y2702897D01*
X10945520Y2721944D01*
X10945520Y2779087D01*
X10955043Y2798135D01*
X10964567Y2807659D01*
X10983615Y2817182D01*
X11021710Y2817182D01*
X11040758Y2807659D01*
X11116948Y2607659D02*
X11126472Y2617183D01*
X11145520Y2645754D01*
X11155043Y2664802D01*
X11164567Y2693373D01*
X11174091Y2740992D01*
X11174091Y2779087D01*
X11164567Y2826706D01*
X11155043Y2855278D01*
X11145520Y2874325D01*
X11126472Y2902897D01*
X11116948Y2912421D01*
X4073615Y2584145D02*
X4073615Y2384145D01*
X3973615Y2484145D02*
X4173615Y2484145D01*
X4412186Y2593669D02*
X4535996Y2593669D01*
X4469329Y2517479D01*
X4497901Y2517479D01*
X4516948Y2507955D01*
X4526472Y2498431D01*
X4535996Y2479383D01*
X4535996Y2431764D01*
X4526472Y2412717D01*
X4516948Y2403193D01*
X4497901Y2393669D01*
X4440758Y2393669D01*
X4421710Y2403193D01*
X4412186Y2412717D01*
X4621710Y2412717D02*
X4631234Y2403193D01*
X4621710Y2393669D01*
X4612186Y2403193D01*
X4621710Y2412717D01*
X4621710Y2393669D01*
X4755043Y2593669D02*
X4774091Y2593669D01*
X4793139Y2584145D01*
X4802663Y2574622D01*
X4812186Y2555574D01*
X4821710Y2517479D01*
X4821710Y2469860D01*
X4812186Y2431764D01*
X4802663Y2412717D01*
X4793139Y2403193D01*
X4774091Y2393669D01*
X4755043Y2393669D01*
X4735996Y2403193D01*
X4726472Y2412717D01*
X4716948Y2431764D01*
X4707424Y2469860D01*
X4707424Y2517479D01*
X4716948Y2555574D01*
X4726472Y2574622D01*
X4735996Y2584145D01*
X4755043Y2593669D01*
X4945520Y2593669D02*
X4964567Y2593669D01*
X4983615Y2584145D01*
X4993139Y2574622D01*
X5002663Y2555574D01*
X5012186Y2517479D01*
X5012186Y2469860D01*
X5002663Y2431764D01*
X4993139Y2412717D01*
X4983615Y2403193D01*
X4964567Y2393669D01*
X4945520Y2393669D01*
X4926472Y2403193D01*
X4916948Y2412717D01*
X4907424Y2431764D01*
X4897901Y2469860D01*
X4897901Y2517479D01*
X4907424Y2555574D01*
X4916948Y2574622D01*
X4926472Y2584145D01*
X4945520Y2593669D01*
X5135996Y2593669D02*
X5155043Y2593669D01*
X5174091Y2584145D01*
X5183615Y2574622D01*
X5193139Y2555574D01*
X5202663Y2517479D01*
X5202663Y2469860D01*
X5193139Y2431764D01*
X5183615Y2412717D01*
X5174091Y2403193D01*
X5155043Y2393669D01*
X5135996Y2393669D01*
X5116948Y2403193D01*
X5107424Y2412717D01*
X5097901Y2431764D01*
X5088377Y2469860D01*
X5088377Y2517479D01*
X5097901Y2555574D01*
X5107424Y2574622D01*
X5116948Y2584145D01*
X5135996Y2593669D01*
X5288377Y2393669D02*
X5288377Y2527003D01*
X5288377Y2507955D02*
X5297901Y2517479D01*
X5316948Y2527003D01*
X5345520Y2527003D01*
X5364567Y2517479D01*
X5374091Y2498431D01*
X5374091Y2393669D01*
X5374091Y2498431D02*
X5383615Y2517479D01*
X5402663Y2527003D01*
X5431234Y2527003D01*
X5450282Y2517479D01*
X5459805Y2498431D01*
X5459805Y2393669D01*
X5555043Y2393669D02*
X5555043Y2527003D01*
X5555043Y2507955D02*
X5564567Y2517479D01*
X5583615Y2527003D01*
X5612186Y2527003D01*
X5631234Y2517479D01*
X5640758Y2498431D01*
X5640758Y2393669D01*
X5640758Y2498431D02*
X5650281Y2517479D01*
X5669329Y2527003D01*
X5697901Y2527003D01*
X5716948Y2517479D01*
X5726472Y2498431D01*
X5726472Y2393669D01*
X6116948Y2603193D02*
X5945520Y2346050D01*
X6374091Y2593669D02*
X6393139Y2593669D01*
X6412186Y2584145D01*
X6421710Y2574622D01*
X6431234Y2555574D01*
X6440758Y2517479D01*
X6440758Y2469860D01*
X6431234Y2431764D01*
X6421710Y2412717D01*
X6412186Y2403193D01*
X6393139Y2393669D01*
X6374091Y2393669D01*
X6355043Y2403193D01*
X6345520Y2412717D01*
X6335996Y2431764D01*
X6326472Y2469860D01*
X6326472Y2517479D01*
X6335996Y2555574D01*
X6345520Y2574622D01*
X6355043Y2584145D01*
X6374091Y2593669D01*
X6526472Y2412717D02*
X6535996Y2403193D01*
X6526472Y2393669D01*
X6516948Y2403193D01*
X6526472Y2412717D01*
X6526472Y2393669D01*
X6726472Y2393669D02*
X6612186Y2393669D01*
X6669329Y2393669D02*
X6669329Y2593669D01*
X6650281Y2565098D01*
X6631234Y2546050D01*
X6612186Y2536526D01*
X6916948Y2393669D02*
X6802662Y2393669D01*
X6859805Y2393669D02*
X6859805Y2593669D01*
X6840758Y2565098D01*
X6821710Y2546050D01*
X6802662Y2536526D01*
X7031234Y2507955D02*
X7012186Y2517479D01*
X7002662Y2527003D01*
X6993139Y2546050D01*
X6993139Y2555574D01*
X7002662Y2574622D01*
X7012186Y2584145D01*
X7031234Y2593669D01*
X7069329Y2593669D01*
X7088377Y2584145D01*
X7097901Y2574622D01*
X7107424Y2555574D01*
X7107424Y2546050D01*
X7097901Y2527003D01*
X7088377Y2517479D01*
X7069329Y2507955D01*
X7031234Y2507955D01*
X7012186Y2498431D01*
X7002662Y2488907D01*
X6993139Y2469860D01*
X6993139Y2431764D01*
X7002662Y2412717D01*
X7012186Y2403193D01*
X7031234Y2393669D01*
X7069329Y2393669D01*
X7088377Y2403193D01*
X7097901Y2412717D01*
X7107424Y2431764D01*
X7107424Y2469860D01*
X7097901Y2488907D01*
X7088377Y2498431D01*
X7069329Y2507955D01*
X7297901Y2393669D02*
X7183615Y2393669D01*
X7240758Y2393669D02*
X7240758Y2593669D01*
X7221710Y2565098D01*
X7202662Y2546050D01*
X7183615Y2536526D01*
X7374091Y2593669D02*
X7374091Y2555574D01*
X7450281Y2593669D02*
X7450281Y2555574D01*
X7745520Y2317479D02*
X7735996Y2327003D01*
X7716948Y2355574D01*
X7707424Y2374622D01*
X7697901Y2403193D01*
X7688377Y2450812D01*
X7688377Y2488907D01*
X7697901Y2536526D01*
X7707424Y2565098D01*
X7716948Y2584145D01*
X7735996Y2612717D01*
X7745520Y2622241D01*
X7907424Y2527003D02*
X7907424Y2393669D01*
X7859805Y2603193D02*
X7812186Y2460336D01*
X7935996Y2460336D01*
X8107424Y2593669D02*
X8012186Y2593669D01*
X8002662Y2498431D01*
X8012186Y2507955D01*
X8031234Y2517479D01*
X8078853Y2517479D01*
X8097901Y2507955D01*
X8107424Y2498431D01*
X8116948Y2479383D01*
X8116948Y2431764D01*
X8107424Y2412717D01*
X8097901Y2403193D01*
X8078853Y2393669D01*
X8031234Y2393669D01*
X8012186Y2403193D01*
X8002662Y2412717D01*
X8355043Y2393669D02*
X8355043Y2593669D01*
X8440758Y2393669D02*
X8440758Y2498431D01*
X8431234Y2517479D01*
X8412186Y2527003D01*
X8383615Y2527003D01*
X8364567Y2517479D01*
X8355043Y2507955D01*
X8564567Y2393669D02*
X8545520Y2403193D01*
X8535996Y2412717D01*
X8526472Y2431764D01*
X8526472Y2488907D01*
X8535996Y2507955D01*
X8545520Y2517479D01*
X8564567Y2527003D01*
X8593139Y2527003D01*
X8612186Y2517479D01*
X8621710Y2507955D01*
X8631234Y2488907D01*
X8631234Y2431764D01*
X8621710Y2412717D01*
X8612186Y2403193D01*
X8593139Y2393669D01*
X8564567Y2393669D01*
X8745520Y2393669D02*
X8726472Y2403193D01*
X8716948Y2422241D01*
X8716948Y2593669D01*
X8897901Y2403193D02*
X8878853Y2393669D01*
X8840758Y2393669D01*
X8821710Y2403193D01*
X8812186Y2422241D01*
X8812186Y2498431D01*
X8821710Y2517479D01*
X8840758Y2527003D01*
X8878853Y2527003D01*
X8897901Y2517479D01*
X8907424Y2498431D01*
X8907424Y2479383D01*
X8812186Y2460336D01*
X8983615Y2403193D02*
X9002663Y2393669D01*
X9040758Y2393669D01*
X9059805Y2403193D01*
X9069329Y2422241D01*
X9069329Y2431764D01*
X9059805Y2450812D01*
X9040758Y2460336D01*
X9012186Y2460336D01*
X8993139Y2469860D01*
X8983615Y2488907D01*
X8983615Y2498431D01*
X8993139Y2517479D01*
X9012186Y2527003D01*
X9040758Y2527003D01*
X9059805Y2517479D01*
X9135996Y2317479D02*
X9145520Y2327003D01*
X9164567Y2355574D01*
X9174091Y2374622D01*
X9183615Y2403193D01*
X9193139Y2450812D01*
X9193139Y2488907D01*
X9183615Y2536526D01*
X9174091Y2565098D01*
X9164567Y2584145D01*
X9145520Y2612717D01*
X9135996Y2622241D01*
X9497901Y2317479D02*
X9488377Y2327003D01*
X9469329Y2355574D01*
X9459805Y2374622D01*
X9450282Y2403193D01*
X9440758Y2450812D01*
X9440758Y2488907D01*
X9450282Y2536526D01*
X9459805Y2565098D01*
X9469329Y2584145D01*
X9488377Y2612717D01*
X9497901Y2622241D01*
X9574091Y2527003D02*
X9574091Y2393669D01*
X9574091Y2507955D02*
X9583615Y2517479D01*
X9602663Y2527003D01*
X9631234Y2527003D01*
X9650282Y2517479D01*
X9659805Y2498431D01*
X9659805Y2393669D01*
X9783615Y2393669D02*
X9764567Y2403193D01*
X9755043Y2412717D01*
X9745520Y2431764D01*
X9745520Y2488907D01*
X9755043Y2507955D01*
X9764567Y2517479D01*
X9783615Y2527003D01*
X9812186Y2527003D01*
X9831234Y2517479D01*
X9840758Y2507955D01*
X9850282Y2488907D01*
X9850282Y2431764D01*
X9840758Y2412717D01*
X9831234Y2403193D01*
X9812186Y2393669D01*
X9783615Y2393669D01*
X9907424Y2527003D02*
X9983615Y2527003D01*
X9935996Y2593669D02*
X9935996Y2422241D01*
X9945520Y2403193D01*
X9964567Y2393669D01*
X9983615Y2393669D01*
X10202663Y2527003D02*
X10202663Y2327003D01*
X10202663Y2517479D02*
X10221710Y2527003D01*
X10259805Y2527003D01*
X10278853Y2517479D01*
X10288377Y2507955D01*
X10297901Y2488907D01*
X10297901Y2431764D01*
X10288377Y2412717D01*
X10278853Y2403193D01*
X10259805Y2393669D01*
X10221710Y2393669D01*
X10202663Y2403193D01*
X10412186Y2393669D02*
X10393139Y2403193D01*
X10383615Y2422241D01*
X10383615Y2593669D01*
X10574091Y2393669D02*
X10574091Y2498431D01*
X10564567Y2517479D01*
X10545520Y2527003D01*
X10507424Y2527003D01*
X10488377Y2517479D01*
X10574091Y2403193D02*
X10555043Y2393669D01*
X10507424Y2393669D01*
X10488377Y2403193D01*
X10478853Y2422241D01*
X10478853Y2441288D01*
X10488377Y2460336D01*
X10507424Y2469860D01*
X10555043Y2469860D01*
X10574091Y2479383D01*
X10640758Y2527003D02*
X10716948Y2527003D01*
X10669329Y2593669D02*
X10669329Y2422241D01*
X10678853Y2403193D01*
X10697901Y2393669D01*
X10716948Y2393669D01*
X10859805Y2403193D02*
X10840758Y2393669D01*
X10802663Y2393669D01*
X10783615Y2403193D01*
X10774091Y2422241D01*
X10774091Y2498431D01*
X10783615Y2517479D01*
X10802663Y2527003D01*
X10840758Y2527003D01*
X10859805Y2517479D01*
X10869329Y2498431D01*
X10869329Y2479383D01*
X10774091Y2460336D01*
X11040758Y2393669D02*
X11040758Y2593669D01*
X11040758Y2403193D02*
X11021710Y2393669D01*
X10983615Y2393669D01*
X10964567Y2403193D01*
X10955043Y2412717D01*
X10945520Y2431764D01*
X10945520Y2488907D01*
X10955043Y2507955D01*
X10964567Y2517479D01*
X10983615Y2527003D01*
X11021710Y2527003D01*
X11040758Y2517479D01*
X11116948Y2317479D02*
X11126472Y2327003D01*
X11145520Y2355574D01*
X11155043Y2374622D01*
X11164567Y2403193D01*
X11174091Y2450812D01*
X11174091Y2488907D01*
X11164567Y2536526D01*
X11155043Y2565098D01*
X11145520Y2584145D01*
X11126472Y2612717D01*
X11116948Y2622241D01*
X4144326Y2093434D02*
X4144326Y2234857D01*
X4002903Y2234857D01*
X4002903Y2093434D01*
X4144326Y2093434D01*
X4412186Y2273669D02*
X4535996Y2273669D01*
X4469329Y2197479D01*
X4497901Y2197479D01*
X4516948Y2187955D01*
X4526472Y2178431D01*
X4535996Y2159383D01*
X4535996Y2111764D01*
X4526472Y2092717D01*
X4516948Y2083193D01*
X4497901Y2073669D01*
X4440758Y2073669D01*
X4421710Y2083193D01*
X4412186Y2092717D01*
X4621710Y2092717D02*
X4631234Y2083193D01*
X4621710Y2073669D01*
X4612186Y2083193D01*
X4621710Y2092717D01*
X4621710Y2073669D01*
X4802663Y2207003D02*
X4802663Y2073669D01*
X4755043Y2283193D02*
X4707424Y2140336D01*
X4831234Y2140336D01*
X4897901Y2254622D02*
X4907424Y2264145D01*
X4926472Y2273669D01*
X4974091Y2273669D01*
X4993139Y2264145D01*
X5002663Y2254622D01*
X5012186Y2235574D01*
X5012186Y2216526D01*
X5002663Y2187955D01*
X4888377Y2073669D01*
X5012186Y2073669D01*
X5107424Y2073669D02*
X5145520Y2073669D01*
X5164567Y2083193D01*
X5174091Y2092717D01*
X5193139Y2121288D01*
X5202663Y2159383D01*
X5202663Y2235574D01*
X5193139Y2254622D01*
X5183615Y2264145D01*
X5164567Y2273669D01*
X5126472Y2273669D01*
X5107424Y2264145D01*
X5097901Y2254622D01*
X5088377Y2235574D01*
X5088377Y2187955D01*
X5097901Y2168907D01*
X5107424Y2159383D01*
X5126472Y2149860D01*
X5164567Y2149860D01*
X5183615Y2159383D01*
X5193139Y2168907D01*
X5202663Y2187955D01*
X5288377Y2073669D02*
X5288377Y2207003D01*
X5288377Y2187955D02*
X5297901Y2197479D01*
X5316948Y2207003D01*
X5345520Y2207003D01*
X5364567Y2197479D01*
X5374091Y2178431D01*
X5374091Y2073669D01*
X5374091Y2178431D02*
X5383615Y2197479D01*
X5402663Y2207003D01*
X5431234Y2207003D01*
X5450282Y2197479D01*
X5459805Y2178431D01*
X5459805Y2073669D01*
X5555043Y2073669D02*
X5555043Y2207003D01*
X5555043Y2187955D02*
X5564567Y2197479D01*
X5583615Y2207003D01*
X5612186Y2207003D01*
X5631234Y2197479D01*
X5640758Y2178431D01*
X5640758Y2073669D01*
X5640758Y2178431D02*
X5650281Y2197479D01*
X5669329Y2207003D01*
X5697901Y2207003D01*
X5716948Y2197479D01*
X5726472Y2178431D01*
X5726472Y2073669D01*
X6116948Y2283193D02*
X5945520Y2026050D01*
X6374091Y2273669D02*
X6393139Y2273669D01*
X6412186Y2264145D01*
X6421710Y2254622D01*
X6431234Y2235574D01*
X6440758Y2197479D01*
X6440758Y2149860D01*
X6431234Y2111764D01*
X6421710Y2092717D01*
X6412186Y2083193D01*
X6393139Y2073669D01*
X6374091Y2073669D01*
X6355043Y2083193D01*
X6345520Y2092717D01*
X6335996Y2111764D01*
X6326472Y2149860D01*
X6326472Y2197479D01*
X6335996Y2235574D01*
X6345520Y2254622D01*
X6355043Y2264145D01*
X6374091Y2273669D01*
X6526472Y2092717D02*
X6535996Y2083193D01*
X6526472Y2073669D01*
X6516948Y2083193D01*
X6526472Y2092717D01*
X6526472Y2073669D01*
X6726472Y2073669D02*
X6612186Y2073669D01*
X6669329Y2073669D02*
X6669329Y2273669D01*
X6650281Y2245098D01*
X6631234Y2226050D01*
X6612186Y2216526D01*
X6793139Y2273669D02*
X6916948Y2273669D01*
X6850281Y2197479D01*
X6878853Y2197479D01*
X6897901Y2187955D01*
X6907424Y2178431D01*
X6916948Y2159383D01*
X6916948Y2111764D01*
X6907424Y2092717D01*
X6897901Y2083193D01*
X6878853Y2073669D01*
X6821710Y2073669D01*
X6802662Y2083193D01*
X6793139Y2092717D01*
X7097901Y2273669D02*
X7002662Y2273669D01*
X6993139Y2178431D01*
X7002662Y2187955D01*
X7021710Y2197479D01*
X7069329Y2197479D01*
X7088377Y2187955D01*
X7097901Y2178431D01*
X7107424Y2159383D01*
X7107424Y2111764D01*
X7097901Y2092717D01*
X7088377Y2083193D01*
X7069329Y2073669D01*
X7021710Y2073669D01*
X7002662Y2083193D01*
X6993139Y2092717D01*
X7231234Y2273669D02*
X7250281Y2273669D01*
X7269329Y2264145D01*
X7278853Y2254622D01*
X7288377Y2235574D01*
X7297901Y2197479D01*
X7297901Y2149860D01*
X7288377Y2111764D01*
X7278853Y2092717D01*
X7269329Y2083193D01*
X7250281Y2073669D01*
X7231234Y2073669D01*
X7212186Y2083193D01*
X7202662Y2092717D01*
X7193139Y2111764D01*
X7183615Y2149860D01*
X7183615Y2197479D01*
X7193139Y2235574D01*
X7202662Y2254622D01*
X7212186Y2264145D01*
X7231234Y2273669D01*
X7374091Y2273669D02*
X7374091Y2235574D01*
X7450281Y2273669D02*
X7450281Y2235574D01*
X7745520Y1997479D02*
X7735996Y2007002D01*
X7716948Y2035574D01*
X7707424Y2054621D01*
X7697901Y2083193D01*
X7688377Y2130812D01*
X7688377Y2168907D01*
X7697901Y2216526D01*
X7707424Y2245098D01*
X7716948Y2264145D01*
X7735996Y2292717D01*
X7745520Y2302241D01*
X7926472Y2073669D02*
X7812186Y2073669D01*
X7869329Y2073669D02*
X7869329Y2273669D01*
X7850281Y2245098D01*
X7831234Y2226050D01*
X7812186Y2216526D01*
X8107424Y2273669D02*
X8012186Y2273669D01*
X8002662Y2178431D01*
X8012186Y2187955D01*
X8031234Y2197479D01*
X8078853Y2197479D01*
X8097901Y2187955D01*
X8107424Y2178431D01*
X8116948Y2159383D01*
X8116948Y2111764D01*
X8107424Y2092717D01*
X8097901Y2083193D01*
X8078853Y2073669D01*
X8031234Y2073669D01*
X8012186Y2083193D01*
X8002662Y2092717D01*
X8355043Y2073669D02*
X8355043Y2273669D01*
X8440758Y2073669D02*
X8440758Y2178431D01*
X8431234Y2197479D01*
X8412186Y2207003D01*
X8383615Y2207003D01*
X8364567Y2197479D01*
X8355043Y2187955D01*
X8564567Y2073669D02*
X8545520Y2083193D01*
X8535996Y2092717D01*
X8526472Y2111764D01*
X8526472Y2168907D01*
X8535996Y2187955D01*
X8545520Y2197479D01*
X8564567Y2207003D01*
X8593139Y2207003D01*
X8612186Y2197479D01*
X8621710Y2187955D01*
X8631234Y2168907D01*
X8631234Y2111764D01*
X8621710Y2092717D01*
X8612186Y2083193D01*
X8593139Y2073669D01*
X8564567Y2073669D01*
X8745520Y2073669D02*
X8726472Y2083193D01*
X8716948Y2102241D01*
X8716948Y2273669D01*
X8897901Y2083193D02*
X8878853Y2073669D01*
X8840758Y2073669D01*
X8821710Y2083193D01*
X8812186Y2102241D01*
X8812186Y2178431D01*
X8821710Y2197479D01*
X8840758Y2207003D01*
X8878853Y2207003D01*
X8897901Y2197479D01*
X8907424Y2178431D01*
X8907424Y2159383D01*
X8812186Y2140336D01*
X8983615Y2083193D02*
X9002663Y2073669D01*
X9040758Y2073669D01*
X9059805Y2083193D01*
X9069329Y2102241D01*
X9069329Y2111764D01*
X9059805Y2130812D01*
X9040758Y2140336D01*
X9012186Y2140336D01*
X8993139Y2149860D01*
X8983615Y2168907D01*
X8983615Y2178431D01*
X8993139Y2197479D01*
X9012186Y2207003D01*
X9040758Y2207003D01*
X9059805Y2197479D01*
X9135996Y1997479D02*
X9145520Y2007002D01*
X9164567Y2035574D01*
X9174091Y2054621D01*
X9183615Y2083193D01*
X9193139Y2130812D01*
X9193139Y2168907D01*
X9183615Y2216526D01*
X9174091Y2245098D01*
X9164567Y2264145D01*
X9145520Y2292717D01*
X9135996Y2302241D01*
X9497901Y1997479D02*
X9488377Y2007002D01*
X9469329Y2035574D01*
X9459805Y2054621D01*
X9450282Y2083193D01*
X9440758Y2130812D01*
X9440758Y2168907D01*
X9450282Y2216526D01*
X9459805Y2245098D01*
X9469329Y2264145D01*
X9488377Y2292717D01*
X9497901Y2302241D01*
X9574091Y2207003D02*
X9574091Y2073669D01*
X9574091Y2187955D02*
X9583615Y2197479D01*
X9602663Y2207003D01*
X9631234Y2207003D01*
X9650282Y2197479D01*
X9659805Y2178431D01*
X9659805Y2073669D01*
X9783615Y2073669D02*
X9764567Y2083193D01*
X9755043Y2092717D01*
X9745520Y2111764D01*
X9745520Y2168907D01*
X9755043Y2187955D01*
X9764567Y2197479D01*
X9783615Y2207003D01*
X9812186Y2207003D01*
X9831234Y2197479D01*
X9840758Y2187955D01*
X9850282Y2168907D01*
X9850282Y2111764D01*
X9840758Y2092717D01*
X9831234Y2083193D01*
X9812186Y2073669D01*
X9783615Y2073669D01*
X9907424Y2207003D02*
X9983615Y2207003D01*
X9935996Y2273669D02*
X9935996Y2102241D01*
X9945520Y2083193D01*
X9964567Y2073669D01*
X9983615Y2073669D01*
X10202663Y2207003D02*
X10202663Y2007002D01*
X10202663Y2197479D02*
X10221710Y2207003D01*
X10259805Y2207003D01*
X10278853Y2197479D01*
X10288377Y2187955D01*
X10297901Y2168907D01*
X10297901Y2111764D01*
X10288377Y2092717D01*
X10278853Y2083193D01*
X10259805Y2073669D01*
X10221710Y2073669D01*
X10202663Y2083193D01*
X10412186Y2073669D02*
X10393139Y2083193D01*
X10383615Y2102241D01*
X10383615Y2273669D01*
X10574091Y2073669D02*
X10574091Y2178431D01*
X10564567Y2197479D01*
X10545520Y2207003D01*
X10507424Y2207003D01*
X10488377Y2197479D01*
X10574091Y2083193D02*
X10555043Y2073669D01*
X10507424Y2073669D01*
X10488377Y2083193D01*
X10478853Y2102241D01*
X10478853Y2121288D01*
X10488377Y2140336D01*
X10507424Y2149860D01*
X10555043Y2149860D01*
X10574091Y2159383D01*
X10640758Y2207003D02*
X10716948Y2207003D01*
X10669329Y2273669D02*
X10669329Y2102241D01*
X10678853Y2083193D01*
X10697901Y2073669D01*
X10716948Y2073669D01*
X10859805Y2083193D02*
X10840758Y2073669D01*
X10802663Y2073669D01*
X10783615Y2083193D01*
X10774091Y2102241D01*
X10774091Y2178431D01*
X10783615Y2197479D01*
X10802663Y2207003D01*
X10840758Y2207003D01*
X10859805Y2197479D01*
X10869329Y2178431D01*
X10869329Y2159383D01*
X10774091Y2140336D01*
X11040758Y2073669D02*
X11040758Y2273669D01*
X11040758Y2083193D02*
X11021710Y2073669D01*
X10983615Y2073669D01*
X10964567Y2083193D01*
X10955043Y2092717D01*
X10945520Y2111764D01*
X10945520Y2168907D01*
X10955043Y2187955D01*
X10964567Y2197479D01*
X10983615Y2207003D01*
X11021710Y2207003D01*
X11040758Y2197479D01*
X11116948Y1997479D02*
X11126472Y2007002D01*
X11145520Y2035574D01*
X11155043Y2054621D01*
X11164567Y2083193D01*
X11174091Y2130812D01*
X11174091Y2168907D01*
X11164567Y2216526D01*
X11155043Y2245098D01*
X11145520Y2264145D01*
X11126472Y2292717D01*
X11116948Y2302241D01*
M02*
