M48
; DRILL file {KiCad (6.0.4-0)} date 2022 July 27, Wednesday 10:05:47
; FORMAT={-:-/ absolute / metric / decimal}
; #@! TF.CreationDate,2022-07-27T10:05:47+02:00
; #@! TF.GenerationSoftware,Kicad,Pcbnew,(6.0.4-0)
; #@! TF.FileFunction,Plated,1,2,PTH
FMAT,2
METRIC
; #@! TA.AperFunction,Plated,PTH,ViaDrill
T1C0.400
; #@! TA.AperFunction,Plated,PTH,ComponentDrill
T2C1.092
; #@! TA.AperFunction,Plated,PTH,ComponentDrill
T3C1.270
; #@! TA.AperFunction,Plated,PTH,ComponentDrill
T4C1.300
; #@! TA.AperFunction,Plated,PTH,ComponentDrill
T5C2.200
; #@! TA.AperFunction,Plated,PTH,ComponentDrill
T6C3.000
%
G90
G05
T1
X198.882Y-137.922
X201.422Y-137.922
X203.962Y-137.922
X205.003Y-63.494
T2
X198.798Y-145.574
X198.882Y-130.334
X200.47Y-71.374
X201.422Y-130.334
X201.422Y-145.574
X202.47Y-71.374
X203.962Y-130.334
X203.962Y-145.574
X204.47Y-71.374
X206.502Y-130.334
X206.502Y-145.574
X209.042Y-130.334
X209.042Y-145.574
X211.582Y-130.334
X211.582Y-145.574
X214.122Y-130.334
X214.122Y-145.574
X216.662Y-130.334
X216.662Y-145.574
X219.202Y-130.334
X219.202Y-145.574
X221.742Y-130.334
X221.742Y-145.574
X224.282Y-130.334
X224.282Y-145.574
X226.822Y-130.334
X226.822Y-145.574
T3
X208.268Y-104.892
X213.823Y-123.061
X226.552Y-81.788
X229.851Y-100.499
X233.15Y-119.21
X247.949Y-71.456
X249.605Y-90.383
X251.261Y-109.311
X271.116Y-83.886
X271.116Y-102.886
X271.116Y-121.886
X275.741Y-142.886
X290.516Y-95.286
X290.516Y-114.286
X295.141Y-144.596
T4
X233.172Y-131.454
X233.172Y-137.954
T5
X240.078Y-95.591
X255.914Y-117.387
X261.874Y-79.756
T6
X200.66Y-124.46
X216.916Y-62.484
X297.688Y-62.484
X298.196Y-124.714
T3
G00X202.842Y-104.248
M15
G01X203.427Y-106.16
M16
G05
G00X208.397Y-122.417
M15
G01X208.982Y-124.33
M16
G05
G00X212.406Y-101.326
M15
G01X212.991Y-103.239
M16
G05
G00X217.961Y-119.496
M15
G01X218.546Y-121.408
M16
G05
G00X221.245Y-80.487
M15
G01X221.592Y-82.457
M16
G05
G00X224.545Y-99.198
M15
G01X224.892Y-101.168
M16
G05
G00X227.844Y-117.91
M15
G01X228.191Y-119.879
M16
G05
G00X231.094Y-78.753
M15
G01X231.441Y-80.722
M16
G05
G00X234.393Y-97.464
M15
G01X234.74Y-99.434
M16
G05
G00X237.692Y-116.175
M15
G01X238.04Y-118.145
M16
G05
G00X242.776Y-69.698
M15
G01X242.95Y-71.69
M16
G05
G00X244.432Y-88.625
M15
G01X244.606Y-90.618
M16
G05
G00X246.088Y-107.553
M15
G01X246.262Y-109.545
M16
G05
G00X252.738Y-68.828
M15
G01X252.913Y-70.821
M16
G05
G00X254.394Y-87.756
M15
G01X254.569Y-89.748
M16
G05
G00X256.05Y-106.684
M15
G01X256.225Y-108.676
M16
G05
G00X266.116Y-81.684
M15
G01X266.116Y-83.684
M16
G05
G00X266.116Y-100.684
M15
G01X266.116Y-102.684
M16
G05
G00X266.116Y-119.684
M15
G01X266.116Y-121.684
M16
G05
G00X270.741Y-140.684
M15
G01X270.741Y-142.684
M16
G05
G00X276.116Y-81.686
M15
G01X276.116Y-83.686
M16
G05
G00X276.116Y-100.686
M15
G01X276.116Y-102.686
M16
G05
G00X276.116Y-119.686
M15
G01X276.116Y-121.686
M16
G05
G00X280.741Y-140.686
M15
G01X280.741Y-142.686
M16
G05
G00X285.516Y-93.084
M15
G01X285.516Y-95.084
M16
G05
G00X285.516Y-112.084
M15
G01X285.516Y-114.084
M16
G05
G00X290.141Y-142.394
M15
G01X290.141Y-144.394
M16
G05
G00X295.516Y-93.086
M15
G01X295.516Y-95.086
M16
G05
G00X295.516Y-112.086
M15
G01X295.516Y-114.086
M16
G05
G00X300.141Y-142.396
M15
G01X300.141Y-144.396
M16
G05
T0
M30
