<?xml version="1.0" standalone="no"?>
 <!DOCTYPE svg PUBLIC "-//W3C//DTD SVG 1.1//EN" 
 "http://www.w3.org/Graphics/SVG/1.1/DTD/svg11.dtd"> 
<svg
  xmlns:svg="http://www.w3.org/2000/svg"
  xmlns="http://www.w3.org/2000/svg"
  xmlns:xlink="http://www.w3.org/1999/xlink"
  version="1.1"
  width="251.3076mm" height="108.7374mm" viewBox="0.0000 0.0000 251.3076 108.7374">
<title>SVG Image created as Block-brd.svg date 2023/05/03 14:47:23 </title>
  <desc>Image generated by PCBNEW </desc>
<g style="fill:#000000; fill-opacity:1.0000;stroke:#000000; stroke-opacity:1.0000;
stroke-linecap:round; stroke-linejoin:round;"
 transform="translate(0 0) scale(1 1)">
</g>
<g style="fill:#000000; fill-opacity:0.0; 
stroke:#000000; stroke-width:0.0000; stroke-opacity:1; 
stroke-linecap:round; stroke-linejoin:round;">
</g>
<g style="fill:#C2C2C2; fill-opacity:0.0; 
stroke:#C2C2C2; stroke-width:0.0000; stroke-opacity:1; 
stroke-linecap:round; stroke-linejoin:round;">
</g>
<g style="fill:#C2C2C2; fill-opacity:0.0; 
stroke:#C2C2C2; stroke-width:0.1500; stroke-opacity:1; 
stroke-linecap:round; stroke-linejoin:round;">
<path d="M173.7506 76.7663
L173.7506 57.7663
" />
<path d="M173.7506 76.7663
L154.7506 76.7663
" />
<path d="M173.7506 76.7663
L154.7506 76.7663
" />
<path d="M173.7506 76.7663
L154.7506 76.7663
" />
<path d="M173.7506 57.7663
L173.7506 76.7663
" />
<path d="M173.7506 57.7663
L173.7506 76.7663
" />
<path d="M173.7506 57.7663
L173.7506 76.7663
" />
<path d="M173.7506 57.7663
L154.7506 57.7663
" />
<path d="M154.7506 76.7663
L173.7506 76.7663
" />
<path d="M154.7506 76.7663
L154.7506 57.7663
" />
<path d="M154.7506 76.7663
L154.7506 57.7663
" />
<path d="M154.7506 76.7663
L154.7506 57.7663
" />
<path d="M154.7506 57.7663
L173.7506 57.7663
" />
<path d="M154.7506 57.7663
L173.7506 57.7663
" />
<path d="M154.7506 57.7663
L173.7506 57.7663
" />
<path d="M154.7506 57.7663
L154.7506 76.7663
" />
<path d="M173.7506 57.6683
L173.7506 38.6683
" />
<path d="M173.7506 57.6683
L154.7506 57.6683
" />
<path d="M173.7506 57.6683
L154.7506 57.6683
" />
<path d="M173.7506 57.6683
L154.7506 57.6683
" />
<path d="M173.7506 38.6683
L173.7506 57.6683
" />
<path d="M173.7506 38.6683
L173.7506 57.6683
" />
<path d="M173.7506 38.6683
L173.7506 57.6683
" />
<path d="M173.7506 38.6683
L154.7506 38.6683
" />
<path d="M154.7506 57.6683
L173.7506 57.6683
" />
<path d="M154.7506 57.6683
L154.7506 38.6683
" />
<path d="M154.7506 57.6683
L154.7506 38.6683
" />
<path d="M154.7506 57.6683
L154.7506 38.6683
" />
<path d="M154.7506 38.6683
L173.7506 38.6683
" />
<path d="M154.7506 38.6683
L173.7506 38.6683
" />
<path d="M154.7506 38.6683
L173.7506 38.6683
" />
<path d="M154.7506 38.6683
L154.7506 57.6683
" />
<path d="M78.2693 76.7663
L78.2693 57.7663
" />
<path d="M78.2693 76.7663
L59.2693 76.7663
" />
<path d="M78.2693 76.7663
L59.2693 76.7663
" />
<path d="M78.2693 76.7663
L59.2693 76.7663
" />
<path d="M78.2693 57.7663
L78.2693 76.7663
" />
<path d="M78.2693 57.7663
L78.2693 76.7663
" />
<path d="M78.2693 57.7663
L78.2693 76.7663
" />
<path d="M78.2693 57.7663
L59.2693 57.7663
" />
<path d="M59.2693 76.7663
L78.2693 76.7663
" />
<path d="M59.2693 76.7663
L59.2693 57.7663
" />
<path d="M59.2693 76.7663
L59.2693 57.7663
" />
<path d="M59.2693 76.7663
L59.2693 57.7663
" />
<path d="M59.2693 57.7663
L78.2693 57.7663
" />
<path d="M59.2693 57.7663
L78.2693 57.7663
" />
<path d="M59.2693 57.7663
L78.2693 57.7663
" />
<path d="M59.2693 57.7663
L59.2693 76.7663
" />
<path d="M211.7376 57.6683
L211.7376 38.6683
" />
<path d="M211.7376 57.6683
L192.7376 57.6683
" />
<path d="M211.7376 57.6683
L192.7376 57.6683
" />
<path d="M211.7376 57.6683
L192.7376 57.6683
" />
<path d="M211.7376 38.6683
L211.7376 57.6683
" />
<path d="M211.7376 38.6683
L211.7376 57.6683
" />
<path d="M211.7376 38.6683
L211.7376 57.6683
" />
<path d="M211.7376 38.6683
L192.7376 38.6683
" />
<path d="M192.7376 57.6683
L211.7376 57.6683
" />
<path d="M192.7376 57.6683
L192.7376 38.6683
" />
<path d="M192.7376 57.6683
L192.7376 38.6683
" />
<path d="M192.7376 57.6683
L192.7376 38.6683
" />
<path d="M192.7376 38.6683
L211.7376 38.6683
" />
<path d="M192.7376 38.6683
L211.7376 38.6683
" />
<path d="M192.7376 38.6683
L211.7376 38.6683
" />
<path d="M192.7376 38.6683
L192.7376 57.6683
" />
<path d="M192.7289 100.8883
L192.7289 81.8883
" />
<path d="M192.7289 100.8883
L173.7289 100.8883
" />
<path d="M192.7289 100.8883
L173.7289 100.8883
" />
<path d="M192.7289 100.8883
L173.7289 100.8883
" />
<path d="M192.7289 81.8883
L192.7289 100.8883
" />
<path d="M192.7289 81.8883
L192.7289 100.8883
" />
<path d="M192.7289 81.8883
L192.7289 100.8883
" />
<path d="M192.7289 81.8883
L173.7289 81.8883
" />
<path d="M173.7289 100.8883
L192.7289 100.8883
" />
<path d="M173.7289 100.8883
L173.7289 81.8883
" />
<path d="M173.7289 100.8883
L173.7289 81.8883
" />
<path d="M173.7289 100.8883
L173.7289 81.8883
" />
<path d="M173.7289 81.8883
L192.7289 81.8883
" />
<path d="M173.7289 81.8883
L192.7289 81.8883
" />
<path d="M173.7289 81.8883
L192.7289 81.8883
" />
<path d="M173.7289 81.8883
L173.7289 100.8883
" />
<path d="M59.2406 57.6683
L59.2406 38.6683
" />
<path d="M59.2406 57.6683
L40.2406 57.6683
" />
<path d="M59.2406 57.6683
L40.2406 57.6683
" />
<path d="M59.2406 57.6683
L40.2406 57.6683
" />
<path d="M59.2406 38.6683
L59.2406 57.6683
" />
<path d="M59.2406 38.6683
L59.2406 57.6683
" />
<path d="M59.2406 38.6683
L59.2406 57.6683
" />
<path d="M59.2406 38.6683
L40.2406 38.6683
" />
<path d="M40.2406 57.6683
L59.2406 57.6683
" />
<path d="M40.2406 57.6683
L40.2406 38.6683
" />
<path d="M40.2406 57.6683
L40.2406 38.6683
" />
<path d="M40.2406 57.6683
L40.2406 38.6683
" />
<path d="M40.2406 38.6683
L59.2406 38.6683
" />
<path d="M40.2406 38.6683
L59.2406 38.6683
" />
<path d="M40.2406 38.6683
L59.2406 38.6683
" />
<path d="M40.2406 38.6683
L40.2406 57.6683
" />
<path d="M40.2119 57.6683
L40.2119 38.6683
" />
<path d="M40.2119 57.6683
L21.2119 57.6683
" />
<path d="M40.2119 57.6683
L21.2119 57.6683
" />
<path d="M40.2119 57.6683
L21.2119 57.6683
" />
<path d="M40.2119 38.6683
L40.2119 57.6683
" />
<path d="M40.2119 38.6683
L40.2119 57.6683
" />
<path d="M40.2119 38.6683
L40.2119 57.6683
" />
<path d="M40.2119 38.6683
L21.2119 38.6683
" />
<path d="M21.2119 57.6683
L40.2119 57.6683
" />
<path d="M21.2119 57.6683
L21.2119 38.6683
" />
<path d="M21.2119 57.6683
L21.2119 38.6683
" />
<path d="M21.2119 57.6683
L21.2119 38.6683
" />
<path d="M21.2119 38.6683
L40.2119 38.6683
" />
<path d="M21.2119 38.6683
L40.2119 38.6683
" />
<path d="M21.2119 38.6683
L40.2119 38.6683
" />
<path d="M21.2119 38.6683
L21.2119 57.6683
" />
<path d="M211.7376 76.7663
L211.7376 57.7663
" />
<path d="M211.7376 76.7663
L192.7376 76.7663
" />
<path d="M211.7376 76.7663
L192.7376 76.7663
" />
<path d="M211.7376 76.7663
L192.7376 76.7663
" />
<path d="M211.7376 57.7663
L211.7376 76.7663
" />
<path d="M211.7376 57.7663
L211.7376 76.7663
" />
<path d="M211.7376 57.7663
L211.7376 76.7663
" />
<path d="M211.7376 57.7663
L192.7376 57.7663
" />
<path d="M192.7376 76.7663
L211.7376 76.7663
" />
<path d="M192.7376 76.7663
L192.7376 57.7663
" />
<path d="M192.7376 76.7663
L192.7376 57.7663
" />
<path d="M192.7376 76.7663
L192.7376 57.7663
" />
<path d="M192.7376 57.7663
L211.7376 57.7663
" />
<path d="M192.7376 57.7663
L211.7376 57.7663
" />
<path d="M192.7376 57.7663
L211.7376 57.7663
" />
<path d="M192.7376 57.7663
L192.7376 76.7663
" />
<path d="M154.5586 107.3003
L154.5586 88.3003
" />
<path d="M154.5586 107.3003
L135.5586 107.3003
" />
<path d="M154.5586 107.3003
L135.5586 107.3003
" />
<path d="M154.5586 107.3003
L135.5586 107.3003
" />
<path d="M154.5586 88.3003
L154.5586 107.3003
" />
<path d="M154.5586 88.3003
L154.5586 107.3003
" />
<path d="M154.5586 88.3003
L154.5586 107.3003
" />
<path d="M154.5586 88.3003
L135.5586 88.3003
" />
<path d="M135.5586 107.3003
L154.5586 107.3003
" />
<path d="M135.5586 107.3003
L135.5586 88.3003
" />
<path d="M135.5586 107.3003
L135.5586 88.3003
" />
<path d="M135.5586 107.3003
L135.5586 88.3003
" />
<path d="M135.5586 88.3003
L154.5586 88.3003
" />
<path d="M135.5586 88.3003
L154.5586 88.3003
" />
<path d="M135.5586 88.3003
L154.5586 88.3003
" />
<path d="M135.5586 88.3003
L135.5586 107.3003
" />
<path d="M59.2406 38.5843
L59.2406 19.5843
" />
<path d="M59.2406 38.5843
L40.2406 38.5843
" />
<path d="M59.2406 38.5843
L40.2406 38.5843
" />
<path d="M59.2406 38.5843
L40.2406 38.5843
" />
<path d="M59.2406 19.5843
L59.2406 38.5843
" />
<path d="M59.2406 19.5843
L59.2406 38.5843
" />
<path d="M59.2406 19.5843
L59.2406 38.5843
" />
<path d="M59.2406 19.5843
L40.2406 19.5843
" />
<path d="M40.2406 38.5843
L59.2406 38.5843
" />
<path d="M40.2406 38.5843
L40.2406 19.5843
" />
<path d="M40.2406 38.5843
L40.2406 19.5843
" />
<path d="M40.2406 38.5843
L40.2406 19.5843
" />
<path d="M40.2406 19.5843
L59.2406 19.5843
" />
<path d="M40.2406 19.5843
L59.2406 19.5843
" />
<path d="M40.2406 19.5843
L59.2406 19.5843
" />
<path d="M40.2406 19.5843
L40.2406 38.5843
" />
<path d="M249.7549 76.7663
L249.7549 57.7663
" />
<path d="M249.7549 76.7663
L230.7549 76.7663
" />
<path d="M249.7549 76.7663
L230.7549 76.7663
" />
<path d="M249.7549 76.7663
L230.7549 76.7663
" />
<path d="M249.7549 57.7663
L249.7549 76.7663
" />
<path d="M249.7549 57.7663
L249.7549 76.7663
" />
<path d="M249.7549 57.7663
L249.7549 76.7663
" />
<path d="M249.7549 57.7663
L230.7549 57.7663
" />
<path d="M230.7549 76.7663
L249.7549 76.7663
" />
<path d="M230.7549 76.7663
L230.7549 57.7663
" />
<path d="M230.7549 76.7663
L230.7549 57.7663
" />
<path d="M230.7549 76.7663
L230.7549 57.7663
" />
<path d="M230.7549 57.7663
L249.7549 57.7663
" />
<path d="M230.7549 57.7663
L249.7549 57.7663
" />
<path d="M230.7549 57.7663
L249.7549 57.7663
" />
<path d="M230.7549 57.7663
L230.7549 76.7663
" />
<path d="M97.3446 100.8850
L97.3446 81.8850
" />
<path d="M97.3446 100.8850
L78.3446 100.8850
" />
<path d="M97.3446 100.8850
L78.3446 100.8850
" />
<path d="M97.3446 100.8850
L78.3446 100.8850
" />
<path d="M97.3446 81.8850
L97.3446 100.8850
" />
<path d="M97.3446 81.8850
L97.3446 100.8850
" />
<path d="M97.3446 81.8850
L97.3446 100.8850
" />
<path d="M97.3446 81.8850
L78.3446 81.8850
" />
<path d="M78.3446 100.8850
L97.3446 100.8850
" />
<path d="M78.3446 100.8850
L78.3446 81.8850
" />
<path d="M78.3446 100.8850
L78.3446 81.8850
" />
<path d="M78.3446 100.8850
L78.3446 81.8850
" />
<path d="M78.3446 81.8850
L97.3446 81.8850
" />
<path d="M78.3446 81.8850
L97.3446 81.8850
" />
<path d="M78.3446 81.8850
L97.3446 81.8850
" />
<path d="M78.3446 81.8850
L78.3446 100.8850
" />
<path d="M21.1833 38.5843
L21.1833 19.5843
" />
<path d="M21.1833 38.5843
L2.1833 38.5843
" />
<path d="M21.1833 38.5843
L2.1833 38.5843
" />
<path d="M21.1833 38.5843
L2.1833 38.5843
" />
<path d="M21.1833 19.5843
L21.1833 38.5843
" />
<path d="M21.1833 19.5843
L21.1833 38.5843
" />
<path d="M21.1833 19.5843
L21.1833 38.5843
" />
<path d="M21.1833 19.5843
L2.1833 19.5843
" />
<path d="M2.1833 38.5843
L21.1833 38.5843
" />
<path d="M2.1833 38.5843
L2.1833 19.5843
" />
<path d="M2.1833 38.5843
L2.1833 19.5843
" />
<path d="M2.1833 38.5843
L2.1833 19.5843
" />
<path d="M2.1833 19.5843
L21.1833 19.5843
" />
<path d="M2.1833 19.5843
L21.1833 19.5843
" />
<path d="M2.1833 19.5843
L21.1833 19.5843
" />
<path d="M2.1833 19.5843
L2.1833 38.5843
" />
<path d="M249.7549 57.6683
L249.7549 38.6683
" />
<path d="M249.7549 57.6683
L230.7549 57.6683
" />
<path d="M249.7549 57.6683
L230.7549 57.6683
" />
<path d="M249.7549 57.6683
L230.7549 57.6683
" />
<path d="M249.7549 38.6683
L249.7549 57.6683
" />
<path d="M249.7549 38.6683
L249.7549 57.6683
" />
<path d="M249.7549 38.6683
L249.7549 57.6683
" />
<path d="M249.7549 38.6683
L230.7549 38.6683
" />
<path d="M230.7549 57.6683
L249.7549 57.6683
" />
<path d="M230.7549 57.6683
L230.7549 38.6683
" />
<path d="M230.7549 57.6683
L230.7549 38.6683
" />
<path d="M230.7549 57.6683
L230.7549 38.6683
" />
<path d="M230.7549 38.6683
L249.7549 38.6683
" />
<path d="M230.7549 38.6683
L249.7549 38.6683
" />
<path d="M230.7549 38.6683
L249.7549 38.6683
" />
<path d="M230.7549 38.6683
L230.7549 57.6683
" />
<path d="M211.7376 100.8883
L211.7376 81.8883
" />
<path d="M211.7376 100.8883
L192.7376 100.8883
" />
<path d="M211.7376 100.8883
L192.7376 100.8883
" />
<path d="M211.7376 100.8883
L192.7376 100.8883
" />
<path d="M211.7376 81.8883
L211.7376 100.8883
" />
<path d="M211.7376 81.8883
L211.7376 100.8883
" />
<path d="M211.7376 81.8883
L211.7376 100.8883
" />
<path d="M211.7376 81.8883
L192.7376 81.8883
" />
<path d="M192.7376 100.8883
L211.7376 100.8883
" />
<path d="M192.7376 100.8883
L192.7376 81.8883
" />
<path d="M192.7376 100.8883
L192.7376 81.8883
" />
<path d="M192.7376 100.8883
L192.7376 81.8883
" />
<path d="M192.7376 81.8883
L211.7376 81.8883
" />
<path d="M192.7376 81.8883
L211.7376 81.8883
" />
<path d="M192.7376 81.8883
L211.7376 81.8883
" />
<path d="M192.7376 81.8883
L192.7376 100.8883
" />
<path d="M192.7289 76.7663
L192.7289 57.7663
" />
<path d="M192.7289 76.7663
L173.7289 76.7663
" />
<path d="M192.7289 76.7663
L173.7289 76.7663
" />
<path d="M192.7289 76.7663
L173.7289 76.7663
" />
<path d="M192.7289 57.7663
L192.7289 76.7663
" />
<path d="M192.7289 57.7663
L192.7289 76.7663
" />
<path d="M192.7289 57.7663
L192.7289 76.7663
" />
<path d="M192.7289 57.7663
L173.7289 57.7663
" />
<path d="M173.7289 76.7663
L192.7289 76.7663
" />
<path d="M173.7289 76.7663
L173.7289 57.7663
" />
<path d="M173.7289 76.7663
L173.7289 57.7663
" />
<path d="M173.7289 76.7663
L173.7289 57.7663
" />
<path d="M173.7289 57.7663
L192.7289 57.7663
" />
<path d="M173.7289 57.7663
L192.7289 57.7663
" />
<path d="M173.7289 57.7663
L192.7289 57.7663
" />
<path d="M173.7289 57.7663
L173.7289 76.7663
" />
<path d="M40.2119 100.8883
L40.2119 81.8883
" />
<path d="M40.2119 100.8883
L21.2119 100.8883
" />
<path d="M40.2119 100.8883
L21.2119 100.8883
" />
<path d="M40.2119 100.8883
L21.2119 100.8883
" />
<path d="M40.2119 81.8883
L40.2119 100.8883
" />
<path d="M40.2119 81.8883
L40.2119 100.8883
" />
<path d="M40.2119 81.8883
L40.2119 100.8883
" />
<path d="M40.2119 81.8883
L21.2119 81.8883
" />
<path d="M21.2119 100.8883
L40.2119 100.8883
" />
<path d="M21.2119 100.8883
L21.2119 81.8883
" />
<path d="M21.2119 100.8883
L21.2119 81.8883
" />
<path d="M21.2119 100.8883
L21.2119 81.8883
" />
<path d="M21.2119 81.8883
L40.2119 81.8883
" />
<path d="M21.2119 81.8883
L40.2119 81.8883
" />
<path d="M21.2119 81.8883
L40.2119 81.8883
" />
<path d="M21.2119 81.8883
L21.2119 100.8883
" />
<path d="M249.7549 100.8883
L249.7549 81.8883
" />
<path d="M249.7549 100.8883
L230.7549 100.8883
" />
<path d="M249.7549 100.8883
L230.7549 100.8883
" />
<path d="M249.7549 100.8883
L230.7549 100.8883
" />
<path d="M249.7549 81.8883
L249.7549 100.8883
" />
<path d="M249.7549 81.8883
L249.7549 100.8883
" />
<path d="M249.7549 81.8883
L249.7549 100.8883
" />
<path d="M249.7549 81.8883
L230.7549 81.8883
" />
<path d="M230.7549 100.8883
L249.7549 100.8883
" />
<path d="M230.7549 100.8883
L230.7549 81.8883
" />
<path d="M230.7549 100.8883
L230.7549 81.8883
" />
<path d="M230.7549 100.8883
L230.7549 81.8883
" />
<path d="M230.7549 81.8883
L249.7549 81.8883
" />
<path d="M230.7549 81.8883
L249.7549 81.8883
" />
<path d="M230.7549 81.8883
L249.7549 81.8883
" />
<path d="M230.7549 81.8883
L230.7549 100.8883
" />
<path d="M230.7463 57.6683
L230.7463 38.6683
" />
<path d="M230.7463 57.6683
L211.7463 57.6683
" />
<path d="M230.7463 57.6683
L211.7463 57.6683
" />
<path d="M230.7463 57.6683
L211.7463 57.6683
" />
<path d="M230.7463 38.6683
L230.7463 57.6683
" />
<path d="M230.7463 38.6683
L230.7463 57.6683
" />
<path d="M230.7463 38.6683
L230.7463 57.6683
" />
<path d="M230.7463 38.6683
L211.7463 38.6683
" />
<path d="M211.7463 57.6683
L230.7463 57.6683
" />
<path d="M211.7463 57.6683
L211.7463 38.6683
" />
<path d="M211.7463 57.6683
L211.7463 38.6683
" />
<path d="M211.7463 57.6683
L211.7463 38.6683
" />
<path d="M211.7463 38.6683
L230.7463 38.6683
" />
<path d="M211.7463 38.6683
L230.7463 38.6683
" />
<path d="M211.7463 38.6683
L230.7463 38.6683
" />
<path d="M211.7463 38.6683
L211.7463 57.6683
" />
<path d="M59.2406 100.8883
L59.2406 81.8883
" />
<path d="M59.2406 100.8883
L40.2406 100.8883
" />
<path d="M59.2406 100.8883
L40.2406 100.8883
" />
<path d="M59.2406 100.8883
L40.2406 100.8883
" />
<path d="M59.2406 81.8883
L59.2406 100.8883
" />
<path d="M59.2406 81.8883
L59.2406 100.8883
" />
<path d="M59.2406 81.8883
L59.2406 100.8883
" />
<path d="M59.2406 81.8883
L40.2406 81.8883
" />
<path d="M40.2406 100.8883
L59.2406 100.8883
" />
<path d="M40.2406 100.8883
L40.2406 81.8883
" />
<path d="M40.2406 100.8883
L40.2406 81.8883
" />
<path d="M40.2406 100.8883
L40.2406 81.8883
" />
<path d="M40.2406 81.8883
L59.2406 81.8883
" />
<path d="M40.2406 81.8883
L59.2406 81.8883
" />
<path d="M40.2406 81.8883
L59.2406 81.8883
" />
<path d="M40.2406 81.8883
L40.2406 100.8883
" />
<path d="M230.7463 100.8883
L230.7463 81.8883
" />
<path d="M230.7463 100.8883
L211.7463 100.8883
" />
<path d="M230.7463 100.8883
L211.7463 100.8883
" />
<path d="M230.7463 100.8883
L211.7463 100.8883
" />
<path d="M230.7463 81.8883
L230.7463 100.8883
" />
<path d="M230.7463 81.8883
L230.7463 100.8883
" />
<path d="M230.7463 81.8883
L230.7463 100.8883
" />
<path d="M230.7463 81.8883
L211.7463 81.8883
" />
<path d="M211.7463 100.8883
L230.7463 100.8883
" />
<path d="M211.7463 100.8883
L211.7463 81.8883
" />
<path d="M211.7463 100.8883
L211.7463 81.8883
" />
<path d="M211.7463 100.8883
L211.7463 81.8883
" />
<path d="M211.7463 81.8883
L230.7463 81.8883
" />
<path d="M211.7463 81.8883
L230.7463 81.8883
" />
<path d="M211.7463 81.8883
L230.7463 81.8883
" />
<path d="M211.7463 81.8883
L211.7463 100.8883
" />
<path d="M59.2406 76.7663
L59.2406 57.7663
" />
<path d="M59.2406 76.7663
L40.2406 76.7663
" />
<path d="M59.2406 76.7663
L40.2406 76.7663
" />
<path d="M59.2406 76.7663
L40.2406 76.7663
" />
<path d="M59.2406 57.7663
L59.2406 76.7663
" />
<path d="M59.2406 57.7663
L59.2406 76.7663
" />
<path d="M59.2406 57.7663
L59.2406 76.7663
" />
<path d="M59.2406 57.7663
L40.2406 57.7663
" />
<path d="M40.2406 76.7663
L59.2406 76.7663
" />
<path d="M40.2406 76.7663
L40.2406 57.7663
" />
<path d="M40.2406 76.7663
L40.2406 57.7663
" />
<path d="M40.2406 76.7663
L40.2406 57.7663
" />
<path d="M40.2406 57.7663
L59.2406 57.7663
" />
<path d="M40.2406 57.7663
L59.2406 57.7663
" />
<path d="M40.2406 57.7663
L59.2406 57.7663
" />
<path d="M40.2406 57.7663
L40.2406 76.7663
" />
<path d="M78.2693 38.5843
L78.2693 19.5843
" />
<path d="M78.2693 38.5843
L59.2693 38.5843
" />
<path d="M78.2693 38.5843
L59.2693 38.5843
" />
<path d="M78.2693 38.5843
L59.2693 38.5843
" />
<path d="M78.2693 19.5843
L78.2693 38.5843
" />
<path d="M78.2693 19.5843
L78.2693 38.5843
" />
<path d="M78.2693 19.5843
L78.2693 38.5843
" />
<path d="M78.2693 19.5843
L59.2693 19.5843
" />
<path d="M59.2693 38.5843
L78.2693 38.5843
" />
<path d="M59.2693 38.5843
L59.2693 19.5843
" />
<path d="M59.2693 38.5843
L59.2693 19.5843
" />
<path d="M59.2693 38.5843
L59.2693 19.5843
" />
<path d="M59.2693 19.5843
L78.2693 19.5843
" />
<path d="M59.2693 19.5843
L78.2693 19.5843
" />
<path d="M59.2693 19.5843
L78.2693 19.5843
" />
<path d="M59.2693 19.5843
L59.2693 38.5843
" />
<path d="M78.2693 100.8883
L78.2693 81.8883
" />
<path d="M78.2693 100.8883
L59.2693 100.8883
" />
<path d="M78.2693 100.8883
L59.2693 100.8883
" />
<path d="M78.2693 100.8883
L59.2693 100.8883
" />
<path d="M78.2693 81.8883
L78.2693 100.8883
" />
<path d="M78.2693 81.8883
L78.2693 100.8883
" />
<path d="M78.2693 81.8883
L78.2693 100.8883
" />
<path d="M78.2693 81.8883
L59.2693 81.8883
" />
<path d="M59.2693 100.8883
L78.2693 100.8883
" />
<path d="M59.2693 100.8883
L59.2693 81.8883
" />
<path d="M59.2693 100.8883
L59.2693 81.8883
" />
<path d="M59.2693 100.8883
L59.2693 81.8883
" />
<path d="M59.2693 81.8883
L78.2693 81.8883
" />
<path d="M59.2693 81.8883
L78.2693 81.8883
" />
<path d="M59.2693 81.8883
L78.2693 81.8883
" />
<path d="M59.2693 81.8883
L59.2693 100.8883
" />
<path d="M211.7376 38.5843
L211.7376 19.5843
" />
<path d="M211.7376 38.5843
L192.7376 38.5843
" />
<path d="M211.7376 38.5843
L192.7376 38.5843
" />
<path d="M211.7376 38.5843
L192.7376 38.5843
" />
<path d="M211.7376 19.5843
L211.7376 38.5843
" />
<path d="M211.7376 19.5843
L211.7376 38.5843
" />
<path d="M211.7376 19.5843
L211.7376 38.5843
" />
<path d="M211.7376 19.5843
L192.7376 19.5843
" />
<path d="M192.7376 38.5843
L211.7376 38.5843
" />
<path d="M192.7376 38.5843
L192.7376 19.5843
" />
<path d="M192.7376 38.5843
L192.7376 19.5843
" />
<path d="M192.7376 38.5843
L192.7376 19.5843
" />
<path d="M192.7376 19.5843
L211.7376 19.5843
" />
<path d="M192.7376 19.5843
L211.7376 19.5843
" />
<path d="M192.7376 19.5843
L211.7376 19.5843
" />
<path d="M192.7376 19.5843
L192.7376 38.5843
" />
<path d="M192.7289 57.6683
L192.7289 38.6683
" />
<path d="M192.7289 57.6683
L173.7289 57.6683
" />
<path d="M192.7289 57.6683
L173.7289 57.6683
" />
<path d="M192.7289 57.6683
L173.7289 57.6683
" />
<path d="M192.7289 38.6683
L192.7289 57.6683
" />
<path d="M192.7289 38.6683
L192.7289 57.6683
" />
<path d="M192.7289 38.6683
L192.7289 57.6683
" />
<path d="M192.7289 38.6683
L173.7289 38.6683
" />
<path d="M173.7289 57.6683
L192.7289 57.6683
" />
<path d="M173.7289 57.6683
L173.7289 38.6683
" />
<path d="M173.7289 57.6683
L173.7289 38.6683
" />
<path d="M173.7289 57.6683
L173.7289 38.6683
" />
<path d="M173.7289 38.6683
L192.7289 38.6683
" />
<path d="M173.7289 38.6683
L192.7289 38.6683
" />
<path d="M173.7289 38.6683
L192.7289 38.6683
" />
<path d="M173.7289 38.6683
L173.7289 57.6683
" />
<path d="M97.3446 57.6650
L97.3446 38.6650
" />
<path d="M97.3446 57.6650
L78.3446 57.6650
" />
<path d="M97.3446 57.6650
L78.3446 57.6650
" />
<path d="M97.3446 57.6650
L78.3446 57.6650
" />
<path d="M97.3446 38.6650
L97.3446 57.6650
" />
<path d="M97.3446 38.6650
L97.3446 57.6650
" />
<path d="M97.3446 38.6650
L97.3446 57.6650
" />
<path d="M97.3446 38.6650
L78.3446 38.6650
" />
<path d="M78.3446 57.6650
L97.3446 57.6650
" />
<path d="M78.3446 57.6650
L78.3446 38.6650
" />
<path d="M78.3446 57.6650
L78.3446 38.6650
" />
<path d="M78.3446 57.6650
L78.3446 38.6650
" />
<path d="M78.3446 38.6650
L97.3446 38.6650
" />
<path d="M78.3446 38.6650
L97.3446 38.6650
" />
<path d="M78.3446 38.6650
L97.3446 38.6650
" />
<path d="M78.3446 38.6650
L78.3446 57.6650
" />
<path d="M230.7463 38.5843
L230.7463 19.5843
" />
<path d="M230.7463 38.5843
L211.7463 38.5843
" />
<path d="M230.7463 38.5843
L211.7463 38.5843
" />
<path d="M230.7463 38.5843
L211.7463 38.5843
" />
<path d="M230.7463 19.5843
L230.7463 38.5843
" />
<path d="M230.7463 19.5843
L230.7463 38.5843
" />
<path d="M230.7463 19.5843
L230.7463 38.5843
" />
<path d="M230.7463 19.5843
L211.7463 19.5843
" />
<path d="M211.7463 38.5843
L230.7463 38.5843
" />
<path d="M211.7463 38.5843
L211.7463 19.5843
" />
<path d="M211.7463 38.5843
L211.7463 19.5843
" />
<path d="M211.7463 38.5843
L211.7463 19.5843
" />
<path d="M211.7463 19.5843
L230.7463 19.5843
" />
<path d="M211.7463 19.5843
L230.7463 19.5843
" />
<path d="M211.7463 19.5843
L230.7463 19.5843
" />
<path d="M211.7463 19.5843
L211.7463 38.5843
" />
<path d="M78.2693 57.6683
L78.2693 38.6683
" />
<path d="M78.2693 57.6683
L59.2693 57.6683
" />
<path d="M78.2693 57.6683
L59.2693 57.6683
" />
<path d="M78.2693 57.6683
L59.2693 57.6683
" />
<path d="M78.2693 38.6683
L78.2693 57.6683
" />
<path d="M78.2693 38.6683
L78.2693 57.6683
" />
<path d="M78.2693 38.6683
L78.2693 57.6683
" />
<path d="M78.2693 38.6683
L59.2693 38.6683
" />
<path d="M59.2693 57.6683
L78.2693 57.6683
" />
<path d="M59.2693 57.6683
L59.2693 38.6683
" />
<path d="M59.2693 57.6683
L59.2693 38.6683
" />
<path d="M59.2693 57.6683
L59.2693 38.6683
" />
<path d="M59.2693 38.6683
L78.2693 38.6683
" />
<path d="M59.2693 38.6683
L78.2693 38.6683
" />
<path d="M59.2693 38.6683
L78.2693 38.6683
" />
<path d="M59.2693 38.6683
L59.2693 57.6683
" />
<path d="M40.2119 38.5843
L40.2119 19.5843
" />
<path d="M40.2119 38.5843
L21.2119 38.5843
" />
<path d="M40.2119 38.5843
L21.2119 38.5843
" />
<path d="M40.2119 38.5843
L21.2119 38.5843
" />
<path d="M40.2119 19.5843
L40.2119 38.5843
" />
<path d="M40.2119 19.5843
L40.2119 38.5843
" />
<path d="M40.2119 19.5843
L40.2119 38.5843
" />
<path d="M40.2119 19.5843
L21.2119 19.5843
" />
<path d="M21.2119 38.5843
L40.2119 38.5843
" />
<path d="M21.2119 38.5843
L21.2119 19.5843
" />
<path d="M21.2119 38.5843
L21.2119 19.5843
" />
<path d="M21.2119 38.5843
L21.2119 19.5843
" />
<path d="M21.2119 19.5843
L40.2119 19.5843
" />
<path d="M21.2119 19.5843
L40.2119 19.5843
" />
<path d="M21.2119 19.5843
L40.2119 19.5843
" />
<path d="M21.2119 19.5843
L21.2119 38.5843
" />
<path d="M173.7506 38.5843
L173.7506 19.5843
" />
<path d="M173.7506 38.5843
L154.7506 38.5843
" />
<path d="M173.7506 38.5843
L154.7506 38.5843
" />
<path d="M173.7506 38.5843
L154.7506 38.5843
" />
<path d="M173.7506 19.5843
L173.7506 38.5843
" />
<path d="M173.7506 19.5843
L173.7506 38.5843
" />
<path d="M173.7506 19.5843
L173.7506 38.5843
" />
<path d="M173.7506 19.5843
L154.7506 19.5843
" />
<path d="M154.7506 38.5843
L173.7506 38.5843
" />
<path d="M154.7506 38.5843
L154.7506 19.5843
" />
<path d="M154.7506 38.5843
L154.7506 19.5843
" />
<path d="M154.7506 38.5843
L154.7506 19.5843
" />
<path d="M154.7506 19.5843
L173.7506 19.5843
" />
<path d="M154.7506 19.5843
L173.7506 19.5843
" />
<path d="M154.7506 19.5843
L173.7506 19.5843
" />
<path d="M154.7506 19.5843
L154.7506 38.5843
" />
<path d="M21.1833 76.7663
L21.1833 57.7663
" />
<path d="M21.1833 76.7663
L2.1833 76.7663
" />
<path d="M21.1833 76.7663
L2.1833 76.7663
" />
<path d="M21.1833 76.7663
L2.1833 76.7663
" />
<path d="M21.1833 57.7663
L21.1833 76.7663
" />
<path d="M21.1833 57.7663
L21.1833 76.7663
" />
<path d="M21.1833 57.7663
L21.1833 76.7663
" />
<path d="M21.1833 57.7663
L2.1833 57.7663
" />
<path d="M2.1833 76.7663
L21.1833 76.7663
" />
<path d="M2.1833 76.7663
L2.1833 57.7663
" />
<path d="M2.1833 76.7663
L2.1833 57.7663
" />
<path d="M2.1833 76.7663
L2.1833 57.7663
" />
<path d="M2.1833 57.7663
L21.1833 57.7663
" />
<path d="M2.1833 57.7663
L21.1833 57.7663
" />
<path d="M2.1833 57.7663
L21.1833 57.7663
" />
<path d="M2.1833 57.7663
L2.1833 76.7663
" />
<path d="M97.3446 38.5810
L97.3446 19.5810
" />
<path d="M97.3446 38.5810
L78.3446 38.5810
" />
<path d="M97.3446 38.5810
L78.3446 38.5810
" />
<path d="M97.3446 38.5810
L78.3446 38.5810
" />
<path d="M97.3446 19.5810
L97.3446 38.5810
" />
<path d="M97.3446 19.5810
L97.3446 38.5810
" />
<path d="M97.3446 19.5810
L97.3446 38.5810
" />
<path d="M97.3446 19.5810
L78.3446 19.5810
" />
<path d="M78.3446 38.5810
L97.3446 38.5810
" />
<path d="M78.3446 38.5810
L78.3446 19.5810
" />
<path d="M78.3446 38.5810
L78.3446 19.5810
" />
<path d="M78.3446 38.5810
L78.3446 19.5810
" />
<path d="M78.3446 19.5810
L97.3446 19.5810
" />
<path d="M78.3446 19.5810
L97.3446 19.5810
" />
<path d="M78.3446 19.5810
L97.3446 19.5810
" />
<path d="M78.3446 19.5810
L78.3446 38.5810
" />
<path d="M116.4506 107.3003
L116.4506 88.3003
" />
<path d="M116.4506 107.3003
L97.4506 107.3003
" />
<path d="M116.4506 107.3003
L97.4506 107.3003
" />
<path d="M116.4506 107.3003
L97.4506 107.3003
" />
<path d="M116.4506 88.3003
L116.4506 107.3003
" />
<path d="M116.4506 88.3003
L116.4506 107.3003
" />
<path d="M116.4506 88.3003
L116.4506 107.3003
" />
<path d="M116.4506 88.3003
L97.4506 88.3003
" />
<path d="M97.4506 107.3003
L116.4506 107.3003
" />
<path d="M97.4506 107.3003
L97.4506 88.3003
" />
<path d="M97.4506 107.3003
L97.4506 88.3003
" />
<path d="M97.4506 107.3003
L97.4506 88.3003
" />
<path d="M97.4506 88.3003
L116.4506 88.3003
" />
<path d="M97.4506 88.3003
L116.4506 88.3003
" />
<path d="M97.4506 88.3003
L116.4506 88.3003
" />
<path d="M97.4506 88.3003
L97.4506 107.3003
" />
<path d="M21.1833 57.6683
L21.1833 38.6683
" />
<path d="M21.1833 57.6683
L2.1833 57.6683
" />
<path d="M21.1833 57.6683
L2.1833 57.6683
" />
<path d="M21.1833 57.6683
L2.1833 57.6683
" />
<path d="M21.1833 38.6683
L21.1833 57.6683
" />
<path d="M21.1833 38.6683
L21.1833 57.6683
" />
<path d="M21.1833 38.6683
L21.1833 57.6683
" />
<path d="M21.1833 38.6683
L2.1833 38.6683
" />
<path d="M2.1833 57.6683
L21.1833 57.6683
" />
<path d="M2.1833 57.6683
L2.1833 38.6683
" />
<path d="M2.1833 57.6683
L2.1833 38.6683
" />
<path d="M2.1833 57.6683
L2.1833 38.6683
" />
<path d="M2.1833 38.6683
L21.1833 38.6683
" />
<path d="M2.1833 38.6683
L21.1833 38.6683
" />
<path d="M2.1833 38.6683
L21.1833 38.6683
" />
<path d="M2.1833 38.6683
L2.1833 57.6683
" />
<path d="M135.5146 107.3003
L135.5146 88.3003
" />
<path d="M135.5146 107.3003
L116.5146 107.3003
" />
<path d="M135.5146 107.3003
L116.5146 107.3003
" />
<path d="M135.5146 107.3003
L116.5146 107.3003
" />
<path d="M135.5146 88.3003
L135.5146 107.3003
" />
<path d="M135.5146 88.3003
L135.5146 107.3003
" />
<path d="M135.5146 88.3003
L135.5146 107.3003
" />
<path d="M135.5146 88.3003
L116.5146 88.3003
" />
<path d="M116.5146 107.3003
L135.5146 107.3003
" />
<path d="M116.5146 107.3003
L116.5146 88.3003
" />
<path d="M116.5146 107.3003
L116.5146 88.3003
" />
<path d="M116.5146 107.3003
L116.5146 88.3003
" />
<path d="M116.5146 88.3003
L135.5146 88.3003
" />
<path d="M116.5146 88.3003
L135.5146 88.3003
" />
<path d="M116.5146 88.3003
L135.5146 88.3003
" />
<path d="M116.5146 88.3003
L116.5146 107.3003
" />
<path d="M173.7506 100.8883
L173.7506 81.8883
" />
<path d="M173.7506 100.8883
L154.7506 100.8883
" />
<path d="M173.7506 100.8883
L154.7506 100.8883
" />
<path d="M173.7506 100.8883
L154.7506 100.8883
" />
<path d="M173.7506 81.8883
L173.7506 100.8883
" />
<path d="M173.7506 81.8883
L173.7506 100.8883
" />
<path d="M173.7506 81.8883
L173.7506 100.8883
" />
<path d="M173.7506 81.8883
L154.7506 81.8883
" />
<path d="M154.7506 100.8883
L173.7506 100.8883
" />
<path d="M154.7506 100.8883
L154.7506 81.8883
" />
<path d="M154.7506 100.8883
L154.7506 81.8883
" />
<path d="M154.7506 100.8883
L154.7506 81.8883
" />
<path d="M154.7506 81.8883
L173.7506 81.8883
" />
<path d="M154.7506 81.8883
L173.7506 81.8883
" />
<path d="M154.7506 81.8883
L173.7506 81.8883
" />
<path d="M154.7506 81.8883
L154.7506 100.8883
" />
<path d="M21.1833 100.8883
L21.1833 81.8883
" />
<path d="M21.1833 100.8883
L2.1833 100.8883
" />
<path d="M21.1833 100.8883
L2.1833 100.8883
" />
<path d="M21.1833 100.8883
L2.1833 100.8883
" />
<path d="M21.1833 81.8883
L21.1833 100.8883
" />
<path d="M21.1833 81.8883
L21.1833 100.8883
" />
<path d="M21.1833 81.8883
L21.1833 100.8883
" />
<path d="M21.1833 81.8883
L2.1833 81.8883
" />
<path d="M2.1833 100.8883
L21.1833 100.8883
" />
<path d="M2.1833 100.8883
L2.1833 81.8883
" />
<path d="M2.1833 100.8883
L2.1833 81.8883
" />
<path d="M2.1833 100.8883
L2.1833 81.8883
" />
<path d="M2.1833 81.8883
L21.1833 81.8883
" />
<path d="M2.1833 81.8883
L21.1833 81.8883
" />
<path d="M2.1833 81.8883
L21.1833 81.8883
" />
<path d="M2.1833 81.8883
L2.1833 100.8883
" />
<path d="M192.7289 38.5843
L192.7289 19.5843
" />
<path d="M192.7289 38.5843
L173.7289 38.5843
" />
<path d="M192.7289 38.5843
L173.7289 38.5843
" />
<path d="M192.7289 38.5843
L173.7289 38.5843
" />
<path d="M192.7289 19.5843
L192.7289 38.5843
" />
<path d="M192.7289 19.5843
L192.7289 38.5843
" />
<path d="M192.7289 19.5843
L192.7289 38.5843
" />
<path d="M192.7289 19.5843
L173.7289 19.5843
" />
<path d="M173.7289 38.5843
L192.7289 38.5843
" />
<path d="M173.7289 38.5843
L173.7289 19.5843
" />
<path d="M173.7289 38.5843
L173.7289 19.5843
" />
<path d="M173.7289 38.5843
L173.7289 19.5843
" />
<path d="M173.7289 19.5843
L192.7289 19.5843
" />
<path d="M173.7289 19.5843
L192.7289 19.5843
" />
<path d="M173.7289 19.5843
L192.7289 19.5843
" />
<path d="M173.7289 19.5843
L173.7289 38.5843
" />
<path d="M40.2119 76.7663
L40.2119 57.7663
" />
<path d="M40.2119 76.7663
L21.2119 76.7663
" />
<path d="M40.2119 76.7663
L21.2119 76.7663
" />
<path d="M40.2119 76.7663
L21.2119 76.7663
" />
<path d="M40.2119 57.7663
L40.2119 76.7663
" />
<path d="M40.2119 57.7663
L40.2119 76.7663
" />
<path d="M40.2119 57.7663
L40.2119 76.7663
" />
<path d="M40.2119 57.7663
L21.2119 57.7663
" />
<path d="M21.2119 76.7663
L40.2119 76.7663
" />
<path d="M21.2119 76.7663
L21.2119 57.7663
" />
<path d="M21.2119 76.7663
L21.2119 57.7663
" />
<path d="M21.2119 76.7663
L21.2119 57.7663
" />
<path d="M21.2119 57.7663
L40.2119 57.7663
" />
<path d="M21.2119 57.7663
L40.2119 57.7663
" />
<path d="M21.2119 57.7663
L40.2119 57.7663
" />
<path d="M21.2119 57.7663
L21.2119 76.7663
" />
<path d="M249.7549 38.5843
L249.7549 19.5843
" />
<path d="M249.7549 38.5843
L230.7549 38.5843
" />
<path d="M249.7549 38.5843
L230.7549 38.5843
" />
<path d="M249.7549 38.5843
L230.7549 38.5843
" />
<path d="M249.7549 19.5843
L249.7549 38.5843
" />
<path d="M249.7549 19.5843
L249.7549 38.5843
" />
<path d="M249.7549 19.5843
L249.7549 38.5843
" />
<path d="M249.7549 19.5843
L230.7549 19.5843
" />
<path d="M230.7549 38.5843
L249.7549 38.5843
" />
<path d="M230.7549 38.5843
L230.7549 19.5843
" />
<path d="M230.7549 38.5843
L230.7549 19.5843
" />
<path d="M230.7549 38.5843
L230.7549 19.5843
" />
<path d="M230.7549 19.5843
L249.7549 19.5843
" />
<path d="M230.7549 19.5843
L249.7549 19.5843
" />
<path d="M230.7549 19.5843
L249.7549 19.5843
" />
<path d="M230.7549 19.5843
L230.7549 38.5843
" />
<path d="M97.3446 76.7630
L97.3446 57.7630
" />
<path d="M97.3446 76.7630
L78.3446 76.7630
" />
<path d="M97.3446 76.7630
L78.3446 76.7630
" />
<path d="M97.3446 76.7630
L78.3446 76.7630
" />
<path d="M97.3446 57.7630
L97.3446 76.7630
" />
<path d="M97.3446 57.7630
L97.3446 76.7630
" />
<path d="M97.3446 57.7630
L97.3446 76.7630
" />
<path d="M97.3446 57.7630
L78.3446 57.7630
" />
<path d="M78.3446 76.7630
L97.3446 76.7630
" />
<path d="M78.3446 76.7630
L78.3446 57.7630
" />
<path d="M78.3446 76.7630
L78.3446 57.7630
" />
<path d="M78.3446 76.7630
L78.3446 57.7630
" />
<path d="M78.3446 57.7630
L97.3446 57.7630
" />
<path d="M78.3446 57.7630
L97.3446 57.7630
" />
<path d="M78.3446 57.7630
L97.3446 57.7630
" />
<path d="M78.3446 57.7630
L78.3446 76.7630
" />
<path d="M230.7463 76.7663
L230.7463 57.7663
" />
<path d="M230.7463 76.7663
L211.7463 76.7663
" />
<path d="M230.7463 76.7663
L211.7463 76.7663
" />
<path d="M230.7463 76.7663
L211.7463 76.7663
" />
<path d="M230.7463 57.7663
L230.7463 76.7663
" />
<path d="M230.7463 57.7663
L230.7463 76.7663
" />
<path d="M230.7463 57.7663
L230.7463 76.7663
" />
<path d="M230.7463 57.7663
L211.7463 57.7663
" />
<path d="M211.7463 76.7663
L230.7463 76.7663
" />
<path d="M211.7463 76.7663
L211.7463 57.7663
" />
<path d="M211.7463 76.7663
L211.7463 57.7663
" />
<path d="M211.7463 76.7663
L211.7463 57.7663
" />
<path d="M211.7463 57.7663
L230.7463 57.7663
" />
<path d="M211.7463 57.7663
L230.7463 57.7663
" />
<path d="M211.7463 57.7663
L230.7463 57.7663
" />
<path d="M211.7463 57.7663
L211.7463 76.7663
" />
<g >
</g>
<g >
</g>
<g >
</g>
<g >
</g>
<g >
</g>
<g >
</g>
<g >
</g>
<g >
</g>
<g >
</g>
<g >
</g>
<g >
</g>
<g >
</g>
<g >
</g>
<g >
</g>
<g >
</g>
<g >
</g>
<g >
</g>
<g >
</g>
<g >
</g>
<g >
</g>
<g >
</g>
<g >
</g>
<g >
</g>
<g >
</g>
<g >
</g>
<g >
</g>
<g >
</g>
<g >
</g>
<g >
</g>
<g >
</g>
<g >
</g>
<g >
</g>
<g >
</g>
<g >
</g>
<g >
</g>
<g >
</g>
<g >
</g>
<g >
</g>
<g >
</g>
<g >
</g>
<g >
</g>
<g >
</g>
<g >
</g>
<g >
</g>
<g >
</g>
<g >
</g>
<g >
</g>
<g >
</g>
<g >
</g>
<g >
</g>
</g>
<g style="fill:#000000; fill-opacity:0.0; 
stroke:#000000; stroke-width:0.1500; stroke-opacity:1; 
stroke-linecap:round; stroke-linejoin:round;">
</g>
<g style="fill:#D0D2CD; fill-opacity:0.0; 
stroke:#D0D2CD; stroke-width:0.1500; stroke-opacity:1; 
stroke-linecap:round; stroke-linejoin:round;">
</g>
<g style="fill:#D0D2CD; fill-opacity:0.0; 
stroke:#D0D2CD; stroke-width:0.0500; stroke-opacity:1; 
stroke-linecap:round; stroke-linejoin:round;">
<path d="M34.8550 19.5830
L0.0570 19.5830
" />
<path d="M34.8550 0.0250
L34.8550 19.5830
" />
<circle cx="88.0962" cy="8.2097" r="5.0122" /> 
<circle cx="164.5017" cy="8.2129" r="5.0351" /> 
<path d="M159.5690 102.3870
L251.2950 102.3870
" />
<path d="M96.4990 106.4430
L96.5070 108.7370
" />
<path d="M155.5050 108.7370
L155.5130 106.4430
" />
<path d="M96.4990 106.4430 A4.0560 4.0560 0.0 0 0 92.4430 102.3870" />
<path d="M92.4430 102.3870
L0.0250 102.3870
" />
<path d="M96.5070 108.7370
L155.5050 108.7370
" />
<path d="M251.2950 102.3870
L251.2950 0.0250
" />
<path d="M159.5690 102.3870 A4.0560 4.0560 0.0 0 0 155.5130 106.4430" />
<path d="M0.0250 0.0250
L251.2950 0.0250
" />
<path d="M0.0250 102.3870
L0.0250 0.0250
" />
<path d="M157.1410 74.3750
L171.3650 74.3750
" />
<path d="M171.3650 74.3750
L171.3650 60.1510
" />
<path d="M171.3650 60.1510
L157.1410 60.1510
" />
<path d="M157.1410 60.1510
L157.1410 74.3750
" />
<path d="M157.1410 55.2770
L171.3650 55.2770
" />
<path d="M171.3650 55.2770
L171.3650 41.0530
" />
<path d="M171.3650 41.0530
L157.1410 41.0530
" />
<path d="M157.1410 41.0530
L157.1410 55.2770
" />
<path d="M61.6597 74.3750
L75.8837 74.3750
" />
<path d="M75.8837 74.3750
L75.8837 60.1510
" />
<path d="M75.8837 60.1510
L61.6597 60.1510
" />
<path d="M61.6597 60.1510
L61.6597 74.3750
" />
<path d="M195.1280 55.2770
L209.3520 55.2770
" />
<path d="M209.3520 55.2770
L209.3520 41.0530
" />
<path d="M209.3520 41.0530
L195.1280 41.0530
" />
<path d="M195.1280 41.0530
L195.1280 55.2770
" />
<path d="M176.1193 98.4970
L190.3433 98.4970
" />
<path d="M190.3433 98.4970
L190.3433 84.2730
" />
<path d="M190.3433 84.2730
L176.1193 84.2730
" />
<path d="M176.1193 84.2730
L176.1193 98.4970
" />
<path d="M42.6310 55.2770
L56.8550 55.2770
" />
<path d="M56.8550 55.2770
L56.8550 41.0530
" />
<path d="M56.8550 41.0530
L42.6310 41.0530
" />
<path d="M42.6310 41.0530
L42.6310 55.2770
" />
<path d="M23.6023 55.2770
L37.8263 55.2770
" />
<path d="M37.8263 55.2770
L37.8263 41.0530
" />
<path d="M37.8263 41.0530
L23.6023 41.0530
" />
<path d="M23.6023 41.0530
L23.6023 55.2770
" />
<path d="M195.1280 74.3750
L209.3520 74.3750
" />
<path d="M209.3520 74.3750
L209.3520 60.1510
" />
<path d="M209.3520 60.1510
L195.1280 60.1510
" />
<path d="M195.1280 60.1510
L195.1280 74.3750
" />
<path d="M137.9490 104.9090
L152.1730 104.9090
" />
<path d="M152.1730 104.9090
L152.1730 90.6850
" />
<path d="M152.1730 90.6850
L137.9490 90.6850
" />
<path d="M137.9490 90.6850
L137.9490 104.9090
" />
<path d="M42.6310 36.1930
L56.8550 36.1930
" />
<path d="M56.8550 36.1930
L56.8550 21.9690
" />
<path d="M56.8550 21.9690
L42.6310 21.9690
" />
<path d="M42.6310 21.9690
L42.6310 36.1930
" />
<path d="M233.1453 74.3750
L247.3693 74.3750
" />
<path d="M247.3693 74.3750
L247.3693 60.1510
" />
<path d="M247.3693 60.1510
L233.1453 60.1510
" />
<path d="M233.1453 60.1510
L233.1453 74.3750
" />
<path d="M80.7350 98.4937
L94.9590 98.4937
" />
<path d="M94.9590 98.4937
L94.9590 84.2697
" />
<path d="M94.9590 84.2697
L80.7350 84.2697
" />
<path d="M80.7350 84.2697
L80.7350 98.4937
" />
<path d="M4.5737 36.1930
L18.7977 36.1930
" />
<path d="M18.7977 36.1930
L18.7977 21.9690
" />
<path d="M18.7977 21.9690
L4.5737 21.9690
" />
<path d="M4.5737 21.9690
L4.5737 36.1930
" />
<path d="M233.1453 55.2770
L247.3693 55.2770
" />
<path d="M247.3693 55.2770
L247.3693 41.0530
" />
<path d="M247.3693 41.0530
L233.1453 41.0530
" />
<path d="M233.1453 41.0530
L233.1453 55.2770
" />
<path d="M195.1280 98.4970
L209.3520 98.4970
" />
<path d="M209.3520 98.4970
L209.3520 84.2730
" />
<path d="M209.3520 84.2730
L195.1280 84.2730
" />
<path d="M195.1280 84.2730
L195.1280 98.4970
" />
<path d="M176.1193 74.3750
L190.3433 74.3750
" />
<path d="M190.3433 74.3750
L190.3433 60.1510
" />
<path d="M190.3433 60.1510
L176.1193 60.1510
" />
<path d="M176.1193 60.1510
L176.1193 74.3750
" />
<path d="M23.6023 98.4970
L37.8263 98.4970
" />
<path d="M37.8263 98.4970
L37.8263 84.2730
" />
<path d="M37.8263 84.2730
L23.6023 84.2730
" />
<path d="M23.6023 84.2730
L23.6023 98.4970
" />
<path d="M233.1453 98.4970
L247.3693 98.4970
" />
<path d="M247.3693 98.4970
L247.3693 84.2730
" />
<path d="M247.3693 84.2730
L233.1453 84.2730
" />
<path d="M233.1453 84.2730
L233.1453 98.4970
" />
<path d="M214.1367 55.2770
L228.3607 55.2770
" />
<path d="M228.3607 55.2770
L228.3607 41.0530
" />
<path d="M228.3607 41.0530
L214.1367 41.0530
" />
<path d="M214.1367 41.0530
L214.1367 55.2770
" />
<path d="M42.6310 98.4970
L56.8550 98.4970
" />
<path d="M56.8550 98.4970
L56.8550 84.2730
" />
<path d="M56.8550 84.2730
L42.6310 84.2730
" />
<path d="M42.6310 84.2730
L42.6310 98.4970
" />
<path d="M214.1367 98.4970
L228.3607 98.4970
" />
<path d="M228.3607 98.4970
L228.3607 84.2730
" />
<path d="M228.3607 84.2730
L214.1367 84.2730
" />
<path d="M214.1367 84.2730
L214.1367 98.4970
" />
<path d="M42.6310 74.3750
L56.8550 74.3750
" />
<path d="M56.8550 74.3750
L56.8550 60.1510
" />
<path d="M56.8550 60.1510
L42.6310 60.1510
" />
<path d="M42.6310 60.1510
L42.6310 74.3750
" />
<path d="M61.6597 36.1930
L75.8837 36.1930
" />
<path d="M75.8837 36.1930
L75.8837 21.9690
" />
<path d="M75.8837 21.9690
L61.6597 21.9690
" />
<path d="M61.6597 21.9690
L61.6597 36.1930
" />
<path d="M61.6597 98.4970
L75.8837 98.4970
" />
<path d="M75.8837 98.4970
L75.8837 84.2730
" />
<path d="M75.8837 84.2730
L61.6597 84.2730
" />
<path d="M61.6597 84.2730
L61.6597 98.4970
" />
<path d="M195.1280 36.1930
L209.3520 36.1930
" />
<path d="M209.3520 36.1930
L209.3520 21.9690
" />
<path d="M209.3520 21.9690
L195.1280 21.9690
" />
<path d="M195.1280 21.9690
L195.1280 36.1930
" />
<path d="M176.1193 55.2770
L190.3433 55.2770
" />
<path d="M190.3433 55.2770
L190.3433 41.0530
" />
<path d="M190.3433 41.0530
L176.1193 41.0530
" />
<path d="M176.1193 41.0530
L176.1193 55.2770
" />
<path d="M80.7350 55.2737
L94.9590 55.2737
" />
<path d="M94.9590 55.2737
L94.9590 41.0497
" />
<path d="M94.9590 41.0497
L80.7350 41.0497
" />
<path d="M80.7350 41.0497
L80.7350 55.2737
" />
<path d="M214.1367 36.1930
L228.3607 36.1930
" />
<path d="M228.3607 36.1930
L228.3607 21.9690
" />
<path d="M228.3607 21.9690
L214.1367 21.9690
" />
<path d="M214.1367 21.9690
L214.1367 36.1930
" />
<path d="M61.6597 55.2770
L75.8837 55.2770
" />
<path d="M75.8837 55.2770
L75.8837 41.0530
" />
<path d="M75.8837 41.0530
L61.6597 41.0530
" />
<path d="M61.6597 41.0530
L61.6597 55.2770
" />
<path d="M23.6023 36.1930
L37.8263 36.1930
" />
<path d="M37.8263 36.1930
L37.8263 21.9690
" />
<path d="M37.8263 21.9690
L23.6023 21.9690
" />
<path d="M23.6023 21.9690
L23.6023 36.1930
" />
<path d="M157.1410 36.1930
L171.3650 36.1930
" />
<path d="M171.3650 36.1930
L171.3650 21.9690
" />
<path d="M171.3650 21.9690
L157.1410 21.9690
" />
<path d="M157.1410 21.9690
L157.1410 36.1930
" />
<path d="M4.5737 74.3750
L18.7977 74.3750
" />
<path d="M18.7977 74.3750
L18.7977 60.1510
" />
<path d="M18.7977 60.1510
L4.5737 60.1510
" />
<path d="M4.5737 60.1510
L4.5737 74.3750
" />
<path d="M80.7350 36.1897
L94.9590 36.1897
" />
<path d="M94.9590 36.1897
L94.9590 21.9657
" />
<path d="M94.9590 21.9657
L80.7350 21.9657
" />
<path d="M80.7350 21.9657
L80.7350 36.1897
" />
<path d="M99.8410 104.9090
L114.0650 104.9090
" />
<path d="M114.0650 104.9090
L114.0650 90.6850
" />
<path d="M114.0650 90.6850
L99.8410 90.6850
" />
<path d="M99.8410 90.6850
L99.8410 104.9090
" />
<path d="M4.5737 55.2770
L18.7977 55.2770
" />
<path d="M18.7977 55.2770
L18.7977 41.0530
" />
<path d="M18.7977 41.0530
L4.5737 41.0530
" />
<path d="M4.5737 41.0530
L4.5737 55.2770
" />
<path d="M118.9050 104.9090
L133.1290 104.9090
" />
<path d="M133.1290 104.9090
L133.1290 90.6850
" />
<path d="M133.1290 90.6850
L118.9050 90.6850
" />
<path d="M118.9050 90.6850
L118.9050 104.9090
" />
<path d="M157.1410 98.4970
L171.3650 98.4970
" />
<path d="M171.3650 98.4970
L171.3650 84.2730
" />
<path d="M171.3650 84.2730
L157.1410 84.2730
" />
<path d="M157.1410 84.2730
L157.1410 98.4970
" />
<path d="M4.5737 98.4970
L18.7977 98.4970
" />
<path d="M18.7977 98.4970
L18.7977 84.2730
" />
<path d="M18.7977 84.2730
L4.5737 84.2730
" />
<path d="M4.5737 84.2730
L4.5737 98.4970
" />
<path d="M176.1193 36.1930
L190.3433 36.1930
" />
<path d="M190.3433 36.1930
L190.3433 21.9690
" />
<path d="M190.3433 21.9690
L176.1193 21.9690
" />
<path d="M176.1193 21.9690
L176.1193 36.1930
" />
<path d="M23.6023 74.3750
L37.8263 74.3750
" />
<path d="M37.8263 74.3750
L37.8263 60.1510
" />
<path d="M37.8263 60.1510
L23.6023 60.1510
" />
<path d="M23.6023 60.1510
L23.6023 74.3750
" />
<path d="M233.1453 36.1930
L247.3693 36.1930
" />
<path d="M247.3693 36.1930
L247.3693 21.9690
" />
<path d="M247.3693 21.9690
L233.1453 21.9690
" />
<path d="M233.1453 21.9690
L233.1453 36.1930
" />
<path d="M80.7350 74.3717
L94.9590 74.3717
" />
<path d="M94.9590 74.3717
L94.9590 60.1477
" />
<path d="M94.9590 60.1477
L80.7350 60.1477
" />
<path d="M80.7350 60.1477
L80.7350 74.3717
" />
<path d="M214.1367 74.3750
L228.3607 74.3750
" />
<path d="M228.3607 74.3750
L228.3607 60.1510
" />
<path d="M228.3607 60.1510
L214.1367 60.1510
" />
<path d="M214.1367 60.1510
L214.1367 74.3750
" />
<g >
</g>
<g >
</g>
<g >
</g>
<g >
</g>
<g >
</g>
<g >
</g>
<g >
</g>
<g >
</g>
<g >
</g>
<g >
</g>
<g >
</g>
<g >
</g>
<g >
</g>
<g >
</g>
<g >
</g>
<g >
</g>
<g >
</g>
<g >
</g>
<g >
</g>
<g >
</g>
<g >
</g>
<g >
</g>
<g >
</g>
<g >
</g>
<g >
</g>
<g >
</g>
<g >
</g>
<g >
</g>
<g >
</g>
<g >
</g>
<g >
</g>
<g >
</g>
<g >
</g>
<g >
</g>
<g >
</g>
<g >
</g>
<g >
</g>
<g >
</g>
<g >
</g>
<g >
</g>
<g >
</g>
<g >
</g>
<g >
</g>
<g >
</g>
<g >
</g>
<g >
</g>
<g >
</g>
<g >
</g>
<g >
</g>
<g >
</g>
</g> 
</svg>
