  0
SECTION
  2
HEADER
  9
$ANGBASE
  50
0.0
  9
$ANGDIR
  70
1
  9
$MEASUREMENT
  70
1
  0
ENDSEC
  0
SECTION
  2
TABLES
  0
TABLE
  2
LTYPE
  70
4
  0
LTYPE
  5
40F
  2
CONTINUOUS
  70
0
  3
Solid line
  72
65
  73
0
  40
0.0
  0
LTYPE
  5
410
  2
DASHDOT
 70
0
  3
Dash Dot ____ _ ____ _
 72
65
 73
4
 40
2.0
 49
1.25
 49
-0.25
 49
0.25
 49
-0.25
  0
LTYPE
  5
411
  2
DASHED
 70
0
  3
Dashed __ __ __ __ __
 72
65
 73
2
 40
0.75
 49
0.5
 49
-0.25
  0
LTYPE
  5
43B
  2
DOTTED
 70
0
  3
Dotted .  .  .  .
 72
65
 73
2
 40
0.2
 49
0.0
 49
-0.2
  0
ENDTAB
  0
TABLE
  2
STYLE
  70
4
  0
STYLE
  2
KICAD
  70
0
  40
0
  41
1
  42
1
  50
0
  71
0
  3
isocp.shx
  0
STYLE
  2
KICADB
  70
0
  40
0
  41
1
  42
1
  50
0
  71
0
  3
isocp.shx
  0
STYLE
  2
KICADI
  70
0
  40
0
  41
1
  42
1
  50
15
  71
0
  3
isocp.shx
  0
STYLE
  2
KICADBI
  70
0
  40
0
  41
1
  42
1
  50
15
  71
0
  3
isocp.shx
  0
ENDTAB
  0
TABLE
  2
LAYER
  70
1
  0
LAYER
  2
BLACK
  70
0
  62
7
  6
CONTINUOUS
  0
ENDTAB
  0
ENDSEC
  0
SECTION
  2
ENTITIES
0
LINE
8
BLACK
6
CONTINUOUS
10
56.927
20
-28.8637
11
57.0405
21
-28.8999
0
LINE
8
BLACK
6
CONTINUOUS
10
57.0405
20
-28.8999
11
57.0407
21
-28.8999
0
LINE
8
BLACK
6
CONTINUOUS
10
57.0407
20
-28.8999
11
57.0411
21
-28.9001
0
LINE
8
BLACK
6
CONTINUOUS
10
57.0411
20
-28.9001
11
57.0415
21
-28.9003
0
LINE
8
BLACK
6
CONTINUOUS
10
57.0415
20
-28.9003
11
57.0415
21
-28.9003
0
LINE
8
BLACK
6
CONTINUOUS
10
57.0415
20
-28.9003
11
78.2214
21
-37.4869
0
LINE
8
BLACK
6
CONTINUOUS
10
78.2214
20
-37.4869
11
78.2252
21
-37.4907
0
LINE
8
BLACK
6
CONTINUOUS
10
78.2252
20
-37.4907
11
78.3223
21
-37.5091
0
LINE
8
BLACK
6
CONTINUOUS
10
78.3223
20
-37.5091
11
78.4276
21
-37.5028
0
LINE
8
BLACK
6
CONTINUOUS
10
78.4276
20
-37.5028
11
78.5281
21
-37.4708
0
LINE
8
BLACK
6
CONTINUOUS
10
78.5281
20
-37.4708
11
78.6177
21
-37.4152
0
LINE
8
BLACK
6
CONTINUOUS
10
78.6177
20
-37.4152
11
78.691
21
-37.3393
0
LINE
8
BLACK
6
CONTINUOUS
10
78.691
20
-37.3393
11
78.7403
21
-37.2532
0
LINE
8
BLACK
6
CONTINUOUS
10
78.7403
20
-37.2532
11
78.7403
21
-37.2464
0
LINE
8
BLACK
6
CONTINUOUS
10
78.7403
20
-37.2464
11
78.7412
21
-37.2456
0
LINE
8
BLACK
6
CONTINUOUS
10
78.7412
20
-37.2456
11
78.7413
21
-37.2443
0
LINE
8
BLACK
6
CONTINUOUS
10
78.7413
20
-37.2443
11
80.7733
21
-33.4343
0
LINE
8
BLACK
6
CONTINUOUS
10
80.7733
20
-33.4343
11
80.7735
21
-33.4341
0
LINE
8
BLACK
6
CONTINUOUS
10
80.7735
20
-33.4341
11
80.8296
21
-33.3444
0
LINE
8
BLACK
6
CONTINUOUS
10
80.8296
20
-33.3444
11
80.9048
21
-33.2681
0
LINE
8
BLACK
6
CONTINUOUS
10
80.9048
20
-33.2681
11
80.9948
21
-33.21
0
LINE
8
BLACK
6
CONTINUOUS
10
80.9948
20
-33.21
11
81.0953
21
-33.1729
0
LINE
8
BLACK
6
CONTINUOUS
10
81.0953
20
-33.1729
11
81.2014
21
-33.1585
0
LINE
8
BLACK
6
CONTINUOUS
10
81.2014
20
-33.1585
11
81.3081
21
-33.1676
0
LINE
8
BLACK
6
CONTINUOUS
10
81.3081
20
-33.1676
11
81.3082
21
-33.1675
0
LINE
8
BLACK
6
CONTINUOUS
10
81.3082
20
-33.1675
11
81.3111
21
-33.1695
0
LINE
8
BLACK
6
CONTINUOUS
10
81.3111
20
-33.1695
11
81.3147
21
-33.1698
0
LINE
8
BLACK
6
CONTINUOUS
10
81.3147
20
-33.1698
11
107.731
21
-46.6318
0
LINE
8
BLACK
6
CONTINUOUS
10
107.731
20
-46.6318
11
107.734
21
-46.6352
0
LINE
8
BLACK
6
CONTINUOUS
10
107.734
20
-46.6352
11
107.901
21
-46.6657
0
LINE
8
BLACK
6
CONTINUOUS
10
107.901
20
-46.6657
11
108.079
21
-46.6676
0
LINE
8
BLACK
6
CONTINUOUS
10
108.079
20
-46.6676
11
108.255
21
-46.6391
0
LINE
8
BLACK
6
CONTINUOUS
10
108.255
20
-46.6391
11
108.424
21
-46.5813
0
LINE
8
BLACK
6
CONTINUOUS
10
108.424
20
-46.5813
11
108.581
21
-46.4956
0
LINE
8
BLACK
6
CONTINUOUS
10
108.581
20
-46.4956
11
108.714
21
-46.3901
0
LINE
8
BLACK
6
CONTINUOUS
10
108.714
20
-46.3901
11
108.715
21
-46.3857
0
LINE
8
BLACK
6
CONTINUOUS
10
108.715
20
-46.3857
11
116.589
21
-35.1777
0
LINE
8
BLACK
6
CONTINUOUS
10
116.589
20
-35.1777
11
116.589
21
-35.1773
0
LINE
8
BLACK
6
CONTINUOUS
10
116.589
20
-35.1773
11
116.59
21
-35.1767
0
LINE
8
BLACK
6
CONTINUOUS
10
116.59
20
-35.1767
11
116.59
21
-35.1767
0
LINE
8
BLACK
6
CONTINUOUS
10
116.59
20
-35.1767
11
116.792
21
-34.9428
0
LINE
8
BLACK
6
CONTINUOUS
10
116.792
20
-34.9428
11
117.016
21
-34.7303
0
LINE
8
BLACK
6
CONTINUOUS
10
117.016
20
-34.7303
11
117.261
21
-34.5414
0
LINE
8
BLACK
6
CONTINUOUS
10
117.261
20
-34.5414
11
117.524
21
-34.378
0
LINE
8
BLACK
6
CONTINUOUS
10
117.524
20
-34.378
11
117.801
21
-34.2417
0
LINE
8
BLACK
6
CONTINUOUS
10
117.801
20
-34.2417
11
118.091
21
-34.1339
0
LINE
8
BLACK
6
CONTINUOUS
10
118.091
20
-34.1339
11
118.39
21
-34.0557
0
LINE
8
BLACK
6
CONTINUOUS
10
118.39
20
-34.0557
11
118.695
21
-34.0079
0
LINE
8
BLACK
6
CONTINUOUS
10
118.695
20
-34.0079
11
119.004
21
-33.9909
0
LINE
8
BLACK
6
CONTINUOUS
10
119.004
20
-33.9909
11
119.313
21
-34.0049
0
LINE
8
BLACK
6
CONTINUOUS
10
119.313
20
-34.0049
11
119.619
21
-34.0498
0
LINE
8
BLACK
6
CONTINUOUS
10
119.619
20
-34.0498
11
119.919
21
-34.1251
0
LINE
8
BLACK
6
CONTINUOUS
10
119.919
20
-34.1251
11
119.919
21
-34.1252
0
LINE
8
BLACK
6
CONTINUOUS
10
119.919
20
-34.1252
11
119.919
21
-34.1252
0
LINE
8
BLACK
6
CONTINUOUS
10
119.919
20
-34.1252
11
119.92
21
-34.1261
0
LINE
8
BLACK
6
CONTINUOUS
10
119.92
20
-34.1261
11
119.921
21
-34.1262
0
LINE
8
BLACK
6
CONTINUOUS
10
119.921
20
-34.1262
11
119.927
21
-34.1321
0
LINE
8
BLACK
6
CONTINUOUS
10
119.927
20
-34.1321
11
119.931
21
-34.1352
0
LINE
8
BLACK
6
CONTINUOUS
10
119.931
20
-34.1352
11
121.482
21
-34.7864
0
LINE
8
BLACK
6
CONTINUOUS
10
121.482
20
-34.7864
11
123.059
21
-35.4076
0
LINE
8
BLACK
6
CONTINUOUS
10
123.059
20
-35.4076
11
124.649
21
-35.9939
0
LINE
8
BLACK
6
CONTINUOUS
10
124.649
20
-35.9939
11
126.252
21
-36.5449
0
LINE
8
BLACK
6
CONTINUOUS
10
126.252
20
-36.5449
11
127.866
21
-37.0605
0
LINE
8
BLACK
6
CONTINUOUS
10
127.866
20
-37.0605
11
129.492
21
-37.5402
0
LINE
8
BLACK
6
CONTINUOUS
10
129.492
20
-37.5402
11
131.127
21
-37.984
0
LINE
8
BLACK
6
CONTINUOUS
10
131.127
20
-37.984
11
132.772
21
-38.3915
0
LINE
8
BLACK
6
CONTINUOUS
10
132.772
20
-38.3915
11
134.426
21
-38.7627
0
LINE
8
BLACK
6
CONTINUOUS
10
134.426
20
-38.7627
11
136.087
21
-39.0972
0
LINE
8
BLACK
6
CONTINUOUS
10
136.087
20
-39.0972
11
137.756
21
-39.395
0
LINE
8
BLACK
6
CONTINUOUS
10
137.756
20
-39.395
11
139.43
21
-39.6559
0
LINE
8
BLACK
6
CONTINUOUS
10
139.43
20
-39.6559
11
141.11
21
-39.8797
0
LINE
8
BLACK
6
CONTINUOUS
10
141.11
20
-39.8797
11
142.795
21
-40.0664
0
LINE
8
BLACK
6
CONTINUOUS
10
142.795
20
-40.0664
11
144.483
21
-40.2159
0
LINE
8
BLACK
6
CONTINUOUS
10
144.483
20
-40.2159
11
146.174
21
-40.328
0
LINE
8
BLACK
6
CONTINUOUS
10
146.174
20
-40.328
11
147.867
21
-40.4028
0
LINE
8
BLACK
6
CONTINUOUS
10
147.867
20
-40.4028
11
149.561
21
-40.4403
0
LINE
8
BLACK
6
CONTINUOUS
10
149.561
20
-40.4403
11
151.256
21
-40.4403
0
LINE
8
BLACK
6
CONTINUOUS
10
151.256
20
-40.4403
11
152.95
21
-40.4028
0
LINE
8
BLACK
6
CONTINUOUS
10
152.95
20
-40.4028
11
154.643
21
-40.328
0
LINE
8
BLACK
6
CONTINUOUS
10
154.643
20
-40.328
11
156.334
21
-40.2159
0
LINE
8
BLACK
6
CONTINUOUS
10
156.334
20
-40.2159
11
158.023
21
-40.0664
0
LINE
8
BLACK
6
CONTINUOUS
10
158.023
20
-40.0664
11
159.707
21
-39.8797
0
LINE
8
BLACK
6
CONTINUOUS
10
159.707
20
-39.8797
11
161.387
21
-39.6559
0
LINE
8
BLACK
6
CONTINUOUS
10
161.387
20
-39.6559
11
163.062
21
-39.395
0
LINE
8
BLACK
6
CONTINUOUS
10
163.062
20
-39.395
11
164.73
21
-39.0972
0
LINE
8
BLACK
6
CONTINUOUS
10
164.73
20
-39.0972
11
166.391
21
-38.7627
0
LINE
8
BLACK
6
CONTINUOUS
10
166.391
20
-38.7627
11
168.045
21
-38.3915
0
LINE
8
BLACK
6
CONTINUOUS
10
168.045
20
-38.3915
11
169.69
21
-37.984
0
LINE
8
BLACK
6
CONTINUOUS
10
169.69
20
-37.984
11
171.326
21
-37.5402
0
LINE
8
BLACK
6
CONTINUOUS
10
171.326
20
-37.5402
11
172.951
21
-37.0605
0
LINE
8
BLACK
6
CONTINUOUS
10
172.951
20
-37.0605
11
174.565
21
-36.5449
0
LINE
8
BLACK
6
CONTINUOUS
10
174.565
20
-36.5449
11
176.168
21
-35.9939
0
LINE
8
BLACK
6
CONTINUOUS
10
176.168
20
-35.9939
11
177.758
21
-35.4076
0
LINE
8
BLACK
6
CONTINUOUS
10
177.758
20
-35.4076
11
179.335
21
-34.7864
0
LINE
8
BLACK
6
CONTINUOUS
10
179.335
20
-34.7864
11
180.887
21
-34.1351
0
LINE
8
BLACK
6
CONTINUOUS
10
180.887
20
-34.1351
11
180.89
21
-34.1322
0
LINE
8
BLACK
6
CONTINUOUS
10
180.89
20
-34.1322
11
180.896
21
-34.1262
0
LINE
8
BLACK
6
CONTINUOUS
10
180.896
20
-34.1262
11
180.897
21
-34.1261
0
LINE
8
BLACK
6
CONTINUOUS
10
180.897
20
-34.1261
11
180.898
21
-34.1253
0
LINE
8
BLACK
6
CONTINUOUS
10
180.898
20
-34.1253
11
180.898
21
-34.1253
0
LINE
8
BLACK
6
CONTINUOUS
10
180.898
20
-34.1253
11
181.198
21
-34.046
0
LINE
8
BLACK
6
CONTINUOUS
10
181.198
20
-34.046
11
181.504
21
-33.9978
0
LINE
8
BLACK
6
CONTINUOUS
10
181.504
20
-33.9978
11
181.814
21
-33.9812
0
LINE
8
BLACK
6
CONTINUOUS
10
181.814
20
-33.9812
11
182.124
21
-33.9965
0
LINE
8
BLACK
6
CONTINUOUS
10
182.124
20
-33.9965
11
182.43
21
-34.0434
0
LINE
8
BLACK
6
CONTINUOUS
10
182.43
20
-34.0434
11
182.73
21
-34.1215
0
LINE
8
BLACK
6
CONTINUOUS
10
182.73
20
-34.1215
11
183.021
21
-34.23
0
LINE
8
BLACK
6
CONTINUOUS
10
183.021
20
-34.23
11
183.299
21
-34.3676
0
LINE
8
BLACK
6
CONTINUOUS
10
183.299
20
-34.3676
11
183.561
21
-34.533
0
LINE
8
BLACK
6
CONTINUOUS
10
183.561
20
-34.533
11
183.805
21
-34.7245
0
LINE
8
BLACK
6
CONTINUOUS
10
183.805
20
-34.7245
11
184.028
21
-34.9399
0
LINE
8
BLACK
6
CONTINUOUS
10
184.028
20
-34.9399
11
184.228
21
-35.1769
0
LINE
8
BLACK
6
CONTINUOUS
10
184.228
20
-35.1769
11
184.228
21
-35.177
0
LINE
8
BLACK
6
CONTINUOUS
10
184.228
20
-35.177
11
184.228
21
-35.1774
0
LINE
8
BLACK
6
CONTINUOUS
10
184.228
20
-35.1774
11
184.228
21
-35.1777
0
LINE
8
BLACK
6
CONTINUOUS
10
184.228
20
-35.1777
11
192.102
21
-46.3857
0
LINE
8
BLACK
6
CONTINUOUS
10
192.102
20
-46.3857
11
192.103
21
-46.3872
0
LINE
8
BLACK
6
CONTINUOUS
10
192.103
20
-46.3872
11
192.104
21
-46.3881
0
LINE
8
BLACK
6
CONTINUOUS
10
192.104
20
-46.3881
11
192.105
21
-46.3962
0
LINE
8
BLACK
6
CONTINUOUS
10
192.105
20
-46.3962
11
192.194
21
-46.5307
0
LINE
8
BLACK
6
CONTINUOUS
10
192.194
20
-46.5307
11
192.31
21
-46.6532
0
LINE
8
BLACK
6
CONTINUOUS
10
192.31
20
-46.6532
11
192.446
21
-46.7537
0
LINE
8
BLACK
6
CONTINUOUS
10
192.446
20
-46.7537
11
192.597
21
-46.8292
0
LINE
8
BLACK
6
CONTINUOUS
10
192.597
20
-46.8292
11
192.758
21
-46.8775
0
LINE
8
BLACK
6
CONTINUOUS
10
192.758
20
-46.8775
11
192.926
21
-46.8969
0
LINE
8
BLACK
6
CONTINUOUS
10
192.926
20
-46.8969
11
193.085
21
-46.8876
0
LINE
8
BLACK
6
CONTINUOUS
10
193.085
20
-46.8876
11
193.086
21
-46.8858
0
LINE
8
BLACK
6
CONTINUOUS
10
193.086
20
-46.8858
11
219.502
21
-33.4238
0
LINE
8
BLACK
6
CONTINUOUS
10
219.502
20
-33.4238
11
219.506
21
-33.4235
0
LINE
8
BLACK
6
CONTINUOUS
10
219.506
20
-33.4235
11
219.509
21
-33.4215
0
LINE
8
BLACK
6
CONTINUOUS
10
219.509
20
-33.4215
11
219.509
21
-33.4215
0
LINE
8
BLACK
6
CONTINUOUS
10
219.509
20
-33.4215
11
219.616
21
-33.4125
0
LINE
8
BLACK
6
CONTINUOUS
10
219.616
20
-33.4125
11
219.722
21
-33.4269
0
LINE
8
BLACK
6
CONTINUOUS
10
219.722
20
-33.4269
11
219.822
21
-33.464
0
LINE
8
BLACK
6
CONTINUOUS
10
219.822
20
-33.464
11
219.912
21
-33.5221
0
LINE
8
BLACK
6
CONTINUOUS
10
219.912
20
-33.5221
11
219.988
21
-33.5984
0
LINE
8
BLACK
6
CONTINUOUS
10
219.988
20
-33.5984
11
220.044
21
-33.688
0
LINE
8
BLACK
6
CONTINUOUS
10
220.044
20
-33.688
11
220.044
21
-33.6883
0
LINE
8
BLACK
6
CONTINUOUS
10
220.044
20
-33.6883
11
222.076
21
-37.4983
0
LINE
8
BLACK
6
CONTINUOUS
10
222.076
20
-37.4983
11
222.076
21
-37.4996
0
LINE
8
BLACK
6
CONTINUOUS
10
222.076
20
-37.4996
11
222.077
21
-37.5004
0
LINE
8
BLACK
6
CONTINUOUS
10
222.077
20
-37.5004
11
222.077
21
-37.5072
0
LINE
8
BLACK
6
CONTINUOUS
10
222.077
20
-37.5072
11
222.126
21
-37.5933
0
LINE
8
BLACK
6
CONTINUOUS
10
222.126
20
-37.5933
11
222.199
21
-37.6692
0
LINE
8
BLACK
6
CONTINUOUS
10
222.199
20
-37.6692
11
222.289
21
-37.7248
0
LINE
8
BLACK
6
CONTINUOUS
10
222.289
20
-37.7248
11
222.39
21
-37.7568
0
LINE
8
BLACK
6
CONTINUOUS
10
222.39
20
-37.7568
11
222.495
21
-37.7632
0
LINE
8
BLACK
6
CONTINUOUS
10
222.495
20
-37.7632
11
222.592
21
-37.7447
0
LINE
8
BLACK
6
CONTINUOUS
10
222.592
20
-37.7447
11
222.596
21
-37.7409
0
LINE
8
BLACK
6
CONTINUOUS
10
222.596
20
-37.7409
11
243.776
21
-29.1539
0
LINE
8
BLACK
6
CONTINUOUS
10
243.776
20
-29.1539
11
243.777
21
-29.1539
0
LINE
8
BLACK
6
CONTINUOUS
10
243.777
20
-29.1539
11
243.89
21
-29.1178
0
LINE
8
BLACK
6
CONTINUOUS
10
243.89
20
-29.1178
11
244.01
21
-29.1081
0
LINE
8
BLACK
6
CONTINUOUS
10
244.01
20
-29.1081
11
244.129
21
-29.1257
0
LINE
8
BLACK
6
CONTINUOUS
10
244.129
20
-29.1257
11
244.241
21
-29.1697
0
LINE
8
BLACK
6
CONTINUOUS
10
244.241
20
-29.1697
11
244.34
21
-29.2379
0
LINE
8
BLACK
6
CONTINUOUS
10
244.34
20
-29.2379
11
244.34
21
-29.2379
0
LINE
8
BLACK
6
CONTINUOUS
10
244.34
20
-29.2379
11
244.34
21
-29.2379
0
LINE
8
BLACK
6
CONTINUOUS
10
244.34
20
-29.2379
11
244.34
21
-29.238
0
LINE
8
BLACK
6
CONTINUOUS
10
244.34
20
-29.238
11
244.34
21
-29.2381
0
LINE
8
BLACK
6
CONTINUOUS
10
244.34
20
-29.2381
11
252.67
21
-36.632
0
LINE
8
BLACK
6
CONTINUOUS
10
252.67
20
-36.632
11
252.67
21
-36.6328
0
LINE
8
BLACK
6
CONTINUOUS
10
252.67
20
-36.6328
11
252.671
21
-36.6331
0
LINE
8
BLACK
6
CONTINUOUS
10
252.671
20
-36.6331
11
252.674
21
-36.6402
0
LINE
8
BLACK
6
CONTINUOUS
10
252.674
20
-36.6402
11
252.778
21
-36.7246
0
LINE
8
BLACK
6
CONTINUOUS
10
252.778
20
-36.7246
11
252.903
21
-36.7885
0
LINE
8
BLACK
6
CONTINUOUS
10
252.903
20
-36.7885
11
253.04
21
-36.8244
0
LINE
8
BLACK
6
CONTINUOUS
10
253.04
20
-36.8244
11
253.181
21
-36.8307
0
LINE
8
BLACK
6
CONTINUOUS
10
253.181
20
-36.8307
11
253.313
21
-36.8084
0
LINE
8
BLACK
6
CONTINUOUS
10
253.313
20
-36.8084
11
253.319
21
-36.8037
0
LINE
8
BLACK
6
CONTINUOUS
10
253.319
20
-36.8037
11
253.319
21
-36.8037
0
LINE
8
BLACK
6
CONTINUOUS
10
253.319
20
-36.8037
11
253.319
21
-36.8036
0
LINE
8
BLACK
6
CONTINUOUS
10
253.319
20
-36.8036
11
269.799
21
-32.4059
0
LINE
8
BLACK
6
CONTINUOUS
10
269.799
20
-32.4059
11
269.801
21
-32.4061
0
LINE
8
BLACK
6
CONTINUOUS
10
269.801
20
-32.4061
11
269.802
21
-32.4054
0
LINE
8
BLACK
6
CONTINUOUS
10
269.802
20
-32.4054
11
269.802
21
-32.4054
0
LINE
8
BLACK
6
CONTINUOUS
10
269.802
20
-32.4054
11
269.951
21
-32.3963
0
LINE
8
BLACK
6
CONTINUOUS
10
269.951
20
-32.3963
11
270.098
21
-32.4194
0
LINE
8
BLACK
6
CONTINUOUS
10
270.098
20
-32.4194
11
270.237
21
-32.4737
0
LINE
8
BLACK
6
CONTINUOUS
10
270.237
20
-32.4737
11
270.362
21
-32.5565
0
LINE
8
BLACK
6
CONTINUOUS
10
270.362
20
-32.5565
11
270.465
21
-32.6641
0
LINE
8
BLACK
6
CONTINUOUS
10
270.465
20
-32.6641
11
270.543
21
-32.7914
0
LINE
8
BLACK
6
CONTINUOUS
10
270.543
20
-32.7914
11
270.592
21
-32.9313
0
LINE
8
BLACK
6
CONTINUOUS
10
270.592
20
-32.9313
11
270.592
21
-32.9317
0
LINE
8
BLACK
6
CONTINUOUS
10
270.592
20
-32.9317
11
280.752
21
-71.2537
0
LINE
8
BLACK
6
CONTINUOUS
10
280.752
20
-71.2537
11
280.752
21
-71.254
0
LINE
8
BLACK
6
CONTINUOUS
10
280.752
20
-71.254
11
280.776
21
-71.3677
0
LINE
8
BLACK
6
CONTINUOUS
10
280.776
20
-71.3677
11
280.774
21
-71.4855
0
LINE
8
BLACK
6
CONTINUOUS
10
280.774
20
-71.4855
11
280.747
21
-71.6002
0
LINE
8
BLACK
6
CONTINUOUS
10
280.747
20
-71.6002
11
280.696
21
-71.7063
0
LINE
8
BLACK
6
CONTINUOUS
10
280.696
20
-71.7063
11
280.623
21
-71.7987
0
LINE
8
BLACK
6
CONTINUOUS
10
280.623
20
-71.7987
11
280.531
21
-71.8729
0
LINE
8
BLACK
6
CONTINUOUS
10
280.531
20
-71.8729
11
280.426
21
-71.9255
0
LINE
8
BLACK
6
CONTINUOUS
10
280.426
20
-71.9255
11
280.425
21
-71.9254
0
LINE
8
BLACK
6
CONTINUOUS
10
280.425
20
-71.9254
11
280.424
21
-71.9254
0
LINE
8
BLACK
6
CONTINUOUS
10
280.424
20
-71.9254
11
280.423
21
-71.9261
0
LINE
8
BLACK
6
CONTINUOUS
10
280.423
20
-71.9261
11
262.537
21
-76.6901
0
LINE
8
BLACK
6
CONTINUOUS
10
262.537
20
-76.6901
11
262.532
21
-76.6894
0
LINE
8
BLACK
6
CONTINUOUS
10
262.532
20
-76.6894
11
262.431
21
-76.7359
0
LINE
8
BLACK
6
CONTINUOUS
10
262.431
20
-76.7359
11
262.339
21
-76.8078
0
LINE
8
BLACK
6
CONTINUOUS
10
262.339
20
-76.8078
11
262.264
21
-76.8984
0
LINE
8
BLACK
6
CONTINUOUS
10
262.264
20
-76.8984
11
262.212
21
-77.0033
0
LINE
8
BLACK
6
CONTINUOUS
10
262.212
20
-77.0033
11
262.184
21
-77.1172
0
LINE
8
BLACK
6
CONTINUOUS
10
262.184
20
-77.1172
11
262.182
21
-77.2345
0
LINE
8
BLACK
6
CONTINUOUS
10
262.182
20
-77.2345
11
262.205
21
-77.3426
0
LINE
8
BLACK
6
CONTINUOUS
10
262.205
20
-77.3426
11
262.209
21
-77.3465
0
LINE
8
BLACK
6
CONTINUOUS
10
262.209
20
-77.3465
11
265.257
21
-84.7125
0
LINE
8
BLACK
6
CONTINUOUS
10
265.257
20
-84.7125
11
265.257
21
-84.713
0
LINE
8
BLACK
6
CONTINUOUS
10
265.257
20
-84.713
11
265.287
21
-84.8053
0
LINE
8
BLACK
6
CONTINUOUS
10
265.287
20
-84.8053
11
265.291
21
-84.904
0
LINE
8
BLACK
6
CONTINUOUS
10
265.291
20
-84.904
11
265.27
21
-85.0004
0
LINE
8
BLACK
6
CONTINUOUS
10
265.27
20
-85.0004
11
265.224
21
-85.0878
0
LINE
8
BLACK
6
CONTINUOUS
10
265.224
20
-85.0878
11
265.156
21
-85.1599
0
LINE
8
BLACK
6
CONTINUOUS
10
265.156
20
-85.1599
11
265.072
21
-85.2117
0
LINE
8
BLACK
6
CONTINUOUS
10
265.072
20
-85.2117
11
265.072
21
-85.2117
0
LINE
8
BLACK
6
CONTINUOUS
10
265.072
20
-85.2117
11
265.072
21
-85.2117
0
LINE
8
BLACK
6
CONTINUOUS
10
265.072
20
-85.2117
11
265.072
21
-85.2119
0
LINE
8
BLACK
6
CONTINUOUS
10
265.072
20
-85.2119
11
226.128
21
-101.763
0
LINE
8
BLACK
6
CONTINUOUS
10
226.128
20
-101.763
11
226.127
21
-101.763
0
LINE
8
BLACK
6
CONTINUOUS
10
226.127
20
-101.763
11
226.127
21
-101.763
0
LINE
8
BLACK
6
CONTINUOUS
10
226.127
20
-101.763
11
226.12
21
-101.763
0
LINE
8
BLACK
6
CONTINUOUS
10
226.12
20
-101.763
11
226.017
21
-101.821
0
LINE
8
BLACK
6
CONTINUOUS
10
226.017
20
-101.821
11
225.927
21
-101.907
0
LINE
8
BLACK
6
CONTINUOUS
10
225.927
20
-101.907
11
225.86
21
-102.012
0
LINE
8
BLACK
6
CONTINUOUS
10
225.86
20
-102.012
11
225.821
21
-102.13
0
LINE
8
BLACK
6
CONTINUOUS
10
225.821
20
-102.13
11
225.811
21
-102.254
0
LINE
8
BLACK
6
CONTINUOUS
10
225.811
20
-102.254
11
225.832
21
-102.377
0
LINE
8
BLACK
6
CONTINUOUS
10
225.832
20
-102.377
11
225.879
21
-102.485
0
LINE
8
BLACK
6
CONTINUOUS
10
225.879
20
-102.485
11
225.885
21
-102.489
0
LINE
8
BLACK
6
CONTINUOUS
10
225.885
20
-102.489
11
225.885
21
-102.49
0
LINE
8
BLACK
6
CONTINUOUS
10
225.885
20
-102.49
11
225.886
21
-102.491
0
LINE
8
BLACK
6
CONTINUOUS
10
225.886
20
-102.491
11
234.328
21
-119.131
0
LINE
8
BLACK
6
CONTINUOUS
10
234.328
20
-119.131
11
234.328
21
-119.131
0
LINE
8
BLACK
6
CONTINUOUS
10
234.328
20
-119.131
11
234.368
21
-119.24
0
LINE
8
BLACK
6
CONTINUOUS
10
234.368
20
-119.24
11
234.38
21
-119.355
0
LINE
8
BLACK
6
CONTINUOUS
10
234.38
20
-119.355
11
234.364
21
-119.47
0
LINE
8
BLACK
6
CONTINUOUS
10
234.364
20
-119.47
11
234.321
21
-119.578
0
LINE
8
BLACK
6
CONTINUOUS
10
234.321
20
-119.578
11
234.253
21
-119.672
0
LINE
8
BLACK
6
CONTINUOUS
10
234.253
20
-119.672
11
234.164
21
-119.747
0
LINE
8
BLACK
6
CONTINUOUS
10
234.164
20
-119.747
11
234.063
21
-119.796
0
LINE
8
BLACK
6
CONTINUOUS
10
234.063
20
-119.796
11
234.063
21
-119.796
0
LINE
8
BLACK
6
CONTINUOUS
10
234.063
20
-119.796
11
217.493
21
-128.178
0
LINE
8
BLACK
6
CONTINUOUS
10
217.493
20
-128.178
11
217.487
21
-128.179
0
LINE
8
BLACK
6
CONTINUOUS
10
217.487
20
-128.179
11
217.42
21
-128.237
0
LINE
8
BLACK
6
CONTINUOUS
10
217.42
20
-128.237
11
217.369
21
-128.32
0
LINE
8
BLACK
6
CONTINUOUS
10
217.369
20
-128.32
11
217.347
21
-128.414
0
LINE
8
BLACK
6
CONTINUOUS
10
217.347
20
-128.414
11
217.354
21
-128.511
0
LINE
8
BLACK
6
CONTINUOUS
10
217.354
20
-128.511
11
217.388
21
-128.594
0
LINE
8
BLACK
6
CONTINUOUS
10
217.388
20
-128.594
11
217.394
21
-128.599
0
LINE
8
BLACK
6
CONTINUOUS
10
217.394
20
-128.599
11
217.394
21
-128.6
0
LINE
8
BLACK
6
CONTINUOUS
10
217.394
20
-128.6
11
217.395
21
-128.601
0
LINE
8
BLACK
6
CONTINUOUS
10
217.395
20
-128.601
11
219.027
21
-131.954
0
LINE
8
BLACK
6
CONTINUOUS
10
219.027
20
-131.954
11
219.027
21
-131.954
0
LINE
8
BLACK
6
CONTINUOUS
10
219.027
20
-131.954
11
219.068
21
-132.055
0
LINE
8
BLACK
6
CONTINUOUS
10
219.068
20
-132.055
11
219.083
21
-132.165
0
LINE
8
BLACK
6
CONTINUOUS
10
219.083
20
-132.165
11
219.068
21
-132.275
0
LINE
8
BLACK
6
CONTINUOUS
10
219.068
20
-132.275
11
219.025
21
-132.377
0
LINE
8
BLACK
6
CONTINUOUS
10
219.025
20
-132.377
11
218.956
21
-132.465
0
LINE
8
BLACK
6
CONTINUOUS
10
218.956
20
-132.465
11
218.868
21
-132.531
0
LINE
8
BLACK
6
CONTINUOUS
10
218.868
20
-132.531
11
218.868
21
-132.531
0
LINE
8
BLACK
6
CONTINUOUS
10
218.868
20
-132.531
11
218.867
21
-132.531
0
LINE
8
BLACK
6
CONTINUOUS
10
218.867
20
-132.531
11
218.867
21
-132.532
0
LINE
8
BLACK
6
CONTINUOUS
10
218.867
20
-132.532
11
201.491
21
-141.386
0
LINE
8
BLACK
6
CONTINUOUS
10
201.491
20
-141.386
11
190.315
21
-147.228
0
LINE
8
BLACK
6
CONTINUOUS
10
190.315
20
-147.228
11
190.314
21
-147.228
0
LINE
8
BLACK
6
CONTINUOUS
10
190.314
20
-147.228
11
190.313
21
-147.229
0
LINE
8
BLACK
6
CONTINUOUS
10
190.313
20
-147.229
11
190.307
21
-147.229
0
LINE
8
BLACK
6
CONTINUOUS
10
190.307
20
-147.229
11
190.221
21
-147.276
0
LINE
8
BLACK
6
CONTINUOUS
10
190.221
20
-147.276
11
190.146
21
-147.348
0
LINE
8
BLACK
6
CONTINUOUS
10
190.146
20
-147.348
11
190.09
21
-147.435
0
LINE
8
BLACK
6
CONTINUOUS
10
190.09
20
-147.435
11
190.059
21
-147.534
0
LINE
8
BLACK
6
CONTINUOUS
10
190.059
20
-147.534
11
190.053
21
-147.632
0
LINE
8
BLACK
6
CONTINUOUS
10
190.053
20
-147.632
11
190.056
21
-147.637
0
LINE
8
BLACK
6
CONTINUOUS
10
190.056
20
-147.637
11
190.056
21
-147.638
0
LINE
8
BLACK
6
CONTINUOUS
10
190.056
20
-147.638
11
190.056
21
-147.639
0
LINE
8
BLACK
6
CONTINUOUS
10
190.056
20
-147.639
11
190.059
21
-160.16
0
LINE
8
BLACK
6
CONTINUOUS
10
190.059
20
-160.16
11
190.059
21
-160.16
0
LINE
8
BLACK
6
CONTINUOUS
10
190.059
20
-160.16
11
190.059
21
-160.16
0
LINE
8
BLACK
6
CONTINUOUS
10
190.059
20
-160.16
11
190.059
21
-160.16
0
LINE
8
BLACK
6
CONTINUOUS
10
190.059
20
-160.16
11
190.045
21
-160.243
0
LINE
8
BLACK
6
CONTINUOUS
10
190.045
20
-160.243
11
190.009
21
-160.318
0
LINE
8
BLACK
6
CONTINUOUS
10
190.009
20
-160.318
11
189.951
21
-160.379
0
LINE
8
BLACK
6
CONTINUOUS
10
189.951
20
-160.379
11
189.879
21
-160.42
0
LINE
8
BLACK
6
CONTINUOUS
10
189.879
20
-160.42
11
189.8
21
-160.438
0
LINE
8
BLACK
6
CONTINUOUS
10
189.8
20
-160.438
11
189.8
21
-160.439
0
LINE
8
BLACK
6
CONTINUOUS
10
189.8
20
-160.439
11
189.8
21
-160.439
0
LINE
8
BLACK
6
CONTINUOUS
10
189.8
20
-160.439
11
186.789
21
-160.877
0
LINE
8
BLACK
6
CONTINUOUS
10
186.789
20
-160.877
11
183.774
21
-161.28
0
LINE
8
BLACK
6
CONTINUOUS
10
183.774
20
-161.28
11
180.754
21
-161.648
0
LINE
8
BLACK
6
CONTINUOUS
10
180.754
20
-161.648
11
177.73
21
-161.979
0
LINE
8
BLACK
6
CONTINUOUS
10
177.73
20
-161.979
11
174.703
21
-162.275
0
LINE
8
BLACK
6
CONTINUOUS
10
174.703
20
-162.275
11
171.672
21
-162.535
0
LINE
8
BLACK
6
CONTINUOUS
10
171.672
20
-162.535
11
168.638
21
-162.759
0
LINE
8
BLACK
6
CONTINUOUS
10
168.638
20
-162.759
11
165.602
21
-162.947
0
LINE
8
BLACK
6
CONTINUOUS
10
165.602
20
-162.947
11
162.563
21
-163.099
0
LINE
8
BLACK
6
CONTINUOUS
10
162.563
20
-163.099
11
159.524
21
-163.215
0
LINE
8
BLACK
6
CONTINUOUS
10
159.524
20
-163.215
11
156.483
21
-163.295
0
LINE
8
BLACK
6
CONTINUOUS
10
156.483
20
-163.295
11
153.441
21
-163.34
0
LINE
8
BLACK
6
CONTINUOUS
10
153.441
20
-163.34
11
150.399
21
-163.348
0
LINE
8
BLACK
6
CONTINUOUS
10
150.399
20
-163.348
11
147.357
21
-163.32
0
LINE
8
BLACK
6
CONTINUOUS
10
147.357
20
-163.32
11
144.315
21
-163.256
0
LINE
8
BLACK
6
CONTINUOUS
10
144.315
20
-163.256
11
141.275
21
-163.156
0
LINE
8
BLACK
6
CONTINUOUS
10
141.275
20
-163.156
11
138.236
21
-163.021
0
LINE
8
BLACK
6
CONTINUOUS
10
138.236
20
-163.021
11
135.199
21
-162.849
0
LINE
8
BLACK
6
CONTINUOUS
10
135.199
20
-162.849
11
132.164
21
-162.641
0
LINE
8
BLACK
6
CONTINUOUS
10
132.164
20
-162.641
11
129.131
21
-162.398
0
LINE
8
BLACK
6
CONTINUOUS
10
129.131
20
-162.398
11
126.102
21
-162.118
0
LINE
8
BLACK
6
CONTINUOUS
10
126.102
20
-162.118
11
123.077
21
-161.803
0
LINE
8
BLACK
6
CONTINUOUS
10
123.077
20
-161.803
11
120.055
21
-161.452
0
LINE
8
BLACK
6
CONTINUOUS
10
120.055
20
-161.452
11
117.037
21
-161.065
0
LINE
8
BLACK
6
CONTINUOUS
10
117.037
20
-161.065
11
114.025
21
-160.643
0
LINE
8
BLACK
6
CONTINUOUS
10
114.025
20
-160.643
11
111.017
21
-160.185
0
LINE
8
BLACK
6
CONTINUOUS
10
111.017
20
-160.185
11
111.017
21
-160.185
0
LINE
8
BLACK
6
CONTINUOUS
10
111.017
20
-160.185
11
111.017
21
-160.184
0
LINE
8
BLACK
6
CONTINUOUS
10
111.017
20
-160.184
11
110.938
21
-160.166
0
LINE
8
BLACK
6
CONTINUOUS
10
110.938
20
-160.166
11
110.866
21
-160.125
0
LINE
8
BLACK
6
CONTINUOUS
10
110.866
20
-160.125
11
110.809
21
-160.064
0
LINE
8
BLACK
6
CONTINUOUS
10
110.809
20
-160.064
11
110.772
21
-159.989
0
LINE
8
BLACK
6
CONTINUOUS
10
110.772
20
-159.989
11
110.758
21
-159.906
0
LINE
8
BLACK
6
CONTINUOUS
10
110.758
20
-159.906
11
110.758
21
-159.906
0
LINE
8
BLACK
6
CONTINUOUS
10
110.758
20
-159.906
11
110.758
21
-159.906
0
LINE
8
BLACK
6
CONTINUOUS
10
110.758
20
-159.906
11
110.758
21
-159.906
0
LINE
8
BLACK
6
CONTINUOUS
10
110.758
20
-159.906
11
110.761
21
-147.385
0
LINE
8
BLACK
6
CONTINUOUS
10
110.761
20
-147.385
11
110.762
21
-147.384
0
LINE
8
BLACK
6
CONTINUOUS
10
110.762
20
-147.384
11
110.761
21
-147.383
0
LINE
8
BLACK
6
CONTINUOUS
10
110.761
20
-147.383
11
110.764
21
-147.378
0
LINE
8
BLACK
6
CONTINUOUS
10
110.764
20
-147.378
11
110.758
21
-147.28
0
LINE
8
BLACK
6
CONTINUOUS
10
110.758
20
-147.28
11
110.727
21
-147.181
0
LINE
8
BLACK
6
CONTINUOUS
10
110.727
20
-147.181
11
110.672
21
-147.094
0
LINE
8
BLACK
6
CONTINUOUS
10
110.672
20
-147.094
11
110.596
21
-147.022
0
LINE
8
BLACK
6
CONTINUOUS
10
110.596
20
-147.022
11
110.511
21
-146.975
0
LINE
8
BLACK
6
CONTINUOUS
10
110.511
20
-146.975
11
110.504
21
-146.975
0
LINE
8
BLACK
6
CONTINUOUS
10
110.504
20
-146.975
11
110.503
21
-146.974
0
LINE
8
BLACK
6
CONTINUOUS
10
110.503
20
-146.974
11
110.502
21
-146.974
0
LINE
8
BLACK
6
CONTINUOUS
10
110.502
20
-146.974
11
99.3258
21
-141.132
0
LINE
8
BLACK
6
CONTINUOUS
10
99.3258
20
-141.132
11
81.9503
21
-132.278
0
LINE
8
BLACK
6
CONTINUOUS
10
81.9503
20
-132.278
11
81.9499
21
-132.277
0
LINE
8
BLACK
6
CONTINUOUS
10
81.9499
20
-132.277
11
81.9494
21
-132.277
0
LINE
8
BLACK
6
CONTINUOUS
10
81.9494
20
-132.277
11
81.9494
21
-132.277
0
LINE
8
BLACK
6
CONTINUOUS
10
81.9494
20
-132.277
11
81.8605
21
-132.211
0
LINE
8
BLACK
6
CONTINUOUS
10
81.8605
20
-132.211
11
81.7921
21
-132.123
0
LINE
8
BLACK
6
CONTINUOUS
10
81.7921
20
-132.123
11
81.749
21
-132.021
0
LINE
8
BLACK
6
CONTINUOUS
10
81.749
20
-132.021
11
81.7341
21
-131.911
0
LINE
8
BLACK
6
CONTINUOUS
10
81.7341
20
-131.911
11
81.7485
21
-131.801
0
LINE
8
BLACK
6
CONTINUOUS
10
81.7485
20
-131.801
11
81.7902
21
-131.7
0
LINE
8
BLACK
6
CONTINUOUS
10
81.7902
20
-131.7
11
81.7903
21
-131.7
0
LINE
8
BLACK
6
CONTINUOUS
10
81.7903
20
-131.7
11
83.4223
21
-128.347
0
LINE
8
BLACK
6
CONTINUOUS
10
83.4223
20
-128.347
11
83.4232
21
-128.346
0
LINE
8
BLACK
6
CONTINUOUS
10
83.4232
20
-128.346
11
83.4234
21
-128.345
0
LINE
8
BLACK
6
CONTINUOUS
10
83.4234
20
-128.345
11
83.4292
21
-128.34
0
LINE
8
BLACK
6
CONTINUOUS
10
83.4292
20
-128.34
11
83.4632
21
-128.257
0
LINE
8
BLACK
6
CONTINUOUS
10
83.4632
20
-128.257
11
83.4705
21
-128.16
0
LINE
8
BLACK
6
CONTINUOUS
10
83.4705
20
-128.16
11
83.4478
21
-128.066
0
LINE
8
BLACK
6
CONTINUOUS
10
83.4478
20
-128.066
11
83.3975
21
-127.983
0
LINE
8
BLACK
6
CONTINUOUS
10
83.3975
20
-127.983
11
83.3297
21
-127.925
0
LINE
8
BLACK
6
CONTINUOUS
10
83.3297
20
-127.925
11
83.3241
21
-127.924
0
LINE
8
BLACK
6
CONTINUOUS
10
83.3241
20
-127.924
11
66.7542
21
-119.542
0
LINE
8
BLACK
6
CONTINUOUS
10
66.7542
20
-119.542
11
66.7539
21
-119.542
0
LINE
8
BLACK
6
CONTINUOUS
10
66.7539
20
-119.542
11
66.653
21
-119.493
0
LINE
8
BLACK
6
CONTINUOUS
10
66.653
20
-119.493
11
66.5643
21
-119.418
0
LINE
8
BLACK
6
CONTINUOUS
10
66.5643
20
-119.418
11
66.4962
21
-119.324
0
LINE
8
BLACK
6
CONTINUOUS
10
66.4962
20
-119.324
11
66.4529
21
-119.216
0
LINE
8
BLACK
6
CONTINUOUS
10
66.4529
20
-119.216
11
66.437
21
-119.101
0
LINE
8
BLACK
6
CONTINUOUS
10
66.437
20
-119.101
11
66.4493
21
-118.986
0
LINE
8
BLACK
6
CONTINUOUS
10
66.4493
20
-118.986
11
66.4891
21
-118.877
0
LINE
8
BLACK
6
CONTINUOUS
10
66.4891
20
-118.877
11
66.4892
21
-118.877
0
LINE
8
BLACK
6
CONTINUOUS
10
66.4892
20
-118.877
11
74.9311
21
-102.237
0
LINE
8
BLACK
6
CONTINUOUS
10
74.9311
20
-102.237
11
74.9317
21
-102.236
0
LINE
8
BLACK
6
CONTINUOUS
10
74.9317
20
-102.236
11
74.9319
21
-102.235
0
LINE
8
BLACK
6
CONTINUOUS
10
74.9319
20
-102.235
11
74.9378
21
-102.231
0
LINE
8
BLACK
6
CONTINUOUS
10
74.9378
20
-102.231
11
74.9851
21
-102.123
0
LINE
8
BLACK
6
CONTINUOUS
10
74.9851
20
-102.123
11
75.006
21
-102
0
LINE
8
BLACK
6
CONTINUOUS
10
75.006
20
-102
11
74.9964
21
-101.876
0
LINE
8
BLACK
6
CONTINUOUS
10
74.9964
20
-101.876
11
74.957
21
-101.758
0
LINE
8
BLACK
6
CONTINUOUS
10
74.957
20
-101.758
11
74.8901
21
-101.653
0
LINE
8
BLACK
6
CONTINUOUS
10
74.8901
20
-101.653
11
74.7997
21
-101.567
0
LINE
8
BLACK
6
CONTINUOUS
10
74.7997
20
-101.567
11
74.6973
21
-101.509
0
LINE
8
BLACK
6
CONTINUOUS
10
74.6973
20
-101.509
11
74.6898
21
-101.509
0
LINE
8
BLACK
6
CONTINUOUS
10
74.6898
20
-101.509
11
74.6897
21
-101.509
0
LINE
8
BLACK
6
CONTINUOUS
10
74.6897
20
-101.509
11
74.6896
21
-101.509
0
LINE
8
BLACK
6
CONTINUOUS
10
74.6896
20
-101.509
11
35.7455
21
-84.9579
0
LINE
8
BLACK
6
CONTINUOUS
10
35.7455
20
-84.9579
11
35.7454
21
-84.9577
0
LINE
8
BLACK
6
CONTINUOUS
10
35.7454
20
-84.9577
11
35.7451
21
-84.9577
0
LINE
8
BLACK
6
CONTINUOUS
10
35.7451
20
-84.9577
11
35.7451
21
-84.9577
0
LINE
8
BLACK
6
CONTINUOUS
10
35.7451
20
-84.9577
11
35.661
21
-84.9059
0
LINE
8
BLACK
6
CONTINUOUS
10
35.661
20
-84.9059
11
35.5934
21
-84.8338
0
LINE
8
BLACK
6
CONTINUOUS
10
35.5934
20
-84.8338
11
35.5473
21
-84.7464
0
LINE
8
BLACK
6
CONTINUOUS
10
35.5473
20
-84.7464
11
35.5257
21
-84.65
0
LINE
8
BLACK
6
CONTINUOUS
10
35.5257
20
-84.65
11
35.5303
21
-84.5513
0
LINE
8
BLACK
6
CONTINUOUS
10
35.5303
20
-84.5513
11
35.5602
21
-84.459
0
LINE
8
BLACK
6
CONTINUOUS
10
35.5602
20
-84.459
11
35.5602
21
-84.4585
0
LINE
8
BLACK
6
CONTINUOUS
10
35.5602
20
-84.4585
11
38.6082
21
-77.0925
0
LINE
8
BLACK
6
CONTINUOUS
10
38.6082
20
-77.0925
11
38.6121
21
-77.0887
0
LINE
8
BLACK
6
CONTINUOUS
10
38.6121
20
-77.0887
11
38.635
21
-76.9805
0
LINE
8
BLACK
6
CONTINUOUS
10
38.635
20
-76.9805
11
38.6331
21
-76.8632
0
LINE
8
BLACK
6
CONTINUOUS
10
38.6331
20
-76.8632
11
38.6053
21
-76.7493
0
LINE
8
BLACK
6
CONTINUOUS
10
38.6053
20
-76.7493
11
38.5529
21
-76.6444
0
LINE
8
BLACK
6
CONTINUOUS
10
38.5529
20
-76.6444
11
38.4784
21
-76.5538
0
LINE
8
BLACK
6
CONTINUOUS
10
38.4784
20
-76.5538
11
38.3857
21
-76.482
0
LINE
8
BLACK
6
CONTINUOUS
10
38.3857
20
-76.482
11
38.2855
21
-76.4354
0
LINE
8
BLACK
6
CONTINUOUS
10
38.2855
20
-76.4354
11
38.2799
21
-76.4361
0
LINE
8
BLACK
6
CONTINUOUS
10
38.2799
20
-76.4361
11
20.3939
21
-71.6721
0
LINE
8
BLACK
6
CONTINUOUS
10
20.3939
20
-71.6721
11
20.3929
21
-71.6714
0
LINE
8
BLACK
6
CONTINUOUS
10
20.3929
20
-71.6714
11
20.3917
21
-71.6714
0
LINE
8
BLACK
6
CONTINUOUS
10
20.3917
20
-71.6714
11
20.2862
21
-71.6189
0
LINE
8
BLACK
6
CONTINUOUS
10
20.2862
20
-71.6189
11
20.1946
21
-71.5447
0
LINE
8
BLACK
6
CONTINUOUS
10
20.1946
20
-71.5447
11
20.1214
21
-71.4523
0
LINE
8
BLACK
6
CONTINUOUS
10
20.1214
20
-71.4523
11
20.07
21
-71.3462
0
LINE
8
BLACK
6
CONTINUOUS
10
20.07
20
-71.3462
11
20.043
21
-71.2315
0
LINE
8
BLACK
6
CONTINUOUS
10
20.043
20
-71.2315
11
20.0415
21
-71.1137
0
LINE
8
BLACK
6
CONTINUOUS
10
20.0415
20
-71.1137
11
20.0652
21
-71.0001
0
LINE
8
BLACK
6
CONTINUOUS
10
20.0652
20
-71.0001
11
20.0652
21
-70.9997
0
LINE
8
BLACK
6
CONTINUOUS
10
20.0652
20
-70.9997
11
30.2252
21
-32.6777
0
LINE
8
BLACK
6
CONTINUOUS
10
30.2252
20
-32.6777
11
30.2253
21
-32.6775
0
LINE
8
BLACK
6
CONTINUOUS
10
30.2253
20
-32.6775
11
30.2739
21
-32.5374
0
LINE
8
BLACK
6
CONTINUOUS
10
30.2739
20
-32.5374
11
30.352
21
-32.4101
0
LINE
8
BLACK
6
CONTINUOUS
10
30.352
20
-32.4101
11
30.4556
21
-32.3025
0
LINE
8
BLACK
6
CONTINUOUS
10
30.4556
20
-32.3025
11
30.5798
21
-32.2197
0
LINE
8
BLACK
6
CONTINUOUS
10
30.5798
20
-32.2197
11
30.719
21
-32.1654
0
LINE
8
BLACK
6
CONTINUOUS
10
30.719
20
-32.1654
11
30.8665
21
-32.1423
0
LINE
8
BLACK
6
CONTINUOUS
10
30.8665
20
-32.1423
11
31.0156
21
-32.1514
0
LINE
8
BLACK
6
CONTINUOUS
10
31.0156
20
-32.1514
11
31.0156
21
-32.1514
0
LINE
8
BLACK
6
CONTINUOUS
10
31.0156
20
-32.1514
11
31.0166
21
-32.1521
0
LINE
8
BLACK
6
CONTINUOUS
10
31.0166
20
-32.1521
11
31.0178
21
-32.1519
0
LINE
8
BLACK
6
CONTINUOUS
10
31.0178
20
-32.1519
11
47.4982
21
-36.5496
0
LINE
8
BLACK
6
CONTINUOUS
10
47.4982
20
-36.5496
11
47.4984
21
-36.5497
0
LINE
8
BLACK
6
CONTINUOUS
10
47.4984
20
-36.5497
11
47.4985
21
-36.5497
0
LINE
8
BLACK
6
CONTINUOUS
10
47.4985
20
-36.5497
11
47.5045
21
-36.5544
0
LINE
8
BLACK
6
CONTINUOUS
10
47.5045
20
-36.5544
11
47.6366
21
-36.5767
0
LINE
8
BLACK
6
CONTINUOUS
10
47.6366
20
-36.5767
11
47.7774
21
-36.5704
0
LINE
8
BLACK
6
CONTINUOUS
10
47.7774
20
-36.5704
11
47.9138
21
-36.5345
0
LINE
8
BLACK
6
CONTINUOUS
10
47.9138
20
-36.5345
11
48.0395
21
-36.4706
0
LINE
8
BLACK
6
CONTINUOUS
10
48.0395
20
-36.4706
11
48.1434
21
-36.3861
0
LINE
8
BLACK
6
CONTINUOUS
10
48.1434
20
-36.3861
11
48.1463
21
-36.3791
0
LINE
8
BLACK
6
CONTINUOUS
10
48.1463
20
-36.3791
11
48.1471
21
-36.3788
0
LINE
8
BLACK
6
CONTINUOUS
10
48.1471
20
-36.3788
11
48.1474
21
-36.378
0
LINE
8
BLACK
6
CONTINUOUS
10
48.1474
20
-36.378
11
56.4771
21
-28.9841
0
LINE
8
BLACK
6
CONTINUOUS
10
56.4771
20
-28.9841
11
56.4772
21
-28.984
0
LINE
8
BLACK
6
CONTINUOUS
10
56.4772
20
-28.984
11
56.4773
21
-28.9839
0
LINE
8
BLACK
6
CONTINUOUS
10
56.4773
20
-28.9839
11
56.4773
21
-28.9839
0
LINE
8
BLACK
6
CONTINUOUS
10
56.4773
20
-28.9839
11
56.5763
21
-28.9157
0
LINE
8
BLACK
6
CONTINUOUS
10
56.5763
20
-28.9157
11
56.6882
21
-28.8717
0
LINE
8
BLACK
6
CONTINUOUS
10
56.6882
20
-28.8717
11
56.8071
21
-28.854
0
LINE
8
BLACK
6
CONTINUOUS
10
56.8071
20
-28.854
11
56.927
21
-28.8637
0
LINE
8
BLACK
6
CONTINUOUS
10
56.7003
20
-28.9171
11
56.5984
21
-28.9572
0
LINE
8
BLACK
6
CONTINUOUS
10
56.5984
20
-28.9572
11
56.5129
21
-29.016
0
LINE
8
BLACK
6
CONTINUOUS
10
56.5129
20
-29.016
11
56.5103
21
-29.0215
0
LINE
8
BLACK
6
CONTINUOUS
10
56.5103
20
-29.0215
11
48.1806
21
-36.4154
0
LINE
8
BLACK
6
CONTINUOUS
10
48.1806
20
-36.4154
11
48.1803
21
-36.4155
0
LINE
8
BLACK
6
CONTINUOUS
10
48.1803
20
-36.4155
11
48.0647
21
-36.5095
0
LINE
8
BLACK
6
CONTINUOUS
10
48.0647
20
-36.5095
11
47.9303
21
-36.5778
0
LINE
8
BLACK
6
CONTINUOUS
10
47.9303
20
-36.5778
11
47.7844
21
-36.6162
0
LINE
8
BLACK
6
CONTINUOUS
10
47.7844
20
-36.6162
11
47.6337
21
-36.623
0
LINE
8
BLACK
6
CONTINUOUS
10
47.6337
20
-36.623
11
47.4854
21
-36.5979
0
LINE
8
BLACK
6
CONTINUOUS
10
47.4854
20
-36.5979
11
47.4853
21
-36.5979
0
LINE
8
BLACK
6
CONTINUOUS
10
47.4853
20
-36.5979
11
47.4852
21
-36.5979
0
LINE
8
BLACK
6
CONTINUOUS
10
47.4852
20
-36.5979
11
47.485
21
-36.5978
0
LINE
8
BLACK
6
CONTINUOUS
10
47.485
20
-36.5978
11
47.485
21
-36.5978
0
LINE
8
BLACK
6
CONTINUOUS
10
47.485
20
-36.5978
11
31.0049
21
-32.2002
0
LINE
8
BLACK
6
CONTINUOUS
10
31.0049
20
-32.2002
11
31
21
-32.1965
0
LINE
8
BLACK
6
CONTINUOUS
10
31
20
-32.1965
11
30.8687
21
-32.1885
0
LINE
8
BLACK
6
CONTINUOUS
10
30.8687
20
-32.1885
11
30.731
21
-32.21
0
LINE
8
BLACK
6
CONTINUOUS
10
30.731
20
-32.21
11
30.6011
21
-32.2607
0
LINE
8
BLACK
6
CONTINUOUS
10
30.6011
20
-32.2607
11
30.4852
21
-32.338
0
LINE
8
BLACK
6
CONTINUOUS
10
30.4852
20
-32.338
11
30.3885
21
-32.4384
0
LINE
8
BLACK
6
CONTINUOUS
10
30.3885
20
-32.4384
11
30.3157
21
-32.5572
0
LINE
8
BLACK
6
CONTINUOUS
10
30.3157
20
-32.5572
11
30.2724
21
-32.6819
0
LINE
8
BLACK
6
CONTINUOUS
10
30.2724
20
-32.6819
11
30.2737
21
-32.6897
0
LINE
8
BLACK
6
CONTINUOUS
10
30.2737
20
-32.6897
11
30.2735
21
-32.69
0
LINE
8
BLACK
6
CONTINUOUS
10
30.2735
20
-32.69
11
30.2735
21
-32.6905
0
LINE
8
BLACK
6
CONTINUOUS
10
30.2735
20
-32.6905
11
20.1135
21
-71.0125
0
LINE
8
BLACK
6
CONTINUOUS
10
20.1135
20
-71.0125
11
20.113
21
-71.0131
0
LINE
8
BLACK
6
CONTINUOUS
10
20.113
20
-71.0131
11
20.1131
21
-71.0138
0
LINE
8
BLACK
6
CONTINUOUS
10
20.1131
20
-71.0138
11
20.1081
21
-71.0197
0
LINE
8
BLACK
6
CONTINUOUS
10
20.1081
20
-71.0197
11
20.0859
21
-71.1361
0
LINE
8
BLACK
6
CONTINUOUS
10
20.0859
20
-71.1361
11
20.0944
21
-71.2614
0
LINE
8
BLACK
6
CONTINUOUS
10
20.0944
20
-71.2614
11
20.1343
21
-71.3806
0
LINE
8
BLACK
6
CONTINUOUS
10
20.1343
20
-71.3806
11
20.2031
21
-71.4857
0
LINE
8
BLACK
6
CONTINUOUS
10
20.2031
20
-71.4857
11
20.2962
21
-71.5701
0
LINE
8
BLACK
6
CONTINUOUS
10
20.2962
20
-71.5701
11
20.4008
21
-71.6246
0
LINE
8
BLACK
6
CONTINUOUS
10
20.4008
20
-71.6246
11
20.4067
21
-71.6238
0
LINE
8
BLACK
6
CONTINUOUS
10
20.4067
20
-71.6238
11
38.2927
21
-76.3878
0
LINE
8
BLACK
6
CONTINUOUS
10
38.2927
20
-76.3878
11
38.2934
21
-76.3883
0
LINE
8
BLACK
6
CONTINUOUS
10
38.2934
20
-76.3883
11
38.2942
21
-76.3883
0
LINE
8
BLACK
6
CONTINUOUS
10
38.2942
20
-76.3883
11
38.41
21
-76.4421
0
LINE
8
BLACK
6
CONTINUOUS
10
38.41
20
-76.4421
11
38.511
21
-76.5203
0
LINE
8
BLACK
6
CONTINUOUS
10
38.511
20
-76.5203
11
38.592
21
-76.619
0
LINE
8
BLACK
6
CONTINUOUS
10
38.592
20
-76.619
11
38.6492
21
-76.7332
0
LINE
8
BLACK
6
CONTINUOUS
10
38.6492
20
-76.7332
11
38.6795
21
-76.8573
0
LINE
8
BLACK
6
CONTINUOUS
10
38.6795
20
-76.8573
11
38.6815
21
-76.985
0
LINE
8
BLACK
6
CONTINUOUS
10
38.6815
20
-76.985
11
38.6551
21
-77.1098
0
LINE
8
BLACK
6
CONTINUOUS
10
38.6551
20
-77.1098
11
38.6551
21
-77.11
0
LINE
8
BLACK
6
CONTINUOUS
10
38.6551
20
-77.11
11
38.6544
21
-77.1107
0
LINE
8
BLACK
6
CONTINUOUS
10
38.6544
20
-77.1107
11
38.6544
21
-77.1116
0
LINE
8
BLACK
6
CONTINUOUS
10
38.6544
20
-77.1116
11
35.6064
21
-84.4776
0
LINE
8
BLACK
6
CONTINUOUS
10
35.6064
20
-84.4776
11
35.6059
21
-84.4781
0
LINE
8
BLACK
6
CONTINUOUS
10
35.6059
20
-84.4781
11
35.6059
21
-84.4789
0
LINE
8
BLACK
6
CONTINUOUS
10
35.6059
20
-84.4789
11
35.6018
21
-84.4825
0
LINE
8
BLACK
6
CONTINUOUS
10
35.6018
20
-84.4825
11
35.5768
21
-84.5597
0
LINE
8
BLACK
6
CONTINUOUS
10
35.5768
20
-84.5597
11
35.5728
21
-84.6459
0
LINE
8
BLACK
6
CONTINUOUS
10
35.5728
20
-84.6459
11
35.5916
21
-84.7301
0
LINE
8
BLACK
6
CONTINUOUS
10
35.5916
20
-84.7301
11
35.6319
21
-84.8064
0
LINE
8
BLACK
6
CONTINUOUS
10
35.6319
20
-84.8064
11
35.6908
21
-84.8693
0
LINE
8
BLACK
6
CONTINUOUS
10
35.6908
20
-84.8693
11
35.7599
21
-84.9118
0
LINE
8
BLACK
6
CONTINUOUS
10
35.7599
20
-84.9118
11
35.7651
21
-84.9119
0
LINE
8
BLACK
6
CONTINUOUS
10
35.7651
20
-84.9119
11
74.7091
21
-101.463
0
LINE
8
BLACK
6
CONTINUOUS
10
74.7091
20
-101.463
11
74.7092
21
-101.463
0
LINE
8
BLACK
6
CONTINUOUS
10
74.7092
20
-101.463
11
74.8272
21
-101.53
0
LINE
8
BLACK
6
CONTINUOUS
10
74.8272
20
-101.53
11
74.9258
21
-101.623
0
LINE
8
BLACK
6
CONTINUOUS
10
74.9258
20
-101.623
11
74.9988
21
-101.738
0
LINE
8
BLACK
6
CONTINUOUS
10
74.9988
20
-101.738
11
75.0418
21
-101.867
0
LINE
8
BLACK
6
CONTINUOUS
10
75.0418
20
-101.867
11
75.0522
21
-102.002
0
LINE
8
BLACK
6
CONTINUOUS
10
75.0522
20
-102.002
11
75.0294
21
-102.136
0
LINE
8
BLACK
6
CONTINUOUS
10
75.0294
20
-102.136
11
74.9757
21
-102.259
0
LINE
8
BLACK
6
CONTINUOUS
10
74.9757
20
-102.259
11
74.9756
21
-102.259
0
LINE
8
BLACK
6
CONTINUOUS
10
74.9756
20
-102.259
11
66.5337
21
-118.899
0
LINE
8
BLACK
6
CONTINUOUS
10
66.5337
20
-118.899
11
66.5337
21
-118.899
0
LINE
8
BLACK
6
CONTINUOUS
10
66.5337
20
-118.899
11
66.5337
21
-118.899
0
LINE
8
BLACK
6
CONTINUOUS
10
66.5337
20
-118.899
11
66.5288
21
-118.903
0
LINE
8
BLACK
6
CONTINUOUS
10
66.5288
20
-118.903
11
66.4949
21
-118.996
0
LINE
8
BLACK
6
CONTINUOUS
10
66.4949
20
-118.996
11
66.4838
21
-119.1
0
LINE
8
BLACK
6
CONTINUOUS
10
66.4838
20
-119.1
11
66.4982
21
-119.204
0
LINE
8
BLACK
6
CONTINUOUS
10
66.4982
20
-119.204
11
66.5372
21
-119.301
0
LINE
8
BLACK
6
CONTINUOUS
10
66.5372
20
-119.301
11
66.5986
21
-119.386
0
LINE
8
BLACK
6
CONTINUOUS
10
66.5986
20
-119.386
11
66.6786
21
-119.453
0
LINE
8
BLACK
6
CONTINUOUS
10
66.6786
20
-119.453
11
66.7673
21
-119.497
0
LINE
8
BLACK
6
CONTINUOUS
10
66.7673
20
-119.497
11
66.7736
21
-119.496
0
LINE
8
BLACK
6
CONTINUOUS
10
66.7736
20
-119.496
11
66.775
21
-119.498
0
LINE
8
BLACK
6
CONTINUOUS
10
66.775
20
-119.498
11
66.7767
21
-119.498
0
LINE
8
BLACK
6
CONTINUOUS
10
66.7767
20
-119.498
11
83.3466
21
-127.88
0
LINE
8
BLACK
6
CONTINUOUS
10
83.3466
20
-127.88
11
83.3474
21
-127.881
0
LINE
8
BLACK
6
CONTINUOUS
10
83.3474
20
-127.881
11
83.3486
21
-127.881
0
LINE
8
BLACK
6
CONTINUOUS
10
83.3486
20
-127.881
11
83.4203
21
-127.94
0
LINE
8
BLACK
6
CONTINUOUS
10
83.4203
20
-127.94
11
83.4746
21
-128.015
0
LINE
8
BLACK
6
CONTINUOUS
10
83.4746
20
-128.015
11
83.5077
21
-128.102
0
LINE
8
BLACK
6
CONTINUOUS
10
83.5077
20
-128.102
11
83.5175
21
-128.194
0
LINE
8
BLACK
6
CONTINUOUS
10
83.5175
20
-128.194
11
83.5034
21
-128.285
0
LINE
8
BLACK
6
CONTINUOUS
10
83.5034
20
-128.285
11
83.4673
21
-128.368
0
LINE
8
BLACK
6
CONTINUOUS
10
83.4673
20
-128.368
11
83.4673
21
-128.368
0
LINE
8
BLACK
6
CONTINUOUS
10
83.4673
20
-128.368
11
81.8352
21
-131.722
0
LINE
8
BLACK
6
CONTINUOUS
10
81.8352
20
-131.722
11
81.8345
21
-131.722
0
LINE
8
BLACK
6
CONTINUOUS
10
81.8345
20
-131.722
11
81.8344
21
-131.723
0
LINE
8
BLACK
6
CONTINUOUS
10
81.8344
20
-131.723
11
81.8294
21
-131.727
0
LINE
8
BLACK
6
CONTINUOUS
10
81.8294
20
-131.727
11
81.7937
21
-131.813
0
LINE
8
BLACK
6
CONTINUOUS
10
81.7937
20
-131.813
11
81.7809
21
-131.911
0
LINE
8
BLACK
6
CONTINUOUS
10
81.7809
20
-131.911
11
81.7941
21
-132.009
0
LINE
8
BLACK
6
CONTINUOUS
10
81.7941
20
-132.009
11
81.8324
21
-132.099
0
LINE
8
BLACK
6
CONTINUOUS
10
81.8324
20
-132.099
11
81.8933
21
-132.177
0
LINE
8
BLACK
6
CONTINUOUS
10
81.8933
20
-132.177
11
81.9673
21
-132.233
0
LINE
8
BLACK
6
CONTINUOUS
10
81.9673
20
-132.233
11
81.973
21
-132.233
0
LINE
8
BLACK
6
CONTINUOUS
10
81.973
20
-132.233
11
99.3487
21
-141.088
0
LINE
8
BLACK
6
CONTINUOUS
10
99.3487
20
-141.088
11
99.3488
21
-141.088
0
LINE
8
BLACK
6
CONTINUOUS
10
99.3488
20
-141.088
11
99.3489
21
-141.088
0
LINE
8
BLACK
6
CONTINUOUS
10
99.3489
20
-141.088
11
110.525
21
-146.93
0
LINE
8
BLACK
6
CONTINUOUS
10
110.525
20
-146.93
11
110.525
21
-146.93
0
LINE
8
BLACK
6
CONTINUOUS
10
110.525
20
-146.93
11
110.624
21
-146.985
0
LINE
8
BLACK
6
CONTINUOUS
10
110.624
20
-146.985
11
110.708
21
-147.064
0
LINE
8
BLACK
6
CONTINUOUS
10
110.708
20
-147.064
11
110.769
21
-147.162
0
LINE
8
BLACK
6
CONTINUOUS
10
110.769
20
-147.162
11
110.804
21
-147.272
0
LINE
8
BLACK
6
CONTINUOUS
10
110.804
20
-147.272
11
110.811
21
-147.385
0
LINE
8
BLACK
6
CONTINUOUS
10
110.811
20
-147.385
11
110.811
21
-147.385
0
LINE
8
BLACK
6
CONTINUOUS
10
110.811
20
-147.385
11
110.808
21
-159.906
0
LINE
8
BLACK
6
CONTINUOUS
10
110.808
20
-159.906
11
110.806
21
-159.911
0
LINE
8
BLACK
6
CONTINUOUS
10
110.806
20
-159.911
11
110.817
21
-159.974
0
LINE
8
BLACK
6
CONTINUOUS
10
110.817
20
-159.974
11
110.848
21
-160.037
0
LINE
8
BLACK
6
CONTINUOUS
10
110.848
20
-160.037
11
110.895
21
-160.088
0
LINE
8
BLACK
6
CONTINUOUS
10
110.895
20
-160.088
11
110.955
21
-160.122
0
LINE
8
BLACK
6
CONTINUOUS
10
110.955
20
-160.122
11
111.018
21
-160.137
0
LINE
8
BLACK
6
CONTINUOUS
10
111.018
20
-160.137
11
111.023
21
-160.135
0
LINE
8
BLACK
6
CONTINUOUS
10
111.023
20
-160.135
11
111.024
21
-160.136
0
LINE
8
BLACK
6
CONTINUOUS
10
111.024
20
-160.136
11
111.025
21
-160.135
0
LINE
8
BLACK
6
CONTINUOUS
10
111.025
20
-160.135
11
111.033
21
-160.14
0
LINE
8
BLACK
6
CONTINUOUS
10
111.033
20
-160.14
11
111.036
21
-160.142
0
LINE
8
BLACK
6
CONTINUOUS
10
111.036
20
-160.142
11
114.031
21
-160.598
0
LINE
8
BLACK
6
CONTINUOUS
10
114.031
20
-160.598
11
117.043
21
-161.02
0
LINE
8
BLACK
6
CONTINUOUS
10
117.043
20
-161.02
11
120.06
21
-161.407
0
LINE
8
BLACK
6
CONTINUOUS
10
120.06
20
-161.407
11
123.082
21
-161.758
0
LINE
8
BLACK
6
CONTINUOUS
10
123.082
20
-161.758
11
126.107
21
-162.073
0
LINE
8
BLACK
6
CONTINUOUS
10
126.107
20
-162.073
11
129.135
21
-162.352
0
LINE
8
BLACK
6
CONTINUOUS
10
129.135
20
-162.352
11
132.167
21
-162.596
0
LINE
8
BLACK
6
CONTINUOUS
10
132.167
20
-162.596
11
135.202
21
-162.804
0
LINE
8
BLACK
6
CONTINUOUS
10
135.202
20
-162.804
11
138.238
21
-162.975
0
LINE
8
BLACK
6
CONTINUOUS
10
138.238
20
-162.975
11
141.277
21
-163.111
0
LINE
8
BLACK
6
CONTINUOUS
10
141.277
20
-163.111
11
144.317
21
-163.211
0
LINE
8
BLACK
6
CONTINUOUS
10
144.317
20
-163.211
11
147.357
21
-163.275
0
LINE
8
BLACK
6
CONTINUOUS
10
147.357
20
-163.275
11
150.399
21
-163.302
0
LINE
8
BLACK
6
CONTINUOUS
10
150.399
20
-163.302
11
153.44
21
-163.294
0
LINE
8
BLACK
6
CONTINUOUS
10
153.44
20
-163.294
11
156.482
21
-163.25
0
LINE
8
BLACK
6
CONTINUOUS
10
156.482
20
-163.25
11
159.522
21
-163.17
0
LINE
8
BLACK
6
CONTINUOUS
10
159.522
20
-163.17
11
162.561
21
-163.054
0
LINE
8
BLACK
6
CONTINUOUS
10
162.561
20
-163.054
11
165.599
21
-162.902
0
LINE
8
BLACK
6
CONTINUOUS
10
165.599
20
-162.902
11
168.635
21
-162.714
0
LINE
8
BLACK
6
CONTINUOUS
10
168.635
20
-162.714
11
171.668
21
-162.49
0
LINE
8
BLACK
6
CONTINUOUS
10
171.668
20
-162.49
11
174.698
21
-162.23
0
LINE
8
BLACK
6
CONTINUOUS
10
174.698
20
-162.23
11
177.726
21
-161.934
0
LINE
8
BLACK
6
CONTINUOUS
10
177.726
20
-161.934
11
180.749
21
-161.603
0
LINE
8
BLACK
6
CONTINUOUS
10
180.749
20
-161.603
11
183.768
21
-161.235
0
LINE
8
BLACK
6
CONTINUOUS
10
183.768
20
-161.235
11
186.783
21
-160.832
0
LINE
8
BLACK
6
CONTINUOUS
10
186.783
20
-160.832
11
189.781
21
-160.395
0
LINE
8
BLACK
6
CONTINUOUS
10
189.781
20
-160.395
11
189.785
21
-160.394
0
LINE
8
BLACK
6
CONTINUOUS
10
189.785
20
-160.394
11
189.792
21
-160.389
0
LINE
8
BLACK
6
CONTINUOUS
10
189.792
20
-160.389
11
189.793
21
-160.39
0
LINE
8
BLACK
6
CONTINUOUS
10
189.793
20
-160.39
11
189.794
21
-160.389
0
LINE
8
BLACK
6
CONTINUOUS
10
189.794
20
-160.389
11
189.799
21
-160.391
0
LINE
8
BLACK
6
CONTINUOUS
10
189.799
20
-160.391
11
189.862
21
-160.376
0
LINE
8
BLACK
6
CONTINUOUS
10
189.862
20
-160.376
11
189.922
21
-160.341
0
LINE
8
BLACK
6
CONTINUOUS
10
189.922
20
-160.341
11
189.97
21
-160.291
0
LINE
8
BLACK
6
CONTINUOUS
10
189.97
20
-160.291
11
190
21
-160.228
0
LINE
8
BLACK
6
CONTINUOUS
10
190
20
-160.228
11
190.011
21
-160.165
0
LINE
8
BLACK
6
CONTINUOUS
10
190.011
20
-160.165
11
190.009
21
-160.16
0
LINE
8
BLACK
6
CONTINUOUS
10
190.009
20
-160.16
11
190.006
21
-147.639
0
LINE
8
BLACK
6
CONTINUOUS
10
190.006
20
-147.639
11
190.006
21
-147.639
0
LINE
8
BLACK
6
CONTINUOUS
10
190.006
20
-147.639
11
190.013
21
-147.526
0
LINE
8
BLACK
6
CONTINUOUS
10
190.013
20
-147.526
11
190.048
21
-147.416
0
LINE
8
BLACK
6
CONTINUOUS
10
190.048
20
-147.416
11
190.11
21
-147.318
0
LINE
8
BLACK
6
CONTINUOUS
10
190.11
20
-147.318
11
190.194
21
-147.239
0
LINE
8
BLACK
6
CONTINUOUS
10
190.194
20
-147.239
11
190.292
21
-147.184
0
LINE
8
BLACK
6
CONTINUOUS
10
190.292
20
-147.184
11
190.292
21
-147.184
0
LINE
8
BLACK
6
CONTINUOUS
10
190.292
20
-147.184
11
201.468
21
-141.342
0
LINE
8
BLACK
6
CONTINUOUS
10
201.468
20
-141.342
11
201.468
21
-141.342
0
LINE
8
BLACK
6
CONTINUOUS
10
201.468
20
-141.342
11
201.468
21
-141.342
0
LINE
8
BLACK
6
CONTINUOUS
10
201.468
20
-141.342
11
218.844
21
-132.487
0
LINE
8
BLACK
6
CONTINUOUS
10
218.844
20
-132.487
11
218.85
21
-132.487
0
LINE
8
BLACK
6
CONTINUOUS
10
218.85
20
-132.487
11
218.924
21
-132.431
0
LINE
8
BLACK
6
CONTINUOUS
10
218.924
20
-132.431
11
218.984
21
-132.353
0
LINE
8
BLACK
6
CONTINUOUS
10
218.984
20
-132.353
11
219.023
21
-132.262
0
LINE
8
BLACK
6
CONTINUOUS
10
219.023
20
-132.262
11
219.036
21
-132.165
0
LINE
8
BLACK
6
CONTINUOUS
10
219.036
20
-132.165
11
219.023
21
-132.067
0
LINE
8
BLACK
6
CONTINUOUS
10
219.023
20
-132.067
11
218.988
21
-131.981
0
LINE
8
BLACK
6
CONTINUOUS
10
218.988
20
-131.981
11
218.983
21
-131.977
0
LINE
8
BLACK
6
CONTINUOUS
10
218.983
20
-131.977
11
218.983
21
-131.976
0
LINE
8
BLACK
6
CONTINUOUS
10
218.983
20
-131.976
11
218.982
21
-131.976
0
LINE
8
BLACK
6
CONTINUOUS
10
218.982
20
-131.976
11
217.35
21
-128.622
0
LINE
8
BLACK
6
CONTINUOUS
10
217.35
20
-128.622
11
217.35
21
-128.622
0
LINE
8
BLACK
6
CONTINUOUS
10
217.35
20
-128.622
11
217.314
21
-128.539
0
LINE
8
BLACK
6
CONTINUOUS
10
217.314
20
-128.539
11
217.3
21
-128.448
0
LINE
8
BLACK
6
CONTINUOUS
10
217.3
20
-128.448
11
217.309
21
-128.356
0
LINE
8
BLACK
6
CONTINUOUS
10
217.309
20
-128.356
11
217.343
21
-128.269
0
LINE
8
BLACK
6
CONTINUOUS
10
217.343
20
-128.269
11
217.397
21
-128.194
0
LINE
8
BLACK
6
CONTINUOUS
10
217.397
20
-128.194
11
217.469
21
-128.135
0
LINE
8
BLACK
6
CONTINUOUS
10
217.469
20
-128.135
11
217.469
21
-128.135
0
LINE
8
BLACK
6
CONTINUOUS
10
217.469
20
-128.135
11
217.47
21
-128.135
0
LINE
8
BLACK
6
CONTINUOUS
10
217.47
20
-128.135
11
217.471
21
-128.134
0
LINE
8
BLACK
6
CONTINUOUS
10
217.471
20
-128.134
11
234.04
21
-119.752
0
LINE
8
BLACK
6
CONTINUOUS
10
234.04
20
-119.752
11
234.042
21
-119.752
0
LINE
8
BLACK
6
CONTINUOUS
10
234.042
20
-119.752
11
234.044
21
-119.75
0
LINE
8
BLACK
6
CONTINUOUS
10
234.044
20
-119.75
11
234.05
21
-119.751
0
LINE
8
BLACK
6
CONTINUOUS
10
234.05
20
-119.751
11
234.138
21
-119.707
0
LINE
8
BLACK
6
CONTINUOUS
10
234.138
20
-119.707
11
234.219
21
-119.64
0
LINE
8
BLACK
6
CONTINUOUS
10
234.219
20
-119.64
11
234.28
21
-119.555
0
LINE
8
BLACK
6
CONTINUOUS
10
234.28
20
-119.555
11
234.319
21
-119.458
0
LINE
8
BLACK
6
CONTINUOUS
10
234.319
20
-119.458
11
234.333
21
-119.354
0
LINE
8
BLACK
6
CONTINUOUS
10
234.333
20
-119.354
11
234.322
21
-119.25
0
LINE
8
BLACK
6
CONTINUOUS
10
234.322
20
-119.25
11
234.288
21
-119.157
0
LINE
8
BLACK
6
CONTINUOUS
10
234.288
20
-119.157
11
234.283
21
-119.153
0
LINE
8
BLACK
6
CONTINUOUS
10
234.283
20
-119.153
11
234.283
21
-119.153
0
LINE
8
BLACK
6
CONTINUOUS
10
234.283
20
-119.153
11
234.283
21
-119.153
0
LINE
8
BLACK
6
CONTINUOUS
10
234.283
20
-119.153
11
225.842
21
-102.513
0
LINE
8
BLACK
6
CONTINUOUS
10
225.842
20
-102.513
11
225.841
21
-102.513
0
LINE
8
BLACK
6
CONTINUOUS
10
225.841
20
-102.513
11
225.788
21
-102.39
0
LINE
8
BLACK
6
CONTINUOUS
10
225.788
20
-102.39
11
225.765
21
-102.256
0
LINE
8
BLACK
6
CONTINUOUS
10
225.765
20
-102.256
11
225.775
21
-102.121
0
LINE
8
BLACK
6
CONTINUOUS
10
225.775
20
-102.121
11
225.818
21
-101.992
0
LINE
8
BLACK
6
CONTINUOUS
10
225.818
20
-101.992
11
225.891
21
-101.877
0
LINE
8
BLACK
6
CONTINUOUS
10
225.891
20
-101.877
11
225.99
21
-101.784
0
LINE
8
BLACK
6
CONTINUOUS
10
225.99
20
-101.784
11
226.108
21
-101.717
0
LINE
8
BLACK
6
CONTINUOUS
10
226.108
20
-101.717
11
226.108
21
-101.717
0
LINE
8
BLACK
6
CONTINUOUS
10
226.108
20
-101.717
11
265.052
21
-85.1659
0
LINE
8
BLACK
6
CONTINUOUS
10
265.052
20
-85.1659
11
265.057
21
-85.1658
0
LINE
8
BLACK
6
CONTINUOUS
10
265.057
20
-85.1658
11
265.126
21
-85.1234
0
LINE
8
BLACK
6
CONTINUOUS
10
265.126
20
-85.1234
11
265.185
21
-85.0604
0
LINE
8
BLACK
6
CONTINUOUS
10
265.185
20
-85.0604
11
265.226
21
-84.9841
0
LINE
8
BLACK
6
CONTINUOUS
10
265.226
20
-84.9841
11
265.244
21
-84.8999
0
LINE
8
BLACK
6
CONTINUOUS
10
265.244
20
-84.8999
11
265.24
21
-84.8137
0
LINE
8
BLACK
6
CONTINUOUS
10
265.24
20
-84.8137
11
265.215
21
-84.7365
0
LINE
8
BLACK
6
CONTINUOUS
10
265.215
20
-84.7365
11
265.211
21
-84.7329
0
LINE
8
BLACK
6
CONTINUOUS
10
265.211
20
-84.7329
11
265.211
21
-84.7321
0
LINE
8
BLACK
6
CONTINUOUS
10
265.211
20
-84.7321
11
265.211
21
-84.7316
0
LINE
8
BLACK
6
CONTINUOUS
10
265.211
20
-84.7316
11
262.163
21
-77.3656
0
LINE
8
BLACK
6
CONTINUOUS
10
262.163
20
-77.3656
11
262.163
21
-77.3647
0
LINE
8
BLACK
6
CONTINUOUS
10
262.163
20
-77.3647
11
262.162
21
-77.364
0
LINE
8
BLACK
6
CONTINUOUS
10
262.162
20
-77.364
11
262.162
21
-77.3639
0
LINE
8
BLACK
6
CONTINUOUS
10
262.162
20
-77.3639
11
262.136
21
-77.239
0
LINE
8
BLACK
6
CONTINUOUS
10
262.136
20
-77.239
11
262.138
21
-77.1113
0
LINE
8
BLACK
6
CONTINUOUS
10
262.138
20
-77.1113
11
262.168
21
-76.9872
0
LINE
8
BLACK
6
CONTINUOUS
10
262.168
20
-76.9872
11
262.225
21
-76.873
0
LINE
8
BLACK
6
CONTINUOUS
10
262.225
20
-76.873
11
262.306
21
-76.7743
0
LINE
8
BLACK
6
CONTINUOUS
10
262.306
20
-76.7743
11
262.407
21
-76.696
0
LINE
8
BLACK
6
CONTINUOUS
10
262.407
20
-76.696
11
262.523
21
-76.6422
0
LINE
8
BLACK
6
CONTINUOUS
10
262.523
20
-76.6422
11
262.523
21
-76.6423
0
LINE
8
BLACK
6
CONTINUOUS
10
262.523
20
-76.6423
11
262.523
21
-76.6423
0
LINE
8
BLACK
6
CONTINUOUS
10
262.523
20
-76.6423
11
262.524
21
-76.6423
0
LINE
8
BLACK
6
CONTINUOUS
10
262.524
20
-76.6423
11
262.524
21
-76.6418
0
LINE
8
BLACK
6
CONTINUOUS
10
262.524
20
-76.6418
11
280.41
21
-71.8778
0
LINE
8
BLACK
6
CONTINUOUS
10
280.41
20
-71.8778
11
280.416
21
-71.8786
0
LINE
8
BLACK
6
CONTINUOUS
10
280.416
20
-71.8786
11
280.521
21
-71.8241
0
LINE
8
BLACK
6
CONTINUOUS
10
280.521
20
-71.8241
11
280.614
21
-71.7398
0
LINE
8
BLACK
6
CONTINUOUS
10
280.614
20
-71.7398
11
280.683
21
-71.6346
0
LINE
8
BLACK
6
CONTINUOUS
10
280.683
20
-71.6346
11
280.723
21
-71.5154
0
LINE
8
BLACK
6
CONTINUOUS
10
280.723
20
-71.5154
11
280.731
21
-71.3901
0
LINE
8
BLACK
6
CONTINUOUS
10
280.731
20
-71.3901
11
280.709
21
-71.2737
0
LINE
8
BLACK
6
CONTINUOUS
10
280.709
20
-71.2737
11
280.704
21
-71.2678
0
LINE
8
BLACK
6
CONTINUOUS
10
280.704
20
-71.2678
11
280.704
21
-71.2671
0
LINE
8
BLACK
6
CONTINUOUS
10
280.704
20
-71.2671
11
280.704
21
-71.2665
0
LINE
8
BLACK
6
CONTINUOUS
10
280.704
20
-71.2665
11
270.544
21
-32.9445
0
LINE
8
BLACK
6
CONTINUOUS
10
270.544
20
-32.9445
11
270.544
21
-32.944
0
LINE
8
BLACK
6
CONTINUOUS
10
270.544
20
-32.944
11
270.543
21
-32.9437
0
LINE
8
BLACK
6
CONTINUOUS
10
270.543
20
-32.9437
11
270.545
21
-32.9361
0
LINE
8
BLACK
6
CONTINUOUS
10
270.545
20
-32.9361
11
270.501
21
-32.8112
0
LINE
8
BLACK
6
CONTINUOUS
10
270.501
20
-32.8112
11
270.429
21
-32.6924
0
LINE
8
BLACK
6
CONTINUOUS
10
270.429
20
-32.6924
11
270.332
21
-32.592
0
LINE
8
BLACK
6
CONTINUOUS
10
270.332
20
-32.592
11
270.216
21
-32.5147
0
LINE
8
BLACK
6
CONTINUOUS
10
270.216
20
-32.5147
11
270.086
21
-32.4641
0
LINE
8
BLACK
6
CONTINUOUS
10
270.086
20
-32.4641
11
269.948
21
-32.4425
0
LINE
8
BLACK
6
CONTINUOUS
10
269.948
20
-32.4425
11
269.817
21
-32.4505
0
LINE
8
BLACK
6
CONTINUOUS
10
269.817
20
-32.4505
11
269.812
21
-32.4542
0
LINE
8
BLACK
6
CONTINUOUS
10
269.812
20
-32.4542
11
253.332
21
-36.8519
0
LINE
8
BLACK
6
CONTINUOUS
10
253.332
20
-36.8519
11
253.332
21
-36.8519
0
LINE
8
BLACK
6
CONTINUOUS
10
253.332
20
-36.8519
11
253.183
21
-36.877
0
LINE
8
BLACK
6
CONTINUOUS
10
253.183
20
-36.877
11
253.033
21
-36.8702
0
LINE
8
BLACK
6
CONTINUOUS
10
253.033
20
-36.8702
11
252.887
21
-36.8318
0
LINE
8
BLACK
6
CONTINUOUS
10
252.887
20
-36.8318
11
252.752
21
-36.7635
0
LINE
8
BLACK
6
CONTINUOUS
10
252.752
20
-36.7635
11
252.637
21
-36.6695
0
LINE
8
BLACK
6
CONTINUOUS
10
252.637
20
-36.6695
11
252.637
21
-36.6694
0
LINE
8
BLACK
6
CONTINUOUS
10
252.637
20
-36.6694
11
244.307
21
-29.2755
0
LINE
8
BLACK
6
CONTINUOUS
10
244.307
20
-29.2755
11
244.304
21
-29.27
0
LINE
8
BLACK
6
CONTINUOUS
10
244.304
20
-29.27
11
244.219
21
-29.2112
0
LINE
8
BLACK
6
CONTINUOUS
10
244.219
20
-29.2112
11
244.117
21
-29.1711
0
LINE
8
BLACK
6
CONTINUOUS
10
244.117
20
-29.1711
11
244.008
21
-29.155
0
LINE
8
BLACK
6
CONTINUOUS
10
244.008
20
-29.155
11
243.899
21
-29.1639
0
LINE
8
BLACK
6
CONTINUOUS
10
243.899
20
-29.1639
11
243.8
21
-29.1954
0
LINE
8
BLACK
6
CONTINUOUS
10
243.8
20
-29.1954
11
243.796
21
-29.1999
0
LINE
8
BLACK
6
CONTINUOUS
10
243.796
20
-29.1999
11
243.796
21
-29.1999
0
LINE
8
BLACK
6
CONTINUOUS
10
243.796
20
-29.1999
11
243.795
21
-29.2003
0
LINE
8
BLACK
6
CONTINUOUS
10
243.795
20
-29.2003
11
222.615
21
-37.7872
0
LINE
8
BLACK
6
CONTINUOUS
10
222.615
20
-37.7872
11
222.614
21
-37.7872
0
LINE
8
BLACK
6
CONTINUOUS
10
222.614
20
-37.7872
11
222.613
21
-37.7879
0
LINE
8
BLACK
6
CONTINUOUS
10
222.613
20
-37.7879
11
222.498
21
-37.8097
0
LINE
8
BLACK
6
CONTINUOUS
10
222.498
20
-37.8097
11
222.381
21
-37.8027
0
LINE
8
BLACK
6
CONTINUOUS
10
222.381
20
-37.8027
11
222.27
21
-37.7672
0
LINE
8
BLACK
6
CONTINUOUS
10
222.27
20
-37.7672
11
222.17
21
-37.7055
0
LINE
8
BLACK
6
CONTINUOUS
10
222.17
20
-37.7055
11
222.089
21
-37.6213
0
LINE
8
BLACK
6
CONTINUOUS
10
222.089
20
-37.6213
11
222.032
21
-37.5221
0
LINE
8
BLACK
6
CONTINUOUS
10
222.032
20
-37.5221
11
222.032
21
-37.5218
0
LINE
8
BLACK
6
CONTINUOUS
10
222.032
20
-37.5218
11
220
21
-33.7118
0
LINE
8
BLACK
6
CONTINUOUS
10
220
20
-33.7118
11
220
21
-33.7113
0
LINE
8
BLACK
6
CONTINUOUS
10
220
20
-33.7113
11
219.999
21
-33.7109
0
LINE
8
BLACK
6
CONTINUOUS
10
219.999
20
-33.7109
11
219.999
21
-33.7035
0
LINE
8
BLACK
6
CONTINUOUS
10
219.999
20
-33.7035
11
219.939
21
-33.6121
0
LINE
8
BLACK
6
CONTINUOUS
10
219.939
20
-33.6121
11
219.852
21
-33.5348
0
LINE
8
BLACK
6
CONTINUOUS
10
219.852
20
-33.5348
11
219.748
21
-33.4827
0
LINE
8
BLACK
6
CONTINUOUS
10
219.748
20
-33.4827
11
219.634
21
-33.4596
0
LINE
8
BLACK
6
CONTINUOUS
10
219.634
20
-33.4596
11
219.527
21
-33.4663
0
LINE
8
BLACK
6
CONTINUOUS
10
219.527
20
-33.4663
11
219.525
21
-33.4684
0
LINE
8
BLACK
6
CONTINUOUS
10
219.525
20
-33.4684
11
193.109
21
-46.9304
0
LINE
8
BLACK
6
CONTINUOUS
10
193.109
20
-46.9304
11
193.105
21
-46.9307
0
LINE
8
BLACK
6
CONTINUOUS
10
193.105
20
-46.9307
11
193.101
21
-46.9328
0
LINE
8
BLACK
6
CONTINUOUS
10
193.101
20
-46.9328
11
193.101
21
-46.9328
0
LINE
8
BLACK
6
CONTINUOUS
10
193.101
20
-46.9328
11
192.925
21
-46.9432
0
LINE
8
BLACK
6
CONTINUOUS
10
192.925
20
-46.9432
11
192.749
21
-46.9228
0
LINE
8
BLACK
6
CONTINUOUS
10
192.749
20
-46.9228
11
192.58
21
-46.8723
0
LINE
8
BLACK
6
CONTINUOUS
10
192.58
20
-46.8723
11
192.421
21
-46.7932
0
LINE
8
BLACK
6
CONTINUOUS
10
192.421
20
-46.7932
11
192.279
21
-46.6879
0
LINE
8
BLACK
6
CONTINUOUS
10
192.279
20
-46.6879
11
192.157
21
-46.5595
0
LINE
8
BLACK
6
CONTINUOUS
10
192.157
20
-46.5595
11
192.061
21
-46.4145
0
LINE
8
BLACK
6
CONTINUOUS
10
192.061
20
-46.4145
11
192.061
21
-46.4144
0
LINE
8
BLACK
6
CONTINUOUS
10
192.061
20
-46.4144
11
184.187
21
-35.2064
0
LINE
8
BLACK
6
CONTINUOUS
10
184.187
20
-35.2064
11
184.186
21
-35.1983
0
LINE
8
BLACK
6
CONTINUOUS
10
184.186
20
-35.1983
11
183.994
21
-34.9713
0
LINE
8
BLACK
6
CONTINUOUS
10
183.994
20
-34.9713
11
183.775
21
-34.7592
0
LINE
8
BLACK
6
CONTINUOUS
10
183.775
20
-34.7592
11
183.534
21
-34.5707
0
LINE
8
BLACK
6
CONTINUOUS
10
183.534
20
-34.5707
11
183.276
21
-34.4078
0
LINE
8
BLACK
6
CONTINUOUS
10
183.276
20
-34.4078
11
183.002
21
-34.2723
0
LINE
8
BLACK
6
CONTINUOUS
10
183.002
20
-34.2723
11
182.716
21
-34.1655
0
LINE
8
BLACK
6
CONTINUOUS
10
182.716
20
-34.1655
11
182.421
21
-34.0886
0
LINE
8
BLACK
6
CONTINUOUS
10
182.421
20
-34.0886
11
182.119
21
-34.0423
0
LINE
8
BLACK
6
CONTINUOUS
10
182.119
20
-34.0423
11
181.814
21
-34.0273
0
LINE
8
BLACK
6
CONTINUOUS
10
181.814
20
-34.0273
11
181.509
21
-34.0436
0
LINE
8
BLACK
6
CONTINUOUS
10
181.509
20
-34.0436
11
181.207
21
-34.091
0
LINE
8
BLACK
6
CONTINUOUS
10
181.207
20
-34.091
11
180.921
21
-34.1669
0
LINE
8
BLACK
6
CONTINUOUS
10
180.921
20
-34.1669
11
180.916
21
-34.1721
0
LINE
8
BLACK
6
CONTINUOUS
10
180.916
20
-34.1721
11
180.916
21
-34.1721
0
LINE
8
BLACK
6
CONTINUOUS
10
180.916
20
-34.1721
11
179.352
21
-34.8283
0
LINE
8
BLACK
6
CONTINUOUS
10
179.352
20
-34.8283
11
177.774
21
-35.45
0
LINE
8
BLACK
6
CONTINUOUS
10
177.774
20
-35.45
11
176.183
21
-36.0366
0
LINE
8
BLACK
6
CONTINUOUS
10
176.183
20
-36.0366
11
174.58
21
-36.588
0
LINE
8
BLACK
6
CONTINUOUS
10
174.58
20
-36.588
11
172.964
21
-37.1038
0
LINE
8
BLACK
6
CONTINUOUS
10
172.964
20
-37.1038
11
171.338
21
-37.5838
0
LINE
8
BLACK
6
CONTINUOUS
10
171.338
20
-37.5838
11
169.701
21
-38.0279
0
LINE
8
BLACK
6
CONTINUOUS
10
169.701
20
-38.0279
11
168.055
21
-38.4357
0
LINE
8
BLACK
6
CONTINUOUS
10
168.055
20
-38.4357
11
166.401
21
-38.807
0
LINE
8
BLACK
6
CONTINUOUS
10
166.401
20
-38.807
11
164.738
21
-39.1417
0
LINE
8
BLACK
6
CONTINUOUS
10
164.738
20
-39.1417
11
163.069
21
-39.4397
0
LINE
8
BLACK
6
CONTINUOUS
10
163.069
20
-39.4397
11
161.393
21
-39.7007
0
LINE
8
BLACK
6
CONTINUOUS
10
161.393
20
-39.7007
11
159.713
21
-39.9247
0
LINE
8
BLACK
6
CONTINUOUS
10
159.713
20
-39.9247
11
158.027
21
-40.1115
0
LINE
8
BLACK
6
CONTINUOUS
10
158.027
20
-40.1115
11
156.338
21
-40.2611
0
LINE
8
BLACK
6
CONTINUOUS
10
156.338
20
-40.2611
11
154.646
21
-40.3733
0
LINE
8
BLACK
6
CONTINUOUS
10
154.646
20
-40.3733
11
152.952
21
-40.4482
0
LINE
8
BLACK
6
CONTINUOUS
10
152.952
20
-40.4482
11
151.256
21
-40.4856
0
LINE
8
BLACK
6
CONTINUOUS
10
151.256
20
-40.4856
11
149.561
21
-40.4856
0
LINE
8
BLACK
6
CONTINUOUS
10
149.561
20
-40.4856
11
147.865
21
-40.4482
0
LINE
8
BLACK
6
CONTINUOUS
10
147.865
20
-40.4482
11
146.171
21
-40.3733
0
LINE
8
BLACK
6
CONTINUOUS
10
146.171
20
-40.3733
11
144.479
21
-40.2611
0
LINE
8
BLACK
6
CONTINUOUS
10
144.479
20
-40.2611
11
142.79
21
-40.1115
0
LINE
8
BLACK
6
CONTINUOUS
10
142.79
20
-40.1115
11
141.105
21
-39.9247
0
LINE
8
BLACK
6
CONTINUOUS
10
141.105
20
-39.9247
11
139.424
21
-39.7007
0
LINE
8
BLACK
6
CONTINUOUS
10
139.424
20
-39.7007
11
137.748
21
-39.4397
0
LINE
8
BLACK
6
CONTINUOUS
10
137.748
20
-39.4397
11
136.079
21
-39.1417
0
LINE
8
BLACK
6
CONTINUOUS
10
136.079
20
-39.1417
11
134.416
21
-38.807
0
LINE
8
BLACK
6
CONTINUOUS
10
134.416
20
-38.807
11
132.762
21
-38.4357
0
LINE
8
BLACK
6
CONTINUOUS
10
132.762
20
-38.4357
11
131.116
21
-38.0279
0
LINE
8
BLACK
6
CONTINUOUS
10
131.116
20
-38.0279
11
129.479
21
-37.5838
0
LINE
8
BLACK
6
CONTINUOUS
10
129.479
20
-37.5838
11
127.853
21
-37.1038
0
LINE
8
BLACK
6
CONTINUOUS
10
127.853
20
-37.1038
11
126.237
21
-36.588
0
LINE
8
BLACK
6
CONTINUOUS
10
126.237
20
-36.588
11
124.634
21
-36.0366
0
LINE
8
BLACK
6
CONTINUOUS
10
124.634
20
-36.0366
11
123.043
21
-35.45
0
LINE
8
BLACK
6
CONTINUOUS
10
123.043
20
-35.45
11
121.465
21
-34.8283
0
LINE
8
BLACK
6
CONTINUOUS
10
121.465
20
-34.8283
11
119.901
21
-34.1721
0
LINE
8
BLACK
6
CONTINUOUS
10
119.901
20
-34.1721
11
119.901
21
-34.1721
0
LINE
8
BLACK
6
CONTINUOUS
10
119.901
20
-34.1721
11
119.896
21
-34.1662
0
LINE
8
BLACK
6
CONTINUOUS
10
119.896
20
-34.1662
11
119.583
21
-34.0891
0
LINE
8
BLACK
6
CONTINUOUS
10
119.583
20
-34.0891
11
119.253
21
-34.0453
0
LINE
8
BLACK
6
CONTINUOUS
10
119.253
20
-34.0453
11
118.921
21
-34.0378
0
LINE
8
BLACK
6
CONTINUOUS
10
118.921
20
-34.0378
11
118.59
21
-34.0667
0
LINE
8
BLACK
6
CONTINUOUS
10
118.59
20
-34.0667
11
118.264
21
-34.1315
0
LINE
8
BLACK
6
CONTINUOUS
10
118.264
20
-34.1315
11
117.947
21
-34.2316
0
LINE
8
BLACK
6
CONTINUOUS
10
117.947
20
-34.2316
11
117.643
21
-34.3657
0
LINE
8
BLACK
6
CONTINUOUS
10
117.643
20
-34.3657
11
117.356
21
-34.5322
0
LINE
8
BLACK
6
CONTINUOUS
10
117.356
20
-34.5322
11
117.088
21
-34.7292
0
LINE
8
BLACK
6
CONTINUOUS
10
117.088
20
-34.7292
11
116.844
21
-34.9542
0
LINE
8
BLACK
6
CONTINUOUS
10
116.844
20
-34.9542
11
116.632
21
-35.1972
0
LINE
8
BLACK
6
CONTINUOUS
10
116.632
20
-35.1972
11
116.632
21
-35.1977
0
LINE
8
BLACK
6
CONTINUOUS
10
116.632
20
-35.1977
11
116.63
21
-35.2064
0
LINE
8
BLACK
6
CONTINUOUS
10
116.63
20
-35.2064
11
108.756
21
-46.4144
0
LINE
8
BLACK
6
CONTINUOUS
10
108.756
20
-46.4144
11
108.754
21
-46.4159
0
LINE
8
BLACK
6
CONTINUOUS
10
108.754
20
-46.4159
11
108.752
21
-46.4183
0
LINE
8
BLACK
6
CONTINUOUS
10
108.752
20
-46.4183
11
108.606
21
-46.5341
0
LINE
8
BLACK
6
CONTINUOUS
10
108.606
20
-46.5341
11
108.443
21
-46.6236
0
LINE
8
BLACK
6
CONTINUOUS
10
108.443
20
-46.6236
11
108.267
21
-46.684
0
LINE
8
BLACK
6
CONTINUOUS
10
108.267
20
-46.684
11
108.083
21
-46.7136
0
LINE
8
BLACK
6
CONTINUOUS
10
108.083
20
-46.7136
11
107.896
21
-46.7117
0
LINE
8
BLACK
6
CONTINUOUS
10
107.896
20
-46.7117
11
107.713
21
-46.6782
0
LINE
8
BLACK
6
CONTINUOUS
10
107.713
20
-46.6782
11
107.713
21
-46.6782
0
LINE
8
BLACK
6
CONTINUOUS
10
107.713
20
-46.6782
11
107.711
21
-46.6766
0
LINE
8
BLACK
6
CONTINUOUS
10
107.711
20
-46.6766
11
107.708
21
-46.6764
0
LINE
8
BLACK
6
CONTINUOUS
10
107.708
20
-46.6764
11
81.292
21
-33.2143
0
LINE
8
BLACK
6
CONTINUOUS
10
81.292
20
-33.2143
11
81.2903
21
-33.2123
0
LINE
8
BLACK
6
CONTINUOUS
10
81.2903
20
-33.2123
11
81.1832
21
-33.2056
0
LINE
8
BLACK
6
CONTINUOUS
10
81.1832
20
-33.2056
11
81.0692
21
-33.2288
0
LINE
8
BLACK
6
CONTINUOUS
10
81.0692
20
-33.2288
11
80.9652
21
-33.2808
0
LINE
8
BLACK
6
CONTINUOUS
10
80.9652
20
-33.2808
11
80.8783
21
-33.3581
0
LINE
8
BLACK
6
CONTINUOUS
10
80.8783
20
-33.3581
11
80.8183
21
-33.4494
0
LINE
8
BLACK
6
CONTINUOUS
10
80.8183
20
-33.4494
11
80.8179
21
-33.4569
0
LINE
8
BLACK
6
CONTINUOUS
10
80.8179
20
-33.4569
11
80.8175
21
-33.4573
0
LINE
8
BLACK
6
CONTINUOUS
10
80.8175
20
-33.4573
11
80.8174
21
-33.4578
0
LINE
8
BLACK
6
CONTINUOUS
10
80.8174
20
-33.4578
11
78.7854
21
-37.2678
0
LINE
8
BLACK
6
CONTINUOUS
10
78.7854
20
-37.2678
11
78.785
21
-37.2682
0
LINE
8
BLACK
6
CONTINUOUS
10
78.785
20
-37.2682
11
78.7283
21
-37.3673
0
LINE
8
BLACK
6
CONTINUOUS
10
78.7283
20
-37.3673
11
78.647
21
-37.4515
0
LINE
8
BLACK
6
CONTINUOUS
10
78.647
20
-37.4515
11
78.5476
21
-37.5132
0
LINE
8
BLACK
6
CONTINUOUS
10
78.5476
20
-37.5132
11
78.4361
21
-37.5487
0
LINE
8
BLACK
6
CONTINUOUS
10
78.4361
20
-37.5487
11
78.3193
21
-37.5557
0
LINE
8
BLACK
6
CONTINUOUS
10
78.3193
20
-37.5557
11
78.2044
21
-37.5339
0
LINE
8
BLACK
6
CONTINUOUS
10
78.2044
20
-37.5339
11
78.2043
21
-37.5339
0
LINE
8
BLACK
6
CONTINUOUS
10
78.2043
20
-37.5339
11
78.2036
21
-37.5332
0
LINE
8
BLACK
6
CONTINUOUS
10
78.2036
20
-37.5332
11
78.2026
21
-37.5332
0
LINE
8
BLACK
6
CONTINUOUS
10
78.2026
20
-37.5332
11
57.0219
21
-28.9463
0
LINE
8
BLACK
6
CONTINUOUS
10
57.0219
20
-28.9463
11
57.0215
21
-28.9459
0
LINE
8
BLACK
6
CONTINUOUS
10
57.0215
20
-28.9459
11
57.021
21
-28.9459
0
LINE
8
BLACK
6
CONTINUOUS
10
57.021
20
-28.9459
11
57.0167
21
-28.9413
0
LINE
8
BLACK
6
CONTINUOUS
10
57.0167
20
-28.9413
11
56.9179
21
-28.9098
0
LINE
8
BLACK
6
CONTINUOUS
10
56.9179
20
-28.9098
11
56.8087
21
-28.901
0
LINE
8
BLACK
6
CONTINUOUS
10
56.8087
20
-28.901
11
56.7003
21
-28.9171
0
LINE
8
BLACK
6
CONTINUOUS
10
152.999
20
-159.632
11
152.981
21
-159.589
0
LINE
8
BLACK
6
CONTINUOUS
10
152.981
20
-159.589
11
152.981
21
-145.589
0
LINE
8
BLACK
6
CONTINUOUS
10
152.981
20
-145.589
11
152.999
21
-145.547
0
LINE
8
BLACK
6
CONTINUOUS
10
152.999
20
-145.547
11
153.041
21
-145.529
0
LINE
8
BLACK
6
CONTINUOUS
10
153.041
20
-145.529
11
167.041
21
-145.529
0
LINE
8
BLACK
6
CONTINUOUS
10
167.041
20
-145.529
11
167.083
21
-145.547
0
LINE
8
BLACK
6
CONTINUOUS
10
167.083
20
-145.547
11
167.101
21
-145.589
0
LINE
8
BLACK
6
CONTINUOUS
10
167.101
20
-145.589
11
167.101
21
-159.589
0
LINE
8
BLACK
6
CONTINUOUS
10
167.101
20
-159.589
11
167.083
21
-159.632
0
LINE
8
BLACK
6
CONTINUOUS
10
167.083
20
-159.632
11
167.041
21
-159.649
0
LINE
8
BLACK
6
CONTINUOUS
10
167.041
20
-159.649
11
153.041
21
-159.649
0
LINE
8
BLACK
6
CONTINUOUS
10
153.041
20
-159.649
11
152.999
21
-159.632
0
LINE
8
BLACK
6
CONTINUOUS
10
153.101
20
-145.649
11
153.101
21
-159.529
0
LINE
8
BLACK
6
CONTINUOUS
10
153.101
20
-159.529
11
166.981
21
-159.529
0
LINE
8
BLACK
6
CONTINUOUS
10
166.981
20
-159.529
11
166.981
21
-145.649
0
LINE
8
BLACK
6
CONTINUOUS
10
166.981
20
-145.649
11
153.101
21
-145.649
0
LINE
8
BLACK
6
CONTINUOUS
10
133.673
20
-159.629
11
133.655
21
-159.586
0
LINE
8
BLACK
6
CONTINUOUS
10
133.655
20
-159.586
11
133.655
21
-145.586
0
LINE
8
BLACK
6
CONTINUOUS
10
133.655
20
-145.586
11
133.673
21
-145.544
0
LINE
8
BLACK
6
CONTINUOUS
10
133.673
20
-145.544
11
133.715
21
-145.526
0
LINE
8
BLACK
6
CONTINUOUS
10
133.715
20
-145.526
11
147.715
21
-145.526
0
LINE
8
BLACK
6
CONTINUOUS
10
147.715
20
-145.526
11
147.758
21
-145.544
0
LINE
8
BLACK
6
CONTINUOUS
10
147.758
20
-145.544
11
147.775
21
-145.586
0
LINE
8
BLACK
6
CONTINUOUS
10
147.775
20
-145.586
11
147.775
21
-159.586
0
LINE
8
BLACK
6
CONTINUOUS
10
147.775
20
-159.586
11
147.758
21
-159.629
0
LINE
8
BLACK
6
CONTINUOUS
10
147.758
20
-159.629
11
147.715
21
-159.646
0
LINE
8
BLACK
6
CONTINUOUS
10
147.715
20
-159.646
11
133.715
21
-159.646
0
LINE
8
BLACK
6
CONTINUOUS
10
133.715
20
-159.646
11
133.673
21
-159.629
0
LINE
8
BLACK
6
CONTINUOUS
10
133.775
20
-145.646
11
133.775
21
-159.526
0
LINE
8
BLACK
6
CONTINUOUS
10
133.775
20
-159.526
11
147.655
21
-159.526
0
LINE
8
BLACK
6
CONTINUOUS
10
147.655
20
-159.526
11
147.655
21
-145.646
0
LINE
8
BLACK
6
CONTINUOUS
10
147.655
20
-145.646
11
133.775
21
-145.646
0
LINE
8
BLACK
6
CONTINUOUS
10
172.303
20
-157.854
11
172.285
21
-157.811
0
LINE
8
BLACK
6
CONTINUOUS
10
172.285
20
-157.811
11
172.285
21
-143.811
0
LINE
8
BLACK
6
CONTINUOUS
10
172.285
20
-143.811
11
172.303
21
-143.769
0
LINE
8
BLACK
6
CONTINUOUS
10
172.303
20
-143.769
11
172.345
21
-143.751
0
LINE
8
BLACK
6
CONTINUOUS
10
172.345
20
-143.751
11
186.345
21
-143.751
0
LINE
8
BLACK
6
CONTINUOUS
10
186.345
20
-143.751
11
186.387
21
-143.769
0
LINE
8
BLACK
6
CONTINUOUS
10
186.387
20
-143.769
11
186.405
21
-143.811
0
LINE
8
BLACK
6
CONTINUOUS
10
186.405
20
-143.811
11
186.405
21
-157.811
0
LINE
8
BLACK
6
CONTINUOUS
10
186.405
20
-157.811
11
186.387
21
-157.854
0
LINE
8
BLACK
6
CONTINUOUS
10
186.387
20
-157.854
11
186.345
21
-157.871
0
LINE
8
BLACK
6
CONTINUOUS
10
186.345
20
-157.871
11
172.345
21
-157.871
0
LINE
8
BLACK
6
CONTINUOUS
10
172.345
20
-157.871
11
172.303
21
-157.854
0
LINE
8
BLACK
6
CONTINUOUS
10
172.405
20
-143.871
11
172.405
21
-157.751
0
LINE
8
BLACK
6
CONTINUOUS
10
172.405
20
-157.751
11
186.285
21
-157.751
0
LINE
8
BLACK
6
CONTINUOUS
10
186.285
20
-157.751
11
186.285
21
-143.871
0
LINE
8
BLACK
6
CONTINUOUS
10
186.285
20
-143.871
11
172.405
21
-143.871
0
LINE
8
BLACK
6
CONTINUOUS
10
114.393
20
-157.512
11
114.375
21
-157.469
0
LINE
8
BLACK
6
CONTINUOUS
10
114.375
20
-157.469
11
114.375
21
-143.469
0
LINE
8
BLACK
6
CONTINUOUS
10
114.375
20
-143.469
11
114.393
21
-143.427
0
LINE
8
BLACK
6
CONTINUOUS
10
114.393
20
-143.427
11
114.435
21
-143.409
0
LINE
8
BLACK
6
CONTINUOUS
10
114.435
20
-143.409
11
128.435
21
-143.409
0
LINE
8
BLACK
6
CONTINUOUS
10
128.435
20
-143.409
11
128.478
21
-143.427
0
LINE
8
BLACK
6
CONTINUOUS
10
128.478
20
-143.427
11
128.495
21
-143.469
0
LINE
8
BLACK
6
CONTINUOUS
10
128.495
20
-143.469
11
128.495
21
-157.469
0
LINE
8
BLACK
6
CONTINUOUS
10
128.495
20
-157.469
11
128.478
21
-157.512
0
LINE
8
BLACK
6
CONTINUOUS
10
128.478
20
-157.512
11
128.435
21
-157.529
0
LINE
8
BLACK
6
CONTINUOUS
10
128.435
20
-157.529
11
114.435
21
-157.529
0
LINE
8
BLACK
6
CONTINUOUS
10
114.435
20
-157.529
11
114.393
21
-157.512
0
LINE
8
BLACK
6
CONTINUOUS
10
114.495
20
-143.529
11
114.495
21
-157.409
0
LINE
8
BLACK
6
CONTINUOUS
10
114.495
20
-157.409
11
128.375
21
-157.409
0
LINE
8
BLACK
6
CONTINUOUS
10
128.375
20
-157.409
11
128.375
21
-143.529
0
LINE
8
BLACK
6
CONTINUOUS
10
128.375
20
-143.529
11
114.495
21
-143.529
0
LINE
8
BLACK
6
CONTINUOUS
10
85.263
20
-130.918
11
85.2332
21
-130.883
0
LINE
8
BLACK
6
CONTINUOUS
10
85.2332
20
-130.883
11
85.2368
21
-130.837
0
LINE
8
BLACK
6
CONTINUOUS
10
85.2368
20
-130.837
11
91.5927
21
-118.363
0
LINE
8
BLACK
6
CONTINUOUS
10
91.5927
20
-118.363
11
91.6276
21
-118.333
0
LINE
8
BLACK
6
CONTINUOUS
10
91.6276
20
-118.333
11
91.6734
21
-118.337
0
LINE
8
BLACK
6
CONTINUOUS
10
91.6734
20
-118.337
11
91.6734
21
-118.337
0
LINE
8
BLACK
6
CONTINUOUS
10
91.6734
20
-118.337
11
104.147
21
-124.693
0
LINE
8
BLACK
6
CONTINUOUS
10
104.147
20
-124.693
11
104.147
21
-124.693
0
LINE
8
BLACK
6
CONTINUOUS
10
104.147
20
-124.693
11
104.17
21
-124.719
0
LINE
8
BLACK
6
CONTINUOUS
10
104.17
20
-124.719
11
104.177
21
-124.728
0
LINE
8
BLACK
6
CONTINUOUS
10
104.177
20
-124.728
11
104.174
21
-124.773
0
LINE
8
BLACK
6
CONTINUOUS
10
104.174
20
-124.773
11
104.174
21
-124.773
0
LINE
8
BLACK
6
CONTINUOUS
10
104.174
20
-124.773
11
97.8178
21
-137.247
0
LINE
8
BLACK
6
CONTINUOUS
10
97.8178
20
-137.247
11
97.8178
21
-137.247
0
LINE
8
BLACK
6
CONTINUOUS
10
97.8178
20
-137.247
11
97.7829
21
-137.277
0
LINE
8
BLACK
6
CONTINUOUS
10
97.7829
20
-137.277
11
97.7371
21
-137.274
0
LINE
8
BLACK
6
CONTINUOUS
10
97.7371
20
-137.274
11
85.263
21
-130.918
0
LINE
8
BLACK
6
CONTINUOUS
10
85.371
20
-130.838
11
97.7381
21
-137.14
0
LINE
8
BLACK
6
CONTINUOUS
10
97.7381
20
-137.14
11
104.04
21
-124.772
0
LINE
8
BLACK
6
CONTINUOUS
10
104.04
20
-124.772
11
91.6724
21
-118.471
0
LINE
8
BLACK
6
CONTINUOUS
10
91.6724
20
-118.471
11
85.371
21
-130.838
0
LINE
8
BLACK
6
CONTINUOUS
10
208.193
20
-118.289
11
208.193
21
-118.289
0
LINE
8
BLACK
6
CONTINUOUS
10
208.193
20
-118.289
11
214.549
21
-130.763
0
LINE
8
BLACK
6
CONTINUOUS
10
214.549
20
-130.763
11
214.549
21
-130.763
0
LINE
8
BLACK
6
CONTINUOUS
10
214.549
20
-130.763
11
214.549
21
-130.763
0
LINE
8
BLACK
6
CONTINUOUS
10
214.549
20
-130.763
11
214.553
21
-130.809
0
LINE
8
BLACK
6
CONTINUOUS
10
214.553
20
-130.809
11
214.523
21
-130.844
0
LINE
8
BLACK
6
CONTINUOUS
10
214.523
20
-130.844
11
214.523
21
-130.844
0
LINE
8
BLACK
6
CONTINUOUS
10
214.523
20
-130.844
11
202.049
21
-137.2
0
LINE
8
BLACK
6
CONTINUOUS
10
202.049
20
-137.2
11
202.049
21
-137.2
0
LINE
8
BLACK
6
CONTINUOUS
10
202.049
20
-137.2
11
202.003
21
-137.203
0
LINE
8
BLACK
6
CONTINUOUS
10
202.003
20
-137.203
11
201.968
21
-137.174
0
LINE
8
BLACK
6
CONTINUOUS
10
201.968
20
-137.174
11
195.612
21
-124.7
0
LINE
8
BLACK
6
CONTINUOUS
10
195.612
20
-124.7
11
195.609
21
-124.654
0
LINE
8
BLACK
6
CONTINUOUS
10
195.609
20
-124.654
11
195.638
21
-124.619
0
LINE
8
BLACK
6
CONTINUOUS
10
195.638
20
-124.619
11
208.113
21
-118.263
0
LINE
8
BLACK
6
CONTINUOUS
10
208.113
20
-118.263
11
208.158
21
-118.259
0
LINE
8
BLACK
6
CONTINUOUS
10
208.158
20
-118.259
11
208.193
21
-118.289
0
LINE
8
BLACK
6
CONTINUOUS
10
195.746
20
-124.699
11
202.048
21
-137.066
0
LINE
8
BLACK
6
CONTINUOUS
10
202.048
20
-137.066
11
214.415
21
-130.764
0
LINE
8
BLACK
6
CONTINUOUS
10
214.415
20
-130.764
11
208.114
21
-118.397
0
LINE
8
BLACK
6
CONTINUOUS
10
208.114
20
-118.397
11
195.746
21
-124.699
0
LINE
8
BLACK
6
CONTINUOUS
10
76.4007
20
-105.479
11
76.4007
21
-105.479
0
LINE
8
BLACK
6
CONTINUOUS
10
76.4007
20
-105.479
11
88.8748
21
-111.835
0
LINE
8
BLACK
6
CONTINUOUS
10
88.8748
20
-111.835
11
88.8748
21
-111.835
0
LINE
8
BLACK
6
CONTINUOUS
10
88.8748
20
-111.835
11
88.8807
21
-111.841
0
LINE
8
BLACK
6
CONTINUOUS
10
88.8807
20
-111.841
11
88.9046
21
-111.87
0
LINE
8
BLACK
6
CONTINUOUS
10
88.9046
20
-111.87
11
88.901
21
-111.915
0
LINE
8
BLACK
6
CONTINUOUS
10
88.901
20
-111.915
11
88.901
21
-111.915
0
LINE
8
BLACK
6
CONTINUOUS
10
88.901
20
-111.915
11
82.5452
21
-124.389
0
LINE
8
BLACK
6
CONTINUOUS
10
82.5452
20
-124.389
11
82.5452
21
-124.389
0
LINE
8
BLACK
6
CONTINUOUS
10
82.5452
20
-124.389
11
82.5102
21
-124.419
0
LINE
8
BLACK
6
CONTINUOUS
10
82.5102
20
-124.419
11
82.4645
21
-124.416
0
LINE
8
BLACK
6
CONTINUOUS
10
82.4645
20
-124.416
11
69.9904
21
-118.06
0
LINE
8
BLACK
6
CONTINUOUS
10
69.9904
20
-118.06
11
69.9605
21
-118.025
0
LINE
8
BLACK
6
CONTINUOUS
10
69.9605
20
-118.025
11
69.9641
21
-117.979
0
LINE
8
BLACK
6
CONTINUOUS
10
69.9641
20
-117.979
11
76.32
21
-105.505
0
LINE
8
BLACK
6
CONTINUOUS
10
76.32
20
-105.505
11
76.3549
21
-105.475
0
LINE
8
BLACK
6
CONTINUOUS
10
76.3549
20
-105.475
11
76.4007
21
-105.479
0
LINE
8
BLACK
6
CONTINUOUS
10
70.0983
20
-117.98
11
82.4655
21
-124.281
0
LINE
8
BLACK
6
CONTINUOUS
10
82.4655
20
-124.281
11
88.7669
21
-111.914
0
LINE
8
BLACK
6
CONTINUOUS
10
88.7669
20
-111.914
11
76.3997
21
-105.613
0
LINE
8
BLACK
6
CONTINUOUS
10
76.3997
20
-105.613
11
70.0983
21
-117.98
0
LINE
8
BLACK
6
CONTINUOUS
10
223.466
20
-105.431
11
223.466
21
-105.431
0
LINE
8
BLACK
6
CONTINUOUS
10
223.466
20
-105.431
11
229.822
21
-117.905
0
LINE
8
BLACK
6
CONTINUOUS
10
229.822
20
-117.905
11
229.822
21
-117.905
0
LINE
8
BLACK
6
CONTINUOUS
10
229.822
20
-117.905
11
229.822
21
-117.905
0
LINE
8
BLACK
6
CONTINUOUS
10
229.822
20
-117.905
11
229.825
21
-117.951
0
LINE
8
BLACK
6
CONTINUOUS
10
229.825
20
-117.951
11
229.796
21
-117.986
0
LINE
8
BLACK
6
CONTINUOUS
10
229.796
20
-117.986
11
229.796
21
-117.986
0
LINE
8
BLACK
6
CONTINUOUS
10
229.796
20
-117.986
11
217.321
21
-124.342
0
LINE
8
BLACK
6
CONTINUOUS
10
217.321
20
-124.342
11
217.321
21
-124.342
0
LINE
8
BLACK
6
CONTINUOUS
10
217.321
20
-124.342
11
217.276
21
-124.345
0
LINE
8
BLACK
6
CONTINUOUS
10
217.276
20
-124.345
11
217.241
21
-124.316
0
LINE
8
BLACK
6
CONTINUOUS
10
217.241
20
-124.316
11
210.885
21
-111.841
0
LINE
8
BLACK
6
CONTINUOUS
10
210.885
20
-111.841
11
210.881
21
-111.796
0
LINE
8
BLACK
6
CONTINUOUS
10
210.881
20
-111.796
11
210.911
21
-111.761
0
LINE
8
BLACK
6
CONTINUOUS
10
210.911
20
-111.761
11
223.385
21
-105.405
0
LINE
8
BLACK
6
CONTINUOUS
10
223.385
20
-105.405
11
223.431
21
-105.401
0
LINE
8
BLACK
6
CONTINUOUS
10
223.431
20
-105.401
11
223.466
21
-105.431
0
LINE
8
BLACK
6
CONTINUOUS
10
211.019
20
-111.84
11
217.32
21
-124.208
0
LINE
8
BLACK
6
CONTINUOUS
10
217.32
20
-124.208
11
229.688
21
-117.906
0
LINE
8
BLACK
6
CONTINUOUS
10
229.688
20
-117.906
11
223.386
21
-105.539
0
LINE
8
BLACK
6
CONTINUOUS
10
223.386
20
-105.539
11
211.019
21
-111.84
0
LINE
8
BLACK
6
CONTINUOUS
10
156.759
20
-111.12
11
156.766
21
-111.138
0
LINE
8
BLACK
6
CONTINUOUS
10
156.766
20
-111.138
11
156.766
21
-117.742
0
LINE
8
BLACK
6
CONTINUOUS
10
156.766
20
-117.742
11
156.759
21
-117.76
0
LINE
8
BLACK
6
CONTINUOUS
10
156.759
20
-117.76
11
156.741
21
-117.767
0
LINE
8
BLACK
6
CONTINUOUS
10
156.741
20
-117.767
11
143.025
21
-117.767
0
LINE
8
BLACK
6
CONTINUOUS
10
143.025
20
-117.767
11
143.008
21
-117.76
0
LINE
8
BLACK
6
CONTINUOUS
10
143.008
20
-117.76
11
143
21
-117.742
0
LINE
8
BLACK
6
CONTINUOUS
10
143
20
-117.742
11
143
21
-111.138
0
LINE
8
BLACK
6
CONTINUOUS
10
143
20
-111.138
11
143.008
21
-111.12
0
LINE
8
BLACK
6
CONTINUOUS
10
143.008
20
-111.12
11
143.025
21
-111.113
0
LINE
8
BLACK
6
CONTINUOUS
10
143.025
20
-111.113
11
156.741
21
-111.113
0
LINE
8
BLACK
6
CONTINUOUS
10
156.741
20
-111.113
11
156.759
21
-111.12
0
LINE
8
BLACK
6
CONTINUOUS
10
143.05
20
-111.163
11
143.05
21
-117.717
0
LINE
8
BLACK
6
CONTINUOUS
10
143.05
20
-117.717
11
156.716
21
-117.717
0
LINE
8
BLACK
6
CONTINUOUS
10
156.716
20
-117.717
11
156.716
21
-111.163
0
LINE
8
BLACK
6
CONTINUOUS
10
156.716
20
-111.163
11
143.05
21
-111.163
0
LINE
8
BLACK
6
CONTINUOUS
10
74.7459
20
-98.3011
11
74.716
21
-98.2662
0
LINE
8
BLACK
6
CONTINUOUS
10
74.716
20
-98.2662
11
74.7197
21
-98.2204
0
LINE
8
BLACK
6
CONTINUOUS
10
74.7197
20
-98.2204
11
81.0755
21
-85.7463
0
LINE
8
BLACK
6
CONTINUOUS
10
81.0755
20
-85.7463
11
81.1104
21
-85.7165
0
LINE
8
BLACK
6
CONTINUOUS
10
81.1104
20
-85.7165
11
81.1562
21
-85.7201
0
LINE
8
BLACK
6
CONTINUOUS
10
81.1562
20
-85.7201
11
81.1562
21
-85.7201
0
LINE
8
BLACK
6
CONTINUOUS
10
81.1562
20
-85.7201
11
93.6303
21
-92.076
0
LINE
8
BLACK
6
CONTINUOUS
10
93.6303
20
-92.076
11
93.6303
21
-92.076
0
LINE
8
BLACK
6
CONTINUOUS
10
93.6303
20
-92.076
11
93.6527
21
-92.1022
0
LINE
8
BLACK
6
CONTINUOUS
10
93.6527
20
-92.1022
11
93.6601
21
-92.1109
0
LINE
8
BLACK
6
CONTINUOUS
10
93.6601
20
-92.1109
11
93.6565
21
-92.1567
0
LINE
8
BLACK
6
CONTINUOUS
10
93.6565
20
-92.1567
11
93.6565
21
-92.1567
0
LINE
8
BLACK
6
CONTINUOUS
10
93.6565
20
-92.1567
11
87.3007
21
-104.631
0
LINE
8
BLACK
6
CONTINUOUS
10
87.3007
20
-104.631
11
87.3007
21
-104.631
0
LINE
8
BLACK
6
CONTINUOUS
10
87.3007
20
-104.631
11
87.2657
21
-104.661
0
LINE
8
BLACK
6
CONTINUOUS
10
87.2657
20
-104.661
11
87.22
21
-104.657
0
LINE
8
BLACK
6
CONTINUOUS
10
87.22
20
-104.657
11
74.7459
21
-98.3011
0
LINE
8
BLACK
6
CONTINUOUS
10
74.8538
20
-98.2215
11
87.221
21
-104.523
0
LINE
8
BLACK
6
CONTINUOUS
10
87.221
20
-104.523
11
93.5224
21
-92.1557
0
LINE
8
BLACK
6
CONTINUOUS
10
93.5224
20
-92.1557
11
81.1552
21
-85.8543
0
LINE
8
BLACK
6
CONTINUOUS
10
81.1552
20
-85.8543
11
74.8538
21
-98.2215
0
LINE
8
BLACK
6
CONTINUOUS
10
218.71
20
-85.6725
11
218.71
21
-85.6725
0
LINE
8
BLACK
6
CONTINUOUS
10
218.71
20
-85.6725
11
225.066
21
-98.1466
0
LINE
8
BLACK
6
CONTINUOUS
10
225.066
20
-98.1466
11
225.066
21
-98.1466
0
LINE
8
BLACK
6
CONTINUOUS
10
225.066
20
-98.1466
11
225.066
21
-98.1466
0
LINE
8
BLACK
6
CONTINUOUS
10
225.066
20
-98.1466
11
225.07
21
-98.1924
0
LINE
8
BLACK
6
CONTINUOUS
10
225.07
20
-98.1924
11
225.04
21
-98.2273
0
LINE
8
BLACK
6
CONTINUOUS
10
225.04
20
-98.2273
11
225.04
21
-98.2273
0
LINE
8
BLACK
6
CONTINUOUS
10
225.04
20
-98.2273
11
212.566
21
-104.583
0
LINE
8
BLACK
6
CONTINUOUS
10
212.566
20
-104.583
11
212.566
21
-104.583
0
LINE
8
BLACK
6
CONTINUOUS
10
212.566
20
-104.583
11
212.52
21
-104.587
0
LINE
8
BLACK
6
CONTINUOUS
10
212.52
20
-104.587
11
212.485
21
-104.557
0
LINE
8
BLACK
6
CONTINUOUS
10
212.485
20
-104.557
11
206.129
21
-92.0829
0
LINE
8
BLACK
6
CONTINUOUS
10
206.129
20
-92.0829
11
206.126
21
-92.0371
0
LINE
8
BLACK
6
CONTINUOUS
10
206.126
20
-92.0371
11
206.156
21
-92.0022
0
LINE
8
BLACK
6
CONTINUOUS
10
206.156
20
-92.0022
11
218.63
21
-85.6463
0
LINE
8
BLACK
6
CONTINUOUS
10
218.63
20
-85.6463
11
218.676
21
-85.6427
0
LINE
8
BLACK
6
CONTINUOUS
10
218.676
20
-85.6427
11
218.71
21
-85.6725
0
LINE
8
BLACK
6
CONTINUOUS
10
206.264
20
-92.0818
11
212.565
21
-104.449
0
LINE
8
BLACK
6
CONTINUOUS
10
212.565
20
-104.449
11
224.932
21
-98.1476
0
LINE
8
BLACK
6
CONTINUOUS
10
224.932
20
-98.1476
11
218.631
21
-85.7804
0
LINE
8
BLACK
6
CONTINUOUS
10
218.631
20
-85.7804
11
206.264
21
-92.0818
0
LINE
8
BLACK
6
CONTINUOUS
10
103.134
20
-84.9087
11
103.134
21
-84.9087
0
LINE
8
BLACK
6
CONTINUOUS
10
103.134
20
-84.9087
11
115.608
21
-91.2646
0
LINE
8
BLACK
6
CONTINUOUS
10
115.608
20
-91.2646
11
115.608
21
-91.2646
0
LINE
8
BLACK
6
CONTINUOUS
10
115.608
20
-91.2646
11
115.63
21
-91.2908
0
LINE
8
BLACK
6
CONTINUOUS
10
115.63
20
-91.2908
11
115.638
21
-91.2995
0
LINE
8
BLACK
6
CONTINUOUS
10
115.638
20
-91.2995
11
115.634
21
-91.3453
0
LINE
8
BLACK
6
CONTINUOUS
10
115.634
20
-91.3453
11
115.634
21
-91.3453
0
LINE
8
BLACK
6
CONTINUOUS
10
115.634
20
-91.3453
11
109.278
21
-103.819
0
LINE
8
BLACK
6
CONTINUOUS
10
109.278
20
-103.819
11
109.278
21
-103.819
0
LINE
8
BLACK
6
CONTINUOUS
10
109.278
20
-103.819
11
109.243
21
-103.849
0
LINE
8
BLACK
6
CONTINUOUS
10
109.243
20
-103.849
11
109.197
21
-103.846
0
LINE
8
BLACK
6
CONTINUOUS
10
109.197
20
-103.846
11
96.7233
21
-97.4897
0
LINE
8
BLACK
6
CONTINUOUS
10
96.7233
20
-97.4897
11
96.6935
21
-97.4548
0
LINE
8
BLACK
6
CONTINUOUS
10
96.6935
20
-97.4548
11
96.6971
21
-97.409
0
LINE
8
BLACK
6
CONTINUOUS
10
96.6971
20
-97.409
11
103.053
21
-84.9349
0
LINE
8
BLACK
6
CONTINUOUS
10
103.053
20
-84.9349
11
103.088
21
-84.9051
0
LINE
8
BLACK
6
CONTINUOUS
10
103.088
20
-84.9051
11
103.134
21
-84.9087
0
LINE
8
BLACK
6
CONTINUOUS
10
96.8312
20
-97.41
11
109.198
21
-103.711
0
LINE
8
BLACK
6
CONTINUOUS
10
109.198
20
-103.711
11
115.5
21
-91.3442
0
LINE
8
BLACK
6
CONTINUOUS
10
115.5
20
-91.3442
11
103.133
21
-85.0428
0
LINE
8
BLACK
6
CONTINUOUS
10
103.133
20
-85.0428
11
96.8312
21
-97.41
0
LINE
8
BLACK
6
CONTINUOUS
10
196.733
20
-84.8611
11
196.733
21
-84.8611
0
LINE
8
BLACK
6
CONTINUOUS
10
196.733
20
-84.8611
11
203.089
21
-97.3352
0
LINE
8
BLACK
6
CONTINUOUS
10
203.089
20
-97.3352
11
203.089
21
-97.3352
0
LINE
8
BLACK
6
CONTINUOUS
10
203.089
20
-97.3352
11
203.089
21
-97.3352
0
LINE
8
BLACK
6
CONTINUOUS
10
203.089
20
-97.3352
11
203.092
21
-97.3809
0
LINE
8
BLACK
6
CONTINUOUS
10
203.092
20
-97.3809
11
203.063
21
-97.4159
0
LINE
8
BLACK
6
CONTINUOUS
10
203.063
20
-97.4159
11
203.063
21
-97.4159
0
LINE
8
BLACK
6
CONTINUOUS
10
203.063
20
-97.4159
11
190.589
21
-103.772
0
LINE
8
BLACK
6
CONTINUOUS
10
190.589
20
-103.772
11
190.589
21
-103.772
0
LINE
8
BLACK
6
CONTINUOUS
10
190.589
20
-103.772
11
190.543
21
-103.775
0
LINE
8
BLACK
6
CONTINUOUS
10
190.543
20
-103.775
11
190.508
21
-103.746
0
LINE
8
BLACK
6
CONTINUOUS
10
190.508
20
-103.746
11
184.152
21
-91.2714
0
LINE
8
BLACK
6
CONTINUOUS
10
184.152
20
-91.2714
11
184.148
21
-91.2256
0
LINE
8
BLACK
6
CONTINUOUS
10
184.148
20
-91.2256
11
184.178
21
-91.1907
0
LINE
8
BLACK
6
CONTINUOUS
10
184.178
20
-91.1907
11
196.652
21
-84.8349
0
LINE
8
BLACK
6
CONTINUOUS
10
196.652
20
-84.8349
11
196.698
21
-84.8312
0
LINE
8
BLACK
6
CONTINUOUS
10
196.698
20
-84.8312
11
196.733
21
-84.8611
0
LINE
8
BLACK
6
CONTINUOUS
10
184.286
20
-91.2704
11
190.588
21
-103.638
0
LINE
8
BLACK
6
CONTINUOUS
10
190.588
20
-103.638
11
202.955
21
-97.3362
0
LINE
8
BLACK
6
CONTINUOUS
10
202.955
20
-97.3362
11
196.653
21
-84.969
0
LINE
8
BLACK
6
CONTINUOUS
10
196.653
20
-84.969
11
184.286
21
-91.2704
0
LINE
8
BLACK
6
CONTINUOUS
10
221.267
20
-79.4973
11
221.263
21
-79.4515
0
LINE
8
BLACK
6
CONTINUOUS
10
221.263
20
-79.4515
11
221.293
21
-79.4166
0
LINE
8
BLACK
6
CONTINUOUS
10
221.293
20
-79.4166
11
233.767
21
-73.0607
0
LINE
8
BLACK
6
CONTINUOUS
10
233.767
20
-73.0607
11
233.813
21
-73.0571
0
LINE
8
BLACK
6
CONTINUOUS
10
233.813
20
-73.0571
11
233.848
21
-73.087
0
LINE
8
BLACK
6
CONTINUOUS
10
233.848
20
-73.087
11
233.848
21
-73.087
0
LINE
8
BLACK
6
CONTINUOUS
10
233.848
20
-73.087
11
240.203
21
-85.5611
0
LINE
8
BLACK
6
CONTINUOUS
10
240.203
20
-85.5611
11
240.203
21
-85.5611
0
LINE
8
BLACK
6
CONTINUOUS
10
240.203
20
-85.5611
11
240.203
21
-85.5611
0
LINE
8
BLACK
6
CONTINUOUS
10
240.203
20
-85.5611
11
240.207
21
-85.6068
0
LINE
8
BLACK
6
CONTINUOUS
10
240.207
20
-85.6068
11
240.177
21
-85.6418
0
LINE
8
BLACK
6
CONTINUOUS
10
240.177
20
-85.6418
11
240.177
21
-85.6418
0
LINE
8
BLACK
6
CONTINUOUS
10
240.177
20
-85.6418
11
227.703
21
-91.9976
0
LINE
8
BLACK
6
CONTINUOUS
10
227.703
20
-91.9976
11
227.703
21
-91.9976
0
LINE
8
BLACK
6
CONTINUOUS
10
227.703
20
-91.9976
11
227.657
21
-92.0012
0
LINE
8
BLACK
6
CONTINUOUS
10
227.657
20
-92.0012
11
227.622
21
-91.9714
0
LINE
8
BLACK
6
CONTINUOUS
10
227.622
20
-91.9714
11
221.267
21
-79.4973
0
LINE
8
BLACK
6
CONTINUOUS
10
221.401
20
-79.4963
11
227.702
21
-91.8635
0
LINE
8
BLACK
6
CONTINUOUS
10
227.702
20
-91.8635
11
240.069
21
-85.5621
0
LINE
8
BLACK
6
CONTINUOUS
10
240.069
20
-85.5621
11
233.768
21
-73.1949
0
LINE
8
BLACK
6
CONTINUOUS
10
233.768
20
-73.1949
11
221.401
21
-79.4963
0
LINE
8
BLACK
6
CONTINUOUS
10
65.8081
20
-73.0555
11
65.8081
21
-73.0555
0
LINE
8
BLACK
6
CONTINUOUS
10
65.8081
20
-73.0555
11
78.2822
21
-79.4114
0
LINE
8
BLACK
6
CONTINUOUS
10
78.2822
20
-79.4114
11
78.2822
21
-79.4114
0
LINE
8
BLACK
6
CONTINUOUS
10
78.2822
20
-79.4114
11
78.3046
21
-79.4376
0
LINE
8
BLACK
6
CONTINUOUS
10
78.3046
20
-79.4376
11
78.312
21
-79.4463
0
LINE
8
BLACK
6
CONTINUOUS
10
78.312
20
-79.4463
11
78.3084
21
-79.4921
0
LINE
8
BLACK
6
CONTINUOUS
10
78.3084
20
-79.4921
11
78.3084
21
-79.4921
0
LINE
8
BLACK
6
CONTINUOUS
10
78.3084
20
-79.4921
11
71.9525
21
-91.9662
0
LINE
8
BLACK
6
CONTINUOUS
10
71.9525
20
-91.9662
11
71.9525
21
-91.9662
0
LINE
8
BLACK
6
CONTINUOUS
10
71.9525
20
-91.9662
11
71.9176
21
-91.996
0
LINE
8
BLACK
6
CONTINUOUS
10
71.9176
20
-91.996
11
71.8718
21
-91.9924
0
LINE
8
BLACK
6
CONTINUOUS
10
71.8718
20
-91.9924
11
59.3978
21
-85.6365
0
LINE
8
BLACK
6
CONTINUOUS
10
59.3978
20
-85.6365
11
59.3679
21
-85.6016
0
LINE
8
BLACK
6
CONTINUOUS
10
59.3679
20
-85.6016
11
59.3715
21
-85.5558
0
LINE
8
BLACK
6
CONTINUOUS
10
59.3715
20
-85.5558
11
65.7274
21
-73.0817
0
LINE
8
BLACK
6
CONTINUOUS
10
65.7274
20
-73.0817
11
65.7623
21
-73.0519
0
LINE
8
BLACK
6
CONTINUOUS
10
65.7623
20
-73.0519
11
65.8081
21
-73.0555
0
LINE
8
BLACK
6
CONTINUOUS
10
59.5057
20
-85.5568
11
71.8729
21
-91.8582
0
LINE
8
BLACK
6
CONTINUOUS
10
71.8729
20
-91.8582
11
78.1743
21
-79.491
0
LINE
8
BLACK
6
CONTINUOUS
10
78.1743
20
-79.491
11
65.8071
21
-73.1897
0
LINE
8
BLACK
6
CONTINUOUS
10
65.8071
20
-73.1897
11
59.5057
21
-85.5568
0
LINE
8
BLACK
6
CONTINUOUS
10
255.156
20
-70.3151
11
255.188
21
-70.3479
0
LINE
8
BLACK
6
CONTINUOUS
10
255.188
20
-70.3479
11
260.433
21
-83.3284
0
LINE
8
BLACK
6
CONTINUOUS
10
260.433
20
-83.3284
11
260.432
21
-83.3744
0
LINE
8
BLACK
6
CONTINUOUS
10
260.432
20
-83.3744
11
260.399
21
-83.4065
0
LINE
8
BLACK
6
CONTINUOUS
10
260.399
20
-83.4065
11
247.419
21
-88.651
0
LINE
8
BLACK
6
CONTINUOUS
10
247.419
20
-88.651
11
247.373
21
-88.6506
0
LINE
8
BLACK
6
CONTINUOUS
10
247.373
20
-88.6506
11
247.341
21
-88.6179
0
LINE
8
BLACK
6
CONTINUOUS
10
247.341
20
-88.6179
11
242.096
21
-75.6373
0
LINE
8
BLACK
6
CONTINUOUS
10
242.096
20
-75.6373
11
242.097
21
-75.5914
0
LINE
8
BLACK
6
CONTINUOUS
10
242.097
20
-75.5914
11
242.129
21
-75.5592
0
LINE
8
BLACK
6
CONTINUOUS
10
242.129
20
-75.5592
11
255.11
21
-70.3147
0
LINE
8
BLACK
6
CONTINUOUS
10
255.11
20
-70.3147
11
255.156
21
-70.3151
0
LINE
8
BLACK
6
CONTINUOUS
10
242.23
20
-75.648
11
247.43
21
-88.5173
0
LINE
8
BLACK
6
CONTINUOUS
10
247.43
20
-88.5173
11
260.299
21
-83.3178
0
LINE
8
BLACK
6
CONTINUOUS
10
260.299
20
-83.3178
11
255.099
21
-70.4484
0
LINE
8
BLACK
6
CONTINUOUS
10
255.099
20
-70.4484
11
242.23
21
-75.648
0
LINE
8
BLACK
6
CONTINUOUS
10
57.4458
20
-75.5536
11
57.4785
21
-75.5857
0
LINE
8
BLACK
6
CONTINUOUS
10
57.4785
20
-75.5857
11
57.4789
21
-75.6317
0
LINE
8
BLACK
6
CONTINUOUS
10
57.4789
20
-75.6317
11
52.2344
21
-88.6122
0
LINE
8
BLACK
6
CONTINUOUS
10
52.2344
20
-88.6122
11
52.2022
21
-88.645
0
LINE
8
BLACK
6
CONTINUOUS
10
52.2022
20
-88.645
11
52.1563
21
-88.6454
0
LINE
8
BLACK
6
CONTINUOUS
10
52.1563
20
-88.6454
11
39.1757
21
-83.4009
0
LINE
8
BLACK
6
CONTINUOUS
10
39.1757
20
-83.4009
11
39.143
21
-83.3687
0
LINE
8
BLACK
6
CONTINUOUS
10
39.143
20
-83.3687
11
39.1426
21
-83.3228
0
LINE
8
BLACK
6
CONTINUOUS
10
39.1426
20
-83.3228
11
44.3871
21
-70.3422
0
LINE
8
BLACK
6
CONTINUOUS
10
44.3871
20
-70.3422
11
44.4193
21
-70.3095
0
LINE
8
BLACK
6
CONTINUOUS
10
44.4193
20
-70.3095
11
44.4652
21
-70.3091
0
LINE
8
BLACK
6
CONTINUOUS
10
44.4652
20
-70.3091
11
57.4458
21
-75.5536
0
LINE
8
BLACK
6
CONTINUOUS
10
39.2763
20
-83.3121
11
52.1456
21
-88.5117
0
LINE
8
BLACK
6
CONTINUOUS
10
52.1456
20
-88.5117
11
57.3452
21
-75.6423
0
LINE
8
BLACK
6
CONTINUOUS
10
57.3452
20
-75.6423
11
44.4759
21
-70.4428
0
LINE
8
BLACK
6
CONTINUOUS
10
44.4759
20
-70.4428
11
39.2763
21
-83.3121
0
LINE
8
BLACK
6
CONTINUOUS
10
89.782
20
-68.791
11
89.782
21
-68.791
0
LINE
8
BLACK
6
CONTINUOUS
10
89.782
20
-68.791
11
102.256
21
-75.1469
0
LINE
8
BLACK
6
CONTINUOUS
10
102.256
20
-75.1469
11
102.256
21
-75.1469
0
LINE
8
BLACK
6
CONTINUOUS
10
102.256
20
-75.1469
11
102.279
21
-75.1731
0
LINE
8
BLACK
6
CONTINUOUS
10
102.279
20
-75.1731
11
102.286
21
-75.1818
0
LINE
8
BLACK
6
CONTINUOUS
10
102.286
20
-75.1818
11
102.282
21
-75.2276
0
LINE
8
BLACK
6
CONTINUOUS
10
102.282
20
-75.2276
11
102.282
21
-75.2276
0
LINE
8
BLACK
6
CONTINUOUS
10
102.282
20
-75.2276
11
95.9265
21
-87.7017
0
LINE
8
BLACK
6
CONTINUOUS
10
95.9265
20
-87.7017
11
95.9265
21
-87.7017
0
LINE
8
BLACK
6
CONTINUOUS
10
95.9265
20
-87.7017
11
95.8916
21
-87.7315
0
LINE
8
BLACK
6
CONTINUOUS
10
95.8916
20
-87.7315
11
95.8458
21
-87.7279
0
LINE
8
BLACK
6
CONTINUOUS
10
95.8458
20
-87.7279
11
83.3717
21
-81.372
0
LINE
8
BLACK
6
CONTINUOUS
10
83.3717
20
-81.372
11
83.3419
21
-81.3371
0
LINE
8
BLACK
6
CONTINUOUS
10
83.3419
20
-81.3371
11
83.3455
21
-81.2913
0
LINE
8
BLACK
6
CONTINUOUS
10
83.3455
20
-81.2913
11
89.7013
21
-68.8172
0
LINE
8
BLACK
6
CONTINUOUS
10
89.7013
20
-68.8172
11
89.7363
21
-68.7874
0
LINE
8
BLACK
6
CONTINUOUS
10
89.7363
20
-68.7874
11
89.782
21
-68.791
0
LINE
8
BLACK
6
CONTINUOUS
10
83.4796
20
-81.2923
11
95.8468
21
-87.5937
0
LINE
8
BLACK
6
CONTINUOUS
10
95.8468
20
-87.5937
11
102.148
21
-75.2265
0
LINE
8
BLACK
6
CONTINUOUS
10
102.148
20
-75.2265
11
89.781
21
-68.9252
0
LINE
8
BLACK
6
CONTINUOUS
10
89.781
20
-68.9252
11
83.4796
21
-81.2923
0
LINE
8
BLACK
6
CONTINUOUS
10
197.504
20
-75.1537
11
197.5
21
-75.1079
0
LINE
8
BLACK
6
CONTINUOUS
10
197.5
20
-75.1079
11
197.53
21
-75.073
0
LINE
8
BLACK
6
CONTINUOUS
10
197.53
20
-75.073
11
210.004
21
-68.7172
0
LINE
8
BLACK
6
CONTINUOUS
10
210.004
20
-68.7172
11
210.05
21
-68.7136
0
LINE
8
BLACK
6
CONTINUOUS
10
210.05
20
-68.7136
11
210.085
21
-68.7434
0
LINE
8
BLACK
6
CONTINUOUS
10
210.085
20
-68.7434
11
210.085
21
-68.7434
0
LINE
8
BLACK
6
CONTINUOUS
10
210.085
20
-68.7434
11
216.44
21
-81.2175
0
LINE
8
BLACK
6
CONTINUOUS
10
216.44
20
-81.2175
11
216.44
21
-81.2175
0
LINE
8
BLACK
6
CONTINUOUS
10
216.44
20
-81.2175
11
216.44
21
-81.2175
0
LINE
8
BLACK
6
CONTINUOUS
10
216.44
20
-81.2175
11
216.444
21
-81.2633
0
LINE
8
BLACK
6
CONTINUOUS
10
216.444
20
-81.2633
11
216.414
21
-81.2982
0
LINE
8
BLACK
6
CONTINUOUS
10
216.414
20
-81.2982
11
216.414
21
-81.2982
0
LINE
8
BLACK
6
CONTINUOUS
10
216.414
20
-81.2982
11
203.94
21
-87.654
0
LINE
8
BLACK
6
CONTINUOUS
10
203.94
20
-87.654
11
203.94
21
-87.654
0
LINE
8
BLACK
6
CONTINUOUS
10
203.94
20
-87.654
11
203.894
21
-87.6576
0
LINE
8
BLACK
6
CONTINUOUS
10
203.894
20
-87.6576
11
203.859
21
-87.6278
0
LINE
8
BLACK
6
CONTINUOUS
10
203.859
20
-87.6278
11
197.504
21
-75.1537
0
LINE
8
BLACK
6
CONTINUOUS
10
197.638
20
-75.1527
11
203.939
21
-87.5199
0
LINE
8
BLACK
6
CONTINUOUS
10
203.939
20
-87.5199
11
216.306
21
-81.2185
0
LINE
8
BLACK
6
CONTINUOUS
10
216.306
20
-81.2185
11
210.005
21
-68.8513
0
LINE
8
BLACK
6
CONTINUOUS
10
210.005
20
-68.8513
11
197.638
21
-75.1527
0
LINE
8
BLACK
6
CONTINUOUS
10
105.349
20
-80.5606
11
105.319
21
-80.5257
0
LINE
8
BLACK
6
CONTINUOUS
10
105.319
20
-80.5257
11
105.323
21
-80.4799
0
LINE
8
BLACK
6
CONTINUOUS
10
105.323
20
-80.4799
11
111.679
21
-68.0058
0
LINE
8
BLACK
6
CONTINUOUS
10
111.679
20
-68.0058
11
111.714
21
-67.976
0
LINE
8
BLACK
6
CONTINUOUS
10
111.714
20
-67.976
11
111.759
21
-67.9796
0
LINE
8
BLACK
6
CONTINUOUS
10
111.759
20
-67.9796
11
111.759
21
-67.9796
0
LINE
8
BLACK
6
CONTINUOUS
10
111.759
20
-67.9796
11
124.234
21
-74.3354
0
LINE
8
BLACK
6
CONTINUOUS
10
124.234
20
-74.3354
11
124.234
21
-74.3354
0
LINE
8
BLACK
6
CONTINUOUS
10
124.234
20
-74.3354
11
124.256
21
-74.3617
0
LINE
8
BLACK
6
CONTINUOUS
10
124.256
20
-74.3617
11
124.263
21
-74.3704
0
LINE
8
BLACK
6
CONTINUOUS
10
124.263
20
-74.3704
11
124.26
21
-74.4161
0
LINE
8
BLACK
6
CONTINUOUS
10
124.26
20
-74.4161
11
124.26
21
-74.4161
0
LINE
8
BLACK
6
CONTINUOUS
10
124.26
20
-74.4161
11
117.904
21
-86.8902
0
LINE
8
BLACK
6
CONTINUOUS
10
117.904
20
-86.8902
11
117.904
21
-86.8902
0
LINE
8
BLACK
6
CONTINUOUS
10
117.904
20
-86.8902
11
117.869
21
-86.92
0
LINE
8
BLACK
6
CONTINUOUS
10
117.869
20
-86.92
11
117.823
21
-86.9164
0
LINE
8
BLACK
6
CONTINUOUS
10
117.823
20
-86.9164
11
105.349
21
-80.5606
0
LINE
8
BLACK
6
CONTINUOUS
10
105.457
20
-80.4809
11
117.824
21
-86.7823
0
LINE
8
BLACK
6
CONTINUOUS
10
117.824
20
-86.7823
11
124.126
21
-74.4151
0
LINE
8
BLACK
6
CONTINUOUS
10
124.126
20
-74.4151
11
111.758
21
-68.1137
0
LINE
8
BLACK
6
CONTINUOUS
10
111.758
20
-68.1137
11
105.457
21
-80.4809
0
LINE
8
BLACK
6
CONTINUOUS
10
188.107
20
-67.9319
11
188.107
21
-67.932
0
LINE
8
BLACK
6
CONTINUOUS
10
188.107
20
-67.932
11
194.463
21
-80.406
0
LINE
8
BLACK
6
CONTINUOUS
10
194.463
20
-80.406
11
194.463
21
-80.406
0
LINE
8
BLACK
6
CONTINUOUS
10
194.463
20
-80.406
11
194.463
21
-80.406
0
LINE
8
BLACK
6
CONTINUOUS
10
194.463
20
-80.406
11
194.467
21
-80.4518
0
LINE
8
BLACK
6
CONTINUOUS
10
194.467
20
-80.4518
11
194.437
21
-80.4867
0
LINE
8
BLACK
6
CONTINUOUS
10
194.437
20
-80.4867
11
194.437
21
-80.4867
0
LINE
8
BLACK
6
CONTINUOUS
10
194.437
20
-80.4867
11
181.963
21
-86.8426
0
LINE
8
BLACK
6
CONTINUOUS
10
181.963
20
-86.8426
11
181.963
21
-86.8426
0
LINE
8
BLACK
6
CONTINUOUS
10
181.963
20
-86.8426
11
181.917
21
-86.8462
0
LINE
8
BLACK
6
CONTINUOUS
10
181.917
20
-86.8462
11
181.882
21
-86.8164
0
LINE
8
BLACK
6
CONTINUOUS
10
181.882
20
-86.8164
11
175.526
21
-74.3423
0
LINE
8
BLACK
6
CONTINUOUS
10
175.526
20
-74.3423
11
175.523
21
-74.2965
0
LINE
8
BLACK
6
CONTINUOUS
10
175.523
20
-74.2965
11
175.552
21
-74.2616
0
LINE
8
BLACK
6
CONTINUOUS
10
175.552
20
-74.2616
11
188.026
21
-67.9057
0
LINE
8
BLACK
6
CONTINUOUS
10
188.026
20
-67.9057
11
188.072
21
-67.9021
0
LINE
8
BLACK
6
CONTINUOUS
10
188.072
20
-67.9021
11
188.107
21
-67.9319
0
LINE
8
BLACK
6
CONTINUOUS
10
175.66
20
-74.3413
11
181.962
21
-86.7084
0
LINE
8
BLACK
6
CONTINUOUS
10
181.962
20
-86.7084
11
194.329
21
-80.4071
0
LINE
8
BLACK
6
CONTINUOUS
10
194.329
20
-80.4071
11
188.028
21
-68.0399
0
LINE
8
BLACK
6
CONTINUOUS
10
188.028
20
-68.0399
11
175.66
21
-74.3413
0
LINE
8
BLACK
6
CONTINUOUS
10
212.641
20
-62.5682
11
212.637
21
-62.5224
0
LINE
8
BLACK
6
CONTINUOUS
10
212.637
20
-62.5224
11
212.667
21
-62.4875
0
LINE
8
BLACK
6
CONTINUOUS
10
212.667
20
-62.4875
11
225.141
21
-56.1316
0
LINE
8
BLACK
6
CONTINUOUS
10
225.141
20
-56.1316
11
225.187
21
-56.128
0
LINE
8
BLACK
6
CONTINUOUS
10
225.187
20
-56.128
11
225.222
21
-56.1578
0
LINE
8
BLACK
6
CONTINUOUS
10
225.222
20
-56.1578
11
225.222
21
-56.1579
0
LINE
8
BLACK
6
CONTINUOUS
10
225.222
20
-56.1579
11
231.578
21
-68.6319
0
LINE
8
BLACK
6
CONTINUOUS
10
231.578
20
-68.6319
11
231.578
21
-68.6319
0
LINE
8
BLACK
6
CONTINUOUS
10
231.578
20
-68.6319
11
231.578
21
-68.6319
0
LINE
8
BLACK
6
CONTINUOUS
10
231.578
20
-68.6319
11
231.581
21
-68.6777
0
LINE
8
BLACK
6
CONTINUOUS
10
231.581
20
-68.6777
11
231.551
21
-68.7126
0
LINE
8
BLACK
6
CONTINUOUS
10
231.551
20
-68.7126
11
231.551
21
-68.7126
0
LINE
8
BLACK
6
CONTINUOUS
10
231.551
20
-68.7126
11
219.077
21
-75.0685
0
LINE
8
BLACK
6
CONTINUOUS
10
219.077
20
-75.0685
11
219.077
21
-75.0685
0
LINE
8
BLACK
6
CONTINUOUS
10
219.077
20
-75.0685
11
219.032
21
-75.0721
0
LINE
8
BLACK
6
CONTINUOUS
10
219.032
20
-75.0721
11
218.997
21
-75.0423
0
LINE
8
BLACK
6
CONTINUOUS
10
218.997
20
-75.0423
11
212.641
21
-62.5682
0
LINE
8
BLACK
6
CONTINUOUS
10
212.775
20
-62.5672
11
219.076
21
-74.9343
0
LINE
8
BLACK
6
CONTINUOUS
10
219.076
20
-74.9343
11
231.443
21
-68.633
0
LINE
8
BLACK
6
CONTINUOUS
10
231.443
20
-68.633
11
225.142
21
-56.2658
0
LINE
8
BLACK
6
CONTINUOUS
10
225.142
20
-56.2658
11
212.775
21
-62.5672
0
LINE
8
BLACK
6
CONTINUOUS
10
68.0236
20
-68.7074
11
67.9938
21
-68.6725
0
LINE
8
BLACK
6
CONTINUOUS
10
67.9938
20
-68.6725
11
67.9974
21
-68.6267
0
LINE
8
BLACK
6
CONTINUOUS
10
67.9974
20
-68.6267
11
74.3532
21
-56.1526
0
LINE
8
BLACK
6
CONTINUOUS
10
74.3532
20
-56.1526
11
74.3881
21
-56.1228
0
LINE
8
BLACK
6
CONTINUOUS
10
74.3881
20
-56.1228
11
74.4339
21
-56.1264
0
LINE
8
BLACK
6
CONTINUOUS
10
74.4339
20
-56.1264
11
74.4339
21
-56.1264
0
LINE
8
BLACK
6
CONTINUOUS
10
74.4339
20
-56.1264
11
86.908
21
-62.4822
0
LINE
8
BLACK
6
CONTINUOUS
10
86.908
20
-62.4822
11
86.908
21
-62.4822
0
LINE
8
BLACK
6
CONTINUOUS
10
86.908
20
-62.4822
11
86.9304
21
-62.5085
0
LINE
8
BLACK
6
CONTINUOUS
10
86.9304
20
-62.5085
11
86.9378
21
-62.5172
0
LINE
8
BLACK
6
CONTINUOUS
10
86.9378
20
-62.5172
11
86.9342
21
-62.5629
0
LINE
8
BLACK
6
CONTINUOUS
10
86.9342
20
-62.5629
11
86.9342
21
-62.5629
0
LINE
8
BLACK
6
CONTINUOUS
10
86.9342
20
-62.5629
11
80.5784
21
-75.037
0
LINE
8
BLACK
6
CONTINUOUS
10
80.5784
20
-75.037
11
80.5784
21
-75.037
0
LINE
8
BLACK
6
CONTINUOUS
10
80.5784
20
-75.037
11
80.5434
21
-75.0669
0
LINE
8
BLACK
6
CONTINUOUS
10
80.5434
20
-75.0669
11
80.4977
21
-75.0633
0
LINE
8
BLACK
6
CONTINUOUS
10
80.4977
20
-75.0633
11
68.0236
21
-68.7074
0
LINE
8
BLACK
6
CONTINUOUS
10
68.1315
20
-68.6277
11
80.4987
21
-74.9291
0
LINE
8
BLACK
6
CONTINUOUS
10
80.4987
20
-74.9291
11
86.8001
21
-62.5619
0
LINE
8
BLACK
6
CONTINUOUS
10
86.8001
20
-62.5619
11
74.4329
21
-56.2605
0
LINE
8
BLACK
6
CONTINUOUS
10
74.4329
20
-56.2605
11
68.1315
21
-68.6277
0
LINE
8
BLACK
6
CONTINUOUS
10
272.111
20
-56.0773
11
272.139
21
-56.1138
0
LINE
8
BLACK
6
CONTINUOUS
10
272.139
20
-56.1138
11
275.762
21
-69.6367
0
LINE
8
BLACK
6
CONTINUOUS
10
275.762
20
-69.6367
11
275.756
21
-69.6822
0
LINE
8
BLACK
6
CONTINUOUS
10
275.756
20
-69.6822
11
275.72
21
-69.7102
0
LINE
8
BLACK
6
CONTINUOUS
10
275.72
20
-69.7102
11
275.72
21
-69.7102
0
LINE
8
BLACK
6
CONTINUOUS
10
275.72
20
-69.7102
11
262.197
21
-73.3337
0
LINE
8
BLACK
6
CONTINUOUS
10
262.197
20
-73.3337
11
262.151
21
-73.3277
0
LINE
8
BLACK
6
CONTINUOUS
10
262.151
20
-73.3277
11
262.123
21
-73.2912
0
LINE
8
BLACK
6
CONTINUOUS
10
262.123
20
-73.2912
11
262.123
21
-73.2912
0
LINE
8
BLACK
6
CONTINUOUS
10
262.123
20
-73.2912
11
258.5
21
-59.7683
0
LINE
8
BLACK
6
CONTINUOUS
10
258.5
20
-59.7683
11
258.506
21
-59.7227
0
LINE
8
BLACK
6
CONTINUOUS
10
258.506
20
-59.7227
11
258.542
21
-59.6948
0
LINE
8
BLACK
6
CONTINUOUS
10
258.542
20
-59.6948
11
272.065
21
-56.0713
0
LINE
8
BLACK
6
CONTINUOUS
10
272.065
20
-56.0713
11
272.111
21
-56.0773
0
LINE
8
BLACK
6
CONTINUOUS
10
258.631
20
-59.7952
11
262.223
21
-73.2022
0
LINE
8
BLACK
6
CONTINUOUS
10
262.223
20
-73.2022
11
275.631
21
-69.6098
0
LINE
8
BLACK
6
CONTINUOUS
10
275.631
20
-69.6098
11
272.038
21
-56.2028
0
LINE
8
BLACK
6
CONTINUOUS
10
272.038
20
-56.2028
11
258.631
21
-59.7952
0
LINE
8
BLACK
6
CONTINUOUS
10
41.033
20
-59.6882
11
41.033
21
-59.6882
0
LINE
8
BLACK
6
CONTINUOUS
10
41.033
20
-59.6882
11
41.0694
21
-59.7162
0
LINE
8
BLACK
6
CONTINUOUS
10
41.0694
20
-59.7162
11
41.0754
21
-59.7617
0
LINE
8
BLACK
6
CONTINUOUS
10
41.0754
20
-59.7617
11
37.452
21
-73.2846
0
LINE
8
BLACK
6
CONTINUOUS
10
37.452
20
-73.2846
11
37.424
21
-73.3211
0
LINE
8
BLACK
6
CONTINUOUS
10
37.424
20
-73.3211
11
37.3785
21
-73.3271
0
LINE
8
BLACK
6
CONTINUOUS
10
37.3785
20
-73.3271
11
23.8555
21
-69.7036
0
LINE
8
BLACK
6
CONTINUOUS
10
23.8555
20
-69.7036
11
23.8191
21
-69.6756
0
LINE
8
BLACK
6
CONTINUOUS
10
23.8191
20
-69.6756
11
23.8131
21
-69.6301
0
LINE
8
BLACK
6
CONTINUOUS
10
23.8131
20
-69.6301
11
27.4365
21
-56.1072
0
LINE
8
BLACK
6
CONTINUOUS
10
27.4365
20
-56.1072
11
27.4365
21
-56.1072
0
LINE
8
BLACK
6
CONTINUOUS
10
27.4365
20
-56.1072
11
27.4645
21
-56.0707
0
LINE
8
BLACK
6
CONTINUOUS
10
27.4645
20
-56.0707
11
27.51
21
-56.0647
0
LINE
8
BLACK
6
CONTINUOUS
10
27.51
20
-56.0647
11
41.033
21
-59.6882
0
LINE
8
BLACK
6
CONTINUOUS
10
23.9445
20
-69.6032
11
37.3516
21
-73.1956
0
LINE
8
BLACK
6
CONTINUOUS
10
37.3516
20
-73.1956
11
40.944
21
-59.7886
0
LINE
8
BLACK
6
CONTINUOUS
10
40.944
20
-59.7886
11
27.5369
21
-56.1962
0
LINE
8
BLACK
6
CONTINUOUS
10
27.5369
20
-56.1962
11
23.9445
21
-69.6032
0
LINE
8
BLACK
6
CONTINUOUS
10
248.038
20
-52.6986
11
248.071
21
-52.7314
0
LINE
8
BLACK
6
CONTINUOUS
10
248.071
20
-52.7314
11
253.315
21
-65.7119
0
LINE
8
BLACK
6
CONTINUOUS
10
253.315
20
-65.7119
11
253.315
21
-65.7579
0
LINE
8
BLACK
6
CONTINUOUS
10
253.315
20
-65.7579
11
253.282
21
-65.79
0
LINE
8
BLACK
6
CONTINUOUS
10
253.282
20
-65.79
11
240.301
21
-71.0345
0
LINE
8
BLACK
6
CONTINUOUS
10
240.301
20
-71.0345
11
240.255
21
-71.0341
0
LINE
8
BLACK
6
CONTINUOUS
10
240.255
20
-71.0341
11
240.223
21
-71.0014
0
LINE
8
BLACK
6
CONTINUOUS
10
240.223
20
-71.0014
11
234.979
21
-58.0208
0
LINE
8
BLACK
6
CONTINUOUS
10
234.979
20
-58.0208
11
234.979
21
-57.9749
0
LINE
8
BLACK
6
CONTINUOUS
10
234.979
20
-57.9749
11
235.012
21
-57.9427
0
LINE
8
BLACK
6
CONTINUOUS
10
235.012
20
-57.9427
11
247.992
21
-52.6982
0
LINE
8
BLACK
6
CONTINUOUS
10
247.992
20
-52.6982
11
248.038
21
-52.6986
0
LINE
8
BLACK
6
CONTINUOUS
10
235.112
20
-58.0315
11
240.312
21
-70.9008
0
LINE
8
BLACK
6
CONTINUOUS
10
240.312
20
-70.9008
11
253.181
21
-65.7013
0
LINE
8
BLACK
6
CONTINUOUS
10
253.181
20
-65.7013
11
247.982
21
-52.8319
0
LINE
8
BLACK
6
CONTINUOUS
10
247.982
20
-52.8319
11
235.112
21
-58.0315
0
LINE
8
BLACK
6
CONTINUOUS
10
64.5636
20
-57.9375
11
64.5963
21
-57.9697
0
LINE
8
BLACK
6
CONTINUOUS
10
64.5963
20
-57.9697
11
64.5967
21
-58.0156
0
LINE
8
BLACK
6
CONTINUOUS
10
64.5967
20
-58.0156
11
59.3522
21
-70.9962
0
LINE
8
BLACK
6
CONTINUOUS
10
59.3522
20
-70.9962
11
59.3201
21
-71.0289
0
LINE
8
BLACK
6
CONTINUOUS
10
59.3201
20
-71.0289
11
59.2741
21
-71.0293
0
LINE
8
BLACK
6
CONTINUOUS
10
59.2741
20
-71.0293
11
46.2936
21
-65.7848
0
LINE
8
BLACK
6
CONTINUOUS
10
46.2936
20
-65.7848
11
46.2608
21
-65.7526
0
LINE
8
BLACK
6
CONTINUOUS
10
46.2608
20
-65.7526
11
46.2604
21
-65.7067
0
LINE
8
BLACK
6
CONTINUOUS
10
46.2604
20
-65.7067
11
51.5049
21
-52.7261
0
LINE
8
BLACK
6
CONTINUOUS
10
51.5049
20
-52.7261
11
51.5371
21
-52.6934
0
LINE
8
BLACK
6
CONTINUOUS
10
51.5371
20
-52.6934
11
51.583
21
-52.693
0
LINE
8
BLACK
6
CONTINUOUS
10
51.583
20
-52.693
11
64.5636
21
-57.9375
0
LINE
8
BLACK
6
CONTINUOUS
10
46.3941
20
-65.696
11
59.2635
21
-70.8956
0
LINE
8
BLACK
6
CONTINUOUS
10
59.2635
20
-70.8956
11
64.463
21
-58.0263
0
LINE
8
BLACK
6
CONTINUOUS
10
64.463
20
-58.0263
11
51.5937
21
-52.8267
0
LINE
8
BLACK
6
CONTINUOUS
10
51.5937
20
-52.8267
11
46.3941
21
-65.696
0
LINE
8
BLACK
6
CONTINUOUS
10
98.4079
20
-51.8619
11
98.4079
21
-51.8619
0
LINE
8
BLACK
6
CONTINUOUS
10
98.4079
20
-51.8619
11
110.882
21
-58.2177
0
LINE
8
BLACK
6
CONTINUOUS
10
110.882
20
-58.2177
11
110.882
21
-58.2177
0
LINE
8
BLACK
6
CONTINUOUS
10
110.882
20
-58.2177
11
110.904
21
-58.244
0
LINE
8
BLACK
6
CONTINUOUS
10
110.904
20
-58.244
11
110.912
21
-58.2527
0
LINE
8
BLACK
6
CONTINUOUS
10
110.912
20
-58.2527
11
110.908
21
-58.2984
0
LINE
8
BLACK
6
CONTINUOUS
10
110.908
20
-58.2984
11
110.908
21
-58.2984
0
LINE
8
BLACK
6
CONTINUOUS
10
110.908
20
-58.2984
11
104.552
21
-70.7725
0
LINE
8
BLACK
6
CONTINUOUS
10
104.552
20
-70.7725
11
104.552
21
-70.7725
0
LINE
8
BLACK
6
CONTINUOUS
10
104.552
20
-70.7725
11
104.517
21
-70.8024
0
LINE
8
BLACK
6
CONTINUOUS
10
104.517
20
-70.8024
11
104.472
21
-70.7988
0
LINE
8
BLACK
6
CONTINUOUS
10
104.472
20
-70.7988
11
91.9975
21
-64.4429
0
LINE
8
BLACK
6
CONTINUOUS
10
91.9975
20
-64.4429
11
91.9677
21
-64.408
0
LINE
8
BLACK
6
CONTINUOUS
10
91.9677
20
-64.408
11
91.9713
21
-64.3622
0
LINE
8
BLACK
6
CONTINUOUS
10
91.9713
20
-64.3622
11
98.3272
21
-51.8881
0
LINE
8
BLACK
6
CONTINUOUS
10
98.3272
20
-51.8881
11
98.3621
21
-51.8583
0
LINE
8
BLACK
6
CONTINUOUS
10
98.3621
20
-51.8583
11
98.4079
21
-51.8619
0
LINE
8
BLACK
6
CONTINUOUS
10
92.1054
20
-64.3632
11
104.473
21
-70.6646
0
LINE
8
BLACK
6
CONTINUOUS
10
104.473
20
-70.6646
11
110.774
21
-58.2974
0
LINE
8
BLACK
6
CONTINUOUS
10
110.774
20
-58.2974
11
98.4068
21
-51.996
0
LINE
8
BLACK
6
CONTINUOUS
10
98.4068
20
-51.996
11
92.1054
21
-64.3632
0
LINE
8
BLACK
6
CONTINUOUS
10
201.459
20
-51.8143
11
201.459
21
-51.8143
0
LINE
8
BLACK
6
CONTINUOUS
10
201.459
20
-51.8143
11
207.815
21
-64.2883
0
LINE
8
BLACK
6
CONTINUOUS
10
207.815
20
-64.2883
11
207.815
21
-64.2883
0
LINE
8
BLACK
6
CONTINUOUS
10
207.815
20
-64.2883
11
207.815
21
-64.2883
0
LINE
8
BLACK
6
CONTINUOUS
10
207.815
20
-64.2883
11
207.818
21
-64.3341
0
LINE
8
BLACK
6
CONTINUOUS
10
207.818
20
-64.3341
11
207.788
21
-64.369
0
LINE
8
BLACK
6
CONTINUOUS
10
207.788
20
-64.369
11
207.788
21
-64.369
0
LINE
8
BLACK
6
CONTINUOUS
10
207.788
20
-64.369
11
195.314
21
-70.7249
0
LINE
8
BLACK
6
CONTINUOUS
10
195.314
20
-70.7249
11
195.314
21
-70.7249
0
LINE
8
BLACK
6
CONTINUOUS
10
195.314
20
-70.7249
11
195.269
21
-70.7285
0
LINE
8
BLACK
6
CONTINUOUS
10
195.269
20
-70.7285
11
195.234
21
-70.6987
0
LINE
8
BLACK
6
CONTINUOUS
10
195.234
20
-70.6987
11
188.878
21
-58.2246
0
LINE
8
BLACK
6
CONTINUOUS
10
188.878
20
-58.2246
11
188.874
21
-58.1788
0
LINE
8
BLACK
6
CONTINUOUS
10
188.874
20
-58.1788
11
188.904
21
-58.1439
0
LINE
8
BLACK
6
CONTINUOUS
10
188.904
20
-58.1439
11
201.378
21
-51.788
0
LINE
8
BLACK
6
CONTINUOUS
10
201.378
20
-51.788
11
201.424
21
-51.7844
0
LINE
8
BLACK
6
CONTINUOUS
10
201.424
20
-51.7844
11
201.459
21
-51.8143
0
LINE
8
BLACK
6
CONTINUOUS
10
189.012
20
-58.2236
11
195.313
21
-70.5908
0
LINE
8
BLACK
6
CONTINUOUS
10
195.313
20
-70.5908
11
207.68
21
-64.2894
0
LINE
8
BLACK
6
CONTINUOUS
10
207.68
20
-64.2894
11
201.379
21
-51.9222
0
LINE
8
BLACK
6
CONTINUOUS
10
201.379
20
-51.9222
11
189.012
21
-58.2236
0
LINE
8
BLACK
6
CONTINUOUS
10
216.596
20
-39.2287
11
216.596
21
-39.2287
0
LINE
8
BLACK
6
CONTINUOUS
10
216.596
20
-39.2287
11
222.952
21
-51.7028
0
LINE
8
BLACK
6
CONTINUOUS
10
222.952
20
-51.7028
11
222.952
21
-51.7028
0
LINE
8
BLACK
6
CONTINUOUS
10
222.952
20
-51.7028
11
222.952
21
-51.7028
0
LINE
8
BLACK
6
CONTINUOUS
10
222.952
20
-51.7028
11
222.955
21
-51.7486
0
LINE
8
BLACK
6
CONTINUOUS
10
222.955
20
-51.7486
11
222.926
21
-51.7835
0
LINE
8
BLACK
6
CONTINUOUS
10
222.926
20
-51.7835
11
222.926
21
-51.7835
0
LINE
8
BLACK
6
CONTINUOUS
10
222.926
20
-51.7835
11
210.451
21
-58.1394
0
LINE
8
BLACK
6
CONTINUOUS
10
210.451
20
-58.1394
11
210.451
21
-58.1394
0
LINE
8
BLACK
6
CONTINUOUS
10
210.451
20
-58.1394
11
210.406
21
-58.143
0
LINE
8
BLACK
6
CONTINUOUS
10
210.406
20
-58.143
11
210.371
21
-58.1132
0
LINE
8
BLACK
6
CONTINUOUS
10
210.371
20
-58.1132
11
204.015
21
-45.6391
0
LINE
8
BLACK
6
CONTINUOUS
10
204.015
20
-45.6391
11
204.011
21
-45.5933
0
LINE
8
BLACK
6
CONTINUOUS
10
204.011
20
-45.5933
11
204.041
21
-45.5584
0
LINE
8
BLACK
6
CONTINUOUS
10
204.041
20
-45.5584
11
216.515
21
-39.2025
0
LINE
8
BLACK
6
CONTINUOUS
10
216.515
20
-39.2025
11
216.561
21
-39.1989
0
LINE
8
BLACK
6
CONTINUOUS
10
216.561
20
-39.1989
11
216.596
21
-39.2287
0
LINE
8
BLACK
6
CONTINUOUS
10
204.149
20
-45.6381
11
210.45
21
-58.0052
0
LINE
8
BLACK
6
CONTINUOUS
10
210.45
20
-58.0052
11
222.818
21
-51.7038
0
LINE
8
BLACK
6
CONTINUOUS
10
222.818
20
-51.7038
11
216.516
21
-39.3367
0
LINE
8
BLACK
6
CONTINUOUS
10
216.516
20
-39.3367
11
204.149
21
-45.6381
0
LINE
8
BLACK
6
CONTINUOUS
10
76.6494
20
-51.7783
11
76.6196
21
-51.7433
0
LINE
8
BLACK
6
CONTINUOUS
10
76.6196
20
-51.7433
11
76.6232
21
-51.6976
0
LINE
8
BLACK
6
CONTINUOUS
10
76.6232
20
-51.6976
11
82.979
21
-39.2235
0
LINE
8
BLACK
6
CONTINUOUS
10
82.979
20
-39.2235
11
83.014
21
-39.1936
0
LINE
8
BLACK
6
CONTINUOUS
10
83.014
20
-39.1936
11
83.0597
21
-39.1973
0
LINE
8
BLACK
6
CONTINUOUS
10
83.0597
20
-39.1973
11
83.0597
21
-39.1973
0
LINE
8
BLACK
6
CONTINUOUS
10
83.0597
20
-39.1973
11
95.5338
21
-45.5531
0
LINE
8
BLACK
6
CONTINUOUS
10
95.5338
20
-45.5531
11
95.5338
21
-45.5531
0
LINE
8
BLACK
6
CONTINUOUS
10
95.5338
20
-45.5531
11
95.5383
21
-45.5584
0
LINE
8
BLACK
6
CONTINUOUS
10
95.5383
20
-45.5584
11
95.5637
21
-45.588
0
LINE
8
BLACK
6
CONTINUOUS
10
95.5637
20
-45.588
11
95.5601
21
-45.6338
0
LINE
8
BLACK
6
CONTINUOUS
10
95.5601
20
-45.6338
11
95.5601
21
-45.6338
0
LINE
8
BLACK
6
CONTINUOUS
10
95.5601
20
-45.6338
11
89.2042
21
-58.1079
0
LINE
8
BLACK
6
CONTINUOUS
10
89.2042
20
-58.1079
11
89.2042
21
-58.1079
0
LINE
8
BLACK
6
CONTINUOUS
10
89.2042
20
-58.1079
11
89.1693
21
-58.1377
0
LINE
8
BLACK
6
CONTINUOUS
10
89.1693
20
-58.1377
11
89.1235
21
-58.1341
0
LINE
8
BLACK
6
CONTINUOUS
10
89.1235
20
-58.1341
11
76.6494
21
-51.7783
0
LINE
8
BLACK
6
CONTINUOUS
10
76.7573
20
-51.6986
11
89.1245
21
-58
0
LINE
8
BLACK
6
CONTINUOUS
10
89.1245
20
-58
11
95.4259
21
-45.6328
0
LINE
8
BLACK
6
CONTINUOUS
10
95.4259
20
-45.6328
11
83.0587
21
-39.3314
0
LINE
8
BLACK
6
CONTINUOUS
10
83.0587
20
-39.3314
11
76.7573
21
-51.6986
0
LINE
8
BLACK
6
CONTINUOUS
10
267.184
20
-37.7173
11
267.212
21
-37.7537
0
LINE
8
BLACK
6
CONTINUOUS
10
267.212
20
-37.7537
11
270.836
21
-51.2767
0
LINE
8
BLACK
6
CONTINUOUS
10
270.836
20
-51.2767
11
270.83
21
-51.3222
0
LINE
8
BLACK
6
CONTINUOUS
10
270.83
20
-51.3222
11
270.793
21
-51.3502
0
LINE
8
BLACK
6
CONTINUOUS
10
270.793
20
-51.3502
11
270.793
21
-51.3502
0
LINE
8
BLACK
6
CONTINUOUS
10
270.793
20
-51.3502
11
257.27
21
-54.9736
0
LINE
8
BLACK
6
CONTINUOUS
10
257.27
20
-54.9736
11
257.225
21
-54.9676
0
LINE
8
BLACK
6
CONTINUOUS
10
257.225
20
-54.9676
11
257.197
21
-54.9312
0
LINE
8
BLACK
6
CONTINUOUS
10
257.197
20
-54.9312
11
257.197
21
-54.9312
0
LINE
8
BLACK
6
CONTINUOUS
10
257.197
20
-54.9312
11
253.573
21
-41.4082
0
LINE
8
BLACK
6
CONTINUOUS
10
253.573
20
-41.4082
11
253.579
21
-41.3627
0
LINE
8
BLACK
6
CONTINUOUS
10
253.579
20
-41.3627
11
253.616
21
-41.3347
0
LINE
8
BLACK
6
CONTINUOUS
10
253.616
20
-41.3347
11
267.139
21
-37.7113
0
LINE
8
BLACK
6
CONTINUOUS
10
267.139
20
-37.7113
11
267.184
21
-37.7173
0
LINE
8
BLACK
6
CONTINUOUS
10
253.705
20
-41.4351
11
257.297
21
-54.8422
0
LINE
8
BLACK
6
CONTINUOUS
10
257.297
20
-54.8422
11
270.704
21
-51.2498
0
LINE
8
BLACK
6
CONTINUOUS
10
270.704
20
-51.2498
11
267.112
21
-37.8427
0
LINE
8
BLACK
6
CONTINUOUS
10
267.112
20
-37.8427
11
253.705
21
-41.4351
0
LINE
8
BLACK
6
CONTINUOUS
10
28.7291
20
-51.3053
11
28.7231
21
-51.2597
0
LINE
8
BLACK
6
CONTINUOUS
10
28.7231
20
-51.2597
11
32.3466
21
-37.7368
0
LINE
8
BLACK
6
CONTINUOUS
10
32.3466
20
-37.7368
11
32.3466
21
-37.7368
0
LINE
8
BLACK
6
CONTINUOUS
10
32.3466
20
-37.7368
11
32.3746
21
-37.7003
0
LINE
8
BLACK
6
CONTINUOUS
10
32.3746
20
-37.7003
11
32.4201
21
-37.6943
0
LINE
8
BLACK
6
CONTINUOUS
10
32.4201
20
-37.6943
11
45.943
21
-41.3178
0
LINE
8
BLACK
6
CONTINUOUS
10
45.943
20
-41.3178
11
45.943
21
-41.3178
0
LINE
8
BLACK
6
CONTINUOUS
10
45.943
20
-41.3178
11
45.9795
21
-41.3458
0
LINE
8
BLACK
6
CONTINUOUS
10
45.9795
20
-41.3458
11
45.9855
21
-41.3913
0
LINE
8
BLACK
6
CONTINUOUS
10
45.9855
20
-41.3913
11
42.362
21
-54.9142
0
LINE
8
BLACK
6
CONTINUOUS
10
42.362
20
-54.9142
11
42.334
21
-54.9507
0
LINE
8
BLACK
6
CONTINUOUS
10
42.334
20
-54.9507
11
42.2885
21
-54.9567
0
LINE
8
BLACK
6
CONTINUOUS
10
42.2885
20
-54.9567
11
28.7656
21
-51.3332
0
LINE
8
BLACK
6
CONTINUOUS
10
28.7656
20
-51.3332
11
28.7291
21
-51.3053
0
LINE
8
BLACK
6
CONTINUOUS
10
28.8546
20
-51.2328
11
42.2616
21
-54.8252
0
LINE
8
BLACK
6
CONTINUOUS
10
42.2616
20
-54.8252
11
45.854
21
-41.4182
0
LINE
8
BLACK
6
CONTINUOUS
10
45.854
20
-41.4182
11
32.447
21
-37.8258
0
LINE
8
BLACK
6
CONTINUOUS
10
32.447
20
-37.8258
11
28.8546
21
-51.2328
0
LINE
8
BLACK
6
CONTINUOUS
10
240.921
20
-35.0821
11
240.953
21
-35.1149
0
LINE
8
BLACK
6
CONTINUOUS
10
240.953
20
-35.1149
11
246.198
21
-48.0954
0
LINE
8
BLACK
6
CONTINUOUS
10
246.198
20
-48.0954
11
246.197
21
-48.1414
0
LINE
8
BLACK
6
CONTINUOUS
10
246.197
20
-48.1414
11
246.164
21
-48.1736
0
LINE
8
BLACK
6
CONTINUOUS
10
246.164
20
-48.1736
11
233.184
21
-53.418
0
LINE
8
BLACK
6
CONTINUOUS
10
233.184
20
-53.418
11
233.138
21
-53.4176
0
LINE
8
BLACK
6
CONTINUOUS
10
233.138
20
-53.4176
11
233.106
21
-53.3849
0
LINE
8
BLACK
6
CONTINUOUS
10
233.106
20
-53.3849
11
227.861
21
-40.4043
0
LINE
8
BLACK
6
CONTINUOUS
10
227.861
20
-40.4043
11
227.862
21
-40.3584
0
LINE
8
BLACK
6
CONTINUOUS
10
227.862
20
-40.3584
11
227.894
21
-40.3262
0
LINE
8
BLACK
6
CONTINUOUS
10
227.894
20
-40.3262
11
240.875
21
-35.0817
0
LINE
8
BLACK
6
CONTINUOUS
10
240.875
20
-35.0817
11
240.921
21
-35.0821
0
LINE
8
BLACK
6
CONTINUOUS
10
227.995
20
-40.415
11
233.194
21
-53.2843
0
LINE
8
BLACK
6
CONTINUOUS
10
233.194
20
-53.2843
11
246.064
21
-48.0848
0
LINE
8
BLACK
6
CONTINUOUS
10
246.064
20
-48.0848
11
240.864
21
-35.2155
0
LINE
8
BLACK
6
CONTINUOUS
10
240.864
20
-35.2155
11
227.995
21
-40.415
0
LINE
8
BLACK
6
CONTINUOUS
10
53.378
20
-48.1357
11
53.3776
21
-48.0898
0
LINE
8
BLACK
6
CONTINUOUS
10
53.3776
20
-48.0898
11
58.6221
21
-35.1092
0
LINE
8
BLACK
6
CONTINUOUS
10
58.6221
20
-35.1092
11
58.6543
21
-35.0765
0
LINE
8
BLACK
6
CONTINUOUS
10
58.6543
20
-35.0765
11
58.7002
21
-35.0761
0
LINE
8
BLACK
6
CONTINUOUS
10
58.7002
20
-35.0761
11
71.6808
21
-40.3206
0
LINE
8
BLACK
6
CONTINUOUS
10
71.6808
20
-40.3206
11
71.7136
21
-40.3528
0
LINE
8
BLACK
6
CONTINUOUS
10
71.7136
20
-40.3528
11
71.714
21
-40.3987
0
LINE
8
BLACK
6
CONTINUOUS
10
71.714
20
-40.3987
11
66.4695
21
-53.3793
0
LINE
8
BLACK
6
CONTINUOUS
10
66.4695
20
-53.3793
11
66.4373
21
-53.412
0
LINE
8
BLACK
6
CONTINUOUS
10
66.4373
20
-53.412
11
66.3914
21
-53.4124
0
LINE
8
BLACK
6
CONTINUOUS
10
66.3914
20
-53.4124
11
53.4108
21
-48.1679
0
LINE
8
BLACK
6
CONTINUOUS
10
53.4108
20
-48.1679
11
53.378
21
-48.1357
0
LINE
8
BLACK
6
CONTINUOUS
10
53.5114
20
-48.0791
11
66.3807
21
-53.2787
0
LINE
8
BLACK
6
CONTINUOUS
10
66.3807
20
-53.2787
11
71.5802
21
-40.4094
0
LINE
8
BLACK
6
CONTINUOUS
10
71.5802
20
-40.4094
11
58.7109
21
-35.2098
0
LINE
8
BLACK
6
CONTINUOUS
10
58.7109
20
-35.2098
11
53.5114
21
-48.0791
  0
ENDSEC
  0
EOF
