%TF.GenerationSoftware,KiCad,Pcbnew,(6.0.4-0)*%
%TF.CreationDate,2022-05-17T19:51:51+02:00*%
%TF.ProjectId,battoota,62617474-6f6f-4746-912e-6b696361645f,v1.0.0*%
%TF.SameCoordinates,Original*%
%TF.FileFunction,Legend,Top*%
%TF.FilePolarity,Positive*%
%FSLAX46Y46*%
G04 Gerber Fmt 4.6, Leading zero omitted, Abs format (unit mm)*
G04 Created by KiCad (PCBNEW (6.0.4-0)) date 2022-05-17 19:51:51*
%MOMM*%
%LPD*%
G01*
G04 APERTURE LIST*
G04 Aperture macros list*
%AMRoundRect*
0 Rectangle with rounded corners*
0 $1 Rounding radius*
0 $2 $3 $4 $5 $6 $7 $8 $9 X,Y pos of 4 corners*
0 Add a 4 corners polygon primitive as box body*
4,1,4,$2,$3,$4,$5,$6,$7,$8,$9,$2,$3,0*
0 Add four circle primitives for the rounded corners*
1,1,$1+$1,$2,$3*
1,1,$1+$1,$4,$5*
1,1,$1+$1,$6,$7*
1,1,$1+$1,$8,$9*
0 Add four rect primitives between the rounded corners*
20,1,$1+$1,$2,$3,$4,$5,0*
20,1,$1+$1,$4,$5,$6,$7,0*
20,1,$1+$1,$6,$7,$8,$9,0*
20,1,$1+$1,$8,$9,$2,$3,0*%
%AMFreePoly0*
4,1,16,0.535355,0.785355,0.550000,0.750000,0.550000,-0.750000,0.535355,-0.785355,0.500000,-0.800000,-0.650000,-0.800000,-0.685355,-0.785355,-0.700000,-0.750000,-0.691603,-0.722265,-0.210093,0.000000,-0.691603,0.722265,-0.699029,0.759806,-0.677735,0.791603,-0.650000,0.800000,0.500000,0.800000,0.535355,0.785355,0.535355,0.785355,$1*%
%AMFreePoly1*
4,1,16,0.535355,0.785355,0.541603,0.777735,1.041603,0.027735,1.049029,-0.009806,1.041603,-0.027735,0.541603,-0.777735,0.509806,-0.799029,0.500000,-0.800000,-0.500000,-0.800000,-0.535355,-0.785355,-0.550000,-0.750000,-0.550000,0.750000,-0.535355,0.785355,-0.500000,0.800000,0.500000,0.800000,0.535355,0.785355,0.535355,0.785355,$1*%
G04 Aperture macros list end*
%ADD10C,0.150000*%
%ADD11C,0.100000*%
%ADD12C,0.120000*%
%ADD13C,0.200000*%
%ADD14C,0.010000*%
%ADD15RoundRect,0.375000X-0.375000X-0.750000X0.375000X-0.750000X0.375000X0.750000X-0.375000X0.750000X0*%
%ADD16C,2.000000*%
%ADD17C,1.752600*%
%ADD18RoundRect,0.050000X-0.450000X0.450000X-0.450000X-0.450000X0.450000X-0.450000X0.450000X0.450000X0*%
%ADD19RoundRect,0.050000X-0.625000X0.450000X-0.625000X-0.450000X0.625000X-0.450000X0.625000X0.450000X0*%
%ADD20RoundRect,0.425000X-0.375000X-0.750000X0.375000X-0.750000X0.375000X0.750000X-0.375000X0.750000X0*%
%ADD21C,2.100000*%
%ADD22RoundRect,0.050000X-1.230182X-1.366255X1.366255X-1.230182X1.230182X1.366255X-1.366255X1.230182X0*%
%ADD23C,1.801800*%
%ADD24C,3.529000*%
%ADD25C,3.100000*%
%ADD26C,2.132000*%
%ADD27RoundRect,0.050000X-1.300000X-1.300000X1.300000X-1.300000X1.300000X1.300000X-1.300000X1.300000X0*%
%ADD28RoundRect,0.050000X-1.666227X-0.776974X0.776974X-1.666227X1.666227X0.776974X-0.776974X1.666227X0*%
%ADD29C,1.100000*%
%ADD30RoundRect,0.050000X-1.131880X-1.448740X1.448740X-1.131880X1.131880X1.448740X-1.448740X1.131880X0*%
%ADD31RoundRect,0.050000X-1.408356X-1.181751X1.181751X-1.408356X1.408356X1.181751X-1.181751X1.408356X0*%
%ADD32C,1.852600*%
%ADD33FreePoly0,180.000000*%
%ADD34RoundRect,0.050000X-0.762000X0.250000X-0.762000X-0.250000X0.762000X-0.250000X0.762000X0.250000X0*%
%ADD35FreePoly1,180.000000*%
%ADD36C,4.500000*%
G04 APERTURE END LIST*
D10*
%TO.C,PAD1*%
X149107300Y56420824D02*
X149221586Y56382729D01*
X149259681Y56344634D01*
X149297776Y56268443D01*
X149297776Y56154158D01*
X149259681Y56077967D01*
X149221586Y56039872D01*
X149145396Y56001777D01*
X148840634Y56001777D01*
X148840634Y56801777D01*
X149107300Y56801777D01*
X149183491Y56763682D01*
X149221586Y56725586D01*
X149259681Y56649396D01*
X149259681Y56573205D01*
X149221586Y56497015D01*
X149183491Y56458920D01*
X149107300Y56420824D01*
X148840634Y56420824D01*
X149640634Y56306539D02*
X150250157Y56306539D01*
X147107300Y56420824D02*
X147221586Y56382729D01*
X147259681Y56344634D01*
X147297776Y56268443D01*
X147297776Y56154158D01*
X147259681Y56077967D01*
X147221586Y56039872D01*
X147145396Y56001777D01*
X146840634Y56001777D01*
X146840634Y56801777D01*
X147107300Y56801777D01*
X147183491Y56763682D01*
X147221586Y56725586D01*
X147259681Y56649396D01*
X147259681Y56573205D01*
X147221586Y56497015D01*
X147183491Y56458920D01*
X147107300Y56420824D01*
X146840634Y56420824D01*
X147640634Y56306539D02*
X148250157Y56306539D01*
X147945396Y56001777D02*
X147945396Y56611301D01*
X151107300Y56420824D02*
X151221586Y56382729D01*
X151259681Y56344634D01*
X151297776Y56268443D01*
X151297776Y56154158D01*
X151259681Y56077967D01*
X151221586Y56039872D01*
X151145396Y56001777D01*
X150840634Y56001777D01*
X150840634Y56801777D01*
X151107300Y56801777D01*
X151183491Y56763682D01*
X151221586Y56725586D01*
X151259681Y56649396D01*
X151259681Y56573205D01*
X151221586Y56497015D01*
X151183491Y56458920D01*
X151107300Y56420824D01*
X150840634Y56420824D01*
X151640634Y56306539D02*
X152250157Y56306539D01*
X151945396Y56001777D02*
X151945396Y56611301D01*
%TO.C,B1*%
X163655571Y64450138D02*
X163179381Y64116804D01*
X163655571Y63878709D02*
X162655571Y63878709D01*
X162655571Y64259661D01*
X162703191Y64354899D01*
X162750810Y64402519D01*
X162846048Y64450138D01*
X162988905Y64450138D01*
X163084143Y64402519D01*
X163131762Y64354899D01*
X163179381Y64259661D01*
X163179381Y63878709D01*
X163131762Y64878709D02*
X163131762Y65212042D01*
X163655571Y65354899D02*
X163655571Y64878709D01*
X162655571Y64878709D01*
X162655571Y65354899D01*
X163607952Y65735852D02*
X163655571Y65878709D01*
X163655571Y66116804D01*
X163607952Y66212042D01*
X163560333Y66259661D01*
X163465095Y66307280D01*
X163369857Y66307280D01*
X163274619Y66259661D01*
X163227000Y66212042D01*
X163179381Y66116804D01*
X163131762Y65926328D01*
X163084143Y65831090D01*
X163036524Y65783471D01*
X162941286Y65735852D01*
X162846048Y65735852D01*
X162750810Y65783471D01*
X162703191Y65831090D01*
X162655571Y65926328D01*
X162655571Y66164423D01*
X162703191Y66307280D01*
X163131762Y66735852D02*
X163131762Y67069185D01*
X163655571Y67212042D02*
X163655571Y66735852D01*
X162655571Y66735852D01*
X162655571Y67212042D01*
X162655571Y67497757D02*
X162655571Y68069185D01*
X163655571Y67783471D02*
X162655571Y67783471D01*
%TO.C,MCU1*%
X158185784Y75380637D02*
X158185784Y76180637D01*
X158490546Y76180637D01*
X158566736Y76142542D01*
X158604832Y76104446D01*
X158642927Y76028256D01*
X158642927Y75913970D01*
X158604832Y75837780D01*
X158566736Y75799684D01*
X158490546Y75761589D01*
X158185784Y75761589D01*
X159138165Y76180637D02*
X159214355Y76180637D01*
X159290546Y76142542D01*
X159328641Y76104446D01*
X159366736Y76028256D01*
X159404832Y75875875D01*
X159404832Y75685399D01*
X159366736Y75533018D01*
X159328641Y75456827D01*
X159290546Y75418732D01*
X159214355Y75380637D01*
X159138165Y75380637D01*
X159061974Y75418732D01*
X159023879Y75456827D01*
X158985784Y75533018D01*
X158947689Y75685399D01*
X158947689Y75875875D01*
X158985784Y76028256D01*
X159023879Y76104446D01*
X159061974Y76142542D01*
X159138165Y76180637D01*
X159861974Y75837780D02*
X159785784Y75875875D01*
X159747689Y75913970D01*
X159709593Y75990161D01*
X159709593Y76028256D01*
X159747689Y76104446D01*
X159785784Y76142542D01*
X159861974Y76180637D01*
X160014355Y76180637D01*
X160090546Y76142542D01*
X160128641Y76104446D01*
X160166736Y76028256D01*
X160166736Y75990161D01*
X160128641Y75913970D01*
X160090546Y75875875D01*
X160014355Y75837780D01*
X159861974Y75837780D01*
X159785784Y75799684D01*
X159747689Y75761589D01*
X159709593Y75685399D01*
X159709593Y75533018D01*
X159747689Y75456827D01*
X159785784Y75418732D01*
X159861974Y75380637D01*
X160014355Y75380637D01*
X160090546Y75418732D01*
X160128641Y75456827D01*
X160166736Y75533018D01*
X160166736Y75685399D01*
X160128641Y75761589D01*
X160090546Y75799684D01*
X160014355Y75837780D01*
X148585784Y90620637D02*
X148585784Y91420637D01*
X148890546Y91420637D01*
X148966736Y91382542D01*
X149004832Y91344446D01*
X149042927Y91268256D01*
X149042927Y91153970D01*
X149004832Y91077780D01*
X148966736Y91039684D01*
X148890546Y91001589D01*
X148585784Y91001589D01*
X149347689Y91344446D02*
X149385784Y91382542D01*
X149461974Y91420637D01*
X149652451Y91420637D01*
X149728641Y91382542D01*
X149766736Y91344446D01*
X149804832Y91268256D01*
X149804832Y91192065D01*
X149766736Y91077780D01*
X149309593Y90620637D01*
X149804832Y90620637D01*
X150566736Y90620637D02*
X150109593Y90620637D01*
X150338165Y90620637D02*
X150338165Y91420637D01*
X150261974Y91306351D01*
X150185784Y91230161D01*
X150109593Y91192065D01*
X148585784Y77920637D02*
X148585784Y78720637D01*
X148890546Y78720637D01*
X148966736Y78682542D01*
X149004832Y78644446D01*
X149042927Y78568256D01*
X149042927Y78453970D01*
X149004832Y78377780D01*
X148966736Y78339684D01*
X148890546Y78301589D01*
X148585784Y78301589D01*
X149804832Y77920637D02*
X149347689Y77920637D01*
X149576260Y77920637D02*
X149576260Y78720637D01*
X149500070Y78606351D01*
X149423879Y78530161D01*
X149347689Y78492065D01*
X150490546Y78453970D02*
X150490546Y77920637D01*
X150300070Y78758732D02*
X150109593Y78187303D01*
X150604832Y78187303D01*
X148585784Y88080637D02*
X148585784Y88880637D01*
X148890546Y88880637D01*
X148966736Y88842542D01*
X149004832Y88804446D01*
X149042927Y88728256D01*
X149042927Y88613970D01*
X149004832Y88537780D01*
X148966736Y88499684D01*
X148890546Y88461589D01*
X148585784Y88461589D01*
X149347689Y88804446D02*
X149385784Y88842542D01*
X149461974Y88880637D01*
X149652451Y88880637D01*
X149728641Y88842542D01*
X149766736Y88804446D01*
X149804832Y88728256D01*
X149804832Y88652065D01*
X149766736Y88537780D01*
X149309593Y88080637D01*
X149804832Y88080637D01*
X150300070Y88880637D02*
X150376260Y88880637D01*
X150452451Y88842542D01*
X150490546Y88804446D01*
X150528641Y88728256D01*
X150566736Y88575875D01*
X150566736Y88385399D01*
X150528641Y88233018D01*
X150490546Y88156827D01*
X150452451Y88118732D01*
X150376260Y88080637D01*
X150300070Y88080637D01*
X150223879Y88118732D01*
X150185784Y88156827D01*
X150147689Y88233018D01*
X150109593Y88385399D01*
X150109593Y88575875D01*
X150147689Y88728256D01*
X150185784Y88804446D01*
X150223879Y88842542D01*
X150300070Y88880637D01*
X152305594Y95700637D02*
X152038928Y96081589D01*
X151848451Y95700637D02*
X151848451Y96500637D01*
X152153213Y96500637D01*
X152229404Y96462542D01*
X152267499Y96424446D01*
X152305594Y96348256D01*
X152305594Y96233970D01*
X152267499Y96157780D01*
X152229404Y96119684D01*
X152153213Y96081589D01*
X151848451Y96081589D01*
X152610356Y95738732D02*
X152724642Y95700637D01*
X152915118Y95700637D01*
X152991309Y95738732D01*
X153029404Y95776827D01*
X153067499Y95853018D01*
X153067499Y95929208D01*
X153029404Y96005399D01*
X152991309Y96043494D01*
X152915118Y96081589D01*
X152762737Y96119684D01*
X152686547Y96157780D01*
X152648451Y96195875D01*
X152610356Y96272065D01*
X152610356Y96348256D01*
X152648451Y96424446D01*
X152686547Y96462542D01*
X152762737Y96500637D01*
X152953213Y96500637D01*
X153067499Y96462542D01*
X153296070Y96500637D02*
X153753213Y96500637D01*
X153524642Y95700637D02*
X153524642Y96500637D01*
X158185784Y72840637D02*
X158185784Y73640637D01*
X158490546Y73640637D01*
X158566736Y73602542D01*
X158604832Y73564446D01*
X158642927Y73488256D01*
X158642927Y73373970D01*
X158604832Y73297780D01*
X158566736Y73259684D01*
X158490546Y73221589D01*
X158185784Y73221589D01*
X159138165Y73640637D02*
X159214355Y73640637D01*
X159290546Y73602542D01*
X159328641Y73564446D01*
X159366736Y73488256D01*
X159404832Y73335875D01*
X159404832Y73145399D01*
X159366736Y72993018D01*
X159328641Y72916827D01*
X159290546Y72878732D01*
X159214355Y72840637D01*
X159138165Y72840637D01*
X159061974Y72878732D01*
X159023879Y72916827D01*
X158985784Y72993018D01*
X158947689Y73145399D01*
X158947689Y73335875D01*
X158985784Y73488256D01*
X159023879Y73564446D01*
X159061974Y73602542D01*
X159138165Y73640637D01*
X159785784Y72840637D02*
X159938165Y72840637D01*
X160014355Y72878732D01*
X160052451Y72916827D01*
X160128641Y73031113D01*
X160166736Y73183494D01*
X160166736Y73488256D01*
X160128641Y73564446D01*
X160090546Y73602542D01*
X160014355Y73640637D01*
X159861974Y73640637D01*
X159785784Y73602542D01*
X159747689Y73564446D01*
X159709593Y73488256D01*
X159709593Y73297780D01*
X159747689Y73221589D01*
X159785784Y73183494D01*
X159861974Y73145399D01*
X160014355Y73145399D01*
X160090546Y73183494D01*
X160128641Y73221589D01*
X160166736Y73297780D01*
X148585784Y75380637D02*
X148585784Y76180637D01*
X148890546Y76180637D01*
X148966736Y76142542D01*
X149004832Y76104446D01*
X149042927Y76028256D01*
X149042927Y75913970D01*
X149004832Y75837780D01*
X148966736Y75799684D01*
X148890546Y75761589D01*
X148585784Y75761589D01*
X149804832Y75380637D02*
X149347689Y75380637D01*
X149576260Y75380637D02*
X149576260Y76180637D01*
X149500070Y76066351D01*
X149423879Y75990161D01*
X149347689Y75952065D01*
X150490546Y76180637D02*
X150338165Y76180637D01*
X150261974Y76142542D01*
X150223879Y76104446D01*
X150147689Y75990161D01*
X150109593Y75837780D01*
X150109593Y75533018D01*
X150147689Y75456827D01*
X150185784Y75418732D01*
X150261974Y75380637D01*
X150414355Y75380637D01*
X150490546Y75418732D01*
X150528641Y75456827D01*
X150566736Y75533018D01*
X150566736Y75723494D01*
X150528641Y75799684D01*
X150490546Y75837780D01*
X150414355Y75875875D01*
X150261974Y75875875D01*
X150185784Y75837780D01*
X150147689Y75799684D01*
X150109593Y75723494D01*
X152305595Y100780637D02*
X152038928Y101161589D01*
X151848452Y100780637D02*
X151848452Y101580637D01*
X152153214Y101580637D01*
X152229404Y101542542D01*
X152267499Y101504446D01*
X152305595Y101428256D01*
X152305595Y101313970D01*
X152267499Y101237780D01*
X152229404Y101199684D01*
X152153214Y101161589D01*
X151848452Y101161589D01*
X152610356Y101009208D02*
X152991309Y101009208D01*
X152534166Y100780637D02*
X152800833Y101580637D01*
X153067499Y100780637D01*
X153257976Y101580637D02*
X153448452Y100780637D01*
X153600833Y101352065D01*
X153753214Y100780637D01*
X153943690Y101580637D01*
X158185784Y90620637D02*
X158185784Y91420637D01*
X158490546Y91420637D01*
X158566736Y91382542D01*
X158604832Y91344446D01*
X158642927Y91268256D01*
X158642927Y91153970D01*
X158604832Y91077780D01*
X158566736Y91039684D01*
X158490546Y91001589D01*
X158185784Y91001589D01*
X159138165Y91420637D02*
X159214355Y91420637D01*
X159290546Y91382542D01*
X159328641Y91344446D01*
X159366736Y91268256D01*
X159404832Y91115875D01*
X159404832Y90925399D01*
X159366736Y90773018D01*
X159328641Y90696827D01*
X159290546Y90658732D01*
X159214355Y90620637D01*
X159138165Y90620637D01*
X159061974Y90658732D01*
X159023879Y90696827D01*
X158985784Y90773018D01*
X158947689Y90925399D01*
X158947689Y91115875D01*
X158985784Y91268256D01*
X159023879Y91344446D01*
X159061974Y91382542D01*
X159138165Y91420637D01*
X159709593Y91344446D02*
X159747689Y91382542D01*
X159823879Y91420637D01*
X160014355Y91420637D01*
X160090546Y91382542D01*
X160128641Y91344446D01*
X160166736Y91268256D01*
X160166736Y91192065D01*
X160128641Y91077780D01*
X159671498Y90620637D01*
X160166736Y90620637D01*
X148585784Y83000637D02*
X148585784Y83800637D01*
X148890546Y83800637D01*
X148966736Y83762542D01*
X149004832Y83724446D01*
X149042927Y83648256D01*
X149042927Y83533970D01*
X149004832Y83457780D01*
X148966736Y83419684D01*
X148890546Y83381589D01*
X148585784Y83381589D01*
X149804832Y83000637D02*
X149347689Y83000637D01*
X149576260Y83000637D02*
X149576260Y83800637D01*
X149500070Y83686351D01*
X149423879Y83610161D01*
X149347689Y83572065D01*
X150261974Y83457780D02*
X150185784Y83495875D01*
X150147689Y83533970D01*
X150109593Y83610161D01*
X150109593Y83648256D01*
X150147689Y83724446D01*
X150185784Y83762542D01*
X150261974Y83800637D01*
X150414355Y83800637D01*
X150490546Y83762542D01*
X150528641Y83724446D01*
X150566736Y83648256D01*
X150566736Y83610161D01*
X150528641Y83533970D01*
X150490546Y83495875D01*
X150414355Y83457780D01*
X150261974Y83457780D01*
X150185784Y83419684D01*
X150147689Y83381589D01*
X150109593Y83305399D01*
X150109593Y83153018D01*
X150147689Y83076827D01*
X150185784Y83038732D01*
X150261974Y83000637D01*
X150414355Y83000637D01*
X150490546Y83038732D01*
X150528641Y83076827D01*
X150566736Y83153018D01*
X150566736Y83305399D01*
X150528641Y83381589D01*
X150490546Y83419684D01*
X150414355Y83457780D01*
X148585784Y72840637D02*
X148585784Y73640637D01*
X148890546Y73640637D01*
X148966736Y73602542D01*
X149004832Y73564446D01*
X149042927Y73488256D01*
X149042927Y73373970D01*
X149004832Y73297780D01*
X148966736Y73259684D01*
X148890546Y73221589D01*
X148585784Y73221589D01*
X149804832Y72840637D02*
X149347689Y72840637D01*
X149576260Y72840637D02*
X149576260Y73640637D01*
X149500070Y73526351D01*
X149423879Y73450161D01*
X149347689Y73412065D01*
X150300070Y73640637D02*
X150376260Y73640637D01*
X150452451Y73602542D01*
X150490546Y73564446D01*
X150528641Y73488256D01*
X150566736Y73335875D01*
X150566736Y73145399D01*
X150528641Y72993018D01*
X150490546Y72916827D01*
X150452451Y72878732D01*
X150376260Y72840637D01*
X150300070Y72840637D01*
X150223879Y72878732D01*
X150185784Y72916827D01*
X150147689Y72993018D01*
X150109593Y73145399D01*
X150109593Y73335875D01*
X150147689Y73488256D01*
X150185784Y73564446D01*
X150223879Y73602542D01*
X150300070Y73640637D01*
X158185784Y88080637D02*
X158185784Y88880637D01*
X158490546Y88880637D01*
X158566736Y88842542D01*
X158604832Y88804446D01*
X158642927Y88728256D01*
X158642927Y88613970D01*
X158604832Y88537780D01*
X158566736Y88499684D01*
X158490546Y88461589D01*
X158185784Y88461589D01*
X159138165Y88880637D02*
X159214355Y88880637D01*
X159290546Y88842542D01*
X159328641Y88804446D01*
X159366736Y88728256D01*
X159404832Y88575875D01*
X159404832Y88385399D01*
X159366736Y88233018D01*
X159328641Y88156827D01*
X159290546Y88118732D01*
X159214355Y88080637D01*
X159138165Y88080637D01*
X159061974Y88118732D01*
X159023879Y88156827D01*
X158985784Y88233018D01*
X158947689Y88385399D01*
X158947689Y88575875D01*
X158985784Y88728256D01*
X159023879Y88804446D01*
X159061974Y88842542D01*
X159138165Y88880637D01*
X159671498Y88880637D02*
X160166736Y88880637D01*
X159900070Y88575875D01*
X160014355Y88575875D01*
X160090546Y88537780D01*
X160128641Y88499684D01*
X160166736Y88423494D01*
X160166736Y88233018D01*
X160128641Y88156827D01*
X160090546Y88118732D01*
X160014355Y88080637D01*
X159785784Y88080637D01*
X159709593Y88118732D01*
X159671498Y88156827D01*
X158185784Y77920637D02*
X158185784Y78720637D01*
X158490546Y78720637D01*
X158566736Y78682542D01*
X158604832Y78644446D01*
X158642927Y78568256D01*
X158642927Y78453970D01*
X158604832Y78377780D01*
X158566736Y78339684D01*
X158490546Y78301589D01*
X158185784Y78301589D01*
X159138165Y78720637D02*
X159214355Y78720637D01*
X159290546Y78682542D01*
X159328641Y78644446D01*
X159366736Y78568256D01*
X159404832Y78415875D01*
X159404832Y78225399D01*
X159366736Y78073018D01*
X159328641Y77996827D01*
X159290546Y77958732D01*
X159214355Y77920637D01*
X159138165Y77920637D01*
X159061974Y77958732D01*
X159023879Y77996827D01*
X158985784Y78073018D01*
X158947689Y78225399D01*
X158947689Y78415875D01*
X158985784Y78568256D01*
X159023879Y78644446D01*
X159061974Y78682542D01*
X159138165Y78720637D01*
X159671498Y78720637D02*
X160204832Y78720637D01*
X159861974Y77920637D01*
X148585784Y85540637D02*
X148585784Y86340637D01*
X148890546Y86340637D01*
X148966736Y86302542D01*
X149004832Y86264446D01*
X149042927Y86188256D01*
X149042927Y86073970D01*
X149004832Y85997780D01*
X148966736Y85959684D01*
X148890546Y85921589D01*
X148585784Y85921589D01*
X149804832Y85540637D02*
X149347689Y85540637D01*
X149576260Y85540637D02*
X149576260Y86340637D01*
X149500070Y86226351D01*
X149423879Y86150161D01*
X149347689Y86112065D01*
X150185784Y85540637D02*
X150338165Y85540637D01*
X150414355Y85578732D01*
X150452451Y85616827D01*
X150528641Y85731113D01*
X150566736Y85883494D01*
X150566736Y86188256D01*
X150528641Y86264446D01*
X150490546Y86302542D01*
X150414355Y86340637D01*
X150261974Y86340637D01*
X150185784Y86302542D01*
X150147689Y86264446D01*
X150109593Y86188256D01*
X150109593Y85997780D01*
X150147689Y85921589D01*
X150185784Y85883494D01*
X150261974Y85845399D01*
X150414355Y85845399D01*
X150490546Y85883494D01*
X150528641Y85921589D01*
X150566736Y85997780D01*
X152248452Y99002542D02*
X152172261Y99040637D01*
X152057976Y99040637D01*
X151943690Y99002542D01*
X151867499Y98926351D01*
X151829404Y98850161D01*
X151791309Y98697780D01*
X151791309Y98583494D01*
X151829404Y98431113D01*
X151867499Y98354922D01*
X151943690Y98278732D01*
X152057976Y98240637D01*
X152134166Y98240637D01*
X152248452Y98278732D01*
X152286547Y98316827D01*
X152286547Y98583494D01*
X152134166Y98583494D01*
X152629404Y98240637D02*
X152629404Y99040637D01*
X153086547Y98240637D01*
X153086547Y99040637D01*
X153467499Y98240637D02*
X153467499Y99040637D01*
X153657976Y99040637D01*
X153772261Y99002542D01*
X153848452Y98926351D01*
X153886547Y98850161D01*
X153924642Y98697780D01*
X153924642Y98583494D01*
X153886547Y98431113D01*
X153848452Y98354922D01*
X153772261Y98278732D01*
X153657976Y98240637D01*
X153467499Y98240637D01*
X158185784Y85540637D02*
X158185784Y86340637D01*
X158490546Y86340637D01*
X158566736Y86302542D01*
X158604832Y86264446D01*
X158642927Y86188256D01*
X158642927Y86073970D01*
X158604832Y85997780D01*
X158566736Y85959684D01*
X158490546Y85921589D01*
X158185784Y85921589D01*
X159138165Y86340637D02*
X159214355Y86340637D01*
X159290546Y86302542D01*
X159328641Y86264446D01*
X159366736Y86188256D01*
X159404832Y86035875D01*
X159404832Y85845399D01*
X159366736Y85693018D01*
X159328641Y85616827D01*
X159290546Y85578732D01*
X159214355Y85540637D01*
X159138165Y85540637D01*
X159061974Y85578732D01*
X159023879Y85616827D01*
X158985784Y85693018D01*
X158947689Y85845399D01*
X158947689Y86035875D01*
X158985784Y86188256D01*
X159023879Y86264446D01*
X159061974Y86302542D01*
X159138165Y86340637D01*
X160090546Y86073970D02*
X160090546Y85540637D01*
X159900070Y86378732D02*
X159709593Y85807303D01*
X160204832Y85807303D01*
X158185784Y83000637D02*
X158185784Y83800637D01*
X158490546Y83800637D01*
X158566736Y83762542D01*
X158604832Y83724446D01*
X158642927Y83648256D01*
X158642927Y83533970D01*
X158604832Y83457780D01*
X158566736Y83419684D01*
X158490546Y83381589D01*
X158185784Y83381589D01*
X159138165Y83800637D02*
X159214355Y83800637D01*
X159290546Y83762542D01*
X159328641Y83724446D01*
X159366736Y83648256D01*
X159404832Y83495875D01*
X159404832Y83305399D01*
X159366736Y83153018D01*
X159328641Y83076827D01*
X159290546Y83038732D01*
X159214355Y83000637D01*
X159138165Y83000637D01*
X159061974Y83038732D01*
X159023879Y83076827D01*
X158985784Y83153018D01*
X158947689Y83305399D01*
X158947689Y83495875D01*
X158985784Y83648256D01*
X159023879Y83724446D01*
X159061974Y83762542D01*
X159138165Y83800637D01*
X160128641Y83800637D02*
X159747689Y83800637D01*
X159709593Y83419684D01*
X159747689Y83457780D01*
X159823879Y83495875D01*
X160014355Y83495875D01*
X160090546Y83457780D01*
X160128641Y83419684D01*
X160166736Y83343494D01*
X160166736Y83153018D01*
X160128641Y83076827D01*
X160090546Y83038732D01*
X160014355Y83000637D01*
X159823879Y83000637D01*
X159747689Y83038732D01*
X159709593Y83076827D01*
X148585784Y80460637D02*
X148585784Y81260637D01*
X148890546Y81260637D01*
X148966736Y81222542D01*
X149004832Y81184446D01*
X149042927Y81108256D01*
X149042927Y80993970D01*
X149004832Y80917780D01*
X148966736Y80879684D01*
X148890546Y80841589D01*
X148585784Y80841589D01*
X149804832Y80460637D02*
X149347689Y80460637D01*
X149576260Y80460637D02*
X149576260Y81260637D01*
X149500070Y81146351D01*
X149423879Y81070161D01*
X149347689Y81032065D01*
X150528641Y81260637D02*
X150147689Y81260637D01*
X150109593Y80879684D01*
X150147689Y80917780D01*
X150223879Y80955875D01*
X150414355Y80955875D01*
X150490546Y80917780D01*
X150528641Y80879684D01*
X150566736Y80803494D01*
X150566736Y80613018D01*
X150528641Y80536827D01*
X150490546Y80498732D01*
X150414355Y80460637D01*
X150223879Y80460637D01*
X150147689Y80498732D01*
X150109593Y80536827D01*
X158185784Y80460637D02*
X158185784Y81260637D01*
X158490546Y81260637D01*
X158566736Y81222542D01*
X158604832Y81184446D01*
X158642927Y81108256D01*
X158642927Y80993970D01*
X158604832Y80917780D01*
X158566736Y80879684D01*
X158490546Y80841589D01*
X158185784Y80841589D01*
X159138165Y81260637D02*
X159214355Y81260637D01*
X159290546Y81222542D01*
X159328641Y81184446D01*
X159366736Y81108256D01*
X159404832Y80955875D01*
X159404832Y80765399D01*
X159366736Y80613018D01*
X159328641Y80536827D01*
X159290546Y80498732D01*
X159214355Y80460637D01*
X159138165Y80460637D01*
X159061974Y80498732D01*
X159023879Y80536827D01*
X158985784Y80613018D01*
X158947689Y80765399D01*
X158947689Y80955875D01*
X158985784Y81108256D01*
X159023879Y81184446D01*
X159061974Y81222542D01*
X159138165Y81260637D01*
X160090546Y81260637D02*
X159938165Y81260637D01*
X159861974Y81222542D01*
X159823879Y81184446D01*
X159747689Y81070161D01*
X159709593Y80917780D01*
X159709593Y80613018D01*
X159747689Y80536827D01*
X159785784Y80498732D01*
X159861974Y80460637D01*
X160014355Y80460637D01*
X160090546Y80498732D01*
X160128641Y80536827D01*
X160166736Y80613018D01*
X160166736Y80803494D01*
X160128641Y80879684D01*
X160090546Y80917780D01*
X160014355Y80955875D01*
X159861974Y80955875D01*
X159785784Y80917780D01*
X159747689Y80879684D01*
X159709593Y80803494D01*
D11*
%TO.C,REF\u002A\u002A*%
X115534727Y85998380D02*
X115155862Y86038200D01*
X115357810Y85681805D02*
X115447406Y86534252D01*
X115410003Y86633946D01*
X115320264Y86691259D01*
X115225547Y86701214D01*
X114510197Y86728519D02*
X114609891Y86765923D01*
X114799324Y86746012D01*
X114889063Y86688699D01*
X114926466Y86589005D01*
X114886645Y86210140D01*
X114829332Y86120401D01*
X114729638Y86082998D01*
X114540205Y86102908D01*
X114450467Y86160221D01*
X114413063Y86259915D01*
X114423019Y86354632D01*
X114906556Y86399572D01*
X113971907Y86162639D02*
X114041593Y86825653D01*
X113981862Y86257355D02*
X113929527Y86214974D01*
X113829833Y86177571D01*
X113687758Y86192504D01*
X113598019Y86249817D01*
X113560616Y86349511D01*
X113615369Y86870451D01*
X113214176Y86242279D02*
X112835311Y86282100D01*
X113037259Y85925705D02*
X113126855Y86778152D01*
X113089452Y86877846D01*
X112999713Y86935159D01*
X112904996Y86945114D01*
X112573489Y86979957D02*
X112503803Y86316942D01*
X112468961Y85985435D02*
X112521296Y86027816D01*
X112478916Y86080152D01*
X112426580Y86037771D01*
X112468961Y85985435D01*
X112478916Y86080152D01*
X112030222Y86366718D02*
X112099907Y87029732D01*
X112040177Y86461434D02*
X111987841Y86419054D01*
X111888147Y86381651D01*
X111746072Y86396583D01*
X111656334Y86453896D01*
X111618931Y86553590D01*
X111673684Y87074530D01*
X110704192Y86506089D02*
X110788811Y87311178D01*
X110846124Y87400917D01*
X110898460Y87443298D01*
X110998154Y87480701D01*
X111140228Y87465768D01*
X111229967Y87408455D01*
X110768900Y87121746D02*
X110868594Y87159149D01*
X111058027Y87139239D01*
X111147766Y87081925D01*
X111190147Y87029589D01*
X111227550Y86929896D01*
X111197684Y86645746D01*
X111140371Y86556008D01*
X111088035Y86513627D01*
X110988341Y86476224D01*
X110798909Y86496134D01*
X110709170Y86553447D01*
X101713683Y87387180D02*
X101818212Y88381702D01*
X101718661Y87434538D02*
X101618967Y87397135D01*
X101429534Y87417045D01*
X101339795Y87474359D01*
X101297415Y87526694D01*
X101260012Y87626388D01*
X101289877Y87910537D01*
X101347190Y88000276D01*
X101399526Y88042657D01*
X101499220Y88080060D01*
X101688653Y88060150D01*
X101778391Y88002836D01*
X100387654Y87526551D02*
X100457340Y88189566D01*
X100813878Y87481753D02*
X100868631Y88002693D01*
X100831228Y88102387D01*
X100741489Y88159701D01*
X100599414Y88174633D01*
X100499720Y88137230D01*
X100447385Y88094849D01*
X99552557Y88236781D02*
X99652251Y88274184D01*
X99841683Y88254274D01*
X99931422Y88196961D01*
X99973803Y88144625D01*
X100011206Y88044931D01*
X99981341Y87760782D01*
X99924027Y87671043D01*
X99871692Y87628662D01*
X99771998Y87591259D01*
X99582565Y87611170D01*
X99492826Y87668483D01*
X99131311Y88328937D02*
X99026782Y87334415D01*
X98996774Y87960027D02*
X98752445Y88368758D01*
X98682760Y87705743D02*
X99101445Y88044788D01*
D10*
%TO.C,T1*%
X163850140Y59144619D02*
X161000140Y59144619D01*
X163850140Y53894619D02*
X163850140Y57794619D01*
X161000140Y59144619D02*
X161000140Y52544619D01*
X163850140Y55844619D02*
X163850140Y52544619D01*
X161000140Y52544619D02*
X163850140Y52544619D01*
X163850140Y55844619D02*
X163850140Y59144619D01*
%TO.C,B1*%
X161453191Y62902519D02*
X161453191Y68902519D01*
X164953191Y62902519D02*
X164953191Y68902519D01*
X161453191Y68902519D02*
X161703191Y68902519D01*
X164953191Y62902519D02*
X164703191Y62902519D01*
X164953191Y68902519D02*
X164703191Y68902519D01*
X161453191Y62902519D02*
X161703191Y62902519D01*
%TO.C,G\u002A\u002A\u002A*%
G36*
X92883978Y54811439D02*
G01*
X92740255Y54880814D01*
X92407058Y55056231D01*
X92211599Y55193916D01*
X92131416Y55310999D01*
X92130646Y55316839D01*
X92306885Y55316839D01*
X92323310Y55295956D01*
X92503738Y55201096D01*
X92814003Y55123189D01*
X93215242Y55064583D01*
X93668589Y55027628D01*
X94135180Y55014670D01*
X94576151Y55028060D01*
X94952637Y55070144D01*
X95174422Y55123679D01*
X95401772Y55233273D01*
X95460472Y55348492D01*
X95351061Y55468035D01*
X95074080Y55590598D01*
X94966078Y55625429D01*
X94664565Y55735323D01*
X94407590Y55860367D01*
X94283288Y55946404D01*
X94021677Y56093383D01*
X93736622Y56076183D01*
X93509613Y55948664D01*
X93306784Y55830100D01*
X93019752Y55709005D01*
X92844401Y55651219D01*
X92514387Y55534275D01*
X92332107Y55420696D01*
X92306885Y55316839D01*
X92130646Y55316839D01*
X92126422Y55348860D01*
X92205522Y55535943D01*
X92420663Y55696920D01*
X92738600Y55809825D01*
X92858300Y55832470D01*
X93154436Y55920791D01*
X93435028Y56068739D01*
X93454272Y56082600D01*
X93752550Y56247693D01*
X94019947Y56257391D01*
X94293936Y56111220D01*
X94343195Y56071400D01*
X94555160Y55931295D01*
X94751676Y55860051D01*
X94778751Y55857874D01*
X94966352Y55822347D01*
X95222502Y55735067D01*
X95328663Y55689960D01*
X95559074Y55566867D01*
X95659234Y55452976D01*
X95667330Y55340633D01*
X95591473Y55163612D01*
X95513088Y55091950D01*
X95111759Y54891462D01*
X94805697Y54759395D01*
X94543443Y54679643D01*
X94273536Y54636100D01*
X93989088Y54614958D01*
X93653008Y54603783D01*
X93402897Y54622991D01*
X93169604Y54687303D01*
X93109985Y54713214D01*
X93673799Y54713214D01*
X93780173Y54699930D01*
X93904422Y54697460D01*
X94087543Y54704065D01*
X94137812Y54720951D01*
X94094922Y54734152D01*
X93848204Y54748159D01*
X93713922Y54734152D01*
X93673799Y54713214D01*
X93109985Y54713214D01*
X92957906Y54779309D01*
X93263810Y54779309D01*
X93347033Y54765751D01*
X93456847Y54781317D01*
X93458158Y54810219D01*
X93344841Y54830431D01*
X93295880Y54816903D01*
X93263810Y54779309D01*
X92957906Y54779309D01*
X92883978Y54811439D01*
G37*
G36*
X94497088Y50503045D02*
G01*
X94643295Y50652401D01*
X94666692Y50756195D01*
X94555768Y50821445D01*
X94299012Y50855169D01*
X93904422Y50864400D01*
X93568863Y50857043D01*
X93308698Y50837338D01*
X93161697Y50808830D01*
X93142422Y50792855D01*
X93199034Y50688346D01*
X93311755Y50568066D01*
X93447142Y50400898D01*
X93476988Y50265739D01*
X93400694Y50201812D01*
X93317223Y50210169D01*
X93160615Y50195335D01*
X93108213Y50135377D01*
X93006711Y50026556D01*
X92885968Y50061683D01*
X92834968Y50143183D01*
X92754841Y50223695D01*
X92631524Y50185516D01*
X92462694Y50111812D01*
X92392654Y50148018D01*
X92380422Y50271016D01*
X92421728Y50379808D01*
X92582791Y50379808D01*
X92677340Y50385158D01*
X92749034Y50430786D01*
X92849174Y50473905D01*
X92916959Y50373574D01*
X92929388Y50337018D01*
X92980358Y50214712D01*
X93017398Y50247358D01*
X93029700Y50288207D01*
X93124266Y50392124D01*
X93211226Y50386159D01*
X93282980Y50379386D01*
X93221385Y50454321D01*
X93173785Y50496685D01*
X93022640Y50657352D01*
X92947636Y50779733D01*
X92909598Y50852446D01*
X92895106Y50761545D01*
X92821498Y50610467D01*
X92711837Y50521852D01*
X92594181Y50433079D01*
X92582791Y50379808D01*
X92421728Y50379808D01*
X92447013Y50446405D01*
X92549755Y50545382D01*
X92693986Y50671444D01*
X92682018Y50778173D01*
X92509132Y50871978D01*
X92258894Y50940441D01*
X91805541Y51124714D01*
X91433524Y51442555D01*
X91170096Y51867066D01*
X91092709Y52091419D01*
X90991439Y52470057D01*
X90775764Y52332967D01*
X90561682Y52165937D01*
X90369908Y51974638D01*
X90179727Y51753400D01*
X90000313Y51965066D01*
X89869742Y52239974D01*
X89848473Y52501801D01*
X90095204Y52501801D01*
X90102772Y52276291D01*
X90139765Y52147704D01*
X90163941Y52134400D01*
X90256374Y52188909D01*
X90430173Y52331426D01*
X90603135Y52489954D01*
X91293284Y52489954D01*
X91375226Y52110208D01*
X91476501Y51873648D01*
X91654061Y51601911D01*
X91877885Y51393116D01*
X92168936Y51241165D01*
X92548174Y51139962D01*
X93036561Y51083409D01*
X93655058Y51065408D01*
X94226220Y51073792D01*
X94708800Y51090617D01*
X95060360Y51114249D01*
X95319209Y51150426D01*
X95523658Y51204883D01*
X95712015Y51283357D01*
X95750220Y51301989D01*
X96123921Y51577407D01*
X96396496Y51966219D01*
X96555900Y52437813D01*
X96590089Y52961576D01*
X96540529Y53310769D01*
X96455508Y53618649D01*
X96347306Y53796201D01*
X96181045Y53859979D01*
X95921846Y53826536D01*
X95630184Y53742813D01*
X94953530Y53587774D01*
X94197082Y53510253D01*
X93433171Y53513392D01*
X92734127Y53600336D01*
X92668971Y53614115D01*
X92335075Y53693216D01*
X92053420Y53769503D01*
X91875159Y53828891D01*
X91854808Y53838335D01*
X91752825Y53860391D01*
X91681082Y53771888D01*
X91623707Y53593361D01*
X91533656Y53336287D01*
X91426116Y53126554D01*
X91411179Y53105450D01*
X91304319Y52839623D01*
X91293284Y52489954D01*
X90603135Y52489954D01*
X90635426Y52519550D01*
X90866152Y52778902D01*
X91090809Y53095367D01*
X91281265Y53421544D01*
X91409387Y53710034D01*
X91448261Y53889059D01*
X91380701Y53995723D01*
X91215710Y54113267D01*
X91203142Y54119902D01*
X91054781Y54186990D01*
X90944970Y54184016D01*
X90822020Y54091411D01*
X90654733Y53912295D01*
X90448858Y53651510D01*
X90275909Y53376808D01*
X90223346Y53268946D01*
X90158061Y53047223D01*
X90114491Y52775143D01*
X90095204Y52501801D01*
X89848473Y52501801D01*
X89840202Y52603612D01*
X89902370Y53016274D01*
X90046922Y53438258D01*
X90264536Y53829856D01*
X90504870Y54113825D01*
X90761494Y54357583D01*
X90302999Y54776621D01*
X89826443Y55321596D01*
X89567296Y55759042D01*
X89447141Y56012240D01*
X89368080Y56220018D01*
X89321752Y56429518D01*
X89299794Y56687883D01*
X89293841Y57042258D01*
X89294371Y57297579D01*
X89297495Y57341400D01*
X89553696Y57341400D01*
X89557400Y56928222D01*
X89578822Y56628157D01*
X89627684Y56385171D01*
X89713705Y56143232D01*
X89792844Y55962855D01*
X90136304Y55401988D01*
X90621028Y54892268D01*
X91222119Y54452211D01*
X91914683Y54100333D01*
X92603812Y53872265D01*
X93082786Y53794861D01*
X93663314Y53766986D01*
X94285788Y53786196D01*
X94890603Y53850046D01*
X95418152Y53956093D01*
X95543239Y53992802D01*
X96123723Y54178753D01*
X96070295Y54617077D01*
X96079465Y55080285D01*
X96325881Y55080285D01*
X96327710Y54677744D01*
X96375168Y54316992D01*
X96467775Y54056944D01*
X96475134Y54045253D01*
X96628143Y53811733D01*
X96826284Y53997877D01*
X96966130Y54193782D01*
X97086957Y54469968D01*
X97121864Y54590190D01*
X97176721Y55146150D01*
X97084261Y55689335D01*
X96907681Y56083336D01*
X96784247Y56274447D01*
X96713207Y56333717D01*
X96666647Y56278387D01*
X96652846Y56240733D01*
X96579443Y56050036D01*
X96475242Y55806585D01*
X96461032Y55775066D01*
X96370162Y55465698D01*
X96325881Y55080285D01*
X96079465Y55080285D01*
X96082096Y55213210D01*
X96150582Y55521066D01*
X96262396Y55901980D01*
X96322245Y56147438D01*
X96311960Y56287910D01*
X96213374Y56353867D01*
X96008320Y56375778D01*
X95678630Y56384113D01*
X95635186Y56385469D01*
X94892188Y56410066D01*
X94545362Y57256733D01*
X94198535Y58103400D01*
X93537991Y58103400D01*
X92844243Y56410066D01*
X91992187Y56386102D01*
X91140130Y56362137D01*
X90785489Y57302541D01*
X90651479Y57677144D01*
X90550559Y57997120D01*
X90492705Y58227962D01*
X90487272Y58334241D01*
X90565612Y58358671D01*
X90770969Y58376347D01*
X91110443Y58387339D01*
X91591135Y58391713D01*
X92220147Y58389538D01*
X93004578Y58380882D01*
X93892620Y58366851D01*
X94628610Y58353119D01*
X95310377Y58338793D01*
X95919653Y58324376D01*
X96438166Y58310372D01*
X96847646Y58297287D01*
X97129824Y58285624D01*
X97266428Y58275889D01*
X97276286Y58273424D01*
X97264632Y58184166D01*
X97205275Y57971704D01*
X97108818Y57671815D01*
X97032008Y57449106D01*
X96752989Y56659530D01*
X96977731Y56434787D01*
X97139512Y56205119D01*
X97287131Y55877216D01*
X97345176Y55696772D01*
X97487878Y55183498D01*
X97700397Y55496248D01*
X97963013Y55953635D01*
X98127499Y56429344D01*
X98208157Y56975786D01*
X98222422Y57409186D01*
X98153236Y58317446D01*
X97951835Y59154138D01*
X97627455Y59906649D01*
X97189332Y60562370D01*
X96646702Y61108689D01*
X96008799Y61532995D01*
X95284861Y61822677D01*
X94928718Y61906649D01*
X94599418Y61983285D01*
X94428121Y62077514D01*
X94403843Y62217712D01*
X94515598Y62432257D01*
X94652421Y62620354D01*
X94830072Y62942212D01*
X94878088Y63278409D01*
X94844099Y63599871D01*
X94740227Y63769180D01*
X94563612Y63789686D01*
X94470459Y63756294D01*
X94256563Y63572819D01*
X94090860Y63257823D01*
X93987793Y62845723D01*
X93961254Y62542942D01*
X93942369Y62227069D01*
X93913023Y62069667D01*
X93879665Y62060719D01*
X93848740Y62190208D01*
X93826695Y62448119D01*
X93819755Y62762786D01*
X93794031Y63302679D01*
X93718779Y63706619D01*
X93596879Y63965572D01*
X93431210Y64070503D01*
X93402355Y64072400D01*
X93240506Y63997740D01*
X93178928Y63867659D01*
X93168326Y63649227D01*
X93203966Y63327445D01*
X93275583Y62958591D01*
X93372909Y62598940D01*
X93448998Y62387233D01*
X93520542Y62193920D01*
X93546125Y62082449D01*
X93543788Y62074878D01*
X93455295Y62047212D01*
X93243659Y61996299D01*
X92951733Y61932349D01*
X92901052Y61921718D01*
X92094895Y61683228D01*
X91407043Y61325848D01*
X90829831Y60843852D01*
X90355594Y60231511D01*
X90150404Y59866170D01*
X89844649Y59165956D01*
X89655204Y58486382D01*
X89565908Y57759066D01*
X89553696Y57341400D01*
X89297495Y57341400D01*
X89363677Y58269694D01*
X89557951Y59160199D01*
X89870025Y59958686D01*
X90292730Y60654747D01*
X90818899Y61237974D01*
X91441364Y61697957D01*
X92152957Y62024288D01*
X92640005Y62155797D01*
X92910572Y62216488D01*
X93107206Y62270853D01*
X93176676Y62300432D01*
X93180759Y62399663D01*
X93145166Y62609747D01*
X93097975Y62806337D01*
X92993959Y63324682D01*
X92978234Y63751062D01*
X93050080Y64065427D01*
X93148207Y64204636D01*
X93288440Y64307755D01*
X93415811Y64302972D01*
X93550374Y64235849D01*
X93757738Y64062353D01*
X93889118Y63876231D01*
X94000814Y63643880D01*
X94255447Y63858140D01*
X94465557Y64016970D01*
X94614991Y64056293D01*
X94762434Y63976714D01*
X94881937Y63864582D01*
X95052086Y63582213D01*
X95095465Y63231293D01*
X95012346Y62855224D01*
X94873903Y62592622D01*
X94750576Y62399963D01*
X94685927Y62277032D01*
X94683403Y62256510D01*
X94773050Y62230420D01*
X94979276Y62181344D01*
X95193103Y62133920D01*
X95946464Y61887855D01*
X96621090Y61496722D01*
X97208237Y60969645D01*
X97699161Y60315748D01*
X98085118Y59544155D01*
X98301239Y58890731D01*
X98476901Y58009790D01*
X98519445Y57191338D01*
X98430843Y56447007D01*
X98213068Y55788428D01*
X97868093Y55227231D01*
X97637308Y54976059D01*
X97473252Y54785159D01*
X97382263Y54611451D01*
X97375755Y54570520D01*
X97333745Y54375923D01*
X97229657Y54132103D01*
X97096407Y53901142D01*
X96966910Y53745125D01*
X96923569Y53717622D01*
X96862620Y53652314D01*
X96826491Y53494962D01*
X96811185Y53217437D01*
X96810852Y52924013D01*
X96806347Y52515991D01*
X96776410Y52219573D01*
X96711941Y51977819D01*
X96628666Y51784018D01*
X96338971Y51371594D01*
X95938500Y51071362D01*
X95461927Y50909110D01*
X95449588Y50907085D01*
X95193056Y50836684D01*
X95098588Y50736465D01*
X95168749Y50611297D01*
X95259088Y50545382D01*
X95394479Y50409715D01*
X95419029Y50274923D01*
X95330265Y50193370D01*
X95276022Y50187066D01*
X95084469Y50130817D01*
X95016322Y50081233D01*
X94911884Y50026348D01*
X94806703Y50114193D01*
X94795850Y50128633D01*
X94684763Y50221542D01*
X94627219Y50192133D01*
X94510362Y50109045D01*
X94383563Y50127496D01*
X94327755Y50230229D01*
X94363786Y50319728D01*
X94534456Y50319728D01*
X94548861Y50309933D01*
X94611115Y50354962D01*
X94740775Y50428040D01*
X94827524Y50366648D01*
X94862211Y50310067D01*
X94937077Y50200571D01*
X94974362Y50237014D01*
X94986321Y50288207D01*
X95072375Y50393271D01*
X95158559Y50389280D01*
X95217430Y50391348D01*
X95130255Y50474349D01*
X95110922Y50488967D01*
X94967179Y50640336D01*
X94913737Y50768893D01*
X94899684Y50857263D01*
X94860890Y50780451D01*
X94860628Y50779733D01*
X94774293Y50627497D01*
X94634478Y50443629D01*
X94534456Y50319728D01*
X94363786Y50319728D01*
X94387506Y50378647D01*
X94497088Y50503045D01*
G37*
D12*
%TO.C,MCU1*%
X151118690Y99602542D02*
X151118690Y97602542D01*
X148318690Y99602542D02*
X151118690Y99602542D01*
X148318690Y97062542D02*
X151118690Y97062542D01*
D10*
X163247213Y104952542D02*
X145467213Y104952542D01*
D12*
X148318690Y102142542D02*
X151118690Y102142542D01*
X151118690Y97062542D02*
X151118690Y95062542D01*
X148318690Y97602542D02*
X148318690Y98272542D01*
X148318690Y95062542D02*
X148318690Y95747542D01*
X151118690Y95062542D02*
X148318690Y95062542D01*
X151118690Y102142542D02*
X151118690Y100142542D01*
D10*
X145467213Y71932542D02*
X163247213Y71932542D01*
D12*
X148318690Y96397542D02*
X148318690Y97062542D01*
X148318690Y101472542D02*
X148318690Y102142542D01*
D10*
X145467213Y104952542D02*
X145467213Y71932542D01*
D12*
X151118690Y100142542D02*
X148318690Y100142542D01*
D10*
X163247213Y71932542D02*
X163247213Y104952542D01*
D12*
X148318690Y98922542D02*
X148318690Y99602542D01*
X151118690Y97602542D02*
X148318690Y97602542D01*
X148318690Y100142542D02*
X148318690Y100822542D01*
D13*
%TO.C,REF\u002A\u002A*%
X105552476Y107886502D02*
G75*
G03*
X101316600Y107292150I717832J-20507396D01*
G01*
X95711201Y89623533D02*
G75*
G03*
X95534440Y88507511I10559004J-2244397D01*
G01*
X116794091Y85056446D02*
G75*
G03*
X116970852Y86172468I-10559025J2244393D01*
G01*
X124718248Y78393521D02*
G75*
G03*
X126180299Y82413261I-18447944J8985605D01*
G01*
X116829407Y85134719D02*
G75*
G03*
X117006168Y86250741I-10559025J2244393D01*
G01*
X106988132Y66871751D02*
G75*
G03*
X111224010Y67466103I-717823J20507327D01*
G01*
X116970852Y86172468D02*
G75*
G03*
X117029988Y87300853I-10735785J1128382D01*
G01*
X85762929Y86661298D02*
G75*
G03*
X86357281Y82425419I20507358J717826D01*
G01*
X95675884Y89545260D02*
G75*
G03*
X95499124Y88429238I10559026J-2244393D01*
G01*
X95499124Y88429238D02*
G75*
G03*
X95439988Y87300853I10735823J-1128385D01*
G01*
X115255909Y105827069D02*
G75*
G03*
X111236169Y107289121I-8985622J-18447991D01*
G01*
X126777679Y88096954D02*
G75*
G03*
X126183327Y92332832I-20507375J-717828D01*
G01*
X97284697Y68931183D02*
G75*
G03*
X101304439Y67469131I8985601J18447927D01*
G01*
X95534440Y88507511D02*
G75*
G03*
X95475304Y87379126I10735785J-1128383D01*
G01*
X117006168Y86250741D02*
G75*
G03*
X117065304Y87379126I-10735765J1128375D01*
G01*
X87822361Y96364733D02*
G75*
G03*
X86360309Y92344991I18447943J-8985607D01*
G01*
G36*
X120349596Y85891644D02*
G01*
X120243404Y85901394D01*
X120121311Y85913177D01*
X119984721Y85926865D01*
X119835044Y85942335D01*
X119823372Y85943558D01*
X119135439Y86015776D01*
X118681276Y86574011D01*
X119172156Y86522566D01*
X119275845Y86511861D01*
X119372111Y86502235D01*
X119458599Y86493898D01*
X119532954Y86487065D01*
X119592822Y86481948D01*
X119635848Y86478760D01*
X119659676Y86477712D01*
X119663779Y86478194D01*
X119658799Y86491217D01*
X119645142Y86517635D01*
X119630557Y86543435D01*
X119572212Y86664896D01*
X119536152Y86791576D01*
X119531148Y86839315D01*
X120035196Y86839315D01*
X120055373Y86738306D01*
X120060161Y86723723D01*
X120103626Y86630718D01*
X120163733Y86550003D01*
X120237467Y86482885D01*
X120321818Y86430669D01*
X120413770Y86394658D01*
X120510314Y86376159D01*
X120608433Y86376477D01*
X120705118Y86396914D01*
X120761962Y86419752D01*
X120856758Y86477091D01*
X120935555Y86548728D01*
X120997108Y86632183D01*
X121040176Y86724976D01*
X121063513Y86824623D01*
X121065879Y86928647D01*
X121054309Y87003091D01*
X121042805Y87047534D01*
X121029816Y87090029D01*
X121023773Y87106920D01*
X120997672Y87155199D01*
X120956887Y87209081D01*
X120906758Y87262671D01*
X120852623Y87310074D01*
X120816752Y87335451D01*
X120774858Y87360146D01*
X120737783Y87376758D01*
X120696492Y87388495D01*
X120641943Y87398570D01*
X120636711Y87399404D01*
X120529702Y87407264D01*
X120429957Y87394766D01*
X120332483Y87361118D01*
X120302253Y87346428D01*
X120218029Y87290383D01*
X120147961Y87218496D01*
X120093345Y87134107D01*
X120055480Y87040553D01*
X120035664Y86941176D01*
X120035196Y86839315D01*
X119531148Y86839315D01*
X119522256Y86924137D01*
X119530404Y87063249D01*
X119532930Y87080893D01*
X119548816Y87169352D01*
X119568682Y87244169D01*
X119595557Y87313391D01*
X119632468Y87385063D01*
X119672230Y87451120D01*
X119760483Y87570482D01*
X119863762Y87673168D01*
X119980293Y87758348D01*
X120108307Y87825191D01*
X120246029Y87872867D01*
X120391690Y87900545D01*
X120543516Y87907393D01*
X120633067Y87901561D01*
X120783634Y87875388D01*
X120924129Y87829093D01*
X121057047Y87761685D01*
X121157395Y87693568D01*
X121268070Y87595751D01*
X121361723Y87483735D01*
X121437506Y87359802D01*
X121494570Y87226230D01*
X121532068Y87085303D01*
X121549153Y86939298D01*
X121544975Y86790499D01*
X121530038Y86691270D01*
X121490178Y86550055D01*
X121429463Y86415094D01*
X121349925Y86289548D01*
X121253592Y86176578D01*
X121142493Y86079347D01*
X121132500Y86071957D01*
X121020470Y86002154D01*
X120895651Y85945197D01*
X120764711Y85903489D01*
X120634322Y85879434D01*
X120587199Y85875469D01*
X120558687Y85875838D01*
X120508644Y85878740D01*
X120458432Y85882540D01*
X120438478Y85884050D01*
X120349596Y85891644D01*
G37*
D14*
X120349596Y85891644D02*
X120243404Y85901394D01*
X120121311Y85913177D01*
X119984721Y85926865D01*
X119835044Y85942335D01*
X119823372Y85943558D01*
X119135439Y86015776D01*
X118681276Y86574011D01*
X119172156Y86522566D01*
X119275845Y86511861D01*
X119372111Y86502235D01*
X119458599Y86493898D01*
X119532954Y86487065D01*
X119592822Y86481948D01*
X119635848Y86478760D01*
X119659676Y86477712D01*
X119663779Y86478194D01*
X119658799Y86491217D01*
X119645142Y86517635D01*
X119630557Y86543435D01*
X119572212Y86664896D01*
X119536152Y86791576D01*
X119531148Y86839315D01*
X120035196Y86839315D01*
X120055373Y86738306D01*
X120060161Y86723723D01*
X120103626Y86630718D01*
X120163733Y86550003D01*
X120237467Y86482885D01*
X120321818Y86430669D01*
X120413770Y86394658D01*
X120510314Y86376159D01*
X120608433Y86376477D01*
X120705118Y86396914D01*
X120761962Y86419752D01*
X120856758Y86477091D01*
X120935555Y86548728D01*
X120997108Y86632183D01*
X121040176Y86724976D01*
X121063513Y86824623D01*
X121065879Y86928647D01*
X121054309Y87003091D01*
X121042805Y87047534D01*
X121029816Y87090029D01*
X121023773Y87106920D01*
X120997672Y87155199D01*
X120956887Y87209081D01*
X120906758Y87262671D01*
X120852623Y87310074D01*
X120816752Y87335451D01*
X120774858Y87360146D01*
X120737783Y87376758D01*
X120696492Y87388495D01*
X120641943Y87398570D01*
X120636711Y87399404D01*
X120529702Y87407264D01*
X120429957Y87394766D01*
X120332483Y87361118D01*
X120302253Y87346428D01*
X120218029Y87290383D01*
X120147961Y87218496D01*
X120093345Y87134107D01*
X120055480Y87040553D01*
X120035664Y86941176D01*
X120035196Y86839315D01*
X119531148Y86839315D01*
X119522256Y86924137D01*
X119530404Y87063249D01*
X119532930Y87080893D01*
X119548816Y87169352D01*
X119568682Y87244169D01*
X119595557Y87313391D01*
X119632468Y87385063D01*
X119672230Y87451120D01*
X119760483Y87570482D01*
X119863762Y87673168D01*
X119980293Y87758348D01*
X120108307Y87825191D01*
X120246029Y87872867D01*
X120391690Y87900545D01*
X120543516Y87907393D01*
X120633067Y87901561D01*
X120783634Y87875388D01*
X120924129Y87829093D01*
X121057047Y87761685D01*
X121157395Y87693568D01*
X121268070Y87595751D01*
X121361723Y87483735D01*
X121437506Y87359802D01*
X121494570Y87226230D01*
X121532068Y87085303D01*
X121549153Y86939298D01*
X121544975Y86790499D01*
X121530038Y86691270D01*
X121490178Y86550055D01*
X121429463Y86415094D01*
X121349925Y86289548D01*
X121253592Y86176578D01*
X121142493Y86079347D01*
X121132500Y86071957D01*
X121020470Y86002154D01*
X120895651Y85945197D01*
X120764711Y85903489D01*
X120634322Y85879434D01*
X120587199Y85875469D01*
X120558687Y85875838D01*
X120508644Y85878740D01*
X120458432Y85882540D01*
X120438478Y85884050D01*
X120349596Y85891644D01*
G36*
X120188603Y84733944D02*
G01*
X120295344Y84604151D01*
X120399254Y84477798D01*
X120499235Y84356227D01*
X120594180Y84240778D01*
X120682990Y84132791D01*
X120764562Y84033606D01*
X120837793Y83944565D01*
X120901580Y83867005D01*
X120954823Y83802269D01*
X120996419Y83751697D01*
X121025264Y83716629D01*
X121037743Y83701461D01*
X121120018Y83601469D01*
X118393168Y83888072D01*
X118445061Y84381807D01*
X120069671Y84211053D01*
X119355299Y85093506D01*
X119421737Y85666436D01*
X120188603Y84733944D01*
G37*
X120188603Y84733944D02*
X120295344Y84604151D01*
X120399254Y84477798D01*
X120499235Y84356227D01*
X120594180Y84240778D01*
X120682990Y84132791D01*
X120764562Y84033606D01*
X120837793Y83944565D01*
X120901580Y83867005D01*
X120954823Y83802269D01*
X120996419Y83751697D01*
X121025264Y83716629D01*
X121037743Y83701461D01*
X121120018Y83601469D01*
X118393168Y83888072D01*
X118445061Y84381807D01*
X120069671Y84211053D01*
X119355299Y85093506D01*
X119421737Y85666436D01*
X120188603Y84733944D01*
G36*
X121304567Y84969072D02*
G01*
X121111343Y84815076D01*
X121051282Y84767351D01*
X120994795Y84722728D01*
X120945283Y84683874D01*
X120906142Y84653453D01*
X120880775Y84634131D01*
X120876970Y84631336D01*
X120835820Y84601592D01*
X120692193Y84778610D01*
X120648205Y84833220D01*
X120609740Y84881731D01*
X120578996Y84921308D01*
X120558169Y84949120D01*
X120549454Y84962332D01*
X120549327Y84962879D01*
X120558306Y84970920D01*
X120583417Y84991108D01*
X120622357Y85021685D01*
X120672824Y85060893D01*
X120732514Y85106973D01*
X120799124Y85158170D01*
X120870352Y85212723D01*
X120943894Y85268876D01*
X121017448Y85324869D01*
X121088710Y85378947D01*
X121155379Y85429350D01*
X121215150Y85474320D01*
X121265721Y85512101D01*
X121304789Y85540934D01*
X121330051Y85559060D01*
X121332967Y85561059D01*
X121369376Y85585690D01*
X121304567Y84969072D01*
G37*
X121304567Y84969072D02*
X121111343Y84815076D01*
X121051282Y84767351D01*
X120994795Y84722728D01*
X120945283Y84683874D01*
X120906142Y84653453D01*
X120880775Y84634131D01*
X120876970Y84631336D01*
X120835820Y84601592D01*
X120692193Y84778610D01*
X120648205Y84833220D01*
X120609740Y84881731D01*
X120578996Y84921308D01*
X120558169Y84949120D01*
X120549454Y84962332D01*
X120549327Y84962879D01*
X120558306Y84970920D01*
X120583417Y84991108D01*
X120622357Y85021685D01*
X120672824Y85060893D01*
X120732514Y85106973D01*
X120799124Y85158170D01*
X120870352Y85212723D01*
X120943894Y85268876D01*
X121017448Y85324869D01*
X121088710Y85378947D01*
X121155379Y85429350D01*
X121215150Y85474320D01*
X121265721Y85512101D01*
X121304789Y85540934D01*
X121330051Y85559060D01*
X121332967Y85561059D01*
X121369376Y85585690D01*
X121304567Y84969072D01*
%TD*%
D15*
%TO.C,PAD1*%
X151545396Y58163682D03*
X149545396Y58163682D03*
X147545396Y58163682D03*
%TD*%
D16*
%TO.C,B1*%
X163203191Y69152519D03*
X163203191Y62652519D03*
%TD*%
D17*
%TO.C,MCU1*%
X161977213Y98602542D03*
X161977213Y96062542D03*
X146737213Y96062542D03*
X146737213Y101226288D03*
X161977213Y101142542D03*
X146737213Y98602542D03*
X146737213Y93522542D03*
X146737213Y90982542D03*
X146737213Y88442542D03*
X146737213Y85902542D03*
X146737213Y83362542D03*
X146737213Y80822542D03*
X146737213Y78282542D03*
X146737213Y75742542D03*
X146737213Y73202542D03*
X161977213Y93522542D03*
X161977213Y90982542D03*
X161977213Y88442542D03*
X161977213Y85902542D03*
X161977213Y83362542D03*
X161977213Y80822542D03*
X161977213Y78282542D03*
X161977213Y75742542D03*
X161977213Y73202542D03*
%TD*%
%LPC*%
D18*
%TO.C,T1*%
X161400140Y52144619D03*
X163600140Y59544619D03*
X163600140Y52144619D03*
X161400140Y59544619D03*
D19*
X160425140Y53594619D03*
X160425140Y56594619D03*
X160425140Y58094619D03*
%TD*%
D20*
%TO.C,PAD1*%
X151545396Y58163682D03*
X149545396Y58163682D03*
X147545396Y58163682D03*
%TD*%
D21*
%TO.C,B1*%
X163203191Y69152519D03*
X163203191Y62652519D03*
%TD*%
D22*
%TO.C,S11*%
X68013088Y111700252D03*
X79432120Y114501717D03*
D23*
X81965469Y108676319D03*
D24*
X76473007Y108388471D03*
D25*
X71283599Y111871652D03*
D23*
X70980545Y108100623D03*
D25*
X76161608Y114330317D03*
X76161608Y114330317D03*
X81269895Y112395012D03*
%TD*%
D23*
%TO.C,S34*%
X141178726Y44889558D03*
D24*
X136010417Y46770669D03*
D23*
X130842108Y48651780D03*
D26*
X130012277Y44909938D03*
X139409204Y41489736D03*
X133992498Y41226483D03*
X133992498Y41226483D03*
%TD*%
D24*
%TO.C,S15*%
X96495817Y96246989D03*
D23*
X101995817Y96246989D03*
D25*
X101495817Y99996989D03*
X96495817Y102196989D03*
X96495817Y102196989D03*
X91495817Y99996989D03*
D23*
X90995817Y96246989D03*
D27*
X99770817Y102196989D03*
X88220817Y99996989D03*
%TD*%
D25*
%TO.C,S21*%
X115411087Y95636017D03*
D23*
X109911087Y89686017D03*
D25*
X115411087Y95636017D03*
X120411087Y93436017D03*
D23*
X120911087Y89686017D03*
D25*
X110411087Y93436017D03*
D24*
X115411087Y89686017D03*
D27*
X118686087Y95636017D03*
X107136087Y93436017D03*
%TD*%
D26*
%TO.C,S8*%
X78561213Y68543153D03*
X78561213Y68543153D03*
X83444455Y70901955D03*
X73458160Y70378595D03*
D24*
X78252431Y74435067D03*
D23*
X83744893Y74722915D03*
X72759969Y74147219D03*
%TD*%
D24*
%TO.C,S14*%
X96495817Y79246989D03*
D23*
X101995817Y79246989D03*
X90995817Y79246989D03*
D26*
X91495817Y75446989D03*
X101495817Y75446989D03*
X96495817Y73346989D03*
X96495817Y73346989D03*
%TD*%
D24*
%TO.C,S20*%
X115411087Y72686017D03*
D23*
X109911087Y72686017D03*
X120911087Y72686017D03*
D26*
X120411087Y68886017D03*
X110411087Y68886017D03*
X115411087Y66786017D03*
X115411087Y66786017D03*
%TD*%
D23*
%TO.C,S28*%
X128718280Y77278852D03*
X139718280Y77278852D03*
D24*
X134218280Y77278852D03*
D26*
X129218280Y73478852D03*
X139218280Y73478852D03*
X134218280Y71378852D03*
X134218280Y71378852D03*
%TD*%
D25*
%TO.C,S29*%
X134218280Y100228852D03*
X134218280Y100228852D03*
D23*
X139718280Y94278852D03*
D24*
X134218280Y94278852D03*
D25*
X139218280Y98028852D03*
X129218280Y98028852D03*
D23*
X128718280Y94278852D03*
D27*
X137493280Y100228852D03*
X125943280Y98028852D03*
%TD*%
D24*
%TO.C,S33*%
X136010417Y46770669D03*
D25*
X138045437Y52361840D03*
X132594529Y52004617D03*
D23*
X130842108Y48651780D03*
D25*
X138045437Y52361840D03*
X141991456Y48584416D03*
D23*
X141178726Y44889558D03*
D28*
X141122930Y51241724D03*
X129517036Y53124733D03*
%TD*%
D22*
%TO.C,S7*%
X69792512Y77746848D03*
X81211544Y80548313D03*
D24*
X78252431Y74435067D03*
D23*
X83744893Y74722915D03*
D25*
X77941032Y80376913D03*
D23*
X72759969Y74147219D03*
D25*
X77941032Y80376913D03*
X83049319Y78441608D03*
X73063023Y77918248D03*
%TD*%
D29*
%TO.C,T2*%
X162500140Y57344619D03*
X162500140Y54344619D03*
%TD*%
D24*
%TO.C,S5*%
X57124882Y91914188D03*
D23*
X62583886Y92584469D03*
D25*
X56399759Y97819838D03*
X56399759Y97819838D03*
D23*
X51665878Y91243907D03*
D25*
X51705141Y95026889D03*
X61630603Y96245583D03*
D30*
X59650348Y98218960D03*
X48454553Y94627767D03*
%TD*%
D25*
%TO.C,S27*%
X129218280Y81028852D03*
D23*
X139718280Y77278852D03*
D24*
X134218280Y77278852D03*
D25*
X139218280Y81028852D03*
X134218280Y83228852D03*
X134218280Y83228852D03*
D23*
X128718280Y77278852D03*
D27*
X137493280Y83228852D03*
X125943280Y81028852D03*
%TD*%
D22*
%TO.C,S9*%
X68902800Y94723550D03*
X80321832Y97525015D03*
D23*
X82855181Y91699617D03*
D25*
X77051320Y97353615D03*
D23*
X71870257Y91123921D03*
D25*
X82159607Y95418310D03*
X77051320Y97353615D03*
D24*
X77362719Y91411769D03*
D25*
X72173311Y94894950D03*
%TD*%
D23*
%TO.C,S16*%
X101995817Y96246989D03*
D24*
X96495817Y96246989D03*
D23*
X90995817Y96246989D03*
D26*
X101495817Y92446989D03*
X91495817Y92446989D03*
X96495817Y90346989D03*
X96495817Y90346989D03*
%TD*%
D23*
%TO.C,S30*%
X139718280Y94278852D03*
X128718280Y94278852D03*
D24*
X134218280Y94278852D03*
D26*
X139218280Y90478852D03*
X129218280Y90478852D03*
X134218280Y88378852D03*
X134218280Y88378852D03*
%TD*%
D23*
%TO.C,S13*%
X90995817Y79246989D03*
X101995817Y79246989D03*
D24*
X96495817Y79246989D03*
D25*
X96495817Y85196989D03*
X101495817Y82996989D03*
X96495817Y85196989D03*
X91495817Y82996989D03*
D27*
X99770817Y85196989D03*
X88220817Y82996989D03*
%TD*%
D23*
%TO.C,S24*%
X109911087Y106686017D03*
X120911087Y106686017D03*
D24*
X115411087Y106686017D03*
D26*
X110411087Y102886017D03*
X120411087Y102886017D03*
X115411087Y100786017D03*
X115411087Y100786017D03*
%TD*%
D23*
%TO.C,S17*%
X90995818Y113246989D03*
D24*
X96495818Y113246989D03*
D23*
X101995818Y113246989D03*
D25*
X91495818Y116996989D03*
X101495818Y116996989D03*
X96495818Y119196989D03*
X96495818Y119196989D03*
D27*
X99770818Y119196989D03*
X88220818Y116996989D03*
%TD*%
D26*
%TO.C,S4*%
X59915690Y69184880D03*
X59915690Y69184880D03*
X64622495Y71878573D03*
X54697034Y70659880D03*
D24*
X59196661Y75040902D03*
D23*
X64655665Y75711183D03*
X53737657Y74370621D03*
%TD*%
D26*
%TO.C,S10*%
X77671501Y85519855D03*
X77671501Y85519855D03*
X82554743Y87878657D03*
X72568448Y87355297D03*
D24*
X77362719Y91411769D03*
D23*
X71870257Y91123921D03*
X82855181Y91699617D03*
%TD*%
%TO.C,S22*%
X109911087Y89686017D03*
X120911087Y89686017D03*
D24*
X115411087Y89686017D03*
D26*
X110411087Y85886017D03*
X120411087Y85886017D03*
X115411087Y83786017D03*
X115411087Y83786017D03*
%TD*%
D24*
%TO.C,S31*%
X116421084Y51113520D03*
D23*
X110942013Y51592877D03*
D25*
X116939661Y57040878D03*
X121728892Y54413471D03*
X116939661Y57040878D03*
X111766945Y55285029D03*
D23*
X121900155Y50634163D03*
D31*
X120202198Y56755443D03*
X108504407Y55570464D03*
%TD*%
D32*
%TO.C,MCU1*%
X161977213Y98602542D03*
D33*
X148993690Y98602542D03*
X148993690Y101142542D03*
D34*
X148068690Y96062542D03*
D32*
X161977213Y96062542D03*
X146737213Y96062542D03*
D34*
X148068690Y101142542D03*
D33*
X148993690Y96062542D03*
D34*
X148068690Y98602542D03*
D32*
X146737213Y101226288D03*
X161977213Y101142542D03*
X146737213Y98602542D03*
D35*
X150443690Y101142542D03*
X150443690Y98602542D03*
X150443690Y96062542D03*
D32*
X146737213Y93522542D03*
X146737213Y90982542D03*
X146737213Y88442542D03*
X146737213Y85902542D03*
X146737213Y83362542D03*
X146737213Y80822542D03*
X146737213Y78282542D03*
X146737213Y75742542D03*
X146737213Y73202542D03*
X161977213Y93522542D03*
X161977213Y90982542D03*
X161977213Y88442542D03*
X161977213Y85902542D03*
X161977213Y83362542D03*
X161977213Y80822542D03*
X161977213Y78282542D03*
X161977213Y75742542D03*
X161977213Y73202542D03*
%TD*%
D23*
%TO.C,S3*%
X53737657Y74370621D03*
D25*
X53776920Y78153603D03*
D24*
X59196661Y75040902D03*
D25*
X63702382Y79372297D03*
X58471538Y80946552D03*
X58471538Y80946552D03*
D23*
X64655665Y75711183D03*
D30*
X61722127Y81345674D03*
X50526332Y77754481D03*
%TD*%
D23*
%TO.C,S32*%
X121900155Y50634163D03*
D24*
X116421084Y51113520D03*
D23*
X110942013Y51592877D03*
D26*
X121070866Y46892201D03*
X111108919Y47763759D03*
X115906865Y45235971D03*
X115906865Y45235971D03*
%TD*%
D36*
%TO.C,REF\u002A\u002A*%
X104279037Y68433484D03*
X125215946Y85387859D03*
X87324662Y89370393D03*
%TD*%
D26*
%TO.C,S12*%
X76781789Y102496557D03*
X76781789Y102496557D03*
X71678736Y104331999D03*
X81665031Y104855359D03*
D23*
X81965469Y108676319D03*
X70980545Y108100623D03*
D24*
X76473007Y108388471D03*
%TD*%
%TO.C,S23*%
X115411087Y106686017D03*
D23*
X120911087Y106686017D03*
D25*
X115411087Y112636017D03*
X115411087Y112636017D03*
X110411087Y110436017D03*
X120411087Y110436017D03*
D23*
X109911087Y106686017D03*
D27*
X118686087Y112636017D03*
X107136087Y110436017D03*
%TD*%
D23*
%TO.C,S6*%
X51665878Y91243907D03*
X62583886Y92584469D03*
D24*
X57124882Y91914188D03*
D26*
X52625255Y87533166D03*
X62550716Y88751859D03*
X57843911Y86058166D03*
X57843911Y86058166D03*
%TD*%
D24*
%TO.C,S19*%
X115411087Y72686017D03*
D25*
X115411087Y78636017D03*
X110411087Y76436017D03*
D23*
X120911087Y72686017D03*
X109911087Y72686017D03*
D25*
X120411087Y76436017D03*
X115411087Y78636017D03*
D27*
X118686087Y78636017D03*
X107136087Y76436017D03*
%TD*%
D23*
%TO.C,S18*%
X101995818Y113246989D03*
D24*
X96495818Y113246989D03*
D23*
X90995818Y113246989D03*
D26*
X91495818Y109446989D03*
X101495818Y109446989D03*
X96495818Y107346989D03*
X96495818Y107346989D03*
%TD*%
M02*
