M48
; DRILL file {KiCad (6.0.4)} date Tue May 17 22:38:02 2022
; FORMAT={-:-/ absolute / metric / decimal}
; #@! TF.CreationDate,2022-05-17T22:38:02+02:00
; #@! TF.GenerationSoftware,Kicad,Pcbnew,(6.0.4)
; #@! TF.FileFunction,Plated,1,2,PTH
FMAT,2
METRIC
; #@! TA.AperFunction,Plated,PTH,ViaDrill
T1C0.400
; #@! TA.AperFunction,Plated,PTH,ComponentDrill
T2C1.092
; #@! TA.AperFunction,Plated,PTH,ComponentDrill
T3C1.270
; #@! TA.AperFunction,Plated,PTH,ComponentDrill
T4C1.300
; #@! TA.AperFunction,Plated,PTH,ComponentDrill
T5C2.200
%
G90
G05
T1
X152.4Y101.213
X152.4Y66.04
X154.305Y98.65
X156.39Y96.106
X158.661Y55.845
T2
X146.737Y101.226
X146.737Y98.603
X146.737Y96.063
X146.737Y93.523
X146.737Y90.983
X146.737Y88.443
X146.737Y85.903
X146.737Y83.363
X146.737Y80.823
X146.737Y78.283
X146.737Y75.743
X146.737Y73.203
X147.545Y58.164
X149.545Y58.164
X151.545Y58.164
X161.977Y101.143
X161.977Y98.603
X161.977Y96.063
X161.977Y93.523
X161.977Y90.983
X161.977Y88.443
X161.977Y85.903
X161.977Y83.363
X161.977Y80.823
X161.977Y78.283
X161.977Y75.743
X161.977Y73.203
T3
X52.625Y87.533
X54.697Y70.66
X57.844Y86.058
X57.844Y86.058
X59.916Y69.185
X59.916Y69.185
X62.551Y88.752
X64.622Y71.879
X71.679Y104.332
X72.568Y87.355
X73.458Y70.379
X76.782Y102.497
X76.782Y102.497
X77.672Y85.52
X77.672Y85.52
X78.561Y68.543
X78.561Y68.543
X81.665Y104.855
X82.555Y87.879
X83.444Y70.902
X91.496Y92.447
X91.496Y75.447
X91.496Y109.447
X96.496Y90.347
X96.496Y90.347
X96.496Y73.347
X96.496Y73.347
X96.496Y107.347
X96.496Y107.347
X101.496Y92.447
X101.496Y75.447
X101.496Y109.447
X110.411Y102.886
X110.411Y85.886
X110.411Y68.886
X111.109Y47.764
X115.411Y100.786
X115.411Y100.786
X115.411Y83.786
X115.411Y83.786
X115.411Y66.786
X115.411Y66.786
X115.907Y45.236
X115.907Y45.236
X120.411Y102.886
X120.411Y85.886
X120.411Y68.886
X121.071Y46.892
X129.218Y90.479
X129.218Y73.479
X130.012Y44.91
X133.992Y41.226
X133.992Y41.226
X134.218Y88.379
X134.218Y88.379
X134.218Y71.379
X134.218Y71.379
X139.218Y90.479
X139.218Y73.479
X139.409Y41.49
T4
X163.203Y69.153
X163.203Y62.653
T5
X87.325Y89.37
X104.279Y68.433
X125.216Y85.388
T0
M30
