%TF.GenerationSoftware,KiCad,Pcbnew,(6.0.4)*%
%TF.CreationDate,2022-05-17T22:37:58+02:00*%
%TF.ProjectId,battoota,62617474-6f6f-4746-912e-6b696361645f,v1.0.0*%
%TF.SameCoordinates,Original*%
%TF.FileFunction,OtherDrawing,Comment*%
%FSLAX46Y46*%
G04 Gerber Fmt 4.6, Leading zero omitted, Abs format (unit mm)*
G04 Created by KiCad (PCBNEW (6.0.4)) date 2022-05-17 22:37:58*
%MOMM*%
%LPD*%
G01*
G04 APERTURE LIST*
%ADD10C,0.150000*%
G04 APERTURE END LIST*
D10*
%TO.C,T1*%
X166350140Y53894619D02*
X163850140Y53894619D01*
X163850140Y57794619D02*
X166350140Y57794619D01*
X166350140Y57794619D02*
X166350140Y53894619D01*
%TO.C,S11*%
X69168585Y114013897D02*
X69116249Y115012526D01*
X83097062Y115745229D02*
X83149398Y114746600D01*
X83777429Y102763045D02*
X83829765Y101764416D01*
X82831136Y101712080D02*
X83829765Y101764416D01*
X69848952Y101031713D02*
X70847581Y101084049D01*
X85905528Y100371144D02*
X67930197Y99429096D01*
X70114878Y115064862D02*
X69116249Y115012526D01*
X83097062Y115745229D02*
X82098433Y115692893D01*
X85015817Y117347846D02*
X85905528Y100371144D01*
X67040486Y116405798D02*
X85015817Y117347846D01*
X67930197Y99429096D02*
X67040486Y116405798D01*
X69848952Y101031713D02*
X69796616Y102030342D01*
%TO.C,S34*%
X144982406Y50954376D02*
X144640386Y50014684D01*
X130460355Y57836238D02*
X147374822Y51679875D01*
X147374822Y51679875D02*
X141560479Y35705100D01*
X127038428Y42586962D02*
X127978120Y42244942D01*
X131484690Y54802966D02*
X131826710Y55742658D01*
X124646012Y41861463D02*
X130460355Y57836238D01*
X144982406Y50954376D02*
X144042714Y51296396D01*
X141560479Y35705100D02*
X124646012Y41861463D01*
X139254432Y38140700D02*
X140194124Y37798680D01*
X140536144Y38738372D02*
X140194124Y37798680D01*
X127038428Y42586962D02*
X127380448Y43526654D01*
X132766402Y55400638D02*
X131826710Y55742658D01*
%TO.C,S15*%
X105495817Y87746989D02*
X87495817Y87746989D01*
X87495817Y104746989D02*
X105495817Y104746989D01*
X103495817Y103246989D02*
X103495817Y102246989D01*
X103495817Y103246989D02*
X102495817Y103246989D01*
X87495817Y87746989D02*
X87495817Y104746989D01*
X102495817Y89246989D02*
X103495817Y89246989D01*
X105495817Y104746989D02*
X105495817Y87746989D01*
X103495817Y90246989D02*
X103495817Y89246989D01*
X89495817Y89246989D02*
X89495817Y90246989D01*
X89495817Y89246989D02*
X90495817Y89246989D01*
X89495817Y102246989D02*
X89495817Y103246989D01*
X90495817Y103246989D02*
X89495817Y103246989D01*
%TO.C,S21*%
X124411087Y81186017D02*
X106411087Y81186017D01*
X109411087Y96686017D02*
X108411087Y96686017D01*
X122411087Y83686017D02*
X122411087Y82686017D01*
X124411087Y98186017D02*
X124411087Y81186017D01*
X106411087Y81186017D02*
X106411087Y98186017D01*
X122411087Y96686017D02*
X122411087Y95686017D01*
X121411087Y82686017D02*
X122411087Y82686017D01*
X108411087Y95686017D02*
X108411087Y96686017D01*
X122411087Y96686017D02*
X121411087Y96686017D01*
X108411087Y82686017D02*
X108411087Y83686017D01*
X108411087Y82686017D02*
X109411087Y82686017D01*
X106411087Y98186017D02*
X124411087Y98186017D01*
%TO.C,S8*%
X71894302Y81111458D02*
X70895673Y81059122D01*
X87684952Y66417740D02*
X69709621Y65475692D01*
X84876486Y81791825D02*
X84928822Y80793196D01*
X69709621Y65475692D02*
X68819910Y82452394D01*
X84610560Y67758676D02*
X85609189Y67811012D01*
X85556853Y68809641D02*
X85609189Y67811012D01*
X86795241Y83394442D02*
X87684952Y66417740D01*
X68819910Y82452394D02*
X86795241Y83394442D01*
X70948009Y80060493D02*
X70895673Y81059122D01*
X84876486Y81791825D02*
X83877857Y81739489D01*
X71628376Y67078309D02*
X72627005Y67130645D01*
X71628376Y67078309D02*
X71576040Y68076938D01*
%TO.C,S14*%
X89495817Y72246989D02*
X89495817Y73246989D01*
X105495817Y70746989D02*
X87495817Y70746989D01*
X105495817Y87746989D02*
X105495817Y70746989D01*
X87495817Y87746989D02*
X105495817Y87746989D01*
X90495817Y86246989D02*
X89495817Y86246989D01*
X103495817Y86246989D02*
X102495817Y86246989D01*
X87495817Y70746989D02*
X87495817Y87746989D01*
X89495817Y85246989D02*
X89495817Y86246989D01*
X89495817Y72246989D02*
X90495817Y72246989D01*
X103495817Y86246989D02*
X103495817Y85246989D01*
X102495817Y72246989D02*
X103495817Y72246989D01*
X103495817Y73246989D02*
X103495817Y72246989D01*
%TO.C,S20*%
X108411087Y78686017D02*
X108411087Y79686017D01*
X122411087Y66686017D02*
X122411087Y65686017D01*
X106411087Y64186017D02*
X106411087Y81186017D01*
X106411087Y81186017D02*
X124411087Y81186017D01*
X109411087Y79686017D02*
X108411087Y79686017D01*
X122411087Y79686017D02*
X122411087Y78686017D01*
X122411087Y79686017D02*
X121411087Y79686017D01*
X121411087Y65686017D02*
X122411087Y65686017D01*
X124411087Y81186017D02*
X124411087Y64186017D01*
X124411087Y64186017D02*
X106411087Y64186017D01*
X108411087Y65686017D02*
X108411087Y66686017D01*
X108411087Y65686017D02*
X109411087Y65686017D01*
%TO.C,S28*%
X141218280Y84278852D02*
X140218280Y84278852D01*
X140218280Y70278852D02*
X141218280Y70278852D01*
X128218280Y84278852D02*
X127218280Y84278852D01*
X127218280Y83278852D02*
X127218280Y84278852D01*
X143218280Y68778852D02*
X125218280Y68778852D01*
X143218280Y85778852D02*
X143218280Y68778852D01*
X141218280Y84278852D02*
X141218280Y83278852D01*
X141218280Y71278852D02*
X141218280Y70278852D01*
X125218280Y85778852D02*
X143218280Y85778852D01*
X125218280Y68778852D02*
X125218280Y85778852D01*
X127218280Y70278852D02*
X128218280Y70278852D01*
X127218280Y70278852D02*
X127218280Y71278852D01*
%TO.C,S29*%
X143218280Y85778852D02*
X125218280Y85778852D01*
X125218280Y102778852D02*
X143218280Y102778852D01*
X140218280Y87278852D02*
X141218280Y87278852D01*
X127218280Y87278852D02*
X128218280Y87278852D01*
X127218280Y100278852D02*
X127218280Y101278852D01*
X141218280Y101278852D02*
X140218280Y101278852D01*
X125218280Y85778852D02*
X125218280Y102778852D01*
X141218280Y101278852D02*
X141218280Y100278852D01*
X141218280Y88278852D02*
X141218280Y87278852D01*
X127218280Y87278852D02*
X127218280Y88278852D01*
X143218280Y102778852D02*
X143218280Y85778852D01*
X128218280Y101278852D02*
X127218280Y101278852D01*
%TO.C,S33*%
X139254432Y38140700D02*
X140194124Y37798680D01*
X144982406Y50954376D02*
X144640386Y50014684D01*
X127038428Y42586962D02*
X127380448Y43526654D01*
X131484690Y54802966D02*
X131826710Y55742658D01*
X124646012Y41861463D02*
X130460355Y57836238D01*
X140536144Y38738372D02*
X140194124Y37798680D01*
X144982406Y50954376D02*
X144042714Y51296396D01*
X130460355Y57836238D02*
X147374822Y51679875D01*
X147374822Y51679875D02*
X141560479Y35705100D01*
X132766402Y55400638D02*
X131826710Y55742658D01*
X127038428Y42586962D02*
X127978120Y42244942D01*
X141560479Y35705100D02*
X124646012Y41861463D01*
%TO.C,S7*%
X84610560Y67758676D02*
X85609189Y67811012D01*
X71628376Y67078309D02*
X72627005Y67130645D01*
X68819910Y82452394D02*
X86795241Y83394442D01*
X71894302Y81111458D02*
X70895673Y81059122D01*
X69709621Y65475692D02*
X68819910Y82452394D01*
X84876486Y81791825D02*
X84928822Y80793196D01*
X87684952Y66417740D02*
X69709621Y65475692D01*
X84876486Y81791825D02*
X83877857Y81739489D01*
X85556853Y68809641D02*
X85609189Y67811012D01*
X86795241Y83394442D02*
X87684952Y66417740D01*
X71628376Y67078309D02*
X71576040Y68076938D01*
X70948009Y80060493D02*
X70895673Y81059122D01*
%TO.C,T2*%
X166350140Y53894619D02*
X163850140Y53894619D01*
X166350140Y57794619D02*
X166350140Y53894619D01*
X163850140Y57794619D02*
X166350140Y57794619D01*
%TO.C,S5*%
X64803921Y86811996D02*
X64925790Y85819450D01*
X63933244Y85697581D02*
X64925790Y85819450D01*
X50316520Y98130795D02*
X49323974Y98008926D01*
X47156077Y99254006D02*
X65021908Y101447654D01*
X49445843Y97016380D02*
X49323974Y98008926D01*
X51030144Y84113280D02*
X52022690Y84235149D01*
X63219620Y99715096D02*
X63341489Y98722550D01*
X65021908Y101447654D02*
X67093687Y84574370D01*
X67093687Y84574370D02*
X49227856Y82380722D01*
X49227856Y82380722D02*
X47156077Y99254006D01*
X51030144Y84113280D02*
X50908275Y85105826D01*
X63219620Y99715096D02*
X62227074Y99593227D01*
%TO.C,S27*%
X125218280Y68778852D02*
X125218280Y85778852D01*
X125218280Y85778852D02*
X143218280Y85778852D01*
X143218280Y85778852D02*
X143218280Y68778852D01*
X127218280Y83278852D02*
X127218280Y84278852D01*
X141218280Y71278852D02*
X141218280Y70278852D01*
X141218280Y84278852D02*
X140218280Y84278852D01*
X128218280Y84278852D02*
X127218280Y84278852D01*
X127218280Y70278852D02*
X128218280Y70278852D01*
X127218280Y70278852D02*
X127218280Y71278852D01*
X143218280Y68778852D02*
X125218280Y68778852D01*
X140218280Y70278852D02*
X141218280Y70278852D01*
X141218280Y84278852D02*
X141218280Y83278852D01*
%TO.C,S9*%
X83986774Y98768527D02*
X84039110Y97769898D01*
X85905529Y100371144D02*
X86795240Y83394442D01*
X67930198Y99429096D02*
X85905529Y100371144D01*
X84667141Y85786343D02*
X84719477Y84787714D01*
X70738664Y84055011D02*
X71737293Y84107347D01*
X83986774Y98768527D02*
X82988145Y98716191D01*
X83720848Y84735378D02*
X84719477Y84787714D01*
X68819909Y82452394D02*
X67930198Y99429096D01*
X70738664Y84055011D02*
X70686328Y85053640D01*
X70058297Y97037195D02*
X70005961Y98035824D01*
X86795240Y83394442D02*
X68819909Y82452394D01*
X71004590Y98088160D02*
X70005961Y98035824D01*
%TO.C,S16*%
X90495817Y103246989D02*
X89495817Y103246989D01*
X102495817Y89246989D02*
X103495817Y89246989D01*
X103495817Y103246989D02*
X102495817Y103246989D01*
X103495817Y103246989D02*
X103495817Y102246989D01*
X89495817Y89246989D02*
X89495817Y90246989D01*
X89495817Y102246989D02*
X89495817Y103246989D01*
X87495817Y87746989D02*
X87495817Y104746989D01*
X105495817Y104746989D02*
X105495817Y87746989D01*
X105495817Y87746989D02*
X87495817Y87746989D01*
X103495817Y90246989D02*
X103495817Y89246989D01*
X89495817Y89246989D02*
X90495817Y89246989D01*
X87495817Y104746989D02*
X105495817Y104746989D01*
%TO.C,S30*%
X140218280Y87278852D02*
X141218280Y87278852D01*
X141218280Y88278852D02*
X141218280Y87278852D01*
X125218280Y85778852D02*
X125218280Y102778852D01*
X127218280Y87278852D02*
X128218280Y87278852D01*
X127218280Y100278852D02*
X127218280Y101278852D01*
X125218280Y102778852D02*
X143218280Y102778852D01*
X127218280Y87278852D02*
X127218280Y88278852D01*
X141218280Y101278852D02*
X141218280Y100278852D01*
X143218280Y85778852D02*
X125218280Y85778852D01*
X143218280Y102778852D02*
X143218280Y85778852D01*
X128218280Y101278852D02*
X127218280Y101278852D01*
X141218280Y101278852D02*
X140218280Y101278852D01*
%TO.C,S13*%
X90495817Y86246989D02*
X89495817Y86246989D01*
X103495817Y86246989D02*
X103495817Y85246989D01*
X103495817Y73246989D02*
X103495817Y72246989D01*
X87495817Y70746989D02*
X87495817Y87746989D01*
X105495817Y87746989D02*
X105495817Y70746989D01*
X89495817Y72246989D02*
X89495817Y73246989D01*
X105495817Y70746989D02*
X87495817Y70746989D01*
X89495817Y72246989D02*
X90495817Y72246989D01*
X89495817Y85246989D02*
X89495817Y86246989D01*
X103495817Y86246989D02*
X102495817Y86246989D01*
X102495817Y72246989D02*
X103495817Y72246989D01*
X87495817Y87746989D02*
X105495817Y87746989D01*
%TO.C,S24*%
X124411087Y115186017D02*
X124411087Y98186017D01*
X122411087Y113686017D02*
X122411087Y112686017D01*
X106411087Y98186017D02*
X106411087Y115186017D01*
X108411087Y112686017D02*
X108411087Y113686017D01*
X121411087Y99686017D02*
X122411087Y99686017D01*
X108411087Y99686017D02*
X109411087Y99686017D01*
X109411087Y113686017D02*
X108411087Y113686017D01*
X122411087Y113686017D02*
X121411087Y113686017D01*
X108411087Y99686017D02*
X108411087Y100686017D01*
X106411087Y115186017D02*
X124411087Y115186017D01*
X122411087Y100686017D02*
X122411087Y99686017D01*
X124411087Y98186017D02*
X106411087Y98186017D01*
%TO.C,S17*%
X103495818Y107246989D02*
X103495818Y106246989D01*
X87495818Y104746989D02*
X87495818Y121746989D01*
X102495818Y106246989D02*
X103495818Y106246989D01*
X90495818Y120246989D02*
X89495818Y120246989D01*
X105495818Y104746989D02*
X87495818Y104746989D01*
X89495818Y106246989D02*
X90495818Y106246989D01*
X89495818Y106246989D02*
X89495818Y107246989D01*
X105495818Y121746989D02*
X105495818Y104746989D01*
X89495818Y119246989D02*
X89495818Y120246989D01*
X103495818Y120246989D02*
X102495818Y120246989D01*
X87495818Y121746989D02*
X105495818Y121746989D01*
X103495818Y120246989D02*
X103495818Y119246989D01*
%TO.C,S4*%
X67093687Y84574368D02*
X69165466Y67701084D01*
X52388299Y81257509D02*
X51395753Y81135640D01*
X53101923Y67239994D02*
X54094469Y67361863D01*
X66005023Y68824295D02*
X66997569Y68946164D01*
X49227856Y82380720D02*
X67093687Y84574368D01*
X51299635Y65507436D02*
X49227856Y82380720D01*
X51517622Y80143094D02*
X51395753Y81135640D01*
X53101923Y67239994D02*
X52980054Y68232540D01*
X66875700Y69938710D02*
X66997569Y68946164D01*
X65291399Y82841810D02*
X65413268Y81849264D01*
X69165466Y67701084D02*
X51299635Y65507436D01*
X65291399Y82841810D02*
X64298853Y82719941D01*
%TO.C,S10*%
X86795240Y83394442D02*
X68819909Y82452394D01*
X67930198Y99429096D02*
X85905529Y100371144D01*
X84667141Y85786343D02*
X84719477Y84787714D01*
X70058297Y97037195D02*
X70005961Y98035824D01*
X71004590Y98088160D02*
X70005961Y98035824D01*
X83986774Y98768527D02*
X84039110Y97769898D01*
X83720848Y84735378D02*
X84719477Y84787714D01*
X83986774Y98768527D02*
X82988145Y98716191D01*
X85905529Y100371144D02*
X86795240Y83394442D01*
X70738664Y84055011D02*
X71737293Y84107347D01*
X70738664Y84055011D02*
X70686328Y85053640D01*
X68819909Y82452394D02*
X67930198Y99429096D01*
%TO.C,S22*%
X108411087Y82686017D02*
X109411087Y82686017D01*
X124411087Y81186017D02*
X106411087Y81186017D01*
X122411087Y96686017D02*
X121411087Y96686017D01*
X122411087Y96686017D02*
X122411087Y95686017D01*
X122411087Y83686017D02*
X122411087Y82686017D01*
X106411087Y81186017D02*
X106411087Y98186017D01*
X109411087Y96686017D02*
X108411087Y96686017D01*
X108411087Y82686017D02*
X108411087Y83686017D01*
X121411087Y82686017D02*
X122411087Y82686017D01*
X108411087Y95686017D02*
X108411087Y96686017D01*
X106411087Y98186017D02*
X124411087Y98186017D01*
X124411087Y98186017D02*
X124411087Y81186017D01*
%TO.C,S31*%
X108837631Y44750247D02*
X109833826Y44663092D01*
X121788162Y43617223D02*
X122784357Y43530067D01*
X109970656Y57700778D02*
X110057811Y58696973D01*
X124004537Y57476793D02*
X123917381Y56480598D01*
X106714508Y43430267D02*
X108196156Y60365577D01*
X124646012Y41861463D02*
X106714508Y43430267D01*
X124004537Y57476793D02*
X123008342Y57563948D01*
X122871512Y44526262D02*
X122784357Y43530067D01*
X111054006Y58609817D02*
X110057811Y58696973D01*
X126127660Y58796773D02*
X124646012Y41861463D01*
X108837631Y44750247D02*
X108924787Y45746442D01*
X108196156Y60365577D02*
X126127660Y58796773D01*
%TO.C,MCU1*%
X150547213Y101396542D02*
X150547213Y106476542D01*
X150508690Y101396542D02*
X150508690Y106476542D01*
X158128690Y101396542D02*
X150508690Y101396542D01*
X150547213Y106476542D02*
X158167213Y106476542D01*
X158167213Y106476542D02*
X158167213Y101396542D01*
X158167213Y101396542D02*
X150547213Y101396542D01*
X158128690Y106476542D02*
X158128690Y101396542D01*
%TO.C,S3*%
X52388299Y81257509D02*
X51395753Y81135640D01*
X65291399Y82841810D02*
X64298853Y82719941D01*
X51299635Y65507436D02*
X49227856Y82380720D01*
X53101923Y67239994D02*
X54094469Y67361863D01*
X65291399Y82841810D02*
X65413268Y81849264D01*
X49227856Y82380720D02*
X67093687Y84574368D01*
X51517622Y80143094D02*
X51395753Y81135640D01*
X66005023Y68824295D02*
X66997569Y68946164D01*
X67093687Y84574368D02*
X69165466Y67701084D01*
X53101923Y67239994D02*
X52980054Y68232540D01*
X66875700Y69938710D02*
X66997569Y68946164D01*
X69165466Y67701084D02*
X51299635Y65507436D01*
%TO.C,S32*%
X109970656Y57700778D02*
X110057811Y58696973D01*
X124004537Y57476793D02*
X123008342Y57563948D01*
X108837631Y44750247D02*
X108924787Y45746442D01*
X124646012Y41861463D02*
X106714508Y43430267D01*
X122871512Y44526262D02*
X122784357Y43530067D01*
X121788162Y43617223D02*
X122784357Y43530067D01*
X108837631Y44750247D02*
X109833826Y44663092D01*
X106714508Y43430267D02*
X108196156Y60365577D01*
X124004537Y57476793D02*
X123917381Y56480598D01*
X111054006Y58609817D02*
X110057811Y58696973D01*
X126127660Y58796773D02*
X124646012Y41861463D01*
X108196156Y60365577D02*
X126127660Y58796773D01*
%TO.C,S12*%
X67930197Y99429096D02*
X67040486Y116405798D01*
X67040486Y116405798D02*
X85015817Y117347846D01*
X69168585Y114013897D02*
X69116249Y115012526D01*
X82831136Y101712080D02*
X83829765Y101764416D01*
X83097062Y115745229D02*
X83149398Y114746600D01*
X69848952Y101031713D02*
X70847581Y101084049D01*
X83777429Y102763045D02*
X83829765Y101764416D01*
X83097062Y115745229D02*
X82098433Y115692893D01*
X85015817Y117347846D02*
X85905528Y100371144D01*
X70114878Y115064862D02*
X69116249Y115012526D01*
X69848952Y101031713D02*
X69796616Y102030342D01*
X85905528Y100371144D02*
X67930197Y99429096D01*
%TO.C,S23*%
X121411087Y99686017D02*
X122411087Y99686017D01*
X108411087Y99686017D02*
X108411087Y100686017D01*
X106411087Y115186017D02*
X124411087Y115186017D01*
X122411087Y100686017D02*
X122411087Y99686017D01*
X106411087Y98186017D02*
X106411087Y115186017D01*
X109411087Y113686017D02*
X108411087Y113686017D01*
X122411087Y113686017D02*
X122411087Y112686017D01*
X108411087Y99686017D02*
X109411087Y99686017D01*
X122411087Y113686017D02*
X121411087Y113686017D01*
X124411087Y115186017D02*
X124411087Y98186017D01*
X124411087Y98186017D02*
X106411087Y98186017D01*
X108411087Y112686017D02*
X108411087Y113686017D01*
%TO.C,S6*%
X50316520Y98130795D02*
X49323974Y98008926D01*
X49445843Y97016380D02*
X49323974Y98008926D01*
X63219620Y99715096D02*
X63341489Y98722550D01*
X67093687Y84574370D02*
X49227856Y82380722D01*
X51030144Y84113280D02*
X50908275Y85105826D01*
X47156077Y99254006D02*
X65021908Y101447654D01*
X63933244Y85697581D02*
X64925790Y85819450D01*
X49227856Y82380722D02*
X47156077Y99254006D01*
X65021908Y101447654D02*
X67093687Y84574370D01*
X63219620Y99715096D02*
X62227074Y99593227D01*
X64803921Y86811996D02*
X64925790Y85819450D01*
X51030144Y84113280D02*
X52022690Y84235149D01*
%TO.C,S19*%
X108411087Y65686017D02*
X109411087Y65686017D01*
X121411087Y65686017D02*
X122411087Y65686017D01*
X108411087Y78686017D02*
X108411087Y79686017D01*
X122411087Y79686017D02*
X122411087Y78686017D01*
X124411087Y64186017D02*
X106411087Y64186017D01*
X106411087Y81186017D02*
X124411087Y81186017D01*
X108411087Y65686017D02*
X108411087Y66686017D01*
X124411087Y81186017D02*
X124411087Y64186017D01*
X122411087Y79686017D02*
X121411087Y79686017D01*
X109411087Y79686017D02*
X108411087Y79686017D01*
X122411087Y66686017D02*
X122411087Y65686017D01*
X106411087Y64186017D02*
X106411087Y81186017D01*
%TO.C,S18*%
X89495818Y106246989D02*
X90495818Y106246989D01*
X89495818Y119246989D02*
X89495818Y120246989D01*
X105495818Y121746989D02*
X105495818Y104746989D01*
X90495818Y120246989D02*
X89495818Y120246989D01*
X87495818Y104746989D02*
X87495818Y121746989D01*
X105495818Y104746989D02*
X87495818Y104746989D01*
X102495818Y106246989D02*
X103495818Y106246989D01*
X89495818Y106246989D02*
X89495818Y107246989D01*
X103495818Y107246989D02*
X103495818Y106246989D01*
X103495818Y120246989D02*
X102495818Y120246989D01*
X87495818Y121746989D02*
X105495818Y121746989D01*
X103495818Y120246989D02*
X103495818Y119246989D01*
%TD*%
M02*
