%TF.GenerationSoftware,KiCad,Pcbnew,(6.0.4)*%
%TF.CreationDate,2022-05-15T06:34:31+02:00*%
%TF.ProjectId,battoota,62617474-6f6f-4746-912e-6b696361645f,v1.0.0*%
%TF.SameCoordinates,Original*%
%TF.FileFunction,Copper,L1,Top*%
%TF.FilePolarity,Positive*%
%FSLAX46Y46*%
G04 Gerber Fmt 4.6, Leading zero omitted, Abs format (unit mm)*
G04 Created by KiCad (PCBNEW (6.0.4)) date 2022-05-15 06:34:31*
%MOMM*%
%LPD*%
G01*
G04 APERTURE LIST*
G04 Aperture macros list*
%AMRoundRect*
0 Rectangle with rounded corners*
0 $1 Rounding radius*
0 $2 $3 $4 $5 $6 $7 $8 $9 X,Y pos of 4 corners*
0 Add a 4 corners polygon primitive as box body*
4,1,4,$2,$3,$4,$5,$6,$7,$8,$9,$2,$3,0*
0 Add four circle primitives for the rounded corners*
1,1,$1+$1,$2,$3*
1,1,$1+$1,$4,$5*
1,1,$1+$1,$6,$7*
1,1,$1+$1,$8,$9*
0 Add four rect primitives between the rounded corners*
20,1,$1+$1,$2,$3,$4,$5,0*
20,1,$1+$1,$4,$5,$6,$7,0*
20,1,$1+$1,$6,$7,$8,$9,0*
20,1,$1+$1,$8,$9,$2,$3,0*%
%AMRotRect*
0 Rectangle, with rotation*
0 The origin of the aperture is its center*
0 $1 length*
0 $2 width*
0 $3 Rotation angle, in degrees counterclockwise*
0 Add horizontal line*
21,1,$1,$2,0,0,$3*%
%AMFreePoly0*
4,1,6,0.500000,-0.750000,-0.650000,-0.750000,-0.150000,0.000000,-0.650000,0.750000,0.500000,0.750000,0.500000,-0.750000,0.500000,-0.750000,$1*%
%AMFreePoly1*
4,1,6,1.000000,0.000000,0.500000,-0.750000,-0.500000,-0.750000,-0.500000,0.750000,0.500000,0.750000,1.000000,0.000000,1.000000,0.000000,$1*%
G04 Aperture macros list end*
%TA.AperFunction,SMDPad,CuDef*%
%ADD10R,0.900000X0.900000*%
%TD*%
%TA.AperFunction,SMDPad,CuDef*%
%ADD11R,1.250000X0.900000*%
%TD*%
%TA.AperFunction,ComponentPad*%
%ADD12RoundRect,0.375000X-0.375000X-0.750000X0.375000X-0.750000X0.375000X0.750000X-0.375000X0.750000X0*%
%TD*%
%TA.AperFunction,ComponentPad*%
%ADD13C,2.000000*%
%TD*%
%TA.AperFunction,SMDPad,CuDef*%
%ADD14RotRect,2.600000X2.600000X1.000000*%
%TD*%
%TA.AperFunction,ComponentPad*%
%ADD15C,2.032000*%
%TD*%
%TA.AperFunction,SMDPad,CuDef*%
%ADD16R,2.600000X2.600000*%
%TD*%
%TA.AperFunction,SMDPad,CuDef*%
%ADD17RotRect,2.600000X2.600000X340.000000*%
%TD*%
%TA.AperFunction,WasherPad*%
%ADD18C,1.000000*%
%TD*%
%TA.AperFunction,SMDPad,CuDef*%
%ADD19RotRect,2.600000X2.600000X2.000000*%
%TD*%
%TA.AperFunction,SMDPad,CuDef*%
%ADD20RotRect,2.600000X2.600000X355.000000*%
%TD*%
%TA.AperFunction,ComponentPad*%
%ADD21C,1.752600*%
%TD*%
%TA.AperFunction,SMDPad,CuDef*%
%ADD22FreePoly0,180.000000*%
%TD*%
%TA.AperFunction,SMDPad,CuDef*%
%ADD23R,1.524000X0.500000*%
%TD*%
%TA.AperFunction,SMDPad,CuDef*%
%ADD24FreePoly1,180.000000*%
%TD*%
%TA.AperFunction,ComponentPad*%
%ADD25C,4.400000*%
%TD*%
%TA.AperFunction,ViaPad*%
%ADD26C,0.800000*%
%TD*%
%TA.AperFunction,Conductor*%
%ADD27C,0.250000*%
%TD*%
%TA.AperFunction,Conductor*%
%ADD28C,0.500000*%
%TD*%
G04 APERTURE END LIST*
D10*
%TO.P,T1,*%
%TO.N,*%
X161400140Y52144619D03*
X163600140Y59544619D03*
X163600140Y52144619D03*
X161400140Y59544619D03*
D11*
%TO.P,T1,1*%
%TO.N,Braw*%
X160425140Y53594619D03*
%TO.P,T1,2*%
%TO.N,RAW*%
X160425140Y56594619D03*
%TO.P,T1,3*%
%TO.N,N/C*%
X160425140Y58094619D03*
%TD*%
D12*
%TO.P,PAD1,1*%
%TO.N,Braw*%
X151545396Y58163682D03*
%TO.P,PAD1,2*%
%TO.N,GND*%
X149545396Y58163682D03*
%TO.P,PAD1,3*%
%TO.N,Braw*%
X147545396Y58163682D03*
%TD*%
D13*
%TO.P,B1,1*%
%TO.N,RST*%
X163203191Y69152519D03*
%TO.P,B1,2*%
%TO.N,GND*%
X163203191Y62652519D03*
%TD*%
D14*
%TO.P,S11,1*%
%TO.N,P3*%
X80234007Y114568913D03*
%TO.P,S11,2*%
%TO.N,GND*%
X68724162Y112167673D03*
%TD*%
D15*
%TO.P,S34,1*%
%TO.N,P9*%
X130012277Y44909938D03*
X139409204Y41489736D03*
%TO.P,S34,2*%
%TO.N,GND*%
X133992498Y41226483D03*
X133992498Y41226483D03*
%TD*%
D16*
%TO.P,S15,1*%
%TO.N,P18*%
X99770817Y102196989D03*
%TO.P,S15,2*%
%TO.N,GND*%
X88220817Y99996989D03*
%TD*%
%TO.P,S21,1*%
%TO.N,P16*%
X118686087Y95636017D03*
%TO.P,S21,2*%
%TO.N,GND*%
X107136087Y93436017D03*
%TD*%
D15*
%TO.P,S8,1*%
%TO.N,P5*%
X72723813Y70681159D03*
X82722290Y70855683D03*
%TO.P,S8,2*%
%TO.N,GND*%
X77759701Y68668741D03*
X77759701Y68668741D03*
%TD*%
%TO.P,S14,1*%
%TO.N,P2*%
X91495817Y75446989D03*
X101495817Y75446989D03*
%TO.P,S14,2*%
%TO.N,GND*%
X96495817Y73346989D03*
X96495817Y73346989D03*
%TD*%
%TO.P,S20,1*%
%TO.N,P14*%
X120411087Y68886017D03*
X110411087Y68886017D03*
%TO.P,S20,2*%
%TO.N,GND*%
X115411087Y66786017D03*
X115411087Y66786017D03*
%TD*%
%TO.P,S28,1*%
%TO.N,P19*%
X129218280Y73478852D03*
X139218280Y73478852D03*
%TO.P,S28,2*%
%TO.N,GND*%
X134218280Y71378852D03*
X134218280Y71378852D03*
%TD*%
D16*
%TO.P,S29,1*%
%TO.N,P20*%
X137493280Y100228852D03*
%TO.P,S29,2*%
%TO.N,GND*%
X125943280Y98028852D03*
%TD*%
D17*
%TO.P,S33,1*%
%TO.N,P9*%
X141122930Y51241724D03*
%TO.P,S33,2*%
%TO.N,GND*%
X129517036Y53124733D03*
%TD*%
D14*
%TO.P,S7,1*%
%TO.N,P5*%
X80827391Y80574092D03*
%TO.P,S7,2*%
%TO.N,GND*%
X69317546Y78172852D03*
%TD*%
D18*
%TO.P,T2,*%
%TO.N,*%
X162500140Y57344619D03*
X162500140Y54344619D03*
%TD*%
D19*
%TO.P,S5,1*%
%TO.N,P6*%
X61020882Y99645012D03*
%TO.P,S5,2*%
%TO.N,GND*%
X49554697Y97043263D03*
%TD*%
D16*
%TO.P,S27,1*%
%TO.N,P19*%
X137493280Y83228852D03*
%TO.P,S27,2*%
%TO.N,GND*%
X125943280Y81028852D03*
%TD*%
D14*
%TO.P,S9,1*%
%TO.N,P4*%
X80530699Y97571503D03*
%TO.P,S9,2*%
%TO.N,GND*%
X69020854Y95170263D03*
%TD*%
D15*
%TO.P,S16,1*%
%TO.N,P18*%
X101495817Y92446989D03*
X91495817Y92446989D03*
%TO.P,S16,2*%
%TO.N,GND*%
X96495817Y90346989D03*
X96495817Y90346989D03*
%TD*%
%TO.P,S30,1*%
%TO.N,P20*%
X139218280Y90478852D03*
X129218280Y90478852D03*
%TO.P,S30,2*%
%TO.N,GND*%
X134218280Y88378852D03*
X134218280Y88378852D03*
%TD*%
D16*
%TO.P,S13,1*%
%TO.N,P2*%
X99770817Y85196989D03*
%TO.P,S13,2*%
%TO.N,GND*%
X88220817Y82996989D03*
%TD*%
D15*
%TO.P,S24,1*%
%TO.N,P10*%
X110411087Y102886017D03*
X120411087Y102886017D03*
%TO.P,S24,2*%
%TO.N,GND*%
X115411087Y100786017D03*
X115411087Y100786017D03*
%TD*%
D16*
%TO.P,S17,1*%
%TO.N,P15*%
X99770818Y119196989D03*
%TO.P,S17,2*%
%TO.N,GND*%
X88220818Y116996989D03*
%TD*%
D15*
%TO.P,S4,1*%
%TO.N,P7*%
X53684484Y72622512D03*
X63678392Y72971507D03*
%TO.P,S4,2*%
%TO.N,GND*%
X58754727Y70698289D03*
X58754727Y70698289D03*
%TD*%
%TO.P,S10,1*%
%TO.N,P4*%
X72427121Y87678570D03*
X82425598Y87853094D03*
%TO.P,S10,2*%
%TO.N,GND*%
X77463009Y85666152D03*
X77463009Y85666152D03*
%TD*%
%TO.P,S22,1*%
%TO.N,P16*%
X110411087Y85886017D03*
X120411087Y85886017D03*
%TO.P,S22,2*%
%TO.N,GND*%
X115411087Y83786017D03*
X115411087Y83786017D03*
%TD*%
D20*
%TO.P,S31,1*%
%TO.N,P8*%
X120202198Y56755443D03*
%TO.P,S31,2*%
%TO.N,GND*%
X108504407Y55570464D03*
%TD*%
D21*
%TO.P,MCU1,*%
%TO.N,*%
X161977213Y98602542D03*
D22*
X148993690Y98602542D03*
X148993690Y101142542D03*
D23*
X148068690Y96062542D03*
D21*
X161977213Y96062542D03*
X146737213Y96062542D03*
D23*
X148068690Y101142542D03*
D22*
X148993690Y96062542D03*
D23*
X148068690Y98602542D03*
D21*
X146737213Y101226288D03*
X161977213Y101142542D03*
X146737213Y98602542D03*
D24*
%TO.P,MCU1,1*%
%TO.N,RAW*%
X150443690Y101142542D03*
%TO.P,MCU1,2*%
%TO.N,GND*%
X150443690Y98602542D03*
%TO.P,MCU1,3*%
%TO.N,RST*%
X150443690Y96062542D03*
D21*
%TO.P,MCU1,4*%
%TO.N,N/C*%
X146737213Y93522542D03*
%TO.P,MCU1,5*%
%TO.N,P21*%
X146737213Y90982542D03*
%TO.P,MCU1,6*%
%TO.N,P20*%
X146737213Y88442542D03*
%TO.P,MCU1,7*%
%TO.N,P19*%
X146737213Y85902542D03*
%TO.P,MCU1,8*%
%TO.N,P18*%
X146737213Y83362542D03*
%TO.P,MCU1,9*%
%TO.N,P15*%
X146737213Y80822542D03*
%TO.P,MCU1,10*%
%TO.N,P14*%
X146737213Y78282542D03*
%TO.P,MCU1,11*%
%TO.N,P16*%
X146737213Y75742542D03*
%TO.P,MCU1,12*%
%TO.N,P10*%
X146737213Y73202542D03*
%TO.P,MCU1,16*%
%TO.N,N/C*%
X161977213Y93522542D03*
%TO.P,MCU1,17*%
%TO.N,P2*%
X161977213Y90982542D03*
%TO.P,MCU1,18*%
%TO.N,P3*%
X161977213Y88442542D03*
%TO.P,MCU1,19*%
%TO.N,P4*%
X161977213Y85902542D03*
%TO.P,MCU1,20*%
%TO.N,P5*%
X161977213Y83362542D03*
%TO.P,MCU1,21*%
%TO.N,P6*%
X161977213Y80822542D03*
%TO.P,MCU1,22*%
%TO.N,P7*%
X161977213Y78282542D03*
%TO.P,MCU1,23*%
%TO.N,P8*%
X161977213Y75742542D03*
%TO.P,MCU1,24*%
%TO.N,P9*%
X161977213Y73202542D03*
%TD*%
D19*
%TO.P,S3,1*%
%TO.N,P7*%
X61614173Y82655366D03*
%TO.P,S3,2*%
%TO.N,GND*%
X50147988Y80053617D03*
%TD*%
D15*
%TO.P,S32,1*%
%TO.N,P8*%
X121070866Y46892201D03*
X111108919Y47763759D03*
%TO.P,S32,2*%
%TO.N,GND*%
X115906865Y45235971D03*
X115906865Y45235971D03*
%TD*%
D25*
%TO.P,REF\u002A\u002A,1*%
%TO.N,N/C*%
X104305468Y68036462D03*
X124943294Y85353654D03*
X86988276Y88674288D03*
%TD*%
D15*
%TO.P,S12,1*%
%TO.N,P3*%
X82128906Y104850504D03*
X72130429Y104675980D03*
%TO.P,S12,2*%
%TO.N,GND*%
X77166317Y102663562D03*
X77166317Y102663562D03*
%TD*%
D16*
%TO.P,S23,1*%
%TO.N,P10*%
X118686087Y112636017D03*
%TO.P,S23,2*%
%TO.N,GND*%
X107136087Y110436017D03*
%TD*%
D15*
%TO.P,S6,1*%
%TO.N,P6*%
X53091193Y89612158D03*
X63085101Y89961153D03*
%TO.P,S6,2*%
%TO.N,GND*%
X58161436Y87687935D03*
X58161436Y87687935D03*
%TD*%
D16*
%TO.P,S19,1*%
%TO.N,P14*%
X118686087Y78636017D03*
%TO.P,S19,2*%
%TO.N,GND*%
X107136087Y76436017D03*
%TD*%
D15*
%TO.P,S18,1*%
%TO.N,P15*%
X91495818Y109446989D03*
X101495818Y109446989D03*
%TO.P,S18,2*%
%TO.N,GND*%
X96495818Y107346989D03*
X96495818Y107346989D03*
%TD*%
D26*
%TO.N,GND*%
X154304587Y98650426D03*
%TO.N,RAW*%
X158661253Y55844619D03*
X152400000Y66040000D03*
X152400000Y101213143D03*
%TO.N,RST*%
X156389782Y96106346D03*
%TD*%
D27*
%TO.N,P8*%
X120202198Y57143634D02*
X120202198Y56755443D01*
X122087342Y59028778D02*
X120202198Y57143634D01*
X124965220Y64111751D02*
X122087342Y61233873D01*
X155527414Y71973710D02*
X147665454Y64111751D01*
X157416933Y75742542D02*
X155527414Y73853023D01*
X147665454Y64111751D02*
X124965220Y64111751D01*
X122087342Y61233873D02*
X122087342Y59028778D01*
X161977213Y75742542D02*
X157416933Y75742542D01*
X155527414Y73853023D02*
X155527414Y71973710D01*
%TO.N,P9*%
X141122930Y57862087D02*
X141122930Y51241724D01*
X146923074Y63662231D02*
X141122930Y57862087D01*
X155976934Y71787514D02*
X147851651Y63662231D01*
X147851651Y63662231D02*
X146923074Y63662231D01*
X155976934Y72716091D02*
X155976934Y71787514D01*
X161977213Y73202542D02*
X156463385Y73202542D01*
X156463385Y73202542D02*
X155976934Y72716091D01*
%TO.N,P6*%
X161977213Y80822542D02*
X157527339Y80822542D01*
X63085101Y89961153D02*
X56672000Y91679537D01*
X61020881Y99645012D02*
X59902943Y95472810D01*
X124592825Y65010791D02*
X121686138Y62104105D01*
X56672000Y91679537D02*
X53091193Y89612157D01*
X59902943Y95472810D02*
X63085101Y89961153D01*
X157527339Y80822542D02*
X154628374Y77923577D01*
X147293059Y65010791D02*
X124592825Y65010791D01*
X108250914Y63666865D02*
X102561997Y63666865D01*
X154628374Y77923577D02*
X154628374Y72346106D01*
X71496750Y65788867D02*
X65666218Y71619400D01*
X65666218Y71619400D02*
X65666218Y87380036D01*
X109813674Y62104105D02*
X108250914Y63666865D01*
X154628374Y72346106D02*
X147293059Y65010791D01*
X102561997Y63666865D02*
X100432043Y65796819D01*
X100432043Y65796819D02*
X87231438Y65796819D01*
X87223486Y65788867D02*
X71496750Y65788867D01*
X87231438Y65796819D02*
X87223486Y65788867D01*
X121686138Y62104105D02*
X109813674Y62104105D01*
X65666218Y87380036D02*
X63085101Y89961153D01*
D28*
%TO.N,GND*%
X69265448Y110482908D02*
X68601960Y111396121D01*
X96495817Y73346988D02*
X90063534Y73909740D01*
X134218280Y88378852D02*
X127851901Y88378852D01*
X68542790Y105920223D02*
X69265448Y110482908D01*
X128490798Y71378852D02*
X125943280Y73926370D01*
X77463009Y85666151D02*
X76300581Y84821598D01*
X125943280Y90287473D02*
X125943280Y98028852D01*
X68601960Y111396121D02*
X68724162Y112167674D01*
X70939751Y102621090D02*
X68542790Y105920223D01*
X76300581Y84821598D02*
X70510508Y85738655D01*
X107989666Y75582438D02*
X107136087Y76436017D01*
X71178441Y68682446D02*
X68416507Y72483922D01*
X90063534Y73909740D02*
X87674843Y76756471D01*
X50797124Y78169754D02*
X50008985Y79534853D01*
X128386883Y43911271D02*
X127316454Y49981975D01*
X109079387Y46196962D02*
X107643404Y54340825D01*
X115411087Y66786017D02*
X109815760Y66786017D01*
X58754726Y70698291D02*
X57111900Y69749804D01*
X76597272Y67824186D02*
X71178441Y68682446D01*
X109815760Y66786017D02*
X107989666Y68612111D01*
X115411087Y83786017D02*
X108973745Y83786017D01*
X77759700Y68668740D02*
X76597272Y67824186D01*
X57111900Y69749804D02*
X52225845Y71059019D01*
X76003891Y101819009D02*
X70939751Y102621090D01*
X115906865Y45235972D02*
X111549180Y44467594D01*
X52225845Y71059019D02*
X49948656Y75003224D01*
X134218280Y71378852D02*
X128490798Y71378852D01*
X107136087Y103216201D02*
X107136087Y110436017D01*
X89868208Y107926829D02*
X89834546Y107898584D01*
X96495818Y107346989D02*
X89868208Y107926829D01*
X115411087Y100786017D02*
X109566271Y100786017D01*
X70510508Y85738655D02*
X68061016Y89110091D01*
X87651732Y93492315D02*
X88220817Y99996988D01*
X68061016Y89110091D02*
X69020854Y95170263D01*
X50008985Y79534853D02*
X50147987Y80053618D01*
X127316454Y49981975D02*
X129517036Y53124733D01*
X111549180Y44467594D02*
X109079387Y46196962D01*
X132577487Y40976978D02*
X128386883Y43911271D01*
X107989666Y68612111D02*
X107989666Y75582438D01*
X154256703Y98602542D02*
X150443690Y98602542D01*
X108153560Y76015027D02*
X107136087Y77032500D01*
X109566271Y100786017D02*
X107136087Y103216201D01*
X96495817Y90346988D02*
X89799377Y90932851D01*
X51559059Y87521607D02*
X49177102Y91647279D01*
X87674843Y76756471D02*
X88220817Y82996988D01*
X89799377Y90932851D02*
X87651732Y93492315D01*
X108973745Y83786017D02*
X107136087Y85623675D01*
X154304587Y98650426D02*
X154256703Y98602542D01*
X127851901Y88378852D02*
X125943280Y90287473D01*
X49177102Y91647279D02*
X50284328Y95779502D01*
X89834546Y107898584D02*
X87652338Y110499238D01*
X58161435Y87687934D02*
X55871798Y86366011D01*
X77166318Y102663562D02*
X76003891Y101819009D01*
X133992498Y41226483D02*
X132577487Y40976978D01*
X68416507Y72483922D02*
X69317544Y78172851D01*
X55871798Y86366011D02*
X51559059Y87521607D01*
X107136087Y85623675D02*
X107136087Y93436017D01*
X50284328Y95779502D02*
X49554696Y97043263D01*
X49948656Y75003224D02*
X50797124Y78169754D01*
X125943280Y73926370D02*
X125943280Y81028852D01*
X87652338Y110499238D02*
X88220818Y116996988D01*
D27*
%TO.N,P5*%
X82722290Y70855683D02*
X91007423Y70855683D01*
X121499941Y62553625D02*
X124406628Y65460311D01*
X102748195Y64116385D02*
X108437111Y64116385D01*
X124406628Y65460311D02*
X147106862Y65460311D01*
X109999871Y62553625D02*
X121499941Y62553625D01*
X79902789Y74736390D02*
X82722289Y70855682D01*
X91007423Y70855683D02*
X95616768Y66246339D01*
X108437111Y64116385D02*
X109999871Y62553625D01*
X157383378Y83345369D02*
X161960040Y83345369D01*
X82722289Y70855682D02*
X74710558Y72124615D01*
X154178854Y80140845D02*
X157383378Y83345369D01*
X80827390Y80574092D02*
X79902789Y74736390D01*
X147106862Y65460311D02*
X154178854Y72532303D01*
X74710558Y72124615D02*
X72723811Y70681160D01*
X154178854Y72532303D02*
X154178854Y80140845D01*
X100618241Y66246339D02*
X102748195Y64116385D01*
X95616768Y66246339D02*
X100618241Y66246339D01*
%TO.N,P4*%
X161974956Y85904799D02*
X161977213Y85902542D01*
X157024799Y85904799D02*
X161974956Y85904799D01*
X124220427Y65909831D02*
X146920664Y65909831D01*
X79606098Y91733801D02*
X82425597Y87853093D01*
X95802965Y66695859D02*
X100804437Y66695859D01*
X121313741Y63003145D02*
X124220427Y65909831D01*
X80530700Y97571504D02*
X79606098Y91733801D01*
X110186071Y63003145D02*
X121313741Y63003145D01*
X153729334Y72718501D02*
X153729334Y82609334D01*
X82425598Y84787864D02*
X84487342Y82726120D01*
X100804437Y66695859D02*
X102934392Y64565905D01*
X102934392Y64565905D02*
X108623311Y64565905D01*
X153729334Y82609334D02*
X157024799Y85904799D01*
X84487342Y78011481D02*
X95802965Y66695859D01*
X108623311Y64565905D02*
X110186071Y63003145D01*
X84487342Y82726120D02*
X84487342Y78011481D01*
X82425597Y87853093D02*
X74413868Y89122027D01*
X82425598Y87853094D02*
X82425598Y84787864D01*
X74413868Y89122027D02*
X72427121Y87678570D01*
X146920664Y65909831D02*
X153729334Y72718501D01*
%TO.N,P3*%
X74117177Y106119438D02*
X72130429Y104675981D01*
X103120589Y65015425D02*
X108809508Y65015425D01*
X80234009Y114568915D02*
X79309407Y108731213D01*
X95989162Y67145379D02*
X100990635Y67145379D01*
X124034230Y66359351D02*
X146734466Y66359351D01*
X146734466Y66359351D02*
X153249052Y72873937D01*
X153249052Y72873937D02*
X153249052Y84703008D01*
X82128906Y104850504D02*
X83752308Y104850504D01*
X153249052Y84703008D02*
X156988586Y88442542D01*
X84463765Y83385414D02*
X84936862Y82912317D01*
X82128907Y104850504D02*
X74117177Y106119438D01*
X121127543Y63452665D02*
X124034230Y66359351D01*
X108809508Y65015425D02*
X110372268Y63452665D01*
X83752308Y104850504D02*
X84463765Y104139047D01*
X84936862Y82912317D02*
X84936862Y78197679D01*
X110372268Y63452665D02*
X121127543Y63452665D01*
X156988586Y88442542D02*
X161977213Y88442542D01*
X100990635Y67145379D02*
X103120589Y65015425D01*
X79309407Y108731213D02*
X82128907Y104850504D01*
X84463765Y104139047D02*
X84463765Y83385414D01*
X84936862Y78197679D02*
X95989162Y67145379D01*
%TO.N,P2*%
X92440020Y76239268D02*
X91495817Y75446988D01*
X123848033Y66808871D02*
X146548268Y66808871D01*
X152799532Y86738477D02*
X157043597Y90982542D01*
X108995705Y65464945D02*
X110558465Y63902185D01*
X101495817Y75446989D02*
X99161220Y78229254D01*
X99161220Y78229254D02*
X99770817Y85196989D01*
X146548268Y66808871D02*
X152799532Y73060135D01*
X110558465Y63902185D02*
X120941347Y63902185D01*
X120941347Y63902185D02*
X123848033Y66808871D01*
X103306786Y65464945D02*
X108995705Y65464945D01*
X157043597Y90982542D02*
X161977213Y90982542D01*
X101495817Y75446989D02*
X92440020Y76239268D01*
X101495817Y67275914D02*
X103306786Y65464945D01*
X101495817Y75446989D02*
X101495817Y67275914D01*
X152799532Y73060135D02*
X152799532Y86738477D01*
%TO.N,P18*%
X120755149Y64351705D02*
X123661836Y67258391D01*
X146362070Y67258391D02*
X152350012Y73246333D01*
X152350012Y81329988D02*
X150317458Y83362542D01*
X104528680Y89414126D02*
X104528680Y73670546D01*
X101495817Y92446989D02*
X92440019Y93239269D01*
X99161219Y95229254D02*
X101495817Y92446989D01*
X106965626Y68130741D02*
X110744662Y64351705D01*
X106965626Y71233600D02*
X106965626Y68130741D01*
X150317458Y83362542D02*
X146737213Y83362542D01*
X152350012Y73246333D02*
X152350012Y81329988D01*
X104528680Y73670546D02*
X106965626Y71233600D01*
X99770817Y102196989D02*
X99161219Y95229254D01*
X101495817Y92446989D02*
X104528680Y89414126D01*
X110744662Y64351705D02*
X120755149Y64351705D01*
X92440019Y93239269D02*
X91495817Y92446988D01*
X123661836Y67258391D02*
X146362070Y67258391D01*
%TO.N,P15*%
X123475639Y67707911D02*
X146175872Y67707911D01*
X120568951Y64801225D02*
X123475639Y67707911D01*
X104978200Y73856742D02*
X107415146Y71419797D01*
X99770818Y119196989D02*
X99161220Y112229254D01*
X107415146Y68316938D02*
X110930859Y64801225D01*
X101495818Y109446989D02*
X101495818Y103938308D01*
X146175872Y67707911D02*
X151900492Y73432531D01*
X151900492Y73432531D02*
X151900492Y78376564D01*
X92440020Y110239269D02*
X91495817Y109446988D01*
X151900492Y78376564D02*
X149454514Y80822542D01*
X104978200Y100455926D02*
X104978200Y73856742D01*
X101495818Y103938308D02*
X104978200Y100455926D01*
X149454514Y80822542D02*
X146737213Y80822542D01*
X110930859Y64801225D02*
X120568951Y64801225D01*
X107415146Y71419797D02*
X107415146Y68316938D01*
X101495817Y109446989D02*
X92440020Y110239269D01*
X99161220Y112229254D02*
X101495817Y109446989D01*
%TO.N,P14*%
X151450972Y75858105D02*
X151450972Y73618729D01*
X151450972Y73618729D02*
X146001033Y68168790D01*
X120411087Y68886017D02*
X110411087Y68886017D01*
X118536566Y78486496D02*
X118536566Y70760538D01*
X121128314Y68168790D02*
X120411087Y68886017D01*
X146737213Y78282542D02*
X149026535Y78282542D01*
X149026535Y78282542D02*
X151450972Y75858105D01*
X118536566Y70760538D02*
X120411087Y68886017D01*
X146001033Y68168790D02*
X121128314Y68168790D01*
X118686087Y78636017D02*
X118536566Y78486496D01*
%TO.N,P16*%
X118536566Y87760538D02*
X120411087Y85886017D01*
X122966194Y69259780D02*
X123607665Y68618310D01*
X110411087Y85886017D02*
X120411087Y85886017D01*
X123607665Y68618310D02*
X145814835Y68618310D01*
X118536566Y95486496D02*
X118536566Y87760538D01*
X151001452Y73804926D02*
X151001452Y74601090D01*
X145814835Y68618310D02*
X151001452Y73804926D01*
X151001452Y74601090D02*
X149860000Y75742542D01*
X149860000Y75742542D02*
X146737213Y75742542D01*
X120411087Y85886017D02*
X120411087Y83431958D01*
X118686087Y95636017D02*
X118536566Y95486496D01*
X122966194Y80876851D02*
X122966194Y69259780D01*
X120411087Y83431958D02*
X122966194Y80876851D01*
%TO.N,P10*%
X118536566Y112486496D02*
X118536566Y104760538D01*
X122404871Y100892233D02*
X122404871Y82073892D01*
X122404871Y82073892D02*
X123415714Y81063048D01*
X123415714Y81063048D02*
X123415714Y69445978D01*
X120411087Y102886017D02*
X110411087Y102886017D01*
X145628638Y69067830D02*
X146737213Y70176405D01*
X118686087Y112636017D02*
X118536566Y112486496D01*
X123415714Y69445978D02*
X123793862Y69067830D01*
X120411087Y102886017D02*
X122404871Y100892233D01*
X123793862Y69067830D02*
X145628638Y69067830D01*
X146737213Y70176405D02*
X146737213Y73202542D01*
X118536566Y104760538D02*
X120411087Y102886017D01*
%TO.N,P19*%
X144607863Y85902542D02*
X146737213Y85902542D01*
X137343759Y75353373D02*
X137343759Y83079331D01*
X142540891Y83835570D02*
X144607863Y85902542D01*
X142540891Y76801463D02*
X142540891Y83835570D01*
X139218280Y73478852D02*
X137343759Y75353373D01*
X137343759Y83079331D02*
X137493280Y83228852D01*
X139218280Y73478852D02*
X142540891Y76801463D01*
X129218280Y73478852D02*
X139218280Y73478852D01*
%TO.N,P20*%
X141329875Y88367257D02*
X146661928Y88367257D01*
X139218280Y90478852D02*
X141329875Y88367257D01*
X137343759Y92353373D02*
X137343759Y100079331D01*
X137343759Y100079331D02*
X137493280Y100228852D01*
X139218280Y90478852D02*
X137343759Y92353373D01*
X146661928Y88367257D02*
X146737213Y88442542D01*
X129218280Y90478852D02*
X139218280Y90478852D01*
%TO.N,P7*%
X157360570Y78282542D02*
X155077894Y75999866D01*
X60496235Y78483166D02*
X63678391Y72971508D01*
X102375799Y63217345D02*
X100245845Y65347299D01*
X161977213Y78282542D02*
X157360570Y78282542D01*
X121872335Y61654585D02*
X109627476Y61654585D01*
X124779022Y64561271D02*
X121872335Y61654585D01*
X155077894Y72159908D02*
X147479257Y64561271D01*
X147479257Y64561271D02*
X124779022Y64561271D01*
X100245845Y65347299D02*
X87417636Y65347299D01*
X109627476Y61654585D02*
X108064716Y63217345D01*
X63678391Y72971508D02*
X57265292Y74689892D01*
X87417636Y65347299D02*
X87409683Y65339347D01*
X108064716Y63217345D02*
X102375799Y63217345D01*
X57265292Y74689892D02*
X53684483Y72622512D01*
X71310552Y65339347D02*
X63678392Y72971507D01*
X87409683Y65339347D02*
X71310552Y65339347D01*
X155077894Y75999866D02*
X155077894Y72159908D01*
X61614172Y82655367D02*
X60496235Y78483166D01*
%TO.N,P8*%
X118072562Y48991637D02*
X111108918Y47763759D01*
X121070866Y46892202D02*
X118072562Y48991637D01*
X119506821Y55762341D02*
X121070866Y46892202D01*
%TO.N,P9*%
X133616924Y45545534D02*
X130012277Y44909937D01*
X141122930Y51241724D02*
X138380313Y47324862D01*
X139409203Y41489736D02*
X133616924Y45545534D01*
X138380313Y47324862D02*
X139409203Y41489736D01*
D28*
%TO.N,RAW*%
X152400000Y62118371D02*
X158661253Y55857118D01*
X152372041Y101185184D02*
X150419502Y101185184D01*
X152400000Y101213143D02*
X152372041Y101185184D01*
X158661253Y55857118D02*
X158661253Y55844619D01*
X159411253Y56594619D02*
X160425140Y56594619D01*
X152400000Y66040000D02*
X152400000Y62118371D01*
X158661253Y55844619D02*
X159411253Y56594619D01*
%TO.N,RST*%
X150466332Y96085184D02*
X150443690Y96062542D01*
X156389782Y96106346D02*
X156368620Y96085184D01*
X156368620Y96085184D02*
X150466332Y96085184D01*
%TO.N,Braw*%
X149987226Y53594619D02*
X147545396Y56036449D01*
X160425140Y53594619D02*
X149987226Y53594619D01*
X151545396Y55929571D02*
X153880348Y53594619D01*
X147545396Y56036449D02*
X147545396Y58163682D01*
X153880348Y53594619D02*
X160425140Y53594619D01*
X151545396Y58163682D02*
X151545396Y55929571D01*
%TD*%
M02*
