%TF.GenerationSoftware,KiCad,Pcbnew,(6.0.4)*%
%TF.CreationDate,2022-10-16T13:45:35+02:00*%
%TF.ProjectId,Batreeq,42617472-6565-4712-9e6b-696361645f70,rev?*%
%TF.SameCoordinates,Original*%
%TF.FileFunction,Legend,Top*%
%TF.FilePolarity,Positive*%
%FSLAX46Y46*%
G04 Gerber Fmt 4.6, Leading zero omitted, Abs format (unit mm)*
G04 Created by KiCad (PCBNEW (6.0.4)) date 2022-10-16 13:45:35*
%MOMM*%
%LPD*%
G01*
G04 APERTURE LIST*
G04 Aperture macros list*
%AMRoundRect*
0 Rectangle with rounded corners*
0 $1 Rounding radius*
0 $2 $3 $4 $5 $6 $7 $8 $9 X,Y pos of 4 corners*
0 Add a 4 corners polygon primitive as box body*
4,1,4,$2,$3,$4,$5,$6,$7,$8,$9,$2,$3,0*
0 Add four circle primitives for the rounded corners*
1,1,$1+$1,$2,$3*
1,1,$1+$1,$4,$5*
1,1,$1+$1,$6,$7*
1,1,$1+$1,$8,$9*
0 Add four rect primitives between the rounded corners*
20,1,$1+$1,$2,$3,$4,$5,0*
20,1,$1+$1,$4,$5,$6,$7,0*
20,1,$1+$1,$6,$7,$8,$9,0*
20,1,$1+$1,$8,$9,$2,$3,0*%
%AMHorizOval*
0 Thick line with rounded ends*
0 $1 width*
0 $2 $3 position (X,Y) of the first rounded end (center of the circle)*
0 $4 $5 position (X,Y) of the second rounded end (center of the circle)*
0 Add line between two ends*
20,1,$1,$2,$3,$4,$5,0*
0 Add two circle primitives to create the rounded ends*
1,1,$1,$2,$3*
1,1,$1,$4,$5*%
%AMRotRect*
0 Rectangle, with rotation*
0 The origin of the aperture is its center*
0 $1 length*
0 $2 width*
0 $3 Rotation angle, in degrees counterclockwise*
0 Add horizontal line*
21,1,$1,$2,0,0,$3*%
G04 Aperture macros list end*
%ADD10C,0.150000*%
%ADD11C,0.120000*%
%ADD12C,0.100000*%
%ADD13RoundRect,0.375000X-0.837019X-0.050240X-0.462019X-0.699760X0.837019X0.050240X0.462019X0.699760X0*%
%ADD14R,1.600000X1.400000*%
%ADD15C,2.032000*%
%ADD16HorizOval,2.032000X-1.120053X0.724595X1.120053X-0.724595X0*%
%ADD17HorizOval,2.032000X1.332292X0.067491X-1.332292X-0.067491X0*%
%ADD18HorizOval,2.032000X-0.421808X0.776874X0.421808X-0.776874X0*%
%ADD19HorizOval,2.032000X0.753734X0.461889X-0.753734X-0.461889X0*%
%ADD20RoundRect,0.189673X-3.546058X0.753800X3.447877X-1.120219X3.546058X-0.753800X-3.447877X1.120219X0*%
%ADD21C,3.987800*%
%ADD22C,3.000000*%
%ADD23HorizOval,1.701800X0.482963X-0.129410X-0.482963X0.129410X0*%
%ADD24HorizOval,2.032000X-1.317210X-0.210983X1.317210X0.210983X0*%
%ADD25HorizOval,2.032000X0.944925X0.941633X-0.944925X-0.941633X0*%
%ADD26HorizOval,2.032000X0.251070X0.847597X-0.251070X-0.847597X0*%
%ADD27RoundRect,0.189673X-3.139626X-1.812593X3.311844X1.474595X3.139626X1.812593X-3.311844X-1.474595X0*%
%ADD28HorizOval,2.032000X-0.833295X0.295085X0.833295X-0.295085X0*%
%ADD29HorizOval,1.701800X0.445503X0.226995X-0.445503X-0.226995X0*%
%ADD30C,4.500000*%
%ADD31HorizOval,2.032000X1.120053X0.724595X-1.120053X-0.724595X0*%
%ADD32HorizOval,2.032000X-1.332292X0.067491X1.332292X-0.067491X0*%
%ADD33RoundRect,0.189673X-3.447877X-1.120219X3.546058X0.753800X3.447877X1.120219X-3.546058X-0.753800X0*%
%ADD34HorizOval,2.032000X-0.753734X0.461889X0.753734X-0.461889X0*%
%ADD35HorizOval,2.032000X0.421808X0.776874X-0.421808X-0.776874X0*%
%ADD36HorizOval,1.701800X0.482963X0.129410X-0.482963X-0.129410X0*%
%ADD37HorizOval,2.032000X-1.317210X0.210983X1.317210X-0.210983X0*%
%ADD38HorizOval,2.032000X-0.944925X0.941633X0.944925X-0.941633X0*%
%ADD39HorizOval,2.032000X-0.251070X0.847597X0.251070X-0.847597X0*%
%ADD40RoundRect,0.189673X-3.311844X1.474595X3.139626X-1.812593X3.311844X-1.474595X-3.139626X1.812593X0*%
%ADD41HorizOval,2.032000X0.833295X0.295085X-0.833295X-0.295085X0*%
%ADD42HorizOval,1.701800X0.445503X-0.226995X-0.445503X0.226995X0*%
%ADD43HorizOval,2.032000X-1.269427X0.410014X1.269427X-0.410014X0*%
%ADD44HorizOval,2.032000X1.269427X0.410014X-1.269427X-0.410014X0*%
%ADD45HorizOval,2.032000X0.608505X0.641231X-0.608505X-0.641231X0*%
%ADD46HorizOval,2.032000X-0.608505X0.641231X0.608505X-0.641231X0*%
%ADD47RoundRect,0.189673X-3.620327X-0.189672X3.620327X-0.189672X3.620327X0.189672X-3.620327X0.189672X0*%
%ADD48O,2.701800X1.701800*%
%ADD49HorizOval,2.032000X1.023398X0.855694X-1.023398X-0.855694X0*%
%ADD50HorizOval,2.032000X-1.330586X-0.095378X1.330586X0.095378X0*%
%ADD51HorizOval,2.032000X0.323987X0.822489X-0.323987X-0.822489X0*%
%ADD52HorizOval,2.032000X-0.804406X0.366589X0.804406X-0.366589X0*%
%ADD53RoundRect,0.189673X-3.285656X-1.532059X3.427761X1.180338X3.285656X1.532059X-3.427761X-1.180338X0*%
%ADD54HorizOval,1.701800X0.463592X0.187303X-0.463592X-0.187303X0*%
%ADD55RotRect,4.400000X4.400000X140.000000*%
%ADD56C,2.100000*%
%ADD57C,4.200000*%
%ADD58C,2.400000*%
%ADD59C,3.200000*%
%ADD60HorizOval,2.032000X-1.330586X0.095378X1.330586X-0.095378X0*%
%ADD61HorizOval,2.032000X-1.023398X0.855694X1.023398X-0.855694X0*%
%ADD62RoundRect,0.189673X-3.427761X1.180338X3.285656X-1.532059X3.427761X-1.180338X-3.285656X1.532059X0*%
%ADD63HorizOval,2.032000X-0.323987X0.822489X0.323987X-0.822489X0*%
%ADD64HorizOval,2.032000X0.804406X0.366589X-0.804406X-0.366589X0*%
%ADD65HorizOval,1.701800X0.463592X-0.187303X-0.463592X0.187303X0*%
%ADD66HorizOval,1.700000X0.000000X0.000000X0.000000X0.000000X0*%
%ADD67C,1.700000*%
%ADD68HorizOval,1.500000X0.409576X0.286788X-0.409576X-0.286788X0*%
%ADD69RotRect,1.500000X2.500000X125.000000*%
%ADD70HorizOval,2.200000X0.532449X0.372825X-0.532449X-0.372825X0*%
%ADD71C,1.524000*%
%ADD72C,1.400000*%
%ADD73R,1.400000X1.400000*%
G04 APERTURE END LIST*
D10*
%TO.C,SW35*%
X150867823Y-42472839D02*
X151010680Y-42520458D01*
X151248775Y-42520458D01*
X151344013Y-42472839D01*
X151391632Y-42425220D01*
X151439251Y-42329982D01*
X151439251Y-42234744D01*
X151391632Y-42139506D01*
X151344013Y-42091887D01*
X151248775Y-42044268D01*
X151058299Y-41996649D01*
X150963061Y-41949030D01*
X150915442Y-41901411D01*
X150867823Y-41806173D01*
X150867823Y-41710935D01*
X150915442Y-41615697D01*
X150963061Y-41568078D01*
X151058299Y-41520458D01*
X151296394Y-41520458D01*
X151439251Y-41568078D01*
X151772585Y-41520458D02*
X152010680Y-42520458D01*
X152201156Y-41806173D01*
X152391632Y-42520458D01*
X152629727Y-41520458D01*
X152915442Y-41520458D02*
X153534489Y-41520458D01*
X153201156Y-41901411D01*
X153344013Y-41901411D01*
X153439251Y-41949030D01*
X153486870Y-41996649D01*
X153534489Y-42091887D01*
X153534489Y-42329982D01*
X153486870Y-42425220D01*
X153439251Y-42472839D01*
X153344013Y-42520458D01*
X153058299Y-42520458D01*
X152963061Y-42472839D01*
X152915442Y-42425220D01*
X154439251Y-41520458D02*
X153963061Y-41520458D01*
X153915442Y-41996649D01*
X153963061Y-41949030D01*
X154058299Y-41901411D01*
X154296394Y-41901411D01*
X154391632Y-41949030D01*
X154439251Y-41996649D01*
X154486870Y-42091887D01*
X154486870Y-42329982D01*
X154439251Y-42425220D01*
X154391632Y-42472839D01*
X154296394Y-42520458D01*
X154058299Y-42520458D01*
X153963061Y-42472839D01*
X153915442Y-42425220D01*
%TO.C,H10*%
X165209250Y-95308456D02*
X165209250Y-94308456D01*
X165209250Y-94784647D02*
X165780679Y-94784647D01*
X165780679Y-95308456D02*
X165780679Y-94308456D01*
X166780679Y-95308456D02*
X166209250Y-95308456D01*
X166494965Y-95308456D02*
X166494965Y-94308456D01*
X166399726Y-94451314D01*
X166304488Y-94546552D01*
X166209250Y-94594171D01*
X167399726Y-94308456D02*
X167494965Y-94308456D01*
X167590203Y-94356076D01*
X167637822Y-94403695D01*
X167685441Y-94498933D01*
X167733060Y-94689409D01*
X167733060Y-94927504D01*
X167685441Y-95117980D01*
X167637822Y-95213218D01*
X167590203Y-95260837D01*
X167494965Y-95308456D01*
X167399726Y-95308456D01*
X167304488Y-95260837D01*
X167256869Y-95213218D01*
X167209250Y-95117980D01*
X167161631Y-94927504D01*
X167161631Y-94689409D01*
X167209250Y-94498933D01*
X167256869Y-94403695D01*
X167304488Y-94356076D01*
X167399726Y-94308456D01*
%TO.C,H8*%
X249509981Y-35810763D02*
X249475082Y-36810154D01*
X249491700Y-36334254D02*
X248920620Y-36314311D01*
X248938901Y-35790821D02*
X248904001Y-36790211D01*
X248300287Y-36340297D02*
X248393806Y-36391210D01*
X248439734Y-36440462D01*
X248484000Y-36537304D01*
X248482338Y-36584894D01*
X248431424Y-36678413D01*
X248382172Y-36724341D01*
X248285331Y-36768607D01*
X248094970Y-36761960D01*
X248001452Y-36711046D01*
X247955524Y-36661794D01*
X247911258Y-36564952D01*
X247912920Y-36517362D01*
X247963833Y-36423844D01*
X248013085Y-36377915D01*
X248109927Y-36333649D01*
X248300287Y-36340297D01*
X248397129Y-36296030D01*
X248446381Y-36250102D01*
X248497295Y-36156584D01*
X248503943Y-35966224D01*
X248459676Y-35869382D01*
X248413748Y-35820130D01*
X248320230Y-35769216D01*
X248129870Y-35762569D01*
X248033028Y-35806835D01*
X247983776Y-35852763D01*
X247932862Y-35946281D01*
X247926215Y-36136641D01*
X247970481Y-36233483D01*
X248016409Y-36282735D01*
X248109927Y-36333649D01*
%TO.C,H9*%
X133427438Y-95308459D02*
X133427438Y-94308459D01*
X133427438Y-94784650D02*
X133998866Y-94784650D01*
X133998866Y-95308459D02*
X133998866Y-94308459D01*
X134522676Y-95308459D02*
X134713152Y-95308459D01*
X134808390Y-95260840D01*
X134856009Y-95213221D01*
X134951247Y-95070364D01*
X134998866Y-94879888D01*
X134998866Y-94498936D01*
X134951247Y-94403698D01*
X134903628Y-94356079D01*
X134808390Y-94308459D01*
X134617914Y-94308459D01*
X134522676Y-94356079D01*
X134475057Y-94403698D01*
X134427438Y-94498936D01*
X134427438Y-94737031D01*
X134475057Y-94832269D01*
X134522676Y-94879888D01*
X134617914Y-94927507D01*
X134808390Y-94927507D01*
X134903628Y-94879888D01*
X134951247Y-94832269D01*
X134998866Y-94737031D01*
%TO.C,H3*%
X193662295Y-108006745D02*
X193662295Y-107006745D01*
X193662295Y-107482936D02*
X194233723Y-107482936D01*
X194233723Y-108006745D02*
X194233723Y-107006745D01*
X194614676Y-107006745D02*
X195233723Y-107006745D01*
X194900390Y-107387698D01*
X195043247Y-107387698D01*
X195138485Y-107435317D01*
X195186104Y-107482936D01*
X195233723Y-107578174D01*
X195233723Y-107816269D01*
X195186104Y-107911507D01*
X195138485Y-107959126D01*
X195043247Y-108006745D01*
X194757533Y-108006745D01*
X194662295Y-107959126D01*
X194614676Y-107911507D01*
%TO.C,H6*%
X113767602Y-60652174D02*
X113750150Y-59652326D01*
X113758460Y-60128444D02*
X114329802Y-60118471D01*
X114338943Y-60642201D02*
X114321491Y-59642353D01*
X115226115Y-59626563D02*
X115035668Y-59629887D01*
X114941275Y-59679161D01*
X114894495Y-59727604D01*
X114801764Y-59872101D01*
X114757477Y-60063380D01*
X114764125Y-60444274D01*
X114813399Y-60538667D01*
X114861842Y-60585447D01*
X114957897Y-60631397D01*
X115148344Y-60628073D01*
X115242736Y-60578799D01*
X115289517Y-60530356D01*
X115335467Y-60434301D01*
X115331312Y-60196242D01*
X115282038Y-60101850D01*
X115233595Y-60055069D01*
X115137540Y-60009119D01*
X114947093Y-60012444D01*
X114852700Y-60061718D01*
X114805920Y-60110160D01*
X114759970Y-60206215D01*
%TO.C,SW36*%
X144568402Y-107693189D02*
X144489576Y-107564884D01*
X144307185Y-107411840D01*
X144203619Y-107387100D01*
X144136532Y-107392969D01*
X144038836Y-107435317D01*
X143977618Y-107508274D01*
X143952878Y-107611839D01*
X143958748Y-107678926D01*
X144001095Y-107776623D01*
X144116400Y-107935537D01*
X144158747Y-108033233D01*
X144164617Y-108100320D01*
X144139877Y-108203886D01*
X144078659Y-108276842D01*
X143980963Y-108319190D01*
X143913876Y-108325059D01*
X143810310Y-108300320D01*
X143627919Y-108147275D01*
X143549093Y-108018970D01*
X143263136Y-107841186D02*
X143723532Y-106922097D01*
X143118484Y-107346836D01*
X143431705Y-106677225D01*
X142606526Y-107290225D01*
X142387656Y-107106571D02*
X141913438Y-106708655D01*
X142413658Y-106631091D01*
X142304223Y-106539265D01*
X142261875Y-106441568D01*
X142256006Y-106374481D01*
X142280745Y-106270916D01*
X142433790Y-106088524D01*
X142531486Y-106046176D01*
X142598574Y-106040307D01*
X142702139Y-106065047D01*
X142921009Y-106248700D01*
X142963357Y-106346396D01*
X142969226Y-106413484D01*
X141256829Y-106157694D02*
X141402742Y-106280130D01*
X141506307Y-106304870D01*
X141573395Y-106299000D01*
X141738178Y-106250783D01*
X141897092Y-106135479D01*
X142141964Y-105843653D01*
X142166703Y-105740087D01*
X142160834Y-105673000D01*
X142118486Y-105575304D01*
X141972573Y-105452868D01*
X141869007Y-105428128D01*
X141801920Y-105433998D01*
X141704224Y-105476345D01*
X141551179Y-105658737D01*
X141526440Y-105762302D01*
X141532309Y-105829390D01*
X141574657Y-105927086D01*
X141720570Y-106049522D01*
X141824136Y-106074261D01*
X141891223Y-106068392D01*
X141988919Y-106026044D01*
%TO.C,H2*%
X104590118Y-108196652D02*
X104555218Y-107197261D01*
X104571837Y-107673162D02*
X105142918Y-107653219D01*
X105161198Y-108176709D02*
X105126299Y-107177319D01*
X105557933Y-107257542D02*
X105603861Y-107208290D01*
X105697379Y-107157376D01*
X105935329Y-107149067D01*
X106032171Y-107193333D01*
X106081423Y-107239261D01*
X106132337Y-107332779D01*
X106135661Y-107427959D01*
X106093056Y-107572391D01*
X105541919Y-108163414D01*
X106160589Y-108141810D01*
%TO.C,PAD1*%
X190740714Y-51927922D02*
X190716563Y-51809900D01*
X190730506Y-51757861D01*
X190777442Y-51686774D01*
X190876416Y-51629631D01*
X190961446Y-51624527D01*
X191013486Y-51638471D01*
X191084572Y-51685406D01*
X191236953Y-51949338D01*
X190544133Y-52349338D01*
X190410800Y-52118398D01*
X190405696Y-52033367D01*
X190419640Y-51981328D01*
X190466575Y-51910241D01*
X190532558Y-51872146D01*
X190617588Y-51867042D01*
X190669627Y-51880986D01*
X190740714Y-51927922D01*
X190874047Y-52158862D01*
X190573022Y-51408898D02*
X190268260Y-50881035D01*
X189740714Y-50195871D02*
X189716563Y-50077849D01*
X189730506Y-50025810D01*
X189777442Y-49954723D01*
X189876416Y-49897580D01*
X189961446Y-49892476D01*
X190013486Y-49906420D01*
X190084572Y-49953355D01*
X190236953Y-50217287D01*
X189544133Y-50617287D01*
X189410800Y-50386347D01*
X189405696Y-50301316D01*
X189419640Y-50249277D01*
X189466575Y-50178190D01*
X189532558Y-50140095D01*
X189617588Y-50134991D01*
X189669627Y-50148935D01*
X189740714Y-50195871D01*
X189874047Y-50426811D01*
X189573022Y-49676847D02*
X189268260Y-49148984D01*
X189684572Y-49260535D02*
X189156709Y-49565297D01*
X191740714Y-53659973D02*
X191716563Y-53541951D01*
X191730506Y-53489912D01*
X191777442Y-53418825D01*
X191876416Y-53361682D01*
X191961446Y-53356578D01*
X192013486Y-53370522D01*
X192084572Y-53417457D01*
X192236953Y-53681389D01*
X191544133Y-54081389D01*
X191410800Y-53850449D01*
X191405696Y-53765418D01*
X191419640Y-53713379D01*
X191466575Y-53642292D01*
X191532558Y-53604197D01*
X191617588Y-53599093D01*
X191669627Y-53613037D01*
X191740714Y-53659973D01*
X191874047Y-53890913D01*
X191573022Y-53140949D02*
X191268260Y-52613086D01*
X191684572Y-52724637D02*
X191156709Y-53029399D01*
%TO.C,H1*%
X63087440Y-89990612D02*
X63052540Y-88991221D01*
X63069159Y-89467122D02*
X63640240Y-89447179D01*
X63658520Y-89970669D02*
X63623621Y-88971279D01*
X64657911Y-89935770D02*
X64086831Y-89955712D01*
X64372371Y-89945741D02*
X64337471Y-88946350D01*
X64247277Y-89092444D01*
X64155421Y-89190948D01*
X64061902Y-89241862D01*
%TO.C,H7*%
X185824249Y-59508512D02*
X185789350Y-60507903D01*
X185805968Y-60032003D02*
X185234888Y-60012060D01*
X185253169Y-59488570D02*
X185218269Y-60487960D01*
X184837549Y-60474665D02*
X184171288Y-60451399D01*
X184634498Y-59466965D01*
%TO.C,U5*%
X172137356Y-53857755D02*
X172858647Y-53490239D01*
X172921886Y-53404573D01*
X172942696Y-53340526D01*
X172941888Y-53234049D01*
X172855414Y-53064334D01*
X172769748Y-53001095D01*
X172705700Y-52980284D01*
X172599224Y-52981093D01*
X171877933Y-53348609D01*
X171445561Y-52500031D02*
X171661747Y-52924320D01*
X172107654Y-52750563D01*
X172043607Y-52729753D01*
X171957941Y-52666514D01*
X171849848Y-52454369D01*
X171849039Y-52347893D01*
X171869850Y-52283845D01*
X171933089Y-52198179D01*
X172145233Y-52090086D01*
X172251710Y-52089278D01*
X172315757Y-52110088D01*
X172401423Y-52173327D01*
X172509516Y-52385472D01*
X172510324Y-52491948D01*
X172489514Y-52555996D01*
%TO.C,SW37*%
X184905507Y-46900175D02*
X184862575Y-46755840D01*
X184726009Y-46560804D01*
X184632376Y-46510102D01*
X184566055Y-46498408D01*
X184460728Y-46514027D01*
X184382713Y-46568654D01*
X184332012Y-46662287D01*
X184320318Y-46728608D01*
X184335937Y-46833935D01*
X184406182Y-47017277D01*
X184421801Y-47122605D01*
X184410107Y-47188925D01*
X184359406Y-47282559D01*
X184281391Y-47337185D01*
X184176064Y-47352804D01*
X184109743Y-47341110D01*
X184016110Y-47290409D01*
X183879544Y-47095373D01*
X183836612Y-46951038D01*
X183606412Y-46705300D02*
X184288999Y-45936688D01*
X183594637Y-46190356D01*
X184070493Y-45624630D01*
X183114775Y-46003170D01*
X182950896Y-45769127D02*
X182595825Y-45262033D01*
X183099075Y-45316578D01*
X183017136Y-45199556D01*
X183001517Y-45094229D01*
X183013211Y-45027908D01*
X183063912Y-44934275D01*
X183258948Y-44797709D01*
X183364276Y-44782090D01*
X183430596Y-44793784D01*
X183524230Y-44844485D01*
X183688109Y-45078529D01*
X183703728Y-45183856D01*
X183692034Y-45250177D01*
X182404633Y-44988982D02*
X182022249Y-44442881D01*
X183087219Y-44220369D01*
%TO.C,H5*%
X50313336Y-36777998D02*
X50278436Y-35778607D01*
X50295055Y-36254508D02*
X50866136Y-36234565D01*
X50884416Y-36758055D02*
X50849517Y-35758665D01*
X51801318Y-35725427D02*
X51325417Y-35742046D01*
X51294446Y-36219608D01*
X51340374Y-36170356D01*
X51433892Y-36119442D01*
X51671842Y-36111133D01*
X51768684Y-36155399D01*
X51817936Y-36201327D01*
X51868850Y-36294846D01*
X51877160Y-36532796D01*
X51832893Y-36629638D01*
X51786965Y-36678890D01*
X51693447Y-36729803D01*
X51455497Y-36738113D01*
X51358655Y-36693847D01*
X51309403Y-36647918D01*
%TO.C,U1*%
D11*
%TO.C,SW35*%
X149577347Y-45068078D02*
X149577347Y-47668078D01*
X155577347Y-43118078D02*
X149777347Y-43118078D01*
X147577347Y-43068078D02*
X148577347Y-43068078D01*
X155677347Y-49618078D02*
X149677347Y-49618078D01*
X147577347Y-44068078D02*
X147577347Y-43068078D01*
X155777347Y-45068078D02*
X155777347Y-47668078D01*
%TO.C,G\u002A\u002A\u002A*%
G36*
X112946223Y-123250294D02*
G01*
X112802500Y-123180919D01*
X112469303Y-123005502D01*
X112273844Y-122867817D01*
X112193661Y-122750734D01*
X112192891Y-122744894D01*
X112369130Y-122744894D01*
X112385555Y-122765777D01*
X112565983Y-122860637D01*
X112876248Y-122938544D01*
X113277487Y-122997150D01*
X113730834Y-123034105D01*
X114197425Y-123047063D01*
X114638396Y-123033673D01*
X115014882Y-122991589D01*
X115236667Y-122938054D01*
X115464017Y-122828460D01*
X115522717Y-122713241D01*
X115413306Y-122593698D01*
X115136325Y-122471135D01*
X115028323Y-122436304D01*
X114726810Y-122326410D01*
X114469835Y-122201366D01*
X114345533Y-122115329D01*
X114083922Y-121968350D01*
X113798867Y-121985550D01*
X113571858Y-122113069D01*
X113369029Y-122231633D01*
X113081997Y-122352728D01*
X112906646Y-122410514D01*
X112576632Y-122527458D01*
X112394352Y-122641037D01*
X112369130Y-122744894D01*
X112192891Y-122744894D01*
X112188667Y-122712873D01*
X112267767Y-122525790D01*
X112482908Y-122364813D01*
X112800845Y-122251908D01*
X112920545Y-122229263D01*
X113216681Y-122140942D01*
X113497273Y-121992994D01*
X113516517Y-121979133D01*
X113814795Y-121814040D01*
X114082192Y-121804342D01*
X114356181Y-121950513D01*
X114405440Y-121990333D01*
X114617405Y-122130438D01*
X114813921Y-122201682D01*
X114840996Y-122203859D01*
X115028597Y-122239386D01*
X115284747Y-122326666D01*
X115390908Y-122371773D01*
X115621319Y-122494866D01*
X115721479Y-122608757D01*
X115729575Y-122721100D01*
X115653718Y-122898121D01*
X115575333Y-122969783D01*
X115174004Y-123170271D01*
X114867942Y-123302338D01*
X114605688Y-123382090D01*
X114335781Y-123425633D01*
X114051333Y-123446775D01*
X113715253Y-123457950D01*
X113465142Y-123438742D01*
X113231849Y-123374430D01*
X113172230Y-123348519D01*
X113736044Y-123348519D01*
X113842418Y-123361803D01*
X113966667Y-123364273D01*
X114149788Y-123357668D01*
X114200057Y-123340782D01*
X114157167Y-123327581D01*
X113910449Y-123313574D01*
X113776167Y-123327581D01*
X113736044Y-123348519D01*
X113172230Y-123348519D01*
X113020151Y-123282424D01*
X113326055Y-123282424D01*
X113409278Y-123295982D01*
X113519092Y-123280416D01*
X113520403Y-123251514D01*
X113407086Y-123231302D01*
X113358125Y-123244830D01*
X113326055Y-123282424D01*
X113020151Y-123282424D01*
X112946223Y-123250294D01*
G37*
G36*
X114559333Y-127558688D02*
G01*
X114705540Y-127409332D01*
X114728937Y-127305538D01*
X114618013Y-127240288D01*
X114361257Y-127206564D01*
X113966667Y-127197333D01*
X113631108Y-127204690D01*
X113370943Y-127224395D01*
X113223942Y-127252903D01*
X113204667Y-127268878D01*
X113261279Y-127373387D01*
X113374000Y-127493667D01*
X113509387Y-127660835D01*
X113539233Y-127795994D01*
X113462939Y-127859921D01*
X113379468Y-127851564D01*
X113222860Y-127866398D01*
X113170458Y-127926356D01*
X113068956Y-128035177D01*
X112948213Y-128000050D01*
X112897213Y-127918550D01*
X112817086Y-127838038D01*
X112693769Y-127876217D01*
X112524939Y-127949921D01*
X112454899Y-127913715D01*
X112442667Y-127790717D01*
X112483973Y-127681925D01*
X112645036Y-127681925D01*
X112739585Y-127676575D01*
X112811279Y-127630947D01*
X112911419Y-127587828D01*
X112979204Y-127688159D01*
X112991633Y-127724715D01*
X113042603Y-127847021D01*
X113079643Y-127814375D01*
X113091945Y-127773526D01*
X113186511Y-127669609D01*
X113273471Y-127675574D01*
X113345225Y-127682347D01*
X113283630Y-127607412D01*
X113236030Y-127565048D01*
X113084885Y-127404381D01*
X113009881Y-127282000D01*
X112971843Y-127209287D01*
X112957351Y-127300188D01*
X112883743Y-127451266D01*
X112774082Y-127539881D01*
X112656426Y-127628654D01*
X112645036Y-127681925D01*
X112483973Y-127681925D01*
X112509258Y-127615328D01*
X112612000Y-127516351D01*
X112756231Y-127390289D01*
X112744263Y-127283560D01*
X112571377Y-127189755D01*
X112321139Y-127121292D01*
X111867786Y-126937019D01*
X111495769Y-126619178D01*
X111232341Y-126194667D01*
X111154954Y-125970314D01*
X111053684Y-125591676D01*
X110838009Y-125728766D01*
X110623927Y-125895796D01*
X110432153Y-126087095D01*
X110241972Y-126308333D01*
X110062558Y-126096667D01*
X109931987Y-125821759D01*
X109910718Y-125559932D01*
X110157449Y-125559932D01*
X110165017Y-125785442D01*
X110202010Y-125914029D01*
X110226186Y-125927333D01*
X110318619Y-125872824D01*
X110492418Y-125730307D01*
X110665380Y-125571779D01*
X111355529Y-125571779D01*
X111437471Y-125951525D01*
X111538746Y-126188085D01*
X111716306Y-126459822D01*
X111940130Y-126668617D01*
X112231181Y-126820568D01*
X112610419Y-126921771D01*
X113098806Y-126978324D01*
X113717303Y-126996325D01*
X114288465Y-126987941D01*
X114771045Y-126971116D01*
X115122605Y-126947484D01*
X115381454Y-126911307D01*
X115585903Y-126856850D01*
X115774260Y-126778376D01*
X115812465Y-126759744D01*
X116186166Y-126484326D01*
X116458741Y-126095514D01*
X116618145Y-125623920D01*
X116652334Y-125100157D01*
X116602774Y-124750964D01*
X116517753Y-124443084D01*
X116409551Y-124265532D01*
X116243290Y-124201754D01*
X115984091Y-124235197D01*
X115692429Y-124318920D01*
X115015775Y-124473959D01*
X114259327Y-124551480D01*
X113495416Y-124548341D01*
X112796372Y-124461397D01*
X112731216Y-124447618D01*
X112397320Y-124368517D01*
X112115665Y-124292230D01*
X111937404Y-124232842D01*
X111917053Y-124223398D01*
X111815070Y-124201342D01*
X111743327Y-124289845D01*
X111685952Y-124468372D01*
X111595901Y-124725446D01*
X111488361Y-124935179D01*
X111473424Y-124956283D01*
X111366564Y-125222110D01*
X111355529Y-125571779D01*
X110665380Y-125571779D01*
X110697671Y-125542183D01*
X110928397Y-125282831D01*
X111153054Y-124966366D01*
X111343510Y-124640189D01*
X111471632Y-124351699D01*
X111510506Y-124172674D01*
X111442946Y-124066010D01*
X111277955Y-123948466D01*
X111265387Y-123941831D01*
X111117026Y-123874743D01*
X111007215Y-123877717D01*
X110884265Y-123970322D01*
X110716978Y-124149438D01*
X110511103Y-124410223D01*
X110338154Y-124684925D01*
X110285591Y-124792787D01*
X110220306Y-125014510D01*
X110176736Y-125286590D01*
X110157449Y-125559932D01*
X109910718Y-125559932D01*
X109902447Y-125458121D01*
X109964615Y-125045459D01*
X110109167Y-124623475D01*
X110326781Y-124231877D01*
X110567115Y-123947908D01*
X110823739Y-123704150D01*
X110365244Y-123285112D01*
X109888688Y-122740137D01*
X109629541Y-122302691D01*
X109509386Y-122049493D01*
X109430325Y-121841715D01*
X109383997Y-121632215D01*
X109362039Y-121373850D01*
X109356086Y-121019475D01*
X109356616Y-120764154D01*
X109359740Y-120720333D01*
X109615941Y-120720333D01*
X109619645Y-121133511D01*
X109641067Y-121433576D01*
X109689929Y-121676562D01*
X109775950Y-121918501D01*
X109855089Y-122098878D01*
X110198549Y-122659745D01*
X110683273Y-123169465D01*
X111284364Y-123609522D01*
X111976928Y-123961400D01*
X112666057Y-124189468D01*
X113145031Y-124266872D01*
X113725559Y-124294747D01*
X114348033Y-124275537D01*
X114952848Y-124211687D01*
X115480397Y-124105640D01*
X115605484Y-124068931D01*
X116185968Y-123882980D01*
X116132540Y-123444656D01*
X116141710Y-122981448D01*
X116388126Y-122981448D01*
X116389955Y-123383989D01*
X116437413Y-123744741D01*
X116530020Y-124004789D01*
X116537379Y-124016480D01*
X116690388Y-124250000D01*
X116888529Y-124063856D01*
X117028375Y-123867951D01*
X117149202Y-123591765D01*
X117184109Y-123471543D01*
X117238966Y-122915583D01*
X117146506Y-122372398D01*
X116969926Y-121978397D01*
X116846492Y-121787286D01*
X116775452Y-121728016D01*
X116728892Y-121783346D01*
X116715091Y-121821000D01*
X116641688Y-122011697D01*
X116537487Y-122255148D01*
X116523277Y-122286667D01*
X116432407Y-122596035D01*
X116388126Y-122981448D01*
X116141710Y-122981448D01*
X116144341Y-122848523D01*
X116212827Y-122540667D01*
X116324641Y-122159753D01*
X116384490Y-121914295D01*
X116374205Y-121773823D01*
X116275619Y-121707866D01*
X116070565Y-121685955D01*
X115740875Y-121677620D01*
X115697431Y-121676264D01*
X114954433Y-121651667D01*
X114607607Y-120805000D01*
X114260780Y-119958333D01*
X113600236Y-119958333D01*
X112906488Y-121651667D01*
X112054432Y-121675631D01*
X111202375Y-121699596D01*
X110847734Y-120759192D01*
X110713724Y-120384589D01*
X110612804Y-120064613D01*
X110554950Y-119833771D01*
X110549517Y-119727492D01*
X110627857Y-119703062D01*
X110833214Y-119685386D01*
X111172688Y-119674394D01*
X111653380Y-119670020D01*
X112282392Y-119672195D01*
X113066823Y-119680851D01*
X113954865Y-119694882D01*
X114690855Y-119708614D01*
X115372622Y-119722940D01*
X115981898Y-119737357D01*
X116500411Y-119751361D01*
X116909891Y-119764446D01*
X117192069Y-119776109D01*
X117328673Y-119785844D01*
X117338531Y-119788309D01*
X117326877Y-119877567D01*
X117267520Y-120090029D01*
X117171063Y-120389918D01*
X117094253Y-120612627D01*
X116815234Y-121402203D01*
X117039976Y-121626946D01*
X117201757Y-121856614D01*
X117349376Y-122184517D01*
X117407421Y-122364961D01*
X117550123Y-122878235D01*
X117762642Y-122565485D01*
X118025258Y-122108098D01*
X118189744Y-121632389D01*
X118270402Y-121085947D01*
X118284667Y-120652547D01*
X118215481Y-119744287D01*
X118014080Y-118907595D01*
X117689700Y-118155084D01*
X117251577Y-117499363D01*
X116708947Y-116953044D01*
X116071044Y-116528738D01*
X115347106Y-116239056D01*
X114990963Y-116155084D01*
X114661663Y-116078448D01*
X114490366Y-115984219D01*
X114466088Y-115844021D01*
X114577843Y-115629476D01*
X114714666Y-115441379D01*
X114892317Y-115119521D01*
X114940333Y-114783324D01*
X114906344Y-114461862D01*
X114802472Y-114292553D01*
X114625857Y-114272047D01*
X114532704Y-114305439D01*
X114318808Y-114488914D01*
X114153105Y-114803910D01*
X114050038Y-115216010D01*
X114023499Y-115518791D01*
X114004614Y-115834664D01*
X113975268Y-115992066D01*
X113941910Y-116001014D01*
X113910985Y-115871525D01*
X113888940Y-115613614D01*
X113882000Y-115298947D01*
X113856276Y-114759054D01*
X113781024Y-114355114D01*
X113659124Y-114096161D01*
X113493455Y-113991230D01*
X113464600Y-113989333D01*
X113302751Y-114063993D01*
X113241173Y-114194074D01*
X113230571Y-114412506D01*
X113266211Y-114734288D01*
X113337828Y-115103142D01*
X113435154Y-115462793D01*
X113511243Y-115674500D01*
X113582787Y-115867813D01*
X113608370Y-115979284D01*
X113606033Y-115986855D01*
X113517540Y-116014521D01*
X113305904Y-116065434D01*
X113013978Y-116129384D01*
X112963297Y-116140015D01*
X112157140Y-116378505D01*
X111469288Y-116735885D01*
X110892076Y-117217881D01*
X110417839Y-117830222D01*
X110212649Y-118195563D01*
X109906894Y-118895777D01*
X109717449Y-119575351D01*
X109628153Y-120302667D01*
X109615941Y-120720333D01*
X109359740Y-120720333D01*
X109425922Y-119792039D01*
X109620196Y-118901534D01*
X109932270Y-118103047D01*
X110354975Y-117406986D01*
X110881144Y-116823759D01*
X111503609Y-116363776D01*
X112215202Y-116037445D01*
X112702250Y-115905936D01*
X112972817Y-115845245D01*
X113169451Y-115790880D01*
X113238921Y-115761301D01*
X113243004Y-115662070D01*
X113207411Y-115451986D01*
X113160220Y-115255396D01*
X113056204Y-114737051D01*
X113040479Y-114310671D01*
X113112325Y-113996306D01*
X113210452Y-113857097D01*
X113350685Y-113753978D01*
X113478056Y-113758761D01*
X113612619Y-113825884D01*
X113819983Y-113999380D01*
X113951363Y-114185502D01*
X114063059Y-114417853D01*
X114317692Y-114203593D01*
X114527802Y-114044763D01*
X114677236Y-114005440D01*
X114824679Y-114085019D01*
X114944182Y-114197151D01*
X115114331Y-114479520D01*
X115157710Y-114830440D01*
X115074591Y-115206509D01*
X114936148Y-115469111D01*
X114812821Y-115661770D01*
X114748172Y-115784701D01*
X114745648Y-115805223D01*
X114835295Y-115831313D01*
X115041521Y-115880389D01*
X115255348Y-115927813D01*
X116008709Y-116173878D01*
X116683335Y-116565011D01*
X117270482Y-117092088D01*
X117761406Y-117745985D01*
X118147363Y-118517578D01*
X118363484Y-119171002D01*
X118539146Y-120051943D01*
X118581690Y-120870395D01*
X118493088Y-121614726D01*
X118275313Y-122273305D01*
X117930338Y-122834502D01*
X117699553Y-123085674D01*
X117535497Y-123276574D01*
X117444508Y-123450282D01*
X117438000Y-123491213D01*
X117395990Y-123685810D01*
X117291902Y-123929630D01*
X117158652Y-124160591D01*
X117029155Y-124316608D01*
X116985814Y-124344111D01*
X116924865Y-124409419D01*
X116888736Y-124566771D01*
X116873430Y-124844296D01*
X116873097Y-125137720D01*
X116868592Y-125545742D01*
X116838655Y-125842160D01*
X116774186Y-126083914D01*
X116690911Y-126277715D01*
X116401216Y-126690139D01*
X116000745Y-126990371D01*
X115524172Y-127152623D01*
X115511833Y-127154648D01*
X115255301Y-127225049D01*
X115160833Y-127325268D01*
X115230994Y-127450436D01*
X115321333Y-127516351D01*
X115456724Y-127652018D01*
X115481274Y-127786810D01*
X115392510Y-127868363D01*
X115338267Y-127874667D01*
X115146714Y-127930916D01*
X115078567Y-127980500D01*
X114974129Y-128035385D01*
X114868948Y-127947540D01*
X114858095Y-127933100D01*
X114747008Y-127840191D01*
X114689464Y-127869600D01*
X114572607Y-127952688D01*
X114445808Y-127934237D01*
X114390000Y-127831504D01*
X114426031Y-127742005D01*
X114596701Y-127742005D01*
X114611106Y-127751800D01*
X114673360Y-127706771D01*
X114803020Y-127633693D01*
X114889769Y-127695085D01*
X114924456Y-127751666D01*
X114999322Y-127861162D01*
X115036607Y-127824719D01*
X115048566Y-127773526D01*
X115134620Y-127668462D01*
X115220804Y-127672453D01*
X115279675Y-127670385D01*
X115192500Y-127587384D01*
X115173167Y-127572766D01*
X115029424Y-127421397D01*
X114975982Y-127292840D01*
X114961929Y-127204470D01*
X114923135Y-127281282D01*
X114922873Y-127282000D01*
X114836538Y-127434236D01*
X114696723Y-127618104D01*
X114596701Y-127742005D01*
X114426031Y-127742005D01*
X114449751Y-127683086D01*
X114559333Y-127558688D01*
G37*
D12*
%TO.C,SW36*%
X179843347Y-98302077D02*
G75*
G03*
X179843347Y-98302077I-30000000J0D01*
G01*
X178843347Y-98302077D02*
G75*
G03*
X178843347Y-98302077I-29000000J0D01*
G01*
X173843348Y-98302077D02*
G75*
G03*
X173843348Y-98302077I-24000001J0D01*
G01*
X173336847Y-98302077D02*
G75*
G03*
X173336847Y-98302077I-23493500J0D01*
G01*
D10*
%TO.C,SW37*%
X190491276Y-45296824D02*
X189229407Y-43494689D01*
X186877744Y-40136166D02*
X185558518Y-38252116D01*
X186723176Y-47935276D02*
X181790419Y-40890568D01*
%TD*%
D13*
%TO.C,PAD1*%
X193130000Y-52352000D03*
X192130000Y-50619949D03*
X191130000Y-48887898D03*
%TD*%
%LPC*%
D14*
%TO.C,SW35*%
X148677347Y-44118078D03*
X156677347Y-44118078D03*
X148677347Y-48618078D03*
X156677347Y-48618078D03*
%TD*%
D15*
%TO.C,SW7*%
X30920405Y-70392289D03*
D16*
X29812672Y-69676116D03*
D17*
X32237817Y-70325931D03*
D18*
X35887969Y-68910945D03*
D19*
X27359039Y-66625626D03*
D20*
X31673162Y-67601881D03*
D15*
X35470214Y-68132879D03*
X28109859Y-66160678D03*
D21*
X32447437Y-64693327D03*
D22*
X29421474Y-61256346D03*
X38244452Y-62367771D03*
X36212503Y-60446395D03*
D23*
X37351154Y-66010699D03*
D22*
X28588379Y-59777011D03*
D23*
X27538373Y-63377271D03*
D22*
X33987410Y-58946068D03*
%TD*%
D24*
%TO.C,SW26*%
X221730133Y-120335215D03*
D15*
X223032553Y-120126217D03*
D25*
X223967179Y-119195383D03*
D26*
X217865554Y-119710059D03*
D15*
X224901880Y-115402731D03*
D27*
X221724814Y-117548847D03*
D28*
X225732961Y-115701415D03*
D15*
X218112410Y-118862139D03*
D22*
X220310247Y-109193872D03*
X217652766Y-109567790D03*
D29*
X215825251Y-117176063D03*
D21*
X220354009Y-114869279D03*
D22*
X214196513Y-113797957D03*
X223105930Y-109262094D03*
X215805491Y-114339868D03*
D29*
X224879675Y-112567049D03*
%TD*%
D30*
%TO.C,H10*%
X166447346Y-98056076D03*
%TD*%
D15*
%TO.C,SW34*%
X263733084Y-52037591D03*
D31*
X264840817Y-51321417D03*
D32*
X262415672Y-51971232D03*
D33*
X262989787Y-49244648D03*
D34*
X267294449Y-48270927D03*
D15*
X266543629Y-47805979D03*
X259183275Y-49778181D03*
D35*
X258765520Y-50556247D03*
D36*
X267111481Y-45027647D03*
D22*
X256405851Y-44010503D03*
X263343229Y-40778144D03*
D21*
X262206052Y-46338628D03*
D22*
X257867000Y-44875097D03*
X260666078Y-40591370D03*
D36*
X257296650Y-47653423D03*
D22*
X266063636Y-41426131D03*
%TD*%
D30*
%TO.C,H8*%
X248621075Y-39434330D03*
%TD*%
%TO.C,H9*%
X134189343Y-98056079D03*
%TD*%
D24*
%TO.C,SW21*%
X206457465Y-133193314D03*
D15*
X207759885Y-132984316D03*
D25*
X208694511Y-132053482D03*
D15*
X209629212Y-128260830D03*
D27*
X206452146Y-130406946D03*
D15*
X202839742Y-131720238D03*
D26*
X202592886Y-132568158D03*
D28*
X210460293Y-128559514D03*
D22*
X207833262Y-122120193D03*
D29*
X200552583Y-130034162D03*
X209607007Y-125425148D03*
D22*
X198923845Y-126656056D03*
X205037579Y-122051971D03*
X200532823Y-127197967D03*
D21*
X205081341Y-127727378D03*
D22*
X202380098Y-122425889D03*
%TD*%
D25*
%TO.C,SW25*%
X210585847Y-82507660D03*
D15*
X209651221Y-83438494D03*
D24*
X208348801Y-83647492D03*
D26*
X204484222Y-83022336D03*
D28*
X212351629Y-79013692D03*
D15*
X211520548Y-78715008D03*
X204731078Y-82174416D03*
D27*
X208343482Y-80861124D03*
D22*
X204271434Y-72880067D03*
X200815181Y-77110234D03*
D21*
X206972677Y-78181556D03*
D29*
X211498343Y-75879326D03*
D22*
X206928915Y-72506149D03*
X202424159Y-77652145D03*
D29*
X202443919Y-80488340D03*
D22*
X209724598Y-72574371D03*
%TD*%
D37*
%TO.C,SW4*%
X84719139Y-54129775D03*
D15*
X83416719Y-53920777D03*
D38*
X82482094Y-52989943D03*
D39*
X88583719Y-53504619D03*
D15*
X88336862Y-52656699D03*
X81547392Y-49197291D03*
D40*
X84733186Y-51347853D03*
D41*
X80716311Y-49495975D03*
D22*
X83342694Y-43052613D03*
X88796506Y-43362350D03*
D42*
X81567097Y-46355890D03*
D21*
X86095263Y-48663839D03*
D22*
X83850013Y-44672831D03*
D42*
X90617925Y-50971963D03*
D22*
X90661040Y-45292514D03*
X92249109Y-47594369D03*
%TD*%
D37*
%TO.C,SW8*%
X100067257Y-66794397D03*
D15*
X98764837Y-66585399D03*
D38*
X97830212Y-65654565D03*
D15*
X96895510Y-61861913D03*
X103684980Y-65321321D03*
D41*
X96064429Y-62160597D03*
D40*
X100081304Y-64012475D03*
D39*
X103931837Y-66169241D03*
D42*
X105966043Y-63636585D03*
D22*
X104144624Y-56026972D03*
D21*
X101443381Y-61328461D03*
D22*
X107597227Y-60258991D03*
D42*
X96915215Y-59020512D03*
D22*
X98690812Y-55717235D03*
X106009158Y-57957136D03*
X99198131Y-57337453D03*
%TD*%
D43*
%TO.C,SW22*%
X158787996Y-158081008D03*
D44*
X161298692Y-158081008D03*
D15*
X160043344Y-158486077D03*
X163853344Y-155126077D03*
D45*
X155628445Y-155769509D03*
D15*
X156233344Y-155126077D03*
D46*
X164458243Y-155769509D03*
D47*
X160048241Y-155595922D03*
D22*
X160043344Y-146636077D03*
D21*
X160043344Y-152586077D03*
D22*
X156230932Y-150049385D03*
D48*
X154960932Y-152585424D03*
D22*
X155043344Y-148836078D03*
X165040932Y-148839385D03*
X162580932Y-147509385D03*
D48*
X165120932Y-152589385D03*
%TD*%
D30*
%TO.C,H3*%
X192972150Y-111198053D03*
%TD*%
D15*
%TO.C,SW27*%
X179347346Y-156708078D03*
D43*
X178091998Y-156303009D03*
D44*
X180602694Y-156303009D03*
D45*
X174932447Y-153991510D03*
D47*
X179352243Y-153817923D03*
D46*
X183762245Y-153991510D03*
D15*
X183157346Y-153348078D03*
X175537346Y-153348078D03*
D22*
X174347346Y-147058079D03*
X175534934Y-148271386D03*
D48*
X184424934Y-150811386D03*
D21*
X179347346Y-150808078D03*
D22*
X184344934Y-147061386D03*
X179347346Y-144858078D03*
X181884934Y-145731386D03*
D48*
X174264934Y-150807425D03*
%TD*%
D49*
%TO.C,SW33*%
X247370247Y-66486951D03*
D50*
X245042371Y-67427473D03*
D15*
X246358050Y-67332785D03*
X248631942Y-62790196D03*
D51*
X241246983Y-66467877D03*
D52*
X249433828Y-63160177D03*
D53*
X245279920Y-64651245D03*
D15*
X241566801Y-65644698D03*
D22*
X239662803Y-60938575D03*
D54*
X248856968Y-59963370D03*
D22*
X238107178Y-60258495D03*
D54*
X239435296Y-63765700D03*
D21*
X244147871Y-61862400D03*
D22*
X241918962Y-56345656D03*
X247378019Y-56516399D03*
X244598919Y-56204776D03*
%TD*%
D30*
%TO.C,H6*%
X114577344Y-63386078D03*
%TD*%
D15*
%TO.C,SW16*%
X92030356Y-133060348D03*
D38*
X91095731Y-132129514D03*
D37*
X93332776Y-133269346D03*
D15*
X90161029Y-128336862D03*
X96950499Y-131796270D03*
D40*
X93346823Y-130487424D03*
D39*
X97197356Y-132644190D03*
D41*
X89329948Y-128635546D03*
D22*
X100862746Y-126733940D03*
D21*
X94708900Y-127803410D03*
D22*
X92463650Y-123812402D03*
X97410143Y-122501921D03*
D42*
X90180734Y-125495461D03*
D22*
X91956331Y-122192184D03*
D42*
X99231562Y-130111534D03*
D22*
X99274677Y-124432085D03*
%TD*%
D25*
%TO.C,SW28*%
X217097186Y-52993005D03*
D15*
X216162560Y-53923839D03*
D24*
X214860140Y-54132837D03*
D28*
X218862968Y-49499037D03*
D26*
X210995561Y-53507681D03*
D15*
X218031887Y-49200353D03*
X211242417Y-52659761D03*
D27*
X214854821Y-51346469D03*
D22*
X208935498Y-48137490D03*
X210782773Y-43365412D03*
X216235937Y-43059716D03*
D29*
X218009682Y-46364671D03*
X208955258Y-50973685D03*
D21*
X213484016Y-48666901D03*
D22*
X213440254Y-42991494D03*
X207326520Y-47595579D03*
%TD*%
D15*
%TO.C,SW5*%
X74790903Y-70849901D03*
D38*
X73856278Y-69919067D03*
D37*
X76093323Y-71058899D03*
D15*
X72921576Y-66126415D03*
D41*
X72090495Y-66425099D03*
D39*
X79957903Y-70433743D03*
D15*
X79711046Y-69585823D03*
D40*
X76107370Y-68276977D03*
D21*
X77469447Y-65592963D03*
D42*
X81992109Y-67901087D03*
D22*
X80170690Y-60291474D03*
X83623293Y-64523493D03*
X82035224Y-62221638D03*
X74716878Y-59981737D03*
D42*
X72941281Y-63285014D03*
D22*
X75224197Y-61601955D03*
%TD*%
D55*
%TO.C,SW36*%
X130236554Y-77998238D03*
X173263659Y-114099277D03*
D56*
X169126975Y-75320744D03*
X167211864Y-73713775D03*
X171042086Y-76927713D03*
D57*
X141423676Y-76368083D03*
X173044231Y-101976735D03*
D58*
X163952042Y-117720395D03*
D59*
X139749391Y-126035494D03*
D58*
X128867742Y-86671342D03*
D57*
X135054009Y-116549375D03*
D59*
X124286053Y-113059816D03*
%TD*%
D38*
%TO.C,SW15*%
X80578573Y-99512815D03*
D37*
X82815618Y-100652647D03*
D15*
X81513198Y-100443649D03*
D40*
X82829665Y-97870725D03*
D15*
X86433341Y-99179571D03*
D39*
X86680198Y-100027491D03*
D41*
X78812790Y-96018847D03*
D15*
X79643871Y-95720163D03*
D22*
X86892985Y-89885222D03*
X81439173Y-89575485D03*
X88757519Y-91815386D03*
X81946492Y-91195703D03*
X90345588Y-94117241D03*
D42*
X88714404Y-97494835D03*
X79663576Y-92878762D03*
D21*
X84191742Y-95186711D03*
%TD*%
D32*
%TO.C,SW31*%
X267341896Y-70331280D03*
D31*
X269767041Y-69681465D03*
D15*
X268659308Y-70397639D03*
D33*
X267916011Y-67604696D03*
D35*
X263691744Y-68916295D03*
D15*
X271469853Y-66166027D03*
D34*
X272220673Y-66630975D03*
D15*
X264109499Y-68138229D03*
D22*
X262793224Y-63235145D03*
D36*
X272037705Y-63387695D03*
D21*
X267132276Y-64698676D03*
D22*
X261332075Y-62370551D03*
X270989860Y-59786179D03*
X268269453Y-59138192D03*
X265592302Y-58951418D03*
D36*
X262222874Y-66013471D03*
%TD*%
D30*
%TO.C,H2*%
X104010023Y-111310117D03*
%TD*%
D24*
%TO.C,SW23*%
X232111777Y-87991084D03*
D25*
X234348823Y-86851252D03*
D15*
X233414197Y-87782086D03*
X235283524Y-83058600D03*
D28*
X236114605Y-83357284D03*
D27*
X232106458Y-85204716D03*
D15*
X228494054Y-86518008D03*
D26*
X228247198Y-87365928D03*
D21*
X230735653Y-82525148D03*
D22*
X230691891Y-76849741D03*
X226187135Y-81995737D03*
D29*
X235261319Y-80222918D03*
D22*
X233487574Y-76917963D03*
X224578157Y-81453826D03*
X228034410Y-77223659D03*
D29*
X226206895Y-84831932D03*
%TD*%
D60*
%TO.C,SW6*%
X47419732Y-85040139D03*
D61*
X45091856Y-84099617D03*
D15*
X46104053Y-84945451D03*
D62*
X47191265Y-82267580D03*
D15*
X50895301Y-83257365D03*
D63*
X51215120Y-84080543D03*
D64*
X43028274Y-80772843D03*
D15*
X43830160Y-80402862D03*
D21*
X48314232Y-79475066D03*
D65*
X43602146Y-77570556D03*
D22*
X50543141Y-73958322D03*
X45729686Y-75694932D03*
D65*
X53020850Y-81380231D03*
D22*
X52568804Y-75718637D03*
X45083087Y-74125095D03*
X54351450Y-77873324D03*
%TD*%
D44*
%TO.C,SW12*%
X122693106Y-155961010D03*
D15*
X121437758Y-156366079D03*
D43*
X120182410Y-155961010D03*
D47*
X121442655Y-153475924D03*
D45*
X117022859Y-153649511D03*
D46*
X125852657Y-153649511D03*
D15*
X117627758Y-153006079D03*
X125247758Y-153006079D03*
D48*
X126515346Y-150469387D03*
D22*
X121437758Y-144516079D03*
X117625346Y-147929387D03*
X126435346Y-146719387D03*
D21*
X121437758Y-150466079D03*
D22*
X116437758Y-146716080D03*
D48*
X116355346Y-150465426D03*
D22*
X123975346Y-145389387D03*
%TD*%
D15*
%TO.C,SW1*%
X60339102Y-49712465D03*
D60*
X61654781Y-49807153D03*
D61*
X59326905Y-48866631D03*
D15*
X58065209Y-45169876D03*
D62*
X61426314Y-47034594D03*
D63*
X65450169Y-48847557D03*
D64*
X57263323Y-45539857D03*
D15*
X65130350Y-48024379D03*
D65*
X57837195Y-42337570D03*
X67255899Y-46147245D03*
D22*
X59318136Y-38892109D03*
X68586499Y-42640338D03*
D21*
X62549281Y-44242080D03*
D22*
X64778190Y-38725336D03*
X66803853Y-40485651D03*
X59964735Y-40461946D03*
%TD*%
D37*
%TO.C,SW11*%
X78060106Y-120411243D03*
D15*
X76757686Y-120202245D03*
D38*
X75823061Y-119271411D03*
D15*
X74888359Y-115478759D03*
D39*
X81924686Y-119786087D03*
D40*
X78074153Y-117629321D03*
D15*
X81677829Y-118938167D03*
D41*
X74057278Y-115777443D03*
D42*
X83958892Y-117253431D03*
D22*
X82137473Y-109643818D03*
X76683661Y-109334081D03*
D21*
X79436230Y-114945307D03*
D22*
X84002007Y-111573982D03*
X77190980Y-110954299D03*
D42*
X74908064Y-112637358D03*
D22*
X85590076Y-113875837D03*
%TD*%
D25*
%TO.C,SW19*%
X197234247Y-98625352D03*
D15*
X196299621Y-99556186D03*
D24*
X194997201Y-99765184D03*
D27*
X194991882Y-96978816D03*
D15*
X198168948Y-94832700D03*
X191379478Y-98292108D03*
D26*
X191132622Y-99140028D03*
D28*
X199000029Y-95131384D03*
D22*
X190919834Y-88997759D03*
D29*
X198146743Y-91997018D03*
D21*
X193621077Y-94299248D03*
D22*
X193577315Y-88623841D03*
D29*
X189092319Y-96606032D03*
D22*
X187463581Y-93227926D03*
X189072559Y-93769837D03*
X196372998Y-88692063D03*
%TD*%
D17*
%TO.C,SW3*%
X37147868Y-51955540D03*
D15*
X35830456Y-52021898D03*
D16*
X34722723Y-51305725D03*
D19*
X32269090Y-48255235D03*
D15*
X40380265Y-49762488D03*
D18*
X40798020Y-50540554D03*
D20*
X36583213Y-49231490D03*
D15*
X33019910Y-47790287D03*
D21*
X37357488Y-46322936D03*
D22*
X41122554Y-42076004D03*
D23*
X32448424Y-45006880D03*
X42261205Y-47640308D03*
D22*
X34331525Y-42885955D03*
X33498430Y-41406620D03*
X43154503Y-43997380D03*
X38897461Y-40575677D03*
%TD*%
D37*
%TO.C,SW10*%
X67467501Y-87988024D03*
D15*
X66165081Y-87779026D03*
D38*
X65230456Y-86848192D03*
D15*
X71085224Y-86514948D03*
X64295754Y-83055540D03*
D39*
X71332081Y-87362868D03*
D40*
X67481548Y-85206102D03*
D41*
X63464673Y-83354224D03*
D42*
X64315459Y-80214139D03*
D21*
X68843625Y-82522088D03*
D22*
X73409402Y-79150763D03*
X71544868Y-77220599D03*
D42*
X73366287Y-84830212D03*
D22*
X74997471Y-81452618D03*
X66091056Y-76910862D03*
X66598375Y-78531080D03*
%TD*%
D49*
%TO.C,SW32*%
X240252723Y-48870460D03*
D50*
X237924847Y-49810982D03*
D15*
X239240526Y-49716294D03*
D53*
X238162396Y-47034754D03*
D15*
X234449277Y-48028207D03*
D51*
X234129459Y-48851386D03*
D15*
X241514418Y-45173705D03*
D52*
X242316304Y-45543686D03*
D22*
X230989654Y-42642004D03*
X237481395Y-38588285D03*
X234801438Y-38729165D03*
X232545279Y-43322084D03*
D54*
X232317772Y-46149209D03*
X241739444Y-42346879D03*
D22*
X240260495Y-38899908D03*
D21*
X237030347Y-44245909D03*
%TD*%
D13*
%TO.C,PAD1*%
X193130000Y-52352000D03*
X192130000Y-50619949D03*
X191130000Y-48887898D03*
%TD*%
D37*
%TO.C,SW9*%
X91441435Y-83723522D03*
D38*
X89204390Y-82583690D03*
D15*
X90139015Y-83514524D03*
X88269688Y-78791038D03*
D39*
X95306015Y-83098366D03*
D41*
X87438607Y-79089722D03*
D40*
X91455482Y-80941600D03*
D15*
X95059158Y-82250446D03*
D22*
X97383336Y-74886261D03*
X95518802Y-72956097D03*
X90064990Y-72646360D03*
D42*
X97340221Y-80565710D03*
D22*
X90572309Y-74266578D03*
D21*
X92817559Y-78257586D03*
D42*
X88289393Y-75949637D03*
D22*
X98971405Y-77188116D03*
%TD*%
D37*
%TO.C,SW13*%
X113418857Y-82912091D03*
D38*
X111181812Y-81772259D03*
D15*
X112116437Y-82703093D03*
X110247110Y-77979607D03*
X117036580Y-81439015D03*
D39*
X117283437Y-82286935D03*
D41*
X109416029Y-78278291D03*
D40*
X113432904Y-80130169D03*
D22*
X117496224Y-72144666D03*
D42*
X119317643Y-79754279D03*
D22*
X120948827Y-76376685D03*
X112549731Y-73455147D03*
X112042412Y-71834929D03*
X119360758Y-74074830D03*
D21*
X114794981Y-77446155D03*
D42*
X110266815Y-75138206D03*
%TD*%
D24*
%TO.C,SW18*%
X186371383Y-82836059D03*
D25*
X188608429Y-81696227D03*
D15*
X187673803Y-82627061D03*
X189543130Y-77903575D03*
X182753660Y-81362983D03*
D26*
X182506804Y-82210903D03*
D28*
X190374211Y-78202259D03*
D27*
X186366064Y-80049691D03*
D22*
X178837763Y-76298801D03*
X182294016Y-72068634D03*
X187747180Y-71762938D03*
X180446741Y-76840712D03*
D21*
X184995259Y-77370123D03*
D22*
X184951497Y-71694716D03*
D29*
X180466501Y-79676907D03*
X189520925Y-75067893D03*
%TD*%
D30*
%TO.C,H1*%
X62507345Y-93104077D03*
%TD*%
D24*
%TO.C,SW24*%
X199722986Y-66718367D03*
D15*
X201025406Y-66509369D03*
D25*
X201960032Y-65578535D03*
D27*
X199717667Y-63931999D03*
D26*
X195858407Y-66093211D03*
D15*
X196105263Y-65245291D03*
X202894733Y-61785883D03*
D28*
X203725814Y-62084567D03*
D22*
X193798344Y-60723020D03*
X198303100Y-55577024D03*
D21*
X198346862Y-61252431D03*
D29*
X193818104Y-63559215D03*
D22*
X201098783Y-55645246D03*
X192189366Y-60181109D03*
D29*
X202872528Y-58950201D03*
D22*
X195645619Y-55950942D03*
%TD*%
D15*
%TO.C,SW17*%
X140717756Y-158482770D03*
D44*
X141973104Y-158077701D03*
D43*
X139462408Y-158077701D03*
D47*
X140722653Y-155592615D03*
D45*
X136302857Y-155766202D03*
D15*
X136907756Y-155122770D03*
X144527756Y-155122770D03*
D46*
X145132655Y-155766202D03*
D22*
X145715344Y-148836078D03*
X136905344Y-150046078D03*
X143255344Y-147506078D03*
D21*
X140717756Y-152582770D03*
D48*
X145795344Y-152586078D03*
D22*
X135717756Y-148832771D03*
X140717756Y-146632770D03*
D48*
X135635344Y-152582117D03*
%TD*%
D30*
%TO.C,H7*%
X184935343Y-63132079D03*
%TD*%
D66*
%TO.C,U5*%
X163243150Y-63235892D03*
X162090014Y-60972736D03*
X160936878Y-58709579D03*
X159783742Y-56446423D03*
D67*
X158630606Y-54183266D03*
%TD*%
D68*
%TO.C,SW37*%
X184993694Y-41455392D03*
X186140847Y-43093696D03*
D69*
X187288000Y-44732000D03*
D70*
X188492511Y-46452219D03*
X183789184Y-39735173D03*
%TD*%
D24*
%TO.C,SW29*%
X223485960Y-71061963D03*
D15*
X224788380Y-70852965D03*
D25*
X225723006Y-69922131D03*
D28*
X227488788Y-66428163D03*
D26*
X219621381Y-70436807D03*
D27*
X223480641Y-68275595D03*
D15*
X226657707Y-66129479D03*
X219868237Y-69588887D03*
D29*
X226635502Y-63293797D03*
D22*
X217561318Y-65066616D03*
X219408593Y-60294538D03*
D21*
X222109836Y-65596027D03*
D22*
X224861757Y-59988842D03*
X222066074Y-59920620D03*
D29*
X217581078Y-67902811D03*
D22*
X215952340Y-64524705D03*
%TD*%
D50*
%TO.C,SW30*%
X252159896Y-85043968D03*
D49*
X254487772Y-84103446D03*
D15*
X253475575Y-84949280D03*
X255749467Y-80406691D03*
D51*
X248364508Y-84084372D03*
D52*
X256551353Y-80776672D03*
D53*
X252397445Y-82267740D03*
D15*
X248684326Y-83261193D03*
D22*
X245224703Y-77874990D03*
D54*
X255974493Y-77579865D03*
D22*
X251716444Y-73821271D03*
X246780328Y-78555070D03*
X249036487Y-73962151D03*
D21*
X251265396Y-79478895D03*
D22*
X254495544Y-74132894D03*
D54*
X246552821Y-81382195D03*
%TD*%
D60*
%TO.C,SW2*%
X54537546Y-67424054D03*
D15*
X53221867Y-67329366D03*
D61*
X52209670Y-66483532D03*
D15*
X50947974Y-62786777D03*
D62*
X54309079Y-64651495D03*
D15*
X58013115Y-65641280D03*
D63*
X58332934Y-66464458D03*
D64*
X50146088Y-63156758D03*
D65*
X60138664Y-63764146D03*
D21*
X55432046Y-61858981D03*
D22*
X52847500Y-58078847D03*
D65*
X50719960Y-59954471D03*
D22*
X59686618Y-58102552D03*
X52200901Y-56509010D03*
X57660955Y-56342237D03*
X61469264Y-60257239D03*
%TD*%
D30*
%TO.C,H5*%
X51170667Y-39497354D03*
%TD*%
D15*
%TO.C,SW20*%
X218277041Y-100367620D03*
D24*
X216974621Y-100576618D03*
D25*
X219211667Y-99436786D03*
D15*
X213356898Y-99103542D03*
D28*
X220977449Y-95942818D03*
D27*
X216969302Y-97790250D03*
D15*
X220146368Y-95644134D03*
D26*
X213110042Y-99951462D03*
D21*
X215598497Y-95110682D03*
D22*
X209441001Y-94039360D03*
X212897254Y-89809193D03*
X218350418Y-89503497D03*
X211049979Y-94581271D03*
D29*
X220124163Y-92808452D03*
D22*
X215554735Y-89435275D03*
D29*
X211069739Y-97417466D03*
%TD*%
D37*
%TO.C,SW14*%
X104793036Y-99841213D03*
D15*
X103490616Y-99632215D03*
D38*
X102555991Y-98701381D03*
D39*
X108657616Y-99216057D03*
D15*
X101621289Y-94908729D03*
D40*
X104807083Y-97059291D03*
D41*
X100790208Y-95207413D03*
D15*
X108410759Y-98368137D03*
D22*
X103416591Y-88764051D03*
X108870403Y-89073788D03*
X103923910Y-90384269D03*
X112323006Y-93305807D03*
D21*
X106169160Y-94375277D03*
D42*
X110691822Y-96683401D03*
X101640994Y-92067328D03*
D22*
X110734937Y-91003952D03*
%TD*%
D30*
%TO.C,H4*%
X236965997Y-93358077D03*
%TD*%
D71*
%TO.C,U1*%
X112288299Y-51186220D03*
X114394055Y-52606570D03*
X116499810Y-54026920D03*
X118605565Y-55447270D03*
X120711321Y-56867620D03*
X122817076Y-58287970D03*
X124922832Y-59708320D03*
X127028587Y-61128670D03*
X129134343Y-62549020D03*
X131240098Y-63969369D03*
X133345854Y-65389719D03*
X135451609Y-66810069D03*
X143962525Y-54192118D03*
X141856769Y-52771768D03*
X139751014Y-51351418D03*
X137645259Y-49931068D03*
X135539503Y-48510718D03*
X133433748Y-47090368D03*
X131327992Y-45670018D03*
X129222237Y-44249668D03*
X127116481Y-42829318D03*
X125010726Y-41408968D03*
X122904971Y-39988618D03*
X120799215Y-38568268D03*
%TD*%
D72*
%TO.C,U4*%
X144493347Y-93532077D03*
X144493347Y-95312077D03*
X144493347Y-97092077D03*
X144493347Y-98872077D03*
X144493347Y-100652077D03*
X144493347Y-102432077D03*
X144493347Y-104212077D03*
X144493347Y-105992077D03*
X155193347Y-105102077D03*
X155193347Y-103322077D03*
X155193347Y-101542077D03*
X155193347Y-99762077D03*
X155193347Y-97982077D03*
X155193347Y-96202077D03*
X155193347Y-94422077D03*
D73*
X155193347Y-92642077D03*
%TD*%
M02*
