%TF.GenerationSoftware,KiCad,Pcbnew,(6.0.4-0)*%
%TF.CreationDate,2022-04-27T14:09:06+02:00*%
%TF.ProjectId,duck,6475636b-2e6b-4696-9361-645f70636258,v1.0.0*%
%TF.SameCoordinates,Original*%
%TF.FileFunction,Copper,L1,Top*%
%TF.FilePolarity,Positive*%
%FSLAX46Y46*%
G04 Gerber Fmt 4.6, Leading zero omitted, Abs format (unit mm)*
G04 Created by KiCad (PCBNEW (6.0.4-0)) date 2022-04-27 14:09:06*
%MOMM*%
%LPD*%
G01*
G04 APERTURE LIST*
G04 Aperture macros list*
%AMRoundRect*
0 Rectangle with rounded corners*
0 $1 Rounding radius*
0 $2 $3 $4 $5 $6 $7 $8 $9 X,Y pos of 4 corners*
0 Add a 4 corners polygon primitive as box body*
4,1,4,$2,$3,$4,$5,$6,$7,$8,$9,$2,$3,0*
0 Add four circle primitives for the rounded corners*
1,1,$1+$1,$2,$3*
1,1,$1+$1,$4,$5*
1,1,$1+$1,$6,$7*
1,1,$1+$1,$8,$9*
0 Add four rect primitives between the rounded corners*
20,1,$1+$1,$2,$3,$4,$5,0*
20,1,$1+$1,$4,$5,$6,$7,0*
20,1,$1+$1,$6,$7,$8,$9,0*
20,1,$1+$1,$8,$9,$2,$3,0*%
%AMRotRect*
0 Rectangle, with rotation*
0 The origin of the aperture is its center*
0 $1 length*
0 $2 width*
0 $3 Rotation angle, in degrees counterclockwise*
0 Add horizontal line*
21,1,$1,$2,0,0,$3*%
G04 Aperture macros list end*
%TA.AperFunction,SMDPad,CuDef*%
%ADD10R,0.900000X0.900000*%
%TD*%
%TA.AperFunction,SMDPad,CuDef*%
%ADD11R,1.250000X0.900000*%
%TD*%
%TA.AperFunction,ComponentPad*%
%ADD12RoundRect,0.375000X-0.375000X-0.750000X0.375000X-0.750000X0.375000X0.750000X-0.375000X0.750000X0*%
%TD*%
%TA.AperFunction,ComponentPad*%
%ADD13C,2.000000*%
%TD*%
%TA.AperFunction,SMDPad,CuDef*%
%ADD14RotRect,2.600000X2.600000X10.000000*%
%TD*%
%TA.AperFunction,ComponentPad*%
%ADD15C,2.032000*%
%TD*%
%TA.AperFunction,SMDPad,CuDef*%
%ADD16RotRect,2.600000X2.600000X5.000000*%
%TD*%
%TA.AperFunction,SMDPad,CuDef*%
%ADD17R,2.600000X2.600000*%
%TD*%
%TA.AperFunction,SMDPad,CuDef*%
%ADD18RotRect,2.600000X2.600000X330.000000*%
%TD*%
%TA.AperFunction,WasherPad*%
%ADD19C,1.000000*%
%TD*%
%TA.AperFunction,SMDPad,CuDef*%
%ADD20RotRect,2.600000X2.600000X17.000000*%
%TD*%
%TA.AperFunction,SMDPad,CuDef*%
%ADD21RotRect,2.600000X2.600000X345.000000*%
%TD*%
%TA.AperFunction,ComponentPad*%
%ADD22R,1.752600X1.752600*%
%TD*%
%TA.AperFunction,ComponentPad*%
%ADD23C,1.752600*%
%TD*%
%TA.AperFunction,ComponentPad*%
%ADD24RoundRect,0.375000X-0.375000X-0.375000X0.375000X-0.375000X0.375000X0.375000X-0.375000X0.375000X0*%
%TD*%
%TA.AperFunction,ComponentPad*%
%ADD25C,4.400000*%
%TD*%
%TA.AperFunction,ViaPad*%
%ADD26C,0.800000*%
%TD*%
%TA.AperFunction,Conductor*%
%ADD27C,0.250000*%
%TD*%
%TA.AperFunction,Conductor*%
%ADD28C,0.500000*%
%TD*%
G04 APERTURE END LIST*
D10*
%TO.P,T1,*%
%TO.N,*%
X161311087Y69616483D03*
X163511087Y77016483D03*
X163511087Y69616483D03*
X161311087Y77016483D03*
D11*
%TO.P,T1,1*%
%TO.N,Braw*%
X160336087Y71066483D03*
%TO.P,T1,2*%
%TO.N,Bplus*%
X160336087Y74066483D03*
%TO.P,T1,3*%
%TO.N,N/C*%
X160336087Y75566483D03*
%TD*%
D12*
%TO.P,PAD1,1*%
%TO.N,Braw*%
X152411087Y55816483D03*
X156411087Y55816483D03*
%TO.P,PAD1,2*%
%TO.N,Bminus*%
X154411087Y55816483D03*
%TD*%
D13*
%TO.P,B1,1*%
%TO.N,RST*%
X161911087Y56066483D03*
%TO.P,B1,2*%
%TO.N,GND*%
X161911087Y62566483D03*
%TD*%
D14*
%TO.P,S11,1*%
%TO.N,P0*%
X73579149Y111173371D03*
%TO.P,S11,2*%
%TO.N,GND*%
X62586645Y107001157D03*
%TD*%
D15*
%TO.P,S34,1*%
%TO.N,P8*%
X146198518Y40569316D03*
X154858772Y35569316D03*
%TO.P,S34,2*%
%TO.N,GND*%
X149478645Y36250663D03*
X149478645Y36250663D03*
%TD*%
D16*
%TO.P,S15,1*%
%TO.N,P18*%
X96965604Y103326961D03*
%TO.P,S15,2*%
%TO.N,GND*%
X85651298Y100128683D03*
%TD*%
D17*
%TO.P,S21,1*%
%TO.N,P16*%
X118686087Y95636017D03*
%TO.P,S21,2*%
%TO.N,GND*%
X107136087Y93436017D03*
%TD*%
D15*
%TO.P,S8,1*%
%TO.N,P3*%
X73026972Y66651093D03*
X82875050Y68387574D03*
%TO.P,S8,2*%
%TO.N,GND*%
X78315672Y65451237D03*
X78315672Y65451237D03*
%TD*%
%TO.P,S14,1*%
%TO.N,P1*%
X91053509Y75957538D03*
X101015456Y76829096D03*
%TO.P,S14,2*%
%TO.N,GND*%
X96217510Y74301308D03*
X96217510Y74301308D03*
%TD*%
%TO.P,S20,1*%
%TO.N,P14*%
X120411087Y68886017D03*
X110411087Y68886017D03*
%TO.P,S20,2*%
%TO.N,GND*%
X115411087Y66786017D03*
X115411087Y66786017D03*
%TD*%
%TO.P,S28,1*%
%TO.N,P20*%
X129377759Y84446289D03*
X139377759Y84446289D03*
%TO.P,S28,2*%
%TO.N,GND*%
X134377759Y82346289D03*
X134377759Y82346289D03*
%TD*%
%TO.P,S26,1*%
%TO.N,P19*%
X129377759Y67446289D03*
X139377759Y67446289D03*
%TO.P,S26,2*%
%TO.N,GND*%
X134377759Y65346289D03*
X134377759Y65346289D03*
%TD*%
D17*
%TO.P,S29,1*%
%TO.N,P21*%
X137652759Y111196289D03*
%TO.P,S29,2*%
%TO.N,GND*%
X126102759Y108996289D03*
%TD*%
D18*
%TO.P,S33,1*%
%TO.N,P8*%
X158239878Y44875564D03*
%TO.P,S33,2*%
%TO.N,GND*%
X147137285Y48745308D03*
%TD*%
D14*
%TO.P,S7,1*%
%TO.N,P3*%
X79483187Y77689907D03*
%TO.P,S7,2*%
%TO.N,GND*%
X68490683Y73517693D03*
%TD*%
D15*
%TO.P,S2,1*%
%TO.N,P6*%
X59359170Y44161364D03*
X68922217Y47085081D03*
%TO.P,S2,2*%
%TO.N,GND*%
X64754674Y43614983D03*
X64754674Y43614983D03*
%TD*%
D19*
%TO.P,T2,*%
%TO.N,*%
X162411087Y74816483D03*
X162411087Y71816483D03*
%TD*%
D20*
%TO.P,S1,1*%
%TO.N,P6*%
X64421967Y55904712D03*
%TO.P,S1,2*%
%TO.N,GND*%
X54019865Y50423948D03*
%TD*%
%TO.P,S5,1*%
%TO.N,P4*%
X54481329Y88419074D03*
%TO.P,S5,2*%
%TO.N,GND*%
X44079227Y82938310D03*
%TD*%
D17*
%TO.P,S27,1*%
%TO.N,P20*%
X137652759Y94196289D03*
%TO.P,S27,2*%
%TO.N,GND*%
X126102759Y91996289D03*
%TD*%
D14*
%TO.P,S9,1*%
%TO.N,P2*%
X76531168Y94431639D03*
%TO.P,S9,2*%
%TO.N,GND*%
X65538664Y90259425D03*
%TD*%
D15*
%TO.P,S16,1*%
%TO.N,P18*%
X99533808Y93764406D03*
X89571861Y92892848D03*
%TO.P,S16,2*%
%TO.N,GND*%
X94735862Y91236618D03*
X94735862Y91236618D03*
%TD*%
%TO.P,S30,1*%
%TO.N,P21*%
X139377759Y101446289D03*
X129377759Y101446289D03*
%TO.P,S30,2*%
%TO.N,GND*%
X134377759Y99346289D03*
X134377759Y99346289D03*
%TD*%
D16*
%TO.P,S13,1*%
%TO.N,P1*%
X98447252Y86391651D03*
%TO.P,S13,2*%
%TO.N,GND*%
X87132946Y83193373D03*
%TD*%
D15*
%TO.P,S24,1*%
%TO.N,P10*%
X110411087Y102886017D03*
X120411087Y102886017D03*
%TO.P,S24,2*%
%TO.N,GND*%
X115411087Y100786017D03*
X115411087Y100786017D03*
%TD*%
D16*
%TO.P,S17,1*%
%TO.N,P15*%
X95483957Y120262271D03*
%TO.P,S17,2*%
%TO.N,GND*%
X84169651Y117063993D03*
%TD*%
D15*
%TO.P,S4,1*%
%TO.N,P5*%
X54388851Y60418545D03*
X63951898Y63342262D03*
%TO.P,S4,2*%
%TO.N,GND*%
X59784355Y59872164D03*
X59784355Y59872164D03*
%TD*%
%TO.P,S10,1*%
%TO.N,P2*%
X70074953Y83392825D03*
X79923031Y85129306D03*
%TO.P,S10,2*%
%TO.N,GND*%
X75363653Y82192969D03*
X75363653Y82192969D03*
%TD*%
%TO.P,S22,1*%
%TO.N,P16*%
X110411087Y85886017D03*
X120411087Y85886017D03*
%TO.P,S22,2*%
%TO.N,GND*%
X115411087Y83786017D03*
X115411087Y83786017D03*
%TD*%
D21*
%TO.P,S31,1*%
%TO.N,P7*%
X138594426Y53938364D03*
%TO.P,S31,2*%
%TO.N,GND*%
X126868581Y54802687D03*
%TD*%
D22*
%TO.P,MCU1,1*%
%TO.N,RAW*%
X146791087Y110286483D03*
D23*
%TO.P,MCU1,2*%
%TO.N,GND*%
X146791087Y107746483D03*
%TO.P,MCU1,3*%
%TO.N,RST*%
X146791087Y105206483D03*
%TO.P,MCU1,4*%
%TO.N,VCC*%
X146791087Y102666483D03*
%TO.P,MCU1,5*%
%TO.N,P21*%
X146791087Y100126483D03*
%TO.P,MCU1,6*%
%TO.N,P20*%
X146791087Y97586483D03*
%TO.P,MCU1,7*%
%TO.N,P19*%
X146791087Y95046483D03*
%TO.P,MCU1,8*%
%TO.N,P18*%
X146791087Y92506483D03*
%TO.P,MCU1,9*%
%TO.N,P15*%
X146791087Y89966483D03*
%TO.P,MCU1,10*%
%TO.N,P14*%
X146791087Y87426483D03*
%TO.P,MCU1,11*%
%TO.N,P16*%
X146791087Y84886483D03*
%TO.P,MCU1,12*%
%TO.N,P10*%
X146791087Y82346483D03*
%TO.P,MCU1,13*%
%TO.N,P1*%
X162031087Y110286483D03*
%TO.P,MCU1,14*%
%TO.N,P0*%
X162031087Y107746483D03*
%TO.P,MCU1,15*%
%TO.N,GND*%
X162031087Y105206483D03*
%TO.P,MCU1,16*%
X162031087Y102666483D03*
%TO.P,MCU1,17*%
%TO.N,P2*%
X162031087Y100126483D03*
%TO.P,MCU1,18*%
%TO.N,P3*%
X162031087Y97586483D03*
%TO.P,MCU1,19*%
%TO.N,P4*%
X162031087Y95046483D03*
%TO.P,MCU1,20*%
%TO.N,P5*%
X162031087Y92506483D03*
%TO.P,MCU1,21*%
%TO.N,P6*%
X162031087Y89966483D03*
%TO.P,MCU1,22*%
%TO.N,P7*%
X162031087Y87426483D03*
%TO.P,MCU1,23*%
%TO.N,P8*%
X162031087Y84886483D03*
%TO.P,MCU1,24*%
%TO.N,P9*%
X162031087Y82346483D03*
D24*
%TO.P,MCU1,25*%
%TO.N,Bplus*%
X146791087Y112826483D03*
%TO.N,Bminus*%
X162031087Y112826483D03*
%TD*%
D20*
%TO.P,S3,1*%
%TO.N,P5*%
X59451648Y72161893D03*
%TO.P,S3,2*%
%TO.N,GND*%
X49049546Y66681129D03*
%TD*%
D15*
%TO.P,S32,1*%
%TO.N,P7*%
X137737163Y44074125D03*
X128077904Y46662315D03*
%TO.P,S32,2*%
%TO.N,GND*%
X132364014Y43339776D03*
X132364014Y43339776D03*
%TD*%
D25*
%TO.P,REF\u002A\u002A,1*%
%TO.N,N/C*%
X84747220Y88141427D03*
X103797220Y69091427D03*
X103797220Y107191427D03*
%TD*%
D15*
%TO.P,S12,1*%
%TO.N,P0*%
X76971012Y101871038D03*
X67122934Y100134557D03*
%TO.P,S12,2*%
%TO.N,GND*%
X72411634Y98934701D03*
X72411634Y98934701D03*
%TD*%
D17*
%TO.P,S23,1*%
%TO.N,P10*%
X118686087Y112636017D03*
%TO.P,S23,2*%
%TO.N,GND*%
X107136087Y110436017D03*
%TD*%
%TO.P,S25,1*%
%TO.N,P19*%
X137652759Y77196289D03*
%TO.P,S25,2*%
%TO.N,GND*%
X126102759Y74996289D03*
%TD*%
D15*
%TO.P,S6,1*%
%TO.N,P4*%
X49418532Y76675726D03*
X58981579Y79599443D03*
%TO.P,S6,2*%
%TO.N,GND*%
X54814036Y76129345D03*
X54814036Y76129345D03*
%TD*%
D17*
%TO.P,S19,1*%
%TO.N,P14*%
X118686087Y78636017D03*
%TO.P,S19,2*%
%TO.N,GND*%
X107136087Y76436017D03*
%TD*%
D15*
%TO.P,S18,1*%
%TO.N,P15*%
X88090214Y109828158D03*
X98052161Y110699716D03*
%TO.P,S18,2*%
%TO.N,GND*%
X93254215Y108171928D03*
X93254215Y108171928D03*
%TD*%
D26*
%TO.N,Bplus*%
X158572200Y73304400D03*
X152222200Y68605400D03*
%TD*%
D27*
%TO.N,P6*%
X96075173Y58420000D02*
X140968564Y58420000D01*
X62282887Y47085081D02*
X59359170Y44161364D01*
X156233040Y85875040D02*
X160324483Y89966483D01*
X88341409Y61014064D02*
X93481109Y61014064D01*
X77840960Y62600960D02*
X86754511Y62600960D01*
X68922217Y47085081D02*
X62282887Y47085081D01*
X156233040Y74912290D02*
X156233040Y85875040D01*
X73660000Y58420000D02*
X77840960Y62600960D01*
X73660000Y51822864D02*
X73660000Y58420000D01*
X150598649Y68050085D02*
X150598649Y69277899D01*
X68922217Y47085081D02*
X73660000Y51822864D01*
X140968564Y58420000D02*
X150598649Y68050085D01*
X86754511Y62600960D02*
X88341409Y61014064D01*
X93481109Y61014064D02*
X96075173Y58420000D01*
X64421967Y55904712D02*
X64421967Y51585331D01*
X150598649Y69277899D02*
X156233040Y74912290D01*
X64421967Y51585331D02*
X68922217Y47085081D01*
X160324483Y89966483D02*
X162031087Y89966483D01*
D28*
%TO.N,GND*%
X53878684Y58856165D02*
X49049546Y63685303D01*
X90637192Y74301308D02*
X87132946Y77805554D01*
X129405212Y65346289D02*
X126102759Y68648742D01*
X87673897Y108171928D02*
X84169651Y111676174D01*
X67206698Y97918702D02*
X62586645Y102538755D01*
X132364014Y43339776D02*
X129327896Y43339776D01*
X126102759Y85648742D02*
X126102759Y91996289D01*
X115411087Y66786017D02*
X109815760Y66786017D01*
X125807135Y53741241D02*
X126868581Y54802687D01*
X134377759Y82346289D02*
X129405212Y82346289D01*
X84169651Y111676174D02*
X84169651Y117063993D01*
X96217510Y74301308D02*
X90637192Y74301308D01*
X70080030Y81176970D02*
X65538664Y85718336D01*
X144424400Y39868068D02*
X144424400Y46032423D01*
X59784355Y59872164D02*
X58768356Y58856165D01*
X77299673Y64435238D02*
X73105762Y64435238D01*
X54019865Y47072135D02*
X54019865Y50423948D01*
X126102759Y102648742D02*
X126102759Y108996289D01*
X68490683Y69050317D02*
X68490683Y73517693D01*
X129327896Y43339776D02*
X125807135Y46860537D01*
X93254215Y108171928D02*
X87673897Y108171928D01*
X72411634Y98934701D02*
X71395635Y97918702D01*
X44079227Y79593373D02*
X44079227Y82938310D01*
X64754674Y43614983D02*
X63738675Y42598984D01*
X129405212Y99346289D02*
X126102759Y102648742D01*
X107136087Y103216201D02*
X107136087Y110436017D01*
X115411087Y100786017D02*
X109566271Y100786017D01*
X73105762Y64435238D02*
X68490683Y69050317D01*
X110438540Y83786017D02*
X107136087Y87088470D01*
X144424400Y46032423D02*
X147137285Y48745308D01*
X148041805Y36250663D02*
X144424400Y39868068D01*
X108153560Y68448217D02*
X108153560Y75418544D01*
X129405212Y82346289D02*
X126102759Y85648742D01*
X62586645Y102538755D02*
X62586645Y107001157D01*
X115411087Y83786017D02*
X110438540Y83786017D01*
X58493016Y42598984D02*
X54019865Y47072135D01*
X126102759Y68648742D02*
X126102759Y74996289D01*
X85651298Y94740864D02*
X85651298Y100128683D01*
X107136087Y87088470D02*
X107136087Y93436017D01*
X108153560Y76015027D02*
X107136087Y77032500D01*
X109566271Y100786017D02*
X107136087Y103216201D01*
X134377759Y65346289D02*
X129405212Y65346289D01*
X87132946Y77805554D02*
X87132946Y83193373D01*
X78315672Y65451237D02*
X77299673Y64435238D01*
X125807135Y46860537D02*
X125807135Y53741241D01*
X58768356Y58856165D02*
X53878684Y58856165D01*
X63738675Y42598984D02*
X58493016Y42598984D01*
X53798037Y75113346D02*
X48559254Y75113346D01*
X48559254Y75113346D02*
X44079227Y79593373D01*
X134377759Y99346289D02*
X129405212Y99346289D01*
X49049546Y63685303D02*
X49049546Y66681129D01*
X75363653Y82192969D02*
X74347654Y81176970D01*
X94735862Y91236618D02*
X89155544Y91236618D01*
X149478645Y36250663D02*
X148041805Y36250663D01*
X109815760Y66786017D02*
X108153560Y68448217D01*
X74347654Y81176970D02*
X70080030Y81176970D01*
X54814036Y76129345D02*
X53798037Y75113346D01*
X89155544Y91236618D02*
X85651298Y94740864D01*
X65538664Y85718336D02*
X65538664Y90259425D01*
X71395635Y97918702D02*
X67206698Y97918702D01*
D27*
%TO.N,P5*%
X155783520Y86258916D02*
X162031087Y92506483D01*
X88527606Y61463584D02*
X93667305Y61463584D01*
X69397420Y63342262D02*
X69689203Y63050480D01*
X59451648Y67842512D02*
X63951898Y63342262D01*
X155783520Y75098488D02*
X155783520Y86258916D01*
X140782366Y58869520D02*
X150149129Y68236283D01*
X63951898Y63342262D02*
X69397420Y63342262D01*
X69689203Y63050480D02*
X86940708Y63050480D01*
X63951898Y63342262D02*
X57312568Y63342262D01*
X150149129Y68236283D02*
X150149129Y69464097D01*
X57312568Y63342262D02*
X54388851Y60418545D01*
X150149129Y69464097D02*
X155783520Y75098488D01*
X86940708Y63050480D02*
X88527606Y61463584D01*
X93667305Y61463584D02*
X96261369Y58869520D01*
X96261369Y58869520D02*
X140782366Y58869520D01*
X59451648Y72161893D02*
X59451648Y67842512D01*
%TO.N,P4*%
X69875400Y63500000D02*
X87126906Y63500000D01*
X58981579Y79599443D02*
X52342249Y79599443D01*
X54481329Y88419074D02*
X54481329Y84099693D01*
X52342249Y79599443D02*
X49418532Y76675726D01*
X54481329Y84099693D02*
X58981579Y79599443D01*
X65176400Y76123800D02*
X65176400Y68199000D01*
X93853502Y61913104D02*
X96447566Y59319040D01*
X58981579Y79599443D02*
X61700757Y79599443D01*
X160146683Y95046483D02*
X162031087Y95046483D01*
X149699609Y69650295D02*
X155334000Y75284686D01*
X61700757Y79599443D02*
X65176400Y76123800D01*
X155334000Y75284686D02*
X155334000Y90233800D01*
X140596168Y59319040D02*
X149699609Y68422481D01*
X149699609Y68422481D02*
X149699609Y69650295D01*
X87126906Y63500000D02*
X88713803Y61913104D01*
X96447566Y59319040D02*
X140596168Y59319040D01*
X88713803Y61913104D02*
X93853502Y61913104D01*
X65176400Y68199000D02*
X69875400Y63500000D01*
X155334000Y90233800D02*
X160146683Y95046483D01*
%TO.N,P3*%
X88900000Y62362624D02*
X94039700Y62362624D01*
X154884480Y90439876D02*
X162031087Y97586483D01*
X94039700Y62362624D02*
X96633764Y59768560D01*
X79483187Y71779437D02*
X82875050Y68387574D01*
X149250089Y68608679D02*
X149250089Y69836493D01*
X82875050Y68387574D02*
X74763453Y68387574D01*
X79483187Y77689907D02*
X79483187Y71779437D01*
X74763453Y68387574D02*
X73026972Y66651093D01*
X82875050Y68387574D02*
X88900000Y62362624D01*
X149250089Y69836493D02*
X154884480Y75470884D01*
X154884480Y75470884D02*
X154884480Y90439876D01*
X140409970Y59768560D02*
X149250089Y68608679D01*
X96633764Y59768560D02*
X140409970Y59768560D01*
%TO.N,P2*%
X154434960Y75657082D02*
X154434960Y94490960D01*
X76531168Y88521169D02*
X79923031Y85129306D01*
X84386480Y80665857D02*
X84386480Y75353403D01*
X148800569Y70022691D02*
X154434960Y75657082D01*
X76531168Y94431639D02*
X76531168Y88521169D01*
X148800569Y68794877D02*
X148800569Y70022691D01*
X84386480Y75353403D02*
X89349520Y70390363D01*
X154434960Y94490960D02*
X160070483Y100126483D01*
X140223772Y60218080D02*
X148800569Y68794877D01*
X96819962Y60218080D02*
X140223772Y60218080D01*
X79923031Y85129306D02*
X71811434Y85129306D01*
X89349520Y70390363D02*
X89349520Y67688522D01*
X79923031Y85129306D02*
X84386480Y80665857D01*
X89349520Y67688522D02*
X96819962Y60218080D01*
X71811434Y85129306D02*
X70074953Y83392825D01*
X160070483Y100126483D02*
X162031087Y100126483D01*
%TO.N,P0*%
X68859415Y101871038D02*
X67122934Y100134557D01*
X148351049Y70208889D02*
X153985440Y75843280D01*
X84836000Y75539601D02*
X89799040Y70576560D01*
X97006160Y60667600D02*
X140037574Y60667600D01*
X73579149Y111173371D02*
X73579149Y105262901D01*
X89799040Y70576560D02*
X89799040Y67874720D01*
X81280000Y86360000D02*
X84836000Y82804000D01*
X140037574Y60667600D02*
X148351049Y68981075D01*
X76971012Y101871038D02*
X68859415Y101871038D01*
X79561162Y101871038D02*
X81280000Y100152200D01*
X84836000Y82804000D02*
X84836000Y75539601D01*
X89799040Y67874720D02*
X97006160Y60667600D01*
X153985440Y75843280D02*
X153985440Y101839240D01*
X153985440Y101839240D02*
X159892683Y107746483D01*
X76971012Y101871038D02*
X79561162Y101871038D01*
X148351049Y68981075D02*
X148351049Y70208889D01*
X159892683Y107746483D02*
X162031087Y107746483D01*
X73579149Y105262901D02*
X76971012Y101871038D01*
X81280000Y100152200D02*
X81280000Y86360000D01*
%TO.N,P1*%
X101015456Y76829096D02*
X101683852Y76160700D01*
X91925067Y76829096D02*
X91053509Y75957538D01*
X106680000Y63284724D02*
X108847604Y61117120D01*
X153535920Y76029478D02*
X153535920Y103929720D01*
X101015456Y76829096D02*
X98447252Y79397300D01*
X98447252Y79397300D02*
X98447252Y86391651D01*
X147901529Y69167273D02*
X147901529Y70395087D01*
X101683852Y76160700D02*
X103244938Y76160700D01*
X147901529Y70395087D02*
X153535920Y76029478D01*
X139851376Y61117120D02*
X147901529Y69167273D01*
X101015456Y76829096D02*
X91925067Y76829096D01*
X108847604Y61117120D02*
X139851376Y61117120D01*
X106680000Y70883508D02*
X106680000Y63284724D01*
X103244938Y74318570D02*
X106680000Y70883508D01*
X159892683Y110286483D02*
X162031087Y110286483D01*
X103244938Y76160700D02*
X103244938Y74318570D01*
X153535920Y103929720D02*
X159892683Y110286483D01*
%TO.N,P18*%
X107129520Y71069705D02*
X107129520Y63470922D01*
X99533808Y93764406D02*
X90443419Y93764406D01*
X96965604Y96332610D02*
X99533808Y93764406D01*
X104528680Y73670546D02*
X107129520Y71069705D01*
X149428517Y92506483D02*
X146791087Y92506483D01*
X147452009Y69353471D02*
X147452009Y70581285D01*
X96965604Y103326961D02*
X96965604Y96332610D01*
X153086400Y76215676D02*
X153086400Y88848600D01*
X139665178Y61566640D02*
X147452009Y69353471D01*
X109033802Y61566640D02*
X139665178Y61566640D01*
X104528680Y88769534D02*
X104528680Y73670546D01*
X153086400Y88848600D02*
X149428517Y92506483D01*
X99533808Y93764406D02*
X104528680Y88769534D01*
X90443419Y93764406D02*
X89571861Y92892848D01*
X107129520Y63470922D02*
X109033802Y61566640D01*
X147452009Y70581285D02*
X153086400Y76215676D01*
%TO.N,P15*%
X152636880Y86707320D02*
X149377717Y89966483D01*
X104978200Y73856744D02*
X107579040Y71255902D01*
X107579040Y63657120D02*
X109220000Y62016160D01*
X147002489Y70767483D02*
X152636880Y76401874D01*
X95483957Y120262271D02*
X95483957Y113267920D01*
X104978200Y100615750D02*
X104978200Y73856744D01*
X152636880Y76401874D02*
X152636880Y86707320D01*
X98052161Y107541789D02*
X104978200Y100615750D01*
X107579040Y71255902D02*
X107579040Y63657120D01*
X88961772Y110699716D02*
X88090214Y109828158D01*
X109220000Y62016160D02*
X139478980Y62016160D01*
X98052161Y110699716D02*
X88961772Y110699716D01*
X98052161Y110699716D02*
X98052161Y107541789D01*
X95483957Y113267920D02*
X98052161Y110699716D01*
X147002489Y69539669D02*
X147002489Y70767483D01*
X139478980Y62016160D02*
X147002489Y69539669D01*
X149377717Y89966483D02*
X146791087Y89966483D01*
%TO.N,P14*%
X146552969Y70953681D02*
X146552969Y69725867D01*
X121313587Y67983517D02*
X120411087Y68886017D01*
X146791087Y87426483D02*
X149072917Y87426483D01*
X146552969Y69725867D02*
X139292782Y62465680D01*
X120411087Y68886017D02*
X110411087Y68886017D01*
X152187360Y84312040D02*
X152187360Y76588072D01*
X118536566Y78486496D02*
X118536566Y70760538D01*
X152187360Y76588072D02*
X146552969Y70953681D01*
X121313587Y64106413D02*
X121313587Y67983517D01*
X118536566Y70760538D02*
X120411087Y68886017D01*
X149072917Y87426483D02*
X152187360Y84312040D01*
X118686087Y78636017D02*
X118536566Y78486496D01*
X122954320Y62465680D02*
X121313587Y64106413D01*
X139292782Y62465680D02*
X122954320Y62465680D01*
%TO.N,P16*%
X148615717Y84886483D02*
X146791087Y84886483D01*
X123654880Y66209402D02*
X126813802Y63050480D01*
X120411087Y85886017D02*
X123654880Y82642224D01*
X118536566Y87760538D02*
X120411087Y85886017D01*
X146103449Y71139879D02*
X151737840Y76774270D01*
X110411087Y85886017D02*
X120411087Y85886017D01*
X146103449Y69912065D02*
X146103449Y71139879D01*
X151737840Y81764360D02*
X148615717Y84886483D01*
X118536566Y95486496D02*
X118536566Y87760538D01*
X123654880Y82642224D02*
X123654880Y66209402D01*
X139241864Y63050480D02*
X146103449Y69912065D01*
X151737840Y76774270D02*
X151737840Y81764360D01*
X126813802Y63050480D02*
X139241864Y63050480D01*
X118686087Y95636017D02*
X118536566Y95486496D01*
%TO.N,P10*%
X118536566Y112486496D02*
X118536566Y104760538D01*
X139055666Y63500000D02*
X145653929Y70098263D01*
X127000000Y63500000D02*
X139055666Y63500000D01*
X151288320Y79521480D02*
X148463317Y82346483D01*
X124104400Y99192704D02*
X124104400Y66395600D01*
X124104400Y66395600D02*
X127000000Y63500000D01*
X145653929Y71326077D02*
X151288320Y76960468D01*
X120411087Y102886017D02*
X110411087Y102886017D01*
X118686087Y112636017D02*
X118536566Y112486496D01*
X148463317Y82346483D02*
X146791087Y82346483D01*
X151288320Y76960468D02*
X151288320Y79521480D01*
X145653929Y70098263D02*
X145653929Y71326077D01*
X120411087Y102886017D02*
X124104400Y99192704D01*
X118536566Y104760538D02*
X120411087Y102886017D01*
%TO.N,P19*%
X144746866Y95046483D02*
X146791087Y95046483D01*
X142714672Y93014289D02*
X144746866Y95046483D01*
X139377759Y67446289D02*
X129377759Y67446289D01*
X142714672Y70783202D02*
X142714672Y93014289D01*
X137503238Y77046768D02*
X137652759Y77196289D01*
X137503238Y69320810D02*
X137503238Y77046768D01*
X139377759Y67446289D02*
X142714672Y70783202D01*
X139377759Y67446289D02*
X137503238Y69320810D01*
%TO.N,P20*%
X141252280Y86320810D02*
X141252280Y92962014D01*
X137503238Y86320810D02*
X137503238Y94046768D01*
X141252280Y92962014D02*
X145876749Y97586483D01*
X139377759Y84446289D02*
X137503238Y86320810D01*
X137503238Y94046768D02*
X137652759Y94196289D01*
X145876749Y97586483D02*
X146791087Y97586483D01*
X129377759Y84446289D02*
X139377759Y84446289D01*
X139377759Y84446289D02*
X141252280Y86320810D01*
%TO.N,P21*%
X139377759Y101446289D02*
X143367759Y101446289D01*
X146194604Y100126483D02*
X146791087Y100126483D01*
X144687565Y100126483D02*
X146791087Y100126483D01*
X137503238Y103320810D02*
X137503238Y111046768D01*
X143367759Y101446289D02*
X144687565Y100126483D01*
X137503238Y111046768D02*
X137652759Y111196289D01*
X139377759Y101446289D02*
X137503238Y103320810D01*
X129377759Y101446289D02*
X128961789Y101446289D01*
X129377759Y101446289D02*
X139377759Y101446289D01*
X128961789Y101446289D02*
X128846272Y101561806D01*
%TO.N,P7*%
X142240000Y59055718D02*
X151048169Y67863887D01*
X156682560Y83936960D02*
X160172083Y87426483D01*
X135148973Y46662315D02*
X128077904Y46662315D01*
X137737163Y44074125D02*
X135148973Y46662315D01*
X138594426Y53938364D02*
X137737163Y53081101D01*
X151048169Y67863887D02*
X151048169Y69091701D01*
X151048169Y69091701D02*
X156682560Y74726092D01*
X138594426Y53938364D02*
X142240000Y57583938D01*
X160172083Y87426483D02*
X162031087Y87426483D01*
X142240000Y57583938D02*
X142240000Y59055718D01*
X137737163Y53081101D02*
X137737163Y44074125D01*
X156682560Y74726092D02*
X156682560Y83936960D01*
%TO.N,P8*%
X144780000Y55778400D02*
X144780000Y60960000D01*
X160146683Y77554497D02*
X160146683Y83002079D01*
X151497689Y68905503D02*
X160146683Y77554497D01*
X151497689Y67677689D02*
X151497689Y68905503D01*
X160146683Y83002079D02*
X162031087Y84886483D01*
X144780000Y60960000D02*
X151497689Y67677689D01*
X151968200Y48590200D02*
X144780000Y55778400D01*
X149858772Y40569316D02*
X146198518Y40569316D01*
X158239878Y44875564D02*
X154858772Y41494458D01*
X158239878Y46376675D02*
X156026353Y48590200D01*
X154858772Y35569316D02*
X149858772Y40569316D01*
X154858772Y41494458D02*
X154858772Y35569316D01*
X156026353Y48590200D02*
X151968200Y48590200D01*
X158239878Y44875564D02*
X158239878Y46376675D01*
D28*
%TO.N,Bplus*%
X159334283Y74066483D02*
X158572200Y73304400D01*
X160336087Y74066483D02*
X159334283Y74066483D01*
X152222200Y68605400D02*
X156921200Y73304400D01*
X156921200Y73304400D02*
X158572200Y73304400D01*
%TO.N,Braw*%
X152411087Y55816483D02*
X152411087Y63155487D01*
X156411087Y67155487D02*
X156411087Y55816483D01*
X157810200Y68554600D02*
X156411087Y67155487D01*
X152411087Y63155487D02*
X156411087Y67155487D01*
X157824204Y68554600D02*
X157810200Y68554600D01*
X160336087Y71066483D02*
X157824204Y68554600D01*
%TD*%
M02*
