M48
; DRILL file {KiCad (6.0.4-0)} date 2022 April 26, Tuesday 17:08:09
; FORMAT={-:-/ absolute / metric / decimal}
; #@! TF.CreationDate,2022-04-26T17:08:09+02:00
; #@! TF.GenerationSoftware,Kicad,Pcbnew,(6.0.4-0)
; #@! TF.FileFunction,NonPlated,1,2,NPTH
FMAT,2
METRIC
; #@! TA.AperFunction,NonPlated,NPTH,ComponentDrill
T1C0.900
; #@! TA.AperFunction,NonPlated,NPTH,ComponentDrill
T2C1.702
; #@! TA.AperFunction,NonPlated,NPTH,ComponentDrill
T3C3.000
; #@! TA.AperFunction,NonPlated,NPTH,ComponentDrill
T4C3.429
%
G90
G05
T1
X162.411Y74.816
X162.411Y71.816
T2
X47.829Y80.163
X47.829Y80.163
X52.8Y63.906
X52.8Y63.906
X57.77Y47.649
X57.77Y47.649
X58.349Y83.38
X58.349Y83.38
X63.319Y67.122
X63.319Y67.122
X65.971Y103.79
X65.971Y103.79
X68.289Y50.865
X68.289Y50.865
X68.923Y87.048
X68.923Y87.048
X71.875Y70.307
X71.875Y70.307
X76.804Y105.7
X76.804Y105.7
X79.756Y88.958
X79.756Y88.958
X82.708Y72.217
X82.708Y72.217
X87.261Y113.57
X87.261Y113.57
X88.743Y96.635
X88.743Y96.635
X90.224Y79.7
X90.224Y79.7
X98.219Y114.529
X98.219Y114.529
X99.701Y97.594
X99.701Y97.594
X101.182Y80.658
X101.182Y80.658
X109.911Y106.686
X109.911Y106.686
X109.911Y89.686
X109.911Y89.686
X109.911Y72.686
X109.911Y72.686
X120.911Y106.686
X120.911Y106.686
X120.911Y89.686
X120.911Y89.686
X120.911Y72.686
X120.911Y72.686
X128.578Y50.462
X128.578Y50.462
X128.878Y105.246
X128.878Y105.246
X128.878Y88.246
X128.878Y88.246
X128.878Y71.246
X128.878Y71.246
X139.204Y47.615
X139.204Y47.615
X139.878Y105.246
X139.878Y105.246
X139.878Y88.246
X139.878Y88.246
X139.878Y71.246
X139.878Y71.246
X147.666Y44.11
X147.666Y44.11
X157.192Y38.61
X157.192Y38.61
T3
X47.211Y83.896
X51.349Y87.462
X51.349Y87.462
X52.181Y67.639
X56.32Y71.204
X56.32Y71.204
X56.774Y86.82
X57.152Y51.381
X61.29Y54.947
X61.29Y54.947
X61.744Y70.562
X65.812Y107.57
X66.715Y54.305
X68.764Y90.828
X70.354Y110.605
X70.354Y110.605
X71.716Y74.086
X73.306Y93.863
X73.306Y93.863
X75.66Y109.306
X76.258Y77.121
X76.258Y77.121
X78.612Y92.565
X81.564Y75.823
X87.432Y117.349
X88.914Y100.414
X90.395Y83.479
X92.221Y119.977
X92.221Y119.977
X93.703Y103.042
X93.703Y103.042
X95.185Y86.106
X95.185Y86.106
X97.394Y118.221
X98.876Y101.286
X100.357Y84.35
X110.411Y110.436
X110.411Y93.436
X110.411Y76.436
X115.411Y112.636
X115.411Y112.636
X115.411Y95.636
X115.411Y95.636
X115.411Y78.636
X115.411Y78.636
X120.411Y110.436
X120.411Y93.436
X120.411Y76.436
X129.378Y108.996
X129.378Y91.996
X129.378Y74.996
X130.032Y53.955
X134.378Y111.196
X134.378Y111.196
X134.378Y94.196
X134.378Y94.196
X134.378Y77.196
X134.378Y77.196
X135.431Y54.786
X135.431Y54.786
X139.378Y108.996
X139.378Y91.996
X139.378Y74.996
X139.691Y51.367
X149.974Y47.108
X155.404Y46.513
X155.404Y46.513
X158.634Y42.108
T4
X53.089Y81.772
X53.089Y81.772
X58.059Y65.514
X58.059Y65.514
X63.03Y49.257
X63.03Y49.257
X71.387Y104.745
X71.387Y104.745
X74.339Y88.003
X74.339Y88.003
X77.291Y71.262
X77.291Y71.262
X92.74Y114.049
X92.74Y114.049
X94.222Y97.114
X94.222Y97.114
X95.703Y80.179
X95.703Y80.179
X115.411Y106.686
X115.411Y106.686
X115.411Y89.686
X115.411Y89.686
X115.411Y72.686
X115.411Y72.686
X133.891Y49.039
X133.891Y49.039
X134.378Y105.246
X134.378Y105.246
X134.378Y88.246
X134.378Y88.246
X134.378Y71.246
X134.378Y71.246
X152.429Y41.36
X152.429Y41.36
T0
M30
