%TF.GenerationSoftware,KiCad,Pcbnew,(6.0.4-0)*%
%TF.CreationDate,2022-04-26T17:06:57+02:00*%
%TF.ProjectId,rae_with_puck,7261655f-7769-4746-985f-7075636b2e6b,v1.0.0*%
%TF.SameCoordinates,Original*%
%TF.FileFunction,Legend,Bot*%
%TF.FilePolarity,Positive*%
%FSLAX46Y46*%
G04 Gerber Fmt 4.6, Leading zero omitted, Abs format (unit mm)*
G04 Created by KiCad (PCBNEW (6.0.4-0)) date 2022-04-26 17:06:57*
%MOMM*%
%LPD*%
G01*
G04 APERTURE LIST*
G04 Aperture macros list*
%AMRoundRect*
0 Rectangle with rounded corners*
0 $1 Rounding radius*
0 $2 $3 $4 $5 $6 $7 $8 $9 X,Y pos of 4 corners*
0 Add a 4 corners polygon primitive as box body*
4,1,4,$2,$3,$4,$5,$6,$7,$8,$9,$2,$3,0*
0 Add four circle primitives for the rounded corners*
1,1,$1+$1,$2,$3*
1,1,$1+$1,$4,$5*
1,1,$1+$1,$6,$7*
1,1,$1+$1,$8,$9*
0 Add four rect primitives between the rounded corners*
20,1,$1+$1,$2,$3,$4,$5,0*
20,1,$1+$1,$4,$5,$6,$7,0*
20,1,$1+$1,$6,$7,$8,$9,0*
20,1,$1+$1,$8,$9,$2,$3,0*%
G04 Aperture macros list end*
%ADD10C,0.150000*%
%ADD11C,0.100000*%
%ADD12C,0.200000*%
%ADD13RoundRect,0.375000X-0.375000X-0.750000X0.375000X-0.750000X0.375000X0.750000X-0.375000X0.750000X0*%
%ADD14R,1.752600X1.752600*%
%ADD15C,1.752600*%
%ADD16RoundRect,0.375000X-0.375000X-0.375000X0.375000X-0.375000X0.375000X0.375000X-0.375000X0.375000X0*%
%ADD17RoundRect,0.425000X-0.375000X-0.750000X0.375000X-0.750000X0.375000X0.750000X-0.375000X0.750000X0*%
%ADD18C,2.100000*%
%ADD19C,3.100000*%
%ADD20C,1.801800*%
%ADD21C,3.529000*%
%ADD22RoundRect,0.050000X-1.054507X-1.505993X1.505993X-1.054507X1.054507X1.505993X-1.505993X1.054507X0*%
%ADD23C,2.132000*%
%ADD24RoundRect,0.050000X-1.181751X-1.408356X1.408356X-1.181751X1.181751X1.408356X-1.408356X1.181751X0*%
%ADD25RoundRect,0.050000X-1.300000X-1.300000X1.300000X-1.300000X1.300000X1.300000X-1.300000X1.300000X0*%
%ADD26RoundRect,0.050000X-1.775833X-0.475833X0.475833X-1.775833X1.775833X0.475833X-0.475833X1.775833X0*%
%ADD27RoundRect,0.050000X-0.450000X0.450000X-0.450000X-0.450000X0.450000X-0.450000X0.450000X0.450000X0*%
%ADD28C,1.100000*%
%ADD29RoundRect,0.050000X-0.625000X0.450000X-0.625000X-0.450000X0.625000X-0.450000X0.625000X0.450000X0*%
%ADD30RoundRect,0.050000X-0.863113X-1.623279X1.623279X-0.863113X0.863113X1.623279X-1.623279X0.863113X0*%
%ADD31RoundRect,0.050000X-1.592168X-0.919239X0.919239X-1.592168X1.592168X0.919239X-0.919239X1.592168X0*%
%ADD32RoundRect,0.050000X-0.876300X0.876300X-0.876300X-0.876300X0.876300X-0.876300X0.876300X0.876300X0*%
%ADD33C,1.852600*%
%ADD34RoundRect,0.425000X-0.375000X-0.375000X0.375000X-0.375000X0.375000X0.375000X-0.375000X0.375000X0*%
%ADD35C,4.500000*%
G04 APERTURE END LIST*
D10*
%TO.C,PAD1*%
X156849182Y54073625D02*
X156734896Y54035530D01*
X156696801Y53997435D01*
X156658706Y53921244D01*
X156658706Y53806959D01*
X156696801Y53730768D01*
X156734896Y53692673D01*
X156811087Y53654578D01*
X157115848Y53654578D01*
X157115848Y54454578D01*
X156849182Y54454578D01*
X156772991Y54416483D01*
X156734896Y54378387D01*
X156696801Y54302197D01*
X156696801Y54226006D01*
X156734896Y54149816D01*
X156772991Y54111721D01*
X156849182Y54073625D01*
X157115848Y54073625D01*
X156315848Y53959340D02*
X155706325Y53959340D01*
X156011087Y53654578D02*
X156011087Y54264102D01*
X152849182Y54073625D02*
X152734896Y54035530D01*
X152696801Y53997435D01*
X152658706Y53921244D01*
X152658706Y53806959D01*
X152696801Y53730768D01*
X152734896Y53692673D01*
X152811087Y53654578D01*
X153115848Y53654578D01*
X153115848Y54454578D01*
X152849182Y54454578D01*
X152772991Y54416483D01*
X152734896Y54378387D01*
X152696801Y54302197D01*
X152696801Y54226006D01*
X152734896Y54149816D01*
X152772991Y54111721D01*
X152849182Y54073625D01*
X153115848Y54073625D01*
X152315848Y53959340D02*
X151706325Y53959340D01*
X152011087Y53654578D02*
X152011087Y54264102D01*
X154849182Y54073625D02*
X154734896Y54035530D01*
X154696801Y53997435D01*
X154658706Y53921244D01*
X154658706Y53806959D01*
X154696801Y53730768D01*
X154734896Y53692673D01*
X154811087Y53654578D01*
X155115848Y53654578D01*
X155115848Y54454578D01*
X154849182Y54454578D01*
X154772991Y54416483D01*
X154734896Y54378387D01*
X154696801Y54302197D01*
X154696801Y54226006D01*
X154734896Y54149816D01*
X154772991Y54111721D01*
X154849182Y54073625D01*
X155115848Y54073625D01*
X154315848Y53959340D02*
X153706325Y53959340D01*
%TO.C,B1*%
X162363467Y60641863D02*
X161887277Y60975197D01*
X162363467Y61213292D02*
X161363467Y61213292D01*
X161363467Y60832340D01*
X161411087Y60737102D01*
X161458706Y60689483D01*
X161553944Y60641863D01*
X161696801Y60641863D01*
X161792039Y60689483D01*
X161839658Y60737102D01*
X161887277Y60832340D01*
X161887277Y61213292D01*
X161839658Y60213292D02*
X161839658Y59879959D01*
X162363467Y59737102D02*
X162363467Y60213292D01*
X161363467Y60213292D01*
X161363467Y59737102D01*
X162315848Y59356149D02*
X162363467Y59213292D01*
X162363467Y58975197D01*
X162315848Y58879959D01*
X162268229Y58832340D01*
X162172991Y58784721D01*
X162077753Y58784721D01*
X161982515Y58832340D01*
X161934896Y58879959D01*
X161887277Y58975197D01*
X161839658Y59165673D01*
X161792039Y59260911D01*
X161744420Y59308530D01*
X161649182Y59356149D01*
X161553944Y59356149D01*
X161458706Y59308530D01*
X161411087Y59260911D01*
X161363467Y59165673D01*
X161363467Y58927578D01*
X161411087Y58784721D01*
X161839658Y58356149D02*
X161839658Y58022816D01*
X162363467Y57879959D02*
X162363467Y58356149D01*
X161363467Y58356149D01*
X161363467Y57879959D01*
X161363467Y57594244D02*
X161363467Y57022816D01*
X162363467Y57308530D02*
X161363467Y57308530D01*
D11*
%TO.C,REF\u002A\u002A*%
X103392434Y83608927D02*
X104392434Y83608927D01*
X103440053Y83608927D02*
X103392434Y83513688D01*
X103392434Y83323212D01*
X103440053Y83227974D01*
X103487672Y83180355D01*
X103582910Y83132736D01*
X103868624Y83132736D01*
X103963862Y83180355D01*
X104011481Y83227974D01*
X104059100Y83323212D01*
X104059100Y83513688D01*
X104011481Y83608927D01*
X103392434Y82275593D02*
X104059100Y82275593D01*
X103392434Y82704165D02*
X103916243Y82704165D01*
X104011481Y82656546D01*
X104059100Y82561307D01*
X104059100Y82418450D01*
X104011481Y82323212D01*
X103963862Y82275593D01*
X104011481Y81370831D02*
X104059100Y81466069D01*
X104059100Y81656546D01*
X104011481Y81751784D01*
X103963862Y81799403D01*
X103868624Y81847022D01*
X103582910Y81847022D01*
X103487672Y81799403D01*
X103440053Y81751784D01*
X103392434Y81656546D01*
X103392434Y81466069D01*
X103440053Y81370831D01*
X104059100Y80942260D02*
X103059100Y80942260D01*
X103678148Y80847022D02*
X104059100Y80561307D01*
X103392434Y80561307D02*
X103773386Y80942260D01*
X103328934Y97562927D02*
X103328934Y97181974D01*
X102995600Y97420069D02*
X103852743Y97420069D01*
X103947981Y97372450D01*
X103995600Y97277212D01*
X103995600Y97181974D01*
X103947981Y96467688D02*
X103995600Y96562927D01*
X103995600Y96753403D01*
X103947981Y96848641D01*
X103852743Y96896260D01*
X103471791Y96896260D01*
X103376553Y96848641D01*
X103328934Y96753403D01*
X103328934Y96562927D01*
X103376553Y96467688D01*
X103471791Y96420069D01*
X103567029Y96420069D01*
X103662267Y96896260D01*
X103328934Y95991498D02*
X103995600Y95991498D01*
X103424172Y95991498D02*
X103376553Y95943879D01*
X103328934Y95848641D01*
X103328934Y95705784D01*
X103376553Y95610546D01*
X103471791Y95562927D01*
X103995600Y95562927D01*
X103328934Y95229593D02*
X103328934Y94848641D01*
X102995600Y95086736D02*
X103852743Y95086736D01*
X103947981Y95039117D01*
X103995600Y94943879D01*
X103995600Y94848641D01*
X103995600Y94515307D02*
X103328934Y94515307D01*
X102995600Y94515307D02*
X103043220Y94562927D01*
X103090839Y94515307D01*
X103043220Y94467688D01*
X102995600Y94515307D01*
X103090839Y94515307D01*
X103328934Y94039117D02*
X103995600Y94039117D01*
X103424172Y94039117D02*
X103376553Y93991498D01*
X103328934Y93896260D01*
X103328934Y93753403D01*
X103376553Y93658165D01*
X103471791Y93610546D01*
X103995600Y93610546D01*
X103328934Y92705784D02*
X104138458Y92705784D01*
X104233696Y92753403D01*
X104281315Y92801022D01*
X104328934Y92896260D01*
X104328934Y93039117D01*
X104281315Y93134355D01*
X103947981Y92705784D02*
X103995600Y92801022D01*
X103995600Y92991498D01*
X103947981Y93086736D01*
X103900362Y93134355D01*
X103805124Y93181974D01*
X103519410Y93181974D01*
X103424172Y93134355D01*
X103376553Y93086736D01*
X103328934Y92991498D01*
X103328934Y92801022D01*
X103376553Y92705784D01*
D10*
%TO.C,B1*%
X160161087Y62316483D02*
X160411087Y62316483D01*
X160161087Y56316483D02*
X160161087Y62316483D01*
X163661087Y56316483D02*
X163411087Y56316483D01*
X163411087Y62316483D02*
X163661087Y62316483D01*
X163661087Y62316483D02*
X163661087Y56316483D01*
X160411087Y56316483D02*
X160161087Y56316483D01*
%TO.C,T2*%
X163761087Y71366483D02*
X163761087Y75266483D01*
X160911087Y70016483D02*
X163761087Y70016483D01*
X163761087Y76616483D02*
X160911087Y76616483D01*
X160911087Y76616483D02*
X160911087Y70016483D01*
X163761087Y73316483D02*
X163761087Y76616483D01*
X163761087Y73316483D02*
X163761087Y70016483D01*
D12*
%TO.C,REF\u002A\u002A*%
X103797220Y98936427D02*
G75*
G03*
X102668835Y98877291I-6J-10794921D01*
G01*
X124117220Y90998927D02*
G75*
G03*
X123083354Y95149475I-20320000J-2857500D01*
G01*
X100939720Y108461428D02*
G75*
G03*
X96789174Y107427562I2857500J-20320001D01*
G01*
X83477219Y85283927D02*
G75*
G03*
X84511085Y81133381I20320001J2857500D01*
G01*
X106654720Y67821427D02*
G75*
G03*
X110805265Y68855292I-2857506J20320019D01*
G01*
X96789175Y68855292D02*
G75*
G03*
X100939720Y67821427I7008045J19286135D01*
G01*
X123083354Y81133379D02*
G75*
G03*
X124117220Y85283927I-19286134J7008048D01*
G01*
X110805269Y107427560D02*
G75*
G03*
X106654720Y108461427I-7008049J-19286133D01*
G01*
X102668835Y77405563D02*
G75*
G03*
X103797220Y77346427I1128379J10735785D01*
G01*
X104925605Y98877290D02*
G75*
G03*
X103797220Y98936427I-1128385J-10735763D01*
G01*
X84511085Y95149471D02*
G75*
G03*
X83477220Y90998927I19286255J-7008074D01*
G01*
X103797220Y77346426D02*
G75*
G03*
X104925605Y77405563I0J10794901D01*
G01*
%TD*%
D13*
%TO.C,PAD1*%
X152411087Y55816483D03*
X156411087Y55816483D03*
X154411087Y55816483D03*
%TD*%
D14*
%TO.C,MCU1*%
X146791087Y110286483D03*
D15*
X146791087Y107746483D03*
X146791087Y105206483D03*
X146791087Y102666483D03*
X146791087Y100126483D03*
X146791087Y97586483D03*
X146791087Y95046483D03*
X146791087Y92506483D03*
X146791087Y89966483D03*
X146791087Y87426483D03*
X146791087Y84886483D03*
X146791087Y82346483D03*
X162031087Y110286483D03*
X162031087Y107746483D03*
X162031087Y105206483D03*
X162031087Y102666483D03*
X162031087Y100126483D03*
X162031087Y97586483D03*
X162031087Y95046483D03*
X162031087Y92506483D03*
X162031087Y89966483D03*
X162031087Y87426483D03*
X162031087Y84886483D03*
X162031087Y82346483D03*
D16*
X146791087Y112826483D03*
X162031087Y112826483D03*
%TD*%
%LPC*%
D17*
%TO.C,PAD1*%
X152411087Y55816483D03*
X156411087Y55816483D03*
X154411087Y55816483D03*
%TD*%
D18*
%TO.C,B1*%
X161911087Y56066483D03*
X161911087Y62566483D03*
%TD*%
D19*
%TO.C,S11*%
X75659968Y109306337D03*
X70353903Y110604673D03*
X70353903Y110604673D03*
D20*
X65970667Y103790002D03*
D19*
X65811891Y107569855D03*
D21*
X71387110Y104745067D03*
D20*
X76803553Y105700132D03*
D22*
X67128658Y110035975D03*
X78885213Y109875035D03*
%TD*%
D20*
%TO.C,S34*%
X157191785Y38610213D03*
D21*
X152428645Y41360213D03*
D20*
X147665505Y44110213D03*
D23*
X146198518Y40569316D03*
X154858772Y35569316D03*
X149478645Y36250663D03*
X149478645Y36250663D03*
%TD*%
D21*
%TO.C,S15*%
X94221643Y97114167D03*
D20*
X99700714Y97593524D03*
D19*
X98875782Y101285676D03*
X93703066Y103041525D03*
X93703066Y103041525D03*
X88913835Y100414118D03*
D20*
X88742572Y96634810D03*
D24*
X90440529Y102756090D03*
X102138320Y101571111D03*
%TD*%
D25*
%TO.C,S21*%
X123686087Y93436017D03*
X112136087Y95636017D03*
D21*
X115411087Y89686017D03*
D19*
X110411087Y93436017D03*
D20*
X120911087Y89686017D03*
D19*
X120411087Y93436017D03*
X115411087Y95636017D03*
D20*
X109911087Y89686017D03*
D19*
X115411087Y95636017D03*
%TD*%
D20*
%TO.C,S8*%
X71874705Y70306538D03*
X82707591Y72216668D03*
D21*
X77291148Y71261603D03*
D23*
X73026972Y66651093D03*
X82875050Y68387574D03*
X78315672Y65451237D03*
X78315672Y65451237D03*
%TD*%
D21*
%TO.C,S14*%
X95703291Y80178857D03*
D20*
X101182362Y80658214D03*
X90224220Y79699500D03*
D23*
X91053509Y75957538D03*
X101015456Y76829096D03*
X96217510Y74301308D03*
X96217510Y74301308D03*
%TD*%
%TO.C,S20*%
X115411087Y66786017D03*
X115411087Y66786017D03*
X110411087Y68886017D03*
X120411087Y68886017D03*
D20*
X120911087Y72686017D03*
X109911087Y72686017D03*
D21*
X115411087Y72686017D03*
%TD*%
D23*
%TO.C,S28*%
X134377759Y82346289D03*
X134377759Y82346289D03*
X139377759Y84446289D03*
X129377759Y84446289D03*
D21*
X134377759Y88246289D03*
D20*
X139877759Y88246289D03*
X128877759Y88246289D03*
%TD*%
D23*
%TO.C,S26*%
X134377759Y65346289D03*
X134377759Y65346289D03*
X139377759Y67446289D03*
X129377759Y67446289D03*
D20*
X139877759Y71246289D03*
X128877759Y71246289D03*
D21*
X134377759Y71246289D03*
%TD*%
D25*
%TO.C,S29*%
X142652759Y108996289D03*
X131102759Y111196289D03*
D20*
X128877759Y105246289D03*
D19*
X129377759Y108996289D03*
X139377759Y108996289D03*
D21*
X134377759Y105246289D03*
D20*
X139877759Y105246289D03*
D19*
X134377759Y111196289D03*
X134377759Y111196289D03*
%TD*%
D21*
%TO.C,S33*%
X152428645Y41360213D03*
D19*
X155403645Y46513064D03*
X149973518Y47107808D03*
D20*
X147665505Y44110213D03*
D19*
X155403645Y46513064D03*
X158633772Y42107808D03*
D20*
X157191785Y38610213D03*
D26*
X152567412Y48150564D03*
X161470005Y40470308D03*
%TD*%
D19*
%TO.C,S7*%
X71715929Y74086391D03*
X81564006Y75822873D03*
X76257941Y77121209D03*
D20*
X71874705Y70306538D03*
D19*
X76257941Y77121209D03*
D20*
X82707591Y72216668D03*
D21*
X77291148Y71261603D03*
D22*
X73032696Y76552511D03*
X84789251Y76391571D03*
%TD*%
D20*
%TO.C,S2*%
X57770005Y47649137D03*
D21*
X63029681Y49257181D03*
D20*
X68289357Y50865225D03*
D23*
X59359170Y44161364D03*
X68922217Y47085081D03*
X64754674Y43614983D03*
X64754674Y43614983D03*
%TD*%
D27*
%TO.C,T2*%
X163511087Y69616483D03*
X163511087Y77016483D03*
X161311087Y69616483D03*
X161311087Y77016483D03*
D28*
X162411087Y74816483D03*
X162411087Y71816483D03*
D29*
X160336087Y75566483D03*
X160336087Y72566483D03*
X160336087Y71066483D03*
%TD*%
D20*
%TO.C,S1*%
X68289357Y50865225D03*
D19*
X66714811Y54305182D03*
X61290069Y54947194D03*
X61290069Y54947194D03*
D21*
X63029681Y49257181D03*
D19*
X57151763Y51381465D03*
D20*
X57770005Y47649137D03*
D30*
X58158171Y53989677D03*
X69846709Y55262700D03*
%TD*%
D21*
%TO.C,S5*%
X53089043Y81771543D03*
D20*
X58348719Y83379587D03*
D19*
X51349431Y87461556D03*
X51349431Y87461556D03*
D20*
X47829367Y80163499D03*
D19*
X47211125Y83895827D03*
X56774173Y86819544D03*
D30*
X48217533Y86504039D03*
X59906071Y87777062D03*
%TD*%
D25*
%TO.C,S27*%
X142652759Y91996289D03*
X131102759Y94196289D03*
D20*
X128877759Y88246289D03*
D19*
X134377759Y94196289D03*
X134377759Y94196289D03*
X139377759Y91996289D03*
D21*
X134377759Y88246289D03*
D20*
X139877759Y88246289D03*
D19*
X129377759Y91996289D03*
%TD*%
%TO.C,S9*%
X68763910Y90828123D03*
D21*
X74339129Y88003335D03*
D19*
X73305922Y93862941D03*
X78611987Y92564605D03*
D20*
X68922686Y87048270D03*
D19*
X73305922Y93862941D03*
D20*
X79755572Y88958400D03*
D22*
X70080677Y93294243D03*
X81837232Y93133303D03*
%TD*%
D20*
%TO.C,S16*%
X99700714Y97593524D03*
D21*
X94221643Y97114167D03*
D20*
X88742572Y96634810D03*
D23*
X99533808Y93764406D03*
X89571861Y92892848D03*
X94735862Y91236618D03*
X94735862Y91236618D03*
%TD*%
%TO.C,S30*%
X134377759Y99346289D03*
X134377759Y99346289D03*
X129377759Y101446289D03*
X139377759Y101446289D03*
D21*
X134377759Y105246289D03*
D20*
X128877759Y105246289D03*
X139877759Y105246289D03*
%TD*%
%TO.C,S13*%
X90224220Y79699500D03*
X101182362Y80658214D03*
D21*
X95703291Y80178857D03*
D19*
X95184714Y86106215D03*
X100357430Y84350366D03*
X95184714Y86106215D03*
X90395483Y83478808D03*
D24*
X91922177Y85820780D03*
X103619968Y84635801D03*
%TD*%
D23*
%TO.C,S24*%
X115411087Y100786017D03*
X115411087Y100786017D03*
X120411087Y102886017D03*
X110411087Y102886017D03*
D21*
X115411087Y106686017D03*
D20*
X120911087Y106686017D03*
X109911087Y106686017D03*
%TD*%
%TO.C,S17*%
X87260925Y113570120D03*
D21*
X92739996Y114049477D03*
D20*
X98219067Y114528834D03*
D19*
X87432188Y117349428D03*
X97394135Y118220986D03*
X92221419Y119976835D03*
X92221419Y119976835D03*
D24*
X88958882Y119691400D03*
X100656673Y118506421D03*
%TD*%
D20*
%TO.C,S4*%
X52799686Y63906318D03*
X63319038Y67122406D03*
D21*
X58059362Y65514362D03*
D23*
X54388851Y60418545D03*
X63951898Y63342262D03*
X59784355Y59872164D03*
X59784355Y59872164D03*
%TD*%
D20*
%TO.C,S10*%
X79755572Y88958400D03*
X68922686Y87048270D03*
D21*
X74339129Y88003335D03*
D23*
X70074953Y83392825D03*
X79923031Y85129306D03*
X75363653Y82192969D03*
X75363653Y82192969D03*
%TD*%
%TO.C,S22*%
X115411087Y83786017D03*
X115411087Y83786017D03*
X120411087Y85886017D03*
X110411087Y85886017D03*
D21*
X115411087Y89686017D03*
D20*
X120911087Y89686017D03*
X109911087Y89686017D03*
%TD*%
D21*
%TO.C,S31*%
X133891046Y49038738D03*
D20*
X128578454Y50462243D03*
D19*
X135431019Y54785997D03*
X139691247Y51366865D03*
X135431019Y54785997D03*
X130031988Y53955055D03*
D20*
X139203638Y47615233D03*
D31*
X132267612Y55633629D03*
X142854654Y50519232D03*
%TD*%
D32*
%TO.C,MCU1*%
X146791087Y110286483D03*
D33*
X146791087Y107746483D03*
X146791087Y105206483D03*
X146791087Y102666483D03*
X146791087Y100126483D03*
X146791087Y97586483D03*
X146791087Y95046483D03*
X146791087Y92506483D03*
X146791087Y89966483D03*
X146791087Y87426483D03*
X146791087Y84886483D03*
X146791087Y82346483D03*
X162031087Y110286483D03*
X162031087Y107746483D03*
X162031087Y105206483D03*
X162031087Y102666483D03*
X162031087Y100126483D03*
X162031087Y97586483D03*
X162031087Y95046483D03*
X162031087Y92506483D03*
X162031087Y89966483D03*
X162031087Y87426483D03*
X162031087Y84886483D03*
X162031087Y82346483D03*
D34*
X146791087Y112826483D03*
X162031087Y112826483D03*
%TD*%
D20*
%TO.C,S3*%
X52799686Y63906318D03*
D19*
X52181444Y67638646D03*
D21*
X58059362Y65514362D03*
D19*
X61744492Y70562363D03*
X56319750Y71204375D03*
X56319750Y71204375D03*
D20*
X63319038Y67122406D03*
D30*
X53187852Y70246858D03*
X64876390Y71519881D03*
%TD*%
D20*
%TO.C,S32*%
X139203638Y47615233D03*
D21*
X133891046Y49038738D03*
D20*
X128578454Y50462243D03*
D23*
X137737163Y44074125D03*
X128077904Y46662315D03*
X132364014Y43339776D03*
X132364014Y43339776D03*
%TD*%
D35*
%TO.C,REF\u002A\u002A*%
X103797220Y107191427D03*
X103797220Y69091427D03*
X84747220Y88141427D03*
%TD*%
D21*
%TO.C,S12*%
X71387110Y104745067D03*
D20*
X65970667Y103790002D03*
X76803553Y105700132D03*
D23*
X76971012Y101871038D03*
X67122934Y100134557D03*
X72411634Y98934701D03*
X72411634Y98934701D03*
%TD*%
D25*
%TO.C,S23*%
X123686087Y110436017D03*
X112136087Y112636017D03*
D20*
X109911087Y106686017D03*
D19*
X120411087Y110436017D03*
X110411087Y110436017D03*
X115411087Y112636017D03*
X115411087Y112636017D03*
D20*
X120911087Y106686017D03*
D21*
X115411087Y106686017D03*
%TD*%
D25*
%TO.C,S25*%
X142652759Y74996289D03*
X131102759Y77196289D03*
D20*
X128877759Y71246289D03*
D19*
X139377759Y74996289D03*
X134377759Y77196289D03*
D20*
X139877759Y71246289D03*
D19*
X129377759Y74996289D03*
D21*
X134377759Y71246289D03*
D19*
X134377759Y77196289D03*
%TD*%
D20*
%TO.C,S6*%
X47829367Y80163499D03*
X58348719Y83379587D03*
D21*
X53089043Y81771543D03*
D23*
X49418532Y76675726D03*
X58981579Y79599443D03*
X54814036Y76129345D03*
X54814036Y76129345D03*
%TD*%
D25*
%TO.C,S19*%
X123686087Y76436017D03*
X112136087Y78636017D03*
D19*
X115411087Y78636017D03*
X120411087Y76436017D03*
D20*
X109911087Y72686017D03*
X120911087Y72686017D03*
D19*
X110411087Y76436017D03*
X115411087Y78636017D03*
D21*
X115411087Y72686017D03*
%TD*%
D20*
%TO.C,S18*%
X98219067Y114528834D03*
D21*
X92739996Y114049477D03*
D20*
X87260925Y113570120D03*
D23*
X88090214Y109828158D03*
X98052161Y110699716D03*
X93254215Y108171928D03*
X93254215Y108171928D03*
%TD*%
M02*
