M48
; DRILL file {KiCad (6.0.4)} date Sun May 15 06:34:33 2022
; FORMAT={-:-/ absolute / metric / decimal}
; #@! TF.CreationDate,2022-05-15T06:34:33+02:00
; #@! TF.GenerationSoftware,Kicad,Pcbnew,(6.0.4)
; #@! TF.FileFunction,NonPlated,1,2,NPTH
FMAT,2
METRIC
; #@! TA.AperFunction,NonPlated,NPTH,ComponentDrill
T1C0.900
; #@! TA.AperFunction,NonPlated,NPTH,ComponentDrill
T2C1.702
; #@! TA.AperFunction,NonPlated,NPTH,ComponentDrill
T3C3.000
; #@! TA.AperFunction,NonPlated,NPTH,ComponentDrill
T4C3.429
%
G90
G05
T1
X162.5Y57.345
X162.5Y54.345
T2
X52.459Y93.392
X52.459Y93.392
X53.052Y76.403
X53.052Y76.403
X63.452Y93.776
X63.452Y93.776
X64.045Y76.787
X64.045Y76.787
X71.564Y108.467
X71.564Y108.467
X71.861Y91.469
X71.861Y91.469
X72.158Y74.472
X72.158Y74.472
X82.563Y108.659
X82.563Y108.659
X82.859Y91.661
X82.859Y91.661
X83.156Y74.664
X83.156Y74.664
X90.996Y96.247
X90.996Y96.247
X90.996Y79.247
X90.996Y79.247
X90.996Y113.247
X90.996Y113.247
X101.996Y96.247
X101.996Y96.247
X101.996Y79.247
X101.996Y79.247
X101.996Y113.247
X101.996Y113.247
X109.911Y106.686
X109.911Y106.686
X109.911Y89.686
X109.911Y89.686
X109.911Y72.686
X109.911Y72.686
X110.942Y51.593
X110.942Y51.593
X120.911Y106.686
X120.911Y106.686
X120.911Y89.686
X120.911Y89.686
X120.911Y72.686
X120.911Y72.686
X121.9Y50.634
X121.9Y50.634
X128.718Y94.279
X128.718Y94.279
X128.718Y77.279
X128.718Y77.279
X130.842Y48.652
X130.842Y48.652
X139.718Y94.279
X139.718Y94.279
X139.718Y77.279
X139.718Y77.279
X141.179Y44.89
X141.179Y44.89
T3
X52.828Y97.158
X53.421Y80.168
X57.748Y99.531
X57.748Y99.531
X58.341Y82.541
X58.341Y82.541
X62.822Y97.507
X63.415Y80.517
X71.999Y112.225
X72.295Y95.227
X72.592Y78.23
X76.96Y114.512
X76.96Y114.512
X77.256Y97.514
X77.256Y97.514
X77.553Y80.517
X77.553Y80.517
X81.997Y112.399
X82.294Y95.402
X82.591Y78.405
X91.496Y99.997
X91.496Y82.997
X91.496Y116.997
X96.496Y102.197
X96.496Y102.197
X96.496Y85.197
X96.496Y85.197
X96.496Y119.197
X96.496Y119.197
X101.496Y99.997
X101.496Y82.997
X101.496Y116.997
X110.411Y110.436
X110.411Y93.436
X110.411Y76.436
X111.767Y55.285
X115.411Y112.636
X115.411Y112.636
X115.411Y95.636
X115.411Y95.636
X115.411Y78.636
X115.411Y78.636
X116.94Y57.041
X116.94Y57.041
X120.411Y110.436
X120.411Y93.436
X120.411Y76.436
X121.729Y54.413
X129.218Y98.029
X129.218Y81.029
X132.595Y52.005
X134.218Y100.229
X134.218Y100.229
X134.218Y83.229
X134.218Y83.229
X138.045Y52.362
X138.045Y52.362
X139.218Y98.029
X139.218Y81.029
X141.991Y48.584
T4
X57.956Y93.584
X57.956Y93.584
X58.549Y76.595
X58.549Y76.595
X77.063Y108.563
X77.063Y108.563
X77.36Y91.565
X77.36Y91.565
X77.657Y74.568
X77.657Y74.568
X96.496Y96.247
X96.496Y96.247
X96.496Y79.247
X96.496Y79.247
X96.496Y113.247
X96.496Y113.247
X115.411Y106.686
X115.411Y106.686
X115.411Y89.686
X115.411Y89.686
X115.411Y72.686
X115.411Y72.686
X116.421Y51.114
X116.421Y51.114
X134.218Y94.279
X134.218Y94.279
X134.218Y77.279
X134.218Y77.279
X136.01Y46.771
X136.01Y46.771
T0
M30
