%FSLAX45Y45*%
G04 Gerber Fmt 4.5, Leading zero omitted, Abs format (unit mm)*
G04 Created by KiCad (PCBNEW (6.0.4)) date 2022-05-15 06:34:34*
%MOMM*%
%LPD*%
G01*
G04 APERTURE LIST*
%TA.AperFunction,Profile*%
%ADD10C,0.150000*%
%TD*%
%ADD11C,0.200000*%
%ADD12C,0.090000*%
%ADD13C,0.170180*%
%ADD14C,0.300000*%
%ADD15C,0.342900*%
G04 APERTURE END LIST*
D10*
X6876071Y11748876D02*
X8349989Y11770082D01*
X12617390Y11393371D02*
G75*
G03*
X12363394Y11672771I-271530J8309D01*
G01*
X4777825Y10291467D02*
G75*
G03*
X4590315Y10069268I72865J-251707D01*
G01*
X4777824Y10291472D02*
X6337804Y10337803D01*
X10964034Y11689307D02*
X12363394Y11672771D01*
X10653483Y12016826D02*
G75*
G03*
X10964034Y11689307I386287J55284D01*
G01*
X16260102Y10651714D02*
X12862027Y10657058D01*
X12627814Y10859110D02*
G75*
G03*
X12862027Y10657058I222446J21080D01*
G01*
X8886230Y12279469D02*
X10376622Y12272233D01*
X15416015Y3060530D02*
G75*
G03*
X16129384Y3383688I183895J543010D01*
G01*
X15416016Y3060533D02*
X4965311Y5426860D01*
X4590315Y10069268D02*
X4737037Y5771464D01*
X4737036Y5771464D02*
G75*
G03*
X4965311Y5426860I338114J-23934D01*
G01*
X16390883Y3838022D02*
G75*
G03*
X16494826Y4216671I-780613J417878D01*
G01*
X8598719Y12147486D02*
X8598719Y12147486D01*
X6337803Y10337807D02*
G75*
G03*
X6603966Y10601430I-16014J282343D01*
G01*
X16494826Y4216671D02*
X16498230Y10381255D01*
X10653476Y12016825D02*
G75*
G03*
X10376622Y12272233I-257406J-1265D01*
G01*
X16129384Y3383688D02*
X16390883Y3838021D01*
X6603966Y11497686D02*
X6603966Y10601430D01*
X8349989Y11770083D02*
G75*
G03*
X8594801Y12020777I-11189J255807D01*
G01*
X12627819Y10859110D02*
X12617394Y11393371D01*
X16498224Y10381255D02*
G75*
G03*
X16260102Y10651714I-253545J16825D01*
G01*
X6876071Y11748877D02*
G75*
G03*
X6603966Y11497686I-8611J-263647D01*
G01*
X8886230Y12279468D02*
G75*
G03*
X8594801Y12020777I2030J-295788D01*
G01*
D11*
D12*
X16205014Y5779462D02*
X16295014Y5689462D01*
X16295014Y5779462D02*
X16205014Y5689462D01*
X16205014Y5479462D02*
X16295014Y5389462D01*
X16295014Y5479462D02*
X16205014Y5389462D01*
D13*
X5330978Y9339239D02*
G75*
G03*
X5330978Y9339239I-85090J0D01*
G01*
X5330978Y9339239D02*
G75*
G03*
X5330978Y9339239I-85090J0D01*
G01*
X5390307Y7640275D02*
G75*
G03*
X5390307Y7640275I-85090J0D01*
G01*
X5390307Y7640275D02*
G75*
G03*
X5390307Y7640275I-85090J0D01*
G01*
X6430308Y9377629D02*
G75*
G03*
X6430308Y9377629I-85090J0D01*
G01*
X6430308Y9377629D02*
G75*
G03*
X6430308Y9377629I-85090J0D01*
G01*
X6489637Y7678664D02*
G75*
G03*
X6489637Y7678664I-85090J0D01*
G01*
X6489637Y7678664D02*
G75*
G03*
X6489637Y7678664I-85090J0D01*
G01*
X7241509Y10846668D02*
G75*
G03*
X7241509Y10846668I-85090J0D01*
G01*
X7241509Y10846668D02*
G75*
G03*
X7241509Y10846668I-85090J0D01*
G01*
X7271178Y9146927D02*
G75*
G03*
X7271178Y9146927I-85090J0D01*
G01*
X7271178Y9146927D02*
G75*
G03*
X7271178Y9146927I-85090J0D01*
G01*
X7300847Y7447185D02*
G75*
G03*
X7300847Y7447185I-85090J0D01*
G01*
X7300847Y7447185D02*
G75*
G03*
X7300847Y7447185I-85090J0D01*
G01*
X8341341Y10865865D02*
G75*
G03*
X8341341Y10865865I-85090J0D01*
G01*
X8341341Y10865865D02*
G75*
G03*
X8341341Y10865865I-85090J0D01*
G01*
X8371010Y9166124D02*
G75*
G03*
X8371010Y9166124I-85090J0D01*
G01*
X8371010Y9166124D02*
G75*
G03*
X8371010Y9166124I-85090J0D01*
G01*
X8400679Y7466383D02*
G75*
G03*
X8400679Y7466383I-85090J0D01*
G01*
X8400679Y7466383D02*
G75*
G03*
X8400679Y7466383I-85090J0D01*
G01*
X9184672Y9624699D02*
G75*
G03*
X9184672Y9624699I-85090J0D01*
G01*
X9184672Y9624699D02*
G75*
G03*
X9184672Y9624699I-85090J0D01*
G01*
X9184672Y7924699D02*
G75*
G03*
X9184672Y7924699I-85090J0D01*
G01*
X9184672Y7924699D02*
G75*
G03*
X9184672Y7924699I-85090J0D01*
G01*
X9184672Y11324699D02*
G75*
G03*
X9184672Y11324699I-85090J0D01*
G01*
X9184672Y11324699D02*
G75*
G03*
X9184672Y11324699I-85090J0D01*
G01*
X10284672Y9624699D02*
G75*
G03*
X10284672Y9624699I-85090J0D01*
G01*
X10284672Y9624699D02*
G75*
G03*
X10284672Y9624699I-85090J0D01*
G01*
X10284672Y7924699D02*
G75*
G03*
X10284672Y7924699I-85090J0D01*
G01*
X10284672Y7924699D02*
G75*
G03*
X10284672Y7924699I-85090J0D01*
G01*
X10284672Y11324699D02*
G75*
G03*
X10284672Y11324699I-85090J0D01*
G01*
X10284672Y11324699D02*
G75*
G03*
X10284672Y11324699I-85090J0D01*
G01*
X11076199Y10668602D02*
G75*
G03*
X11076199Y10668602I-85090J0D01*
G01*
X11076199Y10668602D02*
G75*
G03*
X11076199Y10668602I-85090J0D01*
G01*
X11076199Y8968602D02*
G75*
G03*
X11076199Y8968602I-85090J0D01*
G01*
X11076199Y8968602D02*
G75*
G03*
X11076199Y8968602I-85090J0D01*
G01*
X11076199Y7268602D02*
G75*
G03*
X11076199Y7268602I-85090J0D01*
G01*
X11076199Y7268602D02*
G75*
G03*
X11076199Y7268602I-85090J0D01*
G01*
X11179291Y5159288D02*
G75*
G03*
X11179291Y5159288I-85090J0D01*
G01*
X11179291Y5159288D02*
G75*
G03*
X11179291Y5159288I-85090J0D01*
G01*
X12176199Y10668602D02*
G75*
G03*
X12176199Y10668602I-85090J0D01*
G01*
X12176199Y10668602D02*
G75*
G03*
X12176199Y10668602I-85090J0D01*
G01*
X12176199Y8968602D02*
G75*
G03*
X12176199Y8968602I-85090J0D01*
G01*
X12176199Y8968602D02*
G75*
G03*
X12176199Y8968602I-85090J0D01*
G01*
X12176199Y7268602D02*
G75*
G03*
X12176199Y7268602I-85090J0D01*
G01*
X12176199Y7268602D02*
G75*
G03*
X12176199Y7268602I-85090J0D01*
G01*
X12275105Y5063416D02*
G75*
G03*
X12275105Y5063416I-85090J0D01*
G01*
X12275105Y5063416D02*
G75*
G03*
X12275105Y5063416I-85090J0D01*
G01*
X12956918Y9427885D02*
G75*
G03*
X12956918Y9427885I-85090J0D01*
G01*
X12956918Y9427885D02*
G75*
G03*
X12956918Y9427885I-85090J0D01*
G01*
X12956918Y7727885D02*
G75*
G03*
X12956918Y7727885I-85090J0D01*
G01*
X12956918Y7727885D02*
G75*
G03*
X12956918Y7727885I-85090J0D01*
G01*
X13169301Y4865178D02*
G75*
G03*
X13169301Y4865178I-85090J0D01*
G01*
X13169301Y4865178D02*
G75*
G03*
X13169301Y4865178I-85090J0D01*
G01*
X14056918Y9427885D02*
G75*
G03*
X14056918Y9427885I-85090J0D01*
G01*
X14056918Y9427885D02*
G75*
G03*
X14056918Y9427885I-85090J0D01*
G01*
X14056918Y7727885D02*
G75*
G03*
X14056918Y7727885I-85090J0D01*
G01*
X14056918Y7727885D02*
G75*
G03*
X14056918Y7727885I-85090J0D01*
G01*
X14202963Y4488956D02*
G75*
G03*
X14202963Y4488956I-85090J0D01*
G01*
X14202963Y4488956D02*
G75*
G03*
X14202963Y4488956I-85090J0D01*
G01*
D14*
X5282770Y9865756D02*
X5282770Y9565756D01*
X5132770Y9715756D02*
X5432770Y9715756D01*
X5342099Y8166791D02*
X5342099Y7866791D01*
X5192099Y8016791D02*
X5492099Y8016791D01*
X5774788Y10103072D02*
X5774788Y9803072D01*
X5624788Y9953072D02*
X5924788Y9953072D01*
X5774788Y10103072D02*
X5774788Y9803072D01*
X5624788Y9953072D02*
X5924788Y9953072D01*
X5834117Y8404107D02*
X5834117Y8104107D01*
X5684117Y8254107D02*
X5984117Y8254107D01*
X5834117Y8404107D02*
X5834117Y8104107D01*
X5684117Y8254107D02*
X5984117Y8254107D01*
X6282161Y9900655D02*
X6282161Y9600655D01*
X6132161Y9750655D02*
X6432161Y9750655D01*
X6341490Y8201691D02*
X6341490Y7901691D01*
X6191490Y8051691D02*
X6491490Y8051691D01*
X7199866Y11372483D02*
X7199866Y11072483D01*
X7049866Y11222483D02*
X7349866Y11222483D01*
X7229535Y9672742D02*
X7229535Y9372742D01*
X7079535Y9522742D02*
X7379535Y9522742D01*
X7259205Y7973001D02*
X7259205Y7673001D01*
X7109205Y7823001D02*
X7409205Y7823001D01*
X7695951Y11601176D02*
X7695951Y11301176D01*
X7545951Y11451176D02*
X7845951Y11451176D01*
X7695951Y11601176D02*
X7695951Y11301176D01*
X7545951Y11451176D02*
X7845951Y11451176D01*
X7725620Y9901435D02*
X7725620Y9601435D01*
X7575620Y9751435D02*
X7875620Y9751435D01*
X7725620Y9901435D02*
X7725620Y9601435D01*
X7575620Y9751435D02*
X7875620Y9751435D01*
X7755289Y8201694D02*
X7755289Y7901694D01*
X7605289Y8051694D02*
X7905289Y8051694D01*
X7755289Y8201694D02*
X7755289Y7901694D01*
X7605289Y8051694D02*
X7905289Y8051694D01*
X8199714Y11389935D02*
X8199714Y11089935D01*
X8049714Y11239935D02*
X8349714Y11239935D01*
X8229383Y9690194D02*
X8229383Y9390194D01*
X8079383Y9540194D02*
X8379383Y9540194D01*
X8259052Y7990453D02*
X8259052Y7690453D01*
X8109052Y7840453D02*
X8409052Y7840453D01*
X9149582Y10149699D02*
X9149582Y9849699D01*
X8999582Y9999699D02*
X9299582Y9999699D01*
X9149582Y8449699D02*
X9149582Y8149699D01*
X8999582Y8299699D02*
X9299582Y8299699D01*
X9149582Y11849699D02*
X9149582Y11549699D01*
X8999582Y11699699D02*
X9299582Y11699699D01*
X9649582Y10369699D02*
X9649582Y10069699D01*
X9499582Y10219699D02*
X9799582Y10219699D01*
X9649582Y10369699D02*
X9649582Y10069699D01*
X9499582Y10219699D02*
X9799582Y10219699D01*
X9649582Y8669699D02*
X9649582Y8369699D01*
X9499582Y8519699D02*
X9799582Y8519699D01*
X9649582Y8669699D02*
X9649582Y8369699D01*
X9499582Y8519699D02*
X9799582Y8519699D01*
X9649582Y12069699D02*
X9649582Y11769699D01*
X9499582Y11919699D02*
X9799582Y11919699D01*
X9649582Y12069699D02*
X9649582Y11769699D01*
X9499582Y11919699D02*
X9799582Y11919699D01*
X10149582Y10149699D02*
X10149582Y9849699D01*
X9999582Y9999699D02*
X10299582Y9999699D01*
X10149582Y8449699D02*
X10149582Y8149699D01*
X9999582Y8299699D02*
X10299582Y8299699D01*
X10149582Y11849699D02*
X10149582Y11549699D01*
X9999582Y11699699D02*
X10299582Y11699699D01*
X11041109Y11193602D02*
X11041109Y10893602D01*
X10891109Y11043602D02*
X11191109Y11043602D01*
X11041109Y9493602D02*
X11041109Y9193602D01*
X10891109Y9343602D02*
X11191109Y9343602D01*
X11041109Y7793602D02*
X11041109Y7493602D01*
X10891109Y7643602D02*
X11191109Y7643602D01*
X11176695Y5678503D02*
X11176695Y5378503D01*
X11026695Y5528503D02*
X11326694Y5528503D01*
X11541109Y11413602D02*
X11541109Y11113602D01*
X11391109Y11263602D02*
X11691109Y11263602D01*
X11541109Y11413602D02*
X11541109Y11113602D01*
X11391109Y11263602D02*
X11691109Y11263602D01*
X11541109Y9713602D02*
X11541109Y9413602D01*
X11391109Y9563602D02*
X11691109Y9563602D01*
X11541109Y9713602D02*
X11541109Y9413602D01*
X11391109Y9563602D02*
X11691109Y9563602D01*
X11541109Y8013602D02*
X11541109Y7713602D01*
X11391109Y7863602D02*
X11691109Y7863602D01*
X11541109Y8013602D02*
X11541109Y7713602D01*
X11391109Y7863602D02*
X11691109Y7863602D01*
X11693966Y5854088D02*
X11693966Y5554088D01*
X11543966Y5704088D02*
X11843966Y5704088D01*
X11693966Y5854088D02*
X11693966Y5554088D01*
X11543966Y5704088D02*
X11843966Y5704088D01*
X12041109Y11193602D02*
X12041109Y10893602D01*
X11891109Y11043602D02*
X12191109Y11043602D01*
X12041109Y9493602D02*
X12041109Y9193602D01*
X11891109Y9343602D02*
X12191109Y9343602D01*
X12041109Y7793602D02*
X12041109Y7493602D01*
X11891109Y7643602D02*
X12191109Y7643602D01*
X12172889Y5591347D02*
X12172889Y5291347D01*
X12022889Y5441347D02*
X12322889Y5441347D01*
X12921828Y9952885D02*
X12921828Y9652885D01*
X12771828Y9802885D02*
X13071828Y9802885D01*
X12921828Y8252885D02*
X12921828Y7952885D01*
X12771828Y8102885D02*
X13071828Y8102885D01*
X13259453Y5350462D02*
X13259453Y5050462D01*
X13109453Y5200462D02*
X13409453Y5200462D01*
X13421828Y10172885D02*
X13421828Y9872885D01*
X13271828Y10022885D02*
X13571828Y10022885D01*
X13421828Y10172885D02*
X13421828Y9872885D01*
X13271828Y10022885D02*
X13571828Y10022885D01*
X13421828Y8472885D02*
X13421828Y8172885D01*
X13271828Y8322885D02*
X13571828Y8322885D01*
X13421828Y8472885D02*
X13421828Y8172885D01*
X13271828Y8322885D02*
X13571828Y8322885D01*
X13804544Y5386184D02*
X13804544Y5086184D01*
X13654544Y5236184D02*
X13954544Y5236184D01*
X13804544Y5386184D02*
X13804544Y5086184D01*
X13654544Y5236184D02*
X13954544Y5236184D01*
X13921828Y9952885D02*
X13921828Y9652885D01*
X13771828Y9802885D02*
X14071828Y9802885D01*
X13921828Y8252885D02*
X13921828Y7952885D01*
X13771828Y8102885D02*
X14071828Y8102885D01*
X14199146Y5008442D02*
X14199146Y4708442D01*
X14049146Y4858442D02*
X14349146Y4858442D01*
D15*
X5916787Y9237200D02*
X5916787Y9479669D01*
X5674318Y9479669D01*
X5674318Y9237200D01*
X5916787Y9237200D01*
X5916787Y9237200D02*
X5916787Y9479669D01*
X5674318Y9479669D01*
X5674318Y9237200D01*
X5916787Y9237200D01*
X5976117Y7538235D02*
X5976117Y7780704D01*
X5733647Y7780704D01*
X5733647Y7538235D01*
X5976117Y7538235D01*
X5976117Y7538235D02*
X5976117Y7780704D01*
X5733647Y7780704D01*
X5733647Y7538235D01*
X5976117Y7538235D01*
X7827569Y10735032D02*
X7827569Y10977501D01*
X7585100Y10977501D01*
X7585100Y10735032D01*
X7827569Y10735032D01*
X7827569Y10735032D02*
X7827569Y10977501D01*
X7585100Y10977501D01*
X7585100Y10735032D01*
X7827569Y10735032D01*
X7857239Y9035291D02*
X7857239Y9277760D01*
X7614769Y9277760D01*
X7614769Y9035291D01*
X7857239Y9035291D01*
X7857239Y9035291D02*
X7857239Y9277760D01*
X7614769Y9277760D01*
X7614769Y9035291D01*
X7857239Y9035291D01*
X7886908Y7335550D02*
X7886908Y7578019D01*
X7644439Y7578019D01*
X7644439Y7335550D01*
X7886908Y7335550D01*
X7886908Y7335550D02*
X7886908Y7578019D01*
X7644439Y7578019D01*
X7644439Y7335550D01*
X7886908Y7335550D01*
X9770816Y9503464D02*
X9770816Y9745934D01*
X9528347Y9745934D01*
X9528347Y9503464D01*
X9770816Y9503464D01*
X9770816Y9503464D02*
X9770816Y9745934D01*
X9528347Y9745934D01*
X9528347Y9503464D01*
X9770816Y9503464D01*
X9770816Y7803464D02*
X9770816Y8045933D01*
X9528347Y8045933D01*
X9528347Y7803464D01*
X9770816Y7803464D01*
X9770816Y7803464D02*
X9770816Y8045933D01*
X9528347Y8045933D01*
X9528347Y7803464D01*
X9770816Y7803464D01*
X9770816Y11203464D02*
X9770816Y11445933D01*
X9528347Y11445933D01*
X9528347Y11203464D01*
X9770816Y11203464D01*
X9770816Y11203464D02*
X9770816Y11445933D01*
X9528347Y11445933D01*
X9528347Y11203464D01*
X9770816Y11203464D01*
X11662343Y10547367D02*
X11662343Y10789836D01*
X11419874Y10789836D01*
X11419874Y10547367D01*
X11662343Y10547367D01*
X11662343Y10547367D02*
X11662343Y10789836D01*
X11419874Y10789836D01*
X11419874Y10547367D01*
X11662343Y10547367D01*
X11662343Y8847367D02*
X11662343Y9089836D01*
X11419874Y9089836D01*
X11419874Y8847367D01*
X11662343Y8847367D01*
X11662343Y8847367D02*
X11662343Y9089836D01*
X11419874Y9089836D01*
X11419874Y8847367D01*
X11662343Y8847367D01*
X11662343Y7147367D02*
X11662343Y7389836D01*
X11419874Y7389836D01*
X11419874Y7147367D01*
X11662343Y7147367D01*
X11662343Y7147367D02*
X11662343Y7389836D01*
X11419874Y7389836D01*
X11419874Y7147367D01*
X11662343Y7147367D01*
X11763343Y4990117D02*
X11763343Y5232587D01*
X11520874Y5232587D01*
X11520874Y4990117D01*
X11763343Y4990117D01*
X11763343Y4990117D02*
X11763343Y5232587D01*
X11520874Y5232587D01*
X11520874Y4990117D01*
X11763343Y4990117D01*
X13543063Y9306651D02*
X13543063Y9549120D01*
X13300593Y9549120D01*
X13300593Y9306651D01*
X13543063Y9306651D01*
X13543063Y9306651D02*
X13543063Y9549120D01*
X13300593Y9549120D01*
X13300593Y9306651D01*
X13543063Y9306651D01*
X13543063Y7606651D02*
X13543063Y7849120D01*
X13300593Y7849120D01*
X13300593Y7606651D01*
X13543063Y7606651D01*
X13543063Y7606651D02*
X13543063Y7849120D01*
X13300593Y7849120D01*
X13300593Y7606651D01*
X13543063Y7606651D01*
X13722276Y4555832D02*
X13722276Y4798302D01*
X13479807Y4798302D01*
X13479807Y4555832D01*
X13722276Y4555832D01*
X13722276Y4555832D02*
X13722276Y4798302D01*
X13479807Y4798302D01*
X13479807Y4555832D01*
X13722276Y4555832D01*
D11*
X4840434Y2712260D02*
X4840434Y2912260D01*
X4888053Y2912260D01*
X4916625Y2902736D01*
X4935673Y2883689D01*
X4945196Y2864641D01*
X4954720Y2826546D01*
X4954720Y2797974D01*
X4945196Y2759879D01*
X4935673Y2740832D01*
X4916625Y2721784D01*
X4888053Y2712260D01*
X4840434Y2712260D01*
X5040434Y2712260D02*
X5040434Y2845593D01*
X5040434Y2807498D02*
X5049958Y2826546D01*
X5059482Y2836070D01*
X5078530Y2845593D01*
X5097577Y2845593D01*
X5164244Y2712260D02*
X5164244Y2845593D01*
X5164244Y2912260D02*
X5154720Y2902736D01*
X5164244Y2893212D01*
X5173768Y2902736D01*
X5164244Y2912260D01*
X5164244Y2893212D01*
X5288053Y2712260D02*
X5269006Y2721784D01*
X5259482Y2740832D01*
X5259482Y2912260D01*
X5392815Y2712260D02*
X5373768Y2721784D01*
X5364244Y2740832D01*
X5364244Y2912260D01*
X5621387Y2712260D02*
X5621387Y2912260D01*
X5688053Y2769403D01*
X5754720Y2912260D01*
X5754720Y2712260D01*
X5935672Y2712260D02*
X5935672Y2817022D01*
X5926149Y2836070D01*
X5907101Y2845593D01*
X5869006Y2845593D01*
X5849958Y2836070D01*
X5935672Y2721784D02*
X5916625Y2712260D01*
X5869006Y2712260D01*
X5849958Y2721784D01*
X5840434Y2740832D01*
X5840434Y2759879D01*
X5849958Y2778927D01*
X5869006Y2788451D01*
X5916625Y2788451D01*
X5935672Y2797974D01*
X6030911Y2845593D02*
X6030911Y2645593D01*
X6030911Y2836070D02*
X6049958Y2845593D01*
X6088053Y2845593D01*
X6107101Y2836070D01*
X6116625Y2826546D01*
X6126149Y2807498D01*
X6126149Y2750355D01*
X6116625Y2731308D01*
X6107101Y2721784D01*
X6088053Y2712260D01*
X6049958Y2712260D01*
X6030911Y2721784D01*
X6211863Y2731308D02*
X6221387Y2721784D01*
X6211863Y2712260D01*
X6202339Y2721784D01*
X6211863Y2731308D01*
X6211863Y2712260D01*
X6211863Y2836070D02*
X6221387Y2826546D01*
X6211863Y2817022D01*
X6202339Y2826546D01*
X6211863Y2836070D01*
X6211863Y2817022D01*
D12*
X4492815Y2427736D02*
X4582815Y2337736D01*
X4582815Y2427736D02*
X4492815Y2337736D01*
D11*
X4878530Y2492260D02*
X4897577Y2492260D01*
X4916625Y2482736D01*
X4926149Y2473212D01*
X4935673Y2454165D01*
X4945196Y2416070D01*
X4945196Y2368451D01*
X4935673Y2330355D01*
X4926149Y2311308D01*
X4916625Y2301784D01*
X4897577Y2292260D01*
X4878530Y2292260D01*
X4859482Y2301784D01*
X4849958Y2311308D01*
X4840434Y2330355D01*
X4830911Y2368451D01*
X4830911Y2416070D01*
X4840434Y2454165D01*
X4849958Y2473212D01*
X4859482Y2482736D01*
X4878530Y2492260D01*
X5030911Y2311308D02*
X5040434Y2301784D01*
X5030911Y2292260D01*
X5021387Y2301784D01*
X5030911Y2311308D01*
X5030911Y2292260D01*
X5135673Y2292260D02*
X5173768Y2292260D01*
X5192815Y2301784D01*
X5202339Y2311308D01*
X5221387Y2339879D01*
X5230911Y2377974D01*
X5230911Y2454165D01*
X5221387Y2473212D01*
X5211863Y2482736D01*
X5192815Y2492260D01*
X5154720Y2492260D01*
X5135673Y2482736D01*
X5126149Y2473212D01*
X5116625Y2454165D01*
X5116625Y2406546D01*
X5126149Y2387498D01*
X5135673Y2377974D01*
X5154720Y2368451D01*
X5192815Y2368451D01*
X5211863Y2377974D01*
X5221387Y2387498D01*
X5230911Y2406546D01*
X5354720Y2492260D02*
X5373768Y2492260D01*
X5392815Y2482736D01*
X5402339Y2473212D01*
X5411863Y2454165D01*
X5421387Y2416070D01*
X5421387Y2368451D01*
X5411863Y2330355D01*
X5402339Y2311308D01*
X5392815Y2301784D01*
X5373768Y2292260D01*
X5354720Y2292260D01*
X5335673Y2301784D01*
X5326149Y2311308D01*
X5316625Y2330355D01*
X5307101Y2368451D01*
X5307101Y2416070D01*
X5316625Y2454165D01*
X5326149Y2473212D01*
X5335673Y2482736D01*
X5354720Y2492260D01*
X5545196Y2492260D02*
X5564244Y2492260D01*
X5583292Y2482736D01*
X5592815Y2473212D01*
X5602339Y2454165D01*
X5611863Y2416070D01*
X5611863Y2368451D01*
X5602339Y2330355D01*
X5592815Y2311308D01*
X5583292Y2301784D01*
X5564244Y2292260D01*
X5545196Y2292260D01*
X5526149Y2301784D01*
X5516625Y2311308D01*
X5507101Y2330355D01*
X5497577Y2368451D01*
X5497577Y2416070D01*
X5507101Y2454165D01*
X5516625Y2473212D01*
X5526149Y2482736D01*
X5545196Y2492260D01*
X5697577Y2292260D02*
X5697577Y2425593D01*
X5697577Y2406546D02*
X5707101Y2416070D01*
X5726149Y2425593D01*
X5754720Y2425593D01*
X5773768Y2416070D01*
X5783291Y2397022D01*
X5783291Y2292260D01*
X5783291Y2397022D02*
X5792815Y2416070D01*
X5811863Y2425593D01*
X5840434Y2425593D01*
X5859482Y2416070D01*
X5869006Y2397022D01*
X5869006Y2292260D01*
X5964244Y2292260D02*
X5964244Y2425593D01*
X5964244Y2406546D02*
X5973768Y2416070D01*
X5992815Y2425593D01*
X6021387Y2425593D01*
X6040434Y2416070D01*
X6049958Y2397022D01*
X6049958Y2292260D01*
X6049958Y2397022D02*
X6059482Y2416070D01*
X6078530Y2425593D01*
X6107101Y2425593D01*
X6126149Y2416070D01*
X6135672Y2397022D01*
X6135672Y2292260D01*
X6526149Y2501784D02*
X6354720Y2244641D01*
X6783291Y2492260D02*
X6802339Y2492260D01*
X6821387Y2482736D01*
X6830911Y2473212D01*
X6840434Y2454165D01*
X6849958Y2416070D01*
X6849958Y2368451D01*
X6840434Y2330355D01*
X6830911Y2311308D01*
X6821387Y2301784D01*
X6802339Y2292260D01*
X6783291Y2292260D01*
X6764244Y2301784D01*
X6754720Y2311308D01*
X6745196Y2330355D01*
X6735672Y2368451D01*
X6735672Y2416070D01*
X6745196Y2454165D01*
X6754720Y2473212D01*
X6764244Y2482736D01*
X6783291Y2492260D01*
X6935672Y2311308D02*
X6945196Y2301784D01*
X6935672Y2292260D01*
X6926149Y2301784D01*
X6935672Y2311308D01*
X6935672Y2292260D01*
X7069006Y2492260D02*
X7088053Y2492260D01*
X7107101Y2482736D01*
X7116625Y2473212D01*
X7126149Y2454165D01*
X7135672Y2416070D01*
X7135672Y2368451D01*
X7126149Y2330355D01*
X7116625Y2311308D01*
X7107101Y2301784D01*
X7088053Y2292260D01*
X7069006Y2292260D01*
X7049958Y2301784D01*
X7040434Y2311308D01*
X7030911Y2330355D01*
X7021387Y2368451D01*
X7021387Y2416070D01*
X7030911Y2454165D01*
X7040434Y2473212D01*
X7049958Y2482736D01*
X7069006Y2492260D01*
X7202339Y2492260D02*
X7326149Y2492260D01*
X7259482Y2416070D01*
X7288053Y2416070D01*
X7307101Y2406546D01*
X7316625Y2397022D01*
X7326149Y2377974D01*
X7326149Y2330355D01*
X7316625Y2311308D01*
X7307101Y2301784D01*
X7288053Y2292260D01*
X7230911Y2292260D01*
X7211863Y2301784D01*
X7202339Y2311308D01*
X7507101Y2492260D02*
X7411863Y2492260D01*
X7402339Y2397022D01*
X7411863Y2406546D01*
X7430911Y2416070D01*
X7478530Y2416070D01*
X7497577Y2406546D01*
X7507101Y2397022D01*
X7516625Y2377974D01*
X7516625Y2330355D01*
X7507101Y2311308D01*
X7497577Y2301784D01*
X7478530Y2292260D01*
X7430911Y2292260D01*
X7411863Y2301784D01*
X7402339Y2311308D01*
X7688053Y2425593D02*
X7688053Y2292260D01*
X7640434Y2501784D02*
X7592815Y2358927D01*
X7716625Y2358927D01*
X7783291Y2492260D02*
X7783291Y2454165D01*
X7859482Y2492260D02*
X7859482Y2454165D01*
X8154720Y2216070D02*
X8145196Y2225593D01*
X8126149Y2254165D01*
X8116625Y2273212D01*
X8107101Y2301784D01*
X8097577Y2349403D01*
X8097577Y2387498D01*
X8107101Y2435117D01*
X8116625Y2463689D01*
X8126149Y2482736D01*
X8145196Y2511308D01*
X8154720Y2520832D01*
X8221387Y2473212D02*
X8230911Y2482736D01*
X8249958Y2492260D01*
X8297577Y2492260D01*
X8316625Y2482736D01*
X8326149Y2473212D01*
X8335672Y2454165D01*
X8335672Y2435117D01*
X8326149Y2406546D01*
X8211863Y2292260D01*
X8335672Y2292260D01*
X8573768Y2292260D02*
X8573768Y2492260D01*
X8659482Y2292260D02*
X8659482Y2397022D01*
X8649958Y2416070D01*
X8630911Y2425593D01*
X8602339Y2425593D01*
X8583292Y2416070D01*
X8573768Y2406546D01*
X8783292Y2292260D02*
X8764244Y2301784D01*
X8754720Y2311308D01*
X8745196Y2330355D01*
X8745196Y2387498D01*
X8754720Y2406546D01*
X8764244Y2416070D01*
X8783292Y2425593D01*
X8811863Y2425593D01*
X8830911Y2416070D01*
X8840434Y2406546D01*
X8849958Y2387498D01*
X8849958Y2330355D01*
X8840434Y2311308D01*
X8830911Y2301784D01*
X8811863Y2292260D01*
X8783292Y2292260D01*
X8964244Y2292260D02*
X8945196Y2301784D01*
X8935673Y2320832D01*
X8935673Y2492260D01*
X9116625Y2301784D02*
X9097577Y2292260D01*
X9059482Y2292260D01*
X9040434Y2301784D01*
X9030911Y2320832D01*
X9030911Y2397022D01*
X9040434Y2416070D01*
X9059482Y2425593D01*
X9097577Y2425593D01*
X9116625Y2416070D01*
X9126149Y2397022D01*
X9126149Y2377974D01*
X9030911Y2358927D01*
X9202339Y2301784D02*
X9221387Y2292260D01*
X9259482Y2292260D01*
X9278530Y2301784D01*
X9288053Y2320832D01*
X9288053Y2330355D01*
X9278530Y2349403D01*
X9259482Y2358927D01*
X9230911Y2358927D01*
X9211863Y2368451D01*
X9202339Y2387498D01*
X9202339Y2397022D01*
X9211863Y2416070D01*
X9230911Y2425593D01*
X9259482Y2425593D01*
X9278530Y2416070D01*
X9354720Y2216070D02*
X9364244Y2225593D01*
X9383292Y2254165D01*
X9392815Y2273212D01*
X9402339Y2301784D01*
X9411863Y2349403D01*
X9411863Y2387498D01*
X9402339Y2435117D01*
X9392815Y2463689D01*
X9383292Y2482736D01*
X9364244Y2511308D01*
X9354720Y2520832D01*
X9716625Y2216070D02*
X9707101Y2225593D01*
X9688053Y2254165D01*
X9678530Y2273212D01*
X9669006Y2301784D01*
X9659482Y2349403D01*
X9659482Y2387498D01*
X9669006Y2435117D01*
X9678530Y2463689D01*
X9688053Y2482736D01*
X9707101Y2511308D01*
X9716625Y2520832D01*
X9792815Y2425593D02*
X9792815Y2292260D01*
X9792815Y2406546D02*
X9802339Y2416070D01*
X9821387Y2425593D01*
X9849958Y2425593D01*
X9869006Y2416070D01*
X9878530Y2397022D01*
X9878530Y2292260D01*
X10002339Y2292260D02*
X9983292Y2301784D01*
X9973768Y2311308D01*
X9964244Y2330355D01*
X9964244Y2387498D01*
X9973768Y2406546D01*
X9983292Y2416070D01*
X10002339Y2425593D01*
X10030911Y2425593D01*
X10049958Y2416070D01*
X10059482Y2406546D01*
X10069006Y2387498D01*
X10069006Y2330355D01*
X10059482Y2311308D01*
X10049958Y2301784D01*
X10030911Y2292260D01*
X10002339Y2292260D01*
X10126149Y2425593D02*
X10202339Y2425593D01*
X10154720Y2492260D02*
X10154720Y2320832D01*
X10164244Y2301784D01*
X10183292Y2292260D01*
X10202339Y2292260D01*
X10421387Y2425593D02*
X10421387Y2225593D01*
X10421387Y2416070D02*
X10440434Y2425593D01*
X10478530Y2425593D01*
X10497577Y2416070D01*
X10507101Y2406546D01*
X10516625Y2387498D01*
X10516625Y2330355D01*
X10507101Y2311308D01*
X10497577Y2301784D01*
X10478530Y2292260D01*
X10440434Y2292260D01*
X10421387Y2301784D01*
X10630911Y2292260D02*
X10611863Y2301784D01*
X10602339Y2320832D01*
X10602339Y2492260D01*
X10792815Y2292260D02*
X10792815Y2397022D01*
X10783292Y2416070D01*
X10764244Y2425593D01*
X10726149Y2425593D01*
X10707101Y2416070D01*
X10792815Y2301784D02*
X10773768Y2292260D01*
X10726149Y2292260D01*
X10707101Y2301784D01*
X10697577Y2320832D01*
X10697577Y2339879D01*
X10707101Y2358927D01*
X10726149Y2368451D01*
X10773768Y2368451D01*
X10792815Y2377974D01*
X10859482Y2425593D02*
X10935673Y2425593D01*
X10888053Y2492260D02*
X10888053Y2320832D01*
X10897577Y2301784D01*
X10916625Y2292260D01*
X10935673Y2292260D01*
X11078530Y2301784D02*
X11059482Y2292260D01*
X11021387Y2292260D01*
X11002339Y2301784D01*
X10992815Y2320832D01*
X10992815Y2397022D01*
X11002339Y2416070D01*
X11021387Y2425593D01*
X11059482Y2425593D01*
X11078530Y2416070D01*
X11088053Y2397022D01*
X11088053Y2377974D01*
X10992815Y2358927D01*
X11259482Y2292260D02*
X11259482Y2492260D01*
X11259482Y2301784D02*
X11240434Y2292260D01*
X11202339Y2292260D01*
X11183292Y2301784D01*
X11173768Y2311308D01*
X11164244Y2330355D01*
X11164244Y2387498D01*
X11173768Y2406546D01*
X11183292Y2416070D01*
X11202339Y2425593D01*
X11240434Y2425593D01*
X11259482Y2416070D01*
X11335672Y2216070D02*
X11345196Y2225593D01*
X11364244Y2254165D01*
X11373768Y2273212D01*
X11383291Y2301784D01*
X11392815Y2349403D01*
X11392815Y2387498D01*
X11383291Y2435117D01*
X11373768Y2463689D01*
X11364244Y2482736D01*
X11345196Y2511308D01*
X11335672Y2520832D01*
D13*
X4582815Y2118736D02*
G75*
G03*
X4582815Y2118736I-85090J0D01*
G01*
D11*
X4945196Y2028260D02*
X4830911Y2028260D01*
X4888053Y2028260D02*
X4888053Y2228260D01*
X4869006Y2199689D01*
X4849958Y2180641D01*
X4830911Y2171117D01*
X5030911Y2047308D02*
X5040434Y2037784D01*
X5030911Y2028260D01*
X5021387Y2037784D01*
X5030911Y2047308D01*
X5030911Y2028260D01*
X5107101Y2228260D02*
X5240434Y2228260D01*
X5154720Y2028260D01*
X5354720Y2228260D02*
X5373768Y2228260D01*
X5392815Y2218736D01*
X5402339Y2209212D01*
X5411863Y2190165D01*
X5421387Y2152070D01*
X5421387Y2104451D01*
X5411863Y2066355D01*
X5402339Y2047308D01*
X5392815Y2037784D01*
X5373768Y2028260D01*
X5354720Y2028260D01*
X5335673Y2037784D01*
X5326149Y2047308D01*
X5316625Y2066355D01*
X5307101Y2104451D01*
X5307101Y2152070D01*
X5316625Y2190165D01*
X5326149Y2209212D01*
X5335673Y2218736D01*
X5354720Y2228260D01*
X5497577Y2209212D02*
X5507101Y2218736D01*
X5526149Y2228260D01*
X5573768Y2228260D01*
X5592815Y2218736D01*
X5602339Y2209212D01*
X5611863Y2190165D01*
X5611863Y2171117D01*
X5602339Y2142546D01*
X5488053Y2028260D01*
X5611863Y2028260D01*
X5697577Y2028260D02*
X5697577Y2161593D01*
X5697577Y2142546D02*
X5707101Y2152070D01*
X5726149Y2161593D01*
X5754720Y2161593D01*
X5773768Y2152070D01*
X5783291Y2133022D01*
X5783291Y2028260D01*
X5783291Y2133022D02*
X5792815Y2152070D01*
X5811863Y2161593D01*
X5840434Y2161593D01*
X5859482Y2152070D01*
X5869006Y2133022D01*
X5869006Y2028260D01*
X5964244Y2028260D02*
X5964244Y2161593D01*
X5964244Y2142546D02*
X5973768Y2152070D01*
X5992815Y2161593D01*
X6021387Y2161593D01*
X6040434Y2152070D01*
X6049958Y2133022D01*
X6049958Y2028260D01*
X6049958Y2133022D02*
X6059482Y2152070D01*
X6078530Y2161593D01*
X6107101Y2161593D01*
X6126149Y2152070D01*
X6135672Y2133022D01*
X6135672Y2028260D01*
X6526149Y2237784D02*
X6354720Y1980641D01*
X6783291Y2228260D02*
X6802339Y2228260D01*
X6821387Y2218736D01*
X6830911Y2209212D01*
X6840434Y2190165D01*
X6849958Y2152070D01*
X6849958Y2104451D01*
X6840434Y2066355D01*
X6830911Y2047308D01*
X6821387Y2037784D01*
X6802339Y2028260D01*
X6783291Y2028260D01*
X6764244Y2037784D01*
X6754720Y2047308D01*
X6745196Y2066355D01*
X6735672Y2104451D01*
X6735672Y2152070D01*
X6745196Y2190165D01*
X6754720Y2209212D01*
X6764244Y2218736D01*
X6783291Y2228260D01*
X6935672Y2047308D02*
X6945196Y2037784D01*
X6935672Y2028260D01*
X6926149Y2037784D01*
X6935672Y2047308D01*
X6935672Y2028260D01*
X7069006Y2228260D02*
X7088053Y2228260D01*
X7107101Y2218736D01*
X7116625Y2209212D01*
X7126149Y2190165D01*
X7135672Y2152070D01*
X7135672Y2104451D01*
X7126149Y2066355D01*
X7116625Y2047308D01*
X7107101Y2037784D01*
X7088053Y2028260D01*
X7069006Y2028260D01*
X7049958Y2037784D01*
X7040434Y2047308D01*
X7030911Y2066355D01*
X7021387Y2104451D01*
X7021387Y2152070D01*
X7030911Y2190165D01*
X7040434Y2209212D01*
X7049958Y2218736D01*
X7069006Y2228260D01*
X7307101Y2228260D02*
X7269006Y2228260D01*
X7249958Y2218736D01*
X7240434Y2209212D01*
X7221387Y2180641D01*
X7211863Y2142546D01*
X7211863Y2066355D01*
X7221387Y2047308D01*
X7230911Y2037784D01*
X7249958Y2028260D01*
X7288053Y2028260D01*
X7307101Y2037784D01*
X7316625Y2047308D01*
X7326149Y2066355D01*
X7326149Y2113974D01*
X7316625Y2133022D01*
X7307101Y2142546D01*
X7288053Y2152070D01*
X7249958Y2152070D01*
X7230911Y2142546D01*
X7221387Y2133022D01*
X7211863Y2113974D01*
X7392815Y2228260D02*
X7526149Y2228260D01*
X7440434Y2028260D01*
X7640434Y2228260D02*
X7659482Y2228260D01*
X7678530Y2218736D01*
X7688053Y2209212D01*
X7697577Y2190165D01*
X7707101Y2152070D01*
X7707101Y2104451D01*
X7697577Y2066355D01*
X7688053Y2047308D01*
X7678530Y2037784D01*
X7659482Y2028260D01*
X7640434Y2028260D01*
X7621387Y2037784D01*
X7611863Y2047308D01*
X7602339Y2066355D01*
X7592815Y2104451D01*
X7592815Y2152070D01*
X7602339Y2190165D01*
X7611863Y2209212D01*
X7621387Y2218736D01*
X7640434Y2228260D01*
X7783291Y2228260D02*
X7783291Y2190165D01*
X7859482Y2228260D02*
X7859482Y2190165D01*
X8154720Y1952070D02*
X8145196Y1961593D01*
X8126149Y1990165D01*
X8116625Y2009212D01*
X8107101Y2037784D01*
X8097577Y2085403D01*
X8097577Y2123498D01*
X8107101Y2171117D01*
X8116625Y2199689D01*
X8126149Y2218736D01*
X8145196Y2247308D01*
X8154720Y2256832D01*
X8316625Y2228260D02*
X8278530Y2228260D01*
X8259482Y2218736D01*
X8249958Y2209212D01*
X8230911Y2180641D01*
X8221387Y2142546D01*
X8221387Y2066355D01*
X8230911Y2047308D01*
X8240434Y2037784D01*
X8259482Y2028260D01*
X8297577Y2028260D01*
X8316625Y2037784D01*
X8326149Y2047308D01*
X8335672Y2066355D01*
X8335672Y2113974D01*
X8326149Y2133022D01*
X8316625Y2142546D01*
X8297577Y2152070D01*
X8259482Y2152070D01*
X8240434Y2142546D01*
X8230911Y2133022D01*
X8221387Y2113974D01*
X8459482Y2228260D02*
X8478530Y2228260D01*
X8497577Y2218736D01*
X8507101Y2209212D01*
X8516625Y2190165D01*
X8526149Y2152070D01*
X8526149Y2104451D01*
X8516625Y2066355D01*
X8507101Y2047308D01*
X8497577Y2037784D01*
X8478530Y2028260D01*
X8459482Y2028260D01*
X8440434Y2037784D01*
X8430911Y2047308D01*
X8421387Y2066355D01*
X8411863Y2104451D01*
X8411863Y2152070D01*
X8421387Y2190165D01*
X8430911Y2209212D01*
X8440434Y2218736D01*
X8459482Y2228260D01*
X8764244Y2028260D02*
X8764244Y2228260D01*
X8849958Y2028260D02*
X8849958Y2133022D01*
X8840434Y2152070D01*
X8821387Y2161593D01*
X8792815Y2161593D01*
X8773768Y2152070D01*
X8764244Y2142546D01*
X8973768Y2028260D02*
X8954720Y2037784D01*
X8945196Y2047308D01*
X8935673Y2066355D01*
X8935673Y2123498D01*
X8945196Y2142546D01*
X8954720Y2152070D01*
X8973768Y2161593D01*
X9002339Y2161593D01*
X9021387Y2152070D01*
X9030911Y2142546D01*
X9040434Y2123498D01*
X9040434Y2066355D01*
X9030911Y2047308D01*
X9021387Y2037784D01*
X9002339Y2028260D01*
X8973768Y2028260D01*
X9154720Y2028260D02*
X9135673Y2037784D01*
X9126149Y2056831D01*
X9126149Y2228260D01*
X9307101Y2037784D02*
X9288053Y2028260D01*
X9249958Y2028260D01*
X9230911Y2037784D01*
X9221387Y2056831D01*
X9221387Y2133022D01*
X9230911Y2152070D01*
X9249958Y2161593D01*
X9288053Y2161593D01*
X9307101Y2152070D01*
X9316625Y2133022D01*
X9316625Y2113974D01*
X9221387Y2094927D01*
X9392815Y2037784D02*
X9411863Y2028260D01*
X9449958Y2028260D01*
X9469006Y2037784D01*
X9478530Y2056831D01*
X9478530Y2066355D01*
X9469006Y2085403D01*
X9449958Y2094927D01*
X9421387Y2094927D01*
X9402339Y2104451D01*
X9392815Y2123498D01*
X9392815Y2133022D01*
X9402339Y2152070D01*
X9421387Y2161593D01*
X9449958Y2161593D01*
X9469006Y2152070D01*
X9545196Y1952070D02*
X9554720Y1961593D01*
X9573768Y1990165D01*
X9583292Y2009212D01*
X9592815Y2037784D01*
X9602339Y2085403D01*
X9602339Y2123498D01*
X9592815Y2171117D01*
X9583292Y2199689D01*
X9573768Y2218736D01*
X9554720Y2247308D01*
X9545196Y2256832D01*
X9907101Y1952070D02*
X9897577Y1961593D01*
X9878530Y1990165D01*
X9869006Y2009212D01*
X9859482Y2037784D01*
X9849958Y2085403D01*
X9849958Y2123498D01*
X9859482Y2171117D01*
X9869006Y2199689D01*
X9878530Y2218736D01*
X9897577Y2247308D01*
X9907101Y2256832D01*
X9983292Y2161593D02*
X9983292Y2028260D01*
X9983292Y2142546D02*
X9992815Y2152070D01*
X10011863Y2161593D01*
X10040434Y2161593D01*
X10059482Y2152070D01*
X10069006Y2133022D01*
X10069006Y2028260D01*
X10192815Y2028260D02*
X10173768Y2037784D01*
X10164244Y2047308D01*
X10154720Y2066355D01*
X10154720Y2123498D01*
X10164244Y2142546D01*
X10173768Y2152070D01*
X10192815Y2161593D01*
X10221387Y2161593D01*
X10240434Y2152070D01*
X10249958Y2142546D01*
X10259482Y2123498D01*
X10259482Y2066355D01*
X10249958Y2047308D01*
X10240434Y2037784D01*
X10221387Y2028260D01*
X10192815Y2028260D01*
X10316625Y2161593D02*
X10392815Y2161593D01*
X10345196Y2228260D02*
X10345196Y2056831D01*
X10354720Y2037784D01*
X10373768Y2028260D01*
X10392815Y2028260D01*
X10611863Y2161593D02*
X10611863Y1961593D01*
X10611863Y2152070D02*
X10630911Y2161593D01*
X10669006Y2161593D01*
X10688053Y2152070D01*
X10697577Y2142546D01*
X10707101Y2123498D01*
X10707101Y2066355D01*
X10697577Y2047308D01*
X10688053Y2037784D01*
X10669006Y2028260D01*
X10630911Y2028260D01*
X10611863Y2037784D01*
X10821387Y2028260D02*
X10802339Y2037784D01*
X10792815Y2056831D01*
X10792815Y2228260D01*
X10983292Y2028260D02*
X10983292Y2133022D01*
X10973768Y2152070D01*
X10954720Y2161593D01*
X10916625Y2161593D01*
X10897577Y2152070D01*
X10983292Y2037784D02*
X10964244Y2028260D01*
X10916625Y2028260D01*
X10897577Y2037784D01*
X10888053Y2056831D01*
X10888053Y2075879D01*
X10897577Y2094927D01*
X10916625Y2104451D01*
X10964244Y2104451D01*
X10983292Y2113974D01*
X11049958Y2161593D02*
X11126149Y2161593D01*
X11078530Y2228260D02*
X11078530Y2056831D01*
X11088053Y2037784D01*
X11107101Y2028260D01*
X11126149Y2028260D01*
X11269006Y2037784D02*
X11249958Y2028260D01*
X11211863Y2028260D01*
X11192815Y2037784D01*
X11183292Y2056831D01*
X11183292Y2133022D01*
X11192815Y2152070D01*
X11211863Y2161593D01*
X11249958Y2161593D01*
X11269006Y2152070D01*
X11278530Y2133022D01*
X11278530Y2113974D01*
X11183292Y2094927D01*
X11449958Y2028260D02*
X11449958Y2228260D01*
X11449958Y2037784D02*
X11430911Y2028260D01*
X11392815Y2028260D01*
X11373768Y2037784D01*
X11364244Y2047308D01*
X11354720Y2066355D01*
X11354720Y2123498D01*
X11364244Y2142546D01*
X11373768Y2152070D01*
X11392815Y2161593D01*
X11430911Y2161593D01*
X11449958Y2152070D01*
X11526149Y1952070D02*
X11535672Y1961593D01*
X11554720Y1990165D01*
X11564244Y2009212D01*
X11573768Y2037784D01*
X11583291Y2085403D01*
X11583291Y2123498D01*
X11573768Y2171117D01*
X11564244Y2199689D01*
X11554720Y2218736D01*
X11535672Y2247308D01*
X11526149Y2256832D01*
X4482815Y1928556D02*
X4482815Y1728556D01*
X4382815Y1828556D02*
X4582815Y1828556D01*
X4821387Y1938080D02*
X4945196Y1938080D01*
X4878530Y1861890D01*
X4907101Y1861890D01*
X4926149Y1852366D01*
X4935673Y1842842D01*
X4945196Y1823794D01*
X4945196Y1776175D01*
X4935673Y1757128D01*
X4926149Y1747604D01*
X4907101Y1738080D01*
X4849958Y1738080D01*
X4830911Y1747604D01*
X4821387Y1757128D01*
X5030911Y1757128D02*
X5040434Y1747604D01*
X5030911Y1738080D01*
X5021387Y1747604D01*
X5030911Y1757128D01*
X5030911Y1738080D01*
X5164244Y1938080D02*
X5183292Y1938080D01*
X5202339Y1928556D01*
X5211863Y1919032D01*
X5221387Y1899985D01*
X5230911Y1861890D01*
X5230911Y1814270D01*
X5221387Y1776175D01*
X5211863Y1757128D01*
X5202339Y1747604D01*
X5183292Y1738080D01*
X5164244Y1738080D01*
X5145196Y1747604D01*
X5135673Y1757128D01*
X5126149Y1776175D01*
X5116625Y1814270D01*
X5116625Y1861890D01*
X5126149Y1899985D01*
X5135673Y1919032D01*
X5145196Y1928556D01*
X5164244Y1938080D01*
X5354720Y1938080D02*
X5373768Y1938080D01*
X5392815Y1928556D01*
X5402339Y1919032D01*
X5411863Y1899985D01*
X5421387Y1861890D01*
X5421387Y1814270D01*
X5411863Y1776175D01*
X5402339Y1757128D01*
X5392815Y1747604D01*
X5373768Y1738080D01*
X5354720Y1738080D01*
X5335673Y1747604D01*
X5326149Y1757128D01*
X5316625Y1776175D01*
X5307101Y1814270D01*
X5307101Y1861890D01*
X5316625Y1899985D01*
X5326149Y1919032D01*
X5335673Y1928556D01*
X5354720Y1938080D01*
X5545196Y1938080D02*
X5564244Y1938080D01*
X5583292Y1928556D01*
X5592815Y1919032D01*
X5602339Y1899985D01*
X5611863Y1861890D01*
X5611863Y1814270D01*
X5602339Y1776175D01*
X5592815Y1757128D01*
X5583292Y1747604D01*
X5564244Y1738080D01*
X5545196Y1738080D01*
X5526149Y1747604D01*
X5516625Y1757128D01*
X5507101Y1776175D01*
X5497577Y1814270D01*
X5497577Y1861890D01*
X5507101Y1899985D01*
X5516625Y1919032D01*
X5526149Y1928556D01*
X5545196Y1938080D01*
X5697577Y1738080D02*
X5697577Y1871413D01*
X5697577Y1852366D02*
X5707101Y1861890D01*
X5726149Y1871413D01*
X5754720Y1871413D01*
X5773768Y1861890D01*
X5783291Y1842842D01*
X5783291Y1738080D01*
X5783291Y1842842D02*
X5792815Y1861890D01*
X5811863Y1871413D01*
X5840434Y1871413D01*
X5859482Y1861890D01*
X5869006Y1842842D01*
X5869006Y1738080D01*
X5964244Y1738080D02*
X5964244Y1871413D01*
X5964244Y1852366D02*
X5973768Y1861890D01*
X5992815Y1871413D01*
X6021387Y1871413D01*
X6040434Y1861890D01*
X6049958Y1842842D01*
X6049958Y1738080D01*
X6049958Y1842842D02*
X6059482Y1861890D01*
X6078530Y1871413D01*
X6107101Y1871413D01*
X6126149Y1861890D01*
X6135672Y1842842D01*
X6135672Y1738080D01*
X6526149Y1947604D02*
X6354720Y1690461D01*
X6783291Y1938080D02*
X6802339Y1938080D01*
X6821387Y1928556D01*
X6830911Y1919032D01*
X6840434Y1899985D01*
X6849958Y1861890D01*
X6849958Y1814270D01*
X6840434Y1776175D01*
X6830911Y1757128D01*
X6821387Y1747604D01*
X6802339Y1738080D01*
X6783291Y1738080D01*
X6764244Y1747604D01*
X6754720Y1757128D01*
X6745196Y1776175D01*
X6735672Y1814270D01*
X6735672Y1861890D01*
X6745196Y1899985D01*
X6754720Y1919032D01*
X6764244Y1928556D01*
X6783291Y1938080D01*
X6935672Y1757128D02*
X6945196Y1747604D01*
X6935672Y1738080D01*
X6926149Y1747604D01*
X6935672Y1757128D01*
X6935672Y1738080D01*
X7135672Y1738080D02*
X7021387Y1738080D01*
X7078530Y1738080D02*
X7078530Y1938080D01*
X7059482Y1909509D01*
X7040434Y1890461D01*
X7021387Y1880937D01*
X7326149Y1738080D02*
X7211863Y1738080D01*
X7269006Y1738080D02*
X7269006Y1938080D01*
X7249958Y1909509D01*
X7230911Y1890461D01*
X7211863Y1880937D01*
X7440434Y1852366D02*
X7421387Y1861890D01*
X7411863Y1871413D01*
X7402339Y1890461D01*
X7402339Y1899985D01*
X7411863Y1919032D01*
X7421387Y1928556D01*
X7440434Y1938080D01*
X7478530Y1938080D01*
X7497577Y1928556D01*
X7507101Y1919032D01*
X7516625Y1899985D01*
X7516625Y1890461D01*
X7507101Y1871413D01*
X7497577Y1861890D01*
X7478530Y1852366D01*
X7440434Y1852366D01*
X7421387Y1842842D01*
X7411863Y1833318D01*
X7402339Y1814270D01*
X7402339Y1776175D01*
X7411863Y1757128D01*
X7421387Y1747604D01*
X7440434Y1738080D01*
X7478530Y1738080D01*
X7497577Y1747604D01*
X7507101Y1757128D01*
X7516625Y1776175D01*
X7516625Y1814270D01*
X7507101Y1833318D01*
X7497577Y1842842D01*
X7478530Y1852366D01*
X7707101Y1738080D02*
X7592815Y1738080D01*
X7649958Y1738080D02*
X7649958Y1938080D01*
X7630911Y1909509D01*
X7611863Y1890461D01*
X7592815Y1880937D01*
X7783291Y1938080D02*
X7783291Y1899985D01*
X7859482Y1938080D02*
X7859482Y1899985D01*
X8154720Y1661890D02*
X8145196Y1671413D01*
X8126149Y1699985D01*
X8116625Y1719032D01*
X8107101Y1747604D01*
X8097577Y1795223D01*
X8097577Y1833318D01*
X8107101Y1880937D01*
X8116625Y1909509D01*
X8126149Y1928556D01*
X8145196Y1957128D01*
X8154720Y1966651D01*
X8316625Y1938080D02*
X8278530Y1938080D01*
X8259482Y1928556D01*
X8249958Y1919032D01*
X8230911Y1890461D01*
X8221387Y1852366D01*
X8221387Y1776175D01*
X8230911Y1757128D01*
X8240434Y1747604D01*
X8259482Y1738080D01*
X8297577Y1738080D01*
X8316625Y1747604D01*
X8326149Y1757128D01*
X8335672Y1776175D01*
X8335672Y1823794D01*
X8326149Y1842842D01*
X8316625Y1852366D01*
X8297577Y1861890D01*
X8259482Y1861890D01*
X8240434Y1852366D01*
X8230911Y1842842D01*
X8221387Y1823794D01*
X8459482Y1938080D02*
X8478530Y1938080D01*
X8497577Y1928556D01*
X8507101Y1919032D01*
X8516625Y1899985D01*
X8526149Y1861890D01*
X8526149Y1814270D01*
X8516625Y1776175D01*
X8507101Y1757128D01*
X8497577Y1747604D01*
X8478530Y1738080D01*
X8459482Y1738080D01*
X8440434Y1747604D01*
X8430911Y1757128D01*
X8421387Y1776175D01*
X8411863Y1814270D01*
X8411863Y1861890D01*
X8421387Y1899985D01*
X8430911Y1919032D01*
X8440434Y1928556D01*
X8459482Y1938080D01*
X8764244Y1738080D02*
X8764244Y1938080D01*
X8849958Y1738080D02*
X8849958Y1842842D01*
X8840434Y1861890D01*
X8821387Y1871413D01*
X8792815Y1871413D01*
X8773768Y1861890D01*
X8764244Y1852366D01*
X8973768Y1738080D02*
X8954720Y1747604D01*
X8945196Y1757128D01*
X8935673Y1776175D01*
X8935673Y1833318D01*
X8945196Y1852366D01*
X8954720Y1861890D01*
X8973768Y1871413D01*
X9002339Y1871413D01*
X9021387Y1861890D01*
X9030911Y1852366D01*
X9040434Y1833318D01*
X9040434Y1776175D01*
X9030911Y1757128D01*
X9021387Y1747604D01*
X9002339Y1738080D01*
X8973768Y1738080D01*
X9154720Y1738080D02*
X9135673Y1747604D01*
X9126149Y1766651D01*
X9126149Y1938080D01*
X9307101Y1747604D02*
X9288053Y1738080D01*
X9249958Y1738080D01*
X9230911Y1747604D01*
X9221387Y1766651D01*
X9221387Y1842842D01*
X9230911Y1861890D01*
X9249958Y1871413D01*
X9288053Y1871413D01*
X9307101Y1861890D01*
X9316625Y1842842D01*
X9316625Y1823794D01*
X9221387Y1804747D01*
X9392815Y1747604D02*
X9411863Y1738080D01*
X9449958Y1738080D01*
X9469006Y1747604D01*
X9478530Y1766651D01*
X9478530Y1776175D01*
X9469006Y1795223D01*
X9449958Y1804747D01*
X9421387Y1804747D01*
X9402339Y1814270D01*
X9392815Y1833318D01*
X9392815Y1842842D01*
X9402339Y1861890D01*
X9421387Y1871413D01*
X9449958Y1871413D01*
X9469006Y1861890D01*
X9545196Y1661890D02*
X9554720Y1671413D01*
X9573768Y1699985D01*
X9583292Y1719032D01*
X9592815Y1747604D01*
X9602339Y1795223D01*
X9602339Y1833318D01*
X9592815Y1880937D01*
X9583292Y1909509D01*
X9573768Y1928556D01*
X9554720Y1957128D01*
X9545196Y1966651D01*
X9907101Y1661890D02*
X9897577Y1671413D01*
X9878530Y1699985D01*
X9869006Y1719032D01*
X9859482Y1747604D01*
X9849958Y1795223D01*
X9849958Y1833318D01*
X9859482Y1880937D01*
X9869006Y1909509D01*
X9878530Y1928556D01*
X9897577Y1957128D01*
X9907101Y1966651D01*
X9983292Y1871413D02*
X9983292Y1738080D01*
X9983292Y1852366D02*
X9992815Y1861890D01*
X10011863Y1871413D01*
X10040434Y1871413D01*
X10059482Y1861890D01*
X10069006Y1842842D01*
X10069006Y1738080D01*
X10192815Y1738080D02*
X10173768Y1747604D01*
X10164244Y1757128D01*
X10154720Y1776175D01*
X10154720Y1833318D01*
X10164244Y1852366D01*
X10173768Y1861890D01*
X10192815Y1871413D01*
X10221387Y1871413D01*
X10240434Y1861890D01*
X10249958Y1852366D01*
X10259482Y1833318D01*
X10259482Y1776175D01*
X10249958Y1757128D01*
X10240434Y1747604D01*
X10221387Y1738080D01*
X10192815Y1738080D01*
X10316625Y1871413D02*
X10392815Y1871413D01*
X10345196Y1938080D02*
X10345196Y1766651D01*
X10354720Y1747604D01*
X10373768Y1738080D01*
X10392815Y1738080D01*
X10611863Y1871413D02*
X10611863Y1671413D01*
X10611863Y1861890D02*
X10630911Y1871413D01*
X10669006Y1871413D01*
X10688053Y1861890D01*
X10697577Y1852366D01*
X10707101Y1833318D01*
X10707101Y1776175D01*
X10697577Y1757128D01*
X10688053Y1747604D01*
X10669006Y1738080D01*
X10630911Y1738080D01*
X10611863Y1747604D01*
X10821387Y1738080D02*
X10802339Y1747604D01*
X10792815Y1766651D01*
X10792815Y1938080D01*
X10983292Y1738080D02*
X10983292Y1842842D01*
X10973768Y1861890D01*
X10954720Y1871413D01*
X10916625Y1871413D01*
X10897577Y1861890D01*
X10983292Y1747604D02*
X10964244Y1738080D01*
X10916625Y1738080D01*
X10897577Y1747604D01*
X10888053Y1766651D01*
X10888053Y1785699D01*
X10897577Y1804747D01*
X10916625Y1814270D01*
X10964244Y1814270D01*
X10983292Y1823794D01*
X11049958Y1871413D02*
X11126149Y1871413D01*
X11078530Y1938080D02*
X11078530Y1766651D01*
X11088053Y1747604D01*
X11107101Y1738080D01*
X11126149Y1738080D01*
X11269006Y1747604D02*
X11249958Y1738080D01*
X11211863Y1738080D01*
X11192815Y1747604D01*
X11183292Y1766651D01*
X11183292Y1842842D01*
X11192815Y1861890D01*
X11211863Y1871413D01*
X11249958Y1871413D01*
X11269006Y1861890D01*
X11278530Y1842842D01*
X11278530Y1823794D01*
X11183292Y1804747D01*
X11449958Y1738080D02*
X11449958Y1938080D01*
X11449958Y1747604D02*
X11430911Y1738080D01*
X11392815Y1738080D01*
X11373768Y1747604D01*
X11364244Y1757128D01*
X11354720Y1776175D01*
X11354720Y1833318D01*
X11364244Y1852366D01*
X11373768Y1861890D01*
X11392815Y1871413D01*
X11430911Y1871413D01*
X11449958Y1861890D01*
X11526149Y1661890D02*
X11535672Y1671413D01*
X11554720Y1699985D01*
X11564244Y1719032D01*
X11573768Y1747604D01*
X11583291Y1795223D01*
X11583291Y1833318D01*
X11573768Y1880937D01*
X11564244Y1909509D01*
X11554720Y1928556D01*
X11535672Y1957128D01*
X11526149Y1966651D01*
X4553527Y1437845D02*
X4553527Y1579268D01*
X4412104Y1579268D01*
X4412104Y1437845D01*
X4553527Y1437845D01*
X4821387Y1618080D02*
X4945196Y1618080D01*
X4878530Y1541890D01*
X4907101Y1541890D01*
X4926149Y1532366D01*
X4935673Y1522842D01*
X4945196Y1503794D01*
X4945196Y1456175D01*
X4935673Y1437128D01*
X4926149Y1427604D01*
X4907101Y1418080D01*
X4849958Y1418080D01*
X4830911Y1427604D01*
X4821387Y1437128D01*
X5030911Y1437128D02*
X5040434Y1427604D01*
X5030911Y1418080D01*
X5021387Y1427604D01*
X5030911Y1437128D01*
X5030911Y1418080D01*
X5211863Y1551413D02*
X5211863Y1418080D01*
X5164244Y1627604D02*
X5116625Y1484747D01*
X5240434Y1484747D01*
X5307101Y1599032D02*
X5316625Y1608556D01*
X5335673Y1618080D01*
X5383292Y1618080D01*
X5402339Y1608556D01*
X5411863Y1599032D01*
X5421387Y1579985D01*
X5421387Y1560937D01*
X5411863Y1532366D01*
X5297577Y1418080D01*
X5421387Y1418080D01*
X5516625Y1418080D02*
X5554720Y1418080D01*
X5573768Y1427604D01*
X5583292Y1437128D01*
X5602339Y1465699D01*
X5611863Y1503794D01*
X5611863Y1579985D01*
X5602339Y1599032D01*
X5592815Y1608556D01*
X5573768Y1618080D01*
X5535673Y1618080D01*
X5516625Y1608556D01*
X5507101Y1599032D01*
X5497577Y1579985D01*
X5497577Y1532366D01*
X5507101Y1513318D01*
X5516625Y1503794D01*
X5535673Y1494270D01*
X5573768Y1494270D01*
X5592815Y1503794D01*
X5602339Y1513318D01*
X5611863Y1532366D01*
X5697577Y1418080D02*
X5697577Y1551413D01*
X5697577Y1532366D02*
X5707101Y1541890D01*
X5726149Y1551413D01*
X5754720Y1551413D01*
X5773768Y1541890D01*
X5783291Y1522842D01*
X5783291Y1418080D01*
X5783291Y1522842D02*
X5792815Y1541890D01*
X5811863Y1551413D01*
X5840434Y1551413D01*
X5859482Y1541890D01*
X5869006Y1522842D01*
X5869006Y1418080D01*
X5964244Y1418080D02*
X5964244Y1551413D01*
X5964244Y1532366D02*
X5973768Y1541890D01*
X5992815Y1551413D01*
X6021387Y1551413D01*
X6040434Y1541890D01*
X6049958Y1522842D01*
X6049958Y1418080D01*
X6049958Y1522842D02*
X6059482Y1541890D01*
X6078530Y1551413D01*
X6107101Y1551413D01*
X6126149Y1541890D01*
X6135672Y1522842D01*
X6135672Y1418080D01*
X6526149Y1627604D02*
X6354720Y1370461D01*
X6783291Y1618080D02*
X6802339Y1618080D01*
X6821387Y1608556D01*
X6830911Y1599032D01*
X6840434Y1579985D01*
X6849958Y1541890D01*
X6849958Y1494270D01*
X6840434Y1456175D01*
X6830911Y1437128D01*
X6821387Y1427604D01*
X6802339Y1418080D01*
X6783291Y1418080D01*
X6764244Y1427604D01*
X6754720Y1437128D01*
X6745196Y1456175D01*
X6735672Y1494270D01*
X6735672Y1541890D01*
X6745196Y1579985D01*
X6754720Y1599032D01*
X6764244Y1608556D01*
X6783291Y1618080D01*
X6935672Y1437128D02*
X6945196Y1427604D01*
X6935672Y1418080D01*
X6926149Y1427604D01*
X6935672Y1437128D01*
X6935672Y1418080D01*
X7135672Y1418080D02*
X7021387Y1418080D01*
X7078530Y1418080D02*
X7078530Y1618080D01*
X7059482Y1589509D01*
X7040434Y1570461D01*
X7021387Y1560937D01*
X7202339Y1618080D02*
X7326149Y1618080D01*
X7259482Y1541890D01*
X7288053Y1541890D01*
X7307101Y1532366D01*
X7316625Y1522842D01*
X7326149Y1503794D01*
X7326149Y1456175D01*
X7316625Y1437128D01*
X7307101Y1427604D01*
X7288053Y1418080D01*
X7230911Y1418080D01*
X7211863Y1427604D01*
X7202339Y1437128D01*
X7507101Y1618080D02*
X7411863Y1618080D01*
X7402339Y1522842D01*
X7411863Y1532366D01*
X7430911Y1541890D01*
X7478530Y1541890D01*
X7497577Y1532366D01*
X7507101Y1522842D01*
X7516625Y1503794D01*
X7516625Y1456175D01*
X7507101Y1437128D01*
X7497577Y1427604D01*
X7478530Y1418080D01*
X7430911Y1418080D01*
X7411863Y1427604D01*
X7402339Y1437128D01*
X7640434Y1618080D02*
X7659482Y1618080D01*
X7678530Y1608556D01*
X7688053Y1599032D01*
X7697577Y1579985D01*
X7707101Y1541890D01*
X7707101Y1494270D01*
X7697577Y1456175D01*
X7688053Y1437128D01*
X7678530Y1427604D01*
X7659482Y1418080D01*
X7640434Y1418080D01*
X7621387Y1427604D01*
X7611863Y1437128D01*
X7602339Y1456175D01*
X7592815Y1494270D01*
X7592815Y1541890D01*
X7602339Y1579985D01*
X7611863Y1599032D01*
X7621387Y1608556D01*
X7640434Y1618080D01*
X7783291Y1618080D02*
X7783291Y1579985D01*
X7859482Y1618080D02*
X7859482Y1579985D01*
X8154720Y1341890D02*
X8145196Y1351413D01*
X8126149Y1379985D01*
X8116625Y1399032D01*
X8107101Y1427604D01*
X8097577Y1475223D01*
X8097577Y1513318D01*
X8107101Y1560937D01*
X8116625Y1589509D01*
X8126149Y1608556D01*
X8145196Y1637128D01*
X8154720Y1646651D01*
X8211863Y1618080D02*
X8335672Y1618080D01*
X8269006Y1541890D01*
X8297577Y1541890D01*
X8316625Y1532366D01*
X8326149Y1522842D01*
X8335672Y1503794D01*
X8335672Y1456175D01*
X8326149Y1437128D01*
X8316625Y1427604D01*
X8297577Y1418080D01*
X8240434Y1418080D01*
X8221387Y1427604D01*
X8211863Y1437128D01*
X8459482Y1618080D02*
X8478530Y1618080D01*
X8497577Y1608556D01*
X8507101Y1599032D01*
X8516625Y1579985D01*
X8526149Y1541890D01*
X8526149Y1494270D01*
X8516625Y1456175D01*
X8507101Y1437128D01*
X8497577Y1427604D01*
X8478530Y1418080D01*
X8459482Y1418080D01*
X8440434Y1427604D01*
X8430911Y1437128D01*
X8421387Y1456175D01*
X8411863Y1494270D01*
X8411863Y1541890D01*
X8421387Y1579985D01*
X8430911Y1599032D01*
X8440434Y1608556D01*
X8459482Y1618080D01*
X8764244Y1418080D02*
X8764244Y1618080D01*
X8849958Y1418080D02*
X8849958Y1522842D01*
X8840434Y1541890D01*
X8821387Y1551413D01*
X8792815Y1551413D01*
X8773768Y1541890D01*
X8764244Y1532366D01*
X8973768Y1418080D02*
X8954720Y1427604D01*
X8945196Y1437128D01*
X8935673Y1456175D01*
X8935673Y1513318D01*
X8945196Y1532366D01*
X8954720Y1541890D01*
X8973768Y1551413D01*
X9002339Y1551413D01*
X9021387Y1541890D01*
X9030911Y1532366D01*
X9040434Y1513318D01*
X9040434Y1456175D01*
X9030911Y1437128D01*
X9021387Y1427604D01*
X9002339Y1418080D01*
X8973768Y1418080D01*
X9154720Y1418080D02*
X9135673Y1427604D01*
X9126149Y1446651D01*
X9126149Y1618080D01*
X9307101Y1427604D02*
X9288053Y1418080D01*
X9249958Y1418080D01*
X9230911Y1427604D01*
X9221387Y1446651D01*
X9221387Y1522842D01*
X9230911Y1541890D01*
X9249958Y1551413D01*
X9288053Y1551413D01*
X9307101Y1541890D01*
X9316625Y1522842D01*
X9316625Y1503794D01*
X9221387Y1484747D01*
X9392815Y1427604D02*
X9411863Y1418080D01*
X9449958Y1418080D01*
X9469006Y1427604D01*
X9478530Y1446651D01*
X9478530Y1456175D01*
X9469006Y1475223D01*
X9449958Y1484747D01*
X9421387Y1484747D01*
X9402339Y1494270D01*
X9392815Y1513318D01*
X9392815Y1522842D01*
X9402339Y1541890D01*
X9421387Y1551413D01*
X9449958Y1551413D01*
X9469006Y1541890D01*
X9545196Y1341890D02*
X9554720Y1351413D01*
X9573768Y1379985D01*
X9583292Y1399032D01*
X9592815Y1427604D01*
X9602339Y1475223D01*
X9602339Y1513318D01*
X9592815Y1560937D01*
X9583292Y1589509D01*
X9573768Y1608556D01*
X9554720Y1637128D01*
X9545196Y1646651D01*
X9907101Y1341890D02*
X9897577Y1351413D01*
X9878530Y1379985D01*
X9869006Y1399032D01*
X9859482Y1427604D01*
X9849958Y1475223D01*
X9849958Y1513318D01*
X9859482Y1560937D01*
X9869006Y1589509D01*
X9878530Y1608556D01*
X9897577Y1637128D01*
X9907101Y1646651D01*
X9983292Y1551413D02*
X9983292Y1418080D01*
X9983292Y1532366D02*
X9992815Y1541890D01*
X10011863Y1551413D01*
X10040434Y1551413D01*
X10059482Y1541890D01*
X10069006Y1522842D01*
X10069006Y1418080D01*
X10192815Y1418080D02*
X10173768Y1427604D01*
X10164244Y1437128D01*
X10154720Y1456175D01*
X10154720Y1513318D01*
X10164244Y1532366D01*
X10173768Y1541890D01*
X10192815Y1551413D01*
X10221387Y1551413D01*
X10240434Y1541890D01*
X10249958Y1532366D01*
X10259482Y1513318D01*
X10259482Y1456175D01*
X10249958Y1437128D01*
X10240434Y1427604D01*
X10221387Y1418080D01*
X10192815Y1418080D01*
X10316625Y1551413D02*
X10392815Y1551413D01*
X10345196Y1618080D02*
X10345196Y1446651D01*
X10354720Y1427604D01*
X10373768Y1418080D01*
X10392815Y1418080D01*
X10611863Y1551413D02*
X10611863Y1351413D01*
X10611863Y1541890D02*
X10630911Y1551413D01*
X10669006Y1551413D01*
X10688053Y1541890D01*
X10697577Y1532366D01*
X10707101Y1513318D01*
X10707101Y1456175D01*
X10697577Y1437128D01*
X10688053Y1427604D01*
X10669006Y1418080D01*
X10630911Y1418080D01*
X10611863Y1427604D01*
X10821387Y1418080D02*
X10802339Y1427604D01*
X10792815Y1446651D01*
X10792815Y1618080D01*
X10983292Y1418080D02*
X10983292Y1522842D01*
X10973768Y1541890D01*
X10954720Y1551413D01*
X10916625Y1551413D01*
X10897577Y1541890D01*
X10983292Y1427604D02*
X10964244Y1418080D01*
X10916625Y1418080D01*
X10897577Y1427604D01*
X10888053Y1446651D01*
X10888053Y1465699D01*
X10897577Y1484747D01*
X10916625Y1494270D01*
X10964244Y1494270D01*
X10983292Y1503794D01*
X11049958Y1551413D02*
X11126149Y1551413D01*
X11078530Y1618080D02*
X11078530Y1446651D01*
X11088053Y1427604D01*
X11107101Y1418080D01*
X11126149Y1418080D01*
X11269006Y1427604D02*
X11249958Y1418080D01*
X11211863Y1418080D01*
X11192815Y1427604D01*
X11183292Y1446651D01*
X11183292Y1522842D01*
X11192815Y1541890D01*
X11211863Y1551413D01*
X11249958Y1551413D01*
X11269006Y1541890D01*
X11278530Y1522842D01*
X11278530Y1503794D01*
X11183292Y1484747D01*
X11449958Y1418080D02*
X11449958Y1618080D01*
X11449958Y1427604D02*
X11430911Y1418080D01*
X11392815Y1418080D01*
X11373768Y1427604D01*
X11364244Y1437128D01*
X11354720Y1456175D01*
X11354720Y1513318D01*
X11364244Y1532366D01*
X11373768Y1541890D01*
X11392815Y1551413D01*
X11430911Y1551413D01*
X11449958Y1541890D01*
X11526149Y1341890D02*
X11535672Y1351413D01*
X11554720Y1379985D01*
X11564244Y1399032D01*
X11573768Y1427604D01*
X11583291Y1475223D01*
X11583291Y1513318D01*
X11573768Y1560937D01*
X11564244Y1589509D01*
X11554720Y1608556D01*
X11535672Y1637128D01*
X11526149Y1646651D01*
M02*
