  0
SECTION
  2
HEADER
  9
$ANGBASE
  50
0.0
  9
$ANGDIR
  70
1
  9
$MEASUREMENT
  70
1
  0
ENDSEC
  0
SECTION
  2
TABLES
  0
TABLE
  2
LTYPE
  70
4
  0
LTYPE
  5
40F
  2
CONTINUOUS
  70
0
  3
Solid line
  72
65
  73
0
  40
0.0
  0
LTYPE
  5
410
  2
DASHDOT
 70
0
  3
Dash Dot ____ _ ____ _
 72
65
 73
4
 40
2.0
 49
1.25
 49
-0.25
 49
0.25
 49
-0.25
  0
LTYPE
  5
411
  2
DASHED
 70
0
  3
Dashed __ __ __ __ __
 72
65
 73
2
 40
0.75
 49
0.5
 49
-0.25
  0
LTYPE
  5
43B
  2
DOTTED
 70
0
  3
Dotted .  .  .  .
 72
65
 73
2
 40
0.2
 49
0.0
 49
-0.2
  0
ENDTAB
  0
TABLE
  2
STYLE
  70
4
  0
STYLE
  2
KICAD
  70
0
  40
0
  41
1
  42
1
  50
0
  71
0
  3
isocp.shx
  0
STYLE
  2
KICADB
  70
0
  40
0
  41
1
  42
1
  50
0
  71
0
  3
isocp.shx
  0
STYLE
  2
KICADI
  70
0
  40
0
  41
1
  42
1
  50
15
  71
0
  3
isocp.shx
  0
STYLE
  2
KICADBI
  70
0
  40
0
  41
1
  42
1
  50
15
  71
0
  3
isocp.shx
  0
ENDTAB
  0
TABLE
  2
LAYER
  70
1
  0
LAYER
  2
BLACK
  70
0
  62
7
  6
CONTINUOUS
  0
ENDTAB
  0
ENDSEC
  0
SECTION
  2
ENTITIES
0
LINE
8
BLACK
6
CONTINUOUS
10
197.803
20
-147.196
11
301.991
21
-147.196
0
ARC
8
BLACK
10
197.803
20
-144.196
40
2.99997
50
-180.001
51
-89.9998
0
LINE
8
BLACK
6
CONTINUOUS
10
197.803
20
-56.5814
11
301.991
21
-56.5814
0
ARC
8
BLACK
10
301.991
20
-144.196
40
2.9999
50
-90.0019
51
0.000630274
0
LINE
8
BLACK
6
CONTINUOUS
10
194.803
20
-144.196
11
194.803
21
-59.5814
0
LINE
8
BLACK
6
CONTINUOUS
10
304.991
20
-144.196
11
304.991
21
-59.5814
0
ARC
8
BLACK
10
301.991
20
-59.5814
40
2.99998
50
-0.000420169
51
90
0
ARC
8
BLACK
10
197.803
20
-59.5814
40
2.99999
50
-270
51
-180
0
LINE
8
BLACK
6
CONTINUOUS
10
203.001
20
-58.6564
11
203.901
21
-59.5564
0
LINE
8
BLACK
6
CONTINUOUS
10
203.901
20
-58.6564
11
203.001
21
-59.5564
0
LINE
8
BLACK
6
CONTINUOUS
10
206.001
20
-58.6564
11
206.901
21
-59.5564
0
LINE
8
BLACK
6
CONTINUOUS
10
206.901
20
-58.6564
11
206.001
21
-59.5564
0
CIRCLE
8
BLACK
10
201.353
20
-100.304
40
0.8509
0
CIRCLE
8
BLACK
10
201.353
20
-100.304
40
0.8509
0
CIRCLE
8
BLACK
10
206.908
20
-118.474
40
0.8509
0
CIRCLE
8
BLACK
10
206.908
20
-118.474
40
0.8509
0
CIRCLE
8
BLACK
10
211.069
20
-97.3338
40
0.8509
0
CIRCLE
8
BLACK
10
211.069
20
-97.3338
40
0.8509
0
CIRCLE
8
BLACK
10
216.624
20
-115.504
40
0.8509
0
CIRCLE
8
BLACK
10
216.624
20
-115.504
40
0.8509
0
CIRCLE
8
BLACK
10
220.524
20
-76.8593
40
0.8509
0
CIRCLE
8
BLACK
10
220.524
20
-76.8593
40
0.8509
0
CIRCLE
8
BLACK
10
223.824
20
-95.5706
40
0.8509
0
CIRCLE
8
BLACK
10
223.824
20
-95.5706
40
0.8509
0
CIRCLE
8
BLACK
10
227.123
20
-114.282
40
0.8509
0
CIRCLE
8
BLACK
10
227.123
20
-114.282
40
0.8509
0
CIRCLE
8
BLACK
10
230.53
20
-75.095
40
0.8509
0
CIRCLE
8
BLACK
10
230.53
20
-75.095
40
0.8509
0
CIRCLE
8
BLACK
10
233.829
20
-93.8064
40
0.8509
0
CIRCLE
8
BLACK
10
233.829
20
-93.8064
40
0.8509
0
CIRCLE
8
BLACK
10
237.129
20
-112.518
40
0.8509
0
CIRCLE
8
BLACK
10
237.129
20
-112.518
40
0.8509
0
CIRCLE
8
BLACK
10
242.374
20
-66.0208
40
0.8509
0
CIRCLE
8
BLACK
10
242.374
20
-66.0208
40
0.8509
0
CIRCLE
8
BLACK
10
244.03
20
-84.9485
40
0.8509
0
CIRCLE
8
BLACK
10
244.03
20
-84.9485
40
0.8509
0
CIRCLE
8
BLACK
10
245.686
20
-103.876
40
0.8509
0
CIRCLE
8
BLACK
10
245.686
20
-103.876
40
0.8509
0
CIRCLE
8
BLACK
10
252.496
20
-65.1353
40
0.8509
0
CIRCLE
8
BLACK
10
252.496
20
-65.1353
40
0.8509
0
CIRCLE
8
BLACK
10
254.151
20
-84.063
40
0.8509
0
CIRCLE
8
BLACK
10
254.151
20
-84.063
40
0.8509
0
CIRCLE
8
BLACK
10
255.807
20
-102.991
40
0.8509
0
CIRCLE
8
BLACK
10
255.807
20
-102.991
40
0.8509
0
CIRCLE
8
BLACK
10
266.036
20
-77.9864
40
0.8509
0
CIRCLE
8
BLACK
10
266.036
20
-77.9864
40
0.8509
0
CIRCLE
8
BLACK
10
266.036
20
-96.9864
40
0.8509
0
CIRCLE
8
BLACK
10
266.036
20
-96.9864
40
0.8509
0
CIRCLE
8
BLACK
10
266.036
20
-115.986
40
0.8509
0
CIRCLE
8
BLACK
10
266.036
20
-115.986
40
0.8509
0
CIRCLE
8
BLACK
10
270.661
20
-136.986
40
0.8509
0
CIRCLE
8
BLACK
10
270.661
20
-136.986
40
0.8509
0
CIRCLE
8
BLACK
10
276.196
20
-77.9864
40
0.8509
0
CIRCLE
8
BLACK
10
276.196
20
-77.9864
40
0.8509
0
CIRCLE
8
BLACK
10
276.196
20
-96.9864
40
0.8509
0
CIRCLE
8
BLACK
10
276.196
20
-96.9864
40
0.8509
0
CIRCLE
8
BLACK
10
276.196
20
-115.986
40
0.8509
0
CIRCLE
8
BLACK
10
276.196
20
-115.986
40
0.8509
0
CIRCLE
8
BLACK
10
280.821
20
-136.986
40
0.8509
0
CIRCLE
8
BLACK
10
280.821
20
-136.986
40
0.8509
0
CIRCLE
8
BLACK
10
285.436
20
-89.3864
40
0.8509
0
CIRCLE
8
BLACK
10
285.436
20
-89.3864
40
0.8509
0
CIRCLE
8
BLACK
10
285.436
20
-108.386
40
0.8509
0
CIRCLE
8
BLACK
10
285.436
20
-108.386
40
0.8509
0
CIRCLE
8
BLACK
10
290.061
20
-138.696
40
0.8509
0
CIRCLE
8
BLACK
10
290.061
20
-138.696
40
0.8509
0
CIRCLE
8
BLACK
10
295.596
20
-89.3864
40
0.8509
0
CIRCLE
8
BLACK
10
295.596
20
-89.3864
40
0.8509
0
CIRCLE
8
BLACK
10
295.596
20
-108.386
40
0.8509
0
CIRCLE
8
BLACK
10
295.596
20
-108.386
40
0.8509
0
CIRCLE
8
BLACK
10
300.221
20
-138.696
40
0.8509
0
CIRCLE
8
BLACK
10
300.221
20
-138.696
40
0.8509
0
LINE
8
BLACK
6
CONTINUOUS
10
201.825
20
-96.004
11
201.825
21
-99.004
0
LINE
8
BLACK
6
CONTINUOUS
10
200.325
20
-97.504
11
203.325
21
-97.504
0
LINE
8
BLACK
6
CONTINUOUS
10
202.297
20
-93.2036
11
202.297
21
-96.2036
0
LINE
8
BLACK
6
CONTINUOUS
10
200.797
20
-94.7036
11
203.797
21
-94.7036
0
LINE
8
BLACK
6
CONTINUOUS
10
207.155
20
-91.7184
11
207.155
21
-94.7184
0
LINE
8
BLACK
6
CONTINUOUS
10
205.655
20
-93.2184
11
208.655
21
-93.2184
0
LINE
8
BLACK
6
CONTINUOUS
10
207.38
20
-114.174
11
207.38
21
-117.174
0
LINE
8
BLACK
6
CONTINUOUS
10
205.88
20
-115.674
11
208.88
21
-115.674
0
LINE
8
BLACK
6
CONTINUOUS
10
207.852
20
-111.373
11
207.852
21
-114.373
0
LINE
8
BLACK
6
CONTINUOUS
10
206.352
20
-112.873
11
209.352
21
-112.873
0
LINE
8
BLACK
6
CONTINUOUS
10
209.112
20
-93.7761
11
209.112
21
-96.7761
0
LINE
8
BLACK
6
CONTINUOUS
10
207.612
20
-95.2761
11
210.612
21
-95.2761
0
LINE
8
BLACK
6
CONTINUOUS
10
212.71
20
-109.888
11
212.71
21
-112.888
0
LINE
8
BLACK
6
CONTINUOUS
10
211.21
20
-111.388
11
214.21
21
-111.388
0
LINE
8
BLACK
6
CONTINUOUS
10
214.667
20
-111.946
11
214.667
21
-114.946
0
LINE
8
BLACK
6
CONTINUOUS
10
213.167
20
-113.446
11
216.167
21
-113.446
0
LINE
8
BLACK
6
CONTINUOUS
10
221.334
20
-72.6373
11
221.334
21
-75.6373
0
LINE
8
BLACK
6
CONTINUOUS
10
219.834
20
-74.1373
11
222.834
21
-74.1373
0
LINE
8
BLACK
6
CONTINUOUS
10
222.144
20
-69.9154
11
222.144
21
-72.9154
0
LINE
8
BLACK
6
CONTINUOUS
10
220.644
20
-71.4154
11
223.644
21
-71.4154
0
LINE
8
BLACK
6
CONTINUOUS
10
224.633
20
-91.3487
11
224.633
21
-94.3487
0
LINE
8
BLACK
6
CONTINUOUS
10
223.133
20
-92.8487
11
226.133
21
-92.8487
0
LINE
8
BLACK
6
CONTINUOUS
10
225.443
20
-88.6267
11
225.443
21
-91.6267
0
LINE
8
BLACK
6
CONTINUOUS
10
223.943
20
-90.1267
11
226.943
21
-90.1267
0
LINE
8
BLACK
6
CONTINUOUS
10
227.146
20
-69.0333
11
227.146
21
-72.0333
0
LINE
8
BLACK
6
CONTINUOUS
10
225.646
20
-70.5333
11
228.646
21
-70.5333
0
LINE
8
BLACK
6
CONTINUOUS
10
227.933
20
-110.06
11
227.933
21
-113.06
0
LINE
8
BLACK
6
CONTINUOUS
10
226.433
20
-111.56
11
229.433
21
-111.56
0
LINE
8
BLACK
6
CONTINUOUS
10
228.742
20
-107.338
11
228.742
21
-110.338
0
LINE
8
BLACK
6
CONTINUOUS
10
227.242
20
-108.838
11
230.242
21
-108.838
0
LINE
8
BLACK
6
CONTINUOUS
10
228.838
20
-71.3141
11
228.838
21
-74.3141
0
LINE
8
BLACK
6
CONTINUOUS
10
227.338
20
-72.8141
11
230.338
21
-72.8141
0
LINE
8
BLACK
6
CONTINUOUS
10
230.446
20
-87.7446
11
230.446
21
-90.7446
0
LINE
8
BLACK
6
CONTINUOUS
10
228.946
20
-89.2446
11
231.946
21
-89.2446
0
LINE
8
BLACK
6
CONTINUOUS
10
232.137
20
-90.0255
11
232.137
21
-93.0255
0
LINE
8
BLACK
6
CONTINUOUS
10
230.637
20
-91.5255
11
233.637
21
-91.5255
0
LINE
8
BLACK
6
CONTINUOUS
10
233.745
20
-106.456
11
233.745
21
-109.456
0
LINE
8
BLACK
6
CONTINUOUS
10
232.245
20
-107.956
11
235.245
21
-107.956
0
LINE
8
BLACK
6
CONTINUOUS
10
235.437
20
-108.737
11
235.437
21
-111.737
0
LINE
8
BLACK
6
CONTINUOUS
10
233.937
20
-110.237
11
236.937
21
-110.237
0
LINE
8
BLACK
6
CONTINUOUS
10
243.418
20
-61.8797
11
243.418
21
-64.8797
0
LINE
8
BLACK
6
CONTINUOUS
10
241.918
20
-63.3797
11
244.918
21
-63.3797
0
LINE
8
BLACK
6
CONTINUOUS
10
244.462
20
-59.2387
11
244.462
21
-62.2387
0
LINE
8
BLACK
6
CONTINUOUS
10
242.962
20
-60.7387
11
245.962
21
-60.7387
0
LINE
8
BLACK
6
CONTINUOUS
10
245.074
20
-80.8074
11
245.074
21
-83.8074
0
LINE
8
BLACK
6
CONTINUOUS
10
243.574
20
-82.3074
11
246.574
21
-82.3074
0
LINE
8
BLACK
6
CONTINUOUS
10
246.118
20
-78.1664
11
246.118
21
-81.1664
0
LINE
8
BLACK
6
CONTINUOUS
10
244.618
20
-79.6664
11
247.618
21
-79.6664
0
LINE
8
BLACK
6
CONTINUOUS
10
246.73
20
-99.7351
11
246.73
21
-102.735
0
LINE
8
BLACK
6
CONTINUOUS
10
245.23
20
-101.235
11
248.23
21
-101.235
0
LINE
8
BLACK
6
CONTINUOUS
10
247.774
20
-97.0941
11
247.774
21
-100.094
0
LINE
8
BLACK
6
CONTINUOUS
10
246.274
20
-98.5941
11
249.274
21
-98.5941
0
LINE
8
BLACK
6
CONTINUOUS
10
249.522
20
-58.796
11
249.522
21
-61.796
0
LINE
8
BLACK
6
CONTINUOUS
10
248.022
20
-60.296
11
251.022
21
-60.296
0
LINE
8
BLACK
6
CONTINUOUS
10
251.009
20
-61.2156
11
251.009
21
-64.2156
0
LINE
8
BLACK
6
CONTINUOUS
10
249.509
20
-62.7156
11
252.509
21
-62.7156
0
LINE
8
BLACK
6
CONTINUOUS
10
251.178
20
-77.7237
11
251.178
21
-80.7237
0
LINE
8
BLACK
6
CONTINUOUS
10
249.678
20
-79.2237
11
252.678
21
-79.2237
0
LINE
8
BLACK
6
CONTINUOUS
10
252.665
20
-80.1433
11
252.665
21
-83.1433
0
LINE
8
BLACK
6
CONTINUOUS
10
251.165
20
-81.6433
11
254.165
21
-81.6433
0
LINE
8
BLACK
6
CONTINUOUS
10
252.834
20
-96.6514
11
252.834
21
-99.6514
0
LINE
8
BLACK
6
CONTINUOUS
10
251.334
20
-98.1514
11
254.334
21
-98.1514
0
LINE
8
BLACK
6
CONTINUOUS
10
254.321
20
-99.071
11
254.321
21
-102.071
0
LINE
8
BLACK
6
CONTINUOUS
10
252.821
20
-100.571
11
255.821
21
-100.571
0
LINE
8
BLACK
6
CONTINUOUS
10
267.306
20
-73.9464
11
267.306
21
-76.9464
0
LINE
8
BLACK
6
CONTINUOUS
10
265.806
20
-75.4464
11
268.806
21
-75.4464
0
LINE
8
BLACK
6
CONTINUOUS
10
267.306
20
-92.9464
11
267.306
21
-95.9464
0
LINE
8
BLACK
6
CONTINUOUS
10
265.806
20
-94.4464
11
268.806
21
-94.4464
0
LINE
8
BLACK
6
CONTINUOUS
10
267.306
20
-111.946
11
267.306
21
-114.946
0
LINE
8
BLACK
6
CONTINUOUS
10
265.806
20
-113.446
11
268.806
21
-113.446
0
LINE
8
BLACK
6
CONTINUOUS
10
268.576
20
-71.4064
11
268.576
21
-74.4064
0
LINE
8
BLACK
6
CONTINUOUS
10
267.076
20
-72.9064
11
270.076
21
-72.9064
0
LINE
8
BLACK
6
CONTINUOUS
10
268.576
20
-90.4064
11
268.576
21
-93.4064
0
LINE
8
BLACK
6
CONTINUOUS
10
267.076
20
-91.9064
11
270.076
21
-91.9064
0
LINE
8
BLACK
6
CONTINUOUS
10
268.576
20
-109.406
11
268.576
21
-112.406
0
LINE
8
BLACK
6
CONTINUOUS
10
267.076
20
-110.906
11
270.076
21
-110.906
0
LINE
8
BLACK
6
CONTINUOUS
10
271.931
20
-132.946
11
271.931
21
-135.946
0
LINE
8
BLACK
6
CONTINUOUS
10
270.431
20
-134.446
11
273.431
21
-134.446
0
LINE
8
BLACK
6
CONTINUOUS
10
273.201
20
-130.406
11
273.201
21
-133.406
0
LINE
8
BLACK
6
CONTINUOUS
10
271.701
20
-131.906
11
274.701
21
-131.906
0
LINE
8
BLACK
6
CONTINUOUS
10
273.656
20
-71.4064
11
273.656
21
-74.4064
0
LINE
8
BLACK
6
CONTINUOUS
10
272.156
20
-72.9064
11
275.156
21
-72.9064
0
LINE
8
BLACK
6
CONTINUOUS
10
273.656
20
-90.4064
11
273.656
21
-93.4064
0
LINE
8
BLACK
6
CONTINUOUS
10
272.156
20
-91.9064
11
275.156
21
-91.9064
0
LINE
8
BLACK
6
CONTINUOUS
10
273.656
20
-109.406
11
273.656
21
-112.406
0
LINE
8
BLACK
6
CONTINUOUS
10
272.156
20
-110.906
11
275.156
21
-110.906
0
LINE
8
BLACK
6
CONTINUOUS
10
274.926
20
-73.9464
11
274.926
21
-76.9464
0
LINE
8
BLACK
6
CONTINUOUS
10
273.426
20
-75.4464
11
276.426
21
-75.4464
0
LINE
8
BLACK
6
CONTINUOUS
10
274.926
20
-92.9464
11
274.926
21
-95.9464
0
LINE
8
BLACK
6
CONTINUOUS
10
273.426
20
-94.4464
11
276.426
21
-94.4464
0
LINE
8
BLACK
6
CONTINUOUS
10
274.926
20
-111.946
11
274.926
21
-114.946
0
LINE
8
BLACK
6
CONTINUOUS
10
273.426
20
-113.446
11
276.426
21
-113.446
0
LINE
8
BLACK
6
CONTINUOUS
10
278.281
20
-130.406
11
278.281
21
-133.406
0
LINE
8
BLACK
6
CONTINUOUS
10
276.781
20
-131.906
11
279.781
21
-131.906
0
LINE
8
BLACK
6
CONTINUOUS
10
279.551
20
-132.946
11
279.551
21
-135.946
0
LINE
8
BLACK
6
CONTINUOUS
10
278.051
20
-134.446
11
281.051
21
-134.446
0
LINE
8
BLACK
6
CONTINUOUS
10
286.706
20
-85.3464
11
286.706
21
-88.3464
0
LINE
8
BLACK
6
CONTINUOUS
10
285.206
20
-86.8464
11
288.206
21
-86.8464
0
LINE
8
BLACK
6
CONTINUOUS
10
286.706
20
-104.346
11
286.706
21
-107.346
0
LINE
8
BLACK
6
CONTINUOUS
10
285.206
20
-105.846
11
288.206
21
-105.846
0
LINE
8
BLACK
6
CONTINUOUS
10
287.976
20
-82.8064
11
287.976
21
-85.8064
0
LINE
8
BLACK
6
CONTINUOUS
10
286.476
20
-84.3064
11
289.476
21
-84.3064
0
LINE
8
BLACK
6
CONTINUOUS
10
287.976
20
-101.806
11
287.976
21
-104.806
0
LINE
8
BLACK
6
CONTINUOUS
10
286.476
20
-103.306
11
289.476
21
-103.306
0
LINE
8
BLACK
6
CONTINUOUS
10
291.331
20
-134.656
11
291.331
21
-137.656
0
LINE
8
BLACK
6
CONTINUOUS
10
289.831
20
-136.156
11
292.831
21
-136.156
0
LINE
8
BLACK
6
CONTINUOUS
10
292.601
20
-132.116
11
292.601
21
-135.116
0
LINE
8
BLACK
6
CONTINUOUS
10
291.101
20
-133.616
11
294.101
21
-133.616
0
LINE
8
BLACK
6
CONTINUOUS
10
293.056
20
-82.8064
11
293.056
21
-85.8064
0
LINE
8
BLACK
6
CONTINUOUS
10
291.556
20
-84.3064
11
294.556
21
-84.3064
0
LINE
8
BLACK
6
CONTINUOUS
10
293.056
20
-101.806
11
293.056
21
-104.806
0
LINE
8
BLACK
6
CONTINUOUS
10
291.556
20
-103.306
11
294.556
21
-103.306
0
LINE
8
BLACK
6
CONTINUOUS
10
294.326
20
-85.3464
11
294.326
21
-88.3464
0
LINE
8
BLACK
6
CONTINUOUS
10
292.826
20
-86.8464
11
295.826
21
-86.8464
0
LINE
8
BLACK
6
CONTINUOUS
10
294.326
20
-104.346
11
294.326
21
-107.346
0
LINE
8
BLACK
6
CONTINUOUS
10
292.826
20
-105.846
11
295.826
21
-105.846
0
LINE
8
BLACK
6
CONTINUOUS
10
297.681
20
-132.116
11
297.681
21
-135.116
0
LINE
8
BLACK
6
CONTINUOUS
10
296.181
20
-133.616
11
299.181
21
-133.616
0
LINE
8
BLACK
6
CONTINUOUS
10
298.951
20
-134.656
11
298.951
21
-137.656
0
LINE
8
BLACK
6
CONTINUOUS
10
297.451
20
-136.156
11
300.451
21
-136.156
0
LINE
8
BLACK
6
CONTINUOUS
10
207.621
20
-100.229
11
207.621
21
-97.4091
0
LINE
8
BLACK
6
CONTINUOUS
10
207.621
20
-97.4091
11
204.801
21
-97.4091
0
LINE
8
BLACK
6
CONTINUOUS
10
204.801
20
-97.4091
11
204.801
21
-100.229
0
LINE
8
BLACK
6
CONTINUOUS
10
204.801
20
-100.229
11
207.621
21
-100.229
0
LINE
8
BLACK
6
CONTINUOUS
10
207.621
20
-100.229
11
207.621
21
-97.4091
0
LINE
8
BLACK
6
CONTINUOUS
10
207.621
20
-97.4091
11
204.801
21
-97.4091
0
LINE
8
BLACK
6
CONTINUOUS
10
204.801
20
-97.4091
11
204.801
21
-100.229
0
LINE
8
BLACK
6
CONTINUOUS
10
204.801
20
-100.229
11
207.621
21
-100.229
0
LINE
8
BLACK
6
CONTINUOUS
10
213.176
20
-118.399
11
213.176
21
-115.579
0
LINE
8
BLACK
6
CONTINUOUS
10
213.176
20
-115.579
11
210.356
21
-115.579
0
LINE
8
BLACK
6
CONTINUOUS
10
210.356
20
-115.579
11
210.356
21
-118.399
0
LINE
8
BLACK
6
CONTINUOUS
10
210.356
20
-118.399
11
213.176
21
-118.399
0
LINE
8
BLACK
6
CONTINUOUS
10
213.176
20
-118.399
11
213.176
21
-115.579
0
LINE
8
BLACK
6
CONTINUOUS
10
213.176
20
-115.579
11
210.356
21
-115.579
0
LINE
8
BLACK
6
CONTINUOUS
10
210.356
20
-115.579
11
210.356
21
-118.399
0
LINE
8
BLACK
6
CONTINUOUS
10
210.356
20
-118.399
11
213.176
21
-118.399
0
LINE
8
BLACK
6
CONTINUOUS
10
226.937
20
-77.3871
11
226.937
21
-74.5672
0
LINE
8
BLACK
6
CONTINUOUS
10
226.937
20
-74.5672
11
224.117
21
-74.5672
0
LINE
8
BLACK
6
CONTINUOUS
10
224.117
20
-74.5672
11
224.117
21
-77.3871
0
LINE
8
BLACK
6
CONTINUOUS
10
224.117
20
-77.3871
11
226.937
21
-77.3871
0
LINE
8
BLACK
6
CONTINUOUS
10
226.937
20
-77.3871
11
226.937
21
-74.5672
0
LINE
8
BLACK
6
CONTINUOUS
10
226.937
20
-74.5672
11
224.117
21
-74.5672
0
LINE
8
BLACK
6
CONTINUOUS
10
224.117
20
-74.5672
11
224.117
21
-77.3871
0
LINE
8
BLACK
6
CONTINUOUS
10
224.117
20
-77.3871
11
226.937
21
-77.3871
0
LINE
8
BLACK
6
CONTINUOUS
10
230.236
20
-96.0984
11
230.236
21
-93.2786
0
LINE
8
BLACK
6
CONTINUOUS
10
230.236
20
-93.2786
11
227.417
21
-93.2786
0
LINE
8
BLACK
6
CONTINUOUS
10
227.417
20
-93.2786
11
227.417
21
-96.0984
0
LINE
8
BLACK
6
CONTINUOUS
10
227.417
20
-96.0984
11
230.236
21
-96.0984
0
LINE
8
BLACK
6
CONTINUOUS
10
230.236
20
-96.0984
11
230.236
21
-93.2786
0
LINE
8
BLACK
6
CONTINUOUS
10
230.236
20
-93.2786
11
227.417
21
-93.2786
0
LINE
8
BLACK
6
CONTINUOUS
10
227.417
20
-93.2786
11
227.417
21
-96.0984
0
LINE
8
BLACK
6
CONTINUOUS
10
227.417
20
-96.0984
11
230.236
21
-96.0984
0
LINE
8
BLACK
6
CONTINUOUS
10
233.536
20
-114.81
11
233.536
21
-111.99
0
LINE
8
BLACK
6
CONTINUOUS
10
233.536
20
-111.99
11
230.716
21
-111.99
0
LINE
8
BLACK
6
CONTINUOUS
10
230.716
20
-111.99
11
230.716
21
-114.81
0
LINE
8
BLACK
6
CONTINUOUS
10
230.716
20
-114.81
11
233.536
21
-114.81
0
LINE
8
BLACK
6
CONTINUOUS
10
233.536
20
-114.81
11
233.536
21
-111.99
0
LINE
8
BLACK
6
CONTINUOUS
10
233.536
20
-111.99
11
230.716
21
-111.99
0
LINE
8
BLACK
6
CONTINUOUS
10
230.716
20
-111.99
11
230.716
21
-114.81
0
LINE
8
BLACK
6
CONTINUOUS
10
230.716
20
-114.81
11
233.536
21
-114.81
0
LINE
8
BLACK
6
CONTINUOUS
10
248.845
20
-66.9879
11
248.845
21
-64.1681
0
LINE
8
BLACK
6
CONTINUOUS
10
248.845
20
-64.1681
11
246.025
21
-64.1681
0
LINE
8
BLACK
6
CONTINUOUS
10
246.025
20
-64.1681
11
246.025
21
-66.9879
0
LINE
8
BLACK
6
CONTINUOUS
10
246.025
20
-66.9879
11
248.845
21
-66.9879
0
LINE
8
BLACK
6
CONTINUOUS
10
248.845
20
-66.9879
11
248.845
21
-64.1681
0
LINE
8
BLACK
6
CONTINUOUS
10
248.845
20
-64.1681
11
246.025
21
-64.1681
0
LINE
8
BLACK
6
CONTINUOUS
10
246.025
20
-64.1681
11
246.025
21
-66.9879
0
LINE
8
BLACK
6
CONTINUOUS
10
246.025
20
-66.9879
11
248.845
21
-66.9879
0
LINE
8
BLACK
6
CONTINUOUS
10
250.501
20
-85.9156
11
250.501
21
-83.0958
0
LINE
8
BLACK
6
CONTINUOUS
10
250.501
20
-83.0958
11
247.681
21
-83.0958
0
LINE
8
BLACK
6
CONTINUOUS
10
247.681
20
-83.0958
11
247.681
21
-85.9156
0
LINE
8
BLACK
6
CONTINUOUS
10
247.681
20
-85.9156
11
250.501
21
-85.9156
0
LINE
8
BLACK
6
CONTINUOUS
10
250.501
20
-85.9156
11
250.501
21
-83.0958
0
LINE
8
BLACK
6
CONTINUOUS
10
250.501
20
-83.0958
11
247.681
21
-83.0958
0
LINE
8
BLACK
6
CONTINUOUS
10
247.681
20
-83.0958
11
247.681
21
-85.9156
0
LINE
8
BLACK
6
CONTINUOUS
10
247.681
20
-85.9156
11
250.501
21
-85.9156
0
LINE
8
BLACK
6
CONTINUOUS
10
252.157
20
-104.843
11
252.157
21
-102.024
0
LINE
8
BLACK
6
CONTINUOUS
10
252.157
20
-102.024
11
249.337
21
-102.024
0
LINE
8
BLACK
6
CONTINUOUS
10
249.337
20
-102.024
11
249.337
21
-104.843
0
LINE
8
BLACK
6
CONTINUOUS
10
249.337
20
-104.843
11
252.157
21
-104.843
0
LINE
8
BLACK
6
CONTINUOUS
10
252.157
20
-104.843
11
252.157
21
-102.024
0
LINE
8
BLACK
6
CONTINUOUS
10
252.157
20
-102.024
11
249.337
21
-102.024
0
LINE
8
BLACK
6
CONTINUOUS
10
249.337
20
-102.024
11
249.337
21
-104.843
0
LINE
8
BLACK
6
CONTINUOUS
10
249.337
20
-104.843
11
252.157
21
-104.843
0
LINE
8
BLACK
6
CONTINUOUS
10
272.526
20
-79.3963
11
272.526
21
-76.5765
0
LINE
8
BLACK
6
CONTINUOUS
10
272.526
20
-76.5765
11
269.706
21
-76.5765
0
LINE
8
BLACK
6
CONTINUOUS
10
269.706
20
-76.5765
11
269.706
21
-79.3963
0
LINE
8
BLACK
6
CONTINUOUS
10
269.706
20
-79.3963
11
272.526
21
-79.3963
0
LINE
8
BLACK
6
CONTINUOUS
10
272.526
20
-79.3963
11
272.526
21
-76.5765
0
LINE
8
BLACK
6
CONTINUOUS
10
272.526
20
-76.5765
11
269.706
21
-76.5765
0
LINE
8
BLACK
6
CONTINUOUS
10
269.706
20
-76.5765
11
269.706
21
-79.3963
0
LINE
8
BLACK
6
CONTINUOUS
10
269.706
20
-79.3963
11
272.526
21
-79.3963
0
LINE
8
BLACK
6
CONTINUOUS
10
272.526
20
-98.3963
11
272.526
21
-95.5765
0
LINE
8
BLACK
6
CONTINUOUS
10
272.526
20
-95.5765
11
269.706
21
-95.5765
0
LINE
8
BLACK
6
CONTINUOUS
10
269.706
20
-95.5765
11
269.706
21
-98.3963
0
LINE
8
BLACK
6
CONTINUOUS
10
269.706
20
-98.3963
11
272.526
21
-98.3963
0
LINE
8
BLACK
6
CONTINUOUS
10
272.526
20
-98.3963
11
272.526
21
-95.5765
0
LINE
8
BLACK
6
CONTINUOUS
10
272.526
20
-95.5765
11
269.706
21
-95.5765
0
LINE
8
BLACK
6
CONTINUOUS
10
269.706
20
-95.5765
11
269.706
21
-98.3963
0
LINE
8
BLACK
6
CONTINUOUS
10
269.706
20
-98.3963
11
272.526
21
-98.3963
0
LINE
8
BLACK
6
CONTINUOUS
10
272.526
20
-117.396
11
272.526
21
-114.576
0
LINE
8
BLACK
6
CONTINUOUS
10
272.526
20
-114.576
11
269.706
21
-114.576
0
LINE
8
BLACK
6
CONTINUOUS
10
269.706
20
-114.576
11
269.706
21
-117.396
0
LINE
8
BLACK
6
CONTINUOUS
10
269.706
20
-117.396
11
272.526
21
-117.396
0
LINE
8
BLACK
6
CONTINUOUS
10
272.526
20
-117.396
11
272.526
21
-114.576
0
LINE
8
BLACK
6
CONTINUOUS
10
272.526
20
-114.576
11
269.706
21
-114.576
0
LINE
8
BLACK
6
CONTINUOUS
10
269.706
20
-114.576
11
269.706
21
-117.396
0
LINE
8
BLACK
6
CONTINUOUS
10
269.706
20
-117.396
11
272.526
21
-117.396
0
LINE
8
BLACK
6
CONTINUOUS
10
277.151
20
-138.396
11
277.151
21
-135.576
0
LINE
8
BLACK
6
CONTINUOUS
10
277.151
20
-135.576
11
274.331
21
-135.576
0
LINE
8
BLACK
6
CONTINUOUS
10
274.331
20
-135.576
11
274.331
21
-138.396
0
LINE
8
BLACK
6
CONTINUOUS
10
274.331
20
-138.396
11
277.151
21
-138.396
0
LINE
8
BLACK
6
CONTINUOUS
10
277.151
20
-138.396
11
277.151
21
-135.576
0
LINE
8
BLACK
6
CONTINUOUS
10
277.151
20
-135.576
11
274.331
21
-135.576
0
LINE
8
BLACK
6
CONTINUOUS
10
274.331
20
-135.576
11
274.331
21
-138.396
0
LINE
8
BLACK
6
CONTINUOUS
10
274.331
20
-138.396
11
277.151
21
-138.396
0
LINE
8
BLACK
6
CONTINUOUS
10
291.926
20
-90.7963
11
291.926
21
-87.9765
0
LINE
8
BLACK
6
CONTINUOUS
10
291.926
20
-87.9765
11
289.106
21
-87.9765
0
LINE
8
BLACK
6
CONTINUOUS
10
289.106
20
-87.9765
11
289.106
21
-90.7963
0
LINE
8
BLACK
6
CONTINUOUS
10
289.106
20
-90.7963
11
291.926
21
-90.7963
0
LINE
8
BLACK
6
CONTINUOUS
10
291.926
20
-90.7963
11
291.926
21
-87.9765
0
LINE
8
BLACK
6
CONTINUOUS
10
291.926
20
-87.9765
11
289.106
21
-87.9765
0
LINE
8
BLACK
6
CONTINUOUS
10
289.106
20
-87.9765
11
289.106
21
-90.7963
0
LINE
8
BLACK
6
CONTINUOUS
10
289.106
20
-90.7963
11
291.926
21
-90.7963
0
LINE
8
BLACK
6
CONTINUOUS
10
291.926
20
-109.796
11
291.926
21
-106.976
0
LINE
8
BLACK
6
CONTINUOUS
10
291.926
20
-106.976
11
289.106
21
-106.976
0
LINE
8
BLACK
6
CONTINUOUS
10
289.106
20
-106.976
11
289.106
21
-109.796
0
LINE
8
BLACK
6
CONTINUOUS
10
289.106
20
-109.796
11
291.926
21
-109.796
0
LINE
8
BLACK
6
CONTINUOUS
10
291.926
20
-109.796
11
291.926
21
-106.976
0
LINE
8
BLACK
6
CONTINUOUS
10
291.926
20
-106.976
11
289.106
21
-106.976
0
LINE
8
BLACK
6
CONTINUOUS
10
289.106
20
-106.976
11
289.106
21
-109.796
0
LINE
8
BLACK
6
CONTINUOUS
10
289.106
20
-109.796
11
291.926
21
-109.796
0
LINE
8
BLACK
6
CONTINUOUS
10
296.551
20
-140.106
11
296.551
21
-137.286
0
LINE
8
BLACK
6
CONTINUOUS
10
296.551
20
-137.286
11
293.731
21
-137.286
0
LINE
8
BLACK
6
CONTINUOUS
10
293.731
20
-137.286
11
293.731
21
-140.106
0
LINE
8
BLACK
6
CONTINUOUS
10
293.731
20
-140.106
11
296.551
21
-140.106
0
LINE
8
BLACK
6
CONTINUOUS
10
296.551
20
-140.106
11
296.551
21
-137.286
0
LINE
8
BLACK
6
CONTINUOUS
10
296.551
20
-137.286
11
293.731
21
-137.286
0
LINE
8
BLACK
6
CONTINUOUS
10
293.731
20
-137.286
11
293.731
21
-140.106
0
LINE
8
BLACK
6
CONTINUOUS
10
293.731
20
-140.106
11
296.551
21
-140.106
0
LINE
8
BLACK
6
CONTINUOUS
10
197.304
20
-150.376
11
197.304
21
-148.376
0
LINE
8
BLACK
6
CONTINUOUS
10
197.304
20
-148.376
11
197.781
21
-148.376
0
LINE
8
BLACK
6
CONTINUOUS
10
197.781
20
-148.376
11
198.066
21
-148.471
0
LINE
8
BLACK
6
CONTINUOUS
10
198.066
20
-148.471
11
198.257
21
-148.662
0
LINE
8
BLACK
6
CONTINUOUS
10
198.257
20
-148.662
11
198.352
21
-148.852
0
LINE
8
BLACK
6
CONTINUOUS
10
198.352
20
-148.852
11
198.447
21
-149.233
0
LINE
8
BLACK
6
CONTINUOUS
10
198.447
20
-149.233
11
198.447
21
-149.519
0
LINE
8
BLACK
6
CONTINUOUS
10
198.447
20
-149.519
11
198.352
21
-149.9
0
LINE
8
BLACK
6
CONTINUOUS
10
198.352
20
-149.9
11
198.257
21
-150.09
0
LINE
8
BLACK
6
CONTINUOUS
10
198.257
20
-150.09
11
198.066
21
-150.281
0
LINE
8
BLACK
6
CONTINUOUS
10
198.066
20
-150.281
11
197.781
21
-150.376
0
LINE
8
BLACK
6
CONTINUOUS
10
197.781
20
-150.376
11
197.304
21
-150.376
0
LINE
8
BLACK
6
CONTINUOUS
10
199.304
20
-150.376
11
199.304
21
-149.043
0
LINE
8
BLACK
6
CONTINUOUS
10
199.304
20
-149.424
11
199.4
21
-149.233
0
LINE
8
BLACK
6
CONTINUOUS
10
199.4
20
-149.233
11
199.495
21
-149.138
0
LINE
8
BLACK
6
CONTINUOUS
10
199.495
20
-149.138
11
199.685
21
-149.043
0
LINE
8
BLACK
6
CONTINUOUS
10
199.685
20
-149.043
11
199.876
21
-149.043
0
LINE
8
BLACK
6
CONTINUOUS
10
200.542
20
-150.376
11
200.542
21
-149.043
0
LINE
8
BLACK
6
CONTINUOUS
10
200.542
20
-148.376
11
200.447
21
-148.471
0
LINE
8
BLACK
6
CONTINUOUS
10
200.447
20
-148.471
11
200.542
21
-148.567
0
LINE
8
BLACK
6
CONTINUOUS
10
200.542
20
-148.567
11
200.638
21
-148.471
0
LINE
8
BLACK
6
CONTINUOUS
10
200.638
20
-148.471
11
200.542
21
-148.376
0
LINE
8
BLACK
6
CONTINUOUS
10
200.542
20
-148.376
11
200.542
21
-148.567
0
LINE
8
BLACK
6
CONTINUOUS
10
201.781
20
-150.376
11
201.59
21
-150.281
0
LINE
8
BLACK
6
CONTINUOUS
10
201.59
20
-150.281
11
201.495
21
-150.09
0
LINE
8
BLACK
6
CONTINUOUS
10
201.495
20
-150.09
11
201.495
21
-148.376
0
LINE
8
BLACK
6
CONTINUOUS
10
202.828
20
-150.376
11
202.638
21
-150.281
0
LINE
8
BLACK
6
CONTINUOUS
10
202.638
20
-150.281
11
202.542
21
-150.09
0
LINE
8
BLACK
6
CONTINUOUS
10
202.542
20
-150.09
11
202.542
21
-148.376
0
LINE
8
BLACK
6
CONTINUOUS
10
205.114
20
-150.376
11
205.114
21
-148.376
0
LINE
8
BLACK
6
CONTINUOUS
10
205.114
20
-148.376
11
205.781
21
-149.805
0
LINE
8
BLACK
6
CONTINUOUS
10
205.781
20
-149.805
11
206.447
21
-148.376
0
LINE
8
BLACK
6
CONTINUOUS
10
206.447
20
-148.376
11
206.447
21
-150.376
0
LINE
8
BLACK
6
CONTINUOUS
10
208.257
20
-150.376
11
208.257
21
-149.329
0
LINE
8
BLACK
6
CONTINUOUS
10
208.257
20
-149.329
11
208.162
21
-149.138
0
LINE
8
BLACK
6
CONTINUOUS
10
208.162
20
-149.138
11
207.971
21
-149.043
0
LINE
8
BLACK
6
CONTINUOUS
10
207.971
20
-149.043
11
207.59
21
-149.043
0
LINE
8
BLACK
6
CONTINUOUS
10
207.59
20
-149.043
11
207.4
21
-149.138
0
LINE
8
BLACK
6
CONTINUOUS
10
208.257
20
-150.281
11
208.066
21
-150.376
0
LINE
8
BLACK
6
CONTINUOUS
10
208.066
20
-150.376
11
207.59
21
-150.376
0
LINE
8
BLACK
6
CONTINUOUS
10
207.59
20
-150.376
11
207.4
21
-150.281
0
LINE
8
BLACK
6
CONTINUOUS
10
207.4
20
-150.281
11
207.304
21
-150.09
0
LINE
8
BLACK
6
CONTINUOUS
10
207.304
20
-150.09
11
207.304
21
-149.9
0
LINE
8
BLACK
6
CONTINUOUS
10
207.304
20
-149.9
11
207.4
21
-149.709
0
LINE
8
BLACK
6
CONTINUOUS
10
207.4
20
-149.709
11
207.59
21
-149.614
0
LINE
8
BLACK
6
CONTINUOUS
10
207.59
20
-149.614
11
208.066
21
-149.614
0
LINE
8
BLACK
6
CONTINUOUS
10
208.066
20
-149.614
11
208.257
21
-149.519
0
LINE
8
BLACK
6
CONTINUOUS
10
209.209
20
-149.043
11
209.209
21
-151.043
0
LINE
8
BLACK
6
CONTINUOUS
10
209.209
20
-149.138
11
209.4
21
-149.043
0
LINE
8
BLACK
6
CONTINUOUS
10
209.4
20
-149.043
11
209.781
21
-149.043
0
LINE
8
BLACK
6
CONTINUOUS
10
209.781
20
-149.043
11
209.971
21
-149.138
0
LINE
8
BLACK
6
CONTINUOUS
10
209.971
20
-149.138
11
210.066
21
-149.233
0
LINE
8
BLACK
6
CONTINUOUS
10
210.066
20
-149.233
11
210.162
21
-149.424
0
LINE
8
BLACK
6
CONTINUOUS
10
210.162
20
-149.424
11
210.162
21
-149.995
0
LINE
8
BLACK
6
CONTINUOUS
10
210.162
20
-149.995
11
210.066
21
-150.186
0
LINE
8
BLACK
6
CONTINUOUS
10
210.066
20
-150.186
11
209.971
21
-150.281
0
LINE
8
BLACK
6
CONTINUOUS
10
209.971
20
-150.281
11
209.781
21
-150.376
0
LINE
8
BLACK
6
CONTINUOUS
10
209.781
20
-150.376
11
209.4
21
-150.376
0
LINE
8
BLACK
6
CONTINUOUS
10
209.4
20
-150.376
11
209.209
21
-150.281
0
LINE
8
BLACK
6
CONTINUOUS
10
211.019
20
-150.186
11
211.114
21
-150.281
0
LINE
8
BLACK
6
CONTINUOUS
10
211.114
20
-150.281
11
211.019
21
-150.376
0
LINE
8
BLACK
6
CONTINUOUS
10
211.019
20
-150.376
11
210.923
21
-150.281
0
LINE
8
BLACK
6
CONTINUOUS
10
210.923
20
-150.281
11
211.019
21
-150.186
0
LINE
8
BLACK
6
CONTINUOUS
10
211.019
20
-150.186
11
211.019
21
-150.376
0
LINE
8
BLACK
6
CONTINUOUS
10
211.019
20
-149.138
11
211.114
21
-149.233
0
LINE
8
BLACK
6
CONTINUOUS
10
211.114
20
-149.233
11
211.019
21
-149.329
0
LINE
8
BLACK
6
CONTINUOUS
10
211.019
20
-149.329
11
210.923
21
-149.233
0
LINE
8
BLACK
6
CONTINUOUS
10
210.923
20
-149.233
11
211.019
21
-149.138
0
LINE
8
BLACK
6
CONTINUOUS
10
211.019
20
-149.138
11
211.019
21
-149.329
0
LINE
8
BLACK
6
CONTINUOUS
10
193.828
20
-153.221
11
194.728
21
-154.121
0
LINE
8
BLACK
6
CONTINUOUS
10
194.728
20
-153.221
11
193.828
21
-154.121
0
LINE
8
BLACK
6
CONTINUOUS
10
197.685
20
-152.576
11
197.876
21
-152.576
0
LINE
8
BLACK
6
CONTINUOUS
10
197.876
20
-152.576
11
198.066
21
-152.671
0
LINE
8
BLACK
6
CONTINUOUS
10
198.066
20
-152.671
11
198.162
21
-152.767
0
LINE
8
BLACK
6
CONTINUOUS
10
198.162
20
-152.767
11
198.257
21
-152.957
0
LINE
8
BLACK
6
CONTINUOUS
10
198.257
20
-152.957
11
198.352
21
-153.338
0
LINE
8
BLACK
6
CONTINUOUS
10
198.352
20
-153.338
11
198.352
21
-153.814
0
LINE
8
BLACK
6
CONTINUOUS
10
198.352
20
-153.814
11
198.257
21
-154.195
0
LINE
8
BLACK
6
CONTINUOUS
10
198.257
20
-154.195
11
198.162
21
-154.386
0
LINE
8
BLACK
6
CONTINUOUS
10
198.162
20
-154.386
11
198.066
21
-154.481
0
LINE
8
BLACK
6
CONTINUOUS
10
198.066
20
-154.481
11
197.876
21
-154.576
0
LINE
8
BLACK
6
CONTINUOUS
10
197.876
20
-154.576
11
197.685
21
-154.576
0
LINE
8
BLACK
6
CONTINUOUS
10
197.685
20
-154.576
11
197.495
21
-154.481
0
LINE
8
BLACK
6
CONTINUOUS
10
197.495
20
-154.481
11
197.4
21
-154.386
0
LINE
8
BLACK
6
CONTINUOUS
10
197.4
20
-154.386
11
197.304
21
-154.195
0
LINE
8
BLACK
6
CONTINUOUS
10
197.304
20
-154.195
11
197.209
21
-153.814
0
LINE
8
BLACK
6
CONTINUOUS
10
197.209
20
-153.814
11
197.209
21
-153.338
0
LINE
8
BLACK
6
CONTINUOUS
10
197.209
20
-153.338
11
197.304
21
-152.957
0
LINE
8
BLACK
6
CONTINUOUS
10
197.304
20
-152.957
11
197.4
21
-152.767
0
LINE
8
BLACK
6
CONTINUOUS
10
197.4
20
-152.767
11
197.495
21
-152.671
0
LINE
8
BLACK
6
CONTINUOUS
10
197.495
20
-152.671
11
197.685
21
-152.576
0
LINE
8
BLACK
6
CONTINUOUS
10
199.209
20
-154.386
11
199.304
21
-154.481
0
LINE
8
BLACK
6
CONTINUOUS
10
199.304
20
-154.481
11
199.209
21
-154.576
0
LINE
8
BLACK
6
CONTINUOUS
10
199.209
20
-154.576
11
199.114
21
-154.481
0
LINE
8
BLACK
6
CONTINUOUS
10
199.114
20
-154.481
11
199.209
21
-154.386
0
LINE
8
BLACK
6
CONTINUOUS
10
199.209
20
-154.386
11
199.209
21
-154.576
0
LINE
8
BLACK
6
CONTINUOUS
10
200.257
20
-154.576
11
200.638
21
-154.576
0
LINE
8
BLACK
6
CONTINUOUS
10
200.638
20
-154.576
11
200.828
21
-154.481
0
LINE
8
BLACK
6
CONTINUOUS
10
200.828
20
-154.481
11
200.923
21
-154.386
0
LINE
8
BLACK
6
CONTINUOUS
10
200.923
20
-154.386
11
201.114
21
-154.1
0
LINE
8
BLACK
6
CONTINUOUS
10
201.114
20
-154.1
11
201.209
21
-153.719
0
LINE
8
BLACK
6
CONTINUOUS
10
201.209
20
-153.719
11
201.209
21
-152.957
0
LINE
8
BLACK
6
CONTINUOUS
10
201.209
20
-152.957
11
201.114
21
-152.767
0
LINE
8
BLACK
6
CONTINUOUS
10
201.114
20
-152.767
11
201.019
21
-152.671
0
LINE
8
BLACK
6
CONTINUOUS
10
201.019
20
-152.671
11
200.828
21
-152.576
0
LINE
8
BLACK
6
CONTINUOUS
10
200.828
20
-152.576
11
200.447
21
-152.576
0
LINE
8
BLACK
6
CONTINUOUS
10
200.447
20
-152.576
11
200.257
21
-152.671
0
LINE
8
BLACK
6
CONTINUOUS
10
200.257
20
-152.671
11
200.162
21
-152.767
0
LINE
8
BLACK
6
CONTINUOUS
10
200.162
20
-152.767
11
200.066
21
-152.957
0
LINE
8
BLACK
6
CONTINUOUS
10
200.066
20
-152.957
11
200.066
21
-153.433
0
LINE
8
BLACK
6
CONTINUOUS
10
200.066
20
-153.433
11
200.162
21
-153.624
0
LINE
8
BLACK
6
CONTINUOUS
10
200.162
20
-153.624
11
200.257
21
-153.719
0
LINE
8
BLACK
6
CONTINUOUS
10
200.257
20
-153.719
11
200.447
21
-153.814
0
LINE
8
BLACK
6
CONTINUOUS
10
200.447
20
-153.814
11
200.828
21
-153.814
0
LINE
8
BLACK
6
CONTINUOUS
10
200.828
20
-153.814
11
201.019
21
-153.719
0
LINE
8
BLACK
6
CONTINUOUS
10
201.019
20
-153.719
11
201.114
21
-153.624
0
LINE
8
BLACK
6
CONTINUOUS
10
201.114
20
-153.624
11
201.209
21
-153.433
0
LINE
8
BLACK
6
CONTINUOUS
10
202.447
20
-152.576
11
202.638
21
-152.576
0
LINE
8
BLACK
6
CONTINUOUS
10
202.638
20
-152.576
11
202.828
21
-152.671
0
LINE
8
BLACK
6
CONTINUOUS
10
202.828
20
-152.671
11
202.923
21
-152.767
0
LINE
8
BLACK
6
CONTINUOUS
10
202.923
20
-152.767
11
203.019
21
-152.957
0
LINE
8
BLACK
6
CONTINUOUS
10
203.019
20
-152.957
11
203.114
21
-153.338
0
LINE
8
BLACK
6
CONTINUOUS
10
203.114
20
-153.338
11
203.114
21
-153.814
0
LINE
8
BLACK
6
CONTINUOUS
10
203.114
20
-153.814
11
203.019
21
-154.195
0
LINE
8
BLACK
6
CONTINUOUS
10
203.019
20
-154.195
11
202.923
21
-154.386
0
LINE
8
BLACK
6
CONTINUOUS
10
202.923
20
-154.386
11
202.828
21
-154.481
0
LINE
8
BLACK
6
CONTINUOUS
10
202.828
20
-154.481
11
202.638
21
-154.576
0
LINE
8
BLACK
6
CONTINUOUS
10
202.638
20
-154.576
11
202.447
21
-154.576
0
LINE
8
BLACK
6
CONTINUOUS
10
202.447
20
-154.576
11
202.257
21
-154.481
0
LINE
8
BLACK
6
CONTINUOUS
10
202.257
20
-154.481
11
202.162
21
-154.386
0
LINE
8
BLACK
6
CONTINUOUS
10
202.162
20
-154.386
11
202.066
21
-154.195
0
LINE
8
BLACK
6
CONTINUOUS
10
202.066
20
-154.195
11
201.971
21
-153.814
0
LINE
8
BLACK
6
CONTINUOUS
10
201.971
20
-153.814
11
201.971
21
-153.338
0
LINE
8
BLACK
6
CONTINUOUS
10
201.971
20
-153.338
11
202.066
21
-152.957
0
LINE
8
BLACK
6
CONTINUOUS
10
202.066
20
-152.957
11
202.162
21
-152.767
0
LINE
8
BLACK
6
CONTINUOUS
10
202.162
20
-152.767
11
202.257
21
-152.671
0
LINE
8
BLACK
6
CONTINUOUS
10
202.257
20
-152.671
11
202.447
21
-152.576
0
LINE
8
BLACK
6
CONTINUOUS
10
204.352
20
-152.576
11
204.542
21
-152.576
0
LINE
8
BLACK
6
CONTINUOUS
10
204.542
20
-152.576
11
204.733
21
-152.671
0
LINE
8
BLACK
6
CONTINUOUS
10
204.733
20
-152.671
11
204.828
21
-152.767
0
LINE
8
BLACK
6
CONTINUOUS
10
204.828
20
-152.767
11
204.923
21
-152.957
0
LINE
8
BLACK
6
CONTINUOUS
10
204.923
20
-152.957
11
205.019
21
-153.338
0
LINE
8
BLACK
6
CONTINUOUS
10
205.019
20
-153.338
11
205.019
21
-153.814
0
LINE
8
BLACK
6
CONTINUOUS
10
205.019
20
-153.814
11
204.923
21
-154.195
0
LINE
8
BLACK
6
CONTINUOUS
10
204.923
20
-154.195
11
204.828
21
-154.386
0
LINE
8
BLACK
6
CONTINUOUS
10
204.828
20
-154.386
11
204.733
21
-154.481
0
LINE
8
BLACK
6
CONTINUOUS
10
204.733
20
-154.481
11
204.542
21
-154.576
0
LINE
8
BLACK
6
CONTINUOUS
10
204.542
20
-154.576
11
204.352
21
-154.576
0
LINE
8
BLACK
6
CONTINUOUS
10
204.352
20
-154.576
11
204.162
21
-154.481
0
LINE
8
BLACK
6
CONTINUOUS
10
204.162
20
-154.481
11
204.066
21
-154.386
0
LINE
8
BLACK
6
CONTINUOUS
10
204.066
20
-154.386
11
203.971
21
-154.195
0
LINE
8
BLACK
6
CONTINUOUS
10
203.971
20
-154.195
11
203.876
21
-153.814
0
LINE
8
BLACK
6
CONTINUOUS
10
203.876
20
-153.814
11
203.876
21
-153.338
0
LINE
8
BLACK
6
CONTINUOUS
10
203.876
20
-153.338
11
203.971
21
-152.957
0
LINE
8
BLACK
6
CONTINUOUS
10
203.971
20
-152.957
11
204.066
21
-152.767
0
LINE
8
BLACK
6
CONTINUOUS
10
204.066
20
-152.767
11
204.162
21
-152.671
0
LINE
8
BLACK
6
CONTINUOUS
10
204.162
20
-152.671
11
204.352
21
-152.576
0
LINE
8
BLACK
6
CONTINUOUS
10
205.876
20
-154.576
11
205.876
21
-153.243
0
LINE
8
BLACK
6
CONTINUOUS
10
205.876
20
-153.433
11
205.971
21
-153.338
0
LINE
8
BLACK
6
CONTINUOUS
10
205.971
20
-153.338
11
206.162
21
-153.243
0
LINE
8
BLACK
6
CONTINUOUS
10
206.162
20
-153.243
11
206.447
21
-153.243
0
LINE
8
BLACK
6
CONTINUOUS
10
206.447
20
-153.243
11
206.638
21
-153.338
0
LINE
8
BLACK
6
CONTINUOUS
10
206.638
20
-153.338
11
206.733
21
-153.529
0
LINE
8
BLACK
6
CONTINUOUS
10
206.733
20
-153.529
11
206.733
21
-154.576
0
LINE
8
BLACK
6
CONTINUOUS
10
206.733
20
-153.529
11
206.828
21
-153.338
0
LINE
8
BLACK
6
CONTINUOUS
10
206.828
20
-153.338
11
207.019
21
-153.243
0
LINE
8
BLACK
6
CONTINUOUS
10
207.019
20
-153.243
11
207.304
21
-153.243
0
LINE
8
BLACK
6
CONTINUOUS
10
207.304
20
-153.243
11
207.495
21
-153.338
0
LINE
8
BLACK
6
CONTINUOUS
10
207.495
20
-153.338
11
207.59
21
-153.529
0
LINE
8
BLACK
6
CONTINUOUS
10
207.59
20
-153.529
11
207.59
21
-154.576
0
LINE
8
BLACK
6
CONTINUOUS
10
208.542
20
-154.576
11
208.542
21
-153.243
0
LINE
8
BLACK
6
CONTINUOUS
10
208.542
20
-153.433
11
208.638
21
-153.338
0
LINE
8
BLACK
6
CONTINUOUS
10
208.638
20
-153.338
11
208.828
21
-153.243
0
LINE
8
BLACK
6
CONTINUOUS
10
208.828
20
-153.243
11
209.114
21
-153.243
0
LINE
8
BLACK
6
CONTINUOUS
10
209.114
20
-153.243
11
209.304
21
-153.338
0
LINE
8
BLACK
6
CONTINUOUS
10
209.304
20
-153.338
11
209.4
21
-153.529
0
LINE
8
BLACK
6
CONTINUOUS
10
209.4
20
-153.529
11
209.4
21
-154.576
0
LINE
8
BLACK
6
CONTINUOUS
10
209.4
20
-153.529
11
209.495
21
-153.338
0
LINE
8
BLACK
6
CONTINUOUS
10
209.495
20
-153.338
11
209.685
21
-153.243
0
LINE
8
BLACK
6
CONTINUOUS
10
209.685
20
-153.243
11
209.971
21
-153.243
0
LINE
8
BLACK
6
CONTINUOUS
10
209.971
20
-153.243
11
210.162
21
-153.338
0
LINE
8
BLACK
6
CONTINUOUS
10
210.162
20
-153.338
11
210.257
21
-153.529
0
LINE
8
BLACK
6
CONTINUOUS
10
210.257
20
-153.529
11
210.257
21
-154.576
0
LINE
8
BLACK
6
CONTINUOUS
10
214.162
20
-152.481
11
212.447
21
-155.052
0
LINE
8
BLACK
6
CONTINUOUS
10
216.733
20
-152.576
11
216.923
21
-152.576
0
LINE
8
BLACK
6
CONTINUOUS
10
216.923
20
-152.576
11
217.114
21
-152.671
0
LINE
8
BLACK
6
CONTINUOUS
10
217.114
20
-152.671
11
217.209
21
-152.767
0
LINE
8
BLACK
6
CONTINUOUS
10
217.209
20
-152.767
11
217.304
21
-152.957
0
LINE
8
BLACK
6
CONTINUOUS
10
217.304
20
-152.957
11
217.4
21
-153.338
0
LINE
8
BLACK
6
CONTINUOUS
10
217.4
20
-153.338
11
217.4
21
-153.814
0
LINE
8
BLACK
6
CONTINUOUS
10
217.4
20
-153.814
11
217.304
21
-154.195
0
LINE
8
BLACK
6
CONTINUOUS
10
217.304
20
-154.195
11
217.209
21
-154.386
0
LINE
8
BLACK
6
CONTINUOUS
10
217.209
20
-154.386
11
217.114
21
-154.481
0
LINE
8
BLACK
6
CONTINUOUS
10
217.114
20
-154.481
11
216.923
21
-154.576
0
LINE
8
BLACK
6
CONTINUOUS
10
216.923
20
-154.576
11
216.733
21
-154.576
0
LINE
8
BLACK
6
CONTINUOUS
10
216.733
20
-154.576
11
216.542
21
-154.481
0
LINE
8
BLACK
6
CONTINUOUS
10
216.542
20
-154.481
11
216.447
21
-154.386
0
LINE
8
BLACK
6
CONTINUOUS
10
216.447
20
-154.386
11
216.352
21
-154.195
0
LINE
8
BLACK
6
CONTINUOUS
10
216.352
20
-154.195
11
216.257
21
-153.814
0
LINE
8
BLACK
6
CONTINUOUS
10
216.257
20
-153.814
11
216.257
21
-153.338
0
LINE
8
BLACK
6
CONTINUOUS
10
216.257
20
-153.338
11
216.352
21
-152.957
0
LINE
8
BLACK
6
CONTINUOUS
10
216.352
20
-152.957
11
216.447
21
-152.767
0
LINE
8
BLACK
6
CONTINUOUS
10
216.447
20
-152.767
11
216.542
21
-152.671
0
LINE
8
BLACK
6
CONTINUOUS
10
216.542
20
-152.671
11
216.733
21
-152.576
0
LINE
8
BLACK
6
CONTINUOUS
10
218.257
20
-154.386
11
218.352
21
-154.481
0
LINE
8
BLACK
6
CONTINUOUS
10
218.352
20
-154.481
11
218.257
21
-154.576
0
LINE
8
BLACK
6
CONTINUOUS
10
218.257
20
-154.576
11
218.162
21
-154.481
0
LINE
8
BLACK
6
CONTINUOUS
10
218.162
20
-154.481
11
218.257
21
-154.386
0
LINE
8
BLACK
6
CONTINUOUS
10
218.257
20
-154.386
11
218.257
21
-154.576
0
LINE
8
BLACK
6
CONTINUOUS
10
219.59
20
-152.576
11
219.781
21
-152.576
0
LINE
8
BLACK
6
CONTINUOUS
10
219.781
20
-152.576
11
219.971
21
-152.671
0
LINE
8
BLACK
6
CONTINUOUS
10
219.971
20
-152.671
11
220.066
21
-152.767
0
LINE
8
BLACK
6
CONTINUOUS
10
220.066
20
-152.767
11
220.162
21
-152.957
0
LINE
8
BLACK
6
CONTINUOUS
10
220.162
20
-152.957
11
220.257
21
-153.338
0
LINE
8
BLACK
6
CONTINUOUS
10
220.257
20
-153.338
11
220.257
21
-153.814
0
LINE
8
BLACK
6
CONTINUOUS
10
220.257
20
-153.814
11
220.162
21
-154.195
0
LINE
8
BLACK
6
CONTINUOUS
10
220.162
20
-154.195
11
220.066
21
-154.386
0
LINE
8
BLACK
6
CONTINUOUS
10
220.066
20
-154.386
11
219.971
21
-154.481
0
LINE
8
BLACK
6
CONTINUOUS
10
219.971
20
-154.481
11
219.781
21
-154.576
0
LINE
8
BLACK
6
CONTINUOUS
10
219.781
20
-154.576
11
219.59
21
-154.576
0
LINE
8
BLACK
6
CONTINUOUS
10
219.59
20
-154.576
11
219.4
21
-154.481
0
LINE
8
BLACK
6
CONTINUOUS
10
219.4
20
-154.481
11
219.304
21
-154.386
0
LINE
8
BLACK
6
CONTINUOUS
10
219.304
20
-154.386
11
219.209
21
-154.195
0
LINE
8
BLACK
6
CONTINUOUS
10
219.209
20
-154.195
11
219.114
21
-153.814
0
LINE
8
BLACK
6
CONTINUOUS
10
219.114
20
-153.814
11
219.114
21
-153.338
0
LINE
8
BLACK
6
CONTINUOUS
10
219.114
20
-153.338
11
219.209
21
-152.957
0
LINE
8
BLACK
6
CONTINUOUS
10
219.209
20
-152.957
11
219.304
21
-152.767
0
LINE
8
BLACK
6
CONTINUOUS
10
219.304
20
-152.767
11
219.4
21
-152.671
0
LINE
8
BLACK
6
CONTINUOUS
10
219.4
20
-152.671
11
219.59
21
-152.576
0
LINE
8
BLACK
6
CONTINUOUS
10
220.923
20
-152.576
11
222.162
21
-152.576
0
LINE
8
BLACK
6
CONTINUOUS
10
222.162
20
-152.576
11
221.495
21
-153.338
0
LINE
8
BLACK
6
CONTINUOUS
10
221.495
20
-153.338
11
221.781
21
-153.338
0
LINE
8
BLACK
6
CONTINUOUS
10
221.781
20
-153.338
11
221.971
21
-153.433
0
LINE
8
BLACK
6
CONTINUOUS
10
221.971
20
-153.433
11
222.066
21
-153.529
0
LINE
8
BLACK
6
CONTINUOUS
10
222.066
20
-153.529
11
222.162
21
-153.719
0
LINE
8
BLACK
6
CONTINUOUS
10
222.162
20
-153.719
11
222.162
21
-154.195
0
LINE
8
BLACK
6
CONTINUOUS
10
222.162
20
-154.195
11
222.066
21
-154.386
0
LINE
8
BLACK
6
CONTINUOUS
10
222.066
20
-154.386
11
221.971
21
-154.481
0
LINE
8
BLACK
6
CONTINUOUS
10
221.971
20
-154.481
11
221.781
21
-154.576
0
LINE
8
BLACK
6
CONTINUOUS
10
221.781
20
-154.576
11
221.209
21
-154.576
0
LINE
8
BLACK
6
CONTINUOUS
10
221.209
20
-154.576
11
221.019
21
-154.481
0
LINE
8
BLACK
6
CONTINUOUS
10
221.019
20
-154.481
11
220.923
21
-154.386
0
LINE
8
BLACK
6
CONTINUOUS
10
223.971
20
-152.576
11
223.019
21
-152.576
0
LINE
8
BLACK
6
CONTINUOUS
10
223.019
20
-152.576
11
222.923
21
-153.529
0
LINE
8
BLACK
6
CONTINUOUS
10
222.923
20
-153.529
11
223.019
21
-153.433
0
LINE
8
BLACK
6
CONTINUOUS
10
223.019
20
-153.433
11
223.209
21
-153.338
0
LINE
8
BLACK
6
CONTINUOUS
10
223.209
20
-153.338
11
223.685
21
-153.338
0
LINE
8
BLACK
6
CONTINUOUS
10
223.685
20
-153.338
11
223.876
21
-153.433
0
LINE
8
BLACK
6
CONTINUOUS
10
223.876
20
-153.433
11
223.971
21
-153.529
0
LINE
8
BLACK
6
CONTINUOUS
10
223.971
20
-153.529
11
224.066
21
-153.719
0
LINE
8
BLACK
6
CONTINUOUS
10
224.066
20
-153.719
11
224.066
21
-154.195
0
LINE
8
BLACK
6
CONTINUOUS
10
224.066
20
-154.195
11
223.971
21
-154.386
0
LINE
8
BLACK
6
CONTINUOUS
10
223.971
20
-154.386
11
223.876
21
-154.481
0
LINE
8
BLACK
6
CONTINUOUS
10
223.876
20
-154.481
11
223.685
21
-154.576
0
LINE
8
BLACK
6
CONTINUOUS
10
223.685
20
-154.576
11
223.209
21
-154.576
0
LINE
8
BLACK
6
CONTINUOUS
10
223.209
20
-154.576
11
223.019
21
-154.481
0
LINE
8
BLACK
6
CONTINUOUS
10
223.019
20
-154.481
11
222.923
21
-154.386
0
LINE
8
BLACK
6
CONTINUOUS
10
225.781
20
-153.243
11
225.781
21
-154.576
0
LINE
8
BLACK
6
CONTINUOUS
10
225.304
20
-152.481
11
224.828
21
-153.909
0
LINE
8
BLACK
6
CONTINUOUS
10
224.828
20
-153.909
11
226.066
21
-153.909
0
LINE
8
BLACK
6
CONTINUOUS
10
226.733
20
-152.576
11
226.733
21
-152.957
0
LINE
8
BLACK
6
CONTINUOUS
10
227.495
20
-152.576
11
227.495
21
-152.957
0
LINE
8
BLACK
6
CONTINUOUS
10
230.447
20
-155.338
11
230.352
21
-155.243
0
LINE
8
BLACK
6
CONTINUOUS
10
230.352
20
-155.243
11
230.162
21
-154.957
0
LINE
8
BLACK
6
CONTINUOUS
10
230.162
20
-154.957
11
230.066
21
-154.767
0
LINE
8
BLACK
6
CONTINUOUS
10
230.066
20
-154.767
11
229.971
21
-154.481
0
LINE
8
BLACK
6
CONTINUOUS
10
229.971
20
-154.481
11
229.876
21
-154.005
0
LINE
8
BLACK
6
CONTINUOUS
10
229.876
20
-154.005
11
229.876
21
-153.624
0
LINE
8
BLACK
6
CONTINUOUS
10
229.876
20
-153.624
11
229.971
21
-153.148
0
LINE
8
BLACK
6
CONTINUOUS
10
229.971
20
-153.148
11
230.066
21
-152.862
0
LINE
8
BLACK
6
CONTINUOUS
10
230.066
20
-152.862
11
230.162
21
-152.671
0
LINE
8
BLACK
6
CONTINUOUS
10
230.162
20
-152.671
11
230.352
21
-152.386
0
LINE
8
BLACK
6
CONTINUOUS
10
230.352
20
-152.386
11
230.447
21
-152.29
0
LINE
8
BLACK
6
CONTINUOUS
10
231.114
20
-152.767
11
231.209
21
-152.671
0
LINE
8
BLACK
6
CONTINUOUS
10
231.209
20
-152.671
11
231.4
21
-152.576
0
LINE
8
BLACK
6
CONTINUOUS
10
231.4
20
-152.576
11
231.876
21
-152.576
0
LINE
8
BLACK
6
CONTINUOUS
10
231.876
20
-152.576
11
232.066
21
-152.671
0
LINE
8
BLACK
6
CONTINUOUS
10
232.066
20
-152.671
11
232.162
21
-152.767
0
LINE
8
BLACK
6
CONTINUOUS
10
232.162
20
-152.767
11
232.257
21
-152.957
0
LINE
8
BLACK
6
CONTINUOUS
10
232.257
20
-152.957
11
232.257
21
-153.148
0
LINE
8
BLACK
6
CONTINUOUS
10
232.257
20
-153.148
11
232.162
21
-153.433
0
LINE
8
BLACK
6
CONTINUOUS
10
232.162
20
-153.433
11
231.019
21
-154.576
0
LINE
8
BLACK
6
CONTINUOUS
10
231.019
20
-154.576
11
232.257
21
-154.576
0
LINE
8
BLACK
6
CONTINUOUS
10
234.638
20
-154.576
11
234.638
21
-152.576
0
LINE
8
BLACK
6
CONTINUOUS
10
235.495
20
-154.576
11
235.495
21
-153.529
0
LINE
8
BLACK
6
CONTINUOUS
10
235.495
20
-153.529
11
235.4
21
-153.338
0
LINE
8
BLACK
6
CONTINUOUS
10
235.4
20
-153.338
11
235.209
21
-153.243
0
LINE
8
BLACK
6
CONTINUOUS
10
235.209
20
-153.243
11
234.923
21
-153.243
0
LINE
8
BLACK
6
CONTINUOUS
10
234.923
20
-153.243
11
234.733
21
-153.338
0
LINE
8
BLACK
6
CONTINUOUS
10
234.733
20
-153.338
11
234.638
21
-153.433
0
LINE
8
BLACK
6
CONTINUOUS
10
236.733
20
-154.576
11
236.542
21
-154.481
0
LINE
8
BLACK
6
CONTINUOUS
10
236.542
20
-154.481
11
236.447
21
-154.386
0
LINE
8
BLACK
6
CONTINUOUS
10
236.447
20
-154.386
11
236.352
21
-154.195
0
LINE
8
BLACK
6
CONTINUOUS
10
236.352
20
-154.195
11
236.352
21
-153.624
0
LINE
8
BLACK
6
CONTINUOUS
10
236.352
20
-153.624
11
236.447
21
-153.433
0
LINE
8
BLACK
6
CONTINUOUS
10
236.447
20
-153.433
11
236.542
21
-153.338
0
LINE
8
BLACK
6
CONTINUOUS
10
236.542
20
-153.338
11
236.733
21
-153.243
0
LINE
8
BLACK
6
CONTINUOUS
10
236.733
20
-153.243
11
237.019
21
-153.243
0
LINE
8
BLACK
6
CONTINUOUS
10
237.019
20
-153.243
11
237.209
21
-153.338
0
LINE
8
BLACK
6
CONTINUOUS
10
237.209
20
-153.338
11
237.304
21
-153.433
0
LINE
8
BLACK
6
CONTINUOUS
10
237.304
20
-153.433
11
237.4
21
-153.624
0
LINE
8
BLACK
6
CONTINUOUS
10
237.4
20
-153.624
11
237.4
21
-154.195
0
LINE
8
BLACK
6
CONTINUOUS
10
237.4
20
-154.195
11
237.304
21
-154.386
0
LINE
8
BLACK
6
CONTINUOUS
10
237.304
20
-154.386
11
237.209
21
-154.481
0
LINE
8
BLACK
6
CONTINUOUS
10
237.209
20
-154.481
11
237.019
21
-154.576
0
LINE
8
BLACK
6
CONTINUOUS
10
237.019
20
-154.576
11
236.733
21
-154.576
0
LINE
8
BLACK
6
CONTINUOUS
10
238.542
20
-154.576
11
238.352
21
-154.481
0
LINE
8
BLACK
6
CONTINUOUS
10
238.352
20
-154.481
11
238.257
21
-154.29
0
LINE
8
BLACK
6
CONTINUOUS
10
238.257
20
-154.29
11
238.257
21
-152.576
0
LINE
8
BLACK
6
CONTINUOUS
10
240.066
20
-154.481
11
239.876
21
-154.576
0
LINE
8
BLACK
6
CONTINUOUS
10
239.876
20
-154.576
11
239.495
21
-154.576
0
LINE
8
BLACK
6
CONTINUOUS
10
239.495
20
-154.576
11
239.304
21
-154.481
0
LINE
8
BLACK
6
CONTINUOUS
10
239.304
20
-154.481
11
239.209
21
-154.29
0
LINE
8
BLACK
6
CONTINUOUS
10
239.209
20
-154.29
11
239.209
21
-153.529
0
LINE
8
BLACK
6
CONTINUOUS
10
239.209
20
-153.529
11
239.304
21
-153.338
0
LINE
8
BLACK
6
CONTINUOUS
10
239.304
20
-153.338
11
239.495
21
-153.243
0
LINE
8
BLACK
6
CONTINUOUS
10
239.495
20
-153.243
11
239.876
21
-153.243
0
LINE
8
BLACK
6
CONTINUOUS
10
239.876
20
-153.243
11
240.066
21
-153.338
0
LINE
8
BLACK
6
CONTINUOUS
10
240.066
20
-153.338
11
240.162
21
-153.529
0
LINE
8
BLACK
6
CONTINUOUS
10
240.162
20
-153.529
11
240.162
21
-153.719
0
LINE
8
BLACK
6
CONTINUOUS
10
240.162
20
-153.719
11
239.209
21
-153.909
0
LINE
8
BLACK
6
CONTINUOUS
10
240.923
20
-154.481
11
241.114
21
-154.576
0
LINE
8
BLACK
6
CONTINUOUS
10
241.114
20
-154.576
11
241.495
21
-154.576
0
LINE
8
BLACK
6
CONTINUOUS
10
241.495
20
-154.576
11
241.685
21
-154.481
0
LINE
8
BLACK
6
CONTINUOUS
10
241.685
20
-154.481
11
241.781
21
-154.29
0
LINE
8
BLACK
6
CONTINUOUS
10
241.781
20
-154.29
11
241.781
21
-154.195
0
LINE
8
BLACK
6
CONTINUOUS
10
241.781
20
-154.195
11
241.685
21
-154.005
0
LINE
8
BLACK
6
CONTINUOUS
10
241.685
20
-154.005
11
241.495
21
-153.909
0
LINE
8
BLACK
6
CONTINUOUS
10
241.495
20
-153.909
11
241.209
21
-153.909
0
LINE
8
BLACK
6
CONTINUOUS
10
241.209
20
-153.909
11
241.019
21
-153.814
0
LINE
8
BLACK
6
CONTINUOUS
10
241.019
20
-153.814
11
240.923
21
-153.624
0
LINE
8
BLACK
6
CONTINUOUS
10
240.923
20
-153.624
11
240.923
21
-153.529
0
LINE
8
BLACK
6
CONTINUOUS
10
240.923
20
-153.529
11
241.019
21
-153.338
0
LINE
8
BLACK
6
CONTINUOUS
10
241.019
20
-153.338
11
241.209
21
-153.243
0
LINE
8
BLACK
6
CONTINUOUS
10
241.209
20
-153.243
11
241.495
21
-153.243
0
LINE
8
BLACK
6
CONTINUOUS
10
241.495
20
-153.243
11
241.685
21
-153.338
0
LINE
8
BLACK
6
CONTINUOUS
10
242.447
20
-155.338
11
242.542
21
-155.243
0
LINE
8
BLACK
6
CONTINUOUS
10
242.542
20
-155.243
11
242.733
21
-154.957
0
LINE
8
BLACK
6
CONTINUOUS
10
242.733
20
-154.957
11
242.828
21
-154.767
0
LINE
8
BLACK
6
CONTINUOUS
10
242.828
20
-154.767
11
242.923
21
-154.481
0
LINE
8
BLACK
6
CONTINUOUS
10
242.923
20
-154.481
11
243.019
21
-154.005
0
LINE
8
BLACK
6
CONTINUOUS
10
243.019
20
-154.005
11
243.019
21
-153.624
0
LINE
8
BLACK
6
CONTINUOUS
10
243.019
20
-153.624
11
242.923
21
-153.148
0
LINE
8
BLACK
6
CONTINUOUS
10
242.923
20
-153.148
11
242.828
21
-152.862
0
LINE
8
BLACK
6
CONTINUOUS
10
242.828
20
-152.862
11
242.733
21
-152.671
0
LINE
8
BLACK
6
CONTINUOUS
10
242.733
20
-152.671
11
242.542
21
-152.386
0
LINE
8
BLACK
6
CONTINUOUS
10
242.542
20
-152.386
11
242.447
21
-152.29
0
LINE
8
BLACK
6
CONTINUOUS
10
246.066
20
-155.338
11
245.971
21
-155.243
0
LINE
8
BLACK
6
CONTINUOUS
10
245.971
20
-155.243
11
245.781
21
-154.957
0
LINE
8
BLACK
6
CONTINUOUS
10
245.781
20
-154.957
11
245.685
21
-154.767
0
LINE
8
BLACK
6
CONTINUOUS
10
245.685
20
-154.767
11
245.59
21
-154.481
0
LINE
8
BLACK
6
CONTINUOUS
10
245.59
20
-154.481
11
245.495
21
-154.005
0
LINE
8
BLACK
6
CONTINUOUS
10
245.495
20
-154.005
11
245.495
21
-153.624
0
LINE
8
BLACK
6
CONTINUOUS
10
245.495
20
-153.624
11
245.59
21
-153.148
0
LINE
8
BLACK
6
CONTINUOUS
10
245.59
20
-153.148
11
245.685
21
-152.862
0
LINE
8
BLACK
6
CONTINUOUS
10
245.685
20
-152.862
11
245.781
21
-152.671
0
LINE
8
BLACK
6
CONTINUOUS
10
245.781
20
-152.671
11
245.971
21
-152.386
0
LINE
8
BLACK
6
CONTINUOUS
10
245.971
20
-152.386
11
246.066
21
-152.29
0
LINE
8
BLACK
6
CONTINUOUS
10
246.828
20
-153.243
11
246.828
21
-154.576
0
LINE
8
BLACK
6
CONTINUOUS
10
246.828
20
-153.433
11
246.923
21
-153.338
0
LINE
8
BLACK
6
CONTINUOUS
10
246.923
20
-153.338
11
247.114
21
-153.243
0
LINE
8
BLACK
6
CONTINUOUS
10
247.114
20
-153.243
11
247.4
21
-153.243
0
LINE
8
BLACK
6
CONTINUOUS
10
247.4
20
-153.243
11
247.59
21
-153.338
0
LINE
8
BLACK
6
CONTINUOUS
10
247.59
20
-153.338
11
247.685
21
-153.529
0
LINE
8
BLACK
6
CONTINUOUS
10
247.685
20
-153.529
11
247.685
21
-154.576
0
LINE
8
BLACK
6
CONTINUOUS
10
248.923
20
-154.576
11
248.733
21
-154.481
0
LINE
8
BLACK
6
CONTINUOUS
10
248.733
20
-154.481
11
248.638
21
-154.386
0
LINE
8
BLACK
6
CONTINUOUS
10
248.638
20
-154.386
11
248.542
21
-154.195
0
LINE
8
BLACK
6
CONTINUOUS
10
248.542
20
-154.195
11
248.542
21
-153.624
0
LINE
8
BLACK
6
CONTINUOUS
10
248.542
20
-153.624
11
248.638
21
-153.433
0
LINE
8
BLACK
6
CONTINUOUS
10
248.638
20
-153.433
11
248.733
21
-153.338
0
LINE
8
BLACK
6
CONTINUOUS
10
248.733
20
-153.338
11
248.923
21
-153.243
0
LINE
8
BLACK
6
CONTINUOUS
10
248.923
20
-153.243
11
249.209
21
-153.243
0
LINE
8
BLACK
6
CONTINUOUS
10
249.209
20
-153.243
11
249.4
21
-153.338
0
LINE
8
BLACK
6
CONTINUOUS
10
249.4
20
-153.338
11
249.495
21
-153.433
0
LINE
8
BLACK
6
CONTINUOUS
10
249.495
20
-153.433
11
249.59
21
-153.624
0
LINE
8
BLACK
6
CONTINUOUS
10
249.59
20
-153.624
11
249.59
21
-154.195
0
LINE
8
BLACK
6
CONTINUOUS
10
249.59
20
-154.195
11
249.495
21
-154.386
0
LINE
8
BLACK
6
CONTINUOUS
10
249.495
20
-154.386
11
249.4
21
-154.481
0
LINE
8
BLACK
6
CONTINUOUS
10
249.4
20
-154.481
11
249.209
21
-154.576
0
LINE
8
BLACK
6
CONTINUOUS
10
249.209
20
-154.576
11
248.923
21
-154.576
0
LINE
8
BLACK
6
CONTINUOUS
10
250.162
20
-153.243
11
250.923
21
-153.243
0
LINE
8
BLACK
6
CONTINUOUS
10
250.447
20
-152.576
11
250.447
21
-154.29
0
LINE
8
BLACK
6
CONTINUOUS
10
250.447
20
-154.29
11
250.542
21
-154.481
0
LINE
8
BLACK
6
CONTINUOUS
10
250.542
20
-154.481
11
250.733
21
-154.576
0
LINE
8
BLACK
6
CONTINUOUS
10
250.733
20
-154.576
11
250.923
21
-154.576
0
LINE
8
BLACK
6
CONTINUOUS
10
253.114
20
-153.243
11
253.114
21
-155.243
0
LINE
8
BLACK
6
CONTINUOUS
10
253.114
20
-153.338
11
253.304
21
-153.243
0
LINE
8
BLACK
6
CONTINUOUS
10
253.304
20
-153.243
11
253.685
21
-153.243
0
LINE
8
BLACK
6
CONTINUOUS
10
253.685
20
-153.243
11
253.876
21
-153.338
0
LINE
8
BLACK
6
CONTINUOUS
10
253.876
20
-153.338
11
253.971
21
-153.433
0
LINE
8
BLACK
6
CONTINUOUS
10
253.971
20
-153.433
11
254.066
21
-153.624
0
LINE
8
BLACK
6
CONTINUOUS
10
254.066
20
-153.624
11
254.066
21
-154.195
0
LINE
8
BLACK
6
CONTINUOUS
10
254.066
20
-154.195
11
253.971
21
-154.386
0
LINE
8
BLACK
6
CONTINUOUS
10
253.971
20
-154.386
11
253.876
21
-154.481
0
LINE
8
BLACK
6
CONTINUOUS
10
253.876
20
-154.481
11
253.685
21
-154.576
0
LINE
8
BLACK
6
CONTINUOUS
10
253.685
20
-154.576
11
253.304
21
-154.576
0
LINE
8
BLACK
6
CONTINUOUS
10
253.304
20
-154.576
11
253.114
21
-154.481
0
LINE
8
BLACK
6
CONTINUOUS
10
255.209
20
-154.576
11
255.019
21
-154.481
0
LINE
8
BLACK
6
CONTINUOUS
10
255.019
20
-154.481
11
254.923
21
-154.29
0
LINE
8
BLACK
6
CONTINUOUS
10
254.923
20
-154.29
11
254.923
21
-152.576
0
LINE
8
BLACK
6
CONTINUOUS
10
256.828
20
-154.576
11
256.828
21
-153.529
0
LINE
8
BLACK
6
CONTINUOUS
10
256.828
20
-153.529
11
256.733
21
-153.338
0
LINE
8
BLACK
6
CONTINUOUS
10
256.733
20
-153.338
11
256.542
21
-153.243
0
LINE
8
BLACK
6
CONTINUOUS
10
256.542
20
-153.243
11
256.162
21
-153.243
0
LINE
8
BLACK
6
CONTINUOUS
10
256.162
20
-153.243
11
255.971
21
-153.338
0
LINE
8
BLACK
6
CONTINUOUS
10
256.828
20
-154.481
11
256.638
21
-154.576
0
LINE
8
BLACK
6
CONTINUOUS
10
256.638
20
-154.576
11
256.162
21
-154.576
0
LINE
8
BLACK
6
CONTINUOUS
10
256.162
20
-154.576
11
255.971
21
-154.481
0
LINE
8
BLACK
6
CONTINUOUS
10
255.971
20
-154.481
11
255.876
21
-154.29
0
LINE
8
BLACK
6
CONTINUOUS
10
255.876
20
-154.29
11
255.876
21
-154.1
0
LINE
8
BLACK
6
CONTINUOUS
10
255.876
20
-154.1
11
255.971
21
-153.909
0
LINE
8
BLACK
6
CONTINUOUS
10
255.971
20
-153.909
11
256.162
21
-153.814
0
LINE
8
BLACK
6
CONTINUOUS
10
256.162
20
-153.814
11
256.638
21
-153.814
0
LINE
8
BLACK
6
CONTINUOUS
10
256.638
20
-153.814
11
256.828
21
-153.719
0
LINE
8
BLACK
6
CONTINUOUS
10
257.495
20
-153.243
11
258.257
21
-153.243
0
LINE
8
BLACK
6
CONTINUOUS
10
257.781
20
-152.576
11
257.781
21
-154.29
0
LINE
8
BLACK
6
CONTINUOUS
10
257.781
20
-154.29
11
257.876
21
-154.481
0
LINE
8
BLACK
6
CONTINUOUS
10
257.876
20
-154.481
11
258.066
21
-154.576
0
LINE
8
BLACK
6
CONTINUOUS
10
258.066
20
-154.576
11
258.257
21
-154.576
0
LINE
8
BLACK
6
CONTINUOUS
10
259.685
20
-154.481
11
259.495
21
-154.576
0
LINE
8
BLACK
6
CONTINUOUS
10
259.495
20
-154.576
11
259.114
21
-154.576
0
LINE
8
BLACK
6
CONTINUOUS
10
259.114
20
-154.576
11
258.923
21
-154.481
0
LINE
8
BLACK
6
CONTINUOUS
10
258.923
20
-154.481
11
258.828
21
-154.29
0
LINE
8
BLACK
6
CONTINUOUS
10
258.828
20
-154.29
11
258.828
21
-153.529
0
LINE
8
BLACK
6
CONTINUOUS
10
258.828
20
-153.529
11
258.923
21
-153.338
0
LINE
8
BLACK
6
CONTINUOUS
10
258.923
20
-153.338
11
259.114
21
-153.243
0
LINE
8
BLACK
6
CONTINUOUS
10
259.114
20
-153.243
11
259.495
21
-153.243
0
LINE
8
BLACK
6
CONTINUOUS
10
259.495
20
-153.243
11
259.685
21
-153.338
0
LINE
8
BLACK
6
CONTINUOUS
10
259.685
20
-153.338
11
259.781
21
-153.529
0
LINE
8
BLACK
6
CONTINUOUS
10
259.781
20
-153.529
11
259.781
21
-153.719
0
LINE
8
BLACK
6
CONTINUOUS
10
259.781
20
-153.719
11
258.828
21
-153.909
0
LINE
8
BLACK
6
CONTINUOUS
10
261.495
20
-154.576
11
261.495
21
-152.576
0
LINE
8
BLACK
6
CONTINUOUS
10
261.495
20
-154.481
11
261.304
21
-154.576
0
LINE
8
BLACK
6
CONTINUOUS
10
261.304
20
-154.576
11
260.923
21
-154.576
0
LINE
8
BLACK
6
CONTINUOUS
10
260.923
20
-154.576
11
260.733
21
-154.481
0
LINE
8
BLACK
6
CONTINUOUS
10
260.733
20
-154.481
11
260.638
21
-154.386
0
LINE
8
BLACK
6
CONTINUOUS
10
260.638
20
-154.386
11
260.542
21
-154.195
0
LINE
8
BLACK
6
CONTINUOUS
10
260.542
20
-154.195
11
260.542
21
-153.624
0
LINE
8
BLACK
6
CONTINUOUS
10
260.542
20
-153.624
11
260.638
21
-153.433
0
LINE
8
BLACK
6
CONTINUOUS
10
260.638
20
-153.433
11
260.733
21
-153.338
0
LINE
8
BLACK
6
CONTINUOUS
10
260.733
20
-153.338
11
260.923
21
-153.243
0
LINE
8
BLACK
6
CONTINUOUS
10
260.923
20
-153.243
11
261.304
21
-153.243
0
LINE
8
BLACK
6
CONTINUOUS
10
261.304
20
-153.243
11
261.495
21
-153.338
0
LINE
8
BLACK
6
CONTINUOUS
10
262.257
20
-155.338
11
262.352
21
-155.243
0
LINE
8
BLACK
6
CONTINUOUS
10
262.352
20
-155.243
11
262.542
21
-154.957
0
LINE
8
BLACK
6
CONTINUOUS
10
262.542
20
-154.957
11
262.638
21
-154.767
0
LINE
8
BLACK
6
CONTINUOUS
10
262.638
20
-154.767
11
262.733
21
-154.481
0
LINE
8
BLACK
6
CONTINUOUS
10
262.733
20
-154.481
11
262.828
21
-154.005
0
LINE
8
BLACK
6
CONTINUOUS
10
262.828
20
-154.005
11
262.828
21
-153.624
0
LINE
8
BLACK
6
CONTINUOUS
10
262.828
20
-153.624
11
262.733
21
-153.148
0
LINE
8
BLACK
6
CONTINUOUS
10
262.733
20
-153.148
11
262.638
21
-152.862
0
LINE
8
BLACK
6
CONTINUOUS
10
262.638
20
-152.862
11
262.542
21
-152.671
0
LINE
8
BLACK
6
CONTINUOUS
10
262.542
20
-152.671
11
262.352
21
-152.386
0
LINE
8
BLACK
6
CONTINUOUS
10
262.352
20
-152.386
11
262.257
21
-152.29
0
CIRCLE
8
BLACK
10
193.877
20
-156.311
40
0.8509
0
LINE
8
BLACK
6
CONTINUOUS
10
198.352
20
-157.216
11
197.209
21
-157.216
0
LINE
8
BLACK
6
CONTINUOUS
10
197.781
20
-157.216
11
197.781
21
-155.216
0
LINE
8
BLACK
6
CONTINUOUS
10
197.781
20
-155.216
11
197.59
21
-155.502
0
LINE
8
BLACK
6
CONTINUOUS
10
197.59
20
-155.502
11
197.4
21
-155.692
0
LINE
8
BLACK
6
CONTINUOUS
10
197.4
20
-155.692
11
197.209
21
-155.788
0
LINE
8
BLACK
6
CONTINUOUS
10
199.209
20
-157.026
11
199.304
21
-157.121
0
LINE
8
BLACK
6
CONTINUOUS
10
199.304
20
-157.121
11
199.209
21
-157.216
0
LINE
8
BLACK
6
CONTINUOUS
10
199.209
20
-157.216
11
199.114
21
-157.121
0
LINE
8
BLACK
6
CONTINUOUS
10
199.114
20
-157.121
11
199.209
21
-157.026
0
LINE
8
BLACK
6
CONTINUOUS
10
199.209
20
-157.026
11
199.209
21
-157.216
0
LINE
8
BLACK
6
CONTINUOUS
10
199.971
20
-155.216
11
201.304
21
-155.216
0
LINE
8
BLACK
6
CONTINUOUS
10
201.304
20
-155.216
11
200.447
21
-157.216
0
LINE
8
BLACK
6
CONTINUOUS
10
202.447
20
-155.216
11
202.638
21
-155.216
0
LINE
8
BLACK
6
CONTINUOUS
10
202.638
20
-155.216
11
202.828
21
-155.311
0
LINE
8
BLACK
6
CONTINUOUS
10
202.828
20
-155.311
11
202.923
21
-155.407
0
LINE
8
BLACK
6
CONTINUOUS
10
202.923
20
-155.407
11
203.019
21
-155.597
0
LINE
8
BLACK
6
CONTINUOUS
10
203.019
20
-155.597
11
203.114
21
-155.978
0
LINE
8
BLACK
6
CONTINUOUS
10
203.114
20
-155.978
11
203.114
21
-156.454
0
LINE
8
BLACK
6
CONTINUOUS
10
203.114
20
-156.454
11
203.019
21
-156.835
0
LINE
8
BLACK
6
CONTINUOUS
10
203.019
20
-156.835
11
202.923
21
-157.026
0
LINE
8
BLACK
6
CONTINUOUS
10
202.923
20
-157.026
11
202.828
21
-157.121
0
LINE
8
BLACK
6
CONTINUOUS
10
202.828
20
-157.121
11
202.638
21
-157.216
0
LINE
8
BLACK
6
CONTINUOUS
10
202.638
20
-157.216
11
202.447
21
-157.216
0
LINE
8
BLACK
6
CONTINUOUS
10
202.447
20
-157.216
11
202.257
21
-157.121
0
LINE
8
BLACK
6
CONTINUOUS
10
202.257
20
-157.121
11
202.162
21
-157.026
0
LINE
8
BLACK
6
CONTINUOUS
10
202.162
20
-157.026
11
202.066
21
-156.835
0
LINE
8
BLACK
6
CONTINUOUS
10
202.066
20
-156.835
11
201.971
21
-156.454
0
LINE
8
BLACK
6
CONTINUOUS
10
201.971
20
-156.454
11
201.971
21
-155.978
0
LINE
8
BLACK
6
CONTINUOUS
10
201.971
20
-155.978
11
202.066
21
-155.597
0
LINE
8
BLACK
6
CONTINUOUS
10
202.066
20
-155.597
11
202.162
21
-155.407
0
LINE
8
BLACK
6
CONTINUOUS
10
202.162
20
-155.407
11
202.257
21
-155.311
0
LINE
8
BLACK
6
CONTINUOUS
10
202.257
20
-155.311
11
202.447
21
-155.216
0
LINE
8
BLACK
6
CONTINUOUS
10
203.876
20
-155.407
11
203.971
21
-155.311
0
LINE
8
BLACK
6
CONTINUOUS
10
203.971
20
-155.311
11
204.162
21
-155.216
0
LINE
8
BLACK
6
CONTINUOUS
10
204.162
20
-155.216
11
204.638
21
-155.216
0
LINE
8
BLACK
6
CONTINUOUS
10
204.638
20
-155.216
11
204.828
21
-155.311
0
LINE
8
BLACK
6
CONTINUOUS
10
204.828
20
-155.311
11
204.923
21
-155.407
0
LINE
8
BLACK
6
CONTINUOUS
10
204.923
20
-155.407
11
205.019
21
-155.597
0
LINE
8
BLACK
6
CONTINUOUS
10
205.019
20
-155.597
11
205.019
21
-155.788
0
LINE
8
BLACK
6
CONTINUOUS
10
205.019
20
-155.788
11
204.923
21
-156.073
0
LINE
8
BLACK
6
CONTINUOUS
10
204.923
20
-156.073
11
203.781
21
-157.216
0
LINE
8
BLACK
6
CONTINUOUS
10
203.781
20
-157.216
11
205.019
21
-157.216
0
LINE
8
BLACK
6
CONTINUOUS
10
205.876
20
-157.216
11
205.876
21
-155.883
0
LINE
8
BLACK
6
CONTINUOUS
10
205.876
20
-156.073
11
205.971
21
-155.978
0
LINE
8
BLACK
6
CONTINUOUS
10
205.971
20
-155.978
11
206.162
21
-155.883
0
LINE
8
BLACK
6
CONTINUOUS
10
206.162
20
-155.883
11
206.447
21
-155.883
0
LINE
8
BLACK
6
CONTINUOUS
10
206.447
20
-155.883
11
206.638
21
-155.978
0
LINE
8
BLACK
6
CONTINUOUS
10
206.638
20
-155.978
11
206.733
21
-156.169
0
LINE
8
BLACK
6
CONTINUOUS
10
206.733
20
-156.169
11
206.733
21
-157.216
0
LINE
8
BLACK
6
CONTINUOUS
10
206.733
20
-156.169
11
206.828
21
-155.978
0
LINE
8
BLACK
6
CONTINUOUS
10
206.828
20
-155.978
11
207.019
21
-155.883
0
LINE
8
BLACK
6
CONTINUOUS
10
207.019
20
-155.883
11
207.304
21
-155.883
0
LINE
8
BLACK
6
CONTINUOUS
10
207.304
20
-155.883
11
207.495
21
-155.978
0
LINE
8
BLACK
6
CONTINUOUS
10
207.495
20
-155.978
11
207.59
21
-156.169
0
LINE
8
BLACK
6
CONTINUOUS
10
207.59
20
-156.169
11
207.59
21
-157.216
0
LINE
8
BLACK
6
CONTINUOUS
10
208.542
20
-157.216
11
208.542
21
-155.883
0
LINE
8
BLACK
6
CONTINUOUS
10
208.542
20
-156.073
11
208.638
21
-155.978
0
LINE
8
BLACK
6
CONTINUOUS
10
208.638
20
-155.978
11
208.828
21
-155.883
0
LINE
8
BLACK
6
CONTINUOUS
10
208.828
20
-155.883
11
209.114
21
-155.883
0
LINE
8
BLACK
6
CONTINUOUS
10
209.114
20
-155.883
11
209.304
21
-155.978
0
LINE
8
BLACK
6
CONTINUOUS
10
209.304
20
-155.978
11
209.4
21
-156.169
0
LINE
8
BLACK
6
CONTINUOUS
10
209.4
20
-156.169
11
209.4
21
-157.216
0
LINE
8
BLACK
6
CONTINUOUS
10
209.4
20
-156.169
11
209.495
21
-155.978
0
LINE
8
BLACK
6
CONTINUOUS
10
209.495
20
-155.978
11
209.685
21
-155.883
0
LINE
8
BLACK
6
CONTINUOUS
10
209.685
20
-155.883
11
209.971
21
-155.883
0
LINE
8
BLACK
6
CONTINUOUS
10
209.971
20
-155.883
11
210.162
21
-155.978
0
LINE
8
BLACK
6
CONTINUOUS
10
210.162
20
-155.978
11
210.257
21
-156.169
0
LINE
8
BLACK
6
CONTINUOUS
10
210.257
20
-156.169
11
210.257
21
-157.216
0
LINE
8
BLACK
6
CONTINUOUS
10
214.162
20
-155.121
11
212.447
21
-157.692
0
LINE
8
BLACK
6
CONTINUOUS
10
216.733
20
-155.216
11
216.923
21
-155.216
0
LINE
8
BLACK
6
CONTINUOUS
10
216.923
20
-155.216
11
217.114
21
-155.311
0
LINE
8
BLACK
6
CONTINUOUS
10
217.114
20
-155.311
11
217.209
21
-155.407
0
LINE
8
BLACK
6
CONTINUOUS
10
217.209
20
-155.407
11
217.304
21
-155.597
0
LINE
8
BLACK
6
CONTINUOUS
10
217.304
20
-155.597
11
217.4
21
-155.978
0
LINE
8
BLACK
6
CONTINUOUS
10
217.4
20
-155.978
11
217.4
21
-156.454
0
LINE
8
BLACK
6
CONTINUOUS
10
217.4
20
-156.454
11
217.304
21
-156.835
0
LINE
8
BLACK
6
CONTINUOUS
10
217.304
20
-156.835
11
217.209
21
-157.026
0
LINE
8
BLACK
6
CONTINUOUS
10
217.209
20
-157.026
11
217.114
21
-157.121
0
LINE
8
BLACK
6
CONTINUOUS
10
217.114
20
-157.121
11
216.923
21
-157.216
0
LINE
8
BLACK
6
CONTINUOUS
10
216.923
20
-157.216
11
216.733
21
-157.216
0
LINE
8
BLACK
6
CONTINUOUS
10
216.733
20
-157.216
11
216.542
21
-157.121
0
LINE
8
BLACK
6
CONTINUOUS
10
216.542
20
-157.121
11
216.447
21
-157.026
0
LINE
8
BLACK
6
CONTINUOUS
10
216.447
20
-157.026
11
216.352
21
-156.835
0
LINE
8
BLACK
6
CONTINUOUS
10
216.352
20
-156.835
11
216.257
21
-156.454
0
LINE
8
BLACK
6
CONTINUOUS
10
216.257
20
-156.454
11
216.257
21
-155.978
0
LINE
8
BLACK
6
CONTINUOUS
10
216.257
20
-155.978
11
216.352
21
-155.597
0
LINE
8
BLACK
6
CONTINUOUS
10
216.352
20
-155.597
11
216.447
21
-155.407
0
LINE
8
BLACK
6
CONTINUOUS
10
216.447
20
-155.407
11
216.542
21
-155.311
0
LINE
8
BLACK
6
CONTINUOUS
10
216.542
20
-155.311
11
216.733
21
-155.216
0
LINE
8
BLACK
6
CONTINUOUS
10
218.257
20
-157.026
11
218.352
21
-157.121
0
LINE
8
BLACK
6
CONTINUOUS
10
218.352
20
-157.121
11
218.257
21
-157.216
0
LINE
8
BLACK
6
CONTINUOUS
10
218.257
20
-157.216
11
218.162
21
-157.121
0
LINE
8
BLACK
6
CONTINUOUS
10
218.162
20
-157.121
11
218.257
21
-157.026
0
LINE
8
BLACK
6
CONTINUOUS
10
218.257
20
-157.026
11
218.257
21
-157.216
0
LINE
8
BLACK
6
CONTINUOUS
10
219.59
20
-155.216
11
219.781
21
-155.216
0
LINE
8
BLACK
6
CONTINUOUS
10
219.781
20
-155.216
11
219.971
21
-155.311
0
LINE
8
BLACK
6
CONTINUOUS
10
219.971
20
-155.311
11
220.066
21
-155.407
0
LINE
8
BLACK
6
CONTINUOUS
10
220.066
20
-155.407
11
220.162
21
-155.597
0
LINE
8
BLACK
6
CONTINUOUS
10
220.162
20
-155.597
11
220.257
21
-155.978
0
LINE
8
BLACK
6
CONTINUOUS
10
220.257
20
-155.978
11
220.257
21
-156.454
0
LINE
8
BLACK
6
CONTINUOUS
10
220.257
20
-156.454
11
220.162
21
-156.835
0
LINE
8
BLACK
6
CONTINUOUS
10
220.162
20
-156.835
11
220.066
21
-157.026
0
LINE
8
BLACK
6
CONTINUOUS
10
220.066
20
-157.026
11
219.971
21
-157.121
0
LINE
8
BLACK
6
CONTINUOUS
10
219.971
20
-157.121
11
219.781
21
-157.216
0
LINE
8
BLACK
6
CONTINUOUS
10
219.781
20
-157.216
11
219.59
21
-157.216
0
LINE
8
BLACK
6
CONTINUOUS
10
219.59
20
-157.216
11
219.4
21
-157.121
0
LINE
8
BLACK
6
CONTINUOUS
10
219.4
20
-157.121
11
219.304
21
-157.026
0
LINE
8
BLACK
6
CONTINUOUS
10
219.304
20
-157.026
11
219.209
21
-156.835
0
LINE
8
BLACK
6
CONTINUOUS
10
219.209
20
-156.835
11
219.114
21
-156.454
0
LINE
8
BLACK
6
CONTINUOUS
10
219.114
20
-156.454
11
219.114
21
-155.978
0
LINE
8
BLACK
6
CONTINUOUS
10
219.114
20
-155.978
11
219.209
21
-155.597
0
LINE
8
BLACK
6
CONTINUOUS
10
219.209
20
-155.597
11
219.304
21
-155.407
0
LINE
8
BLACK
6
CONTINUOUS
10
219.304
20
-155.407
11
219.4
21
-155.311
0
LINE
8
BLACK
6
CONTINUOUS
10
219.4
20
-155.311
11
219.59
21
-155.216
0
LINE
8
BLACK
6
CONTINUOUS
10
221.971
20
-155.216
11
221.59
21
-155.216
0
LINE
8
BLACK
6
CONTINUOUS
10
221.59
20
-155.216
11
221.4
21
-155.311
0
LINE
8
BLACK
6
CONTINUOUS
10
221.4
20
-155.311
11
221.304
21
-155.407
0
LINE
8
BLACK
6
CONTINUOUS
10
221.304
20
-155.407
11
221.114
21
-155.692
0
LINE
8
BLACK
6
CONTINUOUS
10
221.114
20
-155.692
11
221.019
21
-156.073
0
LINE
8
BLACK
6
CONTINUOUS
10
221.019
20
-156.073
11
221.019
21
-156.835
0
LINE
8
BLACK
6
CONTINUOUS
10
221.019
20
-156.835
11
221.114
21
-157.026
0
LINE
8
BLACK
6
CONTINUOUS
10
221.114
20
-157.026
11
221.209
21
-157.121
0
LINE
8
BLACK
6
CONTINUOUS
10
221.209
20
-157.121
11
221.4
21
-157.216
0
LINE
8
BLACK
6
CONTINUOUS
10
221.4
20
-157.216
11
221.781
21
-157.216
0
LINE
8
BLACK
6
CONTINUOUS
10
221.781
20
-157.216
11
221.971
21
-157.121
0
LINE
8
BLACK
6
CONTINUOUS
10
221.971
20
-157.121
11
222.066
21
-157.026
0
LINE
8
BLACK
6
CONTINUOUS
10
222.066
20
-157.026
11
222.162
21
-156.835
0
LINE
8
BLACK
6
CONTINUOUS
10
222.162
20
-156.835
11
222.162
21
-156.359
0
LINE
8
BLACK
6
CONTINUOUS
10
222.162
20
-156.359
11
222.066
21
-156.169
0
LINE
8
BLACK
6
CONTINUOUS
10
222.066
20
-156.169
11
221.971
21
-156.073
0
LINE
8
BLACK
6
CONTINUOUS
10
221.971
20
-156.073
11
221.781
21
-155.978
0
LINE
8
BLACK
6
CONTINUOUS
10
221.781
20
-155.978
11
221.4
21
-155.978
0
LINE
8
BLACK
6
CONTINUOUS
10
221.4
20
-155.978
11
221.209
21
-156.073
0
LINE
8
BLACK
6
CONTINUOUS
10
221.209
20
-156.073
11
221.114
21
-156.169
0
LINE
8
BLACK
6
CONTINUOUS
10
221.114
20
-156.169
11
221.019
21
-156.359
0
LINE
8
BLACK
6
CONTINUOUS
10
222.828
20
-155.216
11
224.162
21
-155.216
0
LINE
8
BLACK
6
CONTINUOUS
10
224.162
20
-155.216
11
223.304
21
-157.216
0
LINE
8
BLACK
6
CONTINUOUS
10
225.304
20
-155.216
11
225.495
21
-155.216
0
LINE
8
BLACK
6
CONTINUOUS
10
225.495
20
-155.216
11
225.685
21
-155.311
0
LINE
8
BLACK
6
CONTINUOUS
10
225.685
20
-155.311
11
225.781
21
-155.407
0
LINE
8
BLACK
6
CONTINUOUS
10
225.781
20
-155.407
11
225.876
21
-155.597
0
LINE
8
BLACK
6
CONTINUOUS
10
225.876
20
-155.597
11
225.971
21
-155.978
0
LINE
8
BLACK
6
CONTINUOUS
10
225.971
20
-155.978
11
225.971
21
-156.454
0
LINE
8
BLACK
6
CONTINUOUS
10
225.971
20
-156.454
11
225.876
21
-156.835
0
LINE
8
BLACK
6
CONTINUOUS
10
225.876
20
-156.835
11
225.781
21
-157.026
0
LINE
8
BLACK
6
CONTINUOUS
10
225.781
20
-157.026
11
225.685
21
-157.121
0
LINE
8
BLACK
6
CONTINUOUS
10
225.685
20
-157.121
11
225.495
21
-157.216
0
LINE
8
BLACK
6
CONTINUOUS
10
225.495
20
-157.216
11
225.304
21
-157.216
0
LINE
8
BLACK
6
CONTINUOUS
10
225.304
20
-157.216
11
225.114
21
-157.121
0
LINE
8
BLACK
6
CONTINUOUS
10
225.114
20
-157.121
11
225.019
21
-157.026
0
LINE
8
BLACK
6
CONTINUOUS
10
225.019
20
-157.026
11
224.923
21
-156.835
0
LINE
8
BLACK
6
CONTINUOUS
10
224.923
20
-156.835
11
224.828
21
-156.454
0
LINE
8
BLACK
6
CONTINUOUS
10
224.828
20
-156.454
11
224.828
21
-155.978
0
LINE
8
BLACK
6
CONTINUOUS
10
224.828
20
-155.978
11
224.923
21
-155.597
0
LINE
8
BLACK
6
CONTINUOUS
10
224.923
20
-155.597
11
225.019
21
-155.407
0
LINE
8
BLACK
6
CONTINUOUS
10
225.019
20
-155.407
11
225.114
21
-155.311
0
LINE
8
BLACK
6
CONTINUOUS
10
225.114
20
-155.311
11
225.304
21
-155.216
0
LINE
8
BLACK
6
CONTINUOUS
10
226.733
20
-155.216
11
226.733
21
-155.597
0
LINE
8
BLACK
6
CONTINUOUS
10
227.495
20
-155.216
11
227.495
21
-155.597
0
LINE
8
BLACK
6
CONTINUOUS
10
230.447
20
-157.978
11
230.352
21
-157.883
0
LINE
8
BLACK
6
CONTINUOUS
10
230.352
20
-157.883
11
230.162
21
-157.597
0
LINE
8
BLACK
6
CONTINUOUS
10
230.162
20
-157.597
11
230.066
21
-157.407
0
LINE
8
BLACK
6
CONTINUOUS
10
230.066
20
-157.407
11
229.971
21
-157.121
0
LINE
8
BLACK
6
CONTINUOUS
10
229.971
20
-157.121
11
229.876
21
-156.645
0
LINE
8
BLACK
6
CONTINUOUS
10
229.876
20
-156.645
11
229.876
21
-156.264
0
LINE
8
BLACK
6
CONTINUOUS
10
229.876
20
-156.264
11
229.971
21
-155.788
0
LINE
8
BLACK
6
CONTINUOUS
10
229.971
20
-155.788
11
230.066
21
-155.502
0
LINE
8
BLACK
6
CONTINUOUS
10
230.066
20
-155.502
11
230.162
21
-155.311
0
LINE
8
BLACK
6
CONTINUOUS
10
230.162
20
-155.311
11
230.352
21
-155.026
0
LINE
8
BLACK
6
CONTINUOUS
10
230.352
20
-155.026
11
230.447
21
-154.93
0
LINE
8
BLACK
6
CONTINUOUS
10
232.066
20
-155.216
11
231.685
21
-155.216
0
LINE
8
BLACK
6
CONTINUOUS
10
231.685
20
-155.216
11
231.495
21
-155.311
0
LINE
8
BLACK
6
CONTINUOUS
10
231.495
20
-155.311
11
231.4
21
-155.407
0
LINE
8
BLACK
6
CONTINUOUS
10
231.4
20
-155.407
11
231.209
21
-155.692
0
LINE
8
BLACK
6
CONTINUOUS
10
231.209
20
-155.692
11
231.114
21
-156.073
0
LINE
8
BLACK
6
CONTINUOUS
10
231.114
20
-156.073
11
231.114
21
-156.835
0
LINE
8
BLACK
6
CONTINUOUS
10
231.114
20
-156.835
11
231.209
21
-157.026
0
LINE
8
BLACK
6
CONTINUOUS
10
231.209
20
-157.026
11
231.304
21
-157.121
0
LINE
8
BLACK
6
CONTINUOUS
10
231.304
20
-157.121
11
231.495
21
-157.216
0
LINE
8
BLACK
6
CONTINUOUS
10
231.495
20
-157.216
11
231.876
21
-157.216
0
LINE
8
BLACK
6
CONTINUOUS
10
231.876
20
-157.216
11
232.066
21
-157.121
0
LINE
8
BLACK
6
CONTINUOUS
10
232.066
20
-157.121
11
232.162
21
-157.026
0
LINE
8
BLACK
6
CONTINUOUS
10
232.162
20
-157.026
11
232.257
21
-156.835
0
LINE
8
BLACK
6
CONTINUOUS
10
232.257
20
-156.835
11
232.257
21
-156.359
0
LINE
8
BLACK
6
CONTINUOUS
10
232.257
20
-156.359
11
232.162
21
-156.169
0
LINE
8
BLACK
6
CONTINUOUS
10
232.162
20
-156.169
11
232.066
21
-156.073
0
LINE
8
BLACK
6
CONTINUOUS
10
232.066
20
-156.073
11
231.876
21
-155.978
0
LINE
8
BLACK
6
CONTINUOUS
10
231.876
20
-155.978
11
231.495
21
-155.978
0
LINE
8
BLACK
6
CONTINUOUS
10
231.495
20
-155.978
11
231.304
21
-156.073
0
LINE
8
BLACK
6
CONTINUOUS
10
231.304
20
-156.073
11
231.209
21
-156.169
0
LINE
8
BLACK
6
CONTINUOUS
10
231.209
20
-156.169
11
231.114
21
-156.359
0
LINE
8
BLACK
6
CONTINUOUS
10
233.495
20
-155.216
11
233.685
21
-155.216
0
LINE
8
BLACK
6
CONTINUOUS
10
233.685
20
-155.216
11
233.876
21
-155.311
0
LINE
8
BLACK
6
CONTINUOUS
10
233.876
20
-155.311
11
233.971
21
-155.407
0
LINE
8
BLACK
6
CONTINUOUS
10
233.971
20
-155.407
11
234.066
21
-155.597
0
LINE
8
BLACK
6
CONTINUOUS
10
234.066
20
-155.597
11
234.162
21
-155.978
0
LINE
8
BLACK
6
CONTINUOUS
10
234.162
20
-155.978
11
234.162
21
-156.454
0
LINE
8
BLACK
6
CONTINUOUS
10
234.162
20
-156.454
11
234.066
21
-156.835
0
LINE
8
BLACK
6
CONTINUOUS
10
234.066
20
-156.835
11
233.971
21
-157.026
0
LINE
8
BLACK
6
CONTINUOUS
10
233.971
20
-157.026
11
233.876
21
-157.121
0
LINE
8
BLACK
6
CONTINUOUS
10
233.876
20
-157.121
11
233.685
21
-157.216
0
LINE
8
BLACK
6
CONTINUOUS
10
233.685
20
-157.216
11
233.495
21
-157.216
0
LINE
8
BLACK
6
CONTINUOUS
10
233.495
20
-157.216
11
233.304
21
-157.121
0
LINE
8
BLACK
6
CONTINUOUS
10
233.304
20
-157.121
11
233.209
21
-157.026
0
LINE
8
BLACK
6
CONTINUOUS
10
233.209
20
-157.026
11
233.114
21
-156.835
0
LINE
8
BLACK
6
CONTINUOUS
10
233.114
20
-156.835
11
233.019
21
-156.454
0
LINE
8
BLACK
6
CONTINUOUS
10
233.019
20
-156.454
11
233.019
21
-155.978
0
LINE
8
BLACK
6
CONTINUOUS
10
233.019
20
-155.978
11
233.114
21
-155.597
0
LINE
8
BLACK
6
CONTINUOUS
10
233.114
20
-155.597
11
233.209
21
-155.407
0
LINE
8
BLACK
6
CONTINUOUS
10
233.209
20
-155.407
11
233.304
21
-155.311
0
LINE
8
BLACK
6
CONTINUOUS
10
233.304
20
-155.311
11
233.495
21
-155.216
0
LINE
8
BLACK
6
CONTINUOUS
10
236.542
20
-157.216
11
236.542
21
-155.216
0
LINE
8
BLACK
6
CONTINUOUS
10
237.4
20
-157.216
11
237.4
21
-156.169
0
LINE
8
BLACK
6
CONTINUOUS
10
237.4
20
-156.169
11
237.304
21
-155.978
0
LINE
8
BLACK
6
CONTINUOUS
10
237.304
20
-155.978
11
237.114
21
-155.883
0
LINE
8
BLACK
6
CONTINUOUS
10
237.114
20
-155.883
11
236.828
21
-155.883
0
LINE
8
BLACK
6
CONTINUOUS
10
236.828
20
-155.883
11
236.638
21
-155.978
0
LINE
8
BLACK
6
CONTINUOUS
10
236.638
20
-155.978
11
236.542
21
-156.073
0
LINE
8
BLACK
6
CONTINUOUS
10
238.638
20
-157.216
11
238.447
21
-157.121
0
LINE
8
BLACK
6
CONTINUOUS
10
238.447
20
-157.121
11
238.352
21
-157.026
0
LINE
8
BLACK
6
CONTINUOUS
10
238.352
20
-157.026
11
238.257
21
-156.835
0
LINE
8
BLACK
6
CONTINUOUS
10
238.257
20
-156.835
11
238.257
21
-156.264
0
LINE
8
BLACK
6
CONTINUOUS
10
238.257
20
-156.264
11
238.352
21
-156.073
0
LINE
8
BLACK
6
CONTINUOUS
10
238.352
20
-156.073
11
238.447
21
-155.978
0
LINE
8
BLACK
6
CONTINUOUS
10
238.447
20
-155.978
11
238.638
21
-155.883
0
LINE
8
BLACK
6
CONTINUOUS
10
238.638
20
-155.883
11
238.923
21
-155.883
0
LINE
8
BLACK
6
CONTINUOUS
10
238.923
20
-155.883
11
239.114
21
-155.978
0
LINE
8
BLACK
6
CONTINUOUS
10
239.114
20
-155.978
11
239.209
21
-156.073
0
LINE
8
BLACK
6
CONTINUOUS
10
239.209
20
-156.073
11
239.304
21
-156.264
0
LINE
8
BLACK
6
CONTINUOUS
10
239.304
20
-156.264
11
239.304
21
-156.835
0
LINE
8
BLACK
6
CONTINUOUS
10
239.304
20
-156.835
11
239.209
21
-157.026
0
LINE
8
BLACK
6
CONTINUOUS
10
239.209
20
-157.026
11
239.114
21
-157.121
0
LINE
8
BLACK
6
CONTINUOUS
10
239.114
20
-157.121
11
238.923
21
-157.216
0
LINE
8
BLACK
6
CONTINUOUS
10
238.923
20
-157.216
11
238.638
21
-157.216
0
LINE
8
BLACK
6
CONTINUOUS
10
240.447
20
-157.216
11
240.257
21
-157.121
0
LINE
8
BLACK
6
CONTINUOUS
10
240.257
20
-157.121
11
240.162
21
-156.93
0
LINE
8
BLACK
6
CONTINUOUS
10
240.162
20
-156.93
11
240.162
21
-155.216
0
LINE
8
BLACK
6
CONTINUOUS
10
241.971
20
-157.121
11
241.781
21
-157.216
0
LINE
8
BLACK
6
CONTINUOUS
10
241.781
20
-157.216
11
241.4
21
-157.216
0
LINE
8
BLACK
6
CONTINUOUS
10
241.4
20
-157.216
11
241.209
21
-157.121
0
LINE
8
BLACK
6
CONTINUOUS
10
241.209
20
-157.121
11
241.114
21
-156.93
0
LINE
8
BLACK
6
CONTINUOUS
10
241.114
20
-156.93
11
241.114
21
-156.169
0
LINE
8
BLACK
6
CONTINUOUS
10
241.114
20
-156.169
11
241.209
21
-155.978
0
LINE
8
BLACK
6
CONTINUOUS
10
241.209
20
-155.978
11
241.4
21
-155.883
0
LINE
8
BLACK
6
CONTINUOUS
10
241.4
20
-155.883
11
241.781
21
-155.883
0
LINE
8
BLACK
6
CONTINUOUS
10
241.781
20
-155.883
11
241.971
21
-155.978
0
LINE
8
BLACK
6
CONTINUOUS
10
241.971
20
-155.978
11
242.066
21
-156.169
0
LINE
8
BLACK
6
CONTINUOUS
10
242.066
20
-156.169
11
242.066
21
-156.359
0
LINE
8
BLACK
6
CONTINUOUS
10
242.066
20
-156.359
11
241.114
21
-156.549
0
LINE
8
BLACK
6
CONTINUOUS
10
242.828
20
-157.121
11
243.019
21
-157.216
0
LINE
8
BLACK
6
CONTINUOUS
10
243.019
20
-157.216
11
243.4
21
-157.216
0
LINE
8
BLACK
6
CONTINUOUS
10
243.4
20
-157.216
11
243.59
21
-157.121
0
LINE
8
BLACK
6
CONTINUOUS
10
243.59
20
-157.121
11
243.685
21
-156.93
0
LINE
8
BLACK
6
CONTINUOUS
10
243.685
20
-156.93
11
243.685
21
-156.835
0
LINE
8
BLACK
6
CONTINUOUS
10
243.685
20
-156.835
11
243.59
21
-156.645
0
LINE
8
BLACK
6
CONTINUOUS
10
243.59
20
-156.645
11
243.4
21
-156.549
0
LINE
8
BLACK
6
CONTINUOUS
10
243.4
20
-156.549
11
243.114
21
-156.549
0
LINE
8
BLACK
6
CONTINUOUS
10
243.114
20
-156.549
11
242.923
21
-156.454
0
LINE
8
BLACK
6
CONTINUOUS
10
242.923
20
-156.454
11
242.828
21
-156.264
0
LINE
8
BLACK
6
CONTINUOUS
10
242.828
20
-156.264
11
242.828
21
-156.169
0
LINE
8
BLACK
6
CONTINUOUS
10
242.828
20
-156.169
11
242.923
21
-155.978
0
LINE
8
BLACK
6
CONTINUOUS
10
242.923
20
-155.978
11
243.114
21
-155.883
0
LINE
8
BLACK
6
CONTINUOUS
10
243.114
20
-155.883
11
243.4
21
-155.883
0
LINE
8
BLACK
6
CONTINUOUS
10
243.4
20
-155.883
11
243.59
21
-155.978
0
LINE
8
BLACK
6
CONTINUOUS
10
244.352
20
-157.978
11
244.447
21
-157.883
0
LINE
8
BLACK
6
CONTINUOUS
10
244.447
20
-157.883
11
244.638
21
-157.597
0
LINE
8
BLACK
6
CONTINUOUS
10
244.638
20
-157.597
11
244.733
21
-157.407
0
LINE
8
BLACK
6
CONTINUOUS
10
244.733
20
-157.407
11
244.828
21
-157.121
0
LINE
8
BLACK
6
CONTINUOUS
10
244.828
20
-157.121
11
244.923
21
-156.645
0
LINE
8
BLACK
6
CONTINUOUS
10
244.923
20
-156.645
11
244.923
21
-156.264
0
LINE
8
BLACK
6
CONTINUOUS
10
244.923
20
-156.264
11
244.828
21
-155.788
0
LINE
8
BLACK
6
CONTINUOUS
10
244.828
20
-155.788
11
244.733
21
-155.502
0
LINE
8
BLACK
6
CONTINUOUS
10
244.733
20
-155.502
11
244.638
21
-155.311
0
LINE
8
BLACK
6
CONTINUOUS
10
244.638
20
-155.311
11
244.447
21
-155.026
0
LINE
8
BLACK
6
CONTINUOUS
10
244.447
20
-155.026
11
244.352
21
-154.93
0
LINE
8
BLACK
6
CONTINUOUS
10
247.971
20
-157.978
11
247.876
21
-157.883
0
LINE
8
BLACK
6
CONTINUOUS
10
247.876
20
-157.883
11
247.685
21
-157.597
0
LINE
8
BLACK
6
CONTINUOUS
10
247.685
20
-157.597
11
247.59
21
-157.407
0
LINE
8
BLACK
6
CONTINUOUS
10
247.59
20
-157.407
11
247.495
21
-157.121
0
LINE
8
BLACK
6
CONTINUOUS
10
247.495
20
-157.121
11
247.4
21
-156.645
0
LINE
8
BLACK
6
CONTINUOUS
10
247.4
20
-156.645
11
247.4
21
-156.264
0
LINE
8
BLACK
6
CONTINUOUS
10
247.4
20
-156.264
11
247.495
21
-155.788
0
LINE
8
BLACK
6
CONTINUOUS
10
247.495
20
-155.788
11
247.59
21
-155.502
0
LINE
8
BLACK
6
CONTINUOUS
10
247.59
20
-155.502
11
247.685
21
-155.311
0
LINE
8
BLACK
6
CONTINUOUS
10
247.685
20
-155.311
11
247.876
21
-155.026
0
LINE
8
BLACK
6
CONTINUOUS
10
247.876
20
-155.026
11
247.971
21
-154.93
0
LINE
8
BLACK
6
CONTINUOUS
10
248.733
20
-155.883
11
248.733
21
-157.216
0
LINE
8
BLACK
6
CONTINUOUS
10
248.733
20
-156.073
11
248.828
21
-155.978
0
LINE
8
BLACK
6
CONTINUOUS
10
248.828
20
-155.978
11
249.019
21
-155.883
0
LINE
8
BLACK
6
CONTINUOUS
10
249.019
20
-155.883
11
249.304
21
-155.883
0
LINE
8
BLACK
6
CONTINUOUS
10
249.304
20
-155.883
11
249.495
21
-155.978
0
LINE
8
BLACK
6
CONTINUOUS
10
249.495
20
-155.978
11
249.59
21
-156.169
0
LINE
8
BLACK
6
CONTINUOUS
10
249.59
20
-156.169
11
249.59
21
-157.216
0
LINE
8
BLACK
6
CONTINUOUS
10
250.828
20
-157.216
11
250.638
21
-157.121
0
LINE
8
BLACK
6
CONTINUOUS
10
250.638
20
-157.121
11
250.542
21
-157.026
0
LINE
8
BLACK
6
CONTINUOUS
10
250.542
20
-157.026
11
250.447
21
-156.835
0
LINE
8
BLACK
6
CONTINUOUS
10
250.447
20
-156.835
11
250.447
21
-156.264
0
LINE
8
BLACK
6
CONTINUOUS
10
250.447
20
-156.264
11
250.542
21
-156.073
0
LINE
8
BLACK
6
CONTINUOUS
10
250.542
20
-156.073
11
250.638
21
-155.978
0
LINE
8
BLACK
6
CONTINUOUS
10
250.638
20
-155.978
11
250.828
21
-155.883
0
LINE
8
BLACK
6
CONTINUOUS
10
250.828
20
-155.883
11
251.114
21
-155.883
0
LINE
8
BLACK
6
CONTINUOUS
10
251.114
20
-155.883
11
251.304
21
-155.978
0
LINE
8
BLACK
6
CONTINUOUS
10
251.304
20
-155.978
11
251.4
21
-156.073
0
LINE
8
BLACK
6
CONTINUOUS
10
251.4
20
-156.073
11
251.495
21
-156.264
0
LINE
8
BLACK
6
CONTINUOUS
10
251.495
20
-156.264
11
251.495
21
-156.835
0
LINE
8
BLACK
6
CONTINUOUS
10
251.495
20
-156.835
11
251.4
21
-157.026
0
LINE
8
BLACK
6
CONTINUOUS
10
251.4
20
-157.026
11
251.304
21
-157.121
0
LINE
8
BLACK
6
CONTINUOUS
10
251.304
20
-157.121
11
251.114
21
-157.216
0
LINE
8
BLACK
6
CONTINUOUS
10
251.114
20
-157.216
11
250.828
21
-157.216
0
LINE
8
BLACK
6
CONTINUOUS
10
252.066
20
-155.883
11
252.828
21
-155.883
0
LINE
8
BLACK
6
CONTINUOUS
10
252.352
20
-155.216
11
252.352
21
-156.93
0
LINE
8
BLACK
6
CONTINUOUS
10
252.352
20
-156.93
11
252.447
21
-157.121
0
LINE
8
BLACK
6
CONTINUOUS
10
252.447
20
-157.121
11
252.638
21
-157.216
0
LINE
8
BLACK
6
CONTINUOUS
10
252.638
20
-157.216
11
252.828
21
-157.216
0
LINE
8
BLACK
6
CONTINUOUS
10
255.019
20
-155.883
11
255.019
21
-157.883
0
LINE
8
BLACK
6
CONTINUOUS
10
255.019
20
-155.978
11
255.209
21
-155.883
0
LINE
8
BLACK
6
CONTINUOUS
10
255.209
20
-155.883
11
255.59
21
-155.883
0
LINE
8
BLACK
6
CONTINUOUS
10
255.59
20
-155.883
11
255.781
21
-155.978
0
LINE
8
BLACK
6
CONTINUOUS
10
255.781
20
-155.978
11
255.876
21
-156.073
0
LINE
8
BLACK
6
CONTINUOUS
10
255.876
20
-156.073
11
255.971
21
-156.264
0
LINE
8
BLACK
6
CONTINUOUS
10
255.971
20
-156.264
11
255.971
21
-156.835
0
LINE
8
BLACK
6
CONTINUOUS
10
255.971
20
-156.835
11
255.876
21
-157.026
0
LINE
8
BLACK
6
CONTINUOUS
10
255.876
20
-157.026
11
255.781
21
-157.121
0
LINE
8
BLACK
6
CONTINUOUS
10
255.781
20
-157.121
11
255.59
21
-157.216
0
LINE
8
BLACK
6
CONTINUOUS
10
255.59
20
-157.216
11
255.209
21
-157.216
0
LINE
8
BLACK
6
CONTINUOUS
10
255.209
20
-157.216
11
255.019
21
-157.121
0
LINE
8
BLACK
6
CONTINUOUS
10
257.114
20
-157.216
11
256.923
21
-157.121
0
LINE
8
BLACK
6
CONTINUOUS
10
256.923
20
-157.121
11
256.828
21
-156.93
0
LINE
8
BLACK
6
CONTINUOUS
10
256.828
20
-156.93
11
256.828
21
-155.216
0
LINE
8
BLACK
6
CONTINUOUS
10
258.733
20
-157.216
11
258.733
21
-156.169
0
LINE
8
BLACK
6
CONTINUOUS
10
258.733
20
-156.169
11
258.638
21
-155.978
0
LINE
8
BLACK
6
CONTINUOUS
10
258.638
20
-155.978
11
258.447
21
-155.883
0
LINE
8
BLACK
6
CONTINUOUS
10
258.447
20
-155.883
11
258.066
21
-155.883
0
LINE
8
BLACK
6
CONTINUOUS
10
258.066
20
-155.883
11
257.876
21
-155.978
0
LINE
8
BLACK
6
CONTINUOUS
10
258.733
20
-157.121
11
258.542
21
-157.216
0
LINE
8
BLACK
6
CONTINUOUS
10
258.542
20
-157.216
11
258.066
21
-157.216
0
LINE
8
BLACK
6
CONTINUOUS
10
258.066
20
-157.216
11
257.876
21
-157.121
0
LINE
8
BLACK
6
CONTINUOUS
10
257.876
20
-157.121
11
257.781
21
-156.93
0
LINE
8
BLACK
6
CONTINUOUS
10
257.781
20
-156.93
11
257.781
21
-156.74
0
LINE
8
BLACK
6
CONTINUOUS
10
257.781
20
-156.74
11
257.876
21
-156.549
0
LINE
8
BLACK
6
CONTINUOUS
10
257.876
20
-156.549
11
258.066
21
-156.454
0
LINE
8
BLACK
6
CONTINUOUS
10
258.066
20
-156.454
11
258.542
21
-156.454
0
LINE
8
BLACK
6
CONTINUOUS
10
258.542
20
-156.454
11
258.733
21
-156.359
0
LINE
8
BLACK
6
CONTINUOUS
10
259.4
20
-155.883
11
260.162
21
-155.883
0
LINE
8
BLACK
6
CONTINUOUS
10
259.685
20
-155.216
11
259.685
21
-156.93
0
LINE
8
BLACK
6
CONTINUOUS
10
259.685
20
-156.93
11
259.781
21
-157.121
0
LINE
8
BLACK
6
CONTINUOUS
10
259.781
20
-157.121
11
259.971
21
-157.216
0
LINE
8
BLACK
6
CONTINUOUS
10
259.971
20
-157.216
11
260.162
21
-157.216
0
LINE
8
BLACK
6
CONTINUOUS
10
261.59
20
-157.121
11
261.4
21
-157.216
0
LINE
8
BLACK
6
CONTINUOUS
10
261.4
20
-157.216
11
261.019
21
-157.216
0
LINE
8
BLACK
6
CONTINUOUS
10
261.019
20
-157.216
11
260.828
21
-157.121
0
LINE
8
BLACK
6
CONTINUOUS
10
260.828
20
-157.121
11
260.733
21
-156.93
0
LINE
8
BLACK
6
CONTINUOUS
10
260.733
20
-156.93
11
260.733
21
-156.169
0
LINE
8
BLACK
6
CONTINUOUS
10
260.733
20
-156.169
11
260.828
21
-155.978
0
LINE
8
BLACK
6
CONTINUOUS
10
260.828
20
-155.978
11
261.019
21
-155.883
0
LINE
8
BLACK
6
CONTINUOUS
10
261.019
20
-155.883
11
261.4
21
-155.883
0
LINE
8
BLACK
6
CONTINUOUS
10
261.4
20
-155.883
11
261.59
21
-155.978
0
LINE
8
BLACK
6
CONTINUOUS
10
261.59
20
-155.978
11
261.685
21
-156.169
0
LINE
8
BLACK
6
CONTINUOUS
10
261.685
20
-156.169
11
261.685
21
-156.359
0
LINE
8
BLACK
6
CONTINUOUS
10
261.685
20
-156.359
11
260.733
21
-156.549
0
LINE
8
BLACK
6
CONTINUOUS
10
263.4
20
-157.216
11
263.4
21
-155.216
0
LINE
8
BLACK
6
CONTINUOUS
10
263.4
20
-157.121
11
263.209
21
-157.216
0
LINE
8
BLACK
6
CONTINUOUS
10
263.209
20
-157.216
11
262.828
21
-157.216
0
LINE
8
BLACK
6
CONTINUOUS
10
262.828
20
-157.216
11
262.638
21
-157.121
0
LINE
8
BLACK
6
CONTINUOUS
10
262.638
20
-157.121
11
262.542
21
-157.026
0
LINE
8
BLACK
6
CONTINUOUS
10
262.542
20
-157.026
11
262.447
21
-156.835
0
LINE
8
BLACK
6
CONTINUOUS
10
262.447
20
-156.835
11
262.447
21
-156.264
0
LINE
8
BLACK
6
CONTINUOUS
10
262.447
20
-156.264
11
262.542
21
-156.073
0
LINE
8
BLACK
6
CONTINUOUS
10
262.542
20
-156.073
11
262.638
21
-155.978
0
LINE
8
BLACK
6
CONTINUOUS
10
262.638
20
-155.978
11
262.828
21
-155.883
0
LINE
8
BLACK
6
CONTINUOUS
10
262.828
20
-155.883
11
263.209
21
-155.883
0
LINE
8
BLACK
6
CONTINUOUS
10
263.209
20
-155.883
11
263.4
21
-155.978
0
LINE
8
BLACK
6
CONTINUOUS
10
264.162
20
-157.978
11
264.257
21
-157.883
0
LINE
8
BLACK
6
CONTINUOUS
10
264.257
20
-157.883
11
264.447
21
-157.597
0
LINE
8
BLACK
6
CONTINUOUS
10
264.447
20
-157.597
11
264.542
21
-157.407
0
LINE
8
BLACK
6
CONTINUOUS
10
264.542
20
-157.407
11
264.638
21
-157.121
0
LINE
8
BLACK
6
CONTINUOUS
10
264.638
20
-157.121
11
264.733
21
-156.645
0
LINE
8
BLACK
6
CONTINUOUS
10
264.733
20
-156.645
11
264.733
21
-156.264
0
LINE
8
BLACK
6
CONTINUOUS
10
264.733
20
-156.264
11
264.638
21
-155.788
0
LINE
8
BLACK
6
CONTINUOUS
10
264.638
20
-155.788
11
264.542
21
-155.502
0
LINE
8
BLACK
6
CONTINUOUS
10
264.542
20
-155.502
11
264.447
21
-155.311
0
LINE
8
BLACK
6
CONTINUOUS
10
264.447
20
-155.311
11
264.257
21
-155.026
0
LINE
8
BLACK
6
CONTINUOUS
10
264.257
20
-155.026
11
264.162
21
-154.93
0
LINE
8
BLACK
6
CONTINUOUS
10
193.728
20
-158.213
11
193.728
21
-160.213
0
LINE
8
BLACK
6
CONTINUOUS
10
192.728
20
-159.213
11
194.728
21
-159.213
0
LINE
8
BLACK
6
CONTINUOUS
10
197.114
20
-158.118
11
198.352
21
-158.118
0
LINE
8
BLACK
6
CONTINUOUS
10
198.352
20
-158.118
11
197.685
21
-158.88
0
LINE
8
BLACK
6
CONTINUOUS
10
197.685
20
-158.88
11
197.971
21
-158.88
0
LINE
8
BLACK
6
CONTINUOUS
10
197.971
20
-158.88
11
198.162
21
-158.975
0
LINE
8
BLACK
6
CONTINUOUS
10
198.162
20
-158.975
11
198.257
21
-159.07
0
LINE
8
BLACK
6
CONTINUOUS
10
198.257
20
-159.07
11
198.352
21
-159.261
0
LINE
8
BLACK
6
CONTINUOUS
10
198.352
20
-159.261
11
198.352
21
-159.737
0
LINE
8
BLACK
6
CONTINUOUS
10
198.352
20
-159.737
11
198.257
21
-159.927
0
LINE
8
BLACK
6
CONTINUOUS
10
198.257
20
-159.927
11
198.162
21
-160.023
0
LINE
8
BLACK
6
CONTINUOUS
10
198.162
20
-160.023
11
197.971
21
-160.118
0
LINE
8
BLACK
6
CONTINUOUS
10
197.971
20
-160.118
11
197.4
21
-160.118
0
LINE
8
BLACK
6
CONTINUOUS
10
197.4
20
-160.118
11
197.209
21
-160.023
0
LINE
8
BLACK
6
CONTINUOUS
10
197.209
20
-160.023
11
197.114
21
-159.927
0
LINE
8
BLACK
6
CONTINUOUS
10
199.209
20
-159.927
11
199.304
21
-160.023
0
LINE
8
BLACK
6
CONTINUOUS
10
199.304
20
-160.023
11
199.209
21
-160.118
0
LINE
8
BLACK
6
CONTINUOUS
10
199.209
20
-160.118
11
199.114
21
-160.023
0
LINE
8
BLACK
6
CONTINUOUS
10
199.114
20
-160.023
11
199.209
21
-159.927
0
LINE
8
BLACK
6
CONTINUOUS
10
199.209
20
-159.927
11
199.209
21
-160.118
0
LINE
8
BLACK
6
CONTINUOUS
10
200.542
20
-158.118
11
200.733
21
-158.118
0
LINE
8
BLACK
6
CONTINUOUS
10
200.733
20
-158.118
11
200.923
21
-158.213
0
LINE
8
BLACK
6
CONTINUOUS
10
200.923
20
-158.213
11
201.019
21
-158.308
0
LINE
8
BLACK
6
CONTINUOUS
10
201.019
20
-158.308
11
201.114
21
-158.499
0
LINE
8
BLACK
6
CONTINUOUS
10
201.114
20
-158.499
11
201.209
21
-158.88
0
LINE
8
BLACK
6
CONTINUOUS
10
201.209
20
-158.88
11
201.209
21
-159.356
0
LINE
8
BLACK
6
CONTINUOUS
10
201.209
20
-159.356
11
201.114
21
-159.737
0
LINE
8
BLACK
6
CONTINUOUS
10
201.114
20
-159.737
11
201.019
21
-159.927
0
LINE
8
BLACK
6
CONTINUOUS
10
201.019
20
-159.927
11
200.923
21
-160.023
0
LINE
8
BLACK
6
CONTINUOUS
10
200.923
20
-160.023
11
200.733
21
-160.118
0
LINE
8
BLACK
6
CONTINUOUS
10
200.733
20
-160.118
11
200.542
21
-160.118
0
LINE
8
BLACK
6
CONTINUOUS
10
200.542
20
-160.118
11
200.352
21
-160.023
0
LINE
8
BLACK
6
CONTINUOUS
10
200.352
20
-160.023
11
200.257
21
-159.927
0
LINE
8
BLACK
6
CONTINUOUS
10
200.257
20
-159.927
11
200.162
21
-159.737
0
LINE
8
BLACK
6
CONTINUOUS
10
200.162
20
-159.737
11
200.066
21
-159.356
0
LINE
8
BLACK
6
CONTINUOUS
10
200.066
20
-159.356
11
200.066
21
-158.88
0
LINE
8
BLACK
6
CONTINUOUS
10
200.066
20
-158.88
11
200.162
21
-158.499
0
LINE
8
BLACK
6
CONTINUOUS
10
200.162
20
-158.499
11
200.257
21
-158.308
0
LINE
8
BLACK
6
CONTINUOUS
10
200.257
20
-158.308
11
200.352
21
-158.213
0
LINE
8
BLACK
6
CONTINUOUS
10
200.352
20
-158.213
11
200.542
21
-158.118
0
LINE
8
BLACK
6
CONTINUOUS
10
202.447
20
-158.118
11
202.638
21
-158.118
0
LINE
8
BLACK
6
CONTINUOUS
10
202.638
20
-158.118
11
202.828
21
-158.213
0
LINE
8
BLACK
6
CONTINUOUS
10
202.828
20
-158.213
11
202.923
21
-158.308
0
LINE
8
BLACK
6
CONTINUOUS
10
202.923
20
-158.308
11
203.019
21
-158.499
0
LINE
8
BLACK
6
CONTINUOUS
10
203.019
20
-158.499
11
203.114
21
-158.88
0
LINE
8
BLACK
6
CONTINUOUS
10
203.114
20
-158.88
11
203.114
21
-159.356
0
LINE
8
BLACK
6
CONTINUOUS
10
203.114
20
-159.356
11
203.019
21
-159.737
0
LINE
8
BLACK
6
CONTINUOUS
10
203.019
20
-159.737
11
202.923
21
-159.927
0
LINE
8
BLACK
6
CONTINUOUS
10
202.923
20
-159.927
11
202.828
21
-160.023
0
LINE
8
BLACK
6
CONTINUOUS
10
202.828
20
-160.023
11
202.638
21
-160.118
0
LINE
8
BLACK
6
CONTINUOUS
10
202.638
20
-160.118
11
202.447
21
-160.118
0
LINE
8
BLACK
6
CONTINUOUS
10
202.447
20
-160.118
11
202.257
21
-160.023
0
LINE
8
BLACK
6
CONTINUOUS
10
202.257
20
-160.023
11
202.162
21
-159.927
0
LINE
8
BLACK
6
CONTINUOUS
10
202.162
20
-159.927
11
202.066
21
-159.737
0
LINE
8
BLACK
6
CONTINUOUS
10
202.066
20
-159.737
11
201.971
21
-159.356
0
LINE
8
BLACK
6
CONTINUOUS
10
201.971
20
-159.356
11
201.971
21
-158.88
0
LINE
8
BLACK
6
CONTINUOUS
10
201.971
20
-158.88
11
202.066
21
-158.499
0
LINE
8
BLACK
6
CONTINUOUS
10
202.066
20
-158.499
11
202.162
21
-158.308
0
LINE
8
BLACK
6
CONTINUOUS
10
202.162
20
-158.308
11
202.257
21
-158.213
0
LINE
8
BLACK
6
CONTINUOUS
10
202.257
20
-158.213
11
202.447
21
-158.118
0
LINE
8
BLACK
6
CONTINUOUS
10
204.352
20
-158.118
11
204.542
21
-158.118
0
LINE
8
BLACK
6
CONTINUOUS
10
204.542
20
-158.118
11
204.733
21
-158.213
0
LINE
8
BLACK
6
CONTINUOUS
10
204.733
20
-158.213
11
204.828
21
-158.308
0
LINE
8
BLACK
6
CONTINUOUS
10
204.828
20
-158.308
11
204.923
21
-158.499
0
LINE
8
BLACK
6
CONTINUOUS
10
204.923
20
-158.499
11
205.019
21
-158.88
0
LINE
8
BLACK
6
CONTINUOUS
10
205.019
20
-158.88
11
205.019
21
-159.356
0
LINE
8
BLACK
6
CONTINUOUS
10
205.019
20
-159.356
11
204.923
21
-159.737
0
LINE
8
BLACK
6
CONTINUOUS
10
204.923
20
-159.737
11
204.828
21
-159.927
0
LINE
8
BLACK
6
CONTINUOUS
10
204.828
20
-159.927
11
204.733
21
-160.023
0
LINE
8
BLACK
6
CONTINUOUS
10
204.733
20
-160.023
11
204.542
21
-160.118
0
LINE
8
BLACK
6
CONTINUOUS
10
204.542
20
-160.118
11
204.352
21
-160.118
0
LINE
8
BLACK
6
CONTINUOUS
10
204.352
20
-160.118
11
204.162
21
-160.023
0
LINE
8
BLACK
6
CONTINUOUS
10
204.162
20
-160.023
11
204.066
21
-159.927
0
LINE
8
BLACK
6
CONTINUOUS
10
204.066
20
-159.927
11
203.971
21
-159.737
0
LINE
8
BLACK
6
CONTINUOUS
10
203.971
20
-159.737
11
203.876
21
-159.356
0
LINE
8
BLACK
6
CONTINUOUS
10
203.876
20
-159.356
11
203.876
21
-158.88
0
LINE
8
BLACK
6
CONTINUOUS
10
203.876
20
-158.88
11
203.971
21
-158.499
0
LINE
8
BLACK
6
CONTINUOUS
10
203.971
20
-158.499
11
204.066
21
-158.308
0
LINE
8
BLACK
6
CONTINUOUS
10
204.066
20
-158.308
11
204.162
21
-158.213
0
LINE
8
BLACK
6
CONTINUOUS
10
204.162
20
-158.213
11
204.352
21
-158.118
0
LINE
8
BLACK
6
CONTINUOUS
10
205.876
20
-160.118
11
205.876
21
-158.785
0
LINE
8
BLACK
6
CONTINUOUS
10
205.876
20
-158.975
11
205.971
21
-158.88
0
LINE
8
BLACK
6
CONTINUOUS
10
205.971
20
-158.88
11
206.162
21
-158.785
0
LINE
8
BLACK
6
CONTINUOUS
10
206.162
20
-158.785
11
206.447
21
-158.785
0
LINE
8
BLACK
6
CONTINUOUS
10
206.447
20
-158.785
11
206.638
21
-158.88
0
LINE
8
BLACK
6
CONTINUOUS
10
206.638
20
-158.88
11
206.733
21
-159.07
0
LINE
8
BLACK
6
CONTINUOUS
10
206.733
20
-159.07
11
206.733
21
-160.118
0
LINE
8
BLACK
6
CONTINUOUS
10
206.733
20
-159.07
11
206.828
21
-158.88
0
LINE
8
BLACK
6
CONTINUOUS
10
206.828
20
-158.88
11
207.019
21
-158.785
0
LINE
8
BLACK
6
CONTINUOUS
10
207.019
20
-158.785
11
207.304
21
-158.785
0
LINE
8
BLACK
6
CONTINUOUS
10
207.304
20
-158.785
11
207.495
21
-158.88
0
LINE
8
BLACK
6
CONTINUOUS
10
207.495
20
-158.88
11
207.59
21
-159.07
0
LINE
8
BLACK
6
CONTINUOUS
10
207.59
20
-159.07
11
207.59
21
-160.118
0
LINE
8
BLACK
6
CONTINUOUS
10
208.542
20
-160.118
11
208.542
21
-158.785
0
LINE
8
BLACK
6
CONTINUOUS
10
208.542
20
-158.975
11
208.638
21
-158.88
0
LINE
8
BLACK
6
CONTINUOUS
10
208.638
20
-158.88
11
208.828
21
-158.785
0
LINE
8
BLACK
6
CONTINUOUS
10
208.828
20
-158.785
11
209.114
21
-158.785
0
LINE
8
BLACK
6
CONTINUOUS
10
209.114
20
-158.785
11
209.304
21
-158.88
0
LINE
8
BLACK
6
CONTINUOUS
10
209.304
20
-158.88
11
209.4
21
-159.07
0
LINE
8
BLACK
6
CONTINUOUS
10
209.4
20
-159.07
11
209.4
21
-160.118
0
LINE
8
BLACK
6
CONTINUOUS
10
209.4
20
-159.07
11
209.495
21
-158.88
0
LINE
8
BLACK
6
CONTINUOUS
10
209.495
20
-158.88
11
209.685
21
-158.785
0
LINE
8
BLACK
6
CONTINUOUS
10
209.685
20
-158.785
11
209.971
21
-158.785
0
LINE
8
BLACK
6
CONTINUOUS
10
209.971
20
-158.785
11
210.162
21
-158.88
0
LINE
8
BLACK
6
CONTINUOUS
10
210.162
20
-158.88
11
210.257
21
-159.07
0
LINE
8
BLACK
6
CONTINUOUS
10
210.257
20
-159.07
11
210.257
21
-160.118
0
LINE
8
BLACK
6
CONTINUOUS
10
214.162
20
-158.023
11
212.447
21
-160.594
0
LINE
8
BLACK
6
CONTINUOUS
10
216.733
20
-158.118
11
216.923
21
-158.118
0
LINE
8
BLACK
6
CONTINUOUS
10
216.923
20
-158.118
11
217.114
21
-158.213
0
LINE
8
BLACK
6
CONTINUOUS
10
217.114
20
-158.213
11
217.209
21
-158.308
0
LINE
8
BLACK
6
CONTINUOUS
10
217.209
20
-158.308
11
217.304
21
-158.499
0
LINE
8
BLACK
6
CONTINUOUS
10
217.304
20
-158.499
11
217.4
21
-158.88
0
LINE
8
BLACK
6
CONTINUOUS
10
217.4
20
-158.88
11
217.4
21
-159.356
0
LINE
8
BLACK
6
CONTINUOUS
10
217.4
20
-159.356
11
217.304
21
-159.737
0
LINE
8
BLACK
6
CONTINUOUS
10
217.304
20
-159.737
11
217.209
21
-159.927
0
LINE
8
BLACK
6
CONTINUOUS
10
217.209
20
-159.927
11
217.114
21
-160.023
0
LINE
8
BLACK
6
CONTINUOUS
10
217.114
20
-160.023
11
216.923
21
-160.118
0
LINE
8
BLACK
6
CONTINUOUS
10
216.923
20
-160.118
11
216.733
21
-160.118
0
LINE
8
BLACK
6
CONTINUOUS
10
216.733
20
-160.118
11
216.542
21
-160.023
0
LINE
8
BLACK
6
CONTINUOUS
10
216.542
20
-160.023
11
216.447
21
-159.927
0
LINE
8
BLACK
6
CONTINUOUS
10
216.447
20
-159.927
11
216.352
21
-159.737
0
LINE
8
BLACK
6
CONTINUOUS
10
216.352
20
-159.737
11
216.257
21
-159.356
0
LINE
8
BLACK
6
CONTINUOUS
10
216.257
20
-159.356
11
216.257
21
-158.88
0
LINE
8
BLACK
6
CONTINUOUS
10
216.257
20
-158.88
11
216.352
21
-158.499
0
LINE
8
BLACK
6
CONTINUOUS
10
216.352
20
-158.499
11
216.447
21
-158.308
0
LINE
8
BLACK
6
CONTINUOUS
10
216.447
20
-158.308
11
216.542
21
-158.213
0
LINE
8
BLACK
6
CONTINUOUS
10
216.542
20
-158.213
11
216.733
21
-158.118
0
LINE
8
BLACK
6
CONTINUOUS
10
218.257
20
-159.927
11
218.352
21
-160.023
0
LINE
8
BLACK
6
CONTINUOUS
10
218.352
20
-160.023
11
218.257
21
-160.118
0
LINE
8
BLACK
6
CONTINUOUS
10
218.257
20
-160.118
11
218.162
21
-160.023
0
LINE
8
BLACK
6
CONTINUOUS
10
218.162
20
-160.023
11
218.257
21
-159.927
0
LINE
8
BLACK
6
CONTINUOUS
10
218.257
20
-159.927
11
218.257
21
-160.118
0
LINE
8
BLACK
6
CONTINUOUS
10
220.257
20
-160.118
11
219.114
21
-160.118
0
LINE
8
BLACK
6
CONTINUOUS
10
219.685
20
-160.118
11
219.685
21
-158.118
0
LINE
8
BLACK
6
CONTINUOUS
10
219.685
20
-158.118
11
219.495
21
-158.404
0
LINE
8
BLACK
6
CONTINUOUS
10
219.495
20
-158.404
11
219.304
21
-158.594
0
LINE
8
BLACK
6
CONTINUOUS
10
219.304
20
-158.594
11
219.114
21
-158.689
0
LINE
8
BLACK
6
CONTINUOUS
10
222.162
20
-160.118
11
221.019
21
-160.118
0
LINE
8
BLACK
6
CONTINUOUS
10
221.59
20
-160.118
11
221.59
21
-158.118
0
LINE
8
BLACK
6
CONTINUOUS
10
221.59
20
-158.118
11
221.4
21
-158.404
0
LINE
8
BLACK
6
CONTINUOUS
10
221.4
20
-158.404
11
221.209
21
-158.594
0
LINE
8
BLACK
6
CONTINUOUS
10
221.209
20
-158.594
11
221.019
21
-158.689
0
LINE
8
BLACK
6
CONTINUOUS
10
223.304
20
-158.975
11
223.114
21
-158.88
0
LINE
8
BLACK
6
CONTINUOUS
10
223.114
20
-158.88
11
223.019
21
-158.785
0
LINE
8
BLACK
6
CONTINUOUS
10
223.019
20
-158.785
11
222.923
21
-158.594
0
LINE
8
BLACK
6
CONTINUOUS
10
222.923
20
-158.594
11
222.923
21
-158.499
0
LINE
8
BLACK
6
CONTINUOUS
10
222.923
20
-158.499
11
223.019
21
-158.308
0
LINE
8
BLACK
6
CONTINUOUS
10
223.019
20
-158.308
11
223.114
21
-158.213
0
LINE
8
BLACK
6
CONTINUOUS
10
223.114
20
-158.213
11
223.304
21
-158.118
0
LINE
8
BLACK
6
CONTINUOUS
10
223.304
20
-158.118
11
223.685
21
-158.118
0
LINE
8
BLACK
6
CONTINUOUS
10
223.685
20
-158.118
11
223.876
21
-158.213
0
LINE
8
BLACK
6
CONTINUOUS
10
223.876
20
-158.213
11
223.971
21
-158.308
0
LINE
8
BLACK
6
CONTINUOUS
10
223.971
20
-158.308
11
224.066
21
-158.499
0
LINE
8
BLACK
6
CONTINUOUS
10
224.066
20
-158.499
11
224.066
21
-158.594
0
LINE
8
BLACK
6
CONTINUOUS
10
224.066
20
-158.594
11
223.971
21
-158.785
0
LINE
8
BLACK
6
CONTINUOUS
10
223.971
20
-158.785
11
223.876
21
-158.88
0
LINE
8
BLACK
6
CONTINUOUS
10
223.876
20
-158.88
11
223.685
21
-158.975
0
LINE
8
BLACK
6
CONTINUOUS
10
223.685
20
-158.975
11
223.304
21
-158.975
0
LINE
8
BLACK
6
CONTINUOUS
10
223.304
20
-158.975
11
223.114
21
-159.07
0
LINE
8
BLACK
6
CONTINUOUS
10
223.114
20
-159.07
11
223.019
21
-159.166
0
LINE
8
BLACK
6
CONTINUOUS
10
223.019
20
-159.166
11
222.923
21
-159.356
0
LINE
8
BLACK
6
CONTINUOUS
10
222.923
20
-159.356
11
222.923
21
-159.737
0
LINE
8
BLACK
6
CONTINUOUS
10
222.923
20
-159.737
11
223.019
21
-159.927
0
LINE
8
BLACK
6
CONTINUOUS
10
223.019
20
-159.927
11
223.114
21
-160.023
0
LINE
8
BLACK
6
CONTINUOUS
10
223.114
20
-160.023
11
223.304
21
-160.118
0
LINE
8
BLACK
6
CONTINUOUS
10
223.304
20
-160.118
11
223.685
21
-160.118
0
LINE
8
BLACK
6
CONTINUOUS
10
223.685
20
-160.118
11
223.876
21
-160.023
0
LINE
8
BLACK
6
CONTINUOUS
10
223.876
20
-160.023
11
223.971
21
-159.927
0
LINE
8
BLACK
6
CONTINUOUS
10
223.971
20
-159.927
11
224.066
21
-159.737
0
LINE
8
BLACK
6
CONTINUOUS
10
224.066
20
-159.737
11
224.066
21
-159.356
0
LINE
8
BLACK
6
CONTINUOUS
10
224.066
20
-159.356
11
223.971
21
-159.166
0
LINE
8
BLACK
6
CONTINUOUS
10
223.971
20
-159.166
11
223.876
21
-159.07
0
LINE
8
BLACK
6
CONTINUOUS
10
223.876
20
-159.07
11
223.685
21
-158.975
0
LINE
8
BLACK
6
CONTINUOUS
10
225.971
20
-160.118
11
224.828
21
-160.118
0
LINE
8
BLACK
6
CONTINUOUS
10
225.4
20
-160.118
11
225.4
21
-158.118
0
LINE
8
BLACK
6
CONTINUOUS
10
225.4
20
-158.118
11
225.209
21
-158.404
0
LINE
8
BLACK
6
CONTINUOUS
10
225.209
20
-158.404
11
225.019
21
-158.594
0
LINE
8
BLACK
6
CONTINUOUS
10
225.019
20
-158.594
11
224.828
21
-158.689
0
LINE
8
BLACK
6
CONTINUOUS
10
226.733
20
-158.118
11
226.733
21
-158.499
0
LINE
8
BLACK
6
CONTINUOUS
10
227.495
20
-158.118
11
227.495
21
-158.499
0
LINE
8
BLACK
6
CONTINUOUS
10
230.447
20
-160.88
11
230.352
21
-160.785
0
LINE
8
BLACK
6
CONTINUOUS
10
230.352
20
-160.785
11
230.162
21
-160.499
0
LINE
8
BLACK
6
CONTINUOUS
10
230.162
20
-160.499
11
230.066
21
-160.308
0
LINE
8
BLACK
6
CONTINUOUS
10
230.066
20
-160.308
11
229.971
21
-160.023
0
LINE
8
BLACK
6
CONTINUOUS
10
229.971
20
-160.023
11
229.876
21
-159.546
0
LINE
8
BLACK
6
CONTINUOUS
10
229.876
20
-159.546
11
229.876
21
-159.166
0
LINE
8
BLACK
6
CONTINUOUS
10
229.876
20
-159.166
11
229.971
21
-158.689
0
LINE
8
BLACK
6
CONTINUOUS
10
229.971
20
-158.689
11
230.066
21
-158.404
0
LINE
8
BLACK
6
CONTINUOUS
10
230.066
20
-158.404
11
230.162
21
-158.213
0
LINE
8
BLACK
6
CONTINUOUS
10
230.162
20
-158.213
11
230.352
21
-157.927
0
LINE
8
BLACK
6
CONTINUOUS
10
230.352
20
-157.927
11
230.447
21
-157.832
0
LINE
8
BLACK
6
CONTINUOUS
10
232.066
20
-158.118
11
231.685
21
-158.118
0
LINE
8
BLACK
6
CONTINUOUS
10
231.685
20
-158.118
11
231.495
21
-158.213
0
LINE
8
BLACK
6
CONTINUOUS
10
231.495
20
-158.213
11
231.4
21
-158.308
0
LINE
8
BLACK
6
CONTINUOUS
10
231.4
20
-158.308
11
231.209
21
-158.594
0
LINE
8
BLACK
6
CONTINUOUS
10
231.209
20
-158.594
11
231.114
21
-158.975
0
LINE
8
BLACK
6
CONTINUOUS
10
231.114
20
-158.975
11
231.114
21
-159.737
0
LINE
8
BLACK
6
CONTINUOUS
10
231.114
20
-159.737
11
231.209
21
-159.927
0
LINE
8
BLACK
6
CONTINUOUS
10
231.209
20
-159.927
11
231.304
21
-160.023
0
LINE
8
BLACK
6
CONTINUOUS
10
231.304
20
-160.023
11
231.495
21
-160.118
0
LINE
8
BLACK
6
CONTINUOUS
10
231.495
20
-160.118
11
231.876
21
-160.118
0
LINE
8
BLACK
6
CONTINUOUS
10
231.876
20
-160.118
11
232.066
21
-160.023
0
LINE
8
BLACK
6
CONTINUOUS
10
232.066
20
-160.023
11
232.162
21
-159.927
0
LINE
8
BLACK
6
CONTINUOUS
10
232.162
20
-159.927
11
232.257
21
-159.737
0
LINE
8
BLACK
6
CONTINUOUS
10
232.257
20
-159.737
11
232.257
21
-159.261
0
LINE
8
BLACK
6
CONTINUOUS
10
232.257
20
-159.261
11
232.162
21
-159.07
0
LINE
8
BLACK
6
CONTINUOUS
10
232.162
20
-159.07
11
232.066
21
-158.975
0
LINE
8
BLACK
6
CONTINUOUS
10
232.066
20
-158.975
11
231.876
21
-158.88
0
LINE
8
BLACK
6
CONTINUOUS
10
231.876
20
-158.88
11
231.495
21
-158.88
0
LINE
8
BLACK
6
CONTINUOUS
10
231.495
20
-158.88
11
231.304
21
-158.975
0
LINE
8
BLACK
6
CONTINUOUS
10
231.304
20
-158.975
11
231.209
21
-159.07
0
LINE
8
BLACK
6
CONTINUOUS
10
231.209
20
-159.07
11
231.114
21
-159.261
0
LINE
8
BLACK
6
CONTINUOUS
10
233.495
20
-158.118
11
233.685
21
-158.118
0
LINE
8
BLACK
6
CONTINUOUS
10
233.685
20
-158.118
11
233.876
21
-158.213
0
LINE
8
BLACK
6
CONTINUOUS
10
233.876
20
-158.213
11
233.971
21
-158.308
0
LINE
8
BLACK
6
CONTINUOUS
10
233.971
20
-158.308
11
234.066
21
-158.499
0
LINE
8
BLACK
6
CONTINUOUS
10
234.066
20
-158.499
11
234.162
21
-158.88
0
LINE
8
BLACK
6
CONTINUOUS
10
234.162
20
-158.88
11
234.162
21
-159.356
0
LINE
8
BLACK
6
CONTINUOUS
10
234.162
20
-159.356
11
234.066
21
-159.737
0
LINE
8
BLACK
6
CONTINUOUS
10
234.066
20
-159.737
11
233.971
21
-159.927
0
LINE
8
BLACK
6
CONTINUOUS
10
233.971
20
-159.927
11
233.876
21
-160.023
0
LINE
8
BLACK
6
CONTINUOUS
10
233.876
20
-160.023
11
233.685
21
-160.118
0
LINE
8
BLACK
6
CONTINUOUS
10
233.685
20
-160.118
11
233.495
21
-160.118
0
LINE
8
BLACK
6
CONTINUOUS
10
233.495
20
-160.118
11
233.304
21
-160.023
0
LINE
8
BLACK
6
CONTINUOUS
10
233.304
20
-160.023
11
233.209
21
-159.927
0
LINE
8
BLACK
6
CONTINUOUS
10
233.209
20
-159.927
11
233.114
21
-159.737
0
LINE
8
BLACK
6
CONTINUOUS
10
233.114
20
-159.737
11
233.019
21
-159.356
0
LINE
8
BLACK
6
CONTINUOUS
10
233.019
20
-159.356
11
233.019
21
-158.88
0
LINE
8
BLACK
6
CONTINUOUS
10
233.019
20
-158.88
11
233.114
21
-158.499
0
LINE
8
BLACK
6
CONTINUOUS
10
233.114
20
-158.499
11
233.209
21
-158.308
0
LINE
8
BLACK
6
CONTINUOUS
10
233.209
20
-158.308
11
233.304
21
-158.213
0
LINE
8
BLACK
6
CONTINUOUS
10
233.304
20
-158.213
11
233.495
21
-158.118
0
LINE
8
BLACK
6
CONTINUOUS
10
236.542
20
-160.118
11
236.542
21
-158.118
0
LINE
8
BLACK
6
CONTINUOUS
10
237.4
20
-160.118
11
237.4
21
-159.07
0
LINE
8
BLACK
6
CONTINUOUS
10
237.4
20
-159.07
11
237.304
21
-158.88
0
LINE
8
BLACK
6
CONTINUOUS
10
237.304
20
-158.88
11
237.114
21
-158.785
0
LINE
8
BLACK
6
CONTINUOUS
10
237.114
20
-158.785
11
236.828
21
-158.785
0
LINE
8
BLACK
6
CONTINUOUS
10
236.828
20
-158.785
11
236.638
21
-158.88
0
LINE
8
BLACK
6
CONTINUOUS
10
236.638
20
-158.88
11
236.542
21
-158.975
0
LINE
8
BLACK
6
CONTINUOUS
10
238.638
20
-160.118
11
238.447
21
-160.023
0
LINE
8
BLACK
6
CONTINUOUS
10
238.447
20
-160.023
11
238.352
21
-159.927
0
LINE
8
BLACK
6
CONTINUOUS
10
238.352
20
-159.927
11
238.257
21
-159.737
0
LINE
8
BLACK
6
CONTINUOUS
10
238.257
20
-159.737
11
238.257
21
-159.166
0
LINE
8
BLACK
6
CONTINUOUS
10
238.257
20
-159.166
11
238.352
21
-158.975
0
LINE
8
BLACK
6
CONTINUOUS
10
238.352
20
-158.975
11
238.447
21
-158.88
0
LINE
8
BLACK
6
CONTINUOUS
10
238.447
20
-158.88
11
238.638
21
-158.785
0
LINE
8
BLACK
6
CONTINUOUS
10
238.638
20
-158.785
11
238.923
21
-158.785
0
LINE
8
BLACK
6
CONTINUOUS
10
238.923
20
-158.785
11
239.114
21
-158.88
0
LINE
8
BLACK
6
CONTINUOUS
10
239.114
20
-158.88
11
239.209
21
-158.975
0
LINE
8
BLACK
6
CONTINUOUS
10
239.209
20
-158.975
11
239.304
21
-159.166
0
LINE
8
BLACK
6
CONTINUOUS
10
239.304
20
-159.166
11
239.304
21
-159.737
0
LINE
8
BLACK
6
CONTINUOUS
10
239.304
20
-159.737
11
239.209
21
-159.927
0
LINE
8
BLACK
6
CONTINUOUS
10
239.209
20
-159.927
11
239.114
21
-160.023
0
LINE
8
BLACK
6
CONTINUOUS
10
239.114
20
-160.023
11
238.923
21
-160.118
0
LINE
8
BLACK
6
CONTINUOUS
10
238.923
20
-160.118
11
238.638
21
-160.118
0
LINE
8
BLACK
6
CONTINUOUS
10
240.447
20
-160.118
11
240.257
21
-160.023
0
LINE
8
BLACK
6
CONTINUOUS
10
240.257
20
-160.023
11
240.162
21
-159.832
0
LINE
8
BLACK
6
CONTINUOUS
10
240.162
20
-159.832
11
240.162
21
-158.118
0
LINE
8
BLACK
6
CONTINUOUS
10
241.971
20
-160.023
11
241.781
21
-160.118
0
LINE
8
BLACK
6
CONTINUOUS
10
241.781
20
-160.118
11
241.4
21
-160.118
0
LINE
8
BLACK
6
CONTINUOUS
10
241.4
20
-160.118
11
241.209
21
-160.023
0
LINE
8
BLACK
6
CONTINUOUS
10
241.209
20
-160.023
11
241.114
21
-159.832
0
LINE
8
BLACK
6
CONTINUOUS
10
241.114
20
-159.832
11
241.114
21
-159.07
0
LINE
8
BLACK
6
CONTINUOUS
10
241.114
20
-159.07
11
241.209
21
-158.88
0
LINE
8
BLACK
6
CONTINUOUS
10
241.209
20
-158.88
11
241.4
21
-158.785
0
LINE
8
BLACK
6
CONTINUOUS
10
241.4
20
-158.785
11
241.781
21
-158.785
0
LINE
8
BLACK
6
CONTINUOUS
10
241.781
20
-158.785
11
241.971
21
-158.88
0
LINE
8
BLACK
6
CONTINUOUS
10
241.971
20
-158.88
11
242.066
21
-159.07
0
LINE
8
BLACK
6
CONTINUOUS
10
242.066
20
-159.07
11
242.066
21
-159.261
0
LINE
8
BLACK
6
CONTINUOUS
10
242.066
20
-159.261
11
241.114
21
-159.451
0
LINE
8
BLACK
6
CONTINUOUS
10
242.828
20
-160.023
11
243.019
21
-160.118
0
LINE
8
BLACK
6
CONTINUOUS
10
243.019
20
-160.118
11
243.4
21
-160.118
0
LINE
8
BLACK
6
CONTINUOUS
10
243.4
20
-160.118
11
243.59
21
-160.023
0
LINE
8
BLACK
6
CONTINUOUS
10
243.59
20
-160.023
11
243.685
21
-159.832
0
LINE
8
BLACK
6
CONTINUOUS
10
243.685
20
-159.832
11
243.685
21
-159.737
0
LINE
8
BLACK
6
CONTINUOUS
10
243.685
20
-159.737
11
243.59
21
-159.546
0
LINE
8
BLACK
6
CONTINUOUS
10
243.59
20
-159.546
11
243.4
21
-159.451
0
LINE
8
BLACK
6
CONTINUOUS
10
243.4
20
-159.451
11
243.114
21
-159.451
0
LINE
8
BLACK
6
CONTINUOUS
10
243.114
20
-159.451
11
242.923
21
-159.356
0
LINE
8
BLACK
6
CONTINUOUS
10
242.923
20
-159.356
11
242.828
21
-159.166
0
LINE
8
BLACK
6
CONTINUOUS
10
242.828
20
-159.166
11
242.828
21
-159.07
0
LINE
8
BLACK
6
CONTINUOUS
10
242.828
20
-159.07
11
242.923
21
-158.88
0
LINE
8
BLACK
6
CONTINUOUS
10
242.923
20
-158.88
11
243.114
21
-158.785
0
LINE
8
BLACK
6
CONTINUOUS
10
243.114
20
-158.785
11
243.4
21
-158.785
0
LINE
8
BLACK
6
CONTINUOUS
10
243.4
20
-158.785
11
243.59
21
-158.88
0
LINE
8
BLACK
6
CONTINUOUS
10
244.352
20
-160.88
11
244.447
21
-160.785
0
LINE
8
BLACK
6
CONTINUOUS
10
244.447
20
-160.785
11
244.638
21
-160.499
0
LINE
8
BLACK
6
CONTINUOUS
10
244.638
20
-160.499
11
244.733
21
-160.308
0
LINE
8
BLACK
6
CONTINUOUS
10
244.733
20
-160.308
11
244.828
21
-160.023
0
LINE
8
BLACK
6
CONTINUOUS
10
244.828
20
-160.023
11
244.923
21
-159.546
0
LINE
8
BLACK
6
CONTINUOUS
10
244.923
20
-159.546
11
244.923
21
-159.166
0
LINE
8
BLACK
6
CONTINUOUS
10
244.923
20
-159.166
11
244.828
21
-158.689
0
LINE
8
BLACK
6
CONTINUOUS
10
244.828
20
-158.689
11
244.733
21
-158.404
0
LINE
8
BLACK
6
CONTINUOUS
10
244.733
20
-158.404
11
244.638
21
-158.213
0
LINE
8
BLACK
6
CONTINUOUS
10
244.638
20
-158.213
11
244.447
21
-157.927
0
LINE
8
BLACK
6
CONTINUOUS
10
244.447
20
-157.927
11
244.352
21
-157.832
0
LINE
8
BLACK
6
CONTINUOUS
10
247.971
20
-160.88
11
247.876
21
-160.785
0
LINE
8
BLACK
6
CONTINUOUS
10
247.876
20
-160.785
11
247.685
21
-160.499
0
LINE
8
BLACK
6
CONTINUOUS
10
247.685
20
-160.499
11
247.59
21
-160.308
0
LINE
8
BLACK
6
CONTINUOUS
10
247.59
20
-160.308
11
247.495
21
-160.023
0
LINE
8
BLACK
6
CONTINUOUS
10
247.495
20
-160.023
11
247.4
21
-159.546
0
LINE
8
BLACK
6
CONTINUOUS
10
247.4
20
-159.546
11
247.4
21
-159.166
0
LINE
8
BLACK
6
CONTINUOUS
10
247.4
20
-159.166
11
247.495
21
-158.689
0
LINE
8
BLACK
6
CONTINUOUS
10
247.495
20
-158.689
11
247.59
21
-158.404
0
LINE
8
BLACK
6
CONTINUOUS
10
247.59
20
-158.404
11
247.685
21
-158.213
0
LINE
8
BLACK
6
CONTINUOUS
10
247.685
20
-158.213
11
247.876
21
-157.927
0
LINE
8
BLACK
6
CONTINUOUS
10
247.876
20
-157.927
11
247.971
21
-157.832
0
LINE
8
BLACK
6
CONTINUOUS
10
248.733
20
-158.785
11
248.733
21
-160.118
0
LINE
8
BLACK
6
CONTINUOUS
10
248.733
20
-158.975
11
248.828
21
-158.88
0
LINE
8
BLACK
6
CONTINUOUS
10
248.828
20
-158.88
11
249.019
21
-158.785
0
LINE
8
BLACK
6
CONTINUOUS
10
249.019
20
-158.785
11
249.304
21
-158.785
0
LINE
8
BLACK
6
CONTINUOUS
10
249.304
20
-158.785
11
249.495
21
-158.88
0
LINE
8
BLACK
6
CONTINUOUS
10
249.495
20
-158.88
11
249.59
21
-159.07
0
LINE
8
BLACK
6
CONTINUOUS
10
249.59
20
-159.07
11
249.59
21
-160.118
0
LINE
8
BLACK
6
CONTINUOUS
10
250.828
20
-160.118
11
250.638
21
-160.023
0
LINE
8
BLACK
6
CONTINUOUS
10
250.638
20
-160.023
11
250.542
21
-159.927
0
LINE
8
BLACK
6
CONTINUOUS
10
250.542
20
-159.927
11
250.447
21
-159.737
0
LINE
8
BLACK
6
CONTINUOUS
10
250.447
20
-159.737
11
250.447
21
-159.166
0
LINE
8
BLACK
6
CONTINUOUS
10
250.447
20
-159.166
11
250.542
21
-158.975
0
LINE
8
BLACK
6
CONTINUOUS
10
250.542
20
-158.975
11
250.638
21
-158.88
0
LINE
8
BLACK
6
CONTINUOUS
10
250.638
20
-158.88
11
250.828
21
-158.785
0
LINE
8
BLACK
6
CONTINUOUS
10
250.828
20
-158.785
11
251.114
21
-158.785
0
LINE
8
BLACK
6
CONTINUOUS
10
251.114
20
-158.785
11
251.304
21
-158.88
0
LINE
8
BLACK
6
CONTINUOUS
10
251.304
20
-158.88
11
251.4
21
-158.975
0
LINE
8
BLACK
6
CONTINUOUS
10
251.4
20
-158.975
11
251.495
21
-159.166
0
LINE
8
BLACK
6
CONTINUOUS
10
251.495
20
-159.166
11
251.495
21
-159.737
0
LINE
8
BLACK
6
CONTINUOUS
10
251.495
20
-159.737
11
251.4
21
-159.927
0
LINE
8
BLACK
6
CONTINUOUS
10
251.4
20
-159.927
11
251.304
21
-160.023
0
LINE
8
BLACK
6
CONTINUOUS
10
251.304
20
-160.023
11
251.114
21
-160.118
0
LINE
8
BLACK
6
CONTINUOUS
10
251.114
20
-160.118
11
250.828
21
-160.118
0
LINE
8
BLACK
6
CONTINUOUS
10
252.066
20
-158.785
11
252.828
21
-158.785
0
LINE
8
BLACK
6
CONTINUOUS
10
252.352
20
-158.118
11
252.352
21
-159.832
0
LINE
8
BLACK
6
CONTINUOUS
10
252.352
20
-159.832
11
252.447
21
-160.023
0
LINE
8
BLACK
6
CONTINUOUS
10
252.447
20
-160.023
11
252.638
21
-160.118
0
LINE
8
BLACK
6
CONTINUOUS
10
252.638
20
-160.118
11
252.828
21
-160.118
0
LINE
8
BLACK
6
CONTINUOUS
10
255.019
20
-158.785
11
255.019
21
-160.785
0
LINE
8
BLACK
6
CONTINUOUS
10
255.019
20
-158.88
11
255.209
21
-158.785
0
LINE
8
BLACK
6
CONTINUOUS
10
255.209
20
-158.785
11
255.59
21
-158.785
0
LINE
8
BLACK
6
CONTINUOUS
10
255.59
20
-158.785
11
255.781
21
-158.88
0
LINE
8
BLACK
6
CONTINUOUS
10
255.781
20
-158.88
11
255.876
21
-158.975
0
LINE
8
BLACK
6
CONTINUOUS
10
255.876
20
-158.975
11
255.971
21
-159.166
0
LINE
8
BLACK
6
CONTINUOUS
10
255.971
20
-159.166
11
255.971
21
-159.737
0
LINE
8
BLACK
6
CONTINUOUS
10
255.971
20
-159.737
11
255.876
21
-159.927
0
LINE
8
BLACK
6
CONTINUOUS
10
255.876
20
-159.927
11
255.781
21
-160.023
0
LINE
8
BLACK
6
CONTINUOUS
10
255.781
20
-160.023
11
255.59
21
-160.118
0
LINE
8
BLACK
6
CONTINUOUS
10
255.59
20
-160.118
11
255.209
21
-160.118
0
LINE
8
BLACK
6
CONTINUOUS
10
255.209
20
-160.118
11
255.019
21
-160.023
0
LINE
8
BLACK
6
CONTINUOUS
10
257.114
20
-160.118
11
256.923
21
-160.023
0
LINE
8
BLACK
6
CONTINUOUS
10
256.923
20
-160.023
11
256.828
21
-159.832
0
LINE
8
BLACK
6
CONTINUOUS
10
256.828
20
-159.832
11
256.828
21
-158.118
0
LINE
8
BLACK
6
CONTINUOUS
10
258.733
20
-160.118
11
258.733
21
-159.07
0
LINE
8
BLACK
6
CONTINUOUS
10
258.733
20
-159.07
11
258.638
21
-158.88
0
LINE
8
BLACK
6
CONTINUOUS
10
258.638
20
-158.88
11
258.447
21
-158.785
0
LINE
8
BLACK
6
CONTINUOUS
10
258.447
20
-158.785
11
258.066
21
-158.785
0
LINE
8
BLACK
6
CONTINUOUS
10
258.066
20
-158.785
11
257.876
21
-158.88
0
LINE
8
BLACK
6
CONTINUOUS
10
258.733
20
-160.023
11
258.542
21
-160.118
0
LINE
8
BLACK
6
CONTINUOUS
10
258.542
20
-160.118
11
258.066
21
-160.118
0
LINE
8
BLACK
6
CONTINUOUS
10
258.066
20
-160.118
11
257.876
21
-160.023
0
LINE
8
BLACK
6
CONTINUOUS
10
257.876
20
-160.023
11
257.781
21
-159.832
0
LINE
8
BLACK
6
CONTINUOUS
10
257.781
20
-159.832
11
257.781
21
-159.642
0
LINE
8
BLACK
6
CONTINUOUS
10
257.781
20
-159.642
11
257.876
21
-159.451
0
LINE
8
BLACK
6
CONTINUOUS
10
257.876
20
-159.451
11
258.066
21
-159.356
0
LINE
8
BLACK
6
CONTINUOUS
10
258.066
20
-159.356
11
258.542
21
-159.356
0
LINE
8
BLACK
6
CONTINUOUS
10
258.542
20
-159.356
11
258.733
21
-159.261
0
LINE
8
BLACK
6
CONTINUOUS
10
259.4
20
-158.785
11
260.162
21
-158.785
0
LINE
8
BLACK
6
CONTINUOUS
10
259.685
20
-158.118
11
259.685
21
-159.832
0
LINE
8
BLACK
6
CONTINUOUS
10
259.685
20
-159.832
11
259.781
21
-160.023
0
LINE
8
BLACK
6
CONTINUOUS
10
259.781
20
-160.023
11
259.971
21
-160.118
0
LINE
8
BLACK
6
CONTINUOUS
10
259.971
20
-160.118
11
260.162
21
-160.118
0
LINE
8
BLACK
6
CONTINUOUS
10
261.59
20
-160.023
11
261.4
21
-160.118
0
LINE
8
BLACK
6
CONTINUOUS
10
261.4
20
-160.118
11
261.019
21
-160.118
0
LINE
8
BLACK
6
CONTINUOUS
10
261.019
20
-160.118
11
260.828
21
-160.023
0
LINE
8
BLACK
6
CONTINUOUS
10
260.828
20
-160.023
11
260.733
21
-159.832
0
LINE
8
BLACK
6
CONTINUOUS
10
260.733
20
-159.832
11
260.733
21
-159.07
0
LINE
8
BLACK
6
CONTINUOUS
10
260.733
20
-159.07
11
260.828
21
-158.88
0
LINE
8
BLACK
6
CONTINUOUS
10
260.828
20
-158.88
11
261.019
21
-158.785
0
LINE
8
BLACK
6
CONTINUOUS
10
261.019
20
-158.785
11
261.4
21
-158.785
0
LINE
8
BLACK
6
CONTINUOUS
10
261.4
20
-158.785
11
261.59
21
-158.88
0
LINE
8
BLACK
6
CONTINUOUS
10
261.59
20
-158.88
11
261.685
21
-159.07
0
LINE
8
BLACK
6
CONTINUOUS
10
261.685
20
-159.07
11
261.685
21
-159.261
0
LINE
8
BLACK
6
CONTINUOUS
10
261.685
20
-159.261
11
260.733
21
-159.451
0
LINE
8
BLACK
6
CONTINUOUS
10
263.4
20
-160.118
11
263.4
21
-158.118
0
LINE
8
BLACK
6
CONTINUOUS
10
263.4
20
-160.023
11
263.209
21
-160.118
0
LINE
8
BLACK
6
CONTINUOUS
10
263.209
20
-160.118
11
262.828
21
-160.118
0
LINE
8
BLACK
6
CONTINUOUS
10
262.828
20
-160.118
11
262.638
21
-160.023
0
LINE
8
BLACK
6
CONTINUOUS
10
262.638
20
-160.023
11
262.542
21
-159.927
0
LINE
8
BLACK
6
CONTINUOUS
10
262.542
20
-159.927
11
262.447
21
-159.737
0
LINE
8
BLACK
6
CONTINUOUS
10
262.447
20
-159.737
11
262.447
21
-159.166
0
LINE
8
BLACK
6
CONTINUOUS
10
262.447
20
-159.166
11
262.542
21
-158.975
0
LINE
8
BLACK
6
CONTINUOUS
10
262.542
20
-158.975
11
262.638
21
-158.88
0
LINE
8
BLACK
6
CONTINUOUS
10
262.638
20
-158.88
11
262.828
21
-158.785
0
LINE
8
BLACK
6
CONTINUOUS
10
262.828
20
-158.785
11
263.209
21
-158.785
0
LINE
8
BLACK
6
CONTINUOUS
10
263.209
20
-158.785
11
263.4
21
-158.88
0
LINE
8
BLACK
6
CONTINUOUS
10
264.162
20
-160.88
11
264.257
21
-160.785
0
LINE
8
BLACK
6
CONTINUOUS
10
264.257
20
-160.785
11
264.447
21
-160.499
0
LINE
8
BLACK
6
CONTINUOUS
10
264.447
20
-160.499
11
264.542
21
-160.308
0
LINE
8
BLACK
6
CONTINUOUS
10
264.542
20
-160.308
11
264.638
21
-160.023
0
LINE
8
BLACK
6
CONTINUOUS
10
264.638
20
-160.023
11
264.733
21
-159.546
0
LINE
8
BLACK
6
CONTINUOUS
10
264.733
20
-159.546
11
264.733
21
-159.166
0
LINE
8
BLACK
6
CONTINUOUS
10
264.733
20
-159.166
11
264.638
21
-158.689
0
LINE
8
BLACK
6
CONTINUOUS
10
264.638
20
-158.689
11
264.542
21
-158.404
0
LINE
8
BLACK
6
CONTINUOUS
10
264.542
20
-158.404
11
264.447
21
-158.213
0
LINE
8
BLACK
6
CONTINUOUS
10
264.447
20
-158.213
11
264.257
21
-157.927
0
LINE
8
BLACK
6
CONTINUOUS
10
264.257
20
-157.927
11
264.162
21
-157.832
0
LINE
8
BLACK
6
CONTINUOUS
10
194.435
20
-163.12
11
194.435
21
-161.706
0
LINE
8
BLACK
6
CONTINUOUS
10
194.435
20
-161.706
11
193.021
21
-161.706
0
LINE
8
BLACK
6
CONTINUOUS
10
193.021
20
-161.706
11
193.021
21
-163.12
0
LINE
8
BLACK
6
CONTINUOUS
10
193.021
20
-163.12
11
194.435
21
-163.12
0
LINE
8
BLACK
6
CONTINUOUS
10
197.114
20
-161.318
11
198.352
21
-161.318
0
LINE
8
BLACK
6
CONTINUOUS
10
198.352
20
-161.318
11
197.685
21
-162.08
0
LINE
8
BLACK
6
CONTINUOUS
10
197.685
20
-162.08
11
197.971
21
-162.08
0
LINE
8
BLACK
6
CONTINUOUS
10
197.971
20
-162.08
11
198.162
21
-162.175
0
LINE
8
BLACK
6
CONTINUOUS
10
198.162
20
-162.175
11
198.257
21
-162.27
0
LINE
8
BLACK
6
CONTINUOUS
10
198.257
20
-162.27
11
198.352
21
-162.461
0
LINE
8
BLACK
6
CONTINUOUS
10
198.352
20
-162.461
11
198.352
21
-162.937
0
LINE
8
BLACK
6
CONTINUOUS
10
198.352
20
-162.937
11
198.257
21
-163.127
0
LINE
8
BLACK
6
CONTINUOUS
10
198.257
20
-163.127
11
198.162
21
-163.223
0
LINE
8
BLACK
6
CONTINUOUS
10
198.162
20
-163.223
11
197.971
21
-163.318
0
LINE
8
BLACK
6
CONTINUOUS
10
197.971
20
-163.318
11
197.4
21
-163.318
0
LINE
8
BLACK
6
CONTINUOUS
10
197.4
20
-163.318
11
197.209
21
-163.223
0
LINE
8
BLACK
6
CONTINUOUS
10
197.209
20
-163.223
11
197.114
21
-163.127
0
LINE
8
BLACK
6
CONTINUOUS
10
199.209
20
-163.127
11
199.304
21
-163.223
0
LINE
8
BLACK
6
CONTINUOUS
10
199.304
20
-163.223
11
199.209
21
-163.318
0
LINE
8
BLACK
6
CONTINUOUS
10
199.209
20
-163.318
11
199.114
21
-163.223
0
LINE
8
BLACK
6
CONTINUOUS
10
199.114
20
-163.223
11
199.209
21
-163.127
0
LINE
8
BLACK
6
CONTINUOUS
10
199.209
20
-163.127
11
199.209
21
-163.318
0
LINE
8
BLACK
6
CONTINUOUS
10
200.257
20
-163.318
11
200.638
21
-163.318
0
LINE
8
BLACK
6
CONTINUOUS
10
200.638
20
-163.318
11
200.828
21
-163.223
0
LINE
8
BLACK
6
CONTINUOUS
10
200.828
20
-163.223
11
200.923
21
-163.127
0
LINE
8
BLACK
6
CONTINUOUS
10
200.923
20
-163.127
11
201.114
21
-162.842
0
LINE
8
BLACK
6
CONTINUOUS
10
201.114
20
-162.842
11
201.209
21
-162.461
0
LINE
8
BLACK
6
CONTINUOUS
10
201.209
20
-162.461
11
201.209
21
-161.699
0
LINE
8
BLACK
6
CONTINUOUS
10
201.209
20
-161.699
11
201.114
21
-161.508
0
LINE
8
BLACK
6
CONTINUOUS
10
201.114
20
-161.508
11
201.019
21
-161.413
0
LINE
8
BLACK
6
CONTINUOUS
10
201.019
20
-161.413
11
200.828
21
-161.318
0
LINE
8
BLACK
6
CONTINUOUS
10
200.828
20
-161.318
11
200.447
21
-161.318
0
LINE
8
BLACK
6
CONTINUOUS
10
200.447
20
-161.318
11
200.257
21
-161.413
0
LINE
8
BLACK
6
CONTINUOUS
10
200.257
20
-161.413
11
200.162
21
-161.508
0
LINE
8
BLACK
6
CONTINUOUS
10
200.162
20
-161.508
11
200.066
21
-161.699
0
LINE
8
BLACK
6
CONTINUOUS
10
200.066
20
-161.699
11
200.066
21
-162.175
0
LINE
8
BLACK
6
CONTINUOUS
10
200.066
20
-162.175
11
200.162
21
-162.366
0
LINE
8
BLACK
6
CONTINUOUS
10
200.162
20
-162.366
11
200.257
21
-162.461
0
LINE
8
BLACK
6
CONTINUOUS
10
200.257
20
-162.461
11
200.447
21
-162.556
0
LINE
8
BLACK
6
CONTINUOUS
10
200.447
20
-162.556
11
200.828
21
-162.556
0
LINE
8
BLACK
6
CONTINUOUS
10
200.828
20
-162.556
11
201.019
21
-162.461
0
LINE
8
BLACK
6
CONTINUOUS
10
201.019
20
-162.461
11
201.114
21
-162.366
0
LINE
8
BLACK
6
CONTINUOUS
10
201.114
20
-162.366
11
201.209
21
-162.175
0
LINE
8
BLACK
6
CONTINUOUS
10
202.352
20
-162.175
11
202.162
21
-162.08
0
LINE
8
BLACK
6
CONTINUOUS
10
202.162
20
-162.08
11
202.066
21
-161.985
0
LINE
8
BLACK
6
CONTINUOUS
10
202.066
20
-161.985
11
201.971
21
-161.794
0
LINE
8
BLACK
6
CONTINUOUS
10
201.971
20
-161.794
11
201.971
21
-161.699
0
LINE
8
BLACK
6
CONTINUOUS
10
201.971
20
-161.699
11
202.066
21
-161.508
0
LINE
8
BLACK
6
CONTINUOUS
10
202.066
20
-161.508
11
202.162
21
-161.413
0
LINE
8
BLACK
6
CONTINUOUS
10
202.162
20
-161.413
11
202.352
21
-161.318
0
LINE
8
BLACK
6
CONTINUOUS
10
202.352
20
-161.318
11
202.733
21
-161.318
0
LINE
8
BLACK
6
CONTINUOUS
10
202.733
20
-161.318
11
202.923
21
-161.413
0
LINE
8
BLACK
6
CONTINUOUS
10
202.923
20
-161.413
11
203.019
21
-161.508
0
LINE
8
BLACK
6
CONTINUOUS
10
203.019
20
-161.508
11
203.114
21
-161.699
0
LINE
8
BLACK
6
CONTINUOUS
10
203.114
20
-161.699
11
203.114
21
-161.794
0
LINE
8
BLACK
6
CONTINUOUS
10
203.114
20
-161.794
11
203.019
21
-161.985
0
LINE
8
BLACK
6
CONTINUOUS
10
203.019
20
-161.985
11
202.923
21
-162.08
0
LINE
8
BLACK
6
CONTINUOUS
10
202.923
20
-162.08
11
202.733
21
-162.175
0
LINE
8
BLACK
6
CONTINUOUS
10
202.733
20
-162.175
11
202.352
21
-162.175
0
LINE
8
BLACK
6
CONTINUOUS
10
202.352
20
-162.175
11
202.162
21
-162.27
0
LINE
8
BLACK
6
CONTINUOUS
10
202.162
20
-162.27
11
202.066
21
-162.366
0
LINE
8
BLACK
6
CONTINUOUS
10
202.066
20
-162.366
11
201.971
21
-162.556
0
LINE
8
BLACK
6
CONTINUOUS
10
201.971
20
-162.556
11
201.971
21
-162.937
0
LINE
8
BLACK
6
CONTINUOUS
10
201.971
20
-162.937
11
202.066
21
-163.127
0
LINE
8
BLACK
6
CONTINUOUS
10
202.066
20
-163.127
11
202.162
21
-163.223
0
LINE
8
BLACK
6
CONTINUOUS
10
202.162
20
-163.223
11
202.352
21
-163.318
0
LINE
8
BLACK
6
CONTINUOUS
10
202.352
20
-163.318
11
202.733
21
-163.318
0
LINE
8
BLACK
6
CONTINUOUS
10
202.733
20
-163.318
11
202.923
21
-163.223
0
LINE
8
BLACK
6
CONTINUOUS
10
202.923
20
-163.223
11
203.019
21
-163.127
0
LINE
8
BLACK
6
CONTINUOUS
10
203.019
20
-163.127
11
203.114
21
-162.937
0
LINE
8
BLACK
6
CONTINUOUS
10
203.114
20
-162.937
11
203.114
21
-162.556
0
LINE
8
BLACK
6
CONTINUOUS
10
203.114
20
-162.556
11
203.019
21
-162.366
0
LINE
8
BLACK
6
CONTINUOUS
10
203.019
20
-162.366
11
202.923
21
-162.27
0
LINE
8
BLACK
6
CONTINUOUS
10
202.923
20
-162.27
11
202.733
21
-162.175
0
LINE
8
BLACK
6
CONTINUOUS
10
204.257
20
-162.175
11
204.066
21
-162.08
0
LINE
8
BLACK
6
CONTINUOUS
10
204.066
20
-162.08
11
203.971
21
-161.985
0
LINE
8
BLACK
6
CONTINUOUS
10
203.971
20
-161.985
11
203.876
21
-161.794
0
LINE
8
BLACK
6
CONTINUOUS
10
203.876
20
-161.794
11
203.876
21
-161.699
0
LINE
8
BLACK
6
CONTINUOUS
10
203.876
20
-161.699
11
203.971
21
-161.508
0
LINE
8
BLACK
6
CONTINUOUS
10
203.971
20
-161.508
11
204.066
21
-161.413
0
LINE
8
BLACK
6
CONTINUOUS
10
204.066
20
-161.413
11
204.257
21
-161.318
0
LINE
8
BLACK
6
CONTINUOUS
10
204.257
20
-161.318
11
204.638
21
-161.318
0
LINE
8
BLACK
6
CONTINUOUS
10
204.638
20
-161.318
11
204.828
21
-161.413
0
LINE
8
BLACK
6
CONTINUOUS
10
204.828
20
-161.413
11
204.923
21
-161.508
0
LINE
8
BLACK
6
CONTINUOUS
10
204.923
20
-161.508
11
205.019
21
-161.699
0
LINE
8
BLACK
6
CONTINUOUS
10
205.019
20
-161.699
11
205.019
21
-161.794
0
LINE
8
BLACK
6
CONTINUOUS
10
205.019
20
-161.794
11
204.923
21
-161.985
0
LINE
8
BLACK
6
CONTINUOUS
10
204.923
20
-161.985
11
204.828
21
-162.08
0
LINE
8
BLACK
6
CONTINUOUS
10
204.828
20
-162.08
11
204.638
21
-162.175
0
LINE
8
BLACK
6
CONTINUOUS
10
204.638
20
-162.175
11
204.257
21
-162.175
0
LINE
8
BLACK
6
CONTINUOUS
10
204.257
20
-162.175
11
204.066
21
-162.27
0
LINE
8
BLACK
6
CONTINUOUS
10
204.066
20
-162.27
11
203.971
21
-162.366
0
LINE
8
BLACK
6
CONTINUOUS
10
203.971
20
-162.366
11
203.876
21
-162.556
0
LINE
8
BLACK
6
CONTINUOUS
10
203.876
20
-162.556
11
203.876
21
-162.937
0
LINE
8
BLACK
6
CONTINUOUS
10
203.876
20
-162.937
11
203.971
21
-163.127
0
LINE
8
BLACK
6
CONTINUOUS
10
203.971
20
-163.127
11
204.066
21
-163.223
0
LINE
8
BLACK
6
CONTINUOUS
10
204.066
20
-163.223
11
204.257
21
-163.318
0
LINE
8
BLACK
6
CONTINUOUS
10
204.257
20
-163.318
11
204.638
21
-163.318
0
LINE
8
BLACK
6
CONTINUOUS
10
204.638
20
-163.318
11
204.828
21
-163.223
0
LINE
8
BLACK
6
CONTINUOUS
10
204.828
20
-163.223
11
204.923
21
-163.127
0
LINE
8
BLACK
6
CONTINUOUS
10
204.923
20
-163.127
11
205.019
21
-162.937
0
LINE
8
BLACK
6
CONTINUOUS
10
205.019
20
-162.937
11
205.019
21
-162.556
0
LINE
8
BLACK
6
CONTINUOUS
10
205.019
20
-162.556
11
204.923
21
-162.366
0
LINE
8
BLACK
6
CONTINUOUS
10
204.923
20
-162.366
11
204.828
21
-162.27
0
LINE
8
BLACK
6
CONTINUOUS
10
204.828
20
-162.27
11
204.638
21
-162.175
0
LINE
8
BLACK
6
CONTINUOUS
10
205.876
20
-163.318
11
205.876
21
-161.985
0
LINE
8
BLACK
6
CONTINUOUS
10
205.876
20
-162.175
11
205.971
21
-162.08
0
LINE
8
BLACK
6
CONTINUOUS
10
205.971
20
-162.08
11
206.162
21
-161.985
0
LINE
8
BLACK
6
CONTINUOUS
10
206.162
20
-161.985
11
206.447
21
-161.985
0
LINE
8
BLACK
6
CONTINUOUS
10
206.447
20
-161.985
11
206.638
21
-162.08
0
LINE
8
BLACK
6
CONTINUOUS
10
206.638
20
-162.08
11
206.733
21
-162.27
0
LINE
8
BLACK
6
CONTINUOUS
10
206.733
20
-162.27
11
206.733
21
-163.318
0
LINE
8
BLACK
6
CONTINUOUS
10
206.733
20
-162.27
11
206.828
21
-162.08
0
LINE
8
BLACK
6
CONTINUOUS
10
206.828
20
-162.08
11
207.019
21
-161.985
0
LINE
8
BLACK
6
CONTINUOUS
10
207.019
20
-161.985
11
207.304
21
-161.985
0
LINE
8
BLACK
6
CONTINUOUS
10
207.304
20
-161.985
11
207.495
21
-162.08
0
LINE
8
BLACK
6
CONTINUOUS
10
207.495
20
-162.08
11
207.59
21
-162.27
0
LINE
8
BLACK
6
CONTINUOUS
10
207.59
20
-162.27
11
207.59
21
-163.318
0
LINE
8
BLACK
6
CONTINUOUS
10
208.542
20
-163.318
11
208.542
21
-161.985
0
LINE
8
BLACK
6
CONTINUOUS
10
208.542
20
-162.175
11
208.638
21
-162.08
0
LINE
8
BLACK
6
CONTINUOUS
10
208.638
20
-162.08
11
208.828
21
-161.985
0
LINE
8
BLACK
6
CONTINUOUS
10
208.828
20
-161.985
11
209.114
21
-161.985
0
LINE
8
BLACK
6
CONTINUOUS
10
209.114
20
-161.985
11
209.304
21
-162.08
0
LINE
8
BLACK
6
CONTINUOUS
10
209.304
20
-162.08
11
209.4
21
-162.27
0
LINE
8
BLACK
6
CONTINUOUS
10
209.4
20
-162.27
11
209.4
21
-163.318
0
LINE
8
BLACK
6
CONTINUOUS
10
209.4
20
-162.27
11
209.495
21
-162.08
0
LINE
8
BLACK
6
CONTINUOUS
10
209.495
20
-162.08
11
209.685
21
-161.985
0
LINE
8
BLACK
6
CONTINUOUS
10
209.685
20
-161.985
11
209.971
21
-161.985
0
LINE
8
BLACK
6
CONTINUOUS
10
209.971
20
-161.985
11
210.162
21
-162.08
0
LINE
8
BLACK
6
CONTINUOUS
10
210.162
20
-162.08
11
210.257
21
-162.27
0
LINE
8
BLACK
6
CONTINUOUS
10
210.257
20
-162.27
11
210.257
21
-163.318
0
LINE
8
BLACK
6
CONTINUOUS
10
214.162
20
-161.223
11
212.447
21
-163.794
0
LINE
8
BLACK
6
CONTINUOUS
10
216.733
20
-161.318
11
216.923
21
-161.318
0
LINE
8
BLACK
6
CONTINUOUS
10
216.923
20
-161.318
11
217.114
21
-161.413
0
LINE
8
BLACK
6
CONTINUOUS
10
217.114
20
-161.413
11
217.209
21
-161.508
0
LINE
8
BLACK
6
CONTINUOUS
10
217.209
20
-161.508
11
217.304
21
-161.699
0
LINE
8
BLACK
6
CONTINUOUS
10
217.304
20
-161.699
11
217.4
21
-162.08
0
LINE
8
BLACK
6
CONTINUOUS
10
217.4
20
-162.08
11
217.4
21
-162.556
0
LINE
8
BLACK
6
CONTINUOUS
10
217.4
20
-162.556
11
217.304
21
-162.937
0
LINE
8
BLACK
6
CONTINUOUS
10
217.304
20
-162.937
11
217.209
21
-163.127
0
LINE
8
BLACK
6
CONTINUOUS
10
217.209
20
-163.127
11
217.114
21
-163.223
0
LINE
8
BLACK
6
CONTINUOUS
10
217.114
20
-163.223
11
216.923
21
-163.318
0
LINE
8
BLACK
6
CONTINUOUS
10
216.923
20
-163.318
11
216.733
21
-163.318
0
LINE
8
BLACK
6
CONTINUOUS
10
216.733
20
-163.318
11
216.542
21
-163.223
0
LINE
8
BLACK
6
CONTINUOUS
10
216.542
20
-163.223
11
216.447
21
-163.127
0
LINE
8
BLACK
6
CONTINUOUS
10
216.447
20
-163.127
11
216.352
21
-162.937
0
LINE
8
BLACK
6
CONTINUOUS
10
216.352
20
-162.937
11
216.257
21
-162.556
0
LINE
8
BLACK
6
CONTINUOUS
10
216.257
20
-162.556
11
216.257
21
-162.08
0
LINE
8
BLACK
6
CONTINUOUS
10
216.257
20
-162.08
11
216.352
21
-161.699
0
LINE
8
BLACK
6
CONTINUOUS
10
216.352
20
-161.699
11
216.447
21
-161.508
0
LINE
8
BLACK
6
CONTINUOUS
10
216.447
20
-161.508
11
216.542
21
-161.413
0
LINE
8
BLACK
6
CONTINUOUS
10
216.542
20
-161.413
11
216.733
21
-161.318
0
LINE
8
BLACK
6
CONTINUOUS
10
218.257
20
-163.127
11
218.352
21
-163.223
0
LINE
8
BLACK
6
CONTINUOUS
10
218.352
20
-163.223
11
218.257
21
-163.318
0
LINE
8
BLACK
6
CONTINUOUS
10
218.257
20
-163.318
11
218.162
21
-163.223
0
LINE
8
BLACK
6
CONTINUOUS
10
218.162
20
-163.223
11
218.257
21
-163.127
0
LINE
8
BLACK
6
CONTINUOUS
10
218.257
20
-163.127
11
218.257
21
-163.318
0
LINE
8
BLACK
6
CONTINUOUS
10
220.257
20
-163.318
11
219.114
21
-163.318
0
LINE
8
BLACK
6
CONTINUOUS
10
219.685
20
-163.318
11
219.685
21
-161.318
0
LINE
8
BLACK
6
CONTINUOUS
10
219.685
20
-161.318
11
219.495
21
-161.604
0
LINE
8
BLACK
6
CONTINUOUS
10
219.495
20
-161.604
11
219.304
21
-161.794
0
LINE
8
BLACK
6
CONTINUOUS
10
219.304
20
-161.794
11
219.114
21
-161.889
0
LINE
8
BLACK
6
CONTINUOUS
10
222.066
20
-161.318
11
221.114
21
-161.318
0
LINE
8
BLACK
6
CONTINUOUS
10
221.114
20
-161.318
11
221.019
21
-162.27
0
LINE
8
BLACK
6
CONTINUOUS
10
221.019
20
-162.27
11
221.114
21
-162.175
0
LINE
8
BLACK
6
CONTINUOUS
10
221.114
20
-162.175
11
221.304
21
-162.08
0
LINE
8
BLACK
6
CONTINUOUS
10
221.304
20
-162.08
11
221.781
21
-162.08
0
LINE
8
BLACK
6
CONTINUOUS
10
221.781
20
-162.08
11
221.971
21
-162.175
0
LINE
8
BLACK
6
CONTINUOUS
10
221.971
20
-162.175
11
222.066
21
-162.27
0
LINE
8
BLACK
6
CONTINUOUS
10
222.066
20
-162.27
11
222.162
21
-162.461
0
LINE
8
BLACK
6
CONTINUOUS
10
222.162
20
-162.461
11
222.162
21
-162.937
0
LINE
8
BLACK
6
CONTINUOUS
10
222.162
20
-162.937
11
222.066
21
-163.127
0
LINE
8
BLACK
6
CONTINUOUS
10
222.066
20
-163.127
11
221.971
21
-163.223
0
LINE
8
BLACK
6
CONTINUOUS
10
221.971
20
-163.223
11
221.781
21
-163.318
0
LINE
8
BLACK
6
CONTINUOUS
10
221.781
20
-163.318
11
221.304
21
-163.318
0
LINE
8
BLACK
6
CONTINUOUS
10
221.304
20
-163.318
11
221.114
21
-163.223
0
LINE
8
BLACK
6
CONTINUOUS
10
221.114
20
-163.223
11
221.019
21
-163.127
0
LINE
8
BLACK
6
CONTINUOUS
10
222.828
20
-161.318
11
224.162
21
-161.318
0
LINE
8
BLACK
6
CONTINUOUS
10
224.162
20
-161.318
11
223.304
21
-163.318
0
LINE
8
BLACK
6
CONTINUOUS
10
225.304
20
-161.318
11
225.495
21
-161.318
0
LINE
8
BLACK
6
CONTINUOUS
10
225.495
20
-161.318
11
225.685
21
-161.413
0
LINE
8
BLACK
6
CONTINUOUS
10
225.685
20
-161.413
11
225.781
21
-161.508
0
LINE
8
BLACK
6
CONTINUOUS
10
225.781
20
-161.508
11
225.876
21
-161.699
0
LINE
8
BLACK
6
CONTINUOUS
10
225.876
20
-161.699
11
225.971
21
-162.08
0
LINE
8
BLACK
6
CONTINUOUS
10
225.971
20
-162.08
11
225.971
21
-162.556
0
LINE
8
BLACK
6
CONTINUOUS
10
225.971
20
-162.556
11
225.876
21
-162.937
0
LINE
8
BLACK
6
CONTINUOUS
10
225.876
20
-162.937
11
225.781
21
-163.127
0
LINE
8
BLACK
6
CONTINUOUS
10
225.781
20
-163.127
11
225.685
21
-163.223
0
LINE
8
BLACK
6
CONTINUOUS
10
225.685
20
-163.223
11
225.495
21
-163.318
0
LINE
8
BLACK
6
CONTINUOUS
10
225.495
20
-163.318
11
225.304
21
-163.318
0
LINE
8
BLACK
6
CONTINUOUS
10
225.304
20
-163.318
11
225.114
21
-163.223
0
LINE
8
BLACK
6
CONTINUOUS
10
225.114
20
-163.223
11
225.019
21
-163.127
0
LINE
8
BLACK
6
CONTINUOUS
10
225.019
20
-163.127
11
224.923
21
-162.937
0
LINE
8
BLACK
6
CONTINUOUS
10
224.923
20
-162.937
11
224.828
21
-162.556
0
LINE
8
BLACK
6
CONTINUOUS
10
224.828
20
-162.556
11
224.828
21
-162.08
0
LINE
8
BLACK
6
CONTINUOUS
10
224.828
20
-162.08
11
224.923
21
-161.699
0
LINE
8
BLACK
6
CONTINUOUS
10
224.923
20
-161.699
11
225.019
21
-161.508
0
LINE
8
BLACK
6
CONTINUOUS
10
225.019
20
-161.508
11
225.114
21
-161.413
0
LINE
8
BLACK
6
CONTINUOUS
10
225.114
20
-161.413
11
225.304
21
-161.318
0
LINE
8
BLACK
6
CONTINUOUS
10
226.733
20
-161.318
11
226.733
21
-161.699
0
LINE
8
BLACK
6
CONTINUOUS
10
227.495
20
-161.318
11
227.495
21
-161.699
0
LINE
8
BLACK
6
CONTINUOUS
10
230.447
20
-164.08
11
230.352
21
-163.985
0
LINE
8
BLACK
6
CONTINUOUS
10
230.352
20
-163.985
11
230.162
21
-163.699
0
LINE
8
BLACK
6
CONTINUOUS
10
230.162
20
-163.699
11
230.066
21
-163.508
0
LINE
8
BLACK
6
CONTINUOUS
10
230.066
20
-163.508
11
229.971
21
-163.223
0
LINE
8
BLACK
6
CONTINUOUS
10
229.971
20
-163.223
11
229.876
21
-162.746
0
LINE
8
BLACK
6
CONTINUOUS
10
229.876
20
-162.746
11
229.876
21
-162.366
0
LINE
8
BLACK
6
CONTINUOUS
10
229.876
20
-162.366
11
229.971
21
-161.889
0
LINE
8
BLACK
6
CONTINUOUS
10
229.971
20
-161.889
11
230.066
21
-161.604
0
LINE
8
BLACK
6
CONTINUOUS
10
230.066
20
-161.604
11
230.162
21
-161.413
0
LINE
8
BLACK
6
CONTINUOUS
10
230.162
20
-161.413
11
230.352
21
-161.127
0
LINE
8
BLACK
6
CONTINUOUS
10
230.352
20
-161.127
11
230.447
21
-161.032
0
LINE
8
BLACK
6
CONTINUOUS
10
231.019
20
-161.318
11
232.257
21
-161.318
0
LINE
8
BLACK
6
CONTINUOUS
10
232.257
20
-161.318
11
231.59
21
-162.08
0
LINE
8
BLACK
6
CONTINUOUS
10
231.59
20
-162.08
11
231.876
21
-162.08
0
LINE
8
BLACK
6
CONTINUOUS
10
231.876
20
-162.08
11
232.066
21
-162.175
0
LINE
8
BLACK
6
CONTINUOUS
10
232.066
20
-162.175
11
232.162
21
-162.27
0
LINE
8
BLACK
6
CONTINUOUS
10
232.162
20
-162.27
11
232.257
21
-162.461
0
LINE
8
BLACK
6
CONTINUOUS
10
232.257
20
-162.461
11
232.257
21
-162.937
0
LINE
8
BLACK
6
CONTINUOUS
10
232.257
20
-162.937
11
232.162
21
-163.127
0
LINE
8
BLACK
6
CONTINUOUS
10
232.162
20
-163.127
11
232.066
21
-163.223
0
LINE
8
BLACK
6
CONTINUOUS
10
232.066
20
-163.223
11
231.876
21
-163.318
0
LINE
8
BLACK
6
CONTINUOUS
10
231.876
20
-163.318
11
231.304
21
-163.318
0
LINE
8
BLACK
6
CONTINUOUS
10
231.304
20
-163.318
11
231.114
21
-163.223
0
LINE
8
BLACK
6
CONTINUOUS
10
231.114
20
-163.223
11
231.019
21
-163.127
0
LINE
8
BLACK
6
CONTINUOUS
10
233.495
20
-161.318
11
233.685
21
-161.318
0
LINE
8
BLACK
6
CONTINUOUS
10
233.685
20
-161.318
11
233.876
21
-161.413
0
LINE
8
BLACK
6
CONTINUOUS
10
233.876
20
-161.413
11
233.971
21
-161.508
0
LINE
8
BLACK
6
CONTINUOUS
10
233.971
20
-161.508
11
234.066
21
-161.699
0
LINE
8
BLACK
6
CONTINUOUS
10
234.066
20
-161.699
11
234.162
21
-162.08
0
LINE
8
BLACK
6
CONTINUOUS
10
234.162
20
-162.08
11
234.162
21
-162.556
0
LINE
8
BLACK
6
CONTINUOUS
10
234.162
20
-162.556
11
234.066
21
-162.937
0
LINE
8
BLACK
6
CONTINUOUS
10
234.066
20
-162.937
11
233.971
21
-163.127
0
LINE
8
BLACK
6
CONTINUOUS
10
233.971
20
-163.127
11
233.876
21
-163.223
0
LINE
8
BLACK
6
CONTINUOUS
10
233.876
20
-163.223
11
233.685
21
-163.318
0
LINE
8
BLACK
6
CONTINUOUS
10
233.685
20
-163.318
11
233.495
21
-163.318
0
LINE
8
BLACK
6
CONTINUOUS
10
233.495
20
-163.318
11
233.304
21
-163.223
0
LINE
8
BLACK
6
CONTINUOUS
10
233.304
20
-163.223
11
233.209
21
-163.127
0
LINE
8
BLACK
6
CONTINUOUS
10
233.209
20
-163.127
11
233.114
21
-162.937
0
LINE
8
BLACK
6
CONTINUOUS
10
233.114
20
-162.937
11
233.019
21
-162.556
0
LINE
8
BLACK
6
CONTINUOUS
10
233.019
20
-162.556
11
233.019
21
-162.08
0
LINE
8
BLACK
6
CONTINUOUS
10
233.019
20
-162.08
11
233.114
21
-161.699
0
LINE
8
BLACK
6
CONTINUOUS
10
233.114
20
-161.699
11
233.209
21
-161.508
0
LINE
8
BLACK
6
CONTINUOUS
10
233.209
20
-161.508
11
233.304
21
-161.413
0
LINE
8
BLACK
6
CONTINUOUS
10
233.304
20
-161.413
11
233.495
21
-161.318
0
LINE
8
BLACK
6
CONTINUOUS
10
236.542
20
-163.318
11
236.542
21
-161.318
0
LINE
8
BLACK
6
CONTINUOUS
10
237.4
20
-163.318
11
237.4
21
-162.27
0
LINE
8
BLACK
6
CONTINUOUS
10
237.4
20
-162.27
11
237.304
21
-162.08
0
LINE
8
BLACK
6
CONTINUOUS
10
237.304
20
-162.08
11
237.114
21
-161.985
0
LINE
8
BLACK
6
CONTINUOUS
10
237.114
20
-161.985
11
236.828
21
-161.985
0
LINE
8
BLACK
6
CONTINUOUS
10
236.828
20
-161.985
11
236.638
21
-162.08
0
LINE
8
BLACK
6
CONTINUOUS
10
236.638
20
-162.08
11
236.542
21
-162.175
0
LINE
8
BLACK
6
CONTINUOUS
10
238.638
20
-163.318
11
238.447
21
-163.223
0
LINE
8
BLACK
6
CONTINUOUS
10
238.447
20
-163.223
11
238.352
21
-163.127
0
LINE
8
BLACK
6
CONTINUOUS
10
238.352
20
-163.127
11
238.257
21
-162.937
0
LINE
8
BLACK
6
CONTINUOUS
10
238.257
20
-162.937
11
238.257
21
-162.366
0
LINE
8
BLACK
6
CONTINUOUS
10
238.257
20
-162.366
11
238.352
21
-162.175
0
LINE
8
BLACK
6
CONTINUOUS
10
238.352
20
-162.175
11
238.447
21
-162.08
0
LINE
8
BLACK
6
CONTINUOUS
10
238.447
20
-162.08
11
238.638
21
-161.985
0
LINE
8
BLACK
6
CONTINUOUS
10
238.638
20
-161.985
11
238.923
21
-161.985
0
LINE
8
BLACK
6
CONTINUOUS
10
238.923
20
-161.985
11
239.114
21
-162.08
0
LINE
8
BLACK
6
CONTINUOUS
10
239.114
20
-162.08
11
239.209
21
-162.175
0
LINE
8
BLACK
6
CONTINUOUS
10
239.209
20
-162.175
11
239.304
21
-162.366
0
LINE
8
BLACK
6
CONTINUOUS
10
239.304
20
-162.366
11
239.304
21
-162.937
0
LINE
8
BLACK
6
CONTINUOUS
10
239.304
20
-162.937
11
239.209
21
-163.127
0
LINE
8
BLACK
6
CONTINUOUS
10
239.209
20
-163.127
11
239.114
21
-163.223
0
LINE
8
BLACK
6
CONTINUOUS
10
239.114
20
-163.223
11
238.923
21
-163.318
0
LINE
8
BLACK
6
CONTINUOUS
10
238.923
20
-163.318
11
238.638
21
-163.318
0
LINE
8
BLACK
6
CONTINUOUS
10
240.447
20
-163.318
11
240.257
21
-163.223
0
LINE
8
BLACK
6
CONTINUOUS
10
240.257
20
-163.223
11
240.162
21
-163.032
0
LINE
8
BLACK
6
CONTINUOUS
10
240.162
20
-163.032
11
240.162
21
-161.318
0
LINE
8
BLACK
6
CONTINUOUS
10
241.971
20
-163.223
11
241.781
21
-163.318
0
LINE
8
BLACK
6
CONTINUOUS
10
241.781
20
-163.318
11
241.4
21
-163.318
0
LINE
8
BLACK
6
CONTINUOUS
10
241.4
20
-163.318
11
241.209
21
-163.223
0
LINE
8
BLACK
6
CONTINUOUS
10
241.209
20
-163.223
11
241.114
21
-163.032
0
LINE
8
BLACK
6
CONTINUOUS
10
241.114
20
-163.032
11
241.114
21
-162.27
0
LINE
8
BLACK
6
CONTINUOUS
10
241.114
20
-162.27
11
241.209
21
-162.08
0
LINE
8
BLACK
6
CONTINUOUS
10
241.209
20
-162.08
11
241.4
21
-161.985
0
LINE
8
BLACK
6
CONTINUOUS
10
241.4
20
-161.985
11
241.781
21
-161.985
0
LINE
8
BLACK
6
CONTINUOUS
10
241.781
20
-161.985
11
241.971
21
-162.08
0
LINE
8
BLACK
6
CONTINUOUS
10
241.971
20
-162.08
11
242.066
21
-162.27
0
LINE
8
BLACK
6
CONTINUOUS
10
242.066
20
-162.27
11
242.066
21
-162.461
0
LINE
8
BLACK
6
CONTINUOUS
10
242.066
20
-162.461
11
241.114
21
-162.651
0
LINE
8
BLACK
6
CONTINUOUS
10
242.828
20
-163.223
11
243.019
21
-163.318
0
LINE
8
BLACK
6
CONTINUOUS
10
243.019
20
-163.318
11
243.4
21
-163.318
0
LINE
8
BLACK
6
CONTINUOUS
10
243.4
20
-163.318
11
243.59
21
-163.223
0
LINE
8
BLACK
6
CONTINUOUS
10
243.59
20
-163.223
11
243.685
21
-163.032
0
LINE
8
BLACK
6
CONTINUOUS
10
243.685
20
-163.032
11
243.685
21
-162.937
0
LINE
8
BLACK
6
CONTINUOUS
10
243.685
20
-162.937
11
243.59
21
-162.746
0
LINE
8
BLACK
6
CONTINUOUS
10
243.59
20
-162.746
11
243.4
21
-162.651
0
LINE
8
BLACK
6
CONTINUOUS
10
243.4
20
-162.651
11
243.114
21
-162.651
0
LINE
8
BLACK
6
CONTINUOUS
10
243.114
20
-162.651
11
242.923
21
-162.556
0
LINE
8
BLACK
6
CONTINUOUS
10
242.923
20
-162.556
11
242.828
21
-162.366
0
LINE
8
BLACK
6
CONTINUOUS
10
242.828
20
-162.366
11
242.828
21
-162.27
0
LINE
8
BLACK
6
CONTINUOUS
10
242.828
20
-162.27
11
242.923
21
-162.08
0
LINE
8
BLACK
6
CONTINUOUS
10
242.923
20
-162.08
11
243.114
21
-161.985
0
LINE
8
BLACK
6
CONTINUOUS
10
243.114
20
-161.985
11
243.4
21
-161.985
0
LINE
8
BLACK
6
CONTINUOUS
10
243.4
20
-161.985
11
243.59
21
-162.08
0
LINE
8
BLACK
6
CONTINUOUS
10
244.352
20
-164.08
11
244.447
21
-163.985
0
LINE
8
BLACK
6
CONTINUOUS
10
244.447
20
-163.985
11
244.638
21
-163.699
0
LINE
8
BLACK
6
CONTINUOUS
10
244.638
20
-163.699
11
244.733
21
-163.508
0
LINE
8
BLACK
6
CONTINUOUS
10
244.733
20
-163.508
11
244.828
21
-163.223
0
LINE
8
BLACK
6
CONTINUOUS
10
244.828
20
-163.223
11
244.923
21
-162.746
0
LINE
8
BLACK
6
CONTINUOUS
10
244.923
20
-162.746
11
244.923
21
-162.366
0
LINE
8
BLACK
6
CONTINUOUS
10
244.923
20
-162.366
11
244.828
21
-161.889
0
LINE
8
BLACK
6
CONTINUOUS
10
244.828
20
-161.889
11
244.733
21
-161.604
0
LINE
8
BLACK
6
CONTINUOUS
10
244.733
20
-161.604
11
244.638
21
-161.413
0
LINE
8
BLACK
6
CONTINUOUS
10
244.638
20
-161.413
11
244.447
21
-161.127
0
LINE
8
BLACK
6
CONTINUOUS
10
244.447
20
-161.127
11
244.352
21
-161.032
0
LINE
8
BLACK
6
CONTINUOUS
10
247.971
20
-164.08
11
247.876
21
-163.985
0
LINE
8
BLACK
6
CONTINUOUS
10
247.876
20
-163.985
11
247.685
21
-163.699
0
LINE
8
BLACK
6
CONTINUOUS
10
247.685
20
-163.699
11
247.59
21
-163.508
0
LINE
8
BLACK
6
CONTINUOUS
10
247.59
20
-163.508
11
247.495
21
-163.223
0
LINE
8
BLACK
6
CONTINUOUS
10
247.495
20
-163.223
11
247.4
21
-162.746
0
LINE
8
BLACK
6
CONTINUOUS
10
247.4
20
-162.746
11
247.4
21
-162.366
0
LINE
8
BLACK
6
CONTINUOUS
10
247.4
20
-162.366
11
247.495
21
-161.889
0
LINE
8
BLACK
6
CONTINUOUS
10
247.495
20
-161.889
11
247.59
21
-161.604
0
LINE
8
BLACK
6
CONTINUOUS
10
247.59
20
-161.604
11
247.685
21
-161.413
0
LINE
8
BLACK
6
CONTINUOUS
10
247.685
20
-161.413
11
247.876
21
-161.127
0
LINE
8
BLACK
6
CONTINUOUS
10
247.876
20
-161.127
11
247.971
21
-161.032
0
LINE
8
BLACK
6
CONTINUOUS
10
248.733
20
-161.985
11
248.733
21
-163.318
0
LINE
8
BLACK
6
CONTINUOUS
10
248.733
20
-162.175
11
248.828
21
-162.08
0
LINE
8
BLACK
6
CONTINUOUS
10
248.828
20
-162.08
11
249.019
21
-161.985
0
LINE
8
BLACK
6
CONTINUOUS
10
249.019
20
-161.985
11
249.304
21
-161.985
0
LINE
8
BLACK
6
CONTINUOUS
10
249.304
20
-161.985
11
249.495
21
-162.08
0
LINE
8
BLACK
6
CONTINUOUS
10
249.495
20
-162.08
11
249.59
21
-162.27
0
LINE
8
BLACK
6
CONTINUOUS
10
249.59
20
-162.27
11
249.59
21
-163.318
0
LINE
8
BLACK
6
CONTINUOUS
10
250.828
20
-163.318
11
250.638
21
-163.223
0
LINE
8
BLACK
6
CONTINUOUS
10
250.638
20
-163.223
11
250.542
21
-163.127
0
LINE
8
BLACK
6
CONTINUOUS
10
250.542
20
-163.127
11
250.447
21
-162.937
0
LINE
8
BLACK
6
CONTINUOUS
10
250.447
20
-162.937
11
250.447
21
-162.366
0
LINE
8
BLACK
6
CONTINUOUS
10
250.447
20
-162.366
11
250.542
21
-162.175
0
LINE
8
BLACK
6
CONTINUOUS
10
250.542
20
-162.175
11
250.638
21
-162.08
0
LINE
8
BLACK
6
CONTINUOUS
10
250.638
20
-162.08
11
250.828
21
-161.985
0
LINE
8
BLACK
6
CONTINUOUS
10
250.828
20
-161.985
11
251.114
21
-161.985
0
LINE
8
BLACK
6
CONTINUOUS
10
251.114
20
-161.985
11
251.304
21
-162.08
0
LINE
8
BLACK
6
CONTINUOUS
10
251.304
20
-162.08
11
251.4
21
-162.175
0
LINE
8
BLACK
6
CONTINUOUS
10
251.4
20
-162.175
11
251.495
21
-162.366
0
LINE
8
BLACK
6
CONTINUOUS
10
251.495
20
-162.366
11
251.495
21
-162.937
0
LINE
8
BLACK
6
CONTINUOUS
10
251.495
20
-162.937
11
251.4
21
-163.127
0
LINE
8
BLACK
6
CONTINUOUS
10
251.4
20
-163.127
11
251.304
21
-163.223
0
LINE
8
BLACK
6
CONTINUOUS
10
251.304
20
-163.223
11
251.114
21
-163.318
0
LINE
8
BLACK
6
CONTINUOUS
10
251.114
20
-163.318
11
250.828
21
-163.318
0
LINE
8
BLACK
6
CONTINUOUS
10
252.066
20
-161.985
11
252.828
21
-161.985
0
LINE
8
BLACK
6
CONTINUOUS
10
252.352
20
-161.318
11
252.352
21
-163.032
0
LINE
8
BLACK
6
CONTINUOUS
10
252.352
20
-163.032
11
252.447
21
-163.223
0
LINE
8
BLACK
6
CONTINUOUS
10
252.447
20
-163.223
11
252.638
21
-163.318
0
LINE
8
BLACK
6
CONTINUOUS
10
252.638
20
-163.318
11
252.828
21
-163.318
0
LINE
8
BLACK
6
CONTINUOUS
10
255.019
20
-161.985
11
255.019
21
-163.985
0
LINE
8
BLACK
6
CONTINUOUS
10
255.019
20
-162.08
11
255.209
21
-161.985
0
LINE
8
BLACK
6
CONTINUOUS
10
255.209
20
-161.985
11
255.59
21
-161.985
0
LINE
8
BLACK
6
CONTINUOUS
10
255.59
20
-161.985
11
255.781
21
-162.08
0
LINE
8
BLACK
6
CONTINUOUS
10
255.781
20
-162.08
11
255.876
21
-162.175
0
LINE
8
BLACK
6
CONTINUOUS
10
255.876
20
-162.175
11
255.971
21
-162.366
0
LINE
8
BLACK
6
CONTINUOUS
10
255.971
20
-162.366
11
255.971
21
-162.937
0
LINE
8
BLACK
6
CONTINUOUS
10
255.971
20
-162.937
11
255.876
21
-163.127
0
LINE
8
BLACK
6
CONTINUOUS
10
255.876
20
-163.127
11
255.781
21
-163.223
0
LINE
8
BLACK
6
CONTINUOUS
10
255.781
20
-163.223
11
255.59
21
-163.318
0
LINE
8
BLACK
6
CONTINUOUS
10
255.59
20
-163.318
11
255.209
21
-163.318
0
LINE
8
BLACK
6
CONTINUOUS
10
255.209
20
-163.318
11
255.019
21
-163.223
0
LINE
8
BLACK
6
CONTINUOUS
10
257.114
20
-163.318
11
256.923
21
-163.223
0
LINE
8
BLACK
6
CONTINUOUS
10
256.923
20
-163.223
11
256.828
21
-163.032
0
LINE
8
BLACK
6
CONTINUOUS
10
256.828
20
-163.032
11
256.828
21
-161.318
0
LINE
8
BLACK
6
CONTINUOUS
10
258.733
20
-163.318
11
258.733
21
-162.27
0
LINE
8
BLACK
6
CONTINUOUS
10
258.733
20
-162.27
11
258.638
21
-162.08
0
LINE
8
BLACK
6
CONTINUOUS
10
258.638
20
-162.08
11
258.447
21
-161.985
0
LINE
8
BLACK
6
CONTINUOUS
10
258.447
20
-161.985
11
258.066
21
-161.985
0
LINE
8
BLACK
6
CONTINUOUS
10
258.066
20
-161.985
11
257.876
21
-162.08
0
LINE
8
BLACK
6
CONTINUOUS
10
258.733
20
-163.223
11
258.542
21
-163.318
0
LINE
8
BLACK
6
CONTINUOUS
10
258.542
20
-163.318
11
258.066
21
-163.318
0
LINE
8
BLACK
6
CONTINUOUS
10
258.066
20
-163.318
11
257.876
21
-163.223
0
LINE
8
BLACK
6
CONTINUOUS
10
257.876
20
-163.223
11
257.781
21
-163.032
0
LINE
8
BLACK
6
CONTINUOUS
10
257.781
20
-163.032
11
257.781
21
-162.842
0
LINE
8
BLACK
6
CONTINUOUS
10
257.781
20
-162.842
11
257.876
21
-162.651
0
LINE
8
BLACK
6
CONTINUOUS
10
257.876
20
-162.651
11
258.066
21
-162.556
0
LINE
8
BLACK
6
CONTINUOUS
10
258.066
20
-162.556
11
258.542
21
-162.556
0
LINE
8
BLACK
6
CONTINUOUS
10
258.542
20
-162.556
11
258.733
21
-162.461
0
LINE
8
BLACK
6
CONTINUOUS
10
259.4
20
-161.985
11
260.162
21
-161.985
0
LINE
8
BLACK
6
CONTINUOUS
10
259.685
20
-161.318
11
259.685
21
-163.032
0
LINE
8
BLACK
6
CONTINUOUS
10
259.685
20
-163.032
11
259.781
21
-163.223
0
LINE
8
BLACK
6
CONTINUOUS
10
259.781
20
-163.223
11
259.971
21
-163.318
0
LINE
8
BLACK
6
CONTINUOUS
10
259.971
20
-163.318
11
260.162
21
-163.318
0
LINE
8
BLACK
6
CONTINUOUS
10
261.59
20
-163.223
11
261.4
21
-163.318
0
LINE
8
BLACK
6
CONTINUOUS
10
261.4
20
-163.318
11
261.019
21
-163.318
0
LINE
8
BLACK
6
CONTINUOUS
10
261.019
20
-163.318
11
260.828
21
-163.223
0
LINE
8
BLACK
6
CONTINUOUS
10
260.828
20
-163.223
11
260.733
21
-163.032
0
LINE
8
BLACK
6
CONTINUOUS
10
260.733
20
-163.032
11
260.733
21
-162.27
0
LINE
8
BLACK
6
CONTINUOUS
10
260.733
20
-162.27
11
260.828
21
-162.08
0
LINE
8
BLACK
6
CONTINUOUS
10
260.828
20
-162.08
11
261.019
21
-161.985
0
LINE
8
BLACK
6
CONTINUOUS
10
261.019
20
-161.985
11
261.4
21
-161.985
0
LINE
8
BLACK
6
CONTINUOUS
10
261.4
20
-161.985
11
261.59
21
-162.08
0
LINE
8
BLACK
6
CONTINUOUS
10
261.59
20
-162.08
11
261.685
21
-162.27
0
LINE
8
BLACK
6
CONTINUOUS
10
261.685
20
-162.27
11
261.685
21
-162.461
0
LINE
8
BLACK
6
CONTINUOUS
10
261.685
20
-162.461
11
260.733
21
-162.651
0
LINE
8
BLACK
6
CONTINUOUS
10
263.4
20
-163.318
11
263.4
21
-161.318
0
LINE
8
BLACK
6
CONTINUOUS
10
263.4
20
-163.223
11
263.209
21
-163.318
0
LINE
8
BLACK
6
CONTINUOUS
10
263.209
20
-163.318
11
262.828
21
-163.318
0
LINE
8
BLACK
6
CONTINUOUS
10
262.828
20
-163.318
11
262.638
21
-163.223
0
LINE
8
BLACK
6
CONTINUOUS
10
262.638
20
-163.223
11
262.542
21
-163.127
0
LINE
8
BLACK
6
CONTINUOUS
10
262.542
20
-163.127
11
262.447
21
-162.937
0
LINE
8
BLACK
6
CONTINUOUS
10
262.447
20
-162.937
11
262.447
21
-162.366
0
LINE
8
BLACK
6
CONTINUOUS
10
262.447
20
-162.366
11
262.542
21
-162.175
0
LINE
8
BLACK
6
CONTINUOUS
10
262.542
20
-162.175
11
262.638
21
-162.08
0
LINE
8
BLACK
6
CONTINUOUS
10
262.638
20
-162.08
11
262.828
21
-161.985
0
LINE
8
BLACK
6
CONTINUOUS
10
262.828
20
-161.985
11
263.209
21
-161.985
0
LINE
8
BLACK
6
CONTINUOUS
10
263.209
20
-161.985
11
263.4
21
-162.08
0
LINE
8
BLACK
6
CONTINUOUS
10
264.162
20
-164.08
11
264.257
21
-163.985
0
LINE
8
BLACK
6
CONTINUOUS
10
264.257
20
-163.985
11
264.447
21
-163.699
0
LINE
8
BLACK
6
CONTINUOUS
10
264.447
20
-163.699
11
264.542
21
-163.508
0
LINE
8
BLACK
6
CONTINUOUS
10
264.542
20
-163.508
11
264.638
21
-163.223
0
LINE
8
BLACK
6
CONTINUOUS
10
264.638
20
-163.223
11
264.733
21
-162.746
0
LINE
8
BLACK
6
CONTINUOUS
10
264.733
20
-162.746
11
264.733
21
-162.366
0
LINE
8
BLACK
6
CONTINUOUS
10
264.733
20
-162.366
11
264.638
21
-161.889
0
LINE
8
BLACK
6
CONTINUOUS
10
264.638
20
-161.889
11
264.542
21
-161.604
0
LINE
8
BLACK
6
CONTINUOUS
10
264.542
20
-161.604
11
264.447
21
-161.413
0
LINE
8
BLACK
6
CONTINUOUS
10
264.447
20
-161.413
11
264.257
21
-161.127
0
LINE
8
BLACK
6
CONTINUOUS
10
264.257
20
-161.127
11
264.162
21
-161.032
  0
ENDSEC
  0
EOF
