M48
; DRILL file {KiCad (6.0.4)} date Sun Sep  4 01:45:50 2022
; FORMAT={-:-/ absolute / metric / decimal}
; #@! TF.CreationDate,2022-09-04T01:45:50+02:00
; #@! TF.GenerationSoftware,Kicad,Pcbnew,(6.0.4)
; #@! TF.FileFunction,Plated,1,2,PTH
FMAT,2
METRIC
; #@! TA.AperFunction,Plated,PTH,ViaDrill
T1C0.400
; #@! TA.AperFunction,Plated,PTH,ComponentDrill
T2C1.092
; #@! TA.AperFunction,Plated,PTH,ComponentDrill
T3C1.300
; #@! TA.AperFunction,Plated,PTH,ComponentDrill
T4C1.499
; #@! TA.AperFunction,Plated,PTH,ComponentDrill
T5C2.200
; #@! TA.AperFunction,Plated,PTH,ComponentDrill
T6C3.000
%
G90
G05
T1
X198.882Y-137.922
X201.422Y-137.922
X203.962Y-137.922
X205.003Y-63.494
T2
X198.798Y-145.574
X198.882Y-130.334
X200.47Y-71.374
X201.422Y-130.334
X201.422Y-145.574
X202.47Y-71.374
X203.962Y-130.334
X203.962Y-145.574
X204.47Y-71.374
X206.502Y-130.334
X206.502Y-145.574
X209.042Y-130.334
X209.042Y-145.574
X211.582Y-130.334
X211.582Y-145.574
X214.122Y-130.334
X214.122Y-145.574
X216.662Y-130.334
X216.662Y-145.574
X219.202Y-130.334
X219.202Y-145.574
X221.742Y-130.334
X221.742Y-145.574
X224.282Y-130.334
X224.282Y-145.574
X226.822Y-130.334
X226.822Y-145.574
T3
X233.172Y-131.454
X233.172Y-137.954
T4
X203.31Y-102.362
X205.267Y-104.42
X208.865Y-120.532
X210.125Y-102.934
X210.597Y-100.134
X210.822Y-122.589
X215.68Y-121.104
X216.152Y-118.304
X222.216Y-79.14
X223.908Y-81.421
X225.515Y-97.852
X227.207Y-100.132
X228.815Y-116.563
X228.911Y-80.539
X229.72Y-77.817
X230.506Y-118.844
X232.21Y-99.25
X233.02Y-96.528
X235.509Y-117.962
X236.319Y-115.24
X243.861Y-68.44
X245.347Y-70.86
X245.517Y-87.368
X247.003Y-89.788
X247.173Y-106.296
X248.659Y-108.715
X250.408Y-70.417
X251.452Y-67.776
X252.064Y-89.345
X253.108Y-86.704
X253.72Y-108.273
X254.764Y-105.632
X267.306Y-80.526
X267.306Y-99.526
X267.306Y-118.526
X268.576Y-83.066
X268.576Y-102.066
X268.576Y-121.066
X271.931Y-139.526
X273.201Y-142.066
X273.656Y-83.066
X273.656Y-102.066
X273.656Y-121.066
X274.926Y-80.526
X274.926Y-99.526
X274.926Y-118.526
X278.281Y-142.066
X279.551Y-139.526
X286.706Y-91.926
X286.706Y-110.926
X287.976Y-94.466
X287.976Y-113.466
X291.331Y-141.236
X292.601Y-143.776
X293.056Y-94.466
X293.056Y-113.466
X294.326Y-91.926
X294.326Y-110.926
X297.681Y-143.776
X298.951Y-141.236
T5
X240.078Y-95.552
X255.914Y-117.348
X261.874Y-79.717
T6
X200.66Y-124.46
X216.916Y-62.484
X297.688Y-62.484
X298.196Y-124.714
T0
M30
