M48
; DRILL file {KiCad (6.0.4)} date Sun Jul 31 17:14:56 2022
; FORMAT={-:-/ absolute / metric / decimal}
; #@! TF.CreationDate,2022-07-31T17:14:56+02:00
; #@! TF.GenerationSoftware,Kicad,Pcbnew,(6.0.4)
; #@! TF.FileFunction,NonPlated,1,2,NPTH
FMAT,2
METRIC
; #@! TA.AperFunction,NonPlated,NPTH,ComponentDrill
T1C0.900
; #@! TA.AperFunction,NonPlated,NPTH,ComponentDrill
T2C1.702
; #@! TA.AperFunction,NonPlated,NPTH,ComponentDrill
T3C3.000
; #@! TA.AperFunction,NonPlated,NPTH,ComponentDrill
T4C3.429
%
G90
G05
T1
X160.68Y60.852
X160.68Y57.852
T2
X47.583Y81.122
X52.553Y64.865
X58.102Y84.338
X63.072Y68.081
X65.971Y103.79
X68.923Y87.048
X71.875Y70.307
X76.804Y105.7
X79.756Y88.958
X82.708Y72.217
X87.261Y113.57
X88.743Y96.635
X90.224Y79.7
X98.219Y114.529
X99.701Y97.594
X101.182Y80.658
X109.925Y105.712
X109.925Y88.712
X109.925Y71.712
X120.925Y105.712
X120.925Y88.712
X120.925Y71.712
X125.074Y51.247
X128.006Y87.611
X128.006Y70.611
X128.013Y104.609
X135.992Y49.906
X139.006Y87.611
X139.006Y70.611
X139.013Y104.609
X144.86Y47.613
X155.059Y43.493
T3
X46.964Y84.854
X51.103Y88.42
X51.935Y68.597
X56.073Y72.163
X56.527Y87.778
X61.498Y71.521
X65.812Y107.57
X68.764Y90.828
X70.354Y110.605
X71.716Y74.086
X73.306Y93.863
X75.66Y109.306
X76.258Y77.121
X78.612Y92.565
X81.564Y75.823
X87.432Y117.349
X88.914Y100.414
X90.395Y83.479
X92.221Y119.977
X93.703Y103.042
X95.185Y86.106
X97.394Y118.221
X98.876Y101.286
X100.357Y84.35
X110.425Y109.462
X110.425Y92.462
X110.425Y75.462
X115.425Y111.662
X115.425Y94.662
X115.425Y77.662
X120.425Y109.462
X120.425Y92.462
X120.425Y75.462
X126.028Y54.908
X128.506Y91.361
X128.506Y74.361
X128.513Y108.359
X131.259Y56.482
X133.506Y93.561
X133.506Y76.561
X133.513Y110.559
X135.953Y53.689
X138.506Y91.361
X138.506Y74.361
X138.513Y108.359
X146.728Y50.903
X152.188Y51.07
X156.0Y47.157
T4
X52.842Y82.73
X57.813Y66.473
X71.387Y104.745
X74.339Y88.003
X77.291Y71.262
X92.74Y114.049
X94.222Y97.114
X95.703Y80.179
X115.425Y105.712
X115.425Y88.712
X115.425Y71.712
X130.533Y50.577
X133.506Y87.611
X133.506Y70.611
X133.513Y104.609
X149.959Y45.553
T0
M30
