M48
; DRILL file {KiCad (6.0.4)} date Sat Jan  7 15:23:17 2023
; FORMAT={-:-/ absolute / inch / decimal}
; #@! TF.CreationDate,2023-01-07T15:23:17+01:00
; #@! TF.GenerationSoftware,Kicad,Pcbnew,(6.0.4)
; #@! TF.FileFunction,NonPlated,1,2,NPTH
FMAT,2
INCH
; #@! TA.AperFunction,NonPlated,NPTH,ComponentDrill
T1C0.0670
; #@! TA.AperFunction,NonPlated,NPTH,ComponentDrill
T2C0.0945
; #@! TA.AperFunction,NonPlated,NPTH,ComponentDrill
T3C0.1181
; #@! TA.AperFunction,NonPlated,NPTH,ComponentDrill
T4C0.1570
; #@! TA.AperFunction,NonPlated,NPTH,ComponentDrill
T5C0.1654
%
G90
G05
T2
X7.9453Y-4.4533
X9.3265Y-5.6757
T3
X3.0555Y-3.8425
X3.1355Y-3.9181
X3.2231Y-3.9772
X3.2482Y-3.1206
X3.3282Y-3.1963
X3.4028Y-3.8862
X3.4158Y-3.2554
X3.4356Y-3.9445
X3.5955Y-3.1644
X3.6283Y-3.2226
X3.6897Y-4.4025
X3.7697Y-4.4781
X3.8573Y-4.5372
X3.8816Y-3.6774
X3.9616Y-3.753
X4.0371Y-4.4462
X4.0492Y-3.8121
X4.0699Y-4.5045
X4.0749Y-2.9541
X4.1549Y-3.0298
X4.229Y-3.7211
X4.2425Y-3.0888
X4.2618Y-3.7794
X4.4223Y-2.9979
X4.4551Y-3.0561
X4.5362Y-4.233
X4.6064Y-4.3179
X4.6861Y-4.3872
X4.8164Y-3.5395
X4.8756Y-4.3188
X4.8866Y-3.6243
X4.9011Y-4.3806
X4.9663Y-3.6936
X5.0966Y-2.8459
X5.1559Y-3.6252
X5.1668Y-2.9307
X5.1813Y-3.687
X5.2465Y-3.0
X5.3398Y-4.332
X5.4024Y-4.4227
X5.4361Y-2.9317
X5.4615Y-2.9935
X5.4758Y-4.4986
X5.5734Y-5.5687
X5.636Y-5.6593
X5.6705Y-4.4471
X5.6794Y-3.6655
X5.6905Y-4.5108
X5.7094Y-5.7353
X5.742Y-3.7562
X5.8154Y-3.8321
X5.9041Y-5.6837
X5.9154Y-4.8949
X5.9241Y-5.7475
X5.9779Y-4.9855
X6.0101Y-3.7805
X6.019Y-2.999
X6.0301Y-3.8443
X6.0513Y-5.0615
X6.0816Y-3.0897
X6.155Y-3.1656
X6.2179Y-5.9639
X6.2461Y-5.0099
X6.255Y-4.2284
X6.266Y-5.0737
X6.2805Y-6.0545
X6.3175Y-4.319
X6.3497Y-3.114
X6.3539Y-6.1305
X6.3697Y-3.1778
X6.3909Y-4.395
X6.5486Y-6.0789
X6.5614Y-5.2931
X6.5686Y-6.1427
X6.5857Y-4.3434
X6.5946Y-3.5619
X6.6056Y-4.4072
X6.6239Y-5.3837
X6.6571Y-3.6525
X6.6973Y-5.4597
X6.7305Y-3.7285
X6.8423Y-6.3957
X6.8921Y-5.4081
X6.9022Y-4.6293
X6.9048Y-6.4864
X6.912Y-5.4719
X6.9253Y-3.6769
X6.9452Y-3.7407
X6.9647Y-4.72
X6.9783Y-6.5623
X7.0382Y-4.796
X7.173Y-6.5107
X7.193Y-6.5745
X7.2329Y-4.7444
X7.2418Y-3.9628
X7.2529Y-4.8081
X7.3043Y-4.0535
X7.3777Y-4.1295
X7.5725Y-4.0779
X7.5925Y-4.1416
X7.8282Y-7.2083
X7.9251Y-7.2607
X8.025Y-7.2951
X8.1751Y-7.1607
X8.2218Y-7.2084
X8.5873Y-7.2082
X8.6841Y-7.2605
X8.784Y-7.2949
X8.9341Y-7.1605
X8.9809Y-7.2083
X9.3481Y-7.2083
X9.445Y-7.2607
X9.5449Y-7.2951
X9.695Y-7.1607
X9.7417Y-7.2084
X9.9773Y-4.1623
X10.0873Y-4.165
X10.192Y-4.1503
X10.2647Y-3.9624
X10.3169Y-4.8288
X10.328Y-3.9837
X10.3735Y-6.6054
X10.4269Y-4.8315
X10.4836Y-6.6081
X10.5316Y-4.8168
X10.5882Y-6.5934
X10.6043Y-4.6289
X10.6191Y-3.767
X10.6569Y-5.4996
X10.661Y-6.4055
X10.6676Y-4.6502
X10.7243Y-6.4269
X10.7292Y-3.7696
X10.7669Y-5.5022
X10.8338Y-3.7549
X10.8716Y-5.4875
X10.9065Y-3.567
X10.9443Y-5.2996
X10.9587Y-4.4335
X10.9698Y-3.5884
X10.9989Y-6.1701
X11.0076Y-5.321
X11.0688Y-4.4361
X11.1089Y-6.1728
X11.1683Y-3.1778
X11.1734Y-4.4214
X11.2136Y-6.158
X11.2461Y-4.2335
X11.2783Y-3.1805
X11.2863Y-5.9702
X11.2983Y-5.1
X11.3094Y-4.2549
X11.3496Y-5.9915
X11.383Y-3.1658
X11.4083Y-5.1026
X11.4557Y-2.9779
X11.5079Y-3.8443
X11.513Y-5.0879
X11.519Y-2.9992
X11.5857Y-4.9
X11.6179Y-3.847
X11.642Y-5.7696
X11.649Y-4.9214
X11.7226Y-3.8323
X11.7521Y-5.7723
X11.7953Y-3.6444
X11.8475Y-4.5108
X11.8567Y-5.7576
X11.8586Y-3.6657
X11.9295Y-5.5697
X11.9575Y-4.5135
X11.9928Y-5.591
X12.0622Y-4.4988
X12.0765Y-2.9935
X12.1349Y-4.3109
X12.1859Y-3.0057
X12.1982Y-4.3322
X12.2914Y-3.0002
X12.3567Y-3.687
X12.3802Y-2.8194
X12.4415Y-2.8461
X12.4661Y-3.6993
X12.5716Y-3.6937
X12.6369Y-4.3806
X12.6604Y-3.5129
X12.7217Y-3.5397
X12.7463Y-4.3929
X12.8518Y-4.3873
X12.9406Y-4.2065
X13.0019Y-4.2333
X13.0817Y-3.0612
X13.1888Y-3.0867
X13.2757Y-3.7841
X13.2942Y-3.0941
X13.3828Y-3.8096
X13.4044Y-2.9254
X13.4619Y-2.9595
X13.4696Y-4.5088
X13.4882Y-3.8169
X13.5767Y-4.5343
X13.5984Y-3.6483
X13.6559Y-3.6823
X13.6821Y-4.5416
X13.7923Y-4.373
X13.8499Y-4.407
X13.9052Y-3.2321
X14.0123Y-3.2576
X14.1008Y-3.9568
X14.1177Y-3.265
X14.2079Y-3.9823
X14.2279Y-3.0963
X14.2855Y-3.1304
X14.3133Y-3.9897
X14.4235Y-3.821
X14.481Y-3.8551
T4
X3.2837Y-3.7509
X3.4764Y-3.0291
X3.918Y-4.3109
X4.1098Y-3.5858
X4.3031Y-2.8626
X4.7739Y-4.17
X5.0541Y-3.4764
X5.3343Y-2.7828
X5.5821Y-4.2899
X5.8157Y-5.5266
X5.9217Y-3.6234
X6.1577Y-4.8528
X6.2613Y-2.9569
X6.4602Y-5.9217
X6.4973Y-4.1863
X6.8037Y-5.251
X6.8369Y-3.5198
X7.0846Y-6.3536
X7.1445Y-4.5872
X7.4841Y-3.9207
X8.025Y-7.0608
X8.784Y-7.0607
X9.5449Y-7.0608
X10.0856Y-3.9416
X10.4252Y-4.6081
X10.4819Y-6.3847
X10.7274Y-3.5462
X10.7652Y-5.2788
X11.067Y-4.2127
X11.1072Y-5.9493
X11.2766Y-2.957
X11.4066Y-4.8792
X11.6162Y-3.6235
X11.7504Y-5.5488
X11.9558Y-4.29
X12.2036Y-2.783
X12.4839Y-3.4766
X12.7641Y-4.1701
X13.2336Y-2.8678
X13.4275Y-3.5907
X13.6215Y-4.3153
X14.0571Y-3.0387
X14.2527Y-3.7634
T5
X8.1888Y-5.6296
X8.4396Y-4.0476
X9.6845Y-5.0559
T1
G00X3.1097Y-3.7041
M15
G01X3.0716Y-3.6939
M16
G05
G00X3.3024Y-2.9823
M15
G01X3.2643Y-2.9721
M16
G05
G00X3.496Y-3.8078
M15
G01X3.458Y-3.7976
M16
G05
G00X3.6887Y-3.086
M15
G01X3.6507Y-3.0758
M16
G05
G00X3.7439Y-4.2641
M15
G01X3.7059Y-4.2539
M16
G05
G00X3.9358Y-3.539
M15
G01X3.8977Y-3.5288
M16
G05
G00X4.1291Y-2.8158
M15
G01X4.0911Y-2.8056
M16
G05
G00X4.1303Y-4.3678
M15
G01X4.0922Y-4.3576
M16
G05
G00X4.3221Y-3.6427
M15
G01X4.2841Y-3.6325
M16
G05
G00X4.5154Y-2.9195
M15
G01X4.4774Y-2.9093
M16
G05
G00X4.6068Y-4.1023
M15
G01X4.5703Y-4.0876
M16
G05
G00X4.887Y-3.4088
M15
G01X4.8505Y-3.394
M16
G05
G00X4.9776Y-4.2523
M15
G01X4.9411Y-4.2376
M16
G05
G00X5.1673Y-2.7152
M15
G01X5.1308Y-2.7005
M16
G05
G00X5.2579Y-3.5588
M15
G01X5.2214Y-3.544
M16
G05
G00X5.4216Y-4.208
M15
G01X5.3865Y-4.1901
M16
G05
G00X5.5381Y-2.8652
M15
G01X5.5016Y-2.8504
M16
G05
G00X5.6552Y-5.4446
M15
G01X5.6201Y-5.4267
M16
G05
G00X5.7612Y-3.5415
M15
G01X5.7261Y-3.5236
M16
G05
G00X5.7779Y-4.3897
M15
G01X5.7428Y-4.3719
M16
G05
G00X5.9972Y-4.7709
M15
G01X5.9621Y-4.753
M16
G05
G00X6.0115Y-5.6264
M15
G01X5.9765Y-5.6085
M16
G05
G00X6.1008Y-2.875
M15
G01X6.0657Y-2.8571
M16
G05
G00X6.1175Y-3.7232
M15
G01X6.0824Y-3.7054
M16
G05
G00X6.2997Y-5.8398
M15
G01X6.2646Y-5.8219
M16
G05
G00X6.3368Y-4.1044
M15
G01X6.3017Y-4.0865
M16
G05
G00X6.3535Y-4.9526
M15
G01X6.3184Y-4.9347
M16
G05
G00X6.4571Y-3.0567
M15
G01X6.422Y-3.0389
M16
G05
G00X6.6431Y-5.169
M15
G01X6.6081Y-5.1511
M16
G05
G00X6.656Y-6.0215
M15
G01X6.621Y-6.0037
M16
G05
G00X6.6764Y-3.4379
M15
G01X6.6413Y-3.42
M16
G05
G00X6.6931Y-4.2861
M15
G01X6.658Y-4.2682
M16
G05
G00X6.9241Y-6.2717
M15
G01X6.889Y-6.2538
M16
G05
G00X6.984Y-4.5053
M15
G01X6.9489Y-4.4874
M16
G05
G00X6.9995Y-5.3508
M15
G01X6.9644Y-5.3329
M16
G05
G00X7.0327Y-3.6196
M15
G01X6.9976Y-3.6017
M16
G05
G00X7.2804Y-6.4534
M15
G01X7.2453Y-6.4355
M16
G05
G00X7.3236Y-3.8388
M15
G01X7.2885Y-3.8209
M16
G05
G00X7.3403Y-4.687
M15
G01X7.3052Y-4.6692
M16
G05
G00X7.6799Y-4.0205
M15
G01X7.6448Y-4.0027
M16
G05
G00X7.8448Y-7.0607
M15
G01X7.8054Y-7.0607
M16
G05
G00X8.2448Y-7.0608
M15
G01X8.2054Y-7.0608
M16
G05
G00X8.6038Y-7.0605
M15
G01X8.5645Y-7.0605
M16
G05
G00X9.0038Y-7.0607
M15
G01X8.9645Y-7.0607
M16
G05
G00X9.3647Y-7.0607
M15
G01X9.3253Y-7.0607
M16
G05
G00X9.7647Y-7.0608
M15
G01X9.7253Y-7.0608
M16
G05
G00X9.925Y-4.0233
M15
G01X9.8899Y-4.0411
M16
G05
G00X10.2646Y-4.6898
M15
G01X10.2295Y-4.7076
M16
G05
G00X10.2814Y-3.8418
M15
G01X10.2464Y-3.8597
M16
G05
G00X10.3212Y-6.4664
M15
G01X10.2862Y-6.4843
M16
G05
G00X10.5668Y-3.6279
M15
G01X10.5317Y-3.6458
M16
G05
G00X10.6046Y-5.3605
M15
G01X10.5695Y-5.3784
M16
G05
G00X10.621Y-4.5083
M15
G01X10.586Y-4.5262
M16
G05
G00X10.6777Y-6.2849
M15
G01X10.6426Y-6.3028
M16
G05
G00X10.9064Y-4.2944
M15
G01X10.8713Y-4.3123
M16
G05
G00X10.9233Y-3.4464
M15
G01X10.8882Y-3.4643
M16
G05
G00X10.9466Y-6.031
M15
G01X10.9115Y-6.0489
M16
G05
G00X10.961Y-5.1791
M15
G01X10.926Y-5.1969
M16
G05
G00X11.116Y-3.0387
M15
G01X11.0809Y-3.0566
M16
G05
G00X11.246Y-4.9609
M15
G01X11.2109Y-4.9788
M16
G05
G00X11.2629Y-4.1129
M15
G01X11.2278Y-4.1308
M16
G05
G00X11.3031Y-5.8496
M15
G01X11.268Y-5.8674
M16
G05
G00X11.4556Y-3.7052
M15
G01X11.4205Y-3.7231
M16
G05
G00X11.4725Y-2.8573
M15
G01X11.4374Y-2.8752
M16
G05
G00X11.5898Y-5.6306
M15
G01X11.5547Y-5.6484
M16
G05
G00X11.6025Y-4.7794
M15
G01X11.5674Y-4.7973
M16
G05
G00X11.7952Y-4.3717
M15
G01X11.7601Y-4.3896
M16
G05
G00X11.8121Y-3.5238
M15
G01X11.777Y-3.5417
M16
G05
G00X11.9462Y-5.4491
M15
G01X11.9111Y-5.467
M16
G05
G00X12.0365Y-2.8504
M15
G01X12.0Y-2.8651
M16
G05
G00X12.1517Y-4.1903
M15
G01X12.1166Y-4.2082
M16
G05
G00X12.3167Y-3.5439
M15
G01X12.2802Y-3.5587
M16
G05
G00X12.4074Y-2.7007
M15
G01X12.3709Y-2.7154
M16
G05
G00X12.5969Y-4.2375
M15
G01X12.5604Y-4.2523
M16
G05
G00X12.6876Y-3.3942
M15
G01X12.6511Y-3.409
M16
G05
G00X12.9679Y-4.0878
M15
G01X12.9314Y-4.1026
M16
G05
G00X13.0595Y-2.9143
M15
G01X13.0214Y-2.9245
M16
G05
G00X13.2534Y-3.6372
M15
G01X13.2154Y-3.6474
M16
G05
G00X13.4459Y-2.811
M15
G01X13.4079Y-2.8211
M16
G05
G00X13.4474Y-4.3619
M15
G01X13.4094Y-4.3721
M16
G05
G00X13.6398Y-3.5338
M15
G01X13.6018Y-3.544
M16
G05
G00X13.8338Y-4.2585
M15
G01X13.7958Y-4.2687
M16
G05
G00X13.883Y-3.0852
M15
G01X13.845Y-3.0954
M16
G05
G00X14.0786Y-3.8099
M15
G01X14.0405Y-3.8201
M16
G05
G00X14.2694Y-2.9819
M15
G01X14.2314Y-2.9921
M16
G05
G00X14.465Y-3.7065
M15
G01X14.427Y-3.7167
M16
G05
T0
M30
