%FSLAX45Y45*%
G04 Gerber Fmt 4.5, Leading zero omitted, Abs format (unit mm)*
G04 Created by KiCad (PCBNEW (6.0.4-0)) date 2022-04-27 15:29:06*
%MOMM*%
%LPD*%
G01*
G04 APERTURE LIST*
%TA.AperFunction,Profile*%
%ADD10C,0.150000*%
%TD*%
%ADD11C,0.200000*%
%ADD12C,0.090000*%
%ADD13C,0.170180*%
%ADD14C,0.300000*%
%ADD15C,0.342900*%
G04 APERTURE END LIST*
D10*
X10251727Y11883106D02*
G75*
G03*
X10450959Y11700537I199233J17424D01*
G01*
X8058800Y11611548D02*
G75*
G03*
X8223309Y11825945I-34731J196962D01*
G01*
X16255999Y4318001D02*
G75*
G03*
X16441109Y4826000I-1013319J656969D01*
G01*
X6012082Y11047576D02*
X6257677Y9654738D01*
X11692239Y4180264D02*
X7614896Y4246738D01*
X8383412Y12290698D02*
X9997248Y12431891D01*
X5559296Y3903629D02*
G75*
G03*
X5809038Y3770844I191264J58481D01*
G01*
X5809038Y3770844D02*
X7151887Y4181395D01*
X12620653Y11496648D02*
X14451046Y11496648D01*
X16241109Y11496648D02*
X14451046Y11496648D01*
X10450959Y11700537D02*
X12420716Y11691648D01*
X7614896Y4246737D02*
G75*
G03*
X7151887Y4181395I-24457J-1499797D01*
G01*
X4120834Y8608651D02*
X5559303Y3903631D01*
X10213921Y12250083D02*
G75*
G03*
X9997248Y12431891I-199241J-17433D01*
G01*
X6174314Y11279267D02*
G75*
G03*
X6012083Y11047576I34730J-196961D01*
G01*
X15494000Y3048000D02*
X16256000Y4318000D01*
X14144690Y3452157D02*
G75*
G03*
X11692239Y4180264I-2854290J-5119687D01*
G01*
X15069520Y2866125D02*
X14144690Y3452156D01*
X12620656Y11496648D02*
G75*
G03*
X12420716Y11691648I-199936J-4998D01*
G01*
X15069519Y2866121D02*
G75*
G03*
X15494000Y3048000I112141J324559D01*
G01*
X4253621Y8858386D02*
G75*
G03*
X4120834Y8608650I58475J-191261D01*
G01*
X10213918Y12250083D02*
X10251720Y11883106D01*
X6174314Y11279267D02*
X8058800Y11611553D01*
X6119189Y9428752D02*
G75*
G03*
X6257677Y9654738I-58469J191258D01*
G01*
X8383413Y12290696D02*
G75*
G03*
X8201605Y12074028I17427J-199236D01*
G01*
X4253621Y8858386D02*
X6119190Y9428748D01*
X8223309Y11825945D02*
X8201605Y12074028D01*
X16441108Y11296648D02*
G75*
G03*
X16241109Y11496648I-199998J2D01*
G01*
X16441109Y4826000D02*
X16441109Y11296648D01*
D11*
D12*
X16196109Y7526648D02*
X16286109Y7436648D01*
X16286109Y7526648D02*
X16196109Y7436648D01*
X16196109Y7226648D02*
X16286109Y7136648D01*
X16286109Y7226648D02*
X16196109Y7136648D01*
D13*
X4868027Y8016350D02*
G75*
G03*
X4868027Y8016350I-85090J0D01*
G01*
X4868027Y8016350D02*
G75*
G03*
X4868027Y8016350I-85090J0D01*
G01*
X5365059Y6390632D02*
G75*
G03*
X5365059Y6390632I-85090J0D01*
G01*
X5365059Y6390632D02*
G75*
G03*
X5365059Y6390632I-85090J0D01*
G01*
X5862090Y4764914D02*
G75*
G03*
X5862090Y4764914I-85090J0D01*
G01*
X5862090Y4764914D02*
G75*
G03*
X5862090Y4764914I-85090J0D01*
G01*
X5919962Y8337959D02*
G75*
G03*
X5919962Y8337959I-85090J0D01*
G01*
X5919962Y8337959D02*
G75*
G03*
X5919962Y8337959I-85090J0D01*
G01*
X6416994Y6712241D02*
G75*
G03*
X6416994Y6712241I-85090J0D01*
G01*
X6416994Y6712241D02*
G75*
G03*
X6416994Y6712241I-85090J0D01*
G01*
X6682157Y10379000D02*
G75*
G03*
X6682157Y10379000I-85090J0D01*
G01*
X6682157Y10379000D02*
G75*
G03*
X6682157Y10379000I-85090J0D01*
G01*
X6914026Y5086523D02*
G75*
G03*
X6914026Y5086523I-85090J0D01*
G01*
X6914026Y5086523D02*
G75*
G03*
X6914026Y5086523I-85090J0D01*
G01*
X6977359Y8704827D02*
G75*
G03*
X6977359Y8704827I-85090J0D01*
G01*
X6977359Y8704827D02*
G75*
G03*
X6977359Y8704827I-85090J0D01*
G01*
X7272560Y7030654D02*
G75*
G03*
X7272560Y7030654I-85090J0D01*
G01*
X7272560Y7030654D02*
G75*
G03*
X7272560Y7030654I-85090J0D01*
G01*
X7765445Y10570013D02*
G75*
G03*
X7765445Y10570013I-85090J0D01*
G01*
X7765445Y10570013D02*
G75*
G03*
X7765445Y10570013I-85090J0D01*
G01*
X8060647Y8895840D02*
G75*
G03*
X8060647Y8895840I-85090J0D01*
G01*
X8060647Y8895840D02*
G75*
G03*
X8060647Y8895840I-85090J0D01*
G01*
X8355849Y7221667D02*
G75*
G03*
X8355849Y7221667I-85090J0D01*
G01*
X8355849Y7221667D02*
G75*
G03*
X8355849Y7221667I-85090J0D01*
G01*
X8811183Y11357012D02*
G75*
G03*
X8811183Y11357012I-85090J0D01*
G01*
X8811183Y11357012D02*
G75*
G03*
X8811183Y11357012I-85090J0D01*
G01*
X8959347Y9663481D02*
G75*
G03*
X8959347Y9663481I-85090J0D01*
G01*
X8959347Y9663481D02*
G75*
G03*
X8959347Y9663481I-85090J0D01*
G01*
X9107512Y7969950D02*
G75*
G03*
X9107512Y7969950I-85090J0D01*
G01*
X9107512Y7969950D02*
G75*
G03*
X9107512Y7969950I-85090J0D01*
G01*
X9906997Y11452883D02*
G75*
G03*
X9906997Y11452883I-85090J0D01*
G01*
X9906997Y11452883D02*
G75*
G03*
X9906997Y11452883I-85090J0D01*
G01*
X10055161Y9759352D02*
G75*
G03*
X10055161Y9759352I-85090J0D01*
G01*
X10055161Y9759352D02*
G75*
G03*
X10055161Y9759352I-85090J0D01*
G01*
X10203326Y8065821D02*
G75*
G03*
X10203326Y8065821I-85090J0D01*
G01*
X10203326Y8065821D02*
G75*
G03*
X10203326Y8065821I-85090J0D01*
G01*
X11076199Y10668602D02*
G75*
G03*
X11076199Y10668602I-85090J0D01*
G01*
X11076199Y10668602D02*
G75*
G03*
X11076199Y10668602I-85090J0D01*
G01*
X11076199Y8968602D02*
G75*
G03*
X11076199Y8968602I-85090J0D01*
G01*
X11076199Y8968602D02*
G75*
G03*
X11076199Y8968602I-85090J0D01*
G01*
X11076199Y7268602D02*
G75*
G03*
X11076199Y7268602I-85090J0D01*
G01*
X11076199Y7268602D02*
G75*
G03*
X11076199Y7268602I-85090J0D01*
G01*
X12176199Y10668602D02*
G75*
G03*
X12176199Y10668602I-85090J0D01*
G01*
X12176199Y10668602D02*
G75*
G03*
X12176199Y10668602I-85090J0D01*
G01*
X12176199Y8968602D02*
G75*
G03*
X12176199Y8968602I-85090J0D01*
G01*
X12176199Y8968602D02*
G75*
G03*
X12176199Y8968602I-85090J0D01*
G01*
X12176199Y7268602D02*
G75*
G03*
X12176199Y7268602I-85090J0D01*
G01*
X12176199Y7268602D02*
G75*
G03*
X12176199Y7268602I-85090J0D01*
G01*
X12631219Y5046224D02*
G75*
G03*
X12631219Y5046224I-85090J0D01*
G01*
X12631219Y5046224D02*
G75*
G03*
X12631219Y5046224I-85090J0D01*
G01*
X12972866Y10524629D02*
G75*
G03*
X12972866Y10524629I-85090J0D01*
G01*
X12972866Y10524629D02*
G75*
G03*
X12972866Y10524629I-85090J0D01*
G01*
X12972866Y8824629D02*
G75*
G03*
X12972866Y8824629I-85090J0D01*
G01*
X12972866Y8824629D02*
G75*
G03*
X12972866Y8824629I-85090J0D01*
G01*
X12972866Y7124629D02*
G75*
G03*
X12972866Y7124629I-85090J0D01*
G01*
X12972866Y7124629D02*
G75*
G03*
X12972866Y7124629I-85090J0D01*
G01*
X13693737Y4761523D02*
G75*
G03*
X13693737Y4761523I-85090J0D01*
G01*
X13693737Y4761523D02*
G75*
G03*
X13693737Y4761523I-85090J0D01*
G01*
X14072866Y10524629D02*
G75*
G03*
X14072866Y10524629I-85090J0D01*
G01*
X14072866Y10524629D02*
G75*
G03*
X14072866Y10524629I-85090J0D01*
G01*
X14072866Y8824629D02*
G75*
G03*
X14072866Y8824629I-85090J0D01*
G01*
X14072866Y8824629D02*
G75*
G03*
X14072866Y8824629I-85090J0D01*
G01*
X14072866Y7124629D02*
G75*
G03*
X14072866Y7124629I-85090J0D01*
G01*
X14072866Y7124629D02*
G75*
G03*
X14072866Y7124629I-85090J0D01*
G01*
X14539924Y4411021D02*
G75*
G03*
X14539924Y4411021I-85090J0D01*
G01*
X14539924Y4411021D02*
G75*
G03*
X14539924Y4411021I-85090J0D01*
G01*
X15492552Y3861021D02*
G75*
G03*
X15492552Y3861021I-85090J0D01*
G01*
X15492552Y3861021D02*
G75*
G03*
X15492552Y3861021I-85090J0D01*
G01*
D14*
X4721113Y8539583D02*
X4721113Y8239583D01*
X4571113Y8389583D02*
X4871113Y8389583D01*
X5134943Y8896156D02*
X5134943Y8596156D01*
X4984943Y8746156D02*
X5284943Y8746156D01*
X5134943Y8896156D02*
X5134943Y8596156D01*
X4984943Y8746156D02*
X5284943Y8746156D01*
X5218144Y6913865D02*
X5218144Y6613865D01*
X5068144Y6763865D02*
X5368144Y6763865D01*
X5631975Y7270437D02*
X5631975Y6970437D01*
X5481975Y7120437D02*
X5781975Y7120437D01*
X5631975Y7270437D02*
X5631975Y6970437D01*
X5481975Y7120437D02*
X5781975Y7120437D01*
X5677417Y8831954D02*
X5677417Y8531954D01*
X5527417Y8681954D02*
X5827417Y8681954D01*
X5715176Y5288147D02*
X5715176Y4988147D01*
X5565176Y5138147D02*
X5865176Y5138147D01*
X6129007Y5644719D02*
X6129007Y5344719D01*
X5979007Y5494719D02*
X6279007Y5494719D01*
X6129007Y5644719D02*
X6129007Y5344719D01*
X5979007Y5494719D02*
X6279007Y5494719D01*
X6174449Y7206236D02*
X6174449Y6906236D01*
X6024449Y7056236D02*
X6324449Y7056236D01*
X6581189Y10906986D02*
X6581189Y10606986D01*
X6431189Y10756986D02*
X6731189Y10756986D01*
X6671481Y5580518D02*
X6671481Y5280518D01*
X6521481Y5430518D02*
X6821481Y5430518D01*
X6876391Y9232812D02*
X6876391Y8932812D01*
X6726391Y9082812D02*
X7026391Y9082812D01*
X7035390Y11210467D02*
X7035390Y10910467D01*
X6885390Y11060467D02*
X7185390Y11060467D01*
X7035390Y11210467D02*
X7035390Y10910467D01*
X6885390Y11060467D02*
X7185390Y11060467D01*
X7171593Y7558639D02*
X7171593Y7258639D01*
X7021593Y7408639D02*
X7321593Y7408639D01*
X7330592Y9536294D02*
X7330592Y9236294D01*
X7180592Y9386294D02*
X7480592Y9386294D01*
X7330592Y9536294D02*
X7330592Y9236294D01*
X7180592Y9386294D02*
X7480592Y9386294D01*
X7565997Y11080634D02*
X7565997Y10780634D01*
X7415997Y10930634D02*
X7715997Y10930634D01*
X7625794Y7862121D02*
X7625794Y7562121D01*
X7475794Y7712121D02*
X7775794Y7712121D01*
X7625794Y7862121D02*
X7625794Y7562121D01*
X7475794Y7712121D02*
X7775794Y7712121D01*
X7861199Y9406461D02*
X7861199Y9106461D01*
X7711199Y9256461D02*
X8011199Y9256461D01*
X8156401Y7732287D02*
X8156401Y7432287D01*
X8006401Y7582287D02*
X8306401Y7582287D01*
X8743219Y11884943D02*
X8743219Y11584943D01*
X8593219Y11734943D02*
X8893219Y11734943D01*
X8891384Y10191412D02*
X8891384Y9891412D01*
X8741384Y10041412D02*
X9041384Y10041412D01*
X9039548Y8497881D02*
X9039548Y8197881D01*
X8889548Y8347881D02*
X9189548Y8347881D01*
X9222142Y12147683D02*
X9222142Y11847683D01*
X9072142Y11997683D02*
X9372142Y11997683D01*
X9222142Y12147683D02*
X9222142Y11847683D01*
X9072142Y11997683D02*
X9372142Y11997683D01*
X9370307Y10454153D02*
X9370307Y10154153D01*
X9220307Y10304153D02*
X9520307Y10304153D01*
X9370307Y10454153D02*
X9370307Y10154153D01*
X9220307Y10304153D02*
X9520307Y10304153D01*
X9518471Y8760622D02*
X9518471Y8460622D01*
X9368471Y8610622D02*
X9668471Y8610622D01*
X9518471Y8760622D02*
X9518471Y8460622D01*
X9368471Y8610622D02*
X9668471Y8610622D01*
X9739414Y11972099D02*
X9739414Y11672099D01*
X9589414Y11822099D02*
X9889414Y11822099D01*
X9887578Y10278568D02*
X9887578Y9978568D01*
X9737578Y10128568D02*
X10037578Y10128568D01*
X10035743Y8585037D02*
X10035743Y8285037D01*
X9885743Y8435037D02*
X10185743Y8435037D01*
X11041109Y11193602D02*
X11041109Y10893602D01*
X10891109Y11043602D02*
X11191109Y11043602D01*
X11041109Y9493602D02*
X11041109Y9193602D01*
X10891109Y9343602D02*
X11191109Y9343602D01*
X11041109Y7793602D02*
X11041109Y7493602D01*
X10891109Y7643602D02*
X11191109Y7643602D01*
X11541109Y11413602D02*
X11541109Y11113602D01*
X11391109Y11263602D02*
X11691109Y11263602D01*
X11541109Y11413602D02*
X11541109Y11113602D01*
X11391109Y11263602D02*
X11691109Y11263602D01*
X11541109Y9713602D02*
X11541109Y9413602D01*
X11391109Y9563602D02*
X11691109Y9563602D01*
X11541109Y9713602D02*
X11541109Y9413602D01*
X11391109Y9563602D02*
X11691109Y9563602D01*
X11541109Y8013602D02*
X11541109Y7713602D01*
X11391109Y7863602D02*
X11691109Y7863602D01*
X11541109Y8013602D02*
X11541109Y7713602D01*
X11391109Y7863602D02*
X11691109Y7863602D01*
X12041109Y11193602D02*
X12041109Y10893602D01*
X11891109Y11043602D02*
X12191109Y11043602D01*
X12041109Y9493602D02*
X12041109Y9193602D01*
X11891109Y9343602D02*
X12191109Y9343602D01*
X12041109Y7793602D02*
X12041109Y7493602D01*
X11891109Y7643602D02*
X12191109Y7643602D01*
X12691482Y5545506D02*
X12691482Y5245506D01*
X12541482Y5395506D02*
X12841482Y5395506D01*
X12937776Y11049629D02*
X12937776Y10749629D01*
X12787776Y10899629D02*
X13087776Y10899629D01*
X12937776Y9349629D02*
X12937776Y9049629D01*
X12787776Y9199629D02*
X13087776Y9199629D01*
X12937776Y7649629D02*
X12937776Y7349629D01*
X12787776Y7499629D02*
X13087776Y7499629D01*
X13231386Y5628600D02*
X13231386Y5328600D01*
X13081386Y5478600D02*
X13381386Y5478600D01*
X13231386Y5628600D02*
X13231386Y5328600D01*
X13081386Y5478600D02*
X13381386Y5478600D01*
X13437776Y11269629D02*
X13437776Y10969629D01*
X13287776Y11119629D02*
X13587776Y11119629D01*
X13437776Y11269629D02*
X13437776Y10969629D01*
X13287776Y11119629D02*
X13587776Y11119629D01*
X13437776Y9569629D02*
X13437776Y9269629D01*
X13287776Y9419629D02*
X13587776Y9419629D01*
X13437776Y9569629D02*
X13437776Y9269629D01*
X13287776Y9419629D02*
X13587776Y9419629D01*
X13437776Y7869629D02*
X13437776Y7569629D01*
X13287776Y7719629D02*
X13587776Y7719629D01*
X13437776Y7869629D02*
X13437776Y7569629D01*
X13287776Y7719629D02*
X13587776Y7719629D01*
X13657408Y5286687D02*
X13657408Y4986687D01*
X13507408Y5136687D02*
X13807408Y5136687D01*
X13937776Y11049629D02*
X13937776Y10749629D01*
X13787776Y10899629D02*
X14087776Y10899629D01*
X13937776Y9349629D02*
X13937776Y9049629D01*
X13787776Y9199629D02*
X14087776Y9199629D01*
X13937776Y7649629D02*
X13937776Y7349629D01*
X13787776Y7499629D02*
X14087776Y7499629D01*
X14685635Y4860781D02*
X14685635Y4560781D01*
X14535635Y4710781D02*
X14835635Y4710781D01*
X15228648Y4801306D02*
X15228648Y4501306D01*
X15078648Y4651306D02*
X15378648Y4651306D01*
X15228648Y4801306D02*
X15228648Y4501306D01*
X15078648Y4651306D02*
X15378648Y4651306D01*
X15551661Y4360781D02*
X15551661Y4060781D01*
X15401661Y4210781D02*
X15701661Y4210781D01*
D15*
X5430139Y8055920D02*
X5430139Y8298389D01*
X5187670Y8298389D01*
X5187670Y8055920D01*
X5430139Y8055920D01*
X5430139Y8055920D02*
X5430139Y8298389D01*
X5187670Y8298389D01*
X5187670Y8055920D01*
X5430139Y8055920D01*
X5927171Y6430202D02*
X5927171Y6672671D01*
X5684702Y6672671D01*
X5684702Y6430202D01*
X5927171Y6430202D01*
X5927171Y6430202D02*
X5927171Y6672671D01*
X5684702Y6672671D01*
X5684702Y6430202D01*
X5927171Y6430202D01*
X6424203Y4804484D02*
X6424203Y5046953D01*
X6181733Y5046953D01*
X6181733Y4804484D01*
X6424203Y4804484D01*
X6424203Y4804484D02*
X6424203Y5046953D01*
X6181733Y5046953D01*
X6181733Y4804484D01*
X6424203Y4804484D01*
X7259946Y10353272D02*
X7259946Y10595741D01*
X7017476Y10595741D01*
X7017476Y10353272D01*
X7259946Y10353272D01*
X7259946Y10353272D02*
X7259946Y10595741D01*
X7017476Y10595741D01*
X7017476Y10353272D01*
X7259946Y10353272D01*
X7555147Y8679099D02*
X7555147Y8921568D01*
X7312678Y8921568D01*
X7312678Y8679099D01*
X7555147Y8679099D01*
X7555147Y8679099D02*
X7555147Y8921568D01*
X7312678Y8921568D01*
X7312678Y8679099D01*
X7555147Y8679099D01*
X7850349Y7004926D02*
X7850349Y7247395D01*
X7607880Y7247395D01*
X7607880Y7004926D01*
X7850349Y7004926D01*
X7850349Y7004926D02*
X7850349Y7247395D01*
X7607880Y7247395D01*
X7607880Y7004926D01*
X7850349Y7004926D01*
X9395234Y11283713D02*
X9395234Y11526182D01*
X9152765Y11526182D01*
X9152765Y11283713D01*
X9395234Y11283713D01*
X9395234Y11283713D02*
X9395234Y11526182D01*
X9152765Y11526182D01*
X9152765Y11283713D01*
X9395234Y11283713D01*
X9543399Y9590182D02*
X9543399Y9832651D01*
X9300930Y9832651D01*
X9300930Y9590182D01*
X9543399Y9590182D01*
X9543399Y9590182D02*
X9543399Y9832651D01*
X9300930Y9832651D01*
X9300930Y9590182D01*
X9543399Y9590182D01*
X9691564Y7896651D02*
X9691564Y8139120D01*
X9449095Y8139120D01*
X9449095Y7896651D01*
X9691564Y7896651D01*
X9691564Y7896651D02*
X9691564Y8139120D01*
X9449095Y8139120D01*
X9449095Y7896651D01*
X9691564Y7896651D01*
X11662343Y10547367D02*
X11662343Y10789836D01*
X11419874Y10789836D01*
X11419874Y10547367D01*
X11662343Y10547367D01*
X11662343Y10547367D02*
X11662343Y10789836D01*
X11419874Y10789836D01*
X11419874Y10547367D01*
X11662343Y10547367D01*
X11662343Y8847367D02*
X11662343Y9089836D01*
X11419874Y9089836D01*
X11419874Y8847367D01*
X11662343Y8847367D01*
X11662343Y8847367D02*
X11662343Y9089836D01*
X11419874Y9089836D01*
X11419874Y8847367D01*
X11662343Y8847367D01*
X11662343Y7147367D02*
X11662343Y7389836D01*
X11419874Y7389836D01*
X11419874Y7147367D01*
X11662343Y7147367D01*
X11662343Y7147367D02*
X11662343Y7389836D01*
X11419874Y7389836D01*
X11419874Y7147367D01*
X11662343Y7147367D01*
X13198623Y4782639D02*
X13198623Y5025108D01*
X12956154Y5025108D01*
X12956154Y4782639D01*
X13198623Y4782639D01*
X13198623Y4782639D02*
X13198623Y5025108D01*
X12956154Y5025108D01*
X12956154Y4782639D01*
X13198623Y4782639D01*
X13559010Y10403394D02*
X13559010Y10645864D01*
X13316541Y10645864D01*
X13316541Y10403394D01*
X13559010Y10403394D01*
X13559010Y10403394D02*
X13559010Y10645864D01*
X13316541Y10645864D01*
X13316541Y10403394D01*
X13559010Y10403394D01*
X13559010Y8703394D02*
X13559010Y8945864D01*
X13316541Y8945864D01*
X13316541Y8703394D01*
X13559010Y8703394D01*
X13559010Y8703394D02*
X13559010Y8945864D01*
X13316541Y8945864D01*
X13316541Y8703394D01*
X13559010Y8703394D01*
X13559010Y7003394D02*
X13559010Y7245863D01*
X13316541Y7245863D01*
X13316541Y7003394D01*
X13559010Y7003394D01*
X13559010Y7003394D02*
X13559010Y7245863D01*
X13316541Y7245863D01*
X13316541Y7003394D01*
X13559010Y7003394D01*
X15052383Y4014787D02*
X15052383Y4257256D01*
X14809914Y4257256D01*
X14809914Y4014787D01*
X15052383Y4014787D01*
X15052383Y4014787D02*
X15052383Y4257256D01*
X14809914Y4257256D01*
X14809914Y4014787D01*
X15052383Y4014787D01*
D11*
X4362214Y2529318D02*
X4362214Y2729318D01*
X4409833Y2729318D01*
X4438405Y2719794D01*
X4457452Y2700746D01*
X4466976Y2681699D01*
X4476500Y2643604D01*
X4476500Y2615032D01*
X4466976Y2576937D01*
X4457452Y2557889D01*
X4438405Y2538842D01*
X4409833Y2529318D01*
X4362214Y2529318D01*
X4562214Y2529318D02*
X4562214Y2662651D01*
X4562214Y2624556D02*
X4571738Y2643604D01*
X4581262Y2653127D01*
X4600309Y2662651D01*
X4619357Y2662651D01*
X4686024Y2529318D02*
X4686024Y2662651D01*
X4686024Y2729318D02*
X4676500Y2719794D01*
X4686024Y2710270D01*
X4695547Y2719794D01*
X4686024Y2729318D01*
X4686024Y2710270D01*
X4809833Y2529318D02*
X4790785Y2538842D01*
X4781262Y2557889D01*
X4781262Y2729318D01*
X4914595Y2529318D02*
X4895547Y2538842D01*
X4886024Y2557889D01*
X4886024Y2729318D01*
X5143166Y2529318D02*
X5143166Y2729318D01*
X5209833Y2586461D01*
X5276500Y2729318D01*
X5276500Y2529318D01*
X5457452Y2529318D02*
X5457452Y2634080D01*
X5447928Y2653127D01*
X5428881Y2662651D01*
X5390785Y2662651D01*
X5371738Y2653127D01*
X5457452Y2538842D02*
X5438405Y2529318D01*
X5390785Y2529318D01*
X5371738Y2538842D01*
X5362214Y2557889D01*
X5362214Y2576937D01*
X5371738Y2595985D01*
X5390785Y2605508D01*
X5438405Y2605508D01*
X5457452Y2615032D01*
X5552690Y2662651D02*
X5552690Y2462651D01*
X5552690Y2653127D02*
X5571738Y2662651D01*
X5609833Y2662651D01*
X5628881Y2653127D01*
X5638404Y2643604D01*
X5647928Y2624556D01*
X5647928Y2567413D01*
X5638404Y2548366D01*
X5628881Y2538842D01*
X5609833Y2529318D01*
X5571738Y2529318D01*
X5552690Y2538842D01*
X5733643Y2548366D02*
X5743166Y2538842D01*
X5733643Y2529318D01*
X5724119Y2538842D01*
X5733643Y2548366D01*
X5733643Y2529318D01*
X5733643Y2653127D02*
X5743166Y2643604D01*
X5733643Y2634080D01*
X5724119Y2643604D01*
X5733643Y2653127D01*
X5733643Y2634080D01*
D12*
X4014595Y2244794D02*
X4104595Y2154794D01*
X4104595Y2244794D02*
X4014595Y2154794D01*
D11*
X4400309Y2309318D02*
X4419357Y2309318D01*
X4438405Y2299794D01*
X4447928Y2290270D01*
X4457452Y2271223D01*
X4466976Y2233127D01*
X4466976Y2185508D01*
X4457452Y2147413D01*
X4447928Y2128366D01*
X4438405Y2118842D01*
X4419357Y2109318D01*
X4400309Y2109318D01*
X4381262Y2118842D01*
X4371738Y2128366D01*
X4362214Y2147413D01*
X4352690Y2185508D01*
X4352690Y2233127D01*
X4362214Y2271223D01*
X4371738Y2290270D01*
X4381262Y2299794D01*
X4400309Y2309318D01*
X4552690Y2128366D02*
X4562214Y2118842D01*
X4552690Y2109318D01*
X4543166Y2118842D01*
X4552690Y2128366D01*
X4552690Y2109318D01*
X4657452Y2109318D02*
X4695547Y2109318D01*
X4714595Y2118842D01*
X4724119Y2128366D01*
X4743166Y2156937D01*
X4752690Y2195032D01*
X4752690Y2271223D01*
X4743166Y2290270D01*
X4733643Y2299794D01*
X4714595Y2309318D01*
X4676500Y2309318D01*
X4657452Y2299794D01*
X4647928Y2290270D01*
X4638405Y2271223D01*
X4638405Y2223604D01*
X4647928Y2204556D01*
X4657452Y2195032D01*
X4676500Y2185508D01*
X4714595Y2185508D01*
X4733643Y2195032D01*
X4743166Y2204556D01*
X4752690Y2223604D01*
X4876500Y2309318D02*
X4895547Y2309318D01*
X4914595Y2299794D01*
X4924119Y2290270D01*
X4933643Y2271223D01*
X4943166Y2233127D01*
X4943166Y2185508D01*
X4933643Y2147413D01*
X4924119Y2128366D01*
X4914595Y2118842D01*
X4895547Y2109318D01*
X4876500Y2109318D01*
X4857452Y2118842D01*
X4847928Y2128366D01*
X4838405Y2147413D01*
X4828881Y2185508D01*
X4828881Y2233127D01*
X4838405Y2271223D01*
X4847928Y2290270D01*
X4857452Y2299794D01*
X4876500Y2309318D01*
X5066976Y2309318D02*
X5086024Y2309318D01*
X5105071Y2299794D01*
X5114595Y2290270D01*
X5124119Y2271223D01*
X5133643Y2233127D01*
X5133643Y2185508D01*
X5124119Y2147413D01*
X5114595Y2128366D01*
X5105071Y2118842D01*
X5086024Y2109318D01*
X5066976Y2109318D01*
X5047928Y2118842D01*
X5038405Y2128366D01*
X5028881Y2147413D01*
X5019357Y2185508D01*
X5019357Y2233127D01*
X5028881Y2271223D01*
X5038405Y2290270D01*
X5047928Y2299794D01*
X5066976Y2309318D01*
X5219357Y2109318D02*
X5219357Y2242651D01*
X5219357Y2223604D02*
X5228881Y2233127D01*
X5247928Y2242651D01*
X5276500Y2242651D01*
X5295547Y2233127D01*
X5305071Y2214080D01*
X5305071Y2109318D01*
X5305071Y2214080D02*
X5314595Y2233127D01*
X5333643Y2242651D01*
X5362214Y2242651D01*
X5381262Y2233127D01*
X5390785Y2214080D01*
X5390785Y2109318D01*
X5486024Y2109318D02*
X5486024Y2242651D01*
X5486024Y2223604D02*
X5495547Y2233127D01*
X5514595Y2242651D01*
X5543166Y2242651D01*
X5562214Y2233127D01*
X5571738Y2214080D01*
X5571738Y2109318D01*
X5571738Y2214080D02*
X5581262Y2233127D01*
X5600309Y2242651D01*
X5628881Y2242651D01*
X5647928Y2233127D01*
X5657452Y2214080D01*
X5657452Y2109318D01*
X6047928Y2318842D02*
X5876500Y2061699D01*
X6305071Y2309318D02*
X6324119Y2309318D01*
X6343166Y2299794D01*
X6352690Y2290270D01*
X6362214Y2271223D01*
X6371738Y2233127D01*
X6371738Y2185508D01*
X6362214Y2147413D01*
X6352690Y2128366D01*
X6343166Y2118842D01*
X6324119Y2109318D01*
X6305071Y2109318D01*
X6286023Y2118842D01*
X6276500Y2128366D01*
X6266976Y2147413D01*
X6257452Y2185508D01*
X6257452Y2233127D01*
X6266976Y2271223D01*
X6276500Y2290270D01*
X6286023Y2299794D01*
X6305071Y2309318D01*
X6457452Y2128366D02*
X6466976Y2118842D01*
X6457452Y2109318D01*
X6447928Y2118842D01*
X6457452Y2128366D01*
X6457452Y2109318D01*
X6590785Y2309318D02*
X6609833Y2309318D01*
X6628881Y2299794D01*
X6638404Y2290270D01*
X6647928Y2271223D01*
X6657452Y2233127D01*
X6657452Y2185508D01*
X6647928Y2147413D01*
X6638404Y2128366D01*
X6628881Y2118842D01*
X6609833Y2109318D01*
X6590785Y2109318D01*
X6571738Y2118842D01*
X6562214Y2128366D01*
X6552690Y2147413D01*
X6543166Y2185508D01*
X6543166Y2233127D01*
X6552690Y2271223D01*
X6562214Y2290270D01*
X6571738Y2299794D01*
X6590785Y2309318D01*
X6724119Y2309318D02*
X6847928Y2309318D01*
X6781262Y2233127D01*
X6809833Y2233127D01*
X6828881Y2223604D01*
X6838404Y2214080D01*
X6847928Y2195032D01*
X6847928Y2147413D01*
X6838404Y2128366D01*
X6828881Y2118842D01*
X6809833Y2109318D01*
X6752690Y2109318D01*
X6733643Y2118842D01*
X6724119Y2128366D01*
X7028881Y2309318D02*
X6933643Y2309318D01*
X6924119Y2214080D01*
X6933643Y2223604D01*
X6952690Y2233127D01*
X7000309Y2233127D01*
X7019357Y2223604D01*
X7028881Y2214080D01*
X7038404Y2195032D01*
X7038404Y2147413D01*
X7028881Y2128366D01*
X7019357Y2118842D01*
X7000309Y2109318D01*
X6952690Y2109318D01*
X6933643Y2118842D01*
X6924119Y2128366D01*
X7209833Y2242651D02*
X7209833Y2109318D01*
X7162214Y2318842D02*
X7114595Y2175985D01*
X7238404Y2175985D01*
X7305071Y2309318D02*
X7305071Y2271223D01*
X7381262Y2309318D02*
X7381262Y2271223D01*
X7676500Y2033127D02*
X7666976Y2042651D01*
X7647928Y2071223D01*
X7638404Y2090270D01*
X7628881Y2118842D01*
X7619357Y2166461D01*
X7619357Y2204556D01*
X7628881Y2252175D01*
X7638404Y2280746D01*
X7647928Y2299794D01*
X7666976Y2328366D01*
X7676500Y2337889D01*
X7743166Y2290270D02*
X7752690Y2299794D01*
X7771738Y2309318D01*
X7819357Y2309318D01*
X7838404Y2299794D01*
X7847928Y2290270D01*
X7857452Y2271223D01*
X7857452Y2252175D01*
X7847928Y2223604D01*
X7733643Y2109318D01*
X7857452Y2109318D01*
X8095547Y2109318D02*
X8095547Y2309318D01*
X8181262Y2109318D02*
X8181262Y2214080D01*
X8171738Y2233127D01*
X8152690Y2242651D01*
X8124119Y2242651D01*
X8105071Y2233127D01*
X8095547Y2223604D01*
X8305071Y2109318D02*
X8286023Y2118842D01*
X8276500Y2128366D01*
X8266976Y2147413D01*
X8266976Y2204556D01*
X8276500Y2223604D01*
X8286023Y2233127D01*
X8305071Y2242651D01*
X8333643Y2242651D01*
X8352690Y2233127D01*
X8362214Y2223604D01*
X8371738Y2204556D01*
X8371738Y2147413D01*
X8362214Y2128366D01*
X8352690Y2118842D01*
X8333643Y2109318D01*
X8305071Y2109318D01*
X8486024Y2109318D02*
X8466976Y2118842D01*
X8457452Y2137889D01*
X8457452Y2309318D01*
X8638405Y2118842D02*
X8619357Y2109318D01*
X8581262Y2109318D01*
X8562214Y2118842D01*
X8552690Y2137889D01*
X8552690Y2214080D01*
X8562214Y2233127D01*
X8581262Y2242651D01*
X8619357Y2242651D01*
X8638405Y2233127D01*
X8647928Y2214080D01*
X8647928Y2195032D01*
X8552690Y2175985D01*
X8724119Y2118842D02*
X8743166Y2109318D01*
X8781262Y2109318D01*
X8800309Y2118842D01*
X8809833Y2137889D01*
X8809833Y2147413D01*
X8800309Y2166461D01*
X8781262Y2175985D01*
X8752690Y2175985D01*
X8733643Y2185508D01*
X8724119Y2204556D01*
X8724119Y2214080D01*
X8733643Y2233127D01*
X8752690Y2242651D01*
X8781262Y2242651D01*
X8800309Y2233127D01*
X8876500Y2033127D02*
X8886024Y2042651D01*
X8905071Y2071223D01*
X8914595Y2090270D01*
X8924119Y2118842D01*
X8933643Y2166461D01*
X8933643Y2204556D01*
X8924119Y2252175D01*
X8914595Y2280746D01*
X8905071Y2299794D01*
X8886024Y2328366D01*
X8876500Y2337889D01*
X9238405Y2033127D02*
X9228881Y2042651D01*
X9209833Y2071223D01*
X9200309Y2090270D01*
X9190785Y2118842D01*
X9181262Y2166461D01*
X9181262Y2204556D01*
X9190785Y2252175D01*
X9200309Y2280746D01*
X9209833Y2299794D01*
X9228881Y2328366D01*
X9238405Y2337889D01*
X9314595Y2242651D02*
X9314595Y2109318D01*
X9314595Y2223604D02*
X9324119Y2233127D01*
X9343166Y2242651D01*
X9371738Y2242651D01*
X9390785Y2233127D01*
X9400309Y2214080D01*
X9400309Y2109318D01*
X9524119Y2109318D02*
X9505071Y2118842D01*
X9495547Y2128366D01*
X9486024Y2147413D01*
X9486024Y2204556D01*
X9495547Y2223604D01*
X9505071Y2233127D01*
X9524119Y2242651D01*
X9552690Y2242651D01*
X9571738Y2233127D01*
X9581262Y2223604D01*
X9590785Y2204556D01*
X9590785Y2147413D01*
X9581262Y2128366D01*
X9571738Y2118842D01*
X9552690Y2109318D01*
X9524119Y2109318D01*
X9647928Y2242651D02*
X9724119Y2242651D01*
X9676500Y2309318D02*
X9676500Y2137889D01*
X9686024Y2118842D01*
X9705071Y2109318D01*
X9724119Y2109318D01*
X9943166Y2242651D02*
X9943166Y2042651D01*
X9943166Y2233127D02*
X9962214Y2242651D01*
X10000309Y2242651D01*
X10019357Y2233127D01*
X10028881Y2223604D01*
X10038405Y2204556D01*
X10038405Y2147413D01*
X10028881Y2128366D01*
X10019357Y2118842D01*
X10000309Y2109318D01*
X9962214Y2109318D01*
X9943166Y2118842D01*
X10152690Y2109318D02*
X10133643Y2118842D01*
X10124119Y2137889D01*
X10124119Y2309318D01*
X10314595Y2109318D02*
X10314595Y2214080D01*
X10305071Y2233127D01*
X10286024Y2242651D01*
X10247928Y2242651D01*
X10228881Y2233127D01*
X10314595Y2118842D02*
X10295547Y2109318D01*
X10247928Y2109318D01*
X10228881Y2118842D01*
X10219357Y2137889D01*
X10219357Y2156937D01*
X10228881Y2175985D01*
X10247928Y2185508D01*
X10295547Y2185508D01*
X10314595Y2195032D01*
X10381262Y2242651D02*
X10457452Y2242651D01*
X10409833Y2309318D02*
X10409833Y2137889D01*
X10419357Y2118842D01*
X10438405Y2109318D01*
X10457452Y2109318D01*
X10600309Y2118842D02*
X10581262Y2109318D01*
X10543166Y2109318D01*
X10524119Y2118842D01*
X10514595Y2137889D01*
X10514595Y2214080D01*
X10524119Y2233127D01*
X10543166Y2242651D01*
X10581262Y2242651D01*
X10600309Y2233127D01*
X10609833Y2214080D01*
X10609833Y2195032D01*
X10514595Y2175985D01*
X10781262Y2109318D02*
X10781262Y2309318D01*
X10781262Y2118842D02*
X10762214Y2109318D01*
X10724119Y2109318D01*
X10705071Y2118842D01*
X10695547Y2128366D01*
X10686024Y2147413D01*
X10686024Y2204556D01*
X10695547Y2223604D01*
X10705071Y2233127D01*
X10724119Y2242651D01*
X10762214Y2242651D01*
X10781262Y2233127D01*
X10857452Y2033127D02*
X10866976Y2042651D01*
X10886024Y2071223D01*
X10895547Y2090270D01*
X10905071Y2118842D01*
X10914595Y2166461D01*
X10914595Y2204556D01*
X10905071Y2252175D01*
X10895547Y2280746D01*
X10886024Y2299794D01*
X10866976Y2328366D01*
X10857452Y2337889D01*
D13*
X4104595Y1935794D02*
G75*
G03*
X4104595Y1935794I-85090J0D01*
G01*
D11*
X4466976Y1845318D02*
X4352690Y1845318D01*
X4409833Y1845318D02*
X4409833Y2045318D01*
X4390785Y2016746D01*
X4371738Y1997699D01*
X4352690Y1988175D01*
X4552690Y1864365D02*
X4562214Y1854842D01*
X4552690Y1845318D01*
X4543166Y1854842D01*
X4552690Y1864365D01*
X4552690Y1845318D01*
X4628881Y2045318D02*
X4762214Y2045318D01*
X4676500Y1845318D01*
X4876500Y2045318D02*
X4895547Y2045318D01*
X4914595Y2035794D01*
X4924119Y2026270D01*
X4933643Y2007223D01*
X4943166Y1969127D01*
X4943166Y1921508D01*
X4933643Y1883413D01*
X4924119Y1864365D01*
X4914595Y1854842D01*
X4895547Y1845318D01*
X4876500Y1845318D01*
X4857452Y1854842D01*
X4847928Y1864365D01*
X4838405Y1883413D01*
X4828881Y1921508D01*
X4828881Y1969127D01*
X4838405Y2007223D01*
X4847928Y2026270D01*
X4857452Y2035794D01*
X4876500Y2045318D01*
X5019357Y2026270D02*
X5028881Y2035794D01*
X5047928Y2045318D01*
X5095547Y2045318D01*
X5114595Y2035794D01*
X5124119Y2026270D01*
X5133643Y2007223D01*
X5133643Y1988175D01*
X5124119Y1959604D01*
X5009833Y1845318D01*
X5133643Y1845318D01*
X5219357Y1845318D02*
X5219357Y1978651D01*
X5219357Y1959604D02*
X5228881Y1969127D01*
X5247928Y1978651D01*
X5276500Y1978651D01*
X5295547Y1969127D01*
X5305071Y1950080D01*
X5305071Y1845318D01*
X5305071Y1950080D02*
X5314595Y1969127D01*
X5333643Y1978651D01*
X5362214Y1978651D01*
X5381262Y1969127D01*
X5390785Y1950080D01*
X5390785Y1845318D01*
X5486024Y1845318D02*
X5486024Y1978651D01*
X5486024Y1959604D02*
X5495547Y1969127D01*
X5514595Y1978651D01*
X5543166Y1978651D01*
X5562214Y1969127D01*
X5571738Y1950080D01*
X5571738Y1845318D01*
X5571738Y1950080D02*
X5581262Y1969127D01*
X5600309Y1978651D01*
X5628881Y1978651D01*
X5647928Y1969127D01*
X5657452Y1950080D01*
X5657452Y1845318D01*
X6047928Y2054842D02*
X5876500Y1797699D01*
X6305071Y2045318D02*
X6324119Y2045318D01*
X6343166Y2035794D01*
X6352690Y2026270D01*
X6362214Y2007223D01*
X6371738Y1969127D01*
X6371738Y1921508D01*
X6362214Y1883413D01*
X6352690Y1864365D01*
X6343166Y1854842D01*
X6324119Y1845318D01*
X6305071Y1845318D01*
X6286023Y1854842D01*
X6276500Y1864365D01*
X6266976Y1883413D01*
X6257452Y1921508D01*
X6257452Y1969127D01*
X6266976Y2007223D01*
X6276500Y2026270D01*
X6286023Y2035794D01*
X6305071Y2045318D01*
X6457452Y1864365D02*
X6466976Y1854842D01*
X6457452Y1845318D01*
X6447928Y1854842D01*
X6457452Y1864365D01*
X6457452Y1845318D01*
X6590785Y2045318D02*
X6609833Y2045318D01*
X6628881Y2035794D01*
X6638404Y2026270D01*
X6647928Y2007223D01*
X6657452Y1969127D01*
X6657452Y1921508D01*
X6647928Y1883413D01*
X6638404Y1864365D01*
X6628881Y1854842D01*
X6609833Y1845318D01*
X6590785Y1845318D01*
X6571738Y1854842D01*
X6562214Y1864365D01*
X6552690Y1883413D01*
X6543166Y1921508D01*
X6543166Y1969127D01*
X6552690Y2007223D01*
X6562214Y2026270D01*
X6571738Y2035794D01*
X6590785Y2045318D01*
X6828881Y2045318D02*
X6790785Y2045318D01*
X6771738Y2035794D01*
X6762214Y2026270D01*
X6743166Y1997699D01*
X6733643Y1959604D01*
X6733643Y1883413D01*
X6743166Y1864365D01*
X6752690Y1854842D01*
X6771738Y1845318D01*
X6809833Y1845318D01*
X6828881Y1854842D01*
X6838404Y1864365D01*
X6847928Y1883413D01*
X6847928Y1931032D01*
X6838404Y1950080D01*
X6828881Y1959604D01*
X6809833Y1969127D01*
X6771738Y1969127D01*
X6752690Y1959604D01*
X6743166Y1950080D01*
X6733643Y1931032D01*
X6914595Y2045318D02*
X7047928Y2045318D01*
X6962214Y1845318D01*
X7162214Y2045318D02*
X7181262Y2045318D01*
X7200309Y2035794D01*
X7209833Y2026270D01*
X7219357Y2007223D01*
X7228881Y1969127D01*
X7228881Y1921508D01*
X7219357Y1883413D01*
X7209833Y1864365D01*
X7200309Y1854842D01*
X7181262Y1845318D01*
X7162214Y1845318D01*
X7143166Y1854842D01*
X7133643Y1864365D01*
X7124119Y1883413D01*
X7114595Y1921508D01*
X7114595Y1969127D01*
X7124119Y2007223D01*
X7133643Y2026270D01*
X7143166Y2035794D01*
X7162214Y2045318D01*
X7305071Y2045318D02*
X7305071Y2007223D01*
X7381262Y2045318D02*
X7381262Y2007223D01*
X7676500Y1769127D02*
X7666976Y1778651D01*
X7647928Y1807223D01*
X7638404Y1826270D01*
X7628881Y1854842D01*
X7619357Y1902461D01*
X7619357Y1940556D01*
X7628881Y1988175D01*
X7638404Y2016746D01*
X7647928Y2035794D01*
X7666976Y2064365D01*
X7676500Y2073889D01*
X7838404Y2045318D02*
X7800309Y2045318D01*
X7781262Y2035794D01*
X7771738Y2026270D01*
X7752690Y1997699D01*
X7743166Y1959604D01*
X7743166Y1883413D01*
X7752690Y1864365D01*
X7762214Y1854842D01*
X7781262Y1845318D01*
X7819357Y1845318D01*
X7838404Y1854842D01*
X7847928Y1864365D01*
X7857452Y1883413D01*
X7857452Y1931032D01*
X7847928Y1950080D01*
X7838404Y1959604D01*
X7819357Y1969127D01*
X7781262Y1969127D01*
X7762214Y1959604D01*
X7752690Y1950080D01*
X7743166Y1931032D01*
X7971738Y1959604D02*
X7952690Y1969127D01*
X7943166Y1978651D01*
X7933643Y1997699D01*
X7933643Y2007223D01*
X7943166Y2026270D01*
X7952690Y2035794D01*
X7971738Y2045318D01*
X8009833Y2045318D01*
X8028881Y2035794D01*
X8038404Y2026270D01*
X8047928Y2007223D01*
X8047928Y1997699D01*
X8038404Y1978651D01*
X8028881Y1969127D01*
X8009833Y1959604D01*
X7971738Y1959604D01*
X7952690Y1950080D01*
X7943166Y1940556D01*
X7933643Y1921508D01*
X7933643Y1883413D01*
X7943166Y1864365D01*
X7952690Y1854842D01*
X7971738Y1845318D01*
X8009833Y1845318D01*
X8028881Y1854842D01*
X8038404Y1864365D01*
X8047928Y1883413D01*
X8047928Y1921508D01*
X8038404Y1940556D01*
X8028881Y1950080D01*
X8009833Y1959604D01*
X8286023Y1845318D02*
X8286023Y2045318D01*
X8371738Y1845318D02*
X8371738Y1950080D01*
X8362214Y1969127D01*
X8343166Y1978651D01*
X8314595Y1978651D01*
X8295547Y1969127D01*
X8286023Y1959604D01*
X8495547Y1845318D02*
X8476500Y1854842D01*
X8466976Y1864365D01*
X8457452Y1883413D01*
X8457452Y1940556D01*
X8466976Y1959604D01*
X8476500Y1969127D01*
X8495547Y1978651D01*
X8524119Y1978651D01*
X8543166Y1969127D01*
X8552690Y1959604D01*
X8562214Y1940556D01*
X8562214Y1883413D01*
X8552690Y1864365D01*
X8543166Y1854842D01*
X8524119Y1845318D01*
X8495547Y1845318D01*
X8676500Y1845318D02*
X8657452Y1854842D01*
X8647928Y1873889D01*
X8647928Y2045318D01*
X8828881Y1854842D02*
X8809833Y1845318D01*
X8771738Y1845318D01*
X8752690Y1854842D01*
X8743166Y1873889D01*
X8743166Y1950080D01*
X8752690Y1969127D01*
X8771738Y1978651D01*
X8809833Y1978651D01*
X8828881Y1969127D01*
X8838405Y1950080D01*
X8838405Y1931032D01*
X8743166Y1911984D01*
X8914595Y1854842D02*
X8933643Y1845318D01*
X8971738Y1845318D01*
X8990785Y1854842D01*
X9000309Y1873889D01*
X9000309Y1883413D01*
X8990785Y1902461D01*
X8971738Y1911984D01*
X8943166Y1911984D01*
X8924119Y1921508D01*
X8914595Y1940556D01*
X8914595Y1950080D01*
X8924119Y1969127D01*
X8943166Y1978651D01*
X8971738Y1978651D01*
X8990785Y1969127D01*
X9066976Y1769127D02*
X9076500Y1778651D01*
X9095547Y1807223D01*
X9105071Y1826270D01*
X9114595Y1854842D01*
X9124119Y1902461D01*
X9124119Y1940556D01*
X9114595Y1988175D01*
X9105071Y2016746D01*
X9095547Y2035794D01*
X9076500Y2064365D01*
X9066976Y2073889D01*
X9428881Y1769127D02*
X9419357Y1778651D01*
X9400309Y1807223D01*
X9390785Y1826270D01*
X9381262Y1854842D01*
X9371738Y1902461D01*
X9371738Y1940556D01*
X9381262Y1988175D01*
X9390785Y2016746D01*
X9400309Y2035794D01*
X9419357Y2064365D01*
X9428881Y2073889D01*
X9505071Y1978651D02*
X9505071Y1845318D01*
X9505071Y1959604D02*
X9514595Y1969127D01*
X9533643Y1978651D01*
X9562214Y1978651D01*
X9581262Y1969127D01*
X9590785Y1950080D01*
X9590785Y1845318D01*
X9714595Y1845318D02*
X9695547Y1854842D01*
X9686024Y1864365D01*
X9676500Y1883413D01*
X9676500Y1940556D01*
X9686024Y1959604D01*
X9695547Y1969127D01*
X9714595Y1978651D01*
X9743166Y1978651D01*
X9762214Y1969127D01*
X9771738Y1959604D01*
X9781262Y1940556D01*
X9781262Y1883413D01*
X9771738Y1864365D01*
X9762214Y1854842D01*
X9743166Y1845318D01*
X9714595Y1845318D01*
X9838405Y1978651D02*
X9914595Y1978651D01*
X9866976Y2045318D02*
X9866976Y1873889D01*
X9876500Y1854842D01*
X9895547Y1845318D01*
X9914595Y1845318D01*
X10133643Y1978651D02*
X10133643Y1778651D01*
X10133643Y1969127D02*
X10152690Y1978651D01*
X10190785Y1978651D01*
X10209833Y1969127D01*
X10219357Y1959604D01*
X10228881Y1940556D01*
X10228881Y1883413D01*
X10219357Y1864365D01*
X10209833Y1854842D01*
X10190785Y1845318D01*
X10152690Y1845318D01*
X10133643Y1854842D01*
X10343166Y1845318D02*
X10324119Y1854842D01*
X10314595Y1873889D01*
X10314595Y2045318D01*
X10505071Y1845318D02*
X10505071Y1950080D01*
X10495547Y1969127D01*
X10476500Y1978651D01*
X10438405Y1978651D01*
X10419357Y1969127D01*
X10505071Y1854842D02*
X10486024Y1845318D01*
X10438405Y1845318D01*
X10419357Y1854842D01*
X10409833Y1873889D01*
X10409833Y1892937D01*
X10419357Y1911984D01*
X10438405Y1921508D01*
X10486024Y1921508D01*
X10505071Y1931032D01*
X10571738Y1978651D02*
X10647928Y1978651D01*
X10600309Y2045318D02*
X10600309Y1873889D01*
X10609833Y1854842D01*
X10628881Y1845318D01*
X10647928Y1845318D01*
X10790785Y1854842D02*
X10771738Y1845318D01*
X10733643Y1845318D01*
X10714595Y1854842D01*
X10705071Y1873889D01*
X10705071Y1950080D01*
X10714595Y1969127D01*
X10733643Y1978651D01*
X10771738Y1978651D01*
X10790785Y1969127D01*
X10800309Y1950080D01*
X10800309Y1931032D01*
X10705071Y1911984D01*
X10971738Y1845318D02*
X10971738Y2045318D01*
X10971738Y1854842D02*
X10952690Y1845318D01*
X10914595Y1845318D01*
X10895547Y1854842D01*
X10886024Y1864365D01*
X10876500Y1883413D01*
X10876500Y1940556D01*
X10886024Y1959604D01*
X10895547Y1969127D01*
X10914595Y1978651D01*
X10952690Y1978651D01*
X10971738Y1969127D01*
X11047928Y1769127D02*
X11057452Y1778651D01*
X11076500Y1807223D01*
X11086024Y1826270D01*
X11095547Y1854842D01*
X11105071Y1902461D01*
X11105071Y1940556D01*
X11095547Y1988175D01*
X11086024Y2016746D01*
X11076500Y2035794D01*
X11057452Y2064365D01*
X11047928Y2073889D01*
X4004595Y1745614D02*
X4004595Y1545614D01*
X3904595Y1645614D02*
X4104595Y1645614D01*
X4343166Y1755138D02*
X4466976Y1755138D01*
X4400309Y1678947D01*
X4428881Y1678947D01*
X4447928Y1669424D01*
X4457452Y1659900D01*
X4466976Y1640852D01*
X4466976Y1593233D01*
X4457452Y1574185D01*
X4447928Y1564662D01*
X4428881Y1555138D01*
X4371738Y1555138D01*
X4352690Y1564662D01*
X4343166Y1574185D01*
X4552690Y1574185D02*
X4562214Y1564662D01*
X4552690Y1555138D01*
X4543166Y1564662D01*
X4552690Y1574185D01*
X4552690Y1555138D01*
X4686024Y1755138D02*
X4705071Y1755138D01*
X4724119Y1745614D01*
X4733643Y1736090D01*
X4743166Y1717043D01*
X4752690Y1678947D01*
X4752690Y1631328D01*
X4743166Y1593233D01*
X4733643Y1574185D01*
X4724119Y1564662D01*
X4705071Y1555138D01*
X4686024Y1555138D01*
X4666976Y1564662D01*
X4657452Y1574185D01*
X4647928Y1593233D01*
X4638405Y1631328D01*
X4638405Y1678947D01*
X4647928Y1717043D01*
X4657452Y1736090D01*
X4666976Y1745614D01*
X4686024Y1755138D01*
X4876500Y1755138D02*
X4895547Y1755138D01*
X4914595Y1745614D01*
X4924119Y1736090D01*
X4933643Y1717043D01*
X4943166Y1678947D01*
X4943166Y1631328D01*
X4933643Y1593233D01*
X4924119Y1574185D01*
X4914595Y1564662D01*
X4895547Y1555138D01*
X4876500Y1555138D01*
X4857452Y1564662D01*
X4847928Y1574185D01*
X4838405Y1593233D01*
X4828881Y1631328D01*
X4828881Y1678947D01*
X4838405Y1717043D01*
X4847928Y1736090D01*
X4857452Y1745614D01*
X4876500Y1755138D01*
X5066976Y1755138D02*
X5086024Y1755138D01*
X5105071Y1745614D01*
X5114595Y1736090D01*
X5124119Y1717043D01*
X5133643Y1678947D01*
X5133643Y1631328D01*
X5124119Y1593233D01*
X5114595Y1574185D01*
X5105071Y1564662D01*
X5086024Y1555138D01*
X5066976Y1555138D01*
X5047928Y1564662D01*
X5038405Y1574185D01*
X5028881Y1593233D01*
X5019357Y1631328D01*
X5019357Y1678947D01*
X5028881Y1717043D01*
X5038405Y1736090D01*
X5047928Y1745614D01*
X5066976Y1755138D01*
X5219357Y1555138D02*
X5219357Y1688471D01*
X5219357Y1669424D02*
X5228881Y1678947D01*
X5247928Y1688471D01*
X5276500Y1688471D01*
X5295547Y1678947D01*
X5305071Y1659900D01*
X5305071Y1555138D01*
X5305071Y1659900D02*
X5314595Y1678947D01*
X5333643Y1688471D01*
X5362214Y1688471D01*
X5381262Y1678947D01*
X5390785Y1659900D01*
X5390785Y1555138D01*
X5486024Y1555138D02*
X5486024Y1688471D01*
X5486024Y1669424D02*
X5495547Y1678947D01*
X5514595Y1688471D01*
X5543166Y1688471D01*
X5562214Y1678947D01*
X5571738Y1659900D01*
X5571738Y1555138D01*
X5571738Y1659900D02*
X5581262Y1678947D01*
X5600309Y1688471D01*
X5628881Y1688471D01*
X5647928Y1678947D01*
X5657452Y1659900D01*
X5657452Y1555138D01*
X6047928Y1764662D02*
X5876500Y1507519D01*
X6305071Y1755138D02*
X6324119Y1755138D01*
X6343166Y1745614D01*
X6352690Y1736090D01*
X6362214Y1717043D01*
X6371738Y1678947D01*
X6371738Y1631328D01*
X6362214Y1593233D01*
X6352690Y1574185D01*
X6343166Y1564662D01*
X6324119Y1555138D01*
X6305071Y1555138D01*
X6286023Y1564662D01*
X6276500Y1574185D01*
X6266976Y1593233D01*
X6257452Y1631328D01*
X6257452Y1678947D01*
X6266976Y1717043D01*
X6276500Y1736090D01*
X6286023Y1745614D01*
X6305071Y1755138D01*
X6457452Y1574185D02*
X6466976Y1564662D01*
X6457452Y1555138D01*
X6447928Y1564662D01*
X6457452Y1574185D01*
X6457452Y1555138D01*
X6657452Y1555138D02*
X6543166Y1555138D01*
X6600309Y1555138D02*
X6600309Y1755138D01*
X6581262Y1726566D01*
X6562214Y1707519D01*
X6543166Y1697995D01*
X6847928Y1555138D02*
X6733643Y1555138D01*
X6790785Y1555138D02*
X6790785Y1755138D01*
X6771738Y1726566D01*
X6752690Y1707519D01*
X6733643Y1697995D01*
X6962214Y1669424D02*
X6943166Y1678947D01*
X6933643Y1688471D01*
X6924119Y1707519D01*
X6924119Y1717043D01*
X6933643Y1736090D01*
X6943166Y1745614D01*
X6962214Y1755138D01*
X7000309Y1755138D01*
X7019357Y1745614D01*
X7028881Y1736090D01*
X7038404Y1717043D01*
X7038404Y1707519D01*
X7028881Y1688471D01*
X7019357Y1678947D01*
X7000309Y1669424D01*
X6962214Y1669424D01*
X6943166Y1659900D01*
X6933643Y1650376D01*
X6924119Y1631328D01*
X6924119Y1593233D01*
X6933643Y1574185D01*
X6943166Y1564662D01*
X6962214Y1555138D01*
X7000309Y1555138D01*
X7019357Y1564662D01*
X7028881Y1574185D01*
X7038404Y1593233D01*
X7038404Y1631328D01*
X7028881Y1650376D01*
X7019357Y1659900D01*
X7000309Y1669424D01*
X7228881Y1555138D02*
X7114595Y1555138D01*
X7171738Y1555138D02*
X7171738Y1755138D01*
X7152690Y1726566D01*
X7133643Y1707519D01*
X7114595Y1697995D01*
X7305071Y1755138D02*
X7305071Y1717043D01*
X7381262Y1755138D02*
X7381262Y1717043D01*
X7676500Y1478947D02*
X7666976Y1488471D01*
X7647928Y1517043D01*
X7638404Y1536090D01*
X7628881Y1564662D01*
X7619357Y1612281D01*
X7619357Y1650376D01*
X7628881Y1697995D01*
X7638404Y1726566D01*
X7647928Y1745614D01*
X7666976Y1774185D01*
X7676500Y1783709D01*
X7838404Y1755138D02*
X7800309Y1755138D01*
X7781262Y1745614D01*
X7771738Y1736090D01*
X7752690Y1707519D01*
X7743166Y1669424D01*
X7743166Y1593233D01*
X7752690Y1574185D01*
X7762214Y1564662D01*
X7781262Y1555138D01*
X7819357Y1555138D01*
X7838404Y1564662D01*
X7847928Y1574185D01*
X7857452Y1593233D01*
X7857452Y1640852D01*
X7847928Y1659900D01*
X7838404Y1669424D01*
X7819357Y1678947D01*
X7781262Y1678947D01*
X7762214Y1669424D01*
X7752690Y1659900D01*
X7743166Y1640852D01*
X7971738Y1669424D02*
X7952690Y1678947D01*
X7943166Y1688471D01*
X7933643Y1707519D01*
X7933643Y1717043D01*
X7943166Y1736090D01*
X7952690Y1745614D01*
X7971738Y1755138D01*
X8009833Y1755138D01*
X8028881Y1745614D01*
X8038404Y1736090D01*
X8047928Y1717043D01*
X8047928Y1707519D01*
X8038404Y1688471D01*
X8028881Y1678947D01*
X8009833Y1669424D01*
X7971738Y1669424D01*
X7952690Y1659900D01*
X7943166Y1650376D01*
X7933643Y1631328D01*
X7933643Y1593233D01*
X7943166Y1574185D01*
X7952690Y1564662D01*
X7971738Y1555138D01*
X8009833Y1555138D01*
X8028881Y1564662D01*
X8038404Y1574185D01*
X8047928Y1593233D01*
X8047928Y1631328D01*
X8038404Y1650376D01*
X8028881Y1659900D01*
X8009833Y1669424D01*
X8286023Y1555138D02*
X8286023Y1755138D01*
X8371738Y1555138D02*
X8371738Y1659900D01*
X8362214Y1678947D01*
X8343166Y1688471D01*
X8314595Y1688471D01*
X8295547Y1678947D01*
X8286023Y1669424D01*
X8495547Y1555138D02*
X8476500Y1564662D01*
X8466976Y1574185D01*
X8457452Y1593233D01*
X8457452Y1650376D01*
X8466976Y1669424D01*
X8476500Y1678947D01*
X8495547Y1688471D01*
X8524119Y1688471D01*
X8543166Y1678947D01*
X8552690Y1669424D01*
X8562214Y1650376D01*
X8562214Y1593233D01*
X8552690Y1574185D01*
X8543166Y1564662D01*
X8524119Y1555138D01*
X8495547Y1555138D01*
X8676500Y1555138D02*
X8657452Y1564662D01*
X8647928Y1583709D01*
X8647928Y1755138D01*
X8828881Y1564662D02*
X8809833Y1555138D01*
X8771738Y1555138D01*
X8752690Y1564662D01*
X8743166Y1583709D01*
X8743166Y1659900D01*
X8752690Y1678947D01*
X8771738Y1688471D01*
X8809833Y1688471D01*
X8828881Y1678947D01*
X8838405Y1659900D01*
X8838405Y1640852D01*
X8743166Y1621804D01*
X8914595Y1564662D02*
X8933643Y1555138D01*
X8971738Y1555138D01*
X8990785Y1564662D01*
X9000309Y1583709D01*
X9000309Y1593233D01*
X8990785Y1612281D01*
X8971738Y1621804D01*
X8943166Y1621804D01*
X8924119Y1631328D01*
X8914595Y1650376D01*
X8914595Y1659900D01*
X8924119Y1678947D01*
X8943166Y1688471D01*
X8971738Y1688471D01*
X8990785Y1678947D01*
X9066976Y1478947D02*
X9076500Y1488471D01*
X9095547Y1517043D01*
X9105071Y1536090D01*
X9114595Y1564662D01*
X9124119Y1612281D01*
X9124119Y1650376D01*
X9114595Y1697995D01*
X9105071Y1726566D01*
X9095547Y1745614D01*
X9076500Y1774185D01*
X9066976Y1783709D01*
X9428881Y1478947D02*
X9419357Y1488471D01*
X9400309Y1517043D01*
X9390785Y1536090D01*
X9381262Y1564662D01*
X9371738Y1612281D01*
X9371738Y1650376D01*
X9381262Y1697995D01*
X9390785Y1726566D01*
X9400309Y1745614D01*
X9419357Y1774185D01*
X9428881Y1783709D01*
X9505071Y1688471D02*
X9505071Y1555138D01*
X9505071Y1669424D02*
X9514595Y1678947D01*
X9533643Y1688471D01*
X9562214Y1688471D01*
X9581262Y1678947D01*
X9590785Y1659900D01*
X9590785Y1555138D01*
X9714595Y1555138D02*
X9695547Y1564662D01*
X9686024Y1574185D01*
X9676500Y1593233D01*
X9676500Y1650376D01*
X9686024Y1669424D01*
X9695547Y1678947D01*
X9714595Y1688471D01*
X9743166Y1688471D01*
X9762214Y1678947D01*
X9771738Y1669424D01*
X9781262Y1650376D01*
X9781262Y1593233D01*
X9771738Y1574185D01*
X9762214Y1564662D01*
X9743166Y1555138D01*
X9714595Y1555138D01*
X9838405Y1688471D02*
X9914595Y1688471D01*
X9866976Y1755138D02*
X9866976Y1583709D01*
X9876500Y1564662D01*
X9895547Y1555138D01*
X9914595Y1555138D01*
X10133643Y1688471D02*
X10133643Y1488471D01*
X10133643Y1678947D02*
X10152690Y1688471D01*
X10190785Y1688471D01*
X10209833Y1678947D01*
X10219357Y1669424D01*
X10228881Y1650376D01*
X10228881Y1593233D01*
X10219357Y1574185D01*
X10209833Y1564662D01*
X10190785Y1555138D01*
X10152690Y1555138D01*
X10133643Y1564662D01*
X10343166Y1555138D02*
X10324119Y1564662D01*
X10314595Y1583709D01*
X10314595Y1755138D01*
X10505071Y1555138D02*
X10505071Y1659900D01*
X10495547Y1678947D01*
X10476500Y1688471D01*
X10438405Y1688471D01*
X10419357Y1678947D01*
X10505071Y1564662D02*
X10486024Y1555138D01*
X10438405Y1555138D01*
X10419357Y1564662D01*
X10409833Y1583709D01*
X10409833Y1602757D01*
X10419357Y1621804D01*
X10438405Y1631328D01*
X10486024Y1631328D01*
X10505071Y1640852D01*
X10571738Y1688471D02*
X10647928Y1688471D01*
X10600309Y1755138D02*
X10600309Y1583709D01*
X10609833Y1564662D01*
X10628881Y1555138D01*
X10647928Y1555138D01*
X10790785Y1564662D02*
X10771738Y1555138D01*
X10733643Y1555138D01*
X10714595Y1564662D01*
X10705071Y1583709D01*
X10705071Y1659900D01*
X10714595Y1678947D01*
X10733643Y1688471D01*
X10771738Y1688471D01*
X10790785Y1678947D01*
X10800309Y1659900D01*
X10800309Y1640852D01*
X10705071Y1621804D01*
X10971738Y1555138D02*
X10971738Y1755138D01*
X10971738Y1564662D02*
X10952690Y1555138D01*
X10914595Y1555138D01*
X10895547Y1564662D01*
X10886024Y1574185D01*
X10876500Y1593233D01*
X10876500Y1650376D01*
X10886024Y1669424D01*
X10895547Y1678947D01*
X10914595Y1688471D01*
X10952690Y1688471D01*
X10971738Y1678947D01*
X11047928Y1478947D02*
X11057452Y1488471D01*
X11076500Y1517043D01*
X11086024Y1536090D01*
X11095547Y1564662D01*
X11105071Y1612281D01*
X11105071Y1650376D01*
X11095547Y1697995D01*
X11086024Y1726566D01*
X11076500Y1745614D01*
X11057452Y1774185D01*
X11047928Y1783709D01*
X4075306Y1254903D02*
X4075306Y1396326D01*
X3933884Y1396326D01*
X3933884Y1254903D01*
X4075306Y1254903D01*
X4343166Y1435138D02*
X4466976Y1435138D01*
X4400309Y1358947D01*
X4428881Y1358947D01*
X4447928Y1349424D01*
X4457452Y1339900D01*
X4466976Y1320852D01*
X4466976Y1273233D01*
X4457452Y1254186D01*
X4447928Y1244662D01*
X4428881Y1235138D01*
X4371738Y1235138D01*
X4352690Y1244662D01*
X4343166Y1254186D01*
X4552690Y1254186D02*
X4562214Y1244662D01*
X4552690Y1235138D01*
X4543166Y1244662D01*
X4552690Y1254186D01*
X4552690Y1235138D01*
X4733643Y1368471D02*
X4733643Y1235138D01*
X4686024Y1444662D02*
X4638405Y1301805D01*
X4762214Y1301805D01*
X4828881Y1416090D02*
X4838405Y1425614D01*
X4857452Y1435138D01*
X4905071Y1435138D01*
X4924119Y1425614D01*
X4933643Y1416090D01*
X4943166Y1397043D01*
X4943166Y1377995D01*
X4933643Y1349424D01*
X4819357Y1235138D01*
X4943166Y1235138D01*
X5038405Y1235138D02*
X5076500Y1235138D01*
X5095547Y1244662D01*
X5105071Y1254186D01*
X5124119Y1282757D01*
X5133643Y1320852D01*
X5133643Y1397043D01*
X5124119Y1416090D01*
X5114595Y1425614D01*
X5095547Y1435138D01*
X5057452Y1435138D01*
X5038405Y1425614D01*
X5028881Y1416090D01*
X5019357Y1397043D01*
X5019357Y1349424D01*
X5028881Y1330376D01*
X5038405Y1320852D01*
X5057452Y1311328D01*
X5095547Y1311328D01*
X5114595Y1320852D01*
X5124119Y1330376D01*
X5133643Y1349424D01*
X5219357Y1235138D02*
X5219357Y1368471D01*
X5219357Y1349424D02*
X5228881Y1358947D01*
X5247928Y1368471D01*
X5276500Y1368471D01*
X5295547Y1358947D01*
X5305071Y1339900D01*
X5305071Y1235138D01*
X5305071Y1339900D02*
X5314595Y1358947D01*
X5333643Y1368471D01*
X5362214Y1368471D01*
X5381262Y1358947D01*
X5390785Y1339900D01*
X5390785Y1235138D01*
X5486024Y1235138D02*
X5486024Y1368471D01*
X5486024Y1349424D02*
X5495547Y1358947D01*
X5514595Y1368471D01*
X5543166Y1368471D01*
X5562214Y1358947D01*
X5571738Y1339900D01*
X5571738Y1235138D01*
X5571738Y1339900D02*
X5581262Y1358947D01*
X5600309Y1368471D01*
X5628881Y1368471D01*
X5647928Y1358947D01*
X5657452Y1339900D01*
X5657452Y1235138D01*
X6047928Y1444662D02*
X5876500Y1187519D01*
X6305071Y1435138D02*
X6324119Y1435138D01*
X6343166Y1425614D01*
X6352690Y1416090D01*
X6362214Y1397043D01*
X6371738Y1358947D01*
X6371738Y1311328D01*
X6362214Y1273233D01*
X6352690Y1254186D01*
X6343166Y1244662D01*
X6324119Y1235138D01*
X6305071Y1235138D01*
X6286023Y1244662D01*
X6276500Y1254186D01*
X6266976Y1273233D01*
X6257452Y1311328D01*
X6257452Y1358947D01*
X6266976Y1397043D01*
X6276500Y1416090D01*
X6286023Y1425614D01*
X6305071Y1435138D01*
X6457452Y1254186D02*
X6466976Y1244662D01*
X6457452Y1235138D01*
X6447928Y1244662D01*
X6457452Y1254186D01*
X6457452Y1235138D01*
X6657452Y1235138D02*
X6543166Y1235138D01*
X6600309Y1235138D02*
X6600309Y1435138D01*
X6581262Y1406566D01*
X6562214Y1387519D01*
X6543166Y1377995D01*
X6724119Y1435138D02*
X6847928Y1435138D01*
X6781262Y1358947D01*
X6809833Y1358947D01*
X6828881Y1349424D01*
X6838404Y1339900D01*
X6847928Y1320852D01*
X6847928Y1273233D01*
X6838404Y1254186D01*
X6828881Y1244662D01*
X6809833Y1235138D01*
X6752690Y1235138D01*
X6733643Y1244662D01*
X6724119Y1254186D01*
X7028881Y1435138D02*
X6933643Y1435138D01*
X6924119Y1339900D01*
X6933643Y1349424D01*
X6952690Y1358947D01*
X7000309Y1358947D01*
X7019357Y1349424D01*
X7028881Y1339900D01*
X7038404Y1320852D01*
X7038404Y1273233D01*
X7028881Y1254186D01*
X7019357Y1244662D01*
X7000309Y1235138D01*
X6952690Y1235138D01*
X6933643Y1244662D01*
X6924119Y1254186D01*
X7162214Y1435138D02*
X7181262Y1435138D01*
X7200309Y1425614D01*
X7209833Y1416090D01*
X7219357Y1397043D01*
X7228881Y1358947D01*
X7228881Y1311328D01*
X7219357Y1273233D01*
X7209833Y1254186D01*
X7200309Y1244662D01*
X7181262Y1235138D01*
X7162214Y1235138D01*
X7143166Y1244662D01*
X7133643Y1254186D01*
X7124119Y1273233D01*
X7114595Y1311328D01*
X7114595Y1358947D01*
X7124119Y1397043D01*
X7133643Y1416090D01*
X7143166Y1425614D01*
X7162214Y1435138D01*
X7305071Y1435138D02*
X7305071Y1397043D01*
X7381262Y1435138D02*
X7381262Y1397043D01*
X7676500Y1158947D02*
X7666976Y1168471D01*
X7647928Y1197043D01*
X7638404Y1216090D01*
X7628881Y1244662D01*
X7619357Y1292281D01*
X7619357Y1330376D01*
X7628881Y1377995D01*
X7638404Y1406566D01*
X7647928Y1425614D01*
X7666976Y1454185D01*
X7676500Y1463709D01*
X7733643Y1435138D02*
X7857452Y1435138D01*
X7790785Y1358947D01*
X7819357Y1358947D01*
X7838404Y1349424D01*
X7847928Y1339900D01*
X7857452Y1320852D01*
X7857452Y1273233D01*
X7847928Y1254186D01*
X7838404Y1244662D01*
X7819357Y1235138D01*
X7762214Y1235138D01*
X7743166Y1244662D01*
X7733643Y1254186D01*
X8028881Y1368471D02*
X8028881Y1235138D01*
X7981262Y1444662D02*
X7933643Y1301805D01*
X8057452Y1301805D01*
X8286023Y1235138D02*
X8286023Y1435138D01*
X8371738Y1235138D02*
X8371738Y1339900D01*
X8362214Y1358947D01*
X8343166Y1368471D01*
X8314595Y1368471D01*
X8295547Y1358947D01*
X8286023Y1349424D01*
X8495547Y1235138D02*
X8476500Y1244662D01*
X8466976Y1254186D01*
X8457452Y1273233D01*
X8457452Y1330376D01*
X8466976Y1349424D01*
X8476500Y1358947D01*
X8495547Y1368471D01*
X8524119Y1368471D01*
X8543166Y1358947D01*
X8552690Y1349424D01*
X8562214Y1330376D01*
X8562214Y1273233D01*
X8552690Y1254186D01*
X8543166Y1244662D01*
X8524119Y1235138D01*
X8495547Y1235138D01*
X8676500Y1235138D02*
X8657452Y1244662D01*
X8647928Y1263709D01*
X8647928Y1435138D01*
X8828881Y1244662D02*
X8809833Y1235138D01*
X8771738Y1235138D01*
X8752690Y1244662D01*
X8743166Y1263709D01*
X8743166Y1339900D01*
X8752690Y1358947D01*
X8771738Y1368471D01*
X8809833Y1368471D01*
X8828881Y1358947D01*
X8838405Y1339900D01*
X8838405Y1320852D01*
X8743166Y1301805D01*
X8914595Y1244662D02*
X8933643Y1235138D01*
X8971738Y1235138D01*
X8990785Y1244662D01*
X9000309Y1263709D01*
X9000309Y1273233D01*
X8990785Y1292281D01*
X8971738Y1301805D01*
X8943166Y1301805D01*
X8924119Y1311328D01*
X8914595Y1330376D01*
X8914595Y1339900D01*
X8924119Y1358947D01*
X8943166Y1368471D01*
X8971738Y1368471D01*
X8990785Y1358947D01*
X9066976Y1158947D02*
X9076500Y1168471D01*
X9095547Y1197043D01*
X9105071Y1216090D01*
X9114595Y1244662D01*
X9124119Y1292281D01*
X9124119Y1330376D01*
X9114595Y1377995D01*
X9105071Y1406566D01*
X9095547Y1425614D01*
X9076500Y1454185D01*
X9066976Y1463709D01*
X9428881Y1158947D02*
X9419357Y1168471D01*
X9400309Y1197043D01*
X9390785Y1216090D01*
X9381262Y1244662D01*
X9371738Y1292281D01*
X9371738Y1330376D01*
X9381262Y1377995D01*
X9390785Y1406566D01*
X9400309Y1425614D01*
X9419357Y1454185D01*
X9428881Y1463709D01*
X9505071Y1368471D02*
X9505071Y1235138D01*
X9505071Y1349424D02*
X9514595Y1358947D01*
X9533643Y1368471D01*
X9562214Y1368471D01*
X9581262Y1358947D01*
X9590785Y1339900D01*
X9590785Y1235138D01*
X9714595Y1235138D02*
X9695547Y1244662D01*
X9686024Y1254186D01*
X9676500Y1273233D01*
X9676500Y1330376D01*
X9686024Y1349424D01*
X9695547Y1358947D01*
X9714595Y1368471D01*
X9743166Y1368471D01*
X9762214Y1358947D01*
X9771738Y1349424D01*
X9781262Y1330376D01*
X9781262Y1273233D01*
X9771738Y1254186D01*
X9762214Y1244662D01*
X9743166Y1235138D01*
X9714595Y1235138D01*
X9838405Y1368471D02*
X9914595Y1368471D01*
X9866976Y1435138D02*
X9866976Y1263709D01*
X9876500Y1244662D01*
X9895547Y1235138D01*
X9914595Y1235138D01*
X10133643Y1368471D02*
X10133643Y1168471D01*
X10133643Y1358947D02*
X10152690Y1368471D01*
X10190785Y1368471D01*
X10209833Y1358947D01*
X10219357Y1349424D01*
X10228881Y1330376D01*
X10228881Y1273233D01*
X10219357Y1254186D01*
X10209833Y1244662D01*
X10190785Y1235138D01*
X10152690Y1235138D01*
X10133643Y1244662D01*
X10343166Y1235138D02*
X10324119Y1244662D01*
X10314595Y1263709D01*
X10314595Y1435138D01*
X10505071Y1235138D02*
X10505071Y1339900D01*
X10495547Y1358947D01*
X10476500Y1368471D01*
X10438405Y1368471D01*
X10419357Y1358947D01*
X10505071Y1244662D02*
X10486024Y1235138D01*
X10438405Y1235138D01*
X10419357Y1244662D01*
X10409833Y1263709D01*
X10409833Y1282757D01*
X10419357Y1301805D01*
X10438405Y1311328D01*
X10486024Y1311328D01*
X10505071Y1320852D01*
X10571738Y1368471D02*
X10647928Y1368471D01*
X10600309Y1435138D02*
X10600309Y1263709D01*
X10609833Y1244662D01*
X10628881Y1235138D01*
X10647928Y1235138D01*
X10790785Y1244662D02*
X10771738Y1235138D01*
X10733643Y1235138D01*
X10714595Y1244662D01*
X10705071Y1263709D01*
X10705071Y1339900D01*
X10714595Y1358947D01*
X10733643Y1368471D01*
X10771738Y1368471D01*
X10790785Y1358947D01*
X10800309Y1339900D01*
X10800309Y1320852D01*
X10705071Y1301805D01*
X10971738Y1235138D02*
X10971738Y1435138D01*
X10971738Y1244662D02*
X10952690Y1235138D01*
X10914595Y1235138D01*
X10895547Y1244662D01*
X10886024Y1254186D01*
X10876500Y1273233D01*
X10876500Y1330376D01*
X10886024Y1349424D01*
X10895547Y1358947D01*
X10914595Y1368471D01*
X10952690Y1368471D01*
X10971738Y1358947D01*
X11047928Y1158947D02*
X11057452Y1168471D01*
X11076500Y1197043D01*
X11086024Y1216090D01*
X11095547Y1244662D01*
X11105071Y1292281D01*
X11105071Y1330376D01*
X11095547Y1377995D01*
X11086024Y1406566D01*
X11076500Y1425614D01*
X11057452Y1454185D01*
X11047928Y1463709D01*
M02*
