M48
; DRILL file {KiCad (6.0.4-0)} date 2022 April 27, Wednesday 15:29:06
; FORMAT={-:-/ absolute / metric / decimal}
; #@! TF.CreationDate,2022-04-27T15:29:06+02:00
; #@! TF.GenerationSoftware,Kicad,Pcbnew,(6.0.4-0)
; #@! TF.FileFunction,Plated,1,2,PTH
FMAT,2
METRIC
; #@! TA.AperFunction,Plated,PTH,ViaDrill
T1C0.400
; #@! TA.AperFunction,Plated,PTH,ComponentDrill
T2C1.092
; #@! TA.AperFunction,Plated,PTH,ComponentDrill
T3C1.270
; #@! TA.AperFunction,Plated,PTH,ComponentDrill
T4C1.300
; #@! TA.AperFunction,Plated,PTH,ComponentDrill
T5C2.200
%
G90
G05
T1
X152.222Y68.605
X158.572Y73.304
T2
X146.791Y112.826
X146.791Y110.286
X146.791Y107.746
X146.791Y105.206
X146.791Y102.666
X146.791Y100.126
X146.791Y97.586
X146.791Y95.046
X146.791Y92.506
X146.791Y89.966
X146.791Y87.426
X146.791Y84.886
X146.791Y82.346
X152.411Y55.816
X154.411Y55.816
X156.411Y55.816
X162.031Y112.826
X162.031Y110.286
X162.031Y107.746
X162.031Y105.206
X162.031Y102.666
X162.031Y100.126
X162.031Y97.586
X162.031Y95.046
X162.031Y92.506
X162.031Y89.966
X162.031Y87.426
X162.031Y84.886
X162.031Y82.346
T3
X49.419Y76.676
X54.389Y60.419
X54.814Y76.129
X54.814Y76.129
X58.982Y79.599
X59.359Y44.161
X59.784Y59.872
X59.784Y59.872
X63.952Y63.342
X64.755Y43.615
X64.755Y43.615
X67.123Y100.135
X68.922Y47.085
X70.075Y83.393
X72.412Y98.935
X72.412Y98.935
X73.027Y66.651
X75.364Y82.193
X75.364Y82.193
X76.971Y101.871
X78.316Y65.451
X78.316Y65.451
X79.923Y85.129
X82.875Y68.388
X88.09Y109.828
X89.572Y92.893
X91.054Y75.958
X93.254Y108.172
X93.254Y108.172
X94.736Y91.237
X94.736Y91.237
X96.218Y74.301
X96.218Y74.301
X98.052Y110.7
X99.534Y93.764
X101.015Y76.829
X110.411Y102.886
X110.411Y85.886
X110.411Y68.886
X115.411Y100.786
X115.411Y100.786
X115.411Y83.786
X115.411Y83.786
X115.411Y66.786
X115.411Y66.786
X120.411Y102.886
X120.411Y85.886
X120.411Y68.886
X124.961Y46.662
X129.247Y43.34
X129.247Y43.34
X129.378Y101.446
X129.378Y84.446
X129.378Y67.446
X134.378Y99.346
X134.378Y99.346
X134.378Y82.346
X134.378Y82.346
X134.378Y65.346
X134.378Y65.346
X134.62Y44.074
X139.378Y101.446
X139.378Y84.446
X139.378Y67.446
X143.081Y40.569
X146.361Y36.251
X146.361Y36.251
X151.742Y35.569
T4
X161.911Y62.566
X161.911Y56.066
T5
X84.747Y88.141
X103.797Y107.191
X103.797Y69.091
T0
M30
