%TF.GenerationSoftware,KiCad,Pcbnew,(6.0.4-0)*%
%TF.CreationDate,2022-07-25T11:59:58+02:00*%
%TF.ProjectId,battoota,62617474-6f6f-4746-912e-6b696361645f,v1.0.0*%
%TF.SameCoordinates,Original*%
%TF.FileFunction,Soldermask,Top*%
%TF.FilePolarity,Negative*%
%FSLAX46Y46*%
G04 Gerber Fmt 4.6, Leading zero omitted, Abs format (unit mm)*
G04 Created by KiCad (PCBNEW (6.0.4-0)) date 2022-07-25 11:59:58*
%MOMM*%
%LPD*%
G01*
G04 APERTURE LIST*
G04 Aperture macros list*
%AMRoundRect*
0 Rectangle with rounded corners*
0 $1 Rounding radius*
0 $2 $3 $4 $5 $6 $7 $8 $9 X,Y pos of 4 corners*
0 Add a 4 corners polygon primitive as box body*
4,1,4,$2,$3,$4,$5,$6,$7,$8,$9,$2,$3,0*
0 Add four circle primitives for the rounded corners*
1,1,$1+$1,$2,$3*
1,1,$1+$1,$4,$5*
1,1,$1+$1,$6,$7*
1,1,$1+$1,$8,$9*
0 Add four rect primitives between the rounded corners*
20,1,$1+$1,$2,$3,$4,$5,0*
20,1,$1+$1,$4,$5,$6,$7,0*
20,1,$1+$1,$6,$7,$8,$9,0*
20,1,$1+$1,$8,$9,$2,$3,0*%
%AMFreePoly0*
4,1,16,0.535355,0.785355,0.550000,0.750000,0.550000,-0.750000,0.535355,-0.785355,0.500000,-0.800000,-0.650000,-0.800000,-0.685355,-0.785355,-0.700000,-0.750000,-0.691603,-0.722265,-0.210093,0.000000,-0.691603,0.722265,-0.699029,0.759806,-0.677735,0.791603,-0.650000,0.800000,0.500000,0.800000,0.535355,0.785355,0.535355,0.785355,$1*%
%AMFreePoly1*
4,1,16,0.535355,0.785355,0.541603,0.777735,1.041603,0.027735,1.049029,-0.009806,1.041603,-0.027735,0.541603,-0.777735,0.509806,-0.799029,0.500000,-0.800000,-0.500000,-0.800000,-0.535355,-0.785355,-0.550000,-0.750000,-0.550000,0.750000,-0.535355,0.785355,-0.500000,0.800000,0.500000,0.800000,0.535355,0.785355,0.535355,0.785355,$1*%
G04 Aperture macros list end*
%ADD10C,2.100000*%
%ADD11C,1.801800*%
%ADD12C,3.100000*%
%ADD13C,3.529000*%
%ADD14RoundRect,0.050000X-1.054507X-1.505993X1.505993X-1.054507X1.054507X1.505993X-1.505993X1.054507X0*%
%ADD15C,2.132000*%
%ADD16RoundRect,0.050000X-1.181751X-1.408356X1.408356X-1.181751X1.181751X1.408356X-1.408356X1.181751X0*%
%ADD17RoundRect,0.050000X-1.300000X-1.300000X1.300000X-1.300000X1.300000X1.300000X-1.300000X1.300000X0*%
%ADD18RoundRect,0.050000X-0.450000X-0.450000X0.450000X-0.450000X0.450000X0.450000X-0.450000X0.450000X0*%
%ADD19RoundRect,0.050000X-0.450000X-0.625000X0.450000X-0.625000X0.450000X0.625000X-0.450000X0.625000X0*%
%ADD20C,1.100000*%
%ADD21RoundRect,0.050000X-1.716367X-0.658851X0.658851X-1.716367X1.716367X0.658851X-0.658851X1.716367X0*%
%ADD22RoundRect,0.425000X-0.750000X0.375000X-0.750000X-0.375000X0.750000X-0.375000X0.750000X0.375000X0*%
%ADD23RoundRect,0.050000X-0.863113X-1.623279X1.623279X-0.863113X0.863113X1.623279X-1.623279X0.863113X0*%
%ADD24RoundRect,0.050000X-1.487360X-1.080630X1.080630X-1.487360X1.487360X1.080630X-1.080630X1.487360X0*%
%ADD25C,1.852600*%
%ADD26FreePoly0,180.000000*%
%ADD27RoundRect,0.050000X-0.762000X0.250000X-0.762000X-0.250000X0.762000X-0.250000X0.762000X0.250000X0*%
%ADD28FreePoly1,180.000000*%
%ADD29C,4.500000*%
G04 APERTURE END LIST*
D10*
%TO.C,B1*%
X157969791Y80873254D03*
X157969791Y74373254D03*
%TD*%
D11*
%TO.C,S11*%
X65970667Y103790002D03*
D12*
X75659968Y109306336D03*
X70353903Y110604673D03*
D13*
X71387110Y104745067D03*
D11*
X76803553Y105700132D03*
D12*
X65811891Y107569854D03*
D14*
X73579148Y111173370D03*
D15*
X67122934Y100134557D03*
X76971012Y101871038D03*
D14*
X62586644Y107001157D03*
D15*
X72411634Y98934701D03*
%TD*%
D12*
%TO.C,S15*%
X88913836Y100414117D03*
X93703066Y103041525D03*
X98875783Y101285675D03*
D13*
X94221643Y97114167D03*
D11*
X99700714Y97593524D03*
X88742572Y96634810D03*
D15*
X89571861Y92892848D03*
D16*
X96965603Y103326959D03*
D15*
X99533808Y93764406D03*
X94735862Y91236618D03*
D16*
X85651297Y100128683D03*
%TD*%
D12*
%TO.C,S21*%
X120424791Y91827253D03*
D11*
X109924791Y88077254D03*
X120924791Y88077254D03*
D13*
X115424791Y88077254D03*
D12*
X115424791Y94027254D03*
X110424791Y91827253D03*
D17*
X118699790Y94027253D03*
D15*
X120424791Y84277254D03*
X110424791Y84277254D03*
D17*
X107149790Y91827254D03*
D15*
X115424791Y82177254D03*
%TD*%
D18*
%TO.C,T1*%
X141068406Y119651838D03*
X133668406Y121851838D03*
X141068406Y121851838D03*
X133668406Y119651838D03*
D19*
X139618406Y118676838D03*
X136618406Y118676838D03*
X135118406Y118676838D03*
%TD*%
D12*
%TO.C,S31*%
X119400791Y55846253D03*
X109400791Y55846253D03*
D13*
X114400791Y52096254D03*
D11*
X108900791Y52096254D03*
X119900791Y52096254D03*
D12*
X114400791Y58046254D03*
D15*
X119400791Y48296254D03*
X109400791Y48296254D03*
D17*
X117675790Y58046253D03*
X106125790Y55846254D03*
D15*
X114400791Y46196254D03*
%TD*%
D20*
%TO.C,T2*%
X135868406Y120751838D03*
X138868406Y120751838D03*
%TD*%
D12*
%TO.C,S29*%
X128599495Y99294490D03*
D13*
X133599495Y95544491D03*
D12*
X133599495Y101494491D03*
D11*
X128099495Y95544491D03*
X139099495Y95544491D03*
D12*
X138599495Y99294490D03*
D15*
X128599495Y91744491D03*
X138599495Y91744491D03*
D17*
X136874494Y101494490D03*
D15*
X133599495Y89644491D03*
D17*
X125324494Y99294491D03*
%TD*%
D11*
%TO.C,S33*%
X158021559Y42660992D03*
D12*
X149954594Y50357522D03*
X159090048Y46290155D03*
D11*
X147972559Y47135096D03*
D12*
X155417142Y50333639D03*
D13*
X152997059Y44898044D03*
D21*
X158409002Y49001576D03*
D15*
X156019187Y39392888D03*
X146883732Y43460254D03*
X150597313Y39508126D03*
D21*
X146962732Y51689586D03*
%TD*%
D12*
%TO.C,S7*%
X81564006Y75822872D03*
X76257941Y77121209D03*
D11*
X71874705Y70306538D03*
D12*
X71715929Y74086390D03*
D13*
X77291148Y71261603D03*
D11*
X82707591Y72216668D03*
D15*
X82875050Y68387574D03*
D14*
X79483186Y77689906D03*
D15*
X73026972Y66651093D03*
D14*
X68490682Y73517693D03*
D15*
X78315672Y65451237D03*
%TD*%
D22*
%TO.C,PAD1*%
X135109791Y108738254D03*
X135109791Y110738254D03*
X135109791Y112738254D03*
%TD*%
D12*
%TO.C,S5*%
X56527389Y87777963D03*
D13*
X52842259Y82729963D03*
D12*
X51102647Y88419976D03*
D11*
X47582583Y81121919D03*
D12*
X46964342Y84854246D03*
D11*
X58101935Y84338007D03*
D15*
X58734795Y80557863D03*
D23*
X54234545Y89377492D03*
D15*
X49171748Y77634146D03*
D23*
X43832442Y83896730D03*
D15*
X54567252Y77087765D03*
%TD*%
D12*
%TO.C,S27*%
X133599495Y84494491D03*
D11*
X128099495Y78544491D03*
D12*
X138599495Y82294490D03*
D11*
X139099495Y78544491D03*
D12*
X128599495Y82294490D03*
D13*
X133599495Y78544491D03*
D17*
X136874494Y84494490D03*
D15*
X138599495Y74744491D03*
X128599495Y74744491D03*
X133599495Y72644491D03*
D17*
X125324494Y82294491D03*
%TD*%
D12*
%TO.C,S9*%
X78611987Y92564604D03*
D11*
X68922686Y87048270D03*
D13*
X74339129Y88003335D03*
D12*
X73305922Y93862941D03*
D11*
X79755572Y88958400D03*
D12*
X68763910Y90828122D03*
D14*
X76531167Y94431638D03*
D15*
X79923031Y85129306D03*
X70074953Y83392825D03*
D14*
X65538663Y90259425D03*
D15*
X75363653Y82192969D03*
%TD*%
D12*
%TO.C,S13*%
X90395484Y83478807D03*
X100357431Y84350365D03*
D11*
X101182362Y80658214D03*
D12*
X95184714Y86106215D03*
D11*
X90224220Y79699500D03*
D13*
X95703291Y80178857D03*
D15*
X91053509Y75957538D03*
D16*
X98447251Y86391649D03*
D15*
X101015456Y76829096D03*
X96217510Y74301308D03*
D16*
X87132945Y83193373D03*
%TD*%
D12*
%TO.C,S17*%
X92221419Y119976835D03*
D11*
X98219067Y114528834D03*
D12*
X97394136Y118220985D03*
D11*
X87260925Y113570120D03*
D12*
X87432189Y117349427D03*
D13*
X92739996Y114049477D03*
D16*
X95483956Y120262269D03*
D15*
X98052161Y110699716D03*
X88090214Y109828158D03*
D16*
X84169650Y117063993D03*
D15*
X93254215Y108171928D03*
%TD*%
D12*
%TO.C,S31*%
X139283457Y53518457D03*
X129406573Y55082802D03*
D13*
X133758386Y50596799D03*
D11*
X128326100Y51457189D03*
X139190672Y49736409D03*
D12*
X134689171Y56473545D03*
D15*
X138102377Y46061411D03*
X128225493Y47625756D03*
D24*
X137923849Y55961221D03*
X126171893Y55595126D03*
D15*
X132835423Y44769438D03*
%TD*%
D25*
%TO.C,MCU1*%
X161977213Y114302348D03*
D26*
X148993690Y114302348D03*
X148993690Y116842348D03*
D27*
X148068690Y111762348D03*
D25*
X161977213Y111762348D03*
X146737213Y111762348D03*
D27*
X148068690Y116842348D03*
D26*
X148993690Y111762348D03*
D27*
X148068690Y114302348D03*
D25*
X146737213Y116926094D03*
X161977213Y116842348D03*
X146737213Y114302348D03*
D28*
X150443690Y116842348D03*
X150443690Y114302348D03*
X150443690Y111762348D03*
D25*
X146737213Y109222348D03*
X146737213Y106682348D03*
X146737213Y104142348D03*
X146737213Y101602348D03*
X146737213Y99062348D03*
X146737213Y96522348D03*
X146737213Y93982348D03*
X146737213Y91442348D03*
X146737213Y88902348D03*
X161977213Y109222348D03*
X161977213Y106682348D03*
X161977213Y104142348D03*
X161977213Y101602348D03*
X161977213Y99062348D03*
X161977213Y96522348D03*
X161977213Y93982348D03*
X161977213Y91442348D03*
X161977213Y88902348D03*
%TD*%
D11*
%TO.C,S3*%
X52552902Y64864738D03*
X63072254Y68080826D03*
D12*
X56072966Y72162795D03*
X51934661Y68597065D03*
X61497708Y71520782D03*
D13*
X57812578Y66472782D03*
D15*
X54142067Y61376965D03*
D23*
X59204864Y73120311D03*
D15*
X63705114Y64300682D03*
X59537571Y60830584D03*
D23*
X48802761Y67639549D03*
%TD*%
D29*
%TO.C,REF\u002A\u002A*%
X84760924Y86640254D03*
X103810924Y67590254D03*
X103810924Y105690254D03*
%TD*%
D11*
%TO.C,S23*%
X120924791Y105077254D03*
D12*
X110424791Y108827253D03*
X115424791Y111027254D03*
X120424791Y108827253D03*
D13*
X115424791Y105077254D03*
D11*
X109924791Y105077254D03*
D17*
X118699790Y111027253D03*
D15*
X120424791Y101277254D03*
X110424791Y101277254D03*
X115424791Y99177254D03*
D17*
X107149790Y108827254D03*
%TD*%
D12*
%TO.C,S19*%
X120424791Y74827253D03*
D11*
X120924791Y71077254D03*
X109924791Y71077254D03*
D13*
X115424791Y71077254D03*
D12*
X115424791Y77027254D03*
X110424791Y74827253D03*
D17*
X118699790Y77027253D03*
D15*
X110424791Y67277254D03*
X120424791Y67277254D03*
D17*
X107149790Y74827254D03*
D15*
X115424791Y65177254D03*
%TD*%
M02*
