%TF.GenerationSoftware,KiCad,Pcbnew,(6.0.4)*%
%TF.CreationDate,2022-07-07T20:03:21+02:00*%
%TF.ProjectId,battoota_min,62617474-6f6f-4746-915f-6d696e2e6b69,v1.0.0*%
%TF.SameCoordinates,Original*%
%TF.FileFunction,Legend,Top*%
%TF.FilePolarity,Positive*%
%FSLAX46Y46*%
G04 Gerber Fmt 4.6, Leading zero omitted, Abs format (unit mm)*
G04 Created by KiCad (PCBNEW (6.0.4)) date 2022-07-07 20:03:21*
%MOMM*%
%LPD*%
G01*
G04 APERTURE LIST*
G04 Aperture macros list*
%AMRoundRect*
0 Rectangle with rounded corners*
0 $1 Rounding radius*
0 $2 $3 $4 $5 $6 $7 $8 $9 X,Y pos of 4 corners*
0 Add a 4 corners polygon primitive as box body*
4,1,4,$2,$3,$4,$5,$6,$7,$8,$9,$2,$3,0*
0 Add four circle primitives for the rounded corners*
1,1,$1+$1,$2,$3*
1,1,$1+$1,$4,$5*
1,1,$1+$1,$6,$7*
1,1,$1+$1,$8,$9*
0 Add four rect primitives between the rounded corners*
20,1,$1+$1,$2,$3,$4,$5,0*
20,1,$1+$1,$4,$5,$6,$7,0*
20,1,$1+$1,$6,$7,$8,$9,0*
20,1,$1+$1,$8,$9,$2,$3,0*%
G04 Aperture macros list end*
%ADD10C,0.150000*%
%ADD11C,0.200000*%
%ADD12C,0.120000*%
%ADD13RoundRect,0.375000X-0.375000X-0.750000X0.375000X-0.750000X0.375000X0.750000X-0.375000X0.750000X0*%
%ADD14C,2.000000*%
%ADD15C,1.752600*%
G04 APERTURE END LIST*
D10*
%TO.C,PAD1*%
X204597250Y-68066973D02*
X204711536Y-68105068D01*
X204749631Y-68143163D01*
X204787726Y-68219354D01*
X204787726Y-68333639D01*
X204749631Y-68409830D01*
X204711536Y-68447925D01*
X204635346Y-68486020D01*
X204330584Y-68486020D01*
X204330584Y-67686020D01*
X204597250Y-67686020D01*
X204673441Y-67724116D01*
X204711536Y-67762211D01*
X204749631Y-67838401D01*
X204749631Y-67914592D01*
X204711536Y-67990782D01*
X204673441Y-68028877D01*
X204597250Y-68066973D01*
X204330584Y-68066973D01*
X205130584Y-68181258D02*
X205740107Y-68181258D01*
X202597250Y-68066973D02*
X202711536Y-68105068D01*
X202749631Y-68143163D01*
X202787726Y-68219354D01*
X202787726Y-68333639D01*
X202749631Y-68409830D01*
X202711536Y-68447925D01*
X202635346Y-68486020D01*
X202330584Y-68486020D01*
X202330584Y-67686020D01*
X202597250Y-67686020D01*
X202673441Y-67724116D01*
X202711536Y-67762211D01*
X202749631Y-67838401D01*
X202749631Y-67914592D01*
X202711536Y-67990782D01*
X202673441Y-68028877D01*
X202597250Y-68066973D01*
X202330584Y-68066973D01*
X203130584Y-68181258D02*
X203740107Y-68181258D01*
X203435346Y-68486020D02*
X203435346Y-67876496D01*
X206597250Y-68066973D02*
X206711536Y-68105068D01*
X206749631Y-68143163D01*
X206787726Y-68219354D01*
X206787726Y-68333639D01*
X206749631Y-68409830D01*
X206711536Y-68447925D01*
X206635346Y-68486020D01*
X206330584Y-68486020D01*
X206330584Y-67686020D01*
X206597250Y-67686020D01*
X206673441Y-67724116D01*
X206711536Y-67762211D01*
X206749631Y-67838401D01*
X206749631Y-67914592D01*
X206711536Y-67990782D01*
X206673441Y-68028877D01*
X206597250Y-68066973D01*
X206330584Y-68066973D01*
X207130584Y-68181258D02*
X207740107Y-68181258D01*
X207435346Y-68486020D02*
X207435346Y-67876496D01*
%TO.C,B1*%
X196159380Y-79251380D02*
X195683190Y-79584714D01*
X196159380Y-79822809D02*
X195159380Y-79822809D01*
X195159380Y-79441857D01*
X195207000Y-79346619D01*
X195254619Y-79299000D01*
X195349857Y-79251380D01*
X195492714Y-79251380D01*
X195587952Y-79299000D01*
X195635571Y-79346619D01*
X195683190Y-79441857D01*
X195683190Y-79822809D01*
X195635571Y-78822809D02*
X195635571Y-78489476D01*
X196159380Y-78346619D02*
X196159380Y-78822809D01*
X195159380Y-78822809D01*
X195159380Y-78346619D01*
X196111761Y-77965666D02*
X196159380Y-77822809D01*
X196159380Y-77584714D01*
X196111761Y-77489476D01*
X196064142Y-77441857D01*
X195968904Y-77394238D01*
X195873666Y-77394238D01*
X195778428Y-77441857D01*
X195730809Y-77489476D01*
X195683190Y-77584714D01*
X195635571Y-77775190D01*
X195587952Y-77870428D01*
X195540333Y-77918047D01*
X195445095Y-77965666D01*
X195349857Y-77965666D01*
X195254619Y-77918047D01*
X195207000Y-77870428D01*
X195159380Y-77775190D01*
X195159380Y-77537095D01*
X195207000Y-77394238D01*
X195635571Y-76965666D02*
X195635571Y-76632333D01*
X196159380Y-76489476D02*
X196159380Y-76965666D01*
X195159380Y-76965666D01*
X195159380Y-76489476D01*
X195159380Y-76203761D02*
X195159380Y-75632333D01*
X196159380Y-75918047D02*
X195159380Y-75918047D01*
%TO.C,MCU1*%
X203553845Y-129702321D02*
X203172893Y-129968987D01*
X203553845Y-130159464D02*
X202753845Y-130159464D01*
X202753845Y-129854702D01*
X202791941Y-129778511D01*
X202830036Y-129740416D01*
X202906226Y-129702321D01*
X203020512Y-129702321D01*
X203096702Y-129740416D01*
X203134798Y-129778511D01*
X203172893Y-129854702D01*
X203172893Y-130159464D01*
X203515750Y-129397559D02*
X203553845Y-129283273D01*
X203553845Y-129092797D01*
X203515750Y-129016606D01*
X203477655Y-128978511D01*
X203401464Y-128940416D01*
X203325274Y-128940416D01*
X203249083Y-128978511D01*
X203210988Y-129016606D01*
X203172893Y-129092797D01*
X203134798Y-129245178D01*
X203096702Y-129321368D01*
X203058607Y-129359464D01*
X202982417Y-129397559D01*
X202906226Y-129397559D01*
X202830036Y-129359464D01*
X202791941Y-129321368D01*
X202753845Y-129245178D01*
X202753845Y-129054702D01*
X202791941Y-128940416D01*
X202753845Y-128711845D02*
X202753845Y-128254702D01*
X203553845Y-128483273D02*
X202753845Y-128483273D01*
X198516277Y-129739584D02*
X198135325Y-130006251D01*
X198516277Y-130196727D02*
X197716277Y-130196727D01*
X197716277Y-129891965D01*
X197754373Y-129815775D01*
X197792468Y-129777680D01*
X197868658Y-129739584D01*
X197982944Y-129739584D01*
X198059134Y-129777680D01*
X198097230Y-129815775D01*
X198135325Y-129891965D01*
X198135325Y-130196727D01*
X198287706Y-129434823D02*
X198287706Y-129053870D01*
X198516277Y-129511013D02*
X197716277Y-129244346D01*
X198516277Y-128977680D01*
X197716277Y-128787204D02*
X198516277Y-128596727D01*
X197944849Y-128444346D01*
X198516277Y-128291965D01*
X197716277Y-128101489D01*
X200251941Y-129759464D02*
X200213845Y-129835655D01*
X200213845Y-129949941D01*
X200251941Y-130064226D01*
X200328131Y-130140417D01*
X200404321Y-130178512D01*
X200556702Y-130216607D01*
X200670988Y-130216607D01*
X200823369Y-130178512D01*
X200899560Y-130140417D01*
X200975750Y-130064226D01*
X201013845Y-129949941D01*
X201013845Y-129873750D01*
X200975750Y-129759464D01*
X200937655Y-129721369D01*
X200670988Y-129721369D01*
X200670988Y-129873750D01*
X201013845Y-129378512D02*
X200213845Y-129378512D01*
X201013845Y-128921369D01*
X200213845Y-128921369D01*
X201013845Y-128540417D02*
X200213845Y-128540417D01*
X200213845Y-128349941D01*
X200251941Y-128235655D01*
X200328131Y-128159464D01*
X200404321Y-128121369D01*
X200556702Y-128083274D01*
X200670988Y-128083274D01*
X200823369Y-128121369D01*
X200899560Y-128159464D01*
X200975750Y-128235655D01*
X201013845Y-128349941D01*
X201013845Y-128540417D01*
D11*
%TO.C,REF\u002A\u002A*%
X234685699Y-83574751D02*
G75*
G03*
X233223647Y-87594493I18447927J-8985601D01*
G01*
X252415814Y-72052983D02*
G75*
G03*
X248179935Y-72647335I717826J-20507358D01*
G01*
X271581585Y-101545963D02*
G75*
G03*
X273043637Y-97526223I-18447991J8985622D01*
G01*
X262119249Y-74112415D02*
G75*
G03*
X258099507Y-72650363I-8985607J-18447943D01*
G01*
X232626267Y-93278186D02*
G75*
G03*
X233220619Y-97514064I20507327J717823D01*
G01*
X244148037Y-111008302D02*
G75*
G03*
X248167777Y-112470353I8985605J18447944D01*
G01*
X273641018Y-91842530D02*
G75*
G03*
X273046666Y-87606654I-20507396J-717832D01*
G01*
X253851470Y-113067733D02*
G75*
G03*
X258087348Y-112473381I-717828J20507375D01*
G01*
D10*
%TO.C,B1*%
X193957000Y-80799000D02*
X193957000Y-74799000D01*
X197457000Y-80799000D02*
X197457000Y-74799000D01*
X193957000Y-74799000D02*
X194207000Y-74799000D01*
X197457000Y-80799000D02*
X197207000Y-80799000D01*
X197457000Y-74799000D02*
X197207000Y-74799000D01*
X193957000Y-80799000D02*
X194207000Y-80799000D01*
%TO.C,T1*%
X193671762Y-67365501D02*
X196521762Y-67365501D01*
X193671762Y-62115501D02*
X193671762Y-66015501D01*
X196521762Y-67365501D02*
X196521762Y-60765501D01*
X193671762Y-64065501D02*
X193671762Y-60765501D01*
X196521762Y-60765501D02*
X193671762Y-60765501D01*
X193671762Y-64065501D02*
X193671762Y-67365501D01*
D12*
%TO.C,MCU1*%
X199120000Y-133596477D02*
X198440000Y-133596477D01*
X204200000Y-133596477D02*
X203540000Y-133596477D01*
X201660000Y-130796477D02*
X201660000Y-133596477D01*
X202865000Y-133596477D02*
X202200000Y-133596477D01*
X199120000Y-130796477D02*
X199120000Y-133596477D01*
X204200000Y-130796477D02*
X204200000Y-133596477D01*
X201660000Y-133596477D02*
X200990000Y-133596477D01*
X202200000Y-130796477D02*
X204200000Y-130796477D01*
X202200000Y-133596477D02*
X202200000Y-130796477D01*
X197120000Y-133596477D02*
X197120000Y-130796477D01*
X197790000Y-133596477D02*
X197120000Y-133596477D01*
X199660000Y-133596477D02*
X199660000Y-130796477D01*
X200340000Y-133596477D02*
X199660000Y-133596477D01*
X197120000Y-130796477D02*
X199120000Y-130796477D01*
X199660000Y-130796477D02*
X201660000Y-130796477D01*
%TD*%
D13*
%TO.C,PAD1*%
X207035346Y-66324116D03*
X205035346Y-66324116D03*
X203035346Y-66324116D03*
%TD*%
D14*
%TO.C,B1*%
X195707000Y-74549000D03*
X195707000Y-81049000D03*
%TD*%
D15*
%TO.C,MCU1*%
X203200000Y-120015000D03*
X198036254Y-120015000D03*
X200660000Y-120015000D03*
X203200000Y-135255000D03*
X200660000Y-135255000D03*
X198120000Y-135255000D03*
X205740000Y-120015000D03*
X208280000Y-120015000D03*
X210820000Y-120015000D03*
X213360000Y-120015000D03*
X215900000Y-120015000D03*
X218440000Y-120015000D03*
X220980000Y-120015000D03*
X223520000Y-120015000D03*
X226060000Y-120015000D03*
X205740000Y-135255000D03*
X208280000Y-135255000D03*
X210820000Y-135255000D03*
X213360000Y-135255000D03*
X215900000Y-135255000D03*
X218440000Y-135255000D03*
X220980000Y-135255000D03*
X223520000Y-135255000D03*
X226060000Y-135255000D03*
%TD*%
M02*
