M48
; DRILL file {KiCad (6.0.4)} date Sat May 21 01:48:02 2022
; FORMAT={-:-/ absolute / metric / decimal}
; #@! TF.CreationDate,2022-05-21T01:48:02+02:00
; #@! TF.GenerationSoftware,Kicad,Pcbnew,(6.0.4)
; #@! TF.FileFunction,NonPlated,1,2,NPTH
FMAT,2
METRIC
; #@! TA.AperFunction,NonPlated,NPTH,ComponentDrill
T1C0.900
; #@! TA.AperFunction,NonPlated,NPTH,ComponentDrill
T2C1.702
; #@! TA.AperFunction,NonPlated,NPTH,ComponentDrill
T3C3.000
; #@! TA.AperFunction,NonPlated,NPTH,ComponentDrill
T4C3.429
%
G90
G05
T1
X135.92Y120.803
X138.92Y120.803
T2
X47.583Y81.122
X47.583Y81.122
X52.553Y64.865
X52.553Y64.865
X58.102Y84.338
X58.102Y84.338
X63.072Y68.081
X63.072Y68.081
X65.971Y103.79
X65.971Y103.79
X68.923Y87.048
X68.923Y87.048
X71.875Y70.307
X71.875Y70.307
X76.804Y105.7
X76.804Y105.7
X79.756Y88.958
X79.756Y88.958
X82.708Y72.217
X82.708Y72.217
X87.261Y113.57
X87.261Y113.57
X88.743Y96.635
X88.743Y96.635
X90.224Y79.7
X90.224Y79.7
X98.219Y114.529
X98.219Y114.529
X99.701Y97.594
X99.701Y97.594
X101.182Y80.658
X101.182Y80.658
X109.911Y106.686
X109.911Y106.686
X109.911Y89.686
X109.911Y89.686
X109.911Y72.686
X109.911Y72.686
X120.911Y106.686
X120.911Y106.686
X120.911Y89.686
X120.911Y89.686
X120.911Y72.686
X120.911Y72.686
X125.044Y51.797
X125.044Y51.797
X128.718Y94.279
X128.718Y94.279
X128.718Y77.279
X128.718Y77.279
X135.908Y50.077
X135.908Y50.077
X139.718Y94.279
X139.718Y94.279
X139.718Y77.279
X139.718Y77.279
X144.69Y47.475
X144.69Y47.475
X154.739Y43.001
X154.739Y43.001
T3
X46.964Y84.854
X51.103Y88.42
X51.103Y88.42
X51.935Y68.597
X56.073Y72.163
X56.073Y72.163
X56.527Y87.778
X61.498Y71.521
X65.812Y107.57
X68.764Y90.828
X70.354Y110.605
X70.354Y110.605
X71.716Y74.086
X73.306Y93.863
X73.306Y93.863
X75.66Y109.306
X76.258Y77.121
X76.258Y77.121
X78.612Y92.565
X81.564Y75.823
X87.432Y117.349
X88.914Y100.414
X90.395Y83.479
X92.221Y119.977
X92.221Y119.977
X93.703Y103.042
X93.703Y103.042
X95.185Y86.106
X95.185Y86.106
X97.394Y118.221
X98.876Y101.286
X100.357Y84.35
X110.411Y110.436
X110.411Y93.436
X110.411Y76.436
X115.411Y112.636
X115.411Y112.636
X115.411Y95.636
X115.411Y95.636
X115.411Y78.636
X115.411Y78.636
X120.411Y110.436
X120.411Y93.436
X120.411Y76.436
X126.124Y55.423
X129.218Y98.029
X129.218Y81.029
X131.407Y56.814
X131.407Y56.814
X134.218Y100.229
X134.218Y100.229
X134.218Y83.229
X134.218Y83.229
X136.001Y53.859
X139.218Y98.029
X139.218Y81.029
X146.672Y50.698
X152.135Y50.674
X152.135Y50.674
X155.808Y46.63
T4
X52.842Y82.73
X52.842Y82.73
X57.813Y66.473
X57.813Y66.473
X71.387Y104.745
X71.387Y104.745
X74.339Y88.003
X74.339Y88.003
X77.291Y71.262
X77.291Y71.262
X92.74Y114.049
X92.74Y114.049
X94.222Y97.114
X94.222Y97.114
X95.703Y80.179
X95.703Y80.179
X115.411Y106.686
X115.411Y106.686
X115.411Y89.686
X115.411Y89.686
X115.411Y72.686
X115.411Y72.686
X130.476Y50.937
X130.476Y50.937
X134.218Y94.279
X134.218Y94.279
X134.218Y77.279
X134.218Y77.279
X149.715Y45.238
X149.715Y45.238
T0
M30
