  0
SECTION
  2
HEADER
  9
$ANGBASE
  50
0.0
  9
$ANGDIR
  70
1
  9
$MEASUREMENT
  70
1
  0
ENDSEC
  0
SECTION
  2
TABLES
  0
TABLE
  2
LTYPE
  70
4
  0
LTYPE
  5
40F
  2
CONTINUOUS
  70
0
  3
Solid line
  72
65
  73
0
  40
0.0
  0
LTYPE
  5
410
  2
DASHDOT
 70
0
  3
Dash Dot ____ _ ____ _
 72
65
 73
4
 40
2.0
 49
1.25
 49
-0.25
 49
0.25
 49
-0.25
  0
LTYPE
  5
411
  2
DASHED
 70
0
  3
Dashed __ __ __ __ __
 72
65
 73
2
 40
0.75
 49
0.5
 49
-0.25
  0
LTYPE
  5
43B
  2
DOTTED
 70
0
  3
Dotted .  .  .  .
 72
65
 73
2
 40
0.2
 49
0.0
 49
-0.2
  0
ENDTAB
  0
TABLE
  2
STYLE
  70
4
  0
STYLE
  2
KICAD
  70
0
  40
0
  41
1
  42
1
  50
0
  71
0
  3
isocp.shx
  0
STYLE
  2
KICADB
  70
0
  40
0
  41
1
  42
1
  50
0
  71
0
  3
isocp.shx
  0
STYLE
  2
KICADI
  70
0
  40
0
  41
1
  42
1
  50
15
  71
0
  3
isocp.shx
  0
STYLE
  2
KICADBI
  70
0
  40
0
  41
1
  42
1
  50
15
  71
0
  3
isocp.shx
  0
ENDTAB
  0
TABLE
  2
LAYER
  70
1
  0
LAYER
  2
BLACK
  70
0
  62
7
  6
CONTINUOUS
  0
ENDTAB
  0
ENDSEC
  0
SECTION
  2
ENTITIES
0
LINE
8
BLACK
6
CONTINUOUS
10
197.803
20
-147.196
11
301.991
21
-147.196
0
ARC
8
BLACK
10
197.803
20
-144.196
40
2.99997
50
-180.001
51
-89.9998
0
LINE
8
BLACK
6
CONTINUOUS
10
197.803
20
-56.5814
11
301.991
21
-56.5814
0
ARC
8
BLACK
10
301.991
20
-144.196
40
2.9999
50
-90.0019
51
0.000630274
0
LINE
8
BLACK
6
CONTINUOUS
10
194.803
20
-144.196
11
194.803
21
-59.5814
0
LINE
8
BLACK
6
CONTINUOUS
10
304.991
20
-144.196
11
304.991
21
-59.5814
0
ARC
8
BLACK
10
301.991
20
-59.5814
40
2.99998
50
-0.000420169
51
90
0
CIRCLE
8
BLACK
10
258.775
20
-98.525
40
21.434
0
ARC
8
BLACK
10
197.803
20
-59.5814
40
2.99999
50
-270
51
-180
0
LINE
8
BLACK
6
CONTINUOUS
10
199.16
20
-122.96
11
202.16
21
-125.96
0
LINE
8
BLACK
6
CONTINUOUS
10
202.16
20
-122.96
11
199.16
21
-125.96
0
LINE
8
BLACK
6
CONTINUOUS
10
215.416
20
-60.984
11
218.416
21
-63.984
0
LINE
8
BLACK
6
CONTINUOUS
10
218.416
20
-60.984
11
215.416
21
-63.984
0
LINE
8
BLACK
6
CONTINUOUS
10
296.188
20
-60.984
11
299.188
21
-63.984
0
LINE
8
BLACK
6
CONTINUOUS
10
299.188
20
-60.984
11
296.188
21
-63.984
0
LINE
8
BLACK
6
CONTINUOUS
10
296.696
20
-123.214
11
299.696
21
-126.214
0
LINE
8
BLACK
6
CONTINUOUS
10
299.696
20
-123.214
11
296.696
21
-126.214
0
LINE
8
BLACK
6
CONTINUOUS
10
197.304
20
-150.376
11
197.304
21
-148.376
0
LINE
8
BLACK
6
CONTINUOUS
10
197.304
20
-148.376
11
197.781
21
-148.376
0
LINE
8
BLACK
6
CONTINUOUS
10
197.781
20
-148.376
11
198.066
21
-148.471
0
LINE
8
BLACK
6
CONTINUOUS
10
198.066
20
-148.471
11
198.257
21
-148.662
0
LINE
8
BLACK
6
CONTINUOUS
10
198.257
20
-148.662
11
198.352
21
-148.852
0
LINE
8
BLACK
6
CONTINUOUS
10
198.352
20
-148.852
11
198.447
21
-149.233
0
LINE
8
BLACK
6
CONTINUOUS
10
198.447
20
-149.233
11
198.447
21
-149.519
0
LINE
8
BLACK
6
CONTINUOUS
10
198.447
20
-149.519
11
198.352
21
-149.9
0
LINE
8
BLACK
6
CONTINUOUS
10
198.352
20
-149.9
11
198.257
21
-150.09
0
LINE
8
BLACK
6
CONTINUOUS
10
198.257
20
-150.09
11
198.066
21
-150.281
0
LINE
8
BLACK
6
CONTINUOUS
10
198.066
20
-150.281
11
197.781
21
-150.376
0
LINE
8
BLACK
6
CONTINUOUS
10
197.781
20
-150.376
11
197.304
21
-150.376
0
LINE
8
BLACK
6
CONTINUOUS
10
199.304
20
-150.376
11
199.304
21
-149.043
0
LINE
8
BLACK
6
CONTINUOUS
10
199.304
20
-149.424
11
199.4
21
-149.233
0
LINE
8
BLACK
6
CONTINUOUS
10
199.4
20
-149.233
11
199.495
21
-149.138
0
LINE
8
BLACK
6
CONTINUOUS
10
199.495
20
-149.138
11
199.685
21
-149.043
0
LINE
8
BLACK
6
CONTINUOUS
10
199.685
20
-149.043
11
199.876
21
-149.043
0
LINE
8
BLACK
6
CONTINUOUS
10
200.542
20
-150.376
11
200.542
21
-149.043
0
LINE
8
BLACK
6
CONTINUOUS
10
200.542
20
-148.376
11
200.447
21
-148.471
0
LINE
8
BLACK
6
CONTINUOUS
10
200.447
20
-148.471
11
200.542
21
-148.567
0
LINE
8
BLACK
6
CONTINUOUS
10
200.542
20
-148.567
11
200.638
21
-148.471
0
LINE
8
BLACK
6
CONTINUOUS
10
200.638
20
-148.471
11
200.542
21
-148.376
0
LINE
8
BLACK
6
CONTINUOUS
10
200.542
20
-148.376
11
200.542
21
-148.567
0
LINE
8
BLACK
6
CONTINUOUS
10
201.781
20
-150.376
11
201.59
21
-150.281
0
LINE
8
BLACK
6
CONTINUOUS
10
201.59
20
-150.281
11
201.495
21
-150.09
0
LINE
8
BLACK
6
CONTINUOUS
10
201.495
20
-150.09
11
201.495
21
-148.376
0
LINE
8
BLACK
6
CONTINUOUS
10
202.828
20
-150.376
11
202.638
21
-150.281
0
LINE
8
BLACK
6
CONTINUOUS
10
202.638
20
-150.281
11
202.542
21
-150.09
0
LINE
8
BLACK
6
CONTINUOUS
10
202.542
20
-150.09
11
202.542
21
-148.376
0
LINE
8
BLACK
6
CONTINUOUS
10
205.114
20
-150.376
11
205.114
21
-148.376
0
LINE
8
BLACK
6
CONTINUOUS
10
205.114
20
-148.376
11
205.781
21
-149.805
0
LINE
8
BLACK
6
CONTINUOUS
10
205.781
20
-149.805
11
206.447
21
-148.376
0
LINE
8
BLACK
6
CONTINUOUS
10
206.447
20
-148.376
11
206.447
21
-150.376
0
LINE
8
BLACK
6
CONTINUOUS
10
208.257
20
-150.376
11
208.257
21
-149.329
0
LINE
8
BLACK
6
CONTINUOUS
10
208.257
20
-149.329
11
208.162
21
-149.138
0
LINE
8
BLACK
6
CONTINUOUS
10
208.162
20
-149.138
11
207.971
21
-149.043
0
LINE
8
BLACK
6
CONTINUOUS
10
207.971
20
-149.043
11
207.59
21
-149.043
0
LINE
8
BLACK
6
CONTINUOUS
10
207.59
20
-149.043
11
207.4
21
-149.138
0
LINE
8
BLACK
6
CONTINUOUS
10
208.257
20
-150.281
11
208.066
21
-150.376
0
LINE
8
BLACK
6
CONTINUOUS
10
208.066
20
-150.376
11
207.59
21
-150.376
0
LINE
8
BLACK
6
CONTINUOUS
10
207.59
20
-150.376
11
207.4
21
-150.281
0
LINE
8
BLACK
6
CONTINUOUS
10
207.4
20
-150.281
11
207.304
21
-150.09
0
LINE
8
BLACK
6
CONTINUOUS
10
207.304
20
-150.09
11
207.304
21
-149.9
0
LINE
8
BLACK
6
CONTINUOUS
10
207.304
20
-149.9
11
207.4
21
-149.709
0
LINE
8
BLACK
6
CONTINUOUS
10
207.4
20
-149.709
11
207.59
21
-149.614
0
LINE
8
BLACK
6
CONTINUOUS
10
207.59
20
-149.614
11
208.066
21
-149.614
0
LINE
8
BLACK
6
CONTINUOUS
10
208.066
20
-149.614
11
208.257
21
-149.519
0
LINE
8
BLACK
6
CONTINUOUS
10
209.209
20
-149.043
11
209.209
21
-151.043
0
LINE
8
BLACK
6
CONTINUOUS
10
209.209
20
-149.138
11
209.4
21
-149.043
0
LINE
8
BLACK
6
CONTINUOUS
10
209.4
20
-149.043
11
209.781
21
-149.043
0
LINE
8
BLACK
6
CONTINUOUS
10
209.781
20
-149.043
11
209.971
21
-149.138
0
LINE
8
BLACK
6
CONTINUOUS
10
209.971
20
-149.138
11
210.066
21
-149.233
0
LINE
8
BLACK
6
CONTINUOUS
10
210.066
20
-149.233
11
210.162
21
-149.424
0
LINE
8
BLACK
6
CONTINUOUS
10
210.162
20
-149.424
11
210.162
21
-149.995
0
LINE
8
BLACK
6
CONTINUOUS
10
210.162
20
-149.995
11
210.066
21
-150.186
0
LINE
8
BLACK
6
CONTINUOUS
10
210.066
20
-150.186
11
209.971
21
-150.281
0
LINE
8
BLACK
6
CONTINUOUS
10
209.971
20
-150.281
11
209.781
21
-150.376
0
LINE
8
BLACK
6
CONTINUOUS
10
209.781
20
-150.376
11
209.4
21
-150.376
0
LINE
8
BLACK
6
CONTINUOUS
10
209.4
20
-150.376
11
209.209
21
-150.281
0
LINE
8
BLACK
6
CONTINUOUS
10
211.019
20
-150.186
11
211.114
21
-150.281
0
LINE
8
BLACK
6
CONTINUOUS
10
211.114
20
-150.281
11
211.019
21
-150.376
0
LINE
8
BLACK
6
CONTINUOUS
10
211.019
20
-150.376
11
210.923
21
-150.281
0
LINE
8
BLACK
6
CONTINUOUS
10
210.923
20
-150.281
11
211.019
21
-150.186
0
LINE
8
BLACK
6
CONTINUOUS
10
211.019
20
-150.186
11
211.019
21
-150.376
0
LINE
8
BLACK
6
CONTINUOUS
10
211.019
20
-149.138
11
211.114
21
-149.233
0
LINE
8
BLACK
6
CONTINUOUS
10
211.114
20
-149.233
11
211.019
21
-149.329
0
LINE
8
BLACK
6
CONTINUOUS
10
211.019
20
-149.329
11
210.923
21
-149.233
0
LINE
8
BLACK
6
CONTINUOUS
10
210.923
20
-149.233
11
211.019
21
-149.138
0
LINE
8
BLACK
6
CONTINUOUS
10
211.019
20
-149.138
11
211.019
21
-149.329
0
LINE
8
BLACK
6
CONTINUOUS
10
192.728
20
-152.671
11
194.728
21
-154.671
0
LINE
8
BLACK
6
CONTINUOUS
10
194.728
20
-152.671
11
192.728
21
-154.671
0
LINE
8
BLACK
6
CONTINUOUS
10
197.114
20
-152.576
11
198.352
21
-152.576
0
LINE
8
BLACK
6
CONTINUOUS
10
198.352
20
-152.576
11
197.685
21
-153.338
0
LINE
8
BLACK
6
CONTINUOUS
10
197.685
20
-153.338
11
197.971
21
-153.338
0
LINE
8
BLACK
6
CONTINUOUS
10
197.971
20
-153.338
11
198.162
21
-153.433
0
LINE
8
BLACK
6
CONTINUOUS
10
198.162
20
-153.433
11
198.257
21
-153.529
0
LINE
8
BLACK
6
CONTINUOUS
10
198.257
20
-153.529
11
198.352
21
-153.719
0
LINE
8
BLACK
6
CONTINUOUS
10
198.352
20
-153.719
11
198.352
21
-154.195
0
LINE
8
BLACK
6
CONTINUOUS
10
198.352
20
-154.195
11
198.257
21
-154.386
0
LINE
8
BLACK
6
CONTINUOUS
10
198.257
20
-154.386
11
198.162
21
-154.481
0
LINE
8
BLACK
6
CONTINUOUS
10
198.162
20
-154.481
11
197.971
21
-154.576
0
LINE
8
BLACK
6
CONTINUOUS
10
197.971
20
-154.576
11
197.4
21
-154.576
0
LINE
8
BLACK
6
CONTINUOUS
10
197.4
20
-154.576
11
197.209
21
-154.481
0
LINE
8
BLACK
6
CONTINUOUS
10
197.209
20
-154.481
11
197.114
21
-154.386
0
LINE
8
BLACK
6
CONTINUOUS
10
199.209
20
-154.386
11
199.304
21
-154.481
0
LINE
8
BLACK
6
CONTINUOUS
10
199.304
20
-154.481
11
199.209
21
-154.576
0
LINE
8
BLACK
6
CONTINUOUS
10
199.209
20
-154.576
11
199.114
21
-154.481
0
LINE
8
BLACK
6
CONTINUOUS
10
199.114
20
-154.481
11
199.209
21
-154.386
0
LINE
8
BLACK
6
CONTINUOUS
10
199.209
20
-154.386
11
199.209
21
-154.576
0
LINE
8
BLACK
6
CONTINUOUS
10
200.542
20
-152.576
11
200.733
21
-152.576
0
LINE
8
BLACK
6
CONTINUOUS
10
200.733
20
-152.576
11
200.923
21
-152.671
0
LINE
8
BLACK
6
CONTINUOUS
10
200.923
20
-152.671
11
201.019
21
-152.767
0
LINE
8
BLACK
6
CONTINUOUS
10
201.019
20
-152.767
11
201.114
21
-152.957
0
LINE
8
BLACK
6
CONTINUOUS
10
201.114
20
-152.957
11
201.209
21
-153.338
0
LINE
8
BLACK
6
CONTINUOUS
10
201.209
20
-153.338
11
201.209
21
-153.814
0
LINE
8
BLACK
6
CONTINUOUS
10
201.209
20
-153.814
11
201.114
21
-154.195
0
LINE
8
BLACK
6
CONTINUOUS
10
201.114
20
-154.195
11
201.019
21
-154.386
0
LINE
8
BLACK
6
CONTINUOUS
10
201.019
20
-154.386
11
200.923
21
-154.481
0
LINE
8
BLACK
6
CONTINUOUS
10
200.923
20
-154.481
11
200.733
21
-154.576
0
LINE
8
BLACK
6
CONTINUOUS
10
200.733
20
-154.576
11
200.542
21
-154.576
0
LINE
8
BLACK
6
CONTINUOUS
10
200.542
20
-154.576
11
200.352
21
-154.481
0
LINE
8
BLACK
6
CONTINUOUS
10
200.352
20
-154.481
11
200.257
21
-154.386
0
LINE
8
BLACK
6
CONTINUOUS
10
200.257
20
-154.386
11
200.162
21
-154.195
0
LINE
8
BLACK
6
CONTINUOUS
10
200.162
20
-154.195
11
200.066
21
-153.814
0
LINE
8
BLACK
6
CONTINUOUS
10
200.066
20
-153.814
11
200.066
21
-153.338
0
LINE
8
BLACK
6
CONTINUOUS
10
200.066
20
-153.338
11
200.162
21
-152.957
0
LINE
8
BLACK
6
CONTINUOUS
10
200.162
20
-152.957
11
200.257
21
-152.767
0
LINE
8
BLACK
6
CONTINUOUS
10
200.257
20
-152.767
11
200.352
21
-152.671
0
LINE
8
BLACK
6
CONTINUOUS
10
200.352
20
-152.671
11
200.542
21
-152.576
0
LINE
8
BLACK
6
CONTINUOUS
10
202.447
20
-152.576
11
202.638
21
-152.576
0
LINE
8
BLACK
6
CONTINUOUS
10
202.638
20
-152.576
11
202.828
21
-152.671
0
LINE
8
BLACK
6
CONTINUOUS
10
202.828
20
-152.671
11
202.923
21
-152.767
0
LINE
8
BLACK
6
CONTINUOUS
10
202.923
20
-152.767
11
203.019
21
-152.957
0
LINE
8
BLACK
6
CONTINUOUS
10
203.019
20
-152.957
11
203.114
21
-153.338
0
LINE
8
BLACK
6
CONTINUOUS
10
203.114
20
-153.338
11
203.114
21
-153.814
0
LINE
8
BLACK
6
CONTINUOUS
10
203.114
20
-153.814
11
203.019
21
-154.195
0
LINE
8
BLACK
6
CONTINUOUS
10
203.019
20
-154.195
11
202.923
21
-154.386
0
LINE
8
BLACK
6
CONTINUOUS
10
202.923
20
-154.386
11
202.828
21
-154.481
0
LINE
8
BLACK
6
CONTINUOUS
10
202.828
20
-154.481
11
202.638
21
-154.576
0
LINE
8
BLACK
6
CONTINUOUS
10
202.638
20
-154.576
11
202.447
21
-154.576
0
LINE
8
BLACK
6
CONTINUOUS
10
202.447
20
-154.576
11
202.257
21
-154.481
0
LINE
8
BLACK
6
CONTINUOUS
10
202.257
20
-154.481
11
202.162
21
-154.386
0
LINE
8
BLACK
6
CONTINUOUS
10
202.162
20
-154.386
11
202.066
21
-154.195
0
LINE
8
BLACK
6
CONTINUOUS
10
202.066
20
-154.195
11
201.971
21
-153.814
0
LINE
8
BLACK
6
CONTINUOUS
10
201.971
20
-153.814
11
201.971
21
-153.338
0
LINE
8
BLACK
6
CONTINUOUS
10
201.971
20
-153.338
11
202.066
21
-152.957
0
LINE
8
BLACK
6
CONTINUOUS
10
202.066
20
-152.957
11
202.162
21
-152.767
0
LINE
8
BLACK
6
CONTINUOUS
10
202.162
20
-152.767
11
202.257
21
-152.671
0
LINE
8
BLACK
6
CONTINUOUS
10
202.257
20
-152.671
11
202.447
21
-152.576
0
LINE
8
BLACK
6
CONTINUOUS
10
204.352
20
-152.576
11
204.542
21
-152.576
0
LINE
8
BLACK
6
CONTINUOUS
10
204.542
20
-152.576
11
204.733
21
-152.671
0
LINE
8
BLACK
6
CONTINUOUS
10
204.733
20
-152.671
11
204.828
21
-152.767
0
LINE
8
BLACK
6
CONTINUOUS
10
204.828
20
-152.767
11
204.923
21
-152.957
0
LINE
8
BLACK
6
CONTINUOUS
10
204.923
20
-152.957
11
205.019
21
-153.338
0
LINE
8
BLACK
6
CONTINUOUS
10
205.019
20
-153.338
11
205.019
21
-153.814
0
LINE
8
BLACK
6
CONTINUOUS
10
205.019
20
-153.814
11
204.923
21
-154.195
0
LINE
8
BLACK
6
CONTINUOUS
10
204.923
20
-154.195
11
204.828
21
-154.386
0
LINE
8
BLACK
6
CONTINUOUS
10
204.828
20
-154.386
11
204.733
21
-154.481
0
LINE
8
BLACK
6
CONTINUOUS
10
204.733
20
-154.481
11
204.542
21
-154.576
0
LINE
8
BLACK
6
CONTINUOUS
10
204.542
20
-154.576
11
204.352
21
-154.576
0
LINE
8
BLACK
6
CONTINUOUS
10
204.352
20
-154.576
11
204.162
21
-154.481
0
LINE
8
BLACK
6
CONTINUOUS
10
204.162
20
-154.481
11
204.066
21
-154.386
0
LINE
8
BLACK
6
CONTINUOUS
10
204.066
20
-154.386
11
203.971
21
-154.195
0
LINE
8
BLACK
6
CONTINUOUS
10
203.971
20
-154.195
11
203.876
21
-153.814
0
LINE
8
BLACK
6
CONTINUOUS
10
203.876
20
-153.814
11
203.876
21
-153.338
0
LINE
8
BLACK
6
CONTINUOUS
10
203.876
20
-153.338
11
203.971
21
-152.957
0
LINE
8
BLACK
6
CONTINUOUS
10
203.971
20
-152.957
11
204.066
21
-152.767
0
LINE
8
BLACK
6
CONTINUOUS
10
204.066
20
-152.767
11
204.162
21
-152.671
0
LINE
8
BLACK
6
CONTINUOUS
10
204.162
20
-152.671
11
204.352
21
-152.576
0
LINE
8
BLACK
6
CONTINUOUS
10
205.876
20
-154.576
11
205.876
21
-153.243
0
LINE
8
BLACK
6
CONTINUOUS
10
205.876
20
-153.433
11
205.971
21
-153.338
0
LINE
8
BLACK
6
CONTINUOUS
10
205.971
20
-153.338
11
206.162
21
-153.243
0
LINE
8
BLACK
6
CONTINUOUS
10
206.162
20
-153.243
11
206.447
21
-153.243
0
LINE
8
BLACK
6
CONTINUOUS
10
206.447
20
-153.243
11
206.638
21
-153.338
0
LINE
8
BLACK
6
CONTINUOUS
10
206.638
20
-153.338
11
206.733
21
-153.529
0
LINE
8
BLACK
6
CONTINUOUS
10
206.733
20
-153.529
11
206.733
21
-154.576
0
LINE
8
BLACK
6
CONTINUOUS
10
206.733
20
-153.529
11
206.828
21
-153.338
0
LINE
8
BLACK
6
CONTINUOUS
10
206.828
20
-153.338
11
207.019
21
-153.243
0
LINE
8
BLACK
6
CONTINUOUS
10
207.019
20
-153.243
11
207.304
21
-153.243
0
LINE
8
BLACK
6
CONTINUOUS
10
207.304
20
-153.243
11
207.495
21
-153.338
0
LINE
8
BLACK
6
CONTINUOUS
10
207.495
20
-153.338
11
207.59
21
-153.529
0
LINE
8
BLACK
6
CONTINUOUS
10
207.59
20
-153.529
11
207.59
21
-154.576
0
LINE
8
BLACK
6
CONTINUOUS
10
208.542
20
-154.576
11
208.542
21
-153.243
0
LINE
8
BLACK
6
CONTINUOUS
10
208.542
20
-153.433
11
208.638
21
-153.338
0
LINE
8
BLACK
6
CONTINUOUS
10
208.638
20
-153.338
11
208.828
21
-153.243
0
LINE
8
BLACK
6
CONTINUOUS
10
208.828
20
-153.243
11
209.114
21
-153.243
0
LINE
8
BLACK
6
CONTINUOUS
10
209.114
20
-153.243
11
209.304
21
-153.338
0
LINE
8
BLACK
6
CONTINUOUS
10
209.304
20
-153.338
11
209.4
21
-153.529
0
LINE
8
BLACK
6
CONTINUOUS
10
209.4
20
-153.529
11
209.4
21
-154.576
0
LINE
8
BLACK
6
CONTINUOUS
10
209.4
20
-153.529
11
209.495
21
-153.338
0
LINE
8
BLACK
6
CONTINUOUS
10
209.495
20
-153.338
11
209.685
21
-153.243
0
LINE
8
BLACK
6
CONTINUOUS
10
209.685
20
-153.243
11
209.971
21
-153.243
0
LINE
8
BLACK
6
CONTINUOUS
10
209.971
20
-153.243
11
210.162
21
-153.338
0
LINE
8
BLACK
6
CONTINUOUS
10
210.162
20
-153.338
11
210.257
21
-153.529
0
LINE
8
BLACK
6
CONTINUOUS
10
210.257
20
-153.529
11
210.257
21
-154.576
0
LINE
8
BLACK
6
CONTINUOUS
10
214.162
20
-152.481
11
212.447
21
-155.052
0
LINE
8
BLACK
6
CONTINUOUS
10
216.733
20
-152.576
11
216.923
21
-152.576
0
LINE
8
BLACK
6
CONTINUOUS
10
216.923
20
-152.576
11
217.114
21
-152.671
0
LINE
8
BLACK
6
CONTINUOUS
10
217.114
20
-152.671
11
217.209
21
-152.767
0
LINE
8
BLACK
6
CONTINUOUS
10
217.209
20
-152.767
11
217.304
21
-152.957
0
LINE
8
BLACK
6
CONTINUOUS
10
217.304
20
-152.957
11
217.4
21
-153.338
0
LINE
8
BLACK
6
CONTINUOUS
10
217.4
20
-153.338
11
217.4
21
-153.814
0
LINE
8
BLACK
6
CONTINUOUS
10
217.4
20
-153.814
11
217.304
21
-154.195
0
LINE
8
BLACK
6
CONTINUOUS
10
217.304
20
-154.195
11
217.209
21
-154.386
0
LINE
8
BLACK
6
CONTINUOUS
10
217.209
20
-154.386
11
217.114
21
-154.481
0
LINE
8
BLACK
6
CONTINUOUS
10
217.114
20
-154.481
11
216.923
21
-154.576
0
LINE
8
BLACK
6
CONTINUOUS
10
216.923
20
-154.576
11
216.733
21
-154.576
0
LINE
8
BLACK
6
CONTINUOUS
10
216.733
20
-154.576
11
216.542
21
-154.481
0
LINE
8
BLACK
6
CONTINUOUS
10
216.542
20
-154.481
11
216.447
21
-154.386
0
LINE
8
BLACK
6
CONTINUOUS
10
216.447
20
-154.386
11
216.352
21
-154.195
0
LINE
8
BLACK
6
CONTINUOUS
10
216.352
20
-154.195
11
216.257
21
-153.814
0
LINE
8
BLACK
6
CONTINUOUS
10
216.257
20
-153.814
11
216.257
21
-153.338
0
LINE
8
BLACK
6
CONTINUOUS
10
216.257
20
-153.338
11
216.352
21
-152.957
0
LINE
8
BLACK
6
CONTINUOUS
10
216.352
20
-152.957
11
216.447
21
-152.767
0
LINE
8
BLACK
6
CONTINUOUS
10
216.447
20
-152.767
11
216.542
21
-152.671
0
LINE
8
BLACK
6
CONTINUOUS
10
216.542
20
-152.671
11
216.733
21
-152.576
0
LINE
8
BLACK
6
CONTINUOUS
10
218.257
20
-154.386
11
218.352
21
-154.481
0
LINE
8
BLACK
6
CONTINUOUS
10
218.352
20
-154.481
11
218.257
21
-154.576
0
LINE
8
BLACK
6
CONTINUOUS
10
218.257
20
-154.576
11
218.162
21
-154.481
0
LINE
8
BLACK
6
CONTINUOUS
10
218.162
20
-154.481
11
218.257
21
-154.386
0
LINE
8
BLACK
6
CONTINUOUS
10
218.257
20
-154.386
11
218.257
21
-154.576
0
LINE
8
BLACK
6
CONTINUOUS
10
220.257
20
-154.576
11
219.114
21
-154.576
0
LINE
8
BLACK
6
CONTINUOUS
10
219.685
20
-154.576
11
219.685
21
-152.576
0
LINE
8
BLACK
6
CONTINUOUS
10
219.685
20
-152.576
11
219.495
21
-152.862
0
LINE
8
BLACK
6
CONTINUOUS
10
219.495
20
-152.862
11
219.304
21
-153.052
0
LINE
8
BLACK
6
CONTINUOUS
10
219.304
20
-153.052
11
219.114
21
-153.148
0
LINE
8
BLACK
6
CONTINUOUS
10
222.162
20
-154.576
11
221.019
21
-154.576
0
LINE
8
BLACK
6
CONTINUOUS
10
221.59
20
-154.576
11
221.59
21
-152.576
0
LINE
8
BLACK
6
CONTINUOUS
10
221.59
20
-152.576
11
221.4
21
-152.862
0
LINE
8
BLACK
6
CONTINUOUS
10
221.4
20
-152.862
11
221.209
21
-153.052
0
LINE
8
BLACK
6
CONTINUOUS
10
221.209
20
-153.052
11
221.019
21
-153.148
0
LINE
8
BLACK
6
CONTINUOUS
10
223.304
20
-153.433
11
223.114
21
-153.338
0
LINE
8
BLACK
6
CONTINUOUS
10
223.114
20
-153.338
11
223.019
21
-153.243
0
LINE
8
BLACK
6
CONTINUOUS
10
223.019
20
-153.243
11
222.923
21
-153.052
0
LINE
8
BLACK
6
CONTINUOUS
10
222.923
20
-153.052
11
222.923
21
-152.957
0
LINE
8
BLACK
6
CONTINUOUS
10
222.923
20
-152.957
11
223.019
21
-152.767
0
LINE
8
BLACK
6
CONTINUOUS
10
223.019
20
-152.767
11
223.114
21
-152.671
0
LINE
8
BLACK
6
CONTINUOUS
10
223.114
20
-152.671
11
223.304
21
-152.576
0
LINE
8
BLACK
6
CONTINUOUS
10
223.304
20
-152.576
11
223.685
21
-152.576
0
LINE
8
BLACK
6
CONTINUOUS
10
223.685
20
-152.576
11
223.876
21
-152.671
0
LINE
8
BLACK
6
CONTINUOUS
10
223.876
20
-152.671
11
223.971
21
-152.767
0
LINE
8
BLACK
6
CONTINUOUS
10
223.971
20
-152.767
11
224.066
21
-152.957
0
LINE
8
BLACK
6
CONTINUOUS
10
224.066
20
-152.957
11
224.066
21
-153.052
0
LINE
8
BLACK
6
CONTINUOUS
10
224.066
20
-153.052
11
223.971
21
-153.243
0
LINE
8
BLACK
6
CONTINUOUS
10
223.971
20
-153.243
11
223.876
21
-153.338
0
LINE
8
BLACK
6
CONTINUOUS
10
223.876
20
-153.338
11
223.685
21
-153.433
0
LINE
8
BLACK
6
CONTINUOUS
10
223.685
20
-153.433
11
223.304
21
-153.433
0
LINE
8
BLACK
6
CONTINUOUS
10
223.304
20
-153.433
11
223.114
21
-153.529
0
LINE
8
BLACK
6
CONTINUOUS
10
223.114
20
-153.529
11
223.019
21
-153.624
0
LINE
8
BLACK
6
CONTINUOUS
10
223.019
20
-153.624
11
222.923
21
-153.814
0
LINE
8
BLACK
6
CONTINUOUS
10
222.923
20
-153.814
11
222.923
21
-154.195
0
LINE
8
BLACK
6
CONTINUOUS
10
222.923
20
-154.195
11
223.019
21
-154.386
0
LINE
8
BLACK
6
CONTINUOUS
10
223.019
20
-154.386
11
223.114
21
-154.481
0
LINE
8
BLACK
6
CONTINUOUS
10
223.114
20
-154.481
11
223.304
21
-154.576
0
LINE
8
BLACK
6
CONTINUOUS
10
223.304
20
-154.576
11
223.685
21
-154.576
0
LINE
8
BLACK
6
CONTINUOUS
10
223.685
20
-154.576
11
223.876
21
-154.481
0
LINE
8
BLACK
6
CONTINUOUS
10
223.876
20
-154.481
11
223.971
21
-154.386
0
LINE
8
BLACK
6
CONTINUOUS
10
223.971
20
-154.386
11
224.066
21
-154.195
0
LINE
8
BLACK
6
CONTINUOUS
10
224.066
20
-154.195
11
224.066
21
-153.814
0
LINE
8
BLACK
6
CONTINUOUS
10
224.066
20
-153.814
11
223.971
21
-153.624
0
LINE
8
BLACK
6
CONTINUOUS
10
223.971
20
-153.624
11
223.876
21
-153.529
0
LINE
8
BLACK
6
CONTINUOUS
10
223.876
20
-153.529
11
223.685
21
-153.433
0
LINE
8
BLACK
6
CONTINUOUS
10
225.971
20
-154.576
11
224.828
21
-154.576
0
LINE
8
BLACK
6
CONTINUOUS
10
225.4
20
-154.576
11
225.4
21
-152.576
0
LINE
8
BLACK
6
CONTINUOUS
10
225.4
20
-152.576
11
225.209
21
-152.862
0
LINE
8
BLACK
6
CONTINUOUS
10
225.209
20
-152.862
11
225.019
21
-153.052
0
LINE
8
BLACK
6
CONTINUOUS
10
225.019
20
-153.052
11
224.828
21
-153.148
0
LINE
8
BLACK
6
CONTINUOUS
10
226.733
20
-152.576
11
226.733
21
-152.957
0
LINE
8
BLACK
6
CONTINUOUS
10
227.495
20
-152.576
11
227.495
21
-152.957
0
LINE
8
BLACK
6
CONTINUOUS
10
230.447
20
-155.338
11
230.352
21
-155.243
0
LINE
8
BLACK
6
CONTINUOUS
10
230.352
20
-155.243
11
230.162
21
-154.957
0
LINE
8
BLACK
6
CONTINUOUS
10
230.162
20
-154.957
11
230.066
21
-154.767
0
LINE
8
BLACK
6
CONTINUOUS
10
230.066
20
-154.767
11
229.971
21
-154.481
0
LINE
8
BLACK
6
CONTINUOUS
10
229.971
20
-154.481
11
229.876
21
-154.005
0
LINE
8
BLACK
6
CONTINUOUS
10
229.876
20
-154.005
11
229.876
21
-153.624
0
LINE
8
BLACK
6
CONTINUOUS
10
229.876
20
-153.624
11
229.971
21
-153.148
0
LINE
8
BLACK
6
CONTINUOUS
10
229.971
20
-153.148
11
230.066
21
-152.862
0
LINE
8
BLACK
6
CONTINUOUS
10
230.066
20
-152.862
11
230.162
21
-152.671
0
LINE
8
BLACK
6
CONTINUOUS
10
230.162
20
-152.671
11
230.352
21
-152.386
0
LINE
8
BLACK
6
CONTINUOUS
10
230.352
20
-152.386
11
230.447
21
-152.29
0
LINE
8
BLACK
6
CONTINUOUS
10
232.066
20
-153.243
11
232.066
21
-154.576
0
LINE
8
BLACK
6
CONTINUOUS
10
231.59
20
-152.481
11
231.114
21
-153.909
0
LINE
8
BLACK
6
CONTINUOUS
10
231.114
20
-153.909
11
232.352
21
-153.909
0
LINE
8
BLACK
6
CONTINUOUS
10
234.638
20
-154.576
11
234.638
21
-152.576
0
LINE
8
BLACK
6
CONTINUOUS
10
235.495
20
-154.576
11
235.495
21
-153.529
0
LINE
8
BLACK
6
CONTINUOUS
10
235.495
20
-153.529
11
235.4
21
-153.338
0
LINE
8
BLACK
6
CONTINUOUS
10
235.4
20
-153.338
11
235.209
21
-153.243
0
LINE
8
BLACK
6
CONTINUOUS
10
235.209
20
-153.243
11
234.923
21
-153.243
0
LINE
8
BLACK
6
CONTINUOUS
10
234.923
20
-153.243
11
234.733
21
-153.338
0
LINE
8
BLACK
6
CONTINUOUS
10
234.733
20
-153.338
11
234.638
21
-153.433
0
LINE
8
BLACK
6
CONTINUOUS
10
236.733
20
-154.576
11
236.542
21
-154.481
0
LINE
8
BLACK
6
CONTINUOUS
10
236.542
20
-154.481
11
236.447
21
-154.386
0
LINE
8
BLACK
6
CONTINUOUS
10
236.447
20
-154.386
11
236.352
21
-154.195
0
LINE
8
BLACK
6
CONTINUOUS
10
236.352
20
-154.195
11
236.352
21
-153.624
0
LINE
8
BLACK
6
CONTINUOUS
10
236.352
20
-153.624
11
236.447
21
-153.433
0
LINE
8
BLACK
6
CONTINUOUS
10
236.447
20
-153.433
11
236.542
21
-153.338
0
LINE
8
BLACK
6
CONTINUOUS
10
236.542
20
-153.338
11
236.733
21
-153.243
0
LINE
8
BLACK
6
CONTINUOUS
10
236.733
20
-153.243
11
237.019
21
-153.243
0
LINE
8
BLACK
6
CONTINUOUS
10
237.019
20
-153.243
11
237.209
21
-153.338
0
LINE
8
BLACK
6
CONTINUOUS
10
237.209
20
-153.338
11
237.304
21
-153.433
0
LINE
8
BLACK
6
CONTINUOUS
10
237.304
20
-153.433
11
237.4
21
-153.624
0
LINE
8
BLACK
6
CONTINUOUS
10
237.4
20
-153.624
11
237.4
21
-154.195
0
LINE
8
BLACK
6
CONTINUOUS
10
237.4
20
-154.195
11
237.304
21
-154.386
0
LINE
8
BLACK
6
CONTINUOUS
10
237.304
20
-154.386
11
237.209
21
-154.481
0
LINE
8
BLACK
6
CONTINUOUS
10
237.209
20
-154.481
11
237.019
21
-154.576
0
LINE
8
BLACK
6
CONTINUOUS
10
237.019
20
-154.576
11
236.733
21
-154.576
0
LINE
8
BLACK
6
CONTINUOUS
10
238.542
20
-154.576
11
238.352
21
-154.481
0
LINE
8
BLACK
6
CONTINUOUS
10
238.352
20
-154.481
11
238.257
21
-154.29
0
LINE
8
BLACK
6
CONTINUOUS
10
238.257
20
-154.29
11
238.257
21
-152.576
0
LINE
8
BLACK
6
CONTINUOUS
10
240.066
20
-154.481
11
239.876
21
-154.576
0
LINE
8
BLACK
6
CONTINUOUS
10
239.876
20
-154.576
11
239.495
21
-154.576
0
LINE
8
BLACK
6
CONTINUOUS
10
239.495
20
-154.576
11
239.304
21
-154.481
0
LINE
8
BLACK
6
CONTINUOUS
10
239.304
20
-154.481
11
239.209
21
-154.29
0
LINE
8
BLACK
6
CONTINUOUS
10
239.209
20
-154.29
11
239.209
21
-153.529
0
LINE
8
BLACK
6
CONTINUOUS
10
239.209
20
-153.529
11
239.304
21
-153.338
0
LINE
8
BLACK
6
CONTINUOUS
10
239.304
20
-153.338
11
239.495
21
-153.243
0
LINE
8
BLACK
6
CONTINUOUS
10
239.495
20
-153.243
11
239.876
21
-153.243
0
LINE
8
BLACK
6
CONTINUOUS
10
239.876
20
-153.243
11
240.066
21
-153.338
0
LINE
8
BLACK
6
CONTINUOUS
10
240.066
20
-153.338
11
240.162
21
-153.529
0
LINE
8
BLACK
6
CONTINUOUS
10
240.162
20
-153.529
11
240.162
21
-153.719
0
LINE
8
BLACK
6
CONTINUOUS
10
240.162
20
-153.719
11
239.209
21
-153.909
0
LINE
8
BLACK
6
CONTINUOUS
10
240.923
20
-154.481
11
241.114
21
-154.576
0
LINE
8
BLACK
6
CONTINUOUS
10
241.114
20
-154.576
11
241.495
21
-154.576
0
LINE
8
BLACK
6
CONTINUOUS
10
241.495
20
-154.576
11
241.685
21
-154.481
0
LINE
8
BLACK
6
CONTINUOUS
10
241.685
20
-154.481
11
241.781
21
-154.29
0
LINE
8
BLACK
6
CONTINUOUS
10
241.781
20
-154.29
11
241.781
21
-154.195
0
LINE
8
BLACK
6
CONTINUOUS
10
241.781
20
-154.195
11
241.685
21
-154.005
0
LINE
8
BLACK
6
CONTINUOUS
10
241.685
20
-154.005
11
241.495
21
-153.909
0
LINE
8
BLACK
6
CONTINUOUS
10
241.495
20
-153.909
11
241.209
21
-153.909
0
LINE
8
BLACK
6
CONTINUOUS
10
241.209
20
-153.909
11
241.019
21
-153.814
0
LINE
8
BLACK
6
CONTINUOUS
10
241.019
20
-153.814
11
240.923
21
-153.624
0
LINE
8
BLACK
6
CONTINUOUS
10
240.923
20
-153.624
11
240.923
21
-153.529
0
LINE
8
BLACK
6
CONTINUOUS
10
240.923
20
-153.529
11
241.019
21
-153.338
0
LINE
8
BLACK
6
CONTINUOUS
10
241.019
20
-153.338
11
241.209
21
-153.243
0
LINE
8
BLACK
6
CONTINUOUS
10
241.209
20
-153.243
11
241.495
21
-153.243
0
LINE
8
BLACK
6
CONTINUOUS
10
241.495
20
-153.243
11
241.685
21
-153.338
0
LINE
8
BLACK
6
CONTINUOUS
10
242.447
20
-155.338
11
242.542
21
-155.243
0
LINE
8
BLACK
6
CONTINUOUS
10
242.542
20
-155.243
11
242.733
21
-154.957
0
LINE
8
BLACK
6
CONTINUOUS
10
242.733
20
-154.957
11
242.828
21
-154.767
0
LINE
8
BLACK
6
CONTINUOUS
10
242.828
20
-154.767
11
242.923
21
-154.481
0
LINE
8
BLACK
6
CONTINUOUS
10
242.923
20
-154.481
11
243.019
21
-154.005
0
LINE
8
BLACK
6
CONTINUOUS
10
243.019
20
-154.005
11
243.019
21
-153.624
0
LINE
8
BLACK
6
CONTINUOUS
10
243.019
20
-153.624
11
242.923
21
-153.148
0
LINE
8
BLACK
6
CONTINUOUS
10
242.923
20
-153.148
11
242.828
21
-152.862
0
LINE
8
BLACK
6
CONTINUOUS
10
242.828
20
-152.862
11
242.733
21
-152.671
0
LINE
8
BLACK
6
CONTINUOUS
10
242.733
20
-152.671
11
242.542
21
-152.386
0
LINE
8
BLACK
6
CONTINUOUS
10
242.542
20
-152.386
11
242.447
21
-152.29
  0
ENDSEC
  0
EOF
