%TF.GenerationSoftware,KiCad,Pcbnew,(6.0.7-1)-1*%
%TF.CreationDate,2022-08-15T15:57:33+02:00*%
%TF.ProjectId,wizza-back-blate,77697a7a-612d-4626-9163-6b2d626c6174,v1.0.0*%
%TF.SameCoordinates,Original*%
%TF.FileFunction,Legend,Bot*%
%TF.FilePolarity,Positive*%
%FSLAX46Y46*%
G04 Gerber Fmt 4.6, Leading zero omitted, Abs format (unit mm)*
G04 Created by KiCad (PCBNEW (6.0.7-1)-1) date 2022-08-15 15:57:33*
%MOMM*%
%LPD*%
G01*
G04 APERTURE LIST*
G04 APERTURE END LIST*
%TO.C,G\u002A\u002A\u002A*%
G36*
X253588330Y-134741986D02*
G01*
X253408916Y-134953652D01*
X253218735Y-134732414D01*
X253026961Y-134541115D01*
X252812879Y-134374085D01*
X252597204Y-134236995D01*
X252495934Y-134615633D01*
X252418547Y-134839986D01*
X252155119Y-135264497D01*
X251783102Y-135582338D01*
X251329749Y-135766611D01*
X251079511Y-135835074D01*
X250906625Y-135928879D01*
X250894657Y-136035608D01*
X251038888Y-136161670D01*
X251141630Y-136260647D01*
X251166915Y-136327244D01*
X251208221Y-136436036D01*
X251195989Y-136559034D01*
X251125949Y-136595240D01*
X250957119Y-136521536D01*
X250833802Y-136483357D01*
X250753675Y-136563869D01*
X250702675Y-136645369D01*
X250581932Y-136680496D01*
X250480430Y-136571675D01*
X250428028Y-136511717D01*
X250271420Y-136496883D01*
X250187949Y-136505240D01*
X250111655Y-136441313D01*
X250136751Y-136327666D01*
X250305663Y-136327666D01*
X250377417Y-136320893D01*
X250464377Y-136314928D01*
X250558943Y-136418845D01*
X250571245Y-136459694D01*
X250608285Y-136492340D01*
X250659255Y-136370034D01*
X250671684Y-136333478D01*
X250739469Y-136233147D01*
X250839609Y-136276266D01*
X250911303Y-136321894D01*
X251005852Y-136327244D01*
X250994462Y-136273973D01*
X250876806Y-136185200D01*
X250767145Y-136096585D01*
X250693537Y-135945507D01*
X250679045Y-135854606D01*
X250641007Y-135927319D01*
X250566003Y-136049700D01*
X250414858Y-136210367D01*
X250367258Y-136252731D01*
X250305663Y-136327666D01*
X250136751Y-136327666D01*
X250141501Y-136306154D01*
X250276888Y-136138986D01*
X250389609Y-136018706D01*
X250446221Y-135914197D01*
X250426946Y-135898222D01*
X250279945Y-135869714D01*
X250019780Y-135850009D01*
X249684221Y-135842652D01*
X249289631Y-135851883D01*
X249032875Y-135885607D01*
X248921951Y-135950857D01*
X248945348Y-136054651D01*
X249091555Y-136204007D01*
X249201137Y-136328405D01*
X249224857Y-136387324D01*
X249260888Y-136476823D01*
X249205080Y-136579556D01*
X249078281Y-136598007D01*
X248961424Y-136514919D01*
X248903880Y-136485510D01*
X248792793Y-136578419D01*
X248781940Y-136592859D01*
X248676759Y-136680704D01*
X248572321Y-136625819D01*
X248504174Y-136576235D01*
X248312621Y-136519986D01*
X248258378Y-136513682D01*
X248169614Y-136432129D01*
X248190819Y-136315704D01*
X248371213Y-136315704D01*
X248430084Y-136317772D01*
X248516268Y-136313781D01*
X248602322Y-136418845D01*
X248614281Y-136470038D01*
X248651566Y-136506481D01*
X248726432Y-136396985D01*
X248761119Y-136340404D01*
X248847868Y-136279012D01*
X248977528Y-136352090D01*
X249039782Y-136397119D01*
X249054187Y-136387324D01*
X248954165Y-136263423D01*
X248814350Y-136079555D01*
X248728015Y-135927319D01*
X248727753Y-135926601D01*
X248688959Y-135849789D01*
X248674906Y-135938159D01*
X248621464Y-136066716D01*
X248477721Y-136218085D01*
X248458388Y-136232703D01*
X248371213Y-136315704D01*
X248190819Y-136315704D01*
X248194164Y-136297337D01*
X248329555Y-136161670D01*
X248419894Y-136095755D01*
X248490055Y-135970587D01*
X248395587Y-135870368D01*
X248139055Y-135799967D01*
X248126716Y-135797942D01*
X247650143Y-135635690D01*
X247249672Y-135335458D01*
X246959977Y-134923034D01*
X246876702Y-134729233D01*
X246812233Y-134487479D01*
X246782296Y-134191061D01*
X246777791Y-133783039D01*
X246777748Y-133745476D01*
X246998554Y-133745476D01*
X247032743Y-134269239D01*
X247192147Y-134740833D01*
X247464722Y-135129645D01*
X247838423Y-135405063D01*
X247876628Y-135423695D01*
X248064985Y-135502169D01*
X248269434Y-135556626D01*
X248528283Y-135592803D01*
X248879843Y-135616435D01*
X249362423Y-135633260D01*
X249933585Y-135641644D01*
X250552082Y-135623643D01*
X251040469Y-135567090D01*
X251419707Y-135465887D01*
X251710758Y-135313936D01*
X251934582Y-135105141D01*
X252112142Y-134833404D01*
X252213417Y-134596844D01*
X252295359Y-134217098D01*
X252284324Y-133867429D01*
X252177464Y-133601602D01*
X252162527Y-133580498D01*
X252054987Y-133370765D01*
X251964936Y-133113691D01*
X251907561Y-132935164D01*
X251835818Y-132846661D01*
X251733835Y-132868717D01*
X251713484Y-132878161D01*
X251535223Y-132937549D01*
X251253568Y-133013836D01*
X250919672Y-133092937D01*
X250854516Y-133106716D01*
X250155472Y-133193660D01*
X249391561Y-133196799D01*
X248635113Y-133119278D01*
X247958459Y-132964239D01*
X247666797Y-132880516D01*
X247407598Y-132847073D01*
X247241337Y-132910851D01*
X247133135Y-133088403D01*
X247048114Y-133396283D01*
X246998554Y-133745476D01*
X246777748Y-133745476D01*
X246777458Y-133489615D01*
X246762152Y-133212090D01*
X246726023Y-133054738D01*
X246665074Y-132989430D01*
X246621733Y-132961927D01*
X246492236Y-132805910D01*
X246358986Y-132574949D01*
X246254898Y-132331129D01*
X246212888Y-132136532D01*
X246206380Y-132095601D01*
X246115391Y-131921893D01*
X245951335Y-131730993D01*
X245795050Y-131560902D01*
X246411922Y-131560902D01*
X246466779Y-132116862D01*
X246501686Y-132237084D01*
X246622513Y-132513270D01*
X246762359Y-132709175D01*
X246960500Y-132895319D01*
X247113509Y-132661799D01*
X247120868Y-132650108D01*
X247213475Y-132390060D01*
X247260933Y-132029308D01*
X247262762Y-131626767D01*
X247218481Y-131241354D01*
X247127611Y-130931986D01*
X247113401Y-130900467D01*
X247009200Y-130657016D01*
X246935797Y-130466319D01*
X246921996Y-130428665D01*
X246875436Y-130373335D01*
X246804396Y-130432605D01*
X246680962Y-130623716D01*
X246504382Y-131017717D01*
X246411922Y-131560902D01*
X245795050Y-131560902D01*
X245720550Y-131479821D01*
X245375575Y-130918624D01*
X245157800Y-130260045D01*
X245069198Y-129515714D01*
X245080522Y-129297866D01*
X245366221Y-129297866D01*
X245380486Y-129731266D01*
X245461144Y-130277708D01*
X245625630Y-130753417D01*
X245888246Y-131210804D01*
X246100765Y-131523554D01*
X246243467Y-131010280D01*
X246301512Y-130829836D01*
X246449131Y-130501933D01*
X246610912Y-130272265D01*
X246835654Y-130047522D01*
X246556635Y-129257946D01*
X246479825Y-129035237D01*
X246383368Y-128735348D01*
X246324011Y-128522886D01*
X246312357Y-128433628D01*
X246322215Y-128431163D01*
X246458819Y-128421428D01*
X246740997Y-128409765D01*
X247150477Y-128396680D01*
X247668990Y-128382676D01*
X248278266Y-128368259D01*
X248960033Y-128353933D01*
X249696023Y-128340201D01*
X250584065Y-128326170D01*
X251368496Y-128317514D01*
X251997508Y-128315339D01*
X252478200Y-128319713D01*
X252817674Y-128330705D01*
X253023031Y-128348381D01*
X253101371Y-128372811D01*
X253095938Y-128479090D01*
X253038084Y-128709932D01*
X252937164Y-129029908D01*
X252803154Y-129404511D01*
X252448513Y-130344915D01*
X251596456Y-130320950D01*
X250744400Y-130296986D01*
X250050652Y-128603652D01*
X249390108Y-128603652D01*
X249043281Y-129450319D01*
X248696455Y-130296986D01*
X247953457Y-130321583D01*
X247910013Y-130322939D01*
X247580323Y-130331274D01*
X247375269Y-130353185D01*
X247276683Y-130419142D01*
X247266398Y-130559614D01*
X247326247Y-130805072D01*
X247438061Y-131185986D01*
X247506547Y-131493842D01*
X247509178Y-131626767D01*
X247518348Y-132089975D01*
X247464920Y-132528299D01*
X248045404Y-132714250D01*
X248170491Y-132750959D01*
X248698040Y-132857006D01*
X249302855Y-132920856D01*
X249925329Y-132940066D01*
X250505857Y-132912191D01*
X250984831Y-132834787D01*
X251035576Y-132817993D01*
X252140382Y-132817993D01*
X252179256Y-132997018D01*
X252307378Y-133285508D01*
X252497834Y-133611685D01*
X252722491Y-133928150D01*
X252953217Y-134187502D01*
X252985508Y-134217098D01*
X253158470Y-134375626D01*
X253332269Y-134518143D01*
X253424702Y-134572652D01*
X253448878Y-134559348D01*
X253485871Y-134430761D01*
X253493439Y-134205251D01*
X253474152Y-133931909D01*
X253430582Y-133659829D01*
X253365297Y-133438106D01*
X253312734Y-133330244D01*
X253139785Y-133055542D01*
X252933910Y-132794757D01*
X252766623Y-132615641D01*
X252643673Y-132523036D01*
X252533862Y-132520062D01*
X252385501Y-132587150D01*
X252372933Y-132593785D01*
X252207942Y-132711329D01*
X252140382Y-132817993D01*
X251035576Y-132817993D01*
X251673960Y-132606719D01*
X252366524Y-132254841D01*
X252967615Y-131814784D01*
X253452339Y-131305064D01*
X253795799Y-130744197D01*
X253874938Y-130563820D01*
X253960959Y-130321881D01*
X254009821Y-130078895D01*
X254031243Y-129778830D01*
X254034947Y-129365652D01*
X254022735Y-128947986D01*
X253933439Y-128220670D01*
X253743994Y-127541096D01*
X253438239Y-126840882D01*
X253233049Y-126475541D01*
X252758812Y-125863200D01*
X252181600Y-125381204D01*
X251493748Y-125023824D01*
X250687591Y-124785334D01*
X250636910Y-124774703D01*
X250344984Y-124710753D01*
X250133348Y-124659840D01*
X250044855Y-124632174D01*
X250042518Y-124624603D01*
X250068101Y-124513132D01*
X250139645Y-124319819D01*
X250215734Y-124108112D01*
X250313060Y-123748461D01*
X250384677Y-123379607D01*
X250420317Y-123057825D01*
X250409715Y-122839393D01*
X250348137Y-122709312D01*
X250186288Y-122634652D01*
X250157433Y-122636549D01*
X249991764Y-122741480D01*
X249869864Y-123000433D01*
X249794612Y-123404373D01*
X249768888Y-123944266D01*
X249761948Y-124258933D01*
X249739903Y-124516844D01*
X249708978Y-124646333D01*
X249675620Y-124637385D01*
X249646274Y-124479983D01*
X249627389Y-124164110D01*
X249600850Y-123861329D01*
X249497783Y-123449229D01*
X249332080Y-123134233D01*
X249118184Y-122950758D01*
X249025031Y-122917366D01*
X248848416Y-122937872D01*
X248744544Y-123107181D01*
X248710555Y-123428643D01*
X248758571Y-123764840D01*
X248936222Y-124086698D01*
X249073045Y-124274795D01*
X249184800Y-124489340D01*
X249160522Y-124629538D01*
X248989225Y-124723767D01*
X248659925Y-124800403D01*
X248303782Y-124884375D01*
X247579844Y-125174057D01*
X246941941Y-125598363D01*
X246399311Y-126144682D01*
X245961188Y-126800403D01*
X245636808Y-127552914D01*
X245435407Y-128389606D01*
X245366221Y-129297866D01*
X245080522Y-129297866D01*
X245111742Y-128697262D01*
X245287404Y-127816321D01*
X245503525Y-127162897D01*
X245889482Y-126391304D01*
X246380406Y-125737407D01*
X246967553Y-125210330D01*
X247642179Y-124819197D01*
X248395540Y-124573132D01*
X248609367Y-124525708D01*
X248815593Y-124476632D01*
X248905240Y-124450542D01*
X248902716Y-124430020D01*
X248838067Y-124307089D01*
X248714740Y-124114430D01*
X248576297Y-123851828D01*
X248493178Y-123475759D01*
X248536557Y-123124839D01*
X248706706Y-122842470D01*
X248826209Y-122730338D01*
X248973652Y-122650759D01*
X249123086Y-122690082D01*
X249333196Y-122848912D01*
X249587829Y-123063172D01*
X249699525Y-122830821D01*
X249830905Y-122644699D01*
X250038269Y-122471203D01*
X250172832Y-122404080D01*
X250300203Y-122399297D01*
X250440436Y-122502416D01*
X250538563Y-122641625D01*
X250610409Y-122955990D01*
X250594684Y-123382370D01*
X250490668Y-123900715D01*
X250443477Y-124097305D01*
X250407884Y-124307389D01*
X250411967Y-124406620D01*
X250481437Y-124436199D01*
X250678071Y-124490564D01*
X250948638Y-124551255D01*
X251435686Y-124682764D01*
X252147279Y-125009095D01*
X252769744Y-125469078D01*
X253295913Y-126052305D01*
X253718618Y-126748366D01*
X254030692Y-127546853D01*
X254224966Y-128437358D01*
X254291148Y-129365652D01*
X254294272Y-129409473D01*
X254294802Y-129664794D01*
X254288849Y-130019169D01*
X254266891Y-130277534D01*
X254220563Y-130487034D01*
X254141502Y-130694812D01*
X254021347Y-130948010D01*
X253762200Y-131385456D01*
X253285644Y-131930431D01*
X252827149Y-132349469D01*
X253083773Y-132593227D01*
X253324107Y-132877196D01*
X253541721Y-133268794D01*
X253686273Y-133690778D01*
X253748441Y-134103440D01*
X253740170Y-134205251D01*
X253718901Y-134467078D01*
X253588330Y-134741986D01*
G37*
G36*
X250419039Y-132019749D02*
G01*
X250185746Y-132084061D01*
X249935635Y-132103269D01*
X249599555Y-132092094D01*
X249315107Y-132070952D01*
X249045200Y-132027409D01*
X248909364Y-131986101D01*
X249450831Y-131986101D01*
X249501100Y-132002987D01*
X249684221Y-132009592D01*
X249808470Y-132007122D01*
X249914844Y-131993838D01*
X249874721Y-131972900D01*
X249740439Y-131958893D01*
X249493721Y-131972900D01*
X249450831Y-131986101D01*
X248909364Y-131986101D01*
X248782946Y-131947657D01*
X248665163Y-131896833D01*
X250130485Y-131896833D01*
X250131796Y-131925735D01*
X250241610Y-131941301D01*
X250324833Y-131927743D01*
X250292763Y-131890149D01*
X250243802Y-131876621D01*
X250130485Y-131896833D01*
X248665163Y-131896833D01*
X248476884Y-131815590D01*
X248075555Y-131615102D01*
X247997170Y-131543440D01*
X247921313Y-131366419D01*
X247921879Y-131358560D01*
X248128171Y-131358560D01*
X248186871Y-131473779D01*
X248414221Y-131583373D01*
X248636006Y-131636908D01*
X249012492Y-131678992D01*
X249453463Y-131692382D01*
X249920054Y-131679424D01*
X250373401Y-131642469D01*
X250774640Y-131583863D01*
X251084905Y-131505956D01*
X251265333Y-131411096D01*
X251281758Y-131390213D01*
X251256536Y-131286356D01*
X251074256Y-131172777D01*
X250744242Y-131055833D01*
X250568891Y-130998047D01*
X250281859Y-130876952D01*
X250079030Y-130758388D01*
X249852021Y-130630869D01*
X249566966Y-130613669D01*
X249305355Y-130760648D01*
X249181053Y-130846685D01*
X248924078Y-130971729D01*
X248622565Y-131081623D01*
X248514563Y-131116454D01*
X248237582Y-131239017D01*
X248128171Y-131358560D01*
X247921879Y-131358560D01*
X247929409Y-131254076D01*
X248029569Y-131140185D01*
X248259980Y-131017092D01*
X248366141Y-130971985D01*
X248622291Y-130884705D01*
X248809892Y-130849178D01*
X248836967Y-130847001D01*
X249033483Y-130775757D01*
X249245448Y-130635652D01*
X249294707Y-130595832D01*
X249568696Y-130449661D01*
X249836093Y-130459359D01*
X250134371Y-130624452D01*
X250153615Y-130638313D01*
X250434207Y-130786261D01*
X250730343Y-130874582D01*
X250850043Y-130897227D01*
X251167980Y-131010132D01*
X251383121Y-131171109D01*
X251462221Y-131358192D01*
X251457997Y-131390213D01*
X251457227Y-131396053D01*
X251377044Y-131513136D01*
X251181585Y-131650821D01*
X250848388Y-131826238D01*
X250704665Y-131895613D01*
X250630737Y-131927743D01*
X250478658Y-131993838D01*
X250419039Y-132019749D01*
G37*
%TD*%
M02*
