  0
SECTION
  2
HEADER
  9
$ANGBASE
  50
0.0
  9
$ANGDIR
  70
1
  9
$MEASUREMENT
  70
1
  0
ENDSEC
  0
SECTION
  2
TABLES
  0
TABLE
  2
LTYPE
  70
4
  0
LTYPE
  5
40F
  2
CONTINUOUS
  70
0
  3
Solid line
  72
65
  73
0
  40
0.0
  0
LTYPE
  5
410
  2
DASHDOT
 70
0
  3
Dash Dot ____ _ ____ _
 72
65
 73
4
 40
2.0
 49
1.25
 49
-0.25
 49
0.25
 49
-0.25
  0
LTYPE
  5
411
  2
DASHED
 70
0
  3
Dashed __ __ __ __ __
 72
65
 73
2
 40
0.75
 49
0.5
 49
-0.25
  0
LTYPE
  5
43B
  2
DOTTED
 70
0
  3
Dotted .  .  .  .
 72
65
 73
2
 40
0.2
 49
0.0
 49
-0.2
  0
ENDTAB
  0
TABLE
  2
STYLE
  70
4
  0
STYLE
  2
KICAD
  70
0
  40
0
  41
1
  42
1
  50
0
  71
0
  3
isocp.shx
  0
STYLE
  2
KICADB
  70
0
  40
0
  41
1
  42
1
  50
0
  71
0
  3
isocp.shx
  0
STYLE
  2
KICADI
  70
0
  40
0
  41
1
  42
1
  50
15
  71
0
  3
isocp.shx
  0
STYLE
  2
KICADBI
  70
0
  40
0
  41
1
  42
1
  50
15
  71
0
  3
isocp.shx
  0
ENDTAB
  0
TABLE
  2
LAYER
  70
1
  0
LAYER
  2
BLACK
  70
0
  62
7
  6
CONTINUOUS
  0
ENDTAB
  0
ENDSEC
  0
SECTION
  2
ENTITIES
0
LINE
8
BLACK
6
CONTINUOUS
10
197.803
20
-147.196
11
301.991
21
-147.196
0
ARC
8
BLACK
10
197.803
20
-144.196
40
2.99997
50
-180.001
51
-89.9998
0
LINE
8
BLACK
6
CONTINUOUS
10
197.803
20
-56.5814
11
301.991
21
-56.5814
0
ARC
8
BLACK
10
301.991
20
-144.196
40
2.9999
50
-90.0019
51
0.000630274
0
LINE
8
BLACK
6
CONTINUOUS
10
194.803
20
-144.196
11
194.803
21
-59.5814
0
LINE
8
BLACK
6
CONTINUOUS
10
304.991
20
-144.196
11
304.991
21
-59.5814
0
ARC
8
BLACK
10
301.991
20
-59.5814
40
2.99998
50
-0.000420169
51
90
0
CIRCLE
8
BLACK
10
258.775
20
-98.525
40
21.434
0
ARC
8
BLACK
10
197.803
20
-59.5814
40
2.99999
50
-270
51
-180
0
LINE
8
BLACK
6
CONTINUOUS
10
197.304
20
-150.376
11
197.304
21
-148.376
0
LINE
8
BLACK
6
CONTINUOUS
10
197.304
20
-148.376
11
197.781
21
-148.376
0
LINE
8
BLACK
6
CONTINUOUS
10
197.781
20
-148.376
11
198.066
21
-148.471
0
LINE
8
BLACK
6
CONTINUOUS
10
198.066
20
-148.471
11
198.257
21
-148.662
0
LINE
8
BLACK
6
CONTINUOUS
10
198.257
20
-148.662
11
198.352
21
-148.852
0
LINE
8
BLACK
6
CONTINUOUS
10
198.352
20
-148.852
11
198.447
21
-149.233
0
LINE
8
BLACK
6
CONTINUOUS
10
198.447
20
-149.233
11
198.447
21
-149.519
0
LINE
8
BLACK
6
CONTINUOUS
10
198.447
20
-149.519
11
198.352
21
-149.9
0
LINE
8
BLACK
6
CONTINUOUS
10
198.352
20
-149.9
11
198.257
21
-150.09
0
LINE
8
BLACK
6
CONTINUOUS
10
198.257
20
-150.09
11
198.066
21
-150.281
0
LINE
8
BLACK
6
CONTINUOUS
10
198.066
20
-150.281
11
197.781
21
-150.376
0
LINE
8
BLACK
6
CONTINUOUS
10
197.781
20
-150.376
11
197.304
21
-150.376
0
LINE
8
BLACK
6
CONTINUOUS
10
199.304
20
-150.376
11
199.304
21
-149.043
0
LINE
8
BLACK
6
CONTINUOUS
10
199.304
20
-149.424
11
199.4
21
-149.233
0
LINE
8
BLACK
6
CONTINUOUS
10
199.4
20
-149.233
11
199.495
21
-149.138
0
LINE
8
BLACK
6
CONTINUOUS
10
199.495
20
-149.138
11
199.685
21
-149.043
0
LINE
8
BLACK
6
CONTINUOUS
10
199.685
20
-149.043
11
199.876
21
-149.043
0
LINE
8
BLACK
6
CONTINUOUS
10
200.542
20
-150.376
11
200.542
21
-149.043
0
LINE
8
BLACK
6
CONTINUOUS
10
200.542
20
-148.376
11
200.447
21
-148.471
0
LINE
8
BLACK
6
CONTINUOUS
10
200.447
20
-148.471
11
200.542
21
-148.567
0
LINE
8
BLACK
6
CONTINUOUS
10
200.542
20
-148.567
11
200.638
21
-148.471
0
LINE
8
BLACK
6
CONTINUOUS
10
200.638
20
-148.471
11
200.542
21
-148.376
0
LINE
8
BLACK
6
CONTINUOUS
10
200.542
20
-148.376
11
200.542
21
-148.567
0
LINE
8
BLACK
6
CONTINUOUS
10
201.781
20
-150.376
11
201.59
21
-150.281
0
LINE
8
BLACK
6
CONTINUOUS
10
201.59
20
-150.281
11
201.495
21
-150.09
0
LINE
8
BLACK
6
CONTINUOUS
10
201.495
20
-150.09
11
201.495
21
-148.376
0
LINE
8
BLACK
6
CONTINUOUS
10
202.828
20
-150.376
11
202.638
21
-150.281
0
LINE
8
BLACK
6
CONTINUOUS
10
202.638
20
-150.281
11
202.542
21
-150.09
0
LINE
8
BLACK
6
CONTINUOUS
10
202.542
20
-150.09
11
202.542
21
-148.376
0
LINE
8
BLACK
6
CONTINUOUS
10
205.114
20
-150.376
11
205.114
21
-148.376
0
LINE
8
BLACK
6
CONTINUOUS
10
205.114
20
-148.376
11
205.781
21
-149.805
0
LINE
8
BLACK
6
CONTINUOUS
10
205.781
20
-149.805
11
206.447
21
-148.376
0
LINE
8
BLACK
6
CONTINUOUS
10
206.447
20
-148.376
11
206.447
21
-150.376
0
LINE
8
BLACK
6
CONTINUOUS
10
208.257
20
-150.376
11
208.257
21
-149.329
0
LINE
8
BLACK
6
CONTINUOUS
10
208.257
20
-149.329
11
208.162
21
-149.138
0
LINE
8
BLACK
6
CONTINUOUS
10
208.162
20
-149.138
11
207.971
21
-149.043
0
LINE
8
BLACK
6
CONTINUOUS
10
207.971
20
-149.043
11
207.59
21
-149.043
0
LINE
8
BLACK
6
CONTINUOUS
10
207.59
20
-149.043
11
207.4
21
-149.138
0
LINE
8
BLACK
6
CONTINUOUS
10
208.257
20
-150.281
11
208.066
21
-150.376
0
LINE
8
BLACK
6
CONTINUOUS
10
208.066
20
-150.376
11
207.59
21
-150.376
0
LINE
8
BLACK
6
CONTINUOUS
10
207.59
20
-150.376
11
207.4
21
-150.281
0
LINE
8
BLACK
6
CONTINUOUS
10
207.4
20
-150.281
11
207.304
21
-150.09
0
LINE
8
BLACK
6
CONTINUOUS
10
207.304
20
-150.09
11
207.304
21
-149.9
0
LINE
8
BLACK
6
CONTINUOUS
10
207.304
20
-149.9
11
207.4
21
-149.709
0
LINE
8
BLACK
6
CONTINUOUS
10
207.4
20
-149.709
11
207.59
21
-149.614
0
LINE
8
BLACK
6
CONTINUOUS
10
207.59
20
-149.614
11
208.066
21
-149.614
0
LINE
8
BLACK
6
CONTINUOUS
10
208.066
20
-149.614
11
208.257
21
-149.519
0
LINE
8
BLACK
6
CONTINUOUS
10
209.209
20
-149.043
11
209.209
21
-151.043
0
LINE
8
BLACK
6
CONTINUOUS
10
209.209
20
-149.138
11
209.4
21
-149.043
0
LINE
8
BLACK
6
CONTINUOUS
10
209.4
20
-149.043
11
209.781
21
-149.043
0
LINE
8
BLACK
6
CONTINUOUS
10
209.781
20
-149.043
11
209.971
21
-149.138
0
LINE
8
BLACK
6
CONTINUOUS
10
209.971
20
-149.138
11
210.066
21
-149.233
0
LINE
8
BLACK
6
CONTINUOUS
10
210.066
20
-149.233
11
210.162
21
-149.424
0
LINE
8
BLACK
6
CONTINUOUS
10
210.162
20
-149.424
11
210.162
21
-149.995
0
LINE
8
BLACK
6
CONTINUOUS
10
210.162
20
-149.995
11
210.066
21
-150.186
0
LINE
8
BLACK
6
CONTINUOUS
10
210.066
20
-150.186
11
209.971
21
-150.281
0
LINE
8
BLACK
6
CONTINUOUS
10
209.971
20
-150.281
11
209.781
21
-150.376
0
LINE
8
BLACK
6
CONTINUOUS
10
209.781
20
-150.376
11
209.4
21
-150.376
0
LINE
8
BLACK
6
CONTINUOUS
10
209.4
20
-150.376
11
209.209
21
-150.281
0
LINE
8
BLACK
6
CONTINUOUS
10
211.019
20
-150.186
11
211.114
21
-150.281
0
LINE
8
BLACK
6
CONTINUOUS
10
211.114
20
-150.281
11
211.019
21
-150.376
0
LINE
8
BLACK
6
CONTINUOUS
10
211.019
20
-150.376
11
210.923
21
-150.281
0
LINE
8
BLACK
6
CONTINUOUS
10
210.923
20
-150.281
11
211.019
21
-150.186
0
LINE
8
BLACK
6
CONTINUOUS
10
211.019
20
-150.186
11
211.019
21
-150.376
0
LINE
8
BLACK
6
CONTINUOUS
10
211.019
20
-149.138
11
211.114
21
-149.233
0
LINE
8
BLACK
6
CONTINUOUS
10
211.114
20
-149.233
11
211.019
21
-149.329
0
LINE
8
BLACK
6
CONTINUOUS
10
211.019
20
-149.329
11
210.923
21
-149.233
0
LINE
8
BLACK
6
CONTINUOUS
10
210.923
20
-149.233
11
211.019
21
-149.138
0
LINE
8
BLACK
6
CONTINUOUS
10
211.019
20
-149.138
11
211.019
21
-149.329
  0
ENDSEC
  0
EOF
