%TF.GenerationSoftware,KiCad,Pcbnew,(6.0.4-0)*%
%TF.CreationDate,2022-05-16T08:39:31+02:00*%
%TF.ProjectId,battoota,62617474-6f6f-4746-912e-6b696361645f,v1.0.0*%
%TF.SameCoordinates,Original*%
%TF.FileFunction,Profile,NP*%
%FSLAX46Y46*%
G04 Gerber Fmt 4.6, Leading zero omitted, Abs format (unit mm)*
G04 Created by KiCad (PCBNEW (6.0.4-0)) date 2022-05-16 08:39:31*
%MOMM*%
%LPD*%
G01*
G04 APERTURE LIST*
%TA.AperFunction,Profile*%
%ADD10C,0.150000*%
%TD*%
G04 APERTURE END LIST*
D10*
X61933082Y112680378D02*
X80777935Y116003234D01*
X126173900Y113933708D02*
G75*
G03*
X123633938Y116727707I-2715300J83092D01*
G01*
X40648225Y90267287D02*
G75*
G03*
X40005384Y88049350I1273675J-1571287D01*
G01*
X40648210Y90267305D02*
X61081026Y99669502D01*
X104699526Y116893075D02*
X123633938Y116727707D01*
X133966791Y35840254D02*
G75*
G03*
X127108791Y38634254I-17937291J-34214254D01*
G01*
X102707096Y118718762D02*
G75*
G03*
X104699526Y116893075I1992504J174438D01*
G01*
X162601024Y106517136D02*
X128307140Y106564179D01*
X126278233Y108591104D02*
G75*
G03*
X128307140Y106564179I2083267J56396D01*
G01*
X84024062Y122794691D02*
X100162416Y124206614D01*
X149460790Y29236252D02*
G75*
G03*
X152508791Y30252254I903699J2368905D01*
G01*
X127108791Y38634254D02*
X52325668Y53916640D01*
X40005384Y88049350D02*
X50640798Y55746836D01*
X50640795Y55746835D02*
G75*
G03*
X52325668Y53916640I2843705J927265D01*
G01*
X149460791Y29236254D02*
X133966791Y35840254D01*
X163204176Y44394875D02*
G75*
G03*
X164948263Y49556254I-7644213J5458426D01*
G01*
X82423028Y118147161D02*
X82205984Y120627990D01*
X61081029Y99669499D02*
G75*
G03*
X61820427Y101762322I-1517329J1713101D01*
G01*
X164948263Y49556254D02*
X164982296Y103812548D01*
X102329128Y122388537D02*
G75*
G03*
X100162416Y124206615I-1992328J-174237D01*
G01*
X152508791Y30252254D02*
X163204176Y44394875D01*
X60310763Y110363466D02*
X61820427Y101762322D01*
X80777936Y116003231D02*
G75*
G03*
X82423029Y118147161I-347236J1969569D01*
G01*
X126278191Y108591103D02*
X126173938Y113933707D01*
X164982245Y103812551D02*
G75*
G03*
X162601024Y106517136I-2535445J168249D01*
G01*
X102329117Y122388536D02*
X102707136Y118718765D01*
X61933072Y112680437D02*
G75*
G03*
X60310764Y110363466I347328J-1969637D01*
G01*
X84024068Y122794623D02*
G75*
G03*
X82205984Y120627991I174232J-1992323D01*
G01*
M02*
