%TF.GenerationSoftware,KiCad,Pcbnew,7.0.2*%
%TF.CreationDate,2023-06-30T01:25:47+02:00*%
%TF.ProjectId,Qeshda,51657368-6461-42e6-9b69-6361645f7063,rev?*%
%TF.SameCoordinates,Original*%
%TF.FileFunction,Soldermask,Top*%
%TF.FilePolarity,Negative*%
%FSLAX46Y46*%
G04 Gerber Fmt 4.6, Leading zero omitted, Abs format (unit mm)*
G04 Created by KiCad (PCBNEW 7.0.2) date 2023-06-30 01:25:47*
%MOMM*%
%LPD*%
G01*
G04 APERTURE LIST*
G04 Aperture macros list*
%AMRoundRect*
0 Rectangle with rounded corners*
0 $1 Rounding radius*
0 $2 $3 $4 $5 $6 $7 $8 $9 X,Y pos of 4 corners*
0 Add a 4 corners polygon primitive as box body*
4,1,4,$2,$3,$4,$5,$6,$7,$8,$9,$2,$3,0*
0 Add four circle primitives for the rounded corners*
1,1,$1+$1,$2,$3*
1,1,$1+$1,$4,$5*
1,1,$1+$1,$6,$7*
1,1,$1+$1,$8,$9*
0 Add four rect primitives between the rounded corners*
20,1,$1+$1,$2,$3,$4,$5,0*
20,1,$1+$1,$4,$5,$6,$7,0*
20,1,$1+$1,$6,$7,$8,$9,0*
20,1,$1+$1,$8,$9,$2,$3,0*%
G04 Aperture macros list end*
%ADD10RoundRect,0.375000X0.750000X-0.375000X0.750000X0.375000X-0.750000X0.375000X-0.750000X-0.375000X0*%
%ADD11C,1.752600*%
%ADD12C,1.701800*%
%ADD13C,3.000000*%
%ADD14C,3.429000*%
%ADD15C,2.000000*%
%ADD16R,3.200000X2.000000*%
%ADD17R,0.700000X1.500000*%
%ADD18C,0.900000*%
%ADD19R,1.000000X0.800000*%
G04 APERTURE END LIST*
D10*
%TO.C,J1*%
X136564000Y-90932000D03*
X136564000Y-92932000D03*
X136564000Y-94932000D03*
%TD*%
D11*
%TO.C,U1*%
X161544000Y-54656750D03*
X161544000Y-57196750D03*
X161544000Y-59736750D03*
X161544000Y-62276750D03*
X161544000Y-64816750D03*
X161544000Y-67356750D03*
X161544000Y-69896750D03*
X161544000Y-72436750D03*
X161544000Y-74976750D03*
X161544000Y-77516750D03*
X161544000Y-80056750D03*
X161544000Y-82596750D03*
X146304000Y-82596750D03*
X146304000Y-80056750D03*
X146304000Y-77516750D03*
X146304000Y-74976750D03*
X146304000Y-72436750D03*
X146304000Y-69896750D03*
X146304000Y-67356750D03*
X146304000Y-64816750D03*
X146304000Y-62276750D03*
X146304000Y-59736750D03*
X146304000Y-57196750D03*
X146304000Y-54656750D03*
%TD*%
D12*
%TO.C,SW21*%
X196534247Y-84586910D03*
D13*
X196046639Y-80835279D03*
X200306866Y-77416146D03*
D14*
X201846839Y-83163405D03*
D13*
X205705897Y-78247089D03*
D12*
X207159431Y-81739900D03*
%TD*%
%TO.C,SW30*%
X179570486Y-92755803D03*
D13*
X179082878Y-89004172D03*
X183343105Y-85585039D03*
D14*
X184883078Y-91332298D03*
D13*
X188742136Y-86415982D03*
D12*
X190195670Y-89908793D03*
%TD*%
%TO.C,SW22*%
X223670259Y-71880638D03*
D13*
X222216725Y-68387827D03*
D14*
X218357667Y-73304143D03*
D13*
X216817694Y-67556884D03*
X212557467Y-70976017D03*
D12*
X213045075Y-74727648D03*
%TD*%
D15*
%TO.C,SW26*%
X146500000Y-101750000D03*
X146500000Y-106750000D03*
X146500000Y-104250000D03*
D16*
X154000000Y-98650000D03*
X154000000Y-109850000D03*
D15*
X161000000Y-106750000D03*
X161000000Y-101750000D03*
%TD*%
%TO.C,SW34*%
X173303000Y-99949000D03*
X166803000Y-99949000D03*
%TD*%
D12*
%TO.C,SW40*%
X199451229Y-106581383D03*
D13*
X197997695Y-103088572D03*
D14*
X194138637Y-108004888D03*
D13*
X192598664Y-102257629D03*
X188338437Y-105676762D03*
D12*
X188826045Y-109428393D03*
%TD*%
%TO.C,SW39*%
X179971854Y-113140958D03*
D13*
X177716509Y-110103540D03*
D14*
X175161446Y-115807411D03*
D13*
X172276829Y-110603424D03*
X168970312Y-114951636D03*
D12*
X170351038Y-118473864D03*
%TD*%
%TO.C,SW38*%
X136701866Y-118473864D03*
D13*
X138082592Y-114951636D03*
D14*
X131891458Y-115807411D03*
D13*
X134776075Y-110603424D03*
X129336395Y-110103540D03*
D12*
X127081050Y-113140958D03*
%TD*%
%TO.C,SW37*%
X107601675Y-106581383D03*
D13*
X109055209Y-103088572D03*
X114454240Y-102257629D03*
D14*
X112914267Y-108004888D03*
D13*
X118714467Y-105676762D03*
D12*
X118226859Y-109428393D03*
%TD*%
%TO.C,SW32*%
X181137003Y-56101389D03*
D13*
X179683469Y-52608578D03*
D14*
X175824411Y-57524894D03*
D13*
X174284438Y-51777635D03*
X170024211Y-55196768D03*
D12*
X170511819Y-58948399D03*
%TD*%
%TO.C,SW31*%
X185666336Y-73005091D03*
D13*
X184212802Y-69512280D03*
D14*
X180353744Y-74428596D03*
D13*
X178813771Y-68681337D03*
X174553544Y-72100470D03*
D12*
X175041152Y-75852101D03*
%TD*%
%TO.C,SW29*%
X127482418Y-92755803D03*
D13*
X127970026Y-89004172D03*
D14*
X122169826Y-91332298D03*
D13*
X123709799Y-85585039D03*
X118310768Y-86415982D03*
D12*
X116857234Y-89908793D03*
%TD*%
%TO.C,SW28*%
X132011752Y-75852101D03*
D13*
X132499360Y-72100470D03*
D14*
X126699160Y-74428596D03*
D13*
X128239133Y-68681337D03*
X122840102Y-69512280D03*
D12*
X121386568Y-73005091D03*
%TD*%
%TO.C,SW27*%
X136541085Y-58948399D03*
D13*
X137028693Y-55196768D03*
D14*
X131228493Y-57524894D03*
D13*
X132768466Y-51777635D03*
X127369435Y-52608578D03*
D12*
X125915901Y-56101389D03*
%TD*%
D17*
%TO.C,SW25*%
X156000000Y-115595000D03*
X154500000Y-115595000D03*
X151500000Y-115595000D03*
D18*
X152250000Y-117355000D03*
X155250000Y-117355000D03*
D19*
X150100000Y-116245000D03*
X157400000Y-118455000D03*
X150100000Y-118455000D03*
X157400000Y-116245000D03*
%TD*%
D12*
%TO.C,SW24*%
X263533089Y-83430015D03*
D13*
X262708158Y-79737864D03*
D14*
X258054018Y-83909372D03*
D13*
X257535441Y-77982014D03*
X252746211Y-80609422D03*
D12*
X252574947Y-84388729D03*
%TD*%
%TO.C,SW23*%
X243295589Y-72893735D03*
D13*
X242089241Y-69308038D03*
D14*
X237896639Y-73943184D03*
D13*
X236761325Y-68102502D03*
X232272970Y-71216128D03*
D12*
X232497689Y-74992633D03*
%TD*%
%TO.C,SW20*%
X110518657Y-84586910D03*
D13*
X111006265Y-80835279D03*
D14*
X105206065Y-83163405D03*
D13*
X106746038Y-77416146D03*
X101347007Y-78247089D03*
D12*
X99893473Y-81739900D03*
%TD*%
%TO.C,SW19*%
X94007829Y-74727648D03*
D13*
X94495437Y-70976017D03*
D14*
X88695237Y-73304143D03*
D13*
X90235210Y-67556884D03*
X84836179Y-68387827D03*
D12*
X83382645Y-71880638D03*
%TD*%
%TO.C,SW18*%
X74555215Y-74992633D03*
D13*
X74779934Y-71216128D03*
D14*
X69156265Y-73943184D03*
D13*
X70291579Y-68102502D03*
X64963663Y-69308038D03*
D12*
X63757315Y-72893735D03*
%TD*%
%TO.C,SW17*%
X43519815Y-83430015D03*
D13*
X44344746Y-79737864D03*
X49517463Y-77982014D03*
D14*
X48998886Y-83909372D03*
D13*
X54306693Y-80609422D03*
D12*
X54477957Y-84388729D03*
%TD*%
%TO.C,SW16*%
X262007863Y-65996608D03*
D13*
X261182932Y-62304457D03*
D14*
X256528792Y-66475965D03*
D13*
X256010215Y-60548607D03*
X251220985Y-63176015D03*
D12*
X251049721Y-66955322D03*
%TD*%
%TO.C,SW15*%
X239956432Y-55715259D03*
D13*
X238750084Y-52129562D03*
D14*
X234557482Y-56764708D03*
D13*
X233422168Y-50924026D03*
X228933813Y-54037652D03*
D12*
X229158532Y-57814157D03*
%TD*%
%TO.C,SW14*%
X208515741Y-57823946D03*
D13*
X208028133Y-54072315D03*
X212288360Y-50653182D03*
D14*
X213828333Y-56400441D03*
D13*
X217687391Y-51484125D03*
D12*
X219140925Y-54976936D03*
%TD*%
%TO.C,SW13*%
X202630097Y-64836198D03*
D13*
X201176563Y-61343387D03*
D14*
X197317505Y-66259703D03*
D13*
X195777532Y-60512444D03*
X191517305Y-63931577D03*
D12*
X192004913Y-67683208D03*
%TD*%
%TO.C,SW12*%
X115047990Y-67683208D03*
D13*
X115535598Y-63931577D03*
D14*
X109735398Y-66259703D03*
D13*
X111275371Y-60512444D03*
X105876340Y-61343387D03*
D12*
X104422806Y-64836198D03*
%TD*%
%TO.C,SW11*%
X98537163Y-57823946D03*
D13*
X99024771Y-54072315D03*
D14*
X93224571Y-56400441D03*
D13*
X94764544Y-50653182D03*
X89365513Y-51484125D03*
D12*
X87911979Y-54976936D03*
%TD*%
%TO.C,SW10*%
X77894372Y-57814157D03*
D13*
X78119091Y-54037652D03*
D14*
X72495422Y-56764708D03*
D13*
X73630736Y-50924026D03*
X68302820Y-52129562D03*
D12*
X67096472Y-55715259D03*
%TD*%
%TO.C,SW9*%
X45045041Y-65996608D03*
D13*
X45869972Y-62304457D03*
X51042689Y-60548607D03*
D14*
X50524112Y-66475965D03*
D13*
X55831919Y-63176015D03*
D12*
X56003183Y-66955322D03*
%TD*%
%TO.C,SW8*%
X249524496Y-49521915D03*
D13*
X249695760Y-45742608D03*
X254484990Y-43115200D03*
D14*
X255003567Y-49042558D03*
D13*
X259657707Y-44871050D03*
D12*
X260482638Y-48563201D03*
%TD*%
%TO.C,SW7*%
X225819374Y-40635682D03*
D13*
X225594655Y-36859177D03*
X230083010Y-33745551D03*
D14*
X231218324Y-39586233D03*
D13*
X235410926Y-34951087D03*
D12*
X236617274Y-38536784D03*
%TD*%
%TO.C,SW6*%
X214611592Y-38073234D03*
D13*
X213158058Y-34580423D03*
D14*
X209299000Y-39496739D03*
D13*
X207759027Y-33749480D03*
X203498800Y-37168613D03*
D12*
X203986408Y-40920244D03*
%TD*%
%TO.C,SW5*%
X198100764Y-47932497D03*
D13*
X196647230Y-44439686D03*
D14*
X192788172Y-49356002D03*
D13*
X191248199Y-43608743D03*
X186987972Y-47027876D03*
D12*
X187475580Y-50779507D03*
%TD*%
%TO.C,SW4*%
X119577324Y-50779507D03*
D13*
X120064932Y-47027876D03*
D14*
X114264732Y-49356002D03*
D13*
X115804705Y-43608743D03*
X110405674Y-44439686D03*
D12*
X108952140Y-47932497D03*
%TD*%
%TO.C,SW3*%
X103066496Y-40920244D03*
D13*
X103554104Y-37168613D03*
D14*
X97753904Y-39496739D03*
D13*
X99293877Y-33749480D03*
X93894846Y-34580423D03*
D12*
X92441312Y-38073234D03*
%TD*%
%TO.C,SW2*%
X81233530Y-40635682D03*
D13*
X81458249Y-36859177D03*
D14*
X75834580Y-39586233D03*
D13*
X76969894Y-33745551D03*
X71641978Y-34951087D03*
D12*
X70435630Y-38536784D03*
%TD*%
%TO.C,SW1*%
X57528408Y-49521915D03*
D13*
X57357144Y-45742608D03*
D14*
X52049337Y-49042558D03*
D13*
X52567914Y-43115200D03*
X47395197Y-44871050D03*
D12*
X46570266Y-48563201D03*
%TD*%
D11*
%TO.C,Display1*%
X148670000Y-87980000D03*
X151210000Y-87980000D03*
X153750000Y-87980000D03*
X156290000Y-87980000D03*
X158830000Y-87980000D03*
%TD*%
M02*
