%TF.GenerationSoftware,KiCad,Pcbnew,7.0.2*%
%TF.CreationDate,2023-06-30T23:04:39+02:00*%
%TF.ProjectId,Qeshda,51657368-6461-42e6-9b69-6361645f7063,rev?*%
%TF.SameCoordinates,Original*%
%TF.FileFunction,Legend,Bot*%
%TF.FilePolarity,Positive*%
%FSLAX46Y46*%
G04 Gerber Fmt 4.6, Leading zero omitted, Abs format (unit mm)*
G04 Created by KiCad (PCBNEW 7.0.2) date 2023-06-30 23:04:39*
%MOMM*%
%LPD*%
G01*
G04 APERTURE LIST*
G04 Aperture macros list*
%AMRoundRect*
0 Rectangle with rounded corners*
0 $1 Rounding radius*
0 $2 $3 $4 $5 $6 $7 $8 $9 X,Y pos of 4 corners*
0 Add a 4 corners polygon primitive as box body*
4,1,4,$2,$3,$4,$5,$6,$7,$8,$9,$2,$3,0*
0 Add four circle primitives for the rounded corners*
1,1,$1+$1,$2,$3*
1,1,$1+$1,$4,$5*
1,1,$1+$1,$6,$7*
1,1,$1+$1,$8,$9*
0 Add four rect primitives between the rounded corners*
20,1,$1+$1,$2,$3,$4,$5,0*
20,1,$1+$1,$4,$5,$6,$7,0*
20,1,$1+$1,$6,$7,$8,$9,0*
20,1,$1+$1,$8,$9,$2,$3,0*%
%AMRotRect*
0 Rectangle, with rotation*
0 The origin of the aperture is its center*
0 $1 length*
0 $2 width*
0 $3 Rotation angle, in degrees counterclockwise*
0 Add horizontal line*
21,1,$1,$2,0,0,$3*%
G04 Aperture macros list end*
%ADD10C,0.150000*%
%ADD11C,0.120000*%
%ADD12RoundRect,0.375000X0.750000X-0.375000X0.750000X0.375000X-0.750000X0.375000X-0.750000X-0.375000X0*%
%ADD13C,1.752600*%
%ADD14C,0.900000*%
%ADD15C,1.701800*%
%ADD16C,3.000000*%
%ADD17C,3.429000*%
%ADD18RotRect,2.600000X2.600000X345.000000*%
%ADD19C,4.500000*%
%ADD20C,2.000000*%
%ADD21R,3.200000X2.000000*%
%ADD22RotRect,2.600000X2.600000X355.000000*%
%ADD23RotRect,2.600000X2.600000X15.000000*%
%ADD24RotRect,2.600000X2.600000X11.000000*%
%ADD25RotRect,2.600000X2.600000X5.000000*%
%ADD26RotRect,2.600000X2.600000X349.000000*%
%ADD27RotRect,2.600000X2.600000X29.000000*%
%ADD28RotRect,2.600000X2.600000X331.000000*%
%ADD29RoundRect,0.225000X0.375000X-0.225000X0.375000X0.225000X-0.375000X0.225000X-0.375000X-0.225000X0*%
%ADD30RoundRect,0.225000X0.225000X0.375000X-0.225000X0.375000X-0.225000X-0.375000X0.225000X-0.375000X0*%
%ADD31R,1.000000X0.800000*%
%ADD32R,0.700000X1.500000*%
G04 APERTURE END LIST*
D10*
%TO.C,J1*%
X138403047Y-88175904D02*
X138441142Y-88290190D01*
X138441142Y-88290190D02*
X138479238Y-88328285D01*
X138479238Y-88328285D02*
X138555428Y-88366381D01*
X138555428Y-88366381D02*
X138669714Y-88366381D01*
X138669714Y-88366381D02*
X138745904Y-88328285D01*
X138745904Y-88328285D02*
X138784000Y-88290190D01*
X138784000Y-88290190D02*
X138822095Y-88214000D01*
X138822095Y-88214000D02*
X138822095Y-87909238D01*
X138822095Y-87909238D02*
X138022095Y-87909238D01*
X138022095Y-87909238D02*
X138022095Y-88175904D01*
X138022095Y-88175904D02*
X138060190Y-88252095D01*
X138060190Y-88252095D02*
X138098285Y-88290190D01*
X138098285Y-88290190D02*
X138174476Y-88328285D01*
X138174476Y-88328285D02*
X138250666Y-88328285D01*
X138250666Y-88328285D02*
X138326857Y-88290190D01*
X138326857Y-88290190D02*
X138364952Y-88252095D01*
X138364952Y-88252095D02*
X138403047Y-88175904D01*
X138403047Y-88175904D02*
X138403047Y-87909238D01*
X138517333Y-88709238D02*
X138517333Y-89318762D01*
X138822095Y-89014000D02*
X138212571Y-89014000D01*
X138403047Y-84175904D02*
X138441142Y-84290190D01*
X138441142Y-84290190D02*
X138479238Y-84328285D01*
X138479238Y-84328285D02*
X138555428Y-84366381D01*
X138555428Y-84366381D02*
X138669714Y-84366381D01*
X138669714Y-84366381D02*
X138745904Y-84328285D01*
X138745904Y-84328285D02*
X138784000Y-84290190D01*
X138784000Y-84290190D02*
X138822095Y-84214000D01*
X138822095Y-84214000D02*
X138822095Y-83909238D01*
X138822095Y-83909238D02*
X138022095Y-83909238D01*
X138022095Y-83909238D02*
X138022095Y-84175904D01*
X138022095Y-84175904D02*
X138060190Y-84252095D01*
X138060190Y-84252095D02*
X138098285Y-84290190D01*
X138098285Y-84290190D02*
X138174476Y-84328285D01*
X138174476Y-84328285D02*
X138250666Y-84328285D01*
X138250666Y-84328285D02*
X138326857Y-84290190D01*
X138326857Y-84290190D02*
X138364952Y-84252095D01*
X138364952Y-84252095D02*
X138403047Y-84175904D01*
X138403047Y-84175904D02*
X138403047Y-83909238D01*
X138517333Y-84709238D02*
X138517333Y-85318762D01*
X138822095Y-85014000D02*
X138212571Y-85014000D01*
X138403047Y-86175904D02*
X138441142Y-86290190D01*
X138441142Y-86290190D02*
X138479238Y-86328285D01*
X138479238Y-86328285D02*
X138555428Y-86366381D01*
X138555428Y-86366381D02*
X138669714Y-86366381D01*
X138669714Y-86366381D02*
X138745904Y-86328285D01*
X138745904Y-86328285D02*
X138784000Y-86290190D01*
X138784000Y-86290190D02*
X138822095Y-86214000D01*
X138822095Y-86214000D02*
X138822095Y-85909238D01*
X138822095Y-85909238D02*
X138022095Y-85909238D01*
X138022095Y-85909238D02*
X138022095Y-86175904D01*
X138022095Y-86175904D02*
X138060190Y-86252095D01*
X138060190Y-86252095D02*
X138098285Y-86290190D01*
X138098285Y-86290190D02*
X138174476Y-86328285D01*
X138174476Y-86328285D02*
X138250666Y-86328285D01*
X138250666Y-86328285D02*
X138326857Y-86290190D01*
X138326857Y-86290190D02*
X138364952Y-86252095D01*
X138364952Y-86252095D02*
X138403047Y-86175904D01*
X138403047Y-86175904D02*
X138403047Y-85909238D01*
X138517333Y-86709238D02*
X138517333Y-87318762D01*
%TO.C,SW34*%
X169538619Y-88463618D02*
X169062428Y-88130285D01*
X169538619Y-87892190D02*
X168538619Y-87892190D01*
X168538619Y-87892190D02*
X168538619Y-88273142D01*
X168538619Y-88273142D02*
X168586238Y-88368380D01*
X168586238Y-88368380D02*
X168633857Y-88415999D01*
X168633857Y-88415999D02*
X168729095Y-88463618D01*
X168729095Y-88463618D02*
X168871952Y-88463618D01*
X168871952Y-88463618D02*
X168967190Y-88415999D01*
X168967190Y-88415999D02*
X169014809Y-88368380D01*
X169014809Y-88368380D02*
X169062428Y-88273142D01*
X169062428Y-88273142D02*
X169062428Y-87892190D01*
X169014809Y-88892190D02*
X169014809Y-89225523D01*
X169538619Y-89368380D02*
X169538619Y-88892190D01*
X169538619Y-88892190D02*
X168538619Y-88892190D01*
X168538619Y-88892190D02*
X168538619Y-89368380D01*
X169491000Y-89749333D02*
X169538619Y-89892190D01*
X169538619Y-89892190D02*
X169538619Y-90130285D01*
X169538619Y-90130285D02*
X169491000Y-90225523D01*
X169491000Y-90225523D02*
X169443380Y-90273142D01*
X169443380Y-90273142D02*
X169348142Y-90320761D01*
X169348142Y-90320761D02*
X169252904Y-90320761D01*
X169252904Y-90320761D02*
X169157666Y-90273142D01*
X169157666Y-90273142D02*
X169110047Y-90225523D01*
X169110047Y-90225523D02*
X169062428Y-90130285D01*
X169062428Y-90130285D02*
X169014809Y-89939809D01*
X169014809Y-89939809D02*
X168967190Y-89844571D01*
X168967190Y-89844571D02*
X168919571Y-89796952D01*
X168919571Y-89796952D02*
X168824333Y-89749333D01*
X168824333Y-89749333D02*
X168729095Y-89749333D01*
X168729095Y-89749333D02*
X168633857Y-89796952D01*
X168633857Y-89796952D02*
X168586238Y-89844571D01*
X168586238Y-89844571D02*
X168538619Y-89939809D01*
X168538619Y-89939809D02*
X168538619Y-90177904D01*
X168538619Y-90177904D02*
X168586238Y-90320761D01*
X169014809Y-90749333D02*
X169014809Y-91082666D01*
X169538619Y-91225523D02*
X169538619Y-90749333D01*
X169538619Y-90749333D02*
X168538619Y-90749333D01*
X168538619Y-90749333D02*
X168538619Y-91225523D01*
X168538619Y-91511238D02*
X168538619Y-92082666D01*
X169538619Y-91796952D02*
X168538619Y-91796952D01*
%TO.C,D14*%
X225132619Y-58095714D02*
X224132619Y-58095714D01*
X224132619Y-58095714D02*
X224132619Y-58333809D01*
X224132619Y-58333809D02*
X224180238Y-58476666D01*
X224180238Y-58476666D02*
X224275476Y-58571904D01*
X224275476Y-58571904D02*
X224370714Y-58619523D01*
X224370714Y-58619523D02*
X224561190Y-58667142D01*
X224561190Y-58667142D02*
X224704047Y-58667142D01*
X224704047Y-58667142D02*
X224894523Y-58619523D01*
X224894523Y-58619523D02*
X224989761Y-58571904D01*
X224989761Y-58571904D02*
X225085000Y-58476666D01*
X225085000Y-58476666D02*
X225132619Y-58333809D01*
X225132619Y-58333809D02*
X225132619Y-58095714D01*
X225132619Y-59619523D02*
X225132619Y-59048095D01*
X225132619Y-59333809D02*
X224132619Y-59333809D01*
X224132619Y-59333809D02*
X224275476Y-59238571D01*
X224275476Y-59238571D02*
X224370714Y-59143333D01*
X224370714Y-59143333D02*
X224418333Y-59048095D01*
X224465952Y-60476666D02*
X225132619Y-60476666D01*
X224085000Y-60238571D02*
X224799285Y-60000476D01*
X224799285Y-60000476D02*
X224799285Y-60619523D01*
%TO.C,D13*%
X208622619Y-68635714D02*
X207622619Y-68635714D01*
X207622619Y-68635714D02*
X207622619Y-68873809D01*
X207622619Y-68873809D02*
X207670238Y-69016666D01*
X207670238Y-69016666D02*
X207765476Y-69111904D01*
X207765476Y-69111904D02*
X207860714Y-69159523D01*
X207860714Y-69159523D02*
X208051190Y-69207142D01*
X208051190Y-69207142D02*
X208194047Y-69207142D01*
X208194047Y-69207142D02*
X208384523Y-69159523D01*
X208384523Y-69159523D02*
X208479761Y-69111904D01*
X208479761Y-69111904D02*
X208575000Y-69016666D01*
X208575000Y-69016666D02*
X208622619Y-68873809D01*
X208622619Y-68873809D02*
X208622619Y-68635714D01*
X208622619Y-70159523D02*
X208622619Y-69588095D01*
X208622619Y-69873809D02*
X207622619Y-69873809D01*
X207622619Y-69873809D02*
X207765476Y-69778571D01*
X207765476Y-69778571D02*
X207860714Y-69683333D01*
X207860714Y-69683333D02*
X207908333Y-69588095D01*
X207622619Y-70492857D02*
X207622619Y-71111904D01*
X207622619Y-71111904D02*
X208003571Y-70778571D01*
X208003571Y-70778571D02*
X208003571Y-70921428D01*
X208003571Y-70921428D02*
X208051190Y-71016666D01*
X208051190Y-71016666D02*
X208098809Y-71064285D01*
X208098809Y-71064285D02*
X208194047Y-71111904D01*
X208194047Y-71111904D02*
X208432142Y-71111904D01*
X208432142Y-71111904D02*
X208527380Y-71064285D01*
X208527380Y-71064285D02*
X208575000Y-71016666D01*
X208575000Y-71016666D02*
X208622619Y-70921428D01*
X208622619Y-70921428D02*
X208622619Y-70635714D01*
X208622619Y-70635714D02*
X208575000Y-70540476D01*
X208575000Y-70540476D02*
X208527380Y-70492857D01*
%TO.C,D9*%
X59612619Y-70127905D02*
X58612619Y-70127905D01*
X58612619Y-70127905D02*
X58612619Y-70366000D01*
X58612619Y-70366000D02*
X58660238Y-70508857D01*
X58660238Y-70508857D02*
X58755476Y-70604095D01*
X58755476Y-70604095D02*
X58850714Y-70651714D01*
X58850714Y-70651714D02*
X59041190Y-70699333D01*
X59041190Y-70699333D02*
X59184047Y-70699333D01*
X59184047Y-70699333D02*
X59374523Y-70651714D01*
X59374523Y-70651714D02*
X59469761Y-70604095D01*
X59469761Y-70604095D02*
X59565000Y-70508857D01*
X59565000Y-70508857D02*
X59612619Y-70366000D01*
X59612619Y-70366000D02*
X59612619Y-70127905D01*
X59612619Y-71175524D02*
X59612619Y-71366000D01*
X59612619Y-71366000D02*
X59565000Y-71461238D01*
X59565000Y-71461238D02*
X59517380Y-71508857D01*
X59517380Y-71508857D02*
X59374523Y-71604095D01*
X59374523Y-71604095D02*
X59184047Y-71651714D01*
X59184047Y-71651714D02*
X58803095Y-71651714D01*
X58803095Y-71651714D02*
X58707857Y-71604095D01*
X58707857Y-71604095D02*
X58660238Y-71556476D01*
X58660238Y-71556476D02*
X58612619Y-71461238D01*
X58612619Y-71461238D02*
X58612619Y-71270762D01*
X58612619Y-71270762D02*
X58660238Y-71175524D01*
X58660238Y-71175524D02*
X58707857Y-71127905D01*
X58707857Y-71127905D02*
X58803095Y-71080286D01*
X58803095Y-71080286D02*
X59041190Y-71080286D01*
X59041190Y-71080286D02*
X59136428Y-71127905D01*
X59136428Y-71127905D02*
X59184047Y-71175524D01*
X59184047Y-71175524D02*
X59231666Y-71270762D01*
X59231666Y-71270762D02*
X59231666Y-71461238D01*
X59231666Y-71461238D02*
X59184047Y-71556476D01*
X59184047Y-71556476D02*
X59136428Y-71604095D01*
X59136428Y-71604095D02*
X59041190Y-71651714D01*
%TO.C,D31*%
X188302619Y-59745714D02*
X187302619Y-59745714D01*
X187302619Y-59745714D02*
X187302619Y-59983809D01*
X187302619Y-59983809D02*
X187350238Y-60126666D01*
X187350238Y-60126666D02*
X187445476Y-60221904D01*
X187445476Y-60221904D02*
X187540714Y-60269523D01*
X187540714Y-60269523D02*
X187731190Y-60317142D01*
X187731190Y-60317142D02*
X187874047Y-60317142D01*
X187874047Y-60317142D02*
X188064523Y-60269523D01*
X188064523Y-60269523D02*
X188159761Y-60221904D01*
X188159761Y-60221904D02*
X188255000Y-60126666D01*
X188255000Y-60126666D02*
X188302619Y-59983809D01*
X188302619Y-59983809D02*
X188302619Y-59745714D01*
X187302619Y-60650476D02*
X187302619Y-61269523D01*
X187302619Y-61269523D02*
X187683571Y-60936190D01*
X187683571Y-60936190D02*
X187683571Y-61079047D01*
X187683571Y-61079047D02*
X187731190Y-61174285D01*
X187731190Y-61174285D02*
X187778809Y-61221904D01*
X187778809Y-61221904D02*
X187874047Y-61269523D01*
X187874047Y-61269523D02*
X188112142Y-61269523D01*
X188112142Y-61269523D02*
X188207380Y-61221904D01*
X188207380Y-61221904D02*
X188255000Y-61174285D01*
X188255000Y-61174285D02*
X188302619Y-61079047D01*
X188302619Y-61079047D02*
X188302619Y-60793333D01*
X188302619Y-60793333D02*
X188255000Y-60698095D01*
X188255000Y-60698095D02*
X188207380Y-60650476D01*
X188302619Y-62221904D02*
X188302619Y-61650476D01*
X188302619Y-61936190D02*
X187302619Y-61936190D01*
X187302619Y-61936190D02*
X187445476Y-61840952D01*
X187445476Y-61840952D02*
X187540714Y-61745714D01*
X187540714Y-61745714D02*
X187588333Y-61650476D01*
%TO.C,D20*%
X114642619Y-88955714D02*
X113642619Y-88955714D01*
X113642619Y-88955714D02*
X113642619Y-89193809D01*
X113642619Y-89193809D02*
X113690238Y-89336666D01*
X113690238Y-89336666D02*
X113785476Y-89431904D01*
X113785476Y-89431904D02*
X113880714Y-89479523D01*
X113880714Y-89479523D02*
X114071190Y-89527142D01*
X114071190Y-89527142D02*
X114214047Y-89527142D01*
X114214047Y-89527142D02*
X114404523Y-89479523D01*
X114404523Y-89479523D02*
X114499761Y-89431904D01*
X114499761Y-89431904D02*
X114595000Y-89336666D01*
X114595000Y-89336666D02*
X114642619Y-89193809D01*
X114642619Y-89193809D02*
X114642619Y-88955714D01*
X113737857Y-89908095D02*
X113690238Y-89955714D01*
X113690238Y-89955714D02*
X113642619Y-90050952D01*
X113642619Y-90050952D02*
X113642619Y-90289047D01*
X113642619Y-90289047D02*
X113690238Y-90384285D01*
X113690238Y-90384285D02*
X113737857Y-90431904D01*
X113737857Y-90431904D02*
X113833095Y-90479523D01*
X113833095Y-90479523D02*
X113928333Y-90479523D01*
X113928333Y-90479523D02*
X114071190Y-90431904D01*
X114071190Y-90431904D02*
X114642619Y-89860476D01*
X114642619Y-89860476D02*
X114642619Y-90479523D01*
X113642619Y-91098571D02*
X113642619Y-91193809D01*
X113642619Y-91193809D02*
X113690238Y-91289047D01*
X113690238Y-91289047D02*
X113737857Y-91336666D01*
X113737857Y-91336666D02*
X113833095Y-91384285D01*
X113833095Y-91384285D02*
X114023571Y-91431904D01*
X114023571Y-91431904D02*
X114261666Y-91431904D01*
X114261666Y-91431904D02*
X114452142Y-91384285D01*
X114452142Y-91384285D02*
X114547380Y-91336666D01*
X114547380Y-91336666D02*
X114595000Y-91289047D01*
X114595000Y-91289047D02*
X114642619Y-91193809D01*
X114642619Y-91193809D02*
X114642619Y-91098571D01*
X114642619Y-91098571D02*
X114595000Y-91003333D01*
X114595000Y-91003333D02*
X114547380Y-90955714D01*
X114547380Y-90955714D02*
X114452142Y-90908095D01*
X114452142Y-90908095D02*
X114261666Y-90860476D01*
X114261666Y-90860476D02*
X114023571Y-90860476D01*
X114023571Y-90860476D02*
X113833095Y-90908095D01*
X113833095Y-90908095D02*
X113737857Y-90955714D01*
X113737857Y-90955714D02*
X113690238Y-91003333D01*
X113690238Y-91003333D02*
X113642619Y-91098571D01*
%TO.C,D38*%
X204812619Y-110165714D02*
X203812619Y-110165714D01*
X203812619Y-110165714D02*
X203812619Y-110403809D01*
X203812619Y-110403809D02*
X203860238Y-110546666D01*
X203860238Y-110546666D02*
X203955476Y-110641904D01*
X203955476Y-110641904D02*
X204050714Y-110689523D01*
X204050714Y-110689523D02*
X204241190Y-110737142D01*
X204241190Y-110737142D02*
X204384047Y-110737142D01*
X204384047Y-110737142D02*
X204574523Y-110689523D01*
X204574523Y-110689523D02*
X204669761Y-110641904D01*
X204669761Y-110641904D02*
X204765000Y-110546666D01*
X204765000Y-110546666D02*
X204812619Y-110403809D01*
X204812619Y-110403809D02*
X204812619Y-110165714D01*
X203812619Y-111070476D02*
X203812619Y-111689523D01*
X203812619Y-111689523D02*
X204193571Y-111356190D01*
X204193571Y-111356190D02*
X204193571Y-111499047D01*
X204193571Y-111499047D02*
X204241190Y-111594285D01*
X204241190Y-111594285D02*
X204288809Y-111641904D01*
X204288809Y-111641904D02*
X204384047Y-111689523D01*
X204384047Y-111689523D02*
X204622142Y-111689523D01*
X204622142Y-111689523D02*
X204717380Y-111641904D01*
X204717380Y-111641904D02*
X204765000Y-111594285D01*
X204765000Y-111594285D02*
X204812619Y-111499047D01*
X204812619Y-111499047D02*
X204812619Y-111213333D01*
X204812619Y-111213333D02*
X204765000Y-111118095D01*
X204765000Y-111118095D02*
X204717380Y-111070476D01*
X204241190Y-112260952D02*
X204193571Y-112165714D01*
X204193571Y-112165714D02*
X204145952Y-112118095D01*
X204145952Y-112118095D02*
X204050714Y-112070476D01*
X204050714Y-112070476D02*
X204003095Y-112070476D01*
X204003095Y-112070476D02*
X203907857Y-112118095D01*
X203907857Y-112118095D02*
X203860238Y-112165714D01*
X203860238Y-112165714D02*
X203812619Y-112260952D01*
X203812619Y-112260952D02*
X203812619Y-112451428D01*
X203812619Y-112451428D02*
X203860238Y-112546666D01*
X203860238Y-112546666D02*
X203907857Y-112594285D01*
X203907857Y-112594285D02*
X204003095Y-112641904D01*
X204003095Y-112641904D02*
X204050714Y-112641904D01*
X204050714Y-112641904D02*
X204145952Y-112594285D01*
X204145952Y-112594285D02*
X204193571Y-112546666D01*
X204193571Y-112546666D02*
X204241190Y-112451428D01*
X204241190Y-112451428D02*
X204241190Y-112260952D01*
X204241190Y-112260952D02*
X204288809Y-112165714D01*
X204288809Y-112165714D02*
X204336428Y-112118095D01*
X204336428Y-112118095D02*
X204431666Y-112070476D01*
X204431666Y-112070476D02*
X204622142Y-112070476D01*
X204622142Y-112070476D02*
X204717380Y-112118095D01*
X204717380Y-112118095D02*
X204765000Y-112165714D01*
X204765000Y-112165714D02*
X204812619Y-112260952D01*
X204812619Y-112260952D02*
X204812619Y-112451428D01*
X204812619Y-112451428D02*
X204765000Y-112546666D01*
X204765000Y-112546666D02*
X204717380Y-112594285D01*
X204717380Y-112594285D02*
X204622142Y-112641904D01*
X204622142Y-112641904D02*
X204431666Y-112641904D01*
X204431666Y-112641904D02*
X204336428Y-112594285D01*
X204336428Y-112594285D02*
X204288809Y-112546666D01*
X204288809Y-112546666D02*
X204241190Y-112451428D01*
%TO.C,D29*%
X197192619Y-91495714D02*
X196192619Y-91495714D01*
X196192619Y-91495714D02*
X196192619Y-91733809D01*
X196192619Y-91733809D02*
X196240238Y-91876666D01*
X196240238Y-91876666D02*
X196335476Y-91971904D01*
X196335476Y-91971904D02*
X196430714Y-92019523D01*
X196430714Y-92019523D02*
X196621190Y-92067142D01*
X196621190Y-92067142D02*
X196764047Y-92067142D01*
X196764047Y-92067142D02*
X196954523Y-92019523D01*
X196954523Y-92019523D02*
X197049761Y-91971904D01*
X197049761Y-91971904D02*
X197145000Y-91876666D01*
X197145000Y-91876666D02*
X197192619Y-91733809D01*
X197192619Y-91733809D02*
X197192619Y-91495714D01*
X196287857Y-92448095D02*
X196240238Y-92495714D01*
X196240238Y-92495714D02*
X196192619Y-92590952D01*
X196192619Y-92590952D02*
X196192619Y-92829047D01*
X196192619Y-92829047D02*
X196240238Y-92924285D01*
X196240238Y-92924285D02*
X196287857Y-92971904D01*
X196287857Y-92971904D02*
X196383095Y-93019523D01*
X196383095Y-93019523D02*
X196478333Y-93019523D01*
X196478333Y-93019523D02*
X196621190Y-92971904D01*
X196621190Y-92971904D02*
X197192619Y-92400476D01*
X197192619Y-92400476D02*
X197192619Y-93019523D01*
X197192619Y-93495714D02*
X197192619Y-93686190D01*
X197192619Y-93686190D02*
X197145000Y-93781428D01*
X197145000Y-93781428D02*
X197097380Y-93829047D01*
X197097380Y-93829047D02*
X196954523Y-93924285D01*
X196954523Y-93924285D02*
X196764047Y-93971904D01*
X196764047Y-93971904D02*
X196383095Y-93971904D01*
X196383095Y-93971904D02*
X196287857Y-93924285D01*
X196287857Y-93924285D02*
X196240238Y-93876666D01*
X196240238Y-93876666D02*
X196192619Y-93781428D01*
X196192619Y-93781428D02*
X196192619Y-93590952D01*
X196192619Y-93590952D02*
X196240238Y-93495714D01*
X196240238Y-93495714D02*
X196287857Y-93448095D01*
X196287857Y-93448095D02*
X196383095Y-93400476D01*
X196383095Y-93400476D02*
X196621190Y-93400476D01*
X196621190Y-93400476D02*
X196716428Y-93448095D01*
X196716428Y-93448095D02*
X196764047Y-93495714D01*
X196764047Y-93495714D02*
X196811666Y-93590952D01*
X196811666Y-93590952D02*
X196811666Y-93781428D01*
X196811666Y-93781428D02*
X196764047Y-93876666D01*
X196764047Y-93876666D02*
X196716428Y-93924285D01*
X196716428Y-93924285D02*
X196621190Y-93971904D01*
%TO.C,D26*%
X140042619Y-64445714D02*
X139042619Y-64445714D01*
X139042619Y-64445714D02*
X139042619Y-64683809D01*
X139042619Y-64683809D02*
X139090238Y-64826666D01*
X139090238Y-64826666D02*
X139185476Y-64921904D01*
X139185476Y-64921904D02*
X139280714Y-64969523D01*
X139280714Y-64969523D02*
X139471190Y-65017142D01*
X139471190Y-65017142D02*
X139614047Y-65017142D01*
X139614047Y-65017142D02*
X139804523Y-64969523D01*
X139804523Y-64969523D02*
X139899761Y-64921904D01*
X139899761Y-64921904D02*
X139995000Y-64826666D01*
X139995000Y-64826666D02*
X140042619Y-64683809D01*
X140042619Y-64683809D02*
X140042619Y-64445714D01*
X139137857Y-65398095D02*
X139090238Y-65445714D01*
X139090238Y-65445714D02*
X139042619Y-65540952D01*
X139042619Y-65540952D02*
X139042619Y-65779047D01*
X139042619Y-65779047D02*
X139090238Y-65874285D01*
X139090238Y-65874285D02*
X139137857Y-65921904D01*
X139137857Y-65921904D02*
X139233095Y-65969523D01*
X139233095Y-65969523D02*
X139328333Y-65969523D01*
X139328333Y-65969523D02*
X139471190Y-65921904D01*
X139471190Y-65921904D02*
X140042619Y-65350476D01*
X140042619Y-65350476D02*
X140042619Y-65969523D01*
X139042619Y-66826666D02*
X139042619Y-66636190D01*
X139042619Y-66636190D02*
X139090238Y-66540952D01*
X139090238Y-66540952D02*
X139137857Y-66493333D01*
X139137857Y-66493333D02*
X139280714Y-66398095D01*
X139280714Y-66398095D02*
X139471190Y-66350476D01*
X139471190Y-66350476D02*
X139852142Y-66350476D01*
X139852142Y-66350476D02*
X139947380Y-66398095D01*
X139947380Y-66398095D02*
X139995000Y-66445714D01*
X139995000Y-66445714D02*
X140042619Y-66540952D01*
X140042619Y-66540952D02*
X140042619Y-66731428D01*
X140042619Y-66731428D02*
X139995000Y-66826666D01*
X139995000Y-66826666D02*
X139947380Y-66874285D01*
X139947380Y-66874285D02*
X139852142Y-66921904D01*
X139852142Y-66921904D02*
X139614047Y-66921904D01*
X139614047Y-66921904D02*
X139518809Y-66874285D01*
X139518809Y-66874285D02*
X139471190Y-66826666D01*
X139471190Y-66826666D02*
X139423571Y-66731428D01*
X139423571Y-66731428D02*
X139423571Y-66540952D01*
X139423571Y-66540952D02*
X139471190Y-66445714D01*
X139471190Y-66445714D02*
X139518809Y-66398095D01*
X139518809Y-66398095D02*
X139614047Y-66350476D01*
%TO.C,D6*%
X221322619Y-42441905D02*
X220322619Y-42441905D01*
X220322619Y-42441905D02*
X220322619Y-42680000D01*
X220322619Y-42680000D02*
X220370238Y-42822857D01*
X220370238Y-42822857D02*
X220465476Y-42918095D01*
X220465476Y-42918095D02*
X220560714Y-42965714D01*
X220560714Y-42965714D02*
X220751190Y-43013333D01*
X220751190Y-43013333D02*
X220894047Y-43013333D01*
X220894047Y-43013333D02*
X221084523Y-42965714D01*
X221084523Y-42965714D02*
X221179761Y-42918095D01*
X221179761Y-42918095D02*
X221275000Y-42822857D01*
X221275000Y-42822857D02*
X221322619Y-42680000D01*
X221322619Y-42680000D02*
X221322619Y-42441905D01*
X220322619Y-43870476D02*
X220322619Y-43680000D01*
X220322619Y-43680000D02*
X220370238Y-43584762D01*
X220370238Y-43584762D02*
X220417857Y-43537143D01*
X220417857Y-43537143D02*
X220560714Y-43441905D01*
X220560714Y-43441905D02*
X220751190Y-43394286D01*
X220751190Y-43394286D02*
X221132142Y-43394286D01*
X221132142Y-43394286D02*
X221227380Y-43441905D01*
X221227380Y-43441905D02*
X221275000Y-43489524D01*
X221275000Y-43489524D02*
X221322619Y-43584762D01*
X221322619Y-43584762D02*
X221322619Y-43775238D01*
X221322619Y-43775238D02*
X221275000Y-43870476D01*
X221275000Y-43870476D02*
X221227380Y-43918095D01*
X221227380Y-43918095D02*
X221132142Y-43965714D01*
X221132142Y-43965714D02*
X220894047Y-43965714D01*
X220894047Y-43965714D02*
X220798809Y-43918095D01*
X220798809Y-43918095D02*
X220751190Y-43870476D01*
X220751190Y-43870476D02*
X220703571Y-43775238D01*
X220703571Y-43775238D02*
X220703571Y-43584762D01*
X220703571Y-43584762D02*
X220751190Y-43489524D01*
X220751190Y-43489524D02*
X220798809Y-43441905D01*
X220798809Y-43441905D02*
X220894047Y-43394286D01*
%TO.C,D11*%
X101942619Y-63555714D02*
X100942619Y-63555714D01*
X100942619Y-63555714D02*
X100942619Y-63793809D01*
X100942619Y-63793809D02*
X100990238Y-63936666D01*
X100990238Y-63936666D02*
X101085476Y-64031904D01*
X101085476Y-64031904D02*
X101180714Y-64079523D01*
X101180714Y-64079523D02*
X101371190Y-64127142D01*
X101371190Y-64127142D02*
X101514047Y-64127142D01*
X101514047Y-64127142D02*
X101704523Y-64079523D01*
X101704523Y-64079523D02*
X101799761Y-64031904D01*
X101799761Y-64031904D02*
X101895000Y-63936666D01*
X101895000Y-63936666D02*
X101942619Y-63793809D01*
X101942619Y-63793809D02*
X101942619Y-63555714D01*
X101942619Y-65079523D02*
X101942619Y-64508095D01*
X101942619Y-64793809D02*
X100942619Y-64793809D01*
X100942619Y-64793809D02*
X101085476Y-64698571D01*
X101085476Y-64698571D02*
X101180714Y-64603333D01*
X101180714Y-64603333D02*
X101228333Y-64508095D01*
X101942619Y-66031904D02*
X101942619Y-65460476D01*
X101942619Y-65746190D02*
X100942619Y-65746190D01*
X100942619Y-65746190D02*
X101085476Y-65650952D01*
X101085476Y-65650952D02*
X101180714Y-65555714D01*
X101180714Y-65555714D02*
X101228333Y-65460476D01*
%TO.C,D3*%
X107022619Y-47521905D02*
X106022619Y-47521905D01*
X106022619Y-47521905D02*
X106022619Y-47760000D01*
X106022619Y-47760000D02*
X106070238Y-47902857D01*
X106070238Y-47902857D02*
X106165476Y-47998095D01*
X106165476Y-47998095D02*
X106260714Y-48045714D01*
X106260714Y-48045714D02*
X106451190Y-48093333D01*
X106451190Y-48093333D02*
X106594047Y-48093333D01*
X106594047Y-48093333D02*
X106784523Y-48045714D01*
X106784523Y-48045714D02*
X106879761Y-47998095D01*
X106879761Y-47998095D02*
X106975000Y-47902857D01*
X106975000Y-47902857D02*
X107022619Y-47760000D01*
X107022619Y-47760000D02*
X107022619Y-47521905D01*
X106022619Y-48426667D02*
X106022619Y-49045714D01*
X106022619Y-49045714D02*
X106403571Y-48712381D01*
X106403571Y-48712381D02*
X106403571Y-48855238D01*
X106403571Y-48855238D02*
X106451190Y-48950476D01*
X106451190Y-48950476D02*
X106498809Y-48998095D01*
X106498809Y-48998095D02*
X106594047Y-49045714D01*
X106594047Y-49045714D02*
X106832142Y-49045714D01*
X106832142Y-49045714D02*
X106927380Y-48998095D01*
X106927380Y-48998095D02*
X106975000Y-48950476D01*
X106975000Y-48950476D02*
X107022619Y-48855238D01*
X107022619Y-48855238D02*
X107022619Y-48569524D01*
X107022619Y-48569524D02*
X106975000Y-48474286D01*
X106975000Y-48474286D02*
X106927380Y-48426667D01*
%TO.C,D25*%
X166734285Y-100142619D02*
X166734285Y-99142619D01*
X166734285Y-99142619D02*
X166496190Y-99142619D01*
X166496190Y-99142619D02*
X166353333Y-99190238D01*
X166353333Y-99190238D02*
X166258095Y-99285476D01*
X166258095Y-99285476D02*
X166210476Y-99380714D01*
X166210476Y-99380714D02*
X166162857Y-99571190D01*
X166162857Y-99571190D02*
X166162857Y-99714047D01*
X166162857Y-99714047D02*
X166210476Y-99904523D01*
X166210476Y-99904523D02*
X166258095Y-99999761D01*
X166258095Y-99999761D02*
X166353333Y-100095000D01*
X166353333Y-100095000D02*
X166496190Y-100142619D01*
X166496190Y-100142619D02*
X166734285Y-100142619D01*
X165781904Y-99237857D02*
X165734285Y-99190238D01*
X165734285Y-99190238D02*
X165639047Y-99142619D01*
X165639047Y-99142619D02*
X165400952Y-99142619D01*
X165400952Y-99142619D02*
X165305714Y-99190238D01*
X165305714Y-99190238D02*
X165258095Y-99237857D01*
X165258095Y-99237857D02*
X165210476Y-99333095D01*
X165210476Y-99333095D02*
X165210476Y-99428333D01*
X165210476Y-99428333D02*
X165258095Y-99571190D01*
X165258095Y-99571190D02*
X165829523Y-100142619D01*
X165829523Y-100142619D02*
X165210476Y-100142619D01*
X164305714Y-99142619D02*
X164781904Y-99142619D01*
X164781904Y-99142619D02*
X164829523Y-99618809D01*
X164829523Y-99618809D02*
X164781904Y-99571190D01*
X164781904Y-99571190D02*
X164686666Y-99523571D01*
X164686666Y-99523571D02*
X164448571Y-99523571D01*
X164448571Y-99523571D02*
X164353333Y-99571190D01*
X164353333Y-99571190D02*
X164305714Y-99618809D01*
X164305714Y-99618809D02*
X164258095Y-99714047D01*
X164258095Y-99714047D02*
X164258095Y-99952142D01*
X164258095Y-99952142D02*
X164305714Y-100047380D01*
X164305714Y-100047380D02*
X164353333Y-100095000D01*
X164353333Y-100095000D02*
X164448571Y-100142619D01*
X164448571Y-100142619D02*
X164686666Y-100142619D01*
X164686666Y-100142619D02*
X164781904Y-100095000D01*
X164781904Y-100095000D02*
X164829523Y-100047380D01*
%TO.C,D10*%
X81622619Y-62285714D02*
X80622619Y-62285714D01*
X80622619Y-62285714D02*
X80622619Y-62523809D01*
X80622619Y-62523809D02*
X80670238Y-62666666D01*
X80670238Y-62666666D02*
X80765476Y-62761904D01*
X80765476Y-62761904D02*
X80860714Y-62809523D01*
X80860714Y-62809523D02*
X81051190Y-62857142D01*
X81051190Y-62857142D02*
X81194047Y-62857142D01*
X81194047Y-62857142D02*
X81384523Y-62809523D01*
X81384523Y-62809523D02*
X81479761Y-62761904D01*
X81479761Y-62761904D02*
X81575000Y-62666666D01*
X81575000Y-62666666D02*
X81622619Y-62523809D01*
X81622619Y-62523809D02*
X81622619Y-62285714D01*
X81622619Y-63809523D02*
X81622619Y-63238095D01*
X81622619Y-63523809D02*
X80622619Y-63523809D01*
X80622619Y-63523809D02*
X80765476Y-63428571D01*
X80765476Y-63428571D02*
X80860714Y-63333333D01*
X80860714Y-63333333D02*
X80908333Y-63238095D01*
X80622619Y-64428571D02*
X80622619Y-64523809D01*
X80622619Y-64523809D02*
X80670238Y-64619047D01*
X80670238Y-64619047D02*
X80717857Y-64666666D01*
X80717857Y-64666666D02*
X80813095Y-64714285D01*
X80813095Y-64714285D02*
X81003571Y-64761904D01*
X81003571Y-64761904D02*
X81241666Y-64761904D01*
X81241666Y-64761904D02*
X81432142Y-64714285D01*
X81432142Y-64714285D02*
X81527380Y-64666666D01*
X81527380Y-64666666D02*
X81575000Y-64619047D01*
X81575000Y-64619047D02*
X81622619Y-64523809D01*
X81622619Y-64523809D02*
X81622619Y-64428571D01*
X81622619Y-64428571D02*
X81575000Y-64333333D01*
X81575000Y-64333333D02*
X81527380Y-64285714D01*
X81527380Y-64285714D02*
X81432142Y-64238095D01*
X81432142Y-64238095D02*
X81241666Y-64190476D01*
X81241666Y-64190476D02*
X81003571Y-64190476D01*
X81003571Y-64190476D02*
X80813095Y-64238095D01*
X80813095Y-64238095D02*
X80717857Y-64285714D01*
X80717857Y-64285714D02*
X80670238Y-64333333D01*
X80670238Y-64333333D02*
X80622619Y-64428571D01*
%TO.C,D12*%
X118452619Y-72445714D02*
X117452619Y-72445714D01*
X117452619Y-72445714D02*
X117452619Y-72683809D01*
X117452619Y-72683809D02*
X117500238Y-72826666D01*
X117500238Y-72826666D02*
X117595476Y-72921904D01*
X117595476Y-72921904D02*
X117690714Y-72969523D01*
X117690714Y-72969523D02*
X117881190Y-73017142D01*
X117881190Y-73017142D02*
X118024047Y-73017142D01*
X118024047Y-73017142D02*
X118214523Y-72969523D01*
X118214523Y-72969523D02*
X118309761Y-72921904D01*
X118309761Y-72921904D02*
X118405000Y-72826666D01*
X118405000Y-72826666D02*
X118452619Y-72683809D01*
X118452619Y-72683809D02*
X118452619Y-72445714D01*
X118452619Y-73969523D02*
X118452619Y-73398095D01*
X118452619Y-73683809D02*
X117452619Y-73683809D01*
X117452619Y-73683809D02*
X117595476Y-73588571D01*
X117595476Y-73588571D02*
X117690714Y-73493333D01*
X117690714Y-73493333D02*
X117738333Y-73398095D01*
X117547857Y-74350476D02*
X117500238Y-74398095D01*
X117500238Y-74398095D02*
X117452619Y-74493333D01*
X117452619Y-74493333D02*
X117452619Y-74731428D01*
X117452619Y-74731428D02*
X117500238Y-74826666D01*
X117500238Y-74826666D02*
X117547857Y-74874285D01*
X117547857Y-74874285D02*
X117643095Y-74921904D01*
X117643095Y-74921904D02*
X117738333Y-74921904D01*
X117738333Y-74921904D02*
X117881190Y-74874285D01*
X117881190Y-74874285D02*
X118452619Y-74302857D01*
X118452619Y-74302857D02*
X118452619Y-74921904D01*
%TO.C,D28*%
X132422619Y-97465714D02*
X131422619Y-97465714D01*
X131422619Y-97465714D02*
X131422619Y-97703809D01*
X131422619Y-97703809D02*
X131470238Y-97846666D01*
X131470238Y-97846666D02*
X131565476Y-97941904D01*
X131565476Y-97941904D02*
X131660714Y-97989523D01*
X131660714Y-97989523D02*
X131851190Y-98037142D01*
X131851190Y-98037142D02*
X131994047Y-98037142D01*
X131994047Y-98037142D02*
X132184523Y-97989523D01*
X132184523Y-97989523D02*
X132279761Y-97941904D01*
X132279761Y-97941904D02*
X132375000Y-97846666D01*
X132375000Y-97846666D02*
X132422619Y-97703809D01*
X132422619Y-97703809D02*
X132422619Y-97465714D01*
X131517857Y-98418095D02*
X131470238Y-98465714D01*
X131470238Y-98465714D02*
X131422619Y-98560952D01*
X131422619Y-98560952D02*
X131422619Y-98799047D01*
X131422619Y-98799047D02*
X131470238Y-98894285D01*
X131470238Y-98894285D02*
X131517857Y-98941904D01*
X131517857Y-98941904D02*
X131613095Y-98989523D01*
X131613095Y-98989523D02*
X131708333Y-98989523D01*
X131708333Y-98989523D02*
X131851190Y-98941904D01*
X131851190Y-98941904D02*
X132422619Y-98370476D01*
X132422619Y-98370476D02*
X132422619Y-98989523D01*
X131851190Y-99560952D02*
X131803571Y-99465714D01*
X131803571Y-99465714D02*
X131755952Y-99418095D01*
X131755952Y-99418095D02*
X131660714Y-99370476D01*
X131660714Y-99370476D02*
X131613095Y-99370476D01*
X131613095Y-99370476D02*
X131517857Y-99418095D01*
X131517857Y-99418095D02*
X131470238Y-99465714D01*
X131470238Y-99465714D02*
X131422619Y-99560952D01*
X131422619Y-99560952D02*
X131422619Y-99751428D01*
X131422619Y-99751428D02*
X131470238Y-99846666D01*
X131470238Y-99846666D02*
X131517857Y-99894285D01*
X131517857Y-99894285D02*
X131613095Y-99941904D01*
X131613095Y-99941904D02*
X131660714Y-99941904D01*
X131660714Y-99941904D02*
X131755952Y-99894285D01*
X131755952Y-99894285D02*
X131803571Y-99846666D01*
X131803571Y-99846666D02*
X131851190Y-99751428D01*
X131851190Y-99751428D02*
X131851190Y-99560952D01*
X131851190Y-99560952D02*
X131898809Y-99465714D01*
X131898809Y-99465714D02*
X131946428Y-99418095D01*
X131946428Y-99418095D02*
X132041666Y-99370476D01*
X132041666Y-99370476D02*
X132232142Y-99370476D01*
X132232142Y-99370476D02*
X132327380Y-99418095D01*
X132327380Y-99418095D02*
X132375000Y-99465714D01*
X132375000Y-99465714D02*
X132422619Y-99560952D01*
X132422619Y-99560952D02*
X132422619Y-99751428D01*
X132422619Y-99751428D02*
X132375000Y-99846666D01*
X132375000Y-99846666D02*
X132327380Y-99894285D01*
X132327380Y-99894285D02*
X132232142Y-99941904D01*
X132232142Y-99941904D02*
X132041666Y-99941904D01*
X132041666Y-99941904D02*
X131946428Y-99894285D01*
X131946428Y-99894285D02*
X131898809Y-99846666D01*
X131898809Y-99846666D02*
X131851190Y-99751428D01*
%TO.C,D24*%
X268312619Y-87685714D02*
X267312619Y-87685714D01*
X267312619Y-87685714D02*
X267312619Y-87923809D01*
X267312619Y-87923809D02*
X267360238Y-88066666D01*
X267360238Y-88066666D02*
X267455476Y-88161904D01*
X267455476Y-88161904D02*
X267550714Y-88209523D01*
X267550714Y-88209523D02*
X267741190Y-88257142D01*
X267741190Y-88257142D02*
X267884047Y-88257142D01*
X267884047Y-88257142D02*
X268074523Y-88209523D01*
X268074523Y-88209523D02*
X268169761Y-88161904D01*
X268169761Y-88161904D02*
X268265000Y-88066666D01*
X268265000Y-88066666D02*
X268312619Y-87923809D01*
X268312619Y-87923809D02*
X268312619Y-87685714D01*
X267407857Y-88638095D02*
X267360238Y-88685714D01*
X267360238Y-88685714D02*
X267312619Y-88780952D01*
X267312619Y-88780952D02*
X267312619Y-89019047D01*
X267312619Y-89019047D02*
X267360238Y-89114285D01*
X267360238Y-89114285D02*
X267407857Y-89161904D01*
X267407857Y-89161904D02*
X267503095Y-89209523D01*
X267503095Y-89209523D02*
X267598333Y-89209523D01*
X267598333Y-89209523D02*
X267741190Y-89161904D01*
X267741190Y-89161904D02*
X268312619Y-88590476D01*
X268312619Y-88590476D02*
X268312619Y-89209523D01*
X267645952Y-90066666D02*
X268312619Y-90066666D01*
X267265000Y-89828571D02*
X267979285Y-89590476D01*
X267979285Y-89590476D02*
X267979285Y-90209523D01*
%TO.C,D16*%
X267042619Y-69905714D02*
X266042619Y-69905714D01*
X266042619Y-69905714D02*
X266042619Y-70143809D01*
X266042619Y-70143809D02*
X266090238Y-70286666D01*
X266090238Y-70286666D02*
X266185476Y-70381904D01*
X266185476Y-70381904D02*
X266280714Y-70429523D01*
X266280714Y-70429523D02*
X266471190Y-70477142D01*
X266471190Y-70477142D02*
X266614047Y-70477142D01*
X266614047Y-70477142D02*
X266804523Y-70429523D01*
X266804523Y-70429523D02*
X266899761Y-70381904D01*
X266899761Y-70381904D02*
X266995000Y-70286666D01*
X266995000Y-70286666D02*
X267042619Y-70143809D01*
X267042619Y-70143809D02*
X267042619Y-69905714D01*
X267042619Y-71429523D02*
X267042619Y-70858095D01*
X267042619Y-71143809D02*
X266042619Y-71143809D01*
X266042619Y-71143809D02*
X266185476Y-71048571D01*
X266185476Y-71048571D02*
X266280714Y-70953333D01*
X266280714Y-70953333D02*
X266328333Y-70858095D01*
X266042619Y-72286666D02*
X266042619Y-72096190D01*
X266042619Y-72096190D02*
X266090238Y-72000952D01*
X266090238Y-72000952D02*
X266137857Y-71953333D01*
X266137857Y-71953333D02*
X266280714Y-71858095D01*
X266280714Y-71858095D02*
X266471190Y-71810476D01*
X266471190Y-71810476D02*
X266852142Y-71810476D01*
X266852142Y-71810476D02*
X266947380Y-71858095D01*
X266947380Y-71858095D02*
X266995000Y-71905714D01*
X266995000Y-71905714D02*
X267042619Y-72000952D01*
X267042619Y-72000952D02*
X267042619Y-72191428D01*
X267042619Y-72191428D02*
X266995000Y-72286666D01*
X266995000Y-72286666D02*
X266947380Y-72334285D01*
X266947380Y-72334285D02*
X266852142Y-72381904D01*
X266852142Y-72381904D02*
X266614047Y-72381904D01*
X266614047Y-72381904D02*
X266518809Y-72334285D01*
X266518809Y-72334285D02*
X266471190Y-72286666D01*
X266471190Y-72286666D02*
X266423571Y-72191428D01*
X266423571Y-72191428D02*
X266423571Y-72000952D01*
X266423571Y-72000952D02*
X266471190Y-71905714D01*
X266471190Y-71905714D02*
X266518809Y-71858095D01*
X266518809Y-71858095D02*
X266614047Y-71810476D01*
%TO.C,D18*%
X77812619Y-79685714D02*
X76812619Y-79685714D01*
X76812619Y-79685714D02*
X76812619Y-79923809D01*
X76812619Y-79923809D02*
X76860238Y-80066666D01*
X76860238Y-80066666D02*
X76955476Y-80161904D01*
X76955476Y-80161904D02*
X77050714Y-80209523D01*
X77050714Y-80209523D02*
X77241190Y-80257142D01*
X77241190Y-80257142D02*
X77384047Y-80257142D01*
X77384047Y-80257142D02*
X77574523Y-80209523D01*
X77574523Y-80209523D02*
X77669761Y-80161904D01*
X77669761Y-80161904D02*
X77765000Y-80066666D01*
X77765000Y-80066666D02*
X77812619Y-79923809D01*
X77812619Y-79923809D02*
X77812619Y-79685714D01*
X77812619Y-81209523D02*
X77812619Y-80638095D01*
X77812619Y-80923809D02*
X76812619Y-80923809D01*
X76812619Y-80923809D02*
X76955476Y-80828571D01*
X76955476Y-80828571D02*
X77050714Y-80733333D01*
X77050714Y-80733333D02*
X77098333Y-80638095D01*
X77241190Y-81780952D02*
X77193571Y-81685714D01*
X77193571Y-81685714D02*
X77145952Y-81638095D01*
X77145952Y-81638095D02*
X77050714Y-81590476D01*
X77050714Y-81590476D02*
X77003095Y-81590476D01*
X77003095Y-81590476D02*
X76907857Y-81638095D01*
X76907857Y-81638095D02*
X76860238Y-81685714D01*
X76860238Y-81685714D02*
X76812619Y-81780952D01*
X76812619Y-81780952D02*
X76812619Y-81971428D01*
X76812619Y-81971428D02*
X76860238Y-82066666D01*
X76860238Y-82066666D02*
X76907857Y-82114285D01*
X76907857Y-82114285D02*
X77003095Y-82161904D01*
X77003095Y-82161904D02*
X77050714Y-82161904D01*
X77050714Y-82161904D02*
X77145952Y-82114285D01*
X77145952Y-82114285D02*
X77193571Y-82066666D01*
X77193571Y-82066666D02*
X77241190Y-81971428D01*
X77241190Y-81971428D02*
X77241190Y-81780952D01*
X77241190Y-81780952D02*
X77288809Y-81685714D01*
X77288809Y-81685714D02*
X77336428Y-81638095D01*
X77336428Y-81638095D02*
X77431666Y-81590476D01*
X77431666Y-81590476D02*
X77622142Y-81590476D01*
X77622142Y-81590476D02*
X77717380Y-81638095D01*
X77717380Y-81638095D02*
X77765000Y-81685714D01*
X77765000Y-81685714D02*
X77812619Y-81780952D01*
X77812619Y-81780952D02*
X77812619Y-81971428D01*
X77812619Y-81971428D02*
X77765000Y-82066666D01*
X77765000Y-82066666D02*
X77717380Y-82114285D01*
X77717380Y-82114285D02*
X77622142Y-82161904D01*
X77622142Y-82161904D02*
X77431666Y-82161904D01*
X77431666Y-82161904D02*
X77336428Y-82114285D01*
X77336428Y-82114285D02*
X77288809Y-82066666D01*
X77288809Y-82066666D02*
X77241190Y-81971428D01*
%TO.C,D30*%
X192112619Y-74985714D02*
X191112619Y-74985714D01*
X191112619Y-74985714D02*
X191112619Y-75223809D01*
X191112619Y-75223809D02*
X191160238Y-75366666D01*
X191160238Y-75366666D02*
X191255476Y-75461904D01*
X191255476Y-75461904D02*
X191350714Y-75509523D01*
X191350714Y-75509523D02*
X191541190Y-75557142D01*
X191541190Y-75557142D02*
X191684047Y-75557142D01*
X191684047Y-75557142D02*
X191874523Y-75509523D01*
X191874523Y-75509523D02*
X191969761Y-75461904D01*
X191969761Y-75461904D02*
X192065000Y-75366666D01*
X192065000Y-75366666D02*
X192112619Y-75223809D01*
X192112619Y-75223809D02*
X192112619Y-74985714D01*
X191112619Y-75890476D02*
X191112619Y-76509523D01*
X191112619Y-76509523D02*
X191493571Y-76176190D01*
X191493571Y-76176190D02*
X191493571Y-76319047D01*
X191493571Y-76319047D02*
X191541190Y-76414285D01*
X191541190Y-76414285D02*
X191588809Y-76461904D01*
X191588809Y-76461904D02*
X191684047Y-76509523D01*
X191684047Y-76509523D02*
X191922142Y-76509523D01*
X191922142Y-76509523D02*
X192017380Y-76461904D01*
X192017380Y-76461904D02*
X192065000Y-76414285D01*
X192065000Y-76414285D02*
X192112619Y-76319047D01*
X192112619Y-76319047D02*
X192112619Y-76033333D01*
X192112619Y-76033333D02*
X192065000Y-75938095D01*
X192065000Y-75938095D02*
X192017380Y-75890476D01*
X191112619Y-77128571D02*
X191112619Y-77223809D01*
X191112619Y-77223809D02*
X191160238Y-77319047D01*
X191160238Y-77319047D02*
X191207857Y-77366666D01*
X191207857Y-77366666D02*
X191303095Y-77414285D01*
X191303095Y-77414285D02*
X191493571Y-77461904D01*
X191493571Y-77461904D02*
X191731666Y-77461904D01*
X191731666Y-77461904D02*
X191922142Y-77414285D01*
X191922142Y-77414285D02*
X192017380Y-77366666D01*
X192017380Y-77366666D02*
X192065000Y-77319047D01*
X192065000Y-77319047D02*
X192112619Y-77223809D01*
X192112619Y-77223809D02*
X192112619Y-77128571D01*
X192112619Y-77128571D02*
X192065000Y-77033333D01*
X192065000Y-77033333D02*
X192017380Y-76985714D01*
X192017380Y-76985714D02*
X191922142Y-76938095D01*
X191922142Y-76938095D02*
X191731666Y-76890476D01*
X191731666Y-76890476D02*
X191493571Y-76890476D01*
X191493571Y-76890476D02*
X191303095Y-76938095D01*
X191303095Y-76938095D02*
X191207857Y-76985714D01*
X191207857Y-76985714D02*
X191160238Y-77033333D01*
X191160238Y-77033333D02*
X191112619Y-77128571D01*
%TO.C,D8*%
X265772619Y-53871905D02*
X264772619Y-53871905D01*
X264772619Y-53871905D02*
X264772619Y-54110000D01*
X264772619Y-54110000D02*
X264820238Y-54252857D01*
X264820238Y-54252857D02*
X264915476Y-54348095D01*
X264915476Y-54348095D02*
X265010714Y-54395714D01*
X265010714Y-54395714D02*
X265201190Y-54443333D01*
X265201190Y-54443333D02*
X265344047Y-54443333D01*
X265344047Y-54443333D02*
X265534523Y-54395714D01*
X265534523Y-54395714D02*
X265629761Y-54348095D01*
X265629761Y-54348095D02*
X265725000Y-54252857D01*
X265725000Y-54252857D02*
X265772619Y-54110000D01*
X265772619Y-54110000D02*
X265772619Y-53871905D01*
X265201190Y-55014762D02*
X265153571Y-54919524D01*
X265153571Y-54919524D02*
X265105952Y-54871905D01*
X265105952Y-54871905D02*
X265010714Y-54824286D01*
X265010714Y-54824286D02*
X264963095Y-54824286D01*
X264963095Y-54824286D02*
X264867857Y-54871905D01*
X264867857Y-54871905D02*
X264820238Y-54919524D01*
X264820238Y-54919524D02*
X264772619Y-55014762D01*
X264772619Y-55014762D02*
X264772619Y-55205238D01*
X264772619Y-55205238D02*
X264820238Y-55300476D01*
X264820238Y-55300476D02*
X264867857Y-55348095D01*
X264867857Y-55348095D02*
X264963095Y-55395714D01*
X264963095Y-55395714D02*
X265010714Y-55395714D01*
X265010714Y-55395714D02*
X265105952Y-55348095D01*
X265105952Y-55348095D02*
X265153571Y-55300476D01*
X265153571Y-55300476D02*
X265201190Y-55205238D01*
X265201190Y-55205238D02*
X265201190Y-55014762D01*
X265201190Y-55014762D02*
X265248809Y-54919524D01*
X265248809Y-54919524D02*
X265296428Y-54871905D01*
X265296428Y-54871905D02*
X265391666Y-54824286D01*
X265391666Y-54824286D02*
X265582142Y-54824286D01*
X265582142Y-54824286D02*
X265677380Y-54871905D01*
X265677380Y-54871905D02*
X265725000Y-54919524D01*
X265725000Y-54919524D02*
X265772619Y-55014762D01*
X265772619Y-55014762D02*
X265772619Y-55205238D01*
X265772619Y-55205238D02*
X265725000Y-55300476D01*
X265725000Y-55300476D02*
X265677380Y-55348095D01*
X265677380Y-55348095D02*
X265582142Y-55395714D01*
X265582142Y-55395714D02*
X265391666Y-55395714D01*
X265391666Y-55395714D02*
X265296428Y-55348095D01*
X265296428Y-55348095D02*
X265248809Y-55300476D01*
X265248809Y-55300476D02*
X265201190Y-55205238D01*
%TO.C,D21*%
X213702619Y-83875714D02*
X212702619Y-83875714D01*
X212702619Y-83875714D02*
X212702619Y-84113809D01*
X212702619Y-84113809D02*
X212750238Y-84256666D01*
X212750238Y-84256666D02*
X212845476Y-84351904D01*
X212845476Y-84351904D02*
X212940714Y-84399523D01*
X212940714Y-84399523D02*
X213131190Y-84447142D01*
X213131190Y-84447142D02*
X213274047Y-84447142D01*
X213274047Y-84447142D02*
X213464523Y-84399523D01*
X213464523Y-84399523D02*
X213559761Y-84351904D01*
X213559761Y-84351904D02*
X213655000Y-84256666D01*
X213655000Y-84256666D02*
X213702619Y-84113809D01*
X213702619Y-84113809D02*
X213702619Y-83875714D01*
X212797857Y-84828095D02*
X212750238Y-84875714D01*
X212750238Y-84875714D02*
X212702619Y-84970952D01*
X212702619Y-84970952D02*
X212702619Y-85209047D01*
X212702619Y-85209047D02*
X212750238Y-85304285D01*
X212750238Y-85304285D02*
X212797857Y-85351904D01*
X212797857Y-85351904D02*
X212893095Y-85399523D01*
X212893095Y-85399523D02*
X212988333Y-85399523D01*
X212988333Y-85399523D02*
X213131190Y-85351904D01*
X213131190Y-85351904D02*
X213702619Y-84780476D01*
X213702619Y-84780476D02*
X213702619Y-85399523D01*
X213702619Y-86351904D02*
X213702619Y-85780476D01*
X213702619Y-86066190D02*
X212702619Y-86066190D01*
X212702619Y-86066190D02*
X212845476Y-85970952D01*
X212845476Y-85970952D02*
X212940714Y-85875714D01*
X212940714Y-85875714D02*
X212988333Y-85780476D01*
%TO.C,D4*%
X123532619Y-56791905D02*
X122532619Y-56791905D01*
X122532619Y-56791905D02*
X122532619Y-57030000D01*
X122532619Y-57030000D02*
X122580238Y-57172857D01*
X122580238Y-57172857D02*
X122675476Y-57268095D01*
X122675476Y-57268095D02*
X122770714Y-57315714D01*
X122770714Y-57315714D02*
X122961190Y-57363333D01*
X122961190Y-57363333D02*
X123104047Y-57363333D01*
X123104047Y-57363333D02*
X123294523Y-57315714D01*
X123294523Y-57315714D02*
X123389761Y-57268095D01*
X123389761Y-57268095D02*
X123485000Y-57172857D01*
X123485000Y-57172857D02*
X123532619Y-57030000D01*
X123532619Y-57030000D02*
X123532619Y-56791905D01*
X122865952Y-58220476D02*
X123532619Y-58220476D01*
X122485000Y-57982381D02*
X123199285Y-57744286D01*
X123199285Y-57744286D02*
X123199285Y-58363333D01*
%TO.C,D7*%
X242912619Y-42821905D02*
X241912619Y-42821905D01*
X241912619Y-42821905D02*
X241912619Y-43060000D01*
X241912619Y-43060000D02*
X241960238Y-43202857D01*
X241960238Y-43202857D02*
X242055476Y-43298095D01*
X242055476Y-43298095D02*
X242150714Y-43345714D01*
X242150714Y-43345714D02*
X242341190Y-43393333D01*
X242341190Y-43393333D02*
X242484047Y-43393333D01*
X242484047Y-43393333D02*
X242674523Y-43345714D01*
X242674523Y-43345714D02*
X242769761Y-43298095D01*
X242769761Y-43298095D02*
X242865000Y-43202857D01*
X242865000Y-43202857D02*
X242912619Y-43060000D01*
X242912619Y-43060000D02*
X242912619Y-42821905D01*
X241912619Y-43726667D02*
X241912619Y-44393333D01*
X241912619Y-44393333D02*
X242912619Y-43964762D01*
%TO.C,SW33*%
X155563941Y-114242091D02*
X155421084Y-114289710D01*
X155421084Y-114289710D02*
X155182989Y-114289710D01*
X155182989Y-114289710D02*
X155087751Y-114242091D01*
X155087751Y-114242091D02*
X155040132Y-114194471D01*
X155040132Y-114194471D02*
X154992513Y-114099233D01*
X154992513Y-114099233D02*
X154992513Y-114003995D01*
X154992513Y-114003995D02*
X155040132Y-113908757D01*
X155040132Y-113908757D02*
X155087751Y-113861138D01*
X155087751Y-113861138D02*
X155182989Y-113813519D01*
X155182989Y-113813519D02*
X155373465Y-113765900D01*
X155373465Y-113765900D02*
X155468703Y-113718281D01*
X155468703Y-113718281D02*
X155516322Y-113670662D01*
X155516322Y-113670662D02*
X155563941Y-113575424D01*
X155563941Y-113575424D02*
X155563941Y-113480186D01*
X155563941Y-113480186D02*
X155516322Y-113384948D01*
X155516322Y-113384948D02*
X155468703Y-113337329D01*
X155468703Y-113337329D02*
X155373465Y-113289710D01*
X155373465Y-113289710D02*
X155135370Y-113289710D01*
X155135370Y-113289710D02*
X154992513Y-113337329D01*
X154659179Y-113289710D02*
X154421084Y-114289710D01*
X154421084Y-114289710D02*
X154230608Y-113575424D01*
X154230608Y-113575424D02*
X154040132Y-114289710D01*
X154040132Y-114289710D02*
X153802037Y-113289710D01*
X153516322Y-113289710D02*
X152897275Y-113289710D01*
X152897275Y-113289710D02*
X153230608Y-113670662D01*
X153230608Y-113670662D02*
X153087751Y-113670662D01*
X153087751Y-113670662D02*
X152992513Y-113718281D01*
X152992513Y-113718281D02*
X152944894Y-113765900D01*
X152944894Y-113765900D02*
X152897275Y-113861138D01*
X152897275Y-113861138D02*
X152897275Y-114099233D01*
X152897275Y-114099233D02*
X152944894Y-114194471D01*
X152944894Y-114194471D02*
X152992513Y-114242091D01*
X152992513Y-114242091D02*
X153087751Y-114289710D01*
X153087751Y-114289710D02*
X153373465Y-114289710D01*
X153373465Y-114289710D02*
X153468703Y-114242091D01*
X153468703Y-114242091D02*
X153516322Y-114194471D01*
X152563941Y-113289710D02*
X151944894Y-113289710D01*
X151944894Y-113289710D02*
X152278227Y-113670662D01*
X152278227Y-113670662D02*
X152135370Y-113670662D01*
X152135370Y-113670662D02*
X152040132Y-113718281D01*
X152040132Y-113718281D02*
X151992513Y-113765900D01*
X151992513Y-113765900D02*
X151944894Y-113861138D01*
X151944894Y-113861138D02*
X151944894Y-114099233D01*
X151944894Y-114099233D02*
X151992513Y-114194471D01*
X151992513Y-114194471D02*
X152040132Y-114242091D01*
X152040132Y-114242091D02*
X152135370Y-114289710D01*
X152135370Y-114289710D02*
X152421084Y-114289710D01*
X152421084Y-114289710D02*
X152516322Y-114242091D01*
X152516322Y-114242091D02*
X152563941Y-114194471D01*
%TO.C,U1*%
X148774094Y-55106845D02*
X149040761Y-54725892D01*
X149231237Y-55106845D02*
X149231237Y-54306845D01*
X149231237Y-54306845D02*
X148926475Y-54306845D01*
X148926475Y-54306845D02*
X148850285Y-54344940D01*
X148850285Y-54344940D02*
X148812190Y-54383035D01*
X148812190Y-54383035D02*
X148774094Y-54459226D01*
X148774094Y-54459226D02*
X148774094Y-54573511D01*
X148774094Y-54573511D02*
X148812190Y-54649702D01*
X148812190Y-54649702D02*
X148850285Y-54687797D01*
X148850285Y-54687797D02*
X148926475Y-54725892D01*
X148926475Y-54725892D02*
X149231237Y-54725892D01*
X148469333Y-55068750D02*
X148355047Y-55106845D01*
X148355047Y-55106845D02*
X148164571Y-55106845D01*
X148164571Y-55106845D02*
X148088380Y-55068750D01*
X148088380Y-55068750D02*
X148050285Y-55030654D01*
X148050285Y-55030654D02*
X148012190Y-54954464D01*
X148012190Y-54954464D02*
X148012190Y-54878273D01*
X148012190Y-54878273D02*
X148050285Y-54802083D01*
X148050285Y-54802083D02*
X148088380Y-54763988D01*
X148088380Y-54763988D02*
X148164571Y-54725892D01*
X148164571Y-54725892D02*
X148316952Y-54687797D01*
X148316952Y-54687797D02*
X148393142Y-54649702D01*
X148393142Y-54649702D02*
X148431237Y-54611607D01*
X148431237Y-54611607D02*
X148469333Y-54535416D01*
X148469333Y-54535416D02*
X148469333Y-54459226D01*
X148469333Y-54459226D02*
X148431237Y-54383035D01*
X148431237Y-54383035D02*
X148393142Y-54344940D01*
X148393142Y-54344940D02*
X148316952Y-54306845D01*
X148316952Y-54306845D02*
X148126475Y-54306845D01*
X148126475Y-54306845D02*
X148012190Y-54344940D01*
X147783618Y-54306845D02*
X147326475Y-54306845D01*
X147555047Y-55106845D02*
X147555047Y-54306845D01*
X159959110Y-49950654D02*
X159997206Y-49988750D01*
X159997206Y-49988750D02*
X160111491Y-50026845D01*
X160111491Y-50026845D02*
X160187682Y-50026845D01*
X160187682Y-50026845D02*
X160301968Y-49988750D01*
X160301968Y-49988750D02*
X160378158Y-49912559D01*
X160378158Y-49912559D02*
X160416253Y-49836369D01*
X160416253Y-49836369D02*
X160454349Y-49683988D01*
X160454349Y-49683988D02*
X160454349Y-49569702D01*
X160454349Y-49569702D02*
X160416253Y-49417321D01*
X160416253Y-49417321D02*
X160378158Y-49341130D01*
X160378158Y-49341130D02*
X160301968Y-49264940D01*
X160301968Y-49264940D02*
X160187682Y-49226845D01*
X160187682Y-49226845D02*
X160111491Y-49226845D01*
X160111491Y-49226845D02*
X159997206Y-49264940D01*
X159997206Y-49264940D02*
X159959110Y-49303035D01*
X159654349Y-49988750D02*
X159540063Y-50026845D01*
X159540063Y-50026845D02*
X159349587Y-50026845D01*
X159349587Y-50026845D02*
X159273396Y-49988750D01*
X159273396Y-49988750D02*
X159235301Y-49950654D01*
X159235301Y-49950654D02*
X159197206Y-49874464D01*
X159197206Y-49874464D02*
X159197206Y-49798273D01*
X159197206Y-49798273D02*
X159235301Y-49722083D01*
X159235301Y-49722083D02*
X159273396Y-49683988D01*
X159273396Y-49683988D02*
X159349587Y-49645892D01*
X159349587Y-49645892D02*
X159501968Y-49607797D01*
X159501968Y-49607797D02*
X159578158Y-49569702D01*
X159578158Y-49569702D02*
X159616253Y-49531607D01*
X159616253Y-49531607D02*
X159654349Y-49455416D01*
X159654349Y-49455416D02*
X159654349Y-49379226D01*
X159654349Y-49379226D02*
X159616253Y-49303035D01*
X159616253Y-49303035D02*
X159578158Y-49264940D01*
X159578158Y-49264940D02*
X159501968Y-49226845D01*
X159501968Y-49226845D02*
X159311491Y-49226845D01*
X159311491Y-49226845D02*
X159197206Y-49264940D01*
X149078856Y-51804940D02*
X149155046Y-51766845D01*
X149155046Y-51766845D02*
X149269332Y-51766845D01*
X149269332Y-51766845D02*
X149383618Y-51804940D01*
X149383618Y-51804940D02*
X149459808Y-51881130D01*
X149459808Y-51881130D02*
X149497903Y-51957321D01*
X149497903Y-51957321D02*
X149535999Y-52109702D01*
X149535999Y-52109702D02*
X149535999Y-52223988D01*
X149535999Y-52223988D02*
X149497903Y-52376369D01*
X149497903Y-52376369D02*
X149459808Y-52452559D01*
X149459808Y-52452559D02*
X149383618Y-52528750D01*
X149383618Y-52528750D02*
X149269332Y-52566845D01*
X149269332Y-52566845D02*
X149193141Y-52566845D01*
X149193141Y-52566845D02*
X149078856Y-52528750D01*
X149078856Y-52528750D02*
X149040760Y-52490654D01*
X149040760Y-52490654D02*
X149040760Y-52223988D01*
X149040760Y-52223988D02*
X149193141Y-52223988D01*
X148697903Y-52566845D02*
X148697903Y-51766845D01*
X148697903Y-51766845D02*
X148240760Y-52566845D01*
X148240760Y-52566845D02*
X148240760Y-51766845D01*
X147859808Y-52566845D02*
X147859808Y-51766845D01*
X147859808Y-51766845D02*
X147669332Y-51766845D01*
X147669332Y-51766845D02*
X147555046Y-51804940D01*
X147555046Y-51804940D02*
X147478856Y-51881130D01*
X147478856Y-51881130D02*
X147440761Y-51957321D01*
X147440761Y-51957321D02*
X147402665Y-52109702D01*
X147402665Y-52109702D02*
X147402665Y-52223988D01*
X147402665Y-52223988D02*
X147440761Y-52376369D01*
X147440761Y-52376369D02*
X147478856Y-52452559D01*
X147478856Y-52452559D02*
X147555046Y-52528750D01*
X147555046Y-52528750D02*
X147669332Y-52566845D01*
X147669332Y-52566845D02*
X147859808Y-52566845D01*
X149453475Y-56846845D02*
X149186808Y-57646845D01*
X149186808Y-57646845D02*
X148920142Y-56846845D01*
X148196332Y-57570654D02*
X148234428Y-57608750D01*
X148234428Y-57608750D02*
X148348713Y-57646845D01*
X148348713Y-57646845D02*
X148424904Y-57646845D01*
X148424904Y-57646845D02*
X148539190Y-57608750D01*
X148539190Y-57608750D02*
X148615380Y-57532559D01*
X148615380Y-57532559D02*
X148653475Y-57456369D01*
X148653475Y-57456369D02*
X148691571Y-57303988D01*
X148691571Y-57303988D02*
X148691571Y-57189702D01*
X148691571Y-57189702D02*
X148653475Y-57037321D01*
X148653475Y-57037321D02*
X148615380Y-56961130D01*
X148615380Y-56961130D02*
X148539190Y-56884940D01*
X148539190Y-56884940D02*
X148424904Y-56846845D01*
X148424904Y-56846845D02*
X148348713Y-56846845D01*
X148348713Y-56846845D02*
X148234428Y-56884940D01*
X148234428Y-56884940D02*
X148196332Y-56923035D01*
X147396332Y-57570654D02*
X147434428Y-57608750D01*
X147434428Y-57608750D02*
X147548713Y-57646845D01*
X147548713Y-57646845D02*
X147624904Y-57646845D01*
X147624904Y-57646845D02*
X147739190Y-57608750D01*
X147739190Y-57608750D02*
X147815380Y-57532559D01*
X147815380Y-57532559D02*
X147853475Y-57456369D01*
X147853475Y-57456369D02*
X147891571Y-57303988D01*
X147891571Y-57303988D02*
X147891571Y-57189702D01*
X147891571Y-57189702D02*
X147853475Y-57037321D01*
X147853475Y-57037321D02*
X147815380Y-56961130D01*
X147815380Y-56961130D02*
X147739190Y-56884940D01*
X147739190Y-56884940D02*
X147624904Y-56846845D01*
X147624904Y-56846845D02*
X147548713Y-56846845D01*
X147548713Y-56846845D02*
X147434428Y-56884940D01*
X147434428Y-56884940D02*
X147396332Y-56923035D01*
X149002665Y-50026845D02*
X149269332Y-49645892D01*
X149459808Y-50026845D02*
X149459808Y-49226845D01*
X149459808Y-49226845D02*
X149155046Y-49226845D01*
X149155046Y-49226845D02*
X149078856Y-49264940D01*
X149078856Y-49264940D02*
X149040761Y-49303035D01*
X149040761Y-49303035D02*
X149002665Y-49379226D01*
X149002665Y-49379226D02*
X149002665Y-49493511D01*
X149002665Y-49493511D02*
X149040761Y-49569702D01*
X149040761Y-49569702D02*
X149078856Y-49607797D01*
X149078856Y-49607797D02*
X149155046Y-49645892D01*
X149155046Y-49645892D02*
X149459808Y-49645892D01*
X148697904Y-49798273D02*
X148316951Y-49798273D01*
X148774094Y-50026845D02*
X148507427Y-49226845D01*
X148507427Y-49226845D02*
X148240761Y-50026845D01*
X148050285Y-49226845D02*
X147859809Y-50026845D01*
X147859809Y-50026845D02*
X147707428Y-49455416D01*
X147707428Y-49455416D02*
X147555047Y-50026845D01*
X147555047Y-50026845D02*
X147364571Y-49226845D01*
%TO.C,D27*%
X135050619Y-79049714D02*
X134050619Y-79049714D01*
X134050619Y-79049714D02*
X134050619Y-79287809D01*
X134050619Y-79287809D02*
X134098238Y-79430666D01*
X134098238Y-79430666D02*
X134193476Y-79525904D01*
X134193476Y-79525904D02*
X134288714Y-79573523D01*
X134288714Y-79573523D02*
X134479190Y-79621142D01*
X134479190Y-79621142D02*
X134622047Y-79621142D01*
X134622047Y-79621142D02*
X134812523Y-79573523D01*
X134812523Y-79573523D02*
X134907761Y-79525904D01*
X134907761Y-79525904D02*
X135003000Y-79430666D01*
X135003000Y-79430666D02*
X135050619Y-79287809D01*
X135050619Y-79287809D02*
X135050619Y-79049714D01*
X134145857Y-80002095D02*
X134098238Y-80049714D01*
X134098238Y-80049714D02*
X134050619Y-80144952D01*
X134050619Y-80144952D02*
X134050619Y-80383047D01*
X134050619Y-80383047D02*
X134098238Y-80478285D01*
X134098238Y-80478285D02*
X134145857Y-80525904D01*
X134145857Y-80525904D02*
X134241095Y-80573523D01*
X134241095Y-80573523D02*
X134336333Y-80573523D01*
X134336333Y-80573523D02*
X134479190Y-80525904D01*
X134479190Y-80525904D02*
X135050619Y-79954476D01*
X135050619Y-79954476D02*
X135050619Y-80573523D01*
X134050619Y-80906857D02*
X134050619Y-81573523D01*
X134050619Y-81573523D02*
X135050619Y-81144952D01*
%TO.C,D5*%
X204812619Y-51711905D02*
X203812619Y-51711905D01*
X203812619Y-51711905D02*
X203812619Y-51950000D01*
X203812619Y-51950000D02*
X203860238Y-52092857D01*
X203860238Y-52092857D02*
X203955476Y-52188095D01*
X203955476Y-52188095D02*
X204050714Y-52235714D01*
X204050714Y-52235714D02*
X204241190Y-52283333D01*
X204241190Y-52283333D02*
X204384047Y-52283333D01*
X204384047Y-52283333D02*
X204574523Y-52235714D01*
X204574523Y-52235714D02*
X204669761Y-52188095D01*
X204669761Y-52188095D02*
X204765000Y-52092857D01*
X204765000Y-52092857D02*
X204812619Y-51950000D01*
X204812619Y-51950000D02*
X204812619Y-51711905D01*
X203812619Y-53188095D02*
X203812619Y-52711905D01*
X203812619Y-52711905D02*
X204288809Y-52664286D01*
X204288809Y-52664286D02*
X204241190Y-52711905D01*
X204241190Y-52711905D02*
X204193571Y-52807143D01*
X204193571Y-52807143D02*
X204193571Y-53045238D01*
X204193571Y-53045238D02*
X204241190Y-53140476D01*
X204241190Y-53140476D02*
X204288809Y-53188095D01*
X204288809Y-53188095D02*
X204384047Y-53235714D01*
X204384047Y-53235714D02*
X204622142Y-53235714D01*
X204622142Y-53235714D02*
X204717380Y-53188095D01*
X204717380Y-53188095D02*
X204765000Y-53140476D01*
X204765000Y-53140476D02*
X204812619Y-53045238D01*
X204812619Y-53045238D02*
X204812619Y-52807143D01*
X204812619Y-52807143D02*
X204765000Y-52711905D01*
X204765000Y-52711905D02*
X204717380Y-52664286D01*
%TO.C,D19*%
X98132619Y-78795714D02*
X97132619Y-78795714D01*
X97132619Y-78795714D02*
X97132619Y-79033809D01*
X97132619Y-79033809D02*
X97180238Y-79176666D01*
X97180238Y-79176666D02*
X97275476Y-79271904D01*
X97275476Y-79271904D02*
X97370714Y-79319523D01*
X97370714Y-79319523D02*
X97561190Y-79367142D01*
X97561190Y-79367142D02*
X97704047Y-79367142D01*
X97704047Y-79367142D02*
X97894523Y-79319523D01*
X97894523Y-79319523D02*
X97989761Y-79271904D01*
X97989761Y-79271904D02*
X98085000Y-79176666D01*
X98085000Y-79176666D02*
X98132619Y-79033809D01*
X98132619Y-79033809D02*
X98132619Y-78795714D01*
X98132619Y-80319523D02*
X98132619Y-79748095D01*
X98132619Y-80033809D02*
X97132619Y-80033809D01*
X97132619Y-80033809D02*
X97275476Y-79938571D01*
X97275476Y-79938571D02*
X97370714Y-79843333D01*
X97370714Y-79843333D02*
X97418333Y-79748095D01*
X98132619Y-80795714D02*
X98132619Y-80986190D01*
X98132619Y-80986190D02*
X98085000Y-81081428D01*
X98085000Y-81081428D02*
X98037380Y-81129047D01*
X98037380Y-81129047D02*
X97894523Y-81224285D01*
X97894523Y-81224285D02*
X97704047Y-81271904D01*
X97704047Y-81271904D02*
X97323095Y-81271904D01*
X97323095Y-81271904D02*
X97227857Y-81224285D01*
X97227857Y-81224285D02*
X97180238Y-81176666D01*
X97180238Y-81176666D02*
X97132619Y-81081428D01*
X97132619Y-81081428D02*
X97132619Y-80890952D01*
X97132619Y-80890952D02*
X97180238Y-80795714D01*
X97180238Y-80795714D02*
X97227857Y-80748095D01*
X97227857Y-80748095D02*
X97323095Y-80700476D01*
X97323095Y-80700476D02*
X97561190Y-80700476D01*
X97561190Y-80700476D02*
X97656428Y-80748095D01*
X97656428Y-80748095D02*
X97704047Y-80795714D01*
X97704047Y-80795714D02*
X97751666Y-80890952D01*
X97751666Y-80890952D02*
X97751666Y-81081428D01*
X97751666Y-81081428D02*
X97704047Y-81176666D01*
X97704047Y-81176666D02*
X97656428Y-81224285D01*
X97656428Y-81224285D02*
X97561190Y-81271904D01*
%TO.C,D15*%
X245452619Y-58475714D02*
X244452619Y-58475714D01*
X244452619Y-58475714D02*
X244452619Y-58713809D01*
X244452619Y-58713809D02*
X244500238Y-58856666D01*
X244500238Y-58856666D02*
X244595476Y-58951904D01*
X244595476Y-58951904D02*
X244690714Y-58999523D01*
X244690714Y-58999523D02*
X244881190Y-59047142D01*
X244881190Y-59047142D02*
X245024047Y-59047142D01*
X245024047Y-59047142D02*
X245214523Y-58999523D01*
X245214523Y-58999523D02*
X245309761Y-58951904D01*
X245309761Y-58951904D02*
X245405000Y-58856666D01*
X245405000Y-58856666D02*
X245452619Y-58713809D01*
X245452619Y-58713809D02*
X245452619Y-58475714D01*
X245452619Y-59999523D02*
X245452619Y-59428095D01*
X245452619Y-59713809D02*
X244452619Y-59713809D01*
X244452619Y-59713809D02*
X244595476Y-59618571D01*
X244595476Y-59618571D02*
X244690714Y-59523333D01*
X244690714Y-59523333D02*
X244738333Y-59428095D01*
X244452619Y-60904285D02*
X244452619Y-60428095D01*
X244452619Y-60428095D02*
X244928809Y-60380476D01*
X244928809Y-60380476D02*
X244881190Y-60428095D01*
X244881190Y-60428095D02*
X244833571Y-60523333D01*
X244833571Y-60523333D02*
X244833571Y-60761428D01*
X244833571Y-60761428D02*
X244881190Y-60856666D01*
X244881190Y-60856666D02*
X244928809Y-60904285D01*
X244928809Y-60904285D02*
X245024047Y-60951904D01*
X245024047Y-60951904D02*
X245262142Y-60951904D01*
X245262142Y-60951904D02*
X245357380Y-60904285D01*
X245357380Y-60904285D02*
X245405000Y-60856666D01*
X245405000Y-60856666D02*
X245452619Y-60761428D01*
X245452619Y-60761428D02*
X245452619Y-60523333D01*
X245452619Y-60523333D02*
X245405000Y-60428095D01*
X245405000Y-60428095D02*
X245357380Y-60380476D01*
%TO.C,D36*%
X137502619Y-124135714D02*
X136502619Y-124135714D01*
X136502619Y-124135714D02*
X136502619Y-124373809D01*
X136502619Y-124373809D02*
X136550238Y-124516666D01*
X136550238Y-124516666D02*
X136645476Y-124611904D01*
X136645476Y-124611904D02*
X136740714Y-124659523D01*
X136740714Y-124659523D02*
X136931190Y-124707142D01*
X136931190Y-124707142D02*
X137074047Y-124707142D01*
X137074047Y-124707142D02*
X137264523Y-124659523D01*
X137264523Y-124659523D02*
X137359761Y-124611904D01*
X137359761Y-124611904D02*
X137455000Y-124516666D01*
X137455000Y-124516666D02*
X137502619Y-124373809D01*
X137502619Y-124373809D02*
X137502619Y-124135714D01*
X136502619Y-125040476D02*
X136502619Y-125659523D01*
X136502619Y-125659523D02*
X136883571Y-125326190D01*
X136883571Y-125326190D02*
X136883571Y-125469047D01*
X136883571Y-125469047D02*
X136931190Y-125564285D01*
X136931190Y-125564285D02*
X136978809Y-125611904D01*
X136978809Y-125611904D02*
X137074047Y-125659523D01*
X137074047Y-125659523D02*
X137312142Y-125659523D01*
X137312142Y-125659523D02*
X137407380Y-125611904D01*
X137407380Y-125611904D02*
X137455000Y-125564285D01*
X137455000Y-125564285D02*
X137502619Y-125469047D01*
X137502619Y-125469047D02*
X137502619Y-125183333D01*
X137502619Y-125183333D02*
X137455000Y-125088095D01*
X137455000Y-125088095D02*
X137407380Y-125040476D01*
X136502619Y-126516666D02*
X136502619Y-126326190D01*
X136502619Y-126326190D02*
X136550238Y-126230952D01*
X136550238Y-126230952D02*
X136597857Y-126183333D01*
X136597857Y-126183333D02*
X136740714Y-126088095D01*
X136740714Y-126088095D02*
X136931190Y-126040476D01*
X136931190Y-126040476D02*
X137312142Y-126040476D01*
X137312142Y-126040476D02*
X137407380Y-126088095D01*
X137407380Y-126088095D02*
X137455000Y-126135714D01*
X137455000Y-126135714D02*
X137502619Y-126230952D01*
X137502619Y-126230952D02*
X137502619Y-126421428D01*
X137502619Y-126421428D02*
X137455000Y-126516666D01*
X137455000Y-126516666D02*
X137407380Y-126564285D01*
X137407380Y-126564285D02*
X137312142Y-126611904D01*
X137312142Y-126611904D02*
X137074047Y-126611904D01*
X137074047Y-126611904D02*
X136978809Y-126564285D01*
X136978809Y-126564285D02*
X136931190Y-126516666D01*
X136931190Y-126516666D02*
X136883571Y-126421428D01*
X136883571Y-126421428D02*
X136883571Y-126230952D01*
X136883571Y-126230952D02*
X136931190Y-126135714D01*
X136931190Y-126135714D02*
X136978809Y-126088095D01*
X136978809Y-126088095D02*
X137074047Y-126040476D01*
%TO.C,D23*%
X246556619Y-75239714D02*
X245556619Y-75239714D01*
X245556619Y-75239714D02*
X245556619Y-75477809D01*
X245556619Y-75477809D02*
X245604238Y-75620666D01*
X245604238Y-75620666D02*
X245699476Y-75715904D01*
X245699476Y-75715904D02*
X245794714Y-75763523D01*
X245794714Y-75763523D02*
X245985190Y-75811142D01*
X245985190Y-75811142D02*
X246128047Y-75811142D01*
X246128047Y-75811142D02*
X246318523Y-75763523D01*
X246318523Y-75763523D02*
X246413761Y-75715904D01*
X246413761Y-75715904D02*
X246509000Y-75620666D01*
X246509000Y-75620666D02*
X246556619Y-75477809D01*
X246556619Y-75477809D02*
X246556619Y-75239714D01*
X245651857Y-76192095D02*
X245604238Y-76239714D01*
X245604238Y-76239714D02*
X245556619Y-76334952D01*
X245556619Y-76334952D02*
X245556619Y-76573047D01*
X245556619Y-76573047D02*
X245604238Y-76668285D01*
X245604238Y-76668285D02*
X245651857Y-76715904D01*
X245651857Y-76715904D02*
X245747095Y-76763523D01*
X245747095Y-76763523D02*
X245842333Y-76763523D01*
X245842333Y-76763523D02*
X245985190Y-76715904D01*
X245985190Y-76715904D02*
X246556619Y-76144476D01*
X246556619Y-76144476D02*
X246556619Y-76763523D01*
X245556619Y-77096857D02*
X245556619Y-77715904D01*
X245556619Y-77715904D02*
X245937571Y-77382571D01*
X245937571Y-77382571D02*
X245937571Y-77525428D01*
X245937571Y-77525428D02*
X245985190Y-77620666D01*
X245985190Y-77620666D02*
X246032809Y-77668285D01*
X246032809Y-77668285D02*
X246128047Y-77715904D01*
X246128047Y-77715904D02*
X246366142Y-77715904D01*
X246366142Y-77715904D02*
X246461380Y-77668285D01*
X246461380Y-77668285D02*
X246509000Y-77620666D01*
X246509000Y-77620666D02*
X246556619Y-77525428D01*
X246556619Y-77525428D02*
X246556619Y-77239714D01*
X246556619Y-77239714D02*
X246509000Y-77144476D01*
X246509000Y-77144476D02*
X246461380Y-77096857D01*
%TO.C,D22*%
X228942619Y-76255714D02*
X227942619Y-76255714D01*
X227942619Y-76255714D02*
X227942619Y-76493809D01*
X227942619Y-76493809D02*
X227990238Y-76636666D01*
X227990238Y-76636666D02*
X228085476Y-76731904D01*
X228085476Y-76731904D02*
X228180714Y-76779523D01*
X228180714Y-76779523D02*
X228371190Y-76827142D01*
X228371190Y-76827142D02*
X228514047Y-76827142D01*
X228514047Y-76827142D02*
X228704523Y-76779523D01*
X228704523Y-76779523D02*
X228799761Y-76731904D01*
X228799761Y-76731904D02*
X228895000Y-76636666D01*
X228895000Y-76636666D02*
X228942619Y-76493809D01*
X228942619Y-76493809D02*
X228942619Y-76255714D01*
X228037857Y-77208095D02*
X227990238Y-77255714D01*
X227990238Y-77255714D02*
X227942619Y-77350952D01*
X227942619Y-77350952D02*
X227942619Y-77589047D01*
X227942619Y-77589047D02*
X227990238Y-77684285D01*
X227990238Y-77684285D02*
X228037857Y-77731904D01*
X228037857Y-77731904D02*
X228133095Y-77779523D01*
X228133095Y-77779523D02*
X228228333Y-77779523D01*
X228228333Y-77779523D02*
X228371190Y-77731904D01*
X228371190Y-77731904D02*
X228942619Y-77160476D01*
X228942619Y-77160476D02*
X228942619Y-77779523D01*
X228037857Y-78160476D02*
X227990238Y-78208095D01*
X227990238Y-78208095D02*
X227942619Y-78303333D01*
X227942619Y-78303333D02*
X227942619Y-78541428D01*
X227942619Y-78541428D02*
X227990238Y-78636666D01*
X227990238Y-78636666D02*
X228037857Y-78684285D01*
X228037857Y-78684285D02*
X228133095Y-78731904D01*
X228133095Y-78731904D02*
X228228333Y-78731904D01*
X228228333Y-78731904D02*
X228371190Y-78684285D01*
X228371190Y-78684285D02*
X228942619Y-78112857D01*
X228942619Y-78112857D02*
X228942619Y-78731904D01*
%TO.C,D2*%
X85432619Y-46251905D02*
X84432619Y-46251905D01*
X84432619Y-46251905D02*
X84432619Y-46490000D01*
X84432619Y-46490000D02*
X84480238Y-46632857D01*
X84480238Y-46632857D02*
X84575476Y-46728095D01*
X84575476Y-46728095D02*
X84670714Y-46775714D01*
X84670714Y-46775714D02*
X84861190Y-46823333D01*
X84861190Y-46823333D02*
X85004047Y-46823333D01*
X85004047Y-46823333D02*
X85194523Y-46775714D01*
X85194523Y-46775714D02*
X85289761Y-46728095D01*
X85289761Y-46728095D02*
X85385000Y-46632857D01*
X85385000Y-46632857D02*
X85432619Y-46490000D01*
X85432619Y-46490000D02*
X85432619Y-46251905D01*
X84527857Y-47204286D02*
X84480238Y-47251905D01*
X84480238Y-47251905D02*
X84432619Y-47347143D01*
X84432619Y-47347143D02*
X84432619Y-47585238D01*
X84432619Y-47585238D02*
X84480238Y-47680476D01*
X84480238Y-47680476D02*
X84527857Y-47728095D01*
X84527857Y-47728095D02*
X84623095Y-47775714D01*
X84623095Y-47775714D02*
X84718333Y-47775714D01*
X84718333Y-47775714D02*
X84861190Y-47728095D01*
X84861190Y-47728095D02*
X85432619Y-47156667D01*
X85432619Y-47156667D02*
X85432619Y-47775714D01*
%TO.C,D35*%
X122262619Y-113975714D02*
X121262619Y-113975714D01*
X121262619Y-113975714D02*
X121262619Y-114213809D01*
X121262619Y-114213809D02*
X121310238Y-114356666D01*
X121310238Y-114356666D02*
X121405476Y-114451904D01*
X121405476Y-114451904D02*
X121500714Y-114499523D01*
X121500714Y-114499523D02*
X121691190Y-114547142D01*
X121691190Y-114547142D02*
X121834047Y-114547142D01*
X121834047Y-114547142D02*
X122024523Y-114499523D01*
X122024523Y-114499523D02*
X122119761Y-114451904D01*
X122119761Y-114451904D02*
X122215000Y-114356666D01*
X122215000Y-114356666D02*
X122262619Y-114213809D01*
X122262619Y-114213809D02*
X122262619Y-113975714D01*
X121262619Y-114880476D02*
X121262619Y-115499523D01*
X121262619Y-115499523D02*
X121643571Y-115166190D01*
X121643571Y-115166190D02*
X121643571Y-115309047D01*
X121643571Y-115309047D02*
X121691190Y-115404285D01*
X121691190Y-115404285D02*
X121738809Y-115451904D01*
X121738809Y-115451904D02*
X121834047Y-115499523D01*
X121834047Y-115499523D02*
X122072142Y-115499523D01*
X122072142Y-115499523D02*
X122167380Y-115451904D01*
X122167380Y-115451904D02*
X122215000Y-115404285D01*
X122215000Y-115404285D02*
X122262619Y-115309047D01*
X122262619Y-115309047D02*
X122262619Y-115023333D01*
X122262619Y-115023333D02*
X122215000Y-114928095D01*
X122215000Y-114928095D02*
X122167380Y-114880476D01*
X121262619Y-116404285D02*
X121262619Y-115928095D01*
X121262619Y-115928095D02*
X121738809Y-115880476D01*
X121738809Y-115880476D02*
X121691190Y-115928095D01*
X121691190Y-115928095D02*
X121643571Y-116023333D01*
X121643571Y-116023333D02*
X121643571Y-116261428D01*
X121643571Y-116261428D02*
X121691190Y-116356666D01*
X121691190Y-116356666D02*
X121738809Y-116404285D01*
X121738809Y-116404285D02*
X121834047Y-116451904D01*
X121834047Y-116451904D02*
X122072142Y-116451904D01*
X122072142Y-116451904D02*
X122167380Y-116404285D01*
X122167380Y-116404285D02*
X122215000Y-116356666D01*
X122215000Y-116356666D02*
X122262619Y-116261428D01*
X122262619Y-116261428D02*
X122262619Y-116023333D01*
X122262619Y-116023333D02*
X122215000Y-115928095D01*
X122215000Y-115928095D02*
X122167380Y-115880476D01*
%TO.C,D37*%
X187032619Y-115625714D02*
X186032619Y-115625714D01*
X186032619Y-115625714D02*
X186032619Y-115863809D01*
X186032619Y-115863809D02*
X186080238Y-116006666D01*
X186080238Y-116006666D02*
X186175476Y-116101904D01*
X186175476Y-116101904D02*
X186270714Y-116149523D01*
X186270714Y-116149523D02*
X186461190Y-116197142D01*
X186461190Y-116197142D02*
X186604047Y-116197142D01*
X186604047Y-116197142D02*
X186794523Y-116149523D01*
X186794523Y-116149523D02*
X186889761Y-116101904D01*
X186889761Y-116101904D02*
X186985000Y-116006666D01*
X186985000Y-116006666D02*
X187032619Y-115863809D01*
X187032619Y-115863809D02*
X187032619Y-115625714D01*
X186032619Y-116530476D02*
X186032619Y-117149523D01*
X186032619Y-117149523D02*
X186413571Y-116816190D01*
X186413571Y-116816190D02*
X186413571Y-116959047D01*
X186413571Y-116959047D02*
X186461190Y-117054285D01*
X186461190Y-117054285D02*
X186508809Y-117101904D01*
X186508809Y-117101904D02*
X186604047Y-117149523D01*
X186604047Y-117149523D02*
X186842142Y-117149523D01*
X186842142Y-117149523D02*
X186937380Y-117101904D01*
X186937380Y-117101904D02*
X186985000Y-117054285D01*
X186985000Y-117054285D02*
X187032619Y-116959047D01*
X187032619Y-116959047D02*
X187032619Y-116673333D01*
X187032619Y-116673333D02*
X186985000Y-116578095D01*
X186985000Y-116578095D02*
X186937380Y-116530476D01*
X186032619Y-117482857D02*
X186032619Y-118149523D01*
X186032619Y-118149523D02*
X187032619Y-117720952D01*
%TO.C,D1*%
X63842619Y-50061905D02*
X62842619Y-50061905D01*
X62842619Y-50061905D02*
X62842619Y-50300000D01*
X62842619Y-50300000D02*
X62890238Y-50442857D01*
X62890238Y-50442857D02*
X62985476Y-50538095D01*
X62985476Y-50538095D02*
X63080714Y-50585714D01*
X63080714Y-50585714D02*
X63271190Y-50633333D01*
X63271190Y-50633333D02*
X63414047Y-50633333D01*
X63414047Y-50633333D02*
X63604523Y-50585714D01*
X63604523Y-50585714D02*
X63699761Y-50538095D01*
X63699761Y-50538095D02*
X63795000Y-50442857D01*
X63795000Y-50442857D02*
X63842619Y-50300000D01*
X63842619Y-50300000D02*
X63842619Y-50061905D01*
X63842619Y-51585714D02*
X63842619Y-51014286D01*
X63842619Y-51300000D02*
X62842619Y-51300000D01*
X62842619Y-51300000D02*
X62985476Y-51204762D01*
X62985476Y-51204762D02*
X63080714Y-51109524D01*
X63080714Y-51109524D02*
X63128333Y-51014286D01*
%TO.C,D17*%
X58762619Y-88575714D02*
X57762619Y-88575714D01*
X57762619Y-88575714D02*
X57762619Y-88813809D01*
X57762619Y-88813809D02*
X57810238Y-88956666D01*
X57810238Y-88956666D02*
X57905476Y-89051904D01*
X57905476Y-89051904D02*
X58000714Y-89099523D01*
X58000714Y-89099523D02*
X58191190Y-89147142D01*
X58191190Y-89147142D02*
X58334047Y-89147142D01*
X58334047Y-89147142D02*
X58524523Y-89099523D01*
X58524523Y-89099523D02*
X58619761Y-89051904D01*
X58619761Y-89051904D02*
X58715000Y-88956666D01*
X58715000Y-88956666D02*
X58762619Y-88813809D01*
X58762619Y-88813809D02*
X58762619Y-88575714D01*
X58762619Y-90099523D02*
X58762619Y-89528095D01*
X58762619Y-89813809D02*
X57762619Y-89813809D01*
X57762619Y-89813809D02*
X57905476Y-89718571D01*
X57905476Y-89718571D02*
X58000714Y-89623333D01*
X58000714Y-89623333D02*
X58048333Y-89528095D01*
X57762619Y-90432857D02*
X57762619Y-91099523D01*
X57762619Y-91099523D02*
X58762619Y-90670952D01*
%TO.C,SW20*%
X105206668Y-75341020D02*
X105819040Y-74987466D01*
X104300801Y-78721760D02*
X104654355Y-79334133D01*
X105819040Y-74987466D02*
X108716818Y-75763923D01*
X104654355Y-79334133D02*
X107069169Y-79981180D01*
X108716818Y-75763923D02*
X109070371Y-76376296D01*
X108811552Y-77342222D02*
X109070371Y-76376296D01*
X108129829Y-81818297D02*
X107948656Y-82494446D01*
X107948656Y-82494446D02*
X112295322Y-83659131D01*
X113511772Y-79119280D02*
X109165105Y-77954594D01*
X113356480Y-79698835D02*
X113511772Y-79119280D01*
X112295322Y-83659131D02*
X112424732Y-83176168D01*
X108129830Y-81818297D02*
G75*
G03*
X107069169Y-79981180I-1448889J388228D01*
G01*
X108811552Y-77342222D02*
G75*
G03*
X109165105Y-77954594I482963J-129409D01*
G01*
D11*
%TO.C,SW26*%
X147900000Y-93350000D02*
X147900000Y-105150000D01*
X152000000Y-93350000D02*
X147900000Y-93350000D01*
X152000000Y-105150000D02*
X147900000Y-105150000D01*
X153500000Y-99250000D02*
X154500000Y-99250000D01*
X154000000Y-98750000D02*
X154000000Y-99750000D01*
X156000000Y-93350000D02*
X160100000Y-93350000D01*
X160100000Y-93350000D02*
X160100000Y-95750000D01*
X160100000Y-97950000D02*
X160100000Y-100550000D01*
X160100000Y-102750000D02*
X160100000Y-105150000D01*
X160100000Y-105150000D02*
X156000000Y-105150000D01*
X157000000Y-99250000D02*
G75*
G03*
X157000000Y-99250000I-3000000J0D01*
G01*
D10*
%TO.C,SW1*%
X50691588Y-41338908D02*
X51233263Y-40884388D01*
X50386543Y-44825589D02*
X50841062Y-45367264D01*
X51233263Y-40884388D02*
X54221847Y-41145855D01*
X50841062Y-45367264D02*
X53331549Y-45585154D01*
X54221847Y-41145855D02*
X54676367Y-41687531D01*
X54589211Y-42683725D02*
X54676367Y-41687531D01*
X54695107Y-47210179D02*
X54634098Y-47907516D01*
X54634098Y-47907516D02*
X59116974Y-48299716D01*
X59526606Y-43617601D02*
X55043730Y-43225401D01*
X59474313Y-44215318D02*
X59526606Y-43617601D01*
X59116974Y-48299716D02*
X59160552Y-47801619D01*
X54695106Y-47210179D02*
G75*
G03*
X53331549Y-45585155I-1494291J130733D01*
G01*
X54589211Y-42683725D02*
G75*
G03*
X55043730Y-43225400I498097J-43578D01*
G01*
%TO.C,SW21*%
X197936168Y-76388719D02*
X198289722Y-75776347D01*
X198842035Y-79769460D02*
X199454408Y-80123013D01*
X198289722Y-75776347D02*
X201187499Y-74999890D01*
X199454408Y-80123013D02*
X201869222Y-79475965D01*
X201187499Y-74999890D02*
X201799872Y-75353443D01*
X202058691Y-76319369D02*
X201799872Y-75353443D01*
X203706339Y-80536626D02*
X203887513Y-81212774D01*
X203887513Y-81212774D02*
X208234179Y-80048088D01*
X207017729Y-75508237D02*
X202671063Y-76672922D01*
X207173021Y-76087792D02*
X207017729Y-75508237D01*
X208234179Y-80048088D02*
X208104769Y-79565125D01*
X203706340Y-80536626D02*
G75*
G03*
X201869222Y-79475965I-1448889J-388228D01*
G01*
X202058692Y-76319369D02*
G75*
G03*
X202671063Y-76672921I482962J129410D01*
G01*
%TO.C,SW23*%
X234468073Y-66912206D02*
X234863482Y-66325988D01*
X235135904Y-70347902D02*
X235722122Y-70743311D01*
X234863482Y-66325988D02*
X237808363Y-65753561D01*
X235722122Y-70743311D02*
X238176190Y-70266288D01*
X237808363Y-65753561D02*
X238394582Y-66148970D01*
X238585391Y-67130598D02*
X238394582Y-66148970D01*
X239934845Y-71452515D02*
X240068411Y-72139654D01*
X240068411Y-72139654D02*
X244485733Y-71281014D01*
X243588931Y-66667366D02*
X239171609Y-67526007D01*
X243703416Y-67256343D02*
X243588931Y-66667366D01*
X244485733Y-71281014D02*
X244390329Y-70790200D01*
X239934845Y-71452515D02*
G75*
G03*
X238176190Y-70266288I-1472441J-286214D01*
G01*
X238585391Y-67130598D02*
G75*
G03*
X239171609Y-67526007I490813J95405D01*
G01*
%TO.C,SW7*%
X227789758Y-32555255D02*
X228185167Y-31969037D01*
X228457589Y-35990951D02*
X229043807Y-36386360D01*
X228185167Y-31969037D02*
X231130048Y-31396610D01*
X229043807Y-36386360D02*
X231497875Y-35909337D01*
X231130048Y-31396610D02*
X231716267Y-31792019D01*
X231907076Y-32773647D02*
X231716267Y-31792019D01*
X233256530Y-37095564D02*
X233390096Y-37782703D01*
X233390096Y-37782703D02*
X237807418Y-36924063D01*
X236910616Y-32310415D02*
X232493294Y-33169056D01*
X237025101Y-32899392D02*
X236910616Y-32310415D01*
X237807418Y-36924063D02*
X237712014Y-36433249D01*
X233256530Y-37095564D02*
G75*
G03*
X231497875Y-35909337I-1472441J-286214D01*
G01*
X231907076Y-32773647D02*
G75*
G03*
X232493294Y-33169056I490813J95405D01*
G01*
%TO.C,SW32*%
X171913740Y-50750208D02*
X172267294Y-50137836D01*
X172819607Y-54130949D02*
X173431980Y-54484502D01*
X172267294Y-50137836D02*
X175165071Y-49361379D01*
X173431980Y-54484502D02*
X175846794Y-53837454D01*
X175165071Y-49361379D02*
X175777444Y-49714932D01*
X176036263Y-50680858D02*
X175777444Y-49714932D01*
X177683911Y-54898115D02*
X177865085Y-55574263D01*
X177865085Y-55574263D02*
X182211751Y-54409577D01*
X180995301Y-49869726D02*
X176648635Y-51034411D01*
X181150593Y-50449281D02*
X180995301Y-49869726D01*
X182211751Y-54409577D02*
X182082341Y-53926614D01*
X177683912Y-54898115D02*
G75*
G03*
X175846794Y-53837454I-1448889J-388228D01*
G01*
X176036264Y-50680858D02*
G75*
G03*
X176648635Y-51034410I482962J129410D01*
G01*
%TO.C,SW37*%
X112914870Y-100182503D02*
X113527242Y-99828949D01*
X112009003Y-103563243D02*
X112362557Y-104175616D01*
X113527242Y-99828949D02*
X116425020Y-100605406D01*
X112362557Y-104175616D02*
X114777371Y-104822663D01*
X116425020Y-100605406D02*
X116778573Y-101217779D01*
X116519754Y-102183705D02*
X116778573Y-101217779D01*
X115838031Y-106659780D02*
X115656858Y-107335929D01*
X115656858Y-107335929D02*
X120003524Y-108500614D01*
X121219974Y-103960763D02*
X116873307Y-102796077D01*
X121064682Y-104540318D02*
X121219974Y-103960763D01*
X120003524Y-108500614D02*
X120132934Y-108017651D01*
X115838032Y-106659780D02*
G75*
G03*
X114777371Y-104822663I-1448889J388228D01*
G01*
X116519754Y-102183705D02*
G75*
G03*
X116873307Y-102796077I482963J-129409D01*
G01*
%TO.C,SW30*%
X180972407Y-84557612D02*
X181325961Y-83945240D01*
X181878274Y-87938353D02*
X182490647Y-88291906D01*
X181325961Y-83945240D02*
X184223738Y-83168783D01*
X182490647Y-88291906D02*
X184905461Y-87644858D01*
X184223738Y-83168783D02*
X184836111Y-83522336D01*
X185094930Y-84488262D02*
X184836111Y-83522336D01*
X186742578Y-88705519D02*
X186923752Y-89381667D01*
X186923752Y-89381667D02*
X191270418Y-88216981D01*
X190053968Y-83677130D02*
X185707302Y-84841815D01*
X190209260Y-84256685D02*
X190053968Y-83677130D01*
X191270418Y-88216981D02*
X191141008Y-87734018D01*
X186742579Y-88705519D02*
G75*
G03*
X184905461Y-87644858I-1448889J-388228D01*
G01*
X185094931Y-84488262D02*
G75*
G03*
X185707302Y-84841814I482962J129410D01*
G01*
%TO.C,SW16*%
X253853945Y-59125121D02*
X254308465Y-58583446D01*
X254158990Y-62611803D02*
X254700665Y-63066322D01*
X254308465Y-58583446D02*
X257297049Y-58321979D01*
X254700665Y-63066322D02*
X257191152Y-62848433D01*
X257297049Y-58321979D02*
X257838724Y-58776498D01*
X257925880Y-59772693D02*
X257838724Y-58776498D01*
X258816178Y-64211991D02*
X258877187Y-64909327D01*
X258877187Y-64909327D02*
X263360063Y-64517127D01*
X262950431Y-59835011D02*
X258467555Y-60227212D01*
X263002724Y-60432728D02*
X262950431Y-59835011D01*
X263360063Y-64517127D02*
X263316485Y-64019029D01*
X258816177Y-64211991D02*
G75*
G03*
X257191152Y-62848434I-1494291J-130734D01*
G01*
X257925881Y-59772693D02*
G75*
G03*
X258467555Y-60227211I498096J43578D01*
G01*
%TO.C,SW5*%
X188877501Y-42581316D02*
X189231055Y-41968944D01*
X189783368Y-45962057D02*
X190395741Y-46315610D01*
X189231055Y-41968944D02*
X192128832Y-41192487D01*
X190395741Y-46315610D02*
X192810555Y-45668562D01*
X192128832Y-41192487D02*
X192741205Y-41546040D01*
X193000024Y-42511966D02*
X192741205Y-41546040D01*
X194647672Y-46729223D02*
X194828846Y-47405371D01*
X194828846Y-47405371D02*
X199175512Y-46240685D01*
X197959062Y-41700834D02*
X193612396Y-42865519D01*
X198114354Y-42280389D02*
X197959062Y-41700834D01*
X199175512Y-46240685D02*
X199046102Y-45757722D01*
X194647673Y-46729223D02*
G75*
G03*
X192810555Y-45668562I-1448889J-388228D01*
G01*
X193000025Y-42511966D02*
G75*
G03*
X193612396Y-42865518I482962J129410D01*
G01*
%TO.C,SW34*%
X167326000Y-93043000D02*
X167326000Y-87043000D01*
X167576000Y-93043000D02*
X167326000Y-93043000D01*
X170826000Y-93043000D02*
X170576000Y-93043000D01*
X167326000Y-87043000D02*
X167576000Y-87043000D01*
X170576000Y-87043000D02*
X170826000Y-87043000D01*
X170826000Y-87043000D02*
X170826000Y-93043000D01*
%TO.C,SW12*%
X109736001Y-58437318D02*
X110348373Y-58083764D01*
X108830134Y-61818058D02*
X109183688Y-62430431D01*
X110348373Y-58083764D02*
X113246151Y-58860221D01*
X109183688Y-62430431D02*
X111598502Y-63077478D01*
X113246151Y-58860221D02*
X113599704Y-59472594D01*
X113340885Y-60438520D02*
X113599704Y-59472594D01*
X112659162Y-64914595D02*
X112477989Y-65590744D01*
X112477989Y-65590744D02*
X116824655Y-66755429D01*
X118041105Y-62215578D02*
X113694438Y-61050892D01*
X117885813Y-62795133D02*
X118041105Y-62215578D01*
X116824655Y-66755429D02*
X116954065Y-66272466D01*
X112659163Y-64914595D02*
G75*
G03*
X111598502Y-63077478I-1448889J388228D01*
G01*
X113340885Y-60438520D02*
G75*
G03*
X113694438Y-61050892I482963J-129409D01*
G01*
%TO.C,SW2*%
X75289519Y-31782861D02*
X75875737Y-31387452D01*
X74621688Y-35218556D02*
X75017097Y-35804774D01*
X75875737Y-31387452D02*
X78820619Y-31959878D01*
X75017097Y-35804774D02*
X77471165Y-36281796D01*
X78820619Y-31959878D02*
X79216028Y-32546097D01*
X79025219Y-33527724D02*
X79216028Y-32546097D01*
X78657392Y-38040451D02*
X78523826Y-38727590D01*
X78523826Y-38727590D02*
X82941148Y-39586230D01*
X83837951Y-34972582D02*
X79420628Y-34113942D01*
X83723465Y-35561559D02*
X83837951Y-34972582D01*
X82941148Y-39586230D02*
X83036553Y-39095416D01*
X78657392Y-38040451D02*
G75*
G03*
X77471165Y-36281796I-1472441J286214D01*
G01*
X79025219Y-33527724D02*
G75*
G03*
X79420628Y-34113942I490814J-95404D01*
G01*
%TO.C,SW14*%
X209917662Y-49625755D02*
X210271216Y-49013383D01*
X210823529Y-53006496D02*
X211435902Y-53360049D01*
X210271216Y-49013383D02*
X213168993Y-48236926D01*
X211435902Y-53360049D02*
X213850716Y-52713001D01*
X213168993Y-48236926D02*
X213781366Y-48590479D01*
X214040185Y-49556405D02*
X213781366Y-48590479D01*
X215687833Y-53773662D02*
X215869007Y-54449810D01*
X215869007Y-54449810D02*
X220215673Y-53285124D01*
X218999223Y-48745273D02*
X214652557Y-49909958D01*
X219154515Y-49324828D02*
X218999223Y-48745273D01*
X220215673Y-53285124D02*
X220086263Y-52802161D01*
X215687834Y-53773662D02*
G75*
G03*
X213850716Y-52713001I-1448889J-388228D01*
G01*
X214040186Y-49556405D02*
G75*
G03*
X214652557Y-49909957I482962J129410D01*
G01*
%TO.C,SW19*%
X88695840Y-65481758D02*
X89308212Y-65128204D01*
X87789973Y-68862498D02*
X88143527Y-69474871D01*
X89308212Y-65128204D02*
X92205990Y-65904661D01*
X88143527Y-69474871D02*
X90558341Y-70121918D01*
X92205990Y-65904661D02*
X92559543Y-66517034D01*
X92300724Y-67482960D02*
X92559543Y-66517034D01*
X91619001Y-71959035D02*
X91437828Y-72635184D01*
X91437828Y-72635184D02*
X95784494Y-73799869D01*
X97000944Y-69260018D02*
X92654277Y-68095332D01*
X96845652Y-69839573D02*
X97000944Y-69260018D01*
X95784494Y-73799869D02*
X95913904Y-73316906D01*
X91619002Y-71959035D02*
G75*
G03*
X90558341Y-70121918I-1448889J388228D01*
G01*
X92300724Y-67482960D02*
G75*
G03*
X92654277Y-68095332I482963J-129409D01*
G01*
%TO.C,SW4*%
X114265335Y-41533617D02*
X114877707Y-41180063D01*
X113359468Y-44914357D02*
X113713022Y-45526730D01*
X114877707Y-41180063D02*
X117775485Y-41956520D01*
X113713022Y-45526730D02*
X116127836Y-46173777D01*
X117775485Y-41956520D02*
X118129038Y-42568893D01*
X117870219Y-43534819D02*
X118129038Y-42568893D01*
X117188496Y-48010894D02*
X117007323Y-48687043D01*
X117007323Y-48687043D02*
X121353989Y-49851728D01*
X122570439Y-45311877D02*
X118223772Y-44147191D01*
X122415147Y-45891432D02*
X122570439Y-45311877D01*
X121353989Y-49851728D02*
X121483399Y-49368765D01*
X117188497Y-48010894D02*
G75*
G03*
X116127836Y-46173777I-1448889J388228D01*
G01*
X117870219Y-43534819D02*
G75*
G03*
X118223772Y-44147191I482963J-129409D01*
G01*
%TO.C,SW3*%
X97754507Y-31674354D02*
X98366879Y-31320800D01*
X96848640Y-35055094D02*
X97202194Y-35667467D01*
X98366879Y-31320800D02*
X101264657Y-32097257D01*
X97202194Y-35667467D02*
X99617008Y-36314514D01*
X101264657Y-32097257D02*
X101618210Y-32709630D01*
X101359391Y-33675556D02*
X101618210Y-32709630D01*
X100677668Y-38151631D02*
X100496495Y-38827780D01*
X100496495Y-38827780D02*
X104843161Y-39992465D01*
X106059611Y-35452614D02*
X101712944Y-34287928D01*
X105904319Y-36032169D02*
X106059611Y-35452614D01*
X104843161Y-39992465D02*
X104972571Y-39509502D01*
X100677669Y-38151631D02*
G75*
G03*
X99617008Y-36314514I-1448889J388228D01*
G01*
X101359391Y-33675556D02*
G75*
G03*
X101712944Y-34287928I482963J-129409D01*
G01*
%TO.C,SW18*%
X68611204Y-66139812D02*
X69197422Y-65744403D01*
X67943373Y-69575507D02*
X68338782Y-70161725D01*
X69197422Y-65744403D02*
X72142304Y-66316829D01*
X68338782Y-70161725D02*
X70792850Y-70638747D01*
X72142304Y-66316829D02*
X72537713Y-66903048D01*
X72346904Y-67884675D02*
X72537713Y-66903048D01*
X71979077Y-72397402D02*
X71845511Y-73084541D01*
X71845511Y-73084541D02*
X76262833Y-73943181D01*
X77159636Y-69329533D02*
X72742313Y-68470893D01*
X77045150Y-69918510D02*
X77159636Y-69329533D01*
X76262833Y-73943181D02*
X76358238Y-73452367D01*
X71979077Y-72397402D02*
G75*
G03*
X70792850Y-70638747I-1472441J286214D01*
G01*
X72346904Y-67884675D02*
G75*
G03*
X72742313Y-68470893I490814J-95404D01*
G01*
%TO.C,SW13*%
X193406834Y-59485017D02*
X193760388Y-58872645D01*
X194312701Y-62865758D02*
X194925074Y-63219311D01*
X193760388Y-58872645D02*
X196658165Y-58096188D01*
X194925074Y-63219311D02*
X197339888Y-62572263D01*
X196658165Y-58096188D02*
X197270538Y-58449741D01*
X197529357Y-59415667D02*
X197270538Y-58449741D01*
X199177005Y-63632924D02*
X199358179Y-64309072D01*
X199358179Y-64309072D02*
X203704845Y-63144386D01*
X202488395Y-58604535D02*
X198141729Y-59769220D01*
X202643687Y-59184090D02*
X202488395Y-58604535D01*
X203704845Y-63144386D02*
X203575435Y-62661423D01*
X199177006Y-63632924D02*
G75*
G03*
X197339888Y-62572263I-1448889J-388228D01*
G01*
X197529358Y-59415667D02*
G75*
G03*
X198141729Y-59769219I482962J129410D01*
G01*
%TO.C,SW39*%
X169727994Y-110180039D02*
X169922899Y-109500325D01*
X171424828Y-113241208D02*
X172104543Y-113436113D01*
X169922899Y-109500325D02*
X172546758Y-108045896D01*
X172104543Y-113436113D02*
X174291092Y-112224089D01*
X172546758Y-108045896D02*
X173226473Y-108240801D01*
X173711283Y-109115420D02*
X173226473Y-108240801D01*
X176330236Y-112808804D02*
X176669603Y-113421038D01*
X176669603Y-113421038D02*
X180605391Y-111239395D01*
X178326786Y-107128682D02*
X174390997Y-109310325D01*
X178617672Y-107653454D02*
X178326786Y-107128682D01*
X180605391Y-111239395D02*
X180362986Y-110802085D01*
X176330235Y-112808804D02*
G75*
G03*
X174291092Y-112224089I-1311929J-727215D01*
G01*
X173711285Y-109115419D02*
G75*
G03*
X174390997Y-109310324I437308J242403D01*
G01*
%TO.C,SW28*%
X126699763Y-66606211D02*
X127312135Y-66252657D01*
X125793896Y-69986951D02*
X126147450Y-70599324D01*
X127312135Y-66252657D02*
X130209913Y-67029114D01*
X126147450Y-70599324D02*
X128562264Y-71246371D01*
X130209913Y-67029114D02*
X130563466Y-67641487D01*
X130304647Y-68607413D02*
X130563466Y-67641487D01*
X129622924Y-73083488D02*
X129441751Y-73759637D01*
X129441751Y-73759637D02*
X133788417Y-74924322D01*
X135004867Y-70384471D02*
X130658200Y-69219785D01*
X134849575Y-70964026D02*
X135004867Y-70384471D01*
X133788417Y-74924322D02*
X133917827Y-74441359D01*
X129622925Y-73083488D02*
G75*
G03*
X128562264Y-71246371I-1448889J388228D01*
G01*
X130304647Y-68607413D02*
G75*
G03*
X130658200Y-69219785I482963J-129409D01*
G01*
%TO.C,SW6*%
X205388329Y-32722053D02*
X205741883Y-32109681D01*
X206294196Y-36102794D02*
X206906569Y-36456347D01*
X205741883Y-32109681D02*
X208639660Y-31333224D01*
X206906569Y-36456347D02*
X209321383Y-35809299D01*
X208639660Y-31333224D02*
X209252033Y-31686777D01*
X209510852Y-32652703D02*
X209252033Y-31686777D01*
X211158500Y-36869960D02*
X211339674Y-37546108D01*
X211339674Y-37546108D02*
X215686340Y-36381422D01*
X214469890Y-31841571D02*
X210123224Y-33006256D01*
X214625182Y-32421126D02*
X214469890Y-31841571D01*
X215686340Y-36381422D02*
X215556930Y-35898459D01*
X211158501Y-36869960D02*
G75*
G03*
X209321383Y-35809299I-1448889J-388228D01*
G01*
X209510853Y-32652703D02*
G75*
G03*
X210123224Y-33006255I482962J129410D01*
G01*
%TO.C,SW9*%
X49166363Y-58772315D02*
X49708038Y-58317795D01*
X48861318Y-62258996D02*
X49315837Y-62800671D01*
X49708038Y-58317795D02*
X52696622Y-58579262D01*
X49315837Y-62800671D02*
X51806324Y-63018561D01*
X52696622Y-58579262D02*
X53151142Y-59120938D01*
X53063986Y-60117132D02*
X53151142Y-59120938D01*
X53169882Y-64643586D02*
X53108873Y-65340923D01*
X53108873Y-65340923D02*
X57591749Y-65733123D01*
X58001381Y-61051008D02*
X53518505Y-60658808D01*
X57949088Y-61648725D02*
X58001381Y-61051008D01*
X57591749Y-65733123D02*
X57635327Y-65235026D01*
X53169881Y-64643586D02*
G75*
G03*
X51806324Y-63018562I-1494291J130733D01*
G01*
X53063986Y-60117132D02*
G75*
G03*
X53518505Y-60658807I498097J-43578D01*
G01*
%TO.C,SW17*%
X47641137Y-76205722D02*
X48182812Y-75751202D01*
X47336092Y-79692403D02*
X47790611Y-80234078D01*
X48182812Y-75751202D02*
X51171396Y-76012669D01*
X47790611Y-80234078D02*
X50281098Y-80451968D01*
X51171396Y-76012669D02*
X51625916Y-76554345D01*
X51538760Y-77550539D02*
X51625916Y-76554345D01*
X51644656Y-82076993D02*
X51583647Y-82774330D01*
X51583647Y-82774330D02*
X56066523Y-83166530D01*
X56476155Y-78484415D02*
X51993279Y-78092215D01*
X56423862Y-79082132D02*
X56476155Y-78484415D01*
X56066523Y-83166530D02*
X56110101Y-82668433D01*
X51644655Y-82076993D02*
G75*
G03*
X50281098Y-80451969I-1494291J130733D01*
G01*
X51538760Y-77550539D02*
G75*
G03*
X51993279Y-78092214I498097J-43578D01*
G01*
%TO.C,SW10*%
X71950361Y-48961336D02*
X72536579Y-48565927D01*
X71282530Y-52397031D02*
X71677939Y-52983249D01*
X72536579Y-48565927D02*
X75481461Y-49138353D01*
X71677939Y-52983249D02*
X74132007Y-53460271D01*
X75481461Y-49138353D02*
X75876870Y-49724572D01*
X75686061Y-50706199D02*
X75876870Y-49724572D01*
X75318234Y-55218926D02*
X75184668Y-55906065D01*
X75184668Y-55906065D02*
X79601990Y-56764705D01*
X80498793Y-52151057D02*
X76081470Y-51292417D01*
X80384307Y-52740034D02*
X80498793Y-52151057D01*
X79601990Y-56764705D02*
X79697395Y-56273891D01*
X75318234Y-55218926D02*
G75*
G03*
X74132007Y-53460271I-1472441J286214D01*
G01*
X75686061Y-50706199D02*
G75*
G03*
X76081470Y-51292417I490814J-95404D01*
G01*
%TO.C,SW40*%
X190227966Y-101230202D02*
X190581520Y-100617830D01*
X191133833Y-104610943D02*
X191746206Y-104964496D01*
X190581520Y-100617830D02*
X193479297Y-99841373D01*
X191746206Y-104964496D02*
X194161020Y-104317448D01*
X193479297Y-99841373D02*
X194091670Y-100194926D01*
X194350489Y-101160852D02*
X194091670Y-100194926D01*
X195998137Y-105378109D02*
X196179311Y-106054257D01*
X196179311Y-106054257D02*
X200525977Y-104889571D01*
X199309527Y-100349720D02*
X194962861Y-101514405D01*
X199464819Y-100929275D02*
X199309527Y-100349720D01*
X200525977Y-104889571D02*
X200396567Y-104406608D01*
X195998138Y-105378109D02*
G75*
G03*
X194161020Y-104317448I-1448889J-388228D01*
G01*
X194350490Y-101160852D02*
G75*
G03*
X194962861Y-101514404I482962J129410D01*
G01*
%TO.C,SW27*%
X131229096Y-49702509D02*
X131841468Y-49348955D01*
X130323229Y-53083249D02*
X130676783Y-53695622D01*
X131841468Y-49348955D02*
X134739246Y-50125412D01*
X130676783Y-53695622D02*
X133091597Y-54342669D01*
X134739246Y-50125412D02*
X135092799Y-50737785D01*
X134833980Y-51703711D02*
X135092799Y-50737785D01*
X134152257Y-56179786D02*
X133971084Y-56855935D01*
X133971084Y-56855935D02*
X138317750Y-58020620D01*
X139534200Y-53480769D02*
X135187533Y-52316083D01*
X139378908Y-54060324D02*
X139534200Y-53480769D01*
X138317750Y-58020620D02*
X138447160Y-57537657D01*
X134152258Y-56179786D02*
G75*
G03*
X133091597Y-54342669I-1448889J388228D01*
G01*
X134833980Y-51703711D02*
G75*
G03*
X135187533Y-52316083I482963J-129409D01*
G01*
%TO.C,SW29*%
X122170429Y-83509913D02*
X122782801Y-83156359D01*
X121264562Y-86890653D02*
X121618116Y-87503026D01*
X122782801Y-83156359D02*
X125680579Y-83932816D01*
X121618116Y-87503026D02*
X124032930Y-88150073D01*
X125680579Y-83932816D02*
X126034132Y-84545189D01*
X125775313Y-85511115D02*
X126034132Y-84545189D01*
X125093590Y-89987190D02*
X124912417Y-90663339D01*
X124912417Y-90663339D02*
X129259083Y-91828024D01*
X130475533Y-87288173D02*
X126128866Y-86123487D01*
X130320241Y-87867728D02*
X130475533Y-87288173D01*
X129259083Y-91828024D02*
X129388493Y-91345061D01*
X125093591Y-89987190D02*
G75*
G03*
X124032930Y-88150073I-1448889J388228D01*
G01*
X125775313Y-85511115D02*
G75*
G03*
X126128866Y-86123487I482963J-129409D01*
G01*
%TO.C,SW8*%
X252328720Y-41691714D02*
X252783240Y-41150039D01*
X252633765Y-45178396D02*
X253175440Y-45632915D01*
X252783240Y-41150039D02*
X255771824Y-40888572D01*
X253175440Y-45632915D02*
X255665927Y-45415026D01*
X255771824Y-40888572D02*
X256313499Y-41343091D01*
X256400655Y-42339286D02*
X256313499Y-41343091D01*
X257290953Y-46778584D02*
X257351962Y-47475920D01*
X257351962Y-47475920D02*
X261834838Y-47083720D01*
X261425206Y-42401604D02*
X256942330Y-42793805D01*
X261477499Y-42999321D02*
X261425206Y-42401604D01*
X261834838Y-47083720D02*
X261791260Y-46585622D01*
X257290952Y-46778584D02*
G75*
G03*
X255665927Y-45415027I-1494291J-130734D01*
G01*
X256400656Y-42339286D02*
G75*
G03*
X256942330Y-42793804I498096J43578D01*
G01*
%TO.C,SW15*%
X231128916Y-49733730D02*
X231524325Y-49147512D01*
X231796747Y-53169426D02*
X232382965Y-53564835D01*
X231524325Y-49147512D02*
X234469206Y-48575085D01*
X232382965Y-53564835D02*
X234837033Y-53087812D01*
X234469206Y-48575085D02*
X235055425Y-48970494D01*
X235246234Y-49952122D02*
X235055425Y-48970494D01*
X236595688Y-54274039D02*
X236729254Y-54961178D01*
X236729254Y-54961178D02*
X241146576Y-54102538D01*
X240249774Y-49488890D02*
X235832452Y-50347531D01*
X240364259Y-50077867D02*
X240249774Y-49488890D01*
X241146576Y-54102538D02*
X241051172Y-53611724D01*
X236595688Y-54274039D02*
G75*
G03*
X234837033Y-53087812I-1472441J-286214D01*
G01*
X235246234Y-49952122D02*
G75*
G03*
X235832452Y-50347531I490813J95405D01*
G01*
%TO.C,SW31*%
X176443073Y-67653910D02*
X176796627Y-67041538D01*
X177348940Y-71034651D02*
X177961313Y-71388204D01*
X176796627Y-67041538D02*
X179694404Y-66265081D01*
X177961313Y-71388204D02*
X180376127Y-70741156D01*
X179694404Y-66265081D02*
X180306777Y-66618634D01*
X180565596Y-67584560D02*
X180306777Y-66618634D01*
X182213244Y-71801817D02*
X182394418Y-72477965D01*
X182394418Y-72477965D02*
X186741084Y-71313279D01*
X185524634Y-66773428D02*
X181177968Y-67938113D01*
X185679926Y-67352983D02*
X185524634Y-66773428D01*
X186741084Y-71313279D02*
X186611674Y-70830316D01*
X182213245Y-71801817D02*
G75*
G03*
X180376127Y-70741156I-1448889J-388228D01*
G01*
X180565597Y-67584560D02*
G75*
G03*
X181177968Y-67938112I482962J129410D01*
G01*
%TO.C,SW24*%
X255379171Y-76558528D02*
X255833691Y-76016853D01*
X255684216Y-80045210D02*
X256225891Y-80499729D01*
X255833691Y-76016853D02*
X258822275Y-75755386D01*
X256225891Y-80499729D02*
X258716378Y-80281840D01*
X258822275Y-75755386D02*
X259363950Y-76209905D01*
X259451106Y-77206100D02*
X259363950Y-76209905D01*
X260341404Y-81645398D02*
X260402413Y-82342734D01*
X260402413Y-82342734D02*
X264885289Y-81950534D01*
X264475657Y-77268418D02*
X259992781Y-77660619D01*
X264527950Y-77866135D02*
X264475657Y-77268418D01*
X264885289Y-81950534D02*
X264841711Y-81452436D01*
X260341403Y-81645398D02*
G75*
G03*
X258716378Y-80281841I-1494291J-130734D01*
G01*
X259451107Y-77206100D02*
G75*
G03*
X259992781Y-77660618I498096J43578D01*
G01*
%TO.C,SW38*%
X133784449Y-108217530D02*
X134464164Y-108022625D01*
X132087616Y-111278699D02*
X132282521Y-111958413D01*
X134464164Y-108022625D02*
X137088023Y-109477054D01*
X132282521Y-111958413D02*
X134469070Y-113170438D01*
X137088023Y-109477054D02*
X137282928Y-110156768D01*
X136798118Y-111031388D02*
X137282928Y-110156768D01*
X135053785Y-115209582D02*
X134714418Y-115821815D01*
X134714418Y-115821815D02*
X138650207Y-118003459D01*
X140928812Y-113892746D02*
X136993023Y-111711103D01*
X140637926Y-114417518D02*
X140928812Y-113892746D01*
X138650207Y-118003459D02*
X138892612Y-117566149D01*
X135053784Y-115209581D02*
G75*
G03*
X134469070Y-113170439I-1311929J727214D01*
G01*
X136798118Y-111031388D02*
G75*
G03*
X136993023Y-111711103I437310J-242405D01*
G01*
%TO.C,SW11*%
X93225174Y-48578056D02*
X93837546Y-48224502D01*
X92319307Y-51958796D02*
X92672861Y-52571169D01*
X93837546Y-48224502D02*
X96735324Y-49000959D01*
X92672861Y-52571169D02*
X95087675Y-53218216D01*
X96735324Y-49000959D02*
X97088877Y-49613332D01*
X96830058Y-50579258D02*
X97088877Y-49613332D01*
X96148335Y-55055333D02*
X95967162Y-55731482D01*
X95967162Y-55731482D02*
X100313828Y-56896167D01*
X101530278Y-52356316D02*
X97183611Y-51191630D01*
X101374986Y-52935871D02*
X101530278Y-52356316D01*
X100313828Y-56896167D02*
X100443238Y-56413204D01*
X96148336Y-55055333D02*
G75*
G03*
X95087675Y-53218216I-1448889J388228D01*
G01*
X96830058Y-50579258D02*
G75*
G03*
X97183611Y-51191630I482963J-129409D01*
G01*
%TO.C,SW22*%
X214446996Y-66529457D02*
X214800550Y-65917085D01*
X215352863Y-69910198D02*
X215965236Y-70263751D01*
X214800550Y-65917085D02*
X217698327Y-65140628D01*
X215965236Y-70263751D02*
X218380050Y-69616703D01*
X217698327Y-65140628D02*
X218310700Y-65494181D01*
X218569519Y-66460107D02*
X218310700Y-65494181D01*
X220217167Y-70677364D02*
X220398341Y-71353512D01*
X220398341Y-71353512D02*
X224745007Y-70188826D01*
X223528557Y-65648975D02*
X219181891Y-66813660D01*
X223683849Y-66228530D02*
X223528557Y-65648975D01*
X224745007Y-70188826D02*
X224615597Y-69705863D01*
X220217168Y-70677364D02*
G75*
G03*
X218380050Y-69616703I-1448889J-388228D01*
G01*
X218569520Y-66460107D02*
G75*
G03*
X219181891Y-66813659I482962J129410D01*
G01*
D11*
%TO.C,D14*%
X221670000Y-61670000D02*
X221670000Y-57660000D01*
X223670000Y-61670000D02*
X221670000Y-61670000D01*
X223670000Y-61670000D02*
X223670000Y-57660000D01*
%TO.C,D13*%
X205160000Y-72210000D02*
X205160000Y-68200000D01*
X207160000Y-72210000D02*
X205160000Y-72210000D01*
X207160000Y-72210000D02*
X207160000Y-68200000D01*
%TO.C,D9*%
X56150000Y-73226000D02*
X56150000Y-69216000D01*
X58150000Y-73226000D02*
X56150000Y-73226000D01*
X58150000Y-73226000D02*
X58150000Y-69216000D01*
%TO.C,D31*%
X184840000Y-63320000D02*
X184840000Y-59310000D01*
X186840000Y-63320000D02*
X184840000Y-63320000D01*
X186840000Y-63320000D02*
X186840000Y-59310000D01*
%TO.C,D20*%
X111180000Y-92530000D02*
X111180000Y-88520000D01*
X113180000Y-92530000D02*
X111180000Y-92530000D01*
X113180000Y-92530000D02*
X113180000Y-88520000D01*
%TO.C,D38*%
X201350000Y-113740000D02*
X201350000Y-109730000D01*
X203350000Y-113740000D02*
X201350000Y-113740000D01*
X203350000Y-113740000D02*
X203350000Y-109730000D01*
%TO.C,D29*%
X193730000Y-95070000D02*
X193730000Y-91060000D01*
X195730000Y-95070000D02*
X193730000Y-95070000D01*
X195730000Y-95070000D02*
X195730000Y-91060000D01*
%TO.C,D26*%
X136580000Y-68020000D02*
X136580000Y-64010000D01*
X138580000Y-68020000D02*
X136580000Y-68020000D01*
X138580000Y-68020000D02*
X138580000Y-64010000D01*
%TO.C,D6*%
X217860000Y-45540000D02*
X217860000Y-41530000D01*
X219860000Y-45540000D02*
X217860000Y-45540000D01*
X219860000Y-45540000D02*
X219860000Y-41530000D01*
%TO.C,D11*%
X98480000Y-67130000D02*
X98480000Y-63120000D01*
X100480000Y-67130000D02*
X98480000Y-67130000D01*
X100480000Y-67130000D02*
X100480000Y-63120000D01*
%TO.C,D3*%
X103560000Y-50620000D02*
X103560000Y-46610000D01*
X105560000Y-50620000D02*
X103560000Y-50620000D01*
X105560000Y-50620000D02*
X105560000Y-46610000D01*
%TO.C,D25*%
X167880000Y-102680000D02*
X163870000Y-102680000D01*
X167880000Y-100680000D02*
X167880000Y-102680000D01*
X167880000Y-100680000D02*
X163870000Y-100680000D01*
%TO.C,D10*%
X78160000Y-65860000D02*
X78160000Y-61850000D01*
X80160000Y-65860000D02*
X78160000Y-65860000D01*
X80160000Y-65860000D02*
X80160000Y-61850000D01*
%TO.C,D12*%
X114990000Y-76020000D02*
X114990000Y-72010000D01*
X116990000Y-76020000D02*
X114990000Y-76020000D01*
X116990000Y-76020000D02*
X116990000Y-72010000D01*
%TO.C,D28*%
X128960000Y-101040000D02*
X128960000Y-97030000D01*
X130960000Y-101040000D02*
X128960000Y-101040000D01*
X130960000Y-101040000D02*
X130960000Y-97030000D01*
%TO.C,D24*%
X264850000Y-91260000D02*
X264850000Y-87250000D01*
X266850000Y-91260000D02*
X264850000Y-91260000D01*
X266850000Y-91260000D02*
X266850000Y-87250000D01*
%TO.C,D16*%
X263580000Y-73480000D02*
X263580000Y-69470000D01*
X265580000Y-73480000D02*
X263580000Y-73480000D01*
X265580000Y-73480000D02*
X265580000Y-69470000D01*
%TO.C,D18*%
X74350000Y-83260000D02*
X74350000Y-79250000D01*
X76350000Y-83260000D02*
X74350000Y-83260000D01*
X76350000Y-83260000D02*
X76350000Y-79250000D01*
%TO.C,D30*%
X188650000Y-78560000D02*
X188650000Y-74550000D01*
X190650000Y-78560000D02*
X188650000Y-78560000D01*
X190650000Y-78560000D02*
X190650000Y-74550000D01*
%TO.C,D8*%
X262310000Y-56970000D02*
X262310000Y-52960000D01*
X264310000Y-56970000D02*
X262310000Y-56970000D01*
X264310000Y-56970000D02*
X264310000Y-52960000D01*
%TO.C,D21*%
X210240000Y-87450000D02*
X210240000Y-83440000D01*
X212240000Y-87450000D02*
X210240000Y-87450000D01*
X212240000Y-87450000D02*
X212240000Y-83440000D01*
%TO.C,D4*%
X120070000Y-59890000D02*
X120070000Y-55880000D01*
X122070000Y-59890000D02*
X120070000Y-59890000D01*
X122070000Y-59890000D02*
X122070000Y-55880000D01*
%TO.C,D7*%
X239450000Y-45920000D02*
X239450000Y-41910000D01*
X241450000Y-45920000D02*
X239450000Y-45920000D01*
X241450000Y-45920000D02*
X241450000Y-41910000D01*
%TO.C,SW33*%
X157204418Y-116957091D02*
X157204418Y-117747091D01*
X156604418Y-118757091D02*
X150904418Y-118757091D01*
X155354418Y-115907091D02*
X153654418Y-115907091D01*
X155154418Y-120047091D02*
X154954418Y-120257091D01*
X155154418Y-118757091D02*
X155154418Y-120047091D01*
X154954418Y-120257091D02*
X154054418Y-120257091D01*
X153854418Y-120047091D02*
X154054418Y-120257091D01*
X153854418Y-120047091D02*
X153854418Y-118757091D01*
X152354418Y-115907091D02*
X152154418Y-115907091D01*
X150304418Y-117747091D02*
X150304418Y-116957091D01*
%TO.C,D27*%
X131588000Y-82624000D02*
X131588000Y-78614000D01*
X133588000Y-82624000D02*
X131588000Y-82624000D01*
X133588000Y-82624000D02*
X133588000Y-78614000D01*
%TO.C,D5*%
X201350000Y-54810000D02*
X201350000Y-50800000D01*
X203350000Y-54810000D02*
X201350000Y-54810000D01*
X203350000Y-54810000D02*
X203350000Y-50800000D01*
%TO.C,D19*%
X94670000Y-82370000D02*
X94670000Y-78360000D01*
X96670000Y-82370000D02*
X94670000Y-82370000D01*
X96670000Y-82370000D02*
X96670000Y-78360000D01*
%TO.C,D15*%
X241990000Y-62050000D02*
X241990000Y-58040000D01*
X243990000Y-62050000D02*
X241990000Y-62050000D01*
X243990000Y-62050000D02*
X243990000Y-58040000D01*
%TO.C,D36*%
X134040000Y-127710000D02*
X134040000Y-123700000D01*
X136040000Y-127710000D02*
X134040000Y-127710000D01*
X136040000Y-127710000D02*
X136040000Y-123700000D01*
%TO.C,D23*%
X243094000Y-78814000D02*
X243094000Y-74804000D01*
X245094000Y-78814000D02*
X243094000Y-78814000D01*
X245094000Y-78814000D02*
X245094000Y-74804000D01*
%TO.C,D22*%
X225480000Y-79830000D02*
X225480000Y-75820000D01*
X227480000Y-79830000D02*
X225480000Y-79830000D01*
X227480000Y-79830000D02*
X227480000Y-75820000D01*
%TO.C,D2*%
X81970000Y-49350000D02*
X81970000Y-45340000D01*
X83970000Y-49350000D02*
X81970000Y-49350000D01*
X83970000Y-49350000D02*
X83970000Y-45340000D01*
%TO.C,D35*%
X118800000Y-117550000D02*
X118800000Y-113540000D01*
X120800000Y-117550000D02*
X118800000Y-117550000D01*
X120800000Y-117550000D02*
X120800000Y-113540000D01*
%TO.C,D37*%
X183570000Y-119200000D02*
X183570000Y-115190000D01*
X185570000Y-119200000D02*
X183570000Y-119200000D01*
X185570000Y-119200000D02*
X185570000Y-115190000D01*
%TO.C,D1*%
X60380000Y-53160000D02*
X60380000Y-49150000D01*
X62380000Y-53160000D02*
X60380000Y-53160000D01*
X62380000Y-53160000D02*
X62380000Y-49150000D01*
%TO.C,D17*%
X55300000Y-92150000D02*
X55300000Y-88140000D01*
X57300000Y-92150000D02*
X55300000Y-92150000D01*
X57300000Y-92150000D02*
X57300000Y-88140000D01*
%TD*%
D12*
%TO.C,J1*%
X136652000Y-84614000D03*
X136652000Y-86614000D03*
X136652000Y-88614000D03*
%TD*%
D13*
%TO.C,U1*%
X161544000Y-49656750D03*
X161544000Y-52196750D03*
X161544000Y-54736750D03*
X161544000Y-57276750D03*
X161544000Y-59816750D03*
X161544000Y-62356750D03*
X161544000Y-64896750D03*
X161544000Y-67436750D03*
X161544000Y-69976750D03*
X161544000Y-72516750D03*
X161544000Y-75056750D03*
X161544000Y-77596750D03*
X146304000Y-77596750D03*
X146304000Y-75056750D03*
X146304000Y-72516750D03*
X146304000Y-69976750D03*
X146304000Y-67436750D03*
X146304000Y-64896750D03*
X146304000Y-62356750D03*
X146304000Y-59816750D03*
X146304000Y-57276750D03*
X146304000Y-54736750D03*
X146304000Y-52196750D03*
X146304000Y-49656750D03*
%TD*%
%LPC*%
D14*
%TO.C,SW25*%
X152250000Y-117355000D03*
X155250000Y-117355000D03*
%TD*%
D15*
%TO.C,SW20*%
X99893473Y-81739900D03*
D16*
X106746038Y-77416146D03*
D17*
X105206065Y-83163405D03*
D16*
X111006265Y-80835279D03*
D15*
X110518657Y-84586910D03*
D18*
X103582630Y-76568514D03*
X114169672Y-81682912D03*
%TD*%
D19*
%TO.C,*%
X244348000Y-42418000D03*
%TD*%
D20*
%TO.C,SW26*%
X146500000Y-96750000D03*
X146500000Y-101750000D03*
X146500000Y-99250000D03*
D21*
X154000000Y-93650000D03*
X154000000Y-104850000D03*
D20*
X161000000Y-101750000D03*
X161000000Y-96750000D03*
%TD*%
D15*
%TO.C,SW1*%
X46570266Y-48563201D03*
D16*
X52567914Y-43115200D03*
D17*
X52049337Y-49042558D03*
D16*
X57357144Y-45742608D03*
D15*
X57528408Y-49521915D03*
D22*
X49305375Y-42829764D03*
X60619682Y-46028043D03*
%TD*%
D19*
%TO.C,*%
X137636000Y-47244000D03*
%TD*%
D15*
%TO.C,SW21*%
X196534247Y-84586910D03*
D16*
X200306866Y-77416146D03*
D17*
X201846839Y-83163405D03*
D16*
X205705897Y-78247089D03*
D15*
X207159431Y-81739900D03*
D23*
X197143458Y-78263779D03*
X208869304Y-77399457D03*
%TD*%
D15*
%TO.C,SW23*%
X232497689Y-74992633D03*
D16*
X236761325Y-68102502D03*
D17*
X237896639Y-73943184D03*
D16*
X242089241Y-69308038D03*
D15*
X243295589Y-72893735D03*
D24*
X233546495Y-68727402D03*
X245304070Y-68683139D03*
%TD*%
D15*
%TO.C,SW7*%
X225819374Y-40635682D03*
D16*
X230083010Y-33745551D03*
D17*
X231218324Y-39586233D03*
D16*
X235410926Y-34951087D03*
D15*
X236617274Y-38536784D03*
D24*
X226868180Y-34370451D03*
X238625755Y-34326188D03*
%TD*%
D15*
%TO.C,SW32*%
X170511819Y-58948399D03*
D16*
X174284438Y-51777635D03*
D17*
X175824411Y-57524894D03*
D16*
X179683469Y-52608578D03*
D15*
X181137003Y-56101389D03*
D23*
X171121030Y-52625268D03*
X182846876Y-51760946D03*
%TD*%
D12*
%TO.C,J1*%
X136652000Y-84614000D03*
X136652000Y-86614000D03*
X136652000Y-88614000D03*
%TD*%
D15*
%TO.C,SW37*%
X107601675Y-106581383D03*
D16*
X114454240Y-102257629D03*
D17*
X112914267Y-108004888D03*
D16*
X118714467Y-105676762D03*
D15*
X118226859Y-109428393D03*
D18*
X111290832Y-101409997D03*
X121877874Y-106524395D03*
%TD*%
D15*
%TO.C,SW30*%
X179570486Y-92755803D03*
D16*
X183343105Y-85585039D03*
D17*
X184883078Y-91332298D03*
D16*
X188742136Y-86415982D03*
D15*
X190195670Y-89908793D03*
D23*
X180179697Y-86432672D03*
X191905543Y-85568350D03*
%TD*%
D15*
%TO.C,SW16*%
X251049721Y-66955322D03*
D16*
X256010215Y-60548607D03*
D17*
X256528792Y-66475965D03*
D16*
X261182932Y-62304457D03*
D15*
X262007863Y-65996608D03*
D25*
X252747677Y-60834042D03*
X264445469Y-62019022D03*
%TD*%
D15*
%TO.C,SW5*%
X187475580Y-50779507D03*
D16*
X191248199Y-43608743D03*
D17*
X192788172Y-49356002D03*
D16*
X196647230Y-44439686D03*
D15*
X198100764Y-47932497D03*
D23*
X188084791Y-44456376D03*
X199810637Y-43592054D03*
%TD*%
D19*
%TO.C,*%
X248158000Y-76200000D03*
%TD*%
D20*
%TO.C,SW34*%
X169076000Y-86793000D03*
X169076000Y-93293000D03*
%TD*%
D15*
%TO.C,SW12*%
X104422806Y-64836198D03*
D16*
X111275371Y-60512444D03*
D17*
X109735398Y-66259703D03*
D16*
X115535598Y-63931577D03*
D15*
X115047990Y-67683208D03*
D18*
X108111963Y-59664812D03*
X118699005Y-64779210D03*
%TD*%
D15*
%TO.C,SW2*%
X70435630Y-38536784D03*
D16*
X76969894Y-33745551D03*
D17*
X75834580Y-39586233D03*
D16*
X81458249Y-36859177D03*
D15*
X81233530Y-40635682D03*
D26*
X73755064Y-33120652D03*
X84673078Y-37484076D03*
%TD*%
D15*
%TO.C,SW14*%
X208515741Y-57823946D03*
D16*
X212288360Y-50653182D03*
D17*
X213828333Y-56400441D03*
D16*
X217687391Y-51484125D03*
D15*
X219140925Y-54976936D03*
D23*
X209124952Y-51500815D03*
X220850798Y-50636493D03*
%TD*%
D15*
%TO.C,SW19*%
X83382645Y-71880638D03*
D16*
X90235210Y-67556884D03*
D17*
X88695237Y-73304143D03*
D16*
X94495437Y-70976017D03*
D15*
X94007829Y-74727648D03*
D18*
X87071802Y-66709252D03*
X97658844Y-71823650D03*
%TD*%
D15*
%TO.C,SW4*%
X108952140Y-47932497D03*
D16*
X115804705Y-43608743D03*
D17*
X114264732Y-49356002D03*
D16*
X120064932Y-47027876D03*
D15*
X119577324Y-50779507D03*
D18*
X112641297Y-42761111D03*
X123228339Y-47875509D03*
%TD*%
D15*
%TO.C,SW3*%
X92441312Y-38073234D03*
D16*
X99293877Y-33749480D03*
D17*
X97753904Y-39496739D03*
D16*
X103554104Y-37168613D03*
D15*
X103066496Y-40920244D03*
D18*
X96130469Y-32901848D03*
X106717511Y-38016246D03*
%TD*%
D15*
%TO.C,SW18*%
X63757315Y-72893735D03*
D16*
X70291579Y-68102502D03*
D17*
X69156265Y-73943184D03*
D16*
X74779934Y-71216128D03*
D15*
X74555215Y-74992633D03*
D26*
X67076749Y-67477603D03*
X77994763Y-71841027D03*
%TD*%
D15*
%TO.C,SW13*%
X192004913Y-67683208D03*
D16*
X195777532Y-60512444D03*
D17*
X197317505Y-66259703D03*
D16*
X201176563Y-61343387D03*
D15*
X202630097Y-64836198D03*
D23*
X192614124Y-61360077D03*
X204339970Y-60495755D03*
%TD*%
D15*
%TO.C,SW39*%
X170351038Y-118473864D03*
D16*
X172276829Y-110603424D03*
D17*
X175161446Y-115807411D03*
D16*
X177716509Y-110103540D03*
D15*
X179971854Y-113140958D03*
D27*
X169412448Y-112191176D03*
X180580888Y-108515788D03*
%TD*%
D15*
%TO.C,SW28*%
X121386568Y-73005091D03*
D16*
X128239133Y-68681337D03*
D17*
X126699160Y-74428596D03*
D16*
X132499360Y-72100470D03*
D15*
X132011752Y-75852101D03*
D18*
X125075725Y-67833705D03*
X135662767Y-72948103D03*
%TD*%
D19*
%TO.C,*%
X169418000Y-47244000D03*
%TD*%
%TO.C,*%
X173598000Y-102362000D03*
%TD*%
D15*
%TO.C,SW6*%
X203986408Y-40920244D03*
D16*
X207759027Y-33749480D03*
D17*
X209299000Y-39496739D03*
D16*
X213158058Y-34580423D03*
D15*
X214611592Y-38073234D03*
D23*
X204595619Y-34597113D03*
X216321465Y-33732791D03*
%TD*%
D15*
%TO.C,SW9*%
X45045041Y-65996608D03*
D16*
X51042689Y-60548607D03*
D17*
X50524112Y-66475965D03*
D16*
X55831919Y-63176015D03*
D15*
X56003183Y-66955322D03*
D22*
X47780150Y-60263171D03*
X59094457Y-63461450D03*
%TD*%
D15*
%TO.C,SW17*%
X43519815Y-83430015D03*
D16*
X49517463Y-77982014D03*
D17*
X48998886Y-83909372D03*
D16*
X54306693Y-80609422D03*
D15*
X54477957Y-84388729D03*
D22*
X46254924Y-77696578D03*
X57569231Y-80894857D03*
%TD*%
D15*
%TO.C,SW10*%
X67096472Y-55715259D03*
D16*
X73630736Y-50924026D03*
D17*
X72495422Y-56764708D03*
D16*
X78119091Y-54037652D03*
D15*
X77894372Y-57814157D03*
D26*
X70415906Y-50299127D03*
X81333920Y-54662551D03*
%TD*%
D15*
%TO.C,SW40*%
X188826045Y-109428393D03*
D16*
X192598664Y-102257629D03*
D17*
X194138637Y-108004888D03*
D16*
X197997695Y-103088572D03*
D15*
X199451229Y-106581383D03*
D23*
X189435256Y-103105262D03*
X201161102Y-102240940D03*
%TD*%
D15*
%TO.C,SW27*%
X125915901Y-56101389D03*
D16*
X132768466Y-51777635D03*
D17*
X131228493Y-57524894D03*
D16*
X137028693Y-55196768D03*
D15*
X136541085Y-58948399D03*
D18*
X129605058Y-50930003D03*
X140192100Y-56044401D03*
%TD*%
D15*
%TO.C,SW29*%
X116857234Y-89908793D03*
D16*
X123709799Y-85585039D03*
D17*
X122169826Y-91332298D03*
D16*
X127970026Y-89004172D03*
D15*
X127482418Y-92755803D03*
D18*
X120546391Y-84737407D03*
X131133433Y-89851805D03*
%TD*%
D15*
%TO.C,SW8*%
X249524496Y-49521915D03*
D16*
X254484990Y-43115200D03*
D17*
X255003567Y-49042558D03*
D16*
X259657707Y-44871050D03*
D15*
X260482638Y-48563201D03*
D25*
X251222452Y-43400635D03*
X262920244Y-44585615D03*
%TD*%
D19*
%TO.C,*%
X134366000Y-102362000D03*
%TD*%
D15*
%TO.C,SW15*%
X229158532Y-57814157D03*
D16*
X233422168Y-50924026D03*
D17*
X234557482Y-56764708D03*
D16*
X238750084Y-52129562D03*
D15*
X239956432Y-55715259D03*
D24*
X230207338Y-51548926D03*
X241964913Y-51504663D03*
%TD*%
D15*
%TO.C,SW31*%
X175041152Y-75852101D03*
D16*
X178813771Y-68681337D03*
D17*
X180353744Y-74428596D03*
D16*
X184212802Y-69512280D03*
D15*
X185666336Y-73005091D03*
D23*
X175650363Y-69528970D03*
X187376209Y-68664648D03*
%TD*%
D13*
%TO.C,Display1*%
X148670000Y-83980000D03*
X151210000Y-83980000D03*
X153750000Y-83980000D03*
X156290000Y-83980000D03*
X158830000Y-83980000D03*
%TD*%
D15*
%TO.C,SW24*%
X252574947Y-84388729D03*
D16*
X257535441Y-77982014D03*
D17*
X258054018Y-83909372D03*
D16*
X262708158Y-79737864D03*
D15*
X263533089Y-83430015D03*
D25*
X254272903Y-78267449D03*
X265970695Y-79452429D03*
%TD*%
D15*
%TO.C,SW38*%
X127081050Y-113140958D03*
D16*
X134776075Y-110603424D03*
D17*
X131891458Y-115807411D03*
D16*
X138082592Y-114951636D03*
D15*
X136701866Y-118473864D03*
D28*
X131911695Y-109015672D03*
X140946972Y-116539388D03*
%TD*%
D15*
%TO.C,SW11*%
X87911979Y-54976936D03*
D16*
X94764544Y-50653182D03*
D17*
X93224571Y-56400441D03*
D16*
X99024771Y-54072315D03*
D15*
X98537163Y-57823946D03*
D18*
X91601136Y-49805550D03*
X102188178Y-54919948D03*
%TD*%
D15*
%TO.C,SW22*%
X213045075Y-74727648D03*
D16*
X216817694Y-67556884D03*
D17*
X218357667Y-73304143D03*
D16*
X222216725Y-68387827D03*
D15*
X223670259Y-71880638D03*
D23*
X213654286Y-68404517D03*
X225380132Y-67540195D03*
%TD*%
D19*
%TO.C,*%
X64008000Y-42418000D03*
%TD*%
%TO.C,*%
X58928000Y-76200000D03*
%TD*%
D29*
%TO.C,D14*%
X222670000Y-60960000D03*
X222670000Y-57660000D03*
%TD*%
%TO.C,D13*%
X206160000Y-71500000D03*
X206160000Y-68200000D03*
%TD*%
%TO.C,D9*%
X57150000Y-72516000D03*
X57150000Y-69216000D03*
%TD*%
%TO.C,D31*%
X185840000Y-62610000D03*
X185840000Y-59310000D03*
%TD*%
%TO.C,D20*%
X112180000Y-91820000D03*
X112180000Y-88520000D03*
%TD*%
%TO.C,D38*%
X202350000Y-113030000D03*
X202350000Y-109730000D03*
%TD*%
%TO.C,D29*%
X194730000Y-94360000D03*
X194730000Y-91060000D03*
%TD*%
%TO.C,D26*%
X137580000Y-67310000D03*
X137580000Y-64010000D03*
%TD*%
%TO.C,D6*%
X218860000Y-44830000D03*
X218860000Y-41530000D03*
%TD*%
%TO.C,D11*%
X99480000Y-66420000D03*
X99480000Y-63120000D03*
%TD*%
%TO.C,D3*%
X104560000Y-49910000D03*
X104560000Y-46610000D03*
%TD*%
D30*
%TO.C,D25*%
X167170000Y-101680000D03*
X163870000Y-101680000D03*
%TD*%
D29*
%TO.C,D10*%
X79160000Y-65150000D03*
X79160000Y-61850000D03*
%TD*%
%TO.C,D12*%
X115990000Y-75310000D03*
X115990000Y-72010000D03*
%TD*%
%TO.C,D28*%
X129960000Y-100330000D03*
X129960000Y-97030000D03*
%TD*%
%TO.C,D24*%
X265850000Y-90550000D03*
X265850000Y-87250000D03*
%TD*%
%TO.C,D16*%
X264580000Y-72770000D03*
X264580000Y-69470000D03*
%TD*%
%TO.C,D18*%
X75350000Y-82550000D03*
X75350000Y-79250000D03*
%TD*%
%TO.C,D30*%
X189650000Y-77850000D03*
X189650000Y-74550000D03*
%TD*%
%TO.C,D8*%
X263310000Y-56260000D03*
X263310000Y-52960000D03*
%TD*%
%TO.C,D21*%
X211240000Y-86740000D03*
X211240000Y-83440000D03*
%TD*%
%TO.C,D4*%
X121070000Y-59180000D03*
X121070000Y-55880000D03*
%TD*%
%TO.C,D7*%
X240450000Y-45210000D03*
X240450000Y-41910000D03*
%TD*%
D31*
%TO.C,SW33*%
X157404418Y-118457091D03*
X157404418Y-116247091D03*
D14*
X155254418Y-117357091D03*
X152254418Y-117357091D03*
D31*
X150104418Y-118457091D03*
X150104418Y-116247091D03*
D32*
X156004418Y-115597091D03*
X153004418Y-115597091D03*
X151504418Y-115597091D03*
%TD*%
D13*
%TO.C,U1*%
X161544000Y-49656750D03*
X161544000Y-52196750D03*
X161544000Y-54736750D03*
X161544000Y-57276750D03*
X161544000Y-59816750D03*
X161544000Y-62356750D03*
X161544000Y-64896750D03*
X161544000Y-67436750D03*
X161544000Y-69976750D03*
X161544000Y-72516750D03*
X161544000Y-75056750D03*
X161544000Y-77596750D03*
X146304000Y-77596750D03*
X146304000Y-75056750D03*
X146304000Y-72516750D03*
X146304000Y-69976750D03*
X146304000Y-67436750D03*
X146304000Y-64896750D03*
X146304000Y-62356750D03*
X146304000Y-59816750D03*
X146304000Y-57276750D03*
X146304000Y-54736750D03*
X146304000Y-52196750D03*
X146304000Y-49656750D03*
%TD*%
D29*
%TO.C,D27*%
X132588000Y-81914000D03*
X132588000Y-78614000D03*
%TD*%
%TO.C,D5*%
X202350000Y-54100000D03*
X202350000Y-50800000D03*
%TD*%
%TO.C,D19*%
X95670000Y-81660000D03*
X95670000Y-78360000D03*
%TD*%
%TO.C,D15*%
X242990000Y-61340000D03*
X242990000Y-58040000D03*
%TD*%
%TO.C,D36*%
X135040000Y-127000000D03*
X135040000Y-123700000D03*
%TD*%
%TO.C,D23*%
X244094000Y-78104000D03*
X244094000Y-74804000D03*
%TD*%
%TO.C,D22*%
X226480000Y-79120000D03*
X226480000Y-75820000D03*
%TD*%
%TO.C,D2*%
X82970000Y-48640000D03*
X82970000Y-45340000D03*
%TD*%
%TO.C,D35*%
X119800000Y-116840000D03*
X119800000Y-113540000D03*
%TD*%
%TO.C,D37*%
X184570000Y-118490000D03*
X184570000Y-115190000D03*
%TD*%
%TO.C,D1*%
X61380000Y-52450000D03*
X61380000Y-49150000D03*
%TD*%
%TO.C,D17*%
X56300000Y-91440000D03*
X56300000Y-88140000D03*
%TD*%
%LPD*%
M02*
