%TF.GenerationSoftware,KiCad,Pcbnew,7.0.2*%
%TF.CreationDate,2023-06-30T01:25:47+02:00*%
%TF.ProjectId,Qeshda,51657368-6461-42e6-9b69-6361645f7063,rev?*%
%TF.SameCoordinates,Original*%
%TF.FileFunction,Soldermask,Bot*%
%TF.FilePolarity,Negative*%
%FSLAX46Y46*%
G04 Gerber Fmt 4.6, Leading zero omitted, Abs format (unit mm)*
G04 Created by KiCad (PCBNEW 7.0.2) date 2023-06-30 01:25:47*
%MOMM*%
%LPD*%
G01*
G04 APERTURE LIST*
G04 Aperture macros list*
%AMRoundRect*
0 Rectangle with rounded corners*
0 $1 Rounding radius*
0 $2 $3 $4 $5 $6 $7 $8 $9 X,Y pos of 4 corners*
0 Add a 4 corners polygon primitive as box body*
4,1,4,$2,$3,$4,$5,$6,$7,$8,$9,$2,$3,0*
0 Add four circle primitives for the rounded corners*
1,1,$1+$1,$2,$3*
1,1,$1+$1,$4,$5*
1,1,$1+$1,$6,$7*
1,1,$1+$1,$8,$9*
0 Add four rect primitives between the rounded corners*
20,1,$1+$1,$2,$3,$4,$5,0*
20,1,$1+$1,$4,$5,$6,$7,0*
20,1,$1+$1,$6,$7,$8,$9,0*
20,1,$1+$1,$8,$9,$2,$3,0*%
%AMRotRect*
0 Rectangle, with rotation*
0 The origin of the aperture is its center*
0 $1 length*
0 $2 width*
0 $3 Rotation angle, in degrees counterclockwise*
0 Add horizontal line*
21,1,$1,$2,0,0,$3*%
G04 Aperture macros list end*
%ADD10RoundRect,0.375000X0.750000X-0.375000X0.750000X0.375000X-0.750000X0.375000X-0.750000X-0.375000X0*%
%ADD11C,1.752600*%
%ADD12C,1.701800*%
%ADD13C,3.000000*%
%ADD14C,3.429000*%
%ADD15RotRect,2.600000X2.600000X15.000000*%
%ADD16C,2.000000*%
%ADD17R,3.200000X2.000000*%
%ADD18RoundRect,0.225000X0.225000X0.375000X-0.225000X0.375000X-0.225000X-0.375000X0.225000X-0.375000X0*%
%ADD19RotRect,2.600000X2.600000X29.000000*%
%ADD20RotRect,2.600000X2.600000X331.000000*%
%ADD21RotRect,2.600000X2.600000X345.000000*%
%ADD22C,0.900000*%
%ADD23RotRect,2.600000X2.600000X5.000000*%
%ADD24RotRect,2.600000X2.600000X11.000000*%
%ADD25RotRect,2.600000X2.600000X349.000000*%
%ADD26RotRect,2.600000X2.600000X355.000000*%
%ADD27RoundRect,0.225000X0.375000X-0.225000X0.375000X0.225000X-0.375000X0.225000X-0.375000X-0.225000X0*%
G04 APERTURE END LIST*
D10*
%TO.C,J1*%
X136564000Y-90932000D03*
X136564000Y-92932000D03*
X136564000Y-94932000D03*
%TD*%
D11*
%TO.C,U1*%
X161544000Y-54656750D03*
X161544000Y-57196750D03*
X161544000Y-59736750D03*
X161544000Y-62276750D03*
X161544000Y-64816750D03*
X161544000Y-67356750D03*
X161544000Y-69896750D03*
X161544000Y-72436750D03*
X161544000Y-74976750D03*
X161544000Y-77516750D03*
X161544000Y-80056750D03*
X161544000Y-82596750D03*
X146304000Y-82596750D03*
X146304000Y-80056750D03*
X146304000Y-77516750D03*
X146304000Y-74976750D03*
X146304000Y-72436750D03*
X146304000Y-69896750D03*
X146304000Y-67356750D03*
X146304000Y-64816750D03*
X146304000Y-62276750D03*
X146304000Y-59736750D03*
X146304000Y-57196750D03*
X146304000Y-54656750D03*
%TD*%
D12*
%TO.C,SW21*%
X196534247Y-84586910D03*
D13*
X196046639Y-80835279D03*
X200306866Y-77416146D03*
D14*
X201846839Y-83163405D03*
D13*
X205705897Y-78247089D03*
D12*
X207159431Y-81739900D03*
D15*
X197143458Y-78263779D03*
X208869304Y-77399457D03*
%TD*%
D12*
%TO.C,SW30*%
X179570486Y-92755803D03*
D13*
X179082878Y-89004172D03*
X183343105Y-85585039D03*
D14*
X184883078Y-91332298D03*
D13*
X188742136Y-86415982D03*
D12*
X190195670Y-89908793D03*
D15*
X180179697Y-86432672D03*
X191905543Y-85568350D03*
%TD*%
%TO.C,SW22*%
X225380132Y-67540195D03*
X213654286Y-68404517D03*
D12*
X223670259Y-71880638D03*
D13*
X222216725Y-68387827D03*
D14*
X218357667Y-73304143D03*
D13*
X216817694Y-67556884D03*
X212557467Y-70976017D03*
D12*
X213045075Y-74727648D03*
%TD*%
D16*
%TO.C,SW26*%
X146500000Y-101750000D03*
X146500000Y-106750000D03*
X146500000Y-104250000D03*
D17*
X154000000Y-98650000D03*
X154000000Y-109850000D03*
D16*
X161000000Y-106750000D03*
X161000000Y-101750000D03*
%TD*%
D18*
%TO.C,D25*%
X163870000Y-106680000D03*
X167170000Y-106680000D03*
%TD*%
D16*
%TO.C,SW34*%
X173303000Y-99949000D03*
X166803000Y-99949000D03*
%TD*%
D15*
%TO.C,SW40*%
X201161102Y-102240940D03*
X189435256Y-103105262D03*
D12*
X199451229Y-106581383D03*
D13*
X197997695Y-103088572D03*
D14*
X194138637Y-108004888D03*
D13*
X192598664Y-102257629D03*
X188338437Y-105676762D03*
D12*
X188826045Y-109428393D03*
%TD*%
D19*
%TO.C,SW39*%
X180580888Y-108515788D03*
X169412448Y-112191176D03*
D12*
X179971854Y-113140958D03*
D13*
X177716509Y-110103540D03*
D14*
X175161446Y-115807411D03*
D13*
X172276829Y-110603424D03*
X168970312Y-114951636D03*
D12*
X170351038Y-118473864D03*
%TD*%
D20*
%TO.C,SW38*%
X140946972Y-116539388D03*
X131911695Y-109015672D03*
D12*
X136701866Y-118473864D03*
D13*
X138082592Y-114951636D03*
D14*
X131891458Y-115807411D03*
D13*
X134776075Y-110603424D03*
X129336395Y-110103540D03*
D12*
X127081050Y-113140958D03*
%TD*%
%TO.C,SW37*%
X107601675Y-106581383D03*
D13*
X109055209Y-103088572D03*
X114454240Y-102257629D03*
D14*
X112914267Y-108004888D03*
D13*
X118714467Y-105676762D03*
D12*
X118226859Y-109428393D03*
D21*
X111290832Y-101409997D03*
X121877874Y-106524395D03*
%TD*%
D15*
%TO.C,SW32*%
X182846876Y-51760946D03*
X171121030Y-52625268D03*
D12*
X181137003Y-56101389D03*
D13*
X179683469Y-52608578D03*
D14*
X175824411Y-57524894D03*
D13*
X174284438Y-51777635D03*
X170024211Y-55196768D03*
D12*
X170511819Y-58948399D03*
%TD*%
D15*
%TO.C,SW31*%
X187376209Y-68664648D03*
X175650363Y-69528970D03*
D12*
X185666336Y-73005091D03*
D13*
X184212802Y-69512280D03*
D14*
X180353744Y-74428596D03*
D13*
X178813771Y-68681337D03*
X174553544Y-72100470D03*
D12*
X175041152Y-75852101D03*
%TD*%
D21*
%TO.C,SW29*%
X131133433Y-89851805D03*
X120546391Y-84737407D03*
D12*
X127482418Y-92755803D03*
D13*
X127970026Y-89004172D03*
D14*
X122169826Y-91332298D03*
D13*
X123709799Y-85585039D03*
X118310768Y-86415982D03*
D12*
X116857234Y-89908793D03*
%TD*%
D21*
%TO.C,SW28*%
X135662767Y-72948103D03*
X125075725Y-67833705D03*
D12*
X132011752Y-75852101D03*
D13*
X132499360Y-72100470D03*
D14*
X126699160Y-74428596D03*
D13*
X128239133Y-68681337D03*
X122840102Y-69512280D03*
D12*
X121386568Y-73005091D03*
%TD*%
D21*
%TO.C,SW27*%
X140192100Y-56044401D03*
X129605058Y-50930003D03*
D12*
X136541085Y-58948399D03*
D13*
X137028693Y-55196768D03*
D14*
X131228493Y-57524894D03*
D13*
X132768466Y-51777635D03*
X127369435Y-52608578D03*
D12*
X125915901Y-56101389D03*
%TD*%
D22*
%TO.C,SW25*%
X152250000Y-117355000D03*
X155250000Y-117355000D03*
%TD*%
D23*
%TO.C,SW24*%
X265970695Y-79452429D03*
X254272903Y-78267449D03*
D12*
X263533089Y-83430015D03*
D13*
X262708158Y-79737864D03*
D14*
X258054018Y-83909372D03*
D13*
X257535441Y-77982014D03*
X252746211Y-80609422D03*
D12*
X252574947Y-84388729D03*
%TD*%
D24*
%TO.C,SW23*%
X245304070Y-68683139D03*
X233546495Y-68727402D03*
D12*
X243295589Y-72893735D03*
D13*
X242089241Y-69308038D03*
D14*
X237896639Y-73943184D03*
D13*
X236761325Y-68102502D03*
X232272970Y-71216128D03*
D12*
X232497689Y-74992633D03*
%TD*%
D21*
%TO.C,SW20*%
X114169672Y-81682912D03*
X103582630Y-76568514D03*
D12*
X110518657Y-84586910D03*
D13*
X111006265Y-80835279D03*
D14*
X105206065Y-83163405D03*
D13*
X106746038Y-77416146D03*
X101347007Y-78247089D03*
D12*
X99893473Y-81739900D03*
%TD*%
D21*
%TO.C,SW19*%
X97658844Y-71823650D03*
X87071802Y-66709252D03*
D12*
X94007829Y-74727648D03*
D13*
X94495437Y-70976017D03*
D14*
X88695237Y-73304143D03*
D13*
X90235210Y-67556884D03*
X84836179Y-68387827D03*
D12*
X83382645Y-71880638D03*
%TD*%
D25*
%TO.C,SW18*%
X77994763Y-71841027D03*
X67076749Y-67477603D03*
D12*
X74555215Y-74992633D03*
D13*
X74779934Y-71216128D03*
D14*
X69156265Y-73943184D03*
D13*
X70291579Y-68102502D03*
X64963663Y-69308038D03*
D12*
X63757315Y-72893735D03*
%TD*%
%TO.C,SW17*%
X43519815Y-83430015D03*
D13*
X44344746Y-79737864D03*
X49517463Y-77982014D03*
D14*
X48998886Y-83909372D03*
D13*
X54306693Y-80609422D03*
D12*
X54477957Y-84388729D03*
D26*
X46254924Y-77696578D03*
X57569231Y-80894857D03*
%TD*%
D23*
%TO.C,SW16*%
X264445469Y-62019022D03*
X252747677Y-60834042D03*
D12*
X262007863Y-65996608D03*
D13*
X261182932Y-62304457D03*
D14*
X256528792Y-66475965D03*
D13*
X256010215Y-60548607D03*
X251220985Y-63176015D03*
D12*
X251049721Y-66955322D03*
%TD*%
D24*
%TO.C,SW15*%
X241964913Y-51504663D03*
X230207338Y-51548926D03*
D12*
X239956432Y-55715259D03*
D13*
X238750084Y-52129562D03*
D14*
X234557482Y-56764708D03*
D13*
X233422168Y-50924026D03*
X228933813Y-54037652D03*
D12*
X229158532Y-57814157D03*
%TD*%
%TO.C,SW14*%
X208515741Y-57823946D03*
D13*
X208028133Y-54072315D03*
X212288360Y-50653182D03*
D14*
X213828333Y-56400441D03*
D13*
X217687391Y-51484125D03*
D12*
X219140925Y-54976936D03*
D15*
X209124952Y-51500815D03*
X220850798Y-50636493D03*
%TD*%
%TO.C,SW13*%
X204339970Y-60495755D03*
X192614124Y-61360077D03*
D12*
X202630097Y-64836198D03*
D13*
X201176563Y-61343387D03*
D14*
X197317505Y-66259703D03*
D13*
X195777532Y-60512444D03*
X191517305Y-63931577D03*
D12*
X192004913Y-67683208D03*
%TD*%
D21*
%TO.C,SW12*%
X118699005Y-64779210D03*
X108111963Y-59664812D03*
D12*
X115047990Y-67683208D03*
D13*
X115535598Y-63931577D03*
D14*
X109735398Y-66259703D03*
D13*
X111275371Y-60512444D03*
X105876340Y-61343387D03*
D12*
X104422806Y-64836198D03*
%TD*%
D21*
%TO.C,SW11*%
X102188178Y-54919948D03*
X91601136Y-49805550D03*
D12*
X98537163Y-57823946D03*
D13*
X99024771Y-54072315D03*
D14*
X93224571Y-56400441D03*
D13*
X94764544Y-50653182D03*
X89365513Y-51484125D03*
D12*
X87911979Y-54976936D03*
%TD*%
D25*
%TO.C,SW10*%
X81333920Y-54662551D03*
X70415906Y-50299127D03*
D12*
X77894372Y-57814157D03*
D13*
X78119091Y-54037652D03*
D14*
X72495422Y-56764708D03*
D13*
X73630736Y-50924026D03*
X68302820Y-52129562D03*
D12*
X67096472Y-55715259D03*
%TD*%
%TO.C,SW9*%
X45045041Y-65996608D03*
D13*
X45869972Y-62304457D03*
X51042689Y-60548607D03*
D14*
X50524112Y-66475965D03*
D13*
X55831919Y-63176015D03*
D12*
X56003183Y-66955322D03*
D26*
X47780150Y-60263171D03*
X59094457Y-63461450D03*
%TD*%
D12*
%TO.C,SW8*%
X249524496Y-49521915D03*
D13*
X249695760Y-45742608D03*
X254484990Y-43115200D03*
D14*
X255003567Y-49042558D03*
D13*
X259657707Y-44871050D03*
D12*
X260482638Y-48563201D03*
D23*
X251222452Y-43400635D03*
X262920244Y-44585615D03*
%TD*%
D12*
%TO.C,SW7*%
X225819374Y-40635682D03*
D13*
X225594655Y-36859177D03*
X230083010Y-33745551D03*
D14*
X231218324Y-39586233D03*
D13*
X235410926Y-34951087D03*
D12*
X236617274Y-38536784D03*
D24*
X226868180Y-34370451D03*
X238625755Y-34326188D03*
%TD*%
D15*
%TO.C,SW6*%
X216321465Y-33732791D03*
X204595619Y-34597113D03*
D12*
X214611592Y-38073234D03*
D13*
X213158058Y-34580423D03*
D14*
X209299000Y-39496739D03*
D13*
X207759027Y-33749480D03*
X203498800Y-37168613D03*
D12*
X203986408Y-40920244D03*
%TD*%
D15*
%TO.C,SW5*%
X199810637Y-43592054D03*
X188084791Y-44456376D03*
D12*
X198100764Y-47932497D03*
D13*
X196647230Y-44439686D03*
D14*
X192788172Y-49356002D03*
D13*
X191248199Y-43608743D03*
X186987972Y-47027876D03*
D12*
X187475580Y-50779507D03*
%TD*%
D21*
%TO.C,SW4*%
X123228339Y-47875509D03*
X112641297Y-42761111D03*
D12*
X119577324Y-50779507D03*
D13*
X120064932Y-47027876D03*
D14*
X114264732Y-49356002D03*
D13*
X115804705Y-43608743D03*
X110405674Y-44439686D03*
D12*
X108952140Y-47932497D03*
%TD*%
D21*
%TO.C,SW3*%
X106717511Y-38016246D03*
X96130469Y-32901848D03*
D12*
X103066496Y-40920244D03*
D13*
X103554104Y-37168613D03*
D14*
X97753904Y-39496739D03*
D13*
X99293877Y-33749480D03*
X93894846Y-34580423D03*
D12*
X92441312Y-38073234D03*
%TD*%
D25*
%TO.C,SW2*%
X84673078Y-37484076D03*
X73755064Y-33120652D03*
D12*
X81233530Y-40635682D03*
D13*
X81458249Y-36859177D03*
D14*
X75834580Y-39586233D03*
D13*
X76969894Y-33745551D03*
X71641978Y-34951087D03*
D12*
X70435630Y-38536784D03*
%TD*%
D26*
%TO.C,SW1*%
X60619682Y-46028043D03*
X49305375Y-42829764D03*
D12*
X57528408Y-49521915D03*
D13*
X57357144Y-45742608D03*
D14*
X52049337Y-49042558D03*
D13*
X52567914Y-43115200D03*
X47395197Y-44871050D03*
D12*
X46570266Y-48563201D03*
%TD*%
D11*
%TO.C,Display1*%
X148670000Y-87980000D03*
X151210000Y-87980000D03*
X153750000Y-87980000D03*
X156290000Y-87980000D03*
X158830000Y-87980000D03*
%TD*%
D27*
%TO.C,D38*%
X202350000Y-109730000D03*
X202350000Y-113030000D03*
%TD*%
%TO.C,D37*%
X184570000Y-115190000D03*
X184570000Y-118490000D03*
%TD*%
%TO.C,D36*%
X135040000Y-123700000D03*
X135040000Y-127000000D03*
%TD*%
%TO.C,D35*%
X119800000Y-113540000D03*
X119800000Y-116840000D03*
%TD*%
%TO.C,D31*%
X185840000Y-59310000D03*
X185840000Y-62610000D03*
%TD*%
%TO.C,D30*%
X189650000Y-77850000D03*
X189650000Y-74550000D03*
%TD*%
%TO.C,D29*%
X194730000Y-94360000D03*
X194730000Y-91060000D03*
%TD*%
%TO.C,D28*%
X129960000Y-97030000D03*
X129960000Y-100330000D03*
%TD*%
%TO.C,D27*%
X133770000Y-80900000D03*
X133770000Y-84200000D03*
%TD*%
%TO.C,D26*%
X137580000Y-64010000D03*
X137580000Y-67310000D03*
%TD*%
%TO.C,D24*%
X265850000Y-87250000D03*
X265850000Y-90550000D03*
%TD*%
%TO.C,D23*%
X246800000Y-75820000D03*
X246800000Y-79120000D03*
%TD*%
%TO.C,D22*%
X226480000Y-75820000D03*
X226480000Y-79120000D03*
%TD*%
%TO.C,D21*%
X211240000Y-83440000D03*
X211240000Y-86740000D03*
%TD*%
%TO.C,D20*%
X112180000Y-91820000D03*
X112180000Y-88520000D03*
%TD*%
%TO.C,D19*%
X95670000Y-81660000D03*
X95670000Y-78360000D03*
%TD*%
%TO.C,D18*%
X75350000Y-79250000D03*
X75350000Y-82550000D03*
%TD*%
%TO.C,D17*%
X56300000Y-88140000D03*
X56300000Y-91440000D03*
%TD*%
%TO.C,D16*%
X264580000Y-69470000D03*
X264580000Y-72770000D03*
%TD*%
%TO.C,D15*%
X242990000Y-58040000D03*
X242990000Y-61340000D03*
%TD*%
%TO.C,D14*%
X222670000Y-57660000D03*
X222670000Y-60960000D03*
%TD*%
%TO.C,D13*%
X206160000Y-68200000D03*
X206160000Y-71500000D03*
%TD*%
%TO.C,D12*%
X115990000Y-72010000D03*
X115990000Y-75310000D03*
%TD*%
%TO.C,D11*%
X99480000Y-63120000D03*
X99480000Y-66420000D03*
%TD*%
%TO.C,D10*%
X79160000Y-65150000D03*
X79160000Y-61850000D03*
%TD*%
%TO.C,D9*%
X58840000Y-70740000D03*
X58840000Y-74040000D03*
%TD*%
%TO.C,D8*%
X263310000Y-52960000D03*
X263310000Y-56260000D03*
%TD*%
%TO.C,D7*%
X240450000Y-41910000D03*
X240450000Y-45210000D03*
%TD*%
%TO.C,D6*%
X218860000Y-41530000D03*
X218860000Y-44830000D03*
%TD*%
%TO.C,D5*%
X202350000Y-50800000D03*
X202350000Y-54100000D03*
%TD*%
%TO.C,D4*%
X121070000Y-55880000D03*
X121070000Y-59180000D03*
%TD*%
%TO.C,D3*%
X104560000Y-46610000D03*
X104560000Y-49910000D03*
%TD*%
%TO.C,D2*%
X82970000Y-45340000D03*
X82970000Y-48640000D03*
%TD*%
%TO.C,D1*%
X61380000Y-52450000D03*
X61380000Y-49150000D03*
%TD*%
M02*
