%TF.GenerationSoftware,KiCad,Pcbnew,7.0.2*%
%TF.CreationDate,2023-06-30T01:25:47+02:00*%
%TF.ProjectId,Qeshda,51657368-6461-42e6-9b69-6361645f7063,rev?*%
%TF.SameCoordinates,Original*%
%TF.FileFunction,Legend,Bot*%
%TF.FilePolarity,Positive*%
%FSLAX46Y46*%
G04 Gerber Fmt 4.6, Leading zero omitted, Abs format (unit mm)*
G04 Created by KiCad (PCBNEW 7.0.2) date 2023-06-30 01:25:47*
%MOMM*%
%LPD*%
G01*
G04 APERTURE LIST*
G04 Aperture macros list*
%AMRoundRect*
0 Rectangle with rounded corners*
0 $1 Rounding radius*
0 $2 $3 $4 $5 $6 $7 $8 $9 X,Y pos of 4 corners*
0 Add a 4 corners polygon primitive as box body*
4,1,4,$2,$3,$4,$5,$6,$7,$8,$9,$2,$3,0*
0 Add four circle primitives for the rounded corners*
1,1,$1+$1,$2,$3*
1,1,$1+$1,$4,$5*
1,1,$1+$1,$6,$7*
1,1,$1+$1,$8,$9*
0 Add four rect primitives between the rounded corners*
20,1,$1+$1,$2,$3,$4,$5,0*
20,1,$1+$1,$4,$5,$6,$7,0*
20,1,$1+$1,$6,$7,$8,$9,0*
20,1,$1+$1,$8,$9,$2,$3,0*%
%AMRotRect*
0 Rectangle, with rotation*
0 The origin of the aperture is its center*
0 $1 length*
0 $2 width*
0 $3 Rotation angle, in degrees counterclockwise*
0 Add horizontal line*
21,1,$1,$2,0,0,$3*%
G04 Aperture macros list end*
%ADD10C,0.150000*%
%ADD11C,0.120000*%
%ADD12RoundRect,0.375000X0.750000X-0.375000X0.750000X0.375000X-0.750000X0.375000X-0.750000X-0.375000X0*%
%ADD13C,1.752600*%
%ADD14C,1.701800*%
%ADD15C,3.000000*%
%ADD16C,3.429000*%
%ADD17RotRect,2.600000X2.600000X15.000000*%
%ADD18C,2.000000*%
%ADD19R,3.200000X2.000000*%
%ADD20RoundRect,0.225000X0.225000X0.375000X-0.225000X0.375000X-0.225000X-0.375000X0.225000X-0.375000X0*%
%ADD21RotRect,2.600000X2.600000X29.000000*%
%ADD22RotRect,2.600000X2.600000X331.000000*%
%ADD23RotRect,2.600000X2.600000X345.000000*%
%ADD24C,0.900000*%
%ADD25RotRect,2.600000X2.600000X5.000000*%
%ADD26RotRect,2.600000X2.600000X11.000000*%
%ADD27RotRect,2.600000X2.600000X349.000000*%
%ADD28RotRect,2.600000X2.600000X355.000000*%
%ADD29RoundRect,0.225000X0.375000X-0.225000X0.375000X0.225000X-0.375000X0.225000X-0.375000X-0.225000X0*%
G04 APERTURE END LIST*
D10*
%TO.C,J1*%
X138315047Y-94493904D02*
X138353142Y-94608190D01*
X138353142Y-94608190D02*
X138391238Y-94646285D01*
X138391238Y-94646285D02*
X138467428Y-94684381D01*
X138467428Y-94684381D02*
X138581714Y-94684381D01*
X138581714Y-94684381D02*
X138657904Y-94646285D01*
X138657904Y-94646285D02*
X138696000Y-94608190D01*
X138696000Y-94608190D02*
X138734095Y-94532000D01*
X138734095Y-94532000D02*
X138734095Y-94227238D01*
X138734095Y-94227238D02*
X137934095Y-94227238D01*
X137934095Y-94227238D02*
X137934095Y-94493904D01*
X137934095Y-94493904D02*
X137972190Y-94570095D01*
X137972190Y-94570095D02*
X138010285Y-94608190D01*
X138010285Y-94608190D02*
X138086476Y-94646285D01*
X138086476Y-94646285D02*
X138162666Y-94646285D01*
X138162666Y-94646285D02*
X138238857Y-94608190D01*
X138238857Y-94608190D02*
X138276952Y-94570095D01*
X138276952Y-94570095D02*
X138315047Y-94493904D01*
X138315047Y-94493904D02*
X138315047Y-94227238D01*
X138429333Y-95027238D02*
X138429333Y-95636762D01*
X138734095Y-95332000D02*
X138124571Y-95332000D01*
X138315047Y-90493904D02*
X138353142Y-90608190D01*
X138353142Y-90608190D02*
X138391238Y-90646285D01*
X138391238Y-90646285D02*
X138467428Y-90684381D01*
X138467428Y-90684381D02*
X138581714Y-90684381D01*
X138581714Y-90684381D02*
X138657904Y-90646285D01*
X138657904Y-90646285D02*
X138696000Y-90608190D01*
X138696000Y-90608190D02*
X138734095Y-90532000D01*
X138734095Y-90532000D02*
X138734095Y-90227238D01*
X138734095Y-90227238D02*
X137934095Y-90227238D01*
X137934095Y-90227238D02*
X137934095Y-90493904D01*
X137934095Y-90493904D02*
X137972190Y-90570095D01*
X137972190Y-90570095D02*
X138010285Y-90608190D01*
X138010285Y-90608190D02*
X138086476Y-90646285D01*
X138086476Y-90646285D02*
X138162666Y-90646285D01*
X138162666Y-90646285D02*
X138238857Y-90608190D01*
X138238857Y-90608190D02*
X138276952Y-90570095D01*
X138276952Y-90570095D02*
X138315047Y-90493904D01*
X138315047Y-90493904D02*
X138315047Y-90227238D01*
X138429333Y-91027238D02*
X138429333Y-91636762D01*
X138734095Y-91332000D02*
X138124571Y-91332000D01*
X138315047Y-92493904D02*
X138353142Y-92608190D01*
X138353142Y-92608190D02*
X138391238Y-92646285D01*
X138391238Y-92646285D02*
X138467428Y-92684381D01*
X138467428Y-92684381D02*
X138581714Y-92684381D01*
X138581714Y-92684381D02*
X138657904Y-92646285D01*
X138657904Y-92646285D02*
X138696000Y-92608190D01*
X138696000Y-92608190D02*
X138734095Y-92532000D01*
X138734095Y-92532000D02*
X138734095Y-92227238D01*
X138734095Y-92227238D02*
X137934095Y-92227238D01*
X137934095Y-92227238D02*
X137934095Y-92493904D01*
X137934095Y-92493904D02*
X137972190Y-92570095D01*
X137972190Y-92570095D02*
X138010285Y-92608190D01*
X138010285Y-92608190D02*
X138086476Y-92646285D01*
X138086476Y-92646285D02*
X138162666Y-92646285D01*
X138162666Y-92646285D02*
X138238857Y-92608190D01*
X138238857Y-92608190D02*
X138276952Y-92570095D01*
X138276952Y-92570095D02*
X138315047Y-92493904D01*
X138315047Y-92493904D02*
X138315047Y-92227238D01*
X138429333Y-93027238D02*
X138429333Y-93636762D01*
%TO.C,U1*%
X160447920Y-65196845D02*
X160447920Y-64396845D01*
X160447920Y-64396845D02*
X160181254Y-64968273D01*
X160181254Y-64968273D02*
X159914587Y-64396845D01*
X159914587Y-64396845D02*
X159914587Y-65196845D01*
X159381253Y-64396845D02*
X159228872Y-64396845D01*
X159228872Y-64396845D02*
X159152682Y-64434940D01*
X159152682Y-64434940D02*
X159076491Y-64511130D01*
X159076491Y-64511130D02*
X159038396Y-64663511D01*
X159038396Y-64663511D02*
X159038396Y-64930178D01*
X159038396Y-64930178D02*
X159076491Y-65082559D01*
X159076491Y-65082559D02*
X159152682Y-65158750D01*
X159152682Y-65158750D02*
X159228872Y-65196845D01*
X159228872Y-65196845D02*
X159381253Y-65196845D01*
X159381253Y-65196845D02*
X159457444Y-65158750D01*
X159457444Y-65158750D02*
X159533634Y-65082559D01*
X159533634Y-65082559D02*
X159571730Y-64930178D01*
X159571730Y-64930178D02*
X159571730Y-64663511D01*
X159571730Y-64663511D02*
X159533634Y-64511130D01*
X159533634Y-64511130D02*
X159457444Y-64434940D01*
X159457444Y-64434940D02*
X159381253Y-64396845D01*
X158733635Y-65158750D02*
X158619349Y-65196845D01*
X158619349Y-65196845D02*
X158428873Y-65196845D01*
X158428873Y-65196845D02*
X158352682Y-65158750D01*
X158352682Y-65158750D02*
X158314587Y-65120654D01*
X158314587Y-65120654D02*
X158276492Y-65044464D01*
X158276492Y-65044464D02*
X158276492Y-64968273D01*
X158276492Y-64968273D02*
X158314587Y-64892083D01*
X158314587Y-64892083D02*
X158352682Y-64853988D01*
X158352682Y-64853988D02*
X158428873Y-64815892D01*
X158428873Y-64815892D02*
X158581254Y-64777797D01*
X158581254Y-64777797D02*
X158657444Y-64739702D01*
X158657444Y-64739702D02*
X158695539Y-64701607D01*
X158695539Y-64701607D02*
X158733635Y-64625416D01*
X158733635Y-64625416D02*
X158733635Y-64549226D01*
X158733635Y-64549226D02*
X158695539Y-64473035D01*
X158695539Y-64473035D02*
X158657444Y-64434940D01*
X158657444Y-64434940D02*
X158581254Y-64396845D01*
X158581254Y-64396845D02*
X158390777Y-64396845D01*
X158390777Y-64396845D02*
X158276492Y-64434940D01*
X157933634Y-65196845D02*
X157933634Y-64396845D01*
X149002665Y-55026845D02*
X149269332Y-54645892D01*
X149459808Y-55026845D02*
X149459808Y-54226845D01*
X149459808Y-54226845D02*
X149155046Y-54226845D01*
X149155046Y-54226845D02*
X149078856Y-54264940D01*
X149078856Y-54264940D02*
X149040761Y-54303035D01*
X149040761Y-54303035D02*
X149002665Y-54379226D01*
X149002665Y-54379226D02*
X149002665Y-54493511D01*
X149002665Y-54493511D02*
X149040761Y-54569702D01*
X149040761Y-54569702D02*
X149078856Y-54607797D01*
X149078856Y-54607797D02*
X149155046Y-54645892D01*
X149155046Y-54645892D02*
X149459808Y-54645892D01*
X148697904Y-54798273D02*
X148316951Y-54798273D01*
X148774094Y-55026845D02*
X148507427Y-54226845D01*
X148507427Y-54226845D02*
X148240761Y-55026845D01*
X148050285Y-54226845D02*
X147859809Y-55026845D01*
X147859809Y-55026845D02*
X147707428Y-54455416D01*
X147707428Y-54455416D02*
X147555047Y-55026845D01*
X147555047Y-55026845D02*
X147364571Y-54226845D01*
X159959110Y-54950654D02*
X159997206Y-54988750D01*
X159997206Y-54988750D02*
X160111491Y-55026845D01*
X160111491Y-55026845D02*
X160187682Y-55026845D01*
X160187682Y-55026845D02*
X160301968Y-54988750D01*
X160301968Y-54988750D02*
X160378158Y-54912559D01*
X160378158Y-54912559D02*
X160416253Y-54836369D01*
X160416253Y-54836369D02*
X160454349Y-54683988D01*
X160454349Y-54683988D02*
X160454349Y-54569702D01*
X160454349Y-54569702D02*
X160416253Y-54417321D01*
X160416253Y-54417321D02*
X160378158Y-54341130D01*
X160378158Y-54341130D02*
X160301968Y-54264940D01*
X160301968Y-54264940D02*
X160187682Y-54226845D01*
X160187682Y-54226845D02*
X160111491Y-54226845D01*
X160111491Y-54226845D02*
X159997206Y-54264940D01*
X159997206Y-54264940D02*
X159959110Y-54303035D01*
X159654349Y-54988750D02*
X159540063Y-55026845D01*
X159540063Y-55026845D02*
X159349587Y-55026845D01*
X159349587Y-55026845D02*
X159273396Y-54988750D01*
X159273396Y-54988750D02*
X159235301Y-54950654D01*
X159235301Y-54950654D02*
X159197206Y-54874464D01*
X159197206Y-54874464D02*
X159197206Y-54798273D01*
X159197206Y-54798273D02*
X159235301Y-54722083D01*
X159235301Y-54722083D02*
X159273396Y-54683988D01*
X159273396Y-54683988D02*
X159349587Y-54645892D01*
X159349587Y-54645892D02*
X159501968Y-54607797D01*
X159501968Y-54607797D02*
X159578158Y-54569702D01*
X159578158Y-54569702D02*
X159616253Y-54531607D01*
X159616253Y-54531607D02*
X159654349Y-54455416D01*
X159654349Y-54455416D02*
X159654349Y-54379226D01*
X159654349Y-54379226D02*
X159616253Y-54303035D01*
X159616253Y-54303035D02*
X159578158Y-54264940D01*
X159578158Y-54264940D02*
X159501968Y-54226845D01*
X159501968Y-54226845D02*
X159311491Y-54226845D01*
X159311491Y-54226845D02*
X159197206Y-54264940D01*
X159994523Y-59344940D02*
X160070713Y-59306845D01*
X160070713Y-59306845D02*
X160184999Y-59306845D01*
X160184999Y-59306845D02*
X160299285Y-59344940D01*
X160299285Y-59344940D02*
X160375475Y-59421130D01*
X160375475Y-59421130D02*
X160413570Y-59497321D01*
X160413570Y-59497321D02*
X160451666Y-59649702D01*
X160451666Y-59649702D02*
X160451666Y-59763988D01*
X160451666Y-59763988D02*
X160413570Y-59916369D01*
X160413570Y-59916369D02*
X160375475Y-59992559D01*
X160375475Y-59992559D02*
X160299285Y-60068750D01*
X160299285Y-60068750D02*
X160184999Y-60106845D01*
X160184999Y-60106845D02*
X160108808Y-60106845D01*
X160108808Y-60106845D02*
X159994523Y-60068750D01*
X159994523Y-60068750D02*
X159956427Y-60030654D01*
X159956427Y-60030654D02*
X159956427Y-59763988D01*
X159956427Y-59763988D02*
X160108808Y-59763988D01*
X159613570Y-60106845D02*
X159613570Y-59306845D01*
X159613570Y-59306845D02*
X159156427Y-60106845D01*
X159156427Y-60106845D02*
X159156427Y-59306845D01*
X158775475Y-60106845D02*
X158775475Y-59306845D01*
X158775475Y-59306845D02*
X158584999Y-59306845D01*
X158584999Y-59306845D02*
X158470713Y-59344940D01*
X158470713Y-59344940D02*
X158394523Y-59421130D01*
X158394523Y-59421130D02*
X158356428Y-59497321D01*
X158356428Y-59497321D02*
X158318332Y-59649702D01*
X158318332Y-59649702D02*
X158318332Y-59763988D01*
X158318332Y-59763988D02*
X158356428Y-59916369D01*
X158356428Y-59916369D02*
X158394523Y-59992559D01*
X158394523Y-59992559D02*
X158470713Y-60068750D01*
X158470713Y-60068750D02*
X158584999Y-60106845D01*
X158584999Y-60106845D02*
X158775475Y-60106845D01*
X149453475Y-61846845D02*
X149186808Y-62646845D01*
X149186808Y-62646845D02*
X148920142Y-61846845D01*
X148196332Y-62570654D02*
X148234428Y-62608750D01*
X148234428Y-62608750D02*
X148348713Y-62646845D01*
X148348713Y-62646845D02*
X148424904Y-62646845D01*
X148424904Y-62646845D02*
X148539190Y-62608750D01*
X148539190Y-62608750D02*
X148615380Y-62532559D01*
X148615380Y-62532559D02*
X148653475Y-62456369D01*
X148653475Y-62456369D02*
X148691571Y-62303988D01*
X148691571Y-62303988D02*
X148691571Y-62189702D01*
X148691571Y-62189702D02*
X148653475Y-62037321D01*
X148653475Y-62037321D02*
X148615380Y-61961130D01*
X148615380Y-61961130D02*
X148539190Y-61884940D01*
X148539190Y-61884940D02*
X148424904Y-61846845D01*
X148424904Y-61846845D02*
X148348713Y-61846845D01*
X148348713Y-61846845D02*
X148234428Y-61884940D01*
X148234428Y-61884940D02*
X148196332Y-61923035D01*
X147396332Y-62570654D02*
X147434428Y-62608750D01*
X147434428Y-62608750D02*
X147548713Y-62646845D01*
X147548713Y-62646845D02*
X147624904Y-62646845D01*
X147624904Y-62646845D02*
X147739190Y-62608750D01*
X147739190Y-62608750D02*
X147815380Y-62532559D01*
X147815380Y-62532559D02*
X147853475Y-62456369D01*
X147853475Y-62456369D02*
X147891571Y-62303988D01*
X147891571Y-62303988D02*
X147891571Y-62189702D01*
X147891571Y-62189702D02*
X147853475Y-62037321D01*
X147853475Y-62037321D02*
X147815380Y-61961130D01*
X147815380Y-61961130D02*
X147739190Y-61884940D01*
X147739190Y-61884940D02*
X147624904Y-61846845D01*
X147624904Y-61846845D02*
X147548713Y-61846845D01*
X147548713Y-61846845D02*
X147434428Y-61884940D01*
X147434428Y-61884940D02*
X147396332Y-61923035D01*
X149078856Y-56804940D02*
X149155046Y-56766845D01*
X149155046Y-56766845D02*
X149269332Y-56766845D01*
X149269332Y-56766845D02*
X149383618Y-56804940D01*
X149383618Y-56804940D02*
X149459808Y-56881130D01*
X149459808Y-56881130D02*
X149497903Y-56957321D01*
X149497903Y-56957321D02*
X149535999Y-57109702D01*
X149535999Y-57109702D02*
X149535999Y-57223988D01*
X149535999Y-57223988D02*
X149497903Y-57376369D01*
X149497903Y-57376369D02*
X149459808Y-57452559D01*
X149459808Y-57452559D02*
X149383618Y-57528750D01*
X149383618Y-57528750D02*
X149269332Y-57566845D01*
X149269332Y-57566845D02*
X149193141Y-57566845D01*
X149193141Y-57566845D02*
X149078856Y-57528750D01*
X149078856Y-57528750D02*
X149040760Y-57490654D01*
X149040760Y-57490654D02*
X149040760Y-57223988D01*
X149040760Y-57223988D02*
X149193141Y-57223988D01*
X148697903Y-57566845D02*
X148697903Y-56766845D01*
X148697903Y-56766845D02*
X148240760Y-57566845D01*
X148240760Y-57566845D02*
X148240760Y-56766845D01*
X147859808Y-57566845D02*
X147859808Y-56766845D01*
X147859808Y-56766845D02*
X147669332Y-56766845D01*
X147669332Y-56766845D02*
X147555046Y-56804940D01*
X147555046Y-56804940D02*
X147478856Y-56881130D01*
X147478856Y-56881130D02*
X147440761Y-56957321D01*
X147440761Y-56957321D02*
X147402665Y-57109702D01*
X147402665Y-57109702D02*
X147402665Y-57223988D01*
X147402665Y-57223988D02*
X147440761Y-57376369D01*
X147440761Y-57376369D02*
X147478856Y-57452559D01*
X147478856Y-57452559D02*
X147555046Y-57528750D01*
X147555046Y-57528750D02*
X147669332Y-57566845D01*
X147669332Y-57566845D02*
X147859808Y-57566845D01*
X160489761Y-67758750D02*
X160375475Y-67796845D01*
X160375475Y-67796845D02*
X160184999Y-67796845D01*
X160184999Y-67796845D02*
X160108808Y-67758750D01*
X160108808Y-67758750D02*
X160070713Y-67720654D01*
X160070713Y-67720654D02*
X160032618Y-67644464D01*
X160032618Y-67644464D02*
X160032618Y-67568273D01*
X160032618Y-67568273D02*
X160070713Y-67492083D01*
X160070713Y-67492083D02*
X160108808Y-67453988D01*
X160108808Y-67453988D02*
X160184999Y-67415892D01*
X160184999Y-67415892D02*
X160337380Y-67377797D01*
X160337380Y-67377797D02*
X160413570Y-67339702D01*
X160413570Y-67339702D02*
X160451665Y-67301607D01*
X160451665Y-67301607D02*
X160489761Y-67225416D01*
X160489761Y-67225416D02*
X160489761Y-67149226D01*
X160489761Y-67149226D02*
X160451665Y-67073035D01*
X160451665Y-67073035D02*
X160413570Y-67034940D01*
X160413570Y-67034940D02*
X160337380Y-66996845D01*
X160337380Y-66996845D02*
X160146903Y-66996845D01*
X160146903Y-66996845D02*
X160032618Y-67034940D01*
X159232617Y-67720654D02*
X159270713Y-67758750D01*
X159270713Y-67758750D02*
X159384998Y-67796845D01*
X159384998Y-67796845D02*
X159461189Y-67796845D01*
X159461189Y-67796845D02*
X159575475Y-67758750D01*
X159575475Y-67758750D02*
X159651665Y-67682559D01*
X159651665Y-67682559D02*
X159689760Y-67606369D01*
X159689760Y-67606369D02*
X159727856Y-67453988D01*
X159727856Y-67453988D02*
X159727856Y-67339702D01*
X159727856Y-67339702D02*
X159689760Y-67187321D01*
X159689760Y-67187321D02*
X159651665Y-67111130D01*
X159651665Y-67111130D02*
X159575475Y-67034940D01*
X159575475Y-67034940D02*
X159461189Y-66996845D01*
X159461189Y-66996845D02*
X159384998Y-66996845D01*
X159384998Y-66996845D02*
X159270713Y-67034940D01*
X159270713Y-67034940D02*
X159232617Y-67073035D01*
X158889760Y-67796845D02*
X158889760Y-66996845D01*
X158432617Y-67796845D02*
X158775475Y-67339702D01*
X158432617Y-66996845D02*
X158889760Y-67453988D01*
X148774094Y-60106845D02*
X149040761Y-59725892D01*
X149231237Y-60106845D02*
X149231237Y-59306845D01*
X149231237Y-59306845D02*
X148926475Y-59306845D01*
X148926475Y-59306845D02*
X148850285Y-59344940D01*
X148850285Y-59344940D02*
X148812190Y-59383035D01*
X148812190Y-59383035D02*
X148774094Y-59459226D01*
X148774094Y-59459226D02*
X148774094Y-59573511D01*
X148774094Y-59573511D02*
X148812190Y-59649702D01*
X148812190Y-59649702D02*
X148850285Y-59687797D01*
X148850285Y-59687797D02*
X148926475Y-59725892D01*
X148926475Y-59725892D02*
X149231237Y-59725892D01*
X148469333Y-60068750D02*
X148355047Y-60106845D01*
X148355047Y-60106845D02*
X148164571Y-60106845D01*
X148164571Y-60106845D02*
X148088380Y-60068750D01*
X148088380Y-60068750D02*
X148050285Y-60030654D01*
X148050285Y-60030654D02*
X148012190Y-59954464D01*
X148012190Y-59954464D02*
X148012190Y-59878273D01*
X148012190Y-59878273D02*
X148050285Y-59802083D01*
X148050285Y-59802083D02*
X148088380Y-59763988D01*
X148088380Y-59763988D02*
X148164571Y-59725892D01*
X148164571Y-59725892D02*
X148316952Y-59687797D01*
X148316952Y-59687797D02*
X148393142Y-59649702D01*
X148393142Y-59649702D02*
X148431237Y-59611607D01*
X148431237Y-59611607D02*
X148469333Y-59535416D01*
X148469333Y-59535416D02*
X148469333Y-59459226D01*
X148469333Y-59459226D02*
X148431237Y-59383035D01*
X148431237Y-59383035D02*
X148393142Y-59344940D01*
X148393142Y-59344940D02*
X148316952Y-59306845D01*
X148316952Y-59306845D02*
X148126475Y-59306845D01*
X148126475Y-59306845D02*
X148012190Y-59344940D01*
X147783618Y-59306845D02*
X147326475Y-59306845D01*
X147555047Y-60106845D02*
X147555047Y-59306845D01*
X159994523Y-61884940D02*
X160070713Y-61846845D01*
X160070713Y-61846845D02*
X160184999Y-61846845D01*
X160184999Y-61846845D02*
X160299285Y-61884940D01*
X160299285Y-61884940D02*
X160375475Y-61961130D01*
X160375475Y-61961130D02*
X160413570Y-62037321D01*
X160413570Y-62037321D02*
X160451666Y-62189702D01*
X160451666Y-62189702D02*
X160451666Y-62303988D01*
X160451666Y-62303988D02*
X160413570Y-62456369D01*
X160413570Y-62456369D02*
X160375475Y-62532559D01*
X160375475Y-62532559D02*
X160299285Y-62608750D01*
X160299285Y-62608750D02*
X160184999Y-62646845D01*
X160184999Y-62646845D02*
X160108808Y-62646845D01*
X160108808Y-62646845D02*
X159994523Y-62608750D01*
X159994523Y-62608750D02*
X159956427Y-62570654D01*
X159956427Y-62570654D02*
X159956427Y-62303988D01*
X159956427Y-62303988D02*
X160108808Y-62303988D01*
X159613570Y-62646845D02*
X159613570Y-61846845D01*
X159613570Y-61846845D02*
X159156427Y-62646845D01*
X159156427Y-62646845D02*
X159156427Y-61846845D01*
X158775475Y-62646845D02*
X158775475Y-61846845D01*
X158775475Y-61846845D02*
X158584999Y-61846845D01*
X158584999Y-61846845D02*
X158470713Y-61884940D01*
X158470713Y-61884940D02*
X158394523Y-61961130D01*
X158394523Y-61961130D02*
X158356428Y-62037321D01*
X158356428Y-62037321D02*
X158318332Y-62189702D01*
X158318332Y-62189702D02*
X158318332Y-62303988D01*
X158318332Y-62303988D02*
X158356428Y-62456369D01*
X158356428Y-62456369D02*
X158394523Y-62532559D01*
X158394523Y-62532559D02*
X158470713Y-62608750D01*
X158470713Y-62608750D02*
X158584999Y-62646845D01*
X158584999Y-62646845D02*
X158775475Y-62646845D01*
%TO.C,D25*%
X166734285Y-105142619D02*
X166734285Y-104142619D01*
X166734285Y-104142619D02*
X166496190Y-104142619D01*
X166496190Y-104142619D02*
X166353333Y-104190238D01*
X166353333Y-104190238D02*
X166258095Y-104285476D01*
X166258095Y-104285476D02*
X166210476Y-104380714D01*
X166210476Y-104380714D02*
X166162857Y-104571190D01*
X166162857Y-104571190D02*
X166162857Y-104714047D01*
X166162857Y-104714047D02*
X166210476Y-104904523D01*
X166210476Y-104904523D02*
X166258095Y-104999761D01*
X166258095Y-104999761D02*
X166353333Y-105095000D01*
X166353333Y-105095000D02*
X166496190Y-105142619D01*
X166496190Y-105142619D02*
X166734285Y-105142619D01*
X165781904Y-104237857D02*
X165734285Y-104190238D01*
X165734285Y-104190238D02*
X165639047Y-104142619D01*
X165639047Y-104142619D02*
X165400952Y-104142619D01*
X165400952Y-104142619D02*
X165305714Y-104190238D01*
X165305714Y-104190238D02*
X165258095Y-104237857D01*
X165258095Y-104237857D02*
X165210476Y-104333095D01*
X165210476Y-104333095D02*
X165210476Y-104428333D01*
X165210476Y-104428333D02*
X165258095Y-104571190D01*
X165258095Y-104571190D02*
X165829523Y-105142619D01*
X165829523Y-105142619D02*
X165210476Y-105142619D01*
X164305714Y-104142619D02*
X164781904Y-104142619D01*
X164781904Y-104142619D02*
X164829523Y-104618809D01*
X164829523Y-104618809D02*
X164781904Y-104571190D01*
X164781904Y-104571190D02*
X164686666Y-104523571D01*
X164686666Y-104523571D02*
X164448571Y-104523571D01*
X164448571Y-104523571D02*
X164353333Y-104571190D01*
X164353333Y-104571190D02*
X164305714Y-104618809D01*
X164305714Y-104618809D02*
X164258095Y-104714047D01*
X164258095Y-104714047D02*
X164258095Y-104952142D01*
X164258095Y-104952142D02*
X164305714Y-105047380D01*
X164305714Y-105047380D02*
X164353333Y-105095000D01*
X164353333Y-105095000D02*
X164448571Y-105142619D01*
X164448571Y-105142619D02*
X164686666Y-105142619D01*
X164686666Y-105142619D02*
X164781904Y-105095000D01*
X164781904Y-105095000D02*
X164829523Y-105047380D01*
%TO.C,SW34*%
X171632381Y-100411619D02*
X171965714Y-99935428D01*
X172203809Y-100411619D02*
X172203809Y-99411619D01*
X172203809Y-99411619D02*
X171822857Y-99411619D01*
X171822857Y-99411619D02*
X171727619Y-99459238D01*
X171727619Y-99459238D02*
X171680000Y-99506857D01*
X171680000Y-99506857D02*
X171632381Y-99602095D01*
X171632381Y-99602095D02*
X171632381Y-99744952D01*
X171632381Y-99744952D02*
X171680000Y-99840190D01*
X171680000Y-99840190D02*
X171727619Y-99887809D01*
X171727619Y-99887809D02*
X171822857Y-99935428D01*
X171822857Y-99935428D02*
X172203809Y-99935428D01*
X171203809Y-99887809D02*
X170870476Y-99887809D01*
X170727619Y-100411619D02*
X171203809Y-100411619D01*
X171203809Y-100411619D02*
X171203809Y-99411619D01*
X171203809Y-99411619D02*
X170727619Y-99411619D01*
X170346666Y-100364000D02*
X170203809Y-100411619D01*
X170203809Y-100411619D02*
X169965714Y-100411619D01*
X169965714Y-100411619D02*
X169870476Y-100364000D01*
X169870476Y-100364000D02*
X169822857Y-100316380D01*
X169822857Y-100316380D02*
X169775238Y-100221142D01*
X169775238Y-100221142D02*
X169775238Y-100125904D01*
X169775238Y-100125904D02*
X169822857Y-100030666D01*
X169822857Y-100030666D02*
X169870476Y-99983047D01*
X169870476Y-99983047D02*
X169965714Y-99935428D01*
X169965714Y-99935428D02*
X170156190Y-99887809D01*
X170156190Y-99887809D02*
X170251428Y-99840190D01*
X170251428Y-99840190D02*
X170299047Y-99792571D01*
X170299047Y-99792571D02*
X170346666Y-99697333D01*
X170346666Y-99697333D02*
X170346666Y-99602095D01*
X170346666Y-99602095D02*
X170299047Y-99506857D01*
X170299047Y-99506857D02*
X170251428Y-99459238D01*
X170251428Y-99459238D02*
X170156190Y-99411619D01*
X170156190Y-99411619D02*
X169918095Y-99411619D01*
X169918095Y-99411619D02*
X169775238Y-99459238D01*
X169346666Y-99887809D02*
X169013333Y-99887809D01*
X168870476Y-100411619D02*
X169346666Y-100411619D01*
X169346666Y-100411619D02*
X169346666Y-99411619D01*
X169346666Y-99411619D02*
X168870476Y-99411619D01*
X168584761Y-99411619D02*
X168013333Y-99411619D01*
X168299047Y-100411619D02*
X168299047Y-99411619D01*
%TO.C,D38*%
X204812619Y-110165714D02*
X203812619Y-110165714D01*
X203812619Y-110165714D02*
X203812619Y-110403809D01*
X203812619Y-110403809D02*
X203860238Y-110546666D01*
X203860238Y-110546666D02*
X203955476Y-110641904D01*
X203955476Y-110641904D02*
X204050714Y-110689523D01*
X204050714Y-110689523D02*
X204241190Y-110737142D01*
X204241190Y-110737142D02*
X204384047Y-110737142D01*
X204384047Y-110737142D02*
X204574523Y-110689523D01*
X204574523Y-110689523D02*
X204669761Y-110641904D01*
X204669761Y-110641904D02*
X204765000Y-110546666D01*
X204765000Y-110546666D02*
X204812619Y-110403809D01*
X204812619Y-110403809D02*
X204812619Y-110165714D01*
X203812619Y-111070476D02*
X203812619Y-111689523D01*
X203812619Y-111689523D02*
X204193571Y-111356190D01*
X204193571Y-111356190D02*
X204193571Y-111499047D01*
X204193571Y-111499047D02*
X204241190Y-111594285D01*
X204241190Y-111594285D02*
X204288809Y-111641904D01*
X204288809Y-111641904D02*
X204384047Y-111689523D01*
X204384047Y-111689523D02*
X204622142Y-111689523D01*
X204622142Y-111689523D02*
X204717380Y-111641904D01*
X204717380Y-111641904D02*
X204765000Y-111594285D01*
X204765000Y-111594285D02*
X204812619Y-111499047D01*
X204812619Y-111499047D02*
X204812619Y-111213333D01*
X204812619Y-111213333D02*
X204765000Y-111118095D01*
X204765000Y-111118095D02*
X204717380Y-111070476D01*
X204241190Y-112260952D02*
X204193571Y-112165714D01*
X204193571Y-112165714D02*
X204145952Y-112118095D01*
X204145952Y-112118095D02*
X204050714Y-112070476D01*
X204050714Y-112070476D02*
X204003095Y-112070476D01*
X204003095Y-112070476D02*
X203907857Y-112118095D01*
X203907857Y-112118095D02*
X203860238Y-112165714D01*
X203860238Y-112165714D02*
X203812619Y-112260952D01*
X203812619Y-112260952D02*
X203812619Y-112451428D01*
X203812619Y-112451428D02*
X203860238Y-112546666D01*
X203860238Y-112546666D02*
X203907857Y-112594285D01*
X203907857Y-112594285D02*
X204003095Y-112641904D01*
X204003095Y-112641904D02*
X204050714Y-112641904D01*
X204050714Y-112641904D02*
X204145952Y-112594285D01*
X204145952Y-112594285D02*
X204193571Y-112546666D01*
X204193571Y-112546666D02*
X204241190Y-112451428D01*
X204241190Y-112451428D02*
X204241190Y-112260952D01*
X204241190Y-112260952D02*
X204288809Y-112165714D01*
X204288809Y-112165714D02*
X204336428Y-112118095D01*
X204336428Y-112118095D02*
X204431666Y-112070476D01*
X204431666Y-112070476D02*
X204622142Y-112070476D01*
X204622142Y-112070476D02*
X204717380Y-112118095D01*
X204717380Y-112118095D02*
X204765000Y-112165714D01*
X204765000Y-112165714D02*
X204812619Y-112260952D01*
X204812619Y-112260952D02*
X204812619Y-112451428D01*
X204812619Y-112451428D02*
X204765000Y-112546666D01*
X204765000Y-112546666D02*
X204717380Y-112594285D01*
X204717380Y-112594285D02*
X204622142Y-112641904D01*
X204622142Y-112641904D02*
X204431666Y-112641904D01*
X204431666Y-112641904D02*
X204336428Y-112594285D01*
X204336428Y-112594285D02*
X204288809Y-112546666D01*
X204288809Y-112546666D02*
X204241190Y-112451428D01*
%TO.C,D37*%
X187032619Y-115625714D02*
X186032619Y-115625714D01*
X186032619Y-115625714D02*
X186032619Y-115863809D01*
X186032619Y-115863809D02*
X186080238Y-116006666D01*
X186080238Y-116006666D02*
X186175476Y-116101904D01*
X186175476Y-116101904D02*
X186270714Y-116149523D01*
X186270714Y-116149523D02*
X186461190Y-116197142D01*
X186461190Y-116197142D02*
X186604047Y-116197142D01*
X186604047Y-116197142D02*
X186794523Y-116149523D01*
X186794523Y-116149523D02*
X186889761Y-116101904D01*
X186889761Y-116101904D02*
X186985000Y-116006666D01*
X186985000Y-116006666D02*
X187032619Y-115863809D01*
X187032619Y-115863809D02*
X187032619Y-115625714D01*
X186032619Y-116530476D02*
X186032619Y-117149523D01*
X186032619Y-117149523D02*
X186413571Y-116816190D01*
X186413571Y-116816190D02*
X186413571Y-116959047D01*
X186413571Y-116959047D02*
X186461190Y-117054285D01*
X186461190Y-117054285D02*
X186508809Y-117101904D01*
X186508809Y-117101904D02*
X186604047Y-117149523D01*
X186604047Y-117149523D02*
X186842142Y-117149523D01*
X186842142Y-117149523D02*
X186937380Y-117101904D01*
X186937380Y-117101904D02*
X186985000Y-117054285D01*
X186985000Y-117054285D02*
X187032619Y-116959047D01*
X187032619Y-116959047D02*
X187032619Y-116673333D01*
X187032619Y-116673333D02*
X186985000Y-116578095D01*
X186985000Y-116578095D02*
X186937380Y-116530476D01*
X186032619Y-117482857D02*
X186032619Y-118149523D01*
X186032619Y-118149523D02*
X187032619Y-117720952D01*
%TO.C,D36*%
X137502619Y-124135714D02*
X136502619Y-124135714D01*
X136502619Y-124135714D02*
X136502619Y-124373809D01*
X136502619Y-124373809D02*
X136550238Y-124516666D01*
X136550238Y-124516666D02*
X136645476Y-124611904D01*
X136645476Y-124611904D02*
X136740714Y-124659523D01*
X136740714Y-124659523D02*
X136931190Y-124707142D01*
X136931190Y-124707142D02*
X137074047Y-124707142D01*
X137074047Y-124707142D02*
X137264523Y-124659523D01*
X137264523Y-124659523D02*
X137359761Y-124611904D01*
X137359761Y-124611904D02*
X137455000Y-124516666D01*
X137455000Y-124516666D02*
X137502619Y-124373809D01*
X137502619Y-124373809D02*
X137502619Y-124135714D01*
X136502619Y-125040476D02*
X136502619Y-125659523D01*
X136502619Y-125659523D02*
X136883571Y-125326190D01*
X136883571Y-125326190D02*
X136883571Y-125469047D01*
X136883571Y-125469047D02*
X136931190Y-125564285D01*
X136931190Y-125564285D02*
X136978809Y-125611904D01*
X136978809Y-125611904D02*
X137074047Y-125659523D01*
X137074047Y-125659523D02*
X137312142Y-125659523D01*
X137312142Y-125659523D02*
X137407380Y-125611904D01*
X137407380Y-125611904D02*
X137455000Y-125564285D01*
X137455000Y-125564285D02*
X137502619Y-125469047D01*
X137502619Y-125469047D02*
X137502619Y-125183333D01*
X137502619Y-125183333D02*
X137455000Y-125088095D01*
X137455000Y-125088095D02*
X137407380Y-125040476D01*
X136502619Y-126516666D02*
X136502619Y-126326190D01*
X136502619Y-126326190D02*
X136550238Y-126230952D01*
X136550238Y-126230952D02*
X136597857Y-126183333D01*
X136597857Y-126183333D02*
X136740714Y-126088095D01*
X136740714Y-126088095D02*
X136931190Y-126040476D01*
X136931190Y-126040476D02*
X137312142Y-126040476D01*
X137312142Y-126040476D02*
X137407380Y-126088095D01*
X137407380Y-126088095D02*
X137455000Y-126135714D01*
X137455000Y-126135714D02*
X137502619Y-126230952D01*
X137502619Y-126230952D02*
X137502619Y-126421428D01*
X137502619Y-126421428D02*
X137455000Y-126516666D01*
X137455000Y-126516666D02*
X137407380Y-126564285D01*
X137407380Y-126564285D02*
X137312142Y-126611904D01*
X137312142Y-126611904D02*
X137074047Y-126611904D01*
X137074047Y-126611904D02*
X136978809Y-126564285D01*
X136978809Y-126564285D02*
X136931190Y-126516666D01*
X136931190Y-126516666D02*
X136883571Y-126421428D01*
X136883571Y-126421428D02*
X136883571Y-126230952D01*
X136883571Y-126230952D02*
X136931190Y-126135714D01*
X136931190Y-126135714D02*
X136978809Y-126088095D01*
X136978809Y-126088095D02*
X137074047Y-126040476D01*
%TO.C,D35*%
X122262619Y-113975714D02*
X121262619Y-113975714D01*
X121262619Y-113975714D02*
X121262619Y-114213809D01*
X121262619Y-114213809D02*
X121310238Y-114356666D01*
X121310238Y-114356666D02*
X121405476Y-114451904D01*
X121405476Y-114451904D02*
X121500714Y-114499523D01*
X121500714Y-114499523D02*
X121691190Y-114547142D01*
X121691190Y-114547142D02*
X121834047Y-114547142D01*
X121834047Y-114547142D02*
X122024523Y-114499523D01*
X122024523Y-114499523D02*
X122119761Y-114451904D01*
X122119761Y-114451904D02*
X122215000Y-114356666D01*
X122215000Y-114356666D02*
X122262619Y-114213809D01*
X122262619Y-114213809D02*
X122262619Y-113975714D01*
X121262619Y-114880476D02*
X121262619Y-115499523D01*
X121262619Y-115499523D02*
X121643571Y-115166190D01*
X121643571Y-115166190D02*
X121643571Y-115309047D01*
X121643571Y-115309047D02*
X121691190Y-115404285D01*
X121691190Y-115404285D02*
X121738809Y-115451904D01*
X121738809Y-115451904D02*
X121834047Y-115499523D01*
X121834047Y-115499523D02*
X122072142Y-115499523D01*
X122072142Y-115499523D02*
X122167380Y-115451904D01*
X122167380Y-115451904D02*
X122215000Y-115404285D01*
X122215000Y-115404285D02*
X122262619Y-115309047D01*
X122262619Y-115309047D02*
X122262619Y-115023333D01*
X122262619Y-115023333D02*
X122215000Y-114928095D01*
X122215000Y-114928095D02*
X122167380Y-114880476D01*
X121262619Y-116404285D02*
X121262619Y-115928095D01*
X121262619Y-115928095D02*
X121738809Y-115880476D01*
X121738809Y-115880476D02*
X121691190Y-115928095D01*
X121691190Y-115928095D02*
X121643571Y-116023333D01*
X121643571Y-116023333D02*
X121643571Y-116261428D01*
X121643571Y-116261428D02*
X121691190Y-116356666D01*
X121691190Y-116356666D02*
X121738809Y-116404285D01*
X121738809Y-116404285D02*
X121834047Y-116451904D01*
X121834047Y-116451904D02*
X122072142Y-116451904D01*
X122072142Y-116451904D02*
X122167380Y-116404285D01*
X122167380Y-116404285D02*
X122215000Y-116356666D01*
X122215000Y-116356666D02*
X122262619Y-116261428D01*
X122262619Y-116261428D02*
X122262619Y-116023333D01*
X122262619Y-116023333D02*
X122215000Y-115928095D01*
X122215000Y-115928095D02*
X122167380Y-115880476D01*
%TO.C,D31*%
X188302619Y-59745714D02*
X187302619Y-59745714D01*
X187302619Y-59745714D02*
X187302619Y-59983809D01*
X187302619Y-59983809D02*
X187350238Y-60126666D01*
X187350238Y-60126666D02*
X187445476Y-60221904D01*
X187445476Y-60221904D02*
X187540714Y-60269523D01*
X187540714Y-60269523D02*
X187731190Y-60317142D01*
X187731190Y-60317142D02*
X187874047Y-60317142D01*
X187874047Y-60317142D02*
X188064523Y-60269523D01*
X188064523Y-60269523D02*
X188159761Y-60221904D01*
X188159761Y-60221904D02*
X188255000Y-60126666D01*
X188255000Y-60126666D02*
X188302619Y-59983809D01*
X188302619Y-59983809D02*
X188302619Y-59745714D01*
X187302619Y-60650476D02*
X187302619Y-61269523D01*
X187302619Y-61269523D02*
X187683571Y-60936190D01*
X187683571Y-60936190D02*
X187683571Y-61079047D01*
X187683571Y-61079047D02*
X187731190Y-61174285D01*
X187731190Y-61174285D02*
X187778809Y-61221904D01*
X187778809Y-61221904D02*
X187874047Y-61269523D01*
X187874047Y-61269523D02*
X188112142Y-61269523D01*
X188112142Y-61269523D02*
X188207380Y-61221904D01*
X188207380Y-61221904D02*
X188255000Y-61174285D01*
X188255000Y-61174285D02*
X188302619Y-61079047D01*
X188302619Y-61079047D02*
X188302619Y-60793333D01*
X188302619Y-60793333D02*
X188255000Y-60698095D01*
X188255000Y-60698095D02*
X188207380Y-60650476D01*
X188302619Y-62221904D02*
X188302619Y-61650476D01*
X188302619Y-61936190D02*
X187302619Y-61936190D01*
X187302619Y-61936190D02*
X187445476Y-61840952D01*
X187445476Y-61840952D02*
X187540714Y-61745714D01*
X187540714Y-61745714D02*
X187588333Y-61650476D01*
%TO.C,D30*%
X192112619Y-74985714D02*
X191112619Y-74985714D01*
X191112619Y-74985714D02*
X191112619Y-75223809D01*
X191112619Y-75223809D02*
X191160238Y-75366666D01*
X191160238Y-75366666D02*
X191255476Y-75461904D01*
X191255476Y-75461904D02*
X191350714Y-75509523D01*
X191350714Y-75509523D02*
X191541190Y-75557142D01*
X191541190Y-75557142D02*
X191684047Y-75557142D01*
X191684047Y-75557142D02*
X191874523Y-75509523D01*
X191874523Y-75509523D02*
X191969761Y-75461904D01*
X191969761Y-75461904D02*
X192065000Y-75366666D01*
X192065000Y-75366666D02*
X192112619Y-75223809D01*
X192112619Y-75223809D02*
X192112619Y-74985714D01*
X191112619Y-75890476D02*
X191112619Y-76509523D01*
X191112619Y-76509523D02*
X191493571Y-76176190D01*
X191493571Y-76176190D02*
X191493571Y-76319047D01*
X191493571Y-76319047D02*
X191541190Y-76414285D01*
X191541190Y-76414285D02*
X191588809Y-76461904D01*
X191588809Y-76461904D02*
X191684047Y-76509523D01*
X191684047Y-76509523D02*
X191922142Y-76509523D01*
X191922142Y-76509523D02*
X192017380Y-76461904D01*
X192017380Y-76461904D02*
X192065000Y-76414285D01*
X192065000Y-76414285D02*
X192112619Y-76319047D01*
X192112619Y-76319047D02*
X192112619Y-76033333D01*
X192112619Y-76033333D02*
X192065000Y-75938095D01*
X192065000Y-75938095D02*
X192017380Y-75890476D01*
X191112619Y-77128571D02*
X191112619Y-77223809D01*
X191112619Y-77223809D02*
X191160238Y-77319047D01*
X191160238Y-77319047D02*
X191207857Y-77366666D01*
X191207857Y-77366666D02*
X191303095Y-77414285D01*
X191303095Y-77414285D02*
X191493571Y-77461904D01*
X191493571Y-77461904D02*
X191731666Y-77461904D01*
X191731666Y-77461904D02*
X191922142Y-77414285D01*
X191922142Y-77414285D02*
X192017380Y-77366666D01*
X192017380Y-77366666D02*
X192065000Y-77319047D01*
X192065000Y-77319047D02*
X192112619Y-77223809D01*
X192112619Y-77223809D02*
X192112619Y-77128571D01*
X192112619Y-77128571D02*
X192065000Y-77033333D01*
X192065000Y-77033333D02*
X192017380Y-76985714D01*
X192017380Y-76985714D02*
X191922142Y-76938095D01*
X191922142Y-76938095D02*
X191731666Y-76890476D01*
X191731666Y-76890476D02*
X191493571Y-76890476D01*
X191493571Y-76890476D02*
X191303095Y-76938095D01*
X191303095Y-76938095D02*
X191207857Y-76985714D01*
X191207857Y-76985714D02*
X191160238Y-77033333D01*
X191160238Y-77033333D02*
X191112619Y-77128571D01*
%TO.C,D29*%
X197192619Y-91495714D02*
X196192619Y-91495714D01*
X196192619Y-91495714D02*
X196192619Y-91733809D01*
X196192619Y-91733809D02*
X196240238Y-91876666D01*
X196240238Y-91876666D02*
X196335476Y-91971904D01*
X196335476Y-91971904D02*
X196430714Y-92019523D01*
X196430714Y-92019523D02*
X196621190Y-92067142D01*
X196621190Y-92067142D02*
X196764047Y-92067142D01*
X196764047Y-92067142D02*
X196954523Y-92019523D01*
X196954523Y-92019523D02*
X197049761Y-91971904D01*
X197049761Y-91971904D02*
X197145000Y-91876666D01*
X197145000Y-91876666D02*
X197192619Y-91733809D01*
X197192619Y-91733809D02*
X197192619Y-91495714D01*
X196287857Y-92448095D02*
X196240238Y-92495714D01*
X196240238Y-92495714D02*
X196192619Y-92590952D01*
X196192619Y-92590952D02*
X196192619Y-92829047D01*
X196192619Y-92829047D02*
X196240238Y-92924285D01*
X196240238Y-92924285D02*
X196287857Y-92971904D01*
X196287857Y-92971904D02*
X196383095Y-93019523D01*
X196383095Y-93019523D02*
X196478333Y-93019523D01*
X196478333Y-93019523D02*
X196621190Y-92971904D01*
X196621190Y-92971904D02*
X197192619Y-92400476D01*
X197192619Y-92400476D02*
X197192619Y-93019523D01*
X197192619Y-93495714D02*
X197192619Y-93686190D01*
X197192619Y-93686190D02*
X197145000Y-93781428D01*
X197145000Y-93781428D02*
X197097380Y-93829047D01*
X197097380Y-93829047D02*
X196954523Y-93924285D01*
X196954523Y-93924285D02*
X196764047Y-93971904D01*
X196764047Y-93971904D02*
X196383095Y-93971904D01*
X196383095Y-93971904D02*
X196287857Y-93924285D01*
X196287857Y-93924285D02*
X196240238Y-93876666D01*
X196240238Y-93876666D02*
X196192619Y-93781428D01*
X196192619Y-93781428D02*
X196192619Y-93590952D01*
X196192619Y-93590952D02*
X196240238Y-93495714D01*
X196240238Y-93495714D02*
X196287857Y-93448095D01*
X196287857Y-93448095D02*
X196383095Y-93400476D01*
X196383095Y-93400476D02*
X196621190Y-93400476D01*
X196621190Y-93400476D02*
X196716428Y-93448095D01*
X196716428Y-93448095D02*
X196764047Y-93495714D01*
X196764047Y-93495714D02*
X196811666Y-93590952D01*
X196811666Y-93590952D02*
X196811666Y-93781428D01*
X196811666Y-93781428D02*
X196764047Y-93876666D01*
X196764047Y-93876666D02*
X196716428Y-93924285D01*
X196716428Y-93924285D02*
X196621190Y-93971904D01*
%TO.C,D28*%
X132422619Y-97465714D02*
X131422619Y-97465714D01*
X131422619Y-97465714D02*
X131422619Y-97703809D01*
X131422619Y-97703809D02*
X131470238Y-97846666D01*
X131470238Y-97846666D02*
X131565476Y-97941904D01*
X131565476Y-97941904D02*
X131660714Y-97989523D01*
X131660714Y-97989523D02*
X131851190Y-98037142D01*
X131851190Y-98037142D02*
X131994047Y-98037142D01*
X131994047Y-98037142D02*
X132184523Y-97989523D01*
X132184523Y-97989523D02*
X132279761Y-97941904D01*
X132279761Y-97941904D02*
X132375000Y-97846666D01*
X132375000Y-97846666D02*
X132422619Y-97703809D01*
X132422619Y-97703809D02*
X132422619Y-97465714D01*
X131517857Y-98418095D02*
X131470238Y-98465714D01*
X131470238Y-98465714D02*
X131422619Y-98560952D01*
X131422619Y-98560952D02*
X131422619Y-98799047D01*
X131422619Y-98799047D02*
X131470238Y-98894285D01*
X131470238Y-98894285D02*
X131517857Y-98941904D01*
X131517857Y-98941904D02*
X131613095Y-98989523D01*
X131613095Y-98989523D02*
X131708333Y-98989523D01*
X131708333Y-98989523D02*
X131851190Y-98941904D01*
X131851190Y-98941904D02*
X132422619Y-98370476D01*
X132422619Y-98370476D02*
X132422619Y-98989523D01*
X131851190Y-99560952D02*
X131803571Y-99465714D01*
X131803571Y-99465714D02*
X131755952Y-99418095D01*
X131755952Y-99418095D02*
X131660714Y-99370476D01*
X131660714Y-99370476D02*
X131613095Y-99370476D01*
X131613095Y-99370476D02*
X131517857Y-99418095D01*
X131517857Y-99418095D02*
X131470238Y-99465714D01*
X131470238Y-99465714D02*
X131422619Y-99560952D01*
X131422619Y-99560952D02*
X131422619Y-99751428D01*
X131422619Y-99751428D02*
X131470238Y-99846666D01*
X131470238Y-99846666D02*
X131517857Y-99894285D01*
X131517857Y-99894285D02*
X131613095Y-99941904D01*
X131613095Y-99941904D02*
X131660714Y-99941904D01*
X131660714Y-99941904D02*
X131755952Y-99894285D01*
X131755952Y-99894285D02*
X131803571Y-99846666D01*
X131803571Y-99846666D02*
X131851190Y-99751428D01*
X131851190Y-99751428D02*
X131851190Y-99560952D01*
X131851190Y-99560952D02*
X131898809Y-99465714D01*
X131898809Y-99465714D02*
X131946428Y-99418095D01*
X131946428Y-99418095D02*
X132041666Y-99370476D01*
X132041666Y-99370476D02*
X132232142Y-99370476D01*
X132232142Y-99370476D02*
X132327380Y-99418095D01*
X132327380Y-99418095D02*
X132375000Y-99465714D01*
X132375000Y-99465714D02*
X132422619Y-99560952D01*
X132422619Y-99560952D02*
X132422619Y-99751428D01*
X132422619Y-99751428D02*
X132375000Y-99846666D01*
X132375000Y-99846666D02*
X132327380Y-99894285D01*
X132327380Y-99894285D02*
X132232142Y-99941904D01*
X132232142Y-99941904D02*
X132041666Y-99941904D01*
X132041666Y-99941904D02*
X131946428Y-99894285D01*
X131946428Y-99894285D02*
X131898809Y-99846666D01*
X131898809Y-99846666D02*
X131851190Y-99751428D01*
%TO.C,D27*%
X136232619Y-81335714D02*
X135232619Y-81335714D01*
X135232619Y-81335714D02*
X135232619Y-81573809D01*
X135232619Y-81573809D02*
X135280238Y-81716666D01*
X135280238Y-81716666D02*
X135375476Y-81811904D01*
X135375476Y-81811904D02*
X135470714Y-81859523D01*
X135470714Y-81859523D02*
X135661190Y-81907142D01*
X135661190Y-81907142D02*
X135804047Y-81907142D01*
X135804047Y-81907142D02*
X135994523Y-81859523D01*
X135994523Y-81859523D02*
X136089761Y-81811904D01*
X136089761Y-81811904D02*
X136185000Y-81716666D01*
X136185000Y-81716666D02*
X136232619Y-81573809D01*
X136232619Y-81573809D02*
X136232619Y-81335714D01*
X135327857Y-82288095D02*
X135280238Y-82335714D01*
X135280238Y-82335714D02*
X135232619Y-82430952D01*
X135232619Y-82430952D02*
X135232619Y-82669047D01*
X135232619Y-82669047D02*
X135280238Y-82764285D01*
X135280238Y-82764285D02*
X135327857Y-82811904D01*
X135327857Y-82811904D02*
X135423095Y-82859523D01*
X135423095Y-82859523D02*
X135518333Y-82859523D01*
X135518333Y-82859523D02*
X135661190Y-82811904D01*
X135661190Y-82811904D02*
X136232619Y-82240476D01*
X136232619Y-82240476D02*
X136232619Y-82859523D01*
X135232619Y-83192857D02*
X135232619Y-83859523D01*
X135232619Y-83859523D02*
X136232619Y-83430952D01*
%TO.C,D26*%
X140042619Y-64445714D02*
X139042619Y-64445714D01*
X139042619Y-64445714D02*
X139042619Y-64683809D01*
X139042619Y-64683809D02*
X139090238Y-64826666D01*
X139090238Y-64826666D02*
X139185476Y-64921904D01*
X139185476Y-64921904D02*
X139280714Y-64969523D01*
X139280714Y-64969523D02*
X139471190Y-65017142D01*
X139471190Y-65017142D02*
X139614047Y-65017142D01*
X139614047Y-65017142D02*
X139804523Y-64969523D01*
X139804523Y-64969523D02*
X139899761Y-64921904D01*
X139899761Y-64921904D02*
X139995000Y-64826666D01*
X139995000Y-64826666D02*
X140042619Y-64683809D01*
X140042619Y-64683809D02*
X140042619Y-64445714D01*
X139137857Y-65398095D02*
X139090238Y-65445714D01*
X139090238Y-65445714D02*
X139042619Y-65540952D01*
X139042619Y-65540952D02*
X139042619Y-65779047D01*
X139042619Y-65779047D02*
X139090238Y-65874285D01*
X139090238Y-65874285D02*
X139137857Y-65921904D01*
X139137857Y-65921904D02*
X139233095Y-65969523D01*
X139233095Y-65969523D02*
X139328333Y-65969523D01*
X139328333Y-65969523D02*
X139471190Y-65921904D01*
X139471190Y-65921904D02*
X140042619Y-65350476D01*
X140042619Y-65350476D02*
X140042619Y-65969523D01*
X139042619Y-66826666D02*
X139042619Y-66636190D01*
X139042619Y-66636190D02*
X139090238Y-66540952D01*
X139090238Y-66540952D02*
X139137857Y-66493333D01*
X139137857Y-66493333D02*
X139280714Y-66398095D01*
X139280714Y-66398095D02*
X139471190Y-66350476D01*
X139471190Y-66350476D02*
X139852142Y-66350476D01*
X139852142Y-66350476D02*
X139947380Y-66398095D01*
X139947380Y-66398095D02*
X139995000Y-66445714D01*
X139995000Y-66445714D02*
X140042619Y-66540952D01*
X140042619Y-66540952D02*
X140042619Y-66731428D01*
X140042619Y-66731428D02*
X139995000Y-66826666D01*
X139995000Y-66826666D02*
X139947380Y-66874285D01*
X139947380Y-66874285D02*
X139852142Y-66921904D01*
X139852142Y-66921904D02*
X139614047Y-66921904D01*
X139614047Y-66921904D02*
X139518809Y-66874285D01*
X139518809Y-66874285D02*
X139471190Y-66826666D01*
X139471190Y-66826666D02*
X139423571Y-66731428D01*
X139423571Y-66731428D02*
X139423571Y-66540952D01*
X139423571Y-66540952D02*
X139471190Y-66445714D01*
X139471190Y-66445714D02*
X139518809Y-66398095D01*
X139518809Y-66398095D02*
X139614047Y-66350476D01*
%TO.C,D24*%
X268312619Y-87685714D02*
X267312619Y-87685714D01*
X267312619Y-87685714D02*
X267312619Y-87923809D01*
X267312619Y-87923809D02*
X267360238Y-88066666D01*
X267360238Y-88066666D02*
X267455476Y-88161904D01*
X267455476Y-88161904D02*
X267550714Y-88209523D01*
X267550714Y-88209523D02*
X267741190Y-88257142D01*
X267741190Y-88257142D02*
X267884047Y-88257142D01*
X267884047Y-88257142D02*
X268074523Y-88209523D01*
X268074523Y-88209523D02*
X268169761Y-88161904D01*
X268169761Y-88161904D02*
X268265000Y-88066666D01*
X268265000Y-88066666D02*
X268312619Y-87923809D01*
X268312619Y-87923809D02*
X268312619Y-87685714D01*
X267407857Y-88638095D02*
X267360238Y-88685714D01*
X267360238Y-88685714D02*
X267312619Y-88780952D01*
X267312619Y-88780952D02*
X267312619Y-89019047D01*
X267312619Y-89019047D02*
X267360238Y-89114285D01*
X267360238Y-89114285D02*
X267407857Y-89161904D01*
X267407857Y-89161904D02*
X267503095Y-89209523D01*
X267503095Y-89209523D02*
X267598333Y-89209523D01*
X267598333Y-89209523D02*
X267741190Y-89161904D01*
X267741190Y-89161904D02*
X268312619Y-88590476D01*
X268312619Y-88590476D02*
X268312619Y-89209523D01*
X267645952Y-90066666D02*
X268312619Y-90066666D01*
X267265000Y-89828571D02*
X267979285Y-89590476D01*
X267979285Y-89590476D02*
X267979285Y-90209523D01*
%TO.C,D23*%
X249262619Y-76255714D02*
X248262619Y-76255714D01*
X248262619Y-76255714D02*
X248262619Y-76493809D01*
X248262619Y-76493809D02*
X248310238Y-76636666D01*
X248310238Y-76636666D02*
X248405476Y-76731904D01*
X248405476Y-76731904D02*
X248500714Y-76779523D01*
X248500714Y-76779523D02*
X248691190Y-76827142D01*
X248691190Y-76827142D02*
X248834047Y-76827142D01*
X248834047Y-76827142D02*
X249024523Y-76779523D01*
X249024523Y-76779523D02*
X249119761Y-76731904D01*
X249119761Y-76731904D02*
X249215000Y-76636666D01*
X249215000Y-76636666D02*
X249262619Y-76493809D01*
X249262619Y-76493809D02*
X249262619Y-76255714D01*
X248357857Y-77208095D02*
X248310238Y-77255714D01*
X248310238Y-77255714D02*
X248262619Y-77350952D01*
X248262619Y-77350952D02*
X248262619Y-77589047D01*
X248262619Y-77589047D02*
X248310238Y-77684285D01*
X248310238Y-77684285D02*
X248357857Y-77731904D01*
X248357857Y-77731904D02*
X248453095Y-77779523D01*
X248453095Y-77779523D02*
X248548333Y-77779523D01*
X248548333Y-77779523D02*
X248691190Y-77731904D01*
X248691190Y-77731904D02*
X249262619Y-77160476D01*
X249262619Y-77160476D02*
X249262619Y-77779523D01*
X248262619Y-78112857D02*
X248262619Y-78731904D01*
X248262619Y-78731904D02*
X248643571Y-78398571D01*
X248643571Y-78398571D02*
X248643571Y-78541428D01*
X248643571Y-78541428D02*
X248691190Y-78636666D01*
X248691190Y-78636666D02*
X248738809Y-78684285D01*
X248738809Y-78684285D02*
X248834047Y-78731904D01*
X248834047Y-78731904D02*
X249072142Y-78731904D01*
X249072142Y-78731904D02*
X249167380Y-78684285D01*
X249167380Y-78684285D02*
X249215000Y-78636666D01*
X249215000Y-78636666D02*
X249262619Y-78541428D01*
X249262619Y-78541428D02*
X249262619Y-78255714D01*
X249262619Y-78255714D02*
X249215000Y-78160476D01*
X249215000Y-78160476D02*
X249167380Y-78112857D01*
%TO.C,D22*%
X228942619Y-76255714D02*
X227942619Y-76255714D01*
X227942619Y-76255714D02*
X227942619Y-76493809D01*
X227942619Y-76493809D02*
X227990238Y-76636666D01*
X227990238Y-76636666D02*
X228085476Y-76731904D01*
X228085476Y-76731904D02*
X228180714Y-76779523D01*
X228180714Y-76779523D02*
X228371190Y-76827142D01*
X228371190Y-76827142D02*
X228514047Y-76827142D01*
X228514047Y-76827142D02*
X228704523Y-76779523D01*
X228704523Y-76779523D02*
X228799761Y-76731904D01*
X228799761Y-76731904D02*
X228895000Y-76636666D01*
X228895000Y-76636666D02*
X228942619Y-76493809D01*
X228942619Y-76493809D02*
X228942619Y-76255714D01*
X228037857Y-77208095D02*
X227990238Y-77255714D01*
X227990238Y-77255714D02*
X227942619Y-77350952D01*
X227942619Y-77350952D02*
X227942619Y-77589047D01*
X227942619Y-77589047D02*
X227990238Y-77684285D01*
X227990238Y-77684285D02*
X228037857Y-77731904D01*
X228037857Y-77731904D02*
X228133095Y-77779523D01*
X228133095Y-77779523D02*
X228228333Y-77779523D01*
X228228333Y-77779523D02*
X228371190Y-77731904D01*
X228371190Y-77731904D02*
X228942619Y-77160476D01*
X228942619Y-77160476D02*
X228942619Y-77779523D01*
X228037857Y-78160476D02*
X227990238Y-78208095D01*
X227990238Y-78208095D02*
X227942619Y-78303333D01*
X227942619Y-78303333D02*
X227942619Y-78541428D01*
X227942619Y-78541428D02*
X227990238Y-78636666D01*
X227990238Y-78636666D02*
X228037857Y-78684285D01*
X228037857Y-78684285D02*
X228133095Y-78731904D01*
X228133095Y-78731904D02*
X228228333Y-78731904D01*
X228228333Y-78731904D02*
X228371190Y-78684285D01*
X228371190Y-78684285D02*
X228942619Y-78112857D01*
X228942619Y-78112857D02*
X228942619Y-78731904D01*
%TO.C,D21*%
X213702619Y-83875714D02*
X212702619Y-83875714D01*
X212702619Y-83875714D02*
X212702619Y-84113809D01*
X212702619Y-84113809D02*
X212750238Y-84256666D01*
X212750238Y-84256666D02*
X212845476Y-84351904D01*
X212845476Y-84351904D02*
X212940714Y-84399523D01*
X212940714Y-84399523D02*
X213131190Y-84447142D01*
X213131190Y-84447142D02*
X213274047Y-84447142D01*
X213274047Y-84447142D02*
X213464523Y-84399523D01*
X213464523Y-84399523D02*
X213559761Y-84351904D01*
X213559761Y-84351904D02*
X213655000Y-84256666D01*
X213655000Y-84256666D02*
X213702619Y-84113809D01*
X213702619Y-84113809D02*
X213702619Y-83875714D01*
X212797857Y-84828095D02*
X212750238Y-84875714D01*
X212750238Y-84875714D02*
X212702619Y-84970952D01*
X212702619Y-84970952D02*
X212702619Y-85209047D01*
X212702619Y-85209047D02*
X212750238Y-85304285D01*
X212750238Y-85304285D02*
X212797857Y-85351904D01*
X212797857Y-85351904D02*
X212893095Y-85399523D01*
X212893095Y-85399523D02*
X212988333Y-85399523D01*
X212988333Y-85399523D02*
X213131190Y-85351904D01*
X213131190Y-85351904D02*
X213702619Y-84780476D01*
X213702619Y-84780476D02*
X213702619Y-85399523D01*
X213702619Y-86351904D02*
X213702619Y-85780476D01*
X213702619Y-86066190D02*
X212702619Y-86066190D01*
X212702619Y-86066190D02*
X212845476Y-85970952D01*
X212845476Y-85970952D02*
X212940714Y-85875714D01*
X212940714Y-85875714D02*
X212988333Y-85780476D01*
%TO.C,D20*%
X114642619Y-88955714D02*
X113642619Y-88955714D01*
X113642619Y-88955714D02*
X113642619Y-89193809D01*
X113642619Y-89193809D02*
X113690238Y-89336666D01*
X113690238Y-89336666D02*
X113785476Y-89431904D01*
X113785476Y-89431904D02*
X113880714Y-89479523D01*
X113880714Y-89479523D02*
X114071190Y-89527142D01*
X114071190Y-89527142D02*
X114214047Y-89527142D01*
X114214047Y-89527142D02*
X114404523Y-89479523D01*
X114404523Y-89479523D02*
X114499761Y-89431904D01*
X114499761Y-89431904D02*
X114595000Y-89336666D01*
X114595000Y-89336666D02*
X114642619Y-89193809D01*
X114642619Y-89193809D02*
X114642619Y-88955714D01*
X113737857Y-89908095D02*
X113690238Y-89955714D01*
X113690238Y-89955714D02*
X113642619Y-90050952D01*
X113642619Y-90050952D02*
X113642619Y-90289047D01*
X113642619Y-90289047D02*
X113690238Y-90384285D01*
X113690238Y-90384285D02*
X113737857Y-90431904D01*
X113737857Y-90431904D02*
X113833095Y-90479523D01*
X113833095Y-90479523D02*
X113928333Y-90479523D01*
X113928333Y-90479523D02*
X114071190Y-90431904D01*
X114071190Y-90431904D02*
X114642619Y-89860476D01*
X114642619Y-89860476D02*
X114642619Y-90479523D01*
X113642619Y-91098571D02*
X113642619Y-91193809D01*
X113642619Y-91193809D02*
X113690238Y-91289047D01*
X113690238Y-91289047D02*
X113737857Y-91336666D01*
X113737857Y-91336666D02*
X113833095Y-91384285D01*
X113833095Y-91384285D02*
X114023571Y-91431904D01*
X114023571Y-91431904D02*
X114261666Y-91431904D01*
X114261666Y-91431904D02*
X114452142Y-91384285D01*
X114452142Y-91384285D02*
X114547380Y-91336666D01*
X114547380Y-91336666D02*
X114595000Y-91289047D01*
X114595000Y-91289047D02*
X114642619Y-91193809D01*
X114642619Y-91193809D02*
X114642619Y-91098571D01*
X114642619Y-91098571D02*
X114595000Y-91003333D01*
X114595000Y-91003333D02*
X114547380Y-90955714D01*
X114547380Y-90955714D02*
X114452142Y-90908095D01*
X114452142Y-90908095D02*
X114261666Y-90860476D01*
X114261666Y-90860476D02*
X114023571Y-90860476D01*
X114023571Y-90860476D02*
X113833095Y-90908095D01*
X113833095Y-90908095D02*
X113737857Y-90955714D01*
X113737857Y-90955714D02*
X113690238Y-91003333D01*
X113690238Y-91003333D02*
X113642619Y-91098571D01*
%TO.C,D19*%
X98132619Y-78795714D02*
X97132619Y-78795714D01*
X97132619Y-78795714D02*
X97132619Y-79033809D01*
X97132619Y-79033809D02*
X97180238Y-79176666D01*
X97180238Y-79176666D02*
X97275476Y-79271904D01*
X97275476Y-79271904D02*
X97370714Y-79319523D01*
X97370714Y-79319523D02*
X97561190Y-79367142D01*
X97561190Y-79367142D02*
X97704047Y-79367142D01*
X97704047Y-79367142D02*
X97894523Y-79319523D01*
X97894523Y-79319523D02*
X97989761Y-79271904D01*
X97989761Y-79271904D02*
X98085000Y-79176666D01*
X98085000Y-79176666D02*
X98132619Y-79033809D01*
X98132619Y-79033809D02*
X98132619Y-78795714D01*
X98132619Y-80319523D02*
X98132619Y-79748095D01*
X98132619Y-80033809D02*
X97132619Y-80033809D01*
X97132619Y-80033809D02*
X97275476Y-79938571D01*
X97275476Y-79938571D02*
X97370714Y-79843333D01*
X97370714Y-79843333D02*
X97418333Y-79748095D01*
X98132619Y-80795714D02*
X98132619Y-80986190D01*
X98132619Y-80986190D02*
X98085000Y-81081428D01*
X98085000Y-81081428D02*
X98037380Y-81129047D01*
X98037380Y-81129047D02*
X97894523Y-81224285D01*
X97894523Y-81224285D02*
X97704047Y-81271904D01*
X97704047Y-81271904D02*
X97323095Y-81271904D01*
X97323095Y-81271904D02*
X97227857Y-81224285D01*
X97227857Y-81224285D02*
X97180238Y-81176666D01*
X97180238Y-81176666D02*
X97132619Y-81081428D01*
X97132619Y-81081428D02*
X97132619Y-80890952D01*
X97132619Y-80890952D02*
X97180238Y-80795714D01*
X97180238Y-80795714D02*
X97227857Y-80748095D01*
X97227857Y-80748095D02*
X97323095Y-80700476D01*
X97323095Y-80700476D02*
X97561190Y-80700476D01*
X97561190Y-80700476D02*
X97656428Y-80748095D01*
X97656428Y-80748095D02*
X97704047Y-80795714D01*
X97704047Y-80795714D02*
X97751666Y-80890952D01*
X97751666Y-80890952D02*
X97751666Y-81081428D01*
X97751666Y-81081428D02*
X97704047Y-81176666D01*
X97704047Y-81176666D02*
X97656428Y-81224285D01*
X97656428Y-81224285D02*
X97561190Y-81271904D01*
%TO.C,D18*%
X77812619Y-79685714D02*
X76812619Y-79685714D01*
X76812619Y-79685714D02*
X76812619Y-79923809D01*
X76812619Y-79923809D02*
X76860238Y-80066666D01*
X76860238Y-80066666D02*
X76955476Y-80161904D01*
X76955476Y-80161904D02*
X77050714Y-80209523D01*
X77050714Y-80209523D02*
X77241190Y-80257142D01*
X77241190Y-80257142D02*
X77384047Y-80257142D01*
X77384047Y-80257142D02*
X77574523Y-80209523D01*
X77574523Y-80209523D02*
X77669761Y-80161904D01*
X77669761Y-80161904D02*
X77765000Y-80066666D01*
X77765000Y-80066666D02*
X77812619Y-79923809D01*
X77812619Y-79923809D02*
X77812619Y-79685714D01*
X77812619Y-81209523D02*
X77812619Y-80638095D01*
X77812619Y-80923809D02*
X76812619Y-80923809D01*
X76812619Y-80923809D02*
X76955476Y-80828571D01*
X76955476Y-80828571D02*
X77050714Y-80733333D01*
X77050714Y-80733333D02*
X77098333Y-80638095D01*
X77241190Y-81780952D02*
X77193571Y-81685714D01*
X77193571Y-81685714D02*
X77145952Y-81638095D01*
X77145952Y-81638095D02*
X77050714Y-81590476D01*
X77050714Y-81590476D02*
X77003095Y-81590476D01*
X77003095Y-81590476D02*
X76907857Y-81638095D01*
X76907857Y-81638095D02*
X76860238Y-81685714D01*
X76860238Y-81685714D02*
X76812619Y-81780952D01*
X76812619Y-81780952D02*
X76812619Y-81971428D01*
X76812619Y-81971428D02*
X76860238Y-82066666D01*
X76860238Y-82066666D02*
X76907857Y-82114285D01*
X76907857Y-82114285D02*
X77003095Y-82161904D01*
X77003095Y-82161904D02*
X77050714Y-82161904D01*
X77050714Y-82161904D02*
X77145952Y-82114285D01*
X77145952Y-82114285D02*
X77193571Y-82066666D01*
X77193571Y-82066666D02*
X77241190Y-81971428D01*
X77241190Y-81971428D02*
X77241190Y-81780952D01*
X77241190Y-81780952D02*
X77288809Y-81685714D01*
X77288809Y-81685714D02*
X77336428Y-81638095D01*
X77336428Y-81638095D02*
X77431666Y-81590476D01*
X77431666Y-81590476D02*
X77622142Y-81590476D01*
X77622142Y-81590476D02*
X77717380Y-81638095D01*
X77717380Y-81638095D02*
X77765000Y-81685714D01*
X77765000Y-81685714D02*
X77812619Y-81780952D01*
X77812619Y-81780952D02*
X77812619Y-81971428D01*
X77812619Y-81971428D02*
X77765000Y-82066666D01*
X77765000Y-82066666D02*
X77717380Y-82114285D01*
X77717380Y-82114285D02*
X77622142Y-82161904D01*
X77622142Y-82161904D02*
X77431666Y-82161904D01*
X77431666Y-82161904D02*
X77336428Y-82114285D01*
X77336428Y-82114285D02*
X77288809Y-82066666D01*
X77288809Y-82066666D02*
X77241190Y-81971428D01*
%TO.C,D17*%
X58762619Y-88575714D02*
X57762619Y-88575714D01*
X57762619Y-88575714D02*
X57762619Y-88813809D01*
X57762619Y-88813809D02*
X57810238Y-88956666D01*
X57810238Y-88956666D02*
X57905476Y-89051904D01*
X57905476Y-89051904D02*
X58000714Y-89099523D01*
X58000714Y-89099523D02*
X58191190Y-89147142D01*
X58191190Y-89147142D02*
X58334047Y-89147142D01*
X58334047Y-89147142D02*
X58524523Y-89099523D01*
X58524523Y-89099523D02*
X58619761Y-89051904D01*
X58619761Y-89051904D02*
X58715000Y-88956666D01*
X58715000Y-88956666D02*
X58762619Y-88813809D01*
X58762619Y-88813809D02*
X58762619Y-88575714D01*
X58762619Y-90099523D02*
X58762619Y-89528095D01*
X58762619Y-89813809D02*
X57762619Y-89813809D01*
X57762619Y-89813809D02*
X57905476Y-89718571D01*
X57905476Y-89718571D02*
X58000714Y-89623333D01*
X58000714Y-89623333D02*
X58048333Y-89528095D01*
X57762619Y-90432857D02*
X57762619Y-91099523D01*
X57762619Y-91099523D02*
X58762619Y-90670952D01*
%TO.C,D16*%
X267042619Y-69905714D02*
X266042619Y-69905714D01*
X266042619Y-69905714D02*
X266042619Y-70143809D01*
X266042619Y-70143809D02*
X266090238Y-70286666D01*
X266090238Y-70286666D02*
X266185476Y-70381904D01*
X266185476Y-70381904D02*
X266280714Y-70429523D01*
X266280714Y-70429523D02*
X266471190Y-70477142D01*
X266471190Y-70477142D02*
X266614047Y-70477142D01*
X266614047Y-70477142D02*
X266804523Y-70429523D01*
X266804523Y-70429523D02*
X266899761Y-70381904D01*
X266899761Y-70381904D02*
X266995000Y-70286666D01*
X266995000Y-70286666D02*
X267042619Y-70143809D01*
X267042619Y-70143809D02*
X267042619Y-69905714D01*
X267042619Y-71429523D02*
X267042619Y-70858095D01*
X267042619Y-71143809D02*
X266042619Y-71143809D01*
X266042619Y-71143809D02*
X266185476Y-71048571D01*
X266185476Y-71048571D02*
X266280714Y-70953333D01*
X266280714Y-70953333D02*
X266328333Y-70858095D01*
X266042619Y-72286666D02*
X266042619Y-72096190D01*
X266042619Y-72096190D02*
X266090238Y-72000952D01*
X266090238Y-72000952D02*
X266137857Y-71953333D01*
X266137857Y-71953333D02*
X266280714Y-71858095D01*
X266280714Y-71858095D02*
X266471190Y-71810476D01*
X266471190Y-71810476D02*
X266852142Y-71810476D01*
X266852142Y-71810476D02*
X266947380Y-71858095D01*
X266947380Y-71858095D02*
X266995000Y-71905714D01*
X266995000Y-71905714D02*
X267042619Y-72000952D01*
X267042619Y-72000952D02*
X267042619Y-72191428D01*
X267042619Y-72191428D02*
X266995000Y-72286666D01*
X266995000Y-72286666D02*
X266947380Y-72334285D01*
X266947380Y-72334285D02*
X266852142Y-72381904D01*
X266852142Y-72381904D02*
X266614047Y-72381904D01*
X266614047Y-72381904D02*
X266518809Y-72334285D01*
X266518809Y-72334285D02*
X266471190Y-72286666D01*
X266471190Y-72286666D02*
X266423571Y-72191428D01*
X266423571Y-72191428D02*
X266423571Y-72000952D01*
X266423571Y-72000952D02*
X266471190Y-71905714D01*
X266471190Y-71905714D02*
X266518809Y-71858095D01*
X266518809Y-71858095D02*
X266614047Y-71810476D01*
%TO.C,D15*%
X245452619Y-58475714D02*
X244452619Y-58475714D01*
X244452619Y-58475714D02*
X244452619Y-58713809D01*
X244452619Y-58713809D02*
X244500238Y-58856666D01*
X244500238Y-58856666D02*
X244595476Y-58951904D01*
X244595476Y-58951904D02*
X244690714Y-58999523D01*
X244690714Y-58999523D02*
X244881190Y-59047142D01*
X244881190Y-59047142D02*
X245024047Y-59047142D01*
X245024047Y-59047142D02*
X245214523Y-58999523D01*
X245214523Y-58999523D02*
X245309761Y-58951904D01*
X245309761Y-58951904D02*
X245405000Y-58856666D01*
X245405000Y-58856666D02*
X245452619Y-58713809D01*
X245452619Y-58713809D02*
X245452619Y-58475714D01*
X245452619Y-59999523D02*
X245452619Y-59428095D01*
X245452619Y-59713809D02*
X244452619Y-59713809D01*
X244452619Y-59713809D02*
X244595476Y-59618571D01*
X244595476Y-59618571D02*
X244690714Y-59523333D01*
X244690714Y-59523333D02*
X244738333Y-59428095D01*
X244452619Y-60904285D02*
X244452619Y-60428095D01*
X244452619Y-60428095D02*
X244928809Y-60380476D01*
X244928809Y-60380476D02*
X244881190Y-60428095D01*
X244881190Y-60428095D02*
X244833571Y-60523333D01*
X244833571Y-60523333D02*
X244833571Y-60761428D01*
X244833571Y-60761428D02*
X244881190Y-60856666D01*
X244881190Y-60856666D02*
X244928809Y-60904285D01*
X244928809Y-60904285D02*
X245024047Y-60951904D01*
X245024047Y-60951904D02*
X245262142Y-60951904D01*
X245262142Y-60951904D02*
X245357380Y-60904285D01*
X245357380Y-60904285D02*
X245405000Y-60856666D01*
X245405000Y-60856666D02*
X245452619Y-60761428D01*
X245452619Y-60761428D02*
X245452619Y-60523333D01*
X245452619Y-60523333D02*
X245405000Y-60428095D01*
X245405000Y-60428095D02*
X245357380Y-60380476D01*
%TO.C,D14*%
X225132619Y-58095714D02*
X224132619Y-58095714D01*
X224132619Y-58095714D02*
X224132619Y-58333809D01*
X224132619Y-58333809D02*
X224180238Y-58476666D01*
X224180238Y-58476666D02*
X224275476Y-58571904D01*
X224275476Y-58571904D02*
X224370714Y-58619523D01*
X224370714Y-58619523D02*
X224561190Y-58667142D01*
X224561190Y-58667142D02*
X224704047Y-58667142D01*
X224704047Y-58667142D02*
X224894523Y-58619523D01*
X224894523Y-58619523D02*
X224989761Y-58571904D01*
X224989761Y-58571904D02*
X225085000Y-58476666D01*
X225085000Y-58476666D02*
X225132619Y-58333809D01*
X225132619Y-58333809D02*
X225132619Y-58095714D01*
X225132619Y-59619523D02*
X225132619Y-59048095D01*
X225132619Y-59333809D02*
X224132619Y-59333809D01*
X224132619Y-59333809D02*
X224275476Y-59238571D01*
X224275476Y-59238571D02*
X224370714Y-59143333D01*
X224370714Y-59143333D02*
X224418333Y-59048095D01*
X224465952Y-60476666D02*
X225132619Y-60476666D01*
X224085000Y-60238571D02*
X224799285Y-60000476D01*
X224799285Y-60000476D02*
X224799285Y-60619523D01*
%TO.C,D13*%
X208622619Y-68635714D02*
X207622619Y-68635714D01*
X207622619Y-68635714D02*
X207622619Y-68873809D01*
X207622619Y-68873809D02*
X207670238Y-69016666D01*
X207670238Y-69016666D02*
X207765476Y-69111904D01*
X207765476Y-69111904D02*
X207860714Y-69159523D01*
X207860714Y-69159523D02*
X208051190Y-69207142D01*
X208051190Y-69207142D02*
X208194047Y-69207142D01*
X208194047Y-69207142D02*
X208384523Y-69159523D01*
X208384523Y-69159523D02*
X208479761Y-69111904D01*
X208479761Y-69111904D02*
X208575000Y-69016666D01*
X208575000Y-69016666D02*
X208622619Y-68873809D01*
X208622619Y-68873809D02*
X208622619Y-68635714D01*
X208622619Y-70159523D02*
X208622619Y-69588095D01*
X208622619Y-69873809D02*
X207622619Y-69873809D01*
X207622619Y-69873809D02*
X207765476Y-69778571D01*
X207765476Y-69778571D02*
X207860714Y-69683333D01*
X207860714Y-69683333D02*
X207908333Y-69588095D01*
X207622619Y-70492857D02*
X207622619Y-71111904D01*
X207622619Y-71111904D02*
X208003571Y-70778571D01*
X208003571Y-70778571D02*
X208003571Y-70921428D01*
X208003571Y-70921428D02*
X208051190Y-71016666D01*
X208051190Y-71016666D02*
X208098809Y-71064285D01*
X208098809Y-71064285D02*
X208194047Y-71111904D01*
X208194047Y-71111904D02*
X208432142Y-71111904D01*
X208432142Y-71111904D02*
X208527380Y-71064285D01*
X208527380Y-71064285D02*
X208575000Y-71016666D01*
X208575000Y-71016666D02*
X208622619Y-70921428D01*
X208622619Y-70921428D02*
X208622619Y-70635714D01*
X208622619Y-70635714D02*
X208575000Y-70540476D01*
X208575000Y-70540476D02*
X208527380Y-70492857D01*
%TO.C,D12*%
X118452619Y-72445714D02*
X117452619Y-72445714D01*
X117452619Y-72445714D02*
X117452619Y-72683809D01*
X117452619Y-72683809D02*
X117500238Y-72826666D01*
X117500238Y-72826666D02*
X117595476Y-72921904D01*
X117595476Y-72921904D02*
X117690714Y-72969523D01*
X117690714Y-72969523D02*
X117881190Y-73017142D01*
X117881190Y-73017142D02*
X118024047Y-73017142D01*
X118024047Y-73017142D02*
X118214523Y-72969523D01*
X118214523Y-72969523D02*
X118309761Y-72921904D01*
X118309761Y-72921904D02*
X118405000Y-72826666D01*
X118405000Y-72826666D02*
X118452619Y-72683809D01*
X118452619Y-72683809D02*
X118452619Y-72445714D01*
X118452619Y-73969523D02*
X118452619Y-73398095D01*
X118452619Y-73683809D02*
X117452619Y-73683809D01*
X117452619Y-73683809D02*
X117595476Y-73588571D01*
X117595476Y-73588571D02*
X117690714Y-73493333D01*
X117690714Y-73493333D02*
X117738333Y-73398095D01*
X117547857Y-74350476D02*
X117500238Y-74398095D01*
X117500238Y-74398095D02*
X117452619Y-74493333D01*
X117452619Y-74493333D02*
X117452619Y-74731428D01*
X117452619Y-74731428D02*
X117500238Y-74826666D01*
X117500238Y-74826666D02*
X117547857Y-74874285D01*
X117547857Y-74874285D02*
X117643095Y-74921904D01*
X117643095Y-74921904D02*
X117738333Y-74921904D01*
X117738333Y-74921904D02*
X117881190Y-74874285D01*
X117881190Y-74874285D02*
X118452619Y-74302857D01*
X118452619Y-74302857D02*
X118452619Y-74921904D01*
%TO.C,D11*%
X101942619Y-63555714D02*
X100942619Y-63555714D01*
X100942619Y-63555714D02*
X100942619Y-63793809D01*
X100942619Y-63793809D02*
X100990238Y-63936666D01*
X100990238Y-63936666D02*
X101085476Y-64031904D01*
X101085476Y-64031904D02*
X101180714Y-64079523D01*
X101180714Y-64079523D02*
X101371190Y-64127142D01*
X101371190Y-64127142D02*
X101514047Y-64127142D01*
X101514047Y-64127142D02*
X101704523Y-64079523D01*
X101704523Y-64079523D02*
X101799761Y-64031904D01*
X101799761Y-64031904D02*
X101895000Y-63936666D01*
X101895000Y-63936666D02*
X101942619Y-63793809D01*
X101942619Y-63793809D02*
X101942619Y-63555714D01*
X101942619Y-65079523D02*
X101942619Y-64508095D01*
X101942619Y-64793809D02*
X100942619Y-64793809D01*
X100942619Y-64793809D02*
X101085476Y-64698571D01*
X101085476Y-64698571D02*
X101180714Y-64603333D01*
X101180714Y-64603333D02*
X101228333Y-64508095D01*
X101942619Y-66031904D02*
X101942619Y-65460476D01*
X101942619Y-65746190D02*
X100942619Y-65746190D01*
X100942619Y-65746190D02*
X101085476Y-65650952D01*
X101085476Y-65650952D02*
X101180714Y-65555714D01*
X101180714Y-65555714D02*
X101228333Y-65460476D01*
%TO.C,D10*%
X81622619Y-62285714D02*
X80622619Y-62285714D01*
X80622619Y-62285714D02*
X80622619Y-62523809D01*
X80622619Y-62523809D02*
X80670238Y-62666666D01*
X80670238Y-62666666D02*
X80765476Y-62761904D01*
X80765476Y-62761904D02*
X80860714Y-62809523D01*
X80860714Y-62809523D02*
X81051190Y-62857142D01*
X81051190Y-62857142D02*
X81194047Y-62857142D01*
X81194047Y-62857142D02*
X81384523Y-62809523D01*
X81384523Y-62809523D02*
X81479761Y-62761904D01*
X81479761Y-62761904D02*
X81575000Y-62666666D01*
X81575000Y-62666666D02*
X81622619Y-62523809D01*
X81622619Y-62523809D02*
X81622619Y-62285714D01*
X81622619Y-63809523D02*
X81622619Y-63238095D01*
X81622619Y-63523809D02*
X80622619Y-63523809D01*
X80622619Y-63523809D02*
X80765476Y-63428571D01*
X80765476Y-63428571D02*
X80860714Y-63333333D01*
X80860714Y-63333333D02*
X80908333Y-63238095D01*
X80622619Y-64428571D02*
X80622619Y-64523809D01*
X80622619Y-64523809D02*
X80670238Y-64619047D01*
X80670238Y-64619047D02*
X80717857Y-64666666D01*
X80717857Y-64666666D02*
X80813095Y-64714285D01*
X80813095Y-64714285D02*
X81003571Y-64761904D01*
X81003571Y-64761904D02*
X81241666Y-64761904D01*
X81241666Y-64761904D02*
X81432142Y-64714285D01*
X81432142Y-64714285D02*
X81527380Y-64666666D01*
X81527380Y-64666666D02*
X81575000Y-64619047D01*
X81575000Y-64619047D02*
X81622619Y-64523809D01*
X81622619Y-64523809D02*
X81622619Y-64428571D01*
X81622619Y-64428571D02*
X81575000Y-64333333D01*
X81575000Y-64333333D02*
X81527380Y-64285714D01*
X81527380Y-64285714D02*
X81432142Y-64238095D01*
X81432142Y-64238095D02*
X81241666Y-64190476D01*
X81241666Y-64190476D02*
X81003571Y-64190476D01*
X81003571Y-64190476D02*
X80813095Y-64238095D01*
X80813095Y-64238095D02*
X80717857Y-64285714D01*
X80717857Y-64285714D02*
X80670238Y-64333333D01*
X80670238Y-64333333D02*
X80622619Y-64428571D01*
%TO.C,D9*%
X61302619Y-71651905D02*
X60302619Y-71651905D01*
X60302619Y-71651905D02*
X60302619Y-71890000D01*
X60302619Y-71890000D02*
X60350238Y-72032857D01*
X60350238Y-72032857D02*
X60445476Y-72128095D01*
X60445476Y-72128095D02*
X60540714Y-72175714D01*
X60540714Y-72175714D02*
X60731190Y-72223333D01*
X60731190Y-72223333D02*
X60874047Y-72223333D01*
X60874047Y-72223333D02*
X61064523Y-72175714D01*
X61064523Y-72175714D02*
X61159761Y-72128095D01*
X61159761Y-72128095D02*
X61255000Y-72032857D01*
X61255000Y-72032857D02*
X61302619Y-71890000D01*
X61302619Y-71890000D02*
X61302619Y-71651905D01*
X61302619Y-72699524D02*
X61302619Y-72890000D01*
X61302619Y-72890000D02*
X61255000Y-72985238D01*
X61255000Y-72985238D02*
X61207380Y-73032857D01*
X61207380Y-73032857D02*
X61064523Y-73128095D01*
X61064523Y-73128095D02*
X60874047Y-73175714D01*
X60874047Y-73175714D02*
X60493095Y-73175714D01*
X60493095Y-73175714D02*
X60397857Y-73128095D01*
X60397857Y-73128095D02*
X60350238Y-73080476D01*
X60350238Y-73080476D02*
X60302619Y-72985238D01*
X60302619Y-72985238D02*
X60302619Y-72794762D01*
X60302619Y-72794762D02*
X60350238Y-72699524D01*
X60350238Y-72699524D02*
X60397857Y-72651905D01*
X60397857Y-72651905D02*
X60493095Y-72604286D01*
X60493095Y-72604286D02*
X60731190Y-72604286D01*
X60731190Y-72604286D02*
X60826428Y-72651905D01*
X60826428Y-72651905D02*
X60874047Y-72699524D01*
X60874047Y-72699524D02*
X60921666Y-72794762D01*
X60921666Y-72794762D02*
X60921666Y-72985238D01*
X60921666Y-72985238D02*
X60874047Y-73080476D01*
X60874047Y-73080476D02*
X60826428Y-73128095D01*
X60826428Y-73128095D02*
X60731190Y-73175714D01*
%TO.C,D8*%
X265772619Y-53871905D02*
X264772619Y-53871905D01*
X264772619Y-53871905D02*
X264772619Y-54110000D01*
X264772619Y-54110000D02*
X264820238Y-54252857D01*
X264820238Y-54252857D02*
X264915476Y-54348095D01*
X264915476Y-54348095D02*
X265010714Y-54395714D01*
X265010714Y-54395714D02*
X265201190Y-54443333D01*
X265201190Y-54443333D02*
X265344047Y-54443333D01*
X265344047Y-54443333D02*
X265534523Y-54395714D01*
X265534523Y-54395714D02*
X265629761Y-54348095D01*
X265629761Y-54348095D02*
X265725000Y-54252857D01*
X265725000Y-54252857D02*
X265772619Y-54110000D01*
X265772619Y-54110000D02*
X265772619Y-53871905D01*
X265201190Y-55014762D02*
X265153571Y-54919524D01*
X265153571Y-54919524D02*
X265105952Y-54871905D01*
X265105952Y-54871905D02*
X265010714Y-54824286D01*
X265010714Y-54824286D02*
X264963095Y-54824286D01*
X264963095Y-54824286D02*
X264867857Y-54871905D01*
X264867857Y-54871905D02*
X264820238Y-54919524D01*
X264820238Y-54919524D02*
X264772619Y-55014762D01*
X264772619Y-55014762D02*
X264772619Y-55205238D01*
X264772619Y-55205238D02*
X264820238Y-55300476D01*
X264820238Y-55300476D02*
X264867857Y-55348095D01*
X264867857Y-55348095D02*
X264963095Y-55395714D01*
X264963095Y-55395714D02*
X265010714Y-55395714D01*
X265010714Y-55395714D02*
X265105952Y-55348095D01*
X265105952Y-55348095D02*
X265153571Y-55300476D01*
X265153571Y-55300476D02*
X265201190Y-55205238D01*
X265201190Y-55205238D02*
X265201190Y-55014762D01*
X265201190Y-55014762D02*
X265248809Y-54919524D01*
X265248809Y-54919524D02*
X265296428Y-54871905D01*
X265296428Y-54871905D02*
X265391666Y-54824286D01*
X265391666Y-54824286D02*
X265582142Y-54824286D01*
X265582142Y-54824286D02*
X265677380Y-54871905D01*
X265677380Y-54871905D02*
X265725000Y-54919524D01*
X265725000Y-54919524D02*
X265772619Y-55014762D01*
X265772619Y-55014762D02*
X265772619Y-55205238D01*
X265772619Y-55205238D02*
X265725000Y-55300476D01*
X265725000Y-55300476D02*
X265677380Y-55348095D01*
X265677380Y-55348095D02*
X265582142Y-55395714D01*
X265582142Y-55395714D02*
X265391666Y-55395714D01*
X265391666Y-55395714D02*
X265296428Y-55348095D01*
X265296428Y-55348095D02*
X265248809Y-55300476D01*
X265248809Y-55300476D02*
X265201190Y-55205238D01*
%TO.C,D7*%
X242912619Y-42821905D02*
X241912619Y-42821905D01*
X241912619Y-42821905D02*
X241912619Y-43060000D01*
X241912619Y-43060000D02*
X241960238Y-43202857D01*
X241960238Y-43202857D02*
X242055476Y-43298095D01*
X242055476Y-43298095D02*
X242150714Y-43345714D01*
X242150714Y-43345714D02*
X242341190Y-43393333D01*
X242341190Y-43393333D02*
X242484047Y-43393333D01*
X242484047Y-43393333D02*
X242674523Y-43345714D01*
X242674523Y-43345714D02*
X242769761Y-43298095D01*
X242769761Y-43298095D02*
X242865000Y-43202857D01*
X242865000Y-43202857D02*
X242912619Y-43060000D01*
X242912619Y-43060000D02*
X242912619Y-42821905D01*
X241912619Y-43726667D02*
X241912619Y-44393333D01*
X241912619Y-44393333D02*
X242912619Y-43964762D01*
%TO.C,D6*%
X221322619Y-42441905D02*
X220322619Y-42441905D01*
X220322619Y-42441905D02*
X220322619Y-42680000D01*
X220322619Y-42680000D02*
X220370238Y-42822857D01*
X220370238Y-42822857D02*
X220465476Y-42918095D01*
X220465476Y-42918095D02*
X220560714Y-42965714D01*
X220560714Y-42965714D02*
X220751190Y-43013333D01*
X220751190Y-43013333D02*
X220894047Y-43013333D01*
X220894047Y-43013333D02*
X221084523Y-42965714D01*
X221084523Y-42965714D02*
X221179761Y-42918095D01*
X221179761Y-42918095D02*
X221275000Y-42822857D01*
X221275000Y-42822857D02*
X221322619Y-42680000D01*
X221322619Y-42680000D02*
X221322619Y-42441905D01*
X220322619Y-43870476D02*
X220322619Y-43680000D01*
X220322619Y-43680000D02*
X220370238Y-43584762D01*
X220370238Y-43584762D02*
X220417857Y-43537143D01*
X220417857Y-43537143D02*
X220560714Y-43441905D01*
X220560714Y-43441905D02*
X220751190Y-43394286D01*
X220751190Y-43394286D02*
X221132142Y-43394286D01*
X221132142Y-43394286D02*
X221227380Y-43441905D01*
X221227380Y-43441905D02*
X221275000Y-43489524D01*
X221275000Y-43489524D02*
X221322619Y-43584762D01*
X221322619Y-43584762D02*
X221322619Y-43775238D01*
X221322619Y-43775238D02*
X221275000Y-43870476D01*
X221275000Y-43870476D02*
X221227380Y-43918095D01*
X221227380Y-43918095D02*
X221132142Y-43965714D01*
X221132142Y-43965714D02*
X220894047Y-43965714D01*
X220894047Y-43965714D02*
X220798809Y-43918095D01*
X220798809Y-43918095D02*
X220751190Y-43870476D01*
X220751190Y-43870476D02*
X220703571Y-43775238D01*
X220703571Y-43775238D02*
X220703571Y-43584762D01*
X220703571Y-43584762D02*
X220751190Y-43489524D01*
X220751190Y-43489524D02*
X220798809Y-43441905D01*
X220798809Y-43441905D02*
X220894047Y-43394286D01*
%TO.C,D5*%
X204812619Y-51711905D02*
X203812619Y-51711905D01*
X203812619Y-51711905D02*
X203812619Y-51950000D01*
X203812619Y-51950000D02*
X203860238Y-52092857D01*
X203860238Y-52092857D02*
X203955476Y-52188095D01*
X203955476Y-52188095D02*
X204050714Y-52235714D01*
X204050714Y-52235714D02*
X204241190Y-52283333D01*
X204241190Y-52283333D02*
X204384047Y-52283333D01*
X204384047Y-52283333D02*
X204574523Y-52235714D01*
X204574523Y-52235714D02*
X204669761Y-52188095D01*
X204669761Y-52188095D02*
X204765000Y-52092857D01*
X204765000Y-52092857D02*
X204812619Y-51950000D01*
X204812619Y-51950000D02*
X204812619Y-51711905D01*
X203812619Y-53188095D02*
X203812619Y-52711905D01*
X203812619Y-52711905D02*
X204288809Y-52664286D01*
X204288809Y-52664286D02*
X204241190Y-52711905D01*
X204241190Y-52711905D02*
X204193571Y-52807143D01*
X204193571Y-52807143D02*
X204193571Y-53045238D01*
X204193571Y-53045238D02*
X204241190Y-53140476D01*
X204241190Y-53140476D02*
X204288809Y-53188095D01*
X204288809Y-53188095D02*
X204384047Y-53235714D01*
X204384047Y-53235714D02*
X204622142Y-53235714D01*
X204622142Y-53235714D02*
X204717380Y-53188095D01*
X204717380Y-53188095D02*
X204765000Y-53140476D01*
X204765000Y-53140476D02*
X204812619Y-53045238D01*
X204812619Y-53045238D02*
X204812619Y-52807143D01*
X204812619Y-52807143D02*
X204765000Y-52711905D01*
X204765000Y-52711905D02*
X204717380Y-52664286D01*
%TO.C,D4*%
X123532619Y-56791905D02*
X122532619Y-56791905D01*
X122532619Y-56791905D02*
X122532619Y-57030000D01*
X122532619Y-57030000D02*
X122580238Y-57172857D01*
X122580238Y-57172857D02*
X122675476Y-57268095D01*
X122675476Y-57268095D02*
X122770714Y-57315714D01*
X122770714Y-57315714D02*
X122961190Y-57363333D01*
X122961190Y-57363333D02*
X123104047Y-57363333D01*
X123104047Y-57363333D02*
X123294523Y-57315714D01*
X123294523Y-57315714D02*
X123389761Y-57268095D01*
X123389761Y-57268095D02*
X123485000Y-57172857D01*
X123485000Y-57172857D02*
X123532619Y-57030000D01*
X123532619Y-57030000D02*
X123532619Y-56791905D01*
X122865952Y-58220476D02*
X123532619Y-58220476D01*
X122485000Y-57982381D02*
X123199285Y-57744286D01*
X123199285Y-57744286D02*
X123199285Y-58363333D01*
%TO.C,D3*%
X107022619Y-47521905D02*
X106022619Y-47521905D01*
X106022619Y-47521905D02*
X106022619Y-47760000D01*
X106022619Y-47760000D02*
X106070238Y-47902857D01*
X106070238Y-47902857D02*
X106165476Y-47998095D01*
X106165476Y-47998095D02*
X106260714Y-48045714D01*
X106260714Y-48045714D02*
X106451190Y-48093333D01*
X106451190Y-48093333D02*
X106594047Y-48093333D01*
X106594047Y-48093333D02*
X106784523Y-48045714D01*
X106784523Y-48045714D02*
X106879761Y-47998095D01*
X106879761Y-47998095D02*
X106975000Y-47902857D01*
X106975000Y-47902857D02*
X107022619Y-47760000D01*
X107022619Y-47760000D02*
X107022619Y-47521905D01*
X106022619Y-48426667D02*
X106022619Y-49045714D01*
X106022619Y-49045714D02*
X106403571Y-48712381D01*
X106403571Y-48712381D02*
X106403571Y-48855238D01*
X106403571Y-48855238D02*
X106451190Y-48950476D01*
X106451190Y-48950476D02*
X106498809Y-48998095D01*
X106498809Y-48998095D02*
X106594047Y-49045714D01*
X106594047Y-49045714D02*
X106832142Y-49045714D01*
X106832142Y-49045714D02*
X106927380Y-48998095D01*
X106927380Y-48998095D02*
X106975000Y-48950476D01*
X106975000Y-48950476D02*
X107022619Y-48855238D01*
X107022619Y-48855238D02*
X107022619Y-48569524D01*
X107022619Y-48569524D02*
X106975000Y-48474286D01*
X106975000Y-48474286D02*
X106927380Y-48426667D01*
%TO.C,D2*%
X85432619Y-46251905D02*
X84432619Y-46251905D01*
X84432619Y-46251905D02*
X84432619Y-46490000D01*
X84432619Y-46490000D02*
X84480238Y-46632857D01*
X84480238Y-46632857D02*
X84575476Y-46728095D01*
X84575476Y-46728095D02*
X84670714Y-46775714D01*
X84670714Y-46775714D02*
X84861190Y-46823333D01*
X84861190Y-46823333D02*
X85004047Y-46823333D01*
X85004047Y-46823333D02*
X85194523Y-46775714D01*
X85194523Y-46775714D02*
X85289761Y-46728095D01*
X85289761Y-46728095D02*
X85385000Y-46632857D01*
X85385000Y-46632857D02*
X85432619Y-46490000D01*
X85432619Y-46490000D02*
X85432619Y-46251905D01*
X84527857Y-47204286D02*
X84480238Y-47251905D01*
X84480238Y-47251905D02*
X84432619Y-47347143D01*
X84432619Y-47347143D02*
X84432619Y-47585238D01*
X84432619Y-47585238D02*
X84480238Y-47680476D01*
X84480238Y-47680476D02*
X84527857Y-47728095D01*
X84527857Y-47728095D02*
X84623095Y-47775714D01*
X84623095Y-47775714D02*
X84718333Y-47775714D01*
X84718333Y-47775714D02*
X84861190Y-47728095D01*
X84861190Y-47728095D02*
X85432619Y-47156667D01*
X85432619Y-47156667D02*
X85432619Y-47775714D01*
%TO.C,D1*%
X63842619Y-50061905D02*
X62842619Y-50061905D01*
X62842619Y-50061905D02*
X62842619Y-50300000D01*
X62842619Y-50300000D02*
X62890238Y-50442857D01*
X62890238Y-50442857D02*
X62985476Y-50538095D01*
X62985476Y-50538095D02*
X63080714Y-50585714D01*
X63080714Y-50585714D02*
X63271190Y-50633333D01*
X63271190Y-50633333D02*
X63414047Y-50633333D01*
X63414047Y-50633333D02*
X63604523Y-50585714D01*
X63604523Y-50585714D02*
X63699761Y-50538095D01*
X63699761Y-50538095D02*
X63795000Y-50442857D01*
X63795000Y-50442857D02*
X63842619Y-50300000D01*
X63842619Y-50300000D02*
X63842619Y-50061905D01*
X63842619Y-51585714D02*
X63842619Y-51014286D01*
X63842619Y-51300000D02*
X62842619Y-51300000D01*
X62842619Y-51300000D02*
X62985476Y-51204762D01*
X62985476Y-51204762D02*
X63080714Y-51109524D01*
X63080714Y-51109524D02*
X63128333Y-51014286D01*
D11*
%TO.C,SW26*%
X160100000Y-107750000D02*
X160100000Y-110150000D01*
X156000000Y-98350000D02*
X160100000Y-98350000D01*
X152000000Y-98350000D02*
X147900000Y-98350000D01*
X160100000Y-110150000D02*
X156000000Y-110150000D01*
X152000000Y-110150000D02*
X147900000Y-110150000D01*
X154000000Y-103750000D02*
X154000000Y-104750000D01*
X153500000Y-104250000D02*
X154500000Y-104250000D01*
X160100000Y-98350000D02*
X160100000Y-100750000D01*
X147900000Y-98350000D02*
X147900000Y-110150000D01*
X160100000Y-102950000D02*
X160100000Y-105550000D01*
X157000000Y-104250000D02*
G75*
G03*
X157000000Y-104250000I-3000000J0D01*
G01*
%TO.C,D25*%
X167880000Y-105680000D02*
X167880000Y-107680000D01*
X167880000Y-105680000D02*
X163870000Y-105680000D01*
X167880000Y-107680000D02*
X163870000Y-107680000D01*
D10*
%TO.C,SW34*%
X167053000Y-98199000D02*
X173053000Y-98199000D01*
X167053000Y-98449000D02*
X167053000Y-98199000D01*
X167053000Y-101699000D02*
X167053000Y-101449000D01*
X173053000Y-98199000D02*
X173053000Y-98449000D01*
X173053000Y-101449000D02*
X173053000Y-101699000D01*
X173053000Y-101699000D02*
X167053000Y-101699000D01*
D11*
%TO.C,D38*%
X203350000Y-113740000D02*
X201350000Y-113740000D01*
X203350000Y-113740000D02*
X203350000Y-109730000D01*
X201350000Y-113740000D02*
X201350000Y-109730000D01*
%TO.C,D37*%
X185570000Y-119200000D02*
X183570000Y-119200000D01*
X185570000Y-119200000D02*
X185570000Y-115190000D01*
X183570000Y-119200000D02*
X183570000Y-115190000D01*
%TO.C,D36*%
X136040000Y-127710000D02*
X134040000Y-127710000D01*
X136040000Y-127710000D02*
X136040000Y-123700000D01*
X134040000Y-127710000D02*
X134040000Y-123700000D01*
%TO.C,D35*%
X120800000Y-117550000D02*
X118800000Y-117550000D01*
X120800000Y-117550000D02*
X120800000Y-113540000D01*
X118800000Y-117550000D02*
X118800000Y-113540000D01*
%TO.C,D31*%
X186840000Y-63320000D02*
X184840000Y-63320000D01*
X186840000Y-63320000D02*
X186840000Y-59310000D01*
X184840000Y-63320000D02*
X184840000Y-59310000D01*
%TO.C,D30*%
X188650000Y-78560000D02*
X188650000Y-74550000D01*
X190650000Y-78560000D02*
X190650000Y-74550000D01*
X190650000Y-78560000D02*
X188650000Y-78560000D01*
%TO.C,D29*%
X193730000Y-95070000D02*
X193730000Y-91060000D01*
X195730000Y-95070000D02*
X195730000Y-91060000D01*
X195730000Y-95070000D02*
X193730000Y-95070000D01*
%TO.C,D28*%
X130960000Y-101040000D02*
X128960000Y-101040000D01*
X130960000Y-101040000D02*
X130960000Y-97030000D01*
X128960000Y-101040000D02*
X128960000Y-97030000D01*
%TO.C,D27*%
X134770000Y-84910000D02*
X132770000Y-84910000D01*
X134770000Y-84910000D02*
X134770000Y-80900000D01*
X132770000Y-84910000D02*
X132770000Y-80900000D01*
%TO.C,D26*%
X138580000Y-68020000D02*
X136580000Y-68020000D01*
X138580000Y-68020000D02*
X138580000Y-64010000D01*
X136580000Y-68020000D02*
X136580000Y-64010000D01*
%TO.C,D24*%
X266850000Y-91260000D02*
X264850000Y-91260000D01*
X266850000Y-91260000D02*
X266850000Y-87250000D01*
X264850000Y-91260000D02*
X264850000Y-87250000D01*
%TO.C,D23*%
X247800000Y-79830000D02*
X245800000Y-79830000D01*
X247800000Y-79830000D02*
X247800000Y-75820000D01*
X245800000Y-79830000D02*
X245800000Y-75820000D01*
%TO.C,D22*%
X227480000Y-79830000D02*
X225480000Y-79830000D01*
X227480000Y-79830000D02*
X227480000Y-75820000D01*
X225480000Y-79830000D02*
X225480000Y-75820000D01*
%TO.C,D21*%
X212240000Y-87450000D02*
X210240000Y-87450000D01*
X212240000Y-87450000D02*
X212240000Y-83440000D01*
X210240000Y-87450000D02*
X210240000Y-83440000D01*
%TO.C,D20*%
X111180000Y-92530000D02*
X111180000Y-88520000D01*
X113180000Y-92530000D02*
X113180000Y-88520000D01*
X113180000Y-92530000D02*
X111180000Y-92530000D01*
%TO.C,D19*%
X94670000Y-82370000D02*
X94670000Y-78360000D01*
X96670000Y-82370000D02*
X96670000Y-78360000D01*
X96670000Y-82370000D02*
X94670000Y-82370000D01*
%TO.C,D18*%
X76350000Y-83260000D02*
X74350000Y-83260000D01*
X76350000Y-83260000D02*
X76350000Y-79250000D01*
X74350000Y-83260000D02*
X74350000Y-79250000D01*
%TO.C,D17*%
X57300000Y-92150000D02*
X55300000Y-92150000D01*
X57300000Y-92150000D02*
X57300000Y-88140000D01*
X55300000Y-92150000D02*
X55300000Y-88140000D01*
%TO.C,D16*%
X265580000Y-73480000D02*
X263580000Y-73480000D01*
X265580000Y-73480000D02*
X265580000Y-69470000D01*
X263580000Y-73480000D02*
X263580000Y-69470000D01*
%TO.C,D15*%
X243990000Y-62050000D02*
X241990000Y-62050000D01*
X243990000Y-62050000D02*
X243990000Y-58040000D01*
X241990000Y-62050000D02*
X241990000Y-58040000D01*
%TO.C,D14*%
X223670000Y-61670000D02*
X221670000Y-61670000D01*
X223670000Y-61670000D02*
X223670000Y-57660000D01*
X221670000Y-61670000D02*
X221670000Y-57660000D01*
%TO.C,D13*%
X207160000Y-72210000D02*
X205160000Y-72210000D01*
X207160000Y-72210000D02*
X207160000Y-68200000D01*
X205160000Y-72210000D02*
X205160000Y-68200000D01*
%TO.C,D12*%
X116990000Y-76020000D02*
X114990000Y-76020000D01*
X116990000Y-76020000D02*
X116990000Y-72010000D01*
X114990000Y-76020000D02*
X114990000Y-72010000D01*
%TO.C,D11*%
X100480000Y-67130000D02*
X98480000Y-67130000D01*
X100480000Y-67130000D02*
X100480000Y-63120000D01*
X98480000Y-67130000D02*
X98480000Y-63120000D01*
%TO.C,D10*%
X78160000Y-65860000D02*
X78160000Y-61850000D01*
X80160000Y-65860000D02*
X80160000Y-61850000D01*
X80160000Y-65860000D02*
X78160000Y-65860000D01*
%TO.C,D9*%
X59840000Y-74750000D02*
X57840000Y-74750000D01*
X59840000Y-74750000D02*
X59840000Y-70740000D01*
X57840000Y-74750000D02*
X57840000Y-70740000D01*
%TO.C,D8*%
X264310000Y-56970000D02*
X262310000Y-56970000D01*
X264310000Y-56970000D02*
X264310000Y-52960000D01*
X262310000Y-56970000D02*
X262310000Y-52960000D01*
%TO.C,D7*%
X241450000Y-45920000D02*
X239450000Y-45920000D01*
X241450000Y-45920000D02*
X241450000Y-41910000D01*
X239450000Y-45920000D02*
X239450000Y-41910000D01*
%TO.C,D6*%
X219860000Y-45540000D02*
X217860000Y-45540000D01*
X219860000Y-45540000D02*
X219860000Y-41530000D01*
X217860000Y-45540000D02*
X217860000Y-41530000D01*
%TO.C,D5*%
X203350000Y-54810000D02*
X201350000Y-54810000D01*
X203350000Y-54810000D02*
X203350000Y-50800000D01*
X201350000Y-54810000D02*
X201350000Y-50800000D01*
%TO.C,D4*%
X122070000Y-59890000D02*
X120070000Y-59890000D01*
X122070000Y-59890000D02*
X122070000Y-55880000D01*
X120070000Y-59890000D02*
X120070000Y-55880000D01*
%TO.C,D3*%
X105560000Y-50620000D02*
X103560000Y-50620000D01*
X105560000Y-50620000D02*
X105560000Y-46610000D01*
X103560000Y-50620000D02*
X103560000Y-46610000D01*
%TO.C,D2*%
X83970000Y-49350000D02*
X81970000Y-49350000D01*
X83970000Y-49350000D02*
X83970000Y-45340000D01*
X81970000Y-49350000D02*
X81970000Y-45340000D01*
%TO.C,D1*%
X60380000Y-53160000D02*
X60380000Y-49150000D01*
X62380000Y-53160000D02*
X62380000Y-49150000D01*
X62380000Y-53160000D02*
X60380000Y-53160000D01*
%TD*%
D12*
%TO.C,J1*%
X136564000Y-90932000D03*
X136564000Y-92932000D03*
X136564000Y-94932000D03*
%TD*%
D13*
%TO.C,U1*%
X161544000Y-54656750D03*
X161544000Y-57196750D03*
X161544000Y-59736750D03*
X161544000Y-62276750D03*
X161544000Y-64816750D03*
X161544000Y-67356750D03*
X161544000Y-69896750D03*
X161544000Y-72436750D03*
X161544000Y-74976750D03*
X161544000Y-77516750D03*
X161544000Y-80056750D03*
X161544000Y-82596750D03*
X146304000Y-82596750D03*
X146304000Y-80056750D03*
X146304000Y-77516750D03*
X146304000Y-74976750D03*
X146304000Y-72436750D03*
X146304000Y-69896750D03*
X146304000Y-67356750D03*
X146304000Y-64816750D03*
X146304000Y-62276750D03*
X146304000Y-59736750D03*
X146304000Y-57196750D03*
X146304000Y-54656750D03*
%TD*%
%LPC*%
D12*
%TO.C,J1*%
X136564000Y-90932000D03*
X136564000Y-92932000D03*
X136564000Y-94932000D03*
%TD*%
D13*
%TO.C,U1*%
X161544000Y-54656750D03*
X161544000Y-57196750D03*
X161544000Y-59736750D03*
X161544000Y-62276750D03*
X161544000Y-64816750D03*
X161544000Y-67356750D03*
X161544000Y-69896750D03*
X161544000Y-72436750D03*
X161544000Y-74976750D03*
X161544000Y-77516750D03*
X161544000Y-80056750D03*
X161544000Y-82596750D03*
X146304000Y-82596750D03*
X146304000Y-80056750D03*
X146304000Y-77516750D03*
X146304000Y-74976750D03*
X146304000Y-72436750D03*
X146304000Y-69896750D03*
X146304000Y-67356750D03*
X146304000Y-64816750D03*
X146304000Y-62276750D03*
X146304000Y-59736750D03*
X146304000Y-57196750D03*
X146304000Y-54656750D03*
%TD*%
D14*
%TO.C,SW21*%
X196534247Y-84586910D03*
D15*
X196046639Y-80835279D03*
X200306866Y-77416146D03*
D16*
X201846839Y-83163405D03*
D15*
X205705897Y-78247089D03*
D14*
X207159431Y-81739900D03*
D17*
X197143458Y-78263779D03*
X208869304Y-77399457D03*
%TD*%
D14*
%TO.C,SW30*%
X179570486Y-92755803D03*
D15*
X179082878Y-89004172D03*
X183343105Y-85585039D03*
D16*
X184883078Y-91332298D03*
D15*
X188742136Y-86415982D03*
D14*
X190195670Y-89908793D03*
D17*
X180179697Y-86432672D03*
X191905543Y-85568350D03*
%TD*%
%TO.C,SW22*%
X225380132Y-67540195D03*
X213654286Y-68404517D03*
D14*
X223670259Y-71880638D03*
D15*
X222216725Y-68387827D03*
D16*
X218357667Y-73304143D03*
D15*
X216817694Y-67556884D03*
X212557467Y-70976017D03*
D14*
X213045075Y-74727648D03*
%TD*%
D18*
%TO.C,SW26*%
X146500000Y-101750000D03*
X146500000Y-106750000D03*
X146500000Y-104250000D03*
D19*
X154000000Y-98650000D03*
X154000000Y-109850000D03*
D18*
X161000000Y-106750000D03*
X161000000Y-101750000D03*
%TD*%
D20*
%TO.C,D25*%
X163870000Y-106680000D03*
X167170000Y-106680000D03*
%TD*%
D18*
%TO.C,SW34*%
X173303000Y-99949000D03*
X166803000Y-99949000D03*
%TD*%
D17*
%TO.C,SW40*%
X201161102Y-102240940D03*
X189435256Y-103105262D03*
D14*
X199451229Y-106581383D03*
D15*
X197997695Y-103088572D03*
D16*
X194138637Y-108004888D03*
D15*
X192598664Y-102257629D03*
X188338437Y-105676762D03*
D14*
X188826045Y-109428393D03*
%TD*%
D21*
%TO.C,SW39*%
X180580888Y-108515788D03*
X169412448Y-112191176D03*
D14*
X179971854Y-113140958D03*
D15*
X177716509Y-110103540D03*
D16*
X175161446Y-115807411D03*
D15*
X172276829Y-110603424D03*
X168970312Y-114951636D03*
D14*
X170351038Y-118473864D03*
%TD*%
D22*
%TO.C,SW38*%
X140946972Y-116539388D03*
X131911695Y-109015672D03*
D14*
X136701866Y-118473864D03*
D15*
X138082592Y-114951636D03*
D16*
X131891458Y-115807411D03*
D15*
X134776075Y-110603424D03*
X129336395Y-110103540D03*
D14*
X127081050Y-113140958D03*
%TD*%
%TO.C,SW37*%
X107601675Y-106581383D03*
D15*
X109055209Y-103088572D03*
X114454240Y-102257629D03*
D16*
X112914267Y-108004888D03*
D15*
X118714467Y-105676762D03*
D14*
X118226859Y-109428393D03*
D23*
X111290832Y-101409997D03*
X121877874Y-106524395D03*
%TD*%
D17*
%TO.C,SW32*%
X182846876Y-51760946D03*
X171121030Y-52625268D03*
D14*
X181137003Y-56101389D03*
D15*
X179683469Y-52608578D03*
D16*
X175824411Y-57524894D03*
D15*
X174284438Y-51777635D03*
X170024211Y-55196768D03*
D14*
X170511819Y-58948399D03*
%TD*%
D17*
%TO.C,SW31*%
X187376209Y-68664648D03*
X175650363Y-69528970D03*
D14*
X185666336Y-73005091D03*
D15*
X184212802Y-69512280D03*
D16*
X180353744Y-74428596D03*
D15*
X178813771Y-68681337D03*
X174553544Y-72100470D03*
D14*
X175041152Y-75852101D03*
%TD*%
D23*
%TO.C,SW29*%
X131133433Y-89851805D03*
X120546391Y-84737407D03*
D14*
X127482418Y-92755803D03*
D15*
X127970026Y-89004172D03*
D16*
X122169826Y-91332298D03*
D15*
X123709799Y-85585039D03*
X118310768Y-86415982D03*
D14*
X116857234Y-89908793D03*
%TD*%
D23*
%TO.C,SW28*%
X135662767Y-72948103D03*
X125075725Y-67833705D03*
D14*
X132011752Y-75852101D03*
D15*
X132499360Y-72100470D03*
D16*
X126699160Y-74428596D03*
D15*
X128239133Y-68681337D03*
X122840102Y-69512280D03*
D14*
X121386568Y-73005091D03*
%TD*%
D23*
%TO.C,SW27*%
X140192100Y-56044401D03*
X129605058Y-50930003D03*
D14*
X136541085Y-58948399D03*
D15*
X137028693Y-55196768D03*
D16*
X131228493Y-57524894D03*
D15*
X132768466Y-51777635D03*
X127369435Y-52608578D03*
D14*
X125915901Y-56101389D03*
%TD*%
D24*
%TO.C,SW25*%
X152250000Y-117355000D03*
X155250000Y-117355000D03*
%TD*%
D25*
%TO.C,SW24*%
X265970695Y-79452429D03*
X254272903Y-78267449D03*
D14*
X263533089Y-83430015D03*
D15*
X262708158Y-79737864D03*
D16*
X258054018Y-83909372D03*
D15*
X257535441Y-77982014D03*
X252746211Y-80609422D03*
D14*
X252574947Y-84388729D03*
%TD*%
D26*
%TO.C,SW23*%
X245304070Y-68683139D03*
X233546495Y-68727402D03*
D14*
X243295589Y-72893735D03*
D15*
X242089241Y-69308038D03*
D16*
X237896639Y-73943184D03*
D15*
X236761325Y-68102502D03*
X232272970Y-71216128D03*
D14*
X232497689Y-74992633D03*
%TD*%
D23*
%TO.C,SW20*%
X114169672Y-81682912D03*
X103582630Y-76568514D03*
D14*
X110518657Y-84586910D03*
D15*
X111006265Y-80835279D03*
D16*
X105206065Y-83163405D03*
D15*
X106746038Y-77416146D03*
X101347007Y-78247089D03*
D14*
X99893473Y-81739900D03*
%TD*%
D23*
%TO.C,SW19*%
X97658844Y-71823650D03*
X87071802Y-66709252D03*
D14*
X94007829Y-74727648D03*
D15*
X94495437Y-70976017D03*
D16*
X88695237Y-73304143D03*
D15*
X90235210Y-67556884D03*
X84836179Y-68387827D03*
D14*
X83382645Y-71880638D03*
%TD*%
D27*
%TO.C,SW18*%
X77994763Y-71841027D03*
X67076749Y-67477603D03*
D14*
X74555215Y-74992633D03*
D15*
X74779934Y-71216128D03*
D16*
X69156265Y-73943184D03*
D15*
X70291579Y-68102502D03*
X64963663Y-69308038D03*
D14*
X63757315Y-72893735D03*
%TD*%
%TO.C,SW17*%
X43519815Y-83430015D03*
D15*
X44344746Y-79737864D03*
X49517463Y-77982014D03*
D16*
X48998886Y-83909372D03*
D15*
X54306693Y-80609422D03*
D14*
X54477957Y-84388729D03*
D28*
X46254924Y-77696578D03*
X57569231Y-80894857D03*
%TD*%
D25*
%TO.C,SW16*%
X264445469Y-62019022D03*
X252747677Y-60834042D03*
D14*
X262007863Y-65996608D03*
D15*
X261182932Y-62304457D03*
D16*
X256528792Y-66475965D03*
D15*
X256010215Y-60548607D03*
X251220985Y-63176015D03*
D14*
X251049721Y-66955322D03*
%TD*%
D26*
%TO.C,SW15*%
X241964913Y-51504663D03*
X230207338Y-51548926D03*
D14*
X239956432Y-55715259D03*
D15*
X238750084Y-52129562D03*
D16*
X234557482Y-56764708D03*
D15*
X233422168Y-50924026D03*
X228933813Y-54037652D03*
D14*
X229158532Y-57814157D03*
%TD*%
%TO.C,SW14*%
X208515741Y-57823946D03*
D15*
X208028133Y-54072315D03*
X212288360Y-50653182D03*
D16*
X213828333Y-56400441D03*
D15*
X217687391Y-51484125D03*
D14*
X219140925Y-54976936D03*
D17*
X209124952Y-51500815D03*
X220850798Y-50636493D03*
%TD*%
%TO.C,SW13*%
X204339970Y-60495755D03*
X192614124Y-61360077D03*
D14*
X202630097Y-64836198D03*
D15*
X201176563Y-61343387D03*
D16*
X197317505Y-66259703D03*
D15*
X195777532Y-60512444D03*
X191517305Y-63931577D03*
D14*
X192004913Y-67683208D03*
%TD*%
D23*
%TO.C,SW12*%
X118699005Y-64779210D03*
X108111963Y-59664812D03*
D14*
X115047990Y-67683208D03*
D15*
X115535598Y-63931577D03*
D16*
X109735398Y-66259703D03*
D15*
X111275371Y-60512444D03*
X105876340Y-61343387D03*
D14*
X104422806Y-64836198D03*
%TD*%
D23*
%TO.C,SW11*%
X102188178Y-54919948D03*
X91601136Y-49805550D03*
D14*
X98537163Y-57823946D03*
D15*
X99024771Y-54072315D03*
D16*
X93224571Y-56400441D03*
D15*
X94764544Y-50653182D03*
X89365513Y-51484125D03*
D14*
X87911979Y-54976936D03*
%TD*%
D27*
%TO.C,SW10*%
X81333920Y-54662551D03*
X70415906Y-50299127D03*
D14*
X77894372Y-57814157D03*
D15*
X78119091Y-54037652D03*
D16*
X72495422Y-56764708D03*
D15*
X73630736Y-50924026D03*
X68302820Y-52129562D03*
D14*
X67096472Y-55715259D03*
%TD*%
%TO.C,SW9*%
X45045041Y-65996608D03*
D15*
X45869972Y-62304457D03*
X51042689Y-60548607D03*
D16*
X50524112Y-66475965D03*
D15*
X55831919Y-63176015D03*
D14*
X56003183Y-66955322D03*
D28*
X47780150Y-60263171D03*
X59094457Y-63461450D03*
%TD*%
D14*
%TO.C,SW8*%
X249524496Y-49521915D03*
D15*
X249695760Y-45742608D03*
X254484990Y-43115200D03*
D16*
X255003567Y-49042558D03*
D15*
X259657707Y-44871050D03*
D14*
X260482638Y-48563201D03*
D25*
X251222452Y-43400635D03*
X262920244Y-44585615D03*
%TD*%
D14*
%TO.C,SW7*%
X225819374Y-40635682D03*
D15*
X225594655Y-36859177D03*
X230083010Y-33745551D03*
D16*
X231218324Y-39586233D03*
D15*
X235410926Y-34951087D03*
D14*
X236617274Y-38536784D03*
D26*
X226868180Y-34370451D03*
X238625755Y-34326188D03*
%TD*%
D17*
%TO.C,SW6*%
X216321465Y-33732791D03*
X204595619Y-34597113D03*
D14*
X214611592Y-38073234D03*
D15*
X213158058Y-34580423D03*
D16*
X209299000Y-39496739D03*
D15*
X207759027Y-33749480D03*
X203498800Y-37168613D03*
D14*
X203986408Y-40920244D03*
%TD*%
D17*
%TO.C,SW5*%
X199810637Y-43592054D03*
X188084791Y-44456376D03*
D14*
X198100764Y-47932497D03*
D15*
X196647230Y-44439686D03*
D16*
X192788172Y-49356002D03*
D15*
X191248199Y-43608743D03*
X186987972Y-47027876D03*
D14*
X187475580Y-50779507D03*
%TD*%
D23*
%TO.C,SW4*%
X123228339Y-47875509D03*
X112641297Y-42761111D03*
D14*
X119577324Y-50779507D03*
D15*
X120064932Y-47027876D03*
D16*
X114264732Y-49356002D03*
D15*
X115804705Y-43608743D03*
X110405674Y-44439686D03*
D14*
X108952140Y-47932497D03*
%TD*%
D23*
%TO.C,SW3*%
X106717511Y-38016246D03*
X96130469Y-32901848D03*
D14*
X103066496Y-40920244D03*
D15*
X103554104Y-37168613D03*
D16*
X97753904Y-39496739D03*
D15*
X99293877Y-33749480D03*
X93894846Y-34580423D03*
D14*
X92441312Y-38073234D03*
%TD*%
D27*
%TO.C,SW2*%
X84673078Y-37484076D03*
X73755064Y-33120652D03*
D14*
X81233530Y-40635682D03*
D15*
X81458249Y-36859177D03*
D16*
X75834580Y-39586233D03*
D15*
X76969894Y-33745551D03*
X71641978Y-34951087D03*
D14*
X70435630Y-38536784D03*
%TD*%
D28*
%TO.C,SW1*%
X60619682Y-46028043D03*
X49305375Y-42829764D03*
D14*
X57528408Y-49521915D03*
D15*
X57357144Y-45742608D03*
D16*
X52049337Y-49042558D03*
D15*
X52567914Y-43115200D03*
X47395197Y-44871050D03*
D14*
X46570266Y-48563201D03*
%TD*%
D13*
%TO.C,Display1*%
X148670000Y-87980000D03*
X151210000Y-87980000D03*
X153750000Y-87980000D03*
X156290000Y-87980000D03*
X158830000Y-87980000D03*
%TD*%
D29*
%TO.C,D38*%
X202350000Y-109730000D03*
X202350000Y-113030000D03*
%TD*%
%TO.C,D37*%
X184570000Y-115190000D03*
X184570000Y-118490000D03*
%TD*%
%TO.C,D36*%
X135040000Y-123700000D03*
X135040000Y-127000000D03*
%TD*%
%TO.C,D35*%
X119800000Y-113540000D03*
X119800000Y-116840000D03*
%TD*%
%TO.C,D31*%
X185840000Y-59310000D03*
X185840000Y-62610000D03*
%TD*%
%TO.C,D30*%
X189650000Y-77850000D03*
X189650000Y-74550000D03*
%TD*%
%TO.C,D29*%
X194730000Y-94360000D03*
X194730000Y-91060000D03*
%TD*%
%TO.C,D28*%
X129960000Y-97030000D03*
X129960000Y-100330000D03*
%TD*%
%TO.C,D27*%
X133770000Y-80900000D03*
X133770000Y-84200000D03*
%TD*%
%TO.C,D26*%
X137580000Y-64010000D03*
X137580000Y-67310000D03*
%TD*%
%TO.C,D24*%
X265850000Y-87250000D03*
X265850000Y-90550000D03*
%TD*%
%TO.C,D23*%
X246800000Y-75820000D03*
X246800000Y-79120000D03*
%TD*%
%TO.C,D22*%
X226480000Y-75820000D03*
X226480000Y-79120000D03*
%TD*%
%TO.C,D21*%
X211240000Y-83440000D03*
X211240000Y-86740000D03*
%TD*%
%TO.C,D20*%
X112180000Y-91820000D03*
X112180000Y-88520000D03*
%TD*%
%TO.C,D19*%
X95670000Y-81660000D03*
X95670000Y-78360000D03*
%TD*%
%TO.C,D18*%
X75350000Y-79250000D03*
X75350000Y-82550000D03*
%TD*%
%TO.C,D17*%
X56300000Y-88140000D03*
X56300000Y-91440000D03*
%TD*%
%TO.C,D16*%
X264580000Y-69470000D03*
X264580000Y-72770000D03*
%TD*%
%TO.C,D15*%
X242990000Y-58040000D03*
X242990000Y-61340000D03*
%TD*%
%TO.C,D14*%
X222670000Y-57660000D03*
X222670000Y-60960000D03*
%TD*%
%TO.C,D13*%
X206160000Y-68200000D03*
X206160000Y-71500000D03*
%TD*%
%TO.C,D12*%
X115990000Y-72010000D03*
X115990000Y-75310000D03*
%TD*%
%TO.C,D11*%
X99480000Y-63120000D03*
X99480000Y-66420000D03*
%TD*%
%TO.C,D10*%
X79160000Y-65150000D03*
X79160000Y-61850000D03*
%TD*%
%TO.C,D9*%
X58840000Y-70740000D03*
X58840000Y-74040000D03*
%TD*%
%TO.C,D8*%
X263310000Y-52960000D03*
X263310000Y-56260000D03*
%TD*%
%TO.C,D7*%
X240450000Y-41910000D03*
X240450000Y-45210000D03*
%TD*%
%TO.C,D6*%
X218860000Y-41530000D03*
X218860000Y-44830000D03*
%TD*%
%TO.C,D5*%
X202350000Y-50800000D03*
X202350000Y-54100000D03*
%TD*%
%TO.C,D4*%
X121070000Y-55880000D03*
X121070000Y-59180000D03*
%TD*%
%TO.C,D3*%
X104560000Y-46610000D03*
X104560000Y-49910000D03*
%TD*%
%TO.C,D2*%
X82970000Y-45340000D03*
X82970000Y-48640000D03*
%TD*%
%TO.C,D1*%
X61380000Y-52450000D03*
X61380000Y-49150000D03*
%TD*%
%LPD*%
M02*
